ISO-10303-21;
HEADER;
FILE_DESCRIPTION (( 'STEP AP203' ),
    '1' );
FILE_NAME ('ARM-106_M3_standoff_24mm.step',
    '2026-09-08T03:29:25',
    ( '' ),
    ( '' ),
    'SwSTEP 2.0',
    'SolidWorks 2026',
    '' );
FILE_SCHEMA (( 'CONFIG_CONTROL_DESIGN' ));
ENDSEC;

DATA;
#1 = LINE ( 'NONE', #76, #20 ) ;
#2 = DESIGN_CONTEXT ( 'detailed design', #119, 'design' ) ;
#3 = DIRECTION ( 'NONE',  ( -0.000000000000000000, -0.000000000000000000, -1.000000000000000000 ) ) ;
#4 = EDGE_CURVE ( 'NONE', #34, #144, #95, .T. ) ;
#5 = MECHANICAL_CONTEXT ( 'NONE', #176, 'mechanical' ) ;
#6 = CARTESIAN_POINT ( 'NONE',  ( 4.000000000000000000, 4.898587196589412829E-16, 24.00000000000000000 ) ) ;
#7 = DIRECTION ( 'NONE',  ( 0.000000000000000000, 0.000000000000000000, 1.000000000000000000 ) ) ;
#8 = DIRECTION ( 'NONE',  ( 1.000000000000000000, 0.000000000000000000, 0.000000000000000000 ) ) ;
#9 = AXIS2_PLACEMENT_3D ( 'NONE', #133, #97, #175 ) ;
#10 = CALENDAR_DATE ( 2026, 7, 9 ) ;
#11 = PERSON_AND_ORGANIZATION ( #55, #58 ) ;
#12 = EDGE_CURVE ( 'NONE', #144, #34, #156, .T. ) ;
#13 = APPROVAL_STATUS ( 'not_yet_approved' ) ;
#14 = ORIENTED_EDGE ( 'NONE', *, *, #249, .F. ) ;
#15 = DATE_TIME_ROLE ( 'creation_date' ) ;
#16 = DIRECTION ( 'NONE',  ( -0.000000000000000000, -0.000000000000000000, -1.000000000000000000 ) ) ;
#17 = EDGE_LOOP ( 'NONE', ( #123, #207 ) ) ;
#18 = VERTEX_POINT ( 'NONE', #244 ) ;
#19 = EDGE_LOOP ( 'NONE', ( #75, #39 ) ) ;
#20 = VECTOR ( 'NONE', #131, 1000.000000000000000 ) ;
#21 = DIRECTION ( 'NONE',  ( 0.000000000000000000, 0.000000000000000000, 1.000000000000000000 ) ) ;
#22 = MANIFOLD_SOLID_BREP ( 'Standoff_OD8_ID3p2', #173 ) ;
#23 = PLANE ( 'NONE',  #116 ) ;
#24 = CARTESIAN_POINT ( 'NONE',  ( 0.000000000000000000, 0.000000000000000000, 24.00000000000000000 ) ) ;
#25 = CARTESIAN_POINT ( 'NONE',  ( 0.000000000000000000, 0.000000000000000000, 0.000000000000000000 ) ) ;
#26 = CC_DESIGN_APPROVAL ( #190, ( #130 ) ) ;
#27 = CARTESIAN_POINT ( 'NONE',  ( 0.000000000000000000, 0.000000000000000000, 0.000000000000000000 ) ) ;
#28 = APPROVAL_ROLE ( '' ) ;
#29 = APPROVAL_DATE_TIME ( #164, #190 ) ;
#30 = CC_DESIGN_PERSON_AND_ORGANIZATION_ASSIGNMENT ( #204, #105, ( #221 ) ) ;
#31 = APPROVAL_DATE_TIME ( #85, #115 ) ;
#32 = APPROVAL_PERSON_ORGANIZATION ( #184, #190, #66 ) ;
#33 = APPROVAL_STATUS ( 'not_yet_approved' ) ;
#34 = VERTEX_POINT ( 'NONE', #169 ) ;
#35 = CARTESIAN_POINT ( 'NONE',  ( 0.000000000000000000, 0.000000000000000000, 24.00000000000000000 ) ) ;
#36 = DIRECTION ( 'NONE',  ( -1.000000000000000000, 0.000000000000000000, 0.000000000000000000 ) ) ;
#37 = FACE_OUTER_BOUND ( 'NONE', #19, .T. ) ;
#38 = AXIS2_PLACEMENT_3D ( 'NONE', #25, #98, #158 ) ;
#39 = ORIENTED_EDGE ( 'NONE', *, *, #12, .F. ) ;
#40 = LOCAL_TIME ( 22, 29, 24.00000000000000000, #240 ) ;
#41 = LINE ( 'NONE', #80, #99 ) ;
#42 = AXIS2_PLACEMENT_3D ( 'NONE', #27, #117, #43 ) ;
#43 = DIRECTION ( 'NONE',  ( 1.000000000000000000, 0.000000000000000000, 0.000000000000000000 ) ) ;
#44 = AXIS2_PLACEMENT_3D ( 'NONE', #247, #51, #91 ) ;
#45 = ADVANCED_FACE ( 'NONE', ( #153 ), #73, .F. ) ;
#46 = DATE_AND_TIME ( #83, #47 ) ;
#47 = LOCAL_TIME ( 22, 29, 24.00000000000000000, #139 ) ;
#48 = EDGE_CURVE ( 'NONE', #84, #106, #239, .T. ) ;
#49 = CYLINDRICAL_SURFACE ( 'NONE', #82, 4.000000000000000000 ) ;
#50 = VERTEX_POINT ( 'NONE', #208 ) ;
#51 = DIRECTION ( 'NONE',  ( 0.000000000000000000, 0.000000000000000000, 1.000000000000000000 ) ) ;
#52 = CIRCLE ( 'NONE', #86, 4.000000000000000000 ) ;
#53 = DIRECTION ( 'NONE',  ( 1.000000000000000000, 0.000000000000000000, 0.000000000000000000 ) ) ;
#54 = EDGE_LOOP ( 'NONE', ( #148, #233, #93, #225 ) ) ;
#55 = PERSON ( 'UNSPECIFIED', 'UNSPECIFIED', 'UNSPECIFIED', ('UNSPECIFIED'), ('UNSPECIFIED'), ('UNSPECIFIED') ) ;
#56 =( NAMED_UNIT ( * ) PLANE_ANGLE_UNIT ( ) SI_UNIT ( $, .RADIAN. ) );
#57 = FACE_OUTER_BOUND ( 'NONE', #67, .T. ) ;
#58 = ORGANIZATION ( 'UNSPECIFIED', 'UNSPECIFIED', '' ) ;
#59 = CARTESIAN_POINT ( 'NONE',  ( 0.000000000000000000, 0.000000000000000000, 24.00000000000000000 ) ) ;
#60 = EDGE_CURVE ( 'NONE', #50, #215, #124, .T. ) ;
#61 = PERSON_AND_ORGANIZATION ( #55, #58 ) ;
#62 = SHAPE_DEFINITION_REPRESENTATION ( #128, #160 ) ;
#63 = APPROVAL_DATE_TIME ( #145, #186 ) ;
#64 = ORIENTED_EDGE ( 'NONE', *, *, #48, .F. ) ;
#65 = LOCAL_TIME ( 22, 29, 24.00000000000000000, #87 ) ;
#66 = APPROVAL_ROLE ( '' ) ;
#67 = EDGE_LOOP ( 'NONE', ( #209, #205, #14, #70 ) ) ;
#68 = PERSON_AND_ORGANIZATION_ROLE ( 'creator' ) ;
#69 = EDGE_CURVE ( 'NONE', #50, #84, #1, .T. ) ;
#70 = ORIENTED_EDGE ( 'NONE', *, *, #234, .F. ) ;
#71 = CARTESIAN_POINT ( 'NONE',  ( 0.000000000000000000, 0.000000000000000000, 24.00000000000000000 ) ) ;
#72 = CC_DESIGN_PERSON_AND_ORGANIZATION_ASSIGNMENT ( #11, #68, ( #221 ) ) ;
#73 = CYLINDRICAL_SURFACE ( 'NONE', #198, 1.600000000000000089 ) ;
#74 = DIRECTION ( 'NONE',  ( 1.000000000000000000, 0.000000000000000000, 0.000000000000000000 ) ) ;
#75 = ORIENTED_EDGE ( 'NONE', *, *, #4, .F. ) ;
#76 = CARTESIAN_POINT ( 'NONE',  ( 1.600000000000000089, 1.959434878635765230E-16, 24.00000000000000000 ) ) ;
#77 = AXIS2_PLACEMENT_3D ( 'NONE', #35, #230, #53 ) ;
#78 = UNCERTAINTY_MEASURE_WITH_UNIT (LENGTH_MEASURE( 1.000000000000000082E-05 ), #81, 'distance_accuracy_value', 'NONE');
#79 = CARTESIAN_POINT ( 'NONE',  ( 0.000000000000000000, 0.000000000000000000, 24.00000000000000000 ) ) ;
#80 = CARTESIAN_POINT ( 'NONE',  ( 4.000000000000000000, 4.898587196589412829E-16, 24.00000000000000000 ) ) ;
#81 =( LENGTH_UNIT ( ) NAMED_UNIT ( * ) SI_UNIT ( .MILLI., .METRE. ) );
#82 = AXIS2_PLACEMENT_3D ( 'NONE', #189, #245, #172 ) ;
#83 = CALENDAR_DATE ( 2026, 7, 9 ) ;
#84 = VERTEX_POINT ( 'NONE', #110 ) ;
#85 = DATE_AND_TIME ( #10, #40 ) ;
#86 = AXIS2_PLACEMENT_3D ( 'NONE', #154, #7, #8 ) ;
#87 = COORDINATED_UNIVERSAL_TIME_OFFSET ( 6, 0, .BEHIND. ) ;
#88 = PERSON_AND_ORGANIZATION ( #55, #58 ) ;
#89 = CARTESIAN_POINT ( 'NONE',  ( 4.000000000000000000, 4.898587196589412829E-16, 0.000000000000000000 ) ) ;
#90 = ADVANCED_FACE ( 'NONE', ( #108 ), #49, .T. ) ;
#91 = DIRECTION ( 'NONE',  ( 1.000000000000000000, 0.000000000000000000, 0.000000000000000000 ) ) ;
#92 = CIRCLE ( 'NONE', #42, 1.600000000000000089 ) ;
#93 = ORIENTED_EDGE ( 'NONE', *, *, #121, .T. ) ;
#94 = ORIENTED_EDGE ( 'NONE', *, *, #12, .T. ) ;
#95 = CIRCLE ( 'NONE', #150, 4.000000000000000000 ) ;
#96 = APPROVAL_PERSON_ORGANIZATION ( #88, #115, #122 ) ;
#97 = DIRECTION ( 'NONE',  ( 0.000000000000000000, 0.000000000000000000, 1.000000000000000000 ) ) ;
#98 = DIRECTION ( 'NONE',  ( 0.000000000000000000, 0.000000000000000000, 1.000000000000000000 ) ) ;
#99 = VECTOR ( 'NONE', #3, 1000.000000000000000 ) ;
#100 = PRODUCT_RELATED_PRODUCT_CATEGORY ( 'detail', '', ( #211 ) ) ;
#101 = DIRECTION ( 'NONE',  ( 0.000000000000000000, 0.000000000000000000, 1.000000000000000000 ) ) ;
#102 = FACE_BOUND ( 'NONE', #17, .T. ) ;
#103 = PERSON_AND_ORGANIZATION_ROLE ( 'design_owner' ) ;
#104 = DATE_AND_TIME ( #227, #65 ) ;
#105 = PERSON_AND_ORGANIZATION_ROLE ( 'design_supplier' ) ;
#106 = VERTEX_POINT ( 'NONE', #191 ) ;
#107 = AXIS2_PLACEMENT_3D ( 'NONE', #71, #246, #74 ) ;
#108 = FACE_OUTER_BOUND ( 'NONE', #54, .T. ) ;
#109 = LINE ( 'NONE', #232, #146 ) ;
#110 = CARTESIAN_POINT ( 'NONE',  ( 1.600000000000000089, 1.959434878635765230E-16, 0.000000000000000000 ) ) ;
#111 = EDGE_CURVE ( 'NONE', #216, #18, #188, .T. ) ;
#112 = ORIENTED_EDGE ( 'NONE', *, *, #152, .F. ) ;
#113 = CARTESIAN_POINT ( 'NONE',  ( -1.600000000000000089, 0.000000000000000000, 24.00000000000000000 ) ) ;
#114 = FACE_BOUND ( 'NONE', #167, .T. ) ;
#115 = APPROVAL ( #13, 'UNSPECIFIED' ) ;
#116 = AXIS2_PLACEMENT_3D ( 'NONE', #24, #157, #178 ) ;
#117 = DIRECTION ( 'NONE',  ( 0.000000000000000000, 0.000000000000000000, 1.000000000000000000 ) ) ;
#118 = PERSON_AND_ORGANIZATION ( #55, #58 ) ;
#119 = APPLICATION_CONTEXT ( 'configuration controlled 3d designs of mechanical parts and assemblies' ) ;
#120 = CALENDAR_DATE ( 2026, 7, 9 ) ;
#121 = EDGE_CURVE ( 'NONE', #18, #34, #109, .T. ) ;
#122 = APPROVAL_ROLE ( '' ) ;
#123 = ORIENTED_EDGE ( 'NONE', *, *, #249, .T. ) ;
#124 = CIRCLE ( 'NONE', #77, 1.600000000000000089 ) ;
#125 = EDGE_LOOP ( 'NONE', ( #162, #140, #94, #213 ) ) ;
#126 = CARTESIAN_POINT ( 'NONE',  ( 0.000000000000000000, 0.000000000000000000, 24.00000000000000000 ) ) ;
#127 = EDGE_LOOP ( 'NONE', ( #228, #147 ) ) ;
#128 = PRODUCT_DEFINITION_SHAPE ( 'NONE', 'NONE',  #159 ) ;
#129 = DIRECTION ( 'NONE',  ( 1.000000000000000000, 0.000000000000000000, 0.000000000000000000 ) ) ;
#130 = SECURITY_CLASSIFICATION ( '', '', #185 ) ;
#131 = DIRECTION ( 'NONE',  ( -0.000000000000000000, -0.000000000000000000, -1.000000000000000000 ) ) ;
#132 =( GEOMETRIC_REPRESENTATION_CONTEXT ( 3 ) GLOBAL_UNCERTAINTY_ASSIGNED_CONTEXT ( ( #78 ) ) GLOBAL_UNIT_ASSIGNED_CONTEXT ( ( #81, #56, #155 ) ) REPRESENTATION_CONTEXT ( 'NONE', 'WORKASPACE' ) );
#133 = CARTESIAN_POINT ( 'NONE',  ( 0.000000000000000000, 0.000000000000000000, 0.000000000000000000 ) ) ;
#134 = CYLINDRICAL_SURFACE ( 'NONE', #165, 4.000000000000000000 ) ;
#135 = APPLICATION_PROTOCOL_DEFINITION ( 'international standard', 'config_control_design', 1994, #176 ) ;
#136 = FACE_OUTER_BOUND ( 'NONE', #125, .T. ) ;
#137 = LINE ( 'NONE', #113, #231 ) ;
#138 = CC_DESIGN_PERSON_AND_ORGANIZATION_ASSIGNMENT ( #161, #223, ( #159 ) ) ;
#139 = COORDINATED_UNIVERSAL_TIME_OFFSET ( 6, 0, .BEHIND. ) ;
#140 = ORIENTED_EDGE ( 'NONE', *, *, #217, .T. ) ;
#141 = AXIS2_PLACEMENT_3D ( 'NONE', #236, #101, #220 ) ;
#142 = PERSON_AND_ORGANIZATION_ROLE ( 'classification_officer' ) ;
#143 = CC_DESIGN_DATE_AND_TIME_ASSIGNMENT ( #104, #241, ( #130 ) ) ;
#144 = VERTEX_POINT ( 'NONE', #89 ) ;
#145 = DATE_AND_TIME ( #120, #203 ) ;
#146 = VECTOR ( 'NONE', #16, 1000.000000000000000 ) ;
#147 = ORIENTED_EDGE ( 'NONE', *, *, #111, .T. ) ;
#148 = ORIENTED_EDGE ( 'NONE', *, *, #217, .F. ) ;
#149 = DIRECTION ( 'NONE',  ( -0.000000000000000000, -0.000000000000000000, -1.000000000000000000 ) ) ;
#150 = AXIS2_PLACEMENT_3D ( 'NONE', #151, #21, #193 ) ;
#151 = CARTESIAN_POINT ( 'NONE',  ( 0.000000000000000000, 0.000000000000000000, 0.000000000000000000 ) ) ;
#152 = EDGE_CURVE ( 'NONE', #215, #50, #224, .T. ) ;
#153 = FACE_OUTER_BOUND ( 'NONE', #183, .T. ) ;
#154 = CARTESIAN_POINT ( 'NONE',  ( 0.000000000000000000, 0.000000000000000000, 24.00000000000000000 ) ) ;
#155 =( NAMED_UNIT ( * ) SI_UNIT ( $, .STERADIAN. ) SOLID_ANGLE_UNIT ( ) );
#156 = CIRCLE ( 'NONE', #44, 4.000000000000000000 ) ;
#157 = DIRECTION ( 'NONE',  ( 0.000000000000000000, 0.000000000000000000, 1.000000000000000000 ) ) ;
#158 = DIRECTION ( 'NONE',  ( 1.000000000000000000, 0.000000000000000000, 0.000000000000000000 ) ) ;
#159 = PRODUCT_DEFINITION ( 'UNKNOWN', '', #221, #2 ) ;
#160 = ADVANCED_BREP_SHAPE_REPRESENTATION ( 'ARM-106_M3_standoff_24mm', ( #22, #38 ), #132 ) ;
#161 = PERSON_AND_ORGANIZATION ( #55, #58 ) ;
#162 = ORIENTED_EDGE ( 'NONE', *, *, #111, .F. ) ;
#163 = CC_DESIGN_DATE_AND_TIME_ASSIGNMENT ( #46, #15, ( #159 ) ) ;
#164 = DATE_AND_TIME ( #202, #248 ) ;
#165 = AXIS2_PLACEMENT_3D ( 'NONE', #59, #180, #181 ) ;
#166 = COORDINATED_UNIVERSAL_TIME_OFFSET ( 6, 0, .BEHIND. ) ;
#167 = EDGE_LOOP ( 'NONE', ( #112, #229 ) ) ;
#168 = COORDINATED_UNIVERSAL_TIME_OFFSET ( 6, 0, .BEHIND. ) ;
#169 = CARTESIAN_POINT ( 'NONE',  ( -4.000000000000000000, 0.000000000000000000, 0.000000000000000000 ) ) ;
#170 = CARTESIAN_POINT ( 'NONE',  ( 0.000000000000000000, 0.000000000000000000, 24.00000000000000000 ) ) ;
#171 = CC_DESIGN_PERSON_AND_ORGANIZATION_ASSIGNMENT ( #197, #103, ( #211 ) ) ;
#172 = DIRECTION ( 'NONE',  ( -1.000000000000000000, 0.000000000000000000, 0.000000000000000000 ) ) ;
#173 = CLOSED_SHELL ( 'NONE', ( #206, #210, #242, #199, #90, #45 ) ) ;
#174 = ORIENTED_EDGE ( 'NONE', *, *, #234, .T. ) ;
#175 = DIRECTION ( 'NONE',  ( 1.000000000000000000, 0.000000000000000000, 0.000000000000000000 ) ) ;
#176 = APPLICATION_CONTEXT ( 'configuration controlled 3d designs of mechanical parts and assemblies' ) ;
#177 = FACE_OUTER_BOUND ( 'NONE', #127, .T. ) ;
#178 = DIRECTION ( 'NONE',  ( 1.000000000000000000, 0.000000000000000000, -0.000000000000000000 ) ) ;
#179 = CC_DESIGN_APPROVAL ( #115, ( #221 ) ) ;
#180 = DIRECTION ( 'NONE',  ( -0.000000000000000000, -0.000000000000000000, -1.000000000000000000 ) ) ;
#181 = DIRECTION ( 'NONE',  ( -1.000000000000000000, 0.000000000000000000, 0.000000000000000000 ) ) ;
#182 = CARTESIAN_POINT ( 'NONE',  ( -1.600000000000000089, 0.000000000000000000, 24.00000000000000000 ) ) ;
#183 = EDGE_LOOP ( 'NONE', ( #195, #243, #174, #64 ) ) ;
#184 = PERSON_AND_ORGANIZATION ( #55, #58 ) ;
#185 = SECURITY_CLASSIFICATION_LEVEL ( 'unclassified' ) ;
#186 = APPROVAL ( #201, 'UNSPECIFIED' ) ;
#187 = DIRECTION ( 'NONE',  ( 0.000000000000000000, 0.000000000000000000, 1.000000000000000000 ) ) ;
#188 = CIRCLE ( 'NONE', #194, 4.000000000000000000 ) ;
#189 = CARTESIAN_POINT ( 'NONE',  ( 0.000000000000000000, 0.000000000000000000, 24.00000000000000000 ) ) ;
#190 = APPROVAL ( #33, 'UNSPECIFIED' ) ;
#191 = CARTESIAN_POINT ( 'NONE',  ( -1.600000000000000089, 0.000000000000000000, 0.000000000000000000 ) ) ;
#192 = CC_DESIGN_APPROVAL ( #186, ( #159 ) ) ;
#193 = DIRECTION ( 'NONE',  ( 1.000000000000000000, 0.000000000000000000, 0.000000000000000000 ) ) ;
#194 = AXIS2_PLACEMENT_3D ( 'NONE', #126, #187, #129 ) ;
#195 = ORIENTED_EDGE ( 'NONE', *, *, #69, .F. ) ;
#196 = CYLINDRICAL_SURFACE ( 'NONE', #212, 1.600000000000000089 ) ;
#197 = PERSON_AND_ORGANIZATION ( #55, #58 ) ;
#198 = AXIS2_PLACEMENT_3D ( 'NONE', #170, #149, #36 ) ;
#199 = ADVANCED_FACE ( 'NONE', ( #37, #102 ), #219, .F. ) ;
#200 = APPLICATION_PROTOCOL_DEFINITION ( 'international standard', 'config_control_design', 1994, #119 ) ;
#201 = APPROVAL_STATUS ( 'not_yet_approved' ) ;
#202 = CALENDAR_DATE ( 2026, 7, 9 ) ;
#203 = LOCAL_TIME ( 22, 29, 24.00000000000000000, #166 ) ;
#204 = PERSON_AND_ORGANIZATION ( #55, #58 ) ;
#205 = ORIENTED_EDGE ( 'NONE', *, *, #69, .T. ) ;
#206 = ADVANCED_FACE ( 'NONE', ( #57 ), #196, .F. ) ;
#207 = ORIENTED_EDGE ( 'NONE', *, *, #48, .T. ) ;
#208 = CARTESIAN_POINT ( 'NONE',  ( 1.600000000000000089, 1.959434878635765230E-16, 24.00000000000000000 ) ) ;
#209 = ORIENTED_EDGE ( 'NONE', *, *, #152, .T. ) ;
#210 = ADVANCED_FACE ( 'NONE', ( #136 ), #134, .T. ) ;
#211 = PRODUCT ( 'ARM-106_M3_standoff_24mm', 'ARM-106_M3_standoff_24mm', '', ( #5 ) ) ;
#212 = AXIS2_PLACEMENT_3D ( 'NONE', #79, #238, #222 ) ;
#213 = ORIENTED_EDGE ( 'NONE', *, *, #121, .F. ) ;
#214 = CC_DESIGN_SECURITY_CLASSIFICATION ( #130, ( #221 ) ) ;
#215 = VERTEX_POINT ( 'NONE', #182 ) ;
#216 = VERTEX_POINT ( 'NONE', #6 ) ;
#217 = EDGE_CURVE ( 'NONE', #216, #144, #41, .T. ) ;
#218 = DIRECTION ( 'NONE',  ( -0.000000000000000000, -0.000000000000000000, -1.000000000000000000 ) ) ;
#219 = PLANE ( 'NONE',  #141 ) ;
#220 = DIRECTION ( 'NONE',  ( 1.000000000000000000, 0.000000000000000000, -0.000000000000000000 ) ) ;
#221 = PRODUCT_DEFINITION_FORMATION_WITH_SPECIFIED_SOURCE ( 'ANY', '', #211, .NOT_KNOWN. ) ;
#222 = DIRECTION ( 'NONE',  ( -1.000000000000000000, 0.000000000000000000, 0.000000000000000000 ) ) ;
#223 = PERSON_AND_ORGANIZATION_ROLE ( 'creator' ) ;
#224 = CIRCLE ( 'NONE', #107, 1.600000000000000089 ) ;
#225 = ORIENTED_EDGE ( 'NONE', *, *, #4, .T. ) ;
#226 = EDGE_CURVE ( 'NONE', #18, #216, #52, .T. ) ;
#227 = CALENDAR_DATE ( 2026, 7, 9 ) ;
#228 = ORIENTED_EDGE ( 'NONE', *, *, #226, .T. ) ;
#229 = ORIENTED_EDGE ( 'NONE', *, *, #60, .F. ) ;
#230 = DIRECTION ( 'NONE',  ( 0.000000000000000000, 0.000000000000000000, 1.000000000000000000 ) ) ;
#231 = VECTOR ( 'NONE', #218, 1000.000000000000000 ) ;
#232 = CARTESIAN_POINT ( 'NONE',  ( -4.000000000000000000, 0.000000000000000000, 24.00000000000000000 ) ) ;
#233 = ORIENTED_EDGE ( 'NONE', *, *, #226, .F. ) ;
#234 = EDGE_CURVE ( 'NONE', #215, #106, #137, .T. ) ;
#235 = CC_DESIGN_PERSON_AND_ORGANIZATION_ASSIGNMENT ( #118, #142, ( #130 ) ) ;
#236 = CARTESIAN_POINT ( 'NONE',  ( 0.000000000000000000, 0.000000000000000000, 0.000000000000000000 ) ) ;
#237 = APPROVAL_PERSON_ORGANIZATION ( #61, #186, #28 ) ;
#238 = DIRECTION ( 'NONE',  ( -0.000000000000000000, -0.000000000000000000, -1.000000000000000000 ) ) ;
#239 = CIRCLE ( 'NONE', #9, 1.600000000000000089 ) ;
#240 = COORDINATED_UNIVERSAL_TIME_OFFSET ( 6, 0, .BEHIND. ) ;
#241 = DATE_TIME_ROLE ( 'classification_date' ) ;
#242 = ADVANCED_FACE ( 'NONE', ( #177, #114 ), #23, .T. ) ;
#243 = ORIENTED_EDGE ( 'NONE', *, *, #60, .T. ) ;
#244 = CARTESIAN_POINT ( 'NONE',  ( -4.000000000000000000, 0.000000000000000000, 24.00000000000000000 ) ) ;
#245 = DIRECTION ( 'NONE',  ( -0.000000000000000000, -0.000000000000000000, -1.000000000000000000 ) ) ;
#246 = DIRECTION ( 'NONE',  ( 0.000000000000000000, 0.000000000000000000, 1.000000000000000000 ) ) ;
#247 = CARTESIAN_POINT ( 'NONE',  ( 0.000000000000000000, 0.000000000000000000, 0.000000000000000000 ) ) ;
#248 = LOCAL_TIME ( 22, 29, 24.00000000000000000, #168 ) ;
#249 = EDGE_CURVE ( 'NONE', #106, #84, #92, .T. ) ;
ENDSEC;
END-ISO-10303-21;
