ISO-10303-21;
HEADER;
FILE_DESCRIPTION (( 'STEP AP203' ),
    '1' );
FILE_NAME ('ARM-004_Removable_yaw_servo_mount.step',
    '2026-09-08T03:40:01',
    ( '' ),
    ( '' ),
    'SwSTEP 2.0',
    'SolidWorks 2026',
    '' );
FILE_SCHEMA (( 'CONFIG_CONTROL_DESIGN' ));
ENDSEC;

DATA;
#1 = VECTOR ( 'NONE', #890, 1000.000000000000000 ) ;
#2 = DIRECTION ( 'NONE',  ( 0.000000000000000000, 1.000000000000000000, 0.000000000000000000 ) ) ;
#3 = CARTESIAN_POINT ( 'NONE',  ( 25.00000000000000000, 30.00000000000000000, 18.00000000000000000 ) ) ;
#4 = EDGE_LOOP ( 'NONE', ( #701, #224 ) ) ;
#5 = DIRECTION ( 'NONE',  ( 0.000000000000000000, 0.000000000000000000, 1.000000000000000000 ) ) ;
#6 = DIRECTION ( 'NONE',  ( -1.000000000000000000, 0.000000000000000000, 0.000000000000000000 ) ) ;
#7 = LINE ( 'NONE', #650, #700 ) ;
#8 = ORIENTED_EDGE ( 'NONE', *, *, #989, .F. ) ;
#9 = VECTOR ( 'NONE', #275, 1000.000000000000000 ) ;
#10 = CALENDAR_DATE ( 2026, 7, 9 ) ;
#11 = CYLINDRICAL_SURFACE ( 'NONE', #724, 1.600000000000000755 ) ;
#12 = EDGE_CURVE ( 'NONE', #634, #385, #26, .T. ) ;
#13 = CARTESIAN_POINT ( 'NONE',  ( 0.000000000000000000, 26.00000000000000000, 16.00000000000000000 ) ) ;
#14 = VERTEX_POINT ( 'NONE', #743 ) ;
#15 = CARTESIAN_POINT ( 'NONE',  ( -21.00000000000000000, 23.00000000000000000, -18.00000000000000000 ) ) ;
#16 = DIRECTION ( 'NONE',  ( -0.000000000000000000, -0.000000000000000000, -1.000000000000000000 ) ) ;
#17 = VERTEX_POINT ( 'NONE', #430 ) ;
#18 = VECTOR ( 'NONE', #725, 1000.000000000000000 ) ;
#19 = VECTOR ( 'NONE', #914, 1000.000000000000000 ) ;
#20 = LINE ( 'NONE', #580, #25 ) ;
#21 = CARTESIAN_POINT ( 'NONE',  ( -14.00000000000000178, 28.00000000000000000, 12.00000000000000000 ) ) ;
#22 = EDGE_CURVE ( 'NONE', #761, #794, #752, .T. ) ;
#23 = ORIENTED_EDGE ( 'NONE', *, *, #68, .F. ) ;
#24 = EDGE_CURVE ( 'NONE', #504, #852, #668, .T. ) ;
#25 = VECTOR ( 'NONE', #901, 1000.000000000000000 ) ;
#26 = LINE ( 'NONE', #515, #179 ) ;
#27 = ORIENTED_EDGE ( 'NONE', *, *, #572, .F. ) ;
#28 = DIRECTION ( 'NONE',  ( -1.000000000000000000, 0.000000000000000000, -0.000000000000000000 ) ) ;
#29 = DIRECTION ( 'NONE',  ( -1.000000000000000000, 0.000000000000000000, 0.000000000000000000 ) ) ;
#30 = CIRCLE ( 'NONE', #772, 1.299999999999999156 ) ;
#31 = CARTESIAN_POINT ( 'NONE',  ( 0.000000000000000000, 30.00000000000000000, 6.500000000000000000 ) ) ;
#32 = ORIENTED_EDGE ( 'NONE', *, *, #363, .T. ) ;
#33 = LINE ( 'NONE', #916, #226 ) ;
#34 = ADVANCED_FACE ( 'NONE', ( #178 ), #434, .F. ) ;
#35 = CYLINDRICAL_SURFACE ( 'NONE', #255, 1.300000000000000044 ) ;
#36 = ORIENTED_EDGE ( 'NONE', *, *, #929, .F. ) ;
#37 = LINE ( 'NONE', #31, #60 ) ;
#38 = VECTOR ( 'NONE', #137, 1000.000000000000000 ) ;
#39 = DIRECTION ( 'NONE',  ( 0.000000000000000000, 0.000000000000000000, -1.000000000000000000 ) ) ;
#40 = VECTOR ( 'NONE', #442, 1000.000000000000000 ) ;
#41 = ORIENTED_EDGE ( 'NONE', *, *, #146, .F. ) ;
#42 = CARTESIAN_POINT ( 'NONE',  ( -21.00000000000000000, 30.00000000000000000, 18.00000000000000000 ) ) ;
#43 = DIRECTION ( 'NONE',  ( 0.000000000000000000, 0.000000000000000000, -1.000000000000000000 ) ) ;
#44 = EDGE_CURVE ( 'NONE', #17, #880, #343, .T. ) ;
#45 = DIRECTION ( 'NONE',  ( -1.000000000000000000, -0.000000000000000000, -0.000000000000000000 ) ) ;
#46 = CARTESIAN_POINT ( 'NONE',  ( 0.000000000000000000, 30.00000000000000000, -8.000000000000000000 ) ) ;
#47 = VERTEX_POINT ( 'NONE', #824 ) ;
#48 = LINE ( 'NONE', #286, #749 ) ;
#49 = DIRECTION ( 'NONE',  ( 0.000000000000000000, -0.000000000000000000, 1.000000000000000000 ) ) ;
#50 = DIRECTION ( 'NONE',  ( 0.000000000000000000, -1.000000000000000000, 0.000000000000000000 ) ) ;
#51 = EDGE_LOOP ( 'NONE', ( #833, #54, #511, #892 ) ) ;
#52 = AXIS2_PLACEMENT_3D ( 'NONE', #882, #632, #896 ) ;
#53 = FACE_OUTER_BOUND ( 'NONE', #571, .T. ) ;
#54 = ORIENTED_EDGE ( 'NONE', *, *, #222, .T. ) ;
#55 = LINE ( 'NONE', #371, #578 ) ;
#56 = FACE_BOUND ( 'NONE', #189, .T. ) ;
#57 = EDGE_LOOP ( 'NONE', ( #520, #136, #133, #672 ) ) ;
#58 = EDGE_CURVE ( 'NONE', #880, #213, #109, .T. ) ;
#59 = EDGE_CURVE ( 'NONE', #47, #927, #55, .T. ) ;
#60 = VECTOR ( 'NONE', #697, 1000.000000000000000 ) ;
#61 = CARTESIAN_POINT ( 'NONE',  ( -21.00000000000000000, 33.00000000000000000, 18.00000000000000000 ) ) ;
#62 = FACE_BOUND ( 'NONE', #64, .T. ) ;
#63 = EDGE_LOOP ( 'NONE', ( #159, #229, #113, #438 ) ) ;
#64 = EDGE_LOOP ( 'NONE', ( #674, #139 ) ) ;
#65 = LINE ( 'NONE', #855, #949 ) ;
#66 = CARTESIAN_POINT ( 'NONE',  ( 25.00000000000000000, 30.00000000000000000, -18.00000000000000000 ) ) ;
#67 = ORIENTED_EDGE ( 'NONE', *, *, #240, .T. ) ;
#68 = EDGE_CURVE ( 'NONE', #852, #360, #65, .T. ) ;
#69 = AXIS2_PLACEMENT_3D ( 'NONE', #557, #956, #879 ) ;
#70 = CARTESIAN_POINT ( 'NONE',  ( -14.00000000000000000, 33.00000000000000000, 16.00000000000000000 ) ) ;
#71 = CARTESIAN_POINT ( 'NONE',  ( -9.000000000000000000, 26.00000000000000000, 1.300000000000000044 ) ) ;
#72 = ORIENTED_EDGE ( 'NONE', *, *, #321, .F. ) ;
#73 = SECURITY_CLASSIFICATION_LEVEL ( 'unclassified' ) ;
#74 = VECTOR ( 'NONE', #2, 1000.000000000000000 ) ;
#75 = CARTESIAN_POINT ( 'NONE',  ( 17.39999999999999858, 33.00000000000000000, -6.500000000000000000 ) ) ;
#76 = ADVANCED_FACE ( 'NONE', ( #541 ), #610, .T. ) ;
#77 = LINE ( 'NONE', #317, #573 ) ;
#78 = ORIENTED_EDGE ( 'NONE', *, *, #222, .F. ) ;
#79 = AXIS2_PLACEMENT_3D ( 'NONE', #751, #28, #767 ) ;
#80 = PERSON_AND_ORGANIZATION ( #807, #945 ) ;
#81 = DIRECTION ( 'NONE',  ( -0.000000000000000000, 1.000000000000000000, -0.000000000000000000 ) ) ;
#82 = LINE ( 'NONE', #66, #18 ) ;
#83 = ORIENTED_EDGE ( 'NONE', *, *, #834, .T. ) ;
#84 = COORDINATED_UNIVERSAL_TIME_OFFSET ( 6, 0, .BEHIND. ) ;
#85 = CIRCLE ( 'NONE', #992, 1.300000000000000044 ) ;
#86 = DIRECTION ( 'NONE',  ( 0.000000000000000000, -1.000000000000000000, 0.000000000000000000 ) ) ;
#87 = CARTESIAN_POINT ( 'NONE',  ( -6.400000000000000355, 30.00000000000000000, -6.500000000000000000 ) ) ;
#88 = ORIENTED_EDGE ( 'NONE', *, *, #132, .T. ) ;
#89 = LOCAL_TIME ( 22, 40, 1.000000000000000000, #711 ) ;
#90 = EDGE_CURVE ( 'NONE', #14, #798, #148, .T. ) ;
#91 = EDGE_CURVE ( 'NONE', #145, #651, #210, .T. ) ;
#92 = CARTESIAN_POINT ( 'NONE',  ( -14.00000000000000178, 28.00000000000000000, -13.60000000000000142 ) ) ;
#93 = DIRECTION ( 'NONE',  ( -0.000000000000000000, 0.000000000000000000, 1.000000000000000000 ) ) ;
#94 = VERTEX_POINT ( 'NONE', #867 ) ;
#95 = VECTOR ( 'NONE', #865, 1000.000000000000000 ) ;
#96 = LINE ( 'NONE', #981, #349 ) ;
#97 = DIRECTION ( 'NONE',  ( 1.000000000000000000, 0.000000000000000000, 0.000000000000000000 ) ) ;
#98 = ORIENTED_EDGE ( 'NONE', *, *, #508, .F. ) ;
#99 = PRODUCT ( 'ARM-004_Removable_yaw_servo_mount', 'ARM-004_Removable_yaw_servo_mount', '', ( #312 ) ) ;
#100 = EDGE_CURVE ( 'NONE', #94, #973, #696, .T. ) ;
#101 = CARTESIAN_POINT ( 'NONE',  ( -9.000000000000000000, 33.00000000000000000, 0.000000000000000000 ) ) ;
#102 = VERTEX_POINT ( 'NONE', #386 ) ;
#103 = LINE ( 'NONE', #338, #708 ) ;
#104 = EDGE_LOOP ( 'NONE', ( #612, #1041, #318, #530, #698, #346, #750, #401, #249, #584, #581, #183 ) ) ;
#105 = PRODUCT_DEFINITION ( 'UNKNOWN', '', #492, #963 ) ;
#106 = VERTEX_POINT ( 'NONE', #786 ) ;
#107 = CIRCLE ( 'NONE', #261, 1.300000000000000044 ) ;
#108 = LINE ( 'NONE', #429, #428 ) ;
#109 = LINE ( 'NONE', #464, #496 ) ;
#110 = EDGE_LOOP ( 'NONE', ( #83, #948, #1018, #968 ) ) ;
#111 = EDGE_CURVE ( 'NONE', #213, #423, #529, .T. ) ;
#112 = APPLICATION_CONTEXT ( 'configuration controlled 3d designs of mechanical parts and assemblies' ) ;
#113 = ORIENTED_EDGE ( 'NONE', *, *, #979, .T. ) ;
#114 = CARTESIAN_POINT ( 'NONE',  ( 17.39999999999999858, 33.00000000000000000, 6.500000000000000000 ) ) ;
#115 = AXIS2_PLACEMENT_3D ( 'NONE', #144, #465, #387 ) ;
#116 = PLANE ( 'NONE',  #463 ) ;
#117 = EDGE_CURVE ( 'NONE', #385, #940, #534, .T. ) ;
#118 = CARTESIAN_POINT ( 'NONE',  ( -9.000000000000000000, 33.00000000000000000, 0.000000000000000000 ) ) ;
#119 = ORIENTED_EDGE ( 'NONE', *, *, #461, .F. ) ;
#120 = DIRECTION ( 'NONE',  ( -1.000000000000000000, 0.000000000000000000, 0.000000000000000000 ) ) ;
#121 = VECTOR ( 'NONE', #1029, 1000.000000000000000 ) ;
#122 = PLANE ( 'NONE',  #818 ) ;
#123 = ORIENTED_EDGE ( 'NONE', *, *, #230, .T. ) ;
#124 = FACE_OUTER_BOUND ( 'NONE', #489, .T. ) ;
#125 = DIRECTION ( 'NONE',  ( 0.000000000000000000, 0.000000000000000000, -1.000000000000000000 ) ) ;
#126 = CARTESIAN_POINT ( 'NONE',  ( -21.00000000000000000, 33.00000000000000000, -18.00000000000000000 ) ) ;
#127 = ORIENTED_EDGE ( 'NONE', *, *, #560, .F. ) ;
#128 = PLANE ( 'NONE',  #499 ) ;
#129 = EDGE_CURVE ( 'NONE', #478, #726, #173, .T. ) ;
#130 = ORIENTED_EDGE ( 'NONE', *, *, #988, .T. ) ;
#131 = CARTESIAN_POINT ( 'NONE',  ( 0.000000000000000000, 26.00000000000000000, -16.00000000000000000 ) ) ;
#132 = EDGE_CURVE ( 'NONE', #821, #651, #454, .T. ) ;
#133 = ORIENTED_EDGE ( 'NONE', *, *, #111, .F. ) ;
#134 = DIRECTION ( 'NONE',  ( 0.000000000000000000, 0.000000000000000000, -1.000000000000000000 ) ) ;
#135 = LOCAL_TIME ( 22, 40, 1.000000000000000000, #574 ) ;
#136 = ORIENTED_EDGE ( 'NONE', *, *, #296, .T. ) ;
#137 = DIRECTION ( 'NONE',  ( -1.000000000000000000, 0.000000000000000000, 0.000000000000000000 ) ) ;
#138 = CARTESIAN_POINT ( 'NONE',  ( 17.39999999999999858, 26.00000000000000000, 0.000000000000000000 ) ) ;
#139 = ORIENTED_EDGE ( 'NONE', *, *, #392, .T. ) ;
#140 = ADVANCED_BREP_SHAPE_REPRESENTATION ( 'ARM-004_Removable_yaw_servo_mount', ( #919, #270 ), #1030 ) ;
#141 = VECTOR ( 'NONE', #769, 1000.000000000000000 ) ;
#142 = ORIENTED_EDGE ( 'NONE', *, *, #517, .T. ) ;
#143 = CARTESIAN_POINT ( 'NONE',  ( -14.00000000000000178, 28.00000000000000000, 12.00000000000000000 ) ) ;
#144 = CARTESIAN_POINT ( 'NONE',  ( 0.000000000000000000, 26.00000000000000000, 0.000000000000000000 ) ) ;
#145 = VERTEX_POINT ( 'NONE', #447 ) ;
#146 = EDGE_CURVE ( 'NONE', #773, #217, #899, .T. ) ;
#147 = LINE ( 'NONE', #747, #19 ) ;
#148 = LINE ( 'NONE', #61, #121 ) ;
#149 = DIRECTION ( 'NONE',  ( -0.000000000000000000, 1.000000000000000000, -0.000000000000000000 ) ) ;
#150 = ORIENTED_EDGE ( 'NONE', *, *, #1042, .T. ) ;
#151 = AXIS2_PLACEMENT_3D ( 'NONE', #633, #884, #158 ) ;
#152 = EDGE_CURVE ( 'NONE', #973, #669, #292, .T. ) ;
#153 = DIRECTION ( 'NONE',  ( 0.000000000000000000, 0.000000000000000000, -1.000000000000000000 ) ) ;
#154 = CC_DESIGN_SECURITY_CLASSIFICATION ( #980, ( #492 ) ) ;
#155 = LINE ( 'NONE', #552, #923 ) ;
#156 = ORIENTED_EDGE ( 'NONE', *, *, #262, .F. ) ;
#157 = DIRECTION ( 'NONE',  ( -1.000000000000000000, 0.000000000000000000, 0.000000000000000000 ) ) ;
#158 = DIRECTION ( 'NONE',  ( 1.000000000000000000, 0.000000000000000000, 0.000000000000000000 ) ) ;
#159 = ORIENTED_EDGE ( 'NONE', *, *, #91, .T. ) ;
#160 = VECTOR ( 'NONE', #814, 1000.000000000000000 ) ;
#161 = COORDINATED_UNIVERSAL_TIME_OFFSET ( 6, 0, .BEHIND. ) ;
#162 = LINE ( 'NONE', #975, #452 ) ;
#163 = LINE ( 'NONE', #891, #978 ) ;
#164 = ORIENTED_EDGE ( 'NONE', *, *, #831, .F. ) ;
#165 = ADVANCED_FACE ( 'NONE', ( #227 ), #604, .T. ) ;
#166 = PERSON_AND_ORGANIZATION ( #807, #945 ) ;
#167 = APPLICATION_CONTEXT ( 'configuration controlled 3d designs of mechanical parts and assemblies' ) ;
#168 = CARTESIAN_POINT ( 'NONE',  ( -21.00000000000000000, 28.00000000000000000, -10.40000000000000036 ) ) ;
#169 = VECTOR ( 'NONE', #393, 1000.000000000000000 ) ;
#170 = DIRECTION ( 'NONE',  ( 0.000000000000000000, -1.000000000000000000, 0.000000000000000000 ) ) ;
#171 = EDGE_LOOP ( 'NONE', ( #298, #854, #731, #640, #220, #917, #682, #655 ) ) ;
#172 = DIRECTION ( 'NONE',  ( 1.000000000000000000, 0.000000000000000000, 0.000000000000000000 ) ) ;
#173 = CIRCLE ( 'NONE', #311, 1.600000000000000755 ) ;
#174 = DIRECTION ( 'NONE',  ( 0.000000000000000000, 0.000000000000000000, -1.000000000000000000 ) ) ;
#175 = ORIENTED_EDGE ( 'NONE', *, *, #132, .F. ) ;
#176 = EDGE_CURVE ( 'NONE', #504, #758, #762, .T. ) ;
#177 = DIRECTION ( 'NONE',  ( -1.000000000000000000, -0.000000000000000000, -0.000000000000000000 ) ) ;
#178 = FACE_OUTER_BOUND ( 'NONE', #588, .T. ) ;
#179 = VECTOR ( 'NONE', #835, 1000.000000000000000 ) ;
#180 = VECTOR ( 'NONE', #723, 1000.000000000000000 ) ;
#181 = CC_DESIGN_PERSON_AND_ORGANIZATION_ASSIGNMENT ( #732, #652, ( #99 ) ) ;
#182 = CYLINDRICAL_SURFACE ( 'NONE', #934, 1.300000000000000044 ) ;
#183 = ORIENTED_EDGE ( 'NONE', *, *, #539, .F. ) ;
#184 = CARTESIAN_POINT ( 'NONE',  ( -14.00000000000000000, 33.00000000000000000, -18.00000000000000000 ) ) ;
#185 = VERTEX_POINT ( 'NONE', #201 ) ;
#186 = PLANE ( 'NONE',  #783 ) ;
#187 = VECTOR ( 'NONE', #922, 1000.000000000000000 ) ;
#188 =( LENGTH_UNIT ( ) NAMED_UNIT ( * ) SI_UNIT ( .MILLI., .METRE. ) );
#189 = EDGE_LOOP ( 'NONE', ( #736, #617 ) ) ;
#190 = FACE_BOUND ( 'NONE', #495, .T. ) ;
#191 = EDGE_CURVE ( 'NONE', #726, #478, #816, .T. ) ;
#192 = DIRECTION ( 'NONE',  ( -1.000000000000000000, -0.000000000000000000, -0.000000000000000000 ) ) ;
#193 = CARTESIAN_POINT ( 'NONE',  ( -14.00000000000000000, 26.00000000000000000, 18.00000000000000000 ) ) ;
#194 = EDGE_LOOP ( 'NONE', ( #544, #150, #756, #546 ) ) ;
#195 = FACE_OUTER_BOUND ( 'NONE', #445, .T. ) ;
#196 = CIRCLE ( 'NONE', #839, 1.299999999999999156 ) ;
#197 = CARTESIAN_POINT ( 'NONE',  ( -9.000000000000000000, 26.00000000000000000, -1.300000000000000044 ) ) ;
#198 = EDGE_CURVE ( 'NONE', #185, #335, #702, .T. ) ;
#199 = ORIENTED_EDGE ( 'NONE', *, *, #1024, .F. ) ;
#200 = CARTESIAN_POINT ( 'NONE',  ( -14.00000000000000178, 28.00000000000000000, -12.00000000000000000 ) ) ;
#201 = CARTESIAN_POINT ( 'NONE',  ( -14.00000000000000000, 26.00000000000000000, 8.000000000000000000 ) ) ;
#202 = LINE ( 'NONE', #138, #754 ) ;
#203 = EDGE_LOOP ( 'NONE', ( #782, #509, #351, #606 ) ) ;
#204 = AXIS2_PLACEMENT_3D ( 'NONE', #378, #780, #689 ) ;
#205 = CARTESIAN_POINT ( 'NONE',  ( -4.000000000000000000, 33.00000000000000000, 16.00000000000000000 ) ) ;
#206 = ADVANCED_FACE ( 'NONE', ( #624 ), #944, .F. ) ;
#207 = VECTOR ( 'NONE', #16, 1000.000000000000000 ) ;
#208 = EDGE_LOOP ( 'NONE', ( #746, #88, #847, #78 ) ) ;
#209 = DIRECTION ( 'NONE',  ( 0.000000000000000000, 0.000000000000000000, 1.000000000000000000 ) ) ;
#210 = LINE ( 'NONE', #627, #38 ) ;
#211 = PLANE ( 'NONE',  #870 ) ;
#212 = ORIENTED_EDGE ( 'NONE', *, *, #146, .T. ) ;
#213 = VERTEX_POINT ( 'NONE', #564 ) ;
#214 = DIRECTION ( 'NONE',  ( 0.000000000000000000, 1.000000000000000000, 0.000000000000000000 ) ) ;
#215 = EDGE_CURVE ( 'NONE', #456, #213, #391, .T. ) ;
#216 = DIRECTION ( 'NONE',  ( 0.000000000000000000, 0.000000000000000000, -1.000000000000000000 ) ) ;
#217 = VERTEX_POINT ( 'NONE', #970 ) ;
#218 = AXIS2_PLACEMENT_3D ( 'NONE', #313, #81, #153 ) ;
#219 = DIRECTION ( 'NONE',  ( 0.000000000000000000, -0.000000000000000000, -1.000000000000000000 ) ) ;
#220 = ORIENTED_EDGE ( 'NONE', *, *, #636, .F. ) ;
#221 = DIRECTION ( 'NONE',  ( 0.000000000000000000, 1.000000000000000000, 0.000000000000000000 ) ) ;
#222 = EDGE_CURVE ( 'NONE', #441, #145, #966, .T. ) ;
#223 = CARTESIAN_POINT ( 'NONE',  ( 17.39999999999999858, 30.00000000000000000, 6.500000000000000000 ) ) ;
#224 = ORIENTED_EDGE ( 'NONE', *, *, #191, .F. ) ;
#225 = VECTOR ( 'NONE', #43, 1000.000000000000000 ) ;
#226 = VECTOR ( 'NONE', #278, 1000.000000000000000 ) ;
#227 = FACE_OUTER_BOUND ( 'NONE', #721, .T. ) ;
#228 = CYLINDRICAL_SURFACE ( 'NONE', #792, 1.299999999999999156 ) ;
#229 = ORIENTED_EDGE ( 'NONE', *, *, #989, .T. ) ;
#230 = EDGE_CURVE ( 'NONE', #634, #957, #332, .T. ) ;
#231 = APPROVAL_STATUS ( 'not_yet_approved' ) ;
#232 = PLANE ( 'NONE',  #538 ) ;
#233 = CARTESIAN_POINT ( 'NONE',  ( 20.00000000000000000, 26.00000000000000000, 0.000000000000000000 ) ) ;
#234 = ORIENTED_EDGE ( 'NONE', *, *, #1001, .F. ) ;
#235 = LINE ( 'NONE', #734, #638 ) ;
#236 = CC_DESIGN_APPROVAL ( #777, ( #492 ) ) ;
#237 = CARTESIAN_POINT ( 'NONE',  ( -14.00000000000000000, 23.00000000000000000, -18.00000000000000000 ) ) ;
#238 = EDGE_LOOP ( 'NONE', ( #301, #405, #858, #815 ) ) ;
#239 = DIRECTION ( 'NONE',  ( 1.000000000000000000, 0.000000000000000000, 0.000000000000000000 ) ) ;
#240 = EDGE_CURVE ( 'NONE', #94, #102, #887, .T. ) ;
#241 = CARTESIAN_POINT ( 'NONE',  ( -14.00000000000000000, 23.00000000000000000, 18.00000000000000000 ) ) ;
#242 = EDGE_CURVE ( 'NONE', #106, #630, #670, .T. ) ;
#243 = LINE ( 'NONE', #488, #519 ) ;
#244 = EDGE_LOOP ( 'NONE', ( #659, #32, #626, #532 ) ) ;
#245 = AXIS2_PLACEMENT_3D ( 'NONE', #985, #93, #414 ) ;
#246 = APPLICATION_PROTOCOL_DEFINITION ( 'international standard', 'config_control_design', 1994, #167 ) ;
#247 = DIRECTION ( 'NONE',  ( 0.000000000000000000, -1.000000000000000000, 0.000000000000000000 ) ) ;
#248 = CARTESIAN_POINT ( 'NONE',  ( -6.400000000000000355, 33.00000000000000000, 6.500000000000000000 ) ) ;
#249 = ORIENTED_EDGE ( 'NONE', *, *, #448, .T. ) ;
#250 = SHAPE_DEFINITION_REPRESENTATION ( #336, #140 ) ;
#251 = DIRECTION ( 'NONE',  ( 0.000000000000000000, 0.000000000000000000, 1.000000000000000000 ) ) ;
#252 = VECTOR ( 'NONE', #863, 1000.000000000000000 ) ;
#253 = CARTESIAN_POINT ( 'NONE',  ( -14.00000000000000000, 26.00000000000000000, -18.00000000000000000 ) ) ;
#254 = ORIENTED_EDGE ( 'NONE', *, *, #714, .T. ) ;
#255 = AXIS2_PLACEMENT_3D ( 'NONE', #118, #280, #590 ) ;
#256 = EDGE_CURVE ( 'NONE', #456, #996, #468, .T. ) ;
#257 = LINE ( 'NONE', #579, #942 ) ;
#258 = VECTOR ( 'NONE', #304, 1000.000000000000000 ) ;
#259 = CARTESIAN_POINT ( 'NONE',  ( -14.00000000000000000, 30.00000000000000000, -18.00000000000000000 ) ) ;
#260 = ORIENTED_EDGE ( 'NONE', *, *, #363, .F. ) ;
#261 = AXIS2_PLACEMENT_3D ( 'NONE', #576, #897, #990 ) ;
#262 = EDGE_CURVE ( 'NONE', #553, #540, #30, .T. ) ;
#263 = CARTESIAN_POINT ( 'NONE',  ( -6.400000000000000355, 30.00000000000000000, 0.000000000000000000 ) ) ;
#264 = EDGE_LOOP ( 'NONE', ( #591, #811, #840, #577 ) ) ;
#265 = ORIENTED_EDGE ( 'NONE', *, *, #176, .T. ) ;
#266 = VECTOR ( 'NONE', #487, 1000.000000000000000 ) ;
#267 = DIRECTION ( 'NONE',  ( -1.000000000000000000, 0.000000000000000000, 0.000000000000000000 ) ) ;
#268 = DIRECTION ( 'NONE',  ( 1.000000000000000000, 0.000000000000000000, 0.000000000000000000 ) ) ;
#269 = ORIENTED_EDGE ( 'NONE', *, *, #727, .T. ) ;
#270 = AXIS2_PLACEMENT_3D ( 'NONE', #322, #5, #239 ) ;
#271 = ADVANCED_FACE ( 'NONE', ( #955 ), #232, .T. ) ;
#272 = DIRECTION ( 'NONE',  ( -0.000000000000000000, 1.000000000000000000, -0.000000000000000000 ) ) ;
#273 = ORIENTED_EDGE ( 'NONE', *, *, #152, .F. ) ;
#274 = EDGE_CURVE ( 'NONE', #726, #773, #162, .T. ) ;
#275 = DIRECTION ( 'NONE',  ( -0.000000000000000000, -1.000000000000000000, -0.000000000000000000 ) ) ;
#276 = VERTEX_POINT ( 'NONE', #556 ) ;
#277 = VECTOR ( 'NONE', #359, 1000.000000000000000 ) ;
#278 = DIRECTION ( 'NONE',  ( 0.000000000000000000, 0.000000000000000000, -1.000000000000000000 ) ) ;
#279 = ORIENTED_EDGE ( 'NONE', *, *, #230, .F. ) ;
#280 = DIRECTION ( 'NONE',  ( 0.000000000000000000, -1.000000000000000000, 0.000000000000000000 ) ) ;
#281 = EDGE_LOOP ( 'NONE', ( #563, #804, #123, #1037, #23, #310, #265, #285 ) ) ;
#282 = DIRECTION ( 'NONE',  ( 0.000000000000000000, -1.000000000000000000, 0.000000000000000000 ) ) ;
#283 = DIRECTION ( 'NONE',  ( -1.000000000000000000, 0.000000000000000000, -0.000000000000000000 ) ) ;
#284 = CLOSED_SHELL ( 'NONE', ( #692, #320, #883, #647, #582, #790, #971, #462, #475, #1011, #206, #649, #525, #893, #271, #616, #755, #705, #1035, #437, #76, #505, #497, #165, #921, #34, #958 ) ) ;
#285 = ORIENTED_EDGE ( 'NONE', *, *, #599, .T. ) ;
#286 = CARTESIAN_POINT ( 'NONE',  ( 0.000000000000000000, 26.00000000000000000, 6.500000000000000000 ) ) ;
#287 = DIRECTION ( 'NONE',  ( 0.000000000000000000, 0.000000000000000000, -1.000000000000000000 ) ) ;
#288 = DIRECTION ( 'NONE',  ( 0.000000000000000000, 0.000000000000000000, 1.000000000000000000 ) ) ;
#289 = ORIENTED_EDGE ( 'NONE', *, *, #554, .F. ) ;
#290 = CARTESIAN_POINT ( 'NONE',  ( -14.00000000000000000, 33.00000000000000000, -16.00000000000000000 ) ) ;
#291 = DIRECTION ( 'NONE',  ( 1.000000000000000000, -0.000000000000000000, 0.000000000000000000 ) ) ;
#292 = LINE ( 'NONE', #774, #225 ) ;
#293 = FACE_OUTER_BOUND ( 'NONE', #993, .T. ) ;
#294 = VERTEX_POINT ( 'NONE', #168 ) ;
#295 = DIRECTION ( 'NONE',  ( -1.000000000000000000, 0.000000000000000000, -0.000000000000000000 ) ) ;
#296 = EDGE_CURVE ( 'NONE', #996, #423, #561, .T. ) ;
#297 = CIRCLE ( 'NONE', #79, 1.600000000000000755 ) ;
#298 = ORIENTED_EDGE ( 'NONE', *, *, #845, .T. ) ;
#299 = DIRECTION ( 'NONE',  ( 1.000000000000000000, 0.000000000000000000, 0.000000000000000000 ) ) ;
#300 = CARTESIAN_POINT ( 'NONE',  ( -21.00000000000000000, 28.00000000000000000, 10.40000000000000036 ) ) ;
#301 = ORIENTED_EDGE ( 'NONE', *, *, #822, .F. ) ;
#302 = DIRECTION ( 'NONE',  ( -1.000000000000000000, 0.000000000000000000, 0.000000000000000000 ) ) ;
#303 = ORIENTED_EDGE ( 'NONE', *, *, #341, .T. ) ;
#304 = DIRECTION ( 'NONE',  ( 0.000000000000000000, 0.000000000000000000, -1.000000000000000000 ) ) ;
#305 = LINE ( 'NONE', #237, #169 ) ;
#306 = ORIENTED_EDGE ( 'NONE', *, *, #321, .T. ) ;
#307 = CARTESIAN_POINT ( 'NONE',  ( -6.400000000000000355, 33.00000000000000000, -6.500000000000000000 ) ) ;
#308 = EDGE_CURVE ( 'NONE', #276, #185, #481, .T. ) ;
#309 = CARTESIAN_POINT ( 'NONE',  ( -21.00000000000000000, 33.00000000000000000, -18.00000000000000000 ) ) ;
#310 = ORIENTED_EDGE ( 'NONE', *, *, #24, .F. ) ;
#311 = AXIS2_PLACEMENT_3D ( 'NONE', #143, #1008, #1014 ) ;
#312 = MECHANICAL_CONTEXT ( 'NONE', #112, 'mechanical' ) ;
#313 = CARTESIAN_POINT ( 'NONE',  ( -9.000000000000000000, 30.00000000000000000, 0.000000000000000000 ) ) ;
#314 = FACE_OUTER_BOUND ( 'NONE', #208, .T. ) ;
#315 = ORIENTED_EDGE ( 'NONE', *, *, #1001, .T. ) ;
#316 = LINE ( 'NONE', #959, #266 ) ;
#317 = CARTESIAN_POINT ( 'NONE',  ( -14.00000000000000000, 30.00000000000000000, 0.000000000000000000 ) ) ;
#318 = ORIENTED_EDGE ( 'NONE', *, *, #589, .T. ) ;
#319 = CIRCLE ( 'NONE', #406, 1.600000000000000755 ) ;
#320 = ADVANCED_FACE ( 'NONE', ( #1034 ), #11, .F. ) ;
#321 = EDGE_CURVE ( 'NONE', #706, #930, #585, .T. ) ;
#322 = CARTESIAN_POINT ( 'NONE',  ( 0.000000000000000000, 0.000000000000000000, 0.000000000000000000 ) ) ;
#323 = CARTESIAN_POINT ( 'NONE',  ( -4.000000000000000000, 33.00000000000000000, -16.00000000000000000 ) ) ;
#324 = DIRECTION ( 'NONE',  ( 0.000000000000000000, 0.000000000000000000, -1.000000000000000000 ) ) ;
#325 = ORIENTED_EDGE ( 'NONE', *, *, #636, .T. ) ;
#326 = PERSON_AND_ORGANIZATION ( #807, #945 ) ;
#327 = DIRECTION ( 'NONE',  ( 0.000000000000000000, 0.000000000000000000, -1.000000000000000000 ) ) ;
#328 = VECTOR ( 'NONE', #45, 1000.000000000000000 ) ;
#329 = DIRECTION ( 'NONE',  ( -1.000000000000000000, 0.000000000000000000, -0.000000000000000000 ) ) ;
#330 = EDGE_LOOP ( 'NONE', ( #595, #770, #156, #431 ) ) ;
#331 = CALENDAR_DATE ( 2026, 7, 9 ) ;
#332 = LINE ( 'NONE', #241, #74 ) ;
#333 = EDGE_CURVE ( 'NONE', #360, #422, #719, .T. ) ;
#334 = DIRECTION ( 'NONE',  ( 1.000000000000000000, 0.000000000000000000, 0.000000000000000000 ) ) ;
#335 = VERTEX_POINT ( 'NONE', #729 ) ;
#336 = PRODUCT_DEFINITION_SHAPE ( 'NONE', 'NONE',  #105 ) ;
#337 = DIRECTION ( 'NONE',  ( -0.000000000000000000, 1.000000000000000000, -0.000000000000000000 ) ) ;
#338 = CARTESIAN_POINT ( 'NONE',  ( 20.00000000000000000, 33.00000000000000000, -1.299999999999999156 ) ) ;
#339 = ORIENTED_EDGE ( 'NONE', *, *, #100, .T. ) ;
#340 = AXIS2_PLACEMENT_3D ( 'NONE', #356, #272, #370 ) ;
#341 = EDGE_CURVE ( 'NONE', #930, #716, #316, .T. ) ;
#342 = LINE ( 'NONE', #410, #160 ) ;
#343 = LINE ( 'NONE', #841, #376 ) ;
#344 = AXIS2_PLACEMENT_3D ( 'NONE', #248, #97, #324 ) ;
#345 = ORIENTED_EDGE ( 'NONE', *, *, #483, .T. ) ;
#346 = ORIENTED_EDGE ( 'NONE', *, *, #508, .T. ) ;
#347 = EDGE_CURVE ( 'NONE', #669, #761, #235, .T. ) ;
#348 = CC_DESIGN_PERSON_AND_ORGANIZATION_ASSIGNMENT ( #326, #396, ( #980 ) ) ;
#349 = VECTOR ( 'NONE', #498, 1000.000000000000000 ) ;
#350 = CARTESIAN_POINT ( 'NONE',  ( 25.00000000000000000, 30.00000000000000000, -18.00000000000000000 ) ) ;
#351 = ORIENTED_EDGE ( 'NONE', *, *, #589, .F. ) ;
#352 = LINE ( 'NONE', #673, #277 ) ;
#353 = ORIENTED_EDGE ( 'NONE', *, *, #274, .F. ) ;
#354 = CC_DESIGN_APPROVAL ( #856, ( #105 ) ) ;
#355 = CARTESIAN_POINT ( 'NONE',  ( -4.000000000000000000, 33.00000000000000000, 8.000000000000000000 ) ) ;
#356 = CARTESIAN_POINT ( 'NONE',  ( -9.000000000000000000, 30.00000000000000000, 0.000000000000000000 ) ) ;
#357 = VECTOR ( 'NONE', #247, 1000.000000000000000 ) ;
#358 = ORIENTED_EDGE ( 'NONE', *, *, #347, .F. ) ;
#359 = DIRECTION ( 'NONE',  ( 0.000000000000000000, 0.000000000000000000, -1.000000000000000000 ) ) ;
#360 = VERTEX_POINT ( 'NONE', #801 ) ;
#361 = VECTOR ( 'NONE', #39, 1000.000000000000000 ) ;
#362 = FACE_OUTER_BOUND ( 'NONE', #57, .T. ) ;
#363 = EDGE_CURVE ( 'NONE', #106, #764, #403, .T. ) ;
#364 = VERTEX_POINT ( 'NONE', #642 ) ;
#365 = APPLICATION_PROTOCOL_DEFINITION ( 'international standard', 'config_control_design', 1994, #112 ) ;
#366 = DIRECTION ( 'NONE',  ( 0.000000000000000000, -1.000000000000000000, 0.000000000000000000 ) ) ;
#367 = LINE ( 'NONE', #512, #733 ) ;
#368 = LINE ( 'NONE', #46, #187 ) ;
#369 = EDGE_LOOP ( 'NONE', ( #567, #1010 ) ) ;
#370 = DIRECTION ( 'NONE',  ( 0.000000000000000000, 0.000000000000000000, -1.000000000000000000 ) ) ;
#371 = CARTESIAN_POINT ( 'NONE',  ( -6.400000000000000355, 33.00000000000000000, 6.500000000000000000 ) ) ;
#372 = CARTESIAN_POINT ( 'NONE',  ( 20.00000000000000000, 26.00000000000000000, 1.299999999999999156 ) ) ;
#373 = ORIENTED_EDGE ( 'NONE', *, *, #22, .F. ) ;
#374 = EDGE_CURVE ( 'NONE', #294, #764, #319, .T. ) ;
#375 = PLANE ( 'NONE',  #678 ) ;
#376 = VECTOR ( 'NONE', #503, 1000.000000000000000 ) ;
#377 = VERTEX_POINT ( 'NONE', #15 ) ;
#378 = CARTESIAN_POINT ( 'NONE',  ( -4.000000000000000000, 33.00000000000000000, -8.000000000000000000 ) ) ;
#379 = EDGE_LOOP ( 'NONE', ( #748, #513 ) ) ;
#380 = LINE ( 'NONE', #355, #95 ) ;
#381 = DIRECTION ( 'NONE',  ( 0.000000000000000000, 0.000000000000000000, -1.000000000000000000 ) ) ;
#382 = DIRECTION ( 'NONE',  ( -0.000000000000000000, 1.000000000000000000, -0.000000000000000000 ) ) ;
#383 = ORIENTED_EDGE ( 'NONE', *, *, #176, .F. ) ;
#384 = EDGE_CURVE ( 'NONE', #957, #102, #96, .T. ) ;
#385 = VERTEX_POINT ( 'NONE', #417 ) ;
#386 = CARTESIAN_POINT ( 'NONE',  ( -14.00000000000000000, 26.00000000000000000, 16.00000000000000000 ) ) ;
#387 = DIRECTION ( 'NONE',  ( 0.000000000000000000, -0.000000000000000000, -1.000000000000000000 ) ) ;
#388 = ORIENTED_EDGE ( 'NONE', *, *, #817, .F. ) ;
#389 = VECTOR ( 'NONE', #502, 1000.000000000000000 ) ;
#390 = LOCAL_TIME ( 22, 40, 1.000000000000000000, #84 ) ;
#391 = LINE ( 'NONE', #323, #357 ) ;
#392 = EDGE_CURVE ( 'NONE', #716, #507, #85, .T. ) ;
#393 = DIRECTION ( 'NONE',  ( 0.000000000000000000, 1.000000000000000000, 0.000000000000000000 ) ) ;
#394 = ORIENTED_EDGE ( 'NONE', *, *, #24, .T. ) ;
#395 = VECTOR ( 'NONE', #409, 1000.000000000000000 ) ;
#396 = PERSON_AND_ORGANIZATION_ROLE ( 'classification_officer' ) ;
#397 = CARTESIAN_POINT ( 'NONE',  ( 20.00000000000000000, 26.00000000000000000, 0.000000000000000000 ) ) ;
#398 = VECTOR ( 'NONE', #826, 1000.000000000000000 ) ;
#399 = EDGE_CURVE ( 'NONE', #788, #634, #257, .T. ) ;
#400 = CYLINDRICAL_SURFACE ( 'NONE', #1028, 1.600000000000000755 ) ;
#401 = ORIENTED_EDGE ( 'NONE', *, *, #111, .T. ) ;
#402 = PERSON_AND_ORGANIZATION_ROLE ( 'design_supplier' ) ;
#403 = LINE ( 'NONE', #92, #180 ) ;
#404 = DIRECTION ( 'NONE',  ( 0.000000000000000000, 0.000000000000000000, -1.000000000000000000 ) ) ;
#405 = ORIENTED_EDGE ( 'NONE', *, *, #694, .T. ) ;
#406 = AXIS2_PLACEMENT_3D ( 'NONE', #808, #648, #819 ) ;
#407 = PERSON_AND_ORGANIZATION ( #807, #945 ) ;
#408 = APPROVAL_PERSON_ORGANIZATION ( #407, #635, #969 ) ;
#409 = DIRECTION ( 'NONE',  ( 0.000000000000000000, -1.000000000000000000, 0.000000000000000000 ) ) ;
#410 = CARTESIAN_POINT ( 'NONE',  ( -21.00000000000000000, 30.00000000000000000, 18.00000000000000000 ) ) ;
#411 = ORIENTED_EDGE ( 'NONE', *, *, #274, .T. ) ;
#412 = EDGE_CURVE ( 'NONE', #961, #843, #537, .T. ) ;
#413 = CARTESIAN_POINT ( 'NONE',  ( 0.000000000000000000, 30.00000000000000000, -16.00000000000000000 ) ) ;
#414 = DIRECTION ( 'NONE',  ( 1.000000000000000000, 0.000000000000000000, 0.000000000000000000 ) ) ;
#415 = ORIENTED_EDGE ( 'NONE', *, *, #483, .F. ) ;
#416 = UNCERTAINTY_MEASURE_WITH_UNIT (LENGTH_MEASURE( 1.000000000000000082E-05 ), #188, 'distance_accuracy_value', 'NONE');
#417 = CARTESIAN_POINT ( 'NONE',  ( -14.00000000000000000, 23.00000000000000000, -18.00000000000000000 ) ) ;
#418 = EDGE_CURVE ( 'NONE', #441, #821, #608, .T. ) ;
#419 = LINE ( 'NONE', #654, #398 ) ;
#420 = ORIENTED_EDGE ( 'NONE', *, *, #677, .T. ) ;
#421 = CARTESIAN_POINT ( 'NONE',  ( 20.00000000000000000, 30.00000000000000000, -1.299999999999999156 ) ) ;
#422 = VERTEX_POINT ( 'NONE', #524 ) ;
#423 = VERTEX_POINT ( 'NONE', #844 ) ;
#424 = LINE ( 'NONE', #13, #718 ) ;
#425 = ORIENTED_EDGE ( 'NONE', *, *, #727, .F. ) ;
#426 = EDGE_CURVE ( 'NONE', #669, #276, #380, .T. ) ;
#427 = CC_DESIGN_PERSON_AND_ORGANIZATION_ASSIGNMENT ( #717, #722, ( #492 ) ) ;
#428 = VECTOR ( 'NONE', #609, 1000.000000000000000 ) ;
#429 = CARTESIAN_POINT ( 'NONE',  ( -6.400000000000000355, 26.00000000000000000, 0.000000000000000000 ) ) ;
#430 = CARTESIAN_POINT ( 'NONE',  ( -4.000000000000000000, 30.00000000000000000, -8.000000000000000000 ) ) ;
#431 = ORIENTED_EDGE ( 'NONE', *, *, #802, .F. ) ;
#432 = CARTESIAN_POINT ( 'NONE',  ( 17.39999999999999858, 30.00000000000000000, -6.500000000000000000 ) ) ;
#433 = AXIS2_PLACEMENT_3D ( 'NONE', #787, #149, #793 ) ;
#434 = CYLINDRICAL_SURFACE ( 'NONE', #744, 1.600000000000000755 ) ;
#435 = DIRECTION ( 'NONE',  ( -1.000000000000000000, 0.000000000000000000, -0.000000000000000000 ) ) ;
#436 = LINE ( 'NONE', #759, #361 ) ;
#437 = ADVANCED_FACE ( 'NONE', ( #765 ), #753, .T. ) ;
#438 = ORIENTED_EDGE ( 'NONE', *, *, #660, .T. ) ;
#439 =( NAMED_UNIT ( * ) SI_UNIT ( $, .STERADIAN. ) SOLID_ANGLE_UNIT ( ) );
#440 = AXIS2_PLACEMENT_3D ( 'NONE', #932, #950, #551 ) ;
#441 = VERTEX_POINT ( 'NONE', #432 ) ;
#442 = DIRECTION ( 'NONE',  ( 1.000000000000000000, 0.000000000000000000, 0.000000000000000000 ) ) ;
#443 = EDGE_LOOP ( 'NONE', ( #597, #695, #98, #623 ) ) ;
#444 = DIRECTION ( 'NONE',  ( -0.000000000000000000, 0.000000000000000000, 1.000000000000000000 ) ) ;
#445 = EDGE_LOOP ( 'NONE', ( #885, #164, #383, #269, #67, #450, #279, #827, #837, #460, #704, #345 ) ) ;
#446 = LINE ( 'NONE', #510, #664 ) ;
#447 = CARTESIAN_POINT ( 'NONE',  ( 17.39999999999999858, 26.00000000000000000, -6.500000000000000000 ) ) ;
#448 = EDGE_CURVE ( 'NONE', #423, #940, #33, .T. ) ;
#449 = CARTESIAN_POINT ( 'NONE',  ( 20.00000000000000000, 33.00000000000000000, 0.000000000000000000 ) ) ;
#450 = ORIENTED_EDGE ( 'NONE', *, *, #384, .F. ) ;
#451 = LINE ( 'NONE', #771, #592 ) ;
#452 = VECTOR ( 'NONE', #157, 1000.000000000000000 ) ;
#453 = ORIENTED_EDGE ( 'NONE', *, *, #426, .F. ) ;
#454 = LINE ( 'NONE', #307, #796 ) ;
#455 = CARTESIAN_POINT ( 'NONE',  ( -14.00000000000000000, 23.00000000000000000, 18.00000000000000000 ) ) ;
#456 = VERTEX_POINT ( 'NONE', #936 ) ;
#457 = CARTESIAN_POINT ( 'NONE',  ( -21.00000000000000000, 30.00000000000000000, -18.00000000000000000 ) ) ;
#458 = CARTESIAN_POINT ( 'NONE',  ( -14.00000000000000178, 28.00000000000000000, 12.00000000000000000 ) ) ;
#459 = CARTESIAN_POINT ( 'NONE',  ( -14.00000000000000000, 33.00000000000000000, 18.00000000000000000 ) ) ;
#460 = ORIENTED_EDGE ( 'NONE', *, *, #448, .F. ) ;
#461 = EDGE_CURVE ( 'NONE', #794, #17, #368, .T. ) ;
#462 = ADVANCED_FACE ( 'NONE', ( #778 ), #122, .F. ) ;
#463 = AXIS2_PLACEMENT_3D ( 'NONE', #686, #613, #838 ) ;
#464 = CARTESIAN_POINT ( 'NONE',  ( -4.000000000000000000, 26.00000000000000000, 0.000000000000000000 ) ) ;
#465 = DIRECTION ( 'NONE',  ( 0.000000000000000000, -1.000000000000000000, 0.000000000000000000 ) ) ;
#466 = ORIENTED_EDGE ( 'NONE', *, *, #745, .F. ) ;
#467 = APPROVAL_STATUS ( 'not_yet_approved' ) ;
#468 = LINE ( 'NONE', #413, #860 ) ;
#469 = VECTOR ( 'NONE', #522, 1000.000000000000000 ) ;
#470 = DIRECTION ( 'NONE',  ( 0.000000000000000000, -1.000000000000000000, 0.000000000000000000 ) ) ;
#471 = ORIENTED_EDGE ( 'NONE', *, *, #129, .T. ) ;
#472 = VECTOR ( 'NONE', #216, 1000.000000000000000 ) ;
#473 = APPROVAL_ROLE ( '' ) ;
#474 = CC_DESIGN_APPROVAL ( #635, ( #980 ) ) ;
#475 = ADVANCED_FACE ( 'NONE', ( #518 ), #116, .F. ) ;
#476 = DIRECTION ( 'NONE',  ( 0.000000000000000000, 0.000000000000000000, -1.000000000000000000 ) ) ;
#477 = FACE_OUTER_BOUND ( 'NONE', #244, .T. ) ;
#478 = VERTEX_POINT ( 'NONE', #853 ) ;
#479 = PERSON_AND_ORGANIZATION ( #807, #945 ) ;
#480 = CC_DESIGN_DATE_AND_TIME_ASSIGNMENT ( #895, #645, ( #980 ) ) ;
#481 = LINE ( 'NONE', #813, #1 ) ;
#482 = VECTOR ( 'NONE', #730, 1000.000000000000000 ) ;
#483 = EDGE_CURVE ( 'NONE', #996, #843, #436, .T. ) ;
#484 = CARTESIAN_POINT ( 'NONE',  ( -14.00000000000000000, 30.00000000000000000, 8.000000000000000000 ) ) ;
#485 = ORIENTED_EDGE ( 'NONE', *, *, #256, .F. ) ;
#486 = CALENDAR_DATE ( 2026, 7, 9 ) ;
#487 = DIRECTION ( 'NONE',  ( 0.000000000000000000, -1.000000000000000000, 0.000000000000000000 ) ) ;
#488 = CARTESIAN_POINT ( 'NONE',  ( -14.00000000000000000, 33.00000000000000000, 18.00000000000000000 ) ) ;
#489 = EDGE_LOOP ( 'NONE', ( #260, #869, #142, #1016 ) ) ;
#490 = VECTOR ( 'NONE', #192, 1000.000000000000000 ) ;
#491 = DATE_AND_TIME ( #1043, #89 ) ;
#492 = PRODUCT_DEFINITION_FORMATION_WITH_SPECIFIED_SOURCE ( 'ANY', '', #99, .NOT_KNOWN. ) ;
#493 = DIRECTION ( 'NONE',  ( -1.000000000000000000, 0.000000000000000000, 0.000000000000000000 ) ) ;
#494 = LINE ( 'NONE', #739, #207 ) ;
#495 = EDGE_LOOP ( 'NONE', ( #388, #685, #687, #127 ) ) ;
#496 = VECTOR ( 'NONE', #125, 1000.000000000000000 ) ;
#497 = ADVANCED_FACE ( 'NONE', ( #928 ), #621, .T. ) ;
#498 = DIRECTION ( 'NONE',  ( 0.000000000000000000, 0.000000000000000000, -1.000000000000000000 ) ) ;
#499 = AXIS2_PLACEMENT_3D ( 'NONE', #290, #444, #681 ) ;
#500 = DIRECTION ( 'NONE',  ( 0.000000000000000000, 0.000000000000000000, -1.000000000000000000 ) ) ;
#501 = ORIENTED_EDGE ( 'NONE', *, *, #745, .T. ) ;
#502 = DIRECTION ( 'NONE',  ( -0.000000000000000000, 0.000000000000000000, 1.000000000000000000 ) ) ;
#503 = DIRECTION ( 'NONE',  ( 0.000000000000000000, -1.000000000000000000, 0.000000000000000000 ) ) ;
#504 = VERTEX_POINT ( 'NONE', #859 ) ;
#505 = ADVANCED_FACE ( 'NONE', ( #362 ), #128, .T. ) ;
#506 = DIRECTION ( 'NONE',  ( 0.000000000000000000, -1.000000000000000000, 0.000000000000000000 ) ) ;
#507 = VERTEX_POINT ( 'NONE', #197 ) ;
#508 = EDGE_CURVE ( 'NONE', #335, #880, #699, .T. ) ;
#509 = ORIENTED_EDGE ( 'NONE', *, *, #426, .T. ) ;
#510 = CARTESIAN_POINT ( 'NONE',  ( -14.00000000000000000, 33.00000000000000000, -8.000000000000000000 ) ) ;
#511 = ORIENTED_EDGE ( 'NONE', *, *, #660, .F. ) ;
#512 = CARTESIAN_POINT ( 'NONE',  ( -14.00000000000000000, 33.00000000000000000, 8.000000000000000000 ) ) ;
#513 = ORIENTED_EDGE ( 'NONE', *, *, #242, .F. ) ;
#514 =( NAMED_UNIT ( * ) PLANE_ANGLE_UNIT ( ) SI_UNIT ( $, .RADIAN. ) );
#515 = CARTESIAN_POINT ( 'NONE',  ( -14.00000000000000000, 23.00000000000000000, 18.00000000000000000 ) ) ;
#516 = CARTESIAN_POINT ( 'NONE',  ( -21.00000000000000000, 33.00000000000000000, 18.00000000000000000 ) ) ;
#517 = EDGE_CURVE ( 'NONE', #630, #294, #451, .T. ) ;
#518 = FACE_OUTER_BOUND ( 'NONE', #1021, .T. ) ;
#519 = VECTOR ( 'NONE', #810, 1000.000000000000000 ) ;
#520 = ORIENTED_EDGE ( 'NONE', *, *, #256, .T. ) ;
#521 = FACE_BOUND ( 'NONE', #536, .T. ) ;
#522 = DIRECTION ( 'NONE',  ( 0.000000000000000000, 0.000000000000000000, -1.000000000000000000 ) ) ;
#523 = CARTESIAN_POINT ( 'NONE',  ( -14.00000000000000000, 23.00000000000000000, 18.00000000000000000 ) ) ;
#524 = CARTESIAN_POINT ( 'NONE',  ( 25.00000000000000000, 26.00000000000000000, -18.00000000000000000 ) ) ;
#525 = ADVANCED_FACE ( 'NONE', ( #53 ), #375, .F. ) ;
#526 = ORIENTED_EDGE ( 'NONE', *, *, #784, .T. ) ;
#527 = DIRECTION ( 'NONE',  ( 0.000000000000000000, 0.000000000000000000, -1.000000000000000000 ) ) ;
#528 = AXIS2_PLACEMENT_3D ( 'NONE', #683, #287, #618 ) ;
#529 = LINE ( 'NONE', #131, #628 ) ;
#530 = ORIENTED_EDGE ( 'NONE', *, *, #308, .T. ) ;
#531 = DIRECTION ( 'NONE',  ( -0.000000000000000000, 0.000000000000000000, 1.000000000000000000 ) ) ;
#532 = ORIENTED_EDGE ( 'NONE', *, *, #517, .F. ) ;
#533 = FACE_OUTER_BOUND ( 'NONE', #830, .T. ) ;
#534 = LINE ( 'NONE', #926, #984 ) ;
#535 = DIRECTION ( 'NONE',  ( -0.000000000000000000, 0.000000000000000000, 1.000000000000000000 ) ) ;
#536 = EDGE_LOOP ( 'NONE', ( #234, #41 ) ) ;
#537 = LINE ( 'NONE', #457, #490 ) ;
#538 = AXIS2_PLACEMENT_3D ( 'NONE', #653, #712, #569 ) ;
#539 = EDGE_CURVE ( 'NONE', #957, #360, #545, .T. ) ;
#540 = VERTEX_POINT ( 'NONE', #372 ) ;
#541 = FACE_OUTER_BOUND ( 'NONE', #264, .T. ) ;
#542 = CC_DESIGN_PERSON_AND_ORGANIZATION_ASSIGNMENT ( #479, #402, ( #492 ) ) ;
#543 = DIRECTION ( 'NONE',  ( 0.000000000000000000, 0.000000000000000000, -1.000000000000000000 ) ) ;
#544 = ORIENTED_EDGE ( 'NONE', *, *, #560, .T. ) ;
#545 = LINE ( 'NONE', #962, #40 ) ;
#546 = ORIENTED_EDGE ( 'NONE', *, *, #59, .F. ) ;
#547 = CARTESIAN_POINT ( 'NONE',  ( -21.00000000000000000, 23.00000000000000000, 18.00000000000000000 ) ) ;
#548 = FACE_OUTER_BOUND ( 'NONE', #104, .T. ) ;
#549 = ORIENTED_EDGE ( 'NONE', *, *, #90, .F. ) ;
#550 = AXIS2_PLACEMENT_3D ( 'NONE', #449, #282, #842 ) ;
#551 = DIRECTION ( 'NONE',  ( 0.000000000000000000, 0.000000000000000000, -1.000000000000000000 ) ) ;
#552 = CARTESIAN_POINT ( 'NONE',  ( -4.000000000000000000, 33.00000000000000000, 16.00000000000000000 ) ) ;
#553 = VERTEX_POINT ( 'NONE', #690 ) ;
#554 = EDGE_CURVE ( 'NONE', #17, #456, #1015, .T. ) ;
#555 = DATE_AND_TIME ( #10, #390 ) ;
#556 = CARTESIAN_POINT ( 'NONE',  ( -4.000000000000000000, 26.00000000000000000, 8.000000000000000000 ) ) ;
#557 = CARTESIAN_POINT ( 'NONE',  ( 20.00000000000000000, 30.00000000000000000, 0.000000000000000000 ) ) ;
#558 = ORIENTED_EDGE ( 'NONE', *, *, #308, .F. ) ;
#559 = APPROVAL_PERSON_ORGANIZATION ( #568, #856, #473 ) ;
#560 = EDGE_CURVE ( 'NONE', #47, #779, #37, .T. ) ;
#561 = LINE ( 'NONE', #795, #906 ) ;
#562 = CARTESIAN_POINT ( 'NONE',  ( 25.00000000000000000, 30.00000000000000000, 18.00000000000000000 ) ) ;
#563 = ORIENTED_EDGE ( 'NONE', *, *, #910, .T. ) ;
#564 = CARTESIAN_POINT ( 'NONE',  ( -4.000000000000000000, 26.00000000000000000, -16.00000000000000000 ) ) ;
#565 = AXIS2_PLACEMENT_3D ( 'NONE', #1013, #872, #527 ) ;
#566 = LINE ( 'NONE', #742, #482 ) ;
#567 = ORIENTED_EDGE ( 'NONE', *, *, #374, .F. ) ;
#568 = PERSON_AND_ORGANIZATION ( #807, #945 ) ;
#569 = DIRECTION ( 'NONE',  ( -1.000000000000000000, 0.000000000000000000, -0.000000000000000000 ) ) ;
#570 = CARTESIAN_POINT ( 'NONE',  ( 17.39999999999999858, 26.00000000000000000, 6.500000000000000000 ) ) ;
#571 = EDGE_LOOP ( 'NONE', ( #325, #549, #888, #691 ) ) ;
#572 = EDGE_CURVE ( 'NONE', #761, #185, #367, .T. ) ;
#573 = VECTOR ( 'NONE', #960, 1000.000000000000000 ) ;
#574 = COORDINATED_UNIVERSAL_TIME_OFFSET ( 6, 0, .BEHIND. ) ;
#575 = DIRECTION ( 'NONE',  ( -1.000000000000000000, 0.000000000000000000, 0.000000000000000000 ) ) ;
#576 = CARTESIAN_POINT ( 'NONE',  ( -9.000000000000000000, 26.00000000000000000, 0.000000000000000000 ) ) ;
#577 = ORIENTED_EDGE ( 'NONE', *, *, #44, .F. ) ;
#578 = VECTOR ( 'NONE', #366, 1000.000000000000000 ) ;
#579 = CARTESIAN_POINT ( 'NONE',  ( -21.00000000000000000, 23.00000000000000000, 18.00000000000000000 ) ) ;
#580 = CARTESIAN_POINT ( 'NONE',  ( 17.39999999999999858, 30.00000000000000000, 0.000000000000000000 ) ) ;
#581 = ORIENTED_EDGE ( 'NONE', *, *, #333, .F. ) ;
#582 = ADVANCED_FACE ( 'NONE', ( #933, #56, #190, #293 ), #186, .F. ) ;
#583 = DIRECTION ( 'NONE',  ( 0.000000000000000000, -1.000000000000000000, 0.000000000000000000 ) ) ;
#584 = ORIENTED_EDGE ( 'NONE', *, *, #845, .F. ) ;
#585 = CIRCLE ( 'NONE', #218, 1.300000000000000044 ) ;
#586 = PLANE ( 'NONE',  #800 ) ;
#587 = CARTESIAN_POINT ( 'NONE',  ( -14.00000000000000000, 30.00000000000000000, 0.000000000000000000 ) ) ;
#588 = EDGE_LOOP ( 'NONE', ( #353, #912, #710, #315 ) ) ;
#589 = EDGE_CURVE ( 'NONE', #364, #276, #352, .T. ) ;
#590 = DIRECTION ( 'NONE',  ( 0.000000000000000000, 0.000000000000000000, -1.000000000000000000 ) ) ;
#591 = ORIENTED_EDGE ( 'NONE', *, *, #554, .T. ) ;
#592 = VECTOR ( 'NONE', #302, 1000.000000000000000 ) ;
#593 = FACE_OUTER_BOUND ( 'NONE', #51, .T. ) ;
#594 = CARTESIAN_POINT ( 'NONE',  ( -14.00000000000000000, 33.00000000000000000, -8.000000000000000000 ) ) ;
#595 = ORIENTED_EDGE ( 'NONE', *, *, #666, .T. ) ;
#596 = DIRECTION ( 'NONE',  ( 0.000000000000000000, -1.000000000000000000, 0.000000000000000000 ) ) ;
#597 = ORIENTED_EDGE ( 'NONE', *, *, #461, .T. ) ;
#598 = FACE_BOUND ( 'NONE', #1027, .T. ) ;
#599 = EDGE_CURVE ( 'NONE', #758, #14, #763, .T. ) ;
#600 = CARTESIAN_POINT ( 'NONE',  ( 0.000000000000000000, 30.00000000000000000, -6.500000000000000000 ) ) ;
#601 = AXIS2_PLACEMENT_3D ( 'NONE', #967, #329, #174 ) ;
#602 = ORIENTED_EDGE ( 'NONE', *, *, #412, .T. ) ;
#603 = CARTESIAN_POINT ( 'NONE',  ( -14.00000000000000000, 30.00000000000000000, -16.00000000000000000 ) ) ;
#604 = PLANE ( 'NONE',  #528 ) ;
#605 = CARTESIAN_POINT ( 'NONE',  ( -6.400000000000000355, 26.00000000000000000, -6.500000000000000000 ) ) ;
#606 = ORIENTED_EDGE ( 'NONE', *, *, #714, .F. ) ;
#607 = LOCAL_TIME ( 22, 40, 1.000000000000000000, #641 ) ;
#608 = LINE ( 'NONE', #600, #622 ) ;
#609 = DIRECTION ( 'NONE',  ( -0.000000000000000000, 0.000000000000000000, 1.000000000000000000 ) ) ;
#610 = PLANE ( 'NONE',  #204 ) ;
#611 = CARTESIAN_POINT ( 'NONE',  ( -4.000000000000000000, 30.00000000000000000, 0.000000000000000000 ) ) ;
#612 = ORIENTED_EDGE ( 'NONE', *, *, #384, .T. ) ;
#613 = DIRECTION ( 'NONE',  ( -1.000000000000000000, 0.000000000000000000, 0.000000000000000000 ) ) ;
#614 = CIRCLE ( 'NONE', #340, 1.300000000000000044 ) ;
#615 = EDGE_CURVE ( 'NONE', #798, #377, #850, .T. ) ;
#616 = ADVANCED_FACE ( 'NONE', ( #593 ), #211, .T. ) ;
#617 = ORIENTED_EDGE ( 'NONE', *, *, #694, .F. ) ;
#618 = DIRECTION ( 'NONE',  ( -1.000000000000000000, 0.000000000000000000, -0.000000000000000000 ) ) ;
#619 = LINE ( 'NONE', #939, #252 ) ;
#620 = ORIENTED_EDGE ( 'NONE', *, *, #240, .F. ) ;
#621 = PLANE ( 'NONE',  #913 ) ;
#622 = VECTOR ( 'NONE', #941, 1000.000000000000000 ) ;
#623 = ORIENTED_EDGE ( 'NONE', *, *, #988, .F. ) ;
#624 = FACE_OUTER_BOUND ( 'NONE', #110, .T. ) ;
#625 = PLANE ( 'NONE',  #151 ) ;
#626 = ORIENTED_EDGE ( 'NONE', *, *, #805, .T. ) ;
#627 = CARTESIAN_POINT ( 'NONE',  ( 0.000000000000000000, 26.00000000000000000, -6.500000000000000000 ) ) ;
#628 = VECTOR ( 'NONE', #849, 1000.000000000000000 ) ;
#629 = DIRECTION ( 'NONE',  ( 0.000000000000000000, 0.000000000000000000, 1.000000000000000000 ) ) ;
#630 = VERTEX_POINT ( 'NONE', #757 ) ;
#631 = VECTOR ( 'NONE', #836, 1000.000000000000000 ) ;
#632 = DIRECTION ( 'NONE',  ( 1.000000000000000000, 0.000000000000000000, 0.000000000000000000 ) ) ;
#633 = CARTESIAN_POINT ( 'NONE',  ( -6.400000000000000355, 33.00000000000000000, -6.500000000000000000 ) ) ;
#634 = VERTEX_POINT ( 'NONE', #455 ) ;
#635 = APPROVAL ( #467, 'UNSPECIFIED' ) ;
#636 = EDGE_CURVE ( 'NONE', #952, #798, #679, .T. ) ;
#637 = CARTESIAN_POINT ( 'NONE',  ( 25.00000000000000000, 26.00000000000000000, 18.00000000000000000 ) ) ;
#638 = VECTOR ( 'NONE', #575, 1000.000000000000000 ) ;
#639 = CARTESIAN_POINT ( 'NONE',  ( -14.00000000000000178, 28.00000000000000000, -12.00000000000000000 ) ) ;
#640 = ORIENTED_EDGE ( 'NONE', *, *, #615, .F. ) ;
#641 = COORDINATED_UNIVERSAL_TIME_OFFSET ( 6, 0, .BEHIND. ) ;
#642 = CARTESIAN_POINT ( 'NONE',  ( -4.000000000000000000, 26.00000000000000000, 16.00000000000000000 ) ) ;
#643 = LINE ( 'NONE', #263, #389 ) ;
#644 = ORIENTED_EDGE ( 'NONE', *, *, #100, .F. ) ;
#645 = DATE_TIME_ROLE ( 'classification_date' ) ;
#646 = AXIS2_PLACEMENT_3D ( 'NONE', #594, #134, #295 ) ;
#647 = ADVANCED_FACE ( 'NONE', ( #684 ), #1004, .F. ) ;
#648 = DIRECTION ( 'NONE',  ( -1.000000000000000000, 0.000000000000000000, -0.000000000000000000 ) ) ;
#649 = ADVANCED_FACE ( 'NONE', ( #1009, #775, #598, #195 ), #920, .F. ) ;
#650 = CARTESIAN_POINT ( 'NONE',  ( -21.00000000000000000, 26.00000000000000000, -18.00000000000000000 ) ) ;
#651 = VERTEX_POINT ( 'NONE', #605 ) ;
#652 = PERSON_AND_ORGANIZATION_ROLE ( 'design_owner' ) ;
#653 = CARTESIAN_POINT ( 'NONE',  ( -6.400000000000000355, 33.00000000000000000, 6.500000000000000000 ) ) ;
#654 = CARTESIAN_POINT ( 'NONE',  ( -14.00000000000000178, 28.00000000000000000, 13.60000000000000142 ) ) ;
#655 = ORIENTED_EDGE ( 'NONE', *, *, #766, .T. ) ;
#656 = CIRCLE ( 'NONE', #433, 1.299999999999999156 ) ;
#657 = DIRECTION ( 'NONE',  ( 0.000000000000000000, 0.000000000000000000, -1.000000000000000000 ) ) ;
#658 = CARTESIAN_POINT ( 'NONE',  ( 20.00000000000000000, 30.00000000000000000, 1.299999999999999156 ) ) ;
#659 = ORIENTED_EDGE ( 'NONE', *, *, #1023, .T. ) ;
#660 = EDGE_CURVE ( 'NONE', #898, #145, #202, .T. ) ;
#661 = VECTOR ( 'NONE', #1039, 1000.000000000000000 ) ;
#662 = PLANE ( 'NONE',  #245 ) ;
#663 = EDGE_LOOP ( 'NONE', ( #866, #676, #558, #453 ) ) ;
#664 = VECTOR ( 'NONE', #596, 1000.000000000000000 ) ;
#665 = ORIENTED_EDGE ( 'NONE', *, *, #198, .F. ) ;
#666 = EDGE_CURVE ( 'NONE', #902, #825, #656, .T. ) ;
#667 = PLANE ( 'NONE',  #886 ) ;
#668 = LINE ( 'NONE', #991, #876 ) ;
#669 = VERTEX_POINT ( 'NONE', #951 ) ;
#670 = CIRCLE ( 'NONE', #52, 1.600000000000000755 ) ;
#671 = CARTESIAN_POINT ( 'NONE',  ( -21.00000000000000000, 30.00000000000000000, -18.00000000000000000 ) ) ;
#672 = ORIENTED_EDGE ( 'NONE', *, *, #215, .F. ) ;
#673 = CARTESIAN_POINT ( 'NONE',  ( -4.000000000000000000, 26.00000000000000000, 0.000000000000000000 ) ) ;
#674 = ORIENTED_EDGE ( 'NONE', *, *, #946, .T. ) ;
#675 = CARTESIAN_POINT ( 'NONE',  ( -21.00000000000000000, 30.00000000000000000, 18.00000000000000000 ) ) ;
#676 = ORIENTED_EDGE ( 'NONE', *, *, #572, .T. ) ;
#677 = EDGE_CURVE ( 'NONE', #540, #553, #196, .T. ) ;
#678 = AXIS2_PLACEMENT_3D ( 'NONE', #693, #1017, #219 ) ;
#679 = LINE ( 'NONE', #126, #141 ) ;
#680 = ORIENTED_EDGE ( 'NONE', *, *, #68, .T. ) ;
#681 = DIRECTION ( 'NONE',  ( 1.000000000000000000, 0.000000000000000000, 0.000000000000000000 ) ) ;
#682 = ORIENTED_EDGE ( 'NONE', *, *, #412, .F. ) ;
#683 = CARTESIAN_POINT ( 'NONE',  ( -14.00000000000000000, 33.00000000000000000, 16.00000000000000000 ) ) ;
#684 = FACE_OUTER_BOUND ( 'NONE', #330, .T. ) ;
#685 = ORIENTED_EDGE ( 'NONE', *, *, #418, .F. ) ;
#686 = CARTESIAN_POINT ( 'NONE',  ( 25.00000000000000000, 30.00000000000000000, 18.00000000000000000 ) ) ;
#687 = ORIENTED_EDGE ( 'NONE', *, *, #871, .F. ) ;
#688 = FACE_BOUND ( 'NONE', #369, .T. ) ;
#689 = DIRECTION ( 'NONE',  ( -0.000000000000000000, 0.000000000000000000, 1.000000000000000000 ) ) ;
#690 = CARTESIAN_POINT ( 'NONE',  ( 20.00000000000000000, 26.00000000000000000, -1.299999999999999156 ) ) ;
#691 = ORIENTED_EDGE ( 'NONE', *, *, #831, .T. ) ;
#692 = ADVANCED_FACE ( 'NONE', ( #477 ), #400, .F. ) ;
#693 = CARTESIAN_POINT ( 'NONE',  ( -21.00000000000000000, 33.00000000000000000, 18.00000000000000000 ) ) ;
#694 = EDGE_CURVE ( 'NONE', #825, #902, #741, .T. ) ;
#695 = ORIENTED_EDGE ( 'NONE', *, *, #44, .T. ) ;
#696 = LINE ( 'NONE', #1019, #760 ) ;
#697 = DIRECTION ( 'NONE',  ( 1.000000000000000000, 0.000000000000000000, 0.000000000000000000 ) ) ;
#698 = ORIENTED_EDGE ( 'NONE', *, *, #198, .T. ) ;
#699 = LINE ( 'NONE', #1022, #953 ) ;
#700 = VECTOR ( 'NONE', #177, 1000.000000000000000 ) ;
#701 = ORIENTED_EDGE ( 'NONE', *, *, #129, .F. ) ;
#702 = LINE ( 'NONE', #1025, #258 ) ;
#703 = FACE_BOUND ( 'NONE', #875, .T. ) ;
#704 = ORIENTED_EDGE ( 'NONE', *, *, #296, .F. ) ;
#705 = ADVANCED_FACE ( 'NONE', ( #1040 ), #228, .F. ) ;
#706 = VERTEX_POINT ( 'NONE', #874 ) ;
#707 = DIRECTION ( 'NONE',  ( 0.000000000000000000, -1.000000000000000000, 0.000000000000000000 ) ) ;
#708 = VECTOR ( 'NONE', #170, 1000.000000000000000 ) ;
#709 = LINE ( 'NONE', #562, #472 ) ;
#710 = ORIENTED_EDGE ( 'NONE', *, *, #900, .T. ) ;
#711 = COORDINATED_UNIVERSAL_TIME_OFFSET ( 6, 0, .BEHIND. ) ;
#712 = DIRECTION ( 'NONE',  ( 0.000000000000000000, 0.000000000000000000, -1.000000000000000000 ) ) ;
#713 = VECTOR ( 'NONE', #214, 1000.000000000000000 ) ;
#714 = EDGE_CURVE ( 'NONE', #973, #364, #155, .T. ) ;
#715 = DIRECTION ( 'NONE',  ( 0.000000000000000000, 0.000000000000000000, -1.000000000000000000 ) ) ;
#716 = VERTEX_POINT ( 'NONE', #71 ) ;
#717 = PERSON_AND_ORGANIZATION ( #807, #945 ) ;
#718 = VECTOR ( 'NONE', #334, 1000.000000000000000 ) ;
#719 = LINE ( 'NONE', #637, #809 ) ;
#720 = DIRECTION ( 'NONE',  ( 0.000000000000000000, -1.000000000000000000, 0.000000000000000000 ) ) ;
#721 = EDGE_LOOP ( 'NONE', ( #339, #254, #36, #620 ) ) ;
#722 = PERSON_AND_ORGANIZATION_ROLE ( 'creator' ) ;
#723 = DIRECTION ( 'NONE',  ( -1.000000000000000000, 0.000000000000000000, 0.000000000000000000 ) ) ;
#724 = AXIS2_PLACEMENT_3D ( 'NONE', #878, #493, #251 ) ;
#725 = DIRECTION ( 'NONE',  ( -0.000000000000000000, -1.000000000000000000, -0.000000000000000000 ) ) ;
#726 = VERTEX_POINT ( 'NONE', #797 ) ;
#727 = EDGE_CURVE ( 'NONE', #504, #94, #77, .T. ) ;
#728 = CC_DESIGN_DATE_AND_TIME_ASSIGNMENT ( #812, #799, ( #105 ) ) ;
#729 = CARTESIAN_POINT ( 'NONE',  ( -14.00000000000000000, 26.00000000000000000, -8.000000000000000000 ) ) ;
#730 = DIRECTION ( 'NONE',  ( 1.000000000000000000, 0.000000000000000000, 0.000000000000000000 ) ) ;
#731 = ORIENTED_EDGE ( 'NONE', *, *, #834, .F. ) ;
#732 = PERSON_AND_ORGANIZATION ( #807, #945 ) ;
#733 = VECTOR ( 'NONE', #50, 1000.000000000000000 ) ;
#734 = CARTESIAN_POINT ( 'NONE',  ( 0.000000000000000000, 30.00000000000000000, 8.000000000000000000 ) ) ;
#735 = CARTESIAN_POINT ( 'NONE',  ( -6.400000000000000355, 26.00000000000000000, 6.500000000000000000 ) ) ;
#736 = ORIENTED_EDGE ( 'NONE', *, *, #666, .F. ) ;
#737 = CARTESIAN_POINT ( 'NONE',  ( -9.000000000000000000, 26.00000000000000000, 0.000000000000000000 ) ) ;
#738 = EDGE_CURVE ( 'NONE', #843, #952, #305, .T. ) ;
#739 = CARTESIAN_POINT ( 'NONE',  ( -21.00000000000000000, 23.00000000000000000, 18.00000000000000000 ) ) ;
#740 = ORIENTED_EDGE ( 'NONE', *, *, #946, .F. ) ;
#741 = CIRCLE ( 'NONE', #69, 1.299999999999999156 ) ;
#742 = CARTESIAN_POINT ( 'NONE',  ( -21.00000000000000000, 23.00000000000000000, -18.00000000000000000 ) ) ;
#743 = CARTESIAN_POINT ( 'NONE',  ( -21.00000000000000000, 33.00000000000000000, 18.00000000000000000 ) ) ;
#744 = AXIS2_PLACEMENT_3D ( 'NONE', #21, #29, #1003 ) ;
#745 = EDGE_CURVE ( 'NONE', #852, #961, #709, .T. ) ;
#746 = ORIENTED_EDGE ( 'NONE', *, *, #418, .T. ) ;
#747 = CARTESIAN_POINT ( 'NONE',  ( 17.39999999999999858, 33.00000000000000000, 6.500000000000000000 ) ) ;
#748 = ORIENTED_EDGE ( 'NONE', *, *, #1023, .F. ) ;
#749 = VECTOR ( 'NONE', #931, 1000.000000000000000 ) ;
#750 = ORIENTED_EDGE ( 'NONE', *, *, #58, .T. ) ;
#751 = CARTESIAN_POINT ( 'NONE',  ( -21.00000000000000000, 28.00000000000000000, 12.00000000000000000 ) ) ;
#752 = LINE ( 'NONE', #587, #469 ) ;
#753 = PLANE ( 'NONE',  #646 ) ;
#754 = VECTOR ( 'NONE', #404, 1000.000000000000000 ) ;
#755 = ADVANCED_FACE ( 'NONE', ( #314 ), #625, .T. ) ;
#756 = ORIENTED_EDGE ( 'NONE', *, *, #979, .F. ) ;
#757 = CARTESIAN_POINT ( 'NONE',  ( -14.00000000000000178, 28.00000000000000000, -10.40000000000000036 ) ) ;
#758 = VERTEX_POINT ( 'NONE', #459 ) ;
#759 = CARTESIAN_POINT ( 'NONE',  ( -14.00000000000000000, 30.00000000000000000, 0.000000000000000000 ) ) ;
#760 = VECTOR ( 'NONE', #299, 1000.000000000000000 ) ;
#761 = VERTEX_POINT ( 'NONE', #484 ) ;
#762 = LINE ( 'NONE', #938, #713 ) ;
#763 = LINE ( 'NONE', #516, #328 ) ;
#764 = VERTEX_POINT ( 'NONE', #803 ) ;
#765 = FACE_OUTER_BOUND ( 'NONE', #443, .T. ) ;
#766 = EDGE_CURVE ( 'NONE', #961, #422, #82, .T. ) ;
#767 = DIRECTION ( 'NONE',  ( 0.000000000000000000, 0.000000000000000000, -1.000000000000000000 ) ) ;
#768 = DIRECTION ( 'NONE',  ( 1.000000000000000000, 0.000000000000000000, 0.000000000000000000 ) ) ;
#769 = DIRECTION ( 'NONE',  ( -1.000000000000000000, -0.000000000000000000, -0.000000000000000000 ) ) ;
#770 = ORIENTED_EDGE ( 'NONE', *, *, #822, .T. ) ;
#771 = CARTESIAN_POINT ( 'NONE',  ( -14.00000000000000178, 28.00000000000000000, -10.40000000000000036 ) ) ;
#772 = AXIS2_PLACEMENT_3D ( 'NONE', #397, #791, #327 ) ;
#773 = VERTEX_POINT ( 'NONE', #300 ) ;
#774 = CARTESIAN_POINT ( 'NONE',  ( -4.000000000000000000, 30.00000000000000000, 0.000000000000000000 ) ) ;
#775 = FACE_BOUND ( 'NONE', #4, .T. ) ;
#776 = ORIENTED_EDGE ( 'NONE', *, *, #910, .F. ) ;
#777 = APPROVAL ( #974, 'UNSPECIFIED' ) ;
#778 = FACE_OUTER_BOUND ( 'NONE', #281, .T. ) ;
#779 = VERTEX_POINT ( 'NONE', #223 ) ;
#780 = DIRECTION ( 'NONE',  ( -1.000000000000000000, 0.000000000000000000, -0.000000000000000000 ) ) ;
#781 = CARTESIAN_POINT ( 'NONE',  ( -21.00000000000000000, 23.00000000000000000, 18.00000000000000000 ) ) ;
#782 = ORIENTED_EDGE ( 'NONE', *, *, #152, .T. ) ;
#783 = AXIS2_PLACEMENT_3D ( 'NONE', #911, #832, #857 ) ;
#784 = EDGE_CURVE ( 'NONE', #706, #507, #619, .T. ) ;
#785 = ORIENTED_EDGE ( 'NONE', *, *, #22, .T. ) ;
#786 = CARTESIAN_POINT ( 'NONE',  ( -14.00000000000000178, 28.00000000000000000, -13.60000000000000142 ) ) ;
#787 = CARTESIAN_POINT ( 'NONE',  ( 20.00000000000000000, 30.00000000000000000, 0.000000000000000000 ) ) ;
#788 = VERTEX_POINT ( 'NONE', #781 ) ;
#789 = PRODUCT_RELATED_PRODUCT_CATEGORY ( 'detail', '', ( #99 ) ) ;
#790 = ADVANCED_FACE ( 'NONE', ( #62, #703, #947, #548 ), #868, .T. ) ;
#791 = DIRECTION ( 'NONE',  ( -0.000000000000000000, 1.000000000000000000, -0.000000000000000000 ) ) ;
#792 = AXIS2_PLACEMENT_3D ( 'NONE', #1026, #720, #543 ) ;
#793 = DIRECTION ( 'NONE',  ( 0.000000000000000000, 0.000000000000000000, -1.000000000000000000 ) ) ;
#794 = VERTEX_POINT ( 'NONE', #1031 ) ;
#795 = CARTESIAN_POINT ( 'NONE',  ( -14.00000000000000000, 33.00000000000000000, -16.00000000000000000 ) ) ;
#796 = VECTOR ( 'NONE', #707, 1000.000000000000000 ) ;
#797 = CARTESIAN_POINT ( 'NONE',  ( -14.00000000000000178, 28.00000000000000000, 10.40000000000000036 ) ) ;
#798 = VERTEX_POINT ( 'NONE', #309 ) ;
#799 = DATE_TIME_ROLE ( 'creation_date' ) ;
#800 = AXIS2_PLACEMENT_3D ( 'NONE', #42, #291, #829 ) ;
#801 = CARTESIAN_POINT ( 'NONE',  ( 25.00000000000000000, 26.00000000000000000, 18.00000000000000000 ) ) ;
#802 = EDGE_CURVE ( 'NONE', #902, #553, #103, .T. ) ;
#803 = CARTESIAN_POINT ( 'NONE',  ( -21.00000000000000000, 28.00000000000000000, -13.60000000000000142 ) ) ;
#804 = ORIENTED_EDGE ( 'NONE', *, *, #399, .T. ) ;
#805 = EDGE_CURVE ( 'NONE', #764, #294, #894, .T. ) ;
#806 = PERSON_AND_ORGANIZATION_ROLE ( 'creator' ) ;
#807 = PERSON ( 'UNSPECIFIED', 'UNSPECIFIED', 'UNSPECIFIED', ('UNSPECIFIED'), ('UNSPECIFIED'), ('UNSPECIFIED') ) ;
#808 = CARTESIAN_POINT ( 'NONE',  ( -21.00000000000000000, 28.00000000000000000, -12.00000000000000000 ) ) ;
#809 = VECTOR ( 'NONE', #476, 1000.000000000000000 ) ;
#810 = DIRECTION ( 'NONE',  ( -0.000000000000000000, -0.000000000000000000, -1.000000000000000000 ) ) ;
#811 = ORIENTED_EDGE ( 'NONE', *, *, #215, .T. ) ;
#812 = DATE_AND_TIME ( #964, #607 ) ;
#813 = CARTESIAN_POINT ( 'NONE',  ( 0.000000000000000000, 26.00000000000000000, 8.000000000000000000 ) ) ;
#814 = DIRECTION ( 'NONE',  ( -0.000000000000000000, -1.000000000000000000, -0.000000000000000000 ) ) ;
#815 = ORIENTED_EDGE ( 'NONE', *, *, #677, .F. ) ;
#816 = CIRCLE ( 'NONE', #846, 1.600000000000000755 ) ;
#817 = EDGE_CURVE ( 'NONE', #821, #47, #643, .T. ) ;
#818 = AXIS2_PLACEMENT_3D ( 'NONE', #675, #999, #283 ) ;
#819 = DIRECTION ( 'NONE',  ( 0.000000000000000000, 0.000000000000000000, -1.000000000000000000 ) ) ;
#820 = FACE_OUTER_BOUND ( 'NONE', #905, .T. ) ;
#821 = VERTEX_POINT ( 'NONE', #87 ) ;
#822 = EDGE_CURVE ( 'NONE', #825, #540, #163, .T. ) ;
#823 = CARTESIAN_POINT ( 'NONE',  ( -4.000000000000000000, 26.00000000000000000, -8.000000000000000000 ) ) ;
#824 = CARTESIAN_POINT ( 'NONE',  ( -6.400000000000000355, 30.00000000000000000, 6.500000000000000000 ) ) ;
#825 = VERTEX_POINT ( 'NONE', #658 ) ;
#826 = DIRECTION ( 'NONE',  ( -1.000000000000000000, 0.000000000000000000, 0.000000000000000000 ) ) ;
#827 = ORIENTED_EDGE ( 'NONE', *, *, #12, .T. ) ;
#828 = EDGE_LOOP ( 'NONE', ( #1032, #977, #776, #943 ) ) ;
#829 = DIRECTION ( 'NONE',  ( 0.000000000000000000, 0.000000000000000000, -1.000000000000000000 ) ) ;
#830 = EDGE_LOOP ( 'NONE', ( #924, #937, #526, #903 ) ) ;
#831 = EDGE_CURVE ( 'NONE', #758, #952, #243, .T. ) ;
#832 = DIRECTION ( 'NONE',  ( 0.000000000000000000, -1.000000000000000000, 0.000000000000000000 ) ) ;
#833 = ORIENTED_EDGE ( 'NONE', *, *, #871, .T. ) ;
#834 = EDGE_CURVE ( 'NONE', #377, #385, #566, .T. ) ;
#835 = DIRECTION ( 'NONE',  ( -0.000000000000000000, -0.000000000000000000, -1.000000000000000000 ) ) ;
#836 = DIRECTION ( 'NONE',  ( 0.000000000000000000, 0.000000000000000000, -1.000000000000000000 ) ) ;
#837 = ORIENTED_EDGE ( 'NONE', *, *, #117, .T. ) ;
#838 = DIRECTION ( 'NONE',  ( 0.000000000000000000, 0.000000000000000000, 1.000000000000000000 ) ) ;
#839 = AXIS2_PLACEMENT_3D ( 'NONE', #233, #382, #715 ) ;
#840 = ORIENTED_EDGE ( 'NONE', *, *, #58, .F. ) ;
#841 = CARTESIAN_POINT ( 'NONE',  ( -4.000000000000000000, 33.00000000000000000, -8.000000000000000000 ) ) ;
#842 = DIRECTION ( 'NONE',  ( 0.000000000000000000, 0.000000000000000000, -1.000000000000000000 ) ) ;
#843 = VERTEX_POINT ( 'NONE', #259 ) ;
#844 = CARTESIAN_POINT ( 'NONE',  ( -14.00000000000000000, 26.00000000000000000, -16.00000000000000000 ) ) ;
#845 = EDGE_CURVE ( 'NONE', #422, #940, #7, .T. ) ;
#846 = AXIS2_PLACEMENT_3D ( 'NONE', #458, #768, #381 ) ;
#847 = ORIENTED_EDGE ( 'NONE', *, *, #91, .F. ) ;
#848 = CYLINDRICAL_SURFACE ( 'NONE', #851, 1.600000000000000755 ) ;
#849 = DIRECTION ( 'NONE',  ( -1.000000000000000000, 0.000000000000000000, 0.000000000000000000 ) ) ;
#850 = LINE ( 'NONE', #997, #9 ) ;
#851 = AXIS2_PLACEMENT_3D ( 'NONE', #200, #267, #1002 ) ;
#852 = VERTEX_POINT ( 'NONE', #3 ) ;
#853 = CARTESIAN_POINT ( 'NONE',  ( -14.00000000000000178, 28.00000000000000000, 13.60000000000000142 ) ) ;
#854 = ORIENTED_EDGE ( 'NONE', *, *, #117, .F. ) ;
#855 = CARTESIAN_POINT ( 'NONE',  ( 25.00000000000000000, 30.00000000000000000, 18.00000000000000000 ) ) ;
#856 = APPROVAL ( #231, 'UNSPECIFIED' ) ;
#857 = DIRECTION ( 'NONE',  ( 0.000000000000000000, -0.000000000000000000, -1.000000000000000000 ) ) ;
#858 = ORIENTED_EDGE ( 'NONE', *, *, #802, .T. ) ;
#859 = CARTESIAN_POINT ( 'NONE',  ( -14.00000000000000000, 30.00000000000000000, 18.00000000000000000 ) ) ;
#860 = VECTOR ( 'NONE', #6, 1000.000000000000000 ) ;
#861 = DIRECTION ( 'NONE',  ( -0.000000000000000000, -1.000000000000000000, -0.000000000000000000 ) ) ;
#862 = LOCAL_TIME ( 22, 40, 1.000000000000000000, #161 ) ;
#863 = DIRECTION ( 'NONE',  ( 0.000000000000000000, -1.000000000000000000, 0.000000000000000000 ) ) ;
#864 = EDGE_LOOP ( 'NONE', ( #72, #199 ) ) ;
#865 = DIRECTION ( 'NONE',  ( 0.000000000000000000, -1.000000000000000000, 0.000000000000000000 ) ) ;
#866 = ORIENTED_EDGE ( 'NONE', *, *, #347, .T. ) ;
#867 = CARTESIAN_POINT ( 'NONE',  ( -14.00000000000000000, 30.00000000000000000, 16.00000000000000000 ) ) ;
#868 = PLANE ( 'NONE',  #115 ) ;
#869 = ORIENTED_EDGE ( 'NONE', *, *, #242, .T. ) ;
#870 = AXIS2_PLACEMENT_3D ( 'NONE', #114, #435, #535 ) ;
#871 = EDGE_CURVE ( 'NONE', #779, #441, #20, .T. ) ;
#872 = DIRECTION ( 'NONE',  ( 1.000000000000000000, 0.000000000000000000, 0.000000000000000000 ) ) ;
#873 = DIRECTION ( 'NONE',  ( 0.000000000000000000, 1.000000000000000000, 0.000000000000000000 ) ) ;
#874 = CARTESIAN_POINT ( 'NONE',  ( -9.000000000000000000, 30.00000000000000000, -1.300000000000000044 ) ) ;
#875 = EDGE_LOOP ( 'NONE', ( #1006, #420 ) ) ;
#876 = VECTOR ( 'NONE', #268, 1000.000000000000000 ) ;
#877 = APPROVAL_DATE_TIME ( #555, #777 ) ;
#878 = CARTESIAN_POINT ( 'NONE',  ( -14.00000000000000178, 28.00000000000000000, 12.00000000000000000 ) ) ;
#879 = DIRECTION ( 'NONE',  ( 0.000000000000000000, 0.000000000000000000, -1.000000000000000000 ) ) ;
#880 = VERTEX_POINT ( 'NONE', #823 ) ;
#881 = DATE_AND_TIME ( #486, #135 ) ;
#882 = CARTESIAN_POINT ( 'NONE',  ( -14.00000000000000178, 28.00000000000000000, -12.00000000000000000 ) ) ;
#883 = ADVANCED_FACE ( 'NONE', ( #820 ), #182, .F. ) ;
#884 = DIRECTION ( 'NONE',  ( -0.000000000000000000, 0.000000000000000000, 1.000000000000000000 ) ) ;
#885 = ORIENTED_EDGE ( 'NONE', *, *, #738, .T. ) ;
#886 = AXIS2_PLACEMENT_3D ( 'NONE', #671, #209, #995 ) ;
#887 = LINE ( 'NONE', #70, #661 ) ;
#888 = ORIENTED_EDGE ( 'NONE', *, *, #599, .F. ) ;
#889 = APPROVAL_DATE_TIME ( #881, #856 ) ;
#890 = DIRECTION ( 'NONE',  ( -1.000000000000000000, 0.000000000000000000, 0.000000000000000000 ) ) ;
#891 = CARTESIAN_POINT ( 'NONE',  ( 20.00000000000000000, 33.00000000000000000, 1.299999999999999156 ) ) ;
#892 = ORIENTED_EDGE ( 'NONE', *, *, #1042, .F. ) ;
#893 = ADVANCED_FACE ( 'NONE', ( #972 ), #904, .T. ) ;
#894 = CIRCLE ( 'NONE', #601, 1.600000000000000755 ) ;
#895 = DATE_AND_TIME ( #331, #862 ) ;
#896 = DIRECTION ( 'NONE',  ( 0.000000000000000000, 0.000000000000000000, -1.000000000000000000 ) ) ;
#897 = DIRECTION ( 'NONE',  ( -0.000000000000000000, 1.000000000000000000, -0.000000000000000000 ) ) ;
#898 = VERTEX_POINT ( 'NONE', #570 ) ;
#899 = CIRCLE ( 'NONE', #440, 1.600000000000000755 ) ;
#900 = EDGE_CURVE ( 'NONE', #478, #217, #419, .T. ) ;
#901 = DIRECTION ( 'NONE',  ( 0.000000000000000000, 0.000000000000000000, -1.000000000000000000 ) ) ;
#902 = VERTEX_POINT ( 'NONE', #421 ) ;
#903 = ORIENTED_EDGE ( 'NONE', *, *, #392, .F. ) ;
#904 = PLANE ( 'NONE',  #344 ) ;
#905 = EDGE_LOOP ( 'NONE', ( #306, #303, #740, #918 ) ) ;
#906 = VECTOR ( 'NONE', #86, 1000.000000000000000 ) ;
#907 = EDGE_CURVE ( 'NONE', #788, #377, #494, .T. ) ;
#908 = CARTESIAN_POINT ( 'NONE',  ( -4.000000000000000000, 30.00000000000000000, 16.00000000000000000 ) ) ;
#909 = ORIENTED_EDGE ( 'NONE', *, *, #900, .F. ) ;
#910 = EDGE_CURVE ( 'NONE', #14, #788, #342, .T. ) ;
#911 = CARTESIAN_POINT ( 'NONE',  ( 0.000000000000000000, 30.00000000000000000, 0.000000000000000000 ) ) ;
#912 = ORIENTED_EDGE ( 'NONE', *, *, #191, .T. ) ;
#913 = AXIS2_PLACEMENT_3D ( 'NONE', #205, #1012, #531 ) ;
#914 = DIRECTION ( 'NONE',  ( 0.000000000000000000, -1.000000000000000000, 0.000000000000000000 ) ) ;
#915 = EDGE_LOOP ( 'NONE', ( #471, #411, #212, #909 ) ) ;
#916 = CARTESIAN_POINT ( 'NONE',  ( -14.00000000000000000, 26.00000000000000000, 0.000000000000000000 ) ) ;
#917 = ORIENTED_EDGE ( 'NONE', *, *, #738, .F. ) ;
#918 = ORIENTED_EDGE ( 'NONE', *, *, #784, .F. ) ;
#919 = MANIFOLD_SOLID_BREP ( 'Rear_clamping_M3_holes', #284 ) ;
#920 = PLANE ( 'NONE',  #1000 ) ;
#921 = ADVANCED_FACE ( 'NONE', ( #982 ), #662, .T. ) ;
#922 = DIRECTION ( 'NONE',  ( 1.000000000000000000, 0.000000000000000000, 0.000000000000000000 ) ) ;
#923 = VECTOR ( 'NONE', #470, 1000.000000000000000 ) ;
#924 = ORIENTED_EDGE ( 'NONE', *, *, #341, .F. ) ;
#925 = FACE_OUTER_BOUND ( 'NONE', #171, .T. ) ;
#926 = CARTESIAN_POINT ( 'NONE',  ( -14.00000000000000000, 23.00000000000000000, -18.00000000000000000 ) ) ;
#927 = VERTEX_POINT ( 'NONE', #735 ) ;
#928 = FACE_OUTER_BOUND ( 'NONE', #203, .T. ) ;
#929 = EDGE_CURVE ( 'NONE', #102, #364, #424, .T. ) ;
#930 = VERTEX_POINT ( 'NONE', #976 ) ;
#931 = DIRECTION ( 'NONE',  ( 1.000000000000000000, 0.000000000000000000, 0.000000000000000000 ) ) ;
#932 = CARTESIAN_POINT ( 'NONE',  ( -21.00000000000000000, 28.00000000000000000, 12.00000000000000000 ) ) ;
#933 = FACE_BOUND ( 'NONE', #864, .T. ) ;
#934 = AXIS2_PLACEMENT_3D ( 'NONE', #101, #506, #500 ) ;
#935 = ORIENTED_EDGE ( 'NONE', *, *, #766, .F. ) ;
#936 = CARTESIAN_POINT ( 'NONE',  ( -4.000000000000000000, 30.00000000000000000, -16.00000000000000000 ) ) ;
#937 = ORIENTED_EDGE ( 'NONE', *, *, #1024, .T. ) ;
#938 = CARTESIAN_POINT ( 'NONE',  ( -14.00000000000000000, 23.00000000000000000, 18.00000000000000000 ) ) ;
#939 = CARTESIAN_POINT ( 'NONE',  ( -9.000000000000000000, 33.00000000000000000, -1.300000000000000044 ) ) ;
#940 = VERTEX_POINT ( 'NONE', #253 ) ;
#941 = DIRECTION ( 'NONE',  ( -1.000000000000000000, 0.000000000000000000, 0.000000000000000000 ) ) ;
#942 = VECTOR ( 'NONE', #172, 1000.000000000000000 ) ;
#943 = ORIENTED_EDGE ( 'NONE', *, *, #90, .T. ) ;
#944 = PLANE ( 'NONE',  #1033 ) ;
#945 = ORGANIZATION ( 'UNSPECIFIED', 'UNSPECIFIED', '' ) ;
#946 = EDGE_CURVE ( 'NONE', #507, #716, #107, .T. ) ;
#947 = FACE_BOUND ( 'NONE', #63, .T. ) ;
#948 = ORIENTED_EDGE ( 'NONE', *, *, #12, .F. ) ;
#949 = VECTOR ( 'NONE', #861, 1000.000000000000000 ) ;
#950 = DIRECTION ( 'NONE',  ( -1.000000000000000000, 0.000000000000000000, -0.000000000000000000 ) ) ;
#951 = CARTESIAN_POINT ( 'NONE',  ( -4.000000000000000000, 30.00000000000000000, 8.000000000000000000 ) ) ;
#952 = VERTEX_POINT ( 'NONE', #184 ) ;
#953 = VECTOR ( 'NONE', #1005, 1000.000000000000000 ) ;
#954 = APPROVAL_ROLE ( '' ) ;
#955 = FACE_OUTER_BOUND ( 'NONE', #194, .T. ) ;
#956 = DIRECTION ( 'NONE',  ( -0.000000000000000000, 1.000000000000000000, -0.000000000000000000 ) ) ;
#957 = VERTEX_POINT ( 'NONE', #193 ) ;
#958 = ADVANCED_FACE ( 'NONE', ( #124 ), #848, .F. ) ;
#959 = CARTESIAN_POINT ( 'NONE',  ( -9.000000000000000000, 33.00000000000000000, 1.300000000000000044 ) ) ;
#960 = DIRECTION ( 'NONE',  ( 0.000000000000000000, 0.000000000000000000, -1.000000000000000000 ) ) ;
#961 = VERTEX_POINT ( 'NONE', #350 ) ;
#962 = CARTESIAN_POINT ( 'NONE',  ( -21.00000000000000000, 26.00000000000000000, 18.00000000000000000 ) ) ;
#963 = DESIGN_CONTEXT ( 'detailed design', #167, 'design' ) ;
#964 = CALENDAR_DATE ( 2026, 7, 9 ) ;
#965 = CC_DESIGN_PERSON_AND_ORGANIZATION_ASSIGNMENT ( #166, #806, ( #105 ) ) ;
#966 = LINE ( 'NONE', #75, #395 ) ;
#967 = CARTESIAN_POINT ( 'NONE',  ( -21.00000000000000000, 28.00000000000000000, -12.00000000000000000 ) ) ;
#968 = ORIENTED_EDGE ( 'NONE', *, *, #907, .T. ) ;
#969 = APPROVAL_ROLE ( '' ) ;
#970 = CARTESIAN_POINT ( 'NONE',  ( -21.00000000000000000, 28.00000000000000000, 13.60000000000000142 ) ) ;
#971 = ADVANCED_FACE ( 'NONE', ( #688, #521, #1007 ), #586, .F. ) ;
#972 = FACE_OUTER_BOUND ( 'NONE', #986, .T. ) ;
#973 = VERTEX_POINT ( 'NONE', #908 ) ;
#974 = APPROVAL_STATUS ( 'not_yet_approved' ) ;
#975 = CARTESIAN_POINT ( 'NONE',  ( -14.00000000000000178, 28.00000000000000000, 10.40000000000000036 ) ) ;
#976 = CARTESIAN_POINT ( 'NONE',  ( -9.000000000000000000, 30.00000000000000000, 1.300000000000000044 ) ) ;
#977 = ORIENTED_EDGE ( 'NONE', *, *, #907, .F. ) ;
#978 = VECTOR ( 'NONE', #583, 1000.000000000000000 ) ;
#979 = EDGE_CURVE ( 'NONE', #927, #898, #48, .T. ) ;
#980 = SECURITY_CLASSIFICATION ( '', '', #73 ) ;
#981 = CARTESIAN_POINT ( 'NONE',  ( -14.00000000000000000, 26.00000000000000000, 0.000000000000000000 ) ) ;
#982 = FACE_OUTER_BOUND ( 'NONE', #663, .T. ) ;
#983 = ORIENTED_EDGE ( 'NONE', *, *, #333, .T. ) ;
#984 = VECTOR ( 'NONE', #873, 1000.000000000000000 ) ;
#985 = CARTESIAN_POINT ( 'NONE',  ( -14.00000000000000000, 33.00000000000000000, 8.000000000000000000 ) ) ;
#986 = EDGE_LOOP ( 'NONE', ( #987, #998, #8, #175 ) ) ;
#987 = ORIENTED_EDGE ( 'NONE', *, *, #817, .T. ) ;
#988 = EDGE_CURVE ( 'NONE', #794, #335, #446, .T. ) ;
#989 = EDGE_CURVE ( 'NONE', #651, #927, #108, .T. ) ;
#990 = DIRECTION ( 'NONE',  ( 0.000000000000000000, 0.000000000000000000, -1.000000000000000000 ) ) ;
#991 = CARTESIAN_POINT ( 'NONE',  ( -21.00000000000000000, 30.00000000000000000, 18.00000000000000000 ) ) ;
#992 = AXIS2_PLACEMENT_3D ( 'NONE', #737, #337, #657 ) ;
#993 = EDGE_LOOP ( 'NONE', ( #644, #425, #394, #501, #602, #415, #485, #289, #119, #373, #358, #273 ) ) ;
#994 = APPROVAL_PERSON_ORGANIZATION ( #80, #777, #954 ) ;
#995 = DIRECTION ( 'NONE',  ( 1.000000000000000000, 0.000000000000000000, -0.000000000000000000 ) ) ;
#996 = VERTEX_POINT ( 'NONE', #603 ) ;
#997 = CARTESIAN_POINT ( 'NONE',  ( -21.00000000000000000, 30.00000000000000000, -18.00000000000000000 ) ) ;
#998 = ORIENTED_EDGE ( 'NONE', *, *, #59, .T. ) ;
#999 = DIRECTION ( 'NONE',  ( 0.000000000000000000, 0.000000000000000000, -1.000000000000000000 ) ) ;
#1000 = AXIS2_PLACEMENT_3D ( 'NONE', #523, #120, #288 ) ;
#1001 = EDGE_CURVE ( 'NONE', #217, #773, #297, .T. ) ;
#1002 = DIRECTION ( 'NONE',  ( 0.000000000000000000, 0.000000000000000000, 1.000000000000000000 ) ) ;
#1003 = DIRECTION ( 'NONE',  ( 0.000000000000000000, 0.000000000000000000, 1.000000000000000000 ) ) ;
#1004 = CYLINDRICAL_SURFACE ( 'NONE', #550, 1.299999999999999156 ) ;
#1005 = DIRECTION ( 'NONE',  ( 1.000000000000000000, 0.000000000000000000, 0.000000000000000000 ) ) ;
#1006 = ORIENTED_EDGE ( 'NONE', *, *, #262, .T. ) ;
#1007 = FACE_OUTER_BOUND ( 'NONE', #828, .T. ) ;
#1008 = DIRECTION ( 'NONE',  ( 1.000000000000000000, 0.000000000000000000, 0.000000000000000000 ) ) ;
#1009 = FACE_BOUND ( 'NONE', #379, .T. ) ;
#1010 = ORIENTED_EDGE ( 'NONE', *, *, #805, .F. ) ;
#1011 = ADVANCED_FACE ( 'NONE', ( #925 ), #667, .F. ) ;
#1012 = DIRECTION ( 'NONE',  ( -1.000000000000000000, 0.000000000000000000, -0.000000000000000000 ) ) ;
#1013 = CARTESIAN_POINT ( 'NONE',  ( -14.00000000000000178, 28.00000000000000000, -12.00000000000000000 ) ) ;
#1014 = DIRECTION ( 'NONE',  ( 0.000000000000000000, 0.000000000000000000, -1.000000000000000000 ) ) ;
#1015 = LINE ( 'NONE', #611, #631 ) ;
#1016 = ORIENTED_EDGE ( 'NONE', *, *, #374, .T. ) ;
#1017 = DIRECTION ( 'NONE',  ( 0.000000000000000000, -1.000000000000000000, 0.000000000000000000 ) ) ;
#1018 = ORIENTED_EDGE ( 'NONE', *, *, #399, .F. ) ;
#1019 = CARTESIAN_POINT ( 'NONE',  ( 0.000000000000000000, 30.00000000000000000, 16.00000000000000000 ) ) ;
#1020 = CIRCLE ( 'NONE', #565, 1.600000000000000755 ) ;
#1021 = EDGE_LOOP ( 'NONE', ( #983, #935, #466, #680 ) ) ;
#1022 = CARTESIAN_POINT ( 'NONE',  ( 0.000000000000000000, 26.00000000000000000, -8.000000000000000000 ) ) ;
#1023 = EDGE_CURVE ( 'NONE', #630, #106, #1020, .T. ) ;
#1024 = EDGE_CURVE ( 'NONE', #930, #706, #614, .T. ) ;
#1025 = CARTESIAN_POINT ( 'NONE',  ( -14.00000000000000000, 26.00000000000000000, 0.000000000000000000 ) ) ;
#1026 = CARTESIAN_POINT ( 'NONE',  ( 20.00000000000000000, 33.00000000000000000, 0.000000000000000000 ) ) ;
#1027 = EDGE_LOOP ( 'NONE', ( #27, #785, #130, #665 ) ) ;
#1028 = AXIS2_PLACEMENT_3D ( 'NONE', #639, #1036, #629 ) ;
#1029 = DIRECTION ( 'NONE',  ( -0.000000000000000000, -0.000000000000000000, -1.000000000000000000 ) ) ;
#1030 =( GEOMETRIC_REPRESENTATION_CONTEXT ( 3 ) GLOBAL_UNCERTAINTY_ASSIGNED_CONTEXT ( ( #416 ) ) GLOBAL_UNIT_ASSIGNED_CONTEXT ( ( #188, #514, #439 ) ) REPRESENTATION_CONTEXT ( 'NONE', 'WORKASPACE' ) );
#1031 = CARTESIAN_POINT ( 'NONE',  ( -14.00000000000000000, 30.00000000000000000, -8.000000000000000000 ) ) ;
#1032 = ORIENTED_EDGE ( 'NONE', *, *, #615, .T. ) ;
#1033 = AXIS2_PLACEMENT_3D ( 'NONE', #547, #221, #49 ) ;
#1034 = FACE_OUTER_BOUND ( 'NONE', #915, .T. ) ;
#1035 = ADVANCED_FACE ( 'NONE', ( #533 ), #35, .F. ) ;
#1036 = DIRECTION ( 'NONE',  ( -1.000000000000000000, 0.000000000000000000, 0.000000000000000000 ) ) ;
#1037 = ORIENTED_EDGE ( 'NONE', *, *, #539, .T. ) ;
#1038 = APPROVAL_DATE_TIME ( #491, #635 ) ;
#1039 = DIRECTION ( 'NONE',  ( 0.000000000000000000, -1.000000000000000000, 0.000000000000000000 ) ) ;
#1040 = FACE_OUTER_BOUND ( 'NONE', #238, .T. ) ;
#1041 = ORIENTED_EDGE ( 'NONE', *, *, #929, .T. ) ;
#1042 = EDGE_CURVE ( 'NONE', #779, #898, #147, .T. ) ;
#1043 = CALENDAR_DATE ( 2026, 7, 9 ) ;
ENDSEC;
END-ISO-10303-21;
