ISO-10303-21;
HEADER;
FILE_DESCRIPTION (( 'STEP AP203' ),
    '1' );
FILE_NAME ('ARM-205_Parallel_gripper_fork_adapter.step',
    '2026-09-12T20:01:20',
    ( '' ),
    ( '' ),
    'SwSTEP 2.0',
    'SolidWorks 2026',
    '' );
FILE_SCHEMA (( 'CONFIG_CONTROL_DESIGN' ));
ENDSEC;

DATA;
#1 = LINE ( 'NONE', #476, #284 ) ;
#2 = CARTESIAN_POINT ( 'NONE',  ( 46.82052589244400309, -10.19999999999999929, 13.00000000000000000 ) ) ;
#3 = EDGE_LOOP ( 'NONE', ( #679, #1050, #55, #249 ) ) ;
#4 = FACE_OUTER_BOUND ( 'NONE', #19, .T. ) ;
#5 = CARTESIAN_POINT ( 'NONE',  ( 46.82052589244400309, -10.19999999999999751, 10.84999999999999964 ) ) ;
#6 = ORIENTED_EDGE ( 'NONE', *, *, #563, .T. ) ;
#7 = DIRECTION ( 'NONE',  ( 0.000000000000000000, 0.000000000000000000, -1.000000000000000000 ) ) ;
#8 = DIRECTION ( 'NONE',  ( 0.000000000000000000, 0.000000000000000000, 1.000000000000000000 ) ) ;
#9 = EDGE_CURVE ( 'NONE', #1223, #757, #582, .T. ) ;
#10 = ORIENTED_EDGE ( 'NONE', *, *, #921, .F. ) ;
#11 = CIRCLE ( 'NONE', #988, 1.700000000000000178 ) ;
#12 = AXIS2_PLACEMENT_3D ( 'NONE', #836, #848, #362 ) ;
#13 = ORIENTED_EDGE ( 'NONE', *, *, #1022, .F. ) ;
#14 = DIRECTION ( 'NONE',  ( 0.000000000000000000, 0.000000000000000000, -1.000000000000000000 ) ) ;
#15 = CARTESIAN_POINT ( 'NONE',  ( 23.00000000000000000, 15.00000000000000000, 8.000000000000000000 ) ) ;
#16 = ORIENTED_EDGE ( 'NONE', *, *, #511, .F. ) ;
#17 = EDGE_CURVE ( 'NONE', #507, #326, #625, .T. ) ;
#18 = APPROVAL_ROLE ( '' ) ;
#19 = EDGE_LOOP ( 'NONE', ( #1208, #1250, #1186, #685 ) ) ;
#20 = FACE_OUTER_BOUND ( 'NONE', #866, .T. ) ;
#21 = DIRECTION ( 'NONE',  ( 0.000000000000000000, -1.000000000000000000, 0.000000000000000000 ) ) ;
#22 = ORIENTED_EDGE ( 'NONE', *, *, #448, .F. ) ;
#23 = APPLICATION_CONTEXT ( 'configuration controlled 3d designs of mechanical parts and assemblies' ) ;
#24 = DIRECTION ( 'NONE',  ( -0.000000000000000000, 1.000000000000000000, -0.000000000000000000 ) ) ;
#25 = EDGE_CURVE ( 'NONE', #270, #1183, #717, .T. ) ;
#26 = ORIENTED_EDGE ( 'NONE', *, *, #33, .F. ) ;
#27 = CARTESIAN_POINT ( 'NONE',  ( 46.82052589244400309, 14.19999999999999929, 10.84999999999999964 ) ) ;
#28 = DIRECTION ( 'NONE',  ( -0.000000000000000000, 1.000000000000000000, -0.000000000000000000 ) ) ;
#29 = VERTEX_POINT ( 'NONE', #216 ) ;
#30 = COORDINATED_UNIVERSAL_TIME_OFFSET ( 6, 0, .BEHIND. ) ;
#31 = DIRECTION ( 'NONE',  ( 0.000000000000000000, 0.000000000000000000, -1.000000000000000000 ) ) ;
#32 = ORIENTED_EDGE ( 'NONE', *, *, #511, .T. ) ;
#33 = EDGE_CURVE ( 'NONE', #757, #764, #642, .T. ) ;
#34 = VECTOR ( 'NONE', #251, 1000.000000000000000 ) ;
#35 = CARTESIAN_POINT ( 'NONE',  ( 27.00000000000000000, -11.50000000000000000, 25.99999999999999645 ) ) ;
#36 = VECTOR ( 'NONE', #1103, 1000.000000000000000 ) ;
#37 = DIRECTION ( 'NONE',  ( -0.000000000000000000, -0.000000000000000000, 1.000000000000000000 ) ) ;
#38 = AXIS2_PLACEMENT_3D ( 'NONE', #401, #886, #291 ) ;
#39 = ORIENTED_EDGE ( 'NONE', *, *, #776, .T. ) ;
#40 = PERSON_AND_ORGANIZATION ( #765, #387 ) ;
#41 = ORIENTED_EDGE ( 'NONE', *, *, #960, .T. ) ;
#42 = CC_DESIGN_PERSON_AND_ORGANIZATION_ASSIGNMENT ( #317, #1210, ( #551 ) ) ;
#43 = CARTESIAN_POINT ( 'NONE',  ( 23.00000000000000000, -15.00000000000000000, 4.000000000000000000 ) ) ;
#44 = ORIENTED_EDGE ( 'NONE', *, *, #275, .F. ) ;
#45 = DIRECTION ( 'NONE',  ( 0.000000000000000000, 0.000000000000000000, -1.000000000000000000 ) ) ;
#46 = DIRECTION ( 'NONE',  ( -1.000000000000000000, 0.000000000000000000, 0.000000000000000000 ) ) ;
#47 = ORIENTED_EDGE ( 'NONE', *, *, #713, .T. ) ;
#48 = COORDINATED_UNIVERSAL_TIME_OFFSET ( 6, 0, .BEHIND. ) ;
#49 = EDGE_CURVE ( 'NONE', #728, #70, #505, .T. ) ;
#50 = DIRECTION ( 'NONE',  ( -0.000000000000000000, -0.000000000000000000, 1.000000000000000000 ) ) ;
#51 = EDGE_CURVE ( 'NONE', #397, #697, #482, .T. ) ;
#52 = DIRECTION ( 'NONE',  ( 0.000000000000000000, 0.000000000000000000, -1.000000000000000000 ) ) ;
#53 = CIRCLE ( 'NONE', #255, 4.999999999999995559 ) ;
#54 = CARTESIAN_POINT ( 'NONE',  ( 59.70000000000000284, 11.50000000000000000, 4.000000000000000000 ) ) ;
#55 = ORIENTED_EDGE ( 'NONE', *, *, #1006, .T. ) ;
#56 = AXIS2_PLACEMENT_3D ( 'NONE', #391, #903, #595 ) ;
#57 = VECTOR ( 'NONE', #14, 1000.000000000000000 ) ;
#58 = CARTESIAN_POINT ( 'NONE',  ( 37.62052589244299838, 15.00000000000000355, 21.00000000000000000 ) ) ;
#59 = CARTESIAN_POINT ( 'NONE',  ( 58.00000000000000000, -11.50000000000000000, 8.000000000000000000 ) ) ;
#60 = EDGE_CURVE ( 'NONE', #373, #922, #808, .T. ) ;
#61 = FACE_OUTER_BOUND ( 'NONE', #226, .T. ) ;
#62 = LINE ( 'NONE', #229, #1113 ) ;
#63 = ORIENTED_EDGE ( 'NONE', *, *, #1252, .T. ) ;
#64 = DIRECTION ( 'NONE',  ( 0.000000000000000000, 0.000000000000000000, -1.000000000000000000 ) ) ;
#65 = FACE_OUTER_BOUND ( 'NONE', #1217, .T. ) ;
#66 = PRODUCT_RELATED_PRODUCT_CATEGORY ( 'detail', '', ( #461 ) ) ;
#67 = CARTESIAN_POINT ( 'NONE',  ( 37.62052589244299838, 15.00000000000000355, 23.15000000000000213 ) ) ;
#68 = EDGE_CURVE ( 'NONE', #290, #1248, #1220, .T. ) ;
#69 = CARTESIAN_POINT ( 'NONE',  ( 28.69999999999999929, 11.50000000000000000, 25.99999999999999645 ) ) ;
#70 = VERTEX_POINT ( 'NONE', #344 ) ;
#71 = DIRECTION ( 'NONE',  ( 0.000000000000000000, -1.000000000000000000, 0.000000000000000000 ) ) ;
#72 = DIRECTION ( 'NONE',  ( 0.000000000000000000, 0.000000000000000000, -1.000000000000000000 ) ) ;
#73 = LINE ( 'NONE', #152, #910 ) ;
#74 = CC_DESIGN_DATE_AND_TIME_ASSIGNMENT ( #303, #986, ( #844 ) ) ;
#75 = DIRECTION ( 'NONE',  ( -0.000000000000000000, -0.000000000000000000, 1.000000000000000000 ) ) ;
#76 = ORIENTED_EDGE ( 'NONE', *, *, #392, .F. ) ;
#77 = AXIS2_PLACEMENT_3D ( 'NONE', #828, #745, #640 ) ;
#78 = FACE_OUTER_BOUND ( 'NONE', #894, .T. ) ;
#79 = AXIS2_PLACEMENT_3D ( 'NONE', #568, #85, #473 ) ;
#80 = CARTESIAN_POINT ( 'NONE',  ( 32.62052589244299838, -14.19999999999999929, 21.00000000000000000 ) ) ;
#81 = VECTOR ( 'NONE', #1179, 1000.000000000000000 ) ;
#82 = CARTESIAN_POINT ( 'NONE',  ( 42.62052589244299838, 10.19999999999999929, 15.71293199324855294 ) ) ;
#83 = FACE_BOUND ( 'NONE', #1243, .T. ) ;
#84 = EDGE_LOOP ( 'NONE', ( #194, #115 ) ) ;
#85 = DIRECTION ( 'NONE',  ( -0.000000000000000000, -1.000000000000000000, -0.000000000000000000 ) ) ;
#86 = ORIENTED_EDGE ( 'NONE', *, *, #960, .F. ) ;
#87 = DIRECTION ( 'NONE',  ( -0.000000000000000000, -0.000000000000000000, 1.000000000000000000 ) ) ;
#88 = CARTESIAN_POINT ( 'NONE',  ( 32.62052589244299838, 14.19999999999999929, 21.00000000000000000 ) ) ;
#89 = ORIENTED_EDGE ( 'NONE', *, *, #829, .T. ) ;
#90 = PLANE ( 'NONE',  #971 ) ;
#91 = ORIENTED_EDGE ( 'NONE', *, *, #885, .T. ) ;
#92 = ADVANCED_FACE ( 'NONE', ( #856, #862, #1025 ), #740, .T. ) ;
#93 = CARTESIAN_POINT ( 'NONE',  ( 37.62052589244299838, 14.19999999999999929, 21.00000000000000000 ) ) ;
#94 = EDGE_LOOP ( 'NONE', ( #337, #63 ) ) ;
#95 = DIRECTION ( 'NONE',  ( -0.000000000000000000, -0.000000000000000000, 1.000000000000000000 ) ) ;
#96 = ORIENTED_EDGE ( 'NONE', *, *, #867, .F. ) ;
#97 = AXIS2_PLACEMENT_3D ( 'NONE', #375, #766, #1124 ) ;
#98 = VECTOR ( 'NONE', #1074, 1000.000000000000000 ) ;
#99 = CIRCLE ( 'NONE', #1193, 1.700000000000000178 ) ;
#100 = AXIS2_PLACEMENT_3D ( 'NONE', #1184, #881, #514 ) ;
#101 = CARTESIAN_POINT ( 'NONE',  ( 62.00000000000000000, -15.00000000000000000, 4.000000000000000000 ) ) ;
#102 = DIRECTION ( 'NONE',  ( 0.000000000000000000, 0.000000000000000000, -1.000000000000000000 ) ) ;
#103 = CYLINDRICAL_SURFACE ( 'NONE', #1251, 1.700000000000000178 ) ;
#104 = EDGE_LOOP ( 'NONE', ( #110, #1021, #826, #188 ) ) ;
#105 = CC_DESIGN_SECURITY_CLASSIFICATION ( #551, ( #715 ) ) ;
#106 = EDGE_CURVE ( 'NONE', #759, #1081, #11, .T. ) ;
#107 = DIRECTION ( 'NONE',  ( 0.000000000000000000, -1.000000000000000000, 0.000000000000000000 ) ) ;
#108 = EDGE_CURVE ( 'NONE', #359, #29, #734, .T. ) ;
#109 = LINE ( 'NONE', #1098, #98 ) ;
#110 = ORIENTED_EDGE ( 'NONE', *, *, #108, .F. ) ;
#111 = DIRECTION ( 'NONE',  ( 0.000000000000000000, 0.000000000000000000, -1.000000000000000000 ) ) ;
#112 = FACE_OUTER_BOUND ( 'NONE', #611, .T. ) ;
#113 = EDGE_CURVE ( 'NONE', #697, #397, #212, .T. ) ;
#114 = CARTESIAN_POINT ( 'NONE',  ( 42.62052589244299838, 14.19999999999999929, 21.00000000000000000 ) ) ;
#115 = ORIENTED_EDGE ( 'NONE', *, *, #876, .F. ) ;
#116 = APPLICATION_CONTEXT ( 'configuration controlled 3d designs of mechanical parts and assemblies' ) ;
#117 = VECTOR ( 'NONE', #1244, 1000.000000000000000 ) ;
#118 = EDGE_LOOP ( 'NONE', ( #800, #365, #128, #694 ) ) ;
#119 = VECTOR ( 'NONE', #1116, 1000.000000000000000 ) ;
#120 = CYLINDRICAL_SURFACE ( 'NONE', #873, 1.700000000000000178 ) ;
#121 = CARTESIAN_POINT ( 'NONE',  ( 62.00000000000000000, -15.00000000000000000, 8.000000000000000000 ) ) ;
#122 = ORIENTED_EDGE ( 'NONE', *, *, #792, .T. ) ;
#123 = ADVANCED_FACE ( 'NONE', ( #542, #1226, #1125, #1040, #173 ), #1241, .T. ) ;
#124 = CARTESIAN_POINT ( 'NONE',  ( 62.00000000000000000, 15.00000000000000000, 8.000000000000000000 ) ) ;
#125 = ORIENTED_EDGE ( 'NONE', *, *, #392, .T. ) ;
#126 = LINE ( 'NONE', #199, #57 ) ;
#127 = DIRECTION ( 'NONE',  ( -1.000000000000000000, 0.000000000000000000, 0.000000000000000000 ) ) ;
#128 = ORIENTED_EDGE ( 'NONE', *, *, #1221, .T. ) ;
#129 = EDGE_CURVE ( 'NONE', #1248, #140, #927, .T. ) ;
#130 = CARTESIAN_POINT ( 'NONE',  ( 37.62052589244299838, -10.19999999999999751, 23.15000000000000213 ) ) ;
#131 = VERTEX_POINT ( 'NONE', #247 ) ;
#132 = DIRECTION ( 'NONE',  ( -1.000000000000000000, 0.000000000000000000, 0.000000000000000000 ) ) ;
#133 = CYLINDRICAL_SURFACE ( 'NONE', #319, 2.149999999999999023 ) ;
#134 = ORIENTED_EDGE ( 'NONE', *, *, #673, .F. ) ;
#135 = ORIENTED_EDGE ( 'NONE', *, *, #108, .T. ) ;
#136 = PRODUCT_DEFINITION_SHAPE ( 'NONE', 'NONE',  #844 ) ;
#137 = VECTOR ( 'NONE', #633, 1000.000000000000000 ) ;
#138 = CIRCLE ( 'NONE', #851, 1.700000000000000178 ) ;
#139 = CARTESIAN_POINT ( 'NONE',  ( 28.69999999999999929, -11.50000000000000000, 4.000000000000000000 ) ) ;
#140 = VERTEX_POINT ( 'NONE', #755 ) ;
#141 = ORIENTED_EDGE ( 'NONE', *, *, #445, .T. ) ;
#142 = LOCAL_TIME ( 15, 1, 20.00000000000000000, #48 ) ;
#143 = FACE_OUTER_BOUND ( 'NONE', #614, .T. ) ;
#144 = VERTEX_POINT ( 'NONE', #555 ) ;
#145 = FACE_OUTER_BOUND ( 'NONE', #118, .T. ) ;
#146 = ORIENTED_EDGE ( 'NONE', *, *, #885, .F. ) ;
#147 = LINE ( 'NONE', #256, #36 ) ;
#148 = EDGE_CURVE ( 'NONE', #279, #764, #376, .T. ) ;
#149 = EDGE_LOOP ( 'NONE', ( #608, #546 ) ) ;
#150 = CARTESIAN_POINT ( 'NONE',  ( 23.00000000000000000, 15.00000000000000000, 4.000000000000000000 ) ) ;
#151 = DIRECTION ( 'NONE',  ( 0.000000000000000000, 0.000000000000000000, -1.000000000000000000 ) ) ;
#152 = CARTESIAN_POINT ( 'NONE',  ( 32.62052589244299838, -10.19999999999999929, 8.000000000000000000 ) ) ;
#153 = VECTOR ( 'NONE', #45, 1000.000000000000000 ) ;
#154 = CIRCLE ( 'NONE', #12, 4.999999999999997335 ) ;
#155 = CARTESIAN_POINT ( 'NONE',  ( 58.00000000000000000, 11.50000000000000000, 4.000000000000000000 ) ) ;
#156 = ORIENTED_EDGE ( 'NONE', *, *, #398, .F. ) ;
#157 = AXIS2_PLACEMENT_3D ( 'NONE', #1161, #963, #287 ) ;
#158 = VECTOR ( 'NONE', #801, 1000.000000000000000 ) ;
#159 = DIRECTION ( 'NONE',  ( 1.000000000000000000, 0.000000000000000000, 0.000000000000000000 ) ) ;
#160 = DIRECTION ( 'NONE',  ( -1.000000000000000000, -0.000000000000000000, -0.000000000000000000 ) ) ;
#161 = EDGE_CURVE ( 'NONE', #479, #283, #73, .T. ) ;
#162 = CARTESIAN_POINT ( 'NONE',  ( 58.00000000000000000, -11.50000000000000000, 8.000000000000000000 ) ) ;
#163 = LINE ( 'NONE', #69, #1234 ) ;
#164 = VERTEX_POINT ( 'NONE', #1045 ) ;
#165 = LINE ( 'NONE', #124, #913 ) ;
#166 = DIRECTION ( 'NONE',  ( 0.000000000000000000, -1.000000000000000000, 0.000000000000000000 ) ) ;
#167 = EDGE_CURVE ( 'NONE', #772, #1102, #541, .T. ) ;
#168 = DIRECTION ( 'NONE',  ( 0.000000000000000000, 0.000000000000000000, -1.000000000000000000 ) ) ;
#169 = DIRECTION ( 'NONE',  ( -0.000000000000000000, -1.000000000000000000, -0.000000000000000000 ) ) ;
#170 = ORIENTED_EDGE ( 'NONE', *, *, #331, .F. ) ;
#171 = DIRECTION ( 'NONE',  ( 0.000000000000000000, 1.000000000000000000, 0.000000000000000000 ) ) ;
#172 = PLANE ( 'NONE',  #506 ) ;
#173 = FACE_OUTER_BOUND ( 'NONE', #498, .T. ) ;
#174 = LINE ( 'NONE', #470, #1131 ) ;
#175 = ORIENTED_EDGE ( 'NONE', *, *, #726, .T. ) ;
#176 = VECTOR ( 'NONE', #356, 1000.000000000000000 ) ;
#177 = CARTESIAN_POINT ( 'NONE',  ( 42.62052589244299128, -10.19999999999999929, 21.00000000000000000 ) ) ;
#178 = VECTOR ( 'NONE', #160, 1000.000000000000000 ) ;
#179 = VERTEX_POINT ( 'NONE', #1052 ) ;
#180 = AXIS2_PLACEMENT_3D ( 'NONE', #1156, #583, #973 ) ;
#181 = CARTESIAN_POINT ( 'NONE',  ( 27.00000000000000000, 11.50000000000000000, 4.000000000000000000 ) ) ;
#182 = LINE ( 'NONE', #88, #769 ) ;
#183 = VERTEX_POINT ( 'NONE', #82 ) ;
#184 = ADVANCED_FACE ( 'NONE', ( #61 ), #446, .F. ) ;
#185 = DIRECTION ( 'NONE',  ( 0.000000000000000000, 0.000000000000000000, -1.000000000000000000 ) ) ;
#186 = ORIENTED_EDGE ( 'NONE', *, *, #770, .T. ) ;
#187 = DIRECTION ( 'NONE',  ( 0.000000000000000000, 0.000000000000000000, -1.000000000000000000 ) ) ;
#188 = ORIENTED_EDGE ( 'NONE', *, *, #702, .F. ) ;
#189 = ADVANCED_FACE ( 'NONE', ( #1152, #285, #1246 ), #670, .F. ) ;
#190 = DIRECTION ( 'NONE',  ( 0.000000000000000000, 0.000000000000000000, -1.000000000000000000 ) ) ;
#191 = ORIENTED_EDGE ( 'NONE', *, *, #770, .F. ) ;
#192 = DIRECTION ( 'NONE',  ( 0.000000000000000000, 0.000000000000000000, -1.000000000000000000 ) ) ;
#193 = DIRECTION ( 'NONE',  ( 0.000000000000000000, 0.000000000000000000, -1.000000000000000000 ) ) ;
#194 = ORIENTED_EDGE ( 'NONE', *, *, #931, .F. ) ;
#195 = AXIS2_PLACEMENT_3D ( 'NONE', #181, #933, #760 ) ;
#196 = CIRCLE ( 'NONE', #484, 2.149999999999999023 ) ;
#197 = EDGE_CURVE ( 'NONE', #409, #29, #723, .T. ) ;
#198 = VECTOR ( 'NONE', #509, 1000.000000000000000 ) ;
#199 = CARTESIAN_POINT ( 'NONE',  ( 56.30000000000000426, 11.50000000000000000, 25.99999999999999645 ) ) ;
#200 = CARTESIAN_POINT ( 'NONE',  ( 37.62052589244299838, -14.20000000000000107, 21.00000000000000000 ) ) ;
#201 = ORIENTED_EDGE ( 'NONE', *, *, #1138, .T. ) ;
#202 = EDGE_CURVE ( 'NONE', #860, #996, #868, .T. ) ;
#203 = PERSON_AND_ORGANIZATION ( #765, #387 ) ;
#204 = DIRECTION ( 'NONE',  ( 0.000000000000000000, 0.000000000000000000, 1.000000000000000000 ) ) ;
#205 = LINE ( 'NONE', #1078, #213 ) ;
#206 = ORIENTED_EDGE ( 'NONE', *, *, #954, .T. ) ;
#207 = ORIENTED_EDGE ( 'NONE', *, *, #1015, .T. ) ;
#208 = DIRECTION ( 'NONE',  ( 0.000000000000000000, 1.000000000000000000, 0.000000000000000000 ) ) ;
#209 = EDGE_CURVE ( 'NONE', #922, #373, #969, .T. ) ;
#210 = CARTESIAN_POINT ( 'NONE',  ( 51.82052589244400309, -14.19999999999999929, 13.00000000000000000 ) ) ;
#211 = ORIENTED_EDGE ( 'NONE', *, *, #931, .T. ) ;
#212 = CIRCLE ( 'NONE', #276, 1.700000000000000178 ) ;
#213 = VECTOR ( 'NONE', #809, 1000.000000000000000 ) ;
#214 = APPROVAL_DATE_TIME ( #311, #1106 ) ;
#215 = AXIS2_PLACEMENT_3D ( 'NONE', #1191, #208, #204 ) ;
#216 = CARTESIAN_POINT ( 'NONE',  ( 37.62052589244299838, -14.20000000000000107, 23.15000000000000213 ) ) ;
#217 = AXIS2_PLACEMENT_3D ( 'NONE', #304, #395, #218 ) ;
#218 = DIRECTION ( 'NONE',  ( 0.000000000000000000, 0.000000000000000000, -1.000000000000000000 ) ) ;
#219 = DIRECTION ( 'NONE',  ( 0.000000000000000000, 0.000000000000000000, -1.000000000000000000 ) ) ;
#220 = ADVANCED_FACE ( 'NONE', ( #948 ), #1205, .F. ) ;
#221 = ORIENTED_EDGE ( 'NONE', *, *, #752, .F. ) ;
#222 = DIRECTION ( 'NONE',  ( 1.000000000000000000, -0.000000000000000000, 0.000000000000000000 ) ) ;
#223 = ORIENTED_EDGE ( 'NONE', *, *, #630, .T. ) ;
#224 = CARTESIAN_POINT ( 'NONE',  ( 42.62052589244299838, -14.19999999999999929, 21.00000000000000000 ) ) ;
#225 = CARTESIAN_POINT ( 'NONE',  ( 46.82052589244400309, -14.19999999999999929, 13.00000000000000000 ) ) ;
#226 = EDGE_LOOP ( 'NONE', ( #1095, #1037, #672, #887 ) ) ;
#227 = SHAPE_DEFINITION_REPRESENTATION ( #136, #794 ) ;
#228 = ORIENTED_EDGE ( 'NONE', *, *, #385, .T. ) ;
#229 = CARTESIAN_POINT ( 'NONE',  ( 42.62052589244299838, 10.19999999999999929, 21.00000000000000000 ) ) ;
#230 = ORIENTED_EDGE ( 'NONE', *, *, #735, .F. ) ;
#231 = ADVANCED_FACE ( 'NONE', ( #145 ), #349, .F. ) ;
#232 = ORIENTED_EDGE ( 'NONE', *, *, #445, .F. ) ;
#233 = AXIS2_PLACEMENT_3D ( 'NONE', #328, #530, #52 ) ;
#234 = AXIS2_PLACEMENT_3D ( 'NONE', #758, #271, #661 ) ;
#235 = ADVANCED_FACE ( 'NONE', ( #1024 ), #1018, .F. ) ;
#236 = AXIS2_PLACEMENT_3D ( 'NONE', #237, #825, #1207 ) ;
#237 = CARTESIAN_POINT ( 'NONE',  ( 37.62052589244299838, -10.19999999999999751, 21.00000000000000000 ) ) ;
#238 = ORIENTED_EDGE ( 'NONE', *, *, #1063, .T. ) ;
#239 = DIRECTION ( 'NONE',  ( 0.000000000000000000, 0.000000000000000000, 1.000000000000000000 ) ) ;
#240 = ORIENTED_EDGE ( 'NONE', *, *, #994, .F. ) ;
#241 = LOCAL_TIME ( 15, 1, 20.00000000000000000, #798 ) ;
#242 = ADVANCED_FACE ( 'NONE', ( #335 ), #937, .F. ) ;
#243 = FACE_OUTER_BOUND ( 'NONE', #341, .T. ) ;
#244 = VERTEX_POINT ( 'NONE', #80 ) ;
#245 = DIRECTION ( 'NONE',  ( 0.000000000000000000, 0.000000000000000000, -1.000000000000000000 ) ) ;
#246 = DIRECTION ( 'NONE',  ( 0.000000000000000000, -1.000000000000000000, 0.000000000000000000 ) ) ;
#247 = CARTESIAN_POINT ( 'NONE',  ( 32.62052589244299838, 10.19999999999999929, 21.00000000000000000 ) ) ;
#248 = DIRECTION ( 'NONE',  ( -0.000000000000000000, -0.000000000000000000, 1.000000000000000000 ) ) ;
#249 = ORIENTED_EDGE ( 'NONE', *, *, #1144, .F. ) ;
#250 = ADVANCED_FACE ( 'NONE', ( #628 ), #1137, .T. ) ;
#251 = DIRECTION ( 'NONE',  ( 0.000000000000000000, 0.000000000000000000, -1.000000000000000000 ) ) ;
#252 = DIRECTION ( 'NONE',  ( -0.000000000000000000, -0.000000000000000000, 1.000000000000000000 ) ) ;
#253 = DIRECTION ( 'NONE',  ( -0.000000000000000000, -0.000000000000000000, 1.000000000000000000 ) ) ;
#254 = AXIS2_PLACEMENT_3D ( 'NONE', #570, #837, #957 ) ;
#255 = AXIS2_PLACEMENT_3D ( 'NONE', #225, #404, #8 ) ;
#256 = CARTESIAN_POINT ( 'NONE',  ( 32.62052589244299838, 14.19999999999999929, 8.000000000000000000 ) ) ;
#257 = ORIENTED_EDGE ( 'NONE', *, *, #601, .T. ) ;
#258 = VECTOR ( 'NONE', #1216, 1000.000000000000000 ) ;
#259 = ADVANCED_FACE ( 'NONE', ( #65 ), #539, .F. ) ;
#260 = CIRCLE ( 'NONE', #588, 2.149999999999999023 ) ;
#261 = CARTESIAN_POINT ( 'NONE',  ( 23.00000000000000000, 15.00000000000000000, 8.000000000000000000 ) ) ;
#262 = CARTESIAN_POINT ( 'NONE',  ( 37.62052589244299838, -14.20000000000000107, 21.00000000000000000 ) ) ;
#263 = DIRECTION ( 'NONE',  ( 0.000000000000000000, -1.000000000000000000, 0.000000000000000000 ) ) ;
#264 = LINE ( 'NONE', #1146, #1171 ) ;
#265 = ORIENTED_EDGE ( 'NONE', *, *, #374, .F. ) ;
#266 = CARTESIAN_POINT ( 'NONE',  ( 23.00000000000000000, -15.00000000000000000, 8.000000000000000000 ) ) ;
#267 = DIRECTION ( 'NONE',  ( -1.000000000000000000, 0.000000000000000000, 0.000000000000000000 ) ) ;
#268 = DIRECTION ( 'NONE',  ( -1.000000000000000000, 0.000000000000000000, -0.000000000000000000 ) ) ;
#269 = CARTESIAN_POINT ( 'NONE',  ( 46.82052589244400309, -10.19999999999999751, 15.14999999999999858 ) ) ;
#270 = VERTEX_POINT ( 'NONE', #548 ) ;
#271 = DIRECTION ( 'NONE',  ( -1.000000000000000000, 0.000000000000000000, 0.000000000000000000 ) ) ;
#272 = ORIENTED_EDGE ( 'NONE', *, *, #620, .T. ) ;
#273 = DIRECTION ( 'NONE',  ( -0.000000000000000000, -0.000000000000000000, 1.000000000000000000 ) ) ;
#274 = ADVANCED_FACE ( 'NONE', ( #355, #1044, #923 ), #1130, .T. ) ;
#275 = EDGE_CURVE ( 'NONE', #1183, #283, #1118, .T. ) ;
#276 = AXIS2_PLACEMENT_3D ( 'NONE', #939, #453, #843 ) ;
#277 = MANIFOLD_SOLID_BREP ( 'Four_M3_removable_deck_bolts', #1051 ) ;
#278 = LINE ( 'NONE', #577, #972 ) ;
#279 = VERTEX_POINT ( 'NONE', #943 ) ;
#280 = AXIS2_PLACEMENT_3D ( 'NONE', #550, #273, #562 ) ;
#281 = LINE ( 'NONE', #478, #850 ) ;
#282 = VECTOR ( 'NONE', #668, 1000.000000000000000 ) ;
#283 = VERTEX_POINT ( 'NONE', #1233 ) ;
#284 = VECTOR ( 'NONE', #565, 1000.000000000000000 ) ;
#285 = FACE_BOUND ( 'NONE', #1195, .T. ) ;
#286 = EDGE_CURVE ( 'NONE', #1223, #279, #343, .T. ) ;
#287 = DIRECTION ( 'NONE',  ( -1.000000000000000000, 0.000000000000000000, 0.000000000000000000 ) ) ;
#288 = ORIENTED_EDGE ( 'NONE', *, *, #658, .T. ) ;
#289 = DIRECTION ( 'NONE',  ( 0.000000000000000000, -0.000000000000000000, 1.000000000000000000 ) ) ;
#290 = VERTEX_POINT ( 'NONE', #444 ) ;
#291 = DIRECTION ( 'NONE',  ( -1.000000000000000000, 0.000000000000000000, 0.000000000000000000 ) ) ;
#292 = CYLINDRICAL_SURFACE ( 'NONE', #157, 1.700000000000000178 ) ;
#293 = EDGE_LOOP ( 'NONE', ( #1135, #730 ) ) ;
#294 = CARTESIAN_POINT ( 'NONE',  ( 23.00000000000000000, -15.00000000000000000, 8.000000000000000000 ) ) ;
#295 = EDGE_CURVE ( 'NONE', #1027, #532, #154, .T. ) ;
#296 = ORIENTED_EDGE ( 'NONE', *, *, #464, .T. ) ;
#297 = DIRECTION ( 'NONE',  ( 0.000000000000000000, 0.000000000000000000, -1.000000000000000000 ) ) ;
#298 = LINE ( 'NONE', #983, #158 ) ;
#299 = DIRECTION ( 'NONE',  ( 0.000000000000000000, 0.000000000000000000, -1.000000000000000000 ) ) ;
#300 = ORIENTED_EDGE ( 'NONE', *, *, #1120, .T. ) ;
#301 = CC_DESIGN_PERSON_AND_ORGANIZATION_ASSIGNMENT ( #590, #598, ( #844 ) ) ;
#302 = CIRCLE ( 'NONE', #586, 2.149999999999999023 ) ;
#303 = DATE_AND_TIME ( #978, #447 ) ;
#304 = CARTESIAN_POINT ( 'NONE',  ( 46.82052589244400309, 14.19999999999999929, 13.00000000000000000 ) ) ;
#305 = CARTESIAN_POINT ( 'NONE',  ( 46.82052589244400309, 14.19999999999999929, 13.00000000000000000 ) ) ;
#306 = ORIENTED_EDGE ( 'NONE', *, *, #867, .T. ) ;
#307 = ORIENTED_EDGE ( 'NONE', *, *, #17, .T. ) ;
#308 = FACE_BOUND ( 'NONE', #84, .T. ) ;
#309 = CARTESIAN_POINT ( 'NONE',  ( 25.30000000000000071, -11.50000000000000000, 8.000000000000000000 ) ) ;
#310 = ORIENTED_EDGE ( 'NONE', *, *, #148, .T. ) ;
#311 = DATE_AND_TIME ( #1182, #241 ) ;
#312 = ORIENTED_EDGE ( 'NONE', *, *, #735, .T. ) ;
#313 = ADVANCED_FACE ( 'NONE', ( #1219 ), #172, .F. ) ;
#314 = PLANE ( 'NONE',  #749 ) ;
#315 = DIRECTION ( 'NONE',  ( -0.000000000000000000, -1.000000000000000000, -0.000000000000000000 ) ) ;
#316 = ORIENTED_EDGE ( 'NONE', *, *, #398, .T. ) ;
#317 = PERSON_AND_ORGANIZATION ( #765, #387 ) ;
#318 = AXIS2_PLACEMENT_3D ( 'NONE', #842, #754, #436 ) ;
#319 = AXIS2_PLACEMENT_3D ( 'NONE', #596, #21, #325 ) ;
#320 = CARTESIAN_POINT ( 'NONE',  ( 37.62052589244299838, -14.20000000000000107, 18.85000000000000142 ) ) ;
#321 = AXIS2_PLACEMENT_3D ( 'NONE', #741, #46, #1126 ) ;
#322 = ORIENTED_EDGE ( 'NONE', *, *, #767, .T. ) ;
#323 = AXIS2_PLACEMENT_3D ( 'NONE', #695, #107, #896 ) ;
#324 = CYLINDRICAL_SURFACE ( 'NONE', #56, 1.700000000000000178 ) ;
#325 = DIRECTION ( 'NONE',  ( 0.000000000000000000, 0.000000000000000000, -1.000000000000000000 ) ) ;
#326 = VERTEX_POINT ( 'NONE', #415 ) ;
#327 = CYLINDRICAL_SURFACE ( 'NONE', #768, 2.149999999999999023 ) ;
#328 = CARTESIAN_POINT ( 'NONE',  ( 37.62052589244299838, 14.19999999999999929, 21.00000000000000000 ) ) ;
#329 = DIRECTION ( 'NONE',  ( 0.000000000000000000, 0.000000000000000000, -1.000000000000000000 ) ) ;
#330 = ORIENTED_EDGE ( 'NONE', *, *, #9, .F. ) ;
#331 = EDGE_CURVE ( 'NONE', #905, #367, #1030, .T. ) ;
#332 = ORIENTED_EDGE ( 'NONE', *, *, #197, .F. ) ;
#333 = LINE ( 'NONE', #1109, #871 ) ;
#334 = ORIENTED_EDGE ( 'NONE', *, *, #286, .F. ) ;
#335 = FACE_OUTER_BOUND ( 'NONE', #818, .T. ) ;
#336 = ADVANCED_FACE ( 'NONE', ( #1101 ), #327, .F. ) ;
#337 = ORIENTED_EDGE ( 'NONE', *, *, #49, .T. ) ;
#338 = VECTOR ( 'NONE', #246, 1000.000000000000000 ) ;
#339 = AXIS2_PLACEMENT_3D ( 'NONE', #602, #219, #911 ) ;
#340 = LINE ( 'NONE', #729, #119 ) ;
#341 = EDGE_LOOP ( 'NONE', ( #987, #1141, #22, #455 ) ) ;
#342 = PERSON_AND_ORGANIZATION ( #765, #387 ) ;
#343 = LINE ( 'NONE', #930, #338 ) ;
#344 = CARTESIAN_POINT ( 'NONE',  ( 59.70000000000000284, -11.50000000000000000, 4.000000000000000000 ) ) ;
#345 = ADVANCED_FACE ( 'NONE', ( #709 ), #1187, .F. ) ;
#346 = CARTESIAN_POINT ( 'NONE',  ( 37.62052589244299838, 10.19999999999999929, 23.15000000000000213 ) ) ;
#347 = ORIENTED_EDGE ( 'NONE', *, *, #351, .T. ) ;
#348 = CARTESIAN_POINT ( 'NONE',  ( 37.62052589244299838, 10.19999999999999929, 21.00000000000000000 ) ) ;
#349 = PLANE ( 'NONE',  #318 ) ;
#350 = DIRECTION ( 'NONE',  ( 0.000000000000000000, 0.000000000000000000, -1.000000000000000000 ) ) ;
#351 = EDGE_CURVE ( 'NONE', #764, #279, #196, .T. ) ;
#352 = DIRECTION ( 'NONE',  ( 0.000000000000000000, 0.000000000000000000, -1.000000000000000000 ) ) ;
#353 = EDGE_LOOP ( 'NONE', ( #762, #1075 ) ) ;
#354 = CARTESIAN_POINT ( 'NONE',  ( 59.70000000000000284, -11.50000000000000000, 25.99999999999999645 ) ) ;
#355 = FACE_BOUND ( 'NONE', #419, .T. ) ;
#356 = DIRECTION ( 'NONE',  ( 0.000000000000000000, -1.000000000000000000, 0.000000000000000000 ) ) ;
#357 = AXIS2_PLACEMENT_3D ( 'NONE', #547, #71, #456 ) ;
#358 = DIRECTION ( 'NONE',  ( 0.000000000000000000, 0.000000000000000000, -1.000000000000000000 ) ) ;
#359 = VERTEX_POINT ( 'NONE', #130 ) ;
#360 = VECTOR ( 'NONE', #187, 1000.000000000000000 ) ;
#361 = CARTESIAN_POINT ( 'NONE',  ( 56.30000000000000426, -11.50000000000000000, 8.000000000000000000 ) ) ;
#362 = DIRECTION ( 'NONE',  ( 0.000000000000000000, 0.000000000000000000, 1.000000000000000000 ) ) ;
#363 = CARTESIAN_POINT ( 'NONE',  ( 46.82052589244400309, 10.19999999999999929, 13.00000000000000000 ) ) ;
#364 = CARTESIAN_POINT ( 'NONE',  ( 0.000000000000000000, 0.000000000000000000, 8.000000000000000000 ) ) ;
#365 = ORIENTED_EDGE ( 'NONE', *, *, #581, .F. ) ;
#366 = PLANE ( 'NONE',  #234 ) ;
#367 = VERTEX_POINT ( 'NONE', #451 ) ;
#368 = EDGE_CURVE ( 'NONE', #922, #70, #443, .T. ) ;
#369 = CARTESIAN_POINT ( 'NONE',  ( 0.000000000000000000, 10.19999999999999929, 0.000000000000000000 ) ) ;
#370 = DIRECTION ( 'NONE',  ( 0.000000000000000000, 0.000000000000000000, 1.000000000000000000 ) ) ;
#371 = EDGE_LOOP ( 'NONE', ( #834, #442, #1115, #1228 ) ) ;
#372 = CARTESIAN_POINT ( 'NONE',  ( 37.62052589244299838, 14.19999999999999929, 21.00000000000000000 ) ) ;
#373 = VERTEX_POINT ( 'NONE', #361 ) ;
#374 = EDGE_CURVE ( 'NONE', #283, #244, #804, .T. ) ;
#375 = CARTESIAN_POINT ( 'NONE',  ( 0.000000000000000000, 14.19999999999999929, 0.000000000000000000 ) ) ;
#376 = CIRCLE ( 'NONE', #641, 2.149999999999999023 ) ;
#377 = FACE_OUTER_BOUND ( 'NONE', #432, .T. ) ;
#378 = VERTEX_POINT ( 'NONE', #901 ) ;
#379 = VECTOR ( 'NONE', #1043, 1000.000000000000000 ) ;
#380 = DIRECTION ( 'NONE',  ( 0.000000000000000000, 1.000000000000000000, 0.000000000000000000 ) ) ;
#381 = AXIS2_PLACEMENT_3D ( 'NONE', #591, #989, #403 ) ;
#382 = VERTEX_POINT ( 'NONE', #1218 ) ;
#383 = AXIS2_PLACEMENT_3D ( 'NONE', #35, #424, #132 ) ;
#384 = CARTESIAN_POINT ( 'NONE',  ( 42.62052589244299838, -10.19999999999999929, 21.00000000000000000 ) ) ;
#385 = EDGE_CURVE ( 'NONE', #1143, #140, #744, .T. ) ;
#386 = CARTESIAN_POINT ( 'NONE',  ( 59.70000000000000284, -11.50000000000000000, 8.000000000000000000 ) ) ;
#387 = ORGANIZATION ( 'UNSPECIFIED', 'UNSPECIFIED', '' ) ;
#388 = DIRECTION ( 'NONE',  ( -0.000000000000000000, -1.000000000000000000, -0.000000000000000000 ) ) ;
#389 = ORIENTED_EDGE ( 'NONE', *, *, #9, .T. ) ;
#390 = MECHANICAL_CONTEXT ( 'NONE', #116, 'mechanical' ) ;
#391 = CARTESIAN_POINT ( 'NONE',  ( 27.00000000000000000, -11.50000000000000000, 25.99999999999999645 ) ) ;
#392 = EDGE_CURVE ( 'NONE', #378, #759, #835, .T. ) ;
#393 = FACE_OUTER_BOUND ( 'NONE', #437, .T. ) ;
#394 = ORIENTED_EDGE ( 'NONE', *, *, #1090, .F. ) ;
#395 = DIRECTION ( 'NONE',  ( -0.000000000000000000, 1.000000000000000000, -0.000000000000000000 ) ) ;
#396 = DIRECTION ( 'NONE',  ( 0.000000000000000000, 0.000000000000000000, -1.000000000000000000 ) ) ;
#397 = VERTEX_POINT ( 'NONE', #1196 ) ;
#398 = EDGE_CURVE ( 'NONE', #1214, #962, #165, .T. ) ;
#399 = AXIS2_PLACEMENT_3D ( 'NONE', #452, #1225, #1039 ) ;
#400 = AXIS2_PLACEMENT_3D ( 'NONE', #671, #572, #102 ) ;
#401 = CARTESIAN_POINT ( 'NONE',  ( 58.00000000000000000, -11.50000000000000000, 4.000000000000000000 ) ) ;
#402 = ORIENTED_EDGE ( 'NONE', *, *, #838, .T. ) ;
#403 = DIRECTION ( 'NONE',  ( 0.000000000000000000, 0.000000000000000000, 1.000000000000000000 ) ) ;
#404 = DIRECTION ( 'NONE',  ( 0.000000000000000000, 1.000000000000000000, 0.000000000000000000 ) ) ;
#405 = ORIENTED_EDGE ( 'NONE', *, *, #822, .F. ) ;
#406 = APPROVAL_PERSON_ORGANIZATION ( #893, #1106, #18 ) ;
#407 = EDGE_CURVE ( 'NONE', #536, #552, #553, .T. ) ;
#408 = APPROVAL_STATUS ( 'not_yet_approved' ) ;
#409 = VERTEX_POINT ( 'NONE', #320 ) ;
#410 = CARTESIAN_POINT ( 'NONE',  ( 46.82052589244400309, 14.19999999999999929, 13.00000000000000000 ) ) ;
#411 = CARTESIAN_POINT ( 'NONE',  ( 51.82052589244400309, -10.19999999999999929, 13.00000000000000000 ) ) ;
#412 = ORIENTED_EDGE ( 'NONE', *, *, #1213, .F. ) ;
#413 = DATE_AND_TIME ( #623, #732 ) ;
#414 = ADVANCED_FACE ( 'NONE', ( #1023 ), #1001, .F. ) ;
#415 = CARTESIAN_POINT ( 'NONE',  ( 42.62052589244299838, 14.19999999999999929, 15.71293199324855294 ) ) ;
#416 = ORIENTED_EDGE ( 'NONE', *, *, #612, .T. ) ;
#417 = DIRECTION ( 'NONE',  ( 0.000000000000000000, 1.000000000000000000, 0.000000000000000000 ) ) ;
#418 = FACE_OUTER_BOUND ( 'NONE', #1202, .T. ) ;
#419 = EDGE_LOOP ( 'NONE', ( #1204, #504 ) ) ;
#420 = LINE ( 'NONE', #773, #117 ) ;
#421 = CIRCLE ( 'NONE', #180, 1.700000000000000178 ) ;
#422 = ORIENTED_EDGE ( 'NONE', *, *, #612, .F. ) ;
#423 = VECTOR ( 'NONE', #111, 1000.000000000000000 ) ;
#424 = DIRECTION ( 'NONE',  ( 0.000000000000000000, 0.000000000000000000, -1.000000000000000000 ) ) ;
#425 = ADVANCED_FACE ( 'NONE', ( #936 ), #716, .F. ) ;
#426 = CARTESIAN_POINT ( 'NONE',  ( 32.62052589244299838, 14.19999999999999929, 8.000000000000000000 ) ) ;
#427 = ORIENTED_EDGE ( 'NONE', *, *, #968, .T. ) ;
#428 = DATE_AND_TIME ( #706, #142 ) ;
#429 = ORIENTED_EDGE ( 'NONE', *, *, #1213, .T. ) ;
#430 = LINE ( 'NONE', #820, #748 ) ;
#431 = EDGE_CURVE ( 'NONE', #962, #908, #1231, .T. ) ;
#432 = EDGE_LOOP ( 'NONE', ( #474, #666, #175, #296 ) ) ;
#433 = CARTESIAN_POINT ( 'NONE',  ( 51.82052589244400309, -10.19999999999999929, 8.000000000000000000 ) ) ;
#434 = DIRECTION ( 'NONE',  ( -1.000000000000000000, -0.000000000000000000, -0.000000000000000000 ) ) ;
#435 = ORIENTED_EDGE ( 'NONE', *, *, #331, .T. ) ;
#436 = DIRECTION ( 'NONE',  ( 0.000000000000000000, 0.000000000000000000, 1.000000000000000000 ) ) ;
#437 = EDGE_LOOP ( 'NONE', ( #402, #976, #714, #824 ) ) ;
#438 = AXIS2_PLACEMENT_3D ( 'NONE', #1067, #1142, #193 ) ;
#439 = VECTOR ( 'NONE', #95, 1000.000000000000000 ) ;
#440 = AXIS2_PLACEMENT_3D ( 'NONE', #364, #192, #756 ) ;
#441 = DIRECTION ( 'NONE',  ( -1.000000000000000000, 0.000000000000000000, 0.000000000000000000 ) ) ;
#442 = ORIENTED_EDGE ( 'NONE', *, *, #713, .F. ) ;
#443 = LINE ( 'NONE', #354, #788 ) ;
#444 = CARTESIAN_POINT ( 'NONE',  ( 46.82052589244400309, 14.19999999999999929, 15.14999999999999858 ) ) ;
#445 = EDGE_CURVE ( 'NONE', #1093, #507, #1071, .T. ) ;
#446 = PLANE ( 'NONE',  #254 ) ;
#447 = LOCAL_TIME ( 15, 1, 20.00000000000000000, #1165 ) ;
#448 = EDGE_CURVE ( 'NONE', #805, #382, #512, .T. ) ;
#449 = DIRECTION ( 'NONE',  ( -0.000000000000000000, -0.000000000000000000, 1.000000000000000000 ) ) ;
#450 = EDGE_LOOP ( 'NONE', ( #310, #347 ) ) ;
#451 = CARTESIAN_POINT ( 'NONE',  ( 46.82052589244400309, -14.20000000000000107, 15.14999999999999858 ) ) ;
#452 = CARTESIAN_POINT ( 'NONE',  ( 58.00000000000000000, -11.50000000000000000, 25.99999999999999645 ) ) ;
#453 = DIRECTION ( 'NONE',  ( -0.000000000000000000, -0.000000000000000000, 1.000000000000000000 ) ) ;
#454 = DIRECTION ( 'NONE',  ( -0.000000000000000000, 1.000000000000000000, -0.000000000000000000 ) ) ;
#455 = ORIENTED_EDGE ( 'NONE', *, *, #1144, .T. ) ;
#456 = DIRECTION ( 'NONE',  ( 0.000000000000000000, 0.000000000000000000, -1.000000000000000000 ) ) ;
#457 = DIRECTION ( 'NONE',  ( 0.000000000000000000, -1.000000000000000000, 0.000000000000000000 ) ) ;
#458 = CARTESIAN_POINT ( 'NONE',  ( 58.00000000000000000, 11.50000000000000000, 4.000000000000000000 ) ) ;
#459 = AXIS2_PLACEMENT_3D ( 'NONE', #533, #724, #151 ) ;
#460 = VECTOR ( 'NONE', #315, 1000.000000000000000 ) ;
#461 = PRODUCT ( 'ARM-205_Parallel_gripper_fork_adapter', 'ARM-205_Parallel_gripper_fork_adapter', '', ( #390 ) ) ;
#462 = CARTESIAN_POINT ( 'NONE',  ( 37.62052589244299838, -10.19999999999999751, 18.85000000000000142 ) ) ;
#463 = EDGE_LOOP ( 'NONE', ( #1197, #993, #1164, #627, #265, #44 ) ) ;
#464 = EDGE_CURVE ( 'NONE', #1214, #647, #420, .T. ) ;
#465 = CIRCLE ( 'NONE', #236, 2.149999999999999023 ) ;
#466 = CYLINDRICAL_SURFACE ( 'NONE', #584, 4.999999999999997335 ) ;
#467 = CARTESIAN_POINT ( 'NONE',  ( 27.00000000000000000, -11.50000000000000000, 4.000000000000000000 ) ) ;
#468 = EDGE_CURVE ( 'NONE', #179, #144, #1249, .T. ) ;
#469 = CARTESIAN_POINT ( 'NONE',  ( 46.82052589244400309, 15.00000000000000355, 15.14999999999999858 ) ) ;
#470 = CARTESIAN_POINT ( 'NONE',  ( 23.00000000000000000, -15.00000000000000000, 4.000000000000000000 ) ) ;
#471 = ORIENTED_EDGE ( 'NONE', *, *, #743, .T. ) ;
#472 = ADVANCED_FACE ( 'NONE', ( #1058 ), #574, .T. ) ;
#473 = DIRECTION ( 'NONE',  ( 0.000000000000000000, 0.000000000000000000, -1.000000000000000000 ) ) ;
#474 = ORIENTED_EDGE ( 'NONE', *, *, #991, .T. ) ;
#475 = DIRECTION ( 'NONE',  ( 0.000000000000000000, -1.000000000000000000, 0.000000000000000000 ) ) ;
#476 = CARTESIAN_POINT ( 'NONE',  ( 51.82052589244400309, 14.19999999999999929, 8.000000000000000000 ) ) ;
#477 = ORIENTED_EDGE ( 'NONE', *, *, #17, .F. ) ;
#478 = CARTESIAN_POINT ( 'NONE',  ( 56.30000000000000426, -11.50000000000000000, 25.99999999999999645 ) ) ;
#479 = VERTEX_POINT ( 'NONE', #859 ) ;
#480 = ADVANCED_FACE ( 'NONE', ( #1158 ), #466, .T. ) ;
#481 = APPROVAL_ROLE ( '' ) ;
#482 = CIRCLE ( 'NONE', #1069, 1.700000000000000178 ) ;
#483 = CARTESIAN_POINT ( 'NONE',  ( 62.00000000000000000, 15.00000000000000000, 4.000000000000000000 ) ) ;
#484 = AXIS2_PLACEMENT_3D ( 'NONE', #348, #24, #1094 ) ;
#485 = FACE_OUTER_BOUND ( 'NONE', #704, .T. ) ;
#486 = AXIS2_PLACEMENT_3D ( 'NONE', #1242, #1134, #1060 ) ;
#487 = ORIENTED_EDGE ( 'NONE', *, *, #799, .T. ) ;
#488 = AXIS2_PLACEMENT_3D ( 'NONE', #410, #417, #979 ) ;
#489 = EDGE_CURVE ( 'NONE', #536, #1127, #955, .T. ) ;
#490 =( NAMED_UNIT ( * ) PLANE_ANGLE_UNIT ( ) SI_UNIT ( $, .RADIAN. ) );
#491 = PLANE ( 'NONE',  #323 ) ;
#492 = DIRECTION ( 'NONE',  ( 0.000000000000000000, 0.000000000000000000, -1.000000000000000000 ) ) ;
#493 = ORIENTED_EDGE ( 'NONE', *, *, #25, .F. ) ;
#494 = DIRECTION ( 'NONE',  ( 0.000000000000000000, 0.000000000000000000, 1.000000000000000000 ) ) ;
#495 = APPROVAL ( #529, 'UNSPECIFIED' ) ;
#496 = CARTESIAN_POINT ( 'NONE',  ( 28.69999999999999929, -11.50000000000000000, 8.000000000000000000 ) ) ;
#497 = CYLINDRICAL_SURFACE ( 'NONE', #339, 1.700000000000000178 ) ;
#498 = EDGE_LOOP ( 'NONE', ( #858, #797, #719, #953 ) ) ;
#499 = DIRECTION ( 'NONE',  ( -0.000000000000000000, -1.000000000000000000, -0.000000000000000000 ) ) ;
#500 = ORIENTED_EDGE ( 'NONE', *, *, #916, .F. ) ;
#501 = DIRECTION ( 'NONE',  ( -0.000000000000000000, -1.000000000000000000, -0.000000000000000000 ) ) ;
#502 = CARTESIAN_POINT ( 'NONE',  ( 27.00000000000000000, 11.50000000000000000, 4.000000000000000000 ) ) ;
#503 = ADVANCED_FACE ( 'NONE', ( #393 ), #782, .F. ) ;
#504 = ORIENTED_EDGE ( 'NONE', *, *, #702, .T. ) ;
#505 = CIRCLE ( 'NONE', #280, 1.700000000000000178 ) ;
#506 = AXIS2_PLACEMENT_3D ( 'NONE', #561, #222, #841 ) ;
#507 = VERTEX_POINT ( 'NONE', #865 ) ;
#508 = DIRECTION ( 'NONE',  ( 0.000000000000000000, 0.000000000000000000, -1.000000000000000000 ) ) ;
#509 = DIRECTION ( 'NONE',  ( -0.000000000000000000, -0.000000000000000000, -1.000000000000000000 ) ) ;
#510 = EDGE_LOOP ( 'NONE', ( #513, #1117, #566, #864, #1042, #394 ) ) ;
#511 = EDGE_CURVE ( 'NONE', #373, #728, #281, .T. ) ;
#512 = LINE ( 'NONE', #517, #1232 ) ;
#513 = ORIENTED_EDGE ( 'NONE', *, *, #468, .F. ) ;
#514 = DIRECTION ( 'NONE',  ( 0.000000000000000000, 0.000000000000000000, -1.000000000000000000 ) ) ;
#515 = LINE ( 'NONE', #626, #812 ) ;
#516 = EDGE_LOOP ( 'NONE', ( #170, #300, #525, #500 ) ) ;
#517 = CARTESIAN_POINT ( 'NONE',  ( 51.82052589244400309, 14.19999999999999929, 13.00000000000000000 ) ) ;
#518 = ADVANCED_FACE ( 'NONE', ( #961 ), #90, .F. ) ;
#519 = ORIENTED_EDGE ( 'NONE', *, *, #68, .T. ) ;
#520 = CARTESIAN_POINT ( 'NONE',  ( 46.82052589244400309, 10.19999999999999929, 13.00000000000000000 ) ) ;
#521 = FACE_OUTER_BOUND ( 'NONE', #793, .T. ) ;
#522 = ORIENTED_EDGE ( 'NONE', *, *, #921, .T. ) ;
#523 = VECTOR ( 'NONE', #753, 1000.000000000000000 ) ;
#524 = AXIS2_PLACEMENT_3D ( 'NONE', #646, #1026, #920 ) ;
#525 = ORIENTED_EDGE ( 'NONE', *, *, #752, .T. ) ;
#526 = APPROVAL ( #1065, 'UNSPECIFIED' ) ;
#527 = DIRECTION ( 'NONE',  ( 0.000000000000000000, 0.000000000000000000, -1.000000000000000000 ) ) ;
#528 = ORIENTED_EDGE ( 'NONE', *, *, #129, .T. ) ;
#529 = APPROVAL_STATUS ( 'not_yet_approved' ) ;
#530 = DIRECTION ( 'NONE',  ( -0.000000000000000000, 1.000000000000000000, -0.000000000000000000 ) ) ;
#531 = CARTESIAN_POINT ( 'NONE',  ( 51.82052589244400309, 14.19999999999999929, 13.00000000000000000 ) ) ;
#532 = VERTEX_POINT ( 'NONE', #177 ) ;
#533 = CARTESIAN_POINT ( 'NONE',  ( 46.82052589244400309, 15.00000000000000355, 13.00000000000000000 ) ) ;
#534 = ORIENTED_EDGE ( 'NONE', *, *, #209, .T. ) ;
#535 = DIRECTION ( 'NONE',  ( 0.000000000000000000, -1.000000000000000000, 0.000000000000000000 ) ) ;
#536 = VERTEX_POINT ( 'NONE', #294 ) ;
#537 = EDGE_CURVE ( 'NONE', #164, #131, #674, .T. ) ;
#538 = DIRECTION ( 'NONE',  ( 0.000000000000000000, 0.000000000000000000, 1.000000000000000000 ) ) ;
#539 = CYLINDRICAL_SURFACE ( 'NONE', #399, 1.700000000000000178 ) ;
#540 = ADVANCED_FACE ( 'NONE', ( #485 ), #874, .T. ) ;
#541 = CIRCLE ( 'NONE', #195, 1.700000000000000178 ) ;
#542 = FACE_BOUND ( 'NONE', #578, .T. ) ;
#543 = AXIS2_PLACEMENT_3D ( 'NONE', #1239, #171, #560 ) ;
#544 = CIRCLE ( 'NONE', #992, 2.149999999999999023 ) ;
#545 = CARTESIAN_POINT ( 'NONE',  ( 42.62052589244299838, 10.19999999999999929, 21.00000000000000000 ) ) ;
#546 = ORIENTED_EDGE ( 'NONE', *, *, #1120, .F. ) ;
#547 = CARTESIAN_POINT ( 'NONE',  ( 46.82052589244400309, 15.00000000000000355, 13.00000000000000000 ) ) ;
#548 = CARTESIAN_POINT ( 'NONE',  ( 51.82052589244400309, -10.19999999999999929, 8.000000000000000000 ) ) ;
#549 = ADVANCED_FACE ( 'NONE', ( #1163 ), #678, .F. ) ;
#550 = CARTESIAN_POINT ( 'NONE',  ( 58.00000000000000000, -11.50000000000000000, 4.000000000000000000 ) ) ;
#551 = SECURITY_CLASSIFICATION ( '', '', #1105 ) ;
#552 = VERTEX_POINT ( 'NONE', #854 ) ;
#553 = LINE ( 'NONE', #266, #624 ) ;
#554 = CARTESIAN_POINT ( 'NONE',  ( 32.62052589244299838, -14.19999999999999929, 8.000000000000000000 ) ) ;
#555 = CARTESIAN_POINT ( 'NONE',  ( 51.82052589244400309, 10.19999999999999929, 8.000000000000000000 ) ) ;
#556 = UNCERTAINTY_MEASURE_WITH_UNIT (LENGTH_MEASURE( 1.000000000000000082E-05 ), #1176, 'distance_accuracy_value', 'NONE');
#557 = ADVANCED_FACE ( 'NONE', ( #585 ), #103, .F. ) ;
#558 = LINE ( 'NONE', #845, #360 ) ;
#559 = VERTEX_POINT ( 'NONE', #5 ) ;
#560 = DIRECTION ( 'NONE',  ( 0.000000000000000000, 0.000000000000000000, 1.000000000000000000 ) ) ;
#561 = CARTESIAN_POINT ( 'NONE',  ( 32.62052589244299838, -10.19999999999999929, 21.00000000000000000 ) ) ;
#562 = DIRECTION ( 'NONE',  ( -1.000000000000000000, 0.000000000000000000, 0.000000000000000000 ) ) ;
#563 = EDGE_CURVE ( 'NONE', #131, #791, #564, .T. ) ;
#564 = CIRCLE ( 'NONE', #543, 4.999999999999997335 ) ;
#565 = DIRECTION ( 'NONE',  ( -0.000000000000000000, -1.000000000000000000, -0.000000000000000000 ) ) ;
#566 = ORIENTED_EDGE ( 'NONE', *, *, #799, .F. ) ;
#567 = VECTOR ( 'NONE', #1004, 1000.000000000000000 ) ;
#568 = CARTESIAN_POINT ( 'NONE',  ( 46.82052589244400309, 14.19999999999999929, 13.00000000000000000 ) ) ;
#569 = EDGE_LOOP ( 'NONE', ( #1157, #784 ) ) ;
#570 = CARTESIAN_POINT ( 'NONE',  ( 32.62052589244299838, 14.19999999999999929, 21.00000000000000000 ) ) ;
#571 = CC_DESIGN_APPROVAL ( #495, ( #551 ) ) ;
#572 = DIRECTION ( 'NONE',  ( -0.000000000000000000, 1.000000000000000000, -0.000000000000000000 ) ) ;
#573 = ORIENTED_EDGE ( 'NONE', *, *, #464, .F. ) ;
#574 = CYLINDRICAL_SURFACE ( 'NONE', #79, 4.999999999999997335 ) ;
#575 = ADVANCED_FACE ( 'NONE', ( #78 ), #366, .F. ) ;
#576 = VERTEX_POINT ( 'NONE', #1049 ) ;
#577 = CARTESIAN_POINT ( 'NONE',  ( 37.62052589244299838, 15.00000000000000355, 18.85000000000000142 ) ) ;
#578 = EDGE_LOOP ( 'NONE', ( #737, #810 ) ) ;
#579 = DIRECTION ( 'NONE',  ( -0.000000000000000000, -1.000000000000000000, -0.000000000000000000 ) ) ;
#580 = EDGE_LOOP ( 'NONE', ( #1079, #238, #91, #416, #840, #803 ) ) ;
#581 = EDGE_CURVE ( 'NONE', #532, #915, #1185, .T. ) ;
#582 = CIRCLE ( 'NONE', #233, 2.149999999999999023 ) ;
#583 = DIRECTION ( 'NONE',  ( -0.000000000000000000, -0.000000000000000000, 1.000000000000000000 ) ) ;
#584 = AXIS2_PLACEMENT_3D ( 'NONE', #372, #579, #190 ) ;
#585 = FACE_OUTER_BOUND ( 'NONE', #1019, .T. ) ;
#586 = AXIS2_PLACEMENT_3D ( 'NONE', #200, #28, #610 ) ;
#587 = ORIENTED_EDGE ( 'NONE', *, *, #618, .F. ) ;
#588 = AXIS2_PLACEMENT_3D ( 'NONE', #520, #687, #297 ) ;
#589 = CC_DESIGN_DATE_AND_TIME_ASSIGNMENT ( #413, #899, ( #551 ) ) ;
#590 = PERSON_AND_ORGANIZATION ( #765, #387 ) ;
#591 = CARTESIAN_POINT ( 'NONE',  ( 37.62052589244299838, -14.19999999999999929, 21.00000000000000000 ) ) ;
#592 = LINE ( 'NONE', #897, #1072 ) ;
#593 = ORIENTED_EDGE ( 'NONE', *, *, #1252, .F. ) ;
#594 = LINE ( 'NONE', #101, #1092 ) ;
#595 = DIRECTION ( 'NONE',  ( -1.000000000000000000, 0.000000000000000000, 0.000000000000000000 ) ) ;
#596 = CARTESIAN_POINT ( 'NONE',  ( 46.82052589244400309, 15.00000000000000355, 13.00000000000000000 ) ) ;
#597 = ORIENTED_EDGE ( 'NONE', *, *, #1175, .F. ) ;
#598 = PERSON_AND_ORGANIZATION_ROLE ( 'creator' ) ;
#599 = VERTEX_POINT ( 'NONE', #210 ) ;
#600 = FACE_OUTER_BOUND ( 'NONE', #662, .T. ) ;
#601 = EDGE_CURVE ( 'NONE', #617, #599, #109, .T. ) ;
#602 = CARTESIAN_POINT ( 'NONE',  ( 27.00000000000000000, 11.50000000000000000, 25.99999999999999645 ) ) ;
#603 = VERTEX_POINT ( 'NONE', #789 ) ;
#604 = AXIS2_PLACEMENT_3D ( 'NONE', #1194, #1173, #127 ) ;
#605 = CIRCLE ( 'NONE', #215, 4.999999999999995559 ) ;
#606 = VECTOR ( 'NONE', #358, 1000.000000000000000 ) ;
#607 = APPROVAL_DATE_TIME ( #1080, #526 ) ;
#608 = ORIENTED_EDGE ( 'NONE', *, *, #792, .F. ) ;
#609 = CARTESIAN_POINT ( 'NONE',  ( 32.62052589244299838, 10.19999999999999929, 8.000000000000000000 ) ) ;
#610 = DIRECTION ( 'NONE',  ( 0.000000000000000000, 0.000000000000000000, -1.000000000000000000 ) ) ;
#611 = EDGE_LOOP ( 'NONE', ( #879, #156, #1188, #47 ) ) ;
#612 = EDGE_CURVE ( 'NONE', #270, #479, #205, .T. ) ;
#613 = DIRECTION ( 'NONE',  ( 0.000000000000000000, -1.000000000000000000, 0.000000000000000000 ) ) ;
#614 = EDGE_LOOP ( 'NONE', ( #638, #125, #191, #1237 ) ) ;
#615 = CARTESIAN_POINT ( 'NONE',  ( 23.00000000000000000, -15.00000000000000000, 4.000000000000000000 ) ) ;
#616 = DIRECTION ( 'NONE',  ( -1.000000000000000000, 0.000000000000000000, 0.000000000000000000 ) ) ;
#617 = VERTEX_POINT ( 'NONE', #411 ) ;
#618 = EDGE_CURVE ( 'NONE', #1102, #772, #1151, .T. ) ;
#619 = EDGE_LOOP ( 'NONE', ( #307, #201, #941, #306, #815, #141 ) ) ;
#620 = EDGE_CURVE ( 'NONE', #915, #576, #817, .T. ) ;
#621 = LINE ( 'NONE', #43, #831 ) ;
#622 = EDGE_LOOP ( 'NONE', ( #207, #912, #10, #86 ) ) ;
#623 = CALENDAR_DATE ( 2026, 12, 9 ) ;
#624 = VECTOR ( 'NONE', #159, 1000.000000000000000 ) ;
#625 = LINE ( 'NONE', #919, #153 ) ;
#626 = CARTESIAN_POINT ( 'NONE',  ( 51.82052589244400309, -14.19999999999999929, 13.00000000000000000 ) ) ;
#627 = ORIENTED_EDGE ( 'NONE', *, *, #1082, .F. ) ;
#628 = FACE_OUTER_BOUND ( 'NONE', #779, .T. ) ;
#629 = ORIENTED_EDGE ( 'NONE', *, *, #148, .F. ) ;
#630 = EDGE_CURVE ( 'NONE', #378, #603, #705, .T. ) ;
#631 = FACE_OUTER_BOUND ( 'NONE', #1061, .T. ) ;
#632 = ORIENTED_EDGE ( 'NONE', *, *, #385, .F. ) ;
#633 = DIRECTION ( 'NONE',  ( 0.000000000000000000, -1.000000000000000000, 0.000000000000000000 ) ) ;
#634 = DIRECTION ( 'NONE',  ( 0.000000000000000000, 0.000000000000000000, -1.000000000000000000 ) ) ;
#635 = DIRECTION ( 'NONE',  ( -0.000000000000000000, 1.000000000000000000, -0.000000000000000000 ) ) ;
#636 = CYLINDRICAL_SURFACE ( 'NONE', #524, 1.700000000000000178 ) ;
#637 = EDGE_CURVE ( 'NONE', #576, #599, #53, .T. ) ;
#638 = ORIENTED_EDGE ( 'NONE', *, *, #673, .T. ) ;
#639 = DIRECTION ( 'NONE',  ( -0.000000000000000000, -0.000000000000000000, 1.000000000000000000 ) ) ;
#640 = DIRECTION ( 'NONE',  ( 0.000000000000000000, 0.000000000000000000, -1.000000000000000000 ) ) ;
#641 = AXIS2_PLACEMENT_3D ( 'NONE', #944, #635, #350 ) ;
#642 = LINE ( 'NONE', #67, #176 ) ;
#643 = AXIS2_PLACEMENT_3D ( 'NONE', #696, #703, #616 ) ;
#644 = VECTOR ( 'NONE', #535, 1000.000000000000000 ) ;
#645 = CIRCLE ( 'NONE', #217, 2.149999999999999023 ) ;
#646 = CARTESIAN_POINT ( 'NONE',  ( 58.00000000000000000, 11.50000000000000000, 25.99999999999999645 ) ) ;
#647 = VERTEX_POINT ( 'NONE', #15 ) ;
#648 = CARTESIAN_POINT ( 'NONE',  ( 32.62052589244299838, -14.19999999999999929, 21.00000000000000000 ) ) ;
#649 = DIRECTION ( 'NONE',  ( -1.000000000000000000, 0.000000000000000000, 0.000000000000000000 ) ) ;
#650 = EDGE_CURVE ( 'NONE', #832, #367, #870, .T. ) ;
#651 = CARTESIAN_POINT ( 'NONE',  ( 37.62052589244299838, 15.00000000000000355, 23.15000000000000213 ) ) ;
#652 = FACE_BOUND ( 'NONE', #293, .T. ) ;
#653 = ORIENTED_EDGE ( 'NONE', *, *, #295, .F. ) ;
#654 = DIRECTION ( 'NONE',  ( 1.000000000000000000, 0.000000000000000000, 0.000000000000000000 ) ) ;
#655 = CARTESIAN_POINT ( 'NONE',  ( 0.000000000000000000, -14.19999999999999929, 0.000000000000000000 ) ) ;
#656 = ADVANCED_FACE ( 'NONE', ( #418 ), #133, .F. ) ;
#657 = DIRECTION ( 'NONE',  ( -0.000000000000000000, -1.000000000000000000, -0.000000000000000000 ) ) ;
#658 = EDGE_CURVE ( 'NONE', #1143, #290, #725, .T. ) ;
#659 = LINE ( 'NONE', #1047, #606 ) ;
#660 = ORIENTED_EDGE ( 'NONE', *, *, #630, .F. ) ;
#661 = DIRECTION ( 'NONE',  ( 0.000000000000000000, 0.000000000000000000, 1.000000000000000000 ) ) ;
#662 = EDGE_LOOP ( 'NONE', ( #1177, #935, #228, #959 ) ) ;
#663 = DIRECTION ( 'NONE',  ( 0.000000000000000000, 0.000000000000000000, -1.000000000000000000 ) ) ;
#664 = VECTOR ( 'NONE', #475, 1000.000000000000000 ) ;
#665 = DIRECTION ( 'NONE',  ( -0.000000000000000000, -0.000000000000000000, 1.000000000000000000 ) ) ;
#666 = ORIENTED_EDGE ( 'NONE', *, *, #407, .T. ) ;
#667 = CIRCLE ( 'NONE', #1154, 1.700000000000000178 ) ;
#668 = DIRECTION ( 'NONE',  ( -0.000000000000000000, -0.000000000000000000, -1.000000000000000000 ) ) ;
#669 = EDGE_LOOP ( 'NONE', ( #389, #1099, #629, #334 ) ) ;
#670 = PLANE ( 'NONE',  #97 ) ;
#671 = CARTESIAN_POINT ( 'NONE',  ( 46.82052589244400309, -14.20000000000000107, 13.00000000000000000 ) ) ;
#672 = ORIENTED_EDGE ( 'NONE', *, *, #938, .F. ) ;
#673 = EDGE_CURVE ( 'NONE', #603, #378, #1190, .T. ) ;
#674 = LINE ( 'NONE', #965, #439 ) ;
#675 = ORIENTED_EDGE ( 'NONE', *, *, #202, .F. ) ;
#676 = APPLICATION_PROTOCOL_DEFINITION ( 'international standard', 'config_control_design', 1994, #23 ) ;
#677 = CARTESIAN_POINT ( 'NONE',  ( 42.62052589244299838, -10.19999999999999929, 15.71293199324855294 ) ) ;
#678 = CYLINDRICAL_SURFACE ( 'NONE', #438, 2.149999999999999023 ) ;
#679 = ORIENTED_EDGE ( 'NONE', *, *, #1138, .F. ) ;
#680 = CALENDAR_DATE ( 2026, 12, 9 ) ;
#681 = AXIS2_PLACEMENT_3D ( 'NONE', #162, #87, #747 ) ;
#682 = CARTESIAN_POINT ( 'NONE',  ( 27.00000000000000000, 11.50000000000000000, 25.99999999999999645 ) ) ;
#683 = DIRECTION ( 'NONE',  ( -0.000000000000000000, 1.000000000000000000, -0.000000000000000000 ) ) ;
#684 = CIRCLE ( 'NONE', #400, 2.149999999999999023 ) ;
#685 = ORIENTED_EDGE ( 'NONE', *, *, #167, .F. ) ;
#686 = EDGE_CURVE ( 'NONE', #479, #1027, #796, .T. ) ;
#687 = DIRECTION ( 'NONE',  ( -0.000000000000000000, 1.000000000000000000, -0.000000000000000000 ) ) ;
#688 = APPROVAL_PERSON_ORGANIZATION ( #40, #495, #1112 ) ;
#689 = CARTESIAN_POINT ( 'NONE',  ( 62.00000000000000000, -15.00000000000000000, 8.000000000000000000 ) ) ;
#690 = LINE ( 'NONE', #114, #81 ) ;
#691 = EDGE_LOOP ( 'NONE', ( #26, #884, #1002, #1147 ) ) ;
#692 = ADVANCED_FACE ( 'NONE', ( #521 ), #497, .F. ) ;
#693 = APPLICATION_PROTOCOL_DEFINITION ( 'international standard', 'config_control_design', 1994, #116 ) ;
#694 = ORIENTED_EDGE ( 'NONE', *, *, #823, .T. ) ;
#695 = CARTESIAN_POINT ( 'NONE',  ( 0.000000000000000000, -10.19999999999999929, 0.000000000000000000 ) ) ;
#696 = CARTESIAN_POINT ( 'NONE',  ( 58.00000000000000000, 11.50000000000000000, 8.000000000000000000 ) ) ;
#697 = VERTEX_POINT ( 'NONE', #883 ) ;
#698 =( NAMED_UNIT ( * ) SI_UNIT ( $, .STERADIAN. ) SOLID_ANGLE_UNIT ( ) );
#699 = ORIENTED_EDGE ( 'NONE', *, *, #106, .T. ) ;
#700 = DIRECTION ( 'NONE',  ( 0.000000000000000000, 0.000000000000000000, 1.000000000000000000 ) ) ;
#701 = AXIS2_PLACEMENT_3D ( 'NONE', #1160, #494, #982 ) ;
#702 = EDGE_CURVE ( 'NONE', #29, #409, #302, .T. ) ;
#703 = DIRECTION ( 'NONE',  ( -0.000000000000000000, -0.000000000000000000, 1.000000000000000000 ) ) ;
#704 = EDGE_LOOP ( 'NONE', ( #853, #272, #898, #1110 ) ) ;
#705 = CIRCLE ( 'NONE', #604, 1.700000000000000178 ) ;
#706 = CALENDAR_DATE ( 2026, 12, 9 ) ;
#707 = CIRCLE ( 'NONE', #100, 2.149999999999999023 ) ;
#708 =( GEOMETRIC_REPRESENTATION_CONTEXT ( 3 ) GLOBAL_UNCERTAINTY_ASSIGNED_CONTEXT ( ( #556 ) ) GLOBAL_UNIT_ASSIGNED_CONTEXT ( ( #1176, #490, #698 ) ) REPRESENTATION_CONTEXT ( 'NONE', 'WORKASPACE' ) );
#709 = FACE_OUTER_BOUND ( 'NONE', #1005, .T. ) ;
#710 = ORIENTED_EDGE ( 'NONE', *, *, #776, .F. ) ;
#711 = DIRECTION ( 'NONE',  ( 0.000000000000000000, -1.000000000000000000, 0.000000000000000000 ) ) ;
#712 = CARTESIAN_POINT ( 'NONE',  ( 42.62052589244299838, -10.19999999999999929, 21.00000000000000000 ) ) ;
#713 = EDGE_CURVE ( 'NONE', #552, #1201, #990, .T. ) ;
#714 = ORIENTED_EDGE ( 'NONE', *, *, #991, .F. ) ;
#715 = PRODUCT_DEFINITION_FORMATION_WITH_SPECIFIED_SOURCE ( 'ANY', '', #461, .NOT_KNOWN. ) ;
#716 = CYLINDRICAL_SURFACE ( 'NONE', #929, 2.149999999999999023 ) ;
#717 = LINE ( 'NONE', #433, #1230 ) ;
#718 = CARTESIAN_POINT ( 'NONE',  ( 46.82052589244400309, -14.20000000000000107, 10.84999999999999964 ) ) ;
#719 = ORIENTED_EDGE ( 'NONE', *, *, #1238, .F. ) ;
#720 = VERTEX_POINT ( 'NONE', #426 ) ;
#721 = DIRECTION ( 'NONE',  ( -1.000000000000000000, 0.000000000000000000, 0.000000000000000000 ) ) ;
#722 = ORIENTED_EDGE ( 'NONE', *, *, #1221, .F. ) ;
#723 = CIRCLE ( 'NONE', #1189, 2.149999999999999023 ) ;
#724 = DIRECTION ( 'NONE',  ( 0.000000000000000000, -1.000000000000000000, 0.000000000000000000 ) ) ;
#725 = CIRCLE ( 'NONE', #1031, 2.149999999999999023 ) ;
#726 = EDGE_CURVE ( 'NONE', #552, #1214, #592, .T. ) ;
#727 = CIRCLE ( 'NONE', #891, 4.999999999999995559 ) ;
#728 = VERTEX_POINT ( 'NONE', #998 ) ;
#729 = CARTESIAN_POINT ( 'NONE',  ( 51.82052589244400309, -10.19999999999999929, 13.00000000000000000 ) ) ;
#730 = ORIENTED_EDGE ( 'NONE', *, *, #51, .F. ) ;
#731 = APPROVAL_DATE_TIME ( #428, #495 ) ;
#732 = LOCAL_TIME ( 15, 1, 20.00000000000000000, #30 ) ;
#733 = DIRECTION ( 'NONE',  ( -1.000000000000000000, 0.000000000000000000, 0.000000000000000000 ) ) ;
#734 = LINE ( 'NONE', #651, #664 ) ;
#735 = EDGE_CURVE ( 'NONE', #507, #791, #690, .T. ) ;
#736 = CARTESIAN_POINT ( 'NONE',  ( 28.69999999999999929, 11.50000000000000000, 4.000000000000000000 ) ) ;
#737 = ORIENTED_EDGE ( 'NONE', *, *, #618, .T. ) ;
#738 = DIRECTION ( 'NONE',  ( 0.000000000000000000, 0.000000000000000000, -1.000000000000000000 ) ) ;
#739 = CARTESIAN_POINT ( 'NONE',  ( 37.62052589244299838, 15.00000000000000355, 21.00000000000000000 ) ) ;
#740 = PLANE ( 'NONE',  #949 ) ;
#741 = CARTESIAN_POINT ( 'NONE',  ( 51.82052589244400309, 14.19999999999999929, 13.00000000000000000 ) ) ;
#742 = VERTEX_POINT ( 'NONE', #309 ) ;
#743 = EDGE_CURVE ( 'NONE', #599, #1183, #515, .T. ) ;
#744 = LINE ( 'NONE', #1038, #137 ) ;
#745 = DIRECTION ( 'NONE',  ( -0.000000000000000000, -1.000000000000000000, -0.000000000000000000 ) ) ;
#746 = AXIS2_PLACEMENT_3D ( 'NONE', #363, #1119, #168 ) ;
#747 = DIRECTION ( 'NONE',  ( -1.000000000000000000, 0.000000000000000000, 0.000000000000000000 ) ) ;
#748 = VECTOR ( 'NONE', #1203, 1000.000000000000000 ) ;
#749 = AXIS2_PLACEMENT_3D ( 'NONE', #689, #1077, #700 ) ;
#750 = CARTESIAN_POINT ( 'NONE',  ( 32.62052589244299838, -10.19999999999999929, 21.00000000000000000 ) ) ;
#751 = ORIENTED_EDGE ( 'NONE', *, *, #113, .T. ) ;
#752 = EDGE_CURVE ( 'NONE', #559, #832, #1020, .T. ) ;
#753 = DIRECTION ( 'NONE',  ( -1.000000000000000000, -0.000000000000000000, -0.000000000000000000 ) ) ;
#754 = DIRECTION ( 'NONE',  ( -1.000000000000000000, 0.000000000000000000, 0.000000000000000000 ) ) ;
#755 = CARTESIAN_POINT ( 'NONE',  ( 46.82052589244400309, 10.19999999999999929, 10.84999999999999964 ) ) ;
#756 = DIRECTION ( 'NONE',  ( -1.000000000000000000, 0.000000000000000000, -0.000000000000000000 ) ) ;
#757 = VERTEX_POINT ( 'NONE', #1222 ) ;
#758 = CARTESIAN_POINT ( 'NONE',  ( 42.62052589244299838, 14.19999999999999929, 21.00000000000000000 ) ) ;
#759 = VERTEX_POINT ( 'NONE', #54 ) ;
#760 = DIRECTION ( 'NONE',  ( -1.000000000000000000, 0.000000000000000000, 0.000000000000000000 ) ) ;
#761 = DIRECTION ( 'NONE',  ( -0.000000000000000000, -1.000000000000000000, -0.000000000000000000 ) ) ;
#762 = ORIENTED_EDGE ( 'NONE', *, *, #60, .F. ) ;
#763 = CARTESIAN_POINT ( 'NONE',  ( 23.00000000000000000, -15.00000000000000000, 8.000000000000000000 ) ) ;
#764 = VERTEX_POINT ( 'NONE', #346 ) ;
#765 = PERSON ( 'UNSPECIFIED', 'UNSPECIFIED', 'UNSPECIFIED', ('UNSPECIFIED'), ('UNSPECIFIED'), ('UNSPECIFIED') ) ;
#766 = DIRECTION ( 'NONE',  ( 0.000000000000000000, -1.000000000000000000, 0.000000000000000000 ) ) ;
#767 = EDGE_CURVE ( 'NONE', #1174, #742, #99, .T. ) ;
#768 = AXIS2_PLACEMENT_3D ( 'NONE', #58, #928, #245 ) ;
#769 = VECTOR ( 'NONE', #75, 1000.000000000000000 ) ;
#770 = EDGE_CURVE ( 'NONE', #1081, #759, #667, .T. ) ;
#771 = FACE_BOUND ( 'NONE', #1087, .T. ) ;
#772 = VERTEX_POINT ( 'NONE', #736 ) ;
#773 = CARTESIAN_POINT ( 'NONE',  ( 23.00000000000000000, 15.00000000000000000, 8.000000000000000000 ) ) ;
#774 = EDGE_LOOP ( 'NONE', ( #211, #135, #332, #964 ) ) ;
#775 = LINE ( 'NONE', #869, #423 ) ;
#776 = EDGE_CURVE ( 'NONE', #1027, #244, #1121, .T. ) ;
#777 = PLANE ( 'NONE',  #440 ) ;
#778 = DIRECTION ( 'NONE',  ( 0.000000000000000000, 0.000000000000000000, -1.000000000000000000 ) ) ;
#779 = EDGE_LOOP ( 'NONE', ( #653, #39, #1017, #722 ) ) ;
#780 = COORDINATED_UNIVERSAL_TIME_OFFSET ( 6, 0, .BEHIND. ) ;
#781 = CARTESIAN_POINT ( 'NONE',  ( 56.30000000000000426, 11.50000000000000000, 4.000000000000000000 ) ) ;
#782 = PLANE ( 'NONE',  #889 ) ;
#783 = ADVANCED_FACE ( 'NONE', ( #143 ), #636, .F. ) ;
#784 = ORIENTED_EDGE ( 'NONE', *, *, #916, .T. ) ;
#785 = PERSON_AND_ORGANIZATION ( #765, #387 ) ;
#786 = AXIS2_PLACEMENT_3D ( 'NONE', #467, #252, #267 ) ;
#787 = LINE ( 'NONE', #1172, #813 ) ;
#788 = VECTOR ( 'NONE', #738, 1000.000000000000000 ) ;
#789 = CARTESIAN_POINT ( 'NONE',  ( 56.30000000000000426, 11.50000000000000000, 8.000000000000000000 ) ) ;
#790 = CIRCLE ( 'NONE', #486, 2.149999999999999023 ) ;
#791 = VERTEX_POINT ( 'NONE', #545 ) ;
#792 = EDGE_CURVE ( 'NONE', #559, #905, #1013, .T. ) ;
#793 = EDGE_LOOP ( 'NONE', ( #751, #89, #587, #1104 ) ) ;
#794 = ADVANCED_BREP_SHAPE_REPRESENTATION ( 'ARM-205_Parallel_gripper_fork_adapter', ( #277, #701 ), #708 ) ;
#795 = CARTESIAN_POINT ( 'NONE',  ( 46.82052589244400309, 15.00000000000000355, 13.00000000000000000 ) ) ;
#796 = LINE ( 'NONE', #904, #567 ) ;
#797 = ORIENTED_EDGE ( 'NONE', *, *, #431, .F. ) ;
#798 = COORDINATED_UNIVERSAL_TIME_OFFSET ( 6, 0, .BEHIND. ) ;
#799 = EDGE_CURVE ( 'NONE', #791, #183, #62, .T. ) ;
#800 = ORIENTED_EDGE ( 'NONE', *, *, #620, .F. ) ;
#801 = DIRECTION ( 'NONE',  ( -0.000000000000000000, -1.000000000000000000, -0.000000000000000000 ) ) ;
#802 = DIRECTION ( 'NONE',  ( 0.000000000000000000, 1.000000000000000000, 0.000000000000000000 ) ) ;
#803 = ORIENTED_EDGE ( 'NONE', *, *, #295, .T. ) ;
#804 = LINE ( 'NONE', #648, #830 ) ;
#805 = VERTEX_POINT ( 'NONE', #531 ) ;
#806 = ADVANCED_FACE ( 'NONE', ( #243 ), #839, .F. ) ;
#807 = LINE ( 'NONE', #609, #1033 ) ;
#808 = CIRCLE ( 'NONE', #681, 1.700000000000000178 ) ;
#809 = DIRECTION ( 'NONE',  ( -1.000000000000000000, -0.000000000000000000, -0.000000000000000000 ) ) ;
#810 = ORIENTED_EDGE ( 'NONE', *, *, #167, .T. ) ;
#811 = AXIS2_PLACEMENT_3D ( 'NONE', #502, #37, #1091 ) ;
#812 = VECTOR ( 'NONE', #527, 1000.000000000000000 ) ;
#813 = VECTOR ( 'NONE', #501, 1000.000000000000000 ) ;
#814 = DIRECTION ( 'NONE',  ( 0.000000000000000000, -1.000000000000000000, 0.000000000000000000 ) ) ;
#815 = ORIENTED_EDGE ( 'NONE', *, *, #938, .T. ) ;
#816 = CARTESIAN_POINT ( 'NONE',  ( 62.00000000000000000, -15.00000000000000000, 4.000000000000000000 ) ) ;
#817 = LINE ( 'NONE', #980, #460 ) ;
#818 = EDGE_LOOP ( 'NONE', ( #471, #493, #146, #257 ) ) ;
#819 = EDGE_LOOP ( 'NONE', ( #134, #660 ) ) ;
#820 = CARTESIAN_POINT ( 'NONE',  ( 23.00000000000000000, 15.00000000000000000, 8.000000000000000000 ) ) ;
#821 = ORIENTED_EDGE ( 'NONE', *, *, #60, .T. ) ;
#822 = EDGE_CURVE ( 'NONE', #720, #164, #147, .T. ) ;
#823 = EDGE_CURVE ( 'NONE', #1048, #576, #940, .T. ) ;
#824 = ORIENTED_EDGE ( 'NONE', *, *, #861, .T. ) ;
#825 = DIRECTION ( 'NONE',  ( -0.000000000000000000, 1.000000000000000000, -0.000000000000000000 ) ) ;
#826 = ORIENTED_EDGE ( 'NONE', *, *, #977, .T. ) ;
#827 = VECTOR ( 'NONE', #1133, 1000.000000000000000 ) ;
#828 = CARTESIAN_POINT ( 'NONE',  ( 37.62052589244299838, -10.19999999999999929, 21.00000000000000000 ) ) ;
#829 = EDGE_CURVE ( 'NONE', #397, #772, #163, .T. ) ;
#830 = VECTOR ( 'NONE', #639, 1000.000000000000000 ) ;
#831 = VECTOR ( 'NONE', #1009, 1000.000000000000000 ) ;
#832 = VERTEX_POINT ( 'NONE', #718 ) ;
#833 = CARTESIAN_POINT ( 'NONE',  ( 32.62052589244299838, -10.19999999999999929, 21.00000000000000000 ) ) ;
#834 = ORIENTED_EDGE ( 'NONE', *, *, #1029, .T. ) ;
#835 = LINE ( 'NONE', #1123, #34 ) ;
#836 = CARTESIAN_POINT ( 'NONE',  ( 37.62052589244299838, -10.19999999999999929, 21.00000000000000000 ) ) ;
#837 = DIRECTION ( 'NONE',  ( 1.000000000000000000, -0.000000000000000000, 0.000000000000000000 ) ) ;
#838 = EDGE_CURVE ( 'NONE', #908, #1127, #621, .T. ) ;
#839 = PLANE ( 'NONE',  #321 ) ;
#840 = ORIENTED_EDGE ( 'NONE', *, *, #686, .T. ) ;
#841 = DIRECTION ( 'NONE',  ( 0.000000000000000000, 0.000000000000000000, -1.000000000000000000 ) ) ;
#842 = CARTESIAN_POINT ( 'NONE',  ( 42.62052589244299838, -10.19999999999999929, 21.00000000000000000 ) ) ;
#843 = DIRECTION ( 'NONE',  ( -1.000000000000000000, 0.000000000000000000, 0.000000000000000000 ) ) ;
#844 = PRODUCT_DEFINITION ( 'UNKNOWN', '', #715, #1153 ) ;
#845 = CARTESIAN_POINT ( 'NONE',  ( 25.30000000000000071, -11.50000000000000000, 25.99999999999999645 ) ) ;
#846 = ORIENTED_EDGE ( 'NONE', *, *, #861, .F. ) ;
#847 = CARTESIAN_POINT ( 'NONE',  ( 37.62052589244299838, 15.00000000000000355, 21.00000000000000000 ) ) ;
#848 = DIRECTION ( 'NONE',  ( 0.000000000000000000, 1.000000000000000000, 0.000000000000000000 ) ) ;
#849 = DIRECTION ( 'NONE',  ( -1.000000000000000000, 0.000000000000000000, 0.000000000000000000 ) ) ;
#850 = VECTOR ( 'NONE', #185, 1000.000000000000000 ) ;
#851 = AXIS2_PLACEMENT_3D ( 'NONE', #952, #665, #958 ) ;
#852 = CARTESIAN_POINT ( 'NONE',  ( 32.62052589244299838, 14.19999999999999929, 21.00000000000000000 ) ) ;
#853 = ORIENTED_EDGE ( 'NONE', *, *, #1063, .F. ) ;
#854 = CARTESIAN_POINT ( 'NONE',  ( 62.00000000000000000, -15.00000000000000000, 8.000000000000000000 ) ) ;
#855 = ORIENTED_EDGE ( 'NONE', *, *, #650, .F. ) ;
#856 = FACE_BOUND ( 'NONE', #450, .T. ) ;
#857 = FACE_BOUND ( 'NONE', #1149, .T. ) ;
#858 = ORIENTED_EDGE ( 'NONE', *, *, #838, .F. ) ;
#859 = CARTESIAN_POINT ( 'NONE',  ( 32.62052589244299838, -10.19999999999999929, 8.000000000000000000 ) ) ;
#860 = VERTEX_POINT ( 'NONE', #139 ) ;
#861 = EDGE_CURVE ( 'NONE', #647, #908, #430, .T. ) ;
#862 = FACE_BOUND ( 'NONE', #1064, .T. ) ;
#863 = DIRECTION ( 'NONE',  ( 0.000000000000000000, -1.000000000000000000, 0.000000000000000000 ) ) ;
#864 = ORIENTED_EDGE ( 'NONE', *, *, #563, .F. ) ;
#865 = CARTESIAN_POINT ( 'NONE',  ( 42.62052589244299128, 14.19999999999999929, 21.00000000000000000 ) ) ;
#866 = EDGE_LOOP ( 'NONE', ( #13, #322, #41, #675 ) ) ;
#867 = EDGE_CURVE ( 'NONE', #382, #720, #333, .T. ) ;
#868 = CIRCLE ( 'NONE', #786, 1.700000000000000178 ) ;
#869 = CARTESIAN_POINT ( 'NONE',  ( 25.30000000000000071, 11.50000000000000000, 25.99999999999999645 ) ) ;
#870 = CIRCLE ( 'NONE', #1111, 2.149999999999999023 ) ;
#871 = VECTOR ( 'NONE', #434, 1000.000000000000000 ) ;
#872 = DIRECTION ( 'NONE',  ( 0.000000000000000000, 0.000000000000000000, -1.000000000000000000 ) ) ;
#873 = AXIS2_PLACEMENT_3D ( 'NONE', #682, #7, #1073 ) ;
#874 = CYLINDRICAL_SURFACE ( 'NONE', #1011, 4.999999999999997335 ) ;
#875 = ORIENTED_EDGE ( 'NONE', *, *, #161, .T. ) ;
#876 = EDGE_CURVE ( 'NONE', #359, #966, #465, .T. ) ;
#877 = FACE_BOUND ( 'NONE', #149, .T. ) ;
#878 = DIRECTION ( 'NONE',  ( -1.000000000000000000, 0.000000000000000000, 0.000000000000000000 ) ) ;
#879 = ORIENTED_EDGE ( 'NONE', *, *, #1238, .T. ) ;
#880 = CARTESIAN_POINT ( 'NONE',  ( 37.62052589244299838, 14.19999999999999929, 18.85000000000000142 ) ) ;
#881 = DIRECTION ( 'NONE',  ( -0.000000000000000000, 1.000000000000000000, -0.000000000000000000 ) ) ;
#882 = CC_DESIGN_PERSON_AND_ORGANIZATION_ASSIGNMENT ( #1253, #906, ( #715 ) ) ;
#883 = CARTESIAN_POINT ( 'NONE',  ( 25.30000000000000071, 11.50000000000000000, 8.000000000000000000 ) ) ;
#884 = ORIENTED_EDGE ( 'NONE', *, *, #994, .T. ) ;
#885 = EDGE_CURVE ( 'NONE', #617, #270, #340, .T. ) ;
#886 = DIRECTION ( 'NONE',  ( -0.000000000000000000, -0.000000000000000000, 1.000000000000000000 ) ) ;
#887 = ORIENTED_EDGE ( 'NONE', *, *, #822, .T. ) ;
#888 = FACE_OUTER_BOUND ( 'NONE', #622, .T. ) ;
#889 = AXIS2_PLACEMENT_3D ( 'NONE', #1148, #654, #947 ) ;
#890 = DIRECTION ( 'NONE',  ( -0.000000000000000000, 1.000000000000000000, -0.000000000000000000 ) ) ;
#891 = AXIS2_PLACEMENT_3D ( 'NONE', #1140, #1227, #370 ) ;
#892 = ORIENTED_EDGE ( 'NONE', *, *, #658, .F. ) ;
#893 = PERSON_AND_ORGANIZATION ( #765, #387 ) ;
#894 = EDGE_LOOP ( 'NONE', ( #985, #477, #312, #487 ) ) ;
#895 = APPROVAL_PERSON_ORGANIZATION ( #203, #526, #481 ) ;
#896 = DIRECTION ( 'NONE',  ( 0.000000000000000000, -0.000000000000000000, -1.000000000000000000 ) ) ;
#897 = CARTESIAN_POINT ( 'NONE',  ( 62.00000000000000000, -15.00000000000000000, 8.000000000000000000 ) ) ;
#898 = ORIENTED_EDGE ( 'NONE', *, *, #637, .T. ) ;
#899 = DATE_TIME_ROLE ( 'classification_date' ) ;
#900 = ADVANCED_FACE ( 'NONE', ( #631 ), #292, .F. ) ;
#901 = CARTESIAN_POINT ( 'NONE',  ( 59.70000000000000284, 11.50000000000000000, 8.000000000000000000 ) ) ;
#902 = ORIENTED_EDGE ( 'NONE', *, *, #25, .T. ) ;
#903 = DIRECTION ( 'NONE',  ( 0.000000000000000000, 0.000000000000000000, -1.000000000000000000 ) ) ;
#904 = CARTESIAN_POINT ( 'NONE',  ( 32.62052589244299838, -10.19999999999999929, 21.00000000000000000 ) ) ;
#905 = VERTEX_POINT ( 'NONE', #269 ) ;
#906 = PERSON_AND_ORGANIZATION_ROLE ( 'creator' ) ;
#907 = DIRECTION ( 'NONE',  ( 0.000000000000000000, -1.000000000000000000, 0.000000000000000000 ) ) ;
#908 = VERTEX_POINT ( 'NONE', #945 ) ;
#909 = CYLINDRICAL_SURFACE ( 'NONE', #383, 1.700000000000000178 ) ;
#910 = VECTOR ( 'NONE', #657, 1000.000000000000000 ) ;
#911 = DIRECTION ( 'NONE',  ( -1.000000000000000000, 0.000000000000000000, 0.000000000000000000 ) ) ;
#912 = ORIENTED_EDGE ( 'NONE', *, *, #1022, .T. ) ;
#913 = VECTOR ( 'NONE', #942, 1000.000000000000000 ) ;
#914 = AXIS2_PLACEMENT_3D ( 'NONE', #795, #711, #508 ) ;
#915 = VERTEX_POINT ( 'NONE', #677 ) ;
#916 = EDGE_CURVE ( 'NONE', #367, #832, #684, .T. ) ;
#917 = CARTESIAN_POINT ( 'NONE',  ( 46.82052589244400309, -10.19999999999999751, 13.00000000000000000 ) ) ;
#918 = EDGE_LOOP ( 'NONE', ( #1085, #710, #1059, #875 ) ) ;
#919 = CARTESIAN_POINT ( 'NONE',  ( 42.62052589244299838, 14.19999999999999929, 21.00000000000000000 ) ) ;
#920 = DIRECTION ( 'NONE',  ( -1.000000000000000000, 0.000000000000000000, 0.000000000000000000 ) ) ;
#921 = EDGE_CURVE ( 'NONE', #996, #860, #138, .T. ) ;
#922 = VERTEX_POINT ( 'NONE', #386 ) ;
#923 = FACE_OUTER_BOUND ( 'NONE', #463, .T. ) ;
#924 = DIRECTION ( 'NONE',  ( -0.000000000000000000, -1.000000000000000000, -0.000000000000000000 ) ) ;
#925 = CARTESIAN_POINT ( 'NONE',  ( 27.00000000000000000, -11.50000000000000000, 8.000000000000000000 ) ) ;
#926 = ORIENTED_EDGE ( 'NONE', *, *, #1090, .T. ) ;
#927 = CIRCLE ( 'NONE', #746, 2.149999999999999023 ) ;
#928 = DIRECTION ( 'NONE',  ( 0.000000000000000000, -1.000000000000000000, 0.000000000000000000 ) ) ;
#929 = AXIS2_PLACEMENT_3D ( 'NONE', #847, #814, #64 ) ;
#930 = CARTESIAN_POINT ( 'NONE',  ( 37.62052589244299838, 15.00000000000000355, 18.85000000000000142 ) ) ;
#931 = EDGE_CURVE ( 'NONE', #966, #359, #790, .T. ) ;
#932 = CIRCLE ( 'NONE', #381, 4.999999999999997335 ) ;
#933 = DIRECTION ( 'NONE',  ( -0.000000000000000000, -0.000000000000000000, 1.000000000000000000 ) ) ;
#934 = DIRECTION ( 'NONE',  ( 0.000000000000000000, 0.000000000000000000, -1.000000000000000000 ) ) ;
#935 = ORIENTED_EDGE ( 'NONE', *, *, #1175, .T. ) ;
#936 = FACE_OUTER_BOUND ( 'NONE', #774, .T. ) ;
#937 = PLANE ( 'NONE',  #1008 ) ;
#938 = EDGE_CURVE ( 'NONE', #720, #1093, #182, .T. ) ;
#939 = CARTESIAN_POINT ( 'NONE',  ( 27.00000000000000000, 11.50000000000000000, 8.000000000000000000 ) ) ;
#940 = LINE ( 'NONE', #1036, #951 ) ;
#941 = ORIENTED_EDGE ( 'NONE', *, *, #448, .T. ) ;
#942 = DIRECTION ( 'NONE',  ( -0.000000000000000000, -0.000000000000000000, -1.000000000000000000 ) ) ;
#943 = CARTESIAN_POINT ( 'NONE',  ( 37.62052589244299838, 10.19999999999999929, 18.85000000000000142 ) ) ;
#944 = CARTESIAN_POINT ( 'NONE',  ( 37.62052589244299838, 10.19999999999999929, 21.00000000000000000 ) ) ;
#945 = CARTESIAN_POINT ( 'NONE',  ( 23.00000000000000000, 15.00000000000000000, 4.000000000000000000 ) ) ;
#946 = ORIENTED_EDGE ( 'NONE', *, *, #49, .F. ) ;
#947 = DIRECTION ( 'NONE',  ( 0.000000000000000000, 0.000000000000000000, -1.000000000000000000 ) ) ;
#948 = FACE_OUTER_BOUND ( 'NONE', #669, .T. ) ;
#949 = AXIS2_PLACEMENT_3D ( 'NONE', #369, #263, #950 ) ;
#950 = DIRECTION ( 'NONE',  ( 0.000000000000000000, -0.000000000000000000, -1.000000000000000000 ) ) ;
#951 = VECTOR ( 'NONE', #1199, 1000.000000000000000 ) ;
#952 = CARTESIAN_POINT ( 'NONE',  ( 27.00000000000000000, -11.50000000000000000, 4.000000000000000000 ) ) ;
#953 = ORIENTED_EDGE ( 'NONE', *, *, #1029, .F. ) ;
#954 = EDGE_CURVE ( 'NONE', #382, #144, #1, .T. ) ;
#955 = LINE ( 'NONE', #763, #282 ) ;
#956 = EDGE_LOOP ( 'NONE', ( #232, #427, #6, #230 ) ) ;
#957 = DIRECTION ( 'NONE',  ( 0.000000000000000000, 0.000000000000000000, -1.000000000000000000 ) ) ;
#958 = DIRECTION ( 'NONE',  ( -1.000000000000000000, 0.000000000000000000, 0.000000000000000000 ) ) ;
#959 = ORIENTED_EDGE ( 'NONE', *, *, #129, .F. ) ;
#960 = EDGE_CURVE ( 'NONE', #742, #996, #558, .T. ) ;
#961 = FACE_OUTER_BOUND ( 'NONE', #371, .T. ) ;
#962 = VERTEX_POINT ( 'NONE', #483 ) ;
#963 = DIRECTION ( 'NONE',  ( 0.000000000000000000, 0.000000000000000000, -1.000000000000000000 ) ) ;
#964 = ORIENTED_EDGE ( 'NONE', *, *, #977, .F. ) ;
#965 = CARTESIAN_POINT ( 'NONE',  ( 32.62052589244299838, 10.19999999999999929, 21.00000000000000000 ) ) ;
#966 = VERTEX_POINT ( 'NONE', #462 ) ;
#967 = CC_DESIGN_PERSON_AND_ORGANIZATION_ASSIGNMENT ( #342, #1012, ( #715 ) ) ;
#968 = EDGE_CURVE ( 'NONE', #1093, #131, #1041, .T. ) ;
#969 = CIRCLE ( 'NONE', #1128, 1.700000000000000178 ) ;
#970 = CARTESIAN_POINT ( 'NONE',  ( 62.00000000000000000, 15.00000000000000000, 8.000000000000000000 ) ) ;
#971 = AXIS2_PLACEMENT_3D ( 'NONE', #1167, #380, #289 ) ;
#972 = VECTOR ( 'NONE', #863, 1000.000000000000000 ) ;
#973 = DIRECTION ( 'NONE',  ( -1.000000000000000000, 0.000000000000000000, 0.000000000000000000 ) ) ;
#974 = VECTOR ( 'NONE', #499, 1000.000000000000000 ) ;
#975 = CARTESIAN_POINT ( 'NONE',  ( 58.00000000000000000, 11.50000000000000000, 25.99999999999999645 ) ) ;
#976 = ORIENTED_EDGE ( 'NONE', *, *, #489, .F. ) ;
#977 = EDGE_CURVE ( 'NONE', #966, #409, #278, .T. ) ;
#978 = CALENDAR_DATE ( 2026, 12, 9 ) ;
#979 = DIRECTION ( 'NONE',  ( 0.000000000000000000, 0.000000000000000000, 1.000000000000000000 ) ) ;
#980 = CARTESIAN_POINT ( 'NONE',  ( 42.62052589244299838, -10.19999999999999929, 15.71293199324855294 ) ) ;
#981 = EDGE_LOOP ( 'NONE', ( #330, #240 ) ) ;
#982 = DIRECTION ( 'NONE',  ( 1.000000000000000000, 0.000000000000000000, 0.000000000000000000 ) ) ;
#983 = CARTESIAN_POINT ( 'NONE',  ( 51.82052589244400309, 14.19999999999999929, 13.00000000000000000 ) ) ;
#984 = CARTESIAN_POINT ( 'NONE',  ( 46.82052589244400309, -14.20000000000000107, 13.00000000000000000 ) ) ;
#985 = ORIENTED_EDGE ( 'NONE', *, *, #1192, .F. ) ;
#986 = DATE_TIME_ROLE ( 'creation_date' ) ;
#987 = ORIENTED_EDGE ( 'NONE', *, *, #468, .T. ) ;
#988 = AXIS2_PLACEMENT_3D ( 'NONE', #458, #1145, #1139 ) ;
#989 = DIRECTION ( 'NONE',  ( 0.000000000000000000, 1.000000000000000000, 0.000000000000000000 ) ) ;
#990 = LINE ( 'NONE', #121, #198 ) ;
#991 = EDGE_CURVE ( 'NONE', #647, #536, #264, .T. ) ;
#992 = AXIS2_PLACEMENT_3D ( 'NONE', #93, #1236, #872 ) ;
#993 = ORIENTED_EDGE ( 'NONE', *, *, #637, .F. ) ;
#994 = EDGE_CURVE ( 'NONE', #757, #1223, #544, .T. ) ;
#995 = DIRECTION ( 'NONE',  ( 0.000000000000000000, 1.000000000000000000, 0.000000000000000000 ) ) ;
#996 = VERTEX_POINT ( 'NONE', #1066 ) ;
#997 = DIRECTION ( 'NONE',  ( -1.000000000000000000, -0.000000000000000000, -0.000000000000000000 ) ) ;
#998 = CARTESIAN_POINT ( 'NONE',  ( 56.30000000000000426, -11.50000000000000000, 4.000000000000000000 ) ) ;
#999 = ORIENTED_EDGE ( 'NONE', *, *, #106, .F. ) ;
#1000 = ADVANCED_FACE ( 'NONE', ( #652, #1247, #1056, #83, #857, #377, #771 ), #777, .F. ) ;
#1001 = CYLINDRICAL_SURFACE ( 'NONE', #357, 2.149999999999999023 ) ;
#1002 = ORIENTED_EDGE ( 'NONE', *, *, #286, .T. ) ;
#1003 = CYLINDRICAL_SURFACE ( 'NONE', #914, 2.149999999999999023 ) ;
#1004 = DIRECTION ( 'NONE',  ( -0.000000000000000000, -0.000000000000000000, 1.000000000000000000 ) ) ;
#1005 = EDGE_LOOP ( 'NONE', ( #1180, #846, #573, #316 ) ) ;
#1006 = EDGE_CURVE ( 'NONE', #183, #179, #727, .T. ) ;
#1007 = EDGE_LOOP ( 'NONE', ( #288, #519, #412, #632 ) ) ;
#1008 = AXIS2_PLACEMENT_3D ( 'NONE', #1114, #733, #239 ) ;
#1009 = DIRECTION ( 'NONE',  ( -0.000000000000000000, -1.000000000000000000, -0.000000000000000000 ) ) ;
#1010 = ORIENTED_EDGE ( 'NONE', *, *, #368, .F. ) ;
#1011 = AXIS2_PLACEMENT_3D ( 'NONE', #2, #388, #778 ) ;
#1012 = PERSON_AND_ORGANIZATION_ROLE ( 'design_supplier' ) ;
#1013 = CIRCLE ( 'NONE', #1054, 2.149999999999999023 ) ;
#1014 = ORIENTED_EDGE ( 'NONE', *, *, #368, .T. ) ;
#1015 = EDGE_CURVE ( 'NONE', #742, #1174, #421, .T. ) ;
#1016 = CARTESIAN_POINT ( 'NONE',  ( 46.82052589244400309, 15.00000000000000355, 10.84999999999999964 ) ) ;
#1017 = ORIENTED_EDGE ( 'NONE', *, *, #1082, .T. ) ;
#1018 = CYLINDRICAL_SURFACE ( 'NONE', #459, 2.149999999999999023 ) ;
#1019 = EDGE_LOOP ( 'NONE', ( #76, #223, #1245, #999 ) ) ;
#1020 = LINE ( 'NONE', #1016, #644 ) ;
#1021 = ORIENTED_EDGE ( 'NONE', *, *, #876, .T. ) ;
#1022 = EDGE_CURVE ( 'NONE', #1174, #860, #659, .T. ) ;
#1023 = FACE_OUTER_BOUND ( 'NONE', #516, .T. ) ;
#1024 = FACE_OUTER_BOUND ( 'NONE', #1007, .T. ) ;
#1025 = FACE_OUTER_BOUND ( 'NONE', #510, .T. ) ;
#1026 = DIRECTION ( 'NONE',  ( 0.000000000000000000, 0.000000000000000000, -1.000000000000000000 ) ) ;
#1027 = VERTEX_POINT ( 'NONE', #750 ) ;
#1028 = AXIS2_PLACEMENT_3D ( 'NONE', #739, #457, #72 ) ;
#1029 = EDGE_CURVE ( 'NONE', #1127, #1201, #174, .T. ) ;
#1030 = LINE ( 'NONE', #1129, #1170 ) ;
#1031 = AXIS2_PLACEMENT_3D ( 'NONE', #305, #683, #1084 ) ;
#1032 = DIRECTION ( 'NONE',  ( -0.000000000000000000, 1.000000000000000000, -0.000000000000000000 ) ) ;
#1033 = VECTOR ( 'NONE', #997, 1000.000000000000000 ) ;
#1034 = CIRCLE ( 'NONE', #488, 4.999999999999995559 ) ;
#1035 = CARTESIAN_POINT ( 'NONE',  ( 27.00000000000000000, 11.50000000000000000, 8.000000000000000000 ) ) ;
#1036 = CARTESIAN_POINT ( 'NONE',  ( 42.62052589244299838, -14.19999999999999929, 21.00000000000000000 ) ) ;
#1037 = ORIENTED_EDGE ( 'NONE', *, *, #968, .F. ) ;
#1038 = CARTESIAN_POINT ( 'NONE',  ( 46.82052589244400309, 15.00000000000000355, 10.84999999999999964 ) ) ;
#1039 = DIRECTION ( 'NONE',  ( -1.000000000000000000, 0.000000000000000000, 0.000000000000000000 ) ) ;
#1040 = FACE_BOUND ( 'NONE', #1057, .T. ) ;
#1041 = LINE ( 'NONE', #852, #1211 ) ;
#1042 = ORIENTED_EDGE ( 'NONE', *, *, #537, .F. ) ;
#1043 = DIRECTION ( 'NONE',  ( 0.000000000000000000, 0.000000000000000000, -1.000000000000000000 ) ) ;
#1044 = FACE_BOUND ( 'NONE', #569, .T. ) ;
#1045 = CARTESIAN_POINT ( 'NONE',  ( 32.62052589244299838, 10.19999999999999929, 8.000000000000000000 ) ) ;
#1046 = EDGE_CURVE ( 'NONE', #603, #1081, #126, .T. ) ;
#1047 = CARTESIAN_POINT ( 'NONE',  ( 28.69999999999999929, -11.50000000000000000, 25.99999999999999645 ) ) ;
#1048 = VERTEX_POINT ( 'NONE', #224 ) ;
#1049 = CARTESIAN_POINT ( 'NONE',  ( 42.62052589244299838, -14.19999999999999929, 15.71293199324855294 ) ) ;
#1050 = ORIENTED_EDGE ( 'NONE', *, *, #1192, .T. ) ;
#1051 = CLOSED_SHELL ( 'NONE', ( #692, #259, #783, #1200, #220, #235, #425, #656, #231, #1000, #575, #503, #518, #1181, #345, #123, #184, #189, #92, #480, #806, #472, #313, #1162, #274, #250, #242, #540, #414, #336, #1100, #549, #1055, #557, #900, #1155 ) ) ;
#1052 = CARTESIAN_POINT ( 'NONE',  ( 51.82052589244400309, 10.19999999999999929, 13.00000000000000000 ) ) ;
#1053 = AXIS2_PLACEMENT_3D ( 'NONE', #1136, #995, #538 ) ;
#1054 = AXIS2_PLACEMENT_3D ( 'NONE', #917, #454, #934 ) ;
#1055 = ADVANCED_FACE ( 'NONE', ( #20 ), #324, .F. ) ;
#1056 = FACE_BOUND ( 'NONE', #819, .T. ) ;
#1057 = EDGE_LOOP ( 'NONE', ( #522, #1206 ) ) ;
#1058 = FACE_OUTER_BOUND ( 'NONE', #3, .T. ) ;
#1059 = ORIENTED_EDGE ( 'NONE', *, *, #686, .F. ) ;
#1060 = DIRECTION ( 'NONE',  ( 0.000000000000000000, 0.000000000000000000, -1.000000000000000000 ) ) ;
#1061 = EDGE_LOOP ( 'NONE', ( #1010, #534, #32, #593 ) ) ;
#1062 = CARTESIAN_POINT ( 'NONE',  ( 51.82052589244400309, 10.19999999999999929, 13.00000000000000000 ) ) ;
#1063 = EDGE_CURVE ( 'NONE', #915, #617, #605, .T. ) ;
#1064 = EDGE_LOOP ( 'NONE', ( #429, #528 ) ) ;
#1065 = APPROVAL_STATUS ( 'not_yet_approved' ) ;
#1066 = CARTESIAN_POINT ( 'NONE',  ( 25.30000000000000071, -11.50000000000000000, 4.000000000000000000 ) ) ;
#1067 = CARTESIAN_POINT ( 'NONE',  ( 37.62052589244299838, 15.00000000000000355, 21.00000000000000000 ) ) ;
#1068 = CC_DESIGN_PERSON_AND_ORGANIZATION_ASSIGNMENT ( #785, #1076, ( #461 ) ) ;
#1069 = AXIS2_PLACEMENT_3D ( 'NONE', #1035, #253, #849 ) ;
#1070 = DIRECTION ( 'NONE',  ( 0.000000000000000000, 1.000000000000000000, 0.000000000000000000 ) ) ;
#1071 = CIRCLE ( 'NONE', #1053, 4.999999999999997335 ) ;
#1072 = VECTOR ( 'NONE', #802, 1000.000000000000000 ) ;
#1073 = DIRECTION ( 'NONE',  ( -1.000000000000000000, 0.000000000000000000, 0.000000000000000000 ) ) ;
#1074 = DIRECTION ( 'NONE',  ( -0.000000000000000000, -1.000000000000000000, -0.000000000000000000 ) ) ;
#1075 = ORIENTED_EDGE ( 'NONE', *, *, #209, .F. ) ;
#1076 = PERSON_AND_ORGANIZATION_ROLE ( 'design_owner' ) ;
#1077 = DIRECTION ( 'NONE',  ( -1.000000000000000000, 0.000000000000000000, 0.000000000000000000 ) ) ;
#1078 = CARTESIAN_POINT ( 'NONE',  ( 32.62052589244299838, -10.19999999999999929, 8.000000000000000000 ) ) ;
#1079 = ORIENTED_EDGE ( 'NONE', *, *, #581, .T. ) ;
#1080 = DATE_AND_TIME ( #680, #1096 ) ;
#1081 = VERTEX_POINT ( 'NONE', #781 ) ;
#1082 = EDGE_CURVE ( 'NONE', #244, #1048, #932, .T. ) ;
#1083 = DIRECTION ( 'NONE',  ( 1.000000000000000000, 0.000000000000000000, 0.000000000000000000 ) ) ;
#1084 = DIRECTION ( 'NONE',  ( 0.000000000000000000, 0.000000000000000000, -1.000000000000000000 ) ) ;
#1085 = ORIENTED_EDGE ( 'NONE', *, *, #374, .T. ) ;
#1086 = CARTESIAN_POINT ( 'NONE',  ( 46.82052589244400309, 10.19999999999999929, 15.14999999999999858 ) ) ;
#1087 = EDGE_LOOP ( 'NONE', ( #206, #926, #405, #96 ) ) ;
#1088 = VECTOR ( 'NONE', #396, 1000.000000000000000 ) ;
#1089 = CARTESIAN_POINT ( 'NONE',  ( 51.82052589244400309, -14.19999999999999929, 8.000000000000000000 ) ) ;
#1090 = EDGE_CURVE ( 'NONE', #144, #164, #807, .T. ) ;
#1091 = DIRECTION ( 'NONE',  ( -1.000000000000000000, 0.000000000000000000, 0.000000000000000000 ) ) ;
#1092 = VECTOR ( 'NONE', #1070, 1000.000000000000000 ) ;
#1093 = VERTEX_POINT ( 'NONE', #1166 ) ;
#1094 = DIRECTION ( 'NONE',  ( 0.000000000000000000, 0.000000000000000000, -1.000000000000000000 ) ) ;
#1095 = ORIENTED_EDGE ( 'NONE', *, *, #537, .T. ) ;
#1096 = LOCAL_TIME ( 15, 1, 20.00000000000000000, #780 ) ;
#1097 = FACE_OUTER_BOUND ( 'NONE', #580, .T. ) ;
#1098 = CARTESIAN_POINT ( 'NONE',  ( 51.82052589244400309, -10.19999999999999929, 13.00000000000000000 ) ) ;
#1099 = ORIENTED_EDGE ( 'NONE', *, *, #33, .T. ) ;
#1100 = ADVANCED_FACE ( 'NONE', ( #600 ), #1003, .F. ) ;
#1101 = FACE_OUTER_BOUND ( 'NONE', #104, .T. ) ;
#1102 = VERTEX_POINT ( 'NONE', #1178 ) ;
#1103 = DIRECTION ( 'NONE',  ( -0.000000000000000000, -1.000000000000000000, -0.000000000000000000 ) ) ;
#1104 = ORIENTED_EDGE ( 'NONE', *, *, #1229, .F. ) ;
#1105 = SECURITY_CLASSIFICATION_LEVEL ( 'unclassified' ) ;
#1106 = APPROVAL ( #408, 'UNSPECIFIED' ) ;
#1107 = ORIENTED_EDGE ( 'NONE', *, *, #161, .F. ) ;
#1108 = AXIS2_PLACEMENT_3D ( 'NONE', #655, #166, #1212 ) ;
#1109 = CARTESIAN_POINT ( 'NONE',  ( 32.62052589244299838, 14.19999999999999929, 8.000000000000000000 ) ) ;
#1110 = ORIENTED_EDGE ( 'NONE', *, *, #601, .F. ) ;
#1111 = AXIS2_PLACEMENT_3D ( 'NONE', #984, #890, #299 ) ;
#1112 = APPROVAL_ROLE ( '' ) ;
#1113 = VECTOR ( 'NONE', #352, 1000.000000000000000 ) ;
#1114 = CARTESIAN_POINT ( 'NONE',  ( 51.82052589244400309, -10.19999999999999929, 13.00000000000000000 ) ) ;
#1115 = ORIENTED_EDGE ( 'NONE', *, *, #407, .F. ) ;
#1116 = DIRECTION ( 'NONE',  ( 0.000000000000000000, 0.000000000000000000, -1.000000000000000000 ) ) ;
#1117 = ORIENTED_EDGE ( 'NONE', *, *, #1006, .F. ) ;
#1118 = LINE ( 'NONE', #554, #178 ) ;
#1119 = DIRECTION ( 'NONE',  ( -0.000000000000000000, 1.000000000000000000, -0.000000000000000000 ) ) ;
#1120 = EDGE_CURVE ( 'NONE', #905, #559, #707, .T. ) ;
#1121 = LINE ( 'NONE', #833, #258 ) ;
#1122 = ORIENTED_EDGE ( 'NONE', *, *, #275, .T. ) ;
#1123 = CARTESIAN_POINT ( 'NONE',  ( 59.70000000000000284, 11.50000000000000000, 25.99999999999999645 ) ) ;
#1124 = DIRECTION ( 'NONE',  ( 0.000000000000000000, -0.000000000000000000, -1.000000000000000000 ) ) ;
#1125 = FACE_BOUND ( 'NONE', #1159, .T. ) ;
#1126 = DIRECTION ( 'NONE',  ( 0.000000000000000000, 0.000000000000000000, 1.000000000000000000 ) ) ;
#1127 = VERTEX_POINT ( 'NONE', #615 ) ;
#1128 = AXIS2_PLACEMENT_3D ( 'NONE', #59, #50, #649 ) ;
#1129 = CARTESIAN_POINT ( 'NONE',  ( 46.82052589244400309, 15.00000000000000355, 15.14999999999999858 ) ) ;
#1130 = PLANE ( 'NONE',  #1108 ) ;
#1131 = VECTOR ( 'NONE', #1083, 1000.000000000000000 ) ;
#1132 = CIRCLE ( 'NONE', #38, 1.700000000000000178 ) ;
#1133 = DIRECTION ( 'NONE',  ( 0.000000000000000000, -1.000000000000000000, 0.000000000000000000 ) ) ;
#1134 = DIRECTION ( 'NONE',  ( -0.000000000000000000, 1.000000000000000000, -0.000000000000000000 ) ) ;
#1135 = ORIENTED_EDGE ( 'NONE', *, *, #113, .F. ) ;
#1136 = CARTESIAN_POINT ( 'NONE',  ( 37.62052589244299838, 14.19999999999999929, 21.00000000000000000 ) ) ;
#1137 = CYLINDRICAL_SURFACE ( 'NONE', #77, 4.999999999999997335 ) ;
#1138 = EDGE_CURVE ( 'NONE', #326, #805, #1034, .T. ) ;
#1139 = DIRECTION ( 'NONE',  ( -1.000000000000000000, 0.000000000000000000, 0.000000000000000000 ) ) ;
#1140 = CARTESIAN_POINT ( 'NONE',  ( 46.82052589244400309, 10.19999999999999929, 13.00000000000000000 ) ) ;
#1141 = ORIENTED_EDGE ( 'NONE', *, *, #954, .F. ) ;
#1142 = DIRECTION ( 'NONE',  ( 0.000000000000000000, -1.000000000000000000, 0.000000000000000000 ) ) ;
#1143 = VERTEX_POINT ( 'NONE', #27 ) ;
#1144 = EDGE_CURVE ( 'NONE', #805, #179, #298, .T. ) ;
#1145 = DIRECTION ( 'NONE',  ( -0.000000000000000000, -0.000000000000000000, 1.000000000000000000 ) ) ;
#1146 = CARTESIAN_POINT ( 'NONE',  ( 23.00000000000000000, -15.00000000000000000, 8.000000000000000000 ) ) ;
#1147 = ORIENTED_EDGE ( 'NONE', *, *, #351, .F. ) ;
#1148 = CARTESIAN_POINT ( 'NONE',  ( 23.00000000000000000, -15.00000000000000000, 8.000000000000000000 ) ) ;
#1149 = EDGE_LOOP ( 'NONE', ( #902, #1122, #1107, #422 ) ) ;
#1150 = AXIS2_PLACEMENT_3D ( 'NONE', #1235, #663, #268 ) ;
#1151 = CIRCLE ( 'NONE', #811, 1.700000000000000178 ) ;
#1152 = FACE_BOUND ( 'NONE', #981, .T. ) ;
#1153 = DESIGN_CONTEXT ( 'detailed design', #23, 'design' ) ;
#1154 = AXIS2_PLACEMENT_3D ( 'NONE', #155, #248, #721 ) ;
#1155 = ADVANCED_FACE ( 'NONE', ( #4 ), #120, .F. ) ;
#1156 = CARTESIAN_POINT ( 'NONE',  ( 27.00000000000000000, -11.50000000000000000, 8.000000000000000000 ) ) ;
#1157 = ORIENTED_EDGE ( 'NONE', *, *, #650, .T. ) ;
#1158 = FACE_OUTER_BOUND ( 'NONE', #956, .T. ) ;
#1159 = EDGE_LOOP ( 'NONE', ( #186, #699 ) ) ;
#1160 = CARTESIAN_POINT ( 'NONE',  ( 0.000000000000000000, 0.000000000000000000, 0.000000000000000000 ) ) ;
#1161 = CARTESIAN_POINT ( 'NONE',  ( 58.00000000000000000, -11.50000000000000000, 25.99999999999999645 ) ) ;
#1162 = ADVANCED_FACE ( 'NONE', ( #308, #877, #1097 ), #491, .F. ) ;
#1163 = FACE_OUTER_BOUND ( 'NONE', #691, .T. ) ;
#1164 = ORIENTED_EDGE ( 'NONE', *, *, #823, .F. ) ;
#1165 = COORDINATED_UNIVERSAL_TIME_OFFSET ( 6, 0, .BEHIND. ) ;
#1166 = CARTESIAN_POINT ( 'NONE',  ( 32.62052589244299838, 14.19999999999999929, 21.00000000000000000 ) ) ;
#1167 = CARTESIAN_POINT ( 'NONE',  ( 23.00000000000000000, -15.00000000000000000, 8.000000000000000000 ) ) ;
#1168 = ORIENTED_EDGE ( 'NONE', *, *, #767, .F. ) ;
#1169 = LINE ( 'NONE', #384, #974 ) ;
#1170 = VECTOR ( 'NONE', #907, 1000.000000000000000 ) ;
#1171 = VECTOR ( 'NONE', #761, 1000.000000000000000 ) ;
#1172 = CARTESIAN_POINT ( 'NONE',  ( 42.62052589244299838, 14.19999999999999929, 15.71293199324855294 ) ) ;
#1173 = DIRECTION ( 'NONE',  ( -0.000000000000000000, -0.000000000000000000, 1.000000000000000000 ) ) ;
#1174 = VERTEX_POINT ( 'NONE', #496 ) ;
#1175 = EDGE_CURVE ( 'NONE', #290, #1143, #645, .T. ) ;
#1176 =( LENGTH_UNIT ( ) NAMED_UNIT ( * ) SI_UNIT ( .MILLI., .METRE. ) );
#1177 = ORIENTED_EDGE ( 'NONE', *, *, #68, .F. ) ;
#1178 = CARTESIAN_POINT ( 'NONE',  ( 25.30000000000000071, 11.50000000000000000, 4.000000000000000000 ) ) ;
#1179 = DIRECTION ( 'NONE',  ( -0.000000000000000000, -1.000000000000000000, -0.000000000000000000 ) ) ;
#1180 = ORIENTED_EDGE ( 'NONE', *, *, #431, .T. ) ;
#1181 = ADVANCED_FACE ( 'NONE', ( #112 ), #314, .F. ) ;
#1182 = CALENDAR_DATE ( 2026, 12, 9 ) ;
#1183 = VERTEX_POINT ( 'NONE', #1089 ) ;
#1184 = CARTESIAN_POINT ( 'NONE',  ( 46.82052589244400309, -10.19999999999999751, 13.00000000000000000 ) ) ;
#1185 = LINE ( 'NONE', #712, #1088 ) ;
#1186 = ORIENTED_EDGE ( 'NONE', *, *, #1229, .T. ) ;
#1187 = PLANE ( 'NONE',  #1209 ) ;
#1188 = ORIENTED_EDGE ( 'NONE', *, *, #726, .F. ) ;
#1189 = AXIS2_PLACEMENT_3D ( 'NONE', #262, #1032, #634 ) ;
#1190 = CIRCLE ( 'NONE', #643, 1.700000000000000178 ) ;
#1191 = CARTESIAN_POINT ( 'NONE',  ( 46.82052589244400309, -10.19999999999999929, 13.00000000000000000 ) ) ;
#1192 = EDGE_CURVE ( 'NONE', #326, #183, #787, .T. ) ;
#1193 = AXIS2_PLACEMENT_3D ( 'NONE', #925, #449, #441 ) ;
#1194 = CARTESIAN_POINT ( 'NONE',  ( 58.00000000000000000, 11.50000000000000000, 8.000000000000000000 ) ) ;
#1195 = EDGE_LOOP ( 'NONE', ( #892, #597 ) ) ;
#1196 = CARTESIAN_POINT ( 'NONE',  ( 28.69999999999999929, 11.50000000000000000, 8.000000000000000000 ) ) ;
#1197 = ORIENTED_EDGE ( 'NONE', *, *, #743, .F. ) ;
#1198 = CC_DESIGN_APPROVAL ( #1106, ( #715 ) ) ;
#1199 = DIRECTION ( 'NONE',  ( 0.000000000000000000, 0.000000000000000000, -1.000000000000000000 ) ) ;
#1200 = ADVANCED_FACE ( 'NONE', ( #888 ), #909, .F. ) ;
#1201 = VERTEX_POINT ( 'NONE', #816 ) ;
#1202 = EDGE_LOOP ( 'NONE', ( #122, #435, #855, #221 ) ) ;
#1203 = DIRECTION ( 'NONE',  ( -0.000000000000000000, -0.000000000000000000, -1.000000000000000000 ) ) ;
#1204 = ORIENTED_EDGE ( 'NONE', *, *, #197, .T. ) ;
#1205 = CYLINDRICAL_SURFACE ( 'NONE', #1028, 2.149999999999999023 ) ;
#1206 = ORIENTED_EDGE ( 'NONE', *, *, #202, .T. ) ;
#1207 = DIRECTION ( 'NONE',  ( 0.000000000000000000, 0.000000000000000000, -1.000000000000000000 ) ) ;
#1208 = ORIENTED_EDGE ( 'NONE', *, *, #829, .F. ) ;
#1209 = AXIS2_PLACEMENT_3D ( 'NONE', #261, #613, #1224 ) ;
#1210 = PERSON_AND_ORGANIZATION_ROLE ( 'classification_officer' ) ;
#1211 = VECTOR ( 'NONE', #169, 1000.000000000000000 ) ;
#1212 = DIRECTION ( 'NONE',  ( 0.000000000000000000, -0.000000000000000000, -1.000000000000000000 ) ) ;
#1213 = EDGE_CURVE ( 'NONE', #140, #1248, #260, .T. ) ;
#1214 = VERTEX_POINT ( 'NONE', #970 ) ;
#1215 = CC_DESIGN_APPROVAL ( #526, ( #844 ) ) ;
#1216 = DIRECTION ( 'NONE',  ( -0.000000000000000000, -1.000000000000000000, -0.000000000000000000 ) ) ;
#1217 = EDGE_LOOP ( 'NONE', ( #821, #1014, #946, #16 ) ) ;
#1218 = CARTESIAN_POINT ( 'NONE',  ( 51.82052589244400309, 14.19999999999999929, 8.000000000000000000 ) ) ;
#1219 = FACE_OUTER_BOUND ( 'NONE', #918, .T. ) ;
#1220 = LINE ( 'NONE', #469, #827 ) ;
#1221 = EDGE_CURVE ( 'NONE', #532, #1048, #1169, .T. ) ;
#1222 = CARTESIAN_POINT ( 'NONE',  ( 37.62052589244299838, 14.19999999999999929, 23.15000000000000213 ) ) ;
#1223 = VERTEX_POINT ( 'NONE', #880 ) ;
#1224 = DIRECTION ( 'NONE',  ( 0.000000000000000000, -0.000000000000000000, -1.000000000000000000 ) ) ;
#1225 = DIRECTION ( 'NONE',  ( 0.000000000000000000, 0.000000000000000000, -1.000000000000000000 ) ) ;
#1226 = FACE_BOUND ( 'NONE', #94, .T. ) ;
#1227 = DIRECTION ( 'NONE',  ( 0.000000000000000000, 1.000000000000000000, 0.000000000000000000 ) ) ;
#1228 = ORIENTED_EDGE ( 'NONE', *, *, #489, .T. ) ;
#1229 = EDGE_CURVE ( 'NONE', #697, #1102, #775, .T. ) ;
#1230 = VECTOR ( 'NONE', #924, 1000.000000000000000 ) ;
#1231 = LINE ( 'NONE', #150, #523 ) ;
#1232 = VECTOR ( 'NONE', #31, 1000.000000000000000 ) ;
#1233 = CARTESIAN_POINT ( 'NONE',  ( 32.62052589244299838, -14.19999999999999929, 8.000000000000000000 ) ) ;
#1234 = VECTOR ( 'NONE', #329, 1000.000000000000000 ) ;
#1235 = CARTESIAN_POINT ( 'NONE',  ( 0.000000000000000000, 0.000000000000000000, 4.000000000000000000 ) ) ;
#1236 = DIRECTION ( 'NONE',  ( -0.000000000000000000, 1.000000000000000000, -0.000000000000000000 ) ) ;
#1237 = ORIENTED_EDGE ( 'NONE', *, *, #1046, .F. ) ;
#1238 = EDGE_CURVE ( 'NONE', #1201, #962, #594, .T. ) ;
#1239 = CARTESIAN_POINT ( 'NONE',  ( 37.62052589244299838, 10.19999999999999929, 21.00000000000000000 ) ) ;
#1240 = ORIENTED_EDGE ( 'NONE', *, *, #1015, .F. ) ;
#1241 = PLANE ( 'NONE',  #1150 ) ;
#1242 = CARTESIAN_POINT ( 'NONE',  ( 37.62052589244299838, -10.19999999999999751, 21.00000000000000000 ) ) ;
#1243 = EDGE_LOOP ( 'NONE', ( #1240, #1168 ) ) ;
#1244 = DIRECTION ( 'NONE',  ( -1.000000000000000000, -0.000000000000000000, -0.000000000000000000 ) ) ;
#1245 = ORIENTED_EDGE ( 'NONE', *, *, #1046, .T. ) ;
#1246 = FACE_OUTER_BOUND ( 'NONE', #619, .T. ) ;
#1247 = FACE_BOUND ( 'NONE', #353, .T. ) ;
#1248 = VERTEX_POINT ( 'NONE', #1086 ) ;
#1249 = LINE ( 'NONE', #1062, #379 ) ;
#1250 = ORIENTED_EDGE ( 'NONE', *, *, #51, .T. ) ;
#1251 = AXIS2_PLACEMENT_3D ( 'NONE', #975, #492, #878 ) ;
#1252 = EDGE_CURVE ( 'NONE', #70, #728, #1132, .T. ) ;
#1253 = PERSON_AND_ORGANIZATION ( #765, #387 ) ;
ENDSEC;
END-ISO-10303-21;
