ISO-10303-21;
HEADER;
FILE_DESCRIPTION (( 'STEP AP203' ),
    '1' );
FILE_NAME ('ARM-206_Gripper_lug_crush_spacer_13mm.step',
    '2026-09-12T20:01:26',
    ( '' ),
    ( '' ),
    'SwSTEP 2.0',
    'SolidWorks 2026',
    '' );
FILE_SCHEMA (( 'CONFIG_CONTROL_DESIGN' ));
ENDSEC;

DATA;
#1 = CC_DESIGN_PERSON_AND_ORGANIZATION_ASSIGNMENT ( #201, #74, ( #242 ) ) ;
#2 = CARTESIAN_POINT ( 'NONE',  ( 0.000000000000000000, 0.000000000000000000, 0.000000000000000000 ) ) ;
#3 = CARTESIAN_POINT ( 'NONE',  ( 2.149999999999999911, 2.632990618166808742E-16, 13.00000000000000000 ) ) ;
#4 = CYLINDRICAL_SURFACE ( 'NONE', #118, 2.149999999999999911 ) ;
#5 = CARTESIAN_POINT ( 'NONE',  ( 2.149999999999999911, 2.632990618166808742E-16, 13.00000000000000000 ) ) ;
#6 = DIRECTION ( 'NONE',  ( 0.000000000000000000, 0.000000000000000000, 1.000000000000000000 ) ) ;
#7 = DATE_AND_TIME ( #167, #188 ) ;
#8 = LOCAL_TIME ( 15, 1, 26.00000000000000000, #184 ) ;
#9 = EDGE_CURVE ( 'NONE', #191, #187, #140, .T. ) ;
#10 = PERSON_AND_ORGANIZATION_ROLE ( 'design_supplier' ) ;
#11 = PERSON_AND_ORGANIZATION ( #231, #29 ) ;
#12 = PERSON_AND_ORGANIZATION_ROLE ( 'creator' ) ;
#13 = CC_DESIGN_PERSON_AND_ORGANIZATION_ASSIGNMENT ( #204, #12, ( #240 ) ) ;
#14 = APPROVAL_DATE_TIME ( #163, #152 ) ;
#15 = PRODUCT_RELATED_PRODUCT_CATEGORY ( 'detail', '', ( #120 ) ) ;
#16 = VERTEX_POINT ( 'NONE', #130 ) ;
#17 = FACE_OUTER_BOUND ( 'NONE', #229, .T. ) ;
#18 = ORIENTED_EDGE ( 'NONE', *, *, #232, .F. ) ;
#19 = DIRECTION ( 'NONE',  ( 0.000000000000000000, 0.000000000000000000, 1.000000000000000000 ) ) ;
#20 = ADVANCED_FACE ( 'NONE', ( #17, #206 ), #169, .T. ) ;
#21 = AXIS2_PLACEMENT_3D ( 'NONE', #237, #86, #63 ) ;
#22 = ORIENTED_EDGE ( 'NONE', *, *, #91, .T. ) ;
#23 = DIRECTION ( 'NONE',  ( -1.000000000000000000, 0.000000000000000000, 0.000000000000000000 ) ) ;
#24 = DIRECTION ( 'NONE',  ( 1.000000000000000000, 0.000000000000000000, 0.000000000000000000 ) ) ;
#25 = VECTOR ( 'NONE', #121, 1000.000000000000000 ) ;
#26 = UNCERTAINTY_MEASURE_WITH_UNIT (LENGTH_MEASURE( 1.000000000000000082E-05 ), #27, 'distance_accuracy_value', 'NONE');
#27 =( LENGTH_UNIT ( ) NAMED_UNIT ( * ) SI_UNIT ( .MILLI., .METRE. ) );
#28 = EDGE_CURVE ( 'NONE', #116, #98, #83, .T. ) ;
#29 = ORGANIZATION ( 'UNSPECIFIED', 'UNSPECIFIED', '' ) ;
#30 = MECHANICAL_CONTEXT ( 'NONE', #62, 'mechanical' ) ;
#31 = PERSON_AND_ORGANIZATION ( #231, #29 ) ;
#32 = AXIS2_PLACEMENT_3D ( 'NONE', #2, #100, #104 ) ;
#33 = APPROVAL ( #127, 'UNSPECIFIED' ) ;
#34 = ORIENTED_EDGE ( 'NONE', *, *, #232, .T. ) ;
#35 = ORIENTED_EDGE ( 'NONE', *, *, #186, .F. ) ;
#36 = CIRCLE ( 'NONE', #220, 4.000000000000000000 ) ;
#37 = DIRECTION ( 'NONE',  ( 0.000000000000000000, 0.000000000000000000, 1.000000000000000000 ) ) ;
#38 = ORIENTED_EDGE ( 'NONE', *, *, #75, .F. ) ;
#39 = ORIENTED_EDGE ( 'NONE', *, *, #91, .F. ) ;
#40 = CIRCLE ( 'NONE', #93, 2.149999999999999911 ) ;
#41 = CARTESIAN_POINT ( 'NONE',  ( 0.000000000000000000, 0.000000000000000000, 0.000000000000000000 ) ) ;
#42 = DESIGN_CONTEXT ( 'detailed design', #45, 'design' ) ;
#43 = CARTESIAN_POINT ( 'NONE',  ( 0.000000000000000000, 0.000000000000000000, 13.00000000000000000 ) ) ;
#44 = DIRECTION ( 'NONE',  ( -0.000000000000000000, -0.000000000000000000, -1.000000000000000000 ) ) ;
#45 = APPLICATION_CONTEXT ( 'configuration controlled 3d designs of mechanical parts and assemblies' ) ;
#46 = EDGE_CURVE ( 'NONE', #116, #80, #189, .T. ) ;
#47 = LINE ( 'NONE', #158, #25 ) ;
#48 = PERSON_AND_ORGANIZATION_ROLE ( 'classification_officer' ) ;
#49 = APPROVAL_PERSON_ORGANIZATION ( #50, #33, #146 ) ;
#50 = PERSON_AND_ORGANIZATION ( #231, #29 ) ;
#51 = APPLICATION_PROTOCOL_DEFINITION ( 'international standard', 'config_control_design', 1994, #45 ) ;
#52 = DIRECTION ( 'NONE',  ( 1.000000000000000000, 0.000000000000000000, 0.000000000000000000 ) ) ;
#53 = CC_DESIGN_DATE_AND_TIME_ASSIGNMENT ( #106, #238, ( #165 ) ) ;
#54 = CIRCLE ( 'NONE', #59, 4.000000000000000000 ) ;
#55 = EDGE_CURVE ( 'NONE', #98, #16, #173, .T. ) ;
#56 = DIRECTION ( 'NONE',  ( 1.000000000000000000, 0.000000000000000000, 0.000000000000000000 ) ) ;
#57 = CARTESIAN_POINT ( 'NONE',  ( -4.000000000000000000, 0.000000000000000000, 13.00000000000000000 ) ) ;
#58 = CARTESIAN_POINT ( 'NONE',  ( 0.000000000000000000, 0.000000000000000000, 13.00000000000000000 ) ) ;
#59 = AXIS2_PLACEMENT_3D ( 'NONE', #209, #37, #215 ) ;
#60 = ORIENTED_EDGE ( 'NONE', *, *, #9, .F. ) ;
#61 = EDGE_LOOP ( 'NONE', ( #148, #249 ) ) ;
#62 = APPLICATION_CONTEXT ( 'configuration controlled 3d designs of mechanical parts and assemblies' ) ;
#63 = DIRECTION ( 'NONE',  ( -1.000000000000000000, 0.000000000000000000, 0.000000000000000000 ) ) ;
#64 = AXIS2_PLACEMENT_3D ( 'NONE', #43, #82, #177 ) ;
#65 = CYLINDRICAL_SURFACE ( 'NONE', #21, 4.000000000000000000 ) ;
#66 = DIRECTION ( 'NONE',  ( 0.000000000000000000, 0.000000000000000000, 1.000000000000000000 ) ) ;
#67 = PRODUCT_DEFINITION_SHAPE ( 'NONE', 'NONE',  #242 ) ;
#68 = EDGE_CURVE ( 'NONE', #98, #116, #36, .T. ) ;
#69 = CC_DESIGN_APPROVAL ( #152, ( #242 ) ) ;
#70 = DIRECTION ( 'NONE',  ( -0.000000000000000000, -0.000000000000000000, -1.000000000000000000 ) ) ;
#71 = APPROVAL_STATUS ( 'not_yet_approved' ) ;
#72 = DATE_AND_TIME ( #144, #197 ) ;
#73 = APPLICATION_PROTOCOL_DEFINITION ( 'international standard', 'config_control_design', 1994, #62 ) ;
#74 = PERSON_AND_ORGANIZATION_ROLE ( 'creator' ) ;
#75 = EDGE_CURVE ( 'NONE', #16, #80, #54, .T. ) ;
#76 = ORIENTED_EDGE ( 'NONE', *, *, #55, .F. ) ;
#77 = DIRECTION ( 'NONE',  ( 1.000000000000000000, 0.000000000000000000, 0.000000000000000000 ) ) ;
#78 = ORIENTED_EDGE ( 'NONE', *, *, #110, .T. ) ;
#79 = CARTESIAN_POINT ( 'NONE',  ( 0.000000000000000000, 0.000000000000000000, 13.00000000000000000 ) ) ;
#80 = VERTEX_POINT ( 'NONE', #81 ) ;
#81 = CARTESIAN_POINT ( 'NONE',  ( -4.000000000000000000, 0.000000000000000000, 0.000000000000000000 ) ) ;
#82 = DIRECTION ( 'NONE',  ( -0.000000000000000000, -0.000000000000000000, -1.000000000000000000 ) ) ;
#83 = CIRCLE ( 'NONE', #208, 4.000000000000000000 ) ;
#84 = DIRECTION ( 'NONE',  ( -1.000000000000000000, 0.000000000000000000, 0.000000000000000000 ) ) ;
#85 = CARTESIAN_POINT ( 'NONE',  ( 0.000000000000000000, 0.000000000000000000, 13.00000000000000000 ) ) ;
#86 = DIRECTION ( 'NONE',  ( -0.000000000000000000, -0.000000000000000000, -1.000000000000000000 ) ) ;
#87 = CIRCLE ( 'NONE', #168, 2.149999999999999911 ) ;
#88 = PERSON_AND_ORGANIZATION ( #231, #29 ) ;
#89 = COORDINATED_UNIVERSAL_TIME_OFFSET ( 6, 0, .BEHIND. ) ;
#90 = CC_DESIGN_APPROVAL ( #123, ( #165 ) ) ;
#91 = EDGE_CURVE ( 'NONE', #187, #172, #47, .T. ) ;
#92 = EDGE_LOOP ( 'NONE', ( #244, #60 ) ) ;
#93 = AXIS2_PLACEMENT_3D ( 'NONE', #196, #216, #24 ) ;
#94 = DIRECTION ( 'NONE',  ( -0.000000000000000000, -0.000000000000000000, -1.000000000000000000 ) ) ;
#95 = ORIENTED_EDGE ( 'NONE', *, *, #75, .T. ) ;
#96 = DIRECTION ( 'NONE',  ( 0.000000000000000000, 0.000000000000000000, 1.000000000000000000 ) ) ;
#97 = CC_DESIGN_PERSON_AND_ORGANIZATION_ASSIGNMENT ( #11, #48, ( #165 ) ) ;
#98 = VERTEX_POINT ( 'NONE', #137 ) ;
#99 = ADVANCED_FACE ( 'NONE', ( #195 ), #235, .F. ) ;
#100 = DIRECTION ( 'NONE',  ( 0.000000000000000000, 0.000000000000000000, 1.000000000000000000 ) ) ;
#101 = ADVANCED_BREP_SHAPE_REPRESENTATION ( 'ARM-206_Gripper_lug_crush_spacer_13mm', ( #171, #245 ), #145 ) ;
#102 = CYLINDRICAL_SURFACE ( 'NONE', #64, 4.000000000000000000 ) ;
#103 = VECTOR ( 'NONE', #44, 1000.000000000000000 ) ;
#104 = DIRECTION ( 'NONE',  ( 1.000000000000000000, 0.000000000000000000, 0.000000000000000000 ) ) ;
#105 = CARTESIAN_POINT ( 'NONE',  ( 0.000000000000000000, 0.000000000000000000, 13.00000000000000000 ) ) ;
#106 = DATE_AND_TIME ( #164, #193 ) ;
#107 = COORDINATED_UNIVERSAL_TIME_OFFSET ( 6, 0, .BEHIND. ) ;
#108 = APPROVAL_ROLE ( '' ) ;
#109 = CARTESIAN_POINT ( 'NONE',  ( 0.000000000000000000, 0.000000000000000000, 0.000000000000000000 ) ) ;
#110 = EDGE_CURVE ( 'NONE', #80, #16, #129, .T. ) ;
#111 = CC_DESIGN_APPROVAL ( #33, ( #240 ) ) ;
#112 = ORIENTED_EDGE ( 'NONE', *, *, #46, .T. ) ;
#113 = ORIENTED_EDGE ( 'NONE', *, *, #55, .T. ) ;
#114 = ORIENTED_EDGE ( 'NONE', *, *, #134, .F. ) ;
#115 = EDGE_LOOP ( 'NONE', ( #133, #38 ) ) ;
#116 = VERTEX_POINT ( 'NONE', #155 ) ;
#117 = EDGE_CURVE ( 'NONE', #187, #191, #87, .T. ) ;
#118 = AXIS2_PLACEMENT_3D ( 'NONE', #105, #70, #84 ) ;
#119 = FACE_OUTER_BOUND ( 'NONE', #115, .T. ) ;
#120 = PRODUCT ( 'ARM-206_Gripper_lug_crush_spacer_13mm', 'ARM-206_Gripper_lug_crush_spacer_13mm', '', ( #30 ) ) ;
#121 = DIRECTION ( 'NONE',  ( -0.000000000000000000, -0.000000000000000000, -1.000000000000000000 ) ) ;
#122 = CARTESIAN_POINT ( 'NONE',  ( -2.149999999999999911, 0.000000000000000000, 13.00000000000000000 ) ) ;
#123 = APPROVAL ( #203, 'UNSPECIFIED' ) ;
#124 = COORDINATED_UNIVERSAL_TIME_OFFSET ( 6, 0, .BEHIND. ) ;
#125 = APPROVAL_PERSON_ORGANIZATION ( #128, #152, #108 ) ;
#126 = PERSON_AND_ORGANIZATION_ROLE ( 'design_owner' ) ;
#127 = APPROVAL_STATUS ( 'not_yet_approved' ) ;
#128 = PERSON_AND_ORGANIZATION ( #231, #29 ) ;
#129 = CIRCLE ( 'NONE', #32, 4.000000000000000000 ) ;
#130 = CARTESIAN_POINT ( 'NONE',  ( 4.000000000000000000, 4.898587196589411843E-16, 0.000000000000000000 ) ) ;
#131 = DIRECTION ( 'NONE',  ( 1.000000000000000000, 0.000000000000000000, -0.000000000000000000 ) ) ;
#132 = CARTESIAN_POINT ( 'NONE',  ( 4.000000000000000000, 4.898587196589411843E-16, 13.00000000000000000 ) ) ;
#133 = ORIENTED_EDGE ( 'NONE', *, *, #110, .F. ) ;
#134 = EDGE_CURVE ( 'NONE', #172, #135, #174, .T. ) ;
#135 = VERTEX_POINT ( 'NONE', #236 ) ;
#136 = VECTOR ( 'NONE', #94, 1000.000000000000000 ) ;
#137 = CARTESIAN_POINT ( 'NONE',  ( 4.000000000000000000, 4.898587196589411843E-16, 13.00000000000000000 ) ) ;
#138 = FACE_OUTER_BOUND ( 'NONE', #226, .T. ) ;
#139 = CARTESIAN_POINT ( 'NONE',  ( 0.000000000000000000, 0.000000000000000000, 13.00000000000000000 ) ) ;
#140 = CIRCLE ( 'NONE', #156, 2.149999999999999911 ) ;
#141 = FACE_OUTER_BOUND ( 'NONE', #211, .T. ) ;
#142 = ADVANCED_FACE ( 'NONE', ( #141 ), #102, .T. ) ;
#143 = DIRECTION ( 'NONE',  ( 0.000000000000000000, 0.000000000000000000, 1.000000000000000000 ) ) ;
#144 = CALENDAR_DATE ( 2026, 12, 9 ) ;
#145 =( GEOMETRIC_REPRESENTATION_CONTEXT ( 3 ) GLOBAL_UNCERTAINTY_ASSIGNED_CONTEXT ( ( #26 ) ) GLOBAL_UNIT_ASSIGNED_CONTEXT ( ( #27, #212, #217 ) ) REPRESENTATION_CONTEXT ( 'NONE', 'WORKASPACE' ) );
#146 = APPROVAL_ROLE ( '' ) ;
#147 = CALENDAR_DATE ( 2026, 12, 9 ) ;
#148 = ORIENTED_EDGE ( 'NONE', *, *, #134, .T. ) ;
#149 = ORIENTED_EDGE ( 'NONE', *, *, #28, .F. ) ;
#150 = CARTESIAN_POINT ( 'NONE',  ( 0.000000000000000000, 0.000000000000000000, 13.00000000000000000 ) ) ;
#151 = CARTESIAN_POINT ( 'NONE',  ( 0.000000000000000000, 0.000000000000000000, 13.00000000000000000 ) ) ;
#152 = APPROVAL ( #71, 'UNSPECIFIED' ) ;
#153 = ORIENTED_EDGE ( 'NONE', *, *, #28, .T. ) ;
#154 = DIRECTION ( 'NONE',  ( -0.000000000000000000, -0.000000000000000000, -1.000000000000000000 ) ) ;
#155 = CARTESIAN_POINT ( 'NONE',  ( -4.000000000000000000, 0.000000000000000000, 13.00000000000000000 ) ) ;
#156 = AXIS2_PLACEMENT_3D ( 'NONE', #58, #19, #56 ) ;
#157 = PLANE ( 'NONE',  #202 ) ;
#158 = CARTESIAN_POINT ( 'NONE',  ( -2.149999999999999911, 0.000000000000000000, 13.00000000000000000 ) ) ;
#159 = CARTESIAN_POINT ( 'NONE',  ( 0.000000000000000000, 0.000000000000000000, 0.000000000000000000 ) ) ;
#160 = ADVANCED_FACE ( 'NONE', ( #119, #179 ), #157, .F. ) ;
#161 = CC_DESIGN_SECURITY_CLASSIFICATION ( #165, ( #240 ) ) ;
#162 = SHAPE_DEFINITION_REPRESENTATION ( #67, #101 ) ;
#163 = DATE_AND_TIME ( #147, #178 ) ;
#164 = CALENDAR_DATE ( 2026, 12, 9 ) ;
#165 = SECURITY_CLASSIFICATION ( '', '', #243 ) ;
#166 = DATE_TIME_ROLE ( 'creation_date' ) ;
#167 = CALENDAR_DATE ( 2026, 12, 9 ) ;
#168 = AXIS2_PLACEMENT_3D ( 'NONE', #85, #66, #175 ) ;
#169 = PLANE ( 'NONE',  #228 ) ;
#170 = ORIENTED_EDGE ( 'NONE', *, *, #46, .F. ) ;
#171 = MANIFOLD_SOLID_BREP ( 'Spacer_between_POM_mounting_ears', #183 ) ;
#172 = VERTEX_POINT ( 'NONE', #233 ) ;
#173 = LINE ( 'NONE', #132, #224 ) ;
#174 = CIRCLE ( 'NONE', #214, 2.149999999999999911 ) ;
#175 = DIRECTION ( 'NONE',  ( 1.000000000000000000, 0.000000000000000000, 0.000000000000000000 ) ) ;
#176 = DIRECTION ( 'NONE',  ( 0.000000000000000000, 0.000000000000000000, 1.000000000000000000 ) ) ;
#177 = DIRECTION ( 'NONE',  ( -1.000000000000000000, 0.000000000000000000, 0.000000000000000000 ) ) ;
#178 = LOCAL_TIME ( 15, 1, 26.00000000000000000, #124 ) ;
#179 = FACE_BOUND ( 'NONE', #61, .T. ) ;
#180 = DIRECTION ( 'NONE',  ( 1.000000000000000000, 0.000000000000000000, 0.000000000000000000 ) ) ;
#181 = CC_DESIGN_DATE_AND_TIME_ASSIGNMENT ( #205, #166, ( #242 ) ) ;
#182 = APPROVAL_DATE_TIME ( #72, #123 ) ;
#183 = CLOSED_SHELL ( 'NONE', ( #223, #142, #20, #160, #199, #99 ) ) ;
#184 = COORDINATED_UNIVERSAL_TIME_OFFSET ( 6, 0, .BEHIND. ) ;
#185 = AXIS2_PLACEMENT_3D ( 'NONE', #139, #154, #23 ) ;
#186 = EDGE_CURVE ( 'NONE', #135, #172, #40, .T. ) ;
#187 = VERTEX_POINT ( 'NONE', #122 ) ;
#188 = LOCAL_TIME ( 15, 1, 26.00000000000000000, #107 ) ;
#189 = LINE ( 'NONE', #57, #136 ) ;
#190 = DIRECTION ( 'NONE',  ( 1.000000000000000000, 0.000000000000000000, 0.000000000000000000 ) ) ;
#191 = VERTEX_POINT ( 'NONE', #3 ) ;
#192 = EDGE_LOOP ( 'NONE', ( #76, #149, #112, #78 ) ) ;
#193 = LOCAL_TIME ( 15, 1, 26.00000000000000000, #89 ) ;
#194 = CC_DESIGN_PERSON_AND_ORGANIZATION_ASSIGNMENT ( #88, #10, ( #240 ) ) ;
#195 = FACE_OUTER_BOUND ( 'NONE', #207, .T. ) ;
#196 = CARTESIAN_POINT ( 'NONE',  ( 0.000000000000000000, 0.000000000000000000, 0.000000000000000000 ) ) ;
#197 = LOCAL_TIME ( 15, 1, 26.00000000000000000, #222 ) ;
#198 = APPROVAL_PERSON_ORGANIZATION ( #31, #123, #239 ) ;
#199 = ADVANCED_FACE ( 'NONE', ( #218 ), #65, .T. ) ;
#200 = LINE ( 'NONE', #5, #103 ) ;
#201 = PERSON_AND_ORGANIZATION ( #231, #29 ) ;
#202 = AXIS2_PLACEMENT_3D ( 'NONE', #41, #176, #234 ) ;
#203 = APPROVAL_STATUS ( 'not_yet_approved' ) ;
#204 = PERSON_AND_ORGANIZATION ( #231, #29 ) ;
#205 = DATE_AND_TIME ( #221, #8 ) ;
#206 = FACE_BOUND ( 'NONE', #92, .T. ) ;
#207 = EDGE_LOOP ( 'NONE', ( #18, #225, #22, #35 ) ) ;
#208 = AXIS2_PLACEMENT_3D ( 'NONE', #151, #246, #77 ) ;
#209 = CARTESIAN_POINT ( 'NONE',  ( 0.000000000000000000, 0.000000000000000000, 0.000000000000000000 ) ) ;
#210 = ORIENTED_EDGE ( 'NONE', *, *, #117, .T. ) ;
#211 = EDGE_LOOP ( 'NONE', ( #230, #113, #95, #170 ) ) ;
#212 =( NAMED_UNIT ( * ) PLANE_ANGLE_UNIT ( ) SI_UNIT ( $, .RADIAN. ) );
#213 = CC_DESIGN_PERSON_AND_ORGANIZATION_ASSIGNMENT ( #219, #126, ( #120 ) ) ;
#214 = AXIS2_PLACEMENT_3D ( 'NONE', #159, #6, #180 ) ;
#215 = DIRECTION ( 'NONE',  ( 1.000000000000000000, 0.000000000000000000, 0.000000000000000000 ) ) ;
#216 = DIRECTION ( 'NONE',  ( 0.000000000000000000, 0.000000000000000000, 1.000000000000000000 ) ) ;
#217 =( NAMED_UNIT ( * ) SI_UNIT ( $, .STERADIAN. ) SOLID_ANGLE_UNIT ( ) );
#218 = FACE_OUTER_BOUND ( 'NONE', #192, .T. ) ;
#219 = PERSON_AND_ORGANIZATION ( #231, #29 ) ;
#220 = AXIS2_PLACEMENT_3D ( 'NONE', #150, #227, #190 ) ;
#221 = CALENDAR_DATE ( 2026, 12, 9 ) ;
#222 = COORDINATED_UNIVERSAL_TIME_OFFSET ( 6, 0, .BEHIND. ) ;
#223 = ADVANCED_FACE ( 'NONE', ( #138 ), #4, .F. ) ;
#224 = VECTOR ( 'NONE', #247, 1000.000000000000000 ) ;
#225 = ORIENTED_EDGE ( 'NONE', *, *, #9, .T. ) ;
#226 = EDGE_LOOP ( 'NONE', ( #210, #34, #114, #39 ) ) ;
#227 = DIRECTION ( 'NONE',  ( 0.000000000000000000, 0.000000000000000000, 1.000000000000000000 ) ) ;
#228 = AXIS2_PLACEMENT_3D ( 'NONE', #79, #96, #131 ) ;
#229 = EDGE_LOOP ( 'NONE', ( #153, #248 ) ) ;
#230 = ORIENTED_EDGE ( 'NONE', *, *, #68, .F. ) ;
#231 = PERSON ( 'UNSPECIFIED', 'UNSPECIFIED', 'UNSPECIFIED', ('UNSPECIFIED'), ('UNSPECIFIED'), ('UNSPECIFIED') ) ;
#232 = EDGE_CURVE ( 'NONE', #191, #135, #200, .T. ) ;
#233 = CARTESIAN_POINT ( 'NONE',  ( -2.149999999999999911, 0.000000000000000000, 0.000000000000000000 ) ) ;
#234 = DIRECTION ( 'NONE',  ( 1.000000000000000000, 0.000000000000000000, -0.000000000000000000 ) ) ;
#235 = CYLINDRICAL_SURFACE ( 'NONE', #185, 2.149999999999999911 ) ;
#236 = CARTESIAN_POINT ( 'NONE',  ( 2.149999999999999911, 2.632990618166808742E-16, 0.000000000000000000 ) ) ;
#237 = CARTESIAN_POINT ( 'NONE',  ( 0.000000000000000000, 0.000000000000000000, 13.00000000000000000 ) ) ;
#238 = DATE_TIME_ROLE ( 'classification_date' ) ;
#239 = APPROVAL_ROLE ( '' ) ;
#240 = PRODUCT_DEFINITION_FORMATION_WITH_SPECIFIED_SOURCE ( 'ANY', '', #120, .NOT_KNOWN. ) ;
#241 = APPROVAL_DATE_TIME ( #7, #33 ) ;
#242 = PRODUCT_DEFINITION ( 'UNKNOWN', '', #240, #42 ) ;
#243 = SECURITY_CLASSIFICATION_LEVEL ( 'unclassified' ) ;
#244 = ORIENTED_EDGE ( 'NONE', *, *, #117, .F. ) ;
#245 = AXIS2_PLACEMENT_3D ( 'NONE', #109, #143, #52 ) ;
#246 = DIRECTION ( 'NONE',  ( 0.000000000000000000, 0.000000000000000000, 1.000000000000000000 ) ) ;
#247 = DIRECTION ( 'NONE',  ( -0.000000000000000000, -0.000000000000000000, -1.000000000000000000 ) ) ;
#248 = ORIENTED_EDGE ( 'NONE', *, *, #68, .T. ) ;
#249 = ORIENTED_EDGE ( 'NONE', *, *, #186, .T. ) ;
ENDSEC;
END-ISO-10303-21;
