ISO-10303-21;
HEADER;
FILE_DESCRIPTION (( 'STEP AP203' ),
    '1' );
FILE_NAME ('FIT-004_SG90_spline_socket_trial.step',
    '2026-09-28T23:13:29',
    ( '' ),
    ( '' ),
    'SwSTEP 2.0',
    'SolidWorks 2026',
    '' );
FILE_SCHEMA (( 'CONFIG_CONTROL_DESIGN' ));
ENDSEC;

DATA;
#1 = DIRECTION ( 'NONE',  ( -1.000000000000000000, 0.000000000000000000, 0.000000000000000000 ) ) ;
#2 = EDGE_CURVE ( 'NONE', #758, #656, #113, .T. ) ;
#3 = FACE_OUTER_BOUND ( 'NONE', #173, .T. ) ;
#4 = ORIENTED_EDGE ( 'NONE', *, *, #391, .F. ) ;
#5 = VECTOR ( 'NONE', #687, 1000.000000000000000 ) ;
#6 = CYLINDRICAL_SURFACE ( 'NONE', #627, 2.325000000000000622 ) ;
#7 = PRODUCT ( 'FIT-004_SG90_spline_socket_trial', 'FIT-004_SG90_spline_socket_trial', '', ( #52 ) ) ;
#8 = EDGE_LOOP ( 'NONE', ( #75, #42, #312, #377 ) ) ;
#9 = FACE_OUTER_BOUND ( 'NONE', #522, .T. ) ;
#10 = ADVANCED_FACE ( 'NONE', ( #320 ), #828, .F. ) ;
#11 = EDGE_LOOP ( 'NONE', ( #597, #260, #546, #394 ) ) ;
#12 = CARTESIAN_POINT ( 'NONE',  ( -16.80000000000000071, 1.469576158976823306E-16, 2.500000000000000000 ) ) ;
#13 = EDGE_LOOP ( 'NONE', ( #874, #495 ) ) ;
#14 = DIRECTION ( 'NONE',  ( 1.000000000000000000, 0.000000000000000000, 0.000000000000000000 ) ) ;
#15 = PRODUCT_DEFINITION_FORMATION_WITH_SPECIFIED_SOURCE ( 'ANY', '', #7, .NOT_KNOWN. ) ;
#16 = ORIENTED_EDGE ( 'NONE', *, *, #889, .F. ) ;
#17 = CIRCLE ( 'NONE', #277, 1.199999999999999734 ) ;
#18 = DIRECTION ( 'NONE',  ( 0.000000000000000000, 0.000000000000000000, 1.000000000000000000 ) ) ;
#19 = EDGE_LOOP ( 'NONE', ( #731, #363, #296, #300 ) ) ;
#20 = ADVANCED_FACE ( 'NONE', ( #248 ), #818, .F. ) ;
#21 = ORIENTED_EDGE ( 'NONE', *, *, #596, .T. ) ;
#22 = AXIS2_PLACEMENT_3D ( 'NONE', #846, #348, #138 ) ;
#23 = DIRECTION ( 'NONE',  ( -0.000000000000000000, -1.000000000000000000, -0.000000000000000000 ) ) ;
#24 = VERTEX_POINT ( 'NONE', #543 ) ;
#25 = AXIS2_PLACEMENT_3D ( 'NONE', #299, #315, #96 ) ;
#26 = CARTESIAN_POINT ( 'NONE',  ( 6.000000000000000000, 0.000000000000000000, 3.700000000000001954 ) ) ;
#27 = DIRECTION ( 'NONE',  ( 0.000000000000000000, 0.000000000000000000, -1.000000000000000000 ) ) ;
#28 = AXIS2_PLACEMENT_3D ( 'NONE', #674, #803, #739 ) ;
#29 = CARTESIAN_POINT ( 'NONE',  ( -27.00000000000000000, -6.000000000000000000, 3.700000000000002842 ) ) ;
#30 = ORIENTED_EDGE ( 'NONE', *, *, #157, .F. ) ;
#31 = DATE_AND_TIME ( #413, #556 ) ;
#32 = EDGE_CURVE ( 'NONE', #805, #719, #578, .T. ) ;
#33 = CIRCLE ( 'NONE', #676, 1.199999999999999734 ) ;
#34 = DIRECTION ( 'NONE',  ( 0.000000000000000000, 0.000000000000000000, 1.000000000000000000 ) ) ;
#35 = CARTESIAN_POINT ( 'NONE',  ( -6.000000000000000000, 0.000000000000000000, 2.500000000000000000 ) ) ;
#36 = EDGE_LOOP ( 'NONE', ( #491, #814 ) ) ;
#37 = DATE_AND_TIME ( #477, #403 ) ;
#38 = CARTESIAN_POINT ( 'NONE',  ( 20.47500000000000142, 3.031000827889701228E-16, 2.500000000000000000 ) ) ;
#39 = EDGE_CURVE ( 'NONE', #345, #774, #912, .T. ) ;
#40 = VECTOR ( 'NONE', #659, 1000.000000000000000 ) ;
#41 = EDGE_LOOP ( 'NONE', ( #766, #468 ) ) ;
#42 = ORIENTED_EDGE ( 'NONE', *, *, #404, .F. ) ;
#43 = LINE ( 'NONE', #549, #904 ) ;
#44 = DIRECTION ( 'NONE',  ( 0.000000000000000000, 0.000000000000000000, -1.000000000000000000 ) ) ;
#45 = ORIENTED_EDGE ( 'NONE', *, *, #506, .F. ) ;
#46 = ORIENTED_EDGE ( 'NONE', *, *, #454, .T. ) ;
#47 = CALENDAR_DATE ( 2026, 28, 9 ) ;
#48 = DIRECTION ( 'NONE',  ( 1.000000000000000000, 0.000000000000000000, 0.000000000000000000 ) ) ;
#49 = FACE_BOUND ( 'NONE', #697, .T. ) ;
#50 = ORIENTED_EDGE ( 'NONE', *, *, #172, .F. ) ;
#51 = EDGE_CURVE ( 'NONE', #656, #588, #768, .T. ) ;
#52 = MECHANICAL_CONTEXT ( 'NONE', #147, 'mechanical' ) ;
#53 = AXIS2_PLACEMENT_3D ( 'NONE', #642, #499, #409 ) ;
#54 = PLANE ( 'NONE',  #856 ) ;
#55 = AXIS2_PLACEMENT_3D ( 'NONE', #608, #399, #892 ) ;
#56 = FACE_OUTER_BOUND ( 'NONE', #852, .T. ) ;
#57 = DIRECTION ( 'NONE',  ( 1.000000000000000000, 0.000000000000000000, 0.000000000000000000 ) ) ;
#58 = VERTEX_POINT ( 'NONE', #629 ) ;
#59 = CARTESIAN_POINT ( 'NONE',  ( -27.00000000000000000, 6.000000000000000000, 0.000000000000000000 ) ) ;
#60 = AXIS2_PLACEMENT_3D ( 'NONE', #237, #217, #653 ) ;
#61 = DIRECTION ( 'NONE',  ( 1.000000000000000000, 0.000000000000000000, 0.000000000000000000 ) ) ;
#62 = DIRECTION ( 'NONE',  ( -1.000000000000000000, 0.000000000000000000, 0.000000000000000000 ) ) ;
#63 = EDGE_CURVE ( 'NONE', #181, #224, #679, .T. ) ;
#64 = AXIS2_PLACEMENT_3D ( 'NONE', #606, #293, #1 ) ;
#65 = CARTESIAN_POINT ( 'NONE',  ( -24.25000000000000000, 4.000000000000000000, 3.700000000000001954 ) ) ;
#66 = CARTESIAN_POINT ( 'NONE',  ( 18.00000000000000000, 0.000000000000000000, 0.000000000000000000 ) ) ;
#67 = ADVANCED_FACE ( 'NONE', ( #187 ), #747, .F. ) ;
#68 = AXIS2_PLACEMENT_3D ( 'NONE', #636, #710, #215 ) ;
#69 = PLANE ( 'NONE',  #334 ) ;
#70 = LINE ( 'NONE', #509, #475 ) ;
#71 = LINE ( 'NONE', #356, #174 ) ;
#72 = EDGE_CURVE ( 'NONE', #913, #774, #716, .T. ) ;
#73 = AXIS2_PLACEMENT_3D ( 'NONE', #386, #161, #447 ) ;
#74 = CARTESIAN_POINT ( 'NONE',  ( 27.00000000000000000, 6.000000000000000000, 0.000000000000000000 ) ) ;
#75 = ORIENTED_EDGE ( 'NONE', *, *, #786, .T. ) ;
#76 = FACE_OUTER_BOUND ( 'NONE', #144, .T. ) ;
#77 = ORIENTED_EDGE ( 'NONE', *, *, #925, .T. ) ;
#78 = DIRECTION ( 'NONE',  ( 1.000000000000000000, 0.000000000000000000, 0.000000000000000000 ) ) ;
#79 = EDGE_LOOP ( 'NONE', ( #565, #518, #361, #595 ) ) ;
#80 = LINE ( 'NONE', #241, #390 ) ;
#81 = VERTEX_POINT ( 'NONE', #737 ) ;
#82 = CARTESIAN_POINT ( 'NONE',  ( -27.00000000000000000, -6.000000000000000000, 0.000000000000000000 ) ) ;
#83 = AXIS2_PLACEMENT_3D ( 'NONE', #492, #360, #647 ) ;
#84 = EDGE_LOOP ( 'NONE', ( #335, #423 ) ) ;
#85 = EDGE_LOOP ( 'NONE', ( #790, #658 ) ) ;
#86 = DIRECTION ( 'NONE',  ( 0.000000000000000000, 0.000000000000000000, 1.000000000000000000 ) ) ;
#87 = ORIENTED_EDGE ( 'NONE', *, *, #203, .F. ) ;
#88 = EDGE_CURVE ( 'NONE', #553, #829, #311, .T. ) ;
#89 = ORIENTED_EDGE ( 'NONE', *, *, #302, .F. ) ;
#90 = LINE ( 'NONE', #82, #875 ) ;
#91 = ORIENTED_EDGE ( 'NONE', *, *, #485, .T. ) ;
#92 = AXIS2_PLACEMENT_3D ( 'NONE', #895, #180, #751 ) ;
#93 = ORIENTED_EDGE ( 'NONE', *, *, #756, .F. ) ;
#94 = VECTOR ( 'NONE', #564, 1000.000000000000000 ) ;
#95 = DIRECTION ( 'NONE',  ( 0.000000000000000000, 0.000000000000000000, -1.000000000000000000 ) ) ;
#96 = DIRECTION ( 'NONE',  ( 1.000000000000000000, 0.000000000000000000, 0.000000000000000000 ) ) ;
#97 = CARTESIAN_POINT ( 'NONE',  ( 6.000000000000000000, 0.000000000000000000, 3.700000000000001954 ) ) ;
#98 = VERTEX_POINT ( 'NONE', #599 ) ;
#99 = EDGE_CURVE ( 'NONE', #24, #834, #900, .T. ) ;
#100 = CYLINDRICAL_SURFACE ( 'NONE', #73, 2.475000000000001421 ) ;
#101 = DIRECTION ( 'NONE',  ( 0.000000000000000000, 0.000000000000000000, 1.000000000000000000 ) ) ;
#102 = APPROVAL_PERSON_ORGANIZATION ( #125, #607, #119 ) ;
#103 = PERSON ( 'UNSPECIFIED', 'UNSPECIFIED', 'UNSPECIFIED', ('UNSPECIFIED'), ('UNSPECIFIED'), ('UNSPECIFIED') ) ;
#104 = FACE_BOUND ( 'NONE', #163, .T. ) ;
#105 = ORIENTED_EDGE ( 'NONE', *, *, #723, .T. ) ;
#106 = APPROVAL ( #465, 'UNSPECIFIED' ) ;
#107 = PERSON_AND_ORGANIZATION_ROLE ( 'creator' ) ;
#108 = DIRECTION ( 'NONE',  ( 0.000000000000000000, 0.000000000000000000, -1.000000000000000000 ) ) ;
#109 = ORIENTED_EDGE ( 'NONE', *, *, #925, .F. ) ;
#110 = PERSON_AND_ORGANIZATION ( #103, #133 ) ;
#111 = CYLINDRICAL_SURFACE ( 'NONE', #338, 1.199999999999999734 ) ;
#112 = CARTESIAN_POINT ( 'NONE',  ( 7.200000000000000178, 1.469576158976823306E-16, 3.700000000000001954 ) ) ;
#113 = LINE ( 'NONE', #463, #624 ) ;
#114 = DATE_TIME_ROLE ( 'classification_date' ) ;
#115 = CARTESIAN_POINT ( 'NONE',  ( -27.00000000000000000, 6.000000000000000000, 3.700000000000002842 ) ) ;
#116 = ADVANCED_FACE ( 'NONE', ( #252 ), #880, .F. ) ;
#117 = DIRECTION ( 'NONE',  ( -1.000000000000000000, 0.000000000000000000, 0.000000000000000000 ) ) ;
#118 = EDGE_LOOP ( 'NONE', ( #4, #810 ) ) ;
#119 = APPROVAL_ROLE ( '' ) ;
#120 = DIRECTION ( 'NONE',  ( 0.000000000000000000, 0.000000000000000000, -1.000000000000000000 ) ) ;
#121 = CC_DESIGN_PERSON_AND_ORGANIZATION_ASSIGNMENT ( #263, #395, ( #879 ) ) ;
#122 = CARTESIAN_POINT ( 'NONE',  ( -3.625000000000000000, 2.908536147974963713E-16, 2.500000000000000000 ) ) ;
#123 = CARTESIAN_POINT ( 'NONE',  ( -25.75000000000000355, 4.000000000000000000, 3.700000000000001954 ) ) ;
#124 = VERTEX_POINT ( 'NONE', #616 ) ;
#125 = PERSON_AND_ORGANIZATION ( #103, #133 ) ;
#126 = AXIS2_PLACEMENT_3D ( 'NONE', #97, #885, #243 ) ;
#127 = CARTESIAN_POINT ( 'NONE',  ( 6.000000000000000000, 0.000000000000000000, 2.500000000000000000 ) ) ;
#128 = VERTEX_POINT ( 'NONE', #467 ) ;
#129 = FACE_BOUND ( 'NONE', #204, .T. ) ;
#130 = DATE_AND_TIME ( #190, #314 ) ;
#131 = DIRECTION ( 'NONE',  ( 0.000000000000000000, 0.000000000000000000, -1.000000000000000000 ) ) ;
#132 = DIRECTION ( 'NONE',  ( 0.000000000000000000, 0.000000000000000000, 1.000000000000000000 ) ) ;
#133 = ORGANIZATION ( 'UNSPECIFIED', 'UNSPECIFIED', '' ) ;
#134 = EDGE_CURVE ( 'NONE', #224, #58, #535, .T. ) ;
#135 = FACE_OUTER_BOUND ( 'NONE', #162, .T. ) ;
#136 = ORIENTED_EDGE ( 'NONE', *, *, #99, .T. ) ;
#137 = CARTESIAN_POINT ( 'NONE',  ( -27.00000000000000000, 6.000000000000000000, 3.700000000000002842 ) ) ;
#138 = DIRECTION ( 'NONE',  ( -1.000000000000000000, 0.000000000000000000, 0.000000000000000000 ) ) ;
#139 = AXIS2_PLACEMENT_3D ( 'NONE', #920, #490, #911 ) ;
#140 = EDGE_LOOP ( 'NONE', ( #412, #427 ) ) ;
#141 = CIRCLE ( 'NONE', #68, 2.475000000000001421 ) ;
#142 = CARTESIAN_POINT ( 'NONE',  ( -18.00000000000000000, 0.000000000000000000, 0.000000000000000000 ) ) ;
#143 = DIRECTION ( 'NONE',  ( 0.000000000000000000, 0.000000000000000000, -1.000000000000000000 ) ) ;
#144 = EDGE_LOOP ( 'NONE', ( #907, #651, #682, #228 ) ) ;
#145 = VECTOR ( 'NONE', #27, 1000.000000000000000 ) ;
#146 = APPROVAL ( #830, 'UNSPECIFIED' ) ;
#147 = APPLICATION_CONTEXT ( 'configuration controlled 3d designs of mechanical parts and assemblies' ) ;
#148 = CARTESIAN_POINT ( 'NONE',  ( -20.32499999999999929, 0.000000000000000000, 2.500000000000000000 ) ) ;
#149 = DIRECTION ( 'NONE',  ( 0.000000000000000000, 0.000000000000000000, 1.000000000000000000 ) ) ;
#150 = VERTEX_POINT ( 'NONE', #529 ) ;
#151 = FACE_OUTER_BOUND ( 'NONE', #169, .T. ) ;
#152 = AXIS2_PLACEMENT_3D ( 'NONE', #622, #132, #419 ) ;
#153 = ORIENTED_EDGE ( 'NONE', *, *, #297, .T. ) ;
#154 = CARTESIAN_POINT ( 'NONE',  ( 19.19999999999999929, 1.469576158976823306E-16, 3.700000000000001954 ) ) ;
#155 = ORIENTED_EDGE ( 'NONE', *, *, #379, .T. ) ;
#156 = ORIENTED_EDGE ( 'NONE', *, *, #592, .T. ) ;
#157 = EDGE_CURVE ( 'NONE', #605, #24, #809, .T. ) ;
#158 = CARTESIAN_POINT ( 'NONE',  ( -6.000000000000000000, 0.000000000000000000, 2.500000000000000000 ) ) ;
#159 = AXIS2_PLACEMENT_3D ( 'NONE', #66, #640, #704 ) ;
#160 = ORIENTED_EDGE ( 'NONE', *, *, #572, .T. ) ;
#161 = DIRECTION ( 'NONE',  ( 0.000000000000000000, 0.000000000000000000, -1.000000000000000000 ) ) ;
#162 = EDGE_LOOP ( 'NONE', ( #46, #868, #389, #304 ) ) ;
#163 = EDGE_LOOP ( 'NONE', ( #244, #431 ) ) ;
#164 = DIRECTION ( 'NONE',  ( -1.000000000000000000, 0.000000000000000000, 0.000000000000000000 ) ) ;
#165 = CARTESIAN_POINT ( 'NONE',  ( 19.19999999999999929, 1.469576158976823306E-16, 3.700000000000001954 ) ) ;
#166 = EDGE_CURVE ( 'NONE', #774, #913, #650, .T. ) ;
#167 = VECTOR ( 'NONE', #340, 1000.000000000000000 ) ;
#168 = CARTESIAN_POINT ( 'NONE',  ( -8.375000000000000000, 0.000000000000000000, 2.500000000000000000 ) ) ;
#169 = EDGE_LOOP ( 'NONE', ( #153, #614, #482, #514 ) ) ;
#170 = CARTESIAN_POINT ( 'NONE',  ( -18.00000000000000000, 0.000000000000000000, 0.000000000000000000 ) ) ;
#171 = CARTESIAN_POINT ( 'NONE',  ( -6.000000000000000000, 0.000000000000000000, 0.000000000000000000 ) ) ;
#172 = EDGE_CURVE ( 'NONE', #593, #613, #316, .T. ) ;
#173 = EDGE_LOOP ( 'NONE', ( #707, #374, #275, #458 ) ) ;
#174 = VECTOR ( 'NONE', #432, 1000.000000000000000 ) ;
#175 = CARTESIAN_POINT ( 'NONE',  ( -25.00000000000000000, 4.000000000000000000, 3.700000000000001954 ) ) ;
#176 = ORIENTED_EDGE ( 'NONE', *, *, #352, .T. ) ;
#177 = PERSON_AND_ORGANIZATION ( #103, #133 ) ;
#178 = CIRCLE ( 'NONE', #517, 1.199999999999999734 ) ;
#179 = DIRECTION ( 'NONE',  ( 0.000000000000000000, 0.000000000000000000, 1.000000000000000000 ) ) ;
#180 = DIRECTION ( 'NONE',  ( -0.000000000000000000, -0.000000000000000000, 1.000000000000000000 ) ) ;
#181 = VERTEX_POINT ( 'NONE', #168 ) ;
#182 = ORIENTED_EDGE ( 'NONE', *, *, #434, .T. ) ;
#183 = PERSON_AND_ORGANIZATION_ROLE ( 'design_supplier' ) ;
#184 = ADVANCED_FACE ( 'NONE', ( #462 ), #457, .F. ) ;
#185 = AXIS2_PLACEMENT_3D ( 'NONE', #501, #143, #849 ) ;
#186 = DIRECTION ( 'NONE',  ( -1.000000000000000000, 0.000000000000000000, 0.000000000000000000 ) ) ;
#187 = FACE_OUTER_BOUND ( 'NONE', #804, .T. ) ;
#188 = VERTEX_POINT ( 'NONE', #742 ) ;
#189 = ORIENTED_EDGE ( 'NONE', *, *, #548, .F. ) ;
#190 = CALENDAR_DATE ( 2026, 28, 9 ) ;
#191 = DIRECTION ( 'NONE',  ( 0.000000000000000000, 0.000000000000000000, -1.000000000000000000 ) ) ;
#192 = ADVANCED_FACE ( 'NONE', ( #104, #388 ), #677, .F. ) ;
#193 = DIRECTION ( 'NONE',  ( 0.000000000000000000, 0.000000000000000000, 1.000000000000000000 ) ) ;
#194 = DIRECTION ( 'NONE',  ( 0.000000000000000000, 0.000000000000000000, 1.000000000000000000 ) ) ;
#195 = EDGE_LOOP ( 'NONE', ( #372, #445, #176, #585 ) ) ;
#196 = PLANE ( 'NONE',  #216 ) ;
#197 = ADVANCED_FACE ( 'NONE', ( #281, #207 ), #702, .F. ) ;
#198 = CARTESIAN_POINT ( 'NONE',  ( -6.000000000000000000, 0.000000000000000000, 3.700000000000001954 ) ) ;
#199 = ORIENTED_EDGE ( 'NONE', *, *, #272, .T. ) ;
#200 = DIRECTION ( 'NONE',  ( 1.000000000000000000, 0.000000000000000000, 0.000000000000000000 ) ) ;
#201 = DIRECTION ( 'NONE',  ( 1.000000000000000000, 0.000000000000000000, -0.000000000000000000 ) ) ;
#202 = VECTOR ( 'NONE', #863, 1000.000000000000000 ) ;
#203 = EDGE_CURVE ( 'NONE', #150, #913, #273, .T. ) ;
#204 = EDGE_LOOP ( 'NONE', ( #530, #759 ) ) ;
#205 = FACE_OUTER_BOUND ( 'NONE', #118, .T. ) ;
#206 = ORIENTED_EDGE ( 'NONE', *, *, #894, .F. ) ;
#207 = FACE_OUTER_BOUND ( 'NONE', #294, .T. ) ;
#208 = CARTESIAN_POINT ( 'NONE',  ( 8.425000000000000711, 2.969768487932331484E-16, 2.500000000000000000 ) ) ;
#209 = ORIENTED_EDGE ( 'NONE', *, *, #134, .F. ) ;
#210 = CYLINDRICAL_SURFACE ( 'NONE', #469, 1.199999999999999734 ) ;
#211 = FACE_BOUND ( 'NONE', #728, .T. ) ;
#212 = CIRCLE ( 'NONE', #709, 0.7500000000000006661 ) ;
#213 = AXIS2_PLACEMENT_3D ( 'NONE', #274, #836, #487 ) ;
#214 = DIRECTION ( 'NONE',  ( 1.000000000000000000, 0.000000000000000000, 0.000000000000000000 ) ) ;
#215 = DIRECTION ( 'NONE',  ( 1.000000000000000000, 0.000000000000000000, 0.000000000000000000 ) ) ;
#216 = AXIS2_PLACEMENT_3D ( 'NONE', #831, #685, #322 ) ;
#217 = DIRECTION ( 'NONE',  ( 0.000000000000000000, 0.000000000000000000, 1.000000000000000000 ) ) ;
#218 = ORIENTED_EDGE ( 'NONE', *, *, #763, .T. ) ;
#219 = CC_DESIGN_APPROVAL ( #146, ( #879 ) ) ;
#220 = CARTESIAN_POINT ( 'NONE',  ( -7.200000000000000178, 0.000000000000000000, 3.700000000000001954 ) ) ;
#221 = VERTEX_POINT ( 'NONE', #567 ) ;
#222 = ADVANCED_FACE ( 'NONE', ( #835, #350 ), #69, .F. ) ;
#223 = AXIS2_PLACEMENT_3D ( 'NONE', #557, #193, #267 ) ;
#224 = VERTEX_POINT ( 'NONE', #122 ) ;
#225 = CARTESIAN_POINT ( 'NONE',  ( 27.00000000000000000, -6.000000000000000000, 3.700000000000002842 ) ) ;
#226 = PRODUCT_DEFINITION_SHAPE ( 'NONE', 'NONE',  #398 ) ;
#227 = CC_DESIGN_PERSON_AND_ORGANIZATION_ASSIGNMENT ( #110, #107, ( #15 ) ) ;
#228 = ORIENTED_EDGE ( 'NONE', *, *, #534, .T. ) ;
#229 = MANIFOLD_SOLID_BREP ( 'Orientation_mark_at_smallest_socket', #264 ) ;
#230 = CARTESIAN_POINT ( 'NONE',  ( 16.80000000000000071, 0.000000000000000000, 3.700000000000001954 ) ) ;
#231 = AXIS2_PLACEMENT_3D ( 'NONE', #926, #149, #78 ) ;
#232 = ORIENTED_EDGE ( 'NONE', *, *, #236, .F. ) ;
#233 = ORIENTED_EDGE ( 'NONE', *, *, #859, .F. ) ;
#234 = CARTESIAN_POINT ( 'NONE',  ( 6.000000000000000000, 0.000000000000000000, 0.000000000000000000 ) ) ;
#235 = CIRCLE ( 'NONE', #715, 1.199999999999999734 ) ;
#236 = EDGE_CURVE ( 'NONE', #881, #829, #781, .T. ) ;
#237 = CARTESIAN_POINT ( 'NONE',  ( 6.000000000000000000, 0.000000000000000000, 2.500000000000000000 ) ) ;
#238 = DIRECTION ( 'NONE',  ( -1.000000000000000000, 0.000000000000000000, 0.000000000000000000 ) ) ;
#239 = EDGE_LOOP ( 'NONE', ( #525, #752, #558, #443 ) ) ;
#240 = LINE ( 'NONE', #440, #323 ) ;
#241 = CARTESIAN_POINT ( 'NONE',  ( 27.00000000000000000, 6.000000000000000000, 3.700000000000002842 ) ) ;
#242 = CC_DESIGN_DATE_AND_TIME_ASSIGNMENT ( #37, #114, ( #879 ) ) ;
#243 = DIRECTION ( 'NONE',  ( -1.000000000000000000, 0.000000000000000000, 0.000000000000000000 ) ) ;
#244 = ORIENTED_EDGE ( 'NONE', *, *, #365, .F. ) ;
#245 = APPROVAL_DATE_TIME ( #31, #607 ) ;
#246 = DIRECTION ( 'NONE',  ( 1.000000000000000000, 0.000000000000000000, 0.000000000000000000 ) ) ;
#247 = DIRECTION ( 'NONE',  ( 1.000000000000000000, 0.000000000000000000, 0.000000000000000000 ) ) ;
#248 = FACE_OUTER_BOUND ( 'NONE', #8, .T. ) ;
#249 = ADVANCED_BREP_SHAPE_REPRESENTATION ( 'FIT-004_SG90_spline_socket_trial', ( #229, #760 ), #837 ) ;
#250 = CARTESIAN_POINT ( 'NONE',  ( 15.52499999999999680, 0.000000000000000000, 2.500000000000000000 ) ) ;
#251 = AXIS2_PLACEMENT_3D ( 'NONE', #584, #305, #594 ) ;
#252 = FACE_OUTER_BOUND ( 'NONE', #11, .T. ) ;
#253 = DIRECTION ( 'NONE',  ( -1.000000000000000000, 0.000000000000000000, 0.000000000000000000 ) ) ;
#254 = ADVANCED_FACE ( 'NONE', ( #905 ), #708, .F. ) ;
#255 = ORIENTED_EDGE ( 'NONE', *, *, #428, .T. ) ;
#256 =( NAMED_UNIT ( * ) SI_UNIT ( $, .STERADIAN. ) SOLID_ANGLE_UNIT ( ) );
#257 = DIRECTION ( 'NONE',  ( -0.000000000000000000, -0.000000000000000000, -1.000000000000000000 ) ) ;
#258 = DIRECTION ( 'NONE',  ( 0.000000000000000000, 0.000000000000000000, -1.000000000000000000 ) ) ;
#259 = AXIS2_PLACEMENT_3D ( 'NONE', #848, #424, #61 ) ;
#260 = ORIENTED_EDGE ( 'NONE', *, *, #894, .T. ) ;
#261 = VERTEX_POINT ( 'NONE', #494 ) ;
#262 = CC_DESIGN_DATE_AND_TIME_ASSIGNMENT ( #767, #749, ( #398 ) ) ;
#263 = PERSON_AND_ORGANIZATION ( #103, #133 ) ;
#264 = CLOSED_SHELL ( 'NONE', ( #661, #618, #561, #324, #698, #511, #771, #10, #254, #637, #527, #20, #289, #328, #718, #919, #686, #667, #197, #67, #192, #421, #222, #116, #780, #184, #358, #603 ) ) ;
#265 = AXIS2_PLACEMENT_3D ( 'NONE', #784, #131, #366 ) ;
#266 = DIRECTION ( 'NONE',  ( 0.000000000000000000, 0.000000000000000000, -1.000000000000000000 ) ) ;
#267 = DIRECTION ( 'NONE',  ( 1.000000000000000000, 0.000000000000000000, 0.000000000000000000 ) ) ;
#268 = ORIENTED_EDGE ( 'NONE', *, *, #673, .T. ) ;
#269 = APPLICATION_PROTOCOL_DEFINITION ( 'international standard', 'config_control_design', 1994, #630 ) ;
#270 = CIRCLE ( 'NONE', #60, 2.425000000000000266 ) ;
#271 = LINE ( 'NONE', #478, #310 ) ;
#272 = EDGE_CURVE ( 'NONE', #593, #563, #576, .T. ) ;
#273 = LINE ( 'NONE', #65, #452 ) ;
#274 = CARTESIAN_POINT ( 'NONE',  ( -6.000000000000000000, 0.000000000000000000, 2.500000000000000000 ) ) ;
#275 = ORIENTED_EDGE ( 'NONE', *, *, #763, .F. ) ;
#276 = DIRECTION ( 'NONE',  ( -0.000000000000000000, -0.000000000000000000, -1.000000000000000000 ) ) ;
#277 = AXIS2_PLACEMENT_3D ( 'NONE', #362, #787, #675 ) ;
#278 = CC_DESIGN_PERSON_AND_ORGANIZATION_ASSIGNMENT ( #337, #761, ( #7 ) ) ;
#279 = CARTESIAN_POINT ( 'NONE',  ( 0.000000000000000000, 0.000000000000000000, 3.700000000000002842 ) ) ;
#280 = CARTESIAN_POINT ( 'NONE',  ( -27.00000000000000000, 6.000000000000000000, 3.700000000000002842 ) ) ;
#281 = FACE_BOUND ( 'NONE', #306, .T. ) ;
#282 = CIRCLE ( 'NONE', #845, 2.425000000000000266 ) ;
#283 = DIRECTION ( 'NONE',  ( -0.000000000000000000, -0.000000000000000000, -1.000000000000000000 ) ) ;
#284 = EDGE_LOOP ( 'NONE', ( #666, #206 ) ) ;
#285 = CARTESIAN_POINT ( 'NONE',  ( -8.375000000000000000, 0.000000000000000000, 2.500000000000000000 ) ) ;
#286 = EDGE_CURVE ( 'NONE', #181, #124, #924, .T. ) ;
#287 = PLANE ( 'NONE',  #185 ) ;
#288 = CARTESIAN_POINT ( 'NONE',  ( -6.000000000000000000, 0.000000000000000000, 2.500000000000000000 ) ) ;
#289 = ADVANCED_FACE ( 'NONE', ( #56 ), #628, .F. ) ;
#290 = CYLINDRICAL_SURFACE ( 'NONE', #479, 2.375000000000000444 ) ;
#291 = VECTOR ( 'NONE', #247, 1000.000000000000000 ) ;
#292 = AXIS2_PLACEMENT_3D ( 'NONE', #822, #194, #765 ) ;
#293 = DIRECTION ( 'NONE',  ( 0.000000000000000000, 0.000000000000000000, -1.000000000000000000 ) ) ;
#294 = EDGE_LOOP ( 'NONE', ( #844, #308 ) ) ;
#295 = DIRECTION ( 'NONE',  ( 0.000000000000000000, 0.000000000000000000, 1.000000000000000000 ) ) ;
#296 = ORIENTED_EDGE ( 'NONE', *, *, #819, .T. ) ;
#297 = EDGE_CURVE ( 'NONE', #662, #98, #378, .T. ) ;
#298 = CIRCLE ( 'NONE', #508, 2.325000000000000622 ) ;
#299 = CARTESIAN_POINT ( 'NONE',  ( -25.00000000000000000, 4.000000000000000000, 3.700000000000001954 ) ) ;
#300 = ORIENTED_EDGE ( 'NONE', *, *, #365, .T. ) ;
#301 = CARTESIAN_POINT ( 'NONE',  ( 27.00000000000000000, 6.000000000000000000, 3.700000000000002842 ) ) ;
#302 = EDGE_CURVE ( 'NONE', #729, #923, #486, .T. ) ;
#303 = CIRCLE ( 'NONE', #152, 1.199999999999999734 ) ;
#304 = ORIENTED_EDGE ( 'NONE', *, *, #39, .F. ) ;
#305 = DIRECTION ( 'NONE',  ( -0.000000000000000000, -0.000000000000000000, -1.000000000000000000 ) ) ;
#306 = EDGE_LOOP ( 'NONE', ( #232, #189 ) ) ;
#307 = VECTOR ( 'NONE', #899, 1000.000000000000000 ) ;
#308 = ORIENTED_EDGE ( 'NONE', *, *, #727, .F. ) ;
#309 = CARTESIAN_POINT ( 'NONE',  ( 27.00000000000000000, -6.000000000000000000, 0.000000000000000000 ) ) ;
#310 = VECTOR ( 'NONE', #191, 1000.000000000000000 ) ;
#311 = LINE ( 'NONE', #112, #853 ) ;
#312 = ORIENTED_EDGE ( 'NONE', *, *, #711, .F. ) ;
#313 = DIRECTION ( 'NONE',  ( 0.000000000000000000, 0.000000000000000000, -1.000000000000000000 ) ) ;
#314 = LOCAL_TIME ( 18, 13, 29.00000000000000000, #620 ) ;
#315 = DIRECTION ( 'NONE',  ( 0.000000000000000000, 0.000000000000000000, 1.000000000000000000 ) ) ;
#316 = LINE ( 'NONE', #329, #503 ) ;
#317 = ORIENTED_EDGE ( 'NONE', *, *, #51, .F. ) ;
#318 = DATE_AND_TIME ( #838, #776 ) ;
#319 = CYLINDRICAL_SURFACE ( 'NONE', #64, 1.199999999999999734 ) ;
#320 = FACE_OUTER_BOUND ( 'NONE', #714, .T. ) ;
#321 = CARTESIAN_POINT ( 'NONE',  ( 0.000000000000000000, 0.000000000000000000, 0.000000000000000000 ) ) ;
#322 = DIRECTION ( 'NONE',  ( 0.000000000000000000, -0.000000000000000000, 1.000000000000000000 ) ) ;
#323 = VECTOR ( 'NONE', #95, 1000.000000000000000 ) ;
#324 = ADVANCED_FACE ( 'NONE', ( #551 ), #210, .F. ) ;
#325 = CARTESIAN_POINT ( 'NONE',  ( -6.000000000000000000, 0.000000000000000000, 2.500000000000000000 ) ) ;
#326 = ORIENTED_EDGE ( 'NONE', *, *, #51, .T. ) ;
#327 = LINE ( 'NONE', #681, #307 ) ;
#328 = ADVANCED_FACE ( 'NONE', ( #129, #502, #416, #49, #346, #333 ), #916, .F. ) ;
#329 = CARTESIAN_POINT ( 'NONE',  ( 20.47500000000000142, 3.031000827889701228E-16, 2.500000000000000000 ) ) ;
#330 = DIRECTION ( 'NONE',  ( 0.000000000000000000, 0.000000000000000000, 1.000000000000000000 ) ) ;
#331 = APPROVAL_ROLE ( '' ) ;
#332 = DIRECTION ( 'NONE',  ( 1.000000000000000000, 0.000000000000000000, 0.000000000000000000 ) ) ;
#333 = FACE_OUTER_BOUND ( 'NONE', #864, .T. ) ;
#334 = AXIS2_PLACEMENT_3D ( 'NONE', #782, #840, #201 ) ;
#335 = ORIENTED_EDGE ( 'NONE', *, *, #883, .F. ) ;
#336 = EDGE_CURVE ( 'NONE', #802, #862, #303, .T. ) ;
#337 = PERSON_AND_ORGANIZATION ( #103, #133 ) ;
#338 = AXIS2_PLACEMENT_3D ( 'NONE', #396, #266, #693 ) ;
#339 = LINE ( 'NONE', #59, #740 ) ;
#340 = DIRECTION ( 'NONE',  ( 0.000000000000000000, 0.000000000000000000, -1.000000000000000000 ) ) ;
#341 = DIRECTION ( 'NONE',  ( 0.000000000000000000, 0.000000000000000000, 1.000000000000000000 ) ) ;
#342 = CIRCLE ( 'NONE', #25, 0.7500000000000006661 ) ;
#343 = PRODUCT_RELATED_PRODUCT_CATEGORY ( 'detail', '', ( #7 ) ) ;
#344 = DIRECTION ( 'NONE',  ( 0.000000000000000000, 0.000000000000000000, 1.000000000000000000 ) ) ;
#345 = VERTEX_POINT ( 'NONE', #705 ) ;
#346 = FACE_BOUND ( 'NONE', #36, .T. ) ;
#347 = APPROVAL_DATE_TIME ( #130, #146 ) ;
#348 = DIRECTION ( 'NONE',  ( 0.000000000000000000, 0.000000000000000000, -1.000000000000000000 ) ) ;
#349 = CIRCLE ( 'NONE', #550, 2.375000000000000000 ) ;
#350 = FACE_OUTER_BOUND ( 'NONE', #85, .T. ) ;
#351 = FACE_BOUND ( 'NONE', #896, .T. ) ;
#352 = EDGE_CURVE ( 'NONE', #876, #415, #33, .T. ) ;
#353 = DIRECTION ( 'NONE',  ( -0.000000000000000000, -0.000000000000000000, -1.000000000000000000 ) ) ;
#354 = CIRCLE ( 'NONE', #231, 2.425000000000000266 ) ;
#355 = CARTESIAN_POINT ( 'NONE',  ( 19.19999999999999929, 1.469576158976823306E-16, 2.500000000000000000 ) ) ;
#356 = CARTESIAN_POINT ( 'NONE',  ( -15.67499999999999716, 2.847303808017596928E-16, 2.500000000000000000 ) ) ;
#357 = CC_DESIGN_APPROVAL ( #106, ( #398 ) ) ;
#358 = ADVANCED_FACE ( 'NONE', ( #76 ), #319, .F. ) ;
#359 = AXIS2_PLACEMENT_3D ( 'NONE', #325, #480, #473 ) ;
#360 = DIRECTION ( 'NONE',  ( 0.000000000000000000, 0.000000000000000000, 1.000000000000000000 ) ) ;
#361 = ORIENTED_EDGE ( 'NONE', *, *, #808, .T. ) ;
#362 = CARTESIAN_POINT ( 'NONE',  ( -6.000000000000000000, 0.000000000000000000, 3.700000000000001954 ) ) ;
#363 = ORIENTED_EDGE ( 'NONE', *, *, #371, .T. ) ;
#364 = AXIS2_PLACEMENT_3D ( 'NONE', #411, #341, #57 ) ;
#365 = EDGE_CURVE ( 'NONE', #415, #876, #591, .T. ) ;
#366 = DIRECTION ( 'NONE',  ( -1.000000000000000000, 0.000000000000000000, 0.000000000000000000 ) ) ;
#367 = ORIENTED_EDGE ( 'NONE', *, *, #711, .T. ) ;
#368 = DIRECTION ( 'NONE',  ( 1.000000000000000000, 0.000000000000000000, 0.000000000000000000 ) ) ;
#369 = ORIENTED_EDGE ( 'NONE', *, *, #657, .T. ) ;
#370 = CARTESIAN_POINT ( 'NONE',  ( -16.80000000000000071, 1.469576158976823306E-16, 3.700000000000001954 ) ) ;
#371 = EDGE_CURVE ( 'NONE', #719, #805, #17, .T. ) ;
#372 = ORIENTED_EDGE ( 'NONE', *, *, #32, .T. ) ;
#373 = CARTESIAN_POINT ( 'NONE',  ( -4.800000000000000711, 1.469576158976823306E-16, 3.700000000000001954 ) ) ;
#374 = ORIENTED_EDGE ( 'NONE', *, *, #134, .T. ) ;
#375 = EDGE_LOOP ( 'NONE', ( #510, #476, #91, #317 ) ) ;
#376 = DIRECTION ( 'NONE',  ( 0.000000000000000000, 0.000000000000000000, -1.000000000000000000 ) ) ;
#377 = ORIENTED_EDGE ( 'NONE', *, *, #646, .T. ) ;
#378 = CIRCLE ( 'NONE', #223, 2.325000000000000622 ) ;
#379 = EDGE_CURVE ( 'NONE', #688, #858, #544, .T. ) ;
#380 = VERTEX_POINT ( 'NONE', #12 ) ;
#381 = FACE_OUTER_BOUND ( 'NONE', #796, .T. ) ;
#382 = LINE ( 'NONE', #148, #145 ) ;
#383 = AXIS2_PLACEMENT_3D ( 'NONE', #414, #257, #769 ) ;
#384 = DIRECTION ( 'NONE',  ( 0.000000000000000000, 0.000000000000000000, -1.000000000000000000 ) ) ;
#385 = ORIENTED_EDGE ( 'NONE', *, *, #797, .T. ) ;
#386 = CARTESIAN_POINT ( 'NONE',  ( 18.00000000000000000, 0.000000000000000000, 2.500000000000000000 ) ) ;
#387 = FACE_OUTER_BOUND ( 'NONE', #601, .T. ) ;
#388 = FACE_OUTER_BOUND ( 'NONE', #590, .T. ) ;
#389 = ORIENTED_EDGE ( 'NONE', *, *, #166, .F. ) ;
#390 = VECTOR ( 'NONE', #807, 1000.000000000000000 ) ;
#391 = EDGE_CURVE ( 'NONE', #563, #593, #794, .T. ) ;
#392 = CARTESIAN_POINT ( 'NONE',  ( -27.00000000000000000, -6.000000000000000000, 3.700000000000002842 ) ) ;
#393 = ORIENTED_EDGE ( 'NONE', *, *, #2, .T. ) ;
#394 = ORIENTED_EDGE ( 'NONE', *, *, #883, .T. ) ;
#395 = PERSON_AND_ORGANIZATION_ROLE ( 'classification_officer' ) ;
#396 = CARTESIAN_POINT ( 'NONE',  ( 18.00000000000000000, 0.000000000000000000, 3.700000000000001954 ) ) ;
#397 = VECTOR ( 'NONE', #283, 1000.000000000000000 ) ;
#398 = PRODUCT_DEFINITION ( 'UNKNOWN', '', #15, #401 ) ;
#399 = DIRECTION ( 'NONE',  ( 0.000000000000000000, 0.000000000000000000, -1.000000000000000000 ) ) ;
#400 = PERSON_AND_ORGANIZATION ( #103, #133 ) ;
#401 = DESIGN_CONTEXT ( 'detailed design', #630, 'design' ) ;
#402 = FACE_OUTER_BOUND ( 'NONE', #474, .T. ) ;
#403 = LOCAL_TIME ( 18, 13, 29.00000000000000000, #684 ) ;
#404 = EDGE_CURVE ( 'NONE', #785, #743, #80, .T. ) ;
#405 = DIRECTION ( 'NONE',  ( 0.000000000000000000, -0.000000000000000000, -1.000000000000000000 ) ) ;
#406 = ORIENTED_EDGE ( 'NONE', *, *, #792, .F. ) ;
#407 = PERSON_AND_ORGANIZATION ( #103, #133 ) ;
#408 = CARTESIAN_POINT ( 'NONE',  ( 20.47500000000000142, 3.031000827889701228E-16, 0.000000000000000000 ) ) ;
#409 = DIRECTION ( 'NONE',  ( -1.000000000000000000, 0.000000000000000000, 0.000000000000000000 ) ) ;
#410 = VECTOR ( 'NONE', #671, 1000.000000000000000 ) ;
#411 = CARTESIAN_POINT ( 'NONE',  ( 6.000000000000000000, 0.000000000000000000, 0.000000000000000000 ) ) ;
#412 = ORIENTED_EDGE ( 'NONE', *, *, #534, .F. ) ;
#413 = CALENDAR_DATE ( 2026, 28, 9 ) ;
#414 = CARTESIAN_POINT ( 'NONE',  ( 18.00000000000000000, 0.000000000000000000, 2.500000000000000000 ) ) ;
#415 = VERTEX_POINT ( 'NONE', #453 ) ;
#416 = FACE_BOUND ( 'NONE', #678, .T. ) ;
#417 = DIRECTION ( 'NONE',  ( 0.000000000000000000, 0.000000000000000000, 1.000000000000000000 ) ) ;
#418 = CC_DESIGN_APPROVAL ( #607, ( #15 ) ) ;
#419 = DIRECTION ( 'NONE',  ( 1.000000000000000000, 0.000000000000000000, 0.000000000000000000 ) ) ;
#420 = LINE ( 'NONE', #280, #94 ) ;
#421 = ADVANCED_FACE ( 'NONE', ( #387 ), #460, .F. ) ;
#422 = AXIS2_PLACEMENT_3D ( 'NONE', #741, #721, #888 ) ;
#423 = ORIENTED_EDGE ( 'NONE', *, *, #808, .F. ) ;
#424 = DIRECTION ( 'NONE',  ( 0.000000000000000000, 0.000000000000000000, 1.000000000000000000 ) ) ;
#425 = CARTESIAN_POINT ( 'NONE',  ( 6.000000000000000000, 0.000000000000000000, 2.500000000000000000 ) ) ;
#426 = CIRCLE ( 'NONE', #505, 2.375000000000000000 ) ;
#427 = ORIENTED_EDGE ( 'NONE', *, *, #379, .F. ) ;
#428 = EDGE_CURVE ( 'NONE', #862, #802, #178, .T. ) ;
#429 = DIRECTION ( 'NONE',  ( 1.000000000000000000, 0.000000000000000000, 0.000000000000000000 ) ) ;
#430 = CYLINDRICAL_SURFACE ( 'NONE', #265, 1.199999999999999734 ) ;
#431 = ORIENTED_EDGE ( 'NONE', *, *, #352, .F. ) ;
#432 = DIRECTION ( 'NONE',  ( 0.000000000000000000, 0.000000000000000000, -1.000000000000000000 ) ) ;
#433 = CC_DESIGN_SECURITY_CLASSIFICATION ( #879, ( #15 ) ) ;
#434 = EDGE_CURVE ( 'NONE', #58, #124, #349, .T. ) ;
#435 = ORIENTED_EDGE ( 'NONE', *, *, #470, .T. ) ;
#436 = CARTESIAN_POINT ( 'NONE',  ( -20.32499999999999929, 0.000000000000000000, 2.500000000000000000 ) ) ;
#437 = DIRECTION ( 'NONE',  ( 0.000000000000000000, 0.000000000000000000, -1.000000000000000000 ) ) ;
#438 = EDGE_CURVE ( 'NONE', #648, #758, #270, .T. ) ;
#439 = ORIENTED_EDGE ( 'NONE', *, *, #596, .F. ) ;
#440 = CARTESIAN_POINT ( 'NONE',  ( -7.200000000000000178, 0.000000000000000000, 3.700000000000001954 ) ) ;
#441 = ORIENTED_EDGE ( 'NONE', *, *, #286, .T. ) ;
#442 = AXIS2_PLACEMENT_3D ( 'NONE', #170, #86, #14 ) ;
#443 = ORIENTED_EDGE ( 'NONE', *, *, #539, .F. ) ;
#444 = CARTESIAN_POINT ( 'NONE',  ( -18.00000000000000000, 0.000000000000000000, 2.500000000000000000 ) ) ;
#445 = ORIENTED_EDGE ( 'NONE', *, *, #877, .T. ) ;
#446 = ORIENTED_EDGE ( 'NONE', *, *, #63, .F. ) ;
#447 = DIRECTION ( 'NONE',  ( -1.000000000000000000, 0.000000000000000000, 0.000000000000000000 ) ) ;
#448 = ORIENTED_EDGE ( 'NONE', *, *, #568, .F. ) ;
#449 = EDGE_CURVE ( 'NONE', #802, #688, #575, .T. ) ;
#450 = EDGE_LOOP ( 'NONE', ( #917, #619, #582, #406 ) ) ;
#451 = CARTESIAN_POINT ( 'NONE',  ( 4.800000000000000711, 0.000000000000000000, 3.700000000000001954 ) ) ;
#452 = VECTOR ( 'NONE', #695, 1000.000000000000000 ) ;
#453 = CARTESIAN_POINT ( 'NONE',  ( -7.200000000000000178, 0.000000000000000000, 2.500000000000000000 ) ) ;
#454 = EDGE_CURVE ( 'NONE', #345, #150, #342, .T. ) ;
#455 = VECTOR ( 'NONE', #696, 1000.000000000000000 ) ;
#456 = AXIS2_PLACEMENT_3D ( 'NONE', #497, #417, #560 ) ;
#457 = CYLINDRICAL_SURFACE ( 'NONE', #126, 1.199999999999999734 ) ;
#458 = ORIENTED_EDGE ( 'NONE', *, *, #286, .F. ) ;
#459 = DIRECTION ( 'NONE',  ( 0.000000000000000000, 0.000000000000000000, -1.000000000000000000 ) ) ;
#460 = CYLINDRICAL_SURFACE ( 'NONE', #915, 2.325000000000000622 ) ;
#461 = CIRCLE ( 'NONE', #872, 1.199999999999999734 ) ;
#462 = FACE_OUTER_BOUND ( 'NONE', #536, .T. ) ;
#463 = CARTESIAN_POINT ( 'NONE',  ( 8.425000000000000711, 2.969768487932331484E-16, 2.500000000000000000 ) ) ;
#464 = EDGE_CURVE ( 'NONE', #188, #221, #298, .T. ) ;
#465 = APPROVAL_STATUS ( 'not_yet_approved' ) ;
#466 = DIRECTION ( 'NONE',  ( 0.000000000000000000, 0.000000000000000000, -1.000000000000000000 ) ) ;
#467 = CARTESIAN_POINT ( 'NONE',  ( 4.800000000000000711, 0.000000000000000000, 3.700000000000001954 ) ) ;
#468 = ORIENTED_EDGE ( 'NONE', *, *, #72, .T. ) ;
#469 = AXIS2_PLACEMENT_3D ( 'NONE', #198, #764, #770 ) ;
#470 = EDGE_CURVE ( 'NONE', #662, #188, #382, .T. ) ;
#471 = DIRECTION ( 'NONE',  ( 0.000000000000000000, 0.000000000000000000, 1.000000000000000000 ) ) ;
#472 = FACE_OUTER_BOUND ( 'NONE', #722, .T. ) ;
#473 = DIRECTION ( 'NONE',  ( -1.000000000000000000, 0.000000000000000000, 0.000000000000000000 ) ) ;
#474 = EDGE_LOOP ( 'NONE', ( #580, #631, #552, #798 ) ) ;
#475 = VECTOR ( 'NONE', #569, 1000.000000000000000 ) ;
#476 = ORIENTED_EDGE ( 'NONE', *, *, #727, .T. ) ;
#477 = CALENDAR_DATE ( 2026, 28, 9 ) ;
#478 = CARTESIAN_POINT ( 'NONE',  ( 15.52499999999999680, 0.000000000000000000, 2.500000000000000000 ) ) ;
#479 = AXIS2_PLACEMENT_3D ( 'NONE', #158, #724, #589 ) ;
#480 = DIRECTION ( 'NONE',  ( 0.000000000000000000, 0.000000000000000000, -1.000000000000000000 ) ) ;
#481 = ORIENTED_EDGE ( 'NONE', *, *, #657, .F. ) ;
#482 = ORIENTED_EDGE ( 'NONE', *, *, #464, .F. ) ;
#483 = DIRECTION ( 'NONE',  ( 1.000000000000000000, 0.000000000000000000, 0.000000000000000000 ) ) ;
#484 = APPROVAL_PERSON_ORGANIZATION ( #554, #106, #625 ) ;
#485 = EDGE_CURVE ( 'NONE', #648, #588, #604, .T. ) ;
#486 = LINE ( 'NONE', #634, #869 ) ;
#487 = DIRECTION ( 'NONE',  ( 1.000000000000000000, 0.000000000000000000, 0.000000000000000000 ) ) ;
#488 = COORDINATED_UNIVERSAL_TIME_OFFSET ( 6, 0, .BEHIND. ) ;
#489 = CARTESIAN_POINT ( 'NONE',  ( 7.200000000000000178, 1.469576158976823306E-16, 3.700000000000001954 ) ) ;
#490 = DIRECTION ( 'NONE',  ( 0.000000000000000000, 0.000000000000000000, 1.000000000000000000 ) ) ;
#491 = ORIENTED_EDGE ( 'NONE', *, *, #428, .F. ) ;
#492 = CARTESIAN_POINT ( 'NONE',  ( -6.000000000000000000, 0.000000000000000000, 0.000000000000000000 ) ) ;
#493 = AXIS2_PLACEMENT_3D ( 'NONE', #444, #531, #515 ) ;
#494 = CARTESIAN_POINT ( 'NONE',  ( -16.80000000000000071, 1.469576158976823306E-16, 3.700000000000001954 ) ) ;
#495 = ORIENTED_EDGE ( 'NONE', *, *, #859, .T. ) ;
#496 = EDGE_CURVE ( 'NONE', #862, #858, #533, .T. ) ;
#497 = CARTESIAN_POINT ( 'NONE',  ( 18.00000000000000000, 0.000000000000000000, 2.500000000000000000 ) ) ;
#498 = ORIENTED_EDGE ( 'NONE', *, *, #673, .F. ) ;
#499 = DIRECTION ( 'NONE',  ( 0.000000000000000000, 0.000000000000000000, -1.000000000000000000 ) ) ;
#500 = UNCERTAINTY_MEASURE_WITH_UNIT (LENGTH_MEASURE( 1.000000000000000082E-05 ), #898, 'distance_accuracy_value', 'NONE');
#501 = CARTESIAN_POINT ( 'NONE',  ( 0.000000000000000000, 0.000000000000000000, 0.000000000000000000 ) ) ;
#502 = FACE_BOUND ( 'NONE', #284, .T. ) ;
#503 = VECTOR ( 'NONE', #258, 1000.000000000000000 ) ;
#504 = FACE_OUTER_BOUND ( 'NONE', #79, .T. ) ;
#505 = AXIS2_PLACEMENT_3D ( 'NONE', #611, #179, #332 ) ;
#506 = EDGE_CURVE ( 'NONE', #98, #221, #71, .T. ) ;
#507 = CARTESIAN_POINT ( 'NONE',  ( 3.575000000000000178, 0.000000000000000000, 2.500000000000000000 ) ) ;
#508 = AXIS2_PLACEMENT_3D ( 'NONE', #142, #512, #214 ) ;
#509 = CARTESIAN_POINT ( 'NONE',  ( 27.00000000000000000, -6.000000000000000000, 3.700000000000002842 ) ) ;
#510 = ORIENTED_EDGE ( 'NONE', *, *, #2, .F. ) ;
#511 = ADVANCED_FACE ( 'NONE', ( #151 ), #6, .F. ) ;
#512 = DIRECTION ( 'NONE',  ( 0.000000000000000000, 0.000000000000000000, 1.000000000000000000 ) ) ;
#513 = LOCAL_TIME ( 18, 13, 29.00000000000000000, #488 ) ;
#514 = ORIENTED_EDGE ( 'NONE', *, *, #470, .F. ) ;
#515 = DIRECTION ( 'NONE',  ( 1.000000000000000000, 0.000000000000000000, 0.000000000000000000 ) ) ;
#516 = ORIENTED_EDGE ( 'NONE', *, *, #485, .F. ) ;
#517 = AXIS2_PLACEMENT_3D ( 'NONE', #586, #860, #368 ) ;
#518 = ORIENTED_EDGE ( 'NONE', *, *, #824, .T. ) ;
#519 = CARTESIAN_POINT ( 'NONE',  ( -4.800000000000000711, 1.469576158976823306E-16, 2.500000000000000000 ) ) ;
#520 = ORIENTED_EDGE ( 'NONE', *, *, #157, .T. ) ;
#521 = CIRCLE ( 'NONE', #442, 2.325000000000000622 ) ;
#522 = EDGE_LOOP ( 'NONE', ( #672, #725, #574, #89 ) ) ;
#523 = LINE ( 'NONE', #373, #40 ) ;
#524 = ORIENTED_EDGE ( 'NONE', *, *, #568, .T. ) ;
#525 = ORIENTED_EDGE ( 'NONE', *, *, #391, .T. ) ;
#526 = DIRECTION ( 'NONE',  ( 1.000000000000000000, 0.000000000000000000, 0.000000000000000000 ) ) ;
#527 = ADVANCED_FACE ( 'NONE', ( #402 ), #196, .F. ) ;
#528 = CARTESIAN_POINT ( 'NONE',  ( 18.00000000000000000, 0.000000000000000000, 2.500000000000000000 ) ) ;
#529 = CARTESIAN_POINT ( 'NONE',  ( -24.25000000000000000, 4.000000000000000000, 3.700000000000001954 ) ) ;
#530 = ORIENTED_EDGE ( 'NONE', *, *, #454, .F. ) ;
#531 = DIRECTION ( 'NONE',  ( -0.000000000000000000, -0.000000000000000000, -1.000000000000000000 ) ) ;
#532 = AXIS2_PLACEMENT_3D ( 'NONE', #612, #757, #117 ) ;
#533 = LINE ( 'NONE', #813, #701 ) ;
#534 = EDGE_CURVE ( 'NONE', #858, #688, #815, .T. ) ;
#535 = LINE ( 'NONE', #821, #410 ) ;
#536 = EDGE_LOOP ( 'NONE', ( #540, #77, #733, #800 ) ) ;
#537 = SECURITY_CLASSIFICATION_LEVEL ( 'unclassified' ) ;
#538 = CARTESIAN_POINT ( 'NONE',  ( 18.00000000000000000, 0.000000000000000000, 2.500000000000000000 ) ) ;
#539 = EDGE_CURVE ( 'NONE', #563, #81, #271, .T. ) ;
#540 = ORIENTED_EDGE ( 'NONE', *, *, #88, .F. ) ;
#541 = COORDINATED_UNIVERSAL_TIME_OFFSET ( 6, 0, .BEHIND. ) ;
#542 = DIRECTION ( 'NONE',  ( -1.000000000000000000, 0.000000000000000000, 0.000000000000000000 ) ) ;
#543 = CARTESIAN_POINT ( 'NONE',  ( -27.00000000000000000, -6.000000000000000000, 3.700000000000002842 ) ) ;
#544 = CIRCLE ( 'NONE', #635, 1.199999999999999734 ) ;
#545 = CARTESIAN_POINT ( 'NONE',  ( 3.575000000000000178, 0.000000000000000000, 2.500000000000000000 ) ) ;
#546 = ORIENTED_EDGE ( 'NONE', *, *, #633, .T. ) ;
#547 = EDGE_LOOP ( 'NONE', ( #385, #93, #30, #268 ) ) ;
#548 = EDGE_CURVE ( 'NONE', #829, #881, #833, .T. ) ;
#549 = CARTESIAN_POINT ( 'NONE',  ( -19.19999999999999929, 0.000000000000000000, 3.700000000000001954 ) ) ;
#550 = AXIS2_PLACEMENT_3D ( 'NONE', #171, #34, #246 ) ;
#551 = FACE_OUTER_BOUND ( 'NONE', #195, .T. ) ;
#552 = ORIENTED_EDGE ( 'NONE', *, *, #99, .F. ) ;
#553 = VERTEX_POINT ( 'NONE', #489 ) ;
#554 = PERSON_AND_ORGANIZATION ( #103, #133 ) ;
#555 = DIRECTION ( 'NONE',  ( -1.000000000000000000, 0.000000000000000000, 0.000000000000000000 ) ) ;
#556 = LOCAL_TIME ( 18, 13, 29.00000000000000000, #754 ) ;
#557 = CARTESIAN_POINT ( 'NONE',  ( -18.00000000000000000, 0.000000000000000000, 2.500000000000000000 ) ) ;
#558 = ORIENTED_EDGE ( 'NONE', *, *, #723, .F. ) ;
#559 = AXIS2_PLACEMENT_3D ( 'NONE', #528, #101, #429 ) ;
#560 = DIRECTION ( 'NONE',  ( 1.000000000000000000, 0.000000000000000000, -0.000000000000000000 ) ) ;
#561 = ADVANCED_FACE ( 'NONE', ( #826 ), #755, .F. ) ;
#562 = DIRECTION ( 'NONE',  ( 0.000000000000000000, 0.000000000000000000, -1.000000000000000000 ) ) ;
#563 = VERTEX_POINT ( 'NONE', #250 ) ;
#564 = DIRECTION ( 'NONE',  ( -0.000000000000000000, -0.000000000000000000, -1.000000000000000000 ) ) ;
#565 = ORIENTED_EDGE ( 'NONE', *, *, #579, .T. ) ;
#566 = AXIS2_PLACEMENT_3D ( 'NONE', #922, #573, #200 ) ;
#567 = CARTESIAN_POINT ( 'NONE',  ( -15.67499999999999716, 2.847303808017596928E-16, 0.000000000000000000 ) ) ;
#568 = EDGE_CURVE ( 'NONE', #785, #605, #762, .T. ) ;
#569 = DIRECTION ( 'NONE',  ( 0.000000000000000000, 1.000000000000000000, 0.000000000000000000 ) ) ;
#570 = ORIENTED_EDGE ( 'NONE', *, *, #371, .F. ) ;
#571 = DIRECTION ( 'NONE',  ( 1.000000000000000000, 0.000000000000000000, -0.000000000000000000 ) ) ;
#572 = EDGE_CURVE ( 'NONE', #743, #847, #339, .T. ) ;
#573 = DIRECTION ( 'NONE',  ( 0.000000000000000000, 0.000000000000000000, 1.000000000000000000 ) ) ;
#574 = ORIENTED_EDGE ( 'NONE', *, *, #786, .F. ) ;
#575 = LINE ( 'NONE', #165, #583 ) ;
#576 = CIRCLE ( 'NONE', #259, 2.475000000000001421 ) ;
#577 = DIRECTION ( 'NONE',  ( 0.000000000000000000, 0.000000000000000000, -1.000000000000000000 ) ) ;
#578 = CIRCLE ( 'NONE', #292, 1.199999999999999734 ) ;
#579 = EDGE_CURVE ( 'NONE', #777, #261, #461, .T. ) ;
#580 = ORIENTED_EDGE ( 'NONE', *, *, #302, .T. ) ;
#581 = DIRECTION ( 'NONE',  ( -0.000000000000000000, -0.000000000000000000, -1.000000000000000000 ) ) ;
#582 = ORIENTED_EDGE ( 'NONE', *, *, #548, .T. ) ;
#583 = VECTOR ( 'NONE', #736, 1000.000000000000000 ) ;
#584 = CARTESIAN_POINT ( 'NONE',  ( -18.00000000000000000, 0.000000000000000000, 2.500000000000000000 ) ) ;
#585 = ORIENTED_EDGE ( 'NONE', *, *, #819, .F. ) ;
#586 = CARTESIAN_POINT ( 'NONE',  ( 18.00000000000000000, 0.000000000000000000, 3.700000000000001954 ) ) ;
#587 = CIRCLE ( 'NONE', #644, 1.199999999999999734 ) ;
#588 = VERTEX_POINT ( 'NONE', #893 ) ;
#589 = DIRECTION ( 'NONE',  ( -1.000000000000000000, 0.000000000000000000, 0.000000000000000000 ) ) ;
#590 = EDGE_LOOP ( 'NONE', ( #446, #439 ) ) ;
#591 = CIRCLE ( 'NONE', #422, 1.199999999999999734 ) ;
#592 = EDGE_CURVE ( 'NONE', #150, #345, #212, .T. ) ;
#593 = VERTEX_POINT ( 'NONE', #38 ) ;
#594 = DIRECTION ( 'NONE',  ( 1.000000000000000000, 0.000000000000000000, 0.000000000000000000 ) ) ;
#595 = ORIENTED_EDGE ( 'NONE', *, *, #633, .F. ) ;
#596 = EDGE_CURVE ( 'NONE', #224, #181, #426, .T. ) ;
#597 = ORIENTED_EDGE ( 'NONE', *, *, #824, .F. ) ;
#598 = CARTESIAN_POINT ( 'NONE',  ( 7.200000000000000178, 1.469576158976823306E-16, 2.500000000000000000 ) ) ;
#599 = CARTESIAN_POINT ( 'NONE',  ( -15.67499999999999716, 2.847303808017596928E-16, 2.500000000000000000 ) ) ;
#600 = CIRCLE ( 'NONE', #28, 1.199999999999999734 ) ;
#601 = EDGE_LOOP ( 'NONE', ( #45, #886, #435, #233 ) ) ;
#602 = CARTESIAN_POINT ( 'NONE',  ( -19.19999999999999929, 0.000000000000000000, 3.700000000000001954 ) ) ;
#603 = ADVANCED_FACE ( 'NONE', ( #472 ), #816, .F. ) ;
#604 = LINE ( 'NONE', #507, #861 ) ;
#605 = VERTEX_POINT ( 'NONE', #750 ) ;
#606 = CARTESIAN_POINT ( 'NONE',  ( 18.00000000000000000, 0.000000000000000000, 3.700000000000001954 ) ) ;
#607 = APPROVAL ( #825, 'UNSPECIFIED' ) ;
#608 = CARTESIAN_POINT ( 'NONE',  ( 6.000000000000000000, 0.000000000000000000, 2.500000000000000000 ) ) ;
#609 = AXIS2_PLACEMENT_3D ( 'NONE', #873, #459, #164 ) ;
#610 = DIRECTION ( 'NONE',  ( 0.000000000000000000, 0.000000000000000000, 1.000000000000000000 ) ) ;
#611 = CARTESIAN_POINT ( 'NONE',  ( -6.000000000000000000, 0.000000000000000000, 2.500000000000000000 ) ) ;
#612 = CARTESIAN_POINT ( 'NONE',  ( -25.00000000000000000, 4.000000000000000000, 0.000000000000000000 ) ) ;
#613 = VERTEX_POINT ( 'NONE', #408 ) ;
#614 = ORIENTED_EDGE ( 'NONE', *, *, #506, .T. ) ;
#615 = CARTESIAN_POINT ( 'NONE',  ( 6.000000000000000000, 0.000000000000000000, 3.700000000000001954 ) ) ;
#616 = CARTESIAN_POINT ( 'NONE',  ( -8.375000000000000000, 0.000000000000000000, 0.000000000000000000 ) ) ;
#617 = ORIENTED_EDGE ( 'NONE', *, *, #32, .F. ) ;
#618 = ADVANCED_FACE ( 'NONE', ( #820 ), #111, .F. ) ;
#619 = ORIENTED_EDGE ( 'NONE', *, *, #88, .T. ) ;
#620 = COORDINATED_UNIVERSAL_TIME_OFFSET ( 6, 0, .BEHIND. ) ;
#621 = DIRECTION ( 'NONE',  ( -1.000000000000000000, -0.000000000000000000, -0.000000000000000000 ) ) ;
#622 = CARTESIAN_POINT ( 'NONE',  ( 18.00000000000000000, 0.000000000000000000, 3.700000000000001954 ) ) ;
#623 = DIRECTION ( 'NONE',  ( 0.000000000000000000, 0.000000000000000000, -1.000000000000000000 ) ) ;
#624 = VECTOR ( 'NONE', #623, 1000.000000000000000 ) ;
#625 = APPROVAL_ROLE ( '' ) ;
#626 = CARTESIAN_POINT ( 'NONE',  ( -18.00000000000000000, 0.000000000000000000, 3.700000000000001954 ) ) ;
#627 = AXIS2_PLACEMENT_3D ( 'NONE', #791, #437, #186 ) ;
#628 = PLANE ( 'NONE',  #694 ) ;
#629 = CARTESIAN_POINT ( 'NONE',  ( -3.625000000000000000, 2.908536147974963713E-16, 0.000000000000000000 ) ) ;
#630 = APPLICATION_CONTEXT ( 'configuration controlled 3d designs of mechanical parts and assemblies' ) ;
#631 = ORIENTED_EDGE ( 'NONE', *, *, #646, .F. ) ;
#632 = DIRECTION ( 'NONE',  ( 0.000000000000000000, 0.000000000000000000, 1.000000000000000000 ) ) ;
#633 = EDGE_CURVE ( 'NONE', #777, #738, #43, .T. ) ;
#634 = CARTESIAN_POINT ( 'NONE',  ( -27.00000000000000000, -6.000000000000000000, 0.000000000000000000 ) ) ;
#635 = AXIS2_PLACEMENT_3D ( 'NONE', #538, #581, #867 ) ;
#636 = CARTESIAN_POINT ( 'NONE',  ( 18.00000000000000000, 0.000000000000000000, 0.000000000000000000 ) ) ;
#637 = ADVANCED_FACE ( 'NONE', ( #745 ), #54, .F. ) ;
#638 = DIRECTION ( 'NONE',  ( 1.000000000000000000, 0.000000000000000000, 0.000000000000000000 ) ) ;
#639 = SHAPE_DEFINITION_REPRESENTATION ( #226, #249 ) ;
#640 = DIRECTION ( 'NONE',  ( 0.000000000000000000, 0.000000000000000000, 1.000000000000000000 ) ) ;
#641 = CIRCLE ( 'NONE', #566, 2.325000000000000622 ) ;
#642 = CARTESIAN_POINT ( 'NONE',  ( 18.00000000000000000, 0.000000000000000000, 2.500000000000000000 ) ) ;
#643 = FACE_BOUND ( 'NONE', #41, .T. ) ;
#644 = AXIS2_PLACEMENT_3D ( 'NONE', #806, #18, #664 ) ;
#645 = CARTESIAN_POINT ( 'NONE',  ( -18.00000000000000000, 0.000000000000000000, 2.500000000000000000 ) ) ;
#646 = EDGE_CURVE ( 'NONE', #834, #923, #327, .T. ) ;
#647 = DIRECTION ( 'NONE',  ( 1.000000000000000000, 0.000000000000000000, 0.000000000000000000 ) ) ;
#648 = VERTEX_POINT ( 'NONE', #545 ) ;
#649 = DIRECTION ( 'NONE',  ( -1.000000000000000000, 0.000000000000000000, 0.000000000000000000 ) ) ;
#650 = CIRCLE ( 'NONE', #92, 0.7500000000000006661 ) ;
#651 = ORIENTED_EDGE ( 'NONE', *, *, #336, .T. ) ;
#652 = LINE ( 'NONE', #713, #397 ) ;
#653 = DIRECTION ( 'NONE',  ( 1.000000000000000000, 0.000000000000000000, 0.000000000000000000 ) ) ;
#654 = ORIENTED_EDGE ( 'NONE', *, *, #496, .F. ) ;
#655 = CARTESIAN_POINT ( 'NONE',  ( 16.80000000000000071, 0.000000000000000000, 2.500000000000000000 ) ) ;
#656 = VERTEX_POINT ( 'NONE', #909 ) ;
#657 = EDGE_CURVE ( 'NONE', #613, #81, #141, .T. ) ;
#658 = ORIENTED_EDGE ( 'NONE', *, *, #732, .F. ) ;
#659 = DIRECTION ( 'NONE',  ( 0.000000000000000000, 0.000000000000000000, -1.000000000000000000 ) ) ;
#660 = EDGE_LOOP ( 'NONE', ( #255, #897, #155, #654 ) ) ;
#661 = ADVANCED_FACE ( 'NONE', ( #135 ), #918, .F. ) ;
#662 = VERTEX_POINT ( 'NONE', #436 ) ;
#663 = AXIS2_PLACEMENT_3D ( 'NONE', #773, #353, #690 ) ;
#664 = DIRECTION ( 'NONE',  ( 1.000000000000000000, 0.000000000000000000, 0.000000000000000000 ) ) ;
#665 = CIRCLE ( 'NONE', #159, 2.475000000000001421 ) ;
#666 = ORIENTED_EDGE ( 'NONE', *, *, #579, .F. ) ;
#667 = ADVANCED_FACE ( 'NONE', ( #720 ), #772, .F. ) ;
#668 = CARTESIAN_POINT ( 'NONE',  ( 27.00000000000000000, -6.000000000000000000, 0.000000000000000000 ) ) ;
#669 = AXIS2_PLACEMENT_3D ( 'NONE', #127, #276, #903 ) ;
#670 = DIRECTION ( 'NONE',  ( -0.000000000000000000, -0.000000000000000000, -1.000000000000000000 ) ) ;
#671 = DIRECTION ( 'NONE',  ( 0.000000000000000000, 0.000000000000000000, -1.000000000000000000 ) ) ;
#672 = ORIENTED_EDGE ( 'NONE', *, *, #797, .F. ) ;
#673 = EDGE_CURVE ( 'NONE', #605, #847, #420, .T. ) ;
#674 = CARTESIAN_POINT ( 'NONE',  ( 6.000000000000000000, 0.000000000000000000, 3.700000000000001954 ) ) ;
#675 = DIRECTION ( 'NONE',  ( 1.000000000000000000, 0.000000000000000000, 0.000000000000000000 ) ) ;
#676 = AXIS2_PLACEMENT_3D ( 'NONE', #288, #670, #717 ) ;
#677 = PLANE ( 'NONE',  #734 ) ;
#678 = EDGE_LOOP ( 'NONE', ( #617, #570 ) ) ;
#679 = CIRCLE ( 'NONE', #213, 2.375000000000000000 ) ;
#680 = PERSON_AND_ORGANIZATION_ROLE ( 'creator' ) ;
#681 = CARTESIAN_POINT ( 'NONE',  ( 27.00000000000000000, -6.000000000000000000, 3.700000000000002842 ) ) ;
#682 = ORIENTED_EDGE ( 'NONE', *, *, #496, .T. ) ;
#683 = VECTOR ( 'NONE', #376, 1000.000000000000000 ) ;
#684 = COORDINATED_UNIVERSAL_TIME_OFFSET ( 6, 0, .BEHIND. ) ;
#685 = DIRECTION ( 'NONE',  ( 0.000000000000000000, 1.000000000000000000, 0.000000000000000000 ) ) ;
#686 = ADVANCED_FACE ( 'NONE', ( #842, #205 ), #775, .F. ) ;
#687 = DIRECTION ( 'NONE',  ( -0.000000000000000000, -1.000000000000000000, -0.000000000000000000 ) ) ;
#688 = VERTEX_POINT ( 'NONE', #355 ) ;
#689 = DIRECTION ( 'NONE',  ( -1.000000000000000000, -0.000000000000000000, -0.000000000000000000 ) ) ;
#690 = DIRECTION ( 'NONE',  ( 1.000000000000000000, 0.000000000000000000, 0.000000000000000000 ) ) ;
#691 = ORIENTED_EDGE ( 'NONE', *, *, #832, .T. ) ;
#692 = DIRECTION ( 'NONE',  ( 1.000000000000000000, 0.000000000000000000, 0.000000000000000000 ) ) ;
#693 = DIRECTION ( 'NONE',  ( -1.000000000000000000, 0.000000000000000000, 0.000000000000000000 ) ) ;
#694 = AXIS2_PLACEMENT_3D ( 'NONE', #137, #850, #405 ) ;
#695 = DIRECTION ( 'NONE',  ( 0.000000000000000000, 0.000000000000000000, -1.000000000000000000 ) ) ;
#696 = DIRECTION ( 'NONE',  ( 0.000000000000000000, 0.000000000000000000, -1.000000000000000000 ) ) ;
#697 = EDGE_LOOP ( 'NONE', ( #16, #109 ) ) ;
#698 = ADVANCED_FACE ( 'NONE', ( #504 ), #430, .F. ) ;
#699 = CARTESIAN_POINT ( 'NONE',  ( -25.00000000000000000, 4.000000000000000000, 3.700000000000001954 ) ) ;
#700 = ORIENTED_EDGE ( 'NONE', *, *, #832, .F. ) ;
#701 = VECTOR ( 'NONE', #712, 1000.000000000000000 ) ;
#702 = PLANE ( 'NONE',  #139 ) ;
#703 = CC_DESIGN_PERSON_AND_ORGANIZATION_ASSIGNMENT ( #407, #183, ( #15 ) ) ;
#704 = DIRECTION ( 'NONE',  ( 1.000000000000000000, 0.000000000000000000, 0.000000000000000000 ) ) ;
#705 = CARTESIAN_POINT ( 'NONE',  ( -25.75000000000000355, 4.000000000000000000, 3.700000000000001954 ) ) ;
#706 = CARTESIAN_POINT ( 'NONE',  ( -27.00000000000000000, -6.000000000000000000, 0.000000000000000000 ) ) ;
#707 = ORIENTED_EDGE ( 'NONE', *, *, #63, .T. ) ;
#708 = CYLINDRICAL_SURFACE ( 'NONE', #53, 2.475000000000001421 ) ;
#709 = AXIS2_PLACEMENT_3D ( 'NONE', #699, #632, #914 ) ;
#710 = DIRECTION ( 'NONE',  ( 0.000000000000000000, 0.000000000000000000, 1.000000000000000000 ) ) ;
#711 = EDGE_CURVE ( 'NONE', #834, #785, #70, .T. ) ;
#712 = DIRECTION ( 'NONE',  ( 0.000000000000000000, 0.000000000000000000, -1.000000000000000000 ) ) ;
#713 = CARTESIAN_POINT ( 'NONE',  ( -27.00000000000000000, -6.000000000000000000, 3.700000000000002842 ) ) ;
#714 = EDGE_LOOP ( 'NONE', ( #871, #393, #700, #516 ) ) ;
#715 = AXIS2_PLACEMENT_3D ( 'NONE', #26, #610, #692 ) ;
#716 = CIRCLE ( 'NONE', #532, 0.7500000000000006661 ) ;
#717 = DIRECTION ( 'NONE',  ( 1.000000000000000000, 0.000000000000000000, 0.000000000000000000 ) ) ;
#718 = ADVANCED_FACE ( 'NONE', ( #643, #789, #211, #857, #351, #9 ), #287, .T. ) ;
#719 = VERTEX_POINT ( 'NONE', #851 ) ;
#720 = FACE_OUTER_BOUND ( 'NONE', #375, .T. ) ;
#721 = DIRECTION ( 'NONE',  ( -0.000000000000000000, -0.000000000000000000, -1.000000000000000000 ) ) ;
#722 = EDGE_LOOP ( 'NONE', ( #87, #156, #748, #927 ) ) ;
#723 = EDGE_CURVE ( 'NONE', #81, #613, #665, .T. ) ;
#724 = DIRECTION ( 'NONE',  ( 0.000000000000000000, 0.000000000000000000, -1.000000000000000000 ) ) ;
#725 = ORIENTED_EDGE ( 'NONE', *, *, #572, .F. ) ;
#726 = CARTESIAN_POINT ( 'NONE',  ( -25.75000000000000355, 4.000000000000000000, 0.000000000000000000 ) ) ;
#727 = EDGE_CURVE ( 'NONE', #758, #648, #354, .T. ) ;
#728 = EDGE_LOOP ( 'NONE', ( #218, #182 ) ) ;
#729 = VERTEX_POINT ( 'NONE', #706 ) ;
#730 = CARTESIAN_POINT ( 'NONE',  ( 4.800000000000000711, 0.000000000000000000, 2.500000000000000000 ) ) ;
#731 = ORIENTED_EDGE ( 'NONE', *, *, #877, .F. ) ;
#732 = EDGE_CURVE ( 'NONE', #98, #662, #641, .T. ) ;
#733 = ORIENTED_EDGE ( 'NONE', *, *, #792, .T. ) ;
#734 = AXIS2_PLACEMENT_3D ( 'NONE', #35, #778, #571 ) ;
#735 = CARTESIAN_POINT ( 'NONE',  ( -24.25000000000000000, 4.000000000000000000, 0.000000000000000000 ) ) ;
#736 = DIRECTION ( 'NONE',  ( 0.000000000000000000, 0.000000000000000000, -1.000000000000000000 ) ) ;
#737 = CARTESIAN_POINT ( 'NONE',  ( 15.52499999999999680, 0.000000000000000000, 0.000000000000000000 ) ) ;
#738 = VERTEX_POINT ( 'NONE', #779 ) ;
#739 = DIRECTION ( 'NONE',  ( 1.000000000000000000, 0.000000000000000000, 0.000000000000000000 ) ) ;
#740 = VECTOR ( 'NONE', #689, 1000.000000000000000 ) ;
#741 = CARTESIAN_POINT ( 'NONE',  ( -6.000000000000000000, 0.000000000000000000, 2.500000000000000000 ) ) ;
#742 = CARTESIAN_POINT ( 'NONE',  ( -20.32499999999999929, 0.000000000000000000, 0.000000000000000000 ) ) ;
#743 = VERTEX_POINT ( 'NONE', #74 ) ;
#744 = APPLICATION_PROTOCOL_DEFINITION ( 'international standard', 'config_control_design', 1994, #147 ) ;
#745 = FACE_OUTER_BOUND ( 'NONE', #547, .T. ) ;
#746 = AXIS2_PLACEMENT_3D ( 'NONE', #279, #562, #843 ) ;
#747 = CYLINDRICAL_SURFACE ( 'NONE', #359, 2.375000000000000444 ) ;
#748 = ORIENTED_EDGE ( 'NONE', *, *, #39, .T. ) ;
#749 = DATE_TIME_ROLE ( 'creation_date' ) ;
#750 = CARTESIAN_POINT ( 'NONE',  ( -27.00000000000000000, 6.000000000000000000, 3.700000000000002842 ) ) ;
#751 = DIRECTION ( 'NONE',  ( -1.000000000000000000, 0.000000000000000000, 0.000000000000000000 ) ) ;
#752 = ORIENTED_EDGE ( 'NONE', *, *, #172, .T. ) ;
#753 = CIRCLE ( 'NONE', #83, 2.375000000000000000 ) ;
#754 = COORDINATED_UNIVERSAL_TIME_OFFSET ( 6, 0, .BEHIND. ) ;
#755 = CYLINDRICAL_SURFACE ( 'NONE', #910, 1.199999999999999734 ) ;
#756 = EDGE_CURVE ( 'NONE', #24, #729, #652, .T. ) ;
#757 = DIRECTION ( 'NONE',  ( -0.000000000000000000, -0.000000000000000000, 1.000000000000000000 ) ) ;
#758 = VERTEX_POINT ( 'NONE', #208 ) ;
#759 = ORIENTED_EDGE ( 'NONE', *, *, #592, .F. ) ;
#760 = AXIS2_PLACEMENT_3D ( 'NONE', #321, #471, #908 ) ;
#761 = PERSON_AND_ORGANIZATION_ROLE ( 'design_owner' ) ;
#762 = LINE ( 'NONE', #115, #788 ) ;
#763 = EDGE_CURVE ( 'NONE', #124, #58, #753, .T. ) ;
#764 = DIRECTION ( 'NONE',  ( 0.000000000000000000, 0.000000000000000000, -1.000000000000000000 ) ) ;
#765 = DIRECTION ( 'NONE',  ( 1.000000000000000000, 0.000000000000000000, 0.000000000000000000 ) ) ;
#766 = ORIENTED_EDGE ( 'NONE', *, *, #166, .T. ) ;
#767 = DATE_AND_TIME ( #47, #513 ) ;
#768 = CIRCLE ( 'NONE', #364, 2.425000000000000266 ) ;
#769 = DIRECTION ( 'NONE',  ( 1.000000000000000000, 0.000000000000000000, 0.000000000000000000 ) ) ;
#770 = DIRECTION ( 'NONE',  ( -1.000000000000000000, 0.000000000000000000, 0.000000000000000000 ) ) ;
#771 = ADVANCED_FACE ( 'NONE', ( #3 ), #290, .F. ) ;
#772 = CYLINDRICAL_SURFACE ( 'NONE', #827, 2.425000000000000266 ) ;
#773 = CARTESIAN_POINT ( 'NONE',  ( 6.000000000000000000, 0.000000000000000000, 2.500000000000000000 ) ) ;
#774 = VERTEX_POINT ( 'NONE', #726 ) ;
#775 = PLANE ( 'NONE',  #456 ) ;
#776 = LOCAL_TIME ( 18, 13, 29.00000000000000000, #541 ) ;
#777 = VERTEX_POINT ( 'NONE', #602 ) ;
#778 = DIRECTION ( 'NONE',  ( 0.000000000000000000, 0.000000000000000000, 1.000000000000000000 ) ) ;
#779 = CARTESIAN_POINT ( 'NONE',  ( -19.19999999999999929, 0.000000000000000000, 2.500000000000000000 ) ) ;
#780 = ADVANCED_FACE ( 'NONE', ( #795 ), #882, .F. ) ;
#781 = CIRCLE ( 'NONE', #663, 1.199999999999999734 ) ;
#782 = CARTESIAN_POINT ( 'NONE',  ( -18.00000000000000000, 0.000000000000000000, 2.500000000000000000 ) ) ;
#783 = AXIS2_PLACEMENT_3D ( 'NONE', #175, #466, #542 ) ;
#784 = CARTESIAN_POINT ( 'NONE',  ( -18.00000000000000000, 0.000000000000000000, 3.700000000000001954 ) ) ;
#785 = VERTEX_POINT ( 'NONE', #301 ) ;
#786 = EDGE_CURVE ( 'NONE', #923, #743, #878, .T. ) ;
#787 = DIRECTION ( 'NONE',  ( 0.000000000000000000, 0.000000000000000000, 1.000000000000000000 ) ) ;
#788 = VECTOR ( 'NONE', #621, 1000.000000000000000 ) ;
#789 = FACE_BOUND ( 'NONE', #13, .T. ) ;
#790 = ORIENTED_EDGE ( 'NONE', *, *, #297, .F. ) ;
#791 = CARTESIAN_POINT ( 'NONE',  ( -18.00000000000000000, 0.000000000000000000, 2.500000000000000000 ) ) ;
#792 = EDGE_CURVE ( 'NONE', #128, #881, #870, .T. ) ;
#793 = ORIENTED_EDGE ( 'NONE', *, *, #434, .F. ) ;
#794 = CIRCLE ( 'NONE', #559, 2.475000000000001421 ) ;
#795 = FACE_OUTER_BOUND ( 'NONE', #19, .T. ) ;
#796 = EDGE_LOOP ( 'NONE', ( #50, #199, #901, #481 ) ) ;
#797 = EDGE_CURVE ( 'NONE', #847, #729, #90, .T. ) ;
#798 = ORIENTED_EDGE ( 'NONE', *, *, #756, .T. ) ;
#799 = CARTESIAN_POINT ( 'NONE',  ( -27.00000000000000000, 6.000000000000000000, 0.000000000000000000 ) ) ;
#800 = ORIENTED_EDGE ( 'NONE', *, *, #236, .T. ) ;
#801 = VECTOR ( 'NONE', #313, 1000.000000000000000 ) ;
#802 = VERTEX_POINT ( 'NONE', #154 ) ;
#803 = DIRECTION ( 'NONE',  ( 0.000000000000000000, 0.000000000000000000, 1.000000000000000000 ) ) ;
#804 = EDGE_LOOP ( 'NONE', ( #209, #21, #441, #793 ) ) ;
#805 = VERTEX_POINT ( 'NONE', #220 ) ;
#806 = CARTESIAN_POINT ( 'NONE',  ( -18.00000000000000000, 0.000000000000000000, 3.700000000000001954 ) ) ;
#807 = DIRECTION ( 'NONE',  ( -0.000000000000000000, -0.000000000000000000, -1.000000000000000000 ) ) ;
#808 = EDGE_CURVE ( 'NONE', #380, #738, #890, .T. ) ;
#809 = LINE ( 'NONE', #29, #5 ) ;
#810 = ORIENTED_EDGE ( 'NONE', *, *, #272, .F. ) ;
#811 = AXIS2_PLACEMENT_3D ( 'NONE', #817, #44, #238 ) ;
#812 = LINE ( 'NONE', #370, #683 ) ;
#813 = CARTESIAN_POINT ( 'NONE',  ( 16.80000000000000071, 0.000000000000000000, 3.700000000000001954 ) ) ;
#814 = ORIENTED_EDGE ( 'NONE', *, *, #336, .F. ) ;
#815 = CIRCLE ( 'NONE', #383, 1.199999999999999734 ) ;
#816 = CYLINDRICAL_SURFACE ( 'NONE', #783, 0.7500000000000006661 ) ;
#817 = CARTESIAN_POINT ( 'NONE',  ( -18.00000000000000000, 0.000000000000000000, 3.700000000000001954 ) ) ;
#818 = PLANE ( 'NONE',  #855 ) ;
#819 = EDGE_CURVE ( 'NONE', #805, #415, #240, .T. ) ;
#820 = FACE_OUTER_BOUND ( 'NONE', #660, .T. ) ;
#821 = CARTESIAN_POINT ( 'NONE',  ( -3.625000000000000000, 2.908536147974963713E-16, 2.500000000000000000 ) ) ;
#822 = CARTESIAN_POINT ( 'NONE',  ( -6.000000000000000000, 0.000000000000000000, 3.700000000000001954 ) ) ;
#823 = ORIENTED_EDGE ( 'NONE', *, *, #404, .T. ) ;
#824 = EDGE_CURVE ( 'NONE', #261, #380, #812, .T. ) ;
#825 = APPROVAL_STATUS ( 'not_yet_approved' ) ;
#826 = FACE_OUTER_BOUND ( 'NONE', #450, .T. ) ;
#827 = AXIS2_PLACEMENT_3D ( 'NONE', #425, #577, #62 ) ;
#828 = CYLINDRICAL_SURFACE ( 'NONE', #55, 2.425000000000000266 ) ;
#829 = VERTEX_POINT ( 'NONE', #598 ) ;
#830 = APPROVAL_STATUS ( 'not_yet_approved' ) ;
#831 = CARTESIAN_POINT ( 'NONE',  ( -27.00000000000000000, -6.000000000000000000, 3.700000000000002842 ) ) ;
#832 = EDGE_CURVE ( 'NONE', #588, #656, #282, .T. ) ;
#833 = CIRCLE ( 'NONE', #669, 1.199999999999999734 ) ;
#834 = VERTEX_POINT ( 'NONE', #225 ) ;
#835 = FACE_BOUND ( 'NONE', #84, .T. ) ;
#836 = DIRECTION ( 'NONE',  ( 0.000000000000000000, 0.000000000000000000, 1.000000000000000000 ) ) ;
#837 =( GEOMETRIC_REPRESENTATION_CONTEXT ( 3 ) GLOBAL_UNCERTAINTY_ASSIGNED_CONTEXT ( ( #500 ) ) GLOBAL_UNIT_ASSIGNED_CONTEXT ( ( #898, #902, #256 ) ) REPRESENTATION_CONTEXT ( 'NONE', 'WORKASPACE' ) );
#838 = CALENDAR_DATE ( 2026, 28, 9 ) ;
#839 = DIRECTION ( 'NONE',  ( 0.000000000000000000, 0.000000000000000000, -1.000000000000000000 ) ) ;
#840 = DIRECTION ( 'NONE',  ( 0.000000000000000000, 0.000000000000000000, 1.000000000000000000 ) ) ;
#841 = EDGE_LOOP ( 'NONE', ( #691, #326 ) ) ;
#842 = FACE_BOUND ( 'NONE', #140, .T. ) ;
#843 = DIRECTION ( 'NONE',  ( -1.000000000000000000, 0.000000000000000000, -0.000000000000000000 ) ) ;
#844 = ORIENTED_EDGE ( 'NONE', *, *, #438, .F. ) ;
#845 = AXIS2_PLACEMENT_3D ( 'NONE', #234, #295, #526 ) ;
#846 = CARTESIAN_POINT ( 'NONE',  ( -25.00000000000000000, 4.000000000000000000, 3.700000000000001954 ) ) ;
#847 = VERTEX_POINT ( 'NONE', #799 ) ;
#848 = CARTESIAN_POINT ( 'NONE',  ( 18.00000000000000000, 0.000000000000000000, 2.500000000000000000 ) ) ;
#849 = DIRECTION ( 'NONE',  ( -1.000000000000000000, 0.000000000000000000, -0.000000000000000000 ) ) ;
#850 = DIRECTION ( 'NONE',  ( 0.000000000000000000, -1.000000000000000000, 0.000000000000000000 ) ) ;
#851 = CARTESIAN_POINT ( 'NONE',  ( -4.800000000000000711, 1.469576158976823306E-16, 3.700000000000001954 ) ) ;
#852 = EDGE_LOOP ( 'NONE', ( #160, #498, #448, #823 ) ) ;
#853 = VECTOR ( 'NONE', #384, 1000.000000000000000 ) ;
#854 = DIRECTION ( 'NONE',  ( 0.000000000000000000, 0.000000000000000000, -1.000000000000000000 ) ) ;
#855 = AXIS2_PLACEMENT_3D ( 'NONE', #906, #253, #330 ) ;
#856 = AXIS2_PLACEMENT_3D ( 'NONE', #392, #483, #120 ) ;
#857 = FACE_BOUND ( 'NONE', #841, .T. ) ;
#858 = VERTEX_POINT ( 'NONE', #655 ) ;
#859 = EDGE_CURVE ( 'NONE', #221, #188, #521, .T. ) ;
#860 = DIRECTION ( 'NONE',  ( 0.000000000000000000, 0.000000000000000000, 1.000000000000000000 ) ) ;
#861 = VECTOR ( 'NONE', #884, 1000.000000000000000 ) ;
#862 = VERTEX_POINT ( 'NONE', #230 ) ;
#863 = DIRECTION ( 'NONE',  ( 0.000000000000000000, 1.000000000000000000, 0.000000000000000000 ) ) ;
#864 = EDGE_LOOP ( 'NONE', ( #520, #136, #367, #524 ) ) ;
#865 = APPROVAL_PERSON_ORGANIZATION ( #400, #146, #331 ) ;
#866 = CC_DESIGN_PERSON_AND_ORGANIZATION_ASSIGNMENT ( #177, #680, ( #398 ) ) ;
#867 = DIRECTION ( 'NONE',  ( 1.000000000000000000, 0.000000000000000000, 0.000000000000000000 ) ) ;
#868 = ORIENTED_EDGE ( 'NONE', *, *, #203, .T. ) ;
#869 = VECTOR ( 'NONE', #638, 1000.000000000000000 ) ;
#870 = LINE ( 'NONE', #451, #801 ) ;
#871 = ORIENTED_EDGE ( 'NONE', *, *, #438, .T. ) ;
#872 = AXIS2_PLACEMENT_3D ( 'NONE', #626, #344, #48 ) ;
#873 = CARTESIAN_POINT ( 'NONE',  ( -6.000000000000000000, 0.000000000000000000, 3.700000000000001954 ) ) ;
#874 = ORIENTED_EDGE ( 'NONE', *, *, #464, .T. ) ;
#875 = VECTOR ( 'NONE', #23, 1000.000000000000000 ) ;
#876 = VERTEX_POINT ( 'NONE', #519 ) ;
#877 = EDGE_CURVE ( 'NONE', #719, #876, #523, .T. ) ;
#878 = LINE ( 'NONE', #309, #202 ) ;
#879 = SECURITY_CLASSIFICATION ( '', '', #537 ) ;
#880 = CYLINDRICAL_SURFACE ( 'NONE', #811, 1.199999999999999734 ) ;
#881 = VERTEX_POINT ( 'NONE', #730 ) ;
#882 = CYLINDRICAL_SURFACE ( 'NONE', #609, 1.199999999999999734 ) ;
#883 = EDGE_CURVE ( 'NONE', #738, #380, #921, .T. ) ;
#884 = DIRECTION ( 'NONE',  ( 0.000000000000000000, 0.000000000000000000, -1.000000000000000000 ) ) ;
#885 = DIRECTION ( 'NONE',  ( 0.000000000000000000, 0.000000000000000000, -1.000000000000000000 ) ) ;
#886 = ORIENTED_EDGE ( 'NONE', *, *, #732, .T. ) ;
#887 = APPROVAL_DATE_TIME ( #318, #106 ) ;
#888 = DIRECTION ( 'NONE',  ( 1.000000000000000000, 0.000000000000000000, 0.000000000000000000 ) ) ;
#889 = EDGE_CURVE ( 'NONE', #128, #553, #600, .T. ) ;
#890 = CIRCLE ( 'NONE', #493, 1.199999999999999734 ) ;
#891 = CARTESIAN_POINT ( 'NONE',  ( -27.00000000000000000, -6.000000000000000000, 3.700000000000002842 ) ) ;
#892 = DIRECTION ( 'NONE',  ( -1.000000000000000000, 0.000000000000000000, 0.000000000000000000 ) ) ;
#893 = CARTESIAN_POINT ( 'NONE',  ( 3.575000000000000178, 0.000000000000000000, 0.000000000000000000 ) ) ;
#894 = EDGE_CURVE ( 'NONE', #261, #777, #587, .T. ) ;
#895 = CARTESIAN_POINT ( 'NONE',  ( -25.00000000000000000, 4.000000000000000000, 0.000000000000000000 ) ) ;
#896 = EDGE_LOOP ( 'NONE', ( #105, #369 ) ) ;
#897 = ORIENTED_EDGE ( 'NONE', *, *, #449, .T. ) ;
#898 =( LENGTH_UNIT ( ) NAMED_UNIT ( * ) SI_UNIT ( .MILLI., .METRE. ) );
#899 = DIRECTION ( 'NONE',  ( -0.000000000000000000, -0.000000000000000000, -1.000000000000000000 ) ) ;
#900 = LINE ( 'NONE', #891, #291 ) ;
#901 = ORIENTED_EDGE ( 'NONE', *, *, #539, .T. ) ;
#902 =( NAMED_UNIT ( * ) PLANE_ANGLE_UNIT ( ) SI_UNIT ( $, .RADIAN. ) );
#903 = DIRECTION ( 'NONE',  ( 1.000000000000000000, 0.000000000000000000, 0.000000000000000000 ) ) ;
#904 = VECTOR ( 'NONE', #108, 1000.000000000000000 ) ;
#905 = FACE_OUTER_BOUND ( 'NONE', #239, .T. ) ;
#906 = CARTESIAN_POINT ( 'NONE',  ( 27.00000000000000000, -6.000000000000000000, 3.700000000000002842 ) ) ;
#907 = ORIENTED_EDGE ( 'NONE', *, *, #449, .F. ) ;
#908 = DIRECTION ( 'NONE',  ( 1.000000000000000000, 0.000000000000000000, 0.000000000000000000 ) ) ;
#909 = CARTESIAN_POINT ( 'NONE',  ( 8.425000000000000711, 2.969768487932331484E-16, 0.000000000000000000 ) ) ;
#910 = AXIS2_PLACEMENT_3D ( 'NONE', #615, #839, #555 ) ;
#911 = DIRECTION ( 'NONE',  ( 1.000000000000000000, 0.000000000000000000, -0.000000000000000000 ) ) ;
#912 = LINE ( 'NONE', #123, #455 ) ;
#913 = VERTEX_POINT ( 'NONE', #735 ) ;
#914 = DIRECTION ( 'NONE',  ( 1.000000000000000000, 0.000000000000000000, 0.000000000000000000 ) ) ;
#915 = AXIS2_PLACEMENT_3D ( 'NONE', #645, #854, #649 ) ;
#916 = PLANE ( 'NONE',  #746 ) ;
#917 = ORIENTED_EDGE ( 'NONE', *, *, #889, .T. ) ;
#918 = CYLINDRICAL_SURFACE ( 'NONE', #22, 0.7500000000000006661 ) ;
#919 = ADVANCED_FACE ( 'NONE', ( #381 ), #100, .F. ) ;
#920 = CARTESIAN_POINT ( 'NONE',  ( 6.000000000000000000, 0.000000000000000000, 2.500000000000000000 ) ) ;
#921 = CIRCLE ( 'NONE', #251, 1.199999999999999734 ) ;
#922 = CARTESIAN_POINT ( 'NONE',  ( -18.00000000000000000, 0.000000000000000000, 2.500000000000000000 ) ) ;
#923 = VERTEX_POINT ( 'NONE', #668 ) ;
#924 = LINE ( 'NONE', #285, #167 ) ;
#925 = EDGE_CURVE ( 'NONE', #553, #128, #235, .T. ) ;
#926 = CARTESIAN_POINT ( 'NONE',  ( 6.000000000000000000, 0.000000000000000000, 2.500000000000000000 ) ) ;
#927 = ORIENTED_EDGE ( 'NONE', *, *, #72, .F. ) ;
ENDSEC;
END-ISO-10303-21;
