ISO-10303-21;
HEADER;
FILE_DESCRIPTION (( 'STEP AP203' ),
    '1' );
FILE_NAME ('FIT-003_MG996R_spline_socket_trial.step',
    '2026-09-28T23:13:16',
    ( '' ),
    ( '' ),
    'SwSTEP 2.0',
    'SolidWorks 2026',
    '' );
FILE_SCHEMA (( 'CONFIG_CONTROL_DESIGN' ));
ENDSEC;

DATA;
#1 = DIRECTION ( 'NONE',  ( -0.000000000000000000, -0.000000000000000000, -1.000000000000000000 ) ) ;
#2 = ADVANCED_FACE ( 'NONE', ( #739 ), #806, .F. ) ;
#3 = ORIENTED_EDGE ( 'NONE', *, *, #113, .T. ) ;
#4 = CARTESIAN_POINT ( 'NONE',  ( -25.34999999999999787, 0.000000000000000000, 3.000000000000007105 ) ) ;
#5 = CARTESIAN_POINT ( 'NONE',  ( -29.25000000000000000, 5.000000000000000000, 0.000000000000000000 ) ) ;
#6 = LINE ( 'NONE', #290, #514 ) ;
#7 = AXIS2_PLACEMENT_3D ( 'NONE', #179, #882, #477 ) ;
#8 = ORIENTED_EDGE ( 'NONE', *, *, #649, .T. ) ;
#9 = EDGE_CURVE ( 'NONE', #857, #282, #230, .T. ) ;
#10 = AXIS2_PLACEMENT_3D ( 'NONE', #704, #638, #610 ) ;
#11 = ORIENTED_EDGE ( 'NONE', *, *, #236, .F. ) ;
#12 = DIRECTION ( 'NONE',  ( 0.000000000000000000, 0.000000000000000000, -1.000000000000000000 ) ) ;
#13 = CARTESIAN_POINT ( 'NONE',  ( 24.19999999999999929, 2.081899558550500526E-16, 3.000000000000007105 ) ) ;
#14 = ORIENTED_EDGE ( 'NONE', *, *, #707, .T. ) ;
#15 = ORIENTED_EDGE ( 'NONE', *, *, #236, .T. ) ;
#16 = CARTESIAN_POINT ( 'NONE',  ( -22.50000000000000000, 0.000000000000000000, 4.000000000000003553 ) ) ;
#17 = ORIENTED_EDGE ( 'NONE', *, *, #484, .T. ) ;
#18 = CARTESIAN_POINT ( 'NONE',  ( -30.75000000000000000, 5.000000000000000000, 4.000000000000003553 ) ) ;
#19 = DIRECTION ( 'NONE',  ( 1.000000000000000000, 0.000000000000000000, 0.000000000000000000 ) ) ;
#20 = ADVANCED_FACE ( 'NONE', ( #652 ), #721, .F. ) ;
#21 = AXIS2_PLACEMENT_3D ( 'NONE', #743, #550, #28 ) ;
#22 = VECTOR ( 'NONE', #217, 1000.000000000000000 ) ;
#23 = VERTEX_POINT ( 'NONE', #5 ) ;
#24 = APPLICATION_CONTEXT ( 'configuration controlled 3d designs of mechanical parts and assemblies' ) ;
#25 = VERTEX_POINT ( 'NONE', #149 ) ;
#26 = CYLINDRICAL_SURFACE ( 'NONE', #400, 0.7500000000000006661 ) ;
#27 = CIRCLE ( 'NONE', #502, 0.7500000000000006661 ) ;
#28 = DIRECTION ( 'NONE',  ( 1.000000000000000000, 0.000000000000000000, -0.000000000000000000 ) ) ;
#29 = ORIENTED_EDGE ( 'NONE', *, *, #603, .F. ) ;
#30 = ORIENTED_EDGE ( 'NONE', *, *, #113, .F. ) ;
#31 = CARTESIAN_POINT ( 'NONE',  ( -30.00000000000000000, 5.000000000000000000, 4.000000000000003553 ) ) ;
#32 = LINE ( 'NONE', #404, #288 ) ;
#33 = CIRCLE ( 'NONE', #476, 2.849999999999998312 ) ;
#34 = EDGE_CURVE ( 'NONE', #269, #634, #449, .T. ) ;
#35 = CARTESIAN_POINT ( 'NONE',  ( -32.00000000000000000, -7.000000000000000000, 4.000000000000007105 ) ) ;
#36 = FACE_OUTER_BOUND ( 'NONE', #725, .T. ) ;
#37 = DIRECTION ( 'NONE',  ( 0.000000000000000000, 0.000000000000000000, 1.000000000000000000 ) ) ;
#38 = VECTOR ( 'NONE', #118, 1000.000000000000000 ) ;
#39 = DIRECTION ( 'NONE',  ( 0.000000000000000000, 0.000000000000000000, -1.000000000000000000 ) ) ;
#40 = CARTESIAN_POINT ( 'NONE',  ( -7.500000000000000000, 0.000000000000000000, 4.000000000000003553 ) ) ;
#41 = EDGE_CURVE ( 'NONE', #126, #644, #360, .T. ) ;
#42 = ORIENTED_EDGE ( 'NONE', *, *, #583, .F. ) ;
#43 = CARTESIAN_POINT ( 'NONE',  ( 32.00000000000000000, -7.000000000000000000, 4.000000000000007105 ) ) ;
#44 = EDGE_CURVE ( 'NONE', #762, #857, #302, .T. ) ;
#45 = DIRECTION ( 'NONE',  ( 1.000000000000000000, 0.000000000000000000, -0.000000000000000000 ) ) ;
#46 = DIRECTION ( 'NONE',  ( -1.000000000000000000, 0.000000000000000000, 0.000000000000000000 ) ) ;
#47 = VERTEX_POINT ( 'NONE', #213 ) ;
#48 = DIRECTION ( 'NONE',  ( 1.000000000000000000, 0.000000000000000000, 0.000000000000000000 ) ) ;
#49 = ADVANCED_FACE ( 'NONE', ( #791 ), #367, .F. ) ;
#50 = CARTESIAN_POINT ( 'NONE',  ( -32.00000000000000000, -7.000000000000000000, 0.000000000000000000 ) ) ;
#51 = ORIENTED_EDGE ( 'NONE', *, *, #34, .T. ) ;
#52 = VECTOR ( 'NONE', #195, 1000.000000000000000 ) ;
#53 = CYLINDRICAL_SURFACE ( 'NONE', #570, 1.700000000000000178 ) ;
#54 = ORIENTED_EDGE ( 'NONE', *, *, #569, .F. ) ;
#55 = LINE ( 'NONE', #349, #821 ) ;
#56 = DIRECTION ( 'NONE',  ( 0.000000000000000000, 0.000000000000000000, -1.000000000000000000 ) ) ;
#57 = CIRCLE ( 'NONE', #154, 2.899999999999999911 ) ;
#58 = ORIENTED_EDGE ( 'NONE', *, *, #756, .F. ) ;
#59 = CARTESIAN_POINT ( 'NONE',  ( 5.799999999999999822, 0.000000000000000000, 3.000000000000007105 ) ) ;
#60 = FACE_BOUND ( 'NONE', #188, .T. ) ;
#61 = ORIENTED_EDGE ( 'NONE', *, *, #579, .F. ) ;
#62 = EDGE_CURVE ( 'NONE', #802, #644, #105, .T. ) ;
#63 = ORIENTED_EDGE ( 'NONE', *, *, #720, .T. ) ;
#64 = CYLINDRICAL_SURFACE ( 'NONE', #525, 2.950000000000001066 ) ;
#65 = ORIENTED_EDGE ( 'NONE', *, *, #353, .T. ) ;
#66 = VECTOR ( 'NONE', #99, 1000.000000000000000 ) ;
#67 = AXIS2_PLACEMENT_3D ( 'NONE', #135, #277, #573 ) ;
#68 = VECTOR ( 'NONE', #338, 1000.000000000000000 ) ;
#69 = CARTESIAN_POINT ( 'NONE',  ( 7.500000000000000000, 0.000000000000000000, 4.000000000000003553 ) ) ;
#70 = CIRCLE ( 'NONE', #363, 1.700000000000000178 ) ;
#71 = CARTESIAN_POINT ( 'NONE',  ( -7.500000000000000000, 0.000000000000000000, 3.000000000000007105 ) ) ;
#72 = DIRECTION ( 'NONE',  ( 1.000000000000000000, 0.000000000000000000, 0.000000000000000000 ) ) ;
#73 = EDGE_CURVE ( 'NONE', #257, #870, #597, .T. ) ;
#74 = CARTESIAN_POINT ( 'NONE',  ( -32.00000000000000000, 7.000000000000000000, 4.000000000000007105 ) ) ;
#75 = MECHANICAL_CONTEXT ( 'NONE', #788, 'mechanical' ) ;
#76 = FACE_OUTER_BOUND ( 'NONE', #303, .T. ) ;
#77 = ADVANCED_FACE ( 'NONE', ( #482, #36 ), #254, .F. ) ;
#78 = EDGE_LOOP ( 'NONE', ( #772, #699 ) ) ;
#79 = ORIENTED_EDGE ( 'NONE', *, *, #711, .F. ) ;
#80 = CARTESIAN_POINT ( 'NONE',  ( -4.599999999999999645, 3.551475717527323832E-16, 3.000000000000007105 ) ) ;
#81 = CIRCLE ( 'NONE', #111, 0.7500000000000006661 ) ;
#82 = DIRECTION ( 'NONE',  ( -0.000000000000000000, -0.000000000000000000, -1.000000000000000000 ) ) ;
#83 = ORIENTED_EDGE ( 'NONE', *, *, #687, .T. ) ;
#84 = CIRCLE ( 'NONE', #703, 1.700000000000000178 ) ;
#85 = EDGE_LOOP ( 'NONE', ( #358, #14, #94, #567 ) ) ;
#86 = CARTESIAN_POINT ( 'NONE',  ( -32.00000000000000000, -7.000000000000000000, 4.000000000000007105 ) ) ;
#87 = CARTESIAN_POINT ( 'NONE',  ( 22.50000000000000000, 0.000000000000000000, 4.000000000000003553 ) ) ;
#88 = DIRECTION ( 'NONE',  ( -0.000000000000000000, -0.000000000000000000, -1.000000000000000000 ) ) ;
#89 = ADVANCED_FACE ( 'NONE', ( #326, #170 ), #616, .F. ) ;
#90 = ORIENTED_EDGE ( 'NONE', *, *, #209, .F. ) ;
#91 = CARTESIAN_POINT ( 'NONE',  ( -7.500000000000000000, 0.000000000000000000, 4.000000000000003553 ) ) ;
#92 = CYLINDRICAL_SURFACE ( 'NONE', #719, 2.999999999999999112 ) ;
#93 = VERTEX_POINT ( 'NONE', #532 ) ;
#94 = ORIENTED_EDGE ( 'NONE', *, *, #362, .T. ) ;
#95 = CARTESIAN_POINT ( 'NONE',  ( -22.50000000000000000, 0.000000000000000000, 3.000000000000007105 ) ) ;
#96 = APPROVAL ( #544, 'UNSPECIFIED' ) ;
#97 = CYLINDRICAL_SURFACE ( 'NONE', #574, 1.700000000000000178 ) ;
#98 = AXIS2_PLACEMENT_3D ( 'NONE', #365, #220, #565 ) ;
#99 = DIRECTION ( 'NONE',  ( 0.000000000000000000, 0.000000000000000000, -1.000000000000000000 ) ) ;
#100 = ORIENTED_EDGE ( 'NONE', *, *, #392, .F. ) ;
#101 = DIRECTION ( 'NONE',  ( 1.000000000000000000, 0.000000000000000000, 0.000000000000000000 ) ) ;
#102 = DIRECTION ( 'NONE',  ( 0.000000000000000000, 0.000000000000000000, 1.000000000000000000 ) ) ;
#103 = CARTESIAN_POINT ( 'NONE',  ( 22.50000000000000000, 0.000000000000000000, 3.000000000000007105 ) ) ;
#104 = DIRECTION ( 'NONE',  ( 0.000000000000000000, 0.000000000000000000, -1.000000000000000000 ) ) ;
#105 = LINE ( 'NONE', #900, #66 ) ;
#106 = CC_DESIGN_PERSON_AND_ORGANIZATION_ASSIGNMENT ( #176, #405, ( #183 ) ) ;
#107 = AXIS2_PLACEMENT_3D ( 'NONE', #31, #668, #732 ) ;
#108 = PERSON_AND_ORGANIZATION ( #845, #463 ) ;
#109 = CARTESIAN_POINT ( 'NONE',  ( -22.50000000000000000, 0.000000000000000000, 3.000000000000007105 ) ) ;
#110 = CARTESIAN_POINT ( 'NONE',  ( 9.199999999999999289, 2.081899558550500526E-16, 3.000000000000007105 ) ) ;
#111 = AXIS2_PLACEMENT_3D ( 'NONE', #647, #216, #199 ) ;
#112 = DATE_TIME_ROLE ( 'creation_date' ) ;
#113 = EDGE_CURVE ( 'NONE', #504, #272, #241, .T. ) ;
#114 = DIRECTION ( 'NONE',  ( -1.000000000000000000, 0.000000000000000000, 0.000000000000000000 ) ) ;
#115 = AXIS2_PLACEMENT_3D ( 'NONE', #376, #820, #296 ) ;
#116 = CARTESIAN_POINT ( 'NONE',  ( -5.799999999999999822, 2.081899558550500526E-16, 4.000000000000003553 ) ) ;
#117 = ORIENTED_EDGE ( 'NONE', *, *, #392, .T. ) ;
#118 = DIRECTION ( 'NONE',  ( 0.000000000000000000, 1.000000000000000000, 0.000000000000000000 ) ) ;
#119 = EDGE_CURVE ( 'NONE', #867, #269, #512, .T. ) ;
#120 = CYLINDRICAL_SURFACE ( 'NONE', #599, 2.950000000000001066 ) ;
#121 = COORDINATED_UNIVERSAL_TIME_OFFSET ( 6, 0, .BEHIND. ) ;
#122 = ORIENTED_EDGE ( 'NONE', *, *, #41, .T. ) ;
#123 = FACE_BOUND ( 'NONE', #143, .T. ) ;
#124 = ORIENTED_EDGE ( 'NONE', *, *, #402, .T. ) ;
#125 = CARTESIAN_POINT ( 'NONE',  ( 7.500000000000000000, 0.000000000000000000, 3.000000000000007105 ) ) ;
#126 = VERTEX_POINT ( 'NONE', #110 ) ;
#127 = LOCAL_TIME ( 18, 13, 16.00000000000000000, #557 ) ;
#128 = CIRCLE ( 'NONE', #864, 1.700000000000000178 ) ;
#129 = FACE_OUTER_BOUND ( 'NONE', #661, .T. ) ;
#130 = ORIENTED_EDGE ( 'NONE', *, *, #41, .F. ) ;
#131 = FACE_BOUND ( 'NONE', #221, .T. ) ;
#132 = VECTOR ( 'NONE', #490, 1000.000000000000000 ) ;
#133 = EDGE_CURVE ( 'NONE', #194, #917, #897, .T. ) ;
#134 = VERTEX_POINT ( 'NONE', #891 ) ;
#135 = CARTESIAN_POINT ( 'NONE',  ( 22.50000000000000000, 0.000000000000000000, 3.000000000000007105 ) ) ;
#136 = EDGE_LOOP ( 'NONE', ( #445, #298, #636, #782 ) ) ;
#137 = ORIENTED_EDGE ( 'NONE', *, *, #770, .F. ) ;
#138 = DIRECTION ( 'NONE',  ( -1.000000000000000000, 0.000000000000000000, -0.000000000000000000 ) ) ;
#139 = VERTEX_POINT ( 'NONE', #537 ) ;
#140 = AXIS2_PLACEMENT_3D ( 'NONE', #674, #611, #543 ) ;
#141 = CARTESIAN_POINT ( 'NONE',  ( -19.65000000000000213, 3.490243377569954582E-16, 3.000000000000007105 ) ) ;
#142 = LINE ( 'NONE', #718, #818 ) ;
#143 = EDGE_LOOP ( 'NONE', ( #808, #426 ) ) ;
#144 = DIRECTION ( 'NONE',  ( 0.000000000000000000, 0.000000000000000000, -1.000000000000000000 ) ) ;
#145 = EDGE_CURVE ( 'NONE', #194, #93, #307, .T. ) ;
#146 = ORIENTED_EDGE ( 'NONE', *, *, #785, .F. ) ;
#147 = EDGE_LOOP ( 'NONE', ( #629, #731 ) ) ;
#148 = DIRECTION ( 'NONE',  ( -0.000000000000000000, -0.000000000000000000, -1.000000000000000000 ) ) ;
#149 = CARTESIAN_POINT ( 'NONE',  ( -20.80000000000000071, 2.081899558550500526E-16, 4.000000000000003553 ) ) ;
#150 = EDGE_LOOP ( 'NONE', ( #526, #660 ) ) ;
#151 = DIRECTION ( 'NONE',  ( 0.000000000000000000, 0.000000000000000000, 1.000000000000000000 ) ) ;
#152 = CARTESIAN_POINT ( 'NONE',  ( -32.00000000000000000, -7.000000000000000000, 0.000000000000000000 ) ) ;
#153 = ADVANCED_FACE ( 'NONE', ( #811 ), #827, .F. ) ;
#154 = AXIS2_PLACEMENT_3D ( 'NONE', #903, #398, #251 ) ;
#155 = VERTEX_POINT ( 'NONE', #670 ) ;
#156 = PLANE ( 'NONE',  #577 ) ;
#157 = FACE_OUTER_BOUND ( 'NONE', #794, .T. ) ;
#158 = DIRECTION ( 'NONE',  ( 0.000000000000000000, -0.000000000000000000, -1.000000000000000000 ) ) ;
#159 = CC_DESIGN_DATE_AND_TIME_ASSIGNMENT ( #907, #112, ( #533 ) ) ;
#160 = ORIENTED_EDGE ( 'NONE', *, *, #503, .F. ) ;
#161 = CIRCLE ( 'NONE', #564, 2.999999999999999112 ) ;
#162 = CARTESIAN_POINT ( 'NONE',  ( 25.50000000000000000, 3.673940397442058882E-16, 3.000000000000007105 ) ) ;
#163 = ADVANCED_BREP_SHAPE_REPRESENTATION ( 'FIT-003_MG996R_spline_socket_trial', ( #234, #359 ), #833 ) ;
#164 = EDGE_CURVE ( 'NONE', #667, #272, #128, .T. ) ;
#165 = ORIENTED_EDGE ( 'NONE', *, *, #145, .F. ) ;
#166 = CARTESIAN_POINT ( 'NONE',  ( -30.75000000000000000, 5.000000000000000000, 4.000000000000003553 ) ) ;
#167 = CARTESIAN_POINT ( 'NONE',  ( -9.199999999999999289, 0.000000000000000000, 4.000000000000003553 ) ) ;
#168 = LOCAL_TIME ( 18, 13, 16.00000000000000000, #696 ) ;
#169 = CIRCLE ( 'NONE', #140, 2.899999999999999911 ) ;
#170 = FACE_OUTER_BOUND ( 'NONE', #854, .T. ) ;
#171 = APPROVAL_STATUS ( 'not_yet_approved' ) ;
#172 = CARTESIAN_POINT ( 'NONE',  ( 10.45000000000000107, 3.612708057484693083E-16, 3.000000000000007105 ) ) ;
#173 = AXIS2_PLACEMENT_3D ( 'NONE', #747, #391, #386 ) ;
#174 = EDGE_CURVE ( 'NONE', #848, #346, #397, .T. ) ;
#175 = CYLINDRICAL_SURFACE ( 'NONE', #701, 2.899999999999999911 ) ;
#176 = PERSON_AND_ORGANIZATION ( #845, #463 ) ;
#177 = CARTESIAN_POINT ( 'NONE',  ( 32.00000000000000000, -7.000000000000000000, 4.000000000000007105 ) ) ;
#178 = DIRECTION ( 'NONE',  ( 0.000000000000000000, 0.000000000000000000, 1.000000000000000000 ) ) ;
#179 = CARTESIAN_POINT ( 'NONE',  ( 22.50000000000000000, 0.000000000000000000, 4.000000000000003553 ) ) ;
#180 = PERSON_AND_ORGANIZATION_ROLE ( 'creator' ) ;
#181 = CARTESIAN_POINT ( 'NONE',  ( 32.00000000000000000, -7.000000000000000000, 4.000000000000007105 ) ) ;
#182 = DIRECTION ( 'NONE',  ( 1.000000000000000000, 0.000000000000000000, 0.000000000000000000 ) ) ;
#183 = PRODUCT_DEFINITION_FORMATION_WITH_SPECIFIED_SOURCE ( 'ANY', '', #370, .NOT_KNOWN. ) ;
#184 = CIRCLE ( 'NONE', #666, 2.950000000000001066 ) ;
#185 = PERSON_AND_ORGANIZATION ( #845, #463 ) ;
#186 = ADVANCED_FACE ( 'NONE', ( #816 ), #175, .F. ) ;
#187 = FACE_BOUND ( 'NONE', #517, .T. ) ;
#188 = EDGE_LOOP ( 'NONE', ( #561, #388 ) ) ;
#189 = VECTOR ( 'NONE', #841, 1000.000000000000000 ) ;
#190 = CARTESIAN_POINT ( 'NONE',  ( 4.549999999999998934, 0.000000000000000000, 3.000000000000007105 ) ) ;
#191 = PERSON_AND_ORGANIZATION ( #845, #463 ) ;
#192 = PRODUCT_RELATED_PRODUCT_CATEGORY ( 'detail', '', ( #370 ) ) ;
#193 = PLANE ( 'NONE',  #685 ) ;
#194 = VERTEX_POINT ( 'NONE', #116 ) ;
#195 = DIRECTION ( 'NONE',  ( -1.000000000000000000, -0.000000000000000000, -0.000000000000000000 ) ) ;
#196 = ORIENTED_EDGE ( 'NONE', *, *, #812, .T. ) ;
#197 = FACE_OUTER_BOUND ( 'NONE', #340, .T. ) ;
#198 = EDGE_LOOP ( 'NONE', ( #708, #130 ) ) ;
#199 = DIRECTION ( 'NONE',  ( 1.000000000000000000, 0.000000000000000000, 0.000000000000000000 ) ) ;
#200 = EDGE_CURVE ( 'NONE', #870, #578, #32, .T. ) ;
#201 = CARTESIAN_POINT ( 'NONE',  ( -32.00000000000000000, 7.000000000000000000, 4.000000000000007105 ) ) ;
#202 = ORIENTED_EDGE ( 'NONE', *, *, #300, .F. ) ;
#203 = LOCAL_TIME ( 18, 13, 16.00000000000000000, #121 ) ;
#204 = DIRECTION ( 'NONE',  ( 1.000000000000000000, 0.000000000000000000, 0.000000000000000000 ) ) ;
#205 = DIRECTION ( 'NONE',  ( 1.000000000000000000, 0.000000000000000000, 0.000000000000000000 ) ) ;
#206 = AXIS2_PLACEMENT_3D ( 'NONE', #825, #104, #898 ) ;
#207 = EDGE_LOOP ( 'NONE', ( #424, #769, #793, #265 ) ) ;
#208 = CARTESIAN_POINT ( 'NONE',  ( -5.799999999999999822, 2.081899558550500526E-16, 3.000000000000007105 ) ) ;
#209 = EDGE_CURVE ( 'NONE', #634, #520, #169, .T. ) ;
#210 = ORIENTED_EDGE ( 'NONE', *, *, #641, .F. ) ;
#211 = AXIS2_PLACEMENT_3D ( 'NONE', #258, #837, #662 ) ;
#212 = DIRECTION ( 'NONE',  ( 0.000000000000000000, 0.000000000000000000, 1.000000000000000000 ) ) ;
#213 = CARTESIAN_POINT ( 'NONE',  ( 24.19999999999999929, 2.081899558550500526E-16, 4.000000000000003553 ) ) ;
#214 = ADVANCED_FACE ( 'NONE', ( #752 ), #680, .F. ) ;
#215 = CIRCLE ( 'NONE', #320, 1.700000000000000178 ) ;
#216 = DIRECTION ( 'NONE',  ( 0.000000000000000000, 0.000000000000000000, 1.000000000000000000 ) ) ;
#217 = DIRECTION ( 'NONE',  ( -0.000000000000000000, -0.000000000000000000, -1.000000000000000000 ) ) ;
#218 = EDGE_LOOP ( 'NONE', ( #563, #309, #884, #196 ) ) ;
#219 = VERTEX_POINT ( 'NONE', #515 ) ;
#220 = DIRECTION ( 'NONE',  ( 0.000000000000000000, 0.000000000000000000, -1.000000000000000000 ) ) ;
#221 = EDGE_LOOP ( 'NONE', ( #294, #165 ) ) ;
#222 = EDGE_LOOP ( 'NONE', ( #377, #333 ) ) ;
#223 = CYLINDRICAL_SURFACE ( 'NONE', #107, 0.7500000000000006661 ) ;
#224 = ADVANCED_FACE ( 'NONE', ( #648 ), #787, .F. ) ;
#225 = EDGE_LOOP ( 'NONE', ( #729, #210 ) ) ;
#226 = ORIENTED_EDGE ( 'NONE', *, *, #624, .T. ) ;
#227 = CYLINDRICAL_SURFACE ( 'NONE', #368, 2.899999999999999911 ) ;
#228 = AXIS2_PLACEMENT_3D ( 'NONE', #69, #580, #924 ) ;
#229 = DIRECTION ( 'NONE',  ( -1.000000000000000000, 0.000000000000000000, 0.000000000000000000 ) ) ;
#230 = LINE ( 'NONE', #152, #852 ) ;
#231 = ORIENTED_EDGE ( 'NONE', *, *, #503, .T. ) ;
#232 = CARTESIAN_POINT ( 'NONE',  ( 22.50000000000000000, 0.000000000000000000, 3.000000000000007105 ) ) ;
#233 = CARTESIAN_POINT ( 'NONE',  ( -32.00000000000000000, 7.000000000000000000, 4.000000000000007105 ) ) ;
#234 = MANIFOLD_SOLID_BREP ( 'Orientation_mark_at_smallest_socket', #325 ) ;
#235 = DIRECTION ( 'NONE',  ( -0.000000000000000000, -0.000000000000000000, -1.000000000000000000 ) ) ;
#236 = EDGE_CURVE ( 'NONE', #364, #910, #493, .T. ) ;
#237 = ORIENTED_EDGE ( 'NONE', *, *, #840, .F. ) ;
#238 = DIRECTION ( 'NONE',  ( 0.000000000000000000, 0.000000000000000000, 1.000000000000000000 ) ) ;
#239 = CARTESIAN_POINT ( 'NONE',  ( 22.50000000000000000, 0.000000000000000000, 0.000000000000000000 ) ) ;
#240 = VECTOR ( 'NONE', #305, 1000.000000000000000 ) ;
#241 = LINE ( 'NONE', #330, #908 ) ;
#242 = DATE_TIME_ROLE ( 'classification_date' ) ;
#243 = EDGE_CURVE ( 'NONE', #875, #219, #142, .T. ) ;
#244 = CARTESIAN_POINT ( 'NONE',  ( 22.50000000000000000, 0.000000000000000000, 3.000000000000007105 ) ) ;
#245 = DIRECTION ( 'NONE',  ( 1.000000000000000000, 0.000000000000000000, 0.000000000000000000 ) ) ;
#246 = VECTOR ( 'NONE', #518, 1000.000000000000000 ) ;
#247 = DIRECTION ( 'NONE',  ( 1.000000000000000000, 0.000000000000000000, 0.000000000000000000 ) ) ;
#248 = CYLINDRICAL_SURFACE ( 'NONE', #473, 1.700000000000000178 ) ;
#249 = VECTOR ( 'NONE', #918, 1000.000000000000000 ) ;
#250 = DIRECTION ( 'NONE',  ( 1.000000000000000000, 0.000000000000000000, 0.000000000000000000 ) ) ;
#251 = DIRECTION ( 'NONE',  ( 1.000000000000000000, 0.000000000000000000, 0.000000000000000000 ) ) ;
#252 = DIRECTION ( 'NONE',  ( 1.000000000000000000, 0.000000000000000000, 0.000000000000000000 ) ) ;
#253 = EDGE_CURVE ( 'NONE', #885, #155, #264, .T. ) ;
#254 = PLANE ( 'NONE',  #21 ) ;
#255 = APPROVAL_DATE_TIME ( #676, #96 ) ;
#256 = CARTESIAN_POINT ( 'NONE',  ( -32.00000000000000000, 7.000000000000000000, 0.000000000000000000 ) ) ;
#257 = VERTEX_POINT ( 'NONE', #4 ) ;
#258 = CARTESIAN_POINT ( 'NONE',  ( 22.50000000000000000, 0.000000000000000000, 0.000000000000000000 ) ) ;
#259 = APPROVAL ( #479, 'UNSPECIFIED' ) ;
#260 = AXIS2_PLACEMENT_3D ( 'NONE', #125, #447, #695 ) ;
#261 = PERSON_AND_ORGANIZATION ( #845, #463 ) ;
#262 = DIRECTION ( 'NONE',  ( 0.000000000000000000, 0.000000000000000000, 1.000000000000000000 ) ) ;
#263 = DIRECTION ( 'NONE',  ( 0.000000000000000000, 0.000000000000000000, 1.000000000000000000 ) ) ;
#264 = LINE ( 'NONE', #631, #22 ) ;
#265 = ORIENTED_EDGE ( 'NONE', *, *, #649, .F. ) ;
#266 = LINE ( 'NONE', #256, #189 ) ;
#267 = EDGE_LOOP ( 'NONE', ( #650, #869 ) ) ;
#268 = DIRECTION ( 'NONE',  ( 0.000000000000000000, 0.000000000000000000, -1.000000000000000000 ) ) ;
#269 = VERTEX_POINT ( 'NONE', #80 ) ;
#270 = CARTESIAN_POINT ( 'NONE',  ( 19.50000000000000000, 0.000000000000000000, 3.000000000000007105 ) ) ;
#271 = EDGE_CURVE ( 'NONE', #504, #47, #777, .T. ) ;
#272 = VERTEX_POINT ( 'NONE', #285 ) ;
#273 = FACE_BOUND ( 'NONE', #697, .T. ) ;
#274 = ORIENTED_EDGE ( 'NONE', *, *, #720, .F. ) ;
#275 = VECTOR ( 'NONE', #735, 1000.000000000000000 ) ;
#276 = VERTEX_POINT ( 'NONE', #440 ) ;
#277 = DIRECTION ( 'NONE',  ( 0.000000000000000000, 0.000000000000000000, 1.000000000000000000 ) ) ;
#278 = ADVANCED_FACE ( 'NONE', ( #76 ), #120, .F. ) ;
#279 = CIRCLE ( 'NONE', #545, 1.700000000000000178 ) ;
#280 = FACE_OUTER_BOUND ( 'NONE', #150, .T. ) ;
#281 = EDGE_CURVE ( 'NONE', #492, #155, #843, .T. ) ;
#282 = VERTEX_POINT ( 'NONE', #50 ) ;
#283 = CIRCLE ( 'NONE', #692, 0.7500000000000006661 ) ;
#284 =( NAMED_UNIT ( * ) PLANE_ANGLE_UNIT ( ) SI_UNIT ( $, .RADIAN. ) );
#285 = CARTESIAN_POINT ( 'NONE',  ( 20.80000000000000071, 0.000000000000000000, 3.000000000000007105 ) ) ;
#286 = DIRECTION ( 'NONE',  ( -1.000000000000000000, 0.000000000000000000, 0.000000000000000000 ) ) ;
#287 = APPROVAL_PERSON_ORGANIZATION ( #331, #259, #612 ) ;
#288 = VECTOR ( 'NONE', #749, 1000.000000000000000 ) ;
#289 = CARTESIAN_POINT ( 'NONE',  ( 0.000000000000000000, 0.000000000000000000, 0.000000000000000000 ) ) ;
#290 = CARTESIAN_POINT ( 'NONE',  ( 9.199999999999999289, 2.081899558550500526E-16, 4.000000000000003553 ) ) ;
#291 = EDGE_LOOP ( 'NONE', ( #513, #419, #79, #516 ) ) ;
#292 = AXIS2_PLACEMENT_3D ( 'NONE', #343, #263, #842 ) ;
#293 = EDGE_CURVE ( 'NONE', #134, #364, #184, .T. ) ;
#294 = ORIENTED_EDGE ( 'NONE', *, *, #484, .F. ) ;
#295 = FACE_OUTER_BOUND ( 'NONE', #587, .T. ) ;
#296 = DIRECTION ( 'NONE',  ( -1.000000000000000000, 0.000000000000000000, 0.000000000000000000 ) ) ;
#297 = ORIENTED_EDGE ( 'NONE', *, *, #558, .F. ) ;
#298 = ORIENTED_EDGE ( 'NONE', *, *, #778, .T. ) ;
#299 = DIRECTION ( 'NONE',  ( -1.000000000000000000, 0.000000000000000000, 0.000000000000000000 ) ) ;
#300 = EDGE_CURVE ( 'NONE', #885, #762, #651, .T. ) ;
#301 = CARTESIAN_POINT ( 'NONE',  ( 22.50000000000000000, 0.000000000000000000, 3.000000000000007105 ) ) ;
#302 = LINE ( 'NONE', #74, #436 ) ;
#303 = EDGE_LOOP ( 'NONE', ( #160, #521, #15, #783 ) ) ;
#304 = AXIS2_PLACEMENT_3D ( 'NONE', #865, #608, #314 ) ;
#305 = DIRECTION ( 'NONE',  ( 0.000000000000000000, 0.000000000000000000, -1.000000000000000000 ) ) ;
#306 = CC_DESIGN_SECURITY_CLASSIFICATION ( #817, ( #183 ) ) ;
#307 = CIRCLE ( 'NONE', #834, 1.700000000000000178 ) ;
#308 = FACE_OUTER_BOUND ( 'NONE', #136, .T. ) ;
#309 = ORIENTED_EDGE ( 'NONE', *, *, #253, .F. ) ;
#310 = CIRCLE ( 'NONE', #881, 2.950000000000001066 ) ;
#311 = EDGE_LOOP ( 'NONE', ( #572, #553, #226, #627 ) ) ;
#312 = DIRECTION ( 'NONE',  ( -1.000000000000000000, 0.000000000000000000, 0.000000000000000000 ) ) ;
#313 = CARTESIAN_POINT ( 'NONE',  ( -30.75000000000000000, 5.000000000000000000, 0.000000000000000000 ) ) ;
#314 = DIRECTION ( 'NONE',  ( 0.000000000000000000, 0.000000000000000000, -1.000000000000000000 ) ) ;
#315 = EDGE_CURVE ( 'NONE', #644, #126, #345, .T. ) ;
#316 = APPROVAL_ROLE ( '' ) ;
#317 = ORIENTED_EDGE ( 'NONE', *, *, #730, .F. ) ;
#318 = FACE_OUTER_BOUND ( 'NONE', #705, .T. ) ;
#319 = DIRECTION ( 'NONE',  ( 1.000000000000000000, 0.000000000000000000, 0.000000000000000000 ) ) ;
#320 = AXIS2_PLACEMENT_3D ( 'NONE', #868, #148, #726 ) ;
#321 = CARTESIAN_POINT ( 'NONE',  ( -7.500000000000000000, 0.000000000000000000, 3.000000000000007105 ) ) ;
#322 = CALENDAR_DATE ( 2026, 28, 9 ) ;
#323 = FACE_OUTER_BOUND ( 'NONE', #859, .T. ) ;
#324 = CC_DESIGN_APPROVAL ( #478, ( #817 ) ) ;
#325 = CLOSED_SHELL ( 'NONE', ( #438, #153, #214, #528, #335, #760, #186, #872, #669, #49, #454, #2, #20, #905, #595, #491, #925, #278, #614, #471, #77, #421, #89, #663, #519, #781, #224, #448 ) ) ;
#326 = FACE_BOUND ( 'NONE', #225, .T. ) ;
#327 = DIRECTION ( 'NONE',  ( 1.000000000000000000, 0.000000000000000000, 0.000000000000000000 ) ) ;
#328 = AXIS2_PLACEMENT_3D ( 'NONE', #382, #151, #461 ) ;
#329 = EDGE_CURVE ( 'NONE', #867, #520, #556, .T. ) ;
#330 = CARTESIAN_POINT ( 'NONE',  ( 20.80000000000000071, 0.000000000000000000, 4.000000000000003553 ) ) ;
#331 = PERSON_AND_ORGANIZATION ( #845, #463 ) ;
#332 = FACE_OUTER_BOUND ( 'NONE', #267, .T. ) ;
#333 = ORIENTED_EDGE ( 'NONE', *, *, #541, .T. ) ;
#334 = DIRECTION ( 'NONE',  ( -0.000000000000000000, -0.000000000000000000, -1.000000000000000000 ) ) ;
#335 = ADVANCED_FACE ( 'NONE', ( #369 ), #702, .F. ) ;
#336 = AXIS2_PLACEMENT_3D ( 'NONE', #819, #12, #312 ) ;
#337 = VECTOR ( 'NONE', #633, 1000.000000000000000 ) ;
#338 = DIRECTION ( 'NONE',  ( 0.000000000000000000, 0.000000000000000000, -1.000000000000000000 ) ) ;
#339 = PERSON_AND_ORGANIZATION_ROLE ( 'classification_officer' ) ;
#340 = EDGE_LOOP ( 'NONE', ( #352, #54, #591, #411 ) ) ;
#341 = PLANE ( 'NONE',  #206 ) ;
#342 = VERTEX_POINT ( 'NONE', #723 ) ;
#343 = CARTESIAN_POINT ( 'NONE',  ( -7.500000000000000000, 0.000000000000000000, 3.000000000000007105 ) ) ;
#344 = CARTESIAN_POINT ( 'NONE',  ( -10.40000000000000036, 0.000000000000000000, 3.000000000000007105 ) ) ;
#345 = CIRCLE ( 'NONE', #260, 1.700000000000000178 ) ;
#346 = VERTEX_POINT ( 'NONE', #560 ) ;
#347 = CARTESIAN_POINT ( 'NONE',  ( 7.500000000000000000, 0.000000000000000000, 0.000000000000000000 ) ) ;
#348 = ORIENTED_EDGE ( 'NONE', *, *, #145, .T. ) ;
#349 = CARTESIAN_POINT ( 'NONE',  ( -29.25000000000000000, 5.000000000000000000, 4.000000000000003553 ) ) ;
#350 = CIRCLE ( 'NONE', #469, 1.700000000000000178 ) ;
#351 = CARTESIAN_POINT ( 'NONE',  ( 4.549999999999998934, 0.000000000000000000, 3.000000000000007105 ) ) ;
#352 = ORIENTED_EDGE ( 'NONE', *, *, #9, .F. ) ;
#353 = EDGE_CURVE ( 'NONE', #139, #126, #6, .T. ) ;
#354 = DIRECTION ( 'NONE',  ( 0.000000000000000000, 0.000000000000000000, 1.000000000000000000 ) ) ;
#355 = DIRECTION ( 'NONE',  ( 0.000000000000000000, 0.000000000000000000, -1.000000000000000000 ) ) ;
#356 = EDGE_LOOP ( 'NONE', ( #915, #65, #122, #417 ) ) ;
#357 = CARTESIAN_POINT ( 'NONE',  ( -24.19999999999999929, 0.000000000000000000, 4.000000000000003553 ) ) ;
#358 = ORIENTED_EDGE ( 'NONE', *, *, #174, .F. ) ;
#359 = AXIS2_PLACEMENT_3D ( 'NONE', #289, #920, #205 ) ;
#360 = CIRCLE ( 'NONE', #878, 1.700000000000000178 ) ;
#361 =( LENGTH_UNIT ( ) NAMED_UNIT ( * ) SI_UNIT ( .MILLI., .METRE. ) );
#362 = EDGE_CURVE ( 'NONE', #653, #371, #635, .T. ) ;
#363 = AXIS2_PLACEMENT_3D ( 'NONE', #594, #82, #542 ) ;
#364 = VERTEX_POINT ( 'NONE', #351 ) ;
#365 = CARTESIAN_POINT ( 'NONE',  ( -22.50000000000000000, 0.000000000000000000, 4.000000000000003553 ) ) ;
#366 = EDGE_CURVE ( 'NONE', #219, #596, #215, .T. ) ;
#367 = PLANE ( 'NONE',  #304 ) ;
#368 = AXIS2_PLACEMENT_3D ( 'NONE', #381, #385, #299 ) ;
#369 = FACE_OUTER_BOUND ( 'NONE', #505, .T. ) ;
#370 = PRODUCT ( 'FIT-003_MG996R_spline_socket_trial', 'FIT-003_MG996R_spline_socket_trial', '', ( #75 ) ) ;
#371 = VERTEX_POINT ( 'NONE', #906 ) ;
#372 = EDGE_CURVE ( 'NONE', #346, #371, #534, .T. ) ;
#373 = CIRCLE ( 'NONE', #922, 2.849999999999998312 ) ;
#374 = ORIENTED_EDGE ( 'NONE', *, *, #119, .F. ) ;
#375 = CYLINDRICAL_SURFACE ( 'NONE', #336, 2.849999999999998312 ) ;
#376 = CARTESIAN_POINT ( 'NONE',  ( -30.00000000000000000, 5.000000000000000000, 0.000000000000000000 ) ) ;
#377 = ORIENTED_EDGE ( 'NONE', *, *, #796, .T. ) ;
#378 = AXIS2_PLACEMENT_3D ( 'NONE', #239, #102, #19 ) ;
#379 = CC_DESIGN_PERSON_AND_ORGANIZATION_ASSIGNMENT ( #191, #339, ( #817 ) ) ;
#380 = ORIENTED_EDGE ( 'NONE', *, *, #253, .T. ) ;
#381 = CARTESIAN_POINT ( 'NONE',  ( -7.500000000000000000, 0.000000000000000000, 3.000000000000007105 ) ) ;
#382 = CARTESIAN_POINT ( 'NONE',  ( 7.500000000000000000, 0.000000000000000000, 4.000000000000003553 ) ) ;
#383 = DIRECTION ( 'NONE',  ( 1.000000000000000000, 0.000000000000000000, 0.000000000000000000 ) ) ;
#384 = ORIENTED_EDGE ( 'NONE', *, *, #770, .T. ) ;
#385 = DIRECTION ( 'NONE',  ( 0.000000000000000000, 0.000000000000000000, -1.000000000000000000 ) ) ;
#386 = DIRECTION ( 'NONE',  ( 1.000000000000000000, 0.000000000000000000, 0.000000000000000000 ) ) ;
#387 = CARTESIAN_POINT ( 'NONE',  ( -32.00000000000000000, 7.000000000000000000, 4.000000000000007105 ) ) ;
#388 = ORIENTED_EDGE ( 'NONE', *, *, #778, .F. ) ;
#389 = LINE ( 'NONE', #18, #240 ) ;
#390 = VECTOR ( 'NONE', #144, 1000.000000000000000 ) ;
#391 = DIRECTION ( 'NONE',  ( 0.000000000000000000, 0.000000000000000000, 1.000000000000000000 ) ) ;
#392 = EDGE_CURVE ( 'NONE', #870, #257, #33, .T. ) ;
#393 = CARTESIAN_POINT ( 'NONE',  ( -22.50000000000000000, 0.000000000000000000, 3.000000000000007105 ) ) ;
#394 = ORIENTED_EDGE ( 'NONE', *, *, #847, .F. ) ;
#395 = LINE ( 'NONE', #172, #677 ) ;
#396 = DIRECTION ( 'NONE',  ( 0.000000000000000000, 0.000000000000000000, -1.000000000000000000 ) ) ;
#397 = LINE ( 'NONE', #162, #744 ) ;
#398 = DIRECTION ( 'NONE',  ( 0.000000000000000000, 0.000000000000000000, 1.000000000000000000 ) ) ;
#399 = CARTESIAN_POINT ( 'NONE',  ( 25.50000000000000000, 3.673940397442058882E-16, 3.000000000000007105 ) ) ;
#400 = AXIS2_PLACEMENT_3D ( 'NONE', #607, #871, #589 ) ;
#401 = DIRECTION ( 'NONE',  ( 0.000000000000000000, 0.000000000000000000, -1.000000000000000000 ) ) ;
#402 = EDGE_CURVE ( 'NONE', #459, #710, #389, .T. ) ;
#403 = DIRECTION ( 'NONE',  ( -0.000000000000000000, -0.000000000000000000, -1.000000000000000000 ) ) ;
#404 = CARTESIAN_POINT ( 'NONE',  ( -19.65000000000000213, 3.490243377569954582E-16, 3.000000000000007105 ) ) ;
#405 = PERSON_AND_ORGANIZATION_ROLE ( 'creator' ) ;
#406 = FACE_BOUND ( 'NONE', #198, .T. ) ;
#407 = AXIS2_PLACEMENT_3D ( 'NONE', #425, #354, #204 ) ;
#408 = CARTESIAN_POINT ( 'NONE',  ( 5.799999999999999822, 0.000000000000000000, 4.000000000000003553 ) ) ;
#409 = CARTESIAN_POINT ( 'NONE',  ( -22.50000000000000000, 0.000000000000000000, 3.000000000000007105 ) ) ;
#410 = PERSON_AND_ORGANIZATION ( #845, #463 ) ;
#411 = ORIENTED_EDGE ( 'NONE', *, *, #675, .F. ) ;
#412 = DIRECTION ( 'NONE',  ( -0.000000000000000000, -1.000000000000000000, -0.000000000000000000 ) ) ;
#413 = EDGE_LOOP ( 'NONE', ( #740, #429 ) ) ;
#414 = DIRECTION ( 'NONE',  ( -0.000000000000000000, -0.000000000000000000, -1.000000000000000000 ) ) ;
#415 = DIRECTION ( 'NONE',  ( 0.000000000000000000, 0.000000000000000000, 1.000000000000000000 ) ) ;
#416 = COORDINATED_UNIVERSAL_TIME_OFFSET ( 6, 0, .BEHIND. ) ;
#417 = ORIENTED_EDGE ( 'NONE', *, *, #62, .F. ) ;
#418 = CARTESIAN_POINT ( 'NONE',  ( -32.00000000000000000, -7.000000000000000000, 4.000000000000007105 ) ) ;
#419 = ORIENTED_EDGE ( 'NONE', *, *, #812, .F. ) ;
#420 = AXIS2_PLACEMENT_3D ( 'NONE', #497, #355, #138 ) ;
#421 = ADVANCED_FACE ( 'NONE', ( #318 ), #375, .F. ) ;
#422 = CARTESIAN_POINT ( 'NONE',  ( 7.500000000000000000, 0.000000000000000000, 3.000000000000007105 ) ) ;
#423 = AXIS2_PLACEMENT_3D ( 'NONE', #683, #39, #510 ) ;
#424 = ORIENTED_EDGE ( 'NONE', *, *, #73, .T. ) ;
#425 = CARTESIAN_POINT ( 'NONE',  ( -22.50000000000000000, 0.000000000000000000, 0.000000000000000000 ) ) ;
#426 = ORIENTED_EDGE ( 'NONE', *, *, #748, .T. ) ;
#427 =( NAMED_UNIT ( * ) SI_UNIT ( $, .STERADIAN. ) SOLID_ANGLE_UNIT ( ) );
#428 = CIRCLE ( 'NONE', #407, 2.849999999999998312 ) ;
#429 = ORIENTED_EDGE ( 'NONE', *, *, #826, .F. ) ;
#430 = EDGE_LOOP ( 'NONE', ( #17, #464, #912, #146 ) ) ;
#431 = CARTESIAN_POINT ( 'NONE',  ( -32.00000000000000000, 7.000000000000000000, 0.000000000000000000 ) ) ;
#432 = ORIENTED_EDGE ( 'NONE', *, *, #913, .T. ) ;
#433 = EDGE_CURVE ( 'NONE', #653, #848, #161, .T. ) ;
#434 = ORIENTED_EDGE ( 'NONE', *, *, #362, .F. ) ;
#435 = FACE_OUTER_BOUND ( 'NONE', #311, .T. ) ;
#436 = VECTOR ( 'NONE', #604, 1000.000000000000000 ) ;
#437 = ORIENTED_EDGE ( 'NONE', *, *, #402, .F. ) ;
#438 = ADVANCED_FACE ( 'NONE', ( #522 ), #223, .F. ) ;
#439 = FACE_BOUND ( 'NONE', #147, .T. ) ;
#440 = CARTESIAN_POINT ( 'NONE',  ( -9.199999999999999289, 0.000000000000000000, 3.000000000000007105 ) ) ;
#441 = CIRCLE ( 'NONE', #378, 2.999999999999999112 ) ;
#442 = ORIENTED_EDGE ( 'NONE', *, *, #119, .T. ) ;
#443 = PLANE ( 'NONE',  #67 ) ;
#444 = CARTESIAN_POINT ( 'NONE',  ( 22.50000000000000000, 0.000000000000000000, 4.000000000000003553 ) ) ;
#445 = ORIENTED_EDGE ( 'NONE', *, *, #353, .F. ) ;
#446 = ORIENTED_EDGE ( 'NONE', *, *, #730, .T. ) ;
#447 = DIRECTION ( 'NONE',  ( -0.000000000000000000, -0.000000000000000000, -1.000000000000000000 ) ) ;
#448 = ADVANCED_FACE ( 'NONE', ( #295 ), #26, .F. ) ;
#449 = LINE ( 'NONE', #452, #275 ) ;
#450 = ORIENTED_EDGE ( 'NONE', *, *, #9, .T. ) ;
#451 = DIRECTION ( 'NONE',  ( -1.000000000000000000, 0.000000000000000000, 0.000000000000000000 ) ) ;
#452 = CARTESIAN_POINT ( 'NONE',  ( -4.599999999999999645, 3.551475717527323832E-16, 3.000000000000007105 ) ) ;
#453 = CIRCLE ( 'NONE', #173, 2.999999999999999112 ) ;
#454 = ADVANCED_FACE ( 'NONE', ( #800 ), #156, .F. ) ;
#455 = ORIENTED_EDGE ( 'NONE', *, *, #883, .T. ) ;
#456 = DIRECTION ( 'NONE',  ( 1.000000000000000000, 0.000000000000000000, 0.000000000000000000 ) ) ;
#457 = CARTESIAN_POINT ( 'NONE',  ( 7.500000000000000000, 0.000000000000000000, 3.000000000000007105 ) ) ;
#458 = EDGE_CURVE ( 'NONE', #459, #529, #283, .T. ) ;
#459 = VERTEX_POINT ( 'NONE', #166 ) ;
#460 = DIRECTION ( 'NONE',  ( 0.000000000000000000, 0.000000000000000000, 1.000000000000000000 ) ) ;
#461 = DIRECTION ( 'NONE',  ( 1.000000000000000000, 0.000000000000000000, 0.000000000000000000 ) ) ;
#462 = CARTESIAN_POINT ( 'NONE',  ( -7.500000000000000000, 0.000000000000000000, 3.000000000000007105 ) ) ;
#463 = ORGANIZATION ( 'UNSPECIFIED', 'UNSPECIFIED', '' ) ;
#464 = ORIENTED_EDGE ( 'NONE', *, *, #133, .T. ) ;
#465 = CYLINDRICAL_SURFACE ( 'NONE', #797, 2.999999999999999112 ) ;
#466 = AXIS2_PLACEMENT_3D ( 'NONE', #444, #916, #911 ) ;
#467 = CARTESIAN_POINT ( 'NONE',  ( -32.00000000000000000, -7.000000000000000000, 0.000000000000000000 ) ) ;
#468 = DIRECTION ( 'NONE',  ( -1.000000000000000000, 0.000000000000000000, 0.000000000000000000 ) ) ;
#469 = AXIS2_PLACEMENT_3D ( 'NONE', #487, #414, #48 ) ;
#470 = DIRECTION ( 'NONE',  ( 0.000000000000000000, 0.000000000000000000, -1.000000000000000000 ) ) ;
#471 = ADVANCED_FACE ( 'NONE', ( #876 ), #227, .F. ) ;
#472 = CARTESIAN_POINT ( 'NONE',  ( -7.500000000000000000, 0.000000000000000000, 4.000000000000003553 ) ) ;
#473 = AXIS2_PLACEMENT_3D ( 'NONE', #40, #682, #114 ) ;
#474 = SECURITY_CLASSIFICATION_LEVEL ( 'unclassified' ) ;
#475 = CARTESIAN_POINT ( 'NONE',  ( 24.19999999999999929, 2.081899558550500526E-16, 4.000000000000003553 ) ) ;
#476 = AXIS2_PLACEMENT_3D ( 'NONE', #95, #460, #741 ) ;
#477 = DIRECTION ( 'NONE',  ( -1.000000000000000000, 0.000000000000000000, 0.000000000000000000 ) ) ;
#478 = APPROVAL ( #171, 'UNSPECIFIED' ) ;
#479 = APPROVAL_STATUS ( 'not_yet_approved' ) ;
#480 = CARTESIAN_POINT ( 'NONE',  ( 10.45000000000000107, 3.612708057484693083E-16, 0.000000000000000000 ) ) ;
#481 = APPROVAL_PERSON_ORGANIZATION ( #410, #96, #316 ) ;
#482 = FACE_BOUND ( 'NONE', #413, .T. ) ;
#483 = DATE_AND_TIME ( #322, #728 ) ;
#484 = EDGE_CURVE ( 'NONE', #93, #194, #768, .T. ) ;
#485 = LINE ( 'NONE', #177, #38 ) ;
#486 = CIRCLE ( 'NONE', #759, 1.700000000000000178 ) ;
#487 = CARTESIAN_POINT ( 'NONE',  ( -7.500000000000000000, 0.000000000000000000, 3.000000000000007105 ) ) ;
#488 = DIRECTION ( 'NONE',  ( 0.000000000000000000, 0.000000000000000000, -1.000000000000000000 ) ) ;
#489 = ORIENTED_EDGE ( 'NONE', *, *, #547, .T. ) ;
#490 = DIRECTION ( 'NONE',  ( 0.000000000000000000, 0.000000000000000000, -1.000000000000000000 ) ) ;
#491 = ADVANCED_FACE ( 'NONE', ( #601 ), #465, .F. ) ;
#492 = VERTEX_POINT ( 'NONE', #746 ) ;
#493 = LINE ( 'NONE', #190, #246 ) ;
#494 = EDGE_LOOP ( 'NONE', ( #706, #775 ) ) ;
#495 = FACE_OUTER_BOUND ( 'NONE', #430, .T. ) ;
#496 = ORIENTED_EDGE ( 'NONE', *, *, #641, .T. ) ;
#497 = CARTESIAN_POINT ( 'NONE',  ( 0.000000000000000000, 0.000000000000000000, 4.000000000000007105 ) ) ;
#498 = CC_DESIGN_APPROVAL ( #259, ( #533 ) ) ;
#499 = ORIENTED_EDGE ( 'NONE', *, *, #569, .T. ) ;
#500 = ORIENTED_EDGE ( 'NONE', *, *, #687, .F. ) ;
#501 = APPLICATION_PROTOCOL_DEFINITION ( 'international standard', 'config_control_design', 1994, #788 ) ;
#502 = AXIS2_PLACEMENT_3D ( 'NONE', #536, #877, #229 ) ;
#503 = EDGE_CURVE ( 'NONE', #134, #588, #395, .T. ) ;
#504 = VERTEX_POINT ( 'NONE', #894 ) ;
#505 = EDGE_LOOP ( 'NONE', ( #923, #489, #496, #592 ) ) ;
#506 = CARTESIAN_POINT ( 'NONE',  ( 7.500000000000000000, 0.000000000000000000, 3.000000000000007105 ) ) ;
#507 = ORIENTED_EDGE ( 'NONE', *, *, #34, .F. ) ;
#508 = CC_DESIGN_PERSON_AND_ORGANIZATION_ASSIGNMENT ( #108, #621, ( #370 ) ) ;
#509 = DIRECTION ( 'NONE',  ( 1.000000000000000000, 0.000000000000000000, 0.000000000000000000 ) ) ;
#510 = DIRECTION ( 'NONE',  ( -1.000000000000000000, 0.000000000000000000, 0.000000000000000000 ) ) ;
#511 = VECTOR ( 'NONE', #835, 1000.000000000000000 ) ;
#512 = CIRCLE ( 'NONE', #715, 2.899999999999999911 ) ;
#513 = ORIENTED_EDGE ( 'NONE', *, *, #675, .T. ) ;
#514 = VECTOR ( 'NONE', #585, 1000.000000000000000 ) ;
#515 = CARTESIAN_POINT ( 'NONE',  ( -24.19999999999999929, 0.000000000000000000, 3.000000000000007105 ) ) ;
#516 = ORIENTED_EDGE ( 'NONE', *, *, #558, .T. ) ;
#517 = EDGE_LOOP ( 'NONE', ( #446, #716 ) ) ;
#518 = DIRECTION ( 'NONE',  ( 0.000000000000000000, 0.000000000000000000, -1.000000000000000000 ) ) ;
#519 = ADVANCED_FACE ( 'NONE', ( #323 ), #53, .F. ) ;
#520 = VERTEX_POINT ( 'NONE', #914 ) ;
#521 = ORIENTED_EDGE ( 'NONE', *, *, #293, .T. ) ;
#522 = FACE_OUTER_BOUND ( 'NONE', #671, .T. ) ;
#523 = DIRECTION ( 'NONE',  ( 1.000000000000000000, 0.000000000000000000, 0.000000000000000000 ) ) ;
#524 = ORIENTED_EDGE ( 'NONE', *, *, #133, .F. ) ;
#525 = AXIS2_PLACEMENT_3D ( 'NONE', #506, #858, #861 ) ;
#526 = ORIENTED_EDGE ( 'NONE', *, *, #433, .F. ) ;
#527 = ORIENTED_EDGE ( 'NONE', *, *, #847, .T. ) ;
#528 = ADVANCED_FACE ( 'NONE', ( #495 ), #248, .F. ) ;
#529 = VERTEX_POINT ( 'NONE', #559 ) ;
#530 = DIRECTION ( 'NONE',  ( -1.000000000000000000, 0.000000000000000000, 0.000000000000000000 ) ) ;
#531 = DIRECTION ( 'NONE',  ( 0.000000000000000000, 0.000000000000000000, -1.000000000000000000 ) ) ;
#532 = CARTESIAN_POINT ( 'NONE',  ( -9.199999999999999289, 0.000000000000000000, 4.000000000000003553 ) ) ;
#533 = PRODUCT_DEFINITION ( 'UNKNOWN', '', #183, #673 ) ;
#534 = CIRCLE ( 'NONE', #211, 2.999999999999999112 ) ;
#535 = ORIENTED_EDGE ( 'NONE', *, *, #44, .T. ) ;
#536 = CARTESIAN_POINT ( 'NONE',  ( -30.00000000000000000, 5.000000000000000000, 0.000000000000000000 ) ) ;
#537 = CARTESIAN_POINT ( 'NONE',  ( 9.199999999999999289, 2.081899558550500526E-16, 4.000000000000003553 ) ) ;
#538 = CIRCLE ( 'NONE', #613, 1.700000000000000178 ) ;
#539 = DIRECTION ( 'NONE',  ( 0.000000000000000000, 0.000000000000000000, -1.000000000000000000 ) ) ;
#540 = UNCERTAINTY_MEASURE_WITH_UNIT (LENGTH_MEASURE( 1.000000000000000082E-05 ), #361, 'distance_accuracy_value', 'NONE');
#541 = EDGE_CURVE ( 'NONE', #588, #910, #751, .T. ) ;
#542 = DIRECTION ( 'NONE',  ( 1.000000000000000000, 0.000000000000000000, 0.000000000000000000 ) ) ;
#543 = DIRECTION ( 'NONE',  ( 1.000000000000000000, 0.000000000000000000, 0.000000000000000000 ) ) ;
#544 = APPROVAL_STATUS ( 'not_yet_approved' ) ;
#545 = AXIS2_PLACEMENT_3D ( 'NONE', #109, #403, #628 ) ;
#546 = FACE_BOUND ( 'NONE', #78, .T. ) ;
#547 = EDGE_CURVE ( 'NONE', #25, #596, #622, .T. ) ;
#548 = DIRECTION ( 'NONE',  ( 1.000000000000000000, 0.000000000000000000, 0.000000000000000000 ) ) ;
#549 = DIRECTION ( 'NONE',  ( 1.000000000000000000, 0.000000000000000000, 0.000000000000000000 ) ) ;
#550 = DIRECTION ( 'NONE',  ( 0.000000000000000000, 0.000000000000000000, 1.000000000000000000 ) ) ;
#551 = DATE_AND_TIME ( #823, #127 ) ;
#552 = CARTESIAN_POINT ( 'NONE',  ( -7.500000000000000000, 0.000000000000000000, 4.000000000000003553 ) ) ;
#553 = ORIENTED_EDGE ( 'NONE', *, *, #711, .T. ) ;
#554 = LOCAL_TIME ( 18, 13, 16.00000000000000000, #828 ) ;
#555 = VECTOR ( 'NONE', #764, 1000.000000000000000 ) ;
#556 = LINE ( 'NONE', #344, #390 ) ;
#557 = COORDINATED_UNIVERSAL_TIME_OFFSET ( 6, 0, .BEHIND. ) ;
#558 = EDGE_CURVE ( 'NONE', #342, #282, #909, .T. ) ;
#559 = CARTESIAN_POINT ( 'NONE',  ( -29.25000000000000000, 5.000000000000000000, 4.000000000000003553 ) ) ;
#560 = CARTESIAN_POINT ( 'NONE',  ( 25.50000000000000000, 3.673940397442058882E-16, 0.000000000000000000 ) ) ;
#561 = ORIENTED_EDGE ( 'NONE', *, *, #899, .F. ) ;
#562 = FACE_BOUND ( 'NONE', #222, .T. ) ;
#563 = ORIENTED_EDGE ( 'NONE', *, *, #281, .T. ) ;
#564 = AXIS2_PLACEMENT_3D ( 'NONE', #244, #593, #101 ) ;
#565 = DIRECTION ( 'NONE',  ( -1.000000000000000000, 0.000000000000000000, 0.000000000000000000 ) ) ;
#566 = CARTESIAN_POINT ( 'NONE',  ( -25.34999999999999787, 0.000000000000000000, 3.000000000000007105 ) ) ;
#567 = ORIENTED_EDGE ( 'NONE', *, *, #372, .F. ) ;
#568 = CARTESIAN_POINT ( 'NONE',  ( 7.500000000000000000, 0.000000000000000000, 3.000000000000007105 ) ) ;
#569 = EDGE_CURVE ( 'NONE', #155, #857, #266, .T. ) ;
#570 = AXIS2_PLACEMENT_3D ( 'NONE', #552, #830, #46 ) ;
#571 = ORIENTED_EDGE ( 'NONE', *, *, #329, .T. ) ;
#572 = ORIENTED_EDGE ( 'NONE', *, *, #583, .T. ) ;
#573 = DIRECTION ( 'NONE',  ( 1.000000000000000000, 0.000000000000000000, -0.000000000000000000 ) ) ;
#574 = AXIS2_PLACEMENT_3D ( 'NONE', #602, #531, #451 ) ;
#575 = ORIENTED_EDGE ( 'NONE', *, *, #164, .F. ) ;
#576 = FACE_OUTER_BOUND ( 'NONE', #844, .T. ) ;
#577 = AXIS2_PLACEMENT_3D ( 'NONE', #86, #886, #672 ) ;
#578 = VERTEX_POINT ( 'NONE', #767 ) ;
#579 = EDGE_CURVE ( 'NONE', #875, #25, #805, .T. ) ;
#580 = DIRECTION ( 'NONE',  ( 0.000000000000000000, 0.000000000000000000, 1.000000000000000000 ) ) ;
#581 = DIRECTION ( 'NONE',  ( -1.000000000000000000, 0.000000000000000000, 0.000000000000000000 ) ) ;
#582 = DIRECTION ( 'NONE',  ( 0.000000000000000000, 0.000000000000000000, 1.000000000000000000 ) ) ;
#583 = EDGE_CURVE ( 'NONE', #762, #342, #698, .T. ) ;
#584 = CARTESIAN_POINT ( 'NONE',  ( 32.00000000000000000, 7.000000000000000000, 4.000000000000007105 ) ) ;
#585 = DIRECTION ( 'NONE',  ( 0.000000000000000000, 0.000000000000000000, -1.000000000000000000 ) ) ;
#586 = CIRCLE ( 'NONE', #292, 2.899999999999999911 ) ;
#587 = EDGE_LOOP ( 'NONE', ( #394, #655, #124, #632 ) ) ;
#588 = VERTEX_POINT ( 'NONE', #480 ) ;
#589 = DIRECTION ( 'NONE',  ( -1.000000000000000000, 0.000000000000000000, 0.000000000000000000 ) ) ;
#590 = CYLINDRICAL_SURFACE ( 'NONE', #617, 2.849999999999998312 ) ;
#591 = ORIENTED_EDGE ( 'NONE', *, *, #281, .F. ) ;
#592 = ORIENTED_EDGE ( 'NONE', *, *, #243, .F. ) ;
#593 = DIRECTION ( 'NONE',  ( 0.000000000000000000, 0.000000000000000000, 1.000000000000000000 ) ) ;
#594 = CARTESIAN_POINT ( 'NONE',  ( 22.50000000000000000, 0.000000000000000000, 3.000000000000007105 ) ) ;
#595 = ADVANCED_FACE ( 'NONE', ( #123, #546, #757, #562, #187, #197 ), #341, .T. ) ;
#596 = VERTEX_POINT ( 'NONE', #691 ) ;
#597 = CIRCLE ( 'NONE', #713, 2.849999999999998312 ) ;
#598 = CC_DESIGN_APPROVAL ( #96, ( #183 ) ) ;
#599 = AXIS2_PLACEMENT_3D ( 'NONE', #422, #488, #581 ) ;
#600 = ORIENTED_EDGE ( 'NONE', *, *, #243, .T. ) ;
#601 = FACE_OUTER_BOUND ( 'NONE', #85, .T. ) ;
#602 = CARTESIAN_POINT ( 'NONE',  ( 7.500000000000000000, 0.000000000000000000, 4.000000000000003553 ) ) ;
#603 = EDGE_CURVE ( 'NONE', #520, #634, #57, .T. ) ;
#604 = DIRECTION ( 'NONE',  ( -0.000000000000000000, -0.000000000000000000, -1.000000000000000000 ) ) ;
#605 = EDGE_LOOP ( 'NONE', ( #813, #879, #693, #30 ) ) ;
#606 = VERTEX_POINT ( 'NONE', #181 ) ;
#607 = CARTESIAN_POINT ( 'NONE',  ( -30.00000000000000000, 5.000000000000000000, 4.000000000000003553 ) ) ;
#608 = DIRECTION ( 'NONE',  ( 1.000000000000000000, 0.000000000000000000, 0.000000000000000000 ) ) ;
#609 = CALENDAR_DATE ( 2026, 28, 9 ) ;
#610 = DIRECTION ( 'NONE',  ( -1.000000000000000000, 0.000000000000000000, 0.000000000000000000 ) ) ;
#611 = DIRECTION ( 'NONE',  ( 0.000000000000000000, 0.000000000000000000, 1.000000000000000000 ) ) ;
#612 = APPROVAL_ROLE ( '' ) ;
#613 = AXIS2_PLACEMENT_3D ( 'NONE', #71, #1, #776 ) ;
#614 = ADVANCED_FACE ( 'NONE', ( #406, #332 ), #193, .F. ) ;
#615 = DIRECTION ( 'NONE',  ( 0.000000000000000000, 0.000000000000000000, 1.000000000000000000 ) ) ;
#616 = PLANE ( 'NONE',  #789 ) ;
#617 = AXIS2_PLACEMENT_3D ( 'NONE', #815, #396, #873 ) ;
#618 = CARTESIAN_POINT ( 'NONE',  ( -22.50000000000000000, 0.000000000000000000, 4.000000000000003553 ) ) ;
#619 = DIRECTION ( 'NONE',  ( 0.000000000000000000, 0.000000000000000000, 1.000000000000000000 ) ) ;
#620 = CARTESIAN_POINT ( 'NONE',  ( -5.799999999999999822, 2.081899558550500526E-16, 4.000000000000003553 ) ) ;
#621 = PERSON_AND_ORGANIZATION_ROLE ( 'design_owner' ) ;
#622 = LINE ( 'NONE', #846, #511 ) ;
#623 = ORIENTED_EDGE ( 'NONE', *, *, #44, .F. ) ;
#624 = EDGE_CURVE ( 'NONE', #606, #885, #485, .T. ) ;
#625 = CARTESIAN_POINT ( 'NONE',  ( 7.500000000000000000, 0.000000000000000000, 3.000000000000007105 ) ) ;
#626 = DATE_AND_TIME ( #755, #168 ) ;
#627 = ORIENTED_EDGE ( 'NONE', *, *, #300, .T. ) ;
#628 = DIRECTION ( 'NONE',  ( 1.000000000000000000, 0.000000000000000000, 0.000000000000000000 ) ) ;
#629 = ORIENTED_EDGE ( 'NONE', *, *, #458, .F. ) ;
#630 = VECTOR ( 'NONE', #56, 1000.000000000000000 ) ;
#631 = CARTESIAN_POINT ( 'NONE',  ( 32.00000000000000000, 7.000000000000000000, 4.000000000000007105 ) ) ;
#632 = ORIENTED_EDGE ( 'NONE', *, *, #748, .F. ) ;
#633 = DIRECTION ( 'NONE',  ( -0.000000000000000000, -0.000000000000000000, -1.000000000000000000 ) ) ;
#634 = VERTEX_POINT ( 'NONE', #686 ) ;
#635 = LINE ( 'NONE', #849, #630 ) ;
#636 = ORIENTED_EDGE ( 'NONE', *, *, #62, .T. ) ;
#637 = EDGE_CURVE ( 'NONE', #47, #667, #761, .T. ) ;
#638 = DIRECTION ( 'NONE',  ( 0.000000000000000000, 0.000000000000000000, -1.000000000000000000 ) ) ;
#639 = ORIENTED_EDGE ( 'NONE', *, *, #329, .F. ) ;
#640 = ORIENTED_EDGE ( 'NONE', *, *, #366, .T. ) ;
#641 = EDGE_CURVE ( 'NONE', #596, #219, #279, .T. ) ;
#642 = ORIENTED_EDGE ( 'NONE', *, *, #637, .F. ) ;
#643 = DIRECTION ( 'NONE',  ( 1.000000000000000000, 0.000000000000000000, 0.000000000000000000 ) ) ;
#644 = VERTEX_POINT ( 'NONE', #59 ) ;
#645 = PRODUCT_DEFINITION_SHAPE ( 'NONE', 'NONE',  #533 ) ;
#646 = ORIENTED_EDGE ( 'NONE', *, *, #73, .F. ) ;
#647 = CARTESIAN_POINT ( 'NONE',  ( -30.00000000000000000, 5.000000000000000000, 4.000000000000003553 ) ) ;
#648 = FACE_OUTER_BOUND ( 'NONE', #921, .T. ) ;
#649 = EDGE_CURVE ( 'NONE', #257, #904, #850, .T. ) ;
#650 = ORIENTED_EDGE ( 'NONE', *, *, #883, .F. ) ;
#651 = LINE ( 'NONE', #201, #52 ) ;
#652 = FACE_OUTER_BOUND ( 'NONE', #919, .T. ) ;
#653 = VERTEX_POINT ( 'NONE', #270 ) ;
#654 = VECTOR ( 'NONE', #412, 1000.000000000000000 ) ;
#655 = ORIENTED_EDGE ( 'NONE', *, *, #895, .T. ) ;
#656 = EDGE_CURVE ( 'NONE', #578, #904, #428, .T. ) ;
#657 = ORIENTED_EDGE ( 'NONE', *, *, #840, .T. ) ;
#658 = CARTESIAN_POINT ( 'NONE',  ( -30.00000000000000000, 5.000000000000000000, 4.000000000000003553 ) ) ;
#659 = CARTESIAN_POINT ( 'NONE',  ( -32.00000000000000000, -7.000000000000000000, 4.000000000000007105 ) ) ;
#660 = ORIENTED_EDGE ( 'NONE', *, *, #707, .F. ) ;
#661 = EDGE_LOOP ( 'NONE', ( #799, #83, #600, #640 ) ) ;
#662 = DIRECTION ( 'NONE',  ( 1.000000000000000000, 0.000000000000000000, 0.000000000000000000 ) ) ;
#663 = ADVANCED_FACE ( 'NONE', ( #129 ), #773, .F. ) ;
#664 = LINE ( 'NONE', #659, #780 ) ;
#665 = AXIS2_PLACEMENT_3D ( 'NONE', #801, #286, #582 ) ;
#666 = AXIS2_PLACEMENT_3D ( 'NONE', #625, #792, #72 ) ;
#667 = VERTEX_POINT ( 'NONE', #13 ) ;
#668 = DIRECTION ( 'NONE',  ( 0.000000000000000000, 0.000000000000000000, -1.000000000000000000 ) ) ;
#669 = ADVANCED_FACE ( 'NONE', ( #157 ), #92, .F. ) ;
#670 = CARTESIAN_POINT ( 'NONE',  ( 32.00000000000000000, 7.000000000000000000, 0.000000000000000000 ) ) ;
#671 = EDGE_LOOP ( 'NONE', ( #836, #527, #58, #437 ) ) ;
#672 = DIRECTION ( 'NONE',  ( 0.000000000000000000, -0.000000000000000000, 1.000000000000000000 ) ) ;
#673 = DESIGN_CONTEXT ( 'detailed design', #24, 'design' ) ;
#674 = CARTESIAN_POINT ( 'NONE',  ( -7.500000000000000000, 0.000000000000000000, 0.000000000000000000 ) ) ;
#675 = EDGE_CURVE ( 'NONE', #282, #492, #890, .T. ) ;
#676 = DATE_AND_TIME ( #609, #203 ) ;
#677 = VECTOR ( 'NONE', #809, 1000.000000000000000 ) ;
#678 = CARTESIAN_POINT ( 'NONE',  ( 7.500000000000000000, 0.000000000000000000, 3.000000000000007105 ) ) ;
#679 = CARTESIAN_POINT ( 'NONE',  ( -22.50000000000000000, 0.000000000000000000, 0.000000000000000000 ) ) ;
#680 = CYLINDRICAL_SURFACE ( 'NONE', #423, 1.700000000000000178 ) ;
#681 = AXIS2_PLACEMENT_3D ( 'NONE', #387, #798, #158 ) ;
#682 = DIRECTION ( 'NONE',  ( 0.000000000000000000, 0.000000000000000000, -1.000000000000000000 ) ) ;
#683 = CARTESIAN_POINT ( 'NONE',  ( 7.500000000000000000, 0.000000000000000000, 4.000000000000003553 ) ) ;
#684 = SHAPE_DEFINITION_REPRESENTATION ( #645, #163 ) ;
#685 = AXIS2_PLACEMENT_3D ( 'NONE', #678, #615, #753 ) ;
#686 = CARTESIAN_POINT ( 'NONE',  ( -4.599999999999999645, 3.551475717527323832E-16, 0.000000000000000000 ) ) ;
#687 = EDGE_CURVE ( 'NONE', #25, #875, #486, .T. ) ;
#688 = LINE ( 'NONE', #43, #839 ) ;
#689 = DIRECTION ( 'NONE',  ( 0.000000000000000000, 0.000000000000000000, 1.000000000000000000 ) ) ;
#690 = APPLICATION_PROTOCOL_DEFINITION ( 'international standard', 'config_control_design', 1994, #24 ) ;
#691 = CARTESIAN_POINT ( 'NONE',  ( -20.80000000000000071, 2.081899558550500526E-16, 3.000000000000007105 ) ) ;
#692 = AXIS2_PLACEMENT_3D ( 'NONE', #658, #238, #814 ) ;
#693 = ORIENTED_EDGE ( 'NONE', *, *, #164, .T. ) ;
#694 = CC_DESIGN_DATE_AND_TIME_ASSIGNMENT ( #483, #242, ( #817 ) ) ;
#695 = DIRECTION ( 'NONE',  ( 1.000000000000000000, 0.000000000000000000, 0.000000000000000000 ) ) ;
#696 = COORDINATED_UNIVERSAL_TIME_OFFSET ( 6, 0, .BEHIND. ) ;
#697 = EDGE_LOOP ( 'NONE', ( #61, #500 ) ) ;
#698 = LINE ( 'NONE', #418, #654 ) ;
#699 = ORIENTED_EDGE ( 'NONE', *, *, #656, .T. ) ;
#700 = CARTESIAN_POINT ( 'NONE',  ( 7.500000000000000000, 0.000000000000000000, 0.000000000000000000 ) ) ;
#701 = AXIS2_PLACEMENT_3D ( 'NONE', #462, #888, #468 ) ;
#702 = CYLINDRICAL_SURFACE ( 'NONE', #98, 1.700000000000000178 ) ;
#703 = AXIS2_PLACEMENT_3D ( 'NONE', #87, #804, #523 ) ;
#704 = CARTESIAN_POINT ( 'NONE',  ( -22.50000000000000000, 0.000000000000000000, 4.000000000000003553 ) ) ;
#705 = EDGE_LOOP ( 'NONE', ( #851, #117, #8, #880 ) ) ;
#706 = ORIENTED_EDGE ( 'NONE', *, *, #603, .T. ) ;
#707 = EDGE_CURVE ( 'NONE', #848, #653, #453, .T. ) ;
#708 = ORIENTED_EDGE ( 'NONE', *, *, #315, .F. ) ;
#709 = PLANE ( 'NONE',  #420 ) ;
#710 = VERTEX_POINT ( 'NONE', #313 ) ;
#711 = EDGE_CURVE ( 'NONE', #342, #606, #664, .T. ) ;
#712 = CARTESIAN_POINT ( 'NONE',  ( -25.34999999999999787, 0.000000000000000000, 0.000000000000000000 ) ) ;
#713 = AXIS2_PLACEMENT_3D ( 'NONE', #409, #689, #250 ) ;
#714 = APPROVAL_PERSON_ORGANIZATION ( #261, #478, #901 ) ;
#715 = AXIS2_PLACEMENT_3D ( 'NONE', #321, #754, #247 ) ;
#716 = ORIENTED_EDGE ( 'NONE', *, *, #372, .T. ) ;
#717 = FACE_BOUND ( 'NONE', #784, .T. ) ;
#718 = CARTESIAN_POINT ( 'NONE',  ( -24.19999999999999929, 0.000000000000000000, 4.000000000000003553 ) ) ;
#719 = AXIS2_PLACEMENT_3D ( 'NONE', #301, #742, #810 ) ;
#720 = EDGE_CURVE ( 'NONE', #272, #667, #70, .T. ) ;
#721 = PLANE ( 'NONE',  #681 ) ;
#722 = FACE_BOUND ( 'NONE', #737, .T. ) ;
#723 = CARTESIAN_POINT ( 'NONE',  ( -32.00000000000000000, -7.000000000000000000, 4.000000000000007105 ) ) ;
#724 = DIRECTION ( 'NONE',  ( -0.000000000000000000, -1.000000000000000000, -0.000000000000000000 ) ) ;
#725 = EDGE_LOOP ( 'NONE', ( #374, #237 ) ) ;
#726 = DIRECTION ( 'NONE',  ( 1.000000000000000000, 0.000000000000000000, 0.000000000000000000 ) ) ;
#727 = DIRECTION ( 'NONE',  ( 0.000000000000000000, 0.000000000000000000, 1.000000000000000000 ) ) ;
#728 = LOCAL_TIME ( 18, 13, 16.00000000000000000, #416 ) ;
#729 = ORIENTED_EDGE ( 'NONE', *, *, #366, .F. ) ;
#730 = EDGE_CURVE ( 'NONE', #371, #346, #441, .T. ) ;
#731 = ORIENTED_EDGE ( 'NONE', *, *, #895, .F. ) ;
#732 = DIRECTION ( 'NONE',  ( -1.000000000000000000, 0.000000000000000000, 0.000000000000000000 ) ) ;
#733 = LINE ( 'NONE', #167, #927 ) ;
#734 = CIRCLE ( 'NONE', #328, 1.700000000000000178 ) ;
#735 = DIRECTION ( 'NONE',  ( 0.000000000000000000, 0.000000000000000000, -1.000000000000000000 ) ) ;
#736 = CC_DESIGN_PERSON_AND_ORGANIZATION_ASSIGNMENT ( #185, #180, ( #533 ) ) ;
#737 = EDGE_LOOP ( 'NONE', ( #274, #575 ) ) ;
#738 = FACE_OUTER_BOUND ( 'NONE', #207, .T. ) ;
#739 = FACE_OUTER_BOUND ( 'NONE', #218, .T. ) ;
#740 = ORIENTED_EDGE ( 'NONE', *, *, #913, .F. ) ;
#741 = DIRECTION ( 'NONE',  ( 1.000000000000000000, 0.000000000000000000, 0.000000000000000000 ) ) ;
#742 = DIRECTION ( 'NONE',  ( 0.000000000000000000, 0.000000000000000000, -1.000000000000000000 ) ) ;
#743 = CARTESIAN_POINT ( 'NONE',  ( -7.500000000000000000, 0.000000000000000000, 3.000000000000007105 ) ) ;
#744 = VECTOR ( 'NONE', #758, 1000.000000000000000 ) ;
#745 = EDGE_LOOP ( 'NONE', ( #507, #657, #571, #90 ) ) ;
#746 = CARTESIAN_POINT ( 'NONE',  ( 32.00000000000000000, -7.000000000000000000, 0.000000000000000000 ) ) ;
#747 = CARTESIAN_POINT ( 'NONE',  ( 22.50000000000000000, 0.000000000000000000, 3.000000000000007105 ) ) ;
#748 = EDGE_CURVE ( 'NONE', #23, #710, #896, .T. ) ;
#749 = DIRECTION ( 'NONE',  ( 0.000000000000000000, 0.000000000000000000, -1.000000000000000000 ) ) ;
#750 = PERSON_AND_ORGANIZATION ( #845, #463 ) ;
#751 = CIRCLE ( 'NONE', #807, 2.950000000000001066 ) ;
#752 = FACE_OUTER_BOUND ( 'NONE', #356, .T. ) ;
#753 = DIRECTION ( 'NONE',  ( 1.000000000000000000, 0.000000000000000000, -0.000000000000000000 ) ) ;
#754 = DIRECTION ( 'NONE',  ( 0.000000000000000000, 0.000000000000000000, 1.000000000000000000 ) ) ;
#755 = CALENDAR_DATE ( 2026, 28, 9 ) ;
#756 = EDGE_CURVE ( 'NONE', #710, #23, #27, .T. ) ;
#757 = FACE_BOUND ( 'NONE', #494, .T. ) ;
#758 = DIRECTION ( 'NONE',  ( 0.000000000000000000, 0.000000000000000000, -1.000000000000000000 ) ) ;
#759 = AXIS2_PLACEMENT_3D ( 'NONE', #16, #727, #245 ) ;
#760 = ADVANCED_FACE ( 'NONE', ( #738 ), #590, .F. ) ;
#761 = LINE ( 'NONE', #475, #132 ) ;
#762 = VERTEX_POINT ( 'NONE', #233 ) ;
#763 = DIRECTION ( 'NONE',  ( 0.000000000000000000, 0.000000000000000000, -1.000000000000000000 ) ) ;
#764 = DIRECTION ( 'NONE',  ( 0.000000000000000000, 1.000000000000000000, 0.000000000000000000 ) ) ;
#765 = APPROVAL_DATE_TIME ( #626, #259 ) ;
#766 = ORIENTED_EDGE ( 'NONE', *, *, #174, .T. ) ;
#767 = CARTESIAN_POINT ( 'NONE',  ( -19.65000000000000213, 3.490243377569954582E-16, 0.000000000000000000 ) ) ;
#768 = CIRCLE ( 'NONE', #889, 1.700000000000000178 ) ;
#769 = ORIENTED_EDGE ( 'NONE', *, *, #200, .T. ) ;
#770 = EDGE_CURVE ( 'NONE', #47, #504, #84, .T. ) ;
#771 = CARTESIAN_POINT ( 'NONE',  ( 32.00000000000000000, -7.000000000000000000, 0.000000000000000000 ) ) ;
#772 = ORIENTED_EDGE ( 'NONE', *, *, #856, .T. ) ;
#773 = CYLINDRICAL_SURFACE ( 'NONE', #10, 1.700000000000000178 ) ;
#774 = CIRCLE ( 'NONE', #228, 1.700000000000000178 ) ;
#775 = ORIENTED_EDGE ( 'NONE', *, *, #209, .T. ) ;
#776 = DIRECTION ( 'NONE',  ( 1.000000000000000000, 0.000000000000000000, 0.000000000000000000 ) ) ;
#777 = CIRCLE ( 'NONE', #790, 1.700000000000000178 ) ;
#778 = EDGE_CURVE ( 'NONE', #139, #802, #734, .T. ) ;
#779 = ORIENTED_EDGE ( 'NONE', *, *, #785, .T. ) ;
#780 = VECTOR ( 'NONE', #887, 1000.000000000000000 ) ;
#781 = ADVANCED_FACE ( 'NONE', ( #308 ), #97, .F. ) ;
#782 = ORIENTED_EDGE ( 'NONE', *, *, #315, .T. ) ;
#783 = ORIENTED_EDGE ( 'NONE', *, *, #541, .F. ) ;
#784 = EDGE_LOOP ( 'NONE', ( #874, #137 ) ) ;
#785 = EDGE_CURVE ( 'NONE', #93, #276, #733, .T. ) ;
#786 = CARTESIAN_POINT ( 'NONE',  ( -10.40000000000000036, 0.000000000000000000, 3.000000000000007105 ) ) ;
#787 = CYLINDRICAL_SURFACE ( 'NONE', #466, 1.700000000000000178 ) ;
#788 = APPLICATION_CONTEXT ( 'configuration controlled 3d designs of mechanical parts and assemblies' ) ;
#789 = AXIS2_PLACEMENT_3D ( 'NONE', #393, #831, #45 ) ;
#790 = AXIS2_PLACEMENT_3D ( 'NONE', #862, #415, #795 ) ;
#791 = FACE_OUTER_BOUND ( 'NONE', #902, .T. ) ;
#792 = DIRECTION ( 'NONE',  ( 0.000000000000000000, 0.000000000000000000, 1.000000000000000000 ) ) ;
#793 = ORIENTED_EDGE ( 'NONE', *, *, #856, .F. ) ;
#794 = EDGE_LOOP ( 'NONE', ( #829, #766, #317, #434 ) ) ;
#795 = DIRECTION ( 'NONE',  ( 1.000000000000000000, 0.000000000000000000, 0.000000000000000000 ) ) ;
#796 = EDGE_CURVE ( 'NONE', #910, #588, #310, .T. ) ;
#797 = AXIS2_PLACEMENT_3D ( 'NONE', #232, #539, #530 ) ;
#798 = DIRECTION ( 'NONE',  ( 0.000000000000000000, -1.000000000000000000, 0.000000000000000000 ) ) ;
#799 = ORIENTED_EDGE ( 'NONE', *, *, #547, .F. ) ;
#800 = FACE_OUTER_BOUND ( 'NONE', #291, .T. ) ;
#801 = CARTESIAN_POINT ( 'NONE',  ( 32.00000000000000000, -7.000000000000000000, 4.000000000000007105 ) ) ;
#802 = VERTEX_POINT ( 'NONE', #408 ) ;
#803 = DIRECTION ( 'NONE',  ( 0.000000000000000000, 0.000000000000000000, 1.000000000000000000 ) ) ;
#804 = DIRECTION ( 'NONE',  ( 0.000000000000000000, 0.000000000000000000, 1.000000000000000000 ) ) ;
#805 = CIRCLE ( 'NONE', #855, 1.700000000000000178 ) ;
#806 = PLANE ( 'NONE',  #665 ) ;
#807 = AXIS2_PLACEMENT_3D ( 'NONE', #347, #37, #327 ) ;
#808 = ORIENTED_EDGE ( 'NONE', *, *, #756, .T. ) ;
#809 = DIRECTION ( 'NONE',  ( 0.000000000000000000, 0.000000000000000000, -1.000000000000000000 ) ) ;
#810 = DIRECTION ( 'NONE',  ( -1.000000000000000000, 0.000000000000000000, 0.000000000000000000 ) ) ;
#811 = FACE_OUTER_BOUND ( 'NONE', #605, .T. ) ;
#812 = EDGE_CURVE ( 'NONE', #606, #492, #688, .T. ) ;
#813 = ORIENTED_EDGE ( 'NONE', *, *, #271, .T. ) ;
#814 = DIRECTION ( 'NONE',  ( 1.000000000000000000, 0.000000000000000000, 0.000000000000000000 ) ) ;
#815 = CARTESIAN_POINT ( 'NONE',  ( -22.50000000000000000, 0.000000000000000000, 3.000000000000007105 ) ) ;
#816 = FACE_OUTER_BOUND ( 'NONE', #824, .T. ) ;
#817 = SECURITY_CLASSIFICATION ( '', '', #474 ) ;
#818 = VECTOR ( 'NONE', #268, 1000.000000000000000 ) ;
#819 = CARTESIAN_POINT ( 'NONE',  ( -22.50000000000000000, 0.000000000000000000, 3.000000000000007105 ) ) ;
#820 = DIRECTION ( 'NONE',  ( -0.000000000000000000, -0.000000000000000000, 1.000000000000000000 ) ) ;
#821 = VECTOR ( 'NONE', #470, 1000.000000000000000 ) ;
#822 = DIRECTION ( 'NONE',  ( 0.000000000000000000, 0.000000000000000000, 1.000000000000000000 ) ) ;
#823 = CALENDAR_DATE ( 2026, 28, 9 ) ;
#824 = EDGE_LOOP ( 'NONE', ( #442, #51, #29, #639 ) ) ;
#825 = CARTESIAN_POINT ( 'NONE',  ( 0.000000000000000000, 0.000000000000000000, 0.000000000000000000 ) ) ;
#826 = EDGE_CURVE ( 'NONE', #917, #276, #350, .T. ) ;
#827 = CYLINDRICAL_SURFACE ( 'NONE', #7, 1.700000000000000178 ) ;
#828 = COORDINATED_UNIVERSAL_TIME_OFFSET ( 6, 0, .BEHIND. ) ;
#829 = ORIENTED_EDGE ( 'NONE', *, *, #433, .T. ) ;
#830 = DIRECTION ( 'NONE',  ( 0.000000000000000000, 0.000000000000000000, -1.000000000000000000 ) ) ;
#831 = DIRECTION ( 'NONE',  ( 0.000000000000000000, 0.000000000000000000, 1.000000000000000000 ) ) ;
#832 = APPROVAL_DATE_TIME ( #551, #478 ) ;
#833 =( GEOMETRIC_REPRESENTATION_CONTEXT ( 3 ) GLOBAL_UNCERTAINTY_ASSIGNED_CONTEXT ( ( #540 ) ) GLOBAL_UNIT_ASSIGNED_CONTEXT ( ( #361, #284, #427 ) ) REPRESENTATION_CONTEXT ( 'NONE', 'WORKASPACE' ) );
#834 = AXIS2_PLACEMENT_3D ( 'NONE', #472, #822, #548 ) ;
#835 = DIRECTION ( 'NONE',  ( 0.000000000000000000, 0.000000000000000000, -1.000000000000000000 ) ) ;
#836 = ORIENTED_EDGE ( 'NONE', *, *, #458, .T. ) ;
#837 = DIRECTION ( 'NONE',  ( 0.000000000000000000, 0.000000000000000000, 1.000000000000000000 ) ) ;
#838 = CALENDAR_DATE ( 2026, 28, 9 ) ;
#839 = VECTOR ( 'NONE', #334, 1000.000000000000000 ) ;
#840 = EDGE_CURVE ( 'NONE', #269, #867, #586, .T. ) ;
#841 = DIRECTION ( 'NONE',  ( -1.000000000000000000, -0.000000000000000000, -0.000000000000000000 ) ) ;
#842 = DIRECTION ( 'NONE',  ( 1.000000000000000000, 0.000000000000000000, 0.000000000000000000 ) ) ;
#843 = LINE ( 'NONE', #771, #555 ) ;
#844 = EDGE_LOOP ( 'NONE', ( #455, #231, #926, #11 ) ) ;
#845 = PERSON ( 'UNSPECIFIED', 'UNSPECIFIED', 'UNSPECIFIED', ('UNSPECIFIED'), ('UNSPECIFIED'), ('UNSPECIFIED') ) ;
#846 = CARTESIAN_POINT ( 'NONE',  ( -20.80000000000000071, 2.081899558550500526E-16, 4.000000000000003553 ) ) ;
#847 = EDGE_CURVE ( 'NONE', #529, #23, #55, .T. ) ;
#848 = VERTEX_POINT ( 'NONE', #399 ) ;
#849 = CARTESIAN_POINT ( 'NONE',  ( 19.50000000000000000, 0.000000000000000000, 3.000000000000007105 ) ) ;
#850 = LINE ( 'NONE', #566, #249 ) ;
#851 = ORIENTED_EDGE ( 'NONE', *, *, #200, .F. ) ;
#852 = VECTOR ( 'NONE', #724, 1000.000000000000000 ) ;
#853 = CARTESIAN_POINT ( 'NONE',  ( 4.549999999999998934, 0.000000000000000000, 0.000000000000000000 ) ) ;
#854 = EDGE_LOOP ( 'NONE', ( #646, #100 ) ) ;
#855 = AXIS2_PLACEMENT_3D ( 'NONE', #618, #262, #549 ) ;
#856 = EDGE_CURVE ( 'NONE', #904, #578, #373, .T. ) ;
#857 = VERTEX_POINT ( 'NONE', #431 ) ;
#858 = DIRECTION ( 'NONE',  ( 0.000000000000000000, 0.000000000000000000, -1.000000000000000000 ) ) ;
#859 = EDGE_LOOP ( 'NONE', ( #524, #348, #779, #432 ) ) ;
#860 = CC_DESIGN_PERSON_AND_ORGANIZATION_ASSIGNMENT ( #750, #893, ( #183 ) ) ;
#861 = DIRECTION ( 'NONE',  ( -1.000000000000000000, 0.000000000000000000, 0.000000000000000000 ) ) ;
#862 = CARTESIAN_POINT ( 'NONE',  ( 22.50000000000000000, 0.000000000000000000, 4.000000000000003553 ) ) ;
#863 = AXIS2_PLACEMENT_3D ( 'NONE', #568, #212, #643 ) ;
#864 = AXIS2_PLACEMENT_3D ( 'NONE', #103, #235, #182 ) ;
#865 = CARTESIAN_POINT ( 'NONE',  ( -32.00000000000000000, -7.000000000000000000, 4.000000000000007105 ) ) ;
#866 = VECTOR ( 'NONE', #319, 1000.000000000000000 ) ;
#867 = VERTEX_POINT ( 'NONE', #786 ) ;
#868 = CARTESIAN_POINT ( 'NONE',  ( -22.50000000000000000, 0.000000000000000000, 3.000000000000007105 ) ) ;
#869 = ORIENTED_EDGE ( 'NONE', *, *, #293, .F. ) ;
#870 = VERTEX_POINT ( 'NONE', #141 ) ;
#871 = DIRECTION ( 'NONE',  ( 0.000000000000000000, 0.000000000000000000, -1.000000000000000000 ) ) ;
#872 = ADVANCED_FACE ( 'NONE', ( #576 ), #64, .F. ) ;
#873 = DIRECTION ( 'NONE',  ( -1.000000000000000000, 0.000000000000000000, 0.000000000000000000 ) ) ;
#874 = ORIENTED_EDGE ( 'NONE', *, *, #271, .F. ) ;
#875 = VERTEX_POINT ( 'NONE', #357 ) ;
#876 = FACE_OUTER_BOUND ( 'NONE', #745, .T. ) ;
#877 = DIRECTION ( 'NONE',  ( -0.000000000000000000, -0.000000000000000000, 1.000000000000000000 ) ) ;
#878 = AXIS2_PLACEMENT_3D ( 'NONE', #457, #88, #383 ) ;
#879 = ORIENTED_EDGE ( 'NONE', *, *, #637, .T. ) ;
#880 = ORIENTED_EDGE ( 'NONE', *, *, #656, .F. ) ;
#881 = AXIS2_PLACEMENT_3D ( 'NONE', #700, #619, #252 ) ;
#882 = DIRECTION ( 'NONE',  ( 0.000000000000000000, 0.000000000000000000, -1.000000000000000000 ) ) ;
#883 = EDGE_CURVE ( 'NONE', #364, #134, #892, .T. ) ;
#884 = ORIENTED_EDGE ( 'NONE', *, *, #624, .F. ) ;
#885 = VERTEX_POINT ( 'NONE', #584 ) ;
#886 = DIRECTION ( 'NONE',  ( 0.000000000000000000, 1.000000000000000000, 0.000000000000000000 ) ) ;
#887 = DIRECTION ( 'NONE',  ( 1.000000000000000000, 0.000000000000000000, 0.000000000000000000 ) ) ;
#888 = DIRECTION ( 'NONE',  ( 0.000000000000000000, 0.000000000000000000, -1.000000000000000000 ) ) ;
#889 = AXIS2_PLACEMENT_3D ( 'NONE', #91, #803, #456 ) ;
#890 = LINE ( 'NONE', #467, #866 ) ;
#891 = CARTESIAN_POINT ( 'NONE',  ( 10.45000000000000107, 3.612708057484693083E-16, 3.000000000000007105 ) ) ;
#892 = CIRCLE ( 'NONE', #863, 2.950000000000001066 ) ;
#893 = PERSON_AND_ORGANIZATION_ROLE ( 'design_supplier' ) ;
#894 = CARTESIAN_POINT ( 'NONE',  ( 20.80000000000000071, 0.000000000000000000, 4.000000000000003553 ) ) ;
#895 = EDGE_CURVE ( 'NONE', #529, #459, #81, .T. ) ;
#896 = CIRCLE ( 'NONE', #115, 0.7500000000000006661 ) ;
#897 = LINE ( 'NONE', #620, #68 ) ;
#898 = DIRECTION ( 'NONE',  ( -1.000000000000000000, 0.000000000000000000, -0.000000000000000000 ) ) ;
#899 = EDGE_CURVE ( 'NONE', #802, #139, #774, .T. ) ;
#900 = CARTESIAN_POINT ( 'NONE',  ( 5.799999999999999822, 0.000000000000000000, 4.000000000000003553 ) ) ;
#901 = APPROVAL_ROLE ( '' ) ;
#902 = EDGE_LOOP ( 'NONE', ( #450, #297, #42, #535 ) ) ;
#903 = CARTESIAN_POINT ( 'NONE',  ( -7.500000000000000000, 0.000000000000000000, 0.000000000000000000 ) ) ;
#904 = VERTEX_POINT ( 'NONE', #712 ) ;
#905 = ADVANCED_FACE ( 'NONE', ( #439, #273, #131, #60, #717, #435 ), #709, .F. ) ;
#906 = CARTESIAN_POINT ( 'NONE',  ( 19.50000000000000000, 0.000000000000000000, 0.000000000000000000 ) ) ;
#907 = DATE_AND_TIME ( #838, #554 ) ;
#908 = VECTOR ( 'NONE', #401, 1000.000000000000000 ) ;
#909 = LINE ( 'NONE', #35, #337 ) ;
#910 = VERTEX_POINT ( 'NONE', #853 ) ;
#911 = DIRECTION ( 'NONE',  ( -1.000000000000000000, 0.000000000000000000, 0.000000000000000000 ) ) ;
#912 = ORIENTED_EDGE ( 'NONE', *, *, #826, .T. ) ;
#913 = EDGE_CURVE ( 'NONE', #276, #917, #538, .T. ) ;
#914 = CARTESIAN_POINT ( 'NONE',  ( -10.40000000000000036, 0.000000000000000000, 0.000000000000000000 ) ) ;
#915 = ORIENTED_EDGE ( 'NONE', *, *, #899, .T. ) ;
#916 = DIRECTION ( 'NONE',  ( 0.000000000000000000, 0.000000000000000000, -1.000000000000000000 ) ) ;
#917 = VERTEX_POINT ( 'NONE', #208 ) ;
#918 = DIRECTION ( 'NONE',  ( 0.000000000000000000, 0.000000000000000000, -1.000000000000000000 ) ) ;
#919 = EDGE_LOOP ( 'NONE', ( #499, #623, #202, #380 ) ) ;
#920 = DIRECTION ( 'NONE',  ( 0.000000000000000000, 0.000000000000000000, 1.000000000000000000 ) ) ;
#921 = EDGE_LOOP ( 'NONE', ( #642, #384, #3, #63 ) ) ;
#922 = AXIS2_PLACEMENT_3D ( 'NONE', #679, #178, #509 ) ;
#923 = ORIENTED_EDGE ( 'NONE', *, *, #579, .T. ) ;
#924 = DIRECTION ( 'NONE',  ( 1.000000000000000000, 0.000000000000000000, 0.000000000000000000 ) ) ;
#925 = ADVANCED_FACE ( 'NONE', ( #722, #280 ), #443, .F. ) ;
#926 = ORIENTED_EDGE ( 'NONE', *, *, #796, .F. ) ;
#927 = VECTOR ( 'NONE', #763, 1000.000000000000000 ) ;
ENDSEC;
END-ISO-10303-21;
