ISO-10303-21;
HEADER;
FILE_DESCRIPTION (( 'STEP AP203' ),
    '1' );
FILE_NAME ('ARM-107_Dowel_to_608_adapter.step',
    '2026-09-13T02:58:10',
    ( '' ),
    ( '' ),
    'SwSTEP 2.0',
    'SolidWorks 2026',
    '' );
FILE_SCHEMA (( 'CONFIG_CONTROL_DESIGN' ));
ENDSEC;

DATA;
#1 = ORIENTED_EDGE ( 'NONE', *, *, #110, .F. ) ;
#2 = CARTESIAN_POINT ( 'NONE',  ( -3.990000000000000657, 0.000000000000000000, 0.000000000000000000 ) ) ;
#3 = DIRECTION ( 'NONE',  ( 0.000000000000000000, 0.000000000000000000, 1.000000000000000000 ) ) ;
#4 = FACE_OUTER_BOUND ( 'NONE', #132, .T. ) ;
#5 = DIRECTION ( 'NONE',  ( 0.000000000000000000, 0.000000000000000000, 1.000000000000000000 ) ) ;
#6 = EDGE_CURVE ( 'NONE', #99, #152, #168, .T. ) ;
#7 = CIRCLE ( 'NONE', #76, 3.990000000000000657 ) ;
#8 = AXIS2_PLACEMENT_3D ( 'NONE', #175, #3, #84 ) ;
#9 = APPROVAL_DATE_TIME ( #93, #26 ) ;
#10 = CALENDAR_DATE ( 2026, 12, 9 ) ;
#11 = AXIS2_PLACEMENT_3D ( 'NONE', #161, #234, #135 ) ;
#12 = CALENDAR_DATE ( 2026, 12, 9 ) ;
#13 = DIRECTION ( 'NONE',  ( 1.000000000000000000, 0.000000000000000000, -0.000000000000000000 ) ) ;
#14 = DIRECTION ( 'NONE',  ( 1.000000000000000000, 0.000000000000000000, 0.000000000000000000 ) ) ;
#15 = ADVANCED_BREP_SHAPE_REPRESENTATION ( 'ARM-107_Dowel_to_608_adapter', ( #61, #8 ), #214 ) ;
#16 = PRODUCT ( 'ARM-107_Dowel_to_608_adapter', 'ARM-107_Dowel_to_608_adapter', '', ( #49 ) ) ;
#17 = VERTEX_POINT ( 'NONE', #56 ) ;
#18 = ORIENTED_EDGE ( 'NONE', *, *, #118, .F. ) ;
#19 = CC_DESIGN_PERSON_AND_ORGANIZATION_ASSIGNMENT ( #124, #219, ( #16 ) ) ;
#20 = PLANE ( 'NONE',  #217 ) ;
#21 = CIRCLE ( 'NONE', #229, 3.225000000000000089 ) ;
#22 = LOCAL_TIME ( 21, 58, 10.00000000000000000, #73 ) ;
#23 =( LENGTH_UNIT ( ) NAMED_UNIT ( * ) SI_UNIT ( .MILLI., .METRE. ) );
#24 = CARTESIAN_POINT ( 'NONE',  ( 0.000000000000000000, 0.000000000000000000, 7.000000000000000000 ) ) ;
#25 = ADVANCED_FACE ( 'NONE', ( #146, #171 ), #231, .F. ) ;
#26 = APPROVAL ( #107, 'UNSPECIFIED' ) ;
#27 = CARTESIAN_POINT ( 'NONE',  ( 0.000000000000000000, 0.000000000000000000, 0.000000000000000000 ) ) ;
#28 = APPLICATION_PROTOCOL_DEFINITION ( 'international standard', 'config_control_design', 1994, #221 ) ;
#29 = EDGE_LOOP ( 'NONE', ( #210, #170, #131, #220 ) ) ;
#30 = SHAPE_DEFINITION_REPRESENTATION ( #225, #15 ) ;
#31 = SECURITY_CLASSIFICATION_LEVEL ( 'unclassified' ) ;
#32 = DATE_TIME_ROLE ( 'classification_date' ) ;
#33 = CLOSED_SHELL ( 'NONE', ( #241, #88, #87, #25, #154, #195 ) ) ;
#34 = CARTESIAN_POINT ( 'NONE',  ( 0.000000000000000000, 0.000000000000000000, 7.000000000000000000 ) ) ;
#35 = ORIENTED_EDGE ( 'NONE', *, *, #189, .T. ) ;
#36 = DIRECTION ( 'NONE',  ( 1.000000000000000000, 0.000000000000000000, -0.000000000000000000 ) ) ;
#37 = LOCAL_TIME ( 21, 58, 10.00000000000000000, #105 ) ;
#38 = EDGE_CURVE ( 'NONE', #74, #147, #89, .T. ) ;
#39 = DIRECTION ( 'NONE',  ( -0.000000000000000000, -0.000000000000000000, -1.000000000000000000 ) ) ;
#40 = CARTESIAN_POINT ( 'NONE',  ( 0.000000000000000000, 0.000000000000000000, 7.000000000000000000 ) ) ;
#41 = CC_DESIGN_DATE_AND_TIME_ASSIGNMENT ( #67, #32, ( #55 ) ) ;
#42 = EDGE_CURVE ( 'NONE', #152, #17, #78, .T. ) ;
#43 = CC_DESIGN_PERSON_AND_ORGANIZATION_ASSIGNMENT ( #109, #143, ( #206 ) ) ;
#44 = CARTESIAN_POINT ( 'NONE',  ( 0.000000000000000000, 0.000000000000000000, 7.000000000000000000 ) ) ;
#45 = DIRECTION ( 'NONE',  ( 0.000000000000000000, 0.000000000000000000, 1.000000000000000000 ) ) ;
#46 = DIRECTION ( 'NONE',  ( 1.000000000000000000, 0.000000000000000000, 0.000000000000000000 ) ) ;
#47 =( NAMED_UNIT ( * ) PLANE_ANGLE_UNIT ( ) SI_UNIT ( $, .RADIAN. ) );
#48 = APPROVAL_PERSON_ORGANIZATION ( #141, #248, #126 ) ;
#49 = MECHANICAL_CONTEXT ( 'NONE', #232, 'mechanical' ) ;
#50 = APPROVAL_ROLE ( '' ) ;
#51 = APPROVAL_DATE_TIME ( #164, #226 ) ;
#52 = APPROVAL_STATUS ( 'not_yet_approved' ) ;
#53 = EDGE_CURVE ( 'NONE', #184, #17, #128, .T. ) ;
#54 = VECTOR ( 'NONE', #39, 1000.000000000000000 ) ;
#55 = SECURITY_CLASSIFICATION ( '', '', #31 ) ;
#56 = CARTESIAN_POINT ( 'NONE',  ( 3.225000000000000089, 3.949485927250214346E-16, 0.000000000000000000 ) ) ;
#57 = ORIENTED_EDGE ( 'NONE', *, *, #38, .F. ) ;
#58 = EDGE_CURVE ( 'NONE', #185, #147, #95, .T. ) ;
#59 = ORIENTED_EDGE ( 'NONE', *, *, #118, .T. ) ;
#60 = DIRECTION ( 'NONE',  ( 0.000000000000000000, 0.000000000000000000, 1.000000000000000000 ) ) ;
#61 = MANIFOLD_SOLID_BREP ( 'Adapter_8OD_6p45ID', #33 ) ;
#62 = DIRECTION ( 'NONE',  ( 0.000000000000000000, 0.000000000000000000, 1.000000000000000000 ) ) ;
#63 = FACE_OUTER_BOUND ( 'NONE', #203, .T. ) ;
#64 = CARTESIAN_POINT ( 'NONE',  ( 3.990000000000000657, 4.886340728597940063E-16, 7.000000000000000000 ) ) ;
#65 = CARTESIAN_POINT ( 'NONE',  ( 0.000000000000000000, 0.000000000000000000, 7.000000000000000000 ) ) ;
#66 = LINE ( 'NONE', #194, #103 ) ;
#67 = DATE_AND_TIME ( #12, #113 ) ;
#68 = ORIENTED_EDGE ( 'NONE', *, *, #106, .F. ) ;
#69 = PERSON_AND_ORGANIZATION ( #207, #186 ) ;
#70 = DATE_TIME_ROLE ( 'creation_date' ) ;
#71 = PERSON_AND_ORGANIZATION_ROLE ( 'classification_officer' ) ;
#72 = CC_DESIGN_DATE_AND_TIME_ASSIGNMENT ( #142, #70, ( #178 ) ) ;
#73 = COORDINATED_UNIVERSAL_TIME_OFFSET ( 6, 0, .BEHIND. ) ;
#74 = VERTEX_POINT ( 'NONE', #183 ) ;
#75 = EDGE_LOOP ( 'NONE', ( #166, #68, #224, #133 ) ) ;
#76 = AXIS2_PLACEMENT_3D ( 'NONE', #40, #5, #46 ) ;
#77 = CARTESIAN_POINT ( 'NONE',  ( 0.000000000000000000, 0.000000000000000000, 7.000000000000000000 ) ) ;
#78 = LINE ( 'NONE', #249, #96 ) ;
#79 = ORIENTED_EDGE ( 'NONE', *, *, #42, .F. ) ;
#80 = DIRECTION ( 'NONE',  ( 0.000000000000000000, 0.000000000000000000, 1.000000000000000000 ) ) ;
#81 = APPROVAL_PERSON_ORGANIZATION ( #144, #26, #50 ) ;
#82 = DIRECTION ( 'NONE',  ( 0.000000000000000000, 0.000000000000000000, 1.000000000000000000 ) ) ;
#83 = APPLICATION_PROTOCOL_DEFINITION ( 'international standard', 'config_control_design', 1994, #232 ) ;
#84 = DIRECTION ( 'NONE',  ( 1.000000000000000000, 0.000000000000000000, 0.000000000000000000 ) ) ;
#85 = AXIS2_PLACEMENT_3D ( 'NONE', #204, #119, #14 ) ;
#86 = LOCAL_TIME ( 21, 58, 10.00000000000000000, #127 ) ;
#87 = ADVANCED_FACE ( 'NONE', ( #134, #115 ), #20, .T. ) ;
#88 = ADVANCED_FACE ( 'NONE', ( #94 ), #202, .T. ) ;
#89 = CIRCLE ( 'NONE', #237, 3.990000000000000657 ) ;
#90 = PERSON_AND_ORGANIZATION ( #207, #186 ) ;
#91 = CALENDAR_DATE ( 2026, 12, 9 ) ;
#92 = CIRCLE ( 'NONE', #240, 3.990000000000000657 ) ;
#93 = DATE_AND_TIME ( #199, #101 ) ;
#94 = FACE_OUTER_BOUND ( 'NONE', #29, .T. ) ;
#95 = LINE ( 'NONE', #98, #54 ) ;
#96 = VECTOR ( 'NONE', #130, 1000.000000000000000 ) ;
#97 = CARTESIAN_POINT ( 'NONE',  ( 0.000000000000000000, 0.000000000000000000, 7.000000000000000000 ) ) ;
#98 = CARTESIAN_POINT ( 'NONE',  ( -3.990000000000000657, 0.000000000000000000, 7.000000000000000000 ) ) ;
#99 = VERTEX_POINT ( 'NONE', #236 ) ;
#100 = DIRECTION ( 'NONE',  ( -0.000000000000000000, -0.000000000000000000, -1.000000000000000000 ) ) ;
#101 = LOCAL_TIME ( 21, 58, 10.00000000000000000, #239 ) ;
#102 = LINE ( 'NONE', #122, #191 ) ;
#103 = VECTOR ( 'NONE', #123, 1000.000000000000000 ) ;
#104 = CARTESIAN_POINT ( 'NONE',  ( 0.000000000000000000, 0.000000000000000000, 7.000000000000000000 ) ) ;
#105 = COORDINATED_UNIVERSAL_TIME_OFFSET ( 6, 0, .BEHIND. ) ;
#106 = EDGE_CURVE ( 'NONE', #185, #180, #7, .T. ) ;
#107 = APPROVAL_STATUS ( 'not_yet_approved' ) ;
#108 = CIRCLE ( 'NONE', #205, 3.225000000000000089 ) ;
#109 = PERSON_AND_ORGANIZATION ( #207, #186 ) ;
#110 = EDGE_CURVE ( 'NONE', #99, #184, #102, .T. ) ;
#111 = PERSON_AND_ORGANIZATION_ROLE ( 'design_supplier' ) ;
#112 = CIRCLE ( 'NONE', #245, 3.990000000000000657 ) ;
#113 = LOCAL_TIME ( 21, 58, 10.00000000000000000, #197 ) ;
#114 = ORIENTED_EDGE ( 'NONE', *, *, #160, .T. ) ;
#115 = FACE_BOUND ( 'NONE', #187, .T. ) ;
#116 = ORIENTED_EDGE ( 'NONE', *, *, #149, .F. ) ;
#117 = EDGE_LOOP ( 'NONE', ( #228, #59 ) ) ;
#118 = EDGE_CURVE ( 'NONE', #17, #184, #108, .T. ) ;
#119 = DIRECTION ( 'NONE',  ( 0.000000000000000000, 0.000000000000000000, 1.000000000000000000 ) ) ;
#120 = DIRECTION ( 'NONE',  ( 1.000000000000000000, 0.000000000000000000, 0.000000000000000000 ) ) ;
#121 = DIRECTION ( 'NONE',  ( -1.000000000000000000, 0.000000000000000000, 0.000000000000000000 ) ) ;
#122 = CARTESIAN_POINT ( 'NONE',  ( -3.225000000000000089, 0.000000000000000000, 7.000000000000000000 ) ) ;
#123 = DIRECTION ( 'NONE',  ( -0.000000000000000000, -0.000000000000000000, -1.000000000000000000 ) ) ;
#124 = PERSON_AND_ORGANIZATION ( #207, #186 ) ;
#125 = APPROVAL_ROLE ( '' ) ;
#126 = APPROVAL_ROLE ( '' ) ;
#127 = COORDINATED_UNIVERSAL_TIME_OFFSET ( 6, 0, .BEHIND. ) ;
#128 = CIRCLE ( 'NONE', #85, 3.225000000000000089 ) ;
#129 = AXIS2_PLACEMENT_3D ( 'NONE', #65, #100, #177 ) ;
#130 = DIRECTION ( 'NONE',  ( -0.000000000000000000, -0.000000000000000000, -1.000000000000000000 ) ) ;
#131 = ORIENTED_EDGE ( 'NONE', *, *, #38, .T. ) ;
#132 = EDGE_LOOP ( 'NONE', ( #145, #148, #165, #1 ) ) ;
#133 = ORIENTED_EDGE ( 'NONE', *, *, #149, .T. ) ;
#134 = FACE_OUTER_BOUND ( 'NONE', #150, .T. ) ;
#135 = DIRECTION ( 'NONE',  ( -1.000000000000000000, 0.000000000000000000, 0.000000000000000000 ) ) ;
#136 = CC_DESIGN_APPROVAL ( #226, ( #55 ) ) ;
#137 = DIRECTION ( 'NONE',  ( 0.000000000000000000, 0.000000000000000000, 1.000000000000000000 ) ) ;
#138 = DIRECTION ( 'NONE',  ( -0.000000000000000000, -0.000000000000000000, -1.000000000000000000 ) ) ;
#139 = EDGE_CURVE ( 'NONE', #180, #74, #66, .T. ) ;
#140 = CARTESIAN_POINT ( 'NONE',  ( 3.225000000000000089, 3.949485927250214346E-16, 7.000000000000000000 ) ) ;
#141 = PERSON_AND_ORGANIZATION ( #207, #186 ) ;
#142 = DATE_AND_TIME ( #91, #22 ) ;
#143 = PERSON_AND_ORGANIZATION_ROLE ( 'creator' ) ;
#144 = PERSON_AND_ORGANIZATION ( #207, #186 ) ;
#145 = ORIENTED_EDGE ( 'NONE', *, *, #6, .T. ) ;
#146 = FACE_OUTER_BOUND ( 'NONE', #238, .T. ) ;
#147 = VERTEX_POINT ( 'NONE', #2 ) ;
#148 = ORIENTED_EDGE ( 'NONE', *, *, #42, .T. ) ;
#149 = EDGE_CURVE ( 'NONE', #147, #74, #92, .T. ) ;
#150 = EDGE_LOOP ( 'NONE', ( #227, #114 ) ) ;
#151 = AXIS2_PLACEMENT_3D ( 'NONE', #24, #192, #121 ) ;
#152 = VERTEX_POINT ( 'NONE', #140 ) ;
#153 = DIRECTION ( 'NONE',  ( -1.000000000000000000, 0.000000000000000000, 0.000000000000000000 ) ) ;
#154 = ADVANCED_FACE ( 'NONE', ( #196 ), #155, .T. ) ;
#155 = CYLINDRICAL_SURFACE ( 'NONE', #11, 3.990000000000000657 ) ;
#156 = DESIGN_CONTEXT ( 'detailed design', #221, 'design' ) ;
#157 = PRODUCT_RELATED_PRODUCT_CATEGORY ( 'detail', '', ( #16 ) ) ;
#158 = DIRECTION ( 'NONE',  ( 0.000000000000000000, 0.000000000000000000, 1.000000000000000000 ) ) ;
#159 = CARTESIAN_POINT ( 'NONE',  ( -3.990000000000000657, 0.000000000000000000, 7.000000000000000000 ) ) ;
#160 = EDGE_CURVE ( 'NONE', #180, #185, #112, .T. ) ;
#161 = CARTESIAN_POINT ( 'NONE',  ( 0.000000000000000000, 0.000000000000000000, 7.000000000000000000 ) ) ;
#162 = CC_DESIGN_APPROVAL ( #26, ( #206 ) ) ;
#163 = DATE_AND_TIME ( #218, #86 ) ;
#164 = DATE_AND_TIME ( #10, #37 ) ;
#165 = ORIENTED_EDGE ( 'NONE', *, *, #53, .F. ) ;
#166 = ORIENTED_EDGE ( 'NONE', *, *, #139, .F. ) ;
#167 = ORIENTED_EDGE ( 'NONE', *, *, #6, .F. ) ;
#168 = CIRCLE ( 'NONE', #176, 3.225000000000000089 ) ;
#169 = CARTESIAN_POINT ( 'NONE',  ( 0.000000000000000000, 0.000000000000000000, 0.000000000000000000 ) ) ;
#170 = ORIENTED_EDGE ( 'NONE', *, *, #139, .T. ) ;
#171 = FACE_BOUND ( 'NONE', #117, .T. ) ;
#172 = AXIS2_PLACEMENT_3D ( 'NONE', #208, #80, #36 ) ;
#173 = DIRECTION ( 'NONE',  ( 1.000000000000000000, 0.000000000000000000, 0.000000000000000000 ) ) ;
#174 = CARTESIAN_POINT ( 'NONE',  ( 0.000000000000000000, 0.000000000000000000, 0.000000000000000000 ) ) ;
#175 = CARTESIAN_POINT ( 'NONE',  ( 0.000000000000000000, 0.000000000000000000, 0.000000000000000000 ) ) ;
#176 = AXIS2_PLACEMENT_3D ( 'NONE', #97, #60, #242 ) ;
#177 = DIRECTION ( 'NONE',  ( -1.000000000000000000, 0.000000000000000000, 0.000000000000000000 ) ) ;
#178 = PRODUCT_DEFINITION ( 'UNKNOWN', '', #206, #156 ) ;
#179 = PERSON_AND_ORGANIZATION ( #207, #186 ) ;
#180 = VERTEX_POINT ( 'NONE', #64 ) ;
#181 = APPROVAL_STATUS ( 'not_yet_approved' ) ;
#182 = CC_DESIGN_SECURITY_CLASSIFICATION ( #55, ( #206 ) ) ;
#183 = CARTESIAN_POINT ( 'NONE',  ( 3.990000000000000657, 4.886340728597940063E-16, 0.000000000000000000 ) ) ;
#184 = VERTEX_POINT ( 'NONE', #211 ) ;
#185 = VERTEX_POINT ( 'NONE', #159 ) ;
#186 = ORGANIZATION ( 'UNSPECIFIED', 'UNSPECIFIED', '' ) ;
#187 = EDGE_LOOP ( 'NONE', ( #167, #188 ) ) ;
#188 = ORIENTED_EDGE ( 'NONE', *, *, #189, .F. ) ;
#189 = EDGE_CURVE ( 'NONE', #152, #99, #21, .T. ) ;
#190 =( NAMED_UNIT ( * ) SI_UNIT ( $, .STERADIAN. ) SOLID_ANGLE_UNIT ( ) );
#191 = VECTOR ( 'NONE', #212, 1000.000000000000000 ) ;
#192 = DIRECTION ( 'NONE',  ( -0.000000000000000000, -0.000000000000000000, -1.000000000000000000 ) ) ;
#193 = CYLINDRICAL_SURFACE ( 'NONE', #129, 3.225000000000000089 ) ;
#194 = CARTESIAN_POINT ( 'NONE',  ( 3.990000000000000657, 4.886340728597940063E-16, 7.000000000000000000 ) ) ;
#195 = ADVANCED_FACE ( 'NONE', ( #63 ), #213, .F. ) ;
#196 = FACE_OUTER_BOUND ( 'NONE', #75, .T. ) ;
#197 = COORDINATED_UNIVERSAL_TIME_OFFSET ( 6, 0, .BEHIND. ) ;
#198 = CC_DESIGN_APPROVAL ( #248, ( #178 ) ) ;
#199 = CALENDAR_DATE ( 2026, 12, 9 ) ;
#200 = CC_DESIGN_PERSON_AND_ORGANIZATION_ASSIGNMENT ( #69, #216, ( #178 ) ) ;
#201 = APPROVAL_DATE_TIME ( #163, #248 ) ;
#202 = CYLINDRICAL_SURFACE ( 'NONE', #223, 3.990000000000000657 ) ;
#203 = EDGE_LOOP ( 'NONE', ( #79, #35, #244, #18 ) ) ;
#204 = CARTESIAN_POINT ( 'NONE',  ( 0.000000000000000000, 0.000000000000000000, 0.000000000000000000 ) ) ;
#205 = AXIS2_PLACEMENT_3D ( 'NONE', #27, #158, #173 ) ;
#206 = PRODUCT_DEFINITION_FORMATION_WITH_SPECIFIED_SOURCE ( 'ANY', '', #16, .NOT_KNOWN. ) ;
#207 = PERSON ( 'UNSPECIFIED', 'UNSPECIFIED', 'UNSPECIFIED', ('UNSPECIFIED'), ('UNSPECIFIED'), ('UNSPECIFIED') ) ;
#208 = CARTESIAN_POINT ( 'NONE',  ( 0.000000000000000000, 0.000000000000000000, 0.000000000000000000 ) ) ;
#209 = CC_DESIGN_PERSON_AND_ORGANIZATION_ASSIGNMENT ( #90, #111, ( #206 ) ) ;
#210 = ORIENTED_EDGE ( 'NONE', *, *, #160, .F. ) ;
#211 = CARTESIAN_POINT ( 'NONE',  ( -3.225000000000000089, 0.000000000000000000, 0.000000000000000000 ) ) ;
#212 = DIRECTION ( 'NONE',  ( -0.000000000000000000, -0.000000000000000000, -1.000000000000000000 ) ) ;
#213 = CYLINDRICAL_SURFACE ( 'NONE', #151, 3.225000000000000089 ) ;
#214 =( GEOMETRIC_REPRESENTATION_CONTEXT ( 3 ) GLOBAL_UNCERTAINTY_ASSIGNED_CONTEXT ( ( #247 ) ) GLOBAL_UNIT_ASSIGNED_CONTEXT ( ( #23, #47, #190 ) ) REPRESENTATION_CONTEXT ( 'NONE', 'WORKASPACE' ) );
#215 = PERSON_AND_ORGANIZATION ( #207, #186 ) ;
#216 = PERSON_AND_ORGANIZATION_ROLE ( 'creator' ) ;
#217 = AXIS2_PLACEMENT_3D ( 'NONE', #34, #62, #13 ) ;
#218 = CALENDAR_DATE ( 2026, 12, 9 ) ;
#219 = PERSON_AND_ORGANIZATION_ROLE ( 'design_owner' ) ;
#220 = ORIENTED_EDGE ( 'NONE', *, *, #58, .F. ) ;
#221 = APPLICATION_CONTEXT ( 'configuration controlled 3d designs of mechanical parts and assemblies' ) ;
#222 = DIRECTION ( 'NONE',  ( 1.000000000000000000, 0.000000000000000000, 0.000000000000000000 ) ) ;
#223 = AXIS2_PLACEMENT_3D ( 'NONE', #77, #138, #153 ) ;
#224 = ORIENTED_EDGE ( 'NONE', *, *, #58, .T. ) ;
#225 = PRODUCT_DEFINITION_SHAPE ( 'NONE', 'NONE',  #178 ) ;
#226 = APPROVAL ( #181, 'UNSPECIFIED' ) ;
#227 = ORIENTED_EDGE ( 'NONE', *, *, #106, .T. ) ;
#228 = ORIENTED_EDGE ( 'NONE', *, *, #53, .T. ) ;
#229 = AXIS2_PLACEMENT_3D ( 'NONE', #44, #137, #235 ) ;
#230 = APPROVAL_PERSON_ORGANIZATION ( #179, #226, #125 ) ;
#231 = PLANE ( 'NONE',  #172 ) ;
#232 = APPLICATION_CONTEXT ( 'configuration controlled 3d designs of mechanical parts and assemblies' ) ;
#233 = DIRECTION ( 'NONE',  ( 1.000000000000000000, 0.000000000000000000, 0.000000000000000000 ) ) ;
#234 = DIRECTION ( 'NONE',  ( -0.000000000000000000, -0.000000000000000000, -1.000000000000000000 ) ) ;
#235 = DIRECTION ( 'NONE',  ( 1.000000000000000000, 0.000000000000000000, 0.000000000000000000 ) ) ;
#236 = CARTESIAN_POINT ( 'NONE',  ( -3.225000000000000089, 0.000000000000000000, 7.000000000000000000 ) ) ;
#237 = AXIS2_PLACEMENT_3D ( 'NONE', #169, #246, #222 ) ;
#238 = EDGE_LOOP ( 'NONE', ( #116, #57 ) ) ;
#239 = COORDINATED_UNIVERSAL_TIME_OFFSET ( 6, 0, .BEHIND. ) ;
#240 = AXIS2_PLACEMENT_3D ( 'NONE', #174, #45, #120 ) ;
#241 = ADVANCED_FACE ( 'NONE', ( #4 ), #193, .F. ) ;
#242 = DIRECTION ( 'NONE',  ( 1.000000000000000000, 0.000000000000000000, 0.000000000000000000 ) ) ;
#243 = CC_DESIGN_PERSON_AND_ORGANIZATION_ASSIGNMENT ( #215, #71, ( #55 ) ) ;
#244 = ORIENTED_EDGE ( 'NONE', *, *, #110, .T. ) ;
#245 = AXIS2_PLACEMENT_3D ( 'NONE', #104, #82, #233 ) ;
#246 = DIRECTION ( 'NONE',  ( 0.000000000000000000, 0.000000000000000000, 1.000000000000000000 ) ) ;
#247 = UNCERTAINTY_MEASURE_WITH_UNIT (LENGTH_MEASURE( 1.000000000000000082E-05 ), #23, 'distance_accuracy_value', 'NONE');
#248 = APPROVAL ( #52, 'UNSPECIFIED' ) ;
#249 = CARTESIAN_POINT ( 'NONE',  ( 3.225000000000000089, 3.949485927250214346E-16, 7.000000000000000000 ) ) ;
ENDSEC;
END-ISO-10303-21;
