ISO-10303-21;
HEADER;
FILE_DESCRIPTION (( 'STEP AP203' ),
    '1' );
FILE_NAME ('ARM-109_Bearing_and_dowel_keeper.step',
    '2026-09-13T02:58:20',
    ( '' ),
    ( '' ),
    'SwSTEP 2.0',
    'SolidWorks 2026',
    '' );
FILE_SCHEMA (( 'CONFIG_CONTROL_DESIGN' ));
ENDSEC;

DATA;
#1 = LINE ( 'NONE', #48, #201 ) ;
#2 = VERTEX_POINT ( 'NONE', #236 ) ;
#3 = AXIS2_PLACEMENT_3D ( 'NONE', #579, #100, #312 ) ;
#4 = CIRCLE ( 'NONE', #407, 11.19999999999999929 ) ;
#5 = EDGE_LOOP ( 'NONE', ( #560, #580 ) ) ;
#6 = ADVANCED_FACE ( 'NONE', ( #569 ), #185, .F. ) ;
#7 = CARTESIAN_POINT ( 'NONE',  ( 0.000000000000000000, 0.000000000000000000, 2.000000000000000000 ) ) ;
#8 = ORIENTED_EDGE ( 'NONE', *, *, #448, .F. ) ;
#9 = EDGE_CURVE ( 'NONE', #353, #333, #124, .T. ) ;
#10 = ORIENTED_EDGE ( 'NONE', *, *, #318, .T. ) ;
#11 = AXIS2_PLACEMENT_3D ( 'NONE', #121, #515, #469 ) ;
#12 = ORGANIZATION ( 'UNSPECIFIED', 'UNSPECIFIED', '' ) ;
#13 = CARTESIAN_POINT ( 'NONE',  ( 0.000000000000000000, 0.000000000000000000, 0.000000000000000000 ) ) ;
#14 =( GEOMETRIC_REPRESENTATION_CONTEXT ( 3 ) GLOBAL_UNCERTAINTY_ASSIGNED_CONTEXT ( ( #199 ) ) GLOBAL_UNIT_ASSIGNED_CONTEXT ( ( #499, #102, #209 ) ) REPRESENTATION_CONTEXT ( 'NONE', 'WORKASPACE' ) );
#15 = EDGE_LOOP ( 'NONE', ( #451, #309, #192, #94 ) ) ;
#16 = CARTESIAN_POINT ( 'NONE',  ( 1.100000000000000089, -14.00000000000000000, -0.2000000000000005107 ) ) ;
#17 = ADVANCED_FACE ( 'NONE', ( #424 ), #330, .T. ) ;
#18 = EDGE_LOOP ( 'NONE', ( #480, #262 ) ) ;
#19 = SECURITY_CLASSIFICATION_LEVEL ( 'unclassified' ) ;
#20 = CARTESIAN_POINT ( 'NONE',  ( 0.000000000000000000, 14.00000000000000000, 11.99999999999999645 ) ) ;
#21 = VERTEX_POINT ( 'NONE', #182 ) ;
#22 = CARTESIAN_POINT ( 'NONE',  ( 0.000000000000000000, 0.000000000000000000, 2.000000000000000000 ) ) ;
#23 = CC_DESIGN_APPROVAL ( #334, ( #63 ) ) ;
#24 = ORIENTED_EDGE ( 'NONE', *, *, #231, .T. ) ;
#25 = EDGE_CURVE ( 'NONE', #600, #152, #315, .T. ) ;
#26 = LINE ( 'NONE', #228, #56 ) ;
#27 = ORIENTED_EDGE ( 'NONE', *, *, #356, .T. ) ;
#28 = CARTESIAN_POINT ( 'NONE',  ( 0.000000000000000000, 14.00000000000000000, 2.000000000000000000 ) ) ;
#29 = EDGE_CURVE ( 'NONE', #603, #483, #544, .T. ) ;
#30 = ORIENTED_EDGE ( 'NONE', *, *, #348, .F. ) ;
#31 = FACE_OUTER_BOUND ( 'NONE', #5, .T. ) ;
#32 = CIRCLE ( 'NONE', #475, 7.000000000000000000 ) ;
#33 = CIRCLE ( 'NONE', #147, 1.100000000000000089 ) ;
#34 = ORIENTED_EDGE ( 'NONE', *, *, #181, .T. ) ;
#35 = DIRECTION ( 'NONE',  ( -1.000000000000000000, 0.000000000000000000, 0.000000000000000000 ) ) ;
#36 = EDGE_CURVE ( 'NONE', #117, #45, #223, .T. ) ;
#37 = VERTEX_POINT ( 'NONE', #175 ) ;
#38 = LINE ( 'NONE', #83, #339 ) ;
#39 = LINE ( 'NONE', #442, #378 ) ;
#40 = ORIENTED_EDGE ( 'NONE', *, *, #210, .T. ) ;
#41 = CARTESIAN_POINT ( 'NONE',  ( 0.000000000000000000, 0.000000000000000000, -0.2000000000000000111 ) ) ;
#42 = DIRECTION ( 'NONE',  ( 1.000000000000000000, 0.000000000000000000, 0.000000000000000000 ) ) ;
#43 = AXIS2_PLACEMENT_3D ( 'NONE', #417, #566, #227 ) ;
#44 = AXIS2_PLACEMENT_3D ( 'NONE', #79, #280, #627 ) ;
#45 = VERTEX_POINT ( 'NONE', #471 ) ;
#46 = EDGE_CURVE ( 'NONE', #298, #148, #367, .T. ) ;
#47 = APPLICATION_PROTOCOL_DEFINITION ( 'international standard', 'config_control_design', 1994, #249 ) ;
#48 = CARTESIAN_POINT ( 'NONE',  ( 12.90000000000000036, 0.000000000000000000, 11.99999999999999645 ) ) ;
#49 = FACE_OUTER_BOUND ( 'NONE', #494, .T. ) ;
#50 = DIRECTION ( 'NONE',  ( -0.000000000000000000, -0.000000000000000000, -1.000000000000000000 ) ) ;
#51 = ORIENTED_EDGE ( 'NONE', *, *, #93, .T. ) ;
#52 = PRODUCT_DEFINITION_SHAPE ( 'NONE', 'NONE',  #410 ) ;
#53 = CARTESIAN_POINT ( 'NONE',  ( 15.10000000000000142, 1.347111479062088750E-16, 2.000000000000000000 ) ) ;
#54 = ADVANCED_FACE ( 'NONE', ( #622 ), #523, .T. ) ;
#55 = VERTEX_POINT ( 'NONE', #130 ) ;
#56 = VECTOR ( 'NONE', #561, 1000.000000000000000 ) ;
#57 = DIRECTION ( 'NONE',  ( 0.000000000000000000, 0.000000000000000000, -1.000000000000000000 ) ) ;
#58 = ORIENTED_EDGE ( 'NONE', *, *, #25, .T. ) ;
#59 = ADVANCED_FACE ( 'NONE', ( #430 ), #87, .F. ) ;
#60 = ORIENTED_EDGE ( 'NONE', *, *, #252, .F. ) ;
#61 = DIRECTION ( 'NONE',  ( 0.000000000000000000, 0.000000000000000000, 1.000000000000000000 ) ) ;
#62 = EDGE_LOOP ( 'NONE', ( #113, #439, #360, #347 ) ) ;
#63 = SECURITY_CLASSIFICATION ( '', '', #19 ) ;
#64 = CARTESIAN_POINT ( 'NONE',  ( 0.000000000000000000, 0.000000000000000000, 2.000000000000000000 ) ) ;
#65 = CC_DESIGN_PERSON_AND_ORGANIZATION_ASSIGNMENT ( #553, #67, ( #63 ) ) ;
#66 = ORIENTED_EDGE ( 'NONE', *, *, #263, .T. ) ;
#67 = PERSON_AND_ORGANIZATION_ROLE ( 'classification_officer' ) ;
#68 = CARTESIAN_POINT ( 'NONE',  ( 1.100000000000000089, -14.00000000000000000, 2.000000000000000000 ) ) ;
#69 = EDGE_LOOP ( 'NONE', ( #341, #532, #196, #159 ) ) ;
#70 = CARTESIAN_POINT ( 'NONE',  ( 0.000000000000000000, -14.00000000000000000, 2.000000000000000000 ) ) ;
#71 = DESIGN_CONTEXT ( 'detailed design', #249, 'design' ) ;
#72 = EDGE_CURVE ( 'NONE', #250, #474, #535, .T. ) ;
#73 = DIRECTION ( 'NONE',  ( 0.000000000000000000, 0.000000000000000000, 1.000000000000000000 ) ) ;
#74 = CARTESIAN_POINT ( 'NONE',  ( 0.000000000000000000, 0.000000000000000000, 2.000000000000000000 ) ) ;
#75 = AXIS2_PLACEMENT_3D ( 'NONE', #636, #628, #584 ) ;
#76 = VECTOR ( 'NONE', #242, 1000.000000000000000 ) ;
#77 = ORIENTED_EDGE ( 'NONE', *, *, #143, .F. ) ;
#78 = APPROVAL ( #404, 'UNSPECIFIED' ) ;
#79 = CARTESIAN_POINT ( 'NONE',  ( 14.00000000000000000, 0.000000000000000000, -0.2000000000000005107 ) ) ;
#80 = CARTESIAN_POINT ( 'NONE',  ( 0.000000000000000000, 14.00000000000000000, 2.000000000000000000 ) ) ;
#81 = CARTESIAN_POINT ( 'NONE',  ( 7.000000000000000000, 8.572527594031473190E-16, 9.000000000000000000 ) ) ;
#82 = VERTEX_POINT ( 'NONE', #191 ) ;
#83 = CARTESIAN_POINT ( 'NONE',  ( 1.100000000000000089, 14.00000000000000000, 11.99999999999999645 ) ) ;
#84 = ADVANCED_FACE ( 'NONE', ( #142 ), #240, .F. ) ;
#85 = AXIS2_PLACEMENT_3D ( 'NONE', #92, #299, #488 ) ;
#86 = APPROVAL_PERSON_ORGANIZATION ( #403, #504, #311 ) ;
#87 = CYLINDRICAL_SURFACE ( 'NONE', #555, 7.000000000000000000 ) ;
#88 = LINE ( 'NONE', #429, #317 ) ;
#89 = DIRECTION ( 'NONE',  ( 0.000000000000000000, 0.000000000000000000, 1.000000000000000000 ) ) ;
#90 = EDGE_LOOP ( 'NONE', ( #140, #60, #466, #542 ) ) ;
#91 = DIRECTION ( 'NONE',  ( 1.000000000000000000, 0.000000000000000000, 0.000000000000000000 ) ) ;
#92 = CARTESIAN_POINT ( 'NONE',  ( 14.00000000000000000, 0.000000000000000000, 2.000000000000000000 ) ) ;
#93 = EDGE_CURVE ( 'NONE', #266, #552, #32, .T. ) ;
#94 = ORIENTED_EDGE ( 'NONE', *, *, #453, .T. ) ;
#95 = FACE_BOUND ( 'NONE', #101, .T. ) ;
#96 = AXIS2_PLACEMENT_3D ( 'NONE', #22, #468, #226 ) ;
#97 = CARTESIAN_POINT ( 'NONE',  ( 0.000000000000000000, 0.000000000000000000, 12.00000000000000000 ) ) ;
#98 = CC_DESIGN_APPROVAL ( #504, ( #135 ) ) ;
#99 = DIRECTION ( 'NONE',  ( 1.000000000000000000, 0.000000000000000000, 0.000000000000000000 ) ) ;
#100 = DIRECTION ( 'NONE',  ( -0.000000000000000000, -0.000000000000000000, -1.000000000000000000 ) ) ;
#101 = EDGE_LOOP ( 'NONE', ( #24, #105 ) ) ;
#102 =( NAMED_UNIT ( * ) PLANE_ANGLE_UNIT ( ) SI_UNIT ( $, .RADIAN. ) );
#103 = ORIENTED_EDGE ( 'NONE', *, *, #36, .F. ) ;
#104 = PRODUCT ( 'ARM-109_Bearing_and_dowel_keeper', 'ARM-109_Bearing_and_dowel_keeper', '', ( #344 ) ) ;
#105 = ORIENTED_EDGE ( 'NONE', *, *, #310, .T. ) ;
#106 = CIRCLE ( 'NONE', #629, 9.000000000000000000 ) ;
#107 = VECTOR ( 'NONE', #207, 1000.000000000000000 ) ;
#108 = CARTESIAN_POINT ( 'NONE',  ( -17.00000000000000000, 0.000000000000000000, 2.000000000000000000 ) ) ;
#109 = ORIENTED_EDGE ( 'NONE', *, *, #29, .F. ) ;
#110 = DIRECTION ( 'NONE',  ( 1.000000000000000000, 0.000000000000000000, 0.000000000000000000 ) ) ;
#111 = EDGE_LOOP ( 'NONE', ( #258, #377, #557, #208 ) ) ;
#112 = FACE_OUTER_BOUND ( 'NONE', #477, .T. ) ;
#113 = ORIENTED_EDGE ( 'NONE', *, *, #449, .F. ) ;
#114 = CIRCLE ( 'NONE', #284, 7.000000000000000000 ) ;
#115 = CALENDAR_DATE ( 2026, 12, 9 ) ;
#116 = DIRECTION ( 'NONE',  ( -1.000000000000000000, 0.000000000000000000, 0.000000000000000000 ) ) ;
#117 = VERTEX_POINT ( 'NONE', #202 ) ;
#118 = PERSON_AND_ORGANIZATION_ROLE ( 'creator' ) ;
#119 = CARTESIAN_POINT ( 'NONE',  ( 7.000000000000000000, 8.572527594031473190E-16, 0.000000000000000000 ) ) ;
#120 = EDGE_CURVE ( 'NONE', #37, #82, #502, .T. ) ;
#121 = CARTESIAN_POINT ( 'NONE',  ( 14.00000000000000000, 0.000000000000000000, 2.000000000000000000 ) ) ;
#122 = DIRECTION ( 'NONE',  ( -0.000000000000000000, -0.000000000000000000, -1.000000000000000000 ) ) ;
#123 = EDGE_CURVE ( 'NONE', #152, #483, #1, .T. ) ;
#124 = LINE ( 'NONE', #279, #189 ) ;
#125 = CARTESIAN_POINT ( 'NONE',  ( 17.00000000000000000, 2.081899558550500280E-15, 2.000000000000000000 ) ) ;
#126 = VECTOR ( 'NONE', #136, 1000.000000000000000 ) ;
#127 = VECTOR ( 'NONE', #617, 1000.000000000000000 ) ;
#128 = DIRECTION ( 'NONE',  ( 0.000000000000000000, 0.000000000000000000, -1.000000000000000000 ) ) ;
#129 = DIRECTION ( 'NONE',  ( 0.000000000000000000, 0.000000000000000000, -1.000000000000000000 ) ) ;
#130 = CARTESIAN_POINT ( 'NONE',  ( 9.000000000000000000, 1.102182119232617714E-15, 2.000000000000000000 ) ) ;
#131 = FACE_BOUND ( 'NONE', #220, .T. ) ;
#132 = DIRECTION ( 'NONE',  ( 1.000000000000000000, 0.000000000000000000, -0.000000000000000000 ) ) ;
#133 = FACE_BOUND ( 'NONE', #313, .T. ) ;
#134 = CIRCLE ( 'NONE', #85, 1.100000000000000311 ) ;
#135 = PRODUCT_DEFINITION_FORMATION_WITH_SPECIFIED_SOURCE ( 'ANY', '', #104, .NOT_KNOWN. ) ;
#136 = DIRECTION ( 'NONE',  ( -0.000000000000000000, -0.000000000000000000, -1.000000000000000000 ) ) ;
#137 = EDGE_LOOP ( 'NONE', ( #316, #534, #498, #326 ) ) ;
#138 = DIRECTION ( 'NONE',  ( 0.000000000000000000, 0.000000000000000000, 1.000000000000000000 ) ) ;
#139 = CYLINDRICAL_SURFACE ( 'NONE', #506, 17.00000000000000000 ) ;
#140 = ORIENTED_EDGE ( 'NONE', *, *, #9, .F. ) ;
#141 = CARTESIAN_POINT ( 'NONE',  ( 0.000000000000000000, -14.00000000000000000, 11.99999999999999645 ) ) ;
#142 = FACE_OUTER_BOUND ( 'NONE', #406, .T. ) ;
#143 = EDGE_CURVE ( 'NONE', #552, #266, #114, .T. ) ;
#144 = ORIENTED_EDGE ( 'NONE', *, *, #153, .F. ) ;
#145 = APPLICATION_CONTEXT ( 'configuration controlled 3d designs of mechanical parts and assemblies' ) ;
#146 = DIRECTION ( 'NONE',  ( 0.000000000000000000, 0.000000000000000000, 1.000000000000000000 ) ) ;
#147 = AXIS2_PLACEMENT_3D ( 'NONE', #272, #461, #559 ) ;
#148 = VERTEX_POINT ( 'NONE', #479 ) ;
#149 = DATE_AND_TIME ( #495, #418 ) ;
#150 = CARTESIAN_POINT ( 'NONE',  ( -9.000000000000000000, 0.000000000000000000, 12.00000000000000000 ) ) ;
#151 = ADVANCED_FACE ( 'NONE', ( #385, #248 ), #238, .F. ) ;
#152 = VERTEX_POINT ( 'NONE', #536 ) ;
#153 = EDGE_CURVE ( 'NONE', #333, #200, #305, .T. ) ;
#154 = LINE ( 'NONE', #108, #107 ) ;
#155 = ORIENTED_EDGE ( 'NONE', *, *, #72, .F. ) ;
#156 = FACE_OUTER_BOUND ( 'NONE', #137, .T. ) ;
#157 = ORIENTED_EDGE ( 'NONE', *, *, #436, .F. ) ;
#158 = AXIS2_PLACEMENT_3D ( 'NONE', #13, #612, #161 ) ;
#159 = ORIENTED_EDGE ( 'NONE', *, *, #263, .F. ) ;
#160 = APPROVAL_ROLE ( '' ) ;
#161 = DIRECTION ( 'NONE',  ( 1.000000000000000000, 0.000000000000000000, 0.000000000000000000 ) ) ;
#162 = ORIENTED_EDGE ( 'NONE', *, *, #46, .T. ) ;
#163 = APPROVAL_STATUS ( 'not_yet_approved' ) ;
#164 = DIRECTION ( 'NONE',  ( -0.000000000000000000, -0.000000000000000000, -1.000000000000000000 ) ) ;
#165 = EDGE_LOOP ( 'NONE', ( #34, #58 ) ) ;
#166 = EDGE_CURVE ( 'NONE', #600, #603, #39, .T. ) ;
#167 = AXIS2_PLACEMENT_3D ( 'NONE', #80, #281, #613 ) ;
#168 = APPROVAL_DATE_TIME ( #460, #334 ) ;
#169 = AXIS2_PLACEMENT_3D ( 'NONE', #64, #61, #269 ) ;
#170 = DIRECTION ( 'NONE',  ( -0.000000000000000000, -0.000000000000000000, -1.000000000000000000 ) ) ;
#171 = DIRECTION ( 'NONE',  ( -1.000000000000000000, 0.000000000000000000, 0.000000000000000000 ) ) ;
#172 = ADVANCED_FACE ( 'NONE', ( #401 ), #395, .F. ) ;
#173 = CARTESIAN_POINT ( 'NONE',  ( 1.100000000000000089, 14.00000000000000000, -0.2000000000000005107 ) ) ;
#174 = EDGE_CURVE ( 'NONE', #302, #591, #296, .T. ) ;
#175 = CARTESIAN_POINT ( 'NONE',  ( -9.000000000000000000, 0.000000000000000000, 12.00000000000000000 ) ) ;
#176 = DIRECTION ( 'NONE',  ( -1.000000000000000000, 0.000000000000000000, 0.000000000000000000 ) ) ;
#177 = ORIENTED_EDGE ( 'NONE', *, *, #120, .T. ) ;
#178 = AXIS2_PLACEMENT_3D ( 'NONE', #416, #551, #602 ) ;
#179 = CARTESIAN_POINT ( 'NONE',  ( 17.00000000000000000, 2.081899558550500280E-15, -0.2000000000000000111 ) ) ;
#180 = AXIS2_PLACEMENT_3D ( 'NONE', #371, #319, #509 ) ;
#181 = EDGE_CURVE ( 'NONE', #152, #600, #134, .T. ) ;
#182 = CARTESIAN_POINT ( 'NONE',  ( -11.19999999999999929, 0.000000000000000000, 0.000000000000000000 ) ) ;
#183 = ADVANCED_FACE ( 'NONE', ( #195 ), #139, .T. ) ;
#184 = DIRECTION ( 'NONE',  ( 0.000000000000000000, 0.000000000000000000, -1.000000000000000000 ) ) ;
#185 = CYLINDRICAL_SURFACE ( 'NONE', #43, 1.100000000000000311 ) ;
#186 = DIRECTION ( 'NONE',  ( 0.000000000000000000, 0.000000000000000000, -1.000000000000000000 ) ) ;
#187 = DIRECTION ( 'NONE',  ( 0.000000000000000000, 0.000000000000000000, -1.000000000000000000 ) ) ;
#188 = FACE_BOUND ( 'NONE', #492, .T. ) ;
#189 = VECTOR ( 'NONE', #128, 1000.000000000000000 ) ;
#190 = CC_DESIGN_SECURITY_CLASSIFICATION ( #63, ( #135 ) ) ;
#191 = CARTESIAN_POINT ( 'NONE',  ( -9.000000000000000000, 0.000000000000000000, 2.000000000000000000 ) ) ;
#192 = ORIENTED_EDGE ( 'NONE', *, *, #123, .T. ) ;
#193 = DIRECTION ( 'NONE',  ( 0.000000000000000000, 0.000000000000000000, 1.000000000000000000 ) ) ;
#194 = EDGE_CURVE ( 'NONE', #148, #298, #564, .T. ) ;
#195 = FACE_OUTER_BOUND ( 'NONE', #583, .T. ) ;
#196 = ORIENTED_EDGE ( 'NONE', *, *, #462, .F. ) ;
#197 = PERSON_AND_ORGANIZATION_ROLE ( 'creator' ) ;
#198 = DIRECTION ( 'NONE',  ( 1.000000000000000000, 0.000000000000000000, -0.000000000000000000 ) ) ;
#199 = UNCERTAINTY_MEASURE_WITH_UNIT (LENGTH_MEASURE( 1.000000000000000082E-05 ), #499, 'distance_accuracy_value', 'NONE');
#200 = VERTEX_POINT ( 'NONE', #253 ) ;
#201 = VECTOR ( 'NONE', #388, 1000.000000000000000 ) ;
#202 = CARTESIAN_POINT ( 'NONE',  ( 1.100000000000000089, 14.00000000000000000, 2.000000000000000000 ) ) ;
#203 = EDGE_CURVE ( 'NONE', #200, #333, #233, .T. ) ;
#204 = AXIS2_PLACEMENT_3D ( 'NONE', #541, #594, #99 ) ;
#205 = EDGE_CURVE ( 'NONE', #2, #200, #445, .T. ) ;
#206 = DATE_TIME_ROLE ( 'creation_date' ) ;
#207 = DIRECTION ( 'NONE',  ( -0.000000000000000000, -0.000000000000000000, -1.000000000000000000 ) ) ;
#208 = ORIENTED_EDGE ( 'NONE', *, *, #120, .F. ) ;
#209 =( NAMED_UNIT ( * ) SI_UNIT ( $, .STERADIAN. ) SOLID_ANGLE_UNIT ( ) );
#210 = EDGE_CURVE ( 'NONE', #37, #593, #609, .T. ) ;
#211 = AXIS2_PLACEMENT_3D ( 'NONE', #97, #361, #297 ) ;
#212 = EDGE_LOOP ( 'NONE', ( #372, #51 ) ) ;
#213 = AXIS2_PLACEMENT_3D ( 'NONE', #283, #426, #375 ) ;
#214 = CIRCLE ( 'NONE', #44, 1.100000000000000311 ) ;
#215 = FACE_OUTER_BOUND ( 'NONE', #69, .T. ) ;
#216 = CC_DESIGN_DATE_AND_TIME_ASSIGNMENT ( #149, #206, ( #410 ) ) ;
#217 = ORIENTED_EDGE ( 'NONE', *, *, #423, .F. ) ;
#218 = FACE_OUTER_BOUND ( 'NONE', #336, .T. ) ;
#219 = MANIFOLD_SOLID_BREP ( 'Keeper_M2_fasteners', #350 ) ;
#220 = EDGE_LOOP ( 'NONE', ( #595, #443 ) ) ;
#221 = DIRECTION ( 'NONE',  ( 0.000000000000000000, 0.000000000000000000, -1.000000000000000000 ) ) ;
#222 = VERTEX_POINT ( 'NONE', #574 ) ;
#223 = CIRCLE ( 'NONE', #167, 1.100000000000000089 ) ;
#224 = ADVANCED_FACE ( 'NONE', ( #548 ), #278, .T. ) ;
#225 = AXIS2_PLACEMENT_3D ( 'NONE', #28, #625, #282 ) ;
#226 = DIRECTION ( 'NONE',  ( 1.000000000000000000, 0.000000000000000000, 0.000000000000000000 ) ) ;
#227 = DIRECTION ( 'NONE',  ( -1.000000000000000000, 0.000000000000000000, 0.000000000000000000 ) ) ;
#228 = CARTESIAN_POINT ( 'NONE',  ( -11.19999999999999929, 0.000000000000000000, 0.000000000000000000 ) ) ;
#229 = CARTESIAN_POINT ( 'NONE',  ( 14.00000000000000000, 0.000000000000000000, -0.2000000000000005107 ) ) ;
#230 = CARTESIAN_POINT ( 'NONE',  ( 7.000000000000000000, 8.572527594031473190E-16, 9.000000000000000000 ) ) ;
#231 = EDGE_CURVE ( 'NONE', #82, #55, #337, .T. ) ;
#232 = EDGE_LOOP ( 'NONE', ( #30, #270 ) ) ;
#233 = CIRCLE ( 'NONE', #427, 1.100000000000000089 ) ;
#234 = DIRECTION ( 'NONE',  ( 0.000000000000000000, 0.000000000000000000, 1.000000000000000000 ) ) ;
#235 = AXIS2_PLACEMENT_3D ( 'NONE', #366, #554, #116 ) ;
#236 = CARTESIAN_POINT ( 'NONE',  ( -1.100000000000000089, -14.00000000000000000, 2.000000000000000000 ) ) ;
#237 = DIRECTION ( 'NONE',  ( 1.000000000000000000, 0.000000000000000000, -0.000000000000000000 ) ) ;
#238 = PLANE ( 'NONE',  #484 ) ;
#239 = CARTESIAN_POINT ( 'NONE',  ( 12.90000000000000036, 0.000000000000000000, -0.2000000000000005107 ) ) ;
#240 = CYLINDRICAL_SURFACE ( 'NONE', #75, 7.000000000000000000 ) ;
#241 = ORIENTED_EDGE ( 'NONE', *, *, #419, .T. ) ;
#242 = DIRECTION ( 'NONE',  ( 0.000000000000000000, 0.000000000000000000, -1.000000000000000000 ) ) ;
#243 = AXIS2_PLACEMENT_3D ( 'NONE', #229, #616, #518 ) ;
#244 = CIRCLE ( 'NONE', #225, 1.100000000000000089 ) ;
#245 = DIRECTION ( 'NONE',  ( 1.000000000000000000, 0.000000000000000000, 0.000000000000000000 ) ) ;
#246 = EDGE_LOOP ( 'NONE', ( #457, #144 ) ) ;
#247 = PERSON_AND_ORGANIZATION ( #472, #12 ) ;
#248 = FACE_OUTER_BOUND ( 'NONE', #232, .T. ) ;
#249 = APPLICATION_CONTEXT ( 'configuration controlled 3d designs of mechanical parts and assemblies' ) ;
#250 = VERTEX_POINT ( 'NONE', #614 ) ;
#251 = PLANE ( 'NONE',  #567 ) ;
#252 = EDGE_CURVE ( 'NONE', #2, #353, #455, .T. ) ;
#253 = CARTESIAN_POINT ( 'NONE',  ( -1.100000000000000089, -14.00000000000000000, -0.2000000000000005107 ) ) ;
#254 = ORIENTED_EDGE ( 'NONE', *, *, #538, .T. ) ;
#255 = COORDINATED_UNIVERSAL_TIME_OFFSET ( 6, 0, .BEHIND. ) ;
#256 = AXIS2_PLACEMENT_3D ( 'NONE', #626, #50, #245 ) ;
#257 = AXIS2_PLACEMENT_3D ( 'NONE', #291, #285, #577 ) ;
#258 = ORIENTED_EDGE ( 'NONE', *, *, #290, .F. ) ;
#259 = CARTESIAN_POINT ( 'NONE',  ( -17.00000000000000000, 0.000000000000000000, 2.000000000000000000 ) ) ;
#260 = ORIENTED_EDGE ( 'NONE', *, *, #419, .F. ) ;
#261 = DIRECTION ( 'NONE',  ( 0.000000000000000000, 0.000000000000000000, -1.000000000000000000 ) ) ;
#262 = ORIENTED_EDGE ( 'NONE', *, *, #36, .T. ) ;
#263 = EDGE_CURVE ( 'NONE', #21, #500, #26, .T. ) ;
#264 = FACE_OUTER_BOUND ( 'NONE', #510, .T. ) ;
#265 = AXIS2_PLACEMENT_3D ( 'NONE', #392, #289, #432 ) ;
#266 = VERTEX_POINT ( 'NONE', #119 ) ;
#267 = VECTOR ( 'NONE', #570, 1000.000000000000000 ) ;
#268 = COORDINATED_UNIVERSAL_TIME_OFFSET ( 6, 0, .BEHIND. ) ;
#269 = DIRECTION ( 'NONE',  ( 1.000000000000000000, 0.000000000000000000, 0.000000000000000000 ) ) ;
#270 = ORIENTED_EDGE ( 'NONE', *, *, #273, .F. ) ;
#271 = DATE_AND_TIME ( #508, #497 ) ;
#272 = CARTESIAN_POINT ( 'NONE',  ( 0.000000000000000000, -14.00000000000000000, 2.000000000000000000 ) ) ;
#273 = EDGE_CURVE ( 'NONE', #222, #21, #575, .T. ) ;
#274 = ORIENTED_EDGE ( 'NONE', *, *, #205, .F. ) ;
#275 = CYLINDRICAL_SURFACE ( 'NONE', #610, 1.100000000000000089 ) ;
#276 = DIRECTION ( 'NONE',  ( 1.000000000000000000, 0.000000000000000000, 0.000000000000000000 ) ) ;
#277 = AXIS2_PLACEMENT_3D ( 'NONE', #322, #164, #454 ) ;
#278 = CYLINDRICAL_SURFACE ( 'NONE', #597, 17.00000000000000000 ) ;
#279 = CARTESIAN_POINT ( 'NONE',  ( 1.100000000000000089, -14.00000000000000000, 11.99999999999999645 ) ) ;
#280 = DIRECTION ( 'NONE',  ( -0.000000000000000000, -0.000000000000000000, -1.000000000000000000 ) ) ;
#281 = DIRECTION ( 'NONE',  ( -0.000000000000000000, -0.000000000000000000, -1.000000000000000000 ) ) ;
#282 = DIRECTION ( 'NONE',  ( 1.000000000000000000, 0.000000000000000000, 0.000000000000000000 ) ) ;
#283 = CARTESIAN_POINT ( 'NONE',  ( 0.000000000000000000, 14.00000000000000000, -0.2000000000000005107 ) ) ;
#284 = AXIS2_PLACEMENT_3D ( 'NONE', #528, #352, #42 ) ;
#285 = DIRECTION ( 'NONE',  ( 0.000000000000000000, 0.000000000000000000, 1.000000000000000000 ) ) ;
#286 = ADVANCED_FACE ( 'NONE', ( #422 ), #563, .F. ) ;
#287 = CARTESIAN_POINT ( 'NONE',  ( 0.000000000000000000, 0.000000000000000000, 9.000000000000000000 ) ) ;
#288 = LINE ( 'NONE', #433, #267 ) ;
#289 = DIRECTION ( 'NONE',  ( 0.000000000000000000, 0.000000000000000000, 1.000000000000000000 ) ) ;
#290 = EDGE_CURVE ( 'NONE', #593, #37, #106, .T. ) ;
#291 = CARTESIAN_POINT ( 'NONE',  ( 0.000000000000000000, 0.000000000000000000, -0.2000000000000000111 ) ) ;
#292 = DIRECTION ( 'NONE',  ( 0.000000000000000000, 0.000000000000000000, 1.000000000000000000 ) ) ;
#293 = ORIENTED_EDGE ( 'NONE', *, *, #615, .F. ) ;
#294 = PRODUCT_RELATED_PRODUCT_CATEGORY ( 'detail', '', ( #104 ) ) ;
#295 = CARTESIAN_POINT ( 'NONE',  ( 9.000000000000000000, 1.102182119232617714E-15, 12.00000000000000000 ) ) ;
#296 = CIRCLE ( 'NONE', #265, 17.00000000000000000 ) ;
#297 = DIRECTION ( 'NONE',  ( 1.000000000000000000, 0.000000000000000000, 0.000000000000000000 ) ) ;
#298 = VERTEX_POINT ( 'NONE', #173 ) ;
#299 = DIRECTION ( 'NONE',  ( -0.000000000000000000, -0.000000000000000000, -1.000000000000000000 ) ) ;
#300 = EDGE_LOOP ( 'NONE', ( #40, #355 ) ) ;
#301 = CYLINDRICAL_SURFACE ( 'NONE', #467, 1.100000000000000311 ) ;
#302 = VERTEX_POINT ( 'NONE', #125 ) ;
#303 = APPROVAL_ROLE ( '' ) ;
#304 = ADVANCED_FACE ( 'NONE', ( #215 ), #329, .F. ) ;
#305 = CIRCLE ( 'NONE', #3, 1.100000000000000089 ) ;
#306 = LOCAL_TIME ( 21, 58, 20.00000000000000000, #321 ) ;
#307 = ORIENTED_EDGE ( 'NONE', *, *, #621, .F. ) ;
#308 = DIRECTION ( 'NONE',  ( -1.000000000000000000, 0.000000000000000000, 0.000000000000000000 ) ) ;
#309 = ORIENTED_EDGE ( 'NONE', *, *, #181, .F. ) ;
#310 = EDGE_CURVE ( 'NONE', #55, #82, #327, .T. ) ;
#311 = APPROVAL_ROLE ( '' ) ;
#312 = DIRECTION ( 'NONE',  ( 1.000000000000000000, 0.000000000000000000, 0.000000000000000000 ) ) ;
#313 = EDGE_LOOP ( 'NONE', ( #411, #27 ) ) ;
#314 = CYLINDRICAL_SURFACE ( 'NONE', #620, 9.000000000000000000 ) ;
#315 = CIRCLE ( 'NONE', #11, 1.100000000000000311 ) ;
#316 = ORIENTED_EDGE ( 'NONE', *, *, #25, .F. ) ;
#317 = VECTOR ( 'NONE', #520, 1000.000000000000000 ) ;
#318 = EDGE_CURVE ( 'NONE', #591, #302, #598, .T. ) ;
#319 = DIRECTION ( 'NONE',  ( 0.000000000000000000, 0.000000000000000000, 1.000000000000000000 ) ) ;
#320 = ORIENTED_EDGE ( 'NONE', *, *, #621, .T. ) ;
#321 = COORDINATED_UNIVERSAL_TIME_OFFSET ( 6, 0, .BEHIND. ) ;
#322 = CARTESIAN_POINT ( 'NONE',  ( 0.000000000000000000, 0.000000000000000000, 0.000000000000000000 ) ) ;
#323 = CARTESIAN_POINT ( 'NONE',  ( 0.000000000000000000, 0.000000000000000000, 12.00000000000000000 ) ) ;
#324 = CYLINDRICAL_SURFACE ( 'NONE', #277, 11.19999999999999929 ) ;
#325 = ADVANCED_FACE ( 'NONE', ( #264 ), #324, .F. ) ;
#326 = ORIENTED_EDGE ( 'NONE', *, *, #123, .F. ) ;
#327 = CIRCLE ( 'NONE', #178, 9.000000000000000000 ) ;
#328 = CIRCLE ( 'NONE', #351, 17.00000000000000000 ) ;
#329 = CYLINDRICAL_SURFACE ( 'NONE', #465, 11.19999999999999929 ) ;
#330 = PLANE ( 'NONE',  #514 ) ;
#331 = ADVANCED_FACE ( 'NONE', ( #112 ), #314, .T. ) ;
#332 = LINE ( 'NONE', #481, #76 ) ;
#333 = VERTEX_POINT ( 'NONE', #16 ) ;
#334 = APPROVAL ( #163, 'UNSPECIFIED' ) ;
#335 = CARTESIAN_POINT ( 'NONE',  ( -17.00000000000000000, 0.000000000000000000, -0.2000000000000000111 ) ) ;
#336 = EDGE_LOOP ( 'NONE', ( #103, #503, #162, #293 ) ) ;
#337 = CIRCLE ( 'NONE', #96, 9.000000000000000000 ) ;
#338 = CARTESIAN_POINT ( 'NONE',  ( 0.000000000000000000, 0.000000000000000000, -0.2000000000000000111 ) ) ;
#339 = VECTOR ( 'NONE', #184, 1000.000000000000000 ) ;
#340 = CARTESIAN_POINT ( 'NONE',  ( 0.000000000000000000, 0.000000000000000000, 0.000000000000000000 ) ) ;
#341 = ORIENTED_EDGE ( 'NONE', *, *, #348, .T. ) ;
#342 = CARTESIAN_POINT ( 'NONE',  ( -11.19999999999999929, 0.000000000000000000, -0.2000000000000000111 ) ) ;
#343 = DIRECTION ( 'NONE',  ( -1.000000000000000000, 0.000000000000000000, 0.000000000000000000 ) ) ;
#344 = MECHANICAL_CONTEXT ( 'NONE', #145, 'mechanical' ) ;
#345 = CARTESIAN_POINT ( 'NONE',  ( 0.000000000000000000, -14.00000000000000000, -0.2000000000000005107 ) ) ;
#346 = ADVANCED_FACE ( 'NONE', ( #218 ), #413, .F. ) ;
#347 = ORIENTED_EDGE ( 'NONE', *, *, #194, .T. ) ;
#348 = EDGE_CURVE ( 'NONE', #21, #222, #588, .T. ) ;
#349 = FACE_BOUND ( 'NONE', #18, .T. ) ;
#350 = CLOSED_SHELL ( 'NONE', ( #635, #374, #346, #84, #54, #304, #183, #224, #578, #391, #325, #151, #331, #17, #59, #172, #286, #519, #6 ) ) ;
#351 = AXIS2_PLACEMENT_3D ( 'NONE', #478, #193, #526 ) ;
#352 = DIRECTION ( 'NONE',  ( 0.000000000000000000, 0.000000000000000000, 1.000000000000000000 ) ) ;
#353 = VERTEX_POINT ( 'NONE', #68 ) ;
#354 = CARTESIAN_POINT ( 'NONE',  ( 11.19999999999999929, 1.371604415045035513E-15, -0.2000000000000000111 ) ) ;
#355 = ORIENTED_EDGE ( 'NONE', *, *, #290, .T. ) ;
#356 = EDGE_CURVE ( 'NONE', #353, #2, #33, .T. ) ;
#357 = ORIENTED_EDGE ( 'NONE', *, *, #501, .T. ) ;
#358 = DIRECTION ( 'NONE',  ( 1.000000000000000000, 0.000000000000000000, -0.000000000000000000 ) ) ;
#359 = CIRCLE ( 'NONE', #387, 17.00000000000000000 ) ;
#360 = ORIENTED_EDGE ( 'NONE', *, *, #615, .T. ) ;
#361 = DIRECTION ( 'NONE',  ( 0.000000000000000000, 0.000000000000000000, 1.000000000000000000 ) ) ;
#362 = ORIENTED_EDGE ( 'NONE', *, *, #9, .T. ) ;
#363 = DATE_AND_TIME ( #604, #379 ) ;
#364 = DIRECTION ( 'NONE',  ( -1.000000000000000000, 0.000000000000000000, 0.000000000000000000 ) ) ;
#365 = ORIENTED_EDGE ( 'NONE', *, *, #572, .T. ) ;
#366 = CARTESIAN_POINT ( 'NONE',  ( 0.000000000000000000, 14.00000000000000000, 11.99999999999999645 ) ) ;
#367 = CIRCLE ( 'NONE', #213, 1.100000000000000089 ) ;
#368 = ORIENTED_EDGE ( 'NONE', *, *, #174, .F. ) ;
#369 = CC_DESIGN_APPROVAL ( #78, ( #410 ) ) ;
#370 = COORDINATED_UNIVERSAL_TIME_OFFSET ( 6, 0, .BEHIND. ) ;
#371 = CARTESIAN_POINT ( 'NONE',  ( 0.000000000000000000, 0.000000000000000000, 0.000000000000000000 ) ) ;
#372 = ORIENTED_EDGE ( 'NONE', *, *, #143, .T. ) ;
#373 = DIRECTION ( 'NONE',  ( -0.000000000000000000, -0.000000000000000000, -1.000000000000000000 ) ) ;
#374 = ADVANCED_FACE ( 'NONE', ( #511 ), #275, .F. ) ;
#375 = DIRECTION ( 'NONE',  ( 1.000000000000000000, 0.000000000000000000, 0.000000000000000000 ) ) ;
#376 = CARTESIAN_POINT ( 'NONE',  ( 0.000000000000000000, 0.000000000000000000, 12.00000000000000000 ) ) ;
#377 = ORIENTED_EDGE ( 'NONE', *, *, #423, .T. ) ;
#378 = VECTOR ( 'NONE', #187, 1000.000000000000000 ) ;
#379 = LOCAL_TIME ( 21, 58, 20.00000000000000000, #370 ) ;
#380 = CARTESIAN_POINT ( 'NONE',  ( -7.000000000000000000, 0.000000000000000000, 0.000000000000000000 ) ) ;
#381 = DIRECTION ( 'NONE',  ( -0.000000000000000000, -0.000000000000000000, -1.000000000000000000 ) ) ;
#382 = DIRECTION ( 'NONE',  ( 0.000000000000000000, 0.000000000000000000, -1.000000000000000000 ) ) ;
#383 = ORIENTED_EDGE ( 'NONE', *, *, #572, .F. ) ;
#384 = CARTESIAN_POINT ( 'NONE',  ( 17.00000000000000000, 2.081899558550500280E-15, 2.000000000000000000 ) ) ;
#385 = FACE_BOUND ( 'NONE', #212, .T. ) ;
#386 = CARTESIAN_POINT ( 'NONE',  ( 0.000000000000000000, 0.000000000000000000, -0.2000000000000000111 ) ) ;
#387 = AXIS2_PLACEMENT_3D ( 'NONE', #41, #632, #390 ) ;
#388 = DIRECTION ( 'NONE',  ( 0.000000000000000000, 0.000000000000000000, -1.000000000000000000 ) ) ;
#389 = ORIENTED_EDGE ( 'NONE', *, *, #46, .F. ) ;
#390 = DIRECTION ( 'NONE',  ( 1.000000000000000000, 0.000000000000000000, 0.000000000000000000 ) ) ;
#391 = ADVANCED_FACE ( 'NONE', ( #530, #568, #188, #31, #131 ), #623, .F. ) ;
#392 = CARTESIAN_POINT ( 'NONE',  ( 0.000000000000000000, 0.000000000000000000, 2.000000000000000000 ) ) ;
#393 = EDGE_LOOP ( 'NONE', ( #155, #383 ) ) ;
#394 = LINE ( 'NONE', #490, #447 ) ;
#395 = PLANE ( 'NONE',  #524 ) ;
#396 = CC_DESIGN_PERSON_AND_ORGANIZATION_ASSIGNMENT ( #601, #415, ( #135 ) ) ;
#397 = ORIENTED_EDGE ( 'NONE', *, *, #210, .F. ) ;
#398 = CALENDAR_DATE ( 2026, 12, 9 ) ;
#399 = AXIS2_PLACEMENT_3D ( 'NONE', #512, #73, #276 ) ;
#400 = CIRCLE ( 'NONE', #257, 11.19999999999999929 ) ;
#401 = FACE_OUTER_BOUND ( 'NONE', #393, .T. ) ;
#402 = ORIENTED_EDGE ( 'NONE', *, *, #545, .T. ) ;
#403 = PERSON_AND_ORGANIZATION ( #472, #12 ) ;
#404 = APPROVAL_STATUS ( 'not_yet_approved' ) ;
#405 = EDGE_CURVE ( 'NONE', #549, #529, #328, .T. ) ;
#406 = EDGE_LOOP ( 'NONE', ( #489, #254, #77, #260 ) ) ;
#407 = AXIS2_PLACEMENT_3D ( 'NONE', #338, #138, #91 ) ;
#408 = ORIENTED_EDGE ( 'NONE', *, *, #318, .F. ) ;
#409 = DIRECTION ( 'NONE',  ( 1.000000000000000000, 0.000000000000000000, 0.000000000000000000 ) ) ;
#410 = PRODUCT_DEFINITION ( 'UNKNOWN', '', #135, #71 ) ;
#411 = ORIENTED_EDGE ( 'NONE', *, *, #252, .T. ) ;
#412 = APPROVAL_DATE_TIME ( #363, #504 ) ;
#413 = CYLINDRICAL_SURFACE ( 'NONE', #235, 1.100000000000000089 ) ;
#414 = EDGE_LOOP ( 'NONE', ( #435, #365, #241, #507 ) ) ;
#415 = PERSON_AND_ORGANIZATION_ROLE ( 'design_supplier' ) ;
#416 = CARTESIAN_POINT ( 'NONE',  ( 0.000000000000000000, 0.000000000000000000, 2.000000000000000000 ) ) ;
#417 = CARTESIAN_POINT ( 'NONE',  ( 14.00000000000000000, 0.000000000000000000, 11.99999999999999645 ) ) ;
#418 = LOCAL_TIME ( 21, 58, 20.00000000000000000, #255 ) ;
#419 = EDGE_CURVE ( 'NONE', #250, #552, #332, .T. ) ;
#420 = DIRECTION ( 'NONE',  ( 0.000000000000000000, 0.000000000000000000, 1.000000000000000000 ) ) ;
#421 = DIRECTION ( 'NONE',  ( 0.000000000000000000, 0.000000000000000000, 1.000000000000000000 ) ) ;
#422 = FACE_OUTER_BOUND ( 'NONE', #62, .T. ) ;
#423 = EDGE_CURVE ( 'NONE', #593, #55, #88, .T. ) ;
#424 = FACE_OUTER_BOUND ( 'NONE', #300, .T. ) ;
#425 = LINE ( 'NONE', #384, #127 ) ;
#426 = DIRECTION ( 'NONE',  ( -0.000000000000000000, -0.000000000000000000, -1.000000000000000000 ) ) ;
#427 = AXIS2_PLACEMENT_3D ( 'NONE', #345, #438, #110 ) ;
#428 = APPROVAL_PERSON_ORGANIZATION ( #247, #78, #303 ) ;
#429 = CARTESIAN_POINT ( 'NONE',  ( 9.000000000000000000, 1.102182119232617714E-15, 12.00000000000000000 ) ) ;
#430 = FACE_OUTER_BOUND ( 'NONE', #414, .T. ) ;
#431 = FACE_OUTER_BOUND ( 'NONE', #90, .T. ) ;
#432 = DIRECTION ( 'NONE',  ( 1.000000000000000000, 0.000000000000000000, 0.000000000000000000 ) ) ;
#433 = CARTESIAN_POINT ( 'NONE',  ( 11.19999999999999929, 1.371604415045035513E-15, 0.000000000000000000 ) ) ;
#434 = DIRECTION ( 'NONE',  ( 1.000000000000000000, 0.000000000000000000, -0.000000000000000000 ) ) ;
#435 = ORIENTED_EDGE ( 'NONE', *, *, #538, .F. ) ;
#436 = EDGE_CURVE ( 'NONE', #606, #500, #400, .T. ) ;
#437 = DIRECTION ( 'NONE',  ( -1.000000000000000000, 0.000000000000000000, 0.000000000000000000 ) ) ;
#438 = DIRECTION ( 'NONE',  ( -0.000000000000000000, -0.000000000000000000, -1.000000000000000000 ) ) ;
#439 = ORIENTED_EDGE ( 'NONE', *, *, #527, .F. ) ;
#440 = DATE_AND_TIME ( #398, #556 ) ;
#441 = CC_DESIGN_PERSON_AND_ORGANIZATION_ASSIGNMENT ( #444, #486, ( #104 ) ) ;
#442 = CARTESIAN_POINT ( 'NONE',  ( 15.10000000000000142, 1.347111479062088750E-16, 11.99999999999999645 ) ) ;
#443 = ORIENTED_EDGE ( 'NONE', *, *, #436, .T. ) ;
#444 = PERSON_AND_ORGANIZATION ( #472, #12 ) ;
#445 = LINE ( 'NONE', #533, #496 ) ;
#446 = ORIENTED_EDGE ( 'NONE', *, *, #356, .F. ) ;
#447 = VECTOR ( 'NONE', #57, 1000.000000000000000 ) ;
#448 = EDGE_CURVE ( 'NONE', #222, #606, #288, .T. ) ;
#449 = EDGE_CURVE ( 'NONE', #117, #298, #38, .T. ) ;
#450 = CARTESIAN_POINT ( 'NONE',  ( 15.10000000000000142, 1.347111479062088750E-16, -0.2000000000000005107 ) ) ;
#451 = ORIENTED_EDGE ( 'NONE', *, *, #166, .F. ) ;
#452 = ORIENTED_EDGE ( 'NONE', *, *, #405, .T. ) ;
#453 = EDGE_CURVE ( 'NONE', #483, #603, #214, .T. ) ;
#454 = DIRECTION ( 'NONE',  ( -1.000000000000000000, 0.000000000000000000, 0.000000000000000000 ) ) ;
#455 = CIRCLE ( 'NONE', #586, 1.100000000000000089 ) ;
#456 = AXIS2_PLACEMENT_3D ( 'NONE', #473, #234, #522 ) ;
#457 = ORIENTED_EDGE ( 'NONE', *, *, #203, .F. ) ;
#458 = DIRECTION ( 'NONE',  ( -1.000000000000000000, 0.000000000000000000, 0.000000000000000000 ) ) ;
#459 = EDGE_LOOP ( 'NONE', ( #446, #362, #546, #274 ) ) ;
#460 = DATE_AND_TIME ( #115, #306 ) ;
#461 = DIRECTION ( 'NONE',  ( -0.000000000000000000, -0.000000000000000000, -1.000000000000000000 ) ) ;
#462 = EDGE_CURVE ( 'NONE', #500, #606, #4, .T. ) ;
#463 = ORIENTED_EDGE ( 'NONE', *, *, #194, .F. ) ;
#464 = DIRECTION ( 'NONE',  ( -0.000000000000000000, -0.000000000000000000, -1.000000000000000000 ) ) ;
#465 = AXIS2_PLACEMENT_3D ( 'NONE', #513, #122, #364 ) ;
#466 = ORIENTED_EDGE ( 'NONE', *, *, #205, .T. ) ;
#467 = AXIS2_PLACEMENT_3D ( 'NONE', #493, #261, #308 ) ;
#468 = DIRECTION ( 'NONE',  ( -0.000000000000000000, -0.000000000000000000, -1.000000000000000000 ) ) ;
#469 = DIRECTION ( 'NONE',  ( 1.000000000000000000, 0.000000000000000000, 0.000000000000000000 ) ) ;
#470 = DIRECTION ( 'NONE',  ( 0.000000000000000000, 0.000000000000000000, 1.000000000000000000 ) ) ;
#471 = CARTESIAN_POINT ( 'NONE',  ( -1.100000000000000089, 14.00000000000000000, 2.000000000000000000 ) ) ;
#472 = PERSON ( 'UNSPECIFIED', 'UNSPECIFIED', 'UNSPECIFIED', ('UNSPECIFIED'), ('UNSPECIFIED'), ('UNSPECIFIED') ) ;
#473 = CARTESIAN_POINT ( 'NONE',  ( 0.000000000000000000, 0.000000000000000000, 9.000000000000000000 ) ) ;
#474 = VERTEX_POINT ( 'NONE', #81 ) ;
#475 = AXIS2_PLACEMENT_3D ( 'NONE', #340, #146, #482 ) ;
#476 = CARTESIAN_POINT ( 'NONE',  ( 0.000000000000000000, -14.00000000000000000, 11.99999999999999645 ) ) ;
#477 = EDGE_LOOP ( 'NONE', ( #217, #397, #177, #585 ) ) ;
#478 = CARTESIAN_POINT ( 'NONE',  ( 0.000000000000000000, 0.000000000000000000, -0.2000000000000000111 ) ) ;
#479 = CARTESIAN_POINT ( 'NONE',  ( -1.100000000000000089, 14.00000000000000000, -0.2000000000000005107 ) ) ;
#480 = ORIENTED_EDGE ( 'NONE', *, *, #527, .T. ) ;
#481 = CARTESIAN_POINT ( 'NONE',  ( -7.000000000000000000, 0.000000000000000000, 9.000000000000000000 ) ) ;
#482 = DIRECTION ( 'NONE',  ( 1.000000000000000000, 0.000000000000000000, 0.000000000000000000 ) ) ;
#483 = VERTEX_POINT ( 'NONE', #239 ) ;
#484 = AXIS2_PLACEMENT_3D ( 'NONE', #491, #89, #198 ) ;
#485 = CC_DESIGN_PERSON_AND_ORGANIZATION_ASSIGNMENT ( #558, #118, ( #135 ) ) ;
#486 = PERSON_AND_ORGANIZATION_ROLE ( 'design_owner' ) ;
#487 = CIRCLE ( 'NONE', #456, 7.000000000000000000 ) ;
#488 = DIRECTION ( 'NONE',  ( 1.000000000000000000, 0.000000000000000000, 0.000000000000000000 ) ) ;
#489 = ORIENTED_EDGE ( 'NONE', *, *, #72, .T. ) ;
#490 = CARTESIAN_POINT ( 'NONE',  ( -1.100000000000000089, 14.00000000000000000, 11.99999999999999645 ) ) ;
#491 = CARTESIAN_POINT ( 'NONE',  ( 0.000000000000000000, 0.000000000000000000, 0.000000000000000000 ) ) ;
#492 = EDGE_LOOP ( 'NONE', ( #463, #389 ) ) ;
#493 = CARTESIAN_POINT ( 'NONE',  ( 14.00000000000000000, 0.000000000000000000, 11.99999999999999645 ) ) ;
#494 = EDGE_LOOP ( 'NONE', ( #10, #540 ) ) ;
#495 = CALENDAR_DATE ( 2026, 12, 9 ) ;
#496 = VECTOR ( 'NONE', #633, 1000.000000000000000 ) ;
#497 = LOCAL_TIME ( 21, 58, 20.00000000000000000, #268 ) ;
#498 = ORIENTED_EDGE ( 'NONE', *, *, #29, .T. ) ;
#499 =( LENGTH_UNIT ( ) NAMED_UNIT ( * ) SI_UNIT ( .MILLI., .METRE. ) );
#500 = VERTEX_POINT ( 'NONE', #342 ) ;
#501 = EDGE_CURVE ( 'NONE', #529, #549, #359, .T. ) ;
#502 = LINE ( 'NONE', #150, #126 ) ;
#503 = ORIENTED_EDGE ( 'NONE', *, *, #449, .T. ) ;
#504 = APPROVAL ( #592, 'UNSPECIFIED' ) ;
#505 = DIRECTION ( 'NONE',  ( 1.000000000000000000, 0.000000000000000000, 0.000000000000000000 ) ) ;
#506 = AXIS2_PLACEMENT_3D ( 'NONE', #582, #590, #343 ) ;
#507 = ORIENTED_EDGE ( 'NONE', *, *, #93, .F. ) ;
#508 = CALENDAR_DATE ( 2026, 12, 9 ) ;
#509 = DIRECTION ( 'NONE',  ( 1.000000000000000000, 0.000000000000000000, 0.000000000000000000 ) ) ;
#510 = EDGE_LOOP ( 'NONE', ( #8, #631, #66, #157 ) ) ;
#511 = FACE_OUTER_BOUND ( 'NONE', #459, .T. ) ;
#512 = CARTESIAN_POINT ( 'NONE',  ( 0.000000000000000000, 0.000000000000000000, 9.000000000000000000 ) ) ;
#513 = CARTESIAN_POINT ( 'NONE',  ( 0.000000000000000000, 0.000000000000000000, 0.000000000000000000 ) ) ;
#514 = AXIS2_PLACEMENT_3D ( 'NONE', #571, #421, #132 ) ;
#515 = DIRECTION ( 'NONE',  ( -0.000000000000000000, -0.000000000000000000, -1.000000000000000000 ) ) ;
#516 = AXIS2_PLACEMENT_3D ( 'NONE', #141, #382, #35 ) ;
#517 = LINE ( 'NONE', #230, #525 ) ;
#518 = DIRECTION ( 'NONE',  ( 1.000000000000000000, 0.000000000000000000, 0.000000000000000000 ) ) ;
#519 = ADVANCED_FACE ( 'NONE', ( #431 ), #581, .F. ) ;
#520 = DIRECTION ( 'NONE',  ( -0.000000000000000000, -0.000000000000000000, -1.000000000000000000 ) ) ;
#521 = EDGE_LOOP ( 'NONE', ( #624, #408, #320, #357 ) ) ;
#522 = DIRECTION ( 'NONE',  ( 1.000000000000000000, 0.000000000000000000, 0.000000000000000000 ) ) ;
#523 = CYLINDRICAL_SURFACE ( 'NONE', #565, 9.000000000000000000 ) ;
#524 = AXIS2_PLACEMENT_3D ( 'NONE', #531, #292, #434 ) ;
#525 = VECTOR ( 'NONE', #186, 1000.000000000000000 ) ;
#526 = DIRECTION ( 'NONE',  ( 1.000000000000000000, 0.000000000000000000, 0.000000000000000000 ) ) ;
#527 = EDGE_CURVE ( 'NONE', #45, #117, #244, .T. ) ;
#528 = CARTESIAN_POINT ( 'NONE',  ( 0.000000000000000000, 0.000000000000000000, 0.000000000000000000 ) ) ;
#529 = VERTEX_POINT ( 'NONE', #335 ) ;
#530 = FACE_BOUND ( 'NONE', #637, .T. ) ;
#531 = CARTESIAN_POINT ( 'NONE',  ( 0.000000000000000000, 0.000000000000000000, 9.000000000000000000 ) ) ;
#532 = ORIENTED_EDGE ( 'NONE', *, *, #448, .T. ) ;
#533 = CARTESIAN_POINT ( 'NONE',  ( -1.100000000000000089, -14.00000000000000000, 11.99999999999999645 ) ) ;
#534 = ORIENTED_EDGE ( 'NONE', *, *, #166, .T. ) ;
#535 = CIRCLE ( 'NONE', #399, 7.000000000000000000 ) ;
#536 = CARTESIAN_POINT ( 'NONE',  ( 12.90000000000000036, 0.000000000000000000, 2.000000000000000000 ) ) ;
#537 = ORIENTED_EDGE ( 'NONE', *, *, #453, .F. ) ;
#538 = EDGE_CURVE ( 'NONE', #474, #266, #517, .T. ) ;
#539 = COORDINATED_UNIVERSAL_TIME_OFFSET ( 6, 0, .BEHIND. ) ;
#540 = ORIENTED_EDGE ( 'NONE', *, *, #174, .T. ) ;
#541 = CARTESIAN_POINT ( 'NONE',  ( 0.000000000000000000, 0.000000000000000000, 0.000000000000000000 ) ) ;
#542 = ORIENTED_EDGE ( 'NONE', *, *, #203, .T. ) ;
#543 = DIRECTION ( 'NONE',  ( 0.000000000000000000, 0.000000000000000000, 1.000000000000000000 ) ) ;
#544 = CIRCLE ( 'NONE', #243, 1.100000000000000311 ) ;
#545 = EDGE_CURVE ( 'NONE', #302, #549, #425, .T. ) ;
#546 = ORIENTED_EDGE ( 'NONE', *, *, #153, .T. ) ;
#547 = PERSON_AND_ORGANIZATION ( #472, #12 ) ;
#548 = FACE_OUTER_BOUND ( 'NONE', #521, .T. ) ;
#549 = VERTEX_POINT ( 'NONE', #179 ) ;
#550 = SHAPE_DEFINITION_REPRESENTATION ( #52, #618 ) ;
#551 = DIRECTION ( 'NONE',  ( -0.000000000000000000, -0.000000000000000000, -1.000000000000000000 ) ) ;
#552 = VERTEX_POINT ( 'NONE', #380 ) ;
#553 = PERSON_AND_ORGANIZATION ( #472, #12 ) ;
#554 = DIRECTION ( 'NONE',  ( 0.000000000000000000, 0.000000000000000000, -1.000000000000000000 ) ) ;
#555 = AXIS2_PLACEMENT_3D ( 'NONE', #287, #611, #171 ) ;
#556 = LOCAL_TIME ( 21, 58, 20.00000000000000000, #539 ) ;
#557 = ORIENTED_EDGE ( 'NONE', *, *, #231, .F. ) ;
#558 = PERSON_AND_ORGANIZATION ( #472, #12 ) ;
#559 = DIRECTION ( 'NONE',  ( 1.000000000000000000, 0.000000000000000000, 0.000000000000000000 ) ) ;
#560 = ORIENTED_EDGE ( 'NONE', *, *, #501, .F. ) ;
#561 = DIRECTION ( 'NONE',  ( -0.000000000000000000, -0.000000000000000000, -1.000000000000000000 ) ) ;
#562 = DIRECTION ( 'NONE',  ( -1.000000000000000000, 0.000000000000000000, 0.000000000000000000 ) ) ;
#563 = CYLINDRICAL_SURFACE ( 'NONE', #619, 1.100000000000000089 ) ;
#564 = CIRCLE ( 'NONE', #256, 1.100000000000000089 ) ;
#565 = AXIS2_PLACEMENT_3D ( 'NONE', #323, #381, #562 ) ;
#566 = DIRECTION ( 'NONE',  ( 0.000000000000000000, 0.000000000000000000, -1.000000000000000000 ) ) ;
#567 = AXIS2_PLACEMENT_3D ( 'NONE', #7, #543, #358 ) ;
#568 = FACE_BOUND ( 'NONE', #246, .T. ) ;
#569 = FACE_OUTER_BOUND ( 'NONE', #15, .T. ) ;
#570 = DIRECTION ( 'NONE',  ( -0.000000000000000000, -0.000000000000000000, -1.000000000000000000 ) ) ;
#571 = CARTESIAN_POINT ( 'NONE',  ( 0.000000000000000000, 0.000000000000000000, 12.00000000000000000 ) ) ;
#572 = EDGE_CURVE ( 'NONE', #474, #250, #487, .T. ) ;
#573 = FACE_BOUND ( 'NONE', #165, .T. ) ;
#574 = CARTESIAN_POINT ( 'NONE',  ( 11.19999999999999929, 1.371604415045035513E-15, 0.000000000000000000 ) ) ;
#575 = CIRCLE ( 'NONE', #158, 11.19999999999999929 ) ;
#576 = APPROVAL_PERSON_ORGANIZATION ( #547, #334, #160 ) ;
#577 = DIRECTION ( 'NONE',  ( 1.000000000000000000, 0.000000000000000000, 0.000000000000000000 ) ) ;
#578 = ADVANCED_FACE ( 'NONE', ( #573, #133, #349, #95, #49 ), #251, .T. ) ;
#579 = CARTESIAN_POINT ( 'NONE',  ( 0.000000000000000000, -14.00000000000000000, -0.2000000000000005107 ) ) ;
#580 = ORIENTED_EDGE ( 'NONE', *, *, #405, .F. ) ;
#581 = CYLINDRICAL_SURFACE ( 'NONE', #516, 1.100000000000000089 ) ;
#582 = CARTESIAN_POINT ( 'NONE',  ( 0.000000000000000000, 0.000000000000000000, 2.000000000000000000 ) ) ;
#583 = EDGE_LOOP ( 'NONE', ( #368, #402, #452, #307 ) ) ;
#584 = DIRECTION ( 'NONE',  ( -1.000000000000000000, 0.000000000000000000, 0.000000000000000000 ) ) ;
#585 = ORIENTED_EDGE ( 'NONE', *, *, #310, .F. ) ;
#586 = AXIS2_PLACEMENT_3D ( 'NONE', #70, #373, #505 ) ;
#587 = CC_DESIGN_DATE_AND_TIME_ASSIGNMENT ( #271, #607, ( #63 ) ) ;
#588 = CIRCLE ( 'NONE', #180, 11.19999999999999929 ) ;
#589 = PERSON_AND_ORGANIZATION ( #472, #12 ) ;
#590 = DIRECTION ( 'NONE',  ( -0.000000000000000000, -0.000000000000000000, -1.000000000000000000 ) ) ;
#591 = VERTEX_POINT ( 'NONE', #259 ) ;
#592 = APPROVAL_STATUS ( 'not_yet_approved' ) ;
#593 = VERTEX_POINT ( 'NONE', #295 ) ;
#594 = DIRECTION ( 'NONE',  ( 0.000000000000000000, 0.000000000000000000, 1.000000000000000000 ) ) ;
#595 = ORIENTED_EDGE ( 'NONE', *, *, #462, .T. ) ;
#596 = APPLICATION_PROTOCOL_DEFINITION ( 'international standard', 'config_control_design', 1994, #145 ) ;
#597 = AXIS2_PLACEMENT_3D ( 'NONE', #74, #464, #605 ) ;
#598 = CIRCLE ( 'NONE', #169, 17.00000000000000000 ) ;
#599 = CC_DESIGN_PERSON_AND_ORGANIZATION_ASSIGNMENT ( #589, #197, ( #410 ) ) ;
#600 = VERTEX_POINT ( 'NONE', #53 ) ;
#601 = PERSON_AND_ORGANIZATION ( #472, #12 ) ;
#602 = DIRECTION ( 'NONE',  ( 1.000000000000000000, 0.000000000000000000, 0.000000000000000000 ) ) ;
#603 = VERTEX_POINT ( 'NONE', #450 ) ;
#604 = CALENDAR_DATE ( 2026, 12, 9 ) ;
#605 = DIRECTION ( 'NONE',  ( -1.000000000000000000, 0.000000000000000000, 0.000000000000000000 ) ) ;
#606 = VERTEX_POINT ( 'NONE', #354 ) ;
#607 = DATE_TIME_ROLE ( 'classification_date' ) ;
#608 = CARTESIAN_POINT ( 'NONE',  ( 0.000000000000000000, 0.000000000000000000, 12.00000000000000000 ) ) ;
#609 = CIRCLE ( 'NONE', #211, 9.000000000000000000 ) ;
#610 = AXIS2_PLACEMENT_3D ( 'NONE', #476, #129, #437 ) ;
#611 = DIRECTION ( 'NONE',  ( 0.000000000000000000, 0.000000000000000000, -1.000000000000000000 ) ) ;
#612 = DIRECTION ( 'NONE',  ( 0.000000000000000000, 0.000000000000000000, 1.000000000000000000 ) ) ;
#613 = DIRECTION ( 'NONE',  ( 1.000000000000000000, 0.000000000000000000, 0.000000000000000000 ) ) ;
#614 = CARTESIAN_POINT ( 'NONE',  ( -7.000000000000000000, 0.000000000000000000, 9.000000000000000000 ) ) ;
#615 = EDGE_CURVE ( 'NONE', #45, #148, #394, .T. ) ;
#616 = DIRECTION ( 'NONE',  ( -0.000000000000000000, -0.000000000000000000, -1.000000000000000000 ) ) ;
#617 = DIRECTION ( 'NONE',  ( -0.000000000000000000, -0.000000000000000000, -1.000000000000000000 ) ) ;
#618 = ADVANCED_BREP_SHAPE_REPRESENTATION ( 'ARM-109_Bearing_and_dowel_keeper', ( #219, #204 ), #14 ) ;
#619 = AXIS2_PLACEMENT_3D ( 'NONE', #20, #221, #176 ) ;
#620 = AXIS2_PLACEMENT_3D ( 'NONE', #608, #170, #458 ) ;
#621 = EDGE_CURVE ( 'NONE', #591, #529, #154, .T. ) ;
#622 = FACE_OUTER_BOUND ( 'NONE', #111, .T. ) ;
#623 = PLANE ( 'NONE',  #630 ) ;
#624 = ORIENTED_EDGE ( 'NONE', *, *, #545, .F. ) ;
#625 = DIRECTION ( 'NONE',  ( -0.000000000000000000, -0.000000000000000000, -1.000000000000000000 ) ) ;
#626 = CARTESIAN_POINT ( 'NONE',  ( 0.000000000000000000, 14.00000000000000000, -0.2000000000000005107 ) ) ;
#627 = DIRECTION ( 'NONE',  ( 1.000000000000000000, 0.000000000000000000, 0.000000000000000000 ) ) ;
#628 = DIRECTION ( 'NONE',  ( 0.000000000000000000, 0.000000000000000000, -1.000000000000000000 ) ) ;
#629 = AXIS2_PLACEMENT_3D ( 'NONE', #376, #420, #409 ) ;
#630 = AXIS2_PLACEMENT_3D ( 'NONE', #386, #470, #237 ) ;
#631 = ORIENTED_EDGE ( 'NONE', *, *, #273, .T. ) ;
#632 = DIRECTION ( 'NONE',  ( 0.000000000000000000, 0.000000000000000000, 1.000000000000000000 ) ) ;
#633 = DIRECTION ( 'NONE',  ( 0.000000000000000000, 0.000000000000000000, -1.000000000000000000 ) ) ;
#634 = APPROVAL_DATE_TIME ( #440, #78 ) ;
#635 = ADVANCED_FACE ( 'NONE', ( #156 ), #301, .F. ) ;
#636 = CARTESIAN_POINT ( 'NONE',  ( 0.000000000000000000, 0.000000000000000000, 9.000000000000000000 ) ) ;
#637 = EDGE_LOOP ( 'NONE', ( #537, #109 ) ) ;
ENDSEC;
END-ISO-10303-21;
