ISO-10303-21;
HEADER;
FILE_DESCRIPTION (( 'STEP AP203' ),
    '1' );
FILE_NAME ('ARM-108_M3_standoff_32mm.step',
    '2026-09-13T02:58:16',
    ( '' ),
    ( '' ),
    'SwSTEP 2.0',
    'SolidWorks 2026',
    '' );
FILE_SCHEMA (( 'CONFIG_CONTROL_DESIGN' ));
ENDSEC;

DATA;
#1 = APPROVAL_ROLE ( '' ) ;
#2 = DIRECTION ( 'NONE',  ( 0.000000000000000000, 0.000000000000000000, 1.000000000000000000 ) ) ;
#3 = ORIENTED_EDGE ( 'NONE', *, *, #23, .T. ) ;
#4 = CIRCLE ( 'NONE', #166, 4.000000000000000000 ) ;
#5 = EDGE_LOOP ( 'NONE', ( #38, #3 ) ) ;
#6 = PLANE ( 'NONE',  #86 ) ;
#7 = DIRECTION ( 'NONE',  ( -1.000000000000000000, 0.000000000000000000, 0.000000000000000000 ) ) ;
#8 = DIRECTION ( 'NONE',  ( 0.000000000000000000, 0.000000000000000000, 1.000000000000000000 ) ) ;
#9 = VECTOR ( 'NONE', #119, 1000.000000000000000 ) ;
#10 = FACE_OUTER_BOUND ( 'NONE', #118, .T. ) ;
#11 = DIRECTION ( 'NONE',  ( -0.000000000000000000, -0.000000000000000000, -1.000000000000000000 ) ) ;
#12 =( LENGTH_UNIT ( ) NAMED_UNIT ( * ) SI_UNIT ( .MILLI., .METRE. ) );
#13 = SECURITY_CLASSIFICATION_LEVEL ( 'unclassified' ) ;
#14 = PERSON_AND_ORGANIZATION ( #183, #237 ) ;
#15 = COORDINATED_UNIVERSAL_TIME_OFFSET ( 6, 0, .BEHIND. ) ;
#16 = CC_DESIGN_PERSON_AND_ORGANIZATION_ASSIGNMENT ( #112, #127, ( #199 ) ) ;
#17 = FACE_BOUND ( 'NONE', #149, .T. ) ;
#18 = CC_DESIGN_APPROVAL ( #55, ( #59 ) ) ;
#19 = ORIENTED_EDGE ( 'NONE', *, *, #70, .T. ) ;
#20 = APPROVAL_PERSON_ORGANIZATION ( #221, #55, #201 ) ;
#21 = ORIENTED_EDGE ( 'NONE', *, *, #61, .F. ) ;
#22 = ORIENTED_EDGE ( 'NONE', *, *, #36, .T. ) ;
#23 = EDGE_CURVE ( 'NONE', #192, #100, #139, .T. ) ;
#24 = DIRECTION ( 'NONE',  ( -0.000000000000000000, -0.000000000000000000, -1.000000000000000000 ) ) ;
#25 =( GEOMETRIC_REPRESENTATION_CONTEXT ( 3 ) GLOBAL_UNCERTAINTY_ASSIGNED_CONTEXT ( ( #229 ) ) GLOBAL_UNIT_ASSIGNED_CONTEXT ( ( #12, #126, #90 ) ) REPRESENTATION_CONTEXT ( 'NONE', 'WORKASPACE' ) );
#26 = LINE ( 'NONE', #195, #223 ) ;
#27 = DIRECTION ( 'NONE',  ( -0.000000000000000000, -0.000000000000000000, -1.000000000000000000 ) ) ;
#28 = CARTESIAN_POINT ( 'NONE',  ( 0.000000000000000000, 0.000000000000000000, 32.00000000000000000 ) ) ;
#29 = CIRCLE ( 'NONE', #108, 4.000000000000000000 ) ;
#30 = DIRECTION ( 'NONE',  ( 1.000000000000000000, 0.000000000000000000, 0.000000000000000000 ) ) ;
#31 = PERSON_AND_ORGANIZATION_ROLE ( 'creator' ) ;
#32 = AXIS2_PLACEMENT_3D ( 'NONE', #137, #186, #83 ) ;
#33 = DATE_AND_TIME ( #34, #71 ) ;
#34 = CALENDAR_DATE ( 2026, 12, 9 ) ;
#35 = DIRECTION ( 'NONE',  ( -1.000000000000000000, 0.000000000000000000, 0.000000000000000000 ) ) ;
#36 = EDGE_CURVE ( 'NONE', #39, #81, #114, .T. ) ;
#37 = CC_DESIGN_PERSON_AND_ORGANIZATION_ASSIGNMENT ( #14, #95, ( #230 ) ) ;
#38 = ORIENTED_EDGE ( 'NONE', *, *, #225, .T. ) ;
#39 = VERTEX_POINT ( 'NONE', #217 ) ;
#40 = COORDINATED_UNIVERSAL_TIME_OFFSET ( 6, 0, .BEHIND. ) ;
#41 = ORIENTED_EDGE ( 'NONE', *, *, #235, .T. ) ;
#42 = ORIENTED_EDGE ( 'NONE', *, *, #225, .F. ) ;
#43 = ADVANCED_BREP_SHAPE_REPRESENTATION ( 'ARM-108_M3_standoff_32mm', ( #215, #202 ), #25 ) ;
#44 = LINE ( 'NONE', #240, #218 ) ;
#45 = CARTESIAN_POINT ( 'NONE',  ( 0.000000000000000000, 0.000000000000000000, 32.00000000000000000 ) ) ;
#46 = CARTESIAN_POINT ( 'NONE',  ( 0.000000000000000000, 0.000000000000000000, 0.000000000000000000 ) ) ;
#47 = DIRECTION ( 'NONE',  ( -0.000000000000000000, -0.000000000000000000, -1.000000000000000000 ) ) ;
#48 = AXIS2_PLACEMENT_3D ( 'NONE', #109, #2, #167 ) ;
#49 = CARTESIAN_POINT ( 'NONE',  ( 0.000000000000000000, 0.000000000000000000, 0.000000000000000000 ) ) ;
#50 = FACE_OUTER_BOUND ( 'NONE', #77, .T. ) ;
#51 = DATE_AND_TIME ( #72, #241 ) ;
#52 = LOCAL_TIME ( 21, 58, 16.00000000000000000, #40 ) ;
#53 = PERSON_AND_ORGANIZATION ( #183, #237 ) ;
#54 = EDGE_CURVE ( 'NONE', #208, #210, #124, .T. ) ;
#55 = APPROVAL ( #146, 'UNSPECIFIED' ) ;
#56 = CIRCLE ( 'NONE', #102, 1.600000000000000089 ) ;
#57 = ORIENTED_EDGE ( 'NONE', *, *, #115, .T. ) ;
#58 = ORIENTED_EDGE ( 'NONE', *, *, #74, .T. ) ;
#59 = PRODUCT_DEFINITION_FORMATION_WITH_SPECIFIED_SOURCE ( 'ANY', '', #199, .NOT_KNOWN. ) ;
#60 = DIRECTION ( 'NONE',  ( 1.000000000000000000, 0.000000000000000000, 0.000000000000000000 ) ) ;
#61 = EDGE_CURVE ( 'NONE', #209, #116, #4, .T. ) ;
#62 = EDGE_LOOP ( 'NONE', ( #188, #42, #189, #234 ) ) ;
#63 = LINE ( 'NONE', #164, #9 ) ;
#64 = DIRECTION ( 'NONE',  ( 0.000000000000000000, 0.000000000000000000, 1.000000000000000000 ) ) ;
#65 = AXIS2_PLACEMENT_3D ( 'NONE', #28, #85, #7 ) ;
#66 = CARTESIAN_POINT ( 'NONE',  ( 0.000000000000000000, 0.000000000000000000, 0.000000000000000000 ) ) ;
#67 = CARTESIAN_POINT ( 'NONE',  ( 4.000000000000000000, 4.898587196589412829E-16, 0.000000000000000000 ) ) ;
#68 = ADVANCED_FACE ( 'NONE', ( #107 ), #103, .T. ) ;
#69 = CARTESIAN_POINT ( 'NONE',  ( 0.000000000000000000, 0.000000000000000000, 32.00000000000000000 ) ) ;
#70 = EDGE_CURVE ( 'NONE', #116, #209, #29, .T. ) ;
#71 = LOCAL_TIME ( 21, 58, 16.00000000000000000, #220 ) ;
#72 = CALENDAR_DATE ( 2026, 12, 9 ) ;
#73 = DATE_AND_TIME ( #184, #129 ) ;
#74 = EDGE_CURVE ( 'NONE', #192, #116, #106, .T. ) ;
#75 = ADVANCED_FACE ( 'NONE', ( #163, #142 ), #6, .T. ) ;
#76 = DATE_TIME_ROLE ( 'classification_date' ) ;
#77 = EDGE_LOOP ( 'NONE', ( #21, #113 ) ) ;
#78 = ORIENTED_EDGE ( 'NONE', *, *, #216, .F. ) ;
#79 = ORIENTED_EDGE ( 'NONE', *, *, #131, .T. ) ;
#80 = AXIS2_PLACEMENT_3D ( 'NONE', #144, #64, #197 ) ;
#81 = VERTEX_POINT ( 'NONE', #177 ) ;
#82 = APPLICATION_CONTEXT ( 'configuration controlled 3d designs of mechanical parts and assemblies' ) ;
#83 = DIRECTION ( 'NONE',  ( 1.000000000000000000, 0.000000000000000000, 0.000000000000000000 ) ) ;
#84 = CARTESIAN_POINT ( 'NONE',  ( -1.600000000000000089, 0.000000000000000000, 32.00000000000000000 ) ) ;
#85 = DIRECTION ( 'NONE',  ( -0.000000000000000000, -0.000000000000000000, -1.000000000000000000 ) ) ;
#86 = AXIS2_PLACEMENT_3D ( 'NONE', #173, #122, #214 ) ;
#87 = DIRECTION ( 'NONE',  ( 1.000000000000000000, 0.000000000000000000, 0.000000000000000000 ) ) ;
#88 = CC_DESIGN_PERSON_AND_ORGANIZATION_ASSIGNMENT ( #203, #165, ( #187 ) ) ;
#89 = CARTESIAN_POINT ( 'NONE',  ( 0.000000000000000000, 0.000000000000000000, 32.00000000000000000 ) ) ;
#90 =( NAMED_UNIT ( * ) SI_UNIT ( $, .STERADIAN. ) SOLID_ANGLE_UNIT ( ) );
#91 = VECTOR ( 'NONE', #120, 1000.000000000000000 ) ;
#92 = COORDINATED_UNIVERSAL_TIME_OFFSET ( 6, 0, .BEHIND. ) ;
#93 = CALENDAR_DATE ( 2026, 12, 9 ) ;
#94 = EDGE_CURVE ( 'NONE', #100, #209, #26, .T. ) ;
#95 = PERSON_AND_ORGANIZATION_ROLE ( 'classification_officer' ) ;
#96 = CIRCLE ( 'NONE', #80, 1.600000000000000089 ) ;
#97 = ORIENTED_EDGE ( 'NONE', *, *, #54, .T. ) ;
#98 = ORIENTED_EDGE ( 'NONE', *, *, #36, .F. ) ;
#99 = CLOSED_SHELL ( 'NONE', ( #245, #68, #75, #248, #204, #157 ) ) ;
#100 = VERTEX_POINT ( 'NONE', #242 ) ;
#101 = ORIENTED_EDGE ( 'NONE', *, *, #54, .F. ) ;
#102 = AXIS2_PLACEMENT_3D ( 'NONE', #46, #174, #30 ) ;
#103 = CYLINDRICAL_SURFACE ( 'NONE', #65, 4.000000000000000000 ) ;
#104 = CYLINDRICAL_SURFACE ( 'NONE', #136, 4.000000000000000000 ) ;
#105 = DIRECTION ( 'NONE',  ( 1.000000000000000000, 0.000000000000000000, 0.000000000000000000 ) ) ;
#106 = LINE ( 'NONE', #198, #91 ) ;
#107 = FACE_OUTER_BOUND ( 'NONE', #135, .T. ) ;
#108 = AXIS2_PLACEMENT_3D ( 'NONE', #244, #159, #161 ) ;
#109 = CARTESIAN_POINT ( 'NONE',  ( 0.000000000000000000, 0.000000000000000000, 0.000000000000000000 ) ) ;
#110 = PRODUCT_RELATED_PRODUCT_CATEGORY ( 'detail', '', ( #199 ) ) ;
#111 = DIRECTION ( 'NONE',  ( 1.000000000000000000, 0.000000000000000000, 0.000000000000000000 ) ) ;
#112 = PERSON_AND_ORGANIZATION ( #183, #237 ) ;
#113 = ORIENTED_EDGE ( 'NONE', *, *, #70, .F. ) ;
#114 = CIRCLE ( 'NONE', #32, 1.600000000000000089 ) ;
#115 = EDGE_CURVE ( 'NONE', #81, #39, #56, .T. ) ;
#116 = VERTEX_POINT ( 'NONE', #67 ) ;
#117 = CC_DESIGN_PERSON_AND_ORGANIZATION_ASSIGNMENT ( #224, #181, ( #59 ) ) ;
#118 = EDGE_LOOP ( 'NONE', ( #78, #97, #41, #207 ) ) ;
#119 = DIRECTION ( 'NONE',  ( -0.000000000000000000, -0.000000000000000000, -1.000000000000000000 ) ) ;
#120 = DIRECTION ( 'NONE',  ( -0.000000000000000000, -0.000000000000000000, -1.000000000000000000 ) ) ;
#121 = CARTESIAN_POINT ( 'NONE',  ( 4.000000000000000000, 4.898587196589412829E-16, 32.00000000000000000 ) ) ;
#122 = DIRECTION ( 'NONE',  ( 0.000000000000000000, 0.000000000000000000, 1.000000000000000000 ) ) ;
#123 = DIRECTION ( 'NONE',  ( -1.000000000000000000, 0.000000000000000000, 0.000000000000000000 ) ) ;
#124 = CIRCLE ( 'NONE', #160, 1.600000000000000089 ) ;
#125 = DIRECTION ( 'NONE',  ( 0.000000000000000000, 0.000000000000000000, 1.000000000000000000 ) ) ;
#126 =( NAMED_UNIT ( * ) PLANE_ANGLE_UNIT ( ) SI_UNIT ( $, .RADIAN. ) );
#127 = PERSON_AND_ORGANIZATION_ROLE ( 'design_owner' ) ;
#128 = AXIS2_PLACEMENT_3D ( 'NONE', #154, #236, #60 ) ;
#129 = LOCAL_TIME ( 21, 58, 16.00000000000000000, #92 ) ;
#130 = APPROVAL_DATE_TIME ( #51, #162 ) ;
#131 = EDGE_CURVE ( 'NONE', #210, #208, #96, .T. ) ;
#132 = ORIENTED_EDGE ( 'NONE', *, *, #94, .F. ) ;
#133 = DESIGN_CONTEXT ( 'detailed design', #82, 'design' ) ;
#134 = ORIENTED_EDGE ( 'NONE', *, *, #235, .F. ) ;
#135 = EDGE_LOOP ( 'NONE', ( #238, #58, #19, #132 ) ) ;
#136 = AXIS2_PLACEMENT_3D ( 'NONE', #141, #11, #158 ) ;
#137 = CARTESIAN_POINT ( 'NONE',  ( 0.000000000000000000, 0.000000000000000000, 0.000000000000000000 ) ) ;
#138 = CARTESIAN_POINT ( 'NONE',  ( 0.000000000000000000, 0.000000000000000000, 32.00000000000000000 ) ) ;
#139 = CIRCLE ( 'NONE', #128, 4.000000000000000000 ) ;
#140 = AXIS2_PLACEMENT_3D ( 'NONE', #138, #47, #123 ) ;
#141 = CARTESIAN_POINT ( 'NONE',  ( 0.000000000000000000, 0.000000000000000000, 32.00000000000000000 ) ) ;
#142 = FACE_BOUND ( 'NONE', #153, .T. ) ;
#143 = CC_DESIGN_DATE_AND_TIME_ASSIGNMENT ( #168, #76, ( #230 ) ) ;
#144 = CARTESIAN_POINT ( 'NONE',  ( 0.000000000000000000, 0.000000000000000000, 32.00000000000000000 ) ) ;
#145 = DIRECTION ( 'NONE',  ( 0.000000000000000000, 0.000000000000000000, 1.000000000000000000 ) ) ;
#146 = APPROVAL_STATUS ( 'not_yet_approved' ) ;
#147 = PRODUCT_DEFINITION_SHAPE ( 'NONE', 'NONE',  #187 ) ;
#148 = APPLICATION_PROTOCOL_DEFINITION ( 'international standard', 'config_control_design', 1994, #82 ) ;
#149 = EDGE_LOOP ( 'NONE', ( #22, #57 ) ) ;
#150 = AXIS2_PLACEMENT_3D ( 'NONE', #45, #27, #35 ) ;
#151 = PERSON_AND_ORGANIZATION ( #183, #237 ) ;
#152 = APPLICATION_CONTEXT ( 'configuration controlled 3d designs of mechanical parts and assemblies' ) ;
#153 = EDGE_LOOP ( 'NONE', ( #228, #101 ) ) ;
#154 = CARTESIAN_POINT ( 'NONE',  ( 0.000000000000000000, 0.000000000000000000, 32.00000000000000000 ) ) ;
#155 = APPROVAL_PERSON_ORGANIZATION ( #53, #162, #1 ) ;
#156 = EDGE_LOOP ( 'NONE', ( #79, #232, #98, #134 ) ) ;
#157 = ADVANCED_FACE ( 'NONE', ( #10 ), #243, .F. ) ;
#158 = DIRECTION ( 'NONE',  ( -1.000000000000000000, 0.000000000000000000, 0.000000000000000000 ) ) ;
#159 = DIRECTION ( 'NONE',  ( 0.000000000000000000, 0.000000000000000000, 1.000000000000000000 ) ) ;
#160 = AXIS2_PLACEMENT_3D ( 'NONE', #89, #175, #105 ) ;
#161 = DIRECTION ( 'NONE',  ( 1.000000000000000000, 0.000000000000000000, 0.000000000000000000 ) ) ;
#162 = APPROVAL ( #179, 'UNSPECIFIED' ) ;
#163 = FACE_OUTER_BOUND ( 'NONE', #5, .T. ) ;
#164 = CARTESIAN_POINT ( 'NONE',  ( 1.600000000000000089, 1.959434878635765230E-16, 32.00000000000000000 ) ) ;
#165 = PERSON_AND_ORGANIZATION_ROLE ( 'creator' ) ;
#166 = AXIS2_PLACEMENT_3D ( 'NONE', #66, #8, #87 ) ;
#167 = DIRECTION ( 'NONE',  ( 1.000000000000000000, 0.000000000000000000, -0.000000000000000000 ) ) ;
#168 = DATE_AND_TIME ( #93, #185 ) ;
#169 = COORDINATED_UNIVERSAL_TIME_OFFSET ( 6, 0, .BEHIND. ) ;
#170 = AXIS2_PLACEMENT_3D ( 'NONE', #69, #145, #194 ) ;
#171 = CALENDAR_DATE ( 2026, 12, 9 ) ;
#172 = SHAPE_DEFINITION_REPRESENTATION ( #147, #43 ) ;
#173 = CARTESIAN_POINT ( 'NONE',  ( 0.000000000000000000, 0.000000000000000000, 32.00000000000000000 ) ) ;
#174 = DIRECTION ( 'NONE',  ( 0.000000000000000000, 0.000000000000000000, 1.000000000000000000 ) ) ;
#175 = DIRECTION ( 'NONE',  ( 0.000000000000000000, 0.000000000000000000, 1.000000000000000000 ) ) ;
#176 = CIRCLE ( 'NONE', #170, 4.000000000000000000 ) ;
#177 = CARTESIAN_POINT ( 'NONE',  ( 1.600000000000000089, 1.959434878635765230E-16, 0.000000000000000000 ) ) ;
#178 = FACE_OUTER_BOUND ( 'NONE', #62, .T. ) ;
#179 = APPROVAL_STATUS ( 'not_yet_approved' ) ;
#180 = CC_DESIGN_APPROVAL ( #162, ( #187 ) ) ;
#181 = PERSON_AND_ORGANIZATION_ROLE ( 'design_supplier' ) ;
#182 = PERSON_AND_ORGANIZATION ( #183, #237 ) ;
#183 = PERSON ( 'UNSPECIFIED', 'UNSPECIFIED', 'UNSPECIFIED', ('UNSPECIFIED'), ('UNSPECIFIED'), ('UNSPECIFIED') ) ;
#184 = CALENDAR_DATE ( 2026, 12, 9 ) ;
#185 = LOCAL_TIME ( 21, 58, 16.00000000000000000, #169 ) ;
#186 = DIRECTION ( 'NONE',  ( 0.000000000000000000, 0.000000000000000000, 1.000000000000000000 ) ) ;
#187 = PRODUCT_DEFINITION ( 'UNKNOWN', '', #59, #133 ) ;
#188 = ORIENTED_EDGE ( 'NONE', *, *, #74, .F. ) ;
#189 = ORIENTED_EDGE ( 'NONE', *, *, #94, .T. ) ;
#190 = CC_DESIGN_APPROVAL ( #206, ( #230 ) ) ;
#191 = APPROVAL_DATE_TIME ( #231, #206 ) ;
#192 = VERTEX_POINT ( 'NONE', #121 ) ;
#193 = CC_DESIGN_PERSON_AND_ORGANIZATION_ASSIGNMENT ( #182, #31, ( #59 ) ) ;
#194 = DIRECTION ( 'NONE',  ( 1.000000000000000000, 0.000000000000000000, 0.000000000000000000 ) ) ;
#195 = CARTESIAN_POINT ( 'NONE',  ( -4.000000000000000000, 0.000000000000000000, 32.00000000000000000 ) ) ;
#196 = FACE_OUTER_BOUND ( 'NONE', #156, .T. ) ;
#197 = DIRECTION ( 'NONE',  ( 1.000000000000000000, 0.000000000000000000, 0.000000000000000000 ) ) ;
#198 = CARTESIAN_POINT ( 'NONE',  ( 4.000000000000000000, 4.898587196589412829E-16, 32.00000000000000000 ) ) ;
#199 = PRODUCT ( 'ARM-108_M3_standoff_32mm', 'ARM-108_M3_standoff_32mm', '', ( #222 ) ) ;
#200 = APPROVAL_DATE_TIME ( #33, #55 ) ;
#201 = APPROVAL_ROLE ( '' ) ;
#202 = AXIS2_PLACEMENT_3D ( 'NONE', #49, #125, #111 ) ;
#203 = PERSON_AND_ORGANIZATION ( #183, #237 ) ;
#204 = ADVANCED_FACE ( 'NONE', ( #178 ), #104, .T. ) ;
#205 = APPLICATION_PROTOCOL_DEFINITION ( 'international standard', 'config_control_design', 1994, #152 ) ;
#206 = APPROVAL ( #226, 'UNSPECIFIED' ) ;
#207 = ORIENTED_EDGE ( 'NONE', *, *, #115, .F. ) ;
#208 = VERTEX_POINT ( 'NONE', #239 ) ;
#209 = VERTEX_POINT ( 'NONE', #211 ) ;
#210 = VERTEX_POINT ( 'NONE', #84 ) ;
#211 = CARTESIAN_POINT ( 'NONE',  ( -4.000000000000000000, 0.000000000000000000, 0.000000000000000000 ) ) ;
#212 = CC_DESIGN_SECURITY_CLASSIFICATION ( #230, ( #59 ) ) ;
#213 = CYLINDRICAL_SURFACE ( 'NONE', #150, 1.600000000000000089 ) ;
#214 = DIRECTION ( 'NONE',  ( 1.000000000000000000, 0.000000000000000000, -0.000000000000000000 ) ) ;
#215 = MANIFOLD_SOLID_BREP ( 'Standoff_OD8_ID3p2', #99 ) ;
#216 = EDGE_CURVE ( 'NONE', #208, #81, #63, .T. ) ;
#217 = CARTESIAN_POINT ( 'NONE',  ( -1.600000000000000089, 0.000000000000000000, 0.000000000000000000 ) ) ;
#218 = VECTOR ( 'NONE', #24, 1000.000000000000000 ) ;
#219 = DIRECTION ( 'NONE',  ( -0.000000000000000000, -0.000000000000000000, -1.000000000000000000 ) ) ;
#220 = COORDINATED_UNIVERSAL_TIME_OFFSET ( 6, 0, .BEHIND. ) ;
#221 = PERSON_AND_ORGANIZATION ( #183, #237 ) ;
#222 = MECHANICAL_CONTEXT ( 'NONE', #152, 'mechanical' ) ;
#223 = VECTOR ( 'NONE', #219, 1000.000000000000000 ) ;
#224 = PERSON_AND_ORGANIZATION ( #183, #237 ) ;
#225 = EDGE_CURVE ( 'NONE', #100, #192, #176, .T. ) ;
#226 = APPROVAL_STATUS ( 'not_yet_approved' ) ;
#227 = CC_DESIGN_DATE_AND_TIME_ASSIGNMENT ( #73, #247, ( #187 ) ) ;
#228 = ORIENTED_EDGE ( 'NONE', *, *, #131, .F. ) ;
#229 = UNCERTAINTY_MEASURE_WITH_UNIT (LENGTH_MEASURE( 1.000000000000000082E-05 ), #12, 'distance_accuracy_value', 'NONE');
#230 = SECURITY_CLASSIFICATION ( '', '', #13 ) ;
#231 = DATE_AND_TIME ( #171, #52 ) ;
#232 = ORIENTED_EDGE ( 'NONE', *, *, #216, .T. ) ;
#233 = APPROVAL_ROLE ( '' ) ;
#234 = ORIENTED_EDGE ( 'NONE', *, *, #61, .T. ) ;
#235 = EDGE_CURVE ( 'NONE', #210, #39, #44, .T. ) ;
#236 = DIRECTION ( 'NONE',  ( 0.000000000000000000, 0.000000000000000000, 1.000000000000000000 ) ) ;
#237 = ORGANIZATION ( 'UNSPECIFIED', 'UNSPECIFIED', '' ) ;
#238 = ORIENTED_EDGE ( 'NONE', *, *, #23, .F. ) ;
#239 = CARTESIAN_POINT ( 'NONE',  ( 1.600000000000000089, 1.959434878635765230E-16, 32.00000000000000000 ) ) ;
#240 = CARTESIAN_POINT ( 'NONE',  ( -1.600000000000000089, 0.000000000000000000, 32.00000000000000000 ) ) ;
#241 = LOCAL_TIME ( 21, 58, 16.00000000000000000, #15 ) ;
#242 = CARTESIAN_POINT ( 'NONE',  ( -4.000000000000000000, 0.000000000000000000, 32.00000000000000000 ) ) ;
#243 = CYLINDRICAL_SURFACE ( 'NONE', #140, 1.600000000000000089 ) ;
#244 = CARTESIAN_POINT ( 'NONE',  ( 0.000000000000000000, 0.000000000000000000, 0.000000000000000000 ) ) ;
#245 = ADVANCED_FACE ( 'NONE', ( #196 ), #213, .F. ) ;
#246 = APPROVAL_PERSON_ORGANIZATION ( #151, #206, #233 ) ;
#247 = DATE_TIME_ROLE ( 'creation_date' ) ;
#248 = ADVANCED_FACE ( 'NONE', ( #50, #17 ), #249, .F. ) ;
#249 = PLANE ( 'NONE',  #48 ) ;
ENDSEC;
END-ISO-10303-21;
