ISO-10303-21;
HEADER;
FILE_DESCRIPTION (( 'STEP AP203' ),
    '1' );
FILE_NAME ('ARM-206_Gripper_lug_crush_spacer_13mm.step',
    '2026-09-13T02:58:51',
    ( '' ),
    ( '' ),
    'SwSTEP 2.0',
    'SolidWorks 2026',
    '' );
FILE_SCHEMA (( 'CONFIG_CONTROL_DESIGN' ));
ENDSEC;

DATA;
#1 = DIRECTION ( 'NONE',  ( 1.000000000000000000, 0.000000000000000000, 0.000000000000000000 ) ) ;
#2 =( NAMED_UNIT ( * ) PLANE_ANGLE_UNIT ( ) SI_UNIT ( $, .RADIAN. ) );
#3 = CIRCLE ( 'NONE', #211, 2.149999999999999911 ) ;
#4 = DATE_TIME_ROLE ( 'creation_date' ) ;
#5 = CC_DESIGN_APPROVAL ( #64, ( #106 ) ) ;
#6 = UNCERTAINTY_MEASURE_WITH_UNIT (LENGTH_MEASURE( 1.000000000000000082E-05 ), #82, 'distance_accuracy_value', 'NONE');
#7 = PERSON_AND_ORGANIZATION ( #165, #115 ) ;
#8 = DESIGN_CONTEXT ( 'detailed design', #196, 'design' ) ;
#9 = VERTEX_POINT ( 'NONE', #12 ) ;
#10 = EDGE_CURVE ( 'NONE', #89, #52, #222, .T. ) ;
#11 = CARTESIAN_POINT ( 'NONE',  ( -2.149999999999999911, 0.000000000000000000, 13.00000000000000000 ) ) ;
#12 = CARTESIAN_POINT ( 'NONE',  ( 4.000000000000000000, 4.898587196589411843E-16, 13.00000000000000000 ) ) ;
#13 = DIRECTION ( 'NONE',  ( 0.000000000000000000, 0.000000000000000000, 1.000000000000000000 ) ) ;
#14 = AXIS2_PLACEMENT_3D ( 'NONE', #200, #249, #81 ) ;
#15 = VERTEX_POINT ( 'NONE', #225 ) ;
#16 = DIRECTION ( 'NONE',  ( -0.000000000000000000, -0.000000000000000000, -1.000000000000000000 ) ) ;
#17 = FACE_OUTER_BOUND ( 'NONE', #51, .T. ) ;
#18 = AXIS2_PLACEMENT_3D ( 'NONE', #157, #63, #1 ) ;
#19 = FACE_BOUND ( 'NONE', #74, .T. ) ;
#20 = FACE_OUTER_BOUND ( 'NONE', #127, .T. ) ;
#21 = CC_DESIGN_PERSON_AND_ORGANIZATION_ASSIGNMENT ( #144, #217, ( #49 ) ) ;
#22 = COORDINATED_UNIVERSAL_TIME_OFFSET ( 6, 0, .BEHIND. ) ;
#23 = VECTOR ( 'NONE', #98, 1000.000000000000000 ) ;
#24 = PERSON_AND_ORGANIZATION ( #165, #115 ) ;
#25 = DATE_AND_TIME ( #85, #235 ) ;
#26 = APPROVAL_DATE_TIME ( #66, #64 ) ;
#27 = ORIENTED_EDGE ( 'NONE', *, *, #10, .T. ) ;
#28 = ORIENTED_EDGE ( 'NONE', *, *, #248, .F. ) ;
#29 = ORIENTED_EDGE ( 'NONE', *, *, #60, .T. ) ;
#30 = VERTEX_POINT ( 'NONE', #239 ) ;
#31 = CC_DESIGN_PERSON_AND_ORGANIZATION_ASSIGNMENT ( #101, #103, ( #56 ) ) ;
#32 = ORIENTED_EDGE ( 'NONE', *, *, #68, .F. ) ;
#33 = DIRECTION ( 'NONE',  ( 1.000000000000000000, 0.000000000000000000, 0.000000000000000000 ) ) ;
#34 = DIRECTION ( 'NONE',  ( -1.000000000000000000, 0.000000000000000000, 0.000000000000000000 ) ) ;
#35 = DIRECTION ( 'NONE',  ( 0.000000000000000000, 0.000000000000000000, 1.000000000000000000 ) ) ;
#36 = VECTOR ( 'NONE', #241, 1000.000000000000000 ) ;
#37 = DIRECTION ( 'NONE',  ( -1.000000000000000000, 0.000000000000000000, 0.000000000000000000 ) ) ;
#38 = DIRECTION ( 'NONE',  ( 0.000000000000000000, 0.000000000000000000, 1.000000000000000000 ) ) ;
#39 = LOCAL_TIME ( 21, 58, 51.00000000000000000, #178 ) ;
#40 = APPROVAL_ROLE ( '' ) ;
#41 = DATE_AND_TIME ( #104, #139 ) ;
#42 = CIRCLE ( 'NONE', #14, 4.000000000000000000 ) ;
#43 = SHAPE_DEFINITION_REPRESENTATION ( #220, #55 ) ;
#44 = ADVANCED_FACE ( 'NONE', ( #88 ), #71, .F. ) ;
#45 = APPLICATION_PROTOCOL_DEFINITION ( 'international standard', 'config_control_design', 1994, #196 ) ;
#46 = DATE_AND_TIME ( #121, #159 ) ;
#47 = CIRCLE ( 'NONE', #193, 4.000000000000000000 ) ;
#48 = PRODUCT_RELATED_PRODUCT_CATEGORY ( 'detail', '', ( #49 ) ) ;
#49 = PRODUCT ( 'ARM-206_Gripper_lug_crush_spacer_13mm', 'ARM-206_Gripper_lug_crush_spacer_13mm', '', ( #140 ) ) ;
#50 = APPROVAL_PERSON_ORGANIZATION ( #7, #137, #162 ) ;
#51 = EDGE_LOOP ( 'NONE', ( #147, #194, #29, #221 ) ) ;
#52 = VERTEX_POINT ( 'NONE', #91 ) ;
#53 = VERTEX_POINT ( 'NONE', #240 ) ;
#54 = EDGE_CURVE ( 'NONE', #89, #53, #224, .T. ) ;
#55 = ADVANCED_BREP_SHAPE_REPRESENTATION ( 'ARM-206_Gripper_lug_crush_spacer_13mm', ( #58, #164 ), #143 ) ;
#56 = PRODUCT_DEFINITION_FORMATION_WITH_SPECIFIED_SOURCE ( 'ANY', '', #49, .NOT_KNOWN. ) ;
#57 = EDGE_LOOP ( 'NONE', ( #227, #209, #78, #110 ) ) ;
#58 = MANIFOLD_SOLID_BREP ( 'Spacer_between_POM_mounting_ears', #118 ) ;
#59 = ORIENTED_EDGE ( 'NONE', *, *, #68, .T. ) ;
#60 = EDGE_CURVE ( 'NONE', #30, #15, #208, .T. ) ;
#61 = FACE_OUTER_BOUND ( 'NONE', #113, .T. ) ;
#62 = CARTESIAN_POINT ( 'NONE',  ( 0.000000000000000000, 0.000000000000000000, 0.000000000000000000 ) ) ;
#63 = DIRECTION ( 'NONE',  ( 0.000000000000000000, 0.000000000000000000, 1.000000000000000000 ) ) ;
#64 = APPROVAL ( #160, 'UNSPECIFIED' ) ;
#65 = FACE_OUTER_BOUND ( 'NONE', #192, .T. ) ;
#66 = DATE_AND_TIME ( #182, #39 ) ;
#67 = CIRCLE ( 'NONE', #183, 4.000000000000000000 ) ;
#68 = EDGE_CURVE ( 'NONE', #53, #89, #3, .T. ) ;
#69 = CALENDAR_DATE ( 2026, 12, 9 ) ;
#70 = DIRECTION ( 'NONE',  ( 1.000000000000000000, 0.000000000000000000, 0.000000000000000000 ) ) ;
#71 = CYLINDRICAL_SURFACE ( 'NONE', #238, 2.149999999999999911 ) ;
#72 = CC_DESIGN_SECURITY_CLASSIFICATION ( #106, ( #56 ) ) ;
#73 = CARTESIAN_POINT ( 'NONE',  ( 0.000000000000000000, 0.000000000000000000, 13.00000000000000000 ) ) ;
#74 = EDGE_LOOP ( 'NONE', ( #243, #130 ) ) ;
#75 = ADVANCED_FACE ( 'NONE', ( #65 ), #212, .T. ) ;
#76 = CARTESIAN_POINT ( 'NONE',  ( 0.000000000000000000, 0.000000000000000000, 13.00000000000000000 ) ) ;
#77 = APPROVAL_PERSON_ORGANIZATION ( #232, #216, #40 ) ;
#78 = ORIENTED_EDGE ( 'NONE', *, *, #87, .F. ) ;
#79 = CARTESIAN_POINT ( 'NONE',  ( 0.000000000000000000, 0.000000000000000000, 13.00000000000000000 ) ) ;
#80 = CARTESIAN_POINT ( 'NONE',  ( 4.000000000000000000, 4.898587196589411843E-16, 0.000000000000000000 ) ) ;
#81 = DIRECTION ( 'NONE',  ( 1.000000000000000000, 0.000000000000000000, 0.000000000000000000 ) ) ;
#82 =( LENGTH_UNIT ( ) NAMED_UNIT ( * ) SI_UNIT ( .MILLI., .METRE. ) );
#83 =( NAMED_UNIT ( * ) SI_UNIT ( $, .STERADIAN. ) SOLID_ANGLE_UNIT ( ) );
#84 = PERSON_AND_ORGANIZATION ( #165, #115 ) ;
#85 = CALENDAR_DATE ( 2026, 12, 9 ) ;
#86 = CARTESIAN_POINT ( 'NONE',  ( 0.000000000000000000, 0.000000000000000000, 0.000000000000000000 ) ) ;
#87 = EDGE_CURVE ( 'NONE', #52, #129, #174, .T. ) ;
#88 = FACE_OUTER_BOUND ( 'NONE', #57, .T. ) ;
#89 = VERTEX_POINT ( 'NONE', #114 ) ;
#90 = EDGE_CURVE ( 'NONE', #9, #188, #136, .T. ) ;
#91 = CARTESIAN_POINT ( 'NONE',  ( -2.149999999999999911, 0.000000000000000000, 0.000000000000000000 ) ) ;
#92 = DIRECTION ( 'NONE',  ( 1.000000000000000000, 0.000000000000000000, 0.000000000000000000 ) ) ;
#93 = EDGE_LOOP ( 'NONE', ( #107, #32 ) ) ;
#94 = CC_DESIGN_DATE_AND_TIME_ASSIGNMENT ( #234, #184, ( #106 ) ) ;
#95 = DIRECTION ( 'NONE',  ( 0.000000000000000000, 0.000000000000000000, 1.000000000000000000 ) ) ;
#96 = DIRECTION ( 'NONE',  ( 1.000000000000000000, 0.000000000000000000, -0.000000000000000000 ) ) ;
#97 = VECTOR ( 'NONE', #245, 1000.000000000000000 ) ;
#98 = DIRECTION ( 'NONE',  ( -0.000000000000000000, -0.000000000000000000, -1.000000000000000000 ) ) ;
#99 = CARTESIAN_POINT ( 'NONE',  ( 0.000000000000000000, 0.000000000000000000, 0.000000000000000000 ) ) ;
#100 = DIRECTION ( 'NONE',  ( 1.000000000000000000, 0.000000000000000000, -0.000000000000000000 ) ) ;
#101 = PERSON_AND_ORGANIZATION ( #165, #115 ) ;
#102 = EDGE_CURVE ( 'NONE', #9, #30, #67, .T. ) ;
#103 = PERSON_AND_ORGANIZATION_ROLE ( 'creator' ) ;
#104 = CALENDAR_DATE ( 2026, 12, 9 ) ;
#105 = CC_DESIGN_PERSON_AND_ORGANIZATION_ASSIGNMENT ( #180, #236, ( #56 ) ) ;
#106 = SECURITY_CLASSIFICATION ( '', '', #138 ) ;
#107 = ORIENTED_EDGE ( 'NONE', *, *, #54, .F. ) ;
#108 = ORIENTED_EDGE ( 'NONE', *, *, #102, .T. ) ;
#109 = VECTOR ( 'NONE', #131, 1000.000000000000000 ) ;
#110 = ORIENTED_EDGE ( 'NONE', *, *, #10, .F. ) ;
#111 = ORIENTED_EDGE ( 'NONE', *, *, #102, .F. ) ;
#112 = ADVANCED_FACE ( 'NONE', ( #61 ), #177, .F. ) ;
#113 = EDGE_LOOP ( 'NONE', ( #170, #59, #27, #242 ) ) ;
#114 = CARTESIAN_POINT ( 'NONE',  ( -2.149999999999999911, 0.000000000000000000, 13.00000000000000000 ) ) ;
#115 = ORGANIZATION ( 'UNSPECIFIED', 'UNSPECIFIED', '' ) ;
#116 = CARTESIAN_POINT ( 'NONE',  ( 0.000000000000000000, 0.000000000000000000, 13.00000000000000000 ) ) ;
#117 = DIRECTION ( 'NONE',  ( -1.000000000000000000, 0.000000000000000000, 0.000000000000000000 ) ) ;
#118 = CLOSED_SHELL ( 'NONE', ( #44, #75, #172, #204, #150, #112 ) ) ;
#119 = DIRECTION ( 'NONE',  ( 1.000000000000000000, 0.000000000000000000, 0.000000000000000000 ) ) ;
#120 = CARTESIAN_POINT ( 'NONE',  ( 0.000000000000000000, 0.000000000000000000, 13.00000000000000000 ) ) ;
#121 = CALENDAR_DATE ( 2026, 12, 9 ) ;
#122 = APPLICATION_PROTOCOL_DEFINITION ( 'international standard', 'config_control_design', 1994, #179 ) ;
#123 = COORDINATED_UNIVERSAL_TIME_OFFSET ( 6, 0, .BEHIND. ) ;
#124 = CC_DESIGN_DATE_AND_TIME_ASSIGNMENT ( #25, #4, ( #187 ) ) ;
#125 = COORDINATED_UNIVERSAL_TIME_OFFSET ( 6, 0, .BEHIND. ) ;
#126 = ORIENTED_EDGE ( 'NONE', *, *, #153, .F. ) ;
#127 = EDGE_LOOP ( 'NONE', ( #210, #108 ) ) ;
#128 = AXIS2_PLACEMENT_3D ( 'NONE', #116, #35, #96 ) ;
#129 = VERTEX_POINT ( 'NONE', #247 ) ;
#130 = ORIENTED_EDGE ( 'NONE', *, *, #163, .T. ) ;
#131 = DIRECTION ( 'NONE',  ( -0.000000000000000000, -0.000000000000000000, -1.000000000000000000 ) ) ;
#132 = AXIS2_PLACEMENT_3D ( 'NONE', #62, #173, #33 ) ;
#133 = DIRECTION ( 'NONE',  ( -0.000000000000000000, -0.000000000000000000, -1.000000000000000000 ) ) ;
#134 = CARTESIAN_POINT ( 'NONE',  ( 2.149999999999999911, 2.632990618166808742E-16, 13.00000000000000000 ) ) ;
#135 = PLANE ( 'NONE',  #128 ) ;
#136 = LINE ( 'NONE', #197, #23 ) ;
#137 = APPROVAL ( #219, 'UNSPECIFIED' ) ;
#138 = SECURITY_CLASSIFICATION_LEVEL ( 'unclassified' ) ;
#139 = LOCAL_TIME ( 21, 58, 51.00000000000000000, #125 ) ;
#140 = MECHANICAL_CONTEXT ( 'NONE', #179, 'mechanical' ) ;
#141 = APPROVAL_DATE_TIME ( #46, #216 ) ;
#142 = APPROVAL_ROLE ( '' ) ;
#143 =( GEOMETRIC_REPRESENTATION_CONTEXT ( 3 ) GLOBAL_UNCERTAINTY_ASSIGNED_CONTEXT ( ( #6 ) ) GLOBAL_UNIT_ASSIGNED_CONTEXT ( ( #82, #2, #83 ) ) REPRESENTATION_CONTEXT ( 'NONE', 'WORKASPACE' ) );
#144 = PERSON_AND_ORGANIZATION ( #165, #115 ) ;
#145 = EDGE_CURVE ( 'NONE', #53, #129, #171, .T. ) ;
#146 = CARTESIAN_POINT ( 'NONE',  ( 0.000000000000000000, 0.000000000000000000, 13.00000000000000000 ) ) ;
#147 = ORIENTED_EDGE ( 'NONE', *, *, #90, .F. ) ;
#148 = ORIENTED_EDGE ( 'NONE', *, *, #60, .F. ) ;
#149 = DIRECTION ( 'NONE',  ( 1.000000000000000000, 0.000000000000000000, 0.000000000000000000 ) ) ;
#150 = ADVANCED_FACE ( 'NONE', ( #17 ), #154, .T. ) ;
#151 = CC_DESIGN_APPROVAL ( #137, ( #56 ) ) ;
#152 = CARTESIAN_POINT ( 'NONE',  ( 0.000000000000000000, 0.000000000000000000, 13.00000000000000000 ) ) ;
#153 = EDGE_CURVE ( 'NONE', #15, #188, #42, .T. ) ;
#154 = CYLINDRICAL_SURFACE ( 'NONE', #233, 4.000000000000000000 ) ;
#155 = CARTESIAN_POINT ( 'NONE',  ( 0.000000000000000000, 0.000000000000000000, 0.000000000000000000 ) ) ;
#156 = CIRCLE ( 'NONE', #18, 4.000000000000000000 ) ;
#157 = CARTESIAN_POINT ( 'NONE',  ( 0.000000000000000000, 0.000000000000000000, 13.00000000000000000 ) ) ;
#158 = APPROVAL_STATUS ( 'not_yet_approved' ) ;
#159 = LOCAL_TIME ( 21, 58, 51.00000000000000000, #123 ) ;
#160 = APPROVAL_STATUS ( 'not_yet_approved' ) ;
#161 = AXIS2_PLACEMENT_3D ( 'NONE', #73, #13, #92 ) ;
#162 = APPROVAL_ROLE ( '' ) ;
#163 = EDGE_CURVE ( 'NONE', #129, #52, #189, .T. ) ;
#164 = AXIS2_PLACEMENT_3D ( 'NONE', #86, #231, #70 ) ;
#165 = PERSON ( 'UNSPECIFIED', 'UNSPECIFIED', 'UNSPECIFIED', ('UNSPECIFIED'), ('UNSPECIFIED'), ('UNSPECIFIED') ) ;
#166 = EDGE_LOOP ( 'NONE', ( #126, #28 ) ) ;
#167 = CARTESIAN_POINT ( 'NONE',  ( -4.000000000000000000, 0.000000000000000000, 13.00000000000000000 ) ) ;
#168 = DIRECTION ( 'NONE',  ( 0.000000000000000000, 0.000000000000000000, 1.000000000000000000 ) ) ;
#169 = CC_DESIGN_PERSON_AND_ORGANIZATION_ASSIGNMENT ( #185, #205, ( #187 ) ) ;
#170 = ORIENTED_EDGE ( 'NONE', *, *, #145, .F. ) ;
#171 = LINE ( 'NONE', #134, #97 ) ;
#172 = ADVANCED_FACE ( 'NONE', ( #20, #214 ), #135, .T. ) ;
#173 = DIRECTION ( 'NONE',  ( 0.000000000000000000, 0.000000000000000000, 1.000000000000000000 ) ) ;
#174 = CIRCLE ( 'NONE', #132, 2.149999999999999911 ) ;
#175 = PLANE ( 'NONE',  #246 ) ;
#176 = DIRECTION ( 'NONE',  ( 0.000000000000000000, 0.000000000000000000, 1.000000000000000000 ) ) ;
#177 = CYLINDRICAL_SURFACE ( 'NONE', #202, 2.149999999999999911 ) ;
#178 = COORDINATED_UNIVERSAL_TIME_OFFSET ( 6, 0, .BEHIND. ) ;
#179 = APPLICATION_CONTEXT ( 'configuration controlled 3d designs of mechanical parts and assemblies' ) ;
#180 = PERSON_AND_ORGANIZATION ( #165, #115 ) ;
#181 = APPROVAL_PERSON_ORGANIZATION ( #84, #64, #142 ) ;
#182 = CALENDAR_DATE ( 2026, 12, 9 ) ;
#183 = AXIS2_PLACEMENT_3D ( 'NONE', #195, #95, #228 ) ;
#184 = DATE_TIME_ROLE ( 'classification_date' ) ;
#185 = PERSON_AND_ORGANIZATION ( #165, #115 ) ;
#186 = CC_DESIGN_APPROVAL ( #216, ( #187 ) ) ;
#187 = PRODUCT_DEFINITION ( 'UNKNOWN', '', #56, #8 ) ;
#188 = VERTEX_POINT ( 'NONE', #80 ) ;
#189 = CIRCLE ( 'NONE', #218, 2.149999999999999911 ) ;
#190 = DIRECTION ( 'NONE',  ( -1.000000000000000000, 0.000000000000000000, 0.000000000000000000 ) ) ;
#191 = ORIENTED_EDGE ( 'NONE', *, *, #248, .T. ) ;
#192 = EDGE_LOOP ( 'NONE', ( #111, #226, #191, #148 ) ) ;
#193 = AXIS2_PLACEMENT_3D ( 'NONE', #215, #38, #119 ) ;
#194 = ORIENTED_EDGE ( 'NONE', *, *, #223, .F. ) ;
#195 = CARTESIAN_POINT ( 'NONE',  ( 0.000000000000000000, 0.000000000000000000, 13.00000000000000000 ) ) ;
#196 = APPLICATION_CONTEXT ( 'configuration controlled 3d designs of mechanical parts and assemblies' ) ;
#197 = CARTESIAN_POINT ( 'NONE',  ( 4.000000000000000000, 4.898587196589411843E-16, 13.00000000000000000 ) ) ;
#198 = FACE_OUTER_BOUND ( 'NONE', #166, .T. ) ;
#199 = AXIS2_PLACEMENT_3D ( 'NONE', #120, #133, #117 ) ;
#200 = CARTESIAN_POINT ( 'NONE',  ( 0.000000000000000000, 0.000000000000000000, 0.000000000000000000 ) ) ;
#201 = PERSON_AND_ORGANIZATION_ROLE ( 'classification_officer' ) ;
#202 = AXIS2_PLACEMENT_3D ( 'NONE', #152, #16, #37 ) ;
#203 = APPROVAL_DATE_TIME ( #41, #137 ) ;
#204 = ADVANCED_FACE ( 'NONE', ( #198, #19 ), #175, .F. ) ;
#205 = PERSON_AND_ORGANIZATION_ROLE ( 'creator' ) ;
#206 = COORDINATED_UNIVERSAL_TIME_OFFSET ( 6, 0, .BEHIND. ) ;
#207 = DIRECTION ( 'NONE',  ( -0.000000000000000000, -0.000000000000000000, -1.000000000000000000 ) ) ;
#208 = LINE ( 'NONE', #167, #36 ) ;
#209 = ORIENTED_EDGE ( 'NONE', *, *, #145, .T. ) ;
#210 = ORIENTED_EDGE ( 'NONE', *, *, #223, .T. ) ;
#211 = AXIS2_PLACEMENT_3D ( 'NONE', #76, #168, #149 ) ;
#212 = CYLINDRICAL_SURFACE ( 'NONE', #199, 4.000000000000000000 ) ;
#213 = DIRECTION ( 'NONE',  ( -0.000000000000000000, -0.000000000000000000, -1.000000000000000000 ) ) ;
#214 = FACE_BOUND ( 'NONE', #93, .T. ) ;
#215 = CARTESIAN_POINT ( 'NONE',  ( 0.000000000000000000, 0.000000000000000000, 0.000000000000000000 ) ) ;
#216 = APPROVAL ( #158, 'UNSPECIFIED' ) ;
#217 = PERSON_AND_ORGANIZATION_ROLE ( 'design_owner' ) ;
#218 = AXIS2_PLACEMENT_3D ( 'NONE', #99, #176, #229 ) ;
#219 = APPROVAL_STATUS ( 'not_yet_approved' ) ;
#220 = PRODUCT_DEFINITION_SHAPE ( 'NONE', 'NONE',  #187 ) ;
#221 = ORIENTED_EDGE ( 'NONE', *, *, #153, .T. ) ;
#222 = LINE ( 'NONE', #11, #109 ) ;
#223 = EDGE_CURVE ( 'NONE', #30, #9, #156, .T. ) ;
#224 = CIRCLE ( 'NONE', #161, 2.149999999999999911 ) ;
#225 = CARTESIAN_POINT ( 'NONE',  ( -4.000000000000000000, 0.000000000000000000, 0.000000000000000000 ) ) ;
#226 = ORIENTED_EDGE ( 'NONE', *, *, #90, .T. ) ;
#227 = ORIENTED_EDGE ( 'NONE', *, *, #54, .T. ) ;
#228 = DIRECTION ( 'NONE',  ( 1.000000000000000000, 0.000000000000000000, 0.000000000000000000 ) ) ;
#229 = DIRECTION ( 'NONE',  ( 1.000000000000000000, 0.000000000000000000, 0.000000000000000000 ) ) ;
#230 = DIRECTION ( 'NONE',  ( 0.000000000000000000, 0.000000000000000000, 1.000000000000000000 ) ) ;
#231 = DIRECTION ( 'NONE',  ( 0.000000000000000000, 0.000000000000000000, 1.000000000000000000 ) ) ;
#232 = PERSON_AND_ORGANIZATION ( #165, #115 ) ;
#233 = AXIS2_PLACEMENT_3D ( 'NONE', #79, #213, #34 ) ;
#234 = DATE_AND_TIME ( #69, #244 ) ;
#235 = LOCAL_TIME ( 21, 58, 51.00000000000000000, #22 ) ;
#236 = PERSON_AND_ORGANIZATION_ROLE ( 'design_supplier' ) ;
#237 = CC_DESIGN_PERSON_AND_ORGANIZATION_ASSIGNMENT ( #24, #201, ( #106 ) ) ;
#238 = AXIS2_PLACEMENT_3D ( 'NONE', #146, #207, #190 ) ;
#239 = CARTESIAN_POINT ( 'NONE',  ( -4.000000000000000000, 0.000000000000000000, 13.00000000000000000 ) ) ;
#240 = CARTESIAN_POINT ( 'NONE',  ( 2.149999999999999911, 2.632990618166808742E-16, 13.00000000000000000 ) ) ;
#241 = DIRECTION ( 'NONE',  ( -0.000000000000000000, -0.000000000000000000, -1.000000000000000000 ) ) ;
#242 = ORIENTED_EDGE ( 'NONE', *, *, #163, .F. ) ;
#243 = ORIENTED_EDGE ( 'NONE', *, *, #87, .T. ) ;
#244 = LOCAL_TIME ( 21, 58, 51.00000000000000000, #206 ) ;
#245 = DIRECTION ( 'NONE',  ( -0.000000000000000000, -0.000000000000000000, -1.000000000000000000 ) ) ;
#246 = AXIS2_PLACEMENT_3D ( 'NONE', #155, #230, #100 ) ;
#247 = CARTESIAN_POINT ( 'NONE',  ( 2.149999999999999911, 2.632990618166808742E-16, 0.000000000000000000 ) ) ;
#248 = EDGE_CURVE ( 'NONE', #188, #15, #47, .T. ) ;
#249 = DIRECTION ( 'NONE',  ( 0.000000000000000000, 0.000000000000000000, 1.000000000000000000 ) ) ;
ENDSEC;
END-ISO-10303-21;
