ISO-10303-21;
HEADER;
FILE_DESCRIPTION (( 'STEP AP203' ),
    '1' );
FILE_NAME ('ARM-104_Elbow_bearing_cheek.step',
    '2026-09-13T02:58:02',
    ( '' ),
    ( '' ),
    'SwSTEP 2.0',
    'SolidWorks 2026',
    '' );
FILE_SCHEMA (( 'CONFIG_CONTROL_DESIGN' ));
ENDSEC;

DATA;
#1 = ORIENTED_EDGE ( 'NONE', *, *, #118, .T. ) ;
#2 = ADVANCED_FACE ( 'NONE', ( #298 ), #24, .F. ) ;
#3 = VERTEX_POINT ( 'NONE', #368 ) ;
#4 = DIRECTION ( 'NONE',  ( 0.000000000000000000, 0.000000000000000000, -1.000000000000000000 ) ) ;
#5 = CARTESIAN_POINT ( 'NONE',  ( 12.90000000000000036, 0.000000000000000000, 6.999999999999999112 ) ) ;
#6 = ORIENTED_EDGE ( 'NONE', *, *, #84, .T. ) ;
#7 = CC_DESIGN_PERSON_AND_ORGANIZATION_ASSIGNMENT ( #200, #565, ( #593 ) ) ;
#8 = DIRECTION ( 'NONE',  ( -1.000000000000000000, 0.000000000000000000, 0.000000000000000000 ) ) ;
#9 = ORIENTED_EDGE ( 'NONE', *, *, #10, .T. ) ;
#10 = EDGE_CURVE ( 'NONE', #506, #510, #640, .T. ) ;
#11 = CARTESIAN_POINT ( 'NONE',  ( -27.00000000000000000, -11.00000000000000000, 4.000000000000000000 ) ) ;
#12 = VERTEX_POINT ( 'NONE', #101 ) ;
#13 = EDGE_CURVE ( 'NONE', #571, #93, #260, .T. ) ;
#14 = DIRECTION ( 'NONE',  ( 0.000000000000000000, 0.000000000000000000, -1.000000000000000000 ) ) ;
#15 = AXIS2_PLACEMENT_3D ( 'NONE', #447, #589, #249 ) ;
#16 = VECTOR ( 'NONE', #351, 1000.000000000000000 ) ;
#17 = CARTESIAN_POINT ( 'NONE',  ( 0.000000000000000000, 0.000000000000000000, -1.000000000000000000 ) ) ;
#18 = AXIS2_PLACEMENT_3D ( 'NONE', #707, #867, #560 ) ;
#19 = VERTEX_POINT ( 'NONE', #523 ) ;
#20 = DIRECTION ( 'NONE',  ( 1.000000000000000000, 0.000000000000000000, 0.000000000000000000 ) ) ;
#21 = CIRCLE ( 'NONE', #349, 1.100000000000000311 ) ;
#22 = CARTESIAN_POINT ( 'NONE',  ( 1.100000000000000089, 14.00000000000000000, -1.000000000000000888 ) ) ;
#23 = ADVANCED_FACE ( 'NONE', ( #306 ), #736, .F. ) ;
#24 = CYLINDRICAL_SURFACE ( 'NONE', #813, 1.100000000000000089 ) ;
#25 = EDGE_LOOP ( 'NONE', ( #346, #74, #103, #812 ) ) ;
#26 = CYLINDRICAL_SURFACE ( 'NONE', #406, 2.999999999999999112 ) ;
#27 = FACE_OUTER_BOUND ( 'NONE', #808, .T. ) ;
#28 = EDGE_LOOP ( 'NONE', ( #725, #141, #448, #582 ) ) ;
#29 = EDGE_CURVE ( 'NONE', #471, #627, #670, .T. ) ;
#30 = VERTEX_POINT ( 'NONE', #161 ) ;
#31 = APPROVAL_DATE_TIME ( #109, #887 ) ;
#32 = CARTESIAN_POINT ( 'NONE',  ( -30.00000000000000000, -14.00000000000000000, 4.000000000000000000 ) ) ;
#33 = DIRECTION ( 'NONE',  ( -0.000000000000000000, -0.000000000000000000, -1.000000000000000000 ) ) ;
#34 = CIRCLE ( 'NONE', #925, 1.600000000000000755 ) ;
#35 = ORIENTED_EDGE ( 'NONE', *, *, #440, .T. ) ;
#36 = DIRECTION ( 'NONE',  ( -1.000000000000000000, 0.000000000000000000, 0.000000000000000000 ) ) ;
#37 = DIRECTION ( 'NONE',  ( 0.000000000000000000, 0.000000000000000000, -1.000000000000000000 ) ) ;
#38 = ORIENTED_EDGE ( 'NONE', *, *, #225, .F. ) ;
#39 = DIRECTION ( 'NONE',  ( 0.000000000000000000, 0.000000000000000000, 1.000000000000000000 ) ) ;
#40 = DIRECTION ( 'NONE',  ( -0.000000000000000000, -0.000000000000000000, -1.000000000000000000 ) ) ;
#41 = ORIENTED_EDGE ( 'NONE', *, *, #794, .F. ) ;
#42 = DATE_AND_TIME ( #266, #502 ) ;
#43 = DIRECTION ( 'NONE',  ( -1.000000000000000000, 0.000000000000000000, 0.000000000000000000 ) ) ;
#44 = EDGE_CURVE ( 'NONE', #93, #820, #824, .T. ) ;
#45 = CARTESIAN_POINT ( 'NONE',  ( -25.00000000000000000, -9.000000000000000000, 4.000000000000000000 ) ) ;
#46 = ORIENTED_EDGE ( 'NONE', *, *, #81, .T. ) ;
#47 = CIRCLE ( 'NONE', #741, 17.00000000000000000 ) ;
#48 = VECTOR ( 'NONE', #493, 1000.000000000000000 ) ;
#49 = VECTOR ( 'NONE', #4, 1000.000000000000000 ) ;
#50 = CARTESIAN_POINT ( 'NONE',  ( -27.00000000000000000, 14.00000000000000000, 0.000000000000000000 ) ) ;
#51 = LINE ( 'NONE', #843, #467 ) ;
#52 = EDGE_LOOP ( 'NONE', ( #763, #855, #733, #240 ) ) ;
#53 = CARTESIAN_POINT ( 'NONE',  ( 0.000000000000000000, 0.000000000000000000, -1.000000000000000000 ) ) ;
#54 = DIRECTION ( 'NONE',  ( -1.000000000000000000, 0.000000000000000000, 0.000000000000000000 ) ) ;
#55 = ORIENTED_EDGE ( 'NONE', *, *, #143, .T. ) ;
#56 = DATE_TIME_ROLE ( 'classification_date' ) ;
#57 = EDGE_CURVE ( 'NONE', #265, #434, #544, .T. ) ;
#58 = CARTESIAN_POINT ( 'NONE',  ( 1.100000000000000089, -14.00000000000000000, 6.999999999999999112 ) ) ;
#59 = DIRECTION ( 'NONE',  ( 1.000000000000000000, 0.000000000000000000, 0.000000000000000000 ) ) ;
#60 = VERTEX_POINT ( 'NONE', #371 ) ;
#61 = VECTOR ( 'NONE', #255, 1000.000000000000000 ) ;
#62 = DIRECTION ( 'NONE',  ( 0.000000000000000000, 0.000000000000000000, 1.000000000000000000 ) ) ;
#63 = CIRCLE ( 'NONE', #389, 1.600000000000000755 ) ;
#64 =( GEOMETRIC_REPRESENTATION_CONTEXT ( 3 ) GLOBAL_UNCERTAINTY_ASSIGNED_CONTEXT ( ( #806 ) ) GLOBAL_UNIT_ASSIGNED_CONTEXT ( ( #104, #180, #170 ) ) REPRESENTATION_CONTEXT ( 'NONE', 'WORKASPACE' ) );
#65 = LINE ( 'NONE', #145, #698 ) ;
#66 = ORIENTED_EDGE ( 'NONE', *, *, #674, .F. ) ;
#67 = ORIENTED_EDGE ( 'NONE', *, *, #96, .T. ) ;
#68 = CARTESIAN_POINT ( 'NONE',  ( -27.00000000000000000, 11.00000000000000178, 0.000000000000000000 ) ) ;
#69 = CARTESIAN_POINT ( 'NONE',  ( -25.00000000000000000, 9.000000000000000000, 6.999999999999999112 ) ) ;
#70 = VERTEX_POINT ( 'NONE', #599 ) ;
#71 = MANIFOLD_SOLID_BREP ( 'Fillet1', #184 ) ;
#72 = PLANE ( 'NONE',  #579 ) ;
#73 = CARTESIAN_POINT ( 'NONE',  ( -17.00000000000000000, 0.000000000000000000, 0.000000000000000000 ) ) ;
#74 = ORIENTED_EDGE ( 'NONE', *, *, #628, .T. ) ;
#75 = AXIS2_PLACEMENT_3D ( 'NONE', #458, #177, #390 ) ;
#76 = CYLINDRICAL_SURFACE ( 'NONE', #333, 11.09999999999999964 ) ;
#77 = CIRCLE ( 'NONE', #656, 11.09999999999999964 ) ;
#78 = LOCAL_TIME ( 21, 58, 2.000000000000000000, #528 ) ;
#79 = VERTEX_POINT ( 'NONE', #673 ) ;
#80 = APPLICATION_CONTEXT ( 'configuration controlled 3d designs of mechanical parts and assemblies' ) ;
#81 = EDGE_CURVE ( 'NONE', #864, #520, #378, .T. ) ;
#82 = CARTESIAN_POINT ( 'NONE',  ( -27.00000000000000000, 14.00000000000000000, 4.000000000000000000 ) ) ;
#83 = ORIENTED_EDGE ( 'NONE', *, *, #854, .T. ) ;
#84 = EDGE_CURVE ( 'NONE', #882, #195, #654, .T. ) ;
#85 = DIRECTION ( 'NONE',  ( -1.000000000000000000, 0.000000000000000000, 0.000000000000000000 ) ) ;
#86 = CARTESIAN_POINT ( 'NONE',  ( 0.000000000000000000, 0.000000000000000000, 0.000000000000000000 ) ) ;
#87 = ORIENTED_EDGE ( 'NONE', *, *, #613, .F. ) ;
#88 = CARTESIAN_POINT ( 'NONE',  ( -17.00000000000000000, 0.000000000000000000, 4.000000000000000000 ) ) ;
#89 = AXIS2_PLACEMENT_3D ( 'NONE', #45, #918, #620 ) ;
#90 = AXIS2_PLACEMENT_3D ( 'NONE', #397, #115, #176 ) ;
#91 = DIRECTION ( 'NONE',  ( -1.000000000000000000, 0.000000000000000000, 0.000000000000000000 ) ) ;
#92 = CC_DESIGN_SECURITY_CLASSIFICATION ( #437, ( #593 ) ) ;
#93 = VERTEX_POINT ( 'NONE', #748 ) ;
#94 = DIRECTION ( 'NONE',  ( -1.000000000000000000, 0.000000000000000000, 0.000000000000000000 ) ) ;
#95 = LINE ( 'NONE', #32, #910 ) ;
#96 = EDGE_CURVE ( 'NONE', #675, #627, #137, .T. ) ;
#97 = CARTESIAN_POINT ( 'NONE',  ( 0.000000000000000000, 0.000000000000000000, 0.000000000000000000 ) ) ;
#98 = PRODUCT ( 'ARM-104_Elbow_bearing_cheek', 'ARM-104_Elbow_bearing_cheek', '', ( #815 ) ) ;
#99 = EDGE_LOOP ( 'NONE', ( #877, #270, #715, #6 ) ) ;
#100 = CYLINDRICAL_SURFACE ( 'NONE', #110, 17.00000000000000000 ) ;
#101 = CARTESIAN_POINT ( 'NONE',  ( 9.000000000000000000, 1.102182119232617714E-15, 0.000000000000000000 ) ) ;
#102 = PRODUCT_RELATED_PRODUCT_CATEGORY ( 'detail', '', ( #98 ) ) ;
#103 = ORIENTED_EDGE ( 'NONE', *, *, #490, .F. ) ;
#104 =( LENGTH_UNIT ( ) NAMED_UNIT ( * ) SI_UNIT ( .MILLI., .METRE. ) );
#105 = CARTESIAN_POINT ( 'NONE',  ( 14.00000000000000000, 0.000000000000000000, 6.999999999999999112 ) ) ;
#106 = DIRECTION ( 'NONE',  ( 0.000000000000000000, 0.000000000000000000, 1.000000000000000000 ) ) ;
#107 = AXIS2_PLACEMENT_3D ( 'NONE', #635, #625, #923 ) ;
#108 = ORIENTED_EDGE ( 'NONE', *, *, #57, .F. ) ;
#109 = DATE_AND_TIME ( #676, #78 ) ;
#110 = AXIS2_PLACEMENT_3D ( 'NONE', #677, #441, #735 ) ;
#111 = DIRECTION ( 'NONE',  ( 0.000000000000000000, 0.000000000000000000, 1.000000000000000000 ) ) ;
#112 = CARTESIAN_POINT ( 'NONE',  ( 0.000000000000000000, 0.000000000000000000, 0.000000000000000000 ) ) ;
#113 = VERTEX_POINT ( 'NONE', #538 ) ;
#114 = EDGE_CURVE ( 'NONE', #520, #679, #243, .T. ) ;
#115 = DIRECTION ( 'NONE',  ( 0.000000000000000000, 0.000000000000000000, 1.000000000000000000 ) ) ;
#116 = DIRECTION ( 'NONE',  ( 1.000000000000000000, 0.000000000000000000, 0.000000000000000000 ) ) ;
#117 = ORIENTED_EDGE ( 'NONE', *, *, #841, .T. ) ;
#118 = EDGE_CURVE ( 'NONE', #30, #70, #244, .T. ) ;
#119 = CARTESIAN_POINT ( 'NONE',  ( -30.00000000000000000, -14.00000000000000000, 0.000000000000000000 ) ) ;
#120 = CARTESIAN_POINT ( 'NONE',  ( 0.000000000000000000, 0.000000000000000000, 0.000000000000000000 ) ) ;
#121 = EDGE_LOOP ( 'NONE', ( #399, #742, #474, #132 ) ) ;
#122 = VECTOR ( 'NONE', #886, 1000.000000000000000 ) ;
#123 = AXIS2_PLACEMENT_3D ( 'NONE', #639, #929, #417 ) ;
#124 = CIRCLE ( 'NONE', #452, 2.999999999999999112 ) ;
#125 = CARTESIAN_POINT ( 'NONE',  ( -27.00000000000000000, 14.00000000000000000, 4.000000000000000000 ) ) ;
#126 = CARTESIAN_POINT ( 'NONE',  ( 15.10000000000000142, 1.347111479062088503E-16, -1.000000000000000888 ) ) ;
#127 = EDGE_CURVE ( 'NONE', #471, #19, #874, .T. ) ;
#128 = EDGE_LOOP ( 'NONE', ( #757, #709, #766, #829, #162, #357, #87, #557 ) ) ;
#129 = APPLICATION_CONTEXT ( 'configuration controlled 3d designs of mechanical parts and assemblies' ) ;
#130 = DIRECTION ( 'NONE',  ( 0.000000000000000000, 0.000000000000000000, 1.000000000000000000 ) ) ;
#131 = CARTESIAN_POINT ( 'NONE',  ( 0.000000000000000000, 0.000000000000000000, 7.000000000000000000 ) ) ;
#132 = ORIENTED_EDGE ( 'NONE', *, *, #185, .F. ) ;
#133 = SECURITY_CLASSIFICATION_LEVEL ( 'unclassified' ) ;
#134 = FACE_BOUND ( 'NONE', #789, .T. ) ;
#135 = FACE_OUTER_BOUND ( 'NONE', #25, .T. ) ;
#136 = ORIENTED_EDGE ( 'NONE', *, *, #674, .T. ) ;
#137 = CIRCLE ( 'NONE', #299, 11.09999999999999964 ) ;
#138 = CIRCLE ( 'NONE', #847, 2.999999999999999112 ) ;
#139 = CYLINDRICAL_SURFACE ( 'NONE', #774, 1.600000000000000755 ) ;
#140 = CARTESIAN_POINT ( 'NONE',  ( -26.60000000000000142, -9.000000000000000000, 6.999999999999999112 ) ) ;
#141 = ORIENTED_EDGE ( 'NONE', *, *, #628, .F. ) ;
#142 = ORIENTED_EDGE ( 'NONE', *, *, #660, .F. ) ;
#143 = EDGE_CURVE ( 'NONE', #334, #543, #838, .T. ) ;
#144 = CARTESIAN_POINT ( 'NONE',  ( 15.10000000000000142, 1.347111479062088503E-16, 6.999999999999999112 ) ) ;
#145 = CARTESIAN_POINT ( 'NONE',  ( 9.000000000000000000, 1.102182119232617714E-15, 0.000000000000000000 ) ) ;
#146 = ORIENTED_EDGE ( 'NONE', *, *, #154, .T. ) ;
#147 = DIRECTION ( 'NONE',  ( -0.000000000000000000, -0.000000000000000000, -1.000000000000000000 ) ) ;
#148 = VERTEX_POINT ( 'NONE', #481 ) ;
#149 = VECTOR ( 'NONE', #857, 1000.000000000000000 ) ;
#150 = FACE_OUTER_BOUND ( 'NONE', #28, .T. ) ;
#151 = AXIS2_PLACEMENT_3D ( 'NONE', #827, #609, #555 ) ;
#152 = CC_DESIGN_APPROVAL ( #626, ( #593 ) ) ;
#153 = EDGE_LOOP ( 'NONE', ( #705, #641 ) ) ;
#154 = EDGE_CURVE ( 'NONE', #79, #691, #786, .T. ) ;
#155 = CARTESIAN_POINT ( 'NONE',  ( -17.00000000000000000, 0.000000000000000000, -1.000000000000000000 ) ) ;
#156 = DIRECTION ( 'NONE',  ( 0.000000000000000000, 0.000000000000000000, -1.000000000000000000 ) ) ;
#157 = EDGE_CURVE ( 'NONE', #427, #360, #228, .T. ) ;
#158 = ORIENTED_EDGE ( 'NONE', *, *, #866, .T. ) ;
#159 = DIRECTION ( 'NONE',  ( -0.000000000000000000, -0.000000000000000000, -1.000000000000000000 ) ) ;
#160 = CYLINDRICAL_SURFACE ( 'NONE', #531, 2.999999999999999112 ) ;
#161 = CARTESIAN_POINT ( 'NONE',  ( -27.00000000000000000, -14.00000000000000000, 4.000000000000000000 ) ) ;
#162 = ORIENTED_EDGE ( 'NONE', *, *, #784, .F. ) ;
#163 = CARTESIAN_POINT ( 'NONE',  ( -27.00000000000000000, 11.00000000000000178, 4.000000000000000000 ) ) ;
#164 = EDGE_CURVE ( 'NONE', #19, #675, #324, .T. ) ;
#165 = LINE ( 'NONE', #751, #894 ) ;
#166 = AXIS2_PLACEMENT_3D ( 'NONE', #498, #352, #720 ) ;
#167 = DIRECTION ( 'NONE',  ( -0.000000000000000000, -0.000000000000000000, -1.000000000000000000 ) ) ;
#168 = AXIS2_PLACEMENT_3D ( 'NONE', #932, #62, #416 ) ;
#169 = ORIENTED_EDGE ( 'NONE', *, *, #701, .F. ) ;
#170 =( NAMED_UNIT ( * ) SI_UNIT ( $, .STERADIAN. ) SOLID_ANGLE_UNIT ( ) );
#171 = EDGE_CURVE ( 'NONE', #510, #431, #51, .T. ) ;
#172 = DIRECTION ( 'NONE',  ( -0.000000000000000000, -0.000000000000000000, 1.000000000000000000 ) ) ;
#173 = ORIENTED_EDGE ( 'NONE', *, *, #214, .T. ) ;
#174 = ORIENTED_EDGE ( 'NONE', *, *, #583, .F. ) ;
#175 = DIRECTION ( 'NONE',  ( 1.000000000000000000, 0.000000000000000000, 0.000000000000000000 ) ) ;
#176 = DIRECTION ( 'NONE',  ( 1.000000000000000000, 0.000000000000000000, 0.000000000000000000 ) ) ;
#177 = DIRECTION ( 'NONE',  ( 0.000000000000000000, 0.000000000000000000, 1.000000000000000000 ) ) ;
#178 = EDGE_CURVE ( 'NONE', #820, #3, #34, .T. ) ;
#179 = ORIENTED_EDGE ( 'NONE', *, *, #669, .T. ) ;
#180 =( NAMED_UNIT ( * ) PLANE_ANGLE_UNIT ( ) SI_UNIT ( $, .RADIAN. ) );
#181 = LINE ( 'NONE', #476, #667 ) ;
#182 = CARTESIAN_POINT ( 'NONE',  ( -27.00000000000000000, -14.00000000000000000, 0.000000000000000000 ) ) ;
#183 = AXIS2_PLACEMENT_3D ( 'NONE', #849, #37, #903 ) ;
#184 = CLOSED_SHELL ( 'NONE', ( #756, #780, #921, #791, #926, #23, #410, #577, #287, #637, #530, #688, #293, #254, #307, #192, #283, #746, #386, #415, #480, #549, #2, #649, #457, #896 ) ) ;
#185 = EDGE_CURVE ( 'NONE', #571, #3, #342, .T. ) ;
#186 = ORIENTED_EDGE ( 'NONE', *, *, #810, .F. ) ;
#187 = CIRCLE ( 'NONE', #682, 1.100000000000000089 ) ;
#188 = CIRCLE ( 'NONE', #516, 1.100000000000000311 ) ;
#189 = DIRECTION ( 'NONE',  ( 0.000000000000000000, 0.000000000000000000, 1.000000000000000000 ) ) ;
#190 = DIRECTION ( 'NONE',  ( 0.000000000000000000, 0.000000000000000000, 1.000000000000000000 ) ) ;
#191 = ORIENTED_EDGE ( 'NONE', *, *, #768, .T. ) ;
#192 = ADVANCED_FACE ( 'NONE', ( #630, #765, #259 ), #913, .F. ) ;
#193 = CARTESIAN_POINT ( 'NONE',  ( -30.00000000000000000, 11.00000000000000178, 4.000000000000000000 ) ) ;
#194 = FACE_BOUND ( 'NONE', #527, .T. ) ;
#195 = VERTEX_POINT ( 'NONE', #126 ) ;
#196 = EDGE_CURVE ( 'NONE', #616, #265, #328, .T. ) ;
#197 = CARTESIAN_POINT ( 'NONE',  ( -26.60000000000000142, -9.000000000000000000, 4.000000000000000000 ) ) ;
#198 = DIRECTION ( 'NONE',  ( -0.000000000000000000, -0.000000000000000000, -1.000000000000000000 ) ) ;
#199 = EDGE_LOOP ( 'NONE', ( #611, #224, #915, #146 ) ) ;
#200 = PERSON_AND_ORGANIZATION ( #488, #486 ) ;
#201 = CIRCLE ( 'NONE', #501, 1.600000000000000755 ) ;
#202 = CIRCLE ( 'NONE', #290, 17.00000000000000000 ) ;
#203 = DIRECTION ( 'NONE',  ( 1.000000000000000000, 0.000000000000000000, -0.000000000000000000 ) ) ;
#204 = CC_DESIGN_PERSON_AND_ORGANIZATION_ASSIGNMENT ( #851, #632, ( #593 ) ) ;
#205 = LINE ( 'NONE', #294, #149 ) ;
#206 = EDGE_LOOP ( 'NONE', ( #454, #312 ) ) ;
#207 = APPROVAL_STATUS ( 'not_yet_approved' ) ;
#208 = CYLINDRICAL_SURFACE ( 'NONE', #245, 1.100000000000000311 ) ;
#209 = DIRECTION ( 'NONE',  ( -0.000000000000000000, -0.000000000000000000, 1.000000000000000000 ) ) ;
#210 = EDGE_LOOP ( 'NONE', ( #930, #295 ) ) ;
#211 = DIRECTION ( 'NONE',  ( -0.000000000000000000, -0.000000000000000000, -1.000000000000000000 ) ) ;
#212 = DIRECTION ( 'NONE',  ( 0.000000000000000000, 0.000000000000000000, 1.000000000000000000 ) ) ;
#213 = ORIENTED_EDGE ( 'NONE', *, *, #326, .F. ) ;
#214 = EDGE_CURVE ( 'NONE', #70, #431, #47, .T. ) ;
#215 = AXIS2_PLACEMENT_3D ( 'NONE', #112, #106, #828 ) ;
#216 = VECTOR ( 'NONE', #268, 1000.000000000000000 ) ;
#217 = LINE ( 'NONE', #278, #48 ) ;
#218 = DIRECTION ( 'NONE',  ( 0.000000000000000000, 0.000000000000000000, -1.000000000000000000 ) ) ;
#219 = ORIENTED_EDGE ( 'NONE', *, *, #901, .F. ) ;
#220 = CARTESIAN_POINT ( 'NONE',  ( -25.00000000000000000, 9.000000000000000000, 0.000000000000000000 ) ) ;
#221 = EDGE_CURVE ( 'NONE', #839, #717, #499, .T. ) ;
#222 = CARTESIAN_POINT ( 'NONE',  ( -30.00000000000000000, -14.00000000000000000, 4.000000000000000000 ) ) ;
#223 = VERTEX_POINT ( 'NONE', #394 ) ;
#224 = ORIENTED_EDGE ( 'NONE', *, *, #157, .T. ) ;
#225 = EDGE_CURVE ( 'NONE', #616, #12, #727, .T. ) ;
#226 = CARTESIAN_POINT ( 'NONE',  ( 0.000000000000000000, 0.000000000000000000, 7.000000000000000000 ) ) ;
#227 = ORIENTED_EDGE ( 'NONE', *, *, #127, .T. ) ;
#228 = CIRCLE ( 'NONE', #861, 1.100000000000000089 ) ;
#229 = DIRECTION ( 'NONE',  ( -1.000000000000000000, 0.000000000000000000, 0.000000000000000000 ) ) ;
#230 = AXIS2_PLACEMENT_3D ( 'NONE', #69, #218, #291 ) ;
#231 = AXIS2_PLACEMENT_3D ( 'NONE', #777, #344, #638 ) ;
#232 = DIRECTION ( 'NONE',  ( 0.000000000000000000, 0.000000000000000000, -1.000000000000000000 ) ) ;
#233 = ORIENTED_EDGE ( 'NONE', *, *, #57, .T. ) ;
#234 = DIRECTION ( 'NONE',  ( -1.000000000000000000, 0.000000000000000000, 0.000000000000000000 ) ) ;
#235 = ORIENTED_EDGE ( 'NONE', *, *, #164, .F. ) ;
#236 = ORIENTED_EDGE ( 'NONE', *, *, #424, .T. ) ;
#237 = CARTESIAN_POINT ( 'NONE',  ( -1.100000000000000089, -14.00000000000000000, 6.999999999999999112 ) ) ;
#238 = DIRECTION ( 'NONE',  ( -0.000000000000000000, -0.000000000000000000, -1.000000000000000000 ) ) ;
#239 = DIRECTION ( 'NONE',  ( 1.000000000000000000, 0.000000000000000000, 0.000000000000000000 ) ) ;
#240 = ORIENTED_EDGE ( 'NONE', *, *, #475, .T. ) ;
#241 = DIRECTION ( 'NONE',  ( 0.000000000000000000, 0.000000000000000000, 1.000000000000000000 ) ) ;
#242 = CARTESIAN_POINT ( 'NONE',  ( -26.60000000000000142, 9.000000000000000000, 4.000000000000000000 ) ) ;
#243 = CIRCLE ( 'NONE', #892, 1.100000000000000089 ) ;
#244 = LINE ( 'NONE', #534, #482 ) ;
#245 = AXIS2_PLACEMENT_3D ( 'NONE', #569, #272, #738 ) ;
#246 = ORIENTED_EDGE ( 'NONE', *, *, #221, .T. ) ;
#247 = PERSON_AND_ORGANIZATION_ROLE ( 'creator' ) ;
#248 = CARTESIAN_POINT ( 'NONE',  ( -25.00000000000000000, -9.000000000000000000, 0.000000000000000000 ) ) ;
#249 = DIRECTION ( 'NONE',  ( -1.000000000000000000, 0.000000000000000000, 0.000000000000000000 ) ) ;
#250 = PRODUCT_DEFINITION_SHAPE ( 'NONE', 'NONE',  #433 ) ;
#251 = ORIENTED_EDGE ( 'NONE', *, *, #164, .T. ) ;
#252 = DIRECTION ( 'NONE',  ( 0.000000000000000000, 0.000000000000000000, -1.000000000000000000 ) ) ;
#253 = FACE_BOUND ( 'NONE', #153, .T. ) ;
#254 = ADVANCED_FACE ( 'NONE', ( #398 ), #775, .F. ) ;
#255 = DIRECTION ( 'NONE',  ( -0.000000000000000000, -0.000000000000000000, -1.000000000000000000 ) ) ;
#256 = ORIENTED_EDGE ( 'NONE', *, *, #424, .F. ) ;
#257 = DATE_AND_TIME ( #905, #319 ) ;
#258 = FACE_BOUND ( 'NONE', #210, .T. ) ;
#259 = FACE_OUTER_BOUND ( 'NONE', #339, .T. ) ;
#260 = CIRCLE ( 'NONE', #15, 1.600000000000000755 ) ;
#261 = ORIENTED_EDGE ( 'NONE', *, *, #185, .T. ) ;
#262 = APPROVAL_PERSON_ORGANIZATION ( #758, #887, #889 ) ;
#263 = DIRECTION ( 'NONE',  ( 1.000000000000000000, 0.000000000000000000, 0.000000000000000000 ) ) ;
#264 = DIRECTION ( 'NONE',  ( 0.000000000000000000, 0.000000000000000000, -1.000000000000000000 ) ) ;
#265 = VERTEX_POINT ( 'NONE', #331 ) ;
#266 = CALENDAR_DATE ( 2026, 12, 9 ) ;
#267 = EDGE_CURVE ( 'NONE', #859, #621, #591, .T. ) ;
#268 = DIRECTION ( 'NONE',  ( -0.000000000000000000, -1.000000000000000000, -0.000000000000000000 ) ) ;
#269 = CARTESIAN_POINT ( 'NONE',  ( -26.60000000000000142, 9.000000000000000000, 6.999999999999999112 ) ) ;
#270 = ORIENTED_EDGE ( 'NONE', *, *, #587, .T. ) ;
#271 = CC_DESIGN_PERSON_AND_ORGANIZATION_ASSIGNMENT ( #687, #247, ( #433 ) ) ;
#272 = DIRECTION ( 'NONE',  ( 0.000000000000000000, 0.000000000000000000, -1.000000000000000000 ) ) ;
#273 = FACE_OUTER_BOUND ( 'NONE', #651, .T. ) ;
#274 = ORIENTED_EDGE ( 'NONE', *, *, #332, .F. ) ;
#275 = VECTOR ( 'NONE', #509, 1000.000000000000000 ) ;
#276 = AXIS2_PLACEMENT_3D ( 'NONE', #105, #697, #43 ) ;
#277 = ADVANCED_BREP_SHAPE_REPRESENTATION ( 'ARM-104_Elbow_bearing_cheek', ( #71, #363 ), #64 ) ;
#278 = CARTESIAN_POINT ( 'NONE',  ( 17.00000000000000000, 2.081899558550500280E-15, 7.000000000000000000 ) ) ;
#279 = CARTESIAN_POINT ( 'NONE',  ( 0.000000000000000000, 0.000000000000000000, 0.000000000000000000 ) ) ;
#280 = ORIENTED_EDGE ( 'NONE', *, *, #508, .T. ) ;
#281 = DIRECTION ( 'NONE',  ( -1.000000000000000000, 0.000000000000000000, 0.000000000000000000 ) ) ;
#282 = CARTESIAN_POINT ( 'NONE',  ( 0.000000000000000000, 0.000000000000000000, 7.000000000000000000 ) ) ;
#283 = ADVANCED_FACE ( 'NONE', ( #273, #194 ), #755, .T. ) ;
#284 = VERTEX_POINT ( 'NONE', #182 ) ;
#285 = CARTESIAN_POINT ( 'NONE',  ( 0.000000000000000000, 0.000000000000000000, 0.000000000000000000 ) ) ;
#286 = DIRECTION ( 'NONE',  ( 1.000000000000000000, 0.000000000000000000, 0.000000000000000000 ) ) ;
#287 = ADVANCED_FACE ( 'NONE', ( #469, #477, #700 ), #556, .F. ) ;
#288 = EDGE_LOOP ( 'NONE', ( #568, #320, #426, #235 ) ) ;
#289 = CARTESIAN_POINT ( 'NONE',  ( 14.00000000000000000, 0.000000000000000000, -1.000000000000000888 ) ) ;
#290 = AXIS2_PLACEMENT_3D ( 'NONE', #285, #423, #711 ) ;
#291 = DIRECTION ( 'NONE',  ( -1.000000000000000000, 0.000000000000000000, 0.000000000000000000 ) ) ;
#292 = ORIENTED_EDGE ( 'NONE', *, *, #429, .T. ) ;
#293 = ADVANCED_FACE ( 'NONE', ( #430 ), #412, .F. ) ;
#294 = CARTESIAN_POINT ( 'NONE',  ( -27.00000000000000000, -14.00000000000000000, 4.000000000000000000 ) ) ;
#295 = ORIENTED_EDGE ( 'NONE', *, *, #587, .F. ) ;
#296 = EDGE_CURVE ( 'NONE', #360, #427, #845, .T. ) ;
#297 = DIRECTION ( 'NONE',  ( 0.000000000000000000, 0.000000000000000000, -1.000000000000000000 ) ) ;
#298 = FACE_OUTER_BOUND ( 'NONE', #199, .T. ) ;
#299 = AXIS2_PLACEMENT_3D ( 'NONE', #97, #311, #318 ) ;
#300 = DIRECTION ( 'NONE',  ( -0.000000000000000000, -1.000000000000000000, -0.000000000000000000 ) ) ;
#301 = AXIS2_PLACEMENT_3D ( 'NONE', #53, #39, #263 ) ;
#302 = ORIENTED_EDGE ( 'NONE', *, *, #508, .F. ) ;
#303 = EDGE_LOOP ( 'NONE', ( #783, #836 ) ) ;
#304 = CARTESIAN_POINT ( 'NONE',  ( 0.000000000000000000, 0.000000000000000000, -1.000000000000000000 ) ) ;
#305 = DIRECTION ( 'NONE',  ( 0.000000000000000000, 0.000000000000000000, 1.000000000000000000 ) ) ;
#306 = FACE_OUTER_BOUND ( 'NONE', #595, .T. ) ;
#307 = ADVANCED_FACE ( 'NONE', ( #135 ), #708, .F. ) ;
#308 = EDGE_LOOP ( 'NONE', ( #664, #391, #825, #721 ) ) ;
#309 = PERSON_AND_ORGANIZATION ( #488, #486 ) ;
#310 = DIRECTION ( 'NONE',  ( 0.000000000000000000, 0.000000000000000000, 1.000000000000000000 ) ) ;
#311 = DIRECTION ( 'NONE',  ( 0.000000000000000000, 0.000000000000000000, 1.000000000000000000 ) ) ;
#312 = ORIENTED_EDGE ( 'NONE', *, *, #114, .F. ) ;
#313 = CARTESIAN_POINT ( 'NONE',  ( -9.643650760992956705, 14.00000000000000000, 0.000000000000000000 ) ) ;
#314 = EDGE_CURVE ( 'NONE', #899, #605, #787, .T. ) ;
#315 = CARTESIAN_POINT ( 'NONE',  ( 11.09999999999999964, 1.359357947053562156E-15, 7.000000000000000000 ) ) ;
#316 = AXIS2_PLACEMENT_3D ( 'NONE', #658, #212, #356 ) ;
#317 = CIRCLE ( 'NONE', #375, 17.00000000000000000 ) ;
#318 = DIRECTION ( 'NONE',  ( 1.000000000000000000, 0.000000000000000000, 0.000000000000000000 ) ) ;
#319 = LOCAL_TIME ( 21, 58, 2.000000000000000000, #617 ) ;
#320 = ORIENTED_EDGE ( 'NONE', *, *, #29, .T. ) ;
#321 = CARTESIAN_POINT ( 'NONE',  ( 0.000000000000000000, 0.000000000000000000, 0.000000000000000000 ) ) ;
#322 = EDGE_CURVE ( 'NONE', #30, #284, #205, .T. ) ;
#323 = FACE_BOUND ( 'NONE', #636, .T. ) ;
#324 = LINE ( 'NONE', #762, #374 ) ;
#325 = EDGE_LOOP ( 'NONE', ( #256, #869 ) ) ;
#326 = EDGE_CURVE ( 'NONE', #691, #79, #713, .T. ) ;
#327 = LINE ( 'NONE', #461, #436 ) ;
#328 = LINE ( 'NONE', #337, #61 ) ;
#329 = EDGE_LOOP ( 'NONE', ( #610, #814, #507, #174 ) ) ;
#330 = LINE ( 'NONE', #393, #800 ) ;
#331 = CARTESIAN_POINT ( 'NONE',  ( -9.000000000000000000, 0.000000000000000000, -1.000000000000000000 ) ) ;
#332 = EDGE_CURVE ( 'NONE', #717, #621, #795, .T. ) ;
#333 = AXIS2_PLACEMENT_3D ( 'NONE', #282, #862, #8 ) ;
#334 = VERTEX_POINT ( 'NONE', #73 ) ;
#335 = CIRCLE ( 'NONE', #817, 1.600000000000000755 ) ;
#336 = FACE_OUTER_BOUND ( 'NONE', #655, .T. ) ;
#337 = CARTESIAN_POINT ( 'NONE',  ( -9.000000000000000000, 0.000000000000000000, 0.000000000000000000 ) ) ;
#338 = CC_DESIGN_DATE_AND_TIME_ASSIGNMENT ( #257, #830, ( #433 ) ) ;
#339 = EDGE_LOOP ( 'NONE', ( #514, #158, #1, #173, #936, #382, #553 ) ) ;
#340 = CALENDAR_DATE ( 2026, 12, 9 ) ;
#341 = DIRECTION ( 'NONE',  ( 1.000000000000000000, 0.000000000000000000, 0.000000000000000000 ) ) ;
#342 = LINE ( 'NONE', #269, #909 ) ;
#343 = EDGE_LOOP ( 'NONE', ( #372, #443, #169, #659, #379, #550, #191 ) ) ;
#344 = DIRECTION ( 'NONE',  ( -0.000000000000000000, -0.000000000000000000, 1.000000000000000000 ) ) ;
#345 = DIRECTION ( 'NONE',  ( 0.000000000000000000, 0.000000000000000000, -1.000000000000000000 ) ) ;
#346 = ORIENTED_EDGE ( 'NONE', *, *, #701, .T. ) ;
#347 = VECTOR ( 'NONE', #167, 1000.000000000000000 ) ;
#348 = AXIS2_PLACEMENT_3D ( 'NONE', #879, #532, #801 ) ;
#349 = AXIS2_PLACEMENT_3D ( 'NONE', #289, #159, #444 ) ;
#350 = EDGE_CURVE ( 'NONE', #12, #616, #798, .T. ) ;
#351 = DIRECTION ( 'NONE',  ( 1.000000000000000000, 0.000000000000000000, 0.000000000000000000 ) ) ;
#352 = DIRECTION ( 'NONE',  ( 0.000000000000000000, 1.000000000000000000, 0.000000000000000000 ) ) ;
#353 = ORIENTED_EDGE ( 'NONE', *, *, #669, .F. ) ;
#354 = ORIENTED_EDGE ( 'NONE', *, *, #157, .F. ) ;
#355 = CARTESIAN_POINT ( 'NONE',  ( -23.40000000000000213, -9.000000000000000000, 4.000000000000000000 ) ) ;
#356 = DIRECTION ( 'NONE',  ( 1.000000000000000000, 0.000000000000000000, -0.000000000000000000 ) ) ;
#357 = ORIENTED_EDGE ( 'NONE', *, *, #475, .F. ) ;
#358 = FACE_OUTER_BOUND ( 'NONE', #590, .T. ) ;
#359 = DIRECTION ( 'NONE',  ( 0.000000000000000000, 0.000000000000000000, 1.000000000000000000 ) ) ;
#360 = VERTEX_POINT ( 'NONE', #494 ) ;
#361 = EDGE_CURVE ( 'NONE', #19, #471, #77, .T. ) ;
#362 = AXIS2_PLACEMENT_3D ( 'NONE', #384, #525, #380 ) ;
#363 = AXIS2_PLACEMENT_3D ( 'NONE', #321, #241, #392 ) ;
#364 = DIRECTION ( 'NONE',  ( 0.000000000000000000, 0.000000000000000000, 1.000000000000000000 ) ) ;
#365 = ORIENTED_EDGE ( 'NONE', *, *, #600, .F. ) ;
#366 = CC_DESIGN_DATE_AND_TIME_ASSIGNMENT ( #931, #56, ( #437 ) ) ;
#367 = CARTESIAN_POINT ( 'NONE',  ( -30.00000000000000000, 11.00000000000000178, 0.000000000000000000 ) ) ;
#368 = CARTESIAN_POINT ( 'NONE',  ( -26.60000000000000142, 9.000000000000000000, 0.000000000000000000 ) ) ;
#369 = ORIENTED_EDGE ( 'NONE', *, *, #881, .T. ) ;
#370 = LINE ( 'NONE', #193, #832 ) ;
#371 = CARTESIAN_POINT ( 'NONE',  ( -30.00000000000000000, 11.00000000000000178, 4.000000000000000000 ) ) ;
#372 = ORIENTED_EDGE ( 'NONE', *, *, #729, .F. ) ;
#373 = DIRECTION ( 'NONE',  ( -1.000000000000000000, 0.000000000000000000, 0.000000000000000000 ) ) ;
#374 = VECTOR ( 'NONE', #561, 1000.000000000000000 ) ;
#375 = AXIS2_PLACEMENT_3D ( 'NONE', #226, #663, #456 ) ;
#376 = EDGE_CURVE ( 'NONE', #419, #882, #712, .T. ) ;
#377 = CARTESIAN_POINT ( 'NONE',  ( -9.643650760992956705, 14.00000000000000000, 7.000000000000000000 ) ) ;
#378 = LINE ( 'NONE', #385, #122 ) ;
#379 = ORIENTED_EDGE ( 'NONE', *, *, #314, .F. ) ;
#380 = DIRECTION ( 'NONE',  ( -1.000000000000000000, 0.000000000000000000, 0.000000000000000000 ) ) ;
#381 = CARTESIAN_POINT ( 'NONE',  ( 0.000000000000000000, 14.00000000000000000, -1.000000000000000888 ) ) ;
#382 = ORIENTED_EDGE ( 'NONE', *, *, #633, .T. ) ;
#383 = DIRECTION ( 'NONE',  ( 0.000000000000000000, 0.000000000000000000, -1.000000000000000000 ) ) ;
#384 = CARTESIAN_POINT ( 'NONE',  ( 0.000000000000000000, 14.00000000000000000, 6.999999999999999112 ) ) ;
#385 = CARTESIAN_POINT ( 'NONE',  ( 1.100000000000000089, 14.00000000000000000, 6.999999999999999112 ) ) ;
#386 = ADVANCED_FACE ( 'NONE', ( #648 ), #938, .F. ) ;
#387 = EDGE_LOOP ( 'NONE', ( #601, #413 ) ) ;
#388 = CARTESIAN_POINT ( 'NONE',  ( -9.643650760992956705, 14.00000000000000000, 4.000000000000000000 ) ) ;
#389 = AXIS2_PLACEMENT_3D ( 'NONE', #248, #693, #537 ) ;
#390 = DIRECTION ( 'NONE',  ( 1.000000000000000000, 0.000000000000000000, 0.000000000000000000 ) ) ;
#391 = ORIENTED_EDGE ( 'NONE', *, *, #322, .T. ) ;
#392 = DIRECTION ( 'NONE',  ( 1.000000000000000000, 0.000000000000000000, 0.000000000000000000 ) ) ;
#393 = CARTESIAN_POINT ( 'NONE',  ( -23.40000000000000213, -9.000000000000000000, 6.999999999999999112 ) ) ;
#394 = CARTESIAN_POINT ( 'NONE',  ( -30.00000000000000000, -11.00000000000000000, 0.000000000000000000 ) ) ;
#395 = ORIENTED_EDGE ( 'NONE', *, *, #768, .F. ) ;
#396 = APPROVAL_ROLE ( '' ) ;
#397 = CARTESIAN_POINT ( 'NONE',  ( 14.00000000000000000, 0.000000000000000000, 6.999999999999999112 ) ) ;
#398 = FACE_OUTER_BOUND ( 'NONE', #52, .T. ) ;
#399 = ORIENTED_EDGE ( 'NONE', *, *, #13, .T. ) ;
#400 = CARTESIAN_POINT ( 'NONE',  ( -9.000000000000000000, 0.000000000000000000, 0.000000000000000000 ) ) ;
#401 = EDGE_CURVE ( 'NONE', #627, #675, #404, .T. ) ;
#402 = DIRECTION ( 'NONE',  ( 0.000000000000000000, -0.000000000000000000, -1.000000000000000000 ) ) ;
#403 = VECTOR ( 'NONE', #232, 1000.000000000000000 ) ;
#404 = CIRCLE ( 'NONE', #546, 11.09999999999999964 ) ;
#405 = ORIENTED_EDGE ( 'NONE', *, *, #401, .F. ) ;
#406 = AXIS2_PLACEMENT_3D ( 'NONE', #163, #449, #94 ) ;
#407 = FACE_OUTER_BOUND ( 'NONE', #99, .T. ) ;
#408 = DIRECTION ( 'NONE',  ( 1.000000000000000000, 0.000000000000000000, 0.000000000000000000 ) ) ;
#409 = EDGE_LOOP ( 'NONE', ( #459, #753, #539, #888 ) ) ;
#410 = ADVANCED_FACE ( 'NONE', ( #505 ), #76, .F. ) ;
#411 = DIRECTION ( 'NONE',  ( 0.000000000000000000, 0.000000000000000000, -1.000000000000000000 ) ) ;
#412 = PLANE ( 'NONE',  #166 ) ;
#413 = ORIENTED_EDGE ( 'NONE', *, *, #440, .F. ) ;
#414 = PERSON_AND_ORGANIZATION ( #488, #486 ) ;
#415 = ADVANCED_FACE ( 'NONE', ( #425 ), #584, .F. ) ;
#416 = DIRECTION ( 'NONE',  ( 1.000000000000000000, 0.000000000000000000, 0.000000000000000000 ) ) ;
#417 = DIRECTION ( 'NONE',  ( -1.000000000000000000, 0.000000000000000000, 0.000000000000000000 ) ) ;
#418 = AXIS2_PLACEMENT_3D ( 'NONE', #86, #807, #875 ) ;
#419 = VERTEX_POINT ( 'NONE', #792 ) ;
#420 = VECTOR ( 'NONE', #703, 1000.000000000000000 ) ;
#421 = ORIENTED_EDGE ( 'NONE', *, *, #914, .F. ) ;
#422 = CIRCLE ( 'NONE', #231, 2.999999999999999112 ) ;
#423 = DIRECTION ( 'NONE',  ( 0.000000000000000000, 0.000000000000000000, 1.000000000000000000 ) ) ;
#424 = EDGE_CURVE ( 'NONE', #717, #839, #201, .T. ) ;
#425 = FACE_OUTER_BOUND ( 'NONE', #500, .T. ) ;
#426 = ORIENTED_EDGE ( 'NONE', *, *, #96, .F. ) ;
#427 = VERTEX_POINT ( 'NONE', #778 ) ;
#428 = FACE_BOUND ( 'NONE', #793, .T. ) ;
#429 = EDGE_CURVE ( 'NONE', #12, #434, #65, .T. ) ;
#430 = FACE_OUTER_BOUND ( 'NONE', #308, .T. ) ;
#431 = VERTEX_POINT ( 'NONE', #88 ) ;
#432 = CARTESIAN_POINT ( 'NONE',  ( 0.000000000000000000, -14.00000000000000000, -1.000000000000000888 ) ) ;
#433 = PRODUCT_DEFINITION ( 'UNKNOWN', '', #593, #885 ) ;
#434 = VERTEX_POINT ( 'NONE', #451 ) ;
#435 = AXIS2_PLACEMENT_3D ( 'NONE', #581, #359, #653 ) ;
#436 = VECTOR ( 'NONE', #772, 1000.000000000000000 ) ;
#437 = SECURITY_CLASSIFICATION ( '', '', #133 ) ;
#438 = CYLINDRICAL_SURFACE ( 'NONE', #730, 1.600000000000000755 ) ;
#439 = ORIENTED_EDGE ( 'NONE', *, *, #44, .F. ) ;
#440 = EDGE_CURVE ( 'NONE', #93, #571, #576, .T. ) ;
#441 = DIRECTION ( 'NONE',  ( -0.000000000000000000, -0.000000000000000000, -1.000000000000000000 ) ) ;
#442 = CARTESIAN_POINT ( 'NONE',  ( 11.09999999999999964, 1.359357947053562156E-15, 7.000000000000000000 ) ) ;
#443 = ORIENTED_EDGE ( 'NONE', *, *, #619, .T. ) ;
#444 = DIRECTION ( 'NONE',  ( 1.000000000000000000, 0.000000000000000000, 0.000000000000000000 ) ) ;
#445 = EDGE_CURVE ( 'NONE', #113, #70, #165, .T. ) ;
#446 = CARTESIAN_POINT ( 'NONE',  ( -25.00000000000000000, 9.000000000000000000, 4.000000000000000000 ) ) ;
#447 = CARTESIAN_POINT ( 'NONE',  ( -25.00000000000000000, 9.000000000000000000, 4.000000000000000000 ) ) ;
#448 = ORIENTED_EDGE ( 'NONE', *, *, #619, .F. ) ;
#449 = DIRECTION ( 'NONE',  ( 0.000000000000000000, 0.000000000000000000, -1.000000000000000000 ) ) ;
#450 = AXIS2_PLACEMENT_3D ( 'NONE', #917, #189, #472 ) ;
#451 = CARTESIAN_POINT ( 'NONE',  ( 9.000000000000000000, 1.102182119232617714E-15, -1.000000000000000000 ) ) ;
#452 = AXIS2_PLACEMENT_3D ( 'NONE', #68, #521, #341 ) ;
#453 = CARTESIAN_POINT ( 'NONE',  ( 14.00000000000000000, 0.000000000000000000, -1.000000000000000888 ) ) ;
#454 = ORIENTED_EDGE ( 'NONE', *, *, #513, .F. ) ;
#455 = PERSON_AND_ORGANIZATION_ROLE ( 'design_owner' ) ;
#456 = DIRECTION ( 'NONE',  ( 1.000000000000000000, 0.000000000000000000, 0.000000000000000000 ) ) ;
#457 = ADVANCED_FACE ( 'NONE', ( #150 ), #160, .T. ) ;
#458 = CARTESIAN_POINT ( 'NONE',  ( 0.000000000000000000, 0.000000000000000000, 7.000000000000000000 ) ) ;
#459 = ORIENTED_EDGE ( 'NONE', *, *, #429, .F. ) ;
#460 = CYLINDRICAL_SURFACE ( 'NONE', #533, 1.100000000000000089 ) ;
#461 = CARTESIAN_POINT ( 'NONE',  ( -30.00000000000000000, -11.00000000000000000, 4.000000000000000000 ) ) ;
#462 = CARTESIAN_POINT ( 'NONE',  ( -17.00000000000000000, 0.000000000000000000, 7.000000000000000000 ) ) ;
#463 = CC_DESIGN_PERSON_AND_ORGANIZATION_ASSIGNMENT ( #767, #622, ( #437 ) ) ;
#464 = ORIENTED_EDGE ( 'NONE', *, *, #267, .T. ) ;
#465 = APPLICATION_PROTOCOL_DEFINITION ( 'international standard', 'config_control_design', 1994, #129 ) ;
#466 = CYLINDRICAL_SURFACE ( 'NONE', #468, 17.00000000000000000 ) ;
#467 = VECTOR ( 'NONE', #690, 1000.000000000000000 ) ;
#468 = AXIS2_PLACEMENT_3D ( 'NONE', #618, #754, #769 ) ;
#469 = FACE_BOUND ( 'NONE', #722, .T. ) ;
#470 = AXIS2_PLACEMENT_3D ( 'NONE', #304, #536, #175 ) ;
#471 = VERTEX_POINT ( 'NONE', #315 ) ;
#472 = DIRECTION ( 'NONE',  ( 1.000000000000000000, 0.000000000000000000, -0.000000000000000000 ) ) ;
#473 = CARTESIAN_POINT ( 'NONE',  ( 0.000000000000000000, -14.00000000000000000, 6.999999999999999112 ) ) ;
#474 = ORIENTED_EDGE ( 'NONE', *, *, #178, .T. ) ;
#475 = EDGE_CURVE ( 'NONE', #686, #899, #739, .T. ) ;
#476 = CARTESIAN_POINT ( 'NONE',  ( -30.00000000000000000, 14.00000000000000000, 4.000000000000000000 ) ) ;
#477 = FACE_BOUND ( 'NONE', #586, .T. ) ;
#478 = ORIENTED_EDGE ( 'NONE', *, *, #154, .F. ) ;
#479 = LINE ( 'NONE', #125, #420 ) ;
#480 = ADVANCED_FACE ( 'NONE', ( #747 ), #438, .F. ) ;
#481 = CARTESIAN_POINT ( 'NONE',  ( -1.100000000000000089, 14.00000000000000000, 6.999999999999999112 ) ) ;
#482 = VECTOR ( 'NONE', #819, 1000.000000000000000 ) ;
#483 = AXIS2_PLACEMENT_3D ( 'NONE', #890, #238, #873 ) ;
#484 = ORIENTED_EDGE ( 'NONE', *, *, #225, .T. ) ;
#485 = APPROVAL_DATE_TIME ( #42, #495 ) ;
#486 = ORGANIZATION ( 'UNSPECIFIED', 'UNSPECIFIED', '' ) ;
#487 = CARTESIAN_POINT ( 'NONE',  ( 1.100000000000000089, 14.00000000000000000, 6.999999999999999112 ) ) ;
#488 = PERSON ( 'UNSPECIFIED', 'UNSPECIFIED', 'UNSPECIFIED', ('UNSPECIFIED'), ('UNSPECIFIED'), ('UNSPECIFIED') ) ;
#489 = CARTESIAN_POINT ( 'NONE',  ( -25.00000000000000000, -9.000000000000000000, 4.000000000000000000 ) ) ;
#490 = EDGE_CURVE ( 'NONE', #60, #737, #95, .T. ) ;
#491 = ORIENTED_EDGE ( 'NONE', *, *, #332, .T. ) ;
#492 = COORDINATED_UNIVERSAL_TIME_OFFSET ( 6, 0, .BEHIND. ) ;
#493 = DIRECTION ( 'NONE',  ( -0.000000000000000000, -0.000000000000000000, -1.000000000000000000 ) ) ;
#494 = CARTESIAN_POINT ( 'NONE',  ( -1.100000000000000089, -14.00000000000000000, 6.999999999999999112 ) ) ;
#495 = APPROVAL ( #207, 'UNSPECIFIED' ) ;
#496 = ORIENTED_EDGE ( 'NONE', *, *, #29, .F. ) ;
#497 = CARTESIAN_POINT ( 'NONE',  ( -30.00000000000000000, -11.00000000000000000, 4.000000000000000000 ) ) ;
#498 = CARTESIAN_POINT ( 'NONE',  ( -30.00000000000000000, -14.00000000000000000, 4.000000000000000000 ) ) ;
#499 = CIRCLE ( 'NONE', #89, 1.600000000000000755 ) ;
#500 = EDGE_LOOP ( 'NONE', ( #439, #35, #261, #908 ) ) ;
#501 = AXIS2_PLACEMENT_3D ( 'NONE', #489, #209, #570 ) ;
#502 = LOCAL_TIME ( 21, 58, 2.000000000000000000, #492 ) ;
#503 = EDGE_CURVE ( 'NONE', #510, #506, #317, .T. ) ;
#504 = CARTESIAN_POINT ( 'NONE',  ( 0.000000000000000000, -14.00000000000000000, 6.999999999999999112 ) ) ;
#505 = FACE_OUTER_BOUND ( 'NONE', #288, .T. ) ;
#506 = VERTEX_POINT ( 'NONE', #594 ) ;
#507 = ORIENTED_EDGE ( 'NONE', *, *, #823, .F. ) ;
#508 = EDGE_CURVE ( 'NONE', #148, #679, #512, .T. ) ;
#509 = DIRECTION ( 'NONE',  ( 0.000000000000000000, 0.000000000000000000, -1.000000000000000000 ) ) ;
#510 = VERTEX_POINT ( 'NONE', #732 ) ;
#511 = VERTEX_POINT ( 'NONE', #82 ) ;
#512 = LINE ( 'NONE', #797, #773 ) ;
#513 = EDGE_CURVE ( 'NONE', #679, #520, #928, .T. ) ;
#514 = ORIENTED_EDGE ( 'NONE', *, *, #490, .T. ) ;
#515 = AXIS2_PLACEMENT_3D ( 'NONE', #724, #573, #868 ) ;
#516 = AXIS2_PLACEMENT_3D ( 'NONE', #927, #821, #20 ) ;
#517 = FACE_OUTER_BOUND ( 'NONE', #128, .T. ) ;
#518 = CARTESIAN_POINT ( 'NONE',  ( -23.40000000000000213, 9.000000000000000000, 6.999999999999999112 ) ) ;
#519 = EDGE_CURVE ( 'NONE', #434, #265, #876, .T. ) ;
#520 = VERTEX_POINT ( 'NONE', #22 ) ;
#521 = DIRECTION ( 'NONE',  ( -0.000000000000000000, -0.000000000000000000, -1.000000000000000000 ) ) ;
#522 = CARTESIAN_POINT ( 'NONE',  ( 0.000000000000000000, 0.000000000000000000, -1.000000000000000000 ) ) ;
#523 = CARTESIAN_POINT ( 'NONE',  ( -11.09999999999999964, 0.000000000000000000, 7.000000000000000000 ) ) ;
#524 = VERTEX_POINT ( 'NONE', #367 ) ;
#525 = DIRECTION ( 'NONE',  ( 0.000000000000000000, 0.000000000000000000, -1.000000000000000000 ) ) ;
#526 = ORIENTED_EDGE ( 'NONE', *, *, #296, .F. ) ;
#527 = EDGE_LOOP ( 'NONE', ( #38, #880 ) ) ;
#528 = COORDINATED_UNIVERSAL_TIME_OFFSET ( 6, 0, .BEHIND. ) ;
#529 = AXIS2_PLACEMENT_3D ( 'NONE', #662, #752, #898 ) ;
#530 = ADVANCED_FACE ( 'NONE', ( #27 ), #598, .F. ) ;
#531 = AXIS2_PLACEMENT_3D ( 'NONE', #11, #297, #234 ) ;
#532 = DIRECTION ( 'NONE',  ( -0.000000000000000000, -0.000000000000000000, -1.000000000000000000 ) ) ;
#533 = AXIS2_PLACEMENT_3D ( 'NONE', #612, #383, #373 ) ;
#534 = CARTESIAN_POINT ( 'NONE',  ( -30.00000000000000000, -14.00000000000000000, 4.000000000000000000 ) ) ;
#535 = ORIENTED_EDGE ( 'NONE', *, *, #600, .T. ) ;
#536 = DIRECTION ( 'NONE',  ( 0.000000000000000000, 0.000000000000000000, 1.000000000000000000 ) ) ;
#537 = DIRECTION ( 'NONE',  ( 1.000000000000000000, 0.000000000000000000, 0.000000000000000000 ) ) ;
#538 = CARTESIAN_POINT ( 'NONE',  ( -9.643650760992956705, -14.00000000000000000, 0.000000000000000000 ) ) ;
#539 = ORIENTED_EDGE ( 'NONE', *, *, #196, .T. ) ;
#540 = DIRECTION ( 'NONE',  ( -1.000000000000000000, 0.000000000000000000, 0.000000000000000000 ) ) ;
#541 = DIRECTION ( 'NONE',  ( 0.000000000000000000, 0.000000000000000000, -1.000000000000000000 ) ) ;
#542 = CARTESIAN_POINT ( 'NONE',  ( -30.00000000000000000, 14.00000000000000000, 4.000000000000000000 ) ) ;
#543 = VERTEX_POINT ( 'NONE', #155 ) ;
#544 = CIRCLE ( 'NONE', #759, 9.000000000000000000 ) ;
#545 = FACE_BOUND ( 'NONE', #850, .T. ) ;
#546 = AXIS2_PLACEMENT_3D ( 'NONE', #279, #364, #782 ) ;
#547 = CIRCLE ( 'NONE', #470, 17.00000000000000000 ) ;
#548 = DIRECTION ( 'NONE',  ( 0.000000000000000000, 0.000000000000000000, -1.000000000000000000 ) ) ;
#549 = ADVANCED_FACE ( 'NONE', ( #884 ), #661, .F. ) ;
#550 = ORIENTED_EDGE ( 'NONE', *, *, #784, .T. ) ;
#551 = LINE ( 'NONE', #119, #216 ) ;
#552 = DIRECTION ( 'NONE',  ( 0.000000000000000000, 0.000000000000000000, 1.000000000000000000 ) ) ;
#553 = ORIENTED_EDGE ( 'NONE', *, *, #559, .T. ) ;
#554 = SHAPE_DEFINITION_REPRESENTATION ( #250, #277 ) ;
#555 = DIRECTION ( 'NONE',  ( 1.000000000000000000, 0.000000000000000000, 0.000000000000000000 ) ) ;
#556 = PLANE ( 'NONE',  #316 ) ;
#557 = ORIENTED_EDGE ( 'NONE', *, *, #171, .F. ) ;
#558 = COORDINATED_UNIVERSAL_TIME_OFFSET ( 6, 0, .BEHIND. ) ;
#559 = EDGE_CURVE ( 'NONE', #511, #60, #138, .T. ) ;
#560 = DIRECTION ( 'NONE',  ( 1.000000000000000000, 0.000000000000000000, 0.000000000000000000 ) ) ;
#561 = DIRECTION ( 'NONE',  ( -0.000000000000000000, -0.000000000000000000, -1.000000000000000000 ) ) ;
#562 = VECTOR ( 'NONE', #645, 1000.000000000000000 ) ;
#563 = AXIS2_PLACEMENT_3D ( 'NONE', #629, #541, #36 ) ;
#564 = ORIENTED_EDGE ( 'NONE', *, *, #171, .T. ) ;
#565 = PERSON_AND_ORGANIZATION_ROLE ( 'creator' ) ;
#566 = CARTESIAN_POINT ( 'NONE',  ( 0.000000000000000000, 0.000000000000000000, -1.000000000000000000 ) ) ;
#567 = DIRECTION ( 'NONE',  ( 1.000000000000000000, 0.000000000000000000, 0.000000000000000000 ) ) ;
#568 = ORIENTED_EDGE ( 'NONE', *, *, #361, .T. ) ;
#569 = CARTESIAN_POINT ( 'NONE',  ( 14.00000000000000000, 0.000000000000000000, 6.999999999999999112 ) ) ;
#570 = DIRECTION ( 'NONE',  ( -1.000000000000000000, 0.000000000000000000, 0.000000000000000000 ) ) ;
#571 = VERTEX_POINT ( 'NONE', #242 ) ;
#572 = DIRECTION ( 'NONE',  ( 0.000000000000000000, 0.000000000000000000, -1.000000000000000000 ) ) ;
#573 = DIRECTION ( 'NONE',  ( 0.000000000000000000, 0.000000000000000000, 1.000000000000000000 ) ) ;
#574 = AXIS2_PLACEMENT_3D ( 'NONE', #120, #552, #835 ) ;
#575 = ORIENTED_EDGE ( 'NONE', *, *, #326, .T. ) ;
#576 = CIRCLE ( 'NONE', #744, 1.600000000000000755 ) ;
#577 = ADVANCED_FACE ( 'NONE', ( #517 ), #100, .T. ) ;
#578 = ORIENTED_EDGE ( 'NONE', *, *, #734, .F. ) ;
#579 = AXIS2_PLACEMENT_3D ( 'NONE', #566, #130, #203 ) ;
#580 = FACE_OUTER_BOUND ( 'NONE', #666, .T. ) ;
#581 = CARTESIAN_POINT ( 'NONE',  ( 0.000000000000000000, -14.00000000000000000, 6.999999999999999112 ) ) ;
#582 = ORIENTED_EDGE ( 'NONE', *, *, #322, .F. ) ;
#583 = EDGE_CURVE ( 'NONE', #60, #524, #370, .T. ) ;
#584 = CYLINDRICAL_SURFACE ( 'NONE', #230, 1.600000000000000755 ) ;
#585 = EDGE_LOOP ( 'NONE', ( #66, #421 ) ) ;
#586 = EDGE_LOOP ( 'NONE', ( #186, #924 ) ) ;
#587 = EDGE_CURVE ( 'NONE', #596, #419, #816, .T. ) ;
#588 = CARTESIAN_POINT ( 'NONE',  ( -27.00000000000000000, 11.00000000000000178, 4.000000000000000000 ) ) ;
#589 = DIRECTION ( 'NONE',  ( -0.000000000000000000, -0.000000000000000000, 1.000000000000000000 ) ) ;
#590 = EDGE_LOOP ( 'NONE', ( #236, #179, #464, #274 ) ) ;
#591 = CIRCLE ( 'NONE', #107, 1.600000000000000755 ) ;
#592 = CIRCLE ( 'NONE', #151, 2.999999999999999112 ) ;
#593 = PRODUCT_DEFINITION_FORMATION_WITH_SPECIFIED_SOURCE ( 'ANY', '', #98, .NOT_KNOWN. ) ;
#594 = CARTESIAN_POINT ( 'NONE',  ( 17.00000000000000000, 2.081899558550500280E-15, 7.000000000000000000 ) ) ;
#595 = EDGE_LOOP ( 'NONE', ( #484, #292, #108, #844 ) ) ;
#596 = VERTEX_POINT ( 'NONE', #683 ) ;
#597 = FACE_OUTER_BOUND ( 'NONE', #121, .T. ) ;
#598 = CYLINDRICAL_SURFACE ( 'NONE', #483, 11.09999999999999964 ) ;
#599 = CARTESIAN_POINT ( 'NONE',  ( -9.643650760992956705, -14.00000000000000000, 4.000000000000000000 ) ) ;
#600 = EDGE_CURVE ( 'NONE', #621, #859, #63, .T. ) ;
#601 = ORIENTED_EDGE ( 'NONE', *, *, #13, .F. ) ;
#602 = APPROVAL_STATUS ( 'not_yet_approved' ) ;
#603 = DIRECTION ( 'NONE',  ( 1.000000000000000000, 0.000000000000000000, 0.000000000000000000 ) ) ;
#604 = DIRECTION ( 'NONE',  ( -0.000000000000000000, -0.000000000000000000, -1.000000000000000000 ) ) ;
#605 = VERTEX_POINT ( 'NONE', #50 ) ;
#606 = FACE_OUTER_BOUND ( 'NONE', #671, .T. ) ;
#607 = AXIS2_PLACEMENT_3D ( 'NONE', #704, #685, #116 ) ;
#608 = VECTOR ( 'NONE', #871, 1000.000000000000000 ) ;
#609 = DIRECTION ( 'NONE',  ( -0.000000000000000000, -0.000000000000000000, -1.000000000000000000 ) ) ;
#610 = ORIENTED_EDGE ( 'NONE', *, *, #559, .F. ) ;
#611 = ORIENTED_EDGE ( 'NONE', *, *, #841, .F. ) ;
#612 = CARTESIAN_POINT ( 'NONE',  ( 0.000000000000000000, 14.00000000000000000, 6.999999999999999112 ) ) ;
#613 = EDGE_CURVE ( 'NONE', #431, #686, #833, .T. ) ;
#614 = CARTESIAN_POINT ( 'NONE',  ( 0.000000000000000000, 14.00000000000000000, 6.999999999999999112 ) ) ;
#615 = CARTESIAN_POINT ( 'NONE',  ( -25.00000000000000000, 9.000000000000000000, 0.000000000000000000 ) ) ;
#616 = VERTEX_POINT ( 'NONE', #400 ) ;
#617 = COORDINATED_UNIVERSAL_TIME_OFFSET ( 6, 0, .BEHIND. ) ;
#618 = CARTESIAN_POINT ( 'NONE',  ( 0.000000000000000000, 0.000000000000000000, 7.000000000000000000 ) ) ;
#619 = EDGE_CURVE ( 'NONE', #284, #223, #592, .T. ) ;
#620 = DIRECTION ( 'NONE',  ( -1.000000000000000000, 0.000000000000000000, 0.000000000000000000 ) ) ;
#621 = VERTEX_POINT ( 'NONE', #822 ) ;
#622 = PERSON_AND_ORGANIZATION_ROLE ( 'classification_officer' ) ;
#623 = AXIS2_PLACEMENT_3D ( 'NONE', #542, #694, #402 ) ;
#624 = DIRECTION ( 'NONE',  ( 0.000000000000000000, 0.000000000000000000, -1.000000000000000000 ) ) ;
#625 = DIRECTION ( 'NONE',  ( -0.000000000000000000, -0.000000000000000000, -1.000000000000000000 ) ) ;
#626 = APPROVAL ( #642, 'UNSPECIFIED' ) ;
#627 = VERTEX_POINT ( 'NONE', #689 ) ;
#628 = EDGE_CURVE ( 'NONE', #223, #737, #327, .T. ) ;
#629 = CARTESIAN_POINT ( 'NONE',  ( 0.000000000000000000, 0.000000000000000000, 4.000000000000000000 ) ) ;
#630 = FACE_BOUND ( 'NONE', #325, .T. ) ;
#631 = EDGE_LOOP ( 'NONE', ( #779, #771, #280, #919 ) ) ;
#632 = PERSON_AND_ORGANIZATION_ROLE ( 'design_supplier' ) ;
#633 = EDGE_CURVE ( 'NONE', #686, #511, #181, .T. ) ;
#634 = FACE_BOUND ( 'NONE', #303, .T. ) ;
#635 = CARTESIAN_POINT ( 'NONE',  ( -25.00000000000000000, -9.000000000000000000, 0.000000000000000000 ) ) ;
#636 = EDGE_LOOP ( 'NONE', ( #526, #354 ) ) ;
#637 = ADVANCED_FACE ( 'NONE', ( #336 ), #466, .T. ) ;
#638 = DIRECTION ( 'NONE',  ( -1.000000000000000000, 0.000000000000000000, 0.000000000000000000 ) ) ;
#639 = CARTESIAN_POINT ( 'NONE',  ( 0.000000000000000000, 0.000000000000000000, 0.000000000000000000 ) ) ;
#640 = CIRCLE ( 'NONE', #529, 17.00000000000000000 ) ;
#641 = ORIENTED_EDGE ( 'NONE', *, *, #127, .F. ) ;
#642 = APPROVAL_STATUS ( 'not_yet_approved' ) ;
#643 = CIRCLE ( 'NONE', #18, 1.100000000000000089 ) ;
#644 = FACE_OUTER_BOUND ( 'NONE', #585, .T. ) ;
#645 = DIRECTION ( 'NONE',  ( -1.000000000000000000, -0.000000000000000000, -0.000000000000000000 ) ) ;
#646 = EDGE_LOOP ( 'NONE', ( #702, #9 ) ) ;
#647 = LINE ( 'NONE', #58, #657 ) ;
#648 = FACE_OUTER_BOUND ( 'NONE', #409, .T. ) ;
#649 = ADVANCED_FACE ( 'NONE', ( #407 ), #897, .F. ) ;
#650 = ORIENTED_EDGE ( 'NONE', *, *, #267, .F. ) ;
#651 = EDGE_LOOP ( 'NONE', ( #67, #872 ) ) ;
#652 = DIRECTION ( 'NONE',  ( 1.000000000000000000, 0.000000000000000000, 0.000000000000000000 ) ) ;
#653 = DIRECTION ( 'NONE',  ( 1.000000000000000000, 0.000000000000000000, 0.000000000000000000 ) ) ;
#654 = CIRCLE ( 'NONE', #831, 1.100000000000000311 ) ;
#655 = EDGE_LOOP ( 'NONE', ( #578, #695, #564, #893, #799, #395, #55, #136 ) ) ;
#656 = AXIS2_PLACEMENT_3D ( 'NONE', #131, #934, #59 ) ;
#657 = VECTOR ( 'NONE', #572, 1000.000000000000000 ) ;
#658 = CARTESIAN_POINT ( 'NONE',  ( 0.000000000000000000, 0.000000000000000000, 0.000000000000000000 ) ) ;
#659 = ORIENTED_EDGE ( 'NONE', *, *, #823, .T. ) ;
#660 = EDGE_CURVE ( 'NONE', #148, #864, #187, .T. ) ;
#661 = CYLINDRICAL_SURFACE ( 'NONE', #362, 1.100000000000000089 ) ;
#662 = CARTESIAN_POINT ( 'NONE',  ( 0.000000000000000000, 0.000000000000000000, 7.000000000000000000 ) ) ;
#663 = DIRECTION ( 'NONE',  ( 0.000000000000000000, 0.000000000000000000, 1.000000000000000000 ) ) ;
#664 = ORIENTED_EDGE ( 'NONE', *, *, #118, .F. ) ;
#665 = VECTOR ( 'NONE', #198, 1000.000000000000000 ) ;
#666 = EDGE_LOOP ( 'NONE', ( #369, #83, #728, #865 ) ) ;
#667 = VECTOR ( 'NONE', #842, 1000.000000000000000 ) ;
#668 = DIRECTION ( 'NONE',  ( 0.000000000000000000, 0.000000000000000000, -1.000000000000000000 ) ) ;
#669 = EDGE_CURVE ( 'NONE', #839, #859, #330, .T. ) ;
#670 = LINE ( 'NONE', #442, #347 ) ;
#671 = EDGE_LOOP ( 'NONE', ( #803, #46, #935, #302 ) ) ;
#672 = DIRECTION ( 'NONE',  ( -0.000000000000000000, -0.000000000000000000, 1.000000000000000000 ) ) ;
#673 = CARTESIAN_POINT ( 'NONE',  ( -1.100000000000000089, -14.00000000000000000, -1.000000000000000888 ) ) ;
#674 = EDGE_CURVE ( 'NONE', #543, #776, #714, .T. ) ;
#675 = VERTEX_POINT ( 'NONE', #906 ) ;
#676 = CALENDAR_DATE ( 2026, 12, 9 ) ;
#677 = CARTESIAN_POINT ( 'NONE',  ( 0.000000000000000000, 0.000000000000000000, 7.000000000000000000 ) ) ;
#678 = DIRECTION ( 'NONE',  ( 0.000000000000000000, 0.000000000000000000, 1.000000000000000000 ) ) ;
#679 = VERTEX_POINT ( 'NONE', #837 ) ;
#680 = DIRECTION ( 'NONE',  ( 0.000000000000000000, 0.000000000000000000, -1.000000000000000000 ) ) ;
#681 = AXIS2_PLACEMENT_3D ( 'NONE', #432, #147, #286 ) ;
#682 = AXIS2_PLACEMENT_3D ( 'NONE', #614, #111, #761 ) ;
#683 = CARTESIAN_POINT ( 'NONE',  ( 15.10000000000000142, 1.347111479062088503E-16, 6.999999999999999112 ) ) ;
#684 = LOCAL_TIME ( 21, 58, 2.000000000000000000, #706 ) ;
#685 = DIRECTION ( 'NONE',  ( -0.000000000000000000, -0.000000000000000000, -1.000000000000000000 ) ) ;
#686 = VERTEX_POINT ( 'NONE', #388 ) ;
#687 = PERSON_AND_ORGANIZATION ( #488, #486 ) ;
#688 = ADVANCED_FACE ( 'NONE', ( #258, #323, #545, #902, #253 ), #834, .T. ) ;
#689 = CARTESIAN_POINT ( 'NONE',  ( 11.09999999999999964, 1.359357947053562156E-15, 0.000000000000000000 ) ) ;
#690 = DIRECTION ( 'NONE',  ( -0.000000000000000000, -0.000000000000000000, -1.000000000000000000 ) ) ;
#691 = VERTEX_POINT ( 'NONE', #764 ) ;
#692 = CALENDAR_DATE ( 2026, 12, 9 ) ;
#693 = DIRECTION ( 'NONE',  ( -0.000000000000000000, -0.000000000000000000, -1.000000000000000000 ) ) ;
#694 = DIRECTION ( 'NONE',  ( 0.000000000000000000, -1.000000000000000000, 0.000000000000000000 ) ) ;
#695 = ORIENTED_EDGE ( 'NONE', *, *, #503, .F. ) ;
#696 = AXIS2_PLACEMENT_3D ( 'NONE', #222, #567, #726 ) ;
#697 = DIRECTION ( 'NONE',  ( 0.000000000000000000, 0.000000000000000000, -1.000000000000000000 ) ) ;
#698 = VECTOR ( 'NONE', #818, 1000.000000000000000 ) ;
#699 = AXIS2_PLACEMENT_3D ( 'NONE', #504, #790, #856 ) ;
#700 = FACE_OUTER_BOUND ( 'NONE', #343, .T. ) ;
#701 = EDGE_CURVE ( 'NONE', #524, #223, #551, .T. ) ;
#702 = ORIENTED_EDGE ( 'NONE', *, *, #503, .T. ) ;
#703 = DIRECTION ( 'NONE',  ( -0.000000000000000000, -0.000000000000000000, 1.000000000000000000 ) ) ;
#704 = CARTESIAN_POINT ( 'NONE',  ( 0.000000000000000000, -14.00000000000000000, -1.000000000000000888 ) ) ;
#705 = ORIENTED_EDGE ( 'NONE', *, *, #361, .F. ) ;
#706 = COORDINATED_UNIVERSAL_TIME_OFFSET ( 6, 0, .BEHIND. ) ;
#707 = CARTESIAN_POINT ( 'NONE',  ( 0.000000000000000000, 14.00000000000000000, 6.999999999999999112 ) ) ;
#708 = PLANE ( 'NONE',  #696 ) ;
#709 = ORIENTED_EDGE ( 'NONE', *, *, #734, .T. ) ;
#710 = PERSON_AND_ORGANIZATION ( #488, #486 ) ;
#711 = DIRECTION ( 'NONE',  ( 1.000000000000000000, 0.000000000000000000, 0.000000000000000000 ) ) ;
#712 = LINE ( 'NONE', #5, #760 ) ;
#713 = CIRCLE ( 'NONE', #681, 1.100000000000000089 ) ;
#714 = CIRCLE ( 'NONE', #301, 17.00000000000000000 ) ;
#715 = ORIENTED_EDGE ( 'NONE', *, *, #376, .T. ) ;
#716 = APPROVAL_PERSON_ORGANIZATION ( #710, #495, #920 ) ;
#717 = VERTEX_POINT ( 'NONE', #197 ) ;
#718 = EDGE_CURVE ( 'NONE', #605, #511, #479, .T. ) ;
#719 = CARTESIAN_POINT ( 'NONE',  ( -23.40000000000000213, 9.000000000000000000, 0.000000000000000000 ) ) ;
#720 = DIRECTION ( 'NONE',  ( 0.000000000000000000, -0.000000000000000000, 1.000000000000000000 ) ) ;
#721 = ORIENTED_EDGE ( 'NONE', *, *, #445, .T. ) ;
#722 = EDGE_LOOP ( 'NONE', ( #365, #650 ) ) ;
#723 = CYLINDRICAL_SURFACE ( 'NONE', #699, 1.100000000000000089 ) ;
#724 = CARTESIAN_POINT ( 'NONE',  ( 0.000000000000000000, 0.000000000000000000, 0.000000000000000000 ) ) ;
#725 = ORIENTED_EDGE ( 'NONE', *, *, #866, .F. ) ;
#726 = DIRECTION ( 'NONE',  ( 0.000000000000000000, 0.000000000000000000, -1.000000000000000000 ) ) ;
#727 = CIRCLE ( 'NONE', #574, 9.000000000000000000 ) ;
#728 = ORIENTED_EDGE ( 'NONE', *, *, #858, .T. ) ;
#729 = EDGE_CURVE ( 'NONE', #284, #113, #781, .T. ) ;
#730 = AXIS2_PLACEMENT_3D ( 'NONE', #805, #14, #811 ) ;
#731 = CC_DESIGN_APPROVAL ( #887, ( #433 ) ) ;
#732 = CARTESIAN_POINT ( 'NONE',  ( -17.00000000000000000, 0.000000000000000000, 7.000000000000000000 ) ) ;
#733 = ORIENTED_EDGE ( 'NONE', *, *, #633, .F. ) ;
#734 = EDGE_CURVE ( 'NONE', #506, #776, #217, .T. ) ;
#735 = DIRECTION ( 'NONE',  ( -1.000000000000000000, 0.000000000000000000, 0.000000000000000000 ) ) ;
#736 = CYLINDRICAL_SURFACE ( 'NONE', #418, 9.000000000000000000 ) ;
#737 = VERTEX_POINT ( 'NONE', #497 ) ;
#738 = DIRECTION ( 'NONE',  ( -1.000000000000000000, 0.000000000000000000, 0.000000000000000000 ) ) ;
#739 = LINE ( 'NONE', #377, #608 ) ;
#740 = DIRECTION ( 'NONE',  ( 1.000000000000000000, 0.000000000000000000, 0.000000000000000000 ) ) ;
#741 = AXIS2_PLACEMENT_3D ( 'NONE', #770, #548, #54 ) ;
#742 = ORIENTED_EDGE ( 'NONE', *, *, #44, .T. ) ;
#743 = APPLICATION_PROTOCOL_DEFINITION ( 'international standard', 'config_control_design', 1994, #80 ) ;
#744 = AXIS2_PLACEMENT_3D ( 'NONE', #446, #172, #229 ) ;
#745 = AXIS2_PLACEMENT_3D ( 'NONE', #883, #252, #540 ) ;
#746 = ADVANCED_FACE ( 'NONE', ( #634, #134, #852, #644, #428 ), #72, .F. ) ;
#747 = FACE_OUTER_BOUND ( 'NONE', #904, .T. ) ;
#748 = CARTESIAN_POINT ( 'NONE',  ( -23.40000000000000213, 9.000000000000000000, 4.000000000000000000 ) ) ;
#749 = ORIENTED_EDGE ( 'NONE', *, *, #296, .T. ) ;
#750 = CYLINDRICAL_SURFACE ( 'NONE', #745, 1.600000000000000755 ) ;
#751 = CARTESIAN_POINT ( 'NONE',  ( -9.643650760992956705, -14.00000000000000000, 7.000000000000000000 ) ) ;
#752 = DIRECTION ( 'NONE',  ( 0.000000000000000000, 0.000000000000000000, 1.000000000000000000 ) ) ;
#753 = ORIENTED_EDGE ( 'NONE', *, *, #350, .T. ) ;
#754 = DIRECTION ( 'NONE',  ( -0.000000000000000000, -0.000000000000000000, -1.000000000000000000 ) ) ;
#755 = PLANE ( 'NONE',  #215 ) ;
#756 = ADVANCED_FACE ( 'NONE', ( #580 ), #208, .F. ) ;
#757 = ORIENTED_EDGE ( 'NONE', *, *, #10, .F. ) ;
#758 = PERSON_AND_ORGANIZATION ( #488, #486 ) ;
#759 = AXIS2_PLACEMENT_3D ( 'NONE', #17, #678, #740 ) ;
#760 = VECTOR ( 'NONE', #345, 1000.000000000000000 ) ;
#761 = DIRECTION ( 'NONE',  ( 1.000000000000000000, 0.000000000000000000, 0.000000000000000000 ) ) ;
#762 = CARTESIAN_POINT ( 'NONE',  ( -11.09999999999999964, 0.000000000000000000, 7.000000000000000000 ) ) ;
#763 = ORIENTED_EDGE ( 'NONE', *, *, #314, .T. ) ;
#764 = CARTESIAN_POINT ( 'NONE',  ( 1.100000000000000089, -14.00000000000000000, -1.000000000000000888 ) ) ;
#765 = FACE_BOUND ( 'NONE', #387, .T. ) ;
#766 = ORIENTED_EDGE ( 'NONE', *, *, #914, .T. ) ;
#767 = PERSON_AND_ORGANIZATION ( #488, #486 ) ;
#768 = EDGE_CURVE ( 'NONE', #334, #113, #878, .T. ) ;
#769 = DIRECTION ( 'NONE',  ( -1.000000000000000000, 0.000000000000000000, 0.000000000000000000 ) ) ;
#770 = CARTESIAN_POINT ( 'NONE',  ( 0.000000000000000000, 0.000000000000000000, 4.000000000000000000 ) ) ;
#771 = ORIENTED_EDGE ( 'NONE', *, *, #794, .T. ) ;
#772 = DIRECTION ( 'NONE',  ( -0.000000000000000000, -0.000000000000000000, 1.000000000000000000 ) ) ;
#773 = VECTOR ( 'NONE', #668, 1000.000000000000000 ) ;
#774 = AXIS2_PLACEMENT_3D ( 'NONE', #846, #411, #281 ) ;
#775 = PLANE ( 'NONE',  #623 ) ;
#776 = VERTEX_POINT ( 'NONE', #860 ) ;
#777 = CARTESIAN_POINT ( 'NONE',  ( -27.00000000000000000, -11.00000000000000000, 4.000000000000000000 ) ) ;
#778 = CARTESIAN_POINT ( 'NONE',  ( 1.100000000000000089, -14.00000000000000000, 6.999999999999999112 ) ) ;
#779 = ORIENTED_EDGE ( 'NONE', *, *, #81, .F. ) ;
#780 = ADVANCED_FACE ( 'NONE', ( #785 ), #723, .F. ) ;
#781 = LINE ( 'NONE', #937, #16 ) ;
#782 = DIRECTION ( 'NONE',  ( 1.000000000000000000, 0.000000000000000000, 0.000000000000000000 ) ) ;
#783 = ORIENTED_EDGE ( 'NONE', *, *, #84, .F. ) ;
#784 = EDGE_CURVE ( 'NONE', #899, #334, #202, .T. ) ;
#785 = FACE_OUTER_BOUND ( 'NONE', #796, .T. ) ;
#786 = CIRCLE ( 'NONE', #607, 1.100000000000000089 ) ;
#787 = LINE ( 'NONE', #853, #562 ) ;
#788 = APPROVAL_PERSON_ORGANIZATION ( #414, #626, #396 ) ;
#789 = EDGE_LOOP ( 'NONE', ( #478, #213 ) ) ;
#790 = DIRECTION ( 'NONE',  ( 0.000000000000000000, 0.000000000000000000, -1.000000000000000000 ) ) ;
#791 = ADVANCED_FACE ( 'NONE', ( #358 ), #139, .F. ) ;
#792 = CARTESIAN_POINT ( 'NONE',  ( 12.90000000000000036, 0.000000000000000000, 6.999999999999999112 ) ) ;
#793 = EDGE_LOOP ( 'NONE', ( #233, #870 ) ) ;
#794 = EDGE_CURVE ( 'NONE', #864, #148, #643, .T. ) ;
#795 = LINE ( 'NONE', #140, #275 ) ;
#796 = EDGE_LOOP ( 'NONE', ( #749, #117, #575, #219 ) ) ;
#797 = CARTESIAN_POINT ( 'NONE',  ( -1.100000000000000089, 14.00000000000000000, 6.999999999999999112 ) ) ;
#798 = CIRCLE ( 'NONE', #515, 9.000000000000000000 ) ;
#799 = ORIENTED_EDGE ( 'NONE', *, *, #445, .F. ) ;
#800 = VECTOR ( 'NONE', #912, 1000.000000000000000 ) ;
#801 = DIRECTION ( 'NONE',  ( 1.000000000000000000, 0.000000000000000000, 0.000000000000000000 ) ) ;
#802 = CARTESIAN_POINT ( 'NONE',  ( 0.000000000000000000, -14.00000000000000000, 6.999999999999999112 ) ) ;
#803 = ORIENTED_EDGE ( 'NONE', *, *, #660, .T. ) ;
#804 = LINE ( 'NONE', #144, #49 ) ;
#805 = CARTESIAN_POINT ( 'NONE',  ( -25.00000000000000000, -9.000000000000000000, 6.999999999999999112 ) ) ;
#806 = UNCERTAINTY_MEASURE_WITH_UNIT (LENGTH_MEASURE( 1.000000000000000082E-05 ), #104, 'distance_accuracy_value', 'NONE');
#807 = DIRECTION ( 'NONE',  ( -0.000000000000000000, -0.000000000000000000, -1.000000000000000000 ) ) ;
#808 = EDGE_LOOP ( 'NONE', ( #496, #227, #251, #405 ) ) ;
#809 = FACE_OUTER_BOUND ( 'NONE', #329, .T. ) ;
#810 = EDGE_CURVE ( 'NONE', #3, #820, #335, .T. ) ;
#811 = DIRECTION ( 'NONE',  ( -1.000000000000000000, 0.000000000000000000, 0.000000000000000000 ) ) ;
#812 = ORIENTED_EDGE ( 'NONE', *, *, #583, .T. ) ;
#813 = AXIS2_PLACEMENT_3D ( 'NONE', #802, #156, #91 ) ;
#814 = ORIENTED_EDGE ( 'NONE', *, *, #718, .F. ) ;
#815 = MECHANICAL_CONTEXT ( 'NONE', #80, 'mechanical' ) ;
#816 = CIRCLE ( 'NONE', #90, 1.100000000000000311 ) ;
#817 = AXIS2_PLACEMENT_3D ( 'NONE', #220, #211, #652 ) ;
#818 = DIRECTION ( 'NONE',  ( -0.000000000000000000, -0.000000000000000000, -1.000000000000000000 ) ) ;
#819 = DIRECTION ( 'NONE',  ( 1.000000000000000000, 0.000000000000000000, 0.000000000000000000 ) ) ;
#820 = VERTEX_POINT ( 'NONE', #719 ) ;
#821 = DIRECTION ( 'NONE',  ( 0.000000000000000000, 0.000000000000000000, 1.000000000000000000 ) ) ;
#822 = CARTESIAN_POINT ( 'NONE',  ( -26.60000000000000142, -9.000000000000000000, 0.000000000000000000 ) ) ;
#823 = EDGE_CURVE ( 'NONE', #524, #605, #124, .T. ) ;
#824 = LINE ( 'NONE', #518, #403 ) ;
#825 = ORIENTED_EDGE ( 'NONE', *, *, #729, .T. ) ;
#826 = LINE ( 'NONE', #237, #895 ) ;
#827 = CARTESIAN_POINT ( 'NONE',  ( -27.00000000000000000, -11.00000000000000000, 0.000000000000000000 ) ) ;
#828 = DIRECTION ( 'NONE',  ( 1.000000000000000000, 0.000000000000000000, -0.000000000000000000 ) ) ;
#829 = ORIENTED_EDGE ( 'NONE', *, *, #143, .F. ) ;
#830 = DATE_TIME_ROLE ( 'creation_date' ) ;
#831 = AXIS2_PLACEMENT_3D ( 'NONE', #453, #33, #239 ) ;
#832 = VECTOR ( 'NONE', #624, 1000.000000000000000 ) ;
#833 = CIRCLE ( 'NONE', #563, 17.00000000000000000 ) ;
#834 = PLANE ( 'NONE',  #450 ) ;
#835 = DIRECTION ( 'NONE',  ( 1.000000000000000000, 0.000000000000000000, 0.000000000000000000 ) ) ;
#836 = ORIENTED_EDGE ( 'NONE', *, *, #858, .F. ) ;
#837 = CARTESIAN_POINT ( 'NONE',  ( -1.100000000000000089, 14.00000000000000000, -1.000000000000000888 ) ) ;
#838 = LINE ( 'NONE', #462, #665 ) ;
#839 = VERTEX_POINT ( 'NONE', #355 ) ;
#840 = DATE_AND_TIME ( #692, #848 ) ;
#841 = EDGE_CURVE ( 'NONE', #427, #691, #647, .T. ) ;
#842 = DIRECTION ( 'NONE',  ( -1.000000000000000000, -0.000000000000000000, -0.000000000000000000 ) ) ;
#843 = CARTESIAN_POINT ( 'NONE',  ( -17.00000000000000000, 0.000000000000000000, 7.000000000000000000 ) ) ;
#844 = ORIENTED_EDGE ( 'NONE', *, *, #196, .F. ) ;
#845 = CIRCLE ( 'NONE', #435, 1.100000000000000089 ) ;
#846 = CARTESIAN_POINT ( 'NONE',  ( -25.00000000000000000, -9.000000000000000000, 6.999999999999999112 ) ) ;
#847 = AXIS2_PLACEMENT_3D ( 'NONE', #588, #672, #85 ) ;
#848 = LOCAL_TIME ( 21, 58, 2.000000000000000000, #558 ) ;
#849 = CARTESIAN_POINT ( 'NONE',  ( 0.000000000000000000, 0.000000000000000000, 4.000000000000000000 ) ) ;
#850 = EDGE_LOOP ( 'NONE', ( #142, #41 ) ) ;
#851 = PERSON_AND_ORGANIZATION ( #488, #486 ) ;
#852 = FACE_BOUND ( 'NONE', #206, .T. ) ;
#853 = CARTESIAN_POINT ( 'NONE',  ( -30.00000000000000000, 14.00000000000000000, 0.000000000000000000 ) ) ;
#854 = EDGE_CURVE ( 'NONE', #596, #195, #804, .T. ) ;
#855 = ORIENTED_EDGE ( 'NONE', *, *, #718, .T. ) ;
#856 = DIRECTION ( 'NONE',  ( -1.000000000000000000, 0.000000000000000000, 0.000000000000000000 ) ) ;
#857 = DIRECTION ( 'NONE',  ( 0.000000000000000000, 0.000000000000000000, -1.000000000000000000 ) ) ;
#858 = EDGE_CURVE ( 'NONE', #195, #882, #21, .T. ) ;
#859 = VERTEX_POINT ( 'NONE', #922 ) ;
#860 = CARTESIAN_POINT ( 'NONE',  ( 17.00000000000000000, 2.081899558550500280E-15, -1.000000000000000000 ) ) ;
#861 = AXIS2_PLACEMENT_3D ( 'NONE', #473, #190, #907 ) ;
#862 = DIRECTION ( 'NONE',  ( -0.000000000000000000, -0.000000000000000000, -1.000000000000000000 ) ) ;
#863 = AXIS2_PLACEMENT_3D ( 'NONE', #522, #305, #603 ) ;
#864 = VERTEX_POINT ( 'NONE', #487 ) ;
#865 = ORIENTED_EDGE ( 'NONE', *, *, #376, .F. ) ;
#866 = EDGE_CURVE ( 'NONE', #737, #30, #422, .T. ) ;
#867 = DIRECTION ( 'NONE',  ( 0.000000000000000000, 0.000000000000000000, 1.000000000000000000 ) ) ;
#868 = DIRECTION ( 'NONE',  ( 1.000000000000000000, 0.000000000000000000, 0.000000000000000000 ) ) ;
#869 = ORIENTED_EDGE ( 'NONE', *, *, #221, .F. ) ;
#870 = ORIENTED_EDGE ( 'NONE', *, *, #519, .T. ) ;
#871 = DIRECTION ( 'NONE',  ( -0.000000000000000000, -0.000000000000000000, -1.000000000000000000 ) ) ;
#872 = ORIENTED_EDGE ( 'NONE', *, *, #401, .T. ) ;
#873 = DIRECTION ( 'NONE',  ( -1.000000000000000000, 0.000000000000000000, 0.000000000000000000 ) ) ;
#874 = CIRCLE ( 'NONE', #75, 11.09999999999999964 ) ;
#875 = DIRECTION ( 'NONE',  ( -1.000000000000000000, 0.000000000000000000, 0.000000000000000000 ) ) ;
#876 = CIRCLE ( 'NONE', #863, 9.000000000000000000 ) ;
#877 = ORIENTED_EDGE ( 'NONE', *, *, #854, .F. ) ;
#878 = CIRCLE ( 'NONE', #168, 17.00000000000000000 ) ;
#879 = CARTESIAN_POINT ( 'NONE',  ( 0.000000000000000000, 14.00000000000000000, -1.000000000000000888 ) ) ;
#880 = ORIENTED_EDGE ( 'NONE', *, *, #350, .F. ) ;
#881 = EDGE_CURVE ( 'NONE', #419, #596, #188, .T. ) ;
#882 = VERTEX_POINT ( 'NONE', #900 ) ;
#883 = CARTESIAN_POINT ( 'NONE',  ( -25.00000000000000000, 9.000000000000000000, 6.999999999999999112 ) ) ;
#884 = FACE_OUTER_BOUND ( 'NONE', #631, .T. ) ;
#885 = DESIGN_CONTEXT ( 'detailed design', #129, 'design' ) ;
#886 = DIRECTION ( 'NONE',  ( 0.000000000000000000, 0.000000000000000000, -1.000000000000000000 ) ) ;
#887 = APPROVAL ( #602, 'UNSPECIFIED' ) ;
#888 = ORIENTED_EDGE ( 'NONE', *, *, #519, .F. ) ;
#889 = APPROVAL_ROLE ( '' ) ;
#890 = CARTESIAN_POINT ( 'NONE',  ( 0.000000000000000000, 0.000000000000000000, 7.000000000000000000 ) ) ;
#891 = DIRECTION ( 'NONE',  ( 1.000000000000000000, 0.000000000000000000, 0.000000000000000000 ) ) ;
#892 = AXIS2_PLACEMENT_3D ( 'NONE', #381, #604, #891 ) ;
#893 = ORIENTED_EDGE ( 'NONE', *, *, #214, .F. ) ;
#894 = VECTOR ( 'NONE', #310, 1000.000000000000000 ) ;
#895 = VECTOR ( 'NONE', #680, 1000.000000000000000 ) ;
#896 = ADVANCED_FACE ( 'NONE', ( #809 ), #26, .T. ) ;
#897 = CYLINDRICAL_SURFACE ( 'NONE', #276, 1.100000000000000311 ) ;
#898 = DIRECTION ( 'NONE',  ( 1.000000000000000000, 0.000000000000000000, 0.000000000000000000 ) ) ;
#899 = VERTEX_POINT ( 'NONE', #313 ) ;
#900 = CARTESIAN_POINT ( 'NONE',  ( 12.90000000000000036, 0.000000000000000000, -1.000000000000000888 ) ) ;
#901 = EDGE_CURVE ( 'NONE', #360, #79, #826, .T. ) ;
#902 = FACE_OUTER_BOUND ( 'NONE', #646, .T. ) ;
#903 = DIRECTION ( 'NONE',  ( -1.000000000000000000, 0.000000000000000000, -0.000000000000000000 ) ) ;
#904 = EDGE_LOOP ( 'NONE', ( #353, #246, #491, #535 ) ) ;
#905 = CALENDAR_DATE ( 2026, 12, 9 ) ;
#906 = CARTESIAN_POINT ( 'NONE',  ( -11.09999999999999964, 0.000000000000000000, 0.000000000000000000 ) ) ;
#907 = DIRECTION ( 'NONE',  ( 1.000000000000000000, 0.000000000000000000, 0.000000000000000000 ) ) ;
#908 = ORIENTED_EDGE ( 'NONE', *, *, #810, .T. ) ;
#909 = VECTOR ( 'NONE', #264, 1000.000000000000000 ) ;
#910 = VECTOR ( 'NONE', #300, 1000.000000000000000 ) ;
#911 = CC_DESIGN_APPROVAL ( #495, ( #437 ) ) ;
#912 = DIRECTION ( 'NONE',  ( 0.000000000000000000, 0.000000000000000000, -1.000000000000000000 ) ) ;
#913 = PLANE ( 'NONE',  #183 ) ;
#914 = EDGE_CURVE ( 'NONE', #776, #543, #547, .T. ) ;
#915 = ORIENTED_EDGE ( 'NONE', *, *, #901, .T. ) ;
#916 = APPROVAL_DATE_TIME ( #840, #626 ) ;
#917 = CARTESIAN_POINT ( 'NONE',  ( 0.000000000000000000, 0.000000000000000000, 7.000000000000000000 ) ) ;
#918 = DIRECTION ( 'NONE',  ( -0.000000000000000000, -0.000000000000000000, 1.000000000000000000 ) ) ;
#919 = ORIENTED_EDGE ( 'NONE', *, *, #513, .T. ) ;
#920 = APPROVAL_ROLE ( '' ) ;
#921 = ADVANCED_FACE ( 'NONE', ( #606 ), #460, .F. ) ;
#922 = CARTESIAN_POINT ( 'NONE',  ( -23.40000000000000213, -9.000000000000000000, 0.000000000000000000 ) ) ;
#923 = DIRECTION ( 'NONE',  ( 1.000000000000000000, 0.000000000000000000, 0.000000000000000000 ) ) ;
#924 = ORIENTED_EDGE ( 'NONE', *, *, #178, .F. ) ;
#925 = AXIS2_PLACEMENT_3D ( 'NONE', #615, #40, #408 ) ;
#926 = ADVANCED_FACE ( 'NONE', ( #597 ), #750, .F. ) ;
#927 = CARTESIAN_POINT ( 'NONE',  ( 14.00000000000000000, 0.000000000000000000, 6.999999999999999112 ) ) ;
#928 = CIRCLE ( 'NONE', #348, 1.100000000000000089 ) ;
#929 = DIRECTION ( 'NONE',  ( -0.000000000000000000, -0.000000000000000000, -1.000000000000000000 ) ) ;
#930 = ORIENTED_EDGE ( 'NONE', *, *, #881, .F. ) ;
#931 = DATE_AND_TIME ( #340, #684 ) ;
#932 = CARTESIAN_POINT ( 'NONE',  ( 0.000000000000000000, 0.000000000000000000, 0.000000000000000000 ) ) ;
#933 = CC_DESIGN_PERSON_AND_ORGANIZATION_ASSIGNMENT ( #309, #455, ( #98 ) ) ;
#934 = DIRECTION ( 'NONE',  ( 0.000000000000000000, 0.000000000000000000, 1.000000000000000000 ) ) ;
#935 = ORIENTED_EDGE ( 'NONE', *, *, #114, .T. ) ;
#936 = ORIENTED_EDGE ( 'NONE', *, *, #613, .T. ) ;
#937 = CARTESIAN_POINT ( 'NONE',  ( -30.00000000000000000, -14.00000000000000000, 0.000000000000000000 ) ) ;
#938 = CYLINDRICAL_SURFACE ( 'NONE', #123, 9.000000000000000000 ) ;
ENDSEC;
END-ISO-10303-21;
