ISO-10303-21;
HEADER;
FILE_DESCRIPTION (( 'STEP AP203' ),
    '1' );
FILE_NAME ('ARM-105_Shoulder_bearing_cheek.step',
    '2026-09-13T02:58:06',
    ( '' ),
    ( '' ),
    'SwSTEP 2.0',
    'SolidWorks 2026',
    '' );
FILE_SCHEMA (( 'CONFIG_CONTROL_DESIGN' ));
ENDSEC;

DATA;
#1 = AXIS2_PLACEMENT_3D ( 'NONE', #63, #611, #1002 ) ;
#2 = VECTOR ( 'NONE', #761, 1000.000000000000000 ) ;
#3 = CARTESIAN_POINT ( 'NONE',  ( -4.999999999999997335, 22.00000000000000000, 4.000000000000000000 ) ) ;
#4 = CARTESIAN_POINT ( 'NONE',  ( -37.00000000000000711, 22.00000000000000000, 4.000000000000000000 ) ) ;
#5 = EDGE_LOOP ( 'NONE', ( #932, #109, #450, #499 ) ) ;
#6 = EDGE_CURVE ( 'NONE', #527, #646, #276, .T. ) ;
#7 = DIRECTION ( 'NONE',  ( 0.000000000000000000, 0.000000000000000000, 1.000000000000000000 ) ) ;
#8 = DIRECTION ( 'NONE',  ( 0.000000000000000000, 0.000000000000000000, -1.000000000000000000 ) ) ;
#9 = EDGE_LOOP ( 'NONE', ( #777, #666 ) ) ;
#10 = DESIGN_CONTEXT ( 'detailed design', #976, 'design' ) ;
#11 = DIRECTION ( 'NONE',  ( 1.000000000000000000, 0.000000000000000000, 0.000000000000000000 ) ) ;
#12 = ADVANCED_FACE ( 'NONE', ( #881 ), #875, .F. ) ;
#13 = CARTESIAN_POINT ( 'NONE',  ( -42.00000000000000000, 22.00000000000000000, 0.000000000000000000 ) ) ;
#14 = ORIENTED_EDGE ( 'NONE', *, *, #820, .F. ) ;
#15 = VERTEX_POINT ( 'NONE', #805 ) ;
#16 = AXIS2_PLACEMENT_3D ( 'NONE', #125, #440, #272 ) ;
#17 = CARTESIAN_POINT ( 'NONE',  ( -5.000000000000000000, -16.99999999999999645, 0.000000000000000000 ) ) ;
#18 = VECTOR ( 'NONE', #100, 1000.000000000000000 ) ;
#19 = CC_DESIGN_APPROVAL ( #825, ( #767 ) ) ;
#20 = CARTESIAN_POINT ( 'NONE',  ( -36.00000000000000000, -18.00000000000000000, 4.000000000000000000 ) ) ;
#21 = DIRECTION ( 'NONE',  ( -0.000000000000000000, -0.000000000000000000, -1.000000000000000000 ) ) ;
#22 = VERTEX_POINT ( 'NONE', #419 ) ;
#23 = CARTESIAN_POINT ( 'NONE',  ( -36.00000000000000000, -18.00000000000000000, 6.999999999999999112 ) ) ;
#24 = CYLINDRICAL_SURFACE ( 'NONE', #630, 9.000000000000000000 ) ;
#25 = VERTEX_POINT ( 'NONE', #483 ) ;
#26 = EDGE_LOOP ( 'NONE', ( #275, #950, #192, #995 ) ) ;
#27 = EDGE_CURVE ( 'NONE', #597, #817, #421, .T. ) ;
#28 = FACE_OUTER_BOUND ( 'NONE', #399, .T. ) ;
#29 = DIRECTION ( 'NONE',  ( -0.000000000000000000, -0.000000000000000000, -1.000000000000000000 ) ) ;
#30 = CARTESIAN_POINT ( 'NONE',  ( 14.00000000000000000, 0.000000000000000000, 6.999999999999999112 ) ) ;
#31 = ORIENTED_EDGE ( 'NONE', *, *, #713, .T. ) ;
#32 = FACE_OUTER_BOUND ( 'NONE', #491, .T. ) ;
#33 = AXIS2_PLACEMENT_3D ( 'NONE', #581, #902, #446 ) ;
#34 = DIRECTION ( 'NONE',  ( -1.000000000000000000, 0.000000000000000000, -0.000000000000000000 ) ) ;
#35 = AXIS2_PLACEMENT_3D ( 'NONE', #784, #724, #705 ) ;
#36 = DIRECTION ( 'NONE',  ( -0.000000000000000000, -0.000000000000000000, -1.000000000000000000 ) ) ;
#37 = VERTEX_POINT ( 'NONE', #627 ) ;
#38 = ADVANCED_FACE ( 'NONE', ( #404 ), #640, .T. ) ;
#39 = FACE_OUTER_BOUND ( 'NONE', #717, .T. ) ;
#40 = APPLICATION_CONTEXT ( 'configuration controlled 3d designs of mechanical parts and assemblies' ) ;
#41 = CARTESIAN_POINT ( 'NONE',  ( -37.00000000000000711, -22.00000000000000000, 0.000000000000000000 ) ) ;
#42 = ORIENTED_EDGE ( 'NONE', *, *, #283, .F. ) ;
#43 = CARTESIAN_POINT ( 'NONE',  ( -11.09999999999999964, 0.000000000000000000, 0.000000000000000000 ) ) ;
#44 = EDGE_CURVE ( 'NONE', #570, #657, #62, .T. ) ;
#45 = CARTESIAN_POINT ( 'NONE',  ( 14.00000000000000000, 0.000000000000000000, -1.000000000000000888 ) ) ;
#46 = ORIENTED_EDGE ( 'NONE', *, *, #807, .F. ) ;
#47 = CALENDAR_DATE ( 2026, 12, 9 ) ;
#48 = CARTESIAN_POINT ( 'NONE',  ( 0.000000000000000000, -17.00000000000000000, 7.000000000000000000 ) ) ;
#49 = CIRCLE ( 'NONE', #458, 4.999999999999997335 ) ;
#50 = CARTESIAN_POINT ( 'NONE',  ( -1.100000000000000089, -14.00000000000000000, -1.000000000000000888 ) ) ;
#51 = AXIS2_PLACEMENT_3D ( 'NONE', #912, #211, #601 ) ;
#52 = ORIENTED_EDGE ( 'NONE', *, *, #430, .T. ) ;
#53 = COORDINATED_UNIVERSAL_TIME_OFFSET ( 6, 0, .BEHIND. ) ;
#54 = DIRECTION ( 'NONE',  ( -0.000000000000000000, -0.000000000000000000, -1.000000000000000000 ) ) ;
#55 = PLANE ( 'NONE',  #827 ) ;
#56 = VERTEX_POINT ( 'NONE', #204 ) ;
#57 = ADVANCED_FACE ( 'NONE', ( #753 ), #273, .F. ) ;
#58 = CARTESIAN_POINT ( 'NONE',  ( 0.000000000000000000, 0.000000000000000000, 0.000000000000000000 ) ) ;
#59 = DIRECTION ( 'NONE',  ( -0.000000000000000000, -0.000000000000000000, 1.000000000000000000 ) ) ;
#60 = ORIENTED_EDGE ( 'NONE', *, *, #436, .F. ) ;
#61 = DIRECTION ( 'NONE',  ( 1.000000000000000000, 0.000000000000000000, 0.000000000000000000 ) ) ;
#62 = CIRCLE ( 'NONE', #614, 17.00000000000000000 ) ;
#63 = CARTESIAN_POINT ( 'NONE',  ( 0.000000000000000000, 0.000000000000000000, 7.000000000000000000 ) ) ;
#64 = CIRCLE ( 'NONE', #326, 17.00000000000000000 ) ;
#65 = ORIENTED_EDGE ( 'NONE', *, *, #911, .F. ) ;
#66 = AXIS2_PLACEMENT_3D ( 'NONE', #990, #388, #687 ) ;
#67 = CIRCLE ( 'NONE', #569, 9.000000000000000000 ) ;
#68 = AXIS2_PLACEMENT_3D ( 'NONE', #85, #392, #320 ) ;
#69 = ADVANCED_FACE ( 'NONE', ( #743 ), #55, .F. ) ;
#70 = CARTESIAN_POINT ( 'NONE',  ( -42.00000000000000000, -22.00000000000000000, 0.000000000000000000 ) ) ;
#71 = CARTESIAN_POINT ( 'NONE',  ( -5.000000000000011546, -22.00000000000000000, 0.000000000000000000 ) ) ;
#72 = ORIENTED_EDGE ( 'NONE', *, *, #872, .T. ) ;
#73 = PERSON_AND_ORGANIZATION_ROLE ( 'classification_officer' ) ;
#74 = DIRECTION ( 'NONE',  ( 1.000000000000000000, 0.000000000000000000, 0.000000000000000000 ) ) ;
#75 = DIRECTION ( 'NONE',  ( -1.000000000000000000, 0.000000000000000000, 0.000000000000000000 ) ) ;
#76 = EDGE_CURVE ( 'NONE', #15, #162, #661, .T. ) ;
#77 = ORIENTED_EDGE ( 'NONE', *, *, #608, .T. ) ;
#78 = CYLINDRICAL_SURFACE ( 'NONE', #214, 17.00000000000000000 ) ;
#79 = CARTESIAN_POINT ( 'NONE',  ( 0.000000000000000000, 0.000000000000000000, -1.000000000000000000 ) ) ;
#80 = EDGE_LOOP ( 'NONE', ( #688, #609, #147, #620 ) ) ;
#81 = VECTOR ( 'NONE', #816, 1000.000000000000000 ) ;
#82 = CIRCLE ( 'NONE', #373, 11.09999999999999964 ) ;
#83 = AXIS2_PLACEMENT_3D ( 'NONE', #624, #255, #564 ) ;
#84 = LOCAL_TIME ( 21, 58, 6.000000000000000000, #745 ) ;
#85 = CARTESIAN_POINT ( 'NONE',  ( -37.00000000000000711, -16.99999999999999645, 4.000000000000000000 ) ) ;
#86 = DIRECTION ( 'NONE',  ( -1.000000000000000000, -0.000000000000000000, -0.000000000000000000 ) ) ;
#87 = ORIENTED_EDGE ( 'NONE', *, *, #76, .T. ) ;
#88 = EDGE_CURVE ( 'NONE', #385, #604, #259, .T. ) ;
#89 = LINE ( 'NONE', #234, #296 ) ;
#90 = DIRECTION ( 'NONE',  ( 0.000000000000000000, 0.000000000000000000, -1.000000000000000000 ) ) ;
#91 = MANIFOLD_SOLID_BREP ( 'Fillet1', #730 ) ;
#92 = ORIENTED_EDGE ( 'NONE', *, *, #218, .F. ) ;
#93 = ORIENTED_EDGE ( 'NONE', *, *, #27, .F. ) ;
#94 = CARTESIAN_POINT ( 'NONE',  ( 14.00000000000000000, 0.000000000000000000, -1.000000000000000888 ) ) ;
#95 = LINE ( 'NONE', #13, #164 ) ;
#96 = VERTEX_POINT ( 'NONE', #514 ) ;
#97 = VERTEX_POINT ( 'NONE', #809 ) ;
#98 = AXIS2_PLACEMENT_3D ( 'NONE', #45, #365, #577 ) ;
#99 = CIRCLE ( 'NONE', #473, 1.100000000000000089 ) ;
#100 = DIRECTION ( 'NONE',  ( -0.000000000000000000, -0.000000000000000000, -1.000000000000000000 ) ) ;
#101 = AXIS2_PLACEMENT_3D ( 'NONE', #621, #638, #877 ) ;
#102 = DIRECTION ( 'NONE',  ( 0.000000000000000000, 0.000000000000000000, -1.000000000000000000 ) ) ;
#103 = EDGE_CURVE ( 'NONE', #527, #604, #525, .T. ) ;
#104 = DIRECTION ( 'NONE',  ( 1.000000000000000000, 0.000000000000000000, 0.000000000000000000 ) ) ;
#105 = EDGE_LOOP ( 'NONE', ( #952, #915, #797, #739 ) ) ;
#106 = LINE ( 'NONE', #945, #345 ) ;
#107 = DIRECTION ( 'NONE',  ( -1.000000000000000000, 0.000000000000000000, 0.000000000000000000 ) ) ;
#108 = EDGE_LOOP ( 'NONE', ( #249, #891, #860, #390, #92, #763, #910, #328 ) ) ;
#109 = ORIENTED_EDGE ( 'NONE', *, *, #248, .T. ) ;
#110 = CARTESIAN_POINT ( 'NONE',  ( -37.59999999999999432, -18.00000000000000000, 0.000000000000000000 ) ) ;
#111 = DIRECTION ( 'NONE',  ( -0.000000000000000000, -1.000000000000000000, -0.000000000000000000 ) ) ;
#112 = VERTEX_POINT ( 'NONE', #665 ) ;
#113 = ORIENTED_EDGE ( 'NONE', *, *, #1005, .T. ) ;
#114 = CARTESIAN_POINT ( 'NONE',  ( 0.000000000000000000, 0.000000000000000000, 0.000000000000000000 ) ) ;
#115 = AXIS2_PLACEMENT_3D ( 'NONE', #340, #324, #948 ) ;
#116 = DIRECTION ( 'NONE',  ( -1.000000000000000000, 0.000000000000000000, 0.000000000000000000 ) ) ;
#117 = CARTESIAN_POINT ( 'NONE',  ( 11.09999999999999964, 1.359357947053562156E-15, 0.000000000000000000 ) ) ;
#118 = ORIENTED_EDGE ( 'NONE', *, *, #384, .T. ) ;
#119 = DIRECTION ( 'NONE',  ( -0.000000000000000000, -0.000000000000000000, -1.000000000000000000 ) ) ;
#120 = ADVANCED_FACE ( 'NONE', ( #889, #437, #675, #213, #122 ), #907, .T. ) ;
#121 = CARTESIAN_POINT ( 'NONE',  ( -36.00000000000000000, -18.00000000000000000, 0.000000000000000000 ) ) ;
#122 = FACE_BOUND ( 'NONE', #377, .T. ) ;
#123 = EDGE_LOOP ( 'NONE', ( #856, #899, #637, #420 ) ) ;
#124 = APPLICATION_PROTOCOL_DEFINITION ( 'international standard', 'config_control_design', 1994, #976 ) ;
#125 = CARTESIAN_POINT ( 'NONE',  ( 0.000000000000000000, 0.000000000000000000, -1.000000000000000000 ) ) ;
#126 = CARTESIAN_POINT ( 'NONE',  ( -17.00000000000000000, 0.000000000000000000, 7.000000000000000000 ) ) ;
#127 = ORIENTED_EDGE ( 'NONE', *, *, #713, .F. ) ;
#128 = PERSON_AND_ORGANIZATION ( #694, #540 ) ;
#129 = CARTESIAN_POINT ( 'NONE',  ( 11.09999999999999964, 1.359357947053562156E-15, 7.000000000000000000 ) ) ;
#130 = AXIS2_PLACEMENT_3D ( 'NONE', #731, #337, #252 ) ;
#131 = VECTOR ( 'NONE', #575, 1000.000000000000000 ) ;
#132 = DIRECTION ( 'NONE',  ( 0.000000000000000000, -0.000000000000000000, 1.000000000000000000 ) ) ;
#133 = CIRCLE ( 'NONE', #846, 1.599999999999997202 ) ;
#134 = EDGE_CURVE ( 'NONE', #37, #342, #832, .T. ) ;
#135 = ORIENTED_EDGE ( 'NONE', *, *, #76, .F. ) ;
#136 = DIRECTION ( 'NONE',  ( 0.000000000000000000, 0.000000000000000000, -1.000000000000000000 ) ) ;
#137 = CARTESIAN_POINT ( 'NONE',  ( 1.100000000000000089, -14.00000000000000000, 6.999999999999999112 ) ) ;
#138 = EDGE_LOOP ( 'NONE', ( #790, #341, #72, #927 ) ) ;
#139 = PERSON_AND_ORGANIZATION ( #694, #540 ) ;
#140 = CARTESIAN_POINT ( 'NONE',  ( 0.000000000000000000, 17.00000000000000000, 7.000000000000000000 ) ) ;
#141 = LINE ( 'NONE', #307, #732 ) ;
#142 = ORIENTED_EDGE ( 'NONE', *, *, #854, .F. ) ;
#143 = ORIENTED_EDGE ( 'NONE', *, *, #847, .T. ) ;
#144 = DIRECTION ( 'NONE',  ( 1.000000000000000000, 0.000000000000000000, 0.000000000000000000 ) ) ;
#145 = CARTESIAN_POINT ( 'NONE',  ( -42.00000000000000000, -22.00000000000000000, 0.000000000000000000 ) ) ;
#146 = CIRCLE ( 'NONE', #975, 1.599999999999997202 ) ;
#147 = ORIENTED_EDGE ( 'NONE', *, *, #769, .T. ) ;
#148 = CIRCLE ( 'NONE', #424, 1.599999999999997202 ) ;
#149 = PERSON_AND_ORGANIZATION ( #694, #540 ) ;
#150 = CARTESIAN_POINT ( 'NONE',  ( -34.39999999999999858, -18.00000000000000000, 6.999999999999999112 ) ) ;
#151 = EDGE_CURVE ( 'NONE', #646, #527, #991, .T. ) ;
#152 = FACE_OUTER_BOUND ( 'NONE', #5, .T. ) ;
#153 = VERTEX_POINT ( 'NONE', #41 ) ;
#154 = ORIENTED_EDGE ( 'NONE', *, *, #807, .T. ) ;
#155 = LINE ( 'NONE', #468, #360 ) ;
#156 = LINE ( 'NONE', #380, #520 ) ;
#157 = EDGE_LOOP ( 'NONE', ( #282, #791 ) ) ;
#158 = DIRECTION ( 'NONE',  ( -1.000000000000000000, 0.000000000000000000, 0.000000000000000000 ) ) ;
#159 = LINE ( 'NONE', #145, #504 ) ;
#160 = EDGE_CURVE ( 'NONE', #350, #112, #598, .T. ) ;
#161 = EDGE_CURVE ( 'NONE', #570, #999, #895, .T. ) ;
#162 = VERTEX_POINT ( 'NONE', #269 ) ;
#163 = ADVANCED_FACE ( 'NONE', ( #200 ), #670, .F. ) ;
#164 = VECTOR ( 'NONE', #86, 1000.000000000000000 ) ;
#165 = AXIS2_PLACEMENT_3D ( 'NONE', #893, #982, #34 ) ;
#166 = CC_DESIGN_SECURITY_CLASSIFICATION ( #767, ( #376 ) ) ;
#167 = CARTESIAN_POINT ( 'NONE',  ( 0.000000000000000000, -14.00000000000000000, 6.999999999999999112 ) ) ;
#168 = FACE_OUTER_BOUND ( 'NONE', #80, .T. ) ;
#169 = VERTEX_POINT ( 'NONE', #50 ) ;
#170 = CYLINDRICAL_SURFACE ( 'NONE', #667, 5.000000000000000888 ) ;
#171 = CYLINDRICAL_SURFACE ( 'NONE', #946, 11.09999999999999964 ) ;
#172 = CARTESIAN_POINT ( 'NONE',  ( 14.00000000000000000, 0.000000000000000000, 6.999999999999999112 ) ) ;
#173 = EDGE_LOOP ( 'NONE', ( #843, #734, #433, #415 ) ) ;
#174 = EDGE_CURVE ( 'NONE', #959, #956, #793, .T. ) ;
#175 = CARTESIAN_POINT ( 'NONE',  ( 0.000000000000000000, -14.00000000000000000, 6.999999999999999112 ) ) ;
#176 = DIRECTION ( 'NONE',  ( -1.000000000000000000, 0.000000000000000000, 0.000000000000000000 ) ) ;
#177 = CARTESIAN_POINT ( 'NONE',  ( 0.000000000000000000, 0.000000000000000000, 7.000000000000000000 ) ) ;
#178 = ORIENTED_EDGE ( 'NONE', *, *, #852, .F. ) ;
#179 = AXIS2_PLACEMENT_3D ( 'NONE', #222, #533, #842 ) ;
#180 = DIRECTION ( 'NONE',  ( 0.000000000000000000, 0.000000000000000000, 1.000000000000000000 ) ) ;
#181 = CIRCLE ( 'NONE', #830, 4.999999999999997335 ) ;
#182 =( GEOMETRIC_REPRESENTATION_CONTEXT ( 3 ) GLOBAL_UNCERTAINTY_ASSIGNED_CONTEXT ( ( #723 ) ) GLOBAL_UNIT_ASSIGNED_CONTEXT ( ( #814, #653, #195 ) ) REPRESENTATION_CONTEXT ( 'NONE', 'WORKASPACE' ) );
#183 = DIRECTION ( 'NONE',  ( 0.000000000000000000, 0.000000000000000000, -1.000000000000000000 ) ) ;
#184 = DIRECTION ( 'NONE',  ( 0.000000000000000000, 0.000000000000000000, -1.000000000000000000 ) ) ;
#185 = ORIENTED_EDGE ( 'NONE', *, *, #193, .F. ) ;
#186 = DIRECTION ( 'NONE',  ( -1.000000000000000000, 0.000000000000000000, 0.000000000000000000 ) ) ;
#187 = FACE_OUTER_BOUND ( 'NONE', #955, .T. ) ;
#188 = ORIENTED_EDGE ( 'NONE', *, *, #847, .F. ) ;
#189 = EDGE_LOOP ( 'NONE', ( #305, #693, #641, #924, #710, #300, #358, #707 ) ) ;
#190 = DIRECTION ( 'NONE',  ( -0.000000000000000000, -0.000000000000000000, -1.000000000000000000 ) ) ;
#191 = CARTESIAN_POINT ( 'NONE',  ( -9.000000000000000000, 0.000000000000000000, 0.000000000000000000 ) ) ;
#192 = ORIENTED_EDGE ( 'NONE', *, *, #898, .T. ) ;
#193 = EDGE_CURVE ( 'NONE', #162, #786, #371, .T. ) ;
#194 = AXIS2_PLACEMENT_3D ( 'NONE', #353, #502, #983 ) ;
#195 =( NAMED_UNIT ( * ) SI_UNIT ( $, .STERADIAN. ) SOLID_ANGLE_UNIT ( ) );
#196 = AXIS2_PLACEMENT_3D ( 'NONE', #79, #543, #469 ) ;
#197 = AXIS2_PLACEMENT_3D ( 'NONE', #523, #831, #61 ) ;
#198 = DIRECTION ( 'NONE',  ( -1.000000000000000000, 0.000000000000000000, 0.000000000000000000 ) ) ;
#199 = AXIS2_PLACEMENT_3D ( 'NONE', #175, #7, #708 ) ;
#200 = FACE_OUTER_BOUND ( 'NONE', #138, .T. ) ;
#201 = VERTEX_POINT ( 'NONE', #441 ) ;
#202 = DIRECTION ( 'NONE',  ( -0.000000000000000000, -0.000000000000000000, -1.000000000000000000 ) ) ;
#203 = LINE ( 'NONE', #48, #131 ) ;
#204 = CARTESIAN_POINT ( 'NONE',  ( -1.100000000000000089, -14.00000000000000000, 6.999999999999999112 ) ) ;
#205 = ORIENTED_EDGE ( 'NONE', *, *, #553, .F. ) ;
#206 = DATE_AND_TIME ( #904, #735 ) ;
#207 = FACE_BOUND ( 'NONE', #496, .T. ) ;
#208 = EDGE_CURVE ( 'NONE', #559, #965, #596, .T. ) ;
#209 = DIRECTION ( 'NONE',  ( 1.000000000000000000, 0.000000000000000000, 0.000000000000000000 ) ) ;
#210 = EDGE_LOOP ( 'NONE', ( #413, #519, #334, #908 ) ) ;
#211 = DIRECTION ( 'NONE',  ( 0.000000000000000000, -1.000000000000000000, 0.000000000000000000 ) ) ;
#212 = VECTOR ( 'NONE', #111, 1000.000000000000000 ) ;
#213 = FACE_OUTER_BOUND ( 'NONE', #407, .T. ) ;
#214 = AXIS2_PLACEMENT_3D ( 'NONE', #988, #848, #293 ) ;
#215 = VERTEX_POINT ( 'NONE', #117 ) ;
#216 = DIRECTION ( 'NONE',  ( -0.000000000000000000, -0.000000000000000000, -1.000000000000000000 ) ) ;
#217 = CARTESIAN_POINT ( 'NONE',  ( -36.00000000000000000, 18.00000000000000000, 0.000000000000000000 ) ) ;
#218 = EDGE_CURVE ( 'NONE', #96, #350, #242, .T. ) ;
#219 = EDGE_LOOP ( 'NONE', ( #229, #479, #500, #547 ) ) ;
#220 = ORIENTED_EDGE ( 'NONE', *, *, #736, .F. ) ;
#221 = CARTESIAN_POINT ( 'NONE',  ( 9.000000000000000000, 1.102182119232617714E-15, 0.000000000000000000 ) ) ;
#222 = CARTESIAN_POINT ( 'NONE',  ( 0.000000000000000000, 0.000000000000000000, 4.000000000000000000 ) ) ;
#223 = EDGE_LOOP ( 'NONE', ( #979, #332, #52, #113 ) ) ;
#224 = EDGE_CURVE ( 'NONE', #657, #484, #701, .T. ) ;
#225 = CARTESIAN_POINT ( 'NONE',  ( -37.59999999999999432, 18.00000000000000000, 6.999999999999999112 ) ) ;
#226 = VECTOR ( 'NONE', #36, 1000.000000000000000 ) ;
#227 = CARTESIAN_POINT ( 'NONE',  ( 17.00000000000000000, 2.081899558550500280E-15, 7.000000000000000000 ) ) ;
#228 = CIRCLE ( 'NONE', #179, 17.00000000000000000 ) ;
#229 = ORIENTED_EDGE ( 'NONE', *, *, #778, .F. ) ;
#230 = VECTOR ( 'NONE', #339, 1000.000000000000000 ) ;
#231 = DIRECTION ( 'NONE',  ( 1.000000000000000000, -6.938893903907228378E-16, 0.000000000000000000 ) ) ;
#232 = CARTESIAN_POINT ( 'NONE',  ( -9.000000000000000000, 0.000000000000000000, -1.000000000000000000 ) ) ;
#233 = VERTEX_POINT ( 'NONE', #936 ) ;
#234 = CARTESIAN_POINT ( 'NONE',  ( -37.59999999999999432, -18.00000000000000000, 6.999999999999999112 ) ) ;
#235 = EDGE_CURVE ( 'NONE', #956, #959, #794, .T. ) ;
#236 = DIRECTION ( 'NONE',  ( 1.000000000000000000, 0.000000000000000000, 0.000000000000000000 ) ) ;
#237 = ORIENTED_EDGE ( 'NONE', *, *, #476, .F. ) ;
#238 = CARTESIAN_POINT ( 'NONE',  ( 1.100000000000000089, 14.00000000000000000, 6.999999999999999112 ) ) ;
#239 = CARTESIAN_POINT ( 'NONE',  ( -42.00000000000000000, 22.00000000000000000, 4.000000000000000000 ) ) ;
#240 = EDGE_LOOP ( 'NONE', ( #534, #314, #46, #672 ) ) ;
#241 = AXIS2_PLACEMENT_3D ( 'NONE', #362, #913, #821 ) ;
#242 = CIRCLE ( 'NONE', #489, 17.00000000000000000 ) ;
#243 = AXIS2_PLACEMENT_3D ( 'NONE', #779, #938, #868 ) ;
#244 = CC_DESIGN_APPROVAL ( #309, ( #531 ) ) ;
#245 = DIRECTION ( 'NONE',  ( 0.000000000000000000, 0.000000000000000000, -1.000000000000000000 ) ) ;
#246 = CARTESIAN_POINT ( 'NONE',  ( 17.00000000000000000, 2.081899558550500280E-15, -1.000000000000000000 ) ) ;
#247 = ORIENTED_EDGE ( 'NONE', *, *, #292, .T. ) ;
#248 = EDGE_CURVE ( 'NONE', #258, #465, #141, .T. ) ;
#249 = ORIENTED_EDGE ( 'NONE', *, *, #292, .F. ) ;
#250 = CARTESIAN_POINT ( 'NONE',  ( -36.00000000000000000, -18.00000000000000000, 4.000000000000000000 ) ) ;
#251 = CARTESIAN_POINT ( 'NONE',  ( -1.100000000000000089, 14.00000000000000000, -1.000000000000000888 ) ) ;
#252 = DIRECTION ( 'NONE',  ( 1.000000000000000000, 0.000000000000000000, 0.000000000000000000 ) ) ;
#253 = VERTEX_POINT ( 'NONE', #770 ) ;
#254 = ADVANCED_FACE ( 'NONE', ( #858 ), #762, .F. ) ;
#255 = DIRECTION ( 'NONE',  ( 0.000000000000000000, 0.000000000000000000, -1.000000000000000000 ) ) ;
#256 = FACE_BOUND ( 'NONE', #582, .T. ) ;
#257 = ORIENTED_EDGE ( 'NONE', *, *, #333, .T. ) ;
#258 = VERTEX_POINT ( 'NONE', #529 ) ;
#259 = CIRCLE ( 'NONE', #98, 1.100000000000000311 ) ;
#260 = AXIS2_PLACEMENT_3D ( 'NONE', #217, #1007, #849 ) ;
#261 = APPROVAL_DATE_TIME ( #359, #309 ) ;
#262 = AXIS2_PLACEMENT_3D ( 'NONE', #23, #471, #335 ) ;
#263 = ADVANCED_FACE ( 'NONE', ( #776 ), #302, .F. ) ;
#264 = CARTESIAN_POINT ( 'NONE',  ( -17.00000000000000000, 0.000000000000000000, -1.000000000000000000 ) ) ;
#265 = ORIENTED_EDGE ( 'NONE', *, *, #589, .T. ) ;
#266 = ORIENTED_EDGE ( 'NONE', *, *, #736, .T. ) ;
#267 = CARTESIAN_POINT ( 'NONE',  ( -37.00000000000000711, -16.99999999999999645, 4.000000000000000000 ) ) ;
#268 = ADVANCED_FACE ( 'NONE', ( #939 ), #920, .F. ) ;
#269 = CARTESIAN_POINT ( 'NONE',  ( -5.000000000000011546, -22.00000000000000000, 4.000000000000000000 ) ) ;
#270 = ORIENTED_EDGE ( 'NONE', *, *, #704, .F. ) ;
#271 = PERSON_AND_ORGANIZATION_ROLE ( 'design_owner' ) ;
#272 = DIRECTION ( 'NONE',  ( 1.000000000000000000, 0.000000000000000000, -0.000000000000000000 ) ) ;
#273 = PLANE ( 'NONE',  #403 ) ;
#274 = CC_DESIGN_DATE_AND_TIME_ASSIGNMENT ( #923, #929, ( #767 ) ) ;
#275 = ORIENTED_EDGE ( 'NONE', *, *, #989, .F. ) ;
#276 = CIRCLE ( 'NONE', #681, 1.100000000000000311 ) ;
#277 = DIRECTION ( 'NONE',  ( 1.000000000000000000, 0.000000000000000000, 0.000000000000000000 ) ) ;
#278 = CIRCLE ( 'NONE', #344, 17.00000000000000000 ) ;
#279 = CIRCLE ( 'NONE', #375, 1.599999999999997202 ) ;
#280 = CARTESIAN_POINT ( 'NONE',  ( -17.00000000000000000, 0.000000000000000000, 7.000000000000000000 ) ) ;
#281 = DIRECTION ( 'NONE',  ( 0.000000000000000000, 1.000000000000000000, 0.000000000000000000 ) ) ;
#282 = ORIENTED_EDGE ( 'NONE', *, *, #839, .F. ) ;
#283 = EDGE_CURVE ( 'NONE', #470, #25, #159, .T. ) ;
#284 = PERSON_AND_ORGANIZATION_ROLE ( 'creator' ) ;
#285 = DIRECTION ( 'NONE',  ( -0.000000000000000000, -0.000000000000000000, -1.000000000000000000 ) ) ;
#286 = DIRECTION ( 'NONE',  ( 0.000000000000000000, 0.000000000000000000, 1.000000000000000000 ) ) ;
#287 = ORIENTED_EDGE ( 'NONE', *, *, #558, .T. ) ;
#288 = DIRECTION ( 'NONE',  ( -0.000000000000000000, -0.000000000000000000, -1.000000000000000000 ) ) ;
#289 = DIRECTION ( 'NONE',  ( -1.000000000000000000, 0.000000000000000000, 0.000000000000000000 ) ) ;
#290 = ORIENTED_EDGE ( 'NONE', *, *, #685, .F. ) ;
#291 = PERSON_AND_ORGANIZATION ( #694, #540 ) ;
#292 = EDGE_CURVE ( 'NONE', #657, #570, #278, .T. ) ;
#293 = DIRECTION ( 'NONE',  ( -1.000000000000000000, 0.000000000000000000, 0.000000000000000000 ) ) ;
#294 = CIRCLE ( 'NONE', #196, 17.00000000000000000 ) ;
#295 = CARTESIAN_POINT ( 'NONE',  ( -17.00000000000000000, 0.000000000000000000, 0.000000000000000000 ) ) ;
#296 = VECTOR ( 'NONE', #245, 1000.000000000000000 ) ;
#297 = APPROVAL_PERSON_ORGANIZATION ( #291, #825, #851 ) ;
#298 = ORIENTED_EDGE ( 'NONE', *, *, #160, .T. ) ;
#299 = SECURITY_CLASSIFICATION_LEVEL ( 'unclassified' ) ;
#300 = ORIENTED_EDGE ( 'NONE', *, *, #160, .F. ) ;
#301 = LINE ( 'NONE', #150, #490 ) ;
#302 = CYLINDRICAL_SURFACE ( 'NONE', #1, 11.09999999999999964 ) ;
#303 = EDGE_CURVE ( 'NONE', #787, #258, #616, .T. ) ;
#304 = PRODUCT_DEFINITION_SHAPE ( 'NONE', 'NONE',  #531 ) ;
#305 = ORIENTED_EDGE ( 'NONE', *, *, #224, .F. ) ;
#306 = LINE ( 'NONE', #1006, #994 ) ;
#307 = CARTESIAN_POINT ( 'NONE',  ( -34.39999999999999858, 18.00000000000000000, 6.999999999999999112 ) ) ;
#308 = VERTEX_POINT ( 'NONE', #368 ) ;
#309 = APPROVAL ( #516, 'UNSPECIFIED' ) ;
#310 = DIRECTION ( 'NONE',  ( 0.000000000000000000, 0.000000000000000000, -1.000000000000000000 ) ) ;
#311 = AXIS2_PLACEMENT_3D ( 'NONE', #172, #184, #886 ) ;
#312 = DIRECTION ( 'NONE',  ( 0.000000000000000000, 0.000000000000000000, -1.000000000000000000 ) ) ;
#313 = VECTOR ( 'NONE', #374, 1000.000000000000000 ) ;
#314 = ORIENTED_EDGE ( 'NONE', *, *, #989, .T. ) ;
#315 = AXIS2_PLACEMENT_3D ( 'NONE', #836, #216, #772 ) ;
#316 = EDGE_CURVE ( 'NONE', #817, #597, #82, .T. ) ;
#317 = DIRECTION ( 'NONE',  ( -0.000000000000000000, -0.000000000000000000, -1.000000000000000000 ) ) ;
#318 = DIRECTION ( 'NONE',  ( 0.000000000000000000, 0.000000000000000000, -1.000000000000000000 ) ) ;
#319 = VERTEX_POINT ( 'NONE', #71 ) ;
#320 = DIRECTION ( 'NONE',  ( -1.000000000000000000, 0.000000000000000000, 0.000000000000000000 ) ) ;
#321 = FACE_OUTER_BOUND ( 'NONE', #937, .T. ) ;
#322 = ORIENTED_EDGE ( 'NONE', *, *, #6, .F. ) ;
#323 = DIRECTION ( 'NONE',  ( -0.000000000000000000, -0.000000000000000000, 1.000000000000000000 ) ) ;
#324 = DIRECTION ( 'NONE',  ( 0.000000000000000000, 0.000000000000000000, 1.000000000000000000 ) ) ;
#325 = ORIENTED_EDGE ( 'NONE', *, *, #565, .F. ) ;
#326 = AXIS2_PLACEMENT_3D ( 'NONE', #782, #8, #482 ) ;
#327 = CIRCLE ( 'NONE', #552, 9.000000000000000000 ) ;
#328 = ORIENTED_EDGE ( 'NONE', *, *, #161, .F. ) ;
#329 = APPROVAL_PERSON_ORGANIZATION ( #961, #512, #497 ) ;
#330 = FACE_BOUND ( 'NONE', #623, .T. ) ;
#331 = DIRECTION ( 'NONE',  ( -0.000000000000000000, -0.000000000000000000, -1.000000000000000000 ) ) ;
#332 = ORIENTED_EDGE ( 'NONE', *, *, #704, .T. ) ;
#333 = EDGE_CURVE ( 'NONE', #15, #153, #156, .T. ) ;
#334 = ORIENTED_EDGE ( 'NONE', *, *, #395, .T. ) ;
#335 = DIRECTION ( 'NONE',  ( -1.000000000000000000, 0.000000000000000000, 0.000000000000000000 ) ) ;
#336 = DIRECTION ( 'NONE',  ( -0.000000000000000000, -0.000000000000000000, -1.000000000000000000 ) ) ;
#337 = DIRECTION ( 'NONE',  ( 0.000000000000000000, 0.000000000000000000, 1.000000000000000000 ) ) ;
#338 = ORIENTED_EDGE ( 'NONE', *, *, #480, .F. ) ;
#339 = DIRECTION ( 'NONE',  ( -0.000000000000000000, -0.000000000000000000, 1.000000000000000000 ) ) ;
#340 = CARTESIAN_POINT ( 'NONE',  ( 0.000000000000000000, 0.000000000000000000, -1.000000000000000000 ) ) ;
#341 = ORIENTED_EDGE ( 'NONE', *, *, #911, .T. ) ;
#342 = VERTEX_POINT ( 'NONE', #232 ) ;
#343 = AXIS2_PLACEMENT_3D ( 'NONE', #986, #286, #977 ) ;
#344 = AXIS2_PLACEMENT_3D ( 'NONE', #383, #696, #236 ) ;
#345 = VECTOR ( 'NONE', #396, 1000.000000000000000 ) ;
#346 = EDGE_CURVE ( 'NONE', #801, #465, #780, .T. ) ;
#347 = APPROVAL_PERSON_ORGANIZATION ( #128, #309, #740 ) ;
#348 = PLANE ( 'NONE',  #16 ) ;
#349 = DIRECTION ( 'NONE',  ( 1.000000000000000000, 0.000000000000000000, 0.000000000000000000 ) ) ;
#350 = VERTEX_POINT ( 'NONE', #295 ) ;
#351 = DIRECTION ( 'NONE',  ( 0.000000000000000000, 0.000000000000000000, 1.000000000000000000 ) ) ;
#352 = CARTESIAN_POINT ( 'NONE',  ( -37.00000000000000711, 16.99999999999999289, 0.000000000000000000 ) ) ;
#353 = CARTESIAN_POINT ( 'NONE',  ( -5.000000000000000000, -16.99999999999999645, 4.000000000000000000 ) ) ;
#354 = ORIENTED_EDGE ( 'NONE', *, *, #44, .T. ) ;
#355 = CARTESIAN_POINT ( 'NONE',  ( 0.000000000000000000, 0.000000000000000000, 0.000000000000000000 ) ) ;
#356 = FACE_OUTER_BOUND ( 'NONE', #726, .T. ) ;
#357 = CARTESIAN_POINT ( 'NONE',  ( 15.10000000000000142, 1.347111479062088503E-16, 6.999999999999999112 ) ) ;
#358 = ORIENTED_EDGE ( 'NONE', *, *, #633, .T. ) ;
#359 = DATE_AND_TIME ( #47, #84 ) ;
#360 = VECTOR ( 'NONE', #853, 1000.000000000000000 ) ;
#361 = DIRECTION ( 'NONE',  ( -0.000000000000000000, -0.000000000000000000, 1.000000000000000000 ) ) ;
#362 = CARTESIAN_POINT ( 'NONE',  ( 0.000000000000000000, 0.000000000000000000, 0.000000000000000000 ) ) ;
#363 = VERTEX_POINT ( 'NONE', #4 ) ;
#364 = DIRECTION ( 'NONE',  ( 1.000000000000000000, 0.000000000000000000, 0.000000000000000000 ) ) ;
#365 = DIRECTION ( 'NONE',  ( -0.000000000000000000, -0.000000000000000000, -1.000000000000000000 ) ) ;
#366 = ORIENTED_EDGE ( 'NONE', *, *, #703, .T. ) ;
#367 = DIRECTION ( 'NONE',  ( 1.000000000000000000, 0.000000000000000000, 0.000000000000000000 ) ) ;
#368 = CARTESIAN_POINT ( 'NONE',  ( -5.000000000000011546, 22.00000000000000000, 0.000000000000000000 ) ) ;
#369 = EDGE_LOOP ( 'NONE', ( #178, #612, #771, #60 ) ) ;
#370 = DIRECTION ( 'NONE',  ( 0.000000000000000000, 0.000000000000000000, 1.000000000000000000 ) ) ;
#371 = CIRCLE ( 'NONE', #194, 5.000000000000000000 ) ;
#372 = EDGE_CURVE ( 'NONE', #484, #522, #294, .T. ) ;
#373 = AXIS2_PLACEMENT_3D ( 'NONE', #679, #607, #539 ) ;
#374 = DIRECTION ( 'NONE',  ( -0.000000000000000000, -0.000000000000000000, -1.000000000000000000 ) ) ;
#375 = AXIS2_PLACEMENT_3D ( 'NONE', #746, #190, #507 ) ;
#376 = PRODUCT_DEFINITION_FORMATION_WITH_SPECIFIED_SOURCE ( 'ANY', '', #606, .NOT_KNOWN. ) ;
#377 = EDGE_LOOP ( 'NONE', ( #567, #93 ) ) ;
#378 = LINE ( 'NONE', #382, #2 ) ;
#379 = EDGE_CURVE ( 'NONE', #959, #201, #618, .T. ) ;
#380 = CARTESIAN_POINT ( 'NONE',  ( -37.00000000000000711, -22.00000000000000000, 4.000000000000000000 ) ) ;
#381 = ORIENTED_EDGE ( 'NONE', *, *, #749, .T. ) ;
#382 = CARTESIAN_POINT ( 'NONE',  ( -1.100000000000000089, 14.00000000000000000, 6.999999999999999112 ) ) ;
#383 = CARTESIAN_POINT ( 'NONE',  ( 0.000000000000000000, 0.000000000000000000, 7.000000000000000000 ) ) ;
#384 = EDGE_CURVE ( 'NONE', #999, #876, #228, .T. ) ;
#385 = VERTEX_POINT ( 'NONE', #931 ) ;
#386 = ADVANCED_FACE ( 'NONE', ( #152 ), #464, .F. ) ;
#387 = LINE ( 'NONE', #225, #506 ) ;
#388 = DIRECTION ( 'NONE',  ( 0.000000000000000000, 0.000000000000000000, -1.000000000000000000 ) ) ;
#389 = AXIS2_PLACEMENT_3D ( 'NONE', #478, #102, #561 ) ;
#390 = ORIENTED_EDGE ( 'NONE', *, *, #633, .F. ) ;
#391 = CIRCLE ( 'NONE', #650, 11.09999999999999964 ) ;
#392 = DIRECTION ( 'NONE',  ( -0.000000000000000000, -0.000000000000000000, 1.000000000000000000 ) ) ;
#393 = DIRECTION ( 'NONE',  ( -1.000000000000000000, -0.000000000000000000, -0.000000000000000000 ) ) ;
#394 = ORIENTED_EDGE ( 'NONE', *, *, #430, .F. ) ;
#395 = EDGE_CURVE ( 'NONE', #201, #503, #99, .T. ) ;
#396 = DIRECTION ( 'NONE',  ( 0.000000000000000000, 0.000000000000000000, -1.000000000000000000 ) ) ;
#397 = CARTESIAN_POINT ( 'NONE',  ( -42.00000000000000000, 16.99999999999999289, 0.000000000000000000 ) ) ;
#398 = ORIENTED_EDGE ( 'NONE', *, *, #642, .T. ) ;
#399 = EDGE_LOOP ( 'NONE', ( #722, #783, #728, #870 ) ) ;
#400 = CYLINDRICAL_SURFACE ( 'NONE', #101, 1.100000000000000089 ) ;
#401 = EDGE_CURVE ( 'NONE', #97, #363, #725, .T. ) ;
#402 = DIRECTION ( 'NONE',  ( 1.000000000000000000, 0.000000000000000000, 0.000000000000000000 ) ) ;
#403 = AXIS2_PLACEMENT_3D ( 'NONE', #592, #281, #132 ) ;
#404 = FACE_OUTER_BOUND ( 'NONE', #108, .T. ) ;
#405 = AXIS2_PLACEMENT_3D ( 'NONE', #603, #312, #75 ) ;
#406 = VECTOR ( 'NONE', #144, 1000.000000000000000 ) ;
#407 = EDGE_LOOP ( 'NONE', ( #354, #247 ) ) ;
#408 = DIRECTION ( 'NONE',  ( -0.000000000000000000, -0.000000000000000000, -1.000000000000000000 ) ) ;
#409 = CARTESIAN_POINT ( 'NONE',  ( -36.00000000000000000, 18.00000000000000000, 6.999999999999999112 ) ) ;
#410 = ORIENTED_EDGE ( 'NONE', *, *, #208, .F. ) ;
#411 = FACE_BOUND ( 'NONE', #903, .T. ) ;
#412 = CARTESIAN_POINT ( 'NONE',  ( -4.999999999999997335, 16.99999999999999645, 4.000000000000000000 ) ) ;
#413 = ORIENTED_EDGE ( 'NONE', *, *, #235, .T. ) ;
#414 = ADVANCED_FACE ( 'NONE', ( #321, #256 ), #631, .T. ) ;
#415 = ORIENTED_EDGE ( 'NONE', *, *, #872, .F. ) ;
#416 = ADVANCED_FACE ( 'NONE', ( #884 ), #796, .T. ) ;
#417 = DIRECTION ( 'NONE',  ( -1.000000000000000000, 0.000000000000000000, 0.000000000000000000 ) ) ;
#418 = LINE ( 'NONE', #888, #212 ) ;
#419 = CARTESIAN_POINT ( 'NONE',  ( 9.000000000000000000, 1.102182119232617714E-15, -1.000000000000000000 ) ) ;
#420 = ORIENTED_EDGE ( 'NONE', *, *, #134, .F. ) ;
#421 = CIRCLE ( 'NONE', #130, 11.09999999999999964 ) ;
#422 = AXIS2_PLACEMENT_3D ( 'NONE', #773, #757, #460 ) ;
#423 = CYLINDRICAL_SURFACE ( 'NONE', #554, 9.000000000000000000 ) ;
#424 = AXIS2_PLACEMENT_3D ( 'NONE', #250, #323, #158 ) ;
#425 = LOCAL_TIME ( 21, 58, 6.000000000000000000, #53 ) ;
#426 = CARTESIAN_POINT ( 'NONE',  ( 1.100000000000000089, -14.00000000000000000, 6.999999999999999112 ) ) ;
#427 = CARTESIAN_POINT ( 'NONE',  ( 0.000000000000000000, 0.000000000000000000, 0.000000000000000000 ) ) ;
#428 = EDGE_LOOP ( 'NONE', ( #871, #495, #220, #270 ) ) ;
#429 = LINE ( 'NONE', #900, #619 ) ;
#430 = EDGE_CURVE ( 'NONE', #308, #588, #95, .T. ) ;
#431 = DIRECTION ( 'NONE',  ( -0.000000000000000000, -0.000000000000000000, -1.000000000000000000 ) ) ;
#432 = DIRECTION ( 'NONE',  ( 0.000000000000000000, 0.000000000000000000, -1.000000000000000000 ) ) ;
#433 = ORIENTED_EDGE ( 'NONE', *, *, #625, .T. ) ;
#434 = CARTESIAN_POINT ( 'NONE',  ( 0.000000000000000000, -14.00000000000000000, 6.999999999999999112 ) ) ;
#435 = CARTESIAN_POINT ( 'NONE',  ( 15.10000000000000142, 1.347111479062088503E-16, -1.000000000000000888 ) ) ;
#436 = EDGE_CURVE ( 'NONE', #253, #470, #572, .T. ) ;
#437 = FACE_BOUND ( 'NONE', #887, .T. ) ;
#438 = ORIENTED_EDGE ( 'NONE', *, *, #333, .F. ) ;
#439 = DATE_TIME_ROLE ( 'creation_date' ) ;
#440 = DIRECTION ( 'NONE',  ( 0.000000000000000000, 0.000000000000000000, 1.000000000000000000 ) ) ;
#441 = CARTESIAN_POINT ( 'NONE',  ( 1.100000000000000089, 14.00000000000000000, -1.000000000000000888 ) ) ;
#442 = EDGE_CURVE ( 'NONE', #960, #233, #810, .T. ) ;
#443 = ORIENTED_EDGE ( 'NONE', *, *, #854, .T. ) ;
#444 = PERSON_AND_ORGANIZATION ( #694, #540 ) ;
#445 = CARTESIAN_POINT ( 'NONE',  ( -11.09999999999999964, 0.000000000000000000, 7.000000000000000000 ) ) ;
#446 = DIRECTION ( 'NONE',  ( 1.000000000000000000, 0.000000000000000000, 0.000000000000000000 ) ) ;
#447 = VERTEX_POINT ( 'NONE', #626 ) ;
#448 = ADVANCED_FACE ( 'NONE', ( #954 ), #171, .F. ) ;
#449 = APPROVAL_DATE_TIME ( #835, #512 ) ;
#450 = ORIENTED_EDGE ( 'NONE', *, *, #583, .T. ) ;
#451 = DIRECTION ( 'NONE',  ( 1.000000000000000000, 0.000000000000000000, 0.000000000000000000 ) ) ;
#452 = DIRECTION ( 'NONE',  ( 0.000000000000000000, 0.000000000000000000, -1.000000000000000000 ) ) ;
#453 = ORIENTED_EDGE ( 'NONE', *, *, #852, .T. ) ;
#454 = PERSON_AND_ORGANIZATION_ROLE ( 'creator' ) ;
#455 = CC_DESIGN_DATE_AND_TIME_ASSIGNMENT ( #206, #439, ( #531 ) ) ;
#456 = ORIENTED_EDGE ( 'NONE', *, *, #742, .T. ) ;
#457 = CARTESIAN_POINT ( 'NONE',  ( 12.90000000000000036, 0.000000000000000000, 6.999999999999999112 ) ) ;
#458 = AXIS2_PLACEMENT_3D ( 'NONE', #352, #288, #659 ) ;
#459 = AXIS2_PLACEMENT_3D ( 'NONE', #17, #628, #560 ) ;
#460 = DIRECTION ( 'NONE',  ( 1.000000000000000000, 0.000000000000000000, 0.000000000000000000 ) ) ;
#461 = ORIENTED_EDGE ( 'NONE', *, *, #151, .F. ) ;
#462 = CARTESIAN_POINT ( 'NONE',  ( 0.000000000000000000, 0.000000000000000000, -1.000000000000000000 ) ) ;
#463 = EDGE_CURVE ( 'NONE', #876, #97, #683, .T. ) ;
#464 = CYLINDRICAL_SURFACE ( 'NONE', #916, 1.599999999999997202 ) ;
#465 = VERTEX_POINT ( 'NONE', #879 ) ;
#466 = ADVANCED_BREP_SHAPE_REPRESENTATION ( 'ARM-105_Shoulder_bearing_cheek', ( #91, #524 ), #182 ) ;
#467 = ORIENTED_EDGE ( 'NONE', *, *, #442, .F. ) ;
#468 = CARTESIAN_POINT ( 'NONE',  ( 9.000000000000000000, 1.102182119232617714E-15, 0.000000000000000000 ) ) ;
#469 = DIRECTION ( 'NONE',  ( 1.000000000000000000, 0.000000000000000000, 0.000000000000000000 ) ) ;
#470 = VERTEX_POINT ( 'NONE', #397 ) ;
#471 = DIRECTION ( 'NONE',  ( 0.000000000000000000, 0.000000000000000000, -1.000000000000000000 ) ) ;
#472 = CARTESIAN_POINT ( 'NONE',  ( 0.000000000000000000, 0.000000000000000000, 7.000000000000000000 ) ) ;
#473 = AXIS2_PLACEMENT_3D ( 'NONE', #785, #336, #402 ) ;
#474 = ORIENTED_EDGE ( 'NONE', *, *, #727, .T. ) ;
#475 = AXIS2_PLACEMENT_3D ( 'NONE', #462, #690, #756 ) ;
#476 = EDGE_CURVE ( 'NONE', #522, #484, #829, .T. ) ;
#477 = DIRECTION ( 'NONE',  ( 0.000000000000000000, 0.000000000000000000, -1.000000000000000000 ) ) ;
#478 = CARTESIAN_POINT ( 'NONE',  ( -36.00000000000000000, 18.00000000000000000, 6.999999999999999112 ) ) ;
#479 = ORIENTED_EDGE ( 'NONE', *, *, #565, .T. ) ;
#480 = EDGE_CURVE ( 'NONE', #319, #162, #874, .T. ) ;
#481 = DIRECTION ( 'NONE',  ( 1.000000000000000000, 0.000000000000000000, 0.000000000000000000 ) ) ;
#482 = DIRECTION ( 'NONE',  ( -1.000000000000000000, 0.000000000000000000, 0.000000000000000000 ) ) ;
#483 = CARTESIAN_POINT ( 'NONE',  ( -42.00000000000000000, -16.99999999999999645, 0.000000000000000000 ) ) ;
#484 = VERTEX_POINT ( 'NONE', #246 ) ;
#485 = FACE_OUTER_BOUND ( 'NONE', #593, .T. ) ;
#486 = CARTESIAN_POINT ( 'NONE',  ( -36.00000000000000000, 18.00000000000000000, 4.000000000000000000 ) ) ;
#487 = VECTOR ( 'NONE', #656, 1000.000000000000000 ) ;
#488 = DIRECTION ( 'NONE',  ( 0.000000000000000000, 0.000000000000000000, 1.000000000000000000 ) ) ;
#489 = AXIS2_PLACEMENT_3D ( 'NONE', #427, #691, #622 ) ;
#490 = VECTOR ( 'NONE', #615, 1000.000000000000000 ) ;
#491 = EDGE_LOOP ( 'NONE', ( #850, #530, #366, #142 ) ) ;
#492 = DIRECTION ( 'NONE',  ( 1.000000000000000000, 0.000000000000000000, 0.000000000000000000 ) ) ;
#493 = CYLINDRICAL_SURFACE ( 'NONE', #389, 1.599999999999997202 ) ;
#494 = ADVANCED_FACE ( 'NONE', ( #556 ), #24, .F. ) ;
#495 = ORIENTED_EDGE ( 'NONE', *, *, #692, .T. ) ;
#496 = EDGE_LOOP ( 'NONE', ( #456, #750 ) ) ;
#497 = APPROVAL_ROLE ( '' ) ;
#498 = FACE_OUTER_BOUND ( 'NONE', #557, .T. ) ;
#499 = ORIENTED_EDGE ( 'NONE', *, *, #769, .F. ) ;
#500 = ORIENTED_EDGE ( 'NONE', *, *, #134, .T. ) ;
#501 = DIRECTION ( 'NONE',  ( 0.000000000000000000, 0.000000000000000000, -1.000000000000000000 ) ) ;
#502 = DIRECTION ( 'NONE',  ( -0.000000000000000000, -0.000000000000000000, 1.000000000000000000 ) ) ;
#503 = VERTEX_POINT ( 'NONE', #251 ) ;
#504 = VECTOR ( 'NONE', #837, 1000.000000000000000 ) ;
#505 = APPLICATION_PROTOCOL_DEFINITION ( 'international standard', 'config_control_design', 1994, #40 ) ;
#506 = VECTOR ( 'NONE', #310, 1000.000000000000000 ) ;
#507 = DIRECTION ( 'NONE',  ( 1.000000000000000000, 0.000000000000000000, 0.000000000000000000 ) ) ;
#508 = CARTESIAN_POINT ( 'NONE',  ( 0.000000000000000000, 14.00000000000000000, 6.999999999999999112 ) ) ;
#509 = EDGE_LOOP ( 'NONE', ( #680, #940, #676, #381 ) ) ;
#510 = CARTESIAN_POINT ( 'NONE',  ( -17.00000000000000000, 0.000000000000000000, 4.000000000000000000 ) ) ;
#511 = ADVANCED_FACE ( 'NONE', ( #168 ), #493, .F. ) ;
#512 = APPROVAL ( #883, 'UNSPECIFIED' ) ;
#513 = FACE_BOUND ( 'NONE', #1008, .T. ) ;
#514 = CARTESIAN_POINT ( 'NONE',  ( 0.000000000000000000, 17.00000000000000000, 0.000000000000000000 ) ) ;
#515 = EDGE_LOOP ( 'NONE', ( #185, #338, #188, #265 ) ) ;
#516 = APPROVAL_STATUS ( 'not_yet_approved' ) ;
#517 = DIRECTION ( 'NONE',  ( 1.000000000000000000, 0.000000000000000000, 0.000000000000000000 ) ) ;
#518 = DIRECTION ( 'NONE',  ( 0.000000000000000000, 0.000000000000000000, -1.000000000000000000 ) ) ;
#519 = ORIENTED_EDGE ( 'NONE', *, *, #379, .T. ) ;
#520 = VECTOR ( 'NONE', #855, 1000.000000000000000 ) ;
#521 = CIRCLE ( 'NONE', #584, 1.100000000000000311 ) ;
#522 = VERTEX_POINT ( 'NONE', #264 ) ;
#523 = CARTESIAN_POINT ( 'NONE',  ( 0.000000000000000000, 0.000000000000000000, 0.000000000000000000 ) ) ;
#524 = AXIS2_PLACEMENT_3D ( 'NONE', #114, #818, #277 ) ;
#525 = LINE ( 'NONE', #357, #81 ) ;
#526 = EDGE_CURVE ( 'NONE', #786, #999, #64, .T. ) ;
#527 = VERTEX_POINT ( 'NONE', #789 ) ;
#528 = CARTESIAN_POINT ( 'NONE',  ( 0.000000000000000000, 0.000000000000000000, -1.000000000000000000 ) ) ;
#529 = CARTESIAN_POINT ( 'NONE',  ( -34.39999999999999858, 18.00000000000000000, 4.000000000000000000 ) ) ;
#530 = ORIENTED_EDGE ( 'NONE', *, *, #208, .T. ) ;
#531 = PRODUCT_DEFINITION ( 'UNKNOWN', '', #376, #10 ) ;
#532 = LINE ( 'NONE', #457, #751 ) ;
#533 = DIRECTION ( 'NONE',  ( 0.000000000000000000, 0.000000000000000000, -1.000000000000000000 ) ) ;
#534 = ORIENTED_EDGE ( 'NONE', *, *, #316, .T. ) ;
#535 = VECTOR ( 'NONE', #209, 1000.000000000000000 ) ;
#536 = CARTESIAN_POINT ( 'NONE',  ( -37.59999999999999432, 18.00000000000000000, 4.000000000000000000 ) ) ;
#537 = AXIS2_PLACEMENT_3D ( 'NONE', #546, #59, #998 ) ;
#538 = CIRCLE ( 'NONE', #199, 1.100000000000000089 ) ;
#539 = DIRECTION ( 'NONE',  ( 1.000000000000000000, 0.000000000000000000, 0.000000000000000000 ) ) ;
#540 = ORGANIZATION ( 'UNSPECIFIED', 'UNSPECIFIED', '' ) ;
#541 = ORIENTED_EDGE ( 'NONE', *, *, #480, .T. ) ;
#542 = LINE ( 'NONE', #3, #896 ) ;
#543 = DIRECTION ( 'NONE',  ( 0.000000000000000000, 0.000000000000000000, 1.000000000000000000 ) ) ;
#544 = ORIENTED_EDGE ( 'NONE', *, *, #88, .F. ) ;
#545 = CARTESIAN_POINT ( 'NONE',  ( -4.999999999999997335, 16.99999999999999645, 4.000000000000000000 ) ) ;
#546 = CARTESIAN_POINT ( 'NONE',  ( -36.00000000000000000, 18.00000000000000000, 4.000000000000000000 ) ) ;
#547 = ORIENTED_EDGE ( 'NONE', *, *, #721, .F. ) ;
#548 = CARTESIAN_POINT ( 'NONE',  ( 0.000000000000000000, 0.000000000000000000, 0.000000000000000000 ) ) ;
#549 = DIRECTION ( 'NONE',  ( 0.000000000000000000, 0.000000000000000000, 1.000000000000000000 ) ) ;
#550 = VECTOR ( 'NONE', #719, 1000.000000000000000 ) ;
#551 = ORIENTED_EDGE ( 'NONE', *, *, #654, .F. ) ;
#552 = AXIS2_PLACEMENT_3D ( 'NONE', #528, #678, #451 ) ;
#553 = EDGE_CURVE ( 'NONE', #258, #787, #845, .T. ) ;
#554 = AXIS2_PLACEMENT_3D ( 'NONE', #355, #202, #417 ) ;
#555 = CARTESIAN_POINT ( 'NONE',  ( -11.09999999999999964, 0.000000000000000000, 7.000000000000000000 ) ) ;
#556 = FACE_OUTER_BOUND ( 'NONE', #123, .T. ) ;
#557 = EDGE_LOOP ( 'NONE', ( #711, #651, #966, #290 ) ) ;
#559 = VERTEX_POINT ( 'NONE', #426 ) ;
#558 = EDGE_CURVE ( 'NONE', #470, #588, #49, .T. ) ;
#560 = DIRECTION ( 'NONE',  ( 1.000000000000000000, -6.938893903907228378E-16, 0.000000000000000000 ) ) ;
#561 = DIRECTION ( 'NONE',  ( -1.000000000000000000, 0.000000000000000000, 0.000000000000000000 ) ) ;
#562 = DIRECTION ( 'NONE',  ( -1.000000000000000000, 0.000000000000000000, 0.000000000000000000 ) ) ;
#563 = ORIENTED_EDGE ( 'NONE', *, *, #951, .F. ) ;
#564 = DIRECTION ( 'NONE',  ( -1.000000000000000000, 0.000000000000000000, 0.000000000000000000 ) ) ;
#565 = EDGE_CURVE ( 'NONE', #812, #37, #878, .T. ) ;
#566 = DIRECTION ( 'NONE',  ( -0.000000000000000000, -0.000000000000000000, 1.000000000000000000 ) ) ;
#567 = ORIENTED_EDGE ( 'NONE', *, *, #316, .F. ) ;
#568 = AXIS2_PLACEMENT_3D ( 'NONE', #967, #804, #364 ) ;
#569 = AXIS2_PLACEMENT_3D ( 'NONE', #58, #370, #367 ) ;
#570 = VERTEX_POINT ( 'NONE', #280 ) ;
#571 = CARTESIAN_POINT ( 'NONE',  ( 1.100000000000000089, -14.00000000000000000, -1.000000000000000888 ) ) ;
#572 = LINE ( 'NONE', #644, #993 ) ;
#573 = DIRECTION ( 'NONE',  ( 1.000000000000000000, 0.000000000000000000, 0.000000000000000000 ) ) ;
#574 = ORIENTED_EDGE ( 'NONE', *, *, #962, .T. ) ;
#575 = DIRECTION ( 'NONE',  ( 0.000000000000000000, 0.000000000000000000, 1.000000000000000000 ) ) ;
#576 = ADVANCED_FACE ( 'NONE', ( #741, #513, #971, #187, #207 ), #348, .F. ) ;
#577 = DIRECTION ( 'NONE',  ( 1.000000000000000000, 0.000000000000000000, 0.000000000000000000 ) ) ;
#578 = ORIENTED_EDGE ( 'NONE', *, *, #951, .T. ) ;
#579 = CYLINDRICAL_SURFACE ( 'NONE', #636, 1.100000000000000089 ) ;
#580 = FACE_BOUND ( 'NONE', #645, .T. ) ;
#581 = CARTESIAN_POINT ( 'NONE',  ( 14.00000000000000000, 0.000000000000000000, 6.999999999999999112 ) ) ;
#582 = EDGE_LOOP ( 'NONE', ( #14, #325 ) ) ;
#583 = EDGE_CURVE ( 'NONE', #465, #801, #146, .T. ) ;
#584 = AXIS2_PLACEMENT_3D ( 'NONE', #94, #408, #11 ) ;
#585 = DIRECTION ( 'NONE',  ( 0.000000000000000000, 0.000000000000000000, -1.000000000000000000 ) ) ;
#586 = DIRECTION ( 'NONE',  ( 0.000000000000000000, 0.000000000000000000, -1.000000000000000000 ) ) ;
#587 = DIRECTION ( 'NONE',  ( 1.000000000000000000, 0.000000000000000000, 0.000000000000000000 ) ) ;
#588 = VERTEX_POINT ( 'NONE', #974 ) ;
#589 = EDGE_CURVE ( 'NONE', #112, #786, #203, .T. ) ;
#590 = COORDINATED_UNIVERSAL_TIME_OFFSET ( 6, 0, .BEHIND. ) ;
#591 = DIRECTION ( 'NONE',  ( -0.000000000000000000, -0.000000000000000000, -1.000000000000000000 ) ) ;
#592 = CARTESIAN_POINT ( 'NONE',  ( -42.00000000000000000, -22.00000000000000000, 4.000000000000000000 ) ) ;
#593 = EDGE_LOOP ( 'NONE', ( #394, #266, #834, #298, #143, #127, #398, #42, #287 ) ) ;
#594 = DIRECTION ( 'NONE',  ( -1.000000000000000000, 0.000000000000000000, 0.000000000000000000 ) ) ;
#595 = ADVANCED_FACE ( 'NONE', ( #498 ), #737, .F. ) ;
#596 = LINE ( 'NONE', #137, #487 ) ;
#597 = VERTEX_POINT ( 'NONE', #129 ) ;
#598 = CIRCLE ( 'NONE', #241, 17.00000000000000000 ) ;
#599 = AXIS2_PLACEMENT_3D ( 'NONE', #715, #549, #709 ) ;
#600 = AXIS2_PLACEMENT_3D ( 'NONE', #752, #586, #198 ) ;
#601 = DIRECTION ( 'NONE',  ( 0.000000000000000000, -0.000000000000000000, -1.000000000000000000 ) ) ;
#602 = LOCAL_TIME ( 21, 58, 6.000000000000000000, #803 ) ;
#603 = CARTESIAN_POINT ( 'NONE',  ( 0.000000000000000000, -14.00000000000000000, 6.999999999999999112 ) ) ;
#604 = VERTEX_POINT ( 'NONE', #435 ) ;
#605 = CARTESIAN_POINT ( 'NONE',  ( 0.000000000000000000, -14.00000000000000000, -1.000000000000000888 ) ) ;
#606 = PRODUCT ( 'ARM-105_Shoulder_bearing_cheek', 'ARM-105_Shoulder_bearing_cheek', '', ( #970 ) ) ;
#607 = DIRECTION ( 'NONE',  ( 0.000000000000000000, 0.000000000000000000, 1.000000000000000000 ) ) ;
#608 = EDGE_CURVE ( 'NONE', #253, #697, #418, .T. ) ;
#609 = ORIENTED_EDGE ( 'NONE', *, *, #553, .T. ) ;
#610 = DIRECTION ( 'NONE',  ( -0.000000000000000000, -0.000000000000000000, 1.000000000000000000 ) ) ;
#611 = DIRECTION ( 'NONE',  ( -0.000000000000000000, -0.000000000000000000, -1.000000000000000000 ) ) ;
#612 = ORIENTED_EDGE ( 'NONE', *, *, #1005, .F. ) ;
#613 = ADVANCED_FACE ( 'NONE', ( #580, #819, #39 ), #669, .F. ) ;
#614 = AXIS2_PLACEMENT_3D ( 'NONE', #177, #488, #104 ) ;
#615 = DIRECTION ( 'NONE',  ( 0.000000000000000000, 0.000000000000000000, -1.000000000000000000 ) ) ;
#616 = CIRCLE ( 'NONE', #537, 1.599999999999997202 ) ;
#617 = CIRCLE ( 'NONE', #635, 1.100000000000000089 ) ;
#618 = LINE ( 'NONE', #926, #933 ) ;
#619 = VECTOR ( 'NONE', #119, 1000.000000000000000 ) ;
#620 = ORIENTED_EDGE ( 'NONE', *, *, #346, .T. ) ;
#621 = CARTESIAN_POINT ( 'NONE',  ( 0.000000000000000000, 14.00000000000000000, 6.999999999999999112 ) ) ;
#622 = DIRECTION ( 'NONE',  ( 1.000000000000000000, 0.000000000000000000, 0.000000000000000000 ) ) ;
#623 = EDGE_LOOP ( 'NONE', ( #774, #744 ) ) ;
#624 = CARTESIAN_POINT ( 'NONE',  ( -5.000000000000000000, -16.99999999999999645, 4.000000000000000000 ) ) ;
#625 = EDGE_CURVE ( 'NONE', #447, #987, #279, .T. ) ;
#626 = CARTESIAN_POINT ( 'NONE',  ( -34.39999999999999858, -18.00000000000000000, 0.000000000000000000 ) ) ;
#627 = CARTESIAN_POINT ( 'NONE',  ( -9.000000000000000000, 0.000000000000000000, 0.000000000000000000 ) ) ;
#628 = DIRECTION ( 'NONE',  ( -0.000000000000000000, -0.000000000000000000, -1.000000000000000000 ) ) ;
#629 = AXIS2_PLACEMENT_3D ( 'NONE', #508, #826, #349 ) ;
#630 = AXIS2_PLACEMENT_3D ( 'NONE', #958, #331, #943 ) ;
#631 = PLANE ( 'NONE',  #599 ) ;
#632 = CIRCLE ( 'NONE', #880, 1.100000000000000089 ) ;
#633 = EDGE_CURVE ( 'NONE', #350, #522, #815, .T. ) ;
#634 = ORIENTED_EDGE ( 'NONE', *, *, #625, .F. ) ;
#635 = AXIS2_PLACEMENT_3D ( 'NONE', #873, #792, #481 ) ;
#636 = AXIS2_PLACEMENT_3D ( 'NONE', #434, #585, #186 ) ;
#637 = ORIENTED_EDGE ( 'NONE', *, *, #742, .F. ) ;
#638 = DIRECTION ( 'NONE',  ( 0.000000000000000000, 0.000000000000000000, -1.000000000000000000 ) ) ;
#639 = CARTESIAN_POINT ( 'NONE',  ( -37.00000000000000711, 16.99999999999999289, 4.000000000000000000 ) ) ;
#640 = CYLINDRICAL_SURFACE ( 'NONE', #844, 17.00000000000000000 ) ;
#641 = ORIENTED_EDGE ( 'NONE', *, *, #161, .T. ) ;
#642 = EDGE_CURVE ( 'NONE', #153, #25, #181, .T. ) ;
#643 = FACE_OUTER_BOUND ( 'NONE', #515, .T. ) ;
#644 = CARTESIAN_POINT ( 'NONE',  ( -42.00000000000000000, 16.99999999999999289, 4.000000000000000000 ) ) ;
#645 = EDGE_LOOP ( 'NONE', ( #467, #65 ) ) ;
#646 = VERTEX_POINT ( 'NONE', #655 ) ;
#647 = CC_DESIGN_PERSON_AND_ORGANIZATION_ASSIGNMENT ( #444, #682, ( #376 ) ) ;
#648 = DIRECTION ( 'NONE',  ( -1.000000000000000000, 0.000000000000000000, 0.000000000000000000 ) ) ;
#649 = DIRECTION ( 'NONE',  ( 0.000000000000000000, 0.000000000000000000, 1.000000000000000000 ) ) ;
#650 = AXIS2_PLACEMENT_3D ( 'NONE', #548, #180, #492 ) ;
#651 = ORIENTED_EDGE ( 'NONE', *, *, #103, .T. ) ;
#652 = CC_DESIGN_APPROVAL ( #512, ( #376 ) ) ;
#653 =( NAMED_UNIT ( * ) PLANE_ANGLE_UNIT ( ) SI_UNIT ( $, .RADIAN. ) );
#654 = EDGE_CURVE ( 'NONE', #987, #447, #133, .T. ) ;
#655 = CARTESIAN_POINT ( 'NONE',  ( 12.90000000000000036, 0.000000000000000000, 6.999999999999999112 ) ) ;
#656 = DIRECTION ( 'NONE',  ( 0.000000000000000000, 0.000000000000000000, -1.000000000000000000 ) ) ;
#657 = VERTEX_POINT ( 'NONE', #985 ) ;
#658 = PERSON_AND_ORGANIZATION ( #694, #540 ) ;
#659 = DIRECTION ( 'NONE',  ( 1.000000000000000000, 0.000000000000000000, 0.000000000000000000 ) ) ;
#660 = ADVANCED_FACE ( 'NONE', ( #356 ), #729, .T. ) ;
#661 = LINE ( 'NONE', #972, #535 ) ;
#662 = VERTEX_POINT ( 'NONE', #43 ) ;
#663 = CARTESIAN_POINT ( 'NONE',  ( -37.00000000000000711, 22.00000000000000000, 4.000000000000000000 ) ) ;
#664 = FACE_OUTER_BOUND ( 'NONE', #189, .T. ) ;
#665 = CARTESIAN_POINT ( 'NONE',  ( 0.000000000000000000, -17.00000000000000000, 0.000000000000000000 ) ) ;
#666 = ORIENTED_EDGE ( 'NONE', *, *, #174, .F. ) ;
#667 = AXIS2_PLACEMENT_3D ( 'NONE', #545, #477, #799 ) ;
#668 = DIRECTION ( 'NONE',  ( 1.000000000000000000, 0.000000000000000000, 0.000000000000000000 ) ) ;
#669 = PLANE ( 'NONE',  #165 ) ;
#670 = CYLINDRICAL_SURFACE ( 'NONE', #944, 1.599999999999997202 ) ;
#671 = ADVANCED_FACE ( 'NONE', ( #664 ), #78, .T. ) ;
#672 = ORIENTED_EDGE ( 'NONE', *, *, #898, .F. ) ;
#673 = EDGE_CURVE ( 'NONE', #233, #447, #301, .T. ) ;
#674 = CARTESIAN_POINT ( 'NONE',  ( -17.00000000000000000, 0.000000000000000000, 7.000000000000000000 ) ) ;
#675 = FACE_BOUND ( 'NONE', #9, .T. ) ;
#676 = ORIENTED_EDGE ( 'NONE', *, *, #283, .T. ) ;
#677 = CALENDAR_DATE ( 2026, 12, 9 ) ;
#678 = DIRECTION ( 'NONE',  ( 0.000000000000000000, 0.000000000000000000, 1.000000000000000000 ) ) ;
#679 = CARTESIAN_POINT ( 'NONE',  ( 0.000000000000000000, 0.000000000000000000, 7.000000000000000000 ) ) ;
#680 = ORIENTED_EDGE ( 'NONE', *, *, #608, .F. ) ;
#681 = AXIS2_PLACEMENT_3D ( 'NONE', #30, #649, #573 ) ;
#682 = PERSON_AND_ORGANIZATION_ROLE ( 'design_supplier' ) ;
#683 = CIRCLE ( 'NONE', #764, 5.000000000000000888 ) ;
#684 = VECTOR ( 'NONE', #591, 1000.000000000000000 ) ;
#685 = EDGE_CURVE ( 'NONE', #646, #385, #532, .T. ) ;
#686 = FACE_OUTER_BOUND ( 'NONE', #428, .T. ) ;
#687 = DIRECTION ( 'NONE',  ( -1.000000000000000000, 0.000000000000000000, 0.000000000000000000 ) ) ;
#688 = ORIENTED_EDGE ( 'NONE', *, *, #248, .F. ) ;
#689 = COORDINATED_UNIVERSAL_TIME_OFFSET ( 6, 0, .BEHIND. ) ;
#690 = DIRECTION ( 'NONE',  ( 0.000000000000000000, 0.000000000000000000, 1.000000000000000000 ) ) ;
#691 = DIRECTION ( 'NONE',  ( 0.000000000000000000, 0.000000000000000000, 1.000000000000000000 ) ) ;
#692 = EDGE_CURVE ( 'NONE', #876, #96, #930, .T. ) ;
#693 = ORIENTED_EDGE ( 'NONE', *, *, #44, .F. ) ;
#694 = PERSON ( 'UNSPECIFIED', 'UNSPECIFIED', 'UNSPECIFIED', ('UNSPECIFIED'), ('UNSPECIFIED'), ('UNSPECIFIED') ) ;
#695 = CARTESIAN_POINT ( 'NONE',  ( -42.00000000000000000, -16.99999999999999645, 4.000000000000000000 ) ) ;
#696 = DIRECTION ( 'NONE',  ( 0.000000000000000000, 0.000000000000000000, 1.000000000000000000 ) ) ;
#697 = VERTEX_POINT ( 'NONE', #695 ) ;
#698 = PLANE ( 'NONE',  #51 ) ;
#699 = AXIS2_PLACEMENT_3D ( 'NONE', #639, #183, #800 ) ;
#700 = CIRCLE ( 'NONE', #243, 4.999999999999997335 ) ;
#701 = LINE ( 'NONE', #227, #313 ) ;
#702 = EDGE_LOOP ( 'NONE', ( #135, #257, #31, #541 ) ) ;
#703 = EDGE_CURVE ( 'NONE', #965, #169, #733, .T. ) ;
#704 = EDGE_CURVE ( 'NONE', #97, #308, #542, .T. ) ;
#705 = DIRECTION ( 'NONE',  ( 1.000000000000000000, 0.000000000000000000, -0.000000000000000000 ) ) ;
#706 = DIRECTION ( 'NONE',  ( -1.000000000000000000, 0.000000000000000000, 0.000000000000000000 ) ) ;
#707 = ORIENTED_EDGE ( 'NONE', *, *, #476, .T. ) ;
#708 = DIRECTION ( 'NONE',  ( 1.000000000000000000, 0.000000000000000000, 0.000000000000000000 ) ) ;
#709 = DIRECTION ( 'NONE',  ( 1.000000000000000000, 0.000000000000000000, -0.000000000000000000 ) ) ;
#710 = ORIENTED_EDGE ( 'NONE', *, *, #589, .F. ) ;
#711 = ORIENTED_EDGE ( 'NONE', *, *, #151, .T. ) ;
#712 = CARTESIAN_POINT ( 'NONE',  ( 0.000000000000000000, 17.00000000000000000, 4.000000000000000000 ) ) ;
#713 = EDGE_CURVE ( 'NONE', #153, #319, #841, .T. ) ;
#714 = AXIS2_PLACEMENT_3D ( 'NONE', #20, #864, #706 ) ;
#715 = CARTESIAN_POINT ( 'NONE',  ( 0.000000000000000000, 0.000000000000000000, 0.000000000000000000 ) ) ;
#716 = CARTESIAN_POINT ( 'NONE',  ( 0.000000000000000000, 0.000000000000000000, 7.000000000000000000 ) ) ;
#717 = EDGE_LOOP ( 'NONE', ( #798, #118, #973, #838, #453, #77, #578, #87, #866 ) ) ;
#718 = CYLINDRICAL_SURFACE ( 'NONE', #262, 1.599999999999997202 ) ;
#719 = DIRECTION ( 'NONE',  ( -0.000000000000000000, -0.000000000000000000, 1.000000000000000000 ) ) ;
#720 = EDGE_LOOP ( 'NONE', ( #760, #205 ) ) ;
#721 = EDGE_CURVE ( 'NONE', #22, #342, #964, .T. ) ;
#722 = ORIENTED_EDGE ( 'NONE', *, *, #379, .F. ) ;
#723 = UNCERTAINTY_MEASURE_WITH_UNIT (LENGTH_MEASURE( 1.000000000000000082E-05 ), #814, 'distance_accuracy_value', 'NONE');
#724 = DIRECTION ( 'NONE',  ( 0.000000000000000000, 0.000000000000000000, 1.000000000000000000 ) ) ;
#725 = LINE ( 'NONE', #239, #862 ) ;
#726 = EDGE_LOOP ( 'NONE', ( #563, #1004, #806, #438 ) ) ;
#727 = EDGE_CURVE ( 'NONE', #169, #965, #632, .T. ) ;
#728 = ORIENTED_EDGE ( 'NONE', *, *, #747, .T. ) ;
#729 = CYLINDRICAL_SURFACE ( 'NONE', #917, 4.999999999999997335 ) ;
#730 = CLOSED_SHELL ( 'NONE', ( #595, #980, #268, #928, #386, #494, #263, #38, #867, #671, #448, #120, #69, #57, #795, #613, #414, #576, #1003, #511, #163, #921, #254, #12, #833, #416, #660, #934 ) ) ;
#731 = CARTESIAN_POINT ( 'NONE',  ( 0.000000000000000000, 0.000000000000000000, 7.000000000000000000 ) ) ;
#732 = VECTOR ( 'NONE', #452, 1000.000000000000000 ) ;
#733 = CIRCLE ( 'NONE', #315, 1.100000000000000089 ) ;
#734 = ORIENTED_EDGE ( 'NONE', *, *, #673, .T. ) ;
#735 = LOCAL_TIME ( 21, 58, 6.000000000000000000, #590 ) ;
#736 = EDGE_CURVE ( 'NONE', #308, #96, #811, .T. ) ;
#737 = CYLINDRICAL_SURFACE ( 'NONE', #600, 1.100000000000000311 ) ;
#738 = CARTESIAN_POINT ( 'NONE',  ( -42.00000000000000000, -22.00000000000000000, 4.000000000000000000 ) ) ;
#739 = ORIENTED_EDGE ( 'NONE', *, *, #88, .T. ) ;
#740 = APPROVAL_ROLE ( '' ) ;
#741 = FACE_BOUND ( 'NONE', #802, .T. ) ;
#742 = EDGE_CURVE ( 'NONE', #342, #22, #327, .T. ) ;
#743 = FACE_OUTER_BOUND ( 'NONE', #509, .T. ) ;
#744 = ORIENTED_EDGE ( 'NONE', *, *, #583, .F. ) ;
#745 = COORDINATED_UNIVERSAL_TIME_OFFSET ( 6, 0, .BEHIND. ) ;
#746 = CARTESIAN_POINT ( 'NONE',  ( -36.00000000000000000, -18.00000000000000000, 0.000000000000000000 ) ) ;
#747 = EDGE_CURVE ( 'NONE', #956, #503, #378, .T. ) ;
#748 = CARTESIAN_POINT ( 'NONE',  ( -36.00000000000000000, -18.00000000000000000, 6.999999999999999112 ) ) ;
#749 = EDGE_CURVE ( 'NONE', #25, #697, #306, .T. ) ;
#750 = ORIENTED_EDGE ( 'NONE', *, *, #721, .T. ) ;
#751 = VECTOR ( 'NONE', #136, 1000.000000000000000 ) ;
#752 = CARTESIAN_POINT ( 'NONE',  ( 14.00000000000000000, 0.000000000000000000, 6.999999999999999112 ) ) ;
#753 = FACE_OUTER_BOUND ( 'NONE', #702, .T. ) ;
#754 = ORIENTED_EDGE ( 'NONE', *, *, #703, .F. ) ;
#755 = CC_DESIGN_PERSON_AND_ORGANIZATION_ASSIGNMENT ( #981, #284, ( #531 ) ) ;
#756 = DIRECTION ( 'NONE',  ( 1.000000000000000000, 0.000000000000000000, 0.000000000000000000 ) ) ;
#757 = DIRECTION ( 'NONE',  ( 0.000000000000000000, 0.000000000000000000, 1.000000000000000000 ) ) ;
#758 = EDGE_LOOP ( 'NONE', ( #461, #322 ) ) ;
#759 = APPROVAL_STATUS ( 'not_yet_approved' ) ;
#760 = ORIENTED_EDGE ( 'NONE', *, *, #303, .F. ) ;
#761 = DIRECTION ( 'NONE',  ( 0.000000000000000000, 0.000000000000000000, -1.000000000000000000 ) ) ;
#762 = CYLINDRICAL_SURFACE ( 'NONE', #405, 1.100000000000000089 ) ;
#763 = ORIENTED_EDGE ( 'NONE', *, *, #692, .F. ) ;
#764 = AXIS2_PLACEMENT_3D ( 'NONE', #412, #566, #176 ) ;
#765 = SHAPE_DEFINITION_REPRESENTATION ( #304, #466 ) ;
#766 = AXIS2_PLACEMENT_3D ( 'NONE', #1001, #925, #231 ) ;
#767 = SECURITY_CLASSIFICATION ( '', '', #299 ) ;
#768 = DIRECTION ( 'NONE',  ( 0.000000000000000000, 0.000000000000000000, -1.000000000000000000 ) ) ;
#769 = EDGE_CURVE ( 'NONE', #787, #801, #387, .T. ) ;
#770 = CARTESIAN_POINT ( 'NONE',  ( -42.00000000000000000, 16.99999999999999289, 4.000000000000000000 ) ) ;
#771 = ORIENTED_EDGE ( 'NONE', *, *, #558, .F. ) ;
#772 = DIRECTION ( 'NONE',  ( 1.000000000000000000, 0.000000000000000000, 0.000000000000000000 ) ) ;
#773 = CARTESIAN_POINT ( 'NONE',  ( 0.000000000000000000, 14.00000000000000000, 6.999999999999999112 ) ) ;
#774 = ORIENTED_EDGE ( 'NONE', *, *, #346, .F. ) ;
#775 = FACE_OUTER_BOUND ( 'NONE', #223, .T. ) ;
#776 = FACE_OUTER_BOUND ( 'NONE', #240, .T. ) ;
#777 = ORIENTED_EDGE ( 'NONE', *, *, #235, .F. ) ;
#778 = EDGE_CURVE ( 'NONE', #812, #22, #155, .T. ) ;
#779 = CARTESIAN_POINT ( 'NONE',  ( -37.00000000000000711, 16.99999999999999289, 4.000000000000000000 ) ) ;
#780 = CIRCLE ( 'NONE', #260, 1.599999999999997202 ) ;
#781 = CIRCLE ( 'NONE', #197, 11.09999999999999964 ) ;
#782 = CARTESIAN_POINT ( 'NONE',  ( 0.000000000000000000, 0.000000000000000000, 4.000000000000000000 ) ) ;
#783 = ORIENTED_EDGE ( 'NONE', *, *, #174, .T. ) ;
#784 = CARTESIAN_POINT ( 'NONE',  ( 0.000000000000000000, 0.000000000000000000, 0.000000000000000000 ) ) ;
#785 = CARTESIAN_POINT ( 'NONE',  ( 0.000000000000000000, 14.00000000000000000, -1.000000000000000888 ) ) ;
#786 = VERTEX_POINT ( 'NONE', #935 ) ;
#787 = VERTEX_POINT ( 'NONE', #536 ) ;
#788 = LINE ( 'NONE', #555, #18 ) ;
#789 = CARTESIAN_POINT ( 'NONE',  ( 15.10000000000000142, 1.347111479062088503E-16, 6.999999999999999112 ) ) ;
#790 = ORIENTED_EDGE ( 'NONE', *, *, #673, .F. ) ;
#791 = ORIENTED_EDGE ( 'NONE', *, *, #395, .F. ) ;
#792 = DIRECTION ( 'NONE',  ( -0.000000000000000000, -0.000000000000000000, -1.000000000000000000 ) ) ;
#793 = CIRCLE ( 'NONE', #629, 1.100000000000000089 ) ;
#794 = CIRCLE ( 'NONE', #422, 1.100000000000000089 ) ;
#795 = ADVANCED_FACE ( 'NONE', ( #775 ), #698, .F. ) ;
#796 = CYLINDRICAL_SURFACE ( 'NONE', #699, 4.999999999999997335 ) ;
#797 = ORIENTED_EDGE ( 'NONE', *, *, #685, .T. ) ;
#798 = ORIENTED_EDGE ( 'NONE', *, *, #526, .T. ) ;
#799 = DIRECTION ( 'NONE',  ( -1.000000000000000000, 0.000000000000000000, 0.000000000000000000 ) ) ;
#800 = DIRECTION ( 'NONE',  ( -1.000000000000000000, 0.000000000000000000, 0.000000000000000000 ) ) ;
#801 = VERTEX_POINT ( 'NONE', #996 ) ;
#802 = EDGE_LOOP ( 'NONE', ( #544, #828 ) ) ;
#803 = COORDINATED_UNIVERSAL_TIME_OFFSET ( 6, 0, .BEHIND. ) ;
#804 = DIRECTION ( 'NONE',  ( 0.000000000000000000, 0.000000000000000000, 1.000000000000000000 ) ) ;
#805 = CARTESIAN_POINT ( 'NONE',  ( -37.00000000000000711, -22.00000000000000000, 4.000000000000000000 ) ) ;
#806 = ORIENTED_EDGE ( 'NONE', *, *, #642, .F. ) ;
#807 = EDGE_CURVE ( 'NONE', #662, #215, #781, .T. ) ;
#808 = DIRECTION ( 'NONE',  ( 1.000000000000000000, 0.000000000000000000, 0.000000000000000000 ) ) ;
#809 = CARTESIAN_POINT ( 'NONE',  ( -5.000000000000011546, 22.00000000000000000, 4.000000000000000000 ) ) ;
#810 = CIRCLE ( 'NONE', #714, 1.599999999999997202 ) ;
#811 = CIRCLE ( 'NONE', #766, 5.000000000000000000 ) ;
#812 = VERTEX_POINT ( 'NONE', #221 ) ;
#813 = CC_DESIGN_PERSON_AND_ORGANIZATION_ASSIGNMENT ( #149, #73, ( #767 ) ) ;
#814 =( LENGTH_UNIT ( ) NAMED_UNIT ( * ) SI_UNIT ( .MILLI., .METRE. ) );
#815 = LINE ( 'NONE', #674, #684 ) ;
#816 = DIRECTION ( 'NONE',  ( 0.000000000000000000, 0.000000000000000000, -1.000000000000000000 ) ) ;
#817 = VERTEX_POINT ( 'NONE', #445 ) ;
#818 = DIRECTION ( 'NONE',  ( 0.000000000000000000, 0.000000000000000000, 1.000000000000000000 ) ) ;
#819 = FACE_BOUND ( 'NONE', #720, .T. ) ;
#820 = EDGE_CURVE ( 'NONE', #37, #812, #67, .T. ) ;
#821 = DIRECTION ( 'NONE',  ( 1.000000000000000000, 0.000000000000000000, 0.000000000000000000 ) ) ;
#822 = EDGE_LOOP ( 'NONE', ( #410, #574, #443, #474 ) ) ;
#823 = LINE ( 'NONE', #663, #230 ) ;
#824 = CARTESIAN_POINT ( 'NONE',  ( -37.00000000000000711, -16.99999999999999645, 0.000000000000000000 ) ) ;
#825 = APPROVAL ( #759, 'UNSPECIFIED' ) ;
#826 = DIRECTION ( 'NONE',  ( 0.000000000000000000, 0.000000000000000000, 1.000000000000000000 ) ) ;
#827 = AXIS2_PLACEMENT_3D ( 'NONE', #738, #587, #432 ) ;
#828 = ORIENTED_EDGE ( 'NONE', *, *, #905, .F. ) ;
#829 = CIRCLE ( 'NONE', #115, 17.00000000000000000 ) ;
#830 = AXIS2_PLACEMENT_3D ( 'NONE', #824, #54, #906 ) ;
#831 = DIRECTION ( 'NONE',  ( 0.000000000000000000, 0.000000000000000000, 1.000000000000000000 ) ) ;
#832 = LINE ( 'NONE', #191, #914 ) ;
#833 = ADVANCED_FACE ( 'NONE', ( #686 ), #170, .T. ) ;
#834 = ORIENTED_EDGE ( 'NONE', *, *, #218, .T. ) ;
#835 = DATE_AND_TIME ( #1000, #602 ) ;
#836 = CARTESIAN_POINT ( 'NONE',  ( 0.000000000000000000, -14.00000000000000000, -1.000000000000000888 ) ) ;
#837 = DIRECTION ( 'NONE',  ( -0.000000000000000000, -1.000000000000000000, -0.000000000000000000 ) ) ;
#838 = ORIENTED_EDGE ( 'NONE', *, *, #401, .T. ) ;
#839 = EDGE_CURVE ( 'NONE', #503, #201, #617, .T. ) ;
#840 = CALENDAR_DATE ( 2026, 12, 9 ) ;
#841 = LINE ( 'NONE', #70, #406 ) ;
#842 = DIRECTION ( 'NONE',  ( -1.000000000000000000, 0.000000000000000000, 0.000000000000000000 ) ) ;
#843 = ORIENTED_EDGE ( 'NONE', *, *, #442, .T. ) ;
#844 = AXIS2_PLACEMENT_3D ( 'NONE', #716, #21, #562 ) ;
#845 = CIRCLE ( 'NONE', #894, 1.599999999999997202 ) ;
#846 = AXIS2_PLACEMENT_3D ( 'NONE', #121, #431, #517 ) ;
#847 = EDGE_CURVE ( 'NONE', #112, #319, #978, .T. ) ;
#848 = DIRECTION ( 'NONE',  ( -0.000000000000000000, -0.000000000000000000, -1.000000000000000000 ) ) ;
#849 = DIRECTION ( 'NONE',  ( 1.000000000000000000, 0.000000000000000000, 0.000000000000000000 ) ) ;
#850 = ORIENTED_EDGE ( 'NONE', *, *, #885, .T. ) ;
#851 = APPROVAL_ROLE ( '' ) ;
#852 = EDGE_CURVE ( 'NONE', #363, #253, #700, .T. ) ;
#853 = DIRECTION ( 'NONE',  ( -0.000000000000000000, -0.000000000000000000, -1.000000000000000000 ) ) ;
#854 = EDGE_CURVE ( 'NONE', #56, #169, #106, .T. ) ;
#855 = DIRECTION ( 'NONE',  ( 0.000000000000000000, 0.000000000000000000, -1.000000000000000000 ) ) ;
#856 = ORIENTED_EDGE ( 'NONE', *, *, #820, .T. ) ;
#857 = PLANE ( 'NONE',  #35 ) ;
#858 = FACE_OUTER_BOUND ( 'NONE', #822, .T. ) ;
#859 = CC_DESIGN_PERSON_AND_ORGANIZATION_ASSIGNMENT ( #139, #454, ( #376 ) ) ;
#860 = ORIENTED_EDGE ( 'NONE', *, *, #372, .T. ) ;
#861 = CARTESIAN_POINT ( 'NONE',  ( -37.59999999999999432, -18.00000000000000000, 4.000000000000000000 ) ) ;
#862 = VECTOR ( 'NONE', #393, 1000.000000000000000 ) ;
#863 = CIRCLE ( 'NONE', #68, 4.999999999999997335 ) ;
#864 = DIRECTION ( 'NONE',  ( -0.000000000000000000, -0.000000000000000000, 1.000000000000000000 ) ) ;
#865 = LOCAL_TIME ( 21, 58, 6.000000000000000000, #689 ) ;
#866 = ORIENTED_EDGE ( 'NONE', *, *, #193, .T. ) ;
#867 = ADVANCED_FACE ( 'NONE', ( #411, #330, #485 ), #857, .F. ) ;
#868 = DIRECTION ( 'NONE',  ( -1.000000000000000000, 0.000000000000000000, 0.000000000000000000 ) ) ;
#869 = DIRECTION ( 'NONE',  ( 0.000000000000000000, 0.000000000000000000, -1.000000000000000000 ) ) ;
#870 = ORIENTED_EDGE ( 'NONE', *, *, #839, .T. ) ;
#871 = ORIENTED_EDGE ( 'NONE', *, *, #463, .F. ) ;
#872 = EDGE_CURVE ( 'NONE', #960, #987, #89, .T. ) ;
#873 = CARTESIAN_POINT ( 'NONE',  ( 0.000000000000000000, 14.00000000000000000, -1.000000000000000888 ) ) ;
#874 = LINE ( 'NONE', #963, #550 ) ;
#875 = CYLINDRICAL_SURFACE ( 'NONE', #311, 1.100000000000000311 ) ;
#876 = VERTEX_POINT ( 'NONE', #712 ) ;
#877 = DIRECTION ( 'NONE',  ( -1.000000000000000000, 0.000000000000000000, 0.000000000000000000 ) ) ;
#878 = CIRCLE ( 'NONE', #568, 9.000000000000000000 ) ;
#879 = CARTESIAN_POINT ( 'NONE',  ( -34.39999999999999858, 18.00000000000000000, 0.000000000000000000 ) ) ;
#880 = AXIS2_PLACEMENT_3D ( 'NONE', #605, #317, #74 ) ;
#881 = FACE_OUTER_BOUND ( 'NONE', #105, .T. ) ;
#882 = ORIENTED_EDGE ( 'NONE', *, *, #885, .F. ) ;
#883 = APPROVAL_STATUS ( 'not_yet_approved' ) ;
#884 = FACE_OUTER_BOUND ( 'NONE', #369, .T. ) ;
#885 = EDGE_CURVE ( 'NONE', #56, #559, #538, .T. ) ;
#886 = DIRECTION ( 'NONE',  ( -1.000000000000000000, 0.000000000000000000, 0.000000000000000000 ) ) ;
#887 = EDGE_LOOP ( 'NONE', ( #882, #969 ) ) ;
#888 = CARTESIAN_POINT ( 'NONE',  ( -42.00000000000000000, -22.00000000000000000, 4.000000000000000000 ) ) ;
#889 = FACE_BOUND ( 'NONE', #758, .T. ) ;
#890 = PRODUCT_RELATED_PRODUCT_CATEGORY ( 'detail', '', ( #606 ) ) ;
#891 = ORIENTED_EDGE ( 'NONE', *, *, #224, .T. ) ;
#892 = FACE_OUTER_BOUND ( 'NONE', #219, .T. ) ;
#893 = CARTESIAN_POINT ( 'NONE',  ( 0.000000000000000000, 0.000000000000000000, 4.000000000000000000 ) ) ;
#894 = AXIS2_PLACEMENT_3D ( 'NONE', #486, #361, #594 ) ;
#895 = LINE ( 'NONE', #126, #226 ) ;
#896 = VECTOR ( 'NONE', #768, 1000.000000000000000 ) ;
#897 = AXIS2_PLACEMENT_3D ( 'NONE', #167, #351, #668 ) ;
#898 = EDGE_CURVE ( 'NONE', #817, #662, #788, .T. ) ;
#899 = ORIENTED_EDGE ( 'NONE', *, *, #778, .T. ) ;
#900 = CARTESIAN_POINT ( 'NONE',  ( 11.09999999999999964, 1.359357947053562156E-15, 7.000000000000000000 ) ) ;
#901 = CARTESIAN_POINT ( 'NONE',  ( -36.00000000000000000, 18.00000000000000000, 0.000000000000000000 ) ) ;
#902 = DIRECTION ( 'NONE',  ( 0.000000000000000000, 0.000000000000000000, 1.000000000000000000 ) ) ;
#903 = EDGE_LOOP ( 'NONE', ( #551, #634 ) ) ;
#904 = CALENDAR_DATE ( 2026, 12, 9 ) ;
#905 = EDGE_CURVE ( 'NONE', #604, #385, #521, .T. ) ;
#906 = DIRECTION ( 'NONE',  ( 1.000000000000000000, 0.000000000000000000, 0.000000000000000000 ) ) ;
#907 = PLANE ( 'NONE',  #343 ) ;
#908 = ORIENTED_EDGE ( 'NONE', *, *, #747, .F. ) ;
#909 = DATE_AND_TIME ( #677, #425 ) ;
#910 = ORIENTED_EDGE ( 'NONE', *, *, #384, .F. ) ;
#911 = EDGE_CURVE ( 'NONE', #233, #960, #148, .T. ) ;
#912 = CARTESIAN_POINT ( 'NONE',  ( -42.00000000000000000, 22.00000000000000000, 4.000000000000000000 ) ) ;
#913 = DIRECTION ( 'NONE',  ( 0.000000000000000000, 0.000000000000000000, 1.000000000000000000 ) ) ;
#914 = VECTOR ( 'NONE', #968, 1000.000000000000000 ) ;
#915 = ORIENTED_EDGE ( 'NONE', *, *, #6, .T. ) ;
#916 = AXIS2_PLACEMENT_3D ( 'NONE', #409, #869, #107 ) ;
#917 = AXIS2_PLACEMENT_3D ( 'NONE', #267, #501, #116 ) ;
#918 = APPROVAL_DATE_TIME ( #909, #825 ) ;
#919 = DIRECTION ( 'NONE',  ( -0.000000000000000000, -0.000000000000000000, -1.000000000000000000 ) ) ;
#920 = CYLINDRICAL_SURFACE ( 'NONE', #66, 1.100000000000000089 ) ;
#921 = ADVANCED_FACE ( 'NONE', ( #28 ), #400, .F. ) ;
#922 = ORIENTED_EDGE ( 'NONE', *, *, #942, .T. ) ;
#923 = DATE_AND_TIME ( #840, #865 ) ;
#924 = ORIENTED_EDGE ( 'NONE', *, *, #526, .F. ) ;
#925 = DIRECTION ( 'NONE',  ( -0.000000000000000000, -0.000000000000000000, -1.000000000000000000 ) ) ;
#926 = CARTESIAN_POINT ( 'NONE',  ( 1.100000000000000089, 14.00000000000000000, 6.999999999999999112 ) ) ;
#927 = ORIENTED_EDGE ( 'NONE', *, *, #654, .T. ) ;
#928 = ADVANCED_FACE ( 'NONE', ( #953 ), #718, .F. ) ;
#929 = DATE_TIME_ROLE ( 'classification_date' ) ;
#930 = LINE ( 'NONE', #140, #947 ) ;
#931 = CARTESIAN_POINT ( 'NONE',  ( 12.90000000000000036, 0.000000000000000000, -1.000000000000000888 ) ) ;
#932 = ORIENTED_EDGE ( 'NONE', *, *, #303, .T. ) ;
#933 = VECTOR ( 'NONE', #318, 1000.000000000000000 ) ;
#934 = ADVANCED_FACE ( 'NONE', ( #643 ), #957, .T. ) ;
#935 = CARTESIAN_POINT ( 'NONE',  ( 0.000000000000000000, -17.00000000000000000, 4.000000000000000000 ) ) ;
#936 = CARTESIAN_POINT ( 'NONE',  ( -34.39999999999999858, -18.00000000000000000, 4.000000000000000000 ) ) ;
#937 = EDGE_LOOP ( 'NONE', ( #154, #922 ) ) ;
#938 = DIRECTION ( 'NONE',  ( -0.000000000000000000, -0.000000000000000000, 1.000000000000000000 ) ) ;
#939 = FACE_OUTER_BOUND ( 'NONE', #210, .T. ) ;
#940 = ORIENTED_EDGE ( 'NONE', *, *, #436, .T. ) ;
#941 = CARTESIAN_POINT ( 'NONE',  ( -1.100000000000000089, 14.00000000000000000, 6.999999999999999112 ) ) ;
#942 = EDGE_CURVE ( 'NONE', #215, #662, #391, .T. ) ;
#943 = DIRECTION ( 'NONE',  ( -1.000000000000000000, 0.000000000000000000, 0.000000000000000000 ) ) ;
#944 = AXIS2_PLACEMENT_3D ( 'NONE', #748, #518, #289 ) ;
#945 = CARTESIAN_POINT ( 'NONE',  ( -1.100000000000000089, -14.00000000000000000, 6.999999999999999112 ) ) ;
#946 = AXIS2_PLACEMENT_3D ( 'NONE', #472, #29, #648 ) ;
#947 = VECTOR ( 'NONE', #919, 1000.000000000000000 ) ;
#948 = DIRECTION ( 'NONE',  ( 1.000000000000000000, 0.000000000000000000, 0.000000000000000000 ) ) ;
#949 = CIRCLE ( 'NONE', #897, 1.100000000000000089 ) ;
#950 = ORIENTED_EDGE ( 'NONE', *, *, #27, .T. ) ;
#951 = EDGE_CURVE ( 'NONE', #697, #15, #863, .T. ) ;
#952 = ORIENTED_EDGE ( 'NONE', *, *, #103, .F. ) ;
#953 = FACE_OUTER_BOUND ( 'NONE', #173, .T. ) ;
#954 = FACE_OUTER_BOUND ( 'NONE', #26, .T. ) ;
#955 = EDGE_LOOP ( 'NONE', ( #237, #992 ) ) ;
#956 = VERTEX_POINT ( 'NONE', #941 ) ;
#957 = CYLINDRICAL_SURFACE ( 'NONE', #83, 5.000000000000000000 ) ;
#958 = CARTESIAN_POINT ( 'NONE',  ( 0.000000000000000000, 0.000000000000000000, 0.000000000000000000 ) ) ;
#959 = VERTEX_POINT ( 'NONE', #238 ) ;
#960 = VERTEX_POINT ( 'NONE', #861 ) ;
#961 = PERSON_AND_ORGANIZATION ( #694, #540 ) ;
#962 = EDGE_CURVE ( 'NONE', #559, #56, #949, .T. ) ;
#963 = CARTESIAN_POINT ( 'NONE',  ( -4.999999999999997335, -22.00000000000000000, 4.000000000000000000 ) ) ;
#964 = CIRCLE ( 'NONE', #475, 9.000000000000000000 ) ;
#965 = VERTEX_POINT ( 'NONE', #571 ) ;
#966 = ORIENTED_EDGE ( 'NONE', *, *, #905, .T. ) ;
#967 = CARTESIAN_POINT ( 'NONE',  ( 0.000000000000000000, 0.000000000000000000, 0.000000000000000000 ) ) ;
#968 = DIRECTION ( 'NONE',  ( -0.000000000000000000, -0.000000000000000000, -1.000000000000000000 ) ) ;
#969 = ORIENTED_EDGE ( 'NONE', *, *, #962, .F. ) ;
#970 = MECHANICAL_CONTEXT ( 'NONE', #40, 'mechanical' ) ;
#971 = FACE_BOUND ( 'NONE', #157, .T. ) ;
#972 = CARTESIAN_POINT ( 'NONE',  ( -42.00000000000000000, -22.00000000000000000, 4.000000000000000000 ) ) ;
#973 = ORIENTED_EDGE ( 'NONE', *, *, #463, .T. ) ;
#974 = CARTESIAN_POINT ( 'NONE',  ( -37.00000000000000711, 22.00000000000000000, 0.000000000000000000 ) ) ;
#975 = AXIS2_PLACEMENT_3D ( 'NONE', #901, #285, #808 ) ;
#976 = APPLICATION_CONTEXT ( 'configuration controlled 3d designs of mechanical parts and assemblies' ) ;
#977 = DIRECTION ( 'NONE',  ( 1.000000000000000000, 0.000000000000000000, -0.000000000000000000 ) ) ;
#978 = CIRCLE ( 'NONE', #459, 5.000000000000000000 ) ;
#979 = ORIENTED_EDGE ( 'NONE', *, *, #401, .F. ) ;
#980 = ADVANCED_FACE ( 'NONE', ( #32 ), #579, .F. ) ;
#981 = PERSON_AND_ORGANIZATION ( #694, #540 ) ;
#982 = DIRECTION ( 'NONE',  ( 0.000000000000000000, 0.000000000000000000, -1.000000000000000000 ) ) ;
#983 = DIRECTION ( 'NONE',  ( -1.000000000000000000, 0.000000000000000000, 0.000000000000000000 ) ) ;
#984 = ORIENTED_EDGE ( 'NONE', *, *, #727, .F. ) ;
#985 = CARTESIAN_POINT ( 'NONE',  ( 17.00000000000000000, 2.081899558550500280E-15, 7.000000000000000000 ) ) ;
#986 = CARTESIAN_POINT ( 'NONE',  ( 0.000000000000000000, 0.000000000000000000, 7.000000000000000000 ) ) ;
#987 = VERTEX_POINT ( 'NONE', #110 ) ;
#988 = CARTESIAN_POINT ( 'NONE',  ( 0.000000000000000000, 0.000000000000000000, 7.000000000000000000 ) ) ;
#989 = EDGE_CURVE ( 'NONE', #597, #215, #429, .T. ) ;
#990 = CARTESIAN_POINT ( 'NONE',  ( 0.000000000000000000, 14.00000000000000000, 6.999999999999999112 ) ) ;
#991 = CIRCLE ( 'NONE', #33, 1.100000000000000311 ) ;
#992 = ORIENTED_EDGE ( 'NONE', *, *, #372, .F. ) ;
#993 = VECTOR ( 'NONE', #90, 1000.000000000000000 ) ;
#994 = VECTOR ( 'NONE', #610, 1000.000000000000000 ) ;
#995 = ORIENTED_EDGE ( 'NONE', *, *, #942, .F. ) ;
#996 = CARTESIAN_POINT ( 'NONE',  ( -37.59999999999999432, 18.00000000000000000, 0.000000000000000000 ) ) ;
#997 = CC_DESIGN_PERSON_AND_ORGANIZATION_ASSIGNMENT ( #658, #271, ( #606 ) ) ;
#998 = DIRECTION ( 'NONE',  ( -1.000000000000000000, 0.000000000000000000, 0.000000000000000000 ) ) ;
#999 = VERTEX_POINT ( 'NONE', #510 ) ;
#1000 = CALENDAR_DATE ( 2026, 12, 9 ) ;
#1001 = CARTESIAN_POINT ( 'NONE',  ( -4.999999999999997335, 16.99999999999999645, 0.000000000000000000 ) ) ;
#1002 = DIRECTION ( 'NONE',  ( -1.000000000000000000, 0.000000000000000000, 0.000000000000000000 ) ) ;
#1003 = ADVANCED_FACE ( 'NONE', ( #892 ), #423, .F. ) ;
#1004 = ORIENTED_EDGE ( 'NONE', *, *, #749, .F. ) ;
#1005 = EDGE_CURVE ( 'NONE', #588, #363, #823, .T. ) ;
#1006 = CARTESIAN_POINT ( 'NONE',  ( -42.00000000000000000, -16.99999999999999645, 4.000000000000000000 ) ) ;
#1007 = DIRECTION ( 'NONE',  ( -0.000000000000000000, -0.000000000000000000, -1.000000000000000000 ) ) ;
#1008 = EDGE_LOOP ( 'NONE', ( #984, #754 ) ) ;
ENDSEC;
END-ISO-10303-21;
