ISO-10303-21;
HEADER;
FILE_DESCRIPTION (( 'STEP AP203' ),
    '1' );
FILE_NAME ('ARM-205_Parallel_gripper_fork_adapter.step',
    '2026-09-13T02:58:47',
    ( '' ),
    ( '' ),
    'SwSTEP 2.0',
    'SolidWorks 2026',
    '' );
FILE_SCHEMA (( 'CONFIG_CONTROL_DESIGN' ));
ENDSEC;

DATA;
#1 = CARTESIAN_POINT ( 'NONE',  ( 51.82052589244400309, 14.19999999999999929, 8.000000000000000000 ) ) ;
#2 = DIRECTION ( 'NONE',  ( -0.000000000000000000, -0.000000000000000000, 1.000000000000000000 ) ) ;
#3 = DIRECTION ( 'NONE',  ( -0.000000000000000000, -1.000000000000000000, -0.000000000000000000 ) ) ;
#4 = ORIENTED_EDGE ( 'NONE', *, *, #887, .T. ) ;
#5 = EDGE_CURVE ( 'NONE', #833, #837, #629, .T. ) ;
#6 = EDGE_LOOP ( 'NONE', ( #366, #48, #638, #307 ) ) ;
#7 = CYLINDRICAL_SURFACE ( 'NONE', #360, 4.999999999999997335 ) ;
#8 = EDGE_CURVE ( 'NONE', #50, #513, #56, .T. ) ;
#9 = LINE ( 'NONE', #773, #1005 ) ;
#10 = FACE_OUTER_BOUND ( 'NONE', #212, .T. ) ;
#11 = VERTEX_POINT ( 'NONE', #1195 ) ;
#12 = EDGE_LOOP ( 'NONE', ( #624, #795, #812, #119 ) ) ;
#13 = FACE_OUTER_BOUND ( 'NONE', #576, .T. ) ;
#14 = CYLINDRICAL_SURFACE ( 'NONE', #1046, 1.700000000000000178 ) ;
#15 = CARTESIAN_POINT ( 'NONE',  ( 32.62052589244299838, -14.19999999999999929, 21.00000000000000000 ) ) ;
#16 = VERTEX_POINT ( 'NONE', #709 ) ;
#17 = CIRCLE ( 'NONE', #243, 1.700000000000000178 ) ;
#18 = ORIENTED_EDGE ( 'NONE', *, *, #749, .T. ) ;
#19 = AXIS2_PLACEMENT_3D ( 'NONE', #327, #308, #522 ) ;
#20 = CIRCLE ( 'NONE', #905, 2.149999999999999023 ) ;
#21 = DIRECTION ( 'NONE',  ( -0.000000000000000000, 1.000000000000000000, -0.000000000000000000 ) ) ;
#22 = CARTESIAN_POINT ( 'NONE',  ( 46.82052589244400309, 10.19999999999999929, 15.14999999999999858 ) ) ;
#23 = ORIENTED_EDGE ( 'NONE', *, *, #942, .F. ) ;
#24 = EDGE_LOOP ( 'NONE', ( #362, #292, #90, #703 ) ) ;
#25 = MANIFOLD_SOLID_BREP ( 'Four_M3_removable_deck_bolts', #778 ) ;
#26 = FACE_OUTER_BOUND ( 'NONE', #727, .T. ) ;
#27 = DIRECTION ( 'NONE',  ( 1.000000000000000000, -0.000000000000000000, 0.000000000000000000 ) ) ;
#28 = VERTEX_POINT ( 'NONE', #1006 ) ;
#29 = EDGE_CURVE ( 'NONE', #607, #167, #880, .T. ) ;
#30 = EDGE_LOOP ( 'NONE', ( #775, #476, #519, #1035 ) ) ;
#31 = CARTESIAN_POINT ( 'NONE',  ( 27.00000000000000000, -11.50000000000000000, 25.99999999999999645 ) ) ;
#32 = DIRECTION ( 'NONE',  ( -1.000000000000000000, 0.000000000000000000, 0.000000000000000000 ) ) ;
#33 = ORIENTED_EDGE ( 'NONE', *, *, #492, .F. ) ;
#34 = COORDINATED_UNIVERSAL_TIME_OFFSET ( 6, 0, .BEHIND. ) ;
#35 = ORIENTED_EDGE ( 'NONE', *, *, #475, .T. ) ;
#36 = AXIS2_PLACEMENT_3D ( 'NONE', #743, #63, #1026 ) ;
#37 = DIRECTION ( 'NONE',  ( 0.000000000000000000, 0.000000000000000000, -1.000000000000000000 ) ) ;
#38 = AXIS2_PLACEMENT_3D ( 'NONE', #932, #958, #685 ) ;
#39 = CIRCLE ( 'NONE', #340, 2.149999999999999023 ) ;
#40 = LINE ( 'NONE', #1093, #861 ) ;
#41 = VERTEX_POINT ( 'NONE', #138 ) ;
#42 = ADVANCED_FACE ( 'NONE', ( #906, #316, #329 ), #913, .F. ) ;
#43 = ORIENTED_EDGE ( 'NONE', *, *, #359, .F. ) ;
#44 = CARTESIAN_POINT ( 'NONE',  ( 28.69999999999999929, 11.50000000000000000, 8.000000000000000000 ) ) ;
#45 = EDGE_CURVE ( 'NONE', #867, #962, #923, .T. ) ;
#46 = CARTESIAN_POINT ( 'NONE',  ( 27.00000000000000000, -11.50000000000000000, 8.000000000000000000 ) ) ;
#47 = ORIENTED_EDGE ( 'NONE', *, *, #710, .F. ) ;
#48 = ORIENTED_EDGE ( 'NONE', *, *, #255, .T. ) ;
#49 = DIRECTION ( 'NONE',  ( -0.000000000000000000, 1.000000000000000000, -0.000000000000000000 ) ) ;
#50 = VERTEX_POINT ( 'NONE', #800 ) ;
#51 = CARTESIAN_POINT ( 'NONE',  ( 46.82052589244400309, -10.19999999999999929, 13.00000000000000000 ) ) ;
#52 = PRODUCT_RELATED_PRODUCT_CATEGORY ( 'detail', '', ( #383 ) ) ;
#53 = CARTESIAN_POINT ( 'NONE',  ( 0.000000000000000000, -10.19999999999999929, 0.000000000000000000 ) ) ;
#54 = COORDINATED_UNIVERSAL_TIME_OFFSET ( 6, 0, .BEHIND. ) ;
#55 = ORIENTED_EDGE ( 'NONE', *, *, #986, .T. ) ;
#56 = CIRCLE ( 'NONE', #1166, 4.999999999999995559 ) ;
#57 = CARTESIAN_POINT ( 'NONE',  ( 37.62052589244299838, -10.19999999999999751, 18.85000000000000142 ) ) ;
#58 = CIRCLE ( 'NONE', #1125, 1.700000000000000178 ) ;
#59 = CARTESIAN_POINT ( 'NONE',  ( 58.00000000000000000, -11.50000000000000000, 4.000000000000000000 ) ) ;
#60 = EDGE_CURVE ( 'NONE', #674, #700, #1191, .T. ) ;
#61 = AXIS2_PLACEMENT_3D ( 'NONE', #1188, #805, #124 ) ;
#62 = PRODUCT_DEFINITION_FORMATION_WITH_SPECIFIED_SOURCE ( 'ANY', '', #383, .NOT_KNOWN. ) ;
#63 = DIRECTION ( 'NONE',  ( -0.000000000000000000, -1.000000000000000000, -0.000000000000000000 ) ) ;
#64 = APPROVAL_STATUS ( 'not_yet_approved' ) ;
#65 = EDGE_CURVE ( 'NONE', #1175, #804, #437, .T. ) ;
#66 = ORIENTED_EDGE ( 'NONE', *, *, #505, .T. ) ;
#67 = DESIGN_CONTEXT ( 'detailed design', #1216, 'design' ) ;
#68 = LINE ( 'NONE', #1221, #660 ) ;
#69 = FACE_BOUND ( 'NONE', #591, .T. ) ;
#70 = DIRECTION ( 'NONE',  ( -1.000000000000000000, 0.000000000000000000, 0.000000000000000000 ) ) ;
#71 = VERTEX_POINT ( 'NONE', #1210 ) ;
#72 = DIRECTION ( 'NONE',  ( 0.000000000000000000, 0.000000000000000000, 1.000000000000000000 ) ) ;
#73 = CARTESIAN_POINT ( 'NONE',  ( 32.62052589244299838, -10.19999999999999929, 21.00000000000000000 ) ) ;
#74 = CARTESIAN_POINT ( 'NONE',  ( 32.62052589244299838, 14.19999999999999929, 21.00000000000000000 ) ) ;
#75 = ORIENTED_EDGE ( 'NONE', *, *, #859, .T. ) ;
#76 = FACE_BOUND ( 'NONE', #115, .T. ) ;
#77 = DIRECTION ( 'NONE',  ( -0.000000000000000000, -1.000000000000000000, -0.000000000000000000 ) ) ;
#78 = AXIS2_PLACEMENT_3D ( 'NONE', #145, #794, #226 ) ;
#79 = AXIS2_PLACEMENT_3D ( 'NONE', #352, #364, #273 ) ;
#80 = CARTESIAN_POINT ( 'NONE',  ( 37.62052589244299838, 15.00000000000000355, 21.00000000000000000 ) ) ;
#81 = AXIS2_PLACEMENT_3D ( 'NONE', #302, #883, #406 ) ;
#82 = EDGE_LOOP ( 'NONE', ( #496, #691 ) ) ;
#83 = CIRCLE ( 'NONE', #563, 1.700000000000000178 ) ;
#84 = EDGE_CURVE ( 'NONE', #553, #551, #335, .T. ) ;
#85 = LINE ( 'NONE', #1238, #642 ) ;
#86 = DIRECTION ( 'NONE',  ( -0.000000000000000000, -1.000000000000000000, -0.000000000000000000 ) ) ;
#87 = EDGE_CURVE ( 'NONE', #158, #594, #753, .T. ) ;
#88 = FACE_OUTER_BOUND ( 'NONE', #105, .T. ) ;
#89 = PERSON_AND_ORGANIZATION ( #970, #465 ) ;
#90 = ORIENTED_EDGE ( 'NONE', *, *, #790, .T. ) ;
#91 = CARTESIAN_POINT ( 'NONE',  ( 58.00000000000000000, 11.50000000000000000, 25.99999999999999645 ) ) ;
#92 = CYLINDRICAL_SURFACE ( 'NONE', #81, 2.149999999999999023 ) ;
#93 = LINE ( 'NONE', #108, #181 ) ;
#94 = PERSON_AND_ORGANIZATION ( #970, #465 ) ;
#95 = PRODUCT_DEFINITION_SHAPE ( 'NONE', 'NONE',  #910 ) ;
#96 = ORIENTED_EDGE ( 'NONE', *, *, #475, .F. ) ;
#97 = ORIENTED_EDGE ( 'NONE', *, *, #318, .F. ) ;
#98 = DIRECTION ( 'NONE',  ( -0.000000000000000000, -1.000000000000000000, -0.000000000000000000 ) ) ;
#99 = DIRECTION ( 'NONE',  ( 0.000000000000000000, 1.000000000000000000, 0.000000000000000000 ) ) ;
#100 = DIRECTION ( 'NONE',  ( 0.000000000000000000, 0.000000000000000000, -1.000000000000000000 ) ) ;
#101 = VECTOR ( 'NONE', #118, 1000.000000000000000 ) ;
#102 = EDGE_LOOP ( 'NONE', ( #645, #1237 ) ) ;
#103 = EDGE_CURVE ( 'NONE', #893, #275, #274, .T. ) ;
#104 = AXIS2_PLACEMENT_3D ( 'NONE', #751, #1049, #197 ) ;
#105 = EDGE_LOOP ( 'NONE', ( #242, #547, #23, #1159 ) ) ;
#106 = DIRECTION ( 'NONE',  ( -1.000000000000000000, 0.000000000000000000, 0.000000000000000000 ) ) ;
#107 = FACE_OUTER_BOUND ( 'NONE', #6, .T. ) ;
#108 = CARTESIAN_POINT ( 'NONE',  ( 28.69999999999999929, 11.50000000000000000, 25.99999999999999645 ) ) ;
#109 = EDGE_LOOP ( 'NONE', ( #1158, #395 ) ) ;
#110 = ORIENTED_EDGE ( 'NONE', *, *, #681, .T. ) ;
#111 = DIRECTION ( 'NONE',  ( 0.000000000000000000, 1.000000000000000000, 0.000000000000000000 ) ) ;
#112 = EDGE_CURVE ( 'NONE', #804, #833, #832, .T. ) ;
#113 = LINE ( 'NONE', #398, #821 ) ;
#114 = PLANE ( 'NONE',  #1228 ) ;
#115 = EDGE_LOOP ( 'NONE', ( #1113, #1001 ) ) ;
#116 = ORIENTED_EDGE ( 'NONE', *, *, #147, .T. ) ;
#117 = CARTESIAN_POINT ( 'NONE',  ( 27.00000000000000000, 11.50000000000000000, 8.000000000000000000 ) ) ;
#118 = DIRECTION ( 'NONE',  ( 0.000000000000000000, 1.000000000000000000, 0.000000000000000000 ) ) ;
#119 = ORIENTED_EDGE ( 'NONE', *, *, #897, .T. ) ;
#120 = AXIS2_PLACEMENT_3D ( 'NONE', #237, #1207, #917 ) ;
#121 = EDGE_LOOP ( 'NONE', ( #784, #310, #1072, #66 ) ) ;
#122 = VECTOR ( 'NONE', #77, 1000.000000000000000 ) ;
#123 = VECTOR ( 'NONE', #824, 1000.000000000000000 ) ;
#124 = DIRECTION ( 'NONE',  ( 0.000000000000000000, 0.000000000000000000, -1.000000000000000000 ) ) ;
#125 = LINE ( 'NONE', #510, #580 ) ;
#126 = EDGE_CURVE ( 'NONE', #868, #410, #1118, .T. ) ;
#127 = EDGE_LOOP ( 'NONE', ( #1090, #152, #253, #1045 ) ) ;
#128 = EDGE_LOOP ( 'NONE', ( #502, #1063 ) ) ;
#129 = CARTESIAN_POINT ( 'NONE',  ( 37.62052589244299838, 10.19999999999999929, 18.85000000000000142 ) ) ;
#130 = FACE_OUTER_BOUND ( 'NONE', #288, .T. ) ;
#131 = EDGE_CURVE ( 'NONE', #893, #1094, #714, .T. ) ;
#132 = ORIENTED_EDGE ( 'NONE', *, *, #635, .F. ) ;
#133 = PERSON_AND_ORGANIZATION ( #970, #465 ) ;
#134 = EDGE_LOOP ( 'NONE', ( #1091, #935, #97, #537 ) ) ;
#135 = LINE ( 'NONE', #902, #162 ) ;
#136 = CARTESIAN_POINT ( 'NONE',  ( 58.00000000000000000, 11.50000000000000000, 4.000000000000000000 ) ) ;
#137 = EDGE_CURVE ( 'NONE', #28, #765, #550, .T. ) ;
#138 = CARTESIAN_POINT ( 'NONE',  ( 51.82052589244400309, 10.19999999999999929, 8.000000000000000000 ) ) ;
#139 = ORIENTED_EDGE ( 'NONE', *, *, #1161, .F. ) ;
#140 = EDGE_CURVE ( 'NONE', #527, #158, #466, .T. ) ;
#141 = CARTESIAN_POINT ( 'NONE',  ( 46.82052589244400309, -10.19999999999999751, 13.00000000000000000 ) ) ;
#142 = AXIS2_PLACEMENT_3D ( 'NONE', #59, #463, #445 ) ;
#143 = CIRCLE ( 'NONE', #299, 4.999999999999995559 ) ;
#144 = DIRECTION ( 'NONE',  ( -1.000000000000000000, 0.000000000000000000, 0.000000000000000000 ) ) ;
#145 = CARTESIAN_POINT ( 'NONE',  ( 46.82052589244400309, 10.19999999999999929, 13.00000000000000000 ) ) ;
#146 = ORIENTED_EDGE ( 'NONE', *, *, #767, .T. ) ;
#147 = EDGE_CURVE ( 'NONE', #846, #1192, #858, .T. ) ;
#148 = FACE_OUTER_BOUND ( 'NONE', #1196, .T. ) ;
#149 = DIRECTION ( 'NONE',  ( -1.000000000000000000, 0.000000000000000000, 0.000000000000000000 ) ) ;
#150 = CARTESIAN_POINT ( 'NONE',  ( 32.62052589244299838, 14.19999999999999929, 8.000000000000000000 ) ) ;
#151 = APPLICATION_PROTOCOL_DEFINITION ( 'international standard', 'config_control_design', 1994, #891 ) ;
#152 = ORIENTED_EDGE ( 'NONE', *, *, #87, .F. ) ;
#153 = EDGE_CURVE ( 'NONE', #804, #1015, #938, .T. ) ;
#154 = CARTESIAN_POINT ( 'NONE',  ( 58.00000000000000000, -11.50000000000000000, 25.99999999999999645 ) ) ;
#155 = FACE_BOUND ( 'NONE', #557, .T. ) ;
#156 = DIRECTION ( 'NONE',  ( -0.000000000000000000, -0.000000000000000000, 1.000000000000000000 ) ) ;
#157 = CALENDAR_DATE ( 2026, 12, 9 ) ;
#158 = VERTEX_POINT ( 'NONE', #470 ) ;
#159 = VECTOR ( 'NONE', #164, 1000.000000000000000 ) ;
#160 = DIRECTION ( 'NONE',  ( -1.000000000000000000, 0.000000000000000000, 0.000000000000000000 ) ) ;
#161 = DIRECTION ( 'NONE',  ( 0.000000000000000000, 0.000000000000000000, -1.000000000000000000 ) ) ;
#162 = VECTOR ( 'NONE', #322, 1000.000000000000000 ) ;
#163 = LOCAL_TIME ( 21, 58, 47.00000000000000000, #1248 ) ;
#164 = DIRECTION ( 'NONE',  ( -0.000000000000000000, -1.000000000000000000, -0.000000000000000000 ) ) ;
#165 = EDGE_CURVE ( 'NONE', #607, #252, #1032, .T. ) ;
#166 = APPROVAL_DATE_TIME ( #637, #870 ) ;
#167 = VERTEX_POINT ( 'NONE', #1042 ) ;
#168 = DIRECTION ( 'NONE',  ( -0.000000000000000000, 1.000000000000000000, -0.000000000000000000 ) ) ;
#169 = FACE_BOUND ( 'NONE', #102, .T. ) ;
#170 = CARTESIAN_POINT ( 'NONE',  ( 42.62052589244299838, 14.19999999999999929, 21.00000000000000000 ) ) ;
#171 = EDGE_LOOP ( 'NONE', ( #909, #577, #1185, #586 ) ) ;
#172 = VERTEX_POINT ( 'NONE', #649 ) ;
#173 = CARTESIAN_POINT ( 'NONE',  ( 46.82052589244400309, 15.00000000000000355, 10.84999999999999964 ) ) ;
#174 = FACE_OUTER_BOUND ( 'NONE', #981, .T. ) ;
#175 = DIRECTION ( 'NONE',  ( 0.000000000000000000, 0.000000000000000000, -1.000000000000000000 ) ) ;
#176 = ADVANCED_FACE ( 'NONE', ( #951 ), #836, .F. ) ;
#177 = ORIENTED_EDGE ( 'NONE', *, *, #1179, .T. ) ;
#178 = DIRECTION ( 'NONE',  ( 0.000000000000000000, 0.000000000000000000, -1.000000000000000000 ) ) ;
#179 = ADVANCED_FACE ( 'NONE', ( #88 ), #1241, .F. ) ;
#180 = DIRECTION ( 'NONE',  ( -1.000000000000000000, 0.000000000000000000, 0.000000000000000000 ) ) ;
#181 = VECTOR ( 'NONE', #199, 1000.000000000000000 ) ;
#182 = VECTOR ( 'NONE', #392, 1000.000000000000000 ) ;
#183 = CARTESIAN_POINT ( 'NONE',  ( 32.62052589244299838, 14.19999999999999929, 8.000000000000000000 ) ) ;
#184 = EDGE_LOOP ( 'NONE', ( #1082, #265 ) ) ;
#185 = CARTESIAN_POINT ( 'NONE',  ( 58.00000000000000000, -11.50000000000000000, 25.99999999999999645 ) ) ;
#186 = DIRECTION ( 'NONE',  ( -0.000000000000000000, -1.000000000000000000, -0.000000000000000000 ) ) ;
#187 = DIRECTION ( 'NONE',  ( 0.000000000000000000, -1.000000000000000000, 0.000000000000000000 ) ) ;
#188 = VERTEX_POINT ( 'NONE', #257 ) ;
#189 = ORIENTED_EDGE ( 'NONE', *, *, #512, .T. ) ;
#190 = CARTESIAN_POINT ( 'NONE',  ( 27.00000000000000000, 11.50000000000000000, 25.99999999999999645 ) ) ;
#191 = EDGE_CURVE ( 'NONE', #971, #343, #780, .T. ) ;
#192 = LINE ( 'NONE', #759, #338 ) ;
#193 = LINE ( 'NONE', #399, #947 ) ;
#194 = ADVANCED_FACE ( 'NONE', ( #544 ), #636, .T. ) ;
#195 = ORIENTED_EDGE ( 'NONE', *, *, #1110, .F. ) ;
#196 = ORIENTED_EDGE ( 'NONE', *, *, #1179, .F. ) ;
#197 = DIRECTION ( 'NONE',  ( 0.000000000000000000, 0.000000000000000000, 1.000000000000000000 ) ) ;
#198 = CYLINDRICAL_SURFACE ( 'NONE', #1127, 4.999999999999997335 ) ;
#199 = DIRECTION ( 'NONE',  ( 0.000000000000000000, 0.000000000000000000, -1.000000000000000000 ) ) ;
#200 = CIRCLE ( 'NONE', #904, 1.700000000000000178 ) ;
#201 = EDGE_LOOP ( 'NONE', ( #611, #189, #739, #4, #532, #857 ) ) ;
#202 = AXIS2_PLACEMENT_3D ( 'NONE', #666, #99, #295 ) ;
#203 = AXIS2_PLACEMENT_3D ( 'NONE', #554, #834, #633 ) ;
#204 = ORIENTED_EDGE ( 'NONE', *, *, #710, .T. ) ;
#205 = FACE_OUTER_BOUND ( 'NONE', #433, .T. ) ;
#206 = DIRECTION ( 'NONE',  ( -0.000000000000000000, -0.000000000000000000, 1.000000000000000000 ) ) ;
#207 = DIRECTION ( 'NONE',  ( -0.000000000000000000, -0.000000000000000000, 1.000000000000000000 ) ) ;
#208 = ORIENTED_EDGE ( 'NONE', *, *, #370, .T. ) ;
#209 = ORIENTED_EDGE ( 'NONE', *, *, #1055, .F. ) ;
#210 = DIRECTION ( 'NONE',  ( 0.000000000000000000, 0.000000000000000000, -1.000000000000000000 ) ) ;
#211 = CARTESIAN_POINT ( 'NONE',  ( 58.00000000000000000, 11.50000000000000000, 8.000000000000000000 ) ) ;
#212 = EDGE_LOOP ( 'NONE', ( #1225, #75, #646, #390 ) ) ;
#213 = EDGE_CURVE ( 'NONE', #1015, #837, #446, .T. ) ;
#214 = ORIENTED_EDGE ( 'NONE', *, *, #131, .F. ) ;
#215 = ADVANCED_FACE ( 'NONE', ( #933 ), #361, .F. ) ;
#216 = FACE_OUTER_BOUND ( 'NONE', #30, .T. ) ;
#217 = CARTESIAN_POINT ( 'NONE',  ( 27.00000000000000000, -11.50000000000000000, 4.000000000000000000 ) ) ;
#218 = VECTOR ( 'NONE', #820, 1000.000000000000000 ) ;
#219 = ORIENTED_EDGE ( 'NONE', *, *, #1017, .F. ) ;
#220 = VECTOR ( 'NONE', #623, 1000.000000000000000 ) ;
#221 = VERTEX_POINT ( 'NONE', #353 ) ;
#222 = VECTOR ( 'NONE', #555, 1000.000000000000000 ) ;
#223 = VECTOR ( 'NONE', #98, 1000.000000000000000 ) ;
#224 = CARTESIAN_POINT ( 'NONE',  ( 32.62052589244299838, -10.19999999999999929, 21.00000000000000000 ) ) ;
#225 = DIRECTION ( 'NONE',  ( -0.000000000000000000, -1.000000000000000000, -0.000000000000000000 ) ) ;
#226 = DIRECTION ( 'NONE',  ( 0.000000000000000000, 0.000000000000000000, 1.000000000000000000 ) ) ;
#227 = FACE_BOUND ( 'NONE', #109, .T. ) ;
#228 = ORIENTED_EDGE ( 'NONE', *, *, #1110, .T. ) ;
#229 = CARTESIAN_POINT ( 'NONE',  ( 37.62052589244299838, -14.20000000000000107, 21.00000000000000000 ) ) ;
#230 = EDGE_CURVE ( 'NONE', #343, #971, #17, .T. ) ;
#231 = CARTESIAN_POINT ( 'NONE',  ( 42.62052589244299838, -14.19999999999999929, 21.00000000000000000 ) ) ;
#232 = EDGE_LOOP ( 'NONE', ( #453, #1200, #209, #1021 ) ) ;
#233 = EDGE_CURVE ( 'NONE', #158, #495, #955, .T. ) ;
#234 = PERSON_AND_ORGANIZATION_ROLE ( 'design_supplier' ) ;
#235 = VERTEX_POINT ( 'NONE', #1157 ) ;
#236 = PLANE ( 'NONE',  #421 ) ;
#237 = CARTESIAN_POINT ( 'NONE',  ( 27.00000000000000000, -11.50000000000000000, 25.99999999999999645 ) ) ;
#238 = CARTESIAN_POINT ( 'NONE',  ( 51.82052589244400309, -10.19999999999999929, 13.00000000000000000 ) ) ;
#239 = DIRECTION ( 'NONE',  ( 0.000000000000000000, -0.000000000000000000, -1.000000000000000000 ) ) ;
#240 = CC_DESIGN_PERSON_AND_ORGANIZATION_ASSIGNMENT ( #1095, #234, ( #62 ) ) ;
#241 = VECTOR ( 'NONE', #1051, 1000.000000000000000 ) ;
#242 = ORIENTED_EDGE ( 'NONE', *, *, #1071, .T. ) ;
#243 = AXIS2_PLACEMENT_3D ( 'NONE', #735, #1126, #644 ) ;
#244 = FACE_OUTER_BOUND ( 'NONE', #900, .T. ) ;
#245 = VECTOR ( 'NONE', #161, 1000.000000000000000 ) ;
#246 = VECTOR ( 'NONE', #1036, 1000.000000000000000 ) ;
#247 = CARTESIAN_POINT ( 'NONE',  ( 28.69999999999999929, -11.50000000000000000, 4.000000000000000000 ) ) ;
#248 = ORIENTED_EDGE ( 'NONE', *, *, #306, .F. ) ;
#249 = ORIENTED_EDGE ( 'NONE', *, *, #233, .F. ) ;
#250 = CARTESIAN_POINT ( 'NONE',  ( 23.00000000000000000, 15.00000000000000000, 4.000000000000000000 ) ) ;
#251 = CARTESIAN_POINT ( 'NONE',  ( 46.82052589244400309, 15.00000000000000355, 13.00000000000000000 ) ) ;
#252 = VERTEX_POINT ( 'NONE', #22 ) ;
#253 = ORIENTED_EDGE ( 'NONE', *, *, #140, .F. ) ;
#254 = CARTESIAN_POINT ( 'NONE',  ( 46.82052589244400309, 10.19999999999999929, 13.00000000000000000 ) ) ;
#255 = EDGE_CURVE ( 'NONE', #770, #692, #1084, .T. ) ;
#256 = LINE ( 'NONE', #549, #617 ) ;
#257 = CARTESIAN_POINT ( 'NONE',  ( 46.82052589244400309, -10.19999999999999751, 15.14999999999999858 ) ) ;
#258 = ORIENTED_EDGE ( 'NONE', *, *, #489, .F. ) ;
#259 = CARTESIAN_POINT ( 'NONE',  ( 32.62052589244299838, 14.19999999999999929, 21.00000000000000000 ) ) ;
#260 = AXIS2_PLACEMENT_3D ( 'NONE', #998, #613, #144 ) ;
#261 = DIRECTION ( 'NONE',  ( -0.000000000000000000, -1.000000000000000000, -0.000000000000000000 ) ) ;
#262 = AXIS2_PLACEMENT_3D ( 'NONE', #1041, #358, #180 ) ;
#263 = AXIS2_PLACEMENT_3D ( 'NONE', #766, #572, #1149 ) ;
#264 = DIRECTION ( 'NONE',  ( -0.000000000000000000, 1.000000000000000000, -0.000000000000000000 ) ) ;
#265 = ORIENTED_EDGE ( 'NONE', *, *, #859, .F. ) ;
#266 = DIRECTION ( 'NONE',  ( -0.000000000000000000, 1.000000000000000000, -0.000000000000000000 ) ) ;
#267 = FACE_OUTER_BOUND ( 'NONE', #508, .T. ) ;
#268 = ADVANCED_FACE ( 'NONE', ( #968 ), #114, .F. ) ;
#269 = DIRECTION ( 'NONE',  ( -0.000000000000000000, -0.000000000000000000, 1.000000000000000000 ) ) ;
#270 = EDGE_CURVE ( 'NONE', #172, #993, #419, .T. ) ;
#271 = ORIENTED_EDGE ( 'NONE', *, *, #147, .F. ) ;
#272 = FACE_BOUND ( 'NONE', #507, .T. ) ;
#273 = DIRECTION ( 'NONE',  ( -1.000000000000000000, 0.000000000000000000, -0.000000000000000000 ) ) ;
#274 = LINE ( 'NONE', #748, #1043 ) ;
#275 = VERTEX_POINT ( 'NONE', #1163 ) ;
#276 = FACE_OUTER_BOUND ( 'NONE', #1076, .T. ) ;
#277 = FACE_OUTER_BOUND ( 'NONE', #688, .T. ) ;
#278 = CIRCLE ( 'NONE', #1004, 4.999999999999995559 ) ;
#279 = DIRECTION ( 'NONE',  ( 0.000000000000000000, -1.000000000000000000, 0.000000000000000000 ) ) ;
#280 = PERSON_AND_ORGANIZATION_ROLE ( 'classification_officer' ) ;
#281 = AXIS2_PLACEMENT_3D ( 'NONE', #427, #432, #239 ) ;
#282 = VERTEX_POINT ( 'NONE', #782 ) ;
#283 = ADVANCED_FACE ( 'NONE', ( #774 ), #872, .F. ) ;
#284 = CYLINDRICAL_SURFACE ( 'NONE', #321, 1.700000000000000178 ) ;
#285 = EDGE_CURVE ( 'NONE', #513, #551, #1152, .T. ) ;
#286 = DIRECTION ( 'NONE',  ( -1.000000000000000000, 0.000000000000000000, 0.000000000000000000 ) ) ;
#287 = LINE ( 'NONE', #690, #101 ) ;
#288 = EDGE_LOOP ( 'NONE', ( #228, #389, #373, #1167 ) ) ;
#289 = CYLINDRICAL_SURFACE ( 'NONE', #1209, 1.700000000000000178 ) ;
#290 = CARTESIAN_POINT ( 'NONE',  ( 51.82052589244400309, -10.19999999999999929, 13.00000000000000000 ) ) ;
#291 = DIRECTION ( 'NONE',  ( 0.000000000000000000, -0.000000000000000000, -1.000000000000000000 ) ) ;
#292 = ORIENTED_EDGE ( 'NONE', *, *, #131, .T. ) ;
#293 = EDGE_LOOP ( 'NONE', ( #325, #428 ) ) ;
#294 = LINE ( 'NONE', #1160, #541 ) ;
#295 = DIRECTION ( 'NONE',  ( 0.000000000000000000, 0.000000000000000000, 1.000000000000000000 ) ) ;
#296 = DIRECTION ( 'NONE',  ( 0.000000000000000000, -1.000000000000000000, 0.000000000000000000 ) ) ;
#297 = ORIENTED_EDGE ( 'NONE', *, *, #1164, .F. ) ;
#298 = CIRCLE ( 'NONE', #1027, 2.149999999999999023 ) ;
#299 = AXIS2_PLACEMENT_3D ( 'NONE', #669, #111, #391 ) ;
#300 = ORIENTED_EDGE ( 'NONE', *, *, #747, .T. ) ;
#301 = FACE_BOUND ( 'NONE', #1019, .T. ) ;
#302 = CARTESIAN_POINT ( 'NONE',  ( 37.62052589244299838, 15.00000000000000355, 21.00000000000000000 ) ) ;
#303 = EDGE_CURVE ( 'NONE', #495, #915, #287, .T. ) ;
#304 = DIRECTION ( 'NONE',  ( -1.000000000000000000, 0.000000000000000000, 0.000000000000000000 ) ) ;
#305 = ORIENTED_EDGE ( 'NONE', *, *, #658, .F. ) ;
#306 = EDGE_CURVE ( 'NONE', #918, #172, #93, .T. ) ;
#307 = ORIENTED_EDGE ( 'NONE', *, *, #401, .F. ) ;
#308 = DIRECTION ( 'NONE',  ( 0.000000000000000000, -1.000000000000000000, 0.000000000000000000 ) ) ;
#309 = CARTESIAN_POINT ( 'NONE',  ( 51.82052589244400309, -14.19999999999999929, 13.00000000000000000 ) ) ;
#310 = ORIENTED_EDGE ( 'NONE', *, *, #796, .F. ) ;
#311 = ORIENTED_EDGE ( 'NONE', *, *, #626, .T. ) ;
#312 = CC_DESIGN_DATE_AND_TIME_ASSIGNMENT ( #1144, #662, ( #1129 ) ) ;
#313 = CARTESIAN_POINT ( 'NONE',  ( 42.62052589244299838, -14.19999999999999929, 21.00000000000000000 ) ) ;
#314 = CARTESIAN_POINT ( 'NONE',  ( 62.00000000000000000, -15.00000000000000000, 8.000000000000000000 ) ) ;
#315 = AXIS2_PLACEMENT_3D ( 'NONE', #1236, #264, #365 ) ;
#316 = FACE_BOUND ( 'NONE', #184, .T. ) ;
#317 = VECTOR ( 'NONE', #589, 1000.000000000000000 ) ;
#318 = EDGE_CURVE ( 'NONE', #16, #410, #58, .T. ) ;
#319 = ORIENTED_EDGE ( 'NONE', *, *, #191, .F. ) ;
#320 = CIRCLE ( 'NONE', #202, 4.999999999999997335 ) ;
#321 = AXIS2_PLACEMENT_3D ( 'NONE', #190, #477, #676 ) ;
#322 = DIRECTION ( 'NONE',  ( -0.000000000000000000, -0.000000000000000000, -1.000000000000000000 ) ) ;
#323 = ADVANCED_FACE ( 'NONE', ( #667, #672, #494, #487, #388, #686, #1061 ), #1069, .F. ) ;
#324 = CARTESIAN_POINT ( 'NONE',  ( 25.30000000000000071, 11.50000000000000000, 8.000000000000000000 ) ) ;
#325 = ORIENTED_EDGE ( 'NONE', *, *, #45, .T. ) ;
#326 = ORIENTED_EDGE ( 'NONE', *, *, #1198, .F. ) ;
#327 = CARTESIAN_POINT ( 'NONE',  ( 37.62052589244299838, 15.00000000000000355, 21.00000000000000000 ) ) ;
#328 = DIRECTION ( 'NONE',  ( 0.000000000000000000, 0.000000000000000000, 1.000000000000000000 ) ) ;
#329 = FACE_OUTER_BOUND ( 'NONE', #201, .T. ) ;
#330 = EDGE_LOOP ( 'NONE', ( #110, #595, #894, #297 ) ) ;
#331 = DIRECTION ( 'NONE',  ( 0.000000000000000000, 0.000000000000000000, -1.000000000000000000 ) ) ;
#332 = DIRECTION ( 'NONE',  ( 0.000000000000000000, 0.000000000000000000, -1.000000000000000000 ) ) ;
#333 = DIRECTION ( 'NONE',  ( 0.000000000000000000, -0.000000000000000000, -1.000000000000000000 ) ) ;
#334 = PERSON_AND_ORGANIZATION_ROLE ( 'creator' ) ;
#335 = CIRCLE ( 'NONE', #78, 4.999999999999995559 ) ;
#336 = ORIENTED_EDGE ( 'NONE', *, *, #45, .F. ) ;
#337 = VECTOR ( 'NONE', #849, 1000.000000000000000 ) ;
#338 = VECTOR ( 'NONE', #1151, 1000.000000000000000 ) ;
#339 = DIRECTION ( 'NONE',  ( 0.000000000000000000, -1.000000000000000000, 0.000000000000000000 ) ) ;
#340 = AXIS2_PLACEMENT_3D ( 'NONE', #740, #266, #841 ) ;
#341 = CARTESIAN_POINT ( 'NONE',  ( 56.30000000000000426, -11.50000000000000000, 25.99999999999999645 ) ) ;
#342 = ORIENTED_EDGE ( 'NONE', *, *, #978, .F. ) ;
#343 = VERTEX_POINT ( 'NONE', #1247 ) ;
#344 = ADVANCED_FACE ( 'NONE', ( #10 ), #393, .F. ) ;
#345 = CARTESIAN_POINT ( 'NONE',  ( 32.62052589244299838, 10.19999999999999929, 8.000000000000000000 ) ) ;
#346 = LINE ( 'NONE', #73, #1168 ) ;
#347 = DIRECTION ( 'NONE',  ( -1.000000000000000000, 0.000000000000000000, 0.000000000000000000 ) ) ;
#348 = CALENDAR_DATE ( 2026, 12, 9 ) ;
#349 = VERTEX_POINT ( 'NONE', #15 ) ;
#350 = CC_DESIGN_PERSON_AND_ORGANIZATION_ASSIGNMENT ( #1202, #334, ( #910 ) ) ;
#351 = LINE ( 'NONE', #345, #482 ) ;
#352 = CARTESIAN_POINT ( 'NONE',  ( 0.000000000000000000, 0.000000000000000000, 4.000000000000000000 ) ) ;
#353 = CARTESIAN_POINT ( 'NONE',  ( 25.30000000000000071, -11.50000000000000000, 8.000000000000000000 ) ) ;
#354 = ORIENTED_EDGE ( 'NONE', *, *, #230, .F. ) ;
#355 = EDGE_CURVE ( 'NONE', #221, #16, #193, .T. ) ;
#356 = CARTESIAN_POINT ( 'NONE',  ( 46.82052589244400309, -14.20000000000000107, 10.84999999999999964 ) ) ;
#357 = CIRCLE ( 'NONE', #461, 2.149999999999999023 ) ;
#358 = DIRECTION ( 'NONE',  ( -0.000000000000000000, -0.000000000000000000, 1.000000000000000000 ) ) ;
#359 = EDGE_CURVE ( 'NONE', #692, #770, #799, .T. ) ;
#360 = AXIS2_PLACEMENT_3D ( 'NONE', #772, #578, #566 ) ;
#361 = PLANE ( 'NONE',  #1044 ) ;
#362 = ORIENTED_EDGE ( 'NONE', *, *, #103, .F. ) ;
#363 = FACE_OUTER_BOUND ( 'NONE', #12, .T. ) ;
#364 = DIRECTION ( 'NONE',  ( 0.000000000000000000, 0.000000000000000000, -1.000000000000000000 ) ) ;
#365 = DIRECTION ( 'NONE',  ( 0.000000000000000000, 0.000000000000000000, -1.000000000000000000 ) ) ;
#366 = ORIENTED_EDGE ( 'NONE', *, *, #1081, .F. ) ;
#367 = ORIENTED_EDGE ( 'NONE', *, *, #492, .T. ) ;
#368 = CARTESIAN_POINT ( 'NONE',  ( 37.62052589244299838, 15.00000000000000355, 18.85000000000000142 ) ) ;
#369 = CYLINDRICAL_SURFACE ( 'NONE', #1066, 1.700000000000000178 ) ;
#370 = EDGE_CURVE ( 'NONE', #956, #490, #499, .T. ) ;
#371 = DIRECTION ( 'NONE',  ( 0.000000000000000000, 0.000000000000000000, -1.000000000000000000 ) ) ;
#372 = CALENDAR_DATE ( 2026, 12, 9 ) ;
#373 = ORIENTED_EDGE ( 'NONE', *, *, #991, .F. ) ;
#374 = ORIENTED_EDGE ( 'NONE', *, *, #1068, .T. ) ;
#375 = CYLINDRICAL_SURFACE ( 'NONE', #263, 2.149999999999999023 ) ;
#376 = CARTESIAN_POINT ( 'NONE',  ( 59.70000000000000284, 11.50000000000000000, 8.000000000000000000 ) ) ;
#377 = VECTOR ( 'NONE', #1229, 1000.000000000000000 ) ;
#378 = AXIS2_PLACEMENT_3D ( 'NONE', #979, #21, #1162 ) ;
#379 = CARTESIAN_POINT ( 'NONE',  ( 58.00000000000000000, 11.50000000000000000, 8.000000000000000000 ) ) ;
#380 = APPROVAL_STATUS ( 'not_yet_approved' ) ;
#381 = CC_DESIGN_APPROVAL ( #665, ( #62 ) ) ;
#382 = ORIENTED_EDGE ( 'NONE', *, *, #1081, .T. ) ;
#383 = PRODUCT ( 'ARM-205_Parallel_gripper_fork_adapter', 'ARM-205_Parallel_gripper_fork_adapter', '', ( #525 ) ) ;
#384 = EDGE_LOOP ( 'NONE', ( #409, #996, #177, #682 ) ) ;
#385 = CARTESIAN_POINT ( 'NONE',  ( 51.82052589244400309, 10.19999999999999929, 13.00000000000000000 ) ) ;
#386 = ADVANCED_FACE ( 'NONE', ( #1079 ), #855, .F. ) ;
#387 = CARTESIAN_POINT ( 'NONE',  ( 51.82052589244400309, -10.19999999999999929, 8.000000000000000000 ) ) ;
#388 = FACE_BOUND ( 'NONE', #232, .T. ) ;
#389 = ORIENTED_EDGE ( 'NONE', *, *, #1121, .F. ) ;
#390 = ORIENTED_EDGE ( 'NONE', *, *, #818, .F. ) ;
#391 = DIRECTION ( 'NONE',  ( 0.000000000000000000, 0.000000000000000000, 1.000000000000000000 ) ) ;
#392 = DIRECTION ( 'NONE',  ( -1.000000000000000000, -0.000000000000000000, -0.000000000000000000 ) ) ;
#393 = CYLINDRICAL_SURFACE ( 'NONE', #1025, 2.149999999999999023 ) ;
#394 = ORIENTED_EDGE ( 'NONE', *, *, #543, .T. ) ;
#395 = ORIENTED_EDGE ( 'NONE', *, *, #818, .T. ) ;
#396 = LINE ( 'NONE', #1245, #1172 ) ;
#397 = EDGE_CURVE ( 'NONE', #1250, #71, #500, .T. ) ;
#398 = CARTESIAN_POINT ( 'NONE',  ( 42.62052589244299838, -10.19999999999999929, 21.00000000000000000 ) ) ;
#399 = CARTESIAN_POINT ( 'NONE',  ( 25.30000000000000071, -11.50000000000000000, 25.99999999999999645 ) ) ;
#400 = AXIS2_PLACEMENT_3D ( 'NONE', #974, #304, #886 ) ;
#401 = EDGE_CURVE ( 'NONE', #71, #1250, #1064, .T. ) ;
#402 = VECTOR ( 'NONE', #609, 1000.000000000000000 ) ;
#403 = ORIENTED_EDGE ( 'NONE', *, *, #255, .F. ) ;
#404 = AXIS2_PLACEMENT_3D ( 'NONE', #117, #853, #671 ) ;
#405 = EDGE_LOOP ( 'NONE', ( #195, #1115, #1101, #724, #601, #484 ) ) ;
#406 = DIRECTION ( 'NONE',  ( 0.000000000000000000, 0.000000000000000000, -1.000000000000000000 ) ) ;
#407 = DIRECTION ( 'NONE',  ( -0.000000000000000000, -0.000000000000000000, 1.000000000000000000 ) ) ;
#408 = EDGE_CURVE ( 'NONE', #531, #888, #40, .T. ) ;
#409 = ORIENTED_EDGE ( 'NONE', *, *, #512, .F. ) ;
#410 = VERTEX_POINT ( 'NONE', #247 ) ;
#411 = DIRECTION ( 'NONE',  ( 1.000000000000000000, -0.000000000000000000, 0.000000000000000000 ) ) ;
#412 = DIRECTION ( 'NONE',  ( 0.000000000000000000, 0.000000000000000000, 1.000000000000000000 ) ) ;
#413 = CARTESIAN_POINT ( 'NONE',  ( 37.62052589244299838, 10.19999999999999929, 21.00000000000000000 ) ) ;
#414 = ORIENTED_EDGE ( 'NONE', *, *, #707, .F. ) ;
#415 = EDGE_CURVE ( 'NONE', #594, #28, #125, .T. ) ;
#416 = CARTESIAN_POINT ( 'NONE',  ( 32.62052589244299838, 10.19999999999999929, 21.00000000000000000 ) ) ;
#417 = LINE ( 'NONE', #912, #756 ) ;
#418 = EDGE_LOOP ( 'NONE', ( #43, #403 ) ) ;
#419 = CIRCLE ( 'NONE', #1249, 1.700000000000000178 ) ;
#420 = EDGE_LOOP ( 'NONE', ( #319, #354 ) ) ;
#421 = AXIS2_PLACEMENT_3D ( 'NONE', #224, #411, #792 ) ;
#422 = CC_DESIGN_SECURITY_CLASSIFICATION ( #1129, ( #62 ) ) ;
#423 = CC_DESIGN_PERSON_AND_ORGANIZATION_ASSIGNMENT ( #919, #1218, ( #383 ) ) ;
#424 = DIRECTION ( 'NONE',  ( -0.000000000000000000, 1.000000000000000000, -0.000000000000000000 ) ) ;
#425 = DIRECTION ( 'NONE',  ( 0.000000000000000000, 0.000000000000000000, 1.000000000000000000 ) ) ;
#426 = VERTEX_POINT ( 'NONE', #798 ) ;
#427 = CARTESIAN_POINT ( 'NONE',  ( 0.000000000000000000, -14.19999999999999929, 0.000000000000000000 ) ) ;
#428 = ORIENTED_EDGE ( 'NONE', *, *, #673, .T. ) ;
#429 = CYLINDRICAL_SURFACE ( 'NONE', #61, 2.149999999999999023 ) ;
#430 = CARTESIAN_POINT ( 'NONE',  ( 42.62052589244299838, 14.19999999999999929, 21.00000000000000000 ) ) ;
#431 = ORIENTED_EDGE ( 'NONE', *, *, #543, .F. ) ;
#432 = DIRECTION ( 'NONE',  ( 0.000000000000000000, -1.000000000000000000, 0.000000000000000000 ) ) ;
#433 = EDGE_LOOP ( 'NONE', ( #258, #940, #776, #754 ) ) ;
#434 = CARTESIAN_POINT ( 'NONE',  ( 51.82052589244400309, -10.19999999999999929, 13.00000000000000000 ) ) ;
#435 = ADVANCED_FACE ( 'NONE', ( #892 ), #523, .F. ) ;
#436 = DIRECTION ( 'NONE',  ( -0.000000000000000000, -0.000000000000000000, 1.000000000000000000 ) ) ;
#437 = LINE ( 'NONE', #150, #218 ) ;
#438 = EDGE_CURVE ( 'NONE', #971, #503, #1003, .T. ) ;
#439 = VECTOR ( 'NONE', #156, 1000.000000000000000 ) ;
#440 = ORIENTED_EDGE ( 'NONE', *, *, #664, .T. ) ;
#441 = AXIS2_PLACEMENT_3D ( 'NONE', #211, #593, #980 ) ;
#442 = CIRCLE ( 'NONE', #863, 1.700000000000000178 ) ;
#443 = DIRECTION ( 'NONE',  ( 0.000000000000000000, 0.000000000000000000, -1.000000000000000000 ) ) ;
#444 = CC_DESIGN_APPROVAL ( #462, ( #910 ) ) ;
#445 = DIRECTION ( 'NONE',  ( -1.000000000000000000, 0.000000000000000000, 0.000000000000000000 ) ) ;
#446 = LINE ( 'NONE', #74, #377 ) ;
#447 = APPROVAL_ROLE ( '' ) ;
#448 = ORIENTED_EDGE ( 'NONE', *, *, #670, .T. ) ;
#449 = PLANE ( 'NONE',  #908 ) ;
#450 = PLANE ( 'NONE',  #79 ) ;
#451 = DIRECTION ( 'NONE',  ( 0.000000000000000000, -1.000000000000000000, 0.000000000000000000 ) ) ;
#452 = EDGE_CURVE ( 'NONE', #188, #809, #417, .T. ) ;
#453 = ORIENTED_EDGE ( 'NONE', *, *, #1161, .T. ) ;
#454 = CARTESIAN_POINT ( 'NONE',  ( 32.62052589244299838, -10.19999999999999929, 8.000000000000000000 ) ) ;
#455 = EDGE_CURVE ( 'NONE', #868, #221, #639, .T. ) ;
#456 = DIRECTION ( 'NONE',  ( -0.000000000000000000, 1.000000000000000000, -0.000000000000000000 ) ) ;
#457 = DIRECTION ( 'NONE',  ( 0.000000000000000000, 1.000000000000000000, 0.000000000000000000 ) ) ;
#458 = EDGE_LOOP ( 'NONE', ( #448, #879, #336, #1231 ) ) ;
#459 = VERTEX_POINT ( 'NONE', #903 ) ;
#460 = LINE ( 'NONE', #1131, #123 ) ;
#461 = AXIS2_PLACEMENT_3D ( 'NONE', #922, #456, #1123 ) ;
#462 = APPROVAL ( #630, 'UNSPECIFIED' ) ;
#463 = DIRECTION ( 'NONE',  ( -0.000000000000000000, -0.000000000000000000, 1.000000000000000000 ) ) ;
#464 = CIRCLE ( 'NONE', #378, 2.149999999999999023 ) ;
#465 = ORGANIZATION ( 'UNSPECIFIED', 'UNSPECIFIED', '' ) ;
#466 = LINE ( 'NONE', #564, #159 ) ;
#467 = ORIENTED_EDGE ( 'NONE', *, *, #285, .F. ) ;
#468 = CARTESIAN_POINT ( 'NONE',  ( 0.000000000000000000, 10.19999999999999929, 0.000000000000000000 ) ) ;
#469 = DIRECTION ( 'NONE',  ( 0.000000000000000000, 0.000000000000000000, -1.000000000000000000 ) ) ;
#470 = CARTESIAN_POINT ( 'NONE',  ( 23.00000000000000000, -15.00000000000000000, 8.000000000000000000 ) ) ;
#471 = ORIENTED_EDGE ( 'NONE', *, *, #787, .F. ) ;
#472 = PLANE ( 'NONE',  #721 ) ;
#473 = CARTESIAN_POINT ( 'NONE',  ( 32.62052589244299838, -10.19999999999999929, 8.000000000000000000 ) ) ;
#474 = CARTESIAN_POINT ( 'NONE',  ( 23.00000000000000000, -15.00000000000000000, 8.000000000000000000 ) ) ;
#475 = EDGE_CURVE ( 'NONE', #1015, #459, #538, .T. ) ;
#476 = ORIENTED_EDGE ( 'NONE', *, *, #29, .T. ) ;
#477 = DIRECTION ( 'NONE',  ( 0.000000000000000000, 0.000000000000000000, -1.000000000000000000 ) ) ;
#478 = DIRECTION ( 'NONE',  ( 0.000000000000000000, 0.000000000000000000, -1.000000000000000000 ) ) ;
#479 = CIRCLE ( 'NONE', #737, 2.149999999999999023 ) ;
#480 = AXIS2_PLACEMENT_3D ( 'NONE', #141, #514, #37 ) ;
#481 = DIRECTION ( 'NONE',  ( 0.000000000000000000, 0.000000000000000000, -1.000000000000000000 ) ) ;
#482 = VECTOR ( 'NONE', #1029, 1000.000000000000000 ) ;
#483 = VERTEX_POINT ( 'NONE', #324 ) ;
#484 = ORIENTED_EDGE ( 'NONE', *, *, #986, .F. ) ;
#485 = DIRECTION ( 'NONE',  ( 0.000000000000000000, -1.000000000000000000, 0.000000000000000000 ) ) ;
#486 = DIRECTION ( 'NONE',  ( 0.000000000000000000, 0.000000000000000000, -1.000000000000000000 ) ) ;
#487 = FACE_BOUND ( 'NONE', #82, .T. ) ;
#488 = ORIENTED_EDGE ( 'NONE', *, *, #546, .F. ) ;
#489 = EDGE_CURVE ( 'NONE', #11, #531, #715, .T. ) ;
#490 = VERTEX_POINT ( 'NONE', #811 ) ;
#491 = DIRECTION ( 'NONE',  ( 0.000000000000000000, -0.000000000000000000, -1.000000000000000000 ) ) ;
#492 = EDGE_CURVE ( 'NONE', #459, #50, #702, .T. ) ;
#493 = DIRECTION ( 'NONE',  ( -0.000000000000000000, 1.000000000000000000, -0.000000000000000000 ) ) ;
#494 = FACE_BOUND ( 'NONE', #418, .T. ) ;
#495 = VERTEX_POINT ( 'NONE', #314 ) ;
#496 = ORIENTED_EDGE ( 'NONE', *, *, #1105, .F. ) ;
#497 = LINE ( 'NONE', #871, #698 ) ;
#498 = AXIS2_PLACEMENT_3D ( 'NONE', #1217, #1139, #1133 ) ;
#499 = LINE ( 'NONE', #309, #983 ) ;
#500 = CIRCLE ( 'NONE', #260, 1.700000000000000178 ) ;
#501 = VECTOR ( 'NONE', #786, 1000.000000000000000 ) ;
#502 = ORIENTED_EDGE ( 'NONE', *, *, #397, .T. ) ;
#503 = VERTEX_POINT ( 'NONE', #793 ) ;
#504 = PLANE ( 'NONE',  #562 ) ;
#505 = EDGE_CURVE ( 'NONE', #888, #282, #1183, .T. ) ;
#506 = DIRECTION ( 'NONE',  ( 1.000000000000000000, 0.000000000000000000, 0.000000000000000000 ) ) ;
#507 = EDGE_LOOP ( 'NONE', ( #878, #271 ) ) ;
#508 = EDGE_LOOP ( 'NONE', ( #1154, #736, #789, #1203 ) ) ;
#509 = CARTESIAN_POINT ( 'NONE',  ( 37.62052589244299838, 10.19999999999999929, 23.15000000000000213 ) ) ;
#510 = CARTESIAN_POINT ( 'NONE',  ( 23.00000000000000000, -15.00000000000000000, 4.000000000000000000 ) ) ;
#511 = EDGE_LOOP ( 'NONE', ( #946, #33, #860, #1028 ) ) ;
#512 = EDGE_CURVE ( 'NONE', #705, #674, #278, .T. ) ;
#513 = VERTEX_POINT ( 'NONE', #992 ) ;
#514 = DIRECTION ( 'NONE',  ( -0.000000000000000000, 1.000000000000000000, -0.000000000000000000 ) ) ;
#515 = CARTESIAN_POINT ( 'NONE',  ( 32.62052589244299838, 14.19999999999999929, 21.00000000000000000 ) ) ;
#516 = CARTESIAN_POINT ( 'NONE',  ( 32.62052589244299838, 10.19999999999999929, 21.00000000000000000 ) ) ;
#517 = PERSON_AND_ORGANIZATION ( #970, #465 ) ;
#518 = VECTOR ( 'NONE', #3, 1000.000000000000000 ) ;
#519 = ORIENTED_EDGE ( 'NONE', *, *, #1017, .T. ) ;
#520 = VECTOR ( 'NONE', #206, 1000.000000000000000 ) ;
#521 = AXIS2_PLACEMENT_3D ( 'NONE', #827, #1007, #927 ) ;
#522 = DIRECTION ( 'NONE',  ( 0.000000000000000000, 0.000000000000000000, -1.000000000000000000 ) ) ;
#523 = PLANE ( 'NONE',  #558 ) ;
#524 = DIRECTION ( 'NONE',  ( 0.000000000000000000, 1.000000000000000000, 0.000000000000000000 ) ) ;
#525 = MECHANICAL_CONTEXT ( 'NONE', #891, 'mechanical' ) ;
#526 = ADVANCED_FACE ( 'NONE', ( #130 ), #1011, .F. ) ;
#527 = VERTEX_POINT ( 'NONE', #696 ) ;
#528 = DIRECTION ( 'NONE',  ( 0.000000000000000000, 0.000000000000000000, -1.000000000000000000 ) ) ;
#529 = EDGE_CURVE ( 'NONE', #459, #982, #1089, .T. ) ;
#530 = DIRECTION ( 'NONE',  ( -1.000000000000000000, 0.000000000000000000, 0.000000000000000000 ) ) ;
#531 = VERTEX_POINT ( 'NONE', #603 ) ;
#532 = ORIENTED_EDGE ( 'NONE', *, *, #568, .T. ) ;
#533 = DIRECTION ( 'NONE',  ( 0.000000000000000000, 0.000000000000000000, -1.000000000000000000 ) ) ;
#534 = CARTESIAN_POINT ( 'NONE',  ( 32.62052589244299838, -10.19999999999999929, 21.00000000000000000 ) ) ;
#535 = DIRECTION ( 'NONE',  ( 0.000000000000000000, 0.000000000000000000, -1.000000000000000000 ) ) ;
#536 = AXIS2_PLACEMENT_3D ( 'NONE', #53, #925, #333 ) ;
#537 = ORIENTED_EDGE ( 'NONE', *, *, #355, .F. ) ;
#538 = CIRCLE ( 'NONE', #1104, 4.999999999999997335 ) ;
#539 = AXIS2_PLACEMENT_3D ( 'NONE', #31, #1197, #701 ) ;
#540 = LINE ( 'NONE', #385, #1047 ) ;
#541 = VECTOR ( 'NONE', #875, 1000.000000000000000 ) ;
#542 = DIRECTION ( 'NONE',  ( -1.000000000000000000, 0.000000000000000000, 0.000000000000000000 ) ) ;
#543 = EDGE_CURVE ( 'NONE', #1094, #893, #479, .T. ) ;
#544 = FACE_OUTER_BOUND ( 'NONE', #989, .T. ) ;
#545 = SHAPE_DEFINITION_REPRESENTATION ( #95, #741 ) ;
#546 = EDGE_CURVE ( 'NONE', #503, #235, #200, .T. ) ;
#547 = ORIENTED_EDGE ( 'NONE', *, *, #452, .T. ) ;
#548 = PLANE ( 'NONE',  #203 ) ;
#549 = CARTESIAN_POINT ( 'NONE',  ( 42.62052589244299838, 14.19999999999999929, 15.71293199324855294 ) ) ;
#550 = LINE ( 'NONE', #845, #1204 ) ;
#551 = VERTEX_POINT ( 'NONE', #1235 ) ;
#552 = EDGE_CURVE ( 'NONE', #167, #607, #357, .T. ) ;
#553 = VERTEX_POINT ( 'NONE', #1132 ) ;
#554 = CARTESIAN_POINT ( 'NONE',  ( 62.00000000000000000, -15.00000000000000000, 8.000000000000000000 ) ) ;
#555 = DIRECTION ( 'NONE',  ( -0.000000000000000000, -1.000000000000000000, -0.000000000000000000 ) ) ;
#556 = CARTESIAN_POINT ( 'NONE',  ( 32.62052589244299838, 14.19999999999999929, 21.00000000000000000 ) ) ;
#557 = EDGE_LOOP ( 'NONE', ( #1077, #631 ) ) ;
#558 = AXIS2_PLACEMENT_3D ( 'NONE', #515, #27, #807 ) ;
#559 = CARTESIAN_POINT ( 'NONE',  ( 42.62052589244299838, -10.19999999999999929, 21.00000000000000000 ) ) ;
#560 = CIRCLE ( 'NONE', #480, 2.149999999999999023 ) ;
#561 = FACE_OUTER_BOUND ( 'NONE', #1213, .T. ) ;
#562 = AXIS2_PLACEMENT_3D ( 'NONE', #596, #712, #1002 ) ;
#563 = AXIS2_PLACEMENT_3D ( 'NONE', #1214, #1022, #160 ) ;
#564 = CARTESIAN_POINT ( 'NONE',  ( 23.00000000000000000, -15.00000000000000000, 8.000000000000000000 ) ) ;
#565 = ORIENTED_EDGE ( 'NONE', *, *, #65, .T. ) ;
#566 = DIRECTION ( 'NONE',  ( 0.000000000000000000, 0.000000000000000000, -1.000000000000000000 ) ) ;
#567 = CARTESIAN_POINT ( 'NONE',  ( 23.00000000000000000, -15.00000000000000000, 8.000000000000000000 ) ) ;
#568 = EDGE_CURVE ( 'NONE', #683, #11, #346, .T. ) ;
#569 = DIRECTION ( 'NONE',  ( -0.000000000000000000, -0.000000000000000000, 1.000000000000000000 ) ) ;
#570 = EDGE_LOOP ( 'NONE', ( #248, #300, #663, #969 ) ) ;
#571 = ORIENTED_EDGE ( 'NONE', *, *, #854, .T. ) ;
#572 = DIRECTION ( 'NONE',  ( 0.000000000000000000, -1.000000000000000000, 0.000000000000000000 ) ) ;
#573 = DIRECTION ( 'NONE',  ( 0.000000000000000000, 1.000000000000000000, 0.000000000000000000 ) ) ;
#574 = DIRECTION ( 'NONE',  ( -1.000000000000000000, 0.000000000000000000, 0.000000000000000000 ) ) ;
#575 = ADVANCED_FACE ( 'NONE', ( #69, #169, #825, #155, #267 ), #450, .T. ) ;
#576 = EDGE_LOOP ( 'NONE', ( #394, #1039, #1233, #840 ) ) ;
#577 = ORIENTED_EDGE ( 'NONE', *, *, #213, .F. ) ;
#578 = DIRECTION ( 'NONE',  ( -0.000000000000000000, -1.000000000000000000, -0.000000000000000000 ) ) ;
#579 = CARTESIAN_POINT ( 'NONE',  ( 46.82052589244400309, -10.19999999999999751, 10.84999999999999964 ) ) ;
#580 = VECTOR ( 'NONE', #506, 1000.000000000000000 ) ;
#581 = EDGE_CURVE ( 'NONE', #50, #553, #256, .T. ) ;
#582 = VECTOR ( 'NONE', #1205, 1000.000000000000000 ) ;
#583 = DIRECTION ( 'NONE',  ( -0.000000000000000000, -0.000000000000000000, 1.000000000000000000 ) ) ;
#584 = ORIENTED_EDGE ( 'NONE', *, *, #529, .F. ) ;
#585 = EDGE_CURVE ( 'NONE', #982, #553, #1018, .T. ) ;
#586 = ORIENTED_EDGE ( 'NONE', *, *, #112, .T. ) ;
#587 = LINE ( 'NONE', #1059, #783 ) ;
#588 = DIRECTION ( 'NONE',  ( -1.000000000000000000, 0.000000000000000000, 0.000000000000000000 ) ) ;
#589 = DIRECTION ( 'NONE',  ( 1.000000000000000000, 0.000000000000000000, 0.000000000000000000 ) ) ;
#590 = ORIENTED_EDGE ( 'NONE', *, *, #673, .F. ) ;
#591 = EDGE_LOOP ( 'NONE', ( #311, #920 ) ) ;
#592 = CARTESIAN_POINT ( 'NONE',  ( 32.62052589244299838, 14.19999999999999929, 8.000000000000000000 ) ) ;
#593 = DIRECTION ( 'NONE',  ( -0.000000000000000000, -0.000000000000000000, 1.000000000000000000 ) ) ;
#594 = VERTEX_POINT ( 'NONE', #643 ) ;
#595 = ORIENTED_EDGE ( 'NONE', *, *, #306, .T. ) ;
#596 = CARTESIAN_POINT ( 'NONE',  ( 23.00000000000000000, -15.00000000000000000, 8.000000000000000000 ) ) ;
#597 = DIRECTION ( 'NONE',  ( -0.000000000000000000, -1.000000000000000000, -0.000000000000000000 ) ) ;
#598 = VECTOR ( 'NONE', #225, 1000.000000000000000 ) ;
#599 = ORIENTED_EDGE ( 'NONE', *, *, #438, .T. ) ;
#600 = LOCAL_TIME ( 21, 58, 47.00000000000000000, #1119 ) ;
#601 = ORIENTED_EDGE ( 'NONE', *, *, #5, .F. ) ;
#602 = DIRECTION ( 'NONE',  ( -0.000000000000000000, 1.000000000000000000, -0.000000000000000000 ) ) ;
#603 = CARTESIAN_POINT ( 'NONE',  ( 42.62052589244299128, -10.19999999999999929, 21.00000000000000000 ) ) ;
#604 = ADVANCED_FACE ( 'NONE', ( #561 ), #634, .T. ) ;
#605 = DIRECTION ( 'NONE',  ( -0.000000000000000000, 1.000000000000000000, -0.000000000000000000 ) ) ;
#606 = DIRECTION ( 'NONE',  ( 0.000000000000000000, -1.000000000000000000, 0.000000000000000000 ) ) ;
#607 = VERTEX_POINT ( 'NONE', #835 ) ;
#608 = CARTESIAN_POINT ( 'NONE',  ( 62.00000000000000000, 15.00000000000000000, 8.000000000000000000 ) ) ;
#609 = DIRECTION ( 'NONE',  ( 0.000000000000000000, 0.000000000000000000, -1.000000000000000000 ) ) ;
#610 = CARTESIAN_POINT ( 'NONE',  ( 46.82052589244400309, 14.19999999999999929, 13.00000000000000000 ) ) ;
#611 = ORIENTED_EDGE ( 'NONE', *, *, #796, .T. ) ;
#612 = DIRECTION ( 'NONE',  ( -0.000000000000000000, 1.000000000000000000, -0.000000000000000000 ) ) ;
#613 = DIRECTION ( 'NONE',  ( -0.000000000000000000, -0.000000000000000000, 1.000000000000000000 ) ) ;
#614 = ADVANCED_FACE ( 'NONE', ( #174 ), #1138, .F. ) ;
#615 = AXIS2_PLACEMENT_3D ( 'NONE', #413, #1099, #1106 ) ;
#616 = DIRECTION ( 'NONE',  ( 0.000000000000000000, 0.000000000000000000, -1.000000000000000000 ) ) ;
#617 = VECTOR ( 'NONE', #261, 1000.000000000000000 ) ;
#618 = ORIENTED_EDGE ( 'NONE', *, *, #681, .F. ) ;
#619 = CIRCLE ( 'NONE', #142, 1.700000000000000178 ) ;
#620 = EDGE_CURVE ( 'NONE', #705, #282, #1030, .T. ) ;
#621 = LOCAL_TIME ( 21, 58, 47.00000000000000000, #54 ) ;
#622 = CARTESIAN_POINT ( 'NONE',  ( 46.82052589244400309, -14.20000000000000107, 13.00000000000000000 ) ) ;
#623 = DIRECTION ( 'NONE',  ( 0.000000000000000000, 0.000000000000000000, -1.000000000000000000 ) ) ;
#624 = ORIENTED_EDGE ( 'NONE', *, *, #137, .T. ) ;
#625 = ORIENTED_EDGE ( 'NONE', *, *, #438, .F. ) ;
#626 = EDGE_CURVE ( 'NONE', #993, #172, #718, .T. ) ;
#627 = FACE_OUTER_BOUND ( 'NONE', #999, .T. ) ;
#628 = LINE ( 'NONE', #534, #781 ) ;
#629 = LINE ( 'NONE', #516, #439 ) ;
#630 = APPROVAL_STATUS ( 'not_yet_approved' ) ;
#631 = ORIENTED_EDGE ( 'NONE', *, *, #939, .T. ) ;
#632 = EDGE_CURVE ( 'NONE', #1052, #594, #742, .T. ) ;
#633 = DIRECTION ( 'NONE',  ( 0.000000000000000000, 0.000000000000000000, 1.000000000000000000 ) ) ;
#634 = CYLINDRICAL_SURFACE ( 'NONE', #1251, 4.999999999999997335 ) ;
#635 = EDGE_CURVE ( 'NONE', #235, #503, #619, .T. ) ;
#636 = CYLINDRICAL_SURFACE ( 'NONE', #36, 4.999999999999997335 ) ;
#637 = DATE_AND_TIME ( #762, #163 ) ;
#638 = ORIENTED_EDGE ( 'NONE', *, *, #926, .T. ) ;
#639 = CIRCLE ( 'NONE', #882, 1.700000000000000178 ) ;
#640 = CIRCLE ( 'NONE', #965, 2.149999999999999023 ) ;
#641 = LINE ( 'NONE', #173, #885 ) ;
#642 = VECTOR ( 'NONE', #964, 1000.000000000000000 ) ;
#643 = CARTESIAN_POINT ( 'NONE',  ( 23.00000000000000000, -15.00000000000000000, 4.000000000000000000 ) ) ;
#644 = DIRECTION ( 'NONE',  ( -1.000000000000000000, 0.000000000000000000, 0.000000000000000000 ) ) ;
#645 = ORIENTED_EDGE ( 'NONE', *, *, #546, .T. ) ;
#646 = ORIENTED_EDGE ( 'NONE', *, *, #1219, .T. ) ;
#647 = CARTESIAN_POINT ( 'NONE',  ( 56.30000000000000426, -11.50000000000000000, 8.000000000000000000 ) ) ;
#648 = CARTESIAN_POINT ( 'NONE',  ( 42.62052589244299838, -10.19999999999999929, 15.71293199324855294 ) ) ;
#649 = CARTESIAN_POINT ( 'NONE',  ( 28.69999999999999929, 11.50000000000000000, 4.000000000000000000 ) ) ;
#650 = ORIENTED_EDGE ( 'NONE', *, *, #901, .T. ) ;
#651 = DIRECTION ( 'NONE',  ( 0.000000000000000000, 0.000000000000000000, -1.000000000000000000 ) ) ;
#652 = DIRECTION ( 'NONE',  ( 0.000000000000000000, 0.000000000000000000, -1.000000000000000000 ) ) ;
#653 = DIRECTION ( 'NONE',  ( 0.000000000000000000, 0.000000000000000000, -1.000000000000000000 ) ) ;
#654 = ADVANCED_FACE ( 'NONE', ( #1239 ), #369, .F. ) ;
#655 = EDGE_LOOP ( 'NONE', ( #367, #1070, #1140, #565, #977, #35 ) ) ;
#656 = AXIS2_PLACEMENT_3D ( 'NONE', #80, #187, #371 ) ;
#657 = FACE_OUTER_BOUND ( 'NONE', #570, .T. ) ;
#658 = EDGE_CURVE ( 'NONE', #11, #349, #628, .T. ) ;
#659 = DIRECTION ( 'NONE',  ( 0.000000000000000000, 0.000000000000000000, -1.000000000000000000 ) ) ;
#660 = VECTOR ( 'NONE', #443, 1000.000000000000000 ) ;
#661 = DIRECTION ( 'NONE',  ( -0.000000000000000000, -1.000000000000000000, -0.000000000000000000 ) ) ;
#662 = DATE_TIME_ROLE ( 'classification_date' ) ;
#663 = ORIENTED_EDGE ( 'NONE', *, *, #1164, .T. ) ;
#664 = EDGE_CURVE ( 'NONE', #343, #235, #1117, .T. ) ;
#665 = APPROVAL ( #64, 'UNSPECIFIED' ) ;
#666 = CARTESIAN_POINT ( 'NONE',  ( 37.62052589244299838, 10.19999999999999929, 21.00000000000000000 ) ) ;
#667 = FACE_BOUND ( 'NONE', #1220, .T. ) ;
#668 = VERTEX_POINT ( 'NONE', #831 ) ;
#669 = CARTESIAN_POINT ( 'NONE',  ( 46.82052589244400309, -14.19999999999999929, 13.00000000000000000 ) ) ;
#670 = EDGE_CURVE ( 'NONE', #1192, #846, #928, .T. ) ;
#671 = DIRECTION ( 'NONE',  ( -1.000000000000000000, 0.000000000000000000, 0.000000000000000000 ) ) ;
#672 = FACE_BOUND ( 'NONE', #420, .T. ) ;
#673 = EDGE_CURVE ( 'NONE', #962, #867, #464, .T. ) ;
#674 = VERTEX_POINT ( 'NONE', #290 ) ;
#675 = ORIENTED_EDGE ( 'NONE', *, *, #165, .T. ) ;
#676 = DIRECTION ( 'NONE',  ( -1.000000000000000000, 0.000000000000000000, 0.000000000000000000 ) ) ;
#677 = CARTESIAN_POINT ( 'NONE',  ( 56.30000000000000426, 11.50000000000000000, 8.000000000000000000 ) ) ;
#678 = AXIS2_PLACEMENT_3D ( 'NONE', #1143, #279, #175 ) ;
#679 = DIRECTION ( 'NONE',  ( 0.000000000000000000, 0.000000000000000000, -1.000000000000000000 ) ) ;
#680 = VECTOR ( 'NONE', #651, 1000.000000000000000 ) ;
#681 = EDGE_CURVE ( 'NONE', #483, #918, #1147, .T. ) ;
#682 = ORIENTED_EDGE ( 'NONE', *, *, #976, .F. ) ;
#683 = VERTEX_POINT ( 'NONE', #473 ) ;
#684 = LINE ( 'NONE', #368, #1232 ) ;
#685 = DIRECTION ( 'NONE',  ( 0.000000000000000000, 0.000000000000000000, -1.000000000000000000 ) ) ;
#686 = FACE_OUTER_BOUND ( 'NONE', #771, .T. ) ;
#687 = ORIENTED_EDGE ( 'NONE', *, *, #370, .F. ) ;
#688 = EDGE_LOOP ( 'NONE', ( #1253, #1048, #249, #1135 ) ) ;
#689 = CARTESIAN_POINT ( 'NONE',  ( 46.82052589244400309, -14.20000000000000107, 13.00000000000000000 ) ) ;
#690 = CARTESIAN_POINT ( 'NONE',  ( 62.00000000000000000, -15.00000000000000000, 8.000000000000000000 ) ) ;
#691 = ORIENTED_EDGE ( 'NONE', *, *, #455, .F. ) ;
#692 = VERTEX_POINT ( 'NONE', #677 ) ;
#693 = EDGE_CURVE ( 'NONE', #837, #982, #320, .T. ) ;
#694 = CYLINDRICAL_SURFACE ( 'NONE', #539, 1.700000000000000178 ) ;
#695 = VECTOR ( 'NONE', #616, 1000.000000000000000 ) ;
#696 = CARTESIAN_POINT ( 'NONE',  ( 23.00000000000000000, 15.00000000000000000, 8.000000000000000000 ) ) ;
#697 = AXIS2_PLACEMENT_3D ( 'NONE', #959, #100, #1056 ) ;
#698 = VECTOR ( 'NONE', #1074, 1000.000000000000000 ) ;
#699 = ORIENTED_EDGE ( 'NONE', *, *, #140, .T. ) ;
#700 = VERTEX_POINT ( 'NONE', #387 ) ;
#701 = DIRECTION ( 'NONE',  ( -1.000000000000000000, 0.000000000000000000, 0.000000000000000000 ) ) ;
#702 = LINE ( 'NONE', #430, #220 ) ;
#703 = ORIENTED_EDGE ( 'NONE', *, *, #854, .F. ) ;
#704 = CALENDAR_DATE ( 2026, 12, 9 ) ;
#705 = VERTEX_POINT ( 'NONE', #1060 ) ;
#706 = CARTESIAN_POINT ( 'NONE',  ( 56.30000000000000426, 11.50000000000000000, 25.99999999999999645 ) ) ;
#707 = EDGE_CURVE ( 'NONE', #490, #426, #1142, .T. ) ;
#708 = CARTESIAN_POINT ( 'NONE',  ( 42.62052589244299838, 14.19999999999999929, 21.00000000000000000 ) ) ;
#709 = CARTESIAN_POINT ( 'NONE',  ( 25.30000000000000071, -11.50000000000000000, 4.000000000000000000 ) ) ;
#710 = EDGE_CURVE ( 'NONE', #426, #349, #1054, .T. ) ;
#711 = ORIENTED_EDGE ( 'NONE', *, *, #355, .T. ) ;
#712 = DIRECTION ( 'NONE',  ( 1.000000000000000000, 0.000000000000000000, 0.000000000000000000 ) ) ;
#713 = DIRECTION ( 'NONE',  ( -0.000000000000000000, -0.000000000000000000, 1.000000000000000000 ) ) ;
#714 = CIRCLE ( 'NONE', #498, 2.149999999999999023 ) ;
#715 = CIRCLE ( 'NONE', #1206, 4.999999999999997335 ) ;
#716 = EDGE_LOOP ( 'NONE', ( #1109, #382, #1136, #750 ) ) ;
#717 = DATE_AND_TIME ( #157, #600 ) ;
#718 = CIRCLE ( 'NONE', #262, 1.700000000000000178 ) ;
#719 = ORIENTED_EDGE ( 'NONE', *, *, #505, .F. ) ;
#720 =( GEOMETRIC_REPRESENTATION_CONTEXT ( 3 ) GLOBAL_UNCERTAINTY_ASSIGNED_CONTEXT ( ( #815 ) ) GLOBAL_UNIT_ASSIGNED_CONTEXT ( ( #1013, #1100, #725 ) ) REPRESENTATION_CONTEXT ( 'NONE', 'WORKASPACE' ) );
#721 = AXIS2_PLACEMENT_3D ( 'NONE', #468, #485, #491 ) ;
#722 = FACE_OUTER_BOUND ( 'NONE', #121, .T. ) ;
#723 = DIRECTION ( 'NONE',  ( 0.000000000000000000, 1.000000000000000000, 0.000000000000000000 ) ) ;
#724 = ORIENTED_EDGE ( 'NONE', *, *, #693, .F. ) ;
#725 =( NAMED_UNIT ( * ) SI_UNIT ( $, .STERADIAN. ) SOLID_ANGLE_UNIT ( ) );
#726 = ADVANCED_FACE ( 'NONE', ( #864 ), #198, .T. ) ;
#727 = EDGE_LOOP ( 'NONE', ( #204, #305, #744, #873 ) ) ;
#728 = DIRECTION ( 'NONE',  ( 0.000000000000000000, -0.000000000000000000, -1.000000000000000000 ) ) ;
#729 = DIRECTION ( 'NONE',  ( -0.000000000000000000, -1.000000000000000000, -0.000000000000000000 ) ) ;
#730 = CARTESIAN_POINT ( 'NONE',  ( 58.00000000000000000, -11.50000000000000000, 8.000000000000000000 ) ) ;
#731 = DATE_AND_TIME ( #348, #930 ) ;
#732 = VERTEX_POINT ( 'NONE', #579 ) ;
#733 = PLANE ( 'NONE',  #1252 ) ;
#734 = DIRECTION ( 'NONE',  ( -0.000000000000000000, -0.000000000000000000, 1.000000000000000000 ) ) ;
#735 = CARTESIAN_POINT ( 'NONE',  ( 58.00000000000000000, -11.50000000000000000, 8.000000000000000000 ) ) ;
#736 = ORIENTED_EDGE ( 'NONE', *, *, #1068, .F. ) ;
#737 = AXIS2_PLACEMENT_3D ( 'NONE', #1098, #896, #937 ) ;
#738 = AXIS2_PLACEMENT_3D ( 'NONE', #622, #602, #331 ) ;
#739 = ORIENTED_EDGE ( 'NONE', *, *, #60, .T. ) ;
#740 = CARTESIAN_POINT ( 'NONE',  ( 46.82052589244400309, -10.19999999999999751, 13.00000000000000000 ) ) ;
#741 = ADVANCED_BREP_SHAPE_REPRESENTATION ( 'ARM-205_Parallel_gripper_fork_adapter', ( #25, #521 ), #720 ) ;
#742 = LINE ( 'NONE', #943, #122 ) ;
#743 = CARTESIAN_POINT ( 'NONE',  ( 37.62052589244299838, 14.19999999999999929, 21.00000000000000000 ) ) ;
#744 = ORIENTED_EDGE ( 'NONE', *, *, #568, .F. ) ;
#745 = LINE ( 'NONE', #434, #582 ) ;
#746 = CARTESIAN_POINT ( 'NONE',  ( 42.62052589244299838, 10.19999999999999929, 21.00000000000000000 ) ) ;
#747 = EDGE_CURVE ( 'NONE', #918, #483, #884, .T. ) ;
#748 = CARTESIAN_POINT ( 'NONE',  ( 37.62052589244299838, 15.00000000000000355, 23.15000000000000213 ) ) ;
#749 = EDGE_CURVE ( 'NONE', #252, #1058, #298, .T. ) ;
#750 = ORIENTED_EDGE ( 'NONE', *, *, #926, .F. ) ;
#751 = CARTESIAN_POINT ( 'NONE',  ( 37.62052589244299838, -14.19999999999999929, 21.00000000000000000 ) ) ;
#752 = DIRECTION ( 'NONE',  ( 0.000000000000000000, 0.000000000000000000, -1.000000000000000000 ) ) ;
#753 = LINE ( 'NONE', #944, #241 ) ;
#754 = ORIENTED_EDGE ( 'NONE', *, *, #408, .F. ) ;
#755 = AXIS2_PLACEMENT_3D ( 'NONE', #1184, #605, #535 ) ;
#756 = VECTOR ( 'NONE', #1190, 1000.000000000000000 ) ;
#757 = DIRECTION ( 'NONE',  ( 0.000000000000000000, 0.000000000000000000, -1.000000000000000000 ) ) ;
#758 = AXIS2_PLACEMENT_3D ( 'NONE', #229, #49, #528 ) ;
#759 = CARTESIAN_POINT ( 'NONE',  ( 37.62052589244299838, 15.00000000000000355, 18.85000000000000142 ) ) ;
#760 = APPROVAL_PERSON_ORGANIZATION ( #1107, #665, #447 ) ;
#761 = CARTESIAN_POINT ( 'NONE',  ( 27.00000000000000000, 11.50000000000000000, 4.000000000000000000 ) ) ;
#762 = CALENDAR_DATE ( 2026, 12, 9 ) ;
#763 = ORIENTED_EDGE ( 'NONE', *, *, #8, .F. ) ;
#764 = ADVANCED_FACE ( 'NONE', ( #107 ), #14, .F. ) ;
#765 = VERTEX_POINT ( 'NONE', #966 ) ;
#766 = CARTESIAN_POINT ( 'NONE',  ( 37.62052589244299838, 15.00000000000000355, 21.00000000000000000 ) ) ;
#767 = EDGE_CURVE ( 'NONE', #915, #527, #497, .T. ) ;
#768 = CARTESIAN_POINT ( 'NONE',  ( 46.82052589244400309, 10.19999999999999929, 13.00000000000000000 ) ) ;
#769 = CARTESIAN_POINT ( 'NONE',  ( 23.00000000000000000, 15.00000000000000000, 8.000000000000000000 ) ) ;
#770 = VERTEX_POINT ( 'NONE', #376 ) ;
#771 = EDGE_LOOP ( 'NONE', ( #699, #1180, #961, #146 ) ) ;
#772 = CARTESIAN_POINT ( 'NONE',  ( 37.62052589244299838, -10.19999999999999929, 21.00000000000000000 ) ) ;
#773 = CARTESIAN_POINT ( 'NONE',  ( 23.00000000000000000, 15.00000000000000000, 8.000000000000000000 ) ) ;
#774 = FACE_OUTER_BOUND ( 'NONE', #929, .T. ) ;
#775 = ORIENTED_EDGE ( 'NONE', *, *, #165, .F. ) ;
#776 = ORIENTED_EDGE ( 'NONE', *, *, #1198, .T. ) ;
#777 = DIRECTION ( 'NONE',  ( -0.000000000000000000, -0.000000000000000000, -1.000000000000000000 ) ) ;
#778 = CLOSED_SHELL ( 'NONE', ( #654, #1134, #1240, #386, #176, #614, #1124, #179, #1014, #323, #215, #844, #803, #1033, #268, #575, #435, #994, #1150, #194, #526, #604, #960, #42, #1243, #1201, #283, #726, #344, #806, #838, #881, #829, #764, #1087, #1174 ) ) ;
#779 = PLANE ( 'NONE',  #1170 ) ;
#780 = CIRCLE ( 'NONE', #963, 1.700000000000000178 ) ;
#781 = VECTOR ( 'NONE', #729, 1000.000000000000000 ) ;
#782 = CARTESIAN_POINT ( 'NONE',  ( 42.62052589244299838, -14.19999999999999929, 15.71293199324855294 ) ) ;
#783 = VECTOR ( 'NONE', #957, 1000.000000000000000 ) ;
#784 = ORIENTED_EDGE ( 'NONE', *, *, #620, .F. ) ;
#785 = ORIENTED_EDGE ( 'NONE', *, *, #1222, .T. ) ;
#786 = DIRECTION ( 'NONE',  ( -1.000000000000000000, -0.000000000000000000, -0.000000000000000000 ) ) ;
#787 = EDGE_CURVE ( 'NONE', #527, #1052, #9, .T. ) ;
#788 = DIRECTION ( 'NONE',  ( 0.000000000000000000, -1.000000000000000000, 0.000000000000000000 ) ) ;
#789 = ORIENTED_EDGE ( 'NONE', *, *, #137, .F. ) ;
#790 = EDGE_CURVE ( 'NONE', #1094, #668, #192, .T. ) ;
#791 = ORIENTED_EDGE ( 'NONE', *, *, #1187, .T. ) ;
#792 = DIRECTION ( 'NONE',  ( 0.000000000000000000, 0.000000000000000000, -1.000000000000000000 ) ) ;
#793 = CARTESIAN_POINT ( 'NONE',  ( 56.30000000000000426, -11.50000000000000000, 4.000000000000000000 ) ) ;
#794 = DIRECTION ( 'NONE',  ( 0.000000000000000000, 1.000000000000000000, 0.000000000000000000 ) ) ;
#795 = ORIENTED_EDGE ( 'NONE', *, *, #1222, .F. ) ;
#796 = EDGE_CURVE ( 'NONE', #531, #705, #113, .T. ) ;
#797 = DIRECTION ( 'NONE',  ( 0.000000000000000000, 0.000000000000000000, -1.000000000000000000 ) ) ;
#798 = CARTESIAN_POINT ( 'NONE',  ( 32.62052589244299838, -14.19999999999999929, 8.000000000000000000 ) ) ;
#799 = CIRCLE ( 'NONE', #441, 1.700000000000000178 ) ;
#800 = CARTESIAN_POINT ( 'NONE',  ( 42.62052589244299838, 14.19999999999999929, 15.71293199324855294 ) ) ;
#801 = PERSON_AND_ORGANIZATION_ROLE ( 'creator' ) ;
#802 = APPROVAL_PERSON_ORGANIZATION ( #517, #462, #914 ) ;
#803 = ADVANCED_FACE ( 'NONE', ( #277 ), #779, .F. ) ;
#804 = VERTEX_POINT ( 'NONE', #592 ) ;
#805 = DIRECTION ( 'NONE',  ( 0.000000000000000000, -1.000000000000000000, 0.000000000000000000 ) ) ;
#806 = ADVANCED_FACE ( 'NONE', ( #954 ), #92, .F. ) ;
#807 = DIRECTION ( 'NONE',  ( 0.000000000000000000, 0.000000000000000000, -1.000000000000000000 ) ) ;
#808 = ORIENTED_EDGE ( 'NONE', *, *, #191, .T. ) ;
#809 = VERTEX_POINT ( 'NONE', #895 ) ;
#810 = DIRECTION ( 'NONE',  ( -1.000000000000000000, 0.000000000000000000, 0.000000000000000000 ) ) ;
#811 = CARTESIAN_POINT ( 'NONE',  ( 51.82052589244400309, -14.19999999999999929, 8.000000000000000000 ) ) ;
#812 = ORIENTED_EDGE ( 'NONE', *, *, #303, .F. ) ;
#813 = DATE_AND_TIME ( #704, #621 ) ;
#814 = ORIENTED_EDGE ( 'NONE', *, *, #747, .F. ) ;
#815 = UNCERTAINTY_MEASURE_WITH_UNIT (LENGTH_MEASURE( 1.000000000000000082E-05 ), #1013, 'distance_accuracy_value', 'NONE');
#816 = CARTESIAN_POINT ( 'NONE',  ( 42.62052589244299838, 10.19999999999999929, 21.00000000000000000 ) ) ;
#817 = DIRECTION ( 'NONE',  ( 0.000000000000000000, 1.000000000000000000, 0.000000000000000000 ) ) ;
#818 = EDGE_CURVE ( 'NONE', #809, #1012, #1086, .T. ) ;
#819 = VECTOR ( 'NONE', #332, 1000.000000000000000 ) ;
#820 = DIRECTION ( 'NONE',  ( -1.000000000000000000, -0.000000000000000000, -0.000000000000000000 ) ) ;
#821 = VECTOR ( 'NONE', #210, 1000.000000000000000 ) ;
#822 = ORIENTED_EDGE ( 'NONE', *, *, #455, .T. ) ;
#823 = AXIS2_PLACEMENT_3D ( 'NONE', #91, #1141, #852 ) ;
#824 = DIRECTION ( 'NONE',  ( -1.000000000000000000, -0.000000000000000000, -0.000000000000000000 ) ) ;
#825 = FACE_BOUND ( 'NONE', #128, .T. ) ;
#826 = CARTESIAN_POINT ( 'NONE',  ( 46.82052589244400309, 15.00000000000000355, 15.14999999999999858 ) ) ;
#827 = CARTESIAN_POINT ( 'NONE',  ( 0.000000000000000000, 0.000000000000000000, 0.000000000000000000 ) ) ;
#828 = ORIENTED_EDGE ( 'NONE', *, *, #60, .F. ) ;
#829 = ADVANCED_FACE ( 'NONE', ( #244 ), #694, .F. ) ;
#830 = DIRECTION ( 'NONE',  ( -1.000000000000000000, 0.000000000000000000, 0.000000000000000000 ) ) ;
#831 = CARTESIAN_POINT ( 'NONE',  ( 37.62052589244299838, -14.20000000000000107, 18.85000000000000142 ) ) ;
#832 = LINE ( 'NONE', #183, #945 ) ;
#833 = VERTEX_POINT ( 'NONE', #1193 ) ;
#834 = DIRECTION ( 'NONE',  ( -1.000000000000000000, 0.000000000000000000, 0.000000000000000000 ) ) ;
#835 = CARTESIAN_POINT ( 'NONE',  ( 46.82052589244400309, 14.19999999999999929, 15.14999999999999858 ) ) ;
#836 = CYLINDRICAL_SURFACE ( 'NONE', #656, 2.149999999999999023 ) ;
#837 = VERTEX_POINT ( 'NONE', #416 ) ;
#838 = ADVANCED_FACE ( 'NONE', ( #216 ), #429, .F. ) ;
#839 = AXIS2_PLACEMENT_3D ( 'NONE', #973, #2, #286 ) ;
#840 = ORIENTED_EDGE ( 'NONE', *, *, #790, .F. ) ;
#841 = DIRECTION ( 'NONE',  ( 0.000000000000000000, 0.000000000000000000, -1.000000000000000000 ) ) ;
#842 = CIRCLE ( 'NONE', #1189, 2.149999999999999023 ) ;
#843 = DIRECTION ( 'NONE',  ( -1.000000000000000000, 0.000000000000000000, 0.000000000000000000 ) ) ;
#844 = ADVANCED_FACE ( 'NONE', ( #1092 ), #504, .F. ) ;
#845 = CARTESIAN_POINT ( 'NONE',  ( 62.00000000000000000, -15.00000000000000000, 4.000000000000000000 ) ) ;
#846 = VERTEX_POINT ( 'NONE', #890 ) ;
#847 = FACE_OUTER_BOUND ( 'NONE', #405, .T. ) ;
#848 = DIRECTION ( 'NONE',  ( 0.000000000000000000, -1.000000000000000000, 0.000000000000000000 ) ) ;
#849 = DIRECTION ( 'NONE',  ( 0.000000000000000000, -1.000000000000000000, 0.000000000000000000 ) ) ;
#850 = CC_DESIGN_DATE_AND_TIME_ASSIGNMENT ( #717, #899, ( #910 ) ) ;
#851 = ORIENTED_EDGE ( 'NONE', *, *, #112, .F. ) ;
#852 = DIRECTION ( 'NONE',  ( -1.000000000000000000, 0.000000000000000000, 0.000000000000000000 ) ) ;
#853 = DIRECTION ( 'NONE',  ( -0.000000000000000000, -0.000000000000000000, 1.000000000000000000 ) ) ;
#854 = EDGE_CURVE ( 'NONE', #275, #668, #20, .T. ) ;
#855 = CYLINDRICAL_SURFACE ( 'NONE', #120, 1.700000000000000178 ) ;
#856 = APPROVAL_ROLE ( '' ) ;
#857 = ORIENTED_EDGE ( 'NONE', *, *, #489, .T. ) ;
#858 = CIRCLE ( 'NONE', #315, 2.149999999999999023 ) ;
#859 = EDGE_CURVE ( 'NONE', #188, #732, #560, .T. ) ;
#860 = ORIENTED_EDGE ( 'NONE', *, *, #529, .T. ) ;
#861 = VECTOR ( 'NONE', #597, 1000.000000000000000 ) ;
#862 = DIRECTION ( 'NONE',  ( 0.000000000000000000, 0.000000000000000000, -1.000000000000000000 ) ) ;
#863 = AXIS2_PLACEMENT_3D ( 'NONE', #984, #1177, #810 ) ;
#864 = FACE_OUTER_BOUND ( 'NONE', #384, .T. ) ;
#865 = CC_DESIGN_APPROVAL ( #870, ( #1129 ) ) ;
#866 = DIRECTION ( 'NONE',  ( -1.000000000000000000, 0.000000000000000000, 0.000000000000000000 ) ) ;
#867 = VERTEX_POINT ( 'NONE', #129 ) ;
#868 = VERTEX_POINT ( 'NONE', #990 ) ;
#869 = CARTESIAN_POINT ( 'NONE',  ( 37.62052589244299838, 14.19999999999999929, 18.85000000000000142 ) ) ;
#870 = APPROVAL ( #380, 'UNSPECIFIED' ) ;
#871 = CARTESIAN_POINT ( 'NONE',  ( 23.00000000000000000, 15.00000000000000000, 8.000000000000000000 ) ) ;
#872 = PLANE ( 'NONE',  #400 ) ;
#873 = ORIENTED_EDGE ( 'NONE', *, *, #1055, .T. ) ;
#874 = ORIENTED_EDGE ( 'NONE', *, *, #767, .F. ) ;
#875 = DIRECTION ( 'NONE',  ( 0.000000000000000000, -1.000000000000000000, 0.000000000000000000 ) ) ;
#876 = DIRECTION ( 'NONE',  ( -0.000000000000000000, -0.000000000000000000, -1.000000000000000000 ) ) ;
#877 = CARTESIAN_POINT ( 'NONE',  ( 46.82052589244400309, 15.00000000000000355, 13.00000000000000000 ) ) ;
#878 = ORIENTED_EDGE ( 'NONE', *, *, #670, .F. ) ;
#879 = ORIENTED_EDGE ( 'NONE', *, *, #978, .T. ) ;
#880 = CIRCLE ( 'NONE', #755, 2.149999999999999023 ) ;
#881 = ADVANCED_FACE ( 'NONE', ( #148 ), #916, .F. ) ;
#882 = AXIS2_PLACEMENT_3D ( 'NONE', #46, #713, #530 ) ;
#883 = DIRECTION ( 'NONE',  ( 0.000000000000000000, -1.000000000000000000, 0.000000000000000000 ) ) ;
#884 = CIRCLE ( 'NONE', #839, 1.700000000000000178 ) ;
#885 = VECTOR ( 'NONE', #1116, 1000.000000000000000 ) ;
#886 = DIRECTION ( 'NONE',  ( 0.000000000000000000, 0.000000000000000000, 1.000000000000000000 ) ) ;
#887 = EDGE_CURVE ( 'NONE', #700, #683, #1010, .T. ) ;
#888 = VERTEX_POINT ( 'NONE', #313 ) ;
#889 = ORIENTED_EDGE ( 'NONE', *, *, #213, .T. ) ;
#890 = CARTESIAN_POINT ( 'NONE',  ( 37.62052589244299838, 14.19999999999999929, 23.15000000000000213 ) ) ;
#891 = APPLICATION_CONTEXT ( 'configuration controlled 3d designs of mechanical parts and assemblies' ) ;
#892 = FACE_OUTER_BOUND ( 'NONE', #171, .T. ) ;
#893 = VERTEX_POINT ( 'NONE', #911 ) ;
#894 = ORIENTED_EDGE ( 'NONE', *, *, #626, .F. ) ;
#895 = CARTESIAN_POINT ( 'NONE',  ( 46.82052589244400309, -14.20000000000000107, 15.14999999999999858 ) ) ;
#896 = DIRECTION ( 'NONE',  ( -0.000000000000000000, 1.000000000000000000, -0.000000000000000000 ) ) ;
#897 = EDGE_CURVE ( 'NONE', #495, #28, #135, .T. ) ;
#898 = DIRECTION ( 'NONE',  ( 0.000000000000000000, 0.000000000000000000, 1.000000000000000000 ) ) ;
#899 = DATE_TIME_ROLE ( 'creation_date' ) ;
#900 = EDGE_LOOP ( 'NONE', ( #1130, #822, #711, #988 ) ) ;
#901 = EDGE_CURVE ( 'NONE', #668, #275, #1208, .T. ) ;
#902 = CARTESIAN_POINT ( 'NONE',  ( 62.00000000000000000, -15.00000000000000000, 8.000000000000000000 ) ) ;
#903 = CARTESIAN_POINT ( 'NONE',  ( 42.62052589244299128, 14.19999999999999929, 21.00000000000000000 ) ) ;
#904 = AXIS2_PLACEMENT_3D ( 'NONE', #1223, #734, #843 ) ;
#905 = AXIS2_PLACEMENT_3D ( 'NONE', #1102, #612, #797 ) ;
#906 = FACE_BOUND ( 'NONE', #1128, .T. ) ;
#907 = APPLICATION_PROTOCOL_DEFINITION ( 'international standard', 'config_control_design', 1994, #1216 ) ;
#908 = AXIS2_PLACEMENT_3D ( 'NONE', #559, #830, #72 ) ;
#909 = ORIENTED_EDGE ( 'NONE', *, *, #5, .T. ) ;
#910 = PRODUCT_DEFINITION ( 'UNKNOWN', '', #62, #67 ) ;
#911 = CARTESIAN_POINT ( 'NONE',  ( 37.62052589244299838, -10.19999999999999751, 23.15000000000000213 ) ) ;
#912 = CARTESIAN_POINT ( 'NONE',  ( 46.82052589244400309, 15.00000000000000355, 15.14999999999999858 ) ) ;
#913 = PLANE ( 'NONE',  #536 ) ;
#914 = APPROVAL_ROLE ( '' ) ;
#915 = VERTEX_POINT ( 'NONE', #608 ) ;
#916 = CYLINDRICAL_SURFACE ( 'NONE', #19, 2.149999999999999023 ) ;
#917 = DIRECTION ( 'NONE',  ( -1.000000000000000000, 0.000000000000000000, 0.000000000000000000 ) ) ;
#918 = VERTEX_POINT ( 'NONE', #44 ) ;
#919 = PERSON_AND_ORGANIZATION ( #970, #465 ) ;
#920 = ORIENTED_EDGE ( 'NONE', *, *, #270, .T. ) ;
#921 = DIRECTION ( 'NONE',  ( -1.000000000000000000, 0.000000000000000000, 0.000000000000000000 ) ) ;
#922 = CARTESIAN_POINT ( 'NONE',  ( 46.82052589244400309, 14.19999999999999929, 13.00000000000000000 ) ) ;
#923 = CIRCLE ( 'NONE', #615, 2.149999999999999023 ) ;
#924 = AXIS2_PLACEMENT_3D ( 'NONE', #1112, #149, #425 ) ;
#925 = DIRECTION ( 'NONE',  ( 0.000000000000000000, -1.000000000000000000, 0.000000000000000000 ) ) ;
#926 = EDGE_CURVE ( 'NONE', #692, #1250, #997, .T. ) ;
#927 = DIRECTION ( 'NONE',  ( 1.000000000000000000, 0.000000000000000000, 0.000000000000000000 ) ) ;
#928 = CIRCLE ( 'NONE', #38, 2.149999999999999023 ) ;
#929 = EDGE_LOOP ( 'NONE', ( #208, #139, #828, #1176 ) ) ;
#930 = LOCAL_TIME ( 21, 58, 47.00000000000000000, #34 ) ;
#931 = FACE_OUTER_BOUND ( 'NONE', #655, .T. ) ;
#932 = CARTESIAN_POINT ( 'NONE',  ( 37.62052589244299838, 14.19999999999999929, 21.00000000000000000 ) ) ;
#933 = FACE_OUTER_BOUND ( 'NONE', #511, .T. ) ;
#934 = CC_DESIGN_PERSON_AND_ORGANIZATION_ASSIGNMENT ( #133, #801, ( #62 ) ) ;
#935 = ORIENTED_EDGE ( 'NONE', *, *, #126, .T. ) ;
#936 = LINE ( 'NONE', #454, #1108 ) ;
#937 = DIRECTION ( 'NONE',  ( 0.000000000000000000, 0.000000000000000000, -1.000000000000000000 ) ) ;
#938 = LINE ( 'NONE', #556, #1024 ) ;
#939 = EDGE_CURVE ( 'NONE', #410, #16, #442, .T. ) ;
#940 = ORIENTED_EDGE ( 'NONE', *, *, #658, .T. ) ;
#941 = LINE ( 'NONE', #1137, #246 ) ;
#942 = EDGE_CURVE ( 'NONE', #1012, #809, #640, .T. ) ;
#943 = CARTESIAN_POINT ( 'NONE',  ( 23.00000000000000000, -15.00000000000000000, 4.000000000000000000 ) ) ;
#944 = CARTESIAN_POINT ( 'NONE',  ( 23.00000000000000000, -15.00000000000000000, 8.000000000000000000 ) ) ;
#945 = VECTOR ( 'NONE', #661, 1000.000000000000000 ) ;
#946 = ORIENTED_EDGE ( 'NONE', *, *, #581, .F. ) ;
#947 = VECTOR ( 'NONE', #1075, 1000.000000000000000 ) ;
#948 = AXIS2_PLACEMENT_3D ( 'NONE', #251, #848, #652 ) ;
#949 = CARTESIAN_POINT ( 'NONE',  ( 59.70000000000000284, 11.50000000000000000, 25.99999999999999645 ) ) ;
#950 = DIRECTION ( 'NONE',  ( 0.000000000000000000, 0.000000000000000000, -1.000000000000000000 ) ) ;
#951 = FACE_OUTER_BOUND ( 'NONE', #458, .T. ) ;
#952 = ORIENTED_EDGE ( 'NONE', *, *, #693, .T. ) ;
#953 = CYLINDRICAL_SURFACE ( 'NONE', #823, 1.700000000000000178 ) ;
#954 = FACE_OUTER_BOUND ( 'NONE', #24, .T. ) ;
#955 = LINE ( 'NONE', #474, #317 ) ;
#956 = VERTEX_POINT ( 'NONE', #1078 ) ;
#957 = DIRECTION ( 'NONE',  ( -0.000000000000000000, -1.000000000000000000, -0.000000000000000000 ) ) ;
#958 = DIRECTION ( 'NONE',  ( -0.000000000000000000, 1.000000000000000000, -0.000000000000000000 ) ) ;
#959 = CARTESIAN_POINT ( 'NONE',  ( 0.000000000000000000, 0.000000000000000000, 8.000000000000000000 ) ) ;
#960 = ADVANCED_FACE ( 'NONE', ( #26 ), #236, .F. ) ;
#961 = ORIENTED_EDGE ( 'NONE', *, *, #303, .T. ) ;
#962 = VERTEX_POINT ( 'NONE', #509 ) ;
#963 = AXIS2_PLACEMENT_3D ( 'NONE', #730, #569, #347 ) ;
#964 = DIRECTION ( 'NONE',  ( 0.000000000000000000, 0.000000000000000000, -1.000000000000000000 ) ) ;
#965 = AXIS2_PLACEMENT_3D ( 'NONE', #689, #424, #1097 ) ;
#966 = CARTESIAN_POINT ( 'NONE',  ( 62.00000000000000000, 15.00000000000000000, 4.000000000000000000 ) ) ;
#967 = LOCAL_TIME ( 21, 58, 47.00000000000000000, #1242 ) ;
#968 = FACE_OUTER_BOUND ( 'NONE', #1181, .T. ) ;
#969 = ORIENTED_EDGE ( 'NONE', *, *, #270, .F. ) ;
#970 = PERSON ( 'UNSPECIFIED', 'UNSPECIFIED', 'UNSPECIFIED', ('UNSPECIFIED'), ('UNSPECIFIED'), ('UNSPECIFIED') ) ;
#971 = VERTEX_POINT ( 'NONE', #647 ) ;
#972 = LINE ( 'NONE', #1073, #223 ) ;
#973 = CARTESIAN_POINT ( 'NONE',  ( 27.00000000000000000, 11.50000000000000000, 8.000000000000000000 ) ) ;
#974 = CARTESIAN_POINT ( 'NONE',  ( 51.82052589244400309, -10.19999999999999929, 13.00000000000000000 ) ) ;
#975 = ORIENTED_EDGE ( 'NONE', *, *, #84, .T. ) ;
#976 = EDGE_CURVE ( 'NONE', #674, #956, #745, .T. ) ;
#977 = ORIENTED_EDGE ( 'NONE', *, *, #153, .T. ) ;
#978 = EDGE_CURVE ( 'NONE', #846, #962, #941, .T. ) ;
#979 = CARTESIAN_POINT ( 'NONE',  ( 37.62052589244299838, 10.19999999999999929, 21.00000000000000000 ) ) ;
#980 = DIRECTION ( 'NONE',  ( -1.000000000000000000, 0.000000000000000000, 0.000000000000000000 ) ) ;
#981 = EDGE_LOOP ( 'NONE', ( #1080, #675, #1120, #219 ) ) ;
#982 = VERTEX_POINT ( 'NONE', #816 ) ;
#983 = VECTOR ( 'NONE', #481, 1000.000000000000000 ) ;
#984 = CARTESIAN_POINT ( 'NONE',  ( 27.00000000000000000, -11.50000000000000000, 4.000000000000000000 ) ) ;
#985 = VECTOR ( 'NONE', #1085, 1000.000000000000000 ) ;
#986 = EDGE_CURVE ( 'NONE', #41, #833, #351, .T. ) ;
#987 = DIRECTION ( 'NONE',  ( 0.000000000000000000, 1.000000000000000000, 0.000000000000000000 ) ) ;
#988 = ORIENTED_EDGE ( 'NONE', *, *, #939, .F. ) ;
#989 = EDGE_LOOP ( 'NONE', ( #96, #889, #952, #584 ) ) ;
#990 = CARTESIAN_POINT ( 'NONE',  ( 28.69999999999999929, -11.50000000000000000, 8.000000000000000000 ) ) ;
#991 = EDGE_CURVE ( 'NONE', #513, #1175, #68, .T. ) ;
#992 = CARTESIAN_POINT ( 'NONE',  ( 51.82052589244400309, 14.19999999999999929, 13.00000000000000000 ) ) ;
#993 = VERTEX_POINT ( 'NONE', #1040 ) ;
#994 = ADVANCED_FACE ( 'NONE', ( #272, #76, #931 ), #733, .F. ) ;
#995 = APPROVAL_DATE_TIME ( #731, #665 ) ;
#996 = ORIENTED_EDGE ( 'NONE', *, *, #620, .T. ) ;
#997 = LINE ( 'NONE', #706, #985 ) ;
#998 = CARTESIAN_POINT ( 'NONE',  ( 58.00000000000000000, 11.50000000000000000, 4.000000000000000000 ) ) ;
#999 = EDGE_LOOP ( 'NONE', ( #1146, #1096, #599, #132 ) ) ;
#1000 = SECURITY_CLASSIFICATION_LEVEL ( 'unclassified' ) ;
#1001 = ORIENTED_EDGE ( 'NONE', *, *, #29, .F. ) ;
#1002 = DIRECTION ( 'NONE',  ( 0.000000000000000000, 0.000000000000000000, -1.000000000000000000 ) ) ;
#1003 = LINE ( 'NONE', #341, #402 ) ;
#1004 = AXIS2_PLACEMENT_3D ( 'NONE', #51, #817, #1103 ) ;
#1005 = VECTOR ( 'NONE', #876, 1000.000000000000000 ) ;
#1006 = CARTESIAN_POINT ( 'NONE',  ( 62.00000000000000000, -15.00000000000000000, 4.000000000000000000 ) ) ;
#1007 = DIRECTION ( 'NONE',  ( 0.000000000000000000, 0.000000000000000000, 1.000000000000000000 ) ) ;
#1008 = AXIS2_PLACEMENT_3D ( 'NONE', #154, #533, #921 ) ;
#1009 = ORIENTED_EDGE ( 'NONE', *, *, #581, .T. ) ;
#1010 = LINE ( 'NONE', #1182, #501 ) ;
#1011 = PLANE ( 'NONE',  #924 ) ;
#1012 = VERTEX_POINT ( 'NONE', #356 ) ;
#1013 =( LENGTH_UNIT ( ) NAMED_UNIT ( * ) SI_UNIT ( .MILLI., .METRE. ) );
#1014 = ADVANCED_FACE ( 'NONE', ( #722 ), #449, .F. ) ;
#1015 = VERTEX_POINT ( 'NONE', #259 ) ;
#1016 = CYLINDRICAL_SURFACE ( 'NONE', #1008, 1.700000000000000178 ) ;
#1017 = EDGE_CURVE ( 'NONE', #167, #1058, #641, .T. ) ;
#1018 = LINE ( 'NONE', #746, #1230 ) ;
#1019 = EDGE_LOOP ( 'NONE', ( #650, #571 ) ) ;
#1020 = APPROVAL_DATE_TIME ( #813, #462 ) ;
#1021 = ORIENTED_EDGE ( 'NONE', *, *, #887, .F. ) ;
#1022 = DIRECTION ( 'NONE',  ( -0.000000000000000000, -0.000000000000000000, 1.000000000000000000 ) ) ;
#1023 = CARTESIAN_POINT ( 'NONE',  ( 59.70000000000000284, -11.50000000000000000, 25.99999999999999645 ) ) ;
#1024 = VECTOR ( 'NONE', #269, 1000.000000000000000 ) ;
#1025 = AXIS2_PLACEMENT_3D ( 'NONE', #877, #296, #679 ) ;
#1026 = DIRECTION ( 'NONE',  ( 0.000000000000000000, 0.000000000000000000, -1.000000000000000000 ) ) ;
#1027 = AXIS2_PLACEMENT_3D ( 'NONE', #768, #493, #659 ) ;
#1028 = ORIENTED_EDGE ( 'NONE', *, *, #585, .T. ) ;
#1029 = DIRECTION ( 'NONE',  ( -1.000000000000000000, -0.000000000000000000, -0.000000000000000000 ) ) ;
#1030 = LINE ( 'NONE', #648, #222 ) ;
#1031 = EDGE_CURVE ( 'NONE', #1058, #252, #842, .T. ) ;
#1032 = LINE ( 'NONE', #826, #337 ) ;
#1033 = ADVANCED_FACE ( 'NONE', ( #363 ), #548, .F. ) ;
#1034 = EDGE_LOOP ( 'NONE', ( #1153, #18 ) ) ;
#1035 = ORIENTED_EDGE ( 'NONE', *, *, #749, .F. ) ;
#1036 = DIRECTION ( 'NONE',  ( 0.000000000000000000, -1.000000000000000000, 0.000000000000000000 ) ) ;
#1037 = CARTESIAN_POINT ( 'NONE',  ( 46.82052589244400309, 14.19999999999999929, 13.00000000000000000 ) ) ;
#1038 = CARTESIAN_POINT ( 'NONE',  ( 28.69999999999999929, -11.50000000000000000, 25.99999999999999645 ) ) ;
#1039 = ORIENTED_EDGE ( 'NONE', *, *, #103, .T. ) ;
#1040 = CARTESIAN_POINT ( 'NONE',  ( 25.30000000000000071, 11.50000000000000000, 4.000000000000000000 ) ) ;
#1041 = CARTESIAN_POINT ( 'NONE',  ( 27.00000000000000000, 11.50000000000000000, 4.000000000000000000 ) ) ;
#1042 = CARTESIAN_POINT ( 'NONE',  ( 46.82052589244400309, 14.19999999999999929, 10.84999999999999964 ) ) ;
#1043 = VECTOR ( 'NONE', #451, 1000.000000000000000 ) ;
#1044 = AXIS2_PLACEMENT_3D ( 'NONE', #170, #70, #1224 ) ;
#1045 = ORIENTED_EDGE ( 'NONE', *, *, #787, .T. ) ;
#1046 = AXIS2_PLACEMENT_3D ( 'NONE', #1156, #486, #588 ) ;
#1047 = VECTOR ( 'NONE', #862, 1000.000000000000000 ) ;
#1048 = ORIENTED_EDGE ( 'NONE', *, *, #897, .F. ) ;
#1049 = DIRECTION ( 'NONE',  ( 0.000000000000000000, 1.000000000000000000, 0.000000000000000000 ) ) ;
#1050 = CARTESIAN_POINT ( 'NONE',  ( 46.82052589244400309, -10.19999999999999929, 13.00000000000000000 ) ) ;
#1051 = DIRECTION ( 'NONE',  ( -0.000000000000000000, -0.000000000000000000, -1.000000000000000000 ) ) ;
#1052 = VERTEX_POINT ( 'NONE', #250 ) ;
#1053 = FACE_BOUND ( 'NONE', #293, .T. ) ;
#1054 = LINE ( 'NONE', #1246, #520 ) ;
#1055 = EDGE_CURVE ( 'NONE', #683, #426, #936, .T. ) ;
#1056 = DIRECTION ( 'NONE',  ( -1.000000000000000000, 0.000000000000000000, -0.000000000000000000 ) ) ;
#1057 = EDGE_LOOP ( 'NONE', ( #1165, #55, #851, #1244 ) ) ;
#1058 = VERTEX_POINT ( 'NONE', #1226 ) ;
#1059 = CARTESIAN_POINT ( 'NONE',  ( 51.82052589244400309, 14.19999999999999929, 8.000000000000000000 ) ) ;
#1060 = CARTESIAN_POINT ( 'NONE',  ( 42.62052589244299838, -10.19999999999999929, 15.71293199324855294 ) ) ;
#1061 = FACE_BOUND ( 'NONE', #1057, .T. ) ;
#1062 = EDGE_LOOP ( 'NONE', ( #808, #440, #488, #625 ) ) ;
#1063 = ORIENTED_EDGE ( 'NONE', *, *, #401, .T. ) ;
#1064 = CIRCLE ( 'NONE', #1145, 1.700000000000000178 ) ;
#1065 = FACE_BOUND ( 'NONE', #1034, .T. ) ;
#1066 = AXIS2_PLACEMENT_3D ( 'NONE', #1215, #752, #542 ) ;
#1067 = CARTESIAN_POINT ( 'NONE',  ( 32.62052589244299838, -14.19999999999999929, 8.000000000000000000 ) ) ;
#1068 = EDGE_CURVE ( 'NONE', #765, #1052, #460, .T. ) ;
#1069 = PLANE ( 'NONE',  #697 ) ;
#1070 = ORIENTED_EDGE ( 'NONE', *, *, #8, .T. ) ;
#1071 = EDGE_CURVE ( 'NONE', #732, #188, #39, .T. ) ;
#1072 = ORIENTED_EDGE ( 'NONE', *, *, #408, .T. ) ;
#1073 = CARTESIAN_POINT ( 'NONE',  ( 51.82052589244400309, -10.19999999999999929, 8.000000000000000000 ) ) ;
#1074 = DIRECTION ( 'NONE',  ( -1.000000000000000000, -0.000000000000000000, -0.000000000000000000 ) ) ;
#1075 = DIRECTION ( 'NONE',  ( 0.000000000000000000, 0.000000000000000000, -1.000000000000000000 ) ) ;
#1076 = EDGE_LOOP ( 'NONE', ( #687, #196, #719, #326, #47, #414 ) ) ;
#1077 = ORIENTED_EDGE ( 'NONE', *, *, #318, .T. ) ;
#1078 = CARTESIAN_POINT ( 'NONE',  ( 51.82052589244400309, -14.19999999999999929, 13.00000000000000000 ) ) ;
#1079 = FACE_OUTER_BOUND ( 'NONE', #134, .T. ) ;
#1080 = ORIENTED_EDGE ( 'NONE', *, *, #552, .T. ) ;
#1081 = EDGE_CURVE ( 'NONE', #770, #71, #1234, .T. ) ;
#1082 = ORIENTED_EDGE ( 'NONE', *, *, #1071, .F. ) ;
#1083 = VECTOR ( 'NONE', #653, 1000.000000000000000 ) ;
#1084 = CIRCLE ( 'NONE', #1186, 1.700000000000000178 ) ;
#1085 = DIRECTION ( 'NONE',  ( 0.000000000000000000, 0.000000000000000000, -1.000000000000000000 ) ) ;
#1086 = CIRCLE ( 'NONE', #738, 2.149999999999999023 ) ;
#1087 = ADVANCED_FACE ( 'NONE', ( #627 ), #1016, .F. ) ;
#1088 = APPROVAL_PERSON_ORGANIZATION ( #94, #870, #856 ) ;
#1089 = LINE ( 'NONE', #708, #598 ) ;
#1090 = ORIENTED_EDGE ( 'NONE', *, *, #632, .T. ) ;
#1091 = ORIENTED_EDGE ( 'NONE', *, *, #1105, .T. ) ;
#1092 = FACE_OUTER_BOUND ( 'NONE', #127, .T. ) ;
#1093 = CARTESIAN_POINT ( 'NONE',  ( 42.62052589244299838, -10.19999999999999929, 21.00000000000000000 ) ) ;
#1094 = VERTEX_POINT ( 'NONE', #57 ) ;
#1095 = PERSON_AND_ORGANIZATION ( #970, #465 ) ;
#1096 = ORIENTED_EDGE ( 'NONE', *, *, #230, .T. ) ;
#1097 = DIRECTION ( 'NONE',  ( 0.000000000000000000, 0.000000000000000000, -1.000000000000000000 ) ) ;
#1098 = CARTESIAN_POINT ( 'NONE',  ( 37.62052589244299838, -10.19999999999999751, 21.00000000000000000 ) ) ;
#1099 = DIRECTION ( 'NONE',  ( -0.000000000000000000, 1.000000000000000000, -0.000000000000000000 ) ) ;
#1100 =( NAMED_UNIT ( * ) PLANE_ANGLE_UNIT ( ) SI_UNIT ( $, .RADIAN. ) );
#1101 = ORIENTED_EDGE ( 'NONE', *, *, #585, .F. ) ;
#1102 = CARTESIAN_POINT ( 'NONE',  ( 37.62052589244299838, -14.20000000000000107, 21.00000000000000000 ) ) ;
#1103 = DIRECTION ( 'NONE',  ( 0.000000000000000000, 0.000000000000000000, 1.000000000000000000 ) ) ;
#1104 = AXIS2_PLACEMENT_3D ( 'NONE', #1199, #987, #412 ) ;
#1105 = EDGE_CURVE ( 'NONE', #221, #868, #83, .T. ) ;
#1106 = DIRECTION ( 'NONE',  ( 0.000000000000000000, 0.000000000000000000, -1.000000000000000000 ) ) ;
#1107 = PERSON_AND_ORGANIZATION ( #970, #465 ) ;
#1108 = VECTOR ( 'NONE', #1111, 1000.000000000000000 ) ;
#1109 = ORIENTED_EDGE ( 'NONE', *, *, #359, .T. ) ;
#1110 = EDGE_CURVE ( 'NONE', #551, #41, #540, .T. ) ;
#1111 = DIRECTION ( 'NONE',  ( -0.000000000000000000, -1.000000000000000000, -0.000000000000000000 ) ) ;
#1112 = CARTESIAN_POINT ( 'NONE',  ( 51.82052589244400309, 14.19999999999999929, 13.00000000000000000 ) ) ;
#1113 = ORIENTED_EDGE ( 'NONE', *, *, #552, .F. ) ;
#1114 = PLANE ( 'NONE',  #281 ) ;
#1115 = ORIENTED_EDGE ( 'NONE', *, *, #84, .F. ) ;
#1116 = DIRECTION ( 'NONE',  ( 0.000000000000000000, -1.000000000000000000, 0.000000000000000000 ) ) ;
#1117 = LINE ( 'NONE', #1023, #245 ) ;
#1118 = LINE ( 'NONE', #1038, #1083 ) ;
#1119 = COORDINATED_UNIVERSAL_TIME_OFFSET ( 6, 0, .BEHIND. ) ;
#1120 = ORIENTED_EDGE ( 'NONE', *, *, #1031, .F. ) ;
#1121 = EDGE_CURVE ( 'NONE', #1175, #41, #587, .T. ) ;
#1122 = CARTESIAN_POINT ( 'NONE',  ( 0.000000000000000000, 14.19999999999999929, 0.000000000000000000 ) ) ;
#1123 = DIRECTION ( 'NONE',  ( 0.000000000000000000, 0.000000000000000000, -1.000000000000000000 ) ) ;
#1124 = ADVANCED_FACE ( 'NONE', ( #13 ), #375, .F. ) ;
#1125 = AXIS2_PLACEMENT_3D ( 'NONE', #217, #583, #574 ) ;
#1126 = DIRECTION ( 'NONE',  ( -0.000000000000000000, -0.000000000000000000, 1.000000000000000000 ) ) ;
#1127 = AXIS2_PLACEMENT_3D ( 'NONE', #1050, #186, #478 ) ;
#1128 = EDGE_LOOP ( 'NONE', ( #431, #214 ) ) ;
#1129 = SECURITY_CLASSIFICATION ( '', '', #1000 ) ;
#1130 = ORIENTED_EDGE ( 'NONE', *, *, #126, .F. ) ;
#1131 = CARTESIAN_POINT ( 'NONE',  ( 23.00000000000000000, 15.00000000000000000, 4.000000000000000000 ) ) ;
#1132 = CARTESIAN_POINT ( 'NONE',  ( 42.62052589244299838, 10.19999999999999929, 15.71293199324855294 ) ) ;
#1133 = DIRECTION ( 'NONE',  ( 0.000000000000000000, 0.000000000000000000, -1.000000000000000000 ) ) ;
#1134 = ADVANCED_FACE ( 'NONE', ( #1155 ), #289, .F. ) ;
#1135 = ORIENTED_EDGE ( 'NONE', *, *, #87, .T. ) ;
#1136 = ORIENTED_EDGE ( 'NONE', *, *, #397, .F. ) ;
#1137 = CARTESIAN_POINT ( 'NONE',  ( 37.62052589244299838, 15.00000000000000355, 23.15000000000000213 ) ) ;
#1138 = CYLINDRICAL_SURFACE ( 'NONE', #948, 2.149999999999999023 ) ;
#1139 = DIRECTION ( 'NONE',  ( -0.000000000000000000, 1.000000000000000000, -0.000000000000000000 ) ) ;
#1140 = ORIENTED_EDGE ( 'NONE', *, *, #991, .T. ) ;
#1141 = DIRECTION ( 'NONE',  ( 0.000000000000000000, 0.000000000000000000, -1.000000000000000000 ) ) ;
#1142 = LINE ( 'NONE', #1067, #182 ) ;
#1143 = CARTESIAN_POINT ( 'NONE',  ( 46.82052589244400309, 15.00000000000000355, 13.00000000000000000 ) ) ;
#1144 = DATE_AND_TIME ( #372, #967 ) ;
#1145 = AXIS2_PLACEMENT_3D ( 'NONE', #136, #436, #32 ) ;
#1146 = ORIENTED_EDGE ( 'NONE', *, *, #664, .F. ) ;
#1147 = CIRCLE ( 'NONE', #404, 1.700000000000000178 ) ;
#1148 = CIRCLE ( 'NONE', #104, 4.999999999999997335 ) ;
#1149 = DIRECTION ( 'NONE',  ( 0.000000000000000000, 0.000000000000000000, -1.000000000000000000 ) ) ;
#1150 = ADVANCED_FACE ( 'NONE', ( #1053, #1065, #847 ), #472, .T. ) ;
#1151 = DIRECTION ( 'NONE',  ( 0.000000000000000000, -1.000000000000000000, 0.000000000000000000 ) ) ;
#1152 = LINE ( 'NONE', #1178, #518 ) ;
#1153 = ORIENTED_EDGE ( 'NONE', *, *, #1031, .T. ) ;
#1154 = ORIENTED_EDGE ( 'NONE', *, *, #632, .F. ) ;
#1155 = FACE_OUTER_BOUND ( 'NONE', #1062, .T. ) ;
#1156 = CARTESIAN_POINT ( 'NONE',  ( 58.00000000000000000, 11.50000000000000000, 25.99999999999999645 ) ) ;
#1157 = CARTESIAN_POINT ( 'NONE',  ( 59.70000000000000284, -11.50000000000000000, 4.000000000000000000 ) ) ;
#1158 = ORIENTED_EDGE ( 'NONE', *, *, #942, .T. ) ;
#1159 = ORIENTED_EDGE ( 'NONE', *, *, #1219, .F. ) ;
#1160 = CARTESIAN_POINT ( 'NONE',  ( 46.82052589244400309, 15.00000000000000355, 10.84999999999999964 ) ) ;
#1161 = EDGE_CURVE ( 'NONE', #700, #490, #972, .T. ) ;
#1162 = DIRECTION ( 'NONE',  ( 0.000000000000000000, 0.000000000000000000, -1.000000000000000000 ) ) ;
#1163 = CARTESIAN_POINT ( 'NONE',  ( 37.62052589244299838, -14.20000000000000107, 23.15000000000000213 ) ) ;
#1164 = EDGE_CURVE ( 'NONE', #483, #993, #85, .T. ) ;
#1165 = ORIENTED_EDGE ( 'NONE', *, *, #1121, .T. ) ;
#1166 = AXIS2_PLACEMENT_3D ( 'NONE', #610, #524, #898 ) ;
#1167 = ORIENTED_EDGE ( 'NONE', *, *, #285, .T. ) ;
#1168 = VECTOR ( 'NONE', #1227, 1000.000000000000000 ) ;
#1169 = FACE_OUTER_BOUND ( 'NONE', #716, .T. ) ;
#1170 = AXIS2_PLACEMENT_3D ( 'NONE', #567, #573, #1171 ) ;
#1171 = DIRECTION ( 'NONE',  ( 0.000000000000000000, -0.000000000000000000, 1.000000000000000000 ) ) ;
#1172 = VECTOR ( 'NONE', #777, 1000.000000000000000 ) ;
#1173 = DIRECTION ( 'NONE',  ( -1.000000000000000000, 0.000000000000000000, 0.000000000000000000 ) ) ;
#1174 = ADVANCED_FACE ( 'NONE', ( #657 ), #284, .F. ) ;
#1175 = VERTEX_POINT ( 'NONE', #1 ) ;
#1176 = ORIENTED_EDGE ( 'NONE', *, *, #976, .T. ) ;
#1177 = DIRECTION ( 'NONE',  ( -0.000000000000000000, -0.000000000000000000, 1.000000000000000000 ) ) ;
#1178 = CARTESIAN_POINT ( 'NONE',  ( 51.82052589244400309, 14.19999999999999929, 13.00000000000000000 ) ) ;
#1179 = EDGE_CURVE ( 'NONE', #282, #956, #143, .T. ) ;
#1180 = ORIENTED_EDGE ( 'NONE', *, *, #233, .T. ) ;
#1181 = EDGE_LOOP ( 'NONE', ( #374, #471, #874, #785 ) ) ;
#1182 = CARTESIAN_POINT ( 'NONE',  ( 32.62052589244299838, -10.19999999999999929, 8.000000000000000000 ) ) ;
#1183 = LINE ( 'NONE', #231, #819 ) ;
#1184 = CARTESIAN_POINT ( 'NONE',  ( 46.82052589244400309, 14.19999999999999929, 13.00000000000000000 ) ) ;
#1185 = ORIENTED_EDGE ( 'NONE', *, *, #153, .F. ) ;
#1186 = AXIS2_PLACEMENT_3D ( 'NONE', #379, #207, #1173 ) ;
#1187 = EDGE_CURVE ( 'NONE', #1192, #867, #684, .T. ) ;
#1188 = CARTESIAN_POINT ( 'NONE',  ( 46.82052589244400309, 15.00000000000000355, 13.00000000000000000 ) ) ;
#1189 = AXIS2_PLACEMENT_3D ( 'NONE', #254, #168, #178 ) ;
#1190 = DIRECTION ( 'NONE',  ( 0.000000000000000000, -1.000000000000000000, 0.000000000000000000 ) ) ;
#1191 = LINE ( 'NONE', #238, #695 ) ;
#1192 = VERTEX_POINT ( 'NONE', #869 ) ;
#1193 = CARTESIAN_POINT ( 'NONE',  ( 32.62052589244299838, 10.19999999999999929, 8.000000000000000000 ) ) ;
#1194 = CARTESIAN_POINT ( 'NONE',  ( 37.62052589244299838, -10.19999999999999929, 21.00000000000000000 ) ) ;
#1195 = CARTESIAN_POINT ( 'NONE',  ( 32.62052589244299838, -10.19999999999999929, 21.00000000000000000 ) ) ;
#1196 = EDGE_LOOP ( 'NONE', ( #342, #116, #791, #590 ) ) ;
#1197 = DIRECTION ( 'NONE',  ( 0.000000000000000000, 0.000000000000000000, -1.000000000000000000 ) ) ;
#1198 = EDGE_CURVE ( 'NONE', #349, #888, #1148, .T. ) ;
#1199 = CARTESIAN_POINT ( 'NONE',  ( 37.62052589244299838, 14.19999999999999929, 21.00000000000000000 ) ) ;
#1200 = ORIENTED_EDGE ( 'NONE', *, *, #707, .T. ) ;
#1201 = ADVANCED_FACE ( 'NONE', ( #205 ), #7, .T. ) ;
#1202 = PERSON_AND_ORGANIZATION ( #970, #465 ) ;
#1203 = ORIENTED_EDGE ( 'NONE', *, *, #415, .F. ) ;
#1204 = VECTOR ( 'NONE', #457, 1000.000000000000000 ) ;
#1205 = DIRECTION ( 'NONE',  ( -0.000000000000000000, -1.000000000000000000, -0.000000000000000000 ) ) ;
#1206 = AXIS2_PLACEMENT_3D ( 'NONE', #1194, #723, #328 ) ;
#1207 = DIRECTION ( 'NONE',  ( 0.000000000000000000, 0.000000000000000000, -1.000000000000000000 ) ) ;
#1208 = CIRCLE ( 'NONE', #758, 2.149999999999999023 ) ;
#1209 = AXIS2_PLACEMENT_3D ( 'NONE', #185, #757, #106 ) ;
#1210 = CARTESIAN_POINT ( 'NONE',  ( 59.70000000000000284, 11.50000000000000000, 4.000000000000000000 ) ) ;
#1211 = CARTESIAN_POINT ( 'NONE',  ( 56.30000000000000426, 11.50000000000000000, 4.000000000000000000 ) ) ;
#1212 = CC_DESIGN_PERSON_AND_ORGANIZATION_ASSIGNMENT ( #89, #280, ( #1129 ) ) ;
#1213 = EDGE_LOOP ( 'NONE', ( #763, #1009, #975, #467 ) ) ;
#1214 = CARTESIAN_POINT ( 'NONE',  ( 27.00000000000000000, -11.50000000000000000, 8.000000000000000000 ) ) ;
#1215 = CARTESIAN_POINT ( 'NONE',  ( 27.00000000000000000, 11.50000000000000000, 25.99999999999999645 ) ) ;
#1216 = APPLICATION_CONTEXT ( 'configuration controlled 3d designs of mechanical parts and assemblies' ) ;
#1217 = CARTESIAN_POINT ( 'NONE',  ( 37.62052589244299838, -10.19999999999999751, 21.00000000000000000 ) ) ;
#1218 = PERSON_AND_ORGANIZATION_ROLE ( 'design_owner' ) ;
#1219 = EDGE_CURVE ( 'NONE', #732, #1012, #294, .T. ) ;
#1220 = EDGE_LOOP ( 'NONE', ( #618, #814 ) ) ;
#1221 = CARTESIAN_POINT ( 'NONE',  ( 51.82052589244400309, 14.19999999999999929, 13.00000000000000000 ) ) ;
#1222 = EDGE_CURVE ( 'NONE', #915, #765, #396, .T. ) ;
#1223 = CARTESIAN_POINT ( 'NONE',  ( 58.00000000000000000, -11.50000000000000000, 4.000000000000000000 ) ) ;
#1224 = DIRECTION ( 'NONE',  ( 0.000000000000000000, 0.000000000000000000, 1.000000000000000000 ) ) ;
#1225 = ORIENTED_EDGE ( 'NONE', *, *, #452, .F. ) ;
#1226 = CARTESIAN_POINT ( 'NONE',  ( 46.82052589244400309, 10.19999999999999929, 10.84999999999999964 ) ) ;
#1227 = DIRECTION ( 'NONE',  ( -0.000000000000000000, -0.000000000000000000, 1.000000000000000000 ) ) ;
#1228 = AXIS2_PLACEMENT_3D ( 'NONE', #769, #788, #291 ) ;
#1229 = DIRECTION ( 'NONE',  ( -0.000000000000000000, -1.000000000000000000, -0.000000000000000000 ) ) ;
#1230 = VECTOR ( 'NONE', #950, 1000.000000000000000 ) ;
#1231 = ORIENTED_EDGE ( 'NONE', *, *, #1187, .F. ) ;
#1232 = VECTOR ( 'NONE', #606, 1000.000000000000000 ) ;
#1233 = ORIENTED_EDGE ( 'NONE', *, *, #901, .F. ) ;
#1234 = LINE ( 'NONE', #949, #680 ) ;
#1235 = CARTESIAN_POINT ( 'NONE',  ( 51.82052589244400309, 10.19999999999999929, 13.00000000000000000 ) ) ;
#1236 = CARTESIAN_POINT ( 'NONE',  ( 37.62052589244299838, 14.19999999999999929, 21.00000000000000000 ) ) ;
#1237 = ORIENTED_EDGE ( 'NONE', *, *, #635, .T. ) ;
#1238 = CARTESIAN_POINT ( 'NONE',  ( 25.30000000000000071, 11.50000000000000000, 25.99999999999999645 ) ) ;
#1239 = FACE_OUTER_BOUND ( 'NONE', #330, .T. ) ;
#1240 = ADVANCED_FACE ( 'NONE', ( #1169 ), #953, .F. ) ;
#1241 = CYLINDRICAL_SURFACE ( 'NONE', #678, 2.149999999999999023 ) ;
#1242 = COORDINATED_UNIVERSAL_TIME_OFFSET ( 6, 0, .BEHIND. ) ;
#1243 = ADVANCED_FACE ( 'NONE', ( #301, #227, #276 ), #1114, .T. ) ;
#1244 = ORIENTED_EDGE ( 'NONE', *, *, #65, .F. ) ;
#1245 = CARTESIAN_POINT ( 'NONE',  ( 62.00000000000000000, 15.00000000000000000, 8.000000000000000000 ) ) ;
#1246 = CARTESIAN_POINT ( 'NONE',  ( 32.62052589244299838, -14.19999999999999929, 21.00000000000000000 ) ) ;
#1247 = CARTESIAN_POINT ( 'NONE',  ( 59.70000000000000284, -11.50000000000000000, 8.000000000000000000 ) ) ;
#1248 = COORDINATED_UNIVERSAL_TIME_OFFSET ( 6, 0, .BEHIND. ) ;
#1249 = AXIS2_PLACEMENT_3D ( 'NONE', #761, #407, #866 ) ;
#1250 = VERTEX_POINT ( 'NONE', #1211 ) ;
#1251 = AXIS2_PLACEMENT_3D ( 'NONE', #1037, #86, #469 ) ;
#1252 = AXIS2_PLACEMENT_3D ( 'NONE', #1122, #339, #728 ) ;
#1253 = ORIENTED_EDGE ( 'NONE', *, *, #415, .T. ) ;
ENDSEC;
END-ISO-10303-21;
