ISO-10303-21;
HEADER;
FILE_DESCRIPTION (( 'STEP AP203' ),
    '1' );
FILE_NAME ('HW-002_Dowel_6p35x25p4.step',
    '2026-09-07T20:55:39',
    ( '' ),
    ( '' ),
    'SwSTEP 2.0',
    'SolidWorks 2026',
    '' );
FILE_SCHEMA (( 'CONFIG_CONTROL_DESIGN' ));
ENDSEC;

DATA;
#1 = CC_DESIGN_PERSON_AND_ORGANIZATION_ASSIGNMENT ( #30, #121, ( #96 ) ) ;
#2 = DIRECTION ( 'NONE',  ( 0.000000000000000000, 0.000000000000000000, 1.000000000000000000 ) ) ;
#3 =( GEOMETRIC_REPRESENTATION_CONTEXT ( 3 ) GLOBAL_UNCERTAINTY_ASSIGNED_CONTEXT ( ( #8 ) ) GLOBAL_UNIT_ASSIGNED_CONTEXT ( ( #148, #58, #123 ) ) REPRESENTATION_CONTEXT ( 'NONE', 'WORKASPACE' ) );
#4 = APPROVAL ( #87, 'UNSPECIFIED' ) ;
#5 = APPROVAL_DATE_TIME ( #48, #4 ) ;
#6 = AXIS2_PLACEMENT_3D ( 'NONE', #18, #92, #56 ) ;
#7 = DESIGN_CONTEXT ( 'detailed design', #23, 'design' ) ;
#8 = UNCERTAINTY_MEASURE_WITH_UNIT (LENGTH_MEASURE( 1.000000000000000082E-05 ), #148, 'distance_accuracy_value', 'NONE');
#9 = APPROVAL ( #80, 'UNSPECIFIED' ) ;
#10 = MANIFOLD_SOLID_BREP ( 'Dowel_length_25p4mm', #55 ) ;
#11 = CARTESIAN_POINT ( 'NONE',  ( 0.000000000000000000, 0.000000000000000000, 25.39999999999999858 ) ) ;
#12 = LOCAL_TIME ( 15, 55, 39.00000000000000000, #146 ) ;
#13 = CARTESIAN_POINT ( 'NONE',  ( 3.174999999999999822, 3.888253587292846081E-16, 0.000000000000000000 ) ) ;
#14 = VERTEX_POINT ( 'NONE', #13 ) ;
#15 = APPLICATION_PROTOCOL_DEFINITION ( 'international standard', 'config_control_design', 1994, #125 ) ;
#16 = CALENDAR_DATE ( 2026, 7, 9 ) ;
#17 = CARTESIAN_POINT ( 'NONE',  ( -3.174999999999999822, 0.000000000000000000, 25.39999999999999858 ) ) ;
#18 = CARTESIAN_POINT ( 'NONE',  ( 0.000000000000000000, 0.000000000000000000, 25.39999999999999858 ) ) ;
#19 = DATE_AND_TIME ( #16, #12 ) ;
#20 = ORGANIZATION ( 'UNSPECIFIED', 'UNSPECIFIED', '' ) ;
#21 = FACE_OUTER_BOUND ( 'NONE', #78, .T. ) ;
#22 = VERTEX_POINT ( 'NONE', #114 ) ;
#23 = APPLICATION_CONTEXT ( 'configuration controlled 3d designs of mechanical parts and assemblies' ) ;
#24 = DIRECTION ( 'NONE',  ( -0.000000000000000000, -0.000000000000000000, -1.000000000000000000 ) ) ;
#25 = CC_DESIGN_APPROVAL ( #37, ( #96 ) ) ;
#26 = DIRECTION ( 'NONE',  ( 0.000000000000000000, 0.000000000000000000, 1.000000000000000000 ) ) ;
#27 = CARTESIAN_POINT ( 'NONE',  ( 0.000000000000000000, 0.000000000000000000, 25.39999999999999858 ) ) ;
#28 = DATE_TIME_ROLE ( 'creation_date' ) ;
#29 = PERSON_AND_ORGANIZATION ( #134, #20 ) ;
#30 = PERSON_AND_ORGANIZATION ( #134, #20 ) ;
#31 = CALENDAR_DATE ( 2026, 7, 9 ) ;
#32 = ORIENTED_EDGE ( 'NONE', *, *, #100, .T. ) ;
#33 = ADVANCED_BREP_SHAPE_REPRESENTATION ( 'HW-002_Dowel_6p35x25p4', ( #10, #73 ), #3 ) ;
#34 = CARTESIAN_POINT ( 'NONE',  ( 0.000000000000000000, 0.000000000000000000, 0.000000000000000000 ) ) ;
#35 = AXIS2_PLACEMENT_3D ( 'NONE', #11, #142, #39 ) ;
#36 = EDGE_LOOP ( 'NONE', ( #154, #104 ) ) ;
#37 = APPROVAL ( #70, 'UNSPECIFIED' ) ;
#38 = CARTESIAN_POINT ( 'NONE',  ( -3.174999999999999822, 0.000000000000000000, 25.39999999999999858 ) ) ;
#39 = DIRECTION ( 'NONE',  ( -1.000000000000000000, 0.000000000000000000, 0.000000000000000000 ) ) ;
#40 = DIRECTION ( 'NONE',  ( 1.000000000000000000, 0.000000000000000000, 0.000000000000000000 ) ) ;
#41 = ADVANCED_FACE ( 'NONE', ( #21 ), #168, .T. ) ;
#42 = SECURITY_CLASSIFICATION ( '', '', #94 ) ;
#43 = PERSON_AND_ORGANIZATION_ROLE ( 'design_supplier' ) ;
#44 = FACE_OUTER_BOUND ( 'NONE', #36, .T. ) ;
#45 = COORDINATED_UNIVERSAL_TIME_OFFSET ( 6, 0, .BEHIND. ) ;
#46 = CIRCLE ( 'NONE', #127, 3.174999999999999822 ) ;
#47 = PRODUCT_RELATED_PRODUCT_CATEGORY ( 'detail', '', ( #79 ) ) ;
#48 = DATE_AND_TIME ( #31, #116 ) ;
#49 = DIRECTION ( 'NONE',  ( 1.000000000000000000, 0.000000000000000000, 0.000000000000000000 ) ) ;
#50 = CARTESIAN_POINT ( 'NONE',  ( 0.000000000000000000, 0.000000000000000000, 25.39999999999999858 ) ) ;
#51 = VERTEX_POINT ( 'NONE', #53 ) ;
#52 = DIRECTION ( 'NONE',  ( 0.000000000000000000, 0.000000000000000000, 1.000000000000000000 ) ) ;
#53 = CARTESIAN_POINT ( 'NONE',  ( 3.174999999999999822, 3.888253587292846081E-16, 25.39999999999999858 ) ) ;
#54 = DATE_AND_TIME ( #57, #131 ) ;
#55 = CLOSED_SHELL ( 'NONE', ( #41, #113, #164, #83 ) ) ;
#56 = DIRECTION ( 'NONE',  ( 1.000000000000000000, 0.000000000000000000, -0.000000000000000000 ) ) ;
#57 = CALENDAR_DATE ( 2026, 7, 9 ) ;
#58 =( NAMED_UNIT ( * ) PLANE_ANGLE_UNIT ( ) SI_UNIT ( $, .RADIAN. ) );
#59 = DATE_TIME_ROLE ( 'classification_date' ) ;
#60 = AXIS2_PLACEMENT_3D ( 'NONE', #117, #52, #103 ) ;
#61 = ORIENTED_EDGE ( 'NONE', *, *, #63, .F. ) ;
#62 = DIRECTION ( 'NONE',  ( 0.000000000000000000, 0.000000000000000000, 1.000000000000000000 ) ) ;
#63 = EDGE_CURVE ( 'NONE', #135, #51, #46, .T. ) ;
#64 = CC_DESIGN_APPROVAL ( #4, ( #42 ) ) ;
#65 = ORIENTED_EDGE ( 'NONE', *, *, #162, .F. ) ;
#66 = CC_DESIGN_DATE_AND_TIME_ASSIGNMENT ( #19, #28, ( #96 ) ) ;
#67 = ORIENTED_EDGE ( 'NONE', *, *, #132, .T. ) ;
#68 = DIRECTION ( 'NONE',  ( 1.000000000000000000, 0.000000000000000000, 0.000000000000000000 ) ) ;
#69 = CIRCLE ( 'NONE', #119, 3.174999999999999822 ) ;
#70 = APPROVAL_STATUS ( 'not_yet_approved' ) ;
#71 = CC_DESIGN_DATE_AND_TIME_ASSIGNMENT ( #126, #59, ( #42 ) ) ;
#72 = DIRECTION ( 'NONE',  ( 0.000000000000000000, 0.000000000000000000, 1.000000000000000000 ) ) ;
#73 = AXIS2_PLACEMENT_3D ( 'NONE', #139, #2, #40 ) ;
#74 = AXIS2_PLACEMENT_3D ( 'NONE', #34, #89, #75 ) ;
#75 = DIRECTION ( 'NONE',  ( 1.000000000000000000, 0.000000000000000000, -0.000000000000000000 ) ) ;
#76 = LINE ( 'NONE', #171, #97 ) ;
#77 = APPROVAL_PERSON_ORGANIZATION ( #106, #37, #138 ) ;
#78 = EDGE_LOOP ( 'NONE', ( #65, #128, #67, #129 ) ) ;
#79 = PRODUCT ( 'HW-002_Dowel_6p35x25p4', 'HW-002_Dowel_6p35x25p4', '', ( #93 ) ) ;
#80 = APPROVAL_STATUS ( 'not_yet_approved' ) ;
#81 = CIRCLE ( 'NONE', #166, 3.174999999999999822 ) ;
#82 = PERSON_AND_ORGANIZATION_ROLE ( 'classification_officer' ) ;
#83 = ADVANCED_FACE ( 'NONE', ( #99 ), #101, .F. ) ;
#84 = DATE_AND_TIME ( #150, #98 ) ;
#85 = PERSON_AND_ORGANIZATION ( #134, #20 ) ;
#86 = PRODUCT_DEFINITION_FORMATION_WITH_SPECIFIED_SOURCE ( 'ANY', '', #79, .NOT_KNOWN. ) ;
#87 = APPROVAL_STATUS ( 'not_yet_approved' ) ;
#88 = CC_DESIGN_PERSON_AND_ORGANIZATION_ASSIGNMENT ( #95, #174, ( #79 ) ) ;
#89 = DIRECTION ( 'NONE',  ( 0.000000000000000000, 0.000000000000000000, 1.000000000000000000 ) ) ;
#90 = CYLINDRICAL_SURFACE ( 'NONE', #111, 3.174999999999999822 ) ;
#91 = LINE ( 'NONE', #17, #155 ) ;
#92 = DIRECTION ( 'NONE',  ( 0.000000000000000000, 0.000000000000000000, 1.000000000000000000 ) ) ;
#93 = MECHANICAL_CONTEXT ( 'NONE', #125, 'mechanical' ) ;
#94 = SECURITY_CLASSIFICATION_LEVEL ( 'unclassified' ) ;
#95 = PERSON_AND_ORGANIZATION ( #134, #20 ) ;
#96 = PRODUCT_DEFINITION ( 'UNKNOWN', '', #86, #7 ) ;
#97 = VECTOR ( 'NONE', #102, 1000.000000000000000 ) ;
#98 = LOCAL_TIME ( 15, 55, 39.00000000000000000, #45 ) ;
#99 = FACE_OUTER_BOUND ( 'NONE', #144, .T. ) ;
#100 = EDGE_CURVE ( 'NONE', #22, #14, #69, .T. ) ;
#101 = PLANE ( 'NONE',  #74 ) ;
#102 = DIRECTION ( 'NONE',  ( -0.000000000000000000, -0.000000000000000000, -1.000000000000000000 ) ) ;
#103 = DIRECTION ( 'NONE',  ( 1.000000000000000000, 0.000000000000000000, 0.000000000000000000 ) ) ;
#104 = ORIENTED_EDGE ( 'NONE', *, *, #162, .T. ) ;
#105 = APPLICATION_PROTOCOL_DEFINITION ( 'international standard', 'config_control_design', 1994, #23 ) ;
#106 = PERSON_AND_ORGANIZATION ( #134, #20 ) ;
#107 = EDGE_CURVE ( 'NONE', #51, #14, #76, .T. ) ;
#108 = APPROVAL_DATE_TIME ( #54, #9 ) ;
#109 = APPROVAL_PERSON_ORGANIZATION ( #120, #9, #110 ) ;
#110 = APPROVAL_ROLE ( '' ) ;
#111 = AXIS2_PLACEMENT_3D ( 'NONE', #143, #24, #130 ) ;
#112 = CALENDAR_DATE ( 2026, 7, 9 ) ;
#113 = ADVANCED_FACE ( 'NONE', ( #156 ), #90, .T. ) ;
#114 = CARTESIAN_POINT ( 'NONE',  ( -3.174999999999999822, 0.000000000000000000, 0.000000000000000000 ) ) ;
#115 = DIRECTION ( 'NONE',  ( 1.000000000000000000, 0.000000000000000000, 0.000000000000000000 ) ) ;
#116 = LOCAL_TIME ( 15, 55, 39.00000000000000000, #124 ) ;
#117 = CARTESIAN_POINT ( 'NONE',  ( 0.000000000000000000, 0.000000000000000000, 0.000000000000000000 ) ) ;
#118 = ORIENTED_EDGE ( 'NONE', *, *, #107, .F. ) ;
#119 = AXIS2_PLACEMENT_3D ( 'NONE', #133, #62, #115 ) ;
#120 = PERSON_AND_ORGANIZATION ( #134, #20 ) ;
#121 = PERSON_AND_ORGANIZATION_ROLE ( 'creator' ) ;
#122 = LOCAL_TIME ( 15, 55, 39.00000000000000000, #149 ) ;
#123 =( NAMED_UNIT ( * ) SI_UNIT ( $, .STERADIAN. ) SOLID_ANGLE_UNIT ( ) );
#124 = COORDINATED_UNIVERSAL_TIME_OFFSET ( 6, 0, .BEHIND. ) ;
#125 = APPLICATION_CONTEXT ( 'configuration controlled 3d designs of mechanical parts and assemblies' ) ;
#126 = DATE_AND_TIME ( #112, #122 ) ;
#127 = AXIS2_PLACEMENT_3D ( 'NONE', #50, #26, #49 ) ;
#128 = ORIENTED_EDGE ( 'NONE', *, *, #107, .T. ) ;
#129 = ORIENTED_EDGE ( 'NONE', *, *, #145, .F. ) ;
#130 = DIRECTION ( 'NONE',  ( -1.000000000000000000, 0.000000000000000000, 0.000000000000000000 ) ) ;
#131 = LOCAL_TIME ( 15, 55, 39.00000000000000000, #175 ) ;
#132 = EDGE_CURVE ( 'NONE', #14, #22, #137, .T. ) ;
#133 = CARTESIAN_POINT ( 'NONE',  ( 0.000000000000000000, 0.000000000000000000, 0.000000000000000000 ) ) ;
#134 = PERSON ( 'UNSPECIFIED', 'UNSPECIFIED', 'UNSPECIFIED', ('UNSPECIFIED'), ('UNSPECIFIED'), ('UNSPECIFIED') ) ;
#135 = VERTEX_POINT ( 'NONE', #38 ) ;
#136 = CC_DESIGN_PERSON_AND_ORGANIZATION_ASSIGNMENT ( #161, #43, ( #86 ) ) ;
#137 = CIRCLE ( 'NONE', #60, 3.174999999999999822 ) ;
#138 = APPROVAL_ROLE ( '' ) ;
#139 = CARTESIAN_POINT ( 'NONE',  ( 0.000000000000000000, 0.000000000000000000, 0.000000000000000000 ) ) ;
#140 = CC_DESIGN_SECURITY_CLASSIFICATION ( #42, ( #86 ) ) ;
#141 = APPROVAL_ROLE ( '' ) ;
#142 = DIRECTION ( 'NONE',  ( -0.000000000000000000, -0.000000000000000000, -1.000000000000000000 ) ) ;
#143 = CARTESIAN_POINT ( 'NONE',  ( 0.000000000000000000, 0.000000000000000000, 25.39999999999999858 ) ) ;
#144 = EDGE_LOOP ( 'NONE', ( #158, #172 ) ) ;
#145 = EDGE_CURVE ( 'NONE', #135, #22, #91, .T. ) ;
#146 = COORDINATED_UNIVERSAL_TIME_OFFSET ( 6, 0, .BEHIND. ) ;
#147 = CC_DESIGN_APPROVAL ( #9, ( #86 ) ) ;
#148 =( LENGTH_UNIT ( ) NAMED_UNIT ( * ) SI_UNIT ( .MILLI., .METRE. ) );
#149 = COORDINATED_UNIVERSAL_TIME_OFFSET ( 6, 0, .BEHIND. ) ;
#150 = CALENDAR_DATE ( 2026, 7, 9 ) ;
#151 = CC_DESIGN_PERSON_AND_ORGANIZATION_ASSIGNMENT ( #85, #173, ( #86 ) ) ;
#152 = PERSON_AND_ORGANIZATION ( #134, #20 ) ;
#153 = EDGE_LOOP ( 'NONE', ( #118, #61, #157, #32 ) ) ;
#154 = ORIENTED_EDGE ( 'NONE', *, *, #63, .T. ) ;
#155 = VECTOR ( 'NONE', #163, 1000.000000000000000 ) ;
#156 = FACE_OUTER_BOUND ( 'NONE', #153, .T. ) ;
#157 = ORIENTED_EDGE ( 'NONE', *, *, #145, .T. ) ;
#158 = ORIENTED_EDGE ( 'NONE', *, *, #100, .F. ) ;
#159 = PLANE ( 'NONE',  #6 ) ;
#160 = APPROVAL_DATE_TIME ( #84, #37 ) ;
#161 = PERSON_AND_ORGANIZATION ( #134, #20 ) ;
#162 = EDGE_CURVE ( 'NONE', #51, #135, #81, .T. ) ;
#163 = DIRECTION ( 'NONE',  ( -0.000000000000000000, -0.000000000000000000, -1.000000000000000000 ) ) ;
#164 = ADVANCED_FACE ( 'NONE', ( #44 ), #159, .T. ) ;
#165 = SHAPE_DEFINITION_REPRESENTATION ( #167, #33 ) ;
#166 = AXIS2_PLACEMENT_3D ( 'NONE', #27, #72, #68 ) ;
#167 = PRODUCT_DEFINITION_SHAPE ( 'NONE', 'NONE',  #96 ) ;
#168 = CYLINDRICAL_SURFACE ( 'NONE', #35, 3.174999999999999822 ) ;
#169 = CC_DESIGN_PERSON_AND_ORGANIZATION_ASSIGNMENT ( #29, #82, ( #42 ) ) ;
#170 = APPROVAL_PERSON_ORGANIZATION ( #152, #4, #141 ) ;
#171 = CARTESIAN_POINT ( 'NONE',  ( 3.174999999999999822, 3.888253587292846081E-16, 25.39999999999999858 ) ) ;
#172 = ORIENTED_EDGE ( 'NONE', *, *, #132, .F. ) ;
#173 = PERSON_AND_ORGANIZATION_ROLE ( 'creator' ) ;
#174 = PERSON_AND_ORGANIZATION_ROLE ( 'design_owner' ) ;
#175 = COORDINATED_UNIVERSAL_TIME_OFFSET ( 6, 0, .BEHIND. ) ;
ENDSEC;
END-ISO-10303-21;
