ISO-10303-21;
HEADER;
FILE_DESCRIPTION (( 'STEP AP203' ),
    '1' );
FILE_NAME ('HW-006_MG996_stock_horn_ENVELOPE.step',
    '2026-09-08T03:29:52',
    ( '' ),
    ( '' ),
    'SwSTEP 2.0',
    'SolidWorks 2026',
    '' );
FILE_SCHEMA (( 'CONFIG_CONTROL_DESIGN' ));
ENDSEC;

DATA;
#1 = VERTEX_POINT ( 'NONE', #186 ) ;
#2 = CARTESIAN_POINT ( 'NONE',  ( -8.400000000000000355, 1.959434878635765970E-16, 3.000000000000002665 ) ) ;
#3 = CIRCLE ( 'NONE', #129, 4.500000000000000000 ) ;
#4 = CARTESIAN_POINT ( 'NONE',  ( 0.000000000000000000, 0.000000000000000000, -4.000000000000000000 ) ) ;
#5 = ORIENTED_EDGE ( 'NONE', *, *, #315, .F. ) ;
#6 = CYLINDRICAL_SURFACE ( 'NONE', #184, 1.600000000000000755 ) ;
#7 = AXIS2_PLACEMENT_3D ( 'NONE', #435, #524, #232 ) ;
#8 = ADVANCED_FACE ( 'NONE', ( #144 ), #287, .F. ) ;
#9 = LINE ( 'NONE', #493, #185 ) ;
#10 = AXIS2_PLACEMENT_3D ( 'NONE', #299, #489, #200 ) ;
#11 = PLANE ( 'NONE',  #246 ) ;
#12 =( GEOMETRIC_REPRESENTATION_CONTEXT ( 3 ) GLOBAL_UNCERTAINTY_ASSIGNED_CONTEXT ( ( #196 ) ) GLOBAL_UNIT_ASSIGNED_CONTEXT ( ( #451, #118, #596 ) ) REPRESENTATION_CONTEXT ( 'NONE', 'WORKASPACE' ) );
#13 = PRODUCT_DEFINITION ( 'UNKNOWN', '', #298, #462 ) ;
#14 = EDGE_CURVE ( 'NONE', #240, #211, #536, .T. ) ;
#15 = FACE_OUTER_BOUND ( 'NONE', #441, .T. ) ;
#16 = ORIENTED_EDGE ( 'NONE', *, *, #430, .T. ) ;
#17 = DIRECTION ( 'NONE',  ( 1.000000000000000000, 0.000000000000000000, 0.000000000000000000 ) ) ;
#18 = AXIS2_PLACEMENT_3D ( 'NONE', #27, #502, #255 ) ;
#19 = CYLINDRICAL_SURFACE ( 'NONE', #201, 1.600000000000000089 ) ;
#20 = CIRCLE ( 'NONE', #456, 1.600000000000000089 ) ;
#21 = LOCAL_TIME ( 22, 29, 52.00000000000000000, #522 ) ;
#22 = EDGE_LOOP ( 'NONE', ( #595, #553, #316, #372 ) ) ;
#23 = DIRECTION ( 'NONE',  ( 0.000000000000000000, 0.000000000000000000, 1.000000000000000000 ) ) ;
#24 = FACE_BOUND ( 'NONE', #138, .T. ) ;
#25 = AXIS2_PLACEMENT_3D ( 'NONE', #107, #306, #498 ) ;
#26 = EDGE_LOOP ( 'NONE', ( #432, #515 ) ) ;
#27 = CARTESIAN_POINT ( 'NONE',  ( 0.000000000000000000, 0.000000000000000000, 0.000000000000000000 ) ) ;
#28 = FACE_OUTER_BOUND ( 'NONE', #163, .T. ) ;
#29 = EDGE_CURVE ( 'NONE', #393, #31, #269, .T. ) ;
#30 = AXIS2_PLACEMENT_3D ( 'NONE', #353, #161, #551 ) ;
#31 = VERTEX_POINT ( 'NONE', #135 ) ;
#32 = PERSON_AND_ORGANIZATION ( #537, #397 ) ;
#33 = DIRECTION ( 'NONE',  ( -0.000000000000000000, -0.000000000000000000, -1.000000000000000000 ) ) ;
#34 = ORIENTED_EDGE ( 'NONE', *, *, #345, .F. ) ;
#35 = CARTESIAN_POINT ( 'NONE',  ( -8.400000000000000355, 1.959434878635765970E-16, 0.000000000000000000 ) ) ;
#36 = DIRECTION ( 'NONE',  ( 0.000000000000000000, 0.000000000000000000, -1.000000000000000000 ) ) ;
#37 = CALENDAR_DATE ( 2026, 7, 9 ) ;
#38 = AXIS2_PLACEMENT_3D ( 'NONE', #189, #335, #519 ) ;
#39 = CARTESIAN_POINT ( 'NONE',  ( -11.60000000000000142, 0.000000000000000000, 3.000000000000002665 ) ) ;
#40 = ORIENTED_EDGE ( 'NONE', *, *, #500, .T. ) ;
#41 = CARTESIAN_POINT ( 'NONE',  ( 0.000000000000000000, 0.000000000000000000, 0.000000000000000000 ) ) ;
#42 = CYLINDRICAL_SURFACE ( 'NONE', #38, 3.049999999999999822 ) ;
#43 = AXIS2_PLACEMENT_3D ( 'NONE', #60, #254, #208 ) ;
#44 = EDGE_LOOP ( 'NONE', ( #480, #134 ) ) ;
#45 = CARTESIAN_POINT ( 'NONE',  ( -11.60000000000000142, 0.000000000000000000, 3.000000000000002665 ) ) ;
#46 = DIRECTION ( 'NONE',  ( -0.000000000000000000, -0.000000000000000000, -1.000000000000000000 ) ) ;
#47 = LINE ( 'NONE', #303, #375 ) ;
#48 = EDGE_CURVE ( 'NONE', #294, #357, #50, .T. ) ;
#49 = ORIENTED_EDGE ( 'NONE', *, *, #386, .T. ) ;
#50 = LINE ( 'NONE', #442, #385 ) ;
#51 = DIRECTION ( 'NONE',  ( 1.000000000000000000, 0.000000000000000000, 0.000000000000000000 ) ) ;
#52 = ORIENTED_EDGE ( 'NONE', *, *, #436, .F. ) ;
#53 = AXIS2_PLACEMENT_3D ( 'NONE', #198, #205, #103 ) ;
#54 = CARTESIAN_POINT ( 'NONE',  ( 0.000000000000000000, 10.00000000000000000, 0.000000000000000000 ) ) ;
#55 = DIRECTION ( 'NONE',  ( -0.000000000000000000, -0.000000000000000000, -1.000000000000000000 ) ) ;
#56 = AXIS2_PLACEMENT_3D ( 'NONE', #431, #320, #475 ) ;
#57 = DIRECTION ( 'NONE',  ( 0.000000000000000000, 0.000000000000000000, 1.000000000000000000 ) ) ;
#58 = CIRCLE ( 'NONE', #169, 13.00000000000000000 ) ;
#59 = EDGE_CURVE ( 'NONE', #167, #130, #73, .T. ) ;
#60 = CARTESIAN_POINT ( 'NONE',  ( 0.000000000000000000, 0.000000000000000000, -4.000000000000000000 ) ) ;
#61 = CARTESIAN_POINT ( 'NONE',  ( 0.000000000000000000, 0.000000000000000000, 3.000000000000000000 ) ) ;
#62 = EDGE_CURVE ( 'NONE', #360, #525, #140, .T. ) ;
#63 = PERSON_AND_ORGANIZATION ( #537, #397 ) ;
#64 = DIRECTION ( 'NONE',  ( 0.000000000000000000, 0.000000000000000000, -1.000000000000000000 ) ) ;
#65 = VERTEX_POINT ( 'NONE', #388 ) ;
#66 = CARTESIAN_POINT ( 'NONE',  ( 4.500000000000000000, 5.510910596163088569E-16, -4.000000000000000000 ) ) ;
#67 = ORIENTED_EDGE ( 'NONE', *, *, #472, .T. ) ;
#68 = FACE_OUTER_BOUND ( 'NONE', #85, .T. ) ;
#69 = FACE_BOUND ( 'NONE', #44, .T. ) ;
#70 = ORIENTED_EDGE ( 'NONE', *, *, #311, .F. ) ;
#71 = CALENDAR_DATE ( 2026, 7, 9 ) ;
#72 = PLANE ( 'NONE',  #30 ) ;
#73 = CIRCLE ( 'NONE', #440, 1.600000000000000089 ) ;
#74 = EDGE_LOOP ( 'NONE', ( #530, #244 ) ) ;
#75 = EDGE_CURVE ( 'NONE', #31, #393, #448, .T. ) ;
#76 = DIRECTION ( 'NONE',  ( 1.000000000000000000, 0.000000000000000000, 0.000000000000000000 ) ) ;
#77 = EDGE_LOOP ( 'NONE', ( #427, #199, #343, #610 ) ) ;
#78 = DATE_AND_TIME ( #317, #459 ) ;
#79 = DIRECTION ( 'NONE',  ( 0.000000000000000000, 0.000000000000000000, -1.000000000000000000 ) ) ;
#80 = ORIENTED_EDGE ( 'NONE', *, *, #90, .F. ) ;
#81 = DIRECTION ( 'NONE',  ( -0.000000000000000000, -0.000000000000000000, -1.000000000000000000 ) ) ;
#82 = APPROVAL_STATUS ( 'not_yet_approved' ) ;
#83 = FACE_OUTER_BOUND ( 'NONE', #486, .T. ) ;
#84 = EDGE_CURVE ( 'NONE', #387, #366, #58, .T. ) ;
#85 = EDGE_LOOP ( 'NONE', ( #379, #181, #263, #465 ) ) ;
#86 = ORIENTED_EDGE ( 'NONE', *, *, #155, .F. ) ;
#87 = FACE_OUTER_BOUND ( 'NONE', #565, .T. ) ;
#88 = ORIENTED_EDGE ( 'NONE', *, *, #234, .F. ) ;
#89 = DIRECTION ( 'NONE',  ( 0.000000000000000000, 0.000000000000000000, -1.000000000000000000 ) ) ;
#90 = EDGE_CURVE ( 'NONE', #65, #266, #220, .T. ) ;
#91 = CARTESIAN_POINT ( 'NONE',  ( 0.000000000000000000, -10.00000000000000000, 0.000000000000000000 ) ) ;
#92 = ORIENTED_EDGE ( 'NONE', *, *, #382, .F. ) ;
#93 = LINE ( 'NONE', #391, #523 ) ;
#94 = CYLINDRICAL_SURFACE ( 'NONE', #514, 1.600000000000000089 ) ;
#95 = CARTESIAN_POINT ( 'NONE',  ( 8.400000000000000355, 0.000000000000000000, 0.000000000000000000 ) ) ;
#96 = EDGE_CURVE ( 'NONE', #360, #31, #93, .T. ) ;
#97 = CIRCLE ( 'NONE', #296, 1.600000000000000755 ) ;
#98 = VERTEX_POINT ( 'NONE', #2 ) ;
#99 = CIRCLE ( 'NONE', #53, 1.600000000000000089 ) ;
#100 = DIRECTION ( 'NONE',  ( -1.000000000000000000, 0.000000000000000000, 0.000000000000000000 ) ) ;
#101 = CC_DESIGN_SECURITY_CLASSIFICATION ( #262, ( #298 ) ) ;
#102 = DIRECTION ( 'NONE',  ( 0.000000000000000000, 0.000000000000000000, -1.000000000000000000 ) ) ;
#103 = DIRECTION ( 'NONE',  ( 1.000000000000000000, 0.000000000000000000, 0.000000000000000000 ) ) ;
#104 = AXIS2_PLACEMENT_3D ( 'NONE', #147, #338, #329 ) ;
#105 = EDGE_CURVE ( 'NONE', #266, #504, #584, .T. ) ;
#106 = DIRECTION ( 'NONE',  ( 0.000000000000000000, 0.000000000000000000, 1.000000000000000000 ) ) ;
#107 = CARTESIAN_POINT ( 'NONE',  ( 0.000000000000000000, 0.000000000000000000, -4.000000000000000000 ) ) ;
#108 = APPLICATION_PROTOCOL_DEFINITION ( 'international standard', 'config_control_design', 1994, #481 ) ;
#109 = FACE_OUTER_BOUND ( 'NONE', #114, .T. ) ;
#110 = ORIENTED_EDGE ( 'NONE', *, *, #512, .F. ) ;
#111 = CARTESIAN_POINT ( 'NONE',  ( 0.000000000000000000, -10.00000000000000000, 3.000000000000002665 ) ) ;
#112 = CARTESIAN_POINT ( 'NONE',  ( 0.000000000000000000, 0.000000000000000000, 3.000000000000000000 ) ) ;
#113 = EDGE_CURVE ( 'NONE', #229, #387, #569, .T. ) ;
#114 = EDGE_LOOP ( 'NONE', ( #179, #40, #221, #437 ) ) ;
#115 = DIRECTION ( 'NONE',  ( -0.000000000000000000, -0.000000000000000000, -1.000000000000000000 ) ) ;
#116 = LOCAL_TIME ( 22, 29, 52.00000000000000000, #511 ) ;
#117 = VERTEX_POINT ( 'NONE', #518 ) ;
#118 =( NAMED_UNIT ( * ) PLANE_ANGLE_UNIT ( ) SI_UNIT ( $, .RADIAN. ) );
#119 = CARTESIAN_POINT ( 'NONE',  ( 4.500000000000000000, 5.510910596163088569E-16, 0.000000000000000000 ) ) ;
#120 = APPROVAL ( #256, 'UNSPECIFIED' ) ;
#121 = APPROVAL ( #82, 'UNSPECIFIED' ) ;
#122 = ORIENTED_EDGE ( 'NONE', *, *, #611, .F. ) ;
#123 = PERSON_AND_ORGANIZATION_ROLE ( 'creator' ) ;
#124 = CARTESIAN_POINT ( 'NONE',  ( -3.049999999999999822, 0.000000000000000000, -4.000000000000000000 ) ) ;
#125 = EDGE_LOOP ( 'NONE', ( #80, #110 ) ) ;
#126 = DATE_AND_TIME ( #425, #325 ) ;
#127 = DIRECTION ( 'NONE',  ( 0.000000000000000000, 0.000000000000000000, 1.000000000000000000 ) ) ;
#128 = ADVANCED_BREP_SHAPE_REPRESENTATION ( 'HW-006_MG996_stock_horn_ENVELOPE', ( #377, #174 ), #12 ) ;
#129 = AXIS2_PLACEMENT_3D ( 'NONE', #145, #57, #339 ) ;
#130 = VERTEX_POINT ( 'NONE', #428 ) ;
#131 = CARTESIAN_POINT ( 'NONE',  ( -10.00000000000000000, 0.000000000000000000, 0.000000000000000000 ) ) ;
#132 = SECURITY_CLASSIFICATION_LEVEL ( 'unclassified' ) ;
#133 = CARTESIAN_POINT ( 'NONE',  ( 0.000000000000000000, -10.00000000000000000, 3.000000000000002665 ) ) ;
#134 = ORIENTED_EDGE ( 'NONE', *, *, #545, .F. ) ;
#135 = CARTESIAN_POINT ( 'NONE',  ( 11.60000000000000142, 1.959434878635765970E-16, 0.000000000000000000 ) ) ;
#136 = VECTOR ( 'NONE', #137, 1000.000000000000000 ) ;
#137 = DIRECTION ( 'NONE',  ( -0.000000000000000000, -0.000000000000000000, -1.000000000000000000 ) ) ;
#138 = EDGE_LOOP ( 'NONE', ( #194, #409 ) ) ;
#139 = ADVANCED_FACE ( 'NONE', ( #616 ), #318, .T. ) ;
#140 = CIRCLE ( 'NONE', #104, 1.600000000000000755 ) ;
#141 = DIRECTION ( 'NONE',  ( -1.000000000000000000, 0.000000000000000000, 0.000000000000000000 ) ) ;
#142 = LINE ( 'NONE', #45, #307 ) ;
#143 = ORIENTED_EDGE ( 'NONE', *, *, #561, .F. ) ;
#144 = FACE_OUTER_BOUND ( 'NONE', #77, .T. ) ;
#145 = CARTESIAN_POINT ( 'NONE',  ( 0.000000000000000000, 0.000000000000000000, 0.000000000000000000 ) ) ;
#146 = ORIENTED_EDGE ( 'NONE', *, *, #113, .T. ) ;
#147 = CARTESIAN_POINT ( 'NONE',  ( 10.00000000000000000, 0.000000000000000000, 3.000000000000002665 ) ) ;
#148 = ADVANCED_FACE ( 'NONE', ( #69, #24, #600, #556, #407, #217 ), #560, .T. ) ;
#149 = DIRECTION ( 'NONE',  ( 0.000000000000000000, 0.000000000000000000, 1.000000000000000000 ) ) ;
#150 = EDGE_LOOP ( 'NONE', ( #238, #562 ) ) ;
#151 = CARTESIAN_POINT ( 'NONE',  ( -4.500000000000000000, 0.000000000000000000, -4.000000000000000000 ) ) ;
#152 = AXIS2_PLACEMENT_3D ( 'NONE', #261, #505, #458 ) ;
#153 = DIRECTION ( 'NONE',  ( 0.000000000000000000, 0.000000000000000000, -1.000000000000000000 ) ) ;
#154 = APPROVAL_PERSON_ORGANIZATION ( #374, #121, #429 ) ;
#155 = EDGE_CURVE ( 'NONE', #282, #535, #468, .T. ) ;
#156 = DIRECTION ( 'NONE',  ( -0.000000000000000000, -0.000000000000000000, -1.000000000000000000 ) ) ;
#157 = ADVANCED_FACE ( 'NONE', ( #506, #362, #265, #463, #209, #28 ), #72, .F. ) ;
#158 = CARTESIAN_POINT ( 'NONE',  ( 0.000000000000000000, 0.000000000000000000, 0.000000000000000000 ) ) ;
#159 = AXIS2_PLACEMENT_3D ( 'NONE', #438, #622, #433 ) ;
#160 = VECTOR ( 'NONE', #449, 1000.000000000000000 ) ;
#161 = DIRECTION ( 'NONE',  ( 0.000000000000000000, 0.000000000000000000, 1.000000000000000000 ) ) ;
#162 = CC_DESIGN_DATE_AND_TIME_ASSIGNMENT ( #470, #267, ( #262 ) ) ;
#163 = EDGE_LOOP ( 'NONE', ( #445, #469 ) ) ;
#164 = DIRECTION ( 'NONE',  ( 0.000000000000000000, 0.000000000000000000, 1.000000000000000000 ) ) ;
#165 = EDGE_CURVE ( 'NONE', #229, #390, #467, .T. ) ;
#166 = CIRCLE ( 'NONE', #56, 1.600000000000000755 ) ;
#167 = VERTEX_POINT ( 'NONE', #172 ) ;
#168 = CARTESIAN_POINT ( 'NONE',  ( 0.000000000000000000, 0.000000000000000000, 3.000000000000000000 ) ) ;
#169 = AXIS2_PLACEMENT_3D ( 'NONE', #41, #192, #182 ) ;
#170 = ORIENTED_EDGE ( 'NONE', *, *, #394, .T. ) ;
#171 = DIRECTION ( 'NONE',  ( 0.000000000000000000, 0.000000000000000000, 1.000000000000000000 ) ) ;
#172 = CARTESIAN_POINT ( 'NONE',  ( 1.600000000000000089, -10.00000000000000000, 0.000000000000000000 ) ) ;
#173 = ADVANCED_FACE ( 'NONE', ( #109 ), #19, .F. ) ;
#174 = AXIS2_PLACEMENT_3D ( 'NONE', #158, #171, #17 ) ;
#175 = ORIENTED_EDGE ( 'NONE', *, *, #315, .T. ) ;
#176 = APPROVAL_DATE_TIME ( #434, #202 ) ;
#177 = CARTESIAN_POINT ( 'NONE',  ( 0.000000000000000000, -10.00000000000000000, 3.000000000000002665 ) ) ;
#178 = EDGE_CURVE ( 'NONE', #1, #130, #548, .T. ) ;
#179 = ORIENTED_EDGE ( 'NONE', *, *, #363, .T. ) ;
#180 = DIRECTION ( 'NONE',  ( 0.000000000000000000, 0.000000000000000000, 1.000000000000000000 ) ) ;
#181 = ORIENTED_EDGE ( 'NONE', *, *, #155, .T. ) ;
#182 = DIRECTION ( 'NONE',  ( 1.000000000000000000, 0.000000000000000000, 0.000000000000000000 ) ) ;
#183 = DIRECTION ( 'NONE',  ( 0.000000000000000000, 0.000000000000000000, -1.000000000000000000 ) ) ;
#184 = AXIS2_PLACEMENT_3D ( 'NONE', #587, #344, #100 ) ;
#185 = VECTOR ( 'NONE', #396, 1000.000000000000000 ) ;
#186 = CARTESIAN_POINT ( 'NONE',  ( -1.600000000000000089, -10.00000000000000000, 3.000000000000002665 ) ) ;
#187 = CYLINDRICAL_SURFACE ( 'NONE', #7, 13.00000000000000000 ) ;
#188 = ORIENTED_EDGE ( 'NONE', *, *, #165, .F. ) ;
#189 = CARTESIAN_POINT ( 'NONE',  ( 0.000000000000000000, 0.000000000000000000, 3.000000000000000000 ) ) ;
#190 = ORIENTED_EDGE ( 'NONE', *, *, #243, .T. ) ;
#191 = AXIS2_PLACEMENT_3D ( 'NONE', #112, #416, #602 ) ;
#192 = DIRECTION ( 'NONE',  ( 0.000000000000000000, 0.000000000000000000, 1.000000000000000000 ) ) ;
#193 = LINE ( 'NONE', #624, #354 ) ;
#194 = ORIENTED_EDGE ( 'NONE', *, *, #305, .F. ) ;
#195 = ORIENTED_EDGE ( 'NONE', *, *, #430, .F. ) ;
#196 = UNCERTAINTY_MEASURE_WITH_UNIT (LENGTH_MEASURE( 1.000000000000000082E-05 ), #451, 'distance_accuracy_value', 'NONE');
#197 = APPROVAL_PERSON_ORGANIZATION ( #605, #202, #222 ) ;
#198 = CARTESIAN_POINT ( 'NONE',  ( 0.000000000000000000, 10.00000000000000000, 0.000000000000000000 ) ) ;
#199 = ORIENTED_EDGE ( 'NONE', *, *, #62, .T. ) ;
#200 = DIRECTION ( 'NONE',  ( -1.000000000000000000, 0.000000000000000000, 0.000000000000000000 ) ) ;
#201 = AXIS2_PLACEMENT_3D ( 'NONE', #308, #64, #401 ) ;
#202 = APPROVAL ( #608, 'UNSPECIFIED' ) ;
#203 = DIRECTION ( 'NONE',  ( 1.000000000000000000, 0.000000000000000000, 0.000000000000000000 ) ) ;
#204 = AXIS2_PLACEMENT_3D ( 'NONE', #400, #164, #547 ) ;
#205 = DIRECTION ( 'NONE',  ( -0.000000000000000000, -0.000000000000000000, -1.000000000000000000 ) ) ;
#206 = CC_DESIGN_APPROVAL ( #121, ( #298 ) ) ;
#207 = EDGE_CURVE ( 'NONE', #504, #278, #520, .T. ) ;
#208 = DIRECTION ( 'NONE',  ( 1.000000000000000000, 0.000000000000000000, 0.000000000000000000 ) ) ;
#209 = FACE_BOUND ( 'NONE', #74, .T. ) ;
#210 = EDGE_CURVE ( 'NONE', #366, #387, #476, .T. ) ;
#211 = VERTEX_POINT ( 'NONE', #516 ) ;
#212 = PERSON_AND_ORGANIZATION ( #537, #397 ) ;
#213 = DIRECTION ( 'NONE',  ( 0.000000000000000000, 0.000000000000000000, -1.000000000000000000 ) ) ;
#214 = CC_DESIGN_APPROVAL ( #120, ( #13 ) ) ;
#215 = ORIENTED_EDGE ( 'NONE', *, *, #178, .T. ) ;
#216 = CARTESIAN_POINT ( 'NONE',  ( -10.00000000000000000, 0.000000000000000000, 3.000000000000002665 ) ) ;
#217 = FACE_BOUND ( 'NONE', #125, .T. ) ;
#218 = AXIS2_PLACEMENT_3D ( 'NONE', #91, #564, #513 ) ;
#219 = ORIENTED_EDGE ( 'NONE', *, *, #14, .T. ) ;
#220 = CIRCLE ( 'NONE', #578, 3.049999999999999822 ) ;
#221 = ORIENTED_EDGE ( 'NONE', *, *, #382, .T. ) ;
#222 = APPROVAL_ROLE ( '' ) ;
#223 = PRODUCT_DEFINITION_SHAPE ( 'NONE', 'NONE',  #13 ) ;
#224 = DIRECTION ( 'NONE',  ( 0.000000000000000000, 0.000000000000000000, -1.000000000000000000 ) ) ;
#225 = ADVANCED_FACE ( 'NONE', ( #485 ), #419, .F. ) ;
#226 = EDGE_LOOP ( 'NONE', ( #259, #309, #190, #67 ) ) ;
#227 = CYLINDRICAL_SURFACE ( 'NONE', #492, 1.600000000000000755 ) ;
#228 = EDGE_LOOP ( 'NONE', ( #195, #92 ) ) ;
#229 = VERTEX_POINT ( 'NONE', #579 ) ;
#230 = SHAPE_DEFINITION_REPRESENTATION ( #223, #128 ) ;
#231 = AXIS2_PLACEMENT_3D ( 'NONE', #573, #36, #141 ) ;
#232 = DIRECTION ( 'NONE',  ( -1.000000000000000000, 0.000000000000000000, 0.000000000000000000 ) ) ;
#233 = EDGE_LOOP ( 'NONE', ( #417, #270, #477, #16 ) ) ;
#234 = EDGE_CURVE ( 'NONE', #525, #393, #281, .T. ) ;
#235 = DIRECTION ( 'NONE',  ( 1.000000000000000000, 0.000000000000000000, 0.000000000000000000 ) ) ;
#236 = DIRECTION ( 'NONE',  ( 0.000000000000000000, 0.000000000000000000, -1.000000000000000000 ) ) ;
#237 = CIRCLE ( 'NONE', #152, 4.500000000000000000 ) ;
#238 = ORIENTED_EDGE ( 'NONE', *, *, #472, .F. ) ;
#239 = CARTESIAN_POINT ( 'NONE',  ( 3.049999999999999822, 3.735172737399427146E-16, 3.000000000000000000 ) ) ;
#240 = VERTEX_POINT ( 'NONE', #35 ) ;
#241 = CC_DESIGN_PERSON_AND_ORGANIZATION_ASSIGNMENT ( #212, #355, ( #527 ) ) ;
#242 = DIRECTION ( 'NONE',  ( 0.000000000000000000, 0.000000000000000000, 1.000000000000000000 ) ) ;
#243 = EDGE_CURVE ( 'NONE', #279, #211, #142, .T. ) ;
#244 = ORIENTED_EDGE ( 'NONE', *, *, #603, .T. ) ;
#245 = DIRECTION ( 'NONE',  ( 1.000000000000000000, 0.000000000000000000, 0.000000000000000000 ) ) ;
#246 = AXIS2_PLACEMENT_3D ( 'NONE', #4, #149, #398 ) ;
#247 = EDGE_LOOP ( 'NONE', ( #572, #601, #170, #321 ) ) ;
#248 = LINE ( 'NONE', #439, #160 ) ;
#249 = CARTESIAN_POINT ( 'NONE',  ( 11.60000000000000142, 1.959434878635765970E-16, 3.000000000000002665 ) ) ;
#250 = VECTOR ( 'NONE', #79, 1000.000000000000000 ) ;
#251 = VECTOR ( 'NONE', #81, 1000.000000000000000 ) ;
#252 = DIRECTION ( 'NONE',  ( -1.000000000000000000, 0.000000000000000000, 0.000000000000000000 ) ) ;
#253 = ADVANCED_FACE ( 'NONE', ( #87 ), #227, .F. ) ;
#254 = DIRECTION ( 'NONE',  ( 0.000000000000000000, 0.000000000000000000, 1.000000000000000000 ) ) ;
#255 = DIRECTION ( 'NONE',  ( -1.000000000000000000, 0.000000000000000000, 0.000000000000000000 ) ) ;
#256 = APPROVAL_STATUS ( 'not_yet_approved' ) ;
#257 = CARTESIAN_POINT ( 'NONE',  ( -1.600000000000000089, -10.00000000000000000, 3.000000000000002665 ) ) ;
#258 = VECTOR ( 'NONE', #153, 1000.000000000000000 ) ;
#259 = ORIENTED_EDGE ( 'NONE', *, *, #386, .F. ) ;
#260 = AXIS2_PLACEMENT_3D ( 'NONE', #566, #127, #324 ) ;
#261 = CARTESIAN_POINT ( 'NONE',  ( 0.000000000000000000, 0.000000000000000000, 0.000000000000000000 ) ) ;
#262 = SECURITY_CLASSIFICATION ( '', '', #132 ) ;
#263 = ORIENTED_EDGE ( 'NONE', *, *, #337, .T. ) ;
#264 = DIRECTION ( 'NONE',  ( 0.000000000000000000, 0.000000000000000000, 1.000000000000000000 ) ) ;
#265 = FACE_BOUND ( 'NONE', #604, .T. ) ;
#266 = VERTEX_POINT ( 'NONE', #239 ) ;
#267 = DATE_TIME_ROLE ( 'classification_date' ) ;
#268 = ADVANCED_FACE ( 'NONE', ( #331 ), #42, .F. ) ;
#269 = CIRCLE ( 'NONE', #623, 1.600000000000000755 ) ;
#270 = ORIENTED_EDGE ( 'NONE', *, *, #436, .T. ) ;
#271 = CARTESIAN_POINT ( 'NONE',  ( 0.000000000000000000, 0.000000000000000000, -4.000000000000000000 ) ) ;
#272 = DIRECTION ( 'NONE',  ( 1.000000000000000000, 0.000000000000000000, 0.000000000000000000 ) ) ;
#273 = APPROVAL_DATE_TIME ( #78, #120 ) ;
#274 = CARTESIAN_POINT ( 'NONE',  ( 4.500000000000000000, 5.510910596163088569E-16, 0.000000000000000000 ) ) ;
#275 = CC_DESIGN_PERSON_AND_ORGANIZATION_ASSIGNMENT ( #367, #123, ( #298 ) ) ;
#276 = ADVANCED_FACE ( 'NONE', ( #83 ), #187, .T. ) ;
#277 = AXIS2_PLACEMENT_3D ( 'NONE', #618, #224, #620 ) ;
#278 = VERTEX_POINT ( 'NONE', #124 ) ;
#279 = VERTEX_POINT ( 'NONE', #39 ) ;
#280 = DATE_AND_TIME ( #71, #21 ) ;
#281 = LINE ( 'NONE', #384, #250 ) ;
#282 = VERTEX_POINT ( 'NONE', #274 ) ;
#283 = DIRECTION ( 'NONE',  ( -0.000000000000000000, -0.000000000000000000, -1.000000000000000000 ) ) ;
#284 = DIRECTION ( 'NONE',  ( 0.000000000000000000, 0.000000000000000000, -1.000000000000000000 ) ) ;
#285 = AXIS2_PLACEMENT_3D ( 'NONE', #61, #115, #310 ) ;
#286 = EDGE_LOOP ( 'NONE', ( #607, #580, #567, #88 ) ) ;
#287 = CYLINDRICAL_SURFACE ( 'NONE', #231, 1.600000000000000755 ) ;
#288 = EDGE_CURVE ( 'NONE', #1, #507, #301, .T. ) ;
#289 = FACE_OUTER_BOUND ( 'NONE', #226, .T. ) ;
#290 = ORIENTED_EDGE ( 'NONE', *, *, #84, .T. ) ;
#291 = DIRECTION ( 'NONE',  ( 1.000000000000000000, 0.000000000000000000, 0.000000000000000000 ) ) ;
#292 = CARTESIAN_POINT ( 'NONE',  ( -1.600000000000000089, 10.00000000000000000, 0.000000000000000000 ) ) ;
#293 = ADVANCED_FACE ( 'NONE', ( #289 ), #368, .F. ) ;
#294 = VERTEX_POINT ( 'NONE', #471 ) ;
#295 = CARTESIAN_POINT ( 'NONE',  ( 13.00000000000000000, 1.592040838891559095E-15, 3.000000000000000000 ) ) ;
#296 = AXIS2_PLACEMENT_3D ( 'NONE', #216, #406, #358 ) ;
#297 = CIRCLE ( 'NONE', #347, 1.600000000000000089 ) ;
#298 = PRODUCT_DEFINITION_FORMATION_WITH_SPECIFIED_SOURCE ( 'ANY', '', #527, .NOT_KNOWN. ) ;
#299 = CARTESIAN_POINT ( 'NONE',  ( 0.000000000000000000, 0.000000000000000000, 0.000000000000000000 ) ) ;
#300 = DIRECTION ( 'NONE',  ( -1.000000000000000000, 0.000000000000000000, 0.000000000000000000 ) ) ;
#301 = CIRCLE ( 'NONE', #575, 1.600000000000000089 ) ;
#302 = VECTOR ( 'NONE', #380, 1000.000000000000000 ) ;
#303 = CARTESIAN_POINT ( 'NONE',  ( -8.400000000000000355, 1.959434878635765970E-16, 3.000000000000002665 ) ) ;
#304 = CYLINDRICAL_SURFACE ( 'NONE', #18, 4.500000000000000000 ) ;
#305 = EDGE_CURVE ( 'NONE', #525, #360, #166, .T. ) ;
#306 = DIRECTION ( 'NONE',  ( 0.000000000000000000, 0.000000000000000000, 1.000000000000000000 ) ) ;
#307 = VECTOR ( 'NONE', #236, 1000.000000000000000 ) ;
#308 = CARTESIAN_POINT ( 'NONE',  ( 0.000000000000000000, 10.00000000000000000, 3.000000000000002665 ) ) ;
#309 = ORIENTED_EDGE ( 'NONE', *, *, #545, .T. ) ;
#310 = DIRECTION ( 'NONE',  ( -1.000000000000000000, 0.000000000000000000, 0.000000000000000000 ) ) ;
#311 = EDGE_CURVE ( 'NONE', #390, #366, #574, .T. ) ;
#312 = CIRCLE ( 'NONE', #43, 3.049999999999999822 ) ;
#313 = EDGE_LOOP ( 'NONE', ( #34, #333, #452, #510 ) ) ;
#314 = CARTESIAN_POINT ( 'NONE',  ( 8.400000000000000355, 0.000000000000000000, 3.000000000000002665 ) ) ;
#315 = EDGE_CURVE ( 'NONE', #130, #167, #411, .T. ) ;
#316 = ORIENTED_EDGE ( 'NONE', *, *, #59, .T. ) ;
#317 = CALENDAR_DATE ( 2026, 7, 9 ) ;
#318 = CYLINDRICAL_SURFACE ( 'NONE', #415, 13.00000000000000000 ) ;
#319 = ORIENTED_EDGE ( 'NONE', *, *, #75, .F. ) ;
#320 = DIRECTION ( 'NONE',  ( 0.000000000000000000, 0.000000000000000000, 1.000000000000000000 ) ) ;
#321 = ORIENTED_EDGE ( 'NONE', *, *, #207, .F. ) ;
#322 = CC_DESIGN_DATE_AND_TIME_ASSIGNMENT ( #126, #330, ( #13 ) ) ;
#323 = AXIS2_PLACEMENT_3D ( 'NONE', #539, #156, #542 ) ;
#324 = DIRECTION ( 'NONE',  ( 1.000000000000000000, 0.000000000000000000, 0.000000000000000000 ) ) ;
#325 = LOCAL_TIME ( 22, 29, 52.00000000000000000, #570 ) ;
#326 = DIRECTION ( 'NONE',  ( 0.000000000000000000, 0.000000000000000000, -1.000000000000000000 ) ) ;
#327 = DIRECTION ( 'NONE',  ( 0.000000000000000000, 0.000000000000000000, -1.000000000000000000 ) ) ;
#328 = ORIENTED_EDGE ( 'NONE', *, *, #408, .T. ) ;
#329 = DIRECTION ( 'NONE',  ( 1.000000000000000000, 0.000000000000000000, 0.000000000000000000 ) ) ;
#330 = DATE_TIME_ROLE ( 'creation_date' ) ;
#331 = FACE_OUTER_BOUND ( 'NONE', #247, .T. ) ;
#332 = AXIS2_PLACEMENT_3D ( 'NONE', #168, #453, #509 ) ;
#333 = ORIENTED_EDGE ( 'NONE', *, *, #311, .T. ) ;
#334 = ORIENTED_EDGE ( 'NONE', *, *, #394, .F. ) ;
#335 = DIRECTION ( 'NONE',  ( -0.000000000000000000, -0.000000000000000000, -1.000000000000000000 ) ) ;
#336 = ORIENTED_EDGE ( 'NONE', *, *, #561, .T. ) ;
#337 = EDGE_CURVE ( 'NONE', #535, #421, #594, .T. ) ;
#338 = DIRECTION ( 'NONE',  ( 0.000000000000000000, 0.000000000000000000, 1.000000000000000000 ) ) ;
#339 = DIRECTION ( 'NONE',  ( 1.000000000000000000, 0.000000000000000000, 0.000000000000000000 ) ) ;
#340 = EDGE_LOOP ( 'NONE', ( #586, #582 ) ) ;
#341 = CARTESIAN_POINT ( 'NONE',  ( 3.049999999999999822, 3.735172737399427146E-16, 3.000000000000000000 ) ) ;
#342 = FACE_BOUND ( 'NONE', #26, .T. ) ;
#343 = ORIENTED_EDGE ( 'NONE', *, *, #234, .T. ) ;
#344 = DIRECTION ( 'NONE',  ( 0.000000000000000000, 0.000000000000000000, -1.000000000000000000 ) ) ;
#345 = EDGE_CURVE ( 'NONE', #390, #229, #568, .T. ) ;
#346 = CIRCLE ( 'NONE', #454, 1.600000000000000089 ) ;
#347 = AXIS2_PLACEMENT_3D ( 'NONE', #590, #242, #51 ) ;
#348 = CARTESIAN_POINT ( 'NONE',  ( 1.600000000000000089, 10.00000000000000000, 0.000000000000000000 ) ) ;
#349 = FACE_OUTER_BOUND ( 'NONE', #457, .T. ) ;
#350 = ADVANCED_FACE ( 'NONE', ( #613 ), #571, .F. ) ;
#351 = AXIS2_PLACEMENT_3D ( 'NONE', #131, #283, #484 ) ;
#352 = DIRECTION ( 'NONE',  ( 1.000000000000000000, 0.000000000000000000, 0.000000000000000000 ) ) ;
#353 = CARTESIAN_POINT ( 'NONE',  ( 0.000000000000000000, 0.000000000000000000, 0.000000000000000000 ) ) ;
#354 = VECTOR ( 'NONE', #581, 1000.000000000000000 ) ;
#355 = PERSON_AND_ORGANIZATION_ROLE ( 'design_owner' ) ;
#356 = APPROVAL_PERSON_ORGANIZATION ( #63, #120, #559 ) ;
#357 = VERTEX_POINT ( 'NONE', #292 ) ;
#358 = DIRECTION ( 'NONE',  ( 1.000000000000000000, 0.000000000000000000, 0.000000000000000000 ) ) ;
#359 = AXIS2_PLACEMENT_3D ( 'NONE', #609, #284, #381 ) ;
#360 = VERTEX_POINT ( 'NONE', #249 ) ;
#361 = DIRECTION ( 'NONE',  ( 1.000000000000000000, 0.000000000000000000, 0.000000000000000000 ) ) ;
#362 = FACE_BOUND ( 'NONE', #423, .T. ) ;
#363 = EDGE_CURVE ( 'NONE', #294, #555, #297, .T. ) ;
#364 = ORIENTED_EDGE ( 'NONE', *, *, #533, .T. ) ;
#365 = MECHANICAL_CONTEXT ( 'NONE', #529, 'mechanical' ) ;
#366 = VERTEX_POINT ( 'NONE', #447 ) ;
#367 = PERSON_AND_ORGANIZATION ( #537, #397 ) ;
#368 = CYLINDRICAL_SURFACE ( 'NONE', #359, 1.600000000000000755 ) ;
#369 = ORIENTED_EDGE ( 'NONE', *, *, #105, .T. ) ;
#370 = PERSON_AND_ORGANIZATION_ROLE ( 'creator' ) ;
#371 = DIRECTION ( 'NONE',  ( 1.000000000000000000, 0.000000000000000000, 0.000000000000000000 ) ) ;
#372 = ORIENTED_EDGE ( 'NONE', *, *, #178, .F. ) ;
#373 = CARTESIAN_POINT ( 'NONE',  ( 0.000000000000000000, 0.000000000000000000, 3.000000000000000000 ) ) ;
#374 = PERSON_AND_ORGANIZATION ( #537, #397 ) ;
#375 = VECTOR ( 'NONE', #102, 1000.000000000000000 ) ;
#376 = DIRECTION ( 'NONE',  ( 0.000000000000000000, 0.000000000000000000, 1.000000000000000000 ) ) ;
#377 = MANIFOLD_SOLID_BREP ( 'Nominal_horn_attachment_holes', #412 ) ;
#378 = CC_DESIGN_APPROVAL ( #202, ( #262 ) ) ;
#379 = ORIENTED_EDGE ( 'NONE', *, *, #603, .F. ) ;
#380 = DIRECTION ( 'NONE',  ( -0.000000000000000000, -0.000000000000000000, -1.000000000000000000 ) ) ;
#381 = DIRECTION ( 'NONE',  ( -1.000000000000000000, 0.000000000000000000, 0.000000000000000000 ) ) ;
#382 = EDGE_CURVE ( 'NONE', #501, #357, #20, .T. ) ;
#383 = ORIENTED_EDGE ( 'NONE', *, *, #363, .F. ) ;
#384 = CARTESIAN_POINT ( 'NONE',  ( 8.400000000000000355, 0.000000000000000000, 3.000000000000002665 ) ) ;
#385 = VECTOR ( 'NONE', #89, 1000.000000000000000 ) ;
#386 = EDGE_CURVE ( 'NONE', #98, #240, #47, .T. ) ;
#387 = VERTEX_POINT ( 'NONE', #389 ) ;
#388 = CARTESIAN_POINT ( 'NONE',  ( -3.049999999999999822, 0.000000000000000000, 3.000000000000000000 ) ) ;
#389 = CARTESIAN_POINT ( 'NONE',  ( -13.00000000000000000, 0.000000000000000000, 0.000000000000000000 ) ) ;
#390 = VERTEX_POINT ( 'NONE', #295 ) ;
#391 = CARTESIAN_POINT ( 'NONE',  ( 11.60000000000000142, 1.959434878635765970E-16, 3.000000000000002665 ) ) ;
#392 = DIRECTION ( 'NONE',  ( 0.000000000000000000, 0.000000000000000000, -1.000000000000000000 ) ) ;
#393 = VERTEX_POINT ( 'NONE', #95 ) ;
#394 = EDGE_CURVE ( 'NONE', #65, #278, #248, .T. ) ;
#395 = FACE_OUTER_BOUND ( 'NONE', #558, .T. ) ;
#396 = DIRECTION ( 'NONE',  ( 0.000000000000000000, 0.000000000000000000, -1.000000000000000000 ) ) ;
#397 = ORGANIZATION ( 'UNSPECIFIED', 'UNSPECIFIED', '' ) ;
#398 = DIRECTION ( 'NONE',  ( 1.000000000000000000, 0.000000000000000000, -0.000000000000000000 ) ) ;
#399 = CC_DESIGN_PERSON_AND_ORGANIZATION_ASSIGNMENT ( #418, #370, ( #13 ) ) ;
#400 = CARTESIAN_POINT ( 'NONE',  ( -10.00000000000000000, 0.000000000000000000, 3.000000000000002665 ) ) ;
#401 = DIRECTION ( 'NONE',  ( -1.000000000000000000, 0.000000000000000000, 0.000000000000000000 ) ) ;
#402 = EDGE_CURVE ( 'NONE', #507, #167, #9, .T. ) ;
#403 = DIRECTION ( 'NONE',  ( -0.000000000000000000, -0.000000000000000000, -1.000000000000000000 ) ) ;
#404 = AXIS2_PLACEMENT_3D ( 'NONE', #534, #487, #245 ) ;
#405 = ORIENTED_EDGE ( 'NONE', *, *, #611, .T. ) ;
#406 = DIRECTION ( 'NONE',  ( 0.000000000000000000, 0.000000000000000000, 1.000000000000000000 ) ) ;
#407 = FACE_OUTER_BOUND ( 'NONE', #340, .T. ) ;
#408 = EDGE_CURVE ( 'NONE', #117, #421, #193, .T. ) ;
#409 = ORIENTED_EDGE ( 'NONE', *, *, #62, .F. ) ;
#410 = CARTESIAN_POINT ( 'NONE',  ( 1.600000000000000089, 10.00000000000000000, 3.000000000000002665 ) ) ;
#411 = CIRCLE ( 'NONE', #218, 1.600000000000000089 ) ;
#412 = CLOSED_SHELL ( 'NONE', ( #253, #499, #350, #173, #550, #583, #139, #148, #157, #276, #268, #464, #495, #225, #455, #8, #293 ) ) ;
#413 = ORIENTED_EDGE ( 'NONE', *, *, #337, .F. ) ;
#414 = DIRECTION ( 'NONE',  ( 1.000000000000000000, 0.000000000000000000, 0.000000000000000000 ) ) ;
#415 = AXIS2_PLACEMENT_3D ( 'NONE', #592, #403, #593 ) ;
#416 = DIRECTION ( 'NONE',  ( 0.000000000000000000, 0.000000000000000000, 1.000000000000000000 ) ) ;
#417 = ORIENTED_EDGE ( 'NONE', *, *, #500, .F. ) ;
#418 = PERSON_AND_ORGANIZATION ( #537, #397 ) ;
#419 = CYLINDRICAL_SURFACE ( 'NONE', #277, 1.600000000000000089 ) ;
#420 = CC_DESIGN_PERSON_AND_ORGANIZATION_ASSIGNMENT ( #32, #508, ( #298 ) ) ;
#421 = VERTEX_POINT ( 'NONE', #151 ) ;
#422 = CARTESIAN_POINT ( 'NONE',  ( -10.00000000000000000, 0.000000000000000000, 3.000000000000002665 ) ) ;
#423 = EDGE_LOOP ( 'NONE', ( #521, #319 ) ) ;
#424 = CARTESIAN_POINT ( 'NONE',  ( 10.00000000000000000, 0.000000000000000000, 0.000000000000000000 ) ) ;
#425 = CALENDAR_DATE ( 2026, 7, 9 ) ;
#426 = DIRECTION ( 'NONE',  ( 1.000000000000000000, 0.000000000000000000, 0.000000000000000000 ) ) ;
#427 = ORIENTED_EDGE ( 'NONE', *, *, #96, .F. ) ;
#428 = CARTESIAN_POINT ( 'NONE',  ( -1.600000000000000089, -10.00000000000000000, 0.000000000000000000 ) ) ;
#429 = APPROVAL_ROLE ( '' ) ;
#430 = EDGE_CURVE ( 'NONE', #357, #501, #99, .T. ) ;
#431 = CARTESIAN_POINT ( 'NONE',  ( 10.00000000000000000, 0.000000000000000000, 3.000000000000002665 ) ) ;
#432 = ORIENTED_EDGE ( 'NONE', *, *, #625, .T. ) ;
#433 = DIRECTION ( 'NONE',  ( 1.000000000000000000, 0.000000000000000000, 0.000000000000000000 ) ) ;
#434 = DATE_AND_TIME ( #466, #549 ) ;
#435 = CARTESIAN_POINT ( 'NONE',  ( 0.000000000000000000, 0.000000000000000000, 3.000000000000000000 ) ) ;
#436 = EDGE_CURVE ( 'NONE', #555, #294, #543, .T. ) ;
#437 = ORIENTED_EDGE ( 'NONE', *, *, #48, .F. ) ;
#438 = CARTESIAN_POINT ( 'NONE',  ( 10.00000000000000000, 0.000000000000000000, 0.000000000000000000 ) ) ;
#439 = CARTESIAN_POINT ( 'NONE',  ( -3.049999999999999822, 0.000000000000000000, 3.000000000000000000 ) ) ;
#440 = AXIS2_PLACEMENT_3D ( 'NONE', #612, #46, #291 ) ;
#441 = EDGE_LOOP ( 'NONE', ( #488, #369, #621, #334 ) ) ;
#442 = CARTESIAN_POINT ( 'NONE',  ( -1.600000000000000089, 10.00000000000000000, 3.000000000000002665 ) ) ;
#443 = CARTESIAN_POINT ( 'NONE',  ( 0.000000000000000000, -10.00000000000000000, 3.000000000000002665 ) ) ;
#444 = CIRCLE ( 'NONE', #323, 1.600000000000000755 ) ;
#445 = ORIENTED_EDGE ( 'NONE', *, *, #84, .F. ) ;
#446 = FACE_OUTER_BOUND ( 'NONE', #286, .T. ) ;
#447 = CARTESIAN_POINT ( 'NONE',  ( 13.00000000000000000, 1.592040838891559095E-15, 0.000000000000000000 ) ) ;
#448 = CIRCLE ( 'NONE', #159, 1.600000000000000755 ) ;
#449 = DIRECTION ( 'NONE',  ( -0.000000000000000000, -0.000000000000000000, -1.000000000000000000 ) ) ;
#450 = EDGE_CURVE ( 'NONE', #117, #282, #3, .T. ) ;
#451 =( LENGTH_UNIT ( ) NAMED_UNIT ( * ) SI_UNIT ( .MILLI., .METRE. ) );
#452 = ORIENTED_EDGE ( 'NONE', *, *, #210, .T. ) ;
#453 = DIRECTION ( 'NONE',  ( 0.000000000000000000, 0.000000000000000000, 1.000000000000000000 ) ) ;
#454 = AXIS2_PLACEMENT_3D ( 'NONE', #111, #106, #361 ) ;
#455 = ADVANCED_FACE ( 'NONE', ( #395 ), #94, .F. ) ;
#456 = AXIS2_PLACEMENT_3D ( 'NONE', #54, #55, #203 ) ;
#457 = EDGE_LOOP ( 'NONE', ( #86, #517, #328, #405 ) ) ;
#458 = DIRECTION ( 'NONE',  ( 1.000000000000000000, 0.000000000000000000, 0.000000000000000000 ) ) ;
#459 = LOCAL_TIME ( 22, 29, 52.00000000000000000, #474 ) ;
#460 = ORIENTED_EDGE ( 'NONE', *, *, #402, .F. ) ;
#461 = CARTESIAN_POINT ( 'NONE',  ( 0.000000000000000000, 0.000000000000000000, -4.000000000000000000 ) ) ;
#462 = DESIGN_CONTEXT ( 'detailed design', #481, 'design' ) ;
#463 = FACE_BOUND ( 'NONE', #228, .T. ) ;
#464 = ADVANCED_FACE ( 'NONE', ( #585, #342 ), #11, .F. ) ;
#465 = ORIENTED_EDGE ( 'NONE', *, *, #408, .F. ) ;
#466 = CALENDAR_DATE ( 2026, 7, 9 ) ;
#467 = CIRCLE ( 'NONE', #191, 13.00000000000000000 ) ;
#468 = LINE ( 'NONE', #119, #494 ) ;
#469 = ORIENTED_EDGE ( 'NONE', *, *, #210, .F. ) ;
#470 = DATE_AND_TIME ( #37, #116 ) ;
#471 = CARTESIAN_POINT ( 'NONE',  ( -1.600000000000000089, 10.00000000000000000, 3.000000000000002665 ) ) ;
#472 = EDGE_CURVE ( 'NONE', #211, #240, #444, .T. ) ;
#473 = ORIENTED_EDGE ( 'NONE', *, *, #288, .F. ) ;
#474 = COORDINATED_UNIVERSAL_TIME_OFFSET ( 6, 0, .BEHIND. ) ;
#475 = DIRECTION ( 'NONE',  ( 1.000000000000000000, 0.000000000000000000, 0.000000000000000000 ) ) ;
#476 = CIRCLE ( 'NONE', #552, 13.00000000000000000 ) ;
#477 = ORIENTED_EDGE ( 'NONE', *, *, #48, .T. ) ;
#478 = EDGE_LOOP ( 'NONE', ( #473, #143 ) ) ;
#479 = DIRECTION ( 'NONE',  ( 0.000000000000000000, 0.000000000000000000, 1.000000000000000000 ) ) ;
#480 = ORIENTED_EDGE ( 'NONE', *, *, #533, .F. ) ;
#481 = APPLICATION_CONTEXT ( 'configuration controlled 3d designs of mechanical parts and assemblies' ) ;
#482 = PERSON_AND_ORGANIZATION ( #537, #397 ) ;
#483 = CARTESIAN_POINT ( 'NONE',  ( 0.000000000000000000, 0.000000000000000000, 0.000000000000000000 ) ) ;
#484 = DIRECTION ( 'NONE',  ( 1.000000000000000000, 0.000000000000000000, 0.000000000000000000 ) ) ;
#485 = FACE_OUTER_BOUND ( 'NONE', #233, .T. ) ;
#486 = EDGE_LOOP ( 'NONE', ( #70, #188, #146, #290 ) ) ;
#487 = DIRECTION ( 'NONE',  ( 0.000000000000000000, 0.000000000000000000, 1.000000000000000000 ) ) ;
#488 = ORIENTED_EDGE ( 'NONE', *, *, #90, .T. ) ;
#489 = DIRECTION ( 'NONE',  ( -0.000000000000000000, -0.000000000000000000, -1.000000000000000000 ) ) ;
#490 = AXIS2_PLACEMENT_3D ( 'NONE', #271, #180, #371 ) ;
#491 = LINE ( 'NONE', #589, #258 ) ;
#492 = AXIS2_PLACEMENT_3D ( 'NONE', #422, #183, #606 ) ;
#493 = CARTESIAN_POINT ( 'NONE',  ( 1.600000000000000089, -10.00000000000000000, 3.000000000000002665 ) ) ;
#494 = VECTOR ( 'NONE', #33, 1000.000000000000000 ) ;
#495 = ADVANCED_FACE ( 'NONE', ( #349 ), #546, .T. ) ;
#496 = CARTESIAN_POINT ( 'NONE',  ( 1.600000000000000089, -10.00000000000000000, 3.000000000000002665 ) ) ;
#497 = CYLINDRICAL_SURFACE ( 'NONE', #285, 3.049999999999999822 ) ;
#498 = DIRECTION ( 'NONE',  ( 1.000000000000000000, 0.000000000000000000, 0.000000000000000000 ) ) ;
#499 = ADVANCED_FACE ( 'NONE', ( #446 ), #6, .F. ) ;
#500 = EDGE_CURVE ( 'NONE', #555, #501, #491, .T. ) ;
#501 = VERTEX_POINT ( 'NONE', #348 ) ;
#502 = DIRECTION ( 'NONE',  ( -0.000000000000000000, -0.000000000000000000, -1.000000000000000000 ) ) ;
#503 = CIRCLE ( 'NONE', #588, 4.500000000000000000 ) ;
#504 = VERTEX_POINT ( 'NONE', #544 ) ;
#505 = DIRECTION ( 'NONE',  ( 0.000000000000000000, 0.000000000000000000, 1.000000000000000000 ) ) ;
#506 = FACE_BOUND ( 'NONE', #150, .T. ) ;
#507 = VERTEX_POINT ( 'NONE', #496 ) ;
#508 = PERSON_AND_ORGANIZATION_ROLE ( 'design_supplier' ) ;
#509 = DIRECTION ( 'NONE',  ( 1.000000000000000000, 0.000000000000000000, -0.000000000000000000 ) ) ;
#510 = ORIENTED_EDGE ( 'NONE', *, *, #113, .F. ) ;
#511 = COORDINATED_UNIVERSAL_TIME_OFFSET ( 6, 0, .BEHIND. ) ;
#512 = EDGE_CURVE ( 'NONE', #266, #65, #541, .T. ) ;
#513 = DIRECTION ( 'NONE',  ( 1.000000000000000000, 0.000000000000000000, 0.000000000000000000 ) ) ;
#514 = AXIS2_PLACEMENT_3D ( 'NONE', #443, #392, #252 ) ;
#515 = ORIENTED_EDGE ( 'NONE', *, *, #207, .T. ) ;
#516 = CARTESIAN_POINT ( 'NONE',  ( -11.60000000000000142, 0.000000000000000000, 0.000000000000000000 ) ) ;
#517 = ORIENTED_EDGE ( 'NONE', *, *, #450, .F. ) ;
#518 = CARTESIAN_POINT ( 'NONE',  ( -4.500000000000000000, 0.000000000000000000, 0.000000000000000000 ) ) ;
#519 = DIRECTION ( 'NONE',  ( -1.000000000000000000, 0.000000000000000000, 0.000000000000000000 ) ) ;
#520 = CIRCLE ( 'NONE', #25, 3.049999999999999822 ) ;
#521 = ORIENTED_EDGE ( 'NONE', *, *, #29, .F. ) ;
#522 = COORDINATED_UNIVERSAL_TIME_OFFSET ( 6, 0, .BEHIND. ) ;
#523 = VECTOR ( 'NONE', #326, 1000.000000000000000 ) ;
#524 = DIRECTION ( 'NONE',  ( -0.000000000000000000, -0.000000000000000000, -1.000000000000000000 ) ) ;
#525 = VERTEX_POINT ( 'NONE', #314 ) ;
#526 = DIRECTION ( 'NONE',  ( -0.000000000000000000, -0.000000000000000000, -1.000000000000000000 ) ) ;
#527 = PRODUCT ( 'HW-006_MG996_stock_horn_ENVELOPE', 'HW-006_MG996_stock_horn_ENVELOPE', '', ( #365 ) ) ;
#528 = CARTESIAN_POINT ( 'NONE',  ( 13.00000000000000000, 1.592040838891559095E-15, 3.000000000000000000 ) ) ;
#529 = APPLICATION_CONTEXT ( 'configuration controlled 3d designs of mechanical parts and assemblies' ) ;
#530 = ORIENTED_EDGE ( 'NONE', *, *, #450, .T. ) ;
#531 = CC_DESIGN_PERSON_AND_ORGANIZATION_ASSIGNMENT ( #482, #617, ( #262 ) ) ;
#532 = DIRECTION ( 'NONE',  ( 0.000000000000000000, 0.000000000000000000, 1.000000000000000000 ) ) ;
#533 = EDGE_CURVE ( 'NONE', #279, #98, #557, .T. ) ;
#534 = CARTESIAN_POINT ( 'NONE',  ( 0.000000000000000000, 10.00000000000000000, 3.000000000000002665 ) ) ;
#535 = VERTEX_POINT ( 'NONE', #66 ) ;
#536 = CIRCLE ( 'NONE', #351, 1.600000000000000755 ) ;
#537 = PERSON ( 'UNSPECIFIED', 'UNSPECIFIED', 'UNSPECIFIED', ('UNSPECIFIED'), ('UNSPECIFIED'), ('UNSPECIFIED') ) ;
#538 = CARTESIAN_POINT ( 'NONE',  ( -13.00000000000000000, 0.000000000000000000, 3.000000000000000000 ) ) ;
#539 = CARTESIAN_POINT ( 'NONE',  ( -10.00000000000000000, 0.000000000000000000, 0.000000000000000000 ) ) ;
#540 = ORIENTED_EDGE ( 'NONE', *, *, #243, .F. ) ;
#541 = CIRCLE ( 'NONE', #614, 3.049999999999999822 ) ;
#542 = DIRECTION ( 'NONE',  ( 1.000000000000000000, 0.000000000000000000, 0.000000000000000000 ) ) ;
#543 = CIRCLE ( 'NONE', #404, 1.600000000000000089 ) ;
#544 = CARTESIAN_POINT ( 'NONE',  ( 3.049999999999999822, 3.735172737399427146E-16, -4.000000000000000000 ) ) ;
#545 = EDGE_CURVE ( 'NONE', #98, #279, #97, .T. ) ;
#546 = CYLINDRICAL_SURFACE ( 'NONE', #10, 4.500000000000000000 ) ;
#547 = DIRECTION ( 'NONE',  ( 1.000000000000000000, 0.000000000000000000, 0.000000000000000000 ) ) ;
#548 = LINE ( 'NONE', #257, #597 ) ;
#549 = LOCAL_TIME ( 22, 29, 52.00000000000000000, #577 ) ;
#550 = ADVANCED_FACE ( 'NONE', ( #68 ), #304, .T. ) ;
#551 = DIRECTION ( 'NONE',  ( 1.000000000000000000, 0.000000000000000000, -0.000000000000000000 ) ) ;
#552 = AXIS2_PLACEMENT_3D ( 'NONE', #483, #479, #76 ) ;
#553 = ORIENTED_EDGE ( 'NONE', *, *, #402, .T. ) ;
#554 = CARTESIAN_POINT ( 'NONE',  ( 0.000000000000000000, 0.000000000000000000, 3.000000000000000000 ) ) ;
#555 = VERTEX_POINT ( 'NONE', #410 ) ;
#556 = FACE_BOUND ( 'NONE', #576, .T. ) ;
#557 = CIRCLE ( 'NONE', #204, 1.600000000000000755 ) ;
#558 = EDGE_LOOP ( 'NONE', ( #460, #336, #215, #175 ) ) ;
#559 = APPROVAL_ROLE ( '' ) ;
#560 = PLANE ( 'NONE',  #332 ) ;
#561 = EDGE_CURVE ( 'NONE', #507, #1, #346, .T. ) ;
#562 = ORIENTED_EDGE ( 'NONE', *, *, #14, .F. ) ;
#563 = APPROVAL_DATE_TIME ( #280, #121 ) ;
#564 = DIRECTION ( 'NONE',  ( -0.000000000000000000, -0.000000000000000000, -1.000000000000000000 ) ) ;
#565 = EDGE_LOOP ( 'NONE', ( #364, #49, #219, #540 ) ) ;
#566 = CARTESIAN_POINT ( 'NONE',  ( 0.000000000000000000, 0.000000000000000000, 3.000000000000000000 ) ) ;
#567 = ORIENTED_EDGE ( 'NONE', *, *, #75, .T. ) ;
#568 = CIRCLE ( 'NONE', #260, 13.00000000000000000 ) ;
#569 = LINE ( 'NONE', #538, #251 ) ;
#570 = COORDINATED_UNIVERSAL_TIME_OFFSET ( 6, 0, .BEHIND. ) ;
#571 = CYLINDRICAL_SURFACE ( 'NONE', #615, 1.600000000000000089 ) ;
#572 = ORIENTED_EDGE ( 'NONE', *, *, #105, .F. ) ;
#573 = CARTESIAN_POINT ( 'NONE',  ( 10.00000000000000000, 0.000000000000000000, 3.000000000000002665 ) ) ;
#574 = LINE ( 'NONE', #528, #136 ) ;
#575 = AXIS2_PLACEMENT_3D ( 'NONE', #177, #376, #426 ) ;
#576 = EDGE_LOOP ( 'NONE', ( #383, #52 ) ) ;
#577 = COORDINATED_UNIVERSAL_TIME_OFFSET ( 6, 0, .BEHIND. ) ;
#578 = AXIS2_PLACEMENT_3D ( 'NONE', #373, #532, #235 ) ;
#579 = CARTESIAN_POINT ( 'NONE',  ( -13.00000000000000000, 0.000000000000000000, 3.000000000000000000 ) ) ;
#580 = ORIENTED_EDGE ( 'NONE', *, *, #96, .T. ) ;
#581 = DIRECTION ( 'NONE',  ( -0.000000000000000000, -0.000000000000000000, -1.000000000000000000 ) ) ;
#582 = ORIENTED_EDGE ( 'NONE', *, *, #345, .T. ) ;
#583 = ADVANCED_FACE ( 'NONE', ( #15 ), #497, .F. ) ;
#584 = LINE ( 'NONE', #341, #302 ) ;
#585 = FACE_OUTER_BOUND ( 'NONE', #619, .T. ) ;
#586 = ORIENTED_EDGE ( 'NONE', *, *, #165, .T. ) ;
#587 = CARTESIAN_POINT ( 'NONE',  ( 10.00000000000000000, 0.000000000000000000, 3.000000000000002665 ) ) ;
#588 = AXIS2_PLACEMENT_3D ( 'NONE', #461, #23, #414 ) ;
#589 = CARTESIAN_POINT ( 'NONE',  ( 1.600000000000000089, 10.00000000000000000, 3.000000000000002665 ) ) ;
#590 = CARTESIAN_POINT ( 'NONE',  ( 0.000000000000000000, 10.00000000000000000, 3.000000000000002665 ) ) ;
#591 = APPLICATION_PROTOCOL_DEFINITION ( 'international standard', 'config_control_design', 1994, #529 ) ;
#592 = CARTESIAN_POINT ( 'NONE',  ( 0.000000000000000000, 0.000000000000000000, 3.000000000000000000 ) ) ;
#593 = DIRECTION ( 'NONE',  ( -1.000000000000000000, 0.000000000000000000, 0.000000000000000000 ) ) ;
#594 = CIRCLE ( 'NONE', #490, 4.500000000000000000 ) ;
#595 = ORIENTED_EDGE ( 'NONE', *, *, #288, .T. ) ;
#596 =( NAMED_UNIT ( * ) SI_UNIT ( $, .STERADIAN. ) SOLID_ANGLE_UNIT ( ) );
#597 = VECTOR ( 'NONE', #213, 1000.000000000000000 ) ;
#598 = ORIENTED_EDGE ( 'NONE', *, *, #59, .F. ) ;
#599 = PRODUCT_RELATED_PRODUCT_CATEGORY ( 'detail', '', ( #527 ) ) ;
#600 = FACE_BOUND ( 'NONE', #478, .T. ) ;
#601 = ORIENTED_EDGE ( 'NONE', *, *, #512, .T. ) ;
#602 = DIRECTION ( 'NONE',  ( 1.000000000000000000, 0.000000000000000000, 0.000000000000000000 ) ) ;
#603 = EDGE_CURVE ( 'NONE', #282, #117, #237, .T. ) ;
#604 = EDGE_LOOP ( 'NONE', ( #5, #598 ) ) ;
#605 = PERSON_AND_ORGANIZATION ( #537, #397 ) ;
#606 = DIRECTION ( 'NONE',  ( -1.000000000000000000, 0.000000000000000000, 0.000000000000000000 ) ) ;
#607 = ORIENTED_EDGE ( 'NONE', *, *, #305, .T. ) ;
#608 = APPROVAL_STATUS ( 'not_yet_approved' ) ;
#609 = CARTESIAN_POINT ( 'NONE',  ( -10.00000000000000000, 0.000000000000000000, 3.000000000000002665 ) ) ;
#610 = ORIENTED_EDGE ( 'NONE', *, *, #29, .T. ) ;
#611 = EDGE_CURVE ( 'NONE', #421, #535, #503, .T. ) ;
#612 = CARTESIAN_POINT ( 'NONE',  ( 0.000000000000000000, -10.00000000000000000, 0.000000000000000000 ) ) ;
#613 = FACE_OUTER_BOUND ( 'NONE', #22, .T. ) ;
#614 = AXIS2_PLACEMENT_3D ( 'NONE', #554, #264, #352 ) ;
#615 = AXIS2_PLACEMENT_3D ( 'NONE', #133, #327, #300 ) ;
#616 = FACE_OUTER_BOUND ( 'NONE', #313, .T. ) ;
#617 = PERSON_AND_ORGANIZATION_ROLE ( 'classification_officer' ) ;
#618 = CARTESIAN_POINT ( 'NONE',  ( 0.000000000000000000, 10.00000000000000000, 3.000000000000002665 ) ) ;
#619 = EDGE_LOOP ( 'NONE', ( #122, #413 ) ) ;
#620 = DIRECTION ( 'NONE',  ( -1.000000000000000000, 0.000000000000000000, 0.000000000000000000 ) ) ;
#621 = ORIENTED_EDGE ( 'NONE', *, *, #625, .F. ) ;
#622 = DIRECTION ( 'NONE',  ( -0.000000000000000000, -0.000000000000000000, -1.000000000000000000 ) ) ;
#623 = AXIS2_PLACEMENT_3D ( 'NONE', #424, #526, #272 ) ;
#624 = CARTESIAN_POINT ( 'NONE',  ( -4.500000000000000000, 0.000000000000000000, 0.000000000000000000 ) ) ;
#625 = EDGE_CURVE ( 'NONE', #278, #504, #312, .T. ) ;
ENDSEC;
END-ISO-10303-21;
