ISO-10303-21;
HEADER;
FILE_DESCRIPTION (( 'STEP AP203' ),
    '1' );
FILE_NAME ('HW-004_MG996R_NOMINAL_VERIFY.step',
    '2026-09-07T21:04:02',
    ( '' ),
    ( '' ),
    'SwSTEP 2.0',
    'SolidWorks 2026',
    '' );
FILE_SCHEMA (( 'CONFIG_CONTROL_DESIGN' ));
ENDSEC;

DATA;
#1 = DATE_AND_TIME ( #266, #330 ) ;
#2 = EDGE_LOOP ( 'NONE', ( #857, #6 ) ) ;
#3 = VECTOR ( 'NONE', #565, 1000.000000000000000 ) ;
#4 = DIRECTION ( 'NONE',  ( -0.000000000000000000, -0.000000000000000000, 1.000000000000000000 ) ) ;
#5 = ORIENTED_EDGE ( 'NONE', *, *, #699, .F. ) ;
#6 = ORIENTED_EDGE ( 'NONE', *, *, #340, .F. ) ;
#7 = PLANE ( 'NONE',  #220 ) ;
#8 = DIRECTION ( 'NONE',  ( -0.000000000000000000, 1.000000000000000000, 0.000000000000000000 ) ) ;
#9 = ORIENTED_EDGE ( 'NONE', *, *, #731, .F. ) ;
#10 = DIRECTION ( 'NONE',  ( 0.000000000000000000, -1.000000000000000000, 0.000000000000000000 ) ) ;
#11 = ADVANCED_FACE ( 'NONE', ( #96 ), #152, .F. ) ;
#12 = DIRECTION ( 'NONE',  ( -0.000000000000000000, -0.000000000000000000, 1.000000000000000000 ) ) ;
#13 = CARTESIAN_POINT ( 'NONE',  ( 0.000000000000000000, 0.000000000000000000, -3.000000000000000000 ) ) ;
#14 = VECTOR ( 'NONE', #209, 1000.000000000000000 ) ;
#15 = ADVANCED_FACE ( 'NONE', ( #696 ), #682, .F. ) ;
#16 = DIRECTION ( 'NONE',  ( 0.000000000000000000, 0.000000000000000000, -1.000000000000000000 ) ) ;
#17 = FACE_OUTER_BOUND ( 'NONE', #61, .T. ) ;
#18 = VECTOR ( 'NONE', #503, 1000.000000000000000 ) ;
#19 = DIRECTION ( 'NONE',  ( 0.000000000000000000, 1.000000000000000000, 0.000000000000000000 ) ) ;
#20 = PLANE ( 'NONE',  #737 ) ;
#21 = CARTESIAN_POINT ( 'NONE',  ( 0.000000000000000000, 0.000000000000000000, 7.000000000000000000 ) ) ;
#22 = LINE ( 'NONE', #216, #276 ) ;
#23 = CARTESIAN_POINT ( 'NONE',  ( -10.00000000000000000, 9.849999999999999645, -2.999999999999999112 ) ) ;
#24 = EDGE_CURVE ( 'NONE', #437, #119, #92, .T. ) ;
#25 = CARTESIAN_POINT ( 'NONE',  ( 0.000000000000000000, 0.000000000000000000, 12.90000000000000213 ) ) ;
#26 = ORIENTED_EDGE ( 'NONE', *, *, #834, .T. ) ;
#27 = CIRCLE ( 'NONE', #515, 1.749999999999999778 ) ;
#28 = CARTESIAN_POINT ( 'NONE',  ( -10.00000000000000178, -9.849999999999999645, -3.000000000000000000 ) ) ;
#29 = CYLINDRICAL_SURFACE ( 'NONE', #624, 1.750000000000001554 ) ;
#30 = DIRECTION ( 'NONE',  ( -1.000000000000000000, 0.000000000000000000, 0.000000000000000000 ) ) ;
#31 = VERTEX_POINT ( 'NONE', #343 ) ;
#32 = LOCAL_TIME ( 16, 4, 2.000000000000000000, #519 ) ;
#33 = LINE ( 'NONE', #775, #871 ) ;
#34 = ORIENTED_EDGE ( 'NONE', *, *, #131, .T. ) ;
#35 = EDGE_CURVE ( 'NONE', #119, #675, #221, .T. ) ;
#36 = DIRECTION ( 'NONE',  ( -1.000000000000000000, 0.000000000000000000, 0.000000000000000000 ) ) ;
#37 = DIRECTION ( 'NONE',  ( 0.000000000000000000, 0.000000000000000000, -1.000000000000000000 ) ) ;
#38 = UNCERTAINTY_MEASURE_WITH_UNIT (LENGTH_MEASURE( 1.000000000000000082E-05 ), #303, 'distance_accuracy_value', 'NONE');
#39 = DIRECTION ( 'NONE',  ( -0.000000000000000000, -1.000000000000000000, -0.000000000000000000 ) ) ;
#40 = ORIENTED_EDGE ( 'NONE', *, *, #453, .T. ) ;
#41 = ADVANCED_FACE ( 'NONE', ( #227 ), #29, .F. ) ;
#42 = DIRECTION ( 'NONE',  ( -1.000000000000000000, 0.000000000000000000, 0.000000000000000000 ) ) ;
#43 = DIRECTION ( 'NONE',  ( -1.000000000000000000, 0.000000000000000000, -0.000000000000000000 ) ) ;
#44 = CARTESIAN_POINT ( 'NONE',  ( 30.69999999999998508, -9.849999999999999645, 0.000000000000000000 ) ) ;
#45 = VERTEX_POINT ( 'NONE', #611 ) ;
#46 = DIRECTION ( 'NONE',  ( -1.000000000000000000, 0.000000000000000000, 0.000000000000000000 ) ) ;
#47 = PLANE ( 'NONE',  #59 ) ;
#48 = DIRECTION ( 'NONE',  ( -0.000000000000000000, -0.000000000000000000, -1.000000000000000000 ) ) ;
#49 = ORIENTED_EDGE ( 'NONE', *, *, #640, .F. ) ;
#50 = PERSON_AND_ORGANIZATION ( #843, #822 ) ;
#51 = CARTESIAN_POINT ( 'NONE',  ( 37.20000000000000284, 9.849999999999999645, 0.000000000000000000 ) ) ;
#52 = EDGE_CURVE ( 'NONE', #867, #672, #225, .T. ) ;
#53 = DIRECTION ( 'NONE',  ( 0.000000000000000000, 0.000000000000000000, 1.000000000000000000 ) ) ;
#54 = EDGE_LOOP ( 'NONE', ( #628, #568, #426, #132 ) ) ;
#55 = EDGE_CURVE ( 'NONE', #376, #437, #763, .T. ) ;
#56 = DATE_AND_TIME ( #250, #280 ) ;
#57 = DIRECTION ( 'NONE',  ( -1.000000000000000000, 0.000000000000000000, -0.000000000000000000 ) ) ;
#58 = EDGE_LOOP ( 'NONE', ( #841, #767 ) ) ;
#59 = AXIS2_PLACEMENT_3D ( 'NONE', #566, #246, #657 ) ;
#60 = CC_DESIGN_APPROVAL ( #109, ( #261 ) ) ;
#61 = EDGE_LOOP ( 'NONE', ( #182, #127, #139, #129, #874, #677, #292, #588, #513, #135, #229, #174 ) ) ;
#62 = ORIENTED_EDGE ( 'NONE', *, *, #731, .T. ) ;
#63 = EDGE_CURVE ( 'NONE', #491, #116, #820, .T. ) ;
#64 = PERSON_AND_ORGANIZATION_ROLE ( 'creator' ) ;
#65 = ORIENTED_EDGE ( 'NONE', *, *, #169, .F. ) ;
#66 = EDGE_CURVE ( 'NONE', #361, #839, #524, .T. ) ;
#67 = PERSON_AND_ORGANIZATION ( #843, #822 ) ;
#68 = ORIENTED_EDGE ( 'NONE', *, *, #55, .T. ) ;
#69 = LINE ( 'NONE', #725, #84 ) ;
#70 = ORIENTED_EDGE ( 'NONE', *, *, #322, .F. ) ;
#71 = ORIENTED_EDGE ( 'NONE', *, *, #765, .T. ) ;
#72 = AXIS2_PLACEMENT_3D ( 'NONE', #649, #433, #46 ) ;
#73 = CARTESIAN_POINT ( 'NONE',  ( 30.69999999999999929, -9.849999999999999645, 6.999999999999999112 ) ) ;
#74 = FACE_OUTER_BOUND ( 'NONE', #224, .T. ) ;
#75 = ORIENTED_EDGE ( 'NONE', *, *, #584, .F. ) ;
#76 = DIRECTION ( 'NONE',  ( -1.000000000000000000, 0.000000000000000000, 0.000000000000000000 ) ) ;
#77 = ADVANCED_FACE ( 'NONE', ( #552, #217, #615 ), #20, .F. ) ;
#78 = EDGE_CURVE ( 'NONE', #45, #788, #826, .T. ) ;
#79 = CARTESIAN_POINT ( 'NONE',  ( 30.69999999999999929, -9.849999999999999645, 6.999999999999999112 ) ) ;
#80 = FACE_BOUND ( 'NONE', #738, .T. ) ;
#81 = DIRECTION ( 'NONE',  ( 1.000000000000000000, 0.000000000000000000, 0.000000000000000000 ) ) ;
#82 = DIRECTION ( 'NONE',  ( -0.000000000000000000, -0.000000000000000000, 1.000000000000000000 ) ) ;
#83 = DIRECTION ( 'NONE',  ( -0.000000000000000000, -0.000000000000000000, -1.000000000000000000 ) ) ;
#84 = VECTOR ( 'NONE', #212, 1000.000000000000000 ) ;
#85 = EDGE_CURVE ( 'NONE', #256, #605, #158, .T. ) ;
#86 = ORIENTED_EDGE ( 'NONE', *, *, #90, .T. ) ;
#87 = DIRECTION ( 'NONE',  ( 0.000000000000000000, -0.000000000000000000, 1.000000000000000000 ) ) ;
#88 = CARTESIAN_POINT ( 'NONE',  ( 30.69999999999999929, 9.849999999999999645, 6.999999999999999112 ) ) ;
#89 = DIRECTION ( 'NONE',  ( -1.000000000000000000, -0.000000000000000000, -0.000000000000000000 ) ) ;
#90 = EDGE_CURVE ( 'NONE', #602, #248, #422, .T. ) ;
#91 = AXIS2_PLACEMENT_3D ( 'NONE', #760, #161, #275 ) ;
#92 = LINE ( 'NONE', #480, #466 ) ;
#93 = CARTESIAN_POINT ( 'NONE',  ( -10.00000000000000000, -9.849999999999999645, 6.999999999999999112 ) ) ;
#94 = ORIENTED_EDGE ( 'NONE', *, *, #462, .T. ) ;
#95 = ADVANCED_BREP_SHAPE_REPRESENTATION ( 'HW-004_MG996R_NOMINAL_VERIFY', ( #592, #175 ), #735 ) ;
#96 = FACE_OUTER_BOUND ( 'NONE', #178, .T. ) ;
#97 = LINE ( 'NONE', #415, #195 ) ;
#98 = VERTEX_POINT ( 'NONE', #23 ) ;
#99 = AXIS2_PLACEMENT_3D ( 'NONE', #490, #764, #419 ) ;
#100 = CARTESIAN_POINT ( 'NONE',  ( -13.00000000000000000, -5.000000000000000000, 0.000000000000000000 ) ) ;
#101 = LINE ( 'NONE', #238, #654 ) ;
#102 = ORIENTED_EDGE ( 'NONE', *, *, #66, .F. ) ;
#103 = VECTOR ( 'NONE', #145, 1000.000000000000000 ) ;
#104 = CARTESIAN_POINT ( 'NONE',  ( 30.69999999999999929, 9.849999999999999645, 6.999999999999999112 ) ) ;
#105 = PLANE ( 'NONE',  #750 ) ;
#106 = FACE_OUTER_BOUND ( 'NONE', #54, .T. ) ;
#107 = EDGE_CURVE ( 'NONE', #672, #361, #287, .T. ) ;
#108 = ORIENTED_EDGE ( 'NONE', *, *, #107, .F. ) ;
#109 = APPROVAL ( #526, 'UNSPECIFIED' ) ;
#110 = CARTESIAN_POINT ( 'NONE',  ( -10.00000000000000000, -9.849999999999999645, 6.999999999999999112 ) ) ;
#111 = DIRECTION ( 'NONE',  ( 1.000000000000000000, 0.000000000000000000, 0.000000000000000000 ) ) ;
#112 = DIRECTION ( 'NONE',  ( 0.000000000000000000, 0.000000000000000000, -1.000000000000000000 ) ) ;
#113 = ORIENTED_EDGE ( 'NONE', *, *, #752, .T. ) ;
#114 = PLANE ( 'NONE',  #268 ) ;
#115 = DIRECTION ( 'NONE',  ( 0.000000000000000000, 0.000000000000000000, -1.000000000000000000 ) ) ;
#116 = VERTEX_POINT ( 'NONE', #842 ) ;
#117 = EDGE_CURVE ( 'NONE', #205, #119, #385, .T. ) ;
#118 = AXIS2_PLACEMENT_3D ( 'NONE', #647, #512, #380 ) ;
#119 = VERTEX_POINT ( 'NONE', #790 ) ;
#120 = CARTESIAN_POINT ( 'NONE',  ( 34.00000000000000000, 5.000000000000000000, 0.000000000000000000 ) ) ;
#121 = DIRECTION ( 'NONE',  ( -1.000000000000000000, 0.000000000000000000, 0.000000000000000000 ) ) ;
#122 = CARTESIAN_POINT ( 'NONE',  ( -13.00000000000000000, 5.000000000000000000, 12.90000000000000924 ) ) ;
#123 = ORIENTED_EDGE ( 'NONE', *, *, #517, .F. ) ;
#124 = DATE_TIME_ROLE ( 'creation_date' ) ;
#125 = FACE_OUTER_BOUND ( 'NONE', #873, .T. ) ;
#126 = DIRECTION ( 'NONE',  ( -0.000000000000000000, -0.000000000000000000, 1.000000000000000000 ) ) ;
#127 = ORIENTED_EDGE ( 'NONE', *, *, #530, .F. ) ;
#128 = PERSON_AND_ORGANIZATION_ROLE ( 'design_owner' ) ;
#129 = ORIENTED_EDGE ( 'NONE', *, *, #284, .T. ) ;
#130 = VECTOR ( 'NONE', #683, 1000.000000000000000 ) ;
#131 = EDGE_CURVE ( 'NONE', #745, #248, #160, .T. ) ;
#132 = ORIENTED_EDGE ( 'NONE', *, *, #357, .F. ) ;
#133 = COORDINATED_UNIVERSAL_TIME_OFFSET ( 6, 0, .BEHIND. ) ;
#134 = VECTOR ( 'NONE', #177, 1000.000000000000000 ) ;
#135 = ORIENTED_EDGE ( 'NONE', *, *, #752, .F. ) ;
#136 = ADVANCED_FACE ( 'NONE', ( #315 ), #581, .F. ) ;
#137 = VECTOR ( 'NONE', #10, 1000.000000000000000 ) ;
#138 = DATE_AND_TIME ( #598, #762 ) ;
#139 = ORIENTED_EDGE ( 'NONE', *, *, #836, .T. ) ;
#140 = CARTESIAN_POINT ( 'NONE',  ( 32.25000000000000000, -5.000000000000000000, -2.999999999999999112 ) ) ;
#141 = ORIENTED_EDGE ( 'NONE', *, *, #768, .F. ) ;
#142 = ORIENTED_EDGE ( 'NONE', *, *, #729, .F. ) ;
#143 = AXIS2_PLACEMENT_3D ( 'NONE', #215, #154, #87 ) ;
#144 = CYLINDRICAL_SURFACE ( 'NONE', #866, 1.750000000000001554 ) ;
#145 = DIRECTION ( 'NONE',  ( -0.000000000000000000, -0.000000000000000000, -1.000000000000000000 ) ) ;
#146 = ORIENTED_EDGE ( 'NONE', *, *, #686, .F. ) ;
#147 = ADVANCED_FACE ( 'NONE', ( #310 ), #105, .F. ) ;
#148 = ORIENTED_EDGE ( 'NONE', *, *, #284, .F. ) ;
#149 = CIRCLE ( 'NONE', #797, 1.749999999999999778 ) ;
#150 = DIRECTION ( 'NONE',  ( 0.000000000000000000, 0.000000000000000000, -1.000000000000000000 ) ) ;
#151 = VECTOR ( 'NONE', #511, 1000.000000000000000 ) ;
#152 = PLANE ( 'NONE',  #811 ) ;
#153 = CARTESIAN_POINT ( 'NONE',  ( -16.50000000000000000, -9.849999999999999645, -3.000000000000000000 ) ) ;
#154 = DIRECTION ( 'NONE',  ( 0.000000000000000000, 1.000000000000000000, 0.000000000000000000 ) ) ;
#155 = CC_DESIGN_DATE_AND_TIME_ASSIGNMENT ( #601, #464, ( #516 ) ) ;
#156 = CARTESIAN_POINT ( 'NONE',  ( -16.50000000000000000, 9.849999999999999645, 0.000000000000000000 ) ) ;
#157 = CARTESIAN_POINT ( 'NONE',  ( -10.00000000000000000, -9.849999999999999645, 6.999999999999999112 ) ) ;
#158 = LINE ( 'NONE', #756, #579 ) ;
#159 = EDGE_LOOP ( 'NONE', ( #653, #541, #388, #708 ) ) ;
#160 = CIRCLE ( 'NONE', #311, 1.749999999999999778 ) ;
#161 = DIRECTION ( 'NONE',  ( -0.000000000000000000, -0.000000000000000000, 1.000000000000000000 ) ) ;
#162 = CARTESIAN_POINT ( 'NONE',  ( 34.00000000000000000, 5.000000000000000000, -2.999999999999999112 ) ) ;
#163 = ORIENTED_EDGE ( 'NONE', *, *, #597, .T. ) ;
#164 = CARTESIAN_POINT ( 'NONE',  ( 35.75000000000000711, -5.000000000000000000, 0.000000000000000000 ) ) ;
#165 = CARTESIAN_POINT ( 'NONE',  ( 34.00000000000000000, 5.000000000000000000, 12.90000000000000924 ) ) ;
#166 = DIRECTION ( 'NONE',  ( -0.000000000000000000, -0.000000000000000000, 1.000000000000000000 ) ) ;
#167 = ORIENTED_EDGE ( 'NONE', *, *, #257, .F. ) ;
#168 = AXIS2_PLACEMENT_3D ( 'NONE', #816, #12, #687 ) ;
#169 = EDGE_CURVE ( 'NONE', #402, #533, #572, .T. ) ;
#170 = DIRECTION ( 'NONE',  ( -0.000000000000000000, -0.000000000000000000, 1.000000000000000000 ) ) ;
#171 = CARTESIAN_POINT ( 'NONE',  ( 34.00000000000000000, -5.000000000000000000, 12.90000000000000924 ) ) ;
#172 = ADVANCED_FACE ( 'NONE', ( #304 ), #449, .F. ) ;
#173 = FACE_BOUND ( 'NONE', #328, .T. ) ;
#174 = ORIENTED_EDGE ( 'NONE', *, *, #834, .F. ) ;
#175 = AXIS2_PLACEMENT_3D ( 'NONE', #231, #495, #801 ) ;
#176 = CYLINDRICAL_SURFACE ( 'NONE', #766, 1.750000000000001554 ) ;
#177 = DIRECTION ( 'NONE',  ( -0.000000000000000000, -0.000000000000000000, -1.000000000000000000 ) ) ;
#178 = EDGE_LOOP ( 'NONE', ( #301, #877, #574, #789 ) ) ;
#179 = CARTESIAN_POINT ( 'NONE',  ( -16.50000000000000000, -9.849999999999999645, 0.000000000000000000 ) ) ;
#180 = DIRECTION ( 'NONE',  ( 0.000000000000000000, 0.000000000000000000, -1.000000000000000000 ) ) ;
#181 = CYLINDRICAL_SURFACE ( 'NONE', #603, 1.749999999999999778 ) ;
#182 = ORIENTED_EDGE ( 'NONE', *, *, #824, .T. ) ;
#183 = VECTOR ( 'NONE', #761, 1000.000000000000000 ) ;
#184 = DIRECTION ( 'NONE',  ( -0.000000000000000000, -0.000000000000000000, 1.000000000000000000 ) ) ;
#185 = CARTESIAN_POINT ( 'NONE',  ( 34.00000000000000000, 5.000000000000000000, 0.000000000000000000 ) ) ;
#186 = ORIENTED_EDGE ( 'NONE', *, *, #477, .T. ) ;
#187 = APPROVAL_PERSON_ORGANIZATION ( #314, #325, #263 ) ;
#188 = DIRECTION ( 'NONE',  ( 0.000000000000000000, 0.000000000000000000, 1.000000000000000000 ) ) ;
#189 = DIRECTION ( 'NONE',  ( -0.000000000000000000, -0.000000000000000000, -1.000000000000000000 ) ) ;
#190 = EDGE_LOOP ( 'NONE', ( #398, #86, #446, #317 ) ) ;
#191 = EDGE_CURVE ( 'NONE', #265, #675, #720, .T. ) ;
#192 = ORIENTED_EDGE ( 'NONE', *, *, #853, .T. ) ;
#193 = EDGE_CURVE ( 'NONE', #794, #200, #101, .T. ) ;
#194 = ORIENTED_EDGE ( 'NONE', *, *, #322, .T. ) ;
#195 = VECTOR ( 'NONE', #694, 1000.000000000000000 ) ;
#196 = PERSON_AND_ORGANIZATION_ROLE ( 'classification_officer' ) ;
#197 = ORIENTED_EDGE ( 'NONE', *, *, #35, .F. ) ;
#198 = AXIS2_PLACEMENT_3D ( 'NONE', #701, #496, #180 ) ;
#199 = CARTESIAN_POINT ( 'NONE',  ( -10.00000000000000000, 9.849999999999999645, -30.00000000000000000 ) ) ;
#200 = VERTEX_POINT ( 'NONE', #444 ) ;
#201 = PERSON_AND_ORGANIZATION_ROLE ( 'creator' ) ;
#202 = ORIENTED_EDGE ( 'NONE', *, *, #85, .F. ) ;
#203 = EDGE_CURVE ( 'NONE', #98, #298, #33, .T. ) ;
#204 = LINE ( 'NONE', #282, #631 ) ;
#205 = VERTEX_POINT ( 'NONE', #860 ) ;
#206 = ADVANCED_FACE ( 'NONE', ( #715 ), #176, .F. ) ;
#207 = ORIENTED_EDGE ( 'NONE', *, *, #453, .F. ) ;
#208 = AXIS2_PLACEMENT_3D ( 'NONE', #162, #82, #753 ) ;
#209 = DIRECTION ( 'NONE',  ( -1.000000000000000000, -0.000000000000000000, -0.000000000000000000 ) ) ;
#210 = EDGE_LOOP ( 'NONE', ( #695, #307, #773, #348 ) ) ;
#211 = DIRECTION ( 'NONE',  ( -1.000000000000000000, 0.000000000000000000, 0.000000000000000000 ) ) ;
#212 = DIRECTION ( 'NONE',  ( -0.000000000000000000, -0.000000000000000000, -1.000000000000000000 ) ) ;
#213 = CARTESIAN_POINT ( 'NONE',  ( -16.50000000000000000, -9.849999999999999645, -3.000000000000000000 ) ) ;
#214 = ADVANCED_FACE ( 'NONE', ( #650 ), #114, .F. ) ;
#215 = CARTESIAN_POINT ( 'NONE',  ( -10.00000000000000000, -9.849999999999999645, 6.999999999999999112 ) ) ;
#216 = CARTESIAN_POINT ( 'NONE',  ( -10.00000000000000000, 9.849999999999999645, 6.999999999999999112 ) ) ;
#217 = FACE_BOUND ( 'NONE', #58, .T. ) ;
#218 = ADVANCED_FACE ( 'NONE', ( #296 ), #502, .T. ) ;
#219 = CARTESIAN_POINT ( 'NONE',  ( -10.00000000000000178, 9.849999999999999645, 0.000000000000000000 ) ) ;
#220 = AXIS2_PLACEMENT_3D ( 'NONE', #390, #604, #57 ) ;
#221 = LINE ( 'NONE', #418, #506 ) ;
#222 = CARTESIAN_POINT ( 'NONE',  ( -3.000000000000000000, 0.000000000000000000, 7.000000000000000000 ) ) ;
#223 = AXIS2_PLACEMENT_3D ( 'NONE', #865, #573, #726 ) ;
#224 = EDGE_LOOP ( 'NONE', ( #313, #870, #197, #458 ) ) ;
#225 = CIRCLE ( 'NONE', #825, 1.750000000000001554 ) ;
#226 = CARTESIAN_POINT ( 'NONE',  ( -16.50000000000000000, -9.849999999999999645, -3.000000000000000000 ) ) ;
#227 = FACE_OUTER_BOUND ( 'NONE', #210, .T. ) ;
#228 = ADVANCED_FACE ( 'NONE', ( #379 ), #47, .F. ) ;
#229 = ORIENTED_EDGE ( 'NONE', *, *, #324, .F. ) ;
#230 = ADVANCED_FACE ( 'NONE', ( #706 ), #576, .F. ) ;
#231 = CARTESIAN_POINT ( 'NONE',  ( 0.000000000000000000, 0.000000000000000000, 0.000000000000000000 ) ) ;
#232 = DIRECTION ( 'NONE',  ( 0.000000000000000000, 0.000000000000000000, -1.000000000000000000 ) ) ;
#233 = CARTESIAN_POINT ( 'NONE',  ( 0.000000000000000000, 0.000000000000000000, 12.90000000000000213 ) ) ;
#234 = ORIENTED_EDGE ( 'NONE', *, *, #768, .T. ) ;
#235 = CIRCLE ( 'NONE', #674, 3.000000000000000000 ) ;
#236 = LOCAL_TIME ( 16, 4, 2.000000000000000000, #133 ) ;
#237 = LINE ( 'NONE', #580, #488 ) ;
#238 = CARTESIAN_POINT ( 'NONE',  ( -10.00000000000000000, -9.849999999999999645, -30.00000000000000000 ) ) ;
#239 = CARTESIAN_POINT ( 'NONE',  ( -10.00000000000000000, 9.849999999999999645, -30.00000000000000000 ) ) ;
#240 = VERTEX_POINT ( 'NONE', #796 ) ;
#241 = VECTOR ( 'NONE', #629, 1000.000000000000000 ) ;
#242 = CARTESIAN_POINT ( 'NONE',  ( -11.25000000000000000, 5.000000000000000000, -2.999999999999999112 ) ) ;
#243 = CARTESIAN_POINT ( 'NONE',  ( 34.00000000000000000, -5.000000000000000000, 12.90000000000000924 ) ) ;
#244 = ORIENTED_EDGE ( 'NONE', *, *, #258, .F. ) ;
#245 = CARTESIAN_POINT ( 'NONE',  ( -10.00000000000000000, -9.849999999999999645, 6.999999999999999112 ) ) ;
#246 = DIRECTION ( 'NONE',  ( 0.000000000000000000, -1.000000000000000000, 0.000000000000000000 ) ) ;
#247 = CARTESIAN_POINT ( 'NONE',  ( 32.25000000000000000, -5.000000000000000000, 0.000000000000000000 ) ) ;
#248 = VERTEX_POINT ( 'NONE', #242 ) ;
#249 = AXIS2_PLACEMENT_3D ( 'NONE', #864, #251, #520 ) ;
#250 = CALENDAR_DATE ( 2026, 7, 9 ) ;
#251 = DIRECTION ( 'NONE',  ( 0.000000000000000000, 0.000000000000000000, -1.000000000000000000 ) ) ;
#252 = CARTESIAN_POINT ( 'NONE',  ( -16.50000000000000000, -9.849999999999999645, 0.000000000000000000 ) ) ;
#253 = ORIENTED_EDGE ( 'NONE', *, *, #63, .F. ) ;
#254 = AXIS2_PLACEMENT_3D ( 'NONE', #120, #170, #42 ) ;
#255 = CARTESIAN_POINT ( 'NONE',  ( 0.000000000000000000, 0.000000000000000000, 12.90000000000000213 ) ) ;
#256 = VERTEX_POINT ( 'NONE', #661 ) ;
#257 = EDGE_CURVE ( 'NONE', #461, #116, #235, .T. ) ;
#258 = EDGE_CURVE ( 'NONE', #564, #461, #204, .T. ) ;
#259 = DIRECTION ( 'NONE',  ( 0.000000000000000000, 1.000000000000000000, 0.000000000000000000 ) ) ;
#260 = SHAPE_DEFINITION_REPRESENTATION ( #872, #95 ) ;
#261 = PRODUCT_DEFINITION ( 'UNKNOWN', '', #382, #537 ) ;
#262 = EDGE_LOOP ( 'NONE', ( #355, #234, #555, #644 ) ) ;
#263 = APPROVAL_ROLE ( '' ) ;
#264 = VERTEX_POINT ( 'NONE', #454 ) ;
#265 = VERTEX_POINT ( 'NONE', #272 ) ;
#266 = CALENDAR_DATE ( 2026, 7, 9 ) ;
#267 = ORIENTED_EDGE ( 'NONE', *, *, #800, .F. ) ;
#268 = AXIS2_PLACEMENT_3D ( 'NONE', #439, #434, #299 ) ;
#269 = CARTESIAN_POINT ( 'NONE',  ( 30.69999999999998508, 9.849999999999999645, -3.000000000000000000 ) ) ;
#270 = ORIENTED_EDGE ( 'NONE', *, *, #414, .T. ) ;
#271 = ORIENTED_EDGE ( 'NONE', *, *, #193, .F. ) ;
#272 = CARTESIAN_POINT ( 'NONE',  ( 37.20000000000000284, 9.849999999999999645, 0.000000000000000000 ) ) ;
#273 = CARTESIAN_POINT ( 'NONE',  ( -16.50000000000000000, -9.849999999999999645, 0.000000000000000000 ) ) ;
#274 = VERTEX_POINT ( 'NONE', #73 ) ;
#275 = DIRECTION ( 'NONE',  ( -1.000000000000000000, 0.000000000000000000, 0.000000000000000000 ) ) ;
#276 = VECTOR ( 'NONE', #691, 1000.000000000000000 ) ;
#277 = DIRECTION ( 'NONE',  ( -1.000000000000000000, 0.000000000000000000, 0.000000000000000000 ) ) ;
#278 = EDGE_CURVE ( 'NONE', #406, #45, #69, .T. ) ;
#279 = DIRECTION ( 'NONE',  ( -1.000000000000000000, 0.000000000000000000, -0.000000000000000000 ) ) ;
#280 = LOCAL_TIME ( 16, 4, 2.000000000000000000, #660 ) ;
#281 = CARTESIAN_POINT ( 'NONE',  ( -13.00000000000000000, -5.000000000000000000, 0.000000000000000000 ) ) ;
#282 = CARTESIAN_POINT ( 'NONE',  ( -3.000000000000000000, 0.000000000000000000, 12.90000000000000213 ) ) ;
#283 = AXIS2_PLACEMENT_3D ( 'NONE', #413, #339, #211 ) ;
#284 = EDGE_CURVE ( 'NONE', #788, #806, #869, .T. ) ;
#285 = CARTESIAN_POINT ( 'NONE',  ( 0.000000000000000000, 0.000000000000000000, 0.000000000000000000 ) ) ;
#286 = FACE_OUTER_BOUND ( 'NONE', #295, .T. ) ;
#287 = LINE ( 'NONE', #557, #353 ) ;
#288 = DIRECTION ( 'NONE',  ( 0.000000000000000000, 1.000000000000000000, 0.000000000000000000 ) ) ;
#289 = ORIENTED_EDGE ( 'NONE', *, *, #640, .T. ) ;
#290 = AXIS2_PLACEMENT_3D ( 'NONE', #420, #308, #785 ) ;
#291 = CARTESIAN_POINT ( 'NONE',  ( 35.75000000000000711, 5.000000000000000000, 12.90000000000000924 ) ) ;
#292 = ORIENTED_EDGE ( 'NONE', *, *, #593, .F. ) ;
#293 = DIRECTION ( 'NONE',  ( 1.000000000000000000, 0.000000000000000000, 0.000000000000000000 ) ) ;
#294 = EDGE_CURVE ( 'NONE', #468, #494, #543, .T. ) ;
#295 = EDGE_LOOP ( 'NONE', ( #146, #68, #799, #809 ) ) ;
#296 = FACE_OUTER_BOUND ( 'NONE', #383, .T. ) ;
#297 = DIRECTION ( 'NONE',  ( -1.000000000000000000, -0.000000000000000000, -0.000000000000000000 ) ) ;
#298 = VERTEX_POINT ( 'NONE', #199 ) ;
#299 = DIRECTION ( 'NONE',  ( 0.000000000000000000, 0.000000000000000000, 1.000000000000000000 ) ) ;
#300 = PLANE ( 'NONE',  #223 ) ;
#301 = ORIENTED_EDGE ( 'NONE', *, *, #527, .F. ) ;
#302 = CIRCLE ( 'NONE', #99, 3.000000000000000000 ) ;
#303 =( LENGTH_UNIT ( ) NAMED_UNIT ( * ) SI_UNIT ( .MILLI., .METRE. ) );
#304 = FACE_OUTER_BOUND ( 'NONE', #522, .T. ) ;
#305 = CC_DESIGN_PERSON_AND_ORGANIZATION_ASSIGNMENT ( #67, #196, ( #516 ) ) ;
#306 = CARTESIAN_POINT ( 'NONE',  ( -11.25000000000000000, 5.000000000000000000, 0.000000000000000000 ) ) ;
#307 = ORIENTED_EDGE ( 'NONE', *, *, #802, .T. ) ;
#308 = DIRECTION ( 'NONE',  ( -0.000000000000000000, -0.000000000000000000, 1.000000000000000000 ) ) ;
#309 = CARTESIAN_POINT ( 'NONE',  ( -10.00000000000000000, -9.849999999999999645, -30.00000000000000000 ) ) ;
#310 = FACE_OUTER_BOUND ( 'NONE', #778, .T. ) ;
#311 = AXIS2_PLACEMENT_3D ( 'NONE', #429, #184, #635 ) ;
#312 = LINE ( 'NONE', #252, #349 ) ;
#313 = ORIENTED_EDGE ( 'NONE', *, *, #55, .F. ) ;
#314 = PERSON_AND_ORGANIZATION ( #843, #822 ) ;
#315 = FACE_OUTER_BOUND ( 'NONE', #159, .T. ) ;
#316 = FACE_OUTER_BOUND ( 'NONE', #371, .T. ) ;
#317 = ORIENTED_EDGE ( 'NONE', *, *, #807, .F. ) ;
#318 = VECTOR ( 'NONE', #297, 1000.000000000000000 ) ;
#319 = AXIS2_PLACEMENT_3D ( 'NONE', #374, #646, #43 ) ;
#320 = APPROVAL_STATUS ( 'not_yet_approved' ) ;
#321 = DIRECTION ( 'NONE',  ( -1.000000000000000000, 0.000000000000000000, 0.000000000000000000 ) ) ;
#322 = EDGE_CURVE ( 'NONE', #494, #406, #554, .T. ) ;
#323 = ORIENTED_EDGE ( 'NONE', *, *, #868, .T. ) ;
#324 = EDGE_CURVE ( 'NONE', #274, #605, #417, .T. ) ;
#325 = APPROVAL ( #320, 'UNSPECIFIED' ) ;
#326 = VERTEX_POINT ( 'NONE', #532 ) ;
#327 = APPLICATION_PROTOCOL_DEFINITION ( 'international standard', 'config_control_design', 1994, #728 ) ;
#328 = EDGE_LOOP ( 'NONE', ( #34, #712 ) ) ;
#329 = SECURITY_CLASSIFICATION_LEVEL ( 'unclassified' ) ;
#330 = LOCAL_TIME ( 16, 4, 2.000000000000000000, #863 ) ;
#331 = ORIENTED_EDGE ( 'NONE', *, *, #357, .T. ) ;
#332 = CYLINDRICAL_SURFACE ( 'NONE', #600, 3.000000000000000000 ) ;
#333 = ORIENTED_EDGE ( 'NONE', *, *, #699, .T. ) ;
#334 = VECTOR ( 'NONE', #501, 1000.000000000000000 ) ;
#335 = ORIENTED_EDGE ( 'NONE', *, *, #257, .T. ) ;
#336 = PLANE ( 'NONE',  #688 ) ;
#337 = PLANE ( 'NONE',  #397 ) ;
#338 = ORIENTED_EDGE ( 'NONE', *, *, #517, .T. ) ;
#339 = DIRECTION ( 'NONE',  ( 0.000000000000000000, 0.000000000000000000, -1.000000000000000000 ) ) ;
#340 = EDGE_CURVE ( 'NONE', #602, #31, #575, .T. ) ;
#341 = DIRECTION ( 'NONE',  ( -0.000000000000000000, -0.000000000000000000, 1.000000000000000000 ) ) ;
#342 = FACE_BOUND ( 'NONE', #698, .T. ) ;
#343 = CARTESIAN_POINT ( 'NONE',  ( -14.75000000000000000, 5.000000000000000000, 0.000000000000000000 ) ) ;
#344 = CIRCLE ( 'NONE', #459, 3.000000000000000000 ) ;
#345 = DIRECTION ( 'NONE',  ( 0.000000000000000000, 0.000000000000000000, -1.000000000000000000 ) ) ;
#346 = ADVANCED_FACE ( 'NONE', ( #125 ), #332, .T. ) ;
#347 = FACE_BOUND ( 'NONE', #404, .T. ) ;
#348 = ORIENTED_EDGE ( 'NONE', *, *, #848, .F. ) ;
#349 = VECTOR ( 'NONE', #39, 1000.000000000000000 ) ;
#350 = FACE_OUTER_BOUND ( 'NONE', #663, .T. ) ;
#351 = CARTESIAN_POINT ( 'NONE',  ( 30.69999999999999929, -9.849999999999999645, 6.999999999999999112 ) ) ;
#352 = CARTESIAN_POINT ( 'NONE',  ( -14.75000000000000000, 5.000000000000000000, -2.999999999999999112 ) ) ;
#353 = VECTOR ( 'NONE', #832, 1000.000000000000000 ) ;
#354 = CARTESIAN_POINT ( 'NONE',  ( -11.25000000000000000, 5.000000000000000000, 12.90000000000000924 ) ) ;
#355 = ORIENTED_EDGE ( 'NONE', *, *, #802, .F. ) ;
#356 = ADVANCED_FACE ( 'NONE', ( #347, #407, #823 ), #7, .F. ) ;
#357 = EDGE_CURVE ( 'NONE', #839, #361, #362, .T. ) ;
#358 = DIRECTION ( 'NONE',  ( -0.000000000000000000, -0.000000000000000000, 1.000000000000000000 ) ) ;
#359 = ADVANCED_FACE ( 'NONE', ( #618, #813 ), #336, .F. ) ;
#360 = CARTESIAN_POINT ( 'NONE',  ( 3.000000000000000000, 3.673940397442059868E-16, 12.90000000000000213 ) ) ;
#361 = VERTEX_POINT ( 'NONE', #140 ) ;
#362 = CIRCLE ( 'NONE', #792, 1.750000000000001554 ) ;
#363 = DIRECTION ( 'NONE',  ( 1.000000000000000000, 0.000000000000000000, 0.000000000000000000 ) ) ;
#364 = CARTESIAN_POINT ( 'NONE',  ( -16.50000000000000000, -9.849999999999999645, 0.000000000000000000 ) ) ;
#365 = AXIS2_PLACEMENT_3D ( 'NONE', #243, #844, #497 ) ;
#366 = ORIENTED_EDGE ( 'NONE', *, *, #85, .T. ) ;
#367 = VECTOR ( 'NONE', #369, 1000.000000000000000 ) ;
#368 = DIRECTION ( 'NONE',  ( 1.000000000000000000, 0.000000000000000000, 0.000000000000000000 ) ) ;
#369 = DIRECTION ( 'NONE',  ( -0.000000000000000000, -0.000000000000000000, -1.000000000000000000 ) ) ;
#370 = FACE_OUTER_BOUND ( 'NONE', #545, .T. ) ;
#371 = EDGE_LOOP ( 'NONE', ( #476, #804, #744, #267 ) ) ;
#372 = EDGE_CURVE ( 'NONE', #533, #442, #717, .T. ) ;
#373 = DIRECTION ( 'NONE',  ( -0.000000000000000000, -0.000000000000000000, -1.000000000000000000 ) ) ;
#374 = CARTESIAN_POINT ( 'NONE',  ( 0.000000000000000000, 0.000000000000000000, -30.00000000000000000 ) ) ;
#375 = CYLINDRICAL_SURFACE ( 'NONE', #436, 3.000000000000000000 ) ;
#376 = VERTEX_POINT ( 'NONE', #269 ) ;
#377 = EDGE_CURVE ( 'NONE', #205, #265, #747, .T. ) ;
#378 = CARTESIAN_POINT ( 'NONE',  ( 30.69999999999999929, -9.849999999999999645, -30.00000000000000000 ) ) ;
#379 = FACE_OUTER_BOUND ( 'NONE', #591, .T. ) ;
#380 = DIRECTION ( 'NONE',  ( -1.000000000000000000, 0.000000000000000000, 0.000000000000000000 ) ) ;
#381 = ORIENTED_EDGE ( 'NONE', *, *, #416, .F. ) ;
#382 = PRODUCT_DEFINITION_FORMATION_WITH_SPECIFIED_SOURCE ( 'ANY', '', #733, .NOT_KNOWN. ) ;
#383 = EDGE_LOOP ( 'NONE', ( #75, #5, #381, #271 ) ) ;
#384 = CALENDAR_DATE ( 2026, 7, 9 ) ;
#385 = LINE ( 'NONE', #508, #151 ) ;
#386 = VECTOR ( 'NONE', #232, 1000.000000000000000 ) ;
#387 = LINE ( 'NONE', #509, #776 ) ;
#388 = ORIENTED_EDGE ( 'NONE', *, *, #765, .F. ) ;
#389 = APPROVAL_ROLE ( '' ) ;
#390 = CARTESIAN_POINT ( 'NONE',  ( 0.000000000000000000, 0.000000000000000000, 0.000000000000000000 ) ) ;
#391 = ADVANCED_FACE ( 'NONE', ( #471 ), #144, .F. ) ;
#392 = DIRECTION ( 'NONE',  ( -1.000000000000000000, 0.000000000000000000, 0.000000000000000000 ) ) ;
#393 = ORIENTED_EDGE ( 'NONE', *, *, #686, .T. ) ;
#394 = EDGE_CURVE ( 'NONE', #396, #835, #22, .T. ) ;
#395 = AXIS2_PLACEMENT_3D ( 'NONE', #122, #112, #567 ) ;
#396 = VERTEX_POINT ( 'NONE', #88 ) ;
#397 = AXIS2_PLACEMENT_3D ( 'NONE', #13, #609, #619 ) ;
#398 = ORIENTED_EDGE ( 'NONE', *, *, #637, .T. ) ;
#399 = PERSON_AND_ORGANIZATION ( #843, #822 ) ;
#400 = ADVANCED_FACE ( 'NONE', ( #286 ), #828, .F. ) ;
#401 = ORIENTED_EDGE ( 'NONE', *, *, #703, .F. ) ;
#402 = VERTEX_POINT ( 'NONE', #759 ) ;
#403 = CARTESIAN_POINT ( 'NONE',  ( 0.000000000000000000, 0.000000000000000000, 6.999999999999999112 ) ) ;
#404 = EDGE_LOOP ( 'NONE', ( #819, #470 ) ) ;
#405 = VECTOR ( 'NONE', #259, 1000.000000000000000 ) ;
#406 = VERTEX_POINT ( 'NONE', #156 ) ;
#407 = FACE_BOUND ( 'NONE', #2, .T. ) ;
#408 = CARTESIAN_POINT ( 'NONE',  ( -11.25000000000000000, -5.000000000000000000, 0.000000000000000000 ) ) ;
#409 = EDGE_LOOP ( 'NONE', ( #71, #26, #40, #457 ) ) ;
#410 = VECTOR ( 'NONE', #641, 1000.000000000000000 ) ;
#411 = ORIENTED_EDGE ( 'NONE', *, *, #78, .F. ) ;
#412 = DIRECTION ( 'NONE',  ( -0.000000000000000000, -0.000000000000000000, -1.000000000000000000 ) ) ;
#413 = CARTESIAN_POINT ( 'NONE',  ( -13.00000000000000000, 5.000000000000000000, 12.90000000000000924 ) ) ;
#414 = EDGE_CURVE ( 'NONE', #427, #465, #743, .T. ) ;
#415 = CARTESIAN_POINT ( 'NONE',  ( 35.75000000000000711, -5.000000000000000000, 12.90000000000000924 ) ) ;
#416 = EDGE_CURVE ( 'NONE', #200, #326, #594, .T. ) ;
#417 = LINE ( 'NONE', #79, #547 ) ;
#418 = CARTESIAN_POINT ( 'NONE',  ( 37.20000000000000284, -9.849999999999999645, -3.000000000000000000 ) ) ;
#419 = DIRECTION ( 'NONE',  ( 1.000000000000000000, 0.000000000000000000, 0.000000000000000000 ) ) ;
#420 = CARTESIAN_POINT ( 'NONE',  ( 34.00000000000000000, 5.000000000000000000, -2.999999999999999112 ) ) ;
#421 = CARTESIAN_POINT ( 'NONE',  ( -10.00000000000000000, 9.849999999999999645, 6.999999999999999112 ) ) ;
#422 = LINE ( 'NONE', #354, #536 ) ;
#423 = DIRECTION ( 'NONE',  ( -0.000000000000000000, -0.000000000000000000, 1.000000000000000000 ) ) ;
#424 = ORIENTED_EDGE ( 'NONE', *, *, #500, .T. ) ;
#425 = VECTOR ( 'NONE', #630, 1000.000000000000000 ) ;
#426 = ORIENTED_EDGE ( 'NONE', *, *, #107, .T. ) ;
#427 = VERTEX_POINT ( 'NONE', #833 ) ;
#428 = LINE ( 'NONE', #291, #241 ) ;
#429 = CARTESIAN_POINT ( 'NONE',  ( -13.00000000000000000, 5.000000000000000000, -2.999999999999999112 ) ) ;
#430 = LINE ( 'NONE', #549, #849 ) ;
#431 = ORIENTED_EDGE ( 'NONE', *, *, #518, .T. ) ;
#432 = VECTOR ( 'NONE', #754, 1000.000000000000000 ) ;
#433 = DIRECTION ( 'NONE',  ( -0.000000000000000000, -0.000000000000000000, 1.000000000000000000 ) ) ;
#434 = DIRECTION ( 'NONE',  ( -1.000000000000000000, 0.000000000000000000, 0.000000000000000000 ) ) ;
#435 = DIRECTION ( 'NONE',  ( 1.000000000000000000, 0.000000000000000000, -0.000000000000000000 ) ) ;
#436 = AXIS2_PLACEMENT_3D ( 'NONE', #582, #189, #782 ) ;
#437 = VERTEX_POINT ( 'NONE', #758 ) ;
#438 = CC_DESIGN_DATE_AND_TIME_ASSIGNMENT ( #138, #124, ( #261 ) ) ;
#439 = CARTESIAN_POINT ( 'NONE',  ( 37.20000000000000284, -9.849999999999999645, 0.000000000000000000 ) ) ;
#440 = LINE ( 'NONE', #539, #478 ) ;
#441 = EDGE_CURVE ( 'NONE', #402, #741, #473, .T. ) ;
#442 = VERTEX_POINT ( 'NONE', #830 ) ;
#443 = CARTESIAN_POINT ( 'NONE',  ( 32.25000000000000000, 5.000000000000000000, 12.90000000000000924 ) ) ;
#444 = CARTESIAN_POINT ( 'NONE',  ( 30.69999999999999929, -9.849999999999999645, -30.00000000000000000 ) ) ;
#445 = FACE_OUTER_BOUND ( 'NONE', #648, .T. ) ;
#446 = ORIENTED_EDGE ( 'NONE', *, *, #131, .F. ) ;
#447 = AXIS2_PLACEMENT_3D ( 'NONE', #21, #632, #293 ) ;
#448 = ORIENTED_EDGE ( 'NONE', *, *, #191, .F. ) ;
#449 = PLANE ( 'NONE',  #198 ) ;
#450 = CARTESIAN_POINT ( 'NONE',  ( -13.00000000000000000, -5.000000000000000000, 12.90000000000000924 ) ) ;
#451 = ORIENTED_EDGE ( 'NONE', *, *, #462, .F. ) ;
#452 = AXIS2_PLACEMENT_3D ( 'NONE', #100, #645, #36 ) ;
#453 = EDGE_CURVE ( 'NONE', #274, #396, #772, .T. ) ;
#454 = CARTESIAN_POINT ( 'NONE',  ( -16.50000000000000000, -9.849999999999999645, 0.000000000000000000 ) ) ;
#455 = EDGE_CURVE ( 'NONE', #491, #564, #344, .T. ) ;
#456 = LINE ( 'NONE', #711, #318 ) ;
#457 = ORIENTED_EDGE ( 'NONE', *, *, #394, .T. ) ;
#458 = ORIENTED_EDGE ( 'NONE', *, *, #24, .F. ) ;
#459 = AXIS2_PLACEMENT_3D ( 'NONE', #25, #636, #697 ) ;
#460 = MECHANICAL_CONTEXT ( 'NONE', #617, 'mechanical' ) ;
#461 = VERTEX_POINT ( 'NONE', #222 ) ;
#462 = EDGE_CURVE ( 'NONE', #564, #491, #302, .T. ) ;
#463 = VECTOR ( 'NONE', #817, 1000.000000000000000 ) ;
#464 = DATE_TIME_ROLE ( 'classification_date' ) ;
#465 = VERTEX_POINT ( 'NONE', #827 ) ;
#466 = VECTOR ( 'NONE', #81, 1000.000000000000000 ) ;
#467 = DIRECTION ( 'NONE',  ( -1.000000000000000000, 0.000000000000000000, 0.000000000000000000 ) ) ;
#468 = VERTEX_POINT ( 'NONE', #484 ) ;
#469 = PERSON_AND_ORGANIZATION ( #843, #822 ) ;
#470 = ORIENTED_EDGE ( 'NONE', *, *, #868, .F. ) ;
#471 = FACE_OUTER_BOUND ( 'NONE', #262, .T. ) ;
#472 = EDGE_LOOP ( 'NONE', ( #123, #323, #510, #559 ) ) ;
#473 = CIRCLE ( 'NONE', #613, 1.749999999999999778 ) ;
#474 = ORIENTED_EDGE ( 'NONE', *, *, #518, .F. ) ;
#475 = CARTESIAN_POINT ( 'NONE',  ( -13.00000000000000000, -5.000000000000000000, -2.999999999999999112 ) ) ;
#476 = ORIENTED_EDGE ( 'NONE', *, *, #90, .F. ) ;
#477 = EDGE_CURVE ( 'NONE', #442, #533, #27, .T. ) ;
#478 = VECTOR ( 'NONE', #8, 1000.000000000000000 ) ;
#479 = CC_DESIGN_PERSON_AND_ORGANIZATION_ASSIGNMENT ( #534, #64, ( #261 ) ) ;
#480 = CARTESIAN_POINT ( 'NONE',  ( -16.50000000000000000, -9.849999999999999645, -3.000000000000000000 ) ) ;
#481 = CARTESIAN_POINT ( 'NONE',  ( -13.00000000000000000, -5.000000000000000000, -2.999999999999999112 ) ) ;
#482 = CARTESIAN_POINT ( 'NONE',  ( -16.50000000000000000, 9.849999999999999645, 0.000000000000000000 ) ) ;
#483 = DIRECTION ( 'NONE',  ( -0.000000000000000000, -1.000000000000000000, -0.000000000000000000 ) ) ;
#484 = CARTESIAN_POINT ( 'NONE',  ( -10.00000000000000178, -9.849999999999999645, 0.000000000000000000 ) ) ;
#485 = DIRECTION ( 'NONE',  ( 0.000000000000000000, 0.000000000000000000, 1.000000000000000000 ) ) ;
#486 = LINE ( 'NONE', #421, #103 ) ;
#487 = DIRECTION ( 'NONE',  ( 0.000000000000000000, -1.000000000000000000, 0.000000000000000000 ) ) ;
#488 = VECTOR ( 'NONE', #709, 1000.000000000000000 ) ;
#489 = DIRECTION ( 'NONE',  ( -1.000000000000000000, 0.000000000000000000, 0.000000000000000000 ) ) ;
#490 = CARTESIAN_POINT ( 'NONE',  ( 0.000000000000000000, 0.000000000000000000, 12.90000000000000213 ) ) ;
#491 = VERTEX_POINT ( 'NONE', #360 ) ;
#492 = LINE ( 'NONE', #104, #668 ) ;
#493 = DIRECTION ( 'NONE',  ( -1.000000000000000000, 0.000000000000000000, 0.000000000000000000 ) ) ;
#494 = VERTEX_POINT ( 'NONE', #219 ) ;
#495 = DIRECTION ( 'NONE',  ( 0.000000000000000000, 0.000000000000000000, 1.000000000000000000 ) ) ;
#496 = DIRECTION ( 'NONE',  ( 1.000000000000000000, 0.000000000000000000, 0.000000000000000000 ) ) ;
#497 = DIRECTION ( 'NONE',  ( -1.000000000000000000, 0.000000000000000000, 0.000000000000000000 ) ) ;
#498 = ORIENTED_EDGE ( 'NONE', *, *, #66, .T. ) ;
#499 = AXIS2_PLACEMENT_3D ( 'NONE', #475, #341, #467 ) ;
#500 = EDGE_CURVE ( 'NONE', #465, #427, #589, .T. ) ;
#501 = DIRECTION ( 'NONE',  ( -1.000000000000000000, -0.000000000000000000, -0.000000000000000000 ) ) ;
#502 = PLANE ( 'NONE',  #319 ) ;
#503 = DIRECTION ( 'NONE',  ( -1.000000000000000000, -0.000000000000000000, -0.000000000000000000 ) ) ;
#504 = CIRCLE ( 'NONE', #254, 1.750000000000001554 ) ;
#505 = EDGE_LOOP ( 'NONE', ( #845, #670, #194, #289 ) ) ;
#506 = VECTOR ( 'NONE', #771, 1000.000000000000000 ) ;
#507 = CARTESIAN_POINT ( 'NONE',  ( -10.00000000000000000, 9.849999999999999645, 6.999999999999999112 ) ) ;
#508 = CARTESIAN_POINT ( 'NONE',  ( 37.20000000000000284, -9.849999999999999645, 0.000000000000000000 ) ) ;
#509 = CARTESIAN_POINT ( 'NONE',  ( -10.00000000000000000, -9.849999999999999645, -30.00000000000000000 ) ) ;
#510 = ORIENTED_EDGE ( 'NONE', *, *, #169, .T. ) ;
#511 = DIRECTION ( 'NONE',  ( -0.000000000000000000, -0.000000000000000000, -1.000000000000000000 ) ) ;
#512 = DIRECTION ( 'NONE',  ( -0.000000000000000000, -0.000000000000000000, 1.000000000000000000 ) ) ;
#513 = ORIENTED_EDGE ( 'NONE', *, *, #117, .F. ) ;
#514 = EDGE_CURVE ( 'NONE', #867, #839, #97, .T. ) ;
#515 = AXIS2_PLACEMENT_3D ( 'NONE', #481, #166, #30 ) ;
#516 = SECURITY_CLASSIFICATION ( '', '', #329 ) ;
#517 = EDGE_CURVE ( 'NONE', #741, #442, #430, .T. ) ;
#518 = EDGE_CURVE ( 'NONE', #116, #461, #818, .T. ) ;
#519 = COORDINATED_UNIVERSAL_TIME_OFFSET ( 6, 0, .BEHIND. ) ;
#520 = DIRECTION ( 'NONE',  ( -1.000000000000000000, 0.000000000000000000, 0.000000000000000000 ) ) ;
#521 = LINE ( 'NONE', #707, #627 ) ;
#522 = EDGE_LOOP ( 'NONE', ( #704, #749, #49, #803 ) ) ;
#523 = VECTOR ( 'NONE', #373, 1000.000000000000000 ) ;
#524 = CIRCLE ( 'NONE', #91, 1.750000000000001554 ) ;
#525 = ORIENTED_EDGE ( 'NONE', *, *, #63, .T. ) ;
#526 = APPROVAL_STATUS ( 'not_yet_approved' ) ;
#527 = EDGE_CURVE ( 'NONE', #806, #794, #563, .T. ) ;
#528 = EDGE_LOOP ( 'NONE', ( #401, #148, #411, #727 ) ) ;
#529 = PERSON_AND_ORGANIZATION ( #843, #822 ) ;
#530 = EDGE_CURVE ( 'NONE', #264, #468, #840, .T. ) ;
#531 = ORIENTED_EDGE ( 'NONE', *, *, #514, .T. ) ;
#532 = CARTESIAN_POINT ( 'NONE',  ( 30.69999999999999929, 9.849999999999999645, -30.00000000000000000 ) ) ;
#533 = VERTEX_POINT ( 'NONE', #821 ) ;
#534 = PERSON_AND_ORGANIZATION ( #843, #822 ) ;
#535 = ORIENTED_EDGE ( 'NONE', *, *, #569, .T. ) ;
#536 = VECTOR ( 'NONE', #626, 1000.000000000000000 ) ;
#537 = DESIGN_CONTEXT ( 'detailed design', #728, 'design' ) ;
#538 = CARTESIAN_POINT ( 'NONE',  ( 37.20000000000000284, -9.849999999999999645, 0.000000000000000000 ) ) ;
#539 = CARTESIAN_POINT ( 'NONE',  ( -10.00000000000000000, -9.849999999999999645, -2.999999999999999112 ) ) ;
#540 = ORIENTED_EDGE ( 'NONE', *, *, #394, .F. ) ;
#541 = ORIENTED_EDGE ( 'NONE', *, *, #824, .F. ) ;
#542 = ADVANCED_FACE ( 'NONE', ( #17 ), #553, .F. ) ;
#543 = LINE ( 'NONE', #673, #130 ) ;
#544 = LINE ( 'NONE', #157, #463 ) ;
#545 = EDGE_LOOP ( 'NONE', ( #734, #525, #431, #244 ) ) ;
#546 = ADVANCED_FACE ( 'NONE', ( #350 ), #623, .T. ) ;
#547 = VECTOR ( 'NONE', #742, 1000.000000000000000 ) ;
#548 = DIRECTION ( 'NONE',  ( 0.000000000000000000, 0.000000000000000000, -1.000000000000000000 ) ) ;
#549 = CARTESIAN_POINT ( 'NONE',  ( -11.25000000000000000, -5.000000000000000000, 12.90000000000000924 ) ) ;
#550 = DIRECTION ( 'NONE',  ( 1.000000000000000000, 0.000000000000000000, 0.000000000000000000 ) ) ;
#551 = VECTOR ( 'NONE', #89, 1000.000000000000000 ) ;
#552 = FACE_BOUND ( 'NONE', #583, .T. ) ;
#553 = PLANE ( 'NONE',  #143 ) ;
#554 = LINE ( 'NONE', #482, #14 ) ;
#555 = ORIENTED_EDGE ( 'NONE', *, *, #848, .T. ) ;
#556 = CC_DESIGN_PERSON_AND_ORGANIZATION_ASSIGNMENT ( #469, #128, ( #733 ) ) ;
#557 = CARTESIAN_POINT ( 'NONE',  ( 32.25000000000000000, -5.000000000000000000, 12.90000000000000924 ) ) ;
#558 = VECTOR ( 'NONE', #288, 1000.000000000000000 ) ;
#559 = ORIENTED_EDGE ( 'NONE', *, *, #477, .F. ) ;
#560 = APPROVAL_PERSON_ORGANIZATION ( #399, #109, #669 ) ;
#561 = CARTESIAN_POINT ( 'NONE',  ( 35.75000000000000711, -5.000000000000000000, -2.999999999999999112 ) ) ;
#562 = ORIENTED_EDGE ( 'NONE', *, *, #117, .T. ) ;
#563 = LINE ( 'NONE', #93, #183 ) ;
#564 = VERTEX_POINT ( 'NONE', #722 ) ;
#565 = DIRECTION ( 'NONE',  ( -0.000000000000000000, -0.000000000000000000, -1.000000000000000000 ) ) ;
#566 = CARTESIAN_POINT ( 'NONE',  ( -10.00000000000000000, 9.849999999999999645, 6.999999999999999112 ) ) ;
#567 = DIRECTION ( 'NONE',  ( -1.000000000000000000, 0.000000000000000000, 0.000000000000000000 ) ) ;
#568 = ORIENTED_EDGE ( 'NONE', *, *, #52, .T. ) ;
#569 = EDGE_CURVE ( 'NONE', #675, #376, #456, .T. ) ;
#570 = ADVANCED_FACE ( 'NONE', ( #316 ), #777, .F. ) ;
#571 = LINE ( 'NONE', #854, #334 ) ;
#572 = LINE ( 'NONE', #642, #386 ) ;
#573 = DIRECTION ( 'NONE',  ( 0.000000000000000000, 0.000000000000000000, -1.000000000000000000 ) ) ;
#574 = ORIENTED_EDGE ( 'NONE', *, *, #203, .T. ) ;
#575 = CIRCLE ( 'NONE', #168, 1.749999999999999778 ) ;
#576 = CYLINDRICAL_SURFACE ( 'NONE', #249, 1.749999999999999778 ) ;
#577 = DIRECTION ( 'NONE',  ( -0.000000000000000000, -0.000000000000000000, 1.000000000000000000 ) ) ;
#578 = EDGE_LOOP ( 'NONE', ( #633, #186 ) ) ;
#579 = VECTOR ( 'NONE', #487, 1000.000000000000000 ) ;
#580 = CARTESIAN_POINT ( 'NONE',  ( -14.75000000000000000, 5.000000000000000000, 12.90000000000000924 ) ) ;
#581 = PLANE ( 'NONE',  #858 ) ;
#582 = CARTESIAN_POINT ( 'NONE',  ( 0.000000000000000000, 0.000000000000000000, 12.90000000000000213 ) ) ;
#583 = EDGE_LOOP ( 'NONE', ( #681, #141 ) ) ;
#584 = EDGE_CURVE ( 'NONE', #298, #794, #387, .T. ) ;
#585 = CALENDAR_DATE ( 2026, 7, 9 ) ;
#586 = DIRECTION ( 'NONE',  ( -0.000000000000000000, -0.000000000000000000, -1.000000000000000000 ) ) ;
#587 = FACE_BOUND ( 'NONE', #578, .T. ) ;
#588 = ORIENTED_EDGE ( 'NONE', *, *, #24, .T. ) ;
#589 = CIRCLE ( 'NONE', #208, 1.750000000000001554 ) ;
#590 = DIRECTION ( 'NONE',  ( 0.000000000000000000, 0.000000000000000000, -1.000000000000000000 ) ) ;
#591 = EDGE_LOOP ( 'NONE', ( #192, #9, #740, #535, #393, #333, #815, #719, #783, #70, #142, #540 ) ) ;
#592 = MANIFOLD_SOLID_BREP ( 'Tab_holes_nominal', #639 ) ;
#593 = EDGE_CURVE ( 'NONE', #437, #200, #521, .T. ) ;
#594 = LINE ( 'NONE', #378, #405 ) ;
#595 = VECTOR ( 'NONE', #483, 1000.000000000000000 ) ;
#596 = EDGE_LOOP ( 'NONE', ( #62, #366, #113, #812 ) ) ;
#597 = EDGE_CURVE ( 'NONE', #672, #867, #779, .T. ) ;
#598 = CALENDAR_DATE ( 2026, 7, 9 ) ;
#599 = ORIENTED_EDGE ( 'NONE', *, *, #258, .T. ) ;
#600 = AXIS2_PLACEMENT_3D ( 'NONE', #255, #83, #277 ) ;
#601 = DATE_AND_TIME ( #384, #236 ) ;
#602 = VERTEX_POINT ( 'NONE', #306 ) ;
#603 = AXIS2_PLACEMENT_3D ( 'NONE', #450, #115, #861 ) ;
#604 = DIRECTION ( 'NONE',  ( 0.000000000000000000, 0.000000000000000000, -1.000000000000000000 ) ) ;
#605 = VERTEX_POINT ( 'NONE', #44 ) ;
#606 = EDGE_LOOP ( 'NONE', ( #167, #474 ) ) ;
#607 = ADVANCED_FACE ( 'NONE', ( #370 ), #375, .T. ) ;
#608 = DIRECTION ( 'NONE',  ( -1.000000000000000000, 0.000000000000000000, 0.000000000000000000 ) ) ;
#609 = DIRECTION ( 'NONE',  ( 0.000000000000000000, 0.000000000000000000, -1.000000000000000000 ) ) ;
#610 = EDGE_LOOP ( 'NONE', ( #163, #531, #102, #108 ) ) ;
#611 = CARTESIAN_POINT ( 'NONE',  ( -16.50000000000000000, 9.849999999999999645, -3.000000000000000000 ) ) ;
#612 = CARTESIAN_POINT ( 'NONE',  ( 0.000000000000000000, 0.000000000000000000, 7.000000000000000000 ) ) ;
#613 = AXIS2_PLACEMENT_3D ( 'NONE', #281, #423, #493 ) ;
#614 = CC_DESIGN_SECURITY_CLASSIFICATION ( #516, ( #382 ) ) ;
#615 = FACE_OUTER_BOUND ( 'NONE', #596, .T. ) ;
#616 = DIRECTION ( 'NONE',  ( 1.000000000000000000, 0.000000000000000000, 0.000000000000000000 ) ) ;
#617 = APPLICATION_CONTEXT ( 'configuration controlled 3d designs of mechanical parts and assemblies' ) ;
#618 = FACE_BOUND ( 'NONE', #606, .T. ) ;
#619 = DIRECTION ( 'NONE',  ( -1.000000000000000000, 0.000000000000000000, -0.000000000000000000 ) ) ;
#620 = CIRCLE ( 'NONE', #721, 1.750000000000001554 ) ;
#621 = CC_DESIGN_PERSON_AND_ORGANIZATION_ASSIGNMENT ( #529, #805, ( #382 ) ) ;
#622 = CARTESIAN_POINT ( 'NONE',  ( 30.69999999999999929, -9.849999999999999645, -2.999999999999999112 ) ) ;
#623 = PLANE ( 'NONE',  #702 ) ;
#624 = AXIS2_PLACEMENT_3D ( 'NONE', #165, #548, #76 ) ;
#625 = DIRECTION ( 'NONE',  ( -1.000000000000000000, 0.000000000000000000, 0.000000000000000000 ) ) ;
#626 = DIRECTION ( 'NONE',  ( 0.000000000000000000, 0.000000000000000000, -1.000000000000000000 ) ) ;
#627 = VECTOR ( 'NONE', #48, 1000.000000000000000 ) ;
#628 = ORIENTED_EDGE ( 'NONE', *, *, #514, .F. ) ;
#629 = DIRECTION ( 'NONE',  ( 0.000000000000000000, 0.000000000000000000, -1.000000000000000000 ) ) ;
#630 = DIRECTION ( 'NONE',  ( -0.000000000000000000, -0.000000000000000000, -1.000000000000000000 ) ) ;
#631 = VECTOR ( 'NONE', #412, 1000.000000000000000 ) ;
#632 = DIRECTION ( 'NONE',  ( 0.000000000000000000, 0.000000000000000000, 1.000000000000000000 ) ) ;
#633 = ORIENTED_EDGE ( 'NONE', *, *, #372, .T. ) ;
#634 = VECTOR ( 'NONE', #748, 1000.000000000000000 ) ;
#635 = DIRECTION ( 'NONE',  ( -1.000000000000000000, 0.000000000000000000, 0.000000000000000000 ) ) ;
#636 = DIRECTION ( 'NONE',  ( 0.000000000000000000, 0.000000000000000000, 1.000000000000000000 ) ) ;
#637 = EDGE_CURVE ( 'NONE', #31, #602, #149, .T. ) ;
#638 = ORIENTED_EDGE ( 'NONE', *, *, #377, .F. ) ;
#639 = CLOSED_SHELL ( 'NONE', ( #41, #206, #667, #15, #607, #136, #147, #11, #542, #400, #228, #359, #218, #214, #757, #77, #356, #676, #172, #346, #546, #570, #230, #651, #391 ) ) ;
#640 = EDGE_CURVE ( 'NONE', #406, #264, #312, .T. ) ;
#641 = DIRECTION ( 'NONE',  ( 0.000000000000000000, 0.000000000000000000, -1.000000000000000000 ) ) ;
#642 = CARTESIAN_POINT ( 'NONE',  ( -14.75000000000000000, -5.000000000000000000, 12.90000000000000924 ) ) ;
#643 = DIRECTION ( 'NONE',  ( -0.000000000000000000, -1.000000000000000000, -0.000000000000000000 ) ) ;
#644 = ORIENTED_EDGE ( 'NONE', *, *, #500, .F. ) ;
#645 = DIRECTION ( 'NONE',  ( -0.000000000000000000, -0.000000000000000000, 1.000000000000000000 ) ) ;
#646 = DIRECTION ( 'NONE',  ( 0.000000000000000000, 0.000000000000000000, -1.000000000000000000 ) ) ;
#647 = CARTESIAN_POINT ( 'NONE',  ( 34.00000000000000000, -5.000000000000000000, 0.000000000000000000 ) ) ;
#648 = EDGE_LOOP ( 'NONE', ( #852, #338, #718, #65 ) ) ;
#649 = CARTESIAN_POINT ( 'NONE',  ( -13.00000000000000000, 5.000000000000000000, -2.999999999999999112 ) ) ;
#650 = FACE_OUTER_BOUND ( 'NONE', #723, .T. ) ;
#651 = ADVANCED_FACE ( 'NONE', ( #106 ), #856, .F. ) ;
#652 = FACE_OUTER_BOUND ( 'NONE', #528, .T. ) ;
#653 = ORIENTED_EDGE ( 'NONE', *, *, #294, .F. ) ;
#654 = VECTOR ( 'NONE', #363, 1000.000000000000000 ) ;
#655 = VERTEX_POINT ( 'NONE', #716 ) ;
#656 = DATE_AND_TIME ( #585, #32 ) ;
#657 = DIRECTION ( 'NONE',  ( 0.000000000000000000, -0.000000000000000000, -1.000000000000000000 ) ) ;
#658 = DIRECTION ( 'NONE',  ( -1.000000000000000000, 0.000000000000000000, 0.000000000000000000 ) ) ;
#659 = ORIENTED_EDGE ( 'NONE', *, *, #455, .T. ) ;
#660 = COORDINATED_UNIVERSAL_TIME_OFFSET ( 6, 0, .BEHIND. ) ;
#661 = CARTESIAN_POINT ( 'NONE',  ( 30.69999999999998508, 9.849999999999999645, 0.000000000000000000 ) ) ;
#662 = LINE ( 'NONE', #239, #18 ) ;
#663 = EDGE_LOOP ( 'NONE', ( #94, #659 ) ) ;
#664 = VECTOR ( 'NONE', #616, 1000.000000000000000 ) ;
#665 = CC_DESIGN_APPROVAL ( #876, ( #516 ) ) ;
#666 = ORIENTED_EDGE ( 'NONE', *, *, #324, .T. ) ;
#667 = ADVANCED_FACE ( 'NONE', ( #445 ), #181, .F. ) ;
#668 = VECTOR ( 'NONE', #770, 1000.000000000000000 ) ;
#669 = APPROVAL_ROLE ( '' ) ;
#670 = ORIENTED_EDGE ( 'NONE', *, *, #294, .T. ) ;
#671 = APPROVAL_DATE_TIME ( #56, #109 ) ;
#672 = VERTEX_POINT ( 'NONE', #247 ) ;
#673 = CARTESIAN_POINT ( 'NONE',  ( -10.00000000000000000, -9.849999999999999645, 0.000000000000000000 ) ) ;
#674 = AXIS2_PLACEMENT_3D ( 'NONE', #612, #188, #550 ) ;
#675 = VERTEX_POINT ( 'NONE', #798 ) ;
#676 = ADVANCED_FACE ( 'NONE', ( #587, #173, #652 ), #300, .T. ) ;
#677 = ORIENTED_EDGE ( 'NONE', *, *, #193, .T. ) ;
#678 = VECTOR ( 'NONE', #368, 1000.000000000000000 ) ;
#679 = CARTESIAN_POINT ( 'NONE',  ( 34.00000000000000000, 5.000000000000000000, 12.90000000000000924 ) ) ;
#680 = LINE ( 'NONE', #273, #634 ) ;
#681 = ORIENTED_EDGE ( 'NONE', *, *, #690, .F. ) ;
#682 = CYLINDRICAL_SURFACE ( 'NONE', #283, 1.749999999999999778 ) ;
#683 = DIRECTION ( 'NONE',  ( -0.000000000000000000, 1.000000000000000000, 0.000000000000000000 ) ) ;
#684 = DIRECTION ( 'NONE',  ( 0.000000000000000000, 0.000000000000000000, -1.000000000000000000 ) ) ;
#685 = CARTESIAN_POINT ( 'NONE',  ( 30.69999999999999929, -9.849999999999999645, 6.999999999999999112 ) ) ;
#686 = EDGE_CURVE ( 'NONE', #376, #326, #791, .T. ) ;
#687 = DIRECTION ( 'NONE',  ( -1.000000000000000000, 0.000000000000000000, 0.000000000000000000 ) ) ;
#688 = AXIS2_PLACEMENT_3D ( 'NONE', #403, #590, #808 ) ;
#689 = DIRECTION ( 'NONE',  ( 1.000000000000000000, 0.000000000000000000, 0.000000000000000000 ) ) ;
#690 = EDGE_CURVE ( 'NONE', #814, #240, #620, .T. ) ;
#691 = DIRECTION ( 'NONE',  ( -1.000000000000000000, -0.000000000000000000, -0.000000000000000000 ) ) ;
#692 = LINE ( 'NONE', #755, #551 ) ;
#693 = CARTESIAN_POINT ( 'NONE',  ( -10.00000000000000000, -9.849999999999999645, 6.999999999999999112 ) ) ;
#694 = DIRECTION ( 'NONE',  ( 0.000000000000000000, 0.000000000000000000, -1.000000000000000000 ) ) ;
#695 = ORIENTED_EDGE ( 'NONE', *, *, #690, .T. ) ;
#696 = FACE_OUTER_BOUND ( 'NONE', #190, .T. ) ;
#697 = DIRECTION ( 'NONE',  ( 1.000000000000000000, 0.000000000000000000, 0.000000000000000000 ) ) ;
#698 = EDGE_LOOP ( 'NONE', ( #270, #424 ) ) ;
#699 = EDGE_CURVE ( 'NONE', #326, #298, #662, .T. ) ;
#700 = CARTESIAN_POINT ( 'NONE',  ( 32.25000000000000000, 5.000000000000000000, 0.000000000000000000 ) ) ;
#701 = CARTESIAN_POINT ( 'NONE',  ( -16.50000000000000000, -9.849999999999999645, 0.000000000000000000 ) ) ;
#702 = AXIS2_PLACEMENT_3D ( 'NONE', #233, #53, #435 ) ;
#703 = EDGE_CURVE ( 'NONE', #806, #98, #440, .T. ) ;
#704 = ORIENTED_EDGE ( 'NONE', *, *, #78, .T. ) ;
#705 = LINE ( 'NONE', #245, #523 ) ;
#706 = FACE_OUTER_BOUND ( 'NONE', #472, .T. ) ;
#707 = CARTESIAN_POINT ( 'NONE',  ( 30.69999999999999929, -9.849999999999999645, 6.999999999999999112 ) ) ;
#708 = ORIENTED_EDGE ( 'NONE', *, *, #729, .T. ) ;
#709 = DIRECTION ( 'NONE',  ( 0.000000000000000000, 0.000000000000000000, -1.000000000000000000 ) ) ;
#710 = CARTESIAN_POINT ( 'NONE',  ( 30.69999999999999929, -9.849999999999999645, 6.999999999999999112 ) ) ;
#711 = CARTESIAN_POINT ( 'NONE',  ( -16.50000000000000000, 9.849999999999999645, -3.000000000000000000 ) ) ;
#712 = ORIENTED_EDGE ( 'NONE', *, *, #800, .T. ) ;
#713 = PRODUCT_RELATED_PRODUCT_CATEGORY ( 'detail', '', ( #733 ) ) ;
#714 =( NAMED_UNIT ( * ) PLANE_ANGLE_UNIT ( ) SI_UNIT ( $, .RADIAN. ) );
#715 = FACE_OUTER_BOUND ( 'NONE', #610, .T. ) ;
#716 = CARTESIAN_POINT ( 'NONE',  ( -10.00000000000000000, -9.849999999999999645, 6.999999999999999112 ) ) ;
#717 = CIRCLE ( 'NONE', #499, 1.749999999999999778 ) ;
#718 = ORIENTED_EDGE ( 'NONE', *, *, #372, .F. ) ;
#719 = ORIENTED_EDGE ( 'NONE', *, *, #769, .T. ) ;
#720 = LINE ( 'NONE', #51, #367 ) ;
#721 = AXIS2_PLACEMENT_3D ( 'NONE', #185, #126, #392 ) ;
#722 = CARTESIAN_POINT ( 'NONE',  ( -3.000000000000000000, 0.000000000000000000, 12.90000000000000213 ) ) ;
#723 = EDGE_LOOP ( 'NONE', ( #730, #448, #638, #562 ) ) ;
#724 = APPROVAL_DATE_TIME ( #656, #325 ) ;
#725 = CARTESIAN_POINT ( 'NONE',  ( -16.50000000000000000, 9.849999999999999645, 0.000000000000000000 ) ) ;
#726 = DIRECTION ( 'NONE',  ( -1.000000000000000000, 0.000000000000000000, -0.000000000000000000 ) ) ;
#727 = ORIENTED_EDGE ( 'NONE', *, *, #769, .F. ) ;
#728 = APPLICATION_CONTEXT ( 'configuration controlled 3d designs of mechanical parts and assemblies' ) ;
#729 = EDGE_CURVE ( 'NONE', #835, #494, #486, .T. ) ;
#730 = ORIENTED_EDGE ( 'NONE', *, *, #35, .T. ) ;
#731 = EDGE_CURVE ( 'NONE', #265, #256, #692, .T. ) ;
#732 = VECTOR ( 'NONE', #19, 1000.000000000000000 ) ;
#733 = PRODUCT ( 'HW-004_MG996R_NOMINAL_VERIFY', 'HW-004_MG996R_NOMINAL_VERIFY', '', ( #460 ) ) ;
#734 = ORIENTED_EDGE ( 'NONE', *, *, #455, .F. ) ;
#735 =( GEOMETRIC_REPRESENTATION_CONTEXT ( 3 ) GLOBAL_UNCERTAINTY_ASSIGNED_CONTEXT ( ( #38 ) ) GLOBAL_UNIT_ASSIGNED_CONTEXT ( ( #303, #714, #780 ) ) REPRESENTATION_CONTEXT ( 'NONE', 'WORKASPACE' ) );
#736 = COORDINATED_UNIVERSAL_TIME_OFFSET ( 6, 0, .BEHIND. ) ;
#737 = AXIS2_PLACEMENT_3D ( 'NONE', #285, #16, #279 ) ;
#738 = EDGE_LOOP ( 'NONE', ( #498, #331 ) ) ;
#739 = CARTESIAN_POINT ( 'NONE',  ( 34.00000000000000000, -5.000000000000000000, -2.999999999999999112 ) ) ;
#740 = ORIENTED_EDGE ( 'NONE', *, *, #191, .T. ) ;
#741 = VERTEX_POINT ( 'NONE', #408 ) ;
#742 = DIRECTION ( 'NONE',  ( -0.000000000000000000, -0.000000000000000000, -1.000000000000000000 ) ) ;
#743 = CIRCLE ( 'NONE', #290, 1.750000000000001554 ) ;
#744 = ORIENTED_EDGE ( 'NONE', *, *, #807, .T. ) ;
#745 = VERTEX_POINT ( 'NONE', #352 ) ;
#746 = CIRCLE ( 'NONE', #452, 1.749999999999999778 ) ;
#747 = LINE ( 'NONE', #538, #732 ) ;
#748 = DIRECTION ( 'NONE',  ( 1.000000000000000000, 0.000000000000000000, 0.000000000000000000 ) ) ;
#749 = ORIENTED_EDGE ( 'NONE', *, *, #836, .F. ) ;
#750 = AXIS2_PLACEMENT_3D ( 'NONE', #710, #847, #781 ) ;
#751 = CARTESIAN_POINT ( 'NONE',  ( 34.00000000000000000, -5.000000000000000000, 0.000000000000000000 ) ) ;
#752 = EDGE_CURVE ( 'NONE', #605, #205, #680, .T. ) ;
#753 = DIRECTION ( 'NONE',  ( -1.000000000000000000, 0.000000000000000000, 0.000000000000000000 ) ) ;
#754 = DIRECTION ( 'NONE',  ( 1.000000000000000000, 0.000000000000000000, 0.000000000000000000 ) ) ;
#755 = CARTESIAN_POINT ( 'NONE',  ( -16.50000000000000000, 9.849999999999999645, 0.000000000000000000 ) ) ;
#756 = CARTESIAN_POINT ( 'NONE',  ( 30.69999999999999929, -9.849999999999999645, 0.000000000000000000 ) ) ;
#757 = ADVANCED_FACE ( 'NONE', ( #342, #80, #74 ), #337, .T. ) ;
#758 = CARTESIAN_POINT ( 'NONE',  ( 30.69999999999999929, -9.849999999999999645, -2.999999999999999112 ) ) ;
#759 = CARTESIAN_POINT ( 'NONE',  ( -14.75000000000000000, -5.000000000000000000, 0.000000000000000000 ) ) ;
#760 = CARTESIAN_POINT ( 'NONE',  ( 34.00000000000000000, -5.000000000000000000, -2.999999999999999112 ) ) ;
#761 = DIRECTION ( 'NONE',  ( -0.000000000000000000, -0.000000000000000000, -1.000000000000000000 ) ) ;
#762 = LOCAL_TIME ( 16, 4, 2.000000000000000000, #736 ) ;
#763 = LINE ( 'NONE', #622, #137 ) ;
#764 = DIRECTION ( 'NONE',  ( 0.000000000000000000, 0.000000000000000000, 1.000000000000000000 ) ) ;
#765 = EDGE_CURVE ( 'NONE', #835, #655, #544, .T. ) ;
#766 = AXIS2_PLACEMENT_3D ( 'NONE', #171, #37, #121 ) ;
#767 = ORIENTED_EDGE ( 'NONE', *, *, #52, .F. ) ;
#768 = EDGE_CURVE ( 'NONE', #240, #814, #504, .T. ) ;
#769 = EDGE_CURVE ( 'NONE', #98, #45, #571, .T. ) ;
#770 = DIRECTION ( 'NONE',  ( -0.000000000000000000, -0.000000000000000000, -1.000000000000000000 ) ) ;
#771 = DIRECTION ( 'NONE',  ( 0.000000000000000000, 1.000000000000000000, 0.000000000000000000 ) ) ;
#772 = LINE ( 'NONE', #685, #558 ) ;
#773 = ORIENTED_EDGE ( 'NONE', *, *, #414, .F. ) ;
#774 = APPLICATION_PROTOCOL_DEFINITION ( 'international standard', 'config_control_design', 1994, #617 ) ;
#775 = CARTESIAN_POINT ( 'NONE',  ( -10.00000000000000000, 9.849999999999999645, 6.999999999999999112 ) ) ;
#776 = VECTOR ( 'NONE', #643, 1000.000000000000000 ) ;
#777 = CYLINDRICAL_SURFACE ( 'NONE', #395, 1.749999999999999778 ) ;
#778 = EDGE_LOOP ( 'NONE', ( #202, #862, #207, #666 ) ) ;
#779 = CIRCLE ( 'NONE', #118, 1.750000000000001554 ) ;
#780 =( NAMED_UNIT ( * ) SI_UNIT ( $, .STERADIAN. ) SOLID_ANGLE_UNIT ( ) );
#781 = DIRECTION ( 'NONE',  ( 0.000000000000000000, 0.000000000000000000, 1.000000000000000000 ) ) ;
#782 = DIRECTION ( 'NONE',  ( -1.000000000000000000, 0.000000000000000000, 0.000000000000000000 ) ) ;
#783 = ORIENTED_EDGE ( 'NONE', *, *, #278, .F. ) ;
#784 = CC_DESIGN_PERSON_AND_ORGANIZATION_ASSIGNMENT ( #875, #201, ( #382 ) ) ;
#785 = DIRECTION ( 'NONE',  ( -1.000000000000000000, 0.000000000000000000, 0.000000000000000000 ) ) ;
#786 = DIRECTION ( 'NONE',  ( 0.000000000000000000, 0.000000000000000000, -1.000000000000000000 ) ) ;
#787 = CARTESIAN_POINT ( 'NONE',  ( -13.00000000000000000, 5.000000000000000000, 0.000000000000000000 ) ) ;
#788 = VERTEX_POINT ( 'NONE', #226 ) ;
#789 = ORIENTED_EDGE ( 'NONE', *, *, #584, .T. ) ;
#790 = CARTESIAN_POINT ( 'NONE',  ( 37.20000000000000284, -9.849999999999999645, -3.000000000000000000 ) ) ;
#791 = LINE ( 'NONE', #851, #134 ) ;
#792 = AXIS2_PLACEMENT_3D ( 'NONE', #739, #4, #321 ) ;
#793 = APPROVAL_PERSON_ORGANIZATION ( #50, #876, #389 ) ;
#794 = VERTEX_POINT ( 'NONE', #309 ) ;
#795 = APPROVAL_STATUS ( 'not_yet_approved' ) ;
#796 = CARTESIAN_POINT ( 'NONE',  ( 35.75000000000000711, 5.000000000000000000, 0.000000000000000000 ) ) ;
#797 = AXIS2_PLACEMENT_3D ( 'NONE', #787, #577, #658 ) ;
#798 = CARTESIAN_POINT ( 'NONE',  ( 37.20000000000000284, 9.849999999999999645, -3.000000000000000000 ) ) ;
#799 = ORIENTED_EDGE ( 'NONE', *, *, #593, .T. ) ;
#800 = EDGE_CURVE ( 'NONE', #248, #745, #837, .T. ) ;
#801 = DIRECTION ( 'NONE',  ( 1.000000000000000000, 0.000000000000000000, 0.000000000000000000 ) ) ;
#802 = EDGE_CURVE ( 'NONE', #240, #465, #428, .T. ) ;
#803 = ORIENTED_EDGE ( 'NONE', *, *, #278, .T. ) ;
#804 = ORIENTED_EDGE ( 'NONE', *, *, #340, .T. ) ;
#805 = PERSON_AND_ORGANIZATION_ROLE ( 'design_supplier' ) ;
#806 = VERTEX_POINT ( 'NONE', #28 ) ;
#807 = EDGE_CURVE ( 'NONE', #31, #745, #237, .T. ) ;
#808 = DIRECTION ( 'NONE',  ( -1.000000000000000000, 0.000000000000000000, -0.000000000000000000 ) ) ;
#809 = ORIENTED_EDGE ( 'NONE', *, *, #416, .T. ) ;
#810 = APPROVAL_DATE_TIME ( #1, #876 ) ;
#811 = AXIS2_PLACEMENT_3D ( 'NONE', #693, #689, #684 ) ;
#812 = ORIENTED_EDGE ( 'NONE', *, *, #377, .T. ) ;
#813 = FACE_OUTER_BOUND ( 'NONE', #409, .T. ) ;
#814 = VERTEX_POINT ( 'NONE', #700 ) ;
#815 = ORIENTED_EDGE ( 'NONE', *, *, #203, .F. ) ;
#816 = CARTESIAN_POINT ( 'NONE',  ( -13.00000000000000000, 5.000000000000000000, 0.000000000000000000 ) ) ;
#817 = DIRECTION ( 'NONE',  ( -0.000000000000000000, -1.000000000000000000, -0.000000000000000000 ) ) ;
#818 = CIRCLE ( 'NONE', #447, 3.000000000000000000 ) ;
#819 = ORIENTED_EDGE ( 'NONE', *, *, #441, .F. ) ;
#820 = LINE ( 'NONE', #829, #425 ) ;
#821 = CARTESIAN_POINT ( 'NONE',  ( -14.75000000000000000, -5.000000000000000000, -2.999999999999999112 ) ) ;
#822 = ORGANIZATION ( 'UNSPECIFIED', 'UNSPECIFIED', '' ) ;
#823 = FACE_OUTER_BOUND ( 'NONE', #505, .T. ) ;
#824 = EDGE_CURVE ( 'NONE', #655, #468, #705, .T. ) ;
#825 = AXIS2_PLACEMENT_3D ( 'NONE', #751, #358, #489 ) ;
#826 = LINE ( 'NONE', #213, #595 ) ;
#827 = CARTESIAN_POINT ( 'NONE',  ( 35.75000000000000711, 5.000000000000000000, -2.999999999999999112 ) ) ;
#828 = PLANE ( 'NONE',  #831 ) ;
#829 = CARTESIAN_POINT ( 'NONE',  ( 3.000000000000000000, 3.673940397442059868E-16, 12.90000000000000213 ) ) ;
#830 = CARTESIAN_POINT ( 'NONE',  ( -11.25000000000000000, -5.000000000000000000, -2.999999999999999112 ) ) ;
#831 = AXIS2_PLACEMENT_3D ( 'NONE', #351, #625, #485 ) ;
#832 = DIRECTION ( 'NONE',  ( 0.000000000000000000, 0.000000000000000000, -1.000000000000000000 ) ) ;
#833 = CARTESIAN_POINT ( 'NONE',  ( 32.25000000000000000, 5.000000000000000000, -2.999999999999999112 ) ) ;
#834 = EDGE_CURVE ( 'NONE', #655, #274, #859, .T. ) ;
#835 = VERTEX_POINT ( 'NONE', #507 ) ;
#836 = EDGE_CURVE ( 'NONE', #264, #788, #846, .T. ) ;
#837 = CIRCLE ( 'NONE', #72, 1.749999999999999778 ) ;
#838 = LINE ( 'NONE', #443, #410 ) ;
#839 = VERTEX_POINT ( 'NONE', #561 ) ;
#840 = LINE ( 'NONE', #364, #664 ) ;
#841 = ORIENTED_EDGE ( 'NONE', *, *, #597, .F. ) ;
#842 = CARTESIAN_POINT ( 'NONE',  ( 3.000000000000000000, 3.673940397442059868E-16, 7.000000000000000000 ) ) ;
#843 = PERSON ( 'UNSPECIFIED', 'UNSPECIFIED', 'UNSPECIFIED', ('UNSPECIFIED'), ('UNSPECIFIED'), ('UNSPECIFIED') ) ;
#844 = DIRECTION ( 'NONE',  ( 0.000000000000000000, 0.000000000000000000, -1.000000000000000000 ) ) ;
#845 = ORIENTED_EDGE ( 'NONE', *, *, #530, .T. ) ;
#846 = LINE ( 'NONE', #179, #3 ) ;
#847 = DIRECTION ( 'NONE',  ( -1.000000000000000000, 0.000000000000000000, 0.000000000000000000 ) ) ;
#848 = EDGE_CURVE ( 'NONE', #814, #427, #838, .T. ) ;
#849 = VECTOR ( 'NONE', #345, 1000.000000000000000 ) ;
#850 = CC_DESIGN_APPROVAL ( #325, ( #382 ) ) ;
#851 = CARTESIAN_POINT ( 'NONE',  ( 30.69999999999999929, 9.849999999999999645, 6.999999999999999112 ) ) ;
#852 = ORIENTED_EDGE ( 'NONE', *, *, #441, .T. ) ;
#853 = EDGE_CURVE ( 'NONE', #396, #256, #492, .T. ) ;
#854 = CARTESIAN_POINT ( 'NONE',  ( -16.50000000000000000, 9.849999999999999645, -3.000000000000000000 ) ) ;
#855 = CARTESIAN_POINT ( 'NONE',  ( -10.00000000000000000, -9.849999999999999645, 6.999999999999999112 ) ) ;
#856 = CYLINDRICAL_SURFACE ( 'NONE', #365, 1.750000000000001554 ) ;
#857 = ORIENTED_EDGE ( 'NONE', *, *, #637, .F. ) ;
#858 = AXIS2_PLACEMENT_3D ( 'NONE', #855, #111, #786 ) ;
#859 = LINE ( 'NONE', #110, #678 ) ;
#860 = CARTESIAN_POINT ( 'NONE',  ( 37.20000000000000284, -9.849999999999999645, 0.000000000000000000 ) ) ;
#861 = DIRECTION ( 'NONE',  ( -1.000000000000000000, 0.000000000000000000, 0.000000000000000000 ) ) ;
#862 = ORIENTED_EDGE ( 'NONE', *, *, #853, .F. ) ;
#863 = COORDINATED_UNIVERSAL_TIME_OFFSET ( 6, 0, .BEHIND. ) ;
#864 = CARTESIAN_POINT ( 'NONE',  ( -13.00000000000000000, -5.000000000000000000, 12.90000000000000924 ) ) ;
#865 = CARTESIAN_POINT ( 'NONE',  ( 0.000000000000000000, 0.000000000000000000, -3.000000000000000000 ) ) ;
#866 = AXIS2_PLACEMENT_3D ( 'NONE', #679, #150, #608 ) ;
#867 = VERTEX_POINT ( 'NONE', #164 ) ;
#868 = EDGE_CURVE ( 'NONE', #741, #402, #746, .T. ) ;
#869 = LINE ( 'NONE', #153, #432 ) ;
#870 = ORIENTED_EDGE ( 'NONE', *, *, #569, .F. ) ;
#871 = VECTOR ( 'NONE', #586, 1000.000000000000000 ) ;
#872 = PRODUCT_DEFINITION_SHAPE ( 'NONE', 'NONE',  #261 ) ;
#873 = EDGE_LOOP ( 'NONE', ( #253, #451, #599, #335 ) ) ;
#874 = ORIENTED_EDGE ( 'NONE', *, *, #527, .T. ) ;
#875 = PERSON_AND_ORGANIZATION ( #843, #822 ) ;
#876 = APPROVAL ( #795, 'UNSPECIFIED' ) ;
#877 = ORIENTED_EDGE ( 'NONE', *, *, #703, .T. ) ;
ENDSEC;
END-ISO-10303-21;
