ISO-10303-21;
HEADER;
FILE_DESCRIPTION (( 'STEP AP203' ),
    '1' );
FILE_NAME ('HW-003_SG90_NOMINAL_VERIFY.step',
    '2026-09-07T21:03:55',
    ( '' ),
    ( '' ),
    'SwSTEP 2.0',
    'SolidWorks 2026',
    '' );
FILE_SCHEMA (( 'CONFIG_CONTROL_DESIGN' ));
ENDSEC;

DATA;
#1 = AXIS2_PLACEMENT_3D ( 'NONE', #54, #272, #562 ) ;
#2 = DIRECTION ( 'NONE',  ( 0.000000000000000000, 1.000000000000000000, 0.000000000000000000 ) ) ;
#3 = ORIENTED_EDGE ( 'NONE', *, *, #552, .F. ) ;
#4 = CARTESIAN_POINT ( 'NONE',  ( -11.00000000000000000, -6.099999999999999645, 0.000000000000000000 ) ) ;
#5 = VERTEX_POINT ( 'NONE', #603 ) ;
#6 = EDGE_CURVE ( 'NONE', #498, #453, #30, .T. ) ;
#7 = CYLINDRICAL_SURFACE ( 'NONE', #289, 1.100000000000000311 ) ;
#8 = ADVANCED_FACE ( 'NONE', ( #424 ), #198, .F. ) ;
#9 = ORIENTED_EDGE ( 'NONE', *, *, #654, .F. ) ;
#10 = DIRECTION ( 'NONE',  ( 1.000000000000000000, 0.000000000000000000, 0.000000000000000000 ) ) ;
#11 = VECTOR ( 'NONE', #627, 1000.000000000000000 ) ;
#12 = DIRECTION ( 'NONE',  ( 0.000000000000000000, 0.000000000000000000, 1.000000000000000000 ) ) ;
#13 = ORIENTED_EDGE ( 'NONE', *, *, #375, .F. ) ;
#14 =( LENGTH_UNIT ( ) NAMED_UNIT ( * ) SI_UNIT ( .MILLI., .METRE. ) );
#15 = CC_DESIGN_APPROVAL ( #251, ( #400 ) ) ;
#16 = FACE_OUTER_BOUND ( 'NONE', #531, .T. ) ;
#17 = ORIENTED_EDGE ( 'NONE', *, *, #283, .T. ) ;
#18 =( NAMED_UNIT ( * ) PLANE_ANGLE_UNIT ( ) SI_UNIT ( $, .RADIAN. ) );
#19 = AXIS2_PLACEMENT_3D ( 'NONE', #253, #475, #656 ) ;
#20 = DIRECTION ( 'NONE',  ( 0.000000000000000000, 0.000000000000000000, -1.000000000000000000 ) ) ;
#21 = ORIENTED_EDGE ( 'NONE', *, *, #653, .T. ) ;
#22 = LINE ( 'NONE', #685, #151 ) ;
#23 = CARTESIAN_POINT ( 'NONE',  ( -10.09999999999999964, 0.000000000000000000, -2.000000000000000000 ) ) ;
#24 = EDGE_LOOP ( 'NONE', ( #388, #61, #702, #557, #21, #112, #222, #633, #539, #549, #444, #660 ) ) ;
#25 = CALENDAR_DATE ( 2026, 7, 9 ) ;
#26 = DIRECTION ( 'NONE',  ( 1.000000000000000000, 0.000000000000000000, 0.000000000000000000 ) ) ;
#27 = ORIENTED_EDGE ( 'NONE', *, *, #574, .T. ) ;
#28 = ADVANCED_FACE ( 'NONE', ( #260 ), #100, .F. ) ;
#29 = PLANE ( 'NONE',  #46 ) ;
#30 = LINE ( 'NONE', #712, #205 ) ;
#31 = SECURITY_CLASSIFICATION_LEVEL ( 'unclassified' ) ;
#32 = DIRECTION ( 'NONE',  ( 0.000000000000000000, 0.000000000000000000, -1.000000000000000000 ) ) ;
#33 = VERTEX_POINT ( 'NONE', #472 ) ;
#34 = APPLICATION_PROTOCOL_DEFINITION ( 'international standard', 'config_control_design', 1994, #560 ) ;
#35 = AXIS2_PLACEMENT_3D ( 'NONE', #190, #12, #452 ) ;
#36 = DIRECTION ( 'NONE',  ( -0.000000000000000000, -0.000000000000000000, 1.000000000000000000 ) ) ;
#37 = VECTOR ( 'NONE', #646, 1000.000000000000000 ) ;
#38 = CARTESIAN_POINT ( 'NONE',  ( -6.000000000000000000, -6.099999999999999645, -19.00000000000000000 ) ) ;
#39 = EDGE_CURVE ( 'NONE', #492, #286, #659, .T. ) ;
#40 = DATE_AND_TIME ( #717, #617 ) ;
#41 = EDGE_CURVE ( 'NONE', #505, #33, #148, .T. ) ;
#42 = DIRECTION ( 'NONE',  ( 1.000000000000000000, 0.000000000000000000, 0.000000000000000000 ) ) ;
#43 = FACE_BOUND ( 'NONE', #48, .T. ) ;
#44 = DIRECTION ( 'NONE',  ( 1.000000000000000000, 0.000000000000000000, 0.000000000000000000 ) ) ;
#45 = VERTEX_POINT ( 'NONE', #721 ) ;
#46 = AXIS2_PLACEMENT_3D ( 'NONE', #534, #26, #32 ) ;
#47 = CARTESIAN_POINT ( 'NONE',  ( 20.00000000000000000, 0.000000000000000000, 0.000000000000000000 ) ) ;
#48 = EDGE_LOOP ( 'NONE', ( #338, #271 ) ) ;
#49 = ORGANIZATION ( 'UNSPECIFIED', 'UNSPECIFIED', '' ) ;
#50 = EDGE_CURVE ( 'NONE', #191, #246, #381, .T. ) ;
#51 = CARTESIAN_POINT ( 'NONE',  ( -6.000000000000000000, -6.099999999999999645, 4.000000000000000000 ) ) ;
#52 = EDGE_CURVE ( 'NONE', #352, #629, #650, .T. ) ;
#53 = ORIENTED_EDGE ( 'NONE', *, *, #416, .F. ) ;
#54 = CARTESIAN_POINT ( 'NONE',  ( 0.000000000000000000, 0.000000000000000000, 9.000000000000001776 ) ) ;
#55 = VERTEX_POINT ( 'NONE', #98 ) ;
#56 = DIRECTION ( 'NONE',  ( -0.000000000000000000, -0.000000000000000000, -1.000000000000000000 ) ) ;
#57 = VECTOR ( 'NONE', #645, 1000.000000000000000 ) ;
#58 = CARTESIAN_POINT ( 'NONE',  ( -6.000000000000000000, -6.099999999999999645, -19.00000000000000000 ) ) ;
#59 = UNCERTAINTY_MEASURE_WITH_UNIT (LENGTH_MEASURE( 1.000000000000000082E-05 ), #14, 'distance_accuracy_value', 'NONE');
#60 = PRODUCT_DEFINITION ( 'UNKNOWN', '', #400, #522 ) ;
#61 = ORIENTED_EDGE ( 'NONE', *, *, #192, .F. ) ;
#62 = VECTOR ( 'NONE', #625, 1000.000000000000000 ) ;
#63 = CARTESIAN_POINT ( 'NONE',  ( 17.00000000000000000, -6.099999999999999645, 4.000000000000000000 ) ) ;
#64 = ORIENTED_EDGE ( 'NONE', *, *, #550, .F. ) ;
#65 = DIRECTION ( 'NONE',  ( 0.000000000000000000, 0.000000000000000000, -1.000000000000000000 ) ) ;
#66 = PLANE ( 'NONE',  #606 ) ;
#67 = DIRECTION ( 'NONE',  ( -0.000000000000000000, -0.000000000000000000, -1.000000000000000000 ) ) ;
#68 = ORIENTED_EDGE ( 'NONE', *, *, #473, .T. ) ;
#69 = CC_DESIGN_DATE_AND_TIME_ASSIGNMENT ( #647, #588, ( #107 ) ) ;
#70 = VECTOR ( 'NONE', #75, 1000.000000000000000 ) ;
#71 = FACE_OUTER_BOUND ( 'NONE', #169, .T. ) ;
#72 = ORIENTED_EDGE ( 'NONE', *, *, #473, .F. ) ;
#73 = CARTESIAN_POINT ( 'NONE',  ( -6.000000000000000000, 6.099999999999999645, 0.000000000000000000 ) ) ;
#74 = CC_DESIGN_APPROVAL ( #217, ( #107 ) ) ;
#75 = DIRECTION ( 'NONE',  ( -0.000000000000000000, -0.000000000000000000, -1.000000000000000000 ) ) ;
#76 = ORIENTED_EDGE ( 'NONE', *, *, #515, .F. ) ;
#77 = DIRECTION ( 'NONE',  ( -0.000000000000000000, -0.000000000000000000, -1.000000000000000000 ) ) ;
#78 = VECTOR ( 'NONE', #663, 1000.000000000000000 ) ;
#79 = PLANE ( 'NONE',  #648 ) ;
#80 = ORIENTED_EDGE ( 'NONE', *, *, #166, .F. ) ;
#81 = CARTESIAN_POINT ( 'NONE',  ( -9.000000000000000000, 0.000000000000000000, -2.000000000000000000 ) ) ;
#82 = LINE ( 'NONE', #487, #454 ) ;
#83 = ORIENTED_EDGE ( 'NONE', *, *, #6, .T. ) ;
#84 = ADVANCED_FACE ( 'NONE', ( #137, #360 ), #535, .F. ) ;
#85 = EDGE_CURVE ( 'NONE', #286, #33, #142, .T. ) ;
#86 = VECTOR ( 'NONE', #302, 1000.000000000000000 ) ;
#87 = CARTESIAN_POINT ( 'NONE',  ( -11.00000000000000000, 6.099999999999999645, -2.000000000000000000 ) ) ;
#88 = ORIENTED_EDGE ( 'NONE', *, *, #572, .T. ) ;
#89 = DIRECTION ( 'NONE',  ( -1.000000000000000000, -0.000000000000000000, -0.000000000000000000 ) ) ;
#90 = DIRECTION ( 'NONE',  ( 0.000000000000000000, 0.000000000000000000, -1.000000000000000000 ) ) ;
#91 = DATE_TIME_ROLE ( 'creation_date' ) ;
#92 = CARTESIAN_POINT ( 'NONE',  ( 17.00000000000000000, 6.099999999999999645, 4.000000000000000000 ) ) ;
#93 = LINE ( 'NONE', #446, #255 ) ;
#94 = DATE_AND_TIME ( #25, #555 ) ;
#95 = ORIENTED_EDGE ( 'NONE', *, *, #320, .T. ) ;
#96 = AXIS2_PLACEMENT_3D ( 'NONE', #131, #231, #683 ) ;
#97 = CARTESIAN_POINT ( 'NONE',  ( -6.000000000000000000, -6.099999999999999645, -2.000000000000000000 ) ) ;
#98 = CARTESIAN_POINT ( 'NONE',  ( -11.00000000000000000, 6.099999999999999645, 0.000000000000000000 ) ) ;
#99 = CALENDAR_DATE ( 2026, 7, 9 ) ;
#100 = PLANE ( 'NONE',  #161 ) ;
#101 = DIRECTION ( 'NONE',  ( 1.000000000000000000, 0.000000000000000000, 0.000000000000000000 ) ) ;
#102 = ORIENTED_EDGE ( 'NONE', *, *, #363, .F. ) ;
#103 = CC_DESIGN_PERSON_AND_ORGANIZATION_ASSIGNMENT ( #705, #143, ( #494 ) ) ;
#104 = CIRCLE ( 'NONE', #258, 2.500000000000000000 ) ;
#105 = PLANE ( 'NONE',  #613 ) ;
#106 = VERTEX_POINT ( 'NONE', #368 ) ;
#107 = SECURITY_CLASSIFICATION ( '', '', #31 ) ;
#108 = DIRECTION ( 'NONE',  ( 0.000000000000000000, 0.000000000000000000, 1.000000000000000000 ) ) ;
#109 = ORIENTED_EDGE ( 'NONE', *, *, #497, .F. ) ;
#110 = ADVANCED_FACE ( 'NONE', ( #317 ), #595, .T. ) ;
#111 = DIRECTION ( 'NONE',  ( -0.000000000000000000, -0.000000000000000000, -1.000000000000000000 ) ) ;
#112 = ORIENTED_EDGE ( 'NONE', *, *, #497, .T. ) ;
#113 = DIRECTION ( 'NONE',  ( -1.000000000000000000, -0.000000000000000000, -0.000000000000000000 ) ) ;
#114 = ADVANCED_FACE ( 'NONE', ( #43, #264 ), #432, .T. ) ;
#115 = EDGE_LOOP ( 'NONE', ( #17, #162, #489, #323 ) ) ;
#116 = DIRECTION ( 'NONE',  ( -0.000000000000000000, -0.000000000000000000, -1.000000000000000000 ) ) ;
#117 = VECTOR ( 'NONE', #699, 1000.000000000000000 ) ;
#118 = CYLINDRICAL_SURFACE ( 'NONE', #276, 1.100000000000000311 ) ;
#119 = EDGE_LOOP ( 'NONE', ( #88, #224 ) ) ;
#120 = DIRECTION ( 'NONE',  ( -1.000000000000000000, 0.000000000000000000, 0.000000000000000000 ) ) ;
#121 = LINE ( 'NONE', #296, #672 ) ;
#122 = VERTEX_POINT ( 'NONE', #667 ) ;
#123 = CARTESIAN_POINT ( 'NONE',  ( 17.00000000000000000, 6.099999999999999645, 4.000000000000000000 ) ) ;
#124 = AXIS2_PLACEMENT_3D ( 'NONE', #723, #108, #101 ) ;
#125 = CARTESIAN_POINT ( 'NONE',  ( -6.000000000000000000, 6.099999999999999645, 4.000000000000000000 ) ) ;
#126 = ORIENTED_EDGE ( 'NONE', *, *, #155, .T. ) ;
#127 = DIRECTION ( 'NONE',  ( 0.000000000000000000, 0.000000000000000000, 1.000000000000000000 ) ) ;
#128 = DIRECTION ( 'NONE',  ( 0.000000000000000000, 0.000000000000000000, -1.000000000000000000 ) ) ;
#129 = ORIENTED_EDGE ( 'NONE', *, *, #6, .F. ) ;
#130 = VECTOR ( 'NONE', #488, 1000.000000000000000 ) ;
#131 = CARTESIAN_POINT ( 'NONE',  ( 0.000000000000000000, 0.000000000000000000, 4.000000000000000000 ) ) ;
#132 = EDGE_CURVE ( 'NONE', #587, #279, #324, .T. ) ;
#133 = EDGE_LOOP ( 'NONE', ( #467, #364, #503, #156 ) ) ;
#134 = APPLICATION_PROTOCOL_DEFINITION ( 'international standard', 'config_control_design', 1994, #242 ) ;
#135 = CARTESIAN_POINT ( 'NONE',  ( -2.500000000000000000, 0.000000000000000000, 9.000000000000001776 ) ) ;
#136 = VECTOR ( 'NONE', #248, 1000.000000000000000 ) ;
#137 = FACE_BOUND ( 'NONE', #374, .T. ) ;
#138 = COORDINATED_UNIVERSAL_TIME_OFFSET ( 6, 0, .BEHIND. ) ;
#139 = ORIENTED_EDGE ( 'NONE', *, *, #495, .F. ) ;
#140 = LOCAL_TIME ( 16, 3, 55.00000000000000000, #361 ) ;
#141 = LINE ( 'NONE', #471, #86 ) ;
#142 = LINE ( 'NONE', #38, #78 ) ;
#143 = PERSON_AND_ORGANIZATION_ROLE ( 'design_owner' ) ;
#144 = DIRECTION ( 'NONE',  ( -1.000000000000000000, -0.000000000000000000, -0.000000000000000000 ) ) ;
#145 = CARTESIAN_POINT ( 'NONE',  ( -9.000000000000000000, 0.000000000000000000, 9.000000000000001776 ) ) ;
#146 = VERTEX_POINT ( 'NONE', #443 ) ;
#147 = CARTESIAN_POINT ( 'NONE',  ( -11.00000000000000000, -6.099999999999999645, -2.000000000000000000 ) ) ;
#148 = LINE ( 'NONE', #378, #577 ) ;
#149 = CALENDAR_DATE ( 2026, 7, 9 ) ;
#150 = VECTOR ( 'NONE', #2, 1000.000000000000000 ) ;
#151 = VECTOR ( 'NONE', #581, 1000.000000000000000 ) ;
#152 = DIRECTION ( 'NONE',  ( 0.000000000000000000, 0.000000000000000000, -1.000000000000000000 ) ) ;
#153 = ORIENTED_EDGE ( 'NONE', *, *, #419, .T. ) ;
#154 = LINE ( 'NONE', #4, #312 ) ;
#155 = EDGE_CURVE ( 'NONE', #518, #313, #154, .T. ) ;
#156 = ORIENTED_EDGE ( 'NONE', *, *, #285, .T. ) ;
#157 = LINE ( 'NONE', #384, #477 ) ;
#158 = VERTEX_POINT ( 'NONE', #331 ) ;
#159 = AXIS2_PLACEMENT_3D ( 'NONE', #47, #614, #270 ) ;
#160 = DIRECTION ( 'NONE',  ( -1.000000000000000000, 0.000000000000000000, -0.000000000000000000 ) ) ;
#161 = AXIS2_PLACEMENT_3D ( 'NONE', #194, #479, #428 ) ;
#162 = ORIENTED_EDGE ( 'NONE', *, *, #720, .F. ) ;
#163 = AXIS2_PLACEMENT_3D ( 'NONE', #586, #449, #607 ) ;
#164 = EDGE_CURVE ( 'NONE', #492, #587, #157, .T. ) ;
#165 = CYLINDRICAL_SURFACE ( 'NONE', #1, 2.500000000000000000 ) ;
#166 = EDGE_CURVE ( 'NONE', #146, #610, #347, .T. ) ;
#167 = EDGE_LOOP ( 'NONE', ( #684, #438, #500, #9 ) ) ;
#168 = LINE ( 'NONE', #395, #244 ) ;
#169 = EDGE_LOOP ( 'NONE', ( #95, #600, #612, #616 ) ) ;
#170 = CARTESIAN_POINT ( 'NONE',  ( 2.500000000000000000, 3.061616997868383141E-16, 9.000000000000001776 ) ) ;
#171 = FACE_OUTER_BOUND ( 'NONE', #679, .T. ) ;
#172 = AXIS2_PLACEMENT_3D ( 'NONE', #460, #457, #178 ) ;
#173 = CARTESIAN_POINT ( 'NONE',  ( -6.000000000000000000, 6.099999999999999645, 4.000000000000000000 ) ) ;
#174 = ORIENTED_EDGE ( 'NONE', *, *, #85, .F. ) ;
#175 = DIRECTION ( 'NONE',  ( -0.000000000000000000, -0.000000000000000000, 1.000000000000000000 ) ) ;
#176 = CIRCLE ( 'NONE', #579, 1.100000000000000311 ) ;
#177 = CARTESIAN_POINT ( 'NONE',  ( 20.00000000000000000, 0.000000000000000000, -2.000000000000000000 ) ) ;
#178 = DIRECTION ( 'NONE',  ( -1.000000000000000000, 0.000000000000000000, 0.000000000000000000 ) ) ;
#179 = EDGE_CURVE ( 'NONE', #352, #461, #434, .T. ) ;
#180 = VERTEX_POINT ( 'NONE', #727 ) ;
#181 = DIRECTION ( 'NONE',  ( 0.000000000000000000, 0.000000000000000000, 1.000000000000000000 ) ) ;
#182 = FACE_OUTER_BOUND ( 'NONE', #24, .T. ) ;
#183 = ORIENTED_EDGE ( 'NONE', *, *, #132, .T. ) ;
#184 = CC_DESIGN_SECURITY_CLASSIFICATION ( #107, ( #400 ) ) ;
#185 = FACE_OUTER_BOUND ( 'NONE', #697, .T. ) ;
#186 = ORIENTED_EDGE ( 'NONE', *, *, #682, .F. ) ;
#187 = CARTESIAN_POINT ( 'NONE',  ( -6.000000000000000000, -6.099999999999999645, 0.000000000000000000 ) ) ;
#188 = VECTOR ( 'NONE', #206, 1000.000000000000000 ) ;
#189 = EDGE_CURVE ( 'NONE', #5, #180, #611, .T. ) ;
#190 = CARTESIAN_POINT ( 'NONE',  ( 0.000000000000000000, 0.000000000000000000, 9.000000000000001776 ) ) ;
#191 = VERTEX_POINT ( 'NONE', #440 ) ;
#192 = EDGE_CURVE ( 'NONE', #180, #45, #277, .T. ) ;
#193 = CARTESIAN_POINT ( 'NONE',  ( -6.000000000000000000, -6.099999999999999645, -19.00000000000000000 ) ) ;
#194 = CARTESIAN_POINT ( 'NONE',  ( -11.00000000000000000, -6.099999999999999645, 0.000000000000000000 ) ) ;
#195 = CC_DESIGN_PERSON_AND_ORGANIZATION_ASSIGNMENT ( #714, #533, ( #60 ) ) ;
#196 = CARTESIAN_POINT ( 'NONE',  ( -6.000000000000000000, 6.099999999999999645, -19.00000000000000000 ) ) ;
#197 = VECTOR ( 'NONE', #252, 1000.000000000000000 ) ;
#198 = CYLINDRICAL_SURFACE ( 'NONE', #362, 1.100000000000000311 ) ;
#199 = APPROVAL_ROLE ( '' ) ;
#200 = APPROVAL_PERSON_ORGANIZATION ( #373, #217, #657 ) ;
#201 = DIRECTION ( 'NONE',  ( -1.000000000000000000, 0.000000000000000000, -0.000000000000000000 ) ) ;
#202 = ORIENTED_EDGE ( 'NONE', *, *, #166, .T. ) ;
#203 = PERSON_AND_ORGANIZATION ( #482, #49 ) ;
#204 = ORIENTED_EDGE ( 'NONE', *, *, #39, .F. ) ;
#205 = VECTOR ( 'NONE', #484, 1000.000000000000000 ) ;
#206 = DIRECTION ( 'NONE',  ( -0.000000000000000000, -1.000000000000000000, -0.000000000000000000 ) ) ;
#207 = ORIENTED_EDGE ( 'NONE', *, *, #631, .F. ) ;
#208 = APPROVAL_DATE_TIME ( #40, #217 ) ;
#209 = ORIENTED_EDGE ( 'NONE', *, *, #192, .T. ) ;
#210 = CARTESIAN_POINT ( 'NONE',  ( 18.89999999999999858, 0.000000000000000000, 0.000000000000000000 ) ) ;
#211 = DIRECTION ( 'NONE',  ( -1.000000000000000000, 0.000000000000000000, 0.000000000000000000 ) ) ;
#212 = ADVANCED_FACE ( 'NONE', ( #553 ), #165, .T. ) ;
#213 = AXIS2_PLACEMENT_3D ( 'NONE', #371, #36, #259 ) ;
#214 = DIRECTION ( 'NONE',  ( -1.000000000000000000, -0.000000000000000000, -0.000000000000000000 ) ) ;
#215 = CARTESIAN_POINT ( 'NONE',  ( 17.00000000000000000, 6.099999999999999645, -19.00000000000000000 ) ) ;
#216 = ORIENTED_EDGE ( 'NONE', *, *, #710, .T. ) ;
#217 = APPROVAL ( #425, 'UNSPECIFIED' ) ;
#218 = DIRECTION ( 'NONE',  ( 0.000000000000000000, 0.000000000000000000, 1.000000000000000000 ) ) ;
#219 = ORIENTED_EDGE ( 'NONE', *, *, #41, .T. ) ;
#220 = VECTOR ( 'NONE', #335, 1000.000000000000000 ) ;
#221 = FACE_OUTER_BOUND ( 'NONE', #526, .T. ) ;
#222 = ORIENTED_EDGE ( 'NONE', *, *, #132, .F. ) ;
#223 = CARTESIAN_POINT ( 'NONE',  ( 22.00000000000000000, -6.099999999999999645, 0.000000000000000000 ) ) ;
#224 = ORIENTED_EDGE ( 'NONE', *, *, #585, .T. ) ;
#225 = PLANE ( 'NONE',  #651 ) ;
#226 = FACE_OUTER_BOUND ( 'NONE', #167, .T. ) ;
#227 = ORIENTED_EDGE ( 'NONE', *, *, #230, .F. ) ;
#228 = CARTESIAN_POINT ( 'NONE',  ( 22.00000000000000000, 6.099999999999999645, 0.000000000000000000 ) ) ;
#229 = VECTOR ( 'NONE', #89, 1000.000000000000000 ) ;
#230 = EDGE_CURVE ( 'NONE', #498, #567, #589, .T. ) ;
#231 = DIRECTION ( 'NONE',  ( 0.000000000000000000, 0.000000000000000000, -1.000000000000000000 ) ) ;
#232 = ORIENTED_EDGE ( 'NONE', *, *, #419, .F. ) ;
#233 = CARTESIAN_POINT ( 'NONE',  ( 17.00000000000000000, -6.099999999999999645, 0.000000000000000000 ) ) ;
#234 = APPROVAL_PERSON_ORGANIZATION ( #310, #251, #356 ) ;
#235 = FACE_BOUND ( 'NONE', #575, .T. ) ;
#236 = VERTEX_POINT ( 'NONE', #215 ) ;
#237 = AXIS2_PLACEMENT_3D ( 'NONE', #322, #152, #608 ) ;
#238 = CARTESIAN_POINT ( 'NONE',  ( -9.000000000000000000, 0.000000000000000000, 0.000000000000000000 ) ) ;
#239 = ORIENTED_EDGE ( 'NONE', *, *, #641, .T. ) ;
#240 = LINE ( 'NONE', #233, #565 ) ;
#241 = ADVANCED_FACE ( 'NONE', ( #329 ), #386, .F. ) ;
#242 = APPLICATION_CONTEXT ( 'configuration controlled 3d designs of mechanical parts and assemblies' ) ;
#243 = ADVANCED_FACE ( 'NONE', ( #496, #221 ), #105, .F. ) ;
#244 = VECTOR ( 'NONE', #113, 1000.000000000000000 ) ;
#245 = PLANE ( 'NONE',  #35 ) ;
#246 = VERTEX_POINT ( 'NONE', #499 ) ;
#247 = VECTOR ( 'NONE', #116, 1000.000000000000000 ) ;
#248 = DIRECTION ( 'NONE',  ( 0.000000000000000000, 1.000000000000000000, 0.000000000000000000 ) ) ;
#249 = ORIENTED_EDGE ( 'NONE', *, *, #552, .T. ) ;
#250 = APPROVAL_STATUS ( 'not_yet_approved' ) ;
#251 = APPROVAL ( #250, 'UNSPECIFIED' ) ;
#252 = DIRECTION ( 'NONE',  ( -0.000000000000000000, -0.000000000000000000, -1.000000000000000000 ) ) ;
#253 = CARTESIAN_POINT ( 'NONE',  ( 0.000000000000000000, 0.000000000000000000, 0.000000000000000000 ) ) ;
#254 = LINE ( 'NONE', #147, #57 ) ;
#255 = VECTOR ( 'NONE', #678, 1000.000000000000000 ) ;
#256 = DIRECTION ( 'NONE',  ( -0.000000000000000000, -0.000000000000000000, -1.000000000000000000 ) ) ;
#257 = PERSON_AND_ORGANIZATION ( #482, #49 ) ;
#258 = AXIS2_PLACEMENT_3D ( 'NONE', #546, #597, #42 ) ;
#259 = DIRECTION ( 'NONE',  ( -1.000000000000000000, 0.000000000000000000, 0.000000000000000000 ) ) ;
#260 = FACE_OUTER_BOUND ( 'NONE', #554, .T. ) ;
#261 = PERSON_AND_ORGANIZATION_ROLE ( 'design_supplier' ) ;
#262 = ORIENTED_EDGE ( 'NONE', *, *, #266, .T. ) ;
#263 = PLANE ( 'NONE',  #626 ) ;
#264 = FACE_OUTER_BOUND ( 'NONE', #564, .T. ) ;
#265 = ORIENTED_EDGE ( 'NONE', *, *, #529, .F. ) ;
#266 = EDGE_CURVE ( 'NONE', #486, #668, #563, .T. ) ;
#267 = FACE_OUTER_BOUND ( 'NONE', #523, .T. ) ;
#268 = VECTOR ( 'NONE', #436, 1000.000000000000000 ) ;
#269 = ORIENTED_EDGE ( 'NONE', *, *, #502, .T. ) ;
#270 = DIRECTION ( 'NONE',  ( -1.000000000000000000, 0.000000000000000000, 0.000000000000000000 ) ) ;
#271 = ORIENTED_EDGE ( 'NONE', *, *, #631, .T. ) ;
#272 = DIRECTION ( 'NONE',  ( -0.000000000000000000, -0.000000000000000000, -1.000000000000000000 ) ) ;
#273 = ORIENTED_EDGE ( 'NONE', *, *, #718, .F. ) ;
#274 = CARTESIAN_POINT ( 'NONE',  ( 22.00000000000000000, -6.099999999999999645, -2.000000000000000000 ) ) ;
#275 = ORIENTED_EDGE ( 'NONE', *, *, #85, .T. ) ;
#276 = AXIS2_PLACEMENT_3D ( 'NONE', #403, #399, #351 ) ;
#277 = LINE ( 'NONE', #623, #709 ) ;
#278 = CIRCLE ( 'NONE', #213, 1.100000000000000311 ) ;
#279 = VERTEX_POINT ( 'NONE', #390 ) ;
#280 = DIRECTION ( 'NONE',  ( -0.000000000000000000, -1.000000000000000000, -0.000000000000000000 ) ) ;
#281 = ORIENTED_EDGE ( 'NONE', *, *, #230, .T. ) ;
#282 = CARTESIAN_POINT ( 'NONE',  ( -7.899999999999999467, 1.347111479062088503E-16, -2.000000000000000000 ) ) ;
#283 = EDGE_CURVE ( 'NONE', #106, #191, #559, .T. ) ;
#284 = LINE ( 'NONE', #348, #698 ) ;
#285 = EDGE_CURVE ( 'NONE', #332, #694, #621, .T. ) ;
#286 = VERTEX_POINT ( 'NONE', #58 ) ;
#287 = FACE_OUTER_BOUND ( 'NONE', #458, .T. ) ;
#288 = DIRECTION ( 'NONE',  ( -1.000000000000000000, 0.000000000000000000, 0.000000000000000000 ) ) ;
#289 = AXIS2_PLACEMENT_3D ( 'NONE', #412, #20, #642 ) ;
#290 = DIRECTION ( 'NONE',  ( -0.000000000000000000, -0.000000000000000000, 1.000000000000000000 ) ) ;
#291 = EDGE_LOOP ( 'NONE', ( #561, #326, #342, #636 ) ) ;
#292 = VECTOR ( 'NONE', #462, 1000.000000000000000 ) ;
#293 = LINE ( 'NONE', #569, #358 ) ;
#294 = EDGE_CURVE ( 'NONE', #587, #507, #93, .T. ) ;
#295 = EDGE_LOOP ( 'NONE', ( #605, #401, #349, #207 ) ) ;
#296 = CARTESIAN_POINT ( 'NONE',  ( -11.00000000000000000, -6.099999999999999645, -2.000000000000000000 ) ) ;
#297 = ORIENTED_EDGE ( 'NONE', *, *, #710, .F. ) ;
#298 = DIRECTION ( 'NONE',  ( -1.000000000000000000, 0.000000000000000000, -0.000000000000000000 ) ) ;
#299 = DIRECTION ( 'NONE',  ( -1.000000000000000000, 0.000000000000000000, 0.000000000000000000 ) ) ;
#300 = ORIENTED_EDGE ( 'NONE', *, *, #528, .F. ) ;
#301 = AXIS2_PLACEMENT_3D ( 'NONE', #519, #175, #524 ) ;
#302 = DIRECTION ( 'NONE',  ( 0.000000000000000000, 0.000000000000000000, -1.000000000000000000 ) ) ;
#303 = CARTESIAN_POINT ( 'NONE',  ( -6.000000000000000000, -6.099999999999999645, 4.000000000000000000 ) ) ;
#304 = MECHANICAL_CONTEXT ( 'NONE', #242, 'mechanical' ) ;
#305 = EDGE_CURVE ( 'NONE', #315, #332, #168, .T. ) ;
#306 = LINE ( 'NONE', #594, #136 ) ;
#307 = CARTESIAN_POINT ( 'NONE',  ( 0.000000000000000000, 0.000000000000000000, 9.000000000000001776 ) ) ;
#308 = PRODUCT_DEFINITION_SHAPE ( 'NONE', 'NONE',  #60 ) ;
#309 = ADVANCED_FACE ( 'NONE', ( #267 ), #632, .F. ) ;
#310 = PERSON_AND_ORGANIZATION ( #482, #49 ) ;
#311 = CARTESIAN_POINT ( 'NONE',  ( 0.000000000000000000, 0.000000000000000000, -2.000000000000000000 ) ) ;
#312 = VECTOR ( 'NONE', #670, 1000.000000000000000 ) ;
#313 = VERTEX_POINT ( 'NONE', #510 ) ;
#314 = APPROVAL_STATUS ( 'not_yet_approved' ) ;
#315 = VERTEX_POINT ( 'NONE', #344 ) ;
#316 = CARTESIAN_POINT ( 'NONE',  ( 17.00000000000000000, -6.099999999999999645, -2.000000000000000000 ) ) ;
#317 = FACE_OUTER_BOUND ( 'NONE', #291, .T. ) ;
#318 = EDGE_CURVE ( 'NONE', #507, #313, #121, .T. ) ;
#319 = EDGE_LOOP ( 'NONE', ( #640, #385, #269, #27 ) ) ;
#320 = EDGE_CURVE ( 'NONE', #332, #352, #578, .T. ) ;
#321 = LINE ( 'NONE', #548, #700 ) ;
#322 = CARTESIAN_POINT ( 'NONE',  ( 0.000000000000000000, 0.000000000000000000, -2.000000000000000000 ) ) ;
#323 = ORIENTED_EDGE ( 'NONE', *, *, #426, .T. ) ;
#324 = LINE ( 'NONE', #333, #220 ) ;
#325 = VECTOR ( 'NONE', #483, 1000.000000000000000 ) ;
#326 = ORIENTED_EDGE ( 'NONE', *, *, #266, .F. ) ;
#327 = VECTOR ( 'NONE', #708, 1000.000000000000000 ) ;
#328 = LOCAL_TIME ( 16, 3, 55.00000000000000000, #604 ) ;
#329 = FACE_OUTER_BOUND ( 'NONE', #430, .T. ) ;
#330 = ORIENTED_EDGE ( 'NONE', *, *, #41, .F. ) ;
#331 = CARTESIAN_POINT ( 'NONE',  ( 21.10000000000000142, 1.347111479062088503E-16, -2.000000000000000000 ) ) ;
#332 = VERTEX_POINT ( 'NONE', #125 ) ;
#333 = CARTESIAN_POINT ( 'NONE',  ( -6.000000000000000000, 6.099999999999999645, 4.000000000000000000 ) ) ;
#334 = VERTEX_POINT ( 'NONE', #23 ) ;
#335 = DIRECTION ( 'NONE',  ( -0.000000000000000000, -0.000000000000000000, -1.000000000000000000 ) ) ;
#336 = AXIS2_PLACEMENT_3D ( 'NONE', #630, #120, #181 ) ;
#337 = ADVANCED_FACE ( 'NONE', ( #573 ), #245, .T. ) ;
#338 = ORIENTED_EDGE ( 'NONE', *, *, #583, .T. ) ;
#339 = PLANE ( 'NONE',  #592 ) ;
#340 = ADVANCED_FACE ( 'NONE', ( #16 ), #7, .F. ) ;
#341 = CARTESIAN_POINT ( 'NONE',  ( -6.000000000000000000, -6.099999999999999645, 4.000000000000000000 ) ) ;
#342 = ORIENTED_EDGE ( 'NONE', *, *, #686, .T. ) ;
#343 = CARTESIAN_POINT ( 'NONE',  ( -7.899999999999999467, 1.347111479062088503E-16, 0.000000000000000000 ) ) ;
#344 = CARTESIAN_POINT ( 'NONE',  ( 17.00000000000000000, 6.099999999999999645, 4.000000000000000000 ) ) ;
#345 = ORIENTED_EDGE ( 'NONE', *, *, #164, .F. ) ;
#346 = CARTESIAN_POINT ( 'NONE',  ( 17.00000000000000000, -6.099999999999999645, -2.000000000000000000 ) ) ;
#347 = CIRCLE ( 'NONE', #124, 2.500000000000000000 ) ;
#348 = CARTESIAN_POINT ( 'NONE',  ( -11.00000000000000000, -6.099999999999999645, -2.000000000000000000 ) ) ;
#349 = ORIENTED_EDGE ( 'NONE', *, *, #654, .T. ) ;
#350 = FACE_OUTER_BOUND ( 'NONE', #115, .T. ) ;
#351 = DIRECTION ( 'NONE',  ( -1.000000000000000000, 0.000000000000000000, 0.000000000000000000 ) ) ;
#352 = VERTEX_POINT ( 'NONE', #516 ) ;
#353 = LINE ( 'NONE', #508, #365 ) ;
#354 = DIRECTION ( 'NONE',  ( -0.000000000000000000, -1.000000000000000000, -0.000000000000000000 ) ) ;
#355 = ORIENTED_EDGE ( 'NONE', *, *, #283, .F. ) ;
#356 = APPROVAL_ROLE ( '' ) ;
#357 = MANIFOLD_SOLID_BREP ( 'Mounting_holes_nominal', #520 ) ;
#358 = VECTOR ( 'NONE', #521, 1000.000000000000000 ) ;
#359 = CARTESIAN_POINT ( 'NONE',  ( 17.00000000000000000, -6.099999999999999645, 4.000000000000000000 ) ) ;
#360 = FACE_OUTER_BOUND ( 'NONE', #319, .T. ) ;
#361 = COORDINATED_UNIVERSAL_TIME_OFFSET ( 6, 0, .BEHIND. ) ;
#362 = AXIS2_PLACEMENT_3D ( 'NONE', #145, #90, #543 ) ;
#363 = EDGE_CURVE ( 'NONE', #447, #729, #420, .T. ) ;
#364 = ORIENTED_EDGE ( 'NONE', *, *, #52, .F. ) ;
#365 = VECTOR ( 'NONE', #77, 1000.000000000000000 ) ;
#366 = ADVANCED_FACE ( 'NONE', ( #235, #71 ), #701, .F. ) ;
#367 = CARTESIAN_POINT ( 'NONE',  ( -10.09999999999999964, 0.000000000000000000, 0.000000000000000000 ) ) ;
#368 = CARTESIAN_POINT ( 'NONE',  ( 22.00000000000000000, -6.099999999999999645, -2.000000000000000000 ) ) ;
#369 = APPROVAL_DATE_TIME ( #480, #707 ) ;
#370 = EDGE_LOOP ( 'NONE', ( #297, #580, #202, #726 ) ) ;
#371 = CARTESIAN_POINT ( 'NONE',  ( 20.00000000000000000, 0.000000000000000000, -2.000000000000000000 ) ) ;
#372 = EDGE_LOOP ( 'NONE', ( #227, #584 ) ) ;
#373 = PERSON_AND_ORGANIZATION ( #482, #49 ) ;
#374 = EDGE_LOOP ( 'NONE', ( #102, #13 ) ) ;
#375 = EDGE_CURVE ( 'NONE', #729, #447, #512, .T. ) ;
#376 = LINE ( 'NONE', #474, #325 ) ;
#377 = AXIS2_PLACEMENT_3D ( 'NONE', #359, #299, #423 ) ;
#378 = CARTESIAN_POINT ( 'NONE',  ( 17.00000000000000000, -6.099999999999999645, 4.000000000000000000 ) ) ;
#379 = ADVANCED_FACE ( 'NONE', ( #226 ), #118, .F. ) ;
#380 = AXIS2_PLACEMENT_3D ( 'NONE', #177, #456, #288 ) ;
#381 = LINE ( 'NONE', #422, #37 ) ;
#382 = ORIENTED_EDGE ( 'NONE', *, *, #52, .T. ) ;
#383 = CC_DESIGN_PERSON_AND_ORGANIZATION_ASSIGNMENT ( #536, #544, ( #107 ) ) ;
#384 = CARTESIAN_POINT ( 'NONE',  ( -6.000000000000000000, -6.099999999999999645, -2.000000000000000000 ) ) ;
#385 = ORIENTED_EDGE ( 'NONE', *, *, #450, .T. ) ;
#386 = PLANE ( 'NONE',  #465 ) ;
#387 = VECTOR ( 'NONE', #111, 1000.000000000000000 ) ;
#388 = ORIENTED_EDGE ( 'NONE', *, *, #515, .T. ) ;
#389 = AXIS2_PLACEMENT_3D ( 'NONE', #644, #599, #652 ) ;
#390 = CARTESIAN_POINT ( 'NONE',  ( -6.000000000000000000, 6.099999999999999645, -19.00000000000000000 ) ) ;
#391 = ORIENTED_EDGE ( 'NONE', *, *, #718, .T. ) ;
#392 = DIRECTION ( 'NONE',  ( 0.000000000000000000, 0.000000000000000000, -1.000000000000000000 ) ) ;
#393 = ORIENTED_EDGE ( 'NONE', *, *, #426, .F. ) ;
#394 = EDGE_CURVE ( 'NONE', #55, #507, #582, .T. ) ;
#395 = CARTESIAN_POINT ( 'NONE',  ( -6.000000000000000000, 6.099999999999999645, 4.000000000000000000 ) ) ;
#396 = ORIENTED_EDGE ( 'NONE', *, *, #318, .T. ) ;
#397 = LINE ( 'NONE', #346, #62 ) ;
#398 = ADVANCED_FACE ( 'NONE', ( #182 ), #79, .F. ) ;
#399 = DIRECTION ( 'NONE',  ( 0.000000000000000000, 0.000000000000000000, -1.000000000000000000 ) ) ;
#400 = PRODUCT_DEFINITION_FORMATION_WITH_SPECIFIED_SOURCE ( 'ANY', '', #494, .NOT_KNOWN. ) ;
#401 = ORIENTED_EDGE ( 'NONE', *, *, #375, .T. ) ;
#402 = CARTESIAN_POINT ( 'NONE',  ( 17.00000000000000000, -6.099999999999999645, 4.000000000000000000 ) ) ;
#403 = CARTESIAN_POINT ( 'NONE',  ( -9.000000000000000000, 0.000000000000000000, 9.000000000000001776 ) ) ;
#404 = ORIENTED_EDGE ( 'NONE', *, *, #638, .F. ) ;
#405 = LINE ( 'NONE', #228, #117 ) ;
#406 = LINE ( 'NONE', #635, #601 ) ;
#407 = ORIENTED_EDGE ( 'NONE', *, *, #572, .F. ) ;
#408 =( NAMED_UNIT ( * ) SI_UNIT ( $, .STERADIAN. ) SOLID_ANGLE_UNIT ( ) );
#409 = DIRECTION ( 'NONE',  ( 0.000000000000000000, -1.000000000000000000, 0.000000000000000000 ) ) ;
#410 = ORIENTED_EDGE ( 'NONE', *, *, #653, .F. ) ;
#411 = CARTESIAN_POINT ( 'NONE',  ( 0.000000000000000000, 0.000000000000000000, 9.000000000000001776 ) ) ;
#412 = CARTESIAN_POINT ( 'NONE',  ( 20.00000000000000000, 0.000000000000000000, 9.000000000000001776 ) ) ;
#413 = EDGE_LOOP ( 'NONE', ( #186, #622, #355, #665 ) ) ;
#414 = APPROVAL_DATE_TIME ( #485, #251 ) ;
#415 = FACE_OUTER_BOUND ( 'NONE', #413, .T. ) ;
#416 = EDGE_CURVE ( 'NONE', #461, #315, #463, .T. ) ;
#417 = CARTESIAN_POINT ( 'NONE',  ( -6.000000000000000000, -6.099999999999999645, 4.000000000000000000 ) ) ;
#418 = CALENDAR_DATE ( 2026, 7, 9 ) ;
#419 = EDGE_CURVE ( 'NONE', #122, #5, #293, .T. ) ;
#420 = CIRCLE ( 'NONE', #490, 1.100000000000000311 ) ;
#421 = CARTESIAN_POINT ( 'NONE',  ( -11.00000000000000000, -6.099999999999999645, 0.000000000000000000 ) ) ;
#422 = CARTESIAN_POINT ( 'NONE',  ( -11.00000000000000000, 6.099999999999999645, -2.000000000000000000 ) ) ;
#423 = DIRECTION ( 'NONE',  ( 0.000000000000000000, 0.000000000000000000, 1.000000000000000000 ) ) ;
#424 = FACE_OUTER_BOUND ( 'NONE', #295, .T. ) ;
#425 = APPROVAL_STATUS ( 'not_yet_approved' ) ;
#426 = EDGE_CURVE ( 'NONE', #5, #106, #406, .T. ) ;
#427 = DIRECTION ( 'NONE',  ( 0.000000000000000000, 0.000000000000000000, -1.000000000000000000 ) ) ;
#428 = DIRECTION ( 'NONE',  ( 0.000000000000000000, 0.000000000000000000, -1.000000000000000000 ) ) ;
#429 = SHAPE_DEFINITION_REPRESENTATION ( #308, #593 ) ;
#430 = EDGE_LOOP ( 'NONE', ( #204, #591, #183, #249 ) ) ;
#431 = CARTESIAN_POINT ( 'NONE',  ( 21.10000000000000142, 1.347111479062088503E-16, 0.000000000000000000 ) ) ;
#432 = PLANE ( 'NONE',  #237 ) ;
#433 = AXIS2_PLACEMENT_3D ( 'NONE', #411, #127, #10 ) ;
#434 = LINE ( 'NONE', #51, #637 ) ;
#435 = ORIENTED_EDGE ( 'NONE', *, *, #294, .F. ) ;
#436 = DIRECTION ( 'NONE',  ( 0.000000000000000000, 1.000000000000000000, 0.000000000000000000 ) ) ;
#437 = EDGE_CURVE ( 'NONE', #505, #106, #284, .T. ) ;
#438 = ORIENTED_EDGE ( 'NONE', *, *, #470, .T. ) ;
#439 = ADVANCED_FACE ( 'NONE', ( #185 ), #639, .F. ) ;
#440 = CARTESIAN_POINT ( 'NONE',  ( 22.00000000000000000, 6.099999999999999645, -2.000000000000000000 ) ) ;
#441 = AXIS2_PLACEMENT_3D ( 'NONE', #525, #128, #466 ) ;
#442 = ORIENTED_EDGE ( 'NONE', *, *, #39, .T. ) ;
#443 = CARTESIAN_POINT ( 'NONE',  ( 2.500000000000000000, 3.061616997868383141E-16, 4.000000000000000000 ) ) ;
#444 = ORIENTED_EDGE ( 'NONE', *, *, #285, .F. ) ;
#445 = ADVANCED_FACE ( 'NONE', ( #530 ), #29, .F. ) ;
#446 = CARTESIAN_POINT ( 'NONE',  ( -11.00000000000000000, 6.099999999999999645, -2.000000000000000000 ) ) ;
#447 = VERTEX_POINT ( 'NONE', #367 ) ;
#448 = DIRECTION ( 'NONE',  ( -1.000000000000000000, 0.000000000000000000, 0.000000000000000000 ) ) ;
#449 = DIRECTION ( 'NONE',  ( -0.000000000000000000, -0.000000000000000000, 1.000000000000000000 ) ) ;
#450 = EDGE_CURVE ( 'NONE', #629, #694, #376, .T. ) ;
#451 = AXIS2_PLACEMENT_3D ( 'NONE', #307, #547, #211 ) ;
#452 = DIRECTION ( 'NONE',  ( 1.000000000000000000, 0.000000000000000000, -0.000000000000000000 ) ) ;
#453 = VERTEX_POINT ( 'NONE', #706 ) ;
#454 = VECTOR ( 'NONE', #590, 1000.000000000000000 ) ;
#455 = CARTESIAN_POINT ( 'NONE',  ( 0.000000000000000000, 0.000000000000000000, -19.00000000000000000 ) ) ;
#456 = DIRECTION ( 'NONE',  ( -0.000000000000000000, -0.000000000000000000, 1.000000000000000000 ) ) ;
#457 = DIRECTION ( 'NONE',  ( -0.000000000000000000, -0.000000000000000000, 1.000000000000000000 ) ) ;
#458 = EDGE_LOOP ( 'NONE', ( #3, #109, #72, #174 ) ) ;
#459 = DIRECTION ( 'NONE',  ( -1.000000000000000000, 0.000000000000000000, 0.000000000000000000 ) ) ;
#460 = CARTESIAN_POINT ( 'NONE',  ( -9.000000000000000000, 0.000000000000000000, 0.000000000000000000 ) ) ;
#461 = VERTEX_POINT ( 'NONE', #719 ) ;
#462 = DIRECTION ( 'NONE',  ( -0.000000000000000000, -0.000000000000000000, -1.000000000000000000 ) ) ;
#463 = LINE ( 'NONE', #63, #11 ) ;
#464 = ORIENTED_EDGE ( 'NONE', *, *, #638, .T. ) ;
#465 = AXIS2_PLACEMENT_3D ( 'NONE', #725, #673, #392 ) ;
#466 = DIRECTION ( 'NONE',  ( -1.000000000000000000, 0.000000000000000000, 0.000000000000000000 ) ) ;
#467 = ORIENTED_EDGE ( 'NONE', *, *, #450, .F. ) ;
#468 = CIRCLE ( 'NONE', #433, 2.500000000000000000 ) ;
#469 = PERSON_AND_ORGANIZATION_ROLE ( 'creator' ) ;
#470 = EDGE_CURVE ( 'NONE', #729, #677, #82, .T. ) ;
#471 = CARTESIAN_POINT ( 'NONE',  ( 21.10000000000000142, 1.347111479062088503E-16, 9.000000000000001776 ) ) ;
#472 = CARTESIAN_POINT ( 'NONE',  ( 17.00000000000000000, -6.099999999999999645, -19.00000000000000000 ) ) ;
#473 = EDGE_CURVE ( 'NONE', #33, #236, #306, .T. ) ;
#474 = CARTESIAN_POINT ( 'NONE',  ( -6.000000000000000000, -6.099999999999999645, 0.000000000000000000 ) ) ;
#475 = DIRECTION ( 'NONE',  ( 0.000000000000000000, 0.000000000000000000, -1.000000000000000000 ) ) ;
#476 = COORDINATED_UNIVERSAL_TIME_OFFSET ( 6, 0, .BEHIND. ) ;
#477 = VECTOR ( 'NONE', #676, 1000.000000000000000 ) ;
#478 = LINE ( 'NONE', #703, #666 ) ;
#479 = DIRECTION ( 'NONE',  ( 1.000000000000000000, 0.000000000000000000, 0.000000000000000000 ) ) ;
#480 = DATE_AND_TIME ( #418, #140 ) ;
#481 =( GEOMETRIC_REPRESENTATION_CONTEXT ( 3 ) GLOBAL_UNCERTAINTY_ASSIGNED_CONTEXT ( ( #59 ) ) GLOBAL_UNIT_ASSIGNED_CONTEXT ( ( #14, #18, #408 ) ) REPRESENTATION_CONTEXT ( 'NONE', 'WORKASPACE' ) );
#482 = PERSON ( 'UNSPECIFIED', 'UNSPECIFIED', 'UNSPECIFIED', ('UNSPECIFIED'), ('UNSPECIFIED'), ('UNSPECIFIED') ) ;
#483 = DIRECTION ( 'NONE',  ( -0.000000000000000000, 1.000000000000000000, 0.000000000000000000 ) ) ;
#484 = DIRECTION ( 'NONE',  ( 0.000000000000000000, 0.000000000000000000, -1.000000000000000000 ) ) ;
#485 = DATE_AND_TIME ( #99, #328 ) ;
#486 = VERTEX_POINT ( 'NONE', #135 ) ;
#487 = CARTESIAN_POINT ( 'NONE',  ( -7.899999999999999467, 1.347111479062088503E-16, 9.000000000000001776 ) ) ;
#488 = DIRECTION ( 'NONE',  ( -0.000000000000000000, -0.000000000000000000, -1.000000000000000000 ) ) ;
#489 = ORIENTED_EDGE ( 'NONE', *, *, #189, .F. ) ;
#490 = AXIS2_PLACEMENT_3D ( 'NONE', #238, #290, #689 ) ;
#491 = CARTESIAN_POINT ( 'NONE',  ( 0.000000000000000000, 0.000000000000000000, 9.000000000000001776 ) ) ;
#492 = VERTEX_POINT ( 'NONE', #97 ) ;
#493 = CIRCLE ( 'NONE', #163, 1.100000000000000311 ) ;
#494 = PRODUCT ( 'HW-003_SG90_NOMINAL_VERIFY', 'HW-003_SG90_NOMINAL_VERIFY', '', ( #304 ) ) ;
#495 = EDGE_CURVE ( 'NONE', #313, #492, #254, .T. ) ;
#496 = FACE_BOUND ( 'NONE', #372, .T. ) ;
#497 = EDGE_CURVE ( 'NONE', #236, #279, #655, .T. ) ;
#498 = VERTEX_POINT ( 'NONE', #210 ) ;
#499 = CARTESIAN_POINT ( 'NONE',  ( 17.00000000000000000, 6.099999999999999645, -2.000000000000000000 ) ) ;
#500 = ORIENTED_EDGE ( 'NONE', *, *, #583, .F. ) ;
#501 = DIRECTION ( 'NONE',  ( 1.000000000000000000, 0.000000000000000000, 0.000000000000000000 ) ) ;
#502 = EDGE_CURVE ( 'NONE', #694, #55, #715, .T. ) ;
#503 = ORIENTED_EDGE ( 'NONE', *, *, #320, .F. ) ;
#504 = CARTESIAN_POINT ( 'NONE',  ( -6.000000000000000000, 6.099999999999999645, 4.000000000000000000 ) ) ;
#505 = VERTEX_POINT ( 'NONE', #316 ) ;
#506 = DIRECTION ( 'NONE',  ( -0.000000000000000000, -1.000000000000000000, -0.000000000000000000 ) ) ;
#507 = VERTEX_POINT ( 'NONE', #87 ) ;
#508 = CARTESIAN_POINT ( 'NONE',  ( -2.500000000000000000, 0.000000000000000000, 9.000000000000001776 ) ) ;
#509 = CARTESIAN_POINT ( 'NONE',  ( -6.000000000000000000, -6.099999999999999645, 4.000000000000000000 ) ) ;
#510 = CARTESIAN_POINT ( 'NONE',  ( -11.00000000000000000, -6.099999999999999645, -2.000000000000000000 ) ) ;
#511 = ORIENTED_EDGE ( 'NONE', *, *, #495, .T. ) ;
#512 = CIRCLE ( 'NONE', #172, 1.100000000000000311 ) ;
#513 = PLANE ( 'NONE',  #336 ) ;
#514 = CARTESIAN_POINT ( 'NONE',  ( -2.500000000000000000, 0.000000000000000000, 4.000000000000000000 ) ) ;
#515 = EDGE_CURVE ( 'NONE', #315, #45, #649, .T. ) ;
#516 = CARTESIAN_POINT ( 'NONE',  ( -6.000000000000000000, -6.099999999999999645, 4.000000000000000000 ) ) ;
#517 = LOCAL_TIME ( 16, 3, 55.00000000000000000, #476 ) ;
#518 = VERTEX_POINT ( 'NONE', #421 ) ;
#519 = CARTESIAN_POINT ( 'NONE',  ( 20.00000000000000000, 0.000000000000000000, 0.000000000000000000 ) ) ;
#520 = CLOSED_SHELL ( 'NONE', ( #309, #379, #212, #445, #439, #241, #609, #661, #398, #366, #664, #728, #558, #243, #84, #114, #28, #110, #337, #8, #340 ) ) ;
#521 = DIRECTION ( 'NONE',  ( 1.000000000000000000, 0.000000000000000000, 0.000000000000000000 ) ) ;
#522 = DESIGN_CONTEXT ( 'detailed design', #560, 'design' ) ;
#523 = EDGE_LOOP ( 'NONE', ( #281, #704, #407, #129 ) ) ;
#524 = DIRECTION ( 'NONE',  ( -1.000000000000000000, 0.000000000000000000, 0.000000000000000000 ) ) ;
#525 = CARTESIAN_POINT ( 'NONE',  ( 20.00000000000000000, 0.000000000000000000, 9.000000000000001776 ) ) ;
#526 = EDGE_LOOP ( 'NONE', ( #209, #391, #153, #643 ) ) ;
#527 = LINE ( 'NONE', #402, #247 ) ;
#528 = EDGE_CURVE ( 'NONE', #610, #146, #104, .T. ) ;
#529 = EDGE_CURVE ( 'NONE', #567, #158, #141, .T. ) ;
#530 = FACE_OUTER_BOUND ( 'NONE', #133, .T. ) ;
#531 = EDGE_LOOP ( 'NONE', ( #265, #239, #83, #716 ) ) ;
#532 = APPROVAL_PERSON_ORGANIZATION ( #257, #707, #199 ) ;
#533 = PERSON_AND_ORGANIZATION_ROLE ( 'creator' ) ;
#534 = CARTESIAN_POINT ( 'NONE',  ( -6.000000000000000000, -6.099999999999999645, 4.000000000000000000 ) ) ;
#535 = PLANE ( 'NONE',  #19 ) ;
#536 = PERSON_AND_ORGANIZATION ( #482, #49 ) ;
#537 = PRODUCT_RELATED_PRODUCT_CATEGORY ( 'detail', '', ( #494 ) ) ;
#538 = DIRECTION ( 'NONE',  ( 1.000000000000000000, 0.000000000000000000, 0.000000000000000000 ) ) ;
#539 = ORIENTED_EDGE ( 'NONE', *, *, #394, .F. ) ;
#540 = PERSON_AND_ORGANIZATION ( #482, #49 ) ;
#541 = VECTOR ( 'NONE', #506, 1000.000000000000000 ) ;
#542 = FACE_BOUND ( 'NONE', #119, .T. ) ;
#543 = DIRECTION ( 'NONE',  ( -1.000000000000000000, 0.000000000000000000, 0.000000000000000000 ) ) ;
#544 = PERSON_AND_ORGANIZATION_ROLE ( 'classification_officer' ) ;
#545 = ORIENTED_EDGE ( 'NONE', *, *, #155, .F. ) ;
#546 = CARTESIAN_POINT ( 'NONE',  ( 0.000000000000000000, 0.000000000000000000, 4.000000000000000000 ) ) ;
#547 = DIRECTION ( 'NONE',  ( -0.000000000000000000, -0.000000000000000000, -1.000000000000000000 ) ) ;
#548 = CARTESIAN_POINT ( 'NONE',  ( 2.500000000000000000, 3.061616997868383141E-16, 9.000000000000001776 ) ) ;
#549 = ORIENTED_EDGE ( 'NONE', *, *, #502, .F. ) ;
#550 = EDGE_CURVE ( 'NONE', #518, #629, #478, .T. ) ;
#551 = VECTOR ( 'NONE', #144, 1000.000000000000000 ) ;
#552 = EDGE_CURVE ( 'NONE', #279, #286, #711, .T. ) ;
#553 = FACE_OUTER_BOUND ( 'NONE', #370, .T. ) ;
#554 = EDGE_LOOP ( 'NONE', ( #396, #545, #690, #570 ) ) ;
#555 = LOCAL_TIME ( 16, 3, 55.00000000000000000, #596 ) ;
#556 = DIRECTION ( 'NONE',  ( 0.000000000000000000, 0.000000000000000000, -1.000000000000000000 ) ) ;
#557 = ORIENTED_EDGE ( 'NONE', *, *, #50, .T. ) ;
#558 = ADVANCED_FACE ( 'NONE', ( #542, #415 ), #263, .T. ) ;
#559 = LINE ( 'NONE', #274, #150 ) ;
#560 = APPLICATION_CONTEXT ( 'configuration controlled 3d designs of mechanical parts and assemblies' ) ;
#561 = ORIENTED_EDGE ( 'NONE', *, *, #628, .F. ) ;
#562 = DIRECTION ( 'NONE',  ( -1.000000000000000000, 0.000000000000000000, 0.000000000000000000 ) ) ;
#563 = CIRCLE ( 'NONE', #576, 2.500000000000000000 ) ;
#564 = EDGE_LOOP ( 'NONE', ( #345, #139, #598, #435 ) ) ;
#565 = VECTOR ( 'NONE', #691, 1000.000000000000000 ) ;
#566 = DIRECTION ( 'NONE',  ( 0.000000000000000000, -0.000000000000000000, -1.000000000000000000 ) ) ;
#567 = VERTEX_POINT ( 'NONE', #431 ) ;
#568 = DIRECTION ( 'NONE',  ( 0.000000000000000000, 0.000000000000000000, 1.000000000000000000 ) ) ;
#569 = CARTESIAN_POINT ( 'NONE',  ( -11.00000000000000000, -6.099999999999999645, 0.000000000000000000 ) ) ;
#570 = ORIENTED_EDGE ( 'NONE', *, *, #394, .T. ) ;
#571 = FACE_OUTER_BOUND ( 'NONE', #722, .T. ) ;
#572 = EDGE_CURVE ( 'NONE', #453, #158, #278, .T. ) ;
#573 = FACE_OUTER_BOUND ( 'NONE', #674, .T. ) ;
#574 = EDGE_CURVE ( 'NONE', #55, #518, #658, .T. ) ;
#575 = EDGE_LOOP ( 'NONE', ( #300, #80 ) ) ;
#576 = AXIS2_PLACEMENT_3D ( 'NONE', #491, #218, #501 ) ;
#577 = VECTOR ( 'NONE', #256, 1000.000000000000000 ) ;
#578 = LINE ( 'NONE', #341, #541 ) ;
#579 = AXIS2_PLACEMENT_3D ( 'NONE', #81, #680, #459 ) ;
#580 = ORIENTED_EDGE ( 'NONE', *, *, #628, .T. ) ;
#581 = DIRECTION ( 'NONE',  ( 0.000000000000000000, 0.000000000000000000, -1.000000000000000000 ) ) ;
#582 = LINE ( 'NONE', #692, #70 ) ;
#583 = EDGE_CURVE ( 'NONE', #334, #677, #493, .T. ) ;
#584 = ORIENTED_EDGE ( 'NONE', *, *, #641, .F. ) ;
#585 = EDGE_CURVE ( 'NONE', #158, #453, #713, .T. ) ;
#586 = CARTESIAN_POINT ( 'NONE',  ( -9.000000000000000000, 0.000000000000000000, -2.000000000000000000 ) ) ;
#587 = VERTEX_POINT ( 'NONE', #681 ) ;
#588 = DATE_TIME_ROLE ( 'classification_date' ) ;
#589 = CIRCLE ( 'NONE', #159, 1.100000000000000311 ) ;
#590 = DIRECTION ( 'NONE',  ( 0.000000000000000000, 0.000000000000000000, -1.000000000000000000 ) ) ;
#591 = ORIENTED_EDGE ( 'NONE', *, *, #164, .T. ) ;
#592 = AXIS2_PLACEMENT_3D ( 'NONE', #695, #448, #568 ) ;
#593 = ADVANCED_BREP_SHAPE_REPRESENTATION ( 'HW-003_SG90_NOMINAL_VERIFY', ( #357, #389 ), #481 ) ;
#594 = CARTESIAN_POINT ( 'NONE',  ( 17.00000000000000000, -6.099999999999999645, -19.00000000000000000 ) ) ;
#595 = CYLINDRICAL_SURFACE ( 'NONE', #451, 2.500000000000000000 ) ;
#596 = COORDINATED_UNIVERSAL_TIME_OFFSET ( 6, 0, .BEHIND. ) ;
#597 = DIRECTION ( 'NONE',  ( 0.000000000000000000, 0.000000000000000000, 1.000000000000000000 ) ) ;
#598 = ORIENTED_EDGE ( 'NONE', *, *, #318, .F. ) ;
#599 = DIRECTION ( 'NONE',  ( 0.000000000000000000, 0.000000000000000000, 1.000000000000000000 ) ) ;
#600 = ORIENTED_EDGE ( 'NONE', *, *, #179, .T. ) ;
#601 = VECTOR ( 'NONE', #67, 1000.000000000000000 ) ;
#602 = CARTESIAN_POINT ( 'NONE',  ( -11.00000000000000000, 6.099999999999999645, 0.000000000000000000 ) ) ;
#603 = CARTESIAN_POINT ( 'NONE',  ( 22.00000000000000000, -6.099999999999999645, 0.000000000000000000 ) ) ;
#604 = COORDINATED_UNIVERSAL_TIME_OFFSET ( 6, 0, .BEHIND. ) ;
#605 = ORIENTED_EDGE ( 'NONE', *, *, #470, .F. ) ;
#606 = AXIS2_PLACEMENT_3D ( 'NONE', #509, #620, #687 ) ;
#607 = DIRECTION ( 'NONE',  ( -1.000000000000000000, 0.000000000000000000, 0.000000000000000000 ) ) ;
#608 = DIRECTION ( 'NONE',  ( -1.000000000000000000, 0.000000000000000000, -0.000000000000000000 ) ) ;
#609 = ADVANCED_FACE ( 'NONE', ( #171 ), #66, .F. ) ;
#610 = VERTEX_POINT ( 'NONE', #514 ) ;
#611 = LINE ( 'NONE', #223, #268 ) ;
#612 = ORIENTED_EDGE ( 'NONE', *, *, #416, .T. ) ;
#613 = AXIS2_PLACEMENT_3D ( 'NONE', #618, #556, #160 ) ;
#614 = DIRECTION ( 'NONE',  ( -0.000000000000000000, -0.000000000000000000, 1.000000000000000000 ) ) ;
#615 = CC_DESIGN_PERSON_AND_ORGANIZATION_ASSIGNMENT ( #203, #261, ( #400 ) ) ;
#616 = ORIENTED_EDGE ( 'NONE', *, *, #305, .T. ) ;
#617 = LOCAL_TIME ( 16, 3, 55.00000000000000000, #138 ) ;
#618 = CARTESIAN_POINT ( 'NONE',  ( 0.000000000000000000, 0.000000000000000000, 0.000000000000000000 ) ) ;
#619 = ORIENTED_EDGE ( 'NONE', *, *, #179, .F. ) ;
#620 = DIRECTION ( 'NONE',  ( 0.000000000000000000, 1.000000000000000000, 0.000000000000000000 ) ) ;
#621 = LINE ( 'NONE', #504, #387 ) ;
#622 = ORIENTED_EDGE ( 'NONE', *, *, #50, .F. ) ;
#623 = CARTESIAN_POINT ( 'NONE',  ( -11.00000000000000000, 6.099999999999999645, 0.000000000000000000 ) ) ;
#624 = ORIENTED_EDGE ( 'NONE', *, *, #682, .T. ) ;
#625 = DIRECTION ( 'NONE',  ( 0.000000000000000000, -1.000000000000000000, 0.000000000000000000 ) ) ;
#626 = AXIS2_PLACEMENT_3D ( 'NONE', #311, #427, #201 ) ;
#627 = DIRECTION ( 'NONE',  ( 0.000000000000000000, 1.000000000000000000, 0.000000000000000000 ) ) ;
#628 = EDGE_CURVE ( 'NONE', #668, #146, #321, .T. ) ;
#629 = VERTEX_POINT ( 'NONE', #187 ) ;
#630 = CARTESIAN_POINT ( 'NONE',  ( 22.00000000000000000, -6.099999999999999645, 0.000000000000000000 ) ) ;
#631 = EDGE_CURVE ( 'NONE', #677, #334, #176, .T. ) ;
#632 = CYLINDRICAL_SURFACE ( 'NONE', #441, 1.100000000000000311 ) ;
#633 = ORIENTED_EDGE ( 'NONE', *, *, #294, .T. ) ;
#634 = LINE ( 'NONE', #123, #292 ) ;
#635 = CARTESIAN_POINT ( 'NONE',  ( 22.00000000000000000, -6.099999999999999645, 0.000000000000000000 ) ) ;
#636 = ORIENTED_EDGE ( 'NONE', *, *, #528, .T. ) ;
#637 = VECTOR ( 'NONE', #44, 1000.000000000000000 ) ;
#638 = EDGE_CURVE ( 'NONE', #461, #122, #527, .T. ) ;
#639 = PLANE ( 'NONE',  #377 ) ;
#640 = ORIENTED_EDGE ( 'NONE', *, *, #550, .T. ) ;
#641 = EDGE_CURVE ( 'NONE', #567, #498, #688, .T. ) ;
#642 = DIRECTION ( 'NONE',  ( -1.000000000000000000, 0.000000000000000000, 0.000000000000000000 ) ) ;
#643 = ORIENTED_EDGE ( 'NONE', *, *, #189, .T. ) ;
#644 = CARTESIAN_POINT ( 'NONE',  ( 0.000000000000000000, 0.000000000000000000, 0.000000000000000000 ) ) ;
#645 = DIRECTION ( 'NONE',  ( 1.000000000000000000, 0.000000000000000000, 0.000000000000000000 ) ) ;
#646 = DIRECTION ( 'NONE',  ( -1.000000000000000000, -0.000000000000000000, -0.000000000000000000 ) ) ;
#647 = DATE_AND_TIME ( #149, #517 ) ;
#648 = AXIS2_PLACEMENT_3D ( 'NONE', #173, #409, #566 ) ;
#649 = LINE ( 'NONE', #92, #197 ) ;
#650 = LINE ( 'NONE', #303, #130 ) ;
#651 = AXIS2_PLACEMENT_3D ( 'NONE', #455, #65, #298 ) ;
#652 = DIRECTION ( 'NONE',  ( 1.000000000000000000, 0.000000000000000000, 0.000000000000000000 ) ) ;
#653 = EDGE_CURVE ( 'NONE', #246, #236, #634, .T. ) ;
#654 = EDGE_CURVE ( 'NONE', #447, #334, #22, .T. ) ;
#655 = LINE ( 'NONE', #196, #551 ) ;
#656 = DIRECTION ( 'NONE',  ( -1.000000000000000000, 0.000000000000000000, -0.000000000000000000 ) ) ;
#657 = APPROVAL_ROLE ( '' ) ;
#658 = LINE ( 'NONE', #662, #675 ) ;
#659 = LINE ( 'NONE', #417, #327 ) ;
#660 = ORIENTED_EDGE ( 'NONE', *, *, #305, .F. ) ;
#661 = ADVANCED_FACE ( 'NONE', ( #571 ), #339, .F. ) ;
#662 = CARTESIAN_POINT ( 'NONE',  ( -11.00000000000000000, -6.099999999999999645, 0.000000000000000000 ) ) ;
#663 = DIRECTION ( 'NONE',  ( 1.000000000000000000, 0.000000000000000000, 0.000000000000000000 ) ) ;
#664 = ADVANCED_FACE ( 'NONE', ( #287 ), #225, .T. ) ;
#665 = ORIENTED_EDGE ( 'NONE', *, *, #437, .F. ) ;
#666 = VECTOR ( 'NONE', #538, 1000.000000000000000 ) ;
#667 = CARTESIAN_POINT ( 'NONE',  ( 17.00000000000000000, -6.099999999999999645, 0.000000000000000000 ) ) ;
#668 = VERTEX_POINT ( 'NONE', #170 ) ;
#669 = CC_DESIGN_DATE_AND_TIME_ASSIGNMENT ( #94, #91, ( #60 ) ) ;
#670 = DIRECTION ( 'NONE',  ( -0.000000000000000000, -0.000000000000000000, -1.000000000000000000 ) ) ;
#671 = ORIENTED_EDGE ( 'NONE', *, *, #437, .T. ) ;
#672 = VECTOR ( 'NONE', #280, 1000.000000000000000 ) ;
#673 = DIRECTION ( 'NONE',  ( 1.000000000000000000, 0.000000000000000000, 0.000000000000000000 ) ) ;
#674 = EDGE_LOOP ( 'NONE', ( #262, #216 ) ) ;
#675 = VECTOR ( 'NONE', #354, 1000.000000000000000 ) ;
#676 = DIRECTION ( 'NONE',  ( -0.000000000000000000, 1.000000000000000000, 0.000000000000000000 ) ) ;
#677 = VERTEX_POINT ( 'NONE', #282 ) ;
#678 = DIRECTION ( 'NONE',  ( -1.000000000000000000, -0.000000000000000000, -0.000000000000000000 ) ) ;
#679 = EDGE_LOOP ( 'NONE', ( #382, #64, #126, #511, #442, #275, #330, #671, #393, #232, #404, #619 ) ) ;
#680 = DIRECTION ( 'NONE',  ( -0.000000000000000000, -0.000000000000000000, 1.000000000000000000 ) ) ;
#681 = CARTESIAN_POINT ( 'NONE',  ( -6.000000000000000000, 6.099999999999999645, -2.000000000000000000 ) ) ;
#682 = EDGE_CURVE ( 'NONE', #246, #505, #397, .T. ) ;
#683 = DIRECTION ( 'NONE',  ( -1.000000000000000000, 0.000000000000000000, -0.000000000000000000 ) ) ;
#684 = ORIENTED_EDGE ( 'NONE', *, *, #363, .T. ) ;
#685 = CARTESIAN_POINT ( 'NONE',  ( -10.09999999999999964, 0.000000000000000000, 9.000000000000001776 ) ) ;
#686 = EDGE_CURVE ( 'NONE', #486, #610, #353, .T. ) ;
#687 = DIRECTION ( 'NONE',  ( 0.000000000000000000, -0.000000000000000000, 1.000000000000000000 ) ) ;
#688 = CIRCLE ( 'NONE', #301, 1.100000000000000311 ) ;
#689 = DIRECTION ( 'NONE',  ( -1.000000000000000000, 0.000000000000000000, 0.000000000000000000 ) ) ;
#690 = ORIENTED_EDGE ( 'NONE', *, *, #574, .F. ) ;
#691 = DIRECTION ( 'NONE',  ( 0.000000000000000000, -1.000000000000000000, 0.000000000000000000 ) ) ;
#692 = CARTESIAN_POINT ( 'NONE',  ( -11.00000000000000000, 6.099999999999999645, 0.000000000000000000 ) ) ;
#693 = CC_DESIGN_PERSON_AND_ORGANIZATION_ASSIGNMENT ( #540, #469, ( #400 ) ) ;
#694 = VERTEX_POINT ( 'NONE', #73 ) ;
#695 = CARTESIAN_POINT ( 'NONE',  ( 17.00000000000000000, -6.099999999999999645, 4.000000000000000000 ) ) ;
#696 = DIRECTION ( 'NONE',  ( 1.000000000000000000, 0.000000000000000000, 0.000000000000000000 ) ) ;
#697 = EDGE_LOOP ( 'NONE', ( #273, #76, #53, #464 ) ) ;
#698 = VECTOR ( 'NONE', #696, 1000.000000000000000 ) ;
#699 = DIRECTION ( 'NONE',  ( -0.000000000000000000, -0.000000000000000000, -1.000000000000000000 ) ) ;
#700 = VECTOR ( 'NONE', #56, 1000.000000000000000 ) ;
#701 = PLANE ( 'NONE',  #96 ) ;
#702 = ORIENTED_EDGE ( 'NONE', *, *, #720, .T. ) ;
#703 = CARTESIAN_POINT ( 'NONE',  ( -11.00000000000000000, -6.099999999999999645, 0.000000000000000000 ) ) ;
#704 = ORIENTED_EDGE ( 'NONE', *, *, #529, .T. ) ;
#705 = PERSON_AND_ORGANIZATION ( #482, #49 ) ;
#706 = CARTESIAN_POINT ( 'NONE',  ( 18.89999999999999858, 0.000000000000000000, -2.000000000000000000 ) ) ;
#707 = APPROVAL ( #314, 'UNSPECIFIED' ) ;
#708 = DIRECTION ( 'NONE',  ( -0.000000000000000000, -0.000000000000000000, -1.000000000000000000 ) ) ;
#709 = VECTOR ( 'NONE', #214, 1000.000000000000000 ) ;
#710 = EDGE_CURVE ( 'NONE', #668, #486, #468, .T. ) ;
#711 = LINE ( 'NONE', #193, #188 ) ;
#712 = CARTESIAN_POINT ( 'NONE',  ( 18.89999999999999858, 0.000000000000000000, 9.000000000000001776 ) ) ;
#713 = CIRCLE ( 'NONE', #380, 1.100000000000000311 ) ;
#714 = PERSON_AND_ORGANIZATION ( #482, #49 ) ;
#715 = LINE ( 'NONE', #602, #229 ) ;
#716 = ORIENTED_EDGE ( 'NONE', *, *, #585, .F. ) ;
#717 = CALENDAR_DATE ( 2026, 7, 9 ) ;
#718 = EDGE_CURVE ( 'NONE', #45, #122, #240, .T. ) ;
#719 = CARTESIAN_POINT ( 'NONE',  ( 17.00000000000000000, -6.099999999999999645, 4.000000000000000000 ) ) ;
#720 = EDGE_CURVE ( 'NONE', #180, #191, #405, .T. ) ;
#721 = CARTESIAN_POINT ( 'NONE',  ( 17.00000000000000000, 6.099999999999999645, 0.000000000000000000 ) ) ;
#722 = EDGE_LOOP ( 'NONE', ( #410, #624, #219, #68 ) ) ;
#723 = CARTESIAN_POINT ( 'NONE',  ( 0.000000000000000000, 0.000000000000000000, 4.000000000000000000 ) ) ;
#724 = CC_DESIGN_APPROVAL ( #707, ( #60 ) ) ;
#725 = CARTESIAN_POINT ( 'NONE',  ( -6.000000000000000000, -6.099999999999999645, 4.000000000000000000 ) ) ;
#726 = ORIENTED_EDGE ( 'NONE', *, *, #686, .F. ) ;
#727 = CARTESIAN_POINT ( 'NONE',  ( 22.00000000000000000, 6.099999999999999645, 0.000000000000000000 ) ) ;
#728 = ADVANCED_FACE ( 'NONE', ( #350 ), #513, .F. ) ;
#729 = VERTEX_POINT ( 'NONE', #343 ) ;
ENDSEC;
END-ISO-10303-21;
