ISO-10303-21;
HEADER;
FILE_DESCRIPTION (( 'STEP AP203' ),
    '1' );
FILE_NAME ('HW-N_M2.5_nyloc_ENVELOPE.step',
    '2026-09-08T04:30:49',
    ( '' ),
    ( '' ),
    'SwSTEP 2.0',
    'SolidWorks 2026',
    '' );
FILE_SCHEMA (( 'CONFIG_CONTROL_DESIGN' ));
ENDSEC;

DATA;
#1 = DIRECTION ( 'NONE',  ( 0.000000000000000000, 0.000000000000000000, 1.000000000000000000 ) ) ;
#2 = VECTOR ( 'NONE', #295, 1000.000000000000000 ) ;
#3 = CYLINDRICAL_SURFACE ( 'NONE', #220, 1.250000000000000000 ) ;
#4 = DIRECTION ( 'NONE',  ( -0.000000000000000000, -0.000000000000000000, -1.000000000000000000 ) ) ;
#5 = EDGE_CURVE ( 'NONE', #21, #252, #94, .T. ) ;
#6 = LINE ( 'NONE', #151, #2 ) ;
#7 = DIRECTION ( 'NONE',  ( 0.8660254037844385966, -0.5000000000000003331, 0.000000000000000000 ) ) ;
#8 = CARTESIAN_POINT ( 'NONE',  ( 1.443375672974064772, 2.500000000000000000, 3.500000000000000000 ) ) ;
#9 = VERTEX_POINT ( 'NONE', #342 ) ;
#10 = FACE_OUTER_BOUND ( 'NONE', #243, .T. ) ;
#11 = DIRECTION ( 'NONE',  ( 1.502314598737158538E-16, 1.000000000000000000, -0.000000000000000000 ) ) ;
#12 = AXIS2_PLACEMENT_3D ( 'NONE', #46, #198, #228 ) ;
#13 = CC_DESIGN_APPROVAL ( #88, ( #296 ) ) ;
#14 = DIRECTION ( 'NONE',  ( -0.4999999999999998890, 0.8660254037844385966, 0.000000000000000000 ) ) ;
#15 = ORIENTED_EDGE ( 'NONE', *, *, #211, .F. ) ;
#16 = ORIENTED_EDGE ( 'NONE', *, *, #259, .T. ) ;
#17 = AXIS2_PLACEMENT_3D ( 'NONE', #29, #270, #145 ) ;
#18 = ORIENTED_EDGE ( 'NONE', *, *, #259, .F. ) ;
#19 = DIRECTION ( 'NONE',  ( -1.000000000000000000, 1.502314598737158538E-16, 0.000000000000000000 ) ) ;
#20 = VERTEX_POINT ( 'NONE', #80 ) ;
#21 = VERTEX_POINT ( 'NONE', #200 ) ;
#22 = CC_DESIGN_PERSON_AND_ORGANIZATION_ASSIGNMENT ( #172, #287, ( #296 ) ) ;
#23 = CALENDAR_DATE ( 2026, 7, 9 ) ;
#24 = EDGE_LOOP ( 'NONE', ( #51, #261 ) ) ;
#25 = DATE_TIME_ROLE ( 'classification_date' ) ;
#26 = CARTESIAN_POINT ( 'NONE',  ( -1.443375672974065882, -2.499999999999999556, 3.500000000000000000 ) ) ;
#27 = CALENDAR_DATE ( 2026, 7, 9 ) ;
#28 = CC_DESIGN_PERSON_AND_ORGANIZATION_ASSIGNMENT ( #235, #146, ( #59 ) ) ;
#29 = CARTESIAN_POINT ( 'NONE',  ( 0.000000000000000000, 0.000000000000000000, 3.500000000000000000 ) ) ;
#30 = APPLICATION_CONTEXT ( 'configuration controlled 3d designs of mechanical parts and assemblies' ) ;
#31 = MECHANICAL_CONTEXT ( 'NONE', #96, 'mechanical' ) ;
#32 = CIRCLE ( 'NONE', #372, 1.250000000000000000 ) ;
#33 = LINE ( 'NONE', #291, #100 ) ;
#34 = PLANE ( 'NONE',  #195 ) ;
#35 = EDGE_CURVE ( 'NONE', #309, #196, #315, .T. ) ;
#36 = CARTESIAN_POINT ( 'NONE',  ( 1.443375672974064772, 2.500000000000000000, 3.500000000000000000 ) ) ;
#37 = EDGE_CURVE ( 'NONE', #302, #133, #289, .T. ) ;
#38 = DIRECTION ( 'NONE',  ( -0.000000000000000000, -0.000000000000000000, -1.000000000000000000 ) ) ;
#39 = DIRECTION ( 'NONE',  ( -0.5000000000000002220, -0.8660254037844384856, 0.000000000000000000 ) ) ;
#40 = DIRECTION ( 'NONE',  ( 0.4999999999999996669, -0.8660254037844388186, 0.000000000000000000 ) ) ;
#41 = CARTESIAN_POINT ( 'NONE',  ( 1.443375672974064772, 2.500000000000000000, 3.500000000000000000 ) ) ;
#42 = ORIENTED_EDGE ( 'NONE', *, *, #35, .F. ) ;
#43 = VECTOR ( 'NONE', #179, 1000.000000000000000 ) ;
#44 = EDGE_LOOP ( 'NONE', ( #333, #107, #136, #130, #247, #189 ) ) ;
#45 = ORIENTED_EDGE ( 'NONE', *, *, #294, .F. ) ;
#46 = CARTESIAN_POINT ( 'NONE',  ( 0.000000000000000000, 0.000000000000000000, 3.500000000000000000 ) ) ;
#47 = VECTOR ( 'NONE', #213, 1000.000000000000000 ) ;
#48 = CARTESIAN_POINT ( 'NONE',  ( 1.443375672974064772, -2.500000000000000000, 0.000000000000000000 ) ) ;
#49 = ORIENTED_EDGE ( 'NONE', *, *, #251, .F. ) ;
#50 = CALENDAR_DATE ( 2026, 7, 9 ) ;
#51 = ORIENTED_EDGE ( 'NONE', *, *, #174, .F. ) ;
#52 = DESIGN_CONTEXT ( 'detailed design', #30, 'design' ) ;
#53 = PERSON_AND_ORGANIZATION_ROLE ( 'classification_officer' ) ;
#54 = ORIENTED_EDGE ( 'NONE', *, *, #193, .F. ) ;
#55 = PERSON_AND_ORGANIZATION ( #329, #131 ) ;
#56 = CIRCLE ( 'NONE', #108, 1.250000000000000000 ) ;
#57 = DIRECTION ( 'NONE',  ( -0.000000000000000000, -0.000000000000000000, -1.000000000000000000 ) ) ;
#58 = DIRECTION ( 'NONE',  ( 0.4999999999999998890, 0.8660254037844385966, 0.000000000000000000 ) ) ;
#59 = PRODUCT ( 'HW-N_M2.5_nyloc_ENVELOPE', 'HW-N_M2.5_nyloc_ENVELOPE', '', ( #31 ) ) ;
#60 = LINE ( 'NONE', #26, #43 ) ;
#61 = AXIS2_PLACEMENT_3D ( 'NONE', #212, #150, #293 ) ;
#62 = FACE_OUTER_BOUND ( 'NONE', #253, .T. ) ;
#63 = CARTESIAN_POINT ( 'NONE',  ( -2.886751345948129099, 3.535250795749689880E-16, 3.500000000000000000 ) ) ;
#64 = DIRECTION ( 'NONE',  ( 0.4999999999999998890, 0.8660254037844385966, 0.000000000000000000 ) ) ;
#65 = CARTESIAN_POINT ( 'NONE',  ( 2.886751345948129099, 0.000000000000000000, 3.500000000000000000 ) ) ;
#66 = CC_DESIGN_APPROVAL ( #297, ( #132 ) ) ;
#67 = ORIENTED_EDGE ( 'NONE', *, *, #79, .T. ) ;
#68 = DIRECTION ( 'NONE',  ( -0.000000000000000000, -0.000000000000000000, -1.000000000000000000 ) ) ;
#69 = DIRECTION ( 'NONE',  ( 1.000000000000000000, 0.000000000000000000, 0.000000000000000000 ) ) ;
#70 = ADVANCED_FACE ( 'NONE', ( #354 ), #268, .F. ) ;
#71 = ORIENTED_EDGE ( 'NONE', *, *, #319, .F. ) ;
#72 = DIRECTION ( 'NONE',  ( -0.4999999999999998890, 0.8660254037844385966, 0.000000000000000000 ) ) ;
#73 = LINE ( 'NONE', #41, #162 ) ;
#74 = ORIENTED_EDGE ( 'NONE', *, *, #304, .F. ) ;
#75 = VECTOR ( 'NONE', #301, 1000.000000000000000 ) ;
#76 = CALENDAR_DATE ( 2026, 7, 9 ) ;
#77 = ORIENTED_EDGE ( 'NONE', *, *, #229, .F. ) ;
#78 = COORDINATED_UNIVERSAL_TIME_OFFSET ( 6, 0, .BEHIND. ) ;
#79 = EDGE_CURVE ( 'NONE', #196, #133, #33, .T. ) ;
#80 = CARTESIAN_POINT ( 'NONE',  ( -1.250000000000000000, 0.000000000000000000, 0.000000000000000000 ) ) ;
#81 = CARTESIAN_POINT ( 'NONE',  ( -1.443375672974063884, 2.500000000000000444, 3.500000000000000000 ) ) ;
#82 = VECTOR ( 'NONE', #331, 1000.000000000000000 ) ;
#83 = LOCAL_TIME ( 23, 30, 49.00000000000000000, #314 ) ;
#84 = CARTESIAN_POINT ( 'NONE',  ( -2.886751345948129099, 3.535250795749689880E-16, 3.500000000000000000 ) ) ;
#85 = APPROVAL_ROLE ( '' ) ;
#86 = FACE_OUTER_BOUND ( 'NONE', #281, .T. ) ;
#87 = CARTESIAN_POINT ( 'NONE',  ( 1.443375672974064772, 2.500000000000000000, 0.000000000000000000 ) ) ;
#88 = APPROVAL ( #224, 'UNSPECIFIED' ) ;
#89 = AXIS2_PLACEMENT_3D ( 'NONE', #349, #91, #119 ) ;
#90 = DIRECTION ( 'NONE',  ( 1.000000000000000000, 0.000000000000000000, 0.000000000000000000 ) ) ;
#91 = DIRECTION ( 'NONE',  ( 0.000000000000000000, -0.000000000000000000, 1.000000000000000000 ) ) ;
#92 = PLANE ( 'NONE',  #336 ) ;
#93 = CARTESIAN_POINT ( 'NONE',  ( -1.443375672974063884, 2.500000000000000444, 0.000000000000000000 ) ) ;
#94 = CIRCLE ( 'NONE', #12, 1.250000000000000000 ) ;
#95 = DIRECTION ( 'NONE',  ( 1.000000000000000000, -1.502314598737159771E-16, 0.000000000000000000 ) ) ;
#96 = APPLICATION_CONTEXT ( 'configuration controlled 3d designs of mechanical parts and assemblies' ) ;
#97 = ORIENTED_EDGE ( 'NONE', *, *, #256, .F. ) ;
#98 = UNCERTAINTY_MEASURE_WITH_UNIT (LENGTH_MEASURE( 1.000000000000000082E-05 ), #114, 'distance_accuracy_value', 'NONE');
#99 = ADVANCED_FACE ( 'NONE', ( #116, #323 ), #122, .T. ) ;
#100 = VECTOR ( 'NONE', #377, 1000.000000000000000 ) ;
#101 = ADVANCED_FACE ( 'NONE', ( #86, #208 ), #34, .F. ) ;
#102 = VERTEX_POINT ( 'NONE', #36 ) ;
#103 = LINE ( 'NONE', #303, #288 ) ;
#104 = ORIENTED_EDGE ( 'NONE', *, *, #269, .T. ) ;
#105 = CC_DESIGN_PERSON_AND_ORGANIZATION_ASSIGNMENT ( #199, #53, ( #234 ) ) ;
#106 = PERSON_AND_ORGANIZATION_ROLE ( 'creator' ) ;
#107 = ORIENTED_EDGE ( 'NONE', *, *, #319, .T. ) ;
#108 = AXIS2_PLACEMENT_3D ( 'NONE', #321, #118, #90 ) ;
#109 = CC_DESIGN_SECURITY_CLASSIFICATION ( #234, ( #296 ) ) ;
#110 = ADVANCED_FACE ( 'NONE', ( #62 ), #3, .F. ) ;
#111 = PERSON_AND_ORGANIZATION_ROLE ( 'creator' ) ;
#112 = ORIENTED_EDGE ( 'NONE', *, *, #37, .T. ) ;
#113 = ORIENTED_EDGE ( 'NONE', *, *, #35, .T. ) ;
#114 =( LENGTH_UNIT ( ) NAMED_UNIT ( * ) SI_UNIT ( .MILLI., .METRE. ) );
#115 = EDGE_CURVE ( 'NONE', #258, #285, #60, .T. ) ;
#116 = FACE_OUTER_BOUND ( 'NONE', #44, .T. ) ;
#117 = CC_DESIGN_APPROVAL ( #335, ( #234 ) ) ;
#118 = DIRECTION ( 'NONE',  ( 0.000000000000000000, 0.000000000000000000, 1.000000000000000000 ) ) ;
#119 = DIRECTION ( 'NONE',  ( 1.000000000000000000, 0.000000000000000000, -0.000000000000000000 ) ) ;
#120 = CARTESIAN_POINT ( 'NONE',  ( -1.443375672974063884, 2.500000000000000444, 3.500000000000000000 ) ) ;
#121 = AXIS2_PLACEMENT_3D ( 'NONE', #156, #127, #360 ) ;
#122 = PLANE ( 'NONE',  #89 ) ;
#123 = PLANE ( 'NONE',  #121 ) ;
#124 = EDGE_CURVE ( 'NONE', #258, #283, #6, .T. ) ;
#125 = LINE ( 'NONE', #93, #155 ) ;
#126 = VECTOR ( 'NONE', #332, 1000.000000000000114 ) ;
#127 = DIRECTION ( 'NONE',  ( 0.8660254037844388186, 0.4999999999999996669, -0.000000000000000000 ) ) ;
#128 = LINE ( 'NONE', #219, #82 ) ;
#129 = ORIENTED_EDGE ( 'NONE', *, *, #286, .T. ) ;
#130 = ORIENTED_EDGE ( 'NONE', *, *, #294, .T. ) ;
#131 = ORGANIZATION ( 'UNSPECIFIED', 'UNSPECIFIED', '' ) ;
#132 = PRODUCT_DEFINITION ( 'UNKNOWN', '', #296, #52 ) ;
#133 = VERTEX_POINT ( 'NONE', #347 ) ;
#134 = CARTESIAN_POINT ( 'NONE',  ( -1.443375672974065882, -2.499999999999999556, 3.500000000000000000 ) ) ;
#135 = ADVANCED_FACE ( 'NONE', ( #142 ), #210, .F. ) ;
#136 = ORIENTED_EDGE ( 'NONE', *, *, #251, .T. ) ;
#137 =( NAMED_UNIT ( * ) SI_UNIT ( $, .STERADIAN. ) SOLID_ANGLE_UNIT ( ) );
#138 = ORIENTED_EDGE ( 'NONE', *, *, #171, .F. ) ;
#139 = AXIS2_PLACEMENT_3D ( 'NONE', #187, #11, #19 ) ;
#140 = EDGE_LOOP ( 'NONE', ( #221, #54, #226, #279 ) ) ;
#141 = APPROVAL_STATUS ( 'not_yet_approved' ) ;
#142 = FACE_OUTER_BOUND ( 'NONE', #364, .T. ) ;
#143 = DATE_AND_TIME ( #27, #204 ) ;
#144 = EDGE_CURVE ( 'NONE', #158, #258, #324, .T. ) ;
#145 = DIRECTION ( 'NONE',  ( 1.000000000000000000, 0.000000000000000000, 0.000000000000000000 ) ) ;
#146 = PERSON_AND_ORGANIZATION_ROLE ( 'design_owner' ) ;
#147 = VECTOR ( 'NONE', #206, 1000.000000000000114 ) ;
#148 = PRODUCT_RELATED_PRODUCT_CATEGORY ( 'detail', '', ( #59 ) ) ;
#149 = LINE ( 'NONE', #267, #271 ) ;
#150 = DIRECTION ( 'NONE',  ( -0.000000000000000000, -0.000000000000000000, -1.000000000000000000 ) ) ;
#151 = CARTESIAN_POINT ( 'NONE',  ( -1.443375672974065882, -2.499999999999999556, 3.500000000000000000 ) ) ;
#152 = FACE_OUTER_BOUND ( 'NONE', #140, .T. ) ;
#153 = LINE ( 'NONE', #218, #47 ) ;
#154 = CARTESIAN_POINT ( 'NONE',  ( 1.443375672974064772, -2.500000000000000000, 3.500000000000000000 ) ) ;
#155 = VECTOR ( 'NONE', #39, 1000.000000000000114 ) ;
#156 = CARTESIAN_POINT ( 'NONE',  ( -2.886751345948129099, 3.535250795749689880E-16, 3.500000000000000000 ) ) ;
#157 = EDGE_CURVE ( 'NONE', #20, #344, #56, .T. ) ;
#158 = VERTEX_POINT ( 'NONE', #63 ) ;
#159 = EDGE_LOOP ( 'NONE', ( #67, #215, #49, #255 ) ) ;
#160 = ORIENTED_EDGE ( 'NONE', *, *, #115, .F. ) ;
#161 = ORIENTED_EDGE ( 'NONE', *, *, #124, .F. ) ;
#162 = VECTOR ( 'NONE', #68, 1000.000000000000000 ) ;
#163 = PLANE ( 'NONE',  #216 ) ;
#164 = ORIENTED_EDGE ( 'NONE', *, *, #256, .T. ) ;
#165 = DIRECTION ( 'NONE',  ( 1.000000000000000000, 0.000000000000000000, 0.000000000000000000 ) ) ;
#166 = ADVANCED_FACE ( 'NONE', ( #236 ), #180, .F. ) ;
#167 = ORIENTED_EDGE ( 'NONE', *, *, #157, .T. ) ;
#168 = DATE_TIME_ROLE ( 'creation_date' ) ;
#169 = EDGE_LOOP ( 'NONE', ( #167, #374 ) ) ;
#170 = EDGE_CURVE ( 'NONE', #285, #249, #149, .T. ) ;
#171 = EDGE_CURVE ( 'NONE', #21, #344, #299, .T. ) ;
#172 = PERSON_AND_ORGANIZATION ( #329, #131 ) ;
#173 = DIRECTION ( 'NONE',  ( -1.000000000000000000, 0.000000000000000000, 0.000000000000000000 ) ) ;
#174 = EDGE_CURVE ( 'NONE', #252, #21, #358, .T. ) ;
#175 = DATE_AND_TIME ( #76, #184 ) ;
#176 = DIRECTION ( 'NONE',  ( -0.000000000000000000, -0.000000000000000000, -1.000000000000000000 ) ) ;
#177 = APPLICATION_PROTOCOL_DEFINITION ( 'international standard', 'config_control_design', 1994, #96 ) ;
#178 = CC_DESIGN_PERSON_AND_ORGANIZATION_ASSIGNMENT ( #201, #106, ( #132 ) ) ;
#179 = DIRECTION ( 'NONE',  ( 1.000000000000000000, -1.502314598737158538E-16, 0.000000000000000000 ) ) ;
#180 = CYLINDRICAL_SURFACE ( 'NONE', #61, 1.250000000000000000 ) ;
#181 = CARTESIAN_POINT ( 'NONE',  ( 2.886751345948129099, 0.000000000000000000, 3.500000000000000000 ) ) ;
#182 = CC_DESIGN_PERSON_AND_ORGANIZATION_ASSIGNMENT ( #371, #111, ( #296 ) ) ;
#183 = DIRECTION ( 'NONE',  ( -1.502314598737159771E-16, -1.000000000000000000, 0.000000000000000000 ) ) ;
#184 = LOCAL_TIME ( 23, 30, 49.00000000000000000, #78 ) ;
#185 = DIRECTION ( 'NONE',  ( -0.4999999999999998890, -0.8660254037844385966, 0.000000000000000000 ) ) ;
#186 = ORIENTED_EDGE ( 'NONE', *, *, #144, .F. ) ;
#187 = CARTESIAN_POINT ( 'NONE',  ( -1.443375672974065882, -2.499999999999999556, 3.500000000000000000 ) ) ;
#188 = LINE ( 'NONE', #48, #365 ) ;
#189 = ORIENTED_EDGE ( 'NONE', *, *, #115, .T. ) ;
#190 = AXIS2_PLACEMENT_3D ( 'NONE', #120, #7, #298 ) ;
#191 = VERTEX_POINT ( 'NONE', #265 ) ;
#192 = DIRECTION ( 'NONE',  ( -0.000000000000000000, -0.000000000000000000, -1.000000000000000000 ) ) ;
#193 = EDGE_CURVE ( 'NONE', #249, #309, #237, .T. ) ;
#194 = PLANE ( 'NONE',  #139 ) ;
#195 = AXIS2_PLACEMENT_3D ( 'NONE', #232, #240, #318 ) ;
#196 = VERTEX_POINT ( 'NONE', #87 ) ;
#197 = APPROVAL_DATE_TIME ( #175, #297 ) ;
#198 = DIRECTION ( 'NONE',  ( 0.000000000000000000, 0.000000000000000000, 1.000000000000000000 ) ) ;
#199 = PERSON_AND_ORGANIZATION ( #329, #131 ) ;
#200 = CARTESIAN_POINT ( 'NONE',  ( 1.250000000000000000, 1.530808498934191571E-16, 3.500000000000000000 ) ) ;
#201 = PERSON_AND_ORGANIZATION ( #329, #131 ) ;
#202 = ORIENTED_EDGE ( 'NONE', *, *, #229, .T. ) ;
#203 =( GEOMETRIC_REPRESENTATION_CONTEXT ( 3 ) GLOBAL_UNCERTAINTY_ASSIGNED_CONTEXT ( ( #98 ) ) GLOBAL_UNIT_ASSIGNED_CONTEXT ( ( #114, #290, #137 ) ) REPRESENTATION_CONTEXT ( 'NONE', 'WORKASPACE' ) );
#204 = LOCAL_TIME ( 23, 30, 49.00000000000000000, #320 ) ;
#205 = DATE_AND_TIME ( #50, #83 ) ;
#206 = DIRECTION ( 'NONE',  ( 0.4999999999999996669, -0.8660254037844388186, 0.000000000000000000 ) ) ;
#207 = APPLICATION_PROTOCOL_DEFINITION ( 'international standard', 'config_control_design', 1994, #30 ) ;
#208 = FACE_BOUND ( 'NONE', #169, .T. ) ;
#209 = ADVANCED_FACE ( 'NONE', ( #357 ), #163, .F. ) ;
#210 = PLANE ( 'NONE',  #244 ) ;
#211 = EDGE_CURVE ( 'NONE', #344, #20, #32, .T. ) ;
#212 = CARTESIAN_POINT ( 'NONE',  ( 0.000000000000000000, 0.000000000000000000, 3.500000000000000000 ) ) ;
#213 = DIRECTION ( 'NONE',  ( -0.000000000000000000, -0.000000000000000000, -1.000000000000000000 ) ) ;
#214 = CARTESIAN_POINT ( 'NONE',  ( 1.443375672974064772, -2.500000000000000000, 3.500000000000000000 ) ) ;
#215 = ORIENTED_EDGE ( 'NONE', *, *, #37, .F. ) ;
#216 = AXIS2_PLACEMENT_3D ( 'NONE', #272, #183, #95 ) ;
#217 = LOCAL_TIME ( 23, 30, 49.00000000000000000, #292 ) ;
#218 = CARTESIAN_POINT ( 'NONE',  ( -2.886751345948129099, 3.535250795749689880E-16, 3.500000000000000000 ) ) ;
#219 = CARTESIAN_POINT ( 'NONE',  ( -1.443375672974065882, -2.499999999999999556, 0.000000000000000000 ) ) ;
#220 = AXIS2_PLACEMENT_3D ( 'NONE', #351, #57, #173 ) ;
#221 = ORIENTED_EDGE ( 'NONE', *, *, #361, .T. ) ;
#222 = CARTESIAN_POINT ( 'NONE',  ( -1.250000000000000000, 0.000000000000000000, 3.500000000000000000 ) ) ;
#223 = ORIENTED_EDGE ( 'NONE', *, *, #157, .F. ) ;
#224 = APPROVAL_STATUS ( 'not_yet_approved' ) ;
#225 = VECTOR ( 'NONE', #72, 1000.000000000000227 ) ;
#226 = ORIENTED_EDGE ( 'NONE', *, *, #170, .F. ) ;
#227 = CALENDAR_DATE ( 2026, 7, 9 ) ;
#228 = DIRECTION ( 'NONE',  ( 1.000000000000000000, 0.000000000000000000, 0.000000000000000000 ) ) ;
#229 = EDGE_CURVE ( 'NONE', #133, #191, #125, .T. ) ;
#230 = ORIENTED_EDGE ( 'NONE', *, *, #124, .T. ) ;
#231 = DATE_AND_TIME ( #23, #217 ) ;
#232 = CARTESIAN_POINT ( 'NONE',  ( 0.000000000000000000, 0.000000000000000000, 0.000000000000000000 ) ) ;
#233 = VECTOR ( 'NONE', #38, 1000.000000000000000 ) ;
#234 = SECURITY_CLASSIFICATION ( '', '', #375 ) ;
#235 = PERSON_AND_ORGANIZATION ( #329, #131 ) ;
#236 = FACE_OUTER_BOUND ( 'NONE', #313, .T. ) ;
#237 = LINE ( 'NONE', #181, #325 ) ;
#238 = CARTESIAN_POINT ( 'NONE',  ( 2.886751345948129099, 0.000000000000000000, 3.500000000000000000 ) ) ;
#239 = APPROVAL_PERSON_ORGANIZATION ( #55, #88, #257 ) ;
#240 = DIRECTION ( 'NONE',  ( 0.000000000000000000, -0.000000000000000000, 1.000000000000000000 ) ) ;
#241 = LINE ( 'NONE', #65, #307 ) ;
#242 = FACE_OUTER_BOUND ( 'NONE', #340, .T. ) ;
#243 = EDGE_LOOP ( 'NONE', ( #104, #373, #160, #230 ) ) ;
#244 = AXIS2_PLACEMENT_3D ( 'NONE', #238, #353, #263 ) ;
#245 = LINE ( 'NONE', #8, #275 ) ;
#246 = CARTESIAN_POINT ( 'NONE',  ( -1.250000000000000000, 0.000000000000000000, 3.500000000000000000 ) ) ;
#247 = ORIENTED_EDGE ( 'NONE', *, *, #144, .T. ) ;
#248 = CC_DESIGN_DATE_AND_TIME_ASSIGNMENT ( #343, #168, ( #132 ) ) ;
#249 = VERTEX_POINT ( 'NONE', #276 ) ;
#250 = AXIS2_PLACEMENT_3D ( 'NONE', #322, #1, #165 ) ;
#251 = EDGE_CURVE ( 'NONE', #102, #302, #245, .T. ) ;
#252 = VERTEX_POINT ( 'NONE', #222 ) ;
#253 = EDGE_LOOP ( 'NONE', ( #366, #306, #223, #312 ) ) ;
#254 = CARTESIAN_POINT ( 'NONE',  ( 0.000000000000000000, 0.000000000000000000, 0.000000000000000000 ) ) ;
#255 = ORIENTED_EDGE ( 'NONE', *, *, #304, .T. ) ;
#256 = EDGE_CURVE ( 'NONE', #158, #191, #153, .T. ) ;
#257 = APPROVAL_ROLE ( '' ) ;
#258 = VERTEX_POINT ( 'NONE', #134 ) ;
#259 = EDGE_CURVE ( 'NONE', #191, #283, #103, .T. ) ;
#260 = MANIFOLD_SOLID_BREP ( 'Nut_thread_envelope_height_3.5', #266 ) ;
#261 = ORIENTED_EDGE ( 'NONE', *, *, #5, .F. ) ;
#262 = APPROVAL_STATUS ( 'not_yet_approved' ) ;
#263 = DIRECTION ( 'NONE',  ( 0.4999999999999998890, -0.8660254037844385966, 0.000000000000000000 ) ) ;
#264 = APPROVAL_DATE_TIME ( #143, #335 ) ;
#265 = CARTESIAN_POINT ( 'NONE',  ( -2.886751345948129099, 3.535250795749689880E-16, 0.000000000000000000 ) ) ;
#266 = CLOSED_SHELL ( 'NONE', ( #110, #99, #101, #376, #135, #209, #70, #352, #334, #166 ) ) ;
#267 = CARTESIAN_POINT ( 'NONE',  ( 1.443375672974064772, -2.500000000000000000, 3.500000000000000000 ) ) ;
#268 = PLANE ( 'NONE',  #190 ) ;
#269 = EDGE_CURVE ( 'NONE', #283, #9, #128, .T. ) ;
#270 = DIRECTION ( 'NONE',  ( 0.000000000000000000, 0.000000000000000000, 1.000000000000000000 ) ) ;
#271 = VECTOR ( 'NONE', #58, 1000.000000000000227 ) ;
#272 = CARTESIAN_POINT ( 'NONE',  ( 1.443375672974064772, 2.500000000000000000, 3.500000000000000000 ) ) ;
#273 = LINE ( 'NONE', #327, #126 ) ;
#274 = LINE ( 'NONE', #246, #75 ) ;
#275 = VECTOR ( 'NONE', #362, 1000.000000000000000 ) ;
#276 = CARTESIAN_POINT ( 'NONE',  ( 2.886751345948129099, 0.000000000000000000, 3.500000000000000000 ) ) ;
#277 = EDGE_LOOP ( 'NONE', ( #202, #97, #45, #112 ) ) ;
#278 = ORIENTED_EDGE ( 'NONE', *, *, #269, .F. ) ;
#279 = ORIENTED_EDGE ( 'NONE', *, *, #370, .T. ) ;
#280 = LOCAL_TIME ( 23, 30, 49.00000000000000000, #341 ) ;
#281 = EDGE_LOOP ( 'NONE', ( #369, #278, #18, #77, #363, #42 ) ) ;
#282 = CARTESIAN_POINT ( 'NONE',  ( 1.443375672974064772, -2.500000000000000000, 3.500000000000000000 ) ) ;
#283 = VERTEX_POINT ( 'NONE', #305 ) ;
#284 = APPROVAL_DATE_TIME ( #205, #88 ) ;
#285 = VERTEX_POINT ( 'NONE', #154 ) ;
#286 = EDGE_CURVE ( 'NONE', #252, #20, #274, .T. ) ;
#287 = PERSON_AND_ORGANIZATION_ROLE ( 'design_supplier' ) ;
#288 = VECTOR ( 'NONE', #40, 1000.000000000000114 ) ;
#289 = LINE ( 'NONE', #81, #311 ) ;
#290 =( NAMED_UNIT ( * ) PLANE_ANGLE_UNIT ( ) SI_UNIT ( $, .RADIAN. ) );
#291 = CARTESIAN_POINT ( 'NONE',  ( 1.443375672974064772, 2.500000000000000000, 0.000000000000000000 ) ) ;
#292 = COORDINATED_UNIVERSAL_TIME_OFFSET ( 6, 0, .BEHIND. ) ;
#293 = DIRECTION ( 'NONE',  ( -1.000000000000000000, 0.000000000000000000, 0.000000000000000000 ) ) ;
#294 = EDGE_CURVE ( 'NONE', #302, #158, #273, .T. ) ;
#295 = DIRECTION ( 'NONE',  ( -0.000000000000000000, -0.000000000000000000, -1.000000000000000000 ) ) ;
#296 = PRODUCT_DEFINITION_FORMATION_WITH_SPECIFIED_SOURCE ( 'ANY', '', #59, .NOT_KNOWN. ) ;
#297 = APPROVAL ( #141, 'UNSPECIFIED' ) ;
#298 = DIRECTION ( 'NONE',  ( 0.5000000000000002220, 0.8660254037844384856, 0.000000000000000000 ) ) ;
#299 = LINE ( 'NONE', #326, #317 ) ;
#300 = CARTESIAN_POINT ( 'NONE',  ( 2.886751345948129099, 0.000000000000000000, 0.000000000000000000 ) ) ;
#301 = DIRECTION ( 'NONE',  ( -0.000000000000000000, -0.000000000000000000, -1.000000000000000000 ) ) ;
#302 = VERTEX_POINT ( 'NONE', #338 ) ;
#303 = CARTESIAN_POINT ( 'NONE',  ( -2.886751345948129099, 3.535250795749689880E-16, 0.000000000000000000 ) ) ;
#304 = EDGE_CURVE ( 'NONE', #102, #196, #73, .T. ) ;
#305 = CARTESIAN_POINT ( 'NONE',  ( -1.443375672974065882, -2.499999999999999556, 0.000000000000000000 ) ) ;
#306 = ORIENTED_EDGE ( 'NONE', *, *, #171, .T. ) ;
#307 = VECTOR ( 'NONE', #14, 1000.000000000000227 ) ;
#308 = ADVANCED_BREP_SHAPE_REPRESENTATION ( 'HW-N_M2.5_nyloc_ENVELOPE', ( #260, #250 ), #203 ) ;
#309 = VERTEX_POINT ( 'NONE', #300 ) ;
#310 = CARTESIAN_POINT ( 'NONE',  ( 1.250000000000000000, 1.530808498934191571E-16, 0.000000000000000000 ) ) ;
#311 = VECTOR ( 'NONE', #192, 1000.000000000000000 ) ;
#312 = ORIENTED_EDGE ( 'NONE', *, *, #286, .F. ) ;
#313 = EDGE_LOOP ( 'NONE', ( #138, #339, #129, #15 ) ) ;
#314 = COORDINATED_UNIVERSAL_TIME_OFFSET ( 6, 0, .BEHIND. ) ;
#315 = LINE ( 'NONE', #337, #225 ) ;
#316 = PERSON_AND_ORGANIZATION ( #329, #131 ) ;
#317 = VECTOR ( 'NONE', #176, 1000.000000000000000 ) ;
#318 = DIRECTION ( 'NONE',  ( 1.000000000000000000, 0.000000000000000000, -0.000000000000000000 ) ) ;
#319 = EDGE_CURVE ( 'NONE', #249, #102, #241, .T. ) ;
#320 = COORDINATED_UNIVERSAL_TIME_OFFSET ( 6, 0, .BEHIND. ) ;
#321 = CARTESIAN_POINT ( 'NONE',  ( 0.000000000000000000, 0.000000000000000000, 0.000000000000000000 ) ) ;
#322 = CARTESIAN_POINT ( 'NONE',  ( 0.000000000000000000, 0.000000000000000000, 0.000000000000000000 ) ) ;
#323 = FACE_BOUND ( 'NONE', #24, .T. ) ;
#324 = LINE ( 'NONE', #84, #147 ) ;
#325 = VECTOR ( 'NONE', #4, 1000.000000000000000 ) ;
#326 = CARTESIAN_POINT ( 'NONE',  ( 1.250000000000000000, 1.530808498934191571E-16, 3.500000000000000000 ) ) ;
#327 = CARTESIAN_POINT ( 'NONE',  ( -1.443375672974063884, 2.500000000000000444, 3.500000000000000000 ) ) ;
#328 = PRODUCT_DEFINITION_SHAPE ( 'NONE', 'NONE',  #132 ) ;
#329 = PERSON ( 'UNSPECIFIED', 'UNSPECIFIED', 'UNSPECIFIED', ('UNSPECIFIED'), ('UNSPECIFIED'), ('UNSPECIFIED') ) ;
#330 = DIRECTION ( 'NONE',  ( -0.8660254037844387076, 0.4999999999999999445, 0.000000000000000000 ) ) ;
#331 = DIRECTION ( 'NONE',  ( 1.000000000000000000, -1.502314598737158538E-16, 0.000000000000000000 ) ) ;
#332 = DIRECTION ( 'NONE',  ( -0.5000000000000002220, -0.8660254037844384856, 0.000000000000000000 ) ) ;
#333 = ORIENTED_EDGE ( 'NONE', *, *, #170, .T. ) ;
#334 = ADVANCED_FACE ( 'NONE', ( #10 ), #194, .F. ) ;
#335 = APPROVAL ( #262, 'UNSPECIFIED' ) ;
#336 = AXIS2_PLACEMENT_3D ( 'NONE', #214, #330, #185 ) ;
#337 = CARTESIAN_POINT ( 'NONE',  ( 2.886751345948129099, 0.000000000000000000, 0.000000000000000000 ) ) ;
#338 = CARTESIAN_POINT ( 'NONE',  ( -1.443375672974063884, 2.500000000000000444, 3.500000000000000000 ) ) ;
#339 = ORIENTED_EDGE ( 'NONE', *, *, #5, .T. ) ;
#340 = EDGE_LOOP ( 'NONE', ( #16, #161, #186, #164 ) ) ;
#341 = COORDINATED_UNIVERSAL_TIME_OFFSET ( 6, 0, .BEHIND. ) ;
#342 = CARTESIAN_POINT ( 'NONE',  ( 1.443375672974064772, -2.500000000000000000, 0.000000000000000000 ) ) ;
#343 = DATE_AND_TIME ( #227, #280 ) ;
#344 = VERTEX_POINT ( 'NONE', #310 ) ;
#345 = APPROVAL_ROLE ( '' ) ;
#346 = APPROVAL_PERSON_ORGANIZATION ( #316, #297, #85 ) ;
#347 = CARTESIAN_POINT ( 'NONE',  ( -1.443375672974063884, 2.500000000000000444, 0.000000000000000000 ) ) ;
#348 = PERSON_AND_ORGANIZATION ( #329, #131 ) ;
#349 = CARTESIAN_POINT ( 'NONE',  ( 0.000000000000000000, 0.000000000000000000, 3.500000000000000000 ) ) ;
#350 = CC_DESIGN_DATE_AND_TIME_ASSIGNMENT ( #231, #25, ( #234 ) ) ;
#351 = CARTESIAN_POINT ( 'NONE',  ( 0.000000000000000000, 0.000000000000000000, 3.500000000000000000 ) ) ;
#352 = ADVANCED_FACE ( 'NONE', ( #242 ), #123, .F. ) ;
#353 = DIRECTION ( 'NONE',  ( -0.8660254037844387076, -0.4999999999999999445, 0.000000000000000000 ) ) ;
#354 = FACE_OUTER_BOUND ( 'NONE', #277, .T. ) ;
#355 = SHAPE_DEFINITION_REPRESENTATION ( #328, #308 ) ;
#356 = LINE ( 'NONE', #282, #233 ) ;
#357 = FACE_OUTER_BOUND ( 'NONE', #159, .T. ) ;
#358 = CIRCLE ( 'NONE', #17, 1.250000000000000000 ) ;
#359 = APPROVAL_PERSON_ORGANIZATION ( #348, #335, #345 ) ;
#360 = DIRECTION ( 'NONE',  ( -0.4999999999999996669, 0.8660254037844388186, 0.000000000000000000 ) ) ;
#361 = EDGE_CURVE ( 'NONE', #9, #309, #188, .T. ) ;
#362 = DIRECTION ( 'NONE',  ( -1.000000000000000000, 1.502314598737159524E-16, 0.000000000000000000 ) ) ;
#363 = ORIENTED_EDGE ( 'NONE', *, *, #79, .F. ) ;
#364 = EDGE_LOOP ( 'NONE', ( #113, #74, #71, #367 ) ) ;
#365 = VECTOR ( 'NONE', #64, 1000.000000000000227 ) ;
#366 = ORIENTED_EDGE ( 'NONE', *, *, #174, .T. ) ;
#367 = ORIENTED_EDGE ( 'NONE', *, *, #193, .T. ) ;
#368 = DIRECTION ( 'NONE',  ( 0.000000000000000000, 0.000000000000000000, 1.000000000000000000 ) ) ;
#369 = ORIENTED_EDGE ( 'NONE', *, *, #361, .F. ) ;
#370 = EDGE_CURVE ( 'NONE', #285, #9, #356, .T. ) ;
#371 = PERSON_AND_ORGANIZATION ( #329, #131 ) ;
#372 = AXIS2_PLACEMENT_3D ( 'NONE', #254, #368, #69 ) ;
#373 = ORIENTED_EDGE ( 'NONE', *, *, #370, .F. ) ;
#374 = ORIENTED_EDGE ( 'NONE', *, *, #211, .T. ) ;
#375 = SECURITY_CLASSIFICATION_LEVEL ( 'unclassified' ) ;
#376 = ADVANCED_FACE ( 'NONE', ( #152 ), #92, .F. ) ;
#377 = DIRECTION ( 'NONE',  ( -1.000000000000000000, 1.502314598737159524E-16, 0.000000000000000000 ) ) ;
ENDSEC;
END-ISO-10303-21;
