ISO-10303-21;
HEADER;
FILE_DESCRIPTION (( 'STEP AP203' ),
    '1' );
FILE_NAME ('HW-S_M2x10_socket_ENVELOPE.step',
    '2026-09-08T03:40:37',
    ( '' ),
    ( '' ),
    'SwSTEP 2.0',
    'SolidWorks 2026',
    '' );
FILE_SCHEMA (( 'CONFIG_CONTROL_DESIGN' ));
ENDSEC;

DATA;
#1 = ORIENTED_EDGE ( 'NONE', *, *, #99, .F. ) ;
#2 = FACE_OUTER_BOUND ( 'NONE', #43, .T. ) ;
#3 = ORIENTED_EDGE ( 'NONE', *, *, #244, .T. ) ;
#4 = ADVANCED_FACE ( 'NONE', ( #104 ), #26, .T. ) ;
#5 = VERTEX_POINT ( 'NONE', #86 ) ;
#6 = CARTESIAN_POINT ( 'NONE',  ( -1.000000000000000000, 0.000000000000000000, 0.000000000000000000 ) ) ;
#7 = ADVANCED_FACE ( 'NONE', ( #2 ), #87, .T. ) ;
#8 = DIRECTION ( 'NONE',  ( 0.000000000000000000, 0.000000000000000000, 1.000000000000000000 ) ) ;
#9 = DIRECTION ( 'NONE',  ( -0.000000000000000000, -0.000000000000000000, -1.000000000000000000 ) ) ;
#10 = AXIS2_PLACEMENT_3D ( 'NONE', #181, #52, #222 ) ;
#11 = DIRECTION ( 'NONE',  ( 0.000000000000000000, 0.000000000000000000, 1.000000000000000000 ) ) ;
#12 = CIRCLE ( 'NONE', #47, 1.899999999999999911 ) ;
#13 = CYLINDRICAL_SURFACE ( 'NONE', #112, 1.899999999999999911 ) ;
#14 = EDGE_CURVE ( 'NONE', #60, #178, #73, .T. ) ;
#15 = SHAPE_DEFINITION_REPRESENTATION ( #227, #16 ) ;
#16 = ADVANCED_BREP_SHAPE_REPRESENTATION ( 'HW-S_M2x10_socket_ENVELOPE', ( #240, #231 ), #69 ) ;
#17 = ORGANIZATION ( 'UNSPECIFIED', 'UNSPECIFIED', '' ) ;
#18 = CALENDAR_DATE ( 2026, 7, 9 ) ;
#19 = CC_DESIGN_SECURITY_CLASSIFICATION ( #138, ( #97 ) ) ;
#20 = DIRECTION ( 'NONE',  ( -0.000000000000000000, -0.000000000000000000, -1.000000000000000000 ) ) ;
#21 = ADVANCED_FACE ( 'NONE', ( #239, #48 ), #63, .F. ) ;
#22 = PRODUCT ( 'HW-S_M2x10_socket_ENVELOPE', 'HW-S_M2x10_socket_ENVELOPE', '', ( #152 ) ) ;
#23 = ORIENTED_EDGE ( 'NONE', *, *, #195, .F. ) ;
#24 = VERTEX_POINT ( 'NONE', #125 ) ;
#25 = VECTOR ( 'NONE', #203, 1000.000000000000000 ) ;
#26 = CYLINDRICAL_SURFACE ( 'NONE', #39, 1.000000000000000000 ) ;
#27 = VERTEX_POINT ( 'NONE', #144 ) ;
#28 = CARTESIAN_POINT ( 'NONE',  ( 1.899999999999999911, 2.326828918379971365E-16, 2.000000000000000000 ) ) ;
#29 = FACE_OUTER_BOUND ( 'NONE', #139, .T. ) ;
#30 = EDGE_CURVE ( 'NONE', #178, #24, #126, .T. ) ;
#31 = DIRECTION ( 'NONE',  ( -0.000000000000000000, -0.000000000000000000, -1.000000000000000000 ) ) ;
#32 = DIRECTION ( 'NONE',  ( -0.000000000000000000, -0.000000000000000000, -1.000000000000000000 ) ) ;
#33 = AXIS2_PLACEMENT_3D ( 'NONE', #113, #228, #201 ) ;
#34 = PLANE ( 'NONE',  #243 ) ;
#35 = CC_DESIGN_PERSON_AND_ORGANIZATION_ASSIGNMENT ( #80, #117, ( #97 ) ) ;
#36 = DATE_TIME_ROLE ( 'creation_date' ) ;
#37 = PERSON_AND_ORGANIZATION ( #62, #17 ) ;
#38 = ADVANCED_FACE ( 'NONE', ( #90 ), #164, .T. ) ;
#39 = AXIS2_PLACEMENT_3D ( 'NONE', #175, #20, #102 ) ;
#40 = COORDINATED_UNIVERSAL_TIME_OFFSET ( 6, 0, .BEHIND. ) ;
#41 = PERSON_AND_ORGANIZATION_ROLE ( 'design_supplier' ) ;
#42 = CARTESIAN_POINT ( 'NONE',  ( 0.000000000000000000, 0.000000000000000000, 0.000000000000000000 ) ) ;
#43 = EDGE_LOOP ( 'NONE', ( #179, #218, #213, #121 ) ) ;
#44 = VERTEX_POINT ( 'NONE', #163 ) ;
#45 = CC_DESIGN_PERSON_AND_ORGANIZATION_ASSIGNMENT ( #232, #190, ( #138 ) ) ;
#46 = ORIENTED_EDGE ( 'NONE', *, *, #182, .T. ) ;
#47 = AXIS2_PLACEMENT_3D ( 'NONE', #89, #224, #162 ) ;
#48 = FACE_OUTER_BOUND ( 'NONE', #143, .T. ) ;
#49 = LINE ( 'NONE', #247, #25 ) ;
#50 = DIRECTION ( 'NONE',  ( -0.000000000000000000, -0.000000000000000000, -1.000000000000000000 ) ) ;
#51 = APPROVAL ( #98, 'UNSPECIFIED' ) ;
#52 = DIRECTION ( 'NONE',  ( 0.000000000000000000, 0.000000000000000000, 1.000000000000000000 ) ) ;
#53 = CIRCLE ( 'NONE', #61, 1.000000000000000000 ) ;
#54 = FACE_OUTER_BOUND ( 'NONE', #193, .T. ) ;
#55 = APPROVAL ( #170, 'UNSPECIFIED' ) ;
#56 = DIRECTION ( 'NONE',  ( 1.000000000000000000, 0.000000000000000000, -0.000000000000000000 ) ) ;
#57 = AXIS2_PLACEMENT_3D ( 'NONE', #84, #245, #160 ) ;
#58 =( NAMED_UNIT ( * ) SI_UNIT ( $, .STERADIAN. ) SOLID_ANGLE_UNIT ( ) );
#59 = CALENDAR_DATE ( 2026, 7, 9 ) ;
#60 = VERTEX_POINT ( 'NONE', #107 ) ;
#61 = AXIS2_PLACEMENT_3D ( 'NONE', #183, #8, #91 ) ;
#62 = PERSON ( 'UNSPECIFIED', 'UNSPECIFIED', 'UNSPECIFIED', ('UNSPECIFIED'), ('UNSPECIFIED'), ('UNSPECIFIED') ) ;
#63 = PLANE ( 'NONE',  #88 ) ;
#64 = CC_DESIGN_PERSON_AND_ORGANIZATION_ASSIGNMENT ( #37, #252, ( #109 ) ) ;
#65 = ORIENTED_EDGE ( 'NONE', *, *, #30, .T. ) ;
#66 = APPLICATION_CONTEXT ( 'configuration controlled 3d designs of mechanical parts and assemblies' ) ;
#67 = DIRECTION ( 'NONE',  ( 0.000000000000000000, 0.000000000000000000, 1.000000000000000000 ) ) ;
#68 = AXIS2_PLACEMENT_3D ( 'NONE', #249, #70, #204 ) ;
#69 =( GEOMETRIC_REPRESENTATION_CONTEXT ( 3 ) GLOBAL_UNCERTAINTY_ASSIGNED_CONTEXT ( ( #176 ) ) GLOBAL_UNIT_ASSIGNED_CONTEXT ( ( #147, #191, #58 ) ) REPRESENTATION_CONTEXT ( 'NONE', 'WORKASPACE' ) );
#70 = DIRECTION ( 'NONE',  ( 0.000000000000000000, 0.000000000000000000, 1.000000000000000000 ) ) ;
#71 = CYLINDRICAL_SURFACE ( 'NONE', #173, 1.000000000000000000 ) ;
#72 = DIRECTION ( 'NONE',  ( 1.000000000000000000, 0.000000000000000000, -0.000000000000000000 ) ) ;
#73 = CIRCLE ( 'NONE', #119, 1.000000000000000000 ) ;
#74 = DIRECTION ( 'NONE',  ( 1.000000000000000000, 0.000000000000000000, 0.000000000000000000 ) ) ;
#75 = DATE_TIME_ROLE ( 'classification_date' ) ;
#76 = DATE_AND_TIME ( #115, #77 ) ;
#77 = LOCAL_TIME ( 22, 40, 37.00000000000000000, #40 ) ;
#78 = COORDINATED_UNIVERSAL_TIME_OFFSET ( 6, 0, .BEHIND. ) ;
#79 = DATE_AND_TIME ( #131, #101 ) ;
#80 = PERSON_AND_ORGANIZATION ( #62, #17 ) ;
#81 = CC_DESIGN_APPROVAL ( #51, ( #97 ) ) ;
#82 = ORIENTED_EDGE ( 'NONE', *, *, #14, .F. ) ;
#83 = AXIS2_PLACEMENT_3D ( 'NONE', #185, #11, #127 ) ;
#84 = CARTESIAN_POINT ( 'NONE',  ( 0.000000000000000000, 0.000000000000000000, 2.000000000000000000 ) ) ;
#85 = ORIENTED_EDGE ( 'NONE', *, *, #182, .F. ) ;
#86 = CARTESIAN_POINT ( 'NONE',  ( 1.899999999999999911, 2.326828918379971365E-16, 0.000000000000000000 ) ) ;
#87 = CYLINDRICAL_SURFACE ( 'NONE', #57, 1.899999999999999911 ) ;
#88 = AXIS2_PLACEMENT_3D ( 'NONE', #136, #215, #56 ) ;
#89 = CARTESIAN_POINT ( 'NONE',  ( 0.000000000000000000, 0.000000000000000000, 2.000000000000000000 ) ) ;
#90 = FACE_OUTER_BOUND ( 'NONE', #122, .T. ) ;
#91 = DIRECTION ( 'NONE',  ( 1.000000000000000000, 0.000000000000000000, 0.000000000000000000 ) ) ;
#92 = APPLICATION_CONTEXT ( 'configuration controlled 3d designs of mechanical parts and assemblies' ) ;
#93 = LINE ( 'NONE', #188, #103 ) ;
#94 = DIRECTION ( 'NONE',  ( 0.000000000000000000, 0.000000000000000000, 1.000000000000000000 ) ) ;
#95 = PERSON_AND_ORGANIZATION ( #62, #17 ) ;
#96 = EDGE_CURVE ( 'NONE', #178, #60, #209, .T. ) ;
#97 = PRODUCT_DEFINITION_FORMATION_WITH_SPECIFIED_SOURCE ( 'ANY', '', #22, .NOT_KNOWN. ) ;
#98 = APPROVAL_STATUS ( 'not_yet_approved' ) ;
#99 = EDGE_CURVE ( 'NONE', #212, #27, #93, .T. ) ;
#100 = APPROVAL_ROLE ( '' ) ;
#101 = LOCAL_TIME ( 22, 40, 37.00000000000000000, #168 ) ;
#102 = DIRECTION ( 'NONE',  ( -1.000000000000000000, 0.000000000000000000, 0.000000000000000000 ) ) ;
#103 = VECTOR ( 'NONE', #31, 1000.000000000000000 ) ;
#104 = FACE_OUTER_BOUND ( 'NONE', #159, .T. ) ;
#105 = ORIENTED_EDGE ( 'NONE', *, *, #233, .T. ) ;
#106 = ORIENTED_EDGE ( 'NONE', *, *, #186, .T. ) ;
#107 = CARTESIAN_POINT ( 'NONE',  ( 1.000000000000000000, 1.224646799147353207E-16, 0.000000000000000000 ) ) ;
#108 = DIRECTION ( 'NONE',  ( -1.000000000000000000, 0.000000000000000000, 0.000000000000000000 ) ) ;
#109 = PRODUCT_DEFINITION ( 'UNKNOWN', '', #97, #199 ) ;
#110 = DIRECTION ( 'NONE',  ( -1.000000000000000000, 0.000000000000000000, 0.000000000000000000 ) ) ;
#111 = CARTESIAN_POINT ( 'NONE',  ( -1.000000000000000000, 0.000000000000000000, 0.000000000000000000 ) ) ;
#112 = AXIS2_PLACEMENT_3D ( 'NONE', #148, #32, #110 ) ;
#113 = CARTESIAN_POINT ( 'NONE',  ( 0.000000000000000000, 0.000000000000000000, 0.000000000000000000 ) ) ;
#114 = PERSON_AND_ORGANIZATION_ROLE ( 'design_owner' ) ;
#115 = CALENDAR_DATE ( 2026, 7, 9 ) ;
#116 = AXIS2_PLACEMENT_3D ( 'NONE', #221, #128, #74 ) ;
#117 = PERSON_AND_ORGANIZATION_ROLE ( 'creator' ) ;
#118 = PERSON_AND_ORGANIZATION ( #62, #17 ) ;
#119 = AXIS2_PLACEMENT_3D ( 'NONE', #242, #67, #157 ) ;
#120 = ORIENTED_EDGE ( 'NONE', *, *, #14, .T. ) ;
#121 = ORIENTED_EDGE ( 'NONE', *, *, #195, .T. ) ;
#122 = EDGE_LOOP ( 'NONE', ( #3, #180 ) ) ;
#123 = ORIENTED_EDGE ( 'NONE', *, *, #253, .T. ) ;
#124 = CARTESIAN_POINT ( 'NONE',  ( 0.000000000000000000, 0.000000000000000000, -10.00000000000000000 ) ) ;
#125 = CARTESIAN_POINT ( 'NONE',  ( -1.000000000000000000, 0.000000000000000000, -10.00000000000000000 ) ) ;
#126 = LINE ( 'NONE', #6, #230 ) ;
#127 = DIRECTION ( 'NONE',  ( 1.000000000000000000, 0.000000000000000000, -0.000000000000000000 ) ) ;
#128 = DIRECTION ( 'NONE',  ( 0.000000000000000000, 0.000000000000000000, 1.000000000000000000 ) ) ;
#129 = APPROVAL_DATE_TIME ( #208, #214 ) ;
#130 = APPROVAL_PERSON_ORGANIZATION ( #95, #55, #207 ) ;
#131 = CALENDAR_DATE ( 2026, 7, 9 ) ;
#132 = APPROVAL_STATUS ( 'not_yet_approved' ) ;
#133 = CLOSED_SHELL ( 'NONE', ( #141, #248, #4, #225, #7, #38, #21 ) ) ;
#134 = APPLICATION_PROTOCOL_DEFINITION ( 'international standard', 'config_control_design', 1994, #66 ) ;
#135 = DATE_AND_TIME ( #18, #238 ) ;
#136 = CARTESIAN_POINT ( 'NONE',  ( 0.000000000000000000, 0.000000000000000000, 0.000000000000000000 ) ) ;
#137 = ORIENTED_EDGE ( 'NONE', *, *, #220, .F. ) ;
#138 = SECURITY_CLASSIFICATION ( '', '', #237 ) ;
#139 = EDGE_LOOP ( 'NONE', ( #198, #197 ) ) ;
#140 = EDGE_LOOP ( 'NONE', ( #82, #46, #106, #161 ) ) ;
#141 = ADVANCED_FACE ( 'NONE', ( #54 ), #13, .T. ) ;
#142 = CIRCLE ( 'NONE', #33, 1.899999999999999911 ) ;
#143 = EDGE_LOOP ( 'NONE', ( #23, #156 ) ) ;
#144 = CARTESIAN_POINT ( 'NONE',  ( -1.899999999999999911, 0.000000000000000000, 0.000000000000000000 ) ) ;
#145 = CARTESIAN_POINT ( 'NONE',  ( 0.000000000000000000, 0.000000000000000000, 0.000000000000000000 ) ) ;
#146 = CARTESIAN_POINT ( 'NONE',  ( 1.000000000000000000, 1.224646799147353207E-16, -10.00000000000000000 ) ) ;
#147 =( LENGTH_UNIT ( ) NAMED_UNIT ( * ) SI_UNIT ( .MILLI., .METRE. ) );
#148 = CARTESIAN_POINT ( 'NONE',  ( 0.000000000000000000, 0.000000000000000000, 2.000000000000000000 ) ) ;
#149 = CC_DESIGN_PERSON_AND_ORGANIZATION_ASSIGNMENT ( #171, #114, ( #22 ) ) ;
#150 = DATE_AND_TIME ( #206, #187 ) ;
#151 = COORDINATED_UNIVERSAL_TIME_OFFSET ( 6, 0, .BEHIND. ) ;
#152 = MECHANICAL_CONTEXT ( 'NONE', #66, 'mechanical' ) ;
#153 = EDGE_CURVE ( 'NONE', #5, #27, #223, .T. ) ;
#154 = APPLICATION_PROTOCOL_DEFINITION ( 'international standard', 'config_control_design', 1994, #92 ) ;
#155 = CC_DESIGN_APPROVAL ( #214, ( #109 ) ) ;
#156 = ORIENTED_EDGE ( 'NONE', *, *, #153, .F. ) ;
#157 = DIRECTION ( 'NONE',  ( 1.000000000000000000, 0.000000000000000000, 0.000000000000000000 ) ) ;
#158 = APPROVAL_PERSON_ORGANIZATION ( #118, #51, #100 ) ;
#159 = EDGE_LOOP ( 'NONE', ( #85, #216, #65, #123 ) ) ;
#160 = DIRECTION ( 'NONE',  ( -1.000000000000000000, 0.000000000000000000, 0.000000000000000000 ) ) ;
#161 = ORIENTED_EDGE ( 'NONE', *, *, #30, .F. ) ;
#162 = DIRECTION ( 'NONE',  ( 1.000000000000000000, 0.000000000000000000, 0.000000000000000000 ) ) ;
#163 = CARTESIAN_POINT ( 'NONE',  ( 1.899999999999999911, 2.326828918379971365E-16, 2.000000000000000000 ) ) ;
#164 = PLANE ( 'NONE',  #83 ) ;
#165 = CARTESIAN_POINT ( 'NONE',  ( 0.000000000000000000, 0.000000000000000000, 0.000000000000000000 ) ) ;
#166 = PRODUCT_RELATED_PRODUCT_CATEGORY ( 'detail', '', ( #22 ) ) ;
#167 = DIRECTION ( 'NONE',  ( 1.000000000000000000, 0.000000000000000000, 0.000000000000000000 ) ) ;
#168 = COORDINATED_UNIVERSAL_TIME_OFFSET ( 6, 0, .BEHIND. ) ;
#169 = PERSON_AND_ORGANIZATION ( #62, #17 ) ;
#170 = APPROVAL_STATUS ( 'not_yet_approved' ) ;
#171 = PERSON_AND_ORGANIZATION ( #62, #17 ) ;
#172 = CIRCLE ( 'NONE', #68, 1.899999999999999911 ) ;
#173 = AXIS2_PLACEMENT_3D ( 'NONE', #145, #50, #108 ) ;
#174 = ORIENTED_EDGE ( 'NONE', *, *, #153, .T. ) ;
#175 = CARTESIAN_POINT ( 'NONE',  ( 0.000000000000000000, 0.000000000000000000, 0.000000000000000000 ) ) ;
#176 = UNCERTAINTY_MEASURE_WITH_UNIT (LENGTH_MEASURE( 1.000000000000000082E-05 ), #147, 'distance_accuracy_value', 'NONE');
#177 = CC_DESIGN_DATE_AND_TIME_ASSIGNMENT ( #150, #36, ( #109 ) ) ;
#178 = VERTEX_POINT ( 'NONE', #111 ) ;
#179 = ORIENTED_EDGE ( 'NONE', *, *, #233, .F. ) ;
#180 = ORIENTED_EDGE ( 'NONE', *, *, #220, .T. ) ;
#181 = CARTESIAN_POINT ( 'NONE',  ( 0.000000000000000000, 0.000000000000000000, -10.00000000000000000 ) ) ;
#182 = EDGE_CURVE ( 'NONE', #60, #241, #49, .T. ) ;
#183 = CARTESIAN_POINT ( 'NONE',  ( 0.000000000000000000, 0.000000000000000000, -10.00000000000000000 ) ) ;
#184 = CARTESIAN_POINT ( 'NONE',  ( -1.899999999999999911, 0.000000000000000000, 2.000000000000000000 ) ) ;
#185 = CARTESIAN_POINT ( 'NONE',  ( 0.000000000000000000, 0.000000000000000000, 2.000000000000000000 ) ) ;
#186 = EDGE_CURVE ( 'NONE', #241, #24, #235, .T. ) ;
#187 = LOCAL_TIME ( 22, 40, 37.00000000000000000, #151 ) ;
#188 = CARTESIAN_POINT ( 'NONE',  ( -1.899999999999999911, 0.000000000000000000, 2.000000000000000000 ) ) ;
#189 = APPROVAL_DATE_TIME ( #79, #55 ) ;
#190 = PERSON_AND_ORGANIZATION_ROLE ( 'classification_officer' ) ;
#191 =( NAMED_UNIT ( * ) PLANE_ANGLE_UNIT ( ) SI_UNIT ( $, .RADIAN. ) );
#192 = CC_DESIGN_DATE_AND_TIME_ASSIGNMENT ( #135, #75, ( #138 ) ) ;
#193 = EDGE_LOOP ( 'NONE', ( #137, #105, #174, #1 ) ) ;
#194 = ORIENTED_EDGE ( 'NONE', *, *, #96, .T. ) ;
#195 = EDGE_CURVE ( 'NONE', #27, #5, #142, .T. ) ;
#196 = EDGE_LOOP ( 'NONE', ( #194, #120 ) ) ;
#197 = ORIENTED_EDGE ( 'NONE', *, *, #186, .F. ) ;
#198 = ORIENTED_EDGE ( 'NONE', *, *, #253, .F. ) ;
#199 = DESIGN_CONTEXT ( 'detailed design', #92, 'design' ) ;
#200 = LINE ( 'NONE', #28, #255 ) ;
#201 = DIRECTION ( 'NONE',  ( 1.000000000000000000, 0.000000000000000000, 0.000000000000000000 ) ) ;
#202 = DIRECTION ( 'NONE',  ( 0.000000000000000000, 0.000000000000000000, 1.000000000000000000 ) ) ;
#203 = DIRECTION ( 'NONE',  ( -0.000000000000000000, -0.000000000000000000, -1.000000000000000000 ) ) ;
#204 = DIRECTION ( 'NONE',  ( 1.000000000000000000, 0.000000000000000000, 0.000000000000000000 ) ) ;
#205 = APPROVAL_PERSON_ORGANIZATION ( #169, #214, #210 ) ;
#206 = CALENDAR_DATE ( 2026, 7, 9 ) ;
#207 = APPROVAL_ROLE ( '' ) ;
#208 = DATE_AND_TIME ( #59, #236 ) ;
#209 = CIRCLE ( 'NONE', #217, 1.000000000000000000 ) ;
#210 = APPROVAL_ROLE ( '' ) ;
#211 = CC_DESIGN_PERSON_AND_ORGANIZATION_ASSIGNMENT ( #254, #41, ( #97 ) ) ;
#212 = VERTEX_POINT ( 'NONE', #184 ) ;
#213 = ORIENTED_EDGE ( 'NONE', *, *, #99, .T. ) ;
#214 = APPROVAL ( #132, 'UNSPECIFIED' ) ;
#215 = DIRECTION ( 'NONE',  ( 0.000000000000000000, 0.000000000000000000, 1.000000000000000000 ) ) ;
#216 = ORIENTED_EDGE ( 'NONE', *, *, #96, .F. ) ;
#217 = AXIS2_PLACEMENT_3D ( 'NONE', #165, #202, #167 ) ;
#218 = ORIENTED_EDGE ( 'NONE', *, *, #244, .F. ) ;
#219 = CC_DESIGN_APPROVAL ( #55, ( #138 ) ) ;
#220 = EDGE_CURVE ( 'NONE', #44, #212, #172, .T. ) ;
#221 = CARTESIAN_POINT ( 'NONE',  ( 0.000000000000000000, 0.000000000000000000, 0.000000000000000000 ) ) ;
#222 = DIRECTION ( 'NONE',  ( 1.000000000000000000, 0.000000000000000000, 0.000000000000000000 ) ) ;
#223 = CIRCLE ( 'NONE', #116, 1.899999999999999911 ) ;
#224 = DIRECTION ( 'NONE',  ( 0.000000000000000000, 0.000000000000000000, 1.000000000000000000 ) ) ;
#225 = ADVANCED_FACE ( 'NONE', ( #29 ), #34, .F. ) ;
#226 = DIRECTION ( 'NONE',  ( -0.000000000000000000, -0.000000000000000000, -1.000000000000000000 ) ) ;
#227 = PRODUCT_DEFINITION_SHAPE ( 'NONE', 'NONE',  #109 ) ;
#228 = DIRECTION ( 'NONE',  ( 0.000000000000000000, 0.000000000000000000, 1.000000000000000000 ) ) ;
#229 = DIRECTION ( 'NONE',  ( 0.000000000000000000, 0.000000000000000000, 1.000000000000000000 ) ) ;
#230 = VECTOR ( 'NONE', #226, 1000.000000000000000 ) ;
#231 = AXIS2_PLACEMENT_3D ( 'NONE', #42, #229, #234 ) ;
#232 = PERSON_AND_ORGANIZATION ( #62, #17 ) ;
#233 = EDGE_CURVE ( 'NONE', #44, #5, #200, .T. ) ;
#234 = DIRECTION ( 'NONE',  ( 1.000000000000000000, 0.000000000000000000, 0.000000000000000000 ) ) ;
#235 = CIRCLE ( 'NONE', #10, 1.000000000000000000 ) ;
#236 = LOCAL_TIME ( 22, 40, 37.00000000000000000, #251 ) ;
#237 = SECURITY_CLASSIFICATION_LEVEL ( 'unclassified' ) ;
#238 = LOCAL_TIME ( 22, 40, 37.00000000000000000, #78 ) ;
#239 = FACE_BOUND ( 'NONE', #196, .T. ) ;
#240 = MANIFOLD_SOLID_BREP ( 'Socket_head_envelope', #133 ) ;
#241 = VERTEX_POINT ( 'NONE', #146 ) ;
#242 = CARTESIAN_POINT ( 'NONE',  ( 0.000000000000000000, 0.000000000000000000, 0.000000000000000000 ) ) ;
#243 = AXIS2_PLACEMENT_3D ( 'NONE', #124, #94, #72 ) ;
#244 = EDGE_CURVE ( 'NONE', #212, #44, #12, .T. ) ;
#245 = DIRECTION ( 'NONE',  ( -0.000000000000000000, -0.000000000000000000, -1.000000000000000000 ) ) ;
#246 = FACE_OUTER_BOUND ( 'NONE', #140, .T. ) ;
#247 = CARTESIAN_POINT ( 'NONE',  ( 1.000000000000000000, 1.224646799147353207E-16, 0.000000000000000000 ) ) ;
#248 = ADVANCED_FACE ( 'NONE', ( #246 ), #71, .T. ) ;
#249 = CARTESIAN_POINT ( 'NONE',  ( 0.000000000000000000, 0.000000000000000000, 2.000000000000000000 ) ) ;
#250 = APPROVAL_DATE_TIME ( #76, #51 ) ;
#251 = COORDINATED_UNIVERSAL_TIME_OFFSET ( 6, 0, .BEHIND. ) ;
#252 = PERSON_AND_ORGANIZATION_ROLE ( 'creator' ) ;
#253 = EDGE_CURVE ( 'NONE', #24, #241, #53, .T. ) ;
#254 = PERSON_AND_ORGANIZATION ( #62, #17 ) ;
#255 = VECTOR ( 'NONE', #9, 1000.000000000000000 ) ;
ENDSEC;
END-ISO-10303-21;
