ISO-10303-21;
HEADER;
FILE_DESCRIPTION (( 'STEP AP203' ),
    '1' );
FILE_NAME ('HW-S_M2.5x14_socket_ENVELOPE.step',
    '2026-09-08T04:30:39',
    ( '' ),
    ( '' ),
    'SwSTEP 2.0',
    'SolidWorks 2026',
    '' );
FILE_SCHEMA (( 'CONFIG_CONTROL_DESIGN' ));
ENDSEC;

DATA;
#1 = VECTOR ( 'NONE', #99, 1000.000000000000000 ) ;
#2 = CARTESIAN_POINT ( 'NONE',  ( 0.000000000000000000, 0.000000000000000000, 0.000000000000000000 ) ) ;
#3 = APPROVAL_ROLE ( '' ) ;
#4 = APPROVAL_DATE_TIME ( #65, #22 ) ;
#5 = PERSON_AND_ORGANIZATION_ROLE ( 'classification_officer' ) ;
#6 = ORIENTED_EDGE ( 'NONE', *, *, #174, .T. ) ;
#7 = CARTESIAN_POINT ( 'NONE',  ( 0.000000000000000000, 0.000000000000000000, 0.000000000000000000 ) ) ;
#8 = PERSON ( 'UNSPECIFIED', 'UNSPECIFIED', 'UNSPECIFIED', ('UNSPECIFIED'), ('UNSPECIFIED'), ('UNSPECIFIED') ) ;
#9 = CALENDAR_DATE ( 2026, 7, 9 ) ;
#10 = CIRCLE ( 'NONE', #95, 1.250000000000000000 ) ;
#11 = CARTESIAN_POINT ( 'NONE',  ( 0.000000000000000000, 0.000000000000000000, 2.500000000000000000 ) ) ;
#12 = ORIENTED_EDGE ( 'NONE', *, *, #38, .F. ) ;
#13 = DIRECTION ( 'NONE',  ( -0.000000000000000000, -0.000000000000000000, -1.000000000000000000 ) ) ;
#14 = EDGE_CURVE ( 'NONE', #223, #117, #10, .T. ) ;
#15 = ORIENTED_EDGE ( 'NONE', *, *, #202, .T. ) ;
#16 = ORIENTED_EDGE ( 'NONE', *, *, #60, .F. ) ;
#17 = FACE_OUTER_BOUND ( 'NONE', #37, .T. ) ;
#18 = AXIS2_PLACEMENT_3D ( 'NONE', #124, #154, #229 ) ;
#19 = DIRECTION ( 'NONE',  ( -1.000000000000000000, 0.000000000000000000, 0.000000000000000000 ) ) ;
#20 = FACE_OUTER_BOUND ( 'NONE', #206, .T. ) ;
#21 = CARTESIAN_POINT ( 'NONE',  ( 0.000000000000000000, 0.000000000000000000, -14.00000000000000000 ) ) ;
#22 = APPROVAL ( #220, 'UNSPECIFIED' ) ;
#23 = PERSON_AND_ORGANIZATION_ROLE ( 'design_owner' ) ;
#24 = COORDINATED_UNIVERSAL_TIME_OFFSET ( 6, 0, .BEHIND. ) ;
#25 = PRODUCT_DEFINITION_SHAPE ( 'NONE', 'NONE',  #69 ) ;
#26 = PERSON_AND_ORGANIZATION ( #8, #200 ) ;
#27 = VERTEX_POINT ( 'NONE', #242 ) ;
#28 = CLOSED_SHELL ( 'NONE', ( #210, #170, #158, #167, #79, #45, #119 ) ) ;
#29 = MANIFOLD_SOLID_BREP ( 'Socket_head_envelope', #28 ) ;
#30 = ORIENTED_EDGE ( 'NONE', *, *, #14, .T. ) ;
#31 =( GEOMETRIC_REPRESENTATION_CONTEXT ( 3 ) GLOBAL_UNCERTAINTY_ASSIGNED_CONTEXT ( ( #203 ) ) GLOBAL_UNIT_ASSIGNED_CONTEXT ( ( #251, #173, #77 ) ) REPRESENTATION_CONTEXT ( 'NONE', 'WORKASPACE' ) );
#32 = VERTEX_POINT ( 'NONE', #33 ) ;
#33 = CARTESIAN_POINT ( 'NONE',  ( -1.250000000000000000, 0.000000000000000000, 0.000000000000000000 ) ) ;
#34 = EDGE_LOOP ( 'NONE', ( #96, #133 ) ) ;
#35 = ORIENTED_EDGE ( 'NONE', *, *, #214, .F. ) ;
#36 = CIRCLE ( 'NONE', #217, 1.250000000000000000 ) ;
#37 = EDGE_LOOP ( 'NONE', ( #76, #35 ) ) ;
#38 = EDGE_CURVE ( 'NONE', #32, #223, #228, .T. ) ;
#39 = CARTESIAN_POINT ( 'NONE',  ( 1.250000000000000000, 1.530808498934191571E-16, 0.000000000000000000 ) ) ;
#40 = AXIS2_PLACEMENT_3D ( 'NONE', #58, #157, #236 ) ;
#41 = DIRECTION ( 'NONE',  ( -0.000000000000000000, -0.000000000000000000, -1.000000000000000000 ) ) ;
#42 = DIRECTION ( 'NONE',  ( 1.000000000000000000, 0.000000000000000000, 0.000000000000000000 ) ) ;
#43 = AXIS2_PLACEMENT_3D ( 'NONE', #232, #211, #19 ) ;
#44 = PERSON_AND_ORGANIZATION ( #8, #200 ) ;
#45 = ADVANCED_FACE ( 'NONE', ( #116 ), #171, .T. ) ;
#46 = PERSON_AND_ORGANIZATION ( #8, #200 ) ;
#47 = SECURITY_CLASSIFICATION_LEVEL ( 'unclassified' ) ;
#48 = PERSON_AND_ORGANIZATION ( #8, #200 ) ;
#49 = CARTESIAN_POINT ( 'NONE',  ( 0.000000000000000000, 0.000000000000000000, 2.500000000000000000 ) ) ;
#50 = VECTOR ( 'NONE', #13, 1000.000000000000000 ) ;
#51 = APPROVAL_PERSON_ORGANIZATION ( #26, #153, #62 ) ;
#52 = CARTESIAN_POINT ( 'NONE',  ( -1.250000000000000000, 0.000000000000000000, 0.000000000000000000 ) ) ;
#53 = EDGE_CURVE ( 'NONE', #75, #109, #152, .T. ) ;
#54 = EDGE_LOOP ( 'NONE', ( #197, #245, #120, #12 ) ) ;
#55 = DIRECTION ( 'NONE',  ( 0.000000000000000000, 0.000000000000000000, 1.000000000000000000 ) ) ;
#56 = DIRECTION ( 'NONE',  ( 0.000000000000000000, 0.000000000000000000, 1.000000000000000000 ) ) ;
#57 = DIRECTION ( 'NONE',  ( 1.000000000000000000, 0.000000000000000000, -0.000000000000000000 ) ) ;
#58 = CARTESIAN_POINT ( 'NONE',  ( 0.000000000000000000, 0.000000000000000000, 0.000000000000000000 ) ) ;
#59 = DIRECTION ( 'NONE',  ( 0.000000000000000000, 0.000000000000000000, 1.000000000000000000 ) ) ;
#60 = EDGE_CURVE ( 'NONE', #32, #172, #36, .T. ) ;
#61 = CYLINDRICAL_SURFACE ( 'NONE', #73, 2.250000000000000000 ) ;
#62 = APPROVAL_ROLE ( '' ) ;
#63 = APPROVAL_PERSON_ORGANIZATION ( #46, #22, #3 ) ;
#64 = PRODUCT ( 'HW-S_M2.5x14_socket_ENVELOPE', 'HW-S_M2.5x14_socket_ENVELOPE', '', ( #87 ) ) ;
#65 = DATE_AND_TIME ( #128, #136 ) ;
#66 = ADVANCED_BREP_SHAPE_REPRESENTATION ( 'HW-S_M2.5x14_socket_ENVELOPE', ( #29, #112 ), #31 ) ;
#67 = CALENDAR_DATE ( 2026, 7, 9 ) ;
#68 = ORIENTED_EDGE ( 'NONE', *, *, #38, .T. ) ;
#69 = PRODUCT_DEFINITION ( 'UNKNOWN', '', #249, #250 ) ;
#70 = ORIENTED_EDGE ( 'NONE', *, *, #144, .T. ) ;
#71 = CARTESIAN_POINT ( 'NONE',  ( 1.250000000000000000, 1.530808498934191571E-16, 0.000000000000000000 ) ) ;
#72 = CC_DESIGN_PERSON_AND_ORGANIZATION_ASSIGNMENT ( #44, #90, ( #69 ) ) ;
#73 = AXIS2_PLACEMENT_3D ( 'NONE', #140, #41, #193 ) ;
#74 = DIRECTION ( 'NONE',  ( 1.000000000000000000, 0.000000000000000000, 0.000000000000000000 ) ) ;
#75 = VERTEX_POINT ( 'NONE', #209 ) ;
#76 = ORIENTED_EDGE ( 'NONE', *, *, #14, .F. ) ;
#77 =( NAMED_UNIT ( * ) SI_UNIT ( $, .STERADIAN. ) SOLID_ANGLE_UNIT ( ) );
#78 = VECTOR ( 'NONE', #81, 1000.000000000000000 ) ;
#79 = ADVANCED_FACE ( 'NONE', ( #166 ), #147, .T. ) ;
#80 = CYLINDRICAL_SURFACE ( 'NONE', #146, 1.250000000000000000 ) ;
#81 = DIRECTION ( 'NONE',  ( -0.000000000000000000, -0.000000000000000000, -1.000000000000000000 ) ) ;
#82 = FACE_OUTER_BOUND ( 'NONE', #54, .T. ) ;
#83 = VECTOR ( 'NONE', #132, 1000.000000000000000 ) ;
#84 = SECURITY_CLASSIFICATION ( '', '', #47 ) ;
#85 = CARTESIAN_POINT ( 'NONE',  ( 0.000000000000000000, 0.000000000000000000, -14.00000000000000000 ) ) ;
#86 = DIRECTION ( 'NONE',  ( 1.000000000000000000, 0.000000000000000000, 0.000000000000000000 ) ) ;
#87 = MECHANICAL_CONTEXT ( 'NONE', #115, 'mechanical' ) ;
#88 = LOCAL_TIME ( 23, 30, 39.00000000000000000, #108 ) ;
#89 = EDGE_LOOP ( 'NONE', ( #97, #16, #68, #30 ) ) ;
#90 = PERSON_AND_ORGANIZATION_ROLE ( 'creator' ) ;
#91 = APPROVAL_DATE_TIME ( #107, #176 ) ;
#92 = DIRECTION ( 'NONE',  ( 0.000000000000000000, 0.000000000000000000, 1.000000000000000000 ) ) ;
#93 = EDGE_CURVE ( 'NONE', #109, #75, #179, .T. ) ;
#94 = ORIENTED_EDGE ( 'NONE', *, *, #174, .F. ) ;
#95 = AXIS2_PLACEMENT_3D ( 'NONE', #208, #169, #148 ) ;
#96 = ORIENTED_EDGE ( 'NONE', *, *, #144, .F. ) ;
#97 = ORIENTED_EDGE ( 'NONE', *, *, #101, .F. ) ;
#98 = AXIS2_PLACEMENT_3D ( 'NONE', #247, #188, #114 ) ;
#99 = DIRECTION ( 'NONE',  ( -0.000000000000000000, -0.000000000000000000, -1.000000000000000000 ) ) ;
#100 = PLANE ( 'NONE',  #221 ) ;
#101 = EDGE_CURVE ( 'NONE', #172, #117, #244, .T. ) ;
#102 = LINE ( 'NONE', #175, #78 ) ;
#103 = APPLICATION_CONTEXT ( 'configuration controlled 3d designs of mechanical parts and assemblies' ) ;
#104 = CARTESIAN_POINT ( 'NONE',  ( 0.000000000000000000, 0.000000000000000000, 0.000000000000000000 ) ) ;
#105 = CIRCLE ( 'NONE', #40, 2.250000000000000000 ) ;
#106 = DATE_AND_TIME ( #67, #88 ) ;
#107 = DATE_AND_TIME ( #219, #234 ) ;
#108 = COORDINATED_UNIVERSAL_TIME_OFFSET ( 6, 0, .BEHIND. ) ;
#109 = VERTEX_POINT ( 'NONE', #185 ) ;
#110 = APPROVAL_STATUS ( 'not_yet_approved' ) ;
#111 = CIRCLE ( 'NONE', #18, 2.250000000000000000 ) ;
#112 = AXIS2_PLACEMENT_3D ( 'NONE', #7, #163, #86 ) ;
#113 = CC_DESIGN_PERSON_AND_ORGANIZATION_ASSIGNMENT ( #237, #198, ( #249 ) ) ;
#114 = DIRECTION ( 'NONE',  ( 1.000000000000000000, 0.000000000000000000, -0.000000000000000000 ) ) ;
#115 = APPLICATION_CONTEXT ( 'configuration controlled 3d designs of mechanical parts and assemblies' ) ;
#116 = FACE_OUTER_BOUND ( 'NONE', #222, .T. ) ;
#117 = VERTEX_POINT ( 'NONE', #215 ) ;
#118 = ORIENTED_EDGE ( 'NONE', *, *, #93, .F. ) ;
#119 = ADVANCED_FACE ( 'NONE', ( #191, #121 ), #180, .F. ) ;
#120 = ORIENTED_EDGE ( 'NONE', *, *, #214, .T. ) ;
#121 = FACE_OUTER_BOUND ( 'NONE', #34, .T. ) ;
#122 = APPLICATION_PROTOCOL_DEFINITION ( 'international standard', 'config_control_design', 1994, #115 ) ;
#123 = CC_DESIGN_DATE_AND_TIME_ASSIGNMENT ( #182, #201, ( #84 ) ) ;
#124 = CARTESIAN_POINT ( 'NONE',  ( 0.000000000000000000, 0.000000000000000000, 0.000000000000000000 ) ) ;
#125 = DIRECTION ( 'NONE',  ( 0.000000000000000000, 0.000000000000000000, 1.000000000000000000 ) ) ;
#126 = CC_DESIGN_APPROVAL ( #176, ( #84 ) ) ;
#127 = APPROVAL_STATUS ( 'not_yet_approved' ) ;
#128 = CALENDAR_DATE ( 2026, 7, 9 ) ;
#129 = AXIS2_PLACEMENT_3D ( 'NONE', #104, #125, #57 ) ;
#130 = PERSON_AND_ORGANIZATION ( #8, #200 ) ;
#131 = ORIENTED_EDGE ( 'NONE', *, *, #53, .T. ) ;
#132 = DIRECTION ( 'NONE',  ( -0.000000000000000000, -0.000000000000000000, -1.000000000000000000 ) ) ;
#133 = ORIENTED_EDGE ( 'NONE', *, *, #202, .F. ) ;
#134 = CARTESIAN_POINT ( 'NONE',  ( 0.000000000000000000, 0.000000000000000000, 0.000000000000000000 ) ) ;
#135 = AXIS2_PLACEMENT_3D ( 'NONE', #141, #216, #42 ) ;
#136 = LOCAL_TIME ( 23, 30, 39.00000000000000000, #164 ) ;
#137 = DIRECTION ( 'NONE',  ( 1.000000000000000000, 0.000000000000000000, 0.000000000000000000 ) ) ;
#138 = FACE_OUTER_BOUND ( 'NONE', #89, .T. ) ;
#139 = LINE ( 'NONE', #189, #1 ) ;
#140 = CARTESIAN_POINT ( 'NONE',  ( 0.000000000000000000, 0.000000000000000000, 2.500000000000000000 ) ) ;
#141 = CARTESIAN_POINT ( 'NONE',  ( 0.000000000000000000, 0.000000000000000000, 0.000000000000000000 ) ) ;
#142 = COORDINATED_UNIVERSAL_TIME_OFFSET ( 6, 0, .BEHIND. ) ;
#143 = APPLICATION_PROTOCOL_DEFINITION ( 'international standard', 'config_control_design', 1994, #103 ) ;
#144 = EDGE_CURVE ( 'NONE', #248, #27, #111, .T. ) ;
#145 = APPROVAL_DATE_TIME ( #106, #153 ) ;
#146 = AXIS2_PLACEMENT_3D ( 'NONE', #2, #155, #192 ) ;
#147 = CYLINDRICAL_SURFACE ( 'NONE', #233, 2.250000000000000000 ) ;
#148 = DIRECTION ( 'NONE',  ( 1.000000000000000000, 0.000000000000000000, 0.000000000000000000 ) ) ;
#149 = ORIENTED_EDGE ( 'NONE', *, *, #60, .T. ) ;
#150 = CARTESIAN_POINT ( 'NONE',  ( 0.000000000000000000, 0.000000000000000000, 2.500000000000000000 ) ) ;
#151 = ORIENTED_EDGE ( 'NONE', *, *, #53, .F. ) ;
#152 = CIRCLE ( 'NONE', #224, 2.250000000000000000 ) ;
#153 = APPROVAL ( #110, 'UNSPECIFIED' ) ;
#154 = DIRECTION ( 'NONE',  ( 0.000000000000000000, 0.000000000000000000, 1.000000000000000000 ) ) ;
#155 = DIRECTION ( 'NONE',  ( -0.000000000000000000, -0.000000000000000000, -1.000000000000000000 ) ) ;
#156 = LOCAL_TIME ( 23, 30, 39.00000000000000000, #196 ) ;
#157 = DIRECTION ( 'NONE',  ( 0.000000000000000000, 0.000000000000000000, 1.000000000000000000 ) ) ;
#158 = ADVANCED_FACE ( 'NONE', ( #138 ), #255, .T. ) ;
#159 = PERSON_AND_ORGANIZATION_ROLE ( 'creator' ) ;
#160 = DATE_AND_TIME ( #9, #156 ) ;
#161 = CC_DESIGN_APPROVAL ( #153, ( #249 ) ) ;
#162 = CC_DESIGN_PERSON_AND_ORGANIZATION_ASSIGNMENT ( #183, #5, ( #84 ) ) ;
#163 = DIRECTION ( 'NONE',  ( 0.000000000000000000, 0.000000000000000000, 1.000000000000000000 ) ) ;
#164 = COORDINATED_UNIVERSAL_TIME_OFFSET ( 6, 0, .BEHIND. ) ;
#165 = SHAPE_DEFINITION_REPRESENTATION ( #25, #66 ) ;
#166 = FACE_OUTER_BOUND ( 'NONE', #186, .T. ) ;
#167 = ADVANCED_FACE ( 'NONE', ( #17 ), #100, .F. ) ;
#168 = DIRECTION ( 'NONE',  ( 1.000000000000000000, 0.000000000000000000, 0.000000000000000000 ) ) ;
#169 = DIRECTION ( 'NONE',  ( 0.000000000000000000, 0.000000000000000000, 1.000000000000000000 ) ) ;
#170 = ADVANCED_FACE ( 'NONE', ( #82 ), #80, .T. ) ;
#171 = PLANE ( 'NONE',  #98 ) ;
#172 = VERTEX_POINT ( 'NONE', #39 ) ;
#173 =( NAMED_UNIT ( * ) PLANE_ANGLE_UNIT ( ) SI_UNIT ( $, .RADIAN. ) );
#174 = EDGE_CURVE ( 'NONE', #109, #248, #139, .T. ) ;
#175 = CARTESIAN_POINT ( 'NONE',  ( 2.250000000000000000, 2.755455298081544285E-16, 2.500000000000000000 ) ) ;
#176 = APPROVAL ( #127, 'UNSPECIFIED' ) ;
#177 = DIRECTION ( 'NONE',  ( 0.000000000000000000, 0.000000000000000000, 1.000000000000000000 ) ) ;
#178 = EDGE_CURVE ( 'NONE', #75, #27, #102, .T. ) ;
#179 = CIRCLE ( 'NONE', #238, 2.250000000000000000 ) ;
#180 = PLANE ( 'NONE',  #129 ) ;
#181 = PERSON_AND_ORGANIZATION ( #8, #200 ) ;
#182 = DATE_AND_TIME ( #218, #239 ) ;
#183 = PERSON_AND_ORGANIZATION ( #8, #200 ) ;
#184 = DIRECTION ( 'NONE',  ( -0.000000000000000000, -0.000000000000000000, -1.000000000000000000 ) ) ;
#185 = CARTESIAN_POINT ( 'NONE',  ( -2.250000000000000000, 0.000000000000000000, 2.500000000000000000 ) ) ;
#186 = EDGE_LOOP ( 'NONE', ( #207, #118, #6, #70 ) ) ;
#187 = ORIENTED_EDGE ( 'NONE', *, *, #178, .T. ) ;
#188 = DIRECTION ( 'NONE',  ( 0.000000000000000000, 0.000000000000000000, 1.000000000000000000 ) ) ;
#189 = CARTESIAN_POINT ( 'NONE',  ( -2.250000000000000000, 0.000000000000000000, 2.500000000000000000 ) ) ;
#190 = APPROVAL_PERSON_ORGANIZATION ( #48, #176, #195 ) ;
#191 = FACE_BOUND ( 'NONE', #226, .T. ) ;
#192 = DIRECTION ( 'NONE',  ( -1.000000000000000000, 0.000000000000000000, 0.000000000000000000 ) ) ;
#193 = DIRECTION ( 'NONE',  ( -1.000000000000000000, 0.000000000000000000, 0.000000000000000000 ) ) ;
#194 = AXIS2_PLACEMENT_3D ( 'NONE', #21, #177, #230 ) ;
#195 = APPROVAL_ROLE ( '' ) ;
#196 = COORDINATED_UNIVERSAL_TIME_OFFSET ( 6, 0, .BEHIND. ) ;
#197 = ORIENTED_EDGE ( 'NONE', *, *, #231, .F. ) ;
#198 = PERSON_AND_ORGANIZATION_ROLE ( 'design_supplier' ) ;
#199 = ORIENTED_EDGE ( 'NONE', *, *, #231, .T. ) ;
#200 = ORGANIZATION ( 'UNSPECIFIED', 'UNSPECIFIED', '' ) ;
#201 = DATE_TIME_ROLE ( 'classification_date' ) ;
#202 = EDGE_CURVE ( 'NONE', #27, #248, #105, .T. ) ;
#203 = UNCERTAINTY_MEASURE_WITH_UNIT (LENGTH_MEASURE( 1.000000000000000082E-05 ), #251, 'distance_accuracy_value', 'NONE');
#204 = DIRECTION ( 'NONE',  ( -1.000000000000000000, 0.000000000000000000, 0.000000000000000000 ) ) ;
#205 = CC_DESIGN_PERSON_AND_ORGANIZATION_ASSIGNMENT ( #130, #159, ( #249 ) ) ;
#206 = EDGE_LOOP ( 'NONE', ( #151, #187, #15, #94 ) ) ;
#207 = ORIENTED_EDGE ( 'NONE', *, *, #178, .F. ) ;
#208 = CARTESIAN_POINT ( 'NONE',  ( 0.000000000000000000, 0.000000000000000000, -14.00000000000000000 ) ) ;
#209 = CARTESIAN_POINT ( 'NONE',  ( 2.250000000000000000, 2.755455298081544285E-16, 2.500000000000000000 ) ) ;
#210 = ADVANCED_FACE ( 'NONE', ( #20 ), #61, .T. ) ;
#211 = DIRECTION ( 'NONE',  ( -0.000000000000000000, -0.000000000000000000, -1.000000000000000000 ) ) ;
#212 = CARTESIAN_POINT ( 'NONE',  ( -2.250000000000000000, 0.000000000000000000, 0.000000000000000000 ) ) ;
#213 = CIRCLE ( 'NONE', #135, 1.250000000000000000 ) ;
#214 = EDGE_CURVE ( 'NONE', #117, #223, #241, .T. ) ;
#215 = CARTESIAN_POINT ( 'NONE',  ( 1.250000000000000000, 1.530808498934191571E-16, -14.00000000000000000 ) ) ;
#216 = DIRECTION ( 'NONE',  ( 0.000000000000000000, 0.000000000000000000, 1.000000000000000000 ) ) ;
#217 = AXIS2_PLACEMENT_3D ( 'NONE', #134, #56, #137 ) ;
#218 = CALENDAR_DATE ( 2026, 7, 9 ) ;
#219 = CALENDAR_DATE ( 2026, 7, 9 ) ;
#220 = APPROVAL_STATUS ( 'not_yet_approved' ) ;
#221 = AXIS2_PLACEMENT_3D ( 'NONE', #85, #59, #235 ) ;
#222 = EDGE_LOOP ( 'NONE', ( #227, #131 ) ) ;
#223 = VERTEX_POINT ( 'NONE', #253 ) ;
#224 = AXIS2_PLACEMENT_3D ( 'NONE', #150, #55, #74 ) ;
#225 = CC_DESIGN_SECURITY_CLASSIFICATION ( #84, ( #249 ) ) ;
#226 = EDGE_LOOP ( 'NONE', ( #149, #199 ) ) ;
#227 = ORIENTED_EDGE ( 'NONE', *, *, #93, .T. ) ;
#228 = LINE ( 'NONE', #52, #50 ) ;
#229 = DIRECTION ( 'NONE',  ( 1.000000000000000000, 0.000000000000000000, 0.000000000000000000 ) ) ;
#230 = DIRECTION ( 'NONE',  ( 1.000000000000000000, 0.000000000000000000, 0.000000000000000000 ) ) ;
#231 = EDGE_CURVE ( 'NONE', #172, #32, #213, .T. ) ;
#232 = CARTESIAN_POINT ( 'NONE',  ( 0.000000000000000000, 0.000000000000000000, 0.000000000000000000 ) ) ;
#233 = AXIS2_PLACEMENT_3D ( 'NONE', #49, #184, #204 ) ;
#234 = LOCAL_TIME ( 23, 30, 39.00000000000000000, #24 ) ;
#235 = DIRECTION ( 'NONE',  ( 1.000000000000000000, 0.000000000000000000, -0.000000000000000000 ) ) ;
#236 = DIRECTION ( 'NONE',  ( 1.000000000000000000, 0.000000000000000000, 0.000000000000000000 ) ) ;
#237 = PERSON_AND_ORGANIZATION ( #8, #200 ) ;
#238 = AXIS2_PLACEMENT_3D ( 'NONE', #11, #92, #168 ) ;
#239 = LOCAL_TIME ( 23, 30, 39.00000000000000000, #142 ) ;
#240 = DATE_TIME_ROLE ( 'creation_date' ) ;
#241 = CIRCLE ( 'NONE', #194, 1.250000000000000000 ) ;
#242 = CARTESIAN_POINT ( 'NONE',  ( 2.250000000000000000, 2.755455298081544285E-16, 0.000000000000000000 ) ) ;
#243 = CC_DESIGN_DATE_AND_TIME_ASSIGNMENT ( #160, #240, ( #69 ) ) ;
#244 = LINE ( 'NONE', #71, #83 ) ;
#245 = ORIENTED_EDGE ( 'NONE', *, *, #101, .T. ) ;
#246 = CC_DESIGN_APPROVAL ( #22, ( #69 ) ) ;
#247 = CARTESIAN_POINT ( 'NONE',  ( 0.000000000000000000, 0.000000000000000000, 2.500000000000000000 ) ) ;
#248 = VERTEX_POINT ( 'NONE', #212 ) ;
#249 = PRODUCT_DEFINITION_FORMATION_WITH_SPECIFIED_SOURCE ( 'ANY', '', #64, .NOT_KNOWN. ) ;
#250 = DESIGN_CONTEXT ( 'detailed design', #103, 'design' ) ;
#251 =( LENGTH_UNIT ( ) NAMED_UNIT ( * ) SI_UNIT ( .MILLI., .METRE. ) );
#252 = CC_DESIGN_PERSON_AND_ORGANIZATION_ASSIGNMENT ( #181, #23, ( #64 ) ) ;
#253 = CARTESIAN_POINT ( 'NONE',  ( -1.250000000000000000, 0.000000000000000000, -14.00000000000000000 ) ) ;
#254 = PRODUCT_RELATED_PRODUCT_CATEGORY ( 'detail', '', ( #64 ) ) ;
#255 = CYLINDRICAL_SURFACE ( 'NONE', #43, 1.250000000000000000 ) ;
ENDSEC;
END-ISO-10303-21;
