ISO-10303-21;
HEADER;
FILE_DESCRIPTION (( 'STEP AP203' ),
    '1' );
FILE_NAME ('HW-S_M2x8_socket_ENVELOPE.step',
    '2026-09-08T03:40:28',
    ( '' ),
    ( '' ),
    'SwSTEP 2.0',
    'SolidWorks 2026',
    '' );
FILE_SCHEMA (( 'CONFIG_CONTROL_DESIGN' ));
ENDSEC;

DATA;
#1 = CIRCLE ( 'NONE', #20, 1.000000000000000000 ) ;
#2 = DATE_AND_TIME ( #238, #94 ) ;
#3 = PERSON_AND_ORGANIZATION ( #72, #111 ) ;
#4 = PERSON_AND_ORGANIZATION_ROLE ( 'classification_officer' ) ;
#5 = ORIENTED_EDGE ( 'NONE', *, *, #127, .T. ) ;
#6 = VECTOR ( 'NONE', #50, 1000.000000000000000 ) ;
#7 = CYLINDRICAL_SURFACE ( 'NONE', #126, 1.899999999999999911 ) ;
#8 = CARTESIAN_POINT ( 'NONE',  ( -1.000000000000000000, 0.000000000000000000, 0.000000000000000000 ) ) ;
#9 = DIRECTION ( 'NONE',  ( 1.000000000000000000, 0.000000000000000000, -0.000000000000000000 ) ) ;
#10 = LOCAL_TIME ( 22, 40, 28.00000000000000000, #219 ) ;
#11 = CARTESIAN_POINT ( 'NONE',  ( 0.000000000000000000, 0.000000000000000000, 0.000000000000000000 ) ) ;
#12 = DIRECTION ( 'NONE',  ( 1.000000000000000000, 0.000000000000000000, 0.000000000000000000 ) ) ;
#13 = DIRECTION ( 'NONE',  ( 0.000000000000000000, 0.000000000000000000, 1.000000000000000000 ) ) ;
#14 =( NAMED_UNIT ( * ) PLANE_ANGLE_UNIT ( ) SI_UNIT ( $, .RADIAN. ) );
#15 = CARTESIAN_POINT ( 'NONE',  ( 0.000000000000000000, 0.000000000000000000, 0.000000000000000000 ) ) ;
#16 =( LENGTH_UNIT ( ) NAMED_UNIT ( * ) SI_UNIT ( .MILLI., .METRE. ) );
#17 = CIRCLE ( 'NONE', #189, 1.899999999999999911 ) ;
#18 = LOCAL_TIME ( 22, 40, 28.00000000000000000, #81 ) ;
#19 = ORIENTED_EDGE ( 'NONE', *, *, #78, .T. ) ;
#20 = AXIS2_PLACEMENT_3D ( 'NONE', #56, #133, #173 ) ;
#21 = CALENDAR_DATE ( 2026, 7, 9 ) ;
#22 = PRODUCT_RELATED_PRODUCT_CATEGORY ( 'detail', '', ( #25 ) ) ;
#23 = APPROVAL_ROLE ( '' ) ;
#24 = DIRECTION ( 'NONE',  ( 1.000000000000000000, 0.000000000000000000, 0.000000000000000000 ) ) ;
#25 = PRODUCT ( 'HW-S_M2x8_socket_ENVELOPE', 'HW-S_M2x8_socket_ENVELOPE', '', ( #250 ) ) ;
#26 = FACE_OUTER_BOUND ( 'NONE', #170, .T. ) ;
#27 = ADVANCED_FACE ( 'NONE', ( #26 ), #7, .T. ) ;
#28 = DIRECTION ( 'NONE',  ( -1.000000000000000000, 0.000000000000000000, 0.000000000000000000 ) ) ;
#29 = CARTESIAN_POINT ( 'NONE',  ( 1.000000000000000000, 1.224646799147353207E-16, 0.000000000000000000 ) ) ;
#30 = AXIS2_PLACEMENT_3D ( 'NONE', #105, #164, #245 ) ;
#31 = CC_DESIGN_PERSON_AND_ORGANIZATION_ASSIGNMENT ( #80, #4, ( #202 ) ) ;
#32 = ORIENTED_EDGE ( 'NONE', *, *, #196, .T. ) ;
#33 = PERSON_AND_ORGANIZATION ( #72, #111 ) ;
#34 = FACE_OUTER_BOUND ( 'NONE', #48, .T. ) ;
#35 = AXIS2_PLACEMENT_3D ( 'NONE', #114, #130, #233 ) ;
#36 = CARTESIAN_POINT ( 'NONE',  ( -1.899999999999999911, 0.000000000000000000, 2.000000000000000000 ) ) ;
#37 = AXIS2_PLACEMENT_3D ( 'NONE', #165, #47, #9 ) ;
#38 = CC_DESIGN_PERSON_AND_ORGANIZATION_ASSIGNMENT ( #62, #142, ( #180 ) ) ;
#39 = VERTEX_POINT ( 'NONE', #187 ) ;
#40 = VERTEX_POINT ( 'NONE', #29 ) ;
#41 = CC_DESIGN_PERSON_AND_ORGANIZATION_ASSIGNMENT ( #201, #98, ( #146 ) ) ;
#42 = DATE_AND_TIME ( #218, #18 ) ;
#43 = EDGE_LOOP ( 'NONE', ( #115, #200, #168, #83 ) ) ;
#44 =( GEOMETRIC_REPRESENTATION_CONTEXT ( 3 ) GLOBAL_UNCERTAINTY_ASSIGNED_CONTEXT ( ( #163 ) ) GLOBAL_UNIT_ASSIGNED_CONTEXT ( ( #16, #14, #253 ) ) REPRESENTATION_CONTEXT ( 'NONE', 'WORKASPACE' ) );
#45 = APPROVAL_DATE_TIME ( #222, #87 ) ;
#46 = APPROVAL_DATE_TIME ( #82, #132 ) ;
#47 = DIRECTION ( 'NONE',  ( 0.000000000000000000, 0.000000000000000000, 1.000000000000000000 ) ) ;
#48 = EDGE_LOOP ( 'NONE', ( #224, #230, #70, #141 ) ) ;
#49 = EDGE_CURVE ( 'NONE', #221, #39, #147, .T. ) ;
#50 = DIRECTION ( 'NONE',  ( -0.000000000000000000, -0.000000000000000000, -1.000000000000000000 ) ) ;
#51 = LINE ( 'NONE', #244, #175 ) ;
#52 = LINE ( 'NONE', #145, #6 ) ;
#53 = CIRCLE ( 'NONE', #71, 1.899999999999999911 ) ;
#54 = PERSON_AND_ORGANIZATION_ROLE ( 'design_owner' ) ;
#55 = DIRECTION ( 'NONE',  ( 0.000000000000000000, 0.000000000000000000, 1.000000000000000000 ) ) ;
#56 = CARTESIAN_POINT ( 'NONE',  ( 0.000000000000000000, 0.000000000000000000, -8.000000000000000000 ) ) ;
#57 = APPLICATION_PROTOCOL_DEFINITION ( 'international standard', 'config_control_design', 1994, #169 ) ;
#58 = ORIENTED_EDGE ( 'NONE', *, *, #59, .T. ) ;
#59 = EDGE_CURVE ( 'NONE', #225, #138, #52, .T. ) ;
#60 = APPROVAL_STATUS ( 'not_yet_approved' ) ;
#61 = VERTEX_POINT ( 'NONE', #125 ) ;
#62 = PERSON_AND_ORGANIZATION ( #72, #111 ) ;
#63 = AXIS2_PLACEMENT_3D ( 'NONE', #188, #68, #123 ) ;
#64 = DATE_TIME_ROLE ( 'classification_date' ) ;
#65 = DIRECTION ( 'NONE',  ( 0.000000000000000000, 0.000000000000000000, 1.000000000000000000 ) ) ;
#66 = EDGE_CURVE ( 'NONE', #138, #61, #17, .T. ) ;
#67 = DIRECTION ( 'NONE',  ( -0.000000000000000000, -0.000000000000000000, -1.000000000000000000 ) ) ;
#68 = DIRECTION ( 'NONE',  ( 0.000000000000000000, 0.000000000000000000, 1.000000000000000000 ) ) ;
#69 = ORIENTED_EDGE ( 'NONE', *, *, #113, .T. ) ;
#70 = ORIENTED_EDGE ( 'NONE', *, *, #49, .T. ) ;
#71 = AXIS2_PLACEMENT_3D ( 'NONE', #74, #55, #193 ) ;
#72 = PERSON ( 'UNSPECIFIED', 'UNSPECIFIED', 'UNSPECIFIED', ('UNSPECIFIED'), ('UNSPECIFIED'), ('UNSPECIFIED') ) ;
#73 = ADVANCED_FACE ( 'NONE', ( #104 ), #86, .T. ) ;
#74 = CARTESIAN_POINT ( 'NONE',  ( 0.000000000000000000, 0.000000000000000000, 0.000000000000000000 ) ) ;
#75 = CARTESIAN_POINT ( 'NONE',  ( 1.899999999999999911, 2.326828918379971365E-16, 2.000000000000000000 ) ) ;
#76 = CIRCLE ( 'NONE', #195, 1.899999999999999911 ) ;
#77 = DIRECTION ( 'NONE',  ( 1.000000000000000000, 0.000000000000000000, 0.000000000000000000 ) ) ;
#78 = EDGE_CURVE ( 'NONE', #225, #177, #76, .T. ) ;
#79 = DESIGN_CONTEXT ( 'detailed design', #249, 'design' ) ;
#80 = PERSON_AND_ORGANIZATION ( #72, #111 ) ;
#81 = COORDINATED_UNIVERSAL_TIME_OFFSET ( 6, 0, .BEHIND. ) ;
#82 = DATE_AND_TIME ( #118, #246 ) ;
#83 = ORIENTED_EDGE ( 'NONE', *, *, #59, .F. ) ;
#84 = EDGE_CURVE ( 'NONE', #39, #192, #106, .T. ) ;
#85 = CARTESIAN_POINT ( 'NONE',  ( 0.000000000000000000, 0.000000000000000000, 2.000000000000000000 ) ) ;
#86 = PLANE ( 'NONE',  #37 ) ;
#87 = APPROVAL ( #182, 'UNSPECIFIED' ) ;
#88 = CARTESIAN_POINT ( 'NONE',  ( -1.899999999999999911, 0.000000000000000000, 0.000000000000000000 ) ) ;
#89 = APPROVAL_PERSON_ORGANIZATION ( #237, #158, #137 ) ;
#90 = CARTESIAN_POINT ( 'NONE',  ( 0.000000000000000000, 0.000000000000000000, 0.000000000000000000 ) ) ;
#91 = CARTESIAN_POINT ( 'NONE',  ( 0.000000000000000000, 0.000000000000000000, 2.000000000000000000 ) ) ;
#92 = CARTESIAN_POINT ( 'NONE',  ( 0.000000000000000000, 0.000000000000000000, 2.000000000000000000 ) ) ;
#93 = CC_DESIGN_DATE_AND_TIME_ASSIGNMENT ( #241, #64, ( #202 ) ) ;
#94 = LOCAL_TIME ( 22, 40, 28.00000000000000000, #99 ) ;
#95 = CARTESIAN_POINT ( 'NONE',  ( 1.000000000000000000, 1.224646799147353207E-16, -8.000000000000000000 ) ) ;
#96 = CARTESIAN_POINT ( 'NONE',  ( -1.000000000000000000, 0.000000000000000000, 0.000000000000000000 ) ) ;
#97 = EDGE_LOOP ( 'NONE', ( #103, #227 ) ) ;
#98 = PERSON_AND_ORGANIZATION_ROLE ( 'design_supplier' ) ;
#99 = COORDINATED_UNIVERSAL_TIME_OFFSET ( 6, 0, .BEHIND. ) ;
#100 = FACE_OUTER_BOUND ( 'NONE', #97, .T. ) ;
#101 = VECTOR ( 'NONE', #124, 1000.000000000000000 ) ;
#102 = CC_DESIGN_APPROVAL ( #158, ( #202 ) ) ;
#103 = ORIENTED_EDGE ( 'NONE', *, *, #66, .F. ) ;
#104 = FACE_OUTER_BOUND ( 'NONE', #208, .T. ) ;
#105 = CARTESIAN_POINT ( 'NONE',  ( 0.000000000000000000, 0.000000000000000000, 0.000000000000000000 ) ) ;
#106 = CIRCLE ( 'NONE', #140, 1.000000000000000000 ) ;
#107 = DIRECTION ( 'NONE',  ( 0.000000000000000000, 0.000000000000000000, 1.000000000000000000 ) ) ;
#108 = APPROVAL_STATUS ( 'not_yet_approved' ) ;
#109 = ADVANCED_FACE ( 'NONE', ( #229, #100 ), #185, .F. ) ;
#110 = CYLINDRICAL_SURFACE ( 'NONE', #255, 1.899999999999999911 ) ;
#111 = ORGANIZATION ( 'UNSPECIFIED', 'UNSPECIFIED', '' ) ;
#112 = FACE_OUTER_BOUND ( 'NONE', #43, .T. ) ;
#113 = EDGE_CURVE ( 'NONE', #40, #192, #51, .T. ) ;
#114 = CARTESIAN_POINT ( 'NONE',  ( 0.000000000000000000, 0.000000000000000000, -8.000000000000000000 ) ) ;
#115 = ORIENTED_EDGE ( 'NONE', *, *, #223, .F. ) ;
#116 = APPROVAL_DATE_TIME ( #42, #158 ) ;
#117 = ORIENTED_EDGE ( 'NONE', *, *, #66, .T. ) ;
#118 = CALENDAR_DATE ( 2026, 7, 9 ) ;
#119 = APPROVAL_ROLE ( '' ) ;
#120 = DIRECTION ( 'NONE',  ( 1.000000000000000000, 0.000000000000000000, 0.000000000000000000 ) ) ;
#121 = EDGE_LOOP ( 'NONE', ( #5, #32 ) ) ;
#122 = APPROVAL_PERSON_ORGANIZATION ( #33, #132, #119 ) ;
#123 = DIRECTION ( 'NONE',  ( 1.000000000000000000, 0.000000000000000000, 0.000000000000000000 ) ) ;
#124 = DIRECTION ( 'NONE',  ( -0.000000000000000000, -0.000000000000000000, -1.000000000000000000 ) ) ;
#125 = CARTESIAN_POINT ( 'NONE',  ( 1.899999999999999911, 2.326828918379971365E-16, 0.000000000000000000 ) ) ;
#126 = AXIS2_PLACEMENT_3D ( 'NONE', #85, #209, #28 ) ;
#127 = EDGE_CURVE ( 'NONE', #221, #40, #184, .T. ) ;
#128 = DIRECTION ( 'NONE',  ( -0.000000000000000000, -0.000000000000000000, -1.000000000000000000 ) ) ;
#129 = ADVANCED_BREP_SHAPE_REPRESENTATION ( 'HW-S_M2x8_socket_ENVELOPE', ( #226, #167 ), #44 ) ;
#130 = DIRECTION ( 'NONE',  ( 0.000000000000000000, 0.000000000000000000, 1.000000000000000000 ) ) ;
#131 = CARTESIAN_POINT ( 'NONE',  ( 1.899999999999999911, 2.326828918379971365E-16, 2.000000000000000000 ) ) ;
#132 = APPROVAL ( #108, 'UNSPECIFIED' ) ;
#133 = DIRECTION ( 'NONE',  ( 0.000000000000000000, 0.000000000000000000, 1.000000000000000000 ) ) ;
#134 = ORIENTED_EDGE ( 'NONE', *, *, #49, .F. ) ;
#135 = CIRCLE ( 'NONE', #155, 1.899999999999999911 ) ;
#136 = CC_DESIGN_DATE_AND_TIME_ASSIGNMENT ( #2, #139, ( #180 ) ) ;
#137 = APPROVAL_ROLE ( '' ) ;
#138 = VERTEX_POINT ( 'NONE', #88 ) ;
#139 = DATE_TIME_ROLE ( 'creation_date' ) ;
#140 = AXIS2_PLACEMENT_3D ( 'NONE', #211, #206, #24 ) ;
#141 = ORIENTED_EDGE ( 'NONE', *, *, #84, .T. ) ;
#142 = PERSON_AND_ORGANIZATION_ROLE ( 'creator' ) ;
#143 = ORIENTED_EDGE ( 'NONE', *, *, #196, .F. ) ;
#144 = ORIENTED_EDGE ( 'NONE', *, *, #216, .T. ) ;
#145 = CARTESIAN_POINT ( 'NONE',  ( -1.899999999999999911, 0.000000000000000000, 2.000000000000000000 ) ) ;
#146 = PRODUCT_DEFINITION_FORMATION_WITH_SPECIFIED_SOURCE ( 'ANY', '', #25, .NOT_KNOWN. ) ;
#147 = LINE ( 'NONE', #8, #101 ) ;
#148 = ORIENTED_EDGE ( 'NONE', *, *, #78, .F. ) ;
#149 = PERSON_AND_ORGANIZATION ( #72, #111 ) ;
#150 = CARTESIAN_POINT ( 'NONE',  ( 0.000000000000000000, 0.000000000000000000, 0.000000000000000000 ) ) ;
#151 = CARTESIAN_POINT ( 'NONE',  ( 0.000000000000000000, 0.000000000000000000, 0.000000000000000000 ) ) ;
#152 = CYLINDRICAL_SURFACE ( 'NONE', #207, 1.000000000000000000 ) ;
#153 = AXIS2_PLACEMENT_3D ( 'NONE', #150, #13, #77 ) ;
#154 = DIRECTION ( 'NONE',  ( -1.000000000000000000, 0.000000000000000000, 0.000000000000000000 ) ) ;
#155 = AXIS2_PLACEMENT_3D ( 'NONE', #92, #214, #194 ) ;
#156 = COORDINATED_UNIVERSAL_TIME_OFFSET ( 6, 0, .BEHIND. ) ;
#157 = ORIENTED_EDGE ( 'NONE', *, *, #186, .F. ) ;
#158 = APPROVAL ( #60, 'UNSPECIFIED' ) ;
#159 = SHAPE_DEFINITION_REPRESENTATION ( #160, #129 ) ;
#160 = PRODUCT_DEFINITION_SHAPE ( 'NONE', 'NONE',  #180 ) ;
#161 = CALENDAR_DATE ( 2026, 7, 9 ) ;
#162 = AXIS2_PLACEMENT_3D ( 'NONE', #11, #128, #197 ) ;
#163 = UNCERTAINTY_MEASURE_WITH_UNIT (LENGTH_MEASURE( 1.000000000000000082E-05 ), #16, 'distance_accuracy_value', 'NONE');
#164 = DIRECTION ( 'NONE',  ( 0.000000000000000000, 0.000000000000000000, 1.000000000000000000 ) ) ;
#165 = CARTESIAN_POINT ( 'NONE',  ( 0.000000000000000000, 0.000000000000000000, 2.000000000000000000 ) ) ;
#166 = CYLINDRICAL_SURFACE ( 'NONE', #162, 1.000000000000000000 ) ;
#167 = AXIS2_PLACEMENT_3D ( 'NONE', #15, #174, #217 ) ;
#168 = ORIENTED_EDGE ( 'NONE', *, *, #190, .T. ) ;
#169 = APPLICATION_CONTEXT ( 'configuration controlled 3d designs of mechanical parts and assemblies' ) ;
#170 = EDGE_LOOP ( 'NONE', ( #157, #148, #58, #117 ) ) ;
#171 = DIRECTION ( 'NONE',  ( -1.000000000000000000, 0.000000000000000000, 0.000000000000000000 ) ) ;
#172 = CC_DESIGN_APPROVAL ( #132, ( #180 ) ) ;
#173 = DIRECTION ( 'NONE',  ( 1.000000000000000000, 0.000000000000000000, 0.000000000000000000 ) ) ;
#174 = DIRECTION ( 'NONE',  ( 0.000000000000000000, 0.000000000000000000, 1.000000000000000000 ) ) ;
#175 = VECTOR ( 'NONE', #67, 1000.000000000000000 ) ;
#176 = ADVANCED_FACE ( 'NONE', ( #191 ), #166, .T. ) ;
#177 = VERTEX_POINT ( 'NONE', #75 ) ;
#178 = CLOSED_SHELL ( 'NONE', ( #240, #176, #228, #210, #27, #73, #109 ) ) ;
#179 = COORDINATED_UNIVERSAL_TIME_OFFSET ( 6, 0, .BEHIND. ) ;
#180 = PRODUCT_DEFINITION ( 'UNKNOWN', '', #146, #79 ) ;
#181 = CC_DESIGN_SECURITY_CLASSIFICATION ( #202, ( #146 ) ) ;
#182 = APPROVAL_STATUS ( 'not_yet_approved' ) ;
#183 = SECURITY_CLASSIFICATION_LEVEL ( 'unclassified' ) ;
#184 = CIRCLE ( 'NONE', #63, 1.000000000000000000 ) ;
#185 = PLANE ( 'NONE',  #30 ) ;
#186 = EDGE_CURVE ( 'NONE', #177, #61, #252, .T. ) ;
#187 = CARTESIAN_POINT ( 'NONE',  ( -1.000000000000000000, 0.000000000000000000, -8.000000000000000000 ) ) ;
#188 = CARTESIAN_POINT ( 'NONE',  ( 0.000000000000000000, 0.000000000000000000, 0.000000000000000000 ) ) ;
#189 = AXIS2_PLACEMENT_3D ( 'NONE', #90, #107, #12 ) ;
#190 = EDGE_CURVE ( 'NONE', #61, #138, #53, .T. ) ;
#191 = FACE_OUTER_BOUND ( 'NONE', #243, .T. ) ;
#192 = VERTEX_POINT ( 'NONE', #95 ) ;
#193 = DIRECTION ( 'NONE',  ( 1.000000000000000000, 0.000000000000000000, 0.000000000000000000 ) ) ;
#194 = DIRECTION ( 'NONE',  ( 1.000000000000000000, 0.000000000000000000, 0.000000000000000000 ) ) ;
#195 = AXIS2_PLACEMENT_3D ( 'NONE', #91, #65, #120 ) ;
#196 = EDGE_CURVE ( 'NONE', #40, #221, #251, .T. ) ;
#197 = DIRECTION ( 'NONE',  ( -1.000000000000000000, 0.000000000000000000, 0.000000000000000000 ) ) ;
#198 = FACE_OUTER_BOUND ( 'NONE', #247, .T. ) ;
#199 = CC_DESIGN_PERSON_AND_ORGANIZATION_ASSIGNMENT ( #149, #54, ( #25 ) ) ;
#200 = ORIENTED_EDGE ( 'NONE', *, *, #186, .T. ) ;
#201 = PERSON_AND_ORGANIZATION ( #72, #111 ) ;
#202 = SECURITY_CLASSIFICATION ( '', '', #183 ) ;
#203 = ORIENTED_EDGE ( 'NONE', *, *, #216, .F. ) ;
#204 = PERSON_AND_ORGANIZATION_ROLE ( 'creator' ) ;
#205 = PERSON_AND_ORGANIZATION ( #72, #111 ) ;
#206 = DIRECTION ( 'NONE',  ( 0.000000000000000000, 0.000000000000000000, 1.000000000000000000 ) ) ;
#207 = AXIS2_PLACEMENT_3D ( 'NONE', #151, #232, #154 ) ;
#208 = EDGE_LOOP ( 'NONE', ( #19, #212 ) ) ;
#209 = DIRECTION ( 'NONE',  ( -0.000000000000000000, -0.000000000000000000, -1.000000000000000000 ) ) ;
#210 = ADVANCED_FACE ( 'NONE', ( #198 ), #231, .F. ) ;
#211 = CARTESIAN_POINT ( 'NONE',  ( 0.000000000000000000, 0.000000000000000000, -8.000000000000000000 ) ) ;
#212 = ORIENTED_EDGE ( 'NONE', *, *, #223, .T. ) ;
#213 = APPLICATION_PROTOCOL_DEFINITION ( 'international standard', 'config_control_design', 1994, #249 ) ;
#214 = DIRECTION ( 'NONE',  ( 0.000000000000000000, 0.000000000000000000, 1.000000000000000000 ) ) ;
#215 = DIRECTION ( 'NONE',  ( -0.000000000000000000, -0.000000000000000000, -1.000000000000000000 ) ) ;
#216 = EDGE_CURVE ( 'NONE', #192, #39, #1, .T. ) ;
#217 = DIRECTION ( 'NONE',  ( 1.000000000000000000, 0.000000000000000000, 0.000000000000000000 ) ) ;
#218 = CALENDAR_DATE ( 2026, 7, 9 ) ;
#219 = COORDINATED_UNIVERSAL_TIME_OFFSET ( 6, 0, .BEHIND. ) ;
#220 = LOCAL_TIME ( 22, 40, 28.00000000000000000, #156 ) ;
#221 = VERTEX_POINT ( 'NONE', #96 ) ;
#222 = DATE_AND_TIME ( #21, #10 ) ;
#223 = EDGE_CURVE ( 'NONE', #177, #225, #135, .T. ) ;
#224 = ORIENTED_EDGE ( 'NONE', *, *, #113, .F. ) ;
#225 = VERTEX_POINT ( 'NONE', #36 ) ;
#226 = MANIFOLD_SOLID_BREP ( 'Socket_head_envelope', #178 ) ;
#227 = ORIENTED_EDGE ( 'NONE', *, *, #190, .F. ) ;
#228 = ADVANCED_FACE ( 'NONE', ( #34 ), #152, .T. ) ;
#229 = FACE_BOUND ( 'NONE', #121, .T. ) ;
#230 = ORIENTED_EDGE ( 'NONE', *, *, #127, .F. ) ;
#231 = PLANE ( 'NONE',  #35 ) ;
#232 = DIRECTION ( 'NONE',  ( -0.000000000000000000, -0.000000000000000000, -1.000000000000000000 ) ) ;
#233 = DIRECTION ( 'NONE',  ( 1.000000000000000000, 0.000000000000000000, -0.000000000000000000 ) ) ;
#234 = CC_DESIGN_PERSON_AND_ORGANIZATION_ASSIGNMENT ( #205, #204, ( #146 ) ) ;
#235 = CARTESIAN_POINT ( 'NONE',  ( 0.000000000000000000, 0.000000000000000000, 2.000000000000000000 ) ) ;
#236 = CC_DESIGN_APPROVAL ( #87, ( #146 ) ) ;
#237 = PERSON_AND_ORGANIZATION ( #72, #111 ) ;
#238 = CALENDAR_DATE ( 2026, 7, 9 ) ;
#239 = VECTOR ( 'NONE', #254, 1000.000000000000000 ) ;
#240 = ADVANCED_FACE ( 'NONE', ( #112 ), #110, .T. ) ;
#241 = DATE_AND_TIME ( #161, #220 ) ;
#242 = APPROVAL_PERSON_ORGANIZATION ( #3, #87, #23 ) ;
#243 = EDGE_LOOP ( 'NONE', ( #143, #69, #144, #134 ) ) ;
#244 = CARTESIAN_POINT ( 'NONE',  ( 1.000000000000000000, 1.224646799147353207E-16, 0.000000000000000000 ) ) ;
#245 = DIRECTION ( 'NONE',  ( 1.000000000000000000, 0.000000000000000000, -0.000000000000000000 ) ) ;
#246 = LOCAL_TIME ( 22, 40, 28.00000000000000000, #179 ) ;
#247 = EDGE_LOOP ( 'NONE', ( #248, #203 ) ) ;
#248 = ORIENTED_EDGE ( 'NONE', *, *, #84, .F. ) ;
#249 = APPLICATION_CONTEXT ( 'configuration controlled 3d designs of mechanical parts and assemblies' ) ;
#250 = MECHANICAL_CONTEXT ( 'NONE', #169, 'mechanical' ) ;
#251 = CIRCLE ( 'NONE', #153, 1.000000000000000000 ) ;
#252 = LINE ( 'NONE', #131, #239 ) ;
#253 =( NAMED_UNIT ( * ) SI_UNIT ( $, .STERADIAN. ) SOLID_ANGLE_UNIT ( ) );
#254 = DIRECTION ( 'NONE',  ( -0.000000000000000000, -0.000000000000000000, -1.000000000000000000 ) ) ;
#255 = AXIS2_PLACEMENT_3D ( 'NONE', #235, #215, #171 ) ;
ENDSEC;
END-ISO-10303-21;
