ISO-10303-21;
HEADER;
FILE_DESCRIPTION (( 'STEP AP203' ),
    '1' );
FILE_NAME ('HW-W_M2_washer_0p5_ENVELOPE.step',
    '2026-09-08T03:41:48',
    ( '' ),
    ( '' ),
    'SwSTEP 2.0',
    'SolidWorks 2026',
    '' );
FILE_SCHEMA (( 'CONFIG_CONTROL_DESIGN' ));
ENDSEC;

DATA;
#1 = APPROVAL_STATUS ( 'not_yet_approved' ) ;
#2 = ORIENTED_EDGE ( 'NONE', *, *, #217, .F. ) ;
#3 = ADVANCED_FACE ( 'NONE', ( #85 ), #138, .T. ) ;
#4 = EDGE_LOOP ( 'NONE', ( #71, #117 ) ) ;
#5 = CARTESIAN_POINT ( 'NONE',  ( 0.000000000000000000, 0.000000000000000000, 0.5000000000000000000 ) ) ;
#6 = CARTESIAN_POINT ( 'NONE',  ( 0.000000000000000000, 0.000000000000000000, 0.000000000000000000 ) ) ;
#7 = EDGE_CURVE ( 'NONE', #77, #160, #166, .T. ) ;
#8 = ORIENTED_EDGE ( 'NONE', *, *, #92, .T. ) ;
#9 = DIRECTION ( 'NONE',  ( 0.000000000000000000, 0.000000000000000000, 1.000000000000000000 ) ) ;
#10 = DIRECTION ( 'NONE',  ( 0.000000000000000000, 0.000000000000000000, 1.000000000000000000 ) ) ;
#11 = EDGE_CURVE ( 'NONE', #100, #23, #84, .T. ) ;
#12 =( GEOMETRIC_REPRESENTATION_CONTEXT ( 3 ) GLOBAL_UNCERTAINTY_ASSIGNED_CONTEXT ( ( #54 ) ) GLOBAL_UNIT_ASSIGNED_CONTEXT ( ( #171, #232, #170 ) ) REPRESENTATION_CONTEXT ( 'NONE', 'WORKASPACE' ) );
#13 = FACE_OUTER_BOUND ( 'NONE', #79, .T. ) ;
#14 = DIRECTION ( 'NONE',  ( 0.000000000000000000, 0.000000000000000000, 1.000000000000000000 ) ) ;
#15 = COORDINATED_UNIVERSAL_TIME_OFFSET ( 6, 0, .BEHIND. ) ;
#16 = CARTESIAN_POINT ( 'NONE',  ( 0.000000000000000000, 0.000000000000000000, 0.5000000000000000000 ) ) ;
#17 = PERSON_AND_ORGANIZATION ( #159, #206 ) ;
#18 = PERSON_AND_ORGANIZATION ( #159, #206 ) ;
#19 = COORDINATED_UNIVERSAL_TIME_OFFSET ( 6, 0, .BEHIND. ) ;
#20 = SHAPE_DEFINITION_REPRESENTATION ( #111, #75 ) ;
#21 = CC_DESIGN_PERSON_AND_ORGANIZATION_ASSIGNMENT ( #52, #132, ( #29 ) ) ;
#22 = AXIS2_PLACEMENT_3D ( 'NONE', #65, #181, #62 ) ;
#23 = VERTEX_POINT ( 'NONE', #41 ) ;
#24 = DIRECTION ( 'NONE',  ( 1.000000000000000000, 0.000000000000000000, 0.000000000000000000 ) ) ;
#25 = FACE_OUTER_BOUND ( 'NONE', #220, .T. ) ;
#26 = ORIENTED_EDGE ( 'NONE', *, *, #51, .T. ) ;
#27 = EDGE_LOOP ( 'NONE', ( #209, #183 ) ) ;
#28 = EDGE_CURVE ( 'NONE', #137, #23, #241, .T. ) ;
#29 = PRODUCT_DEFINITION_FORMATION_WITH_SPECIFIED_SOURCE ( 'ANY', '', #152, .NOT_KNOWN. ) ;
#30 = CARTESIAN_POINT ( 'NONE',  ( -2.500000000000000000, 0.000000000000000000, 0.000000000000000000 ) ) ;
#31 = LINE ( 'NONE', #91, #33 ) ;
#32 = PRODUCT_DEFINITION ( 'UNKNOWN', '', #29, #112 ) ;
#33 = VECTOR ( 'NONE', #47, 1000.000000000000000 ) ;
#34 = DIRECTION ( 'NONE',  ( 1.000000000000000000, 0.000000000000000000, 0.000000000000000000 ) ) ;
#35 = COORDINATED_UNIVERSAL_TIME_OFFSET ( 6, 0, .BEHIND. ) ;
#36 = EDGE_LOOP ( 'NONE', ( #208, #26, #56, #57 ) ) ;
#37 = ORIENTED_EDGE ( 'NONE', *, *, #205, .F. ) ;
#38 = SECURITY_CLASSIFICATION_LEVEL ( 'unclassified' ) ;
#39 = EDGE_LOOP ( 'NONE', ( #37, #178 ) ) ;
#40 = AXIS2_PLACEMENT_3D ( 'NONE', #207, #180, #24 ) ;
#41 = CARTESIAN_POINT ( 'NONE',  ( 1.100000000000000089, 1.347111479062088503E-16, 0.000000000000000000 ) ) ;
#42 = DIRECTION ( 'NONE',  ( 1.000000000000000000, 0.000000000000000000, 0.000000000000000000 ) ) ;
#43 = CARTESIAN_POINT ( 'NONE',  ( 0.000000000000000000, 0.000000000000000000, 0.5000000000000000000 ) ) ;
#44 = FACE_OUTER_BOUND ( 'NONE', #4, .T. ) ;
#45 = AXIS2_PLACEMENT_3D ( 'NONE', #46, #247, #244 ) ;
#46 = CARTESIAN_POINT ( 'NONE',  ( 0.000000000000000000, 0.000000000000000000, 0.000000000000000000 ) ) ;
#47 = DIRECTION ( 'NONE',  ( -0.000000000000000000, -0.000000000000000000, -1.000000000000000000 ) ) ;
#48 = PERSON_AND_ORGANIZATION_ROLE ( 'creator' ) ;
#49 = APPLICATION_CONTEXT ( 'configuration controlled 3d designs of mechanical parts and assemblies' ) ;
#50 = DATE_AND_TIME ( #218, #83 ) ;
#51 = EDGE_CURVE ( 'NONE', #137, #203, #199, .T. ) ;
#52 = PERSON_AND_ORGANIZATION ( #159, #206 ) ;
#53 = ORIENTED_EDGE ( 'NONE', *, *, #92, .F. ) ;
#54 = UNCERTAINTY_MEASURE_WITH_UNIT (LENGTH_MEASURE( 1.000000000000000082E-05 ), #171, 'distance_accuracy_value', 'NONE');
#55 = PERSON_AND_ORGANIZATION ( #159, #206 ) ;
#56 = ORIENTED_EDGE ( 'NONE', *, *, #217, .T. ) ;
#57 = ORIENTED_EDGE ( 'NONE', *, *, #108, .F. ) ;
#58 = CARTESIAN_POINT ( 'NONE',  ( 0.000000000000000000, 0.000000000000000000, 0.000000000000000000 ) ) ;
#59 = CARTESIAN_POINT ( 'NONE',  ( 0.000000000000000000, 0.000000000000000000, 0.5000000000000000000 ) ) ;
#60 = APPROVAL_PERSON_ORGANIZATION ( #127, #245, #107 ) ;
#61 = MANIFOLD_SOLID_BREP ( 'Washer', #99 ) ;
#62 = DIRECTION ( 'NONE',  ( 1.000000000000000000, 0.000000000000000000, 0.000000000000000000 ) ) ;
#63 = CC_DESIGN_PERSON_AND_ORGANIZATION_ASSIGNMENT ( #148, #48, ( #32 ) ) ;
#64 = DIRECTION ( 'NONE',  ( 0.000000000000000000, 0.000000000000000000, 1.000000000000000000 ) ) ;
#65 = CARTESIAN_POINT ( 'NONE',  ( 0.000000000000000000, 0.000000000000000000, 0.000000000000000000 ) ) ;
#66 = CARTESIAN_POINT ( 'NONE',  ( 0.000000000000000000, 0.000000000000000000, 0.5000000000000000000 ) ) ;
#67 = DIRECTION ( 'NONE',  ( -1.000000000000000000, 0.000000000000000000, 0.000000000000000000 ) ) ;
#68 = CALENDAR_DATE ( 2026, 7, 9 ) ;
#69 = DIRECTION ( 'NONE',  ( 1.000000000000000000, 0.000000000000000000, 0.000000000000000000 ) ) ;
#70 = PERSON_AND_ORGANIZATION_ROLE ( 'design_owner' ) ;
#71 = ORIENTED_EDGE ( 'NONE', *, *, #72, .F. ) ;
#72 = EDGE_CURVE ( 'NONE', #234, #160, #126, .T. ) ;
#73 = PERSON_AND_ORGANIZATION_ROLE ( 'classification_officer' ) ;
#74 = AXIS2_PLACEMENT_3D ( 'NONE', #43, #104, #163 ) ;
#75 = ADVANCED_BREP_SHAPE_REPRESENTATION ( 'HW-W_M2_washer_0p5_ENVELOPE', ( #61, #86 ), #12 ) ;
#76 = ORIENTED_EDGE ( 'NONE', *, *, #200, .T. ) ;
#77 = VERTEX_POINT ( 'NONE', #142 ) ;
#78 = DIRECTION ( 'NONE',  ( 1.000000000000000000, 0.000000000000000000, 0.000000000000000000 ) ) ;
#79 = EDGE_LOOP ( 'NONE', ( #8, #101 ) ) ;
#80 = ORIENTED_EDGE ( 'NONE', *, *, #205, .T. ) ;
#81 = ADVANCED_FACE ( 'NONE', ( #25 ), #162, .T. ) ;
#82 = DIRECTION ( 'NONE',  ( -0.000000000000000000, -0.000000000000000000, -1.000000000000000000 ) ) ;
#83 = LOCAL_TIME ( 22, 41, 48.00000000000000000, #19 ) ;
#84 = CIRCLE ( 'NONE', #116, 1.100000000000000089 ) ;
#85 = FACE_OUTER_BOUND ( 'NONE', #249, .T. ) ;
#86 = AXIS2_PLACEMENT_3D ( 'NONE', #188, #14, #34 ) ;
#87 = PLANE ( 'NONE',  #97 ) ;
#88 = CIRCLE ( 'NONE', #235, 2.500000000000000000 ) ;
#89 = APPLICATION_PROTOCOL_DEFINITION ( 'international standard', 'config_control_design', 1994, #49 ) ;
#90 = FACE_BOUND ( 'NONE', #39, .T. ) ;
#91 = CARTESIAN_POINT ( 'NONE',  ( -2.500000000000000000, 0.000000000000000000, 0.5000000000000000000 ) ) ;
#92 = EDGE_CURVE ( 'NONE', #237, #77, #176, .T. ) ;
#93 = CARTESIAN_POINT ( 'NONE',  ( -1.100000000000000089, 0.000000000000000000, 0.5000000000000000000 ) ) ;
#94 = DATE_AND_TIME ( #201, #212 ) ;
#95 = ORIENTED_EDGE ( 'NONE', *, *, #210, .T. ) ;
#96 = AXIS2_PLACEMENT_3D ( 'NONE', #6, #10, #78 ) ;
#97 = AXIS2_PLACEMENT_3D ( 'NONE', #106, #193, #194 ) ;
#98 = CC_DESIGN_SECURITY_CLASSIFICATION ( #184, ( #29 ) ) ;
#99 = CLOSED_SHELL ( 'NONE', ( #119, #81, #169, #156, #3, #187 ) ) ;
#100 = VERTEX_POINT ( 'NONE', #103 ) ;
#101 = ORIENTED_EDGE ( 'NONE', *, *, #128, .T. ) ;
#102 = ORIENTED_EDGE ( 'NONE', *, *, #11, .F. ) ;
#103 = CARTESIAN_POINT ( 'NONE',  ( -1.100000000000000089, 0.000000000000000000, 0.000000000000000000 ) ) ;
#104 = DIRECTION ( 'NONE',  ( -0.000000000000000000, -0.000000000000000000, -1.000000000000000000 ) ) ;
#105 = EDGE_LOOP ( 'NONE', ( #80, #114, #102, #2 ) ) ;
#106 = CARTESIAN_POINT ( 'NONE',  ( 0.000000000000000000, 0.000000000000000000, 0.5000000000000000000 ) ) ;
#107 = APPROVAL_ROLE ( '' ) ;
#108 = EDGE_CURVE ( 'NONE', #23, #100, #229, .T. ) ;
#109 = AXIS2_PLACEMENT_3D ( 'NONE', #121, #82, #164 ) ;
#110 = CALENDAR_DATE ( 2026, 7, 9 ) ;
#111 = PRODUCT_DEFINITION_SHAPE ( 'NONE', 'NONE',  #32 ) ;
#112 = DESIGN_CONTEXT ( 'detailed design', #125, 'design' ) ;
#113 = DATE_TIME_ROLE ( 'creation_date' ) ;
#114 = ORIENTED_EDGE ( 'NONE', *, *, #28, .T. ) ;
#115 = APPROVAL_DATE_TIME ( #94, #236 ) ;
#116 = AXIS2_PLACEMENT_3D ( 'NONE', #58, #118, #140 ) ;
#117 = ORIENTED_EDGE ( 'NONE', *, *, #210, .F. ) ;
#118 = DIRECTION ( 'NONE',  ( 0.000000000000000000, 0.000000000000000000, 1.000000000000000000 ) ) ;
#119 = ADVANCED_FACE ( 'NONE', ( #179 ), #141, .F. ) ;
#120 = DIRECTION ( 'NONE',  ( -1.000000000000000000, 0.000000000000000000, 0.000000000000000000 ) ) ;
#121 = CARTESIAN_POINT ( 'NONE',  ( 0.000000000000000000, 0.000000000000000000, 0.5000000000000000000 ) ) ;
#122 = PLANE ( 'NONE',  #45 ) ;
#123 = FACE_OUTER_BOUND ( 'NONE', #36, .T. ) ;
#124 = DIRECTION ( 'NONE',  ( 0.000000000000000000, 0.000000000000000000, 1.000000000000000000 ) ) ;
#125 = APPLICATION_CONTEXT ( 'configuration controlled 3d designs of mechanical parts and assemblies' ) ;
#126 = CIRCLE ( 'NONE', #96, 2.500000000000000000 ) ;
#127 = PERSON_AND_ORGANIZATION ( #159, #206 ) ;
#128 = EDGE_CURVE ( 'NONE', #77, #237, #88, .T. ) ;
#129 = MECHANICAL_CONTEXT ( 'NONE', #49, 'mechanical' ) ;
#130 = VECTOR ( 'NONE', #182, 1000.000000000000000 ) ;
#131 = CARTESIAN_POINT ( 'NONE',  ( -2.500000000000000000, 0.000000000000000000, 0.5000000000000000000 ) ) ;
#132 = PERSON_AND_ORGANIZATION_ROLE ( 'creator' ) ;
#133 = ORIENTED_EDGE ( 'NONE', *, *, #128, .F. ) ;
#134 = LOCAL_TIME ( 22, 41, 48.00000000000000000, #154 ) ;
#135 = DATE_AND_TIME ( #110, #136 ) ;
#136 = LOCAL_TIME ( 22, 41, 48.00000000000000000, #219 ) ;
#137 = VERTEX_POINT ( 'NONE', #225 ) ;
#138 = CYLINDRICAL_SURFACE ( 'NONE', #74, 2.500000000000000000 ) ;
#139 = AXIS2_PLACEMENT_3D ( 'NONE', #5, #239, #120 ) ;
#140 = DIRECTION ( 'NONE',  ( 1.000000000000000000, 0.000000000000000000, 0.000000000000000000 ) ) ;
#141 = CYLINDRICAL_SURFACE ( 'NONE', #109, 1.100000000000000089 ) ;
#142 = CARTESIAN_POINT ( 'NONE',  ( 2.500000000000000000, 3.061616997868383141E-16, 0.5000000000000000000 ) ) ;
#143 = DIRECTION ( 'NONE',  ( 1.000000000000000000, 0.000000000000000000, 0.000000000000000000 ) ) ;
#144 = CARTESIAN_POINT ( 'NONE',  ( 0.000000000000000000, 0.000000000000000000, 0.000000000000000000 ) ) ;
#145 = AXIS2_PLACEMENT_3D ( 'NONE', #16, #149, #69 ) ;
#146 = DIRECTION ( 'NONE',  ( 1.000000000000000000, 0.000000000000000000, 0.000000000000000000 ) ) ;
#147 = CC_DESIGN_PERSON_AND_ORGANIZATION_ASSIGNMENT ( #55, #73, ( #184 ) ) ;
#148 = PERSON_AND_ORGANIZATION ( #159, #206 ) ;
#149 = DIRECTION ( 'NONE',  ( 0.000000000000000000, 0.000000000000000000, 1.000000000000000000 ) ) ;
#150 = VECTOR ( 'NONE', #223, 1000.000000000000000 ) ;
#151 = APPLICATION_PROTOCOL_DEFINITION ( 'international standard', 'config_control_design', 1994, #125 ) ;
#152 = PRODUCT ( 'HW-W_M2_washer_0p5_ENVELOPE', 'HW-W_M2_washer_0p5_ENVELOPE', '', ( #129 ) ) ;
#153 = LOCAL_TIME ( 22, 41, 48.00000000000000000, #15 ) ;
#154 = COORDINATED_UNIVERSAL_TIME_OFFSET ( 6, 0, .BEHIND. ) ;
#155 = DATE_AND_TIME ( #175, #134 ) ;
#156 = ADVANCED_FACE ( 'NONE', ( #44, #226 ), #122, .F. ) ;
#157 = PERSON_AND_ORGANIZATION ( #159, #206 ) ;
#158 = APPROVAL_STATUS ( 'not_yet_approved' ) ;
#159 = PERSON ( 'UNSPECIFIED', 'UNSPECIFIED', 'UNSPECIFIED', ('UNSPECIFIED'), ('UNSPECIFIED'), ('UNSPECIFIED') ) ;
#160 = VERTEX_POINT ( 'NONE', #186 ) ;
#161 = ORIENTED_EDGE ( 'NONE', *, *, #7, .T. ) ;
#162 = CYLINDRICAL_SURFACE ( 'NONE', #139, 2.500000000000000000 ) ;
#163 = DIRECTION ( 'NONE',  ( -1.000000000000000000, 0.000000000000000000, 0.000000000000000000 ) ) ;
#164 = DIRECTION ( 'NONE',  ( -1.000000000000000000, 0.000000000000000000, 0.000000000000000000 ) ) ;
#165 = CC_DESIGN_DATE_AND_TIME_ASSIGNMENT ( #50, #216, ( #184 ) ) ;
#166 = LINE ( 'NONE', #243, #130 ) ;
#167 = CYLINDRICAL_SURFACE ( 'NONE', #227, 1.100000000000000089 ) ;
#168 = CC_DESIGN_APPROVAL ( #174, ( #184 ) ) ;
#169 = ADVANCED_FACE ( 'NONE', ( #13, #90 ), #87, .T. ) ;
#170 =( NAMED_UNIT ( * ) SI_UNIT ( $, .STERADIAN. ) SOLID_ANGLE_UNIT ( ) );
#171 =( LENGTH_UNIT ( ) NAMED_UNIT ( * ) SI_UNIT ( .MILLI., .METRE. ) );
#172 = LINE ( 'NONE', #230, #192 ) ;
#173 = APPROVAL_PERSON_ORGANIZATION ( #197, #236, #196 ) ;
#174 = APPROVAL ( #158, 'UNSPECIFIED' ) ;
#175 = CALENDAR_DATE ( 2026, 7, 9 ) ;
#176 = CIRCLE ( 'NONE', #238, 2.500000000000000000 ) ;
#177 = PERSON_AND_ORGANIZATION_ROLE ( 'design_supplier' ) ;
#178 = ORIENTED_EDGE ( 'NONE', *, *, #51, .F. ) ;
#179 = FACE_OUTER_BOUND ( 'NONE', #105, .T. ) ;
#180 = DIRECTION ( 'NONE',  ( 0.000000000000000000, 0.000000000000000000, 1.000000000000000000 ) ) ;
#181 = DIRECTION ( 'NONE',  ( 0.000000000000000000, 0.000000000000000000, 1.000000000000000000 ) ) ;
#182 = DIRECTION ( 'NONE',  ( -0.000000000000000000, -0.000000000000000000, -1.000000000000000000 ) ) ;
#183 = ORIENTED_EDGE ( 'NONE', *, *, #108, .T. ) ;
#184 = SECURITY_CLASSIFICATION ( '', '', #38 ) ;
#185 = CIRCLE ( 'NONE', #228, 2.500000000000000000 ) ;
#186 = CARTESIAN_POINT ( 'NONE',  ( 2.500000000000000000, 3.061616997868383141E-16, 0.000000000000000000 ) ) ;
#187 = ADVANCED_FACE ( 'NONE', ( #123 ), #167, .F. ) ;
#188 = CARTESIAN_POINT ( 'NONE',  ( 0.000000000000000000, 0.000000000000000000, 0.000000000000000000 ) ) ;
#189 = CC_DESIGN_APPROVAL ( #245, ( #32 ) ) ;
#190 = DIRECTION ( 'NONE',  ( -0.000000000000000000, -0.000000000000000000, -1.000000000000000000 ) ) ;
#191 = CIRCLE ( 'NONE', #145, 1.100000000000000089 ) ;
#192 = VECTOR ( 'NONE', #190, 1000.000000000000000 ) ;
#193 = DIRECTION ( 'NONE',  ( 0.000000000000000000, 0.000000000000000000, 1.000000000000000000 ) ) ;
#194 = DIRECTION ( 'NONE',  ( 1.000000000000000000, 0.000000000000000000, -0.000000000000000000 ) ) ;
#195 = PRODUCT_RELATED_PRODUCT_CATEGORY ( 'detail', '', ( #152 ) ) ;
#196 = APPROVAL_ROLE ( '' ) ;
#197 = PERSON_AND_ORGANIZATION ( #159, #206 ) ;
#198 = ORIENTED_EDGE ( 'NONE', *, *, #7, .F. ) ;
#199 = CIRCLE ( 'NONE', #40, 1.100000000000000089 ) ;
#200 = EDGE_CURVE ( 'NONE', #237, #234, #31, .T. ) ;
#201 = CALENDAR_DATE ( 2026, 7, 9 ) ;
#202 = APPROVAL_ROLE ( '' ) ;
#203 = VERTEX_POINT ( 'NONE', #93 ) ;
#204 = CARTESIAN_POINT ( 'NONE',  ( 1.100000000000000089, 1.347111479062088503E-16, 0.5000000000000000000 ) ) ;
#205 = EDGE_CURVE ( 'NONE', #203, #137, #191, .T. ) ;
#206 = ORGANIZATION ( 'UNSPECIFIED', 'UNSPECIFIED', '' ) ;
#207 = CARTESIAN_POINT ( 'NONE',  ( 0.000000000000000000, 0.000000000000000000, 0.5000000000000000000 ) ) ;
#208 = ORIENTED_EDGE ( 'NONE', *, *, #28, .F. ) ;
#209 = ORIENTED_EDGE ( 'NONE', *, *, #11, .T. ) ;
#210 = EDGE_CURVE ( 'NONE', #160, #234, #185, .T. ) ;
#211 = ORIENTED_EDGE ( 'NONE', *, *, #200, .F. ) ;
#212 = LOCAL_TIME ( 22, 41, 48.00000000000000000, #35 ) ;
#213 = APPROVAL_DATE_TIME ( #215, #245 ) ;
#214 = APPROVAL_STATUS ( 'not_yet_approved' ) ;
#215 = DATE_AND_TIME ( #68, #153 ) ;
#216 = DATE_TIME_ROLE ( 'classification_date' ) ;
#217 = EDGE_CURVE ( 'NONE', #203, #100, #172, .T. ) ;
#218 = CALENDAR_DATE ( 2026, 7, 9 ) ;
#219 = COORDINATED_UNIVERSAL_TIME_OFFSET ( 6, 0, .BEHIND. ) ;
#220 = EDGE_LOOP ( 'NONE', ( #133, #161, #95, #211 ) ) ;
#221 = CC_DESIGN_PERSON_AND_ORGANIZATION_ASSIGNMENT ( #17, #70, ( #152 ) ) ;
#222 = ORIENTED_EDGE ( 'NONE', *, *, #72, .T. ) ;
#223 = DIRECTION ( 'NONE',  ( -0.000000000000000000, -0.000000000000000000, -1.000000000000000000 ) ) ;
#224 = CC_DESIGN_APPROVAL ( #236, ( #29 ) ) ;
#225 = CARTESIAN_POINT ( 'NONE',  ( 1.100000000000000089, 1.347111479062088503E-16, 0.5000000000000000000 ) ) ;
#226 = FACE_BOUND ( 'NONE', #27, .T. ) ;
#227 = AXIS2_PLACEMENT_3D ( 'NONE', #66, #246, #67 ) ;
#228 = AXIS2_PLACEMENT_3D ( 'NONE', #144, #124, #146 ) ;
#229 = CIRCLE ( 'NONE', #22, 1.100000000000000089 ) ;
#230 = CARTESIAN_POINT ( 'NONE',  ( -1.100000000000000089, 0.000000000000000000, 0.5000000000000000000 ) ) ;
#231 = CC_DESIGN_PERSON_AND_ORGANIZATION_ASSIGNMENT ( #18, #177, ( #29 ) ) ;
#232 =( NAMED_UNIT ( * ) PLANE_ANGLE_UNIT ( ) SI_UNIT ( $, .RADIAN. ) );
#233 = APPROVAL_PERSON_ORGANIZATION ( #157, #174, #202 ) ;
#234 = VERTEX_POINT ( 'NONE', #30 ) ;
#235 = AXIS2_PLACEMENT_3D ( 'NONE', #242, #64, #143 ) ;
#236 = APPROVAL ( #1, 'UNSPECIFIED' ) ;
#237 = VERTEX_POINT ( 'NONE', #131 ) ;
#238 = AXIS2_PLACEMENT_3D ( 'NONE', #59, #9, #42 ) ;
#239 = DIRECTION ( 'NONE',  ( -0.000000000000000000, -0.000000000000000000, -1.000000000000000000 ) ) ;
#240 = CC_DESIGN_DATE_AND_TIME_ASSIGNMENT ( #135, #113, ( #32 ) ) ;
#241 = LINE ( 'NONE', #204, #150 ) ;
#242 = CARTESIAN_POINT ( 'NONE',  ( 0.000000000000000000, 0.000000000000000000, 0.5000000000000000000 ) ) ;
#243 = CARTESIAN_POINT ( 'NONE',  ( 2.500000000000000000, 3.061616997868383141E-16, 0.5000000000000000000 ) ) ;
#244 = DIRECTION ( 'NONE',  ( 1.000000000000000000, 0.000000000000000000, -0.000000000000000000 ) ) ;
#245 = APPROVAL ( #214, 'UNSPECIFIED' ) ;
#246 = DIRECTION ( 'NONE',  ( -0.000000000000000000, -0.000000000000000000, -1.000000000000000000 ) ) ;
#247 = DIRECTION ( 'NONE',  ( 0.000000000000000000, 0.000000000000000000, 1.000000000000000000 ) ) ;
#248 = APPROVAL_DATE_TIME ( #155, #174 ) ;
#249 = EDGE_LOOP ( 'NONE', ( #198, #53, #76, #222 ) ) ;
ENDSEC;
END-ISO-10303-21;
