ISO-10303-21;
HEADER;
FILE_DESCRIPTION (( 'STEP AP203' ),
    '1' );
FILE_NAME ('HW-W_M2.5_washer_0p5_ENVELOPE.step',
    '2026-09-08T04:30:43',
    ( '' ),
    ( '' ),
    'SwSTEP 2.0',
    'SolidWorks 2026',
    '' );
FILE_SCHEMA (( 'CONFIG_CONTROL_DESIGN' ));
ENDSEC;

DATA;
#1 = ORIENTED_EDGE ( 'NONE', *, *, #165, .T. ) ;
#2 = CARTESIAN_POINT ( 'NONE',  ( -2.500000000000000000, 0.000000000000000000, 0.000000000000000000 ) ) ;
#3 = CC_DESIGN_PERSON_AND_ORGANIZATION_ASSIGNMENT ( #155, #227, ( #151 ) ) ;
#4 = CARTESIAN_POINT ( 'NONE',  ( 0.000000000000000000, 0.000000000000000000, 0.5000000000000000000 ) ) ;
#5 = CARTESIAN_POINT ( 'NONE',  ( 0.000000000000000000, 0.000000000000000000, 0.5000000000000000000 ) ) ;
#6 = LOCAL_TIME ( 23, 30, 43.00000000000000000, #31 ) ;
#7 = CARTESIAN_POINT ( 'NONE',  ( 1.350000000000000089, 1.653273178848926867E-16, 0.5000000000000000000 ) ) ;
#8 = PERSON_AND_ORGANIZATION ( #88, #226 ) ;
#9 = APPROVAL_ROLE ( '' ) ;
#10 = EDGE_CURVE ( 'NONE', #14, #173, #242, .T. ) ;
#11 = DATE_AND_TIME ( #108, #6 ) ;
#12 = CARTESIAN_POINT ( 'NONE',  ( -1.350000000000000089, 0.000000000000000000, 0.5000000000000000000 ) ) ;
#13 = DESIGN_CONTEXT ( 'detailed design', #136, 'design' ) ;
#14 = VERTEX_POINT ( 'NONE', #81 ) ;
#15 = ORIENTED_EDGE ( 'NONE', *, *, #103, .T. ) ;
#16 = LOCAL_TIME ( 23, 30, 43.00000000000000000, #89 ) ;
#17 = VERTEX_POINT ( 'NONE', #181 ) ;
#18 = UNCERTAINTY_MEASURE_WITH_UNIT (LENGTH_MEASURE( 1.000000000000000082E-05 ), #132, 'distance_accuracy_value', 'NONE');
#19 = EDGE_LOOP ( 'NONE', ( #230, #36, #146, #154 ) ) ;
#20 = CARTESIAN_POINT ( 'NONE',  ( 2.500000000000000000, 3.061616997868383141E-16, 0.5000000000000000000 ) ) ;
#21 =( GEOMETRIC_REPRESENTATION_CONTEXT ( 3 ) GLOBAL_UNCERTAINTY_ASSIGNED_CONTEXT ( ( #18 ) ) GLOBAL_UNIT_ASSIGNED_CONTEXT ( ( #132, #244, #50 ) ) REPRESENTATION_CONTEXT ( 'NONE', 'WORKASPACE' ) );
#22 = DIRECTION ( 'NONE',  ( -0.000000000000000000, -0.000000000000000000, -1.000000000000000000 ) ) ;
#23 = CC_DESIGN_PERSON_AND_ORGANIZATION_ASSIGNMENT ( #243, #29, ( #247 ) ) ;
#24 = DIRECTION ( 'NONE',  ( 1.000000000000000000, 0.000000000000000000, 0.000000000000000000 ) ) ;
#25 = EDGE_LOOP ( 'NONE', ( #117, #126, #97, #153 ) ) ;
#26 = EDGE_CURVE ( 'NONE', #228, #231, #102, .T. ) ;
#27 = DIRECTION ( 'NONE',  ( 0.000000000000000000, 0.000000000000000000, 1.000000000000000000 ) ) ;
#28 = CIRCLE ( 'NONE', #215, 2.500000000000000000 ) ;
#29 = PERSON_AND_ORGANIZATION_ROLE ( 'creator' ) ;
#30 = APPROVAL_ROLE ( '' ) ;
#31 = COORDINATED_UNIVERSAL_TIME_OFFSET ( 6, 0, .BEHIND. ) ;
#32 = CARTESIAN_POINT ( 'NONE',  ( 0.000000000000000000, 0.000000000000000000, 0.5000000000000000000 ) ) ;
#33 = PLANE ( 'NONE',  #223 ) ;
#34 = PERSON_AND_ORGANIZATION ( #88, #226 ) ;
#35 = CIRCLE ( 'NONE', #220, 1.350000000000000089 ) ;
#36 = ORIENTED_EDGE ( 'NONE', *, *, #180, .T. ) ;
#37 = COORDINATED_UNIVERSAL_TIME_OFFSET ( 6, 0, .BEHIND. ) ;
#38 = SECURITY_CLASSIFICATION_LEVEL ( 'unclassified' ) ;
#39 = AXIS2_PLACEMENT_3D ( 'NONE', #240, #72, #128 ) ;
#40 = EDGE_LOOP ( 'NONE', ( #59, #114 ) ) ;
#41 = CARTESIAN_POINT ( 'NONE',  ( 0.000000000000000000, 0.000000000000000000, 0.5000000000000000000 ) ) ;
#42 = ORIENTED_EDGE ( 'NONE', *, *, #225, .T. ) ;
#43 = CYLINDRICAL_SURFACE ( 'NONE', #209, 2.500000000000000000 ) ;
#44 = AXIS2_PLACEMENT_3D ( 'NONE', #236, #105, #84 ) ;
#45 = DIRECTION ( 'NONE',  ( -0.000000000000000000, -0.000000000000000000, -1.000000000000000000 ) ) ;
#46 = VERTEX_POINT ( 'NONE', #200 ) ;
#47 = DATE_AND_TIME ( #219, #186 ) ;
#48 = LOCAL_TIME ( 23, 30, 43.00000000000000000, #116 ) ;
#49 = DIRECTION ( 'NONE',  ( 1.000000000000000000, 0.000000000000000000, -0.000000000000000000 ) ) ;
#50 =( NAMED_UNIT ( * ) SI_UNIT ( $, .STERADIAN. ) SOLID_ANGLE_UNIT ( ) );
#51 = CARTESIAN_POINT ( 'NONE',  ( 2.500000000000000000, 3.061616997868383141E-16, 0.5000000000000000000 ) ) ;
#52 = CC_DESIGN_APPROVAL ( #124, ( #247 ) ) ;
#53 = DATE_AND_TIME ( #249, #92 ) ;
#54 = APPROVAL_ROLE ( '' ) ;
#55 = APPLICATION_CONTEXT ( 'configuration controlled 3d designs of mechanical parts and assemblies' ) ;
#56 = ORIENTED_EDGE ( 'NONE', *, *, #111, .F. ) ;
#57 = CIRCLE ( 'NONE', #39, 2.500000000000000000 ) ;
#58 = PERSON_AND_ORGANIZATION_ROLE ( 'creator' ) ;
#59 = ORIENTED_EDGE ( 'NONE', *, *, #87, .T. ) ;
#60 = AXIS2_PLACEMENT_3D ( 'NONE', #125, #213, #104 ) ;
#61 = CARTESIAN_POINT ( 'NONE',  ( 0.000000000000000000, 0.000000000000000000, 0.000000000000000000 ) ) ;
#62 = FACE_OUTER_BOUND ( 'NONE', #78, .T. ) ;
#63 = CARTESIAN_POINT ( 'NONE',  ( -2.500000000000000000, 0.000000000000000000, 0.5000000000000000000 ) ) ;
#64 = CARTESIAN_POINT ( 'NONE',  ( 0.000000000000000000, 0.000000000000000000, 0.5000000000000000000 ) ) ;
#65 = DIRECTION ( 'NONE',  ( 0.000000000000000000, 0.000000000000000000, 1.000000000000000000 ) ) ;
#66 = PERSON_AND_ORGANIZATION_ROLE ( 'design_owner' ) ;
#67 = PERSON_AND_ORGANIZATION ( #88, #226 ) ;
#68 = AXIS2_PLACEMENT_3D ( 'NONE', #41, #27, #237 ) ;
#69 = CIRCLE ( 'NONE', #68, 2.500000000000000000 ) ;
#70 = CARTESIAN_POINT ( 'NONE',  ( 0.000000000000000000, 0.000000000000000000, 0.000000000000000000 ) ) ;
#71 = ADVANCED_FACE ( 'NONE', ( #100 ), #162, .F. ) ;
#72 = DIRECTION ( 'NONE',  ( 0.000000000000000000, 0.000000000000000000, 1.000000000000000000 ) ) ;
#73 = CC_DESIGN_DATE_AND_TIME_ASSIGNMENT ( #11, #184, ( #247 ) ) ;
#74 = APPROVAL_PERSON_ORGANIZATION ( #229, #168, #54 ) ;
#75 = VECTOR ( 'NONE', #192, 1000.000000000000000 ) ;
#76 = ORIENTED_EDGE ( 'NONE', *, *, #95, .F. ) ;
#77 = APPROVAL_DATE_TIME ( #93, #143 ) ;
#78 = EDGE_LOOP ( 'NONE', ( #76, #80, #246, #245 ) ) ;
#79 = ADVANCED_FACE ( 'NONE', ( #62 ), #43, .T. ) ;
#80 = ORIENTED_EDGE ( 'NONE', *, *, #26, .T. ) ;
#81 = CARTESIAN_POINT ( 'NONE',  ( -1.350000000000000089, 0.000000000000000000, 0.5000000000000000000 ) ) ;
#82 = DIRECTION ( 'NONE',  ( -0.000000000000000000, -0.000000000000000000, -1.000000000000000000 ) ) ;
#83 = CARTESIAN_POINT ( 'NONE',  ( 1.350000000000000089, 1.653273178848926867E-16, 0.5000000000000000000 ) ) ;
#84 = DIRECTION ( 'NONE',  ( 1.000000000000000000, 0.000000000000000000, 0.000000000000000000 ) ) ;
#85 = CLOSED_SHELL ( 'NONE', ( #120, #79, #198, #138, #202, #71 ) ) ;
#86 = APPROVAL_STATUS ( 'not_yet_approved' ) ;
#87 = EDGE_CURVE ( 'NONE', #46, #228, #69, .T. ) ;
#88 = PERSON ( 'UNSPECIFIED', 'UNSPECIFIED', 'UNSPECIFIED', ('UNSPECIFIED'), ('UNSPECIFIED'), ('UNSPECIFIED') ) ;
#89 = COORDINATED_UNIVERSAL_TIME_OFFSET ( 6, 0, .BEHIND. ) ;
#90 = CIRCLE ( 'NONE', #110, 1.350000000000000089 ) ;
#91 = COORDINATED_UNIVERSAL_TIME_OFFSET ( 6, 0, .BEHIND. ) ;
#92 = LOCAL_TIME ( 23, 30, 43.00000000000000000, #37 ) ;
#93 = DATE_AND_TIME ( #167, #16 ) ;
#94 = DATE_AND_TIME ( #118, #48 ) ;
#95 = EDGE_CURVE ( 'NONE', #228, #46, #106, .T. ) ;
#96 = ORIENTED_EDGE ( 'NONE', *, *, #225, .F. ) ;
#97 = ORIENTED_EDGE ( 'NONE', *, *, #239, .T. ) ;
#98 = AXIS2_PLACEMENT_3D ( 'NONE', #70, #148, #188 ) ;
#99 = ORIENTED_EDGE ( 'NONE', *, *, #158, .T. ) ;
#100 = FACE_OUTER_BOUND ( 'NONE', #25, .T. ) ;
#101 = AXIS2_PLACEMENT_3D ( 'NONE', #160, #212, #144 ) ;
#102 = LINE ( 'NONE', #20, #75 ) ;
#103 = EDGE_CURVE ( 'NONE', #17, #191, #90, .T. ) ;
#104 = DIRECTION ( 'NONE',  ( 1.000000000000000000, 0.000000000000000000, -0.000000000000000000 ) ) ;
#105 = DIRECTION ( 'NONE',  ( 0.000000000000000000, 0.000000000000000000, 1.000000000000000000 ) ) ;
#106 = CIRCLE ( 'NONE', #176, 2.500000000000000000 ) ;
#107 = DIRECTION ( 'NONE',  ( -1.000000000000000000, 0.000000000000000000, 0.000000000000000000 ) ) ;
#108 = CALENDAR_DATE ( 2026, 7, 9 ) ;
#109 = CARTESIAN_POINT ( 'NONE',  ( 2.500000000000000000, 3.061616997868383141E-16, 0.000000000000000000 ) ) ;
#110 = AXIS2_PLACEMENT_3D ( 'NONE', #61, #123, #194 ) ;
#111 = EDGE_CURVE ( 'NONE', #231, #156, #28, .T. ) ;
#112 = DIRECTION ( 'NONE',  ( -1.000000000000000000, 0.000000000000000000, 0.000000000000000000 ) ) ;
#113 = PERSON_AND_ORGANIZATION_ROLE ( 'classification_officer' ) ;
#114 = ORIENTED_EDGE ( 'NONE', *, *, #95, .T. ) ;
#115 = VECTOR ( 'NONE', #82, 1000.000000000000000 ) ;
#116 = COORDINATED_UNIVERSAL_TIME_OFFSET ( 6, 0, .BEHIND. ) ;
#117 = ORIENTED_EDGE ( 'NONE', *, *, #180, .F. ) ;
#118 = CALENDAR_DATE ( 2026, 7, 9 ) ;
#119 = ORIENTED_EDGE ( 'NONE', *, *, #10, .F. ) ;
#120 = ADVANCED_FACE ( 'NONE', ( #197 ), #235, .F. ) ;
#121 = EDGE_LOOP ( 'NONE', ( #119, #211 ) ) ;
#122 = EDGE_LOOP ( 'NONE', ( #1, #15 ) ) ;
#123 = DIRECTION ( 'NONE',  ( 0.000000000000000000, 0.000000000000000000, 1.000000000000000000 ) ) ;
#124 = APPROVAL ( #169, 'UNSPECIFIED' ) ;
#125 = CARTESIAN_POINT ( 'NONE',  ( 0.000000000000000000, 0.000000000000000000, 0.000000000000000000 ) ) ;
#126 = ORIENTED_EDGE ( 'NONE', *, *, #222, .T. ) ;
#127 = ORIENTED_EDGE ( 'NONE', *, *, #26, .F. ) ;
#128 = DIRECTION ( 'NONE',  ( 1.000000000000000000, 0.000000000000000000, 0.000000000000000000 ) ) ;
#129 = PERSON_AND_ORGANIZATION ( #88, #226 ) ;
#130 = LINE ( 'NONE', #12, #241 ) ;
#131 = APPROVAL_PERSON_ORGANIZATION ( #8, #143, #30 ) ;
#132 =( LENGTH_UNIT ( ) NAMED_UNIT ( * ) SI_UNIT ( .MILLI., .METRE. ) );
#133 = SHAPE_DEFINITION_REPRESENTATION ( #216, #224 ) ;
#134 = APPROVAL_DATE_TIME ( #94, #168 ) ;
#135 = VECTOR ( 'NONE', #145, 1000.000000000000000 ) ;
#136 = APPLICATION_CONTEXT ( 'configuration controlled 3d designs of mechanical parts and assemblies' ) ;
#137 = PERSON_AND_ORGANIZATION ( #88, #226 ) ;
#138 = ADVANCED_FACE ( 'NONE', ( #218, #159 ), #141, .F. ) ;
#139 = APPROVAL_PERSON_ORGANIZATION ( #129, #124, #9 ) ;
#140 = CARTESIAN_POINT ( 'NONE',  ( 0.000000000000000000, 0.000000000000000000, 0.5000000000000000000 ) ) ;
#141 = PLANE ( 'NONE',  #60 ) ;
#142 = PRODUCT ( 'HW-W_M2.5_washer_0p5_ENVELOPE', 'HW-W_M2.5_washer_0p5_ENVELOPE', '', ( #163 ) ) ;
#143 = APPROVAL ( #86, 'UNSPECIFIED' ) ;
#144 = DIRECTION ( 'NONE',  ( 1.000000000000000000, 0.000000000000000000, 0.000000000000000000 ) ) ;
#145 = DIRECTION ( 'NONE',  ( -0.000000000000000000, -0.000000000000000000, -1.000000000000000000 ) ) ;
#146 = ORIENTED_EDGE ( 'NONE', *, *, #165, .F. ) ;
#147 = APPLICATION_PROTOCOL_DEFINITION ( 'international standard', 'config_control_design', 1994, #136 ) ;
#148 = DIRECTION ( 'NONE',  ( 0.000000000000000000, 0.000000000000000000, 1.000000000000000000 ) ) ;
#149 = DIRECTION ( 'NONE',  ( -0.000000000000000000, -0.000000000000000000, -1.000000000000000000 ) ) ;
#150 = DIRECTION ( 'NONE',  ( 1.000000000000000000, 0.000000000000000000, 0.000000000000000000 ) ) ;
#151 = PRODUCT_DEFINITION_FORMATION_WITH_SPECIFIED_SOURCE ( 'ANY', '', #142, .NOT_KNOWN. ) ;
#152 = DATE_TIME_ROLE ( 'classification_date' ) ;
#153 = ORIENTED_EDGE ( 'NONE', *, *, #103, .F. ) ;
#154 = ORIENTED_EDGE ( 'NONE', *, *, #239, .F. ) ;
#155 = PERSON_AND_ORGANIZATION ( #88, #226 ) ;
#156 = VERTEX_POINT ( 'NONE', #2 ) ;
#157 = CARTESIAN_POINT ( 'NONE',  ( -1.350000000000000089, 0.000000000000000000, 0.000000000000000000 ) ) ;
#158 = EDGE_CURVE ( 'NONE', #46, #156, #179, .T. ) ;
#159 = FACE_BOUND ( 'NONE', #122, .T. ) ;
#160 = CARTESIAN_POINT ( 'NONE',  ( 0.000000000000000000, 0.000000000000000000, 0.000000000000000000 ) ) ;
#161 = DIRECTION ( 'NONE',  ( -0.000000000000000000, -0.000000000000000000, -1.000000000000000000 ) ) ;
#162 = CYLINDRICAL_SURFACE ( 'NONE', #187, 1.350000000000000089 ) ;
#163 = MECHANICAL_CONTEXT ( 'NONE', #55, 'mechanical' ) ;
#164 = CARTESIAN_POINT ( 'NONE',  ( 0.000000000000000000, 0.000000000000000000, 0.5000000000000000000 ) ) ;
#165 = EDGE_CURVE ( 'NONE', #191, #17, #195, .T. ) ;
#166 = AXIS2_PLACEMENT_3D ( 'NONE', #164, #149, #112 ) ;
#167 = CALENDAR_DATE ( 2026, 7, 9 ) ;
#168 = APPROVAL ( #248, 'UNSPECIFIED' ) ;
#169 = APPROVAL_STATUS ( 'not_yet_approved' ) ;
#170 = DIRECTION ( 'NONE',  ( 0.000000000000000000, 0.000000000000000000, 1.000000000000000000 ) ) ;
#171 = CC_DESIGN_APPROVAL ( #143, ( #151 ) ) ;
#172 = CC_DESIGN_PERSON_AND_ORGANIZATION_ASSIGNMENT ( #34, #58, ( #151 ) ) ;
#173 = VERTEX_POINT ( 'NONE', #7 ) ;
#174 = EDGE_LOOP ( 'NONE', ( #96, #56 ) ) ;
#175 = CARTESIAN_POINT ( 'NONE',  ( 0.000000000000000000, 0.000000000000000000, 0.000000000000000000 ) ) ;
#176 = AXIS2_PLACEMENT_3D ( 'NONE', #5, #65, #24 ) ;
#177 = CC_DESIGN_PERSON_AND_ORGANIZATION_ASSIGNMENT ( #67, #66, ( #142 ) ) ;
#178 = DIRECTION ( 'NONE',  ( -1.000000000000000000, 0.000000000000000000, 0.000000000000000000 ) ) ;
#179 = LINE ( 'NONE', #63, #115 ) ;
#180 = EDGE_CURVE ( 'NONE', #173, #17, #214, .T. ) ;
#181 = CARTESIAN_POINT ( 'NONE',  ( 1.350000000000000089, 1.653273178848926867E-16, 0.000000000000000000 ) ) ;
#182 = SECURITY_CLASSIFICATION ( '', '', #38 ) ;
#183 = DIRECTION ( 'NONE',  ( 1.000000000000000000, 0.000000000000000000, 0.000000000000000000 ) ) ;
#184 = DATE_TIME_ROLE ( 'creation_date' ) ;
#185 = DIRECTION ( 'NONE',  ( -0.000000000000000000, -0.000000000000000000, -1.000000000000000000 ) ) ;
#186 = LOCAL_TIME ( 23, 30, 43.00000000000000000, #91 ) ;
#187 = AXIS2_PLACEMENT_3D ( 'NONE', #4, #161, #178 ) ;
#188 = DIRECTION ( 'NONE',  ( 1.000000000000000000, 0.000000000000000000, 0.000000000000000000 ) ) ;
#189 = CC_DESIGN_SECURITY_CLASSIFICATION ( #182, ( #151 ) ) ;
#190 = EDGE_LOOP ( 'NONE', ( #127, #208, #99, #42 ) ) ;
#191 = VERTEX_POINT ( 'NONE', #157 ) ;
#192 = DIRECTION ( 'NONE',  ( -0.000000000000000000, -0.000000000000000000, -1.000000000000000000 ) ) ;
#193 = PRODUCT_RELATED_PRODUCT_CATEGORY ( 'detail', '', ( #142 ) ) ;
#194 = DIRECTION ( 'NONE',  ( 1.000000000000000000, 0.000000000000000000, 0.000000000000000000 ) ) ;
#195 = CIRCLE ( 'NONE', #101, 1.350000000000000089 ) ;
#196 = MANIFOLD_SOLID_BREP ( 'Washer', #85 ) ;
#197 = FACE_OUTER_BOUND ( 'NONE', #19, .T. ) ;
#198 = ADVANCED_FACE ( 'NONE', ( #217, #233 ), #33, .T. ) ;
#199 = DIRECTION ( 'NONE',  ( -1.000000000000000000, 0.000000000000000000, 0.000000000000000000 ) ) ;
#200 = CARTESIAN_POINT ( 'NONE',  ( -2.500000000000000000, 0.000000000000000000, 0.5000000000000000000 ) ) ;
#201 = APPROVAL_DATE_TIME ( #47, #124 ) ;
#202 = ADVANCED_FACE ( 'NONE', ( #238 ), #205, .T. ) ;
#203 = DIRECTION ( 'NONE',  ( 0.000000000000000000, 0.000000000000000000, 1.000000000000000000 ) ) ;
#204 = APPLICATION_PROTOCOL_DEFINITION ( 'international standard', 'config_control_design', 1994, #55 ) ;
#205 = CYLINDRICAL_SURFACE ( 'NONE', #166, 2.500000000000000000 ) ;
#206 = CC_DESIGN_APPROVAL ( #168, ( #182 ) ) ;
#207 = AXIS2_PLACEMENT_3D ( 'NONE', #64, #22, #107 ) ;
#208 = ORIENTED_EDGE ( 'NONE', *, *, #87, .F. ) ;
#209 = AXIS2_PLACEMENT_3D ( 'NONE', #140, #45, #199 ) ;
#210 = CC_DESIGN_DATE_AND_TIME_ASSIGNMENT ( #53, #152, ( #182 ) ) ;
#211 = ORIENTED_EDGE ( 'NONE', *, *, #222, .F. ) ;
#212 = DIRECTION ( 'NONE',  ( 0.000000000000000000, 0.000000000000000000, 1.000000000000000000 ) ) ;
#213 = DIRECTION ( 'NONE',  ( 0.000000000000000000, 0.000000000000000000, 1.000000000000000000 ) ) ;
#214 = LINE ( 'NONE', #83, #135 ) ;
#215 = AXIS2_PLACEMENT_3D ( 'NONE', #175, #234, #183 ) ;
#216 = PRODUCT_DEFINITION_SHAPE ( 'NONE', 'NONE',  #247 ) ;
#217 = FACE_OUTER_BOUND ( 'NONE', #40, .T. ) ;
#218 = FACE_OUTER_BOUND ( 'NONE', #174, .T. ) ;
#219 = CALENDAR_DATE ( 2026, 7, 9 ) ;
#220 = AXIS2_PLACEMENT_3D ( 'NONE', #221, #203, #150 ) ;
#221 = CARTESIAN_POINT ( 'NONE',  ( 0.000000000000000000, 0.000000000000000000, 0.5000000000000000000 ) ) ;
#222 = EDGE_CURVE ( 'NONE', #173, #14, #35, .T. ) ;
#223 = AXIS2_PLACEMENT_3D ( 'NONE', #32, #170, #49 ) ;
#224 = ADVANCED_BREP_SHAPE_REPRESENTATION ( 'HW-W_M2.5_washer_0p5_ENVELOPE', ( #196, #98 ), #21 ) ;
#225 = EDGE_CURVE ( 'NONE', #156, #231, #57, .T. ) ;
#226 = ORGANIZATION ( 'UNSPECIFIED', 'UNSPECIFIED', '' ) ;
#227 = PERSON_AND_ORGANIZATION_ROLE ( 'design_supplier' ) ;
#228 = VERTEX_POINT ( 'NONE', #51 ) ;
#229 = PERSON_AND_ORGANIZATION ( #88, #226 ) ;
#230 = ORIENTED_EDGE ( 'NONE', *, *, #10, .T. ) ;
#231 = VERTEX_POINT ( 'NONE', #109 ) ;
#232 = CC_DESIGN_PERSON_AND_ORGANIZATION_ASSIGNMENT ( #137, #113, ( #182 ) ) ;
#233 = FACE_BOUND ( 'NONE', #121, .T. ) ;
#234 = DIRECTION ( 'NONE',  ( 0.000000000000000000, 0.000000000000000000, 1.000000000000000000 ) ) ;
#235 = CYLINDRICAL_SURFACE ( 'NONE', #207, 1.350000000000000089 ) ;
#236 = CARTESIAN_POINT ( 'NONE',  ( 0.000000000000000000, 0.000000000000000000, 0.5000000000000000000 ) ) ;
#237 = DIRECTION ( 'NONE',  ( 1.000000000000000000, 0.000000000000000000, 0.000000000000000000 ) ) ;
#238 = FACE_OUTER_BOUND ( 'NONE', #190, .T. ) ;
#239 = EDGE_CURVE ( 'NONE', #14, #191, #130, .T. ) ;
#240 = CARTESIAN_POINT ( 'NONE',  ( 0.000000000000000000, 0.000000000000000000, 0.000000000000000000 ) ) ;
#241 = VECTOR ( 'NONE', #185, 1000.000000000000000 ) ;
#242 = CIRCLE ( 'NONE', #44, 1.350000000000000089 ) ;
#243 = PERSON_AND_ORGANIZATION ( #88, #226 ) ;
#244 =( NAMED_UNIT ( * ) PLANE_ANGLE_UNIT ( ) SI_UNIT ( $, .RADIAN. ) );
#245 = ORIENTED_EDGE ( 'NONE', *, *, #158, .F. ) ;
#246 = ORIENTED_EDGE ( 'NONE', *, *, #111, .T. ) ;
#247 = PRODUCT_DEFINITION ( 'UNKNOWN', '', #151, #13 ) ;
#248 = APPROVAL_STATUS ( 'not_yet_approved' ) ;
#249 = CALENDAR_DATE ( 2026, 7, 9 ) ;
ENDSEC;
END-ISO-10303-21;
