ISO-10303-21;
HEADER;
FILE_DESCRIPTION (( 'STEP AP203' ),
    '1' );
FILE_NAME ('HW-W_M3_washer_0p5_ENVELOPE.step',
    '2026-09-08T04:02:00',
    ( '' ),
    ( '' ),
    'SwSTEP 2.0',
    'SolidWorks 2026',
    '' );
FILE_SCHEMA (( 'CONFIG_CONTROL_DESIGN' ));
ENDSEC;

DATA;
#1 = CARTESIAN_POINT ( 'NONE',  ( 0.000000000000000000, 0.000000000000000000, 0.5000000000000000000 ) ) ;
#2 = AXIS2_PLACEMENT_3D ( 'NONE', #152, #236, #41 ) ;
#3 = CARTESIAN_POINT ( 'NONE',  ( 0.000000000000000000, 0.000000000000000000, 0.5000000000000000000 ) ) ;
#4 = ORIENTED_EDGE ( 'NONE', *, *, #77, .F. ) ;
#5 = EDGE_LOOP ( 'NONE', ( #213, #219, #12, #4 ) ) ;
#6 = CC_DESIGN_APPROVAL ( #25, ( #206 ) ) ;
#7 = DIRECTION ( 'NONE',  ( -0.000000000000000000, -0.000000000000000000, -1.000000000000000000 ) ) ;
#8 = CIRCLE ( 'NONE', #229, 1.600000000000000089 ) ;
#9 = DESIGN_CONTEXT ( 'detailed design', #214, 'design' ) ;
#10 = VERTEX_POINT ( 'NONE', #134 ) ;
#11 = DIRECTION ( 'NONE',  ( 0.000000000000000000, 0.000000000000000000, 1.000000000000000000 ) ) ;
#12 = ORIENTED_EDGE ( 'NONE', *, *, #15, .T. ) ;
#13 = CIRCLE ( 'NONE', #148, 3.000000000000000000 ) ;
#14 = PERSON_AND_ORGANIZATION_ROLE ( 'design_supplier' ) ;
#15 = EDGE_CURVE ( 'NONE', #160, #126, #215, .T. ) ;
#16 = SHAPE_DEFINITION_REPRESENTATION ( #223, #197 ) ;
#17 = APPROVAL_ROLE ( '' ) ;
#18 = CIRCLE ( 'NONE', #78, 1.600000000000000089 ) ;
#19 = PLANE ( 'NONE',  #116 ) ;
#20 = AXIS2_PLACEMENT_3D ( 'NONE', #1, #237, #137 ) ;
#21 = CARTESIAN_POINT ( 'NONE',  ( 0.000000000000000000, 0.000000000000000000, 0.000000000000000000 ) ) ;
#22 = EDGE_LOOP ( 'NONE', ( #108, #115 ) ) ;
#23 = CYLINDRICAL_SURFACE ( 'NONE', #159, 3.000000000000000000 ) ;
#24 = EDGE_LOOP ( 'NONE', ( #62, #34, #202, #204 ) ) ;
#25 = APPROVAL ( #144, 'UNSPECIFIED' ) ;
#26 = CARTESIAN_POINT ( 'NONE',  ( 0.000000000000000000, 0.000000000000000000, 0.000000000000000000 ) ) ;
#27 = ORIENTED_EDGE ( 'NONE', *, *, #172, .F. ) ;
#28 = PERSON_AND_ORGANIZATION ( #248, #164 ) ;
#29 = LINE ( 'NONE', #163, #188 ) ;
#30 =( NAMED_UNIT ( * ) SI_UNIT ( $, .STERADIAN. ) SOLID_ANGLE_UNIT ( ) );
#31 = ORIENTED_EDGE ( 'NONE', *, *, #132, .T. ) ;
#32 = CARTESIAN_POINT ( 'NONE',  ( 0.000000000000000000, 0.000000000000000000, 0.5000000000000000000 ) ) ;
#33 = PRODUCT ( 'HW-W_M3_washer_0p5_ENVELOPE', 'HW-W_M3_washer_0p5_ENVELOPE', '', ( #227 ) ) ;
#34 = ORIENTED_EDGE ( 'NONE', *, *, #194, .T. ) ;
#35 = CARTESIAN_POINT ( 'NONE',  ( -3.000000000000000000, 0.000000000000000000, 0.5000000000000000000 ) ) ;
#36 = EDGE_CURVE ( 'NONE', #126, #10, #18, .T. ) ;
#37 = CALENDAR_DATE ( 2026, 7, 9 ) ;
#38 = ADVANCED_FACE ( 'NONE', ( #173 ), #98, .F. ) ;
#39 = PERSON_AND_ORGANIZATION ( #248, #164 ) ;
#40 = ORIENTED_EDGE ( 'NONE', *, *, #245, .T. ) ;
#41 = DIRECTION ( 'NONE',  ( -1.000000000000000000, 0.000000000000000000, 0.000000000000000000 ) ) ;
#42 = CC_DESIGN_PERSON_AND_ORGANIZATION_ASSIGNMENT ( #113, #14, ( #206 ) ) ;
#43 = DIRECTION ( 'NONE',  ( 1.000000000000000000, 0.000000000000000000, 0.000000000000000000 ) ) ;
#44 = FACE_OUTER_BOUND ( 'NONE', #216, .T. ) ;
#45 = EDGE_LOOP ( 'NONE', ( #27, #203 ) ) ;
#46 = VECTOR ( 'NONE', #100, 1000.000000000000000 ) ;
#47 = CYLINDRICAL_SURFACE ( 'NONE', #76, 1.600000000000000089 ) ;
#48 = LOCAL_TIME ( 23, 2, 0.000000000000000000, #146 ) ;
#49 = ORIENTED_EDGE ( 'NONE', *, *, #133, .F. ) ;
#50 = APPROVAL_STATUS ( 'not_yet_approved' ) ;
#51 = CARTESIAN_POINT ( 'NONE',  ( 0.000000000000000000, 0.000000000000000000, 0.5000000000000000000 ) ) ;
#52 = DIRECTION ( 'NONE',  ( 1.000000000000000000, 0.000000000000000000, -0.000000000000000000 ) ) ;
#53 = APPROVAL_PERSON_ORGANIZATION ( #222, #119, #97 ) ;
#54 = CIRCLE ( 'NONE', #117, 3.000000000000000000 ) ;
#55 = PERSON_AND_ORGANIZATION_ROLE ( 'creator' ) ;
#56 = DATE_AND_TIME ( #37, #48 ) ;
#57 = DIRECTION ( 'NONE',  ( -0.000000000000000000, -0.000000000000000000, -1.000000000000000000 ) ) ;
#58 = DIRECTION ( 'NONE',  ( 1.000000000000000000, 0.000000000000000000, 0.000000000000000000 ) ) ;
#59 = EDGE_LOOP ( 'NONE', ( #92, #84 ) ) ;
#60 = DIRECTION ( 'NONE',  ( -1.000000000000000000, 0.000000000000000000, 0.000000000000000000 ) ) ;
#61 = CARTESIAN_POINT ( 'NONE',  ( 3.000000000000000000, 3.673940397442059868E-16, 0.5000000000000000000 ) ) ;
#62 = ORIENTED_EDGE ( 'NONE', *, *, #70, .F. ) ;
#63 = DIRECTION ( 'NONE',  ( 0.000000000000000000, 0.000000000000000000, 1.000000000000000000 ) ) ;
#64 = CC_DESIGN_SECURITY_CLASSIFICATION ( #158, ( #206 ) ) ;
#65 = EDGE_CURVE ( 'NONE', #69, #239, #99, .T. ) ;
#66 = DIRECTION ( 'NONE',  ( 1.000000000000000000, 0.000000000000000000, 0.000000000000000000 ) ) ;
#67 = CARTESIAN_POINT ( 'NONE',  ( -3.000000000000000000, 0.000000000000000000, 0.000000000000000000 ) ) ;
#68 = LOCAL_TIME ( 23, 2, 0.000000000000000000, #71 ) ;
#69 = VERTEX_POINT ( 'NONE', #154 ) ;
#70 = EDGE_CURVE ( 'NONE', #207, #79, #242, .T. ) ;
#71 = COORDINATED_UNIVERSAL_TIME_OFFSET ( 6, 0, .BEHIND. ) ;
#72 = AXIS2_PLACEMENT_3D ( 'NONE', #128, #220, #66 ) ;
#73 = APPROVAL_ROLE ( '' ) ;
#74 = CC_DESIGN_PERSON_AND_ORGANIZATION_ASSIGNMENT ( #110, #166, ( #221 ) ) ;
#75 = CALENDAR_DATE ( 2026, 7, 9 ) ;
#76 = AXIS2_PLACEMENT_3D ( 'NONE', #32, #241, #205 ) ;
#77 = EDGE_CURVE ( 'NONE', #10, #126, #8, .T. ) ;
#78 = AXIS2_PLACEMENT_3D ( 'NONE', #26, #170, #43 ) ;
#79 = VERTEX_POINT ( 'NONE', #138 ) ;
#80 = DIRECTION ( 'NONE',  ( 0.000000000000000000, 0.000000000000000000, 1.000000000000000000 ) ) ;
#81 = CARTESIAN_POINT ( 'NONE',  ( -1.600000000000000089, 0.000000000000000000, 0.5000000000000000000 ) ) ;
#82 = LOCAL_TIME ( 23, 2, 0.000000000000000000, #246 ) ;
#83 = DIRECTION ( 'NONE',  ( 1.000000000000000000, 0.000000000000000000, 0.000000000000000000 ) ) ;
#84 = ORIENTED_EDGE ( 'NONE', *, *, #65, .F. ) ;
#85 = ORIENTED_EDGE ( 'NONE', *, *, #70, .T. ) ;
#86 = DIRECTION ( 'NONE',  ( 0.000000000000000000, 0.000000000000000000, 1.000000000000000000 ) ) ;
#87 = CC_DESIGN_PERSON_AND_ORGANIZATION_ASSIGNMENT ( #28, #105, ( #33 ) ) ;
#88 = CIRCLE ( 'NONE', #72, 1.600000000000000089 ) ;
#89 = DIRECTION ( 'NONE',  ( -0.000000000000000000, -0.000000000000000000, -1.000000000000000000 ) ) ;
#90 = AXIS2_PLACEMENT_3D ( 'NONE', #182, #86, #52 ) ;
#91 = FACE_OUTER_BOUND ( 'NONE', #104, .T. ) ;
#92 = ORIENTED_EDGE ( 'NONE', *, *, #210, .F. ) ;
#93 =( LENGTH_UNIT ( ) NAMED_UNIT ( * ) SI_UNIT ( .MILLI., .METRE. ) );
#94 = CC_DESIGN_APPROVAL ( #119, ( #221 ) ) ;
#95 = DATE_TIME_ROLE ( 'creation_date' ) ;
#96 = COORDINATED_UNIVERSAL_TIME_OFFSET ( 6, 0, .BEHIND. ) ;
#97 = APPROVAL_ROLE ( '' ) ;
#98 = CYLINDRICAL_SURFACE ( 'NONE', #2, 1.600000000000000089 ) ;
#99 = CIRCLE ( 'NONE', #131, 3.000000000000000000 ) ;
#100 = DIRECTION ( 'NONE',  ( -0.000000000000000000, -0.000000000000000000, -1.000000000000000000 ) ) ;
#101 = DIRECTION ( 'NONE',  ( 0.000000000000000000, 0.000000000000000000, 1.000000000000000000 ) ) ;
#102 = CC_DESIGN_APPROVAL ( #196, ( #158 ) ) ;
#103 = DIRECTION ( 'NONE',  ( 0.000000000000000000, 0.000000000000000000, 1.000000000000000000 ) ) ;
#104 = EDGE_LOOP ( 'NONE', ( #201, #85 ) ) ;
#105 = PERSON_AND_ORGANIZATION_ROLE ( 'design_owner' ) ;
#106 = DIRECTION ( 'NONE',  ( 1.000000000000000000, 0.000000000000000000, 0.000000000000000000 ) ) ;
#107 = CARTESIAN_POINT ( 'NONE',  ( 1.600000000000000089, 1.959434878635765230E-16, 0.5000000000000000000 ) ) ;
#108 = ORIENTED_EDGE ( 'NONE', *, *, #36, .T. ) ;
#109 =( NAMED_UNIT ( * ) PLANE_ANGLE_UNIT ( ) SI_UNIT ( $, .RADIAN. ) );
#110 = PERSON_AND_ORGANIZATION ( #248, #164 ) ;
#111 = VECTOR ( 'NONE', #200, 1000.000000000000000 ) ;
#112 = DATE_AND_TIME ( #191, #82 ) ;
#113 = PERSON_AND_ORGANIZATION ( #248, #164 ) ;
#114 = ADVANCED_FACE ( 'NONE', ( #218, #149 ), #19, .F. ) ;
#115 = ORIENTED_EDGE ( 'NONE', *, *, #77, .T. ) ;
#116 = AXIS2_PLACEMENT_3D ( 'NONE', #136, #103, #118 ) ;
#117 = AXIS2_PLACEMENT_3D ( 'NONE', #3, #80, #151 ) ;
#118 = DIRECTION ( 'NONE',  ( 1.000000000000000000, 0.000000000000000000, -0.000000000000000000 ) ) ;
#119 = APPROVAL ( #50, 'UNSPECIFIED' ) ;
#120 = ORIENTED_EDGE ( 'NONE', *, *, #15, .F. ) ;
#121 = CARTESIAN_POINT ( 'NONE',  ( 0.000000000000000000, 0.000000000000000000, 0.5000000000000000000 ) ) ;
#122 = MANIFOLD_SOLID_BREP ( 'Washer_M3_small_series_OD6', #190 ) ;
#123 = CC_DESIGN_PERSON_AND_ORGANIZATION_ASSIGNMENT ( #143, #192, ( #158 ) ) ;
#124 = DIRECTION ( 'NONE',  ( 1.000000000000000000, 0.000000000000000000, 0.000000000000000000 ) ) ;
#125 = CARTESIAN_POINT ( 'NONE',  ( -1.600000000000000089, 0.000000000000000000, 0.5000000000000000000 ) ) ;
#126 = VERTEX_POINT ( 'NONE', #157 ) ;
#127 = CARTESIAN_POINT ( 'NONE',  ( 0.000000000000000000, 0.000000000000000000, 0.5000000000000000000 ) ) ;
#128 = CARTESIAN_POINT ( 'NONE',  ( 0.000000000000000000, 0.000000000000000000, 0.5000000000000000000 ) ) ;
#129 = DATE_AND_TIME ( #165, #68 ) ;
#130 = ADVANCED_FACE ( 'NONE', ( #44 ), #23, .T. ) ;
#131 = AXIS2_PLACEMENT_3D ( 'NONE', #21, #177, #83 ) ;
#132 = EDGE_CURVE ( 'NONE', #175, #10, #234, .T. ) ;
#133 = EDGE_CURVE ( 'NONE', #79, #207, #54, .T. ) ;
#134 = CARTESIAN_POINT ( 'NONE',  ( 1.600000000000000089, 1.959434878635765230E-16, 0.000000000000000000 ) ) ;
#135 = CARTESIAN_POINT ( 'NONE',  ( 1.600000000000000089, 1.959434878635765230E-16, 0.5000000000000000000 ) ) ;
#136 = CARTESIAN_POINT ( 'NONE',  ( 0.000000000000000000, 0.000000000000000000, 0.000000000000000000 ) ) ;
#137 = DIRECTION ( 'NONE',  ( 1.000000000000000000, 0.000000000000000000, 0.000000000000000000 ) ) ;
#138 = CARTESIAN_POINT ( 'NONE',  ( -3.000000000000000000, 0.000000000000000000, 0.5000000000000000000 ) ) ;
#139 = CARTESIAN_POINT ( 'NONE',  ( 0.000000000000000000, 0.000000000000000000, 0.000000000000000000 ) ) ;
#140 = APPLICATION_PROTOCOL_DEFINITION ( 'international standard', 'config_control_design', 1994, #214 ) ;
#141 = DIRECTION ( 'NONE',  ( -0.000000000000000000, -0.000000000000000000, -1.000000000000000000 ) ) ;
#142 = LINE ( 'NONE', #35, #226 ) ;
#143 = PERSON_AND_ORGANIZATION ( #248, #164 ) ;
#144 = APPROVAL_STATUS ( 'not_yet_approved' ) ;
#145 = APPROVAL_DATE_TIME ( #112, #25 ) ;
#146 = COORDINATED_UNIVERSAL_TIME_OFFSET ( 6, 0, .BEHIND. ) ;
#147 = APPLICATION_CONTEXT ( 'configuration controlled 3d designs of mechanical parts and assemblies' ) ;
#148 = AXIS2_PLACEMENT_3D ( 'NONE', #139, #11, #106 ) ;
#149 = FACE_BOUND ( 'NONE', #22, .T. ) ;
#150 = CC_DESIGN_DATE_AND_TIME_ASSIGNMENT ( #247, #95, ( #221 ) ) ;
#151 = DIRECTION ( 'NONE',  ( 1.000000000000000000, 0.000000000000000000, 0.000000000000000000 ) ) ;
#152 = CARTESIAN_POINT ( 'NONE',  ( 0.000000000000000000, 0.000000000000000000, 0.5000000000000000000 ) ) ;
#153 = LOCAL_TIME ( 23, 2, 0.000000000000000000, #168 ) ;
#154 = CARTESIAN_POINT ( 'NONE',  ( 3.000000000000000000, 3.673940397442059868E-16, 0.000000000000000000 ) ) ;
#155 = ORIENTED_EDGE ( 'NONE', *, *, #36, .F. ) ;
#156 = ADVANCED_FACE ( 'NONE', ( #235 ), #47, .F. ) ;
#157 = CARTESIAN_POINT ( 'NONE',  ( -1.600000000000000089, 0.000000000000000000, 0.000000000000000000 ) ) ;
#158 = SECURITY_CLASSIFICATION ( '', '', #232 ) ;
#159 = AXIS2_PLACEMENT_3D ( 'NONE', #121, #57, #60 ) ;
#160 = VERTEX_POINT ( 'NONE', #125 ) ;
#161 = ADVANCED_FACE ( 'NONE', ( #91, #224 ), #184, .T. ) ;
#162 = CYLINDRICAL_SURFACE ( 'NONE', #217, 3.000000000000000000 ) ;
#163 = CARTESIAN_POINT ( 'NONE',  ( 3.000000000000000000, 3.673940397442059868E-16, 0.5000000000000000000 ) ) ;
#164 = ORGANIZATION ( 'UNSPECIFIED', 'UNSPECIFIED', '' ) ;
#165 = CALENDAR_DATE ( 2026, 7, 9 ) ;
#166 = PERSON_AND_ORGANIZATION_ROLE ( 'creator' ) ;
#167 = UNCERTAINTY_MEASURE_WITH_UNIT (LENGTH_MEASURE( 1.000000000000000082E-05 ), #93, 'distance_accuracy_value', 'NONE');
#168 = COORDINATED_UNIVERSAL_TIME_OFFSET ( 6, 0, .BEHIND. ) ;
#169 = DATE_AND_TIME ( #75, #153 ) ;
#170 = DIRECTION ( 'NONE',  ( 0.000000000000000000, 0.000000000000000000, 1.000000000000000000 ) ) ;
#171 = APPROVAL_PERSON_ORGANIZATION ( #189, #25, #73 ) ;
#172 = EDGE_CURVE ( 'NONE', #160, #175, #199, .T. ) ;
#173 = FACE_OUTER_BOUND ( 'NONE', #5, .T. ) ;
#174 = PRODUCT_RELATED_PRODUCT_CATEGORY ( 'detail', '', ( #33 ) ) ;
#175 = VERTEX_POINT ( 'NONE', #107 ) ;
#176 =( GEOMETRIC_REPRESENTATION_CONTEXT ( 3 ) GLOBAL_UNCERTAINTY_ASSIGNED_CONTEXT ( ( #167 ) ) GLOBAL_UNIT_ASSIGNED_CONTEXT ( ( #93, #109, #30 ) ) REPRESENTATION_CONTEXT ( 'NONE', 'WORKASPACE' ) );
#177 = DIRECTION ( 'NONE',  ( 0.000000000000000000, 0.000000000000000000, 1.000000000000000000 ) ) ;
#178 = CARTESIAN_POINT ( 'NONE',  ( 0.000000000000000000, 0.000000000000000000, 0.000000000000000000 ) ) ;
#179 = FACE_OUTER_BOUND ( 'NONE', #24, .T. ) ;
#180 = ORIENTED_EDGE ( 'NONE', *, *, #172, .T. ) ;
#181 = APPROVAL_PERSON_ORGANIZATION ( #249, #196, #17 ) ;
#182 = CARTESIAN_POINT ( 'NONE',  ( 0.000000000000000000, 0.000000000000000000, 0.5000000000000000000 ) ) ;
#183 = ORIENTED_EDGE ( 'NONE', *, *, #194, .F. ) ;
#184 = PLANE ( 'NONE',  #90 ) ;
#185 = ORIENTED_EDGE ( 'NONE', *, *, #210, .T. ) ;
#186 = APPLICATION_PROTOCOL_DEFINITION ( 'international standard', 'config_control_design', 1994, #147 ) ;
#187 = CC_DESIGN_DATE_AND_TIME_ASSIGNMENT ( #129, #211, ( #158 ) ) ;
#188 = VECTOR ( 'NONE', #7, 1000.000000000000000 ) ;
#189 = PERSON_AND_ORGANIZATION ( #248, #164 ) ;
#190 = CLOSED_SHELL ( 'NONE', ( #156, #225, #161, #114, #130, #38 ) ) ;
#191 = CALENDAR_DATE ( 2026, 7, 9 ) ;
#192 = PERSON_AND_ORGANIZATION_ROLE ( 'classification_officer' ) ;
#193 = LOCAL_TIME ( 23, 2, 0.000000000000000000, #96 ) ;
#194 = EDGE_CURVE ( 'NONE', #207, #69, #29, .T. ) ;
#195 = CARTESIAN_POINT ( 'NONE',  ( 0.000000000000000000, 0.000000000000000000, 0.000000000000000000 ) ) ;
#196 = APPROVAL ( #231, 'UNSPECIFIED' ) ;
#197 = ADVANCED_BREP_SHAPE_REPRESENTATION ( 'HW-W_M3_washer_0p5_ENVELOPE', ( #122, #212 ), #176 ) ;
#198 = EDGE_LOOP ( 'NONE', ( #180, #31, #155, #120 ) ) ;
#199 = CIRCLE ( 'NONE', #230, 1.600000000000000089 ) ;
#200 = DIRECTION ( 'NONE',  ( -0.000000000000000000, -0.000000000000000000, -1.000000000000000000 ) ) ;
#201 = ORIENTED_EDGE ( 'NONE', *, *, #133, .T. ) ;
#202 = ORIENTED_EDGE ( 'NONE', *, *, #65, .T. ) ;
#203 = ORIENTED_EDGE ( 'NONE', *, *, #240, .F. ) ;
#204 = ORIENTED_EDGE ( 'NONE', *, *, #245, .F. ) ;
#205 = DIRECTION ( 'NONE',  ( -1.000000000000000000, 0.000000000000000000, 0.000000000000000000 ) ) ;
#206 = PRODUCT_DEFINITION_FORMATION_WITH_SPECIFIED_SOURCE ( 'ANY', '', #33, .NOT_KNOWN. ) ;
#207 = VERTEX_POINT ( 'NONE', #61 ) ;
#208 = DIRECTION ( 'NONE',  ( -1.000000000000000000, 0.000000000000000000, 0.000000000000000000 ) ) ;
#209 = APPROVAL_DATE_TIME ( #169, #119 ) ;
#210 = EDGE_CURVE ( 'NONE', #239, #69, #13, .T. ) ;
#211 = DATE_TIME_ROLE ( 'classification_date' ) ;
#212 = AXIS2_PLACEMENT_3D ( 'NONE', #178, #238, #124 ) ;
#213 = ORIENTED_EDGE ( 'NONE', *, *, #132, .F. ) ;
#214 = APPLICATION_CONTEXT ( 'configuration controlled 3d designs of mechanical parts and assemblies' ) ;
#215 = LINE ( 'NONE', #81, #111 ) ;
#216 = EDGE_LOOP ( 'NONE', ( #183, #49, #40, #185 ) ) ;
#217 = AXIS2_PLACEMENT_3D ( 'NONE', #51, #89, #208 ) ;
#218 = FACE_OUTER_BOUND ( 'NONE', #59, .T. ) ;
#219 = ORIENTED_EDGE ( 'NONE', *, *, #240, .T. ) ;
#220 = DIRECTION ( 'NONE',  ( 0.000000000000000000, 0.000000000000000000, 1.000000000000000000 ) ) ;
#221 = PRODUCT_DEFINITION ( 'UNKNOWN', '', #206, #9 ) ;
#222 = PERSON_AND_ORGANIZATION ( #248, #164 ) ;
#223 = PRODUCT_DEFINITION_SHAPE ( 'NONE', 'NONE',  #221 ) ;
#224 = FACE_BOUND ( 'NONE', #45, .T. ) ;
#225 = ADVANCED_FACE ( 'NONE', ( #179 ), #162, .T. ) ;
#226 = VECTOR ( 'NONE', #141, 1000.000000000000000 ) ;
#227 = MECHANICAL_CONTEXT ( 'NONE', #147, 'mechanical' ) ;
#228 = CALENDAR_DATE ( 2026, 7, 9 ) ;
#229 = AXIS2_PLACEMENT_3D ( 'NONE', #195, #101, #58 ) ;
#230 = AXIS2_PLACEMENT_3D ( 'NONE', #127, #63, #243 ) ;
#231 = APPROVAL_STATUS ( 'not_yet_approved' ) ;
#232 = SECURITY_CLASSIFICATION_LEVEL ( 'unclassified' ) ;
#233 = CC_DESIGN_PERSON_AND_ORGANIZATION_ASSIGNMENT ( #39, #55, ( #206 ) ) ;
#234 = LINE ( 'NONE', #135, #46 ) ;
#235 = FACE_OUTER_BOUND ( 'NONE', #198, .T. ) ;
#236 = DIRECTION ( 'NONE',  ( -0.000000000000000000, -0.000000000000000000, -1.000000000000000000 ) ) ;
#237 = DIRECTION ( 'NONE',  ( 0.000000000000000000, 0.000000000000000000, 1.000000000000000000 ) ) ;
#238 = DIRECTION ( 'NONE',  ( 0.000000000000000000, 0.000000000000000000, 1.000000000000000000 ) ) ;
#239 = VERTEX_POINT ( 'NONE', #67 ) ;
#240 = EDGE_CURVE ( 'NONE', #175, #160, #88, .T. ) ;
#241 = DIRECTION ( 'NONE',  ( -0.000000000000000000, -0.000000000000000000, -1.000000000000000000 ) ) ;
#242 = CIRCLE ( 'NONE', #20, 3.000000000000000000 ) ;
#243 = DIRECTION ( 'NONE',  ( 1.000000000000000000, 0.000000000000000000, 0.000000000000000000 ) ) ;
#244 = APPROVAL_DATE_TIME ( #56, #196 ) ;
#245 = EDGE_CURVE ( 'NONE', #79, #239, #142, .T. ) ;
#246 = COORDINATED_UNIVERSAL_TIME_OFFSET ( 6, 0, .BEHIND. ) ;
#247 = DATE_AND_TIME ( #228, #193 ) ;
#248 = PERSON ( 'UNSPECIFIED', 'UNSPECIFIED', 'UNSPECIFIED', ('UNSPECIFIED'), ('UNSPECIFIED'), ('UNSPECIFIED') ) ;
#249 = PERSON_AND_ORGANIZATION ( #248, #164 ) ;
ENDSEC;
END-ISO-10303-21;
