ISO-10303-21;
HEADER;
FILE_DESCRIPTION (( 'STEP AP203' ),
    '1' );
FILE_NAME ('ARM-110_Fixed_jaw_TPU_sock.step',
    '2026-09-08T04:00:53',
    ( '' ),
    ( '' ),
    'SwSTEP 2.0',
    'SolidWorks 2026',
    '' );
FILE_SCHEMA (( 'CONFIG_CONTROL_DESIGN' ));
ENDSEC;

DATA;
#1 = CIRCLE ( 'NONE', #662, 1.099999999999996758 ) ;
#2 = VECTOR ( 'NONE', #139, 1000.000000000000000 ) ;
#3 = DIRECTION ( 'NONE',  ( -1.000000000000000000, 0.000000000000000000, -0.000000000000000000 ) ) ;
#4 = CARTESIAN_POINT ( 'NONE',  ( 76.00000000000000000, -10.00000000000000000, 5.000000000000000000 ) ) ;
#5 = PERSON_AND_ORGANIZATION ( #217, #540 ) ;
#6 = EDGE_CURVE ( 'NONE', #359, #402, #650, .T. ) ;
#7 = PLANE ( 'NONE',  #240 ) ;
#8 = CARTESIAN_POINT ( 'NONE',  ( 71.89999999999999147, -13.50000000000000000, -1.000000000000000000 ) ) ;
#9 = VERTEX_POINT ( 'NONE', #131 ) ;
#10 = LINE ( 'NONE', #182, #167 ) ;
#11 = DIRECTION ( 'NONE',  ( -1.000000000000000000, 0.000000000000000000, -0.000000000000000000 ) ) ;
#12 = ORIENTED_EDGE ( 'NONE', *, *, #178, .F. ) ;
#13 = DIRECTION ( 'NONE',  ( -0.000000000000000000, -0.000000000000000000, 1.000000000000000000 ) ) ;
#14 = VECTOR ( 'NONE', #234, 1000.000000000000000 ) ;
#15 = FACE_OUTER_BOUND ( 'NONE', #230, .T. ) ;
#16 = ADVANCED_FACE ( 'NONE', ( #187 ), #395, .F. ) ;
#17 = DIRECTION ( 'NONE',  ( 0.000000000000000000, 0.000000000000000000, -1.000000000000000000 ) ) ;
#18 = EDGE_LOOP ( 'NONE', ( #239, #448, #555, #454 ) ) ;
#19 = LINE ( 'NONE', #380, #256 ) ;
#20 = DIRECTION ( 'NONE',  ( -1.000000000000000000, 0.000000000000000000, 0.000000000000000000 ) ) ;
#21 = CARTESIAN_POINT ( 'NONE',  ( 57.00000000000000000, -13.50000000000000000, 4.999999999999997335 ) ) ;
#22 = ORIENTED_EDGE ( 'NONE', *, *, #198, .T. ) ;
#23 = DIRECTION ( 'NONE',  ( 0.000000000000000000, 0.000000000000000000, -1.000000000000000000 ) ) ;
#24 = CIRCLE ( 'NONE', #137, 1.100000000000003642 ) ;
#25 = EDGE_LOOP ( 'NONE', ( #255, #594, #186, #133 ) ) ;
#26 = ORIENTED_EDGE ( 'NONE', *, *, #188, .T. ) ;
#27 = DIRECTION ( 'NONE',  ( 0.000000000000000000, 0.000000000000000000, -1.000000000000000000 ) ) ;
#28 = CC_DESIGN_APPROVAL ( #85, ( #203 ) ) ;
#29 = VERTEX_POINT ( 'NONE', #510 ) ;
#30 =( NAMED_UNIT ( * ) PLANE_ANGLE_UNIT ( ) SI_UNIT ( $, .RADIAN. ) );
#31 = ORIENTED_EDGE ( 'NONE', *, *, #150, .F. ) ;
#32 = EDGE_CURVE ( 'NONE', #502, #607, #24, .T. ) ;
#33 = CIRCLE ( 'NONE', #352, 1.099999999999996758 ) ;
#34 = CARTESIAN_POINT ( 'NONE',  ( 58.10000000000000142, -13.50000000000000000, 4.999999999999997335 ) ) ;
#35 = EDGE_LOOP ( 'NONE', ( #356, #531, #301, #91 ) ) ;
#36 = ADVANCED_FACE ( 'NONE', ( #479, #53, #576 ), #7, .F. ) ;
#37 = CARTESIAN_POINT ( 'NONE',  ( 57.00000000000000000, -13.50000000000000000, 4.999999999999997335 ) ) ;
#38 = FACE_OUTER_BOUND ( 'NONE', #18, .T. ) ;
#39 = ORIENTED_EDGE ( 'NONE', *, *, #378, .F. ) ;
#40 = AXIS2_PLACEMENT_3D ( 'NONE', #339, #59, #381 ) ;
#41 = AXIS2_PLACEMENT_3D ( 'NONE', #290, #123, #340 ) ;
#42 = EDGE_CURVE ( 'NONE', #519, #140, #463, .T. ) ;
#43 = CARTESIAN_POINT ( 'NONE',  ( 0.000000000000000000, 0.000000000000000000, 4.100000000000000533 ) ) ;
#44 = EDGE_LOOP ( 'NONE', ( #112, #559, #515, #400 ) ) ;
#45 = CARTESIAN_POINT ( 'NONE',  ( 54.00000000000000000, -10.00000000000000000, 5.000000000000000000 ) ) ;
#46 = EDGE_LOOP ( 'NONE', ( #637, #505 ) ) ;
#47 = ORIENTED_EDGE ( 'NONE', *, *, #102, .T. ) ;
#48 = CC_DESIGN_DATE_AND_TIME_ASSIGNMENT ( #364, #201, ( #203 ) ) ;
#49 = CARTESIAN_POINT ( 'NONE',  ( 57.00000000000000000, -13.50000000000000000, -1.000000000000000000 ) ) ;
#50 = DIRECTION ( 'NONE',  ( 1.000000000000000000, 0.000000000000000000, 0.000000000000000000 ) ) ;
#51 = VECTOR ( 'NONE', #625, 1000.000000000000000 ) ;
#52 = PERSON_AND_ORGANIZATION_ROLE ( 'design_owner' ) ;
#53 = FACE_BOUND ( 'NONE', #449, .T. ) ;
#54 = EDGE_CURVE ( 'NONE', #297, #76, #101, .T. ) ;
#55 = CIRCLE ( 'NONE', #609, 1.099999999999996758 ) ;
#56 = PERSON_AND_ORGANIZATION ( #217, #540 ) ;
#57 = CARTESIAN_POINT ( 'NONE',  ( 54.00000000000000000, -17.00000000000000000, 5.000000000000000000 ) ) ;
#58 = EDGE_CURVE ( 'NONE', #9, #86, #55, .T. ) ;
#59 = DIRECTION ( 'NONE',  ( -0.000000000000000000, -0.000000000000000000, 1.000000000000000000 ) ) ;
#60 = LOCAL_TIME ( 23, 0, 53.00000000000000000, #369 ) ;
#61 = DIRECTION ( 'NONE',  ( 1.000000000000000000, 0.000000000000000000, 0.000000000000000000 ) ) ;
#62 = FACE_OUTER_BOUND ( 'NONE', #116, .T. ) ;
#63 = APPROVAL_DATE_TIME ( #320, #636 ) ;
#64 = VECTOR ( 'NONE', #61, 1000.000000000000000 ) ;
#65 = CARTESIAN_POINT ( 'NONE',  ( 53.00000000000000000, -16.10000000000000142, -0.1000000000000000056 ) ) ;
#66 = EDGE_LOOP ( 'NONE', ( #658, #172 ) ) ;
#67 = DIRECTION ( 'NONE',  ( -0.000000000000000000, -0.000000000000000000, 1.000000000000000000 ) ) ;
#68 = EDGE_CURVE ( 'NONE', #180, #391, #317, .T. ) ;
#69 = EDGE_LOOP ( 'NONE', ( #569, #22, #12, #499 ) ) ;
#70 = DIRECTION ( 'NONE',  ( -1.000000000000000000, 0.000000000000000000, 0.000000000000000000 ) ) ;
#71 = LINE ( 'NONE', #493, #521 ) ;
#72 = EDGE_LOOP ( 'NONE', ( #397, #648, #265, #385 ) ) ;
#73 = CARTESIAN_POINT ( 'NONE',  ( 76.00000000000000000, -17.00000000000000000, 5.000000000000000000 ) ) ;
#74 = CARTESIAN_POINT ( 'NONE',  ( 55.90000000000000568, -13.50000000000000000, -1.000000000000000000 ) ) ;
#75 = FACE_BOUND ( 'NONE', #535, .T. ) ;
#76 = VERTEX_POINT ( 'NONE', #427 ) ;
#77 = CC_DESIGN_PERSON_AND_ORGANIZATION_ASSIGNMENT ( #468, #261, ( #203 ) ) ;
#78 = ORIENTED_EDGE ( 'NONE', *, *, #309, .T. ) ;
#79 = CARTESIAN_POINT ( 'NONE',  ( 54.00000000000000000, -10.00000000000000000, 5.000000000000000000 ) ) ;
#80 = VERTEX_POINT ( 'NONE', #373 ) ;
#81 = VECTOR ( 'NONE', #263, 1000.000000000000000 ) ;
#82 = FACE_OUTER_BOUND ( 'NONE', #44, .T. ) ;
#83 = DIRECTION ( 'NONE',  ( -1.000000000000000000, 0.000000000000000000, 0.000000000000000000 ) ) ;
#84 = VERTEX_POINT ( 'NONE', #199 ) ;
#85 = APPROVAL ( #270, 'UNSPECIFIED' ) ;
#86 = VERTEX_POINT ( 'NONE', #523 ) ;
#87 = DIRECTION ( 'NONE',  ( -0.000000000000000000, -0.000000000000000000, -1.000000000000000000 ) ) ;
#88 = VERTEX_POINT ( 'NONE', #414 ) ;
#89 = AXIS2_PLACEMENT_3D ( 'NONE', #278, #484, #335 ) ;
#90 = DIRECTION ( 'NONE',  ( 1.000000000000000000, 0.000000000000000000, 0.000000000000000000 ) ) ;
#91 = ORIENTED_EDGE ( 'NONE', *, *, #572, .T. ) ;
#92 = EDGE_CURVE ( 'NONE', #342, #410, #287, .T. ) ;
#93 = EDGE_CURVE ( 'NONE', #140, #519, #605, .T. ) ;
#94 = LINE ( 'NONE', #310, #142 ) ;
#95 = SECURITY_CLASSIFICATION ( '', '', #623 ) ;
#96 = APPLICATION_PROTOCOL_DEFINITION ( 'international standard', 'config_control_design', 1994, #321 ) ;
#97 = EDGE_CURVE ( 'NONE', #359, #326, #628, .T. ) ;
#98 = DIRECTION ( 'NONE',  ( 0.000000000000000000, 0.000000000000000000, -1.000000000000000000 ) ) ;
#99 = EDGE_LOOP ( 'NONE', ( #231, #375, #512, #330 ) ) ;
#100 = APPROVAL_STATUS ( 'not_yet_approved' ) ;
#101 = LINE ( 'NONE', #412, #64 ) ;
#102 = EDGE_CURVE ( 'NONE', #445, #402, #322, .T. ) ;
#103 = CALENDAR_DATE ( 2026, 7, 9 ) ;
#104 = CARTESIAN_POINT ( 'NONE',  ( 73.00000000000000000, -13.50000000000000000, 4.999999999999997335 ) ) ;
#105 = DIRECTION ( 'NONE',  ( -0.000000000000000000, -0.000000000000000000, 1.000000000000000000 ) ) ;
#106 = CYLINDRICAL_SURFACE ( 'NONE', #308, 1.099999999999996758 ) ;
#107 = ORIENTED_EDGE ( 'NONE', *, *, #92, .F. ) ;
#108 = CC_DESIGN_APPROVAL ( #636, ( #95 ) ) ;
#109 = CARTESIAN_POINT ( 'NONE',  ( 73.00000000000000000, -13.50000000000000000, -0.1000000000000002554 ) ) ;
#110 = FACE_OUTER_BOUND ( 'NONE', #72, .T. ) ;
#111 = EDGE_CURVE ( 'NONE', #611, #592, #94, .T. ) ;
#112 = ORIENTED_EDGE ( 'NONE', *, *, #42, .T. ) ;
#113 = LINE ( 'NONE', #486, #143 ) ;
#114 = DIRECTION ( 'NONE',  ( 0.000000000000000000, -1.000000000000000000, 0.000000000000000000 ) ) ;
#115 = CARTESIAN_POINT ( 'NONE',  ( 76.00000000000000000, -17.00000000000000000, 5.000000000000000000 ) ) ;
#116 = EDGE_LOOP ( 'NONE', ( #407, #303, #195, #388 ) ) ;
#117 = FACE_BOUND ( 'NONE', #345, .T. ) ;
#118 = ORIENTED_EDGE ( 'NONE', *, *, #198, .F. ) ;
#119 = AXIS2_PLACEMENT_3D ( 'NONE', #578, #17, #11 ) ;
#120 = VECTOR ( 'NONE', #560, 1000.000000000000000 ) ;
#121 = DIRECTION ( 'NONE',  ( 0.000000000000000000, 1.000000000000000000, 0.000000000000000000 ) ) ;
#122 = EDGE_CURVE ( 'NONE', #224, #247, #313, .T. ) ;
#123 = DIRECTION ( 'NONE',  ( -0.000000000000000000, -0.000000000000000000, 1.000000000000000000 ) ) ;
#124 = VECTOR ( 'NONE', #501, 1000.000000000000000 ) ;
#125 = APPROVAL ( #327, 'UNSPECIFIED' ) ;
#126 = EDGE_LOOP ( 'NONE', ( #429, #293, #107, #175 ) ) ;
#127 = VERTEX_POINT ( 'NONE', #202 ) ;
#128 = AXIS2_PLACEMENT_3D ( 'NONE', #633, #480, #377 ) ;
#129 = DIRECTION ( 'NONE',  ( -1.000000000000000000, -0.000000000000000000, -0.000000000000000000 ) ) ;
#130 = ORIENTED_EDGE ( 'NONE', *, *, #58, .T. ) ;
#131 = CARTESIAN_POINT ( 'NONE',  ( 55.90000000000000568, -13.50000000000000000, 4.100000000000000533 ) ) ;
#132 = CARTESIAN_POINT ( 'NONE',  ( 76.00000000000000000, -10.00000000000000000, 5.000000000000000000 ) ) ;
#133 = ORIENTED_EDGE ( 'NONE', *, *, #102, .F. ) ;
#134 = EDGE_CURVE ( 'NONE', #351, #592, #260, .T. ) ;
#135 = CARTESIAN_POINT ( 'NONE',  ( 73.00000000000000000, -13.50000000000000000, 4.999999999999997335 ) ) ;
#136 = ORIENTED_EDGE ( 'NONE', *, *, #544, .T. ) ;
#137 = AXIS2_PLACEMENT_3D ( 'NONE', #109, #318, #669 ) ;
#138 = ORIENTED_EDGE ( 'NONE', *, *, #404, .F. ) ;
#139 = DIRECTION ( 'NONE',  ( 0.000000000000000000, 0.000000000000000000, -1.000000000000000000 ) ) ;
#140 = VERTEX_POINT ( 'NONE', #151 ) ;
#141 =( LENGTH_UNIT ( ) NAMED_UNIT ( * ) SI_UNIT ( .MILLI., .METRE. ) );
#142 = VECTOR ( 'NONE', #50, 1000.000000000000000 ) ;
#143 = VECTOR ( 'NONE', #646, 1000.000000000000000 ) ;
#144 = EDGE_CURVE ( 'NONE', #84, #351, #528, .T. ) ;
#145 = CARTESIAN_POINT ( 'NONE',  ( 73.00000000000000000, -13.50000000000000000, 4.999999999999997335 ) ) ;
#146 = APPLICATION_PROTOCOL_DEFINITION ( 'international standard', 'config_control_design', 1994, #425 ) ;
#147 = DIRECTION ( 'NONE',  ( 0.000000000000000000, 0.000000000000000000, 1.000000000000000000 ) ) ;
#148 = CYLINDRICAL_SURFACE ( 'NONE', #506, 1.100000000000003642 ) ;
#149 = COORDINATED_UNIVERSAL_TIME_OFFSET ( 6, 0, .BEHIND. ) ;
#150 = EDGE_CURVE ( 'NONE', #127, #485, #208, .T. ) ;
#151 = CARTESIAN_POINT ( 'NONE',  ( 74.09999999999999432, -13.50000000000000000, 4.999999999999997335 ) ) ;
#152 = EDGE_LOOP ( 'NONE', ( #39, #564, #361, #490 ) ) ;
#153 = APPROVAL_ROLE ( '' ) ;
#154 = LINE ( 'NONE', #627, #298 ) ;
#155 = AXIS2_PLACEMENT_3D ( 'NONE', #370, #328, #663 ) ;
#156 = LINE ( 'NONE', #213, #411 ) ;
#157 = DIRECTION ( 'NONE',  ( 0.000000000000000000, 0.000000000000000000, 1.000000000000000000 ) ) ;
#158 = DIRECTION ( 'NONE',  ( 0.000000000000000000, 0.000000000000000000, -1.000000000000000000 ) ) ;
#159 = DIRECTION ( 'NONE',  ( -0.000000000000000000, -0.000000000000000000, 1.000000000000000000 ) ) ;
#160 = ADVANCED_FACE ( 'NONE', ( #281, #75 ), #492, .F. ) ;
#161 = DIRECTION ( 'NONE',  ( -1.000000000000000000, 0.000000000000000000, 0.000000000000000000 ) ) ;
#162 = ORIENTED_EDGE ( 'NONE', *, *, #144, .F. ) ;
#163 = DATE_AND_TIME ( #266, #475 ) ;
#164 = AXIS2_PLACEMENT_3D ( 'NONE', #638, #631, #272 ) ;
#165 = CARTESIAN_POINT ( 'NONE',  ( 0.000000000000000000, 0.000000000000000000, -1.000000000000000000 ) ) ;
#166 = CARTESIAN_POINT ( 'NONE',  ( 53.00000000000000000, -10.90000000000000036, 4.100000000000000533 ) ) ;
#167 = VECTOR ( 'NONE', #27, 1000.000000000000000 ) ;
#168 = AXIS2_PLACEMENT_3D ( 'NONE', #333, #183, #341 ) ;
#169 = CARTESIAN_POINT ( 'NONE',  ( 58.10000000000000142, -13.50000000000000000, 4.999999999999997335 ) ) ;
#170 = DIRECTION ( 'NONE',  ( 0.000000000000000000, -0.000000000000000000, 1.000000000000000000 ) ) ;
#171 = DIRECTION ( 'NONE',  ( -1.000000000000000000, 0.000000000000000000, 0.000000000000000000 ) ) ;
#172 = ORIENTED_EDGE ( 'NONE', *, *, #122, .F. ) ;
#173 = PLANE ( 'NONE',  #164 ) ;
#174 = CARTESIAN_POINT ( 'NONE',  ( 73.00000000000000000, -13.50000000000000000, 4.100000000000000533 ) ) ;
#175 = ORIENTED_EDGE ( 'NONE', *, *, #590, .F. ) ;
#176 = VECTOR ( 'NONE', #238, 1000.000000000000000 ) ;
#177 = FACE_OUTER_BOUND ( 'NONE', #288, .T. ) ;
#178 = EDGE_CURVE ( 'NONE', #391, #180, #33, .T. ) ;
#179 = CARTESIAN_POINT ( 'NONE',  ( 58.10000000000000142, -13.50000000000000000, 4.999999999999997335 ) ) ;
#180 = VERTEX_POINT ( 'NONE', #291 ) ;
#181 = EDGE_LOOP ( 'NONE', ( #545, #503, #599, #656 ) ) ;
#182 = CARTESIAN_POINT ( 'NONE',  ( 71.89999999999999147, -13.50000000000000000, 4.999999999999997335 ) ) ;
#183 = DIRECTION ( 'NONE',  ( -1.000000000000000000, 0.000000000000000000, 0.000000000000000000 ) ) ;
#184 = ORIENTED_EDGE ( 'NONE', *, *, #522, .T. ) ;
#185 =( NAMED_UNIT ( * ) SI_UNIT ( $, .STERADIAN. ) SOLID_ANGLE_UNIT ( ) );
#186 = ORIENTED_EDGE ( 'NONE', *, *, #6, .T. ) ;
#187 = FACE_OUTER_BOUND ( 'NONE', #603, .T. ) ;
#188 = EDGE_CURVE ( 'NONE', #326, #76, #218, .T. ) ;
#189 = ORIENTED_EDGE ( 'NONE', *, *, #228, .T. ) ;
#190 = VECTOR ( 'NONE', #129, 1000.000000000000000 ) ;
#191 = VECTOR ( 'NONE', #613, 1000.000000000000000 ) ;
#192 = CARTESIAN_POINT ( 'NONE',  ( 54.00000000000000000, -10.00000000000000000, 5.000000000000000000 ) ) ;
#193 = ORIENTED_EDGE ( 'NONE', *, *, #447, .T. ) ;
#194 = CARTESIAN_POINT ( 'NONE',  ( 55.90000000000000568, -13.50000000000000000, 4.999999999999997335 ) ) ;
#195 = ORIENTED_EDGE ( 'NONE', *, *, #420, .T. ) ;
#196 = AXIS2_PLACEMENT_3D ( 'NONE', #37, #600, #608 ) ;
#197 = DIRECTION ( 'NONE',  ( 0.000000000000000000, -1.000000000000000000, 0.000000000000000000 ) ) ;
#198 = EDGE_CURVE ( 'NONE', #336, #180, #642, .T. ) ;
#199 = CARTESIAN_POINT ( 'NONE',  ( 54.00000000000000000, -17.00000000000000000, 5.000000000000000000 ) ) ;
#200 = EDGE_CURVE ( 'NONE', #592, #127, #483, .T. ) ;
#201 = DATE_TIME_ROLE ( 'creation_date' ) ;
#202 = CARTESIAN_POINT ( 'NONE',  ( 76.00000000000000000, -10.00000000000000000, -1.000000000000000000 ) ) ;
#203 = PRODUCT_DEFINITION ( 'UNKNOWN', '', #264, #289 ) ;
#204 = PERSON_AND_ORGANIZATION ( #217, #540 ) ;
#205 = CARTESIAN_POINT ( 'NONE',  ( 57.00000000000000000, -13.50000000000000000, 4.999999999999997335 ) ) ;
#206 = AXIS2_PLACEMENT_3D ( 'NONE', #43, #456, #292 ) ;
#207 = DATE_AND_TIME ( #103, #409 ) ;
#208 = LINE ( 'NONE', #423, #51 ) ;
#209 = VECTOR ( 'NONE', #525, 1000.000000000000000 ) ;
#210 = DIRECTION ( 'NONE',  ( -1.000000000000000000, 0.000000000000000000, 0.000000000000000000 ) ) ;
#211 = SHAPE_DEFINITION_REPRESENTATION ( #562, #504 ) ;
#212 = CARTESIAN_POINT ( 'NONE',  ( 0.000000000000000000, 0.000000000000000000, -0.1000000000000000056 ) ) ;
#213 = CARTESIAN_POINT ( 'NONE',  ( 54.00000000000000000, -10.90000000000000036, 5.000000000000000000 ) ) ;
#214 = ORIENTED_EDGE ( 'NONE', *, *, #42, .F. ) ;
#215 = MECHANICAL_CONTEXT ( 'NONE', #321, 'mechanical' ) ;
#216 = DIRECTION ( 'NONE',  ( -1.000000000000000000, 0.000000000000000000, 0.000000000000000000 ) ) ;
#217 = PERSON ( 'UNSPECIFIED', 'UNSPECIFIED', 'UNSPECIFIED', ('UNSPECIFIED'), ('UNSPECIFIED'), ('UNSPECIFIED') ) ;
#218 = LINE ( 'NONE', #273, #338 ) ;
#219 = ADVANCED_FACE ( 'NONE', ( #15 ), #440, .T. ) ;
#220 = FACE_OUTER_BOUND ( 'NONE', #69, .T. ) ;
#221 = CYLINDRICAL_SURFACE ( 'NONE', #571, 1.099999999999996758 ) ;
#222 = ADVANCED_FACE ( 'NONE', ( #464 ), #148, .F. ) ;
#223 = LINE ( 'NONE', #438, #591 ) ;
#224 = VERTEX_POINT ( 'NONE', #169 ) ;
#225 = CARTESIAN_POINT ( 'NONE',  ( 53.00000000000000000, -10.90000000000000036, 4.100000000000000533 ) ) ;
#226 = CARTESIAN_POINT ( 'NONE',  ( 76.00000000000000000, -17.00000000000000000, -1.000000000000000000 ) ) ;
#227 = CARTESIAN_POINT ( 'NONE',  ( 58.10000000000000142, -13.50000000000000000, -0.1000000000000002554 ) ) ;
#228 = EDGE_CURVE ( 'NONE', #80, #402, #156, .T. ) ;
#229 = CARTESIAN_POINT ( 'NONE',  ( 57.00000000000000000, -13.50000000000000000, 4.999999999999997335 ) ) ;
#230 = EDGE_LOOP ( 'NONE', ( #189, #295, #497, #354 ) ) ;
#231 = ORIENTED_EDGE ( 'NONE', *, *, #415, .T. ) ;
#232 = VECTOR ( 'NONE', #233, 1000.000000000000000 ) ;
#233 = DIRECTION ( 'NONE',  ( -0.000000000000000000, 1.000000000000000000, 0.000000000000000000 ) ) ;
#234 = DIRECTION ( 'NONE',  ( 0.000000000000000000, 0.000000000000000000, -1.000000000000000000 ) ) ;
#235 = ORIENTED_EDGE ( 'NONE', *, *, #455, .F. ) ;
#236 = VECTOR ( 'NONE', #622, 1000.000000000000000 ) ;
#237 = ADVANCED_FACE ( 'NONE', ( #538 ), #372, .F. ) ;
#238 = DIRECTION ( 'NONE',  ( -0.000000000000000000, -0.000000000000000000, -1.000000000000000000 ) ) ;
#239 = ORIENTED_EDGE ( 'NONE', *, *, #150, .T. ) ;
#240 = AXIS2_PLACEMENT_3D ( 'NONE', #212, #98, #3 ) ;
#241 = PLANE ( 'NONE',  #277 ) ;
#242 = ORIENTED_EDGE ( 'NONE', *, *, #554, .T. ) ;
#243 = APPROVAL_PERSON_ORGANIZATION ( #56, #125, #532 ) ;
#244 = CARTESIAN_POINT ( 'NONE',  ( 54.00000000000000000, -17.00000000000000000, -1.000000000000000000 ) ) ;
#245 = ORIENTED_EDGE ( 'NONE', *, *, #178, .T. ) ;
#246 = FACE_BOUND ( 'NONE', #453, .T. ) ;
#247 = VERTEX_POINT ( 'NONE', #542 ) ;
#248 = EDGE_CURVE ( 'NONE', #445, #654, #476, .T. ) ;
#249 = CARTESIAN_POINT ( 'NONE',  ( 57.00000000000000000, -13.50000000000000000, 4.100000000000000533 ) ) ;
#250 = VECTOR ( 'NONE', #347, 1000.000000000000000 ) ;
#251 = PERSON_AND_ORGANIZATION ( #217, #540 ) ;
#252 = VECTOR ( 'NONE', #363, 1000.000000000000000 ) ;
#253 = DIRECTION ( 'NONE',  ( 0.000000000000000000, 0.000000000000000000, 1.000000000000000000 ) ) ;
#254 = EDGE_CURVE ( 'NONE', #410, #342, #334, .T. ) ;
#255 = ORIENTED_EDGE ( 'NONE', *, *, #248, .T. ) ;
#256 = VECTOR ( 'NONE', #276, 1000.000000000000000 ) ;
#257 = APPROVAL_DATE_TIME ( #207, #125 ) ;
#258 = MANIFOLD_SOLID_BREP ( 'Pad_capture_M2', #259 ) ;
#259 = CLOSED_SHELL ( 'NONE', ( #482, #358, #324, #612, #566, #160, #237, #649, #305, #509, #498, #219, #598, #36, #222, #16, #332, #282 ) ) ;
#260 = LINE ( 'NONE', #418, #236 ) ;
#261 = PERSON_AND_ORGANIZATION_ROLE ( 'creator' ) ;
#262 = CARTESIAN_POINT ( 'NONE',  ( 76.00000000000000000, -10.90000000000000036, -0.1000000000000000056 ) ) ;
#263 = DIRECTION ( 'NONE',  ( 1.000000000000000000, 0.000000000000000000, 0.000000000000000000 ) ) ;
#264 = PRODUCT_DEFINITION_FORMATION_WITH_SPECIFIED_SOURCE ( 'ANY', '', #394, .NOT_KNOWN. ) ;
#265 = ORIENTED_EDGE ( 'NONE', *, *, #664, .T. ) ;
#266 = CALENDAR_DATE ( 2026, 7, 9 ) ;
#267 = CARTESIAN_POINT ( 'NONE',  ( 73.00000000000000000, -13.50000000000000000, -0.1000000000000002554 ) ) ;
#268 = CYLINDRICAL_SURFACE ( 'NONE', #128, 1.100000000000003642 ) ;
#269 = ORIENTED_EDGE ( 'NONE', *, *, #450, .F. ) ;
#270 = APPROVAL_STATUS ( 'not_yet_approved' ) ;
#271 = CC_DESIGN_DATE_AND_TIME_ASSIGNMENT ( #368, #573, ( #95 ) ) ;
#272 = DIRECTION ( 'NONE',  ( 0.000000000000000000, -0.000000000000000000, 1.000000000000000000 ) ) ;
#273 = CARTESIAN_POINT ( 'NONE',  ( 76.00000000000000000, -17.00000000000000000, 4.100000000000000533 ) ) ;
#274 = DIRECTION ( 'NONE',  ( 0.000000000000000000, 0.000000000000000000, -1.000000000000000000 ) ) ;
#275 = VERTEX_POINT ( 'NONE', #4 ) ;
#276 = DIRECTION ( 'NONE',  ( -0.000000000000000000, -1.000000000000000000, -0.000000000000000000 ) ) ;
#277 = AXIS2_PLACEMENT_3D ( 'NONE', #192, #197, #514 ) ;
#278 = CARTESIAN_POINT ( 'NONE',  ( 54.00000000000000000, -17.00000000000000000, 5.000000000000000000 ) ) ;
#279 = ORIENTED_EDGE ( 'NONE', *, *, #93, .F. ) ;
#280 = CARTESIAN_POINT ( 'NONE',  ( 71.89999999999999147, -13.50000000000000000, 4.999999999999997335 ) ) ;
#281 = FACE_OUTER_BOUND ( 'NONE', #597, .T. ) ;
#282 = ADVANCED_FACE ( 'NONE', ( #110 ), #428, .F. ) ;
#283 = DIRECTION ( 'NONE',  ( 1.000000000000000000, 0.000000000000000000, 0.000000000000000000 ) ) ;
#284 = EDGE_LOOP ( 'NONE', ( #242, #269, #26, #393 ) ) ;
#285 = CARTESIAN_POINT ( 'NONE',  ( 73.00000000000000000, -13.50000000000000000, 4.100000000000000533 ) ) ;
#286 = ORIENTED_EDGE ( 'NONE', *, *, #188, .F. ) ;
#287 = CIRCLE ( 'NONE', #624, 1.100000000000003642 ) ;
#288 = EDGE_LOOP ( 'NONE', ( #184, #585, #558, #508 ) ) ;
#289 = DESIGN_CONTEXT ( 'detailed design', #425, 'design' ) ;
#290 = CARTESIAN_POINT ( 'NONE',  ( 57.00000000000000000, -13.50000000000000000, 4.100000000000000533 ) ) ;
#291 = CARTESIAN_POINT ( 'NONE',  ( 58.10000000000000142, -13.50000000000000000, -1.000000000000000000 ) ) ;
#292 = DIRECTION ( 'NONE',  ( -1.000000000000000000, 0.000000000000000000, -0.000000000000000000 ) ) ;
#293 = ORIENTED_EDGE ( 'NONE', *, *, #378, .T. ) ;
#294 =( GEOMETRIC_REPRESENTATION_CONTEXT ( 3 ) GLOBAL_UNCERTAINTY_ASSIGNED_CONTEXT ( ( #546 ) ) GLOBAL_UNIT_ASSIGNED_CONTEXT ( ( #141, #30, #185 ) ) REPRESENTATION_CONTEXT ( 'NONE', 'WORKASPACE' ) );
#295 = ORIENTED_EDGE ( 'NONE', *, *, #6, .F. ) ;
#296 = LINE ( 'NONE', #452, #14 ) ;
#297 = VERTEX_POINT ( 'NONE', #588 ) ;
#298 = VECTOR ( 'NONE', #158, 1000.000000000000000 ) ;
#299 = CARTESIAN_POINT ( 'NONE',  ( 53.00000000000000000, -10.90000000000000036, -0.1000000000000000056 ) ) ;
#300 = CARTESIAN_POINT ( 'NONE',  ( 76.00000000000000000, -17.00000000000000000, -1.000000000000000000 ) ) ;
#301 = ORIENTED_EDGE ( 'NONE', *, *, #415, .F. ) ;
#302 = CARTESIAN_POINT ( 'NONE',  ( 54.00000000000000000, -17.00000000000000000, 5.000000000000000000 ) ) ;
#303 = ORIENTED_EDGE ( 'NONE', *, *, #93, .T. ) ;
#304 = AXIS2_PLACEMENT_3D ( 'NONE', #229, #442, #547 ) ;
#305 = ADVANCED_FACE ( 'NONE', ( #424, #534, #626 ), #489, .F. ) ;
#306 = LINE ( 'NONE', #406, #191 ) ;
#307 = ORIENTED_EDGE ( 'NONE', *, *, #134, .F. ) ;
#308 = AXIS2_PLACEMENT_3D ( 'NONE', #21, #639, #325 ) ;
#309 = EDGE_CURVE ( 'NONE', #29, #391, #71, .T. ) ;
#310 = CARTESIAN_POINT ( 'NONE',  ( 54.00000000000000000, -17.00000000000000000, -1.000000000000000000 ) ) ;
#311 = VECTOR ( 'NONE', #87, 1000.000000000000000 ) ;
#312 = PERSON_AND_ORGANIZATION ( #217, #540 ) ;
#313 = CIRCLE ( 'NONE', #403, 1.099999999999996758 ) ;
#314 = CARTESIAN_POINT ( 'NONE',  ( 54.00000000000000000, -17.00000000000000000, -0.1000000000000002554 ) ) ;
#315 = CALENDAR_DATE ( 2026, 7, 9 ) ;
#316 = CYLINDRICAL_SURFACE ( 'NONE', #621, 1.100000000000003642 ) ;
#317 = CIRCLE ( 'NONE', #575, 1.099999999999996758 ) ;
#318 = DIRECTION ( 'NONE',  ( -0.000000000000000000, -0.000000000000000000, 1.000000000000000000 ) ) ;
#319 = ORIENTED_EDGE ( 'NONE', *, *, #111, .F. ) ;
#320 = DATE_AND_TIME ( #574, #60 ) ;
#321 = APPLICATION_CONTEXT ( 'configuration controlled 3d designs of mechanical parts and assemblies' ) ;
#322 = LINE ( 'NONE', #314, #209 ) ;
#323 = APPROVAL_PERSON_ORGANIZATION ( #312, #85, #473 ) ;
#324 = ADVANCED_FACE ( 'NONE', ( #220 ), #106, .F. ) ;
#325 = DIRECTION ( 'NONE',  ( -1.000000000000000000, 0.000000000000000000, 0.000000000000000000 ) ) ;
#326 = VERTEX_POINT ( 'NONE', #434 ) ;
#327 = APPROVAL_STATUS ( 'not_yet_approved' ) ;
#328 = DIRECTION ( 'NONE',  ( 0.000000000000000000, 0.000000000000000000, 1.000000000000000000 ) ) ;
#329 = DIRECTION ( 'NONE',  ( -1.000000000000000000, 0.000000000000000000, -0.000000000000000000 ) ) ;
#330 = ORIENTED_EDGE ( 'NONE', *, *, #577, .T. ) ;
#331 = FACE_OUTER_BOUND ( 'NONE', #181, .T. ) ;
#332 = ADVANCED_FACE ( 'NONE', ( #62 ), #268, .F. ) ;
#333 = CARTESIAN_POINT ( 'NONE',  ( 76.00000000000000000, -17.00000000000000000, 5.000000000000000000 ) ) ;
#334 = CIRCLE ( 'NONE', #40, 1.100000000000003642 ) ;
#335 = DIRECTION ( 'NONE',  ( 0.000000000000000000, -0.000000000000000000, 1.000000000000000000 ) ) ;
#336 = VERTEX_POINT ( 'NONE', #227 ) ;
#337 = CARTESIAN_POINT ( 'NONE',  ( 54.00000000000000000, -10.00000000000000000, -1.000000000000000000 ) ) ;
#338 = VECTOR ( 'NONE', #537, 1000.000000000000000 ) ;
#339 = CARTESIAN_POINT ( 'NONE',  ( 73.00000000000000000, -13.50000000000000000, -1.000000000000000000 ) ) ;
#340 = DIRECTION ( 'NONE',  ( -1.000000000000000000, 0.000000000000000000, 0.000000000000000000 ) ) ;
#341 = DIRECTION ( 'NONE',  ( 0.000000000000000000, 0.000000000000000000, 1.000000000000000000 ) ) ;
#342 = VERTEX_POINT ( 'NONE', #8 ) ;
#343 = ORIENTED_EDGE ( 'NONE', *, *, #447, .F. ) ;
#344 = LINE ( 'NONE', #73, #565 ) ;
#345 = EDGE_LOOP ( 'NONE', ( #435, #647 ) ) ;
#346 = EDGE_CURVE ( 'NONE', #88, #645, #596, .T. ) ;
#347 = DIRECTION ( 'NONE',  ( 0.000000000000000000, 0.000000000000000000, -1.000000000000000000 ) ) ;
#348 = ORIENTED_EDGE ( 'NONE', *, *, #97, .F. ) ;
#349 = LOCAL_TIME ( 23, 0, 53.00000000000000000, #665 ) ;
#350 = PLANE ( 'NONE',  #206 ) ;
#351 = VERTEX_POINT ( 'NONE', #115 ) ;
#352 = AXIS2_PLACEMENT_3D ( 'NONE', #496, #487, #20 ) ;
#353 = EDGE_CURVE ( 'NONE', #84, #611, #223, .T. ) ;
#354 = ORIENTED_EDGE ( 'NONE', *, *, #450, .T. ) ;
#355 = CARTESIAN_POINT ( 'NONE',  ( 76.00000000000000000, -17.00000000000000000, -0.1000000000000002554 ) ) ;
#356 = ORIENTED_EDGE ( 'NONE', *, *, #398, .T. ) ;
#357 = VECTOR ( 'NONE', #387, 1000.000000000000000 ) ;
#358 = ADVANCED_FACE ( 'NONE', ( #82 ), #316, .F. ) ;
#359 = VERTEX_POINT ( 'NONE', #262 ) ;
#360 = CYLINDRICAL_SURFACE ( 'NONE', #399, 1.100000000000003642 ) ;
#361 = ORIENTED_EDGE ( 'NONE', *, *, #590, .T. ) ;
#362 = EDGE_CURVE ( 'NONE', #607, #502, #541, .T. ) ;
#363 = DIRECTION ( 'NONE',  ( 0.000000000000000000, 0.000000000000000000, 1.000000000000000000 ) ) ;
#364 = DATE_AND_TIME ( #315, #349 ) ;
#365 = AXIS2_PLACEMENT_3D ( 'NONE', #302, #90, #396 ) ;
#366 = EDGE_LOOP ( 'NONE', ( #443, #235, #47, #382 ) ) ;
#367 = DIRECTION ( 'NONE',  ( 0.000000000000000000, 0.000000000000000000, -1.000000000000000000 ) ) ;
#368 = DATE_AND_TIME ( #419, #374 ) ;
#369 = COORDINATED_UNIVERSAL_TIME_OFFSET ( 6, 0, .BEHIND. ) ;
#370 = CARTESIAN_POINT ( 'NONE',  ( 73.00000000000000000, -13.50000000000000000, 4.999999999999997335 ) ) ;
#371 = CC_DESIGN_PERSON_AND_ORGANIZATION_ASSIGNMENT ( #251, #52, ( #394 ) ) ;
#372 = PLANE ( 'NONE',  #89 ) ;
#373 = CARTESIAN_POINT ( 'NONE',  ( 54.00000000000000000, -10.90000000000000036, 4.100000000000000533 ) ) ;
#374 = LOCAL_TIME ( 23, 0, 53.00000000000000000, #149 ) ;
#375 = ORIENTED_EDGE ( 'NONE', *, *, #144, .T. ) ;
#376 = CARTESIAN_POINT ( 'NONE',  ( 54.00000000000000000, -17.00000000000000000, 4.100000000000000533 ) ) ;
#377 = DIRECTION ( 'NONE',  ( -1.000000000000000000, 0.000000000000000000, 0.000000000000000000 ) ) ;
#378 = EDGE_CURVE ( 'NONE', #607, #410, #154, .T. ) ;
#379 = ORIENTED_EDGE ( 'NONE', *, *, #465, .F. ) ;
#380 = CARTESIAN_POINT ( 'NONE',  ( 54.00000000000000000, -17.00000000000000000, -1.000000000000000000 ) ) ;
#381 = DIRECTION ( 'NONE',  ( -1.000000000000000000, 0.000000000000000000, 0.000000000000000000 ) ) ;
#382 = ORIENTED_EDGE ( 'NONE', *, *, #228, .F. ) ;
#383 = FACE_OUTER_BOUND ( 'NONE', #561, .T. ) ;
#384 = AXIS2_PLACEMENT_3D ( 'NONE', #165, #23, #329 ) ;
#385 = ORIENTED_EDGE ( 'NONE', *, *, #544, .F. ) ;
#386 = CARTESIAN_POINT ( 'NONE',  ( 74.09999999999999432, -13.50000000000000000, -1.000000000000000000 ) ) ;
#387 = DIRECTION ( 'NONE',  ( -1.000000000000000000, -0.000000000000000000, -0.000000000000000000 ) ) ;
#388 = ORIENTED_EDGE ( 'NONE', *, *, #472, .F. ) ;
#389 = CARTESIAN_POINT ( 'NONE',  ( 54.00000000000000000, -16.10000000000000142, -0.1000000000000000056 ) ) ;
#390 = CC_DESIGN_PERSON_AND_ORGANIZATION_ASSIGNMENT ( #619, #477, ( #95 ) ) ;
#391 = VERTEX_POINT ( 'NONE', #74 ) ;
#392 = CARTESIAN_POINT ( 'NONE',  ( 74.09999999999999432, -13.50000000000000000, -0.1000000000000002554 ) ) ;
#393 = ORIENTED_EDGE ( 'NONE', *, *, #54, .F. ) ;
#394 = PRODUCT ( 'ARM-110_Fixed_jaw_TPU_sock', 'ARM-110_Fixed_jaw_TPU_sock', '', ( #215 ) ) ;
#395 = CYLINDRICAL_SURFACE ( 'NONE', #196, 1.099999999999996758 ) ;
#396 = DIRECTION ( 'NONE',  ( 0.000000000000000000, 0.000000000000000000, -1.000000000000000000 ) ) ;
#397 = ORIENTED_EDGE ( 'NONE', *, *, #616, .F. ) ;
#398 = EDGE_CURVE ( 'NONE', #485, #611, #19, .T. ) ;
#399 = AXIS2_PLACEMENT_3D ( 'NONE', #135, #557, #83 ) ;
#400 = ORIENTED_EDGE ( 'NONE', *, *, #420, .F. ) ;
#401 = LINE ( 'NONE', #355, #120 ) ;
#402 = VERTEX_POINT ( 'NONE', #446 ) ;
#403 = AXIS2_PLACEMENT_3D ( 'NONE', #205, #253, #469 ) ;
#404 = EDGE_CURVE ( 'NONE', #29, #336, #1, .T. ) ;
#405 = ORIENTED_EDGE ( 'NONE', *, *, #111, .T. ) ;
#406 = CARTESIAN_POINT ( 'NONE',  ( 76.00000000000000000, -16.10000000000000142, 5.000000000000000000 ) ) ;
#407 = ORIENTED_EDGE ( 'NONE', *, *, #433, .F. ) ;
#408 = FACE_BOUND ( 'NONE', #46, .T. ) ;
#409 = LOCAL_TIME ( 23, 0, 53.00000000000000000, #413 ) ;
#410 = VERTEX_POINT ( 'NONE', #386 ) ;
#411 = VECTOR ( 'NONE', #274, 1000.000000000000000 ) ;
#412 = CARTESIAN_POINT ( 'NONE',  ( 53.00000000000000000, -16.10000000000000142, 4.100000000000000533 ) ) ;
#413 = COORDINATED_UNIVERSAL_TIME_OFFSET ( 6, 0, .BEHIND. ) ;
#414 = CARTESIAN_POINT ( 'NONE',  ( 71.89999999999999147, -13.50000000000000000, 4.100000000000000533 ) ) ;
#415 = EDGE_CURVE ( 'NONE', #661, #84, #113, .T. ) ;
#416 = PERSON_AND_ORGANIZATION_ROLE ( 'design_supplier' ) ;
#417 = AXIS2_PLACEMENT_3D ( 'NONE', #285, #13, #539 ) ;
#418 = CARTESIAN_POINT ( 'NONE',  ( 76.00000000000000000, -17.00000000000000000, 5.000000000000000000 ) ) ;
#419 = CALENDAR_DATE ( 2026, 7, 9 ) ;
#420 = EDGE_CURVE ( 'NONE', #519, #88, #10, .T. ) ;
#421 = DIRECTION ( 'NONE',  ( -1.000000000000000000, 0.000000000000000000, 0.000000000000000000 ) ) ;
#422 = AXIS2_PLACEMENT_3D ( 'NONE', #145, #147, #666 ) ;
#423 = CARTESIAN_POINT ( 'NONE',  ( 54.00000000000000000, -10.00000000000000000, -1.000000000000000000 ) ) ;
#424 = FACE_BOUND ( 'NONE', #66, .T. ) ;
#425 = APPLICATION_CONTEXT ( 'configuration controlled 3d designs of mechanical parts and assemblies' ) ;
#426 = AXIS2_PLACEMENT_3D ( 'NONE', #174, #584, #161 ) ;
#427 = CARTESIAN_POINT ( 'NONE',  ( 76.00000000000000000, -16.10000000000000142, 4.100000000000000533 ) ) ;
#428 = CYLINDRICAL_SURFACE ( 'NONE', #513, 1.099999999999996758 ) ;
#429 = ORIENTED_EDGE ( 'NONE', *, *, #32, .T. ) ;
#430 = PERSON_AND_ORGANIZATION ( #217, #540 ) ;
#431 = DIRECTION ( 'NONE',  ( -0.000000000000000000, -0.000000000000000000, 1.000000000000000000 ) ) ;
#432 = DIRECTION ( 'NONE',  ( 0.000000000000000000, 1.000000000000000000, 0.000000000000000000 ) ) ;
#433 = EDGE_CURVE ( 'NONE', #140, #645, #587, .T. ) ;
#434 = CARTESIAN_POINT ( 'NONE',  ( 76.00000000000000000, -10.90000000000000036, 4.100000000000000533 ) ) ;
#435 = ORIENTED_EDGE ( 'NONE', *, *, #92, .T. ) ;
#436 = DIRECTION ( 'NONE',  ( -1.000000000000000000, 0.000000000000000000, 0.000000000000000000 ) ) ;
#437 = AXIS2_PLACEMENT_3D ( 'NONE', #166, #114, #583 ) ;
#438 = CARTESIAN_POINT ( 'NONE',  ( 54.00000000000000000, -17.00000000000000000, 5.000000000000000000 ) ) ;
#439 = DIRECTION ( 'NONE',  ( 0.000000000000000000, 0.000000000000000000, -1.000000000000000000 ) ) ;
#440 = PLANE ( 'NONE',  #437 ) ;
#441 = DIRECTION ( 'NONE',  ( 0.000000000000000000, 0.000000000000000000, -1.000000000000000000 ) ) ;
#442 = DIRECTION ( 'NONE',  ( 0.000000000000000000, 0.000000000000000000, 1.000000000000000000 ) ) ;
#443 = ORIENTED_EDGE ( 'NONE', *, *, #554, .F. ) ;
#444 = VECTOR ( 'NONE', #170, 1000.000000000000000 ) ;
#445 = VERTEX_POINT ( 'NONE', #389 ) ;
#446 = CARTESIAN_POINT ( 'NONE',  ( 54.00000000000000000, -10.90000000000000036, -0.1000000000000002554 ) ) ;
#447 = EDGE_CURVE ( 'NONE', #336, #29, #467, .T. ) ;
#448 = ORIENTED_EDGE ( 'NONE', *, *, #572, .F. ) ;
#449 = EDGE_LOOP ( 'NONE', ( #548, #549 ) ) ;
#450 = EDGE_CURVE ( 'NONE', #326, #80, #593, .T. ) ;
#451 = ORIENTED_EDGE ( 'NONE', *, *, #398, .F. ) ;
#452 = CARTESIAN_POINT ( 'NONE',  ( 71.89999999999999147, -13.50000000000000000, 4.999999999999997335 ) ) ;
#453 = EDGE_LOOP ( 'NONE', ( #130, #136 ) ) ;
#454 = ORIENTED_EDGE ( 'NONE', *, *, #586, .T. ) ;
#455 = EDGE_CURVE ( 'NONE', #445, #297, #491, .T. ) ;
#456 = DIRECTION ( 'NONE',  ( 0.000000000000000000, 0.000000000000000000, -1.000000000000000000 ) ) ;
#457 = ORIENTED_EDGE ( 'NONE', *, *, #134, .T. ) ;
#458 = CIRCLE ( 'NONE', #304, 1.099999999999996758 ) ;
#459 = LINE ( 'NONE', #507, #176 ) ;
#460 = ORIENTED_EDGE ( 'NONE', *, *, #200, .T. ) ;
#461 = CARTESIAN_POINT ( 'NONE',  ( 74.09999999999999432, -13.50000000000000000, 4.100000000000000533 ) ) ;
#462 = ORIENTED_EDGE ( 'NONE', *, *, #200, .F. ) ;
#463 = CIRCLE ( 'NONE', #155, 1.100000000000003642 ) ;
#464 = FACE_OUTER_BOUND ( 'NONE', #152, .T. ) ;
#465 = EDGE_CURVE ( 'NONE', #351, #275, #344, .T. ) ;
#466 = DIRECTION ( 'NONE',  ( -1.000000000000000000, 0.000000000000000000, 0.000000000000000000 ) ) ;
#467 = CIRCLE ( 'NONE', #488, 1.099999999999996758 ) ;
#468 = PERSON_AND_ORGANIZATION ( #217, #540 ) ;
#469 = DIRECTION ( 'NONE',  ( 1.000000000000000000, 0.000000000000000000, 0.000000000000000000 ) ) ;
#470 = PERSON_AND_ORGANIZATION_ROLE ( 'creator' ) ;
#471 = CARTESIAN_POINT ( 'NONE',  ( 76.00000000000000000, -10.90000000000000036, 5.000000000000000000 ) ) ;
#472 = EDGE_CURVE ( 'NONE', #645, #88, #551, .T. ) ;
#473 = APPROVAL_ROLE ( '' ) ;
#474 = VECTOR ( 'NONE', #283, 1000.000000000000000 ) ;
#475 = LOCAL_TIME ( 23, 0, 53.00000000000000000, #524 ) ;
#476 = LINE ( 'NONE', #65, #474 ) ;
#477 = PERSON_AND_ORGANIZATION_ROLE ( 'classification_officer' ) ;
#478 = DIRECTION ( 'NONE',  ( -0.000000000000000000, -0.000000000000000000, 1.000000000000000000 ) ) ;
#479 = FACE_BOUND ( 'NONE', #604, .T. ) ;
#480 = DIRECTION ( 'NONE',  ( 0.000000000000000000, 0.000000000000000000, -1.000000000000000000 ) ) ;
#481 = CARTESIAN_POINT ( 'NONE',  ( 71.89999999999999147, -13.50000000000000000, -0.1000000000000002554 ) ) ;
#482 = ADVANCED_FACE ( 'NONE', ( #177 ), #221, .F. ) ;
#483 = LINE ( 'NONE', #226, #520 ) ;
#484 = DIRECTION ( 'NONE',  ( 0.000000000000000000, 1.000000000000000000, 0.000000000000000000 ) ) ;
#485 = VERTEX_POINT ( 'NONE', #337 ) ;
#486 = CARTESIAN_POINT ( 'NONE',  ( 54.00000000000000000, -17.00000000000000000, 5.000000000000000000 ) ) ;
#487 = DIRECTION ( 'NONE',  ( -0.000000000000000000, -0.000000000000000000, 1.000000000000000000 ) ) ;
#488 = AXIS2_PLACEMENT_3D ( 'NONE', #595, #67, #70 ) ;
#489 = PLANE ( 'NONE',  #119 ) ;
#490 = ORIENTED_EDGE ( 'NONE', *, *, #254, .F. ) ;
#491 = LINE ( 'NONE', #536, #444 ) ;
#492 = PLANE ( 'NONE',  #168 ) ;
#493 = CARTESIAN_POINT ( 'NONE',  ( 55.90000000000000568, -13.50000000000000000, 4.999999999999997335 ) ) ;
#494 = ORIENTED_EDGE ( 'NONE', *, *, #568, .F. ) ;
#495 = PLANE ( 'NONE',  #384 ) ;
#496 = CARTESIAN_POINT ( 'NONE',  ( 57.00000000000000000, -13.50000000000000000, -1.000000000000000000 ) ) ;
#497 = ORIENTED_EDGE ( 'NONE', *, *, #97, .T. ) ;
#498 = ADVANCED_FACE ( 'NONE', ( #331 ), #173, .T. ) ;
#499 = ORIENTED_EDGE ( 'NONE', *, *, #309, .F. ) ;
#500 = LINE ( 'NONE', #376, #232 ) ;
#501 = DIRECTION ( 'NONE',  ( 0.000000000000000000, 0.000000000000000000, -1.000000000000000000 ) ) ;
#502 = VERTEX_POINT ( 'NONE', #481 ) ;
#503 = ORIENTED_EDGE ( 'NONE', *, *, #54, .T. ) ;
#504 = ADVANCED_BREP_SHAPE_REPRESENTATION ( 'ARM-110_Fixed_jaw_TPU_sock', ( #258, #614 ), #294 ) ;
#505 = ORIENTED_EDGE ( 'NONE', *, *, #472, .T. ) ;
#506 = AXIS2_PLACEMENT_3D ( 'NONE', #617, #367, #171 ) ;
#507 = CARTESIAN_POINT ( 'NONE',  ( 54.00000000000000000, -10.00000000000000000, 5.000000000000000000 ) ) ;
#508 = ORIENTED_EDGE ( 'NONE', *, *, #664, .F. ) ;
#509 = ADVANCED_FACE ( 'NONE', ( #543, #117, #383 ), #495, .T. ) ;
#510 = CARTESIAN_POINT ( 'NONE',  ( 55.90000000000000568, -13.50000000000000000, -0.1000000000000002554 ) ) ;
#511 = DIRECTION ( 'NONE',  ( -1.000000000000000000, -0.000000000000000000, -0.000000000000000000 ) ) ;
#512 = ORIENTED_EDGE ( 'NONE', *, *, #465, .T. ) ;
#513 = AXIS2_PLACEMENT_3D ( 'NONE', #530, #635, #210 ) ;
#514 = DIRECTION ( 'NONE',  ( 0.000000000000000000, -0.000000000000000000, -1.000000000000000000 ) ) ;
#515 = ORIENTED_EDGE ( 'NONE', *, *, #346, .F. ) ;
#516 = VECTOR ( 'NONE', #634, 1000.000000000000000 ) ;
#517 = CIRCLE ( 'NONE', #41, 1.099999999999996758 ) ;
#518 = CARTESIAN_POINT ( 'NONE',  ( 76.00000000000000000, -16.10000000000000142, -0.1000000000000002554 ) ) ;
#519 = VERTEX_POINT ( 'NONE', #280 ) ;
#520 = VECTOR ( 'NONE', #432, 1000.000000000000000 ) ;
#521 = VECTOR ( 'NONE', #441, 1000.000000000000000 ) ;
#522 = EDGE_CURVE ( 'NONE', #247, #224, #458, .T. ) ;
#523 = CARTESIAN_POINT ( 'NONE',  ( 58.10000000000000142, -13.50000000000000000, 4.100000000000000533 ) ) ;
#524 = COORDINATED_UNIVERSAL_TIME_OFFSET ( 6, 0, .BEHIND. ) ;
#525 = DIRECTION ( 'NONE',  ( -0.000000000000000000, 1.000000000000000000, 0.000000000000000000 ) ) ;
#526 = PRODUCT_RELATED_PRODUCT_CATEGORY ( 'detail', '', ( #394 ) ) ;
#527 = DIRECTION ( 'NONE',  ( 1.000000000000000000, 0.000000000000000000, 0.000000000000000000 ) ) ;
#528 = LINE ( 'NONE', #57, #81 ) ;
#529 = DIRECTION ( 'NONE',  ( -1.000000000000000000, 0.000000000000000000, 0.000000000000000000 ) ) ;
#530 = CARTESIAN_POINT ( 'NONE',  ( 57.00000000000000000, -13.50000000000000000, 4.999999999999997335 ) ) ;
#531 = ORIENTED_EDGE ( 'NONE', *, *, #353, .F. ) ;
#532 = APPROVAL_ROLE ( '' ) ;
#533 = DIRECTION ( 'NONE',  ( -1.000000000000000000, 0.000000000000000000, 0.000000000000000000 ) ) ;
#534 = FACE_BOUND ( 'NONE', #553, .T. ) ;
#535 = EDGE_LOOP ( 'NONE', ( #286, #348, #567, #494 ) ) ;
#536 = CARTESIAN_POINT ( 'NONE',  ( 54.00000000000000000, -16.10000000000000142, 5.000000000000000000 ) ) ;
#537 = DIRECTION ( 'NONE',  ( 0.000000000000000000, -1.000000000000000000, 0.000000000000000000 ) ) ;
#538 = FACE_OUTER_BOUND ( 'NONE', #581, .T. ) ;
#539 = DIRECTION ( 'NONE',  ( -1.000000000000000000, 0.000000000000000000, 0.000000000000000000 ) ) ;
#540 = ORGANIZATION ( 'UNSPECIFIED', 'UNSPECIFIED', '' ) ;
#541 = CIRCLE ( 'NONE', #601, 1.100000000000003642 ) ;
#542 = CARTESIAN_POINT ( 'NONE',  ( 55.90000000000000568, -13.50000000000000000, 4.999999999999997335 ) ) ;
#543 = FACE_BOUND ( 'NONE', #644, .T. ) ;
#544 = EDGE_CURVE ( 'NONE', #86, #9, #517, .T. ) ;
#545 = ORIENTED_EDGE ( 'NONE', *, *, #455, .T. ) ;
#546 = UNCERTAINTY_MEASURE_WITH_UNIT (LENGTH_MEASURE( 1.000000000000000082E-05 ), #141, 'distance_accuracy_value', 'NONE');
#547 = DIRECTION ( 'NONE',  ( 1.000000000000000000, 0.000000000000000000, 0.000000000000000000 ) ) ;
#548 = ORIENTED_EDGE ( 'NONE', *, *, #32, .F. ) ;
#549 = ORIENTED_EDGE ( 'NONE', *, *, #362, .F. ) ;
#550 = CARTESIAN_POINT ( 'NONE',  ( 74.09999999999999432, -13.50000000000000000, 4.999999999999997335 ) ) ;
#551 = CIRCLE ( 'NONE', #417, 1.100000000000003642 ) ;
#552 = LINE ( 'NONE', #79, #620 ) ;
#553 = EDGE_LOOP ( 'NONE', ( #214, #279 ) ) ;
#554 = EDGE_CURVE ( 'NONE', #297, #80, #500, .T. ) ;
#555 = ORIENTED_EDGE ( 'NONE', *, *, #577, .F. ) ;
#556 = DIRECTION ( 'NONE',  ( -0.000000000000000000, -0.000000000000000000, -1.000000000000000000 ) ) ;
#557 = DIRECTION ( 'NONE',  ( 0.000000000000000000, 0.000000000000000000, -1.000000000000000000 ) ) ;
#558 = ORIENTED_EDGE ( 'NONE', *, *, #58, .F. ) ;
#559 = ORIENTED_EDGE ( 'NONE', *, *, #433, .T. ) ;
#560 = DIRECTION ( 'NONE',  ( 0.000000000000000000, -1.000000000000000000, 0.000000000000000000 ) ) ;
#561 = EDGE_LOOP ( 'NONE', ( #451, #31, #462, #319 ) ) ;
#562 = PRODUCT_DEFINITION_SHAPE ( 'NONE', 'NONE',  #203 ) ;
#563 = ORIENTED_EDGE ( 'NONE', *, *, #586, .F. ) ;
#564 = ORIENTED_EDGE ( 'NONE', *, *, #362, .T. ) ;
#565 = VECTOR ( 'NONE', #121, 1000.000000000000000 ) ;
#566 = ADVANCED_FACE ( 'NONE', ( #582, #651 ), #606, .F. ) ;
#567 = ORIENTED_EDGE ( 'NONE', *, *, #659, .T. ) ;
#568 = EDGE_CURVE ( 'NONE', #76, #654, #306, .T. ) ;
#569 = ORIENTED_EDGE ( 'NONE', *, *, #404, .T. ) ;
#570 = CARTESIAN_POINT ( 'NONE',  ( 0.000000000000000000, 0.000000000000000000, 0.000000000000000000 ) ) ;
#571 = AXIS2_PLACEMENT_3D ( 'NONE', #589, #439, #216 ) ;
#572 = EDGE_CURVE ( 'NONE', #661, #485, #459, .T. ) ;
#573 = DATE_TIME_ROLE ( 'classification_date' ) ;
#574 = CALENDAR_DATE ( 2026, 7, 9 ) ;
#575 = AXIS2_PLACEMENT_3D ( 'NONE', #49, #105, #466 ) ;
#576 = FACE_OUTER_BOUND ( 'NONE', #25, .T. ) ;
#577 = EDGE_CURVE ( 'NONE', #275, #661, #552, .T. ) ;
#578 = CARTESIAN_POINT ( 'NONE',  ( 0.000000000000000000, 0.000000000000000000, 5.000000000000000000 ) ) ;
#579 = DIRECTION ( 'NONE',  ( -0.000000000000000000, -0.000000000000000000, 1.000000000000000000 ) ) ;
#580 = CC_DESIGN_PERSON_AND_ORGANIZATION_ASSIGNMENT ( #5, #470, ( #264 ) ) ;
#581 = EDGE_LOOP ( 'NONE', ( #405, #307, #162, #630 ) ) ;
#582 = FACE_OUTER_BOUND ( 'NONE', #35, .T. ) ;
#583 = DIRECTION ( 'NONE',  ( 0.000000000000000000, -0.000000000000000000, -1.000000000000000000 ) ) ;
#584 = DIRECTION ( 'NONE',  ( -0.000000000000000000, -0.000000000000000000, 1.000000000000000000 ) ) ;
#585 = ORIENTED_EDGE ( 'NONE', *, *, #616, .T. ) ;
#586 = EDGE_CURVE ( 'NONE', #275, #127, #602, .T. ) ;
#587 = LINE ( 'NONE', #550, #516 ) ;
#588 = CARTESIAN_POINT ( 'NONE',  ( 54.00000000000000000, -16.10000000000000142, 4.100000000000000533 ) ) ;
#589 = CARTESIAN_POINT ( 'NONE',  ( 57.00000000000000000, -13.50000000000000000, 4.999999999999997335 ) ) ;
#590 = EDGE_CURVE ( 'NONE', #502, #342, #296, .T. ) ;
#591 = VECTOR ( 'NONE', #556, 1000.000000000000000 ) ;
#592 = VERTEX_POINT ( 'NONE', #300 ) ;
#593 = LINE ( 'NONE', #225, #190 ) ;
#594 = ORIENTED_EDGE ( 'NONE', *, *, #659, .F. ) ;
#595 = CARTESIAN_POINT ( 'NONE',  ( 57.00000000000000000, -13.50000000000000000, -0.1000000000000002554 ) ) ;
#596 = CIRCLE ( 'NONE', #426, 1.100000000000003642 ) ;
#597 = EDGE_LOOP ( 'NONE', ( #460, #563, #379, #457 ) ) ;
#598 = ADVANCED_FACE ( 'NONE', ( #246, #408, #660 ), #350, .T. ) ;
#599 = ORIENTED_EDGE ( 'NONE', *, *, #568, .T. ) ;
#600 = DIRECTION ( 'NONE',  ( 0.000000000000000000, 0.000000000000000000, -1.000000000000000000 ) ) ;
#601 = AXIS2_PLACEMENT_3D ( 'NONE', #267, #478, #421 ) ;
#602 = LINE ( 'NONE', #132, #311 ) ;
#603 = EDGE_LOOP ( 'NONE', ( #118, #193, #78, #640 ) ) ;
#604 = EDGE_LOOP ( 'NONE', ( #138, #343 ) ) ;
#605 = CIRCLE ( 'NONE', #422, 1.100000000000003642 ) ;
#606 = PLANE ( 'NONE',  #365 ) ;
#607 = VERTEX_POINT ( 'NONE', #392 ) ;
#608 = DIRECTION ( 'NONE',  ( -1.000000000000000000, 0.000000000000000000, 0.000000000000000000 ) ) ;
#609 = AXIS2_PLACEMENT_3D ( 'NONE', #249, #159, #618 ) ;
#610 = FACE_OUTER_BOUND ( 'NONE', #126, .T. ) ;
#611 = VERTEX_POINT ( 'NONE', #244 ) ;
#612 = ADVANCED_FACE ( 'NONE', ( #610 ), #360, .F. ) ;
#613 = DIRECTION ( 'NONE',  ( 0.000000000000000000, 0.000000000000000000, -1.000000000000000000 ) ) ;
#614 = AXIS2_PLACEMENT_3D ( 'NONE', #570, #157, #527 ) ;
#615 = CARTESIAN_POINT ( 'NONE',  ( 73.00000000000000000, -13.50000000000000000, -1.000000000000000000 ) ) ;
#616 = EDGE_CURVE ( 'NONE', #224, #86, #655, .T. ) ;
#617 = CARTESIAN_POINT ( 'NONE',  ( 73.00000000000000000, -13.50000000000000000, 4.999999999999997335 ) ) ;
#618 = DIRECTION ( 'NONE',  ( -1.000000000000000000, 0.000000000000000000, 0.000000000000000000 ) ) ;
#619 = PERSON_AND_ORGANIZATION ( #217, #540 ) ;
#620 = VECTOR ( 'NONE', #511, 1000.000000000000000 ) ;
#621 = AXIS2_PLACEMENT_3D ( 'NONE', #104, #668, #533 ) ;
#622 = DIRECTION ( 'NONE',  ( -0.000000000000000000, -0.000000000000000000, -1.000000000000000000 ) ) ;
#623 = SECURITY_CLASSIFICATION_LEVEL ( 'unclassified' ) ;
#624 = AXIS2_PLACEMENT_3D ( 'NONE', #615, #579, #529 ) ;
#625 = DIRECTION ( 'NONE',  ( -1.000000000000000000, -0.000000000000000000, -0.000000000000000000 ) ) ;
#626 = FACE_OUTER_BOUND ( 'NONE', #99, .T. ) ;
#627 = CARTESIAN_POINT ( 'NONE',  ( 74.09999999999999432, -13.50000000000000000, 4.999999999999997335 ) ) ;
#628 = LINE ( 'NONE', #471, #252 ) ;
#629 = CC_DESIGN_PERSON_AND_ORGANIZATION_ASSIGNMENT ( #204, #416, ( #264 ) ) ;
#630 = ORIENTED_EDGE ( 'NONE', *, *, #353, .T. ) ;
#631 = DIRECTION ( 'NONE',  ( -0.000000000000000000, 1.000000000000000000, 0.000000000000000000 ) ) ;
#632 = CC_DESIGN_APPROVAL ( #125, ( #264 ) ) ;
#633 = CARTESIAN_POINT ( 'NONE',  ( 73.00000000000000000, -13.50000000000000000, 4.999999999999997335 ) ) ;
#634 = DIRECTION ( 'NONE',  ( 0.000000000000000000, 0.000000000000000000, -1.000000000000000000 ) ) ;
#635 = DIRECTION ( 'NONE',  ( 0.000000000000000000, 0.000000000000000000, -1.000000000000000000 ) ) ;
#636 = APPROVAL ( #100, 'UNSPECIFIED' ) ;
#637 = ORIENTED_EDGE ( 'NONE', *, *, #346, .T. ) ;
#638 = CARTESIAN_POINT ( 'NONE',  ( 53.00000000000000000, -16.10000000000000142, 4.100000000000000533 ) ) ;
#639 = DIRECTION ( 'NONE',  ( 0.000000000000000000, 0.000000000000000000, -1.000000000000000000 ) ) ;
#640 = ORIENTED_EDGE ( 'NONE', *, *, #68, .F. ) ;
#641 = CARTESIAN_POINT ( 'NONE',  ( 57.00000000000000000, -13.50000000000000000, -0.1000000000000002554 ) ) ;
#642 = LINE ( 'NONE', #179, #124 ) ;
#643 = CC_DESIGN_SECURITY_CLASSIFICATION ( #95, ( #264 ) ) ;
#644 = EDGE_LOOP ( 'NONE', ( #245, #652 ) ) ;
#645 = VERTEX_POINT ( 'NONE', #461 ) ;
#646 = DIRECTION ( 'NONE',  ( -0.000000000000000000, -1.000000000000000000, -0.000000000000000000 ) ) ;
#647 = ORIENTED_EDGE ( 'NONE', *, *, #254, .T. ) ;
#648 = ORIENTED_EDGE ( 'NONE', *, *, #122, .T. ) ;
#649 = ADVANCED_FACE ( 'NONE', ( #38 ), #241, .F. ) ;
#650 = LINE ( 'NONE', #299, #357 ) ;
#651 = FACE_BOUND ( 'NONE', #366, .T. ) ;
#652 = ORIENTED_EDGE ( 'NONE', *, *, #68, .T. ) ;
#653 = APPROVAL_PERSON_ORGANIZATION ( #430, #636, #153 ) ;
#654 = VERTEX_POINT ( 'NONE', #518 ) ;
#655 = LINE ( 'NONE', #34, #250 ) ;
#656 = ORIENTED_EDGE ( 'NONE', *, *, #248, .F. ) ;
#657 = LINE ( 'NONE', #194, #2 ) ;
#658 = ORIENTED_EDGE ( 'NONE', *, *, #522, .F. ) ;
#659 = EDGE_CURVE ( 'NONE', #359, #654, #401, .T. ) ;
#660 = FACE_OUTER_BOUND ( 'NONE', #284, .T. ) ;
#661 = VERTEX_POINT ( 'NONE', #45 ) ;
#662 = AXIS2_PLACEMENT_3D ( 'NONE', #641, #431, #436 ) ;
#663 = DIRECTION ( 'NONE',  ( 1.000000000000000000, 0.000000000000000000, 0.000000000000000000 ) ) ;
#664 = EDGE_CURVE ( 'NONE', #247, #9, #657, .T. ) ;
#665 = COORDINATED_UNIVERSAL_TIME_OFFSET ( 6, 0, .BEHIND. ) ;
#666 = DIRECTION ( 'NONE',  ( 1.000000000000000000, 0.000000000000000000, 0.000000000000000000 ) ) ;
#667 = APPROVAL_DATE_TIME ( #163, #85 ) ;
#668 = DIRECTION ( 'NONE',  ( 0.000000000000000000, 0.000000000000000000, -1.000000000000000000 ) ) ;
#669 = DIRECTION ( 'NONE',  ( -1.000000000000000000, 0.000000000000000000, 0.000000000000000000 ) ) ;
ENDSEC;
END-ISO-10303-21;
