ISO-10303-21;
HEADER;
FILE_DESCRIPTION (( 'STEP AP203' ),
    '1' );
FILE_NAME ('ARM-103_Grip_moving_finger.step',
    '2026-09-08T04:38:44',
    ( '' ),
    ( '' ),
    'SwSTEP 2.0',
    'SolidWorks 2026',
    '' );
FILE_SCHEMA (( 'CONFIG_CONTROL_DESIGN' ));
ENDSEC;

DATA;
#1 = VERTEX_POINT ( 'NONE', #11 ) ;
#2 = CARTESIAN_POINT ( 'NONE',  ( 0.000000000000000000, 0.000000000000000000, 18.00000000000000355 ) ) ;
#3 = ORIENTED_EDGE ( 'NONE', *, *, #51, .F. ) ;
#4 = CARTESIAN_POINT ( 'NONE',  ( 0.000000000000000000, -8.000000000000000000, 18.00000000000000355 ) ) ;
#5 = FACE_OUTER_BOUND ( 'NONE', #747, .T. ) ;
#6 = AXIS2_PLACEMENT_3D ( 'NONE', #518, #60, #217 ) ;
#7 = FACE_OUTER_BOUND ( 'NONE', #19, .T. ) ;
#8 = CIRCLE ( 'NONE', #132, 1.100000000000000311 ) ;
#9 = ORIENTED_EDGE ( 'NONE', *, *, #398, .T. ) ;
#10 = CARTESIAN_POINT ( 'NONE',  ( 18.00000000000000000, -17.50000000000000000, 18.00000000000000355 ) ) ;
#11 = CARTESIAN_POINT ( 'NONE',  ( 1.100000000000000089, -8.000000000000000000, 15.00000000000000000 ) ) ;
#12 = CARTESIAN_POINT ( 'NONE',  ( -9.099999999999999645, 0.000000000000000000, 18.00000000000000355 ) ) ;
#13 = EDGE_CURVE ( 'NONE', #524, #738, #752, .T. ) ;
#14 = VERTEX_POINT ( 'NONE', #88 ) ;
#15 = CYLINDRICAL_SURFACE ( 'NONE', #889, 1.100000000000000311 ) ;
#16 = VECTOR ( 'NONE', #72, 1000.000000000000000 ) ;
#17 = CARTESIAN_POINT ( 'NONE',  ( -11.00000000000000000, 0.000000000000000000, 18.00000000000000000 ) ) ;
#18 = CARTESIAN_POINT ( 'NONE',  ( 0.000000000000000000, 0.000000000000000000, 0.000000000000000000 ) ) ;
#19 = EDGE_LOOP ( 'NONE', ( #241, #265, #939, #886, #530, #445, #857, #674 ) ) ;
#20 = CARTESIAN_POINT ( 'NONE',  ( 15.00000000000000000, -20.00000000000000000, 0.000000000000000000 ) ) ;
#21 = CARTESIAN_POINT ( 'NONE',  ( 19.09999999999999787, -17.50000000000000000, 0.000000000000000000 ) ) ;
#22 = VECTOR ( 'NONE', #501, 1000.000000000000000 ) ;
#23 = PLANE ( 'NONE',  #800 ) ;
#24 = EDGE_CURVE ( 'NONE', #364, #454, #641, .T. ) ;
#25 = CARTESIAN_POINT ( 'NONE',  ( -6.899999999999999467, 1.347111479062088750E-16, 15.00000000000000000 ) ) ;
#26 = DIRECTION ( 'NONE',  ( -1.000000000000000000, 0.000000000000000000, 0.000000000000000000 ) ) ;
#27 = DIRECTION ( 'NONE',  ( 0.000000000000000000, -0.000000000000000000, 1.000000000000000000 ) ) ;
#28 = CARTESIAN_POINT ( 'NONE',  ( 25.10000000000000142, -17.50000000000000000, 0.000000000000000000 ) ) ;
#29 = CARTESIAN_POINT ( 'NONE',  ( 1.100000000000000089, 8.000000000000000000, 18.00000000000000355 ) ) ;
#30 = EDGE_CURVE ( 'NONE', #369, #766, #606, .T. ) ;
#31 = VECTOR ( 'NONE', #170, 1000.000000000000000 ) ;
#32 = LINE ( 'NONE', #106, #351 ) ;
#33 = EDGE_LOOP ( 'NONE', ( #166, #239, #539, #208 ) ) ;
#34 = AXIS2_PLACEMENT_3D ( 'NONE', #144, #730, #594 ) ;
#35 = FACE_OUTER_BOUND ( 'NONE', #243, .T. ) ;
#36 = CC_DESIGN_PERSON_AND_ORGANIZATION_ASSIGNMENT ( #109, #204, ( #758 ) ) ;
#37 = LINE ( 'NONE', #568, #552 ) ;
#38 = DIRECTION ( 'NONE',  ( -0.000000000000000000, -0.000000000000000000, -1.000000000000000000 ) ) ;
#39 = PRODUCT ( 'ARM-103_Grip_moving_finger', 'ARM-103_Grip_moving_finger', '', ( #611 ) ) ;
#40 = APPROVAL_DATE_TIME ( #123, #509 ) ;
#41 = CC_DESIGN_SECURITY_CLASSIFICATION ( #758, ( #301 ) ) ;
#42 = CARTESIAN_POINT ( 'NONE',  ( 15.00000000000000000, -19.00000000000000000, 18.00000000000000000 ) ) ;
#43 = EDGE_CURVE ( 'NONE', #206, #761, #101, .T. ) ;
#44 = CARTESIAN_POINT ( 'NONE',  ( 0.000000000000000000, 3.000000000000000000, 18.00000000000000000 ) ) ;
#45 = UNCERTAINTY_MEASURE_WITH_UNIT (LENGTH_MEASURE( 1.000000000000000082E-05 ), #316, 'distance_accuracy_value', 'NONE');
#46 = CALENDAR_DATE ( 2026, 7, 9 ) ;
#47 = DIRECTION ( 'NONE',  ( -0.000000000000000000, -0.000000000000000000, 1.000000000000000000 ) ) ;
#48 = VECTOR ( 'NONE', #179, 1000.000000000000000 ) ;
#49 = DIRECTION ( 'NONE',  ( 0.000000000000000000, 0.000000000000000000, 1.000000000000000000 ) ) ;
#50 = CIRCLE ( 'NONE', #338, 1.100000000000000089 ) ;
#51 = EDGE_CURVE ( 'NONE', #535, #683, #657, .T. ) ;
#52 = CARTESIAN_POINT ( 'NONE',  ( 18.00000000000000000, -17.50000000000000000, 0.000000000000000000 ) ) ;
#53 = VERTEX_POINT ( 'NONE', #25 ) ;
#54 = FACE_BOUND ( 'NONE', #663, .T. ) ;
#55 = ORIENTED_EDGE ( 'NONE', *, *, #344, .T. ) ;
#56 = CARTESIAN_POINT ( 'NONE',  ( 0.000000000000000000, 8.000000000000000000, 15.00000000000000000 ) ) ;
#57 = ORIENTED_EDGE ( 'NONE', *, *, #270, .T. ) ;
#58 = CARTESIAN_POINT ( 'NONE',  ( -3.000000000000000000, 0.000000000000000000, 18.00000000000000355 ) ) ;
#59 = VERTEX_POINT ( 'NONE', #21 ) ;
#60 = DIRECTION ( 'NONE',  ( -0.000000000000000000, -0.000000000000000000, -1.000000000000000000 ) ) ;
#61 = ADVANCED_FACE ( 'NONE', ( #321 ), #533, .F. ) ;
#62 = ORIENTED_EDGE ( 'NONE', *, *, #463, .F. ) ;
#63 = CIRCLE ( 'NONE', #325, 1.100000000000000089 ) ;
#64 = CARTESIAN_POINT ( 'NONE',  ( 24.00000000000000000, -17.50000000000000000, 18.00000000000000355 ) ) ;
#65 = VECTOR ( 'NONE', #251, 1000.000000000000000 ) ;
#66 = VECTOR ( 'NONE', #849, 1000.000000000000000 ) ;
#67 = ORIENTED_EDGE ( 'NONE', *, *, #709, .F. ) ;
#68 = CARTESIAN_POINT ( 'NONE',  ( 16.89999999999999858, -17.50000000000000000, 18.00000000000000355 ) ) ;
#69 = ORIENTED_EDGE ( 'NONE', *, *, #354, .F. ) ;
#70 = FACE_OUTER_BOUND ( 'NONE', #700, .T. ) ;
#71 = EDGE_LOOP ( 'NONE', ( #442, #97 ) ) ;
#72 = DIRECTION ( 'NONE',  ( 0.000000000000000000, 1.000000000000000000, 0.000000000000000000 ) ) ;
#73 = ORIENTED_EDGE ( 'NONE', *, *, #127, .F. ) ;
#74 = APPROVAL_PERSON_ORGANIZATION ( #498, #509, #134 ) ;
#75 = ADVANCED_FACE ( 'NONE', ( #468 ), #394, .F. ) ;
#76 = VECTOR ( 'NONE', #238, 1000.000000000000000 ) ;
#77 = CARTESIAN_POINT ( 'NONE',  ( 22.89999999999999858, -17.50000000000000000, 18.00000000000000355 ) ) ;
#78 = ORIENTED_EDGE ( 'NONE', *, *, #397, .F. ) ;
#79 = CYLINDRICAL_SURFACE ( 'NONE', #319, 3.000000000000000000 ) ;
#80 = ORIENTED_EDGE ( 'NONE', *, *, #183, .T. ) ;
#81 = LINE ( 'NONE', #771, #732 ) ;
#82 = EDGE_CURVE ( 'NONE', #812, #163, #329, .T. ) ;
#83 = ORIENTED_EDGE ( 'NONE', *, *, #529, .F. ) ;
#84 = CIRCLE ( 'NONE', #540, 1.100000000000000089 ) ;
#85 = LINE ( 'NONE', #733, #591 ) ;
#86 = ORIENTED_EDGE ( 'NONE', *, *, #172, .F. ) ;
#87 = CARTESIAN_POINT ( 'NONE',  ( 25.10000000000000142, -17.50000000000000000, 18.00000000000000355 ) ) ;
#88 = CARTESIAN_POINT ( 'NONE',  ( -9.099999999999999645, 0.000000000000000000, 15.00000000000000000 ) ) ;
#89 = CARTESIAN_POINT ( 'NONE',  ( 24.00000000000000000, -17.50000000000000000, 18.00000000000000355 ) ) ;
#90 = EDGE_LOOP ( 'NONE', ( #57, #755, #925, #659 ) ) ;
#91 = DIRECTION ( 'NONE',  ( -0.000000000000000000, -0.000000000000000000, -1.000000000000000000 ) ) ;
#92 = CIRCLE ( 'NONE', #710, 1.100000000000000311 ) ;
#93 = FACE_OUTER_BOUND ( 'NONE', #358, .T. ) ;
#94 = CARTESIAN_POINT ( 'NONE',  ( 8.000000000000000000, 0.000000000000000000, 18.00000000000000355 ) ) ;
#95 = EDGE_LOOP ( 'NONE', ( #794, #781 ) ) ;
#96 = ADVANCED_FACE ( 'NONE', ( #93 ), #620, .F. ) ;
#97 = ORIENTED_EDGE ( 'NONE', *, *, #868, .F. ) ;
#98 = CIRCLE ( 'NONE', #446, 1.100000000000000311 ) ;
#99 =( NAMED_UNIT ( * ) SI_UNIT ( $, .STERADIAN. ) SOLID_ANGLE_UNIT ( ) );
#100 = CC_DESIGN_PERSON_AND_ORGANIZATION_ASSIGNMENT ( #703, #561, ( #301 ) ) ;
#101 = LINE ( 'NONE', #17, #353 ) ;
#102 = CARTESIAN_POINT ( 'NONE',  ( 18.00000000000000000, -17.50000000000000000, 18.00000000000000355 ) ) ;
#103 = CARTESIAN_POINT ( 'NONE',  ( 0.000000000000000000, -19.00000000000000000, 18.00000000000000000 ) ) ;
#104 = EDGE_CURVE ( 'NONE', #235, #279, #909, .T. ) ;
#105 = DIRECTION ( 'NONE',  ( -1.000000000000000000, 0.000000000000000000, 0.000000000000000000 ) ) ;
#106 = CARTESIAN_POINT ( 'NONE',  ( 15.00000000000000000, 0.000000000000000000, 15.00000000000000000 ) ) ;
#107 = DIRECTION ( 'NONE',  ( 0.000000000000000000, 1.000000000000000000, 0.000000000000000000 ) ) ;
#108 = EDGE_CURVE ( 'NONE', #59, #163, #627, .T. ) ;
#109 = PERSON_AND_ORGANIZATION ( #135, #223 ) ;
#110 = AXIS2_PLACEMENT_3D ( 'NONE', #600, #684, #615 ) ;
#111 = CARTESIAN_POINT ( 'NONE',  ( 25.10000000000000142, -17.50000000000000000, 18.00000000000000355 ) ) ;
#112 = AXIS2_PLACEMENT_3D ( 'NONE', #601, #107, #27 ) ;
#113 = PRODUCT_DEFINITION_SHAPE ( 'NONE', 'NONE',  #850 ) ;
#114 = VECTOR ( 'NONE', #777, 1000.000000000000000 ) ;
#115 = AXIS2_PLACEMENT_3D ( 'NONE', #148, #941, #447 ) ;
#116 = DIRECTION ( 'NONE',  ( 0.000000000000000000, 0.000000000000000000, 1.000000000000000000 ) ) ;
#117 = CALENDAR_DATE ( 2026, 7, 9 ) ;
#118 = ADVANCED_FACE ( 'NONE', ( #5 ), #311, .F. ) ;
#119 = DIRECTION ( 'NONE',  ( 0.000000000000000000, -0.000000000000000000, -1.000000000000000000 ) ) ;
#120 = EDGE_CURVE ( 'NONE', #947, #226, #187, .T. ) ;
#121 = VERTEX_POINT ( 'NONE', #29 ) ;
#122 = DIRECTION ( 'NONE',  ( 1.000000000000000000, 0.000000000000000000, 0.000000000000000000 ) ) ;
#123 = DATE_AND_TIME ( #117, #472 ) ;
#124 = LOCAL_TIME ( 23, 38, 44.00000000000000000, #421 ) ;
#125 = DIRECTION ( 'NONE',  ( -0.000000000000000000, -0.000000000000000000, -1.000000000000000000 ) ) ;
#126 = ORIENTED_EDGE ( 'NONE', *, *, #571, .F. ) ;
#127 = EDGE_CURVE ( 'NONE', #612, #1, #842, .T. ) ;
#128 = CARTESIAN_POINT ( 'NONE',  ( -8.000000000000000000, 0.000000000000000000, 18.00000000000000355 ) ) ;
#129 = DIRECTION ( 'NONE',  ( 0.000000000000000000, 0.000000000000000000, 1.000000000000000000 ) ) ;
#130 = ORIENTED_EDGE ( 'NONE', *, *, #476, .T. ) ;
#131 = PLANE ( 'NONE',  #413 ) ;
#132 = AXIS2_PLACEMENT_3D ( 'NONE', #416, #705, #291 ) ;
#133 = VERTEX_POINT ( 'NONE', #560 ) ;
#134 = APPROVAL_ROLE ( '' ) ;
#135 = PERSON ( 'UNSPECIFIED', 'UNSPECIFIED', 'UNSPECIFIED', ('UNSPECIFIED'), ('UNSPECIFIED'), ('UNSPECIFIED') ) ;
#136 = LINE ( 'NONE', #363, #580 ) ;
#137 = ORIENTED_EDGE ( 'NONE', *, *, #500, .T. ) ;
#138 = FACE_BOUND ( 'NONE', #366, .T. ) ;
#139 = ADVANCED_FACE ( 'NONE', ( #913 ), #635, .T. ) ;
#140 = ORIENTED_EDGE ( 'NONE', *, *, #397, .T. ) ;
#141 = LINE ( 'NONE', #949, #76 ) ;
#142 = ORIENTED_EDGE ( 'NONE', *, *, #564, .F. ) ;
#143 = AXIS2_PLACEMENT_3D ( 'NONE', #330, #177, #26 ) ;
#144 = CARTESIAN_POINT ( 'NONE',  ( 0.000000000000000000, 0.000000000000000000, 18.00000000000000355 ) ) ;
#145 = ORIENTED_EDGE ( 'NONE', *, *, #318, .T. ) ;
#146 = CARTESIAN_POINT ( 'NONE',  ( 15.00000000000000000, -20.00000000000000000, 18.00000000000000000 ) ) ;
#147 = VERTEX_POINT ( 'NONE', #623 ) ;
#148 = CARTESIAN_POINT ( 'NONE',  ( 18.00000000000000000, -17.50000000000000000, 18.00000000000000355 ) ) ;
#149 = CIRCLE ( 'NONE', #543, 1.100000000000000311 ) ;
#150 = EDGE_LOOP ( 'NONE', ( #62, #9, #546, #191 ) ) ;
#151 = LINE ( 'NONE', #146, #438 ) ;
#152 = EDGE_LOOP ( 'NONE', ( #956, #396, #915, #689 ) ) ;
#153 = CARTESIAN_POINT ( 'NONE',  ( 18.00000000000000000, -17.50000000000000000, 18.00000000000000355 ) ) ;
#154 = ORIENTED_EDGE ( 'NONE', *, *, #859, .T. ) ;
#155 = FACE_BOUND ( 'NONE', #558, .T. ) ;
#156 = VERTEX_POINT ( 'NONE', #420 ) ;
#157 = LOCAL_TIME ( 23, 38, 44.00000000000000000, #490 ) ;
#158 = ADVANCED_FACE ( 'NONE', ( #556 ), #484, .F. ) ;
#159 = DIRECTION ( 'NONE',  ( -0.000000000000000000, -0.000000000000000000, -1.000000000000000000 ) ) ;
#160 = DESIGN_CONTEXT ( 'detailed design', #877, 'design' ) ;
#161 = CARTESIAN_POINT ( 'NONE',  ( 0.000000000000000000, -19.00000000000000000, 18.00000000000000000 ) ) ;
#162 = CARTESIAN_POINT ( 'NONE',  ( 27.00000000000000000, -19.00000000000000000, 15.00000000000000000 ) ) ;
#163 = VERTEX_POINT ( 'NONE', #711 ) ;
#164 = CARTESIAN_POINT ( 'NONE',  ( -8.000000000000000000, 0.000000000000000000, 18.00000000000000355 ) ) ;
#165 = VECTOR ( 'NONE', #784, 1000.000000000000000 ) ;
#166 = ORIENTED_EDGE ( 'NONE', *, *, #920, .F. ) ;
#167 =( NAMED_UNIT ( * ) PLANE_ANGLE_UNIT ( ) SI_UNIT ( $, .RADIAN. ) );
#168 = VECTOR ( 'NONE', #721, 1000.000000000000000 ) ;
#169 = EDGE_LOOP ( 'NONE', ( #335, #816, #487, #377 ) ) ;
#170 = DIRECTION ( 'NONE',  ( 0.000000000000000000, 0.000000000000000000, -1.000000000000000000 ) ) ;
#171 = CARTESIAN_POINT ( 'NONE',  ( 6.899999999999999467, 0.000000000000000000, 18.00000000000000355 ) ) ;
#172 = EDGE_CURVE ( 'NONE', #277, #950, #628, .T. ) ;
#173 = CYLINDRICAL_SURFACE ( 'NONE', #331, 1.100000000000000311 ) ;
#174 = ORIENTED_EDGE ( 'NONE', *, *, #318, .F. ) ;
#175 = DIRECTION ( 'NONE',  ( 1.000000000000000000, 0.000000000000000000, -0.000000000000000000 ) ) ;
#176 = CARTESIAN_POINT ( 'NONE',  ( 15.00000000000000000, -15.00000000000000000, 18.00000000000000000 ) ) ;
#177 = DIRECTION ( 'NONE',  ( -0.000000000000000000, -0.000000000000000000, -1.000000000000000000 ) ) ;
#178 = PRODUCT_RELATED_PRODUCT_CATEGORY ( 'detail', '', ( #39 ) ) ;
#179 = DIRECTION ( 'NONE',  ( -0.000000000000000000, -0.000000000000000000, -1.000000000000000000 ) ) ;
#180 = CIRCLE ( 'NONE', #914, 1.100000000000000089 ) ;
#181 = DIRECTION ( 'NONE',  ( 0.000000000000000000, 0.000000000000000000, -1.000000000000000000 ) ) ;
#182 = AXIS2_PLACEMENT_3D ( 'NONE', #819, #764, #402 ) ;
#183 = EDGE_CURVE ( 'NONE', #900, #279, #553, .T. ) ;
#184 = DIRECTION ( 'NONE',  ( 0.000000000000000000, 0.000000000000000000, -1.000000000000000000 ) ) ;
#185 = VERTEX_POINT ( 'NONE', #192 ) ;
#186 = EDGE_CURVE ( 'NONE', #727, #121, #50, .T. ) ;
#187 = LINE ( 'NONE', #198, #717 ) ;
#188 = VECTOR ( 'NONE', #826, 1000.000000000000000 ) ;
#189 = SECURITY_CLASSIFICATION_LEVEL ( 'unclassified' ) ;
#190 = CARTESIAN_POINT ( 'NONE',  ( 0.000000000000000000, -8.000000000000000000, 18.00000000000000355 ) ) ;
#191 = ORIENTED_EDGE ( 'NONE', *, *, #549, .F. ) ;
#192 = CARTESIAN_POINT ( 'NONE',  ( 0.000000000000000000, -11.00000000000000000, 18.00000000000000000 ) ) ;
#193 = CALENDAR_DATE ( 2026, 7, 9 ) ;
#194 = VECTOR ( 'NONE', #746, 1000.000000000000000 ) ;
#195 = DIRECTION ( 'NONE',  ( -1.000000000000000000, 0.000000000000000000, 0.000000000000000000 ) ) ;
#196 = AXIS2_PLACEMENT_3D ( 'NONE', #161, #838, #907 ) ;
#197 = AXIS2_PLACEMENT_3D ( 'NONE', #285, #365, #278 ) ;
#198 = CARTESIAN_POINT ( 'NONE',  ( 15.00000000000000000, -20.00000000000000000, 18.00000000000000000 ) ) ;
#199 = APPROVAL_ROLE ( '' ) ;
#200 = EDGE_CURVE ( 'NONE', #286, #147, #626, .T. ) ;
#201 = DIRECTION ( 'NONE',  ( 1.000000000000000000, 0.000000000000000000, 0.000000000000000000 ) ) ;
#202 = EDGE_LOOP ( 'NONE', ( #126, #672, #145, #876 ) ) ;
#203 = DIRECTION ( 'NONE',  ( -1.000000000000000000, 0.000000000000000000, 0.000000000000000000 ) ) ;
#204 = PERSON_AND_ORGANIZATION_ROLE ( 'classification_officer' ) ;
#205 = CARTESIAN_POINT ( 'NONE',  ( 0.000000000000000000, 0.000000000000000000, 18.00000000000000355 ) ) ;
#206 = VERTEX_POINT ( 'NONE', #701 ) ;
#207 = CARTESIAN_POINT ( 'NONE',  ( -1.100000000000000089, 8.000000000000000000, 18.00000000000000355 ) ) ;
#208 = ORIENTED_EDGE ( 'NONE', *, *, #767, .T. ) ;
#209 = DATE_AND_TIME ( #46, #157 ) ;
#210 = CARTESIAN_POINT ( 'NONE',  ( -8.000000000000000000, 0.000000000000000000, 18.00000000000000355 ) ) ;
#211 = ORIENTED_EDGE ( 'NONE', *, *, #444, .T. ) ;
#212 = AXIS2_PLACEMENT_3D ( 'NONE', #680, #609, #699 ) ;
#213 = AXIS2_PLACEMENT_3D ( 'NONE', #497, #38, #122 ) ;
#214 = EDGE_CURVE ( 'NONE', #185, #235, #274, .T. ) ;
#215 = CARTESIAN_POINT ( 'NONE',  ( 0.000000000000000000, 8.000000000000000000, 18.00000000000000355 ) ) ;
#216 = ORIENTED_EDGE ( 'NONE', *, *, #444, .F. ) ;
#217 = DIRECTION ( 'NONE',  ( 1.000000000000000000, 0.000000000000000000, 0.000000000000000000 ) ) ;
#218 = ORIENTED_EDGE ( 'NONE', *, *, #811, .F. ) ;
#219 = DIRECTION ( 'NONE',  ( -0.000000000000000000, -0.000000000000000000, -1.000000000000000000 ) ) ;
#220 = ORIENTED_EDGE ( 'NONE', *, *, #13, .T. ) ;
#221 = DIRECTION ( 'NONE',  ( 0.000000000000000000, 0.000000000000000000, -1.000000000000000000 ) ) ;
#222 = EDGE_LOOP ( 'NONE', ( #835, #450, #86, #83 ) ) ;
#223 = ORGANIZATION ( 'UNSPECIFIED', 'UNSPECIFIED', '' ) ;
#224 = DIRECTION ( 'NONE',  ( 1.000000000000000000, 0.000000000000000000, 0.000000000000000000 ) ) ;
#225 = ADVANCED_FACE ( 'NONE', ( #35 ), #926, .F. ) ;
#226 = VERTEX_POINT ( 'NONE', #858 ) ;
#227 = ADVANCED_FACE ( 'NONE', ( #786 ), #844, .F. ) ;
#228 = DIRECTION ( 'NONE',  ( 0.000000000000000000, 0.000000000000000000, -1.000000000000000000 ) ) ;
#229 = EDGE_LOOP ( 'NONE', ( #545, #653 ) ) ;
#230 = AXIS2_PLACEMENT_3D ( 'NONE', #719, #422, #713 ) ;
#231 = CARTESIAN_POINT ( 'NONE',  ( -3.000000000000000000, 0.000000000000000000, 15.00000000000000000 ) ) ;
#232 = EDGE_LOOP ( 'NONE', ( #708, #288 ) ) ;
#233 = FACE_BOUND ( 'NONE', #383, .T. ) ;
#234 = EDGE_CURVE ( 'NONE', #226, #588, #768, .T. ) ;
#235 = VERTEX_POINT ( 'NONE', #103 ) ;
#236 = DIRECTION ( 'NONE',  ( 1.000000000000000000, 0.000000000000000000, 0.000000000000000000 ) ) ;
#237 = CARTESIAN_POINT ( 'NONE',  ( 24.00000000000000000, -17.50000000000000000, 18.00000000000000355 ) ) ;
#238 = DIRECTION ( 'NONE',  ( -0.000000000000000000, -0.000000000000000000, -1.000000000000000000 ) ) ;
#239 = ORIENTED_EDGE ( 'NONE', *, *, #908, .T. ) ;
#240 = CARTESIAN_POINT ( 'NONE',  ( 27.00000000000000000, -15.00000000000000000, 0.000000000000000000 ) ) ;
#241 = ORIENTED_EDGE ( 'NONE', *, *, #951, .T. ) ;
#242 = FACE_OUTER_BOUND ( 'NONE', #799, .T. ) ;
#243 = EDGE_LOOP ( 'NONE', ( #879, #392, #935, #720 ) ) ;
#244 = CARTESIAN_POINT ( 'NONE',  ( 24.00000000000000000, -17.50000000000000000, 18.00000000000000355 ) ) ;
#245 = EDGE_CURVE ( 'NONE', #797, #766, #149, .T. ) ;
#246 = VECTOR ( 'NONE', #856, 1000.000000000000000 ) ;
#247 = DIRECTION ( 'NONE',  ( 0.000000000000000000, 0.000000000000000000, -1.000000000000000000 ) ) ;
#248 = CIRCLE ( 'NONE', #197, 1.100000000000000311 ) ;
#249 = VERTEX_POINT ( 'NONE', #262 ) ;
#250 = DIRECTION ( 'NONE',  ( -1.000000000000000000, 0.000000000000000000, 0.000000000000000000 ) ) ;
#251 = DIRECTION ( 'NONE',  ( -1.000000000000000000, -0.000000000000000000, -0.000000000000000000 ) ) ;
#252 = FACE_BOUND ( 'NONE', #470, .T. ) ;
#253 = CARTESIAN_POINT ( 'NONE',  ( 0.000000000000000000, -19.00000000000000000, 18.00000000000000000 ) ) ;
#254 = EDGE_CURVE ( 'NONE', #954, #612, #921, .T. ) ;
#255 = CARTESIAN_POINT ( 'NONE',  ( 27.00000000000000000, -20.00000000000000000, 0.000000000000000000 ) ) ;
#256 = APPLICATION_CONTEXT ( 'configuration controlled 3d designs of mechanical parts and assemblies' ) ;
#257 = ORIENTED_EDGE ( 'NONE', *, *, #753, .F. ) ;
#258 = DIRECTION ( 'NONE',  ( -0.000000000000000000, -0.000000000000000000, 1.000000000000000000 ) ) ;
#259 = AXIS2_PLACEMENT_3D ( 'NONE', #10, #892, #897 ) ;
#260 = EDGE_CURVE ( 'NONE', #14, #53, #8, .T. ) ;
#261 = ORIENTED_EDGE ( 'NONE', *, *, #234, .F. ) ;
#262 = CARTESIAN_POINT ( 'NONE',  ( 15.00000000000000000, -20.00000000000000000, 0.000000000000000000 ) ) ;
#263 = APPROVAL_STATUS ( 'not_yet_approved' ) ;
#264 = DIRECTION ( 'NONE',  ( 1.000000000000000000, 0.000000000000000000, 0.000000000000000000 ) ) ;
#265 = ORIENTED_EDGE ( 'NONE', *, *, #804, .T. ) ;
#266 = CARTESIAN_POINT ( 'NONE',  ( -1.100000000000000089, -8.000000000000000000, 18.00000000000000355 ) ) ;
#267 = APPROVAL_STATUS ( 'not_yet_approved' ) ;
#268 = LINE ( 'NONE', #852, #165 ) ;
#269 = DIRECTION ( 'NONE',  ( -0.000000000000000000, -0.000000000000000000, -1.000000000000000000 ) ) ;
#270 = EDGE_CURVE ( 'NONE', #369, #724, #248, .T. ) ;
#271 = VECTOR ( 'NONE', #276, 1000.000000000000000 ) ;
#272 = DIRECTION ( 'NONE',  ( 1.000000000000000000, 0.000000000000000000, 0.000000000000000000 ) ) ;
#273 = VERTEX_POINT ( 'NONE', #231 ) ;
#274 = LINE ( 'NONE', #345, #843 ) ;
#275 = CALENDAR_DATE ( 2026, 7, 9 ) ;
#276 = DIRECTION ( 'NONE',  ( 1.000000000000000000, 0.000000000000000000, 0.000000000000000000 ) ) ;
#277 = VERTEX_POINT ( 'NONE', #436 ) ;
#278 = DIRECTION ( 'NONE',  ( 1.000000000000000000, 0.000000000000000000, 0.000000000000000000 ) ) ;
#279 = VERTEX_POINT ( 'NONE', #520 ) ;
#280 = AXIS2_PLACEMENT_3D ( 'NONE', #89, #765, #686 ) ;
#281 = APPROVAL_DATE_TIME ( #851, #412 ) ;
#282 = CYLINDRICAL_SURFACE ( 'NONE', #230, 1.100000000000000311 ) ;
#283 = ADVANCED_FACE ( 'NONE', ( #138, #54, #813, #946, #952, #70 ), #585, .F. ) ;
#284 = ORIENTED_EDGE ( 'NONE', *, *, #362, .F. ) ;
#285 = CARTESIAN_POINT ( 'NONE',  ( 8.000000000000000000, 0.000000000000000000, 18.00000000000000355 ) ) ;
#286 = VERTEX_POINT ( 'NONE', #726 ) ;
#287 = CARTESIAN_POINT ( 'NONE',  ( 24.00000000000000000, -17.50000000000000000, 0.000000000000000000 ) ) ;
#288 = ORIENTED_EDGE ( 'NONE', *, *, #471, .F. ) ;
#289 = AXIS2_PLACEMENT_3D ( 'NONE', #190, #775, #780 ) ;
#290 = ADVANCED_FACE ( 'NONE', ( #430 ), #302, .F. ) ;
#291 = DIRECTION ( 'NONE',  ( 1.000000000000000000, 0.000000000000000000, 0.000000000000000000 ) ) ;
#292 = VECTOR ( 'NONE', #801, 1000.000000000000000 ) ;
#293 = ORIENTED_EDGE ( 'NONE', *, *, #571, .T. ) ;
#294 = LINE ( 'NONE', #668, #361 ) ;
#295 = ORIENTED_EDGE ( 'NONE', *, *, #666, .F. ) ;
#296 = ADVANCED_FACE ( 'NONE', ( #887 ), #957, .F. ) ;
#297 = LINE ( 'NONE', #715, #22 ) ;
#298 = EDGE_LOOP ( 'NONE', ( #386, #895, #419, #513 ) ) ;
#299 = LINE ( 'NONE', #162, #477 ) ;
#300 = ORIENTED_EDGE ( 'NONE', *, *, #734, .F. ) ;
#301 = PRODUCT_DEFINITION_FORMATION_WITH_SPECIFIED_SOURCE ( 'ANY', '', #39, .NOT_KNOWN. ) ;
#302 = PLANE ( 'NONE',  #688 ) ;
#303 = EDGE_CURVE ( 'NONE', #121, #727, #385, .T. ) ;
#304 = ORIENTED_EDGE ( 'NONE', *, *, #709, .T. ) ;
#305 = CARTESIAN_POINT ( 'NONE',  ( -8.000000000000000000, 0.000000000000000000, 15.00000000000000000 ) ) ;
#306 = ORIENTED_EDGE ( 'NONE', *, *, #859, .F. ) ;
#307 = AXIS2_PLACEMENT_3D ( 'NONE', #153, #451, #308 ) ;
#308 = DIRECTION ( 'NONE',  ( 1.000000000000000000, 0.000000000000000000, 0.000000000000000000 ) ) ;
#309 = CLOSED_SHELL ( 'NONE', ( #515, #910, #225, #296, #227, #617, #823, #896, #283, #75, #139, #883, #61, #536, #290, #96, #328, #118, #937, #740, #158, #496, #567, #603, #485, #932 ) ) ;
#310 = AXIS2_PLACEMENT_3D ( 'NONE', #332, #931, #203 ) ;
#311 = PLANE ( 'NONE',  #112 ) ;
#312 = LINE ( 'NONE', #810, #725 ) ;
#313 = ORIENTED_EDGE ( 'NONE', *, *, #120, .F. ) ;
#314 = DIRECTION ( 'NONE',  ( 1.000000000000000000, 0.000000000000000000, 0.000000000000000000 ) ) ;
#315 = DIRECTION ( 'NONE',  ( -0.000000000000000000, -0.000000000000000000, -1.000000000000000000 ) ) ;
#316 =( LENGTH_UNIT ( ) NAMED_UNIT ( * ) SI_UNIT ( .MILLI., .METRE. ) );
#317 = ORIENTED_EDGE ( 'NONE', *, *, #424, .T. ) ;
#318 = EDGE_CURVE ( 'NONE', #727, #364, #574, .T. ) ;
#319 = AXIS2_PLACEMENT_3D ( 'NONE', #739, #662, #673 ) ;
#320 = LINE ( 'NONE', #537, #675 ) ;
#321 = FACE_OUTER_BOUND ( 'NONE', #597, .T. ) ;
#322 = DIRECTION ( 'NONE',  ( 1.000000000000000000, 0.000000000000000000, 0.000000000000000000 ) ) ;
#323 = ORIENTED_EDGE ( 'NONE', *, *, #500, .F. ) ;
#324 = DIRECTION ( 'NONE',  ( 1.000000000000000000, 0.000000000000000000, 0.000000000000000000 ) ) ;
#325 = AXIS2_PLACEMENT_3D ( 'NONE', #56, #651, #201 ) ;
#326 = CARTESIAN_POINT ( 'NONE',  ( 0.000000000000000000, -19.00000000000000000, 18.00000000000000000 ) ) ;
#327 = DIRECTION ( 'NONE',  ( 0.000000000000000000, 0.000000000000000000, -1.000000000000000000 ) ) ;
#328 = ADVANCED_FACE ( 'NONE', ( #882 ), #131, .F. ) ;
#329 = LINE ( 'NONE', #757, #410 ) ;
#330 = CARTESIAN_POINT ( 'NONE',  ( 0.000000000000000000, 0.000000000000000000, 18.00000000000000000 ) ) ;
#331 = AXIS2_PLACEMENT_3D ( 'NONE', #102, #403, #105 ) ;
#332 = CARTESIAN_POINT ( 'NONE',  ( 8.000000000000000000, 0.000000000000000000, 18.00000000000000355 ) ) ;
#333 = EDGE_CURVE ( 'NONE', #147, #206, #544, .T. ) ;
#334 = LINE ( 'NONE', #405, #818 ) ;
#335 = ORIENTED_EDGE ( 'NONE', *, *, #836, .F. ) ;
#336 = DIRECTION ( 'NONE',  ( 1.000000000000000000, 0.000000000000000000, 0.000000000000000000 ) ) ;
#337 = AXIS2_PLACEMENT_3D ( 'NONE', #633, #934, #924 ) ;
#338 = AXIS2_PLACEMENT_3D ( 'NONE', #488, #116, #336 ) ;
#339 = DIRECTION ( 'NONE',  ( 1.000000000000000000, 0.000000000000000000, 0.000000000000000000 ) ) ;
#340 = ORIENTED_EDGE ( 'NONE', *, *, #549, .T. ) ;
#341 = DIRECTION ( 'NONE',  ( -0.000000000000000000, -0.000000000000000000, -1.000000000000000000 ) ) ;
#342 = PERSON_AND_ORGANIZATION ( #135, #223 ) ;
#343 = CARTESIAN_POINT ( 'NONE',  ( 15.00000000000000000, -20.00000000000000000, 18.00000000000000000 ) ) ;
#344 = EDGE_CURVE ( 'NONE', #812, #133, #829, .T. ) ;
#345 = CARTESIAN_POINT ( 'NONE',  ( 0.000000000000000000, -19.00000000000000000, 18.00000000000000000 ) ) ;
#346 = CIRCLE ( 'NONE', #770, 1.100000000000000311 ) ;
#347 = DIRECTION ( 'NONE',  ( 0.000000000000000000, 0.000000000000000000, 1.000000000000000000 ) ) ;
#348 = ORIENTED_EDGE ( 'NONE', *, *, #362, .T. ) ;
#349 = DIRECTION ( 'NONE',  ( -1.000000000000000000, 0.000000000000000000, 0.000000000000000000 ) ) ;
#350 = APPLICATION_PROTOCOL_DEFINITION ( 'international standard', 'config_control_design', 1994, #877 ) ;
#351 = VECTOR ( 'NONE', #817, 1000.000000000000000 ) ;
#352 = LINE ( 'NONE', #943, #271 ) ;
#353 = VECTOR ( 'NONE', #315, 1000.000000000000000 ) ;
#354 = EDGE_CURVE ( 'NONE', #714, #738, #737, .T. ) ;
#355 = DIRECTION ( 'NONE',  ( 0.000000000000000000, 0.000000000000000000, -1.000000000000000000 ) ) ;
#356 = EDGE_CURVE ( 'NONE', #743, #273, #795, .T. ) ;
#357 = DIRECTION ( 'NONE',  ( -0.000000000000000000, -0.000000000000000000, 1.000000000000000000 ) ) ;
#358 = EDGE_LOOP ( 'NONE', ( #69, #130, #407, #220 ) ) ;
#359 = CARTESIAN_POINT ( 'NONE',  ( 15.00000000000000000, -20.00000000000000000, 18.00000000000000000 ) ) ;
#360 = ORIENTED_EDGE ( 'NONE', *, *, #424, .F. ) ;
#361 = VECTOR ( 'NONE', #528, 1000.000000000000000 ) ;
#362 = EDGE_CURVE ( 'NONE', #586, #502, #426, .T. ) ;
#363 = CARTESIAN_POINT ( 'NONE',  ( 1.100000000000000089, -8.000000000000000000, 18.00000000000000355 ) ) ;
#364 = VERTEX_POINT ( 'NONE', #376 ) ;
#365 = DIRECTION ( 'NONE',  ( 0.000000000000000000, 0.000000000000000000, 1.000000000000000000 ) ) ;
#366 = EDGE_LOOP ( 'NONE', ( #73, #942 ) ) ;
#367 = CC_DESIGN_PERSON_AND_ORGANIZATION_ASSIGNMENT ( #433, #783, ( #301 ) ) ;
#368 = CARTESIAN_POINT ( 'NONE',  ( -6.899999999999999467, 1.347111479062088750E-16, 18.00000000000000355 ) ) ;
#369 = VERTEX_POINT ( 'NONE', #665 ) ;
#370 = CIRCLE ( 'NONE', #613, 11.00000000000000000 ) ;
#371 = DIRECTION ( 'NONE',  ( 0.000000000000000000, 0.000000000000000000, -1.000000000000000000 ) ) ;
#372 = ORIENTED_EDGE ( 'NONE', *, *, #270, .F. ) ;
#373 = FACE_OUTER_BOUND ( 'NONE', #152, .T. ) ;
#374 = EDGE_LOOP ( 'NONE', ( #304, #788 ) ) ;
#375 = EDGE_CURVE ( 'NONE', #743, #824, #874, .T. ) ;
#376 = CARTESIAN_POINT ( 'NONE',  ( -1.100000000000000089, 8.000000000000000000, 15.00000000000000000 ) ) ;
#377 = ORIENTED_EDGE ( 'NONE', *, *, #260, .T. ) ;
#378 = CARTESIAN_POINT ( 'NONE',  ( 3.000000000000000000, 3.673940397442059868E-16, 15.00000000000000000 ) ) ;
#379 = ORIENTED_EDGE ( 'NONE', *, *, #671, .F. ) ;
#380 = FACE_OUTER_BOUND ( 'NONE', #760, .T. ) ;
#381 = EDGE_LOOP ( 'NONE', ( #435, #575, #137, #218 ) ) ;
#382 = FACE_BOUND ( 'NONE', #736, .T. ) ;
#383 = EDGE_LOOP ( 'NONE', ( #867, #216 ) ) ;
#384 = CYLINDRICAL_SURFACE ( 'NONE', #460, 1.100000000000000311 ) ;
#385 = CIRCLE ( 'NONE', #462, 1.100000000000000089 ) ;
#386 = ORIENTED_EDGE ( 'NONE', *, *, #630, .T. ) ;
#387 = CARTESIAN_POINT ( 'NONE',  ( -11.00000000000000000, 0.000000000000000000, 15.00000000000000000 ) ) ;
#388 = ORIENTED_EDGE ( 'NONE', *, *, #796, .F. ) ;
#389 = CARTESIAN_POINT ( 'NONE',  ( 1.100000000000000089, -8.000000000000000000, 18.00000000000000355 ) ) ;
#390 = DIRECTION ( 'NONE',  ( -0.000000000000000000, -0.000000000000000000, -1.000000000000000000 ) ) ;
#391 = CYLINDRICAL_SURFACE ( 'NONE', #143, 11.00000000000000000 ) ;
#392 = ORIENTED_EDGE ( 'NONE', *, *, #652, .T. ) ;
#393 = DIRECTION ( 'NONE',  ( 0.000000000000000000, 0.000000000000000000, 1.000000000000000000 ) ) ;
#394 = PLANE ( 'NONE',  #196 ) ;
#395 = DIRECTION ( 'NONE',  ( 0.000000000000000000, 0.000000000000000000, 1.000000000000000000 ) ) ;
#396 = ORIENTED_EDGE ( 'NONE', *, *, #494, .T. ) ;
#397 = EDGE_CURVE ( 'NONE', #429, #399, #297, .T. ) ;
#398 = EDGE_CURVE ( 'NONE', #683, #535, #930, .T. ) ;
#399 = VERTEX_POINT ( 'NONE', #919 ) ;
#400 = DIRECTION ( 'NONE',  ( 1.000000000000000000, 0.000000000000000000, 0.000000000000000000 ) ) ;
#401 = EDGE_CURVE ( 'NONE', #1, #612, #180, .T. ) ;
#402 = DIRECTION ( 'NONE',  ( -1.000000000000000000, 0.000000000000000000, 0.000000000000000000 ) ) ;
#403 = DIRECTION ( 'NONE',  ( 0.000000000000000000, 0.000000000000000000, -1.000000000000000000 ) ) ;
#404 = CARTESIAN_POINT ( 'NONE',  ( 8.000000000000000000, 0.000000000000000000, 15.00000000000000000 ) ) ;
#405 = CARTESIAN_POINT ( 'NONE',  ( 0.000000000000000000, -19.00000000000000000, 18.00000000000000000 ) ) ;
#406 = LINE ( 'NONE', #830, #31 ) ;
#407 = ORIENTED_EDGE ( 'NONE', *, *, #666, .T. ) ;
#408 = CARTESIAN_POINT ( 'NONE',  ( 0.000000000000000000, -19.00000000000000000, 15.00000000000000000 ) ) ;
#409 = CIRCLE ( 'NONE', #307, 1.100000000000000311 ) ;
#410 = VECTOR ( 'NONE', #457, 1000.000000000000000 ) ;
#411 = PERSON_AND_ORGANIZATION_ROLE ( 'creator' ) ;
#412 = APPROVAL ( #865, 'UNSPECIFIED' ) ;
#413 = AXIS2_PLACEMENT_3D ( 'NONE', #359, #649, #660 ) ;
#414 = LINE ( 'NONE', #486, #776 ) ;
#415 = EDGE_LOOP ( 'NONE', ( #459, #293, #483, #174 ) ) ;
#416 = CARTESIAN_POINT ( 'NONE',  ( -8.000000000000000000, 0.000000000000000000, 15.00000000000000000 ) ) ;
#417 = DATE_TIME_ROLE ( 'creation_date' ) ;
#418 = DIRECTION ( 'NONE',  ( 0.000000000000000000, -1.000000000000000000, 0.000000000000000000 ) ) ;
#419 = ORIENTED_EDGE ( 'NONE', *, *, #868, .T. ) ;
#420 = CARTESIAN_POINT ( 'NONE',  ( 27.00000000000000000, -15.00000000000000000, 15.00000000000000000 ) ) ;
#421 = COORDINATED_UNIVERSAL_TIME_OFFSET ( 6, 0, .BEHIND. ) ;
#422 = DIRECTION ( 'NONE',  ( 0.000000000000000000, 0.000000000000000000, -1.000000000000000000 ) ) ;
#423 = ORIENTED_EDGE ( 'NONE', *, *, #82, .T. ) ;
#424 = EDGE_CURVE ( 'NONE', #502, #714, #32, .T. ) ;
#425 = EDGE_CURVE ( 'NONE', #954, #516, #945, .T. ) ;
#426 = LINE ( 'NONE', #514, #292 ) ;
#427 = CIRCLE ( 'NONE', #809, 3.000000000000000000 ) ;
#428 = DIRECTION ( 'NONE',  ( 1.000000000000000000, 0.000000000000000000, 0.000000000000000000 ) ) ;
#429 = VERTEX_POINT ( 'NONE', #467 ) ;
#430 = FACE_OUTER_BOUND ( 'NONE', #888, .T. ) ;
#431 = EDGE_CURVE ( 'NONE', #845, #273, #427, .T. ) ;
#432 = ORIENTED_EDGE ( 'NONE', *, *, #901, .F. ) ;
#433 = PERSON_AND_ORGANIZATION ( #135, #223 ) ;
#434 = CARTESIAN_POINT ( 'NONE',  ( 27.00000000000000000, -15.00000000000000000, 18.00000000000000000 ) ) ;
#435 = ORIENTED_EDGE ( 'NONE', *, *, #456, .F. ) ;
#436 = CARTESIAN_POINT ( 'NONE',  ( 22.89999999999999858, -17.50000000000000000, 0.000000000000000000 ) ) ;
#437 = ORIENTED_EDGE ( 'NONE', *, *, #104, .F. ) ;
#438 = VECTOR ( 'NONE', #744, 1000.000000000000000 ) ;
#439 = CARTESIAN_POINT ( 'NONE',  ( -6.899999999999999467, 1.347111479062088750E-16, 18.00000000000000355 ) ) ;
#440 = ORIENTED_EDGE ( 'NONE', *, *, #796, .T. ) ;
#441 = CARTESIAN_POINT ( 'NONE',  ( 27.00000000000000000, -19.00000000000000000, 18.00000000000000000 ) ) ;
#442 = ORIENTED_EDGE ( 'NONE', *, *, #260, .F. ) ;
#443 = DIRECTION ( 'NONE',  ( -1.000000000000000000, 0.000000000000000000, 0.000000000000000000 ) ) ;
#444 = EDGE_CURVE ( 'NONE', #516, #954, #84, .T. ) ;
#445 = ORIENTED_EDGE ( 'NONE', *, *, #333, .T. ) ;
#446 = AXIS2_PLACEMENT_3D ( 'NONE', #52, #357, #646 ) ;
#447 = DIRECTION ( 'NONE',  ( 1.000000000000000000, 0.000000000000000000, 0.000000000000000000 ) ) ;
#448 = ORIENTED_EDGE ( 'NONE', *, *, #375, .F. ) ;
#449 = CYLINDRICAL_SURFACE ( 'NONE', #598, 3.000000000000000000 ) ;
#450 = ORIENTED_EDGE ( 'NONE', *, *, #463, .T. ) ;
#451 = DIRECTION ( 'NONE',  ( 0.000000000000000000, 0.000000000000000000, 1.000000000000000000 ) ) ;
#452 = ORIENTED_EDGE ( 'NONE', *, *, #691, .T. ) ;
#453 = FACE_BOUND ( 'NONE', #912, .T. ) ;
#454 = VERTEX_POINT ( 'NONE', #631 ) ;
#455 = CARTESIAN_POINT ( 'NONE',  ( 0.000000000000000000, 0.000000000000000000, 18.00000000000000000 ) ) ;
#456 = EDGE_CURVE ( 'NONE', #206, #185, #763, .T. ) ;
#457 = DIRECTION ( 'NONE',  ( 0.000000000000000000, 0.000000000000000000, -1.000000000000000000 ) ) ;
#458 = CARTESIAN_POINT ( 'NONE',  ( 15.00000000000000000, -15.00000000000000000, 15.00000000000000000 ) ) ;
#459 = ORIENTED_EDGE ( 'NONE', *, *, #186, .T. ) ;
#460 = AXIS2_PLACEMENT_3D ( 'NONE', #164, #676, #605 ) ;
#461 = DIRECTION ( 'NONE',  ( 0.000000000000000000, 0.000000000000000000, -1.000000000000000000 ) ) ;
#462 = AXIS2_PLACEMENT_3D ( 'NONE', #215, #936, #654 ) ;
#463 = EDGE_CURVE ( 'NONE', #683, #950, #834, .T. ) ;
#464 = ORIENTED_EDGE ( 'NONE', *, *, #779, .F. ) ;
#465 = APPLICATION_PROTOCOL_DEFINITION ( 'international standard', 'config_control_design', 1994, #256 ) ;
#466 = ORIENTED_EDGE ( 'NONE', *, *, #43, .F. ) ;
#467 = CARTESIAN_POINT ( 'NONE',  ( 27.00000000000000000, 3.000000000000000000, 15.00000000000000000 ) ) ;
#468 = FACE_OUTER_BOUND ( 'NONE', #685, .T. ) ;
#469 = DIRECTION ( 'NONE',  ( 0.000000000000000000, 0.000000000000000000, 1.000000000000000000 ) ) ;
#470 = EDGE_LOOP ( 'NONE', ( #722, #340 ) ) ;
#471 = EDGE_CURVE ( 'NONE', #133, #812, #409, .T. ) ;
#472 = LOCAL_TIME ( 23, 38, 44.00000000000000000, #706 ) ;
#473 = CARTESIAN_POINT ( 'NONE',  ( 0.000000000000000000, 0.000000000000000000, 15.00000000000000000 ) ) ;
#474 = DIRECTION ( 'NONE',  ( 0.000000000000000000, -0.000000000000000000, -1.000000000000000000 ) ) ;
#475 = CARTESIAN_POINT ( 'NONE',  ( 9.099999999999999645, 1.347111479062088750E-16, 18.00000000000000355 ) ) ;
#476 = EDGE_CURVE ( 'NONE', #714, #156, #320, .T. ) ;
#477 = VECTOR ( 'NONE', #805, 1000.000000000000000 ) ;
#478 = ORIENTED_EDGE ( 'NONE', *, *, #639, .T. ) ;
#479 = AXIS2_PLACEMENT_3D ( 'NONE', #176, #548, #474 ) ;
#480 = CARTESIAN_POINT ( 'NONE',  ( 0.000000000000000000, 0.000000000000000000, 18.00000000000000000 ) ) ;
#481 = DIRECTION ( 'NONE',  ( -1.000000000000000000, 0.000000000000000000, 0.000000000000000000 ) ) ;
#482 = FACE_OUTER_BOUND ( 'NONE', #222, .T. ) ;
#483 = ORIENTED_EDGE ( 'NONE', *, *, #671, .T. ) ;
#484 = CYLINDRICAL_SURFACE ( 'NONE', #310, 1.100000000000000311 ) ;
#485 = ADVANCED_FACE ( 'NONE', ( #902 ), #15, .F. ) ;
#486 = CARTESIAN_POINT ( 'NONE',  ( 19.09999999999999787, -17.50000000000000000, 18.00000000000000355 ) ) ;
#487 = ORIENTED_EDGE ( 'NONE', *, *, #664, .T. ) ;
#488 = CARTESIAN_POINT ( 'NONE',  ( 0.000000000000000000, 8.000000000000000000, 18.00000000000000355 ) ) ;
#489 = CIRCLE ( 'NONE', #525, 1.100000000000000311 ) ;
#490 = COORDINATED_UNIVERSAL_TIME_OFFSET ( 6, 0, .BEHIND. ) ;
#491 = CYLINDRICAL_SURFACE ( 'NONE', #289, 1.100000000000000089 ) ;
#492 = DIRECTION ( 'NONE',  ( -1.000000000000000000, 0.000000000000000000, 0.000000000000000000 ) ) ;
#493 = DATE_TIME_ROLE ( 'classification_date' ) ;
#494 = EDGE_CURVE ( 'NONE', #824, #845, #81, .T. ) ;
#495 = CARTESIAN_POINT ( 'NONE',  ( 0.000000000000000000, 3.000000000000000000, 18.00000000000000000 ) ) ;
#496 = ADVANCED_FACE ( 'NONE', ( #822 ), #384, .F. ) ;
#497 = CARTESIAN_POINT ( 'NONE',  ( 0.000000000000000000, -8.000000000000000000, 15.00000000000000000 ) ) ;
#498 = PERSON_AND_ORGANIZATION ( #135, #223 ) ;
#499 = CYLINDRICAL_SURFACE ( 'NONE', #505, 1.100000000000000089 ) ;
#500 = EDGE_CURVE ( 'NONE', #761, #900, #503, .T. ) ;
#501 = DIRECTION ( 'NONE',  ( -1.000000000000000000, -0.000000000000000000, -0.000000000000000000 ) ) ;
#502 = VERTEX_POINT ( 'NONE', #542 ) ;
#503 = CIRCLE ( 'NONE', #110, 11.00000000000000000 ) ;
#504 = CALENDAR_DATE ( 2026, 7, 9 ) ;
#505 = AXIS2_PLACEMENT_3D ( 'NONE', #938, #707, #576 ) ;
#506 = DIRECTION ( 'NONE',  ( 1.000000000000000000, 0.000000000000000000, 0.000000000000000000 ) ) ;
#507 = AXIS2_PLACEMENT_3D ( 'NONE', #237, #832, #899 ) ;
#508 = EDGE_LOOP ( 'NONE', ( #647, #750, #423, #808 ) ) ;
#509 = APPROVAL ( #263, 'UNSPECIFIED' ) ;
#510 = DIRECTION ( 'NONE',  ( 0.000000000000000000, 0.000000000000000000, 1.000000000000000000 ) ) ;
#511 = ORIENTED_EDGE ( 'NONE', *, *, #652, .F. ) ;
#512 = DIRECTION ( 'NONE',  ( 1.000000000000000000, 0.000000000000000000, 0.000000000000000000 ) ) ;
#513 = ORIENTED_EDGE ( 'NONE', *, *, #664, .F. ) ;
#514 = CARTESIAN_POINT ( 'NONE',  ( 15.00000000000000000, -19.00000000000000000, 18.00000000000000000 ) ) ;
#515 = ADVANCED_FACE ( 'NONE', ( #756 ), #751, .F. ) ;
#516 = VERTEX_POINT ( 'NONE', #389 ) ;
#517 =( GEOMETRIC_REPRESENTATION_CONTEXT ( 3 ) GLOBAL_UNCERTAINTY_ASSIGNED_CONTEXT ( ( #45 ) ) GLOBAL_UNIT_ASSIGNED_CONTEXT ( ( #316, #167, #99 ) ) REPRESENTATION_CONTEXT ( 'NONE', 'WORKASPACE' ) );
#518 = CARTESIAN_POINT ( 'NONE',  ( 0.000000000000000000, 0.000000000000000000, 15.00000000000000000 ) ) ;
#519 = ORIENTED_EDGE ( 'NONE', *, *, #901, .T. ) ;
#520 = CARTESIAN_POINT ( 'NONE',  ( 0.000000000000000000, -19.00000000000000000, 15.00000000000000000 ) ) ;
#521 = ORIENTED_EDGE ( 'NONE', *, *, #398, .F. ) ;
#522 = CC_DESIGN_PERSON_AND_ORGANIZATION_ASSIGNMENT ( #855, #411, ( #850 ) ) ;
#523 = CARTESIAN_POINT ( 'NONE',  ( -3.000000000000000000, 0.000000000000000000, 18.00000000000000355 ) ) ;
#524 = VERTEX_POINT ( 'NONE', #240 ) ;
#525 = AXIS2_PLACEMENT_3D ( 'NONE', #210, #347, #506 ) ;
#526 = DIRECTION ( 'NONE',  ( -1.000000000000000000, 0.000000000000000000, 0.000000000000000000 ) ) ;
#527 = ORIENTED_EDGE ( 'NONE', *, *, #734, .T. ) ;
#528 = DIRECTION ( 'NONE',  ( -0.000000000000000000, -0.000000000000000000, -1.000000000000000000 ) ) ;
#529 = EDGE_CURVE ( 'NONE', #535, #277, #406, .T. ) ;
#530 = ORIENTED_EDGE ( 'NONE', *, *, #200, .T. ) ;
#531 = EDGE_CURVE ( 'NONE', #738, #249, #741, .T. ) ;
#532 = DIRECTION ( 'NONE',  ( 0.000000000000000000, 0.000000000000000000, -1.000000000000000000 ) ) ;
#533 = PLANE ( 'NONE',  #614 ) ;
#534 = FACE_BOUND ( 'NONE', #538, .T. ) ;
#535 = VERTEX_POINT ( 'NONE', #77 ) ;
#536 = ADVANCED_FACE ( 'NONE', ( #380 ), #670, .F. ) ;
#537 = CARTESIAN_POINT ( 'NONE',  ( 0.000000000000000000, -15.00000000000000000, 15.00000000000000000 ) ) ;
#538 = EDGE_LOOP ( 'NONE', ( #3, #521 ) ) ;
#539 = ORIENTED_EDGE ( 'NONE', *, *, #30, .T. ) ;
#540 = AXIS2_PLACEMENT_3D ( 'NONE', #4, #393, #324 ) ;
#541 = VECTOR ( 'NONE', #550, 1000.000000000000000 ) ;
#542 = CARTESIAN_POINT ( 'NONE',  ( 15.00000000000000000, -19.00000000000000000, 15.00000000000000000 ) ) ;
#543 = AXIS2_PLACEMENT_3D ( 'NONE', #404, #773, #696 ) ;
#544 = CIRCLE ( 'NONE', #702, 11.00000000000000000 ) ;
#545 = ORIENTED_EDGE ( 'NONE', *, *, #767, .F. ) ;
#546 = ORIENTED_EDGE ( 'NONE', *, *, #529, .T. ) ;
#547 = CARTESIAN_POINT ( 'NONE',  ( 0.000000000000000000, -8.000000000000000000, 15.00000000000000000 ) ) ;
#548 = DIRECTION ( 'NONE',  ( 0.000000000000000000, -1.000000000000000000, 0.000000000000000000 ) ) ;
#549 = EDGE_CURVE ( 'NONE', #950, #277, #656, .T. ) ;
#550 = DIRECTION ( 'NONE',  ( 0.000000000000000000, 0.000000000000000000, -1.000000000000000000 ) ) ;
#551 = DIRECTION ( 'NONE',  ( 1.000000000000000000, 0.000000000000000000, 0.000000000000000000 ) ) ;
#552 = VECTOR ( 'NONE', #860, 1000.000000000000000 ) ;
#553 = LINE ( 'NONE', #408, #66 ) ;
#554 = AXIS2_PLACEMENT_3D ( 'NONE', #782, #565, #349 ) ;
#555 = ADVANCED_BREP_SHAPE_REPRESENTATION ( 'ARM-103_Grip_moving_finger', ( #953, #940 ), #517 ) ;
#556 = FACE_OUTER_BOUND ( 'NONE', #33, .T. ) ;
#557 = DIRECTION ( 'NONE',  ( 0.000000000000000000, 0.000000000000000000, 1.000000000000000000 ) ) ;
#558 = EDGE_LOOP ( 'NONE', ( #806, #650 ) ) ;
#559 = AXIS2_PLACEMENT_3D ( 'NONE', #480, #469, #621 ) ;
#560 = CARTESIAN_POINT ( 'NONE',  ( 19.09999999999999787, -17.50000000000000000, 18.00000000000000355 ) ) ;
#561 = PERSON_AND_ORGANIZATION_ROLE ( 'design_supplier' ) ;
#562 = LINE ( 'NONE', #343, #748 ) ;
#563 = ORIENTED_EDGE ( 'NONE', *, *, #13, .F. ) ;
#564 = EDGE_CURVE ( 'NONE', #279, #502, #352, .T. ) ;
#565 = DIRECTION ( 'NONE',  ( 0.000000000000000000, 0.000000000000000000, -1.000000000000000000 ) ) ;
#566 = VECTOR ( 'NONE', #906, 1000.000000000000000 ) ;
#567 = ADVANCED_FACE ( 'NONE', ( #848 ), #499, .F. ) ;
#568 = CARTESIAN_POINT ( 'NONE',  ( -9.099999999999999645, 0.000000000000000000, 18.00000000000000355 ) ) ;
#569 = EDGE_LOOP ( 'NONE', ( #466, #803, #388, #478 ) ) ;
#570 = DIRECTION ( 'NONE',  ( -1.000000000000000000, -0.000000000000000000, -0.000000000000000000 ) ) ;
#571 = EDGE_CURVE ( 'NONE', #121, #454, #268, .T. ) ;
#572 = LINE ( 'NONE', #434, #246 ) ;
#573 = ORIENTED_EDGE ( 'NONE', *, *, #697, .F. ) ;
#574 = LINE ( 'NONE', #207, #583 ) ;
#575 = ORIENTED_EDGE ( 'NONE', *, *, #43, .T. ) ;
#576 = DIRECTION ( 'NONE',  ( -1.000000000000000000, 0.000000000000000000, 0.000000000000000000 ) ) ;
#577 = ORIENTED_EDGE ( 'NONE', *, *, #82, .F. ) ;
#578 = DIRECTION ( 'NONE',  ( 1.000000000000000000, 0.000000000000000000, -0.000000000000000000 ) ) ;
#579 = EDGE_LOOP ( 'NONE', ( #300, #604 ) ) ;
#580 = VECTOR ( 'NONE', #793, 1000.000000000000000 ) ;
#581 = LINE ( 'NONE', #658, #16 ) ;
#582 = ORIENTED_EDGE ( 'NONE', *, *, #494, .F. ) ;
#583 = VECTOR ( 'NONE', #371, 1000.000000000000000 ) ;
#584 = CC_DESIGN_PERSON_AND_ORGANIZATION_ASSIGNMENT ( #342, #629, ( #39 ) ) ;
#585 = PLANE ( 'NONE',  #735 ) ;
#586 = VERTEX_POINT ( 'NONE', #42 ) ;
#587 = DIRECTION ( 'NONE',  ( -0.000000000000000000, -0.000000000000000000, -1.000000000000000000 ) ) ;
#588 = VERTEX_POINT ( 'NONE', #643 ) ;
#589 = DIRECTION ( 'NONE',  ( 0.000000000000000000, 0.000000000000000000, 1.000000000000000000 ) ) ;
#590 = ORIENTED_EDGE ( 'NONE', *, *, #354, .T. ) ;
#591 = VECTOR ( 'NONE', #512, 1000.000000000000000 ) ;
#592 = CARTESIAN_POINT ( 'NONE',  ( 9.099999999999999645, 1.347111479062088750E-16, 15.00000000000000000 ) ) ;
#593 = ORIENTED_EDGE ( 'NONE', *, *, #811, .T. ) ;
#594 = DIRECTION ( 'NONE',  ( 1.000000000000000000, 0.000000000000000000, 0.000000000000000000 ) ) ;
#595 = ORIENTED_EDGE ( 'NONE', *, *, #531, .T. ) ;
#596 = CARTESIAN_POINT ( 'NONE',  ( 6.899999999999999467, 0.000000000000000000, 15.00000000000000000 ) ) ;
#597 = EDGE_LOOP ( 'NONE', ( #929, #593, #80, #437 ) ) ;
#598 = AXIS2_PLACEMENT_3D ( 'NONE', #2, #221, #443 ) ;
#599 = VECTOR ( 'NONE', #570, 1000.000000000000000 ) ;
#600 = CARTESIAN_POINT ( 'NONE',  ( 0.000000000000000000, 0.000000000000000000, 15.00000000000000000 ) ) ;
#601 = CARTESIAN_POINT ( 'NONE',  ( 15.00000000000000000, -20.00000000000000000, 18.00000000000000000 ) ) ;
#602 = DIRECTION ( 'NONE',  ( 1.000000000000000000, 0.000000000000000000, 0.000000000000000000 ) ) ;
#603 = ADVANCED_FACE ( 'NONE', ( #723 ), #491, .F. ) ;
#604 = ORIENTED_EDGE ( 'NONE', *, *, #431, .F. ) ;
#605 = DIRECTION ( 'NONE',  ( -1.000000000000000000, 0.000000000000000000, 0.000000000000000000 ) ) ;
#606 = LINE ( 'NONE', #171, #541 ) ;
#607 = EDGE_LOOP ( 'NONE', ( #582, #772, #884, #527 ) ) ;
#608 = APPROVAL ( #267, 'UNSPECIFIED' ) ;
#609 = DIRECTION ( 'NONE',  ( 0.000000000000000000, 0.000000000000000000, 1.000000000000000000 ) ) ;
#610 = DIRECTION ( 'NONE',  ( 1.000000000000000000, 0.000000000000000000, 0.000000000000000000 ) ) ;
#611 = MECHANICAL_CONTEXT ( 'NONE', #256, 'mechanical' ) ;
#612 = VERTEX_POINT ( 'NONE', #866 ) ;
#613 = AXIS2_PLACEMENT_3D ( 'NONE', #928, #129, #272 ) ;
#614 = AXIS2_PLACEMENT_3D ( 'NONE', #326, #610, #247 ) ;
#615 = DIRECTION ( 'NONE',  ( 1.000000000000000000, 0.000000000000000000, 0.000000000000000000 ) ) ;
#616 = AXIS2_PLACEMENT_3D ( 'NONE', #128, #184, #481 ) ;
#617 = ADVANCED_FACE ( 'NONE', ( #704 ), #282, .F. ) ;
#618 = ORIENTED_EDGE ( 'NONE', *, *, #639, .F. ) ;
#619 = CARTESIAN_POINT ( 'NONE',  ( 15.00000000000000000, -20.00000000000000000, 18.00000000000000000 ) ) ;
#620 = PLANE ( 'NONE',  #479 ) ;
#621 = DIRECTION ( 'NONE',  ( 1.000000000000000000, 0.000000000000000000, -0.000000000000000000 ) ) ;
#622 = CC_DESIGN_APPROVAL ( #412, ( #850 ) ) ;
#623 = CARTESIAN_POINT ( 'NONE',  ( 10.58300524425836109, 3.000000000000000000, 18.00000000000000000 ) ) ;
#624 = CARTESIAN_POINT ( 'NONE',  ( -1.100000000000000089, -8.000000000000000000, 18.00000000000000355 ) ) ;
#625 = AXIS2_PLACEMENT_3D ( 'NONE', #495, #418, #119 ) ;
#626 = LINE ( 'NONE', #44, #599 ) ;
#627 = CIRCLE ( 'NONE', #182, 1.100000000000000311 ) ;
#628 = CIRCLE ( 'NONE', #828, 1.100000000000000311 ) ;
#629 = PERSON_AND_ORGANIZATION_ROLE ( 'design_owner' ) ;
#630 = EDGE_CURVE ( 'NONE', #833, #729, #489, .T. ) ;
#631 = CARTESIAN_POINT ( 'NONE',  ( 1.100000000000000089, 8.000000000000000000, 15.00000000000000000 ) ) ;
#632 = DIRECTION ( 'NONE',  ( -1.000000000000000000, 0.000000000000000000, 0.000000000000000000 ) ) ;
#633 = CARTESIAN_POINT ( 'NONE',  ( -8.000000000000000000, 0.000000000000000000, 18.00000000000000355 ) ) ;
#634 = EDGE_CURVE ( 'NONE', #133, #59, #414, .T. ) ;
#635 = CYLINDRICAL_SURFACE ( 'NONE', #718, 11.00000000000000000 ) ;
#636 = DIRECTION ( 'NONE',  ( 0.000000000000000000, 0.000000000000000000, -1.000000000000000000 ) ) ;
#637 = ORIENTED_EDGE ( 'NONE', *, *, #104, .T. ) ;
#638 = DIRECTION ( 'NONE',  ( 1.000000000000000000, 0.000000000000000000, 0.000000000000000000 ) ) ;
#639 = EDGE_CURVE ( 'NONE', #399, #761, #370, .T. ) ;
#640 = CIRCLE ( 'NONE', #6, 3.000000000000000000 ) ;
#641 = CIRCLE ( 'NONE', #871, 1.100000000000000089 ) ;
#642 = PERSON_AND_ORGANIZATION ( #135, #223 ) ;
#643 = CARTESIAN_POINT ( 'NONE',  ( 27.00000000000000000, -20.00000000000000000, 0.000000000000000000 ) ) ;
#644 = ORIENTED_EDGE ( 'NONE', *, *, #908, .F. ) ;
#645 = CARTESIAN_POINT ( 'NONE',  ( 0.000000000000000000, 8.000000000000000000, 18.00000000000000355 ) ) ;
#646 = DIRECTION ( 'NONE',  ( -1.000000000000000000, 0.000000000000000000, 0.000000000000000000 ) ) ;
#647 = ORIENTED_EDGE ( 'NONE', *, *, #634, .F. ) ;
#648 = APPROVAL_PERSON_ORGANIZATION ( #642, #412, #778 ) ;
#649 = DIRECTION ( 'NONE',  ( 1.000000000000000000, 0.000000000000000000, 0.000000000000000000 ) ) ;
#650 = ORIENTED_EDGE ( 'NONE', *, *, #693, .F. ) ;
#651 = DIRECTION ( 'NONE',  ( -0.000000000000000000, -0.000000000000000000, -1.000000000000000000 ) ) ;
#652 = EDGE_CURVE ( 'NONE', #516, #1, #136, .T. ) ;
#653 = ORIENTED_EDGE ( 'NONE', *, *, #245, .F. ) ;
#654 = DIRECTION ( 'NONE',  ( 1.000000000000000000, 0.000000000000000000, 0.000000000000000000 ) ) ;
#655 = ORIENTED_EDGE ( 'NONE', *, *, #951, .F. ) ;
#656 = CIRCLE ( 'NONE', #825, 1.100000000000000311 ) ;
#657 = CIRCLE ( 'NONE', #507, 1.100000000000000311 ) ;
#658 = CARTESIAN_POINT ( 'NONE',  ( 27.00000000000000000, -19.00000000000000000, 18.00000000000000000 ) ) ;
#659 = ORIENTED_EDGE ( 'NONE', *, *, #30, .F. ) ;
#660 = DIRECTION ( 'NONE',  ( 0.000000000000000000, 0.000000000000000000, -1.000000000000000000 ) ) ;
#661 = ORIENTED_EDGE ( 'NONE', *, *, #840, .F. ) ;
#662 = DIRECTION ( 'NONE',  ( 0.000000000000000000, 0.000000000000000000, -1.000000000000000000 ) ) ;
#663 = EDGE_LOOP ( 'NONE', ( #861, #379 ) ) ;
#664 = EDGE_CURVE ( 'NONE', #833, #14, #37, .T. ) ;
#665 = CARTESIAN_POINT ( 'NONE',  ( 6.899999999999999467, 0.000000000000000000, 18.00000000000000355 ) ) ;
#666 = EDGE_CURVE ( 'NONE', #156, #524, #572, .T. ) ;
#667 = EDGE_LOOP ( 'NONE', ( #55, #745, #67, #577 ) ) ;
#668 = CARTESIAN_POINT ( 'NONE',  ( 27.00000000000000000, 3.000000000000000000, 18.00000000000000000 ) ) ;
#669 = ORIENTED_EDGE ( 'NONE', *, *, #476, .F. ) ;
#670 = PLANE ( 'NONE',  #625 ) ;
#671 = EDGE_CURVE ( 'NONE', #454, #364, #63, .T. ) ;
#672 = ORIENTED_EDGE ( 'NONE', *, *, #303, .T. ) ;
#673 = DIRECTION ( 'NONE',  ( -1.000000000000000000, 0.000000000000000000, 0.000000000000000000 ) ) ;
#674 = ORIENTED_EDGE ( 'NONE', *, *, #214, .T. ) ;
#675 = VECTOR ( 'NONE', #175, 1000.000000000000000 ) ;
#676 = DIRECTION ( 'NONE',  ( 0.000000000000000000, 0.000000000000000000, -1.000000000000000000 ) ) ;
#677 = CARTESIAN_POINT ( 'NONE',  ( 0.000000000000000000, 8.000000000000000000, 15.00000000000000000 ) ) ;
#678 = DIRECTION ( 'NONE',  ( -0.000000000000000000, -0.000000000000000000, -1.000000000000000000 ) ) ;
#679 = ORIENTED_EDGE ( 'NONE', *, *, #564, .T. ) ;
#680 = CARTESIAN_POINT ( 'NONE',  ( 0.000000000000000000, -8.000000000000000000, 18.00000000000000355 ) ) ;
#681 = CARTESIAN_POINT ( 'NONE',  ( 15.00000000000000000, -15.00000000000000000, 0.000000000000000000 ) ) ;
#682 = FACE_OUTER_BOUND ( 'NONE', #508, .T. ) ;
#683 = VERTEX_POINT ( 'NONE', #111 ) ;
#684 = DIRECTION ( 'NONE',  ( 0.000000000000000000, 0.000000000000000000, 1.000000000000000000 ) ) ;
#685 = EDGE_LOOP ( 'NONE', ( #284, #655, #637, #679 ) ) ;
#686 = DIRECTION ( 'NONE',  ( -1.000000000000000000, 0.000000000000000000, 0.000000000000000000 ) ) ;
#687 = ORIENTED_EDGE ( 'NONE', *, *, #691, .F. ) ;
#688 = AXIS2_PLACEMENT_3D ( 'NONE', #441, #807, #49 ) ;
#689 = ORIENTED_EDGE ( 'NONE', *, *, #356, .F. ) ;
#690 = FACE_OUTER_BOUND ( 'NONE', #381, .T. ) ;
#691 = EDGE_CURVE ( 'NONE', #947, #249, #562, .T. ) ;
#692 = CARTESIAN_POINT ( 'NONE',  ( 27.00000000000000000, -20.00000000000000000, 18.00000000000000000 ) ) ;
#693 = EDGE_CURVE ( 'NONE', #729, #833, #716, .T. ) ;
#694 = DIRECTION ( 'NONE',  ( -1.000000000000000000, 0.000000000000000000, -0.000000000000000000 ) ) ;
#695 = LOCAL_TIME ( 23, 38, 44.00000000000000000, #774 ) ;
#696 = DIRECTION ( 'NONE',  ( 1.000000000000000000, 0.000000000000000000, 0.000000000000000000 ) ) ;
#697 = EDGE_CURVE ( 'NONE', #824, #743, #841, .T. ) ;
#698 = FACE_BOUND ( 'NONE', #374, .T. ) ;
#699 = DIRECTION ( 'NONE',  ( 1.000000000000000000, 0.000000000000000000, 0.000000000000000000 ) ) ;
#700 = EDGE_LOOP ( 'NONE', ( #360, #142, #827, #323, #618, #78, #257, #669 ) ) ;
#701 = CARTESIAN_POINT ( 'NONE',  ( -11.00000000000000000, 0.000000000000000000, 18.00000000000000000 ) ) ;
#702 = AXIS2_PLACEMENT_3D ( 'NONE', #878, #510, #224 ) ;
#703 = PERSON_AND_ORGANIZATION ( #135, #223 ) ;
#704 = FACE_OUTER_BOUND ( 'NONE', #90, .T. ) ;
#705 = DIRECTION ( 'NONE',  ( -0.000000000000000000, -0.000000000000000000, -1.000000000000000000 ) ) ;
#706 = COORDINATED_UNIVERSAL_TIME_OFFSET ( 6, 0, .BEHIND. ) ;
#707 = DIRECTION ( 'NONE',  ( 0.000000000000000000, 0.000000000000000000, -1.000000000000000000 ) ) ;
#708 = ORIENTED_EDGE ( 'NONE', *, *, #344, .F. ) ;
#709 = EDGE_CURVE ( 'NONE', #163, #59, #98, .T. ) ;
#710 = AXIS2_PLACEMENT_3D ( 'NONE', #94, #395, #551 ) ;
#711 = CARTESIAN_POINT ( 'NONE',  ( 16.89999999999999858, -17.50000000000000000, 0.000000000000000000 ) ) ;
#712 = COORDINATED_UNIVERSAL_TIME_OFFSET ( 6, 0, .BEHIND. ) ;
#713 = DIRECTION ( 'NONE',  ( -1.000000000000000000, 0.000000000000000000, 0.000000000000000000 ) ) ;
#714 = VERTEX_POINT ( 'NONE', #458 ) ;
#715 = CARTESIAN_POINT ( 'NONE',  ( 0.000000000000000000, 3.000000000000000000, 15.00000000000000000 ) ) ;
#716 = CIRCLE ( 'NONE', #337, 1.100000000000000311 ) ;
#717 = VECTOR ( 'NONE', #638, 1000.000000000000000 ) ;
#718 = AXIS2_PLACEMENT_3D ( 'NONE', #854, #269, #492 ) ;
#719 = CARTESIAN_POINT ( 'NONE',  ( 8.000000000000000000, 0.000000000000000000, 18.00000000000000355 ) ) ;
#720 = ORIENTED_EDGE ( 'NONE', *, *, #254, .F. ) ;
#721 = DIRECTION ( 'NONE',  ( 0.000000000000000000, 0.000000000000000000, -1.000000000000000000 ) ) ;
#722 = ORIENTED_EDGE ( 'NONE', *, *, #172, .T. ) ;
#723 = FACE_OUTER_BOUND ( 'NONE', #814, .T. ) ;
#724 = VERTEX_POINT ( 'NONE', #798 ) ;
#725 = VECTOR ( 'NONE', #880, 1000.000000000000000 ) ;
#726 = CARTESIAN_POINT ( 'NONE',  ( 27.00000000000000000, 3.000000000000000000, 18.00000000000000000 ) ) ;
#727 = VERTEX_POINT ( 'NONE', #885 ) ;
#728 = CARTESIAN_POINT ( 'NONE',  ( 3.000000000000000000, 3.673940397442059868E-16, 18.00000000000000355 ) ) ;
#729 = VERTEX_POINT ( 'NONE', #439 ) ;
#730 = DIRECTION ( 'NONE',  ( 0.000000000000000000, 0.000000000000000000, 1.000000000000000000 ) ) ;
#731 = ORIENTED_EDGE ( 'NONE', *, *, #804, .F. ) ;
#732 = VECTOR ( 'NONE', #532, 1000.000000000000000 ) ;
#733 = CARTESIAN_POINT ( 'NONE',  ( 15.00000000000000000, -20.00000000000000000, 0.000000000000000000 ) ) ;
#734 = EDGE_CURVE ( 'NONE', #273, #845, #640, .T. ) ;
#735 = AXIS2_PLACEMENT_3D ( 'NONE', #870, #589, #578 ) ;
#736 = EDGE_LOOP ( 'NONE', ( #448, #573 ) ) ;
#737 = LINE ( 'NONE', #863, #948 ) ;
#738 = VERTEX_POINT ( 'NONE', #820 ) ;
#739 = CARTESIAN_POINT ( 'NONE',  ( 0.000000000000000000, 0.000000000000000000, 18.00000000000000355 ) ) ;
#740 = ADVANCED_FACE ( 'NONE', ( #875 ), #449, .F. ) ;
#741 = LINE ( 'NONE', #20, #566 ) ;
#742 = APPROVAL_PERSON_ORGANIZATION ( #918, #608, #199 ) ;
#743 = VERTEX_POINT ( 'NONE', #523 ) ;
#744 = DIRECTION ( 'NONE',  ( -0.000000000000000000, -1.000000000000000000, -0.000000000000000000 ) ) ;
#745 = ORIENTED_EDGE ( 'NONE', *, *, #634, .T. ) ;
#746 = DIRECTION ( 'NONE',  ( 0.000000000000000000, 0.000000000000000000, -1.000000000000000000 ) ) ;
#747 = EDGE_LOOP ( 'NONE', ( #944, #261, #313, #452 ) ) ;
#748 = VECTOR ( 'NONE', #125, 1000.000000000000000 ) ;
#749 = CARTESIAN_POINT ( 'NONE',  ( 8.000000000000000000, 0.000000000000000000, 15.00000000000000000 ) ) ;
#750 = ORIENTED_EDGE ( 'NONE', *, *, #471, .T. ) ;
#751 = CYLINDRICAL_SURFACE ( 'NONE', #259, 1.100000000000000311 ) ;
#752 = LINE ( 'NONE', #681, #65 ) ;
#753 = EDGE_CURVE ( 'NONE', #156, #429, #299, .T. ) ;
#754 = LINE ( 'NONE', #255, #188 ) ;
#755 = ORIENTED_EDGE ( 'NONE', *, *, #920, .T. ) ;
#756 = FACE_OUTER_BOUND ( 'NONE', #667, .T. ) ;
#757 = CARTESIAN_POINT ( 'NONE',  ( 16.89999999999999858, -17.50000000000000000, 18.00000000000000355 ) ) ;
#758 = SECURITY_CLASSIFICATION ( '', '', #189 ) ;
#759 = PLANE ( 'NONE',  #559 ) ;
#760 = EDGE_LOOP ( 'NONE', ( #140, #440, #905, #154 ) ) ;
#761 = VERTEX_POINT ( 'NONE', #387 ) ;
#762 = CARTESIAN_POINT ( 'NONE',  ( 0.000000000000000000, 0.000000000000000000, 0.000000000000000000 ) ) ;
#763 = CIRCLE ( 'NONE', #869, 11.00000000000000000 ) ;
#764 = DIRECTION ( 'NONE',  ( -0.000000000000000000, -0.000000000000000000, 1.000000000000000000 ) ) ;
#765 = DIRECTION ( 'NONE',  ( 0.000000000000000000, 0.000000000000000000, -1.000000000000000000 ) ) ;
#766 = VERTEX_POINT ( 'NONE', #596 ) ;
#767 = EDGE_CURVE ( 'NONE', #766, #797, #346, .T. ) ;
#768 = LINE ( 'NONE', #692, #872 ) ;
#769 = LINE ( 'NONE', #475, #923 ) ;
#770 = AXIS2_PLACEMENT_3D ( 'NONE', #749, #678, #602 ) ;
#771 = CARTESIAN_POINT ( 'NONE',  ( 3.000000000000000000, 3.673940397442059868E-16, 18.00000000000000355 ) ) ;
#772 = ORIENTED_EDGE ( 'NONE', *, *, #697, .T. ) ;
#773 = DIRECTION ( 'NONE',  ( -0.000000000000000000, -0.000000000000000000, -1.000000000000000000 ) ) ;
#774 = COORDINATED_UNIVERSAL_TIME_OFFSET ( 6, 0, .BEHIND. ) ;
#775 = DIRECTION ( 'NONE',  ( 0.000000000000000000, 0.000000000000000000, -1.000000000000000000 ) ) ;
#776 = VECTOR ( 'NONE', #636, 1000.000000000000000 ) ;
#777 = DIRECTION ( 'NONE',  ( 0.000000000000000000, 0.000000000000000000, -1.000000000000000000 ) ) ;
#778 = APPROVAL_ROLE ( '' ) ;
#779 = EDGE_CURVE ( 'NONE', #249, #588, #85, .T. ) ;
#780 = DIRECTION ( 'NONE',  ( -1.000000000000000000, 0.000000000000000000, 0.000000000000000000 ) ) ;
#781 = ORIENTED_EDGE ( 'NONE', *, *, #303, .F. ) ;
#782 = CARTESIAN_POINT ( 'NONE',  ( 0.000000000000000000, -8.000000000000000000, 18.00000000000000355 ) ) ;
#783 = PERSON_AND_ORGANIZATION_ROLE ( 'creator' ) ;
#784 = DIRECTION ( 'NONE',  ( 0.000000000000000000, 0.000000000000000000, -1.000000000000000000 ) ) ;
#785 = AXIS2_PLACEMENT_3D ( 'NONE', #305, #587, #894 ) ;
#786 = FACE_OUTER_BOUND ( 'NONE', #298, .T. ) ;
#787 = DIRECTION ( 'NONE',  ( 0.000000000000000000, 0.000000000000000000, 1.000000000000000000 ) ) ;
#788 = ORIENTED_EDGE ( 'NONE', *, *, #108, .T. ) ;
#789 = DIRECTION ( 'NONE',  ( 0.000000000000000000, 0.000000000000000000, 1.000000000000000000 ) ) ;
#790 = AXIS2_PLACEMENT_3D ( 'NONE', #64, #789, #314 ) ;
#791 = EDGE_LOOP ( 'NONE', ( #348, #317, #590, #595, #687, #731 ) ) ;
#792 = DATE_AND_TIME ( #504, #124 ) ;
#793 = DIRECTION ( 'NONE',  ( 0.000000000000000000, 0.000000000000000000, -1.000000000000000000 ) ) ;
#794 = ORIENTED_EDGE ( 'NONE', *, *, #186, .F. ) ;
#795 = LINE ( 'NONE', #58, #168 ) ;
#796 = EDGE_CURVE ( 'NONE', #399, #147, #312, .T. ) ;
#797 = VERTEX_POINT ( 'NONE', #592 ) ;
#798 = CARTESIAN_POINT ( 'NONE',  ( 9.099999999999999645, 1.347111479062088750E-16, 18.00000000000000355 ) ) ;
#799 = EDGE_LOOP ( 'NONE', ( #821, #563, #432, #464 ) ) ;
#800 = AXIS2_PLACEMENT_3D ( 'NONE', #762, #327, #694 ) ;
#801 = DIRECTION ( 'NONE',  ( 0.000000000000000000, 0.000000000000000000, -1.000000000000000000 ) ) ;
#802 = CC_DESIGN_DATE_AND_TIME_ASSIGNMENT ( #792, #493, ( #758 ) ) ;
#803 = ORIENTED_EDGE ( 'NONE', *, *, #333, .F. ) ;
#804 = EDGE_CURVE ( 'NONE', #586, #947, #151, .T. ) ;
#805 = DIRECTION ( 'NONE',  ( 0.000000000000000000, 1.000000000000000000, 0.000000000000000000 ) ) ;
#806 = ORIENTED_EDGE ( 'NONE', *, *, #630, .F. ) ;
#807 = DIRECTION ( 'NONE',  ( -1.000000000000000000, 0.000000000000000000, 0.000000000000000000 ) ) ;
#808 = ORIENTED_EDGE ( 'NONE', *, *, #108, .F. ) ;
#809 = AXIS2_PLACEMENT_3D ( 'NONE', #473, #91, #339 ) ;
#810 = CARTESIAN_POINT ( 'NONE',  ( 10.58300524425836109, 3.000000000000000000, 18.00000000000000000 ) ) ;
#811 = EDGE_CURVE ( 'NONE', #185, #900, #141, .T. ) ;
#812 = VERTEX_POINT ( 'NONE', #68 ) ;
#813 = FACE_BOUND ( 'NONE', #71, .T. ) ;
#814 = EDGE_LOOP ( 'NONE', ( #511, #211, #893, #864 ) ) ;
#815 = FACE_BOUND ( 'NONE', #95, .T. ) ;
#816 = ORIENTED_EDGE ( 'NONE', *, *, #693, .T. ) ;
#817 = DIRECTION ( 'NONE',  ( 0.000000000000000000, 1.000000000000000000, 0.000000000000000000 ) ) ;
#818 = VECTOR ( 'NONE', #322, 1000.000000000000000 ) ;
#819 = CARTESIAN_POINT ( 'NONE',  ( 18.00000000000000000, -17.50000000000000000, 0.000000000000000000 ) ) ;
#820 = CARTESIAN_POINT ( 'NONE',  ( 15.00000000000000000, -15.00000000000000000, 0.000000000000000000 ) ) ;
#821 = ORIENTED_EDGE ( 'NONE', *, *, #531, .F. ) ;
#822 = FACE_OUTER_BOUND ( 'NONE', #169, .T. ) ;
#823 = ADVANCED_FACE ( 'NONE', ( #373 ), #79, .F. ) ;
#824 = VERTEX_POINT ( 'NONE', #728 ) ;
#825 = AXIS2_PLACEMENT_3D ( 'NONE', #287, #47, #195 ) ;
#826 = DIRECTION ( 'NONE',  ( 0.000000000000000000, 1.000000000000000000, 0.000000000000000000 ) ) ;
#827 = ORIENTED_EDGE ( 'NONE', *, *, #183, .F. ) ;
#828 = AXIS2_PLACEMENT_3D ( 'NONE', #846, #258, #632 ) ;
#829 = CIRCLE ( 'NONE', #115, 1.100000000000000311 ) ;
#830 = CARTESIAN_POINT ( 'NONE',  ( 22.89999999999999858, -17.50000000000000000, 18.00000000000000355 ) ) ;
#831 = CC_DESIGN_DATE_AND_TIME_ASSIGNMENT ( #209, #417, ( #850 ) ) ;
#832 = DIRECTION ( 'NONE',  ( 0.000000000000000000, 0.000000000000000000, 1.000000000000000000 ) ) ;
#833 = VERTEX_POINT ( 'NONE', #12 ) ;
#834 = LINE ( 'NONE', #87, #194 ) ;
#835 = ORIENTED_EDGE ( 'NONE', *, *, #51, .T. ) ;
#836 = EDGE_CURVE ( 'NONE', #729, #53, #955, .T. ) ;
#837 = LOCAL_TIME ( 23, 38, 44.00000000000000000, #712 ) ;
#838 = DIRECTION ( 'NONE',  ( 0.000000000000000000, 1.000000000000000000, 0.000000000000000000 ) ) ;
#839 = CYLINDRICAL_SURFACE ( 'NONE', #280, 1.100000000000000311 ) ;
#840 = EDGE_CURVE ( 'NONE', #226, #286, #581, .T. ) ;
#841 = CIRCLE ( 'NONE', #853, 3.000000000000000000 ) ;
#842 = CIRCLE ( 'NONE', #213, 1.100000000000000089 ) ;
#843 = VECTOR ( 'NONE', #917, 1000.000000000000000 ) ;
#844 = CYLINDRICAL_SURFACE ( 'NONE', #616, 1.100000000000000311 ) ;
#845 = VERTEX_POINT ( 'NONE', #378 ) ;
#846 = CARTESIAN_POINT ( 'NONE',  ( 24.00000000000000000, -17.50000000000000000, 0.000000000000000000 ) ) ;
#847 = VECTOR ( 'NONE', #228, 1000.000000000000000 ) ;
#848 = FACE_OUTER_BOUND ( 'NONE', #202, .T. ) ;
#849 = DIRECTION ( 'NONE',  ( -0.000000000000000000, -1.000000000000000000, -0.000000000000000000 ) ) ;
#850 = PRODUCT_DEFINITION ( 'UNKNOWN', '', #301, #160 ) ;
#851 = DATE_AND_TIME ( #275, #837 ) ;
#852 = CARTESIAN_POINT ( 'NONE',  ( 1.100000000000000089, 8.000000000000000000, 18.00000000000000355 ) ) ;
#853 = AXIS2_PLACEMENT_3D ( 'NONE', #205, #787, #428 ) ;
#854 = CARTESIAN_POINT ( 'NONE',  ( 0.000000000000000000, 0.000000000000000000, 18.00000000000000000 ) ) ;
#855 = PERSON_AND_ORGANIZATION ( #135, #223 ) ;
#856 = DIRECTION ( 'NONE',  ( -0.000000000000000000, -0.000000000000000000, -1.000000000000000000 ) ) ;
#857 = ORIENTED_EDGE ( 'NONE', *, *, #456, .T. ) ;
#858 = CARTESIAN_POINT ( 'NONE',  ( 27.00000000000000000, -20.00000000000000000, 18.00000000000000000 ) ) ;
#859 = EDGE_CURVE ( 'NONE', #286, #429, #294, .T. ) ;
#860 = DIRECTION ( 'NONE',  ( 0.000000000000000000, 0.000000000000000000, -1.000000000000000000 ) ) ;
#861 = ORIENTED_EDGE ( 'NONE', *, *, #24, .F. ) ;
#862 = CC_DESIGN_APPROVAL ( #509, ( #758 ) ) ;
#863 = CARTESIAN_POINT ( 'NONE',  ( 15.00000000000000000, -15.00000000000000000, 18.00000000000000000 ) ) ;
#864 = ORIENTED_EDGE ( 'NONE', *, *, #127, .T. ) ;
#865 = APPROVAL_STATUS ( 'not_yet_approved' ) ;
#866 = CARTESIAN_POINT ( 'NONE',  ( -1.100000000000000089, -8.000000000000000000, 15.00000000000000000 ) ) ;
#867 = ORIENTED_EDGE ( 'NONE', *, *, #425, .F. ) ;
#868 = EDGE_CURVE ( 'NONE', #53, #14, #898, .T. ) ;
#869 = AXIS2_PLACEMENT_3D ( 'NONE', #455, #557, #264 ) ;
#870 = CARTESIAN_POINT ( 'NONE',  ( 0.000000000000000000, 0.000000000000000000, 15.00000000000000000 ) ) ;
#871 = AXIS2_PLACEMENT_3D ( 'NONE', #677, #390, #903 ) ;
#872 = VECTOR ( 'NONE', #341, 1000.000000000000000 ) ;
#873 = ORIENTED_EDGE ( 'NONE', *, *, #753, .T. ) ;
#874 = CIRCLE ( 'NONE', #34, 3.000000000000000000 ) ;
#875 = FACE_OUTER_BOUND ( 'NONE', #607, .T. ) ;
#876 = ORIENTED_EDGE ( 'NONE', *, *, #24, .T. ) ;
#877 = APPLICATION_CONTEXT ( 'configuration controlled 3d designs of mechanical parts and assemblies' ) ;
#878 = CARTESIAN_POINT ( 'NONE',  ( 0.000000000000000000, 0.000000000000000000, 18.00000000000000000 ) ) ;
#879 = ORIENTED_EDGE ( 'NONE', *, *, #425, .T. ) ;
#880 = DIRECTION ( 'NONE',  ( 0.000000000000000000, 0.000000000000000000, 1.000000000000000000 ) ) ;
#881 = CC_DESIGN_APPROVAL ( #608, ( #301 ) ) ;
#882 = FACE_OUTER_BOUND ( 'NONE', #791, .T. ) ;
#883 = ADVANCED_FACE ( 'NONE', ( #890, #534, #233, #815, #155, #453, #382, #7 ), #759, .T. ) ;
#884 = ORIENTED_EDGE ( 'NONE', *, *, #356, .T. ) ;
#885 = CARTESIAN_POINT ( 'NONE',  ( -1.100000000000000089, 8.000000000000000000, 18.00000000000000355 ) ) ;
#886 = ORIENTED_EDGE ( 'NONE', *, *, #840, .T. ) ;
#887 = FACE_OUTER_BOUND ( 'NONE', #415, .T. ) ;
#888 = EDGE_LOOP ( 'NONE', ( #295, #873, #306, #661, #891, #519 ) ) ;
#889 = AXIS2_PLACEMENT_3D ( 'NONE', #244, #461, #250 ) ;
#890 = FACE_BOUND ( 'NONE', #232, .T. ) ;
#891 = ORIENTED_EDGE ( 'NONE', *, *, #234, .T. ) ;
#892 = DIRECTION ( 'NONE',  ( 0.000000000000000000, 0.000000000000000000, -1.000000000000000000 ) ) ;
#893 = ORIENTED_EDGE ( 'NONE', *, *, #254, .T. ) ;
#894 = DIRECTION ( 'NONE',  ( 1.000000000000000000, 0.000000000000000000, 0.000000000000000000 ) ) ;
#895 = ORIENTED_EDGE ( 'NONE', *, *, #836, .T. ) ;
#896 = ADVANCED_FACE ( 'NONE', ( #690 ), #391, .T. ) ;
#897 = DIRECTION ( 'NONE',  ( -1.000000000000000000, 0.000000000000000000, 0.000000000000000000 ) ) ;
#898 = CIRCLE ( 'NONE', #785, 1.100000000000000311 ) ;
#899 = DIRECTION ( 'NONE',  ( 1.000000000000000000, 0.000000000000000000, 0.000000000000000000 ) ) ;
#900 = VERTEX_POINT ( 'NONE', #911 ) ;
#901 = EDGE_CURVE ( 'NONE', #588, #524, #754, .T. ) ;
#902 = FACE_OUTER_BOUND ( 'NONE', #150, .T. ) ;
#903 = DIRECTION ( 'NONE',  ( 1.000000000000000000, 0.000000000000000000, 0.000000000000000000 ) ) ;
#904 = DIRECTION ( 'NONE',  ( 0.000000000000000000, 0.000000000000000000, 1.000000000000000000 ) ) ;
#905 = ORIENTED_EDGE ( 'NONE', *, *, #200, .F. ) ;
#906 = DIRECTION ( 'NONE',  ( -0.000000000000000000, -1.000000000000000000, -0.000000000000000000 ) ) ;
#907 = DIRECTION ( 'NONE',  ( 0.000000000000000000, -0.000000000000000000, 1.000000000000000000 ) ) ;
#908 = EDGE_CURVE ( 'NONE', #724, #369, #92, .T. ) ;
#909 = LINE ( 'NONE', #253, #48 ) ;
#910 = ADVANCED_FACE ( 'NONE', ( #482 ), #839, .F. ) ;
#911 = CARTESIAN_POINT ( 'NONE',  ( 0.000000000000000000, -11.00000000000000000, 15.00000000000000000 ) ) ;
#912 = EDGE_LOOP ( 'NONE', ( #372, #644 ) ) ;
#913 = FACE_OUTER_BOUND ( 'NONE', #569, .T. ) ;
#914 = AXIS2_PLACEMENT_3D ( 'NONE', #547, #159, #236 ) ;
#915 = ORIENTED_EDGE ( 'NONE', *, *, #431, .T. ) ;
#916 = AXIS2_PLACEMENT_3D ( 'NONE', #645, #355, #526 ) ;
#917 = DIRECTION ( 'NONE',  ( -0.000000000000000000, -1.000000000000000000, -0.000000000000000000 ) ) ;
#918 = PERSON_AND_ORGANIZATION ( #135, #223 ) ;
#919 = CARTESIAN_POINT ( 'NONE',  ( 10.58300524425836109, 3.000000000000000000, 15.00000000000000000 ) ) ;
#920 = EDGE_CURVE ( 'NONE', #724, #797, #769, .T. ) ;
#921 = LINE ( 'NONE', #266, #114 ) ;
#922 = SHAPE_DEFINITION_REPRESENTATION ( #113, #555 ) ;
#923 = VECTOR ( 'NONE', #181, 1000.000000000000000 ) ;
#924 = DIRECTION ( 'NONE',  ( 1.000000000000000000, 0.000000000000000000, 0.000000000000000000 ) ) ;
#925 = ORIENTED_EDGE ( 'NONE', *, *, #245, .T. ) ;
#926 = CYLINDRICAL_SURFACE ( 'NONE', #554, 1.100000000000000089 ) ;
#927 = APPROVAL_DATE_TIME ( #933, #608 ) ;
#928 = CARTESIAN_POINT ( 'NONE',  ( 0.000000000000000000, 0.000000000000000000, 15.00000000000000000 ) ) ;
#929 = ORIENTED_EDGE ( 'NONE', *, *, #214, .F. ) ;
#930 = CIRCLE ( 'NONE', #790, 1.100000000000000311 ) ;
#931 = DIRECTION ( 'NONE',  ( 0.000000000000000000, 0.000000000000000000, -1.000000000000000000 ) ) ;
#932 = ADVANCED_FACE ( 'NONE', ( #682 ), #173, .F. ) ;
#933 = DATE_AND_TIME ( #193, #695 ) ;
#934 = DIRECTION ( 'NONE',  ( 0.000000000000000000, 0.000000000000000000, 1.000000000000000000 ) ) ;
#935 = ORIENTED_EDGE ( 'NONE', *, *, #401, .T. ) ;
#936 = DIRECTION ( 'NONE',  ( 0.000000000000000000, 0.000000000000000000, 1.000000000000000000 ) ) ;
#937 = ADVANCED_FACE ( 'NONE', ( #698, #252, #242 ), #23, .T. ) ;
#938 = CARTESIAN_POINT ( 'NONE',  ( 0.000000000000000000, 8.000000000000000000, 18.00000000000000355 ) ) ;
#939 = ORIENTED_EDGE ( 'NONE', *, *, #120, .T. ) ;
#940 = AXIS2_PLACEMENT_3D ( 'NONE', #18, #904, #400 ) ;
#941 = DIRECTION ( 'NONE',  ( 0.000000000000000000, 0.000000000000000000, 1.000000000000000000 ) ) ;
#942 = ORIENTED_EDGE ( 'NONE', *, *, #401, .F. ) ;
#943 = CARTESIAN_POINT ( 'NONE',  ( 0.000000000000000000, -19.00000000000000000, 15.00000000000000000 ) ) ;
#944 = ORIENTED_EDGE ( 'NONE', *, *, #779, .T. ) ;
#945 = CIRCLE ( 'NONE', #212, 1.100000000000000089 ) ;
#946 = FACE_BOUND ( 'NONE', #229, .T. ) ;
#947 = VERTEX_POINT ( 'NONE', #619 ) ;
#948 = VECTOR ( 'NONE', #219, 1000.000000000000000 ) ;
#949 = CARTESIAN_POINT ( 'NONE',  ( 0.000000000000000000, -11.00000000000000000, 18.00000000000000000 ) ) ;
#950 = VERTEX_POINT ( 'NONE', #28 ) ;
#951 = EDGE_CURVE ( 'NONE', #235, #586, #334, .T. ) ;
#952 = FACE_BOUND ( 'NONE', #579, .T. ) ;
#953 = MANIFOLD_SOLID_BREP ( 'Contact_pad_keeper', #309 ) ;
#954 = VERTEX_POINT ( 'NONE', #624 ) ;
#955 = LINE ( 'NONE', #368, #847 ) ;
#956 = ORIENTED_EDGE ( 'NONE', *, *, #375, .T. ) ;
#957 = CYLINDRICAL_SURFACE ( 'NONE', #916, 1.100000000000000089 ) ;
ENDSEC;
END-ISO-10303-21;
