ISO-10303-21;
HEADER;
FILE_DESCRIPTION (( 'STEP AP203' ),
    '1' );
FILE_NAME ('ARM-111_Moving_jaw_TPU_sock.step',
    '2026-09-08T13:29:10',
    ( '' ),
    ( '' ),
    'SwSTEP 2.0',
    'SolidWorks 2026',
    '' );
FILE_SCHEMA (( 'CONFIG_CONTROL_DESIGN' ));
ENDSEC;

DATA;
#1 = CARTESIAN_POINT ( 'NONE',  ( 28.00000000000000000, -21.00000000000000000, -1.000000000000000000 ) ) ;
#2 = PERSON_AND_ORGANIZATION_ROLE ( 'creator' ) ;
#3 = EDGE_LOOP ( 'NONE', ( #638, #174, #34, #137, #464, #131 ) ) ;
#4 = LINE ( 'NONE', #1, #633 ) ;
#5 = APPROVAL_STATUS ( 'not_yet_approved' ) ;
#6 = ADVANCED_FACE ( 'NONE', ( #646 ), #445, .F. ) ;
#7 = DIRECTION ( 'NONE',  ( 1.000000000000000000, 0.000000000000000000, 0.000000000000000000 ) ) ;
#8 = ORIENTED_EDGE ( 'NONE', *, *, #322, .F. ) ;
#9 = EDGE_LOOP ( 'NONE', ( #52, #307, #225, #44, #288, #395 ) ) ;
#10 = LINE ( 'NONE', #213, #570 ) ;
#11 = EDGE_CURVE ( 'NONE', #134, #429, #184, .T. ) ;
#12 = CARTESIAN_POINT ( 'NONE',  ( 14.90000000000000036, -16.00000000000000000, 7.000000000000000000 ) ) ;
#13 = ADVANCED_FACE ( 'NONE', ( #435 ), #188, .F. ) ;
#14 = AXIS2_PLACEMENT_3D ( 'NONE', #575, #475, #166 ) ;
#15 = CARTESIAN_POINT ( 'NONE',  ( 14.90000000000000036, -20.10000000000000142, 7.000000000000000000 ) ) ;
#16 = CARTESIAN_POINT ( 'NONE',  ( 14.90000000000000036, -20.10000000000000142, 0.000000000000000000 ) ) ;
#17 = LINE ( 'NONE', #513, #603 ) ;
#18 = EDGE_LOOP ( 'NONE', ( #572, #476, #398, #330 ) ) ;
#19 = DIRECTION ( 'NONE',  ( 0.000000000000000000, 0.000000000000000000, -1.000000000000000000 ) ) ;
#20 = DIRECTION ( 'NONE',  ( -0.000000000000000000, 1.000000000000000000, 0.000000000000000000 ) ) ;
#21 = ORIENTED_EDGE ( 'NONE', *, *, #455, .T. ) ;
#22 = AXIS2_PLACEMENT_3D ( 'NONE', #592, #394, #630 ) ;
#23 = CARTESIAN_POINT ( 'NONE',  ( 18.00000000000000000, -17.50000000000000000, 5.999999999999998224 ) ) ;
#24 = COORDINATED_UNIVERSAL_TIME_OFFSET ( 6, 0, .BEHIND. ) ;
#25 = EDGE_CURVE ( 'NONE', #255, #150, #493, .T. ) ;
#26 = VECTOR ( 'NONE', #289, 1000.000000000000000 ) ;
#27 = LINE ( 'NONE', #231, #431 ) ;
#28 = LOCAL_TIME ( 8, 29, 10.00000000000000000, #206 ) ;
#29 = EDGE_LOOP ( 'NONE', ( #121, #403, #620, #161, #55, #248, #535, #359 ) ) ;
#30 = PERSON_AND_ORGANIZATION_ROLE ( 'design_owner' ) ;
#31 = EDGE_CURVE ( 'NONE', #429, #212, #348, .T. ) ;
#32 = FACE_OUTER_BOUND ( 'NONE', #9, .T. ) ;
#33 = LINE ( 'NONE', #635, #132 ) ;
#34 = ORIENTED_EDGE ( 'NONE', *, *, #459, .T. ) ;
#35 = CARTESIAN_POINT ( 'NONE',  ( 14.00000000000000000, -21.00000000000000000, 3.799999999999999822 ) ) ;
#36 = DIRECTION ( 'NONE',  ( 0.000000000000000000, -0.000000000000000000, 1.000000000000000000 ) ) ;
#37 = AXIS2_PLACEMENT_3D ( 'NONE', #89, #446, #136 ) ;
#38 = ORIENTED_EDGE ( 'NONE', *, *, #208, .T. ) ;
#39 = LINE ( 'NONE', #91, #99 ) ;
#40 = FACE_BOUND ( 'NONE', #489, .T. ) ;
#41 = ORIENTED_EDGE ( 'NONE', *, *, #31, .F. ) ;
#42 = LINE ( 'NONE', #246, #515 ) ;
#43 = DIRECTION ( 'NONE',  ( -1.000000000000000000, 0.000000000000000000, 0.000000000000000000 ) ) ;
#44 = ORIENTED_EDGE ( 'NONE', *, *, #256, .T. ) ;
#45 = VECTOR ( 'NONE', #312, 1000.000000000000000 ) ;
#46 = FACE_OUTER_BOUND ( 'NONE', #379, .T. ) ;
#47 = EDGE_CURVE ( 'NONE', #471, #255, #39, .T. ) ;
#48 = ORIENTED_EDGE ( 'NONE', *, *, #79, .F. ) ;
#49 = AXIS2_PLACEMENT_3D ( 'NONE', #240, #235, #305 ) ;
#50 = LINE ( 'NONE', #599, #645 ) ;
#51 = PERSON_AND_ORGANIZATION ( #104, #154 ) ;
#52 = ORIENTED_EDGE ( 'NONE', *, *, #79, .T. ) ;
#53 = CARTESIAN_POINT ( 'NONE',  ( 19.09999999999999787, -17.50000000000000000, -1.000000000000000000 ) ) ;
#54 = EDGE_CURVE ( 'NONE', #301, #583, #286, .T. ) ;
#55 = ORIENTED_EDGE ( 'NONE', *, *, #344, .T. ) ;
#56 = LINE ( 'NONE', #145, #551 ) ;
#57 = AXIS2_PLACEMENT_3D ( 'NONE', #399, #642, #484 ) ;
#58 = ORIENTED_EDGE ( 'NONE', *, *, #96, .T. ) ;
#59 = ORIENTED_EDGE ( 'NONE', *, *, #172, .T. ) ;
#60 = PLANE ( 'NONE',  #611 ) ;
#61 = VECTOR ( 'NONE', #576, 1000.000000000000000 ) ;
#62 = EDGE_CURVE ( 'NONE', #105, #639, #438, .T. ) ;
#63 = FACE_OUTER_BOUND ( 'NONE', #274, .T. ) ;
#64 = DIRECTION ( 'NONE',  ( 1.000000000000000000, 0.000000000000000000, 0.000000000000000000 ) ) ;
#65 = CIRCLE ( 'NONE', #228, 1.100000000000000311 ) ;
#66 = PLANE ( 'NONE',  #143 ) ;
#67 = FACE_OUTER_BOUND ( 'NONE', #201, .T. ) ;
#68 = ORIENTED_EDGE ( 'NONE', *, *, #434, .F. ) ;
#69 = DATE_AND_TIME ( #167, #219 ) ;
#70 = DIRECTION ( 'NONE',  ( 0.000000000000000000, 0.000000000000000000, -1.000000000000000000 ) ) ;
#71 = CARTESIAN_POINT ( 'NONE',  ( 0.000000000000000000, -16.00000000000000000, 6.000000000000000000 ) ) ;
#72 = ORIENTED_EDGE ( 'NONE', *, *, #566, .T. ) ;
#73 = PRODUCT_DEFINITION ( 'UNKNOWN', '', #412, #526 ) ;
#74 = CARTESIAN_POINT ( 'NONE',  ( 14.90000000000000036, -20.10000000000000142, 3.799999999999999822 ) ) ;
#75 = DIRECTION ( 'NONE',  ( -0.000000000000000000, -1.000000000000000000, -0.000000000000000000 ) ) ;
#76 = SECURITY_CLASSIFICATION_LEVEL ( 'unclassified' ) ;
#77 = LINE ( 'NONE', #420, #521 ) ;
#78 = AXIS2_PLACEMENT_3D ( 'NONE', #103, #251, #209 ) ;
#79 = EDGE_CURVE ( 'NONE', #643, #424, #42, .T. ) ;
#80 = DIRECTION ( 'NONE',  ( 0.000000000000000000, 0.000000000000000000, -1.000000000000000000 ) ) ;
#81 = VERTEX_POINT ( 'NONE', #198 ) ;
#82 = LOCAL_TIME ( 8, 29, 10.00000000000000000, #366 ) ;
#83 = DIRECTION ( 'NONE',  ( 1.000000000000000000, 0.000000000000000000, 0.000000000000000000 ) ) ;
#84 = ADVANCED_FACE ( 'NONE', ( #32 ), #341, .T. ) ;
#85 = ORIENTED_EDGE ( 'NONE', *, *, #507, .F. ) ;
#86 = FACE_BOUND ( 'NONE', #334, .T. ) ;
#87 = ORIENTED_EDGE ( 'NONE', *, *, #149, .T. ) ;
#88 = CARTESIAN_POINT ( 'NONE',  ( 18.00000000000000000, -17.50000000000000000, 5.999999999999998224 ) ) ;
#89 = CARTESIAN_POINT ( 'NONE',  ( 18.00000000000000000, -17.50000000000000000, -1.000000000000000000 ) ) ;
#90 = EDGE_LOOP ( 'NONE', ( #393, #356, #158, #58 ) ) ;
#91 = CARTESIAN_POINT ( 'NONE',  ( 14.00000000000000000, -21.00000000000000000, 6.000000000000000000 ) ) ;
#92 = LINE ( 'NONE', #443, #230 ) ;
#93 = ORIENTED_EDGE ( 'NONE', *, *, #157, .T. ) ;
#94 = ORIENTED_EDGE ( 'NONE', *, *, #507, .T. ) ;
#95 = CARTESIAN_POINT ( 'NONE',  ( 24.00000000000000000, -17.50000000000000000, 0.000000000000000000 ) ) ;
#96 = EDGE_CURVE ( 'NONE', #471, #153, #533, .T. ) ;
#97 = CARTESIAN_POINT ( 'NONE',  ( 14.00000000000000000, -14.00000000000000000, -1.000000000000000000 ) ) ;
#98 = VERTEX_POINT ( 'NONE', #588 ) ;
#99 = VECTOR ( 'NONE', #126, 1000.000000000000000 ) ;
#100 = CARTESIAN_POINT ( 'NONE',  ( 0.000000000000000000, -16.00000000000000000, 6.000000000000000000 ) ) ;
#101 = ORIENTED_EDGE ( 'NONE', *, *, #170, .T. ) ;
#102 = EDGE_CURVE ( 'NONE', #556, #447, #345, .T. ) ;
#103 = CARTESIAN_POINT ( 'NONE',  ( 24.00000000000000000, -17.50000000000000000, 0.000000000000000000 ) ) ;
#104 = PERSON ( 'UNSPECIFIED', 'UNSPECIFIED', 'UNSPECIFIED', ('UNSPECIFIED'), ('UNSPECIFIED'), ('UNSPECIFIED') ) ;
#105 = VERTEX_POINT ( 'NONE', #539 ) ;
#106 = EDGE_CURVE ( 'NONE', #415, #105, #205, .T. ) ;
#107 = CARTESIAN_POINT ( 'NONE',  ( 14.90000000000000036, -16.00000000000000000, 6.000000000000000000 ) ) ;
#108 = VECTOR ( 'NONE', #290, 1000.000000000000000 ) ;
#109 = VECTOR ( 'NONE', #177, 1000.000000000000000 ) ;
#110 = APPROVAL ( #252, 'UNSPECIFIED' ) ;
#111 = CC_DESIGN_APPROVAL ( #110, ( #73 ) ) ;
#112 = CARTESIAN_POINT ( 'NONE',  ( 19.09999999999999787, -17.50000000000000000, 0.000000000000000000 ) ) ;
#113 = PLANE ( 'NONE',  #14 ) ;
#114 = DIRECTION ( 'NONE',  ( 0.000000000000000000, 0.000000000000000000, -1.000000000000000000 ) ) ;
#115 = CARTESIAN_POINT ( 'NONE',  ( 19.09999999999999787, -17.50000000000000000, 5.999999999999998224 ) ) ;
#116 = COORDINATED_UNIVERSAL_TIME_OFFSET ( 6, 0, .BEHIND. ) ;
#117 = AXIS2_PLACEMENT_3D ( 'NONE', #15, #20, #619 ) ;
#118 = CARTESIAN_POINT ( 'NONE',  ( 14.90000000000000036, -16.00000000000000000, 3.799999999999999822 ) ) ;
#119 = PLANE ( 'NONE',  #176 ) ;
#120 = EDGE_CURVE ( 'NONE', #583, #419, #65, .T. ) ;
#121 = ORIENTED_EDGE ( 'NONE', *, *, #644, .T. ) ;
#122 = CYLINDRICAL_SURFACE ( 'NONE', #451, 1.100000000000000311 ) ;
#123 = UNCERTAINTY_MEASURE_WITH_UNIT (LENGTH_MEASURE( 1.000000000000000082E-05 ), #291, 'distance_accuracy_value', 'NONE');
#124 = CARTESIAN_POINT ( 'NONE',  ( 24.00000000000000000, -17.50000000000000000, -1.000000000000000000 ) ) ;
#125 = ADVANCED_FACE ( 'NONE', ( #557 ), #413, .T. ) ;
#126 = DIRECTION ( 'NONE',  ( 1.000000000000000000, 0.000000000000000000, 0.000000000000000000 ) ) ;
#127 = LINE ( 'NONE', #74, #648 ) ;
#128 = EDGE_CURVE ( 'NONE', #81, #242, #317, .T. ) ;
#129 = VECTOR ( 'NONE', #508, 1000.000000000000000 ) ;
#130 = PRODUCT_DEFINITION_SHAPE ( 'NONE', 'NONE',  #73 ) ;
#131 = ORIENTED_EDGE ( 'NONE', *, *, #278, .F. ) ;
#132 = VECTOR ( 'NONE', #36, 1000.000000000000000 ) ;
#133 = PERSON_AND_ORGANIZATION ( #104, #154 ) ;
#134 = VERTEX_POINT ( 'NONE', #107 ) ;
#135 = ORIENTED_EDGE ( 'NONE', *, *, #47, .T. ) ;
#136 = DIRECTION ( 'NONE',  ( -1.000000000000000000, 0.000000000000000000, 0.000000000000000000 ) ) ;
#137 = ORIENTED_EDGE ( 'NONE', *, *, #426, .T. ) ;
#138 = ORIENTED_EDGE ( 'NONE', *, *, #278, .T. ) ;
#139 = AXIS2_PLACEMENT_3D ( 'NONE', #88, #391, #543 ) ;
#140 = ORIENTED_EDGE ( 'NONE', *, *, #241, .T. ) ;
#141 = EDGE_LOOP ( 'NONE', ( #68, #196, #462, #292 ) ) ;
#142 = CARTESIAN_POINT ( 'NONE',  ( 0.000000000000000000, 0.000000000000000000, 0.000000000000000000 ) ) ;
#143 = AXIS2_PLACEMENT_3D ( 'NONE', #276, #19, #474 ) ;
#144 = ORIENTED_EDGE ( 'NONE', *, *, #459, .F. ) ;
#145 = CARTESIAN_POINT ( 'NONE',  ( 28.00000000000000000, -21.00000000000000000, 3.799999999999999822 ) ) ;
#146 = DIRECTION ( 'NONE',  ( 0.000000000000000000, 0.000000000000000000, 1.000000000000000000 ) ) ;
#147 = ORIENTED_EDGE ( 'NONE', *, *, #561, .F. ) ;
#148 = DIRECTION ( 'NONE',  ( 0.000000000000000000, -1.000000000000000000, 0.000000000000000000 ) ) ;
#149 = EDGE_CURVE ( 'NONE', #441, #604, #50, .T. ) ;
#150 = VERTEX_POINT ( 'NONE', #211 ) ;
#151 = DIRECTION ( 'NONE',  ( 0.000000000000000000, -1.000000000000000000, 0.000000000000000000 ) ) ;
#152 = DATE_AND_TIME ( #408, #28 ) ;
#153 = VERTEX_POINT ( 'NONE', #505 ) ;
#154 = ORGANIZATION ( 'UNSPECIFIED', 'UNSPECIFIED', '' ) ;
#155 = DIRECTION ( 'NONE',  ( 1.000000000000000000, 0.000000000000000000, 0.000000000000000000 ) ) ;
#156 = APPROVAL_ROLE ( '' ) ;
#157 = EDGE_CURVE ( 'NONE', #255, #210, #354, .T. ) ;
#158 = ORIENTED_EDGE ( 'NONE', *, *, #47, .F. ) ;
#159 = APPLICATION_CONTEXT ( 'configuration controlled 3d designs of mechanical parts and assemblies' ) ;
#160 = CARTESIAN_POINT ( 'NONE',  ( 28.00000000000000000, -21.00000000000000000, -1.000000000000000000 ) ) ;
#161 = ORIENTED_EDGE ( 'NONE', *, *, #315, .T. ) ;
#162 = MANIFOLD_SOLID_BREP ( 'Pad_capture_M2', #591 ) ;
#163 = DIRECTION ( 'NONE',  ( 0.000000000000000000, 0.000000000000000000, 1.000000000000000000 ) ) ;
#164 = CIRCLE ( 'NONE', #78, 1.100000000000000311 ) ;
#165 = AXIS2_PLACEMENT_3D ( 'NONE', #597, #346, #537 ) ;
#166 = DIRECTION ( 'NONE',  ( 0.000000000000000000, -0.000000000000000000, -1.000000000000000000 ) ) ;
#167 = CALENDAR_DATE ( 2026, 8, 9 ) ;
#168 = CARTESIAN_POINT ( 'NONE',  ( 28.00000000000000000, -16.00000000000000000, 6.000000000000000000 ) ) ;
#169 = LINE ( 'NONE', #377, #579 ) ;
#170 = EDGE_CURVE ( 'NONE', #210, #604, #4, .T. ) ;
#171 = DIRECTION ( 'NONE',  ( 0.000000000000000000, 1.000000000000000000, 0.000000000000000000 ) ) ;
#172 = EDGE_CURVE ( 'NONE', #441, #586, #56, .T. ) ;
#173 = LINE ( 'NONE', #115, #516 ) ;
#174 = ORIENTED_EDGE ( 'NONE', *, *, #102, .T. ) ;
#175 = SHAPE_DEFINITION_REPRESENTATION ( #130, #375 ) ;
#176 = AXIS2_PLACEMENT_3D ( 'NONE', #224, #64, #372 ) ;
#177 = DIRECTION ( 'NONE',  ( 0.000000000000000000, 0.000000000000000000, -1.000000000000000000 ) ) ;
#178 = PLANE ( 'NONE',  #541 ) ;
#179 = ORIENTED_EDGE ( 'NONE', *, *, #25, .T. ) ;
#180 = PERSON_AND_ORGANIZATION_ROLE ( 'classification_officer' ) ;
#181 = CIRCLE ( 'NONE', #37, 1.100000000000000311 ) ;
#182 = ADVANCED_FACE ( 'NONE', ( #357 ), #500, .T. ) ;
#183 = DIRECTION ( 'NONE',  ( -1.000000000000000000, 0.000000000000000000, 0.000000000000000000 ) ) ;
#184 = LINE ( 'NONE', #495, #236 ) ;
#185 = ORIENTED_EDGE ( 'NONE', *, *, #54, .F. ) ;
#186 = CARTESIAN_POINT ( 'NONE',  ( 27.10000000000000142, -20.10000000000000142, 6.000000000000000000 ) ) ;
#187 = VECTOR ( 'NONE', #602, 1000.000000000000000 ) ;
#188 = PLANE ( 'NONE',  #22 ) ;
#189 = DIRECTION ( 'NONE',  ( 1.000000000000000000, 0.000000000000000000, 0.000000000000000000 ) ) ;
#190 = ORIENTED_EDGE ( 'NONE', *, *, #483, .F. ) ;
#191 = CARTESIAN_POINT ( 'NONE',  ( 22.89999999999999858, -17.50000000000000000, 5.999999999999998224 ) ) ;
#192 =( NAMED_UNIT ( * ) SI_UNIT ( $, .STERADIAN. ) SOLID_ANGLE_UNIT ( ) );
#193 = VERTEX_POINT ( 'NONE', #607 ) ;
#194 = CC_DESIGN_PERSON_AND_ORGANIZATION_ASSIGNMENT ( #389, #30, ( #487 ) ) ;
#195 = EDGE_LOOP ( 'NONE', ( #280, #452, #93, #101, #297, #59 ) ) ;
#196 = ORIENTED_EDGE ( 'NONE', *, *, #623, .T. ) ;
#197 = VECTOR ( 'NONE', #114, 1000.000000000000000 ) ;
#198 = CARTESIAN_POINT ( 'NONE',  ( 14.90000000000000036, -14.90000000000000036, 3.799999999999999822 ) ) ;
#199 = VECTOR ( 'NONE', #514, 1000.000000000000000 ) ;
#200 = EDGE_CURVE ( 'NONE', #604, #568, #407, .T. ) ;
#201 = EDGE_LOOP ( 'NONE', ( #383, #332, #234, #396 ) ) ;
#202 = DIRECTION ( 'NONE',  ( -1.000000000000000000, 0.000000000000000000, 0.000000000000000000 ) ) ;
#203 = CC_DESIGN_DATE_AND_TIME_ASSIGNMENT ( #614, #564, ( #239 ) ) ;
#204 = ORIENTED_EDGE ( 'NONE', *, *, #644, .F. ) ;
#205 = LINE ( 'NONE', #367, #129 ) ;
#206 = COORDINATED_UNIVERSAL_TIME_OFFSET ( 6, 0, .BEHIND. ) ;
#207 = ORIENTED_EDGE ( 'NONE', *, *, #436, .F. ) ;
#208 = EDGE_CURVE ( 'NONE', #424, #150, #337, .T. ) ;
#209 = DIRECTION ( 'NONE',  ( -1.000000000000000000, 0.000000000000000000, 0.000000000000000000 ) ) ;
#210 = VERTEX_POINT ( 'NONE', #160 ) ;
#211 = CARTESIAN_POINT ( 'NONE',  ( 28.00000000000000000, -16.00000000000000000, 6.000000000000000000 ) ) ;
#212 = VERTEX_POINT ( 'NONE', #463 ) ;
#213 = CARTESIAN_POINT ( 'NONE',  ( 27.10000000000000142, -14.90000000000000036, 7.000000000000000000 ) ) ;
#214 = ADVANCED_FACE ( 'NONE', ( #46 ), #60, .F. ) ;
#215 = DIRECTION ( 'NONE',  ( -0.000000000000000000, -0.000000000000000000, 1.000000000000000000 ) ) ;
#216 = VECTOR ( 'NONE', #522, 1000.000000000000000 ) ;
#217 = VERTEX_POINT ( 'NONE', #53 ) ;
#218 = CARTESIAN_POINT ( 'NONE',  ( 14.00000000000000000, -21.00000000000000000, -1.000000000000000000 ) ) ;
#219 = LOCAL_TIME ( 8, 29, 10.00000000000000000, #24 ) ;
#220 = DIRECTION ( 'NONE',  ( -1.000000000000000000, 0.000000000000000000, 0.000000000000000000 ) ) ;
#221 = PERSON_AND_ORGANIZATION ( #104, #154 ) ;
#222 = APPROVAL ( #519, 'UNSPECIFIED' ) ;
#223 = FACE_OUTER_BOUND ( 'NONE', #90, .T. ) ;
#224 = CARTESIAN_POINT ( 'NONE',  ( 14.00000000000000000, -21.00000000000000000, 6.000000000000000000 ) ) ;
#225 = ORIENTED_EDGE ( 'NONE', *, *, #315, .F. ) ;
#226 = LINE ( 'NONE', #479, #338 ) ;
#227 = ORIENTED_EDGE ( 'NONE', *, *, #200, .T. ) ;
#228 = AXIS2_PLACEMENT_3D ( 'NONE', #257, #550, #202 ) ;
#229 = LINE ( 'NONE', #430, #262 ) ;
#230 = VECTOR ( 'NONE', #189, 1000.000000000000000 ) ;
#231 = CARTESIAN_POINT ( 'NONE',  ( 14.90000000000000036, -14.90000000000000036, 7.000000000000000000 ) ) ;
#232 = ORIENTED_EDGE ( 'NONE', *, *, #313, .F. ) ;
#233 = CARTESIAN_POINT ( 'NONE',  ( 14.90000000000000036, -14.90000000000000036, 0.000000000000000000 ) ) ;
#234 = ORIENTED_EDGE ( 'NONE', *, *, #62, .F. ) ;
#235 = DIRECTION ( 'NONE',  ( 0.000000000000000000, 0.000000000000000000, -1.000000000000000000 ) ) ;
#236 = VECTOR ( 'NONE', #531, 1000.000000000000000 ) ;
#237 = ORIENTED_EDGE ( 'NONE', *, *, #414, .F. ) ;
#238 = DIRECTION ( 'NONE',  ( -0.000000000000000000, 1.000000000000000000, 0.000000000000000000 ) ) ;
#239 = SECURITY_CLASSIFICATION ( '', '', #76 ) ;
#240 = CARTESIAN_POINT ( 'NONE',  ( 0.000000000000000000, 0.000000000000000000, 0.000000000000000000 ) ) ;
#241 = EDGE_CURVE ( 'NONE', #301, #193, #164, .T. ) ;
#242 = VERTEX_POINT ( 'NONE', #411 ) ;
#243 = DIRECTION ( 'NONE',  ( 0.000000000000000000, 1.000000000000000000, 0.000000000000000000 ) ) ;
#244 = FACE_OUTER_BOUND ( 'NONE', #347, .T. ) ;
#245 = ORIENTED_EDGE ( 'NONE', *, *, #344, .F. ) ;
#246 = CARTESIAN_POINT ( 'NONE',  ( 27.10000000000000142, 0.000000000000000000, 6.000000000000000000 ) ) ;
#247 = AXIS2_PLACEMENT_3D ( 'NONE', #282, #331, #163 ) ;
#248 = ORIENTED_EDGE ( 'NONE', *, *, #172, .F. ) ;
#249 = VECTOR ( 'NONE', #271, 1000.000000000000000 ) ;
#250 = EDGE_CURVE ( 'NONE', #153, #210, #453, .T. ) ;
#251 = DIRECTION ( 'NONE',  ( -0.000000000000000000, -0.000000000000000000, 1.000000000000000000 ) ) ;
#252 = APPROVAL_STATUS ( 'not_yet_approved' ) ;
#253 = VERTEX_POINT ( 'NONE', #365 ) ;
#254 = DIRECTION ( 'NONE',  ( -0.000000000000000000, -0.000000000000000000, -1.000000000000000000 ) ) ;
#255 = VERTEX_POINT ( 'NONE', #555 ) ;
#256 = EDGE_CURVE ( 'NONE', #242, #105, #10, .T. ) ;
#257 = CARTESIAN_POINT ( 'NONE',  ( 24.00000000000000000, -17.50000000000000000, -1.000000000000000000 ) ) ;
#258 = PERSON_AND_ORGANIZATION ( #104, #154 ) ;
#259 = ORIENTED_EDGE ( 'NONE', *, *, #483, .T. ) ;
#260 = CARTESIAN_POINT ( 'NONE',  ( 13.00000000000000000, -16.00000000000000000, 7.000000000000000000 ) ) ;
#261 = ORIENTED_EDGE ( 'NONE', *, *, #319, .T. ) ;
#262 = VECTOR ( 'NONE', #83, 1000.000000000000000 ) ;
#263 = CARTESIAN_POINT ( 'NONE',  ( 14.00000000000000000, -14.00000000000000000, 6.000000000000000000 ) ) ;
#264 = EDGE_CURVE ( 'NONE', #639, #212, #546, .T. ) ;
#265 = FACE_OUTER_BOUND ( 'NONE', #3, .T. ) ;
#266 = PERSON_AND_ORGANIZATION ( #104, #154 ) ;
#267 = ADVANCED_FACE ( 'NONE', ( #382 ), #470, .F. ) ;
#268 = LINE ( 'NONE', #12, #216 ) ;
#269 = ADVANCED_FACE ( 'NONE', ( #63 ), #610, .F. ) ;
#270 = VECTOR ( 'NONE', #155, 1000.000000000000000 ) ;
#271 = DIRECTION ( 'NONE',  ( -0.000000000000000000, -1.000000000000000000, -0.000000000000000000 ) ) ;
#272 = CC_DESIGN_APPROVAL ( #417, ( #412 ) ) ;
#273 = DIRECTION ( 'NONE',  ( -1.000000000000000000, 0.000000000000000000, 0.000000000000000000 ) ) ;
#274 = EDGE_LOOP ( 'NONE', ( #261, #595, #609, #190 ) ) ;
#275 = APPROVAL_DATE_TIME ( #69, #222 ) ;
#276 = CARTESIAN_POINT ( 'NONE',  ( 0.000000000000000000, 0.000000000000000000, 6.000000000000000000 ) ) ;
#277 = ORIENTED_EDGE ( 'NONE', *, *, #387, .T. ) ;
#278 = EDGE_CURVE ( 'NONE', #253, #471, #17, .T. ) ;
#279 = DIRECTION ( 'NONE',  ( 0.000000000000000000, 0.000000000000000000, -1.000000000000000000 ) ) ;
#280 = ORIENTED_EDGE ( 'NONE', *, *, #498, .F. ) ;
#281 = DIRECTION ( 'NONE',  ( 0.000000000000000000, 1.000000000000000000, 0.000000000000000000 ) ) ;
#282 = CARTESIAN_POINT ( 'NONE',  ( 28.00000000000000000, -21.00000000000000000, 6.000000000000000000 ) ) ;
#283 = VECTOR ( 'NONE', #7, 1000.000000000000000 ) ;
#284 = DIRECTION ( 'NONE',  ( 0.000000000000000000, -0.000000000000000000, 1.000000000000000000 ) ) ;
#285 = AXIS2_PLACEMENT_3D ( 'NONE', #437, #496, #43 ) ;
#286 = LINE ( 'NONE', #191, #108 ) ;
#287 = ADVANCED_FACE ( 'NONE', ( #265 ), #119, .F. ) ;
#288 = ORIENTED_EDGE ( 'NONE', *, *, #106, .F. ) ;
#289 = DIRECTION ( 'NONE',  ( -0.000000000000000000, -0.000000000000000000, -1.000000000000000000 ) ) ;
#290 = DIRECTION ( 'NONE',  ( 0.000000000000000000, 0.000000000000000000, -1.000000000000000000 ) ) ;
#291 =( LENGTH_UNIT ( ) NAMED_UNIT ( * ) SI_UNIT ( .MILLI., .METRE. ) );
#292 = ORIENTED_EDGE ( 'NONE', *, *, #387, .F. ) ;
#293 = DIRECTION ( 'NONE',  ( -0.000000000000000000, -0.000000000000000000, -1.000000000000000000 ) ) ;
#294 = DIRECTION ( 'NONE',  ( -1.000000000000000000, 0.000000000000000000, 0.000000000000000000 ) ) ;
#295 = CIRCLE ( 'NONE', #410, 1.100000000000000311 ) ;
#296 = AXIS2_PLACEMENT_3D ( 'NONE', #517, #525, #273 ) ;
#297 = ORIENTED_EDGE ( 'NONE', *, *, #149, .F. ) ;
#298 = CARTESIAN_POINT ( 'NONE',  ( 28.00000000000000000, -21.00000000000000000, 6.000000000000000000 ) ) ;
#299 = ORIENTED_EDGE ( 'NONE', *, *, #120, .F. ) ;
#300 = EDGE_CURVE ( 'NONE', #447, #441, #226, .T. ) ;
#301 = VERTEX_POINT ( 'NONE', #416 ) ;
#302 = CC_DESIGN_PERSON_AND_ORGANIZATION_ASSIGNMENT ( #432, #577, ( #412 ) ) ;
#303 = ORIENTED_EDGE ( 'NONE', *, *, #368, .F. ) ;
#304 = DIRECTION ( 'NONE',  ( -0.000000000000000000, 1.000000000000000000, 0.000000000000000000 ) ) ;
#305 = DIRECTION ( 'NONE',  ( -1.000000000000000000, 0.000000000000000000, -0.000000000000000000 ) ) ;
#306 = VECTOR ( 'NONE', #370, 1000.000000000000000 ) ;
#307 = ORIENTED_EDGE ( 'NONE', *, *, #414, .T. ) ;
#308 = DIRECTION ( 'NONE',  ( 1.000000000000000000, 0.000000000000000000, 0.000000000000000000 ) ) ;
#309 = DATE_AND_TIME ( #600, #318 ) ;
#310 = ORIENTED_EDGE ( 'NONE', *, *, #11, .F. ) ;
#311 = DIRECTION ( 'NONE',  ( 0.000000000000000000, 1.000000000000000000, 0.000000000000000000 ) ) ;
#312 = DIRECTION ( 'NONE',  ( -0.000000000000000000, -0.000000000000000000, -1.000000000000000000 ) ) ;
#313 = EDGE_CURVE ( 'NONE', #506, #134, #268, .T. ) ;
#314 = VECTOR ( 'NONE', #578, 1000.000000000000000 ) ;
#315 = EDGE_CURVE ( 'NONE', #242, #98, #169, .T. ) ;
#316 = AXIS2_PLACEMENT_3D ( 'NONE', #124, #336, #183 ) ;
#317 = LINE ( 'NONE', #510, #283 ) ;
#318 = LOCAL_TIME ( 8, 29, 10.00000000000000000, #405 ) ;
#319 = EDGE_CURVE ( 'NONE', #343, #349, #295, .T. ) ;
#320 = CARTESIAN_POINT ( 'NONE',  ( 18.00000000000000000, -17.50000000000000000, 0.000000000000000000 ) ) ;
#321 = PERSON_AND_ORGANIZATION_ROLE ( 'design_supplier' ) ;
#322 = EDGE_CURVE ( 'NONE', #253, #134, #423, .T. ) ;
#323 = DIRECTION ( 'NONE',  ( -0.000000000000000000, -1.000000000000000000, -0.000000000000000000 ) ) ;
#324 = DATE_AND_TIME ( #472, #82 ) ;
#325 = LINE ( 'NONE', #624, #314 ) ;
#326 = DIRECTION ( 'NONE',  ( 0.000000000000000000, 0.000000000000000000, -1.000000000000000000 ) ) ;
#327 = EDGE_LOOP ( 'NONE', ( #8, #138, #135, #179, #631, #48, #492, #310 ) ) ;
#328 = CALENDAR_DATE ( 2026, 8, 9 ) ;
#329 = CARTESIAN_POINT ( 'NONE',  ( 27.10000000000000142, -20.10000000000000142, 0.000000000000000000 ) ) ;
#330 = ORIENTED_EDGE ( 'NONE', *, *, #250, .F. ) ;
#331 = DIRECTION ( 'NONE',  ( -1.000000000000000000, 0.000000000000000000, 0.000000000000000000 ) ) ;
#332 = ORIENTED_EDGE ( 'NONE', *, *, #561, .T. ) ;
#333 = CARTESIAN_POINT ( 'NONE',  ( 14.90000000000000036, -20.10000000000000142, 6.000000000000000000 ) ) ;
#334 = EDGE_LOOP ( 'NONE', ( #456, #538 ) ) ;
#335 = LINE ( 'NONE', #428, #358 ) ;
#336 = DIRECTION ( 'NONE',  ( -0.000000000000000000, -0.000000000000000000, 1.000000000000000000 ) ) ;
#337 = LINE ( 'NONE', #100, #530 ) ;
#338 = VECTOR ( 'NONE', #466, 1000.000000000000000 ) ;
#339 = CYLINDRICAL_SURFACE ( 'NONE', #351, 1.100000000000000311 ) ;
#340 = ADVANCED_FACE ( 'NONE', ( #67 ), #113, .T. ) ;
#341 = PLANE ( 'NONE',  #57 ) ;
#342 = CARTESIAN_POINT ( 'NONE',  ( 14.00000000000000000, -14.00000000000000000, -1.000000000000000000 ) ) ;
#343 = VERTEX_POINT ( 'NONE', #421 ) ;
#344 = EDGE_CURVE ( 'NONE', #98, #586, #335, .T. ) ;
#345 = LINE ( 'NONE', #35, #427 ) ;
#346 = DIRECTION ( 'NONE',  ( 0.000000000000000000, 0.000000000000000000, -1.000000000000000000 ) ) ;
#347 = EDGE_LOOP ( 'NONE', ( #647, #94, #649, #608 ) ) ;
#348 = LINE ( 'NONE', #490, #378 ) ;
#349 = VERTEX_POINT ( 'NONE', #112 ) ;
#350 = ORIENTED_EDGE ( 'NONE', *, *, #11, .T. ) ;
#351 = AXIS2_PLACEMENT_3D ( 'NONE', #469, #70, #425 ) ;
#352 = DIRECTION ( 'NONE',  ( 1.000000000000000000, 0.000000000000000000, 0.000000000000000000 ) ) ;
#353 = ORIENTED_EDGE ( 'NONE', *, *, #322, .T. ) ;
#354 = LINE ( 'NONE', #457, #45 ) ;
#355 = FACE_OUTER_BOUND ( 'NONE', #18, .T. ) ;
#356 = ORIENTED_EDGE ( 'NONE', *, *, #157, .F. ) ;
#357 = FACE_OUTER_BOUND ( 'NONE', #552, .T. ) ;
#358 = VECTOR ( 'NONE', #559, 1000.000000000000000 ) ;
#359 = ORIENTED_EDGE ( 'NONE', *, *, #102, .F. ) ;
#360 = CARTESIAN_POINT ( 'NONE',  ( 13.00000000000000000, -16.00000000000000000, 7.000000000000000000 ) ) ;
#361 = DATE_TIME_ROLE ( 'creation_date' ) ;
#362 = ADVANCED_FACE ( 'NONE', ( #468 ), #418, .T. ) ;
#363 = ORIENTED_EDGE ( 'NONE', *, *, #498, .T. ) ;
#364 = ADVANCED_FACE ( 'NONE', ( #512 ), #122, .F. ) ;
#365 = CARTESIAN_POINT ( 'NONE',  ( 14.00000000000000000, -16.00000000000000000, 6.000000000000000000 ) ) ;
#366 = COORDINATED_UNIVERSAL_TIME_OFFSET ( 6, 0, .BEHIND. ) ;
#367 = CARTESIAN_POINT ( 'NONE',  ( 27.10000000000000142, -20.10000000000000142, 0.000000000000000000 ) ) ;
#368 = EDGE_CURVE ( 'NONE', #349, #217, #173, .T. ) ;
#369 = AXIS2_PLACEMENT_3D ( 'NONE', #260, #304, #465 ) ;
#370 = DIRECTION ( 'NONE',  ( 1.000000000000000000, 0.000000000000000000, 0.000000000000000000 ) ) ;
#371 = EDGE_CURVE ( 'NONE', #580, #217, #467, .T. ) ;
#372 = DIRECTION ( 'NONE',  ( 0.000000000000000000, 0.000000000000000000, -1.000000000000000000 ) ) ;
#373 = FACE_OUTER_BOUND ( 'NONE', #327, .T. ) ;
#374 = DIRECTION ( 'NONE',  ( 0.000000000000000000, 0.000000000000000000, -1.000000000000000000 ) ) ;
#375 = ADVANCED_BREP_SHAPE_REPRESENTATION ( 'ARM-111_Moving_jaw_TPU_sock', ( #162, #401 ), #574 ) ;
#376 = CARTESIAN_POINT ( 'NONE',  ( 14.00000000000000000, -14.00000000000000000, 6.000000000000000000 ) ) ;
#377 = CARTESIAN_POINT ( 'NONE',  ( 27.10000000000000142, -20.10000000000000142, 3.799999999999999822 ) ) ;
#378 = VECTOR ( 'NONE', #80, 1000.000000000000000 ) ;
#379 = EDGE_LOOP ( 'NONE', ( #144, #460, #87, #227 ) ) ;
#380 = APPROVAL_DATE_TIME ( #324, #417 ) ;
#381 = CARTESIAN_POINT ( 'NONE',  ( 27.10000000000000142, -20.10000000000000142, 7.000000000000000000 ) ) ;
#382 = FACE_OUTER_BOUND ( 'NONE', #195, .T. ) ;
#383 = ORIENTED_EDGE ( 'NONE', *, *, #128, .F. ) ;
#384 = DIRECTION ( 'NONE',  ( 0.000000000000000000, 0.000000000000000000, -1.000000000000000000 ) ) ;
#385 = ADVANCED_FACE ( 'NONE', ( #626 ), #178, .T. ) ;
#386 = CARTESIAN_POINT ( 'NONE',  ( 27.10000000000000142, -16.00000000000000000, 7.000000000000000000 ) ) ;
#387 = EDGE_CURVE ( 'NONE', #419, #583, #593, .T. ) ;
#388 = DIRECTION ( 'NONE',  ( -1.000000000000000000, -0.000000000000000000, -0.000000000000000000 ) ) ;
#389 = PERSON_AND_ORGANIZATION ( #104, #154 ) ;
#390 = CC_DESIGN_PERSON_AND_ORGANIZATION_ASSIGNMENT ( #527, #180, ( #239 ) ) ;
#391 = DIRECTION ( 'NONE',  ( 0.000000000000000000, 0.000000000000000000, -1.000000000000000000 ) ) ;
#392 = DIRECTION ( 'NONE',  ( 0.000000000000000000, 0.000000000000000000, -1.000000000000000000 ) ) ;
#393 = ORIENTED_EDGE ( 'NONE', *, *, #250, .T. ) ;
#394 = DIRECTION ( 'NONE',  ( 0.000000000000000000, 0.000000000000000000, -1.000000000000000000 ) ) ;
#395 = ORIENTED_EDGE ( 'NONE', *, *, #409, .F. ) ;
#396 = ORIENTED_EDGE ( 'NONE', *, *, #256, .F. ) ;
#397 = DIRECTION ( 'NONE',  ( -0.000000000000000000, -0.000000000000000000, 1.000000000000000000 ) ) ;
#398 = ORIENTED_EDGE ( 'NONE', *, *, #170, .F. ) ;
#399 = CARTESIAN_POINT ( 'NONE',  ( 27.10000000000000142, -20.10000000000000142, 7.000000000000000000 ) ) ;
#400 = APPROVAL_PERSON_ORGANIZATION ( #258, #417, #156 ) ;
#401 = AXIS2_PLACEMENT_3D ( 'NONE', #142, #146, #352 ) ;
#402 = CARTESIAN_POINT ( 'NONE',  ( 28.00000000000000000, -14.00000000000000000, -1.000000000000000000 ) ) ;
#403 = ORIENTED_EDGE ( 'NONE', *, *, #436, .T. ) ;
#404 = DIRECTION ( 'NONE',  ( 0.000000000000000000, -0.000000000000000000, 1.000000000000000000 ) ) ;
#405 = COORDINATED_UNIVERSAL_TIME_OFFSET ( 6, 0, .BEHIND. ) ;
#406 = ORIENTED_EDGE ( 'NONE', *, *, #409, .T. ) ;
#407 = LINE ( 'NONE', #97, #187 ) ;
#408 = CALENDAR_DATE ( 2026, 8, 9 ) ;
#409 = EDGE_CURVE ( 'NONE', #643, #415, #565, .T. ) ;
#410 = AXIS2_PLACEMENT_3D ( 'NONE', #320, #215, #220 ) ;
#411 = CARTESIAN_POINT ( 'NONE',  ( 27.10000000000000497, -14.90000000000000036, 3.799999999999999822 ) ) ;
#412 = PRODUCT_DEFINITION_FORMATION_WITH_SPECIFIED_SOURCE ( 'ANY', '', #487, .NOT_KNOWN. ) ;
#413 = PLANE ( 'NONE',  #558 ) ;
#414 = EDGE_CURVE ( 'NONE', #424, #98, #532, .T. ) ;
#415 = VERTEX_POINT ( 'NONE', #329 ) ;
#416 = CARTESIAN_POINT ( 'NONE',  ( 22.89999999999999858, -17.50000000000000000, 0.000000000000000000 ) ) ;
#417 = APPROVAL ( #5, 'UNSPECIFIED' ) ;
#418 = PLANE ( 'NONE',  #117 ) ;
#419 = VERTEX_POINT ( 'NONE', #573 ) ;
#420 = CARTESIAN_POINT ( 'NONE',  ( 16.89999999999999858, -17.50000000000000000, 5.999999999999998224 ) ) ;
#421 = CARTESIAN_POINT ( 'NONE',  ( 16.89999999999999858, -17.50000000000000000, 0.000000000000000000 ) ) ;
#422 = PLANE ( 'NONE',  #554 ) ;
#423 = LINE ( 'NONE', #71, #306 ) ;
#424 = VERTEX_POINT ( 'NONE', #528 ) ;
#425 = DIRECTION ( 'NONE',  ( -1.000000000000000000, 0.000000000000000000, 0.000000000000000000 ) ) ;
#426 = EDGE_CURVE ( 'NONE', #568, #153, #524, .T. ) ;
#427 = VECTOR ( 'NONE', #238, 1000.000000000000000 ) ;
#428 = CARTESIAN_POINT ( 'NONE',  ( 13.00000000000000000, -16.00000000000000000, 3.799999999999999822 ) ) ;
#429 = VERTEX_POINT ( 'NONE', #333 ) ;
#430 = CARTESIAN_POINT ( 'NONE',  ( 0.000000000000000000, -20.10000000000000142, 6.000000000000000000 ) ) ;
#431 = VECTOR ( 'NONE', #392, 1000.000000000000000 ) ;
#432 = PERSON_AND_ORGANIZATION ( #104, #154 ) ;
#433 = LINE ( 'NONE', #16, #61 ) ;
#434 = EDGE_CURVE ( 'NONE', #193, #419, #325, .T. ) ;
#435 = FACE_OUTER_BOUND ( 'NONE', #29, .T. ) ;
#436 = EDGE_CURVE ( 'NONE', #506, #81, #127, .T. ) ;
#437 = CARTESIAN_POINT ( 'NONE',  ( 18.00000000000000000, -17.50000000000000000, 0.000000000000000000 ) ) ;
#438 = LINE ( 'NONE', #488, #478 ) ;
#439 = AXIS2_PLACEMENT_3D ( 'NONE', #23, #279, #567 ) ;
#440 = CARTESIAN_POINT ( 'NONE',  ( 28.00000000000000000, -16.00000000000000000, 3.799999999999999822 ) ) ;
#441 = VERTEX_POINT ( 'NONE', #520 ) ;
#442 = EDGE_LOOP ( 'NONE', ( #72, #353, #232, #204 ) ) ;
#443 = CARTESIAN_POINT ( 'NONE',  ( 13.00000000000000000, -16.00000000000000000, 3.799999999999999822 ) ) ;
#444 = EDGE_LOOP ( 'NONE', ( #207, #634, #350, #627, #590, #147 ) ) ;
#445 = CYLINDRICAL_SURFACE ( 'NONE', #139, 1.100000000000000311 ) ;
#446 = DIRECTION ( 'NONE',  ( -0.000000000000000000, -0.000000000000000000, 1.000000000000000000 ) ) ;
#447 = VERTEX_POINT ( 'NONE', #477 ) ;
#448 = DIRECTION ( 'NONE',  ( 0.000000000000000000, 1.000000000000000000, 0.000000000000000000 ) ) ;
#449 = APPLICATION_PROTOCOL_DEFINITION ( 'international standard', 'config_control_design', 1994, #159 ) ;
#450 = VECTOR ( 'NONE', #75, 1000.000000000000000 ) ;
#451 = AXIS2_PLACEMENT_3D ( 'NONE', #613, #374, #617 ) ;
#452 = ORIENTED_EDGE ( 'NONE', *, *, #25, .F. ) ;
#453 = LINE ( 'NONE', #605, #270 ) ;
#454 = APPROVAL_PERSON_ORGANIZATION ( #221, #222, #622 ) ;
#455 = EDGE_CURVE ( 'NONE', #429, #643, #229, .T. ) ;
#456 = ORIENTED_EDGE ( 'NONE', *, *, #241, .F. ) ;
#457 = CARTESIAN_POINT ( 'NONE',  ( 28.00000000000000000, -21.00000000000000000, 6.000000000000000000 ) ) ;
#458 = DIRECTION ( 'NONE',  ( 1.000000000000000000, -0.000000000000000000, 0.000000000000000000 ) ) ;
#459 = EDGE_CURVE ( 'NONE', #447, #568, #628, .T. ) ;
#460 = ORIENTED_EDGE ( 'NONE', *, *, #300, .T. ) ;
#461 = APPROVAL_ROLE ( '' ) ;
#462 = ORIENTED_EDGE ( 'NONE', *, *, #54, .T. ) ;
#463 = CARTESIAN_POINT ( 'NONE',  ( 14.90000000000000036, -20.10000000000000142, 0.000000000000000000 ) ) ;
#464 = ORIENTED_EDGE ( 'NONE', *, *, #96, .F. ) ;
#465 = DIRECTION ( 'NONE',  ( 0.000000000000000000, -0.000000000000000000, 1.000000000000000000 ) ) ;
#466 = DIRECTION ( 'NONE',  ( 1.000000000000000000, 0.000000000000000000, 0.000000000000000000 ) ) ;
#467 = CIRCLE ( 'NONE', #296, 1.100000000000000311 ) ;
#468 = FACE_OUTER_BOUND ( 'NONE', #499, .T. ) ;
#469 = CARTESIAN_POINT ( 'NONE',  ( 24.00000000000000000, -17.50000000000000000, 5.999999999999998224 ) ) ;
#470 = PLANE ( 'NONE',  #247 ) ;
#471 = VERTEX_POINT ( 'NONE', #616 ) ;
#472 = CALENDAR_DATE ( 2026, 8, 9 ) ;
#473 = CC_DESIGN_DATE_AND_TIME_ASSIGNMENT ( #152, #361, ( #73 ) ) ;
#474 = DIRECTION ( 'NONE',  ( -1.000000000000000000, 0.000000000000000000, -0.000000000000000000 ) ) ;
#475 = DIRECTION ( 'NONE',  ( 0.000000000000000000, -1.000000000000000000, 0.000000000000000000 ) ) ;
#476 = ORIENTED_EDGE ( 'NONE', *, *, #200, .F. ) ;
#477 = CARTESIAN_POINT ( 'NONE',  ( 14.00000000000000000, -14.00000000000000000, 3.799999999999999822 ) ) ;
#478 = VECTOR ( 'NONE', #388, 1000.000000000000000 ) ;
#479 = CARTESIAN_POINT ( 'NONE',  ( 14.00000000000000000, -14.00000000000000000, 3.799999999999999822 ) ) ;
#480 = ADVANCED_FACE ( 'NONE', ( #569 ), #339, .F. ) ;
#481 = CARTESIAN_POINT ( 'NONE',  ( 14.00000000000000000, -16.00000000000000000, 3.799999999999999822 ) ) ;
#482 = LOCAL_TIME ( 8, 29, 10.00000000000000000, #116 ) ;
#483 = EDGE_CURVE ( 'NONE', #343, #580, #77, .T. ) ;
#484 = DIRECTION ( 'NONE',  ( 0.000000000000000000, 0.000000000000000000, 1.000000000000000000 ) ) ;
#485 = ORIENTED_EDGE ( 'NONE', *, *, #434, .T. ) ;
#486 = LINE ( 'NONE', #168, #199 ) ;
#487 = PRODUCT ( 'ARM-111_Moving_jaw_TPU_sock', 'ARM-111_Moving_jaw_TPU_sock', '', ( #547 ) ) ;
#488 = CARTESIAN_POINT ( 'NONE',  ( 14.90000000000000036, -14.90000000000000036, 0.000000000000000000 ) ) ;
#489 = EDGE_LOOP ( 'NONE', ( #641, #277 ) ) ;
#490 = CARTESIAN_POINT ( 'NONE',  ( 14.90000000000000036, -20.10000000000000142, 7.000000000000000000 ) ) ;
#491 = PLANE ( 'NONE',  #49 ) ;
#492 = ORIENTED_EDGE ( 'NONE', *, *, #455, .F. ) ;
#493 = LINE ( 'NONE', #298, #625 ) ;
#494 = ORIENTED_EDGE ( 'NONE', *, *, #371, .T. ) ;
#495 = CARTESIAN_POINT ( 'NONE',  ( 14.90000000000000036, 0.000000000000000000, 6.000000000000000000 ) ) ;
#496 = DIRECTION ( 'NONE',  ( -0.000000000000000000, -0.000000000000000000, 1.000000000000000000 ) ) ;
#497 = DIRECTION ( 'NONE',  ( -0.000000000000000000, 1.000000000000000000, 0.000000000000000000 ) ) ;
#498 = EDGE_CURVE ( 'NONE', #150, #586, #486, .T. ) ;
#499 = EDGE_LOOP ( 'NONE', ( #21, #406, #85, #41 ) ) ;
#500 = PLANE ( 'NONE',  #369 ) ;
#501 = CARTESIAN_POINT ( 'NONE',  ( 14.90000000000000036, -20.10000000000000142, 7.000000000000000000 ) ) ;
#502 = CIRCLE ( 'NONE', #285, 1.100000000000000311 ) ;
#503 = APPROVAL_DATE_TIME ( #309, #110 ) ;
#504 = ORIENTED_EDGE ( 'NONE', *, *, #612, .F. ) ;
#505 = CARTESIAN_POINT ( 'NONE',  ( 14.00000000000000000, -21.00000000000000000, -1.000000000000000000 ) ) ;
#506 = VERTEX_POINT ( 'NONE', #118 ) ;
#507 = EDGE_CURVE ( 'NONE', #212, #415, #433, .T. ) ;
#508 = DIRECTION ( 'NONE',  ( 0.000000000000000000, 1.000000000000000000, 0.000000000000000000 ) ) ;
#509 = VECTOR ( 'NONE', #293, 1000.000000000000000 ) ;
#510 = CARTESIAN_POINT ( 'NONE',  ( 14.90000000000000036, -14.90000000000000036, 3.799999999999999822 ) ) ;
#511 = AXIS2_PLACEMENT_3D ( 'NONE', #95, #397, #294 ) ;
#512 = FACE_OUTER_BOUND ( 'NONE', #141, .T. ) ;
#513 = CARTESIAN_POINT ( 'NONE',  ( 14.00000000000000000, -21.00000000000000000, 6.000000000000000000 ) ) ;
#514 = DIRECTION ( 'NONE',  ( 0.000000000000000000, 0.000000000000000000, -1.000000000000000000 ) ) ;
#515 = VECTOR ( 'NONE', #243, 1000.000000000000000 ) ;
#516 = VECTOR ( 'NONE', #326, 1000.000000000000000 ) ;
#517 = CARTESIAN_POINT ( 'NONE',  ( 18.00000000000000000, -17.50000000000000000, -1.000000000000000000 ) ) ;
#518 = ADVANCED_FACE ( 'NONE', ( #373 ), #66, .F. ) ;
#519 = APPROVAL_STATUS ( 'not_yet_approved' ) ;
#520 = CARTESIAN_POINT ( 'NONE',  ( 28.00000000000000355, -14.00000000000000000, 3.799999999999999822 ) ) ;
#521 = VECTOR ( 'NONE', #384, 1000.000000000000000 ) ;
#522 = DIRECTION ( 'NONE',  ( 0.000000000000000000, 0.000000000000000000, 1.000000000000000000 ) ) ;
#523 = ORIENTED_EDGE ( 'NONE', *, *, #587, .T. ) ;
#524 = LINE ( 'NONE', #218, #249 ) ;
#525 = DIRECTION ( 'NONE',  ( -0.000000000000000000, -0.000000000000000000, 1.000000000000000000 ) ) ;
#526 = DESIGN_CONTEXT ( 'detailed design', #640, 'design' ) ;
#527 = PERSON_AND_ORGANIZATION ( #104, #154 ) ;
#528 = CARTESIAN_POINT ( 'NONE',  ( 27.10000000000000142, -16.00000000000000000, 6.000000000000000000 ) ) ;
#529 = CC_DESIGN_PERSON_AND_ORGANIZATION_ASSIGNMENT ( #51, #2, ( #73 ) ) ;
#530 = VECTOR ( 'NONE', #308, 1000.000000000000000 ) ;
#531 = DIRECTION ( 'NONE',  ( 0.000000000000000000, -1.000000000000000000, 0.000000000000000000 ) ) ;
#532 = LINE ( 'NONE', #386, #197 ) ;
#533 = LINE ( 'NONE', #584, #509 ) ;
#534 = PLANE ( 'NONE',  #165 ) ;
#535 = ORIENTED_EDGE ( 'NONE', *, *, #300, .F. ) ;
#536 = EDGE_LOOP ( 'NONE', ( #494, #523 ) ) ;
#537 = DIRECTION ( 'NONE',  ( -1.000000000000000000, 0.000000000000000000, -0.000000000000000000 ) ) ;
#538 = ORIENTED_EDGE ( 'NONE', *, *, #623, .F. ) ;
#539 = CARTESIAN_POINT ( 'NONE',  ( 27.10000000000000142, -14.90000000000000036, 0.000000000000000000 ) ) ;
#540 = ADVANCED_FACE ( 'NONE', ( #223 ), #422, .F. ) ;
#541 = AXIS2_PLACEMENT_3D ( 'NONE', #501, #458, #629 ) ;
#542 = EDGE_LOOP ( 'NONE', ( #601, #504 ) ) ;
#543 = DIRECTION ( 'NONE',  ( -1.000000000000000000, 0.000000000000000000, 0.000000000000000000 ) ) ;
#544 = CARTESIAN_POINT ( 'NONE',  ( 22.89999999999999858, -17.50000000000000000, -1.000000000000000000 ) ) ;
#545 = EDGE_LOOP ( 'NONE', ( #303, #598, #259, #563 ) ) ;
#546 = LINE ( 'NONE', #571, #450 ) ;
#547 = MECHANICAL_CONTEXT ( 'NONE', #159, 'mechanical' ) ;
#548 = CC_DESIGN_PERSON_AND_ORGANIZATION_ASSIGNMENT ( #266, #321, ( #412 ) ) ;
#549 = EDGE_LOOP ( 'NONE', ( #140, #485, #299, #185 ) ) ;
#550 = DIRECTION ( 'NONE',  ( -0.000000000000000000, -0.000000000000000000, 1.000000000000000000 ) ) ;
#551 = VECTOR ( 'NONE', #148, 1000.000000000000000 ) ;
#552 = EDGE_LOOP ( 'NONE', ( #363, #245, #237, #38 ) ) ;
#553 = DIRECTION ( 'NONE',  ( 0.000000000000000000, -0.000000000000000000, -1.000000000000000000 ) ) ;
#554 = AXIS2_PLACEMENT_3D ( 'NONE', #618, #171, #284 ) ;
#555 = CARTESIAN_POINT ( 'NONE',  ( 28.00000000000000000, -21.00000000000000000, 6.000000000000000000 ) ) ;
#556 = VERTEX_POINT ( 'NONE', #481 ) ;
#557 = FACE_OUTER_BOUND ( 'NONE', #442, .T. ) ;
#558 = AXIS2_PLACEMENT_3D ( 'NONE', #360, #497, #404 ) ;
#559 = DIRECTION ( 'NONE',  ( 1.000000000000000000, 0.000000000000000000, 0.000000000000000000 ) ) ;
#560 = CIRCLE ( 'NONE', #511, 1.100000000000000311 ) ;
#561 = EDGE_CURVE ( 'NONE', #81, #639, #27, .T. ) ;
#562 = DIRECTION ( 'NONE',  ( 0.000000000000000000, -1.000000000000000000, 0.000000000000000000 ) ) ;
#563 = ORIENTED_EDGE ( 'NONE', *, *, #587, .F. ) ;
#564 = DATE_TIME_ROLE ( 'classification_date' ) ;
#565 = LINE ( 'NONE', #381, #109 ) ;
#566 = EDGE_CURVE ( 'NONE', #556, #253, #33, .T. ) ;
#567 = DIRECTION ( 'NONE',  ( -1.000000000000000000, 0.000000000000000000, 0.000000000000000000 ) ) ;
#568 = VERTEX_POINT ( 'NONE', #342 ) ;
#569 = FACE_OUTER_BOUND ( 'NONE', #549, .T. ) ;
#570 = VECTOR ( 'NONE', #596, 1000.000000000000000 ) ;
#571 = CARTESIAN_POINT ( 'NONE',  ( 14.90000000000000036, -20.10000000000000142, 0.000000000000000000 ) ) ;
#572 = ORIENTED_EDGE ( 'NONE', *, *, #426, .F. ) ;
#573 = CARTESIAN_POINT ( 'NONE',  ( 25.10000000000000142, -17.50000000000000000, -1.000000000000000000 ) ) ;
#574 =( GEOMETRIC_REPRESENTATION_CONTEXT ( 3 ) GLOBAL_UNCERTAINTY_ASSIGNED_CONTEXT ( ( #123 ) ) GLOBAL_UNIT_ASSIGNED_CONTEXT ( ( #291, #589, #192 ) ) REPRESENTATION_CONTEXT ( 'NONE', 'WORKASPACE' ) );
#575 = CARTESIAN_POINT ( 'NONE',  ( 14.90000000000000036, -14.90000000000000036, 7.000000000000000000 ) ) ;
#576 = DIRECTION ( 'NONE',  ( 1.000000000000000000, 0.000000000000000000, 0.000000000000000000 ) ) ;
#577 = PERSON_AND_ORGANIZATION_ROLE ( 'creator' ) ;
#578 = DIRECTION ( 'NONE',  ( 0.000000000000000000, 0.000000000000000000, -1.000000000000000000 ) ) ;
#579 = VECTOR ( 'NONE', #562, 1000.000000000000000 ) ;
#580 = VERTEX_POINT ( 'NONE', #585 ) ;
#581 = APPLICATION_PROTOCOL_DEFINITION ( 'international standard', 'config_control_design', 1994, #640 ) ;
#582 = CC_DESIGN_APPROVAL ( #222, ( #239 ) ) ;
#583 = VERTEX_POINT ( 'NONE', #544 ) ;
#584 = CARTESIAN_POINT ( 'NONE',  ( 14.00000000000000000, -21.00000000000000000, 6.000000000000000000 ) ) ;
#585 = CARTESIAN_POINT ( 'NONE',  ( 16.89999999999999858, -17.50000000000000000, -1.000000000000000000 ) ) ;
#586 = VERTEX_POINT ( 'NONE', #440 ) ;
#587 = EDGE_CURVE ( 'NONE', #217, #580, #181, .T. ) ;
#588 = CARTESIAN_POINT ( 'NONE',  ( 27.10000000000000142, -16.00000000000000000, 3.799999999999999822 ) ) ;
#589 =( NAMED_UNIT ( * ) PLANE_ANGLE_UNIT ( ) SI_UNIT ( $, .RADIAN. ) );
#590 = ORIENTED_EDGE ( 'NONE', *, *, #264, .F. ) ;
#591 = CLOSED_SHELL ( 'NONE', ( #269, #480, #518, #287, #267, #385, #84, #540, #214, #621, #362, #340, #636, #125, #182, #13, #364, #6 ) ) ;
#592 = CARTESIAN_POINT ( 'NONE',  ( 0.000000000000000000, 0.000000000000000000, 3.799999999999999822 ) ) ;
#593 = CIRCLE ( 'NONE', #316, 1.100000000000000311 ) ;
#594 = FACE_BOUND ( 'NONE', #542, .T. ) ;
#595 = ORIENTED_EDGE ( 'NONE', *, *, #368, .T. ) ;
#596 = DIRECTION ( 'NONE',  ( 0.000000000000000000, 0.000000000000000000, -1.000000000000000000 ) ) ;
#597 = CARTESIAN_POINT ( 'NONE',  ( 0.000000000000000000, 0.000000000000000000, -1.000000000000000000 ) ) ;
#598 = ORIENTED_EDGE ( 'NONE', *, *, #612, .T. ) ;
#599 = CARTESIAN_POINT ( 'NONE',  ( 28.00000000000000000, -14.00000000000000000, 6.000000000000000000 ) ) ;
#600 = CALENDAR_DATE ( 2026, 8, 9 ) ;
#601 = ORIENTED_EDGE ( 'NONE', *, *, #319, .F. ) ;
#602 = DIRECTION ( 'NONE',  ( -1.000000000000000000, -0.000000000000000000, -0.000000000000000000 ) ) ;
#603 = VECTOR ( 'NONE', #323, 1000.000000000000000 ) ;
#604 = VERTEX_POINT ( 'NONE', #402 ) ;
#605 = CARTESIAN_POINT ( 'NONE',  ( 14.00000000000000000, -21.00000000000000000, -1.000000000000000000 ) ) ;
#606 = CC_DESIGN_SECURITY_CLASSIFICATION ( #239, ( #412 ) ) ;
#607 = CARTESIAN_POINT ( 'NONE',  ( 25.10000000000000142, -17.50000000000000000, 0.000000000000000000 ) ) ;
#608 = ORIENTED_EDGE ( 'NONE', *, *, #62, .T. ) ;
#609 = ORIENTED_EDGE ( 'NONE', *, *, #371, .F. ) ;
#610 = CYLINDRICAL_SURFACE ( 'NONE', #439, 1.100000000000000311 ) ;
#611 = AXIS2_PLACEMENT_3D ( 'NONE', #263, #151, #553 ) ;
#612 = EDGE_CURVE ( 'NONE', #349, #343, #502, .T. ) ;
#613 = CARTESIAN_POINT ( 'NONE',  ( 24.00000000000000000, -17.50000000000000000, 5.999999999999998224 ) ) ;
#614 = DATE_AND_TIME ( #328, #482 ) ;
#615 = PRODUCT_RELATED_PRODUCT_CATEGORY ( 'detail', '', ( #487 ) ) ;
#616 = CARTESIAN_POINT ( 'NONE',  ( 14.00000000000000000, -21.00000000000000000, 6.000000000000000000 ) ) ;
#617 = DIRECTION ( 'NONE',  ( -1.000000000000000000, 0.000000000000000000, 0.000000000000000000 ) ) ;
#618 = CARTESIAN_POINT ( 'NONE',  ( 14.00000000000000000, -21.00000000000000000, 6.000000000000000000 ) ) ;
#619 = DIRECTION ( 'NONE',  ( 0.000000000000000000, -0.000000000000000000, 1.000000000000000000 ) ) ;
#620 = ORIENTED_EDGE ( 'NONE', *, *, #128, .T. ) ;
#621 = ADVANCED_FACE ( 'NONE', ( #632, #40, #355 ), #534, .T. ) ;
#622 = APPROVAL_ROLE ( '' ) ;
#623 = EDGE_CURVE ( 'NONE', #193, #301, #560, .T. ) ;
#624 = CARTESIAN_POINT ( 'NONE',  ( 25.10000000000000142, -17.50000000000000000, 5.999999999999998224 ) ) ;
#625 = VECTOR ( 'NONE', #448, 1000.000000000000000 ) ;
#626 = FACE_OUTER_BOUND ( 'NONE', #444, .T. ) ;
#627 = ORIENTED_EDGE ( 'NONE', *, *, #31, .T. ) ;
#628 = LINE ( 'NONE', #376, #26 ) ;
#629 = DIRECTION ( 'NONE',  ( 0.000000000000000000, 0.000000000000000000, -1.000000000000000000 ) ) ;
#630 = DIRECTION ( 'NONE',  ( -1.000000000000000000, 0.000000000000000000, -0.000000000000000000 ) ) ;
#631 = ORIENTED_EDGE ( 'NONE', *, *, #208, .F. ) ;
#632 = FACE_BOUND ( 'NONE', #536, .T. ) ;
#633 = VECTOR ( 'NONE', #311, 1000.000000000000000 ) ;
#634 = ORIENTED_EDGE ( 'NONE', *, *, #313, .T. ) ;
#635 = CARTESIAN_POINT ( 'NONE',  ( 14.00000000000000000, -16.00000000000000000, 6.000000000000000000 ) ) ;
#636 = ADVANCED_FACE ( 'NONE', ( #594, #86, #244 ), #491, .F. ) ;
#637 = APPROVAL_PERSON_ORGANIZATION ( #133, #110, #461 ) ;
#638 = ORIENTED_EDGE ( 'NONE', *, *, #566, .F. ) ;
#639 = VERTEX_POINT ( 'NONE', #233 ) ;
#640 = APPLICATION_CONTEXT ( 'configuration controlled 3d designs of mechanical parts and assemblies' ) ;
#641 = ORIENTED_EDGE ( 'NONE', *, *, #120, .T. ) ;
#642 = DIRECTION ( 'NONE',  ( -1.000000000000000000, 0.000000000000000000, 0.000000000000000000 ) ) ;
#643 = VERTEX_POINT ( 'NONE', #186 ) ;
#644 = EDGE_CURVE ( 'NONE', #556, #506, #92, .T. ) ;
#645 = VECTOR ( 'NONE', #254, 1000.000000000000000 ) ;
#646 = FACE_OUTER_BOUND ( 'NONE', #545, .T. ) ;
#647 = ORIENTED_EDGE ( 'NONE', *, *, #264, .T. ) ;
#648 = VECTOR ( 'NONE', #281, 1000.000000000000000 ) ;
#649 = ORIENTED_EDGE ( 'NONE', *, *, #106, .T. ) ;
ENDSEC;
END-ISO-10303-21;
