ISO-10303-21;
HEADER;
FILE_DESCRIPTION (( 'STEP AP203' ),
    '1' );
FILE_NAME ('ARM-109_Bearing_and_dowel_keeper.step',
    '2026-09-08T04:30:33',
    ( '' ),
    ( '' ),
    'SwSTEP 2.0',
    'SolidWorks 2026',
    '' );
FILE_SCHEMA (( 'CONFIG_CONTROL_DESIGN' ));
ENDSEC;

DATA;
#1 = CIRCLE ( 'NONE', #555, 17.00000000000000000 ) ;
#2 = DIRECTION ( 'NONE',  ( 0.000000000000000000, 0.000000000000000000, 1.000000000000000000 ) ) ;
#3 = EDGE_LOOP ( 'NONE', ( #266, #559 ) ) ;
#4 = CIRCLE ( 'NONE', #557, 1.100000000000000311 ) ;
#5 = EDGE_CURVE ( 'NONE', #21, #210, #90, .T. ) ;
#6 = CARTESIAN_POINT ( 'NONE',  ( 0.000000000000000000, 0.000000000000000000, 2.000000000000000000 ) ) ;
#7 = COORDINATED_UNIVERSAL_TIME_OFFSET ( 6, 0, .BEHIND. ) ;
#8 = ORIENTED_EDGE ( 'NONE', *, *, #157, .T. ) ;
#9 = ADVANCED_BREP_SHAPE_REPRESENTATION ( 'ARM-109_Bearing_and_dowel_keeper', ( #38, #59 ), #160 ) ;
#10 = CC_DESIGN_PERSON_AND_ORGANIZATION_ASSIGNMENT ( #632, #456, ( #303 ) ) ;
#11 = EDGE_LOOP ( 'NONE', ( #567, #108, #42, #230 ) ) ;
#12 = ORIENTED_EDGE ( 'NONE', *, *, #426, .T. ) ;
#13 = EDGE_CURVE ( 'NONE', #363, #310, #545, .T. ) ;
#14 = ORIENTED_EDGE ( 'NONE', *, *, #382, .T. ) ;
#15 = ADVANCED_FACE ( 'NONE', ( #323 ), #26, .T. ) ;
#16 = EDGE_LOOP ( 'NONE', ( #87, #370 ) ) ;
#17 = CARTESIAN_POINT ( 'NONE',  ( 0.000000000000000000, -14.00000000000000000, 11.99999999999999645 ) ) ;
#18 = ORIENTED_EDGE ( 'NONE', *, *, #477, .F. ) ;
#19 = CARTESIAN_POINT ( 'NONE',  ( -17.00000000000000000, 0.000000000000000000, 2.000000000000000000 ) ) ;
#20 = LINE ( 'NONE', #521, #576 ) ;
#21 = VERTEX_POINT ( 'NONE', #373 ) ;
#22 = CIRCLE ( 'NONE', #254, 9.000000000000000000 ) ;
#23 = PERSON_AND_ORGANIZATION ( #104, #415 ) ;
#24 = CIRCLE ( 'NONE', #562, 17.00000000000000000 ) ;
#25 = CARTESIAN_POINT ( 'NONE',  ( -1.100000000000000089, 14.00000000000000000, -0.2000000000000005107 ) ) ;
#26 = CYLINDRICAL_SURFACE ( 'NONE', #265, 9.000000000000000000 ) ;
#27 = PRODUCT_RELATED_PRODUCT_CATEGORY ( 'detail', '', ( #198 ) ) ;
#28 = DIRECTION ( 'NONE',  ( 0.000000000000000000, 0.000000000000000000, -1.000000000000000000 ) ) ;
#29 = ORIENTED_EDGE ( 'NONE', *, *, #500, .T. ) ;
#30 = PERSON_AND_ORGANIZATION ( #104, #415 ) ;
#31 = DIRECTION ( 'NONE',  ( 0.000000000000000000, 0.000000000000000000, 1.000000000000000000 ) ) ;
#32 = EDGE_LOOP ( 'NONE', ( #68, #420, #179, #29 ) ) ;
#33 = AXIS2_PLACEMENT_3D ( 'NONE', #626, #387, #589 ) ;
#34 = DIRECTION ( 'NONE',  ( 0.000000000000000000, 0.000000000000000000, 1.000000000000000000 ) ) ;
#35 = CC_DESIGN_PERSON_AND_ORGANIZATION_ASSIGNMENT ( #251, #390, ( #446 ) ) ;
#36 = LINE ( 'NONE', #100, #231 ) ;
#37 = DIRECTION ( 'NONE',  ( -0.000000000000000000, -0.000000000000000000, -1.000000000000000000 ) ) ;
#38 = MANIFOLD_SOLID_BREP ( 'Keeper_M2_fasteners', #369 ) ;
#39 = LINE ( 'NONE', #386, #182 ) ;
#40 = CYLINDRICAL_SURFACE ( 'NONE', #619, 11.19999999999999929 ) ;
#41 = CARTESIAN_POINT ( 'NONE',  ( 11.19999999999999929, 1.371604415045035513E-15, 0.000000000000000000 ) ) ;
#42 = ORIENTED_EDGE ( 'NONE', *, *, #201, .T. ) ;
#43 = CARTESIAN_POINT ( 'NONE',  ( 9.000000000000000000, 1.102182119232617714E-15, 12.00000000000000000 ) ) ;
#44 = DIRECTION ( 'NONE',  ( -1.000000000000000000, 0.000000000000000000, 0.000000000000000000 ) ) ;
#45 = CYLINDRICAL_SURFACE ( 'NONE', #503, 7.000000000000000000 ) ;
#46 = EDGE_CURVE ( 'NONE', #618, #221, #354, .T. ) ;
#47 = CARTESIAN_POINT ( 'NONE',  ( 1.100000000000000089, 14.00000000000000000, -0.2000000000000005107 ) ) ;
#48 = CARTESIAN_POINT ( 'NONE',  ( -1.100000000000000089, 14.00000000000000000, 11.99999999999999645 ) ) ;
#49 = DIRECTION ( 'NONE',  ( 1.000000000000000000, 0.000000000000000000, 0.000000000000000000 ) ) ;
#50 = CALENDAR_DATE ( 2026, 7, 9 ) ;
#51 = PRODUCT_DEFINITION_SHAPE ( 'NONE', 'NONE',  #527 ) ;
#52 = CARTESIAN_POINT ( 'NONE',  ( 0.000000000000000000, -14.00000000000000000, -0.2000000000000005107 ) ) ;
#53 = DIRECTION ( 'NONE',  ( 1.000000000000000000, 0.000000000000000000, -0.000000000000000000 ) ) ;
#54 = APPROVAL_ROLE ( '' ) ;
#55 = EDGE_LOOP ( 'NONE', ( #18, #519, #174, #464 ) ) ;
#56 = AXIS2_PLACEMENT_3D ( 'NONE', #6, #234, #146 ) ;
#57 = EDGE_CURVE ( 'NONE', #206, #305, #22, .T. ) ;
#58 = ORIENTED_EDGE ( 'NONE', *, *, #513, .F. ) ;
#59 = AXIS2_PLACEMENT_3D ( 'NONE', #180, #225, #374 ) ;
#60 = FACE_OUTER_BOUND ( 'NONE', #526, .T. ) ;
#61 = ORIENTED_EDGE ( 'NONE', *, *, #393, .F. ) ;
#62 = EDGE_LOOP ( 'NONE', ( #469, #414, #14, #214 ) ) ;
#63 = VERTEX_POINT ( 'NONE', #203 ) ;
#64 = DIRECTION ( 'NONE',  ( -1.000000000000000000, 0.000000000000000000, 0.000000000000000000 ) ) ;
#65 = ORIENTED_EDGE ( 'NONE', *, *, #516, .F. ) ;
#66 = AXIS2_PLACEMENT_3D ( 'NONE', #575, #451, #490 ) ;
#67 = DIRECTION ( 'NONE',  ( -0.000000000000000000, -0.000000000000000000, -1.000000000000000000 ) ) ;
#68 = ORIENTED_EDGE ( 'NONE', *, *, #398, .F. ) ;
#69 = CARTESIAN_POINT ( 'NONE',  ( 0.000000000000000000, 0.000000000000000000, 12.00000000000000000 ) ) ;
#70 = DIRECTION ( 'NONE',  ( 0.000000000000000000, 0.000000000000000000, -1.000000000000000000 ) ) ;
#71 = CC_DESIGN_DATE_AND_TIME_ASSIGNMENT ( #496, #344, ( #303 ) ) ;
#72 = ORIENTED_EDGE ( 'NONE', *, *, #595, .F. ) ;
#73 = AXIS2_PLACEMENT_3D ( 'NONE', #617, #175, #375 ) ;
#74 = CARTESIAN_POINT ( 'NONE',  ( 0.000000000000000000, 14.00000000000000000, 2.000000000000000000 ) ) ;
#75 = ORIENTED_EDGE ( 'NONE', *, *, #454, .F. ) ;
#76 = PERSON_AND_ORGANIZATION_ROLE ( 'design_owner' ) ;
#77 = CYLINDRICAL_SURFACE ( 'NONE', #346, 1.100000000000000089 ) ;
#78 = ORIENTED_EDGE ( 'NONE', *, *, #616, .F. ) ;
#79 = EDGE_CURVE ( 'NONE', #105, #522, #388, .T. ) ;
#80 = AXIS2_PLACEMENT_3D ( 'NONE', #229, #335, #624 ) ;
#81 = DIRECTION ( 'NONE',  ( 1.000000000000000000, 0.000000000000000000, 0.000000000000000000 ) ) ;
#82 = CARTESIAN_POINT ( 'NONE',  ( 0.000000000000000000, 0.000000000000000000, 0.000000000000000000 ) ) ;
#83 = ORIENTED_EDGE ( 'NONE', *, *, #263, .T. ) ;
#84 = DATE_TIME_ROLE ( 'creation_date' ) ;
#85 = DIRECTION ( 'NONE',  ( 0.000000000000000000, 0.000000000000000000, 1.000000000000000000 ) ) ;
#86 = DIRECTION ( 'NONE',  ( 1.000000000000000000, 0.000000000000000000, 0.000000000000000000 ) ) ;
#87 = ORIENTED_EDGE ( 'NONE', *, *, #103, .T. ) ;
#88 = LOCAL_TIME ( 23, 30, 33.00000000000000000, #349 ) ;
#89 = FACE_OUTER_BOUND ( 'NONE', #158, .T. ) ;
#90 = CIRCLE ( 'NONE', #625, 1.100000000000000089 ) ;
#91 = FACE_OUTER_BOUND ( 'NONE', #55, .T. ) ;
#92 = LINE ( 'NONE', #556, #568 ) ;
#93 = AXIS2_PLACEMENT_3D ( 'NONE', #318, #577, #610 ) ;
#94 = DIRECTION ( 'NONE',  ( -0.000000000000000000, -0.000000000000000000, -1.000000000000000000 ) ) ;
#95 = DIRECTION ( 'NONE',  ( -0.000000000000000000, -0.000000000000000000, -1.000000000000000000 ) ) ;
#96 = CARTESIAN_POINT ( 'NONE',  ( 12.90000000000000036, 0.000000000000000000, -0.2000000000000005107 ) ) ;
#97 = EDGE_CURVE ( 'NONE', #306, #601, #166, .T. ) ;
#98 = ORIENTED_EDGE ( 'NONE', *, *, #113, .F. ) ;
#99 = DIRECTION ( 'NONE',  ( 0.000000000000000000, 0.000000000000000000, 1.000000000000000000 ) ) ;
#100 = CARTESIAN_POINT ( 'NONE',  ( -7.000000000000000000, 0.000000000000000000, 9.000000000000000000 ) ) ;
#101 = FACE_OUTER_BOUND ( 'NONE', #605, .T. ) ;
#102 = LINE ( 'NONE', #41, #307 ) ;
#103 = EDGE_CURVE ( 'NONE', #601, #306, #422, .T. ) ;
#104 = PERSON ( 'UNSPECIFIED', 'UNSPECIFIED', 'UNSPECIFIED', ('UNSPECIFIED'), ('UNSPECIFIED'), ('UNSPECIFIED') ) ;
#105 = VERTEX_POINT ( 'NONE', #205 ) ;
#106 = CARTESIAN_POINT ( 'NONE',  ( -7.000000000000000000, 0.000000000000000000, 0.000000000000000000 ) ) ;
#107 = ORIENTED_EDGE ( 'NONE', *, *, #103, .F. ) ;
#108 = ORIENTED_EDGE ( 'NONE', *, *, #513, .T. ) ;
#109 = ORIENTED_EDGE ( 'NONE', *, *, #506, .F. ) ;
#110 = AXIS2_PLACEMENT_3D ( 'NONE', #401, #395, #293 ) ;
#111 = AXIS2_PLACEMENT_3D ( 'NONE', #292, #489, #44 ) ;
#112 = VERTEX_POINT ( 'NONE', #590 ) ;
#113 = EDGE_CURVE ( 'NONE', #408, #554, #609, .T. ) ;
#114 = CARTESIAN_POINT ( 'NONE',  ( -9.000000000000000000, 0.000000000000000000, 12.00000000000000000 ) ) ;
#115 = ORIENTED_EDGE ( 'NONE', *, *, #201, .F. ) ;
#116 = CC_DESIGN_PERSON_AND_ORGANIZATION_ASSIGNMENT ( #501, #406, ( #446 ) ) ;
#117 = CARTESIAN_POINT ( 'NONE',  ( 0.000000000000000000, 0.000000000000000000, 2.000000000000000000 ) ) ;
#118 = DIRECTION ( 'NONE',  ( 1.000000000000000000, 0.000000000000000000, 0.000000000000000000 ) ) ;
#119 = DIRECTION ( 'NONE',  ( -0.000000000000000000, -0.000000000000000000, -1.000000000000000000 ) ) ;
#120 = EDGE_LOOP ( 'NONE', ( #253, #252 ) ) ;
#121 = PERSON_AND_ORGANIZATION ( #104, #415 ) ;
#122 = CIRCLE ( 'NONE', #376, 1.100000000000000089 ) ;
#123 = DIRECTION ( 'NONE',  ( 1.000000000000000000, 0.000000000000000000, 0.000000000000000000 ) ) ;
#124 = ORIENTED_EDGE ( 'NONE', *, *, #393, .T. ) ;
#125 =( NAMED_UNIT ( * ) SI_UNIT ( $, .STERADIAN. ) SOLID_ANGLE_UNIT ( ) );
#126 = CC_DESIGN_DATE_AND_TIME_ASSIGNMENT ( #532, #84, ( #527 ) ) ;
#127 = DIRECTION ( 'NONE',  ( 1.000000000000000000, 0.000000000000000000, 0.000000000000000000 ) ) ;
#128 = DIRECTION ( 'NONE',  ( 1.000000000000000000, 0.000000000000000000, 0.000000000000000000 ) ) ;
#129 = ORIENTED_EDGE ( 'NONE', *, *, #216, .F. ) ;
#130 = COORDINATED_UNIVERSAL_TIME_OFFSET ( 6, 0, .BEHIND. ) ;
#131 = LINE ( 'NONE', #629, #340 ) ;
#132 = DIRECTION ( 'NONE',  ( -0.000000000000000000, -0.000000000000000000, -1.000000000000000000 ) ) ;
#133 = DIRECTION ( 'NONE',  ( -1.000000000000000000, 0.000000000000000000, 0.000000000000000000 ) ) ;
#134 = AXIS2_PLACEMENT_3D ( 'NONE', #599, #486, #195 ) ;
#135 = AXIS2_PLACEMENT_3D ( 'NONE', #475, #279, #473 ) ;
#136 = CARTESIAN_POINT ( 'NONE',  ( 11.19999999999999929, 1.371604415045035513E-15, -0.2000000000000000111 ) ) ;
#137 = EDGE_CURVE ( 'NONE', #310, #522, #102, .T. ) ;
#138 = DIRECTION ( 'NONE',  ( -1.000000000000000000, 0.000000000000000000, 0.000000000000000000 ) ) ;
#139 = DIRECTION ( 'NONE',  ( -0.000000000000000000, -0.000000000000000000, -1.000000000000000000 ) ) ;
#140 = COORDINATED_UNIVERSAL_TIME_OFFSET ( 6, 0, .BEHIND. ) ;
#141 = ORIENTED_EDGE ( 'NONE', *, *, #426, .F. ) ;
#142 = AXIS2_PLACEMENT_3D ( 'NONE', #330, #345, #200 ) ;
#143 = CARTESIAN_POINT ( 'NONE',  ( 0.000000000000000000, 0.000000000000000000, 0.000000000000000000 ) ) ;
#144 = APPROVAL ( #228, 'UNSPECIFIED' ) ;
#145 = CYLINDRICAL_SURFACE ( 'NONE', #111, 1.100000000000000311 ) ;
#146 = DIRECTION ( 'NONE',  ( 1.000000000000000000, 0.000000000000000000, 0.000000000000000000 ) ) ;
#147 = CIRCLE ( 'NONE', #614, 1.100000000000000089 ) ;
#148 = DIRECTION ( 'NONE',  ( 1.000000000000000000, 0.000000000000000000, -0.000000000000000000 ) ) ;
#149 = DIRECTION ( 'NONE',  ( 0.000000000000000000, 0.000000000000000000, 1.000000000000000000 ) ) ;
#150 = APPROVAL_ROLE ( '' ) ;
#151 = CIRCLE ( 'NONE', #177, 1.100000000000000089 ) ;
#152 = CARTESIAN_POINT ( 'NONE',  ( 0.000000000000000000, 0.000000000000000000, 12.00000000000000000 ) ) ;
#153 = ADVANCED_FACE ( 'NONE', ( #242 ), #45, .F. ) ;
#154 = CIRCLE ( 'NONE', #409, 17.00000000000000000 ) ;
#155 = VERTEX_POINT ( 'NONE', #239 ) ;
#156 = ORIENTED_EDGE ( 'NONE', *, *, #569, .T. ) ;
#157 = EDGE_CURVE ( 'NONE', #622, #208, #534, .T. ) ;
#158 = EDGE_LOOP ( 'NONE', ( #258, #58 ) ) ;
#159 = APPROVAL_PERSON_ORGANIZATION ( #483, #435, #150 ) ;
#160 =( GEOMETRIC_REPRESENTATION_CONTEXT ( 3 ) GLOBAL_UNCERTAINTY_ASSIGNED_CONTEXT ( ( #565 ) ) GLOBAL_UNIT_ASSIGNED_CONTEXT ( ( #579, #186, #125 ) ) REPRESENTATION_CONTEXT ( 'NONE', 'WORKASPACE' ) );
#161 = ADVANCED_FACE ( 'NONE', ( #538, #189, #450, #495, #352 ), #343, .T. ) ;
#162 = EDGE_LOOP ( 'NONE', ( #98, #109 ) ) ;
#163 = DIRECTION ( 'NONE',  ( -0.000000000000000000, -0.000000000000000000, -1.000000000000000000 ) ) ;
#164 = EDGE_LOOP ( 'NONE', ( #361, #400, #472, #511 ) ) ;
#165 = DIRECTION ( 'NONE',  ( 1.000000000000000000, 0.000000000000000000, 0.000000000000000000 ) ) ;
#166 = CIRCLE ( 'NONE', #403, 9.000000000000000000 ) ;
#167 = ORIENTED_EDGE ( 'NONE', *, *, #334, .F. ) ;
#168 = ADVANCED_FACE ( 'NONE', ( #304, #250, #596, #552, #593 ), #548, .F. ) ;
#169 = CARTESIAN_POINT ( 'NONE',  ( 15.10000000000000142, 1.347111479062088750E-16, 11.99999999999999645 ) ) ;
#170 = LOCAL_TIME ( 23, 30, 33.00000000000000000, #7 ) ;
#171 = ORIENTED_EDGE ( 'NONE', *, *, #506, .T. ) ;
#172 = AXIS2_PLACEMENT_3D ( 'NONE', #222, #428, #571 ) ;
#173 = FACE_OUTER_BOUND ( 'NONE', #312, .T. ) ;
#174 = ORIENTED_EDGE ( 'NONE', *, *, #510, .T. ) ;
#175 = DIRECTION ( 'NONE',  ( -0.000000000000000000, -0.000000000000000000, -1.000000000000000000 ) ) ;
#176 = EDGE_LOOP ( 'NONE', ( #505, #255, #171, #561 ) ) ;
#177 = AXIS2_PLACEMENT_3D ( 'NONE', #529, #551, #128 ) ;
#178 = DIRECTION ( 'NONE',  ( 1.000000000000000000, 0.000000000000000000, 0.000000000000000000 ) ) ;
#179 = ORIENTED_EDGE ( 'NONE', *, *, #471, .T. ) ;
#180 = CARTESIAN_POINT ( 'NONE',  ( 0.000000000000000000, 0.000000000000000000, 0.000000000000000000 ) ) ;
#181 = LOCAL_TIME ( 23, 30, 33.00000000000000000, #385 ) ;
#182 = VECTOR ( 'NONE', #528, 1000.000000000000000 ) ;
#183 = DIRECTION ( 'NONE',  ( 1.000000000000000000, 0.000000000000000000, 0.000000000000000000 ) ) ;
#184 = DIRECTION ( 'NONE',  ( 1.000000000000000000, 0.000000000000000000, -0.000000000000000000 ) ) ;
#185 = DIRECTION ( 'NONE',  ( 0.000000000000000000, 0.000000000000000000, -1.000000000000000000 ) ) ;
#186 =( NAMED_UNIT ( * ) PLANE_ANGLE_UNIT ( ) SI_UNIT ( $, .RADIAN. ) );
#187 = DIRECTION ( 'NONE',  ( -0.000000000000000000, -0.000000000000000000, -1.000000000000000000 ) ) ;
#188 = CYLINDRICAL_SURFACE ( 'NONE', #598, 11.19999999999999929 ) ;
#189 = FACE_BOUND ( 'NONE', #212, .T. ) ;
#190 = SHAPE_DEFINITION_REPRESENTATION ( #51, #9 ) ;
#191 = VERTEX_POINT ( 'NONE', #96 ) ;
#192 = ADVANCED_FACE ( 'NONE', ( #101 ), #442, .T. ) ;
#193 = DIRECTION ( 'NONE',  ( 0.000000000000000000, 0.000000000000000000, -1.000000000000000000 ) ) ;
#194 = CARTESIAN_POINT ( 'NONE',  ( 0.000000000000000000, 0.000000000000000000, 9.000000000000000000 ) ) ;
#195 = DIRECTION ( 'NONE',  ( 1.000000000000000000, 0.000000000000000000, 0.000000000000000000 ) ) ;
#196 = CALENDAR_DATE ( 2026, 7, 9 ) ;
#197 = ORIENTED_EDGE ( 'NONE', *, *, #356, .T. ) ;
#198 = PRODUCT ( 'ARM-109_Bearing_and_dowel_keeper', 'ARM-109_Bearing_and_dowel_keeper', '', ( #235 ) ) ;
#199 = LOCAL_TIME ( 23, 30, 33.00000000000000000, #130 ) ;
#200 = DIRECTION ( 'NONE',  ( -1.000000000000000000, 0.000000000000000000, 0.000000000000000000 ) ) ;
#201 = EDGE_CURVE ( 'NONE', #363, #105, #92, .T. ) ;
#202 = LINE ( 'NONE', #48, #413 ) ;
#203 = CARTESIAN_POINT ( 'NONE',  ( 17.00000000000000000, 2.081899558550500280E-15, 2.000000000000000000 ) ) ;
#204 = EDGE_CURVE ( 'NONE', #636, #21, #440, .T. ) ;
#205 = CARTESIAN_POINT ( 'NONE',  ( -11.19999999999999929, 0.000000000000000000, -0.2000000000000000111 ) ) ;
#206 = VERTEX_POINT ( 'NONE', #384 ) ;
#207 = AXIS2_PLACEMENT_3D ( 'NONE', #152, #389, #543 ) ;
#208 = VERTEX_POINT ( 'NONE', #106 ) ;
#209 = ADVANCED_FACE ( 'NONE', ( #60 ), #604, .F. ) ;
#210 = VERTEX_POINT ( 'NONE', #572 ) ;
#211 = ADVANCED_FACE ( 'NONE', ( #365 ), #319, .T. ) ;
#212 = EDGE_LOOP ( 'NONE', ( #563, #83 ) ) ;
#213 = DIRECTION ( 'NONE',  ( -1.000000000000000000, 0.000000000000000000, 0.000000000000000000 ) ) ;
#214 = ORIENTED_EDGE ( 'NONE', *, *, #97, .F. ) ;
#215 = CARTESIAN_POINT ( 'NONE',  ( 0.000000000000000000, 14.00000000000000000, -0.2000000000000005107 ) ) ;
#216 = EDGE_CURVE ( 'NONE', #221, #622, #20, .T. ) ;
#217 = EDGE_LOOP ( 'NONE', ( #512, #391 ) ) ;
#218 = CARTESIAN_POINT ( 'NONE',  ( -17.00000000000000000, 0.000000000000000000, -0.2000000000000000111 ) ) ;
#219 = AXIS2_PLACEMENT_3D ( 'NONE', #350, #499, #49 ) ;
#220 = CIRCLE ( 'NONE', #73, 1.100000000000000311 ) ;
#221 = VERTEX_POINT ( 'NONE', #272 ) ;
#222 = CARTESIAN_POINT ( 'NONE',  ( 0.000000000000000000, 0.000000000000000000, 0.000000000000000000 ) ) ;
#223 = CC_DESIGN_SECURITY_CLASSIFICATION ( #303, ( #446 ) ) ;
#224 = CARTESIAN_POINT ( 'NONE',  ( 0.000000000000000000, 0.000000000000000000, 12.00000000000000000 ) ) ;
#225 = DIRECTION ( 'NONE',  ( 0.000000000000000000, 0.000000000000000000, 1.000000000000000000 ) ) ;
#226 = DIRECTION ( 'NONE',  ( 1.000000000000000000, 0.000000000000000000, 0.000000000000000000 ) ) ;
#227 = ORIENTED_EDGE ( 'NONE', *, *, #46, .F. ) ;
#228 = APPROVAL_STATUS ( 'not_yet_approved' ) ;
#229 = CARTESIAN_POINT ( 'NONE',  ( 0.000000000000000000, 0.000000000000000000, 9.000000000000000000 ) ) ;
#230 = ORIENTED_EDGE ( 'NONE', *, *, #569, .F. ) ;
#231 = VECTOR ( 'NONE', #584, 1000.000000000000000 ) ;
#232 = CARTESIAN_POINT ( 'NONE',  ( 14.00000000000000000, 0.000000000000000000, 2.000000000000000000 ) ) ;
#233 = FACE_OUTER_BOUND ( 'NONE', #425, .T. ) ;
#234 = DIRECTION ( 'NONE',  ( -0.000000000000000000, -0.000000000000000000, -1.000000000000000000 ) ) ;
#235 = MECHANICAL_CONTEXT ( 'NONE', #301, 'mechanical' ) ;
#236 = CARTESIAN_POINT ( 'NONE',  ( 0.000000000000000000, 0.000000000000000000, -0.2000000000000000111 ) ) ;
#237 = AXIS2_PLACEMENT_3D ( 'NONE', #74, #67, #123 ) ;
#238 = CARTESIAN_POINT ( 'NONE',  ( 0.000000000000000000, -14.00000000000000000, 11.99999999999999645 ) ) ;
#239 = CARTESIAN_POINT ( 'NONE',  ( 1.100000000000000089, 14.00000000000000000, 2.000000000000000000 ) ) ;
#240 = CC_DESIGN_PERSON_AND_ORGANIZATION_ASSIGNMENT ( #23, #285, ( #527 ) ) ;
#241 = FACE_BOUND ( 'NONE', #327, .T. ) ;
#242 = FACE_OUTER_BOUND ( 'NONE', #164, .T. ) ;
#243 = PERSON_AND_ORGANIZATION ( #104, #415 ) ;
#244 = ORIENTED_EDGE ( 'NONE', *, *, #113, .T. ) ;
#245 = FACE_OUTER_BOUND ( 'NONE', #62, .T. ) ;
#246 = DIRECTION ( 'NONE',  ( 0.000000000000000000, 0.000000000000000000, 1.000000000000000000 ) ) ;
#247 = DIRECTION ( 'NONE',  ( 1.000000000000000000, 0.000000000000000000, 0.000000000000000000 ) ) ;
#248 = CC_DESIGN_PERSON_AND_ORGANIZATION_ASSIGNMENT ( #121, #76, ( #198 ) ) ;
#249 = DIRECTION ( 'NONE',  ( -1.000000000000000000, 0.000000000000000000, 0.000000000000000000 ) ) ;
#250 = FACE_BOUND ( 'NONE', #217, .T. ) ;
#251 = PERSON_AND_ORGANIZATION ( #104, #415 ) ;
#252 = ORIENTED_EDGE ( 'NONE', *, *, #421, .T. ) ;
#253 = ORIENTED_EDGE ( 'NONE', *, *, #616, .T. ) ;
#254 = AXIS2_PLACEMENT_3D ( 'NONE', #348, #149, #86 ) ;
#255 = ORIENTED_EDGE ( 'NONE', *, *, #535, .T. ) ;
#256 = AXIS2_PLACEMENT_3D ( 'NONE', #574, #474, #118 ) ;
#257 = ADVANCED_FACE ( 'NONE', ( #331 ), #300, .F. ) ;
#258 = ORIENTED_EDGE ( 'NONE', *, *, #13, .F. ) ;
#259 = CARTESIAN_POINT ( 'NONE',  ( 0.000000000000000000, 14.00000000000000000, 11.99999999999999645 ) ) ;
#260 = EDGE_LOOP ( 'NONE', ( #531, #432, #273, #115 ) ) ;
#261 = AXIS2_PLACEMENT_3D ( 'NONE', #194, #246, #184 ) ;
#262 = ORIENTED_EDGE ( 'NONE', *, *, #334, .T. ) ;
#263 = EDGE_CURVE ( 'NONE', #636, #332, #151, .T. ) ;
#264 = APPROVAL_PERSON_ORGANIZATION ( #243, #602, #54 ) ;
#265 = AXIS2_PLACEMENT_3D ( 'NONE', #224, #429, #615 ) ;
#266 = ORIENTED_EDGE ( 'NONE', *, *, #500, .F. ) ;
#267 = LINE ( 'NONE', #169, #321 ) ;
#268 = DIRECTION ( 'NONE',  ( -1.000000000000000000, 0.000000000000000000, 0.000000000000000000 ) ) ;
#269 = ORIENTED_EDGE ( 'NONE', *, *, #371, .T. ) ;
#270 = APPLICATION_PROTOCOL_DEFINITION ( 'international standard', 'config_control_design', 1994, #301 ) ;
#271 = CYLINDRICAL_SURFACE ( 'NONE', #135, 17.00000000000000000 ) ;
#272 = CARTESIAN_POINT ( 'NONE',  ( 7.000000000000000000, 8.572527594031473190E-16, 9.000000000000000000 ) ) ;
#273 = ORIENTED_EDGE ( 'NONE', *, *, #79, .F. ) ;
#274 = ADVANCED_FACE ( 'NONE', ( #630 ), #40, .F. ) ;
#275 = DIRECTION ( 'NONE',  ( 0.000000000000000000, 0.000000000000000000, 1.000000000000000000 ) ) ;
#276 = ORIENTED_EDGE ( 'NONE', *, *, #204, .T. ) ;
#277 = APPLICATION_PROTOCOL_DEFINITION ( 'international standard', 'config_control_design', 1994, #328 ) ;
#278 = EDGE_CURVE ( 'NONE', #618, #208, #36, .T. ) ;
#279 = DIRECTION ( 'NONE',  ( -0.000000000000000000, -0.000000000000000000, -1.000000000000000000 ) ) ;
#280 = DIRECTION ( 'NONE',  ( -0.000000000000000000, -0.000000000000000000, -1.000000000000000000 ) ) ;
#281 = CARTESIAN_POINT ( 'NONE',  ( 14.00000000000000000, 0.000000000000000000, -0.2000000000000005107 ) ) ;
#282 = DIRECTION ( 'NONE',  ( -1.000000000000000000, 0.000000000000000000, 0.000000000000000000 ) ) ;
#283 = VECTOR ( 'NONE', #185, 1000.000000000000000 ) ;
#284 = DIRECTION ( 'NONE',  ( 1.000000000000000000, 0.000000000000000000, 0.000000000000000000 ) ) ;
#285 = PERSON_AND_ORGANIZATION_ROLE ( 'creator' ) ;
#286 = DIRECTION ( 'NONE',  ( 1.000000000000000000, 0.000000000000000000, 0.000000000000000000 ) ) ;
#287 = ADVANCED_FACE ( 'NONE', ( #394 ), #188, .F. ) ;
#288 = DIRECTION ( 'NONE',  ( -0.000000000000000000, -0.000000000000000000, -1.000000000000000000 ) ) ;
#289 = CARTESIAN_POINT ( 'NONE',  ( 0.000000000000000000, 0.000000000000000000, -0.2000000000000000111 ) ) ;
#290 = ORIENTED_EDGE ( 'NONE', *, *, #516, .T. ) ;
#291 = FACE_OUTER_BOUND ( 'NONE', #461, .T. ) ;
#292 = CARTESIAN_POINT ( 'NONE',  ( 14.00000000000000000, 0.000000000000000000, 11.99999999999999645 ) ) ;
#293 = DIRECTION ( 'NONE',  ( 1.000000000000000000, 0.000000000000000000, -0.000000000000000000 ) ) ;
#294 = PLANE ( 'NONE',  #342 ) ;
#295 = DIRECTION ( 'NONE',  ( 1.000000000000000000, 0.000000000000000000, 0.000000000000000000 ) ) ;
#296 = DIRECTION ( 'NONE',  ( 0.000000000000000000, 0.000000000000000000, 1.000000000000000000 ) ) ;
#297 = ORIENTED_EDGE ( 'NONE', *, *, #57, .T. ) ;
#298 = AXIS2_PLACEMENT_3D ( 'NONE', #611, #517, #268 ) ;
#299 = CARTESIAN_POINT ( 'NONE',  ( 15.10000000000000142, 1.347111479062088750E-16, -0.2000000000000005107 ) ) ;
#300 = PLANE ( 'NONE',  #261 ) ;
#301 = APPLICATION_CONTEXT ( 'configuration controlled 3d designs of mechanical parts and assemblies' ) ;
#302 = DIRECTION ( 'NONE',  ( 1.000000000000000000, 0.000000000000000000, 0.000000000000000000 ) ) ;
#303 = SECURITY_CLASSIFICATION ( '', '', #549 ) ;
#304 = FACE_BOUND ( 'NONE', #3, .T. ) ;
#305 = VERTEX_POINT ( 'NONE', #482 ) ;
#306 = VERTEX_POINT ( 'NONE', #537 ) ;
#307 = VECTOR ( 'NONE', #139, 1000.000000000000000 ) ;
#308 = AXIS2_PLACEMENT_3D ( 'NONE', #281, #583, #183 ) ;
#309 = ADVANCED_FACE ( 'NONE', ( #233 ), #439, .F. ) ;
#310 = VERTEX_POINT ( 'NONE', #498 ) ;
#311 = DIRECTION ( 'NONE',  ( 0.000000000000000000, 0.000000000000000000, -1.000000000000000000 ) ) ;
#312 = EDGE_LOOP ( 'NONE', ( #377, #325, #608, #197 ) ) ;
#313 = EDGE_CURVE ( 'NONE', #332, #636, #436, .T. ) ;
#314 = EDGE_LOOP ( 'NONE', ( #75, #411 ) ) ;
#315 = ADVANCED_FACE ( 'NONE', ( #91 ), #145, .F. ) ;
#316 = LINE ( 'NONE', #613, #423 ) ;
#317 = EDGE_LOOP ( 'NONE', ( #320, #156 ) ) ;
#318 = CARTESIAN_POINT ( 'NONE',  ( 0.000000000000000000, 14.00000000000000000, 11.99999999999999645 ) ) ;
#319 = CYLINDRICAL_SURFACE ( 'NONE', #298, 17.00000000000000000 ) ;
#320 = ORIENTED_EDGE ( 'NONE', *, *, #79, .T. ) ;
#321 = VECTOR ( 'NONE', #525, 1000.000000000000000 ) ;
#322 = DIRECTION ( 'NONE',  ( 1.000000000000000000, 0.000000000000000000, 0.000000000000000000 ) ) ;
#323 = FACE_OUTER_BOUND ( 'NONE', #458, .T. ) ;
#324 = CYLINDRICAL_SURFACE ( 'NONE', #93, 1.100000000000000089 ) ;
#325 = ORIENTED_EDGE ( 'NONE', *, *, #313, .F. ) ;
#326 = FACE_OUTER_BOUND ( 'NONE', #32, .T. ) ;
#327 = EDGE_LOOP ( 'NONE', ( #515, #8 ) ) ;
#328 = APPLICATION_CONTEXT ( 'configuration controlled 3d designs of mechanical parts and assemblies' ) ;
#329 = AXIS2_PLACEMENT_3D ( 'NONE', #143, #99, #286 ) ;
#330 = CARTESIAN_POINT ( 'NONE',  ( 0.000000000000000000, 0.000000000000000000, 12.00000000000000000 ) ) ;
#331 = FACE_OUTER_BOUND ( 'NONE', #339, .T. ) ;
#332 = VERTEX_POINT ( 'NONE', #347 ) ;
#333 = CALENDAR_DATE ( 2026, 7, 9 ) ;
#334 = EDGE_CURVE ( 'NONE', #112, #155, #405, .T. ) ;
#335 = DIRECTION ( 'NONE',  ( 0.000000000000000000, 0.000000000000000000, -1.000000000000000000 ) ) ;
#336 = AXIS2_PLACEMENT_3D ( 'NONE', #585, #296, #302 ) ;
#337 = CIRCLE ( 'NONE', #504, 1.100000000000000089 ) ;
#338 = APPROVAL_DATE_TIME ( #445, #602 ) ;
#339 = EDGE_LOOP ( 'NONE', ( #227, #65 ) ) ;
#340 = VECTOR ( 'NONE', #550, 1000.000000000000000 ) ;
#341 = CARTESIAN_POINT ( 'NONE',  ( -7.000000000000000000, 0.000000000000000000, 9.000000000000000000 ) ) ;
#342 = AXIS2_PLACEMENT_3D ( 'NONE', #594, #493, #148 ) ;
#343 = PLANE ( 'NONE',  #110 ) ;
#344 = DATE_TIME_ROLE ( 'classification_date' ) ;
#345 = DIRECTION ( 'NONE',  ( -0.000000000000000000, -0.000000000000000000, -1.000000000000000000 ) ) ;
#346 = AXIS2_PLACEMENT_3D ( 'NONE', #17, #470, #364 ) ;
#347 = CARTESIAN_POINT ( 'NONE',  ( -1.100000000000000089, -14.00000000000000000, 2.000000000000000000 ) ) ;
#348 = CARTESIAN_POINT ( 'NONE',  ( 0.000000000000000000, 0.000000000000000000, 12.00000000000000000 ) ) ;
#349 = COORDINATED_UNIVERSAL_TIME_OFFSET ( 6, 0, .BEHIND. ) ;
#350 = CARTESIAN_POINT ( 'NONE',  ( 0.000000000000000000, 0.000000000000000000, -0.2000000000000000111 ) ) ;
#351 = AXIS2_PLACEMENT_3D ( 'NONE', #238, #485, #249 ) ;
#352 = FACE_OUTER_BOUND ( 'NONE', #120, .T. ) ;
#353 = EDGE_CURVE ( 'NONE', #112, #453, #202, .T. ) ;
#354 = CIRCLE ( 'NONE', #66, 7.000000000000000000 ) ;
#355 = ORIENTED_EDGE ( 'NONE', *, *, #5, .T. ) ;
#356 = EDGE_CURVE ( 'NONE', #210, #21, #122, .T. ) ;
#357 = ORIENTED_EDGE ( 'NONE', *, *, #621, .T. ) ;
#358 = EDGE_LOOP ( 'NONE', ( #262, #124 ) ) ;
#359 = APPROVAL_PERSON_ORGANIZATION ( #30, #144, #433 ) ;
#360 = ADVANCED_FACE ( 'NONE', ( #468 ), #324, .F. ) ;
#361 = ORIENTED_EDGE ( 'NONE', *, *, #46, .T. ) ;
#362 = CARTESIAN_POINT ( 'NONE',  ( 14.00000000000000000, 0.000000000000000000, 11.99999999999999645 ) ) ;
#363 = VERTEX_POINT ( 'NONE', #372 ) ;
#364 = DIRECTION ( 'NONE',  ( -1.000000000000000000, 0.000000000000000000, 0.000000000000000000 ) ) ;
#365 = FACE_OUTER_BOUND ( 'NONE', #176, .T. ) ;
#366 = CIRCLE ( 'NONE', #459, 7.000000000000000000 ) ;
#367 = ORIENTED_EDGE ( 'NONE', *, *, #263, .F. ) ;
#368 = LINE ( 'NONE', #114, #573 ) ;
#369 = CLOSED_SHELL ( 'NONE', ( #315, #309, #360, #153, #15, #274, #211, #443, #161, #168, #287, #628, #607, #192, #553, #257, #209, #407, #492 ) ) ;
#370 = ORIENTED_EDGE ( 'NONE', *, *, #97, .T. ) ;
#371 = EDGE_CURVE ( 'NONE', #600, #453, #147, .T. ) ;
#372 = CARTESIAN_POINT ( 'NONE',  ( -11.19999999999999929, 0.000000000000000000, 0.000000000000000000 ) ) ;
#373 = CARTESIAN_POINT ( 'NONE',  ( 1.100000000000000089, -14.00000000000000000, -0.2000000000000005107 ) ) ;
#374 = DIRECTION ( 'NONE',  ( 1.000000000000000000, 0.000000000000000000, 0.000000000000000000 ) ) ;
#375 = DIRECTION ( 'NONE',  ( 1.000000000000000000, 0.000000000000000000, 0.000000000000000000 ) ) ;
#376 = AXIS2_PLACEMENT_3D ( 'NONE', #52, #119, #424 ) ;
#377 = ORIENTED_EDGE ( 'NONE', *, *, #204, .F. ) ;
#378 = CARTESIAN_POINT ( 'NONE',  ( 1.100000000000000089, -14.00000000000000000, 2.000000000000000000 ) ) ;
#379 = CARTESIAN_POINT ( 'NONE',  ( 17.00000000000000000, 2.081899558550500280E-15, -0.2000000000000000111 ) ) ;
#380 = ORIENTED_EDGE ( 'NONE', *, *, #157, .F. ) ;
#381 = DATE_AND_TIME ( #623, #181 ) ;
#382 = EDGE_CURVE ( 'NONE', #206, #601, #368, .T. ) ;
#383 = DIRECTION ( 'NONE',  ( 1.000000000000000000, 0.000000000000000000, 0.000000000000000000 ) ) ;
#384 = CARTESIAN_POINT ( 'NONE',  ( -9.000000000000000000, 0.000000000000000000, 12.00000000000000000 ) ) ;
#385 = COORDINATED_UNIVERSAL_TIME_OFFSET ( 6, 0, .BEHIND. ) ;
#386 = CARTESIAN_POINT ( 'NONE',  ( 1.100000000000000089, 14.00000000000000000, 11.99999999999999645 ) ) ;
#387 = DIRECTION ( 'NONE',  ( -0.000000000000000000, -0.000000000000000000, -1.000000000000000000 ) ) ;
#388 = CIRCLE ( 'NONE', #219, 11.19999999999999929 ) ;
#389 = DIRECTION ( 'NONE',  ( 0.000000000000000000, 0.000000000000000000, 1.000000000000000000 ) ) ;
#390 = PERSON_AND_ORGANIZATION_ROLE ( 'creator' ) ;
#391 = ORIENTED_EDGE ( 'NONE', *, *, #5, .F. ) ;
#392 = CARTESIAN_POINT ( 'NONE',  ( -1.100000000000000089, -14.00000000000000000, 11.99999999999999645 ) ) ;
#393 = EDGE_CURVE ( 'NONE', #155, #112, #462, .T. ) ;
#394 = FACE_OUTER_BOUND ( 'NONE', #11, .T. ) ;
#395 = DIRECTION ( 'NONE',  ( 0.000000000000000000, 0.000000000000000000, 1.000000000000000000 ) ) ;
#396 = ORIENTED_EDGE ( 'NONE', *, *, #542, .F. ) ;
#397 = DIRECTION ( 'NONE',  ( 1.000000000000000000, 0.000000000000000000, 0.000000000000000000 ) ) ;
#398 = EDGE_CURVE ( 'NONE', #581, #578, #267, .T. ) ;
#399 = CARTESIAN_POINT ( 'NONE',  ( 0.000000000000000000, 0.000000000000000000, 2.000000000000000000 ) ) ;
#400 = ORIENTED_EDGE ( 'NONE', *, *, #216, .T. ) ;
#401 = CARTESIAN_POINT ( 'NONE',  ( 0.000000000000000000, 0.000000000000000000, 2.000000000000000000 ) ) ;
#402 = DATE_AND_TIME ( #196, #88 ) ;
#403 = AXIS2_PLACEMENT_3D ( 'NONE', #399, #631, #247 ) ;
#404 = EDGE_CURVE ( 'NONE', #476, #408, #566, .T. ) ;
#405 = CIRCLE ( 'NONE', #494, 1.100000000000000089 ) ;
#406 = PERSON_AND_ORGANIZATION_ROLE ( 'design_supplier' ) ;
#407 = ADVANCED_FACE ( 'NONE', ( #173 ), #77, .F. ) ;
#408 = VERTEX_POINT ( 'NONE', #218 ) ;
#409 = AXIS2_PLACEMENT_3D ( 'NONE', #117, #31, #322 ) ;
#410 = CIRCLE ( 'NONE', #329, 11.19999999999999929 ) ;
#411 = ORIENTED_EDGE ( 'NONE', *, *, #371, .F. ) ;
#412 = EDGE_LOOP ( 'NONE', ( #603, #78, #612, #244 ) ) ;
#413 = VECTOR ( 'NONE', #448, 1000.000000000000000 ) ;
#414 = ORIENTED_EDGE ( 'NONE', *, *, #57, .F. ) ;
#415 = ORGANIZATION ( 'UNSPECIFIED', 'UNSPECIFIED', '' ) ;
#416 = FACE_OUTER_BOUND ( 'NONE', #412, .T. ) ;
#417 = EDGE_CURVE ( 'NONE', #208, #622, #430, .T. ) ;
#418 = ORIENTED_EDGE ( 'NONE', *, *, #353, .T. ) ;
#419 = DIRECTION ( 'NONE',  ( 1.000000000000000000, 0.000000000000000000, 0.000000000000000000 ) ) ;
#420 = ORIENTED_EDGE ( 'NONE', *, *, #621, .F. ) ;
#421 = EDGE_CURVE ( 'NONE', #63, #476, #154, .T. ) ;
#422 = CIRCLE ( 'NONE', #56, 9.000000000000000000 ) ;
#423 = VECTOR ( 'NONE', #28, 1000.000000000000000 ) ;
#424 = DIRECTION ( 'NONE',  ( 1.000000000000000000, 0.000000000000000000, 0.000000000000000000 ) ) ;
#425 = EDGE_LOOP ( 'NONE', ( #367, #276, #355, #396 ) ) ;
#426 = EDGE_CURVE ( 'NONE', #305, #206, #487, .T. ) ;
#427 = LOCAL_TIME ( 23, 30, 33.00000000000000000, #140 ) ;
#428 = DIRECTION ( 'NONE',  ( 0.000000000000000000, 0.000000000000000000, 1.000000000000000000 ) ) ;
#429 = DIRECTION ( 'NONE',  ( -0.000000000000000000, -0.000000000000000000, -1.000000000000000000 ) ) ;
#430 = CIRCLE ( 'NONE', #172, 7.000000000000000000 ) ;
#431 = CARTESIAN_POINT ( 'NONE',  ( -17.00000000000000000, 0.000000000000000000, 2.000000000000000000 ) ) ;
#432 = ORIENTED_EDGE ( 'NONE', *, *, #137, .T. ) ;
#433 = APPROVAL_ROLE ( '' ) ;
#434 = LINE ( 'NONE', #392, #539 ) ;
#435 = APPROVAL ( #441, 'UNSPECIFIED' ) ;
#436 = CIRCLE ( 'NONE', #33, 1.100000000000000089 ) ;
#437 = CARTESIAN_POINT ( 'NONE',  ( 0.000000000000000000, -14.00000000000000000, -0.2000000000000005107 ) ) ;
#438 = CARTESIAN_POINT ( 'NONE',  ( 0.000000000000000000, 0.000000000000000000, -0.2000000000000000111 ) ) ;
#439 = CYLINDRICAL_SURFACE ( 'NONE', #351, 1.100000000000000089 ) ;
#440 = LINE ( 'NONE', #627, #283 ) ;
#441 = APPROVAL_STATUS ( 'not_yet_approved' ) ;
#442 = PLANE ( 'NONE',  #207 ) ;
#443 = ADVANCED_FACE ( 'NONE', ( #416 ), #271, .T. ) ;
#444 = CARTESIAN_POINT ( 'NONE',  ( 0.000000000000000000, 0.000000000000000000, 9.000000000000000000 ) ) ;
#445 = DATE_AND_TIME ( #50, #170 ) ;
#446 = PRODUCT_DEFINITION_FORMATION_WITH_SPECIFIED_SOURCE ( 'ANY', '', #198, .NOT_KNOWN. ) ;
#447 = CARTESIAN_POINT ( 'NONE',  ( 15.10000000000000142, 1.347111479062088750E-16, 2.000000000000000000 ) ) ;
#448 = DIRECTION ( 'NONE',  ( 0.000000000000000000, 0.000000000000000000, -1.000000000000000000 ) ) ;
#449 = CC_DESIGN_APPROVAL ( #602, ( #303 ) ) ;
#450 = FACE_BOUND ( 'NONE', #358, .T. ) ;
#451 = DIRECTION ( 'NONE',  ( 0.000000000000000000, 0.000000000000000000, 1.000000000000000000 ) ) ;
#452 = APPROVAL_STATUS ( 'not_yet_approved' ) ;
#453 = VERTEX_POINT ( 'NONE', #25 ) ;
#454 = EDGE_CURVE ( 'NONE', #453, #600, #337, .T. ) ;
#455 = DESIGN_CONTEXT ( 'detailed design', #328, 'design' ) ;
#456 = PERSON_AND_ORGANIZATION_ROLE ( 'classification_officer' ) ;
#457 = AXIS2_PLACEMENT_3D ( 'NONE', #259, #311, #213 ) ;
#458 = EDGE_LOOP ( 'NONE', ( #141, #524, #107, #502 ) ) ;
#459 = AXIS2_PLACEMENT_3D ( 'NONE', #488, #634, #178 ) ;
#460 = CC_DESIGN_APPROVAL ( #435, ( #446 ) ) ;
#461 = EDGE_LOOP ( 'NONE', ( #129, #290, #479, #380 ) ) ;
#462 = CIRCLE ( 'NONE', #237, 1.100000000000000089 ) ;
#463 = ORIENTED_EDGE ( 'NONE', *, *, #595, .T. ) ;
#464 = ORIENTED_EDGE ( 'NONE', *, *, #471, .F. ) ;
#465 = VECTOR ( 'NONE', #580, 1000.000000000000000 ) ;
#466 = EDGE_LOOP ( 'NONE', ( #357, #508 ) ) ;
#467 = CIRCLE ( 'NONE', #507, 1.100000000000000311 ) ;
#468 = FACE_OUTER_BOUND ( 'NONE', #558, .T. ) ;
#469 = ORIENTED_EDGE ( 'NONE', *, *, #586, .F. ) ;
#470 = DIRECTION ( 'NONE',  ( 0.000000000000000000, 0.000000000000000000, -1.000000000000000000 ) ) ;
#471 = EDGE_CURVE ( 'NONE', #597, #191, #316, .T. ) ;
#472 = ORIENTED_EDGE ( 'NONE', *, *, #417, .F. ) ;
#473 = DIRECTION ( 'NONE',  ( -1.000000000000000000, 0.000000000000000000, 0.000000000000000000 ) ) ;
#474 = DIRECTION ( 'NONE',  ( 0.000000000000000000, 0.000000000000000000, 1.000000000000000000 ) ) ;
#475 = CARTESIAN_POINT ( 'NONE',  ( 0.000000000000000000, 0.000000000000000000, 2.000000000000000000 ) ) ;
#476 = VERTEX_POINT ( 'NONE', #431 ) ;
#477 = EDGE_CURVE ( 'NONE', #581, #597, #220, .T. ) ;
#478 = CYLINDRICAL_SURFACE ( 'NONE', #536, 1.100000000000000311 ) ;
#479 = ORIENTED_EDGE ( 'NONE', *, *, #278, .T. ) ;
#480 = CYLINDRICAL_SURFACE ( 'NONE', #80, 7.000000000000000000 ) ;
#481 = AXIS2_PLACEMENT_3D ( 'NONE', #289, #2, #53 ) ;
#482 = CARTESIAN_POINT ( 'NONE',  ( 9.000000000000000000, 1.102182119232617714E-15, 12.00000000000000000 ) ) ;
#483 = PERSON_AND_ORGANIZATION ( #104, #415 ) ;
#484 = CARTESIAN_POINT ( 'NONE',  ( 7.000000000000000000, 8.572527594031473190E-16, 0.000000000000000000 ) ) ;
#485 = DIRECTION ( 'NONE',  ( 0.000000000000000000, 0.000000000000000000, -1.000000000000000000 ) ) ;
#486 = DIRECTION ( 'NONE',  ( 0.000000000000000000, 0.000000000000000000, 1.000000000000000000 ) ) ;
#487 = CIRCLE ( 'NONE', #518, 9.000000000000000000 ) ;
#488 = CARTESIAN_POINT ( 'NONE',  ( 0.000000000000000000, 0.000000000000000000, 9.000000000000000000 ) ) ;
#489 = DIRECTION ( 'NONE',  ( 0.000000000000000000, 0.000000000000000000, -1.000000000000000000 ) ) ;
#490 = DIRECTION ( 'NONE',  ( 1.000000000000000000, 0.000000000000000000, 0.000000000000000000 ) ) ;
#491 = CALENDAR_DATE ( 2026, 7, 9 ) ;
#492 = ADVANCED_FACE ( 'NONE', ( #326 ), #478, .F. ) ;
#493 = DIRECTION ( 'NONE',  ( 0.000000000000000000, 0.000000000000000000, 1.000000000000000000 ) ) ;
#494 = AXIS2_PLACEMENT_3D ( 'NONE', #547, #95, #295 ) ;
#495 = FACE_BOUND ( 'NONE', #16, .T. ) ;
#496 = DATE_AND_TIME ( #491, #427 ) ;
#497 = DIRECTION ( 'NONE',  ( 0.000000000000000000, 0.000000000000000000, 1.000000000000000000 ) ) ;
#498 = CARTESIAN_POINT ( 'NONE',  ( 11.19999999999999929, 1.371604415045035513E-15, 0.000000000000000000 ) ) ;
#499 = DIRECTION ( 'NONE',  ( 0.000000000000000000, 0.000000000000000000, 1.000000000000000000 ) ) ;
#500 = EDGE_CURVE ( 'NONE', #191, #578, #588, .T. ) ;
#501 = PERSON_AND_ORGANIZATION ( #104, #415 ) ;
#502 = ORIENTED_EDGE ( 'NONE', *, *, #382, .F. ) ;
#503 = AXIS2_PLACEMENT_3D ( 'NONE', #444, #635, #133 ) ;
#504 = AXIS2_PLACEMENT_3D ( 'NONE', #606, #163, #226 ) ;
#505 = ORIENTED_EDGE ( 'NONE', *, *, #421, .F. ) ;
#506 = EDGE_CURVE ( 'NONE', #554, #408, #24, .T. ) ;
#507 = AXIS2_PLACEMENT_3D ( 'NONE', #232, #94, #397 ) ;
#508 = ORIENTED_EDGE ( 'NONE', *, *, #477, .T. ) ;
#509 = VECTOR ( 'NONE', #520, 1000.000000000000000 ) ;
#510 = EDGE_CURVE ( 'NONE', #578, #191, #4, .T. ) ;
#511 = ORIENTED_EDGE ( 'NONE', *, *, #278, .F. ) ;
#512 = ORIENTED_EDGE ( 'NONE', *, *, #356, .F. ) ;
#513 = EDGE_CURVE ( 'NONE', #310, #363, #410, .T. ) ;
#514 = DIRECTION ( 'NONE',  ( 0.000000000000000000, 0.000000000000000000, -1.000000000000000000 ) ) ;
#515 = ORIENTED_EDGE ( 'NONE', *, *, #417, .T. ) ;
#516 = EDGE_CURVE ( 'NONE', #221, #618, #366, .T. ) ;
#517 = DIRECTION ( 'NONE',  ( -0.000000000000000000, -0.000000000000000000, -1.000000000000000000 ) ) ;
#518 = AXIS2_PLACEMENT_3D ( 'NONE', #69, #275, #165 ) ;
#519 = ORIENTED_EDGE ( 'NONE', *, *, #398, .T. ) ;
#520 = DIRECTION ( 'NONE',  ( -0.000000000000000000, -0.000000000000000000, -1.000000000000000000 ) ) ;
#521 = CARTESIAN_POINT ( 'NONE',  ( 7.000000000000000000, 8.572527594031473190E-16, 9.000000000000000000 ) ) ;
#522 = VERTEX_POINT ( 'NONE', #136 ) ;
#523 = DIRECTION ( 'NONE',  ( -0.000000000000000000, -0.000000000000000000, -1.000000000000000000 ) ) ;
#524 = ORIENTED_EDGE ( 'NONE', *, *, #586, .T. ) ;
#525 = DIRECTION ( 'NONE',  ( 0.000000000000000000, 0.000000000000000000, -1.000000000000000000 ) ) ;
#526 = EDGE_LOOP ( 'NONE', ( #72, #167, #418, #633 ) ) ;
#527 = PRODUCT_DEFINITION ( 'UNKNOWN', '', #446, #455 ) ;
#528 = DIRECTION ( 'NONE',  ( 0.000000000000000000, 0.000000000000000000, -1.000000000000000000 ) ) ;
#529 = CARTESIAN_POINT ( 'NONE',  ( 0.000000000000000000, -14.00000000000000000, 2.000000000000000000 ) ) ;
#530 = AXIS2_PLACEMENT_3D ( 'NONE', #236, #85, #383 ) ;
#531 = ORIENTED_EDGE ( 'NONE', *, *, #13, .T. ) ;
#532 = DATE_AND_TIME ( #333, #199 ) ;
#533 = DIRECTION ( 'NONE',  ( 1.000000000000000000, 0.000000000000000000, 0.000000000000000000 ) ) ;
#534 = CIRCLE ( 'NONE', #134, 7.000000000000000000 ) ;
#535 = EDGE_CURVE ( 'NONE', #63, #554, #131, .T. ) ;
#536 = AXIS2_PLACEMENT_3D ( 'NONE', #362, #514, #64 ) ;
#537 = CARTESIAN_POINT ( 'NONE',  ( 9.000000000000000000, 1.102182119232617714E-15, 2.000000000000000000 ) ) ;
#538 = FACE_BOUND ( 'NONE', #466, .T. ) ;
#539 = VECTOR ( 'NONE', #193, 1000.000000000000000 ) ;
#540 = ORIENTED_EDGE ( 'NONE', *, *, #353, .F. ) ;
#541 = CARTESIAN_POINT ( 'NONE',  ( -9.000000000000000000, 0.000000000000000000, 2.000000000000000000 ) ) ;
#542 = EDGE_CURVE ( 'NONE', #332, #210, #434, .T. ) ;
#543 = DIRECTION ( 'NONE',  ( 1.000000000000000000, 0.000000000000000000, -0.000000000000000000 ) ) ;
#544 = APPROVAL_DATE_TIME ( #402, #435 ) ;
#545 = CIRCLE ( 'NONE', #256, 11.19999999999999929 ) ;
#546 = CARTESIAN_POINT ( 'NONE',  ( 0.000000000000000000, 0.000000000000000000, 2.000000000000000000 ) ) ;
#547 = CARTESIAN_POINT ( 'NONE',  ( 0.000000000000000000, 14.00000000000000000, 2.000000000000000000 ) ) ;
#548 = PLANE ( 'NONE',  #481 ) ;
#549 = SECURITY_CLASSIFICATION_LEVEL ( 'unclassified' ) ;
#550 = DIRECTION ( 'NONE',  ( -0.000000000000000000, -0.000000000000000000, -1.000000000000000000 ) ) ;
#551 = DIRECTION ( 'NONE',  ( -0.000000000000000000, -0.000000000000000000, -1.000000000000000000 ) ) ;
#552 = FACE_OUTER_BOUND ( 'NONE', #162, .T. ) ;
#553 = ADVANCED_FACE ( 'NONE', ( #291 ), #480, .F. ) ;
#554 = VERTEX_POINT ( 'NONE', #379 ) ;
#555 = AXIS2_PLACEMENT_3D ( 'NONE', #546, #34, #533 ) ;
#556 = CARTESIAN_POINT ( 'NONE',  ( -11.19999999999999929, 0.000000000000000000, 0.000000000000000000 ) ) ;
#557 = AXIS2_PLACEMENT_3D ( 'NONE', #620, #187, #127 ) ;
#558 = EDGE_LOOP ( 'NONE', ( #61, #463, #269, #540 ) ) ;
#559 = ORIENTED_EDGE ( 'NONE', *, *, #510, .F. ) ;
#560 = CC_DESIGN_APPROVAL ( #144, ( #527 ) ) ;
#561 = ORIENTED_EDGE ( 'NONE', *, *, #404, .F. ) ;
#562 = AXIS2_PLACEMENT_3D ( 'NONE', #438, #497, #81 ) ;
#563 = ORIENTED_EDGE ( 'NONE', *, *, #313, .T. ) ;
#564 = CIRCLE ( 'NONE', #530, 11.19999999999999929 ) ;
#565 = UNCERTAINTY_MEASURE_WITH_UNIT (LENGTH_MEASURE( 1.000000000000000082E-05 ), #579, 'distance_accuracy_value', 'NONE');
#566 = LINE ( 'NONE', #19, #509 ) ;
#567 = ORIENTED_EDGE ( 'NONE', *, *, #137, .F. ) ;
#568 = VECTOR ( 'NONE', #37, 1000.000000000000000 ) ;
#569 = EDGE_CURVE ( 'NONE', #522, #105, #564, .T. ) ;
#570 = DIRECTION ( 'NONE',  ( -0.000000000000000000, -0.000000000000000000, -1.000000000000000000 ) ) ;
#571 = DIRECTION ( 'NONE',  ( 1.000000000000000000, 0.000000000000000000, 0.000000000000000000 ) ) ;
#572 = CARTESIAN_POINT ( 'NONE',  ( -1.100000000000000089, -14.00000000000000000, -0.2000000000000005107 ) ) ;
#573 = VECTOR ( 'NONE', #523, 1000.000000000000000 ) ;
#574 = CARTESIAN_POINT ( 'NONE',  ( 0.000000000000000000, 0.000000000000000000, 0.000000000000000000 ) ) ;
#575 = CARTESIAN_POINT ( 'NONE',  ( 0.000000000000000000, 0.000000000000000000, 9.000000000000000000 ) ) ;
#576 = VECTOR ( 'NONE', #70, 1000.000000000000000 ) ;
#577 = DIRECTION ( 'NONE',  ( 0.000000000000000000, 0.000000000000000000, -1.000000000000000000 ) ) ;
#578 = VERTEX_POINT ( 'NONE', #299 ) ;
#579 =( LENGTH_UNIT ( ) NAMED_UNIT ( * ) SI_UNIT ( .MILLI., .METRE. ) );
#580 = DIRECTION ( 'NONE',  ( -0.000000000000000000, -0.000000000000000000, -1.000000000000000000 ) ) ;
#581 = VERTEX_POINT ( 'NONE', #447 ) ;
#582 = APPROVAL_DATE_TIME ( #381, #144 ) ;
#583 = DIRECTION ( 'NONE',  ( -0.000000000000000000, -0.000000000000000000, -1.000000000000000000 ) ) ;
#584 = DIRECTION ( 'NONE',  ( 0.000000000000000000, 0.000000000000000000, -1.000000000000000000 ) ) ;
#585 = CARTESIAN_POINT ( 'NONE',  ( 0.000000000000000000, 0.000000000000000000, -0.2000000000000000111 ) ) ;
#586 = EDGE_CURVE ( 'NONE', #305, #306, #587, .T. ) ;
#587 = LINE ( 'NONE', #43, #465 ) ;
#588 = CIRCLE ( 'NONE', #308, 1.100000000000000311 ) ;
#589 = DIRECTION ( 'NONE',  ( 1.000000000000000000, 0.000000000000000000, 0.000000000000000000 ) ) ;
#590 = CARTESIAN_POINT ( 'NONE',  ( -1.100000000000000089, 14.00000000000000000, 2.000000000000000000 ) ) ;
#591 = CARTESIAN_POINT ( 'NONE',  ( 12.90000000000000036, 0.000000000000000000, 2.000000000000000000 ) ) ;
#592 = CARTESIAN_POINT ( 'NONE',  ( 0.000000000000000000, 0.000000000000000000, 0.000000000000000000 ) ) ;
#593 = FACE_BOUND ( 'NONE', #317, .T. ) ;
#594 = CARTESIAN_POINT ( 'NONE',  ( 0.000000000000000000, 0.000000000000000000, 0.000000000000000000 ) ) ;
#595 = EDGE_CURVE ( 'NONE', #155, #600, #39, .T. ) ;
#596 = FACE_BOUND ( 'NONE', #314, .T. ) ;
#597 = VERTEX_POINT ( 'NONE', #591 ) ;
#598 = AXIS2_PLACEMENT_3D ( 'NONE', #592, #132, #282 ) ;
#599 = CARTESIAN_POINT ( 'NONE',  ( 0.000000000000000000, 0.000000000000000000, 0.000000000000000000 ) ) ;
#600 = VERTEX_POINT ( 'NONE', #47 ) ;
#601 = VERTEX_POINT ( 'NONE', #541 ) ;
#602 = APPROVAL ( #452, 'UNSPECIFIED' ) ;
#603 = ORIENTED_EDGE ( 'NONE', *, *, #535, .F. ) ;
#604 = CYLINDRICAL_SURFACE ( 'NONE', #457, 1.100000000000000089 ) ;
#605 = EDGE_LOOP ( 'NONE', ( #297, #12 ) ) ;
#606 = CARTESIAN_POINT ( 'NONE',  ( 0.000000000000000000, 14.00000000000000000, -0.2000000000000005107 ) ) ;
#607 = ADVANCED_FACE ( 'NONE', ( #245 ), #637, .T. ) ;
#608 = ORIENTED_EDGE ( 'NONE', *, *, #542, .T. ) ;
#609 = CIRCLE ( 'NONE', #336, 17.00000000000000000 ) ;
#610 = DIRECTION ( 'NONE',  ( -1.000000000000000000, 0.000000000000000000, 0.000000000000000000 ) ) ;
#611 = CARTESIAN_POINT ( 'NONE',  ( 0.000000000000000000, 0.000000000000000000, 2.000000000000000000 ) ) ;
#612 = ORIENTED_EDGE ( 'NONE', *, *, #404, .T. ) ;
#613 = CARTESIAN_POINT ( 'NONE',  ( 12.90000000000000036, 0.000000000000000000, 11.99999999999999645 ) ) ;
#614 = AXIS2_PLACEMENT_3D ( 'NONE', #215, #570, #419 ) ;
#615 = DIRECTION ( 'NONE',  ( -1.000000000000000000, 0.000000000000000000, 0.000000000000000000 ) ) ;
#616 = EDGE_CURVE ( 'NONE', #476, #63, #1, .T. ) ;
#617 = CARTESIAN_POINT ( 'NONE',  ( 14.00000000000000000, 0.000000000000000000, 2.000000000000000000 ) ) ;
#618 = VERTEX_POINT ( 'NONE', #341 ) ;
#619 = AXIS2_PLACEMENT_3D ( 'NONE', #82, #288, #138 ) ;
#620 = CARTESIAN_POINT ( 'NONE',  ( 14.00000000000000000, 0.000000000000000000, -0.2000000000000005107 ) ) ;
#621 = EDGE_CURVE ( 'NONE', #597, #581, #467, .T. ) ;
#622 = VERTEX_POINT ( 'NONE', #484 ) ;
#623 = CALENDAR_DATE ( 2026, 7, 9 ) ;
#624 = DIRECTION ( 'NONE',  ( -1.000000000000000000, 0.000000000000000000, 0.000000000000000000 ) ) ;
#625 = AXIS2_PLACEMENT_3D ( 'NONE', #437, #280, #284 ) ;
#626 = CARTESIAN_POINT ( 'NONE',  ( 0.000000000000000000, -14.00000000000000000, 2.000000000000000000 ) ) ;
#627 = CARTESIAN_POINT ( 'NONE',  ( 1.100000000000000089, -14.00000000000000000, 11.99999999999999645 ) ) ;
#628 = ADVANCED_FACE ( 'NONE', ( #241, #89 ), #294, .F. ) ;
#629 = CARTESIAN_POINT ( 'NONE',  ( 17.00000000000000000, 2.081899558550500280E-15, 2.000000000000000000 ) ) ;
#630 = FACE_OUTER_BOUND ( 'NONE', #260, .T. ) ;
#631 = DIRECTION ( 'NONE',  ( -0.000000000000000000, -0.000000000000000000, -1.000000000000000000 ) ) ;
#632 = PERSON_AND_ORGANIZATION ( #104, #415 ) ;
#633 = ORIENTED_EDGE ( 'NONE', *, *, #454, .T. ) ;
#634 = DIRECTION ( 'NONE',  ( 0.000000000000000000, 0.000000000000000000, 1.000000000000000000 ) ) ;
#635 = DIRECTION ( 'NONE',  ( 0.000000000000000000, 0.000000000000000000, -1.000000000000000000 ) ) ;
#636 = VERTEX_POINT ( 'NONE', #378 ) ;
#637 = CYLINDRICAL_SURFACE ( 'NONE', #142, 9.000000000000000000 ) ;
ENDSEC;
END-ISO-10303-21;
