ISO-10303-21;
HEADER;
FILE_DESCRIPTION (( 'STEP AP203' ),
    '1' );
FILE_NAME ('ARM-104_Elbow_bearing_cheek.step',
    '2026-09-08T03:50:06',
    ( '' ),
    ( '' ),
    'SwSTEP 2.0',
    'SolidWorks 2026',
    '' );
FILE_SCHEMA (( 'CONFIG_CONTROL_DESIGN' ));
ENDSEC;

DATA;
#1 = DIRECTION ( 'NONE',  ( -0.000000000000000000, -0.000000000000000000, 1.000000000000000000 ) ) ;
#2 = ORIENTED_EDGE ( 'NONE', *, *, #749, .T. ) ;
#3 = AXIS2_PLACEMENT_3D ( 'NONE', #738, #540, #13 ) ;
#4 = PLANE ( 'NONE',  #188 ) ;
#5 = AXIS2_PLACEMENT_3D ( 'NONE', #355, #614, #616 ) ;
#6 = DIRECTION ( 'NONE',  ( -1.000000000000000000, 0.000000000000000000, 0.000000000000000000 ) ) ;
#7 = ORIENTED_EDGE ( 'NONE', *, *, #467, .F. ) ;
#8 = APPROVAL_DATE_TIME ( #292, #718 ) ;
#9 = DIRECTION ( 'NONE',  ( -0.000000000000000000, -0.000000000000000000, -1.000000000000000000 ) ) ;
#10 = CARTESIAN_POINT ( 'NONE',  ( -1.100000000000000089, 14.00000000000000000, 6.999999999999999112 ) ) ;
#11 = ORIENTED_EDGE ( 'NONE', *, *, #619, .F. ) ;
#12 = CIRCLE ( 'NONE', #296, 17.00000000000000000 ) ;
#13 = DIRECTION ( 'NONE',  ( -1.000000000000000000, 0.000000000000000000, 0.000000000000000000 ) ) ;
#14 = PLANE ( 'NONE',  #646 ) ;
#15 = ORIENTED_EDGE ( 'NONE', *, *, #791, .F. ) ;
#16 = EDGE_CURVE ( 'NONE', #629, #822, #324, .T. ) ;
#17 = LOCAL_TIME ( 22, 50, 6.000000000000000000, #58 ) ;
#18 = CYLINDRICAL_SURFACE ( 'NONE', #119, 1.600000000000000755 ) ;
#19 = DIRECTION ( 'NONE',  ( 0.000000000000000000, 0.000000000000000000, -1.000000000000000000 ) ) ;
#20 = EDGE_LOOP ( 'NONE', ( #317, #184 ) ) ;
#21 = AXIS2_PLACEMENT_3D ( 'NONE', #567, #723, #117 ) ;
#22 = DIRECTION ( 'NONE',  ( 0.000000000000000000, 0.000000000000000000, -1.000000000000000000 ) ) ;
#23 = CARTESIAN_POINT ( 'NONE',  ( 0.000000000000000000, -14.00000000000000000, 6.999999999999999112 ) ) ;
#24 = ORIENTED_EDGE ( 'NONE', *, *, #726, .T. ) ;
#25 = DIRECTION ( 'NONE',  ( -1.000000000000000000, 0.000000000000000000, 0.000000000000000000 ) ) ;
#26 = EDGE_CURVE ( 'NONE', #545, #431, #722, .T. ) ;
#27 = VECTOR ( 'NONE', #783, 1000.000000000000000 ) ;
#28 = CARTESIAN_POINT ( 'NONE',  ( -9.643650760992956705, -14.00000000000000000, 7.000000000000000000 ) ) ;
#29 = EDGE_LOOP ( 'NONE', ( #725, #458 ) ) ;
#30 = DIRECTION ( 'NONE',  ( -0.000000000000000000, -1.000000000000000000, -0.000000000000000000 ) ) ;
#31 = CARTESIAN_POINT ( 'NONE',  ( 12.90000000000000036, 0.000000000000000000, -1.000000000000000888 ) ) ;
#32 = DIRECTION ( 'NONE',  ( -0.000000000000000000, -0.000000000000000000, -1.000000000000000000 ) ) ;
#33 = EDGE_LOOP ( 'NONE', ( #294, #636 ) ) ;
#34 = ORIENTED_EDGE ( 'NONE', *, *, #763, .F. ) ;
#35 = AXIS2_PLACEMENT_3D ( 'NONE', #350, #821, #6 ) ;
#36 = FACE_BOUND ( 'NONE', #455, .T. ) ;
#37 = CARTESIAN_POINT ( 'NONE',  ( 0.000000000000000000, 0.000000000000000000, 7.000000000000000000 ) ) ;
#38 = VERTEX_POINT ( 'NONE', #716 ) ;
#39 = EDGE_CURVE ( 'NONE', #766, #428, #164, .T. ) ;
#40 = DIRECTION ( 'NONE',  ( 0.000000000000000000, 0.000000000000000000, -1.000000000000000000 ) ) ;
#41 = DIRECTION ( 'NONE',  ( -0.000000000000000000, -0.000000000000000000, -1.000000000000000000 ) ) ;
#42 = ORIENTED_EDGE ( 'NONE', *, *, #454, .T. ) ;
#43 = EDGE_CURVE ( 'NONE', #362, #478, #441, .T. ) ;
#44 = DIRECTION ( 'NONE',  ( -1.000000000000000000, 0.000000000000000000, 0.000000000000000000 ) ) ;
#45 = DIRECTION ( 'NONE',  ( 0.000000000000000000, 0.000000000000000000, -1.000000000000000000 ) ) ;
#46 = VERTEX_POINT ( 'NONE', #469 ) ;
#47 = ORIENTED_EDGE ( 'NONE', *, *, #43, .F. ) ;
#48 = AXIS2_PLACEMENT_3D ( 'NONE', #268, #413, #662 ) ;
#49 = CARTESIAN_POINT ( 'NONE',  ( -30.00000000000000000, 14.00000000000000000, 4.000000000000000000 ) ) ;
#50 = PERSON_AND_ORGANIZATION_ROLE ( 'creator' ) ;
#51 = EDGE_LOOP ( 'NONE', ( #241, #572 ) ) ;
#52 = ORIENTED_EDGE ( 'NONE', *, *, #499, .F. ) ;
#53 = VECTOR ( 'NONE', #632, 1000.000000000000000 ) ;
#54 = EDGE_CURVE ( 'NONE', #62, #584, #12, .T. ) ;
#55 = APPROVAL_DATE_TIME ( #342, #849 ) ;
#56 = DIRECTION ( 'NONE',  ( 0.000000000000000000, 1.000000000000000000, 0.000000000000000000 ) ) ;
#57 = ORIENTED_EDGE ( 'NONE', *, *, #665, .T. ) ;
#58 = COORDINATED_UNIVERSAL_TIME_OFFSET ( 6, 0, .BEHIND. ) ;
#59 = CARTESIAN_POINT ( 'NONE',  ( -25.00000000000000000, -9.000000000000000000, 4.000000000000000000 ) ) ;
#60 = CC_DESIGN_DATE_AND_TIME_ASSIGNMENT ( #408, #200, ( #187 ) ) ;
#61 = AXIS2_PLACEMENT_3D ( 'NONE', #243, #442, #697 ) ;
#62 = VERTEX_POINT ( 'NONE', #340 ) ;
#63 = AXIS2_PLACEMENT_3D ( 'NONE', #510, #576, #779 ) ;
#64 = APPROVAL_PERSON_ORGANIZATION ( #729, #205, #131 ) ;
#65 = CALENDAR_DATE ( 2026, 7, 9 ) ;
#66 = DIRECTION ( 'NONE',  ( 0.000000000000000000, 0.000000000000000000, 1.000000000000000000 ) ) ;
#67 = ORIENTED_EDGE ( 'NONE', *, *, #763, .T. ) ;
#68 = CALENDAR_DATE ( 2026, 7, 9 ) ;
#69 = DIRECTION ( 'NONE',  ( -0.000000000000000000, -0.000000000000000000, -1.000000000000000000 ) ) ;
#70 = ORIENTED_EDGE ( 'NONE', *, *, #438, .T. ) ;
#71 = DIRECTION ( 'NONE',  ( 0.000000000000000000, -0.000000000000000000, -1.000000000000000000 ) ) ;
#72 = FACE_OUTER_BOUND ( 'NONE', #841, .T. ) ;
#73 = EDGE_LOOP ( 'NONE', ( #577, #580 ) ) ;
#74 = AXIS2_PLACEMENT_3D ( 'NONE', #195, #126, #724 ) ;
#75 = CARTESIAN_POINT ( 'NONE',  ( 0.000000000000000000, 0.000000000000000000, 0.000000000000000000 ) ) ;
#76 = AXIS2_PLACEMENT_3D ( 'NONE', #37, #571, #378 ) ;
#77 = CYLINDRICAL_SURFACE ( 'NONE', #5, 9.000000000000000000 ) ;
#78 = ORIENTED_EDGE ( 'NONE', *, *, #347, .T. ) ;
#79 = ADVANCED_FACE ( 'NONE', ( #865 ), #465, .F. ) ;
#80 = CARTESIAN_POINT ( 'NONE',  ( 15.10000000000000142, 1.347111479062088503E-16, 6.999999999999999112 ) ) ;
#81 = ORIENTED_EDGE ( 'NONE', *, *, #109, .F. ) ;
#82 = VECTOR ( 'NONE', #589, 1000.000000000000000 ) ;
#83 = LINE ( 'NONE', #361, #501 ) ;
#84 = ORIENTED_EDGE ( 'NONE', *, *, #134, .T. ) ;
#85 = AXIS2_PLACEMENT_3D ( 'NONE', #388, #445, #839 ) ;
#86 = ORIENTED_EDGE ( 'NONE', *, *, #347, .F. ) ;
#87 = CARTESIAN_POINT ( 'NONE',  ( -25.00000000000000000, 9.000000000000000000, 6.999999999999999112 ) ) ;
#88 = LINE ( 'NONE', #10, #787 ) ;
#89 = ORIENTED_EDGE ( 'NONE', *, *, #298, .F. ) ;
#90 = CARTESIAN_POINT ( 'NONE',  ( 17.00000000000000000, 2.081899558550500280E-15, 7.000000000000000000 ) ) ;
#91 = ADVANCED_FACE ( 'NONE', ( #256 ), #720, .T. ) ;
#92 = PRODUCT_DEFINITION_SHAPE ( 'NONE', 'NONE',  #187 ) ;
#93 = FACE_BOUND ( 'NONE', #51, .T. ) ;
#94 = DIRECTION ( 'NONE',  ( -1.000000000000000000, 0.000000000000000000, 0.000000000000000000 ) ) ;
#95 = ORIENTED_EDGE ( 'NONE', *, *, #499, .T. ) ;
#96 = DIRECTION ( 'NONE',  ( 1.000000000000000000, 0.000000000000000000, 0.000000000000000000 ) ) ;
#97 = FACE_OUTER_BOUND ( 'NONE', #300, .T. ) ;
#98 = CARTESIAN_POINT ( 'NONE',  ( -25.00000000000000000, 9.000000000000000000, 0.000000000000000000 ) ) ;
#99 = ORIENTED_EDGE ( 'NONE', *, *, #852, .T. ) ;
#100 = DIRECTION ( 'NONE',  ( -0.000000000000000000, -0.000000000000000000, -1.000000000000000000 ) ) ;
#101 = DIRECTION ( 'NONE',  ( -0.000000000000000000, -1.000000000000000000, -0.000000000000000000 ) ) ;
#102 = CYLINDRICAL_SURFACE ( 'NONE', #120, 1.100000000000000311 ) ;
#103 = ORIENTED_EDGE ( 'NONE', *, *, #583, .F. ) ;
#104 = CARTESIAN_POINT ( 'NONE',  ( 0.000000000000000000, -14.00000000000000000, -1.000000000000000888 ) ) ;
#105 = CIRCLE ( 'NONE', #175, 9.000000000000000000 ) ;
#106 = CYLINDRICAL_SURFACE ( 'NONE', #148, 1.600000000000000755 ) ;
#107 = FACE_OUTER_BOUND ( 'NONE', #192, .T. ) ;
#108 = ORIENTED_EDGE ( 'NONE', *, *, #306, .T. ) ;
#109 = EDGE_CURVE ( 'NONE', #436, #836, #346, .T. ) ;
#110 = LINE ( 'NONE', #834, #169 ) ;
#111 = LINE ( 'NONE', #776, #284 ) ;
#112 = ORIENTED_EDGE ( 'NONE', *, *, #583, .T. ) ;
#113 = AXIS2_PLACEMENT_3D ( 'NONE', #727, #799, #851 ) ;
#114 = ORIENTED_EDGE ( 'NONE', *, *, #426, .T. ) ;
#115 = PRODUCT_RELATED_PRODUCT_CATEGORY ( 'detail', '', ( #597 ) ) ;
#116 = FACE_BOUND ( 'NONE', #652, .T. ) ;
#117 = DIRECTION ( 'NONE',  ( 1.000000000000000000, 0.000000000000000000, 0.000000000000000000 ) ) ;
#118 = VERTEX_POINT ( 'NONE', #474 ) ;
#119 = AXIS2_PLACEMENT_3D ( 'NONE', #87, #22, #286 ) ;
#120 = AXIS2_PLACEMENT_3D ( 'NONE', #384, #624, #635 ) ;
#121 = ADVANCED_FACE ( 'NONE', ( #480 ), #333, .F. ) ;
#122 = PERSON_AND_ORGANIZATION ( #613, #449 ) ;
#123 = CARTESIAN_POINT ( 'NONE',  ( -30.00000000000000000, 14.00000000000000000, 4.000000000000000000 ) ) ;
#124 = ORIENTED_EDGE ( 'NONE', *, *, #601, .T. ) ;
#125 = CALENDAR_DATE ( 2026, 7, 9 ) ;
#126 = DIRECTION ( 'NONE',  ( 0.000000000000000000, 0.000000000000000000, -1.000000000000000000 ) ) ;
#127 = ORIENTED_EDGE ( 'NONE', *, *, #364, .T. ) ;
#128 = FACE_OUTER_BOUND ( 'NONE', #332, .T. ) ;
#129 = ORIENTED_EDGE ( 'NONE', *, *, #54, .T. ) ;
#130 = CIRCLE ( 'NONE', #260, 9.000000000000000000 ) ;
#131 = APPROVAL_ROLE ( '' ) ;
#132 = CARTESIAN_POINT ( 'NONE',  ( 0.000000000000000000, 14.00000000000000000, 6.999999999999999112 ) ) ;
#133 = ORIENTED_EDGE ( 'NONE', *, *, #411, .T. ) ;
#134 = EDGE_CURVE ( 'NONE', #481, #229, #860, .T. ) ;
#135 = CARTESIAN_POINT ( 'NONE',  ( 1.100000000000000089, 14.00000000000000000, 6.999999999999999112 ) ) ;
#136 = CARTESIAN_POINT ( 'NONE',  ( -23.40000000000000213, 9.000000000000000000, 6.999999999999999112 ) ) ;
#137 = ORIENTED_EDGE ( 'NONE', *, *, #400, .T. ) ;
#138 = CARTESIAN_POINT ( 'NONE',  ( 0.000000000000000000, 0.000000000000000000, -1.000000000000000000 ) ) ;
#139 = CIRCLE ( 'NONE', #380, 1.100000000000000089 ) ;
#140 = CARTESIAN_POINT ( 'NONE',  ( -25.00000000000000000, 9.000000000000000000, 4.000000000000000000 ) ) ;
#141 = ORIENTED_EDGE ( 'NONE', *, *, #660, .F. ) ;
#142 = AXIS2_PLACEMENT_3D ( 'NONE', #709, #764, #165 ) ;
#143 = EDGE_CURVE ( 'NONE', #496, #643, #593, .T. ) ;
#144 = CARTESIAN_POINT ( 'NONE',  ( -30.00000000000000000, 14.00000000000000000, 4.000000000000000000 ) ) ;
#145 = AXIS2_PLACEMENT_3D ( 'NONE', #671, #427, #739 ) ;
#146 = LINE ( 'NONE', #220, #565 ) ;
#147 = ORIENTED_EDGE ( 'NONE', *, *, #181, .T. ) ;
#148 = AXIS2_PLACEMENT_3D ( 'NONE', #456, #714, #177 ) ;
#149 = UNCERTAINTY_MEASURE_WITH_UNIT (LENGTH_MEASURE( 1.000000000000000082E-05 ), #598, 'distance_accuracy_value', 'NONE');
#150 = CARTESIAN_POINT ( 'NONE',  ( 15.10000000000000142, 1.347111479062088503E-16, 6.999999999999999112 ) ) ;
#151 = ORIENTED_EDGE ( 'NONE', *, *, #524, .F. ) ;
#152 = CARTESIAN_POINT ( 'NONE',  ( -9.643650760992956705, 14.00000000000000000, 4.000000000000000000 ) ) ;
#153 = CARTESIAN_POINT ( 'NONE',  ( 0.000000000000000000, 0.000000000000000000, 0.000000000000000000 ) ) ;
#154 = VERTEX_POINT ( 'NONE', #666 ) ;
#155 = EDGE_CURVE ( 'NONE', #221, #271, #214, .T. ) ;
#156 = FACE_OUTER_BOUND ( 'NONE', #603, .T. ) ;
#157 = DIRECTION ( 'NONE',  ( 0.000000000000000000, 0.000000000000000000, 1.000000000000000000 ) ) ;
#158 = DIRECTION ( 'NONE',  ( 0.000000000000000000, 0.000000000000000000, -1.000000000000000000 ) ) ;
#159 = ORIENTED_EDGE ( 'NONE', *, *, #558, .F. ) ;
#160 = AXIS2_PLACEMENT_3D ( 'NONE', #246, #760, #628 ) ;
#161 = CARTESIAN_POINT ( 'NONE',  ( -30.00000000000000000, -14.00000000000000000, 0.000000000000000000 ) ) ;
#162 = CARTESIAN_POINT ( 'NONE',  ( 0.000000000000000000, -14.00000000000000000, 6.999999999999999112 ) ) ;
#163 = CARTESIAN_POINT ( 'NONE',  ( -17.00000000000000000, 0.000000000000000000, 4.000000000000000000 ) ) ;
#164 = LINE ( 'NONE', #174, #473 ) ;
#165 = DIRECTION ( 'NONE',  ( 1.000000000000000000, 0.000000000000000000, 0.000000000000000000 ) ) ;
#166 = FACE_BOUND ( 'NONE', #680, .T. ) ;
#167 = VERTEX_POINT ( 'NONE', #402 ) ;
#168 = ORIENTED_EDGE ( 'NONE', *, *, #26, .T. ) ;
#169 = VECTOR ( 'NONE', #513, 1000.000000000000000 ) ;
#170 = ADVANCED_FACE ( 'NONE', ( #128 ), #651, .F. ) ;
#171 = DIRECTION ( 'NONE',  ( 0.000000000000000000, 0.000000000000000000, 1.000000000000000000 ) ) ;
#172 = LOCAL_TIME ( 22, 50, 6.000000000000000000, #803 ) ;
#173 = DIRECTION ( 'NONE',  ( 0.000000000000000000, 0.000000000000000000, 1.000000000000000000 ) ) ;
#174 = CARTESIAN_POINT ( 'NONE',  ( -30.00000000000000000, -14.00000000000000000, 4.000000000000000000 ) ) ;
#175 = AXIS2_PLACEMENT_3D ( 'NONE', #505, #173, #825 ) ;
#176 = APPROVAL_PERSON_ORGANIZATION ( #656, #718, #368 ) ;
#177 = DIRECTION ( 'NONE',  ( -1.000000000000000000, 0.000000000000000000, 0.000000000000000000 ) ) ;
#178 = CC_DESIGN_DATE_AND_TIME_ASSIGNMENT ( #405, #472, ( #488 ) ) ;
#179 = CARTESIAN_POINT ( 'NONE',  ( 0.000000000000000000, 0.000000000000000000, 0.000000000000000000 ) ) ;
#180 = ORIENTED_EDGE ( 'NONE', *, *, #336, .F. ) ;
#181 = EDGE_CURVE ( 'NONE', #424, #640, #855, .T. ) ;
#182 = CARTESIAN_POINT ( 'NONE',  ( -25.00000000000000000, -9.000000000000000000, 0.000000000000000000 ) ) ;
#183 = CARTESIAN_POINT ( 'NONE',  ( -17.00000000000000000, 0.000000000000000000, 0.000000000000000000 ) ) ;
#184 = ORIENTED_EDGE ( 'NONE', *, *, #827, .F. ) ;
#185 = VECTOR ( 'NONE', #69, 1000.000000000000000 ) ;
#186 = VERTEX_POINT ( 'NONE', #789 ) ;
#187 = PRODUCT_DEFINITION ( 'UNKNOWN', '', #812, #343 ) ;
#188 = AXIS2_PLACEMENT_3D ( 'NONE', #273, #804, #369 ) ;
#189 = PERSON_AND_ORGANIZATION ( #613, #449 ) ;
#190 = CARTESIAN_POINT ( 'NONE',  ( 0.000000000000000000, 0.000000000000000000, 7.000000000000000000 ) ) ;
#191 = AXIS2_PLACEMENT_3D ( 'NONE', #638, #391, #309 ) ;
#192 = EDGE_LOOP ( 'NONE', ( #814, #728, #581, #735 ) ) ;
#193 = CIRCLE ( 'NONE', #515, 1.100000000000000089 ) ;
#194 = PERSON_AND_ORGANIZATION ( #613, #449 ) ;
#195 = CARTESIAN_POINT ( 'NONE',  ( 0.000000000000000000, 14.00000000000000000, 6.999999999999999112 ) ) ;
#196 = ORIENTED_EDGE ( 'NONE', *, *, #467, .T. ) ;
#197 = CYLINDRICAL_SURFACE ( 'NONE', #74, 1.100000000000000089 ) ;
#198 = ORIENTED_EDGE ( 'NONE', *, *, #574, .T. ) ;
#199 = ADVANCED_FACE ( 'NONE', ( #653 ), #197, .F. ) ;
#200 = DATE_TIME_ROLE ( 'creation_date' ) ;
#201 = CARTESIAN_POINT ( 'NONE',  ( -23.40000000000000213, -9.000000000000000000, 6.999999999999999112 ) ) ;
#202 = ORIENTED_EDGE ( 'NONE', *, *, #857, .F. ) ;
#203 = AXIS2_PLACEMENT_3D ( 'NONE', #162, #439, #302 ) ;
#204 = DIRECTION ( 'NONE',  ( -1.000000000000000000, 0.000000000000000000, 0.000000000000000000 ) ) ;
#205 = APPROVAL ( #588, 'UNSPECIFIED' ) ;
#206 = AXIS2_PLACEMENT_3D ( 'NONE', #182, #844, #250 ) ;
#207 = CLOSED_SHELL ( 'NONE', ( #532, #490, #199, #274, #610, #79, #708, #552, #244, #91, #736, #395, #170, #121, #265, #685, #733, #461, #681, #318, #477, #816, #637, #746 ) ) ;
#208 = EDGE_LOOP ( 'NONE', ( #168, #394, #198, #52 ) ) ;
#209 = EDGE_CURVE ( 'NONE', #766, #118, #406, .T. ) ;
#210 = CARTESIAN_POINT ( 'NONE',  ( -1.100000000000000089, 14.00000000000000000, -1.000000000000000888 ) ) ;
#211 = DIRECTION ( 'NONE',  ( 1.000000000000000000, 0.000000000000000000, 0.000000000000000000 ) ) ;
#212 = ORIENTED_EDGE ( 'NONE', *, *, #867, .T. ) ;
#213 = EDGE_CURVE ( 'NONE', #484, #507, #784, .T. ) ;
#214 = CIRCLE ( 'NONE', #329, 1.100000000000000089 ) ;
#215 = CARTESIAN_POINT ( 'NONE',  ( -23.40000000000000213, -9.000000000000000000, 0.000000000000000000 ) ) ;
#216 = FACE_OUTER_BOUND ( 'NONE', #403, .T. ) ;
#217 = VERTEX_POINT ( 'NONE', #663 ) ;
#218 = CC_DESIGN_PERSON_AND_ORGANIZATION_ASSIGNMENT ( #189, #864, ( #187 ) ) ;
#219 = AXIS2_PLACEMENT_3D ( 'NONE', #373, #706, #94 ) ;
#220 = CARTESIAN_POINT ( 'NONE',  ( -11.09999999999999964, 0.000000000000000000, 7.000000000000000000 ) ) ;
#221 = VERTEX_POINT ( 'NONE', #534 ) ;
#222 = LINE ( 'NONE', #434, #655 ) ;
#223 = CARTESIAN_POINT ( 'NONE',  ( -11.09999999999999964, 0.000000000000000000, 7.000000000000000000 ) ) ;
#224 = DIRECTION ( 'NONE',  ( 1.000000000000000000, 0.000000000000000000, 0.000000000000000000 ) ) ;
#225 = EDGE_LOOP ( 'NONE', ( #180, #42, #398, #137 ) ) ;
#226 = DIRECTION ( 'NONE',  ( 1.000000000000000000, 0.000000000000000000, -0.000000000000000000 ) ) ;
#227 = EDGE_CURVE ( 'NONE', #836, #253, #796, .T. ) ;
#228 = DIRECTION ( 'NONE',  ( -0.000000000000000000, -0.000000000000000000, -1.000000000000000000 ) ) ;
#229 = VERTEX_POINT ( 'NONE', #730 ) ;
#230 = VECTOR ( 'NONE', #742, 1000.000000000000000 ) ;
#231 = CIRCLE ( 'NONE', #349, 1.600000000000000755 ) ;
#232 = DIRECTION ( 'NONE',  ( 1.000000000000000000, 0.000000000000000000, 0.000000000000000000 ) ) ;
#233 = DIRECTION ( 'NONE',  ( 1.000000000000000000, 0.000000000000000000, 0.000000000000000000 ) ) ;
#234 = AXIS2_PLACEMENT_3D ( 'NONE', #519, #694, #639 ) ;
#235 = FACE_BOUND ( 'NONE', #29, .T. ) ;
#236 = DIRECTION ( 'NONE',  ( 1.000000000000000000, 0.000000000000000000, -0.000000000000000000 ) ) ;
#237 = EDGE_LOOP ( 'NONE', ( #568, #594, #562, #323 ) ) ;
#238 = EDGE_CURVE ( 'NONE', #640, #46, #563, .T. ) ;
#239 = CARTESIAN_POINT ( 'NONE',  ( -26.60000000000000142, -9.000000000000000000, 6.999999999999999112 ) ) ;
#240 = CARTESIAN_POINT ( 'NONE',  ( 12.90000000000000036, 0.000000000000000000, 6.999999999999999112 ) ) ;
#241 = ORIENTED_EDGE ( 'NONE', *, *, #843, .F. ) ;
#242 = CC_DESIGN_PERSON_AND_ORGANIZATION_ASSIGNMENT ( #194, #50, ( #812 ) ) ;
#243 = CARTESIAN_POINT ( 'NONE',  ( -25.00000000000000000, 9.000000000000000000, 4.000000000000000000 ) ) ;
#244 = ADVANCED_FACE ( 'NONE', ( #688, #93, #543 ), #609, .F. ) ;
#245 = LOCAL_TIME ( 22, 50, 6.000000000000000000, #795 ) ;
#246 = CARTESIAN_POINT ( 'NONE',  ( 0.000000000000000000, 0.000000000000000000, 7.000000000000000000 ) ) ;
#247 = ORIENTED_EDGE ( 'NONE', *, *, #668, .F. ) ;
#248 = CIRCLE ( 'NONE', #772, 17.00000000000000000 ) ;
#249 = CIRCLE ( 'NONE', #21, 17.00000000000000000 ) ;
#250 = DIRECTION ( 'NONE',  ( 1.000000000000000000, 0.000000000000000000, 0.000000000000000000 ) ) ;
#251 = EDGE_CURVE ( 'NONE', #612, #785, #270, .T. ) ;
#252 = FACE_OUTER_BOUND ( 'NONE', #225, .T. ) ;
#253 = VERTEX_POINT ( 'NONE', #215 ) ;
#254 = FACE_OUTER_BOUND ( 'NONE', #208, .T. ) ;
#255 = PERSON_AND_ORGANIZATION_ROLE ( 'classification_officer' ) ;
#256 = FACE_OUTER_BOUND ( 'NONE', #415, .T. ) ;
#257 = AXIS2_PLACEMENT_3D ( 'NONE', #132, #66, #266 ) ;
#258 = CARTESIAN_POINT ( 'NONE',  ( 11.09999999999999964, 1.359357947053562156E-15, 7.000000000000000000 ) ) ;
#259 = ORIENTED_EDGE ( 'NONE', *, *, #696, .T. ) ;
#260 = AXIS2_PLACEMENT_3D ( 'NONE', #153, #435, #486 ) ;
#261 = PERSON_AND_ORGANIZATION ( #613, #449 ) ;
#262 = DIRECTION ( 'NONE',  ( -0.000000000000000000, -0.000000000000000000, -1.000000000000000000 ) ) ;
#263 = APPLICATION_CONTEXT ( 'configuration controlled 3d designs of mechanical parts and assemblies' ) ;
#264 = ORIENTED_EDGE ( 'NONE', *, *, #432, .T. ) ;
#265 = ADVANCED_FACE ( 'NONE', ( #748 ), #4, .F. ) ;
#266 = DIRECTION ( 'NONE',  ( 1.000000000000000000, 0.000000000000000000, 0.000000000000000000 ) ) ;
#267 = EDGE_LOOP ( 'NONE', ( #549, #57, #711, #861 ) ) ;
#268 = CARTESIAN_POINT ( 'NONE',  ( 0.000000000000000000, 0.000000000000000000, -1.000000000000000000 ) ) ;
#269 = CARTESIAN_POINT ( 'NONE',  ( -30.00000000000000000, 14.00000000000000000, 4.000000000000000000 ) ) ;
#270 = CIRCLE ( 'NONE', #811, 9.000000000000000000 ) ;
#271 = VERTEX_POINT ( 'NONE', #210 ) ;
#272 = AXIS2_PLACEMENT_3D ( 'NONE', #293, #611, #211 ) ;
#273 = CARTESIAN_POINT ( 'NONE',  ( -30.00000000000000000, -14.00000000000000000, 4.000000000000000000 ) ) ;
#274 = ADVANCED_FACE ( 'NONE', ( #820 ), #620, .F. ) ;
#275 = CARTESIAN_POINT ( 'NONE',  ( 9.000000000000000000, 1.102182119232617714E-15, 0.000000000000000000 ) ) ;
#276 = ORIENTED_EDGE ( 'NONE', *, *, #446, .F. ) ;
#277 = DIRECTION ( 'NONE',  ( 1.000000000000000000, 0.000000000000000000, 0.000000000000000000 ) ) ;
#278 = DIRECTION ( 'NONE',  ( -0.000000000000000000, -0.000000000000000000, 1.000000000000000000 ) ) ;
#279 = ORIENTED_EDGE ( 'NONE', *, *, #660, .T. ) ;
#280 = CARTESIAN_POINT ( 'NONE',  ( 1.100000000000000089, -14.00000000000000000, 6.999999999999999112 ) ) ;
#281 = CARTESIAN_POINT ( 'NONE',  ( 0.000000000000000000, 0.000000000000000000, 4.000000000000000000 ) ) ;
#282 = ORIENTED_EDGE ( 'NONE', *, *, #446, .T. ) ;
#283 = EDGE_CURVE ( 'NONE', #836, #436, #753, .T. ) ;
#284 = VECTOR ( 'NONE', #45, 1000.000000000000000 ) ;
#285 = SHAPE_DEFINITION_REPRESENTATION ( #92, #678 ) ;
#286 = DIRECTION ( 'NONE',  ( -1.000000000000000000, 0.000000000000000000, 0.000000000000000000 ) ) ;
#287 = DIRECTION ( 'NONE',  ( -0.000000000000000000, -0.000000000000000000, -1.000000000000000000 ) ) ;
#288 =( GEOMETRIC_REPRESENTATION_CONTEXT ( 3 ) GLOBAL_UNCERTAINTY_ASSIGNED_CONTEXT ( ( #149 ) ) GLOBAL_UNIT_ASSIGNED_CONTEXT ( ( #598, #647, #525 ) ) REPRESENTATION_CONTEXT ( 'NONE', 'WORKASPACE' ) );
#289 = CARTESIAN_POINT ( 'NONE',  ( 14.00000000000000000, 0.000000000000000000, 6.999999999999999112 ) ) ;
#290 = EDGE_LOOP ( 'NONE', ( #328, #751, #276, #84 ) ) ;
#291 = EDGE_CURVE ( 'NONE', #362, #481, #359, .T. ) ;
#292 = DATE_AND_TIME ( #737, #172 ) ;
#293 = CARTESIAN_POINT ( 'NONE',  ( 0.000000000000000000, 0.000000000000000000, 7.000000000000000000 ) ) ;
#294 = ORIENTED_EDGE ( 'NONE', *, *, #404, .F. ) ;
#295 = CARTESIAN_POINT ( 'NONE',  ( -1.100000000000000089, -14.00000000000000000, 6.999999999999999112 ) ) ;
#296 = AXIS2_PLACEMENT_3D ( 'NONE', #190, #537, #599 ) ;
#297 = DIRECTION ( 'NONE',  ( 1.000000000000000000, 0.000000000000000000, 0.000000000000000000 ) ) ;
#298 = EDGE_CURVE ( 'NONE', #431, #607, #674, .T. ) ;
#299 = DIRECTION ( 'NONE',  ( 0.000000000000000000, 0.000000000000000000, 1.000000000000000000 ) ) ;
#300 = EDGE_LOOP ( 'NONE', ( #345, #129 ) ) ;
#301 = LINE ( 'NONE', #838, #53 ) ;
#302 = DIRECTION ( 'NONE',  ( -1.000000000000000000, 0.000000000000000000, 0.000000000000000000 ) ) ;
#303 = DIRECTION ( 'NONE',  ( -0.000000000000000000, -0.000000000000000000, -1.000000000000000000 ) ) ;
#304 = EDGE_LOOP ( 'NONE', ( #622, #600 ) ) ;
#305 = AXIS2_PLACEMENT_3D ( 'NONE', #828, #762, #308 ) ;
#306 = EDGE_CURVE ( 'NONE', #625, #186, #363, .T. ) ;
#307 = VERTEX_POINT ( 'NONE', #677 ) ;
#308 = DIRECTION ( 'NONE',  ( -1.000000000000000000, 0.000000000000000000, 0.000000000000000000 ) ) ;
#309 = DIRECTION ( 'NONE',  ( 1.000000000000000000, 0.000000000000000000, -0.000000000000000000 ) ) ;
#310 = CARTESIAN_POINT ( 'NONE',  ( 0.000000000000000000, 0.000000000000000000, 0.000000000000000000 ) ) ;
#311 = EDGE_LOOP ( 'NONE', ( #81, #506 ) ) ;
#312 = LINE ( 'NONE', #90, #539 ) ;
#313 = CARTESIAN_POINT ( 'NONE',  ( -26.60000000000000142, -9.000000000000000000, 4.000000000000000000 ) ) ;
#314 = AXIS2_PLACEMENT_3D ( 'NONE', #269, #734, #71 ) ;
#315 = DIRECTION ( 'NONE',  ( 0.000000000000000000, 0.000000000000000000, 1.000000000000000000 ) ) ;
#316 = ORIENTED_EDGE ( 'NONE', *, *, #862, .F. ) ;
#317 = ORIENTED_EDGE ( 'NONE', *, *, #26, .F. ) ;
#318 = ADVANCED_FACE ( 'NONE', ( #547 ), #18, .F. ) ;
#319 = AXIS2_PLACEMENT_3D ( 'NONE', #138, #157, #425 ) ;
#320 = FACE_OUTER_BOUND ( 'NONE', #304, .T. ) ;
#321 = DIRECTION ( 'NONE',  ( 1.000000000000000000, 0.000000000000000000, 0.000000000000000000 ) ) ;
#322 = ORIENTED_EDGE ( 'NONE', *, *, #668, .T. ) ;
#323 = ORIENTED_EDGE ( 'NONE', *, *, #134, .F. ) ;
#324 = CIRCLE ( 'NONE', #354, 1.100000000000000311 ) ;
#325 = DIRECTION ( 'NONE',  ( 0.000000000000000000, 0.000000000000000000, -1.000000000000000000 ) ) ;
#326 = SECURITY_CLASSIFICATION_LEVEL ( 'unclassified' ) ;
#327 = ORIENTED_EDGE ( 'NONE', *, *, #862, .T. ) ;
#328 = ORIENTED_EDGE ( 'NONE', *, *, #558, .T. ) ;
#329 = AXIS2_PLACEMENT_3D ( 'NONE', #414, #262, #417 ) ;
#330 = DIRECTION ( 'NONE',  ( -0.000000000000000000, -0.000000000000000000, -1.000000000000000000 ) ) ;
#331 = VECTOR ( 'NONE', #330, 1000.000000000000000 ) ;
#332 = EDGE_LOOP ( 'NONE', ( #133, #740, #615, #707 ) ) ;
#333 = PLANE ( 'NONE',  #314 ) ;
#334 = LOCAL_TIME ( 22, 50, 6.000000000000000000, #859 ) ;
#335 = ORIENTED_EDGE ( 'NONE', *, *, #756, .F. ) ;
#336 = EDGE_CURVE ( 'NONE', #507, #221, #222, .T. ) ;
#337 = CIRCLE ( 'NONE', #386, 1.100000000000000311 ) ;
#338 = CIRCLE ( 'NONE', #272, 11.09999999999999964 ) ;
#339 = APPROVAL_STATUS ( 'not_yet_approved' ) ;
#340 = CARTESIAN_POINT ( 'NONE',  ( 17.00000000000000000, 2.081899558550500280E-15, 7.000000000000000000 ) ) ;
#341 = ORIENTED_EDGE ( 'NONE', *, *, #251, .T. ) ;
#342 = DATE_AND_TIME ( #650, #245 ) ;
#343 = DESIGN_CONTEXT ( 'detailed design', #263, 'design' ) ;
#344 = CARTESIAN_POINT ( 'NONE',  ( 0.000000000000000000, 0.000000000000000000, 0.000000000000000000 ) ) ;
#345 = ORIENTED_EDGE ( 'NONE', *, *, #713, .T. ) ;
#346 = CIRCLE ( 'NONE', #837, 1.600000000000000755 ) ;
#347 = EDGE_CURVE ( 'NONE', #584, #856, #553, .T. ) ;
#348 = CARTESIAN_POINT ( 'NONE',  ( 0.000000000000000000, 0.000000000000000000, 7.000000000000000000 ) ) ;
#349 = AXIS2_PLACEMENT_3D ( 'NONE', #429, #287, #297 ) ;
#350 = CARTESIAN_POINT ( 'NONE',  ( -25.00000000000000000, 9.000000000000000000, 6.999999999999999112 ) ) ;
#351 = VERTEX_POINT ( 'NONE', #557 ) ;
#352 = AXIS2_PLACEMENT_3D ( 'NONE', #140, #278, #357 ) ;
#353 = DIRECTION ( 'NONE',  ( 0.000000000000000000, 0.000000000000000000, 1.000000000000000000 ) ) ;
#354 = AXIS2_PLACEMENT_3D ( 'NONE', #520, #770, #233 ) ;
#355 = CARTESIAN_POINT ( 'NONE',  ( 0.000000000000000000, 0.000000000000000000, 0.000000000000000000 ) ) ;
#356 = ORIENTED_EDGE ( 'NONE', *, *, #596, .F. ) ;
#357 = DIRECTION ( 'NONE',  ( -1.000000000000000000, 0.000000000000000000, 0.000000000000000000 ) ) ;
#358 = EDGE_LOOP ( 'NONE', ( #67, #147, #247, #11 ) ) ;
#359 = LINE ( 'NONE', #144, #230 ) ;
#360 = DIRECTION ( 'NONE',  ( -0.000000000000000000, -0.000000000000000000, -1.000000000000000000 ) ) ;
#361 = CARTESIAN_POINT ( 'NONE',  ( -26.60000000000000142, 9.000000000000000000, 6.999999999999999112 ) ) ;
#362 = VERTEX_POINT ( 'NONE', #152 ) ;
#363 = CIRCLE ( 'NONE', #319, 17.00000000000000000 ) ;
#364 = EDGE_CURVE ( 'NONE', #649, #253, #231, .T. ) ;
#365 = EDGE_LOOP ( 'NONE', ( #819, #498 ) ) ;
#366 = AXIS2_PLACEMENT_3D ( 'NONE', #451, #768, #44 ) ;
#367 = VECTOR ( 'NONE', #420, 1000.000000000000000 ) ;
#368 = APPROVAL_ROLE ( '' ) ;
#369 = DIRECTION ( 'NONE',  ( 0.000000000000000000, 0.000000000000000000, -1.000000000000000000 ) ) ;
#370 = CYLINDRICAL_SURFACE ( 'NONE', #731, 1.100000000000000089 ) ;
#371 = ORIENTED_EDGE ( 'NONE', *, *, #376, .T. ) ;
#372 = CYLINDRICAL_SURFACE ( 'NONE', #433, 17.00000000000000000 ) ;
#373 = CARTESIAN_POINT ( 'NONE',  ( 0.000000000000000000, 0.000000000000000000, 7.000000000000000000 ) ) ;
#374 = ORIENTED_EDGE ( 'NONE', *, *, #227, .F. ) ;
#375 = DIRECTION ( 'NONE',  ( -1.000000000000000000, -0.000000000000000000, -0.000000000000000000 ) ) ;
#376 = EDGE_CURVE ( 'NONE', #643, #38, #824, .T. ) ;
#377 = FACE_BOUND ( 'NONE', #365, .T. ) ;
#378 = DIRECTION ( 'NONE',  ( 1.000000000000000000, 0.000000000000000000, 0.000000000000000000 ) ) ;
#379 = ORIENTED_EDGE ( 'NONE', *, *, #512, .F. ) ;
#380 = AXIS2_PLACEMENT_3D ( 'NONE', #383, #171, #582 ) ;
#381 = DIRECTION ( 'NONE',  ( -0.000000000000000000, -0.000000000000000000, -1.000000000000000000 ) ) ;
#382 = VECTOR ( 'NONE', #476, 1000.000000000000000 ) ;
#383 = CARTESIAN_POINT ( 'NONE',  ( 0.000000000000000000, 14.00000000000000000, 6.999999999999999112 ) ) ;
#384 = CARTESIAN_POINT ( 'NONE',  ( 14.00000000000000000, 0.000000000000000000, 6.999999999999999112 ) ) ;
#385 = VERTEX_POINT ( 'NONE', #223 ) ;
#386 = AXIS2_PLACEMENT_3D ( 'NONE', #831, #32, #447 ) ;
#387 = FACE_OUTER_BOUND ( 'NONE', #797, .T. ) ;
#388 = CARTESIAN_POINT ( 'NONE',  ( 0.000000000000000000, 0.000000000000000000, -1.000000000000000000 ) ) ;
#389 = DIRECTION ( 'NONE',  ( 0.000000000000000000, 0.000000000000000000, 1.000000000000000000 ) ) ;
#390 = EDGE_LOOP ( 'NONE', ( #15, #202 ) ) ;
#391 = DIRECTION ( 'NONE',  ( 0.000000000000000000, 0.000000000000000000, 1.000000000000000000 ) ) ;
#392 = CARTESIAN_POINT ( 'NONE',  ( 0.000000000000000000, 0.000000000000000000, -1.000000000000000000 ) ) ;
#393 = ORIENTED_EDGE ( 'NONE', *, *, #801, .F. ) ;
#394 = ORIENTED_EDGE ( 'NONE', *, *, #298, .T. ) ;
#395 = ADVANCED_FACE ( 'NONE', ( #235, #830, #377, #97, #116 ), #504, .T. ) ;
#396 = AXIS2_PLACEMENT_3D ( 'NONE', #807, #482, #605 ) ;
#397 = FACE_BOUND ( 'NONE', #390, .T. ) ;
#398 = ORIENTED_EDGE ( 'NONE', *, *, #596, .T. ) ;
#399 = CIRCLE ( 'NONE', #687, 17.00000000000000000 ) ;
#400 = EDGE_CURVE ( 'NONE', #271, #221, #786, .T. ) ;
#401 = PERSON_AND_ORGANIZATION_ROLE ( 'design_owner' ) ;
#402 = CARTESIAN_POINT ( 'NONE',  ( 15.10000000000000142, 1.347111479062088503E-16, -1.000000000000000888 ) ) ;
#403 = EDGE_LOOP ( 'NONE', ( #853, #70, #264, #790, #282 ) ) ;
#404 = EDGE_CURVE ( 'NONE', #154, #496, #630, .T. ) ;
#405 = DATE_AND_TIME ( #125, #551 ) ;
#406 = LINE ( 'NONE', #409, #604 ) ;
#407 = ORIENTED_EDGE ( 'NONE', *, *, #546, .F. ) ;
#408 = DATE_AND_TIME ( #68, #334 ) ;
#409 = CARTESIAN_POINT ( 'NONE',  ( -30.00000000000000000, -14.00000000000000000, 4.000000000000000000 ) ) ;
#410 = ORIENTED_EDGE ( 'NONE', *, *, #16, .T. ) ;
#411 = EDGE_CURVE ( 'NONE', #428, #351, #110, .T. ) ;
#412 = CIRCLE ( 'NONE', #48, 9.000000000000000000 ) ;
#413 = DIRECTION ( 'NONE',  ( 0.000000000000000000, 0.000000000000000000, 1.000000000000000000 ) ) ;
#414 = CARTESIAN_POINT ( 'NONE',  ( 0.000000000000000000, 14.00000000000000000, -1.000000000000000888 ) ) ;
#415 = EDGE_LOOP ( 'NONE', ( #444, #590, #78, #659, #393, #335, #755, #24 ) ) ;
#416 = CC_DESIGN_PERSON_AND_ORGANIZATION_ASSIGNMENT ( #122, #401, ( #597 ) ) ;
#417 = DIRECTION ( 'NONE',  ( 1.000000000000000000, 0.000000000000000000, 0.000000000000000000 ) ) ;
#418 = ORIENTED_EDGE ( 'NONE', *, *, #827, .T. ) ;
#419 = DIRECTION ( 'NONE',  ( 0.000000000000000000, 0.000000000000000000, -1.000000000000000000 ) ) ;
#420 = DIRECTION ( 'NONE',  ( 0.000000000000000000, 0.000000000000000000, -1.000000000000000000 ) ) ;
#421 = ORIENTED_EDGE ( 'NONE', *, *, #536, .T. ) ;
#422 = CC_DESIGN_SECURITY_CLASSIFICATION ( #488, ( #812 ) ) ;
#423 = CARTESIAN_POINT ( 'NONE',  ( -26.60000000000000142, -9.000000000000000000, 0.000000000000000000 ) ) ;
#424 = VERTEX_POINT ( 'NONE', #775 ) ;
#425 = DIRECTION ( 'NONE',  ( 1.000000000000000000, 0.000000000000000000, 0.000000000000000000 ) ) ;
#426 = EDGE_CURVE ( 'NONE', #436, #649, #641, .T. ) ;
#427 = DIRECTION ( 'NONE',  ( 0.000000000000000000, 0.000000000000000000, 1.000000000000000000 ) ) ;
#428 = VERTEX_POINT ( 'NONE', #645 ) ;
#429 = CARTESIAN_POINT ( 'NONE',  ( -25.00000000000000000, -9.000000000000000000, 0.000000000000000000 ) ) ;
#430 = CARTESIAN_POINT ( 'NONE',  ( -17.00000000000000000, 0.000000000000000000, 7.000000000000000000 ) ) ;
#431 = VERTEX_POINT ( 'NONE', #509 ) ;
#432 = EDGE_CURVE ( 'NONE', #856, #362, #248, .T. ) ;
#433 = AXIS2_PLACEMENT_3D ( 'NONE', #623, #500, #25 ) ;
#434 = CARTESIAN_POINT ( 'NONE',  ( 1.100000000000000089, 14.00000000000000000, 6.999999999999999112 ) ) ;
#435 = DIRECTION ( 'NONE',  ( 0.000000000000000000, 0.000000000000000000, 1.000000000000000000 ) ) ;
#436 = VERTEX_POINT ( 'NONE', #313 ) ;
#437 = CARTESIAN_POINT ( 'NONE',  ( 0.000000000000000000, -14.00000000000000000, -1.000000000000000888 ) ) ;
#438 = EDGE_CURVE ( 'NONE', #118, #856, #618, .T. ) ;
#439 = DIRECTION ( 'NONE',  ( 0.000000000000000000, 0.000000000000000000, -1.000000000000000000 ) ) ;
#440 = DIRECTION ( 'NONE',  ( 1.000000000000000000, 0.000000000000000000, 0.000000000000000000 ) ) ;
#441 = LINE ( 'NONE', #695, #185 ) ;
#442 = DIRECTION ( 'NONE',  ( -0.000000000000000000, -0.000000000000000000, 1.000000000000000000 ) ) ;
#443 = PLANE ( 'NONE',  #758 ) ;
#444 = ORIENTED_EDGE ( 'NONE', *, *, #536, .F. ) ;
#445 = DIRECTION ( 'NONE',  ( 0.000000000000000000, 0.000000000000000000, 1.000000000000000000 ) ) ;
#446 = EDGE_CURVE ( 'NONE', #481, #766, #693, .T. ) ;
#447 = DIRECTION ( 'NONE',  ( 1.000000000000000000, 0.000000000000000000, 0.000000000000000000 ) ) ;
#448 = DIRECTION ( 'NONE',  ( -0.000000000000000000, -0.000000000000000000, -1.000000000000000000 ) ) ;
#449 = ORGANIZATION ( 'UNSPECIFIED', 'UNSPECIFIED', '' ) ;
#450 = DIRECTION ( 'NONE',  ( -0.000000000000000000, -0.000000000000000000, -1.000000000000000000 ) ) ;
#451 = CARTESIAN_POINT ( 'NONE',  ( 0.000000000000000000, 0.000000000000000000, 4.000000000000000000 ) ) ;
#452 = FACE_OUTER_BOUND ( 'NONE', #667, .T. ) ;
#453 = ORIENTED_EDGE ( 'NONE', *, *, #867, .F. ) ;
#454 = EDGE_CURVE ( 'NONE', #507, #484, #139, .T. ) ;
#455 = EDGE_LOOP ( 'NONE', ( #212, #99 ) ) ;
#456 = CARTESIAN_POINT ( 'NONE',  ( -25.00000000000000000, -9.000000000000000000, 6.999999999999999112 ) ) ;
#457 = DIRECTION ( 'NONE',  ( 0.000000000000000000, 0.000000000000000000, 1.000000000000000000 ) ) ;
#458 = ORIENTED_EDGE ( 'NONE', *, *, #16, .F. ) ;
#459 = EDGE_LOOP ( 'NONE', ( #866, #690, #846, #356 ) ) ;
#460 = CC_DESIGN_PERSON_AND_ORGANIZATION_ASSIGNMENT ( #261, #464, ( #812 ) ) ;
#461 = ADVANCED_FACE ( 'NONE', ( #397, #634, #778, #320, #36 ), #578, .F. ) ;
#462 = AXIS2_PLACEMENT_3D ( 'NONE', #75, #491, #226 ) ;
#463 = AXIS2_PLACEMENT_3D ( 'NONE', #808, #360, #554 ) ;
#464 = PERSON_AND_ORGANIZATION_ROLE ( 'design_supplier' ) ;
#465 = CYLINDRICAL_SURFACE ( 'NONE', #113, 9.000000000000000000 ) ;
#466 = CIRCLE ( 'NONE', #800, 1.100000000000000311 ) ;
#467 = EDGE_CURVE ( 'NONE', #253, #649, #485, .T. ) ;
#468 = COORDINATED_UNIVERSAL_TIME_OFFSET ( 6, 0, .BEHIND. ) ;
#469 = CARTESIAN_POINT ( 'NONE',  ( -11.09999999999999964, 0.000000000000000000, 0.000000000000000000 ) ) ;
#470 = VERTEX_POINT ( 'NONE', #31 ) ;
#471 = CIRCLE ( 'NONE', #586, 1.100000000000000089 ) ;
#472 = DATE_TIME_ROLE ( 'classification_date' ) ;
#473 = VECTOR ( 'NONE', #448, 1000.000000000000000 ) ;
#474 = CARTESIAN_POINT ( 'NONE',  ( -9.643650760992956705, -14.00000000000000000, 4.000000000000000000 ) ) ;
#475 = ORIENTED_EDGE ( 'NONE', *, *, #512, .T. ) ;
#476 = DIRECTION ( 'NONE',  ( 0.000000000000000000, 0.000000000000000000, -1.000000000000000000 ) ) ;
#477 = ADVANCED_FACE ( 'NONE', ( #705 ), #106, .F. ) ;
#478 = VERTEX_POINT ( 'NONE', #627 ) ;
#479 = AXIS2_PLACEMENT_3D ( 'NONE', #98, #41, #689 ) ;
#480 = FACE_OUTER_BOUND ( 'NONE', #237, .T. ) ;
#481 = VERTEX_POINT ( 'NONE', #49 ) ;
#482 = DIRECTION ( 'NONE',  ( 0.000000000000000000, 0.000000000000000000, -1.000000000000000000 ) ) ;
#483 = LINE ( 'NONE', #80, #367 ) ;
#484 = VERTEX_POINT ( 'NONE', #848 ) ;
#485 = CIRCLE ( 'NONE', #206, 1.600000000000000755 ) ;
#486 = DIRECTION ( 'NONE',  ( 1.000000000000000000, 0.000000000000000000, 0.000000000000000000 ) ) ;
#487 = ORIENTED_EDGE ( 'NONE', *, *, #109, .T. ) ;
#488 = SECURITY_CLASSIFICATION ( '', '', #326 ) ;
#489 = CIRCLE ( 'NONE', #63, 1.100000000000000089 ) ;
#490 = ADVANCED_FACE ( 'NONE', ( #254 ), #759, .F. ) ;
#491 = DIRECTION ( 'NONE',  ( 0.000000000000000000, 0.000000000000000000, 1.000000000000000000 ) ) ;
#492 = DIRECTION ( 'NONE',  ( -1.000000000000000000, 0.000000000000000000, -0.000000000000000000 ) ) ;
#493 = ORIENTED_EDGE ( 'NONE', *, *, #155, .F. ) ;
#494 = CARTESIAN_POINT ( 'NONE',  ( 0.000000000000000000, 0.000000000000000000, 0.000000000000000000 ) ) ;
#495 = FACE_OUTER_BOUND ( 'NONE', #358, .T. ) ;
#496 = VERTEX_POINT ( 'NONE', #566 ) ;
#497 = CARTESIAN_POINT ( 'NONE',  ( -23.40000000000000213, 9.000000000000000000, 0.000000000000000000 ) ) ;
#498 = ORIENTED_EDGE ( 'NONE', *, *, #454, .F. ) ;
#499 = EDGE_CURVE ( 'NONE', #545, #307, #858, .T. ) ;
#500 = DIRECTION ( 'NONE',  ( -0.000000000000000000, -0.000000000000000000, -1.000000000000000000 ) ) ;
#501 = VECTOR ( 'NONE', #19, 1000.000000000000000 ) ;
#502 = CARTESIAN_POINT ( 'NONE',  ( 14.00000000000000000, 0.000000000000000000, -1.000000000000000888 ) ) ;
#503 = DIRECTION ( 'NONE',  ( 1.000000000000000000, 0.000000000000000000, 0.000000000000000000 ) ) ;
#504 = PLANE ( 'NONE',  #191 ) ;
#505 = CARTESIAN_POINT ( 'NONE',  ( 0.000000000000000000, 0.000000000000000000, -1.000000000000000000 ) ) ;
#506 = ORIENTED_EDGE ( 'NONE', *, *, #283, .F. ) ;
#507 = VERTEX_POINT ( 'NONE', #135 ) ;
#508 = AXIS2_PLACEMENT_3D ( 'NONE', #793, #56, #530 ) ;
#509 = CARTESIAN_POINT ( 'NONE',  ( 1.100000000000000089, -14.00000000000000000, 6.999999999999999112 ) ) ;
#510 = CARTESIAN_POINT ( 'NONE',  ( 0.000000000000000000, -14.00000000000000000, 6.999999999999999112 ) ) ;
#511 = ORIENTED_EDGE ( 'NONE', *, *, #143, .T. ) ;
#512 = EDGE_CURVE ( 'NONE', #785, #531, #691, .T. ) ;
#513 = DIRECTION ( 'NONE',  ( 1.000000000000000000, 0.000000000000000000, 0.000000000000000000 ) ) ;
#514 = VECTOR ( 'NONE', #40, 1000.000000000000000 ) ;
#515 = AXIS2_PLACEMENT_3D ( 'NONE', #437, #626, #555 ) ;
#516 = DIRECTION ( 'NONE',  ( 0.000000000000000000, 0.000000000000000000, 1.000000000000000000 ) ) ;
#517 = EDGE_LOOP ( 'NONE', ( #374, #802, #114, #127 ) ) ;
#518 = DIRECTION ( 'NONE',  ( -1.000000000000000000, 0.000000000000000000, 0.000000000000000000 ) ) ;
#519 = CARTESIAN_POINT ( 'NONE',  ( 0.000000000000000000, 14.00000000000000000, 6.999999999999999112 ) ) ;
#520 = CARTESIAN_POINT ( 'NONE',  ( 14.00000000000000000, 0.000000000000000000, 6.999999999999999112 ) ) ;
#521 = EDGE_CURVE ( 'NONE', #307, #607, #471, .T. ) ;
#522 = DIRECTION ( 'NONE',  ( 1.000000000000000000, 0.000000000000000000, 0.000000000000000000 ) ) ;
#523 = DIRECTION ( 'NONE',  ( -1.000000000000000000, 0.000000000000000000, 0.000000000000000000 ) ) ;
#524 = EDGE_CURVE ( 'NONE', #833, #186, #301, .T. ) ;
#525 =( NAMED_UNIT ( * ) SI_UNIT ( $, .STERADIAN. ) SOLID_ANGLE_UNIT ( ) );
#526 = DIRECTION ( 'NONE',  ( -0.000000000000000000, -0.000000000000000000, -1.000000000000000000 ) ) ;
#527 = ORIENTED_EDGE ( 'NONE', *, *, #644, .F. ) ;
#528 = CIRCLE ( 'NONE', #352, 1.600000000000000755 ) ;
#529 = PERSON_AND_ORGANIZATION ( #613, #449 ) ;
#530 = DIRECTION ( 'NONE',  ( 0.000000000000000000, -0.000000000000000000, 1.000000000000000000 ) ) ;
#531 = VERTEX_POINT ( 'NONE', #564 ) ;
#532 = ADVANCED_FACE ( 'NONE', ( #387 ), #823, .F. ) ;
#533 = PERSON_AND_ORGANIZATION ( #613, #449 ) ;
#534 = CARTESIAN_POINT ( 'NONE',  ( 1.100000000000000089, 14.00000000000000000, -1.000000000000000888 ) ) ;
#535 = ORIENTED_EDGE ( 'NONE', *, *, #411, .F. ) ;
#536 = EDGE_CURVE ( 'NONE', #62, #625, #312, .T. ) ;
#537 = DIRECTION ( 'NONE',  ( 0.000000000000000000, 0.000000000000000000, 1.000000000000000000 ) ) ;
#538 = ORIENTED_EDGE ( 'NONE', *, *, #432, .F. ) ;
#539 = VECTOR ( 'NONE', #450, 1000.000000000000000 ) ;
#540 = DIRECTION ( 'NONE',  ( -0.000000000000000000, -0.000000000000000000, 1.000000000000000000 ) ) ;
#541 = DIRECTION ( 'NONE',  ( -0.000000000000000000, -0.000000000000000000, -1.000000000000000000 ) ) ;
#542 = ORIENTED_EDGE ( 'NONE', *, *, #426, .F. ) ;
#543 = FACE_OUTER_BOUND ( 'NONE', #794, .T. ) ;
#544 = FACE_OUTER_BOUND ( 'NONE', #676, .T. ) ;
#545 = VERTEX_POINT ( 'NONE', #295 ) ;
#546 = EDGE_CURVE ( 'NONE', #478, #229, #573, .T. ) ;
#547 = FACE_OUTER_BOUND ( 'NONE', #267, .T. ) ;
#548 = DIRECTION ( 'NONE',  ( 0.000000000000000000, 0.000000000000000000, -1.000000000000000000 ) ) ;
#549 = ORIENTED_EDGE ( 'NONE', *, *, #143, .F. ) ;
#550 = CIRCLE ( 'NONE', #76, 11.09999999999999964 ) ;
#551 = LOCAL_TIME ( 22, 50, 6.000000000000000000, #468 ) ;
#552 = ADVANCED_FACE ( 'NONE', ( #156 ), #372, .T. ) ;
#553 = LINE ( 'NONE', #670, #798 ) ;
#554 = DIRECTION ( 'NONE',  ( 1.000000000000000000, 0.000000000000000000, 0.000000000000000000 ) ) ;
#555 = DIRECTION ( 'NONE',  ( 1.000000000000000000, 0.000000000000000000, 0.000000000000000000 ) ) ;
#556 = EDGE_LOOP ( 'NONE', ( #487, #832, #196, #542 ) ) ;
#557 = CARTESIAN_POINT ( 'NONE',  ( -9.643650760992956705, -14.00000000000000000, 0.000000000000000000 ) ) ;
#558 = EDGE_CURVE ( 'NONE', #229, #428, #757, .T. ) ;
#559 = FACE_OUTER_BOUND ( 'NONE', #585, .T. ) ;
#560 = ORIENTED_EDGE ( 'NONE', *, *, #601, .F. ) ;
#561 = CYLINDRICAL_SURFACE ( 'NONE', #234, 1.100000000000000089 ) ;
#562 = ORIENTED_EDGE ( 'NONE', *, *, #546, .T. ) ;
#563 = CIRCLE ( 'NONE', #700, 11.09999999999999964 ) ;
#564 = CARTESIAN_POINT ( 'NONE',  ( -9.000000000000000000, 0.000000000000000000, -1.000000000000000000 ) ) ;
#565 = VECTOR ( 'NONE', #541, 1000.000000000000000 ) ;
#566 = CARTESIAN_POINT ( 'NONE',  ( -23.40000000000000213, 9.000000000000000000, 4.000000000000000000 ) ) ;
#567 = CARTESIAN_POINT ( 'NONE',  ( 0.000000000000000000, 0.000000000000000000, 0.000000000000000000 ) ) ;
#568 = ORIENTED_EDGE ( 'NONE', *, *, #291, .F. ) ;
#569 = ORIENTED_EDGE ( 'NONE', *, *, #521, .T. ) ;
#570 = CARTESIAN_POINT ( 'NONE',  ( 0.000000000000000000, 0.000000000000000000, 4.000000000000000000 ) ) ;
#571 = DIRECTION ( 'NONE',  ( 0.000000000000000000, 0.000000000000000000, 1.000000000000000000 ) ) ;
#572 = ORIENTED_EDGE ( 'NONE', *, *, #376, .F. ) ;
#573 = LINE ( 'NONE', #771, #829 ) ;
#574 = EDGE_CURVE ( 'NONE', #607, #307, #193, .T. ) ;
#575 = CARTESIAN_POINT ( 'NONE',  ( -30.00000000000000000, -14.00000000000000000, 4.000000000000000000 ) ) ;
#576 = DIRECTION ( 'NONE',  ( 0.000000000000000000, 0.000000000000000000, 1.000000000000000000 ) ) ;
#577 = ORIENTED_EDGE ( 'NONE', *, *, #521, .F. ) ;
#578 = PLANE ( 'NONE',  #85 ) ;
#579 = CARTESIAN_POINT ( 'NONE',  ( -30.00000000000000000, -14.00000000000000000, 4.000000000000000000 ) ) ;
#580 = ORIENTED_EDGE ( 'NONE', *, *, #574, .F. ) ;
#581 = ORIENTED_EDGE ( 'NONE', *, *, #619, .T. ) ;
#582 = DIRECTION ( 'NONE',  ( 1.000000000000000000, 0.000000000000000000, 0.000000000000000000 ) ) ;
#583 = EDGE_CURVE ( 'NONE', #612, #217, #813, .T. ) ;
#584 = VERTEX_POINT ( 'NONE', #430 ) ;
#585 = EDGE_LOOP ( 'NONE', ( #103, #341, #475, #684 ) ) ;
#586 = AXIS2_PLACEMENT_3D ( 'NONE', #104, #381, #96 ) ;
#587 = AXIS2_PLACEMENT_3D ( 'NONE', #348, #526, #523 ) ;
#588 = APPROVAL_STATUS ( 'not_yet_approved' ) ;
#589 = DIRECTION ( 'NONE',  ( -0.000000000000000000, -0.000000000000000000, -1.000000000000000000 ) ) ;
#590 = ORIENTED_EDGE ( 'NONE', *, *, #713, .F. ) ;
#591 = AXIS2_PLACEMENT_3D ( 'NONE', #854, #457, #522 ) ;
#592 = APPLICATION_PROTOCOL_DEFINITION ( 'international standard', 'config_control_design', 1994, #263 ) ;
#593 = LINE ( 'NONE', #136, #27 ) ;
#594 = ORIENTED_EDGE ( 'NONE', *, *, #43, .T. ) ;
#595 = AXIS2_PLACEMENT_3D ( 'NONE', #502, #303, #440 ) ;
#596 = EDGE_CURVE ( 'NONE', #484, #271, #88, .T. ) ;
#597 = PRODUCT ( 'ARM-104_Elbow_bearing_cheek', 'ARM-104_Elbow_bearing_cheek', '', ( #782 ) ) ;
#598 =( LENGTH_UNIT ( ) NAMED_UNIT ( * ) SI_UNIT ( .MILLI., .METRE. ) );
#599 = DIRECTION ( 'NONE',  ( 1.000000000000000000, 0.000000000000000000, 0.000000000000000000 ) ) ;
#600 = ORIENTED_EDGE ( 'NONE', *, *, #306, .F. ) ;
#601 = EDGE_CURVE ( 'NONE', #785, #612, #130, .T. ) ;
#602 = DIRECTION ( 'NONE',  ( 0.000000000000000000, 0.000000000000000000, 1.000000000000000000 ) ) ;
#603 = EDGE_LOOP ( 'NONE', ( #699, #421, #108, #151, #316, #47, #538, #86 ) ) ;
#604 = VECTOR ( 'NONE', #657, 1000.000000000000000 ) ;
#605 = DIRECTION ( 'NONE',  ( -1.000000000000000000, 0.000000000000000000, 0.000000000000000000 ) ) ;
#606 = CARTESIAN_POINT ( 'NONE',  ( 9.000000000000000000, 1.102182119232617714E-15, 0.000000000000000000 ) ) ;
#607 = VERTEX_POINT ( 'NONE', #754 ) ;
#608 = CIRCLE ( 'NONE', #145, 11.09999999999999964 ) ;
#609 = PLANE ( 'NONE',  #462 ) ;
#610 = ADVANCED_FACE ( 'NONE', ( #72 ), #743, .F. ) ;
#611 = DIRECTION ( 'NONE',  ( 0.000000000000000000, 0.000000000000000000, 1.000000000000000000 ) ) ;
#612 = VERTEX_POINT ( 'NONE', #275 ) ;
#613 = PERSON ( 'UNSPECIFIED', 'UNSPECIFIED', 'UNSPECIFIED', ('UNSPECIFIED'), ('UNSPECIFIED'), ('UNSPECIFIED') ) ;
#614 = DIRECTION ( 'NONE',  ( -0.000000000000000000, -0.000000000000000000, -1.000000000000000000 ) ) ;
#615 = ORIENTED_EDGE ( 'NONE', *, *, #209, .F. ) ;
#616 = DIRECTION ( 'NONE',  ( -1.000000000000000000, 0.000000000000000000, 0.000000000000000000 ) ) ;
#617 = VECTOR ( 'NONE', #100, 1000.000000000000000 ) ;
#618 = CIRCLE ( 'NONE', #366, 17.00000000000000000 ) ;
#619 = EDGE_CURVE ( 'NONE', #385, #46, #146, .T. ) ;
#620 = CYLINDRICAL_SURFACE ( 'NONE', #396, 1.600000000000000755 ) ;
#621 = DIRECTION ( 'NONE',  ( -1.000000000000000000, 0.000000000000000000, 0.000000000000000000 ) ) ;
#622 = ORIENTED_EDGE ( 'NONE', *, *, #726, .F. ) ;
#623 = CARTESIAN_POINT ( 'NONE',  ( 0.000000000000000000, 0.000000000000000000, 7.000000000000000000 ) ) ;
#624 = DIRECTION ( 'NONE',  ( 0.000000000000000000, 0.000000000000000000, -1.000000000000000000 ) ) ;
#625 = VERTEX_POINT ( 'NONE', #683 ) ;
#626 = DIRECTION ( 'NONE',  ( -0.000000000000000000, -0.000000000000000000, -1.000000000000000000 ) ) ;
#627 = CARTESIAN_POINT ( 'NONE',  ( -9.643650760992956705, 14.00000000000000000, 0.000000000000000000 ) ) ;
#628 = DIRECTION ( 'NONE',  ( -1.000000000000000000, 0.000000000000000000, 0.000000000000000000 ) ) ;
#629 = VERTEX_POINT ( 'NONE', #150 ) ;
#630 = CIRCLE ( 'NONE', #61, 1.600000000000000755 ) ;
#631 = APPROVAL_PERSON_ORGANIZATION ( #533, #849, #792 ) ;
#632 = DIRECTION ( 'NONE',  ( -0.000000000000000000, -0.000000000000000000, -1.000000000000000000 ) ) ;
#633 = AXIS2_PLACEMENT_3D ( 'NONE', #392, #516, #232 ) ;
#634 = FACE_BOUND ( 'NONE', #73, .T. ) ;
#635 = DIRECTION ( 'NONE',  ( -1.000000000000000000, 0.000000000000000000, 0.000000000000000000 ) ) ;
#636 = ORIENTED_EDGE ( 'NONE', *, *, #665, .F. ) ;
#637 = ADVANCED_FACE ( 'NONE', ( #544 ), #370, .F. ) ;
#638 = CARTESIAN_POINT ( 'NONE',  ( 0.000000000000000000, 0.000000000000000000, 7.000000000000000000 ) ) ;
#639 = DIRECTION ( 'NONE',  ( -1.000000000000000000, 0.000000000000000000, 0.000000000000000000 ) ) ;
#640 = VERTEX_POINT ( 'NONE', #675 ) ;
#641 = LINE ( 'NONE', #239, #514 ) ;
#642 = FACE_OUTER_BOUND ( 'NONE', #781, .T. ) ;
#643 = VERTEX_POINT ( 'NONE', #497 ) ;
#644 = EDGE_CURVE ( 'NONE', #424, #385, #338, .T. ) ;
#645 = CARTESIAN_POINT ( 'NONE',  ( -30.00000000000000000, -14.00000000000000000, 0.000000000000000000 ) ) ;
#646 = AXIS2_PLACEMENT_3D ( 'NONE', #281, #548, #492 ) ;
#647 =( NAMED_UNIT ( * ) PLANE_ANGLE_UNIT ( ) SI_UNIT ( $, .RADIAN. ) );
#648 = ORIENTED_EDGE ( 'NONE', *, *, #238, .T. ) ;
#649 = VERTEX_POINT ( 'NONE', #423 ) ;
#650 = CALENDAR_DATE ( 2026, 7, 9 ) ;
#651 = PLANE ( 'NONE',  #508 ) ;
#652 = EDGE_LOOP ( 'NONE', ( #34, #527 ) ) ;
#653 = FACE_OUTER_BOUND ( 'NONE', #459, .T. ) ;
#654 = EDGE_LOOP ( 'NONE', ( #712, #493 ) ) ;
#655 = VECTOR ( 'NONE', #419, 1000.000000000000000 ) ;
#656 = PERSON_AND_ORGANIZATION ( #613, #449 ) ;
#657 = DIRECTION ( 'NONE',  ( 1.000000000000000000, 0.000000000000000000, 0.000000000000000000 ) ) ;
#658 = CIRCLE ( 'NONE', #595, 1.100000000000000311 ) ;
#659 = ORIENTED_EDGE ( 'NONE', *, *, #438, .F. ) ;
#660 = EDGE_CURVE ( 'NONE', #629, #167, #483, .T. ) ;
#661 = DIRECTION ( 'NONE',  ( 0.000000000000000000, 0.000000000000000000, -1.000000000000000000 ) ) ;
#662 = DIRECTION ( 'NONE',  ( 1.000000000000000000, 0.000000000000000000, 0.000000000000000000 ) ) ;
#663 = CARTESIAN_POINT ( 'NONE',  ( 9.000000000000000000, 1.102182119232617714E-15, -1.000000000000000000 ) ) ;
#664 = ORIENTED_EDGE ( 'NONE', *, *, #756, .T. ) ;
#665 = EDGE_CURVE ( 'NONE', #496, #154, #528, .T. ) ;
#666 = CARTESIAN_POINT ( 'NONE',  ( -26.60000000000000142, 9.000000000000000000, 4.000000000000000000 ) ) ;
#667 = EDGE_LOOP ( 'NONE', ( #141, #410, #2, #747 ) ) ;
#668 = EDGE_CURVE ( 'NONE', #46, #640, #608, .T. ) ;
#669 = MANIFOLD_SOLID_BREP ( 'Bearing_keeper_fasteners', #207 ) ;
#670 = CARTESIAN_POINT ( 'NONE',  ( -17.00000000000000000, 0.000000000000000000, 7.000000000000000000 ) ) ;
#671 = CARTESIAN_POINT ( 'NONE',  ( 0.000000000000000000, 0.000000000000000000, 0.000000000000000000 ) ) ;
#672 = EDGE_LOOP ( 'NONE', ( #810, #7 ) ) ;
#673 = VECTOR ( 'NONE', #228, 1000.000000000000000 ) ;
#674 = LINE ( 'NONE', #280, #717 ) ;
#675 = CARTESIAN_POINT ( 'NONE',  ( 11.09999999999999964, 1.359357947053562156E-15, 0.000000000000000000 ) ) ;
#676 = EDGE_LOOP ( 'NONE', ( #89, #418, #95, #569 ) ) ;
#677 = CARTESIAN_POINT ( 'NONE',  ( -1.100000000000000089, -14.00000000000000000, -1.000000000000000888 ) ) ;
#678 = ADVANCED_BREP_SHAPE_REPRESENTATION ( 'ARM-104_Elbow_bearing_cheek', ( #669, #591 ), #288 ) ;
#679 = FACE_BOUND ( 'NONE', #33, .T. ) ;
#680 = EDGE_LOOP ( 'NONE', ( #560, #744 ) ) ;
#681 = ADVANCED_FACE ( 'NONE', ( #559 ), #77, .F. ) ;
#682 = DIRECTION ( 'NONE',  ( 1.000000000000000000, 0.000000000000000000, 0.000000000000000000 ) ) ;
#683 = CARTESIAN_POINT ( 'NONE',  ( 17.00000000000000000, 2.081899558550500280E-15, -1.000000000000000000 ) ) ;
#684 = ORIENTED_EDGE ( 'NONE', *, *, #852, .F. ) ;
#685 = ADVANCED_FACE ( 'NONE', ( #809, #679, #216 ), #14, .F. ) ;
#686 = CARTESIAN_POINT ( 'NONE',  ( -9.000000000000000000, 0.000000000000000000, 0.000000000000000000 ) ) ;
#687 = AXIS2_PLACEMENT_3D ( 'NONE', #840, #389, #765 ) ;
#688 = FACE_BOUND ( 'NONE', #672, .T. ) ;
#689 = DIRECTION ( 'NONE',  ( 1.000000000000000000, 0.000000000000000000, 0.000000000000000000 ) ) ;
#690 = ORIENTED_EDGE ( 'NONE', *, *, #336, .T. ) ;
#691 = LINE ( 'NONE', #686, #617 ) ;
#692 = EDGE_CURVE ( 'NONE', #154, #38, #83, .T. ) ;
#693 = LINE ( 'NONE', #575, #767 ) ;
#694 = DIRECTION ( 'NONE',  ( 0.000000000000000000, 0.000000000000000000, -1.000000000000000000 ) ) ;
#695 = CARTESIAN_POINT ( 'NONE',  ( -9.643650760992956705, 14.00000000000000000, 7.000000000000000000 ) ) ;
#696 = EDGE_CURVE ( 'NONE', #822, #629, #466, .T. ) ;
#697 = DIRECTION ( 'NONE',  ( -1.000000000000000000, 0.000000000000000000, 0.000000000000000000 ) ) ;
#698 = CYLINDRICAL_SURFACE ( 'NONE', #219, 11.09999999999999964 ) ;
#699 = ORIENTED_EDGE ( 'NONE', *, *, #54, .F. ) ;
#700 = AXIS2_PLACEMENT_3D ( 'NONE', #344, #602, #277 ) ;
#701 = CC_DESIGN_APPROVAL ( #718, ( #488 ) ) ;
#702 = VECTOR ( 'NONE', #661, 1000.000000000000000 ) ;
#703 = AXIS2_PLACEMENT_3D ( 'NONE', #310, #315, #321 ) ;
#704 = VECTOR ( 'NONE', #30, 1000.000000000000000 ) ;
#705 = FACE_OUTER_BOUND ( 'NONE', #517, .T. ) ;
#706 = DIRECTION ( 'NONE',  ( -0.000000000000000000, -0.000000000000000000, -1.000000000000000000 ) ) ;
#707 = ORIENTED_EDGE ( 'NONE', *, *, #39, .T. ) ;
#708 = ADVANCED_FACE ( 'NONE', ( #495 ), #750, .F. ) ;
#709 = CARTESIAN_POINT ( 'NONE',  ( 0.000000000000000000, 14.00000000000000000, -1.000000000000000888 ) ) ;
#710 = DIRECTION ( 'NONE',  ( 0.000000000000000000, 0.000000000000000000, 1.000000000000000000 ) ) ;
#711 = ORIENTED_EDGE ( 'NONE', *, *, #692, .T. ) ;
#712 = ORIENTED_EDGE ( 'NONE', *, *, #400, .F. ) ;
#713 = EDGE_CURVE ( 'NONE', #584, #62, #399, .T. ) ;
#714 = DIRECTION ( 'NONE',  ( 0.000000000000000000, 0.000000000000000000, -1.000000000000000000 ) ) ;
#715 = APPROVAL_STATUS ( 'not_yet_approved' ) ;
#716 = CARTESIAN_POINT ( 'NONE',  ( -26.60000000000000142, 9.000000000000000000, 0.000000000000000000 ) ) ;
#717 = VECTOR ( 'NONE', #817, 1000.000000000000000 ) ;
#718 = APPROVAL ( #339, 'UNSPECIFIED' ) ;
#719 = CIRCLE ( 'NONE', #479, 1.600000000000000755 ) ;
#720 = CYLINDRICAL_SURFACE ( 'NONE', #587, 17.00000000000000000 ) ;
#721 = ORIENTED_EDGE ( 'NONE', *, *, #404, .T. ) ;
#722 = CIRCLE ( 'NONE', #847, 1.100000000000000089 ) ;
#723 = DIRECTION ( 'NONE',  ( 0.000000000000000000, 0.000000000000000000, 1.000000000000000000 ) ) ;
#724 = DIRECTION ( 'NONE',  ( -1.000000000000000000, 0.000000000000000000, 0.000000000000000000 ) ) ;
#725 = ORIENTED_EDGE ( 'NONE', *, *, #696, .F. ) ;
#726 = EDGE_CURVE ( 'NONE', #186, #625, #773, .T. ) ;
#727 = CARTESIAN_POINT ( 'NONE',  ( 0.000000000000000000, 0.000000000000000000, 0.000000000000000000 ) ) ;
#728 = ORIENTED_EDGE ( 'NONE', *, *, #644, .T. ) ;
#729 = PERSON_AND_ORGANIZATION ( #613, #449 ) ;
#730 = CARTESIAN_POINT ( 'NONE',  ( -30.00000000000000000, 14.00000000000000000, 0.000000000000000000 ) ) ;
#731 = AXIS2_PLACEMENT_3D ( 'NONE', #23, #805, #621 ) ;
#732 = ORIENTED_EDGE ( 'NONE', *, *, #692, .F. ) ;
#733 = ADVANCED_FACE ( 'NONE', ( #642, #166 ), #443, .T. ) ;
#734 = DIRECTION ( 'NONE',  ( 0.000000000000000000, -1.000000000000000000, 0.000000000000000000 ) ) ;
#735 = ORIENTED_EDGE ( 'NONE', *, *, #238, .F. ) ;
#736 = ADVANCED_FACE ( 'NONE', ( #107 ), #698, .F. ) ;
#737 = CALENDAR_DATE ( 2026, 7, 9 ) ;
#738 = CARTESIAN_POINT ( 'NONE',  ( -25.00000000000000000, -9.000000000000000000, 4.000000000000000000 ) ) ;
#739 = DIRECTION ( 'NONE',  ( 1.000000000000000000, 0.000000000000000000, 0.000000000000000000 ) ) ;
#740 = ORIENTED_EDGE ( 'NONE', *, *, #801, .T. ) ;
#741 = CC_DESIGN_PERSON_AND_ORGANIZATION_ASSIGNMENT ( #529, #255, ( #488 ) ) ;
#742 = DIRECTION ( 'NONE',  ( -1.000000000000000000, -0.000000000000000000, -0.000000000000000000 ) ) ;
#743 = CYLINDRICAL_SURFACE ( 'NONE', #35, 1.600000000000000755 ) ;
#744 = ORIENTED_EDGE ( 'NONE', *, *, #251, .F. ) ;
#745 = CIRCLE ( 'NONE', #703, 17.00000000000000000 ) ;
#746 = ADVANCED_FACE ( 'NONE', ( #452 ), #102, .F. ) ;
#747 = ORIENTED_EDGE ( 'NONE', *, *, #791, .T. ) ;
#748 = FACE_OUTER_BOUND ( 'NONE', #290, .T. ) ;
#749 = EDGE_CURVE ( 'NONE', #822, #470, #111, .T. ) ;
#750 = CYLINDRICAL_SURFACE ( 'NONE', #160, 11.09999999999999964 ) ;
#751 = ORIENTED_EDGE ( 'NONE', *, *, #39, .F. ) ;
#752 = APPLICATION_CONTEXT ( 'configuration controlled 3d designs of mechanical parts and assemblies' ) ;
#753 = CIRCLE ( 'NONE', #3, 1.600000000000000755 ) ;
#754 = CARTESIAN_POINT ( 'NONE',  ( 1.100000000000000089, -14.00000000000000000, -1.000000000000000888 ) ) ;
#755 = ORIENTED_EDGE ( 'NONE', *, *, #524, .T. ) ;
#756 = EDGE_CURVE ( 'NONE', #833, #351, #745, .T. ) ;
#757 = LINE ( 'NONE', #161, #704 ) ;
#758 = AXIS2_PLACEMENT_3D ( 'NONE', #179, #710, #236 ) ;
#759 = CYLINDRICAL_SURFACE ( 'NONE', #203, 1.100000000000000089 ) ;
#760 = DIRECTION ( 'NONE',  ( -0.000000000000000000, -0.000000000000000000, -1.000000000000000000 ) ) ;
#761 = CARTESIAN_POINT ( 'NONE',  ( 0.000000000000000000, -14.00000000000000000, 6.999999999999999112 ) ) ;
#762 = DIRECTION ( 'NONE',  ( 0.000000000000000000, 0.000000000000000000, -1.000000000000000000 ) ) ;
#763 = EDGE_CURVE ( 'NONE', #385, #424, #550, .T. ) ;
#764 = DIRECTION ( 'NONE',  ( -0.000000000000000000, -0.000000000000000000, -1.000000000000000000 ) ) ;
#765 = DIRECTION ( 'NONE',  ( 1.000000000000000000, 0.000000000000000000, 0.000000000000000000 ) ) ;
#766 = VERTEX_POINT ( 'NONE', #579 ) ;
#767 = VECTOR ( 'NONE', #101, 1000.000000000000000 ) ;
#768 = DIRECTION ( 'NONE',  ( 0.000000000000000000, 0.000000000000000000, -1.000000000000000000 ) ) ;
#769 = CARTESIAN_POINT ( 'NONE',  ( -23.40000000000000213, -9.000000000000000000, 4.000000000000000000 ) ) ;
#770 = DIRECTION ( 'NONE',  ( 0.000000000000000000, 0.000000000000000000, 1.000000000000000000 ) ) ;
#771 = CARTESIAN_POINT ( 'NONE',  ( -30.00000000000000000, 14.00000000000000000, 0.000000000000000000 ) ) ;
#772 = AXIS2_PLACEMENT_3D ( 'NONE', #570, #325, #518 ) ;
#773 = CIRCLE ( 'NONE', #633, 17.00000000000000000 ) ;
#774 = CC_DESIGN_APPROVAL ( #205, ( #812 ) ) ;
#775 = CARTESIAN_POINT ( 'NONE',  ( 11.09999999999999964, 1.359357947053562156E-15, 7.000000000000000000 ) ) ;
#776 = CARTESIAN_POINT ( 'NONE',  ( 12.90000000000000036, 0.000000000000000000, 6.999999999999999112 ) ) ;
#777 = ORIENTED_EDGE ( 'NONE', *, *, #749, .F. ) ;
#778 = FACE_BOUND ( 'NONE', #654, .T. ) ;
#779 = DIRECTION ( 'NONE',  ( 1.000000000000000000, 0.000000000000000000, 0.000000000000000000 ) ) ;
#780 = DIRECTION ( 'NONE',  ( 0.000000000000000000, 0.000000000000000000, 1.000000000000000000 ) ) ;
#781 = EDGE_LOOP ( 'NONE', ( #322, #648 ) ) ;
#782 = MECHANICAL_CONTEXT ( 'NONE', #752, 'mechanical' ) ;
#783 = DIRECTION ( 'NONE',  ( 0.000000000000000000, 0.000000000000000000, -1.000000000000000000 ) ) ;
#784 = CIRCLE ( 'NONE', #257, 1.100000000000000089 ) ;
#785 = VERTEX_POINT ( 'NONE', #845 ) ;
#786 = CIRCLE ( 'NONE', #142, 1.100000000000000089 ) ;
#787 = VECTOR ( 'NONE', #158, 1000.000000000000000 ) ;
#788 = DATE_AND_TIME ( #65, #17 ) ;
#789 = CARTESIAN_POINT ( 'NONE',  ( -17.00000000000000000, 0.000000000000000000, -1.000000000000000000 ) ) ;
#790 = ORIENTED_EDGE ( 'NONE', *, *, #291, .T. ) ;
#791 = EDGE_CURVE ( 'NONE', #470, #167, #337, .T. ) ;
#792 = APPROVAL_ROLE ( '' ) ;
#793 = CARTESIAN_POINT ( 'NONE',  ( -30.00000000000000000, -14.00000000000000000, 4.000000000000000000 ) ) ;
#794 = EDGE_LOOP ( 'NONE', ( #407, #327, #664, #535, #159 ) ) ;
#795 = COORDINATED_UNIVERSAL_TIME_OFFSET ( 6, 0, .BEHIND. ) ;
#796 = LINE ( 'NONE', #201, #382 ) ;
#797 = EDGE_LOOP ( 'NONE', ( #259, #279, #806, #777 ) ) ;
#798 = VECTOR ( 'NONE', #9, 1000.000000000000000 ) ;
#799 = DIRECTION ( 'NONE',  ( -0.000000000000000000, -0.000000000000000000, -1.000000000000000000 ) ) ;
#800 = AXIS2_PLACEMENT_3D ( 'NONE', #289, #818, #224 ) ;
#801 = EDGE_CURVE ( 'NONE', #351, #118, #835, .T. ) ;
#802 = ORIENTED_EDGE ( 'NONE', *, *, #283, .T. ) ;
#803 = COORDINATED_UNIVERSAL_TIME_OFFSET ( 6, 0, .BEHIND. ) ;
#804 = DIRECTION ( 'NONE',  ( 1.000000000000000000, 0.000000000000000000, 0.000000000000000000 ) ) ;
#805 = DIRECTION ( 'NONE',  ( 0.000000000000000000, 0.000000000000000000, -1.000000000000000000 ) ) ;
#806 = ORIENTED_EDGE ( 'NONE', *, *, #857, .T. ) ;
#807 = CARTESIAN_POINT ( 'NONE',  ( -25.00000000000000000, -9.000000000000000000, 6.999999999999999112 ) ) ;
#808 = CARTESIAN_POINT ( 'NONE',  ( -25.00000000000000000, 9.000000000000000000, 0.000000000000000000 ) ) ;
#809 = FACE_BOUND ( 'NONE', #311, .T. ) ;
#810 = ORIENTED_EDGE ( 'NONE', *, *, #364, .F. ) ;
#811 = AXIS2_PLACEMENT_3D ( 'NONE', #494, #353, #682 ) ;
#812 = PRODUCT_DEFINITION_FORMATION_WITH_SPECIFIED_SOURCE ( 'ANY', '', #597, .NOT_KNOWN. ) ;
#813 = LINE ( 'NONE', #606, #673 ) ;
#814 = ORIENTED_EDGE ( 'NONE', *, *, #181, .F. ) ;
#815 = CC_DESIGN_APPROVAL ( #849, ( #187 ) ) ;
#816 = ADVANCED_FACE ( 'NONE', ( #252 ), #561, .F. ) ;
#817 = DIRECTION ( 'NONE',  ( 0.000000000000000000, 0.000000000000000000, -1.000000000000000000 ) ) ;
#818 = DIRECTION ( 'NONE',  ( 0.000000000000000000, 0.000000000000000000, 1.000000000000000000 ) ) ;
#819 = ORIENTED_EDGE ( 'NONE', *, *, #213, .F. ) ;
#820 = FACE_OUTER_BOUND ( 'NONE', #556, .T. ) ;
#821 = DIRECTION ( 'NONE',  ( 0.000000000000000000, 0.000000000000000000, -1.000000000000000000 ) ) ;
#822 = VERTEX_POINT ( 'NONE', #240 ) ;
#823 = CYLINDRICAL_SURFACE ( 'NONE', #305, 1.100000000000000311 ) ;
#824 = CIRCLE ( 'NONE', #463, 1.600000000000000755 ) ;
#825 = DIRECTION ( 'NONE',  ( 1.000000000000000000, 0.000000000000000000, 0.000000000000000000 ) ) ;
#826 = EDGE_LOOP ( 'NONE', ( #124, #112, #453, #379 ) ) ;
#827 = EDGE_CURVE ( 'NONE', #431, #545, #489, .T. ) ;
#828 = CARTESIAN_POINT ( 'NONE',  ( 14.00000000000000000, 0.000000000000000000, 6.999999999999999112 ) ) ;
#829 = VECTOR ( 'NONE', #375, 1000.000000000000000 ) ;
#830 = FACE_BOUND ( 'NONE', #20, .T. ) ;
#831 = CARTESIAN_POINT ( 'NONE',  ( 14.00000000000000000, 0.000000000000000000, -1.000000000000000888 ) ) ;
#832 = ORIENTED_EDGE ( 'NONE', *, *, #227, .T. ) ;
#833 = VERTEX_POINT ( 'NONE', #183 ) ;
#834 = CARTESIAN_POINT ( 'NONE',  ( -30.00000000000000000, -14.00000000000000000, 0.000000000000000000 ) ) ;
#835 = LINE ( 'NONE', #28, #842 ) ;
#836 = VERTEX_POINT ( 'NONE', #769 ) ;
#837 = AXIS2_PLACEMENT_3D ( 'NONE', #59, #1, #204 ) ;
#838 = CARTESIAN_POINT ( 'NONE',  ( -17.00000000000000000, 0.000000000000000000, 7.000000000000000000 ) ) ;
#839 = DIRECTION ( 'NONE',  ( 1.000000000000000000, 0.000000000000000000, -0.000000000000000000 ) ) ;
#840 = CARTESIAN_POINT ( 'NONE',  ( 0.000000000000000000, 0.000000000000000000, 7.000000000000000000 ) ) ;
#841 = EDGE_LOOP ( 'NONE', ( #721, #511, #371, #732 ) ) ;
#842 = VECTOR ( 'NONE', #299, 1000.000000000000000 ) ;
#843 = EDGE_CURVE ( 'NONE', #38, #643, #719, .T. ) ;
#844 = DIRECTION ( 'NONE',  ( -0.000000000000000000, -0.000000000000000000, -1.000000000000000000 ) ) ;
#845 = CARTESIAN_POINT ( 'NONE',  ( -9.000000000000000000, 0.000000000000000000, 0.000000000000000000 ) ) ;
#846 = ORIENTED_EDGE ( 'NONE', *, *, #155, .T. ) ;
#847 = AXIS2_PLACEMENT_3D ( 'NONE', #761, #780, #503 ) ;
#848 = CARTESIAN_POINT ( 'NONE',  ( -1.100000000000000089, 14.00000000000000000, 6.999999999999999112 ) ) ;
#849 = APPROVAL ( #715, 'UNSPECIFIED' ) ;
#850 = APPLICATION_PROTOCOL_DEFINITION ( 'international standard', 'config_control_design', 1994, #752 ) ;
#851 = DIRECTION ( 'NONE',  ( -1.000000000000000000, 0.000000000000000000, 0.000000000000000000 ) ) ;
#852 = EDGE_CURVE ( 'NONE', #217, #531, #105, .T. ) ;
#853 = ORIENTED_EDGE ( 'NONE', *, *, #209, .T. ) ;
#854 = CARTESIAN_POINT ( 'NONE',  ( 0.000000000000000000, 0.000000000000000000, 0.000000000000000000 ) ) ;
#855 = LINE ( 'NONE', #258, #331 ) ;
#856 = VERTEX_POINT ( 'NONE', #163 ) ;
#857 = EDGE_CURVE ( 'NONE', #167, #470, #658, .T. ) ;
#858 = LINE ( 'NONE', #863, #702 ) ;
#859 = COORDINATED_UNIVERSAL_TIME_OFFSET ( 6, 0, .BEHIND. ) ;
#860 = LINE ( 'NONE', #123, #82 ) ;
#861 = ORIENTED_EDGE ( 'NONE', *, *, #843, .T. ) ;
#862 = EDGE_CURVE ( 'NONE', #478, #833, #249, .T. ) ;
#863 = CARTESIAN_POINT ( 'NONE',  ( -1.100000000000000089, -14.00000000000000000, 6.999999999999999112 ) ) ;
#864 = PERSON_AND_ORGANIZATION_ROLE ( 'creator' ) ;
#865 = FACE_OUTER_BOUND ( 'NONE', #826, .T. ) ;
#866 = ORIENTED_EDGE ( 'NONE', *, *, #213, .T. ) ;
#867 = EDGE_CURVE ( 'NONE', #531, #217, #412, .T. ) ;
#868 = APPROVAL_DATE_TIME ( #788, #205 ) ;
ENDSEC;
END-ISO-10303-21;
