ISO-10303-21;
HEADER;
FILE_DESCRIPTION (( 'STEP AP203' ),
    '1' );
FILE_NAME ('ARM-107_Dowel_to_608_adapter.step',
    '2026-09-08T03:29:28',
    ( '' ),
    ( '' ),
    'SwSTEP 2.0',
    'SolidWorks 2026',
    '' );
FILE_SCHEMA (( 'CONFIG_CONTROL_DESIGN' ));
ENDSEC;

DATA;
#1 = DATE_TIME_ROLE ( 'creation_date' ) ;
#2 = VERTEX_POINT ( 'NONE', #78 ) ;
#3 = ORIENTED_EDGE ( 'NONE', *, *, #185, .T. ) ;
#4 = CARTESIAN_POINT ( 'NONE',  ( 3.990000000000000657, 4.886340728597940063E-16, 7.000000000000000000 ) ) ;
#5 = ORIENTED_EDGE ( 'NONE', *, *, #14, .T. ) ;
#6 = CC_DESIGN_APPROVAL ( #33, ( #89 ) ) ;
#7 = ORIENTED_EDGE ( 'NONE', *, *, #180, .F. ) ;
#8 = PRODUCT_DEFINITION ( 'UNKNOWN', '', #89, #166 ) ;
#9 = DIRECTION ( 'NONE',  ( 1.000000000000000000, 0.000000000000000000, -0.000000000000000000 ) ) ;
#10 = DIRECTION ( 'NONE',  ( -0.000000000000000000, -0.000000000000000000, -1.000000000000000000 ) ) ;
#11 = AXIS2_PLACEMENT_3D ( 'NONE', #79, #233, #163 ) ;
#12 = VECTOR ( 'NONE', #202, 1000.000000000000000 ) ;
#13 = CARTESIAN_POINT ( 'NONE',  ( 3.225000000000000089, 3.949485927250214346E-16, 0.000000000000000000 ) ) ;
#14 = EDGE_CURVE ( 'NONE', #52, #118, #119, .T. ) ;
#15 = PERSON_AND_ORGANIZATION_ROLE ( 'creator' ) ;
#16 = LOCAL_TIME ( 22, 29, 28.00000000000000000, #192 ) ;
#17 = DIRECTION ( 'NONE',  ( 1.000000000000000000, 0.000000000000000000, 0.000000000000000000 ) ) ;
#18 = APPROVAL_ROLE ( '' ) ;
#19 = EDGE_LOOP ( 'NONE', ( #5, #216 ) ) ;
#20 = FACE_OUTER_BOUND ( 'NONE', #40, .T. ) ;
#21 = CIRCLE ( 'NONE', #63, 3.990000000000000657 ) ;
#22 = VERTEX_POINT ( 'NONE', #4 ) ;
#23 = ORIENTED_EDGE ( 'NONE', *, *, #14, .F. ) ;
#24 = ORIENTED_EDGE ( 'NONE', *, *, #224, .T. ) ;
#25 = SECURITY_CLASSIFICATION ( '', '', #210 ) ;
#26 = DIRECTION ( 'NONE',  ( 1.000000000000000000, 0.000000000000000000, 0.000000000000000000 ) ) ;
#27 = APPLICATION_CONTEXT ( 'configuration controlled 3d designs of mechanical parts and assemblies' ) ;
#28 = DIRECTION ( 'NONE',  ( 0.000000000000000000, 0.000000000000000000, 1.000000000000000000 ) ) ;
#29 = CIRCLE ( 'NONE', #95, 3.990000000000000657 ) ;
#30 = DIRECTION ( 'NONE',  ( -1.000000000000000000, 0.000000000000000000, 0.000000000000000000 ) ) ;
#31 = ADVANCED_FACE ( 'NONE', ( #59, #195 ), #144, .F. ) ;
#32 = COORDINATED_UNIVERSAL_TIME_OFFSET ( 6, 0, .BEHIND. ) ;
#33 = APPROVAL ( #94, 'UNSPECIFIED' ) ;
#34 = PERSON_AND_ORGANIZATION_ROLE ( 'classification_officer' ) ;
#35 = APPROVAL_DATE_TIME ( #228, #135 ) ;
#36 = CC_DESIGN_DATE_AND_TIME_ASSIGNMENT ( #247, #1, ( #8 ) ) ;
#37 = CIRCLE ( 'NONE', #183, 3.225000000000000089 ) ;
#38 = EDGE_CURVE ( 'NONE', #96, #22, #21, .T. ) ;
#39 = LINE ( 'NONE', #117, #209 ) ;
#40 = EDGE_LOOP ( 'NONE', ( #165, #184, #181, #7 ) ) ;
#41 = CYLINDRICAL_SURFACE ( 'NONE', #97, 3.225000000000000089 ) ;
#42 = ORIENTED_EDGE ( 'NONE', *, *, #235, .T. ) ;
#43 = CARTESIAN_POINT ( 'NONE',  ( 0.000000000000000000, 0.000000000000000000, 0.000000000000000000 ) ) ;
#44 = VECTOR ( 'NONE', #201, 1000.000000000000000 ) ;
#45 = DIRECTION ( 'NONE',  ( 1.000000000000000000, 0.000000000000000000, 0.000000000000000000 ) ) ;
#46 = DIRECTION ( 'NONE',  ( 1.000000000000000000, 0.000000000000000000, 0.000000000000000000 ) ) ;
#47 = FACE_OUTER_BOUND ( 'NONE', #81, .T. ) ;
#48 = AXIS2_PLACEMENT_3D ( 'NONE', #133, #132, #188 ) ;
#49 = DIRECTION ( 'NONE',  ( 0.000000000000000000, 0.000000000000000000, 1.000000000000000000 ) ) ;
#50 = CALENDAR_DATE ( 2026, 7, 9 ) ;
#51 = APPROVAL_STATUS ( 'not_yet_approved' ) ;
#52 = VERTEX_POINT ( 'NONE', #217 ) ;
#53 = ADVANCED_FACE ( 'NONE', ( #20 ), #41, .F. ) ;
#54 = DATE_AND_TIME ( #208, #16 ) ;
#55 = LOCAL_TIME ( 22, 29, 28.00000000000000000, #156 ) ;
#56 = ORIENTED_EDGE ( 'NONE', *, *, #61, .T. ) ;
#57 = ORIENTED_EDGE ( 'NONE', *, *, #224, .F. ) ;
#58 = CARTESIAN_POINT ( 'NONE',  ( 0.000000000000000000, 0.000000000000000000, 7.000000000000000000 ) ) ;
#59 = FACE_OUTER_BOUND ( 'NONE', #145, .T. ) ;
#60 = ORIENTED_EDGE ( 'NONE', *, *, #74, .F. ) ;
#61 = EDGE_CURVE ( 'NONE', #22, #200, #39, .T. ) ;
#62 = CARTESIAN_POINT ( 'NONE',  ( 0.000000000000000000, 0.000000000000000000, 7.000000000000000000 ) ) ;
#63 = AXIS2_PLACEMENT_3D ( 'NONE', #58, #230, #214 ) ;
#64 =( NAMED_UNIT ( * ) PLANE_ANGLE_UNIT ( ) SI_UNIT ( $, .RADIAN. ) );
#65 = DIRECTION ( 'NONE',  ( 1.000000000000000000, 0.000000000000000000, 0.000000000000000000 ) ) ;
#66 = CARTESIAN_POINT ( 'NONE',  ( 0.000000000000000000, 0.000000000000000000, 0.000000000000000000 ) ) ;
#67 = APPROVAL_PERSON_ORGANIZATION ( #138, #33, #76 ) ;
#68 = DIRECTION ( 'NONE',  ( -0.000000000000000000, -0.000000000000000000, -1.000000000000000000 ) ) ;
#69 = AXIS2_PLACEMENT_3D ( 'NONE', #87, #68, #30 ) ;
#70 = PERSON_AND_ORGANIZATION ( #148, #190 ) ;
#71 = PERSON_AND_ORGANIZATION_ROLE ( 'design_supplier' ) ;
#72 = CIRCLE ( 'NONE', #246, 3.990000000000000657 ) ;
#73 = CIRCLE ( 'NONE', #86, 3.990000000000000657 ) ;
#74 = EDGE_CURVE ( 'NONE', #2, #100, #249, .T. ) ;
#75 = APPLICATION_CONTEXT ( 'configuration controlled 3d designs of mechanical parts and assemblies' ) ;
#76 = APPROVAL_ROLE ( '' ) ;
#77 = DIRECTION ( 'NONE',  ( -0.000000000000000000, -0.000000000000000000, -1.000000000000000000 ) ) ;
#78 = CARTESIAN_POINT ( 'NONE',  ( 3.225000000000000089, 3.949485927250214346E-16, 7.000000000000000000 ) ) ;
#79 = CARTESIAN_POINT ( 'NONE',  ( 0.000000000000000000, 0.000000000000000000, 0.000000000000000000 ) ) ;
#80 = ORIENTED_EDGE ( 'NONE', *, *, #38, .T. ) ;
#81 = EDGE_LOOP ( 'NONE', ( #157, #56, #164, #57 ) ) ;
#82 = DIRECTION ( 'NONE',  ( -1.000000000000000000, 0.000000000000000000, 0.000000000000000000 ) ) ;
#83 = AXIS2_PLACEMENT_3D ( 'NONE', #146, #129, #9 ) ;
#84 = CLOSED_SHELL ( 'NONE', ( #121, #111, #140, #31, #116, #53 ) ) ;
#85 = FACE_OUTER_BOUND ( 'NONE', #141, .T. ) ;
#86 = AXIS2_PLACEMENT_3D ( 'NONE', #187, #203, #65 ) ;
#87 = CARTESIAN_POINT ( 'NONE',  ( 0.000000000000000000, 0.000000000000000000, 7.000000000000000000 ) ) ;
#88 = FACE_OUTER_BOUND ( 'NONE', #98, .T. ) ;
#89 = PRODUCT_DEFINITION_FORMATION_WITH_SPECIFIED_SOURCE ( 'ANY', '', #91, .NOT_KNOWN. ) ;
#90 = PERSON_AND_ORGANIZATION ( #148, #190 ) ;
#91 = PRODUCT ( 'ARM-107_Dowel_to_608_adapter', 'ARM-107_Dowel_to_608_adapter', '', ( #211 ) ) ;
#92 = DIRECTION ( 'NONE',  ( 0.000000000000000000, 0.000000000000000000, 1.000000000000000000 ) ) ;
#93 = APPROVAL_STATUS ( 'not_yet_approved' ) ;
#94 = APPROVAL_STATUS ( 'not_yet_approved' ) ;
#95 = AXIS2_PLACEMENT_3D ( 'NONE', #66, #169, #237 ) ;
#96 = VERTEX_POINT ( 'NONE', #122 ) ;
#97 = AXIS2_PLACEMENT_3D ( 'NONE', #178, #77, #162 ) ;
#98 = EDGE_LOOP ( 'NONE', ( #80, #3 ) ) ;
#99 = ORIENTED_EDGE ( 'NONE', *, *, #61, .F. ) ;
#100 = VERTEX_POINT ( 'NONE', #222 ) ;
#101 = APPROVAL_PERSON_ORGANIZATION ( #70, #105, #18 ) ;
#102 = CC_DESIGN_DATE_AND_TIME_ASSIGNMENT ( #136, #243, ( #25 ) ) ;
#103 = FACE_OUTER_BOUND ( 'NONE', #142, .T. ) ;
#104 =( LENGTH_UNIT ( ) NAMED_UNIT ( * ) SI_UNIT ( .MILLI., .METRE. ) );
#105 = APPROVAL ( #93, 'UNSPECIFIED' ) ;
#106 = LINE ( 'NONE', #238, #212 ) ;
#107 = CARTESIAN_POINT ( 'NONE',  ( 3.990000000000000657, 4.886340728597940063E-16, 0.000000000000000000 ) ) ;
#108 = DIRECTION ( 'NONE',  ( -0.000000000000000000, -0.000000000000000000, -1.000000000000000000 ) ) ;
#109 = COORDINATED_UNIVERSAL_TIME_OFFSET ( 6, 0, .BEHIND. ) ;
#110 = CALENDAR_DATE ( 2026, 7, 9 ) ;
#111 = ADVANCED_FACE ( 'NONE', ( #47 ), #172, .T. ) ;
#112 = COORDINATED_UNIVERSAL_TIME_OFFSET ( 6, 0, .BEHIND. ) ;
#113 = APPROVAL_ROLE ( '' ) ;
#114 = LOCAL_TIME ( 22, 29, 28.00000000000000000, #109 ) ;
#115 = PERSON_AND_ORGANIZATION ( #148, #190 ) ;
#116 = ADVANCED_FACE ( 'NONE', ( #85 ), #241, .T. ) ;
#117 = CARTESIAN_POINT ( 'NONE',  ( 3.990000000000000657, 4.886340728597940063E-16, 7.000000000000000000 ) ) ;
#118 = VERTEX_POINT ( 'NONE', #13 ) ;
#119 = CIRCLE ( 'NONE', #191, 3.225000000000000089 ) ;
#120 = CARTESIAN_POINT ( 'NONE',  ( 0.000000000000000000, 0.000000000000000000, 7.000000000000000000 ) ) ;
#121 = ADVANCED_FACE ( 'NONE', ( #103 ), #206, .F. ) ;
#122 = CARTESIAN_POINT ( 'NONE',  ( -3.990000000000000657, 0.000000000000000000, 7.000000000000000000 ) ) ;
#123 = ORIENTED_EDGE ( 'NONE', *, *, #154, .F. ) ;
#124 = CC_DESIGN_SECURITY_CLASSIFICATION ( #25, ( #89 ) ) ;
#125 = ADVANCED_BREP_SHAPE_REPRESENTATION ( 'ARM-107_Dowel_to_608_adapter', ( #130, #159 ), #193 ) ;
#126 = LINE ( 'NONE', #150, #44 ) ;
#127 = CC_DESIGN_PERSON_AND_ORGANIZATION_ASSIGNMENT ( #90, #71, ( #89 ) ) ;
#128 = EDGE_CURVE ( 'NONE', #100, #2, #213, .T. ) ;
#129 = DIRECTION ( 'NONE',  ( 0.000000000000000000, 0.000000000000000000, 1.000000000000000000 ) ) ;
#130 = MANIFOLD_SOLID_BREP ( 'Adapter_8OD_6p45ID', #84 ) ;
#131 = UNCERTAINTY_MEASURE_WITH_UNIT (LENGTH_MEASURE( 1.000000000000000082E-05 ), #104, 'distance_accuracy_value', 'NONE');
#132 = DIRECTION ( 'NONE',  ( -0.000000000000000000, -0.000000000000000000, -1.000000000000000000 ) ) ;
#133 = CARTESIAN_POINT ( 'NONE',  ( 0.000000000000000000, 0.000000000000000000, 7.000000000000000000 ) ) ;
#134 = PERSON_AND_ORGANIZATION ( #148, #190 ) ;
#135 = APPROVAL ( #51, 'UNSPECIFIED' ) ;
#136 = DATE_AND_TIME ( #50, #229 ) ;
#137 = PERSON_AND_ORGANIZATION ( #148, #190 ) ;
#138 = PERSON_AND_ORGANIZATION ( #148, #190 ) ;
#139 = CC_DESIGN_APPROVAL ( #135, ( #8 ) ) ;
#140 = ADVANCED_FACE ( 'NONE', ( #88, #225 ), #240, .T. ) ;
#141 = EDGE_LOOP ( 'NONE', ( #99, #179, #24, #236 ) ) ;
#142 = EDGE_LOOP ( 'NONE', ( #196, #42, #23, #219 ) ) ;
#143 = DIRECTION ( 'NONE',  ( 0.000000000000000000, 0.000000000000000000, 1.000000000000000000 ) ) ;
#144 = PLANE ( 'NONE',  #11 ) ;
#145 = EDGE_LOOP ( 'NONE', ( #123, #198 ) ) ;
#146 = CARTESIAN_POINT ( 'NONE',  ( 0.000000000000000000, 0.000000000000000000, 7.000000000000000000 ) ) ;
#147 = DIRECTION ( 'NONE',  ( 1.000000000000000000, 0.000000000000000000, 0.000000000000000000 ) ) ;
#148 = PERSON ( 'UNSPECIFIED', 'UNSPECIFIED', 'UNSPECIFIED', ('UNSPECIFIED'), ('UNSPECIFIED'), ('UNSPECIFIED') ) ;
#149 = CARTESIAN_POINT ( 'NONE',  ( -3.225000000000000089, 0.000000000000000000, 7.000000000000000000 ) ) ;
#150 = CARTESIAN_POINT ( 'NONE',  ( -3.990000000000000657, 0.000000000000000000, 7.000000000000000000 ) ) ;
#151 = LOCAL_TIME ( 22, 29, 28.00000000000000000, #32 ) ;
#152 = CARTESIAN_POINT ( 'NONE',  ( 0.000000000000000000, 0.000000000000000000, 7.000000000000000000 ) ) ;
#153 = DATE_AND_TIME ( #110, #151 ) ;
#154 = EDGE_CURVE ( 'NONE', #182, #200, #29, .T. ) ;
#155 = AXIS2_PLACEMENT_3D ( 'NONE', #120, #197, #231 ) ;
#156 = COORDINATED_UNIVERSAL_TIME_OFFSET ( 6, 0, .BEHIND. ) ;
#157 = ORIENTED_EDGE ( 'NONE', *, *, #185, .F. ) ;
#158 = PERSON_AND_ORGANIZATION_ROLE ( 'creator' ) ;
#159 = AXIS2_PLACEMENT_3D ( 'NONE', #226, #92, #17 ) ;
#160 = CC_DESIGN_PERSON_AND_ORGANIZATION_ASSIGNMENT ( #194, #34, ( #25 ) ) ;
#161 = EDGE_CURVE ( 'NONE', #200, #182, #73, .T. ) ;
#162 = DIRECTION ( 'NONE',  ( -1.000000000000000000, 0.000000000000000000, 0.000000000000000000 ) ) ;
#163 = DIRECTION ( 'NONE',  ( 1.000000000000000000, 0.000000000000000000, -0.000000000000000000 ) ) ;
#164 = ORIENTED_EDGE ( 'NONE', *, *, #161, .T. ) ;
#165 = ORIENTED_EDGE ( 'NONE', *, *, #235, .F. ) ;
#166 = DESIGN_CONTEXT ( 'detailed design', #75, 'design' ) ;
#167 = CC_DESIGN_PERSON_AND_ORGANIZATION_ASSIGNMENT ( #134, #176, ( #91 ) ) ;
#168 = ORIENTED_EDGE ( 'NONE', *, *, #128, .F. ) ;
#169 = DIRECTION ( 'NONE',  ( 0.000000000000000000, 0.000000000000000000, 1.000000000000000000 ) ) ;
#170 = CARTESIAN_POINT ( 'NONE',  ( -3.990000000000000657, 0.000000000000000000, 0.000000000000000000 ) ) ;
#171 = APPLICATION_PROTOCOL_DEFINITION ( 'international standard', 'config_control_design', 1994, #27 ) ;
#172 = CYLINDRICAL_SURFACE ( 'NONE', #48, 3.990000000000000657 ) ;
#173 = CALENDAR_DATE ( 2026, 7, 9 ) ;
#174 = CALENDAR_DATE ( 2026, 7, 9 ) ;
#175 = SHAPE_DEFINITION_REPRESENTATION ( #207, #125 ) ;
#176 = PERSON_AND_ORGANIZATION_ROLE ( 'design_owner' ) ;
#177 = EDGE_CURVE ( 'NONE', #100, #52, #221, .T. ) ;
#178 = CARTESIAN_POINT ( 'NONE',  ( 0.000000000000000000, 0.000000000000000000, 7.000000000000000000 ) ) ;
#179 = ORIENTED_EDGE ( 'NONE', *, *, #38, .F. ) ;
#180 = EDGE_CURVE ( 'NONE', #118, #52, #37, .T. ) ;
#181 = ORIENTED_EDGE ( 'NONE', *, *, #177, .T. ) ;
#182 = VERTEX_POINT ( 'NONE', #170 ) ;
#183 = AXIS2_PLACEMENT_3D ( 'NONE', #205, #28, #147 ) ;
#184 = ORIENTED_EDGE ( 'NONE', *, *, #74, .T. ) ;
#185 = EDGE_CURVE ( 'NONE', #22, #96, #72, .T. ) ;
#186 = CARTESIAN_POINT ( 'NONE',  ( 0.000000000000000000, 0.000000000000000000, 7.000000000000000000 ) ) ;
#187 = CARTESIAN_POINT ( 'NONE',  ( 0.000000000000000000, 0.000000000000000000, 0.000000000000000000 ) ) ;
#188 = DIRECTION ( 'NONE',  ( -1.000000000000000000, 0.000000000000000000, 0.000000000000000000 ) ) ;
#189 = PERSON_AND_ORGANIZATION ( #148, #190 ) ;
#190 = ORGANIZATION ( 'UNSPECIFIED', 'UNSPECIFIED', '' ) ;
#191 = AXIS2_PLACEMENT_3D ( 'NONE', #43, #143, #26 ) ;
#192 = COORDINATED_UNIVERSAL_TIME_OFFSET ( 6, 0, .BEHIND. ) ;
#193 =( GEOMETRIC_REPRESENTATION_CONTEXT ( 3 ) GLOBAL_UNCERTAINTY_ASSIGNED_CONTEXT ( ( #131 ) ) GLOBAL_UNIT_ASSIGNED_CONTEXT ( ( #104, #64, #239 ) ) REPRESENTATION_CONTEXT ( 'NONE', 'WORKASPACE' ) );
#194 = PERSON_AND_ORGANIZATION ( #148, #190 ) ;
#195 = FACE_BOUND ( 'NONE', #19, .T. ) ;
#196 = ORIENTED_EDGE ( 'NONE', *, *, #128, .T. ) ;
#197 = DIRECTION ( 'NONE',  ( 0.000000000000000000, 0.000000000000000000, 1.000000000000000000 ) ) ;
#198 = ORIENTED_EDGE ( 'NONE', *, *, #161, .F. ) ;
#199 = CC_DESIGN_APPROVAL ( #105, ( #25 ) ) ;
#200 = VERTEX_POINT ( 'NONE', #107 ) ;
#201 = DIRECTION ( 'NONE',  ( -0.000000000000000000, -0.000000000000000000, -1.000000000000000000 ) ) ;
#202 = DIRECTION ( 'NONE',  ( -0.000000000000000000, -0.000000000000000000, -1.000000000000000000 ) ) ;
#203 = DIRECTION ( 'NONE',  ( 0.000000000000000000, 0.000000000000000000, 1.000000000000000000 ) ) ;
#204 = AXIS2_PLACEMENT_3D ( 'NONE', #152, #108, #82 ) ;
#205 = CARTESIAN_POINT ( 'NONE',  ( 0.000000000000000000, 0.000000000000000000, 0.000000000000000000 ) ) ;
#206 = CYLINDRICAL_SURFACE ( 'NONE', #204, 3.225000000000000089 ) ;
#207 = PRODUCT_DEFINITION_SHAPE ( 'NONE', 'NONE',  #8 ) ;
#208 = CALENDAR_DATE ( 2026, 7, 9 ) ;
#209 = VECTOR ( 'NONE', #218, 1000.000000000000000 ) ;
#210 = SECURITY_CLASSIFICATION_LEVEL ( 'unclassified' ) ;
#211 = MECHANICAL_CONTEXT ( 'NONE', #27, 'mechanical' ) ;
#212 = VECTOR ( 'NONE', #10, 1000.000000000000000 ) ;
#213 = CIRCLE ( 'NONE', #242, 3.225000000000000089 ) ;
#214 = DIRECTION ( 'NONE',  ( 1.000000000000000000, 0.000000000000000000, 0.000000000000000000 ) ) ;
#215 = PRODUCT_RELATED_PRODUCT_CATEGORY ( 'detail', '', ( #91 ) ) ;
#216 = ORIENTED_EDGE ( 'NONE', *, *, #180, .T. ) ;
#217 = CARTESIAN_POINT ( 'NONE',  ( -3.225000000000000089, 0.000000000000000000, 0.000000000000000000 ) ) ;
#218 = DIRECTION ( 'NONE',  ( -0.000000000000000000, -0.000000000000000000, -1.000000000000000000 ) ) ;
#219 = ORIENTED_EDGE ( 'NONE', *, *, #177, .F. ) ;
#220 = DIRECTION ( 'NONE',  ( 0.000000000000000000, 0.000000000000000000, 1.000000000000000000 ) ) ;
#221 = LINE ( 'NONE', #149, #12 ) ;
#222 = CARTESIAN_POINT ( 'NONE',  ( -3.225000000000000089, 0.000000000000000000, 7.000000000000000000 ) ) ;
#223 = APPROVAL_PERSON_ORGANIZATION ( #137, #135, #113 ) ;
#224 = EDGE_CURVE ( 'NONE', #96, #182, #126, .T. ) ;
#225 = FACE_BOUND ( 'NONE', #232, .T. ) ;
#226 = CARTESIAN_POINT ( 'NONE',  ( 0.000000000000000000, 0.000000000000000000, 0.000000000000000000 ) ) ;
#227 = APPROVAL_DATE_TIME ( #54, #33 ) ;
#228 = DATE_AND_TIME ( #173, #114 ) ;
#229 = LOCAL_TIME ( 22, 29, 28.00000000000000000, #112 ) ;
#230 = DIRECTION ( 'NONE',  ( 0.000000000000000000, 0.000000000000000000, 1.000000000000000000 ) ) ;
#231 = DIRECTION ( 'NONE',  ( 1.000000000000000000, 0.000000000000000000, 0.000000000000000000 ) ) ;
#232 = EDGE_LOOP ( 'NONE', ( #168, #60 ) ) ;
#233 = DIRECTION ( 'NONE',  ( 0.000000000000000000, 0.000000000000000000, 1.000000000000000000 ) ) ;
#234 = CC_DESIGN_PERSON_AND_ORGANIZATION_ASSIGNMENT ( #115, #158, ( #89 ) ) ;
#235 = EDGE_CURVE ( 'NONE', #2, #118, #106, .T. ) ;
#236 = ORIENTED_EDGE ( 'NONE', *, *, #154, .T. ) ;
#237 = DIRECTION ( 'NONE',  ( 1.000000000000000000, 0.000000000000000000, 0.000000000000000000 ) ) ;
#238 = CARTESIAN_POINT ( 'NONE',  ( 3.225000000000000089, 3.949485927250214346E-16, 7.000000000000000000 ) ) ;
#239 =( NAMED_UNIT ( * ) SI_UNIT ( $, .STERADIAN. ) SOLID_ANGLE_UNIT ( ) );
#240 = PLANE ( 'NONE',  #83 ) ;
#241 = CYLINDRICAL_SURFACE ( 'NONE', #69, 3.990000000000000657 ) ;
#242 = AXIS2_PLACEMENT_3D ( 'NONE', #186, #49, #46 ) ;
#243 = DATE_TIME_ROLE ( 'classification_date' ) ;
#244 = APPLICATION_PROTOCOL_DEFINITION ( 'international standard', 'config_control_design', 1994, #75 ) ;
#245 = CC_DESIGN_PERSON_AND_ORGANIZATION_ASSIGNMENT ( #189, #15, ( #8 ) ) ;
#246 = AXIS2_PLACEMENT_3D ( 'NONE', #62, #220, #45 ) ;
#247 = DATE_AND_TIME ( #174, #55 ) ;
#248 = APPROVAL_DATE_TIME ( #153, #105 ) ;
#249 = CIRCLE ( 'NONE', #155, 3.225000000000000089 ) ;
ENDSEC;
END-ISO-10303-21;
