ISO-10303-21;
HEADER;
FILE_DESCRIPTION (( 'STEP AP203' ),
    '1' );
FILE_NAME ('ARM-106_M3_standoff_28p6mm.step',
    '2026-09-09T03:19:24',
    ( '' ),
    ( '' ),
    'SwSTEP 2.0',
    'SolidWorks 2026',
    '' );
FILE_SCHEMA (( 'CONFIG_CONTROL_DESIGN' ));
ENDSEC;

DATA;
#1 = CARTESIAN_POINT ( 'NONE',  ( 1.600000000000000089, 1.959434878635765230E-16, 28.60000000000000142 ) ) ;
#2 = SECURITY_CLASSIFICATION ( '', '', #216 ) ;
#3 = ADVANCED_FACE ( 'NONE', ( #29 ), #126, .T. ) ;
#4 = DATE_TIME_ROLE ( 'creation_date' ) ;
#5 = CARTESIAN_POINT ( 'NONE',  ( 0.000000000000000000, 0.000000000000000000, 0.000000000000000000 ) ) ;
#6 = AXIS2_PLACEMENT_3D ( 'NONE', #242, #107, #184 ) ;
#7 = EDGE_CURVE ( 'NONE', #244, #199, #16, .T. ) ;
#8 = PERSON_AND_ORGANIZATION ( #240, #202 ) ;
#9 = EDGE_LOOP ( 'NONE', ( #205, #124, #14, #46 ) ) ;
#10 = DIRECTION ( 'NONE',  ( 0.000000000000000000, 0.000000000000000000, 1.000000000000000000 ) ) ;
#11 = APPROVAL ( #212, 'UNSPECIFIED' ) ;
#12 = ORIENTED_EDGE ( 'NONE', *, *, #186, .T. ) ;
#13 = CARTESIAN_POINT ( 'NONE',  ( 0.000000000000000000, 0.000000000000000000, 28.60000000000000142 ) ) ;
#14 = ORIENTED_EDGE ( 'NONE', *, *, #137, .T. ) ;
#15 = MANIFOLD_SOLID_BREP ( 'Standoff_OD8_ID3p2', #133 ) ;
#16 = CIRCLE ( 'NONE', #113, 1.600000000000000089 ) ;
#17 = CARTESIAN_POINT ( 'NONE',  ( -4.000000000000000000, 0.000000000000000000, 28.60000000000000142 ) ) ;
#18 = DIRECTION ( 'NONE',  ( -1.000000000000000000, 0.000000000000000000, 0.000000000000000000 ) ) ;
#19 = DIRECTION ( 'NONE',  ( -0.000000000000000000, -0.000000000000000000, -1.000000000000000000 ) ) ;
#20 = APPROVAL_DATE_TIME ( #76, #37 ) ;
#21 = AXIS2_PLACEMENT_3D ( 'NONE', #230, #111, #92 ) ;
#22 = CC_DESIGN_PERSON_AND_ORGANIZATION_ASSIGNMENT ( #192, #211, ( #136 ) ) ;
#23 = APPROVAL_STATUS ( 'not_yet_approved' ) ;
#24 = APPROVAL_DATE_TIME ( #178, #11 ) ;
#25 = ADVANCED_FACE ( 'NONE', ( #150, #166 ), #31, .T. ) ;
#26 = ORIENTED_EDGE ( 'NONE', *, *, #7, .F. ) ;
#27 = DIRECTION ( 'NONE',  ( -0.000000000000000000, -0.000000000000000000, -1.000000000000000000 ) ) ;
#28 = CALENDAR_DATE ( 2026, 8, 9 ) ;
#29 = FACE_OUTER_BOUND ( 'NONE', #181, .T. ) ;
#30 =( GEOMETRIC_REPRESENTATION_CONTEXT ( 3 ) GLOBAL_UNCERTAINTY_ASSIGNED_CONTEXT ( ( #39 ) ) GLOBAL_UNIT_ASSIGNED_CONTEXT ( ( #40, #225, #226 ) ) REPRESENTATION_CONTEXT ( 'NONE', 'WORKASPACE' ) );
#31 = PLANE ( 'NONE',  #195 ) ;
#32 = ORIENTED_EDGE ( 'NONE', *, *, #214, .T. ) ;
#33 = LINE ( 'NONE', #57, #152 ) ;
#34 = ADVANCED_FACE ( 'NONE', ( #128, #47 ), #203, .F. ) ;
#35 = CARTESIAN_POINT ( 'NONE',  ( 4.000000000000000000, 4.898587196589412829E-16, 28.60000000000000142 ) ) ;
#36 = DIRECTION ( 'NONE',  ( -1.000000000000000000, 0.000000000000000000, 0.000000000000000000 ) ) ;
#37 = APPROVAL ( #23, 'UNSPECIFIED' ) ;
#38 = CYLINDRICAL_SURFACE ( 'NONE', #245, 1.600000000000000089 ) ;
#39 = UNCERTAINTY_MEASURE_WITH_UNIT (LENGTH_MEASURE( 1.000000000000000082E-05 ), #40, 'distance_accuracy_value', 'NONE');
#40 =( LENGTH_UNIT ( ) NAMED_UNIT ( * ) SI_UNIT ( .MILLI., .METRE. ) );
#41 = AXIS2_PLACEMENT_3D ( 'NONE', #75, #19, #69 ) ;
#42 = CALENDAR_DATE ( 2026, 8, 9 ) ;
#43 = SHAPE_DEFINITION_REPRESENTATION ( #168, #97 ) ;
#44 = EDGE_CURVE ( 'NONE', #239, #67, #233, .T. ) ;
#45 = PERSON_AND_ORGANIZATION_ROLE ( 'classification_officer' ) ;
#46 = ORIENTED_EDGE ( 'NONE', *, *, #82, .T. ) ;
#47 = FACE_BOUND ( 'NONE', #101, .T. ) ;
#48 = CALENDAR_DATE ( 2026, 8, 9 ) ;
#49 = CARTESIAN_POINT ( 'NONE',  ( 1.600000000000000089, 1.959434878635765230E-16, 0.000000000000000000 ) ) ;
#50 = ORIENTED_EDGE ( 'NONE', *, *, #116, .T. ) ;
#51 = CC_DESIGN_APPROVAL ( #37, ( #238 ) ) ;
#52 = EDGE_LOOP ( 'NONE', ( #104, #26 ) ) ;
#53 = DIRECTION ( 'NONE',  ( 0.000000000000000000, 0.000000000000000000, 1.000000000000000000 ) ) ;
#54 = AXIS2_PLACEMENT_3D ( 'NONE', #5, #200, #96 ) ;
#55 = LINE ( 'NONE', #17, #180 ) ;
#56 = CC_DESIGN_PERSON_AND_ORGANIZATION_ASSIGNMENT ( #176, #179, ( #238 ) ) ;
#57 = CARTESIAN_POINT ( 'NONE',  ( 1.600000000000000089, 1.959434878635765230E-16, 28.60000000000000142 ) ) ;
#58 = DIRECTION ( 'NONE',  ( 1.000000000000000000, 0.000000000000000000, 0.000000000000000000 ) ) ;
#59 = CALENDAR_DATE ( 2026, 8, 9 ) ;
#60 = VECTOR ( 'NONE', #249, 1000.000000000000000 ) ;
#61 = APPROVAL_PERSON_ORGANIZATION ( #236, #11, #119 ) ;
#62 = CALENDAR_DATE ( 2026, 8, 9 ) ;
#63 = ORIENTED_EDGE ( 'NONE', *, *, #82, .F. ) ;
#64 = VECTOR ( 'NONE', #134, 1000.000000000000000 ) ;
#65 = ORIENTED_EDGE ( 'NONE', *, *, #118, .F. ) ;
#66 = ORIENTED_EDGE ( 'NONE', *, *, #106, .T. ) ;
#67 = VERTEX_POINT ( 'NONE', #49 ) ;
#68 = CIRCLE ( 'NONE', #21, 4.000000000000000000 ) ;
#69 = DIRECTION ( 'NONE',  ( -1.000000000000000000, 0.000000000000000000, 0.000000000000000000 ) ) ;
#70 = FACE_OUTER_BOUND ( 'NONE', #224, .T. ) ;
#71 = CARTESIAN_POINT ( 'NONE',  ( -4.000000000000000000, 0.000000000000000000, 28.60000000000000142 ) ) ;
#72 = EDGE_CURVE ( 'NONE', #185, #102, #162, .T. ) ;
#73 = AXIS2_PLACEMENT_3D ( 'NONE', #188, #191, #229 ) ;
#74 = DIRECTION ( 'NONE',  ( 1.000000000000000000, 0.000000000000000000, 0.000000000000000000 ) ) ;
#75 = CARTESIAN_POINT ( 'NONE',  ( 0.000000000000000000, 0.000000000000000000, 28.60000000000000142 ) ) ;
#76 = DATE_AND_TIME ( #28, #84 ) ;
#77 = PERSON_AND_ORGANIZATION ( #240, #202 ) ;
#78 = COORDINATED_UNIVERSAL_TIME_OFFSET ( 6, 0, .BEHIND. ) ;
#79 = ORIENTED_EDGE ( 'NONE', *, *, #214, .F. ) ;
#80 = AXIS2_PLACEMENT_3D ( 'NONE', #138, #209, #74 ) ;
#81 = DIRECTION ( 'NONE',  ( 0.000000000000000000, 0.000000000000000000, 1.000000000000000000 ) ) ;
#82 = EDGE_CURVE ( 'NONE', #102, #185, #129, .T. ) ;
#83 = DIRECTION ( 'NONE',  ( 1.000000000000000000, 0.000000000000000000, -0.000000000000000000 ) ) ;
#84 = LOCAL_TIME ( 22, 19, 24.00000000000000000, #99 ) ;
#85 = ORIENTED_EDGE ( 'NONE', *, *, #44, .T. ) ;
#86 = ORIENTED_EDGE ( 'NONE', *, *, #186, .F. ) ;
#87 = EDGE_LOOP ( 'NONE', ( #50, #151, #123, #79 ) ) ;
#88 = CIRCLE ( 'NONE', #73, 1.600000000000000089 ) ;
#89 = CC_DESIGN_SECURITY_CLASSIFICATION ( #2, ( #120 ) ) ;
#90 = DIRECTION ( 'NONE',  ( 0.000000000000000000, 0.000000000000000000, 1.000000000000000000 ) ) ;
#91 = DESIGN_CONTEXT ( 'detailed design', #234, 'design' ) ;
#92 = DIRECTION ( 'NONE',  ( 1.000000000000000000, 0.000000000000000000, 0.000000000000000000 ) ) ;
#93 = CIRCLE ( 'NONE', #177, 4.000000000000000000 ) ;
#94 = DIRECTION ( 'NONE',  ( 1.000000000000000000, 0.000000000000000000, 0.000000000000000000 ) ) ;
#95 = CARTESIAN_POINT ( 'NONE',  ( -1.600000000000000089, 0.000000000000000000, 28.60000000000000142 ) ) ;
#96 = DIRECTION ( 'NONE',  ( 1.000000000000000000, 0.000000000000000000, 0.000000000000000000 ) ) ;
#97 = ADVANCED_BREP_SHAPE_REPRESENTATION ( 'ARM-106_M3_standoff_28p6mm', ( #15, #54 ), #30 ) ;
#98 = DATE_AND_TIME ( #59, #215 ) ;
#99 = COORDINATED_UNIVERSAL_TIME_OFFSET ( 6, 0, .BEHIND. ) ;
#100 = COORDINATED_UNIVERSAL_TIME_OFFSET ( 6, 0, .BEHIND. ) ;
#101 = EDGE_LOOP ( 'NONE', ( #85, #12 ) ) ;
#102 = VERTEX_POINT ( 'NONE', #115 ) ;
#103 = APPROVAL_ROLE ( '' ) ;
#104 = ORIENTED_EDGE ( 'NONE', *, *, #116, .F. ) ;
#105 = CC_DESIGN_APPROVAL ( #220, ( #120 ) ) ;
#106 = EDGE_CURVE ( 'NONE', #167, #185, #156, .T. ) ;
#107 = DIRECTION ( 'NONE',  ( 0.000000000000000000, 0.000000000000000000, 1.000000000000000000 ) ) ;
#108 = ORIENTED_EDGE ( 'NONE', *, *, #137, .F. ) ;
#109 = CARTESIAN_POINT ( 'NONE',  ( 0.000000000000000000, 0.000000000000000000, 28.60000000000000142 ) ) ;
#110 = CARTESIAN_POINT ( 'NONE',  ( 4.000000000000000000, 4.898587196589412829E-16, 0.000000000000000000 ) ) ;
#111 = DIRECTION ( 'NONE',  ( 0.000000000000000000, 0.000000000000000000, 1.000000000000000000 ) ) ;
#112 = DIRECTION ( 'NONE',  ( -0.000000000000000000, -0.000000000000000000, -1.000000000000000000 ) ) ;
#113 = AXIS2_PLACEMENT_3D ( 'NONE', #218, #81, #165 ) ;
#114 = LOCAL_TIME ( 22, 19, 24.00000000000000000, #139 ) ;
#115 = CARTESIAN_POINT ( 'NONE',  ( -4.000000000000000000, 0.000000000000000000, 0.000000000000000000 ) ) ;
#116 = EDGE_CURVE ( 'NONE', #199, #244, #88, .T. ) ;
#117 = PERSON_AND_ORGANIZATION_ROLE ( 'design_supplier' ) ;
#118 = EDGE_CURVE ( 'NONE', #244, #67, #33, .T. ) ;
#119 = APPROVAL_ROLE ( '' ) ;
#120 = PRODUCT_DEFINITION_FORMATION_WITH_SPECIFIED_SOURCE ( 'ANY', '', #136, .NOT_KNOWN. ) ;
#121 = COORDINATED_UNIVERSAL_TIME_OFFSET ( 6, 0, .BEHIND. ) ;
#122 = ADVANCED_FACE ( 'NONE', ( #70 ), #155, .F. ) ;
#123 = ORIENTED_EDGE ( 'NONE', *, *, #44, .F. ) ;
#124 = ORIENTED_EDGE ( 'NONE', *, *, #196, .F. ) ;
#125 = APPROVAL_ROLE ( '' ) ;
#126 = CYLINDRICAL_SURFACE ( 'NONE', #219, 4.000000000000000000 ) ;
#127 = ADVANCED_FACE ( 'NONE', ( #135 ), #38, .F. ) ;
#128 = FACE_OUTER_BOUND ( 'NONE', #169, .T. ) ;
#129 = CIRCLE ( 'NONE', #80, 4.000000000000000000 ) ;
#130 = ORIENTED_EDGE ( 'NONE', *, *, #164, .F. ) ;
#131 = DIRECTION ( 'NONE',  ( -0.000000000000000000, -0.000000000000000000, -1.000000000000000000 ) ) ;
#132 = LINE ( 'NONE', #95, #64 ) ;
#133 = CLOSED_SHELL ( 'NONE', ( #127, #3, #25, #34, #149, #122 ) ) ;
#134 = DIRECTION ( 'NONE',  ( -0.000000000000000000, -0.000000000000000000, -1.000000000000000000 ) ) ;
#135 = FACE_OUTER_BOUND ( 'NONE', #87, .T. ) ;
#136 = PRODUCT ( 'ARM-106_M3_standoff_28p6mm', 'ARM-106_M3_standoff_28p6mm', '', ( #194 ) ) ;
#137 = EDGE_CURVE ( 'NONE', #183, #102, #55, .T. ) ;
#138 = CARTESIAN_POINT ( 'NONE',  ( 0.000000000000000000, 0.000000000000000000, 0.000000000000000000 ) ) ;
#139 = COORDINATED_UNIVERSAL_TIME_OFFSET ( 6, 0, .BEHIND. ) ;
#140 = DATE_AND_TIME ( #48, #173 ) ;
#141 = APPROVAL_PERSON_ORGANIZATION ( #159, #37, #125 ) ;
#142 = PERSON_AND_ORGANIZATION_ROLE ( 'creator' ) ;
#143 = CC_DESIGN_PERSON_AND_ORGANIZATION_ASSIGNMENT ( #213, #45, ( #2 ) ) ;
#144 = DIRECTION ( 'NONE',  ( -1.000000000000000000, 0.000000000000000000, 0.000000000000000000 ) ) ;
#145 = APPLICATION_CONTEXT ( 'configuration controlled 3d designs of mechanical parts and assemblies' ) ;
#146 = DIRECTION ( 'NONE',  ( 1.000000000000000000, 0.000000000000000000, -0.000000000000000000 ) ) ;
#147 = AXIS2_PLACEMENT_3D ( 'NONE', #201, #90, #247 ) ;
#148 = ORIENTED_EDGE ( 'NONE', *, *, #7, .T. ) ;
#149 = ADVANCED_FACE ( 'NONE', ( #206 ), #210, .T. ) ;
#150 = FACE_OUTER_BOUND ( 'NONE', #243, .T. ) ;
#151 = ORIENTED_EDGE ( 'NONE', *, *, #118, .T. ) ;
#152 = VECTOR ( 'NONE', #131, 1000.000000000000000 ) ;
#153 = CC_DESIGN_DATE_AND_TIME_ASSIGNMENT ( #140, #232, ( #2 ) ) ;
#154 = CARTESIAN_POINT ( 'NONE',  ( -1.600000000000000089, 0.000000000000000000, 0.000000000000000000 ) ) ;
#155 = CYLINDRICAL_SURFACE ( 'NONE', #41, 1.600000000000000089 ) ;
#156 = LINE ( 'NONE', #175, #60 ) ;
#157 = CC_DESIGN_PERSON_AND_ORGANIZATION_ASSIGNMENT ( #197, #142, ( #120 ) ) ;
#158 = DIRECTION ( 'NONE',  ( -0.000000000000000000, -0.000000000000000000, -1.000000000000000000 ) ) ;
#159 = PERSON_AND_ORGANIZATION ( #240, #202 ) ;
#160 = AXIS2_PLACEMENT_3D ( 'NONE', #174, #53, #94 ) ;
#161 = APPROVAL_STATUS ( 'not_yet_approved' ) ;
#162 = CIRCLE ( 'NONE', #147, 4.000000000000000000 ) ;
#163 = APPLICATION_PROTOCOL_DEFINITION ( 'international standard', 'config_control_design', 1994, #234 ) ;
#164 = EDGE_CURVE ( 'NONE', #167, #183, #68, .T. ) ;
#165 = DIRECTION ( 'NONE',  ( 1.000000000000000000, 0.000000000000000000, 0.000000000000000000 ) ) ;
#166 = FACE_BOUND ( 'NONE', #52, .T. ) ;
#167 = VERTEX_POINT ( 'NONE', #35 ) ;
#168 = PRODUCT_DEFINITION_SHAPE ( 'NONE', 'NONE',  #238 ) ;
#169 = EDGE_LOOP ( 'NONE', ( #63, #221 ) ) ;
#170 = ORIENTED_EDGE ( 'NONE', *, *, #164, .T. ) ;
#171 = DIRECTION ( 'NONE',  ( 0.000000000000000000, 0.000000000000000000, 1.000000000000000000 ) ) ;
#172 = CARTESIAN_POINT ( 'NONE',  ( -1.600000000000000089, 0.000000000000000000, 28.60000000000000142 ) ) ;
#173 = LOCAL_TIME ( 22, 19, 24.00000000000000000, #78 ) ;
#174 = CARTESIAN_POINT ( 'NONE',  ( 0.000000000000000000, 0.000000000000000000, 0.000000000000000000 ) ) ;
#175 = CARTESIAN_POINT ( 'NONE',  ( 4.000000000000000000, 4.898587196589412829E-16, 28.60000000000000142 ) ) ;
#176 = PERSON_AND_ORGANIZATION ( #240, #202 ) ;
#177 = AXIS2_PLACEMENT_3D ( 'NONE', #109, #171, #58 ) ;
#178 = DATE_AND_TIME ( #62, #114 ) ;
#179 = PERSON_AND_ORGANIZATION_ROLE ( 'creator' ) ;
#180 = VECTOR ( 'NONE', #112, 1000.000000000000000 ) ;
#181 = EDGE_LOOP ( 'NONE', ( #130, #66, #246, #108 ) ) ;
#182 = CARTESIAN_POINT ( 'NONE',  ( 0.000000000000000000, 0.000000000000000000, 0.000000000000000000 ) ) ;
#183 = VERTEX_POINT ( 'NONE', #71 ) ;
#184 = DIRECTION ( 'NONE',  ( 1.000000000000000000, 0.000000000000000000, 0.000000000000000000 ) ) ;
#185 = VERTEX_POINT ( 'NONE', #110 ) ;
#186 = EDGE_CURVE ( 'NONE', #67, #239, #204, .T. ) ;
#187 = CARTESIAN_POINT ( 'NONE',  ( 0.000000000000000000, 0.000000000000000000, 28.60000000000000142 ) ) ;
#188 = CARTESIAN_POINT ( 'NONE',  ( 0.000000000000000000, 0.000000000000000000, 28.60000000000000142 ) ) ;
#189 = CARTESIAN_POINT ( 'NONE',  ( 0.000000000000000000, 0.000000000000000000, 28.60000000000000142 ) ) ;
#190 = APPROVAL_PERSON_ORGANIZATION ( #77, #220, #103 ) ;
#191 = DIRECTION ( 'NONE',  ( 0.000000000000000000, 0.000000000000000000, 1.000000000000000000 ) ) ;
#192 = PERSON_AND_ORGANIZATION ( #240, #202 ) ;
#193 = CC_DESIGN_PERSON_AND_ORGANIZATION_ASSIGNMENT ( #8, #117, ( #120 ) ) ;
#194 = MECHANICAL_CONTEXT ( 'NONE', #145, 'mechanical' ) ;
#195 = AXIS2_PLACEMENT_3D ( 'NONE', #223, #222, #146 ) ;
#196 = EDGE_CURVE ( 'NONE', #183, #167, #93, .T. ) ;
#197 = PERSON_AND_ORGANIZATION ( #240, #202 ) ;
#198 = ORIENTED_EDGE ( 'NONE', *, *, #196, .T. ) ;
#199 = VERTEX_POINT ( 'NONE', #172 ) ;
#200 = DIRECTION ( 'NONE',  ( 0.000000000000000000, 0.000000000000000000, 1.000000000000000000 ) ) ;
#201 = CARTESIAN_POINT ( 'NONE',  ( 0.000000000000000000, 0.000000000000000000, 0.000000000000000000 ) ) ;
#202 = ORGANIZATION ( 'UNSPECIFIED', 'UNSPECIFIED', '' ) ;
#203 = PLANE ( 'NONE',  #241 ) ;
#204 = CIRCLE ( 'NONE', #160, 1.600000000000000089 ) ;
#205 = ORIENTED_EDGE ( 'NONE', *, *, #106, .F. ) ;
#206 = FACE_OUTER_BOUND ( 'NONE', #9, .T. ) ;
#207 = DIRECTION ( 'NONE',  ( -0.000000000000000000, -0.000000000000000000, -1.000000000000000000 ) ) ;
#208 = AXIS2_PLACEMENT_3D ( 'NONE', #189, #207, #18 ) ;
#209 = DIRECTION ( 'NONE',  ( 0.000000000000000000, 0.000000000000000000, 1.000000000000000000 ) ) ;
#210 = CYLINDRICAL_SURFACE ( 'NONE', #208, 4.000000000000000000 ) ;
#211 = PERSON_AND_ORGANIZATION_ROLE ( 'design_owner' ) ;
#212 = APPROVAL_STATUS ( 'not_yet_approved' ) ;
#213 = PERSON_AND_ORGANIZATION ( #240, #202 ) ;
#214 = EDGE_CURVE ( 'NONE', #199, #239, #132, .T. ) ;
#215 = LOCAL_TIME ( 22, 19, 24.00000000000000000, #121 ) ;
#216 = SECURITY_CLASSIFICATION_LEVEL ( 'unclassified' ) ;
#217 = DATE_AND_TIME ( #42, #227 ) ;
#218 = CARTESIAN_POINT ( 'NONE',  ( 0.000000000000000000, 0.000000000000000000, 28.60000000000000142 ) ) ;
#219 = AXIS2_PLACEMENT_3D ( 'NONE', #13, #27, #144 ) ;
#220 = APPROVAL ( #161, 'UNSPECIFIED' ) ;
#221 = ORIENTED_EDGE ( 'NONE', *, *, #72, .F. ) ;
#222 = DIRECTION ( 'NONE',  ( 0.000000000000000000, 0.000000000000000000, 1.000000000000000000 ) ) ;
#223 = CARTESIAN_POINT ( 'NONE',  ( 0.000000000000000000, 0.000000000000000000, 28.60000000000000142 ) ) ;
#224 = EDGE_LOOP ( 'NONE', ( #65, #148, #32, #86 ) ) ;
#225 =( NAMED_UNIT ( * ) PLANE_ANGLE_UNIT ( ) SI_UNIT ( $, .RADIAN. ) );
#226 =( NAMED_UNIT ( * ) SI_UNIT ( $, .STERADIAN. ) SOLID_ANGLE_UNIT ( ) );
#227 = LOCAL_TIME ( 22, 19, 24.00000000000000000, #100 ) ;
#228 = CC_DESIGN_APPROVAL ( #11, ( #2 ) ) ;
#229 = DIRECTION ( 'NONE',  ( 1.000000000000000000, 0.000000000000000000, 0.000000000000000000 ) ) ;
#230 = CARTESIAN_POINT ( 'NONE',  ( 0.000000000000000000, 0.000000000000000000, 28.60000000000000142 ) ) ;
#231 = CC_DESIGN_DATE_AND_TIME_ASSIGNMENT ( #217, #4, ( #238 ) ) ;
#232 = DATE_TIME_ROLE ( 'classification_date' ) ;
#233 = CIRCLE ( 'NONE', #6, 1.600000000000000089 ) ;
#234 = APPLICATION_CONTEXT ( 'configuration controlled 3d designs of mechanical parts and assemblies' ) ;
#235 = APPROVAL_DATE_TIME ( #98, #220 ) ;
#236 = PERSON_AND_ORGANIZATION ( #240, #202 ) ;
#237 = APPLICATION_PROTOCOL_DEFINITION ( 'international standard', 'config_control_design', 1994, #145 ) ;
#238 = PRODUCT_DEFINITION ( 'UNKNOWN', '', #120, #91 ) ;
#239 = VERTEX_POINT ( 'NONE', #154 ) ;
#240 = PERSON ( 'UNSPECIFIED', 'UNSPECIFIED', 'UNSPECIFIED', ('UNSPECIFIED'), ('UNSPECIFIED'), ('UNSPECIFIED') ) ;
#241 = AXIS2_PLACEMENT_3D ( 'NONE', #182, #10, #83 ) ;
#242 = CARTESIAN_POINT ( 'NONE',  ( 0.000000000000000000, 0.000000000000000000, 0.000000000000000000 ) ) ;
#243 = EDGE_LOOP ( 'NONE', ( #198, #170 ) ) ;
#244 = VERTEX_POINT ( 'NONE', #1 ) ;
#245 = AXIS2_PLACEMENT_3D ( 'NONE', #187, #158, #36 ) ;
#246 = ORIENTED_EDGE ( 'NONE', *, *, #72, .T. ) ;
#247 = DIRECTION ( 'NONE',  ( 1.000000000000000000, 0.000000000000000000, 0.000000000000000000 ) ) ;
#248 = PRODUCT_RELATED_PRODUCT_CATEGORY ( 'detail', '', ( #136 ) ) ;
#249 = DIRECTION ( 'NONE',  ( -0.000000000000000000, -0.000000000000000000, -1.000000000000000000 ) ) ;
ENDSEC;
END-ISO-10303-21;
