ISO-10303-21;
HEADER;
FILE_DESCRIPTION (( 'STEP AP203' ),
    '1' );
FILE_NAME ('ARM-105_Shoulder_bearing_cheek.step',
    '2026-09-08T03:50:21',
    ( '' ),
    ( '' ),
    'SwSTEP 2.0',
    'SolidWorks 2026',
    '' );
FILE_SCHEMA (( 'CONFIG_CONTROL_DESIGN' ));
ENDSEC;

DATA;
#1 = DIRECTION ( 'NONE',  ( 0.000000000000000000, 1.000000000000000000, 0.000000000000000000 ) ) ;
#2 = ORIENTED_EDGE ( 'NONE', *, *, #233, .T. ) ;
#3 = ADVANCED_FACE ( 'NONE', ( #154 ), #572, .F. ) ;
#4 = DIRECTION ( 'NONE',  ( 1.000000000000000000, 0.000000000000000000, 0.000000000000000000 ) ) ;
#5 = CYLINDRICAL_SURFACE ( 'NONE', #139, 11.09999999999999964 ) ;
#6 = ORIENTED_EDGE ( 'NONE', *, *, #521, .F. ) ;
#7 = CARTESIAN_POINT ( 'NONE',  ( 0.000000000000000000, -14.00000000000000000, -1.000000000000000888 ) ) ;
#8 = CYLINDRICAL_SURFACE ( 'NONE', #10, 9.000000000000000000 ) ;
#9 = VERTEX_POINT ( 'NONE', #292 ) ;
#10 = AXIS2_PLACEMENT_3D ( 'NONE', #13, #178, #580 ) ;
#11 = CIRCLE ( 'NONE', #820, 17.00000000000000000 ) ;
#12 = CARTESIAN_POINT ( 'NONE',  ( -9.000000000000000000, 0.000000000000000000, -1.000000000000000000 ) ) ;
#13 = CARTESIAN_POINT ( 'NONE',  ( 0.000000000000000000, 0.000000000000000000, 0.000000000000000000 ) ) ;
#14 = ORIENTED_EDGE ( 'NONE', *, *, #553, .F. ) ;
#15 = CIRCLE ( 'NONE', #145, 11.09999999999999964 ) ;
#16 = DIRECTION ( 'NONE',  ( 1.000000000000000000, 0.000000000000000000, -0.000000000000000000 ) ) ;
#17 = DIRECTION ( 'NONE',  ( 0.000000000000000000, 0.000000000000000000, -1.000000000000000000 ) ) ;
#18 = VECTOR ( 'NONE', #847, 1000.000000000000000 ) ;
#19 = AXIS2_PLACEMENT_3D ( 'NONE', #157, #490, #582 ) ;
#20 = CARTESIAN_POINT ( 'NONE',  ( 0.000000000000000000, 0.000000000000000000, 0.000000000000000000 ) ) ;
#21 = ADVANCED_FACE ( 'NONE', ( #921 ), #785, .F. ) ;
#22 = EDGE_LOOP ( 'NONE', ( #701, #570, #474, #248, #762, #777, #445, #596 ) ) ;
#23 = CARTESIAN_POINT ( 'NONE',  ( -42.00000000000000000, -22.00000000000000000, 4.000000000000000000 ) ) ;
#24 = DIRECTION ( 'NONE',  ( 1.000000000000000000, 0.000000000000000000, 0.000000000000000000 ) ) ;
#25 = CARTESIAN_POINT ( 'NONE',  ( 1.100000000000000089, -14.00000000000000000, -1.000000000000000888 ) ) ;
#26 = ORIENTED_EDGE ( 'NONE', *, *, #870, .T. ) ;
#27 = EDGE_CURVE ( 'NONE', #116, #696, #526, .T. ) ;
#28 = CARTESIAN_POINT ( 'NONE',  ( -1.100000000000000089, -14.00000000000000000, 6.999999999999999112 ) ) ;
#29 = VECTOR ( 'NONE', #49, 1000.000000000000000 ) ;
#30 = MECHANICAL_CONTEXT ( 'NONE', #249, 'mechanical' ) ;
#31 = CARTESIAN_POINT ( 'NONE',  ( -42.00000000000000000, -22.00000000000000000, 4.000000000000000000 ) ) ;
#32 = ORIENTED_EDGE ( 'NONE', *, *, #615, .F. ) ;
#33 = CIRCLE ( 'NONE', #678, 1.100000000000000089 ) ;
#34 = FACE_BOUND ( 'NONE', #680, .T. ) ;
#35 = EDGE_CURVE ( 'NONE', #65, #429, #704, .T. ) ;
#36 = DIRECTION ( 'NONE',  ( -0.000000000000000000, -1.000000000000000000, -0.000000000000000000 ) ) ;
#37 = LINE ( 'NONE', #196, #266 ) ;
#38 = LOCAL_TIME ( 22, 50, 21.00000000000000000, #818 ) ;
#39 = ORIENTED_EDGE ( 'NONE', *, *, #575, .T. ) ;
#40 = CARTESIAN_POINT ( 'NONE',  ( 11.09999999999999964, 1.359357947053562156E-15, 7.000000000000000000 ) ) ;
#41 = CALENDAR_DATE ( 2026, 7, 9 ) ;
#42 = EDGE_CURVE ( 'NONE', #77, #601, #717, .T. ) ;
#43 = FACE_OUTER_BOUND ( 'NONE', #268, .T. ) ;
#44 = ORIENTED_EDGE ( 'NONE', *, *, #773, .T. ) ;
#45 = EDGE_LOOP ( 'NONE', ( #917, #273, #856, #56 ) ) ;
#46 = DIRECTION ( 'NONE',  ( 0.000000000000000000, 1.000000000000000000, 0.000000000000000000 ) ) ;
#47 = DATE_TIME_ROLE ( 'classification_date' ) ;
#48 = CIRCLE ( 'NONE', #467, 1.100000000000000311 ) ;
#49 = DIRECTION ( 'NONE',  ( 0.000000000000000000, 0.000000000000000000, -1.000000000000000000 ) ) ;
#50 = EDGE_CURVE ( 'NONE', #601, #669, #637, .T. ) ;
#51 = VERTEX_POINT ( 'NONE', #855 ) ;
#52 = LINE ( 'NONE', #759, #514 ) ;
#53 = CARTESIAN_POINT ( 'NONE',  ( -11.09999999999999964, 0.000000000000000000, 0.000000000000000000 ) ) ;
#54 = ORIENTED_EDGE ( 'NONE', *, *, #407, .T. ) ;
#55 = CIRCLE ( 'NONE', #114, 1.599999999999997202 ) ;
#56 = ORIENTED_EDGE ( 'NONE', *, *, #670, .T. ) ;
#57 = DIRECTION ( 'NONE',  ( 0.000000000000000000, 0.000000000000000000, -1.000000000000000000 ) ) ;
#58 = APPLICATION_CONTEXT ( 'configuration controlled 3d designs of mechanical parts and assemblies' ) ;
#59 = DIRECTION ( 'NONE',  ( 1.000000000000000000, 0.000000000000000000, 0.000000000000000000 ) ) ;
#60 = ORIENTED_EDGE ( 'NONE', *, *, #615, .T. ) ;
#61 = CARTESIAN_POINT ( 'NONE',  ( 0.000000000000000000, 0.000000000000000000, 0.000000000000000000 ) ) ;
#62 = LINE ( 'NONE', #161, #709 ) ;
#63 = AXIS2_PLACEMENT_3D ( 'NONE', #303, #585, #863 ) ;
#64 = DIRECTION ( 'NONE',  ( -0.000000000000000000, -0.000000000000000000, -1.000000000000000000 ) ) ;
#65 = VERTEX_POINT ( 'NONE', #559 ) ;
#66 = DIRECTION ( 'NONE',  ( 1.000000000000000000, 0.000000000000000000, 0.000000000000000000 ) ) ;
#67 = EDGE_CURVE ( 'NONE', #696, #116, #243, .T. ) ;
#68 = DIRECTION ( 'NONE',  ( -1.000000000000000000, 0.000000000000000000, 0.000000000000000000 ) ) ;
#69 = AXIS2_PLACEMENT_3D ( 'NONE', #814, #174, #392 ) ;
#70 = ORIENTED_EDGE ( 'NONE', *, *, #597, .T. ) ;
#71 = DIRECTION ( 'NONE',  ( 1.000000000000000000, 0.000000000000000000, 0.000000000000000000 ) ) ;
#72 = CIRCLE ( 'NONE', #665, 1.599999999999997202 ) ;
#73 = ORIENTED_EDGE ( 'NONE', *, *, #297, .T. ) ;
#74 = ORIENTED_EDGE ( 'NONE', *, *, #67, .F. ) ;
#75 = DIRECTION ( 'NONE',  ( -0.000000000000000000, -0.000000000000000000, -1.000000000000000000 ) ) ;
#76 = ADVANCED_FACE ( 'NONE', ( #927 ), #772, .F. ) ;
#77 = VERTEX_POINT ( 'NONE', #359 ) ;
#78 = VECTOR ( 'NONE', #642, 1000.000000000000000 ) ;
#79 = LINE ( 'NONE', #699, #295 ) ;
#80 = VECTOR ( 'NONE', #377, 1000.000000000000000 ) ;
#81 = CC_DESIGN_PERSON_AND_ORGANIZATION_ASSIGNMENT ( #132, #203, ( #584 ) ) ;
#82 = ORIENTED_EDGE ( 'NONE', *, *, #35, .T. ) ;
#83 = DIRECTION ( 'NONE',  ( 0.000000000000000000, 0.000000000000000000, 1.000000000000000000 ) ) ;
#84 = AXIS2_PLACEMENT_3D ( 'NONE', #246, #895, #533 ) ;
#85 = AXIS2_PLACEMENT_3D ( 'NONE', #406, #750, #326 ) ;
#86 = LINE ( 'NONE', #388, #420 ) ;
#87 = VERTEX_POINT ( 'NONE', #700 ) ;
#88 = FACE_OUTER_BOUND ( 'NONE', #545, .T. ) ;
#89 = FACE_OUTER_BOUND ( 'NONE', #389, .T. ) ;
#90 = ORIENTED_EDGE ( 'NONE', *, *, #150, .T. ) ;
#91 = CIRCLE ( 'NONE', #149, 1.599999999999997202 ) ;
#92 = AXIS2_PLACEMENT_3D ( 'NONE', #776, #505, #501 ) ;
#93 = LINE ( 'NONE', #888, #80 ) ;
#94 = DATE_AND_TIME ( #469, #38 ) ;
#95 = ADVANCED_FACE ( 'NONE', ( #351, #422, #282, #285, #569 ), #565, .T. ) ;
#96 = CARTESIAN_POINT ( 'NONE',  ( 0.000000000000000000, 22.00000000000000000, 4.000000000000000000 ) ) ;
#97 = ORIENTED_EDGE ( 'NONE', *, *, #216, .T. ) ;
#98 = AXIS2_PLACEMENT_3D ( 'NONE', #108, #391, #676 ) ;
#99 = FACE_OUTER_BOUND ( 'NONE', #865, .T. ) ;
#100 = AXIS2_PLACEMENT_3D ( 'NONE', #477, #757, #120 ) ;
#101 = DIRECTION ( 'NONE',  ( 0.000000000000000000, 0.000000000000000000, 1.000000000000000000 ) ) ;
#102 = ORIENTED_EDGE ( 'NONE', *, *, #624, .F. ) ;
#103 = CARTESIAN_POINT ( 'NONE',  ( 0.000000000000000000, -22.00000000000000000, 4.000000000000000000 ) ) ;
#104 = LINE ( 'NONE', #240, #147 ) ;
#105 = CARTESIAN_POINT ( 'NONE',  ( 14.00000000000000000, 0.000000000000000000, 6.999999999999999112 ) ) ;
#106 = ORIENTED_EDGE ( 'NONE', *, *, #779, .T. ) ;
#107 = ADVANCED_FACE ( 'NONE', ( #140 ), #146, .F. ) ;
#108 = CARTESIAN_POINT ( 'NONE',  ( -42.00000000000000000, 22.00000000000000000, 4.000000000000000000 ) ) ;
#109 = CARTESIAN_POINT ( 'NONE',  ( -42.00000000000000000, -22.00000000000000000, 0.000000000000000000 ) ) ;
#110 = EDGE_LOOP ( 'NONE', ( #751, #860, #413, #660 ) ) ;
#111 = AXIS2_PLACEMENT_3D ( 'NONE', #729, #468, #671 ) ;
#112 = CARTESIAN_POINT ( 'NONE',  ( 0.000000000000000000, 0.000000000000000000, 0.000000000000000000 ) ) ;
#113 = FACE_OUTER_BOUND ( 'NONE', #551, .T. ) ;
#114 = AXIS2_PLACEMENT_3D ( 'NONE', #716, #433, #133 ) ;
#115 = VERTEX_POINT ( 'NONE', #440 ) ;
#116 = VERTEX_POINT ( 'NONE', #524 ) ;
#117 = FACE_BOUND ( 'NONE', #586, .T. ) ;
#118 = CALENDAR_DATE ( 2026, 7, 9 ) ;
#119 = EDGE_CURVE ( 'NONE', #874, #121, #48, .T. ) ;
#120 = DIRECTION ( 'NONE',  ( -1.000000000000000000, 0.000000000000000000, 0.000000000000000000 ) ) ;
#121 = VERTEX_POINT ( 'NONE', #299 ) ;
#122 = FACE_OUTER_BOUND ( 'NONE', #887, .T. ) ;
#123 = VECTOR ( 'NONE', #317, 1000.000000000000000 ) ;
#124 = CARTESIAN_POINT ( 'NONE',  ( 0.000000000000000000, 0.000000000000000000, 0.000000000000000000 ) ) ;
#125 = ORIENTED_EDGE ( 'NONE', *, *, #245, .F. ) ;
#126 = CYLINDRICAL_SURFACE ( 'NONE', #544, 1.100000000000000311 ) ;
#127 = DIRECTION ( 'NONE',  ( 0.000000000000000000, 0.000000000000000000, 1.000000000000000000 ) ) ;
#128 = VERTEX_POINT ( 'NONE', #455 ) ;
#129 = AXIS2_PLACEMENT_3D ( 'NONE', #517, #495, #4 ) ;
#130 = EDGE_LOOP ( 'NONE', ( #823, #786 ) ) ;
#131 = DIRECTION ( 'NONE',  ( -1.000000000000000000, 0.000000000000000000, 0.000000000000000000 ) ) ;
#132 = PERSON_AND_ORGANIZATION ( #227, #562 ) ;
#133 = DIRECTION ( 'NONE',  ( -1.000000000000000000, 0.000000000000000000, 0.000000000000000000 ) ) ;
#134 = ORIENTED_EDGE ( 'NONE', *, *, #926, .F. ) ;
#135 = ADVANCED_FACE ( 'NONE', ( #589, #374, #237 ), #655, .F. ) ;
#136 = ORIENTED_EDGE ( 'NONE', *, *, #646, .T. ) ;
#137 = DIRECTION ( 'NONE',  ( 1.000000000000000000, 0.000000000000000000, 0.000000000000000000 ) ) ;
#138 = CARTESIAN_POINT ( 'NONE',  ( 9.000000000000000000, 1.102182119232617714E-15, 0.000000000000000000 ) ) ;
#139 = AXIS2_PLACEMENT_3D ( 'NONE', #313, #459, #741 ) ;
#140 = FACE_OUTER_BOUND ( 'NONE', #592, .T. ) ;
#141 = CC_DESIGN_APPROVAL ( #453, ( #584 ) ) ;
#142 = EDGE_LOOP ( 'NONE', ( #578, #212, #787, #6 ) ) ;
#143 = CARTESIAN_POINT ( 'NONE',  ( -1.100000000000000089, -14.00000000000000000, 6.999999999999999112 ) ) ;
#144 = EDGE_CURVE ( 'NONE', #606, #633, #11, .T. ) ;
#145 = AXIS2_PLACEMENT_3D ( 'NONE', #61, #345, #630 ) ;
#146 = PLANE ( 'NONE',  #361 ) ;
#147 = VECTOR ( 'NONE', #36, 1000.000000000000000 ) ;
#148 = ORIENTED_EDGE ( 'NONE', *, *, #822, .F. ) ;
#149 = AXIS2_PLACEMENT_3D ( 'NONE', #884, #336, #903 ) ;
#150 = EDGE_CURVE ( 'NONE', #362, #527, #877, .T. ) ;
#151 = CARTESIAN_POINT ( 'NONE',  ( 0.000000000000000000, 0.000000000000000000, 7.000000000000000000 ) ) ;
#152 = ORIENTED_EDGE ( 'NONE', *, *, #755, .T. ) ;
#153 = APPROVAL ( #538, 'UNSPECIFIED' ) ;
#154 = FACE_OUTER_BOUND ( 'NONE', #45, .T. ) ;
#155 = AXIS2_PLACEMENT_3D ( 'NONE', #124, #127, #834 ) ;
#156 = ORIENTED_EDGE ( 'NONE', *, *, #50, .T. ) ;
#157 = CARTESIAN_POINT ( 'NONE',  ( 0.000000000000000000, 0.000000000000000000, -1.000000000000000000 ) ) ;
#158 = CIRCLE ( 'NONE', #705, 1.100000000000000089 ) ;
#159 = LINE ( 'NONE', #668, #375 ) ;
#160 = ORIENTED_EDGE ( 'NONE', *, *, #497, .F. ) ;
#161 = CARTESIAN_POINT ( 'NONE',  ( -37.59999999999999432, -18.00000000000000000, 6.999999999999999112 ) ) ;
#162 = CARTESIAN_POINT ( 'NONE',  ( 0.000000000000000000, 0.000000000000000000, 4.000000000000000000 ) ) ;
#163 = ORIENTED_EDGE ( 'NONE', *, *, #67, .T. ) ;
#164 = EDGE_CURVE ( 'NONE', #9, #880, #571, .T. ) ;
#165 = DIRECTION ( 'NONE',  ( -0.000000000000000000, -0.000000000000000000, -1.000000000000000000 ) ) ;
#166 = APPROVAL_DATE_TIME ( #452, #913 ) ;
#167 = LINE ( 'NONE', #385, #525 ) ;
#168 = VERTEX_POINT ( 'NONE', #806 ) ;
#169 = DIRECTION ( 'NONE',  ( 0.000000000000000000, 0.000000000000000000, 1.000000000000000000 ) ) ;
#170 = ADVANCED_FACE ( 'NONE', ( #727 ), #868, .F. ) ;
#171 = DIRECTION ( 'NONE',  ( 0.000000000000000000, 0.000000000000000000, -1.000000000000000000 ) ) ;
#172 = EDGE_LOOP ( 'NONE', ( #223, #724, #294, #840, #639, #347, #408 ) ) ;
#173 = CARTESIAN_POINT ( 'NONE',  ( 0.000000000000000000, 14.00000000000000000, 6.999999999999999112 ) ) ;
#174 = DIRECTION ( 'NONE',  ( 0.000000000000000000, 0.000000000000000000, -1.000000000000000000 ) ) ;
#175 = CIRCLE ( 'NONE', #708, 17.00000000000000000 ) ;
#176 = VECTOR ( 'NONE', #628, 1000.000000000000000 ) ;
#177 = ADVANCED_FACE ( 'NONE', ( #89 ), #8, .F. ) ;
#178 = DIRECTION ( 'NONE',  ( -0.000000000000000000, -0.000000000000000000, -1.000000000000000000 ) ) ;
#179 = ORIENTED_EDGE ( 'NONE', *, *, #286, .F. ) ;
#180 = DIRECTION ( 'NONE',  ( -1.000000000000000000, 0.000000000000000000, 0.000000000000000000 ) ) ;
#181 = PERSON_AND_ORGANIZATION ( #227, #562 ) ;
#182 = DIRECTION ( 'NONE',  ( 0.000000000000000000, 1.000000000000000000, 0.000000000000000000 ) ) ;
#183 = EDGE_CURVE ( 'NONE', #874, #527, #167, .T. ) ;
#184 = EDGE_LOOP ( 'NONE', ( #332, #125 ) ) ;
#185 = CARTESIAN_POINT ( 'NONE',  ( 0.000000000000000000, 0.000000000000000000, 0.000000000000000000 ) ) ;
#186 = APPLICATION_PROTOCOL_DEFINITION ( 'international standard', 'config_control_design', 1994, #249 ) ;
#187 = DIRECTION ( 'NONE',  ( 0.000000000000000000, 1.000000000000000000, 0.000000000000000000 ) ) ;
#188 = ORIENTED_EDGE ( 'NONE', *, *, #773, .F. ) ;
#189 = ORIENTED_EDGE ( 'NONE', *, *, #447, .F. ) ;
#190 = LINE ( 'NONE', #348, #202 ) ;
#191 = PERSON_AND_ORGANIZATION_ROLE ( 'design_supplier' ) ;
#192 = CARTESIAN_POINT ( 'NONE',  ( -17.00000000000000000, 0.000000000000000000, 7.000000000000000000 ) ) ;
#193 = VECTOR ( 'NONE', #861, 1000.000000000000000 ) ;
#194 = VERTEX_POINT ( 'NONE', #308 ) ;
#195 = DIRECTION ( 'NONE',  ( 0.000000000000000000, 0.000000000000000000, 1.000000000000000000 ) ) ;
#196 = CARTESIAN_POINT ( 'NONE',  ( 1.100000000000000089, -14.00000000000000000, 6.999999999999999112 ) ) ;
#197 = ORIENTED_EDGE ( 'NONE', *, *, #870, .F. ) ;
#198 = CARTESIAN_POINT ( 'NONE',  ( -42.00000000000000000, -22.00000000000000000, 0.000000000000000000 ) ) ;
#199 = DIRECTION ( 'NONE',  ( -0.000000000000000000, -0.000000000000000000, 1.000000000000000000 ) ) ;
#200 = ORIENTED_EDGE ( 'NONE', *, *, #183, .F. ) ;
#201 = FACE_BOUND ( 'NONE', #904, .T. ) ;
#202 = VECTOR ( 'NONE', #754, 1000.000000000000000 ) ;
#203 = PERSON_AND_ORGANIZATION_ROLE ( 'classification_officer' ) ;
#204 = DIRECTION ( 'NONE',  ( 0.000000000000000000, 0.000000000000000000, -1.000000000000000000 ) ) ;
#205 = EDGE_CURVE ( 'NONE', #338, #508, #159, .T. ) ;
#206 = DIRECTION ( 'NONE',  ( 0.000000000000000000, 0.000000000000000000, 1.000000000000000000 ) ) ;
#207 = LOCAL_TIME ( 22, 50, 21.00000000000000000, #878 ) ;
#208 = AXIS2_PLACEMENT_3D ( 'NONE', #7, #301, #726 ) ;
#209 = CARTESIAN_POINT ( 'NONE',  ( 0.000000000000000000, 0.000000000000000000, 4.000000000000000000 ) ) ;
#210 = DIRECTION ( 'NONE',  ( 1.000000000000000000, 0.000000000000000000, 0.000000000000000000 ) ) ;
#211 = DIRECTION ( 'NONE',  ( 0.000000000000000000, 0.000000000000000000, 1.000000000000000000 ) ) ;
#212 = ORIENTED_EDGE ( 'NONE', *, *, #290, .T. ) ;
#213 = FACE_BOUND ( 'NONE', #656, .T. ) ;
#214 = CARTESIAN_POINT ( 'NONE',  ( -17.00000000000000000, 0.000000000000000000, 7.000000000000000000 ) ) ;
#215 = VERTEX_POINT ( 'NONE', #723 ) ;
#216 = EDGE_CURVE ( 'NONE', #224, #788, #86, .T. ) ;
#217 = CIRCLE ( 'NONE', #322, 9.000000000000000000 ) ;
#218 = CARTESIAN_POINT ( 'NONE',  ( 0.000000000000000000, 0.000000000000000000, 7.000000000000000000 ) ) ;
#219 = CIRCLE ( 'NONE', #281, 17.00000000000000000 ) ;
#220 = ORIENTED_EDGE ( 'NONE', *, *, #35, .F. ) ;
#221 = AXIS2_PLACEMENT_3D ( 'NONE', #235, #411, #350 ) ;
#222 = CC_DESIGN_PERSON_AND_ORGANIZATION_ASSIGNMENT ( #181, #883, ( #423 ) ) ;
#223 = ORIENTED_EDGE ( 'NONE', *, *, #710, .F. ) ;
#224 = VERTEX_POINT ( 'NONE', #96 ) ;
#225 = CARTESIAN_POINT ( 'NONE',  ( 0.000000000000000000, -17.00000000000000000, 0.000000000000000000 ) ) ;
#226 = FACE_OUTER_BOUND ( 'NONE', #22, .T. ) ;
#227 = PERSON ( 'UNSPECIFIED', 'UNSPECIFIED', 'UNSPECIFIED', ('UNSPECIFIED'), ('UNSPECIFIED'), ('UNSPECIFIED') ) ;
#228 = VERTEX_POINT ( 'NONE', #25 ) ;
#229 = LOCAL_TIME ( 22, 50, 21.00000000000000000, #354 ) ;
#230 = CARTESIAN_POINT ( 'NONE',  ( -36.00000000000000000, 18.00000000000000000, 6.999999999999999112 ) ) ;
#231 = VECTOR ( 'NONE', #419, 1000.000000000000000 ) ;
#232 = CARTESIAN_POINT ( 'NONE',  ( -1.100000000000000089, 14.00000000000000000, -1.000000000000000888 ) ) ;
#233 = EDGE_CURVE ( 'NONE', #121, #362, #381, .T. ) ;
#234 = ORIENTED_EDGE ( 'NONE', *, *, #315, .T. ) ;
#235 = CARTESIAN_POINT ( 'NONE',  ( 0.000000000000000000, 0.000000000000000000, -1.000000000000000000 ) ) ;
#236 = AXIS2_PLACEMENT_3D ( 'NONE', #112, #259, #16 ) ;
#237 = FACE_OUTER_BOUND ( 'NONE', #172, .T. ) ;
#238 = ORIENTED_EDGE ( 'NONE', *, *, #710, .T. ) ;
#239 = DIRECTION ( 'NONE',  ( -1.000000000000000000, 0.000000000000000000, 0.000000000000000000 ) ) ;
#240 = CARTESIAN_POINT ( 'NONE',  ( -42.00000000000000000, -22.00000000000000000, 4.000000000000000000 ) ) ;
#241 = CARTESIAN_POINT ( 'NONE',  ( 15.10000000000000142, 1.347111479062088503E-16, 6.999999999999999112 ) ) ;
#242 = ORIENTED_EDGE ( 'NONE', *, *, #890, .T. ) ;
#243 = CIRCLE ( 'NONE', #616, 11.09999999999999964 ) ;
#244 = DIRECTION ( 'NONE',  ( -1.000000000000000000, 0.000000000000000000, 0.000000000000000000 ) ) ;
#245 = EDGE_CURVE ( 'NONE', #194, #652, #789, .T. ) ;
#246 = CARTESIAN_POINT ( 'NONE',  ( 0.000000000000000000, 0.000000000000000000, 0.000000000000000000 ) ) ;
#247 = DIRECTION ( 'NONE',  ( 1.000000000000000000, 0.000000000000000000, 0.000000000000000000 ) ) ;
#248 = ORIENTED_EDGE ( 'NONE', *, *, #50, .F. ) ;
#249 = APPLICATION_CONTEXT ( 'configuration controlled 3d designs of mechanical parts and assemblies' ) ;
#250 = CARTESIAN_POINT ( 'NONE',  ( 0.000000000000000000, 17.00000000000000000, 4.000000000000000000 ) ) ;
#251 = PERSON_AND_ORGANIZATION ( #227, #562 ) ;
#252 = CIRCLE ( 'NONE', #641, 1.599999999999997202 ) ;
#253 = CARTESIAN_POINT ( 'NONE',  ( 0.000000000000000000, -22.00000000000000000, 4.000000000000000000 ) ) ;
#254 = ORIENTED_EDGE ( 'NONE', *, *, #466, .T. ) ;
#255 = DIRECTION ( 'NONE',  ( 0.000000000000000000, 0.000000000000000000, 1.000000000000000000 ) ) ;
#256 = CALENDAR_DATE ( 2026, 7, 9 ) ;
#257 = CARTESIAN_POINT ( 'NONE',  ( 15.10000000000000142, 1.347111479062088503E-16, -1.000000000000000888 ) ) ;
#258 = EDGE_LOOP ( 'NONE', ( #160, #566, #450, #188 ) ) ;
#259 = DIRECTION ( 'NONE',  ( 0.000000000000000000, 0.000000000000000000, 1.000000000000000000 ) ) ;
#260 = LINE ( 'NONE', #614, #176 ) ;
#261 = ORIENTED_EDGE ( 'NONE', *, *, #546, .F. ) ;
#262 = ADVANCED_FACE ( 'NONE', ( #796 ), #5, .F. ) ;
#263 = CIRCLE ( 'NONE', #379, 17.00000000000000000 ) ;
#264 = FACE_OUTER_BOUND ( 'NONE', #899, .T. ) ;
#265 = DIRECTION ( 'NONE',  ( -1.000000000000000000, 0.000000000000000000, 0.000000000000000000 ) ) ;
#266 = VECTOR ( 'NONE', #539, 1000.000000000000000 ) ;
#267 = ORIENTED_EDGE ( 'NONE', *, *, #447, .T. ) ;
#268 = EDGE_LOOP ( 'NONE', ( #793, #643, #728, #197, #715, #360, #156, #573 ) ) ;
#269 = CARTESIAN_POINT ( 'NONE',  ( 0.000000000000000000, 0.000000000000000000, -1.000000000000000000 ) ) ;
#270 = CALENDAR_DATE ( 2026, 7, 9 ) ;
#271 = DIRECTION ( 'NONE',  ( -1.000000000000000000, -0.000000000000000000, -0.000000000000000000 ) ) ;
#272 = ORIENTED_EDGE ( 'NONE', *, *, #330, .F. ) ;
#273 = ORIENTED_EDGE ( 'NONE', *, *, #687, .F. ) ;
#274 = DIRECTION ( 'NONE',  ( 0.000000000000000000, 0.000000000000000000, 1.000000000000000000 ) ) ;
#275 = ADVANCED_FACE ( 'NONE', ( #226 ), #371, .T. ) ;
#276 = CARTESIAN_POINT ( 'NONE',  ( 0.000000000000000000, 14.00000000000000000, 6.999999999999999112 ) ) ;
#277 = EDGE_LOOP ( 'NONE', ( #910, #220, #179, #97 ) ) ;
#278 = LINE ( 'NONE', #552, #638 ) ;
#279 = AXIS2_PLACEMENT_3D ( 'NONE', #698, #547, #400 ) ;
#280 = CARTESIAN_POINT ( 'NONE',  ( -34.39999999999999858, -18.00000000000000000, 0.000000000000000000 ) ) ;
#281 = AXIS2_PLACEMENT_3D ( 'NONE', #748, #523, #24 ) ;
#282 = FACE_BOUND ( 'NONE', #712, .T. ) ;
#283 = VERTEX_POINT ( 'NONE', #232 ) ;
#284 = DIRECTION ( 'NONE',  ( 0.000000000000000000, 0.000000000000000000, 1.000000000000000000 ) ) ;
#285 = FACE_OUTER_BOUND ( 'NONE', #130, .T. ) ;
#286 = EDGE_CURVE ( 'NONE', #224, #65, #485, .T. ) ;
#287 = ORIENTED_EDGE ( 'NONE', *, *, #380, .T. ) ;
#288 = CLOSED_SHELL ( 'NONE', ( #850, #906, #430, #343, #713, #177, #21, #275, #135, #427, #262, #95, #170, #302, #107, #3, #725, #900, #603, #792, #675, #503, #658, #631, #76, #837 ) ) ;
#289 = CARTESIAN_POINT ( 'NONE',  ( 0.000000000000000000, 0.000000000000000000, 7.000000000000000000 ) ) ;
#290 = EDGE_CURVE ( 'NONE', #215, #194, #549, .T. ) ;
#291 = ORIENTED_EDGE ( 'NONE', *, *, #833, .F. ) ;
#292 = CARTESIAN_POINT ( 'NONE',  ( 9.000000000000000000, 1.102182119232617714E-15, 0.000000000000000000 ) ) ;
#293 = AXIS2_PLACEMENT_3D ( 'NONE', #320, #17, #463 ) ;
#294 = ORIENTED_EDGE ( 'NONE', *, *, #934, .T. ) ;
#295 = VECTOR ( 'NONE', #364, 1000.000000000000000 ) ;
#296 = LINE ( 'NONE', #138, #193 ) ;
#297 = EDGE_CURVE ( 'NONE', #482, #363, #500, .T. ) ;
#298 = UNCERTAINTY_MEASURE_WITH_UNIT (LENGTH_MEASURE( 1.000000000000000082E-05 ), #800, 'distance_accuracy_value', 'NONE');
#299 = CARTESIAN_POINT ( 'NONE',  ( 15.10000000000000142, 1.347111479062088503E-16, 6.999999999999999112 ) ) ;
#300 = EDGE_LOOP ( 'NONE', ( #472, #189 ) ) ;
#301 = DIRECTION ( 'NONE',  ( -0.000000000000000000, -0.000000000000000000, -1.000000000000000000 ) ) ;
#302 = ADVANCED_FACE ( 'NONE', ( #464 ), #555, .F. ) ;
#303 = CARTESIAN_POINT ( 'NONE',  ( 0.000000000000000000, 0.000000000000000000, 7.000000000000000000 ) ) ;
#304 = EDGE_LOOP ( 'NONE', ( #516, #2, #90, #200 ) ) ;
#305 = CARTESIAN_POINT ( 'NONE',  ( -37.59999999999999432, -18.00000000000000000, 0.000000000000000000 ) ) ;
#306 = ADVANCED_BREP_SHAPE_REPRESENTATION ( 'ARM-105_Shoulder_bearing_cheek', ( #732, #84 ), #885 ) ;
#307 = CC_DESIGN_PERSON_AND_ORGANIZATION_ASSIGNMENT ( #872, #191, ( #325 ) ) ;
#308 = CARTESIAN_POINT ( 'NONE',  ( -34.39999999999999858, 18.00000000000000000, 0.000000000000000000 ) ) ;
#309 = ORIENTED_EDGE ( 'NONE', *, *, #27, .T. ) ;
#310 = DIRECTION ( 'NONE',  ( 0.000000000000000000, 0.000000000000000000, 1.000000000000000000 ) ) ;
#311 = CIRCLE ( 'NONE', #368, 1.599999999999997202 ) ;
#312 = PLANE ( 'NONE',  #293 ) ;
#313 = CARTESIAN_POINT ( 'NONE',  ( 0.000000000000000000, 0.000000000000000000, 7.000000000000000000 ) ) ;
#314 = VERTEX_POINT ( 'NONE', #31 ) ;
#315 = EDGE_CURVE ( 'NONE', #652, #194, #91, .T. ) ;
#316 = DIRECTION ( 'NONE',  ( 0.000000000000000000, 0.000000000000000000, -1.000000000000000000 ) ) ;
#317 = DIRECTION ( 'NONE',  ( 0.000000000000000000, 0.000000000000000000, -1.000000000000000000 ) ) ;
#318 = ORIENTED_EDGE ( 'NONE', *, *, #380, .F. ) ;
#319 = CYLINDRICAL_SURFACE ( 'NONE', #838, 1.599999999999997202 ) ;
#320 = CARTESIAN_POINT ( 'NONE',  ( 0.000000000000000000, 0.000000000000000000, 4.000000000000000000 ) ) ;
#321 = LINE ( 'NONE', #891, #548 ) ;
#322 = AXIS2_PLACEMENT_3D ( 'NONE', #542, #169, #808 ) ;
#323 = ORIENTED_EDGE ( 'NONE', *, *, #414, .T. ) ;
#324 = CARTESIAN_POINT ( 'NONE',  ( 1.100000000000000089, 14.00000000000000000, 6.999999999999999112 ) ) ;
#325 = PRODUCT_DEFINITION_FORMATION_WITH_SPECIFIED_SOURCE ( 'ANY', '', #423, .NOT_KNOWN. ) ;
#326 = DIRECTION ( 'NONE',  ( -1.000000000000000000, 0.000000000000000000, 0.000000000000000000 ) ) ;
#327 = ORIENTED_EDGE ( 'NONE', *, *, #233, .F. ) ;
#328 = DIRECTION ( 'NONE',  ( -0.000000000000000000, -0.000000000000000000, -1.000000000000000000 ) ) ;
#329 = PERSON_AND_ORGANIZATION_ROLE ( 'creator' ) ;
#330 = EDGE_CURVE ( 'NONE', #168, #215, #311, .T. ) ;
#331 = DIRECTION ( 'NONE',  ( 0.000000000000000000, 0.000000000000000000, -1.000000000000000000 ) ) ;
#332 = ORIENTED_EDGE ( 'NONE', *, *, #315, .F. ) ;
#333 = EDGE_LOOP ( 'NONE', ( #835, #73 ) ) ;
#334 = DIRECTION ( 'NONE',  ( 1.000000000000000000, 0.000000000000000000, 0.000000000000000000 ) ) ;
#335 = AXIS2_PLACEMENT_3D ( 'NONE', #649, #1, #496 ) ;
#336 = DIRECTION ( 'NONE',  ( -0.000000000000000000, -0.000000000000000000, -1.000000000000000000 ) ) ;
#337 = CC_DESIGN_DATE_AND_TIME_ASSIGNMENT ( #613, #448, ( #742 ) ) ;
#338 = VERTEX_POINT ( 'NONE', #109 ) ;
#339 = CYLINDRICAL_SURFACE ( 'NONE', #426, 1.100000000000000311 ) ;
#340 = CARTESIAN_POINT ( 'NONE',  ( 0.000000000000000000, -17.00000000000000000, 7.000000000000000000 ) ) ;
#341 = AXIS2_PLACEMENT_3D ( 'NONE', #513, #579, #771 ) ;
#342 = VERTEX_POINT ( 'NONE', #679 ) ;
#343 = ADVANCED_FACE ( 'NONE', ( #398 ), #826, .F. ) ;
#344 = ORIENTED_EDGE ( 'NONE', *, *, #164, .F. ) ;
#345 = DIRECTION ( 'NONE',  ( 0.000000000000000000, 0.000000000000000000, 1.000000000000000000 ) ) ;
#346 = CYLINDRICAL_SURFACE ( 'NONE', #384, 1.599999999999997202 ) ;
#347 = ORIENTED_EDGE ( 'NONE', *, *, #767, .F. ) ;
#348 = CARTESIAN_POINT ( 'NONE',  ( -11.09999999999999964, 0.000000000000000000, 7.000000000000000000 ) ) ;
#349 = LOCAL_TIME ( 22, 50, 21.00000000000000000, #843 ) ;
#350 = DIRECTION ( 'NONE',  ( 1.000000000000000000, 0.000000000000000000, 0.000000000000000000 ) ) ;
#351 = FACE_BOUND ( 'NONE', #629, .T. ) ;
#352 = EDGE_LOOP ( 'NONE', ( #272, #812 ) ) ;
#353 = PLANE ( 'NONE',  #279 ) ;
#354 = COORDINATED_UNIVERSAL_TIME_OFFSET ( 6, 0, .BEHIND. ) ;
#355 = AXIS2_PLACEMENT_3D ( 'NONE', #537, #255, #383 ) ;
#356 = ORIENTED_EDGE ( 'NONE', *, *, #926, .T. ) ;
#357 = ORIENTED_EDGE ( 'NONE', *, *, #297, .F. ) ;
#358 = CARTESIAN_POINT ( 'NONE',  ( -9.000000000000000000, 0.000000000000000000, 0.000000000000000000 ) ) ;
#359 = CARTESIAN_POINT ( 'NONE',  ( 0.000000000000000000, 17.00000000000000000, 0.000000000000000000 ) ) ;
#360 = ORIENTED_EDGE ( 'NONE', *, *, #934, .F. ) ;
#361 = AXIS2_PLACEMENT_3D ( 'NONE', #428, #711, #930 ) ;
#362 = VERTEX_POINT ( 'NONE', #257 ) ;
#363 = VERTEX_POINT ( 'NONE', #53 ) ;
#364 = DIRECTION ( 'NONE',  ( 0.000000000000000000, 0.000000000000000000, -1.000000000000000000 ) ) ;
#365 = VERTEX_POINT ( 'NONE', #192 ) ;
#366 = AXIS2_PLACEMENT_3D ( 'NONE', #634, #561, #841 ) ;
#367 = ORIENTED_EDGE ( 'NONE', *, *, #473, .F. ) ;
#368 = AXIS2_PLACEMENT_3D ( 'NONE', #830, #199, #622 ) ;
#369 = EDGE_CURVE ( 'NONE', #342, #283, #321, .T. ) ;
#370 = CARTESIAN_POINT ( 'NONE',  ( 0.000000000000000000, 17.00000000000000000, 7.000000000000000000 ) ) ;
#371 = CYLINDRICAL_SURFACE ( 'NONE', #63, 17.00000000000000000 ) ;
#372 = ORIENTED_EDGE ( 'NONE', *, *, #507, .F. ) ;
#373 = CARTESIAN_POINT ( 'NONE',  ( -36.00000000000000000, -18.00000000000000000, 0.000000000000000000 ) ) ;
#374 = FACE_BOUND ( 'NONE', #184, .T. ) ;
#375 = VECTOR ( 'NONE', #449, 1000.000000000000000 ) ;
#376 = ORIENTED_EDGE ( 'NONE', *, *, #875, .F. ) ;
#377 = DIRECTION ( 'NONE',  ( 0.000000000000000000, 1.000000000000000000, 0.000000000000000000 ) ) ;
#378 = APPROVAL_DATE_TIME ( #94, #153 ) ;
#379 = AXIS2_PLACEMENT_3D ( 'NONE', #912, #274, #488 ) ;
#380 = EDGE_CURVE ( 'NONE', #827, #228, #37, .T. ) ;
#381 = LINE ( 'NONE', #241, #123 ) ;
#382 = VERTEX_POINT ( 'NONE', #481 ) ;
#383 = DIRECTION ( 'NONE',  ( 1.000000000000000000, 0.000000000000000000, 0.000000000000000000 ) ) ;
#384 = AXIS2_PLACEMENT_3D ( 'NONE', #230, #651, #587 ) ;
#385 = CARTESIAN_POINT ( 'NONE',  ( 12.90000000000000036, 0.000000000000000000, 6.999999999999999112 ) ) ;
#386 = EDGE_LOOP ( 'NONE', ( #782, #309, #106, #357 ) ) ;
#387 = CARTESIAN_POINT ( 'NONE',  ( -11.09999999999999964, 0.000000000000000000, 7.000000000000000000 ) ) ;
#388 = CARTESIAN_POINT ( 'NONE',  ( 0.000000000000000000, 22.00000000000000000, 4.000000000000000000 ) ) ;
#389 = EDGE_LOOP ( 'NONE', ( #136, #541, #14, #291 ) ) ;
#390 = AXIS2_PLACEMENT_3D ( 'NONE', #684, #819, #745 ) ;
#391 = DIRECTION ( 'NONE',  ( 0.000000000000000000, -1.000000000000000000, 0.000000000000000000 ) ) ;
#392 = DIRECTION ( 'NONE',  ( -1.000000000000000000, 0.000000000000000000, 0.000000000000000000 ) ) ;
#393 = CARTESIAN_POINT ( 'NONE',  ( -42.00000000000000000, 22.00000000000000000, 4.000000000000000000 ) ) ;
#394 = AXIS2_PLACEMENT_3D ( 'NONE', #829, #195, #137 ) ;
#395 = ORIENTED_EDGE ( 'NONE', *, *, #534, .T. ) ;
#396 = LINE ( 'NONE', #103, #735 ) ;
#397 = EDGE_CURVE ( 'NONE', #128, #87, #260, .T. ) ;
#398 = FACE_OUTER_BOUND ( 'NONE', #530, .T. ) ;
#399 = ORIENTED_EDGE ( 'NONE', *, *, #635, .T. ) ;
#400 = DIRECTION ( 'NONE',  ( 1.000000000000000000, 0.000000000000000000, -0.000000000000000000 ) ) ;
#401 = CC_DESIGN_DATE_AND_TIME_ASSIGNMENT ( #410, #47, ( #584 ) ) ;
#402 = LINE ( 'NONE', #691, #722 ) ;
#403 = ORIENTED_EDGE ( 'NONE', *, *, #436, .T. ) ;
#404 = LINE ( 'NONE', #690, #919 ) ;
#405 = AXIS2_PLACEMENT_3D ( 'NONE', #289, #64, #577 ) ;
#406 = CARTESIAN_POINT ( 'NONE',  ( 0.000000000000000000, 0.000000000000000000, 7.000000000000000000 ) ) ;
#407 = EDGE_CURVE ( 'NONE', #689, #115, #605, .T. ) ;
#408 = ORIENTED_EDGE ( 'NONE', *, *, #460, .F. ) ;
#409 = CARTESIAN_POINT ( 'NONE',  ( 14.00000000000000000, 0.000000000000000000, 6.999999999999999112 ) ) ;
#410 = DATE_AND_TIME ( #270, #349 ) ;
#411 = DIRECTION ( 'NONE',  ( 0.000000000000000000, 0.000000000000000000, 1.000000000000000000 ) ) ;
#412 = AXIS2_PLACEMENT_3D ( 'NONE', #673, #331, #265 ) ;
#413 = ORIENTED_EDGE ( 'NONE', *, *, #407, .F. ) ;
#414 = EDGE_CURVE ( 'NONE', #633, #224, #535, .T. ) ;
#415 = FACE_BOUND ( 'NONE', #620, .T. ) ;
#416 = CARTESIAN_POINT ( 'NONE',  ( -17.00000000000000000, 0.000000000000000000, 7.000000000000000000 ) ) ;
#417 = DIRECTION ( 'NONE',  ( 0.000000000000000000, 0.000000000000000000, -1.000000000000000000 ) ) ;
#418 = VERTEX_POINT ( 'NONE', #543 ) ;
#419 = DIRECTION ( 'NONE',  ( -0.000000000000000000, -1.000000000000000000, -0.000000000000000000 ) ) ;
#420 = VECTOR ( 'NONE', #731, 1000.000000000000000 ) ;
#421 = AXIS2_PLACEMENT_3D ( 'NONE', #845, #211, #848 ) ;
#422 = FACE_BOUND ( 'NONE', #502, .T. ) ;
#423 = PRODUCT ( 'ARM-105_Shoulder_bearing_cheek', 'ARM-105_Shoulder_bearing_cheek', '', ( #30 ) ) ;
#424 = EDGE_LOOP ( 'NONE', ( #74, #739 ) ) ;
#425 = DIRECTION ( 'NONE',  ( -1.000000000000000000, 0.000000000000000000, 0.000000000000000000 ) ) ;
#426 = AXIS2_PLACEMENT_3D ( 'NONE', #907, #832, #483 ) ;
#427 = ADVANCED_FACE ( 'NONE', ( #43 ), #470, .T. ) ;
#428 = CARTESIAN_POINT ( 'NONE',  ( -42.00000000000000000, -22.00000000000000000, 4.000000000000000000 ) ) ;
#429 = VERTEX_POINT ( 'NONE', #610 ) ;
#430 = ADVANCED_FACE ( 'NONE', ( #113 ), #897, .F. ) ;
#431 = ORIENTED_EDGE ( 'NONE', *, *, #144, .T. ) ;
#432 = ORIENTED_EDGE ( 'NONE', *, *, #414, .F. ) ;
#433 = DIRECTION ( 'NONE',  ( -0.000000000000000000, -0.000000000000000000, 1.000000000000000000 ) ) ;
#434 = VECTOR ( 'NONE', #271, 1000.000000000000000 ) ;
#435 = ORIENTED_EDGE ( 'NONE', *, *, #473, .T. ) ;
#436 = EDGE_CURVE ( 'NONE', #314, #689, #402, .T. ) ;
#437 = EDGE_LOOP ( 'NONE', ( #318, #851, #242, #821 ) ) ;
#438 = LINE ( 'NONE', #563, #854 ) ;
#439 = AXIS2_PLACEMENT_3D ( 'NONE', #269, #924, #686 ) ;
#440 = CARTESIAN_POINT ( 'NONE',  ( 0.000000000000000000, -17.00000000000000000, 4.000000000000000000 ) ) ;
#441 = EDGE_CURVE ( 'NONE', #442, #115, #761, .T. ) ;
#442 = VERTEX_POINT ( 'NONE', #225 ) ;
#443 = CARTESIAN_POINT ( 'NONE',  ( 0.000000000000000000, 0.000000000000000000, 7.000000000000000000 ) ) ;
#444 = DIRECTION ( 'NONE',  ( 1.000000000000000000, 0.000000000000000000, 0.000000000000000000 ) ) ;
#445 = ORIENTED_EDGE ( 'NONE', *, *, #144, .F. ) ;
#446 = CARTESIAN_POINT ( 'NONE',  ( 0.000000000000000000, -22.00000000000000000, 4.000000000000000000 ) ) ;
#447 = EDGE_CURVE ( 'NONE', #581, #509, #72, .T. ) ;
#448 = DATE_TIME_ROLE ( 'creation_date' ) ;
#449 = DIRECTION ( 'NONE',  ( 1.000000000000000000, 0.000000000000000000, 0.000000000000000000 ) ) ;
#450 = ORIENTED_EDGE ( 'NONE', *, *, #833, .T. ) ;
#451 = FACE_OUTER_BOUND ( 'NONE', #333, .T. ) ;
#452 = DATE_AND_TIME ( #41, #607 ) ;
#453 = APPROVAL ( #554, 'UNSPECIFIED' ) ;
#454 = VECTOR ( 'NONE', #803, 1000.000000000000000 ) ;
#455 = CARTESIAN_POINT ( 'NONE',  ( 17.00000000000000000, 2.081899558550500280E-15, 7.000000000000000000 ) ) ;
#456 = VERTEX_POINT ( 'NONE', #12 ) ;
#457 = DIRECTION ( 'NONE',  ( 0.000000000000000000, 0.000000000000000000, -1.000000000000000000 ) ) ;
#458 = CIRCLE ( 'NONE', #129, 1.599999999999997202 ) ;
#459 = DIRECTION ( 'NONE',  ( -0.000000000000000000, -0.000000000000000000, -1.000000000000000000 ) ) ;
#460 = EDGE_CURVE ( 'NONE', #788, #429, #438, .T. ) ;
#461 = ORIENTED_EDGE ( 'NONE', *, *, #290, .F. ) ;
#462 = FACE_OUTER_BOUND ( 'NONE', #277, .T. ) ;
#463 = DIRECTION ( 'NONE',  ( -1.000000000000000000, 0.000000000000000000, -0.000000000000000000 ) ) ;
#464 = FACE_OUTER_BOUND ( 'NONE', #110, .T. ) ;
#465 = ORIENTED_EDGE ( 'NONE', *, *, #864, .T. ) ;
#466 = EDGE_CURVE ( 'NONE', #342, #611, #532, .T. ) ;
#467 = AXIS2_PLACEMENT_3D ( 'NONE', #105, #791, #247 ) ;
#468 = DIRECTION ( 'NONE',  ( -0.000000000000000000, -0.000000000000000000, -1.000000000000000000 ) ) ;
#469 = CALENDAR_DATE ( 2026, 7, 9 ) ;
#470 = CYLINDRICAL_SURFACE ( 'NONE', #85, 17.00000000000000000 ) ;
#471 = CIRCLE ( 'NONE', #825, 1.599999999999997202 ) ;
#472 = ORIENTED_EDGE ( 'NONE', *, *, #480, .F. ) ;
#473 = EDGE_CURVE ( 'NONE', #611, #816, #657, .T. ) ;
#474 = ORIENTED_EDGE ( 'NONE', *, *, #737, .T. ) ;
#475 = DIRECTION ( 'NONE',  ( -0.000000000000000000, -0.000000000000000000, 1.000000000000000000 ) ) ;
#476 = PERSON_AND_ORGANIZATION ( #227, #562 ) ;
#477 = CARTESIAN_POINT ( 'NONE',  ( 0.000000000000000000, 14.00000000000000000, 6.999999999999999112 ) ) ;
#478 = ORIENTED_EDGE ( 'NONE', *, *, #507, .T. ) ;
#479 = CARTESIAN_POINT ( 'NONE',  ( 1.100000000000000089, -14.00000000000000000, 6.999999999999999112 ) ) ;
#480 = EDGE_CURVE ( 'NONE', #509, #581, #458, .T. ) ;
#481 = CARTESIAN_POINT ( 'NONE',  ( -1.100000000000000089, -14.00000000000000000, -1.000000000000000888 ) ) ;
#482 = VERTEX_POINT ( 'NONE', #775 ) ;
#483 = DIRECTION ( 'NONE',  ( -1.000000000000000000, 0.000000000000000000, 0.000000000000000000 ) ) ;
#484 = EDGE_CURVE ( 'NONE', #669, #87, #867, .T. ) ;
#485 = LINE ( 'NONE', #393, #434 ) ;
#486 = ORIENTED_EDGE ( 'NONE', *, *, #670, .F. ) ;
#487 = CIRCLE ( 'NONE', #111, 1.100000000000000311 ) ;
#488 = DIRECTION ( 'NONE',  ( 1.000000000000000000, 0.000000000000000000, 0.000000000000000000 ) ) ;
#489 = APPROVAL_PERSON_ORGANIZATION ( #251, #913, #683 ) ;
#490 = DIRECTION ( 'NONE',  ( 0.000000000000000000, 0.000000000000000000, 1.000000000000000000 ) ) ;
#491 = VECTOR ( 'NONE', #920, 1000.000000000000000 ) ;
#492 = DIRECTION ( 'NONE',  ( 1.000000000000000000, 0.000000000000000000, 0.000000000000000000 ) ) ;
#493 = DIRECTION ( 'NONE',  ( 0.000000000000000000, 0.000000000000000000, -1.000000000000000000 ) ) ;
#494 = APPROVAL_DATE_TIME ( #914, #453 ) ;
#495 = DIRECTION ( 'NONE',  ( -0.000000000000000000, -0.000000000000000000, -1.000000000000000000 ) ) ;
#496 = DIRECTION ( 'NONE',  ( 0.000000000000000000, -0.000000000000000000, 1.000000000000000000 ) ) ;
#497 = EDGE_CURVE ( 'NONE', #9, #753, #296, .T. ) ;
#498 = EDGE_LOOP ( 'NONE', ( #432, #39, #238, #928 ) ) ;
#499 = DIRECTION ( 'NONE',  ( -0.000000000000000000, -0.000000000000000000, -1.000000000000000000 ) ) ;
#500 = CIRCLE ( 'NONE', #155, 11.09999999999999964 ) ;
#501 = DIRECTION ( 'NONE',  ( 1.000000000000000000, 0.000000000000000000, 0.000000000000000000 ) ) ;
#502 = EDGE_LOOP ( 'NONE', ( #32, #102 ) ) ;
#503 = ADVANCED_FACE ( 'NONE', ( #88 ), #346, .F. ) ;
#504 = VECTOR ( 'NONE', #857, 1000.000000000000000 ) ;
#505 = DIRECTION ( 'NONE',  ( 0.000000000000000000, 0.000000000000000000, 1.000000000000000000 ) ) ;
#506 = ORIENTED_EDGE ( 'NONE', *, *, #646, .F. ) ;
#507 = EDGE_CURVE ( 'NONE', #418, #51, #55, .T. ) ;
#508 = VERTEX_POINT ( 'NONE', #632 ) ;
#509 = VERTEX_POINT ( 'NONE', #305 ) ;
#510 = DIRECTION ( 'NONE',  ( 0.000000000000000000, 0.000000000000000000, -1.000000000000000000 ) ) ;
#511 = DIRECTION ( 'NONE',  ( 0.000000000000000000, 0.000000000000000000, 1.000000000000000000 ) ) ;
#512 = ORIENTED_EDGE ( 'NONE', *, *, #597, .F. ) ;
#513 = CARTESIAN_POINT ( 'NONE',  ( 0.000000000000000000, 14.00000000000000000, -1.000000000000000888 ) ) ;
#514 = VECTOR ( 'NONE', #836, 1000.000000000000000 ) ;
#515 = DIRECTION ( 'NONE',  ( -0.000000000000000000, -0.000000000000000000, -1.000000000000000000 ) ) ;
#516 = ORIENTED_EDGE ( 'NONE', *, *, #119, .T. ) ;
#517 = CARTESIAN_POINT ( 'NONE',  ( -36.00000000000000000, -18.00000000000000000, 0.000000000000000000 ) ) ;
#518 = CYLINDRICAL_SURFACE ( 'NONE', #69, 1.100000000000000089 ) ;
#519 = DIRECTION ( 'NONE',  ( 0.000000000000000000, 0.000000000000000000, -1.000000000000000000 ) ) ;
#520 = ORIENTED_EDGE ( 'NONE', *, *, #783, .T. ) ;
#521 = EDGE_CURVE ( 'NONE', #168, #652, #79, .T. ) ;
#522 = PLANE ( 'NONE',  #236 ) ;
#523 = DIRECTION ( 'NONE',  ( 0.000000000000000000, 0.000000000000000000, 1.000000000000000000 ) ) ;
#524 = CARTESIAN_POINT ( 'NONE',  ( 11.09999999999999964, 1.359357947053562156E-15, 7.000000000000000000 ) ) ;
#525 = VECTOR ( 'NONE', #171, 1000.000000000000000 ) ;
#526 = CIRCLE ( 'NONE', #763, 11.09999999999999964 ) ;
#527 = VERTEX_POINT ( 'NONE', #866 ) ;
#528 = CARTESIAN_POINT ( 'NONE',  ( 0.000000000000000000, -14.00000000000000000, 6.999999999999999112 ) ) ;
#529 = DIRECTION ( 'NONE',  ( -1.000000000000000000, 0.000000000000000000, 0.000000000000000000 ) ) ;
#530 = EDGE_LOOP ( 'NONE', ( #152, #623, #267, #261 ) ) ;
#531 = CARTESIAN_POINT ( 'NONE',  ( -36.00000000000000000, -18.00000000000000000, 6.999999999999999112 ) ) ;
#532 = CIRCLE ( 'NONE', #811, 1.100000000000000089 ) ;
#533 = DIRECTION ( 'NONE',  ( 1.000000000000000000, 0.000000000000000000, 0.000000000000000000 ) ) ;
#534 = EDGE_CURVE ( 'NONE', #816, #283, #905, .T. ) ;
#535 = LINE ( 'NONE', #815, #828 ) ;
#536 = ORIENTED_EDGE ( 'NONE', *, *, #466, .F. ) ;
#537 = CARTESIAN_POINT ( 'NONE',  ( 0.000000000000000000, -14.00000000000000000, 6.999999999999999112 ) ) ;
#538 = APPROVAL_STATUS ( 'not_yet_approved' ) ;
#539 = DIRECTION ( 'NONE',  ( 0.000000000000000000, 0.000000000000000000, -1.000000000000000000 ) ) ;
#540 = EDGE_CURVE ( 'NONE', #365, #606, #915, .T. ) ;
#541 = ORIENTED_EDGE ( 'NONE', *, *, #497, .T. ) ;
#542 = CARTESIAN_POINT ( 'NONE',  ( 0.000000000000000000, 0.000000000000000000, 0.000000000000000000 ) ) ;
#543 = CARTESIAN_POINT ( 'NONE',  ( -34.39999999999999858, -18.00000000000000000, 4.000000000000000000 ) ) ;
#544 = AXIS2_PLACEMENT_3D ( 'NONE', #409, #57, #131 ) ;
#545 = EDGE_LOOP ( 'NONE', ( #461, #911, #556, #234 ) ) ;
#546 = EDGE_CURVE ( 'NONE', #51, #509, #62, .T. ) ;
#547 = DIRECTION ( 'NONE',  ( 0.000000000000000000, 0.000000000000000000, 1.000000000000000000 ) ) ;
#548 = VECTOR ( 'NONE', #909, 1000.000000000000000 ) ;
#549 = LINE ( 'NONE', #766, #29 ) ;
#550 = ORIENTED_EDGE ( 'NONE', *, *, #767, .T. ) ;
#551 = EDGE_LOOP ( 'NONE', ( #254, #435, #395, #746 ) ) ;
#552 = CARTESIAN_POINT ( 'NONE',  ( -9.000000000000000000, 0.000000000000000000, 0.000000000000000000 ) ) ;
#553 = EDGE_CURVE ( 'NONE', #456, #753, #626, .T. ) ;
#554 = APPROVAL_STATUS ( 'not_yet_approved' ) ;
#555 = PLANE ( 'NONE',  #390 ) ;
#556 = ORIENTED_EDGE ( 'NONE', *, *, #521, .T. ) ;
#557 = CARTESIAN_POINT ( 'NONE',  ( 0.000000000000000000, 22.00000000000000000, 0.000000000000000000 ) ) ;
#558 = CARTESIAN_POINT ( 'NONE',  ( 1.100000000000000089, 14.00000000000000000, 6.999999999999999112 ) ) ;
#559 = CARTESIAN_POINT ( 'NONE',  ( -42.00000000000000000, 22.00000000000000000, 4.000000000000000000 ) ) ;
#560 = CIRCLE ( 'NONE', #749, 17.00000000000000000 ) ;
#561 = DIRECTION ( 'NONE',  ( -0.000000000000000000, -0.000000000000000000, -1.000000000000000000 ) ) ;
#562 = ORGANIZATION ( 'UNSPECIFIED', 'UNSPECIFIED', '' ) ;
#563 = CARTESIAN_POINT ( 'NONE',  ( -42.00000000000000000, 22.00000000000000000, 0.000000000000000000 ) ) ;
#564 = EDGE_CURVE ( 'NONE', #365, #128, #576, .T. ) ;
#565 = PLANE ( 'NONE',  #421 ) ;
#566 = ORIENTED_EDGE ( 'NONE', *, *, #164, .T. ) ;
#567 = LINE ( 'NONE', #143, #18 ) ;
#568 = PRODUCT_DEFINITION_SHAPE ( 'NONE', 'NONE',  #742 ) ;
#569 = FACE_BOUND ( 'NONE', #424, .T. ) ;
#570 = ORIENTED_EDGE ( 'NONE', *, *, #397, .T. ) ;
#571 = CIRCLE ( 'NONE', #896, 9.000000000000000000 ) ;
#572 = PLANE ( 'NONE',  #335 ) ;
#573 = ORIENTED_EDGE ( 'NONE', *, *, #484, .T. ) ;
#574 = AXIS2_PLACEMENT_3D ( 'NONE', #185, #328, #244 ) ;
#575 = EDGE_CURVE ( 'NONE', #633, #77, #636, .T. ) ;
#576 = CIRCLE ( 'NONE', #694, 17.00000000000000000 ) ;
#577 = DIRECTION ( 'NONE',  ( -1.000000000000000000, 0.000000000000000000, 0.000000000000000000 ) ) ;
#578 = ORIENTED_EDGE ( 'NONE', *, *, #330, .T. ) ;
#579 = DIRECTION ( 'NONE',  ( -0.000000000000000000, -0.000000000000000000, -1.000000000000000000 ) ) ;
#580 = DIRECTION ( 'NONE',  ( -1.000000000000000000, 0.000000000000000000, 0.000000000000000000 ) ) ;
#581 = VERTEX_POINT ( 'NONE', #280 ) ;
#582 = DIRECTION ( 'NONE',  ( 1.000000000000000000, 0.000000000000000000, 0.000000000000000000 ) ) ;
#583 = DESIGN_CONTEXT ( 'detailed design', #58, 'design' ) ;
#584 = SECURITY_CLASSIFICATION ( '', '', #908 ) ;
#585 = DIRECTION ( 'NONE',  ( -0.000000000000000000, -0.000000000000000000, -1.000000000000000000 ) ) ;
#586 = EDGE_LOOP ( 'NONE', ( #650, #44 ) ) ;
#587 = DIRECTION ( 'NONE',  ( -1.000000000000000000, 0.000000000000000000, 0.000000000000000000 ) ) ;
#588 = CIRCLE ( 'NONE', #439, 9.000000000000000000 ) ;
#589 = FACE_BOUND ( 'NONE', #300, .T. ) ;
#590 = EDGE_CURVE ( 'NONE', #215, #168, #252, .T. ) ;
#591 = VECTOR ( 'NONE', #83, 1000.000000000000000 ) ;
#592 = EDGE_LOOP ( 'NONE', ( #550, #486, #134, #82 ) ) ;
#593 = CARTESIAN_POINT ( 'NONE',  ( -17.00000000000000000, 0.000000000000000000, 4.000000000000000000 ) ) ;
#594 = PERSON_AND_ORGANIZATION_ROLE ( 'creator' ) ;
#595 = CARTESIAN_POINT ( 'NONE',  ( 14.00000000000000000, 0.000000000000000000, -1.000000000000000888 ) ) ;
#596 = ORIENTED_EDGE ( 'NONE', *, *, #540, .F. ) ;
#597 = EDGE_CURVE ( 'NONE', #228, #382, #770, .T. ) ;
#598 = DIRECTION ( 'NONE',  ( -1.000000000000000000, 0.000000000000000000, 0.000000000000000000 ) ) ;
#599 = APPROVAL_STATUS ( 'not_yet_approved' ) ;
#600 = DIRECTION ( 'NONE',  ( -0.000000000000000000, -0.000000000000000000, -1.000000000000000000 ) ) ;
#601 = VERTEX_POINT ( 'NONE', #612 ) ;
#602 = CARTESIAN_POINT ( 'NONE',  ( -36.00000000000000000, 18.00000000000000000, 6.999999999999999112 ) ) ;
#603 = ADVANCED_FACE ( 'NONE', ( #451, #34 ), #522, .T. ) ;
#604 = FACE_OUTER_BOUND ( 'NONE', #923, .T. ) ;
#605 = LINE ( 'NONE', #253, #886 ) ;
#606 = VERTEX_POINT ( 'NONE', #593 ) ;
#607 = LOCAL_TIME ( 22, 50, 21.00000000000000000, #889 ) ;
#608 = FACE_OUTER_BOUND ( 'NONE', #258, .T. ) ;
#609 = APPLICATION_PROTOCOL_DEFINITION ( 'international standard', 'config_control_design', 1994, #58 ) ;
#610 = CARTESIAN_POINT ( 'NONE',  ( -42.00000000000000000, 22.00000000000000000, 0.000000000000000000 ) ) ;
#611 = VERTEX_POINT ( 'NONE', #324 ) ;
#612 = CARTESIAN_POINT ( 'NONE',  ( -17.00000000000000000, 0.000000000000000000, 0.000000000000000000 ) ) ;
#613 = DATE_AND_TIME ( #256, #207 ) ;
#614 = CARTESIAN_POINT ( 'NONE',  ( 17.00000000000000000, 2.081899558550500280E-15, 7.000000000000000000 ) ) ;
#615 = EDGE_CURVE ( 'NONE', #647, #827, #752, .T. ) ;
#616 = AXIS2_PLACEMENT_3D ( 'NONE', #151, #206, #492 ) ;
#617 = ORIENTED_EDGE ( 'NONE', *, *, #369, .T. ) ;
#618 = VECTOR ( 'NONE', #75, 1000.000000000000000 ) ;
#619 = APPROVAL_PERSON_ORGANIZATION ( #476, #453, #627 ) ;
#620 = EDGE_LOOP ( 'NONE', ( #376, #512 ) ) ;
#621 = CARTESIAN_POINT ( 'NONE',  ( -36.00000000000000000, -18.00000000000000000, 4.000000000000000000 ) ) ;
#622 = DIRECTION ( 'NONE',  ( -1.000000000000000000, 0.000000000000000000, 0.000000000000000000 ) ) ;
#623 = ORIENTED_EDGE ( 'NONE', *, *, #822, .T. ) ;
#624 = EDGE_CURVE ( 'NONE', #827, #647, #158, .T. ) ;
#625 = CARTESIAN_POINT ( 'NONE',  ( 9.000000000000000000, 1.102182119232617714E-15, -1.000000000000000000 ) ) ;
#626 = CIRCLE ( 'NONE', #221, 9.000000000000000000 ) ;
#627 = APPROVAL_ROLE ( '' ) ;
#628 = DIRECTION ( 'NONE',  ( -0.000000000000000000, -0.000000000000000000, -1.000000000000000000 ) ) ;
#629 = EDGE_LOOP ( 'NONE', ( #892, #798 ) ) ;
#630 = DIRECTION ( 'NONE',  ( 1.000000000000000000, 0.000000000000000000, 0.000000000000000000 ) ) ;
#631 = ADVANCED_FACE ( 'NONE', ( #894 ), #682, .F. ) ;
#632 = CARTESIAN_POINT ( 'NONE',  ( 0.000000000000000000, -22.00000000000000000, 0.000000000000000000 ) ) ;
#633 = VERTEX_POINT ( 'NONE', #250 ) ;
#634 = CARTESIAN_POINT ( 'NONE',  ( 0.000000000000000000, 14.00000000000000000, -1.000000000000000888 ) ) ;
#635 = EDGE_CURVE ( 'NONE', #116, #482, #876, .T. ) ;
#636 = LINE ( 'NONE', #370, #491 ) ;
#637 = LINE ( 'NONE', #214, #618 ) ;
#638 = VECTOR ( 'NONE', #769, 1000.000000000000000 ) ;
#639 = ORIENTED_EDGE ( 'NONE', *, *, #205, .F. ) ;
#640 = CARTESIAN_POINT ( 'NONE',  ( 0.000000000000000000, 14.00000000000000000, 6.999999999999999112 ) ) ;
#641 = AXIS2_PLACEMENT_3D ( 'NONE', #790, #720, #654 ) ;
#642 = DIRECTION ( 'NONE',  ( -0.000000000000000000, -0.000000000000000000, -1.000000000000000000 ) ) ;
#643 = ORIENTED_EDGE ( 'NONE', *, *, #564, .F. ) ;
#644 = FACE_OUTER_BOUND ( 'NONE', #893, .T. ) ;
#645 = CARTESIAN_POINT ( 'NONE',  ( 0.000000000000000000, -14.00000000000000000, 6.999999999999999112 ) ) ;
#646 = EDGE_CURVE ( 'NONE', #880, #9, #217, .T. ) ;
#647 = VERTEX_POINT ( 'NONE', #28 ) ;
#648 = AXIS2_PLACEMENT_3D ( 'NONE', #859, #515, #664 ) ;
#649 = CARTESIAN_POINT ( 'NONE',  ( -42.00000000000000000, -22.00000000000000000, 4.000000000000000000 ) ) ;
#650 = ORIENTED_EDGE ( 'NONE', *, *, #553, .T. ) ;
#651 = DIRECTION ( 'NONE',  ( 0.000000000000000000, 0.000000000000000000, -1.000000000000000000 ) ) ;
#652 = VERTEX_POINT ( 'NONE', #734 ) ;
#653 = ORIENTED_EDGE ( 'NONE', *, *, #150, .F. ) ;
#654 = DIRECTION ( 'NONE',  ( -1.000000000000000000, 0.000000000000000000, 0.000000000000000000 ) ) ;
#655 = PLANE ( 'NONE',  #916 ) ;
#656 = EDGE_LOOP ( 'NONE', ( #674, #372 ) ) ;
#657 = LINE ( 'NONE', #558, #784 ) ;
#658 = ADVANCED_FACE ( 'NONE', ( #99 ), #817, .F. ) ;
#659 = DIRECTION ( 'NONE',  ( -1.000000000000000000, 0.000000000000000000, 0.000000000000000000 ) ) ;
#660 = ORIENTED_EDGE ( 'NONE', *, *, #687, .T. ) ;
#661 = FACE_OUTER_BOUND ( 'NONE', #142, .T. ) ;
#662 = AXIS2_PLACEMENT_3D ( 'NONE', #173, #316, #239 ) ;
#663 = PERSON_AND_ORGANIZATION ( #227, #562 ) ;
#664 = DIRECTION ( 'NONE',  ( 1.000000000000000000, 0.000000000000000000, 0.000000000000000000 ) ) ;
#665 = AXIS2_PLACEMENT_3D ( 'NONE', #373, #799, #839 ) ;
#666 = ORIENTED_EDGE ( 'NONE', *, *, #546, .T. ) ;
#667 = CARTESIAN_POINT ( 'NONE',  ( -17.00000000000000000, 0.000000000000000000, -1.000000000000000000 ) ) ;
#668 = CARTESIAN_POINT ( 'NONE',  ( -42.00000000000000000, -22.00000000000000000, 0.000000000000000000 ) ) ;
#669 = VERTEX_POINT ( 'NONE', #667 ) ;
#670 = EDGE_CURVE ( 'NONE', #314, #338, #740, .T. ) ;
#671 = DIRECTION ( 'NONE',  ( 1.000000000000000000, 0.000000000000000000, 0.000000000000000000 ) ) ;
#672 =( NAMED_UNIT ( * ) PLANE_ANGLE_UNIT ( ) SI_UNIT ( $, .RADIAN. ) );
#673 = CARTESIAN_POINT ( 'NONE',  ( -36.00000000000000000, -18.00000000000000000, 6.999999999999999112 ) ) ;
#674 = ORIENTED_EDGE ( 'NONE', *, *, #755, .F. ) ;
#675 = ADVANCED_FACE ( 'NONE', ( #608 ), #882, .F. ) ;
#676 = DIRECTION ( 'NONE',  ( 0.000000000000000000, -0.000000000000000000, -1.000000000000000000 ) ) ;
#677 =( NAMED_UNIT ( * ) SI_UNIT ( $, .STERADIAN. ) SOLID_ANGLE_UNIT ( ) );
#678 = AXIS2_PLACEMENT_3D ( 'NONE', #640, #702, #66 ) ;
#679 = CARTESIAN_POINT ( 'NONE',  ( -1.100000000000000089, 14.00000000000000000, 6.999999999999999112 ) ) ;
#680 = EDGE_LOOP ( 'NONE', ( #506, #344 ) ) ;
#681 = AXIS2_PLACEMENT_3D ( 'NONE', #707, #499, #71 ) ;
#682 = CYLINDRICAL_SURFACE ( 'NONE', #662, 1.100000000000000089 ) ;
#683 = APPROVAL_ROLE ( '' ) ;
#684 = CARTESIAN_POINT ( 'NONE',  ( 0.000000000000000000, -22.00000000000000000, 4.000000000000000000 ) ) ;
#685 = ORIENTED_EDGE ( 'NONE', *, *, #797, .T. ) ;
#686 = DIRECTION ( 'NONE',  ( 1.000000000000000000, 0.000000000000000000, 0.000000000000000000 ) ) ;
#687 = EDGE_CURVE ( 'NONE', #689, #508, #396, .T. ) ;
#688 = DIRECTION ( 'NONE',  ( 1.000000000000000000, 0.000000000000000000, 0.000000000000000000 ) ) ;
#689 = VERTEX_POINT ( 'NONE', #446 ) ;
#690 = CARTESIAN_POINT ( 'NONE',  ( 0.000000000000000000, -22.00000000000000000, 0.000000000000000000 ) ) ;
#691 = CARTESIAN_POINT ( 'NONE',  ( -42.00000000000000000, -22.00000000000000000, 4.000000000000000000 ) ) ;
#692 = EDGE_LOOP ( 'NONE', ( #367, #520, #617, #465 ) ) ;
#693 = FACE_BOUND ( 'NONE', #869, .T. ) ;
#694 = AXIS2_PLACEMENT_3D ( 'NONE', #443, #695, #59 ) ;
#695 = DIRECTION ( 'NONE',  ( 0.000000000000000000, 0.000000000000000000, 1.000000000000000000 ) ) ;
#696 = VERTEX_POINT ( 'NONE', #387 ) ;
#697 = EDGE_CURVE ( 'NONE', #527, #362, #487, .T. ) ;
#698 = CARTESIAN_POINT ( 'NONE',  ( 0.000000000000000000, 0.000000000000000000, -1.000000000000000000 ) ) ;
#699 = CARTESIAN_POINT ( 'NONE',  ( -37.59999999999999432, 18.00000000000000000, 6.999999999999999112 ) ) ;
#700 = CARTESIAN_POINT ( 'NONE',  ( 17.00000000000000000, 2.081899558550500280E-15, -1.000000000000000000 ) ) ;
#701 = ORIENTED_EDGE ( 'NONE', *, *, #862, .F. ) ;
#702 = DIRECTION ( 'NONE',  ( 0.000000000000000000, 0.000000000000000000, 1.000000000000000000 ) ) ;
#703 = CC_DESIGN_SECURITY_CLASSIFICATION ( #584, ( #325 ) ) ;
#704 = LINE ( 'NONE', #718, #78 ) ;
#705 = AXIS2_PLACEMENT_3D ( 'NONE', #528, #310, #871 ) ;
#706 = ORIENTED_EDGE ( 'NONE', *, *, #697, .F. ) ;
#707 = CARTESIAN_POINT ( 'NONE',  ( 0.000000000000000000, -14.00000000000000000, -1.000000000000000888 ) ) ;
#708 = AXIS2_PLACEMENT_3D ( 'NONE', #209, #493, #425 ) ;
#709 = VECTOR ( 'NONE', #510, 1000.000000000000000 ) ;
#710 = EDGE_CURVE ( 'NONE', #77, #788, #93, .T. ) ;
#711 = DIRECTION ( 'NONE',  ( 1.000000000000000000, 0.000000000000000000, 0.000000000000000000 ) ) ;
#712 = EDGE_LOOP ( 'NONE', ( #536, #733 ) ) ;
#713 = ADVANCED_FACE ( 'NONE', ( #661 ), #319, .F. ) ;
#714 = DIRECTION ( 'NONE',  ( 1.000000000000000000, 0.000000000000000000, 0.000000000000000000 ) ) ;
#715 = ORIENTED_EDGE ( 'NONE', *, *, #441, .F. ) ;
#716 = CARTESIAN_POINT ( 'NONE',  ( -36.00000000000000000, -18.00000000000000000, 4.000000000000000000 ) ) ;
#717 = CIRCLE ( 'NONE', #92, 17.00000000000000000 ) ;
#718 = CARTESIAN_POINT ( 'NONE',  ( -42.00000000000000000, 22.00000000000000000, 4.000000000000000000 ) ) ;
#719 = ORIENTED_EDGE ( 'NONE', *, *, #484, .F. ) ;
#720 = DIRECTION ( 'NONE',  ( -0.000000000000000000, -0.000000000000000000, 1.000000000000000000 ) ) ;
#721 = CC_DESIGN_APPROVAL ( #913, ( #742 ) ) ;
#722 = VECTOR ( 'NONE', #688, 1000.000000000000000 ) ;
#723 = CARTESIAN_POINT ( 'NONE',  ( -34.39999999999999858, 18.00000000000000000, 4.000000000000000000 ) ) ;
#724 = ORIENTED_EDGE ( 'NONE', *, *, #42, .T. ) ;
#725 = ADVANCED_FACE ( 'NONE', ( #462 ), #744, .F. ) ;
#726 = DIRECTION ( 'NONE',  ( 1.000000000000000000, 0.000000000000000000, 0.000000000000000000 ) ) ;
#727 = FACE_OUTER_BOUND ( 'NONE', #498, .T. ) ;
#728 = ORIENTED_EDGE ( 'NONE', *, *, #540, .T. ) ;
#729 = CARTESIAN_POINT ( 'NONE',  ( 14.00000000000000000, 0.000000000000000000, -1.000000000000000888 ) ) ;
#730 = PERSON_AND_ORGANIZATION ( #227, #562 ) ;
#731 = DIRECTION ( 'NONE',  ( -0.000000000000000000, -0.000000000000000000, -1.000000000000000000 ) ) ;
#732 = MANIFOLD_SOLID_BREP ( 'Bearing_keeper_fasteners', #288 ) ;
#733 = ORIENTED_EDGE ( 'NONE', *, *, #783, .F. ) ;
#734 = CARTESIAN_POINT ( 'NONE',  ( -37.59999999999999432, 18.00000000000000000, 0.000000000000000000 ) ) ;
#735 = VECTOR ( 'NONE', #165, 1000.000000000000000 ) ;
#736 = PERSON_AND_ORGANIZATION ( #227, #562 ) ;
#737 = EDGE_CURVE ( 'NONE', #87, #669, #560, .T. ) ;
#738 = DIRECTION ( 'NONE',  ( 1.000000000000000000, 0.000000000000000000, 0.000000000000000000 ) ) ;
#739 = ORIENTED_EDGE ( 'NONE', *, *, #27, .F. ) ;
#740 = LINE ( 'NONE', #23, #881 ) ;
#741 = DIRECTION ( 'NONE',  ( -1.000000000000000000, 0.000000000000000000, 0.000000000000000000 ) ) ;
#742 = PRODUCT_DEFINITION ( 'UNKNOWN', '', #325, #583 ) ;
#743 = ORIENTED_EDGE ( 'NONE', *, *, #534, .F. ) ;
#744 = PLANE ( 'NONE',  #98 ) ;
#745 = DIRECTION ( 'NONE',  ( 0.000000000000000000, 0.000000000000000000, 1.000000000000000000 ) ) ;
#746 = ORIENTED_EDGE ( 'NONE', *, *, #369, .F. ) ;
#747 = DIRECTION ( 'NONE',  ( -0.000000000000000000, -0.000000000000000000, -1.000000000000000000 ) ) ;
#748 = CARTESIAN_POINT ( 'NONE',  ( 0.000000000000000000, 0.000000000000000000, 0.000000000000000000 ) ) ;
#749 = AXIS2_PLACEMENT_3D ( 'NONE', #774, #284, #334 ) ;
#750 = DIRECTION ( 'NONE',  ( -0.000000000000000000, -0.000000000000000000, -1.000000000000000000 ) ) ;
#751 = ORIENTED_EDGE ( 'NONE', *, *, #804, .T. ) ;
#752 = CIRCLE ( 'NONE', #355, 1.100000000000000089 ) ;
#753 = VERTEX_POINT ( 'NONE', #625 ) ;
#754 = DIRECTION ( 'NONE',  ( -0.000000000000000000, -0.000000000000000000, -1.000000000000000000 ) ) ;
#755 = EDGE_CURVE ( 'NONE', #51, #418, #471, .T. ) ;
#756 = SHAPE_DEFINITION_REPRESENTATION ( #568, #306 ) ;
#757 = DIRECTION ( 'NONE',  ( 0.000000000000000000, 0.000000000000000000, -1.000000000000000000 ) ) ;
#758 = ORIENTED_EDGE ( 'NONE', *, *, #480, .T. ) ;
#759 = CARTESIAN_POINT ( 'NONE',  ( -34.39999999999999858, -18.00000000000000000, 6.999999999999999112 ) ) ;
#760 = PRODUCT_RELATED_PRODUCT_CATEGORY ( 'detail', '', ( #423 ) ) ;
#761 = LINE ( 'NONE', #340, #591 ) ;
#762 = ORIENTED_EDGE ( 'NONE', *, *, #42, .F. ) ;
#763 = AXIS2_PLACEMENT_3D ( 'NONE', #218, #852, #714 ) ;
#764 = ORIENTED_EDGE ( 'NONE', *, *, #737, .F. ) ;
#765 = FACE_OUTER_BOUND ( 'NONE', #304, .T. ) ;
#766 = CARTESIAN_POINT ( 'NONE',  ( -34.39999999999999858, 18.00000000000000000, 6.999999999999999112 ) ) ;
#767 = EDGE_CURVE ( 'NONE', #429, #338, #824, .T. ) ;
#768 = ORIENTED_EDGE ( 'NONE', *, *, #890, .F. ) ;
#769 = DIRECTION ( 'NONE',  ( -0.000000000000000000, -0.000000000000000000, -1.000000000000000000 ) ) ;
#770 = CIRCLE ( 'NONE', #208, 1.100000000000000089 ) ;
#771 = DIRECTION ( 'NONE',  ( 1.000000000000000000, 0.000000000000000000, 0.000000000000000000 ) ) ;
#772 = CYLINDRICAL_SURFACE ( 'NONE', #805, 1.100000000000000089 ) ;
#773 = EDGE_CURVE ( 'NONE', #753, #456, #588, .T. ) ;
#774 = CARTESIAN_POINT ( 'NONE',  ( 0.000000000000000000, 0.000000000000000000, -1.000000000000000000 ) ) ;
#775 = CARTESIAN_POINT ( 'NONE',  ( 11.09999999999999964, 1.359357947053562156E-15, 0.000000000000000000 ) ) ;
#776 = CARTESIAN_POINT ( 'NONE',  ( 0.000000000000000000, 0.000000000000000000, 0.000000000000000000 ) ) ;
#777 = ORIENTED_EDGE ( 'NONE', *, *, #575, .F. ) ;
#778 = FACE_BOUND ( 'NONE', #352, .T. ) ;
#779 = EDGE_CURVE ( 'NONE', #696, #363, #190, .T. ) ;
#780 = EDGE_LOOP ( 'NONE', ( #163, #399, #933, #802 ) ) ;
#781 = CIRCLE ( 'NONE', #394, 1.100000000000000311 ) ;
#782 = ORIENTED_EDGE ( 'NONE', *, *, #635, .F. ) ;
#783 = EDGE_CURVE ( 'NONE', #611, #342, #33, .T. ) ;
#784 = VECTOR ( 'NONE', #204, 1000.000000000000000 ) ;
#785 = CYLINDRICAL_SURFACE ( 'NONE', #405, 11.09999999999999964 ) ;
#786 = ORIENTED_EDGE ( 'NONE', *, *, #862, .T. ) ;
#787 = ORIENTED_EDGE ( 'NONE', *, *, #245, .T. ) ;
#788 = VERTEX_POINT ( 'NONE', #557 ) ;
#789 = CIRCLE ( 'NONE', #648, 1.599999999999997202 ) ;
#790 = CARTESIAN_POINT ( 'NONE',  ( -36.00000000000000000, 18.00000000000000000, 4.000000000000000000 ) ) ;
#791 = DIRECTION ( 'NONE',  ( 0.000000000000000000, 0.000000000000000000, 1.000000000000000000 ) ) ;
#792 = ADVANCED_FACE ( 'NONE', ( #201, #415, #693, #264, #117 ), #353, .F. ) ;
#793 = ORIENTED_EDGE ( 'NONE', *, *, #397, .F. ) ;
#794 = AXIS2_PLACEMENT_3D ( 'NONE', #531, #457, #598 ) ;
#795 = DIRECTION ( 'NONE',  ( -1.000000000000000000, -0.000000000000000000, -0.000000000000000000 ) ) ;
#796 = FACE_OUTER_BOUND ( 'NONE', #386, .T. ) ;
#797 = EDGE_CURVE ( 'NONE', #121, #874, #781, .T. ) ;
#798 = ORIENTED_EDGE ( 'NONE', *, *, #797, .F. ) ;
#799 = DIRECTION ( 'NONE',  ( -0.000000000000000000, -0.000000000000000000, -1.000000000000000000 ) ) ;
#800 =( LENGTH_UNIT ( ) NAMED_UNIT ( * ) SI_UNIT ( .MILLI., .METRE. ) );
#801 = DIRECTION ( 'NONE',  ( 0.000000000000000000, 0.000000000000000000, 1.000000000000000000 ) ) ;
#802 = ORIENTED_EDGE ( 'NONE', *, *, #779, .F. ) ;
#803 = DIRECTION ( 'NONE',  ( -0.000000000000000000, -0.000000000000000000, -1.000000000000000000 ) ) ;
#804 = EDGE_CURVE ( 'NONE', #508, #442, #404, .T. ) ;
#805 = AXIS2_PLACEMENT_3D ( 'NONE', #645, #417, #68 ) ;
#806 = CARTESIAN_POINT ( 'NONE',  ( -37.59999999999999432, 18.00000000000000000, 4.000000000000000000 ) ) ;
#807 = ORIENTED_EDGE ( 'NONE', *, *, #286, .T. ) ;
#808 = DIRECTION ( 'NONE',  ( 1.000000000000000000, 0.000000000000000000, 0.000000000000000000 ) ) ;
#809 = APPROVAL_ROLE ( '' ) ;
#810 = DIRECTION ( 'NONE',  ( 1.000000000000000000, 0.000000000000000000, -0.000000000000000000 ) ) ;
#811 = AXIS2_PLACEMENT_3D ( 'NONE', #276, #844, #210 ) ;
#812 = ORIENTED_EDGE ( 'NONE', *, *, #590, .F. ) ;
#813 = DIRECTION ( 'NONE',  ( 0.000000000000000000, 0.000000000000000000, -1.000000000000000000 ) ) ;
#814 = CARTESIAN_POINT ( 'NONE',  ( 0.000000000000000000, -14.00000000000000000, 6.999999999999999112 ) ) ;
#815 = CARTESIAN_POINT ( 'NONE',  ( 0.000000000000000000, -22.00000000000000000, 4.000000000000000000 ) ) ;
#816 = VERTEX_POINT ( 'NONE', #918 ) ;
#817 = CYLINDRICAL_SURFACE ( 'NONE', #794, 1.599999999999997202 ) ;
#818 = COORDINATED_UNIVERSAL_TIME_OFFSET ( 6, 0, .BEHIND. ) ;
#819 = DIRECTION ( 'NONE',  ( -1.000000000000000000, 0.000000000000000000, 0.000000000000000000 ) ) ;
#820 = AXIS2_PLACEMENT_3D ( 'NONE', #162, #519, #659 ) ;
#821 = ORIENTED_EDGE ( 'NONE', *, *, #875, .T. ) ;
#822 = EDGE_CURVE ( 'NONE', #418, #581, #52, .T. ) ;
#823 = ORIENTED_EDGE ( 'NONE', *, *, #564, .T. ) ;
#824 = LINE ( 'NONE', #198, #231 ) ;
#825 = AXIS2_PLACEMENT_3D ( 'NONE', #621, #475, #901 ) ;
#826 = CYLINDRICAL_SURFACE ( 'NONE', #412, 1.599999999999997202 ) ;
#827 = VERTEX_POINT ( 'NONE', #479 ) ;
#828 = VECTOR ( 'NONE', #182, 1000.000000000000000 ) ;
#829 = CARTESIAN_POINT ( 'NONE',  ( 14.00000000000000000, 0.000000000000000000, 6.999999999999999112 ) ) ;
#830 = CARTESIAN_POINT ( 'NONE',  ( -36.00000000000000000, 18.00000000000000000, 4.000000000000000000 ) ) ;
#831 = ORIENTED_EDGE ( 'NONE', *, *, #864, .F. ) ;
#832 = DIRECTION ( 'NONE',  ( 0.000000000000000000, 0.000000000000000000, -1.000000000000000000 ) ) ;
#833 = EDGE_CURVE ( 'NONE', #880, #456, #278, .T. ) ;
#834 = DIRECTION ( 'NONE',  ( 1.000000000000000000, 0.000000000000000000, 0.000000000000000000 ) ) ;
#835 = ORIENTED_EDGE ( 'NONE', *, *, #858, .T. ) ;
#836 = DIRECTION ( 'NONE',  ( 0.000000000000000000, 0.000000000000000000, -1.000000000000000000 ) ) ;
#837 = ADVANCED_FACE ( 'NONE', ( #122 ), #339, .F. ) ;
#838 = AXIS2_PLACEMENT_3D ( 'NONE', #602, #813, #180 ) ;
#839 = DIRECTION ( 'NONE',  ( 1.000000000000000000, 0.000000000000000000, 0.000000000000000000 ) ) ;
#840 = ORIENTED_EDGE ( 'NONE', *, *, #804, .F. ) ;
#841 = DIRECTION ( 'NONE',  ( 1.000000000000000000, 0.000000000000000000, 0.000000000000000000 ) ) ;
#842 = APPROVAL_PERSON_ORGANIZATION ( #730, #153, #809 ) ;
#843 = COORDINATED_UNIVERSAL_TIME_OFFSET ( 6, 0, .BEHIND. ) ;
#844 = DIRECTION ( 'NONE',  ( 0.000000000000000000, 0.000000000000000000, 1.000000000000000000 ) ) ;
#845 = CARTESIAN_POINT ( 'NONE',  ( 0.000000000000000000, 0.000000000000000000, 7.000000000000000000 ) ) ;
#846 = ORIENTED_EDGE ( 'NONE', *, *, #697, .T. ) ;
#847 = DIRECTION ( 'NONE',  ( 0.000000000000000000, 0.000000000000000000, -1.000000000000000000 ) ) ;
#848 = DIRECTION ( 'NONE',  ( 1.000000000000000000, 0.000000000000000000, -0.000000000000000000 ) ) ;
#849 = AXIS2_PLACEMENT_3D ( 'NONE', #595, #600, #738 ) ;
#850 = ADVANCED_FACE ( 'NONE', ( #765 ), #126, .F. ) ;
#851 = ORIENTED_EDGE ( 'NONE', *, *, #624, .T. ) ;
#852 = DIRECTION ( 'NONE',  ( 0.000000000000000000, 0.000000000000000000, 1.000000000000000000 ) ) ;
#853 = ORIENTED_EDGE ( 'NONE', *, *, #183, .T. ) ;
#854 = VECTOR ( 'NONE', #795, 1000.000000000000000 ) ;
#855 = CARTESIAN_POINT ( 'NONE',  ( -37.59999999999999432, -18.00000000000000000, 4.000000000000000000 ) ) ;
#856 = ORIENTED_EDGE ( 'NONE', *, *, #436, .F. ) ;
#857 = DIRECTION ( 'NONE',  ( -0.000000000000000000, -0.000000000000000000, -1.000000000000000000 ) ) ;
#858 = EDGE_CURVE ( 'NONE', #363, #482, #15, .T. ) ;
#859 = CARTESIAN_POINT ( 'NONE',  ( -36.00000000000000000, 18.00000000000000000, 0.000000000000000000 ) ) ;
#860 = ORIENTED_EDGE ( 'NONE', *, *, #441, .T. ) ;
#861 = DIRECTION ( 'NONE',  ( -0.000000000000000000, -0.000000000000000000, -1.000000000000000000 ) ) ;
#862 = EDGE_CURVE ( 'NONE', #128, #365, #263, .T. ) ;
#863 = DIRECTION ( 'NONE',  ( -1.000000000000000000, 0.000000000000000000, 0.000000000000000000 ) ) ;
#864 = EDGE_CURVE ( 'NONE', #283, #816, #902, .T. ) ;
#865 = EDGE_LOOP ( 'NONE', ( #148, #478, #666, #758 ) ) ;
#866 = CARTESIAN_POINT ( 'NONE',  ( 12.90000000000000036, 0.000000000000000000, -1.000000000000000888 ) ) ;
#867 = CIRCLE ( 'NONE', #19, 17.00000000000000000 ) ;
#868 = PLANE ( 'NONE',  #932 ) ;
#869 = EDGE_LOOP ( 'NONE', ( #831, #743 ) ) ;
#870 = EDGE_CURVE ( 'NONE', #115, #606, #175, .T. ) ;
#871 = DIRECTION ( 'NONE',  ( 1.000000000000000000, 0.000000000000000000, 0.000000000000000000 ) ) ;
#872 = PERSON_AND_ORGANIZATION ( #227, #562 ) ;
#873 = CARTESIAN_POINT ( 'NONE',  ( 0.000000000000000000, -22.00000000000000000, 4.000000000000000000 ) ) ;
#874 = VERTEX_POINT ( 'NONE', #929 ) ;
#875 = EDGE_CURVE ( 'NONE', #382, #228, #922, .T. ) ;
#876 = LINE ( 'NONE', #40, #454 ) ;
#877 = CIRCLE ( 'NONE', #849, 1.100000000000000311 ) ;
#878 = COORDINATED_UNIVERSAL_TIME_OFFSET ( 6, 0, .BEHIND. ) ;
#879 = CARTESIAN_POINT ( 'NONE',  ( 0.000000000000000000, 0.000000000000000000, 0.000000000000000000 ) ) ;
#880 = VERTEX_POINT ( 'NONE', #358 ) ;
#881 = VECTOR ( 'NONE', #747, 1000.000000000000000 ) ;
#882 = CYLINDRICAL_SURFACE ( 'NONE', #574, 9.000000000000000000 ) ;
#883 = PERSON_AND_ORGANIZATION_ROLE ( 'design_owner' ) ;
#884 = CARTESIAN_POINT ( 'NONE',  ( -36.00000000000000000, 18.00000000000000000, 0.000000000000000000 ) ) ;
#885 =( GEOMETRIC_REPRESENTATION_CONTEXT ( 3 ) GLOBAL_UNCERTAINTY_ASSIGNED_CONTEXT ( ( #298 ) ) GLOBAL_UNIT_ASSIGNED_CONTEXT ( ( #800, #672, #677 ) ) REPRESENTATION_CONTEXT ( 'NONE', 'WORKASPACE' ) );
#886 = VECTOR ( 'NONE', #187, 1000.000000000000000 ) ;
#887 = EDGE_LOOP ( 'NONE', ( #327, #685, #853, #846 ) ) ;
#888 = CARTESIAN_POINT ( 'NONE',  ( 0.000000000000000000, -22.00000000000000000, 0.000000000000000000 ) ) ;
#889 = COORDINATED_UNIVERSAL_TIME_OFFSET ( 6, 0, .BEHIND. ) ;
#890 = EDGE_CURVE ( 'NONE', #647, #382, #567, .T. ) ;
#891 = CARTESIAN_POINT ( 'NONE',  ( -1.100000000000000089, 14.00000000000000000, 6.999999999999999112 ) ) ;
#892 = ORIENTED_EDGE ( 'NONE', *, *, #119, .F. ) ;
#893 = EDGE_LOOP ( 'NONE', ( #54, #26, #431, #323, #807, #356, #403 ) ) ;
#894 = FACE_OUTER_BOUND ( 'NONE', #692, .T. ) ;
#895 = DIRECTION ( 'NONE',  ( 0.000000000000000000, 0.000000000000000000, 1.000000000000000000 ) ) ;
#896 = AXIS2_PLACEMENT_3D ( 'NONE', #20, #511, #444 ) ;
#897 = CYLINDRICAL_SURFACE ( 'NONE', #100, 1.100000000000000089 ) ;
#898 = CC_DESIGN_PERSON_AND_ORGANIZATION_ASSIGNMENT ( #736, #329, ( #742 ) ) ;
#899 = EDGE_LOOP ( 'NONE', ( #719, #764 ) ) ;
#900 = ADVANCED_FACE ( 'NONE', ( #213, #778, #644 ), #312, .F. ) ;
#901 = DIRECTION ( 'NONE',  ( -1.000000000000000000, 0.000000000000000000, 0.000000000000000000 ) ) ;
#902 = CIRCLE ( 'NONE', #366, 1.100000000000000089 ) ;
#903 = DIRECTION ( 'NONE',  ( 1.000000000000000000, 0.000000000000000000, 0.000000000000000000 ) ) ;
#904 = EDGE_LOOP ( 'NONE', ( #706, #653 ) ) ;
#905 = CIRCLE ( 'NONE', #341, 1.100000000000000089 ) ;
#906 = ADVANCED_FACE ( 'NONE', ( #604 ), #518, .F. ) ;
#907 = CARTESIAN_POINT ( 'NONE',  ( 14.00000000000000000, 0.000000000000000000, 6.999999999999999112 ) ) ;
#908 = SECURITY_CLASSIFICATION_LEVEL ( 'unclassified' ) ;
#909 = DIRECTION ( 'NONE',  ( 0.000000000000000000, 0.000000000000000000, -1.000000000000000000 ) ) ;
#910 = ORIENTED_EDGE ( 'NONE', *, *, #460, .T. ) ;
#911 = ORIENTED_EDGE ( 'NONE', *, *, #590, .T. ) ;
#912 = CARTESIAN_POINT ( 'NONE',  ( 0.000000000000000000, 0.000000000000000000, 7.000000000000000000 ) ) ;
#913 = APPROVAL ( #599, 'UNSPECIFIED' ) ;
#914 = DATE_AND_TIME ( #118, #229 ) ;
#915 = LINE ( 'NONE', #416, #504 ) ;
#916 = AXIS2_PLACEMENT_3D ( 'NONE', #879, #801, #810 ) ;
#917 = ORIENTED_EDGE ( 'NONE', *, *, #205, .T. ) ;
#918 = CARTESIAN_POINT ( 'NONE',  ( 1.100000000000000089, 14.00000000000000000, -1.000000000000000888 ) ) ;
#919 = VECTOR ( 'NONE', #46, 1000.000000000000000 ) ;
#920 = DIRECTION ( 'NONE',  ( -0.000000000000000000, -0.000000000000000000, -1.000000000000000000 ) ) ;
#921 = FACE_OUTER_BOUND ( 'NONE', #780, .T. ) ;
#922 = CIRCLE ( 'NONE', #681, 1.100000000000000089 ) ;
#923 = EDGE_LOOP ( 'NONE', ( #60, #287, #70, #768 ) ) ;
#924 = DIRECTION ( 'NONE',  ( 0.000000000000000000, 0.000000000000000000, 1.000000000000000000 ) ) ;
#925 = CC_DESIGN_APPROVAL ( #153, ( #325 ) ) ;
#926 = EDGE_CURVE ( 'NONE', #65, #314, #104, .T. ) ;
#927 = FACE_OUTER_BOUND ( 'NONE', #437, .T. ) ;
#928 = ORIENTED_EDGE ( 'NONE', *, *, #216, .F. ) ;
#929 = CARTESIAN_POINT ( 'NONE',  ( 12.90000000000000036, 0.000000000000000000, 6.999999999999999112 ) ) ;
#930 = DIRECTION ( 'NONE',  ( 0.000000000000000000, 0.000000000000000000, -1.000000000000000000 ) ) ;
#931 = CC_DESIGN_PERSON_AND_ORGANIZATION_ASSIGNMENT ( #663, #594, ( #325 ) ) ;
#932 = AXIS2_PLACEMENT_3D ( 'NONE', #873, #529, #101 ) ;
#933 = ORIENTED_EDGE ( 'NONE', *, *, #858, .F. ) ;
#934 = EDGE_CURVE ( 'NONE', #601, #442, #219, .T. ) ;
ENDSEC;
END-ISO-10303-21;
