ISO-10303-21;
HEADER;
FILE_DESCRIPTION (( 'STEP AP203' ),
    '1' );
FILE_NAME ('ARM-112_SG90_horn_capture_cap.step',
    '2026-09-08T22:01:55',
    ( '' ),
    ( '' ),
    'SwSTEP 2.0',
    'SolidWorks 2026',
    '' );
FILE_SCHEMA (( 'CONFIG_CONTROL_DESIGN' ));
ENDSEC;

DATA;
#1 = COORDINATED_UNIVERSAL_TIME_OFFSET ( 6, 0, .BEHIND. ) ;
#2 = EDGE_LOOP ( 'NONE', ( #248, #847 ) ) ;
#3 = EDGE_CURVE ( 'NONE', #498, #492, #426, .T. ) ;
#4 = ADVANCED_FACE ( 'NONE', ( #768, #238, #502, #508, #178, #60 ), #525, .T. ) ;
#5 = CARTESIAN_POINT ( 'NONE',  ( 5.849999999999999645, 7.000000000000000000, 0.3500000000000000333 ) ) ;
#6 = DIRECTION ( 'NONE',  ( 1.000000000000000000, 0.000000000000000000, 0.000000000000000000 ) ) ;
#7 = DIRECTION ( 'NONE',  ( 0.000000000000000000, 0.000000000000000000, 1.000000000000000000 ) ) ;
#8 = AXIS2_PLACEMENT_3D ( 'NONE', #634, #568, #790 ) ;
#9 = AXIS2_PLACEMENT_3D ( 'NONE', #742, #144, #589 ) ;
#10 = DIRECTION ( 'NONE',  ( 0.000000000000000000, 0.000000000000000000, 1.000000000000000000 ) ) ;
#11 = LINE ( 'NONE', #470, #406 ) ;
#12 = COORDINATED_UNIVERSAL_TIME_OFFSET ( 6, 0, .BEHIND. ) ;
#13 = ORIENTED_EDGE ( 'NONE', *, *, #504, .F. ) ;
#14 = DIRECTION ( 'NONE',  ( 0.000000000000000000, 0.000000000000000000, 1.000000000000000000 ) ) ;
#15 = CARTESIAN_POINT ( 'NONE',  ( -7.000000000000000000, 7.000000000000000000, 2.000000000000001776 ) ) ;
#16 = EDGE_CURVE ( 'NONE', #566, #682, #201, .T. ) ;
#17 = DIRECTION ( 'NONE',  ( 0.000000000000000000, 0.000000000000000000, -1.000000000000000000 ) ) ;
#18 = ORIENTED_EDGE ( 'NONE', *, *, #672, .T. ) ;
#19 = ORIENTED_EDGE ( 'NONE', *, *, #793, .F. ) ;
#20 = DIRECTION ( 'NONE',  ( 0.000000000000000000, 0.000000000000000000, -1.000000000000000000 ) ) ;
#21 = ORIENTED_EDGE ( 'NONE', *, *, #722, .T. ) ;
#22 = EDGE_CURVE ( 'NONE', #685, #159, #299, .T. ) ;
#23 = VERTEX_POINT ( 'NONE', #854 ) ;
#24 = AXIS2_PLACEMENT_3D ( 'NONE', #198, #7, #675 ) ;
#25 = CYLINDRICAL_SURFACE ( 'NONE', #392, 13.00000000000000000 ) ;
#26 = AXIS2_PLACEMENT_3D ( 'NONE', #479, #739, #140 ) ;
#27 = PERSON_AND_ORGANIZATION ( #382, #691 ) ;
#28 = ORIENTED_EDGE ( 'NONE', *, *, #108, .T. ) ;
#29 = AXIS2_PLACEMENT_3D ( 'NONE', #783, #183, #497 ) ;
#30 = MANIFOLD_SOLID_BREP ( 'Head_recess_depth0p35', #241 ) ;
#31 = EDGE_CURVE ( 'NONE', #23, #244, #101, .T. ) ;
#32 = DIRECTION ( 'NONE',  ( 1.000000000000000000, 0.000000000000000000, 0.000000000000000000 ) ) ;
#33 = EDGE_LOOP ( 'NONE', ( #91, #149 ) ) ;
#34 = ORIENTED_EDGE ( 'NONE', *, *, #44, .F. ) ;
#35 = ORIENTED_EDGE ( 'NONE', *, *, #345, .T. ) ;
#36 = FACE_OUTER_BOUND ( 'NONE', #671, .T. ) ;
#37 = PRODUCT_DEFINITION_FORMATION_WITH_SPECIFIED_SOURCE ( 'ANY', '', #765, .NOT_KNOWN. ) ;
#38 = ORIENTED_EDGE ( 'NONE', *, *, #499, .T. ) ;
#39 = CIRCLE ( 'NONE', #520, 1.149999999999999911 ) ;
#40 = VECTOR ( 'NONE', #106, 1000.000000000000000 ) ;
#41 = CARTESIAN_POINT ( 'NONE',  ( -8.150000000000000355, 7.000000000000000000, 2.000000000000001776 ) ) ;
#42 = DIRECTION ( 'NONE',  ( 0.000000000000000000, 0.000000000000000000, 1.000000000000000000 ) ) ;
#43 = ORIENTED_EDGE ( 'NONE', *, *, #528, .T. ) ;
#44 = EDGE_CURVE ( 'NONE', #692, #316, #430, .T. ) ;
#45 = DIRECTION ( 'NONE',  ( -0.000000000000000000, -0.000000000000000000, -1.000000000000000000 ) ) ;
#46 = CARTESIAN_POINT ( 'NONE',  ( 9.099999999999999645, -7.000000000000000000, 0.000000000000000000 ) ) ;
#47 = EDGE_LOOP ( 'NONE', ( #656, #708, #229, #472 ) ) ;
#48 = DIRECTION ( 'NONE',  ( 1.000000000000000000, 0.000000000000000000, 0.000000000000000000 ) ) ;
#49 = CARTESIAN_POINT ( 'NONE',  ( -8.150000000000000355, -7.000000000000000000, 2.000000000000001776 ) ) ;
#50 = VERTEX_POINT ( 'NONE', #653 ) ;
#51 = VECTOR ( 'NONE', #446, 1000.000000000000000 ) ;
#52 = DIRECTION ( 'NONE',  ( 1.000000000000000000, 0.000000000000000000, 0.000000000000000000 ) ) ;
#53 = CIRCLE ( 'NONE', #26, 1.149999999999999911 ) ;
#54 = EDGE_CURVE ( 'NONE', #77, #104, #785, .T. ) ;
#55 = CARTESIAN_POINT ( 'NONE',  ( 7.000000000000000000, 7.000000000000000000, 0.3499999999999999778 ) ) ;
#56 = CARTESIAN_POINT ( 'NONE',  ( -7.000000000000000000, -7.000000000000000000, 0.000000000000000000 ) ) ;
#57 = DIRECTION ( 'NONE',  ( 1.000000000000000000, 0.000000000000000000, 0.000000000000000000 ) ) ;
#58 = CYLINDRICAL_SURFACE ( 'NONE', #518, 1.150000000000000799 ) ;
#59 = CARTESIAN_POINT ( 'NONE',  ( 7.000000000000000000, -7.000000000000000000, 0.3500000000000000333 ) ) ;
#60 = FACE_BOUND ( 'NONE', #33, .T. ) ;
#61 = DIRECTION ( 'NONE',  ( 0.000000000000000000, 0.000000000000000000, 1.000000000000000000 ) ) ;
#62 = ORIENTED_EDGE ( 'NONE', *, *, #16, .T. ) ;
#63 = AXIS2_PLACEMENT_3D ( 'NONE', #669, #252, #136 ) ;
#64 = AXIS2_PLACEMENT_3D ( 'NONE', #193, #784, #324 ) ;
#65 = CARTESIAN_POINT ( 'NONE',  ( 7.000000000000000000, 7.000000000000000000, 2.000000000000001776 ) ) ;
#66 = CARTESIAN_POINT ( 'NONE',  ( 7.000000000000000000, -7.000000000000000000, 0.3499999999999999778 ) ) ;
#67 = AXIS2_PLACEMENT_3D ( 'NONE', #125, #80, #323 ) ;
#68 = APPLICATION_PROTOCOL_DEFINITION ( 'international standard', 'config_control_design', 1994, #284 ) ;
#69 = ORIENTED_EDGE ( 'NONE', *, *, #86, .F. ) ;
#70 = ADVANCED_FACE ( 'NONE', ( #391 ), #58, .F. ) ;
#71 = CARTESIAN_POINT ( 'NONE',  ( 7.000000000000000000, -7.000000000000000000, 0.000000000000000000 ) ) ;
#72 = DIRECTION ( 'NONE',  ( -1.000000000000000000, 0.000000000000000000, 0.000000000000000000 ) ) ;
#73 = ORIENTED_EDGE ( 'NONE', *, *, #44, .T. ) ;
#74 = CARTESIAN_POINT ( 'NONE',  ( 4.899999999999999467, -7.000000000000000000, 0.3499999999999999778 ) ) ;
#75 = DIRECTION ( 'NONE',  ( -1.000000000000000000, 0.000000000000000000, 0.000000000000000000 ) ) ;
#76 = DATE_AND_TIME ( #598, #631 ) ;
#77 = VERTEX_POINT ( 'NONE', #204 ) ;
#78 = AXIS2_PLACEMENT_3D ( 'NONE', #119, #186, #52 ) ;
#79 = EDGE_CURVE ( 'NONE', #253, #495, #404, .T. ) ;
#80 = DIRECTION ( 'NONE',  ( 0.000000000000000000, 0.000000000000000000, 1.000000000000000000 ) ) ;
#81 = CARTESIAN_POINT ( 'NONE',  ( 5.849999999999999645, -7.000000000000000000, 2.000000000000001776 ) ) ;
#82 = FACE_OUTER_BOUND ( 'NONE', #393, .T. ) ;
#83 = ORIENTED_EDGE ( 'NONE', *, *, #295, .F. ) ;
#84 = ORIENTED_EDGE ( 'NONE', *, *, #345, .F. ) ;
#85 = DIRECTION ( 'NONE',  ( 0.000000000000000000, 0.000000000000000000, -1.000000000000000000 ) ) ;
#86 = EDGE_CURVE ( 'NONE', #226, #730, #852, .T. ) ;
#87 = EDGE_LOOP ( 'NONE', ( #539, #703, #694, #771 ) ) ;
#88 = ORIENTED_EDGE ( 'NONE', *, *, #512, .F. ) ;
#89 = CARTESIAN_POINT ( 'NONE',  ( -7.000000000000000000, -7.000000000000000000, 2.000000000000001776 ) ) ;
#90 = PERSON_AND_ORGANIZATION ( #382, #691 ) ;
#91 = ORIENTED_EDGE ( 'NONE', *, *, #810, .F. ) ;
#92 = FACE_OUTER_BOUND ( 'NONE', #482, .T. ) ;
#93 = ORIENTED_EDGE ( 'NONE', *, *, #591, .T. ) ;
#94 = ORIENTED_EDGE ( 'NONE', *, *, #436, .F. ) ;
#95 = VECTOR ( 'NONE', #524, 1000.000000000000000 ) ;
#96 = PLANE ( 'NONE',  #134 ) ;
#97 = CALENDAR_DATE ( 2026, 8, 9 ) ;
#98 = CARTESIAN_POINT ( 'NONE',  ( 4.899999999999999467, -7.000000000000000000, 0.3499999999999999778 ) ) ;
#99 = ORIENTED_EDGE ( 'NONE', *, *, #16, .F. ) ;
#100 = DIRECTION ( 'NONE',  ( 0.000000000000000000, 0.000000000000000000, 1.000000000000000000 ) ) ;
#101 = CIRCLE ( 'NONE', #812, 1.149999999999999911 ) ;
#102 = ADVANCED_FACE ( 'NONE', ( #862 ), #116, .F. ) ;
#103 = FACE_OUTER_BOUND ( 'NONE', #297, .T. ) ;
#104 = VERTEX_POINT ( 'NONE', #459 ) ;
#105 = AXIS2_PLACEMENT_3D ( 'NONE', #126, #724, #720 ) ;
#106 = DIRECTION ( 'NONE',  ( -0.000000000000000000, -0.000000000000000000, -1.000000000000000000 ) ) ;
#107 = CARTESIAN_POINT ( 'NONE',  ( 0.000000000000000000, 0.000000000000000000, 2.000000000000000000 ) ) ;
#108 = EDGE_CURVE ( 'NONE', #599, #558, #516, .T. ) ;
#109 = ORIENTED_EDGE ( 'NONE', *, *, #542, .T. ) ;
#110 = FACE_OUTER_BOUND ( 'NONE', #561, .T. ) ;
#111 = CARTESIAN_POINT ( 'NONE',  ( -9.099999999999999645, 7.000000000000000000, 0.000000000000000000 ) ) ;
#112 = EDGE_LOOP ( 'NONE', ( #826, #155, #424, #552 ) ) ;
#113 = EDGE_CURVE ( 'NONE', #344, #492, #662, .T. ) ;
#114 = FACE_OUTER_BOUND ( 'NONE', #278, .T. ) ;
#115 = CARTESIAN_POINT ( 'NONE',  ( -7.000000000000000000, -7.000000000000000000, 2.000000000000001776 ) ) ;
#116 = CYLINDRICAL_SURFACE ( 'NONE', #105, 1.150000000000000799 ) ;
#117 = AXIS2_PLACEMENT_3D ( 'NONE', #736, #471, #467 ) ;
#118 = AXIS2_PLACEMENT_3D ( 'NONE', #192, #128, #494 ) ;
#119 = CARTESIAN_POINT ( 'NONE',  ( -7.000000000000000000, 7.000000000000000000, 0.000000000000000000 ) ) ;
#120 = CYLINDRICAL_SURFACE ( 'NONE', #202, 2.100000000000000089 ) ;
#121 = FACE_OUTER_BOUND ( 'NONE', #630, .T. ) ;
#122 = AXIS2_PLACEMENT_3D ( 'NONE', #557, #823, #417 ) ;
#123 = CARTESIAN_POINT ( 'NONE',  ( -4.899999999999999467, -7.000000000000000000, 0.3499999999999999778 ) ) ;
#124 = ORIENTED_EDGE ( 'NONE', *, *, #436, .T. ) ;
#125 = CARTESIAN_POINT ( 'NONE',  ( 7.000000000000000000, -7.000000000000000000, 0.000000000000000000 ) ) ;
#126 = CARTESIAN_POINT ( 'NONE',  ( -7.000000000000000000, 7.000000000000000000, 2.000000000000001776 ) ) ;
#127 = VERTEX_POINT ( 'NONE', #184 ) ;
#128 = DIRECTION ( 'NONE',  ( 0.000000000000000000, 0.000000000000000000, 1.000000000000000000 ) ) ;
#129 = EDGE_CURVE ( 'NONE', #599, #429, #814, .T. ) ;
#130 = CARTESIAN_POINT ( 'NONE',  ( 0.000000000000000000, 0.000000000000000000, 2.000000000000000000 ) ) ;
#131 = PERSON_AND_ORGANIZATION ( #382, #691 ) ;
#132 = VERTEX_POINT ( 'NONE', #586 ) ;
#133 = APPROVAL_PERSON_ORGANIZATION ( #27, #263, #162 ) ;
#134 = AXIS2_PLACEMENT_3D ( 'NONE', #486, #758, #652 ) ;
#135 = CARTESIAN_POINT ( 'NONE',  ( 9.099999999999999645, -7.000000000000000000, 0.3499999999999999778 ) ) ;
#136 = DIRECTION ( 'NONE',  ( 1.000000000000000000, 0.000000000000000000, 0.000000000000000000 ) ) ;
#137 = ADVANCED_FACE ( 'NONE', ( #121 ), #256, .F. ) ;
#138 = ORIENTED_EDGE ( 'NONE', *, *, #529, .T. ) ;
#139 = FACE_OUTER_BOUND ( 'NONE', #2, .T. ) ;
#140 = DIRECTION ( 'NONE',  ( 1.000000000000000000, 0.000000000000000000, 0.000000000000000000 ) ) ;
#141 = APPROVAL_STATUS ( 'not_yet_approved' ) ;
#142 = ORIENTED_EDGE ( 'NONE', *, *, #571, .F. ) ;
#143 = ADVANCED_FACE ( 'NONE', ( #792 ), #728, .F. ) ;
#144 = DIRECTION ( 'NONE',  ( 0.000000000000000000, 0.000000000000000000, -1.000000000000000000 ) ) ;
#145 = CARTESIAN_POINT ( 'NONE',  ( -4.899999999999999467, 7.000000000000000000, 0.000000000000000000 ) ) ;
#146 = CIRCLE ( 'NONE', #747, 1.149999999999999911 ) ;
#147 = AXIS2_PLACEMENT_3D ( 'NONE', #565, #179, #231 ) ;
#148 = DIRECTION ( 'NONE',  ( -1.000000000000000000, 0.000000000000000000, 0.000000000000000000 ) ) ;
#149 = ORIENTED_EDGE ( 'NONE', *, *, #488, .F. ) ;
#150 = ORIENTED_EDGE ( 'NONE', *, *, #780, .F. ) ;
#151 = AXIS2_PLACEMENT_3D ( 'NONE', #319, #329, #465 ) ;
#152 = CARTESIAN_POINT ( 'NONE',  ( 13.00000000000000000, 1.592040838891559095E-15, 2.000000000000000000 ) ) ;
#153 = PERSON_AND_ORGANIZATION ( #382, #691 ) ;
#154 = ORIENTED_EDGE ( 'NONE', *, *, #433, .T. ) ;
#155 = ORIENTED_EDGE ( 'NONE', *, *, #775, .T. ) ;
#156 = CARTESIAN_POINT ( 'NONE',  ( -5.850000000000000533, 7.000000000000000000, 2.000000000000001776 ) ) ;
#157 = EDGE_CURVE ( 'NONE', #316, #132, #797, .T. ) ;
#158 = DATE_AND_TIME ( #97, #772 ) ;
#159 = VERTEX_POINT ( 'NONE', #156 ) ;
#160 = FACE_BOUND ( 'NONE', #626, .T. ) ;
#161 = AXIS2_PLACEMENT_3D ( 'NONE', #834, #839, #707 ) ;
#162 = APPROVAL_ROLE ( '' ) ;
#163 = ORIENTED_EDGE ( 'NONE', *, *, #722, .F. ) ;
#164 = CARTESIAN_POINT ( 'NONE',  ( 0.000000000000000000, 0.000000000000000000, 0.000000000000000000 ) ) ;
#165 = ORIENTED_EDGE ( 'NONE', *, *, #517, .F. ) ;
#166 = EDGE_CURVE ( 'NONE', #666, #481, #216, .T. ) ;
#167 = DIRECTION ( 'NONE',  ( -1.000000000000000000, 0.000000000000000000, 0.000000000000000000 ) ) ;
#168 = FACE_OUTER_BOUND ( 'NONE', #683, .T. ) ;
#169 = EDGE_LOOP ( 'NONE', ( #644, #840, #267, #570 ) ) ;
#170 = ADVANCED_FACE ( 'NONE', ( #92 ), #679, .F. ) ;
#171 = CARTESIAN_POINT ( 'NONE',  ( -13.00000000000000000, 0.000000000000000000, 2.000000000000000000 ) ) ;
#172 = DIRECTION ( 'NONE',  ( 1.000000000000000000, 0.000000000000000000, 0.000000000000000000 ) ) ;
#173 = AXIS2_PLACEMENT_3D ( 'NONE', #770, #368, #172 ) ;
#174 = EDGE_LOOP ( 'NONE', ( #401, #294 ) ) ;
#175 = CIRCLE ( 'NONE', #592, 4.000000000000000000 ) ;
#176 = DIRECTION ( 'NONE',  ( 0.000000000000000000, 0.000000000000000000, 1.000000000000000000 ) ) ;
#177 = FACE_OUTER_BOUND ( 'NONE', #757, .T. ) ;
#178 = FACE_OUTER_BOUND ( 'NONE', #828, .T. ) ;
#179 = DIRECTION ( 'NONE',  ( 0.000000000000000000, 0.000000000000000000, 1.000000000000000000 ) ) ;
#180 = CARTESIAN_POINT ( 'NONE',  ( 7.000000000000000000, 7.000000000000000000, 0.000000000000000000 ) ) ;
#181 = EDGE_LOOP ( 'NONE', ( #307, #809 ) ) ;
#182 = CARTESIAN_POINT ( 'NONE',  ( 7.000000000000000000, -7.000000000000000000, 0.3499999999999999778 ) ) ;
#183 = DIRECTION ( 'NONE',  ( 0.000000000000000000, 0.000000000000000000, 1.000000000000000000 ) ) ;
#184 = CARTESIAN_POINT ( 'NONE',  ( -4.000000000000000000, 0.000000000000000000, 0.000000000000000000 ) ) ;
#185 = SECURITY_CLASSIFICATION ( '', '', #756 ) ;
#186 = DIRECTION ( 'NONE',  ( 0.000000000000000000, 0.000000000000000000, 1.000000000000000000 ) ) ;
#187 = ORIENTED_EDGE ( 'NONE', *, *, #445, .F. ) ;
#188 = VECTOR ( 'NONE', #474, 1000.000000000000000 ) ;
#189 = CARTESIAN_POINT ( 'NONE',  ( 4.899999999999999467, 7.000000000000000000, 0.3499999999999999778 ) ) ;
#190 = DIRECTION ( 'NONE',  ( 1.000000000000000000, 0.000000000000000000, 0.000000000000000000 ) ) ;
#191 = EDGE_CURVE ( 'NONE', #208, #50, #354, .T. ) ;
#192 = CARTESIAN_POINT ( 'NONE',  ( 7.000000000000000000, 7.000000000000000000, 0.3499999999999999778 ) ) ;
#193 = CARTESIAN_POINT ( 'NONE',  ( 7.000000000000000000, 7.000000000000000000, 0.000000000000000000 ) ) ;
#194 = EDGE_LOOP ( 'NONE', ( #93, #456 ) ) ;
#195 = EDGE_CURVE ( 'NONE', #386, #310, #283, .T. ) ;
#196 = DIRECTION ( 'NONE',  ( 0.000000000000000000, 0.000000000000000000, 1.000000000000000000 ) ) ;
#197 = DIRECTION ( 'NONE',  ( 1.000000000000000000, 0.000000000000000000, 0.000000000000000000 ) ) ;
#198 = CARTESIAN_POINT ( 'NONE',  ( 0.000000000000000000, 0.000000000000000000, 0.000000000000000000 ) ) ;
#199 = ORIENTED_EDGE ( 'NONE', *, *, #810, .T. ) ;
#200 = CIRCLE ( 'NONE', #447, 4.000000000000000000 ) ;
#201 = CIRCLE ( 'NONE', #857, 2.100000000000000089 ) ;
#202 = AXIS2_PLACEMENT_3D ( 'NONE', #434, #318, #320 ) ;
#203 = DIRECTION ( 'NONE',  ( 1.000000000000000000, 0.000000000000000000, 0.000000000000000000 ) ) ;
#204 = CARTESIAN_POINT ( 'NONE',  ( -9.099999999999999645, -7.000000000000000000, 0.000000000000000000 ) ) ;
#205 = AXIS2_PLACEMENT_3D ( 'NONE', #180, #379, #650 ) ;
#206 = EDGE_CURVE ( 'NONE', #159, #291, #275, .T. ) ;
#207 = CARTESIAN_POINT ( 'NONE',  ( -7.000000000000000000, -7.000000000000000000, 0.3499999999999999778 ) ) ;
#208 = VERTEX_POINT ( 'NONE', #607 ) ;
#209 = CARTESIAN_POINT ( 'NONE',  ( -9.099999999999999645, -7.000000000000000000, 0.3499999999999999778 ) ) ;
#210 = CARTESIAN_POINT ( 'NONE',  ( -5.850000000000000533, 7.000000000000000000, 0.3500000000000000333 ) ) ;
#211 = MECHANICAL_CONTEXT ( 'NONE', #284, 'mechanical' ) ;
#212 = ORIENTED_EDGE ( 'NONE', *, *, #512, .T. ) ;
#213 = DIRECTION ( 'NONE',  ( 1.000000000000000000, 0.000000000000000000, 0.000000000000000000 ) ) ;
#214 = ORIENTED_EDGE ( 'NONE', *, *, #628, .T. ) ;
#215 = EDGE_LOOP ( 'NONE', ( #199, #619, #233, #84 ) ) ;
#216 = CIRCLE ( 'NONE', #680, 2.100000000000000089 ) ;
#217 = CARTESIAN_POINT ( 'NONE',  ( -7.000000000000000000, 7.000000000000000000, 0.3500000000000000333 ) ) ;
#218 = AXIS2_PLACEMENT_3D ( 'NONE', #71, #791, #402 ) ;
#219 = ORIENTED_EDGE ( 'NONE', *, *, #54, .F. ) ;
#220 = EDGE_CURVE ( 'NONE', #429, #358, #11, .T. ) ;
#221 = DIRECTION ( 'NONE',  ( -1.000000000000000000, 0.000000000000000000, 0.000000000000000000 ) ) ;
#222 = ORIENTED_EDGE ( 'NONE', *, *, #654, .T. ) ;
#223 = DIRECTION ( 'NONE',  ( -0.000000000000000000, -0.000000000000000000, -1.000000000000000000 ) ) ;
#224 = EDGE_CURVE ( 'NONE', #159, #685, #39, .T. ) ;
#225 = CALENDAR_DATE ( 2026, 8, 9 ) ;
#226 = VERTEX_POINT ( 'NONE', #746 ) ;
#227 =( GEOMETRIC_REPRESENTATION_CONTEXT ( 3 ) GLOBAL_UNCERTAINTY_ASSIGNED_CONTEXT ( ( #360 ) ) GLOBAL_UNIT_ASSIGNED_CONTEXT ( ( #461, #271, #453 ) ) REPRESENTATION_CONTEXT ( 'NONE', 'WORKASPACE' ) );
#228 = AXIS2_PLACEMENT_3D ( 'NONE', #250, #582, #167 ) ;
#229 = ORIENTED_EDGE ( 'NONE', *, *, #343, .F. ) ;
#230 = EDGE_CURVE ( 'NONE', #352, #435, #146, .T. ) ;
#231 = DIRECTION ( 'NONE',  ( 1.000000000000000000, 0.000000000000000000, 0.000000000000000000 ) ) ;
#232 = DIRECTION ( 'NONE',  ( -1.000000000000000000, 0.000000000000000000, 0.000000000000000000 ) ) ;
#233 = ORIENTED_EDGE ( 'NONE', *, *, #741, .F. ) ;
#234 = CC_DESIGN_PERSON_AND_ORGANIZATION_ASSIGNMENT ( #355, #612, ( #37 ) ) ;
#235 = DESIGN_CONTEXT ( 'detailed design', #254, 'design' ) ;
#236 = LINE ( 'NONE', #171, #40 ) ;
#237 = CARTESIAN_POINT ( 'NONE',  ( 7.000000000000000000, 7.000000000000000000, 0.3500000000000000333 ) ) ;
#238 = FACE_BOUND ( 'NONE', #527, .T. ) ;
#239 = DIRECTION ( 'NONE',  ( -1.000000000000000000, 0.000000000000000000, 0.000000000000000000 ) ) ;
#240 = APPROVAL_PERSON_ORGANIZATION ( #330, #292, #333 ) ;
#241 = CLOSED_SHELL ( 'NONE', ( #137, #170, #373, #143, #70, #321, #697, #764, #260, #383, #4, #325, #268, #751, #478, #102, #726, #620, #762, #600, #855, #837, #419, #786, #466, #687 ) ) ;
#242 = DIRECTION ( 'NONE',  ( 1.000000000000000000, 0.000000000000000000, 0.000000000000000000 ) ) ;
#243 = AXIS2_PLACEMENT_3D ( 'NONE', #237, #42, #242 ) ;
#244 = VERTEX_POINT ( 'NONE', #293 ) ;
#245 = AXIS2_PLACEMENT_3D ( 'NONE', #454, #602, #387 ) ;
#246 = CARTESIAN_POINT ( 'NONE',  ( 7.000000000000000000, 7.000000000000000000, 2.000000000000001776 ) ) ;
#247 = DIRECTION ( 'NONE',  ( 0.000000000000000000, 0.000000000000000000, -1.000000000000000000 ) ) ;
#248 = ORIENTED_EDGE ( 'NONE', *, *, #542, .F. ) ;
#249 = DIRECTION ( 'NONE',  ( 1.000000000000000000, 0.000000000000000000, 0.000000000000000000 ) ) ;
#250 = CARTESIAN_POINT ( 'NONE',  ( -7.000000000000000000, 7.000000000000000000, 2.000000000000001776 ) ) ;
#251 = CARTESIAN_POINT ( 'NONE',  ( 4.899999999999999467, -7.000000000000000000, 0.000000000000000000 ) ) ;
#252 = DIRECTION ( 'NONE',  ( 0.000000000000000000, 0.000000000000000000, 1.000000000000000000 ) ) ;
#253 = VERTEX_POINT ( 'NONE', #549 ) ;
#254 = APPLICATION_CONTEXT ( 'configuration controlled 3d designs of mechanical parts and assemblies' ) ;
#255 = CARTESIAN_POINT ( 'NONE',  ( -7.000000000000000000, 7.000000000000000000, 0.3500000000000000333 ) ) ;
#256 = CYLINDRICAL_SURFACE ( 'NONE', #588, 2.100000000000000089 ) ;
#257 = LOCAL_TIME ( 17, 1, 55.00000000000000000, #296 ) ;
#258 = ORIENTED_EDGE ( 'NONE', *, *, #408, .T. ) ;
#259 = CIRCLE ( 'NONE', #147, 2.100000000000000089 ) ;
#260 = ADVANCED_FACE ( 'NONE', ( #755 ), #615, .F. ) ;
#261 = DIRECTION ( 'NONE',  ( 0.000000000000000000, 0.000000000000000000, -1.000000000000000000 ) ) ;
#262 = DIRECTION ( 'NONE',  ( 0.000000000000000000, 0.000000000000000000, -1.000000000000000000 ) ) ;
#263 = APPROVAL ( #422, 'UNSPECIFIED' ) ;
#264 = LINE ( 'NONE', #209, #95 ) ;
#265 = DIRECTION ( 'NONE',  ( -1.000000000000000000, 0.000000000000000000, 0.000000000000000000 ) ) ;
#266 = PLANE ( 'NONE',  #787 ) ;
#267 = ORIENTED_EDGE ( 'NONE', *, *, #191, .T. ) ;
#268 = ADVANCED_FACE ( 'NONE', ( #813 ), #25, .T. ) ;
#269 = FACE_OUTER_BOUND ( 'NONE', #169, .T. ) ;
#270 = DIRECTION ( 'NONE',  ( 0.000000000000000000, 0.000000000000000000, 1.000000000000000000 ) ) ;
#271 =( NAMED_UNIT ( * ) PLANE_ANGLE_UNIT ( ) SI_UNIT ( $, .RADIAN. ) );
#272 = EDGE_LOOP ( 'NONE', ( #88, #641, #804, #165 ) ) ;
#273 = CIRCLE ( 'NONE', #759, 2.100000000000000089 ) ;
#274 = DIRECTION ( 'NONE',  ( 1.000000000000000000, 0.000000000000000000, 0.000000000000000000 ) ) ;
#275 = LINE ( 'NONE', #684, #788 ) ;
#276 = CC_DESIGN_PERSON_AND_ORGANIZATION_ASSIGNMENT ( #153, #480, ( #185 ) ) ;
#277 = APPROVAL_DATE_TIME ( #76, #292 ) ;
#278 = EDGE_LOOP ( 'NONE', ( #625, #754, #489, #83 ) ) ;
#279 = DIRECTION ( 'NONE',  ( 0.000000000000000000, 0.000000000000000000, 1.000000000000000000 ) ) ;
#280 = CYLINDRICAL_SURFACE ( 'NONE', #519, 2.100000000000000089 ) ;
#281 = VERTEX_POINT ( 'NONE', #145 ) ;
#282 = ORIENTED_EDGE ( 'NONE', *, *, #311, .T. ) ;
#283 = LINE ( 'NONE', #400, #859 ) ;
#284 = APPLICATION_CONTEXT ( 'configuration controlled 3d designs of mechanical parts and assemblies' ) ;
#285 = EDGE_LOOP ( 'NONE', ( #574, #559 ) ) ;
#286 = ORIENTED_EDGE ( 'NONE', *, *, #577, .T. ) ;
#287 = EDGE_CURVE ( 'NONE', #244, #23, #53, .T. ) ;
#288 = CARTESIAN_POINT ( 'NONE',  ( 13.00000000000000000, 1.592040838891559095E-15, 2.000000000000000000 ) ) ;
#289 = PERSON_AND_ORGANIZATION ( #382, #691 ) ;
#290 = CIRCLE ( 'NONE', #205, 2.100000000000000089 ) ;
#291 = VERTEX_POINT ( 'NONE', #210 ) ;
#292 = APPROVAL ( #141, 'UNSPECIFIED' ) ;
#293 = CARTESIAN_POINT ( 'NONE',  ( -8.150000000000000355, -7.000000000000000000, 0.3500000000000000333 ) ) ;
#294 = ORIENTED_EDGE ( 'NONE', *, *, #499, .F. ) ;
#295 = EDGE_CURVE ( 'NONE', #685, #477, #545, .T. ) ;
#296 = COORDINATED_UNIVERSAL_TIME_OFFSET ( 6, 0, .BEHIND. ) ;
#297 = EDGE_LOOP ( 'NONE', ( #357, #676, #124, #763 ) ) ;
#298 = EDGE_LOOP ( 'NONE', ( #623, #699 ) ) ;
#299 = CIRCLE ( 'NONE', #562, 1.149999999999999911 ) ;
#300 = AXIS2_PLACEMENT_3D ( 'NONE', #444, #716, #651 ) ;
#301 = CYLINDRICAL_SURFACE ( 'NONE', #378, 1.150000000000000799 ) ;
#302 = VECTOR ( 'NONE', #808, 1000.000000000000000 ) ;
#303 = VECTOR ( 'NONE', #261, 1000.000000000000000 ) ;
#304 = ORIENTED_EDGE ( 'NONE', *, *, #157, .F. ) ;
#305 = FACE_OUTER_BOUND ( 'NONE', #47, .T. ) ;
#306 = CARTESIAN_POINT ( 'NONE',  ( -9.099999999999999645, 7.000000000000000000, 0.3499999999999999778 ) ) ;
#307 = ORIENTED_EDGE ( 'NONE', *, *, #567, .T. ) ;
#308 = DIRECTION ( 'NONE',  ( -1.000000000000000000, 0.000000000000000000, 0.000000000000000000 ) ) ;
#309 = CYLINDRICAL_SURFACE ( 'NONE', #161, 2.100000000000000089 ) ;
#310 = VERTEX_POINT ( 'NONE', #409 ) ;
#311 = EDGE_CURVE ( 'NONE', #477, #291, #842, .T. ) ;
#312 = CARTESIAN_POINT ( 'NONE',  ( -7.000000000000000000, 7.000000000000000000, 0.000000000000000000 ) ) ;
#313 = CC_DESIGN_APPROVAL ( #292, ( #350 ) ) ;
#314 = LINE ( 'NONE', #306, #661 ) ;
#315 = CIRCLE ( 'NONE', #706, 1.149999999999999911 ) ;
#316 = VERTEX_POINT ( 'NONE', #152 ) ;
#317 = CARTESIAN_POINT ( 'NONE',  ( -13.00000000000000000, 0.000000000000000000, 2.000000000000000000 ) ) ;
#318 = DIRECTION ( 'NONE',  ( 0.000000000000000000, 0.000000000000000000, -1.000000000000000000 ) ) ;
#319 = CARTESIAN_POINT ( 'NONE',  ( -7.000000000000000000, -7.000000000000000000, 0.3499999999999999778 ) ) ;
#320 = DIRECTION ( 'NONE',  ( -1.000000000000000000, 0.000000000000000000, 0.000000000000000000 ) ) ;
#321 = ADVANCED_FACE ( 'NONE', ( #413 ), #686, .F. ) ;
#322 = CARTESIAN_POINT ( 'NONE',  ( 7.000000000000000000, -7.000000000000000000, 2.000000000000001776 ) ) ;
#323 = DIRECTION ( 'NONE',  ( 1.000000000000000000, 0.000000000000000000, 0.000000000000000000 ) ) ;
#324 = DIRECTION ( 'NONE',  ( 1.000000000000000000, 0.000000000000000000, 0.000000000000000000 ) ) ;
#325 = ADVANCED_FACE ( 'NONE', ( #335, #347, #603, #160, #421, #695 ), #96, .F. ) ;
#326 = DIRECTION ( 'NONE',  ( 0.000000000000000000, 0.000000000000000000, 1.000000000000000000 ) ) ;
#327 = VECTOR ( 'NONE', #864, 1000.000000000000000 ) ;
#328 = DIRECTION ( 'NONE',  ( 0.000000000000000000, 0.000000000000000000, 1.000000000000000000 ) ) ;
#329 = DIRECTION ( 'NONE',  ( 0.000000000000000000, 0.000000000000000000, 1.000000000000000000 ) ) ;
#330 = PERSON_AND_ORGANIZATION ( #382, #691 ) ;
#331 = CARTESIAN_POINT ( 'NONE',  ( 7.000000000000000000, -7.000000000000000000, 0.3499999999999999778 ) ) ;
#332 = DIRECTION ( 'NONE',  ( 0.000000000000000000, 0.000000000000000000, 1.000000000000000000 ) ) ;
#333 = APPROVAL_ROLE ( '' ) ;
#334 = DIRECTION ( 'NONE',  ( 1.000000000000000000, 0.000000000000000000, 0.000000000000000000 ) ) ;
#335 = FACE_BOUND ( 'NONE', #181, .T. ) ;
#336 = PERSON_AND_ORGANIZATION ( #382, #691 ) ;
#337 = VERTEX_POINT ( 'NONE', #46 ) ;
#338 = CIRCLE ( 'NONE', #380, 4.000000000000000000 ) ;
#339 = DIRECTION ( 'NONE',  ( 0.000000000000000000, 0.000000000000000000, 1.000000000000000000 ) ) ;
#340 = ORIENTED_EDGE ( 'NONE', *, *, #230, .T. ) ;
#341 = ORIENTED_EDGE ( 'NONE', *, *, #636, .T. ) ;
#342 = DIRECTION ( 'NONE',  ( 0.000000000000000000, 0.000000000000000000, -1.000000000000000000 ) ) ;
#343 = EDGE_CURVE ( 'NONE', #558, #358, #618, .T. ) ;
#344 = VERTEX_POINT ( 'NONE', #573 ) ;
#345 = EDGE_CURVE ( 'NONE', #440, #127, #511, .T. ) ;
#346 = ORIENTED_EDGE ( 'NONE', *, *, #504, .T. ) ;
#347 = FACE_BOUND ( 'NONE', #349, .T. ) ;
#348 = DATE_TIME_ROLE ( 'classification_date' ) ;
#349 = EDGE_LOOP ( 'NONE', ( #745, #533 ) ) ;
#350 = PRODUCT_DEFINITION ( 'UNKNOWN', '', #37, #235 ) ;
#351 = AXIS2_PLACEMENT_3D ( 'NONE', #538, #61, #729 ) ;
#352 = VERTEX_POINT ( 'NONE', #714 ) ;
#353 = VECTOR ( 'NONE', #835, 1000.000000000000000 ) ;
#354 = LINE ( 'NONE', #81, #302 ) ;
#355 = PERSON_AND_ORGANIZATION ( #382, #691 ) ;
#356 = CIRCLE ( 'NONE', #29, 1.150000000000000799 ) ;
#357 = ORIENTED_EDGE ( 'NONE', *, *, #3, .F. ) ;
#358 = VERTEX_POINT ( 'NONE', #569 ) ;
#359 = EDGE_CURVE ( 'NONE', #682, #412, #314, .T. ) ;
#360 = UNCERTAINTY_MEASURE_WITH_UNIT (LENGTH_MEASURE( 1.000000000000000082E-05 ), #461, 'distance_accuracy_value', 'NONE');
#361 = COORDINATED_UNIVERSAL_TIME_OFFSET ( 6, 0, .BEHIND. ) ;
#362 = EDGE_LOOP ( 'NONE', ( #606, #38, #28, #369 ) ) ;
#363 = DIRECTION ( 'NONE',  ( 0.000000000000000000, 0.000000000000000000, -1.000000000000000000 ) ) ;
#364 = CARTESIAN_POINT ( 'NONE',  ( 9.099999999999999645, 7.000000000000000000, 0.3499999999999999778 ) ) ;
#365 = VECTOR ( 'NONE', #363, 1000.000000000000000 ) ;
#366 = FACE_OUTER_BOUND ( 'NONE', #272, .T. ) ;
#367 = CIRCLE ( 'NONE', #681, 1.150000000000000799 ) ;
#368 = DIRECTION ( 'NONE',  ( 0.000000000000000000, 0.000000000000000000, 1.000000000000000000 ) ) ;
#369 = ORIENTED_EDGE ( 'NONE', *, *, #433, .F. ) ;
#370 = DIRECTION ( 'NONE',  ( 1.000000000000000000, 0.000000000000000000, 0.000000000000000000 ) ) ;
#371 = CARTESIAN_POINT ( 'NONE',  ( 7.000000000000000000, 7.000000000000000000, 0.3500000000000000333 ) ) ;
#372 = ORIENTED_EDGE ( 'NONE', *, *, #458, .T. ) ;
#373 = ADVANCED_FACE ( 'NONE', ( #177 ), #309, .F. ) ;
#374 = CYLINDRICAL_SURFACE ( 'NONE', #731, 4.000000000000000000 ) ;
#375 = CARTESIAN_POINT ( 'NONE',  ( 8.150000000000000355, 7.000000000000000000, 2.000000000000001776 ) ) ;
#376 = EDGE_LOOP ( 'NONE', ( #816, #712 ) ) ;
#377 = CARTESIAN_POINT ( 'NONE',  ( -9.099999999999999645, 7.000000000000000000, 0.3499999999999999778 ) ) ;
#378 = AXIS2_PLACEMENT_3D ( 'NONE', #766, #642, #308 ) ;
#379 = DIRECTION ( 'NONE',  ( 0.000000000000000000, 0.000000000000000000, 1.000000000000000000 ) ) ;
#380 = AXIS2_PLACEMENT_3D ( 'NONE', #794, #196, #457 ) ;
#381 = CARTESIAN_POINT ( 'NONE',  ( -7.000000000000000000, 7.000000000000000000, 0.3499999999999999778 ) ) ;
#382 = PERSON ( 'UNSPECIFIED', 'UNSPECIFIED', 'UNSPECIFIED', ('UNSPECIFIED'), ('UNSPECIFIED'), ('UNSPECIFIED') ) ;
#383 = ADVANCED_FACE ( 'NONE', ( #442 ), #640, .T. ) ;
#384 = CYLINDRICAL_SURFACE ( 'NONE', #667, 1.150000000000000799 ) ;
#385 = DIRECTION ( 'NONE',  ( 1.000000000000000000, 0.000000000000000000, -0.000000000000000000 ) ) ;
#386 = VERTEX_POINT ( 'NONE', #439 ) ;
#387 = DIRECTION ( 'NONE',  ( 1.000000000000000000, 0.000000000000000000, 0.000000000000000000 ) ) ;
#388 = DIRECTION ( 'NONE',  ( 0.000000000000000000, 0.000000000000000000, 1.000000000000000000 ) ) ;
#389 = CC_DESIGN_APPROVAL ( #818, ( #185 ) ) ;
#390 = CARTESIAN_POINT ( 'NONE',  ( 0.000000000000000000, 0.000000000000000000, 2.000000000000000000 ) ) ;
#391 = FACE_OUTER_BOUND ( 'NONE', #617, .T. ) ;
#392 = AXIS2_PLACEMENT_3D ( 'NONE', #743, #223, #148 ) ;
#393 = EDGE_LOOP ( 'NONE', ( #411, #418 ) ) ;
#394 = AXIS2_PLACEMENT_3D ( 'NONE', #55, #515, #583 ) ;
#395 = DIRECTION ( 'NONE',  ( 1.000000000000000000, 0.000000000000000000, 0.000000000000000000 ) ) ;
#396 = DIRECTION ( 'NONE',  ( 1.000000000000000000, 0.000000000000000000, 0.000000000000000000 ) ) ;
#397 = PERSON_AND_ORGANIZATION_ROLE ( 'design_owner' ) ;
#398 = ORIENTED_EDGE ( 'NONE', *, *, #359, .F. ) ;
#399 = CARTESIAN_POINT ( 'NONE',  ( 9.099999999999999645, 7.000000000000000000, 0.000000000000000000 ) ) ;
#400 = CARTESIAN_POINT ( 'NONE',  ( 8.150000000000000355, -7.000000000000000000, 2.000000000000001776 ) ) ;
#401 = ORIENTED_EDGE ( 'NONE', *, *, #129, .F. ) ;
#402 = DIRECTION ( 'NONE',  ( 1.000000000000000000, 0.000000000000000000, 0.000000000000000000 ) ) ;
#403 = CARTESIAN_POINT ( 'NONE',  ( -8.150000000000000355, 7.000000000000000000, 2.000000000000001776 ) ) ;
#404 = CIRCLE ( 'NONE', #151, 2.100000000000000089 ) ;
#405 = VERTEX_POINT ( 'NONE', #711 ) ;
#406 = VECTOR ( 'NONE', #20, 1000.000000000000000 ) ;
#407 = VECTOR ( 'NONE', #853, 1000.000000000000000 ) ;
#408 = EDGE_CURVE ( 'NONE', #495, #253, #648, .T. ) ;
#409 = CARTESIAN_POINT ( 'NONE',  ( 8.150000000000000355, -7.000000000000000000, 0.3500000000000000333 ) ) ;
#410 = APPROVAL_DATE_TIME ( #815, #263 ) ;
#411 = ORIENTED_EDGE ( 'NONE', *, *, #79, .F. ) ;
#412 = VERTEX_POINT ( 'NONE', #111 ) ;
#413 = FACE_OUTER_BOUND ( 'NONE', #112, .T. ) ;
#414 = CC_DESIGN_PERSON_AND_ORGANIZATION_ASSIGNMENT ( #131, #397, ( #765 ) ) ;
#415 = APPROVAL_ROLE ( '' ) ;
#416 = ORIENTED_EDGE ( 'NONE', *, *, #851, .T. ) ;
#417 = DIRECTION ( 'NONE',  ( -1.000000000000000000, 0.000000000000000000, 0.000000000000000000 ) ) ;
#418 = ORIENTED_EDGE ( 'NONE', *, *, #408, .F. ) ;
#419 = ADVANCED_FACE ( 'NONE', ( #168 ), #120, .F. ) ;
#420 = AXIS2_PLACEMENT_3D ( 'NONE', #107, #777, #232 ) ;
#421 = FACE_OUTER_BOUND ( 'NONE', #376, .T. ) ;
#422 = APPROVAL_STATUS ( 'not_yet_approved' ) ;
#423 = EDGE_LOOP ( 'NONE', ( #624, #154 ) ) ;
#424 = ORIENTED_EDGE ( 'NONE', *, *, #287, .F. ) ;
#425 = SHAPE_DEFINITION_REPRESENTATION ( #490, #709 ) ;
#426 = LINE ( 'NONE', #364, #353 ) ;
#427 = PLANE ( 'NONE',  #8 ) ;
#428 = CARTESIAN_POINT ( 'NONE',  ( 7.000000000000000000, 7.000000000000000000, 2.000000000000001776 ) ) ;
#429 = VERTEX_POINT ( 'NONE', #375 ) ;
#430 = CIRCLE ( 'NONE', #63, 13.00000000000000000 ) ;
#431 = FACE_OUTER_BOUND ( 'NONE', #298, .T. ) ;
#432 = VECTOR ( 'NONE', #795, 1000.000000000000000 ) ;
#433 = EDGE_CURVE ( 'NONE', #358, #558, #537, .T. ) ;
#434 = CARTESIAN_POINT ( 'NONE',  ( -7.000000000000000000, 7.000000000000000000, 0.3499999999999999778 ) ) ;
#435 = VERTEX_POINT ( 'NONE', #49 ) ;
#436 = EDGE_CURVE ( 'NONE', #609, #344, #579, .T. ) ;
#437 = AXIS2_PLACEMENT_3D ( 'NONE', #65, #733, #593 ) ;
#438 = DIRECTION ( 'NONE',  ( -1.000000000000000000, 0.000000000000000000, 0.000000000000000000 ) ) ;
#439 = CARTESIAN_POINT ( 'NONE',  ( 8.150000000000000355, -7.000000000000000000, 2.000000000000001776 ) ) ;
#440 = VERTEX_POINT ( 'NONE', #779 ) ;
#441 = FACE_BOUND ( 'NONE', #423, .T. ) ;
#442 = FACE_OUTER_BOUND ( 'NONE', #721, .T. ) ;
#443 = ORIENTED_EDGE ( 'NONE', *, *, #529, .F. ) ;
#444 = CARTESIAN_POINT ( 'NONE',  ( -7.000000000000000000, -7.000000000000000000, 0.000000000000000000 ) ) ;
#445 = EDGE_CURVE ( 'NONE', #435, #352, #315, .T. ) ;
#446 = DIRECTION ( 'NONE',  ( 0.000000000000000000, 0.000000000000000000, -1.000000000000000000 ) ) ;
#447 = AXIS2_PLACEMENT_3D ( 'NONE', #514, #844, #370 ) ;
#448 = DIRECTION ( 'NONE',  ( 0.000000000000000000, 0.000000000000000000, -1.000000000000000000 ) ) ;
#449 = CARTESIAN_POINT ( 'NONE',  ( 5.849999999999999645, 7.000000000000000000, 2.000000000000001776 ) ) ;
#450 = LINE ( 'NONE', #123, #646 ) ;
#451 = CARTESIAN_POINT ( 'NONE',  ( -8.150000000000000355, -7.000000000000000000, 2.000000000000001776 ) ) ;
#452 = DIRECTION ( 'NONE',  ( -0.000000000000000000, -0.000000000000000000, -1.000000000000000000 ) ) ;
#453 =( NAMED_UNIT ( * ) SI_UNIT ( $, .STERADIAN. ) SOLID_ANGLE_UNIT ( ) );
#454 = CARTESIAN_POINT ( 'NONE',  ( 7.000000000000000000, -7.000000000000000000, 0.3499999999999999778 ) ) ;
#455 = CARTESIAN_POINT ( 'NONE',  ( -7.000000000000000000, -7.000000000000000000, 0.3500000000000000333 ) ) ;
#456 = ORIENTED_EDGE ( 'NONE', *, *, #473, .T. ) ;
#457 = DIRECTION ( 'NONE',  ( 1.000000000000000000, 0.000000000000000000, 0.000000000000000000 ) ) ;
#458 = EDGE_CURVE ( 'NONE', #492, #344, #290, .T. ) ;
#459 = CARTESIAN_POINT ( 'NONE',  ( -4.899999999999999467, -7.000000000000000000, 0.000000000000000000 ) ) ;
#460 = AXIS2_PLACEMENT_3D ( 'NONE', #89, #674, #75 ) ;
#461 =( LENGTH_UNIT ( ) NAMED_UNIT ( * ) SI_UNIT ( .MILLI., .METRE. ) );
#462 = EDGE_LOOP ( 'NONE', ( #645, #740 ) ) ;
#463 = CIRCLE ( 'NONE', #776, 1.149999999999999911 ) ;
#464 = CARTESIAN_POINT ( 'NONE',  ( -4.899999999999999467, 7.000000000000000000, 0.3499999999999999778 ) ) ;
#465 = DIRECTION ( 'NONE',  ( 1.000000000000000000, 0.000000000000000000, 0.000000000000000000 ) ) ;
#466 = ADVANCED_FACE ( 'NONE', ( #103 ), #635, .F. ) ;
#467 = DIRECTION ( 'NONE',  ( 1.000000000000000000, 0.000000000000000000, 0.000000000000000000 ) ) ;
#468 = VERTEX_POINT ( 'NONE', #251 ) ;
#469 = CYLINDRICAL_SURFACE ( 'NONE', #9, 1.150000000000000799 ) ;
#470 = CARTESIAN_POINT ( 'NONE',  ( 8.150000000000000355, 7.000000000000000000, 2.000000000000001776 ) ) ;
#471 = DIRECTION ( 'NONE',  ( 0.000000000000000000, 0.000000000000000000, 1.000000000000000000 ) ) ;
#472 = ORIENTED_EDGE ( 'NONE', *, *, #108, .F. ) ;
#473 = EDGE_CURVE ( 'NONE', #310, #50, #356, .T. ) ;
#474 = DIRECTION ( 'NONE',  ( -0.000000000000000000, -0.000000000000000000, -1.000000000000000000 ) ) ;
#475 = ORIENTED_EDGE ( 'NONE', *, *, #577, .F. ) ;
#476 = APPROVAL_PERSON_ORGANIZATION ( #289, #818, #415 ) ;
#477 = VERTEX_POINT ( 'NONE', #719 ) ;
#478 = ADVANCED_FACE ( 'NONE', ( #767 ), #384, .F. ) ;
#479 = CARTESIAN_POINT ( 'NONE',  ( -7.000000000000000000, -7.000000000000000000, 0.3500000000000000333 ) ) ;
#480 = PERSON_AND_ORGANIZATION_ROLE ( 'classification_officer' ) ;
#481 = VERTEX_POINT ( 'NONE', #74 ) ;
#482 = EDGE_LOOP ( 'NONE', ( #138, #214, #781, #398 ) ) ;
#483 = DIRECTION ( 'NONE',  ( 0.000000000000000000, 0.000000000000000000, 1.000000000000000000 ) ) ;
#484 = ORIENTED_EDGE ( 'NONE', *, *, #157, .T. ) ;
#485 = ORIENTED_EDGE ( 'NONE', *, *, #113, .T. ) ;
#486 = CARTESIAN_POINT ( 'NONE',  ( 0.000000000000000000, 0.000000000000000000, 0.000000000000000000 ) ) ;
#487 = CALENDAR_DATE ( 2026, 8, 9 ) ;
#488 = EDGE_CURVE ( 'NONE', #226, #440, #175, .T. ) ;
#489 = ORIENTED_EDGE ( 'NONE', *, *, #311, .F. ) ;
#490 = PRODUCT_DEFINITION_SHAPE ( 'NONE', 'NONE',  #350 ) ;
#491 = CIRCLE ( 'NONE', #351, 1.150000000000000799 ) ;
#492 = VERTEX_POINT ( 'NONE', #399 ) ;
#493 = CIRCLE ( 'NONE', #829, 13.00000000000000000 ) ;
#494 = DIRECTION ( 'NONE',  ( 1.000000000000000000, 0.000000000000000000, 0.000000000000000000 ) ) ;
#495 = VERTEX_POINT ( 'NONE', #673 ) ;
#496 = CYLINDRICAL_SURFACE ( 'NONE', #228, 1.150000000000000799 ) ;
#497 = DIRECTION ( 'NONE',  ( 1.000000000000000000, 0.000000000000000000, 0.000000000000000000 ) ) ;
#498 = VERTEX_POINT ( 'NONE', #663 ) ;
#499 = EDGE_CURVE ( 'NONE', #429, #599, #817, .T. ) ;
#500 = DIRECTION ( 'NONE',  ( -1.000000000000000000, 0.000000000000000000, 0.000000000000000000 ) ) ;
#501 = DIRECTION ( 'NONE',  ( -0.000000000000000000, -0.000000000000000000, -1.000000000000000000 ) ) ;
#502 = FACE_BOUND ( 'NONE', #715, .T. ) ;
#503 = CC_DESIGN_SECURITY_CLASSIFICATION ( #185, ( #37 ) ) ;
#504 = EDGE_CURVE ( 'NONE', #253, #77, #264, .T. ) ;
#505 = VECTOR ( 'NONE', #342, 1000.000000000000000 ) ;
#506 = CARTESIAN_POINT ( 'NONE',  ( -5.850000000000000533, -7.000000000000000000, 2.000000000000001776 ) ) ;
#507 = CARTESIAN_POINT ( 'NONE',  ( -4.000000000000000000, 0.000000000000000000, 2.000000000000000000 ) ) ;
#508 = FACE_BOUND ( 'NONE', #174, .T. ) ;
#509 = AXIS2_PLACEMENT_3D ( 'NONE', #796, #328, #334 ) ;
#510 = LINE ( 'NONE', #506, #51 ) ;
#511 = LINE ( 'NONE', #507, #732 ) ;
#512 = EDGE_CURVE ( 'NONE', #666, #337, #585, .T. ) ;
#513 = ORIENTED_EDGE ( 'NONE', *, *, #824, .T. ) ;
#514 = CARTESIAN_POINT ( 'NONE',  ( 0.000000000000000000, 0.000000000000000000, 0.000000000000000000 ) ) ;
#515 = DIRECTION ( 'NONE',  ( 0.000000000000000000, 0.000000000000000000, -1.000000000000000000 ) ) ;
#516 = LINE ( 'NONE', #449, #432 ) ;
#517 = EDGE_CURVE ( 'NONE', #337, #468, #845, .T. ) ;
#518 = AXIS2_PLACEMENT_3D ( 'NONE', #322, #801, #72 ) ;
#519 = AXIS2_PLACEMENT_3D ( 'NONE', #207, #17, #744 ) ;
#520 = AXIS2_PLACEMENT_3D ( 'NONE', #15, #483, #611 ) ;
#521 = LINE ( 'NONE', #451, #303 ) ;
#522 = CARTESIAN_POINT ( 'NONE',  ( 7.000000000000000000, 7.000000000000000000, 0.3499999999999999778 ) ) ;
#523 = ORIENTED_EDGE ( 'NONE', *, *, #3, .T. ) ;
#524 = DIRECTION ( 'NONE',  ( 0.000000000000000000, 0.000000000000000000, -1.000000000000000000 ) ) ;
#525 = PLANE ( 'NONE',  #616 ) ;
#526 = FACE_OUTER_BOUND ( 'NONE', #614, .T. ) ;
#527 = EDGE_LOOP ( 'NONE', ( #187, #725 ) ) ;
#528 = EDGE_CURVE ( 'NONE', #291, #477, #463, .T. ) ;
#529 = EDGE_CURVE ( 'NONE', #682, #566, #554, .T. ) ;
#530 = DIRECTION ( 'NONE',  ( 0.000000000000000000, 0.000000000000000000, 1.000000000000000000 ) ) ;
#531 = CARTESIAN_POINT ( 'NONE',  ( -7.000000000000000000, 7.000000000000000000, 2.000000000000001776 ) ) ;
#532 = FACE_BOUND ( 'NONE', #285, .T. ) ;
#533 = ORIENTED_EDGE ( 'NONE', *, *, #811, .T. ) ;
#534 = CC_DESIGN_PERSON_AND_ORGANIZATION_ASSIGNMENT ( #90, #698, ( #37 ) ) ;
#535 = AXIS2_PLACEMENT_3D ( 'NONE', #182, #838, #438 ) ;
#536 = DIRECTION ( 'NONE',  ( 1.000000000000000000, 0.000000000000000000, 0.000000000000000000 ) ) ;
#537 = CIRCLE ( 'NONE', #576, 1.150000000000000799 ) ;
#538 = CARTESIAN_POINT ( 'NONE',  ( 7.000000000000000000, -7.000000000000000000, 2.000000000000001776 ) ) ;
#539 = ORIENTED_EDGE ( 'NONE', *, *, #206, .F. ) ;
#540 = PLANE ( 'NONE',  #604 ) ;
#541 = CARTESIAN_POINT ( 'NONE',  ( -7.000000000000000000, 7.000000000000000000, 0.3499999999999999778 ) ) ;
#542 = EDGE_CURVE ( 'NONE', #481, #666, #621, .T. ) ;
#543 = CALENDAR_DATE ( 2026, 8, 9 ) ;
#544 = ORIENTED_EDGE ( 'NONE', *, *, #836, .F. ) ;
#545 = LINE ( 'NONE', #403, #505 ) ;
#546 = ORIENTED_EDGE ( 'NONE', *, *, #811, .F. ) ;
#547 = CC_DESIGN_DATE_AND_TIME_ASSIGNMENT ( #760, #348, ( #185 ) ) ;
#548 = ORIENTED_EDGE ( 'NONE', *, *, #793, .T. ) ;
#549 = CARTESIAN_POINT ( 'NONE',  ( -9.099999999999999645, -7.000000000000000000, 0.3499999999999999778 ) ) ;
#550 = AXIS2_PLACEMENT_3D ( 'NONE', #56, #270, #396 ) ;
#551 = DATE_TIME_ROLE ( 'creation_date' ) ;
#552 = ORIENTED_EDGE ( 'NONE', *, *, #636, .F. ) ;
#553 = AXIS2_PLACEMENT_3D ( 'NONE', #734, #388, #590 ) ;
#554 = CIRCLE ( 'NONE', #509, 2.100000000000000089 ) ;
#555 = CARTESIAN_POINT ( 'NONE',  ( 7.000000000000000000, -7.000000000000000000, 0.3499999999999999778 ) ) ;
#556 = ORIENTED_EDGE ( 'NONE', *, *, #824, .F. ) ;
#557 = CARTESIAN_POINT ( 'NONE',  ( 0.000000000000000000, 0.000000000000000000, 2.000000000000000000 ) ) ;
#558 = VERTEX_POINT ( 'NONE', #5 ) ;
#559 = ORIENTED_EDGE ( 'NONE', *, *, #31, .T. ) ;
#560 = COORDINATED_UNIVERSAL_TIME_OFFSET ( 6, 0, .BEHIND. ) ;
#561 = EDGE_LOOP ( 'NONE', ( #798, #340, #341, #807 ) ) ;
#562 = AXIS2_PLACEMENT_3D ( 'NONE', #531, #584, #197 ) ;
#563 = CIRCLE ( 'NONE', #300, 2.100000000000000089 ) ;
#564 = CIRCLE ( 'NONE', #748, 1.150000000000000799 ) ;
#565 = CARTESIAN_POINT ( 'NONE',  ( 7.000000000000000000, 7.000000000000000000, 0.3499999999999999778 ) ) ;
#566 = VERTEX_POINT ( 'NONE', #464 ) ;
#567 = EDGE_CURVE ( 'NONE', #468, #337, #581, .T. ) ;
#568 = DIRECTION ( 'NONE',  ( 0.000000000000000000, 0.000000000000000000, 1.000000000000000000 ) ) ;
#569 = CARTESIAN_POINT ( 'NONE',  ( 8.150000000000000355, 7.000000000000000000, 0.3500000000000000333 ) ) ;
#570 = ORIENTED_EDGE ( 'NONE', *, *, #473, .F. ) ;
#571 = EDGE_CURVE ( 'NONE', #730, #127, #338, .T. ) ;
#572 = CYLINDRICAL_SURFACE ( 'NONE', #535, 2.100000000000000089 ) ;
#573 = CARTESIAN_POINT ( 'NONE',  ( 4.899999999999999467, 7.000000000000000000, 0.000000000000000000 ) ) ;
#574 = ORIENTED_EDGE ( 'NONE', *, *, #287, .T. ) ;
#575 = CIRCLE ( 'NONE', #601, 4.000000000000000000 ) ;
#576 = AXIS2_PLACEMENT_3D ( 'NONE', #371, #643, #850 ) ;
#577 = EDGE_CURVE ( 'NONE', #208, #386, #367, .T. ) ;
#578 = FACE_OUTER_BOUND ( 'NONE', #761, .T. ) ;
#579 = LINE ( 'NONE', #846, #693 ) ;
#580 = ORIENTED_EDGE ( 'NONE', *, *, #113, .F. ) ;
#581 = CIRCLE ( 'NONE', #218, 2.100000000000000089 ) ;
#582 = DIRECTION ( 'NONE',  ( 0.000000000000000000, 0.000000000000000000, -1.000000000000000000 ) ) ;
#583 = DIRECTION ( 'NONE',  ( -1.000000000000000000, 0.000000000000000000, 0.000000000000000000 ) ) ;
#584 = DIRECTION ( 'NONE',  ( 0.000000000000000000, 0.000000000000000000, 1.000000000000000000 ) ) ;
#585 = LINE ( 'NONE', #135, #327 ) ;
#586 = CARTESIAN_POINT ( 'NONE',  ( 13.00000000000000000, 1.592040838891559095E-15, 0.000000000000000000 ) ) ;
#587 = ORIENTED_EDGE ( 'NONE', *, *, #628, .F. ) ;
#588 = AXIS2_PLACEMENT_3D ( 'NONE', #522, #262, #594 ) ;
#589 = DIRECTION ( 'NONE',  ( -1.000000000000000000, 0.000000000000000000, 0.000000000000000000 ) ) ;
#590 = DIRECTION ( 'NONE',  ( 1.000000000000000000, 0.000000000000000000, 0.000000000000000000 ) ) ;
#591 = EDGE_CURVE ( 'NONE', #50, #310, #564, .T. ) ;
#592 = AXIS2_PLACEMENT_3D ( 'NONE', #390, #530, #536 ) ;
#593 = DIRECTION ( 'NONE',  ( 1.000000000000000000, 0.000000000000000000, 0.000000000000000000 ) ) ;
#594 = DIRECTION ( 'NONE',  ( -1.000000000000000000, 0.000000000000000000, 0.000000000000000000 ) ) ;
#595 = EDGE_LOOP ( 'NONE', ( #475, #544 ) ) ;
#596 = DIRECTION ( 'NONE',  ( 0.000000000000000000, 0.000000000000000000, 1.000000000000000000 ) ) ;
#597 = DIRECTION ( 'NONE',  ( 0.000000000000000000, 0.000000000000000000, 1.000000000000000000 ) ) ;
#598 = CALENDAR_DATE ( 2026, 8, 9 ) ;
#599 = VERTEX_POINT ( 'NONE', #668 ) ;
#600 = ADVANCED_FACE ( 'NONE', ( #738, #139 ), #540, .F. ) ;
#601 = AXIS2_PLACEMENT_3D ( 'NONE', #655, #848, #249 ) ;
#602 = DIRECTION ( 'NONE',  ( 0.000000000000000000, 0.000000000000000000, 1.000000000000000000 ) ) ;
#603 = FACE_BOUND ( 'NONE', #778, .T. ) ;
#604 = AXIS2_PLACEMENT_3D ( 'NONE', #331, #596, #805 ) ;
#605 = PERSON_AND_ORGANIZATION_ROLE ( 'creator' ) ;
#606 = ORIENTED_EDGE ( 'NONE', *, *, #220, .F. ) ;
#607 = CARTESIAN_POINT ( 'NONE',  ( 5.849999999999999645, -7.000000000000000000, 2.000000000000001776 ) ) ;
#608 = DIRECTION ( 'NONE',  ( 0.000000000000000000, 0.000000000000000000, -1.000000000000000000 ) ) ;
#609 = VERTEX_POINT ( 'NONE', #189 ) ;
#610 = DIRECTION ( 'NONE',  ( 1.000000000000000000, 0.000000000000000000, 0.000000000000000000 ) ) ;
#611 = DIRECTION ( 'NONE',  ( 1.000000000000000000, 0.000000000000000000, 0.000000000000000000 ) ) ;
#612 = PERSON_AND_ORGANIZATION_ROLE ( 'design_supplier' ) ;
#613 = ORIENTED_EDGE ( 'NONE', *, *, #22, .F. ) ;
#614 = EDGE_LOOP ( 'NONE', ( #556, #258, #346, #546 ) ) ;
#615 = CYLINDRICAL_SURFACE ( 'NONE', #122, 4.000000000000000000 ) ;
#616 = AXIS2_PLACEMENT_3D ( 'NONE', #130, #332, #385 ) ;
#617 = EDGE_LOOP ( 'NONE', ( #286, #689, #688, #660 ) ) ;
#618 = CIRCLE ( 'NONE', #243, 1.150000000000000799 ) ;
#619 = ORIENTED_EDGE ( 'NONE', *, *, #86, .T. ) ;
#620 = ADVANCED_FACE ( 'NONE', ( #269 ), #469, .F. ) ;
#621 = CIRCLE ( 'NONE', #245, 2.100000000000000089 ) ;
#622 = DIRECTION ( 'NONE',  ( 0.000000000000000000, 0.000000000000000000, -1.000000000000000000 ) ) ;
#623 = ORIENTED_EDGE ( 'NONE', *, *, #658, .F. ) ;
#624 = ORIENTED_EDGE ( 'NONE', *, *, #343, .T. ) ;
#625 = ORIENTED_EDGE ( 'NONE', *, *, #22, .T. ) ;
#626 = EDGE_LOOP ( 'NONE', ( #485, #372 ) ) ;
#627 = FACE_BOUND ( 'NONE', #750, .T. ) ;
#628 = EDGE_CURVE ( 'NONE', #566, #281, #861, .T. ) ;
#629 = DATE_AND_TIME ( #543, #799 ) ;
#630 = EDGE_LOOP ( 'NONE', ( #832, #523, #580, #94 ) ) ;
#631 = LOCAL_TIME ( 17, 1, 55.00000000000000000, #1 ) ;
#632 = AXIS2_PLACEMENT_3D ( 'NONE', #541, #85, #221 ) ;
#633 = AXIS2_PLACEMENT_3D ( 'NONE', #164, #14, #610 ) ;
#634 = CARTESIAN_POINT ( 'NONE',  ( -7.000000000000000000, 7.000000000000000000, 0.3499999999999999778 ) ) ;
#635 = CYLINDRICAL_SURFACE ( 'NONE', #394, 2.100000000000000089 ) ;
#636 = EDGE_CURVE ( 'NONE', #435, #244, #521, .T. ) ;
#637 = ORIENTED_EDGE ( 'NONE', *, *, #359, .T. ) ;
#638 = VECTOR ( 'NONE', #452, 1000.000000000000000 ) ;
#639 = CYLINDRICAL_SURFACE ( 'NONE', #717, 1.150000000000000799 ) ;
#640 = CYLINDRICAL_SURFACE ( 'NONE', #420, 13.00000000000000000 ) ;
#641 = ORIENTED_EDGE ( 'NONE', *, *, #166, .T. ) ;
#642 = DIRECTION ( 'NONE',  ( 0.000000000000000000, 0.000000000000000000, -1.000000000000000000 ) ) ;
#643 = DIRECTION ( 'NONE',  ( 0.000000000000000000, 0.000000000000000000, 1.000000000000000000 ) ) ;
#644 = ORIENTED_EDGE ( 'NONE', *, *, #195, .F. ) ;
#645 = ORIENTED_EDGE ( 'NONE', *, *, #741, .T. ) ;
#646 = VECTOR ( 'NONE', #608, 1000.000000000000000 ) ;
#647 = EDGE_CURVE ( 'NONE', #498, #609, #789, .T. ) ;
#648 = CIRCLE ( 'NONE', #173, 2.100000000000000089 ) ;
#649 = PLANE ( 'NONE',  #718 ) ;
#650 = DIRECTION ( 'NONE',  ( 1.000000000000000000, 0.000000000000000000, 0.000000000000000000 ) ) ;
#651 = DIRECTION ( 'NONE',  ( 1.000000000000000000, 0.000000000000000000, 0.000000000000000000 ) ) ;
#652 = DIRECTION ( 'NONE',  ( 1.000000000000000000, 0.000000000000000000, -0.000000000000000000 ) ) ;
#653 = CARTESIAN_POINT ( 'NONE',  ( 5.849999999999999645, -7.000000000000000000, 0.3500000000000000333 ) ) ;
#654 = EDGE_CURVE ( 'NONE', #405, #132, #860, .T. ) ;
#655 = CARTESIAN_POINT ( 'NONE',  ( 0.000000000000000000, 0.000000000000000000, 2.000000000000000000 ) ) ;
#656 = ORIENTED_EDGE ( 'NONE', *, *, #129, .T. ) ;
#657 = CARTESIAN_POINT ( 'NONE',  ( 7.000000000000000000, -7.000000000000000000, 2.000000000000001776 ) ) ;
#658 = EDGE_CURVE ( 'NONE', #609, #498, #259, .T. ) ;
#659 = DIRECTION ( 'NONE',  ( 0.000000000000000000, 0.000000000000000000, 1.000000000000000000 ) ) ;
#660 = ORIENTED_EDGE ( 'NONE', *, *, #191, .F. ) ;
#661 = VECTOR ( 'NONE', #448, 1000.000000000000000 ) ;
#662 = CIRCLE ( 'NONE', #64, 2.100000000000000089 ) ;
#663 = CARTESIAN_POINT ( 'NONE',  ( 9.099999999999999645, 7.000000000000000000, 0.3499999999999999778 ) ) ;
#664 = CARTESIAN_POINT ( 'NONE',  ( 4.000000000000000000, 4.898587196589412829E-16, 2.000000000000000000 ) ) ;
#665 = DIRECTION ( 'NONE',  ( 1.000000000000000000, 0.000000000000000000, -0.000000000000000000 ) ) ;
#666 = VERTEX_POINT ( 'NONE', #833 ) ;
#667 = AXIS2_PLACEMENT_3D ( 'NONE', #428, #702, #723 ) ;
#668 = CARTESIAN_POINT ( 'NONE',  ( 5.849999999999999645, 7.000000000000000000, 2.000000000000001776 ) ) ;
#669 = CARTESIAN_POINT ( 'NONE',  ( 0.000000000000000000, 0.000000000000000000, 2.000000000000000000 ) ) ;
#670 = APPLICATION_PROTOCOL_DEFINITION ( 'international standard', 'config_control_design', 1994, #254 ) ;
#671 = EDGE_LOOP ( 'NONE', ( #443, #99 ) ) ;
#672 = EDGE_CURVE ( 'NONE', #692, #405, #236, .T. ) ;
#673 = CARTESIAN_POINT ( 'NONE',  ( -4.899999999999999467, -7.000000000000000000, 0.3499999999999999778 ) ) ;
#674 = DIRECTION ( 'NONE',  ( 0.000000000000000000, 0.000000000000000000, -1.000000000000000000 ) ) ;
#675 = DIRECTION ( 'NONE',  ( 1.000000000000000000, 0.000000000000000000, 0.000000000000000000 ) ) ;
#676 = ORIENTED_EDGE ( 'NONE', *, *, #647, .T. ) ;
#677 = CC_DESIGN_APPROVAL ( #263, ( #37 ) ) ;
#678 = CARTESIAN_POINT ( 'NONE',  ( -4.899999999999999467, 7.000000000000000000, 0.3499999999999999778 ) ) ;
#679 = CYLINDRICAL_SURFACE ( 'NONE', #632, 2.100000000000000089 ) ;
#680 = AXIS2_PLACEMENT_3D ( 'NONE', #555, #339, #819 ) ;
#681 = AXIS2_PLACEMENT_3D ( 'NONE', #657, #727, #203 ) ;
#682 = VERTEX_POINT ( 'NONE', #377 ) ;
#683 = EDGE_LOOP ( 'NONE', ( #587, #62, #637, #19 ) ) ;
#684 = CARTESIAN_POINT ( 'NONE',  ( -5.850000000000000533, 7.000000000000000000, 2.000000000000001776 ) ) ;
#685 = VERTEX_POINT ( 'NONE', #41 ) ;
#686 = CYLINDRICAL_SURFACE ( 'NONE', #460, 1.150000000000000799 ) ;
#687 = ADVANCED_FACE ( 'NONE', ( #441, #431 ), #649, .F. ) ;
#688 = ORIENTED_EDGE ( 'NONE', *, *, #591, .F. ) ;
#689 = ORIENTED_EDGE ( 'NONE', *, *, #195, .T. ) ;
#690 = CARTESIAN_POINT ( 'NONE',  ( -7.000000000000000000, -7.000000000000000000, 2.000000000000001776 ) ) ;
#691 = ORGANIZATION ( 'UNSPECIFIED', 'UNSPECIFIED', '' ) ;
#692 = VERTEX_POINT ( 'NONE', #317 ) ;
#693 = VECTOR ( 'NONE', #247, 1000.000000000000000 ) ;
#694 = ORIENTED_EDGE ( 'NONE', *, *, #295, .T. ) ;
#695 = FACE_BOUND ( 'NONE', #462, .T. ) ;
#696 = ORIENTED_EDGE ( 'NONE', *, *, #567, .F. ) ;
#697 = ADVANCED_FACE ( 'NONE', ( #114 ), #496, .F. ) ;
#698 = PERSON_AND_ORGANIZATION_ROLE ( 'creator' ) ;
#699 = ORIENTED_EDGE ( 'NONE', *, *, #647, .F. ) ;
#700 = CC_DESIGN_PERSON_AND_ORGANIZATION_ASSIGNMENT ( #336, #605, ( #350 ) ) ;
#701 = CARTESIAN_POINT ( 'NONE',  ( 0.000000000000000000, 0.000000000000000000, 2.000000000000000000 ) ) ;
#702 = DIRECTION ( 'NONE',  ( 0.000000000000000000, 0.000000000000000000, -1.000000000000000000 ) ) ;
#703 = ORIENTED_EDGE ( 'NONE', *, *, #224, .T. ) ;
#704 = AXIS2_PLACEMENT_3D ( 'NONE', #66, #865, #265 ) ;
#705 = DIRECTION ( 'NONE',  ( 1.000000000000000000, 0.000000000000000000, 0.000000000000000000 ) ) ;
#706 = AXIS2_PLACEMENT_3D ( 'NONE', #115, #831, #57 ) ;
#707 = DIRECTION ( 'NONE',  ( -1.000000000000000000, 0.000000000000000000, 0.000000000000000000 ) ) ;
#708 = ORIENTED_EDGE ( 'NONE', *, *, #220, .T. ) ;
#709 = ADVANCED_BREP_SHAPE_REPRESENTATION ( 'ARM-112_SG90_horn_capture_cap', ( #30, #24 ), #227 ) ;
#710 = CARTESIAN_POINT ( 'NONE',  ( 7.000000000000000000, 7.000000000000000000, 0.3499999999999999778 ) ) ;
#711 = CARTESIAN_POINT ( 'NONE',  ( -13.00000000000000000, 0.000000000000000000, 0.000000000000000000 ) ) ;
#712 = ORIENTED_EDGE ( 'NONE', *, *, #851, .F. ) ;
#713 = DIRECTION ( 'NONE',  ( 0.000000000000000000, 0.000000000000000000, 1.000000000000000000 ) ) ;
#714 = CARTESIAN_POINT ( 'NONE',  ( -5.850000000000000533, -7.000000000000000000, 2.000000000000001776 ) ) ;
#715 = EDGE_LOOP ( 'NONE', ( #613, #863 ) ) ;
#716 = DIRECTION ( 'NONE',  ( 0.000000000000000000, 0.000000000000000000, 1.000000000000000000 ) ) ;
#717 = AXIS2_PLACEMENT_3D ( 'NONE', #246, #769, #239 ) ;
#718 = AXIS2_PLACEMENT_3D ( 'NONE', #710, #713, #782 ) ;
#719 = CARTESIAN_POINT ( 'NONE',  ( -8.150000000000000355, 7.000000000000000000, 0.3500000000000000333 ) ) ;
#720 = DIRECTION ( 'NONE',  ( -1.000000000000000000, 0.000000000000000000, 0.000000000000000000 ) ) ;
#721 = EDGE_LOOP ( 'NONE', ( #163, #484, #416, #821 ) ) ;
#722 = EDGE_CURVE ( 'NONE', #316, #692, #493, .T. ) ;
#723 = DIRECTION ( 'NONE',  ( -1.000000000000000000, 0.000000000000000000, 0.000000000000000000 ) ) ;
#724 = DIRECTION ( 'NONE',  ( 0.000000000000000000, 0.000000000000000000, -1.000000000000000000 ) ) ;
#725 = ORIENTED_EDGE ( 'NONE', *, *, #230, .F. ) ;
#726 = ADVANCED_FACE ( 'NONE', ( #110 ), #301, .F. ) ;
#727 = DIRECTION ( 'NONE',  ( 0.000000000000000000, 0.000000000000000000, 1.000000000000000000 ) ) ;
#728 = CYLINDRICAL_SURFACE ( 'NONE', #704, 2.100000000000000089 ) ;
#729 = DIRECTION ( 'NONE',  ( 1.000000000000000000, 0.000000000000000000, 0.000000000000000000 ) ) ;
#730 = VERTEX_POINT ( 'NONE', #849 ) ;
#731 = AXIS2_PLACEMENT_3D ( 'NONE', #701, #45, #500 ) ;
#732 = VECTOR ( 'NONE', #501, 1000.000000000000000 ) ;
#733 = DIRECTION ( 'NONE',  ( 0.000000000000000000, 0.000000000000000000, 1.000000000000000000 ) ) ;
#734 = CARTESIAN_POINT ( 'NONE',  ( 7.000000000000000000, 7.000000000000000000, 2.000000000000001776 ) ) ;
#735 = EDGE_CURVE ( 'NONE', #412, #281, #273, .T. ) ;
#736 = CARTESIAN_POINT ( 'NONE',  ( 0.000000000000000000, 0.000000000000000000, 0.000000000000000000 ) ) ;
#737 = EDGE_LOOP ( 'NONE', ( #109, #212, #696, #150 ) ) ;
#738 = FACE_BOUND ( 'NONE', #194, .T. ) ;
#739 = DIRECTION ( 'NONE',  ( 0.000000000000000000, 0.000000000000000000, 1.000000000000000000 ) ) ;
#740 = ORIENTED_EDGE ( 'NONE', *, *, #571, .T. ) ;
#741 = EDGE_CURVE ( 'NONE', #127, #730, #200, .T. ) ;
#742 = CARTESIAN_POINT ( 'NONE',  ( 7.000000000000000000, -7.000000000000000000, 2.000000000000001776 ) ) ;
#743 = CARTESIAN_POINT ( 'NONE',  ( 0.000000000000000000, 0.000000000000000000, 2.000000000000000000 ) ) ;
#744 = DIRECTION ( 'NONE',  ( -1.000000000000000000, 0.000000000000000000, 0.000000000000000000 ) ) ;
#745 = ORIENTED_EDGE ( 'NONE', *, *, #54, .T. ) ;
#746 = CARTESIAN_POINT ( 'NONE',  ( 4.000000000000000000, 4.898587196589412829E-16, 2.000000000000000000 ) ) ;
#747 = AXIS2_PLACEMENT_3D ( 'NONE', #690, #279, #32 ) ;
#748 = AXIS2_PLACEMENT_3D ( 'NONE', #59, #10, #395 ) ;
#749 = ORIENTED_EDGE ( 'NONE', *, *, #79, .T. ) ;
#750 = EDGE_LOOP ( 'NONE', ( #282, #43 ) ) ;
#751 = ADVANCED_FACE ( 'NONE', ( #578 ), #374, .F. ) ;
#752 = DIRECTION ( 'NONE',  ( 0.000000000000000000, 0.000000000000000000, 1.000000000000000000 ) ) ;
#753 = ORIENTED_EDGE ( 'NONE', *, *, #488, .T. ) ;
#754 = ORIENTED_EDGE ( 'NONE', *, *, #206, .T. ) ;
#755 = FACE_OUTER_BOUND ( 'NONE', #215, .T. ) ;
#756 = SECURITY_CLASSIFICATION_LEVEL ( 'unclassified' ) ;
#757 = EDGE_LOOP ( 'NONE', ( #749, #513, #219, #13 ) ) ;
#758 = DIRECTION ( 'NONE',  ( 0.000000000000000000, 0.000000000000000000, 1.000000000000000000 ) ) ;
#759 = AXIS2_PLACEMENT_3D ( 'NONE', #312, #176, #705 ) ;
#760 = DATE_AND_TIME ( #487, #257 ) ;
#761 = EDGE_LOOP ( 'NONE', ( #69, #753, #35, #142 ) ) ;
#762 = ADVANCED_FACE ( 'NONE', ( #366 ), #572, .F. ) ;
#763 = ORIENTED_EDGE ( 'NONE', *, *, #458, .F. ) ;
#764 = ADVANCED_FACE ( 'NONE', ( #305 ), #639, .F. ) ;
#765 = PRODUCT ( 'ARM-112_SG90_horn_capture_cap', 'ARM-112_SG90_horn_capture_cap', '', ( #211 ) ) ;
#766 = CARTESIAN_POINT ( 'NONE',  ( -7.000000000000000000, -7.000000000000000000, 2.000000000000001776 ) ) ;
#767 = FACE_OUTER_BOUND ( 'NONE', #362, .T. ) ;
#768 = FACE_BOUND ( 'NONE', #595, .T. ) ;
#769 = DIRECTION ( 'NONE',  ( 0.000000000000000000, 0.000000000000000000, -1.000000000000000000 ) ) ;
#770 = CARTESIAN_POINT ( 'NONE',  ( -7.000000000000000000, -7.000000000000000000, 0.3499999999999999778 ) ) ;
#771 = ORIENTED_EDGE ( 'NONE', *, *, #528, .F. ) ;
#772 = LOCAL_TIME ( 17, 1, 55.00000000000000000, #560 ) ;
#773 = AXIS2_PLACEMENT_3D ( 'NONE', #217, #752, #213 ) ;
#774 = LINE ( 'NONE', #98, #365 ) ;
#775 = EDGE_CURVE ( 'NONE', #352, #23, #510, .T. ) ;
#776 = AXIS2_PLACEMENT_3D ( 'NONE', #255, #800, #274 ) ;
#777 = DIRECTION ( 'NONE',  ( -0.000000000000000000, -0.000000000000000000, -1.000000000000000000 ) ) ;
#778 = EDGE_LOOP ( 'NONE', ( #822, #548 ) ) ;
#779 = CARTESIAN_POINT ( 'NONE',  ( -4.000000000000000000, 0.000000000000000000, 2.000000000000000000 ) ) ;
#780 = EDGE_CURVE ( 'NONE', #481, #468, #774, .T. ) ;
#781 = ORIENTED_EDGE ( 'NONE', *, *, #735, .F. ) ;
#782 = DIRECTION ( 'NONE',  ( 1.000000000000000000, 0.000000000000000000, -0.000000000000000000 ) ) ;
#783 = CARTESIAN_POINT ( 'NONE',  ( 7.000000000000000000, -7.000000000000000000, 0.3500000000000000333 ) ) ;
#784 = DIRECTION ( 'NONE',  ( 0.000000000000000000, 0.000000000000000000, 1.000000000000000000 ) ) ;
#785 = CIRCLE ( 'NONE', #550, 2.100000000000000089 ) ;
#786 = ADVANCED_FACE ( 'NONE', ( #627, #36 ), #427, .F. ) ;
#787 = AXIS2_PLACEMENT_3D ( 'NONE', #803, #326, #665 ) ;
#788 = VECTOR ( 'NONE', #622, 1000.000000000000000 ) ;
#789 = CIRCLE ( 'NONE', #118, 2.100000000000000089 ) ;
#790 = DIRECTION ( 'NONE',  ( 1.000000000000000000, 0.000000000000000000, -0.000000000000000000 ) ) ;
#791 = DIRECTION ( 'NONE',  ( 0.000000000000000000, 0.000000000000000000, 1.000000000000000000 ) ) ;
#792 = FACE_OUTER_BOUND ( 'NONE', #737, .T. ) ;
#793 = EDGE_CURVE ( 'NONE', #281, #412, #858, .T. ) ;
#794 = CARTESIAN_POINT ( 'NONE',  ( 0.000000000000000000, 0.000000000000000000, 0.000000000000000000 ) ) ;
#795 = DIRECTION ( 'NONE',  ( 0.000000000000000000, 0.000000000000000000, -1.000000000000000000 ) ) ;
#796 = CARTESIAN_POINT ( 'NONE',  ( -7.000000000000000000, 7.000000000000000000, 0.3499999999999999778 ) ) ;
#797 = LINE ( 'NONE', #288, #188 ) ;
#798 = ORIENTED_EDGE ( 'NONE', *, *, #775, .F. ) ;
#799 = LOCAL_TIME ( 17, 1, 55.00000000000000000, #12 ) ;
#800 = DIRECTION ( 'NONE',  ( 0.000000000000000000, 0.000000000000000000, 1.000000000000000000 ) ) ;
#801 = DIRECTION ( 'NONE',  ( 0.000000000000000000, 0.000000000000000000, -1.000000000000000000 ) ) ;
#802 = PRODUCT_RELATED_PRODUCT_CATEGORY ( 'detail', '', ( #765 ) ) ;
#803 = CARTESIAN_POINT ( 'NONE',  ( -7.000000000000000000, -7.000000000000000000, 0.3499999999999999778 ) ) ;
#804 = ORIENTED_EDGE ( 'NONE', *, *, #780, .T. ) ;
#805 = DIRECTION ( 'NONE',  ( 1.000000000000000000, 0.000000000000000000, -0.000000000000000000 ) ) ;
#806 = DIRECTION ( 'NONE',  ( 0.000000000000000000, 0.000000000000000000, -1.000000000000000000 ) ) ;
#807 = ORIENTED_EDGE ( 'NONE', *, *, #31, .F. ) ;
#808 = DIRECTION ( 'NONE',  ( 0.000000000000000000, 0.000000000000000000, -1.000000000000000000 ) ) ;
#809 = ORIENTED_EDGE ( 'NONE', *, *, #517, .T. ) ;
#810 = EDGE_CURVE ( 'NONE', #440, #226, #575, .T. ) ;
#811 = EDGE_CURVE ( 'NONE', #104, #77, #563, .T. ) ;
#812 = AXIS2_PLACEMENT_3D ( 'NONE', #455, #659, #6 ) ;
#813 = FACE_OUTER_BOUND ( 'NONE', #856, .T. ) ;
#814 = CIRCLE ( 'NONE', #553, 1.150000000000000799 ) ;
#815 = DATE_AND_TIME ( #225, #827 ) ;
#816 = ORIENTED_EDGE ( 'NONE', *, *, #654, .F. ) ;
#817 = CIRCLE ( 'NONE', #437, 1.150000000000000799 ) ;
#818 = APPROVAL ( #825, 'UNSPECIFIED' ) ;
#819 = DIRECTION ( 'NONE',  ( 1.000000000000000000, 0.000000000000000000, 0.000000000000000000 ) ) ;
#820 = APPROVAL_DATE_TIME ( #158, #818 ) ;
#821 = ORIENTED_EDGE ( 'NONE', *, *, #672, .F. ) ;
#822 = ORIENTED_EDGE ( 'NONE', *, *, #735, .T. ) ;
#823 = DIRECTION ( 'NONE',  ( -0.000000000000000000, -0.000000000000000000, -1.000000000000000000 ) ) ;
#824 = EDGE_CURVE ( 'NONE', #495, #104, #450, .T. ) ;
#825 = APPROVAL_STATUS ( 'not_yet_approved' ) ;
#826 = ORIENTED_EDGE ( 'NONE', *, *, #445, .T. ) ;
#827 = LOCAL_TIME ( 17, 1, 55.00000000000000000, #361 ) ;
#828 = EDGE_LOOP ( 'NONE', ( #73, #21 ) ) ;
#829 = AXIS2_PLACEMENT_3D ( 'NONE', #830, #100, #48 ) ;
#830 = CARTESIAN_POINT ( 'NONE',  ( 0.000000000000000000, 0.000000000000000000, 2.000000000000000000 ) ) ;
#831 = DIRECTION ( 'NONE',  ( 0.000000000000000000, 0.000000000000000000, 1.000000000000000000 ) ) ;
#832 = ORIENTED_EDGE ( 'NONE', *, *, #658, .T. ) ;
#833 = CARTESIAN_POINT ( 'NONE',  ( 9.099999999999999645, -7.000000000000000000, 0.3499999999999999778 ) ) ;
#834 = CARTESIAN_POINT ( 'NONE',  ( -7.000000000000000000, -7.000000000000000000, 0.3499999999999999778 ) ) ;
#835 = DIRECTION ( 'NONE',  ( 0.000000000000000000, 0.000000000000000000, -1.000000000000000000 ) ) ;
#836 = EDGE_CURVE ( 'NONE', #386, #208, #491, .T. ) ;
#837 = ADVANCED_FACE ( 'NONE', ( #532, #82 ), #266, .F. ) ;
#838 = DIRECTION ( 'NONE',  ( 0.000000000000000000, 0.000000000000000000, -1.000000000000000000 ) ) ;
#839 = DIRECTION ( 'NONE',  ( 0.000000000000000000, 0.000000000000000000, -1.000000000000000000 ) ) ;
#840 = ORIENTED_EDGE ( 'NONE', *, *, #836, .T. ) ;
#841 = CIRCLE ( 'NONE', #117, 13.00000000000000000 ) ;
#842 = CIRCLE ( 'NONE', #773, 1.149999999999999911 ) ;
#843 = CC_DESIGN_DATE_AND_TIME_ASSIGNMENT ( #629, #551, ( #350 ) ) ;
#844 = DIRECTION ( 'NONE',  ( 0.000000000000000000, 0.000000000000000000, 1.000000000000000000 ) ) ;
#845 = CIRCLE ( 'NONE', #67, 2.100000000000000089 ) ;
#846 = CARTESIAN_POINT ( 'NONE',  ( 4.899999999999999467, 7.000000000000000000, 0.3499999999999999778 ) ) ;
#847 = ORIENTED_EDGE ( 'NONE', *, *, #166, .F. ) ;
#848 = DIRECTION ( 'NONE',  ( 0.000000000000000000, 0.000000000000000000, 1.000000000000000000 ) ) ;
#849 = CARTESIAN_POINT ( 'NONE',  ( 4.000000000000000000, 4.898587196589412829E-16, 0.000000000000000000 ) ) ;
#850 = DIRECTION ( 'NONE',  ( 1.000000000000000000, 0.000000000000000000, 0.000000000000000000 ) ) ;
#851 = EDGE_CURVE ( 'NONE', #132, #405, #841, .T. ) ;
#852 = LINE ( 'NONE', #664, #638 ) ;
#853 = DIRECTION ( 'NONE',  ( 0.000000000000000000, 0.000000000000000000, -1.000000000000000000 ) ) ;
#854 = CARTESIAN_POINT ( 'NONE',  ( -5.850000000000000533, -7.000000000000000000, 0.3500000000000000333 ) ) ;
#855 = ADVANCED_FACE ( 'NONE', ( #526 ), #280, .F. ) ;
#856 = EDGE_LOOP ( 'NONE', ( #304, #34, #18, #222 ) ) ;
#857 = AXIS2_PLACEMENT_3D ( 'NONE', #381, #597, #190 ) ;
#858 = CIRCLE ( 'NONE', #78, 2.100000000000000089 ) ;
#859 = VECTOR ( 'NONE', #806, 1000.000000000000000 ) ;
#860 = CIRCLE ( 'NONE', #633, 13.00000000000000000 ) ;
#861 = LINE ( 'NONE', #678, #407 ) ;
#862 = FACE_OUTER_BOUND ( 'NONE', #87, .T. ) ;
#863 = ORIENTED_EDGE ( 'NONE', *, *, #224, .F. ) ;
#864 = DIRECTION ( 'NONE',  ( 0.000000000000000000, 0.000000000000000000, -1.000000000000000000 ) ) ;
#865 = DIRECTION ( 'NONE',  ( 0.000000000000000000, 0.000000000000000000, -1.000000000000000000 ) ) ;
ENDSEC;
END-ISO-10303-21;
