ISO-10303-21;
HEADER;
FILE_DESCRIPTION (( 'STEP AP203' ),
    '1' );
FILE_NAME ('FIT-002_SG90_horn_pocket_clearance_0p05.step',
    '2026-09-08T22:04:05',
    ( '' ),
    ( '' ),
    'SwSTEP 2.0',
    'SolidWorks 2026',
    '' );
FILE_SCHEMA (( 'CONFIG_CONTROL_DESIGN' ));
ENDSEC;

DATA;
#1 = DIRECTION ( 'NONE',  ( 0.000000000000000000, 0.000000000000000000, -1.000000000000000000 ) ) ;
#2 = AXIS2_PLACEMENT_3D ( 'NONE', #199, #563, #747 ) ;
#3 = DIRECTION ( 'NONE',  ( 0.000000000000000000, 0.000000000000000000, 1.000000000000000000 ) ) ;
#4 = ORIENTED_EDGE ( 'NONE', *, *, #328, .T. ) ;
#5 = AXIS2_PLACEMENT_3D ( 'NONE', #12, #729, #244 ) ;
#6 = CARTESIAN_POINT ( 'NONE',  ( -3.434748899119119070, 2.049999999999999822, 0.000000000000000000 ) ) ;
#7 = ORIENTED_EDGE ( 'NONE', *, *, #1015, .T. ) ;
#8 = CARTESIAN_POINT ( 'NONE',  ( -2.049999999999999822, 8.150000000000000355, -1.649999999999999911 ) ) ;
#9 = DIRECTION ( 'NONE',  ( 0.000000000000000000, 0.000000000000000000, -1.000000000000000000 ) ) ;
#10 = CARTESIAN_POINT ( 'NONE',  ( -2.049999999999999822, 3.434748899119119070, 0.000000000000000000 ) ) ;
#11 = ORIENTED_EDGE ( 'NONE', *, *, #1026, .T. ) ;
#12 = CARTESIAN_POINT ( 'NONE',  ( 7.000000000000000000, -7.000000000000000000, -1.650000000000000355 ) ) ;
#13 = VECTOR ( 'NONE', #161, 1000.000000000000000 ) ;
#14 = DIRECTION ( 'NONE',  ( 1.000000000000000000, 0.000000000000000000, 0.000000000000000000 ) ) ;
#15 = CARTESIAN_POINT ( 'NONE',  ( -2.049999999999999822, -8.150000000000000355, 0.000000000000000000 ) ) ;
#16 = EDGE_CURVE ( 'NONE', #197, #376, #1099, .T. ) ;
#17 = ORIENTED_EDGE ( 'NONE', *, *, #622, .T. ) ;
#18 = DIRECTION ( 'NONE',  ( -1.000000000000000000, 0.000000000000000000, 0.000000000000000000 ) ) ;
#19 = LINE ( 'NONE', #117, #1025 ) ;
#20 = DIRECTION ( 'NONE',  ( -0.000000000000000000, -0.000000000000000000, -1.000000000000000000 ) ) ;
#21 = ORIENTED_EDGE ( 'NONE', *, *, #60, .T. ) ;
#22 = CARTESIAN_POINT ( 'NONE',  ( 0.000000000000000000, 0.000000000000000000, -1.649999999999999911 ) ) ;
#23 = APPROVAL_ROLE ( '' ) ;
#24 = DIRECTION ( 'NONE',  ( 0.000000000000000000, 0.000000000000000000, -1.000000000000000000 ) ) ;
#25 = DIRECTION ( 'NONE',  ( 0.000000000000000000, 0.000000000000000000, 1.000000000000000000 ) ) ;
#26 = ORIENTED_EDGE ( 'NONE', *, *, #562, .T. ) ;
#27 = ORIENTED_EDGE ( 'NONE', *, *, #562, .F. ) ;
#28 = VECTOR ( 'NONE', #119, 1000.000000000000000 ) ;
#29 = DIRECTION ( 'NONE',  ( 1.000000000000000000, 0.000000000000000000, 0.000000000000000000 ) ) ;
#30 = CARTESIAN_POINT ( 'NONE',  ( 0.000000000000000000, 0.000000000000000000, -1.649999999999999911 ) ) ;
#31 = DIRECTION ( 'NONE',  ( 0.000000000000000000, 0.000000000000000000, -1.000000000000000000 ) ) ;
#32 = ORIENTED_EDGE ( 'NONE', *, *, #309, .T. ) ;
#33 = EDGE_CURVE ( 'NONE', #471, #130, #1104, .T. ) ;
#34 = ORIENTED_EDGE ( 'NONE', *, *, #176, .F. ) ;
#35 = AXIS2_PLACEMENT_3D ( 'NONE', #408, #287, #656 ) ;
#36 = CARTESIAN_POINT ( 'NONE',  ( 0.000000000000000000, -8.150000000000000355, 0.000000000000000000 ) ) ;
#37 = AXIS2_PLACEMENT_3D ( 'NONE', #717, #262, #95 ) ;
#38 = ORIENTED_EDGE ( 'NONE', *, *, #988, .T. ) ;
#39 = SECURITY_CLASSIFICATION_LEVEL ( 'unclassified' ) ;
#40 = CARTESIAN_POINT ( 'NONE',  ( -7.000000000000000000, -7.000000000000000000, 4.000000000000003553 ) ) ;
#41 = CIRCLE ( 'NONE', #74, 4.000000000000000000 ) ;
#42 = ORIENTED_EDGE ( 'NONE', *, *, #921, .F. ) ;
#43 = AXIS2_PLACEMENT_3D ( 'NONE', #941, #157, #948 ) ;
#44 = DATE_AND_TIME ( #481, #281 ) ;
#45 = DIRECTION ( 'NONE',  ( 1.000000000000000000, 0.000000000000000000, 0.000000000000000000 ) ) ;
#46 = CARTESIAN_POINT ( 'NONE',  ( -8.150000000000000355, 0.000000000000000000, -1.649999999999999911 ) ) ;
#47 = EDGE_CURVE ( 'NONE', #602, #471, #319, .T. ) ;
#48 = CARTESIAN_POINT ( 'NONE',  ( -2.049999999999999822, -3.434748899119119070, 0.000000000000000000 ) ) ;
#49 = AXIS2_PLACEMENT_3D ( 'NONE', #799, #9, #1055 ) ;
#50 = CARTESIAN_POINT ( 'NONE',  ( -8.150000000000000355, -7.000000000000000000, 4.000000000000003553 ) ) ;
#51 = CARTESIAN_POINT ( 'NONE',  ( 2.049999999999999822, -8.150000000000000355, -1.649999999999999911 ) ) ;
#52 = AXIS2_PLACEMENT_3D ( 'NONE', #964, #323, #18 ) ;
#53 = ORIENTED_EDGE ( 'NONE', *, *, #630, .F. ) ;
#54 = CARTESIAN_POINT ( 'NONE',  ( -7.000000000000000000, 7.000000000000000000, -1.650000000000000355 ) ) ;
#55 = LINE ( 'NONE', #574, #340 ) ;
#56 = ORIENTED_EDGE ( 'NONE', *, *, #830, .F. ) ;
#57 = VERTEX_POINT ( 'NONE', #857 ) ;
#58 = LINE ( 'NONE', #48, #28 ) ;
#59 = CARTESIAN_POINT ( 'NONE',  ( 8.150000000000000355, 7.000000000000000000, 4.000000000000003553 ) ) ;
#60 = EDGE_CURVE ( 'NONE', #970, #131, #417, .T. ) ;
#61 = ORIENTED_EDGE ( 'NONE', *, *, #309, .F. ) ;
#62 = LINE ( 'NONE', #509, #528 ) ;
#63 = AXIS2_PLACEMENT_3D ( 'NONE', #800, #540, #795 ) ;
#64 = DIRECTION ( 'NONE',  ( 0.000000000000000000, 0.000000000000000000, -1.000000000000000000 ) ) ;
#65 = ORIENTED_EDGE ( 'NONE', *, *, #156, .F. ) ;
#66 = CARTESIAN_POINT ( 'NONE',  ( 8.150000000000000355, 0.000000000000000000, 0.000000000000000000 ) ) ;
#67 = ORIENTED_EDGE ( 'NONE', *, *, #467, .F. ) ;
#68 = DIRECTION ( 'NONE',  ( 0.000000000000000000, 1.000000000000000000, 0.000000000000000000 ) ) ;
#69 = ORIENTED_EDGE ( 'NONE', *, *, #921, .T. ) ;
#70 = VECTOR ( 'NONE', #1066, 1000.000000000000000 ) ;
#71 = FACE_OUTER_BOUND ( 'NONE', #497, .T. ) ;
#72 = CYLINDRICAL_SURFACE ( 'NONE', #151, 13.00000000000000000 ) ;
#73 = ORIENTED_EDGE ( 'NONE', *, *, #988, .F. ) ;
#74 = AXIS2_PLACEMENT_3D ( 'NONE', #30, #725, #111 ) ;
#75 = DIRECTION ( 'NONE',  ( 0.000000000000000000, 0.000000000000000000, -1.000000000000000000 ) ) ;
#76 = DIRECTION ( 'NONE',  ( 0.000000000000000000, 0.000000000000000000, -1.000000000000000000 ) ) ;
#77 = PLANE ( 'NONE',  #370 ) ;
#78 = ORIENTED_EDGE ( 'NONE', *, *, #680, .T. ) ;
#79 = AXIS2_PLACEMENT_3D ( 'NONE', #457, #25, #368 ) ;
#80 = EDGE_CURVE ( 'NONE', #654, #1065, #882, .T. ) ;
#81 = LINE ( 'NONE', #535, #1122 ) ;
#82 =( GEOMETRIC_REPRESENTATION_CONTEXT ( 3 ) GLOBAL_UNCERTAINTY_ASSIGNED_CONTEXT ( ( #1116 ) ) GLOBAL_UNIT_ASSIGNED_CONTEXT ( ( #365, #1079, #752 ) ) REPRESENTATION_CONTEXT ( 'NONE', 'WORKASPACE' ) );
#83 = ORIENTED_EDGE ( 'NONE', *, *, #676, .F. ) ;
#84 = VECTOR ( 'NONE', #501, 1000.000000000000000 ) ;
#85 = EDGE_CURVE ( 'NONE', #715, #137, #836, .T. ) ;
#86 = CARTESIAN_POINT ( 'NONE',  ( -2.049999999999999822, -8.150000000000000355, -1.649999999999999911 ) ) ;
#87 = FACE_OUTER_BOUND ( 'NONE', #538, .T. ) ;
#88 = ORIENTED_EDGE ( 'NONE', *, *, #47, .T. ) ;
#89 = EDGE_CURVE ( 'NONE', #1065, #198, #160, .T. ) ;
#90 = DIRECTION ( 'NONE',  ( 0.000000000000000000, 0.000000000000000000, 1.000000000000000000 ) ) ;
#91 = DIRECTION ( 'NONE',  ( 1.000000000000000000, 0.000000000000000000, 0.000000000000000000 ) ) ;
#92 = ADVANCED_FACE ( 'NONE', ( #250 ), #604, .T. ) ;
#93 = ORIENTED_EDGE ( 'NONE', *, *, #736, .F. ) ;
#94 = ADVANCED_FACE ( 'NONE', ( #164 ), #695, .F. ) ;
#95 = DIRECTION ( 'NONE',  ( 1.000000000000000000, 0.000000000000000000, -0.000000000000000000 ) ) ;
#96 = DIRECTION ( 'NONE',  ( 0.000000000000000000, 0.000000000000000000, -1.000000000000000000 ) ) ;
#97 = DIRECTION ( 'NONE',  ( -1.000000000000000000, 0.000000000000000000, 0.000000000000000000 ) ) ;
#98 = CARTESIAN_POINT ( 'NONE',  ( -2.049999999999999822, -8.150000000000000355, 0.000000000000000000 ) ) ;
#99 = ORIENTED_EDGE ( 'NONE', *, *, #269, .F. ) ;
#100 = ORGANIZATION ( 'UNSPECIFIED', 'UNSPECIFIED', '' ) ;
#101 = DIRECTION ( 'NONE',  ( 1.000000000000000000, 0.000000000000000000, 0.000000000000000000 ) ) ;
#102 = DIRECTION ( 'NONE',  ( 0.000000000000000000, 0.000000000000000000, 1.000000000000000000 ) ) ;
#103 = VECTOR ( 'NONE', #1080, 1000.000000000000000 ) ;
#104 = PERSON_AND_ORGANIZATION ( #966, #100 ) ;
#105 = DIRECTION ( 'NONE',  ( 1.000000000000000000, 0.000000000000000000, 0.000000000000000000 ) ) ;
#106 = DIRECTION ( 'NONE',  ( -1.000000000000000000, -0.000000000000000000, -0.000000000000000000 ) ) ;
#107 = ORIENTED_EDGE ( 'NONE', *, *, #1103, .F. ) ;
#108 = CARTESIAN_POINT ( 'NONE',  ( 2.049999999999999822, -8.150000000000000355, -1.649999999999999911 ) ) ;
#109 = CC_DESIGN_PERSON_AND_ORGANIZATION_ASSIGNMENT ( #915, #1088, ( #792 ) ) ;
#110 = COORDINATED_UNIVERSAL_TIME_OFFSET ( 6, 0, .BEHIND. ) ;
#111 = DIRECTION ( 'NONE',  ( 1.000000000000000000, 0.000000000000000000, 0.000000000000000000 ) ) ;
#112 = CARTESIAN_POINT ( 'NONE',  ( 2.049999999999999822, -8.150000000000000355, 0.000000000000000000 ) ) ;
#113 = VERTEX_POINT ( 'NONE', #259 ) ;
#114 = ORIENTED_EDGE ( 'NONE', *, *, #763, .T. ) ;
#115 = AXIS2_PLACEMENT_3D ( 'NONE', #827, #768, #674 ) ;
#116 = DATE_TIME_ROLE ( 'creation_date' ) ;
#117 = CARTESIAN_POINT ( 'NONE',  ( 13.00000000000000000, 1.592040838891559095E-15, 4.000000000000000000 ) ) ;
#118 = EDGE_LOOP ( 'NONE', ( #400, #1071 ) ) ;
#119 = DIRECTION ( 'NONE',  ( -0.000000000000000000, -0.000000000000000000, 1.000000000000000000 ) ) ;
#120 = EDGE_CURVE ( 'NONE', #770, #922, #946, .T. ) ;
#121 = PERSON_AND_ORGANIZATION_ROLE ( 'creator' ) ;
#122 = CARTESIAN_POINT ( 'NONE',  ( -4.000000000000000000, 0.000000000000000000, 0.000000000000000000 ) ) ;
#123 = CIRCLE ( 'NONE', #475, 1.150000000000000799 ) ;
#124 = VERTEX_POINT ( 'NONE', #1118 ) ;
#125 = CARTESIAN_POINT ( 'NONE',  ( 0.000000000000000000, -8.150000000000000355, -1.649999999999999911 ) ) ;
#126 = COORDINATED_UNIVERSAL_TIME_OFFSET ( 6, 0, .BEHIND. ) ;
#127 = DIRECTION ( 'NONE',  ( 0.000000000000000000, 0.000000000000000000, -1.000000000000000000 ) ) ;
#128 = EDGE_CURVE ( 'NONE', #641, #715, #427, .T. ) ;
#129 = AXIS2_PLACEMENT_3D ( 'NONE', #557, #900, #289 ) ;
#130 = VERTEX_POINT ( 'NONE', #701 ) ;
#131 = VERTEX_POINT ( 'NONE', #863 ) ;
#132 = DIRECTION ( 'NONE',  ( 0.000000000000000000, 0.000000000000000000, -1.000000000000000000 ) ) ;
#133 = AXIS2_PLACEMENT_3D ( 'NONE', #510, #614, #1113 ) ;
#134 = LINE ( 'NONE', #753, #1076 ) ;
#135 = VECTOR ( 'NONE', #529, 1000.000000000000000 ) ;
#136 = VERTEX_POINT ( 'NONE', #331 ) ;
#137 = VERTEX_POINT ( 'NONE', #246 ) ;
#138 = AXIS2_PLACEMENT_3D ( 'NONE', #22, #454, #1060 ) ;
#139 = CARTESIAN_POINT ( 'NONE',  ( 0.000000000000000000, 0.000000000000000000, 0.000000000000000000 ) ) ;
#140 = ORIENTED_EDGE ( 'NONE', *, *, #797, .F. ) ;
#141 = AXIS2_PLACEMENT_3D ( 'NONE', #564, #653, #200 ) ;
#142 = ORIENTED_EDGE ( 'NONE', *, *, #832, .T. ) ;
#143 = EDGE_CURVE ( 'NONE', #1065, #575, #1034, .T. ) ;
#144 = CARTESIAN_POINT ( 'NONE',  ( -5.850000000000000533, 7.000000000000000000, 4.000000000000003553 ) ) ;
#145 = ORIENTED_EDGE ( 'NONE', *, *, #561, .T. ) ;
#146 = DIRECTION ( 'NONE',  ( 0.000000000000000000, 0.000000000000000000, -1.000000000000000000 ) ) ;
#147 = DIRECTION ( 'NONE',  ( -0.000000000000000000, -0.000000000000000000, -1.000000000000000000 ) ) ;
#148 = ORIENTED_EDGE ( 'NONE', *, *, #523, .F. ) ;
#149 = DIRECTION ( 'NONE',  ( 0.000000000000000000, -1.000000000000000000, 0.000000000000000000 ) ) ;
#150 = ORIENTED_EDGE ( 'NONE', *, *, #211, .F. ) ;
#151 = AXIS2_PLACEMENT_3D ( 'NONE', #1032, #516, #424 ) ;
#152 = CARTESIAN_POINT ( 'NONE',  ( 2.049999999999999822, -8.150000000000000355, 0.000000000000000000 ) ) ;
#153 = EDGE_LOOP ( 'NONE', ( #308, #698 ) ) ;
#154 = LINE ( 'NONE', #363, #555 ) ;
#155 = CIRCLE ( 'NONE', #754, 2.049999999999999822 ) ;
#156 = EDGE_CURVE ( 'NONE', #346, #704, #81, .T. ) ;
#157 = DIRECTION ( 'NONE',  ( 1.000000000000000000, -0.000000000000000000, 0.000000000000000000 ) ) ;
#158 = VERTEX_POINT ( 'NONE', #6 ) ;
#159 = PLANE ( 'NONE',  #997 ) ;
#160 = LINE ( 'NONE', #337, #542 ) ;
#161 = DIRECTION ( 'NONE',  ( 0.000000000000000000, 0.000000000000000000, -1.000000000000000000 ) ) ;
#162 = EDGE_LOOP ( 'NONE', ( #783, #242, #381, #791 ) ) ;
#163 = EDGE_CURVE ( 'NONE', #727, #261, #1054, .T. ) ;
#164 = FACE_OUTER_BOUND ( 'NONE', #1003, .T. ) ;
#165 = FACE_OUTER_BOUND ( 'NONE', #1091, .T. ) ;
#166 = VERTEX_POINT ( 'NONE', #879 ) ;
#167 = CIRCLE ( 'NONE', #1121, 1.149999999999999911 ) ;
#168 = CARTESIAN_POINT ( 'NONE',  ( -8.150000000000000355, 2.049999999999999822, 0.000000000000000000 ) ) ;
#169 = CC_DESIGN_SECURITY_CLASSIFICATION ( #792, ( #317 ) ) ;
#170 = DIRECTION ( 'NONE',  ( -1.000000000000000000, 0.000000000000000000, 0.000000000000000000 ) ) ;
#171 = ORIENTED_EDGE ( 'NONE', *, *, #330, .T. ) ;
#172 = ADVANCED_FACE ( 'NONE', ( #789 ), #343, .F. ) ;
#173 = VECTOR ( 'NONE', #296, 1000.000000000000000 ) ;
#174 = ADVANCED_FACE ( 'NONE', ( #71 ), #1040, .F. ) ;
#175 = CARTESIAN_POINT ( 'NONE',  ( 0.000000000000000000, 0.000000000000000000, 0.000000000000000000 ) ) ;
#176 = EDGE_CURVE ( 'NONE', #390, #124, #332, .T. ) ;
#177 = LINE ( 'NONE', #1050, #212 ) ;
#178 = ORIENTED_EDGE ( 'NONE', *, *, #499, .T. ) ;
#179 = LINE ( 'NONE', #108, #533 ) ;
#180 = DIRECTION ( 'NONE',  ( -1.000000000000000000, 0.000000000000000000, 0.000000000000000000 ) ) ;
#181 = AXIS2_PLACEMENT_3D ( 'NONE', #892, #818, #97 ) ;
#182 = VECTOR ( 'NONE', #515, 1000.000000000000000 ) ;
#183 = DIRECTION ( 'NONE',  ( -0.000000000000000000, -0.000000000000000000, -1.000000000000000000 ) ) ;
#184 = CYLINDRICAL_SURFACE ( 'NONE', #396, 1.150000000000000799 ) ;
#185 = CARTESIAN_POINT ( 'NONE',  ( -13.00000000000000000, 0.000000000000000000, 4.000000000000000000 ) ) ;
#186 = ORIENTED_EDGE ( 'NONE', *, *, #282, .F. ) ;
#187 = AXIS2_PLACEMENT_3D ( 'NONE', #820, #31, #373 ) ;
#188 = FACE_OUTER_BOUND ( 'NONE', #1037, .T. ) ;
#189 = CARTESIAN_POINT ( 'NONE',  ( 0.000000000000000000, 0.000000000000000000, 0.000000000000000000 ) ) ;
#190 = EDGE_CURVE ( 'NONE', #202, #350, #874, .T. ) ;
#191 = CARTESIAN_POINT ( 'NONE',  ( 7.000000000000000000, -7.000000000000000000, 4.000000000000003553 ) ) ;
#192 = ORIENTED_EDGE ( 'NONE', *, *, #258, .F. ) ;
#193 = AXIS2_PLACEMENT_3D ( 'NONE', #978, #897, #436 ) ;
#194 = APPROVAL_STATUS ( 'not_yet_approved' ) ;
#195 = CYLINDRICAL_SURFACE ( 'NONE', #833, 1.150000000000000799 ) ;
#196 = LINE ( 'NONE', #272, #821 ) ;
#197 = VERTEX_POINT ( 'NONE', #441 ) ;
#198 = VERTEX_POINT ( 'NONE', #8 ) ;
#199 = CARTESIAN_POINT ( 'NONE',  ( -8.150000000000000355, -2.049999999999999822, 0.000000000000000000 ) ) ;
#200 = DIRECTION ( 'NONE',  ( 1.000000000000000000, 0.000000000000000000, 0.000000000000000000 ) ) ;
#201 = ORIENTED_EDGE ( 'NONE', *, *, #295, .F. ) ;
#202 = VERTEX_POINT ( 'NONE', #348 ) ;
#203 = DIRECTION ( 'NONE',  ( 1.000000000000000000, 0.000000000000000000, 0.000000000000000000 ) ) ;
#204 = PERSON_AND_ORGANIZATION ( #966, #100 ) ;
#205 = DIRECTION ( 'NONE',  ( 0.000000000000000000, 0.000000000000000000, 1.000000000000000000 ) ) ;
#206 = ORIENTED_EDGE ( 'NONE', *, *, #470, .T. ) ;
#207 = EDGE_CURVE ( 'NONE', #735, #484, #1068, .T. ) ;
#208 = CARTESIAN_POINT ( 'NONE',  ( -8.150000000000000355, -2.049999999999999822, 0.000000000000000000 ) ) ;
#209 = CALENDAR_DATE ( 2026, 8, 9 ) ;
#210 = DIRECTION ( 'NONE',  ( 0.000000000000000000, 0.000000000000000000, -1.000000000000000000 ) ) ;
#211 = EDGE_CURVE ( 'NONE', #131, #376, #216, .T. ) ;
#212 = VECTOR ( 'NONE', #980, 1000.000000000000000 ) ;
#213 = ORIENTED_EDGE ( 'NONE', *, *, #630, .T. ) ;
#214 = CARTESIAN_POINT ( 'NONE',  ( 5.849999999999999645, 7.000000000000000000, -1.650000000000000355 ) ) ;
#215 = DIRECTION ( 'NONE',  ( 0.000000000000000000, 0.000000000000000000, -1.000000000000000000 ) ) ;
#216 = CIRCLE ( 'NONE', #745, 4.000000000000000000 ) ;
#217 = ORIENTED_EDGE ( 'NONE', *, *, #383, .F. ) ;
#218 = EDGE_LOOP ( 'NONE', ( #986, #32, #667, #335 ) ) ;
#219 = DIRECTION ( 'NONE',  ( 0.000000000000000000, 0.000000000000000000, 1.000000000000000000 ) ) ;
#220 = AXIS2_PLACEMENT_3D ( 'NONE', #610, #64, #320 ) ;
#221 = LINE ( 'NONE', #232, #1053 ) ;
#222 = EDGE_LOOP ( 'NONE', ( #1000, #611 ) ) ;
#223 = ORIENTED_EDGE ( 'NONE', *, *, #382, .F. ) ;
#224 = ADVANCED_FACE ( 'NONE', ( #720 ), #195, .F. ) ;
#225 = PLANE ( 'NONE',  #804 ) ;
#226 = LOCAL_TIME ( 17, 4, 5.000000000000000000, #1109 ) ;
#227 = DIRECTION ( 'NONE',  ( 0.000000000000000000, 0.000000000000000000, 1.000000000000000000 ) ) ;
#228 = DIRECTION ( 'NONE',  ( -0.000000000000000000, -0.000000000000000000, -1.000000000000000000 ) ) ;
#229 = CIRCLE ( 'NONE', #793, 4.000000000000000000 ) ;
#230 = DIRECTION ( 'NONE',  ( 0.000000000000000000, 0.000000000000000000, -1.000000000000000000 ) ) ;
#231 = VERTEX_POINT ( 'NONE', #973 ) ;
#232 = CARTESIAN_POINT ( 'NONE',  ( -8.150000000000000355, -2.049999999999999822, -1.649999999999999911 ) ) ;
#233 = ORIENTED_EDGE ( 'NONE', *, *, #80, .F. ) ;
#234 = AXIS2_PLACEMENT_3D ( 'NONE', #40, #24, #886 ) ;
#235 = ORIENTED_EDGE ( 'NONE', *, *, #1103, .T. ) ;
#236 = VECTOR ( 'NONE', #76, 1000.000000000000000 ) ;
#237 = APPLICATION_CONTEXT ( 'configuration controlled 3d designs of mechanical parts and assemblies' ) ;
#238 = CARTESIAN_POINT ( 'NONE',  ( -8.150000000000000355, 2.049999999999999822, 0.000000000000000000 ) ) ;
#239 = ORIENTED_EDGE ( 'NONE', *, *, #85, .T. ) ;
#240 = PLANE ( 'NONE',  #433 ) ;
#241 = DIRECTION ( 'NONE',  ( -1.000000000000000000, 0.000000000000000000, 0.000000000000000000 ) ) ;
#242 = ORIENTED_EDGE ( 'NONE', *, *, #595, .T. ) ;
#243 = ADVANCED_FACE ( 'NONE', ( #477 ), #808, .F. ) ;
#244 = DIRECTION ( 'NONE',  ( 1.000000000000000000, 0.000000000000000000, 0.000000000000000000 ) ) ;
#245 = APPROVAL_PERSON_ORGANIZATION ( #104, #347, #556 ) ;
#246 = CARTESIAN_POINT ( 'NONE',  ( -10.20000000000000107, 0.000000000000000000, -1.649999999999999911 ) ) ;
#247 = CYLINDRICAL_SURFACE ( 'NONE', #220, 1.150000000000000799 ) ;
#248 = ORIENTED_EDGE ( 'NONE', *, *, #120, .F. ) ;
#249 = AXIS2_PLACEMENT_3D ( 'NONE', #769, #318, #683 ) ;
#250 = FACE_OUTER_BOUND ( 'NONE', #490, .T. ) ;
#251 = FACE_OUTER_BOUND ( 'NONE', #425, .T. ) ;
#252 = EDGE_LOOP ( 'NONE', ( #463, #1042, #1090, #668 ) ) ;
#253 = DIRECTION ( 'NONE',  ( 1.000000000000000000, 0.000000000000000000, 0.000000000000000000 ) ) ;
#254 = CARTESIAN_POINT ( 'NONE',  ( 8.150000000000000355, -2.049999999999999822, 0.000000000000000000 ) ) ;
#255 = EDGE_CURVE ( 'NONE', #197, #727, #268, .T. ) ;
#256 = ORIENTED_EDGE ( 'NONE', *, *, #511, .F. ) ;
#257 = AXIS2_PLACEMENT_3D ( 'NONE', #419, #230, #241 ) ;
#258 = EDGE_CURVE ( 'NONE', #810, #1120, #41, .T. ) ;
#259 = CARTESIAN_POINT ( 'NONE',  ( 13.00000000000000000, 1.592040838891559095E-15, -1.649999999999999911 ) ) ;
#260 = DIRECTION ( 'NONE',  ( 0.000000000000000000, 0.000000000000000000, -1.000000000000000000 ) ) ;
#261 = VERTEX_POINT ( 'NONE', #122 ) ;
#262 = DIRECTION ( 'NONE',  ( 0.000000000000000000, 0.000000000000000000, 1.000000000000000000 ) ) ;
#263 = AXIS2_PLACEMENT_3D ( 'NONE', #66, #482, #101 ) ;
#264 = DIRECTION ( 'NONE',  ( 0.000000000000000000, 0.000000000000000000, 1.000000000000000000 ) ) ;
#265 = DIRECTION ( 'NONE',  ( -0.000000000000000000, -0.000000000000000000, 1.000000000000000000 ) ) ;
#266 = ORIENTED_EDGE ( 'NONE', *, *, #305, .T. ) ;
#267 = CARTESIAN_POINT ( 'NONE',  ( 7.000000000000000000, 7.000000000000000000, 4.000000000000003553 ) ) ;
#268 = CIRCLE ( 'NONE', #129, 4.000000000000000000 ) ;
#269 = EDGE_CURVE ( 'NONE', #938, #314, #728, .T. ) ;
#270 = CARTESIAN_POINT ( 'NONE',  ( 0.000000000000000000, 0.000000000000000000, 0.000000000000000000 ) ) ;
#271 = ADVANCED_FACE ( 'NONE', ( #456 ), #638, .T. ) ;
#272 = CARTESIAN_POINT ( 'NONE',  ( -10.20000000000000107, 0.000000000000000000, 0.000000000000000000 ) ) ;
#273 = ORIENTED_EDGE ( 'NONE', *, *, #943, .T. ) ;
#274 = CIRCLE ( 'NONE', #524, 2.049999999999999822 ) ;
#275 = FACE_OUTER_BOUND ( 'NONE', #478, .T. ) ;
#276 = AXIS2_PLACEMENT_3D ( 'NONE', #781, #706, #1044 ) ;
#277 = APPROVAL_DATE_TIME ( #908, #347 ) ;
#278 = LINE ( 'NONE', #461, #326 ) ;
#279 = CARTESIAN_POINT ( 'NONE',  ( 3.434748899119119070, 2.049999999999999822, -1.649999999999999911 ) ) ;
#280 = ORIENTED_EDGE ( 'NONE', *, *, #435, .T. ) ;
#281 = LOCAL_TIME ( 17, 4, 5.000000000000000000, #126 ) ;
#282 = EDGE_CURVE ( 'NONE', #124, #390, #423, .T. ) ;
#283 = VECTOR ( 'NONE', #393, 1000.000000000000000 ) ;
#284 = PLANE ( 'NONE',  #2 ) ;
#285 = DIRECTION ( 'NONE',  ( 1.000000000000000000, 0.000000000000000000, 0.000000000000000000 ) ) ;
#286 = VERTEX_POINT ( 'NONE', #469 ) ;
#287 = DIRECTION ( 'NONE',  ( 0.000000000000000000, 0.000000000000000000, 1.000000000000000000 ) ) ;
#288 = APPROVAL_DATE_TIME ( #378, #718 ) ;
#289 = DIRECTION ( 'NONE',  ( 1.000000000000000000, 0.000000000000000000, 0.000000000000000000 ) ) ;
#290 = EDGE_LOOP ( 'NONE', ( #369, #576, #598, #687, #779 ) ) ;
#291 = EDGE_CURVE ( 'NONE', #198, #810, #278, .T. ) ;
#292 = ADVANCED_FACE ( 'NONE', ( #968 ), #387, .F. ) ;
#293 = CARTESIAN_POINT ( 'NONE',  ( 8.150000000000000355, -2.049999999999999822, -1.649999999999999911 ) ) ;
#294 = CIRCLE ( 'NONE', #767, 1.150000000000000799 ) ;
#295 = EDGE_CURVE ( 'NONE', #710, #113, #19, .T. ) ;
#296 = DIRECTION ( 'NONE',  ( 0.000000000000000000, 1.000000000000000000, 0.000000000000000000 ) ) ;
#297 = ORIENTED_EDGE ( 'NONE', *, *, #628, .F. ) ;
#298 = AXIS2_PLACEMENT_3D ( 'NONE', #267, #636, #971 ) ;
#299 = CARTESIAN_POINT ( 'NONE',  ( -8.150000000000000355, 7.000000000000000000, -1.650000000000000355 ) ) ;
#300 = APPROVAL_DATE_TIME ( #306, #652 ) ;
#301 = DIRECTION ( 'NONE',  ( 0.000000000000000000, 0.000000000000000000, 1.000000000000000000 ) ) ;
#302 = ORIENTED_EDGE ( 'NONE', *, *, #207, .T. ) ;
#303 = ORIENTED_EDGE ( 'NONE', *, *, #411, .T. ) ;
#304 = DIRECTION ( 'NONE',  ( 0.000000000000000000, 0.000000000000000000, 1.000000000000000000 ) ) ;
#305 = EDGE_CURVE ( 'NONE', #113, #671, #1115, .T. ) ;
#306 = DATE_AND_TIME ( #398, #226 ) ;
#307 = CYLINDRICAL_SURFACE ( 'NONE', #844, 1.150000000000000799 ) ;
#308 = ORIENTED_EDGE ( 'NONE', *, *, #383, .T. ) ;
#309 = EDGE_CURVE ( 'NONE', #1120, #158, #366, .T. ) ;
#310 = ORIENTED_EDGE ( 'NONE', *, *, #520, .F. ) ;
#311 = CARTESIAN_POINT ( 'NONE',  ( 8.150000000000000355, -7.000000000000000000, 4.000000000000003553 ) ) ;
#312 = VECTOR ( 'NONE', #526, 1000.000000000000000 ) ;
#313 = CARTESIAN_POINT ( 'NONE',  ( 0.000000000000000000, 0.000000000000000000, 0.000000000000000000 ) ) ;
#314 = VERTEX_POINT ( 'NONE', #824 ) ;
#315 = FACE_OUTER_BOUND ( 'NONE', #883, .T. ) ;
#316 = VERTEX_POINT ( 'NONE', #570 ) ;
#317 = PRODUCT_DEFINITION_FORMATION_WITH_SPECIFIED_SOURCE ( 'ANY', '', #724, .NOT_KNOWN. ) ;
#318 = DIRECTION ( 'NONE',  ( 0.000000000000000000, 0.000000000000000000, 1.000000000000000000 ) ) ;
#319 = LINE ( 'NONE', #684, #388 ) ;
#320 = DIRECTION ( 'NONE',  ( -1.000000000000000000, 0.000000000000000000, 0.000000000000000000 ) ) ;
#321 = EDGE_CURVE ( 'NONE', #158, #261, #385, .T. ) ;
#322 = ORIENTED_EDGE ( 'NONE', *, *, #190, .F. ) ;
#323 = DIRECTION ( 'NONE',  ( 0.000000000000000000, 0.000000000000000000, -1.000000000000000000 ) ) ;
#324 = ORIENTED_EDGE ( 'NONE', *, *, #1018, .T. ) ;
#325 = DIRECTION ( 'NONE',  ( 0.000000000000000000, 0.000000000000000000, 1.000000000000000000 ) ) ;
#326 = VECTOR ( 'NONE', #658, 1000.000000000000000 ) ;
#327 = ORIENTED_EDGE ( 'NONE', *, *, #342, .F. ) ;
#328 = EDGE_CURVE ( 'NONE', #634, #602, #480, .T. ) ;
#329 = FACE_OUTER_BOUND ( 'NONE', #153, .T. ) ;
#330 = EDGE_CURVE ( 'NONE', #130, #970, #894, .T. ) ;
#331 = CARTESIAN_POINT ( 'NONE',  ( -5.850000000000000533, 7.000000000000000000, -1.650000000000000355 ) ) ;
#332 = CIRCLE ( 'NONE', #428, 1.149999999999999911 ) ;
#333 = CYLINDRICAL_SURFACE ( 'NONE', #699, 2.049999999999999822 ) ;
#334 = CARTESIAN_POINT ( 'NONE',  ( 5.849999999999999645, 7.000000000000000000, 4.000000000000003553 ) ) ;
#335 = ORIENTED_EDGE ( 'NONE', *, *, #128, .T. ) ;
#336 = AXIS2_PLACEMENT_3D ( 'NONE', #1112, #325, #29 ) ;
#337 = CARTESIAN_POINT ( 'NONE',  ( -2.049999999999999822, 8.150000000000000355, 0.000000000000000000 ) ) ;
#338 = DIRECTION ( 'NONE',  ( 1.000000000000000000, 0.000000000000000000, -0.000000000000000000 ) ) ;
#339 = ORIENTED_EDGE ( 'NONE', *, *, #594, .F. ) ;
#340 = VECTOR ( 'NONE', #666, 1000.000000000000000 ) ;
#341 = LINE ( 'NONE', #549, #492 ) ;
#342 = EDGE_CURVE ( 'NONE', #158, #641, #829, .T. ) ;
#343 = CYLINDRICAL_SURFACE ( 'NONE', #487, 1.150000000000000799 ) ;
#344 = DIRECTION ( 'NONE',  ( 0.000000000000000000, 0.000000000000000000, 1.000000000000000000 ) ) ;
#345 = EDGE_CURVE ( 'NONE', #727, #197, #439, .T. ) ;
#346 = VERTEX_POINT ( 'NONE', #545 ) ;
#347 = APPROVAL ( #194, 'UNSPECIFIED' ) ;
#348 = CARTESIAN_POINT ( 'NONE',  ( -2.049999999999999822, -3.434748899119119070, -1.649999999999999911 ) ) ;
#349 = CARTESIAN_POINT ( 'NONE',  ( -7.000000000000000000, 7.000000000000000000, 4.000000000000003553 ) ) ;
#350 = VERTEX_POINT ( 'NONE', #662 ) ;
#351 = AXIS2_PLACEMENT_3D ( 'NONE', #583, #384, #391 ) ;
#352 = PLANE ( 'NONE',  #37 ) ;
#353 = CIRCLE ( 'NONE', #298, 1.150000000000000799 ) ;
#354 = DIRECTION ( 'NONE',  ( 0.000000000000000000, 0.000000000000000000, -1.000000000000000000 ) ) ;
#355 = LINE ( 'NONE', #531, #418 ) ;
#356 = ORIENTED_EDGE ( 'NONE', *, *, #291, .F. ) ;
#357 = ADVANCED_FACE ( 'NONE', ( #496 ), #846, .T. ) ;
#358 = CARTESIAN_POINT ( 'NONE',  ( 5.849999999999999645, -7.000000000000000000, -1.650000000000000355 ) ) ;
#359 = DIRECTION ( 'NONE',  ( 0.000000000000000000, 0.000000000000000000, 1.000000000000000000 ) ) ;
#360 = DIRECTION ( 'NONE',  ( -0.000000000000000000, -0.000000000000000000, -1.000000000000000000 ) ) ;
#361 = VERTEX_POINT ( 'NONE', #759 ) ;
#362 = EDGE_CURVE ( 'NONE', #970, #957, #221, .T. ) ;
#363 = CARTESIAN_POINT ( 'NONE',  ( -3.434748899119119070, -2.049999999999999822, 0.000000000000000000 ) ) ;
#364 = DIRECTION ( 'NONE',  ( 1.000000000000000000, 0.000000000000000000, 0.000000000000000000 ) ) ;
#365 =( LENGTH_UNIT ( ) NAMED_UNIT ( * ) SI_UNIT ( .MILLI., .METRE. ) );
#366 = LINE ( 'NONE', #748, #878 ) ;
#367 = ADVANCED_FACE ( 'NONE', ( #1002 ), #307, .F. ) ;
#368 = DIRECTION ( 'NONE',  ( 1.000000000000000000, 0.000000000000000000, 0.000000000000000000 ) ) ;
#369 = ORIENTED_EDGE ( 'NONE', *, *, #832, .F. ) ;
#370 = AXIS2_PLACEMENT_3D ( 'NONE', #790, #3, #338 ) ;
#371 = DIRECTION ( 'NONE',  ( 1.000000000000000000, 0.000000000000000000, 0.000000000000000000 ) ) ;
#372 = CARTESIAN_POINT ( 'NONE',  ( -7.000000000000000000, -7.000000000000000000, 4.000000000000003553 ) ) ;
#373 = DIRECTION ( 'NONE',  ( -1.000000000000000000, 0.000000000000000000, -0.000000000000000000 ) ) ;
#374 = ORIENTED_EDGE ( 'NONE', *, *, #163, .F. ) ;
#375 = VECTOR ( 'NONE', #432, 1000.000000000000000 ) ;
#376 = VERTEX_POINT ( 'NONE', #841 ) ;
#377 = CIRCLE ( 'NONE', #5, 1.150000000000000799 ) ;
#378 = DATE_AND_TIME ( #460, #645 ) ;
#379 = DIRECTION ( 'NONE',  ( 0.000000000000000000, -0.000000000000000000, 1.000000000000000000 ) ) ;
#380 = EDGE_CURVE ( 'NONE', #479, #198, #397, .T. ) ;
#381 = ORIENTED_EDGE ( 'NONE', *, *, #282, .T. ) ;
#382 = EDGE_CURVE ( 'NONE', #704, #950, #229, .T. ) ;
#383 = EDGE_CURVE ( 'NONE', #586, #710, #774, .T. ) ;
#384 = DIRECTION ( 'NONE',  ( -0.000000000000000000, -0.000000000000000000, -1.000000000000000000 ) ) ;
#385 = CIRCLE ( 'NONE', #967, 4.000000000000000000 ) ;
#386 = PERSON_AND_ORGANIZATION_ROLE ( 'design_owner' ) ;
#387 = CYLINDRICAL_SURFACE ( 'NONE', #234, 1.150000000000000799 ) ;
#388 = VECTOR ( 'NONE', #508, 1000.000000000000000 ) ;
#389 = ORIENTED_EDGE ( 'NONE', *, *, #16, .F. ) ;
#390 = VERTEX_POINT ( 'NONE', #1089 ) ;
#391 = DIRECTION ( 'NONE',  ( -1.000000000000000000, 0.000000000000000000, 0.000000000000000000 ) ) ;
#392 = DATE_TIME_ROLE ( 'classification_date' ) ;
#393 = DIRECTION ( 'NONE',  ( 0.000000000000000000, 0.000000000000000000, -1.000000000000000000 ) ) ;
#394 = DIRECTION ( 'NONE',  ( 0.000000000000000000, 0.000000000000000000, 1.000000000000000000 ) ) ;
#395 = EDGE_LOOP ( 'NONE', ( #1057, #1051 ) ) ;
#396 = AXIS2_PLACEMENT_3D ( 'NONE', #1045, #949, #619 ) ;
#397 = CIRCLE ( 'NONE', #1038, 2.049999999999999822 ) ;
#398 = CALENDAR_DATE ( 2026, 8, 9 ) ;
#399 = DIRECTION ( 'NONE',  ( 1.000000000000000000, 0.000000000000000000, 0.000000000000000000 ) ) ;
#400 = ORIENTED_EDGE ( 'NONE', *, *, #504, .F. ) ;
#401 = ORIENTED_EDGE ( 'NONE', *, *, #1095, .T. ) ;
#402 = CARTESIAN_POINT ( 'NONE',  ( -2.049999999999999822, -3.434748899119119070, 0.000000000000000000 ) ) ;
#403 = SHAPE_DEFINITION_REPRESENTATION ( #644, #940 ) ;
#404 = DIRECTION ( 'NONE',  ( 1.000000000000000000, 0.000000000000000000, 0.000000000000000000 ) ) ;
#405 = ORIENTED_EDGE ( 'NONE', *, *, #1018, .F. ) ;
#406 = DIRECTION ( 'NONE',  ( -1.000000000000000000, 0.000000000000000000, 0.000000000000000000 ) ) ;
#407 = ORIENTED_EDGE ( 'NONE', *, *, #269, .T. ) ;
#408 = CARTESIAN_POINT ( 'NONE',  ( -7.000000000000000000, 7.000000000000000000, 4.000000000000003553 ) ) ;
#409 = CIRCLE ( 'NONE', #79, 4.000000000000000000 ) ;
#410 = CARTESIAN_POINT ( 'NONE',  ( 0.000000000000000000, 8.150000000000000355, -1.649999999999999911 ) ) ;
#411 = EDGE_CURVE ( 'NONE', #166, #390, #578, .T. ) ;
#412 = ORIENTED_EDGE ( 'NONE', *, *, #321, .T. ) ;
#413 = DIRECTION ( 'NONE',  ( 1.000000000000000000, 0.000000000000000000, 0.000000000000000000 ) ) ;
#414 = ORIENTED_EDGE ( 'NONE', *, *, #362, .F. ) ;
#415 = DIRECTION ( 'NONE',  ( -1.000000000000000000, 0.000000000000000000, -0.000000000000000000 ) ) ;
#416 = ADVANCED_FACE ( 'NONE', ( #1098 ), #927, .T. ) ;
#417 = LINE ( 'NONE', #776, #599 ) ;
#418 = VECTOR ( 'NONE', #260, 1000.000000000000000 ) ;
#419 = CARTESIAN_POINT ( 'NONE',  ( 7.000000000000000000, -7.000000000000000000, 4.000000000000003553 ) ) ;
#420 = ORIENTED_EDGE ( 'NONE', *, *, #291, .T. ) ;
#421 = EDGE_CURVE ( 'NONE', #602, #314, #920, .T. ) ;
#422 = CARTESIAN_POINT ( 'NONE',  ( -7.000000000000000000, 7.000000000000000000, 4.000000000000003553 ) ) ;
#423 = CIRCLE ( 'NONE', #1061, 1.149999999999999911 ) ;
#424 = DIRECTION ( 'NONE',  ( -1.000000000000000000, 0.000000000000000000, 0.000000000000000000 ) ) ;
#425 = EDGE_LOOP ( 'NONE', ( #933, #807, #567, #1016 ) ) ;
#426 = AXIS2_PLACEMENT_3D ( 'NONE', #1056, #360, #170 ) ;
#427 = LINE ( 'NONE', #168, #182 ) ;
#428 = AXIS2_PLACEMENT_3D ( 'NONE', #961, #618, #954 ) ;
#429 = CARTESIAN_POINT ( 'NONE',  ( 0.000000000000000000, 0.000000000000000000, -1.649999999999999911 ) ) ;
#430 = ORIENTED_EDGE ( 'NONE', *, *, #470, .F. ) ;
#431 = EDGE_CURVE ( 'NONE', #314, #130, #134, .T. ) ;
#432 = DIRECTION ( 'NONE',  ( 0.000000000000000000, 0.000000000000000000, -1.000000000000000000 ) ) ;
#433 = AXIS2_PLACEMENT_3D ( 'NONE', #848, #406, #771 ) ;
#434 = DIRECTION ( 'NONE',  ( 0.000000000000000000, 0.000000000000000000, -1.000000000000000000 ) ) ;
#435 = EDGE_CURVE ( 'NONE', #756, #57, #506, .T. ) ;
#436 = DIRECTION ( 'NONE',  ( 0.000000000000000000, 0.000000000000000000, 1.000000000000000000 ) ) ;
#437 = CARTESIAN_POINT ( 'NONE',  ( -8.150000000000000355, 7.000000000000000000, 4.000000000000003553 ) ) ;
#438 = VERTEX_POINT ( 'NONE', #998 ) ;
#439 = CIRCLE ( 'NONE', #700, 4.000000000000000000 ) ;
#440 = CLOSED_SHELL ( 'NONE', ( #730, #224, #172, #367, #94, #665, #910, #803, #1123, #548, #416, #271, #1075, #972, #92, #1030, #534, #801, #174, #1058, #357, #707, #939, #1001, #544, #1086, #243, #714, #1039, #292, #716 ) ) ;
#441 = CARTESIAN_POINT ( 'NONE',  ( 4.000000000000000000, 4.898587196589412829E-16, 4.000000000000000000 ) ) ;
#442 = CYLINDRICAL_SURFACE ( 'NONE', #63, 1.150000000000000799 ) ;
#443 = ORIENTED_EDGE ( 'NONE', *, *, #128, .F. ) ;
#444 = CARTESIAN_POINT ( 'NONE',  ( -8.150000000000000355, 7.000000000000000000, 4.000000000000003553 ) ) ;
#445 = EDGE_CURVE ( 'NONE', #1120, #715, #55, .T. ) ;
#446 = CARTESIAN_POINT ( 'NONE',  ( 8.150000000000000355, -2.049999999999999822, 0.000000000000000000 ) ) ;
#447 = EDGE_LOOP ( 'NONE', ( #78, #773, #906, #593, #420, #1077, #895, #239, #975, #401, #7, #852, #1023, #842, #171, #571, #38 ) ) ;
#448 = CIRCLE ( 'NONE', #336, 1.149999999999999911 ) ;
#449 = DIRECTION ( 'NONE',  ( 0.000000000000000000, 0.000000000000000000, -1.000000000000000000 ) ) ;
#450 = DIRECTION ( 'NONE',  ( 1.000000000000000000, 0.000000000000000000, 0.000000000000000000 ) ) ;
#451 = EDGE_CURVE ( 'NONE', #376, #346, #826, .T. ) ;
#452 = ORIENTED_EDGE ( 'NONE', *, *, #990, .F. ) ;
#453 = DIRECTION ( 'NONE',  ( 0.000000000000000000, 0.000000000000000000, -1.000000000000000000 ) ) ;
#454 = DIRECTION ( 'NONE',  ( 0.000000000000000000, 0.000000000000000000, 1.000000000000000000 ) ) ;
#455 = CARTESIAN_POINT ( 'NONE',  ( 0.000000000000000000, 0.000000000000000000, 0.000000000000000000 ) ) ;
#456 = FACE_OUTER_BOUND ( 'NONE', #839, .T. ) ;
#457 = CARTESIAN_POINT ( 'NONE',  ( 0.000000000000000000, 0.000000000000000000, 0.000000000000000000 ) ) ;
#458 = ORIENTED_EDGE ( 'NONE', *, *, #421, .F. ) ;
#459 = EDGE_LOOP ( 'NONE', ( #93, #521 ) ) ;
#460 = CALENDAR_DATE ( 2026, 8, 9 ) ;
#461 = CARTESIAN_POINT ( 'NONE',  ( -2.049999999999999822, -8.150000000000000355, -1.649999999999999911 ) ) ;
#462 = PLANE ( 'NONE',  #187 ) ;
#463 = ORIENTED_EDGE ( 'NONE', *, *, #622, .F. ) ;
#464 = CIRCLE ( 'NONE', #787, 2.049999999999999822 ) ;
#465 = ORIENTED_EDGE ( 'NONE', *, *, #255, .T. ) ;
#466 = VECTOR ( 'NONE', #228, 1000.000000000000000 ) ;
#467 = EDGE_CURVE ( 'NONE', #586, #671, #932, .T. ) ;
#468 = PERSON_AND_ORGANIZATION ( #966, #100 ) ;
#469 = CARTESIAN_POINT ( 'NONE',  ( -5.850000000000000533, -7.000000000000000000, 4.000000000000003553 ) ) ;
#470 = EDGE_CURVE ( 'NONE', #361, #136, #590, .T. ) ;
#471 = VERTEX_POINT ( 'NONE', #856 ) ;
#472 = LOCAL_TIME ( 17, 4, 5.000000000000000000, #984 ) ;
#473 = ORIENTED_EDGE ( 'NONE', *, *, #1024, .F. ) ;
#474 = DIRECTION ( 'NONE',  ( 1.000000000000000000, 0.000000000000000000, 0.000000000000000000 ) ) ;
#475 = AXIS2_PLACEMENT_3D ( 'NONE', #191, #1063, #450 ) ;
#476 = PERSON_AND_ORGANIZATION ( #966, #100 ) ;
#477 = FACE_OUTER_BOUND ( 'NONE', #547, .T. ) ;
#478 = EDGE_LOOP ( 'NONE', ( #621, #722, #565, #987 ) ) ;
#479 = VERTEX_POINT ( 'NONE', #851 ) ;
#480 = CIRCLE ( 'NONE', #608, 2.049999999999999822 ) ;
#481 = CALENDAR_DATE ( 2026, 8, 9 ) ;
#482 = DIRECTION ( 'NONE',  ( 0.000000000000000000, 0.000000000000000000, 1.000000000000000000 ) ) ;
#483 = DIRECTION ( 'NONE',  ( 1.000000000000000000, -0.000000000000000000, 0.000000000000000000 ) ) ;
#484 = VERTEX_POINT ( 'NONE', #59 ) ;
#485 = ORIENTED_EDGE ( 'NONE', *, *, #561, .F. ) ;
#486 = AXIS2_PLACEMENT_3D ( 'NONE', #519, #344, #1041 ) ;
#487 = AXIS2_PLACEMENT_3D ( 'NONE', #422, #1, #805 ) ;
#488 = LINE ( 'NONE', #208, #1008 ) ;
#489 = CARTESIAN_POINT ( 'NONE',  ( -13.00000000000000000, 0.000000000000000000, 4.000000000000000000 ) ) ;
#490 = EDGE_LOOP ( 'NONE', ( #322, #963, #1085, #802 ) ) ;
#491 = EDGE_LOOP ( 'NONE', ( #982, #114, #356, #917 ) ) ;
#492 = VECTOR ( 'NONE', #889, 1000.000000000000000 ) ;
#493 = CARTESIAN_POINT ( 'NONE',  ( -3.434748899119119070, -2.049999999999999822, 0.000000000000000000 ) ) ;
#494 = EDGE_CURVE ( 'NONE', #166, #286, #913, .T. ) ;
#495 = VECTOR ( 'NONE', #1006, 1000.000000000000000 ) ;
#496 = FACE_OUTER_BOUND ( 'NONE', #1081, .T. ) ;
#497 = EDGE_LOOP ( 'NONE', ( #389, #465, #947, #1004, #61, #192, #554, #868, #1114, #223, #65, #902 ) ) ;
#498 = ORIENTED_EDGE ( 'NONE', *, *, #797, .T. ) ;
#499 = EDGE_CURVE ( 'NONE', #580, #756, #757, .T. ) ;
#500 = DIRECTION ( 'NONE',  ( 0.000000000000000000, 0.000000000000000000, -1.000000000000000000 ) ) ;
#501 = DIRECTION ( 'NONE',  ( 0.000000000000000000, 0.000000000000000000, -1.000000000000000000 ) ) ;
#502 = EDGE_LOOP ( 'NONE', ( #860, #53 ) ) ;
#503 = ORIENTED_EDGE ( 'NONE', *, *, #750, .F. ) ;
#504 = EDGE_CURVE ( 'NONE', #517, #1009, #377, .T. ) ;
#505 = AXIS2_PLACEMENT_3D ( 'NONE', #429, #601, #937 ) ;
#506 = LINE ( 'NONE', #584, #495 ) ;
#507 = EDGE_CURVE ( 'NONE', #316, #517, #977, .T. ) ;
#508 = DIRECTION ( 'NONE',  ( 0.000000000000000000, 0.000000000000000000, -1.000000000000000000 ) ) ;
#509 = CARTESIAN_POINT ( 'NONE',  ( -8.150000000000000355, -2.049999999999999822, -1.649999999999999911 ) ) ;
#510 = CARTESIAN_POINT ( 'NONE',  ( 0.000000000000000000, 0.000000000000000000, 4.000000000000000000 ) ) ;
#511 = EDGE_CURVE ( 'NONE', #888, #438, #154, .T. ) ;
#512 = EDGE_LOOP ( 'NONE', ( #936, #452, #4, #88 ) ) ;
#513 = AXIS2_PLACEMENT_3D ( 'NONE', #951, #102, #364 ) ;
#514 = CARTESIAN_POINT ( 'NONE',  ( -8.150000000000000355, -2.049999999999999822, 0.000000000000000000 ) ) ;
#515 = DIRECTION ( 'NONE',  ( 0.000000000000000000, 0.000000000000000000, -1.000000000000000000 ) ) ;
#516 = DIRECTION ( 'NONE',  ( -0.000000000000000000, -0.000000000000000000, -1.000000000000000000 ) ) ;
#517 = VERTEX_POINT ( 'NONE', #358 ) ;
#518 = DIRECTION ( 'NONE',  ( -0.000000000000000000, -1.000000000000000000, -0.000000000000000000 ) ) ;
#519 = CARTESIAN_POINT ( 'NONE',  ( 7.000000000000000000, -7.000000000000000000, 4.000000000000003553 ) ) ;
#520 = EDGE_CURVE ( 'NONE', #847, #888, #780, .T. ) ;
#521 = ORIENTED_EDGE ( 'NONE', *, *, #305, .F. ) ;
#522 = CARTESIAN_POINT ( 'NONE',  ( -2.049999999999999822, -8.150000000000000355, 0.000000000000000000 ) ) ;
#523 = EDGE_CURVE ( 'NONE', #950, #479, #179, .T. ) ;
#524 = AXIS2_PLACEMENT_3D ( 'NONE', #931, #219, #203 ) ;
#525 = DIRECTION ( 'NONE',  ( 0.000000000000000000, 0.000000000000000000, -1.000000000000000000 ) ) ;
#526 = DIRECTION ( 'NONE',  ( 0.000000000000000000, 0.000000000000000000, -1.000000000000000000 ) ) ;
#527 = EDGE_LOOP ( 'NONE', ( #27, #1047 ) ) ;
#528 = VECTOR ( 'NONE', #605, 1000.000000000000000 ) ;
#529 = DIRECTION ( 'NONE',  ( -0.000000000000000000, -0.000000000000000000, -1.000000000000000000 ) ) ;
#530 = PLANE ( 'NONE',  #49 ) ;
#531 = CARTESIAN_POINT ( 'NONE',  ( -5.850000000000000533, -7.000000000000000000, 4.000000000000003553 ) ) ;
#532 = ORIENTED_EDGE ( 'NONE', *, *, #467, .T. ) ;
#533 = VECTOR ( 'NONE', #1117, 1000.000000000000000 ) ;
#534 = ADVANCED_FACE ( 'NONE', ( #1059, #775, #959, #635, #329, #884 ), #352, .T. ) ;
#535 = CARTESIAN_POINT ( 'NONE',  ( 3.434748899119119070, 2.049999999999999822, 0.000000000000000000 ) ) ;
#536 = CARTESIAN_POINT ( 'NONE',  ( -2.049999999999999822, 8.150000000000000355, 0.000000000000000000 ) ) ;
#537 = DIRECTION ( 'NONE',  ( 0.000000000000000000, 0.000000000000000000, -1.000000000000000000 ) ) ;
#538 = EDGE_LOOP ( 'NONE', ( #473, #324, #235, #823 ) ) ;
#539 = AXIS2_PLACEMENT_3D ( 'NONE', #992, #359, #739 ) ;
#540 = DIRECTION ( 'NONE',  ( 0.000000000000000000, 0.000000000000000000, -1.000000000000000000 ) ) ;
#541 = DIRECTION ( 'NONE',  ( 0.000000000000000000, 0.000000000000000000, -1.000000000000000000 ) ) ;
#542 = VECTOR ( 'NONE', #354, 1000.000000000000000 ) ;
#543 = CARTESIAN_POINT ( 'NONE',  ( 8.150000000000000355, -7.000000000000000000, -1.650000000000000355 ) ) ;
#544 = ADVANCED_FACE ( 'NONE', ( #629 ), #1110, .F. ) ;
#545 = CARTESIAN_POINT ( 'NONE',  ( 3.434748899119119070, 2.049999999999999822, 0.000000000000000000 ) ) ;
#546 = CARTESIAN_POINT ( 'NONE',  ( 2.049999999999999822, 8.150000000000000355, 0.000000000000000000 ) ) ;
#547 = EDGE_LOOP ( 'NONE', ( #73, #297, #178, #280 ) ) ;
#548 = ADVANCED_FACE ( 'NONE', ( #690 ), #1029, .T. ) ;
#549 = CARTESIAN_POINT ( 'NONE',  ( 8.150000000000000355, 7.000000000000000000, 4.000000000000003553 ) ) ;
#550 = CIRCLE ( 'NONE', #513, 4.000000000000000000 ) ;
#551 = DIRECTION ( 'NONE',  ( 0.000000000000000000, 0.000000000000000000, 1.000000000000000000 ) ) ;
#552 = CARTESIAN_POINT ( 'NONE',  ( -8.150000000000000355, -2.049999999999999822, 0.000000000000000000 ) ) ;
#553 = LINE ( 'NONE', #893, #660 ) ;
#554 = ORIENTED_EDGE ( 'NONE', *, *, #763, .F. ) ;
#555 = VECTOR ( 'NONE', #541, 1000.000000000000000 ) ;
#556 = APPROVAL_ROLE ( '' ) ;
#557 = CARTESIAN_POINT ( 'NONE',  ( 0.000000000000000000, 0.000000000000000000, 4.000000000000000000 ) ) ;
#558 = DIRECTION ( 'NONE',  ( 0.000000000000000000, 0.000000000000000000, -1.000000000000000000 ) ) ;
#559 = EDGE_LOOP ( 'NONE', ( #430, #273, #843, #877 ) ) ;
#560 = ORIENTED_EDGE ( 'NONE', *, *, #579, .F. ) ;
#561 = EDGE_CURVE ( 'NONE', #136, #922, #723, .T. ) ;
#562 = EDGE_CURVE ( 'NONE', #770, #361, #960, .T. ) ;
#563 = DIRECTION ( 'NONE',  ( -0.000000000000000000, 1.000000000000000000, 0.000000000000000000 ) ) ;
#564 = CARTESIAN_POINT ( 'NONE',  ( 0.000000000000000000, 0.000000000000000000, -1.649999999999999911 ) ) ;
#565 = ORIENTED_EDGE ( 'NONE', *, *, #33, .F. ) ;
#566 = VECTOR ( 'NONE', #68, 1000.000000000000000 ) ;
#567 = ORIENTED_EDGE ( 'NONE', *, *, #898, .T. ) ;
#568 = LINE ( 'NONE', #311, #869 ) ;
#569 = APPLICATION_PROTOCOL_DEFINITION ( 'international standard', 'config_control_design', 1994, #705 ) ;
#570 = CARTESIAN_POINT ( 'NONE',  ( 5.849999999999999645, -7.000000000000000000, 4.000000000000003553 ) ) ;
#571 = ORIENTED_EDGE ( 'NONE', *, *, #362, .T. ) ;
#572 = LINE ( 'NONE', #1005, #1100 ) ;
#573 = VECTOR ( 'NONE', #265, 1000.000000000000000 ) ;
#574 = CARTESIAN_POINT ( 'NONE',  ( -8.150000000000000355, 2.049999999999999822, -1.649999999999999911 ) ) ;
#575 = VERTEX_POINT ( 'NONE', #10 ) ;
#576 = ORIENTED_EDGE ( 'NONE', *, *, #499, .F. ) ;
#577 = PERSON_AND_ORGANIZATION ( #966, #100 ) ;
#578 = LINE ( 'NONE', #50, #283 ) ;
#579 = EDGE_CURVE ( 'NONE', #316, #1014, #123, .T. ) ;
#580 = VERTEX_POINT ( 'NONE', #254 ) ;
#581 = EDGE_LOOP ( 'NONE', ( #34, #186 ) ) ;
#582 = VECTOR ( 'NONE', #518, 1000.000000000000000 ) ;
#583 = CARTESIAN_POINT ( 'NONE',  ( 0.000000000000000000, 0.000000000000000000, 4.000000000000000000 ) ) ;
#584 = CARTESIAN_POINT ( 'NONE',  ( 8.150000000000000355, 2.049999999999999822, 0.000000000000000000 ) ) ;
#585 = ORIENTED_EDGE ( 'NONE', *, *, #1024, .T. ) ;
#586 = VERTEX_POINT ( 'NONE', #185 ) ;
#587 = LOCAL_TIME ( 17, 4, 5.000000000000000000, #1073 ) ;
#588 = CARTESIAN_POINT ( 'NONE',  ( 0.000000000000000000, 0.000000000000000000, 0.000000000000000000 ) ) ;
#589 = VECTOR ( 'NONE', #762, 1000.000000000000000 ) ;
#590 = LINE ( 'NONE', #144, #84 ) ;
#591 = DIRECTION ( 'NONE',  ( 0.000000000000000000, 1.000000000000000000, 0.000000000000000000 ) ) ;
#592 = CARTESIAN_POINT ( 'NONE',  ( 7.000000000000000000, 7.000000000000000000, -1.650000000000000355 ) ) ;
#593 = ORIENTED_EDGE ( 'NONE', *, *, #380, .T. ) ;
#594 = EDGE_CURVE ( 'NONE', #938, #634, #815, .T. ) ;
#595 = EDGE_CURVE ( 'NONE', #286, #124, #355, .T. ) ;
#596 = CARTESIAN_POINT ( 'NONE',  ( 0.000000000000000000, 0.000000000000000000, 4.000000000000000000 ) ) ;
#597 = EDGE_CURVE ( 'NONE', #950, #749, #962, .T. ) ;
#598 = ORIENTED_EDGE ( 'NONE', *, *, #907, .F. ) ;
#599 = VECTOR ( 'NONE', #1111, 1000.000000000000000 ) ;
#600 = CARTESIAN_POINT ( 'NONE',  ( -8.150000000000000355, 0.000000000000000000, 0.000000000000000000 ) ) ;
#601 = DIRECTION ( 'NONE',  ( 0.000000000000000000, 0.000000000000000000, 1.000000000000000000 ) ) ;
#602 = VERTEX_POINT ( 'NONE', #112 ) ;
#603 = DIRECTION ( 'NONE',  ( 0.000000000000000000, -1.000000000000000000, 0.000000000000000000 ) ) ;
#604 = PLANE ( 'NONE',  #43 ) ;
#605 = DIRECTION ( 'NONE',  ( 1.000000000000000000, 0.000000000000000000, 0.000000000000000000 ) ) ;
#606 = CARTESIAN_POINT ( 'NONE',  ( -8.150000000000000355, -2.049999999999999822, 0.000000000000000000 ) ) ;
#607 = VERTEX_POINT ( 'NONE', #713 ) ;
#608 = AXIS2_PLACEMENT_3D ( 'NONE', #36, #647, #979 ) ;
#609 = CARTESIAN_POINT ( 'NONE',  ( -2.049999999999999822, -8.150000000000000355, 0.000000000000000000 ) ) ;
#610 = CARTESIAN_POINT ( 'NONE',  ( 7.000000000000000000, -7.000000000000000000, 4.000000000000003553 ) ) ;
#611 = ORIENTED_EDGE ( 'NONE', *, *, #255, .F. ) ;
#612 = DIRECTION ( 'NONE',  ( 1.000000000000000000, 0.000000000000000000, 0.000000000000000000 ) ) ;
#613 = DIRECTION ( 'NONE',  ( -1.000000000000000000, 0.000000000000000000, 0.000000000000000000 ) ) ;
#614 = DIRECTION ( 'NONE',  ( 0.000000000000000000, 0.000000000000000000, 1.000000000000000000 ) ) ;
#615 = EDGE_LOOP ( 'NONE', ( #142, #896, #744, #651 ) ) ;
#616 = CC_DESIGN_DATE_AND_TIME_ASSIGNMENT ( #44, #392, ( #792 ) ) ;
#617 = AXIS2_PLACEMENT_3D ( 'NONE', #592, #147, #413 ) ;
#618 = DIRECTION ( 'NONE',  ( -0.000000000000000000, -0.000000000000000000, -1.000000000000000000 ) ) ;
#619 = DIRECTION ( 'NONE',  ( -1.000000000000000000, 0.000000000000000000, 0.000000000000000000 ) ) ;
#620 = DIRECTION ( 'NONE',  ( 0.000000000000000000, 0.000000000000000000, 1.000000000000000000 ) ) ;
#621 = ORIENTED_EDGE ( 'NONE', *, *, #421, .T. ) ;
#622 = EDGE_CURVE ( 'NONE', #654, #479, #177, .T. ) ;
#623 = CARTESIAN_POINT ( 'NONE',  ( 5.849999999999999645, -7.000000000000000000, 4.000000000000003553 ) ) ;
#624 = DIRECTION ( 'NONE',  ( 1.000000000000000000, 0.000000000000000000, 0.000000000000000000 ) ) ;
#625 = DIRECTION ( 'NONE',  ( 1.000000000000000000, 0.000000000000000000, 0.000000000000000000 ) ) ;
#626 = ORIENTED_EDGE ( 'NONE', *, *, #632, .F. ) ;
#627 = AXIS2_PLACEMENT_3D ( 'NONE', #139, #227, #404 ) ;
#628 = EDGE_CURVE ( 'NONE', #580, #957, #887, .T. ) ;
#629 = FACE_OUTER_BOUND ( 'NONE', #252, .T. ) ;
#630 = EDGE_CURVE ( 'NONE', #607, #928, #294, .T. ) ;
#631 = DIRECTION ( 'NONE',  ( 1.000000000000000000, 0.000000000000000000, 0.000000000000000000 ) ) ;
#632 = EDGE_CURVE ( 'NONE', #231, #137, #196, .T. ) ;
#633 = CARTESIAN_POINT ( 'NONE',  ( -13.00000000000000000, 0.000000000000000000, -1.649999999999999911 ) ) ;
#634 = VERTEX_POINT ( 'NONE', #98 ) ;
#635 = FACE_BOUND ( 'NONE', #678, .T. ) ;
#636 = DIRECTION ( 'NONE',  ( 0.000000000000000000, 0.000000000000000000, 1.000000000000000000 ) ) ;
#637 = CALENDAR_DATE ( 2026, 8, 9 ) ;
#638 = PLANE ( 'NONE',  #689 ) ;
#639 = CARTESIAN_POINT ( 'NONE',  ( -7.000000000000000000, 7.000000000000000000, -1.650000000000000355 ) ) ;
#640 = CIRCLE ( 'NONE', #505, 13.00000000000000000 ) ;
#641 = VERTEX_POINT ( 'NONE', #1070 ) ;
#642 = VECTOR ( 'NONE', #798, 1000.000000000000000 ) ;
#643 = PLANE ( 'NONE',  #193 ) ;
#644 = PRODUCT_DEFINITION_SHAPE ( 'NONE', 'NONE',  #1010 ) ;
#645 = LOCAL_TIME ( 17, 4, 5.000000000000000000, #110 ) ;
#646 = APPROVAL_STATUS ( 'not_yet_approved' ) ;
#647 = DIRECTION ( 'NONE',  ( 0.000000000000000000, 0.000000000000000000, 1.000000000000000000 ) ) ;
#648 = DIRECTION ( 'NONE',  ( -0.000000000000000000, -0.000000000000000000, -1.000000000000000000 ) ) ;
#649 = ORIENTED_EDGE ( 'NONE', *, *, #1106, .T. ) ;
#650 = AXIS2_PLACEMENT_3D ( 'NONE', #639, #648, #732 ) ;
#651 = ORIENTED_EDGE ( 'NONE', *, *, #435, .F. ) ;
#652 = APPROVAL ( #1019, 'UNSPECIFIED' ) ;
#653 = DIRECTION ( 'NONE',  ( 0.000000000000000000, 0.000000000000000000, 1.000000000000000000 ) ) ;
#654 = VERTEX_POINT ( 'NONE', #546 ) ;
#655 = ORIENTED_EDGE ( 'NONE', *, *, #676, .T. ) ;
#656 = DIRECTION ( 'NONE',  ( 1.000000000000000000, 0.000000000000000000, 0.000000000000000000 ) ) ;
#657 = CARTESIAN_POINT ( 'NONE',  ( -3.434748899119119070, 2.049999999999999822, -1.649999999999999911 ) ) ;
#658 = DIRECTION ( 'NONE',  ( -0.000000000000000000, -1.000000000000000000, -0.000000000000000000 ) ) ;
#659 = EDGE_LOOP ( 'NONE', ( #201, #217, #532, #1033 ) ) ;
#660 = VECTOR ( 'NONE', #106, 1000.000000000000000 ) ;
#661 = ORIENTED_EDGE ( 'NONE', *, *, #328, .F. ) ;
#662 = CARTESIAN_POINT ( 'NONE',  ( -2.049999999999999822, -8.150000000000000355, -1.649999999999999911 ) ) ;
#663 = VECTOR ( 'NONE', #777, 1000.000000000000000 ) ;
#664 = ORIENTED_EDGE ( 'NONE', *, *, #595, .F. ) ;
#665 = ADVANCED_FACE ( 'NONE', ( #881 ), #809, .F. ) ;
#666 = DIRECTION ( 'NONE',  ( -1.000000000000000000, -0.000000000000000000, -0.000000000000000000 ) ) ;
#667 = ORIENTED_EDGE ( 'NONE', *, *, #342, .T. ) ;
#668 = ORIENTED_EDGE ( 'NONE', *, *, #380, .F. ) ;
#669 = DIRECTION ( 'NONE',  ( 0.000000000000000000, 0.000000000000000000, 1.000000000000000000 ) ) ;
#670 = DIRECTION ( 'NONE',  ( 0.000000000000000000, -0.000000000000000000, -1.000000000000000000 ) ) ;
#671 = VERTEX_POINT ( 'NONE', #633 ) ;
#672 = ORIENTED_EDGE ( 'NONE', *, *, #60, .F. ) ;
#673 = VECTOR ( 'NONE', #537, 1000.000000000000000 ) ;
#674 = DIRECTION ( 'NONE',  ( 1.000000000000000000, 0.000000000000000000, 0.000000000000000000 ) ) ;
#675 = CARTESIAN_POINT ( 'NONE',  ( 2.049999999999999822, -8.150000000000000355, 0.000000000000000000 ) ) ;
#676 = EDGE_CURVE ( 'NONE', #231, #847, #952, .T. ) ;
#677 = CARTESIAN_POINT ( 'NONE',  ( 4.000000000000000000, 4.898587196589412829E-16, 4.000000000000000000 ) ) ;
#678 = EDGE_LOOP ( 'NONE', ( #755, #405 ) ) ;
#679 = APPROVAL_PERSON_ORGANIZATION ( #577, #652, #1028 ) ;
#680 = EDGE_CURVE ( 'NONE', #57, #704, #553, .T. ) ;
#681 = LINE ( 'NONE', #522, #375 ) ;
#682 = AXIS2_PLACEMENT_3D ( 'NONE', #238, #603, #806 ) ;
#683 = DIRECTION ( 'NONE',  ( 1.000000000000000000, 0.000000000000000000, 0.000000000000000000 ) ) ;
#684 = CARTESIAN_POINT ( 'NONE',  ( 2.049999999999999822, -8.150000000000000355, 0.000000000000000000 ) ) ;
#685 = DIRECTION ( 'NONE',  ( -1.000000000000000000, 0.000000000000000000, 0.000000000000000000 ) ) ;
#686 = LINE ( 'NONE', #606, #13 ) ;
#687 = ORIENTED_EDGE ( 'NONE', *, *, #211, .T. ) ;
#688 = FACE_OUTER_BOUND ( 'NONE', #491, .T. ) ;
#689 = AXIS2_PLACEMENT_3D ( 'NONE', #552, #1069, #379 ) ;
#690 = FACE_OUTER_BOUND ( 'NONE', #615, .T. ) ;
#691 = CARTESIAN_POINT ( 'NONE',  ( 0.000000000000000000, 8.150000000000000355, 0.000000000000000000 ) ) ;
#692 = AXIS2_PLACEMENT_3D ( 'NONE', #691, #394, #1031 ) ;
#693 = FACE_OUTER_BOUND ( 'NONE', #659, .T. ) ;
#694 = ORIENTED_EDGE ( 'NONE', *, *, #143, .F. ) ;
#695 = CYLINDRICAL_SURFACE ( 'NONE', #746, 2.049999999999999822 ) ;
#696 = LINE ( 'NONE', #858, #663 ) ;
#697 = FACE_BOUND ( 'NONE', #502, .T. ) ;
#698 = ORIENTED_EDGE ( 'NONE', *, *, #788, .T. ) ;
#699 = AXIS2_PLACEMENT_3D ( 'NONE', #600, #146, #685 ) ;
#700 = AXIS2_PLACEMENT_3D ( 'NONE', #909, #264, #631 ) ;
#701 = CARTESIAN_POINT ( 'NONE',  ( 2.049999999999999822, -3.434748899119119070, -1.649999999999999911 ) ) ;
#702 = CARTESIAN_POINT ( 'NONE',  ( 8.150000000000000355, 2.049999999999999822, 0.000000000000000000 ) ) ;
#703 = EDGE_CURVE ( 'NONE', #749, #575, #409, .T. ) ;
#704 = VERTEX_POINT ( 'NONE', #279 ) ;
#705 = APPLICATION_CONTEXT ( 'configuration controlled 3d designs of mechanical parts and assemblies' ) ;
#706 = DIRECTION ( 'NONE',  ( -0.000000000000000000, -0.000000000000000000, -1.000000000000000000 ) ) ;
#707 = ADVANCED_FACE ( 'NONE', ( #901 ), #462, .T. ) ;
#708 = FACE_OUTER_BOUND ( 'NONE', #559, .T. ) ;
#709 = FACE_BOUND ( 'NONE', #118, .T. ) ;
#710 = VERTEX_POINT ( 'NONE', #1046 ) ;
#711 = CIRCLE ( 'NONE', #486, 1.150000000000000799 ) ;
#712 = CARTESIAN_POINT ( 'NONE',  ( 7.000000000000000000, 7.000000000000000000, 4.000000000000003553 ) ) ;
#713 = CARTESIAN_POINT ( 'NONE',  ( 8.150000000000000355, 7.000000000000000000, -1.650000000000000355 ) ) ;
#714 = ADVANCED_FACE ( 'NONE', ( #87 ), #442, .F. ) ;
#715 = VERTEX_POINT ( 'NONE', #778 ) ;
#716 = ADVANCED_FACE ( 'NONE', ( #165 ), #247, .F. ) ;
#717 = CARTESIAN_POINT ( 'NONE',  ( 0.000000000000000000, 0.000000000000000000, 4.000000000000000000 ) ) ;
#718 = APPROVAL ( #646, 'UNSPECIFIED' ) ;
#719 = MANIFOLD_SOLID_BREP ( 'Hub_clearance_in_key_boss_only', #440 ) ;
#720 = FACE_OUTER_BOUND ( 'NONE', #162, .T. ) ;
#721 = CARTESIAN_POINT ( 'NONE',  ( 7.000000000000000000, 7.000000000000000000, -1.650000000000000355 ) ) ;
#722 = ORIENTED_EDGE ( 'NONE', *, *, #431, .T. ) ;
#723 = CIRCLE ( 'NONE', #650, 1.149999999999999911 ) ;
#724 = PRODUCT ( 'FIT-002_SG90_horn_pocket_clearance_0p05', 'FIT-002_SG90_horn_pocket_clearance_0p05', '', ( #837 ) ) ;
#725 = DIRECTION ( 'NONE',  ( 0.000000000000000000, 0.000000000000000000, 1.000000000000000000 ) ) ;
#726 = CARTESIAN_POINT ( 'NONE',  ( -8.150000000000000355, 0.000000000000000000, 0.000000000000000000 ) ) ;
#727 = VERTEX_POINT ( 'NONE', #864 ) ;
#728 = CIRCLE ( 'NONE', #918, 4.000000000000000000 ) ;
#729 = DIRECTION ( 'NONE',  ( -0.000000000000000000, -0.000000000000000000, -1.000000000000000000 ) ) ;
#730 = ADVANCED_FACE ( 'NONE', ( #251 ), #859, .F. ) ;
#731 = DIRECTION ( 'NONE',  ( 0.000000000000000000, 0.000000000000000000, 1.000000000000000000 ) ) ;
#732 = DIRECTION ( 'NONE',  ( 1.000000000000000000, 0.000000000000000000, 0.000000000000000000 ) ) ;
#733 = CIRCLE ( 'NONE', #617, 1.150000000000000799 ) ;
#734 = VECTOR ( 'NONE', #591, 1000.000000000000000 ) ;
#735 = VERTEX_POINT ( 'NONE', #334 ) ;
#736 = EDGE_CURVE ( 'NONE', #671, #113, #640, .T. ) ;
#737 = AXIS2_PLACEMENT_3D ( 'NONE', #455, #551, #371 ) ;
#738 = PERSON_AND_ORGANIZATION ( #966, #100 ) ;
#739 = DIRECTION ( 'NONE',  ( 1.000000000000000000, 0.000000000000000000, 0.000000000000000000 ) ) ;
#740 = ORIENTED_EDGE ( 'NONE', *, *, #330, .F. ) ;
#741 = AXIS2_PLACEMENT_3D ( 'NONE', #313, #127, #415 ) ;
#742 = ORIENTED_EDGE ( 'NONE', *, *, #16, .T. ) ;
#743 = CARTESIAN_POINT ( 'NONE',  ( -8.150000000000000355, 2.049999999999999822, 0.000000000000000000 ) ) ;
#744 = ORIENTED_EDGE ( 'NONE', *, *, #680, .F. ) ;
#745 = AXIS2_PLACEMENT_3D ( 'NONE', #175, #90, #14 ) ;
#746 = AXIS2_PLACEMENT_3D ( 'NONE', #870, #434, #613 ) ;
#747 = DIRECTION ( 'NONE',  ( 0.000000000000000000, -0.000000000000000000, 1.000000000000000000 ) ) ;
#748 = CARTESIAN_POINT ( 'NONE',  ( -3.434748899119119070, 2.049999999999999822, 0.000000000000000000 ) ) ;
#749 = VERTEX_POINT ( 'NONE', #853 ) ;
#750 = EDGE_CURVE ( 'NONE', #847, #817, #686, .T. ) ;
#751 = FACE_OUTER_BOUND ( 'NONE', #1064, .T. ) ;
#752 =( NAMED_UNIT ( * ) SI_UNIT ( $, .STERADIAN. ) SOLID_ANGLE_UNIT ( ) );
#753 = CARTESIAN_POINT ( 'NONE',  ( 2.049999999999999822, -3.434748899119119070, 0.000000000000000000 ) ) ;
#754 = AXIS2_PLACEMENT_3D ( 'NONE', #786, #1124, #612 ) ;
#755 = ORIENTED_EDGE ( 'NONE', *, *, #207, .F. ) ;
#756 = VERTEX_POINT ( 'NONE', #702 ) ;
#757 = CIRCLE ( 'NONE', #263, 2.049999999999999822 ) ;
#758 = CARTESIAN_POINT ( 'NONE',  ( -2.049999999999999822, 3.434748899119119070, -1.649999999999999911 ) ) ;
#759 = CARTESIAN_POINT ( 'NONE',  ( -5.850000000000000533, 7.000000000000000000, 4.000000000000003553 ) ) ;
#760 = ORIENTED_EDGE ( 'NONE', *, *, #765, .T. ) ;
#761 = ORIENTED_EDGE ( 'NONE', *, *, #520, .T. ) ;
#762 = DIRECTION ( 'NONE',  ( -0.000000000000000000, -0.000000000000000000, -1.000000000000000000 ) ) ;
#763 = EDGE_CURVE ( 'NONE', #575, #810, #942, .T. ) ;
#764 = EDGE_LOOP ( 'NONE', ( #871, #485 ) ) ;
#765 = EDGE_CURVE ( 'NONE', #749, #654, #1022, .T. ) ;
#766 = ORIENTED_EDGE ( 'NONE', *, *, #345, .T. ) ;
#767 = AXIS2_PLACEMENT_3D ( 'NONE', #721, #20, #625 ) ;
#768 = DIRECTION ( 'NONE',  ( -0.000000000000000000, -0.000000000000000000, -1.000000000000000000 ) ) ;
#769 = CARTESIAN_POINT ( 'NONE',  ( -7.000000000000000000, -7.000000000000000000, 4.000000000000003553 ) ) ;
#770 = VERTEX_POINT ( 'NONE', #437 ) ;
#771 = DIRECTION ( 'NONE',  ( 0.000000000000000000, 0.000000000000000000, 1.000000000000000000 ) ) ;
#772 = CARTESIAN_POINT ( 'NONE',  ( -2.049999999999999822, 3.434748899119119070, 0.000000000000000000 ) ) ;
#773 = ORIENTED_EDGE ( 'NONE', *, *, #382, .T. ) ;
#774 = CIRCLE ( 'NONE', #873, 13.00000000000000000 ) ;
#775 = FACE_BOUND ( 'NONE', #395, .T. ) ;
#776 = CARTESIAN_POINT ( 'NONE',  ( 3.434748899119119070, -2.049999999999999822, 0.000000000000000000 ) ) ;
#777 = DIRECTION ( 'NONE',  ( 0.000000000000000000, 0.000000000000000000, -1.000000000000000000 ) ) ;
#778 = CARTESIAN_POINT ( 'NONE',  ( -8.150000000000000355, 2.049999999999999822, -1.649999999999999911 ) ) ;
#779 = ORIENTED_EDGE ( 'NONE', *, *, #451, .T. ) ;
#780 = LINE ( 'NONE', #514, #70 ) ;
#781 = CARTESIAN_POINT ( 'NONE',  ( 0.000000000000000000, 0.000000000000000000, 4.000000000000000000 ) ) ;
#782 = FACE_BOUND ( 'NONE', #581, .T. ) ;
#783 = ORIENTED_EDGE ( 'NONE', *, *, #494, .T. ) ;
#784 = EDGE_CURVE ( 'NONE', #928, #607, #733, .T. ) ;
#785 = DESIGN_CONTEXT ( 'detailed design', #237, 'design' ) ;
#786 = CARTESIAN_POINT ( 'NONE',  ( 8.150000000000000355, 0.000000000000000000, -1.649999999999999911 ) ) ;
#787 = AXIS2_PLACEMENT_3D ( 'NONE', #125, #304, #989 ) ;
#788 = EDGE_CURVE ( 'NONE', #710, #586, #904, .T. ) ;
#789 = FACE_OUTER_BOUND ( 'NONE', #999, .T. ) ;
#790 = CARTESIAN_POINT ( 'NONE',  ( 0.000000000000000000, 0.000000000000000000, -1.649999999999999911 ) ) ;
#791 = ORIENTED_EDGE ( 'NONE', *, *, #411, .F. ) ;
#792 = SECURITY_CLASSIFICATION ( '', '', #39 ) ;
#793 = AXIS2_PLACEMENT_3D ( 'NONE', #1102, #1012, #45 ) ;
#794 = DIRECTION ( 'NONE',  ( 0.000000000000000000, 0.000000000000000000, 1.000000000000000000 ) ) ;
#795 = DIRECTION ( 'NONE',  ( -1.000000000000000000, 0.000000000000000000, 0.000000000000000000 ) ) ;
#796 = ORIENTED_EDGE ( 'NONE', *, *, #1026, .F. ) ;
#797 = EDGE_CURVE ( 'NONE', #1014, #316, #711, .T. ) ;
#798 = DIRECTION ( 'NONE',  ( -0.000000000000000000, -1.000000000000000000, -0.000000000000000000 ) ) ;
#799 = CARTESIAN_POINT ( 'NONE',  ( 0.000000000000000000, 0.000000000000000000, 0.000000000000000000 ) ) ;
#800 = CARTESIAN_POINT ( 'NONE',  ( 7.000000000000000000, 7.000000000000000000, 4.000000000000003553 ) ) ;
#801 = ADVANCED_FACE ( 'NONE', ( #693 ), #72, .T. ) ;
#802 = ORIENTED_EDGE ( 'NONE', *, *, #990, .T. ) ;
#803 = ADVANCED_FACE ( 'NONE', ( #709, #782, #1119, #697, #867, #1036 ), #77, .F. ) ;
#804 = AXIS2_PLACEMENT_3D ( 'NONE', #588, #500, #850 ) ;
#805 = DIRECTION ( 'NONE',  ( -1.000000000000000000, 0.000000000000000000, 0.000000000000000000 ) ) ;
#806 = DIRECTION ( 'NONE',  ( 0.000000000000000000, -0.000000000000000000, -1.000000000000000000 ) ) ;
#807 = ORIENTED_EDGE ( 'NONE', *, *, #835, .T. ) ;
#808 = CYLINDRICAL_SURFACE ( 'NONE', #181, 2.049999999999999822 ) ;
#809 = CYLINDRICAL_SURFACE ( 'NONE', #426, 4.000000000000000000 ) ;
#810 = VERTEX_POINT ( 'NONE', #758 ) ;
#811 = EDGE_CURVE ( 'NONE', #350, #471, #464, .T. ) ;
#812 = FACE_OUTER_BOUND ( 'NONE', #512, .T. ) ;
#813 = DATE_AND_TIME ( #637, #587 ) ;
#814 = CARTESIAN_POINT ( 'NONE',  ( -7.000000000000000000, -7.000000000000000000, -1.650000000000000355 ) ) ;
#815 = LINE ( 'NONE', #15, #1107 ) ;
#816 = EDGE_LOOP ( 'NONE', ( #694, #233, #822, #929 ) ) ;
#817 = VERTEX_POINT ( 'NONE', #919 ) ;
#818 = DIRECTION ( 'NONE',  ( 0.000000000000000000, 0.000000000000000000, -1.000000000000000000 ) ) ;
#819 = CC_DESIGN_PERSON_AND_ORGANIZATION_ASSIGNMENT ( #991, #121, ( #317 ) ) ;
#820 = CARTESIAN_POINT ( 'NONE',  ( 0.000000000000000000, 0.000000000000000000, 0.000000000000000000 ) ) ;
#821 = VECTOR ( 'NONE', #558, 1000.000000000000000 ) ;
#822 = ORIENTED_EDGE ( 'NONE', *, *, #765, .F. ) ;
#823 = ORIENTED_EDGE ( 'NONE', *, *, #784, .T. ) ;
#824 = CARTESIAN_POINT ( 'NONE',  ( 2.049999999999999822, -3.434748899119119070, 0.000000000000000000 ) ) ;
#825 = EDGE_LOOP ( 'NONE', ( #664, #649, #303, #995 ) ) ;
#826 = CIRCLE ( 'NONE', #627, 4.000000000000000000 ) ;
#827 = CARTESIAN_POINT ( 'NONE',  ( 7.000000000000000000, -7.000000000000000000, -1.650000000000000355 ) ) ;
#828 = PERSON_AND_ORGANIZATION_ROLE ( 'design_supplier' ) ;
#829 = LINE ( 'NONE', #743, #103 ) ;
#830 = EDGE_CURVE ( 'NONE', #137, #817, #274, .T. ) ;
#831 = ORIENTED_EDGE ( 'NONE', *, *, #628, .T. ) ;
#832 = EDGE_CURVE ( 'NONE', #756, #346, #572, .T. ) ;
#833 = AXIS2_PLACEMENT_3D ( 'NONE', #372, #449, #985 ) ;
#834 = ORIENTED_EDGE ( 'NONE', *, *, #431, .F. ) ;
#835 = EDGE_CURVE ( 'NONE', #1014, #1009, #568, .T. ) ;
#836 = CIRCLE ( 'NONE', #1027, 2.049999999999999822 ) ;
#837 = MECHANICAL_CONTEXT ( 'NONE', #705, 'mechanical' ) ;
#838 = DIRECTION ( 'NONE',  ( 1.000000000000000000, 0.000000000000000000, 0.000000000000000000 ) ) ;
#839 = EDGE_LOOP ( 'NONE', ( #761, #1105, #849, #503 ) ) ;
#840 = CIRCLE ( 'NONE', #35, 1.149999999999999911 ) ;
#841 = CARTESIAN_POINT ( 'NONE',  ( 4.000000000000000000, 4.898587196589412829E-16, 0.000000000000000000 ) ) ;
#842 = ORIENTED_EDGE ( 'NONE', *, *, #33, .T. ) ;
#843 = ORIENTED_EDGE ( 'NONE', *, *, #120, .T. ) ;
#844 = AXIS2_PLACEMENT_3D ( 'NONE', #916, #215, #935 ) ;
#845 = DIRECTION ( 'NONE',  ( 1.000000000000000000, 0.000000000000000000, 0.000000000000000000 ) ) ;
#846 = PLANE ( 'NONE',  #741 ) ;
#847 = VERTEX_POINT ( 'NONE', #996 ) ;
#848 = CARTESIAN_POINT ( 'NONE',  ( 2.049999999999999822, -8.150000000000000355, 0.000000000000000000 ) ) ;
#849 = ORIENTED_EDGE ( 'NONE', *, *, #1095, .F. ) ;
#850 = DIRECTION ( 'NONE',  ( -1.000000000000000000, 0.000000000000000000, -0.000000000000000000 ) ) ;
#851 = CARTESIAN_POINT ( 'NONE',  ( 2.049999999999999822, 8.150000000000000355, -1.649999999999999911 ) ) ;
#852 = ORIENTED_EDGE ( 'NONE', *, *, #190, .T. ) ;
#853 = CARTESIAN_POINT ( 'NONE',  ( 2.049999999999999822, 3.434748899119119070, 0.000000000000000000 ) ) ;
#854 = ORIENTED_EDGE ( 'NONE', *, *, #835, .F. ) ;
#855 = CIRCLE ( 'NONE', #993, 2.049999999999999822 ) ;
#856 = CARTESIAN_POINT ( 'NONE',  ( 2.049999999999999822, -8.150000000000000355, -1.649999999999999911 ) ) ;
#857 = CARTESIAN_POINT ( 'NONE',  ( 8.150000000000000355, 2.049999999999999822, -1.649999999999999911 ) ) ;
#858 = CARTESIAN_POINT ( 'NONE',  ( 5.849999999999999645, 7.000000000000000000, 4.000000000000003553 ) ) ;
#859 = CYLINDRICAL_SURFACE ( 'NONE', #257, 1.150000000000000799 ) ;
#860 = ORIENTED_EDGE ( 'NONE', *, *, #784, .F. ) ;
#861 = CARTESIAN_POINT ( 'NONE',  ( -2.049999999999999822, -8.150000000000000355, 0.000000000000000000 ) ) ;
#862 = EDGE_CURVE ( 'NONE', #202, #938, #58, .T. ) ;
#863 = CARTESIAN_POINT ( 'NONE',  ( 3.434748899119119070, -2.049999999999999822, 0.000000000000000000 ) ) ;
#864 = CARTESIAN_POINT ( 'NONE',  ( -4.000000000000000000, 0.000000000000000000, 4.000000000000000000 ) ) ;
#865 = ORIENTED_EDGE ( 'NONE', *, *, #597, .T. ) ;
#866 = CARTESIAN_POINT ( 'NONE',  ( -4.000000000000000000, 0.000000000000000000, 4.000000000000000000 ) ) ;
#867 = FACE_OUTER_BOUND ( 'NONE', #459, .T. ) ;
#868 = ORIENTED_EDGE ( 'NONE', *, *, #703, .F. ) ;
#869 = VECTOR ( 'NONE', #132, 1000.000000000000000 ) ;
#870 = CARTESIAN_POINT ( 'NONE',  ( -8.150000000000000355, 0.000000000000000000, 0.000000000000000000 ) ) ;
#871 = ORIENTED_EDGE ( 'NONE', *, *, #875, .F. ) ;
#872 = CC_DESIGN_APPROVAL ( #652, ( #792 ) ) ;
#873 = AXIS2_PLACEMENT_3D ( 'NONE', #596, #1020, #838 ) ;
#874 = LINE ( 'NONE', #86, #642 ) ;
#875 = EDGE_CURVE ( 'NONE', #922, #136, #167, .T. ) ;
#876 = DIRECTION ( 'NONE',  ( 1.000000000000000000, 0.000000000000000000, 0.000000000000000000 ) ) ;
#877 = ORIENTED_EDGE ( 'NONE', *, *, #875, .T. ) ;
#878 = VECTOR ( 'NONE', #1074, 1000.000000000000000 ) ;
#879 = CARTESIAN_POINT ( 'NONE',  ( -8.150000000000000355, -7.000000000000000000, 4.000000000000003553 ) ) ;
#880 = FACE_OUTER_BOUND ( 'NONE', #976, .T. ) ;
#881 = FACE_OUTER_BOUND ( 'NONE', #1101, .T. ) ;
#882 = CIRCLE ( 'NONE', #692, 2.049999999999999822 ) ;
#883 = EDGE_LOOP ( 'NONE', ( #626, #655, #1078, #56 ) ) ;
#884 = FACE_BOUND ( 'NONE', #222, .T. ) ;
#885 = CARTESIAN_POINT ( 'NONE',  ( 8.150000000000000355, -7.000000000000000000, 4.000000000000003553 ) ) ;
#886 = DIRECTION ( 'NONE',  ( -1.000000000000000000, 0.000000000000000000, 0.000000000000000000 ) ) ;
#887 = LINE ( 'NONE', #446, #673 ) ;
#888 = VERTEX_POINT ( 'NONE', #493 ) ;
#889 = DIRECTION ( 'NONE',  ( 0.000000000000000000, 0.000000000000000000, -1.000000000000000000 ) ) ;
#890 = CC_DESIGN_APPROVAL ( #347, ( #1010 ) ) ;
#891 = APPLICATION_PROTOCOL_DEFINITION ( 'international standard', 'config_control_design', 1994, #237 ) ;
#892 = CARTESIAN_POINT ( 'NONE',  ( 8.150000000000000355, 0.000000000000000000, 0.000000000000000000 ) ) ;
#893 = CARTESIAN_POINT ( 'NONE',  ( -8.150000000000000355, 2.049999999999999822, -1.649999999999999911 ) ) ;
#894 = CIRCLE ( 'NONE', #141, 4.000000000000000000 ) ;
#895 = ORIENTED_EDGE ( 'NONE', *, *, #445, .T. ) ;
#896 = ORIENTED_EDGE ( 'NONE', *, *, #156, .T. ) ;
#897 = DIRECTION ( 'NONE',  ( -1.000000000000000000, 0.000000000000000000, 0.000000000000000000 ) ) ;
#898 = EDGE_CURVE ( 'NONE', #1009, #517, #1048, .T. ) ;
#899 = PERSON_AND_ORGANIZATION_ROLE ( 'creator' ) ;
#900 = DIRECTION ( 'NONE',  ( 0.000000000000000000, 0.000000000000000000, 1.000000000000000000 ) ) ;
#901 = FACE_OUTER_BOUND ( 'NONE', #816, .T. ) ;
#902 = ORIENTED_EDGE ( 'NONE', *, *, #451, .F. ) ;
#903 = DIRECTION ( 'NONE',  ( -0.000000000000000000, -0.000000000000000000, -1.000000000000000000 ) ) ;
#904 = CIRCLE ( 'NONE', #133, 13.00000000000000000 ) ;
#905 = ORIENTED_EDGE ( 'NONE', *, *, #504, .T. ) ;
#906 = ORIENTED_EDGE ( 'NONE', *, *, #523, .T. ) ;
#907 = EDGE_CURVE ( 'NONE', #131, #580, #488, .T. ) ;
#908 = DATE_AND_TIME ( #209, #472 ) ;
#909 = CARTESIAN_POINT ( 'NONE',  ( 0.000000000000000000, 0.000000000000000000, 4.000000000000000000 ) ) ;
#910 = ADVANCED_FACE ( 'NONE', ( #751 ), #1087, .T. ) ;
#911 = ORIENTED_EDGE ( 'NONE', *, *, #788, .F. ) ;
#912 = CC_DESIGN_PERSON_AND_ORGANIZATION_ASSIGNMENT ( #738, #899, ( #1010 ) ) ;
#913 = CIRCLE ( 'NONE', #249, 1.149999999999999911 ) ;
#914 = DIRECTION ( 'NONE',  ( -0.000000000000000000, -0.000000000000000000, -1.000000000000000000 ) ) ;
#915 = PERSON_AND_ORGANIZATION ( #966, #100 ) ;
#916 = CARTESIAN_POINT ( 'NONE',  ( 7.000000000000000000, 7.000000000000000000, 4.000000000000003553 ) ) ;
#917 = ORIENTED_EDGE ( 'NONE', *, *, #89, .F. ) ;
#918 = AXIS2_PLACEMENT_3D ( 'NONE', #189, #205, #105 ) ;
#919 = CARTESIAN_POINT ( 'NONE',  ( -8.150000000000000355, -2.049999999999999822, -1.649999999999999911 ) ) ;
#920 = LINE ( 'NONE', #675, #173 ) ;
#921 = EDGE_CURVE ( 'NONE', #641, #231, #855, .T. ) ;
#922 = VERTEX_POINT ( 'NONE', #299 ) ;
#923 = AXIS2_PLACEMENT_3D ( 'NONE', #712, #1049, #624 ) ;
#924 = ORIENTED_EDGE ( 'NONE', *, *, #1015, .F. ) ;
#925 = PRODUCT_RELATED_PRODUCT_CATEGORY ( 'detail', '', ( #724 ) ) ;
#926 = CARTESIAN_POINT ( 'NONE',  ( -8.150000000000000355, 0.000000000000000000, 0.000000000000000000 ) ) ;
#927 = PLANE ( 'NONE',  #930 ) ;
#928 = VERTEX_POINT ( 'NONE', #214 ) ;
#929 = ORIENTED_EDGE ( 'NONE', *, *, #703, .T. ) ;
#930 = AXIS2_PLACEMENT_3D ( 'NONE', #1084, #149, #670 ) ;
#931 = CARTESIAN_POINT ( 'NONE',  ( -8.150000000000000355, 0.000000000000000000, -1.649999999999999911 ) ) ;
#932 = LINE ( 'NONE', #489, #589 ) ;
#933 = ORIENTED_EDGE ( 'NONE', *, *, #579, .T. ) ;
#934 = ORIENTED_EDGE ( 'NONE', *, *, #862, .F. ) ;
#935 = DIRECTION ( 'NONE',  ( -1.000000000000000000, 0.000000000000000000, 0.000000000000000000 ) ) ;
#936 = ORIENTED_EDGE ( 'NONE', *, *, #811, .F. ) ;
#937 = DIRECTION ( 'NONE',  ( 1.000000000000000000, 0.000000000000000000, 0.000000000000000000 ) ) ;
#938 = VERTEX_POINT ( 'NONE', #402 ) ;
#939 = ADVANCED_FACE ( 'NONE', ( #1011 ), #225, .T. ) ;
#940 = ADVANCED_BREP_SHAPE_REPRESENTATION ( 'FIT-002_SG90_horn_pocket_clearance_0p05', ( #719, #737 ), #82 ) ;
#941 = CARTESIAN_POINT ( 'NONE',  ( -2.049999999999999822, -8.150000000000000355, 0.000000000000000000 ) ) ;
#942 = LINE ( 'NONE', #772, #312 ) ;
#943 = EDGE_CURVE ( 'NONE', #361, #770, #840, .T. ) ;
#944 = ORIENTED_EDGE ( 'NONE', *, *, #507, .T. ) ;
#945 = CARTESIAN_POINT ( 'NONE',  ( 3.434748899119119070, -2.049999999999999822, -1.649999999999999911 ) ) ;
#946 = LINE ( 'NONE', #444, #236 ) ;
#947 = ORIENTED_EDGE ( 'NONE', *, *, #163, .T. ) ;
#948 = DIRECTION ( 'NONE',  ( 0.000000000000000000, 0.000000000000000000, -1.000000000000000000 ) ) ;
#949 = DIRECTION ( 'NONE',  ( 0.000000000000000000, 0.000000000000000000, -1.000000000000000000 ) ) ;
#950 = VERTEX_POINT ( 'NONE', #1083 ) ;
#951 = CARTESIAN_POINT ( 'NONE',  ( 0.000000000000000000, 0.000000000000000000, 0.000000000000000000 ) ) ;
#952 = CIRCLE ( 'NONE', #1067, 2.049999999999999822 ) ;
#953 = CC_DESIGN_DATE_AND_TIME_ASSIGNMENT ( #813, #116, ( #1010 ) ) ;
#954 = DIRECTION ( 'NONE',  ( 1.000000000000000000, 0.000000000000000000, 0.000000000000000000 ) ) ;
#955 = FACE_OUTER_BOUND ( 'NONE', #290, .T. ) ;
#956 = DIRECTION ( 'NONE',  ( -0.000000000000000000, -1.000000000000000000, -0.000000000000000000 ) ) ;
#957 = VERTEX_POINT ( 'NONE', #293 ) ;
#958 = APPROVAL_PERSON_ORGANIZATION ( #468, #718, #23 ) ;
#959 = FACE_BOUND ( 'NONE', #527, .T. ) ;
#960 = CIRCLE ( 'NONE', #981, 1.149999999999999911 ) ;
#961 = CARTESIAN_POINT ( 'NONE',  ( -7.000000000000000000, -7.000000000000000000, -1.650000000000000355 ) ) ;
#962 = LINE ( 'NONE', #969, #573 ) ;
#963 = ORIENTED_EDGE ( 'NONE', *, *, #862, .T. ) ;
#964 = CARTESIAN_POINT ( 'NONE',  ( 0.000000000000000000, 8.150000000000000355, 0.000000000000000000 ) ) ;
#965 = CARTESIAN_POINT ( 'NONE',  ( 0.000000000000000000, -8.150000000000000355, 0.000000000000000000 ) ) ;
#966 = PERSON ( 'UNSPECIFIED', 'UNSPECIFIED', 'UNSPECIFIED', ('UNSPECIFIED'), ('UNSPECIFIED'), ('UNSPECIFIED') ) ;
#967 = AXIS2_PLACEMENT_3D ( 'NONE', #270, #731, #285 ) ;
#968 = FACE_OUTER_BOUND ( 'NONE', #825, .T. ) ;
#969 = CARTESIAN_POINT ( 'NONE',  ( 2.049999999999999822, 3.434748899119119070, 0.000000000000000000 ) ) ;
#970 = VERTEX_POINT ( 'NONE', #945 ) ;
#971 = DIRECTION ( 'NONE',  ( 1.000000000000000000, 0.000000000000000000, 0.000000000000000000 ) ) ;
#972 = ADVANCED_FACE ( 'NONE', ( #688 ), #159, .T. ) ;
#973 = CARTESIAN_POINT ( 'NONE',  ( -10.20000000000000107, 0.000000000000000000, 0.000000000000000000 ) ) ;
#974 = DIRECTION ( 'NONE',  ( 0.000000000000000000, 0.000000000000000000, 1.000000000000000000 ) ) ;
#975 = ORIENTED_EDGE ( 'NONE', *, *, #830, .T. ) ;
#976 = EDGE_LOOP ( 'NONE', ( #148, #865, #760, #17 ) ) ;
#977 = LINE ( 'NONE', #623, #1017 ) ;
#978 = CARTESIAN_POINT ( 'NONE',  ( 2.049999999999999822, -8.150000000000000355, 0.000000000000000000 ) ) ;
#979 = DIRECTION ( 'NONE',  ( 1.000000000000000000, 0.000000000000000000, 0.000000000000000000 ) ) ;
#980 = DIRECTION ( 'NONE',  ( 0.000000000000000000, 0.000000000000000000, -1.000000000000000000 ) ) ;
#981 = AXIS2_PLACEMENT_3D ( 'NONE', #349, #620, #91 ) ;
#982 = ORIENTED_EDGE ( 'NONE', *, *, #143, .T. ) ;
#983 = EDGE_LOOP ( 'NONE', ( #458, #661, #339, #407 ) ) ;
#984 = COORDINATED_UNIVERSAL_TIME_OFFSET ( 6, 0, .BEHIND. ) ;
#985 = DIRECTION ( 'NONE',  ( -1.000000000000000000, 0.000000000000000000, 0.000000000000000000 ) ) ;
#986 = ORIENTED_EDGE ( 'NONE', *, *, #445, .F. ) ;
#987 = ORIENTED_EDGE ( 'NONE', *, *, #47, .F. ) ;
#988 = EDGE_CURVE ( 'NONE', #957, #57, #155, .T. ) ;
#989 = DIRECTION ( 'NONE',  ( 1.000000000000000000, 0.000000000000000000, 0.000000000000000000 ) ) ;
#990 = EDGE_CURVE ( 'NONE', #634, #350, #681, .T. ) ;
#991 = PERSON_AND_ORGANIZATION ( #966, #100 ) ;
#992 = CARTESIAN_POINT ( 'NONE',  ( 0.000000000000000000, 0.000000000000000000, -1.649999999999999911 ) ) ;
#993 = AXIS2_PLACEMENT_3D ( 'NONE', #926, #669, #845 ) ;
#994 = ORIENTED_EDGE ( 'NONE', *, *, #632, .T. ) ;
#995 = ORIENTED_EDGE ( 'NONE', *, *, #176, .T. ) ;
#996 = CARTESIAN_POINT ( 'NONE',  ( -8.150000000000000355, -2.049999999999999822, 0.000000000000000000 ) ) ;
#997 = AXIS2_PLACEMENT_3D ( 'NONE', #861, #483, #75 ) ;
#998 = CARTESIAN_POINT ( 'NONE',  ( -3.434748899119119070, -2.049999999999999822, -1.649999999999999911 ) ) ;
#999 = EDGE_LOOP ( 'NONE', ( #26, #206, #145, #248 ) ) ;
#1000 = ORIENTED_EDGE ( 'NONE', *, *, #345, .F. ) ;
#1001 = ADVANCED_FACE ( 'NONE', ( #812 ), #1052, .F. ) ;
#1002 = FACE_OUTER_BOUND ( 'NONE', #1094, .T. ) ;
#1003 = EDGE_LOOP ( 'NONE', ( #69, #994, #1021, #443 ) ) ;
#1004 = ORIENTED_EDGE ( 'NONE', *, *, #321, .F. ) ;
#1005 = CARTESIAN_POINT ( 'NONE',  ( -8.150000000000000355, 2.049999999999999822, 0.000000000000000000 ) ) ;
#1006 = DIRECTION ( 'NONE',  ( 0.000000000000000000, 0.000000000000000000, -1.000000000000000000 ) ) ;
#1007 = EDGE_LOOP ( 'NONE', ( #560, #140 ) ) ;
#1008 = VECTOR ( 'NONE', #1092, 1000.000000000000000 ) ;
#1009 = VERTEX_POINT ( 'NONE', #543 ) ;
#1010 = PRODUCT_DEFINITION ( 'UNKNOWN', '', #317, #785 ) ;
#1011 = FACE_OUTER_BOUND ( 'NONE', #983, .T. ) ;
#1012 = DIRECTION ( 'NONE',  ( 0.000000000000000000, 0.000000000000000000, 1.000000000000000000 ) ) ;
#1013 = AXIS2_PLACEMENT_3D ( 'NONE', #965, #96, #180 ) ;
#1014 = VERTEX_POINT ( 'NONE', #885 ) ;
#1015 = EDGE_CURVE ( 'NONE', #438, #202, #1035, .T. ) ;
#1016 = ORIENTED_EDGE ( 'NONE', *, *, #507, .F. ) ;
#1017 = VECTOR ( 'NONE', #453, 1000.000000000000000 ) ;
#1018 = EDGE_CURVE ( 'NONE', #484, #735, #353, .T. ) ;
#1019 = APPROVAL_STATUS ( 'not_yet_approved' ) ;
#1020 = DIRECTION ( 'NONE',  ( 0.000000000000000000, 0.000000000000000000, 1.000000000000000000 ) ) ;
#1021 = ORIENTED_EDGE ( 'NONE', *, *, #85, .F. ) ;
#1022 = LINE ( 'NONE', #152, #566 ) ;
#1023 = ORIENTED_EDGE ( 'NONE', *, *, #811, .T. ) ;
#1024 = EDGE_CURVE ( 'NONE', #484, #607, #341, .T. ) ;
#1025 = VECTOR ( 'NONE', #903, 1000.000000000000000 ) ;
#1026 = EDGE_CURVE ( 'NONE', #261, #888, #550, .T. ) ;
#1027 = AXIS2_PLACEMENT_3D ( 'NONE', #46, #794, #253 ) ;
#1028 = APPROVAL_ROLE ( '' ) ;
#1029 = PLANE ( 'NONE',  #682 ) ;
#1030 = ADVANCED_FACE ( 'NONE', ( #275 ), #643, .T. ) ;
#1031 = DIRECTION ( 'NONE',  ( 1.000000000000000000, 0.000000000000000000, 0.000000000000000000 ) ) ;
#1032 = CARTESIAN_POINT ( 'NONE',  ( 0.000000000000000000, 0.000000000000000000, 4.000000000000000000 ) ) ;
#1033 = ORIENTED_EDGE ( 'NONE', *, *, #736, .T. ) ;
#1034 = LINE ( 'NONE', #609, #582 ) ;
#1035 = CIRCLE ( 'NONE', #138, 4.000000000000000000 ) ;
#1036 = FACE_BOUND ( 'NONE', #447, .T. ) ;
#1037 = EDGE_LOOP ( 'NONE', ( #414, #21, #1082, #831 ) ) ;
#1038 = AXIS2_PLACEMENT_3D ( 'NONE', #410, #301, #399 ) ;
#1039 = ADVANCED_FACE ( 'NONE', ( #708 ), #184, .F. ) ;
#1040 = CYLINDRICAL_SURFACE ( 'NONE', #276, 4.000000000000000000 ) ;
#1041 = DIRECTION ( 'NONE',  ( 1.000000000000000000, 0.000000000000000000, 0.000000000000000000 ) ) ;
#1042 = ORIENTED_EDGE ( 'NONE', *, *, #80, .T. ) ;
#1043 = CC_DESIGN_PERSON_AND_ORGANIZATION_ASSIGNMENT ( #476, #828, ( #317 ) ) ;
#1044 = DIRECTION ( 'NONE',  ( -1.000000000000000000, 0.000000000000000000, 0.000000000000000000 ) ) ;
#1045 = CARTESIAN_POINT ( 'NONE',  ( -7.000000000000000000, 7.000000000000000000, 4.000000000000003553 ) ) ;
#1046 = CARTESIAN_POINT ( 'NONE',  ( 13.00000000000000000, 1.592040838891559095E-15, 4.000000000000000000 ) ) ;
#1047 = ORIENTED_EDGE ( 'NONE', *, *, #943, .F. ) ;
#1048 = CIRCLE ( 'NONE', #115, 1.150000000000000799 ) ;
#1049 = DIRECTION ( 'NONE',  ( 0.000000000000000000, 0.000000000000000000, 1.000000000000000000 ) ) ;
#1050 = CARTESIAN_POINT ( 'NONE',  ( 2.049999999999999822, 8.150000000000000355, 0.000000000000000000 ) ) ;
#1051 = ORIENTED_EDGE ( 'NONE', *, *, #1106, .F. ) ;
#1052 = CYLINDRICAL_SURFACE ( 'NONE', #1013, 2.049999999999999822 ) ;
#1053 = VECTOR ( 'NONE', #1093, 1000.000000000000000 ) ;
#1054 = LINE ( 'NONE', #866, #135 ) ;
#1055 = DIRECTION ( 'NONE',  ( -1.000000000000000000, 0.000000000000000000, -0.000000000000000000 ) ) ;
#1056 = CARTESIAN_POINT ( 'NONE',  ( 0.000000000000000000, 0.000000000000000000, 4.000000000000000000 ) ) ;
#1057 = ORIENTED_EDGE ( 'NONE', *, *, #494, .F. ) ;
#1058 = ADVANCED_FACE ( 'NONE', ( #955 ), #530, .T. ) ;
#1059 = FACE_BOUND ( 'NONE', #1007, .T. ) ;
#1060 = DIRECTION ( 'NONE',  ( 1.000000000000000000, 0.000000000000000000, 0.000000000000000000 ) ) ;
#1061 = AXIS2_PLACEMENT_3D ( 'NONE', #814, #183, #1062 ) ;
#1062 = DIRECTION ( 'NONE',  ( 1.000000000000000000, 0.000000000000000000, 0.000000000000000000 ) ) ;
#1063 = DIRECTION ( 'NONE',  ( 0.000000000000000000, 0.000000000000000000, 1.000000000000000000 ) ) ;
#1064 = EDGE_LOOP ( 'NONE', ( #911, #1096, #266, #67 ) ) ;
#1065 = VERTEX_POINT ( 'NONE', #536 ) ;
#1066 = DIRECTION ( 'NONE',  ( 1.000000000000000000, 0.000000000000000000, 0.000000000000000000 ) ) ;
#1067 = AXIS2_PLACEMENT_3D ( 'NONE', #726, #974, #876 ) ;
#1068 = CIRCLE ( 'NONE', #923, 1.150000000000000799 ) ;
#1069 = DIRECTION ( 'NONE',  ( -0.000000000000000000, 1.000000000000000000, 0.000000000000000000 ) ) ;
#1070 = CARTESIAN_POINT ( 'NONE',  ( -8.150000000000000355, 2.049999999999999822, 0.000000000000000000 ) ) ;
#1071 = ORIENTED_EDGE ( 'NONE', *, *, #898, .F. ) ;
#1072 = CC_DESIGN_APPROVAL ( #718, ( #317 ) ) ;
#1073 = COORDINATED_UNIVERSAL_TIME_OFFSET ( 6, 0, .BEHIND. ) ;
#1074 = DIRECTION ( 'NONE',  ( -0.000000000000000000, -0.000000000000000000, 1.000000000000000000 ) ) ;
#1075 = ADVANCED_FACE ( 'NONE', ( #880 ), #240, .T. ) ;
#1076 = VECTOR ( 'NONE', #210, 1000.000000000000000 ) ;
#1077 = ORIENTED_EDGE ( 'NONE', *, *, #258, .T. ) ;
#1078 = ORIENTED_EDGE ( 'NONE', *, *, #750, .T. ) ;
#1079 =( NAMED_UNIT ( * ) PLANE_ANGLE_UNIT ( ) SI_UNIT ( $, .RADIAN. ) );
#1080 = DIRECTION ( 'NONE',  ( -1.000000000000000000, -0.000000000000000000, -0.000000000000000000 ) ) ;
#1081 = EDGE_LOOP ( 'NONE', ( #310, #83, #42, #327, #412, #11 ) ) ;
#1082 = ORIENTED_EDGE ( 'NONE', *, *, #907, .T. ) ;
#1083 = CARTESIAN_POINT ( 'NONE',  ( 2.049999999999999822, 3.434748899119119070, -1.649999999999999911 ) ) ;
#1084 = CARTESIAN_POINT ( 'NONE',  ( -8.150000000000000355, 2.049999999999999822, 0.000000000000000000 ) ) ;
#1085 = ORIENTED_EDGE ( 'NONE', *, *, #594, .T. ) ;
#1086 = ADVANCED_FACE ( 'NONE', ( #315 ), #333, .F. ) ;
#1087 = CYLINDRICAL_SURFACE ( 'NONE', #351, 13.00000000000000000 ) ;
#1088 = PERSON_AND_ORGANIZATION_ROLE ( 'classification_officer' ) ;
#1089 = CARTESIAN_POINT ( 'NONE',  ( -8.150000000000000355, -7.000000000000000000, -1.650000000000000355 ) ) ;
#1090 = ORIENTED_EDGE ( 'NONE', *, *, #89, .T. ) ;
#1091 = EDGE_LOOP ( 'NONE', ( #854, #498, #944, #905 ) ) ;
#1092 = DIRECTION ( 'NONE',  ( 1.000000000000000000, 0.000000000000000000, 0.000000000000000000 ) ) ;
#1093 = DIRECTION ( 'NONE',  ( 1.000000000000000000, 0.000000000000000000, 0.000000000000000000 ) ) ;
#1094 = EDGE_LOOP ( 'NONE', ( #302, #585, #213, #107 ) ) ;
#1095 = EDGE_CURVE ( 'NONE', #817, #438, #62, .T. ) ;
#1096 = ORIENTED_EDGE ( 'NONE', *, *, #295, .T. ) ;
#1097 = DIRECTION ( 'NONE',  ( -1.000000000000000000, -0.000000000000000000, -0.000000000000000000 ) ) ;
#1098 = FACE_OUTER_BOUND ( 'NONE', #218, .T. ) ;
#1099 = LINE ( 'NONE', #677, #466 ) ;
#1100 = VECTOR ( 'NONE', #1097, 1000.000000000000000 ) ;
#1101 = EDGE_LOOP ( 'NONE', ( #766, #742, #150, #672, #740, #834, #99, #934, #924, #256, #796, #374 ) ) ;
#1102 = CARTESIAN_POINT ( 'NONE',  ( 0.000000000000000000, 0.000000000000000000, -1.649999999999999911 ) ) ;
#1103 = EDGE_CURVE ( 'NONE', #735, #928, #696, .T. ) ;
#1104 = LINE ( 'NONE', #51, #734 ) ;
#1105 = ORIENTED_EDGE ( 'NONE', *, *, #511, .T. ) ;
#1106 = EDGE_CURVE ( 'NONE', #286, #166, #448, .T. ) ;
#1107 = VECTOR ( 'NONE', #956, 1000.000000000000000 ) ;
#1108 = CC_DESIGN_PERSON_AND_ORGANIZATION_ASSIGNMENT ( #204, #386, ( #724 ) ) ;
#1109 = COORDINATED_UNIVERSAL_TIME_OFFSET ( 6, 0, .BEHIND. ) ;
#1110 = CYLINDRICAL_SURFACE ( 'NONE', #52, 2.049999999999999822 ) ;
#1111 = DIRECTION ( 'NONE',  ( -0.000000000000000000, -0.000000000000000000, 1.000000000000000000 ) ) ;
#1112 = CARTESIAN_POINT ( 'NONE',  ( -7.000000000000000000, -7.000000000000000000, 4.000000000000003553 ) ) ;
#1113 = DIRECTION ( 'NONE',  ( 1.000000000000000000, 0.000000000000000000, 0.000000000000000000 ) ) ;
#1114 = ORIENTED_EDGE ( 'NONE', *, *, #597, .F. ) ;
#1115 = CIRCLE ( 'NONE', #539, 13.00000000000000000 ) ;
#1116 = UNCERTAINTY_MEASURE_WITH_UNIT (LENGTH_MEASURE( 1.000000000000000082E-05 ), #365, 'distance_accuracy_value', 'NONE');
#1117 = DIRECTION ( 'NONE',  ( 0.000000000000000000, 1.000000000000000000, 0.000000000000000000 ) ) ;
#1118 = CARTESIAN_POINT ( 'NONE',  ( -5.850000000000000533, -7.000000000000000000, -1.650000000000000355 ) ) ;
#1119 = FACE_BOUND ( 'NONE', #764, .T. ) ;
#1120 = VERTEX_POINT ( 'NONE', #657 ) ;
#1121 = AXIS2_PLACEMENT_3D ( 'NONE', #54, #914, #474 ) ;
#1122 = VECTOR ( 'NONE', #525, 1000.000000000000000 ) ;
#1123 = ADVANCED_FACE ( 'NONE', ( #188 ), #284, .T. ) ;
#1124 = DIRECTION ( 'NONE',  ( 0.000000000000000000, 0.000000000000000000, 1.000000000000000000 ) ) ;
ENDSEC;
END-ISO-10303-21;
