ISO-10303-21;
HEADER;
FILE_DESCRIPTION (( 'STEP AP203' ),
    '1' );
FILE_NAME ('HW-N_M4_nyloc_ENVELOPE.step',
    '2026-09-12T20:01:53',
    ( '' ),
    ( '' ),
    'SwSTEP 2.0',
    'SolidWorks 2026',
    '' );
FILE_SCHEMA (( 'CONFIG_CONTROL_DESIGN' ));
ENDSEC;

DATA;
#1 = APPROVAL_ROLE ( '' ) ;
#2 = DIRECTION ( 'NONE',  ( -1.000000000000000000, 0.000000000000000000, 0.000000000000000000 ) ) ;
#3 = COORDINATED_UNIVERSAL_TIME_OFFSET ( 6, 0, .BEHIND. ) ;
#4 = LINE ( 'NONE', #236, #323 ) ;
#5 = APPROVAL ( #22, 'UNSPECIFIED' ) ;
#6 = CARTESIAN_POINT ( 'NONE',  ( -2.020725942163692057, -3.499999999999999556, 5.000000000000000000 ) ) ;
#7 = EDGE_CURVE ( 'NONE', #167, #226, #124, .T. ) ;
#8 = CARTESIAN_POINT ( 'NONE',  ( 2.000000000000000000, 2.449293598294706414E-16, 5.000000000000000000 ) ) ;
#9 = DIRECTION ( 'NONE',  ( -0.5000000000000001110, -0.8660254037844385966, 0.000000000000000000 ) ) ;
#10 = VECTOR ( 'NONE', #83, 1000.000000000000000 ) ;
#11 = CARTESIAN_POINT ( 'NONE',  ( -2.020725942163689393, 3.500000000000000444, 5.000000000000000000 ) ) ;
#12 = APPROVAL ( #99, 'UNSPECIFIED' ) ;
#13 = LINE ( 'NONE', #133, #320 ) ;
#14 = LINE ( 'NONE', #246, #169 ) ;
#15 = CIRCLE ( 'NONE', #283, 2.000000000000000000 ) ;
#16 = ORIENTED_EDGE ( 'NONE', *, *, #97, .F. ) ;
#17 = CC_DESIGN_PERSON_AND_ORGANIZATION_ASSIGNMENT ( #29, #206, ( #147 ) ) ;
#18 = CARTESIAN_POINT ( 'NONE',  ( 2.020725942163690725, -3.500000000000000000, 5.000000000000000000 ) ) ;
#19 = CARTESIAN_POINT ( 'NONE',  ( -4.041451884327380562, 4.949351114049565438E-16, 5.000000000000000000 ) ) ;
#20 = ADVANCED_FACE ( 'NONE', ( #67, #98 ), #117, .F. ) ;
#21 = VERTEX_POINT ( 'NONE', #8 ) ;
#22 = APPROVAL_STATUS ( 'not_yet_approved' ) ;
#23 = ORIENTED_EDGE ( 'NONE', *, *, #97, .T. ) ;
#24 = CC_DESIGN_SECURITY_CLASSIFICATION ( #94, ( #369 ) ) ;
#25 = DIRECTION ( 'NONE',  ( -0.000000000000000000, -0.000000000000000000, -1.000000000000000000 ) ) ;
#26 = DIRECTION ( 'NONE',  ( 0.000000000000000000, -0.000000000000000000, 1.000000000000000000 ) ) ;
#27 = CC_DESIGN_DATE_AND_TIME_ASSIGNMENT ( #185, #292, ( #153 ) ) ;
#28 = ORIENTED_EDGE ( 'NONE', *, *, #367, .T. ) ;
#29 = PERSON_AND_ORGANIZATION ( #126, #63 ) ;
#30 = AXIS2_PLACEMENT_3D ( 'NONE', #88, #284, #231 ) ;
#31 = PERSON_AND_ORGANIZATION_ROLE ( 'classification_officer' ) ;
#32 = PERSON_AND_ORGANIZATION_ROLE ( 'creator' ) ;
#33 = EDGE_CURVE ( 'NONE', #165, #335, #260, .T. ) ;
#34 = CALENDAR_DATE ( 2026, 12, 9 ) ;
#35 = CARTESIAN_POINT ( 'NONE',  ( 2.020725942163690725, -3.500000000000000000, 5.000000000000000000 ) ) ;
#36 = LINE ( 'NONE', #314, #214 ) ;
#37 = DIRECTION ( 'NONE',  ( 1.000000000000000000, 0.000000000000000000, -0.000000000000000000 ) ) ;
#38 = DIRECTION ( 'NONE',  ( -0.000000000000000000, -0.000000000000000000, -1.000000000000000000 ) ) ;
#39 = CARTESIAN_POINT ( 'NONE',  ( -4.041451884327380562, 4.949351114049565438E-16, 5.000000000000000000 ) ) ;
#40 = AXIS2_PLACEMENT_3D ( 'NONE', #18, #358, #74 ) ;
#41 = CARTESIAN_POINT ( 'NONE',  ( 2.000000000000000000, 2.449293598294706414E-16, 5.000000000000000000 ) ) ;
#42 = CARTESIAN_POINT ( 'NONE',  ( 4.041451884327380562, 0.000000000000000000, 5.000000000000000000 ) ) ;
#43 = VERTEX_POINT ( 'NONE', #253 ) ;
#44 = ADVANCED_FACE ( 'NONE', ( #372 ), #122, .F. ) ;
#45 = DIRECTION ( 'NONE',  ( 1.000000000000000000, 0.000000000000000000, -0.000000000000000000 ) ) ;
#46 = VECTOR ( 'NONE', #152, 1000.000000000000000 ) ;
#47 = VECTOR ( 'NONE', #25, 1000.000000000000000 ) ;
#48 = ORIENTED_EDGE ( 'NONE', *, *, #49, .T. ) ;
#49 = EDGE_CURVE ( 'NONE', #335, #249, #354, .T. ) ;
#50 = LINE ( 'NONE', #172, #257 ) ;
#51 = ORIENTED_EDGE ( 'NONE', *, *, #316, .F. ) ;
#52 = ORIENTED_EDGE ( 'NONE', *, *, #277, .T. ) ;
#53 =( LENGTH_UNIT ( ) NAMED_UNIT ( * ) SI_UNIT ( .MILLI., .METRE. ) );
#54 = EDGE_LOOP ( 'NONE', ( #275, #307, #78, #134 ) ) ;
#55 = LOCAL_TIME ( 15, 1, 53.00000000000000000, #294 ) ;
#56 = CARTESIAN_POINT ( 'NONE',  ( -4.041451884327380562, 4.949351114049565438E-16, 0.000000000000000000 ) ) ;
#57 = CYLINDRICAL_SURFACE ( 'NONE', #374, 2.000000000000000000 ) ;
#58 = APPROVAL_ROLE ( '' ) ;
#59 = EDGE_CURVE ( 'NONE', #303, #341, #36, .T. ) ;
#60 = UNCERTAINTY_MEASURE_WITH_UNIT (LENGTH_MEASURE( 1.000000000000000082E-05 ), #53, 'distance_accuracy_value', 'NONE');
#61 = MANIFOLD_SOLID_BREP ( 'Nut_thread_envelope_height_5', #87 ) ;
#62 = CALENDAR_DATE ( 2026, 12, 9 ) ;
#63 = ORGANIZATION ( 'UNSPECIFIED', 'UNSPECIFIED', '' ) ;
#64 = ADVANCED_FACE ( 'NONE', ( #265 ), #57, .F. ) ;
#65 = PERSON_AND_ORGANIZATION ( #126, #63 ) ;
#66 = CARTESIAN_POINT ( 'NONE',  ( -2.020725942163692057, -3.499999999999999556, 0.000000000000000000 ) ) ;
#67 = FACE_OUTER_BOUND ( 'NONE', #295, .T. ) ;
#68 = VECTOR ( 'NONE', #219, 1000.000000000000000 ) ;
#69 = PERSON_AND_ORGANIZATION_ROLE ( 'creator' ) ;
#70 = DIRECTION ( 'NONE',  ( -0.5000000000000001110, -0.8660254037844385966, 0.000000000000000000 ) ) ;
#71 = PLANE ( 'NONE',  #40 ) ;
#72 = DIRECTION ( 'NONE',  ( 0.5000000000000001110, 0.8660254037844385966, 0.000000000000000000 ) ) ;
#73 = PLANE ( 'NONE',  #102 ) ;
#74 = DIRECTION ( 'NONE',  ( -0.4999999999999998890, -0.8660254037844387076, 0.000000000000000000 ) ) ;
#75 = ORIENTED_EDGE ( 'NONE', *, *, #247, .F. ) ;
#76 = FACE_OUTER_BOUND ( 'NONE', #96, .T. ) ;
#77 = EDGE_CURVE ( 'NONE', #165, #43, #103, .T. ) ;
#78 = ORIENTED_EDGE ( 'NONE', *, *, #7, .F. ) ;
#79 = DIRECTION ( 'NONE',  ( 1.000000000000000000, -1.073081856240828196E-16, 0.000000000000000000 ) ) ;
#80 = APPROVAL_PERSON_ORGANIZATION ( #315, #5, #58 ) ;
#81 = ORIENTED_EDGE ( 'NONE', *, *, #7, .T. ) ;
#82 = APPLICATION_CONTEXT ( 'configuration controlled 3d designs of mechanical parts and assemblies' ) ;
#83 = DIRECTION ( 'NONE',  ( -0.000000000000000000, -0.000000000000000000, -1.000000000000000000 ) ) ;
#84 = ORIENTED_EDGE ( 'NONE', *, *, #160, .F. ) ;
#85 =( NAMED_UNIT ( * ) SI_UNIT ( $, .STERADIAN. ) SOLID_ANGLE_UNIT ( ) );
#86 = ORIENTED_EDGE ( 'NONE', *, *, #119, .F. ) ;
#87 = CLOSED_SHELL ( 'NONE', ( #64, #148, #20, #258, #132, #329, #225, #342, #44, #199 ) ) ;
#88 = CARTESIAN_POINT ( 'NONE',  ( 0.000000000000000000, 0.000000000000000000, 0.000000000000000000 ) ) ;
#89 = DIRECTION ( 'NONE',  ( -1.000000000000000000, 1.073081856240827334E-16, 0.000000000000000000 ) ) ;
#90 = CC_DESIGN_PERSON_AND_ORGANIZATION_ASSIGNMENT ( #91, #266, ( #369 ) ) ;
#91 = PERSON_AND_ORGANIZATION ( #126, #63 ) ;
#92 = EDGE_CURVE ( 'NONE', #43, #227, #184, .T. ) ;
#93 = PERSON_AND_ORGANIZATION ( #126, #63 ) ;
#94 = SECURITY_CLASSIFICATION ( '', '', #120 ) ;
#95 = DATE_TIME_ROLE ( 'classification_date' ) ;
#96 = EDGE_LOOP ( 'NONE', ( #285, #365, #248, #28 ) ) ;
#97 = EDGE_CURVE ( 'NONE', #249, #175, #4, .T. ) ;
#98 = FACE_BOUND ( 'NONE', #138, .T. ) ;
#99 = APPROVAL_STATUS ( 'not_yet_approved' ) ;
#100 = CARTESIAN_POINT ( 'NONE',  ( 0.000000000000000000, 0.000000000000000000, 5.000000000000000000 ) ) ;
#101 = VECTOR ( 'NONE', #156, 1000.000000000000000 ) ;
#102 = AXIS2_PLACEMENT_3D ( 'NONE', #240, #331, #196 ) ;
#103 = LINE ( 'NONE', #6, #46 ) ;
#104 = LINE ( 'NONE', #194, #276 ) ;
#105 = EDGE_CURVE ( 'NONE', #21, #234, #254, .T. ) ;
#106 = CARTESIAN_POINT ( 'NONE',  ( 4.041451884327380562, 0.000000000000000000, 0.000000000000000000 ) ) ;
#107 = CARTESIAN_POINT ( 'NONE',  ( 4.041451884327380562, 0.000000000000000000, 5.000000000000000000 ) ) ;
#108 = ORIENTED_EDGE ( 'NONE', *, *, #373, .T. ) ;
#109 = CARTESIAN_POINT ( 'NONE',  ( 0.000000000000000000, 0.000000000000000000, 5.000000000000000000 ) ) ;
#110 = ORIENTED_EDGE ( 'NONE', *, *, #373, .F. ) ;
#111 = CYLINDRICAL_SURFACE ( 'NONE', #326, 2.000000000000000000 ) ;
#112 = ORIENTED_EDGE ( 'NONE', *, *, #232, .T. ) ;
#113 = CC_DESIGN_APPROVAL ( #5, ( #153 ) ) ;
#114 = CARTESIAN_POINT ( 'NONE',  ( 2.000000000000000000, 2.449293598294706414E-16, 0.000000000000000000 ) ) ;
#115 = ORIENTED_EDGE ( 'NONE', *, *, #367, .F. ) ;
#116 = CARTESIAN_POINT ( 'NONE',  ( -2.020725942163689393, 3.500000000000000444, 0.000000000000000000 ) ) ;
#117 = PLANE ( 'NONE',  #154 ) ;
#118 = VECTOR ( 'NONE', #164, 1000.000000000000000 ) ;
#119 = EDGE_CURVE ( 'NONE', #234, #21, #217, .T. ) ;
#120 = SECURITY_CLASSIFICATION_LEVEL ( 'unclassified' ) ;
#121 = DATE_AND_TIME ( #62, #348 ) ;
#122 = PLANE ( 'NONE',  #230 ) ;
#123 = AXIS2_PLACEMENT_3D ( 'NONE', #109, #161, #45 ) ;
#124 = LINE ( 'NONE', #210, #311 ) ;
#125 = CARTESIAN_POINT ( 'NONE',  ( 0.000000000000000000, 0.000000000000000000, 5.000000000000000000 ) ) ;
#126 = PERSON ( 'UNSPECIFIED', 'UNSPECIFIED', 'UNSPECIFIED', ('UNSPECIFIED'), ('UNSPECIFIED'), ('UNSPECIFIED') ) ;
#127 = EDGE_LOOP ( 'NONE', ( #267, #177, #171, #197 ) ) ;
#128 = VECTOR ( 'NONE', #274, 1000.000000000000000 ) ;
#129 = PLANE ( 'NONE',  #239 ) ;
#130 = EDGE_CURVE ( 'NONE', #226, #309, #104, .T. ) ;
#131 = CARTESIAN_POINT ( 'NONE',  ( -2.000000000000000000, 0.000000000000000000, 5.000000000000000000 ) ) ;
#132 = ADVANCED_FACE ( 'NONE', ( #76 ), #73, .F. ) ;
#133 = CARTESIAN_POINT ( 'NONE',  ( 4.041451884327380562, 0.000000000000000000, 0.000000000000000000 ) ) ;
#134 = ORIENTED_EDGE ( 'NONE', *, *, #289, .T. ) ;
#135 = LINE ( 'NONE', #170, #68 ) ;
#136 = ORIENTED_EDGE ( 'NONE', *, *, #130, .T. ) ;
#137 = DIRECTION ( 'NONE',  ( -0.000000000000000000, -0.000000000000000000, -1.000000000000000000 ) ) ;
#138 = EDGE_LOOP ( 'NONE', ( #279, #343 ) ) ;
#139 = FACE_OUTER_BOUND ( 'NONE', #54, .T. ) ;
#140 = ORIENTED_EDGE ( 'NONE', *, *, #189, .T. ) ;
#141 = DIRECTION ( 'NONE',  ( 0.000000000000000000, 0.000000000000000000, 1.000000000000000000 ) ) ;
#142 = APPROVAL_PERSON_ORGANIZATION ( #65, #12, #1 ) ;
#143 = ORIENTED_EDGE ( 'NONE', *, *, #77, .F. ) ;
#144 = CARTESIAN_POINT ( 'NONE',  ( -2.020725942163689393, 3.500000000000000444, 5.000000000000000000 ) ) ;
#145 = EDGE_LOOP ( 'NONE', ( #362, #52, #81, #136, #108, #159 ) ) ;
#146 = MECHANICAL_CONTEXT ( 'NONE', #340, 'mechanical' ) ;
#147 = PRODUCT ( 'HW-N_M4_nyloc_ENVELOPE', 'HW-N_M4_nyloc_ENVELOPE', '', ( #146 ) ) ;
#148 = ADVANCED_FACE ( 'NONE', ( #193, #163 ), #363, .T. ) ;
#149 = DIRECTION ( 'NONE',  ( -1.073081856240828196E-16, -1.000000000000000000, 0.000000000000000000 ) ) ;
#150 = AXIS2_PLACEMENT_3D ( 'NONE', #100, #212, #325 ) ;
#151 = APPROVAL_STATUS ( 'not_yet_approved' ) ;
#152 = DIRECTION ( 'NONE',  ( 1.000000000000000000, -1.073081856240827210E-16, 0.000000000000000000 ) ) ;
#153 = PRODUCT_DEFINITION ( 'UNKNOWN', '', #369, #318 ) ;
#154 = AXIS2_PLACEMENT_3D ( 'NONE', #211, #26, #37 ) ;
#155 = APPROVAL_DATE_TIME ( #259, #180 ) ;
#156 = DIRECTION ( 'NONE',  ( 0.4999999999999998335, 0.8660254037844387076, 0.000000000000000000 ) ) ;
#157 = DIRECTION ( 'NONE',  ( 1.073081856240827334E-16, 1.000000000000000000, -0.000000000000000000 ) ) ;
#158 = APPROVAL_DATE_TIME ( #121, #12 ) ;
#159 = ORIENTED_EDGE ( 'NONE', *, *, #77, .T. ) ;
#160 = EDGE_CURVE ( 'NONE', #341, #335, #272, .T. ) ;
#161 = DIRECTION ( 'NONE',  ( 0.000000000000000000, -0.000000000000000000, 1.000000000000000000 ) ) ;
#162 = AXIS2_PLACEMENT_3D ( 'NONE', #19, #252, #366 ) ;
#163 = FACE_BOUND ( 'NONE', #371, .T. ) ;
#164 = DIRECTION ( 'NONE',  ( -1.000000000000000000, 1.073081856240828196E-16, 0.000000000000000000 ) ) ;
#165 = VERTEX_POINT ( 'NONE', #301 ) ;
#166 = DIRECTION ( 'NONE',  ( -0.4999999999999998335, 0.8660254037844387076, 0.000000000000000000 ) ) ;
#167 = VERTEX_POINT ( 'NONE', #361 ) ;
#168 = VECTOR ( 'NONE', #205, 1000.000000000000000 ) ;
#169 = VECTOR ( 'NONE', #38, 1000.000000000000000 ) ;
#170 = CARTESIAN_POINT ( 'NONE',  ( 2.020725942163690725, -3.500000000000000000, 5.000000000000000000 ) ) ;
#171 = ORIENTED_EDGE ( 'NONE', *, *, #130, .F. ) ;
#172 = CARTESIAN_POINT ( 'NONE',  ( -4.041451884327380562, 4.949351114049565438E-16, 5.000000000000000000 ) ) ;
#173 = ORIENTED_EDGE ( 'NONE', *, *, #189, .F. ) ;
#174 = EDGE_CURVE ( 'NONE', #43, #249, #135, .T. ) ;
#175 = VERTEX_POINT ( 'NONE', #106 ) ;
#176 =( GEOMETRIC_REPRESENTATION_CONTEXT ( 3 ) GLOBAL_UNCERTAINTY_ASSIGNED_CONTEXT ( ( #60 ) ) GLOBAL_UNIT_ASSIGNED_CONTEXT ( ( #53, #376, #85 ) ) REPRESENTATION_CONTEXT ( 'NONE', 'WORKASPACE' ) );
#177 = ORIENTED_EDGE ( 'NONE', *, *, #232, .F. ) ;
#178 = CARTESIAN_POINT ( 'NONE',  ( -2.020725942163692057, -3.499999999999999556, 0.000000000000000000 ) ) ;
#179 = CARTESIAN_POINT ( 'NONE',  ( 0.000000000000000000, 0.000000000000000000, 5.000000000000000000 ) ) ;
#180 = APPROVAL ( #151, 'UNSPECIFIED' ) ;
#181 = COORDINATED_UNIVERSAL_TIME_OFFSET ( 6, 0, .BEHIND. ) ;
#182 = COORDINATED_UNIVERSAL_TIME_OFFSET ( 6, 0, .BEHIND. ) ;
#183 = CC_DESIGN_PERSON_AND_ORGANIZATION_ASSIGNMENT ( #93, #69, ( #369 ) ) ;
#184 = LINE ( 'NONE', #35, #101 ) ;
#185 = DATE_AND_TIME ( #34, #270 ) ;
#186 = VERTEX_POINT ( 'NONE', #299 ) ;
#187 = VECTOR ( 'NONE', #137, 1000.000000000000000 ) ;
#188 = ORIENTED_EDGE ( 'NONE', *, *, #105, .F. ) ;
#189 = EDGE_CURVE ( 'NONE', #21, #360, #223, .T. ) ;
#190 = CARTESIAN_POINT ( 'NONE',  ( -2.000000000000000000, 0.000000000000000000, 5.000000000000000000 ) ) ;
#191 = LINE ( 'NONE', #39, #128 ) ;
#192 = CC_DESIGN_APPROVAL ( #12, ( #94 ) ) ;
#193 = FACE_OUTER_BOUND ( 'NONE', #145, .T. ) ;
#194 = CARTESIAN_POINT ( 'NONE',  ( -2.020725942163689393, 3.500000000000000444, 5.000000000000000000 ) ) ;
#195 = ORIENTED_EDGE ( 'NONE', *, *, #213, .F. ) ;
#196 = DIRECTION ( 'NONE',  ( 0.4999999999999998890, -0.8660254037844387076, 0.000000000000000000 ) ) ;
#197 = ORIENTED_EDGE ( 'NONE', *, *, #298, .T. ) ;
#198 = DIRECTION ( 'NONE',  ( 1.000000000000000000, 0.000000000000000000, 0.000000000000000000 ) ) ;
#199 = ADVANCED_FACE ( 'NONE', ( #271 ), #111, .F. ) ;
#200 = DATE_AND_TIME ( #336, #209 ) ;
#201 = EDGE_LOOP ( 'NONE', ( #293, #245, #110, #112 ) ) ;
#202 = FACE_OUTER_BOUND ( 'NONE', #201, .T. ) ;
#203 = ORIENTED_EDGE ( 'NONE', *, *, #105, .T. ) ;
#204 = CARTESIAN_POINT ( 'NONE',  ( 0.000000000000000000, 0.000000000000000000, 0.000000000000000000 ) ) ;
#205 = DIRECTION ( 'NONE',  ( 1.000000000000000000, -1.073081856240827210E-16, 0.000000000000000000 ) ) ;
#206 = PERSON_AND_ORGANIZATION_ROLE ( 'design_owner' ) ;
#207 = CC_DESIGN_PERSON_AND_ORGANIZATION_ASSIGNMENT ( #322, #32, ( #153 ) ) ;
#208 = COORDINATED_UNIVERSAL_TIME_OFFSET ( 6, 0, .BEHIND. ) ;
#209 = LOCAL_TIME ( 15, 1, 53.00000000000000000, #181 ) ;
#210 = CARTESIAN_POINT ( 'NONE',  ( 2.020725942163690725, 3.500000000000000000, 5.000000000000000000 ) ) ;
#211 = CARTESIAN_POINT ( 'NONE',  ( 0.000000000000000000, 0.000000000000000000, 0.000000000000000000 ) ) ;
#212 = DIRECTION ( 'NONE',  ( 0.000000000000000000, 0.000000000000000000, 1.000000000000000000 ) ) ;
#213 = EDGE_CURVE ( 'NONE', #305, #303, #244, .T. ) ;
#214 = VECTOR ( 'NONE', #70, 1000.000000000000000 ) ;
#215 = AXIS2_PLACEMENT_3D ( 'NONE', #288, #149, #79 ) ;
#216 = EDGE_LOOP ( 'NONE', ( #23, #115, #349, #333 ) ) ;
#217 = CIRCLE ( 'NONE', #150, 2.000000000000000000 ) ;
#218 = CARTESIAN_POINT ( 'NONE',  ( -4.041451884327380562, 4.949351114049565438E-16, 0.000000000000000000 ) ) ;
#219 = DIRECTION ( 'NONE',  ( -0.000000000000000000, -0.000000000000000000, -1.000000000000000000 ) ) ;
#220 = VECTOR ( 'NONE', #166, 1000.000000000000000 ) ;
#221 = FACE_OUTER_BOUND ( 'NONE', #127, .T. ) ;
#222 = EDGE_LOOP ( 'NONE', ( #263, #140, #51, #75 ) ) ;
#223 = LINE ( 'NONE', #41, #355 ) ;
#224 = APPLICATION_PROTOCOL_DEFINITION ( 'international standard', 'config_control_design', 1994, #82 ) ;
#225 = ADVANCED_FACE ( 'NONE', ( #221 ), #129, .F. ) ;
#226 = VERTEX_POINT ( 'NONE', #11 ) ;
#227 = VERTEX_POINT ( 'NONE', #107 ) ;
#228 = CARTESIAN_POINT ( 'NONE',  ( 2.020725942163690725, 3.500000000000000000, 0.000000000000000000 ) ) ;
#229 = CARTESIAN_POINT ( 'NONE',  ( -2.020725942163692057, -3.499999999999999556, 5.000000000000000000 ) ) ;
#230 = AXIS2_PLACEMENT_3D ( 'NONE', #238, #157, #89 ) ;
#231 = DIRECTION ( 'NONE',  ( 1.000000000000000000, 0.000000000000000000, 0.000000000000000000 ) ) ;
#232 = EDGE_CURVE ( 'NONE', #309, #341, #191, .T. ) ;
#233 = SHAPE_DEFINITION_REPRESENTATION ( #377, #261 ) ;
#234 = VERTEX_POINT ( 'NONE', #131 ) ;
#235 = CC_DESIGN_APPROVAL ( #180, ( #369 ) ) ;
#236 = CARTESIAN_POINT ( 'NONE',  ( 2.020725942163690725, -3.500000000000000000, 0.000000000000000000 ) ) ;
#237 = DIRECTION ( 'NONE',  ( 0.000000000000000000, 0.000000000000000000, 1.000000000000000000 ) ) ;
#238 = CARTESIAN_POINT ( 'NONE',  ( -2.020725942163692057, -3.499999999999999556, 5.000000000000000000 ) ) ;
#239 = AXIS2_PLACEMENT_3D ( 'NONE', #328, #334, #72 ) ;
#240 = CARTESIAN_POINT ( 'NONE',  ( 4.041451884327380562, 0.000000000000000000, 5.000000000000000000 ) ) ;
#241 = FACE_OUTER_BOUND ( 'NONE', #216, .T. ) ;
#242 = DIRECTION ( 'NONE',  ( -0.4999999999999998335, 0.8660254037844387076, 0.000000000000000000 ) ) ;
#243 = EDGE_LOOP ( 'NONE', ( #48, #368, #143, #337 ) ) ;
#244 = LINE ( 'NONE', #278, #118 ) ;
#245 = ORIENTED_EDGE ( 'NONE', *, *, #33, .F. ) ;
#246 = CARTESIAN_POINT ( 'NONE',  ( 2.020725942163690725, 3.500000000000000000, 5.000000000000000000 ) ) ;
#247 = EDGE_CURVE ( 'NONE', #234, #186, #304, .T. ) ;
#248 = ORIENTED_EDGE ( 'NONE', *, *, #277, .F. ) ;
#249 = VERTEX_POINT ( 'NONE', #332 ) ;
#250 = APPROVAL_PERSON_ORGANIZATION ( #351, #180, #347 ) ;
#251 = DIRECTION ( 'NONE',  ( 0.000000000000000000, 0.000000000000000000, 1.000000000000000000 ) ) ;
#252 = DIRECTION ( 'NONE',  ( 0.8660254037844389297, 0.4999999999999996114, -0.000000000000000000 ) ) ;
#253 = CARTESIAN_POINT ( 'NONE',  ( 2.020725942163690725, -3.500000000000000000, 5.000000000000000000 ) ) ;
#254 = CIRCLE ( 'NONE', #327, 2.000000000000000000 ) ;
#255 = VECTOR ( 'NONE', #345, 1000.000000000000000 ) ;
#256 = CARTESIAN_POINT ( 'NONE',  ( 0.000000000000000000, 0.000000000000000000, 0.000000000000000000 ) ) ;
#257 = VECTOR ( 'NONE', #280, 1000.000000000000227 ) ;
#258 = ADVANCED_FACE ( 'NONE', ( #241 ), #71, .F. ) ;
#259 = DATE_AND_TIME ( #262, #55 ) ;
#260 = LINE ( 'NONE', #229, #255 ) ;
#261 = ADVANCED_BREP_SHAPE_REPRESENTATION ( 'HW-N_M4_nyloc_ENVELOPE', ( #61, #30 ), #176 ) ;
#262 = CALENDAR_DATE ( 2026, 12, 9 ) ;
#263 = ORIENTED_EDGE ( 'NONE', *, *, #119, .T. ) ;
#264 = CC_DESIGN_DATE_AND_TIME_ASSIGNMENT ( #290, #95, ( #94 ) ) ;
#265 = FACE_OUTER_BOUND ( 'NONE', #222, .T. ) ;
#266 = PERSON_AND_ORGANIZATION_ROLE ( 'design_supplier' ) ;
#267 = ORIENTED_EDGE ( 'NONE', *, *, #59, .T. ) ;
#268 = DIRECTION ( 'NONE',  ( 0.4999999999999995559, -0.8660254037844388186, 0.000000000000000000 ) ) ;
#269 = EDGE_CURVE ( 'NONE', #175, #305, #13, .T. ) ;
#270 = LOCAL_TIME ( 15, 1, 53.00000000000000000, #182 ) ;
#271 = FACE_OUTER_BOUND ( 'NONE', #282, .T. ) ;
#272 = LINE ( 'NONE', #218, #338 ) ;
#273 = ORIENTED_EDGE ( 'NONE', *, *, #356, .F. ) ;
#274 = DIRECTION ( 'NONE',  ( -0.000000000000000000, -0.000000000000000000, -1.000000000000000000 ) ) ;
#275 = ORIENTED_EDGE ( 'NONE', *, *, #213, .T. ) ;
#276 = VECTOR ( 'NONE', #9, 1000.000000000000000 ) ;
#277 = EDGE_CURVE ( 'NONE', #227, #167, #302, .T. ) ;
#278 = CARTESIAN_POINT ( 'NONE',  ( 2.020725942163690725, 3.500000000000000000, 0.000000000000000000 ) ) ;
#279 = ORIENTED_EDGE ( 'NONE', *, *, #316, .T. ) ;
#280 = DIRECTION ( 'NONE',  ( 0.4999999999999995559, -0.8660254037844388186, 0.000000000000000000 ) ) ;
#281 = ORIENTED_EDGE ( 'NONE', *, *, #269, .F. ) ;
#282 = EDGE_LOOP ( 'NONE', ( #173, #203, #312, #273 ) ) ;
#283 = AXIS2_PLACEMENT_3D ( 'NONE', #204, #141, #313 ) ;
#284 = DIRECTION ( 'NONE',  ( 0.000000000000000000, 0.000000000000000000, 1.000000000000000000 ) ) ;
#285 = ORIENTED_EDGE ( 'NONE', *, *, #269, .T. ) ;
#286 = CARTESIAN_POINT ( 'NONE',  ( -4.041451884327380562, 4.949351114049565438E-16, 5.000000000000000000 ) ) ;
#287 = DIRECTION ( 'NONE',  ( -0.000000000000000000, -0.000000000000000000, -1.000000000000000000 ) ) ;
#288 = CARTESIAN_POINT ( 'NONE',  ( 2.020725942163690725, 3.500000000000000000, 5.000000000000000000 ) ) ;
#289 = EDGE_CURVE ( 'NONE', #167, #305, #14, .T. ) ;
#290 = DATE_AND_TIME ( #319, #300 ) ;
#291 = AXIS2_PLACEMENT_3D ( 'NONE', #256, #251, #198 ) ;
#292 = DATE_TIME_ROLE ( 'creation_date' ) ;
#293 = ORIENTED_EDGE ( 'NONE', *, *, #160, .T. ) ;
#294 = COORDINATED_UNIVERSAL_TIME_OFFSET ( 6, 0, .BEHIND. ) ;
#295 = EDGE_LOOP ( 'NONE', ( #16, #321, #84, #296, #195, #281 ) ) ;
#296 = ORIENTED_EDGE ( 'NONE', *, *, #59, .F. ) ;
#297 = DIRECTION ( 'NONE',  ( -1.000000000000000000, 0.000000000000000000, 0.000000000000000000 ) ) ;
#298 = EDGE_CURVE ( 'NONE', #226, #303, #310, .T. ) ;
#299 = CARTESIAN_POINT ( 'NONE',  ( -2.000000000000000000, 0.000000000000000000, 0.000000000000000000 ) ) ;
#300 = LOCAL_TIME ( 15, 1, 53.00000000000000000, #208 ) ;
#301 = CARTESIAN_POINT ( 'NONE',  ( -2.020725942163692057, -3.499999999999999556, 5.000000000000000000 ) ) ;
#302 = LINE ( 'NONE', #42, #220 ) ;
#303 = VERTEX_POINT ( 'NONE', #116 ) ;
#304 = LINE ( 'NONE', #190, #187 ) ;
#305 = VERTEX_POINT ( 'NONE', #228 ) ;
#306 = CARTESIAN_POINT ( 'NONE',  ( 4.041451884327380562, 0.000000000000000000, 5.000000000000000000 ) ) ;
#307 = ORIENTED_EDGE ( 'NONE', *, *, #298, .F. ) ;
#308 = APPROVAL_DATE_TIME ( #200, #5 ) ;
#309 = VERTEX_POINT ( 'NONE', #286 ) ;
#310 = LINE ( 'NONE', #144, #10 ) ;
#311 = VECTOR ( 'NONE', #324, 1000.000000000000000 ) ;
#312 = ORIENTED_EDGE ( 'NONE', *, *, #247, .T. ) ;
#313 = DIRECTION ( 'NONE',  ( 1.000000000000000000, 0.000000000000000000, 0.000000000000000000 ) ) ;
#314 = CARTESIAN_POINT ( 'NONE',  ( -2.020725942163689393, 3.500000000000000444, 0.000000000000000000 ) ) ;
#315 = PERSON_AND_ORGANIZATION ( #126, #63 ) ;
#316 = EDGE_CURVE ( 'NONE', #186, #360, #15, .T. ) ;
#317 = PERSON_AND_ORGANIZATION ( #126, #63 ) ;
#318 = DESIGN_CONTEXT ( 'detailed design', #82, 'design' ) ;
#319 = CALENDAR_DATE ( 2026, 12, 9 ) ;
#320 = VECTOR ( 'NONE', #242, 1000.000000000000000 ) ;
#321 = ORIENTED_EDGE ( 'NONE', *, *, #49, .F. ) ;
#322 = PERSON_AND_ORGANIZATION ( #126, #63 ) ;
#323 = VECTOR ( 'NONE', #350, 1000.000000000000000 ) ;
#324 = DIRECTION ( 'NONE',  ( -1.000000000000000000, 1.073081856240828196E-16, 0.000000000000000000 ) ) ;
#325 = DIRECTION ( 'NONE',  ( 1.000000000000000000, 0.000000000000000000, 0.000000000000000000 ) ) ;
#326 = AXIS2_PLACEMENT_3D ( 'NONE', #357, #330, #297 ) ;
#327 = AXIS2_PLACEMENT_3D ( 'NONE', #125, #237, #352 ) ;
#328 = CARTESIAN_POINT ( 'NONE',  ( -2.020725942163689393, 3.500000000000000444, 5.000000000000000000 ) ) ;
#329 = ADVANCED_FACE ( 'NONE', ( #139 ), #346, .F. ) ;
#330 = DIRECTION ( 'NONE',  ( -0.000000000000000000, -0.000000000000000000, -1.000000000000000000 ) ) ;
#331 = DIRECTION ( 'NONE',  ( -0.8660254037844387076, -0.4999999999999998890, 0.000000000000000000 ) ) ;
#332 = CARTESIAN_POINT ( 'NONE',  ( 2.020725942163690725, -3.500000000000000000, 0.000000000000000000 ) ) ;
#333 = ORIENTED_EDGE ( 'NONE', *, *, #174, .T. ) ;
#334 = DIRECTION ( 'NONE',  ( 0.8660254037844385966, -0.5000000000000001110, 0.000000000000000000 ) ) ;
#335 = VERTEX_POINT ( 'NONE', #178 ) ;
#336 = CALENDAR_DATE ( 2026, 12, 9 ) ;
#337 = ORIENTED_EDGE ( 'NONE', *, *, #33, .T. ) ;
#338 = VECTOR ( 'NONE', #268, 1000.000000000000227 ) ;
#339 = APPLICATION_PROTOCOL_DEFINITION ( 'international standard', 'config_control_design', 1994, #340 ) ;
#340 = APPLICATION_CONTEXT ( 'configuration controlled 3d designs of mechanical parts and assemblies' ) ;
#341 = VERTEX_POINT ( 'NONE', #56 ) ;
#342 = ADVANCED_FACE ( 'NONE', ( #202 ), #370, .F. ) ;
#343 = ORIENTED_EDGE ( 'NONE', *, *, #356, .T. ) ;
#344 = LINE ( 'NONE', #306, #47 ) ;
#345 = DIRECTION ( 'NONE',  ( -0.000000000000000000, -0.000000000000000000, -1.000000000000000000 ) ) ;
#346 = PLANE ( 'NONE',  #215 ) ;
#347 = APPROVAL_ROLE ( '' ) ;
#348 = LOCAL_TIME ( 15, 1, 53.00000000000000000, #3 ) ;
#349 = ORIENTED_EDGE ( 'NONE', *, *, #92, .F. ) ;
#350 = DIRECTION ( 'NONE',  ( 0.4999999999999998335, 0.8660254037844387076, 0.000000000000000000 ) ) ;
#351 = PERSON_AND_ORGANIZATION ( #126, #63 ) ;
#352 = DIRECTION ( 'NONE',  ( 1.000000000000000000, 0.000000000000000000, 0.000000000000000000 ) ) ;
#353 = CC_DESIGN_PERSON_AND_ORGANIZATION_ASSIGNMENT ( #317, #31, ( #94 ) ) ;
#354 = LINE ( 'NONE', #66, #168 ) ;
#355 = VECTOR ( 'NONE', #359, 1000.000000000000000 ) ;
#356 = EDGE_CURVE ( 'NONE', #360, #186, #375, .T. ) ;
#357 = CARTESIAN_POINT ( 'NONE',  ( 0.000000000000000000, 0.000000000000000000, 5.000000000000000000 ) ) ;
#358 = DIRECTION ( 'NONE',  ( -0.8660254037844387076, 0.4999999999999998890, 0.000000000000000000 ) ) ;
#359 = DIRECTION ( 'NONE',  ( -0.000000000000000000, -0.000000000000000000, -1.000000000000000000 ) ) ;
#360 = VERTEX_POINT ( 'NONE', #114 ) ;
#361 = CARTESIAN_POINT ( 'NONE',  ( 2.020725942163690725, 3.500000000000000000, 5.000000000000000000 ) ) ;
#362 = ORIENTED_EDGE ( 'NONE', *, *, #92, .T. ) ;
#363 = PLANE ( 'NONE',  #123 ) ;
#364 = PRODUCT_RELATED_PRODUCT_CATEGORY ( 'detail', '', ( #147 ) ) ;
#365 = ORIENTED_EDGE ( 'NONE', *, *, #289, .F. ) ;
#366 = DIRECTION ( 'NONE',  ( -0.4999999999999995559, 0.8660254037844388186, 0.000000000000000000 ) ) ;
#367 = EDGE_CURVE ( 'NONE', #227, #175, #344, .T. ) ;
#368 = ORIENTED_EDGE ( 'NONE', *, *, #174, .F. ) ;
#369 = PRODUCT_DEFINITION_FORMATION_WITH_SPECIFIED_SOURCE ( 'ANY', '', #147, .NOT_KNOWN. ) ;
#370 = PLANE ( 'NONE',  #162 ) ;
#371 = EDGE_LOOP ( 'NONE', ( #86, #188 ) ) ;
#372 = FACE_OUTER_BOUND ( 'NONE', #243, .T. ) ;
#373 = EDGE_CURVE ( 'NONE', #309, #165, #50, .T. ) ;
#374 = AXIS2_PLACEMENT_3D ( 'NONE', #179, #287, #2 ) ;
#375 = CIRCLE ( 'NONE', #291, 2.000000000000000000 ) ;
#376 =( NAMED_UNIT ( * ) PLANE_ANGLE_UNIT ( ) SI_UNIT ( $, .RADIAN. ) );
#377 = PRODUCT_DEFINITION_SHAPE ( 'NONE', 'NONE',  #153 ) ;
ENDSEC;
END-ISO-10303-21;
