ISO-10303-21;
HEADER;
FILE_DESCRIPTION (( 'STEP AP203' ),
    '1' );
FILE_NAME ('HW-S_M3x14_socket_ENVELOPE.step',
    '2026-09-13T02:39:51',
    ( '' ),
    ( '' ),
    'SwSTEP 2.0',
    'SolidWorks 2026',
    '' );
FILE_SCHEMA (( 'CONFIG_CONTROL_DESIGN' ));
ENDSEC;

DATA;
#1 = CARTESIAN_POINT ( 'NONE',  ( -2.750000000000000000, 0.000000000000000000, 3.000000000000000000 ) ) ;
#2 = FACE_OUTER_BOUND ( 'NONE', #242, .T. ) ;
#3 = ADVANCED_BREP_SHAPE_REPRESENTATION ( 'HW-S_M3x14_socket_ENVELOPE', ( #99, #71 ), #36 ) ;
#4 = PERSON_AND_ORGANIZATION_ROLE ( 'creator' ) ;
#5 = ORIENTED_EDGE ( 'NONE', *, *, #227, .T. ) ;
#6 = CIRCLE ( 'NONE', #190, 2.750000000000000000 ) ;
#7 = COORDINATED_UNIVERSAL_TIME_OFFSET ( 6, 0, .BEHIND. ) ;
#8 = AXIS2_PLACEMENT_3D ( 'NONE', #140, #248, #209 ) ;
#9 = EDGE_CURVE ( 'NONE', #48, #177, #101, .T. ) ;
#10 = ORIENTED_EDGE ( 'NONE', *, *, #51, .F. ) ;
#11 = APPROVAL_PERSON_ORGANIZATION ( #149, #55, #125 ) ;
#12 = ORIENTED_EDGE ( 'NONE', *, *, #9, .F. ) ;
#13 = ORIENTED_EDGE ( 'NONE', *, *, #215, .F. ) ;
#14 = EDGE_LOOP ( 'NONE', ( #154, #13, #95, #68 ) ) ;
#15 = LOCAL_TIME ( 21, 39, 51.00000000000000000, #238 ) ;
#16 = DESIGN_CONTEXT ( 'detailed design', #45, 'design' ) ;
#17 = DIRECTION ( 'NONE',  ( 1.000000000000000000, 0.000000000000000000, 0.000000000000000000 ) ) ;
#18 = CYLINDRICAL_SURFACE ( 'NONE', #89, 2.750000000000000000 ) ;
#19 = CIRCLE ( 'NONE', #168, 2.750000000000000000 ) ;
#20 = CYLINDRICAL_SURFACE ( 'NONE', #136, 2.750000000000000000 ) ;
#21 = CARTESIAN_POINT ( 'NONE',  ( 2.750000000000000000, 3.367778697655221012E-16, 0.000000000000000000 ) ) ;
#22 = VECTOR ( 'NONE', #212, 1000.000000000000000 ) ;
#23 = CARTESIAN_POINT ( 'NONE',  ( 0.000000000000000000, 0.000000000000000000, 0.000000000000000000 ) ) ;
#24 = PERSON_AND_ORGANIZATION ( #49, #105 ) ;
#25 = ORIENTED_EDGE ( 'NONE', *, *, #197, .T. ) ;
#26 = DATE_TIME_ROLE ( 'classification_date' ) ;
#27 = COORDINATED_UNIVERSAL_TIME_OFFSET ( 6, 0, .BEHIND. ) ;
#28 = AXIS2_PLACEMENT_3D ( 'NONE', #236, #217, #39 ) ;
#29 = ORIENTED_EDGE ( 'NONE', *, *, #46, .T. ) ;
#30 = CARTESIAN_POINT ( 'NONE',  ( 1.500000000000000000, 1.836970198721029934E-16, 0.000000000000000000 ) ) ;
#31 = DIRECTION ( 'NONE',  ( -0.000000000000000000, -0.000000000000000000, -1.000000000000000000 ) ) ;
#32 = DIRECTION ( 'NONE',  ( 1.000000000000000000, 0.000000000000000000, -0.000000000000000000 ) ) ;
#33 = AXIS2_PLACEMENT_3D ( 'NONE', #75, #97, #159 ) ;
#34 = CARTESIAN_POINT ( 'NONE',  ( 0.000000000000000000, 0.000000000000000000, 3.000000000000000000 ) ) ;
#35 = DIRECTION ( 'NONE',  ( 1.000000000000000000, 0.000000000000000000, 0.000000000000000000 ) ) ;
#36 =( GEOMETRIC_REPRESENTATION_CONTEXT ( 3 ) GLOBAL_UNCERTAINTY_ASSIGNED_CONTEXT ( ( #82 ) ) GLOBAL_UNIT_ASSIGNED_CONTEXT ( ( #120, #193, #196 ) ) REPRESENTATION_CONTEXT ( 'NONE', 'WORKASPACE' ) );
#37 = CARTESIAN_POINT ( 'NONE',  ( 0.000000000000000000, 0.000000000000000000, 0.000000000000000000 ) ) ;
#38 = APPROVAL ( #203, 'UNSPECIFIED' ) ;
#39 = DIRECTION ( 'NONE',  ( 1.000000000000000000, 0.000000000000000000, -0.000000000000000000 ) ) ;
#40 = DIRECTION ( 'NONE',  ( 1.000000000000000000, 0.000000000000000000, 0.000000000000000000 ) ) ;
#41 = CIRCLE ( 'NONE', #77, 1.500000000000000000 ) ;
#42 = DATE_AND_TIME ( #47, #127 ) ;
#43 = ORIENTED_EDGE ( 'NONE', *, *, #215, .T. ) ;
#44 = APPROVAL_DATE_TIME ( #106, #38 ) ;
#45 = APPLICATION_CONTEXT ( 'configuration controlled 3d designs of mechanical parts and assemblies' ) ;
#46 = EDGE_CURVE ( 'NONE', #65, #107, #243, .T. ) ;
#47 = CALENDAR_DATE ( 2026, 12, 9 ) ;
#48 = VERTEX_POINT ( 'NONE', #228 ) ;
#49 = PERSON ( 'UNSPECIFIED', 'UNSPECIFIED', 'UNSPECIFIED', ('UNSPECIFIED'), ('UNSPECIFIED'), ('UNSPECIFIED') ) ;
#50 = DIRECTION ( 'NONE',  ( 0.000000000000000000, 0.000000000000000000, 1.000000000000000000 ) ) ;
#51 = EDGE_CURVE ( 'NONE', #150, #70, #172, .T. ) ;
#52 = ORIENTED_EDGE ( 'NONE', *, *, #111, .F. ) ;
#53 = DIRECTION ( 'NONE',  ( 0.000000000000000000, 0.000000000000000000, 1.000000000000000000 ) ) ;
#54 = CARTESIAN_POINT ( 'NONE',  ( 0.000000000000000000, 0.000000000000000000, 0.000000000000000000 ) ) ;
#55 = APPROVAL ( #153, 'UNSPECIFIED' ) ;
#56 = DIRECTION ( 'NONE',  ( 0.000000000000000000, 0.000000000000000000, 1.000000000000000000 ) ) ;
#57 = AXIS2_PLACEMENT_3D ( 'NONE', #34, #175, #72 ) ;
#58 = DIRECTION ( 'NONE',  ( -0.000000000000000000, -0.000000000000000000, -1.000000000000000000 ) ) ;
#59 = DIRECTION ( 'NONE',  ( 0.000000000000000000, 0.000000000000000000, 1.000000000000000000 ) ) ;
#60 = DIRECTION ( 'NONE',  ( -0.000000000000000000, -0.000000000000000000, -1.000000000000000000 ) ) ;
#61 = CARTESIAN_POINT ( 'NONE',  ( 0.000000000000000000, 0.000000000000000000, 0.000000000000000000 ) ) ;
#62 = APPLICATION_CONTEXT ( 'configuration controlled 3d designs of mechanical parts and assemblies' ) ;
#63 = COORDINATED_UNIVERSAL_TIME_OFFSET ( 6, 0, .BEHIND. ) ;
#64 = CIRCLE ( 'NONE', #138, 1.500000000000000000 ) ;
#65 = VERTEX_POINT ( 'NONE', #30 ) ;
#66 = CLOSED_SHELL ( 'NONE', ( #237, #135, #143, #115, #232, #108, #201 ) ) ;
#67 = PERSON_AND_ORGANIZATION ( #49, #105 ) ;
#68 = ORIENTED_EDGE ( 'NONE', *, *, #148, .T. ) ;
#69 = EDGE_CURVE ( 'NONE', #169, #70, #113, .T. ) ;
#70 = VERTEX_POINT ( 'NONE', #188 ) ;
#71 = AXIS2_PLACEMENT_3D ( 'NONE', #61, #179, #254 ) ;
#72 = DIRECTION ( 'NONE',  ( 1.000000000000000000, 0.000000000000000000, -0.000000000000000000 ) ) ;
#73 = ORIENTED_EDGE ( 'NONE', *, *, #148, .F. ) ;
#74 = EDGE_CURVE ( 'NONE', #129, #150, #93, .T. ) ;
#75 = CARTESIAN_POINT ( 'NONE',  ( 0.000000000000000000, 0.000000000000000000, -14.00000000000000000 ) ) ;
#76 = CARTESIAN_POINT ( 'NONE',  ( 0.000000000000000000, 0.000000000000000000, -14.00000000000000000 ) ) ;
#77 = AXIS2_PLACEMENT_3D ( 'NONE', #76, #122, #98 ) ;
#78 = PLANE ( 'NONE',  #28 ) ;
#79 = DIRECTION ( 'NONE',  ( -1.000000000000000000, 0.000000000000000000, 0.000000000000000000 ) ) ;
#80 = CYLINDRICAL_SURFACE ( 'NONE', #211, 1.500000000000000000 ) ;
#81 = AXIS2_PLACEMENT_3D ( 'NONE', #229, #56, #17 ) ;
#82 = UNCERTAINTY_MEASURE_WITH_UNIT (LENGTH_MEASURE( 1.000000000000000082E-05 ), #120, 'distance_accuracy_value', 'NONE');
#83 = PERSON_AND_ORGANIZATION ( #49, #105 ) ;
#84 = PRODUCT_DEFINITION ( 'UNKNOWN', '', #233, #16 ) ;
#85 = PERSON_AND_ORGANIZATION_ROLE ( 'creator' ) ;
#86 = APPROVAL_DATE_TIME ( #241, #245 ) ;
#87 = CC_DESIGN_DATE_AND_TIME_ASSIGNMENT ( #42, #26, ( #208 ) ) ;
#88 = ORIENTED_EDGE ( 'NONE', *, *, #74, .T. ) ;
#89 = AXIS2_PLACEMENT_3D ( 'NONE', #100, #60, #145 ) ;
#90 = VECTOR ( 'NONE', #189, 1000.000000000000000 ) ;
#91 = FACE_OUTER_BOUND ( 'NONE', #134, .T. ) ;
#92 = LOCAL_TIME ( 21, 39, 51.00000000000000000, #222 ) ;
#93 = LINE ( 'NONE', #246, #173 ) ;
#94 = CARTESIAN_POINT ( 'NONE',  ( -1.500000000000000000, 0.000000000000000000, 0.000000000000000000 ) ) ;
#95 = ORIENTED_EDGE ( 'NONE', *, *, #111, .T. ) ;
#96 = CC_DESIGN_APPROVAL ( #245, ( #84 ) ) ;
#97 = DIRECTION ( 'NONE',  ( 0.000000000000000000, 0.000000000000000000, 1.000000000000000000 ) ) ;
#98 = DIRECTION ( 'NONE',  ( 1.000000000000000000, 0.000000000000000000, 0.000000000000000000 ) ) ;
#99 = MANIFOLD_SOLID_BREP ( 'Socket_head_envelope', #66 ) ;
#100 = CARTESIAN_POINT ( 'NONE',  ( 0.000000000000000000, 0.000000000000000000, 3.000000000000000000 ) ) ;
#101 = CIRCLE ( 'NONE', #33, 1.500000000000000000 ) ;
#102 = DIRECTION ( 'NONE',  ( -0.000000000000000000, -0.000000000000000000, -1.000000000000000000 ) ) ;
#103 = AXIS2_PLACEMENT_3D ( 'NONE', #54, #226, #142 ) ;
#104 = PERSON_AND_ORGANIZATION_ROLE ( 'design_supplier' ) ;
#105 = ORGANIZATION ( 'UNSPECIFIED', 'UNSPECIFIED', '' ) ;
#106 = DATE_AND_TIME ( #147, #247 ) ;
#107 = VERTEX_POINT ( 'NONE', #94 ) ;
#108 = ADVANCED_FACE ( 'NONE', ( #91 ), #210, .T. ) ;
#109 = PERSON_AND_ORGANIZATION ( #49, #105 ) ;
#110 = ORIENTED_EDGE ( 'NONE', *, *, #69, .T. ) ;
#111 = EDGE_CURVE ( 'NONE', #107, #177, #119, .T. ) ;
#112 = EDGE_LOOP ( 'NONE', ( #186, #10 ) ) ;
#113 = LINE ( 'NONE', #141, #22 ) ;
#114 = CC_DESIGN_APPROVAL ( #38, ( #233 ) ) ;
#115 = ADVANCED_FACE ( 'NONE', ( #155 ), #157, .F. ) ;
#116 = DIRECTION ( 'NONE',  ( 1.000000000000000000, 0.000000000000000000, 0.000000000000000000 ) ) ;
#117 = VECTOR ( 'NONE', #102, 1000.000000000000000 ) ;
#118 = CARTESIAN_POINT ( 'NONE',  ( -1.500000000000000000, 0.000000000000000000, 0.000000000000000000 ) ) ;
#119 = LINE ( 'NONE', #118, #90 ) ;
#120 =( LENGTH_UNIT ( ) NAMED_UNIT ( * ) SI_UNIT ( .MILLI., .METRE. ) );
#121 = EDGE_CURVE ( 'NONE', #169, #129, #6, .T. ) ;
#122 = DIRECTION ( 'NONE',  ( 0.000000000000000000, 0.000000000000000000, 1.000000000000000000 ) ) ;
#123 = FACE_OUTER_BOUND ( 'NONE', #112, .T. ) ;
#124 = FACE_OUTER_BOUND ( 'NONE', #225, .T. ) ;
#125 = APPROVAL_ROLE ( '' ) ;
#126 = ORIENTED_EDGE ( 'NONE', *, *, #121, .F. ) ;
#127 = LOCAL_TIME ( 21, 39, 51.00000000000000000, #27 ) ;
#128 = CALENDAR_DATE ( 2026, 12, 9 ) ;
#129 = VERTEX_POINT ( 'NONE', #252 ) ;
#130 = DATE_AND_TIME ( #128, #92 ) ;
#131 = SECURITY_CLASSIFICATION_LEVEL ( 'unclassified' ) ;
#132 = CC_DESIGN_PERSON_AND_ORGANIZATION_ASSIGNMENT ( #83, #146, ( #164 ) ) ;
#133 = CALENDAR_DATE ( 2026, 12, 9 ) ;
#134 = EDGE_LOOP ( 'NONE', ( #249, #5 ) ) ;
#135 = ADVANCED_FACE ( 'NONE', ( #137 ), #174, .T. ) ;
#136 = AXIS2_PLACEMENT_3D ( 'NONE', #165, #58, #231 ) ;
#137 = FACE_OUTER_BOUND ( 'NONE', #158, .T. ) ;
#138 = AXIS2_PLACEMENT_3D ( 'NONE', #37, #234, #161 ) ;
#139 = CARTESIAN_POINT ( 'NONE',  ( 0.000000000000000000, 0.000000000000000000, 3.000000000000000000 ) ) ;
#140 = CARTESIAN_POINT ( 'NONE',  ( 0.000000000000000000, 0.000000000000000000, 0.000000000000000000 ) ) ;
#141 = CARTESIAN_POINT ( 'NONE',  ( -2.750000000000000000, 0.000000000000000000, 3.000000000000000000 ) ) ;
#142 = DIRECTION ( 'NONE',  ( 1.000000000000000000, 0.000000000000000000, 0.000000000000000000 ) ) ;
#143 = ADVANCED_FACE ( 'NONE', ( #176 ), #80, .T. ) ;
#144 = APPROVAL_PERSON_ORGANIZATION ( #109, #245, #240 ) ;
#145 = DIRECTION ( 'NONE',  ( -1.000000000000000000, 0.000000000000000000, 0.000000000000000000 ) ) ;
#146 = PERSON_AND_ORGANIZATION_ROLE ( 'design_owner' ) ;
#147 = CALENDAR_DATE ( 2026, 12, 9 ) ;
#148 = EDGE_CURVE ( 'NONE', #177, #48, #41, .T. ) ;
#149 = PERSON_AND_ORGANIZATION ( #49, #105 ) ;
#150 = VERTEX_POINT ( 'NONE', #21 ) ;
#151 = APPROVAL_DATE_TIME ( #181, #55 ) ;
#152 = LOCAL_TIME ( 21, 39, 51.00000000000000000, #7 ) ;
#153 = APPROVAL_STATUS ( 'not_yet_approved' ) ;
#154 = ORIENTED_EDGE ( 'NONE', *, *, #197, .F. ) ;
#155 = FACE_OUTER_BOUND ( 'NONE', #253, .T. ) ;
#156 = CC_DESIGN_PERSON_AND_ORGANIZATION_ASSIGNMENT ( #182, #219, ( #208 ) ) ;
#157 = PLANE ( 'NONE',  #230 ) ;
#158 = EDGE_LOOP ( 'NONE', ( #199, #25, #191, #52 ) ) ;
#159 = DIRECTION ( 'NONE',  ( 1.000000000000000000, 0.000000000000000000, 0.000000000000000000 ) ) ;
#160 = CC_DESIGN_PERSON_AND_ORGANIZATION_ASSIGNMENT ( #184, #85, ( #84 ) ) ;
#161 = DIRECTION ( 'NONE',  ( 1.000000000000000000, 0.000000000000000000, 0.000000000000000000 ) ) ;
#162 = PRODUCT_DEFINITION_SHAPE ( 'NONE', 'NONE',  #84 ) ;
#163 = DIRECTION ( 'NONE',  ( -0.000000000000000000, -0.000000000000000000, -1.000000000000000000 ) ) ;
#164 = PRODUCT ( 'HW-S_M3x14_socket_ENVELOPE', 'HW-S_M3x14_socket_ENVELOPE', '', ( #214 ) ) ;
#165 = CARTESIAN_POINT ( 'NONE',  ( 0.000000000000000000, 0.000000000000000000, 3.000000000000000000 ) ) ;
#166 = CARTESIAN_POINT ( 'NONE',  ( -1.500000000000000000, 0.000000000000000000, -14.00000000000000000 ) ) ;
#167 = PERSON_AND_ORGANIZATION ( #49, #105 ) ;
#168 = AXIS2_PLACEMENT_3D ( 'NONE', #235, #255, #40 ) ;
#169 = VERTEX_POINT ( 'NONE', #1 ) ;
#170 = AXIS2_PLACEMENT_3D ( 'NONE', #195, #59, #35 ) ;
#171 = APPROVAL_STATUS ( 'not_yet_approved' ) ;
#172 = CIRCLE ( 'NONE', #103, 2.750000000000000000 ) ;
#173 = VECTOR ( 'NONE', #31, 1000.000000000000000 ) ;
#174 = CYLINDRICAL_SURFACE ( 'NONE', #8, 1.500000000000000000 ) ;
#175 = DIRECTION ( 'NONE',  ( 0.000000000000000000, 0.000000000000000000, 1.000000000000000000 ) ) ;
#176 = FACE_OUTER_BOUND ( 'NONE', #14, .T. ) ;
#177 = VERTEX_POINT ( 'NONE', #166 ) ;
#178 = CARTESIAN_POINT ( 'NONE',  ( 1.500000000000000000, 1.836970198721029934E-16, 0.000000000000000000 ) ) ;
#179 = DIRECTION ( 'NONE',  ( 0.000000000000000000, 0.000000000000000000, 1.000000000000000000 ) ) ;
#180 = LINE ( 'NONE', #178, #117 ) ;
#181 = DATE_AND_TIME ( #133, #15 ) ;
#182 = PERSON_AND_ORGANIZATION ( #49, #105 ) ;
#183 = EDGE_LOOP ( 'NONE', ( #43, #29 ) ) ;
#184 = PERSON_AND_ORGANIZATION ( #49, #105 ) ;
#185 = CC_DESIGN_PERSON_AND_ORGANIZATION_ASSIGNMENT ( #67, #4, ( #233 ) ) ;
#186 = ORIENTED_EDGE ( 'NONE', *, *, #224, .F. ) ;
#187 = APPROVAL_PERSON_ORGANIZATION ( #24, #38, #202 ) ;
#188 = CARTESIAN_POINT ( 'NONE',  ( -2.750000000000000000, 0.000000000000000000, 0.000000000000000000 ) ) ;
#189 = DIRECTION ( 'NONE',  ( -0.000000000000000000, -0.000000000000000000, -1.000000000000000000 ) ) ;
#190 = AXIS2_PLACEMENT_3D ( 'NONE', #139, #50, #116 ) ;
#191 = ORIENTED_EDGE ( 'NONE', *, *, #9, .T. ) ;
#192 = ORIENTED_EDGE ( 'NONE', *, *, #69, .F. ) ;
#193 =( NAMED_UNIT ( * ) PLANE_ANGLE_UNIT ( ) SI_UNIT ( $, .RADIAN. ) );
#194 = CC_DESIGN_DATE_AND_TIME_ASSIGNMENT ( #130, #244, ( #84 ) ) ;
#195 = CARTESIAN_POINT ( 'NONE',  ( 0.000000000000000000, 0.000000000000000000, 3.000000000000000000 ) ) ;
#196 =( NAMED_UNIT ( * ) SI_UNIT ( $, .STERADIAN. ) SOLID_ANGLE_UNIT ( ) );
#197 = EDGE_CURVE ( 'NONE', #65, #48, #180, .T. ) ;
#198 = SHAPE_DEFINITION_REPRESENTATION ( #162, #3 ) ;
#199 = ORIENTED_EDGE ( 'NONE', *, *, #46, .F. ) ;
#200 = ORIENTED_EDGE ( 'NONE', *, *, #74, .F. ) ;
#201 = ADVANCED_FACE ( 'NONE', ( #213, #123 ), #78, .F. ) ;
#202 = APPROVAL_ROLE ( '' ) ;
#203 = APPROVAL_STATUS ( 'not_yet_approved' ) ;
#204 = CC_DESIGN_SECURITY_CLASSIFICATION ( #208, ( #233 ) ) ;
#205 = CALENDAR_DATE ( 2026, 12, 9 ) ;
#206 = ORIENTED_EDGE ( 'NONE', *, *, #227, .F. ) ;
#207 = ORIENTED_EDGE ( 'NONE', *, *, #224, .T. ) ;
#208 = SECURITY_CLASSIFICATION ( '', '', #131 ) ;
#209 = DIRECTION ( 'NONE',  ( -1.000000000000000000, 0.000000000000000000, 0.000000000000000000 ) ) ;
#210 = PLANE ( 'NONE',  #57 ) ;
#211 = AXIS2_PLACEMENT_3D ( 'NONE', #23, #163, #79 ) ;
#212 = DIRECTION ( 'NONE',  ( -0.000000000000000000, -0.000000000000000000, -1.000000000000000000 ) ) ;
#213 = FACE_BOUND ( 'NONE', #183, .T. ) ;
#214 = MECHANICAL_CONTEXT ( 'NONE', #62, 'mechanical' ) ;
#215 = EDGE_CURVE ( 'NONE', #107, #65, #64, .T. ) ;
#216 = APPLICATION_PROTOCOL_DEFINITION ( 'international standard', 'config_control_design', 1994, #62 ) ;
#217 = DIRECTION ( 'NONE',  ( 0.000000000000000000, 0.000000000000000000, 1.000000000000000000 ) ) ;
#218 = APPLICATION_PROTOCOL_DEFINITION ( 'international standard', 'config_control_design', 1994, #45 ) ;
#219 = PERSON_AND_ORGANIZATION_ROLE ( 'classification_officer' ) ;
#220 = CC_DESIGN_APPROVAL ( #55, ( #208 ) ) ;
#221 = CC_DESIGN_PERSON_AND_ORGANIZATION_ASSIGNMENT ( #167, #104, ( #233 ) ) ;
#222 = COORDINATED_UNIVERSAL_TIME_OFFSET ( 6, 0, .BEHIND. ) ;
#223 = CARTESIAN_POINT ( 'NONE',  ( 0.000000000000000000, 0.000000000000000000, -14.00000000000000000 ) ) ;
#224 = EDGE_CURVE ( 'NONE', #70, #150, #19, .T. ) ;
#225 = EDGE_LOOP ( 'NONE', ( #206, #88, #239, #192 ) ) ;
#226 = DIRECTION ( 'NONE',  ( 0.000000000000000000, 0.000000000000000000, 1.000000000000000000 ) ) ;
#227 = EDGE_CURVE ( 'NONE', #129, #169, #250, .T. ) ;
#228 = CARTESIAN_POINT ( 'NONE',  ( 1.500000000000000000, 1.836970198721029934E-16, -14.00000000000000000 ) ) ;
#229 = CARTESIAN_POINT ( 'NONE',  ( 0.000000000000000000, 0.000000000000000000, 0.000000000000000000 ) ) ;
#230 = AXIS2_PLACEMENT_3D ( 'NONE', #223, #53, #32 ) ;
#231 = DIRECTION ( 'NONE',  ( -1.000000000000000000, 0.000000000000000000, 0.000000000000000000 ) ) ;
#232 = ADVANCED_FACE ( 'NONE', ( #2 ), #20, .T. ) ;
#233 = PRODUCT_DEFINITION_FORMATION_WITH_SPECIFIED_SOURCE ( 'ANY', '', #164, .NOT_KNOWN. ) ;
#234 = DIRECTION ( 'NONE',  ( 0.000000000000000000, 0.000000000000000000, 1.000000000000000000 ) ) ;
#235 = CARTESIAN_POINT ( 'NONE',  ( 0.000000000000000000, 0.000000000000000000, 0.000000000000000000 ) ) ;
#236 = CARTESIAN_POINT ( 'NONE',  ( 0.000000000000000000, 0.000000000000000000, 0.000000000000000000 ) ) ;
#237 = ADVANCED_FACE ( 'NONE', ( #124 ), #18, .T. ) ;
#238 = COORDINATED_UNIVERSAL_TIME_OFFSET ( 6, 0, .BEHIND. ) ;
#239 = ORIENTED_EDGE ( 'NONE', *, *, #51, .T. ) ;
#240 = APPROVAL_ROLE ( '' ) ;
#241 = DATE_AND_TIME ( #205, #152 ) ;
#242 = EDGE_LOOP ( 'NONE', ( #200, #126, #110, #207 ) ) ;
#243 = CIRCLE ( 'NONE', #81, 1.500000000000000000 ) ;
#244 = DATE_TIME_ROLE ( 'creation_date' ) ;
#245 = APPROVAL ( #171, 'UNSPECIFIED' ) ;
#246 = CARTESIAN_POINT ( 'NONE',  ( 2.750000000000000000, 3.367778697655221012E-16, 3.000000000000000000 ) ) ;
#247 = LOCAL_TIME ( 21, 39, 51.00000000000000000, #63 ) ;
#248 = DIRECTION ( 'NONE',  ( -0.000000000000000000, -0.000000000000000000, -1.000000000000000000 ) ) ;
#249 = ORIENTED_EDGE ( 'NONE', *, *, #121, .T. ) ;
#250 = CIRCLE ( 'NONE', #170, 2.750000000000000000 ) ;
#251 = PRODUCT_RELATED_PRODUCT_CATEGORY ( 'detail', '', ( #164 ) ) ;
#252 = CARTESIAN_POINT ( 'NONE',  ( 2.750000000000000000, 3.367778697655221012E-16, 3.000000000000000000 ) ) ;
#253 = EDGE_LOOP ( 'NONE', ( #73, #12 ) ) ;
#254 = DIRECTION ( 'NONE',  ( 1.000000000000000000, 0.000000000000000000, 0.000000000000000000 ) ) ;
#255 = DIRECTION ( 'NONE',  ( 0.000000000000000000, 0.000000000000000000, 1.000000000000000000 ) ) ;
ENDSEC;
END-ISO-10303-21;
