ISO-10303-21;
HEADER;
FILE_DESCRIPTION (( 'STEP AP203' ),
    '1' );
FILE_NAME ('HW-S_M3x8_LOW_HEAD_D5p5_H2_ENVELOPE.step',
    '2026-09-28T23:10:09',
    ( '' ),
    ( '' ),
    'SwSTEP 2.0',
    'SolidWorks 2026',
    '' );
FILE_SCHEMA (( 'CONFIG_CONTROL_DESIGN' ));
ENDSEC;

DATA;
#1 = AXIS2_PLACEMENT_3D ( 'NONE', #114, #224, #81 ) ;
#2 = EDGE_LOOP ( 'NONE', ( #23, #93, #222, #26 ) ) ;
#3 = EDGE_LOOP ( 'NONE', ( #161, #162, #219, #182 ) ) ;
#4 = AXIS2_PLACEMENT_3D ( 'NONE', #188, #190, #83 ) ;
#5 = LINE ( 'NONE', #160, #141 ) ;
#6 = CARTESIAN_POINT ( 'NONE',  ( -1.500000000000000000, 0.000000000000000000, 0.000000000000000000 ) ) ;
#7 = CC_DESIGN_DATE_AND_TIME_ASSIGNMENT ( #127, #34, ( #151 ) ) ;
#8 = DIRECTION ( 'NONE',  ( 1.000000000000000000, 0.000000000000000000, 0.000000000000000000 ) ) ;
#9 = FACE_OUTER_BOUND ( 'NONE', #2, .T. ) ;
#10 = CYLINDRICAL_SURFACE ( 'NONE', #166, 1.500000000000000000 ) ;
#11 = APPROVAL ( #254, 'UNSPECIFIED' ) ;
#12 = DIRECTION ( 'NONE',  ( 1.000000000000000000, 0.000000000000000000, -0.000000000000000000 ) ) ;
#13 = AXIS2_PLACEMENT_3D ( 'NONE', #186, #32, #88 ) ;
#14 = PLANE ( 'NONE',  #77 ) ;
#15 = EDGE_CURVE ( 'NONE', #242, #78, #44, .T. ) ;
#16 = PERSON ( 'UNSPECIFIED', 'UNSPECIFIED', 'UNSPECIFIED', ('UNSPECIFIED'), ('UNSPECIFIED'), ('UNSPECIFIED') ) ;
#17 = PERSON_AND_ORGANIZATION ( #16, #62 ) ;
#18 = APPROVAL_DATE_TIME ( #214, #98 ) ;
#19 = AXIS2_PLACEMENT_3D ( 'NONE', #156, #59, #129 ) ;
#20 =( NAMED_UNIT ( * ) SI_UNIT ( $, .STERADIAN. ) SOLID_ANGLE_UNIT ( ) );
#21 = EDGE_LOOP ( 'NONE', ( #220, #80 ) ) ;
#22 = APPROVAL_PERSON_ORGANIZATION ( #255, #11, #177 ) ;
#23 = ORIENTED_EDGE ( 'NONE', *, *, #225, .F. ) ;
#24 = FACE_OUTER_BOUND ( 'NONE', #63, .T. ) ;
#25 = AXIS2_PLACEMENT_3D ( 'NONE', #209, #51, #100 ) ;
#26 = ORIENTED_EDGE ( 'NONE', *, *, #157, .T. ) ;
#27 = ORIENTED_EDGE ( 'NONE', *, *, #215, .T. ) ;
#28 = CYLINDRICAL_SURFACE ( 'NONE', #145, 2.750000000000000000 ) ;
#29 = MANIFOLD_SOLID_BREP ( 'Head_envelope_D5p5_H2p0', #84 ) ;
#30 = DIRECTION ( 'NONE',  ( 0.000000000000000000, 0.000000000000000000, 1.000000000000000000 ) ) ;
#31 = APPROVAL_PERSON_ORGANIZATION ( #109, #199, #131 ) ;
#32 = DIRECTION ( 'NONE',  ( 0.000000000000000000, 0.000000000000000000, 1.000000000000000000 ) ) ;
#33 = CARTESIAN_POINT ( 'NONE',  ( 2.750000000000000000, 3.367778697655221012E-16, 2.000000000000000000 ) ) ;
#34 = DATE_TIME_ROLE ( 'classification_date' ) ;
#35 = CIRCLE ( 'NONE', #175, 1.500000000000000000 ) ;
#36 = PERSON_AND_ORGANIZATION_ROLE ( 'creator' ) ;
#37 = AXIS2_PLACEMENT_3D ( 'NONE', #86, #52, #245 ) ;
#38 = PERSON_AND_ORGANIZATION ( #16, #62 ) ;
#39 = COORDINATED_UNIVERSAL_TIME_OFFSET ( 6, 0, .BEHIND. ) ;
#40 = ADVANCED_FACE ( 'NONE', ( #24 ), #41, .T. ) ;
#41 = CYLINDRICAL_SURFACE ( 'NONE', #1, 1.500000000000000000 ) ;
#42 = DIRECTION ( 'NONE',  ( -0.000000000000000000, -0.000000000000000000, -1.000000000000000000 ) ) ;
#43 = CC_DESIGN_APPROVAL ( #11, ( #115 ) ) ;
#44 = LINE ( 'NONE', #6, #134 ) ;
#45 = ORIENTED_EDGE ( 'NONE', *, *, #15, .F. ) ;
#46 = CIRCLE ( 'NONE', #37, 1.500000000000000000 ) ;
#47 = ORIENTED_EDGE ( 'NONE', *, *, #189, .T. ) ;
#48 = PLANE ( 'NONE',  #110 ) ;
#49 = FACE_OUTER_BOUND ( 'NONE', #137, .T. ) ;
#50 = EDGE_CURVE ( 'NONE', #180, #92, #5, .T. ) ;
#51 = DIRECTION ( 'NONE',  ( -0.000000000000000000, -0.000000000000000000, -1.000000000000000000 ) ) ;
#52 = DIRECTION ( 'NONE',  ( 0.000000000000000000, 0.000000000000000000, 1.000000000000000000 ) ) ;
#53 = CC_DESIGN_PERSON_AND_ORGANIZATION_ASSIGNMENT ( #38, #112, ( #138 ) ) ;
#54 = PLANE ( 'NONE',  #105 ) ;
#55 = CALENDAR_DATE ( 2026, 28, 9 ) ;
#56 = APPROVAL_DATE_TIME ( #75, #11 ) ;
#57 = LOCAL_TIME ( 18, 10, 9.000000000000000000, #111 ) ;
#58 = AXIS2_PLACEMENT_3D ( 'NONE', #229, #66, #73 ) ;
#59 = DIRECTION ( 'NONE',  ( 0.000000000000000000, 0.000000000000000000, 1.000000000000000000 ) ) ;
#60 = VERTEX_POINT ( 'NONE', #240 ) ;
#61 = CARTESIAN_POINT ( 'NONE',  ( -1.500000000000000000, 0.000000000000000000, -8.000000000000000000 ) ) ;
#62 = ORGANIZATION ( 'UNSPECIFIED', 'UNSPECIFIED', '' ) ;
#63 = EDGE_LOOP ( 'NONE', ( #133, #47, #27, #45 ) ) ;
#64 = CC_DESIGN_PERSON_AND_ORGANIZATION_ASSIGNMENT ( #252, #36, ( #115 ) ) ;
#65 = FACE_OUTER_BOUND ( 'NONE', #3, .T. ) ;
#66 = DIRECTION ( 'NONE',  ( 0.000000000000000000, 0.000000000000000000, 1.000000000000000000 ) ) ;
#67 = CC_DESIGN_PERSON_AND_ORGANIZATION_ASSIGNMENT ( #17, #192, ( #115 ) ) ;
#68 = LINE ( 'NONE', #33, #247 ) ;
#69 = CARTESIAN_POINT ( 'NONE',  ( -1.500000000000000000, 0.000000000000000000, 0.000000000000000000 ) ) ;
#70 = CIRCLE ( 'NONE', #155, 2.750000000000000000 ) ;
#71 = UNCERTAINTY_MEASURE_WITH_UNIT (LENGTH_MEASURE( 1.000000000000000082E-05 ), #196, 'distance_accuracy_value', 'NONE');
#72 = DIRECTION ( 'NONE',  ( 1.000000000000000000, 0.000000000000000000, 0.000000000000000000 ) ) ;
#73 = DIRECTION ( 'NONE',  ( 1.000000000000000000, 0.000000000000000000, 0.000000000000000000 ) ) ;
#74 = SECURITY_CLASSIFICATION_LEVEL ( 'unclassified' ) ;
#75 = DATE_AND_TIME ( #251, #187 ) ;
#76 = LOCAL_TIME ( 18, 10, 9.000000000000000000, #232 ) ;
#77 = AXIS2_PLACEMENT_3D ( 'NONE', #249, #121, #208 ) ;
#78 = VERTEX_POINT ( 'NONE', #61 ) ;
#79 = ORIENTED_EDGE ( 'NONE', *, *, #184, .F. ) ;
#80 = ORIENTED_EDGE ( 'NONE', *, *, #195, .F. ) ;
#81 = DIRECTION ( 'NONE',  ( -1.000000000000000000, 0.000000000000000000, 0.000000000000000000 ) ) ;
#82 = FACE_OUTER_BOUND ( 'NONE', #21, .T. ) ;
#83 = DIRECTION ( 'NONE',  ( 1.000000000000000000, 0.000000000000000000, 0.000000000000000000 ) ) ;
#84 = CLOSED_SHELL ( 'NONE', ( #103, #40, #239, #107, #198, #238, #167 ) ) ;
#85 = CARTESIAN_POINT ( 'NONE',  ( 0.000000000000000000, 0.000000000000000000, 0.000000000000000000 ) ) ;
#86 = CARTESIAN_POINT ( 'NONE',  ( 0.000000000000000000, 0.000000000000000000, -8.000000000000000000 ) ) ;
#87 = CIRCLE ( 'NONE', #58, 1.500000000000000000 ) ;
#88 = DIRECTION ( 'NONE',  ( 1.000000000000000000, 0.000000000000000000, 0.000000000000000000 ) ) ;
#89 = COORDINATED_UNIVERSAL_TIME_OFFSET ( 6, 0, .BEHIND. ) ;
#90 = MECHANICAL_CONTEXT ( 'NONE', #119, 'mechanical' ) ;
#91 = EDGE_CURVE ( 'NONE', #78, #139, #35, .T. ) ;
#92 = VERTEX_POINT ( 'NONE', #96 ) ;
#93 = ORIENTED_EDGE ( 'NONE', *, *, #204, .F. ) ;
#94 = DIRECTION ( 'NONE',  ( 1.000000000000000000, 0.000000000000000000, 0.000000000000000000 ) ) ;
#95 = CIRCLE ( 'NONE', #4, 1.500000000000000000 ) ;
#96 = CARTESIAN_POINT ( 'NONE',  ( -2.750000000000000000, 0.000000000000000000, 0.000000000000000000 ) ) ;
#97 = ORIENTED_EDGE ( 'NONE', *, *, #172, .T. ) ;
#98 = APPROVAL ( #106, 'UNSPECIFIED' ) ;
#99 = DIRECTION ( 'NONE',  ( -0.000000000000000000, -0.000000000000000000, -1.000000000000000000 ) ) ;
#100 = DIRECTION ( 'NONE',  ( -1.000000000000000000, 0.000000000000000000, 0.000000000000000000 ) ) ;
#101 = APPROVAL_PERSON_ORGANIZATION ( #152, #98, #193 ) ;
#102 = CARTESIAN_POINT ( 'NONE',  ( 0.000000000000000000, 0.000000000000000000, 2.000000000000000000 ) ) ;
#103 = ADVANCED_FACE ( 'NONE', ( #65 ), #226, .T. ) ;
#104 = DIRECTION ( 'NONE',  ( -0.000000000000000000, -0.000000000000000000, -1.000000000000000000 ) ) ;
#105 = AXIS2_PLACEMENT_3D ( 'NONE', #122, #207, #123 ) ;
#106 = APPROVAL_STATUS ( 'not_yet_approved' ) ;
#107 = ADVANCED_FACE ( 'NONE', ( #244 ), #54, .F. ) ;
#108 = DESIGN_CONTEXT ( 'detailed design', #163, 'design' ) ;
#109 = PERSON_AND_ORGANIZATION ( #16, #62 ) ;
#110 = AXIS2_PLACEMENT_3D ( 'NONE', #124, #30, #12 ) ;
#111 = COORDINATED_UNIVERSAL_TIME_OFFSET ( 6, 0, .BEHIND. ) ;
#112 = PERSON_AND_ORGANIZATION_ROLE ( 'creator' ) ;
#113 = DIRECTION ( 'NONE',  ( -0.000000000000000000, -0.000000000000000000, -1.000000000000000000 ) ) ;
#114 = CARTESIAN_POINT ( 'NONE',  ( 0.000000000000000000, 0.000000000000000000, 0.000000000000000000 ) ) ;
#115 = PRODUCT_DEFINITION_FORMATION_WITH_SPECIFIED_SOURCE ( 'ANY', '', #230, .NOT_KNOWN. ) ;
#116 = VERTEX_POINT ( 'NONE', #169 ) ;
#117 = VERTEX_POINT ( 'NONE', #248 ) ;
#118 = AXIS2_PLACEMENT_3D ( 'NONE', #147, #211, #72 ) ;
#119 = APPLICATION_CONTEXT ( 'configuration controlled 3d designs of mechanical parts and assemblies' ) ;
#120 = CARTESIAN_POINT ( 'NONE',  ( 0.000000000000000000, 0.000000000000000000, 0.000000000000000000 ) ) ;
#121 = DIRECTION ( 'NONE',  ( 0.000000000000000000, 0.000000000000000000, 1.000000000000000000 ) ) ;
#122 = CARTESIAN_POINT ( 'NONE',  ( 0.000000000000000000, 0.000000000000000000, -8.000000000000000000 ) ) ;
#123 = DIRECTION ( 'NONE',  ( 1.000000000000000000, 0.000000000000000000, -0.000000000000000000 ) ) ;
#124 = CARTESIAN_POINT ( 'NONE',  ( 0.000000000000000000, 0.000000000000000000, 0.000000000000000000 ) ) ;
#125 = EDGE_CURVE ( 'NONE', #116, #242, #87, .T. ) ;
#126 = ADVANCED_BREP_SHAPE_REPRESENTATION ( 'HW-S_M3x8_LOW_HEAD_D5p5_H2_ENVELOPE', ( #29, #19 ), #221 ) ;
#127 = DATE_AND_TIME ( #55, #76 ) ;
#128 = CALENDAR_DATE ( 2026, 28, 9 ) ;
#129 = DIRECTION ( 'NONE',  ( 1.000000000000000000, 0.000000000000000000, 0.000000000000000000 ) ) ;
#130 =( NAMED_UNIT ( * ) PLANE_ANGLE_UNIT ( ) SI_UNIT ( $, .RADIAN. ) );
#131 = APPROVAL_ROLE ( '' ) ;
#132 = ORIENTED_EDGE ( 'NONE', *, *, #125, .T. ) ;
#133 = ORIENTED_EDGE ( 'NONE', *, *, #125, .F. ) ;
#134 = VECTOR ( 'NONE', #42, 1000.000000000000000 ) ;
#135 = CARTESIAN_POINT ( 'NONE',  ( 0.000000000000000000, 0.000000000000000000, -8.000000000000000000 ) ) ;
#136 = CC_DESIGN_APPROVAL ( #98, ( #151 ) ) ;
#137 = EDGE_LOOP ( 'NONE', ( #206, #79, #237, #223 ) ) ;
#138 = PRODUCT_DEFINITION ( 'UNKNOWN', '', #115, #108 ) ;
#139 = VERTEX_POINT ( 'NONE', #228 ) ;
#140 = DIRECTION ( 'NONE',  ( -0.000000000000000000, -0.000000000000000000, -1.000000000000000000 ) ) ;
#141 = VECTOR ( 'NONE', #113, 1000.000000000000000 ) ;
#142 = DIRECTION ( 'NONE',  ( -1.000000000000000000, 0.000000000000000000, 0.000000000000000000 ) ) ;
#143 = DIRECTION ( 'NONE',  ( 0.000000000000000000, 0.000000000000000000, 1.000000000000000000 ) ) ;
#144 = PRODUCT_RELATED_PRODUCT_CATEGORY ( 'detail', '', ( #230 ) ) ;
#145 = AXIS2_PLACEMENT_3D ( 'NONE', #102, #99, #142 ) ;
#146 = FACE_BOUND ( 'NONE', #241, .T. ) ;
#147 = CARTESIAN_POINT ( 'NONE',  ( 0.000000000000000000, 0.000000000000000000, 0.000000000000000000 ) ) ;
#148 = CC_DESIGN_PERSON_AND_ORGANIZATION_ASSIGNMENT ( #149, #213, ( #151 ) ) ;
#149 = PERSON_AND_ORGANIZATION ( #16, #62 ) ;
#150 = DATE_AND_TIME ( #216, #57 ) ;
#151 = SECURITY_CLASSIFICATION ( '', '', #74 ) ;
#152 = PERSON_AND_ORGANIZATION ( #16, #62 ) ;
#153 = PERSON_AND_ORGANIZATION_ROLE ( 'design_owner' ) ;
#154 = CC_DESIGN_DATE_AND_TIME_ASSIGNMENT ( #173, #197, ( #138 ) ) ;
#155 = AXIS2_PLACEMENT_3D ( 'NONE', #171, #165, #185 ) ;
#156 = CARTESIAN_POINT ( 'NONE',  ( 0.000000000000000000, 0.000000000000000000, 0.000000000000000000 ) ) ;
#157 = EDGE_CURVE ( 'NONE', #92, #117, #181, .T. ) ;
#158 = PRODUCT_DEFINITION_SHAPE ( 'NONE', 'NONE',  #138 ) ;
#159 = EDGE_LOOP ( 'NONE', ( #203, #205 ) ) ;
#160 = CARTESIAN_POINT ( 'NONE',  ( -2.750000000000000000, 0.000000000000000000, 2.000000000000000000 ) ) ;
#161 = ORIENTED_EDGE ( 'NONE', *, *, #172, .F. ) ;
#162 = ORIENTED_EDGE ( 'NONE', *, *, #225, .T. ) ;
#163 = APPLICATION_CONTEXT ( 'configuration controlled 3d designs of mechanical parts and assemblies' ) ;
#164 = CARTESIAN_POINT ( 'NONE',  ( -2.750000000000000000, 0.000000000000000000, 2.000000000000000000 ) ) ;
#165 = DIRECTION ( 'NONE',  ( 0.000000000000000000, 0.000000000000000000, 1.000000000000000000 ) ) ;
#166 = AXIS2_PLACEMENT_3D ( 'NONE', #85, #168, #246 ) ;
#167 = ADVANCED_FACE ( 'NONE', ( #146, #82 ), #48, .F. ) ;
#168 = DIRECTION ( 'NONE',  ( -0.000000000000000000, -0.000000000000000000, -1.000000000000000000 ) ) ;
#169 = CARTESIAN_POINT ( 'NONE',  ( 1.500000000000000000, 1.836970198721029934E-16, 0.000000000000000000 ) ) ;
#170 = CIRCLE ( 'NONE', #236, 2.750000000000000000 ) ;
#171 = CARTESIAN_POINT ( 'NONE',  ( 0.000000000000000000, 0.000000000000000000, 2.000000000000000000 ) ) ;
#172 = EDGE_CURVE ( 'NONE', #60, #180, #217, .T. ) ;
#173 = DATE_AND_TIME ( #235, #234 ) ;
#174 = APPLICATION_PROTOCOL_DEFINITION ( 'international standard', 'config_control_design', 1994, #119 ) ;
#175 = AXIS2_PLACEMENT_3D ( 'NONE', #135, #200, #94 ) ;
#176 = APPLICATION_PROTOCOL_DEFINITION ( 'international standard', 'config_control_design', 1994, #163 ) ;
#177 = APPROVAL_ROLE ( '' ) ;
#178 = SHAPE_DEFINITION_REPRESENTATION ( #158, #126 ) ;
#179 = EDGE_LOOP ( 'NONE', ( #202, #97 ) ) ;
#180 = VERTEX_POINT ( 'NONE', #164 ) ;
#181 = CIRCLE ( 'NONE', #118, 2.750000000000000000 ) ;
#182 = ORIENTED_EDGE ( 'NONE', *, *, #50, .F. ) ;
#183 = ORIENTED_EDGE ( 'NONE', *, *, #184, .T. ) ;
#184 = EDGE_CURVE ( 'NONE', #242, #116, #95, .T. ) ;
#185 = DIRECTION ( 'NONE',  ( 1.000000000000000000, 0.000000000000000000, 0.000000000000000000 ) ) ;
#186 = CARTESIAN_POINT ( 'NONE',  ( 0.000000000000000000, 0.000000000000000000, 2.000000000000000000 ) ) ;
#187 = LOCAL_TIME ( 18, 10, 9.000000000000000000, #39 ) ;
#188 = CARTESIAN_POINT ( 'NONE',  ( 0.000000000000000000, 0.000000000000000000, 0.000000000000000000 ) ) ;
#189 = EDGE_CURVE ( 'NONE', #116, #139, #212, .T. ) ;
#190 = DIRECTION ( 'NONE',  ( 0.000000000000000000, 0.000000000000000000, 1.000000000000000000 ) ) ;
#191 = VECTOR ( 'NONE', #140, 1000.000000000000000 ) ;
#192 = PERSON_AND_ORGANIZATION_ROLE ( 'design_supplier' ) ;
#193 = APPROVAL_ROLE ( '' ) ;
#194 = APPROVAL_STATUS ( 'not_yet_approved' ) ;
#195 = EDGE_CURVE ( 'NONE', #117, #92, #170, .T. ) ;
#196 =( LENGTH_UNIT ( ) NAMED_UNIT ( * ) SI_UNIT ( .MILLI., .METRE. ) );
#197 = DATE_TIME_ROLE ( 'creation_date' ) ;
#198 = ADVANCED_FACE ( 'NONE', ( #9 ), #28, .T. ) ;
#199 = APPROVAL ( #194, 'UNSPECIFIED' ) ;
#200 = DIRECTION ( 'NONE',  ( 0.000000000000000000, 0.000000000000000000, 1.000000000000000000 ) ) ;
#201 = CC_DESIGN_APPROVAL ( #199, ( #138 ) ) ;
#202 = ORIENTED_EDGE ( 'NONE', *, *, #204, .T. ) ;
#203 = ORIENTED_EDGE ( 'NONE', *, *, #91, .F. ) ;
#204 = EDGE_CURVE ( 'NONE', #180, #60, #70, .T. ) ;
#205 = ORIENTED_EDGE ( 'NONE', *, *, #215, .F. ) ;
#206 = ORIENTED_EDGE ( 'NONE', *, *, #189, .F. ) ;
#207 = DIRECTION ( 'NONE',  ( 0.000000000000000000, 0.000000000000000000, 1.000000000000000000 ) ) ;
#208 = DIRECTION ( 'NONE',  ( 1.000000000000000000, 0.000000000000000000, -0.000000000000000000 ) ) ;
#209 = CARTESIAN_POINT ( 'NONE',  ( 0.000000000000000000, 0.000000000000000000, 2.000000000000000000 ) ) ;
#210 = LOCAL_TIME ( 18, 10, 9.000000000000000000, #89 ) ;
#211 = DIRECTION ( 'NONE',  ( 0.000000000000000000, 0.000000000000000000, 1.000000000000000000 ) ) ;
#212 = LINE ( 'NONE', #231, #191 ) ;
#213 = PERSON_AND_ORGANIZATION_ROLE ( 'classification_officer' ) ;
#214 = DATE_AND_TIME ( #128, #210 ) ;
#215 = EDGE_CURVE ( 'NONE', #139, #78, #46, .T. ) ;
#216 = CALENDAR_DATE ( 2026, 28, 9 ) ;
#217 = CIRCLE ( 'NONE', #13, 2.750000000000000000 ) ;
#218 = PERSON_AND_ORGANIZATION ( #16, #62 ) ;
#219 = ORIENTED_EDGE ( 'NONE', *, *, #195, .T. ) ;
#220 = ORIENTED_EDGE ( 'NONE', *, *, #157, .F. ) ;
#221 =( GEOMETRIC_REPRESENTATION_CONTEXT ( 3 ) GLOBAL_UNCERTAINTY_ASSIGNED_CONTEXT ( ( #71 ) ) GLOBAL_UNIT_ASSIGNED_CONTEXT ( ( #196, #130, #20 ) ) REPRESENTATION_CONTEXT ( 'NONE', 'WORKASPACE' ) );
#222 = ORIENTED_EDGE ( 'NONE', *, *, #50, .T. ) ;
#223 = ORIENTED_EDGE ( 'NONE', *, *, #91, .T. ) ;
#224 = DIRECTION ( 'NONE',  ( -0.000000000000000000, -0.000000000000000000, -1.000000000000000000 ) ) ;
#225 = EDGE_CURVE ( 'NONE', #60, #117, #68, .T. ) ;
#226 = CYLINDRICAL_SURFACE ( 'NONE', #25, 2.750000000000000000 ) ;
#227 = FACE_OUTER_BOUND ( 'NONE', #179, .T. ) ;
#228 = CARTESIAN_POINT ( 'NONE',  ( 1.500000000000000000, 1.836970198721029934E-16, -8.000000000000000000 ) ) ;
#229 = CARTESIAN_POINT ( 'NONE',  ( 0.000000000000000000, 0.000000000000000000, 0.000000000000000000 ) ) ;
#230 = PRODUCT ( 'HW-S_M3x8_LOW_HEAD_D5p5_H2_ENVELOPE', 'HW-S_M3x8_LOW_HEAD_D5p5_H2_ENVELOPE', '', ( #90 ) ) ;
#231 = CARTESIAN_POINT ( 'NONE',  ( 1.500000000000000000, 1.836970198721029934E-16, 0.000000000000000000 ) ) ;
#232 = COORDINATED_UNIVERSAL_TIME_OFFSET ( 6, 0, .BEHIND. ) ;
#233 = COORDINATED_UNIVERSAL_TIME_OFFSET ( 6, 0, .BEHIND. ) ;
#234 = LOCAL_TIME ( 18, 10, 9.000000000000000000, #233 ) ;
#235 = CALENDAR_DATE ( 2026, 28, 9 ) ;
#236 = AXIS2_PLACEMENT_3D ( 'NONE', #120, #143, #8 ) ;
#237 = ORIENTED_EDGE ( 'NONE', *, *, #15, .T. ) ;
#238 = ADVANCED_FACE ( 'NONE', ( #227 ), #14, .T. ) ;
#239 = ADVANCED_FACE ( 'NONE', ( #49 ), #10, .T. ) ;
#240 = CARTESIAN_POINT ( 'NONE',  ( 2.750000000000000000, 3.367778697655221012E-16, 2.000000000000000000 ) ) ;
#241 = EDGE_LOOP ( 'NONE', ( #183, #132 ) ) ;
#242 = VERTEX_POINT ( 'NONE', #69 ) ;
#243 = CC_DESIGN_PERSON_AND_ORGANIZATION_ASSIGNMENT ( #218, #153, ( #230 ) ) ;
#244 = FACE_OUTER_BOUND ( 'NONE', #159, .T. ) ;
#245 = DIRECTION ( 'NONE',  ( 1.000000000000000000, 0.000000000000000000, 0.000000000000000000 ) ) ;
#246 = DIRECTION ( 'NONE',  ( -1.000000000000000000, 0.000000000000000000, 0.000000000000000000 ) ) ;
#247 = VECTOR ( 'NONE', #104, 1000.000000000000000 ) ;
#248 = CARTESIAN_POINT ( 'NONE',  ( 2.750000000000000000, 3.367778697655221012E-16, 0.000000000000000000 ) ) ;
#249 = CARTESIAN_POINT ( 'NONE',  ( 0.000000000000000000, 0.000000000000000000, 2.000000000000000000 ) ) ;
#250 = APPROVAL_DATE_TIME ( #150, #199 ) ;
#251 = CALENDAR_DATE ( 2026, 28, 9 ) ;
#252 = PERSON_AND_ORGANIZATION ( #16, #62 ) ;
#253 = CC_DESIGN_SECURITY_CLASSIFICATION ( #151, ( #115 ) ) ;
#254 = APPROVAL_STATUS ( 'not_yet_approved' ) ;
#255 = PERSON_AND_ORGANIZATION ( #16, #62 ) ;
ENDSEC;
END-ISO-10303-21;
