ISO-10303-21;
HEADER;
FILE_DESCRIPTION (( 'STEP AP203' ),
    '1' );
FILE_NAME ('HW-S_M2x4_PAN_HEAD_D4_H1p6_ENVELOPE.step',
    '2026-09-28T23:10:15',
    ( '' ),
    ( '' ),
    'SwSTEP 2.0',
    'SolidWorks 2026',
    '' );
FILE_SCHEMA (( 'CONFIG_CONTROL_DESIGN' ));
ENDSEC;

DATA;
#1 = EDGE_CURVE ( 'NONE', #81, #119, #141, .T. ) ;
#2 = ORIENTED_EDGE ( 'NONE', *, *, #174, .T. ) ;
#3 = CARTESIAN_POINT ( 'NONE',  ( 0.000000000000000000, 0.000000000000000000, 0.000000000000000000 ) ) ;
#4 = DIRECTION ( 'NONE',  ( 1.000000000000000000, 0.000000000000000000, 0.000000000000000000 ) ) ;
#5 = CARTESIAN_POINT ( 'NONE',  ( 0.000000000000000000, 0.000000000000000000, 1.600000000000000089 ) ) ;
#6 = FACE_OUTER_BOUND ( 'NONE', #175, .T. ) ;
#7 = AXIS2_PLACEMENT_3D ( 'NONE', #70, #179, #163 ) ;
#8 = PERSON_AND_ORGANIZATION ( #249, #213 ) ;
#9 = DATE_AND_TIME ( #97, #142 ) ;
#10 = APPROVAL_ROLE ( '' ) ;
#11 = VECTOR ( 'NONE', #158, 1000.000000000000000 ) ;
#12 = DATE_AND_TIME ( #55, #116 ) ;
#13 = APPROVAL_ROLE ( '' ) ;
#14 = AXIS2_PLACEMENT_3D ( 'NONE', #66, #98, #41 ) ;
#15 = ORIENTED_EDGE ( 'NONE', *, *, #174, .F. ) ;
#16 = EDGE_CURVE ( 'NONE', #251, #42, #132, .T. ) ;
#17 = ORIENTED_EDGE ( 'NONE', *, *, #100, .F. ) ;
#18 = DIRECTION ( 'NONE',  ( 1.000000000000000000, 0.000000000000000000, 0.000000000000000000 ) ) ;
#19 = AXIS2_PLACEMENT_3D ( 'NONE', #86, #234, #122 ) ;
#20 = ORIENTED_EDGE ( 'NONE', *, *, #1, .F. ) ;
#21 = ORIENTED_EDGE ( 'NONE', *, *, #220, .T. ) ;
#22 = ADVANCED_BREP_SHAPE_REPRESENTATION ( 'HW-S_M2x4_PAN_HEAD_D4_H1p6_ENVELOPE', ( #39, #153 ), #195 ) ;
#23 = AXIS2_PLACEMENT_3D ( 'NONE', #193, #212, #18 ) ;
#24 = DIRECTION ( 'NONE',  ( -1.000000000000000000, 0.000000000000000000, 0.000000000000000000 ) ) ;
#25 = CC_DESIGN_PERSON_AND_ORGANIZATION_ASSIGNMENT ( #8, #133, ( #206 ) ) ;
#26 = DIRECTION ( 'NONE',  ( 0.000000000000000000, 0.000000000000000000, 1.000000000000000000 ) ) ;
#27 = EDGE_CURVE ( 'NONE', #60, #229, #44, .T. ) ;
#28 = DIRECTION ( 'NONE',  ( 0.000000000000000000, 0.000000000000000000, 1.000000000000000000 ) ) ;
#29 = AXIS2_PLACEMENT_3D ( 'NONE', #147, #106, #24 ) ;
#30 = APPROVAL_STATUS ( 'not_yet_approved' ) ;
#31 = DIRECTION ( 'NONE',  ( 1.000000000000000000, 0.000000000000000000, 0.000000000000000000 ) ) ;
#32 = APPLICATION_CONTEXT ( 'configuration controlled 3d designs of mechanical parts and assemblies' ) ;
#33 = APPLICATION_PROTOCOL_DEFINITION ( 'international standard', 'config_control_design', 1994, #32 ) ;
#34 = VECTOR ( 'NONE', #64, 1000.000000000000000 ) ;
#35 = PERSON_AND_ORGANIZATION ( #249, #213 ) ;
#36 = APPROVAL_ROLE ( '' ) ;
#37 = EDGE_CURVE ( 'NONE', #120, #81, #254, .T. ) ;
#38 = CARTESIAN_POINT ( 'NONE',  ( 1.000000000000000000, 1.224646799147353207E-16, 0.000000000000000000 ) ) ;
#39 = MANIFOLD_SOLID_BREP ( 'Head_envelope_D4p0_H1p6', #53 ) ;
#40 = ORIENTED_EDGE ( 'NONE', *, *, #243, .T. ) ;
#41 = DIRECTION ( 'NONE',  ( 1.000000000000000000, 0.000000000000000000, 0.000000000000000000 ) ) ;
#42 = VERTEX_POINT ( 'NONE', #170 ) ;
#43 = APPROVAL ( #30, 'UNSPECIFIED' ) ;
#44 = CIRCLE ( 'NONE', #14, 1.000000000000000000 ) ;
#45 = EDGE_LOOP ( 'NONE', ( #15, #207, #176, #21 ) ) ;
#46 = DIRECTION ( 'NONE',  ( 1.000000000000000000, 0.000000000000000000, 0.000000000000000000 ) ) ;
#47 = PLANE ( 'NONE',  #78 ) ;
#48 = CYLINDRICAL_SURFACE ( 'NONE', #29, 1.000000000000000000 ) ;
#49 = DIRECTION ( 'NONE',  ( 1.000000000000000000, 0.000000000000000000, -0.000000000000000000 ) ) ;
#50 = EDGE_CURVE ( 'NONE', #229, #42, #79, .T. ) ;
#51 = DIRECTION ( 'NONE',  ( 0.000000000000000000, 0.000000000000000000, 1.000000000000000000 ) ) ;
#52 = PERSON_AND_ORGANIZATION ( #249, #213 ) ;
#53 = CLOSED_SHELL ( 'NONE', ( #77, #233, #108, #180, #87, #182, #128 ) ) ;
#54 = CC_DESIGN_APPROVAL ( #43, ( #235 ) ) ;
#55 = CALENDAR_DATE ( 2026, 28, 9 ) ;
#56 = PERSON_AND_ORGANIZATION_ROLE ( 'design_supplier' ) ;
#57 = SHAPE_DEFINITION_REPRESENTATION ( #238, #22 ) ;
#58 = AXIS2_PLACEMENT_3D ( 'NONE', #237, #162, #109 ) ;
#59 = LOCAL_TIME ( 18, 10, 15.00000000000000000, #94 ) ;
#60 = VERTEX_POINT ( 'NONE', #38 ) ;
#61 = CC_DESIGN_PERSON_AND_ORGANIZATION_ASSIGNMENT ( #164, #95, ( #227 ) ) ;
#62 = ORIENTED_EDGE ( 'NONE', *, *, #140, .F. ) ;
#63 = CIRCLE ( 'NONE', #146, 2.000000000000000000 ) ;
#64 = DIRECTION ( 'NONE',  ( -0.000000000000000000, -0.000000000000000000, -1.000000000000000000 ) ) ;
#65 = DIRECTION ( 'NONE',  ( -0.000000000000000000, -0.000000000000000000, -1.000000000000000000 ) ) ;
#66 = CARTESIAN_POINT ( 'NONE',  ( 0.000000000000000000, 0.000000000000000000, 0.000000000000000000 ) ) ;
#67 = AXIS2_PLACEMENT_3D ( 'NONE', #240, #105, #217 ) ;
#68 = DIRECTION ( 'NONE',  ( 0.000000000000000000, 0.000000000000000000, 1.000000000000000000 ) ) ;
#69 =( LENGTH_UNIT ( ) NAMED_UNIT ( * ) SI_UNIT ( .MILLI., .METRE. ) );
#70 = CARTESIAN_POINT ( 'NONE',  ( 0.000000000000000000, 0.000000000000000000, -4.000000000000000000 ) ) ;
#71 = DIRECTION ( 'NONE',  ( 0.000000000000000000, 0.000000000000000000, 1.000000000000000000 ) ) ;
#72 = CARTESIAN_POINT ( 'NONE',  ( 0.000000000000000000, 0.000000000000000000, 0.000000000000000000 ) ) ;
#73 =( NAMED_UNIT ( * ) PLANE_ANGLE_UNIT ( ) SI_UNIT ( $, .RADIAN. ) );
#74 = DESIGN_CONTEXT ( 'detailed design', #187, 'design' ) ;
#75 = CIRCLE ( 'NONE', #67, 2.000000000000000000 ) ;
#76 = DATE_TIME_ROLE ( 'creation_date' ) ;
#77 = ADVANCED_FACE ( 'NONE', ( #231 ), #115, .T. ) ;
#78 = AXIS2_PLACEMENT_3D ( 'NONE', #5, #26, #242 ) ;
#79 = LINE ( 'NONE', #155, #124 ) ;
#80 = CARTESIAN_POINT ( 'NONE',  ( 0.000000000000000000, 0.000000000000000000, 1.600000000000000089 ) ) ;
#81 = VERTEX_POINT ( 'NONE', #91 ) ;
#82 = AXIS2_PLACEMENT_3D ( 'NONE', #80, #65, #143 ) ;
#83 = EDGE_LOOP ( 'NONE', ( #194, #228, #211, #20 ) ) ;
#84 = CC_DESIGN_DATE_AND_TIME_ASSIGNMENT ( #165, #76, ( #227 ) ) ;
#85 = ORIENTED_EDGE ( 'NONE', *, *, #1, .T. ) ;
#86 = CARTESIAN_POINT ( 'NONE',  ( 0.000000000000000000, 0.000000000000000000, 0.000000000000000000 ) ) ;
#87 = ADVANCED_FACE ( 'NONE', ( #161 ), #92, .T. ) ;
#88 = AXIS2_PLACEMENT_3D ( 'NONE', #221, #51, #46 ) ;
#89 = FACE_OUTER_BOUND ( 'NONE', #45, .T. ) ;
#90 = FACE_OUTER_BOUND ( 'NONE', #135, .T. ) ;
#91 = CARTESIAN_POINT ( 'NONE',  ( -2.000000000000000000, 0.000000000000000000, 1.600000000000000089 ) ) ;
#92 = CYLINDRICAL_SURFACE ( 'NONE', #58, 2.000000000000000000 ) ;
#93 = DATE_AND_TIME ( #205, #159 ) ;
#94 = COORDINATED_UNIVERSAL_TIME_OFFSET ( 6, 0, .BEHIND. ) ;
#95 = PERSON_AND_ORGANIZATION_ROLE ( 'creator' ) ;
#96 = EDGE_CURVE ( 'NONE', #192, #119, #75, .T. ) ;
#97 = CALENDAR_DATE ( 2026, 28, 9 ) ;
#98 = DIRECTION ( 'NONE',  ( 0.000000000000000000, 0.000000000000000000, 1.000000000000000000 ) ) ;
#99 = EDGE_LOOP ( 'NONE', ( #62, #17, #85, #104 ) ) ;
#100 = EDGE_CURVE ( 'NONE', #81, #120, #63, .T. ) ;
#101 = ORIENTED_EDGE ( 'NONE', *, *, #27, .F. ) ;
#102 = VECTOR ( 'NONE', #177, 1000.000000000000000 ) ;
#103 = DIRECTION ( 'NONE',  ( 1.000000000000000000, 0.000000000000000000, 0.000000000000000000 ) ) ;
#104 = ORIENTED_EDGE ( 'NONE', *, *, #196, .T. ) ;
#105 = DIRECTION ( 'NONE',  ( 0.000000000000000000, 0.000000000000000000, 1.000000000000000000 ) ) ;
#106 = DIRECTION ( 'NONE',  ( -0.000000000000000000, -0.000000000000000000, -1.000000000000000000 ) ) ;
#107 = CARTESIAN_POINT ( 'NONE',  ( 0.000000000000000000, 0.000000000000000000, 0.000000000000000000 ) ) ;
#108 = ADVANCED_FACE ( 'NONE', ( #89 ), #48, .T. ) ;
#109 = DIRECTION ( 'NONE',  ( -1.000000000000000000, 0.000000000000000000, 0.000000000000000000 ) ) ;
#110 = CYLINDRICAL_SURFACE ( 'NONE', #218, 1.000000000000000000 ) ;
#111 = APPROVAL_PERSON_ORGANIZATION ( #223, #171, #13 ) ;
#112 = COORDINATED_UNIVERSAL_TIME_OFFSET ( 6, 0, .BEHIND. ) ;
#113 = PERSON_AND_ORGANIZATION ( #249, #213 ) ;
#114 =( NAMED_UNIT ( * ) SI_UNIT ( $, .STERADIAN. ) SOLID_ANGLE_UNIT ( ) );
#115 = CYLINDRICAL_SURFACE ( 'NONE', #82, 2.000000000000000000 ) ;
#116 = LOCAL_TIME ( 18, 10, 15.00000000000000000, #186 ) ;
#117 = CC_DESIGN_SECURITY_CLASSIFICATION ( #190, ( #235 ) ) ;
#118 = ORIENTED_EDGE ( 'NONE', *, *, #16, .T. ) ;
#119 = VERTEX_POINT ( 'NONE', #215 ) ;
#120 = VERTEX_POINT ( 'NONE', #149 ) ;
#121 = ORIENTED_EDGE ( 'NONE', *, *, #16, .F. ) ;
#122 = DIRECTION ( 'NONE',  ( 1.000000000000000000, 0.000000000000000000, 0.000000000000000000 ) ) ;
#123 = DIRECTION ( 'NONE',  ( -1.000000000000000000, 0.000000000000000000, 0.000000000000000000 ) ) ;
#124 = VECTOR ( 'NONE', #157, 1000.000000000000000 ) ;
#125 = CARTESIAN_POINT ( 'NONE',  ( 2.000000000000000000, 2.449293598294706414E-16, 1.600000000000000089 ) ) ;
#126 = CARTESIAN_POINT ( 'NONE',  ( 1.000000000000000000, 1.224646799147353207E-16, 0.000000000000000000 ) ) ;
#127 = LINE ( 'NONE', #126, #102 ) ;
#128 = ADVANCED_FACE ( 'NONE', ( #178, #181 ), #219, .F. ) ;
#129 = DATE_TIME_ROLE ( 'classification_date' ) ;
#130 = PERSON_AND_ORGANIZATION ( #249, #213 ) ;
#131 = COORDINATED_UNIVERSAL_TIME_OFFSET ( 6, 0, .BEHIND. ) ;
#132 = CIRCLE ( 'NONE', #152, 1.000000000000000000 ) ;
#133 = PERSON_AND_ORGANIZATION_ROLE ( 'design_owner' ) ;
#134 = EDGE_LOOP ( 'NONE', ( #40, #139 ) ) ;
#135 = EDGE_LOOP ( 'NONE', ( #101, #2, #118, #172 ) ) ;
#136 = CIRCLE ( 'NONE', #250, 2.000000000000000000 ) ;
#137 = CC_DESIGN_APPROVAL ( #230, ( #190 ) ) ;
#138 = EDGE_LOOP ( 'NONE', ( #173, #154 ) ) ;
#139 = ORIENTED_EDGE ( 'NONE', *, *, #27, .T. ) ;
#140 = EDGE_CURVE ( 'NONE', #120, #192, #198, .T. ) ;
#141 = LINE ( 'NONE', #156, #34 ) ;
#142 = LOCAL_TIME ( 18, 10, 15.00000000000000000, #131 ) ;
#143 = DIRECTION ( 'NONE',  ( -1.000000000000000000, 0.000000000000000000, 0.000000000000000000 ) ) ;
#144 = DIRECTION ( 'NONE',  ( 1.000000000000000000, 0.000000000000000000, 0.000000000000000000 ) ) ;
#145 = CARTESIAN_POINT ( 'NONE',  ( 0.000000000000000000, 0.000000000000000000, 1.600000000000000089 ) ) ;
#146 = AXIS2_PLACEMENT_3D ( 'NONE', #145, #71, #144 ) ;
#147 = CARTESIAN_POINT ( 'NONE',  ( 0.000000000000000000, 0.000000000000000000, 0.000000000000000000 ) ) ;
#148 = CC_DESIGN_PERSON_AND_ORGANIZATION_ASSIGNMENT ( #202, #183, ( #235 ) ) ;
#149 = CARTESIAN_POINT ( 'NONE',  ( 2.000000000000000000, 2.449293598294706414E-16, 1.600000000000000089 ) ) ;
#150 = MECHANICAL_CONTEXT ( 'NONE', #32, 'mechanical' ) ;
#151 = APPROVAL_DATE_TIME ( #9, #171 ) ;
#152 = AXIS2_PLACEMENT_3D ( 'NONE', #210, #255, #103 ) ;
#153 = AXIS2_PLACEMENT_3D ( 'NONE', #224, #246, #31 ) ;
#154 = ORIENTED_EDGE ( 'NONE', *, *, #37, .T. ) ;
#155 = CARTESIAN_POINT ( 'NONE',  ( -1.000000000000000000, 0.000000000000000000, 0.000000000000000000 ) ) ;
#156 = CARTESIAN_POINT ( 'NONE',  ( -2.000000000000000000, 0.000000000000000000, 1.600000000000000089 ) ) ;
#157 = DIRECTION ( 'NONE',  ( -0.000000000000000000, -0.000000000000000000, -1.000000000000000000 ) ) ;
#158 = DIRECTION ( 'NONE',  ( -0.000000000000000000, -0.000000000000000000, -1.000000000000000000 ) ) ;
#159 = LOCAL_TIME ( 18, 10, 15.00000000000000000, #112 ) ;
#160 = CARTESIAN_POINT ( 'NONE',  ( 2.000000000000000000, 2.449293598294706414E-16, 0.000000000000000000 ) ) ;
#161 = FACE_OUTER_BOUND ( 'NONE', #99, .T. ) ;
#162 = DIRECTION ( 'NONE',  ( -0.000000000000000000, -0.000000000000000000, -1.000000000000000000 ) ) ;
#163 = DIRECTION ( 'NONE',  ( 1.000000000000000000, 0.000000000000000000, -0.000000000000000000 ) ) ;
#164 = PERSON_AND_ORGANIZATION ( #249, #213 ) ;
#165 = DATE_AND_TIME ( #247, #169 ) ;
#166 = UNCERTAINTY_MEASURE_WITH_UNIT (LENGTH_MEASURE( 1.000000000000000082E-05 ), #69, 'distance_accuracy_value', 'NONE');
#167 = APPROVAL_DATE_TIME ( #93, #43 ) ;
#168 = PERSON_AND_ORGANIZATION_ROLE ( 'classification_officer' ) ;
#169 = LOCAL_TIME ( 18, 10, 15.00000000000000000, #244 ) ;
#170 = CARTESIAN_POINT ( 'NONE',  ( -1.000000000000000000, 0.000000000000000000, -4.000000000000000000 ) ) ;
#171 = APPROVAL ( #222, 'UNSPECIFIED' ) ;
#172 = ORIENTED_EDGE ( 'NONE', *, *, #50, .F. ) ;
#173 = ORIENTED_EDGE ( 'NONE', *, *, #100, .T. ) ;
#174 = EDGE_CURVE ( 'NONE', #60, #251, #127, .T. ) ;
#175 = EDGE_LOOP ( 'NONE', ( #232, #121 ) ) ;
#176 = ORIENTED_EDGE ( 'NONE', *, *, #50, .T. ) ;
#177 = DIRECTION ( 'NONE',  ( -0.000000000000000000, -0.000000000000000000, -1.000000000000000000 ) ) ;
#178 = FACE_BOUND ( 'NONE', #134, .T. ) ;
#179 = DIRECTION ( 'NONE',  ( 0.000000000000000000, 0.000000000000000000, 1.000000000000000000 ) ) ;
#180 = ADVANCED_FACE ( 'NONE', ( #6 ), #216, .F. ) ;
#181 = FACE_OUTER_BOUND ( 'NONE', #191, .T. ) ;
#182 = ADVANCED_FACE ( 'NONE', ( #199 ), #47, .T. ) ;
#183 = PERSON_AND_ORGANIZATION_ROLE ( 'creator' ) ;
#184 = APPLICATION_PROTOCOL_DEFINITION ( 'international standard', 'config_control_design', 1994, #187 ) ;
#185 = SECURITY_CLASSIFICATION_LEVEL ( 'unclassified' ) ;
#186 = COORDINATED_UNIVERSAL_TIME_OFFSET ( 6, 0, .BEHIND. ) ;
#187 = APPLICATION_CONTEXT ( 'configuration controlled 3d designs of mechanical parts and assemblies' ) ;
#188 = PRODUCT_RELATED_PRODUCT_CATEGORY ( 'detail', '', ( #206 ) ) ;
#189 = CC_DESIGN_DATE_AND_TIME_ASSIGNMENT ( #12, #129, ( #190 ) ) ;
#190 = SECURITY_CLASSIFICATION ( '', '', #185 ) ;
#191 = EDGE_LOOP ( 'NONE', ( #209, #252 ) ) ;
#192 = VERTEX_POINT ( 'NONE', #160 ) ;
#193 = CARTESIAN_POINT ( 'NONE',  ( 0.000000000000000000, 0.000000000000000000, 1.600000000000000089 ) ) ;
#194 = ORIENTED_EDGE ( 'NONE', *, *, #37, .F. ) ;
#195 =( GEOMETRIC_REPRESENTATION_CONTEXT ( 3 ) GLOBAL_UNCERTAINTY_ASSIGNED_CONTEXT ( ( #166 ) ) GLOBAL_UNIT_ASSIGNED_CONTEXT ( ( #69, #73, #114 ) ) REPRESENTATION_CONTEXT ( 'NONE', 'WORKASPACE' ) );
#196 = EDGE_CURVE ( 'NONE', #119, #192, #136, .T. ) ;
#197 = CARTESIAN_POINT ( 'NONE',  ( 1.000000000000000000, 1.224646799147353207E-16, -4.000000000000000000 ) ) ;
#198 = LINE ( 'NONE', #125, #11 ) ;
#199 = FACE_OUTER_BOUND ( 'NONE', #138, .T. ) ;
#200 = CARTESIAN_POINT ( 'NONE',  ( -1.000000000000000000, 0.000000000000000000, 0.000000000000000000 ) ) ;
#201 = APPROVAL_STATUS ( 'not_yet_approved' ) ;
#202 = PERSON_AND_ORGANIZATION ( #249, #213 ) ;
#203 = DATE_AND_TIME ( #245, #59 ) ;
#204 = AXIS2_PLACEMENT_3D ( 'NONE', #107, #28, #49 ) ;
#205 = CALENDAR_DATE ( 2026, 28, 9 ) ;
#206 = PRODUCT ( 'HW-S_M2x4_PAN_HEAD_D4_H1p6_ENVELOPE', 'HW-S_M2x4_PAN_HEAD_D4_H1p6_ENVELOPE', '', ( #150 ) ) ;
#207 = ORIENTED_EDGE ( 'NONE', *, *, #243, .F. ) ;
#208 = APPROVAL_PERSON_ORGANIZATION ( #35, #43, #36 ) ;
#209 = ORIENTED_EDGE ( 'NONE', *, *, #196, .F. ) ;
#210 = CARTESIAN_POINT ( 'NONE',  ( 0.000000000000000000, 0.000000000000000000, -4.000000000000000000 ) ) ;
#211 = ORIENTED_EDGE ( 'NONE', *, *, #96, .T. ) ;
#212 = DIRECTION ( 'NONE',  ( 0.000000000000000000, 0.000000000000000000, 1.000000000000000000 ) ) ;
#213 = ORGANIZATION ( 'UNSPECIFIED', 'UNSPECIFIED', '' ) ;
#214 = APPROVAL_PERSON_ORGANIZATION ( #130, #230, #10 ) ;
#215 = CARTESIAN_POINT ( 'NONE',  ( -2.000000000000000000, 0.000000000000000000, 0.000000000000000000 ) ) ;
#216 = PLANE ( 'NONE',  #7 ) ;
#217 = DIRECTION ( 'NONE',  ( 1.000000000000000000, 0.000000000000000000, 0.000000000000000000 ) ) ;
#218 = AXIS2_PLACEMENT_3D ( 'NONE', #3, #239, #123 ) ;
#219 = PLANE ( 'NONE',  #204 ) ;
#220 = EDGE_CURVE ( 'NONE', #42, #251, #241, .T. ) ;
#221 = CARTESIAN_POINT ( 'NONE',  ( 0.000000000000000000, 0.000000000000000000, -4.000000000000000000 ) ) ;
#222 = APPROVAL_STATUS ( 'not_yet_approved' ) ;
#223 = PERSON_AND_ORGANIZATION ( #249, #213 ) ;
#224 = CARTESIAN_POINT ( 'NONE',  ( 0.000000000000000000, 0.000000000000000000, 0.000000000000000000 ) ) ;
#225 = APPROVAL_DATE_TIME ( #203, #230 ) ;
#226 = CIRCLE ( 'NONE', #19, 1.000000000000000000 ) ;
#227 = PRODUCT_DEFINITION ( 'UNKNOWN', '', #235, #74 ) ;
#228 = ORIENTED_EDGE ( 'NONE', *, *, #140, .T. ) ;
#229 = VERTEX_POINT ( 'NONE', #200 ) ;
#230 = APPROVAL ( #201, 'UNSPECIFIED' ) ;
#231 = FACE_OUTER_BOUND ( 'NONE', #83, .T. ) ;
#232 = ORIENTED_EDGE ( 'NONE', *, *, #220, .F. ) ;
#233 = ADVANCED_FACE ( 'NONE', ( #90 ), #110, .T. ) ;
#234 = DIRECTION ( 'NONE',  ( 0.000000000000000000, 0.000000000000000000, 1.000000000000000000 ) ) ;
#235 = PRODUCT_DEFINITION_FORMATION_WITH_SPECIFIED_SOURCE ( 'ANY', '', #206, .NOT_KNOWN. ) ;
#236 = CC_DESIGN_PERSON_AND_ORGANIZATION_ASSIGNMENT ( #113, #56, ( #235 ) ) ;
#237 = CARTESIAN_POINT ( 'NONE',  ( 0.000000000000000000, 0.000000000000000000, 1.600000000000000089 ) ) ;
#238 = PRODUCT_DEFINITION_SHAPE ( 'NONE', 'NONE',  #227 ) ;
#239 = DIRECTION ( 'NONE',  ( -0.000000000000000000, -0.000000000000000000, -1.000000000000000000 ) ) ;
#240 = CARTESIAN_POINT ( 'NONE',  ( 0.000000000000000000, 0.000000000000000000, 0.000000000000000000 ) ) ;
#241 = CIRCLE ( 'NONE', #88, 1.000000000000000000 ) ;
#242 = DIRECTION ( 'NONE',  ( 1.000000000000000000, 0.000000000000000000, -0.000000000000000000 ) ) ;
#243 = EDGE_CURVE ( 'NONE', #229, #60, #226, .T. ) ;
#244 = COORDINATED_UNIVERSAL_TIME_OFFSET ( 6, 0, .BEHIND. ) ;
#245 = CALENDAR_DATE ( 2026, 28, 9 ) ;
#246 = DIRECTION ( 'NONE',  ( 0.000000000000000000, 0.000000000000000000, 1.000000000000000000 ) ) ;
#247 = CALENDAR_DATE ( 2026, 28, 9 ) ;
#248 = CC_DESIGN_APPROVAL ( #171, ( #227 ) ) ;
#249 = PERSON ( 'UNSPECIFIED', 'UNSPECIFIED', 'UNSPECIFIED', ('UNSPECIFIED'), ('UNSPECIFIED'), ('UNSPECIFIED') ) ;
#250 = AXIS2_PLACEMENT_3D ( 'NONE', #72, #68, #4 ) ;
#251 = VERTEX_POINT ( 'NONE', #197 ) ;
#252 = ORIENTED_EDGE ( 'NONE', *, *, #96, .F. ) ;
#253 = CC_DESIGN_PERSON_AND_ORGANIZATION_ASSIGNMENT ( #52, #168, ( #190 ) ) ;
#254 = CIRCLE ( 'NONE', #23, 2.000000000000000000 ) ;
#255 = DIRECTION ( 'NONE',  ( 0.000000000000000000, 0.000000000000000000, 1.000000000000000000 ) ) ;
ENDSEC;
END-ISO-10303-21;
