ISO-10303-21;
HEADER;
FILE_DESCRIPTION (( 'STEP AP203' ),
    '1' );
FILE_NAME ('HW-S_M3x20_socket_ENVELOPE.step',
    '2026-09-12T20:01:34',
    ( '' ),
    ( '' ),
    'SwSTEP 2.0',
    'SolidWorks 2026',
    '' );
FILE_SCHEMA (( 'CONFIG_CONTROL_DESIGN' ));
ENDSEC;

DATA;
#1 = ORIENTED_EDGE ( 'NONE', *, *, #64, .T. ) ;
#2 = DATE_TIME_ROLE ( 'classification_date' ) ;
#3 = EDGE_CURVE ( 'NONE', #90, #171, #124, .T. ) ;
#4 = PERSON_AND_ORGANIZATION ( #228, #42 ) ;
#5 = APPLICATION_CONTEXT ( 'configuration controlled 3d designs of mechanical parts and assemblies' ) ;
#6 = CIRCLE ( 'NONE', #155, 2.750000000000000000 ) ;
#7 = CARTESIAN_POINT ( 'NONE',  ( 2.750000000000000000, 3.367778697655221012E-16, 0.000000000000000000 ) ) ;
#8 = ORIENTED_EDGE ( 'NONE', *, *, #142, .T. ) ;
#9 = DIRECTION ( 'NONE',  ( 1.000000000000000000, 0.000000000000000000, 0.000000000000000000 ) ) ;
#10 = PLANE ( 'NONE',  #41 ) ;
#11 = DIRECTION ( 'NONE',  ( 0.000000000000000000, 0.000000000000000000, 1.000000000000000000 ) ) ;
#12 = DIRECTION ( 'NONE',  ( -1.000000000000000000, 0.000000000000000000, 0.000000000000000000 ) ) ;
#13 = AXIS2_PLACEMENT_3D ( 'NONE', #197, #219, #27 ) ;
#14 = ORIENTED_EDGE ( 'NONE', *, *, #3, .T. ) ;
#15 = DIRECTION ( 'NONE',  ( 0.000000000000000000, 0.000000000000000000, 1.000000000000000000 ) ) ;
#16 = ORIENTED_EDGE ( 'NONE', *, *, #125, .F. ) ;
#17 = DIRECTION ( 'NONE',  ( 1.000000000000000000, 0.000000000000000000, 0.000000000000000000 ) ) ;
#18 = FACE_OUTER_BOUND ( 'NONE', #246, .T. ) ;
#19 = PERSON_AND_ORGANIZATION_ROLE ( 'design_owner' ) ;
#20 = CIRCLE ( 'NONE', #248, 1.500000000000000000 ) ;
#21 = EDGE_CURVE ( 'NONE', #255, #171, #200, .T. ) ;
#22 = PRODUCT ( 'HW-S_M3x20_socket_ENVELOPE', 'HW-S_M3x20_socket_ENVELOPE', '', ( #57 ) ) ;
#23 = ORIENTED_EDGE ( 'NONE', *, *, #103, .T. ) ;
#24 = APPROVAL_DATE_TIME ( #120, #87 ) ;
#25 = LOCAL_TIME ( 15, 1, 34.00000000000000000, #60 ) ;
#26 = AXIS2_PLACEMENT_3D ( 'NONE', #45, #163, #238 ) ;
#27 = DIRECTION ( 'NONE',  ( 1.000000000000000000, 0.000000000000000000, 0.000000000000000000 ) ) ;
#28 = DIRECTION ( 'NONE',  ( 0.000000000000000000, 0.000000000000000000, 1.000000000000000000 ) ) ;
#29 = ORIENTED_EDGE ( 'NONE', *, *, #46, .F. ) ;
#30 = DIRECTION ( 'NONE',  ( 0.000000000000000000, 0.000000000000000000, 1.000000000000000000 ) ) ;
#31 = CARTESIAN_POINT ( 'NONE',  ( 0.000000000000000000, 0.000000000000000000, 0.000000000000000000 ) ) ;
#32 = PLANE ( 'NONE',  #95 ) ;
#33 =( LENGTH_UNIT ( ) NAMED_UNIT ( * ) SI_UNIT ( .MILLI., .METRE. ) );
#34 = VERTEX_POINT ( 'NONE', #112 ) ;
#35 = APPROVAL_ROLE ( '' ) ;
#36 = CC_DESIGN_DATE_AND_TIME_ASSIGNMENT ( #141, #2, ( #134 ) ) ;
#37 =( NAMED_UNIT ( * ) SI_UNIT ( $, .STERADIAN. ) SOLID_ANGLE_UNIT ( ) );
#38 = CARTESIAN_POINT ( 'NONE',  ( -2.750000000000000000, 0.000000000000000000, 3.000000000000000000 ) ) ;
#39 = CALENDAR_DATE ( 2026, 12, 9 ) ;
#40 = ADVANCED_FACE ( 'NONE', ( #220 ), #182, .F. ) ;
#41 = AXIS2_PLACEMENT_3D ( 'NONE', #218, #28, #44 ) ;
#42 = ORGANIZATION ( 'UNSPECIFIED', 'UNSPECIFIED', '' ) ;
#43 = CARTESIAN_POINT ( 'NONE',  ( 1.500000000000000000, 1.836970198721029934E-16, -20.00000000000000000 ) ) ;
#44 = DIRECTION ( 'NONE',  ( 1.000000000000000000, 0.000000000000000000, -0.000000000000000000 ) ) ;
#45 = CARTESIAN_POINT ( 'NONE',  ( 0.000000000000000000, 0.000000000000000000, 3.000000000000000000 ) ) ;
#46 = EDGE_CURVE ( 'NONE', #204, #90, #126, .T. ) ;
#47 = ORIENTED_EDGE ( 'NONE', *, *, #82, .F. ) ;
#48 = ORIENTED_EDGE ( 'NONE', *, *, #195, .F. ) ;
#49 = DIRECTION ( 'NONE',  ( 1.000000000000000000, 0.000000000000000000, 0.000000000000000000 ) ) ;
#50 = AXIS2_PLACEMENT_3D ( 'NONE', #31, #71, #67 ) ;
#51 = PRODUCT_DEFINITION_SHAPE ( 'NONE', 'NONE',  #225 ) ;
#52 = ORIENTED_EDGE ( 'NONE', *, *, #142, .F. ) ;
#53 = APPROVAL_STATUS ( 'not_yet_approved' ) ;
#54 = APPROVAL_DATE_TIME ( #76, #251 ) ;
#55 = DIRECTION ( 'NONE',  ( -0.000000000000000000, -0.000000000000000000, -1.000000000000000000 ) ) ;
#56 = EDGE_CURVE ( 'NONE', #249, #34, #20, .T. ) ;
#57 = MECHANICAL_CONTEXT ( 'NONE', #5, 'mechanical' ) ;
#58 = CC_DESIGN_SECURITY_CLASSIFICATION ( #134, ( #189 ) ) ;
#59 = LOCAL_TIME ( 15, 1, 34.00000000000000000, #212 ) ;
#60 = COORDINATED_UNIVERSAL_TIME_OFFSET ( 6, 0, .BEHIND. ) ;
#61 = AXIS2_PLACEMENT_3D ( 'NONE', #187, #165, #9 ) ;
#62 = PERSON_AND_ORGANIZATION_ROLE ( 'classification_officer' ) ;
#63 = PERSON_AND_ORGANIZATION_ROLE ( 'design_supplier' ) ;
#64 = EDGE_CURVE ( 'NONE', #183, #131, #140, .T. ) ;
#65 = CARTESIAN_POINT ( 'NONE',  ( 0.000000000000000000, 0.000000000000000000, -20.00000000000000000 ) ) ;
#66 = APPROVAL_PERSON_ORGANIZATION ( #227, #251, #35 ) ;
#67 = DIRECTION ( 'NONE',  ( 1.000000000000000000, 0.000000000000000000, 0.000000000000000000 ) ) ;
#68 = EDGE_LOOP ( 'NONE', ( #180, #75 ) ) ;
#69 = DIRECTION ( 'NONE',  ( -0.000000000000000000, -0.000000000000000000, -1.000000000000000000 ) ) ;
#70 = DIRECTION ( 'NONE',  ( 0.000000000000000000, 0.000000000000000000, 1.000000000000000000 ) ) ;
#71 = DIRECTION ( 'NONE',  ( 0.000000000000000000, 0.000000000000000000, 1.000000000000000000 ) ) ;
#72 = PERSON_AND_ORGANIZATION_ROLE ( 'creator' ) ;
#73 = AXIS2_PLACEMENT_3D ( 'NONE', #188, #11, #202 ) ;
#74 = DATE_AND_TIME ( #229, #177 ) ;
#75 = ORIENTED_EDGE ( 'NONE', *, *, #195, .T. ) ;
#76 = DATE_AND_TIME ( #172, #101 ) ;
#77 = CARTESIAN_POINT ( 'NONE',  ( 0.000000000000000000, 0.000000000000000000, 3.000000000000000000 ) ) ;
#78 = CC_DESIGN_PERSON_AND_ORGANIZATION_ASSIGNMENT ( #133, #72, ( #225 ) ) ;
#79 = AXIS2_PLACEMENT_3D ( 'NONE', #77, #116, #114 ) ;
#80 = APPROVAL_ROLE ( '' ) ;
#81 = CALENDAR_DATE ( 2026, 12, 9 ) ;
#82 = EDGE_CURVE ( 'NONE', #131, #183, #199, .T. ) ;
#83 = ORIENTED_EDGE ( 'NONE', *, *, #3, .F. ) ;
#84 = CYLINDRICAL_SURFACE ( 'NONE', #128, 2.750000000000000000 ) ;
#85 = FACE_OUTER_BOUND ( 'NONE', #234, .T. ) ;
#86 = FACE_OUTER_BOUND ( 'NONE', #190, .T. ) ;
#87 = APPROVAL ( #181, 'UNSPECIFIED' ) ;
#88 = CARTESIAN_POINT ( 'NONE',  ( 0.000000000000000000, 0.000000000000000000, 0.000000000000000000 ) ) ;
#89 = CARTESIAN_POINT ( 'NONE',  ( -1.500000000000000000, 0.000000000000000000, -20.00000000000000000 ) ) ;
#90 = VERTEX_POINT ( 'NONE', #7 ) ;
#91 = FACE_OUTER_BOUND ( 'NONE', #201, .T. ) ;
#92 = ORIENTED_EDGE ( 'NONE', *, *, #82, .T. ) ;
#93 = APPROVAL_STATUS ( 'not_yet_approved' ) ;
#94 = ORIENTED_EDGE ( 'NONE', *, *, #103, .F. ) ;
#95 = AXIS2_PLACEMENT_3D ( 'NONE', #88, #127, #184 ) ;
#96 = DIRECTION ( 'NONE',  ( -0.000000000000000000, -0.000000000000000000, -1.000000000000000000 ) ) ;
#97 = DIRECTION ( 'NONE',  ( -1.000000000000000000, 0.000000000000000000, 0.000000000000000000 ) ) ;
#98 = ADVANCED_FACE ( 'NONE', ( #132 ), #10, .T. ) ;
#99 = APPLICATION_PROTOCOL_DEFINITION ( 'international standard', 'config_control_design', 1994, #136 ) ;
#100 = PRODUCT_RELATED_PRODUCT_CATEGORY ( 'detail', '', ( #22 ) ) ;
#101 = LOCAL_TIME ( 15, 1, 34.00000000000000000, #191 ) ;
#102 = ORIENTED_EDGE ( 'NONE', *, *, #21, .F. ) ;
#103 = EDGE_CURVE ( 'NONE', #34, #249, #226, .T. ) ;
#104 = EDGE_LOOP ( 'NONE', ( #23, #198 ) ) ;
#105 = DIRECTION ( 'NONE',  ( 0.000000000000000000, 0.000000000000000000, 1.000000000000000000 ) ) ;
#106 = DIRECTION ( 'NONE',  ( -0.000000000000000000, -0.000000000000000000, -1.000000000000000000 ) ) ;
#107 = DESIGN_CONTEXT ( 'detailed design', #136, 'design' ) ;
#108 = ORIENTED_EDGE ( 'NONE', *, *, #186, .F. ) ;
#109 = LINE ( 'NONE', #129, #193 ) ;
#110 = DIRECTION ( 'NONE',  ( 1.000000000000000000, 0.000000000000000000, 0.000000000000000000 ) ) ;
#111 = ORIENTED_EDGE ( 'NONE', *, *, #125, .T. ) ;
#112 = CARTESIAN_POINT ( 'NONE',  ( -1.500000000000000000, 0.000000000000000000, 0.000000000000000000 ) ) ;
#113 = CC_DESIGN_PERSON_AND_ORGANIZATION_ASSIGNMENT ( #157, #19, ( #22 ) ) ;
#114 = DIRECTION ( 'NONE',  ( -1.000000000000000000, 0.000000000000000000, 0.000000000000000000 ) ) ;
#115 = ORIENTED_EDGE ( 'NONE', *, *, #175, .F. ) ;
#116 = DIRECTION ( 'NONE',  ( -0.000000000000000000, -0.000000000000000000, -1.000000000000000000 ) ) ;
#117 = CC_DESIGN_PERSON_AND_ORGANIZATION_ASSIGNMENT ( #135, #144, ( #189 ) ) ;
#118 = CARTESIAN_POINT ( 'NONE',  ( 0.000000000000000000, 0.000000000000000000, 0.000000000000000000 ) ) ;
#119 = DATE_AND_TIME ( #39, #59 ) ;
#120 = DATE_AND_TIME ( #194, #25 ) ;
#121 = AXIS2_PLACEMENT_3D ( 'NONE', #65, #105, #203 ) ;
#122 = COORDINATED_UNIVERSAL_TIME_OFFSET ( 6, 0, .BEHIND. ) ;
#123 = CC_DESIGN_PERSON_AND_ORGANIZATION_ASSIGNMENT ( #4, #63, ( #189 ) ) ;
#124 = CIRCLE ( 'NONE', #161, 2.750000000000000000 ) ;
#125 = EDGE_CURVE ( 'NONE', #34, #131, #109, .T. ) ;
#126 = LINE ( 'NONE', #153, #170 ) ;
#127 = DIRECTION ( 'NONE',  ( 0.000000000000000000, 0.000000000000000000, 1.000000000000000000 ) ) ;
#128 = AXIS2_PLACEMENT_3D ( 'NONE', #162, #69, #150 ) ;
#129 = CARTESIAN_POINT ( 'NONE',  ( -1.500000000000000000, 0.000000000000000000, 0.000000000000000000 ) ) ;
#130 = DIRECTION ( 'NONE',  ( 1.000000000000000000, 0.000000000000000000, 0.000000000000000000 ) ) ;
#131 = VERTEX_POINT ( 'NONE', #89 ) ;
#132 = FACE_OUTER_BOUND ( 'NONE', #68, .T. ) ;
#133 = PERSON_AND_ORGANIZATION ( #228, #42 ) ;
#134 = SECURITY_CLASSIFICATION ( '', '', #233 ) ;
#135 = PERSON_AND_ORGANIZATION ( #228, #42 ) ;
#136 = APPLICATION_CONTEXT ( 'configuration controlled 3d designs of mechanical parts and assemblies' ) ;
#137 = CARTESIAN_POINT ( 'NONE',  ( 0.000000000000000000, 0.000000000000000000, 0.000000000000000000 ) ) ;
#138 = APPROVAL_PERSON_ORGANIZATION ( #178, #87, #80 ) ;
#139 = ADVANCED_BREP_SHAPE_REPRESENTATION ( 'HW-S_M3x20_socket_ENVELOPE', ( #176, #254 ), #207 ) ;
#140 = CIRCLE ( 'NONE', #61, 1.500000000000000000 ) ;
#141 = DATE_AND_TIME ( #81, #244 ) ;
#142 = EDGE_CURVE ( 'NONE', #171, #90, #6, .T. ) ;
#143 = CC_DESIGN_PERSON_AND_ORGANIZATION_ASSIGNMENT ( #253, #62, ( #134 ) ) ;
#144 = PERSON_AND_ORGANIZATION_ROLE ( 'creator' ) ;
#145 = CARTESIAN_POINT ( 'NONE',  ( -2.750000000000000000, 0.000000000000000000, 0.000000000000000000 ) ) ;
#146 = CIRCLE ( 'NONE', #13, 2.750000000000000000 ) ;
#147 = AXIS2_PLACEMENT_3D ( 'NONE', #137, #96, #97 ) ;
#148 = ORIENTED_EDGE ( 'NONE', *, *, #21, .T. ) ;
#149 = CARTESIAN_POINT ( 'NONE',  ( 2.750000000000000000, 3.367778697655221012E-16, 3.000000000000000000 ) ) ;
#150 = DIRECTION ( 'NONE',  ( -1.000000000000000000, 0.000000000000000000, 0.000000000000000000 ) ) ;
#151 = LINE ( 'NONE', #217, #235 ) ;
#152 = ADVANCED_FACE ( 'NONE', ( #222, #85 ), #32, .F. ) ;
#153 = CARTESIAN_POINT ( 'NONE',  ( 2.750000000000000000, 3.367778697655221012E-16, 3.000000000000000000 ) ) ;
#154 = EDGE_LOOP ( 'NONE', ( #47, #221 ) ) ;
#155 = AXIS2_PLACEMENT_3D ( 'NONE', #185, #167, #110 ) ;
#156 = DATE_TIME_ROLE ( 'creation_date' ) ;
#157 = PERSON_AND_ORGANIZATION ( #228, #42 ) ;
#158 = CYLINDRICAL_SURFACE ( 'NONE', #79, 2.750000000000000000 ) ;
#159 = ADVANCED_FACE ( 'NONE', ( #86 ), #84, .T. ) ;
#160 = CIRCLE ( 'NONE', #26, 2.750000000000000000 ) ;
#161 = AXIS2_PLACEMENT_3D ( 'NONE', #240, #30, #130 ) ;
#162 = CARTESIAN_POINT ( 'NONE',  ( 0.000000000000000000, 0.000000000000000000, 3.000000000000000000 ) ) ;
#163 = DIRECTION ( 'NONE',  ( 0.000000000000000000, 0.000000000000000000, 1.000000000000000000 ) ) ;
#164 = DIRECTION ( 'NONE',  ( -0.000000000000000000, -0.000000000000000000, -1.000000000000000000 ) ) ;
#165 = DIRECTION ( 'NONE',  ( 0.000000000000000000, 0.000000000000000000, 1.000000000000000000 ) ) ;
#166 = APPROVAL ( #93, 'UNSPECIFIED' ) ;
#167 = DIRECTION ( 'NONE',  ( 0.000000000000000000, 0.000000000000000000, 1.000000000000000000 ) ) ;
#168 = ORIENTED_EDGE ( 'NONE', *, *, #46, .T. ) ;
#169 = AXIS2_PLACEMENT_3D ( 'NONE', #231, #55, #12 ) ;
#170 = VECTOR ( 'NONE', #241, 1000.000000000000000 ) ;
#171 = VERTEX_POINT ( 'NONE', #145 ) ;
#172 = CALENDAR_DATE ( 2026, 12, 9 ) ;
#173 = FACE_OUTER_BOUND ( 'NONE', #215, .T. ) ;
#174 = APPROVAL_ROLE ( '' ) ;
#175 = EDGE_CURVE ( 'NONE', #249, #183, #151, .T. ) ;
#176 = MANIFOLD_SOLID_BREP ( 'Socket_head_envelope', #230 ) ;
#177 = LOCAL_TIME ( 15, 1, 34.00000000000000000, #247 ) ;
#178 = PERSON_AND_ORGANIZATION ( #228, #42 ) ;
#179 = ORIENTED_EDGE ( 'NONE', *, *, #56, .F. ) ;
#180 = ORIENTED_EDGE ( 'NONE', *, *, #186, .T. ) ;
#181 = APPROVAL_STATUS ( 'not_yet_approved' ) ;
#182 = PLANE ( 'NONE',  #73 ) ;
#183 = VERTEX_POINT ( 'NONE', #43 ) ;
#184 = DIRECTION ( 'NONE',  ( 1.000000000000000000, 0.000000000000000000, -0.000000000000000000 ) ) ;
#185 = CARTESIAN_POINT ( 'NONE',  ( 0.000000000000000000, 0.000000000000000000, 0.000000000000000000 ) ) ;
#186 = EDGE_CURVE ( 'NONE', #255, #204, #146, .T. ) ;
#187 = CARTESIAN_POINT ( 'NONE',  ( 0.000000000000000000, 0.000000000000000000, -20.00000000000000000 ) ) ;
#188 = CARTESIAN_POINT ( 'NONE',  ( 0.000000000000000000, 0.000000000000000000, -20.00000000000000000 ) ) ;
#189 = PRODUCT_DEFINITION_FORMATION_WITH_SPECIFIED_SOURCE ( 'ANY', '', #22, .NOT_KNOWN. ) ;
#190 = EDGE_LOOP ( 'NONE', ( #29, #108, #148, #8 ) ) ;
#191 = COORDINATED_UNIVERSAL_TIME_OFFSET ( 6, 0, .BEHIND. ) ;
#192 = CYLINDRICAL_SURFACE ( 'NONE', #147, 1.500000000000000000 ) ;
#193 = VECTOR ( 'NONE', #205, 1000.000000000000000 ) ;
#194 = CALENDAR_DATE ( 2026, 12, 9 ) ;
#195 = EDGE_CURVE ( 'NONE', #204, #255, #160, .T. ) ;
#196 = CC_DESIGN_APPROVAL ( #166, ( #225 ) ) ;
#197 = CARTESIAN_POINT ( 'NONE',  ( 0.000000000000000000, 0.000000000000000000, 3.000000000000000000 ) ) ;
#198 = ORIENTED_EDGE ( 'NONE', *, *, #56, .T. ) ;
#199 = CIRCLE ( 'NONE', #121, 1.500000000000000000 ) ;
#200 = LINE ( 'NONE', #243, #213 ) ;
#201 = EDGE_LOOP ( 'NONE', ( #48, #168, #14, #102 ) ) ;
#202 = DIRECTION ( 'NONE',  ( 1.000000000000000000, 0.000000000000000000, -0.000000000000000000 ) ) ;
#203 = DIRECTION ( 'NONE',  ( 1.000000000000000000, 0.000000000000000000, 0.000000000000000000 ) ) ;
#204 = VERTEX_POINT ( 'NONE', #149 ) ;
#205 = DIRECTION ( 'NONE',  ( -0.000000000000000000, -0.000000000000000000, -1.000000000000000000 ) ) ;
#206 = APPROVAL_DATE_TIME ( #119, #166 ) ;
#207 =( GEOMETRIC_REPRESENTATION_CONTEXT ( 3 ) GLOBAL_UNCERTAINTY_ASSIGNED_CONTEXT ( ( #242 ) ) GLOBAL_UNIT_ASSIGNED_CONTEXT ( ( #33, #252, #37 ) ) REPRESENTATION_CONTEXT ( 'NONE', 'WORKASPACE' ) );
#208 = PERSON_AND_ORGANIZATION ( #228, #42 ) ;
#209 = CARTESIAN_POINT ( 'NONE',  ( 1.500000000000000000, 1.836970198721029934E-16, 0.000000000000000000 ) ) ;
#210 = CC_DESIGN_DATE_AND_TIME_ASSIGNMENT ( #74, #156, ( #225 ) ) ;
#211 = CC_DESIGN_APPROVAL ( #87, ( #134 ) ) ;
#212 = COORDINATED_UNIVERSAL_TIME_OFFSET ( 6, 0, .BEHIND. ) ;
#213 = VECTOR ( 'NONE', #106, 1000.000000000000000 ) ;
#214 = SHAPE_DEFINITION_REPRESENTATION ( #51, #139 ) ;
#215 = EDGE_LOOP ( 'NONE', ( #179, #223, #1, #16 ) ) ;
#216 = ADVANCED_FACE ( 'NONE', ( #91 ), #158, .T. ) ;
#217 = CARTESIAN_POINT ( 'NONE',  ( 1.500000000000000000, 1.836970198721029934E-16, 0.000000000000000000 ) ) ;
#218 = CARTESIAN_POINT ( 'NONE',  ( 0.000000000000000000, 0.000000000000000000, 3.000000000000000000 ) ) ;
#219 = DIRECTION ( 'NONE',  ( 0.000000000000000000, 0.000000000000000000, 1.000000000000000000 ) ) ;
#220 = FACE_OUTER_BOUND ( 'NONE', #154, .T. ) ;
#221 = ORIENTED_EDGE ( 'NONE', *, *, #64, .F. ) ;
#222 = FACE_BOUND ( 'NONE', #104, .T. ) ;
#223 = ORIENTED_EDGE ( 'NONE', *, *, #175, .T. ) ;
#224 = CYLINDRICAL_SURFACE ( 'NONE', #169, 1.500000000000000000 ) ;
#225 = PRODUCT_DEFINITION ( 'UNKNOWN', '', #189, #107 ) ;
#226 = CIRCLE ( 'NONE', #50, 1.500000000000000000 ) ;
#227 = PERSON_AND_ORGANIZATION ( #228, #42 ) ;
#228 = PERSON ( 'UNSPECIFIED', 'UNSPECIFIED', 'UNSPECIFIED', ('UNSPECIFIED'), ('UNSPECIFIED'), ('UNSPECIFIED') ) ;
#229 = CALENDAR_DATE ( 2026, 12, 9 ) ;
#230 = CLOSED_SHELL ( 'NONE', ( #216, #245, #236, #40, #159, #98, #152 ) ) ;
#231 = CARTESIAN_POINT ( 'NONE',  ( 0.000000000000000000, 0.000000000000000000, 0.000000000000000000 ) ) ;
#232 = APPROVAL_PERSON_ORGANIZATION ( #208, #166, #174 ) ;
#233 = SECURITY_CLASSIFICATION_LEVEL ( 'unclassified' ) ;
#234 = EDGE_LOOP ( 'NONE', ( #52, #83 ) ) ;
#235 = VECTOR ( 'NONE', #164, 1000.000000000000000 ) ;
#236 = ADVANCED_FACE ( 'NONE', ( #18 ), #224, .T. ) ;
#237 = CARTESIAN_POINT ( 'NONE',  ( 0.000000000000000000, 0.000000000000000000, 0.000000000000000000 ) ) ;
#238 = DIRECTION ( 'NONE',  ( 1.000000000000000000, 0.000000000000000000, 0.000000000000000000 ) ) ;
#239 = CC_DESIGN_APPROVAL ( #251, ( #189 ) ) ;
#240 = CARTESIAN_POINT ( 'NONE',  ( 0.000000000000000000, 0.000000000000000000, 0.000000000000000000 ) ) ;
#241 = DIRECTION ( 'NONE',  ( -0.000000000000000000, -0.000000000000000000, -1.000000000000000000 ) ) ;
#242 = UNCERTAINTY_MEASURE_WITH_UNIT (LENGTH_MEASURE( 1.000000000000000082E-05 ), #33, 'distance_accuracy_value', 'NONE');
#243 = CARTESIAN_POINT ( 'NONE',  ( -2.750000000000000000, 0.000000000000000000, 3.000000000000000000 ) ) ;
#244 = LOCAL_TIME ( 15, 1, 34.00000000000000000, #122 ) ;
#245 = ADVANCED_FACE ( 'NONE', ( #173 ), #192, .T. ) ;
#246 = EDGE_LOOP ( 'NONE', ( #115, #94, #111, #92 ) ) ;
#247 = COORDINATED_UNIVERSAL_TIME_OFFSET ( 6, 0, .BEHIND. ) ;
#248 = AXIS2_PLACEMENT_3D ( 'NONE', #237, #70, #49 ) ;
#249 = VERTEX_POINT ( 'NONE', #209 ) ;
#250 = APPLICATION_PROTOCOL_DEFINITION ( 'international standard', 'config_control_design', 1994, #5 ) ;
#251 = APPROVAL ( #53, 'UNSPECIFIED' ) ;
#252 =( NAMED_UNIT ( * ) PLANE_ANGLE_UNIT ( ) SI_UNIT ( $, .RADIAN. ) );
#253 = PERSON_AND_ORGANIZATION ( #228, #42 ) ;
#254 = AXIS2_PLACEMENT_3D ( 'NONE', #118, #15, #17 ) ;
#255 = VERTEX_POINT ( 'NONE', #38 ) ;
ENDSEC;
END-ISO-10303-21;
