ISO-10303-21;
HEADER;
FILE_DESCRIPTION (( 'STEP AP203' ),
    '1' );
FILE_NAME ('HW-S_M4x35_socket_ENVELOPE.step',
    '2026-09-12T20:01:41',
    ( '' ),
    ( '' ),
    'SwSTEP 2.0',
    'SolidWorks 2026',
    '' );
FILE_SCHEMA (( 'CONFIG_CONTROL_DESIGN' ));
ENDSEC;

DATA;
#1 = APPROVAL_STATUS ( 'not_yet_approved' ) ;
#2 = CC_DESIGN_PERSON_AND_ORGANIZATION_ASSIGNMENT ( #181, #222, ( #125 ) ) ;
#3 = ADVANCED_FACE ( 'NONE', ( #214 ), #213, .T. ) ;
#4 = CC_DESIGN_APPROVAL ( #242, ( #125 ) ) ;
#5 = VERTEX_POINT ( 'NONE', #177 ) ;
#6 = CYLINDRICAL_SURFACE ( 'NONE', #185, 2.000000000000000000 ) ;
#7 = EDGE_LOOP ( 'NONE', ( #66, #236 ) ) ;
#8 = DIRECTION ( 'NONE',  ( 1.000000000000000000, 0.000000000000000000, 0.000000000000000000 ) ) ;
#9 = DIRECTION ( 'NONE',  ( 0.000000000000000000, 0.000000000000000000, 1.000000000000000000 ) ) ;
#10 = APPROVAL_STATUS ( 'not_yet_approved' ) ;
#11 = VECTOR ( 'NONE', #169, 1000.000000000000000 ) ;
#12 = PLANE ( 'NONE',  #117 ) ;
#13 = APPLICATION_PROTOCOL_DEFINITION ( 'international standard', 'config_control_design', 1994, #92 ) ;
#14 = DIRECTION ( 'NONE',  ( 0.000000000000000000, 0.000000000000000000, 1.000000000000000000 ) ) ;
#15 = DIRECTION ( 'NONE',  ( 1.000000000000000000, 0.000000000000000000, 0.000000000000000000 ) ) ;
#16 = APPROVAL_ROLE ( '' ) ;
#17 = DESIGN_CONTEXT ( 'detailed design', #92, 'design' ) ;
#18 = MANIFOLD_SOLID_BREP ( 'Socket_head_envelope', #90 ) ;
#19 = CC_DESIGN_SECURITY_CLASSIFICATION ( #125, ( #49 ) ) ;
#20 = DIRECTION ( 'NONE',  ( 1.000000000000000000, 0.000000000000000000, 0.000000000000000000 ) ) ;
#21 = APPROVAL_DATE_TIME ( #106, #242 ) ;
#22 = AXIS2_PLACEMENT_3D ( 'NONE', #84, #35, #119 ) ;
#23 = DIRECTION ( 'NONE',  ( 0.000000000000000000, 0.000000000000000000, 1.000000000000000000 ) ) ;
#24 = CIRCLE ( 'NONE', #88, 3.500000000000000000 ) ;
#25 = AXIS2_PLACEMENT_3D ( 'NONE', #29, #115, #8 ) ;
#26 = EDGE_CURVE ( 'NONE', #28, #5, #116, .T. ) ;
#27 = CC_DESIGN_PERSON_AND_ORGANIZATION_ASSIGNMENT ( #43, #255, ( #49 ) ) ;
#28 = VERTEX_POINT ( 'NONE', #241 ) ;
#29 = CARTESIAN_POINT ( 'NONE',  ( 0.000000000000000000, 0.000000000000000000, -35.00000000000000000 ) ) ;
#30 = EDGE_CURVE ( 'NONE', #93, #208, #122, .T. ) ;
#31 = ORIENTED_EDGE ( 'NONE', *, *, #26, .T. ) ;
#32 = CIRCLE ( 'NONE', #22, 3.500000000000000000 ) ;
#33 = FACE_OUTER_BOUND ( 'NONE', #78, .T. ) ;
#34 = CC_DESIGN_PERSON_AND_ORGANIZATION_ASSIGNMENT ( #37, #198, ( #79 ) ) ;
#35 = DIRECTION ( 'NONE',  ( 0.000000000000000000, 0.000000000000000000, 1.000000000000000000 ) ) ;
#36 =( LENGTH_UNIT ( ) NAMED_UNIT ( * ) SI_UNIT ( .MILLI., .METRE. ) );
#37 = PERSON_AND_ORGANIZATION ( #148, #170 ) ;
#38 = DIRECTION ( 'NONE',  ( 0.000000000000000000, 0.000000000000000000, 1.000000000000000000 ) ) ;
#39 = DIRECTION ( 'NONE',  ( -0.000000000000000000, -0.000000000000000000, -1.000000000000000000 ) ) ;
#40 = ADVANCED_FACE ( 'NONE', ( #132 ), #6, .T. ) ;
#41 = CARTESIAN_POINT ( 'NONE',  ( 0.000000000000000000, 0.000000000000000000, 0.000000000000000000 ) ) ;
#42 = FACE_OUTER_BOUND ( 'NONE', #195, .T. ) ;
#43 = PERSON_AND_ORGANIZATION ( #148, #170 ) ;
#44 = PRODUCT_DEFINITION_SHAPE ( 'NONE', 'NONE',  #131 ) ;
#45 = CALENDAR_DATE ( 2026, 12, 9 ) ;
#46 = ADVANCED_FACE ( 'NONE', ( #33 ), #52, .T. ) ;
#47 = VECTOR ( 'NONE', #245, 1000.000000000000000 ) ;
#48 = CC_DESIGN_PERSON_AND_ORGANIZATION_ASSIGNMENT ( #226, #149, ( #49 ) ) ;
#49 = PRODUCT_DEFINITION_FORMATION_WITH_SPECIFIED_SOURCE ( 'ANY', '', #79, .NOT_KNOWN. ) ;
#50 = CARTESIAN_POINT ( 'NONE',  ( -2.000000000000000000, 0.000000000000000000, -35.00000000000000000 ) ) ;
#51 = DIRECTION ( 'NONE',  ( 1.000000000000000000, 0.000000000000000000, 0.000000000000000000 ) ) ;
#52 = PLANE ( 'NONE',  #239 ) ;
#53 = ORIENTED_EDGE ( 'NONE', *, *, #219, .F. ) ;
#54 = ORIENTED_EDGE ( 'NONE', *, *, #175, .F. ) ;
#55 = ADVANCED_BREP_SHAPE_REPRESENTATION ( 'HW-S_M4x35_socket_ENVELOPE', ( #18, #187 ), #156 ) ;
#56 = APPROVAL_PERSON_ORGANIZATION ( #65, #242, #16 ) ;
#57 = ORIENTED_EDGE ( 'NONE', *, *, #237, .F. ) ;
#58 = DIRECTION ( 'NONE',  ( 0.000000000000000000, 0.000000000000000000, 1.000000000000000000 ) ) ;
#59 = APPLICATION_PROTOCOL_DEFINITION ( 'international standard', 'config_control_design', 1994, #251 ) ;
#60 = DIRECTION ( 'NONE',  ( -0.000000000000000000, -0.000000000000000000, -1.000000000000000000 ) ) ;
#61 = DIRECTION ( 'NONE',  ( 1.000000000000000000, 0.000000000000000000, 0.000000000000000000 ) ) ;
#62 = DIRECTION ( 'NONE',  ( 0.000000000000000000, 0.000000000000000000, 1.000000000000000000 ) ) ;
#63 = DIRECTION ( 'NONE',  ( 0.000000000000000000, 0.000000000000000000, 1.000000000000000000 ) ) ;
#64 = AXIS2_PLACEMENT_3D ( 'NONE', #204, #23, #20 ) ;
#65 = PERSON_AND_ORGANIZATION ( #148, #170 ) ;
#66 = ORIENTED_EDGE ( 'NONE', *, *, #77, .F. ) ;
#67 = LINE ( 'NONE', #137, #11 ) ;
#68 = SHAPE_DEFINITION_REPRESENTATION ( #44, #55 ) ;
#69 = CARTESIAN_POINT ( 'NONE',  ( 0.000000000000000000, 0.000000000000000000, 0.000000000000000000 ) ) ;
#70 = PERSON_AND_ORGANIZATION ( #148, #170 ) ;
#71 = CC_DESIGN_APPROVAL ( #189, ( #131 ) ) ;
#72 = DATE_TIME_ROLE ( 'creation_date' ) ;
#73 = ORIENTED_EDGE ( 'NONE', *, *, #30, .F. ) ;
#74 = ORIENTED_EDGE ( 'NONE', *, *, #240, .T. ) ;
#75 = ORIENTED_EDGE ( 'NONE', *, *, #110, .T. ) ;
#76 = CARTESIAN_POINT ( 'NONE',  ( -3.500000000000000000, 0.000000000000000000, 4.000000000000000000 ) ) ;
#77 = EDGE_CURVE ( 'NONE', #99, #5, #135, .T. ) ;
#78 = EDGE_LOOP ( 'NONE', ( #118, #192 ) ) ;
#79 = PRODUCT ( 'HW-S_M4x35_socket_ENVELOPE', 'HW-S_M4x35_socket_ENVELOPE', '', ( #217 ) ) ;
#80 =( NAMED_UNIT ( * ) PLANE_ANGLE_UNIT ( ) SI_UNIT ( $, .RADIAN. ) );
#81 = APPROVAL_DATE_TIME ( #120, #189 ) ;
#82 = DIRECTION ( 'NONE',  ( 1.000000000000000000, 0.000000000000000000, -0.000000000000000000 ) ) ;
#83 = COORDINATED_UNIVERSAL_TIME_OFFSET ( 6, 0, .BEHIND. ) ;
#84 = CARTESIAN_POINT ( 'NONE',  ( 0.000000000000000000, 0.000000000000000000, 0.000000000000000000 ) ) ;
#85 =( NAMED_UNIT ( * ) SI_UNIT ( $, .STERADIAN. ) SOLID_ANGLE_UNIT ( ) );
#86 = CYLINDRICAL_SURFACE ( 'NONE', #112, 3.500000000000000000 ) ;
#87 = COORDINATED_UNIVERSAL_TIME_OFFSET ( 6, 0, .BEHIND. ) ;
#88 = AXIS2_PLACEMENT_3D ( 'NONE', #221, #38, #61 ) ;
#89 = APPROVAL ( #103, 'UNSPECIFIED' ) ;
#90 = CLOSED_SHELL ( 'NONE', ( #3, #40, #151, #128, #246, #46, #194 ) ) ;
#91 = LOCAL_TIME ( 15, 1, 41.00000000000000000, #87 ) ;
#92 = APPLICATION_CONTEXT ( 'configuration controlled 3d designs of mechanical parts and assemblies' ) ;
#93 = VERTEX_POINT ( 'NONE', #76 ) ;
#94 = DIRECTION ( 'NONE',  ( 1.000000000000000000, 0.000000000000000000, -0.000000000000000000 ) ) ;
#95 = ORIENTED_EDGE ( 'NONE', *, *, #26, .F. ) ;
#96 = CIRCLE ( 'NONE', #243, 2.000000000000000000 ) ;
#97 = ORIENTED_EDGE ( 'NONE', *, *, #178, .T. ) ;
#98 = CC_DESIGN_PERSON_AND_ORGANIZATION_ASSIGNMENT ( #165, #254, ( #131 ) ) ;
#99 = VERTEX_POINT ( 'NONE', #50 ) ;
#100 = CARTESIAN_POINT ( 'NONE',  ( 0.000000000000000000, 0.000000000000000000, 4.000000000000000000 ) ) ;
#101 = COORDINATED_UNIVERSAL_TIME_OFFSET ( 6, 0, .BEHIND. ) ;
#102 = DIRECTION ( 'NONE',  ( -1.000000000000000000, 0.000000000000000000, 0.000000000000000000 ) ) ;
#103 = APPROVAL_STATUS ( 'not_yet_approved' ) ;
#104 = CARTESIAN_POINT ( 'NONE',  ( 0.000000000000000000, 0.000000000000000000, 0.000000000000000000 ) ) ;
#105 = DIRECTION ( 'NONE',  ( -0.000000000000000000, -0.000000000000000000, -1.000000000000000000 ) ) ;
#106 = DATE_AND_TIME ( #150, #152 ) ;
#107 = CARTESIAN_POINT ( 'NONE',  ( 3.500000000000000000, 4.286263797015736595E-16, 0.000000000000000000 ) ) ;
#108 = DIRECTION ( 'NONE',  ( -0.000000000000000000, -0.000000000000000000, -1.000000000000000000 ) ) ;
#109 = COORDINATED_UNIVERSAL_TIME_OFFSET ( 6, 0, .BEHIND. ) ;
#110 = EDGE_CURVE ( 'NONE', #232, #145, #32, .T. ) ;
#111 = CIRCLE ( 'NONE', #188, 3.500000000000000000 ) ;
#112 = AXIS2_PLACEMENT_3D ( 'NONE', #139, #105, #102 ) ;
#113 = EDGE_LOOP ( 'NONE', ( #173, #31, #97, #159 ) ) ;
#114 = CARTESIAN_POINT ( 'NONE',  ( 0.000000000000000000, 0.000000000000000000, 4.000000000000000000 ) ) ;
#115 = DIRECTION ( 'NONE',  ( 0.000000000000000000, 0.000000000000000000, 1.000000000000000000 ) ) ;
#116 = LINE ( 'NONE', #230, #47 ) ;
#117 = AXIS2_PLACEMENT_3D ( 'NONE', #163, #58, #82 ) ;
#118 = ORIENTED_EDGE ( 'NONE', *, *, #30, .T. ) ;
#119 = DIRECTION ( 'NONE',  ( 1.000000000000000000, 0.000000000000000000, 0.000000000000000000 ) ) ;
#120 = DATE_AND_TIME ( #180, #238 ) ;
#121 = COORDINATED_UNIVERSAL_TIME_OFFSET ( 6, 0, .BEHIND. ) ;
#122 = CIRCLE ( 'NONE', #153, 3.500000000000000000 ) ;
#123 = DIRECTION ( 'NONE',  ( 0.000000000000000000, 0.000000000000000000, 1.000000000000000000 ) ) ;
#124 = DIRECTION ( 'NONE',  ( 0.000000000000000000, 0.000000000000000000, 1.000000000000000000 ) ) ;
#125 = SECURITY_CLASSIFICATION ( '', '', #218 ) ;
#126 = ORIENTED_EDGE ( 'NONE', *, *, #219, .T. ) ;
#127 = PERSON_AND_ORGANIZATION ( #148, #170 ) ;
#128 = ADVANCED_FACE ( 'NONE', ( #197 ), #12, .F. ) ;
#129 = LOCAL_TIME ( 15, 1, 41.00000000000000000, #83 ) ;
#130 = ORIENTED_EDGE ( 'NONE', *, *, #110, .F. ) ;
#131 = PRODUCT_DEFINITION ( 'UNKNOWN', '', #49, #17 ) ;
#132 = FACE_OUTER_BOUND ( 'NONE', #113, .T. ) ;
#133 = CARTESIAN_POINT ( 'NONE',  ( 0.000000000000000000, 0.000000000000000000, 4.000000000000000000 ) ) ;
#134 = ORIENTED_EDGE ( 'NONE', *, *, #210, .T. ) ;
#135 = CIRCLE ( 'NONE', #25, 2.000000000000000000 ) ;
#136 = DIRECTION ( 'NONE',  ( -0.000000000000000000, -0.000000000000000000, -1.000000000000000000 ) ) ;
#137 = CARTESIAN_POINT ( 'NONE',  ( -2.000000000000000000, 0.000000000000000000, 0.000000000000000000 ) ) ;
#138 = LINE ( 'NONE', #182, #200 ) ;
#139 = CARTESIAN_POINT ( 'NONE',  ( 0.000000000000000000, 0.000000000000000000, 4.000000000000000000 ) ) ;
#140 = CALENDAR_DATE ( 2026, 12, 9 ) ;
#141 = CARTESIAN_POINT ( 'NONE',  ( 3.500000000000000000, 4.286263797015736595E-16, 4.000000000000000000 ) ) ;
#142 = AXIS2_PLACEMENT_3D ( 'NONE', #69, #124, #179 ) ;
#143 = CALENDAR_DATE ( 2026, 12, 9 ) ;
#144 = CIRCLE ( 'NONE', #142, 2.000000000000000000 ) ;
#145 = VERTEX_POINT ( 'NONE', #107 ) ;
#146 = EDGE_CURVE ( 'NONE', #208, #93, #111, .T. ) ;
#147 = PLANE ( 'NONE',  #209 ) ;
#148 = PERSON ( 'UNSPECIFIED', 'UNSPECIFIED', 'UNSPECIFIED', ('UNSPECIFIED'), ('UNSPECIFIED'), ('UNSPECIFIED') ) ;
#149 = PERSON_AND_ORGANIZATION_ROLE ( 'design_supplier' ) ;
#150 = CALENDAR_DATE ( 2026, 12, 9 ) ;
#151 = ADVANCED_FACE ( 'NONE', ( #234 ), #164, .T. ) ;
#152 = LOCAL_TIME ( 15, 1, 41.00000000000000000, #109 ) ;
#153 = AXIS2_PLACEMENT_3D ( 'NONE', #247, #229, #51 ) ;
#154 = EDGE_CURVE ( 'NONE', #208, #145, #138, .T. ) ;
#155 = EDGE_LOOP ( 'NONE', ( #130, #53 ) ) ;
#156 =( GEOMETRIC_REPRESENTATION_CONTEXT ( 3 ) GLOBAL_UNCERTAINTY_ASSIGNED_CONTEXT ( ( #201 ) ) GLOBAL_UNIT_ASSIGNED_CONTEXT ( ( #36, #80, #85 ) ) REPRESENTATION_CONTEXT ( 'NONE', 'WORKASPACE' ) );
#157 = CC_DESIGN_DATE_AND_TIME_ASSIGNMENT ( #168, #72, ( #131 ) ) ;
#158 = ORIENTED_EDGE ( 'NONE', *, *, #154, .F. ) ;
#159 = ORIENTED_EDGE ( 'NONE', *, *, #240, .F. ) ;
#160 = EDGE_LOOP ( 'NONE', ( #211, #134 ) ) ;
#161 = DIRECTION ( 'NONE',  ( -0.000000000000000000, -0.000000000000000000, -1.000000000000000000 ) ) ;
#162 = LOCAL_TIME ( 15, 1, 41.00000000000000000, #121 ) ;
#163 = CARTESIAN_POINT ( 'NONE',  ( 0.000000000000000000, 0.000000000000000000, -35.00000000000000000 ) ) ;
#164 = CYLINDRICAL_SURFACE ( 'NONE', #244, 2.000000000000000000 ) ;
#165 = PERSON_AND_ORGANIZATION ( #148, #170 ) ;
#166 = FACE_BOUND ( 'NONE', #160, .T. ) ;
#167 = APPROVAL_ROLE ( '' ) ;
#168 = DATE_AND_TIME ( #143, #129 ) ;
#169 = DIRECTION ( 'NONE',  ( -0.000000000000000000, -0.000000000000000000, -1.000000000000000000 ) ) ;
#170 = ORGANIZATION ( 'UNSPECIFIED', 'UNSPECIFIED', '' ) ;
#171 = AXIS2_PLACEMENT_3D ( 'NONE', #114, #136, #233 ) ;
#172 = PRODUCT_RELATED_PRODUCT_CATEGORY ( 'detail', '', ( #79 ) ) ;
#173 = ORIENTED_EDGE ( 'NONE', *, *, #210, .F. ) ;
#174 = CARTESIAN_POINT ( 'NONE',  ( 0.000000000000000000, 0.000000000000000000, 0.000000000000000000 ) ) ;
#175 = EDGE_CURVE ( 'NONE', #191, #28, #144, .T. ) ;
#176 = ORIENTED_EDGE ( 'NONE', *, *, #146, .F. ) ;
#177 = CARTESIAN_POINT ( 'NONE',  ( 2.000000000000000000, 2.449293598294706414E-16, -35.00000000000000000 ) ) ;
#178 = EDGE_CURVE ( 'NONE', #5, #99, #193, .T. ) ;
#179 = DIRECTION ( 'NONE',  ( 1.000000000000000000, 0.000000000000000000, 0.000000000000000000 ) ) ;
#180 = CALENDAR_DATE ( 2026, 12, 9 ) ;
#181 = PERSON_AND_ORGANIZATION ( #148, #170 ) ;
#182 = CARTESIAN_POINT ( 'NONE',  ( 3.500000000000000000, 4.286263797015736595E-16, 4.000000000000000000 ) ) ;
#183 = DATE_AND_TIME ( #140, #162 ) ;
#184 = CARTESIAN_POINT ( 'NONE',  ( -2.000000000000000000, 0.000000000000000000, 0.000000000000000000 ) ) ;
#185 = AXIS2_PLACEMENT_3D ( 'NONE', #174, #161, #212 ) ;
#186 = APPROVAL_DATE_TIME ( #202, #89 ) ;
#187 = AXIS2_PLACEMENT_3D ( 'NONE', #252, #63, #225 ) ;
#188 = AXIS2_PLACEMENT_3D ( 'NONE', #100, #14, #199 ) ;
#189 = APPROVAL ( #10, 'UNSPECIFIED' ) ;
#190 = EDGE_LOOP ( 'NONE', ( #95, #54, #74, #227 ) ) ;
#191 = VERTEX_POINT ( 'NONE', #184 ) ;
#192 = ORIENTED_EDGE ( 'NONE', *, *, #146, .T. ) ;
#193 = CIRCLE ( 'NONE', #64, 2.000000000000000000 ) ;
#194 = ADVANCED_FACE ( 'NONE', ( #166, #220 ), #147, .F. ) ;
#195 = EDGE_LOOP ( 'NONE', ( #158, #73, #231, #75 ) ) ;
#196 = VECTOR ( 'NONE', #108, 1000.000000000000000 ) ;
#197 = FACE_OUTER_BOUND ( 'NONE', #7, .T. ) ;
#198 = PERSON_AND_ORGANIZATION_ROLE ( 'design_owner' ) ;
#199 = DIRECTION ( 'NONE',  ( 1.000000000000000000, 0.000000000000000000, 0.000000000000000000 ) ) ;
#200 = VECTOR ( 'NONE', #39, 1000.000000000000000 ) ;
#201 = UNCERTAINTY_MEASURE_WITH_UNIT (LENGTH_MEASURE( 1.000000000000000082E-05 ), #36, 'distance_accuracy_value', 'NONE');
#202 = DATE_AND_TIME ( #45, #91 ) ;
#203 = LINE ( 'NONE', #205, #196 ) ;
#204 = CARTESIAN_POINT ( 'NONE',  ( 0.000000000000000000, 0.000000000000000000, -35.00000000000000000 ) ) ;
#205 = CARTESIAN_POINT ( 'NONE',  ( -3.500000000000000000, 0.000000000000000000, 4.000000000000000000 ) ) ;
#206 = CC_DESIGN_APPROVAL ( #89, ( #49 ) ) ;
#207 = APPROVAL_ROLE ( '' ) ;
#208 = VERTEX_POINT ( 'NONE', #141 ) ;
#209 = AXIS2_PLACEMENT_3D ( 'NONE', #235, #62, #224 ) ;
#210 = EDGE_CURVE ( 'NONE', #28, #191, #96, .T. ) ;
#211 = ORIENTED_EDGE ( 'NONE', *, *, #175, .T. ) ;
#212 = DIRECTION ( 'NONE',  ( -1.000000000000000000, 0.000000000000000000, 0.000000000000000000 ) ) ;
#213 = CYLINDRICAL_SURFACE ( 'NONE', #171, 3.500000000000000000 ) ;
#214 = FACE_OUTER_BOUND ( 'NONE', #215, .T. ) ;
#215 = EDGE_LOOP ( 'NONE', ( #176, #248, #126, #57 ) ) ;
#216 = CC_DESIGN_DATE_AND_TIME_ASSIGNMENT ( #183, #253, ( #125 ) ) ;
#217 = MECHANICAL_CONTEXT ( 'NONE', #251, 'mechanical' ) ;
#218 = SECURITY_CLASSIFICATION_LEVEL ( 'unclassified' ) ;
#219 = EDGE_CURVE ( 'NONE', #145, #232, #24, .T. ) ;
#220 = FACE_OUTER_BOUND ( 'NONE', #155, .T. ) ;
#221 = CARTESIAN_POINT ( 'NONE',  ( 0.000000000000000000, 0.000000000000000000, 0.000000000000000000 ) ) ;
#222 = PERSON_AND_ORGANIZATION_ROLE ( 'classification_officer' ) ;
#223 = DIRECTION ( 'NONE',  ( -1.000000000000000000, 0.000000000000000000, 0.000000000000000000 ) ) ;
#224 = DIRECTION ( 'NONE',  ( 1.000000000000000000, 0.000000000000000000, -0.000000000000000000 ) ) ;
#225 = DIRECTION ( 'NONE',  ( 1.000000000000000000, 0.000000000000000000, 0.000000000000000000 ) ) ;
#226 = PERSON_AND_ORGANIZATION ( #148, #170 ) ;
#227 = ORIENTED_EDGE ( 'NONE', *, *, #77, .T. ) ;
#228 = APPROVAL_PERSON_ORGANIZATION ( #70, #89, #207 ) ;
#229 = DIRECTION ( 'NONE',  ( 0.000000000000000000, 0.000000000000000000, 1.000000000000000000 ) ) ;
#230 = CARTESIAN_POINT ( 'NONE',  ( 2.000000000000000000, 2.449293598294706414E-16, 0.000000000000000000 ) ) ;
#231 = ORIENTED_EDGE ( 'NONE', *, *, #237, .T. ) ;
#232 = VERTEX_POINT ( 'NONE', #250 ) ;
#233 = DIRECTION ( 'NONE',  ( -1.000000000000000000, 0.000000000000000000, 0.000000000000000000 ) ) ;
#234 = FACE_OUTER_BOUND ( 'NONE', #190, .T. ) ;
#235 = CARTESIAN_POINT ( 'NONE',  ( 0.000000000000000000, 0.000000000000000000, 0.000000000000000000 ) ) ;
#236 = ORIENTED_EDGE ( 'NONE', *, *, #178, .F. ) ;
#237 = EDGE_CURVE ( 'NONE', #93, #232, #203, .T. ) ;
#238 = LOCAL_TIME ( 15, 1, 41.00000000000000000, #101 ) ;
#239 = AXIS2_PLACEMENT_3D ( 'NONE', #133, #9, #94 ) ;
#240 = EDGE_CURVE ( 'NONE', #191, #99, #67, .T. ) ;
#241 = CARTESIAN_POINT ( 'NONE',  ( 2.000000000000000000, 2.449293598294706414E-16, 0.000000000000000000 ) ) ;
#242 = APPROVAL ( #1, 'UNSPECIFIED' ) ;
#243 = AXIS2_PLACEMENT_3D ( 'NONE', #41, #123, #15 ) ;
#244 = AXIS2_PLACEMENT_3D ( 'NONE', #104, #60, #223 ) ;
#245 = DIRECTION ( 'NONE',  ( -0.000000000000000000, -0.000000000000000000, -1.000000000000000000 ) ) ;
#246 = ADVANCED_FACE ( 'NONE', ( #42 ), #86, .T. ) ;
#247 = CARTESIAN_POINT ( 'NONE',  ( 0.000000000000000000, 0.000000000000000000, 4.000000000000000000 ) ) ;
#248 = ORIENTED_EDGE ( 'NONE', *, *, #154, .T. ) ;
#249 = APPROVAL_PERSON_ORGANIZATION ( #127, #189, #167 ) ;
#250 = CARTESIAN_POINT ( 'NONE',  ( -3.500000000000000000, 0.000000000000000000, 0.000000000000000000 ) ) ;
#251 = APPLICATION_CONTEXT ( 'configuration controlled 3d designs of mechanical parts and assemblies' ) ;
#252 = CARTESIAN_POINT ( 'NONE',  ( 0.000000000000000000, 0.000000000000000000, 0.000000000000000000 ) ) ;
#253 = DATE_TIME_ROLE ( 'classification_date' ) ;
#254 = PERSON_AND_ORGANIZATION_ROLE ( 'creator' ) ;
#255 = PERSON_AND_ORGANIZATION_ROLE ( 'creator' ) ;
ENDSEC;
END-ISO-10303-21;
