ISO-10303-21;
HEADER;
FILE_DESCRIPTION (( 'STEP AP203' ),
    '1' );
FILE_NAME ('HW-W_M4_washer_0p5_ENVELOPE.step',
    '2026-09-12T20:01:48',
    ( '' ),
    ( '' ),
    'SwSTEP 2.0',
    'SolidWorks 2026',
    '' );
FILE_SCHEMA (( 'CONFIG_CONTROL_DESIGN' ));
ENDSEC;

DATA;
#1 = ORIENTED_EDGE ( 'NONE', *, *, #58, .T. ) ;
#2 = SECURITY_CLASSIFICATION_LEVEL ( 'unclassified' ) ;
#3 = EDGE_LOOP ( 'NONE', ( #44, #120 ) ) ;
#4 = VERTEX_POINT ( 'NONE', #240 ) ;
#5 = CARTESIAN_POINT ( 'NONE',  ( 0.000000000000000000, 0.000000000000000000, 0.5000000000000000000 ) ) ;
#6 = LINE ( 'NONE', #60, #169 ) ;
#7 = VERTEX_POINT ( 'NONE', #220 ) ;
#8 = AXIS2_PLACEMENT_3D ( 'NONE', #10, #37, #36 ) ;
#9 = PERSON_AND_ORGANIZATION ( #129, #94 ) ;
#10 = CARTESIAN_POINT ( 'NONE',  ( 0.000000000000000000, 0.000000000000000000, 0.5000000000000000000 ) ) ;
#11 = EDGE_CURVE ( 'NONE', #161, #102, #6, .T. ) ;
#12 = DIRECTION ( 'NONE',  ( 1.000000000000000000, 0.000000000000000000, 0.000000000000000000 ) ) ;
#13 = FACE_OUTER_BOUND ( 'NONE', #47, .T. ) ;
#14 = PERSON_AND_ORGANIZATION ( #129, #94 ) ;
#15 = CIRCLE ( 'NONE', #139, 4.000000000000000000 ) ;
#16 = ORIENTED_EDGE ( 'NONE', *, *, #58, .F. ) ;
#17 = APPROVAL_STATUS ( 'not_yet_approved' ) ;
#18 = APPROVAL_PERSON_ORGANIZATION ( #171, #141, #135 ) ;
#19 = ADVANCED_FACE ( 'NONE', ( #82 ), #69, .T. ) ;
#20 = EDGE_CURVE ( 'NONE', #161, #194, #56, .T. ) ;
#21 = PERSON_AND_ORGANIZATION ( #129, #94 ) ;
#22 = ORIENTED_EDGE ( 'NONE', *, *, #66, .T. ) ;
#23 = CC_DESIGN_DATE_AND_TIME_ASSIGNMENT ( #80, #59, ( #226 ) ) ;
#24 = DIRECTION ( 'NONE',  ( 1.000000000000000000, 0.000000000000000000, 0.000000000000000000 ) ) ;
#25 = DIRECTION ( 'NONE',  ( 0.000000000000000000, 0.000000000000000000, 1.000000000000000000 ) ) ;
#26 = DIRECTION ( 'NONE',  ( 0.000000000000000000, 0.000000000000000000, 1.000000000000000000 ) ) ;
#28 = ADVANCED_FACE ( 'NONE', ( #221, #142 ), #119, .F. ) ;
#27 = ORIENTED_EDGE ( 'NONE', *, *, #20, .F. ) ;
#29 = CC_DESIGN_APPROVAL ( #141, ( #226 ) ) ;
#30 = DIRECTION ( 'NONE',  ( -0.000000000000000000, -0.000000000000000000, -1.000000000000000000 ) ) ;
#31 = CC_DESIGN_PERSON_AND_ORGANIZATION_ASSIGNMENT ( #249, #55, ( #245 ) ) ;
#32 = DIRECTION ( 'NONE',  ( 0.000000000000000000, 0.000000000000000000, 1.000000000000000000 ) ) ;
#33 = AXIS2_PLACEMENT_3D ( 'NONE', #117, #99, #24 ) ;
#34 = DIRECTION ( 'NONE',  ( 0.000000000000000000, 0.000000000000000000, 1.000000000000000000 ) ) ;
#35 = CC_DESIGN_PERSON_AND_ORGANIZATION_ASSIGNMENT ( #190, #128, ( #226 ) ) ;
#36 = DIRECTION ( 'NONE',  ( 1.000000000000000000, 0.000000000000000000, -0.000000000000000000 ) ) ;
#37 = DIRECTION ( 'NONE',  ( 0.000000000000000000, 0.000000000000000000, 1.000000000000000000 ) ) ;
#38 =( LENGTH_UNIT ( ) NAMED_UNIT ( * ) SI_UNIT ( .MILLI., .METRE. ) );
#39 = CALENDAR_DATE ( 2026, 12, 9 ) ;
#40 = APPROVAL_ROLE ( '' ) ;
#41 =( GEOMETRIC_REPRESENTATION_CONTEXT ( 3 ) GLOBAL_UNCERTAINTY_ASSIGNED_CONTEXT ( ( #63 ) ) GLOBAL_UNIT_ASSIGNED_CONTEXT ( ( #38, #109, #91 ) ) REPRESENTATION_CONTEXT ( 'NONE', 'WORKASPACE' ) );
#42 = CIRCLE ( 'NONE', #191, 4.000000000000000000 ) ;
#43 = DIRECTION ( 'NONE',  ( -0.000000000000000000, -0.000000000000000000, -1.000000000000000000 ) ) ;
#44 = ORIENTED_EDGE ( 'NONE', *, *, #90, .T. ) ;
#45 = CARTESIAN_POINT ( 'NONE',  ( 0.000000000000000000, 0.000000000000000000, 0.000000000000000000 ) ) ;
#46 = ORIENTED_EDGE ( 'NONE', *, *, #20, .T. ) ;
#47 = EDGE_LOOP ( 'NONE', ( #201, #232 ) ) ;
#48 = CYLINDRICAL_SURFACE ( 'NONE', #49, 2.100000000000000089 ) ;
#49 = AXIS2_PLACEMENT_3D ( 'NONE', #165, #73, #89 ) ;
#50 = PRODUCT_RELATED_PRODUCT_CATEGORY ( 'detail', '', ( #51 ) ) ;
#51 = PRODUCT ( 'HW-W_M4_washer_0p5_ENVELOPE', 'HW-W_M4_washer_0p5_ENVELOPE', '', ( #223 ) ) ;
#52 = DIRECTION ( 'NONE',  ( 0.000000000000000000, 0.000000000000000000, 1.000000000000000000 ) ) ;
#53 = DIRECTION ( 'NONE',  ( -1.000000000000000000, 0.000000000000000000, 0.000000000000000000 ) ) ;
#54 = AXIS2_PLACEMENT_3D ( 'NONE', #144, #137, #62 ) ;
#55 = PERSON_AND_ORGANIZATION_ROLE ( 'creator' ) ;
#56 = CIRCLE ( 'NONE', #54, 2.100000000000000089 ) ;
#57 = PERSON_AND_ORGANIZATION_ROLE ( 'design_supplier' ) ;
#58 = EDGE_CURVE ( 'NONE', #194, #85, #203, .T. ) ;
#59 = DATE_TIME_ROLE ( 'classification_date' ) ;
#60 = CARTESIAN_POINT ( 'NONE',  ( -2.100000000000000089, 0.000000000000000000, 0.5000000000000000000 ) ) ;
#61 = CIRCLE ( 'NONE', #205, 2.100000000000000089 ) ;
#62 = DIRECTION ( 'NONE',  ( 1.000000000000000000, 0.000000000000000000, 0.000000000000000000 ) ) ;
#63 = UNCERTAINTY_MEASURE_WITH_UNIT (LENGTH_MEASURE( 1.000000000000000082E-05 ), #38, 'distance_accuracy_value', 'NONE');
#64 = AXIS2_PLACEMENT_3D ( 'NONE', #122, #242, #146 ) ;
#65 = ORIENTED_EDGE ( 'NONE', *, *, #11, .T. ) ;
#66 = EDGE_CURVE ( 'NONE', #194, #161, #197, .T. ) ;
#67 = ORIENTED_EDGE ( 'NONE', *, *, #200, .F. ) ;
#68 = CC_DESIGN_PERSON_AND_ORGANIZATION_ASSIGNMENT ( #14, #57, ( #245 ) ) ;
#69 = CYLINDRICAL_SURFACE ( 'NONE', #78, 4.000000000000000000 ) ;
#70 = FACE_OUTER_BOUND ( 'NONE', #86, .T. ) ;
#71 = DIRECTION ( 'NONE',  ( -0.000000000000000000, -0.000000000000000000, -1.000000000000000000 ) ) ;
#72 = CARTESIAN_POINT ( 'NONE',  ( 4.000000000000000000, 4.898587196589412829E-16, 0.5000000000000000000 ) ) ;
#73 = DIRECTION ( 'NONE',  ( -0.000000000000000000, -0.000000000000000000, -1.000000000000000000 ) ) ;
#74 = APPROVAL_PERSON_ORGANIZATION ( #21, #211, #130 ) ;
#75 = CYLINDRICAL_SURFACE ( 'NONE', #206, 2.100000000000000089 ) ;
#76 = VECTOR ( 'NONE', #30, 1000.000000000000000 ) ;
#77 = ORIENTED_EDGE ( 'NONE', *, *, #108, .F. ) ;
#78 = AXIS2_PLACEMENT_3D ( 'NONE', #81, #159, #202 ) ;
#79 = SHAPE_DEFINITION_REPRESENTATION ( #189, #235 ) ;
#80 = DATE_AND_TIME ( #39, #149 ) ;
#81 = CARTESIAN_POINT ( 'NONE',  ( 0.000000000000000000, 0.000000000000000000, 0.5000000000000000000 ) ) ;
#82 = FACE_OUTER_BOUND ( 'NONE', #181, .T. ) ;
#83 = LOCAL_TIME ( 15, 1, 48.00000000000000000, #248 ) ;
#84 = DIRECTION ( 'NONE',  ( -0.000000000000000000, -0.000000000000000000, -1.000000000000000000 ) ) ;
#85 = VERTEX_POINT ( 'NONE', #98 ) ;
#86 = EDGE_LOOP ( 'NONE', ( #46, #1, #164, #238 ) ) ;
#87 = CIRCLE ( 'NONE', #172, 4.000000000000000000 ) ;
#88 = CARTESIAN_POINT ( 'NONE',  ( 0.000000000000000000, 0.000000000000000000, 0.5000000000000000000 ) ) ;
#89 = DIRECTION ( 'NONE',  ( -1.000000000000000000, 0.000000000000000000, 0.000000000000000000 ) ) ;
#90 = EDGE_CURVE ( 'NONE', #102, #85, #61, .T. ) ;
#91 =( NAMED_UNIT ( * ) SI_UNIT ( $, .STERADIAN. ) SOLID_ANGLE_UNIT ( ) );
#92 = VECTOR ( 'NONE', #207, 1000.000000000000000 ) ;
#93 = CALENDAR_DATE ( 2026, 12, 9 ) ;
#94 = ORGANIZATION ( 'UNSPECIFIED', 'UNSPECIFIED', '' ) ;
#95 = PERSON_AND_ORGANIZATION ( #129, #94 ) ;
#96 = ORIENTED_EDGE ( 'NONE', *, *, #108, .T. ) ;
#97 = CC_DESIGN_PERSON_AND_ORGANIZATION_ASSIGNMENT ( #9, #224, ( #51 ) ) ;
#98 = CARTESIAN_POINT ( 'NONE',  ( 2.100000000000000089, 2.571758278209441957E-16, 0.000000000000000000 ) ) ;
#99 = DIRECTION ( 'NONE',  ( 0.000000000000000000, 0.000000000000000000, 1.000000000000000000 ) ) ;
#100 = FACE_OUTER_BOUND ( 'NONE', #176, .T. ) ;
#101 = LOCAL_TIME ( 15, 1, 48.00000000000000000, #152 ) ;
#102 = VERTEX_POINT ( 'NONE', #199 ) ;
#103 = ORIENTED_EDGE ( 'NONE', *, *, #147, .F. ) ;
#104 = CARTESIAN_POINT ( 'NONE',  ( -2.100000000000000089, 0.000000000000000000, 0.5000000000000000000 ) ) ;
#105 = CARTESIAN_POINT ( 'NONE',  ( 0.000000000000000000, 0.000000000000000000, 0.5000000000000000000 ) ) ;
#106 = FACE_OUTER_BOUND ( 'NONE', #143, .T. ) ;
#107 = CARTESIAN_POINT ( 'NONE',  ( 0.000000000000000000, 0.000000000000000000, 0.000000000000000000 ) ) ;
#108 = EDGE_CURVE ( 'NONE', #4, #140, #15, .T. ) ;
#109 =( NAMED_UNIT ( * ) PLANE_ANGLE_UNIT ( ) SI_UNIT ( $, .RADIAN. ) );
#110 = ADVANCED_FACE ( 'NONE', ( #100 ), #179, .T. ) ;
#111 = COORDINATED_UNIVERSAL_TIME_OFFSET ( 6, 0, .BEHIND. ) ;
#112 = CC_DESIGN_SECURITY_CLASSIFICATION ( #226, ( #245 ) ) ;
#113 = PERSON_AND_ORGANIZATION ( #129, #94 ) ;
#114 = CALENDAR_DATE ( 2026, 12, 9 ) ;
#115 = EDGE_CURVE ( 'NONE', #154, #7, #123, .T. ) ;
#116 = AXIS2_PLACEMENT_3D ( 'NONE', #105, #124, #12 ) ;
#117 = CARTESIAN_POINT ( 'NONE',  ( 0.000000000000000000, 0.000000000000000000, 0.5000000000000000000 ) ) ;
#118 = DIRECTION ( 'NONE',  ( 1.000000000000000000, 0.000000000000000000, 0.000000000000000000 ) ) ;
#119 = PLANE ( 'NONE',  #160 ) ;
#120 = ORIENTED_EDGE ( 'NONE', *, *, #186, .T. ) ;
#121 = DIRECTION ( 'NONE',  ( 0.000000000000000000, 0.000000000000000000, 1.000000000000000000 ) ) ;
#122 = CARTESIAN_POINT ( 'NONE',  ( 0.000000000000000000, 0.000000000000000000, 0.000000000000000000 ) ) ;
#123 = CIRCLE ( 'NONE', #116, 4.000000000000000000 ) ;
#124 = DIRECTION ( 'NONE',  ( 0.000000000000000000, 0.000000000000000000, 1.000000000000000000 ) ) ;
#125 = APPROVAL_PERSON_ORGANIZATION ( #95, #193, #40 ) ;
#126 = EDGE_CURVE ( 'NONE', #7, #154, #87, .T. ) ;
#127 = LINE ( 'NONE', #204, #92 ) ;
#128 = PERSON_AND_ORGANIZATION_ROLE ( 'classification_officer' ) ;
#129 = PERSON ( 'UNSPECIFIED', 'UNSPECIFIED', 'UNSPECIFIED', ('UNSPECIFIED'), ('UNSPECIFIED'), ('UNSPECIFIED') ) ;
#130 = APPROVAL_ROLE ( '' ) ;
#131 = DATE_AND_TIME ( #114, #134 ) ;
#132 = ORIENTED_EDGE ( 'NONE', *, *, #66, .F. ) ;
#133 = ORIENTED_EDGE ( 'NONE', *, *, #225, .T. ) ;
#134 = LOCAL_TIME ( 15, 1, 48.00000000000000000, #111 ) ;
#135 = APPROVAL_ROLE ( '' ) ;
#136 = PRODUCT_DEFINITION ( 'UNKNOWN', '', #245, #217 ) ;
#137 = DIRECTION ( 'NONE',  ( 0.000000000000000000, 0.000000000000000000, 1.000000000000000000 ) ) ;
#138 = APPLICATION_CONTEXT ( 'configuration controlled 3d designs of mechanical parts and assemblies' ) ;
#139 = AXIS2_PLACEMENT_3D ( 'NONE', #45, #25, #178 ) ;
#140 = VERTEX_POINT ( 'NONE', #241 ) ;
#141 = APPROVAL ( #17, 'UNSPECIFIED' ) ;
#142 = FACE_BOUND ( 'NONE', #3, .T. ) ;
#143 = EDGE_LOOP ( 'NONE', ( #16, #22, #65, #183 ) ) ;
#144 = CARTESIAN_POINT ( 'NONE',  ( 0.000000000000000000, 0.000000000000000000, 0.5000000000000000000 ) ) ;
#145 = PLANE ( 'NONE',  #8 ) ;
#146 = DIRECTION ( 'NONE',  ( 1.000000000000000000, 0.000000000000000000, 0.000000000000000000 ) ) ;
#147 = EDGE_CURVE ( 'NONE', #7, #4, #127, .T. ) ;
#148 = DIRECTION ( 'NONE',  ( 1.000000000000000000, 0.000000000000000000, 0.000000000000000000 ) ) ;
#149 = LOCAL_TIME ( 15, 1, 48.00000000000000000, #210 ) ;
#150 = DIRECTION ( 'NONE',  ( -0.000000000000000000, -0.000000000000000000, -1.000000000000000000 ) ) ;
#151 = AXIS2_PLACEMENT_3D ( 'NONE', #227, #34, #148 ) ;
#152 = COORDINATED_UNIVERSAL_TIME_OFFSET ( 6, 0, .BEHIND. ) ;
#153 = CALENDAR_DATE ( 2026, 12, 9 ) ;
#154 = VERTEX_POINT ( 'NONE', #244 ) ;
#155 = ADVANCED_FACE ( 'NONE', ( #70 ), #48, .F. ) ;
#156 = DATE_AND_TIME ( #93, #83 ) ;
#157 = ADVANCED_FACE ( 'NONE', ( #13, #229 ), #145, .T. ) ;
#158 = APPROVAL_DATE_TIME ( #156, #193 ) ;
#159 = DIRECTION ( 'NONE',  ( -0.000000000000000000, -0.000000000000000000, -1.000000000000000000 ) ) ;
#160 = AXIS2_PLACEMENT_3D ( 'NONE', #236, #121, #216 ) ;
#161 = VERTEX_POINT ( 'NONE', #104 ) ;
#162 = CARTESIAN_POINT ( 'NONE',  ( 2.100000000000000089, 2.571758278209441957E-16, 0.5000000000000000000 ) ) ;
#163 = ORIENTED_EDGE ( 'NONE', *, *, #115, .F. ) ;
#164 = ORIENTED_EDGE ( 'NONE', *, *, #90, .F. ) ;
#165 = CARTESIAN_POINT ( 'NONE',  ( 0.000000000000000000, 0.000000000000000000, 0.5000000000000000000 ) ) ;
#166 = CARTESIAN_POINT ( 'NONE',  ( 0.000000000000000000, 0.000000000000000000, 0.5000000000000000000 ) ) ;
#167 = DIRECTION ( 'NONE',  ( 1.000000000000000000, 0.000000000000000000, 0.000000000000000000 ) ) ;
#168 = CC_DESIGN_APPROVAL ( #211, ( #245 ) ) ;
#169 = VECTOR ( 'NONE', #43, 1000.000000000000000 ) ;
#170 = APPLICATION_PROTOCOL_DEFINITION ( 'international standard', 'config_control_design', 1994, #138 ) ;
#171 = PERSON_AND_ORGANIZATION ( #129, #94 ) ;
#172 = AXIS2_PLACEMENT_3D ( 'NONE', #166, #32, #167 ) ;
#173 = CALENDAR_DATE ( 2026, 12, 9 ) ;
#174 = APPROVAL_STATUS ( 'not_yet_approved' ) ;
#175 = ORIENTED_EDGE ( 'NONE', *, *, #225, .F. ) ;
#176 = EDGE_LOOP ( 'NONE', ( #175, #198, #196, #96 ) ) ;
#177 = MANIFOLD_SOLID_BREP ( 'Washer', #247 ) ;
#178 = DIRECTION ( 'NONE',  ( 1.000000000000000000, 0.000000000000000000, 0.000000000000000000 ) ) ;
#179 = CYLINDRICAL_SURFACE ( 'NONE', #237, 4.000000000000000000 ) ;
#180 = CC_DESIGN_APPROVAL ( #193, ( #136 ) ) ;
#181 = EDGE_LOOP ( 'NONE', ( #163, #133, #212, #103 ) ) ;
#182 = APPLICATION_CONTEXT ( 'configuration controlled 3d designs of mechanical parts and assemblies' ) ;
#183 = ORIENTED_EDGE ( 'NONE', *, *, #186, .F. ) ;
#184 = VECTOR ( 'NONE', #71, 1000.000000000000000 ) ;
#185 = CARTESIAN_POINT ( 'NONE',  ( 2.100000000000000089, 2.571758278209441957E-16, 0.5000000000000000000 ) ) ;
#186 = EDGE_CURVE ( 'NONE', #85, #102, #215, .T. ) ;
#187 = DIRECTION ( 'NONE',  ( 1.000000000000000000, 0.000000000000000000, 0.000000000000000000 ) ) ;
#188 = DATE_AND_TIME ( #153, #101 ) ;
#189 = PRODUCT_DEFINITION_SHAPE ( 'NONE', 'NONE',  #136 ) ;
#190 = PERSON_AND_ORGANIZATION ( #129, #94 ) ;
#191 = AXIS2_PLACEMENT_3D ( 'NONE', #107, #52, #187 ) ;
#192 = PERSON_AND_ORGANIZATION_ROLE ( 'creator' ) ;
#193 = APPROVAL ( #174, 'UNSPECIFIED' ) ;
#194 = VERTEX_POINT ( 'NONE', #185 ) ;
#195 = APPROVAL_DATE_TIME ( #234, #211 ) ;
#196 = ORIENTED_EDGE ( 'NONE', *, *, #147, .T. ) ;
#197 = CIRCLE ( 'NONE', #33, 2.100000000000000089 ) ;
#198 = ORIENTED_EDGE ( 'NONE', *, *, #126, .F. ) ;
#199 = CARTESIAN_POINT ( 'NONE',  ( -2.100000000000000089, 0.000000000000000000, 0.000000000000000000 ) ) ;
#200 = EDGE_CURVE ( 'NONE', #140, #4, #42, .T. ) ;
#201 = ORIENTED_EDGE ( 'NONE', *, *, #126, .T. ) ;
#202 = DIRECTION ( 'NONE',  ( -1.000000000000000000, 0.000000000000000000, 0.000000000000000000 ) ) ;
#203 = LINE ( 'NONE', #162, #76 ) ;
#204 = CARTESIAN_POINT ( 'NONE',  ( -4.000000000000000000, 0.000000000000000000, 0.5000000000000000000 ) ) ;
#205 = AXIS2_PLACEMENT_3D ( 'NONE', #218, #26, #118 ) ;
#206 = AXIS2_PLACEMENT_3D ( 'NONE', #88, #150, #53 ) ;
#207 = DIRECTION ( 'NONE',  ( -0.000000000000000000, -0.000000000000000000, -1.000000000000000000 ) ) ;
#208 = DIRECTION ( 'NONE',  ( -1.000000000000000000, 0.000000000000000000, 0.000000000000000000 ) ) ;
#209 = APPROVAL_STATUS ( 'not_yet_approved' ) ;
#210 = COORDINATED_UNIVERSAL_TIME_OFFSET ( 6, 0, .BEHIND. ) ;
#211 = APPROVAL ( #209, 'UNSPECIFIED' ) ;
#212 = ORIENTED_EDGE ( 'NONE', *, *, #200, .T. ) ;
#213 = LOCAL_TIME ( 15, 1, 48.00000000000000000, #230 ) ;
#214 = EDGE_LOOP ( 'NONE', ( #77, #67 ) ) ;
#215 = CIRCLE ( 'NONE', #151, 2.100000000000000089 ) ;
#216 = DIRECTION ( 'NONE',  ( 1.000000000000000000, 0.000000000000000000, -0.000000000000000000 ) ) ;
#217 = DESIGN_CONTEXT ( 'detailed design', #138, 'design' ) ;
#218 = CARTESIAN_POINT ( 'NONE',  ( 0.000000000000000000, 0.000000000000000000, 0.000000000000000000 ) ) ;
#219 = CC_DESIGN_DATE_AND_TIME_ASSIGNMENT ( #188, #231, ( #136 ) ) ;
#220 = CARTESIAN_POINT ( 'NONE',  ( -4.000000000000000000, 0.000000000000000000, 0.5000000000000000000 ) ) ;
#221 = FACE_OUTER_BOUND ( 'NONE', #214, .T. ) ;
#222 = APPLICATION_PROTOCOL_DEFINITION ( 'international standard', 'config_control_design', 1994, #182 ) ;
#223 = MECHANICAL_CONTEXT ( 'NONE', #182, 'mechanical' ) ;
#224 = PERSON_AND_ORGANIZATION_ROLE ( 'design_owner' ) ;
#225 = EDGE_CURVE ( 'NONE', #154, #140, #246, .T. ) ;
#226 = SECURITY_CLASSIFICATION ( '', '', #2 ) ;
#227 = CARTESIAN_POINT ( 'NONE',  ( 0.000000000000000000, 0.000000000000000000, 0.000000000000000000 ) ) ;
#228 = CC_DESIGN_PERSON_AND_ORGANIZATION_ASSIGNMENT ( #113, #192, ( #136 ) ) ;
#229 = FACE_BOUND ( 'NONE', #239, .T. ) ;
#230 = COORDINATED_UNIVERSAL_TIME_OFFSET ( 6, 0, .BEHIND. ) ;
#231 = DATE_TIME_ROLE ( 'creation_date' ) ;
#232 = ORIENTED_EDGE ( 'NONE', *, *, #115, .T. ) ;
#233 = APPROVAL_DATE_TIME ( #131, #141 ) ;
#234 = DATE_AND_TIME ( #173, #213 ) ;
#235 = ADVANCED_BREP_SHAPE_REPRESENTATION ( 'HW-W_M4_washer_0p5_ENVELOPE', ( #177, #64 ), #41 ) ;
#236 = CARTESIAN_POINT ( 'NONE',  ( 0.000000000000000000, 0.000000000000000000, 0.000000000000000000 ) ) ;
#237 = AXIS2_PLACEMENT_3D ( 'NONE', #5, #84, #208 ) ;
#238 = ORIENTED_EDGE ( 'NONE', *, *, #11, .F. ) ;
#239 = EDGE_LOOP ( 'NONE', ( #27, #132 ) ) ;
#240 = CARTESIAN_POINT ( 'NONE',  ( -4.000000000000000000, 0.000000000000000000, 0.000000000000000000 ) ) ;
#241 = CARTESIAN_POINT ( 'NONE',  ( 4.000000000000000000, 4.898587196589412829E-16, 0.000000000000000000 ) ) ;
#242 = DIRECTION ( 'NONE',  ( 0.000000000000000000, 0.000000000000000000, 1.000000000000000000 ) ) ;
#243 = ADVANCED_FACE ( 'NONE', ( #106 ), #75, .F. ) ;
#244 = CARTESIAN_POINT ( 'NONE',  ( 4.000000000000000000, 4.898587196589412829E-16, 0.5000000000000000000 ) ) ;
#245 = PRODUCT_DEFINITION_FORMATION_WITH_SPECIFIED_SOURCE ( 'ANY', '', #51, .NOT_KNOWN. ) ;
#246 = LINE ( 'NONE', #72, #184 ) ;
#247 = CLOSED_SHELL ( 'NONE', ( #155, #19, #157, #28, #110, #243 ) ) ;
#248 = COORDINATED_UNIVERSAL_TIME_OFFSET ( 6, 0, .BEHIND. ) ;
#249 = PERSON_AND_ORGANIZATION ( #129, #94 ) ;
ENDSEC;
END-ISO-10303-21;
