ISO-10303-21;
HEADER;
FILE_DESCRIPTION (( 'STEP AP203' ),
    '1' );
FILE_NAME ('HW-001_608ZZ_22x8x7_ENVELOPE.step',
    '2026-09-07T20:55:36',
    ( '' ),
    ( '' ),
    'SwSTEP 2.0',
    'SolidWorks 2026',
    '' );
FILE_SCHEMA (( 'CONFIG_CONTROL_DESIGN' ));
ENDSEC;

DATA;
#1 = AXIS2_PLACEMENT_3D ( 'NONE', #159, #236, #63 ) ;
#2 = ORIENTED_EDGE ( 'NONE', *, *, #96, .F. ) ;
#3 = DIRECTION ( 'NONE',  ( 0.000000000000000000, 0.000000000000000000, 1.000000000000000000 ) ) ;
#4 = ORIENTED_EDGE ( 'NONE', *, *, #131, .F. ) ;
#5 = CYLINDRICAL_SURFACE ( 'NONE', #1, 11.00000000000000000 ) ;
#6 = CARTESIAN_POINT ( 'NONE',  ( 0.000000000000000000, 0.000000000000000000, 0.000000000000000000 ) ) ;
#7 = EDGE_CURVE ( 'NONE', #66, #50, #164, .T. ) ;
#8 = ORIENTED_EDGE ( 'NONE', *, *, #249, .T. ) ;
#9 = AXIS2_PLACEMENT_3D ( 'NONE', #128, #202, #126 ) ;
#10 = EDGE_LOOP ( 'NONE', ( #234, #175 ) ) ;
#11 = COORDINATED_UNIVERSAL_TIME_OFFSET ( 6, 0, .BEHIND. ) ;
#12 = CYLINDRICAL_SURFACE ( 'NONE', #221, 4.000000000000000000 ) ;
#13 = FACE_OUTER_BOUND ( 'NONE', #60, .T. ) ;
#14 = LOCAL_TIME ( 15, 55, 36.00000000000000000, #144 ) ;
#15 = AXIS2_PLACEMENT_3D ( 'NONE', #223, #73, #55 ) ;
#16 = CYLINDRICAL_SURFACE ( 'NONE', #9, 11.00000000000000000 ) ;
#17 = CC_DESIGN_PERSON_AND_ORGANIZATION_ASSIGNMENT ( #235, #89, ( #24 ) ) ;
#18 = DIRECTION ( 'NONE',  ( 0.000000000000000000, 0.000000000000000000, 1.000000000000000000 ) ) ;
#19 = EDGE_CURVE ( 'NONE', #243, #232, #153, .T. ) ;
#20 = PLANE ( 'NONE',  #114 ) ;
#21 = AXIS2_PLACEMENT_3D ( 'NONE', #52, #71, #200 ) ;
#22 = ORIENTED_EDGE ( 'NONE', *, *, #59, .T. ) ;
#23 = PERSON_AND_ORGANIZATION_ROLE ( 'creator' ) ;
#24 = SECURITY_CLASSIFICATION ( '', '', #158 ) ;
#25 = CARTESIAN_POINT ( 'NONE',  ( 0.000000000000000000, 0.000000000000000000, 7.000000000000000000 ) ) ;
#26 = CALENDAR_DATE ( 2026, 7, 9 ) ;
#27 = ORIENTED_EDGE ( 'NONE', *, *, #7, .F. ) ;
#28 = CALENDAR_DATE ( 2026, 7, 9 ) ;
#29 = VERTEX_POINT ( 'NONE', #101 ) ;
#30 = APPROVAL_ROLE ( '' ) ;
#31 = ORIENTED_EDGE ( 'NONE', *, *, #59, .F. ) ;
#32 = CARTESIAN_POINT ( 'NONE',  ( 0.000000000000000000, 0.000000000000000000, 0.000000000000000000 ) ) ;
#33 = PRODUCT ( 'HW-001_608ZZ_22x8x7_ENVELOPE', 'HW-001_608ZZ_22x8x7_ENVELOPE', '', ( #124 ) ) ;
#34 = CARTESIAN_POINT ( 'NONE',  ( 0.000000000000000000, 0.000000000000000000, 7.000000000000000000 ) ) ;
#35 = PRODUCT_DEFINITION_SHAPE ( 'NONE', 'NONE',  #78 ) ;
#36 = FACE_OUTER_BOUND ( 'NONE', #143, .T. ) ;
#37 = CYLINDRICAL_SURFACE ( 'NONE', #45, 4.000000000000000000 ) ;
#38 = CC_DESIGN_DATE_AND_TIME_ASSIGNMENT ( #102, #61, ( #78 ) ) ;
#39 = DIRECTION ( 'NONE',  ( -0.000000000000000000, -0.000000000000000000, -1.000000000000000000 ) ) ;
#40 = ADVANCED_FACE ( 'NONE', ( #176 ), #5, .T. ) ;
#41 = ORIENTED_EDGE ( 'NONE', *, *, #185, .F. ) ;
#42 = CALENDAR_DATE ( 2026, 7, 9 ) ;
#43 = CC_DESIGN_APPROVAL ( #189, ( #78 ) ) ;
#44 = VERTEX_POINT ( 'NONE', #215 ) ;
#45 = AXIS2_PLACEMENT_3D ( 'NONE', #147, #247, #149 ) ;
#46 = DATE_AND_TIME ( #174, #72 ) ;
#47 = UNCERTAINTY_MEASURE_WITH_UNIT (LENGTH_MEASURE( 1.000000000000000082E-05 ), #94, 'distance_accuracy_value', 'NONE');
#48 = CARTESIAN_POINT ( 'NONE',  ( -4.000000000000000000, 0.000000000000000000, 0.000000000000000000 ) ) ;
#49 = APPROVAL_ROLE ( '' ) ;
#50 = VERTEX_POINT ( 'NONE', #48 ) ;
#51 = VERTEX_POINT ( 'NONE', #122 ) ;
#52 = CARTESIAN_POINT ( 'NONE',  ( 0.000000000000000000, 0.000000000000000000, 7.000000000000000000 ) ) ;
#53 = CARTESIAN_POINT ( 'NONE',  ( -11.00000000000000000, 0.000000000000000000, 7.000000000000000000 ) ) ;
#54 = EDGE_CURVE ( 'NONE', #68, #51, #108, .T. ) ;
#55 = DIRECTION ( 'NONE',  ( 1.000000000000000000, 0.000000000000000000, 0.000000000000000000 ) ) ;
#56 = AXIS2_PLACEMENT_3D ( 'NONE', #6, #3, #116 ) ;
#57 = CARTESIAN_POINT ( 'NONE',  ( 11.00000000000000000, 1.347111479062088405E-15, 7.000000000000000000 ) ) ;
#58 = CLOSED_SHELL ( 'NONE', ( #140, #40, #239, #169, #224, #88 ) ) ;
#59 = EDGE_CURVE ( 'NONE', #232, #51, #222, .T. ) ;
#60 = EDGE_LOOP ( 'NONE', ( #87, #79 ) ) ;
#61 = DATE_TIME_ROLE ( 'creation_date' ) ;
#62 = ORIENTED_EDGE ( 'NONE', *, *, #162, .T. ) ;
#63 = DIRECTION ( 'NONE',  ( -1.000000000000000000, 0.000000000000000000, 0.000000000000000000 ) ) ;
#64 = APPROVAL_PERSON_ORGANIZATION ( #80, #189, #49 ) ;
#65 = DATE_AND_TIME ( #28, #230 ) ;
#66 = VERTEX_POINT ( 'NONE', #148 ) ;
#67 = COORDINATED_UNIVERSAL_TIME_OFFSET ( 6, 0, .BEHIND. ) ;
#68 = VERTEX_POINT ( 'NONE', #168 ) ;
#69 = PERSON_AND_ORGANIZATION ( #241, #172 ) ;
#70 = VECTOR ( 'NONE', #117, 1000.000000000000000 ) ;
#71 = DIRECTION ( 'NONE',  ( 0.000000000000000000, 0.000000000000000000, 1.000000000000000000 ) ) ;
#72 = LOCAL_TIME ( 15, 55, 36.00000000000000000, #11 ) ;
#73 = DIRECTION ( 'NONE',  ( 0.000000000000000000, 0.000000000000000000, 1.000000000000000000 ) ) ;
#74 = DIRECTION ( 'NONE',  ( 0.000000000000000000, 0.000000000000000000, 1.000000000000000000 ) ) ;
#75 = DIRECTION ( 'NONE',  ( 1.000000000000000000, 0.000000000000000000, 0.000000000000000000 ) ) ;
#76 = CARTESIAN_POINT ( 'NONE',  ( 0.000000000000000000, 0.000000000000000000, 7.000000000000000000 ) ) ;
#77 = PRODUCT_DEFINITION_FORMATION_WITH_SPECIFIED_SOURCE ( 'ANY', '', #33, .NOT_KNOWN. ) ;
#78 = PRODUCT_DEFINITION ( 'UNKNOWN', '', #77, #112 ) ;
#79 = ORIENTED_EDGE ( 'NONE', *, *, #19, .T. ) ;
#80 = PERSON_AND_ORGANIZATION ( #241, #172 ) ;
#81 = APPLICATION_CONTEXT ( 'configuration controlled 3d designs of mechanical parts and assemblies' ) ;
#82 = DIRECTION ( 'NONE',  ( 0.000000000000000000, 0.000000000000000000, 1.000000000000000000 ) ) ;
#83 = PERSON_AND_ORGANIZATION ( #241, #172 ) ;
#84 = VECTOR ( 'NONE', #106, 1000.000000000000000 ) ;
#85 = ORIENTED_EDGE ( 'NONE', *, *, #19, .F. ) ;
#86 = APPLICATION_PROTOCOL_DEFINITION ( 'international standard', 'config_control_design', 1994, #81 ) ;
#87 = ORIENTED_EDGE ( 'NONE', *, *, #185, .T. ) ;
#88 = ADVANCED_FACE ( 'NONE', ( #198 ), #12, .F. ) ;
#89 = PERSON_AND_ORGANIZATION_ROLE ( 'classification_officer' ) ;
#90 = DIRECTION ( 'NONE',  ( -0.000000000000000000, -0.000000000000000000, -1.000000000000000000 ) ) ;
#91 = AXIS2_PLACEMENT_3D ( 'NONE', #196, #103, #177 ) ;
#92 = FACE_BOUND ( 'NONE', #10, .T. ) ;
#93 = CARTESIAN_POINT ( 'NONE',  ( 0.000000000000000000, 0.000000000000000000, 7.000000000000000000 ) ) ;
#94 =( LENGTH_UNIT ( ) NAMED_UNIT ( * ) SI_UNIT ( .MILLI., .METRE. ) );
#95 = MANIFOLD_SOLID_BREP ( 'Bearing_width_7mm_simplified', #58 ) ;
#96 = EDGE_CURVE ( 'NONE', #51, #68, #211, .T. ) ;
#97 = AXIS2_PLACEMENT_3D ( 'NONE', #32, #125, #109 ) ;
#98 = CALENDAR_DATE ( 2026, 7, 9 ) ;
#99 = CC_DESIGN_APPROVAL ( #231, ( #24 ) ) ;
#100 = ORIENTED_EDGE ( 'NONE', *, *, #113, .F. ) ;
#101 = CARTESIAN_POINT ( 'NONE',  ( 4.000000000000000000, 4.898587196589412829E-16, 7.000000000000000000 ) ) ;
#102 = DATE_AND_TIME ( #98, #183 ) ;
#103 = DIRECTION ( 'NONE',  ( 0.000000000000000000, 0.000000000000000000, 1.000000000000000000 ) ) ;
#104 = APPROVAL_DATE_TIME ( #197, #231 ) ;
#105 = CC_DESIGN_PERSON_AND_ORGANIZATION_ASSIGNMENT ( #69, #138, ( #77 ) ) ;
#106 = DIRECTION ( 'NONE',  ( -0.000000000000000000, -0.000000000000000000, -1.000000000000000000 ) ) ;
#107 = APPLICATION_CONTEXT ( 'configuration controlled 3d designs of mechanical parts and assemblies' ) ;
#108 = CIRCLE ( 'NONE', #91, 11.00000000000000000 ) ;
#109 = DIRECTION ( 'NONE',  ( 1.000000000000000000, 0.000000000000000000, 0.000000000000000000 ) ) ;
#110 = CARTESIAN_POINT ( 'NONE',  ( 0.000000000000000000, 0.000000000000000000, 7.000000000000000000 ) ) ;
#111 = DIRECTION ( 'NONE',  ( 0.000000000000000000, 0.000000000000000000, 1.000000000000000000 ) ) ;
#112 = DESIGN_CONTEXT ( 'detailed design', #81, 'design' ) ;
#113 = EDGE_CURVE ( 'NONE', #243, #68, #187, .T. ) ;
#114 = AXIS2_PLACEMENT_3D ( 'NONE', #225, #152, #186 ) ;
#115 = CC_DESIGN_PERSON_AND_ORGANIZATION_ASSIGNMENT ( #136, #212, ( #77 ) ) ;
#116 = DIRECTION ( 'NONE',  ( 1.000000000000000000, 0.000000000000000000, 0.000000000000000000 ) ) ;
#117 = DIRECTION ( 'NONE',  ( -0.000000000000000000, -0.000000000000000000, -1.000000000000000000 ) ) ;
#118 = PERSON_AND_ORGANIZATION ( #241, #172 ) ;
#119 = CC_DESIGN_SECURITY_CLASSIFICATION ( #24, ( #77 ) ) ;
#120 = ORIENTED_EDGE ( 'NONE', *, *, #96, .T. ) ;
#121 = COORDINATED_UNIVERSAL_TIME_OFFSET ( 6, 0, .BEHIND. ) ;
#122 = CARTESIAN_POINT ( 'NONE',  ( -11.00000000000000000, 0.000000000000000000, 0.000000000000000000 ) ) ;
#123 = CC_DESIGN_PERSON_AND_ORGANIZATION_ASSIGNMENT ( #118, #165, ( #33 ) ) ;
#124 = MECHANICAL_CONTEXT ( 'NONE', #107, 'mechanical' ) ;
#125 = DIRECTION ( 'NONE',  ( 0.000000000000000000, 0.000000000000000000, 1.000000000000000000 ) ) ;
#126 = DIRECTION ( 'NONE',  ( -1.000000000000000000, 0.000000000000000000, 0.000000000000000000 ) ) ;
#127 = FACE_OUTER_BOUND ( 'NONE', #179, .T. ) ;
#128 = CARTESIAN_POINT ( 'NONE',  ( 0.000000000000000000, 0.000000000000000000, 7.000000000000000000 ) ) ;
#129 = CIRCLE ( 'NONE', #97, 4.000000000000000000 ) ;
#130 = LINE ( 'NONE', #246, #214 ) ;
#131 = EDGE_CURVE ( 'NONE', #44, #50, #129, .T. ) ;
#132 =( NAMED_UNIT ( * ) PLANE_ANGLE_UNIT ( ) SI_UNIT ( $, .RADIAN. ) );
#133 = CC_DESIGN_APPROVAL ( #150, ( #77 ) ) ;
#134 = AXIS2_PLACEMENT_3D ( 'NONE', #171, #74, #75 ) ;
#135 = CARTESIAN_POINT ( 'NONE',  ( -4.000000000000000000, 0.000000000000000000, 7.000000000000000000 ) ) ;
#136 = PERSON_AND_ORGANIZATION ( #241, #172 ) ;
#137 = EDGE_LOOP ( 'NONE', ( #141, #8, #163, #27 ) ) ;
#138 = PERSON_AND_ORGANIZATION_ROLE ( 'creator' ) ;
#139 =( GEOMETRIC_REPRESENTATION_CONTEXT ( 3 ) GLOBAL_UNCERTAINTY_ASSIGNED_CONTEXT ( ( #47 ) ) GLOBAL_UNIT_ASSIGNED_CONTEXT ( ( #94, #132, #205 ) ) REPRESENTATION_CONTEXT ( 'NONE', 'WORKASPACE' ) );
#140 = ADVANCED_FACE ( 'NONE', ( #203 ), #37, .F. ) ;
#141 = ORIENTED_EDGE ( 'NONE', *, *, #173, .T. ) ;
#142 = APPROVAL_STATUS ( 'not_yet_approved' ) ;
#143 = EDGE_LOOP ( 'NONE', ( #2, #145 ) ) ;
#144 = COORDINATED_UNIVERSAL_TIME_OFFSET ( 6, 0, .BEHIND. ) ;
#145 = ORIENTED_EDGE ( 'NONE', *, *, #54, .F. ) ;
#146 = LOCAL_TIME ( 15, 55, 36.00000000000000000, #67 ) ;
#147 = CARTESIAN_POINT ( 'NONE',  ( 0.000000000000000000, 0.000000000000000000, 7.000000000000000000 ) ) ;
#148 = CARTESIAN_POINT ( 'NONE',  ( -4.000000000000000000, 0.000000000000000000, 7.000000000000000000 ) ) ;
#149 = DIRECTION ( 'NONE',  ( -1.000000000000000000, 0.000000000000000000, 0.000000000000000000 ) ) ;
#150 = APPROVAL ( #233, 'UNSPECIFIED' ) ;
#151 = DIRECTION ( 'NONE',  ( 1.000000000000000000, 0.000000000000000000, -0.000000000000000000 ) ) ;
#152 = DIRECTION ( 'NONE',  ( 0.000000000000000000, 0.000000000000000000, 1.000000000000000000 ) ) ;
#153 = CIRCLE ( 'NONE', #192, 11.00000000000000000 ) ;
#154 = AXIS2_PLACEMENT_3D ( 'NONE', #110, #18, #151 ) ;
#155 = EDGE_LOOP ( 'NONE', ( #210, #62, #217, #4 ) ) ;
#156 = PERSON_AND_ORGANIZATION ( #241, #172 ) ;
#157 = DIRECTION ( 'NONE',  ( 1.000000000000000000, 0.000000000000000000, 0.000000000000000000 ) ) ;
#158 = SECURITY_CLASSIFICATION_LEVEL ( 'unclassified' ) ;
#159 = CARTESIAN_POINT ( 'NONE',  ( 0.000000000000000000, 0.000000000000000000, 7.000000000000000000 ) ) ;
#160 = APPROVAL_STATUS ( 'not_yet_approved' ) ;
#161 = CIRCLE ( 'NONE', #21, 11.00000000000000000 ) ;
#162 = EDGE_CURVE ( 'NONE', #29, #66, #201, .T. ) ;
#163 = ORIENTED_EDGE ( 'NONE', *, *, #218, .F. ) ;
#164 = LINE ( 'NONE', #135, #70 ) ;
#165 = PERSON_AND_ORGANIZATION_ROLE ( 'design_owner' ) ;
#166 = FACE_BOUND ( 'NONE', #194, .T. ) ;
#167 = APPROVAL_PERSON_ORGANIZATION ( #193, #231, #216 ) ;
#168 = CARTESIAN_POINT ( 'NONE',  ( 11.00000000000000000, 1.347111479062088405E-15, 0.000000000000000000 ) ) ;
#169 = ADVANCED_FACE ( 'NONE', ( #36, #166 ), #20, .F. ) ;
#170 = DIRECTION ( 'NONE',  ( -0.000000000000000000, -0.000000000000000000, -1.000000000000000000 ) ) ;
#171 = CARTESIAN_POINT ( 'NONE',  ( 0.000000000000000000, 0.000000000000000000, 0.000000000000000000 ) ) ;
#172 = ORGANIZATION ( 'UNSPECIFIED', 'UNSPECIFIED', '' ) ;
#173 = EDGE_CURVE ( 'NONE', #66, #29, #188, .T. ) ;
#174 = CALENDAR_DATE ( 2026, 7, 9 ) ;
#175 = ORIENTED_EDGE ( 'NONE', *, *, #162, .F. ) ;
#176 = FACE_OUTER_BOUND ( 'NONE', #220, .T. ) ;
#177 = DIRECTION ( 'NONE',  ( 1.000000000000000000, 0.000000000000000000, 0.000000000000000000 ) ) ;
#178 = SHAPE_DEFINITION_REPRESENTATION ( #35, #207 ) ;
#179 = EDGE_LOOP ( 'NONE', ( #100, #41, #22, #120 ) ) ;
#180 = APPLICATION_PROTOCOL_DEFINITION ( 'international standard', 'config_control_design', 1994, #107 ) ;
#181 = DIRECTION ( 'NONE',  ( 1.000000000000000000, 0.000000000000000000, 0.000000000000000000 ) ) ;
#182 = CARTESIAN_POINT ( 'NONE',  ( -11.00000000000000000, 0.000000000000000000, 7.000000000000000000 ) ) ;
#183 = LOCAL_TIME ( 15, 55, 36.00000000000000000, #121 ) ;
#184 = CIRCLE ( 'NONE', #15, 4.000000000000000000 ) ;
#185 = EDGE_CURVE ( 'NONE', #232, #243, #161, .T. ) ;
#186 = DIRECTION ( 'NONE',  ( 1.000000000000000000, 0.000000000000000000, -0.000000000000000000 ) ) ;
#187 = LINE ( 'NONE', #248, #84 ) ;
#188 = CIRCLE ( 'NONE', #238, 4.000000000000000000 ) ;
#189 = APPROVAL ( #160, 'UNSPECIFIED' ) ;
#190 = ORIENTED_EDGE ( 'NONE', *, *, #113, .T. ) ;
#191 = ORIENTED_EDGE ( 'NONE', *, *, #218, .T. ) ;
#192 = AXIS2_PLACEMENT_3D ( 'NONE', #25, #82, #157 ) ;
#193 = PERSON_AND_ORGANIZATION ( #241, #172 ) ;
#194 = EDGE_LOOP ( 'NONE', ( #191, #208 ) ) ;
#195 = COORDINATED_UNIVERSAL_TIME_OFFSET ( 6, 0, .BEHIND. ) ;
#196 = CARTESIAN_POINT ( 'NONE',  ( 0.000000000000000000, 0.000000000000000000, 0.000000000000000000 ) ) ;
#197 = DATE_AND_TIME ( #26, #14 ) ;
#198 = FACE_OUTER_BOUND ( 'NONE', #155, .T. ) ;
#199 = DIRECTION ( 'NONE',  ( 0.000000000000000000, 0.000000000000000000, 1.000000000000000000 ) ) ;
#200 = DIRECTION ( 'NONE',  ( 1.000000000000000000, 0.000000000000000000, 0.000000000000000000 ) ) ;
#201 = CIRCLE ( 'NONE', #226, 4.000000000000000000 ) ;
#202 = DIRECTION ( 'NONE',  ( -0.000000000000000000, -0.000000000000000000, -1.000000000000000000 ) ) ;
#203 = FACE_OUTER_BOUND ( 'NONE', #137, .T. ) ;
#204 = PRODUCT_RELATED_PRODUCT_CATEGORY ( 'detail', '', ( #33 ) ) ;
#205 =( NAMED_UNIT ( * ) SI_UNIT ( $, .STERADIAN. ) SOLID_ANGLE_UNIT ( ) );
#206 = CC_DESIGN_PERSON_AND_ORGANIZATION_ASSIGNMENT ( #83, #23, ( #78 ) ) ;
#207 = ADVANCED_BREP_SHAPE_REPRESENTATION ( 'HW-001_608ZZ_22x8x7_ENVELOPE', ( #95, #56 ), #139 ) ;
#208 = ORIENTED_EDGE ( 'NONE', *, *, #131, .T. ) ;
#209 = DATE_AND_TIME ( #42, #146 ) ;
#210 = ORIENTED_EDGE ( 'NONE', *, *, #249, .F. ) ;
#211 = CIRCLE ( 'NONE', #134, 11.00000000000000000 ) ;
#212 = PERSON_AND_ORGANIZATION_ROLE ( 'design_supplier' ) ;
#213 = APPROVAL_PERSON_ORGANIZATION ( #156, #150, #30 ) ;
#214 = VECTOR ( 'NONE', #39, 1000.000000000000000 ) ;
#215 = CARTESIAN_POINT ( 'NONE',  ( 4.000000000000000000, 4.898587196589412829E-16, 0.000000000000000000 ) ) ;
#216 = APPROVAL_ROLE ( '' ) ;
#217 = ORIENTED_EDGE ( 'NONE', *, *, #7, .T. ) ;
#218 = EDGE_CURVE ( 'NONE', #50, #44, #184, .T. ) ;
#219 = DATE_TIME_ROLE ( 'classification_date' ) ;
#220 = EDGE_LOOP ( 'NONE', ( #85, #190, #240, #31 ) ) ;
#221 = AXIS2_PLACEMENT_3D ( 'NONE', #76, #90, #228 ) ;
#222 = LINE ( 'NONE', #53, #229 ) ;
#223 = CARTESIAN_POINT ( 'NONE',  ( 0.000000000000000000, 0.000000000000000000, 0.000000000000000000 ) ) ;
#224 = ADVANCED_FACE ( 'NONE', ( #127 ), #16, .T. ) ;
#225 = CARTESIAN_POINT ( 'NONE',  ( 0.000000000000000000, 0.000000000000000000, 0.000000000000000000 ) ) ;
#226 = AXIS2_PLACEMENT_3D ( 'NONE', #93, #111, #181 ) ;
#227 = PLANE ( 'NONE',  #154 ) ;
#228 = DIRECTION ( 'NONE',  ( -1.000000000000000000, 0.000000000000000000, 0.000000000000000000 ) ) ;
#229 = VECTOR ( 'NONE', #170, 1000.000000000000000 ) ;
#230 = LOCAL_TIME ( 15, 55, 36.00000000000000000, #195 ) ;
#231 = APPROVAL ( #142, 'UNSPECIFIED' ) ;
#232 = VERTEX_POINT ( 'NONE', #182 ) ;
#233 = APPROVAL_STATUS ( 'not_yet_approved' ) ;
#234 = ORIENTED_EDGE ( 'NONE', *, *, #173, .F. ) ;
#235 = PERSON_AND_ORGANIZATION ( #241, #172 ) ;
#236 = DIRECTION ( 'NONE',  ( -0.000000000000000000, -0.000000000000000000, -1.000000000000000000 ) ) ;
#237 = APPROVAL_DATE_TIME ( #46, #189 ) ;
#238 = AXIS2_PLACEMENT_3D ( 'NONE', #34, #199, #245 ) ;
#239 = ADVANCED_FACE ( 'NONE', ( #13, #92 ), #227, .T. ) ;
#240 = ORIENTED_EDGE ( 'NONE', *, *, #54, .T. ) ;
#241 = PERSON ( 'UNSPECIFIED', 'UNSPECIFIED', 'UNSPECIFIED', ('UNSPECIFIED'), ('UNSPECIFIED'), ('UNSPECIFIED') ) ;
#242 = APPROVAL_DATE_TIME ( #65, #150 ) ;
#243 = VERTEX_POINT ( 'NONE', #57 ) ;
#244 = CC_DESIGN_DATE_AND_TIME_ASSIGNMENT ( #209, #219, ( #24 ) ) ;
#245 = DIRECTION ( 'NONE',  ( 1.000000000000000000, 0.000000000000000000, 0.000000000000000000 ) ) ;
#246 = CARTESIAN_POINT ( 'NONE',  ( 4.000000000000000000, 4.898587196589412829E-16, 7.000000000000000000 ) ) ;
#247 = DIRECTION ( 'NONE',  ( -0.000000000000000000, -0.000000000000000000, -1.000000000000000000 ) ) ;
#248 = CARTESIAN_POINT ( 'NONE',  ( 11.00000000000000000, 1.347111479062088405E-15, 7.000000000000000000 ) ) ;
#249 = EDGE_CURVE ( 'NONE', #29, #44, #130, .T. ) ;
ENDSEC;
END-ISO-10303-21;
