ISO-10303-21;
HEADER;
FILE_DESCRIPTION (( 'STEP AP203' ),
    '1' );
FILE_NAME ('FIT-001_Dowel_and_bearing_trial.step',
    '2026-09-08T13:29:20',
    ( '' ),
    ( '' ),
    'SwSTEP 2.0',
    'SolidWorks 2026',
    '' );
FILE_SCHEMA (( 'CONFIG_CONTROL_DESIGN' ));
ENDSEC;

DATA;
#1 = DIRECTION ( 'NONE',  ( -1.000000000000000000, 0.000000000000000000, 0.000000000000000000 ) ) ;
#2 = DIRECTION ( 'NONE',  ( -0.000000000000000000, -0.000000000000000000, 1.000000000000000000 ) ) ;
#3 = ORIENTED_EDGE ( 'NONE', *, *, #617, .F. ) ;
#4 = EDGE_CURVE ( 'NONE', #653, #117, #497, .T. ) ;
#5 = CARTESIAN_POINT ( 'NONE',  ( -15.00000000000000000, 0.000000000000000000, 8.000000000000000000 ) ) ;
#6 = DIRECTION ( 'NONE',  ( 0.000000000000000000, 0.000000000000000000, -1.000000000000000000 ) ) ;
#7 = ORIENTED_EDGE ( 'NONE', *, *, #247, .T. ) ;
#8 = LINE ( 'NONE', #576, #802 ) ;
#9 = DIRECTION ( 'NONE',  ( 1.000000000000000000, 0.000000000000000000, 0.000000000000000000 ) ) ;
#10 = EDGE_CURVE ( 'NONE', #828, #620, #645, .T. ) ;
#11 = CIRCLE ( 'NONE', #147, 3.174999999999997158 ) ;
#12 = ORIENTED_EDGE ( 'NONE', *, *, #545, .T. ) ;
#13 = FACE_OUTER_BOUND ( 'NONE', #539, .T. ) ;
#14 = DIRECTION ( 'NONE',  ( 0.000000000000000000, 0.000000000000000000, -1.000000000000000000 ) ) ;
#15 = ORIENTED_EDGE ( 'NONE', *, *, #533, .F. ) ;
#16 = AXIS2_PLACEMENT_3D ( 'NONE', #207, #770, #704 ) ;
#17 = FACE_OUTER_BOUND ( 'NONE', #814, .T. ) ;
#18 = ADVANCED_FACE ( 'NONE', ( #609 ), #492, .F. ) ;
#19 = CYLINDRICAL_SURFACE ( 'NONE', #351, 3.325000000000001510 ) ;
#20 = DIRECTION ( 'NONE',  ( 0.000000000000000000, 0.000000000000000000, -1.000000000000000000 ) ) ;
#21 = CARTESIAN_POINT ( 'NONE',  ( 3.225000000000000089, -11.00000000000000000, 8.000000000000000000 ) ) ;
#22 = APPROVAL_STATUS ( 'not_yet_approved' ) ;
#23 = CARTESIAN_POINT ( 'NONE',  ( -30.00000000000000000, -11.00000000000000000, 8.000000000000000000 ) ) ;
#24 = CIRCLE ( 'NONE', #340, 11.15000000000000036 ) ;
#25 = CARTESIAN_POINT ( 'NONE',  ( -34.00000000000000000, 1.347111479062088010E-15, 8.000000000000000000 ) ) ;
#26 = CARTESIAN_POINT ( 'NONE',  ( 0.000000000000000000, 0.000000000000000000, 0.000000000000000000 ) ) ;
#27 = ORIENTED_EDGE ( 'NONE', *, *, #310, .T. ) ;
#28 = LOCAL_TIME ( 8, 29, 20.00000000000000000, #439 ) ;
#29 = DIRECTION ( 'NONE',  ( -1.000000000000000000, 0.000000000000000000, 0.000000000000000000 ) ) ;
#30 = DIRECTION ( 'NONE',  ( 0.000000000000000000, 0.000000000000000000, 1.000000000000000000 ) ) ;
#31 = ORIENTED_EDGE ( 'NONE', *, *, #215, .F. ) ;
#32 = FACE_OUTER_BOUND ( 'NONE', #237, .T. ) ;
#33 = UNCERTAINTY_MEASURE_WITH_UNIT (LENGTH_MEASURE( 1.000000000000000082E-05 ), #650, 'distance_accuracy_value', 'NONE');
#34 = EDGE_CURVE ( 'NONE', #668, #653, #440, .T. ) ;
#35 = EDGE_LOOP ( 'NONE', ( #455, #553 ) ) ;
#36 = CIRCLE ( 'NONE', #93, 3.225000000000000089 ) ;
#37 = PRODUCT ( 'FIT-001_Dowel_and_bearing_trial', 'FIT-001_Dowel_and_bearing_trial', '', ( #218 ) ) ;
#38 = DIRECTION ( 'NONE',  ( -1.000000000000000000, 0.000000000000000000, 0.000000000000000000 ) ) ;
#39 = CALENDAR_DATE ( 2026, 8, 9 ) ;
#40 = VERTEX_POINT ( 'NONE', #744 ) ;
#41 = LINE ( 'NONE', #469, #99 ) ;
#42 = ORIENTED_EDGE ( 'NONE', *, *, #797, .T. ) ;
#43 = ORIENTED_EDGE ( 'NONE', *, *, #329, .T. ) ;
#44 = VECTOR ( 'NONE', #20, 1000.000000000000000 ) ;
#45 = CARTESIAN_POINT ( 'NONE',  ( 56.00000000000000000, -11.00000000000000000, 0.000000000000000000 ) ) ;
#46 = ORIENTED_EDGE ( 'NONE', *, *, #629, .F. ) ;
#47 = ADVANCED_FACE ( 'NONE', ( #316 ), #750, .F. ) ;
#48 = CALENDAR_DATE ( 2026, 8, 9 ) ;
#49 = VERTEX_POINT ( 'NONE', #305 ) ;
#50 = CARTESIAN_POINT ( 'NONE',  ( -60.00000000000000000, 17.00000000000000000, 0.000000000000000000 ) ) ;
#51 = ORIENTED_EDGE ( 'NONE', *, *, #473, .T. ) ;
#52 = AXIS2_PLACEMENT_3D ( 'NONE', #826, #366, #606 ) ;
#53 = CARTESIAN_POINT ( 'NONE',  ( 3.225000000000000089, -11.00000000000000000, 0.000000000000000000 ) ) ;
#54 = DIRECTION ( 'NONE',  ( 1.000000000000000000, 0.000000000000000000, 0.000000000000000000 ) ) ;
#55 = VERTEX_POINT ( 'NONE', #376 ) ;
#56 = APPROVAL_DATE_TIME ( #488, #470 ) ;
#57 = DIRECTION ( 'NONE',  ( -1.000000000000000000, 0.000000000000000000, 0.000000000000000000 ) ) ;
#58 = DIRECTION ( 'NONE',  ( 0.000000000000000000, -1.000000000000000000, 0.000000000000000000 ) ) ;
#59 = EDGE_CURVE ( 'NONE', #737, #134, #355, .T. ) ;
#60 = VECTOR ( 'NONE', #472, 1000.000000000000000 ) ;
#61 = EDGE_LOOP ( 'NONE', ( #337, #804, #168, #611 ) ) ;
#62 = AXIS2_PLACEMENT_3D ( 'NONE', #685, #123, #618 ) ;
#63 = EDGE_LOOP ( 'NONE', ( #789, #307, #731, #125 ) ) ;
#64 = DIRECTION ( 'NONE',  ( -0.000000000000000000, -0.000000000000000000, -1.000000000000000000 ) ) ;
#65 = EDGE_CURVE ( 'NONE', #495, #392, #562, .T. ) ;
#66 = ORIENTED_EDGE ( 'NONE', *, *, #371, .T. ) ;
#67 = DIRECTION ( 'NONE',  ( -1.000000000000000000, 0.000000000000000000, 0.000000000000000000 ) ) ;
#68 = VECTOR ( 'NONE', #398, 1000.000000000000000 ) ;
#69 = EDGE_LOOP ( 'NONE', ( #552, #567, #605, #186 ) ) ;
#70 = CARTESIAN_POINT ( 'NONE',  ( -60.00000000000000000, 17.00000000000000000, 8.000000000000000000 ) ) ;
#71 = APPLICATION_CONTEXT ( 'configuration controlled 3d designs of mechanical parts and assemblies' ) ;
#72 = LINE ( 'NONE', #458, #335 ) ;
#73 = CIRCLE ( 'NONE', #762, 3.275000000000000355 ) ;
#74 = ORIENTED_EDGE ( 'NONE', *, *, #298, .T. ) ;
#75 = FACE_BOUND ( 'NONE', #819, .T. ) ;
#76 = CARTESIAN_POINT ( 'NONE',  ( -26.05000000000000071, 0.000000000000000000, 8.000000000000000000 ) ) ;
#77 = CC_DESIGN_SECURITY_CLASSIFICATION ( #624, ( #233 ) ) ;
#78 = EDGE_LOOP ( 'NONE', ( #141, #3, #589, #778 ) ) ;
#79 = DIRECTION ( 'NONE',  ( 0.000000000000000000, 0.000000000000000000, -1.000000000000000000 ) ) ;
#80 = DIRECTION ( 'NONE',  ( 0.000000000000000000, 0.000000000000000000, -1.000000000000000000 ) ) ;
#81 = AXIS2_PLACEMENT_3D ( 'NONE', #251, #255, #377 ) ;
#82 = ORIENTED_EDGE ( 'NONE', *, *, #34, .T. ) ;
#83 = CARTESIAN_POINT ( 'NONE',  ( 0.000000000000000000, 0.000000000000000000, 8.000000000000000000 ) ) ;
#84 = CARTESIAN_POINT ( 'NONE',  ( 30.00000000000000000, -11.00000000000000000, 0.000000000000000000 ) ) ;
#85 = CC_DESIGN_DATE_AND_TIME_ASSIGNMENT ( #599, #275, ( #792 ) ) ;
#86 = VECTOR ( 'NONE', #724, 1000.000000000000000 ) ;
#87 = DIRECTION ( 'NONE',  ( 0.000000000000000000, 0.000000000000000000, 1.000000000000000000 ) ) ;
#88 = LINE ( 'NONE', #591, #60 ) ;
#89 = VECTOR ( 'NONE', #689, 1000.000000000000000 ) ;
#90 = EDGE_CURVE ( 'NONE', #536, #580, #276, .T. ) ;
#91 = CARTESIAN_POINT ( 'NONE',  ( -60.00000000000000000, -17.00000000000000000, 0.000000000000000000 ) ) ;
#92 = LINE ( 'NONE', #721, #746 ) ;
#93 = AXIS2_PLACEMENT_3D ( 'NONE', #631, #506, #9 ) ;
#94 = VERTEX_POINT ( 'NONE', #740 ) ;
#95 = CC_DESIGN_DATE_AND_TIME_ASSIGNMENT ( #421, #236, ( #624 ) ) ;
#96 = APPROVAL_ROLE ( '' ) ;
#97 = EDGE_LOOP ( 'NONE', ( #766, #12, #220, #596 ) ) ;
#98 = CARTESIAN_POINT ( 'NONE',  ( 56.14999999999999858, 1.365481181049298835E-15, 8.000000000000000000 ) ) ;
#99 = VECTOR ( 'NONE', #466, 1000.000000000000000 ) ;
#100 = ADVANCED_FACE ( 'NONE', ( #626 ), #811, .F. ) ;
#101 = CARTESIAN_POINT ( 'NONE',  ( 30.00000000000000000, -11.00000000000000000, 8.000000000000000000 ) ) ;
#102 = EDGE_LOOP ( 'NONE', ( #42, #632, #386, #531 ) ) ;
#103 = DIRECTION ( 'NONE',  ( 0.000000000000000000, 0.000000000000000000, 1.000000000000000000 ) ) ;
#104 = CIRCLE ( 'NONE', #481, 11.05000000000000071 ) ;
#105 = DIRECTION ( 'NONE',  ( 1.000000000000000000, 0.000000000000000000, 0.000000000000000000 ) ) ;
#106 = CARTESIAN_POINT ( 'NONE',  ( 3.900000000000000799, 0.000000000000000000, 8.000000000000000000 ) ) ;
#107 = ORIENTED_EDGE ( 'NONE', *, *, #345, .T. ) ;
#108 = LINE ( 'NONE', #732, #703 ) ;
#109 = VERTEX_POINT ( 'NONE', #192 ) ;
#110 = AXIS2_PLACEMENT_3D ( 'NONE', #498, #547, #745 ) ;
#111 = EDGE_LOOP ( 'NONE', ( #600, #660, #367, #757 ) ) ;
#112 = CARTESIAN_POINT ( 'NONE',  ( 56.00000000000000000, -11.00000000000000000, 8.000000000000000000 ) ) ;
#113 = ADVANCED_FACE ( 'NONE', ( #681 ), #119, .F. ) ;
#114 = VERTEX_POINT ( 'NONE', #693 ) ;
#115 = CARTESIAN_POINT ( 'NONE',  ( 60.00000000000000000, -17.00000000000000000, 8.000000000000000000 ) ) ;
#116 = CARTESIAN_POINT ( 'NONE',  ( 15.00000000000000000, 0.000000000000000000, 8.000000000000000000 ) ) ;
#117 = VERTEX_POINT ( 'NONE', #825 ) ;
#118 = AXIS2_PLACEMENT_3D ( 'NONE', #445, #821, #754 ) ;
#119 = CYLINDRICAL_SURFACE ( 'NONE', #777, 10.99999999999999645 ) ;
#120 = DIRECTION ( 'NONE',  ( -1.000000000000000000, 0.000000000000000000, 0.000000000000000000 ) ) ;
#121 = ORIENTED_EDGE ( 'NONE', *, *, #273, .F. ) ;
#122 = VECTOR ( 'NONE', #436, 1000.000000000000000 ) ;
#123 = DIRECTION ( 'NONE',  ( 0.000000000000000000, 0.000000000000000000, 1.000000000000000000 ) ) ;
#124 = LINE ( 'NONE', #50, #122 ) ;
#125 = ORIENTED_EDGE ( 'NONE', *, *, #518, .F. ) ;
#126 = EDGE_CURVE ( 'NONE', #485, #370, #104, .T. ) ;
#127 = DIRECTION ( 'NONE',  ( 1.000000000000000000, 0.000000000000000000, 0.000000000000000000 ) ) ;
#128 = DIRECTION ( 'NONE',  ( -0.000000000000000000, -0.000000000000000000, 1.000000000000000000 ) ) ;
#129 = CIRCLE ( 'NONE', #431, 3.174999999999997158 ) ;
#130 = VERTEX_POINT ( 'NONE', #53 ) ;
#131 = CARTESIAN_POINT ( 'NONE',  ( -45.00000000000000000, 0.000000000000000000, 8.000000000000000000 ) ) ;
#132 = DIRECTION ( 'NONE',  ( -0.000000000000000000, -0.000000000000000000, 1.000000000000000000 ) ) ;
#133 = ADVANCED_FACE ( 'NONE', ( #254 ), #372, .F. ) ;
#134 = VERTEX_POINT ( 'NONE', #311 ) ;
#135 = LINE ( 'NONE', #630, #271 ) ;
#136 = CARTESIAN_POINT ( 'NONE',  ( 26.09999999999999787, 1.359357947053561959E-15, 8.000000000000000000 ) ) ;
#137 = ORIENTED_EDGE ( 'NONE', *, *, #90, .F. ) ;
#138 = EDGE_CURVE ( 'NONE', #94, #536, #816, .T. ) ;
#139 = CARTESIAN_POINT ( 'NONE',  ( 15.00000000000000000, 0.000000000000000000, 8.000000000000000000 ) ) ;
#140 = AXIS2_PLACEMENT_3D ( 'NONE', #83, #205, #572 ) ;
#141 = ORIENTED_EDGE ( 'NONE', *, *, #336, .T. ) ;
#142 = CARTESIAN_POINT ( 'NONE',  ( 45.00000000000000000, 0.000000000000000000, 0.000000000000000000 ) ) ;
#143 = CC_DESIGN_APPROVAL ( #321, ( #624 ) ) ;
#144 = EDGE_LOOP ( 'NONE', ( #761, #801 ) ) ;
#145 = CARTESIAN_POINT ( 'NONE',  ( 33.85000000000000142, 0.000000000000000000, 8.000000000000000000 ) ) ;
#146 = DIRECTION ( 'NONE',  ( 1.000000000000000000, 0.000000000000000000, 0.000000000000000000 ) ) ;
#147 = AXIS2_PLACEMENT_3D ( 'NONE', #573, #132, #384 ) ;
#148 = ORIENTED_EDGE ( 'NONE', *, *, #59, .T. ) ;
#149 = DIRECTION ( 'NONE',  ( 0.000000000000000000, 0.000000000000000000, 1.000000000000000000 ) ) ;
#150 = EDGE_CURVE ( 'NONE', #261, #480, #208, .T. ) ;
#151 = CARTESIAN_POINT ( 'NONE',  ( -3.949999999999998845, 1.353234713057825478E-15, 0.000000000000000000 ) ) ;
#152 = VECTOR ( 'NONE', #649, 1000.000000000000000 ) ;
#153 = DIRECTION ( 'NONE',  ( 0.000000000000000000, 0.000000000000000000, 1.000000000000000000 ) ) ;
#154 = LINE ( 'NONE', #221, #179 ) ;
#155 = CC_DESIGN_PERSON_AND_ORGANIZATION_ASSIGNMENT ( #358, #785, ( #792 ) ) ;
#156 = CALENDAR_DATE ( 2026, 8, 9 ) ;
#157 = DIRECTION ( 'NONE',  ( 0.000000000000000000, 0.000000000000000000, -1.000000000000000000 ) ) ;
#158 = VECTOR ( 'NONE', #558, 1000.000000000000000 ) ;
#159 = ADVANCED_FACE ( 'NONE', ( #265 ), #711, .F. ) ;
#160 = DIRECTION ( 'NONE',  ( -0.000000000000000000, -1.000000000000000000, -0.000000000000000000 ) ) ;
#161 = CARTESIAN_POINT ( 'NONE',  ( 26.09999999999999787, 1.359357947053561959E-15, 0.000000000000000000 ) ) ;
#162 = EDGE_LOOP ( 'NONE', ( #795, #491 ) ) ;
#163 = FACE_OUTER_BOUND ( 'NONE', #97, .T. ) ;
#164 = CIRCLE ( 'NONE', #692, 10.99999999999999645 ) ;
#165 = PERSON_AND_ORGANIZATION_ROLE ( 'design_owner' ) ;
#166 = EDGE_LOOP ( 'NONE', ( #809, #607, #461, #206 ) ) ;
#167 = CARTESIAN_POINT ( 'NONE',  ( -34.00000000000000000, 1.347111479062088010E-15, 0.000000000000000000 ) ) ;
#168 = ORIENTED_EDGE ( 'NONE', *, *, #629, .T. ) ;
#169 = DIRECTION ( 'NONE',  ( 0.000000000000000000, 0.000000000000000000, -1.000000000000000000 ) ) ;
#170 = PRODUCT_RELATED_PRODUCT_CATEGORY ( 'detail', '', ( #37 ) ) ;
#171 = EDGE_CURVE ( 'NONE', #134, #737, #593, .T. ) ;
#172 = ORIENTED_EDGE ( 'NONE', *, *, #65, .T. ) ;
#173 = DIRECTION ( 'NONE',  ( 0.000000000000000000, 0.000000000000000000, 1.000000000000000000 ) ) ;
#174 = EDGE_LOOP ( 'NONE', ( #248, #748 ) ) ;
#175 = CIRCLE ( 'NONE', #52, 3.275000000000000355 ) ;
#176 = CARTESIAN_POINT ( 'NONE',  ( -15.00000000000000000, 0.000000000000000000, 8.000000000000000000 ) ) ;
#177 = CARTESIAN_POINT ( 'NONE',  ( -45.00000000000000000, 0.000000000000000000, 8.000000000000000000 ) ) ;
#178 = ORIENTED_EDGE ( 'NONE', *, *, #417, .T. ) ;
#179 = VECTOR ( 'NONE', #662, 1000.000000000000000 ) ;
#180 = DIRECTION ( 'NONE',  ( 0.000000000000000000, 0.000000000000000000, -1.000000000000000000 ) ) ;
#181 = PLANE ( 'NONE',  #188 ) ;
#182 = ORIENTED_EDGE ( 'NONE', *, *, #545, .F. ) ;
#183 =( GEOMETRIC_REPRESENTATION_CONTEXT ( 3 ) GLOBAL_UNCERTAINTY_ASSIGNED_CONTEXT ( ( #33 ) ) GLOBAL_UNIT_ASSIGNED_CONTEXT ( ( #650, #401, #406 ) ) REPRESENTATION_CONTEXT ( 'NONE', 'WORKASPACE' ) );
#184 = DIRECTION ( 'NONE',  ( 0.000000000000000000, 0.000000000000000000, -1.000000000000000000 ) ) ;
#185 = DIRECTION ( 'NONE',  ( -0.000000000000000000, -0.000000000000000000, 1.000000000000000000 ) ) ;
#186 = ORIENTED_EDGE ( 'NONE', *, *, #323, .F. ) ;
#187 = EDGE_CURVE ( 'NONE', #807, #620, #700, .T. ) ;
#188 = AXIS2_PLACEMENT_3D ( 'NONE', #755, #58, #550 ) ;
#189 = CARTESIAN_POINT ( 'NONE',  ( 33.27499999999999858, -11.00000000000000000, 8.000000000000000000 ) ) ;
#190 = CARTESIAN_POINT ( 'NONE',  ( 3.900000000000000799, 0.000000000000000000, 0.000000000000000000 ) ) ;
#191 = ORIENTED_EDGE ( 'NONE', *, *, #717, .F. ) ;
#192 = CARTESIAN_POINT ( 'NONE',  ( -3.225000000000000089, -11.00000000000000000, 8.000000000000000000 ) ) ;
#193 = AXIS2_PLACEMENT_3D ( 'NONE', #799, #169, #467 ) ;
#194 = VERTEX_POINT ( 'NONE', #387 ) ;
#195 = AXIS2_PLACEMENT_3D ( 'NONE', #26, #342, #725 ) ;
#196 = CARTESIAN_POINT ( 'NONE',  ( -45.00000000000000000, 0.000000000000000000, 0.000000000000000000 ) ) ;
#197 = FACE_OUTER_BOUND ( 'NONE', #625, .T. ) ;
#198 = ADVANCED_FACE ( 'NONE', ( #457 ), #707, .F. ) ;
#199 = CC_DESIGN_APPROVAL ( #470, ( #233 ) ) ;
#200 = ORIENTED_EDGE ( 'NONE', *, *, #578, .F. ) ;
#201 = FACE_BOUND ( 'NONE', #162, .T. ) ;
#202 = CIRCLE ( 'NONE', #324, 11.09999999999999787 ) ;
#203 = ADVANCED_FACE ( 'NONE', ( #13 ), #19, .F. ) ;
#204 = ORIENTED_EDGE ( 'NONE', *, *, #444, .F. ) ;
#205 = DIRECTION ( 'NONE',  ( 0.000000000000000000, 0.000000000000000000, -1.000000000000000000 ) ) ;
#206 = ORIENTED_EDGE ( 'NONE', *, *, #674, .F. ) ;
#207 = CARTESIAN_POINT ( 'NONE',  ( -45.00000000000000000, 0.000000000000000000, 8.000000000000000000 ) ) ;
#208 = CIRCLE ( 'NONE', #62, 11.15000000000000036 ) ;
#209 = VERTEX_POINT ( 'NONE', #390 ) ;
#210 = EDGE_CURVE ( 'NONE', #55, #442, #164, .T. ) ;
#211 = CARTESIAN_POINT ( 'NONE',  ( -30.00000000000000000, -11.00000000000000000, 8.000000000000000000 ) ) ;
#212 = AXIS2_PLACEMENT_3D ( 'NONE', #369, #128, #808 ) ;
#213 = DIRECTION ( 'NONE',  ( -0.000000000000000000, -0.000000000000000000, 1.000000000000000000 ) ) ;
#214 = CLOSED_SHELL ( 'NONE', ( #268, #393, #728, #203, #113, #133, #588, #484, #100, #509, #361, #583, #226, #281, #429, #198, #773, #242, #18, #159, #706, #47 ) ) ;
#215 = EDGE_CURVE ( 'NONE', #223, #483, #135, .T. ) ;
#216 = CARTESIAN_POINT ( 'NONE',  ( 45.00000000000000000, 0.000000000000000000, 8.000000000000000000 ) ) ;
#217 = FACE_OUTER_BOUND ( 'NONE', #313, .T. ) ;
#218 = MECHANICAL_CONTEXT ( 'NONE', #658, 'mechanical' ) ;
#219 = CARTESIAN_POINT ( 'NONE',  ( 45.00000000000000000, 0.000000000000000000, 8.000000000000000000 ) ) ;
#220 = ORIENTED_EDGE ( 'NONE', *, *, #782, .T. ) ;
#221 = CARTESIAN_POINT ( 'NONE',  ( -3.225000000000000089, -11.00000000000000000, 8.000000000000000000 ) ) ;
#222 = AXIS2_PLACEMENT_3D ( 'NONE', #698, #388, #513 ) ;
#223 = VERTEX_POINT ( 'NONE', #70 ) ;
#224 = CARTESIAN_POINT ( 'NONE',  ( 33.27499999999999858, -11.00000000000000000, 8.000000000000000000 ) ) ;
#225 = ORIENTED_EDGE ( 'NONE', *, *, #735, .F. ) ;
#226 = ADVANCED_FACE ( 'NONE', ( #508, #775, #327, #270, #201, #453, #634, #75, #331 ), #519, .F. ) ;
#227 = AXIS2_PLACEMENT_3D ( 'NONE', #139, #339, #333 ) ;
#228 = CARTESIAN_POINT ( 'NONE',  ( -60.00000000000000000, -17.00000000000000000, 8.000000000000000000 ) ) ;
#229 = PERSON_AND_ORGANIZATION_ROLE ( 'design_supplier' ) ;
#230 = EDGE_LOOP ( 'NONE', ( #635, #191 ) ) ;
#231 = LINE ( 'NONE', #586, #44 ) ;
#232 = AXIS2_PLACEMENT_3D ( 'NONE', #449, #570, #341 ) ;
#233 = PRODUCT_DEFINITION_FORMATION_WITH_SPECIFIED_SOURCE ( 'ANY', '', #37, .NOT_KNOWN. ) ;
#234 = EDGE_LOOP ( 'NONE', ( #487, #574, #691, #447 ) ) ;
#235 = EDGE_CURVE ( 'NONE', #420, #580, #8, .T. ) ;
#236 = DATE_TIME_ROLE ( 'classification_date' ) ;
#237 = EDGE_LOOP ( 'NONE', ( #43, #742, #499, #204 ) ) ;
#238 = DIRECTION ( 'NONE',  ( -0.000000000000000000, -0.000000000000000000, 1.000000000000000000 ) ) ;
#239 = EDGE_LOOP ( 'NONE', ( #477, #303 ) ) ;
#240 = DIRECTION ( 'NONE',  ( 0.000000000000000000, 0.000000000000000000, -1.000000000000000000 ) ) ;
#241 = CARTESIAN_POINT ( 'NONE',  ( 60.00000000000000000, -17.00000000000000000, 8.000000000000000000 ) ) ;
#242 = ADVANCED_FACE ( 'NONE', ( #512 ), #779, .F. ) ;
#243 = ORIENTED_EDGE ( 'NONE', *, *, #235, .T. ) ;
#244 = AXIS2_PLACEMENT_3D ( 'NONE', #23, #103, #356 ) ;
#245 = CARTESIAN_POINT ( 'NONE',  ( 52.67499999999999716, -11.00000000000000000, 8.000000000000000000 ) ) ;
#246 = CARTESIAN_POINT ( 'NONE',  ( -26.82499999999999929, -11.00000000000000000, 0.000000000000000000 ) ) ;
#247 = EDGE_CURVE ( 'NONE', #40, #194, #24, .T. ) ;
#248 = ORIENTED_EDGE ( 'NONE', *, *, #126, .T. ) ;
#249 = AXIS2_PLACEMENT_3D ( 'NONE', #622, #566, #319 ) ;
#250 = CARTESIAN_POINT ( 'NONE',  ( 56.00000000000000000, -11.00000000000000000, 8.000000000000000000 ) ) ;
#251 = CARTESIAN_POINT ( 'NONE',  ( 45.00000000000000000, 0.000000000000000000, 8.000000000000000000 ) ) ;
#252 = ORIENTED_EDGE ( 'NONE', *, *, #138, .F. ) ;
#253 = VECTOR ( 'NONE', #80, 1000.000000000000000 ) ;
#254 = FACE_OUTER_BOUND ( 'NONE', #510, .T. ) ;
#255 = DIRECTION ( 'NONE',  ( 0.000000000000000000, 0.000000000000000000, 1.000000000000000000 ) ) ;
#256 = ADVANCED_BREP_SHAPE_REPRESENTATION ( 'FIT-001_Dowel_and_bearing_trial', ( #813, #195 ), #183 ) ;
#257 = ORIENTED_EDGE ( 'NONE', *, *, #791, .F. ) ;
#258 = EDGE_CURVE ( 'NONE', #616, #378, #621, .T. ) ;
#259 = DIRECTION ( 'NONE',  ( -1.000000000000000000, 0.000000000000000000, 0.000000000000000000 ) ) ;
#260 = DIRECTION ( 'NONE',  ( 0.000000000000000000, 0.000000000000000000, 1.000000000000000000 ) ) ;
#261 = VERTEX_POINT ( 'NONE', #145 ) ;
#262 = AXIS2_PLACEMENT_3D ( 'NONE', #557, #180, #259 ) ;
#263 = DIRECTION ( 'NONE',  ( -1.000000000000000000, 0.000000000000000000, 0.000000000000000000 ) ) ;
#264 = ORIENTED_EDGE ( 'NONE', *, *, #533, .T. ) ;
#265 = FACE_OUTER_BOUND ( 'NONE', #166, .T. ) ;
#266 = CYLINDRICAL_SURFACE ( 'NONE', #827, 3.275000000000000355 ) ;
#267 = AXIS2_PLACEMENT_3D ( 'NONE', #112, #610, #54 ) ;
#268 = ADVANCED_FACE ( 'NONE', ( #17 ), #274, .F. ) ;
#269 = ORIENTED_EDGE ( 'NONE', *, *, #403, .T. ) ;
#270 = FACE_BOUND ( 'NONE', #362, .T. ) ;
#271 = VECTOR ( 'NONE', #767, 1000.000000000000000 ) ;
#272 = ORIENTED_EDGE ( 'NONE', *, *, #4, .T. ) ;
#273 = EDGE_CURVE ( 'NONE', #49, #442, #646, .T. ) ;
#274 = CYLINDRICAL_SURFACE ( 'NONE', #504, 3.174999999999997158 ) ;
#275 = DATE_TIME_ROLE ( 'creation_date' ) ;
#276 = CIRCLE ( 'NONE', #648, 3.325000000000001510 ) ;
#277 = APPROVAL_PERSON_ORGANIZATION ( #314, #321, #743 ) ;
#278 = CARTESIAN_POINT ( 'NONE',  ( -26.82499999999999929, -11.00000000000000000, 8.000000000000000000 ) ) ;
#279 = APPLICATION_PROTOCOL_DEFINITION ( 'international standard', 'config_control_design', 1994, #71 ) ;
#280 = LINE ( 'NONE', #542, #556 ) ;
#281 = ADVANCED_FACE ( 'NONE', ( #408, #295, #363, #669, #478, #604, #729, #285, #714 ), #734, .T. ) ;
#282 = COORDINATED_UNIVERSAL_TIME_OFFSET ( 6, 0, .BEHIND. ) ;
#283 = CYLINDRICAL_SURFACE ( 'NONE', #404, 3.225000000000000089 ) ;
#284 = VECTOR ( 'NONE', #160, 1000.000000000000000 ) ;
#285 = FACE_BOUND ( 'NONE', #696, .T. ) ;
#286 = ORIENTED_EDGE ( 'NONE', *, *, #695, .T. ) ;
#287 = DIRECTION ( 'NONE',  ( 0.000000000000000000, 0.000000000000000000, 1.000000000000000000 ) ) ;
#288 = LOCAL_TIME ( 8, 29, 20.00000000000000000, #479 ) ;
#289 = LINE ( 'NONE', #91, #284 ) ;
#290 = ORIENTED_EDGE ( 'NONE', *, *, #345, .F. ) ;
#291 = DIRECTION ( 'NONE',  ( -1.000000000000000000, -0.000000000000000000, -0.000000000000000000 ) ) ;
#292 = CC_DESIGN_PERSON_AND_ORGANIZATION_ASSIGNMENT ( #806, #608, ( #624 ) ) ;
#293 = CIRCLE ( 'NONE', #511, 11.15000000000000036 ) ;
#294 = ORIENTED_EDGE ( 'NONE', *, *, #823, .F. ) ;
#295 = FACE_BOUND ( 'NONE', #354, .T. ) ;
#296 = VERTEX_POINT ( 'NONE', #529 ) ;
#297 = FACE_OUTER_BOUND ( 'NONE', #102, .T. ) ;
#298 = EDGE_CURVE ( 'NONE', #378, #555, #540, .T. ) ;
#299 = ORIENTED_EDGE ( 'NONE', *, *, #637, .F. ) ;
#300 = AXIS2_PLACEMENT_3D ( 'NONE', #592, #213, #29 ) ;
#301 = ORIENTED_EDGE ( 'NONE', *, *, #336, .F. ) ;
#302 = DIRECTION ( 'NONE',  ( -1.000000000000000000, 0.000000000000000000, 0.000000000000000000 ) ) ;
#303 = ORIENTED_EDGE ( 'NONE', *, *, #456, .F. ) ;
#304 = CALENDAR_DATE ( 2026, 8, 9 ) ;
#305 = CARTESIAN_POINT ( 'NONE',  ( -34.00000000000000000, 1.347111479062088010E-15, 8.000000000000000000 ) ) ;
#306 = FACE_OUTER_BOUND ( 'NONE', #726, .T. ) ;
#307 = ORIENTED_EDGE ( 'NONE', *, *, #273, .T. ) ;
#308 = AXIS2_PLACEMENT_3D ( 'NONE', #177, #428, #146 ) ;
#309 = SECURITY_CLASSIFICATION_LEVEL ( 'unclassified' ) ;
#310 = EDGE_CURVE ( 'NONE', #223, #668, #352, .T. ) ;
#311 = CARTESIAN_POINT ( 'NONE',  ( -3.949999999999998845, 1.353234713057825478E-15, 8.000000000000000000 ) ) ;
#312 = LINE ( 'NONE', #554, #687 ) ;
#313 = EDGE_LOOP ( 'NONE', ( #178, #507, #798, #272 ) ) ;
#314 = PERSON_AND_ORGANIZATION ( #338, #805 ) ;
#315 = AXIS2_PLACEMENT_3D ( 'NONE', #651, #587, #412 ) ;
#316 = FACE_OUTER_BOUND ( 'NONE', #61, .T. ) ;
#317 = CYLINDRICAL_SURFACE ( 'NONE', #110, 11.09999999999999787 ) ;
#318 = VERTEX_POINT ( 'NONE', #522 ) ;
#319 = DIRECTION ( 'NONE',  ( 0.000000000000000000, 0.000000000000000000, -1.000000000000000000 ) ) ;
#320 = DIRECTION ( 'NONE',  ( -0.000000000000000000, -0.000000000000000000, 1.000000000000000000 ) ) ;
#321 = APPROVAL ( #375, 'UNSPECIFIED' ) ;
#322 = EDGE_LOOP ( 'NONE', ( #301, #603, #546, #701 ) ) ;
#323 = EDGE_CURVE ( 'NONE', #130, #349, #543, .T. ) ;
#324 = AXIS2_PLACEMENT_3D ( 'NONE', #817, #381, #623 ) ;
#325 = DIRECTION ( 'NONE',  ( -0.000000000000000000, -0.000000000000000000, 1.000000000000000000 ) ) ;
#326 = ORIENTED_EDGE ( 'NONE', *, *, #695, .F. ) ;
#327 = FACE_BOUND ( 'NONE', #561, .T. ) ;
#328 = ORIENTED_EDGE ( 'NONE', *, *, #210, .T. ) ;
#329 = EDGE_CURVE ( 'NONE', #109, #359, #527, .T. ) ;
#330 = APPROVAL_PERSON_ORGANIZATION ( #523, #612, #783 ) ;
#331 = FACE_OUTER_BOUND ( 'NONE', #389, .T. ) ;
#332 = ORIENTED_EDGE ( 'NONE', *, *, #462, .F. ) ;
#333 = DIRECTION ( 'NONE',  ( -1.000000000000000000, 0.000000000000000000, 0.000000000000000000 ) ) ;
#334 = CARTESIAN_POINT ( 'NONE',  ( 0.000000000000000000, -11.00000000000000000, 8.000000000000000000 ) ) ;
#335 = VECTOR ( 'NONE', #6, 1000.000000000000000 ) ;
#336 = EDGE_CURVE ( 'NONE', #483, #640, #289, .T. ) ;
#337 = ORIENTED_EDGE ( 'NONE', *, *, #298, .F. ) ;
#338 = PERSON ( 'UNSPECIFIED', 'UNSPECIFIED', 'UNSPECIFIED', ('UNSPECIFIED'), ('UNSPECIFIED'), ('UNSPECIFIED') ) ;
#339 = DIRECTION ( 'NONE',  ( 0.000000000000000000, 0.000000000000000000, -1.000000000000000000 ) ) ;
#340 = AXIS2_PLACEMENT_3D ( 'NONE', #142, #642, #395 ) ;
#341 = DIRECTION ( 'NONE',  ( -1.000000000000000000, 0.000000000000000000, 0.000000000000000000 ) ) ;
#342 = DIRECTION ( 'NONE',  ( 0.000000000000000000, 0.000000000000000000, 1.000000000000000000 ) ) ;
#343 = DIRECTION ( 'NONE',  ( 0.000000000000000000, 0.000000000000000000, -1.000000000000000000 ) ) ;
#344 = LOCAL_TIME ( 8, 29, 20.00000000000000000, #282 ) ;
#345 = EDGE_CURVE ( 'NONE', #114, #495, #73, .T. ) ;
#346 = FACE_OUTER_BOUND ( 'NONE', #111, .T. ) ;
#347 = ORIENTED_EDGE ( 'NONE', *, *, #735, .T. ) ;
#348 = COORDINATED_UNIVERSAL_TIME_OFFSET ( 6, 0, .BEHIND. ) ;
#349 = VERTEX_POINT ( 'NONE', #357 ) ;
#350 = DIRECTION ( 'NONE',  ( -1.000000000000000000, 0.000000000000000000, 0.000000000000000000 ) ) ;
#351 = AXIS2_PLACEMENT_3D ( 'NONE', #581, #397, #763 ) ;
#352 = LINE ( 'NONE', #228, #86 ) ;
#353 = CARTESIAN_POINT ( 'NONE',  ( -45.00000000000000000, 0.000000000000000000, 8.000000000000000000 ) ) ;
#354 = EDGE_LOOP ( 'NONE', ( #425, #769 ) ) ;
#355 = CIRCLE ( 'NONE', #118, 11.05000000000000071 ) ;
#356 = DIRECTION ( 'NONE',  ( 1.000000000000000000, 0.000000000000000000, 0.000000000000000000 ) ) ;
#357 = CARTESIAN_POINT ( 'NONE',  ( -3.225000000000000089, -11.00000000000000000, 0.000000000000000000 ) ) ;
#358 = PERSON_AND_ORGANIZATION ( #338, #805 ) ;
#359 = VERTEX_POINT ( 'NONE', #21 ) ;
#360 = DIRECTION ( 'NONE',  ( -1.000000000000000000, 0.000000000000000000, 0.000000000000000000 ) ) ;
#361 = ADVANCED_FACE ( 'NONE', ( #217 ), #719, .F. ) ;
#362 = EDGE_LOOP ( 'NONE', ( #548, #200 ) ) ;
#363 = FACE_BOUND ( 'NONE', #675, .T. ) ;
#364 = VERTEX_POINT ( 'NONE', #525 ) ;
#365 = VECTOR ( 'NONE', #489, 1000.000000000000000 ) ;
#366 = DIRECTION ( 'NONE',  ( -0.000000000000000000, -0.000000000000000000, 1.000000000000000000 ) ) ;
#367 = ORIENTED_EDGE ( 'NONE', *, *, #665, .F. ) ;
#368 = CARTESIAN_POINT ( 'NONE',  ( 15.00000000000000000, 0.000000000000000000, 0.000000000000000000 ) ) ;
#369 = CARTESIAN_POINT ( 'NONE',  ( -15.00000000000000000, 0.000000000000000000, 0.000000000000000000 ) ) ;
#370 = VERTEX_POINT ( 'NONE', #151 ) ;
#371 = EDGE_CURVE ( 'NONE', #653, #680, #88, .T. ) ;
#372 = CYLINDRICAL_SURFACE ( 'NONE', #765, 11.05000000000000071 ) ;
#373 = CARTESIAN_POINT ( 'NONE',  ( -60.00000000000000000, -17.00000000000000000, 8.000000000000000000 ) ) ;
#374 = ORIENTED_EDGE ( 'NONE', *, *, #521, .T. ) ;
#375 = APPROVAL_STATUS ( 'not_yet_approved' ) ;
#376 = CARTESIAN_POINT ( 'NONE',  ( -55.99999999999999289, 0.000000000000000000, 0.000000000000000000 ) ) ;
#377 = DIRECTION ( 'NONE',  ( 1.000000000000000000, 0.000000000000000000, 0.000000000000000000 ) ) ;
#378 = VERTEX_POINT ( 'NONE', #727 ) ;
#379 = AXIS2_PLACEMENT_3D ( 'NONE', #639, #149, #460 ) ;
#380 = CARTESIAN_POINT ( 'NONE',  ( 56.00000000000000000, -11.00000000000000000, 0.000000000000000000 ) ) ;
#381 = DIRECTION ( 'NONE',  ( -0.000000000000000000, -0.000000000000000000, 1.000000000000000000 ) ) ;
#382 = ORIENTED_EDGE ( 'NONE', *, *, #758, .T. ) ;
#383 = CARTESIAN_POINT ( 'NONE',  ( -60.00000000000000000, -17.00000000000000000, 8.000000000000000000 ) ) ;
#384 = DIRECTION ( 'NONE',  ( -1.000000000000000000, 0.000000000000000000, 0.000000000000000000 ) ) ;
#385 = EDGE_CURVE ( 'NONE', #296, #555, #129, .T. ) ;
#386 = ORIENTED_EDGE ( 'NONE', *, *, #34, .F. ) ;
#387 = CARTESIAN_POINT ( 'NONE',  ( 33.85000000000000142, 0.000000000000000000, 0.000000000000000000 ) ) ;
#388 = DIRECTION ( 'NONE',  ( 0.000000000000000000, 0.000000000000000000, -1.000000000000000000 ) ) ;
#389 = EDGE_LOOP ( 'NONE', ( #27, #82, #66, #475 ) ) ;
#390 = CARTESIAN_POINT ( 'NONE',  ( 26.72499999999999787, -11.00000000000000000, 0.000000000000000000 ) ) ;
#391 = AXIS2_PLACEMENT_3D ( 'NONE', #5, #87, #584 ) ;
#392 = VERTEX_POINT ( 'NONE', #803 ) ;
#393 = ADVANCED_FACE ( 'NONE', ( #32 ), #283, .F. ) ;
#394 = VECTOR ( 'NONE', #526, 1000.000000000000000 ) ;
#395 = DIRECTION ( 'NONE',  ( -1.000000000000000000, 0.000000000000000000, 0.000000000000000000 ) ) ;
#396 = ORIENTED_EDGE ( 'NONE', *, *, #518, .T. ) ;
#397 = DIRECTION ( 'NONE',  ( 0.000000000000000000, 0.000000000000000000, -1.000000000000000000 ) ) ;
#398 = DIRECTION ( 'NONE',  ( 0.000000000000000000, 0.000000000000000000, -1.000000000000000000 ) ) ;
#399 = CIRCLE ( 'NONE', #768, 3.325000000000001510 ) ;
#400 = DIRECTION ( 'NONE',  ( -1.000000000000000000, 0.000000000000000000, 0.000000000000000000 ) ) ;
#401 =( NAMED_UNIT ( * ) PLANE_ANGLE_UNIT ( ) SI_UNIT ( $, .RADIAN. ) );
#402 = DIRECTION ( 'NONE',  ( -0.000000000000000000, -0.000000000000000000, 1.000000000000000000 ) ) ;
#403 = EDGE_CURVE ( 'NONE', #737, #485, #231, .T. ) ;
#404 = AXIS2_PLACEMENT_3D ( 'NONE', #716, #343, #350 ) ;
#405 = DIRECTION ( 'NONE',  ( 1.000000000000000000, 0.000000000000000000, 0.000000000000000000 ) ) ;
#406 =( NAMED_UNIT ( * ) SI_UNIT ( $, .STERADIAN. ) SOLID_ANGLE_UNIT ( ) );
#407 = PLANE ( 'NONE',  #315 ) ;
#408 = FACE_BOUND ( 'NONE', #671, .T. ) ;
#409 = PERSON_AND_ORGANIZATION ( #338, #805 ) ;
#410 = ORIENTED_EDGE ( 'NONE', *, *, #702, .F. ) ;
#411 = CIRCLE ( 'NONE', #793, 3.275000000000000355 ) ;
#412 = DIRECTION ( 'NONE',  ( 0.000000000000000000, -0.000000000000000000, 1.000000000000000000 ) ) ;
#413 = ORIENTED_EDGE ( 'NONE', *, *, #10, .F. ) ;
#414 = CYLINDRICAL_SURFACE ( 'NONE', #633, 11.15000000000000036 ) ;
#415 = AXIS2_PLACEMENT_3D ( 'NONE', #219, #538, #796 ) ;
#416 = CARTESIAN_POINT ( 'NONE',  ( 30.00000000000000000, -11.00000000000000000, 8.000000000000000000 ) ) ;
#417 = EDGE_CURVE ( 'NONE', #117, #364, #280, .T. ) ;
#418 = ORIENTED_EDGE ( 'NONE', *, *, #679, .T. ) ;
#419 = CARTESIAN_POINT ( 'NONE',  ( -26.05000000000000071, 0.000000000000000000, 0.000000000000000000 ) ) ;
#420 = VERTEX_POINT ( 'NONE', #790 ) ;
#421 = DATE_AND_TIME ( #48, #28 ) ;
#422 = ORIENTED_EDGE ( 'NONE', *, *, #684, .T. ) ;
#423 = CARTESIAN_POINT ( 'NONE',  ( 0.000000000000000000, -11.00000000000000000, 0.000000000000000000 ) ) ;
#424 = CIRCLE ( 'NONE', #267, 3.325000000000001510 ) ;
#425 = ORIENTED_EDGE ( 'NONE', *, *, #644, .T. ) ;
#426 = DIRECTION ( 'NONE',  ( -1.000000000000000000, 0.000000000000000000, 0.000000000000000000 ) ) ;
#427 = AXIS2_PLACEMENT_3D ( 'NONE', #250, #759, #67 ) ;
#428 = DIRECTION ( 'NONE',  ( 0.000000000000000000, 0.000000000000000000, 1.000000000000000000 ) ) ;
#429 = ADVANCED_FACE ( 'NONE', ( #163 ), #414, .F. ) ;
#430 = ORIENTED_EDGE ( 'NONE', *, *, #187, .T. ) ;
#431 = AXIS2_PLACEMENT_3D ( 'NONE', #532, #402, #360 ) ;
#432 = DIRECTION ( 'NONE',  ( -0.000000000000000000, -0.000000000000000000, 1.000000000000000000 ) ) ;
#433 = LINE ( 'NONE', #441, #158 ) ;
#434 = ORIENTED_EDGE ( 'NONE', *, *, #126, .F. ) ;
#435 = CARTESIAN_POINT ( 'NONE',  ( -15.00000000000000000, 0.000000000000000000, 0.000000000000000000 ) ) ;
#436 = DIRECTION ( 'NONE',  ( -1.000000000000000000, -0.000000000000000000, -0.000000000000000000 ) ) ;
#437 = ORIENTED_EDGE ( 'NONE', *, *, #187, .F. ) ;
#438 = VECTOR ( 'NONE', #712, 1000.000000000000000 ) ;
#439 = COORDINATED_UNIVERSAL_TIME_OFFSET ( 6, 0, .BEHIND. ) ;
#440 = LINE ( 'NONE', #383, #676 ) ;
#441 = CARTESIAN_POINT ( 'NONE',  ( -33.17499999999999716, -11.00000000000000000, 8.000000000000000000 ) ) ;
#442 = VERTEX_POINT ( 'NONE', #167 ) ;
#443 = VECTOR ( 'NONE', #534, 1000.000000000000000 ) ;
#444 = EDGE_CURVE ( 'NONE', #109, #349, #154, .T. ) ;
#445 = CARTESIAN_POINT ( 'NONE',  ( -15.00000000000000000, 0.000000000000000000, 8.000000000000000000 ) ) ;
#446 = FACE_OUTER_BOUND ( 'NONE', #699, .T. ) ;
#447 = ORIENTED_EDGE ( 'NONE', *, *, #679, .F. ) ;
#448 = AXIS2_PLACEMENT_3D ( 'NONE', #353, #30, #585 ) ;
#449 = CARTESIAN_POINT ( 'NONE',  ( 30.00000000000000000, -11.00000000000000000, 8.000000000000000000 ) ) ;
#450 = CYLINDRICAL_SURFACE ( 'NONE', #222, 11.05000000000000071 ) ;
#451 = CC_DESIGN_PERSON_AND_ORGANIZATION_ASSIGNMENT ( #815, #229, ( #233 ) ) ;
#452 = ORIENTED_EDGE ( 'NONE', *, *, #652, .T. ) ;
#453 = FACE_BOUND ( 'NONE', #144, .T. ) ;
#454 = DIRECTION ( 'NONE',  ( -1.000000000000000000, 0.000000000000000000, 0.000000000000000000 ) ) ;
#455 = ORIENTED_EDGE ( 'NONE', *, *, #560, .F. ) ;
#456 = EDGE_CURVE ( 'NONE', #378, #616, #661, .T. ) ;
#457 = FACE_OUTER_BOUND ( 'NONE', #824, .T. ) ;
#458 = CARTESIAN_POINT ( 'NONE',  ( 33.85000000000000142, 0.000000000000000000, 8.000000000000000000 ) ) ;
#459 = ORIENTED_EDGE ( 'NONE', *, *, #702, .T. ) ;
#460 = DIRECTION ( 'NONE',  ( 1.000000000000000000, 0.000000000000000000, 0.000000000000000000 ) ) ;
#461 = ORIENTED_EDGE ( 'NONE', *, *, #823, .T. ) ;
#462 = EDGE_CURVE ( 'NONE', #680, #223, #92, .T. ) ;
#463 = DIRECTION ( 'NONE',  ( 0.000000000000000000, 0.000000000000000000, -1.000000000000000000 ) ) ;
#464 = CIRCLE ( 'NONE', #601, 11.09999999999999787 ) ;
#465 = CARTESIAN_POINT ( 'NONE',  ( 26.72499999999999787, -11.00000000000000000, 8.000000000000000000 ) ) ;
#466 = DIRECTION ( 'NONE',  ( -0.000000000000000000, -0.000000000000000000, -1.000000000000000000 ) ) ;
#467 = DIRECTION ( 'NONE',  ( -1.000000000000000000, 0.000000000000000000, -0.000000000000000000 ) ) ;
#468 = DIRECTION ( 'NONE',  ( 1.000000000000000000, 0.000000000000000000, 0.000000000000000000 ) ) ;
#469 = CARTESIAN_POINT ( 'NONE',  ( 60.00000000000000000, 17.00000000000000000, 8.000000000000000000 ) ) ;
#470 = APPROVAL ( #655, 'UNSPECIFIED' ) ;
#471 = ORIENTED_EDGE ( 'NONE', *, *, #674, .T. ) ;
#472 = DIRECTION ( 'NONE',  ( 0.000000000000000000, 1.000000000000000000, 0.000000000000000000 ) ) ;
#473 = EDGE_CURVE ( 'NONE', #680, #364, #41, .T. ) ;
#474 = CARTESIAN_POINT ( 'NONE',  ( 3.225000000000000089, -11.00000000000000000, 8.000000000000000000 ) ) ;
#475 = ORIENTED_EDGE ( 'NONE', *, *, #462, .T. ) ;
#476 = VECTOR ( 'NONE', #79, 1000.000000000000000 ) ;
#477 = ORIENTED_EDGE ( 'NONE', *, *, #258, .F. ) ;
#478 = FACE_BOUND ( 'NONE', #597, .T. ) ;
#479 = COORDINATED_UNIVERSAL_TIME_OFFSET ( 6, 0, .BEHIND. ) ;
#480 = VERTEX_POINT ( 'NONE', #98 ) ;
#481 = AXIS2_PLACEMENT_3D ( 'NONE', #435, #325, #1 ) ;
#482 = LINE ( 'NONE', #647, #774 ) ;
#483 = VERTEX_POINT ( 'NONE', #667 ) ;
#484 = ADVANCED_FACE ( 'NONE', ( #346 ), #786, .F. ) ;
#485 = VERTEX_POINT ( 'NONE', #419 ) ;
#486 = DIRECTION ( 'NONE',  ( -1.000000000000000000, 0.000000000000000000, 0.000000000000000000 ) ) ;
#487 = ORIENTED_EDGE ( 'NONE', *, *, #235, .F. ) ;
#488 = DATE_AND_TIME ( #304, #718 ) ;
#489 = DIRECTION ( 'NONE',  ( -0.000000000000000000, -0.000000000000000000, -1.000000000000000000 ) ) ;
#490 = FACE_OUTER_BOUND ( 'NONE', #666, .T. ) ;
#491 = ORIENTED_EDGE ( 'NONE', *, *, #684, .F. ) ;
#492 = CYLINDRICAL_SURFACE ( 'NONE', #427, 3.325000000000001510 ) ;
#493 = CARTESIAN_POINT ( 'NONE',  ( 59.32500000000000284, -11.00000000000000000, 0.000000000000000000 ) ) ;
#494 = LOCAL_TIME ( 8, 29, 20.00000000000000000, #348 ) ;
#495 = VERTEX_POINT ( 'NONE', #224 ) ;
#496 = APPROVAL_DATE_TIME ( #736, #321 ) ;
#497 = LINE ( 'NONE', #115, #365 ) ;
#498 = CARTESIAN_POINT ( 'NONE',  ( 15.00000000000000000, 0.000000000000000000, 8.000000000000000000 ) ) ;
#499 = ORIENTED_EDGE ( 'NONE', *, *, #644, .F. ) ;
#500 = CIRCLE ( 'NONE', #551, 3.275000000000000355 ) ;
#501 = EDGE_CURVE ( 'NONE', #480, #40, #108, .T. ) ;
#502 = DIRECTION ( 'NONE',  ( 0.000000000000000000, 0.000000000000000000, -1.000000000000000000 ) ) ;
#503 = ORIENTED_EDGE ( 'NONE', *, *, #10, .T. ) ;
#504 = AXIS2_PLACEMENT_3D ( 'NONE', #211, #463, #400 ) ;
#505 = CARTESIAN_POINT ( 'NONE',  ( 3.900000000000000799, 0.000000000000000000, 8.000000000000000000 ) ) ;
#506 = DIRECTION ( 'NONE',  ( 0.000000000000000000, 0.000000000000000000, 1.000000000000000000 ) ) ;
#507 = ORIENTED_EDGE ( 'NONE', *, *, #473, .F. ) ;
#508 = FACE_BOUND ( 'NONE', #239, .T. ) ;
#509 = ADVANCED_FACE ( 'NONE', ( #297 ), #407, .F. ) ;
#510 = EDGE_LOOP ( 'NONE', ( #148, #459, #434, #514 ) ) ;
#511 = AXIS2_PLACEMENT_3D ( 'NONE', #673, #563, #120 ) ;
#512 = FACE_OUTER_BOUND ( 'NONE', #628, .T. ) ;
#513 = DIRECTION ( 'NONE',  ( -1.000000000000000000, 0.000000000000000000, 0.000000000000000000 ) ) ;
#514 = ORIENTED_EDGE ( 'NONE', *, *, #403, .F. ) ;
#515 = DIRECTION ( 'NONE',  ( 0.000000000000000000, 0.000000000000000000, -1.000000000000000000 ) ) ;
#516 = FACE_OUTER_BOUND ( 'NONE', #69, .T. ) ;
#517 = VERTEX_POINT ( 'NONE', #657 ) ;
#518 = EDGE_CURVE ( 'NONE', #517, #55, #482, .T. ) ;
#519 = PLANE ( 'NONE',  #140 ) ;
#520 = DIRECTION ( 'NONE',  ( 0.000000000000000000, 0.000000000000000000, -1.000000000000000000 ) ) ;
#521 = EDGE_CURVE ( 'NONE', #364, #483, #124, .T. ) ;
#522 = CARTESIAN_POINT ( 'NONE',  ( 26.09999999999999787, 1.359357947053561959E-15, 8.000000000000000000 ) ) ;
#523 = PERSON_AND_ORGANIZATION ( #338, #805 ) ;
#524 = CIRCLE ( 'NONE', #81, 11.15000000000000036 ) ;
#525 = CARTESIAN_POINT ( 'NONE',  ( 60.00000000000000000, 17.00000000000000000, 0.000000000000000000 ) ) ;
#526 = DIRECTION ( 'NONE',  ( 0.000000000000000000, 0.000000000000000000, -1.000000000000000000 ) ) ;
#527 = CIRCLE ( 'NONE', #818, 3.225000000000000089 ) ;
#528 = DIRECTION ( 'NONE',  ( 0.000000000000000000, 0.000000000000000000, -1.000000000000000000 ) ) ;
#529 = CARTESIAN_POINT ( 'NONE',  ( -33.17499999999999716, -11.00000000000000000, 0.000000000000000000 ) ) ;
#530 = VECTOR ( 'NONE', #520, 1000.000000000000000 ) ;
#531 = ORIENTED_EDGE ( 'NONE', *, *, #617, .T. ) ;
#532 = CARTESIAN_POINT ( 'NONE',  ( -30.00000000000000000, -11.00000000000000000, 0.000000000000000000 ) ) ;
#533 = EDGE_CURVE ( 'NONE', #442, #55, #756, .T. ) ;
#534 = DIRECTION ( 'NONE',  ( 0.000000000000000000, 0.000000000000000000, -1.000000000000000000 ) ) ;
#535 = CARTESIAN_POINT ( 'NONE',  ( -60.00000000000000000, -17.00000000000000000, 0.000000000000000000 ) ) ;
#536 = VERTEX_POINT ( 'NONE', #686 ) ;
#537 = AXIS2_PLACEMENT_3D ( 'NONE', #116, #738, #822 ) ;
#538 = DIRECTION ( 'NONE',  ( 0.000000000000000000, 0.000000000000000000, -1.000000000000000000 ) ) ;
#539 = EDGE_LOOP ( 'NONE', ( #382, #243, #137, #252 ) ) ;
#540 = LINE ( 'NONE', #278, #152 ) ;
#541 = ORIENTED_EDGE ( 'NONE', *, *, #258, .T. ) ;
#542 = CARTESIAN_POINT ( 'NONE',  ( 60.00000000000000000, -17.00000000000000000, 0.000000000000000000 ) ) ;
#543 = CIRCLE ( 'NONE', #300, 3.225000000000000089 ) ;
#544 = ORIENTED_EDGE ( 'NONE', *, *, #747, .T. ) ;
#545 = EDGE_CURVE ( 'NONE', #480, #261, #524, .T. ) ;
#546 = ORIENTED_EDGE ( 'NONE', *, *, #417, .F. ) ;
#547 = DIRECTION ( 'NONE',  ( 0.000000000000000000, 0.000000000000000000, -1.000000000000000000 ) ) ;
#548 = ORIENTED_EDGE ( 'NONE', *, *, #758, .F. ) ;
#549 = DIRECTION ( 'NONE',  ( -1.000000000000000000, 0.000000000000000000, 0.000000000000000000 ) ) ;
#550 = DIRECTION ( 'NONE',  ( 0.000000000000000000, -0.000000000000000000, -1.000000000000000000 ) ) ;
#551 = AXIS2_PLACEMENT_3D ( 'NONE', #84, #2, #454 ) ;
#552 = ORIENTED_EDGE ( 'NONE', *, *, #810, .F. ) ;
#553 = ORIENTED_EDGE ( 'NONE', *, *, #568, .F. ) ;
#554 = CARTESIAN_POINT ( 'NONE',  ( -60.00000000000000000, -17.00000000000000000, 8.000000000000000000 ) ) ;
#555 = VERTEX_POINT ( 'NONE', #246 ) ;
#556 = VECTOR ( 'NONE', #784, 1000.000000000000000 ) ;
#557 = CARTESIAN_POINT ( 'NONE',  ( -30.00000000000000000, -11.00000000000000000, 8.000000000000000000 ) ) ;
#558 = DIRECTION ( 'NONE',  ( 0.000000000000000000, 0.000000000000000000, -1.000000000000000000 ) ) ;
#559 = VECTOR ( 'NONE', #184, 1000.000000000000000 ) ;
#560 = EDGE_CURVE ( 'NONE', #807, #318, #464, .T. ) ;
#561 = EDGE_LOOP ( 'NONE', ( #290, #257 ) ) ;
#562 = LINE ( 'NONE', #189, #89 ) ;
#563 = DIRECTION ( 'NONE',  ( -0.000000000000000000, -0.000000000000000000, 1.000000000000000000 ) ) ;
#564 = ORIENTED_EDGE ( 'NONE', *, *, #652, .F. ) ;
#565 = AXIS2_PLACEMENT_3D ( 'NONE', #423, #320, #302 ) ;
#566 = DIRECTION ( 'NONE',  ( 1.000000000000000000, 0.000000000000000000, 0.000000000000000000 ) ) ;
#567 = ORIENTED_EDGE ( 'NONE', *, *, #717, .T. ) ;
#568 = EDGE_CURVE ( 'NONE', #318, #807, #723, .T. ) ;
#569 = PRODUCT_DEFINITION_SHAPE ( 'NONE', 'NONE',  #792 ) ;
#570 = DIRECTION ( 'NONE',  ( 0.000000000000000000, 0.000000000000000000, -1.000000000000000000 ) ) ;
#571 = ORIENTED_EDGE ( 'NONE', *, *, #568, .T. ) ;
#572 = DIRECTION ( 'NONE',  ( -1.000000000000000000, 0.000000000000000000, -0.000000000000000000 ) ) ;
#573 = CARTESIAN_POINT ( 'NONE',  ( -30.00000000000000000, -11.00000000000000000, 0.000000000000000000 ) ) ;
#574 = ORIENTED_EDGE ( 'NONE', *, *, #578, .T. ) ;
#575 = AXIS2_PLACEMENT_3D ( 'NONE', #678, #185, #682 ) ;
#576 = CARTESIAN_POINT ( 'NONE',  ( 59.32500000000000284, -11.00000000000000000, 8.000000000000000000 ) ) ;
#577 = DIRECTION ( 'NONE',  ( -1.000000000000000000, 0.000000000000000000, 0.000000000000000000 ) ) ;
#578 = EDGE_CURVE ( 'NONE', #420, #94, #424, .T. ) ;
#579 = CC_DESIGN_PERSON_AND_ORGANIZATION_ASSIGNMENT ( #788, #165, ( #37 ) ) ;
#580 = VERTEX_POINT ( 'NONE', #493 ) ;
#581 = CARTESIAN_POINT ( 'NONE',  ( 56.00000000000000000, -11.00000000000000000, 8.000000000000000000 ) ) ;
#582 = LINE ( 'NONE', #136, #253 ) ;
#583 = ADVANCED_FACE ( 'NONE', ( #306 ), #181, .F. ) ;
#584 = DIRECTION ( 'NONE',  ( 1.000000000000000000, 0.000000000000000000, 0.000000000000000000 ) ) ;
#585 = DIRECTION ( 'NONE',  ( 1.000000000000000000, 0.000000000000000000, 0.000000000000000000 ) ) ;
#586 = CARTESIAN_POINT ( 'NONE',  ( -26.05000000000000071, 0.000000000000000000, 8.000000000000000000 ) ) ;
#587 = DIRECTION ( 'NONE',  ( 0.000000000000000000, 1.000000000000000000, 0.000000000000000000 ) ) ;
#588 = ADVANCED_FACE ( 'NONE', ( #490 ), #317, .F. ) ;
#589 = ORIENTED_EDGE ( 'NONE', *, *, #310, .F. ) ;
#590 = AXIS2_PLACEMENT_3D ( 'NONE', #598, #38, #287 ) ;
#591 = CARTESIAN_POINT ( 'NONE',  ( 60.00000000000000000, -17.00000000000000000, 8.000000000000000000 ) ) ;
#592 = CARTESIAN_POINT ( 'NONE',  ( 0.000000000000000000, -11.00000000000000000, 0.000000000000000000 ) ) ;
#593 = CIRCLE ( 'NONE', #391, 11.05000000000000071 ) ;
#594 = DIRECTION ( 'NONE',  ( 0.000000000000000000, 0.000000000000000000, 1.000000000000000000 ) ) ;
#595 = CIRCLE ( 'NONE', #448, 10.99999999999999645 ) ;
#596 = ORIENTED_EDGE ( 'NONE', *, *, #247, .F. ) ;
#597 = EDGE_LOOP ( 'NONE', ( #328, #264 ) ) ;
#598 = CARTESIAN_POINT ( 'NONE',  ( 60.00000000000000000, -17.00000000000000000, 8.000000000000000000 ) ) ;
#599 = DATE_AND_TIME ( #156, #494 ) ;
#600 = ORIENTED_EDGE ( 'NONE', *, *, #150, .T. ) ;
#601 = AXIS2_PLACEMENT_3D ( 'NONE', #619, #173, #614 ) ;
#602 = DIRECTION ( 'NONE',  ( -1.000000000000000000, 0.000000000000000000, 0.000000000000000000 ) ) ;
#603 = ORIENTED_EDGE ( 'NONE', *, *, #521, .F. ) ;
#604 = FACE_BOUND ( 'NONE', #174, .T. ) ;
#605 = ORIENTED_EDGE ( 'NONE', *, *, #444, .T. ) ;
#606 = DIRECTION ( 'NONE',  ( -1.000000000000000000, 0.000000000000000000, 0.000000000000000000 ) ) ;
#607 = ORIENTED_EDGE ( 'NONE', *, *, #791, .T. ) ;
#608 = PERSON_AND_ORGANIZATION_ROLE ( 'classification_officer' ) ;
#609 = FACE_OUTER_BOUND ( 'NONE', #234, .T. ) ;
#610 = DIRECTION ( 'NONE',  ( 0.000000000000000000, 0.000000000000000000, 1.000000000000000000 ) ) ;
#611 = ORIENTED_EDGE ( 'NONE', *, *, #747, .F. ) ;
#612 = APPROVAL ( #22, 'UNSPECIFIED' ) ;
#613 = DIRECTION ( 'NONE',  ( -0.000000000000000000, -0.000000000000000000, 1.000000000000000000 ) ) ;
#614 = DIRECTION ( 'NONE',  ( 1.000000000000000000, 0.000000000000000000, 0.000000000000000000 ) ) ;
#615 = CIRCLE ( 'NONE', #308, 10.99999999999999645 ) ;
#616 = VERTEX_POINT ( 'NONE', #812 ) ;
#617 = EDGE_CURVE ( 'NONE', #668, #640, #312, .T. ) ;
#618 = DIRECTION ( 'NONE',  ( 1.000000000000000000, 0.000000000000000000, 0.000000000000000000 ) ) ;
#619 = CARTESIAN_POINT ( 'NONE',  ( 15.00000000000000000, 0.000000000000000000, 8.000000000000000000 ) ) ;
#620 = VERTEX_POINT ( 'NONE', #190 ) ;
#621 = CIRCLE ( 'NONE', #379, 3.175000000000000711 ) ;
#622 = CARTESIAN_POINT ( 'NONE',  ( -60.00000000000000000, -17.00000000000000000, 8.000000000000000000 ) ) ;
#623 = DIRECTION ( 'NONE',  ( -1.000000000000000000, 0.000000000000000000, 0.000000000000000000 ) ) ;
#624 = SECURITY_CLASSIFICATION ( '', '', #309 ) ;
#625 = EDGE_LOOP ( 'NONE', ( #410, #683, #269, #299 ) ) ;
#626 = FACE_OUTER_BOUND ( 'NONE', #78, .T. ) ;
#627 = CARTESIAN_POINT ( 'NONE',  ( 56.00000000000000000, -11.00000000000000000, 8.000000000000000000 ) ) ;
#628 = EDGE_LOOP ( 'NONE', ( #121, #422, #396, #15 ) ) ;
#629 = EDGE_CURVE ( 'NONE', #616, #296, #433, .T. ) ;
#630 = CARTESIAN_POINT ( 'NONE',  ( -60.00000000000000000, 17.00000000000000000, 8.000000000000000000 ) ) ;
#631 = CARTESIAN_POINT ( 'NONE',  ( 0.000000000000000000, -11.00000000000000000, 8.000000000000000000 ) ) ;
#632 = ORIENTED_EDGE ( 'NONE', *, *, #4, .F. ) ;
#633 = AXIS2_PLACEMENT_3D ( 'NONE', #216, #528, #602 ) ;
#634 = FACE_BOUND ( 'NONE', #35, .T. ) ;
#635 = ORIENTED_EDGE ( 'NONE', *, *, #329, .F. ) ;
#636 = CC_DESIGN_APPROVAL ( #612, ( #792 ) ) ;
#637 = EDGE_CURVE ( 'NONE', #370, #485, #672, .T. ) ;
#638 = CC_DESIGN_PERSON_AND_ORGANIZATION_ASSIGNMENT ( #749, #800, ( #233 ) ) ;
#639 = CARTESIAN_POINT ( 'NONE',  ( -30.00000000000000000, -11.00000000000000000, 8.000000000000000000 ) ) ;
#640 = VERTEX_POINT ( 'NONE', #690 ) ;
#641 = CIRCLE ( 'NONE', #565, 3.225000000000000089 ) ;
#642 = DIRECTION ( 'NONE',  ( -0.000000000000000000, -0.000000000000000000, 1.000000000000000000 ) ) ;
#643 = DIRECTION ( 'NONE',  ( -1.000000000000000000, 0.000000000000000000, 0.000000000000000000 ) ) ;
#644 = EDGE_CURVE ( 'NONE', #349, #130, #641, .T. ) ;
#645 = CIRCLE ( 'NONE', #713, 11.09999999999999787 ) ;
#646 = LINE ( 'NONE', #25, #443 ) ;
#647 = CARTESIAN_POINT ( 'NONE',  ( -55.99999999999999289, 0.000000000000000000, 8.000000000000000000 ) ) ;
#648 = AXIS2_PLACEMENT_3D ( 'NONE', #380, #432, #549 ) ;
#649 = DIRECTION ( 'NONE',  ( 0.000000000000000000, 0.000000000000000000, -1.000000000000000000 ) ) ;
#650 =( LENGTH_UNIT ( ) NAMED_UNIT ( * ) SI_UNIT ( .MILLI., .METRE. ) );
#651 = CARTESIAN_POINT ( 'NONE',  ( -60.00000000000000000, -17.00000000000000000, 8.000000000000000000 ) ) ;
#652 = EDGE_CURVE ( 'NONE', #620, #828, #202, .T. ) ;
#653 = VERTEX_POINT ( 'NONE', #241 ) ;
#654 = CIRCLE ( 'NONE', #781, 3.325000000000001510 ) ;
#655 = APPROVAL_STATUS ( 'not_yet_approved' ) ;
#656 = ORIENTED_EDGE ( 'NONE', *, *, #150, .F. ) ;
#657 = CARTESIAN_POINT ( 'NONE',  ( -55.99999999999999289, 0.000000000000000000, 8.000000000000000000 ) ) ;
#658 = APPLICATION_CONTEXT ( 'configuration controlled 3d designs of mechanical parts and assemblies' ) ;
#659 = DATE_AND_TIME ( #780, #344 ) ;
#660 = ORIENTED_EDGE ( 'NONE', *, *, #501, .T. ) ;
#661 = CIRCLE ( 'NONE', #244, 3.175000000000000711 ) ;
#662 = DIRECTION ( 'NONE',  ( 0.000000000000000000, 0.000000000000000000, -1.000000000000000000 ) ) ;
#663 = DIRECTION ( 'NONE',  ( 0.000000000000000000, 0.000000000000000000, 1.000000000000000000 ) ) ;
#664 = APPROVAL_DATE_TIME ( #659, #612 ) ;
#665 = EDGE_CURVE ( 'NONE', #194, #40, #293, .T. ) ;
#666 = EDGE_LOOP ( 'NONE', ( #753, #286, #564, #437 ) ) ;
#667 = CARTESIAN_POINT ( 'NONE',  ( -60.00000000000000000, 17.00000000000000000, 0.000000000000000000 ) ) ;
#668 = VERTEX_POINT ( 'NONE', #373 ) ;
#669 = FACE_BOUND ( 'NONE', #772, .T. ) ;
#670 = SHAPE_DEFINITION_REPRESENTATION ( #569, #256 ) ;
#671 = EDGE_LOOP ( 'NONE', ( #739, #544 ) ) ;
#672 = CIRCLE ( 'NONE', #212, 11.05000000000000071 ) ;
#673 = CARTESIAN_POINT ( 'NONE',  ( 45.00000000000000000, 0.000000000000000000, 0.000000000000000000 ) ) ;
#674 = EDGE_CURVE ( 'NONE', #392, #209, #175, .T. ) ;
#675 = EDGE_LOOP ( 'NONE', ( #347, #471 ) ) ;
#676 = VECTOR ( 'NONE', #127, 1000.000000000000000 ) ;
#677 = DIRECTION ( 'NONE',  ( -1.000000000000000000, 0.000000000000000000, 0.000000000000000000 ) ) ;
#678 = CARTESIAN_POINT ( 'NONE',  ( -45.00000000000000000, 0.000000000000000000, 0.000000000000000000 ) ) ;
#679 = EDGE_CURVE ( 'NONE', #580, #536, #654, .T. ) ;
#680 = VERTEX_POINT ( 'NONE', #741 ) ;
#681 = FACE_OUTER_BOUND ( 'NONE', #63, .T. ) ;
#682 = DIRECTION ( 'NONE',  ( -1.000000000000000000, 0.000000000000000000, 0.000000000000000000 ) ) ;
#683 = ORIENTED_EDGE ( 'NONE', *, *, #171, .T. ) ;
#684 = EDGE_CURVE ( 'NONE', #49, #517, #615, .T. ) ;
#685 = CARTESIAN_POINT ( 'NONE',  ( 45.00000000000000000, 0.000000000000000000, 8.000000000000000000 ) ) ;
#686 = CARTESIAN_POINT ( 'NONE',  ( 52.67499999999999716, -11.00000000000000000, 0.000000000000000000 ) ) ;
#687 = VECTOR ( 'NONE', #64, 1000.000000000000000 ) ;
#688 = ORIENTED_EDGE ( 'NONE', *, *, #90, .T. ) ;
#689 = DIRECTION ( 'NONE',  ( 0.000000000000000000, 0.000000000000000000, -1.000000000000000000 ) ) ;
#690 = CARTESIAN_POINT ( 'NONE',  ( -60.00000000000000000, -17.00000000000000000, 0.000000000000000000 ) ) ;
#691 = ORIENTED_EDGE ( 'NONE', *, *, #138, .T. ) ;
#692 = AXIS2_PLACEMENT_3D ( 'NONE', #196, #697, #263 ) ;
#693 = CARTESIAN_POINT ( 'NONE',  ( 26.72499999999999787, -11.00000000000000000, 8.000000000000000000 ) ) ;
#694 = CARTESIAN_POINT ( 'NONE',  ( 30.00000000000000000, -11.00000000000000000, 8.000000000000000000 ) ) ;
#695 = EDGE_CURVE ( 'NONE', #318, #828, #582, .T. ) ;
#696 = EDGE_LOOP ( 'NONE', ( #705, #7 ) ) ;
#697 = DIRECTION ( 'NONE',  ( -0.000000000000000000, -0.000000000000000000, 1.000000000000000000 ) ) ;
#698 = CARTESIAN_POINT ( 'NONE',  ( -15.00000000000000000, 0.000000000000000000, 8.000000000000000000 ) ) ;
#699 = EDGE_LOOP ( 'NONE', ( #107, #172, #225, #294 ) ) ;
#700 = LINE ( 'NONE', #505, #476 ) ;
#701 = ORIENTED_EDGE ( 'NONE', *, *, #797, .F. ) ;
#702 = EDGE_CURVE ( 'NONE', #134, #370, #708, .T. ) ;
#703 = VECTOR ( 'NONE', #157, 1000.000000000000000 ) ;
#704 = DIRECTION ( 'NONE',  ( -1.000000000000000000, 0.000000000000000000, 0.000000000000000000 ) ) ;
#705 = ORIENTED_EDGE ( 'NONE', *, *, #665, .T. ) ;
#706 = ADVANCED_FACE ( 'NONE', ( #516 ), #771, .F. ) ;
#707 = CYLINDRICAL_SURFACE ( 'NONE', #227, 11.09999999999999787 ) ;
#708 = LINE ( 'NONE', #760, #68 ) ;
#709 = EDGE_LOOP ( 'NONE', ( #452, #503 ) ) ;
#710 = AXIS2_PLACEMENT_3D ( 'NONE', #334, #776, #577 ) ;
#711 = CYLINDRICAL_SURFACE ( 'NONE', #232, 3.275000000000000355 ) ;
#712 = DIRECTION ( 'NONE',  ( 1.000000000000000000, 0.000000000000000000, 0.000000000000000000 ) ) ;
#713 = AXIS2_PLACEMENT_3D ( 'NONE', #368, #613, #57 ) ;
#714 = FACE_OUTER_BOUND ( 'NONE', #322, .T. ) ;
#715 = LINE ( 'NONE', #474, #530 ) ;
#716 = CARTESIAN_POINT ( 'NONE',  ( 0.000000000000000000, -11.00000000000000000, 8.000000000000000000 ) ) ;
#717 = EDGE_CURVE ( 'NONE', #359, #109, #36, .T. ) ;
#718 = LOCAL_TIME ( 8, 29, 20.00000000000000000, #820 ) ;
#719 = PLANE ( 'NONE',  #590 ) ;
#720 = LINE ( 'NONE', #535, #438 ) ;
#721 = CARTESIAN_POINT ( 'NONE',  ( -60.00000000000000000, 17.00000000000000000, 8.000000000000000000 ) ) ;
#722 = DESIGN_CONTEXT ( 'detailed design', #71, 'design' ) ;
#723 = CIRCLE ( 'NONE', #537, 11.09999999999999787 ) ;
#724 = DIRECTION ( 'NONE',  ( -0.000000000000000000, -1.000000000000000000, -0.000000000000000000 ) ) ;
#725 = DIRECTION ( 'NONE',  ( 1.000000000000000000, 0.000000000000000000, 0.000000000000000000 ) ) ;
#726 = EDGE_LOOP ( 'NONE', ( #374, #31, #332, #51 ) ) ;
#727 = CARTESIAN_POINT ( 'NONE',  ( -26.82499999999999929, -11.00000000000000000, 8.000000000000000000 ) ) ;
#728 = ADVANCED_FACE ( 'NONE', ( #446 ), #266, .F. ) ;
#729 = FACE_BOUND ( 'NONE', #709, .T. ) ;
#730 = APPLICATION_PROTOCOL_DEFINITION ( 'international standard', 'config_control_design', 1994, #658 ) ;
#731 = ORIENTED_EDGE ( 'NONE', *, *, #210, .F. ) ;
#732 = CARTESIAN_POINT ( 'NONE',  ( 56.14999999999999858, 1.365481181049298835E-15, 8.000000000000000000 ) ) ;
#733 = ORIENTED_EDGE ( 'NONE', *, *, #385, .F. ) ;
#734 = PLANE ( 'NONE',  #193 ) ;
#735 = EDGE_CURVE ( 'NONE', #209, #392, #500, .T. ) ;
#736 = DATE_AND_TIME ( #39, #288 ) ;
#737 = VERTEX_POINT ( 'NONE', #76 ) ;
#738 = DIRECTION ( 'NONE',  ( 0.000000000000000000, 0.000000000000000000, 1.000000000000000000 ) ) ;
#739 = ORIENTED_EDGE ( 'NONE', *, *, #385, .T. ) ;
#740 = CARTESIAN_POINT ( 'NONE',  ( 52.67499999999999716, -11.00000000000000000, 8.000000000000000000 ) ) ;
#741 = CARTESIAN_POINT ( 'NONE',  ( 60.00000000000000000, 17.00000000000000000, 8.000000000000000000 ) ) ;
#742 = ORIENTED_EDGE ( 'NONE', *, *, #810, .T. ) ;
#743 = APPROVAL_ROLE ( '' ) ;
#744 = CARTESIAN_POINT ( 'NONE',  ( 56.14999999999999858, 1.365481181049298835E-15, 0.000000000000000000 ) ) ;
#745 = DIRECTION ( 'NONE',  ( -1.000000000000000000, 0.000000000000000000, 0.000000000000000000 ) ) ;
#746 = VECTOR ( 'NONE', #291, 1000.000000000000000 ) ;
#747 = EDGE_CURVE ( 'NONE', #555, #296, #11, .T. ) ;
#748 = ORIENTED_EDGE ( 'NONE', *, *, #637, .T. ) ;
#749 = PERSON_AND_ORGANIZATION ( #338, #805 ) ;
#750 = CYLINDRICAL_SURFACE ( 'NONE', #262, 3.174999999999997158 ) ;
#751 = DIRECTION ( 'NONE',  ( 0.000000000000000000, 0.000000000000000000, -1.000000000000000000 ) ) ;
#752 = APPROVAL_PERSON_ORGANIZATION ( #409, #470, #96 ) ;
#753 = ORIENTED_EDGE ( 'NONE', *, *, #560, .T. ) ;
#754 = DIRECTION ( 'NONE',  ( 1.000000000000000000, 0.000000000000000000, 0.000000000000000000 ) ) ;
#755 = CARTESIAN_POINT ( 'NONE',  ( -60.00000000000000000, 17.00000000000000000, 8.000000000000000000 ) ) ;
#756 = CIRCLE ( 'NONE', #575, 10.99999999999999645 ) ;
#757 = ORIENTED_EDGE ( 'NONE', *, *, #782, .F. ) ;
#758 = EDGE_CURVE ( 'NONE', #94, #420, #399, .T. ) ;
#759 = DIRECTION ( 'NONE',  ( 0.000000000000000000, 0.000000000000000000, -1.000000000000000000 ) ) ;
#760 = CARTESIAN_POINT ( 'NONE',  ( -3.949999999999998845, 1.353234713057825478E-15, 8.000000000000000000 ) ) ;
#761 = ORIENTED_EDGE ( 'NONE', *, *, #59, .F. ) ;
#762 = AXIS2_PLACEMENT_3D ( 'NONE', #416, #663, #105 ) ;
#763 = DIRECTION ( 'NONE',  ( -1.000000000000000000, 0.000000000000000000, 0.000000000000000000 ) ) ;
#764 = DIRECTION ( 'NONE',  ( 1.000000000000000000, 0.000000000000000000, 0.000000000000000000 ) ) ;
#765 = AXIS2_PLACEMENT_3D ( 'NONE', #176, #502, #677 ) ;
#766 = ORIENTED_EDGE ( 'NONE', *, *, #501, .F. ) ;
#767 = DIRECTION ( 'NONE',  ( -0.000000000000000000, -0.000000000000000000, -1.000000000000000000 ) ) ;
#768 = AXIS2_PLACEMENT_3D ( 'NONE', #627, #260, #764 ) ;
#769 = ORIENTED_EDGE ( 'NONE', *, *, #323, .T. ) ;
#770 = DIRECTION ( 'NONE',  ( 0.000000000000000000, 0.000000000000000000, -1.000000000000000000 ) ) ;
#771 = CYLINDRICAL_SURFACE ( 'NONE', #710, 3.225000000000000089 ) ;
#772 = EDGE_LOOP ( 'NONE', ( #688, #418 ) ) ;
#773 = ADVANCED_FACE ( 'NONE', ( #197 ), #450, .F. ) ;
#774 = VECTOR ( 'NONE', #751, 1000.000000000000000 ) ;
#775 = FACE_BOUND ( 'NONE', #230, .T. ) ;
#776 = DIRECTION ( 'NONE',  ( 0.000000000000000000, 0.000000000000000000, -1.000000000000000000 ) ) ;
#777 = AXIS2_PLACEMENT_3D ( 'NONE', #131, #240, #426 ) ;
#778 = ORIENTED_EDGE ( 'NONE', *, *, #215, .T. ) ;
#779 = CYLINDRICAL_SURFACE ( 'NONE', #16, 10.99999999999999645 ) ;
#780 = CALENDAR_DATE ( 2026, 8, 9 ) ;
#781 = AXIS2_PLACEMENT_3D ( 'NONE', #45, #238, #486 ) ;
#782 = EDGE_CURVE ( 'NONE', #261, #194, #72, .T. ) ;
#783 = APPROVAL_ROLE ( '' ) ;
#784 = DIRECTION ( 'NONE',  ( 0.000000000000000000, 1.000000000000000000, 0.000000000000000000 ) ) ;
#785 = PERSON_AND_ORGANIZATION_ROLE ( 'creator' ) ;
#786 = CYLINDRICAL_SURFACE ( 'NONE', #415, 11.15000000000000036 ) ;
#787 = CARTESIAN_POINT ( 'NONE',  ( 0.000000000000000000, -11.00000000000000000, 8.000000000000000000 ) ) ;
#788 = PERSON_AND_ORGANIZATION ( #338, #805 ) ;
#789 = ORIENTED_EDGE ( 'NONE', *, *, #829, .T. ) ;
#790 = CARTESIAN_POINT ( 'NONE',  ( 59.32500000000000284, -11.00000000000000000, 8.000000000000000000 ) ) ;
#791 = EDGE_CURVE ( 'NONE', #495, #114, #411, .T. ) ;
#792 = PRODUCT_DEFINITION ( 'UNKNOWN', '', #233, #722 ) ;
#793 = AXIS2_PLACEMENT_3D ( 'NONE', #101, #594, #468 ) ;
#794 = LINE ( 'NONE', #465, #394 ) ;
#795 = ORIENTED_EDGE ( 'NONE', *, *, #829, .F. ) ;
#796 = DIRECTION ( 'NONE',  ( -1.000000000000000000, 0.000000000000000000, 0.000000000000000000 ) ) ;
#797 = EDGE_CURVE ( 'NONE', #640, #117, #720, .T. ) ;
#798 = ORIENTED_EDGE ( 'NONE', *, *, #371, .F. ) ;
#799 = CARTESIAN_POINT ( 'NONE',  ( 0.000000000000000000, 0.000000000000000000, 0.000000000000000000 ) ) ;
#800 = PERSON_AND_ORGANIZATION_ROLE ( 'creator' ) ;
#801 = ORIENTED_EDGE ( 'NONE', *, *, #171, .F. ) ;
#802 = VECTOR ( 'NONE', #515, 1000.000000000000000 ) ;
#803 = CARTESIAN_POINT ( 'NONE',  ( 33.27499999999999858, -11.00000000000000000, 0.000000000000000000 ) ) ;
#804 = ORIENTED_EDGE ( 'NONE', *, *, #456, .T. ) ;
#805 = ORGANIZATION ( 'UNSPECIFIED', 'UNSPECIFIED', '' ) ;
#806 = PERSON_AND_ORGANIZATION ( #338, #805 ) ;
#807 = VERTEX_POINT ( 'NONE', #106 ) ;
#808 = DIRECTION ( 'NONE',  ( -1.000000000000000000, 0.000000000000000000, 0.000000000000000000 ) ) ;
#809 = ORIENTED_EDGE ( 'NONE', *, *, #65, .F. ) ;
#810 = EDGE_CURVE ( 'NONE', #359, #130, #715, .T. ) ;
#811 = PLANE ( 'NONE',  #249 ) ;
#812 = CARTESIAN_POINT ( 'NONE',  ( -33.17499999999999716, -11.00000000000000000, 8.000000000000000000 ) ) ;
#813 = MANIFOLD_SOLID_BREP ( 'Dowel_fit_trial_through', #214 ) ;
#814 = EDGE_LOOP ( 'NONE', ( #541, #74, #733, #46 ) ) ;
#815 = PERSON_AND_ORGANIZATION ( #338, #805 ) ;
#816 = LINE ( 'NONE', #245, #559 ) ;
#817 = CARTESIAN_POINT ( 'NONE',  ( 15.00000000000000000, 0.000000000000000000, 0.000000000000000000 ) ) ;
#818 = AXIS2_PLACEMENT_3D ( 'NONE', #787, #153, #405 ) ;
#819 = EDGE_LOOP ( 'NONE', ( #656, #182 ) ) ;
#820 = COORDINATED_UNIVERSAL_TIME_OFFSET ( 6, 0, .BEHIND. ) ;
#821 = DIRECTION ( 'NONE',  ( 0.000000000000000000, 0.000000000000000000, 1.000000000000000000 ) ) ;
#822 = DIRECTION ( 'NONE',  ( 1.000000000000000000, 0.000000000000000000, 0.000000000000000000 ) ) ;
#823 = EDGE_CURVE ( 'NONE', #114, #209, #794, .T. ) ;
#824 = EDGE_LOOP ( 'NONE', ( #326, #571, #430, #413 ) ) ;
#825 = CARTESIAN_POINT ( 'NONE',  ( 60.00000000000000000, -17.00000000000000000, 0.000000000000000000 ) ) ;
#826 = CARTESIAN_POINT ( 'NONE',  ( 30.00000000000000000, -11.00000000000000000, 0.000000000000000000 ) ) ;
#827 = AXIS2_PLACEMENT_3D ( 'NONE', #694, #14, #643 ) ;
#828 = VERTEX_POINT ( 'NONE', #161 ) ;
#829 = EDGE_CURVE ( 'NONE', #517, #49, #595, .T. ) ;
ENDSEC;
END-ISO-10303-21;
