ISO-10303-21;
HEADER;
FILE_DESCRIPTION (( 'STEP AP203' ),
    '1' );
FILE_NAME ('FIT-002_SG90_horn_pocket_clearance_0p10.step',
    '2026-09-08T22:04:15',
    ( '' ),
    ( '' ),
    'SwSTEP 2.0',
    'SolidWorks 2026',
    '' );
FILE_SCHEMA (( 'CONFIG_CONTROL_DESIGN' ));
ENDSEC;

DATA;
#1 = EDGE_LOOP ( 'NONE', ( #716, #525, #75, #1087, #433, #285 ) ) ;
#2 = CIRCLE ( 'NONE', #384, 4.000000000000000000 ) ;
#3 = EDGE_CURVE ( 'NONE', #201, #283, #69, .T. ) ;
#4 = DIRECTION ( 'NONE',  ( -1.000000000000000000, 0.000000000000000000, 0.000000000000000000 ) ) ;
#5 = DIRECTION ( 'NONE',  ( 1.000000000000000000, 0.000000000000000000, 0.000000000000000000 ) ) ;
#6 = DATE_TIME_ROLE ( 'creation_date' ) ;
#7 = LINE ( 'NONE', #98, #706 ) ;
#8 = DIRECTION ( 'NONE',  ( -0.000000000000000000, 1.000000000000000000, 0.000000000000000000 ) ) ;
#9 = ORIENTED_EDGE ( 'NONE', *, *, #868, .T. ) ;
#10 = AXIS2_PLACEMENT_3D ( 'NONE', #146, #508, #240 ) ;
#11 = CARTESIAN_POINT ( 'NONE',  ( 8.150000000000000355, 0.000000000000000000, 0.000000000000000000 ) ) ;
#12 = DIRECTION ( 'NONE',  ( 0.000000000000000000, 0.000000000000000000, -1.000000000000000000 ) ) ;
#13 = DATE_AND_TIME ( #182, #1033 ) ;
#14 = FACE_OUTER_BOUND ( 'NONE', #163, .T. ) ;
#15 = CARTESIAN_POINT ( 'NONE',  ( 0.000000000000000000, 0.000000000000000000, 4.000000000000000000 ) ) ;
#16 = ORIENTED_EDGE ( 'NONE', *, *, #951, .T. ) ;
#17 = VECTOR ( 'NONE', #590, 1000.000000000000000 ) ;
#18 = DIRECTION ( 'NONE',  ( 0.000000000000000000, 0.000000000000000000, -1.000000000000000000 ) ) ;
#19 = CARTESIAN_POINT ( 'NONE',  ( 2.100000000000000089, -8.150000000000000355, 0.000000000000000000 ) ) ;
#20 = AXIS2_PLACEMENT_3D ( 'NONE', #356, #530, #105 ) ;
#21 = FACE_OUTER_BOUND ( 'NONE', #328, .T. ) ;
#22 = CC_DESIGN_DATE_AND_TIME_ASSIGNMENT ( #536, #6, ( #667 ) ) ;
#23 = ORIENTED_EDGE ( 'NONE', *, *, #586, .T. ) ;
#24 = CC_DESIGN_APPROVAL ( #547, ( #833 ) ) ;
#25 = DIRECTION ( 'NONE',  ( -0.000000000000000000, -0.000000000000000000, -1.000000000000000000 ) ) ;
#26 = DIRECTION ( 'NONE',  ( 0.000000000000000000, 0.000000000000000000, 1.000000000000000000 ) ) ;
#27 = ORIENTED_EDGE ( 'NONE', *, *, #1045, .F. ) ;
#28 = EDGE_LOOP ( 'NONE', ( #610, #946, #321, #1058 ) ) ;
#29 = AXIS2_PLACEMENT_3D ( 'NONE', #44, #211, #132 ) ;
#30 = LINE ( 'NONE', #276, #157 ) ;
#31 = VECTOR ( 'NONE', #492, 1000.000000000000000 ) ;
#32 = DIRECTION ( 'NONE',  ( 1.000000000000000000, 0.000000000000000000, 0.000000000000000000 ) ) ;
#33 = VERTEX_POINT ( 'NONE', #1096 ) ;
#34 = ORIENTED_EDGE ( 'NONE', *, *, #385, .T. ) ;
#35 = ADVANCED_FACE ( 'NONE', ( #828 ), #661, .T. ) ;
#36 = VECTOR ( 'NONE', #432, 1000.000000000000000 ) ;
#37 = AXIS2_PLACEMENT_3D ( 'NONE', #518, #862, #604 ) ;
#38 = DIRECTION ( 'NONE',  ( -0.000000000000000000, -0.000000000000000000, -1.000000000000000000 ) ) ;
#39 = LINE ( 'NONE', #129, #395 ) ;
#40 = EDGE_LOOP ( 'NONE', ( #883, #819 ) ) ;
#41 = VERTEX_POINT ( 'NONE', #582 ) ;
#42 = AXIS2_PLACEMENT_3D ( 'NONE', #944, #280, #521 ) ;
#43 = EDGE_CURVE ( 'NONE', #309, #835, #924, .T. ) ;
#44 = CARTESIAN_POINT ( 'NONE',  ( 0.000000000000000000, 0.000000000000000000, 4.000000000000000000 ) ) ;
#45 = CARTESIAN_POINT ( 'NONE',  ( 0.000000000000000000, 8.150000000000000355, 0.000000000000000000 ) ) ;
#46 = VERTEX_POINT ( 'NONE', #1004 ) ;
#47 = VERTEX_POINT ( 'NONE', #487 ) ;
#48 = CARTESIAN_POINT ( 'NONE',  ( -3.404408906109840149, -2.100000000000000089, 0.000000000000000000 ) ) ;
#49 = EDGE_CURVE ( 'NONE', #934, #898, #831, .T. ) ;
#50 = EDGE_LOOP ( 'NONE', ( #992, #911 ) ) ;
#51 = DIRECTION ( 'NONE',  ( 1.000000000000000000, 0.000000000000000000, 0.000000000000000000 ) ) ;
#52 = AXIS2_PLACEMENT_3D ( 'NONE', #531, #708, #1057 ) ;
#53 = ORIENTED_EDGE ( 'NONE', *, *, #1045, .T. ) ;
#54 = CARTESIAN_POINT ( 'NONE',  ( -13.00000000000000000, 0.000000000000000000, 4.000000000000000000 ) ) ;
#55 = DIRECTION ( 'NONE',  ( 0.000000000000000000, -1.000000000000000000, 0.000000000000000000 ) ) ;
#56 = EDGE_CURVE ( 'NONE', #283, #843, #990, .T. ) ;
#57 = VERTEX_POINT ( 'NONE', #558 ) ;
#58 = CARTESIAN_POINT ( 'NONE',  ( -2.100000000000000089, -8.150000000000000355, 0.000000000000000000 ) ) ;
#59 = CC_DESIGN_APPROVAL ( #982, ( #161 ) ) ;
#60 = ORIENTED_EDGE ( 'NONE', *, *, #514, .T. ) ;
#61 = ORIENTED_EDGE ( 'NONE', *, *, #961, .F. ) ;
#62 = CARTESIAN_POINT ( 'NONE',  ( -8.150000000000000355, -7.000000000000000000, 4.000000000000003553 ) ) ;
#63 = LINE ( 'NONE', #144, #1007 ) ;
#64 = CARTESIAN_POINT ( 'NONE',  ( 0.000000000000000000, -8.150000000000000355, 0.000000000000000000 ) ) ;
#65 = ORIENTED_EDGE ( 'NONE', *, *, #676, .T. ) ;
#66 = EDGE_CURVE ( 'NONE', #427, #404, #861, .T. ) ;
#67 = EDGE_CURVE ( 'NONE', #618, #489, #345, .T. ) ;
#68 = CARTESIAN_POINT ( 'NONE',  ( 2.100000000000000089, 3.404408906109841038, 0.000000000000000000 ) ) ;
#69 = CIRCLE ( 'NONE', #755, 4.000000000000000000 ) ;
#70 = DIRECTION ( 'NONE',  ( -0.000000000000000000, -0.000000000000000000, -1.000000000000000000 ) ) ;
#71 = ORIENTED_EDGE ( 'NONE', *, *, #104, .F. ) ;
#72 = VECTOR ( 'NONE', #366, 1000.000000000000000 ) ;
#73 = FACE_BOUND ( 'NONE', #1021, .T. ) ;
#74 = CARTESIAN_POINT ( 'NONE',  ( 0.000000000000000000, 0.000000000000000000, 0.000000000000000000 ) ) ;
#75 = ORIENTED_EDGE ( 'NONE', *, *, #1002, .F. ) ;
#76 = DIRECTION ( 'NONE',  ( 0.000000000000000000, 0.000000000000000000, 1.000000000000000000 ) ) ;
#77 = EDGE_CURVE ( 'NONE', #309, #322, #1010, .T. ) ;
#78 = CARTESIAN_POINT ( 'NONE',  ( -2.100000000000000089, -8.150000000000000355, 0.000000000000000000 ) ) ;
#79 = ORIENTED_EDGE ( 'NONE', *, *, #189, .F. ) ;
#80 = AXIS2_PLACEMENT_3D ( 'NONE', #228, #315, #656 ) ;
#81 = CIRCLE ( 'NONE', #718, 1.150000000000000799 ) ;
#82 = CARTESIAN_POINT ( 'NONE',  ( -2.100000000000000089, -8.150000000000000355, -1.649999999999999911 ) ) ;
#83 = APPLICATION_PROTOCOL_DEFINITION ( 'international standard', 'config_control_design', 1994, #235 ) ;
#84 = LINE ( 'NONE', #851, #520 ) ;
#85 = VECTOR ( 'NONE', #751, 1000.000000000000000 ) ;
#86 = EDGE_LOOP ( 'NONE', ( #954, #307, #225, #1097 ) ) ;
#87 = EDGE_CURVE ( 'NONE', #571, #979, #84, .T. ) ;
#88 = FACE_OUTER_BOUND ( 'NONE', #393, .T. ) ;
#89 = CARTESIAN_POINT ( 'NONE',  ( -3.404408906109840149, -2.100000000000000089, 0.000000000000000000 ) ) ;
#90 =( NAMED_UNIT ( * ) PLANE_ANGLE_UNIT ( ) SI_UNIT ( $, .RADIAN. ) );
#91 = CARTESIAN_POINT ( 'NONE',  ( -5.850000000000000533, 7.000000000000000000, 4.000000000000003553 ) ) ;
#92 = CARTESIAN_POINT ( 'NONE',  ( 0.000000000000000000, 0.000000000000000000, 4.000000000000000000 ) ) ;
#93 = VERTEX_POINT ( 'NONE', #687 ) ;
#94 = CIRCLE ( 'NONE', #963, 2.100000000000000977 ) ;
#95 = CARTESIAN_POINT ( 'NONE',  ( -10.25000000000000178, 0.000000000000000000, 0.000000000000000000 ) ) ;
#96 = PLANE ( 'NONE',  #941 ) ;
#97 = DATE_TIME_ROLE ( 'classification_date' ) ;
#98 = CARTESIAN_POINT ( 'NONE',  ( -2.100000000000000089, -8.150000000000000355, 0.000000000000000000 ) ) ;
#99 = CARTESIAN_POINT ( 'NONE',  ( 5.849999999999999645, -7.000000000000000000, -1.650000000000000355 ) ) ;
#100 = ORIENTED_EDGE ( 'NONE', *, *, #701, .F. ) ;
#101 = EDGE_CURVE ( 'NONE', #921, #47, #154, .T. ) ;
#102 = DIRECTION ( 'NONE',  ( 0.000000000000000000, 0.000000000000000000, 1.000000000000000000 ) ) ;
#103 = COORDINATED_UNIVERSAL_TIME_OFFSET ( 6, 0, .BEHIND. ) ;
#104 = EDGE_CURVE ( 'NONE', #462, #997, #175, .T. ) ;
#105 = DIRECTION ( 'NONE',  ( -1.000000000000000000, 0.000000000000000000, 0.000000000000000000 ) ) ;
#106 = FACE_OUTER_BOUND ( 'NONE', #1, .T. ) ;
#107 = VERTEX_POINT ( 'NONE', #1124 ) ;
#108 = EDGE_LOOP ( 'NONE', ( #113, #485, #458, #53 ) ) ;
#109 = VECTOR ( 'NONE', #348, 1000.000000000000000 ) ;
#110 = CARTESIAN_POINT ( 'NONE',  ( -2.100000000000000089, -3.404408906109840149, -1.649999999999999911 ) ) ;
#111 = DIRECTION ( 'NONE',  ( -0.000000000000000000, -0.000000000000000000, 1.000000000000000000 ) ) ;
#112 = ORIENTED_EDGE ( 'NONE', *, *, #567, .T. ) ;
#113 = ORIENTED_EDGE ( 'NONE', *, *, #1022, .F. ) ;
#114 = ORGANIZATION ( 'UNSPECIFIED', 'UNSPECIFIED', '' ) ;
#115 = CARTESIAN_POINT ( 'NONE',  ( 3.404408906109840149, 2.100000000000000089, 0.000000000000000000 ) ) ;
#116 = EDGE_CURVE ( 'NONE', #489, #464, #323, .T. ) ;
#117 = PLANE ( 'NONE',  #575 ) ;
#118 = ORIENTED_EDGE ( 'NONE', *, *, #77, .T. ) ;
#119 = ORIENTED_EDGE ( 'NONE', *, *, #421, .T. ) ;
#120 = DIRECTION ( 'NONE',  ( -1.000000000000000000, 0.000000000000000000, 0.000000000000000000 ) ) ;
#121 = FACE_OUTER_BOUND ( 'NONE', #624, .T. ) ;
#122 = ORIENTED_EDGE ( 'NONE', *, *, #500, .F. ) ;
#123 = EDGE_LOOP ( 'NONE', ( #301, #317 ) ) ;
#124 = ADVANCED_FACE ( 'NONE', ( #162 ), #327, .T. ) ;
#125 = CLOSED_SHELL ( 'NONE', ( #852, #893, #1074, #1094, #626, #222, #318, #717, #988, #347, #35, #576, #371, #1034, #499, #208, #569, #789, #588, #723, #608, #124, #1088, #398, #305, #442, #234, #223, #926, #665, #252 ) ) ;
#126 = AXIS2_PLACEMENT_3D ( 'NONE', #45, #664, #640 ) ;
#127 = CARTESIAN_POINT ( 'NONE',  ( -2.100000000000000089, -8.150000000000000355, 0.000000000000000000 ) ) ;
#128 = AXIS2_PLACEMENT_3D ( 'NONE', #460, #451, #880 ) ;
#129 = CARTESIAN_POINT ( 'NONE',  ( -8.150000000000000355, 2.100000000000000089, 0.000000000000000000 ) ) ;
#130 = VERTEX_POINT ( 'NONE', #515 ) ;
#131 = VERTEX_POINT ( 'NONE', #330 ) ;
#132 = DIRECTION ( 'NONE',  ( 1.000000000000000000, 0.000000000000000000, 0.000000000000000000 ) ) ;
#133 = VERTEX_POINT ( 'NONE', #595 ) ;
#134 = AXIS2_PLACEMENT_3D ( 'NONE', #976, #281, #203 ) ;
#135 = PLANE ( 'NONE',  #425 ) ;
#136 = EDGE_CURVE ( 'NONE', #722, #335, #786, .T. ) ;
#137 = ORIENTED_EDGE ( 'NONE', *, *, #750, .T. ) ;
#138 = CIRCLE ( 'NONE', #52, 4.000000000000000000 ) ;
#139 = ORIENTED_EDGE ( 'NONE', *, *, #488, .T. ) ;
#140 = DIRECTION ( 'NONE',  ( -0.000000000000000000, -1.000000000000000000, -0.000000000000000000 ) ) ;
#141 = ORIENTED_EDGE ( 'NONE', *, *, #326, .F. ) ;
#142 = ORIENTED_EDGE ( 'NONE', *, *, #1119, .F. ) ;
#143 = FACE_BOUND ( 'NONE', #449, .T. ) ;
#144 = CARTESIAN_POINT ( 'NONE',  ( 3.404408906109840149, 2.100000000000000089, 0.000000000000000000 ) ) ;
#145 = CIRCLE ( 'NONE', #1091, 13.00000000000000000 ) ;
#146 = CARTESIAN_POINT ( 'NONE',  ( -7.000000000000000000, 7.000000000000000000, -1.650000000000000355 ) ) ;
#147 = EDGE_CURVE ( 'NONE', #1032, #404, #759, .T. ) ;
#148 = ORIENTED_EDGE ( 'NONE', *, *, #1060, .T. ) ;
#149 = EDGE_CURVE ( 'NONE', #662, #178, #351, .T. ) ;
#150 = CARTESIAN_POINT ( 'NONE',  ( -7.000000000000000000, 7.000000000000000000, -1.650000000000000355 ) ) ;
#151 = PLANE ( 'NONE',  #244 ) ;
#152 = VERTEX_POINT ( 'NONE', #340 ) ;
#153 = DIRECTION ( 'NONE',  ( 1.000000000000000000, 0.000000000000000000, 0.000000000000000000 ) ) ;
#154 = LINE ( 'NONE', #334, #36 ) ;
#155 = AXIS2_PLACEMENT_3D ( 'NONE', #294, #903, #554 ) ;
#156 = ORIENTED_EDGE ( 'NONE', *, *, #77, .F. ) ;
#157 = VECTOR ( 'NONE', #622, 1000.000000000000000 ) ;
#158 = EDGE_CURVE ( 'NONE', #835, #973, #589, .T. ) ;
#159 = DIRECTION ( 'NONE',  ( 0.000000000000000000, 0.000000000000000000, -1.000000000000000000 ) ) ;
#160 = DIRECTION ( 'NONE',  ( 0.000000000000000000, 0.000000000000000000, 1.000000000000000000 ) ) ;
#161 = PRODUCT_DEFINITION_FORMATION_WITH_SPECIFIED_SOURCE ( 'ANY', '', #1123, .NOT_KNOWN. ) ;
#162 = FACE_OUTER_BOUND ( 'NONE', #312, .T. ) ;
#163 = EDGE_LOOP ( 'NONE', ( #962, #60, #641, #825 ) ) ;
#164 = CARTESIAN_POINT ( 'NONE',  ( -7.000000000000000000, -7.000000000000000000, 4.000000000000003553 ) ) ;
#165 = CARTESIAN_POINT ( 'NONE',  ( 5.849999999999999645, 7.000000000000000000, -1.650000000000000355 ) ) ;
#166 = SECURITY_CLASSIFICATION_LEVEL ( 'unclassified' ) ;
#167 = CARTESIAN_POINT ( 'NONE',  ( 0.000000000000000000, 0.000000000000000000, 0.000000000000000000 ) ) ;
#168 = EDGE_CURVE ( 'NONE', #390, #997, #585, .T. ) ;
#169 = ORIENTED_EDGE ( 'NONE', *, *, #1020, .T. ) ;
#170 = AXIS2_PLACEMENT_3D ( 'NONE', #998, #556, #901 ) ;
#171 = LINE ( 'NONE', #964, #1026 ) ;
#172 = DIRECTION ( 'NONE',  ( 0.000000000000000000, 0.000000000000000000, 1.000000000000000000 ) ) ;
#173 = COORDINATED_UNIVERSAL_TIME_OFFSET ( 6, 0, .BEHIND. ) ;
#174 = CARTESIAN_POINT ( 'NONE',  ( 0.000000000000000000, 0.000000000000000000, 4.000000000000000000 ) ) ;
#175 = CIRCLE ( 'NONE', #810, 4.000000000000000000 ) ;
#176 = CYLINDRICAL_SURFACE ( 'NONE', #916, 2.100000000000000977 ) ;
#177 = CIRCLE ( 'NONE', #1012, 1.150000000000000799 ) ;
#178 = VERTEX_POINT ( 'NONE', #1111 ) ;
#179 = PERSON ( 'UNSPECIFIED', 'UNSPECIFIED', 'UNSPECIFIED', ('UNSPECIFIED'), ('UNSPECIFIED'), ('UNSPECIFIED') ) ;
#180 = DIRECTION ( 'NONE',  ( -1.000000000000000000, 0.000000000000000000, 0.000000000000000000 ) ) ;
#181 = CYLINDRICAL_SURFACE ( 'NONE', #477, 1.150000000000000799 ) ;
#182 = CALENDAR_DATE ( 2026, 8, 9 ) ;
#183 = CARTESIAN_POINT ( 'NONE',  ( 0.000000000000000000, 0.000000000000000000, -1.649999999999999911 ) ) ;
#184 = DIRECTION ( 'NONE',  ( 0.000000000000000000, 0.000000000000000000, -1.000000000000000000 ) ) ;
#185 = VERTEX_POINT ( 'NONE', #673 ) ;
#186 = LOCAL_TIME ( 17, 4, 15.00000000000000000, #260 ) ;
#187 = EDGE_CURVE ( 'NONE', #475, #1084, #847, .T. ) ;
#188 = ORIENTED_EDGE ( 'NONE', *, *, #1051, .T. ) ;
#189 = EDGE_CURVE ( 'NONE', #882, #919, #838, .T. ) ;
#190 = DIRECTION ( 'NONE',  ( 0.000000000000000000, 0.000000000000000000, -1.000000000000000000 ) ) ;
#191 = CARTESIAN_POINT ( 'NONE',  ( -4.000000000000000000, 0.000000000000000000, 4.000000000000000000 ) ) ;
#192 = APPROVAL_ROLE ( '' ) ;
#193 = LINE ( 'NONE', #361, #846 ) ;
#194 = CARTESIAN_POINT ( 'NONE',  ( -2.100000000000000089, 8.150000000000000355, 0.000000000000000000 ) ) ;
#195 = ORIENTED_EDGE ( 'NONE', *, *, #267, .F. ) ;
#196 = APPLICATION_PROTOCOL_DEFINITION ( 'international standard', 'config_control_design', 1994, #933 ) ;
#197 = AXIS2_PLACEMENT_3D ( 'NONE', #277, #8, #456 ) ;
#198 = DIRECTION ( 'NONE',  ( 0.000000000000000000, 0.000000000000000000, -1.000000000000000000 ) ) ;
#199 = DIRECTION ( 'NONE',  ( -0.000000000000000000, -0.000000000000000000, -1.000000000000000000 ) ) ;
#200 = EDGE_LOOP ( 'NONE', ( #1108, #263, #375, #631 ) ) ;
#201 = VERTEX_POINT ( 'NONE', #1024 ) ;
#202 = EDGE_CURVE ( 'NONE', #919, #1069, #1040, .T. ) ;
#203 = DIRECTION ( 'NONE',  ( 0.000000000000000000, -0.000000000000000000, -1.000000000000000000 ) ) ;
#204 = DIRECTION ( 'NONE',  ( 1.000000000000000000, 0.000000000000000000, 0.000000000000000000 ) ) ;
#205 = ORIENTED_EDGE ( 'NONE', *, *, #683, .T. ) ;
#206 = CARTESIAN_POINT ( 'NONE',  ( 8.150000000000000355, -7.000000000000000000, -1.650000000000000355 ) ) ;
#207 = CARTESIAN_POINT ( 'NONE',  ( -2.100000000000000089, 3.404408906109840149, 0.000000000000000000 ) ) ;
#208 = ADVANCED_FACE ( 'NONE', ( #929 ), #151, .T. ) ;
#209 = ORIENTED_EDGE ( 'NONE', *, *, #488, .F. ) ;
#210 = VECTOR ( 'NONE', #426, 1000.000000000000000 ) ;
#211 = DIRECTION ( 'NONE',  ( 0.000000000000000000, 0.000000000000000000, 1.000000000000000000 ) ) ;
#212 = DIRECTION ( 'NONE',  ( -0.000000000000000000, -0.000000000000000000, -1.000000000000000000 ) ) ;
#213 = ORIENTED_EDGE ( 'NONE', *, *, #405, .T. ) ;
#214 = CARTESIAN_POINT ( 'NONE',  ( -7.000000000000000000, 7.000000000000000000, 4.000000000000003553 ) ) ;
#215 = ORIENTED_EDGE ( 'NONE', *, *, #49, .F. ) ;
#216 = VECTOR ( 'NONE', #274, 1000.000000000000000 ) ;
#217 = CARTESIAN_POINT ( 'NONE',  ( -2.100000000000000089, -8.150000000000000355, 0.000000000000000000 ) ) ;
#218 = CIRCLE ( 'NONE', #128, 2.100000000000000089 ) ;
#219 = FACE_BOUND ( 'NONE', #50, .T. ) ;
#220 = ORIENTED_EDGE ( 'NONE', *, *, #834, .T. ) ;
#221 = ORIENTED_EDGE ( 'NONE', *, *, #482, .F. ) ;
#222 = ADVANCED_FACE ( 'NONE', ( #591 ), #932, .F. ) ;
#223 = ADVANCED_FACE ( 'NONE', ( #886 ), #891, .F. ) ;
#224 = CARTESIAN_POINT ( 'NONE',  ( 0.000000000000000000, 0.000000000000000000, -1.649999999999999911 ) ) ;
#225 = ORIENTED_EDGE ( 'NONE', *, *, #67, .F. ) ;
#226 = ORIENTED_EDGE ( 'NONE', *, *, #542, .T. ) ;
#227 = VECTOR ( 'NONE', #299, 1000.000000000000000 ) ;
#228 = CARTESIAN_POINT ( 'NONE',  ( -7.000000000000000000, -7.000000000000000000, 4.000000000000003553 ) ) ;
#229 = EDGE_LOOP ( 'NONE', ( #61, #906, #889, #1055 ) ) ;
#230 = VECTOR ( 'NONE', #887, 1000.000000000000000 ) ;
#231 = EDGE_LOOP ( 'NONE', ( #79, #695, #803, #848 ) ) ;
#232 = VECTOR ( 'NONE', #598, 1000.000000000000000 ) ;
#233 = CARTESIAN_POINT ( 'NONE',  ( -8.150000000000000355, 2.100000000000000089, -1.649999999999999911 ) ) ;
#234 = ADVANCED_FACE ( 'NONE', ( #628 ), #634, .F. ) ;
#235 = APPLICATION_CONTEXT ( 'configuration controlled 3d designs of mechanical parts and assemblies' ) ;
#236 = ORIENTED_EDGE ( 'NONE', *, *, #840, .T. ) ;
#237 = VERTEX_POINT ( 'NONE', #446 ) ;
#238 = DIRECTION ( 'NONE',  ( 0.000000000000000000, 0.000000000000000000, 1.000000000000000000 ) ) ;
#239 = CIRCLE ( 'NONE', #1107, 1.149999999999999911 ) ;
#240 = DIRECTION ( 'NONE',  ( 1.000000000000000000, 0.000000000000000000, 0.000000000000000000 ) ) ;
#241 = EDGE_CURVE ( 'NONE', #464, #934, #546, .T. ) ;
#242 = ORIENTED_EDGE ( 'NONE', *, *, #1009, .T. ) ;
#243 = CARTESIAN_POINT ( 'NONE',  ( 0.000000000000000000, 0.000000000000000000, -1.649999999999999911 ) ) ;
#244 = AXIS2_PLACEMENT_3D ( 'NONE', #497, #670, #245 ) ;
#245 = DIRECTION ( 'NONE',  ( 0.000000000000000000, 0.000000000000000000, 1.000000000000000000 ) ) ;
#246 = ORIENTED_EDGE ( 'NONE', *, *, #936, .F. ) ;
#247 = EDGE_CURVE ( 'NONE', #489, #843, #7, .T. ) ;
#248 = DIRECTION ( 'NONE',  ( 0.000000000000000000, 0.000000000000000000, -1.000000000000000000 ) ) ;
#249 = CARTESIAN_POINT ( 'NONE',  ( 0.000000000000000000, 0.000000000000000000, 0.000000000000000000 ) ) ;
#250 = AXIS2_PLACEMENT_3D ( 'NONE', #1014, #238, #325 ) ;
#251 = ORIENTED_EDGE ( 'NONE', *, *, #87, .T. ) ;
#252 = ADVANCED_FACE ( 'NONE', ( #1062 ), #790, .F. ) ;
#253 = CARTESIAN_POINT ( 'NONE',  ( -8.150000000000000355, 2.100000000000000089, -1.649999999999999911 ) ) ;
#254 = DIRECTION ( 'NONE',  ( 0.000000000000000000, 0.000000000000000000, 1.000000000000000000 ) ) ;
#255 = CALENDAR_DATE ( 2026, 8, 9 ) ;
#256 = AXIS2_PLACEMENT_3D ( 'NONE', #612, #254, #1121 ) ;
#257 = DIRECTION ( 'NONE',  ( 1.000000000000000000, 0.000000000000000000, 0.000000000000000000 ) ) ;
#258 = ORIENTED_EDGE ( 'NONE', *, *, #884, .F. ) ;
#259 = LINE ( 'NONE', #527, #232 ) ;
#260 = COORDINATED_UNIVERSAL_TIME_OFFSET ( 6, 0, .BEHIND. ) ;
#261 = CARTESIAN_POINT ( 'NONE',  ( 4.000000000000000000, 4.898587196589412829E-16, 4.000000000000000000 ) ) ;
#262 = CARTESIAN_POINT ( 'NONE',  ( -8.150000000000000355, -2.100000000000000089, -1.649999999999999911 ) ) ;
#263 = ORIENTED_EDGE ( 'NONE', *, *, #385, .F. ) ;
#264 = CARTESIAN_POINT ( 'NONE',  ( -5.850000000000000533, 7.000000000000000000, 4.000000000000003553 ) ) ;
#265 = FACE_OUTER_BOUND ( 'NONE', #675, .T. ) ;
#266 = PERSON_AND_ORGANIZATION_ROLE ( 'design_supplier' ) ;
#267 = EDGE_CURVE ( 'NONE', #237, #979, #218, .T. ) ;
#268 = CYLINDRICAL_SURFACE ( 'NONE', #403, 13.00000000000000000 ) ;
#269 = VECTOR ( 'NONE', #1092, 1000.000000000000000 ) ;
#270 = PLANE ( 'NONE',  #541 ) ;
#271 = EDGE_CURVE ( 'NONE', #764, #1069, #193, .T. ) ;
#272 = CIRCLE ( 'NONE', #358, 1.149999999999999911 ) ;
#273 = ORIENTED_EDGE ( 'NONE', *, *, #87, .F. ) ;
#274 = DIRECTION ( 'NONE',  ( -1.000000000000000000, -0.000000000000000000, -0.000000000000000000 ) ) ;
#275 = DIRECTION ( 'NONE',  ( 1.000000000000000000, 0.000000000000000000, 0.000000000000000000 ) ) ;
#276 = CARTESIAN_POINT ( 'NONE',  ( 3.404408906109840149, -2.100000000000000089, 0.000000000000000000 ) ) ;
#277 = CARTESIAN_POINT ( 'NONE',  ( -8.150000000000000355, -2.100000000000000089, 0.000000000000000000 ) ) ;
#278 = ORIENTED_EDGE ( 'NONE', *, *, #918, .T. ) ;
#279 = ORIENTED_EDGE ( 'NONE', *, *, #824, .F. ) ;
#280 = DIRECTION ( 'NONE',  ( 0.000000000000000000, 0.000000000000000000, 1.000000000000000000 ) ) ;
#281 = DIRECTION ( 'NONE',  ( 0.000000000000000000, -1.000000000000000000, 0.000000000000000000 ) ) ;
#282 = LINE ( 'NONE', #357, #287 ) ;
#283 = VERTEX_POINT ( 'NONE', #110 ) ;
#284 = AXIS2_PLACEMENT_3D ( 'NONE', #896, #38, #379 ) ;
#285 = ORIENTED_EDGE ( 'NONE', *, *, #104, .T. ) ;
#286 = EDGE_CURVE ( 'NONE', #93, #427, #30, .T. ) ;
#287 = VECTOR ( 'NONE', #111, 1000.000000000000000 ) ;
#288 = DIRECTION ( 'NONE',  ( -1.000000000000000000, 0.000000000000000000, 0.000000000000000000 ) ) ;
#289 = DIRECTION ( 'NONE',  ( -0.000000000000000000, -1.000000000000000000, -0.000000000000000000 ) ) ;
#290 = EDGE_LOOP ( 'NONE', ( #34, #242 ) ) ;
#291 = VECTOR ( 'NONE', #594, 1000.000000000000000 ) ;
#292 = EDGE_CURVE ( 'NONE', #41, #722, #958, .T. ) ;
#293 = DIRECTION ( 'NONE',  ( 0.000000000000000000, 0.000000000000000000, -1.000000000000000000 ) ) ;
#294 = CARTESIAN_POINT ( 'NONE',  ( -8.150000000000000355, 0.000000000000000000, -1.649999999999999911 ) ) ;
#295 = VERTEX_POINT ( 'NONE', #115 ) ;
#296 = ORIENTED_EDGE ( 'NONE', *, *, #286, .F. ) ;
#297 = CIRCLE ( 'NONE', #256, 1.150000000000000799 ) ;
#298 = SHAPE_DEFINITION_REPRESENTATION ( #1030, #1110 ) ;
#299 = DIRECTION ( 'NONE',  ( -0.000000000000000000, -0.000000000000000000, 1.000000000000000000 ) ) ;
#300 = CARTESIAN_POINT ( 'NONE',  ( -8.150000000000000355, -2.100000000000000089, -1.649999999999999911 ) ) ;
#301 = ORIENTED_EDGE ( 'NONE', *, *, #1060, .F. ) ;
#302 = ORIENTED_EDGE ( 'NONE', *, *, #3, .F. ) ;
#303 = AXIS2_PLACEMENT_3D ( 'NONE', #167, #1038, #774 ) ;
#304 = CARTESIAN_POINT ( 'NONE',  ( -8.150000000000000355, -2.100000000000000089, 0.000000000000000000 ) ) ;
#305 = ADVANCED_FACE ( 'NONE', ( #693 ), #373, .F. ) ;
#306 = FACE_OUTER_BOUND ( 'NONE', #826, .T. ) ;
#307 = ORIENTED_EDGE ( 'NONE', *, *, #116, .F. ) ;
#308 = CC_DESIGN_PERSON_AND_ORGANIZATION_ASSIGNMENT ( #437, #699, ( #667 ) ) ;
#309 = VERTEX_POINT ( 'NONE', #455 ) ;
#310 = AXIS2_PLACEMENT_3D ( 'NONE', #435, #332, #4 ) ;
#311 = CARTESIAN_POINT ( 'NONE',  ( 0.000000000000000000, 0.000000000000000000, 0.000000000000000000 ) ) ;
#312 = EDGE_LOOP ( 'NONE', ( #1047, #978, #733, #960 ) ) ;
#313 = ORIENTED_EDGE ( 'NONE', *, *, #1072, .F. ) ;
#314 = AXIS2_PLACEMENT_3D ( 'NONE', #599, #678, #436 ) ;
#315 = DIRECTION ( 'NONE',  ( 0.000000000000000000, 0.000000000000000000, 1.000000000000000000 ) ) ;
#316 = ORIENTED_EDGE ( 'NONE', *, *, #762, .T. ) ;
#317 = ORIENTED_EDGE ( 'NONE', *, *, #801, .F. ) ;
#318 = ADVANCED_FACE ( 'NONE', ( #873 ), #268, .T. ) ;
#319 = AXIS2_PLACEMENT_3D ( 'NONE', #736, #811, #746 ) ;
#320 = DIRECTION ( 'NONE',  ( 0.000000000000000000, 0.000000000000000000, 1.000000000000000000 ) ) ;
#321 = ORIENTED_EDGE ( 'NONE', *, *, #936, .T. ) ;
#322 = VERTEX_POINT ( 'NONE', #91 ) ;
#323 = CIRCLE ( 'NONE', #406, 2.100000000000000089 ) ;
#324 = AXIS2_PLACEMENT_3D ( 'NONE', #164, #342, #510 ) ;
#325 = DIRECTION ( 'NONE',  ( 1.000000000000000000, 0.000000000000000000, 0.000000000000000000 ) ) ;
#326 = EDGE_CURVE ( 'NONE', #532, #107, #783, .T. ) ;
#327 = PLANE ( 'NONE',  #303 ) ;
#328 = EDGE_LOOP ( 'NONE', ( #760, #1076, #930, #770 ) ) ;
#329 = DIRECTION ( 'NONE',  ( 1.000000000000000000, 0.000000000000000000, 0.000000000000000000 ) ) ;
#330 = CARTESIAN_POINT ( 'NONE',  ( -3.404408906109840149, 2.100000000000000089, 0.000000000000000000 ) ) ;
#331 = ORIENTED_EDGE ( 'NONE', *, *, #3, .T. ) ;
#332 = DIRECTION ( 'NONE',  ( 0.000000000000000000, 0.000000000000000000, -1.000000000000000000 ) ) ;
#333 = LINE ( 'NONE', #507, #344 ) ;
#334 = CARTESIAN_POINT ( 'NONE',  ( 8.150000000000000355, -2.100000000000000089, 0.000000000000000000 ) ) ;
#335 = VERTEX_POINT ( 'NONE', #712 ) ;
#336 = VECTOR ( 'NONE', #549, 1000.000000000000000 ) ;
#337 = EDGE_CURVE ( 'NONE', #1069, #919, #495, .T. ) ;
#338 = LINE ( 'NONE', #264, #522 ) ;
#339 = APPROVAL_DATE_TIME ( #13, #471 ) ;
#340 = CARTESIAN_POINT ( 'NONE',  ( -10.25000000000000178, 0.000000000000000000, -1.649999999999999911 ) ) ;
#341 = ORIENTED_EDGE ( 'NONE', *, *, #271, .F. ) ;
#342 = DIRECTION ( 'NONE',  ( 0.000000000000000000, 0.000000000000000000, 1.000000000000000000 ) ) ;
#343 = CARTESIAN_POINT ( 'NONE',  ( 0.000000000000000000, 0.000000000000000000, 0.000000000000000000 ) ) ;
#344 = VECTOR ( 'NONE', #535, 1000.000000000000000 ) ;
#345 = LINE ( 'NONE', #78, #1048 ) ;
#346 = VERTEX_POINT ( 'NONE', #1052 ) ;
#347 = ADVANCED_FACE ( 'NONE', ( #14 ), #1056, .T. ) ;
#348 = DIRECTION ( 'NONE',  ( 1.000000000000000000, 0.000000000000000000, 0.000000000000000000 ) ) ;
#349 = DIRECTION ( 'NONE',  ( 1.000000000000000000, 0.000000000000000000, 0.000000000000000000 ) ) ;
#350 = DIRECTION ( 'NONE',  ( -1.000000000000000000, 0.000000000000000000, 0.000000000000000000 ) ) ;
#351 = CIRCLE ( 'NONE', #734, 1.150000000000000799 ) ;
#352 = DIRECTION ( 'NONE',  ( 0.000000000000000000, 0.000000000000000000, -1.000000000000000000 ) ) ;
#353 = ORIENTED_EDGE ( 'NONE', *, *, #267, .T. ) ;
#354 = CARTESIAN_POINT ( 'NONE',  ( -7.000000000000000000, 7.000000000000000000, 4.000000000000003553 ) ) ;
#355 = LINE ( 'NONE', #949, #920 ) ;
#356 = CARTESIAN_POINT ( 'NONE',  ( 7.000000000000000000, 7.000000000000000000, 4.000000000000003553 ) ) ;
#357 = CARTESIAN_POINT ( 'NONE',  ( -3.404408906109840149, 2.100000000000000089, 0.000000000000000000 ) ) ;
#358 = AXIS2_PLACEMENT_3D ( 'NONE', #150, #212, #845 ) ;
#359 = EDGE_LOOP ( 'NONE', ( #1065, #23, #112, #65 ) ) ;
#360 = AXIS2_PLACEMENT_3D ( 'NONE', #800, #439, #970 ) ;
#361 = CARTESIAN_POINT ( 'NONE',  ( -8.150000000000000355, -7.000000000000000000, 4.000000000000003553 ) ) ;
#362 = EDGE_CURVE ( 'NONE', #404, #295, #766, .T. ) ;
#363 = CARTESIAN_POINT ( 'NONE',  ( -2.100000000000000089, -3.404408906109840149, 0.000000000000000000 ) ) ;
#364 = ORIENTED_EDGE ( 'NONE', *, *, #625, .F. ) ;
#365 = ORIENTED_EDGE ( 'NONE', *, *, #362, .T. ) ;
#366 = DIRECTION ( 'NONE',  ( 0.000000000000000000, 1.000000000000000000, 0.000000000000000000 ) ) ;
#367 = DIRECTION ( 'NONE',  ( -1.000000000000000000, 0.000000000000000000, 0.000000000000000000 ) ) ;
#368 = ORIENTED_EDGE ( 'NONE', *, *, #292, .F. ) ;
#369 = AXIS2_PLACEMENT_3D ( 'NONE', #386, #574, #1080 ) ;
#370 = EDGE_LOOP ( 'NONE', ( #422, #651, #940, #484 ) ) ;
#371 = ADVANCED_FACE ( 'NONE', ( #392 ), #135, .T. ) ;
#372 = VECTOR ( 'NONE', #289, 1000.000000000000000 ) ;
#373 = CYLINDRICAL_SURFACE ( 'NONE', #765, 2.100000000000000089 ) ;
#374 = CARTESIAN_POINT ( 'NONE',  ( 7.000000000000000000, 7.000000000000000000, -1.650000000000000355 ) ) ;
#375 = ORIENTED_EDGE ( 'NONE', *, *, #457, .T. ) ;
#376 = AXIS2_PLACEMENT_3D ( 'NONE', #650, #904, #753 ) ;
#377 = VECTOR ( 'NONE', #423, 1000.000000000000000 ) ;
#378 = EDGE_LOOP ( 'NONE', ( #754, #1039 ) ) ;
#379 = DIRECTION ( 'NONE',  ( 1.000000000000000000, 0.000000000000000000, 0.000000000000000000 ) ) ;
#380 = CARTESIAN_POINT ( 'NONE',  ( -8.150000000000000355, -2.100000000000000089, 0.000000000000000000 ) ) ;
#381 = CARTESIAN_POINT ( 'NONE',  ( -2.100000000000000089, -8.150000000000000355, -1.649999999999999911 ) ) ;
#382 = CARTESIAN_POINT ( 'NONE',  ( 7.000000000000000000, 7.000000000000000000, 4.000000000000003553 ) ) ;
#383 = ORIENTED_EDGE ( 'NONE', *, *, #56, .F. ) ;
#384 = AXIS2_PLACEMENT_3D ( 'NONE', #1028, #957, #5 ) ;
#385 = EDGE_CURVE ( 'NONE', #133, #602, #947, .T. ) ;
#386 = CARTESIAN_POINT ( 'NONE',  ( 7.000000000000000000, -7.000000000000000000, -1.650000000000000355 ) ) ;
#387 = EDGE_CURVE ( 'NONE', #469, #657, #713, .T. ) ;
#388 = LINE ( 'NONE', #841, #1086 ) ;
#389 = ORIENTED_EDGE ( 'NONE', *, *, #553, .F. ) ;
#390 = VERTEX_POINT ( 'NONE', #304 ) ;
#391 = VECTOR ( 'NONE', #493, 1000.000000000000000 ) ;
#392 = FACE_OUTER_BOUND ( 'NONE', #596, .T. ) ;
#393 = EDGE_LOOP ( 'NONE', ( #551, #572, #688, #142 ) ) ;
#394 = ORIENTED_EDGE ( 'NONE', *, *, #597, .F. ) ;
#395 = VECTOR ( 'NONE', #502, 1000.000000000000000 ) ;
#396 = DIRECTION ( 'NONE',  ( 1.000000000000000000, 0.000000000000000000, 0.000000000000000000 ) ) ;
#397 = ORIENTED_EDGE ( 'NONE', *, *, #704, .T. ) ;
#398 = ADVANCED_FACE ( 'NONE', ( #830 ), #1090, .F. ) ;
#399 = ORIENTED_EDGE ( 'NONE', *, *, #809, .F. ) ;
#400 = VECTOR ( 'NONE', #18, 1000.000000000000000 ) ;
#401 = FACE_OUTER_BOUND ( 'NONE', #550, .T. ) ;
#402 = VERTEX_POINT ( 'NONE', #742 ) ;
#403 = AXIS2_PLACEMENT_3D ( 'NONE', #174, #25, #288 ) ;
#404 = VERTEX_POINT ( 'NONE', #648 ) ;
#405 = EDGE_CURVE ( 'NONE', #571, #335, #827, .T. ) ;
#406 = AXIS2_PLACEMENT_3D ( 'NONE', #64, #415, #666 ) ;
#407 = FACE_OUTER_BOUND ( 'NONE', #200, .T. ) ;
#408 = LINE ( 'NONE', #233, #31 ) ;
#409 = CARTESIAN_POINT ( 'NONE',  ( -8.150000000000000355, -2.100000000000000089, 0.000000000000000000 ) ) ;
#410 = ORIENTED_EDGE ( 'NONE', *, *, #149, .F. ) ;
#411 = UNCERTAINTY_MEASURE_WITH_UNIT (LENGTH_MEASURE( 1.000000000000000082E-05 ), #529, 'distance_accuracy_value', 'NONE');
#412 = AXIS2_PLACEMENT_3D ( 'NONE', #1031, #769, #1117 ) ;
#413 = CC_DESIGN_DATE_AND_TIME_ASSIGNMENT ( #879, #97, ( #833 ) ) ;
#414 = DIRECTION ( 'NONE',  ( 0.000000000000000000, 1.000000000000000000, 0.000000000000000000 ) ) ;
#415 = DIRECTION ( 'NONE',  ( 0.000000000000000000, 0.000000000000000000, 1.000000000000000000 ) ) ;
#416 = AXIS2_PLACEMENT_3D ( 'NONE', #183, #707, #523 ) ;
#417 = EDGE_LOOP ( 'NONE', ( #1078, #119, #617, #555 ) ) ;
#418 = CARTESIAN_POINT ( 'NONE',  ( 0.000000000000000000, 0.000000000000000000, 0.000000000000000000 ) ) ;
#419 = EDGE_CURVE ( 'NONE', #764, #882, #659, .T. ) ;
#420 = DIRECTION ( 'NONE',  ( 0.000000000000000000, 0.000000000000000000, -1.000000000000000000 ) ) ;
#421 = EDGE_CURVE ( 'NONE', #602, #532, #993, .T. ) ;
#422 = ORIENTED_EDGE ( 'NONE', *, *, #1002, .T. ) ;
#423 = DIRECTION ( 'NONE',  ( 0.000000000000000000, 0.000000000000000000, -1.000000000000000000 ) ) ;
#424 = CARTESIAN_POINT ( 'NONE',  ( -8.150000000000000355, 2.100000000000000089, 0.000000000000000000 ) ) ;
#425 = AXIS2_PLACEMENT_3D ( 'NONE', #987, #120, #486 ) ;
#426 = DIRECTION ( 'NONE',  ( 1.000000000000000000, 0.000000000000000000, 0.000000000000000000 ) ) ;
#427 = VERTEX_POINT ( 'NONE', #917 ) ;
#428 = AXIS2_PLACEMENT_3D ( 'NONE', #92, #199, #440 ) ;
#429 = CARTESIAN_POINT ( 'NONE',  ( 7.000000000000000000, -7.000000000000000000, 4.000000000000003553 ) ) ;
#430 = CALENDAR_DATE ( 2026, 8, 9 ) ;
#431 = AXIS2_PLACEMENT_3D ( 'NONE', #354, #159, #180 ) ;
#432 = DIRECTION ( 'NONE',  ( 0.000000000000000000, 0.000000000000000000, -1.000000000000000000 ) ) ;
#433 = ORIENTED_EDGE ( 'NONE', *, *, #625, .T. ) ;
#434 = EDGE_CURVE ( 'NONE', #984, #390, #1061, .T. ) ;
#435 = CARTESIAN_POINT ( 'NONE',  ( -7.000000000000000000, -7.000000000000000000, 4.000000000000003553 ) ) ;
#436 = DIRECTION ( 'NONE',  ( 1.000000000000000000, 0.000000000000000000, 0.000000000000000000 ) ) ;
#437 = PERSON_AND_ORGANIZATION ( #179, #114 ) ;
#438 = VECTOR ( 'NONE', #905, 1000.000000000000000 ) ;
#439 = DIRECTION ( 'NONE',  ( 0.000000000000000000, 0.000000000000000000, -1.000000000000000000 ) ) ;
#440 = DIRECTION ( 'NONE',  ( -1.000000000000000000, 0.000000000000000000, 0.000000000000000000 ) ) ;
#441 = ORIENTED_EDGE ( 'NONE', *, *, #809, .T. ) ;
#442 = ADVANCED_FACE ( 'NONE', ( #401 ), #981, .F. ) ;
#443 = DIRECTION ( 'NONE',  ( 1.000000000000000000, 0.000000000000000000, 0.000000000000000000 ) ) ;
#444 = CARTESIAN_POINT ( 'NONE',  ( 0.000000000000000000, 0.000000000000000000, 4.000000000000000000 ) ) ;
#445 = APPROVAL_STATUS ( 'not_yet_approved' ) ;
#446 = CARTESIAN_POINT ( 'NONE',  ( 2.100000000000000089, 8.150000000000000355, -1.649999999999999911 ) ) ;
#447 = AXIS2_PLACEMENT_3D ( 'NONE', #74, #1015, #503 ) ;
#448 = DIRECTION ( 'NONE',  ( 0.000000000000000000, 0.000000000000000000, -1.000000000000000000 ) ) ;
#449 = EDGE_LOOP ( 'NONE', ( #16, #205, #545, #353, #671, #647, #226, #316, #188, #220, #331, #996, #808, #137, #860, #587, #169 ) ) ;
#450 = LINE ( 'NONE', #793, #400 ) ;
#451 = DIRECTION ( 'NONE',  ( 0.000000000000000000, 0.000000000000000000, 1.000000000000000000 ) ) ;
#452 = DIRECTION ( 'NONE',  ( -0.000000000000000000, -0.000000000000000000, -1.000000000000000000 ) ) ;
#453 = CIRCLE ( 'NONE', #740, 13.00000000000000000 ) ;
#454 = ORIENTED_EDGE ( 'NONE', *, *, #66, .F. ) ;
#455 = CARTESIAN_POINT ( 'NONE',  ( -8.150000000000000355, 7.000000000000000000, 4.000000000000003553 ) ) ;
#456 = DIRECTION ( 'NONE',  ( 0.000000000000000000, -0.000000000000000000, 1.000000000000000000 ) ) ;
#457 = EDGE_CURVE ( 'NONE', #133, #107, #1095, .T. ) ;
#458 = ORIENTED_EDGE ( 'NONE', *, *, #116, .T. ) ;
#459 = ORIENTED_EDGE ( 'NONE', *, *, #292, .T. ) ;
#460 = CARTESIAN_POINT ( 'NONE',  ( 0.000000000000000000, 8.150000000000000355, -1.649999999999999911 ) ) ;
#461 = PLANE ( 'NONE',  #197 ) ;
#462 = VERTEX_POINT ( 'NONE', #823 ) ;
#463 = VECTOR ( 'NONE', #1085, 1000.000000000000000 ) ;
#464 = VERTEX_POINT ( 'NONE', #912 ) ;
#465 = CARTESIAN_POINT ( 'NONE',  ( 5.849999999999999645, 7.000000000000000000, 4.000000000000003553 ) ) ;
#466 = DIRECTION ( 'NONE',  ( 0.000000000000000000, 0.000000000000000000, 1.000000000000000000 ) ) ;
#467 = CARTESIAN_POINT ( 'NONE',  ( 2.100000000000000089, -3.404408906109840149, 0.000000000000000000 ) ) ;
#468 = VECTOR ( 'NONE', #689, 1000.000000000000000 ) ;
#469 = VERTEX_POINT ( 'NONE', #206 ) ;
#470 = EDGE_CURVE ( 'NONE', #402, #57, #513, .T. ) ;
#471 = APPROVAL ( #864, 'UNSPECIFIED' ) ;
#472 = CALENDAR_DATE ( 2026, 8, 9 ) ;
#473 = DIRECTION ( 'NONE',  ( 1.000000000000000000, -0.000000000000000000, 0.000000000000000000 ) ) ;
#474 = PLANE ( 'NONE',  #720 ) ;
#475 = VERTEX_POINT ( 'NONE', #465 ) ;
#476 = EDGE_LOOP ( 'NONE', ( #410, #313 ) ) ;
#477 = AXIS2_PLACEMENT_3D ( 'NONE', #787, #12, #697 ) ;
#478 = CARTESIAN_POINT ( 'NONE',  ( 0.000000000000000000, -8.150000000000000355, 0.000000000000000000 ) ) ;
#479 = ORIENTED_EDGE ( 'NONE', *, *, #822, .F. ) ;
#480 = EDGE_LOOP ( 'NONE', ( #888, #792, #504, #915 ) ) ;
#481 = DIRECTION ( 'NONE',  ( 0.000000000000000000, 0.000000000000000000, -1.000000000000000000 ) ) ;
#482 = EDGE_CURVE ( 'NONE', #346, #1084, #629, .T. ) ;
#483 = CIRCLE ( 'NONE', #1114, 1.150000000000000799 ) ;
#484 = ORIENTED_EDGE ( 'NONE', *, *, #676, .F. ) ;
#485 = ORIENTED_EDGE ( 'NONE', *, *, #247, .F. ) ;
#486 = DIRECTION ( 'NONE',  ( 0.000000000000000000, 0.000000000000000000, 1.000000000000000000 ) ) ;
#487 = CARTESIAN_POINT ( 'NONE',  ( 8.150000000000000355, -2.100000000000000089, -1.649999999999999911 ) ) ;
#488 = EDGE_CURVE ( 'NONE', #283, #618, #724, .T. ) ;
#489 = VERTEX_POINT ( 'NONE', #217 ) ;
#490 = APPROVAL_PERSON_ORGANIZATION ( #512, #547, #965 ) ;
#491 = DIRECTION ( 'NONE',  ( -1.000000000000000000, 0.000000000000000000, -0.000000000000000000 ) ) ;
#492 = DIRECTION ( 'NONE',  ( -1.000000000000000000, -0.000000000000000000, -0.000000000000000000 ) ) ;
#493 = DIRECTION ( 'NONE',  ( 0.000000000000000000, 0.000000000000000000, -1.000000000000000000 ) ) ;
#494 = ORIENTED_EDGE ( 'NONE', *, *, #969, .F. ) ;
#495 = CIRCLE ( 'NONE', #914, 1.149999999999999911 ) ;
#496 = PLANE ( 'NONE',  #663 ) ;
#497 = CARTESIAN_POINT ( 'NONE',  ( 2.100000000000000089, -8.150000000000000355, 0.000000000000000000 ) ) ;
#498 = ORIENTED_EDGE ( 'NONE', *, *, #419, .T. ) ;
#499 = ADVANCED_FACE ( 'NONE', ( #564 ), #643, .T. ) ;
#500 = EDGE_CURVE ( 'NONE', #997, #201, #731, .T. ) ;
#501 = VECTOR ( 'NONE', #644, 1000.000000000000000 ) ;
#502 = DIRECTION ( 'NONE',  ( -1.000000000000000000, -0.000000000000000000, -0.000000000000000000 ) ) ;
#503 = DIRECTION ( 'NONE',  ( 1.000000000000000000, 0.000000000000000000, 0.000000000000000000 ) ) ;
#504 = ORIENTED_EDGE ( 'NONE', *, *, #43, .T. ) ;
#505 = LOCAL_TIME ( 17, 4, 15.00000000000000000, #1029 ) ;
#506 = LINE ( 'NONE', #849, #377 ) ;
#507 = CARTESIAN_POINT ( 'NONE',  ( 2.100000000000000089, -8.150000000000000355, 0.000000000000000000 ) ) ;
#508 = DIRECTION ( 'NONE',  ( -0.000000000000000000, -0.000000000000000000, -1.000000000000000000 ) ) ;
#509 = ORIENTED_EDGE ( 'NONE', *, *, #750, .F. ) ;
#510 = DIRECTION ( 'NONE',  ( 1.000000000000000000, 0.000000000000000000, 0.000000000000000000 ) ) ;
#511 = FACE_OUTER_BOUND ( 'NONE', #86, .T. ) ;
#512 = PERSON_AND_ORGANIZATION ( #179, #114 ) ;
#513 = CIRCLE ( 'NONE', #1113, 4.000000000000000000 ) ;
#514 = EDGE_CURVE ( 'NONE', #295, #985, #63, .T. ) ;
#515 = CARTESIAN_POINT ( 'NONE',  ( 2.100000000000000089, -8.150000000000000355, -1.649999999999999911 ) ) ;
#516 = ORIENTED_EDGE ( 'NONE', *, *, #1106, .T. ) ;
#517 = CIRCLE ( 'NONE', #858, 4.000000000000000000 ) ;
#518 = CARTESIAN_POINT ( 'NONE',  ( -8.150000000000000355, -2.100000000000000089, 0.000000000000000000 ) ) ;
#519 = CARTESIAN_POINT ( 'NONE',  ( 4.000000000000000000, 4.898587196589412829E-16, 4.000000000000000000 ) ) ;
#520 = VECTOR ( 'NONE', #842, 1000.000000000000000 ) ;
#521 = DIRECTION ( 'NONE',  ( 1.000000000000000000, 0.000000000000000000, 0.000000000000000000 ) ) ;
#522 = VECTOR ( 'NONE', #190, 1000.000000000000000 ) ;
#523 = DIRECTION ( 'NONE',  ( 1.000000000000000000, 0.000000000000000000, 0.000000000000000000 ) ) ;
#524 = CYLINDRICAL_SURFACE ( 'NONE', #428, 4.000000000000000000 ) ;
#525 = ORIENTED_EDGE ( 'NONE', *, *, #434, .F. ) ;
#526 = EDGE_CURVE ( 'NONE', #618, #934, #517, .T. ) ;
#527 = CARTESIAN_POINT ( 'NONE',  ( 2.100000000000000089, -8.150000000000000355, -1.649999999999999911 ) ) ;
#528 = DIRECTION ( 'NONE',  ( 1.000000000000000000, 0.000000000000000000, 0.000000000000000000 ) ) ;
#529 =( LENGTH_UNIT ( ) NAMED_UNIT ( * ) SI_UNIT ( .MILLI., .METRE. ) );
#530 = DIRECTION ( 'NONE',  ( 0.000000000000000000, 0.000000000000000000, -1.000000000000000000 ) ) ;
#531 = CARTESIAN_POINT ( 'NONE',  ( 0.000000000000000000, 0.000000000000000000, 0.000000000000000000 ) ) ;
#532 = VERTEX_POINT ( 'NONE', #1008 ) ;
#533 = ORIENTED_EDGE ( 'NONE', *, *, #101, .T. ) ;
#534 = CARTESIAN_POINT ( 'NONE',  ( 2.100000000000000089, -3.404408906109840149, -1.649999999999999911 ) ) ;
#535 = DIRECTION ( 'NONE',  ( 0.000000000000000000, 0.000000000000000000, -1.000000000000000000 ) ) ;
#536 = DATE_AND_TIME ( #430, #186 ) ;
#537 = DIRECTION ( 'NONE',  ( 0.000000000000000000, 0.000000000000000000, -1.000000000000000000 ) ) ;
#538 = FACE_BOUND ( 'NONE', #378, .T. ) ;
#539 = ORIENTED_EDGE ( 'NONE', *, *, #362, .F. ) ;
#540 = ORIENTED_EDGE ( 'NONE', *, *, #969, .T. ) ;
#541 = AXIS2_PLACEMENT_3D ( 'NONE', #796, #184, #616 ) ;
#542 = EDGE_CURVE ( 'NONE', #57, #185, #408, .T. ) ;
#543 = CARTESIAN_POINT ( 'NONE',  ( 7.000000000000000000, -7.000000000000000000, 4.000000000000003553 ) ) ;
#544 = FACE_OUTER_BOUND ( 'NONE', #290, .T. ) ;
#545 = ORIENTED_EDGE ( 'NONE', *, *, #884, .T. ) ;
#546 = LINE ( 'NONE', #19, #72 ) ;
#547 = APPROVAL ( #445, 'UNSPECIFIED' ) ;
#548 = AXIS2_PLACEMENT_3D ( 'NONE', #1036, #160, #275 ) ;
#549 = DIRECTION ( 'NONE',  ( -1.000000000000000000, -0.000000000000000000, -0.000000000000000000 ) ) ;
#550 = EDGE_LOOP ( 'NONE', ( #1006, #705, #1082, #853 ) ) ;
#551 = ORIENTED_EDGE ( 'NONE', *, *, #149, .T. ) ;
#552 = DIRECTION ( 'NONE',  ( 0.000000000000000000, 0.000000000000000000, 1.000000000000000000 ) ) ;
#553 = EDGE_CURVE ( 'NONE', #475, #46, #483, .T. ) ;
#554 = DIRECTION ( 'NONE',  ( 1.000000000000000000, 0.000000000000000000, 0.000000000000000000 ) ) ;
#555 = ORIENTED_EDGE ( 'NONE', *, *, #457, .F. ) ;
#556 = DIRECTION ( 'NONE',  ( 0.000000000000000000, 0.000000000000000000, 1.000000000000000000 ) ) ;
#557 = LINE ( 'NONE', #989, #1100 ) ;
#558 = CARTESIAN_POINT ( 'NONE',  ( -3.404408906109840149, 2.100000000000000089, -1.649999999999999911 ) ) ;
#559 = CARTESIAN_POINT ( 'NONE',  ( 2.100000000000000089, 8.150000000000000355, 0.000000000000000000 ) ) ;
#560 = VECTOR ( 'NONE', #727, 1000.000000000000000 ) ;
#561 = AXIS2_PLACEMENT_3D ( 'NONE', #928, #466, #756 ) ;
#562 = ORIENTED_EDGE ( 'NONE', *, *, #247, .T. ) ;
#563 = CC_DESIGN_PERSON_AND_ORGANIZATION_ASSIGNMENT ( #872, #621, ( #833 ) ) ;
#564 = FACE_OUTER_BOUND ( 'NONE', #1001, .T. ) ;
#565 = DIRECTION ( 'NONE',  ( 0.000000000000000000, 0.000000000000000000, 1.000000000000000000 ) ) ;
#566 = CARTESIAN_POINT ( 'NONE',  ( -8.150000000000000355, -2.100000000000000089, -1.649999999999999911 ) ) ;
#567 = EDGE_CURVE ( 'NONE', #131, #1054, #623, .T. ) ;
#568 = ORIENTED_EDGE ( 'NONE', *, *, #286, .T. ) ;
#569 = ADVANCED_FACE ( 'NONE', ( #791, #538, #1053, #866, #544, #892 ), #117, .T. ) ;
#570 = DIRECTION ( 'NONE',  ( 1.000000000000000000, 0.000000000000000000, 0.000000000000000000 ) ) ;
#571 = VERTEX_POINT ( 'NONE', #194 ) ;
#572 = ORIENTED_EDGE ( 'NONE', *, *, #961, .T. ) ;
#573 = VECTOR ( 'NONE', #140, 1000.000000000000000 ) ;
#574 = DIRECTION ( 'NONE',  ( -0.000000000000000000, -0.000000000000000000, -1.000000000000000000 ) ) ;
#575 = AXIS2_PLACEMENT_3D ( 'NONE', #15, #959, #881 ) ;
#576 = ADVANCED_FACE ( 'NONE', ( #21 ), #461, .T. ) ;
#577 = VERTEX_POINT ( 'NONE', #806 ) ;
#578 = VERTEX_POINT ( 'NONE', #977 ) ;
#579 = CIRCLE ( 'NONE', #812, 4.000000000000000000 ) ;
#580 = DIRECTION ( 'NONE',  ( 0.000000000000000000, 0.000000000000000000, -1.000000000000000000 ) ) ;
#581 = DIRECTION ( 'NONE',  ( 0.000000000000000000, 0.000000000000000000, -1.000000000000000000 ) ) ;
#582 = CARTESIAN_POINT ( 'NONE',  ( 2.100000000000000089, 3.404408906109840149, -1.649999999999999911 ) ) ;
#583 = EDGE_LOOP ( 'NONE', ( #494, #441, #745, #653 ) ) ;
#584 = DIRECTION ( 'NONE',  ( -1.000000000000000000, 0.000000000000000000, 0.000000000000000000 ) ) ;
#585 = LINE ( 'NONE', #409, #210 ) ;
#586 = EDGE_CURVE ( 'NONE', #57, #131, #282, .T. ) ;
#587 = ORIENTED_EDGE ( 'NONE', *, *, #645, .T. ) ;
#588 = ADVANCED_FACE ( 'NONE', ( #967 ), #524, .F. ) ;
#589 = CIRCLE ( 'NONE', #10, 1.149999999999999911 ) ;
#590 = DIRECTION ( 'NONE',  ( 0.000000000000000000, 0.000000000000000000, -1.000000000000000000 ) ) ;
#591 = FACE_OUTER_BOUND ( 'NONE', #741, .T. ) ;
#592 = ORIENTED_EDGE ( 'NONE', *, *, #514, .F. ) ;
#593 = CIRCLE ( 'NONE', #250, 4.000000000000000000 ) ;
#594 = DIRECTION ( 'NONE',  ( 0.000000000000000000, 0.000000000000000000, -1.000000000000000000 ) ) ;
#595 = CARTESIAN_POINT ( 'NONE',  ( -13.00000000000000000, 0.000000000000000000, 4.000000000000000000 ) ) ;
#596 = EDGE_LOOP ( 'NONE', ( #258, #459, #735, #516 ) ) ;
#597 = EDGE_CURVE ( 'NONE', #657, #469, #674, .T. ) ;
#598 = DIRECTION ( 'NONE',  ( 0.000000000000000000, 1.000000000000000000, 0.000000000000000000 ) ) ;
#599 = CARTESIAN_POINT ( 'NONE',  ( -8.150000000000000355, 0.000000000000000000, 0.000000000000000000 ) ) ;
#600 = PERSON_AND_ORGANIZATION ( #179, #114 ) ;
#601 = CARTESIAN_POINT ( 'NONE',  ( -7.000000000000000000, -7.000000000000000000, -1.650000000000000355 ) ) ;
#602 = VERTEX_POINT ( 'NONE', #781 ) ;
#603 = PLANE ( 'NONE',  #37 ) ;
#604 = DIRECTION ( 'NONE',  ( 0.000000000000000000, -0.000000000000000000, 1.000000000000000000 ) ) ;
#605 = APPROVAL_DATE_TIME ( #686, #982 ) ;
#606 = VECTOR ( 'NONE', #652, 1000.000000000000000 ) ;
#607 = CARTESIAN_POINT ( 'NONE',  ( 7.000000000000000000, -7.000000000000000000, 4.000000000000003553 ) ) ;
#608 = ADVANCED_FACE ( 'NONE', ( #106 ), #270, .T. ) ;
#609 = FACE_OUTER_BOUND ( 'NONE', #231, .T. ) ;
#610 = ORIENTED_EDGE ( 'NONE', *, *, #1020, .F. ) ;
#611 = CYLINDRICAL_SURFACE ( 'NONE', #431, 1.150000000000000799 ) ;
#612 = CARTESIAN_POINT ( 'NONE',  ( 7.000000000000000000, -7.000000000000000000, 4.000000000000003553 ) ) ;
#613 = PERSON_AND_ORGANIZATION ( #179, #114 ) ;
#614 = AXIS2_PLACEMENT_3D ( 'NONE', #429, #248, #619 ) ;
#615 = DIRECTION ( 'NONE',  ( 1.000000000000000000, 0.000000000000000000, 0.000000000000000000 ) ) ;
#616 = DIRECTION ( 'NONE',  ( -1.000000000000000000, 0.000000000000000000, -0.000000000000000000 ) ) ;
#617 = ORIENTED_EDGE ( 'NONE', *, *, #326, .T. ) ;
#618 = VERTEX_POINT ( 'NONE', #363 ) ;
#619 = DIRECTION ( 'NONE',  ( -1.000000000000000000, 0.000000000000000000, 0.000000000000000000 ) ) ;
#620 = DIRECTION ( 'NONE',  ( 0.000000000000000000, 0.000000000000000000, -1.000000000000000000 ) ) ;
#621 = PERSON_AND_ORGANIZATION_ROLE ( 'classification_officer' ) ;
#622 = DIRECTION ( 'NONE',  ( -0.000000000000000000, -0.000000000000000000, 1.000000000000000000 ) ) ;
#623 = LINE ( 'NONE', #703, #336 ) ;
#624 = EDGE_LOOP ( 'NONE', ( #775, #141 ) ) ;
#625 = EDGE_CURVE ( 'NONE', #131, #462, #138, .T. ) ;
#626 = ADVANCED_FACE ( 'NONE', ( #630 ), #176, .F. ) ;
#627 =( NAMED_UNIT ( * ) SI_UNIT ( $, .STERADIAN. ) SOLID_ANGLE_UNIT ( ) );
#628 = FACE_OUTER_BOUND ( 'NONE', #28, .T. ) ;
#629 = CIRCLE ( 'NONE', #284, 1.150000000000000799 ) ;
#630 = FACE_OUTER_BOUND ( 'NONE', #370, .T. ) ;
#631 = ORIENTED_EDGE ( 'NONE', *, *, #908, .T. ) ;
#632 = AXIS2_PLACEMENT_3D ( 'NONE', #127, #473, #816 ) ;
#633 = PRODUCT_RELATED_PRODUCT_CATEGORY ( 'detail', '', ( #1123 ) ) ;
#634 = CYLINDRICAL_SURFACE ( 'NONE', #360, 2.100000000000000977 ) ;
#635 = CARTESIAN_POINT ( 'NONE',  ( 5.849999999999999645, -7.000000000000000000, 4.000000000000003553 ) ) ;
#636 = ORIENTED_EDGE ( 'NONE', *, *, #147, .T. ) ;
#637 = EDGE_CURVE ( 'NONE', #1084, #346, #81, .T. ) ;
#638 = DIRECTION ( 'NONE',  ( -1.000000000000000000, 0.000000000000000000, 0.000000000000000000 ) ) ;
#639 = AXIS2_PLACEMENT_3D ( 'NONE', #343, #620, #832 ) ;
#640 = DIRECTION ( 'NONE',  ( 1.000000000000000000, 0.000000000000000000, 0.000000000000000000 ) ) ;
#641 = ORIENTED_EDGE ( 'NONE', *, *, #951, .F. ) ;
#642 = ORIENTED_EDGE ( 'NONE', *, *, #918, .F. ) ;
#643 = PLANE ( 'NONE',  #632 ) ;
#644 = DIRECTION ( 'NONE',  ( 0.000000000000000000, 1.000000000000000000, 0.000000000000000000 ) ) ;
#645 = EDGE_CURVE ( 'NONE', #93, #47, #972, .T. ) ;
#646 = DIRECTION ( 'NONE',  ( 0.000000000000000000, -0.000000000000000000, -1.000000000000000000 ) ) ;
#647 = ORIENTED_EDGE ( 'NONE', *, *, #470, .T. ) ;
#648 = CARTESIAN_POINT ( 'NONE',  ( 4.000000000000000000, 4.898587196589412829E-16, 0.000000000000000000 ) ) ;
#649 = CYLINDRICAL_SURFACE ( 'NONE', #1049, 13.00000000000000000 ) ;
#650 = CARTESIAN_POINT ( 'NONE',  ( 0.000000000000000000, 0.000000000000000000, 0.000000000000000000 ) ) ;
#651 = ORIENTED_EDGE ( 'NONE', *, *, #907, .T. ) ;
#652 = DIRECTION ( 'NONE',  ( -0.000000000000000000, -0.000000000000000000, -1.000000000000000000 ) ) ;
#653 = ORIENTED_EDGE ( 'NONE', *, *, #637, .T. ) ;
#654 = ORIENTED_EDGE ( 'NONE', *, *, #202, .T. ) ;
#655 = EDGE_CURVE ( 'NONE', #979, #402, #802, .T. ) ;
#656 = DIRECTION ( 'NONE',  ( 1.000000000000000000, 0.000000000000000000, 0.000000000000000000 ) ) ;
#657 = VERTEX_POINT ( 'NONE', #99 ) ;
#658 = ORIENTED_EDGE ( 'NONE', *, *, #66, .T. ) ;
#659 = CIRCLE ( 'NONE', #80, 1.149999999999999911 ) ;
#660 = CARTESIAN_POINT ( 'NONE',  ( 0.000000000000000000, 0.000000000000000000, 0.000000000000000000 ) ) ;
#661 = PLANE ( 'NONE',  #698 ) ;
#662 = VERTEX_POINT ( 'NONE', #635 ) ;
#663 = AXIS2_PLACEMENT_3D ( 'NONE', #418, #836, #491 ) ;
#664 = DIRECTION ( 'NONE',  ( 0.000000000000000000, 0.000000000000000000, 1.000000000000000000 ) ) ;
#665 = ADVANCED_FACE ( 'NONE', ( #609 ), #953, .F. ) ;
#666 = DIRECTION ( 'NONE',  ( 1.000000000000000000, 0.000000000000000000, 0.000000000000000000 ) ) ;
#667 = PRODUCT_DEFINITION ( 'UNKNOWN', '', #161, #1102 ) ;
#668 = ORIENTED_EDGE ( 'NONE', *, *, #771, .T. ) ;
#669 = FACE_BOUND ( 'NONE', #40, .T. ) ;
#670 = DIRECTION ( 'NONE',  ( -1.000000000000000000, 0.000000000000000000, 0.000000000000000000 ) ) ;
#671 = ORIENTED_EDGE ( 'NONE', *, *, #655, .T. ) ;
#672 = CARTESIAN_POINT ( 'NONE',  ( 8.150000000000000355, -2.100000000000000977, 0.000000000000000000 ) ) ;
#673 = CARTESIAN_POINT ( 'NONE',  ( -8.150000000000000355, 2.100000000000000089, -1.649999999999999911 ) ) ;
#674 = CIRCLE ( 'NONE', #1063, 1.150000000000000799 ) ;
#675 = EDGE_LOOP ( 'NONE', ( #213, #839, #1112, #273 ) ) ;
#676 = EDGE_CURVE ( 'NONE', #1054, #185, #388, .T. ) ;
#677 = CARTESIAN_POINT ( 'NONE',  ( -5.850000000000000533, -7.000000000000000000, 4.000000000000003553 ) ) ;
#678 = DIRECTION ( 'NONE',  ( 0.000000000000000000, 0.000000000000000000, 1.000000000000000000 ) ) ;
#679 = APPROVAL_STATUS ( 'not_yet_approved' ) ;
#680 = CARTESIAN_POINT ( 'NONE',  ( -5.850000000000000533, -7.000000000000000000, 4.000000000000003553 ) ) ;
#681 = ORIENTED_EDGE ( 'NONE', *, *, #840, .F. ) ;
#682 = AXIS2_PLACEMENT_3D ( 'NONE', #1042, #863, #768 ) ;
#683 = EDGE_CURVE ( 'NONE', #985, #41, #593, .T. ) ;
#684 = CARTESIAN_POINT ( 'NONE',  ( 3.404408906109840149, 2.100000000000000089, -1.649999999999999911 ) ) ;
#685 = CARTESIAN_POINT ( 'NONE',  ( 8.150000000000000355, 0.000000000000000000, -1.649999999999999911 ) ) ;
#686 = DATE_AND_TIME ( #255, #505 ) ;
#687 = CARTESIAN_POINT ( 'NONE',  ( 3.404408906109840149, -2.100000000000000089, -1.649999999999999911 ) ) ;
#688 = ORIENTED_EDGE ( 'NONE', *, *, #387, .T. ) ;
#689 = DIRECTION ( 'NONE',  ( 0.000000000000000000, 0.000000000000000000, -1.000000000000000000 ) ) ;
#690 = AXIS2_PLACEMENT_3D ( 'NONE', #601, #945, #763 ) ;
#691 = CARTESIAN_POINT ( 'NONE',  ( -8.150000000000000355, -7.000000000000000000, -1.650000000000000355 ) ) ;
#692 = PERSON_AND_ORGANIZATION_ROLE ( 'design_owner' ) ;
#693 = FACE_OUTER_BOUND ( 'NONE', #867, .T. ) ;
#694 = DIRECTION ( 'NONE',  ( -0.000000000000000000, -0.000000000000000000, -1.000000000000000000 ) ) ;
#695 = ORIENTED_EDGE ( 'NONE', *, *, #975, .T. ) ;
#696 = CARTESIAN_POINT ( 'NONE',  ( 2.100000000000000089, -3.404408906109840149, 0.000000000000000000 ) ) ;
#697 = DIRECTION ( 'NONE',  ( -1.000000000000000000, 0.000000000000000000, 0.000000000000000000 ) ) ;
#698 = AXIS2_PLACEMENT_3D ( 'NONE', #1011, #55, #646 ) ;
#699 = PERSON_AND_ORGANIZATION_ROLE ( 'creator' ) ;
#700 = AXIS2_PLACEMENT_3D ( 'NONE', #11, #102, #1027 ) ;
#701 = EDGE_CURVE ( 'NONE', #335, #402, #995, .T. ) ;
#702 = CARTESIAN_POINT ( 'NONE',  ( 0.000000000000000000, 0.000000000000000000, 4.000000000000000000 ) ) ;
#703 = CARTESIAN_POINT ( 'NONE',  ( -8.150000000000000355, 2.100000000000000089, 0.000000000000000000 ) ) ;
#704 = EDGE_CURVE ( 'NONE', #973, #835, #272, .T. ) ;
#705 = ORIENTED_EDGE ( 'NONE', *, *, #434, .T. ) ;
#706 = VECTOR ( 'NONE', #198, 1000.000000000000000 ) ;
#707 = DIRECTION ( 'NONE',  ( 0.000000000000000000, 0.000000000000000000, 1.000000000000000000 ) ) ;
#708 = DIRECTION ( 'NONE',  ( 0.000000000000000000, 0.000000000000000000, 1.000000000000000000 ) ) ;
#709 = ORIENTED_EDGE ( 'NONE', *, *, #49, .T. ) ;
#710 = ORIENTED_EDGE ( 'NONE', *, *, #586, .F. ) ;
#711 = APPROVAL_DATE_TIME ( #730, #547 ) ;
#712 = CARTESIAN_POINT ( 'NONE',  ( -2.100000000000000089, 3.404408906109840149, 0.000000000000000000 ) ) ;
#713 = CIRCLE ( 'NONE', #369, 1.150000000000000799 ) ;
#714 = CARTESIAN_POINT ( 'NONE',  ( -2.100000000000000089, -8.150000000000000355, -1.649999999999999911 ) ) ;
#715 = ORIENTED_EDGE ( 'NONE', *, *, #43, .F. ) ;
#716 = ORIENTED_EDGE ( 'NONE', *, *, #168, .F. ) ;
#717 = ADVANCED_FACE ( 'NONE', ( #73, #669, #219, #922, #121, #143 ), #474, .F. ) ;
#718 = AXIS2_PLACEMENT_3D ( 'NONE', #374, #694, #721 ) ;
#719 = DIRECTION ( 'NONE',  ( -0.000000000000000000, -0.000000000000000000, -1.000000000000000000 ) ) ;
#720 = AXIS2_PLACEMENT_3D ( 'NONE', #1098, #1081, #818 ) ;
#721 = DIRECTION ( 'NONE',  ( 1.000000000000000000, 0.000000000000000000, 0.000000000000000000 ) ) ;
#722 = VERTEX_POINT ( 'NONE', #68 ) ;
#723 = ADVANCED_FACE ( 'NONE', ( #306 ), #496, .T. ) ;
#724 = LINE ( 'NONE', #1073, #227 ) ;
#725 = LOCAL_TIME ( 17, 4, 15.00000000000000000, #103 ) ;
#726 = LINE ( 'NONE', #300, #109 ) ;
#727 = DIRECTION ( 'NONE',  ( -0.000000000000000000, -1.000000000000000000, -0.000000000000000000 ) ) ;
#728 = DIRECTION ( 'NONE',  ( 0.000000000000000000, 0.000000000000000000, -1.000000000000000000 ) ) ;
#729 = ORIENTED_EDGE ( 'NONE', *, *, #482, .T. ) ;
#730 = DATE_AND_TIME ( #472, #725 ) ;
#731 = LINE ( 'NONE', #48, #971 ) ;
#732 = CARTESIAN_POINT ( 'NONE',  ( 0.000000000000000000, 0.000000000000000000, 4.000000000000000000 ) ) ;
#733 = ORIENTED_EDGE ( 'NONE', *, *, #739, .F. ) ;
#734 = AXIS2_PLACEMENT_3D ( 'NONE', #607, #1105, #257 ) ;
#735 = ORIENTED_EDGE ( 'NONE', *, *, #739, .T. ) ;
#736 = CARTESIAN_POINT ( 'NONE',  ( -8.150000000000000355, 0.000000000000000000, 0.000000000000000000 ) ) ;
#737 = ORIENTED_EDGE ( 'NONE', *, *, #683, .F. ) ;
#738 = LINE ( 'NONE', #559, #438 ) ;
#739 = EDGE_CURVE ( 'NONE', #722, #577, #557, .T. ) ;
#740 = AXIS2_PLACEMENT_3D ( 'NONE', #948, #76, #1041 ) ;
#741 = EDGE_LOOP ( 'NONE', ( #148, #636, #454, #296, #479, #215, #1101, #209, #302, #122, #71, #681 ) ) ;
#742 = CARTESIAN_POINT ( 'NONE',  ( -2.100000000000000089, 3.404408906109841038, -1.649999999999999911 ) ) ;
#743 = CARTESIAN_POINT ( 'NONE',  ( -8.150000000000000355, 7.000000000000000000, 4.000000000000003553 ) ) ;
#744 = AXIS2_PLACEMENT_3D ( 'NONE', #382, #728, #1077 ) ;
#745 = ORIENTED_EDGE ( 'NONE', *, *, #187, .T. ) ;
#746 = DIRECTION ( 'NONE',  ( -1.000000000000000000, 0.000000000000000000, 0.000000000000000000 ) ) ;
#747 = DIRECTION ( 'NONE',  ( 1.000000000000000000, 0.000000000000000000, 0.000000000000000000 ) ) ;
#748 = CYLINDRICAL_SURFACE ( 'NONE', #744, 1.150000000000000799 ) ;
#749 = EDGE_LOOP ( 'NONE', ( #829, #568, #278, #533 ) ) ;
#750 = EDGE_CURVE ( 'NONE', #130, #898, #1075, .T. ) ;
#751 = DIRECTION ( 'NONE',  ( 0.000000000000000000, 0.000000000000000000, -1.000000000000000000 ) ) ;
#752 = DIRECTION ( 'NONE',  ( 0.000000000000000000, 0.000000000000000000, -1.000000000000000000 ) ) ;
#753 = DIRECTION ( 'NONE',  ( 1.000000000000000000, 0.000000000000000000, 0.000000000000000000 ) ) ;
#754 = ORIENTED_EDGE ( 'NONE', *, *, #419, .F. ) ;
#755 = AXIS2_PLACEMENT_3D ( 'NONE', #913, #565, #747 ) ;
#756 = DIRECTION ( 'NONE',  ( 1.000000000000000000, 0.000000000000000000, 0.000000000000000000 ) ) ;
#757 = VECTOR ( 'NONE', #780, 1000.000000000000000 ) ;
#758 = CC_DESIGN_PERSON_AND_ORGANIZATION_ASSIGNMENT ( #613, #266, ( #161 ) ) ;
#759 = LINE ( 'NONE', #261, #1079 ) ;
#760 = ORIENTED_EDGE ( 'NONE', *, *, #168, .T. ) ;
#761 = CARTESIAN_POINT ( 'NONE',  ( -8.150000000000000355, 7.000000000000000000, -1.650000000000000355 ) ) ;
#762 = EDGE_CURVE ( 'NONE', #185, #152, #902, .T. ) ;
#763 = DIRECTION ( 'NONE',  ( 1.000000000000000000, 0.000000000000000000, 0.000000000000000000 ) ) ;
#764 = VERTEX_POINT ( 'NONE', #62 ) ;
#765 = AXIS2_PLACEMENT_3D ( 'NONE', #1067, #1044, #952 ) ;
#766 = CIRCLE ( 'NONE', #854, 4.000000000000000000 ) ;
#767 = FACE_OUTER_BOUND ( 'NONE', #480, .T. ) ;
#768 = DIRECTION ( 'NONE',  ( 1.000000000000000000, 0.000000000000000000, 0.000000000000000000 ) ) ;
#769 = DIRECTION ( 'NONE',  ( 0.000000000000000000, 0.000000000000000000, 1.000000000000000000 ) ) ;
#770 = ORIENTED_EDGE ( 'NONE', *, *, #784, .F. ) ;
#771 = EDGE_CURVE ( 'NONE', #577, #571, #885, .T. ) ;
#772 = CARTESIAN_POINT ( 'NONE',  ( -10.25000000000000178, 0.000000000000000000, 0.000000000000000000 ) ) ;
#773 = DIRECTION ( 'NONE',  ( 0.000000000000000000, 0.000000000000000000, 1.000000000000000000 ) ) ;
#774 = DIRECTION ( 'NONE',  ( -1.000000000000000000, 0.000000000000000000, -0.000000000000000000 ) ) ;
#775 = ORIENTED_EDGE ( 'NONE', *, *, #908, .F. ) ;
#776 = CIRCLE ( 'NONE', #548, 2.100000000000000089 ) ;
#777 = DIRECTION ( 'NONE',  ( -0.000000000000000000, -0.000000000000000000, -1.000000000000000000 ) ) ;
#778 = DIRECTION ( 'NONE',  ( 0.000000000000000000, 0.000000000000000000, -1.000000000000000000 ) ) ;
#779 = PERSON_AND_ORGANIZATION ( #179, #114 ) ;
#780 = DIRECTION ( 'NONE',  ( -0.000000000000000000, -0.000000000000000000, 1.000000000000000000 ) ) ;
#781 = CARTESIAN_POINT ( 'NONE',  ( 13.00000000000000000, 1.592040838891559095E-15, 4.000000000000000000 ) ) ;
#782 = EDGE_LOOP ( 'NONE', ( #156, #799 ) ) ;
#783 = CIRCLE ( 'NONE', #416, 13.00000000000000000 ) ;
#784 = EDGE_CURVE ( 'NONE', #390, #1118, #983, .T. ) ;
#785 = CARTESIAN_POINT ( 'NONE',  ( -5.850000000000000533, -7.000000000000000000, -1.650000000000000355 ) ) ;
#786 = CIRCLE ( 'NONE', #447, 4.000000000000000000 ) ;
#787 = CARTESIAN_POINT ( 'NONE',  ( -7.000000000000000000, 7.000000000000000000, 4.000000000000003553 ) ) ;
#788 = APPROVAL_ROLE ( '' ) ;
#789 = ADVANCED_FACE ( 'NONE', ( #407 ), #649, .T. ) ;
#790 = CYLINDRICAL_SURFACE ( 'NONE', #798, 1.150000000000000799 ) ;
#791 = FACE_BOUND ( 'NONE', #476, .T. ) ;
#792 = ORIENTED_EDGE ( 'NONE', *, *, #1104, .T. ) ;
#793 = CARTESIAN_POINT ( 'NONE',  ( 5.849999999999999645, -7.000000000000000000, 4.000000000000003553 ) ) ;
#794 = VECTOR ( 'NONE', #777, 1000.000000000000000 ) ;
#795 = DIRECTION ( 'NONE',  ( -1.000000000000000000, 0.000000000000000000, 0.000000000000000000 ) ) ;
#796 = CARTESIAN_POINT ( 'NONE',  ( 0.000000000000000000, 0.000000000000000000, 0.000000000000000000 ) ) ;
#797 = ORIENTED_EDGE ( 'NONE', *, *, #801, .T. ) ;
#798 = AXIS2_PLACEMENT_3D ( 'NONE', #543, #537, #350 ) ;
#799 = ORIENTED_EDGE ( 'NONE', *, *, #1104, .F. ) ;
#800 = CARTESIAN_POINT ( 'NONE',  ( 8.150000000000000355, 0.000000000000000000, 0.000000000000000000 ) ) ;
#801 = EDGE_CURVE ( 'NONE', #1032, #1017, #935, .T. ) ;
#802 = LINE ( 'NONE', #714, #372 ) ;
#803 = ORIENTED_EDGE ( 'NONE', *, *, #271, .T. ) ;
#804 = ORIENTED_EDGE ( 'NONE', *, *, #67, .T. ) ;
#805 = CARTESIAN_POINT ( 'NONE',  ( 2.100000000000000089, 3.404408906109840149, 0.000000000000000000 ) ) ;
#806 = CARTESIAN_POINT ( 'NONE',  ( 2.100000000000000089, 8.150000000000000355, 0.000000000000000000 ) ) ;
#807 = EDGE_LOOP ( 'NONE', ( #899, #797, #236, #364, #710, #894, #100, #876, #368, #737, #592, #539 ) ) ;
#808 = ORIENTED_EDGE ( 'NONE', *, *, #1022, .T. ) ;
#809 = EDGE_CURVE ( 'NONE', #46, #475, #177, .T. ) ;
#810 = AXIS2_PLACEMENT_3D ( 'NONE', #249, #939, #857 ) ;
#811 = DIRECTION ( 'NONE',  ( 0.000000000000000000, 0.000000000000000000, -1.000000000000000000 ) ) ;
#812 = AXIS2_PLACEMENT_3D ( 'NONE', #243, #931, #153 ) ;
#813 = CARTESIAN_POINT ( 'NONE',  ( 7.000000000000000000, 7.000000000000000000, 4.000000000000003553 ) ) ;
#814 = DIRECTION ( 'NONE',  ( 0.000000000000000000, 0.000000000000000000, -1.000000000000000000 ) ) ;
#815 = MANIFOLD_SOLID_BREP ( 'Hub_clearance_in_key_boss_only', #125 ) ;
#816 = DIRECTION ( 'NONE',  ( 0.000000000000000000, 0.000000000000000000, -1.000000000000000000 ) ) ;
#817 = LOCAL_TIME ( 17, 4, 15.00000000000000000, #173 ) ;
#818 = DIRECTION ( 'NONE',  ( 1.000000000000000000, 0.000000000000000000, -0.000000000000000000 ) ) ;
#819 = ORIENTED_EDGE ( 'NONE', *, *, #202, .F. ) ;
#820 = FACE_OUTER_BOUND ( 'NONE', #1000, .T. ) ;
#821 = ORIENTED_EDGE ( 'NONE', *, *, #241, .T. ) ;
#822 = EDGE_CURVE ( 'NONE', #898, #93, #579, .T. ) ;
#823 = CARTESIAN_POINT ( 'NONE',  ( -4.000000000000000000, 0.000000000000000000, 0.000000000000000000 ) ) ;
#824 = EDGE_CURVE ( 'NONE', #578, #295, #39, .T. ) ;
#825 = ORIENTED_EDGE ( 'NONE', *, *, #991, .F. ) ;
#826 = EDGE_LOOP ( 'NONE', ( #279, #246, #642, #658, #365 ) ) ;
#827 = LINE ( 'NONE', #58, #573 ) ;
#828 = FACE_OUTER_BOUND ( 'NONE', #359, .T. ) ;
#829 = ORIENTED_EDGE ( 'NONE', *, *, #645, .F. ) ;
#830 = FACE_OUTER_BOUND ( 'NONE', #108, .T. ) ;
#831 = LINE ( 'NONE', #467, #900 ) ;
#832 = DIRECTION ( 'NONE',  ( -1.000000000000000000, 0.000000000000000000, -0.000000000000000000 ) ) ;
#833 = SECURITY_CLASSIFICATION ( '', '', #166 ) ;
#834 = EDGE_CURVE ( 'NONE', #1118, #201, #726, .T. ) ;
#835 = VERTEX_POINT ( 'NONE', #761 ) ;
#836 = DIRECTION ( 'NONE',  ( 0.000000000000000000, 0.000000000000000000, -1.000000000000000000 ) ) ;
#837 = CARTESIAN_POINT ( 'NONE',  ( 7.000000000000000000, 7.000000000000000000, 4.000000000000003553 ) ) ;
#838 = LINE ( 'NONE', #680, #986 ) ;
#839 = ORIENTED_EDGE ( 'NONE', *, *, #701, .T. ) ;
#840 = EDGE_CURVE ( 'NONE', #1017, #462, #1120, .T. ) ;
#841 = CARTESIAN_POINT ( 'NONE',  ( -8.150000000000000355, 2.100000000000000089, 0.000000000000000000 ) ) ;
#842 = DIRECTION ( 'NONE',  ( 0.000000000000000000, 0.000000000000000000, -1.000000000000000000 ) ) ;
#843 = VERTEX_POINT ( 'NONE', #82 ) ;
#844 = CIRCLE ( 'NONE', #324, 1.149999999999999911 ) ;
#845 = DIRECTION ( 'NONE',  ( 1.000000000000000000, 0.000000000000000000, 0.000000000000000000 ) ) ;
#846 = VECTOR ( 'NONE', #293, 1000.000000000000000 ) ;
#847 = LINE ( 'NONE', #1019, #391 ) ;
#848 = ORIENTED_EDGE ( 'NONE', *, *, #337, .T. ) ;
#849 = CARTESIAN_POINT ( 'NONE',  ( 8.150000000000000355, 7.000000000000000000, 4.000000000000003553 ) ) ;
#850 = MECHANICAL_CONTEXT ( 'NONE', #933, 'mechanical' ) ;
#851 = CARTESIAN_POINT ( 'NONE',  ( -2.100000000000000089, 8.150000000000000355, 0.000000000000000000 ) ) ;
#852 = ADVANCED_FACE ( 'NONE', ( #88 ), #870, .F. ) ;
#853 = ORIENTED_EDGE ( 'NONE', *, *, #1051, .F. ) ;
#854 = AXIS2_PLACEMENT_3D ( 'NONE', #311, #909, #570 ) ;
#855 = CARTESIAN_POINT ( 'NONE',  ( -2.100000000000000089, 8.150000000000000355, -1.649999999999999911 ) ) ;
#856 = PLANE ( 'NONE',  #639 ) ;
#857 = DIRECTION ( 'NONE',  ( 1.000000000000000000, 0.000000000000000000, 0.000000000000000000 ) ) ;
#858 = AXIS2_PLACEMENT_3D ( 'NONE', #660, #320, #923 ) ;
#859 = CC_DESIGN_PERSON_AND_ORGANIZATION_ASSIGNMENT ( #600, #950, ( #161 ) ) ;
#860 = ORIENTED_EDGE ( 'NONE', *, *, #822, .T. ) ;
#861 = CIRCLE ( 'NONE', #376, 4.000000000000000000 ) ;
#862 = DIRECTION ( 'NONE',  ( -0.000000000000000000, 1.000000000000000000, 0.000000000000000000 ) ) ;
#863 = DIRECTION ( 'NONE',  ( 0.000000000000000000, 0.000000000000000000, 1.000000000000000000 ) ) ;
#864 = APPROVAL_STATUS ( 'not_yet_approved' ) ;
#865 = DIRECTION ( 'NONE',  ( -0.000000000000000000, -0.000000000000000000, -1.000000000000000000 ) ) ;
#866 = FACE_BOUND ( 'NONE', #1089, .T. ) ;
#867 = EDGE_LOOP ( 'NONE', ( #968, #668, #251, #195 ) ) ;
#868 = EDGE_CURVE ( 'NONE', #322, #973, #338, .T. ) ;
#869 = CC_DESIGN_PERSON_AND_ORGANIZATION_ASSIGNMENT ( #779, #692, ( #1123 ) ) ;
#870 = CYLINDRICAL_SURFACE ( 'NONE', #614, 1.150000000000000799 ) ;
#871 = DIRECTION ( 'NONE',  ( 1.000000000000000000, -0.000000000000000000, 0.000000000000000000 ) ) ;
#872 = PERSON_AND_ORGANIZATION ( #179, #114 ) ;
#873 = FACE_OUTER_BOUND ( 'NONE', #417, .T. ) ;
#874 = CARTESIAN_POINT ( 'NONE',  ( -8.150000000000000355, 0.000000000000000000, 0.000000000000000000 ) ) ;
#875 = EDGE_LOOP ( 'NONE', ( #118, #9, #397, #715 ) ) ;
#876 = ORIENTED_EDGE ( 'NONE', *, *, #136, .F. ) ;
#877 = LINE ( 'NONE', #1023, #291 ) ;
#878 = CARTESIAN_POINT ( 'NONE',  ( -2.100000000000000089, -8.150000000000000355, 0.000000000000000000 ) ) ;
#879 = DATE_AND_TIME ( #1122, #817 ) ;
#880 = DIRECTION ( 'NONE',  ( 1.000000000000000000, 0.000000000000000000, 0.000000000000000000 ) ) ;
#881 = DIRECTION ( 'NONE',  ( 1.000000000000000000, 0.000000000000000000, -0.000000000000000000 ) ) ;
#882 = VERTEX_POINT ( 'NONE', #677 ) ;
#883 = ORIENTED_EDGE ( 'NONE', *, *, #337, .F. ) ;
#884 = EDGE_CURVE ( 'NONE', #41, #237, #259, .T. ) ;
#885 = CIRCLE ( 'NONE', #126, 2.100000000000000089 ) ;
#886 = FACE_OUTER_BOUND ( 'NONE', #583, .T. ) ;
#887 = DIRECTION ( 'NONE',  ( 1.000000000000000000, 0.000000000000000000, 0.000000000000000000 ) ) ;
#888 = ORIENTED_EDGE ( 'NONE', *, *, #868, .F. ) ;
#889 = ORIENTED_EDGE ( 'NONE', *, *, #1119, .T. ) ;
#890 = CIRCLE ( 'NONE', #682, 2.100000000000000089 ) ;
#891 = CYLINDRICAL_SURFACE ( 'NONE', #20, 1.150000000000000799 ) ;
#892 = FACE_BOUND ( 'NONE', #123, .T. ) ;
#893 = ADVANCED_FACE ( 'NONE', ( #956 ), #937, .F. ) ;
#894 = ORIENTED_EDGE ( 'NONE', *, *, #470, .F. ) ;
#895 = AXIS2_PLACEMENT_3D ( 'NONE', #702, #719, #795 ) ;
#896 = CARTESIAN_POINT ( 'NONE',  ( 7.000000000000000000, 7.000000000000000000, -1.650000000000000355 ) ) ;
#897 = DIRECTION ( 'NONE',  ( -1.000000000000000000, 0.000000000000000000, 0.000000000000000000 ) ) ;
#898 = VERTEX_POINT ( 'NONE', #534 ) ;
#899 = ORIENTED_EDGE ( 'NONE', *, *, #147, .F. ) ;
#900 = VECTOR ( 'NONE', #814, 1000.000000000000000 ) ;
#901 = DIRECTION ( 'NONE',  ( 1.000000000000000000, 0.000000000000000000, 0.000000000000000000 ) ) ;
#902 = CIRCLE ( 'NONE', #155, 2.100000000000000089 ) ;
#903 = DIRECTION ( 'NONE',  ( 0.000000000000000000, 0.000000000000000000, 1.000000000000000000 ) ) ;
#904 = DIRECTION ( 'NONE',  ( 0.000000000000000000, 0.000000000000000000, 1.000000000000000000 ) ) ;
#905 = DIRECTION ( 'NONE',  ( 0.000000000000000000, 0.000000000000000000, -1.000000000000000000 ) ) ;
#906 = ORIENTED_EDGE ( 'NONE', *, *, #1072, .T. ) ;
#907 = EDGE_CURVE ( 'NONE', #984, #152, #1115, .T. ) ;
#908 = EDGE_CURVE ( 'NONE', #107, #532, #453, .T. ) ;
#909 = DIRECTION ( 'NONE',  ( 0.000000000000000000, 0.000000000000000000, 1.000000000000000000 ) ) ;
#910 = ORIENTED_EDGE ( 'NONE', *, *, #187, .F. ) ;
#911 = ORIENTED_EDGE ( 'NONE', *, *, #704, .F. ) ;
#912 = CARTESIAN_POINT ( 'NONE',  ( 2.100000000000000089, -8.150000000000000355, 0.000000000000000000 ) ) ;
#913 = CARTESIAN_POINT ( 'NONE',  ( 0.000000000000000000, 0.000000000000000000, -1.649999999999999911 ) ) ;
#914 = AXIS2_PLACEMENT_3D ( 'NONE', #966, #865, #615 ) ;
#915 = ORIENTED_EDGE ( 'NONE', *, *, #158, .T. ) ;
#916 = AXIS2_PLACEMENT_3D ( 'NONE', #874, #352, #367 ) ;
#917 = CARTESIAN_POINT ( 'NONE',  ( 3.404408906109840149, -2.100000000000000089, 0.000000000000000000 ) ) ;
#918 = EDGE_CURVE ( 'NONE', #427, #921, #171, .T. ) ;
#919 = VERTEX_POINT ( 'NONE', #785 ) ;
#920 = VECTOR ( 'NONE', #938, 1000.000000000000000 ) ;
#921 = VERTEX_POINT ( 'NONE', #672 ) ;
#922 = FACE_BOUND ( 'NONE', #1013, .T. ) ;
#923 = DIRECTION ( 'NONE',  ( 1.000000000000000000, 0.000000000000000000, 0.000000000000000000 ) ) ;
#924 = LINE ( 'NONE', #743, #269 ) ;
#925 =( GEOMETRIC_REPRESENTATION_CONTEXT ( 3 ) GLOBAL_UNCERTAINTY_ASSIGNED_CONTEXT ( ( #411 ) ) GLOBAL_UNIT_ASSIGNED_CONTEXT ( ( #529, #90, #627 ) ) REPRESENTATION_CONTEXT ( 'NONE', 'WORKASPACE' ) );
#926 = ADVANCED_FACE ( 'NONE', ( #767 ), #611, .F. ) ;
#927 = ORIENTED_EDGE ( 'NONE', *, *, #637, .F. ) ;
#928 = CARTESIAN_POINT ( 'NONE',  ( 0.000000000000000000, 0.000000000000000000, 4.000000000000000000 ) ) ;
#929 = FACE_OUTER_BOUND ( 'NONE', #1059, .T. ) ;
#930 = ORIENTED_EDGE ( 'NONE', *, *, #834, .F. ) ;
#931 = DIRECTION ( 'NONE',  ( 0.000000000000000000, 0.000000000000000000, 1.000000000000000000 ) ) ;
#932 = CYLINDRICAL_SURFACE ( 'NONE', #895, 4.000000000000000000 ) ;
#933 = APPLICATION_CONTEXT ( 'configuration controlled 3d designs of mechanical parts and assemblies' ) ;
#934 = VERTEX_POINT ( 'NONE', #696 ) ;
#935 = CIRCLE ( 'NONE', #561, 4.000000000000000000 ) ;
#936 = EDGE_CURVE ( 'NONE', #921, #578, #955, .T. ) ;
#937 = CYLINDRICAL_SURFACE ( 'NONE', #310, 1.150000000000000799 ) ;
#938 = DIRECTION ( 'NONE',  ( 0.000000000000000000, 0.000000000000000000, -1.000000000000000000 ) ) ;
#939 = DIRECTION ( 'NONE',  ( 0.000000000000000000, 0.000000000000000000, 1.000000000000000000 ) ) ;
#940 = ORIENTED_EDGE ( 'NONE', *, *, #762, .F. ) ;
#941 = AXIS2_PLACEMENT_3D ( 'NONE', #878, #871, #778 ) ;
#942 = CARTESIAN_POINT ( 'NONE',  ( -5.850000000000000533, 7.000000000000000000, -1.650000000000000355 ) ) ;
#943 = FACE_OUTER_BOUND ( 'NONE', #875, .T. ) ;
#944 = CARTESIAN_POINT ( 'NONE',  ( 0.000000000000000000, 0.000000000000000000, 0.000000000000000000 ) ) ;
#945 = DIRECTION ( 'NONE',  ( -0.000000000000000000, -0.000000000000000000, -1.000000000000000000 ) ) ;
#946 = ORIENTED_EDGE ( 'NONE', *, *, #101, .F. ) ;
#947 = CIRCLE ( 'NONE', #29, 13.00000000000000000 ) ;
#948 = CARTESIAN_POINT ( 'NONE',  ( 0.000000000000000000, 0.000000000000000000, -1.649999999999999911 ) ) ;
#949 = CARTESIAN_POINT ( 'NONE',  ( 8.150000000000000355, 2.100000000000000089, 0.000000000000000000 ) ) ;
#950 = PERSON_AND_ORGANIZATION_ROLE ( 'creator' ) ;
#951 = EDGE_CURVE ( 'NONE', #33, #985, #1050, .T. ) ;
#952 = DIRECTION ( 'NONE',  ( -1.000000000000000000, 0.000000000000000000, 0.000000000000000000 ) ) ;
#953 = CYLINDRICAL_SURFACE ( 'NONE', #994, 1.150000000000000799 ) ;
#954 = ORIENTED_EDGE ( 'NONE', *, *, #241, .F. ) ;
#955 = CIRCLE ( 'NONE', #700, 2.100000000000000977 ) ;
#956 = FACE_OUTER_BOUND ( 'NONE', #1025, .T. ) ;
#957 = DIRECTION ( 'NONE',  ( 0.000000000000000000, 0.000000000000000000, 1.000000000000000000 ) ) ;
#958 = LINE ( 'NONE', #805, #757 ) ;
#959 = DIRECTION ( 'NONE',  ( 0.000000000000000000, 0.000000000000000000, 1.000000000000000000 ) ) ;
#960 = ORIENTED_EDGE ( 'NONE', *, *, #136, .T. ) ;
#961 = EDGE_CURVE ( 'NONE', #178, #469, #877, .T. ) ;
#962 = ORIENTED_EDGE ( 'NONE', *, *, #824, .T. ) ;
#963 = AXIS2_PLACEMENT_3D ( 'NONE', #685, #172, #528 ) ;
#964 = CARTESIAN_POINT ( 'NONE',  ( -8.150000000000000355, -2.100000000000000089, 0.000000000000000000 ) ) ;
#965 = APPROVAL_ROLE ( '' ) ;
#966 = CARTESIAN_POINT ( 'NONE',  ( -7.000000000000000000, -7.000000000000000000, -1.650000000000000355 ) ) ;
#967 = FACE_OUTER_BOUND ( 'NONE', #807, .T. ) ;
#968 = ORIENTED_EDGE ( 'NONE', *, *, #1106, .F. ) ;
#969 = EDGE_CURVE ( 'NONE', #46, #346, #506, .T. ) ;
#970 = DIRECTION ( 'NONE',  ( -1.000000000000000000, 0.000000000000000000, 0.000000000000000000 ) ) ;
#971 = VECTOR ( 'NONE', #581, 1000.000000000000000 ) ;
#972 = LINE ( 'NONE', #262, #230 ) ;
#973 = VERTEX_POINT ( 'NONE', #942 ) ;
#974 = ORIENTED_EDGE ( 'NONE', *, *, #387, .F. ) ;
#975 = EDGE_CURVE ( 'NONE', #882, #764, #844, .T. ) ;
#976 = CARTESIAN_POINT ( 'NONE',  ( -8.150000000000000355, 2.100000000000000089, 0.000000000000000000 ) ) ;
#977 = CARTESIAN_POINT ( 'NONE',  ( 8.150000000000000355, 2.100000000000000977, 0.000000000000000000 ) ) ;
#978 = ORIENTED_EDGE ( 'NONE', *, *, #771, .F. ) ;
#979 = VERTEX_POINT ( 'NONE', #855 ) ;
#980 = CC_DESIGN_SECURITY_CLASSIFICATION ( #833, ( #161 ) ) ;
#981 = CYLINDRICAL_SURFACE ( 'NONE', #319, 2.100000000000000977 ) ;
#982 = APPROVAL ( #679, 'UNSPECIFIED' ) ;
#983 = LINE ( 'NONE', #380, #17 ) ;
#984 = VERTEX_POINT ( 'NONE', #772 ) ;
#985 = VERTEX_POINT ( 'NONE', #684 ) ;
#986 = VECTOR ( 'NONE', #420, 1000.000000000000000 ) ;
#987 = CARTESIAN_POINT ( 'NONE',  ( 2.100000000000000089, -8.150000000000000355, 0.000000000000000000 ) ) ;
#988 = ADVANCED_FACE ( 'NONE', ( #1035 ), #603, .T. ) ;
#989 = CARTESIAN_POINT ( 'NONE',  ( 2.100000000000000089, -8.150000000000000355, 0.000000000000000000 ) ) ;
#990 = LINE ( 'NONE', #381, #560 ) ;
#991 = EDGE_CURVE ( 'NONE', #578, #33, #355, .T. ) ;
#992 = ORIENTED_EDGE ( 'NONE', *, *, #158, .F. ) ;
#993 = LINE ( 'NONE', #1003, #463 ) ;
#994 = AXIS2_PLACEMENT_3D ( 'NONE', #1046, #448, #897 ) ;
#995 = LINE ( 'NONE', #207, #85 ) ;
#996 = ORIENTED_EDGE ( 'NONE', *, *, #56, .T. ) ;
#997 = VERTEX_POINT ( 'NONE', #89 ) ;
#998 = CARTESIAN_POINT ( 'NONE',  ( -8.150000000000000355, 0.000000000000000000, 0.000000000000000000 ) ) ;
#999 = CC_DESIGN_APPROVAL ( #471, ( #667 ) ) ;
#1000 = EDGE_LOOP ( 'NONE', ( #1093, #540, #729, #910 ) ) ;
#1001 = EDGE_LOOP ( 'NONE', ( #383, #139, #804, #562 ) ) ;
#1002 = EDGE_CURVE ( 'NONE', #1054, #984, #1066, .T. ) ;
#1003 = CARTESIAN_POINT ( 'NONE',  ( 13.00000000000000000, 1.592040838891559095E-15, 4.000000000000000000 ) ) ;
#1004 = CARTESIAN_POINT ( 'NONE',  ( 8.150000000000000355, 7.000000000000000000, 4.000000000000003553 ) ) ;
#1005 = AXIS2_PLACEMENT_3D ( 'NONE', #478, #481, #638 ) ;
#1006 = ORIENTED_EDGE ( 'NONE', *, *, #907, .F. ) ;
#1007 = VECTOR ( 'NONE', #752, 1000.000000000000000 ) ;
#1008 = CARTESIAN_POINT ( 'NONE',  ( 13.00000000000000000, 1.592040838891559095E-15, -1.649999999999999911 ) ) ;
#1009 = EDGE_CURVE ( 'NONE', #602, #133, #145, .T. ) ;
#1010 = CIRCLE ( 'NONE', #412, 1.149999999999999911 ) ;
#1011 = CARTESIAN_POINT ( 'NONE',  ( -8.150000000000000355, 2.100000000000000089, 0.000000000000000000 ) ) ;
#1012 = AXIS2_PLACEMENT_3D ( 'NONE', #813, #1103, #329 ) ;
#1013 = EDGE_LOOP ( 'NONE', ( #927, #221 ) ) ;
#1014 = CARTESIAN_POINT ( 'NONE',  ( 0.000000000000000000, 0.000000000000000000, -1.649999999999999911 ) ) ;
#1015 = DIRECTION ( 'NONE',  ( 0.000000000000000000, 0.000000000000000000, 1.000000000000000000 ) ) ;
#1016 = APPROVAL_PERSON_ORGANIZATION ( #1043, #982, #788 ) ;
#1017 = VERTEX_POINT ( 'NONE', #191 ) ;
#1018 = DIRECTION ( 'NONE',  ( -0.000000000000000000, -0.000000000000000000, -1.000000000000000000 ) ) ;
#1019 = CARTESIAN_POINT ( 'NONE',  ( 5.849999999999999645, 7.000000000000000000, 4.000000000000003553 ) ) ;
#1020 = EDGE_CURVE ( 'NONE', #47, #33, #94, .T. ) ;
#1021 = EDGE_LOOP ( 'NONE', ( #394, #974 ) ) ;
#1022 = EDGE_CURVE ( 'NONE', #843, #130, #776, .T. ) ;
#1023 = CARTESIAN_POINT ( 'NONE',  ( 8.150000000000000355, -7.000000000000000000, 4.000000000000003553 ) ) ;
#1024 = CARTESIAN_POINT ( 'NONE',  ( -3.404408906109840149, -2.100000000000000089, -1.649999999999999911 ) ) ;
#1025 = EDGE_LOOP ( 'NONE', ( #498, #1070, #654, #341 ) ) ;
#1026 = VECTOR ( 'NONE', #443, 1000.000000000000000 ) ;
#1027 = DIRECTION ( 'NONE',  ( 1.000000000000000000, 0.000000000000000000, 0.000000000000000000 ) ) ;
#1028 = CARTESIAN_POINT ( 'NONE',  ( 0.000000000000000000, 0.000000000000000000, 4.000000000000000000 ) ) ;
#1029 = COORDINATED_UNIVERSAL_TIME_OFFSET ( 6, 0, .BEHIND. ) ;
#1030 = PRODUCT_DEFINITION_SHAPE ( 'NONE', 'NONE',  #667 ) ;
#1031 = CARTESIAN_POINT ( 'NONE',  ( -7.000000000000000000, 7.000000000000000000, 4.000000000000003553 ) ) ;
#1032 = VERTEX_POINT ( 'NONE', #519 ) ;
#1033 = LOCAL_TIME ( 17, 4, 15.00000000000000000, #1116 ) ;
#1034 = ADVANCED_FACE ( 'NONE', ( #265 ), #96, .T. ) ;
#1035 = FACE_OUTER_BOUND ( 'NONE', #749, .T. ) ;
#1036 = CARTESIAN_POINT ( 'NONE',  ( 0.000000000000000000, -8.150000000000000355, -1.649999999999999911 ) ) ;
#1037 = PERSON_AND_ORGANIZATION ( #179, #114 ) ;
#1038 = DIRECTION ( 'NONE',  ( 0.000000000000000000, 0.000000000000000000, -1.000000000000000000 ) ) ;
#1039 = ORIENTED_EDGE ( 'NONE', *, *, #975, .F. ) ;
#1040 = CIRCLE ( 'NONE', #690, 1.149999999999999911 ) ;
#1041 = DIRECTION ( 'NONE',  ( 1.000000000000000000, 0.000000000000000000, 0.000000000000000000 ) ) ;
#1042 = CARTESIAN_POINT ( 'NONE',  ( -8.150000000000000355, 0.000000000000000000, -1.649999999999999911 ) ) ;
#1043 = PERSON_AND_ORGANIZATION ( #179, #114 ) ;
#1044 = DIRECTION ( 'NONE',  ( 0.000000000000000000, 0.000000000000000000, -1.000000000000000000 ) ) ;
#1045 = EDGE_CURVE ( 'NONE', #464, #130, #333, .T. ) ;
#1046 = CARTESIAN_POINT ( 'NONE',  ( -7.000000000000000000, -7.000000000000000000, 4.000000000000003553 ) ) ;
#1047 = ORIENTED_EDGE ( 'NONE', *, *, #405, .F. ) ;
#1048 = VECTOR ( 'NONE', #1099, 1000.000000000000000 ) ;
#1049 = AXIS2_PLACEMENT_3D ( 'NONE', #732, #1018, #584 ) ;
#1050 = LINE ( 'NONE', #253, #216 ) ;
#1051 = EDGE_CURVE ( 'NONE', #152, #1118, #890, .T. ) ;
#1052 = CARTESIAN_POINT ( 'NONE',  ( 8.150000000000000355, 7.000000000000000000, -1.650000000000000355 ) ) ;
#1053 = FACE_BOUND ( 'NONE', #782, .T. ) ;
#1054 = VERTEX_POINT ( 'NONE', #424 ) ;
#1055 = ORIENTED_EDGE ( 'NONE', *, *, #597, .T. ) ;
#1056 = PLANE ( 'NONE',  #134 ) ;
#1057 = DIRECTION ( 'NONE',  ( 1.000000000000000000, 0.000000000000000000, 0.000000000000000000 ) ) ;
#1058 = ORIENTED_EDGE ( 'NONE', *, *, #991, .T. ) ;
#1059 = EDGE_LOOP ( 'NONE', ( #821, #709, #509, #27 ) ) ;
#1060 = EDGE_CURVE ( 'NONE', #1017, #1032, #2, .T. ) ;
#1061 = CIRCLE ( 'NONE', #170, 2.100000000000000089 ) ;
#1062 = FACE_OUTER_BOUND ( 'NONE', #229, .T. ) ;
#1063 = AXIS2_PLACEMENT_3D ( 'NONE', #1064, #452, #32 ) ;
#1064 = CARTESIAN_POINT ( 'NONE',  ( 7.000000000000000000, -7.000000000000000000, -1.650000000000000355 ) ) ;
#1065 = ORIENTED_EDGE ( 'NONE', *, *, #542, .F. ) ;
#1066 = CIRCLE ( 'NONE', #314, 2.100000000000000089 ) ;
#1067 = CARTESIAN_POINT ( 'NONE',  ( 0.000000000000000000, 8.150000000000000355, 0.000000000000000000 ) ) ;
#1068 = CARTESIAN_POINT ( 'NONE',  ( 2.100000000000000089, -8.150000000000000355, -1.649999999999999911 ) ) ;
#1069 = VERTEX_POINT ( 'NONE', #691 ) ;
#1070 = ORIENTED_EDGE ( 'NONE', *, *, #189, .T. ) ;
#1071 = APPROVAL_PERSON_ORGANIZATION ( #1037, #471, #192 ) ;
#1072 = EDGE_CURVE ( 'NONE', #178, #662, #297, .T. ) ;
#1073 = CARTESIAN_POINT ( 'NONE',  ( -2.100000000000000089, -3.404408906109840149, 0.000000000000000000 ) ) ;
#1074 = ADVANCED_FACE ( 'NONE', ( #943 ), #181, .F. ) ;
#1075 = LINE ( 'NONE', #1068, #501 ) ;
#1076 = ORIENTED_EDGE ( 'NONE', *, *, #500, .T. ) ;
#1077 = DIRECTION ( 'NONE',  ( -1.000000000000000000, 0.000000000000000000, 0.000000000000000000 ) ) ;
#1078 = ORIENTED_EDGE ( 'NONE', *, *, #1009, .F. ) ;
#1079 = VECTOR ( 'NONE', #70, 1000.000000000000000 ) ;
#1080 = DIRECTION ( 'NONE',  ( 1.000000000000000000, 0.000000000000000000, 0.000000000000000000 ) ) ;
#1081 = DIRECTION ( 'NONE',  ( 0.000000000000000000, 0.000000000000000000, 1.000000000000000000 ) ) ;
#1082 = ORIENTED_EDGE ( 'NONE', *, *, #784, .T. ) ;
#1083 = DIRECTION ( 'NONE',  ( 0.000000000000000000, 0.000000000000000000, 1.000000000000000000 ) ) ;
#1084 = VERTEX_POINT ( 'NONE', #165 ) ;
#1085 = DIRECTION ( 'NONE',  ( -0.000000000000000000, -0.000000000000000000, -1.000000000000000000 ) ) ;
#1086 = VECTOR ( 'NONE', #580, 1000.000000000000000 ) ;
#1087 = ORIENTED_EDGE ( 'NONE', *, *, #567, .F. ) ;
#1088 = ADVANCED_FACE ( 'NONE', ( #511 ), #856, .T. ) ;
#1089 = EDGE_LOOP ( 'NONE', ( #389, #399 ) ) ;
#1090 = CYLINDRICAL_SURFACE ( 'NONE', #1005, 2.100000000000000089 ) ;
#1091 = AXIS2_PLACEMENT_3D ( 'NONE', #444, #773, #349 ) ;
#1092 = DIRECTION ( 'NONE',  ( 0.000000000000000000, 0.000000000000000000, -1.000000000000000000 ) ) ;
#1093 = ORIENTED_EDGE ( 'NONE', *, *, #553, .T. ) ;
#1094 = ADVANCED_FACE ( 'NONE', ( #820 ), #748, .F. ) ;
#1095 = LINE ( 'NONE', #54, #606 ) ;
#1096 = CARTESIAN_POINT ( 'NONE',  ( 8.150000000000000355, 2.100000000000000977, -1.649999999999999911 ) ) ;
#1097 = ORIENTED_EDGE ( 'NONE', *, *, #526, .T. ) ;
#1098 = CARTESIAN_POINT ( 'NONE',  ( 0.000000000000000000, 0.000000000000000000, -1.649999999999999911 ) ) ;
#1099 = DIRECTION ( 'NONE',  ( -0.000000000000000000, -1.000000000000000000, -0.000000000000000000 ) ) ;
#1100 = VECTOR ( 'NONE', #414, 1000.000000000000000 ) ;
#1101 = ORIENTED_EDGE ( 'NONE', *, *, #526, .F. ) ;
#1102 = DESIGN_CONTEXT ( 'detailed design', #235, 'design' ) ;
#1103 = DIRECTION ( 'NONE',  ( 0.000000000000000000, 0.000000000000000000, 1.000000000000000000 ) ) ;
#1104 = EDGE_CURVE ( 'NONE', #322, #309, #239, .T. ) ;
#1105 = DIRECTION ( 'NONE',  ( 0.000000000000000000, 0.000000000000000000, 1.000000000000000000 ) ) ;
#1106 = EDGE_CURVE ( 'NONE', #577, #237, #738, .T. ) ;
#1107 = AXIS2_PLACEMENT_3D ( 'NONE', #214, #1083, #51 ) ;
#1108 = ORIENTED_EDGE ( 'NONE', *, *, #421, .F. ) ;
#1109 = CARTESIAN_POINT ( 'NONE',  ( -4.000000000000000000, 0.000000000000000000, 4.000000000000000000 ) ) ;
#1110 = ADVANCED_BREP_SHAPE_REPRESENTATION ( 'FIT-002_SG90_horn_pocket_clearance_0p10', ( #815, #42 ), #925 ) ;
#1111 = CARTESIAN_POINT ( 'NONE',  ( 8.150000000000000355, -7.000000000000000000, 4.000000000000003553 ) ) ;
#1112 = ORIENTED_EDGE ( 'NONE', *, *, #655, .F. ) ;
#1113 = AXIS2_PLACEMENT_3D ( 'NONE', #224, #552, #396 ) ;
#1114 = AXIS2_PLACEMENT_3D ( 'NONE', #837, #26, #204 ) ;
#1115 = LINE ( 'NONE', #95, #468 ) ;
#1116 = COORDINATED_UNIVERSAL_TIME_OFFSET ( 6, 0, .BEHIND. ) ;
#1117 = DIRECTION ( 'NONE',  ( 1.000000000000000000, 0.000000000000000000, 0.000000000000000000 ) ) ;
#1118 = VERTEX_POINT ( 'NONE', #566 ) ;
#1119 = EDGE_CURVE ( 'NONE', #662, #657, #450, .T. ) ;
#1120 = LINE ( 'NONE', #1109, #794 ) ;
#1121 = DIRECTION ( 'NONE',  ( 1.000000000000000000, 0.000000000000000000, 0.000000000000000000 ) ) ;
#1122 = CALENDAR_DATE ( 2026, 8, 9 ) ;
#1123 = PRODUCT ( 'FIT-002_SG90_horn_pocket_clearance_0p10', 'FIT-002_SG90_horn_pocket_clearance_0p10', '', ( #850 ) ) ;
#1124 = CARTESIAN_POINT ( 'NONE',  ( -13.00000000000000000, 0.000000000000000000, -1.649999999999999911 ) ) ;
ENDSEC;
END-ISO-10303-21;
