ISO-10303-21;
HEADER;
FILE_DESCRIPTION (( 'STEP AP203' ),
    '1' );
FILE_NAME ('FIT-002_SG90_horn_pocket_clearance_0p15.step',
    '2026-09-08T22:04:24',
    ( '' ),
    ( '' ),
    'SwSTEP 2.0',
    'SolidWorks 2026',
    '' );
FILE_SCHEMA (( 'CONFIG_CONTROL_DESIGN' ));
ENDSEC;

DATA;
#1 = LINE ( 'NONE', #512, #405 ) ;
#2 = CIRCLE ( 'NONE', #726, 2.149999999999999911 ) ;
#3 = CYLINDRICAL_SURFACE ( 'NONE', #807, 1.150000000000000799 ) ;
#4 = CARTESIAN_POINT ( 'NONE',  ( -13.00000000000000000, 0.000000000000000000, 4.000000000000000000 ) ) ;
#5 = AXIS2_PLACEMENT_3D ( 'NONE', #484, #828, #494 ) ;
#6 = EDGE_LOOP ( 'NONE', ( #888, #41, #1084, #395 ) ) ;
#7 = CARTESIAN_POINT ( 'NONE',  ( -2.149999999999999911, -8.150000000000000355, 0.000000000000000000 ) ) ;
#8 = ORIENTED_EDGE ( 'NONE', *, *, #316, .F. ) ;
#9 = VECTOR ( 'NONE', #57, 1000.000000000000000 ) ;
#10 = VERTEX_POINT ( 'NONE', #189 ) ;
#11 = CARTESIAN_POINT ( 'NONE',  ( 0.000000000000000000, 8.150000000000000355, 0.000000000000000000 ) ) ;
#12 = VERTEX_POINT ( 'NONE', #882 ) ;
#13 = CARTESIAN_POINT ( 'NONE',  ( -8.150000000000000355, 0.000000000000000000, -1.649999999999999911 ) ) ;
#14 = DATE_AND_TIME ( #1060, #605 ) ;
#15 = LOCAL_TIME ( 17, 4, 24.00000000000000000, #812 ) ;
#16 = DIRECTION ( 'NONE',  ( 0.000000000000000000, 0.000000000000000000, 1.000000000000000000 ) ) ;
#17 = ORIENTED_EDGE ( 'NONE', *, *, #548, .T. ) ;
#18 = EDGE_LOOP ( 'NONE', ( #866, #711, #705, #1006 ) ) ;
#19 = EDGE_CURVE ( 'NONE', #328, #360, #1120, .T. ) ;
#20 = ADVANCED_FACE ( 'NONE', ( #1030 ), #452, .T. ) ;
#21 = CARTESIAN_POINT ( 'NONE',  ( -10.30000000000000071, 0.000000000000000000, 0.000000000000000000 ) ) ;
#22 = DIRECTION ( 'NONE',  ( 0.000000000000000000, 0.000000000000000000, -1.000000000000000000 ) ) ;
#23 = DATE_AND_TIME ( #1077, #15 ) ;
#24 = ORIENTED_EDGE ( 'NONE', *, *, #436, .T. ) ;
#25 = ORIENTED_EDGE ( 'NONE', *, *, #34, .T. ) ;
#26 = VERTEX_POINT ( 'NONE', #533 ) ;
#27 = VECTOR ( 'NONE', #1035, 1000.000000000000000 ) ;
#28 = DIRECTION ( 'NONE',  ( 0.000000000000000000, 0.000000000000000000, 1.000000000000000000 ) ) ;
#29 = ORIENTED_EDGE ( 'NONE', *, *, #613, .F. ) ;
#30 = AXIS2_PLACEMENT_3D ( 'NONE', #852, #178, #450 ) ;
#31 = DIRECTION ( 'NONE',  ( -1.000000000000000000, 0.000000000000000000, 0.000000000000000000 ) ) ;
#32 = CC_DESIGN_PERSON_AND_ORGANIZATION_ASSIGNMENT ( #508, #859, ( #215 ) ) ;
#33 = ORGANIZATION ( 'UNSPECIFIED', 'UNSPECIFIED', '' ) ;
#34 = EDGE_CURVE ( 'NONE', #634, #197, #407, .T. ) ;
#35 = ORIENTED_EDGE ( 'NONE', *, *, #905, .T. ) ;
#36 = CARTESIAN_POINT ( 'NONE',  ( 8.150000000000000355, 7.000000000000000000, 4.000000000000003553 ) ) ;
#37 = EDGE_CURVE ( 'NONE', #760, #300, #521, .T. ) ;
#38 = APPROVAL_ROLE ( '' ) ;
#39 = EDGE_CURVE ( 'NONE', #150, #1050, #254, .T. ) ;
#40 = AXIS2_PLACEMENT_3D ( 'NONE', #1096, #831, #843 ) ;
#41 = ORIENTED_EDGE ( 'NONE', *, *, #499, .T. ) ;
#42 = DIRECTION ( 'NONE',  ( 1.000000000000000000, 0.000000000000000000, 0.000000000000000000 ) ) ;
#43 = CARTESIAN_POINT ( 'NONE',  ( 0.000000000000000000, 0.000000000000000000, 4.000000000000000000 ) ) ;
#44 = DIRECTION ( 'NONE',  ( 1.000000000000000000, 0.000000000000000000, 0.000000000000000000 ) ) ;
#45 = VERTEX_POINT ( 'NONE', #949 ) ;
#46 = CARTESIAN_POINT ( 'NONE',  ( -2.149999999999999911, -8.150000000000000355, -1.649999999999999911 ) ) ;
#47 = CARTESIAN_POINT ( 'NONE',  ( 0.000000000000000000, 0.000000000000000000, -1.649999999999999911 ) ) ;
#48 = DIRECTION ( 'NONE',  ( 0.000000000000000000, 0.000000000000000000, 1.000000000000000000 ) ) ;
#49 = EDGE_LOOP ( 'NONE', ( #616, #275, #1093, #1088, #578 ) ) ;
#50 = CARTESIAN_POINT ( 'NONE',  ( 8.150000000000000355, 0.000000000000000000, -1.649999999999999911 ) ) ;
#51 = EDGE_CURVE ( 'NONE', #567, #1050, #947, .T. ) ;
#52 = CYLINDRICAL_SURFACE ( 'NONE', #872, 4.000000000000000000 ) ;
#53 = CIRCLE ( 'NONE', #276, 1.149999999999999911 ) ;
#54 = CARTESIAN_POINT ( 'NONE',  ( 0.000000000000000000, 0.000000000000000000, 4.000000000000000000 ) ) ;
#55 = ORIENTED_EDGE ( 'NONE', *, *, #1104, .F. ) ;
#56 = AXIS2_PLACEMENT_3D ( 'NONE', #43, #194, #120 ) ;
#57 = DIRECTION ( 'NONE',  ( 0.000000000000000000, 0.000000000000000000, -1.000000000000000000 ) ) ;
#58 = LINE ( 'NONE', #393, #854 ) ;
#59 = CIRCLE ( 'NONE', #879, 2.149999999999999911 ) ;
#60 = CARTESIAN_POINT ( 'NONE',  ( 2.149999999999999911, -8.150000000000000355, 0.000000000000000000 ) ) ;
#61 = VERTEX_POINT ( 'NONE', #790 ) ;
#62 = PLANE ( 'NONE',  #117 ) ;
#63 = LINE ( 'NONE', #666, #220 ) ;
#64 = AXIS2_PLACEMENT_3D ( 'NONE', #144, #841, #1100 ) ;
#65 = FACE_OUTER_BOUND ( 'NONE', #455, .T. ) ;
#66 = EDGE_CURVE ( 'NONE', #191, #697, #970, .T. ) ;
#67 = EDGE_CURVE ( 'NONE', #45, #116, #761, .T. ) ;
#68 = ORIENTED_EDGE ( 'NONE', *, *, #633, .T. ) ;
#69 = LINE ( 'NONE', #173, #345 ) ;
#70 = EDGE_CURVE ( 'NONE', #212, #463, #53, .T. ) ;
#71 = DIRECTION ( 'NONE',  ( 0.000000000000000000, 0.000000000000000000, 1.000000000000000000 ) ) ;
#72 = ORIENTED_EDGE ( 'NONE', *, *, #532, .T. ) ;
#73 = CARTESIAN_POINT ( 'NONE',  ( 2.149999999999999911, -8.150000000000000355, -1.649999999999999911 ) ) ;
#74 = DIRECTION ( 'NONE',  ( 0.000000000000000000, 0.000000000000000000, 1.000000000000000000 ) ) ;
#75 = LINE ( 'NONE', #788, #27 ) ;
#76 = AXIS2_PLACEMENT_3D ( 'NONE', #174, #853, #181 ) ;
#77 = ORIENTED_EDGE ( 'NONE', *, *, #457, .F. ) ;
#78 = FACE_OUTER_BOUND ( 'NONE', #980, .T. ) ;
#79 =( LENGTH_UNIT ( ) NAMED_UNIT ( * ) SI_UNIT ( .MILLI., .METRE. ) );
#80 = CIRCLE ( 'NONE', #496, 1.150000000000000799 ) ;
#81 = LINE ( 'NONE', #433, #1015 ) ;
#82 = ORIENTED_EDGE ( 'NONE', *, *, #253, .F. ) ;
#83 = CARTESIAN_POINT ( 'NONE',  ( 0.000000000000000000, 0.000000000000000000, 4.000000000000000000 ) ) ;
#84 = DIRECTION ( 'NONE',  ( 0.000000000000000000, 0.000000000000000000, -1.000000000000000000 ) ) ;
#85 = DIRECTION ( 'NONE',  ( 1.000000000000000000, 0.000000000000000000, 0.000000000000000000 ) ) ;
#86 = CARTESIAN_POINT ( 'NONE',  ( -2.149999999999999911, 3.373054995104586062, 0.000000000000000000 ) ) ;
#87 = EDGE_LOOP ( 'NONE', ( #817, #754 ) ) ;
#88 = VERTEX_POINT ( 'NONE', #860 ) ;
#89 = DIRECTION ( 'NONE',  ( 1.000000000000000000, -0.000000000000000000, 0.000000000000000000 ) ) ;
#90 = AXIS2_PLACEMENT_3D ( 'NONE', #304, #998, #1066 ) ;
#91 = CARTESIAN_POINT ( 'NONE',  ( 8.150000000000000355, -7.000000000000000000, 4.000000000000003553 ) ) ;
#92 = DIRECTION ( 'NONE',  ( 0.000000000000000000, 0.000000000000000000, -1.000000000000000000 ) ) ;
#93 = VECTOR ( 'NONE', #918, 1000.000000000000000 ) ;
#94 = AXIS2_PLACEMENT_3D ( 'NONE', #976, #820, #290 ) ;
#95 = ORIENTED_EDGE ( 'NONE', *, *, #904, .F. ) ;
#96 = ORIENTED_EDGE ( 'NONE', *, *, #945, .T. ) ;
#97 = DIRECTION ( 'NONE',  ( 0.000000000000000000, 0.000000000000000000, -1.000000000000000000 ) ) ;
#98 = DIRECTION ( 'NONE',  ( 0.000000000000000000, 0.000000000000000000, -1.000000000000000000 ) ) ;
#99 = EDGE_CURVE ( 'NONE', #88, #662, #81, .T. ) ;
#100 = ADVANCED_FACE ( 'NONE', ( #683 ), #175, .F. ) ;
#101 = ORIENTED_EDGE ( 'NONE', *, *, #436, .F. ) ;
#102 = LINE ( 'NONE', #893, #693 ) ;
#103 = VERTEX_POINT ( 'NONE', #274 ) ;
#104 = ORIENTED_EDGE ( 'NONE', *, *, #842, .T. ) ;
#105 = DIRECTION ( 'NONE',  ( -0.000000000000000000, -0.000000000000000000, -1.000000000000000000 ) ) ;
#106 = CARTESIAN_POINT ( 'NONE',  ( -8.150000000000000355, -2.149999999999999911, -1.649999999999999911 ) ) ;
#107 = CIRCLE ( 'NONE', #56, 13.00000000000000000 ) ;
#108 = COORDINATED_UNIVERSAL_TIME_OFFSET ( 6, 0, .BEHIND. ) ;
#109 = ORIENTED_EDGE ( 'NONE', *, *, #548, .F. ) ;
#110 = ORIENTED_EDGE ( 'NONE', *, *, #1105, .T. ) ;
#111 = ORIENTED_EDGE ( 'NONE', *, *, #836, .F. ) ;
#112 = AXIS2_PLACEMENT_3D ( 'NONE', #1108, #571, #141 ) ;
#113 = ADVANCED_FACE ( 'NONE', ( #261 ), #598, .T. ) ;
#114 = FACE_BOUND ( 'NONE', #855, .T. ) ;
#115 = APPROVAL_STATUS ( 'not_yet_approved' ) ;
#116 = VERTEX_POINT ( 'NONE', #86 ) ;
#117 = AXIS2_PLACEMENT_3D ( 'NONE', #325, #564, #915 ) ;
#118 = EDGE_CURVE ( 'NONE', #800, #634, #782, .T. ) ;
#119 = CARTESIAN_POINT ( 'NONE',  ( 7.000000000000000000, -7.000000000000000000, 4.000000000000003553 ) ) ;
#120 = DIRECTION ( 'NONE',  ( 1.000000000000000000, 0.000000000000000000, 0.000000000000000000 ) ) ;
#121 = PRODUCT_DEFINITION_FORMATION_WITH_SPECIFIED_SOURCE ( 'ANY', '', #215, .NOT_KNOWN. ) ;
#122 = DIRECTION ( 'NONE',  ( -0.000000000000000000, -1.000000000000000000, -0.000000000000000000 ) ) ;
#123 = ORIENTED_EDGE ( 'NONE', *, *, #499, .F. ) ;
#124 = DIRECTION ( 'NONE',  ( 1.000000000000000000, 0.000000000000000000, 0.000000000000000000 ) ) ;
#125 = SECURITY_CLASSIFICATION_LEVEL ( 'unclassified' ) ;
#126 = AXIS2_PLACEMENT_3D ( 'NONE', #326, #570, #744 ) ;
#127 = EDGE_LOOP ( 'NONE', ( #710, #338, #177, #1103, #1099, #794 ) ) ;
#128 = DIRECTION ( 'NONE',  ( -1.000000000000000000, 0.000000000000000000, 0.000000000000000000 ) ) ;
#129 = FACE_OUTER_BOUND ( 'NONE', #87, .T. ) ;
#130 = DIRECTION ( 'NONE',  ( 0.000000000000000000, 0.000000000000000000, 1.000000000000000000 ) ) ;
#131 = ORIENTED_EDGE ( 'NONE', *, *, #67, .F. ) ;
#132 = ADVANCED_FACE ( 'NONE', ( #459 ), #379, .T. ) ;
#133 = CARTESIAN_POINT ( 'NONE',  ( -3.373054995104586062, -2.149999999999999911, 0.000000000000000000 ) ) ;
#134 = CIRCLE ( 'NONE', #154, 1.149999999999999911 ) ;
#135 = DIRECTION ( 'NONE',  ( 0.000000000000000000, 0.000000000000000000, 1.000000000000000000 ) ) ;
#136 = LINE ( 'NONE', #230, #348 ) ;
#137 = APPLICATION_CONTEXT ( 'configuration controlled 3d designs of mechanical parts and assemblies' ) ;
#138 = VERTEX_POINT ( 'NONE', #1075 ) ;
#139 = DIRECTION ( 'NONE',  ( 1.000000000000000000, 0.000000000000000000, 0.000000000000000000 ) ) ;
#140 = CARTESIAN_POINT ( 'NONE',  ( -8.150000000000000355, 7.000000000000000000, 4.000000000000003553 ) ) ;
#141 = DIRECTION ( 'NONE',  ( 0.000000000000000000, -0.000000000000000000, 1.000000000000000000 ) ) ;
#142 = ORIENTED_EDGE ( 'NONE', *, *, #152, .F. ) ;
#143 = AXIS2_PLACEMENT_3D ( 'NONE', #47, #320, #397 ) ;
#144 = CARTESIAN_POINT ( 'NONE',  ( 7.000000000000000000, -7.000000000000000000, 4.000000000000003553 ) ) ;
#145 = EDGE_CURVE ( 'NONE', #293, #221, #640, .T. ) ;
#146 = DIRECTION ( 'NONE',  ( -0.000000000000000000, -0.000000000000000000, -1.000000000000000000 ) ) ;
#147 = ADVANCED_FACE ( 'NONE', ( #209 ), #1082, .F. ) ;
#148 = AXIS2_PLACEMENT_3D ( 'NONE', #151, #579, #933 ) ;
#149 = DIRECTION ( 'NONE',  ( 1.000000000000000000, 0.000000000000000000, 0.000000000000000000 ) ) ;
#150 = VERTEX_POINT ( 'NONE', #299 ) ;
#151 = CARTESIAN_POINT ( 'NONE',  ( -8.150000000000000355, 0.000000000000000000, 0.000000000000000000 ) ) ;
#152 = EDGE_CURVE ( 'NONE', #800, #670, #107, .T. ) ;
#153 = CARTESIAN_POINT ( 'NONE',  ( 0.000000000000000000, 0.000000000000000000, -1.649999999999999911 ) ) ;
#154 = AXIS2_PLACEMENT_3D ( 'NONE', #162, #1111, #497 ) ;
#155 = CARTESIAN_POINT ( 'NONE',  ( -8.150000000000000355, 2.149999999999999911, -1.649999999999999911 ) ) ;
#156 = VERTEX_POINT ( 'NONE', #636 ) ;
#157 = DIRECTION ( 'NONE',  ( 0.000000000000000000, 0.000000000000000000, 1.000000000000000000 ) ) ;
#158 = LOCAL_TIME ( 17, 4, 24.00000000000000000, #988 ) ;
#159 = LINE ( 'NONE', #7, #637 ) ;
#160 = DIRECTION ( 'NONE',  ( 0.000000000000000000, 0.000000000000000000, -1.000000000000000000 ) ) ;
#161 = ORIENTED_EDGE ( 'NONE', *, *, #253, .T. ) ;
#162 = CARTESIAN_POINT ( 'NONE',  ( -7.000000000000000000, -7.000000000000000000, 4.000000000000003553 ) ) ;
#163 = AXIS2_PLACEMENT_3D ( 'NONE', #797, #357, #281 ) ;
#164 = VECTOR ( 'NONE', #411, 1000.000000000000000 ) ;
#165 = ORIENTED_EDGE ( 'NONE', *, *, #978, .T. ) ;
#166 = ORIENTED_EDGE ( 'NONE', *, *, #321, .F. ) ;
#167 = DIRECTION ( 'NONE',  ( 1.000000000000000000, 0.000000000000000000, 0.000000000000000000 ) ) ;
#168 = DIRECTION ( 'NONE',  ( 0.000000000000000000, 0.000000000000000000, -1.000000000000000000 ) ) ;
#169 = CIRCLE ( 'NONE', #207, 2.149999999999999023 ) ;
#170 = DIRECTION ( 'NONE',  ( 1.000000000000000000, 0.000000000000000000, 0.000000000000000000 ) ) ;
#171 = ORIENTED_EDGE ( 'NONE', *, *, #1071, .F. ) ;
#172 = ORIENTED_EDGE ( 'NONE', *, *, #351, .F. ) ;
#173 = CARTESIAN_POINT ( 'NONE',  ( -3.373054995104586062, 2.149999999999999911, 0.000000000000000000 ) ) ;
#174 = CARTESIAN_POINT ( 'NONE',  ( -7.000000000000000000, 7.000000000000000000, 4.000000000000003553 ) ) ;
#175 = CYLINDRICAL_SURFACE ( 'NONE', #596, 1.150000000000000799 ) ;
#176 = EDGE_LOOP ( 'NONE', ( #971, #793, #352, #434 ) ) ;
#177 = ORIENTED_EDGE ( 'NONE', *, *, #857, .F. ) ;
#178 = DIRECTION ( 'NONE',  ( -1.000000000000000000, 0.000000000000000000, 0.000000000000000000 ) ) ;
#179 = CIRCLE ( 'NONE', #966, 4.000000000000000000 ) ;
#180 = CC_DESIGN_PERSON_AND_ORGANIZATION_ASSIGNMENT ( #292, #465, ( #581 ) ) ;
#181 = DIRECTION ( 'NONE',  ( -1.000000000000000000, 0.000000000000000000, 0.000000000000000000 ) ) ;
#182 = ADVANCED_FACE ( 'NONE', ( #392 ), #894, .T. ) ;
#183 = DIRECTION ( 'NONE',  ( 1.000000000000000000, 0.000000000000000000, 0.000000000000000000 ) ) ;
#184 = VERTEX_POINT ( 'NONE', #986 ) ;
#185 = ORIENTED_EDGE ( 'NONE', *, *, #446, .T. ) ;
#186 = ORIENTED_EDGE ( 'NONE', *, *, #867, .F. ) ;
#187 = LINE ( 'NONE', #36, #862 ) ;
#188 = EDGE_CURVE ( 'NONE', #510, #865, #214, .T. ) ;
#189 = CARTESIAN_POINT ( 'NONE',  ( 8.150000000000000355, -2.149999999999999023, 0.000000000000000000 ) ) ;
#190 = AXIS2_PLACEMENT_3D ( 'NONE', #889, #549, #884 ) ;
#191 = VERTEX_POINT ( 'NONE', #367 ) ;
#192 = ORIENTED_EDGE ( 'NONE', *, *, #1073, .F. ) ;
#193 = CARTESIAN_POINT ( 'NONE',  ( -8.150000000000000355, 2.149999999999999911, 0.000000000000000000 ) ) ;
#194 = DIRECTION ( 'NONE',  ( 0.000000000000000000, 0.000000000000000000, 1.000000000000000000 ) ) ;
#195 = DATE_TIME_ROLE ( 'classification_date' ) ;
#196 = ADVANCED_FACE ( 'NONE', ( #707 ), #376, .T. ) ;
#197 = VERTEX_POINT ( 'NONE', #363 ) ;
#198 = ORIENTED_EDGE ( 'NONE', *, *, #921, .T. ) ;
#199 = FACE_BOUND ( 'NONE', #892, .T. ) ;
#200 = SHAPE_DEFINITION_REPRESENTATION ( #413, #929 ) ;
#201 = VECTOR ( 'NONE', #442, 1000.000000000000000 ) ;
#202 = VERTEX_POINT ( 'NONE', #1062 ) ;
#203 = CIRCLE ( 'NONE', #244, 13.00000000000000000 ) ;
#204 = DIRECTION ( 'NONE',  ( 1.000000000000000000, 0.000000000000000000, 0.000000000000000000 ) ) ;
#205 = CARTESIAN_POINT ( 'NONE',  ( 2.149999999999999911, -8.150000000000000355, 0.000000000000000000 ) ) ;
#206 = ORIENTED_EDGE ( 'NONE', *, *, #233, .F. ) ;
#207 = AXIS2_PLACEMENT_3D ( 'NONE', #969, #294, #361 ) ;
#208 = CARTESIAN_POINT ( 'NONE',  ( 0.000000000000000000, 0.000000000000000000, 4.000000000000000000 ) ) ;
#209 = FACE_OUTER_BOUND ( 'NONE', #593, .T. ) ;
#210 = PERSON_AND_ORGANIZATION_ROLE ( 'creator' ) ;
#211 = AXIS2_PLACEMENT_3D ( 'NONE', #953, #870, #273 ) ;
#212 = VERTEX_POINT ( 'NONE', #875 ) ;
#213 = DIRECTION ( 'NONE',  ( 0.000000000000000000, 0.000000000000000000, -1.000000000000000000 ) ) ;
#214 = LINE ( 'NONE', #558, #1070 ) ;
#215 = PRODUCT ( 'FIT-002_SG90_horn_pocket_clearance_0p15', 'FIT-002_SG90_horn_pocket_clearance_0p15', '', ( #337 ) ) ;
#216 = FACE_BOUND ( 'NONE', #791, .T. ) ;
#217 = ADVANCED_FACE ( 'NONE', ( #429 ), #939, .F. ) ;
#218 = EDGE_CURVE ( 'NONE', #725, #328, #781, .T. ) ;
#219 = DIRECTION ( 'NONE',  ( 0.000000000000000000, 0.000000000000000000, -1.000000000000000000 ) ) ;
#220 = VECTOR ( 'NONE', #837, 1000.000000000000000 ) ;
#221 = VERTEX_POINT ( 'NONE', #502 ) ;
#222 = PLANE ( 'NONE',  #602 ) ;
#223 = CARTESIAN_POINT ( 'NONE',  ( -5.850000000000000533, -7.000000000000000000, -1.650000000000000355 ) ) ;
#224 = CARTESIAN_POINT ( 'NONE',  ( -7.000000000000000000, 7.000000000000000000, -1.650000000000000355 ) ) ;
#225 = CARTESIAN_POINT ( 'NONE',  ( 8.150000000000000355, 7.000000000000000000, 4.000000000000003553 ) ) ;
#226 = ORIENTED_EDGE ( 'NONE', *, *, #233, .T. ) ;
#227 = CARTESIAN_POINT ( 'NONE',  ( 5.849999999999999645, -7.000000000000000000, -1.650000000000000355 ) ) ;
#228 = AXIS2_PLACEMENT_3D ( 'NONE', #420, #247, #762 ) ;
#229 = LINE ( 'NONE', #403, #1106 ) ;
#230 = CARTESIAN_POINT ( 'NONE',  ( 13.00000000000000000, 1.592040838891559095E-15, 4.000000000000000000 ) ) ;
#231 = PRODUCT_RELATED_PRODUCT_CATEGORY ( 'detail', '', ( #215 ) ) ;
#232 = ORIENTED_EDGE ( 'NONE', *, *, #996, .F. ) ;
#233 = EDGE_CURVE ( 'NONE', #883, #103, #767, .T. ) ;
#234 = EDGE_CURVE ( 'NONE', #518, #212, #679, .T. ) ;
#235 = FACE_OUTER_BOUND ( 'NONE', #804, .T. ) ;
#236 = DIRECTION ( 'NONE',  ( -1.000000000000000000, -0.000000000000000000, -0.000000000000000000 ) ) ;
#237 = APPLICATION_CONTEXT ( 'configuration controlled 3d designs of mechanical parts and assemblies' ) ;
#238 = DIRECTION ( 'NONE',  ( 0.000000000000000000, 1.000000000000000000, 0.000000000000000000 ) ) ;
#239 = EDGE_CURVE ( 'NONE', #150, #733, #386, .T. ) ;
#240 = ORIENTED_EDGE ( 'NONE', *, *, #19, .T. ) ;
#241 = VECTOR ( 'NONE', #928, 1000.000000000000000 ) ;
#242 = CARTESIAN_POINT ( 'NONE',  ( 0.000000000000000000, 0.000000000000000000, -1.649999999999999911 ) ) ;
#243 = CARTESIAN_POINT ( 'NONE',  ( 7.000000000000000000, 7.000000000000000000, 4.000000000000003553 ) ) ;
#244 = AXIS2_PLACEMENT_3D ( 'NONE', #930, #322, #1102 ) ;
#245 = DIRECTION ( 'NONE',  ( 1.000000000000000000, 0.000000000000000000, 0.000000000000000000 ) ) ;
#246 = EDGE_LOOP ( 'NONE', ( #972, #419, #1109, #887 ) ) ;
#247 = DIRECTION ( 'NONE',  ( 0.000000000000000000, 0.000000000000000000, -1.000000000000000000 ) ) ;
#248 = FACE_OUTER_BOUND ( 'NONE', #638, .T. ) ;
#249 = ORIENTED_EDGE ( 'NONE', *, *, #905, .F. ) ;
#250 = DIRECTION ( 'NONE',  ( 0.000000000000000000, 0.000000000000000000, -1.000000000000000000 ) ) ;
#251 = DIRECTION ( 'NONE',  ( 0.000000000000000000, 0.000000000000000000, -1.000000000000000000 ) ) ;
#252 = DIRECTION ( 'NONE',  ( 0.000000000000000000, 0.000000000000000000, 1.000000000000000000 ) ) ;
#253 = EDGE_CURVE ( 'NONE', #88, #116, #343, .T. ) ;
#254 = LINE ( 'NONE', #960, #724 ) ;
#255 = ORIENTED_EDGE ( 'NONE', *, *, #718, .F. ) ;
#256 = UNCERTAINTY_MEASURE_WITH_UNIT (LENGTH_MEASURE( 1.000000000000000082E-05 ), #79, 'distance_accuracy_value', 'NONE');
#257 = AXIS2_PLACEMENT_3D ( 'NONE', #732, #1018, #934 ) ;
#258 = PLANE ( 'NONE',  #716 ) ;
#259 = LINE ( 'NONE', #689, #708 ) ;
#260 = AXIS2_PLACEMENT_3D ( 'NONE', #242, #1016, #245 ) ;
#261 = FACE_OUTER_BOUND ( 'NONE', #963, .T. ) ;
#262 = AXIS2_PLACEMENT_3D ( 'NONE', #864, #608, #967 ) ;
#263 = ORIENTED_EDGE ( 'NONE', *, *, #389, .T. ) ;
#264 = ORIENTED_EDGE ( 'NONE', *, *, #944, .F. ) ;
#265 = CARTESIAN_POINT ( 'NONE',  ( -8.150000000000000355, 7.000000000000000000, -1.650000000000000355 ) ) ;
#266 = CYLINDRICAL_SURFACE ( 'NONE', #652, 1.150000000000000799 ) ;
#267 = VECTOR ( 'NONE', #594, 1000.000000000000000 ) ;
#268 = CARTESIAN_POINT ( 'NONE',  ( 0.000000000000000000, 0.000000000000000000, -1.649999999999999911 ) ) ;
#269 = ORIENTED_EDGE ( 'NONE', *, *, #118, .T. ) ;
#270 = EDGE_CURVE ( 'NONE', #662, #1051, #907, .T. ) ;
#271 = EDGE_CURVE ( 'NONE', #342, #88, #2, .T. ) ;
#272 = LINE ( 'NONE', #673, #368 ) ;
#273 = DIRECTION ( 'NONE',  ( -1.000000000000000000, 0.000000000000000000, 0.000000000000000000 ) ) ;
#274 = CARTESIAN_POINT ( 'NONE',  ( 2.149999999999999911, 8.150000000000000355, -1.649999999999999911 ) ) ;
#275 = ORIENTED_EDGE ( 'NONE', *, *, #586, .F. ) ;
#276 = AXIS2_PLACEMENT_3D ( 'NONE', #438, #592, #509 ) ;
#277 = ORIENTED_EDGE ( 'NONE', *, *, #425, .T. ) ;
#278 = ORIENTED_EDGE ( 'NONE', *, *, #956, .F. ) ;
#279 = FACE_OUTER_BOUND ( 'NONE', #246, .T. ) ;
#280 = CIRCLE ( 'NONE', #40, 2.149999999999999911 ) ;
#281 = DIRECTION ( 'NONE',  ( 0.000000000000000000, -0.000000000000000000, -1.000000000000000000 ) ) ;
#282 = ORIENTED_EDGE ( 'NONE', *, *, #152, .T. ) ;
#283 = ORIENTED_EDGE ( 'NONE', *, *, #633, .F. ) ;
#284 = DIRECTION ( 'NONE',  ( -1.000000000000000000, 0.000000000000000000, 0.000000000000000000 ) ) ;
#285 = APPROVAL_STATUS ( 'not_yet_approved' ) ;
#286 = AXIS2_PLACEMENT_3D ( 'NONE', #396, #557, #414 ) ;
#287 = ORIENTED_EDGE ( 'NONE', *, *, #669, .T. ) ;
#288 = EDGE_LOOP ( 'NONE', ( #466, #287, #1014, #422 ) ) ;
#289 = DIRECTION ( 'NONE',  ( 0.000000000000000000, 0.000000000000000000, 1.000000000000000000 ) ) ;
#290 = DIRECTION ( 'NONE',  ( -1.000000000000000000, 0.000000000000000000, 0.000000000000000000 ) ) ;
#291 = CC_DESIGN_APPROVAL ( #329, ( #900 ) ) ;
#292 = PERSON_AND_ORGANIZATION ( #765, #33 ) ;
#293 = VERTEX_POINT ( 'NONE', #736 ) ;
#294 = DIRECTION ( 'NONE',  ( 0.000000000000000000, 0.000000000000000000, 1.000000000000000000 ) ) ;
#295 = VECTOR ( 'NONE', #250, 1000.000000000000000 ) ;
#296 = EDGE_LOOP ( 'NONE', ( #111, #77 ) ) ;
#297 = CIRCLE ( 'NONE', #260, 4.000000000000000000 ) ;
#298 = PLANE ( 'NONE',  #811 ) ;
#299 = CARTESIAN_POINT ( 'NONE',  ( 4.000000000000000000, 4.898587196589412829E-16, 4.000000000000000000 ) ) ;
#300 = VERTEX_POINT ( 'NONE', #223 ) ;
#301 = CIRCLE ( 'NONE', #480, 1.150000000000000799 ) ;
#302 = EDGE_CURVE ( 'NONE', #995, #510, #682, .T. ) ;
#303 = CARTESIAN_POINT ( 'NONE',  ( -5.850000000000000533, -7.000000000000000000, 4.000000000000003553 ) ) ;
#304 = CARTESIAN_POINT ( 'NONE',  ( 0.000000000000000000, 0.000000000000000000, 0.000000000000000000 ) ) ;
#305 = ADVANCED_FACE ( 'NONE', ( #574 ), #52, .F. ) ;
#306 = FACE_BOUND ( 'NONE', #585, .T. ) ;
#307 = ORIENTED_EDGE ( 'NONE', *, *, #822, .F. ) ;
#308 = CARTESIAN_POINT ( 'NONE',  ( -10.30000000000000071, 0.000000000000000000, 0.000000000000000000 ) ) ;
#309 = CYLINDRICAL_SURFACE ( 'NONE', #1017, 1.150000000000000799 ) ;
#310 = DIRECTION ( 'NONE',  ( 1.000000000000000000, 0.000000000000000000, 0.000000000000000000 ) ) ;
#311 = ORIENTED_EDGE ( 'NONE', *, *, #271, .F. ) ;
#312 = DIRECTION ( 'NONE',  ( 1.000000000000000000, 0.000000000000000000, 0.000000000000000000 ) ) ;
#313 = VECTOR ( 'NONE', #597, 1000.000000000000000 ) ;
#314 = DIRECTION ( 'NONE',  ( 1.000000000000000000, 0.000000000000000000, 0.000000000000000000 ) ) ;
#315 = LINE ( 'NONE', #417, #93 ) ;
#316 = EDGE_CURVE ( 'NONE', #760, #12, #909, .T. ) ;
#317 = ORIENTED_EDGE ( 'NONE', *, *, #425, .F. ) ;
#318 = DIRECTION ( 'NONE',  ( -0.000000000000000000, -0.000000000000000000, -1.000000000000000000 ) ) ;
#319 = AXIS2_PLACEMENT_3D ( 'NONE', #611, #1059, #284 ) ;
#320 = DIRECTION ( 'NONE',  ( 0.000000000000000000, 0.000000000000000000, 1.000000000000000000 ) ) ;
#321 = EDGE_CURVE ( 'NONE', #1051, #542, #627, .T. ) ;
#322 = DIRECTION ( 'NONE',  ( 0.000000000000000000, 0.000000000000000000, 1.000000000000000000 ) ) ;
#323 =( GEOMETRIC_REPRESENTATION_CONTEXT ( 3 ) GLOBAL_UNCERTAINTY_ASSIGNED_CONTEXT ( ( #256 ) ) GLOBAL_UNIT_ASSIGNED_CONTEXT ( ( #79, #943, #331 ) ) REPRESENTATION_CONTEXT ( 'NONE', 'WORKASPACE' ) );
#324 = ORIENTED_EDGE ( 'NONE', *, *, #457, .T. ) ;
#325 = CARTESIAN_POINT ( 'NONE',  ( 0.000000000000000000, 0.000000000000000000, 0.000000000000000000 ) ) ;
#326 = CARTESIAN_POINT ( 'NONE',  ( -8.150000000000000355, -2.149999999999999911, 0.000000000000000000 ) ) ;
#327 = CYLINDRICAL_SURFACE ( 'NONE', #1091, 2.149999999999999023 ) ;
#328 = VERTEX_POINT ( 'NONE', #738 ) ;
#329 = APPROVAL ( #115, 'UNSPECIFIED' ) ;
#330 = CARTESIAN_POINT ( 'NONE',  ( 5.849999999999999645, 7.000000000000000000, 4.000000000000003553 ) ) ;
#331 =( NAMED_UNIT ( * ) SI_UNIT ( $, .STERADIAN. ) SOLID_ANGLE_UNIT ( ) );
#332 = VERTEX_POINT ( 'NONE', #660 ) ;
#333 = DIRECTION ( 'NONE',  ( 1.000000000000000000, 0.000000000000000000, 0.000000000000000000 ) ) ;
#334 = FACE_OUTER_BOUND ( 'NONE', #49, .T. ) ;
#335 = VECTOR ( 'NONE', #97, 1000.000000000000000 ) ;
#336 = EDGE_CURVE ( 'NONE', #342, #103, #756, .T. ) ;
#337 = MECHANICAL_CONTEXT ( 'NONE', #137, 'mechanical' ) ;
#338 = ORIENTED_EDGE ( 'NONE', *, *, #218, .F. ) ;
#339 = DIRECTION ( 'NONE',  ( 1.000000000000000000, 0.000000000000000000, 0.000000000000000000 ) ) ;
#340 = CARTESIAN_POINT ( 'NONE',  ( -7.000000000000000000, -7.000000000000000000, -1.650000000000000355 ) ) ;
#341 = CARTESIAN_POINT ( 'NONE',  ( -8.150000000000000355, -2.149999999999999911, 0.000000000000000000 ) ) ;
#342 = VERTEX_POINT ( 'NONE', #1086 ) ;
#343 = LINE ( 'NONE', #1124, #984 ) ;
#344 = ORIENTED_EDGE ( 'NONE', *, *, #842, .F. ) ;
#345 = VECTOR ( 'NONE', #692, 1000.000000000000000 ) ;
#346 = CARTESIAN_POINT ( 'NONE',  ( 2.149999999999999911, -3.373054995104586062, 0.000000000000000000 ) ) ;
#347 = CARTESIAN_POINT ( 'NONE',  ( 4.000000000000000000, 4.898587196589412829E-16, 0.000000000000000000 ) ) ;
#348 = VECTOR ( 'NONE', #936, 1000.000000000000000 ) ;
#349 = ADVANCED_FACE ( 'NONE', ( #999 ), #309, .F. ) ;
#350 = DIRECTION ( 'NONE',  ( -0.000000000000000000, -0.000000000000000000, -1.000000000000000000 ) ) ;
#351 = EDGE_CURVE ( 'NONE', #332, #300, #1054, .T. ) ;
#352 = ORIENTED_EDGE ( 'NONE', *, *, #945, .F. ) ;
#353 = CARTESIAN_POINT ( 'NONE',  ( -2.149999999999999911, -8.150000000000000355, -1.649999999999999911 ) ) ;
#354 = DIRECTION ( 'NONE',  ( 0.000000000000000000, 0.000000000000000000, -1.000000000000000000 ) ) ;
#355 = CIRCLE ( 'NONE', #375, 2.149999999999999911 ) ;
#356 = EDGE_CURVE ( 'NONE', #783, #1058, #280, .T. ) ;
#357 = DIRECTION ( 'NONE',  ( 0.000000000000000000, -1.000000000000000000, 0.000000000000000000 ) ) ;
#358 = EDGE_CURVE ( 'NONE', #733, #505, #1012, .T. ) ;
#359 = ORIENTED_EDGE ( 'NONE', *, *, #626, .T. ) ;
#360 = VERTEX_POINT ( 'NONE', #1008 ) ;
#361 = DIRECTION ( 'NONE',  ( 1.000000000000000000, 0.000000000000000000, 0.000000000000000000 ) ) ;
#362 = DIRECTION ( 'NONE',  ( 1.000000000000000000, 0.000000000000000000, 0.000000000000000000 ) ) ;
#363 = CARTESIAN_POINT ( 'NONE',  ( 13.00000000000000000, 1.592040838891559095E-15, -1.649999999999999911 ) ) ;
#364 = ORIENTED_EDGE ( 'NONE', *, *, #70, .F. ) ;
#365 = EDGE_LOOP ( 'NONE', ( #278, #537, #198, #371 ) ) ;
#366 = CARTESIAN_POINT ( 'NONE',  ( 3.373054995104586062, -2.149999999999999911, 0.000000000000000000 ) ) ;
#367 = CARTESIAN_POINT ( 'NONE',  ( -3.373054995104586062, 2.149999999999999911, 0.000000000000000000 ) ) ;
#368 = VECTOR ( 'NONE', #964, 1000.000000000000000 ) ;
#369 = PERSON_AND_ORGANIZATION ( #765, #33 ) ;
#370 = CIRCLE ( 'NONE', #787, 1.150000000000000799 ) ;
#371 = ORIENTED_EDGE ( 'NONE', *, *, #118, .F. ) ;
#372 = ORIENTED_EDGE ( 'NONE', *, *, #532, .F. ) ;
#373 = CARTESIAN_POINT ( 'NONE',  ( -13.00000000000000000, 0.000000000000000000, -1.649999999999999911 ) ) ;
#374 = PERSON_AND_ORGANIZATION_ROLE ( 'classification_officer' ) ;
#375 = AXIS2_PLACEMENT_3D ( 'NONE', #13, #289, #981 ) ;
#376 = PLANE ( 'NONE',  #475 ) ;
#377 = ORIENTED_EDGE ( 'NONE', *, *, #471, .T. ) ;
#378 = FACE_OUTER_BOUND ( 'NONE', #946, .T. ) ;
#379 = CYLINDRICAL_SURFACE ( 'NONE', #94, 13.00000000000000000 ) ;
#380 = AXIS2_PLACEMENT_3D ( 'NONE', #1119, #252, #85 ) ;
#381 = PERSON_AND_ORGANIZATION ( #765, #33 ) ;
#382 = ORIENTED_EDGE ( 'NONE', *, *, #437, .T. ) ;
#383 = AXIS2_PLACEMENT_3D ( 'NONE', #1114, #695, #1044 ) ;
#384 = CARTESIAN_POINT ( 'NONE',  ( -8.150000000000000355, 0.000000000000000000, -1.649999999999999911 ) ) ;
#385 = COORDINATED_UNIVERSAL_TIME_OFFSET ( 6, 0, .BEHIND. ) ;
#386 = CIRCLE ( 'NONE', #576, 4.000000000000000000 ) ;
#387 = APPROVAL ( #630, 'UNSPECIFIED' ) ;
#388 = EDGE_LOOP ( 'NONE', ( #55, #529, #72, #801 ) ) ;
#389 = EDGE_CURVE ( 'NONE', #865, #293, #179, .T. ) ;
#390 = CIRCLE ( 'NONE', #5, 1.150000000000000799 ) ;
#391 = DIRECTION ( 'NONE',  ( 1.000000000000000000, 0.000000000000000000, 0.000000000000000000 ) ) ;
#392 = FACE_OUTER_BOUND ( 'NONE', #176, .T. ) ;
#393 = CARTESIAN_POINT ( 'NONE',  ( -8.150000000000000355, 2.149999999999999911, 0.000000000000000000 ) ) ;
#394 = EDGE_CURVE ( 'NONE', #26, #995, #229, .T. ) ;
#395 = ORIENTED_EDGE ( 'NONE', *, *, #996, .T. ) ;
#396 = CARTESIAN_POINT ( 'NONE',  ( 0.000000000000000000, 0.000000000000000000, 0.000000000000000000 ) ) ;
#397 = DIRECTION ( 'NONE',  ( 1.000000000000000000, 0.000000000000000000, 0.000000000000000000 ) ) ;
#398 = DIRECTION ( 'NONE',  ( -1.000000000000000000, -0.000000000000000000, -0.000000000000000000 ) ) ;
#399 = ORIENTED_EDGE ( 'NONE', *, *, #336, .T. ) ;
#400 = LINE ( 'NONE', #133, #9 ) ;
#401 = AXIS2_PLACEMENT_3D ( 'NONE', #427, #614, #170 ) ;
#402 = ADVANCED_FACE ( 'NONE', ( #582 ), #821, .T. ) ;
#403 = CARTESIAN_POINT ( 'NONE',  ( -2.149999999999999911, -3.373054995104586062, 0.000000000000000000 ) ) ;
#404 = LINE ( 'NONE', #651, #492 ) ;
#405 = VECTOR ( 'NONE', #251, 1000.000000000000000 ) ;
#406 = ORIENTED_EDGE ( 'NONE', *, *, #1023, .F. ) ;
#407 = CIRCLE ( 'NONE', #1038, 13.00000000000000000 ) ;
#408 = CARTESIAN_POINT ( 'NONE',  ( 5.849999999999999645, -7.000000000000000000, 4.000000000000003553 ) ) ;
#409 = AXIS2_PLACEMENT_3D ( 'NONE', #50, #926, #825 ) ;
#410 = CARTESIAN_POINT ( 'NONE',  ( -7.000000000000000000, -7.000000000000000000, -1.650000000000000355 ) ) ;
#411 = DIRECTION ( 'NONE',  ( 0.000000000000000000, 0.000000000000000000, -1.000000000000000000 ) ) ;
#412 = ORIENTED_EDGE ( 'NONE', *, *, #321, .T. ) ;
#413 = PRODUCT_DEFINITION_SHAPE ( 'NONE', 'NONE',  #581 ) ;
#414 = DIRECTION ( 'NONE',  ( 1.000000000000000000, 0.000000000000000000, 0.000000000000000000 ) ) ;
#415 = AXIS2_PLACEMENT_3D ( 'NONE', #635, #1065, #204 ) ;
#416 = FACE_BOUND ( 'NONE', #816, .T. ) ;
#417 = CARTESIAN_POINT ( 'NONE',  ( -2.149999999999999911, 3.373054995104586062, 0.000000000000000000 ) ) ;
#418 = APPROVAL_PERSON_ORGANIZATION ( #381, #935, #709 ) ;
#419 = ORIENTED_EDGE ( 'NONE', *, *, #271, .T. ) ;
#420 = CARTESIAN_POINT ( 'NONE',  ( -8.150000000000000355, 0.000000000000000000, 0.000000000000000000 ) ) ;
#421 = DIRECTION ( 'NONE',  ( 1.000000000000000000, 0.000000000000000000, 0.000000000000000000 ) ) ;
#422 = ORIENTED_EDGE ( 'NONE', *, *, #1073, .T. ) ;
#423 = AXIS2_PLACEMENT_3D ( 'NONE', #916, #135, #749 ) ;
#424 = EDGE_CURVE ( 'NONE', #463, #212, #764, .T. ) ;
#425 = EDGE_CURVE ( 'NONE', #805, #463, #643, .T. ) ;
#426 = DIRECTION ( 'NONE',  ( 1.000000000000000000, 0.000000000000000000, 0.000000000000000000 ) ) ;
#427 = CARTESIAN_POINT ( 'NONE',  ( 0.000000000000000000, 0.000000000000000000, 0.000000000000000000 ) ) ;
#428 = ORIENTED_EDGE ( 'NONE', *, *, #669, .F. ) ;
#429 = FACE_OUTER_BOUND ( 'NONE', #989, .T. ) ;
#430 = CARTESIAN_POINT ( 'NONE',  ( -5.850000000000000533, 7.000000000000000000, 4.000000000000003553 ) ) ;
#431 = AXIS2_PLACEMENT_3D ( 'NONE', #1081, #318, #391 ) ;
#432 = FACE_OUTER_BOUND ( 'NONE', #938, .T. ) ;
#433 = CARTESIAN_POINT ( 'NONE',  ( -2.149999999999999911, 8.150000000000000355, 0.000000000000000000 ) ) ;
#434 = ORIENTED_EDGE ( 'NONE', *, *, #302, .T. ) ;
#435 = DIRECTION ( 'NONE',  ( 0.000000000000000000, 0.000000000000000000, 1.000000000000000000 ) ) ;
#436 = EDGE_CURVE ( 'NONE', #12, #332, #63, .T. ) ;
#437 = EDGE_CURVE ( 'NONE', #615, #620, #58, .T. ) ;
#438 = CARTESIAN_POINT ( 'NONE',  ( -7.000000000000000000, 7.000000000000000000, -1.650000000000000355 ) ) ;
#439 = ORIENTED_EDGE ( 'NONE', *, *, #871, .T. ) ;
#440 = ORIENTED_EDGE ( 'NONE', *, *, #613, .T. ) ;
#441 = AXIS2_PLACEMENT_3D ( 'NONE', #772, #1122, #685 ) ;
#442 = DIRECTION ( 'NONE',  ( -0.000000000000000000, -0.000000000000000000, 1.000000000000000000 ) ) ;
#443 = ADVANCED_FACE ( 'NONE', ( #493, #416, #306, #216, #129, #478 ), #519, .F. ) ;
#444 = CARTESIAN_POINT ( 'NONE',  ( -7.000000000000000000, -7.000000000000000000, 4.000000000000003553 ) ) ;
#445 = VECTOR ( 'NONE', #219, 1000.000000000000000 ) ;
#446 = EDGE_CURVE ( 'NONE', #1058, #510, #272, .T. ) ;
#447 = CARTESIAN_POINT ( 'NONE',  ( 7.000000000000000000, -7.000000000000000000, 4.000000000000003553 ) ) ;
#448 = ORIENTED_EDGE ( 'NONE', *, *, #1078, .F. ) ;
#449 = ORIENTED_EDGE ( 'NONE', *, *, #591, .F. ) ;
#450 = DIRECTION ( 'NONE',  ( 0.000000000000000000, 0.000000000000000000, 1.000000000000000000 ) ) ;
#451 = DIRECTION ( 'NONE',  ( -0.000000000000000000, -0.000000000000000000, -1.000000000000000000 ) ) ;
#452 = PLANE ( 'NONE',  #163 ) ;
#453 = ORIENTED_EDGE ( 'NONE', *, *, #624, .T. ) ;
#454 = DIRECTION ( 'NONE',  ( 1.000000000000000000, 0.000000000000000000, -0.000000000000000000 ) ) ;
#455 = EDGE_LOOP ( 'NONE', ( #771, #192, #777, #1055 ) ) ;
#456 = ORIENTED_EDGE ( 'NONE', *, *, #553, .F. ) ;
#457 = EDGE_CURVE ( 'NONE', #1027, #979, #743, .T. ) ;
#458 = FACE_BOUND ( 'NONE', #296, .T. ) ;
#459 = FACE_OUTER_BOUND ( 'NONE', #365, .T. ) ;
#460 = APPROVAL_DATE_TIME ( #701, #329 ) ;
#461 = ORIENTED_EDGE ( 'NONE', *, *, #734, .T. ) ;
#462 = CIRCLE ( 'NONE', #562, 1.149999999999999911 ) ;
#463 = VERTEX_POINT ( 'NONE', #265 ) ;
#464 = CARTESIAN_POINT ( 'NONE',  ( 3.373054995104586062, 2.149999999999999911, 0.000000000000000000 ) ) ;
#465 = PERSON_AND_ORGANIZATION_ROLE ( 'creator' ) ;
#466 = ORIENTED_EDGE ( 'NONE', *, *, #145, .F. ) ;
#467 = ORIENTED_EDGE ( 'NONE', *, *, #351, .T. ) ;
#468 = DIRECTION ( 'NONE',  ( 1.000000000000000000, 0.000000000000000000, 0.000000000000000000 ) ) ;
#469 = PERSON_AND_ORGANIZATION ( #765, #33 ) ;
#470 = EDGE_CURVE ( 'NONE', #620, #625, #1, .T. ) ;
#471 = EDGE_CURVE ( 'NONE', #103, #662, #1034, .T. ) ;
#472 = ORIENTED_EDGE ( 'NONE', *, *, #664, .T. ) ;
#473 = DIRECTION ( 'NONE',  ( 0.000000000000000000, 0.000000000000000000, 1.000000000000000000 ) ) ;
#474 = EDGE_CURVE ( 'NONE', #883, #45, #1024, .T. ) ;
#475 = AXIS2_PLACEMENT_3D ( 'NONE', #205, #528, #799 ) ;
#476 = ORIENTED_EDGE ( 'NONE', *, *, #470, .T. ) ;
#477 = CARTESIAN_POINT ( 'NONE',  ( -8.150000000000000355, 2.149999999999999911, 0.000000000000000000 ) ) ;
#478 = FACE_BOUND ( 'NONE', #874, .T. ) ;
#479 = DIRECTION ( 'NONE',  ( 1.000000000000000000, 0.000000000000000000, 0.000000000000000000 ) ) ;
#480 = AXIS2_PLACEMENT_3D ( 'NONE', #813, #105, #897 ) ;
#481 = VERTEX_POINT ( 'NONE', #958 ) ;
#482 = DIRECTION ( 'NONE',  ( -0.000000000000000000, -0.000000000000000000, -1.000000000000000000 ) ) ;
#483 = CARTESIAN_POINT ( 'NONE',  ( 2.149999999999999911, 8.150000000000000355, 0.000000000000000000 ) ) ;
#484 = CARTESIAN_POINT ( 'NONE',  ( 7.000000000000000000, 7.000000000000000000, -1.650000000000000355 ) ) ;
#485 = ORIENTED_EDGE ( 'NONE', *, *, #1104, .T. ) ;
#486 = DIRECTION ( 'NONE',  ( -1.000000000000000000, 0.000000000000000000, 0.000000000000000000 ) ) ;
#487 = DIRECTION ( 'NONE',  ( 0.000000000000000000, 0.000000000000000000, -1.000000000000000000 ) ) ;
#488 = FACE_OUTER_BOUND ( 'NONE', #1045, .T. ) ;
#489 = VECTOR ( 'NONE', #122, 1000.000000000000000 ) ;
#490 = ORIENTED_EDGE ( 'NONE', *, *, #1105, .F. ) ;
#491 = CARTESIAN_POINT ( 'NONE',  ( -2.149999999999999911, -8.150000000000000355, 0.000000000000000000 ) ) ;
#492 = VECTOR ( 'NONE', #913, 1000.000000000000000 ) ;
#493 = FACE_BOUND ( 'NONE', #1068, .T. ) ;
#494 = DIRECTION ( 'NONE',  ( 1.000000000000000000, 0.000000000000000000, 0.000000000000000000 ) ) ;
#495 = EDGE_LOOP ( 'NONE', ( #833, #653, #809, #406, #123, #166, #264, #131, #861, #186, #1057, #522 ) ) ;
#496 = AXIS2_PLACEMENT_3D ( 'NONE', #119, #544, #468 ) ;
#497 = DIRECTION ( 'NONE',  ( 1.000000000000000000, 0.000000000000000000, 0.000000000000000000 ) ) ;
#498 = LINE ( 'NONE', #60, #164 ) ;
#499 = EDGE_CURVE ( 'NONE', #542, #191, #69, .T. ) ;
#500 = ADVANCED_FACE ( 'NONE', ( #768 ), #258, .T. ) ;
#501 = EDGE_LOOP ( 'NONE', ( #712, #68, #277, #784 ) ) ;
#502 = CARTESIAN_POINT ( 'NONE',  ( 8.150000000000000355, -2.149999999999999911, -1.649999999999999911 ) ) ;
#503 = PLANE ( 'NONE',  #30 ) ;
#504 = CARTESIAN_POINT ( 'NONE',  ( 0.000000000000000000, 0.000000000000000000, 4.000000000000000000 ) ) ;
#505 = VERTEX_POINT ( 'NONE', #1047 ) ;
#506 = LINE ( 'NONE', #688, #618 ) ;
#507 = VECTOR ( 'NONE', #1005, 1000.000000000000000 ) ;
#508 = PERSON_AND_ORGANIZATION ( #765, #33 ) ;
#509 = DIRECTION ( 'NONE',  ( 1.000000000000000000, 0.000000000000000000, 0.000000000000000000 ) ) ;
#510 = VERTEX_POINT ( 'NONE', #346 ) ;
#511 = ADVANCED_FACE ( 'NONE', ( #78 ), #948, .T. ) ;
#512 = CARTESIAN_POINT ( 'NONE',  ( 3.373054995104586062, 2.149999999999999911, 0.000000000000000000 ) ) ;
#513 = VECTOR ( 'NONE', #700, 1000.000000000000000 ) ;
#514 = DIRECTION ( 'NONE',  ( 0.000000000000000000, 0.000000000000000000, 1.000000000000000000 ) ) ;
#515 = DIRECTION ( 'NONE',  ( 0.000000000000000000, 0.000000000000000000, -1.000000000000000000 ) ) ;
#516 = ORIENTED_EDGE ( 'NONE', *, *, #517, .T. ) ;
#517 = EDGE_CURVE ( 'NONE', #12, #760, #134, .T. ) ;
#518 = VERTEX_POINT ( 'NONE', #430 ) ;
#519 = PLANE ( 'NONE',  #835 ) ;
#520 = CYLINDRICAL_SURFACE ( 'NONE', #211, 2.149999999999999023 ) ;
#521 = LINE ( 'NONE', #702, #687 ) ;
#522 = ORIENTED_EDGE ( 'NONE', *, *, #869, .F. ) ;
#523 = AXIS2_PLACEMENT_3D ( 'NONE', #410, #1090, #559 ) ;
#524 = ORIENTED_EDGE ( 'NONE', *, *, #871, .F. ) ;
#525 = DIRECTION ( 'NONE',  ( 0.000000000000000000, 0.000000000000000000, -1.000000000000000000 ) ) ;
#526 = CARTESIAN_POINT ( 'NONE',  ( 5.849999999999999645, 7.000000000000000000, -1.650000000000000355 ) ) ;
#527 = VECTOR ( 'NONE', #310, 1000.000000000000000 ) ;
#528 = DIRECTION ( 'NONE',  ( -1.000000000000000000, 0.000000000000000000, 0.000000000000000000 ) ) ;
#529 = ORIENTED_EDGE ( 'NONE', *, *, #699, .T. ) ;
#530 = DIRECTION ( 'NONE',  ( 1.000000000000000000, 0.000000000000000000, 0.000000000000000000 ) ) ;
#531 = DATE_TIME_ROLE ( 'creation_date' ) ;
#532 = EDGE_CURVE ( 'NONE', #851, #719, #506, .T. ) ;
#533 = CARTESIAN_POINT ( 'NONE',  ( -2.149999999999999911, -3.373054995104586062, -1.649999999999999911 ) ) ;
#534 = ORIENTED_EDGE ( 'NONE', *, *, #39, .T. ) ;
#535 = ADVANCED_FACE ( 'NONE', ( #334 ), #858, .T. ) ;
#536 = ORIENTED_EDGE ( 'NONE', *, *, #67, .T. ) ;
#537 = ORIENTED_EDGE ( 'NONE', *, *, #957, .T. ) ;
#538 = DIRECTION ( 'NONE',  ( -1.000000000000000000, -0.000000000000000000, -0.000000000000000000 ) ) ;
#539 = DIRECTION ( 'NONE',  ( 1.000000000000000000, 0.000000000000000000, 0.000000000000000000 ) ) ;
#540 = CALENDAR_DATE ( 2026, 8, 9 ) ;
#541 = VECTOR ( 'NONE', #690, 1000.000000000000000 ) ;
#542 = VERTEX_POINT ( 'NONE', #601 ) ;
#543 = AXIS2_PLACEMENT_3D ( 'NONE', #590, #435, #426 ) ;
#544 = DIRECTION ( 'NONE',  ( 0.000000000000000000, 0.000000000000000000, 1.000000000000000000 ) ) ;
#545 = PERSON_AND_ORGANIZATION ( #765, #33 ) ;
#546 = AXIS2_PLACEMENT_3D ( 'NONE', #644, #584, #149 ) ;
#547 = ORIENTED_EDGE ( 'NONE', *, *, #394, .F. ) ;
#548 = EDGE_CURVE ( 'NONE', #783, #138, #159, .T. ) ;
#549 = DIRECTION ( 'NONE',  ( 0.000000000000000000, 0.000000000000000000, 1.000000000000000000 ) ) ;
#550 = ADVANCED_FACE ( 'NONE', ( #774 ), #1117, .F. ) ;
#551 = AXIS2_PLACEMENT_3D ( 'NONE', #991, #731, #748 ) ;
#552 = ORIENTED_EDGE ( 'NONE', *, *, #956, .T. ) ;
#553 = EDGE_CURVE ( 'NONE', #979, #1040, #1107, .T. ) ;
#554 = CARTESIAN_POINT ( 'NONE',  ( -13.00000000000000000, 0.000000000000000000, 4.000000000000000000 ) ) ;
#555 = CC_DESIGN_APPROVAL ( #387, ( #581 ) ) ;
#556 = ORIENTED_EDGE ( 'NONE', *, *, #37, .F. ) ;
#557 = DIRECTION ( 'NONE',  ( 0.000000000000000000, 0.000000000000000000, 1.000000000000000000 ) ) ;
#558 = CARTESIAN_POINT ( 'NONE',  ( 2.149999999999999911, -3.373054995104586062, 0.000000000000000000 ) ) ;
#559 = DIRECTION ( 'NONE',  ( 1.000000000000000000, 0.000000000000000000, 0.000000000000000000 ) ) ;
#560 = AXIS2_PLACEMENT_3D ( 'NONE', #224, #649, #44 ) ;
#561 = CARTESIAN_POINT ( 'NONE',  ( 0.000000000000000000, 0.000000000000000000, 0.000000000000000000 ) ) ;
#562 = AXIS2_PLACEMENT_3D ( 'NONE', #340, #451, #1026 ) ;
#563 = EDGE_LOOP ( 'NONE', ( #740, #324, #803, #165 ) ) ;
#564 = DIRECTION ( 'NONE',  ( 0.000000000000000000, 0.000000000000000000, -1.000000000000000000 ) ) ;
#565 = DIRECTION ( 'NONE',  ( -0.000000000000000000, -0.000000000000000000, -1.000000000000000000 ) ) ;
#566 = CARTESIAN_POINT ( 'NONE',  ( 2.149999999999999911, -8.150000000000000355, 0.000000000000000000 ) ) ;
#567 = VERTEX_POINT ( 'NONE', #587 ) ;
#568 = ADVANCED_FACE ( 'NONE', ( #941 ), #503, .T. ) ;
#569 = LINE ( 'NONE', #46, #595 ) ;
#570 = DIRECTION ( 'NONE',  ( -0.000000000000000000, 1.000000000000000000, 0.000000000000000000 ) ) ;
#571 = DIRECTION ( 'NONE',  ( -0.000000000000000000, 1.000000000000000000, 0.000000000000000000 ) ) ;
#572 = ORIENTED_EDGE ( 'NONE', *, *, #234, .T. ) ;
#573 = DIRECTION ( 'NONE',  ( 0.000000000000000000, -0.000000000000000000, -1.000000000000000000 ) ) ;
#574 = FACE_OUTER_BOUND ( 'NONE', #495, .T. ) ;
#575 = CARTESIAN_POINT ( 'NONE',  ( 8.150000000000000355, 0.000000000000000000, 0.000000000000000000 ) ) ;
#576 = AXIS2_PLACEMENT_3D ( 'NONE', #83, #1032, #167 ) ;
#577 = DIRECTION ( 'NONE',  ( 0.000000000000000000, 0.000000000000000000, 1.000000000000000000 ) ) ;
#578 = ORIENTED_EDGE ( 'NONE', *, *, #869, .T. ) ;
#579 = DIRECTION ( 'NONE',  ( 0.000000000000000000, 0.000000000000000000, 1.000000000000000000 ) ) ;
#580 = CIRCLE ( 'NONE', #839, 13.00000000000000000 ) ;
#581 = PRODUCT_DEFINITION ( 'UNKNOWN', '', #121, #646 ) ;
#582 = FACE_OUTER_BOUND ( 'NONE', #288, .T. ) ;
#583 = EDGE_CURVE ( 'NONE', #542, #983, #102, .T. ) ;
#584 = DIRECTION ( 'NONE',  ( 0.000000000000000000, 0.000000000000000000, 1.000000000000000000 ) ) ;
#585 = EDGE_LOOP ( 'NONE', ( #621, #364 ) ) ;
#586 = EDGE_CURVE ( 'NONE', #10, #615, #169, .T. ) ;
#587 = CARTESIAN_POINT ( 'NONE',  ( 3.373054995104586062, -2.149999999999999911, 0.000000000000000000 ) ) ;
#588 = DIRECTION ( 'NONE',  ( -1.000000000000000000, 0.000000000000000000, 0.000000000000000000 ) ) ;
#589 = ORIENTED_EDGE ( 'NONE', *, *, #992, .T. ) ;
#590 = CARTESIAN_POINT ( 'NONE',  ( 0.000000000000000000, 8.150000000000000355, -1.649999999999999911 ) ) ;
#591 = EDGE_CURVE ( 'NONE', #805, #518, #796, .T. ) ;
#592 = DIRECTION ( 'NONE',  ( -0.000000000000000000, -0.000000000000000000, -1.000000000000000000 ) ) ;
#593 = EDGE_LOOP ( 'NONE', ( #973, #453, #461, #456 ) ) ;
#594 = DIRECTION ( 'NONE',  ( 0.000000000000000000, 0.000000000000000000, -1.000000000000000000 ) ) ;
#595 = VECTOR ( 'NONE', #922, 1000.000000000000000 ) ;
#596 = AXIS2_PLACEMENT_3D ( 'NONE', #447, #873, #1049 ) ;
#597 = DIRECTION ( 'NONE',  ( 0.000000000000000000, 0.000000000000000000, -1.000000000000000000 ) ) ;
#598 = PLANE ( 'NONE',  #262 ) ;
#599 = ORIENTED_EDGE ( 'NONE', *, *, #880, .F. ) ;
#600 = ORIENTED_EDGE ( 'NONE', *, *, #517, .F. ) ;
#601 = CARTESIAN_POINT ( 'NONE',  ( -3.373054995104586062, 2.149999999999999911, -1.649999999999999911 ) ) ;
#602 = AXIS2_PLACEMENT_3D ( 'NONE', #477, #735, #573 ) ;
#603 = DIRECTION ( 'NONE',  ( 1.000000000000000000, 0.000000000000000000, 0.000000000000000000 ) ) ;
#604 = DIRECTION ( 'NONE',  ( -0.000000000000000000, -0.000000000000000000, -1.000000000000000000 ) ) ;
#605 = LOCAL_TIME ( 17, 4, 24.00000000000000000, #385 ) ;
#606 = ORIENTED_EDGE ( 'NONE', *, *, #474, .T. ) ;
#607 = DIRECTION ( 'NONE',  ( -1.000000000000000000, 0.000000000000000000, -0.000000000000000000 ) ) ;
#608 = DIRECTION ( 'NONE',  ( 1.000000000000000000, -0.000000000000000000, 0.000000000000000000 ) ) ;
#609 = EDGE_LOOP ( 'NONE', ( #1064, #572, #779, #317 ) ) ;
#610 = ORIENTED_EDGE ( 'NONE', *, *, #302, .F. ) ;
#611 = CARTESIAN_POINT ( 'NONE',  ( 0.000000000000000000, 8.150000000000000355, 0.000000000000000000 ) ) ;
#612 = ADVANCED_FACE ( 'NONE', ( #114, #985, #199, #458, #378, #722 ), #298, .T. ) ;
#613 = EDGE_CURVE ( 'NONE', #202, #719, #301, .T. ) ;
#614 = DIRECTION ( 'NONE',  ( 0.000000000000000000, 0.000000000000000000, 1.000000000000000000 ) ) ;
#615 = VERTEX_POINT ( 'NONE', #806 ) ;
#616 = ORIENTED_EDGE ( 'NONE', *, *, #437, .F. ) ;
#617 = CARTESIAN_POINT ( 'NONE',  ( -8.150000000000000355, -2.149999999999999911, -1.649999999999999911 ) ) ;
#618 = VECTOR ( 'NONE', #84, 1000.000000000000000 ) ;
#619 = CALENDAR_DATE ( 2026, 8, 9 ) ;
#620 = VERTEX_POINT ( 'NONE', #464 ) ;
#621 = ORIENTED_EDGE ( 'NONE', *, *, #424, .F. ) ;
#622 = DIRECTION ( 'NONE',  ( 0.000000000000000000, 0.000000000000000000, -1.000000000000000000 ) ) ;
#623 = PERSON_AND_ORGANIZATION_ROLE ( 'design_supplier' ) ;
#624 = EDGE_CURVE ( 'NONE', #1027, #184, #187, .T. ) ;
#625 = VERTEX_POINT ( 'NONE', #628 ) ;
#626 = EDGE_CURVE ( 'NONE', #983, #686, #827, .T. ) ;
#627 = CIRCLE ( 'NONE', #143, 4.000000000000000000 ) ;
#628 = CARTESIAN_POINT ( 'NONE',  ( 3.373054995104586062, 2.149999999999999911, -1.649999999999999911 ) ) ;
#629 = DIRECTION ( 'NONE',  ( -1.000000000000000000, 0.000000000000000000, 0.000000000000000000 ) ) ;
#630 = APPROVAL_STATUS ( 'not_yet_approved' ) ;
#631 = CLOSED_SHELL ( 'NONE', ( #737, #1080, #1061, #147, #1118, #217, #132, #443, #402, #789, #20, #961, #196, #511, #113, #568, #612, #758, #305, #535, #500, #751, #182, #775, #672, #550, #911, #349, #663, #1036, #100 ) ) ;
#632 = CIRCLE ( 'NONE', #409, 2.149999999999999023 ) ;
#633 = EDGE_CURVE ( 'NONE', #518, #805, #773, .T. ) ;
#634 = VERTEX_POINT ( 'NONE', #373 ) ;
#635 = CARTESIAN_POINT ( 'NONE',  ( -7.000000000000000000, 7.000000000000000000, 4.000000000000003553 ) ) ;
#636 = CARTESIAN_POINT ( 'NONE',  ( 2.149999999999999911, -8.150000000000000355, -1.649999999999999911 ) ) ;
#637 = VECTOR ( 'NONE', #354, 1000.000000000000000 ) ;
#638 = EDGE_LOOP ( 'NONE', ( #556, #962, #24, #467 ) ) ;
#639 = CARTESIAN_POINT ( 'NONE',  ( -8.150000000000000355, -2.149999999999999911, -1.649999999999999911 ) ) ;
#640 = LINE ( 'NONE', #106, #1022 ) ;
#641 = CC_DESIGN_DATE_AND_TIME_ASSIGNMENT ( #723, #195, ( #900 ) ) ;
#642 = CC_DESIGN_SECURITY_CLASSIFICATION ( #900, ( #121 ) ) ;
#643 = LINE ( 'NONE', #140, #704 ) ;
#644 = CARTESIAN_POINT ( 'NONE',  ( 0.000000000000000000, 0.000000000000000000, 0.000000000000000000 ) ) ;
#645 = ORIENTED_EDGE ( 'NONE', *, *, #358, .F. ) ;
#646 = DESIGN_CONTEXT ( 'detailed design', #237, 'design' ) ;
#647 = CYLINDRICAL_SURFACE ( 'NONE', #64, 1.150000000000000799 ) ;
#648 = EDGE_CURVE ( 'NONE', #686, #675, #355, .T. ) ;
#649 = DIRECTION ( 'NONE',  ( -0.000000000000000000, -0.000000000000000000, -1.000000000000000000 ) ) ;
#650 = EDGE_CURVE ( 'NONE', #851, #747, #80, .T. ) ;
#651 = CARTESIAN_POINT ( 'NONE',  ( 8.150000000000000355, 2.149999999999999911, 0.000000000000000000 ) ) ;
#652 = AXIS2_PLACEMENT_3D ( 'NONE', #881, #98, #588 ) ;
#653 = ORIENTED_EDGE ( 'NONE', *, *, #239, .T. ) ;
#654 = CARTESIAN_POINT ( 'NONE',  ( 0.000000000000000000, 0.000000000000000000, -1.649999999999999911 ) ) ;
#655 = CARTESIAN_POINT ( 'NONE',  ( 0.000000000000000000, 0.000000000000000000, 4.000000000000000000 ) ) ;
#656 = CARTESIAN_POINT ( 'NONE',  ( -2.149999999999999911, -8.150000000000000355, 0.000000000000000000 ) ) ;
#657 = AXIS2_PLACEMENT_3D ( 'NONE', #848, #786, #1042 ) ;
#658 = ORIENTED_EDGE ( 'NONE', *, *, #583, .T. ) ;
#659 = CYLINDRICAL_SURFACE ( 'NONE', #753, 2.149999999999999911 ) ;
#660 = CARTESIAN_POINT ( 'NONE',  ( -8.150000000000000355, -7.000000000000000000, -1.650000000000000355 ) ) ;
#661 = CARTESIAN_POINT ( 'NONE',  ( 0.000000000000000000, -8.150000000000000355, -1.649999999999999911 ) ) ;
#662 = VERTEX_POINT ( 'NONE', #727 ) ;
#663 = ADVANCED_FACE ( 'NONE', ( #802 ), #810, .F. ) ;
#664 = EDGE_CURVE ( 'NONE', #725, #686, #878, .T. ) ;
#665 = CARTESIAN_POINT ( 'NONE',  ( 2.149999999999999911, -3.373054995104586062, -1.649999999999999911 ) ) ;
#666 = CARTESIAN_POINT ( 'NONE',  ( -8.150000000000000355, -7.000000000000000000, 4.000000000000003553 ) ) ;
#667 = DIRECTION ( 'NONE',  ( -1.000000000000000000, 0.000000000000000000, 0.000000000000000000 ) ) ;
#668 = VECTOR ( 'NONE', #146, 1000.000000000000000 ) ;
#669 = EDGE_CURVE ( 'NONE', #293, #567, #795, .T. ) ;
#670 = VERTEX_POINT ( 'NONE', #1053 ) ;
#671 = CIRCLE ( 'NONE', #746, 1.150000000000000799 ) ;
#672 = ADVANCED_FACE ( 'NONE', ( #279 ), #706, .F. ) ;
#673 = CARTESIAN_POINT ( 'NONE',  ( 2.149999999999999911, -8.150000000000000355, 0.000000000000000000 ) ) ;
#674 = LINE ( 'NONE', #91, #313 ) ;
#675 = VERTEX_POINT ( 'NONE', #617 ) ;
#676 = CARTESIAN_POINT ( 'NONE',  ( -5.850000000000000533, 7.000000000000000000, 4.000000000000003553 ) ) ;
#677 = CARTESIAN_POINT ( 'NONE',  ( 0.000000000000000000, 0.000000000000000000, 0.000000000000000000 ) ) ;
#678 = ORIENTED_EDGE ( 'NONE', *, *, #792, .T. ) ;
#679 = LINE ( 'NONE', #676, #295 ) ;
#680 = CARTESIAN_POINT ( 'NONE',  ( 0.000000000000000000, 0.000000000000000000, -1.649999999999999911 ) ) ;
#681 = DIRECTION ( 'NONE',  ( -1.000000000000000000, 0.000000000000000000, 0.000000000000000000 ) ) ;
#682 = CIRCLE ( 'NONE', #257, 4.000000000000000000 ) ;
#683 = FACE_OUTER_BOUND ( 'NONE', #388, .T. ) ;
#684 = ORIENTED_EDGE ( 'NONE', *, *, #626, .F. ) ;
#685 = DIRECTION ( 'NONE',  ( -1.000000000000000000, 0.000000000000000000, 0.000000000000000000 ) ) ;
#686 = VERTEX_POINT ( 'NONE', #975 ) ;
#687 = VECTOR ( 'NONE', #515, 1000.000000000000000 ) ;
#688 = CARTESIAN_POINT ( 'NONE',  ( 5.849999999999999645, -7.000000000000000000, 4.000000000000003553 ) ) ;
#689 = CARTESIAN_POINT ( 'NONE',  ( -8.150000000000000355, -2.149999999999999911, 0.000000000000000000 ) ) ;
#690 = DIRECTION ( 'NONE',  ( -1.000000000000000000, -0.000000000000000000, -0.000000000000000000 ) ) ;
#691 = EDGE_LOOP ( 'NONE', ( #600, #8 ) ) ;
#692 = DIRECTION ( 'NONE',  ( -0.000000000000000000, -0.000000000000000000, 1.000000000000000000 ) ) ;
#693 = VECTOR ( 'NONE', #538, 1000.000000000000000 ) ;
#694 = CARTESIAN_POINT ( 'NONE',  ( 2.149999999999999911, -8.150000000000000355, 0.000000000000000000 ) ) ;
#695 = DIRECTION ( 'NONE',  ( 0.000000000000000000, 0.000000000000000000, 1.000000000000000000 ) ) ;
#696 = ORIENTED_EDGE ( 'NONE', *, *, #51, .F. ) ;
#697 = VERTEX_POINT ( 'NONE', #193 ) ;
#698 = EDGE_CURVE ( 'NONE', #360, #61, #400, .T. ) ;
#699 = EDGE_CURVE ( 'NONE', #747, #851, #974, .T. ) ;
#700 = DIRECTION ( 'NONE',  ( -0.000000000000000000, -0.000000000000000000, 1.000000000000000000 ) ) ;
#701 = DATE_AND_TIME ( #982, #1029 ) ;
#702 = CARTESIAN_POINT ( 'NONE',  ( -5.850000000000000533, -7.000000000000000000, 4.000000000000003553 ) ) ;
#703 = ORIENTED_EDGE ( 'NONE', *, *, #867, .T. ) ;
#704 = VECTOR ( 'NONE', #487, 1000.000000000000000 ) ;
#705 = ORIENTED_EDGE ( 'NONE', *, *, #1078, .T. ) ;
#706 = CYLINDRICAL_SURFACE ( 'NONE', #319, 2.149999999999999911 ) ;
#707 = FACE_OUTER_BOUND ( 'NONE', #1063, .T. ) ;
#708 = VECTOR ( 'NONE', #1112, 1000.000000000000000 ) ;
#709 = APPROVAL_ROLE ( '' ) ;
#710 = ORIENTED_EDGE ( 'NONE', *, *, #19, .F. ) ;
#711 = ORIENTED_EDGE ( 'NONE', *, *, #218, .T. ) ;
#712 = ORIENTED_EDGE ( 'NONE', *, *, #234, .F. ) ;
#713 = CARTESIAN_POINT ( 'NONE',  ( 0.000000000000000000, 0.000000000000000000, 4.000000000000000000 ) ) ;
#714 = DIRECTION ( 'NONE',  ( 0.000000000000000000, 0.000000000000000000, -1.000000000000000000 ) ) ;
#715 = CC_DESIGN_PERSON_AND_ORGANIZATION_ASSIGNMENT ( #545, #374, ( #900 ) ) ;
#716 = AXIS2_PLACEMENT_3D ( 'NONE', #677, #168, #607 ) ;
#717 = APPROVAL_ROLE ( '' ) ;
#718 = EDGE_CURVE ( 'NONE', #505, #360, #1113, .T. ) ;
#719 = VERTEX_POINT ( 'NONE', #227 ) ;
#720 = ORIENTED_EDGE ( 'NONE', *, *, #270, .T. ) ;
#721 = ORIENTED_EDGE ( 'NONE', *, *, #188, .T. ) ;
#722 = FACE_BOUND ( 'NONE', #829, .T. ) ;
#723 = DATE_AND_TIME ( #540, #942 ) ;
#724 = VECTOR ( 'NONE', #604, 1000.000000000000000 ) ;
#725 = VERTEX_POINT ( 'NONE', #308 ) ;
#726 = AXIS2_PLACEMENT_3D ( 'NONE', #11, #577, #1095 ) ;
#727 = CARTESIAN_POINT ( 'NONE',  ( -2.149999999999999911, 8.150000000000000355, -1.649999999999999911 ) ) ;
#728 = DATE_AND_TIME ( #619, #158 ) ;
#729 = VECTOR ( 'NONE', #745, 1000.000000000000000 ) ;
#730 = EDGE_LOOP ( 'NONE', ( #1123, #485, #440, #372 ) ) ;
#731 = DIRECTION ( 'NONE',  ( 0.000000000000000000, 0.000000000000000000, 1.000000000000000000 ) ) ;
#732 = CARTESIAN_POINT ( 'NONE',  ( 0.000000000000000000, 0.000000000000000000, 0.000000000000000000 ) ) ;
#733 = VERTEX_POINT ( 'NONE', #819 ) ;
#734 = EDGE_CURVE ( 'NONE', #184, #1040, #917, .T. ) ;
#735 = DIRECTION ( 'NONE',  ( 0.000000000000000000, -1.000000000000000000, 0.000000000000000000 ) ) ;
#736 = CARTESIAN_POINT ( 'NONE',  ( 3.373054995104586062, -2.149999999999999911, -1.649999999999999911 ) ) ;
#737 = ADVANCED_FACE ( 'NONE', ( #1007 ), #647, .F. ) ;
#738 = CARTESIAN_POINT ( 'NONE',  ( -8.150000000000000355, -2.149999999999999911, 0.000000000000000000 ) ) ;
#739 = LINE ( 'NONE', #1087, #527 ) ;
#740 = ORIENTED_EDGE ( 'NONE', *, *, #624, .F. ) ;
#741 = AXIS2_PLACEMENT_3D ( 'NONE', #814, #714, #629 ) ;
#742 = DIRECTION ( 'NONE',  ( -0.000000000000000000, -0.000000000000000000, -1.000000000000000000 ) ) ;
#743 = CIRCLE ( 'NONE', #891, 1.150000000000000799 ) ;
#744 = DIRECTION ( 'NONE',  ( 0.000000000000000000, -0.000000000000000000, 1.000000000000000000 ) ) ;
#745 = DIRECTION ( 'NONE',  ( 0.000000000000000000, 1.000000000000000000, 0.000000000000000000 ) ) ;
#746 = AXIS2_PLACEMENT_3D ( 'NONE', #1085, #1089, #312 ) ;
#747 = VERTEX_POINT ( 'NONE', #1094 ) ;
#748 = DIRECTION ( 'NONE',  ( 1.000000000000000000, 0.000000000000000000, 0.000000000000000000 ) ) ;
#749 = DIRECTION ( 'NONE',  ( 1.000000000000000000, 0.000000000000000000, 0.000000000000000000 ) ) ;
#750 = CARTESIAN_POINT ( 'NONE',  ( -2.149999999999999911, -3.373054995104586062, 0.000000000000000000 ) ) ;
#751 = ADVANCED_FACE ( 'NONE', ( #235 ), #62, .T. ) ;
#752 = EDGE_CURVE ( 'NONE', #675, #61, #1011, .T. ) ;
#753 = AXIS2_PLACEMENT_3D ( 'NONE', #997, #213, #128 ) ;
#754 = ORIENTED_EDGE ( 'NONE', *, *, #921, .F. ) ;
#755 = FACE_OUTER_BOUND ( 'NONE', #808, .T. ) ;
#756 = LINE ( 'NONE', #483, #241 ) ;
#757 = CC_DESIGN_APPROVAL ( #935, ( #121 ) ) ;
#758 = ADVANCED_FACE ( 'NONE', ( #755 ), #1002, .T. ) ;
#759 = CARTESIAN_POINT ( 'NONE',  ( 2.149999999999999911, 3.373054995104586062, -1.649999999999999911 ) ) ;
#760 = VERTEX_POINT ( 'NONE', #303 ) ;
#761 = CIRCLE ( 'NONE', #383, 4.000000000000000000 ) ;
#762 = DIRECTION ( 'NONE',  ( -1.000000000000000000, 0.000000000000000000, 0.000000000000000000 ) ) ;
#763 = DIRECTION ( 'NONE',  ( 1.000000000000000000, 0.000000000000000000, 0.000000000000000000 ) ) ;
#764 = CIRCLE ( 'NONE', #560, 1.149999999999999911 ) ;
#765 = PERSON ( 'UNSPECIFIED', 'UNSPECIFIED', 'UNSPECIFIED', ('UNSPECIFIED'), ('UNSPECIFIED'), ('UNSPECIFIED') ) ;
#766 = ORIENTED_EDGE ( 'NONE', *, *, #698, .F. ) ;
#767 = LINE ( 'NONE', #73, #927 ) ;
#768 = FACE_OUTER_BOUND ( 'NONE', #127, .T. ) ;
#769 = APPLICATION_PROTOCOL_DEFINITION ( 'international standard', 'config_control_design', 1994, #137 ) ;
#770 = CARTESIAN_POINT ( 'NONE',  ( -8.150000000000000355, 2.149999999999999911, 0.000000000000000000 ) ) ;
#771 = ORIENTED_EDGE ( 'NONE', *, *, #792, .F. ) ;
#772 = CARTESIAN_POINT ( 'NONE',  ( 0.000000000000000000, 0.000000000000000000, 4.000000000000000000 ) ) ;
#773 = CIRCLE ( 'NONE', #415, 1.149999999999999911 ) ;
#774 = FACE_OUTER_BOUND ( 'NONE', #18, .T. ) ;
#775 = ADVANCED_FACE ( 'NONE', ( #910 ), #659, .F. ) ;
#776 = CYLINDRICAL_SURFACE ( 'NONE', #76, 1.150000000000000799 ) ;
#777 = ORIENTED_EDGE ( 'NONE', *, *, #586, .T. ) ;
#778 = ORIENTED_EDGE ( 'NONE', *, *, #1071, .T. ) ;
#779 = ORIENTED_EDGE ( 'NONE', *, *, #70, .T. ) ;
#780 = DIRECTION ( 'NONE',  ( 0.000000000000000000, 0.000000000000000000, 1.000000000000000000 ) ) ;
#781 = CIRCLE ( 'NONE', #818, 2.149999999999999911 ) ;
#782 = LINE ( 'NONE', #4, #1041 ) ;
#783 = VERTEX_POINT ( 'NONE', #491 ) ;
#784 = ORIENTED_EDGE ( 'NONE', *, *, #424, .T. ) ;
#785 = VECTOR ( 'NONE', #183, 1000.000000000000000 ) ;
#786 = DIRECTION ( 'NONE',  ( 0.000000000000000000, 0.000000000000000000, -1.000000000000000000 ) ) ;
#787 = AXIS2_PLACEMENT_3D ( 'NONE', #834, #742, #124 ) ;
#788 = CARTESIAN_POINT ( 'NONE',  ( 8.150000000000000355, -2.149999999999999911, 0.000000000000000000 ) ) ;
#789 = ADVANCED_FACE ( 'NONE', ( #830 ), #222, .T. ) ;
#790 = CARTESIAN_POINT ( 'NONE',  ( -3.373054995104586062, -2.149999999999999911, -1.649999999999999911 ) ) ;
#791 = EDGE_LOOP ( 'NONE', ( #877, #908 ) ) ;
#792 = EDGE_CURVE ( 'NONE', #221, #481, #632, .T. ) ;
#793 = ORIENTED_EDGE ( 'NONE', *, *, #356, .F. ) ;
#794 = ORIENTED_EDGE ( 'NONE', *, *, #718, .T. ) ;
#795 = LINE ( 'NONE', #366, #513 ) ;
#796 = CIRCLE ( 'NONE', #190, 1.149999999999999911 ) ;
#797 = CARTESIAN_POINT ( 'NONE',  ( -8.150000000000000355, 2.149999999999999911, 0.000000000000000000 ) ) ;
#798 = APPROVAL_PERSON_ORGANIZATION ( #369, #387, #717 ) ;
#799 = DIRECTION ( 'NONE',  ( 0.000000000000000000, 0.000000000000000000, 1.000000000000000000 ) ) ;
#800 = VERTEX_POINT ( 'NONE', #554 ) ;
#801 = ORIENTED_EDGE ( 'NONE', *, *, #824, .T. ) ;
#802 = FACE_OUTER_BOUND ( 'NONE', #501, .T. ) ;
#803 = ORIENTED_EDGE ( 'NONE', *, *, #553, .T. ) ;
#804 = EDGE_LOOP ( 'NONE', ( #82, #311, #249, #536 ) ) ;
#805 = VERTEX_POINT ( 'NONE', #902 ) ;
#806 = CARTESIAN_POINT ( 'NONE',  ( 8.150000000000000355, 2.149999999999999023, 0.000000000000000000 ) ) ;
#807 = AXIS2_PLACEMENT_3D ( 'NONE', #444, #160, #681 ) ;
#808 = EDGE_LOOP ( 'NONE', ( #920, #142, #269, #25 ) ) ;
#809 = ORIENTED_EDGE ( 'NONE', *, *, #358, .T. ) ;
#810 = CYLINDRICAL_SURFACE ( 'NONE', #937, 1.150000000000000799 ) ;
#811 = AXIS2_PLACEMENT_3D ( 'NONE', #713, #1069, #454 ) ;
#812 = COORDINATED_UNIVERSAL_TIME_OFFSET ( 6, 0, .BEHIND. ) ;
#813 = CARTESIAN_POINT ( 'NONE',  ( 7.000000000000000000, -7.000000000000000000, -1.650000000000000355 ) ) ;
#814 = CARTESIAN_POINT ( 'NONE',  ( 7.000000000000000000, 7.000000000000000000, 4.000000000000003553 ) ) ;
#815 = COORDINATED_UNIVERSAL_TIME_OFFSET ( 6, 0, .BEHIND. ) ;
#816 = EDGE_LOOP ( 'NONE', ( #172, #171 ) ) ;
#817 = ORIENTED_EDGE ( 'NONE', *, *, #34, .F. ) ;
#818 = AXIS2_PLACEMENT_3D ( 'NONE', #1116, #157, #333 ) ;
#819 = CARTESIAN_POINT ( 'NONE',  ( -4.000000000000000000, 0.000000000000000000, 4.000000000000000000 ) ) ;
#820 = DIRECTION ( 'NONE',  ( -0.000000000000000000, -0.000000000000000000, -1.000000000000000000 ) ) ;
#821 = PLANE ( 'NONE',  #126 ) ;
#822 = EDGE_CURVE ( 'NONE', #26, #138, #569, .T. ) ;
#823 = ORIENTED_EDGE ( 'NONE', *, *, #37, .T. ) ;
#824 = EDGE_CURVE ( 'NONE', #719, #202, #370, .T. ) ;
#825 = DIRECTION ( 'NONE',  ( 1.000000000000000000, 0.000000000000000000, 0.000000000000000000 ) ) ;
#826 = DIRECTION ( 'NONE',  ( -1.000000000000000000, 0.000000000000000000, 0.000000000000000000 ) ) ;
#827 = CIRCLE ( 'NONE', #846, 2.149999999999999911 ) ;
#828 = DIRECTION ( 'NONE',  ( -0.000000000000000000, -0.000000000000000000, -1.000000000000000000 ) ) ;
#829 = EDGE_LOOP ( 'NONE', ( #490, #968 ) ) ;
#830 = FACE_OUTER_BOUND ( 'NONE', #876, .T. ) ;
#831 = DIRECTION ( 'NONE',  ( 0.000000000000000000, 0.000000000000000000, 1.000000000000000000 ) ) ;
#832 = CARTESIAN_POINT ( 'NONE',  ( 2.149999999999999911, -8.150000000000000355, -1.649999999999999911 ) ) ;
#833 = ORIENTED_EDGE ( 'NONE', *, *, #39, .F. ) ;
#834 = CARTESIAN_POINT ( 'NONE',  ( 7.000000000000000000, -7.000000000000000000, -1.650000000000000355 ) ) ;
#835 = AXIS2_PLACEMENT_3D ( 'NONE', #680, #780, #1033 ) ;
#836 = EDGE_CURVE ( 'NONE', #979, #1027, #671, .T. ) ;
#837 = DIRECTION ( 'NONE',  ( 0.000000000000000000, 0.000000000000000000, -1.000000000000000000 ) ) ;
#838 = CARTESIAN_POINT ( 'NONE',  ( 5.849999999999999645, 7.000000000000000000, 4.000000000000003553 ) ) ;
#839 = AXIS2_PLACEMENT_3D ( 'NONE', #54, #48, #763 ) ;
#840 = ORIENTED_EDGE ( 'NONE', *, *, #699, .F. ) ;
#841 = DIRECTION ( 'NONE',  ( 0.000000000000000000, 0.000000000000000000, -1.000000000000000000 ) ) ;
#842 = EDGE_CURVE ( 'NONE', #61, #26, #1039, .T. ) ;
#843 = DIRECTION ( 'NONE',  ( 1.000000000000000000, 0.000000000000000000, 0.000000000000000000 ) ) ;
#844 = CARTESIAN_POINT ( 'NONE',  ( -8.150000000000000355, 2.149999999999999911, -1.649999999999999911 ) ) ;
#845 = MANIFOLD_SOLID_BREP ( 'Hub_clearance_in_key_boss_only', #631 ) ;
#846 = AXIS2_PLACEMENT_3D ( 'NONE', #384, #28, #530 ) ;
#847 = ORIENTED_EDGE ( 'NONE', *, *, #824, .F. ) ;
#848 = CARTESIAN_POINT ( 'NONE',  ( 0.000000000000000000, 0.000000000000000000, 0.000000000000000000 ) ) ;
#849 = PLANE ( 'NONE',  #112 ) ;
#850 = CC_DESIGN_PERSON_AND_ORGANIZATION_ASSIGNMENT ( #885, #210, ( #121 ) ) ;
#851 = VERTEX_POINT ( 'NONE', #408 ) ;
#852 = CARTESIAN_POINT ( 'NONE',  ( 2.149999999999999911, -8.150000000000000355, 0.000000000000000000 ) ) ;
#853 = DIRECTION ( 'NONE',  ( 0.000000000000000000, 0.000000000000000000, -1.000000000000000000 ) ) ;
#854 = VECTOR ( 'NONE', #236, 1000.000000000000000 ) ;
#855 = EDGE_LOOP ( 'NONE', ( #1115, #840 ) ) ;
#856 = CIRCLE ( 'NONE', #886, 4.000000000000000000 ) ;
#857 = EDGE_CURVE ( 'NONE', #697, #725, #931, .T. ) ;
#858 = PLANE ( 'NONE',  #657 ) ;
#859 = PERSON_AND_ORGANIZATION_ROLE ( 'design_owner' ) ;
#860 = CARTESIAN_POINT ( 'NONE',  ( -2.149999999999999911, 8.150000000000000355, 0.000000000000000000 ) ) ;
#861 = ORIENTED_EDGE ( 'NONE', *, *, #474, .F. ) ;
#862 = VECTOR ( 'NONE', #622, 1000.000000000000000 ) ;
#863 = CARTESIAN_POINT ( 'NONE',  ( 7.000000000000000000, 7.000000000000000000, 4.000000000000003553 ) ) ;
#864 = CARTESIAN_POINT ( 'NONE',  ( -2.149999999999999911, -8.150000000000000355, 0.000000000000000000 ) ) ;
#865 = VERTEX_POINT ( 'NONE', #665 ) ;
#866 = ORIENTED_EDGE ( 'NONE', *, *, #664, .F. ) ;
#867 = EDGE_CURVE ( 'NONE', #625, #883, #297, .T. ) ;
#868 = CARTESIAN_POINT ( 'NONE',  ( -2.149999999999999911, -8.150000000000000355, 0.000000000000000000 ) ) ;
#869 = EDGE_CURVE ( 'NONE', #1050, #620, #951, .T. ) ;
#870 = DIRECTION ( 'NONE',  ( 0.000000000000000000, 0.000000000000000000, -1.000000000000000000 ) ) ;
#871 = EDGE_CURVE ( 'NONE', #138, #156, #59, .T. ) ;
#872 = AXIS2_PLACEMENT_3D ( 'NONE', #655, #565, #826 ) ;
#873 = DIRECTION ( 'NONE',  ( 0.000000000000000000, 0.000000000000000000, -1.000000000000000000 ) ) ;
#874 = EDGE_LOOP ( 'NONE', ( #899, #703, #226, #377, #720, #412, #658, #359, #1021, #932, #104, #896, #439, #955, #263, #914, #678 ) ) ;
#875 = CARTESIAN_POINT ( 'NONE',  ( -5.850000000000000533, 7.000000000000000000, -1.650000000000000355 ) ) ;
#876 = EDGE_LOOP ( 'NONE', ( #382, #476, #1031, #95 ) ) ;
#877 = ORIENTED_EDGE ( 'NONE', *, *, #978, .F. ) ;
#878 = LINE ( 'NONE', #21, #335 ) ;
#879 = AXIS2_PLACEMENT_3D ( 'NONE', #661, #71, #421 ) ;
#880 = EDGE_CURVE ( 'NONE', #156, #865, #924, .T. ) ;
#881 = CARTESIAN_POINT ( 'NONE',  ( -7.000000000000000000, -7.000000000000000000, 4.000000000000003553 ) ) ;
#882 = CARTESIAN_POINT ( 'NONE',  ( -8.150000000000000355, -7.000000000000000000, 4.000000000000003553 ) ) ;
#883 = VERTEX_POINT ( 'NONE', #759 ) ;
#884 = DIRECTION ( 'NONE',  ( 1.000000000000000000, 0.000000000000000000, 0.000000000000000000 ) ) ;
#885 = PERSON_AND_ORGANIZATION ( #765, #33 ) ;
#886 = AXIS2_PLACEMENT_3D ( 'NONE', #504, #514, #603 ) ;
#887 = ORIENTED_EDGE ( 'NONE', *, *, #471, .F. ) ;
#888 = ORIENTED_EDGE ( 'NONE', *, *, #583, .F. ) ;
#889 = CARTESIAN_POINT ( 'NONE',  ( -7.000000000000000000, 7.000000000000000000, 4.000000000000003553 ) ) ;
#890 = PERSON_AND_ORGANIZATION ( #765, #33 ) ;
#891 = AXIS2_PLACEMENT_3D ( 'NONE', #863, #74, #339 ) ;
#892 = EDGE_LOOP ( 'NONE', ( #449, #283 ) ) ;
#893 = CARTESIAN_POINT ( 'NONE',  ( -8.150000000000000355, 2.149999999999999911, -1.649999999999999911 ) ) ;
#894 = PLANE ( 'NONE',  #90 ) ;
#895 = CIRCLE ( 'NONE', #1020, 4.000000000000000000 ) ;
#896 = ORIENTED_EDGE ( 'NONE', *, *, #822, .T. ) ;
#897 = DIRECTION ( 'NONE',  ( 1.000000000000000000, 0.000000000000000000, 0.000000000000000000 ) ) ;
#898 = VECTOR ( 'NONE', #139, 1000.000000000000000 ) ;
#899 = ORIENTED_EDGE ( 'NONE', *, *, #990, .T. ) ;
#900 = SECURITY_CLASSIFICATION ( '', '', #125 ) ;
#901 = ORIENTED_EDGE ( 'NONE', *, *, #394, .T. ) ;
#902 = CARTESIAN_POINT ( 'NONE',  ( -8.150000000000000355, 7.000000000000000000, 4.000000000000003553 ) ) ;
#903 = APPLICATION_PROTOCOL_DEFINITION ( 'international standard', 'config_control_design', 1994, #237 ) ;
#904 = EDGE_CURVE ( 'NONE', #615, #481, #404, .T. ) ;
#905 = EDGE_CURVE ( 'NONE', #45, #342, #1009, .T. ) ;
#906 = ORIENTED_EDGE ( 'NONE', *, *, #752, .F. ) ;
#907 = LINE ( 'NONE', #353, #489 ) ;
#908 = ORIENTED_EDGE ( 'NONE', *, *, #734, .F. ) ;
#909 = CIRCLE ( 'NONE', #423, 1.149999999999999911 ) ;
#910 = FACE_OUTER_BOUND ( 'NONE', #1072, .T. ) ;
#911 = ADVANCED_FACE ( 'NONE', ( #65 ), #327, .F. ) ;
#912 = DIRECTION ( 'NONE',  ( 0.000000000000000000, 0.000000000000000000, -1.000000000000000000 ) ) ;
#913 = DIRECTION ( 'NONE',  ( 0.000000000000000000, 0.000000000000000000, -1.000000000000000000 ) ) ;
#914 = ORIENTED_EDGE ( 'NONE', *, *, #145, .T. ) ;
#915 = DIRECTION ( 'NONE',  ( -1.000000000000000000, 0.000000000000000000, -0.000000000000000000 ) ) ;
#916 = CARTESIAN_POINT ( 'NONE',  ( -7.000000000000000000, -7.000000000000000000, 4.000000000000003553 ) ) ;
#917 = CIRCLE ( 'NONE', #431, 1.150000000000000799 ) ;
#918 = DIRECTION ( 'NONE',  ( 0.000000000000000000, 0.000000000000000000, -1.000000000000000000 ) ) ;
#919 = CC_DESIGN_DATE_AND_TIME_ASSIGNMENT ( #14, #531, ( #581 ) ) ;
#920 = ORIENTED_EDGE ( 'NONE', *, *, #957, .F. ) ;
#921 = EDGE_CURVE ( 'NONE', #197, #634, #203, .T. ) ;
#922 = DIRECTION ( 'NONE',  ( -0.000000000000000000, -1.000000000000000000, -0.000000000000000000 ) ) ;
#923 = DIRECTION ( 'NONE',  ( -1.000000000000000000, 0.000000000000000000, 0.000000000000000000 ) ) ;
#924 = LINE ( 'NONE', #832, #1004 ) ;
#925 = ORIENTED_EDGE ( 'NONE', *, *, #99, .F. ) ;
#926 = DIRECTION ( 'NONE',  ( 0.000000000000000000, 0.000000000000000000, 1.000000000000000000 ) ) ;
#927 = VECTOR ( 'NONE', #1110, 1000.000000000000000 ) ;
#928 = DIRECTION ( 'NONE',  ( 0.000000000000000000, 0.000000000000000000, -1.000000000000000000 ) ) ;
#929 = ADVANCED_BREP_SHAPE_REPRESENTATION ( 'FIT-002_SG90_horn_pocket_clearance_0p15', ( #845, #380 ), #323 ) ;
#930 = CARTESIAN_POINT ( 'NONE',  ( 0.000000000000000000, 0.000000000000000000, -1.649999999999999911 ) ) ;
#931 = CIRCLE ( 'NONE', #148, 2.149999999999999911 ) ;
#932 = ORIENTED_EDGE ( 'NONE', *, *, #752, .T. ) ;
#933 = DIRECTION ( 'NONE',  ( 1.000000000000000000, 0.000000000000000000, 0.000000000000000000 ) ) ;
#934 = DIRECTION ( 'NONE',  ( 1.000000000000000000, 0.000000000000000000, 0.000000000000000000 ) ) ;
#935 = APPROVAL ( #285, 'UNSPECIFIED' ) ;
#936 = DIRECTION ( 'NONE',  ( -0.000000000000000000, -0.000000000000000000, -1.000000000000000000 ) ) ;
#937 = AXIS2_PLACEMENT_3D ( 'NONE', #1074, #525, #31 ) ;
#938 = EDGE_LOOP ( 'NONE', ( #516, #823, #778, #101 ) ) ;
#939 = CYLINDRICAL_SURFACE ( 'NONE', #441, 4.000000000000000000 ) ;
#940 = DIRECTION ( 'NONE',  ( -0.000000000000000000, -1.000000000000000000, -0.000000000000000000 ) ) ;
#941 = FACE_OUTER_BOUND ( 'NONE', #950, .T. ) ;
#942 = LOCAL_TIME ( 17, 4, 24.00000000000000000, #815 ) ;
#943 =( NAMED_UNIT ( * ) PLANE_ANGLE_UNIT ( ) SI_UNIT ( $, .RADIAN. ) );
#944 = EDGE_CURVE ( 'NONE', #116, #1051, #315, .T. ) ;
#945 = EDGE_CURVE ( 'NONE', #995, #783, #1019, .T. ) ;
#946 = EDGE_LOOP ( 'NONE', ( #282, #552 ) ) ;
#947 = CIRCLE ( 'NONE', #401, 4.000000000000000000 ) ;
#948 = PLANE ( 'NONE',  #993 ) ;
#949 = CARTESIAN_POINT ( 'NONE',  ( 2.149999999999999911, 3.373054995104586062, 0.000000000000000000 ) ) ;
#950 = EDGE_LOOP ( 'NONE', ( #185, #721, #599, #1046 ) ) ;
#951 = CIRCLE ( 'NONE', #546, 4.000000000000000000 ) ;
#952 = CARTESIAN_POINT ( 'NONE',  ( 2.149999999999999911, 3.373054995104586062, 0.000000000000000000 ) ) ;
#953 = CARTESIAN_POINT ( 'NONE',  ( -8.150000000000000355, 0.000000000000000000, 0.000000000000000000 ) ) ;
#954 = ORIENTED_EDGE ( 'NONE', *, *, #698, .T. ) ;
#955 = ORIENTED_EDGE ( 'NONE', *, *, #880, .T. ) ;
#956 = EDGE_CURVE ( 'NONE', #670, #800, #580, .T. ) ;
#957 = EDGE_CURVE ( 'NONE', #670, #197, #136, .T. ) ;
#958 = CARTESIAN_POINT ( 'NONE',  ( 8.150000000000000355, 2.149999999999999023, -1.649999999999999911 ) ) ;
#959 = FACE_OUTER_BOUND ( 'NONE', #1067, .T. ) ;
#960 = CARTESIAN_POINT ( 'NONE',  ( 4.000000000000000000, 4.898587196589412829E-16, 4.000000000000000000 ) ) ;
#961 = ADVANCED_FACE ( 'NONE', ( #488 ), #849, .T. ) ;
#962 = ORIENTED_EDGE ( 'NONE', *, *, #316, .T. ) ;
#963 = EDGE_LOOP ( 'NONE', ( #307, #901, #96, #17 ) ) ;
#964 = DIRECTION ( 'NONE',  ( 0.000000000000000000, 1.000000000000000000, 0.000000000000000000 ) ) ;
#965 = CARTESIAN_POINT ( 'NONE',  ( -2.149999999999999911, 3.373054995104586062, -1.649999999999999911 ) ) ;
#966 = AXIS2_PLACEMENT_3D ( 'NONE', #153, #1101, #314 ) ;
#967 = DIRECTION ( 'NONE',  ( 0.000000000000000000, 0.000000000000000000, -1.000000000000000000 ) ) ;
#968 = ORIENTED_EDGE ( 'NONE', *, *, #239, .F. ) ;
#969 = CARTESIAN_POINT ( 'NONE',  ( 8.150000000000000355, 0.000000000000000000, 0.000000000000000000 ) ) ;
#970 = LINE ( 'NONE', #770, #541 ) ;
#971 = ORIENTED_EDGE ( 'NONE', *, *, #446, .F. ) ;
#972 = ORIENTED_EDGE ( 'NONE', *, *, #336, .F. ) ;
#973 = ORIENTED_EDGE ( 'NONE', *, *, #836, .T. ) ;
#974 = CIRCLE ( 'NONE', #551, 1.150000000000000799 ) ;
#975 = CARTESIAN_POINT ( 'NONE',  ( -10.30000000000000071, 0.000000000000000000, -1.649999999999999911 ) ) ;
#976 = CARTESIAN_POINT ( 'NONE',  ( 0.000000000000000000, 0.000000000000000000, 4.000000000000000000 ) ) ;
#977 = APPROVAL_DATE_TIME ( #728, #935 ) ;
#978 = EDGE_CURVE ( 'NONE', #1040, #184, #390, .T. ) ;
#979 = VERTEX_POINT ( 'NONE', #838 ) ;
#980 = EDGE_LOOP ( 'NONE', ( #161, #1079, #1056, #925 ) ) ;
#981 = DIRECTION ( 'NONE',  ( 1.000000000000000000, 0.000000000000000000, 0.000000000000000000 ) ) ;
#982 = CALENDAR_DATE ( 2026, 8, 9 ) ;
#983 = VERTEX_POINT ( 'NONE', #844 ) ;
#984 = VECTOR ( 'NONE', #940, 1000.000000000000000 ) ;
#985 = FACE_BOUND ( 'NONE', #691, .T. ) ;
#986 = CARTESIAN_POINT ( 'NONE',  ( 8.150000000000000355, 7.000000000000000000, -1.650000000000000355 ) ) ;
#987 = VECTOR ( 'NONE', #398, 1000.000000000000000 ) ;
#988 = COORDINATED_UNIVERSAL_TIME_OFFSET ( 6, 0, .BEHIND. ) ;
#989 = EDGE_LOOP ( 'NONE', ( #110, #534, #696, #428, #1010, #1037, #610, #547, #344, #766, #255, #645 ) ) ;
#990 = EDGE_CURVE ( 'NONE', #481, #625, #1098, .T. ) ;
#991 = CARTESIAN_POINT ( 'NONE',  ( 7.000000000000000000, -7.000000000000000000, 4.000000000000003553 ) ) ;
#992 = EDGE_CURVE ( 'NONE', #1058, #156, #498, .T. ) ;
#993 = AXIS2_PLACEMENT_3D ( 'NONE', #868, #89, #1028 ) ;
#994 = APPROVAL_DATE_TIME ( #23, #387 ) ;
#995 = VERTEX_POINT ( 'NONE', #750 ) ;
#996 = EDGE_CURVE ( 'NONE', #697, #983, #1000, .T. ) ;
#997 = CARTESIAN_POINT ( 'NONE',  ( 0.000000000000000000, -8.150000000000000355, 0.000000000000000000 ) ) ;
#998 = DIRECTION ( 'NONE',  ( 0.000000000000000000, 0.000000000000000000, -1.000000000000000000 ) ) ;
#999 = FACE_OUTER_BOUND ( 'NONE', #563, .T. ) ;
#1000 = LINE ( 'NONE', #1013, #445 ) ;
#1001 = ORIENTED_EDGE ( 'NONE', *, *, #857, .T. ) ;
#1002 = CYLINDRICAL_SURFACE ( 'NONE', #1097, 13.00000000000000000 ) ;
#1003 = CARTESIAN_POINT ( 'NONE',  ( -4.000000000000000000, 0.000000000000000000, 4.000000000000000000 ) ) ;
#1004 = VECTOR ( 'NONE', #238, 1000.000000000000000 ) ;
#1005 = DIRECTION ( 'NONE',  ( -0.000000000000000000, -1.000000000000000000, -0.000000000000000000 ) ) ;
#1006 = ORIENTED_EDGE ( 'NONE', *, *, #648, .F. ) ;
#1007 = FACE_OUTER_BOUND ( 'NONE', #730, .T. ) ;
#1008 = CARTESIAN_POINT ( 'NONE',  ( -3.373054995104586062, -2.149999999999999911, 0.000000000000000000 ) ) ;
#1009 = LINE ( 'NONE', #566, #729 ) ;
#1010 = ORIENTED_EDGE ( 'NONE', *, *, #389, .F. ) ;
#1011 = LINE ( 'NONE', #639, #898 ) ;
#1012 = LINE ( 'NONE', #1003, #668 ) ;
#1013 = CARTESIAN_POINT ( 'NONE',  ( -8.150000000000000355, 2.149999999999999911, 0.000000000000000000 ) ) ;
#1014 = ORIENTED_EDGE ( 'NONE', *, *, #1025, .T. ) ;
#1015 = VECTOR ( 'NONE', #92, 1000.000000000000000 ) ;
#1016 = DIRECTION ( 'NONE',  ( 0.000000000000000000, 0.000000000000000000, 1.000000000000000000 ) ) ;
#1017 = AXIS2_PLACEMENT_3D ( 'NONE', #243, #912, #923 ) ;
#1018 = DIRECTION ( 'NONE',  ( 0.000000000000000000, 0.000000000000000000, 1.000000000000000000 ) ) ;
#1019 = LINE ( 'NONE', #656, #507 ) ;
#1020 = AXIS2_PLACEMENT_3D ( 'NONE', #561, #130, #479 ) ;
#1021 = ORIENTED_EDGE ( 'NONE', *, *, #648, .T. ) ;
#1022 = VECTOR ( 'NONE', #539, 1000.000000000000000 ) ;
#1023 = EDGE_CURVE ( 'NONE', #191, #505, #895, .T. ) ;
#1024 = LINE ( 'NONE', #952, #201 ) ;
#1025 = EDGE_CURVE ( 'NONE', #567, #10, #739, .T. ) ;
#1026 = DIRECTION ( 'NONE',  ( 1.000000000000000000, 0.000000000000000000, 0.000000000000000000 ) ) ;
#1027 = VERTEX_POINT ( 'NONE', #225 ) ;
#1028 = DIRECTION ( 'NONE',  ( 0.000000000000000000, 0.000000000000000000, -1.000000000000000000 ) ) ;
#1029 = LOCAL_TIME ( 17, 4, 24.00000000000000000, #108 ) ;
#1030 = FACE_OUTER_BOUND ( 'NONE', #6, .T. ) ;
#1031 = ORIENTED_EDGE ( 'NONE', *, *, #990, .F. ) ;
#1032 = DIRECTION ( 'NONE',  ( 0.000000000000000000, 0.000000000000000000, 1.000000000000000000 ) ) ;
#1033 = DIRECTION ( 'NONE',  ( 1.000000000000000000, 0.000000000000000000, -0.000000000000000000 ) ) ;
#1034 = CIRCLE ( 'NONE', #543, 2.149999999999999911 ) ;
#1035 = DIRECTION ( 'NONE',  ( 0.000000000000000000, 0.000000000000000000, -1.000000000000000000 ) ) ;
#1036 = ADVANCED_FACE ( 'NONE', ( #248 ), #3, .F. ) ;
#1037 = ORIENTED_EDGE ( 'NONE', *, *, #188, .F. ) ;
#1038 = AXIS2_PLACEMENT_3D ( 'NONE', #268, #16, #362 ) ;
#1039 = CIRCLE ( 'NONE', #1076, 4.000000000000000000 ) ;
#1040 = VERTEX_POINT ( 'NONE', #526 ) ;
#1041 = VECTOR ( 'NONE', #350, 1000.000000000000000 ) ;
#1042 = DIRECTION ( 'NONE',  ( -1.000000000000000000, 0.000000000000000000, -0.000000000000000000 ) ) ;
#1043 = FACE_OUTER_BOUND ( 'NONE', #609, .T. ) ;
#1044 = DIRECTION ( 'NONE',  ( 1.000000000000000000, 0.000000000000000000, 0.000000000000000000 ) ) ;
#1045 = EDGE_LOOP ( 'NONE', ( #240, #954, #906, #448 ) ) ;
#1046 = ORIENTED_EDGE ( 'NONE', *, *, #992, .F. ) ;
#1047 = CARTESIAN_POINT ( 'NONE',  ( -4.000000000000000000, 0.000000000000000000, 0.000000000000000000 ) ) ;
#1048 = APPROVAL_PERSON_ORGANIZATION ( #890, #329, #38 ) ;
#1049 = DIRECTION ( 'NONE',  ( -1.000000000000000000, 0.000000000000000000, 0.000000000000000000 ) ) ;
#1050 = VERTEX_POINT ( 'NONE', #347 ) ;
#1051 = VERTEX_POINT ( 'NONE', #965 ) ;
#1052 = CC_DESIGN_PERSON_AND_ORGANIZATION_ASSIGNMENT ( #469, #623, ( #121 ) ) ;
#1053 = CARTESIAN_POINT ( 'NONE',  ( 13.00000000000000000, 1.592040838891559095E-15, 4.000000000000000000 ) ) ;
#1054 = CIRCLE ( 'NONE', #523, 1.149999999999999911 ) ;
#1055 = ORIENTED_EDGE ( 'NONE', *, *, #904, .T. ) ;
#1056 = ORIENTED_EDGE ( 'NONE', *, *, #270, .F. ) ;
#1057 = ORIENTED_EDGE ( 'NONE', *, *, #470, .F. ) ;
#1058 = VERTEX_POINT ( 'NONE', #694 ) ;
#1059 = DIRECTION ( 'NONE',  ( 0.000000000000000000, 0.000000000000000000, -1.000000000000000000 ) ) ;
#1060 = CALENDAR_DATE ( 2026, 8, 9 ) ;
#1061 = ADVANCED_FACE ( 'NONE', ( #1043 ), #776, .F. ) ;
#1062 = CARTESIAN_POINT ( 'NONE',  ( 8.150000000000000355, -7.000000000000000000, -1.650000000000000355 ) ) ;
#1063 = EDGE_LOOP ( 'NONE', ( #206, #606, #35, #399 ) ) ;
#1064 = ORIENTED_EDGE ( 'NONE', *, *, #591, .T. ) ;
#1065 = DIRECTION ( 'NONE',  ( 0.000000000000000000, 0.000000000000000000, 1.000000000000000000 ) ) ;
#1066 = DIRECTION ( 'NONE',  ( -1.000000000000000000, 0.000000000000000000, -0.000000000000000000 ) ) ;
#1067 = EDGE_LOOP ( 'NONE', ( #1001, #472, #684, #232 ) ) ;
#1068 = EDGE_LOOP ( 'NONE', ( #847, #29 ) ) ;
#1069 = DIRECTION ( 'NONE',  ( 0.000000000000000000, 0.000000000000000000, 1.000000000000000000 ) ) ;
#1070 = VECTOR ( 'NONE', #22, 1000.000000000000000 ) ;
#1071 = EDGE_CURVE ( 'NONE', #300, #332, #462, .T. ) ;
#1072 = EDGE_LOOP ( 'NONE', ( #524, #109, #1121, #589 ) ) ;
#1073 = EDGE_CURVE ( 'NONE', #10, #221, #75, .T. ) ;
#1074 = CARTESIAN_POINT ( 'NONE',  ( -7.000000000000000000, 7.000000000000000000, 4.000000000000003553 ) ) ;
#1075 = CARTESIAN_POINT ( 'NONE',  ( -2.149999999999999911, -8.150000000000000355, -1.649999999999999911 ) ) ;
#1076 = AXIS2_PLACEMENT_3D ( 'NONE', #654, #473, #42 ) ;
#1077 = CALENDAR_DATE ( 2026, 8, 9 ) ;
#1078 = EDGE_CURVE ( 'NONE', #328, #675, #259, .T. ) ;
#1079 = ORIENTED_EDGE ( 'NONE', *, *, #944, .T. ) ;
#1080 = ADVANCED_FACE ( 'NONE', ( #432 ), #266, .F. ) ;
#1081 = CARTESIAN_POINT ( 'NONE',  ( 7.000000000000000000, 7.000000000000000000, -1.650000000000000355 ) ) ;
#1082 = CYLINDRICAL_SURFACE ( 'NONE', #741, 1.150000000000000799 ) ;
#1083 = DIRECTION ( 'NONE',  ( -0.000000000000000000, -0.000000000000000000, 1.000000000000000000 ) ) ;
#1084 = ORIENTED_EDGE ( 'NONE', *, *, #66, .T. ) ;
#1085 = CARTESIAN_POINT ( 'NONE',  ( 7.000000000000000000, 7.000000000000000000, 4.000000000000003553 ) ) ;
#1086 = CARTESIAN_POINT ( 'NONE',  ( 2.149999999999999911, 8.150000000000000355, 0.000000000000000000 ) ) ;
#1087 = CARTESIAN_POINT ( 'NONE',  ( -8.150000000000000355, -2.149999999999999911, 0.000000000000000000 ) ) ;
#1088 = ORIENTED_EDGE ( 'NONE', *, *, #51, .T. ) ;
#1089 = DIRECTION ( 'NONE',  ( 0.000000000000000000, 0.000000000000000000, 1.000000000000000000 ) ) ;
#1090 = DIRECTION ( 'NONE',  ( -0.000000000000000000, -0.000000000000000000, -1.000000000000000000 ) ) ;
#1091 = AXIS2_PLACEMENT_3D ( 'NONE', #575, #1092, #667 ) ;
#1092 = DIRECTION ( 'NONE',  ( 0.000000000000000000, 0.000000000000000000, -1.000000000000000000 ) ) ;
#1093 = ORIENTED_EDGE ( 'NONE', *, *, #1025, .F. ) ;
#1094 = CARTESIAN_POINT ( 'NONE',  ( 8.150000000000000355, -7.000000000000000000, 4.000000000000003553 ) ) ;
#1095 = DIRECTION ( 'NONE',  ( 1.000000000000000000, 0.000000000000000000, 0.000000000000000000 ) ) ;
#1096 = CARTESIAN_POINT ( 'NONE',  ( 0.000000000000000000, -8.150000000000000355, 0.000000000000000000 ) ) ;
#1097 = AXIS2_PLACEMENT_3D ( 'NONE', #208, #482, #486 ) ;
#1098 = LINE ( 'NONE', #155, #987 ) ;
#1099 = ORIENTED_EDGE ( 'NONE', *, *, #1023, .T. ) ;
#1100 = DIRECTION ( 'NONE',  ( -1.000000000000000000, 0.000000000000000000, 0.000000000000000000 ) ) ;
#1101 = DIRECTION ( 'NONE',  ( 0.000000000000000000, 0.000000000000000000, 1.000000000000000000 ) ) ;
#1102 = DIRECTION ( 'NONE',  ( 1.000000000000000000, 0.000000000000000000, 0.000000000000000000 ) ) ;
#1103 = ORIENTED_EDGE ( 'NONE', *, *, #66, .F. ) ;
#1104 = EDGE_CURVE ( 'NONE', #747, #202, #674, .T. ) ;
#1105 = EDGE_CURVE ( 'NONE', #733, #150, #856, .T. ) ;
#1106 = VECTOR ( 'NONE', #1083, 1000.000000000000000 ) ;
#1107 = LINE ( 'NONE', #330, #267 ) ;
#1108 = CARTESIAN_POINT ( 'NONE',  ( -8.150000000000000355, -2.149999999999999911, 0.000000000000000000 ) ) ;
#1109 = ORIENTED_EDGE ( 'NONE', *, *, #99, .T. ) ;
#1110 = DIRECTION ( 'NONE',  ( 0.000000000000000000, 1.000000000000000000, 0.000000000000000000 ) ) ;
#1111 = DIRECTION ( 'NONE',  ( 0.000000000000000000, 0.000000000000000000, 1.000000000000000000 ) ) ;
#1112 = DIRECTION ( 'NONE',  ( 0.000000000000000000, 0.000000000000000000, -1.000000000000000000 ) ) ;
#1113 = CIRCLE ( 'NONE', #286, 4.000000000000000000 ) ;
#1114 = CARTESIAN_POINT ( 'NONE',  ( 0.000000000000000000, 0.000000000000000000, 0.000000000000000000 ) ) ;
#1115 = ORIENTED_EDGE ( 'NONE', *, *, #650, .F. ) ;
#1116 = CARTESIAN_POINT ( 'NONE',  ( -8.150000000000000355, 0.000000000000000000, 0.000000000000000000 ) ) ;
#1117 = CYLINDRICAL_SURFACE ( 'NONE', #228, 2.149999999999999023 ) ;
#1118 = ADVANCED_FACE ( 'NONE', ( #959 ), #520, .F. ) ;
#1119 = CARTESIAN_POINT ( 'NONE',  ( 0.000000000000000000, 0.000000000000000000, 0.000000000000000000 ) ) ;
#1120 = LINE ( 'NONE', #341, #785 ) ;
#1121 = ORIENTED_EDGE ( 'NONE', *, *, #356, .T. ) ;
#1122 = DIRECTION ( 'NONE',  ( -0.000000000000000000, -0.000000000000000000, -1.000000000000000000 ) ) ;
#1123 = ORIENTED_EDGE ( 'NONE', *, *, #650, .T. ) ;
#1124 = CARTESIAN_POINT ( 'NONE',  ( -2.149999999999999911, -8.150000000000000355, 0.000000000000000000 ) ) ;
ENDSEC;
END-ISO-10303-21;
