ISO-10303-21;
HEADER;
FILE_DESCRIPTION (( 'STEP AP203' ),
    '1' );
FILE_NAME ('FIT-002_SG90_horn_pocket_clearance_0p15.step',
    '2026-09-13T02:59:08',
    ( '' ),
    ( '' ),
    'SwSTEP 2.0',
    'SolidWorks 2026',
    '' );
FILE_SCHEMA (( 'CONFIG_CONTROL_DESIGN' ));
ENDSEC;

DATA;
#1 = LINE ( 'NONE', #592, #818 ) ;
#2 = DIRECTION ( 'NONE',  ( 0.000000000000000000, 0.000000000000000000, 1.000000000000000000 ) ) ;
#3 = AXIS2_PLACEMENT_3D ( 'NONE', #925, #947, #865 ) ;
#4 = CARTESIAN_POINT ( 'NONE',  ( 0.000000000000000000, 0.000000000000000000, 4.000000000000000000 ) ) ;
#5 = CALENDAR_DATE ( 2026, 12, 9 ) ;
#6 = DIRECTION ( 'NONE',  ( 0.000000000000000000, 0.000000000000000000, -1.000000000000000000 ) ) ;
#7 = VECTOR ( 'NONE', #813, 1000.000000000000000 ) ;
#8 = ORIENTED_EDGE ( 'NONE', *, *, #66, .F. ) ;
#9 = DIRECTION ( 'NONE',  ( -0.000000000000000000, -0.000000000000000000, -1.000000000000000000 ) ) ;
#10 = DIRECTION ( 'NONE',  ( 0.000000000000000000, 0.000000000000000000, -1.000000000000000000 ) ) ;
#11 = ORIENTED_EDGE ( 'NONE', *, *, #402, .T. ) ;
#12 = LINE ( 'NONE', #112, #78 ) ;
#13 = DATE_AND_TIME ( #5, #126 ) ;
#14 = CIRCLE ( 'NONE', #301, 13.00000000000000000 ) ;
#15 = FACE_OUTER_BOUND ( 'NONE', #633, .T. ) ;
#16 = EDGE_CURVE ( 'NONE', #969, #811, #851, .T. ) ;
#17 = ORIENTED_EDGE ( 'NONE', *, *, #28, .F. ) ;
#18 = EDGE_CURVE ( 'NONE', #79, #1056, #354, .T. ) ;
#19 = DIRECTION ( 'NONE',  ( 0.000000000000000000, 0.000000000000000000, -1.000000000000000000 ) ) ;
#20 = CARTESIAN_POINT ( 'NONE',  ( -2.149999999999999911, -8.150000000000000355, 0.000000000000000000 ) ) ;
#21 = EDGE_LOOP ( 'NONE', ( #356, #392, #125, #412 ) ) ;
#22 = DIRECTION ( 'NONE',  ( 0.000000000000000000, 0.000000000000000000, 1.000000000000000000 ) ) ;
#23 = AXIS2_PLACEMENT_3D ( 'NONE', #401, #1009, #296 ) ;
#24 = DIRECTION ( 'NONE',  ( 1.000000000000000000, -0.000000000000000000, 0.000000000000000000 ) ) ;
#25 = ORIENTED_EDGE ( 'NONE', *, *, #581, .T. ) ;
#26 = ORIENTED_EDGE ( 'NONE', *, *, #571, .F. ) ;
#27 = FACE_OUTER_BOUND ( 'NONE', #406, .T. ) ;
#28 = EDGE_CURVE ( 'NONE', #751, #454, #67, .T. ) ;
#29 = FACE_OUTER_BOUND ( 'NONE', #127, .T. ) ;
#30 = VERTEX_POINT ( 'NONE', #509 ) ;
#31 = ORIENTED_EDGE ( 'NONE', *, *, #451, .T. ) ;
#32 = DIRECTION ( 'NONE',  ( -1.000000000000000000, 0.000000000000000000, 0.000000000000000000 ) ) ;
#33 = AXIS2_PLACEMENT_3D ( 'NONE', #786, #85, #781 ) ;
#34 = CC_DESIGN_PERSON_AND_ORGANIZATION_ASSIGNMENT ( #869, #271, ( #415 ) ) ;
#35 = CIRCLE ( 'NONE', #985, 1.150000000000000799 ) ;
#36 = DIRECTION ( 'NONE',  ( 1.000000000000000000, 0.000000000000000000, 0.000000000000000000 ) ) ;
#37 = ORIENTED_EDGE ( 'NONE', *, *, #426, .F. ) ;
#38 =( GEOMETRIC_REPRESENTATION_CONTEXT ( 3 ) GLOBAL_UNCERTAINTY_ASSIGNED_CONTEXT ( ( #399 ) ) GLOBAL_UNIT_ASSIGNED_CONTEXT ( ( #521, #587, #353 ) ) REPRESENTATION_CONTEXT ( 'NONE', 'WORKASPACE' ) );
#39 = VERTEX_POINT ( 'NONE', #518 ) ;
#40 = PLANE ( 'NONE',  #1064 ) ;
#41 = CARTESIAN_POINT ( 'NONE',  ( -2.149999999999999911, 3.373054995104586062, -1.649999999999999911 ) ) ;
#42 = VECTOR ( 'NONE', #202, 1000.000000000000000 ) ;
#43 = CYLINDRICAL_SURFACE ( 'NONE', #782, 1.150000000000000799 ) ;
#44 = ORIENTED_EDGE ( 'NONE', *, *, #873, .F. ) ;
#45 = ORIENTED_EDGE ( 'NONE', *, *, #939, .T. ) ;
#46 = FACE_OUTER_BOUND ( 'NONE', #678, .T. ) ;
#47 = VECTOR ( 'NONE', #500, 1000.000000000000000 ) ;
#48 = CARTESIAN_POINT ( 'NONE',  ( 0.000000000000000000, 0.000000000000000000, 0.000000000000000000 ) ) ;
#49 = ADVANCED_FACE ( 'NONE', ( #697 ), #858, .F. ) ;
#50 = DIRECTION ( 'NONE',  ( 0.000000000000000000, -0.000000000000000000, 1.000000000000000000 ) ) ;
#51 = ORIENTED_EDGE ( 'NONE', *, *, #610, .F. ) ;
#52 = EDGE_LOOP ( 'NONE', ( #471, #756, #45, #288 ) ) ;
#53 = CARTESIAN_POINT ( 'NONE',  ( -8.150000000000000355, 7.000000000000000000, 4.000000000000003553 ) ) ;
#54 = PLANE ( 'NONE',  #291 ) ;
#55 = DIRECTION ( 'NONE',  ( -1.000000000000000000, 0.000000000000000000, 0.000000000000000000 ) ) ;
#56 = ORIENTED_EDGE ( 'NONE', *, *, #382, .F. ) ;
#57 = ORIENTED_EDGE ( 'NONE', *, *, #394, .T. ) ;
#58 = LINE ( 'NONE', #1016, #516 ) ;
#59 = DIRECTION ( 'NONE',  ( -0.000000000000000000, -0.000000000000000000, -1.000000000000000000 ) ) ;
#60 = EDGE_CURVE ( 'NONE', #30, #39, #866, .T. ) ;
#61 = CARTESIAN_POINT ( 'NONE',  ( -8.150000000000000355, -7.000000000000000000, -1.650000000000000355 ) ) ;
#62 = ORIENTED_EDGE ( 'NONE', *, *, #759, .T. ) ;
#63 = FACE_OUTER_BOUND ( 'NONE', #845, .T. ) ;
#64 = DIRECTION ( 'NONE',  ( -1.000000000000000000, 0.000000000000000000, 0.000000000000000000 ) ) ;
#65 = DIRECTION ( 'NONE',  ( 1.000000000000000000, 0.000000000000000000, 0.000000000000000000 ) ) ;
#66 = EDGE_CURVE ( 'NONE', #530, #731, #257, .T. ) ;
#67 = CIRCLE ( 'NONE', #161, 4.000000000000000000 ) ;
#68 = DIRECTION ( 'NONE',  ( 0.000000000000000000, 0.000000000000000000, -1.000000000000000000 ) ) ;
#69 = CARTESIAN_POINT ( 'NONE',  ( 0.000000000000000000, 0.000000000000000000, 4.000000000000000000 ) ) ;
#70 = APPROVAL_STATUS ( 'not_yet_approved' ) ;
#71 = FACE_OUTER_BOUND ( 'NONE', #206, .T. ) ;
#72 = VECTOR ( 'NONE', #702, 1000.000000000000000 ) ;
#73 = CIRCLE ( 'NONE', #1054, 1.150000000000000799 ) ;
#74 = CARTESIAN_POINT ( 'NONE',  ( -3.373054995104586062, 2.149999999999999911, -1.649999999999999911 ) ) ;
#75 = CARTESIAN_POINT ( 'NONE',  ( -7.000000000000000000, 7.000000000000000000, 4.000000000000003553 ) ) ;
#76 = FACE_OUTER_BOUND ( 'NONE', #210, .T. ) ;
#77 = DIRECTION ( 'NONE',  ( 1.000000000000000000, 0.000000000000000000, 0.000000000000000000 ) ) ;
#78 = VECTOR ( 'NONE', #281, 1000.000000000000000 ) ;
#79 = VERTEX_POINT ( 'NONE', #769 ) ;
#80 = EDGE_CURVE ( 'NONE', #651, #665, #997, .T. ) ;
#81 = CARTESIAN_POINT ( 'NONE',  ( 0.000000000000000000, 0.000000000000000000, -1.649999999999999911 ) ) ;
#82 = CARTESIAN_POINT ( 'NONE',  ( 0.000000000000000000, 0.000000000000000000, 0.000000000000000000 ) ) ;
#83 = CARTESIAN_POINT ( 'NONE',  ( 5.849999999999999645, -7.000000000000000000, 4.000000000000003553 ) ) ;
#84 = APPROVAL ( #326, 'UNSPECIFIED' ) ;
#85 = DIRECTION ( 'NONE',  ( 0.000000000000000000, 0.000000000000000000, 1.000000000000000000 ) ) ;
#86 = DATE_AND_TIME ( #707, #987 ) ;
#87 = PLANE ( 'NONE',  #1109 ) ;
#88 = CIRCLE ( 'NONE', #239, 4.000000000000000000 ) ;
#89 = CARTESIAN_POINT ( 'NONE',  ( -3.373054995104586062, -2.149999999999999911, 0.000000000000000000 ) ) ;
#90 = AXIS2_PLACEMENT_3D ( 'NONE', #938, #849, #171 ) ;
#91 = DIRECTION ( 'NONE',  ( 1.000000000000000000, 0.000000000000000000, 0.000000000000000000 ) ) ;
#92 = CARTESIAN_POINT ( 'NONE',  ( -8.150000000000000355, -2.149999999999999911, -1.649999999999999911 ) ) ;
#93 = ORIENTED_EDGE ( 'NONE', *, *, #1037, .F. ) ;
#94 = EDGE_LOOP ( 'NONE', ( #113, #557 ) ) ;
#95 = CARTESIAN_POINT ( 'NONE',  ( 2.149999999999999911, -8.150000000000000355, 0.000000000000000000 ) ) ;
#96 = EDGE_CURVE ( 'NONE', #39, #750, #954, .T. ) ;
#97 = CIRCLE ( 'NONE', #829, 2.149999999999999911 ) ;
#98 = PERSON_AND_ORGANIZATION ( #320, #734 ) ;
#99 = ADVANCED_FACE ( 'NONE', ( #63 ), #413, .T. ) ;
#100 = DIRECTION ( 'NONE',  ( -1.000000000000000000, -0.000000000000000000, -0.000000000000000000 ) ) ;
#101 = ORIENTED_EDGE ( 'NONE', *, *, #759, .F. ) ;
#102 = ORIENTED_EDGE ( 'NONE', *, *, #18, .T. ) ;
#103 = LINE ( 'NONE', #719, #569 ) ;
#104 = APPROVAL_STATUS ( 'not_yet_approved' ) ;
#105 = LINE ( 'NONE', #527, #325 ) ;
#106 = ORIENTED_EDGE ( 'NONE', *, *, #474, .F. ) ;
#107 = CARTESIAN_POINT ( 'NONE',  ( -8.150000000000000355, 2.149999999999999911, 0.000000000000000000 ) ) ;
#108 = CARTESIAN_POINT ( 'NONE',  ( 3.373054995104586062, -2.149999999999999911, 0.000000000000000000 ) ) ;
#109 = EDGE_LOOP ( 'NONE', ( #106, #149 ) ) ;
#110 = EDGE_CURVE ( 'NONE', #114, #280, #243, .T. ) ;
#111 = VERTEX_POINT ( 'NONE', #372 ) ;
#112 = CARTESIAN_POINT ( 'NONE',  ( 2.149999999999999911, -8.150000000000000355, -1.649999999999999911 ) ) ;
#113 = ORIENTED_EDGE ( 'NONE', *, *, #602, .F. ) ;
#114 = VERTEX_POINT ( 'NONE', #368 ) ;
#115 = DIRECTION ( 'NONE',  ( 1.000000000000000000, 0.000000000000000000, 0.000000000000000000 ) ) ;
#116 = EDGE_CURVE ( 'NONE', #908, #546, #725, .T. ) ;
#117 = AXIS2_PLACEMENT_3D ( 'NONE', #586, #173, #1122 ) ;
#118 = CARTESIAN_POINT ( 'NONE',  ( 7.000000000000000000, 7.000000000000000000, 4.000000000000003553 ) ) ;
#119 = ORIENTED_EDGE ( 'NONE', *, *, #506, .F. ) ;
#120 = ORIENTED_EDGE ( 'NONE', *, *, #160, .F. ) ;
#121 = DIRECTION ( 'NONE',  ( 0.000000000000000000, 0.000000000000000000, 1.000000000000000000 ) ) ;
#122 = CYLINDRICAL_SURFACE ( 'NONE', #511, 13.00000000000000000 ) ;
#123 = ADVANCED_FACE ( 'NONE', ( #1065 ), #721, .T. ) ;
#124 = DIRECTION ( 'NONE',  ( 1.000000000000000000, 0.000000000000000000, 0.000000000000000000 ) ) ;
#125 = ORIENTED_EDGE ( 'NONE', *, *, #1055, .T. ) ;
#126 = LOCAL_TIME ( 21, 59, 8.000000000000000000, #784 ) ;
#127 = EDGE_LOOP ( 'NONE', ( #877, #832, #307, #365 ) ) ;
#128 = DIRECTION ( 'NONE',  ( -1.000000000000000000, 0.000000000000000000, 0.000000000000000000 ) ) ;
#129 = EDGE_CURVE ( 'NONE', #528, #393, #442, .T. ) ;
#130 = DIRECTION ( 'NONE',  ( 1.000000000000000000, 0.000000000000000000, 0.000000000000000000 ) ) ;
#131 = AXIS2_PLACEMENT_3D ( 'NONE', #1115, #253, #601 ) ;
#132 = CARTESIAN_POINT ( 'NONE',  ( 7.000000000000000000, 7.000000000000000000, -1.650000000000000355 ) ) ;
#133 = EDGE_CURVE ( 'NONE', #646, #652, #278, .T. ) ;
#134 = DIRECTION ( 'NONE',  ( -0.000000000000000000, 1.000000000000000000, 0.000000000000000000 ) ) ;
#135 = ORIENTED_EDGE ( 'NONE', *, *, #519, .T. ) ;
#136 = APPLICATION_CONTEXT ( 'configuration controlled 3d designs of mechanical parts and assemblies' ) ;
#137 = ORIENTED_EDGE ( 'NONE', *, *, #624, .F. ) ;
#138 = DIRECTION ( 'NONE',  ( 1.000000000000000000, 0.000000000000000000, 0.000000000000000000 ) ) ;
#139 = CIRCLE ( 'NONE', #883, 1.150000000000000799 ) ;
#140 = CARTESIAN_POINT ( 'NONE',  ( 7.000000000000000000, -7.000000000000000000, 4.000000000000003553 ) ) ;
#141 = DIRECTION ( 'NONE',  ( 0.000000000000000000, 0.000000000000000000, 1.000000000000000000 ) ) ;
#142 = ORIENTED_EDGE ( 'NONE', *, *, #921, .F. ) ;
#143 = ORIENTED_EDGE ( 'NONE', *, *, #550, .T. ) ;
#144 = CARTESIAN_POINT ( 'NONE',  ( 2.149999999999999911, -3.373054995104586062, -1.649999999999999911 ) ) ;
#145 = FACE_OUTER_BOUND ( 'NONE', #52, .T. ) ;
#146 = AXIS2_PLACEMENT_3D ( 'NONE', #805, #134, #50 ) ;
#147 = PLANE ( 'NONE',  #631 ) ;
#148 = ORIENTED_EDGE ( 'NONE', *, *, #163, .F. ) ;
#149 = ORIENTED_EDGE ( 'NONE', *, *, #364, .F. ) ;
#150 = CARTESIAN_POINT ( 'NONE',  ( 0.000000000000000000, -8.150000000000000355, 0.000000000000000000 ) ) ;
#151 = EDGE_CURVE ( 'NONE', #490, #812, #14, .T. ) ;
#152 = DIRECTION ( 'NONE',  ( 1.000000000000000000, 0.000000000000000000, 0.000000000000000000 ) ) ;
#153 = CIRCLE ( 'NONE', #1117, 2.149999999999999911 ) ;
#154 = CARTESIAN_POINT ( 'NONE',  ( -8.150000000000000355, 0.000000000000000000, 0.000000000000000000 ) ) ;
#155 = ORIENTED_EDGE ( 'NONE', *, *, #912, .T. ) ;
#156 = ORIENTED_EDGE ( 'NONE', *, *, #261, .F. ) ;
#157 = COORDINATED_UNIVERSAL_TIME_OFFSET ( 6, 0, .BEHIND. ) ;
#158 = CIRCLE ( 'NONE', #790, 1.149999999999999911 ) ;
#159 = DIRECTION ( 'NONE',  ( 0.000000000000000000, 0.000000000000000000, -1.000000000000000000 ) ) ;
#160 = EDGE_CURVE ( 'NONE', #444, #190, #708, .T. ) ;
#161 = AXIS2_PLACEMENT_3D ( 'NONE', #69, #340, #329 ) ;
#162 = DIRECTION ( 'NONE',  ( 0.000000000000000000, 0.000000000000000000, 1.000000000000000000 ) ) ;
#163 = EDGE_CURVE ( 'NONE', #1000, #273, #1052, .T. ) ;
#164 = ORIENTED_EDGE ( 'NONE', *, *, #234, .F. ) ;
#165 = VECTOR ( 'NONE', #313, 1000.000000000000000 ) ;
#166 = FACE_OUTER_BOUND ( 'NONE', #443, .T. ) ;
#167 = VECTOR ( 'NONE', #881, 1000.000000000000000 ) ;
#168 = DIRECTION ( 'NONE',  ( 0.000000000000000000, 0.000000000000000000, -1.000000000000000000 ) ) ;
#169 = CARTESIAN_POINT ( 'NONE',  ( 0.000000000000000000, 0.000000000000000000, 4.000000000000000000 ) ) ;
#170 = LINE ( 'NONE', #949, #499 ) ;
#171 = DIRECTION ( 'NONE',  ( 1.000000000000000000, 0.000000000000000000, 0.000000000000000000 ) ) ;
#172 = AXIS2_PLACEMENT_3D ( 'NONE', #207, #552, #799 ) ;
#173 = DIRECTION ( 'NONE',  ( 0.000000000000000000, 0.000000000000000000, 1.000000000000000000 ) ) ;
#174 = DIRECTION ( 'NONE',  ( 0.000000000000000000, 1.000000000000000000, 0.000000000000000000 ) ) ;
#175 = CALENDAR_DATE ( 2026, 12, 9 ) ;
#176 = DIRECTION ( 'NONE',  ( 0.000000000000000000, 0.000000000000000000, 1.000000000000000000 ) ) ;
#177 = DIRECTION ( 'NONE',  ( -0.000000000000000000, -0.000000000000000000, -1.000000000000000000 ) ) ;
#178 = LINE ( 'NONE', #596, #814 ) ;
#179 = CIRCLE ( 'NONE', #906, 4.000000000000000000 ) ;
#180 = DATE_AND_TIME ( #175, #1075 ) ;
#181 = CARTESIAN_POINT ( 'NONE',  ( 0.000000000000000000, 0.000000000000000000, 0.000000000000000000 ) ) ;
#182 = ORIENTED_EDGE ( 'NONE', *, *, #581, .F. ) ;
#183 = ORIENTED_EDGE ( 'NONE', *, *, #151, .F. ) ;
#184 = FACE_OUTER_BOUND ( 'NONE', #235, .T. ) ;
#185 = EDGE_CURVE ( 'NONE', #812, #490, #1051, .T. ) ;
#186 = VECTOR ( 'NONE', #1111, 1000.000000000000000 ) ;
#187 = CC_DESIGN_SECURITY_CLASSIFICATION ( #1059, ( #404 ) ) ;
#188 = DIRECTION ( 'NONE',  ( 0.000000000000000000, 0.000000000000000000, 1.000000000000000000 ) ) ;
#189 = DIRECTION ( 'NONE',  ( 1.000000000000000000, 0.000000000000000000, 0.000000000000000000 ) ) ;
#190 = VERTEX_POINT ( 'NONE', #260 ) ;
#191 = VERTEX_POINT ( 'NONE', #632 ) ;
#192 = FACE_BOUND ( 'NONE', #1101, .T. ) ;
#193 = AXIS2_PLACEMENT_3D ( 'NONE', #321, #1116, #690 ) ;
#194 = PERSON_AND_ORGANIZATION ( #320, #734 ) ;
#195 = FACE_OUTER_BOUND ( 'NONE', #563, .T. ) ;
#196 = EDGE_LOOP ( 'NONE', ( #824, #255, #982, #491, #789, #850 ) ) ;
#197 = ORIENTED_EDGE ( 'NONE', *, *, #133, .F. ) ;
#198 = PLANE ( 'NONE',  #333 ) ;
#199 = EDGE_CURVE ( 'NONE', #1048, #111, #612, .T. ) ;
#200 = DIRECTION ( 'NONE',  ( 0.000000000000000000, 0.000000000000000000, -1.000000000000000000 ) ) ;
#201 = ORIENTED_EDGE ( 'NONE', *, *, #921, .T. ) ;
#202 = DIRECTION ( 'NONE',  ( 0.000000000000000000, 0.000000000000000000, -1.000000000000000000 ) ) ;
#203 = AXIS2_PLACEMENT_3D ( 'NONE', #674, #68, #578 ) ;
#204 = APPROVAL_PERSON_ORGANIZATION ( #770, #84, #627 ) ;
#205 = DIRECTION ( 'NONE',  ( 0.000000000000000000, 0.000000000000000000, 1.000000000000000000 ) ) ;
#206 = EDGE_LOOP ( 'NONE', ( #1008, #183 ) ) ;
#207 = CARTESIAN_POINT ( 'NONE',  ( 0.000000000000000000, 0.000000000000000000, 4.000000000000000000 ) ) ;
#208 = APPROVAL_DATE_TIME ( #180, #453 ) ;
#209 = LINE ( 'NONE', #467, #242 ) ;
#210 = EDGE_LOOP ( 'NONE', ( #37, #248, #463, #1026, #164, #897, #197, #469, #791, #644, #228, #448 ) ) ;
#211 = ORIENTED_EDGE ( 'NONE', *, *, #975, .F. ) ;
#212 = CARTESIAN_POINT ( 'NONE',  ( 13.00000000000000000, 1.592040838891559095E-15, 4.000000000000000000 ) ) ;
#213 = LINE ( 'NONE', #950, #186 ) ;
#214 = ORIENTED_EDGE ( 'NONE', *, *, #305, .F. ) ;
#215 = ORIENTED_EDGE ( 'NONE', *, *, #1035, .F. ) ;
#216 = DIRECTION ( 'NONE',  ( 0.000000000000000000, 0.000000000000000000, 1.000000000000000000 ) ) ;
#217 = VECTOR ( 'NONE', #346, 1000.000000000000000 ) ;
#218 = ADVANCED_FACE ( 'NONE', ( #715 ), #87, .T. ) ;
#219 = CARTESIAN_POINT ( 'NONE',  ( 0.000000000000000000, 0.000000000000000000, 4.000000000000000000 ) ) ;
#220 = CC_DESIGN_PERSON_AND_ORGANIZATION_ASSIGNMENT ( #874, #504, ( #625 ) ) ;
#221 = DIRECTION ( 'NONE',  ( -1.000000000000000000, 0.000000000000000000, 0.000000000000000000 ) ) ;
#222 = VERTEX_POINT ( 'NONE', #92 ) ;
#223 = ORIENTED_EDGE ( 'NONE', *, *, #709, .T. ) ;
#224 = DIRECTION ( 'NONE',  ( 0.000000000000000000, 1.000000000000000000, 0.000000000000000000 ) ) ;
#225 = CARTESIAN_POINT ( 'NONE',  ( 3.373054995104586062, 2.149999999999999911, 0.000000000000000000 ) ) ;
#226 = VECTOR ( 'NONE', #635, 1000.000000000000000 ) ;
#227 = CARTESIAN_POINT ( 'NONE',  ( 2.149999999999999911, -8.150000000000000355, -1.649999999999999911 ) ) ;
#228 = ORIENTED_EDGE ( 'NONE', *, *, #608, .F. ) ;
#229 = VERTEX_POINT ( 'NONE', #534 ) ;
#230 = LINE ( 'NONE', #1003, #626 ) ;
#231 = LINE ( 'NONE', #388, #648 ) ;
#232 = DIRECTION ( 'NONE',  ( -0.000000000000000000, -0.000000000000000000, 1.000000000000000000 ) ) ;
#233 = ORIENTED_EDGE ( 'NONE', *, *, #470, .T. ) ;
#234 = EDGE_CURVE ( 'NONE', #528, #969, #456, .T. ) ;
#235 = EDGE_LOOP ( 'NONE', ( #57, #1061, #638, #8 ) ) ;
#236 = CARTESIAN_POINT ( 'NONE',  ( 0.000000000000000000, 0.000000000000000000, 0.000000000000000000 ) ) ;
#237 = DIRECTION ( 'NONE',  ( -0.000000000000000000, -1.000000000000000000, -0.000000000000000000 ) ) ;
#238 = ADVANCED_FACE ( 'NONE', ( #195 ), #795, .F. ) ;
#239 = AXIS2_PLACEMENT_3D ( 'NONE', #896, #205, #560 ) ;
#240 = DIRECTION ( 'NONE',  ( 0.000000000000000000, 0.000000000000000000, 1.000000000000000000 ) ) ;
#241 = EDGE_LOOP ( 'NONE', ( #716, #722, #773, #585 ) ) ;
#242 = VECTOR ( 'NONE', #815, 1000.000000000000000 ) ;
#243 = LINE ( 'NONE', #935, #466 ) ;
#244 = CC_DESIGN_APPROVAL ( #410, ( #404 ) ) ;
#245 = CARTESIAN_POINT ( 'NONE',  ( -10.30000000000000071, 0.000000000000000000, 0.000000000000000000 ) ) ;
#246 = VECTOR ( 'NONE', #739, 1000.000000000000000 ) ;
#247 = CARTESIAN_POINT ( 'NONE',  ( 13.00000000000000000, 1.592040838891559095E-15, -1.649999999999999911 ) ) ;
#248 = ORIENTED_EDGE ( 'NONE', *, *, #28, .T. ) ;
#249 = DIRECTION ( 'NONE',  ( 1.000000000000000000, 0.000000000000000000, 0.000000000000000000 ) ) ;
#250 = CIRCLE ( 'NONE', #481, 1.149999999999999911 ) ;
#251 = CARTESIAN_POINT ( 'NONE',  ( 7.000000000000000000, -7.000000000000000000, 4.000000000000003553 ) ) ;
#252 = ORIENTED_EDGE ( 'NONE', *, *, #975, .T. ) ;
#253 = DIRECTION ( 'NONE',  ( 0.000000000000000000, 0.000000000000000000, 1.000000000000000000 ) ) ;
#254 = CARTESIAN_POINT ( 'NONE',  ( -3.373054995104586062, -2.149999999999999911, 0.000000000000000000 ) ) ;
#255 = ORIENTED_EDGE ( 'NONE', *, *, #420, .F. ) ;
#256 = CARTESIAN_POINT ( 'NONE',  ( -13.00000000000000000, 0.000000000000000000, -1.649999999999999911 ) ) ;
#257 = LINE ( 'NONE', #83, #319 ) ;
#258 = FACE_BOUND ( 'NONE', #686, .T. ) ;
#259 = COORDINATED_UNIVERSAL_TIME_OFFSET ( 6, 0, .BEHIND. ) ;
#260 = CARTESIAN_POINT ( 'NONE',  ( -2.149999999999999911, -8.150000000000000355, -1.649999999999999911 ) ) ;
#261 = EDGE_CURVE ( 'NONE', #718, #567, #359, .T. ) ;
#262 = ORIENTED_EDGE ( 'NONE', *, *, #998, .T. ) ;
#263 = EDGE_LOOP ( 'NONE', ( #295, #223, #977, #962 ) ) ;
#264 = DIRECTION ( 'NONE',  ( -1.000000000000000000, 0.000000000000000000, 0.000000000000000000 ) ) ;
#265 = AXIS2_PLACEMENT_3D ( 'NONE', #980, #522, #438 ) ;
#266 = CARTESIAN_POINT ( 'NONE',  ( -8.150000000000000355, 2.149999999999999911, -1.649999999999999911 ) ) ;
#267 = ORIENTED_EDGE ( 'NONE', *, *, #367, .T. ) ;
#268 = ADVANCED_FACE ( 'NONE', ( #888 ), #447, .T. ) ;
#269 = CARTESIAN_POINT ( 'NONE',  ( -5.850000000000000533, -7.000000000000000000, 4.000000000000003553 ) ) ;
#270 = EDGE_CURVE ( 'NONE', #454, #811, #105, .T. ) ;
#271 = PERSON_AND_ORGANIZATION_ROLE ( 'design_owner' ) ;
#272 = CARTESIAN_POINT ( 'NONE',  ( 0.000000000000000000, 0.000000000000000000, -1.649999999999999911 ) ) ;
#273 = VERTEX_POINT ( 'NONE', #108 ) ;
#274 = AXIS2_PLACEMENT_3D ( 'NONE', #236, #576, #486 ) ;
#275 = ORIENTED_EDGE ( 'NONE', *, *, #1058, .T. ) ;
#276 = DIRECTION ( 'NONE',  ( 0.000000000000000000, 0.000000000000000000, 1.000000000000000000 ) ) ;
#277 = ADVANCED_FACE ( 'NONE', ( #15 ), #362, .T. ) ;
#278 = LINE ( 'NONE', #620, #559 ) ;
#279 = ADVANCED_FACE ( 'NONE', ( #749 ), #43, .F. ) ;
#280 = VERTEX_POINT ( 'NONE', #227 ) ;
#281 = DIRECTION ( 'NONE',  ( 0.000000000000000000, 1.000000000000000000, 0.000000000000000000 ) ) ;
#282 = CARTESIAN_POINT ( 'NONE',  ( 3.373054995104586062, -2.149999999999999911, 0.000000000000000000 ) ) ;
#283 = AXIS2_PLACEMENT_3D ( 'NONE', #1093, #1099, #405 ) ;
#284 = EDGE_LOOP ( 'NONE', ( #142, #826, #974, #986 ) ) ;
#285 = CARTESIAN_POINT ( 'NONE',  ( 7.000000000000000000, 7.000000000000000000, -1.650000000000000355 ) ) ;
#286 = CARTESIAN_POINT ( 'NONE',  ( -8.150000000000000355, -2.149999999999999911, 0.000000000000000000 ) ) ;
#287 = ORIENTED_EDGE ( 'NONE', *, *, #801, .T. ) ;
#288 = ORIENTED_EDGE ( 'NONE', *, *, #160, .T. ) ;
#289 = VECTOR ( 'NONE', #138, 1000.000000000000000 ) ;
#290 = LINE ( 'NONE', #647, #478 ) ;
#291 = AXIS2_PLACEMENT_3D ( 'NONE', #911, #327, #681 ) ;
#292 = DIRECTION ( 'NONE',  ( 0.000000000000000000, 0.000000000000000000, 1.000000000000000000 ) ) ;
#293 = ORIENTED_EDGE ( 'NONE', *, *, #783, .T. ) ;
#294 = EDGE_CURVE ( 'NONE', #302, #39, #837, .T. ) ;
#295 = ORIENTED_EDGE ( 'NONE', *, *, #435, .T. ) ;
#296 = DIRECTION ( 'NONE',  ( 1.000000000000000000, 0.000000000000000000, 0.000000000000000000 ) ) ;
#297 = DIRECTION ( 'NONE',  ( -1.000000000000000000, 0.000000000000000000, 0.000000000000000000 ) ) ;
#298 = CIRCLE ( 'NONE', #599, 1.150000000000000799 ) ;
#299 = DIRECTION ( 'NONE',  ( 1.000000000000000000, 0.000000000000000000, 0.000000000000000000 ) ) ;
#300 = ORIENTED_EDGE ( 'NONE', *, *, #270, .F. ) ;
#301 = AXIS2_PLACEMENT_3D ( 'NONE', #973, #870, #355 ) ;
#302 = VERTEX_POINT ( 'NONE', #907 ) ;
#303 = FACE_OUTER_BOUND ( 'NONE', #196, .T. ) ;
#304 = CARTESIAN_POINT ( 'NONE',  ( -8.150000000000000355, 2.149999999999999911, 0.000000000000000000 ) ) ;
#305 = EDGE_CURVE ( 'NONE', #1088, #755, #88, .T. ) ;
#306 = CYLINDRICAL_SURFACE ( 'NONE', #945, 1.150000000000000799 ) ;
#307 = ORIENTED_EDGE ( 'NONE', *, *, #825, .T. ) ;
#308 = ORIENTED_EDGE ( 'NONE', *, *, #110, .F. ) ;
#309 = CARTESIAN_POINT ( 'NONE',  ( 0.000000000000000000, 0.000000000000000000, 0.000000000000000000 ) ) ;
#310 = LINE ( 'NONE', #753, #47 ) ;
#311 = VECTOR ( 'NONE', #640, 1000.000000000000000 ) ;
#312 = EDGE_CURVE ( 'NONE', #551, #191, #872, .T. ) ;
#313 = DIRECTION ( 'NONE',  ( 0.000000000000000000, 0.000000000000000000, -1.000000000000000000 ) ) ;
#314 = ORIENTED_EDGE ( 'NONE', *, *, #394, .F. ) ;
#315 = VERTEX_POINT ( 'NONE', #743 ) ;
#316 = CARTESIAN_POINT ( 'NONE',  ( 5.849999999999999645, 7.000000000000000000, 4.000000000000003553 ) ) ;
#317 = PRODUCT_DEFINITION_SHAPE ( 'NONE', 'NONE',  #625 ) ;
#318 = DIRECTION ( 'NONE',  ( 0.000000000000000000, 0.000000000000000000, 1.000000000000000000 ) ) ;
#319 = VECTOR ( 'NONE', #433, 1000.000000000000000 ) ;
#320 = PERSON ( 'UNSPECIFIED', 'UNSPECIFIED', 'UNSPECIFIED', ('UNSPECIFIED'), ('UNSPECIFIED'), ('UNSPECIFIED') ) ;
#321 = CARTESIAN_POINT ( 'NONE',  ( 0.000000000000000000, 0.000000000000000000, 0.000000000000000000 ) ) ;
#322 = ORIENTED_EDGE ( 'NONE', *, *, #641, .F. ) ;
#323 = EDGE_CURVE ( 'NONE', #580, #600, #525, .T. ) ;
#324 = DIRECTION ( 'NONE',  ( -1.000000000000000000, 0.000000000000000000, 0.000000000000000000 ) ) ;
#325 = VECTOR ( 'NONE', #892, 1000.000000000000000 ) ;
#326 = APPROVAL_STATUS ( 'not_yet_approved' ) ;
#327 = DIRECTION ( 'NONE',  ( 1.000000000000000000, -0.000000000000000000, 0.000000000000000000 ) ) ;
#328 = CYLINDRICAL_SURFACE ( 'NONE', #381, 2.149999999999999023 ) ;
#329 = DIRECTION ( 'NONE',  ( 1.000000000000000000, 0.000000000000000000, 0.000000000000000000 ) ) ;
#330 = CC_DESIGN_APPROVAL ( #453, ( #1059 ) ) ;
#331 = PERSON_AND_ORGANIZATION_ROLE ( 'classification_officer' ) ;
#332 = CARTESIAN_POINT ( 'NONE',  ( 2.149999999999999911, -8.150000000000000355, -1.649999999999999911 ) ) ;
#333 = AXIS2_PLACEMENT_3D ( 'NONE', #95, #32, #733 ) ;
#334 = EDGE_CURVE ( 'NONE', #273, #933, #659, .T. ) ;
#335 = DIRECTION ( 'NONE',  ( 0.000000000000000000, 0.000000000000000000, 1.000000000000000000 ) ) ;
#336 = ORIENTED_EDGE ( 'NONE', *, *, #696, .T. ) ;
#337 = CIRCLE ( 'NONE', #193, 4.000000000000000000 ) ;
#338 = DIRECTION ( 'NONE',  ( 0.000000000000000000, 0.000000000000000000, -1.000000000000000000 ) ) ;
#339 = CYLINDRICAL_SURFACE ( 'NONE', #203, 2.149999999999999911 ) ;
#340 = DIRECTION ( 'NONE',  ( 0.000000000000000000, 0.000000000000000000, 1.000000000000000000 ) ) ;
#341 = DIRECTION ( 'NONE',  ( 1.000000000000000000, 0.000000000000000000, 0.000000000000000000 ) ) ;
#342 = EDGE_CURVE ( 'NONE', #981, #731, #680, .T. ) ;
#343 = AXIS2_PLACEMENT_3D ( 'NONE', #835, #554, #124 ) ;
#344 = ORIENTED_EDGE ( 'NONE', *, *, #597, .T. ) ;
#345 = LOCAL_TIME ( 21, 59, 8.000000000000000000, #259 ) ;
#346 = DIRECTION ( 'NONE',  ( 0.000000000000000000, 0.000000000000000000, -1.000000000000000000 ) ) ;
#347 = ADVANCED_FACE ( 'NONE', ( #1073 ), #306, .F. ) ;
#348 = VECTOR ( 'NONE', #472, 1000.000000000000000 ) ;
#349 = DIRECTION ( 'NONE',  ( -1.000000000000000000, 0.000000000000000000, -0.000000000000000000 ) ) ;
#350 = ORIENTED_EDGE ( 'NONE', *, *, #506, .T. ) ;
#351 = CIRCLE ( 'NONE', #3, 13.00000000000000000 ) ;
#352 = CARTESIAN_POINT ( 'NONE',  ( 5.849999999999999645, 7.000000000000000000, 4.000000000000003553 ) ) ;
#353 =( NAMED_UNIT ( * ) SI_UNIT ( $, .STERADIAN. ) SOLID_ANGLE_UNIT ( ) );
#354 = CIRCLE ( 'NONE', #556, 13.00000000000000000 ) ;
#355 = DIRECTION ( 'NONE',  ( 1.000000000000000000, 0.000000000000000000, 0.000000000000000000 ) ) ;
#356 = ORIENTED_EDGE ( 'NONE', *, *, #699, .F. ) ;
#357 = DIRECTION ( 'NONE',  ( 0.000000000000000000, 0.000000000000000000, 1.000000000000000000 ) ) ;
#358 = VECTOR ( 'NONE', #736, 1000.000000000000000 ) ;
#359 = CIRCLE ( 'NONE', #265, 1.149999999999999911 ) ;
#360 = AXIS2_PLACEMENT_3D ( 'NONE', #140, #1085, #297 ) ;
#361 = APPLICATION_PROTOCOL_DEFINITION ( 'international standard', 'config_control_design', 1994, #1017 ) ;
#362 = PLANE ( 'NONE',  #146 ) ;
#363 = ORIENTED_EDGE ( 'NONE', *, *, #367, .F. ) ;
#364 = EDGE_CURVE ( 'NONE', #908, #1080, #656, .T. ) ;
#365 = ORIENTED_EDGE ( 'NONE', *, *, #60, .T. ) ;
#366 = CARTESIAN_POINT ( 'NONE',  ( 8.150000000000000355, -7.000000000000000000, 4.000000000000003553 ) ) ;
#367 = EDGE_CURVE ( 'NONE', #816, #675, #914, .T. ) ;
#368 = CARTESIAN_POINT ( 'NONE',  ( 2.149999999999999911, -8.150000000000000355, 0.000000000000000000 ) ) ;
#369 = AXIS2_PLACEMENT_3D ( 'NONE', #978, #803, #819 ) ;
#370 = ORIENTED_EDGE ( 'NONE', *, *, #1092, .F. ) ;
#371 = CARTESIAN_POINT ( 'NONE',  ( -8.150000000000000355, 2.149999999999999911, 0.000000000000000000 ) ) ;
#372 = CARTESIAN_POINT ( 'NONE',  ( 2.149999999999999911, 3.373054995104586062, 0.000000000000000000 ) ) ;
#373 = VERTEX_POINT ( 'NONE', #650 ) ;
#374 = ADVANCED_BREP_SHAPE_REPRESENTATION ( 'FIT-002_SG90_horn_pocket_clearance_0p15', ( #649, #439 ), #38 ) ;
#375 = CYLINDRICAL_SURFACE ( 'NONE', #1098, 1.150000000000000799 ) ;
#376 = CYLINDRICAL_SURFACE ( 'NONE', #732, 2.149999999999999023 ) ;
#377 = EDGE_LOOP ( 'NONE', ( #363, #993, #831, #613 ) ) ;
#378 = AXIS2_PLACEMENT_3D ( 'NONE', #383, #548, #823 ) ;
#379 = ORIENTED_EDGE ( 'NONE', *, *, #840, .T. ) ;
#380 = DIRECTION ( 'NONE',  ( -1.000000000000000000, 0.000000000000000000, 0.000000000000000000 ) ) ;
#381 = AXIS2_PLACEMENT_3D ( 'NONE', #154, #760, #1040 ) ;
#382 = EDGE_CURVE ( 'NONE', #916, #981, #489, .T. ) ;
#383 = CARTESIAN_POINT ( 'NONE',  ( -7.000000000000000000, -7.000000000000000000, -1.650000000000000355 ) ) ;
#384 = ORIENTED_EDGE ( 'NONE', *, *, #364, .T. ) ;
#385 = ORIENTED_EDGE ( 'NONE', *, *, #18, .F. ) ;
#386 = AXIS2_PLACEMENT_3D ( 'NONE', #1067, #22, #445 ) ;
#387 = LINE ( 'NONE', #53, #246 ) ;
#388 = CARTESIAN_POINT ( 'NONE',  ( -2.149999999999999911, -8.150000000000000355, -1.649999999999999911 ) ) ;
#389 = SHAPE_DEFINITION_REPRESENTATION ( #317, #374 ) ;
#390 = VECTOR ( 'NONE', #924, 1000.000000000000000 ) ;
#391 = DIRECTION ( 'NONE',  ( 0.000000000000000000, 0.000000000000000000, 1.000000000000000000 ) ) ;
#392 = ORIENTED_EDGE ( 'NONE', *, *, #488, .T. ) ;
#393 = VERTEX_POINT ( 'NONE', #482 ) ;
#394 = EDGE_CURVE ( 'NONE', #530, #916, #298, .T. ) ;
#395 = PLANE ( 'NONE',  #274 ) ;
#396 = CARTESIAN_POINT ( 'NONE',  ( 0.000000000000000000, 0.000000000000000000, 4.000000000000000000 ) ) ;
#397 = CARTESIAN_POINT ( 'NONE',  ( 7.000000000000000000, 7.000000000000000000, 4.000000000000003553 ) ) ;
#398 = EDGE_LOOP ( 'NONE', ( #898, #483 ) ) ;
#399 = UNCERTAINTY_MEASURE_WITH_UNIT (LENGTH_MEASURE( 1.000000000000000082E-05 ), #521, 'distance_accuracy_value', 'NONE');
#400 = ORIENTED_EDGE ( 'NONE', *, *, #1112, .F. ) ;
#401 = CARTESIAN_POINT ( 'NONE',  ( -8.150000000000000355, 0.000000000000000000, -1.649999999999999911 ) ) ;
#402 = EDGE_CURVE ( 'NONE', #615, #646, #810, .T. ) ;
#403 = DIRECTION ( 'NONE',  ( -0.000000000000000000, -0.000000000000000000, -1.000000000000000000 ) ) ;
#404 = PRODUCT_DEFINITION_FORMATION_WITH_SPECIFIED_SOURCE ( 'ANY', '', #415, .NOT_KNOWN. ) ;
#405 = DIRECTION ( 'NONE',  ( 1.000000000000000000, 0.000000000000000000, 0.000000000000000000 ) ) ;
#406 = EDGE_LOOP ( 'NONE', ( #44, #1066, #502, #267 ) ) ;
#407 = ORIENTED_EDGE ( 'NONE', *, *, #185, .T. ) ;
#408 = CARTESIAN_POINT ( 'NONE',  ( -2.149999999999999911, -8.150000000000000355, -1.649999999999999911 ) ) ;
#409 = FACE_OUTER_BOUND ( 'NONE', #671, .T. ) ;
#410 = APPROVAL ( #70, 'UNSPECIFIED' ) ;
#411 = CARTESIAN_POINT ( 'NONE',  ( -5.850000000000000533, -7.000000000000000000, 4.000000000000003553 ) ) ;
#412 = ORIENTED_EDGE ( 'NONE', *, *, #602, .T. ) ;
#413 = PLANE ( 'NONE',  #960 ) ;
#414 = DIRECTION ( 'NONE',  ( 1.000000000000000000, 0.000000000000000000, 0.000000000000000000 ) ) ;
#415 = PRODUCT ( 'FIT-002_SG90_horn_pocket_clearance_0p15', 'FIT-002_SG90_horn_pocket_clearance_0p15', '', ( #852 ) ) ;
#416 = DIRECTION ( 'NONE',  ( 0.000000000000000000, 0.000000000000000000, -1.000000000000000000 ) ) ;
#417 = DIRECTION ( 'NONE',  ( 0.000000000000000000, 0.000000000000000000, -1.000000000000000000 ) ) ;
#418 = DIRECTION ( 'NONE',  ( 0.000000000000000000, 0.000000000000000000, -1.000000000000000000 ) ) ;
#419 = VECTOR ( 'NONE', #967, 1000.000000000000000 ) ;
#420 = EDGE_CURVE ( 'NONE', #665, #315, #1002, .T. ) ;
#421 = LINE ( 'NONE', #352, #217 ) ;
#422 = CARTESIAN_POINT ( 'NONE',  ( 8.150000000000000355, 7.000000000000000000, -1.650000000000000355 ) ) ;
#423 = ADVANCED_FACE ( 'NONE', ( #29 ), #376, .F. ) ;
#424 = CC_DESIGN_PERSON_AND_ORGANIZATION_ASSIGNMENT ( #98, #619, ( #404 ) ) ;
#425 = VERTEX_POINT ( 'NONE', #992 ) ;
#426 = EDGE_CURVE ( 'NONE', #751, #730, #209, .T. ) ;
#427 = FACE_BOUND ( 'NONE', #398, .T. ) ;
#428 = CIRCLE ( 'NONE', #735, 1.149999999999999911 ) ;
#429 = CARTESIAN_POINT ( 'NONE',  ( -4.000000000000000000, 0.000000000000000000, 4.000000000000000000 ) ) ;
#430 = DIRECTION ( 'NONE',  ( 0.000000000000000000, 0.000000000000000000, 1.000000000000000000 ) ) ;
#431 = DIRECTION ( 'NONE',  ( 0.000000000000000000, 0.000000000000000000, 1.000000000000000000 ) ) ;
#432 = CARTESIAN_POINT ( 'NONE',  ( -5.850000000000000533, 7.000000000000000000, 4.000000000000003553 ) ) ;
#433 = DIRECTION ( 'NONE',  ( 0.000000000000000000, 0.000000000000000000, -1.000000000000000000 ) ) ;
#434 = CARTESIAN_POINT ( 'NONE',  ( 4.000000000000000000, 4.898587196589412829E-16, 0.000000000000000000 ) ) ;
#435 = EDGE_CURVE ( 'NONE', #315, #457, #213, .T. ) ;
#436 = CALENDAR_DATE ( 2026, 12, 9 ) ;
#437 = ADVANCED_FACE ( 'NONE', ( #860 ), #328, .F. ) ;
#438 = DIRECTION ( 'NONE',  ( 1.000000000000000000, 0.000000000000000000, 0.000000000000000000 ) ) ;
#439 = AXIS2_PLACEMENT_3D ( 'NONE', #595, #188, #249 ) ;
#440 = CARTESIAN_POINT ( 'NONE',  ( 4.000000000000000000, 4.898587196589412829E-16, 4.000000000000000000 ) ) ;
#441 = AXIS2_PLACEMENT_3D ( 'NONE', #81, #431, #341 ) ;
#442 = LINE ( 'NONE', #266, #766 ) ;
#443 = EDGE_LOOP ( 'NONE', ( #909, #201, #31, #51 ) ) ;
#444 = VERTEX_POINT ( 'NONE', #598 ) ;
#445 = DIRECTION ( 'NONE',  ( 1.000000000000000000, 0.000000000000000000, 0.000000000000000000 ) ) ;
#446 = VECTOR ( 'NONE', #776, 1000.000000000000000 ) ;
#447 = PLANE ( 'NONE',  #614 ) ;
#448 = ORIENTED_EDGE ( 'NONE', *, *, #550, .F. ) ;
#449 = CARTESIAN_POINT ( 'NONE',  ( 0.000000000000000000, -8.150000000000000355, -1.649999999999999911 ) ) ;
#450 = VECTOR ( 'NONE', #475, 1000.000000000000000 ) ;
#451 = EDGE_CURVE ( 'NONE', #191, #551, #683, .T. ) ;
#452 = CARTESIAN_POINT ( 'NONE',  ( -2.149999999999999911, -8.150000000000000355, 0.000000000000000000 ) ) ;
#453 = APPROVAL ( #104, 'UNSPECIFIED' ) ;
#454 = VERTEX_POINT ( 'NONE', #429 ) ;
#455 = LINE ( 'NONE', #269, #311 ) ;
#456 = LINE ( 'NONE', #785, #167 ) ;
#457 = VERTEX_POINT ( 'NONE', #254 ) ;
#458 = AXIS2_PLACEMENT_3D ( 'NONE', #285, #792, #1057 ) ;
#459 = ORIENTED_EDGE ( 'NONE', *, *, #699, .T. ) ;
#460 = LINE ( 'NONE', #965, #42 ) ;
#461 = DIRECTION ( 'NONE',  ( 1.000000000000000000, 0.000000000000000000, 0.000000000000000000 ) ) ;
#462 = ORIENTED_EDGE ( 'NONE', *, *, #873, .T. ) ;
#463 = ORIENTED_EDGE ( 'NONE', *, *, #270, .T. ) ;
#464 = CARTESIAN_POINT ( 'NONE',  ( 2.149999999999999911, -3.373054995104586062, 0.000000000000000000 ) ) ;
#465 = EDGE_CURVE ( 'NONE', #933, #302, #1, .T. ) ;
#466 = VECTOR ( 'NONE', #876, 1000.000000000000000 ) ;
#467 = CARTESIAN_POINT ( 'NONE',  ( 4.000000000000000000, 4.898587196589412829E-16, 4.000000000000000000 ) ) ;
#468 = AXIS2_PLACEMENT_3D ( 'NONE', #219, #1103, #1023 ) ;
#469 = ORIENTED_EDGE ( 'NONE', *, *, #654, .F. ) ;
#470 = EDGE_CURVE ( 'NONE', #425, #1069, #529, .T. ) ;
#471 = ORIENTED_EDGE ( 'NONE', *, *, #591, .F. ) ;
#472 = DIRECTION ( 'NONE',  ( -0.000000000000000000, -1.000000000000000000, -0.000000000000000000 ) ) ;
#473 = CARTESIAN_POINT ( 'NONE',  ( -8.150000000000000355, -2.149999999999999911, 0.000000000000000000 ) ) ;
#474 = EDGE_CURVE ( 'NONE', #1080, #908, #35, .T. ) ;
#475 = DIRECTION ( 'NONE',  ( 0.000000000000000000, 0.000000000000000000, -1.000000000000000000 ) ) ;
#476 = ORIENTED_EDGE ( 'NONE', *, *, #955, .T. ) ;
#477 = ORIENTED_EDGE ( 'NONE', *, *, #488, .F. ) ;
#478 = VECTOR ( 'NONE', #479, 1000.000000000000000 ) ;
#479 = DIRECTION ( 'NONE',  ( 1.000000000000000000, 0.000000000000000000, 0.000000000000000000 ) ) ;
#480 = CYLINDRICAL_SURFACE ( 'NONE', #360, 1.150000000000000799 ) ;
#481 = AXIS2_PLACEMENT_3D ( 'NONE', #747, #318, #65 ) ;
#482 = CARTESIAN_POINT ( 'NONE',  ( -8.150000000000000355, 2.149999999999999911, -1.649999999999999911 ) ) ;
#483 = ORIENTED_EDGE ( 'NONE', *, *, #451, .F. ) ;
#484 = ADVANCED_FACE ( 'NONE', ( #517 ), #339, .F. ) ;
#485 = ORIENTED_EDGE ( 'NONE', *, *, #787, .T. ) ;
#486 = DIRECTION ( 'NONE',  ( -1.000000000000000000, 0.000000000000000000, -0.000000000000000000 ) ) ;
#487 = FACE_OUTER_BOUND ( 'NONE', #922, .T. ) ;
#488 = EDGE_CURVE ( 'NONE', #567, #718, #1043, .T. ) ;
#489 = LINE ( 'NONE', #566, #450 ) ;
#490 = VERTEX_POINT ( 'NONE', #247 ) ;
#491 = ORIENTED_EDGE ( 'NONE', *, *, #519, .F. ) ;
#492 = LINE ( 'NONE', #212, #642 ) ;
#493 = VECTOR ( 'NONE', #299, 1000.000000000000000 ) ;
#494 = FACE_OUTER_BOUND ( 'NONE', #21, .T. ) ;
#495 = DIRECTION ( 'NONE',  ( 0.000000000000000000, -0.000000000000000000, -1.000000000000000000 ) ) ;
#496 = ORIENTED_EDGE ( 'NONE', *, *, #294, .T. ) ;
#497 = CARTESIAN_POINT ( 'NONE',  ( -8.150000000000000355, 2.149999999999999911, -1.649999999999999911 ) ) ;
#498 = CARTESIAN_POINT ( 'NONE',  ( -3.373054995104586062, -2.149999999999999911, -1.649999999999999911 ) ) ;
#499 = VECTOR ( 'NONE', #864, 1000.000000000000000 ) ;
#500 = DIRECTION ( 'NONE',  ( 0.000000000000000000, 0.000000000000000000, -1.000000000000000000 ) ) ;
#501 = LINE ( 'NONE', #584, #446 ) ;
#502 = ORIENTED_EDGE ( 'NONE', *, *, #994, .T. ) ;
#503 = ORIENTED_EDGE ( 'NONE', *, *, #608, .T. ) ;
#504 = PERSON_AND_ORGANIZATION_ROLE ( 'creator' ) ;
#505 = LINE ( 'NONE', #89, #677 ) ;
#506 = EDGE_CURVE ( 'NONE', #1056, #79, #351, .T. ) ;
#507 = FACE_OUTER_BOUND ( 'NONE', #726, .T. ) ;
#508 = AXIS2_PLACEMENT_3D ( 'NONE', #919, #141, #984 ) ;
#509 = CARTESIAN_POINT ( 'NONE',  ( 8.150000000000000355, 2.149999999999999023, 0.000000000000000000 ) ) ;
#510 = VECTOR ( 'NONE', #637, 1000.000000000000000 ) ;
#511 = AXIS2_PLACEMENT_3D ( 'NONE', #396, #59, #655 ) ;
#512 = DIRECTION ( 'NONE',  ( -1.000000000000000000, 0.000000000000000000, 0.000000000000000000 ) ) ;
#513 = CARTESIAN_POINT ( 'NONE',  ( -7.000000000000000000, -7.000000000000000000, -1.650000000000000355 ) ) ;
#514 = DIRECTION ( 'NONE',  ( 0.000000000000000000, 0.000000000000000000, -1.000000000000000000 ) ) ;
#515 = CYLINDRICAL_SURFACE ( 'NONE', #617, 4.000000000000000000 ) ;
#516 = VECTOR ( 'NONE', #224, 1000.000000000000000 ) ;
#517 = FACE_OUTER_BOUND ( 'NONE', #377, .T. ) ;
#518 = CARTESIAN_POINT ( 'NONE',  ( 8.150000000000000355, 2.149999999999999023, -1.649999999999999911 ) ) ;
#519 = EDGE_CURVE ( 'NONE', #969, #651, #501, .T. ) ;
#520 = DIRECTION ( 'NONE',  ( -1.000000000000000000, 0.000000000000000000, 0.000000000000000000 ) ) ;
#521 =( LENGTH_UNIT ( ) NAMED_UNIT ( * ) SI_UNIT ( .MILLI., .METRE. ) );
#522 = DIRECTION ( 'NONE',  ( 0.000000000000000000, 0.000000000000000000, 1.000000000000000000 ) ) ;
#523 = CARTESIAN_POINT ( 'NONE',  ( -2.149999999999999911, -3.373054995104586062, -1.649999999999999911 ) ) ;
#524 = ADVANCED_FACE ( 'NONE', ( #507 ), #147, .T. ) ;
#525 = CIRCLE ( 'NONE', #283, 1.149999999999999911 ) ;
#526 = COORDINATED_UNIVERSAL_TIME_OFFSET ( 6, 0, .BEHIND. ) ;
#527 = CARTESIAN_POINT ( 'NONE',  ( -4.000000000000000000, 0.000000000000000000, 4.000000000000000000 ) ) ;
#528 = VERTEX_POINT ( 'NONE', #74 ) ;
#529 = CIRCLE ( 'NONE', #90, 4.000000000000000000 ) ;
#530 = VERTEX_POINT ( 'NONE', #932 ) ;
#531 = CARTESIAN_POINT ( 'NONE',  ( 8.150000000000000355, 7.000000000000000000, 4.000000000000003553 ) ) ;
#532 = AXIS2_PLACEMENT_3D ( 'NONE', #582, #1089, #128 ) ;
#533 = APPLICATION_PROTOCOL_DEFINITION ( 'international standard', 'config_control_design', 1994, #136 ) ;
#534 = CARTESIAN_POINT ( 'NONE',  ( 5.849999999999999645, 7.000000000000000000, -1.650000000000000355 ) ) ;
#535 = ORIENTED_EDGE ( 'NONE', *, *, #116, .F. ) ;
#536 = ADVANCED_FACE ( 'NONE', ( #844 ), #1019, .T. ) ;
#537 = ORIENTED_EDGE ( 'NONE', *, *, #1037, .T. ) ;
#538 = PLANE ( 'NONE',  #172 ) ;
#539 = VECTOR ( 'NONE', #1091, 1000.000000000000000 ) ;
#540 = PERSON_AND_ORGANIZATION ( #320, #734 ) ;
#541 = DIRECTION ( 'NONE',  ( -1.000000000000000000, 0.000000000000000000, 0.000000000000000000 ) ) ;
#542 = ORIENTED_EDGE ( 'NONE', *, *, #474, .T. ) ;
#543 = ORIENTED_EDGE ( 'NONE', *, *, #696, .F. ) ;
#544 = FACE_BOUND ( 'NONE', #639, .T. ) ;
#545 = CARTESIAN_POINT ( 'NONE',  ( 0.000000000000000000, -8.150000000000000355, 0.000000000000000000 ) ) ;
#546 = VERTEX_POINT ( 'NONE', #422 ) ;
#547 = CARTESIAN_POINT ( 'NONE',  ( 8.150000000000000355, -2.149999999999999023, 0.000000000000000000 ) ) ;
#548 = DIRECTION ( 'NONE',  ( -0.000000000000000000, -0.000000000000000000, -1.000000000000000000 ) ) ;
#549 = ORIENTED_EDGE ( 'NONE', *, *, #825, .F. ) ;
#550 = EDGE_CURVE ( 'NONE', #730, #604, #337, .T. ) ;
#551 = VERTEX_POINT ( 'NONE', #61 ) ;
#552 = DIRECTION ( 'NONE',  ( 0.000000000000000000, 0.000000000000000000, 1.000000000000000000 ) ) ;
#553 = EDGE_CURVE ( 'NONE', #1021, #222, #97, .T. ) ;
#554 = DIRECTION ( 'NONE',  ( -0.000000000000000000, -0.000000000000000000, -1.000000000000000000 ) ) ;
#555 = ORIENTED_EDGE ( 'NONE', *, *, #553, .T. ) ;
#556 = AXIS2_PLACEMENT_3D ( 'NONE', #169, #430, #777 ) ;
#557 = ORIENTED_EDGE ( 'NONE', *, *, #840, .F. ) ;
#558 = DIRECTION ( 'NONE',  ( -0.000000000000000000, -0.000000000000000000, -1.000000000000000000 ) ) ;
#559 = VECTOR ( 'NONE', #961, 1000.000000000000000 ) ;
#560 = DIRECTION ( 'NONE',  ( 1.000000000000000000, 0.000000000000000000, 0.000000000000000000 ) ) ;
#561 = CIRCLE ( 'NONE', #691, 1.150000000000000799 ) ;
#562 = ORIENTED_EDGE ( 'NONE', *, *, #334, .F. ) ;
#563 = EDGE_LOOP ( 'NONE', ( #1014, #120, #275, #807 ) ) ;
#564 = CARTESIAN_POINT ( 'NONE',  ( -3.373054995104586062, 2.149999999999999911, 0.000000000000000000 ) ) ;
#565 = LINE ( 'NONE', #473, #539 ) ;
#566 = CARTESIAN_POINT ( 'NONE',  ( 8.150000000000000355, -7.000000000000000000, 4.000000000000003553 ) ) ;
#567 = VERTEX_POINT ( 'NONE', #432 ) ;
#568 = ORIENTED_EDGE ( 'NONE', *, *, #151, .T. ) ;
#569 = VECTOR ( 'NONE', #885, 1000.000000000000000 ) ;
#570 = DIRECTION ( 'NONE',  ( 0.000000000000000000, 1.000000000000000000, 0.000000000000000000 ) ) ;
#571 = EDGE_CURVE ( 'NONE', #755, #425, #779, .T. ) ;
#572 = DIRECTION ( 'NONE',  ( 0.000000000000000000, 0.000000000000000000, 1.000000000000000000 ) ) ;
#573 = CARTESIAN_POINT ( 'NONE',  ( -2.149999999999999911, -8.150000000000000355, 0.000000000000000000 ) ) ;
#574 = EDGE_LOOP ( 'NONE', ( #903, #17 ) ) ;
#575 = EDGE_LOOP ( 'NONE', ( #56, #485, #692, #293 ) ) ;
#576 = DIRECTION ( 'NONE',  ( 0.000000000000000000, 0.000000000000000000, -1.000000000000000000 ) ) ;
#577 = LINE ( 'NONE', #304, #390 ) ;
#578 = DIRECTION ( 'NONE',  ( -1.000000000000000000, 0.000000000000000000, 0.000000000000000000 ) ) ;
#579 = ORIENTED_EDGE ( 'NONE', *, *, #636, .T. ) ;
#580 = VERTEX_POINT ( 'NONE', #411 ) ;
#581 = EDGE_CURVE ( 'NONE', #229, #546, #139, .T. ) ;
#582 = CARTESIAN_POINT ( 'NONE',  ( -8.150000000000000355, 0.000000000000000000, 0.000000000000000000 ) ) ;
#583 = CARTESIAN_POINT ( 'NONE',  ( 3.373054995104586062, 2.149999999999999911, 0.000000000000000000 ) ) ;
#584 = CARTESIAN_POINT ( 'NONE',  ( -8.150000000000000355, 2.149999999999999911, 0.000000000000000000 ) ) ;
#585 = ORIENTED_EDGE ( 'NONE', *, *, #887, .F. ) ;
#586 = CARTESIAN_POINT ( 'NONE',  ( 0.000000000000000000, 0.000000000000000000, 0.000000000000000000 ) ) ;
#587 =( NAMED_UNIT ( * ) PLANE_ANGLE_UNIT ( ) SI_UNIT ( $, .RADIAN. ) );
#588 = ADVANCED_FACE ( 'NONE', ( #145 ), #54, .T. ) ;
#589 = AXIS2_PLACEMENT_3D ( 'NONE', #371, #983, #723 ) ;
#590 = CARTESIAN_POINT ( 'NONE',  ( 2.149999999999999911, 8.150000000000000355, -1.649999999999999911 ) ) ;
#591 = EDGE_CURVE ( 'NONE', #755, #190, #231, .T. ) ;
#592 = CARTESIAN_POINT ( 'NONE',  ( 8.150000000000000355, -2.149999999999999911, 0.000000000000000000 ) ) ;
#593 = AXIS2_PLACEMENT_3D ( 'NONE', #82, #168, #695 ) ;
#594 = ORIENTED_EDGE ( 'NONE', *, *, #591, .T. ) ;
#595 = CARTESIAN_POINT ( 'NONE',  ( 0.000000000000000000, 0.000000000000000000, 0.000000000000000000 ) ) ;
#596 = CARTESIAN_POINT ( 'NONE',  ( -5.850000000000000533, 7.000000000000000000, 4.000000000000003553 ) ) ;
#597 = EDGE_CURVE ( 'NONE', #315, #222, #565, .T. ) ;
#598 = CARTESIAN_POINT ( 'NONE',  ( -2.149999999999999911, -8.150000000000000355, 0.000000000000000000 ) ) ;
#599 = AXIS2_PLACEMENT_3D ( 'NONE', #830, #1013, #36 ) ;
#600 = VERTEX_POINT ( 'NONE', #930 ) ;
#601 = DIRECTION ( 'NONE',  ( 1.000000000000000000, 0.000000000000000000, 0.000000000000000000 ) ) ;
#602 = EDGE_CURVE ( 'NONE', #964, #373, #158, .T. ) ;
#603 = DIRECTION ( 'NONE',  ( 1.000000000000000000, 0.000000000000000000, 0.000000000000000000 ) ) ;
#604 = VERTEX_POINT ( 'NONE', #583 ) ;
#605 = CARTESIAN_POINT ( 'NONE',  ( 2.149999999999999911, 8.150000000000000355, 0.000000000000000000 ) ) ;
#606 = CC_DESIGN_DATE_AND_TIME_ASSIGNMENT ( #966, #886, ( #625 ) ) ;
#607 = DIRECTION ( 'NONE',  ( 1.000000000000000000, 0.000000000000000000, 0.000000000000000000 ) ) ;
#608 = EDGE_CURVE ( 'NONE', #604, #750, #663, .T. ) ;
#609 = FACE_OUTER_BOUND ( 'NONE', #780, .T. ) ;
#610 = EDGE_CURVE ( 'NONE', #600, #551, #310, .T. ) ;
#611 = PERSON_AND_ORGANIZATION_ROLE ( 'creator' ) ;
#612 = LINE ( 'NONE', #800, #1004 ) ;
#613 = ORIENTED_EDGE ( 'NONE', *, *, #958, .F. ) ;
#614 = AXIS2_PLACEMENT_3D ( 'NONE', #181, #6, #349 ) ;
#615 = VERTEX_POINT ( 'NONE', #848 ) ;
#616 = DIRECTION ( 'NONE',  ( -0.000000000000000000, -0.000000000000000000, -1.000000000000000000 ) ) ;
#617 = AXIS2_PLACEMENT_3D ( 'NONE', #953, #689, #520 ) ;
#618 = EDGE_CURVE ( 'NONE', #811, #457, #1084, .T. ) ;
#619 = PERSON_AND_ORGANIZATION_ROLE ( 'design_supplier' ) ;
#620 = CARTESIAN_POINT ( 'NONE',  ( -2.149999999999999911, 3.373054995104586062, 0.000000000000000000 ) ) ;
#621 = ORIENTED_EDGE ( 'NONE', *, *, #875, .F. ) ;
#622 = ORIENTED_EDGE ( 'NONE', *, *, #470, .F. ) ;
#623 = FACE_BOUND ( 'NONE', #727, .T. ) ;
#624 = EDGE_CURVE ( 'NONE', #600, #580, #250, .T. ) ;
#625 = PRODUCT_DEFINITION ( 'UNKNOWN', '', #404, #1081 ) ;
#626 = VECTOR ( 'NONE', #570, 1000.000000000000000 ) ;
#627 = APPROVAL_ROLE ( '' ) ;
#628 = DIRECTION ( 'NONE',  ( -0.000000000000000000, -0.000000000000000000, 1.000000000000000000 ) ) ;
#629 = ORIENTED_EDGE ( 'NONE', *, *, #912, .F. ) ;
#630 = DIRECTION ( 'NONE',  ( 1.000000000000000000, 0.000000000000000000, 0.000000000000000000 ) ) ;
#631 = AXIS2_PLACEMENT_3D ( 'NONE', #856, #1121, #495 ) ;
#632 = CARTESIAN_POINT ( 'NONE',  ( -5.850000000000000533, -7.000000000000000000, -1.650000000000000355 ) ) ;
#633 = EDGE_LOOP ( 'NONE', ( #215, #817, #889, #703 ) ) ;
#634 = ORIENTED_EDGE ( 'NONE', *, *, #402, .F. ) ;
#635 = DIRECTION ( 'NONE',  ( 0.000000000000000000, 0.000000000000000000, -1.000000000000000000 ) ) ;
#636 = EDGE_CURVE ( 'NONE', #30, #604, #577, .T. ) ;
#637 = DIRECTION ( 'NONE',  ( 0.000000000000000000, 0.000000000000000000, -1.000000000000000000 ) ) ;
#638 = ORIENTED_EDGE ( 'NONE', *, *, #342, .T. ) ;
#639 = EDGE_LOOP ( 'NONE', ( #314, #744 ) ) ;
#640 = DIRECTION ( 'NONE',  ( 0.000000000000000000, 0.000000000000000000, -1.000000000000000000 ) ) ;
#641 = EDGE_CURVE ( 'NONE', #615, #920, #1010, .T. ) ;
#642 = VECTOR ( 'NONE', #558, 1000.000000000000000 ) ;
#643 = CARTESIAN_POINT ( 'NONE',  ( -7.000000000000000000, -7.000000000000000000, 4.000000000000003553 ) ) ;
#644 = ORIENTED_EDGE ( 'NONE', *, *, #809, .F. ) ;
#645 = ADVANCED_FACE ( 'NONE', ( #494 ), #758, .F. ) ;
#646 = VERTEX_POINT ( 'NONE', #673 ) ;
#647 = CARTESIAN_POINT ( 'NONE',  ( -8.150000000000000355, -2.149999999999999911, -1.649999999999999911 ) ) ;
#648 = VECTOR ( 'NONE', #237, 1000.000000000000000 ) ;
#649 = MANIFOLD_SOLID_BREP ( 'Hub_clearance_in_key_boss_only', #900 ) ;
#650 = CARTESIAN_POINT ( 'NONE',  ( -5.850000000000000533, 7.000000000000000000, -1.650000000000000355 ) ) ;
#651 = VERTEX_POINT ( 'NONE', #842 ) ;
#652 = VERTEX_POINT ( 'NONE', #41 ) ;
#653 = CARTESIAN_POINT ( 'NONE',  ( -10.30000000000000071, 0.000000000000000000, -1.649999999999999911 ) ) ;
#654 = EDGE_CURVE ( 'NONE', #111, #646, #179, .T. ) ;
#655 = DIRECTION ( 'NONE',  ( -1.000000000000000000, 0.000000000000000000, 0.000000000000000000 ) ) ;
#656 = CIRCLE ( 'NONE', #796, 1.150000000000000799 ) ;
#657 = AXIS2_PLACEMENT_3D ( 'NONE', #1068, #1047, #788 ) ;
#658 = ADVANCED_FACE ( 'NONE', ( #918 ), #480, .F. ) ;
#659 = LINE ( 'NONE', #286, #493 ) ;
#660 = ORIENTED_EDGE ( 'NONE', *, *, #1092, .T. ) ;
#661 = EDGE_LOOP ( 'NONE', ( #1007, #915, #344, #926 ) ) ;
#662 = CARTESIAN_POINT ( 'NONE',  ( 3.373054995104586062, -2.149999999999999911, -1.649999999999999911 ) ) ;
#663 = LINE ( 'NONE', #225, #976 ) ;
#664 = CARTESIAN_POINT ( 'NONE',  ( 2.149999999999999911, 8.150000000000000355, 0.000000000000000000 ) ) ;
#665 = VERTEX_POINT ( 'NONE', #245 ) ;
#666 = ORIENTED_EDGE ( 'NONE', *, *, #887, .T. ) ;
#667 = LINE ( 'NONE', #408, #348 ) ;
#668 = CARTESIAN_POINT ( 'NONE',  ( 0.000000000000000000, 0.000000000000000000, 0.000000000000000000 ) ) ;
#669 = CARTESIAN_POINT ( 'NONE',  ( -2.149999999999999911, -3.373054995104586062, 0.000000000000000000 ) ) ;
#670 = ORIENTED_EDGE ( 'NONE', *, *, #1072, .T. ) ;
#671 = EDGE_LOOP ( 'NONE', ( #400, #119, #287, #407 ) ) ;
#672 = DIRECTION ( 'NONE',  ( 0.000000000000000000, 0.000000000000000000, 1.000000000000000000 ) ) ;
#673 = CARTESIAN_POINT ( 'NONE',  ( -2.149999999999999911, 3.373054995104586062, 0.000000000000000000 ) ) ;
#674 = CARTESIAN_POINT ( 'NONE',  ( 0.000000000000000000, 8.150000000000000355, 0.000000000000000000 ) ) ;
#675 = VERTEX_POINT ( 'NONE', #590 ) ;
#676 = ADVANCED_FACE ( 'NONE', ( #487 ), #122, .T. ) ;
#677 = VECTOR ( 'NONE', #338, 1000.000000000000000 ) ;
#678 = EDGE_LOOP ( 'NONE', ( #535, #384, #62, #25 ) ) ;
#679 = PERSON_AND_ORGANIZATION ( #320, #734 ) ;
#680 = CIRCLE ( 'NONE', #343, 1.150000000000000799 ) ;
#681 = DIRECTION ( 'NONE',  ( 0.000000000000000000, 0.000000000000000000, -1.000000000000000000 ) ) ;
#682 = ADVANCED_FACE ( 'NONE', ( #409 ), #1005, .T. ) ;
#683 = CIRCLE ( 'NONE', #1029, 1.149999999999999911 ) ;
#684 = APPROVAL_PERSON_ORGANIZATION ( #540, #453, #1034 ) ;
#685 = CARTESIAN_POINT ( 'NONE',  ( 7.000000000000000000, 7.000000000000000000, 4.000000000000003553 ) ) ;
#686 = EDGE_LOOP ( 'NONE', ( #884, #1033, #462, #1087, #252, #476, #882, #670, #555, #262, #902, #594, #802, #336, #989, #1100, #496 ) ) ;
#687 = CC_DESIGN_PERSON_AND_ORGANIZATION_ASSIGNMENT ( #972, #611, ( #404 ) ) ;
#688 = AXIS2_PLACEMENT_3D ( 'NONE', #904, #121, #91 ) ;
#689 = DIRECTION ( 'NONE',  ( -0.000000000000000000, -0.000000000000000000, -1.000000000000000000 ) ) ;
#690 = DIRECTION ( 'NONE',  ( 1.000000000000000000, 0.000000000000000000, 0.000000000000000000 ) ) ;
#691 = AXIS2_PLACEMENT_3D ( 'NONE', #251, #771, #698 ) ;
#692 = ORIENTED_EDGE ( 'NONE', *, *, #66, .T. ) ;
#693 = DIRECTION ( 'NONE',  ( -0.000000000000000000, -0.000000000000000000, -1.000000000000000000 ) ) ;
#694 = EDGE_CURVE ( 'NONE', #816, #615, #768, .T. ) ;
#695 = DIRECTION ( 'NONE',  ( -1.000000000000000000, 0.000000000000000000, -0.000000000000000000 ) ) ;
#696 = EDGE_CURVE ( 'NONE', #280, #1095, #859, .T. ) ;
#697 = FACE_OUTER_BOUND ( 'NONE', #838, .T. ) ;
#698 = DIRECTION ( 'NONE',  ( 1.000000000000000000, 0.000000000000000000, 0.000000000000000000 ) ) ;
#699 = EDGE_CURVE ( 'NONE', #567, #373, #178, .T. ) ;
#700 = DIRECTION ( 'NONE',  ( -1.000000000000000000, 0.000000000000000000, 0.000000000000000000 ) ) ;
#701 = CARTESIAN_POINT ( 'NONE',  ( -8.150000000000000355, 7.000000000000000000, 4.000000000000003553 ) ) ;
#702 = DIRECTION ( 'NONE',  ( -0.000000000000000000, -0.000000000000000000, 1.000000000000000000 ) ) ;
#703 = ORIENTED_EDGE ( 'NONE', *, *, #465, .T. ) ;
#704 = ORIENTED_EDGE ( 'NONE', *, *, #116, .T. ) ;
#705 = FACE_BOUND ( 'NONE', #94, .T. ) ;
#706 = VECTOR ( 'NONE', #418, 1000.000000000000000 ) ;
#707 = CALENDAR_DATE ( 2026, 12, 9 ) ;
#708 = LINE ( 'NONE', #20, #419 ) ;
#709 = EDGE_CURVE ( 'NONE', #457, #1088, #505, .T. ) ;
#710 = ORIENTED_EDGE ( 'NONE', *, *, #801, .F. ) ;
#711 = AXIS2_PLACEMENT_3D ( 'NONE', #545, #10, #541 ) ;
#712 = ORIENTED_EDGE ( 'NONE', *, *, #129, .F. ) ;
#713 = CARTESIAN_POINT ( 'NONE',  ( -2.149999999999999911, 8.150000000000000355, -1.649999999999999911 ) ) ;
#714 = VECTOR ( 'NONE', #174, 1000.000000000000000 ) ;
#715 = FACE_OUTER_BOUND ( 'NONE', #1105, .T. ) ;
#716 = ORIENTED_EDGE ( 'NONE', *, *, #80, .T. ) ;
#717 = APPROVAL_PERSON_ORGANIZATION ( #679, #410, #1114 ) ;
#718 = VERTEX_POINT ( 'NONE', #701 ) ;
#719 = CARTESIAN_POINT ( 'NONE',  ( -2.149999999999999911, -8.150000000000000355, 0.000000000000000000 ) ) ;
#720 = AXIS2_PLACEMENT_3D ( 'NONE', #150, #216, #917 ) ;
#721 = PLANE ( 'NONE',  #657 ) ;
#722 = ORIENTED_EDGE ( 'NONE', *, *, #905, .T. ) ;
#723 = DIRECTION ( 'NONE',  ( 0.000000000000000000, -0.000000000000000000, -1.000000000000000000 ) ) ;
#724 = ADVANCED_FACE ( 'NONE', ( #609 ), #943, .F. ) ;
#725 = LINE ( 'NONE', #1060, #510 ) ;
#726 = EDGE_LOOP ( 'NONE', ( #712, #1020, #135, #666 ) ) ;
#727 = EDGE_LOOP ( 'NONE', ( #156, #477 ) ) ;
#728 = CARTESIAN_POINT ( 'NONE',  ( 7.000000000000000000, -7.000000000000000000, 4.000000000000003553 ) ) ;
#729 = DIRECTION ( 'NONE',  ( -1.000000000000000000, 0.000000000000000000, 0.000000000000000000 ) ) ;
#730 = VERTEX_POINT ( 'NONE', #434 ) ;
#731 = VERTEX_POINT ( 'NONE', #936 ) ;
#732 = AXIS2_PLACEMENT_3D ( 'NONE', #901, #999, #729 ) ;
#733 = DIRECTION ( 'NONE',  ( 0.000000000000000000, 0.000000000000000000, 1.000000000000000000 ) ) ;
#734 = ORGANIZATION ( 'UNSPECIFIED', 'UNSPECIFIED', '' ) ;
#735 = AXIS2_PLACEMENT_3D ( 'NONE', #878, #616, #115 ) ;
#736 = DIRECTION ( 'NONE',  ( -0.000000000000000000, -1.000000000000000000, -0.000000000000000000 ) ) ;
#737 = ORIENTED_EDGE ( 'NONE', *, *, #96, .F. ) ;
#738 = ORIENTED_EDGE ( 'NONE', *, *, #1124, .T. ) ;
#739 = DIRECTION ( 'NONE',  ( 0.000000000000000000, 0.000000000000000000, -1.000000000000000000 ) ) ;
#740 = CARTESIAN_POINT ( 'NONE',  ( -2.149999999999999911, 8.150000000000000355, 0.000000000000000000 ) ) ;
#741 = ADVANCED_FACE ( 'NONE', ( #166 ), #778, .F. ) ;
#742 = AXIS2_PLACEMENT_3D ( 'NONE', #668, #1097, #130 ) ;
#743 = CARTESIAN_POINT ( 'NONE',  ( -8.150000000000000355, -2.149999999999999911, 0.000000000000000000 ) ) ;
#744 = ORIENTED_EDGE ( 'NONE', *, *, #787, .F. ) ;
#745 = ORIENTED_EDGE ( 'NONE', *, *, #783, .F. ) ;
#746 = CYLINDRICAL_SURFACE ( 'NONE', #934, 1.150000000000000799 ) ;
#747 = CARTESIAN_POINT ( 'NONE',  ( -7.000000000000000000, -7.000000000000000000, 4.000000000000003553 ) ) ;
#748 = ADVANCED_FACE ( 'NONE', ( #76 ), #515, .F. ) ;
#749 = FACE_OUTER_BOUND ( 'NONE', #798, .T. ) ;
#750 = VERTEX_POINT ( 'NONE', #1123 ) ;
#751 = VERTEX_POINT ( 'NONE', #440 ) ;
#752 = DIRECTION ( 'NONE',  ( 0.000000000000000000, 0.000000000000000000, -1.000000000000000000 ) ) ;
#753 = CARTESIAN_POINT ( 'NONE',  ( -8.150000000000000355, -7.000000000000000000, 4.000000000000003553 ) ) ;
#754 = DIRECTION ( 'NONE',  ( 0.000000000000000000, 0.000000000000000000, -1.000000000000000000 ) ) ;
#755 = VERTEX_POINT ( 'NONE', #523 ) ;
#756 = ORIENTED_EDGE ( 'NONE', *, *, #571, .T. ) ;
#757 = CARTESIAN_POINT ( 'NONE',  ( 8.150000000000000355, -7.000000000000000000, -1.650000000000000355 ) ) ;
#758 = CYLINDRICAL_SURFACE ( 'NONE', #857, 1.150000000000000799 ) ;
#759 = EDGE_CURVE ( 'NONE', #1080, #229, #421, .T. ) ;
#760 = DIRECTION ( 'NONE',  ( 0.000000000000000000, 0.000000000000000000, -1.000000000000000000 ) ) ;
#761 = ORIENTED_EDGE ( 'NONE', *, *, #60, .F. ) ;
#762 = CARTESIAN_POINT ( 'NONE',  ( 2.149999999999999911, -8.150000000000000355, 0.000000000000000000 ) ) ;
#763 = DIRECTION ( 'NONE',  ( -1.000000000000000000, 0.000000000000000000, -0.000000000000000000 ) ) ;
#764 = ADVANCED_FACE ( 'NONE', ( #853, #427, #705, #775, #71, #258 ), #957, .F. ) ;
#765 = DIRECTION ( 'NONE',  ( -1.000000000000000000, 0.000000000000000000, 0.000000000000000000 ) ) ;
#766 = VECTOR ( 'NONE', #100, 1000.000000000000000 ) ;
#767 = DIRECTION ( 'NONE',  ( 1.000000000000000000, 0.000000000000000000, 0.000000000000000000 ) ) ;
#768 = CIRCLE ( 'NONE', #33, 2.149999999999999911 ) ;
#769 = CARTESIAN_POINT ( 'NONE',  ( 13.00000000000000000, 1.592040838891559095E-15, 4.000000000000000000 ) ) ;
#770 = PERSON_AND_ORGANIZATION ( #320, #734 ) ;
#771 = DIRECTION ( 'NONE',  ( 0.000000000000000000, 0.000000000000000000, 1.000000000000000000 ) ) ;
#772 = CARTESIAN_POINT ( 'NONE',  ( -8.150000000000000355, 0.000000000000000000, -1.649999999999999911 ) ) ;
#773 = ORIENTED_EDGE ( 'NONE', *, *, #1072, .F. ) ;
#774 = CIRCLE ( 'NONE', #386, 2.149999999999999023 ) ;
#775 = FACE_BOUND ( 'NONE', #890, .T. ) ;
#776 = DIRECTION ( 'NONE',  ( -1.000000000000000000, -0.000000000000000000, -0.000000000000000000 ) ) ;
#777 = DIRECTION ( 'NONE',  ( 1.000000000000000000, 0.000000000000000000, 0.000000000000000000 ) ) ;
#778 = CYLINDRICAL_SURFACE ( 'NONE', #963, 1.150000000000000799 ) ;
#779 = LINE ( 'NONE', #669, #937 ) ;
#780 = EDGE_LOOP ( 'NONE', ( #738, #968, #370, #148, #893, #621, #622, #26, #214, #1118, #1070, #300 ) ) ;
#781 = DIRECTION ( 'NONE',  ( 1.000000000000000000, 0.000000000000000000, 0.000000000000000000 ) ) ;
#782 = AXIS2_PLACEMENT_3D ( 'NONE', #397, #754, #55 ) ;
#783 = EDGE_CURVE ( 'NONE', #731, #981, #73, .T. ) ;
#784 = COORDINATED_UNIVERSAL_TIME_OFFSET ( 6, 0, .BEHIND. ) ;
#785 = CARTESIAN_POINT ( 'NONE',  ( -3.373054995104586062, 2.149999999999999911, 0.000000000000000000 ) ) ;
#786 = CARTESIAN_POINT ( 'NONE',  ( 0.000000000000000000, 8.150000000000000355, 0.000000000000000000 ) ) ;
#787 = EDGE_CURVE ( 'NONE', #916, #530, #561, .T. ) ;
#788 = DIRECTION ( 'NONE',  ( 0.000000000000000000, -0.000000000000000000, 1.000000000000000000 ) ) ;
#789 = ORIENTED_EDGE ( 'NONE', *, *, #16, .T. ) ;
#790 = AXIS2_PLACEMENT_3D ( 'NONE', #828, #403, #152 ) ;
#791 = ORIENTED_EDGE ( 'NONE', *, *, #199, .F. ) ;
#792 = DIRECTION ( 'NONE',  ( -0.000000000000000000, -0.000000000000000000, -1.000000000000000000 ) ) ;
#793 = AXIS2_PLACEMENT_3D ( 'NONE', #75, #514, #700 ) ;
#794 = SECURITY_CLASSIFICATION_LEVEL ( 'unclassified' ) ;
#795 = CYLINDRICAL_SURFACE ( 'NONE', #711, 2.149999999999999911 ) ;
#796 = AXIS2_PLACEMENT_3D ( 'NONE', #118, #292, #461 ) ;
#797 = EDGE_CURVE ( 'NONE', #1095, #1000, #1012, .T. ) ;
#798 = EDGE_LOOP ( 'NONE', ( #542, #704, #155, #101 ) ) ;
#799 = DIRECTION ( 'NONE',  ( 1.000000000000000000, 0.000000000000000000, -0.000000000000000000 ) ) ;
#800 = CARTESIAN_POINT ( 'NONE',  ( 2.149999999999999911, 3.373054995104586062, 0.000000000000000000 ) ) ;
#801 = EDGE_CURVE ( 'NONE', #1056, #812, #170, .T. ) ;
#802 = ORIENTED_EDGE ( 'NONE', *, *, #867, .T. ) ;
#803 = DIRECTION ( 'NONE',  ( 0.000000000000000000, 0.000000000000000000, 1.000000000000000000 ) ) ;
#804 = CIRCLE ( 'NONE', #369, 2.149999999999999911 ) ;
#805 = CARTESIAN_POINT ( 'NONE',  ( -8.150000000000000355, -2.149999999999999911, 0.000000000000000000 ) ) ;
#806 = ORIENTED_EDGE ( 'NONE', *, *, #875, .T. ) ;
#807 = ORIENTED_EDGE ( 'NONE', *, *, #110, .T. ) ;
#808 = LINE ( 'NONE', #107, #226 ) ;
#809 = EDGE_CURVE ( 'NONE', #750, #1048, #952, .T. ) ;
#810 = LINE ( 'NONE', #573, #358 ) ;
#811 = VERTEX_POINT ( 'NONE', #868 ) ;
#812 = VERTEX_POINT ( 'NONE', #256 ) ;
#813 = DIRECTION ( 'NONE',  ( 0.000000000000000000, 0.000000000000000000, -1.000000000000000000 ) ) ;
#814 = VECTOR ( 'NONE', #159, 1000.000000000000000 ) ;
#815 = DIRECTION ( 'NONE',  ( -0.000000000000000000, -0.000000000000000000, -1.000000000000000000 ) ) ;
#816 = VERTEX_POINT ( 'NONE', #605 ) ;
#817 = ORIENTED_EDGE ( 'NONE', *, *, #163, .T. ) ;
#818 = VECTOR ( 'NONE', #417, 1000.000000000000000 ) ;
#819 = DIRECTION ( 'NONE',  ( 1.000000000000000000, 0.000000000000000000, 0.000000000000000000 ) ) ;
#820 = DIRECTION ( 'NONE',  ( 0.000000000000000000, 0.000000000000000000, -1.000000000000000000 ) ) ;
#821 = ADVANCED_FACE ( 'NONE', ( #184 ), #375, .F. ) ;
#822 = CIRCLE ( 'NONE', #458, 1.150000000000000799 ) ;
#823 = DIRECTION ( 'NONE',  ( 1.000000000000000000, 0.000000000000000000, 0.000000000000000000 ) ) ;
#824 = ORIENTED_EDGE ( 'NONE', *, *, #435, .F. ) ;
#825 = EDGE_CURVE ( 'NONE', #933, #30, #774, .T. ) ;
#826 = ORIENTED_EDGE ( 'NONE', *, *, #323, .T. ) ;
#827 = LINE ( 'NONE', #996, #289 ) ;
#828 = CARTESIAN_POINT ( 'NONE',  ( -7.000000000000000000, 7.000000000000000000, -1.650000000000000355 ) ) ;
#829 = AXIS2_PLACEMENT_3D ( 'NONE', #772, #335, #603 ) ;
#830 = CARTESIAN_POINT ( 'NONE',  ( 7.000000000000000000, -7.000000000000000000, 4.000000000000003553 ) ) ;
#831 = ORIENTED_EDGE ( 'NONE', *, *, #641, .T. ) ;
#832 = ORIENTED_EDGE ( 'NONE', *, *, #465, .F. ) ;
#833 = FACE_OUTER_BOUND ( 'NONE', #241, .T. ) ;
#834 = CARTESIAN_POINT ( 'NONE',  ( -7.000000000000000000, 7.000000000000000000, 4.000000000000003553 ) ) ;
#835 = CARTESIAN_POINT ( 'NONE',  ( 7.000000000000000000, -7.000000000000000000, -1.650000000000000355 ) ) ;
#836 = EDGE_LOOP ( 'NONE', ( #579, #503, #737, #761 ) ) ;
#837 = CIRCLE ( 'NONE', #927, 2.149999999999999023 ) ;
#838 = EDGE_LOOP ( 'NONE', ( #1113, #459, #379, #1082 ) ) ;
#839 = FACE_OUTER_BOUND ( 'NONE', #951, .T. ) ;
#840 = EDGE_CURVE ( 'NONE', #373, #964, #428, .T. ) ;
#841 = AXIS2_PLACEMENT_3D ( 'NONE', #1025, #240, #767 ) ;
#842 = CARTESIAN_POINT ( 'NONE',  ( -8.150000000000000355, 2.149999999999999911, 0.000000000000000000 ) ) ;
#843 = CC_DESIGN_APPROVAL ( #84, ( #625 ) ) ;
#844 = FACE_OUTER_BOUND ( 'NONE', #948, .T. ) ;
#845 = EDGE_LOOP ( 'NONE', ( #537, #806, #543, #308 ) ) ;
#846 = DIRECTION ( 'NONE',  ( -1.000000000000000000, -0.000000000000000000, -0.000000000000000000 ) ) ;
#847 = CARTESIAN_POINT ( 'NONE',  ( -8.150000000000000355, 7.000000000000000000, -1.650000000000000355 ) ) ;
#848 = CARTESIAN_POINT ( 'NONE',  ( -2.149999999999999911, 8.150000000000000355, 0.000000000000000000 ) ) ;
#849 = DIRECTION ( 'NONE',  ( 0.000000000000000000, 0.000000000000000000, 1.000000000000000000 ) ) ;
#850 = ORIENTED_EDGE ( 'NONE', *, *, #618, .T. ) ;
#851 = CIRCLE ( 'NONE', #117, 4.000000000000000000 ) ;
#852 = MECHANICAL_CONTEXT ( 'NONE', #136, 'mechanical' ) ;
#853 = FACE_BOUND ( 'NONE', #1001, .T. ) ;
#854 = ADVANCED_FACE ( 'NONE', ( #891 ), #1077, .T. ) ;
#855 = AXIS2_PLACEMENT_3D ( 'NONE', #272, #176, #189 ) ;
#856 = CARTESIAN_POINT ( 'NONE',  ( -8.150000000000000355, 2.149999999999999911, 0.000000000000000000 ) ) ;
#857 = AXIS2_PLACEMENT_3D ( 'NONE', #834, #1030, #765 ) ;
#858 = CYLINDRICAL_SURFACE ( 'NONE', #793, 1.150000000000000799 ) ;
#859 = LINE ( 'NONE', #332, #714 ) ;
#860 = FACE_OUTER_BOUND ( 'NONE', #661, .T. ) ;
#861 = CC_DESIGN_DATE_AND_TIME_ASSIGNMENT ( #13, #959, ( #1059 ) ) ;
#862 = ORIENTED_EDGE ( 'NONE', *, *, #939, .F. ) ;
#863 = CIRCLE ( 'NONE', #971, 4.000000000000000000 ) ;
#864 = DIRECTION ( 'NONE',  ( -0.000000000000000000, -0.000000000000000000, -1.000000000000000000 ) ) ;
#865 = DIRECTION ( 'NONE',  ( 1.000000000000000000, 0.000000000000000000, 0.000000000000000000 ) ) ;
#866 = LINE ( 'NONE', #1045, #706 ) ;
#867 = EDGE_CURVE ( 'NONE', #190, #280, #153, .T. ) ;
#868 = CARTESIAN_POINT ( 'NONE',  ( -4.000000000000000000, 0.000000000000000000, 0.000000000000000000 ) ) ;
#869 = PERSON_AND_ORGANIZATION ( #320, #734 ) ;
#870 = DIRECTION ( 'NONE',  ( 0.000000000000000000, 0.000000000000000000, 1.000000000000000000 ) ) ;
#871 = CARTESIAN_POINT ( 'NONE',  ( 7.000000000000000000, -7.000000000000000000, -1.650000000000000355 ) ) ;
#872 = CIRCLE ( 'NONE', #378, 1.149999999999999911 ) ;
#873 = EDGE_CURVE ( 'NONE', #1048, #675, #12, .T. ) ;
#874 = PERSON_AND_ORGANIZATION ( #320, #734 ) ;
#875 = EDGE_CURVE ( 'NONE', #1069, #1095, #899, .T. ) ;
#876 = DIRECTION ( 'NONE',  ( 0.000000000000000000, 0.000000000000000000, -1.000000000000000000 ) ) ;
#877 = ORIENTED_EDGE ( 'NONE', *, *, #294, .F. ) ;
#878 = CARTESIAN_POINT ( 'NONE',  ( -7.000000000000000000, 7.000000000000000000, -1.650000000000000355 ) ) ;
#879 = CIRCLE ( 'NONE', #720, 2.149999999999999911 ) ;
#880 = APPROVAL_DATE_TIME ( #1028, #410 ) ;
#881 = DIRECTION ( 'NONE',  ( -0.000000000000000000, -0.000000000000000000, 1.000000000000000000 ) ) ;
#882 = ORIENTED_EDGE ( 'NONE', *, *, #129, .T. ) ;
#883 = AXIS2_PLACEMENT_3D ( 'NONE', #132, #177, #1018 ) ;
#884 = ORIENTED_EDGE ( 'NONE', *, *, #96, .T. ) ;
#885 = DIRECTION ( 'NONE',  ( -0.000000000000000000, -1.000000000000000000, -0.000000000000000000 ) ) ;
#886 = DATE_TIME_ROLE ( 'creation_date' ) ;
#887 = EDGE_CURVE ( 'NONE', #651, #393, #808, .T. ) ;
#888 = FACE_OUTER_BOUND ( 'NONE', #1062, .T. ) ;
#889 = ORIENTED_EDGE ( 'NONE', *, *, #334, .T. ) ;
#890 = EDGE_LOOP ( 'NONE', ( #182, #629 ) ) ;
#891 = FACE_OUTER_BOUND ( 'NONE', #836, .T. ) ;
#892 = DIRECTION ( 'NONE',  ( -0.000000000000000000, -0.000000000000000000, -1.000000000000000000 ) ) ;
#893 = ORIENTED_EDGE ( 'NONE', *, *, #797, .F. ) ;
#894 = ADVANCED_FACE ( 'NONE', ( #27 ), #198, .T. ) ;
#895 = FACE_OUTER_BOUND ( 'NONE', #1074, .T. ) ;
#896 = CARTESIAN_POINT ( 'NONE',  ( 0.000000000000000000, 0.000000000000000000, -1.649999999999999911 ) ) ;
#897 = ORIENTED_EDGE ( 'NONE', *, *, #955, .F. ) ;
#898 = ORIENTED_EDGE ( 'NONE', *, *, #312, .F. ) ;
#899 = LINE ( 'NONE', #464, #7 ) ;
#900 = CLOSED_SHELL ( 'NONE', ( #821, #741, #49, #279, #1011, #724, #676, #764, #277, #854, #524, #123, #894, #218, #588, #99, #944, #682, #748, #536, #1044, #268, #988, #238, #484, #437, #423, #1090, #645, #347, #658 ) ) ;
#901 = CARTESIAN_POINT ( 'NONE',  ( 8.150000000000000355, 0.000000000000000000, 0.000000000000000000 ) ) ;
#902 = ORIENTED_EDGE ( 'NONE', *, *, #305, .T. ) ;
#903 = ORIENTED_EDGE ( 'NONE', *, *, #1124, .F. ) ;
#904 = CARTESIAN_POINT ( 'NONE',  ( 0.000000000000000000, 0.000000000000000000, 4.000000000000000000 ) ) ;
#905 = EDGE_CURVE ( 'NONE', #665, #1021, #460, .T. ) ;
#906 = AXIS2_PLACEMENT_3D ( 'NONE', #48, #572, #1108 ) ;
#907 = CARTESIAN_POINT ( 'NONE',  ( 8.150000000000000355, -2.149999999999999911, -1.649999999999999911 ) ) ;
#908 = VERTEX_POINT ( 'NONE', #531 ) ;
#909 = ORIENTED_EDGE ( 'NONE', *, *, #624, .T. ) ;
#910 = CARTESIAN_POINT ( 'NONE',  ( 0.000000000000000000, 0.000000000000000000, 0.000000000000000000 ) ) ;
#911 = CARTESIAN_POINT ( 'NONE',  ( -2.149999999999999911, -8.150000000000000355, 0.000000000000000000 ) ) ;
#912 = EDGE_CURVE ( 'NONE', #546, #229, #822, .T. ) ;
#913 = CIRCLE ( 'NONE', #23, 2.149999999999999911 ) ;
#914 = LINE ( 'NONE', #664, #165 ) ;
#915 = ORIENTED_EDGE ( 'NONE', *, *, #420, .T. ) ;
#916 = VERTEX_POINT ( 'NONE', #366 ) ;
#917 = DIRECTION ( 'NONE',  ( 1.000000000000000000, 0.000000000000000000, 0.000000000000000000 ) ) ;
#918 = FACE_OUTER_BOUND ( 'NONE', #575, .T. ) ;
#919 = CARTESIAN_POINT ( 'NONE',  ( -8.150000000000000355, 0.000000000000000000, 0.000000000000000000 ) ) ;
#920 = VERTEX_POINT ( 'NONE', #713 ) ;
#921 = EDGE_CURVE ( 'NONE', #580, #191, #455, .T. ) ;
#922 = EDGE_LOOP ( 'NONE', ( #385, #1076, #568, #710 ) ) ;
#923 = DIRECTION ( 'NONE',  ( 0.000000000000000000, 0.000000000000000000, -1.000000000000000000 ) ) ;
#924 = DIRECTION ( 'NONE',  ( -1.000000000000000000, -0.000000000000000000, -0.000000000000000000 ) ) ;
#925 = CARTESIAN_POINT ( 'NONE',  ( 0.000000000000000000, 0.000000000000000000, 4.000000000000000000 ) ) ;
#926 = ORIENTED_EDGE ( 'NONE', *, *, #553, .F. ) ;
#927 = AXIS2_PLACEMENT_3D ( 'NONE', #1079, #391, #1086 ) ;
#928 = ORIENTED_EDGE ( 'NONE', *, *, #994, .F. ) ;
#929 = CARTESIAN_POINT ( 'NONE',  ( 2.149999999999999911, 3.373054995104586062, -1.649999999999999911 ) ) ;
#930 = CARTESIAN_POINT ( 'NONE',  ( -8.150000000000000355, -7.000000000000000000, 4.000000000000003553 ) ) ;
#931 = LOCAL_TIME ( 21, 59, 8.000000000000000000, #157 ) ;
#932 = CARTESIAN_POINT ( 'NONE',  ( 5.849999999999999645, -7.000000000000000000, 4.000000000000003553 ) ) ;
#933 = VERTEX_POINT ( 'NONE', #547 ) ;
#934 = AXIS2_PLACEMENT_3D ( 'NONE', #1096, #923, #64 ) ;
#935 = CARTESIAN_POINT ( 'NONE',  ( 2.149999999999999911, -8.150000000000000355, 0.000000000000000000 ) ) ;
#936 = CARTESIAN_POINT ( 'NONE',  ( 5.849999999999999645, -7.000000000000000000, -1.650000000000000355 ) ) ;
#937 = VECTOR ( 'NONE', #232, 1000.000000000000000 ) ;
#938 = CARTESIAN_POINT ( 'NONE',  ( 0.000000000000000000, 0.000000000000000000, 0.000000000000000000 ) ) ;
#939 = EDGE_CURVE ( 'NONE', #425, #444, #103, .T. ) ;
#940 = ORIENTED_EDGE ( 'NONE', *, *, #636, .F. ) ;
#941 = AXIS2_PLACEMENT_3D ( 'NONE', #1106, #2, #607 ) ;
#942 = COORDINATED_UNIVERSAL_TIME_OFFSET ( 6, 0, .BEHIND. ) ;
#943 = CYLINDRICAL_SURFACE ( 'NONE', #1110, 4.000000000000000000 ) ;
#944 = ADVANCED_FACE ( 'NONE', ( #544, #192, #623, #990, #895, #970 ), #538, .T. ) ;
#945 = AXIS2_PLACEMENT_3D ( 'NONE', #643, #1006, #221 ) ;
#946 = CC_DESIGN_PERSON_AND_ORGANIZATION_ASSIGNMENT ( #194, #331, ( #1059 ) ) ;
#947 = DIRECTION ( 'NONE',  ( 0.000000000000000000, 0.000000000000000000, 1.000000000000000000 ) ) ;
#948 = EDGE_LOOP ( 'NONE', ( #940, #549, #562, #660, #143 ) ) ;
#949 = CARTESIAN_POINT ( 'NONE',  ( -13.00000000000000000, 0.000000000000000000, 4.000000000000000000 ) ) ;
#950 = CARTESIAN_POINT ( 'NONE',  ( -8.150000000000000355, -2.149999999999999911, 0.000000000000000000 ) ) ;
#951 = EDGE_LOOP ( 'NONE', ( #93, #1053, #862, #233 ) ) ;
#952 = CIRCLE ( 'NONE', #441, 4.000000000000000000 ) ;
#953 = CARTESIAN_POINT ( 'NONE',  ( 0.000000000000000000, 0.000000000000000000, 4.000000000000000000 ) ) ;
#954 = LINE ( 'NONE', #497, #956 ) ;
#955 = EDGE_CURVE ( 'NONE', #652, #528, #863, .T. ) ;
#956 = VECTOR ( 'NONE', #846, 1000.000000000000000 ) ;
#957 = PLANE ( 'NONE',  #1024 ) ;
#958 = EDGE_CURVE ( 'NONE', #675, #920, #804, .T. ) ;
#959 = DATE_TIME_ROLE ( 'classification_date' ) ;
#960 = AXIS2_PLACEMENT_3D ( 'NONE', #762, #324, #1027 ) ;
#961 = DIRECTION ( 'NONE',  ( 0.000000000000000000, 0.000000000000000000, -1.000000000000000000 ) ) ;
#962 = ORIENTED_EDGE ( 'NONE', *, *, #597, .F. ) ;
#963 = AXIS2_PLACEMENT_3D ( 'NONE', #1042, #1046, #512 ) ;
#964 = VERTEX_POINT ( 'NONE', #847 ) ;
#965 = CARTESIAN_POINT ( 'NONE',  ( -10.30000000000000071, 0.000000000000000000, 0.000000000000000000 ) ) ;
#966 = DATE_AND_TIME ( #436, #931 ) ;
#967 = DIRECTION ( 'NONE',  ( 0.000000000000000000, 0.000000000000000000, -1.000000000000000000 ) ) ;
#968 = ORIENTED_EDGE ( 'NONE', *, *, #426, .T. ) ;
#969 = VERTEX_POINT ( 'NONE', #564 ) ;
#970 = FACE_BOUND ( 'NONE', #574, .T. ) ;
#971 = AXIS2_PLACEMENT_3D ( 'NONE', #1063, #276, #630 ) ;
#972 = PERSON_AND_ORGANIZATION ( #320, #734 ) ;
#973 = CARTESIAN_POINT ( 'NONE',  ( 0.000000000000000000, 0.000000000000000000, -1.649999999999999911 ) ) ;
#974 = ORIENTED_EDGE ( 'NONE', *, *, #610, .T. ) ;
#975 = EDGE_CURVE ( 'NONE', #920, #652, #667, .T. ) ;
#976 = VECTOR ( 'NONE', #820, 1000.000000000000000 ) ;
#977 = ORIENTED_EDGE ( 'NONE', *, *, #998, .F. ) ;
#978 = CARTESIAN_POINT ( 'NONE',  ( 0.000000000000000000, 8.150000000000000355, -1.649999999999999911 ) ) ;
#979 = PRODUCT_RELATED_PRODUCT_CATEGORY ( 'detail', '', ( #415 ) ) ;
#980 = CARTESIAN_POINT ( 'NONE',  ( -7.000000000000000000, 7.000000000000000000, 4.000000000000003553 ) ) ;
#981 = VERTEX_POINT ( 'NONE', #757 ) ;
#982 = ORIENTED_EDGE ( 'NONE', *, *, #80, .F. ) ;
#983 = DIRECTION ( 'NONE',  ( 0.000000000000000000, -1.000000000000000000, 0.000000000000000000 ) ) ;
#984 = DIRECTION ( 'NONE',  ( 1.000000000000000000, 0.000000000000000000, 0.000000000000000000 ) ) ;
#985 = AXIS2_PLACEMENT_3D ( 'NONE', #685, #162, #1031 ) ;
#986 = ORIENTED_EDGE ( 'NONE', *, *, #312, .T. ) ;
#987 = LOCAL_TIME ( 21, 59, 8.000000000000000000, #526 ) ;
#988 = ADVANCED_FACE ( 'NONE', ( #839 ), #40, .T. ) ;
#989 = ORIENTED_EDGE ( 'NONE', *, *, #797, .T. ) ;
#990 = FACE_BOUND ( 'NONE', #109, .T. ) ;
#991 = AXIS2_PLACEMENT_3D ( 'NONE', #309, #672, #414 ) ;
#992 = CARTESIAN_POINT ( 'NONE',  ( -2.149999999999999911, -3.373054995104586062, 0.000000000000000000 ) ) ;
#993 = ORIENTED_EDGE ( 'NONE', *, *, #694, .T. ) ;
#994 = EDGE_CURVE ( 'NONE', #111, #816, #58, .T. ) ;
#995 = ORIENTED_EDGE ( 'NONE', *, *, #694, .F. ) ;
#996 = CARTESIAN_POINT ( 'NONE',  ( -8.150000000000000355, -2.149999999999999911, -1.649999999999999911 ) ) ;
#997 = CIRCLE ( 'NONE', #941, 2.149999999999999911 ) ;
#998 = EDGE_CURVE ( 'NONE', #222, #1088, #827, .T. ) ;
#999 = DIRECTION ( 'NONE',  ( 0.000000000000000000, 0.000000000000000000, -1.000000000000000000 ) ) ;
#1000 = VERTEX_POINT ( 'NONE', #662 ) ;
#1001 = EDGE_LOOP ( 'NONE', ( #745, #1038 ) ) ;
#1002 = CIRCLE ( 'NONE', #508, 2.149999999999999911 ) ;
#1003 = CARTESIAN_POINT ( 'NONE',  ( 2.149999999999999911, -8.150000000000000355, 0.000000000000000000 ) ) ;
#1004 = VECTOR ( 'NONE', #628, 1000.000000000000000 ) ;
#1005 = CYLINDRICAL_SURFACE ( 'NONE', #468, 13.00000000000000000 ) ;
#1006 = DIRECTION ( 'NONE',  ( 0.000000000000000000, 0.000000000000000000, -1.000000000000000000 ) ) ;
#1007 = ORIENTED_EDGE ( 'NONE', *, *, #905, .F. ) ;
#1008 = ORIENTED_EDGE ( 'NONE', *, *, #185, .F. ) ;
#1009 = DIRECTION ( 'NONE',  ( 0.000000000000000000, 0.000000000000000000, 1.000000000000000000 ) ) ;
#1010 = LINE ( 'NONE', #740, #1120 ) ;
#1011 = ADVANCED_FACE ( 'NONE', ( #833 ), #1102, .F. ) ;
#1012 = CIRCLE ( 'NONE', #131, 4.000000000000000000 ) ;
#1013 = DIRECTION ( 'NONE',  ( 0.000000000000000000, 0.000000000000000000, 1.000000000000000000 ) ) ;
#1014 = ORIENTED_EDGE ( 'NONE', *, *, #867, .F. ) ;
#1015 = ORIENTED_EDGE ( 'NONE', *, *, #133, .T. ) ;
#1016 = CARTESIAN_POINT ( 'NONE',  ( 2.149999999999999911, -8.150000000000000355, 0.000000000000000000 ) ) ;
#1017 = APPLICATION_CONTEXT ( 'configuration controlled 3d designs of mechanical parts and assemblies' ) ;
#1018 = DIRECTION ( 'NONE',  ( 1.000000000000000000, 0.000000000000000000, 0.000000000000000000 ) ) ;
#1019 = PLANE ( 'NONE',  #593 ) ;
#1020 = ORIENTED_EDGE ( 'NONE', *, *, #234, .T. ) ;
#1021 = VERTEX_POINT ( 'NONE', #653 ) ;
#1022 = CARTESIAN_POINT ( 'NONE',  ( -13.00000000000000000, 0.000000000000000000, 4.000000000000000000 ) ) ;
#1023 = DIRECTION ( 'NONE',  ( -1.000000000000000000, 0.000000000000000000, 0.000000000000000000 ) ) ;
#1024 = AXIS2_PLACEMENT_3D ( 'NONE', #1049, #1036, #1119 ) ;
#1025 = CARTESIAN_POINT ( 'NONE',  ( -7.000000000000000000, 7.000000000000000000, 4.000000000000003553 ) ) ;
#1026 = ORIENTED_EDGE ( 'NONE', *, *, #16, .F. ) ;
#1027 = DIRECTION ( 'NONE',  ( 0.000000000000000000, 0.000000000000000000, 1.000000000000000000 ) ) ;
#1028 = DATE_AND_TIME ( #1107, #345 ) ;
#1029 = AXIS2_PLACEMENT_3D ( 'NONE', #513, #1104, #77 ) ;
#1030 = DIRECTION ( 'NONE',  ( 0.000000000000000000, 0.000000000000000000, -1.000000000000000000 ) ) ;
#1031 = DIRECTION ( 'NONE',  ( 1.000000000000000000, 0.000000000000000000, 0.000000000000000000 ) ) ;
#1032 = CIRCLE ( 'NONE', #991, 4.000000000000000000 ) ;
#1033 = ORIENTED_EDGE ( 'NONE', *, *, #809, .T. ) ;
#1034 = APPROVAL_ROLE ( '' ) ;
#1035 = EDGE_CURVE ( 'NONE', #1000, #302, #290, .T. ) ;
#1036 = DIRECTION ( 'NONE',  ( 0.000000000000000000, 0.000000000000000000, 1.000000000000000000 ) ) ;
#1037 = EDGE_CURVE ( 'NONE', #114, #1069, #230, .T. ) ;
#1038 = ORIENTED_EDGE ( 'NONE', *, *, #342, .F. ) ;
#1039 = DIRECTION ( 'NONE',  ( 1.000000000000000000, 0.000000000000000000, 0.000000000000000000 ) ) ;
#1040 = DIRECTION ( 'NONE',  ( -1.000000000000000000, 0.000000000000000000, 0.000000000000000000 ) ) ;
#1041 = ORIENTED_EDGE ( 'NONE', *, *, #323, .F. ) ;
#1042 = CARTESIAN_POINT ( 'NONE',  ( -7.000000000000000000, -7.000000000000000000, 4.000000000000003553 ) ) ;
#1043 = CIRCLE ( 'NONE', #841, 1.149999999999999911 ) ;
#1044 = ADVANCED_FACE ( 'NONE', ( #303 ), #395, .T. ) ;
#1045 = CARTESIAN_POINT ( 'NONE',  ( 8.150000000000000355, 2.149999999999999911, 0.000000000000000000 ) ) ;
#1046 = DIRECTION ( 'NONE',  ( 0.000000000000000000, 0.000000000000000000, -1.000000000000000000 ) ) ;
#1047 = DIRECTION ( 'NONE',  ( -0.000000000000000000, 1.000000000000000000, 0.000000000000000000 ) ) ;
#1048 = VERTEX_POINT ( 'NONE', #929 ) ;
#1049 = CARTESIAN_POINT ( 'NONE',  ( 0.000000000000000000, 0.000000000000000000, -1.649999999999999911 ) ) ;
#1050 = APPROVAL_DATE_TIME ( #86, #84 ) ;
#1051 = CIRCLE ( 'NONE', #855, 13.00000000000000000 ) ;
#1052 = LINE ( 'NONE', #282, #72 ) ;
#1053 = ORIENTED_EDGE ( 'NONE', *, *, #1058, .F. ) ;
#1054 = AXIS2_PLACEMENT_3D ( 'NONE', #871, #693, #1039 ) ;
#1055 = EDGE_CURVE ( 'NONE', #718, #964, #387, .T. ) ;
#1056 = VERTEX_POINT ( 'NONE', #1022 ) ;
#1057 = DIRECTION ( 'NONE',  ( 1.000000000000000000, 0.000000000000000000, 0.000000000000000000 ) ) ;
#1058 = EDGE_CURVE ( 'NONE', #444, #114, #879, .T. ) ;
#1059 = SECURITY_CLASSIFICATION ( '', '', #794 ) ;
#1060 = CARTESIAN_POINT ( 'NONE',  ( 8.150000000000000355, 7.000000000000000000, 4.000000000000003553 ) ) ;
#1061 = ORIENTED_EDGE ( 'NONE', *, *, #382, .T. ) ;
#1062 = EDGE_LOOP ( 'NONE', ( #634, #995, #928, #1094 ) ) ;
#1063 = CARTESIAN_POINT ( 'NONE',  ( 0.000000000000000000, 0.000000000000000000, -1.649999999999999911 ) ) ;
#1064 = AXIS2_PLACEMENT_3D ( 'NONE', #910, #752, #763 ) ;
#1065 = FACE_OUTER_BOUND ( 'NONE', #263, .T. ) ;
#1066 = ORIENTED_EDGE ( 'NONE', *, *, #199, .T. ) ;
#1067 = CARTESIAN_POINT ( 'NONE',  ( 8.150000000000000355, 0.000000000000000000, 0.000000000000000000 ) ) ;
#1068 = CARTESIAN_POINT ( 'NONE',  ( -8.150000000000000355, -2.149999999999999911, 0.000000000000000000 ) ) ;
#1069 = VERTEX_POINT ( 'NONE', #1083 ) ;
#1070 = ORIENTED_EDGE ( 'NONE', *, *, #618, .F. ) ;
#1071 = DIRECTION ( 'NONE',  ( 1.000000000000000000, 0.000000000000000000, 0.000000000000000000 ) ) ;
#1072 = EDGE_CURVE ( 'NONE', #393, #1021, #913, .T. ) ;
#1073 = FACE_OUTER_BOUND ( 'NONE', #284, .T. ) ;
#1074 = EDGE_LOOP ( 'NONE', ( #350, #102 ) ) ;
#1075 = LOCAL_TIME ( 21, 59, 8.000000000000000000, #942 ) ;
#1076 = ORIENTED_EDGE ( 'NONE', *, *, #1112, .T. ) ;
#1077 = PLANE ( 'NONE',  #589 ) ;
#1078 = CIRCLE ( 'NONE', #688, 4.000000000000000000 ) ;
#1079 = CARTESIAN_POINT ( 'NONE',  ( 8.150000000000000355, 0.000000000000000000, -1.649999999999999911 ) ) ;
#1080 = VERTEX_POINT ( 'NONE', #316 ) ;
#1081 = DESIGN_CONTEXT ( 'detailed design', #1017, 'design' ) ;
#1082 = ORIENTED_EDGE ( 'NONE', *, *, #1055, .F. ) ;
#1083 = CARTESIAN_POINT ( 'NONE',  ( 2.149999999999999911, -3.373054995104586062, 0.000000000000000000 ) ) ;
#1084 = CIRCLE ( 'NONE', #742, 4.000000000000000000 ) ;
#1085 = DIRECTION ( 'NONE',  ( 0.000000000000000000, 0.000000000000000000, -1.000000000000000000 ) ) ;
#1086 = DIRECTION ( 'NONE',  ( 1.000000000000000000, 0.000000000000000000, 0.000000000000000000 ) ) ;
#1087 = ORIENTED_EDGE ( 'NONE', *, *, #958, .T. ) ;
#1088 = VERTEX_POINT ( 'NONE', #498 ) ;
#1089 = DIRECTION ( 'NONE',  ( 0.000000000000000000, 0.000000000000000000, -1.000000000000000000 ) ) ;
#1090 = ADVANCED_FACE ( 'NONE', ( #46 ), #746, .F. ) ;
#1091 = DIRECTION ( 'NONE',  ( 0.000000000000000000, 0.000000000000000000, -1.000000000000000000 ) ) ;
#1092 = EDGE_CURVE ( 'NONE', #273, #730, #1032, .T. ) ;
#1093 = CARTESIAN_POINT ( 'NONE',  ( -7.000000000000000000, -7.000000000000000000, 4.000000000000003553 ) ) ;
#1094 = ORIENTED_EDGE ( 'NONE', *, *, #654, .T. ) ;
#1095 = VERTEX_POINT ( 'NONE', #144 ) ;
#1096 = CARTESIAN_POINT ( 'NONE',  ( 7.000000000000000000, 7.000000000000000000, 4.000000000000003553 ) ) ;
#1097 = DIRECTION ( 'NONE',  ( 0.000000000000000000, 0.000000000000000000, 1.000000000000000000 ) ) ;
#1098 = AXIS2_PLACEMENT_3D ( 'NONE', #728, #19, #380 ) ;
#1099 = DIRECTION ( 'NONE',  ( 0.000000000000000000, 0.000000000000000000, 1.000000000000000000 ) ) ;
#1100 = ORIENTED_EDGE ( 'NONE', *, *, #1035, .T. ) ;
#1101 = EDGE_LOOP ( 'NONE', ( #137, #1041 ) ) ;
#1102 = CYLINDRICAL_SURFACE ( 'NONE', #532, 2.149999999999999023 ) ;
#1103 = DIRECTION ( 'NONE',  ( -0.000000000000000000, -0.000000000000000000, -1.000000000000000000 ) ) ;
#1104 = DIRECTION ( 'NONE',  ( -0.000000000000000000, -0.000000000000000000, -1.000000000000000000 ) ) ;
#1105 = EDGE_LOOP ( 'NONE', ( #11, #1015, #211, #322 ) ) ;
#1106 = CARTESIAN_POINT ( 'NONE',  ( -8.150000000000000355, 0.000000000000000000, 0.000000000000000000 ) ) ;
#1107 = CALENDAR_DATE ( 2026, 12, 9 ) ;
#1108 = DIRECTION ( 'NONE',  ( 1.000000000000000000, 0.000000000000000000, 0.000000000000000000 ) ) ;
#1109 = AXIS2_PLACEMENT_3D ( 'NONE', #452, #24, #200 ) ;
#1110 = AXIS2_PLACEMENT_3D ( 'NONE', #4, #9, #264 ) ;
#1111 = DIRECTION ( 'NONE',  ( 1.000000000000000000, 0.000000000000000000, 0.000000000000000000 ) ) ;
#1112 = EDGE_CURVE ( 'NONE', #79, #490, #492, .T. ) ;
#1113 = ORIENTED_EDGE ( 'NONE', *, *, #261, .T. ) ;
#1114 = APPROVAL_ROLE ( '' ) ;
#1115 = CARTESIAN_POINT ( 'NONE',  ( 0.000000000000000000, 0.000000000000000000, -1.649999999999999911 ) ) ;
#1116 = DIRECTION ( 'NONE',  ( 0.000000000000000000, 0.000000000000000000, 1.000000000000000000 ) ) ;
#1117 = AXIS2_PLACEMENT_3D ( 'NONE', #449, #357, #1071 ) ;
#1118 = ORIENTED_EDGE ( 'NONE', *, *, #709, .F. ) ;
#1119 = DIRECTION ( 'NONE',  ( 1.000000000000000000, 0.000000000000000000, -0.000000000000000000 ) ) ;
#1120 = VECTOR ( 'NONE', #416, 1000.000000000000000 ) ;
#1121 = DIRECTION ( 'NONE',  ( 0.000000000000000000, -1.000000000000000000, 0.000000000000000000 ) ) ;
#1122 = DIRECTION ( 'NONE',  ( 1.000000000000000000, 0.000000000000000000, 0.000000000000000000 ) ) ;
#1123 = CARTESIAN_POINT ( 'NONE',  ( 3.373054995104586062, 2.149999999999999911, -1.649999999999999911 ) ) ;
#1124 = EDGE_CURVE ( 'NONE', #454, #751, #1078, .T. ) ;
ENDSEC;
END-ISO-10303-21;
