ISO-10303-21;
HEADER;
FILE_DESCRIPTION (( 'STEP AP203' ),
    '1' );
FILE_NAME ('FIT-002_SG90_horn_pocket_clearance_0p10.step',
    '2026-09-13T02:59:04',
    ( '' ),
    ( '' ),
    'SwSTEP 2.0',
    'SolidWorks 2026',
    '' );
FILE_SCHEMA (( 'CONFIG_CONTROL_DESIGN' ));
ENDSEC;

DATA;
#1 = VECTOR ( 'NONE', #800, 1000.000000000000000 ) ;
#2 = AXIS2_PLACEMENT_3D ( 'NONE', #424, #258, #697 ) ;
#3 = DIRECTION ( 'NONE',  ( -0.000000000000000000, -0.000000000000000000, -1.000000000000000000 ) ) ;
#4 = AXIS2_PLACEMENT_3D ( 'NONE', #498, #70, #319 ) ;
#5 = VERTEX_POINT ( 'NONE', #84 ) ;
#6 = FACE_OUTER_BOUND ( 'NONE', #510, .T. ) ;
#7 = EDGE_LOOP ( 'NONE', ( #381, #772, #600, #38 ) ) ;
#8 = DIRECTION ( 'NONE',  ( -0.000000000000000000, -0.000000000000000000, -1.000000000000000000 ) ) ;
#9 = ORIENTED_EDGE ( 'NONE', *, *, #145, .T. ) ;
#10 = EDGE_CURVE ( 'NONE', #1083, #443, #154, .T. ) ;
#11 = CARTESIAN_POINT ( 'NONE',  ( 2.100000000000000089, 8.150000000000000355, -1.649999999999999911 ) ) ;
#12 = CYLINDRICAL_SURFACE ( 'NONE', #269, 4.000000000000000000 ) ;
#13 = ORIENTED_EDGE ( 'NONE', *, *, #862, .F. ) ;
#14 = CARTESIAN_POINT ( 'NONE',  ( 2.100000000000000089, -8.150000000000000355, -1.649999999999999911 ) ) ;
#15 = DIRECTION ( 'NONE',  ( 0.000000000000000000, 0.000000000000000000, -1.000000000000000000 ) ) ;
#16 = ORIENTED_EDGE ( 'NONE', *, *, #472, .T. ) ;
#17 = VECTOR ( 'NONE', #866, 1000.000000000000000 ) ;
#18 = CARTESIAN_POINT ( 'NONE',  ( -2.100000000000000089, -3.404408906109840149, 0.000000000000000000 ) ) ;
#19 = CIRCLE ( 'NONE', #111, 13.00000000000000000 ) ;
#20 = DIRECTION ( 'NONE',  ( 0.000000000000000000, 0.000000000000000000, -1.000000000000000000 ) ) ;
#21 = DIRECTION ( 'NONE',  ( -0.000000000000000000, -0.000000000000000000, -1.000000000000000000 ) ) ;
#22 = ORIENTED_EDGE ( 'NONE', *, *, #142, .F. ) ;
#23 = ADVANCED_FACE ( 'NONE', ( #1023 ), #159, .F. ) ;
#24 = DIRECTION ( 'NONE',  ( -0.000000000000000000, -0.000000000000000000, -1.000000000000000000 ) ) ;
#25 = DIRECTION ( 'NONE',  ( -1.000000000000000000, -0.000000000000000000, -0.000000000000000000 ) ) ;
#26 = ORIENTED_EDGE ( 'NONE', *, *, #667, .F. ) ;
#27 = CARTESIAN_POINT ( 'NONE',  ( 2.100000000000000089, -8.150000000000000355, 0.000000000000000000 ) ) ;
#28 = CYLINDRICAL_SURFACE ( 'NONE', #58, 2.100000000000000089 ) ;
#29 = COORDINATED_UNIVERSAL_TIME_OFFSET ( 6, 0, .BEHIND. ) ;
#30 = CARTESIAN_POINT ( 'NONE',  ( 5.849999999999999645, 7.000000000000000000, 4.000000000000003553 ) ) ;
#31 = VERTEX_POINT ( 'NONE', #240 ) ;
#32 = LINE ( 'NONE', #293, #790 ) ;
#33 = CIRCLE ( 'NONE', #1088, 2.100000000000000089 ) ;
#34 = CARTESIAN_POINT ( 'NONE',  ( 3.404408906109840149, 2.100000000000000089, 0.000000000000000000 ) ) ;
#35 = VECTOR ( 'NONE', #25, 1000.000000000000000 ) ;
#36 = LOCAL_TIME ( 21, 59, 4.000000000000000000, #29 ) ;
#37 = PERSON_AND_ORGANIZATION_ROLE ( 'creator' ) ;
#38 = ORIENTED_EDGE ( 'NONE', *, *, #952, .T. ) ;
#39 = CARTESIAN_POINT ( 'NONE',  ( -10.25000000000000178, 0.000000000000000000, 0.000000000000000000 ) ) ;
#40 = DIRECTION ( 'NONE',  ( 0.000000000000000000, 0.000000000000000000, 1.000000000000000000 ) ) ;
#41 = ORIENTED_EDGE ( 'NONE', *, *, #155, .F. ) ;
#42 = DIRECTION ( 'NONE',  ( 1.000000000000000000, 0.000000000000000000, 0.000000000000000000 ) ) ;
#43 = ORIENTED_EDGE ( 'NONE', *, *, #173, .F. ) ;
#44 = DIRECTION ( 'NONE',  ( -1.000000000000000000, 0.000000000000000000, 0.000000000000000000 ) ) ;
#45 = APPROVAL_STATUS ( 'not_yet_approved' ) ;
#46 = EDGE_LOOP ( 'NONE', ( #983, #677, #503, #371 ) ) ;
#47 = EDGE_CURVE ( 'NONE', #176, #5, #125, .T. ) ;
#48 = DIRECTION ( 'NONE',  ( 1.000000000000000000, 0.000000000000000000, 0.000000000000000000 ) ) ;
#49 = DIRECTION ( 'NONE',  ( 1.000000000000000000, 0.000000000000000000, 0.000000000000000000 ) ) ;
#50 = CARTESIAN_POINT ( 'NONE',  ( -2.100000000000000089, -8.150000000000000355, 0.000000000000000000 ) ) ;
#51 = PERSON_AND_ORGANIZATION_ROLE ( 'creator' ) ;
#52 = EDGE_CURVE ( 'NONE', #888, #615, #698, .T. ) ;
#53 = ORIENTED_EDGE ( 'NONE', *, *, #966, .F. ) ;
#54 = CARTESIAN_POINT ( 'NONE',  ( -8.150000000000000355, -2.100000000000000089, 0.000000000000000000 ) ) ;
#55 = VERTEX_POINT ( 'NONE', #583 ) ;
#56 = CIRCLE ( 'NONE', #213, 1.149999999999999911 ) ;
#57 = CARTESIAN_POINT ( 'NONE',  ( 5.849999999999999645, -7.000000000000000000, 4.000000000000003553 ) ) ;
#58 = AXIS2_PLACEMENT_3D ( 'NONE', #1065, #201, #988 ) ;
#59 = DATE_AND_TIME ( #202, #196 ) ;
#60 = CIRCLE ( 'NONE', #963, 4.000000000000000000 ) ;
#61 = ORIENTED_EDGE ( 'NONE', *, *, #387, .F. ) ;
#62 = PLANE ( 'NONE',  #559 ) ;
#63 = PRODUCT_DEFINITION_FORMATION_WITH_SPECIFIED_SOURCE ( 'ANY', '', #414, .NOT_KNOWN. ) ;
#64 = ADVANCED_FACE ( 'NONE', ( #317 ), #754, .F. ) ;
#65 = DIRECTION ( 'NONE',  ( 1.000000000000000000, 0.000000000000000000, 0.000000000000000000 ) ) ;
#66 = EDGE_CURVE ( 'NONE', #210, #334, #972, .T. ) ;
#67 = CARTESIAN_POINT ( 'NONE',  ( 0.000000000000000000, 0.000000000000000000, 4.000000000000000000 ) ) ;
#68 = ORIENTED_EDGE ( 'NONE', *, *, #746, .F. ) ;
#69 = DIRECTION ( 'NONE',  ( 1.000000000000000000, 0.000000000000000000, 0.000000000000000000 ) ) ;
#70 = DIRECTION ( 'NONE',  ( 0.000000000000000000, 0.000000000000000000, 1.000000000000000000 ) ) ;
#71 = CARTESIAN_POINT ( 'NONE',  ( -8.150000000000000355, -2.100000000000000089, -1.649999999999999911 ) ) ;
#72 = DIRECTION ( 'NONE',  ( 0.000000000000000000, 0.000000000000000000, -1.000000000000000000 ) ) ;
#73 = ORIENTED_EDGE ( 'NONE', *, *, #78, .F. ) ;
#74 = EDGE_CURVE ( 'NONE', #492, #85, #762, .T. ) ;
#75 = FACE_OUTER_BOUND ( 'NONE', #674, .T. ) ;
#76 = DIRECTION ( 'NONE',  ( 0.000000000000000000, 0.000000000000000000, -1.000000000000000000 ) ) ;
#77 = AXIS2_PLACEMENT_3D ( 'NONE', #426, #72, #515 ) ;
#78 = EDGE_CURVE ( 'NONE', #929, #285, #368, .T. ) ;
#79 = AXIS2_PLACEMENT_3D ( 'NONE', #425, #768, #337 ) ;
#80 = VECTOR ( 'NONE', #406, 1000.000000000000000 ) ;
#81 = LOCAL_TIME ( 21, 59, 4.000000000000000000, #1005 ) ;
#82 = ORIENTED_EDGE ( 'NONE', *, *, #1102, .T. ) ;
#83 = FACE_OUTER_BOUND ( 'NONE', #1035, .T. ) ;
#84 = CARTESIAN_POINT ( 'NONE',  ( -8.150000000000000355, -7.000000000000000000, 4.000000000000003553 ) ) ;
#85 = VERTEX_POINT ( 'NONE', #633 ) ;
#86 = DIRECTION ( 'NONE',  ( 0.000000000000000000, 0.000000000000000000, 1.000000000000000000 ) ) ;
#87 = DIRECTION ( 'NONE',  ( 0.000000000000000000, 0.000000000000000000, -1.000000000000000000 ) ) ;
#88 = VERTEX_POINT ( 'NONE', #824 ) ;
#89 = ORIENTED_EDGE ( 'NONE', *, *, #105, .T. ) ;
#90 = LINE ( 'NONE', #775, #284 ) ;
#91 = ADVANCED_FACE ( 'NONE', ( #380 ), #616, .T. ) ;
#92 = AXIS2_PLACEMENT_3D ( 'NONE', #296, #467, #377 ) ;
#93 = VERTEX_POINT ( 'NONE', #479 ) ;
#94 = EDGE_CURVE ( 'NONE', #176, #936, #987, .T. ) ;
#95 = DIRECTION ( 'NONE',  ( 1.000000000000000000, 0.000000000000000000, 0.000000000000000000 ) ) ;
#96 = CYLINDRICAL_SURFACE ( 'NONE', #267, 1.150000000000000799 ) ;
#97 = ORIENTED_EDGE ( 'NONE', *, *, #618, .F. ) ;
#98 = APPLICATION_CONTEXT ( 'configuration controlled 3d designs of mechanical parts and assemblies' ) ;
#99 = CARTESIAN_POINT ( 'NONE',  ( -2.100000000000000089, 3.404408906109841038, -1.649999999999999911 ) ) ;
#100 = LINE ( 'NONE', #452, #1045 ) ;
#101 = CARTESIAN_POINT ( 'NONE',  ( -8.150000000000000355, 0.000000000000000000, 0.000000000000000000 ) ) ;
#102 = LINE ( 'NONE', #552, #593 ) ;
#103 = EDGE_LOOP ( 'NONE', ( #1100, #556, #143, #648 ) ) ;
#104 = CARTESIAN_POINT ( 'NONE',  ( 0.000000000000000000, 0.000000000000000000, 4.000000000000000000 ) ) ;
#105 = EDGE_CURVE ( 'NONE', #31, #160, #56, .T. ) ;
#106 = EDGE_CURVE ( 'NONE', #385, #822, #849, .T. ) ;
#107 = VECTOR ( 'NONE', #628, 1000.000000000000000 ) ;
#108 = DIRECTION ( 'NONE',  ( 0.000000000000000000, 0.000000000000000000, 1.000000000000000000 ) ) ;
#109 = CIRCLE ( 'NONE', #743, 2.100000000000000089 ) ;
#110 = ORIENTED_EDGE ( 'NONE', *, *, #333, .T. ) ;
#111 = AXIS2_PLACEMENT_3D ( 'NONE', #1094, #40, #378 ) ;
#112 = DIRECTION ( 'NONE',  ( -0.000000000000000000, -0.000000000000000000, -1.000000000000000000 ) ) ;
#113 = DIRECTION ( 'NONE',  ( -1.000000000000000000, 0.000000000000000000, 0.000000000000000000 ) ) ;
#114 = VERTEX_POINT ( 'NONE', #135 ) ;
#115 = LINE ( 'NONE', #473, #1 ) ;
#116 = DIRECTION ( 'NONE',  ( -0.000000000000000000, -0.000000000000000000, -1.000000000000000000 ) ) ;
#117 = CARTESIAN_POINT ( 'NONE',  ( 2.100000000000000089, 3.404408906109840149, 0.000000000000000000 ) ) ;
#118 = ORIENTED_EDGE ( 'NONE', *, *, #603, .T. ) ;
#119 = DIRECTION ( 'NONE',  ( -1.000000000000000000, 0.000000000000000000, 0.000000000000000000 ) ) ;
#120 = DIRECTION ( 'NONE',  ( -1.000000000000000000, -0.000000000000000000, -0.000000000000000000 ) ) ;
#121 = PERSON_AND_ORGANIZATION ( #693, #1033 ) ;
#122 = ORIENTED_EDGE ( 'NONE', *, *, #497, .T. ) ;
#123 = CARTESIAN_POINT ( 'NONE',  ( 7.000000000000000000, 7.000000000000000000, -1.650000000000000355 ) ) ;
#124 = VERTEX_POINT ( 'NONE', #287 ) ;
#125 = CIRCLE ( 'NONE', #1107, 1.149999999999999911 ) ;
#126 = CARTESIAN_POINT ( 'NONE',  ( 2.100000000000000089, -8.150000000000000355, 0.000000000000000000 ) ) ;
#127 = EDGE_LOOP ( 'NONE', ( #251, #255, #893, #1050 ) ) ;
#128 = AXIS2_PLACEMENT_3D ( 'NONE', #601, #277, #344 ) ;
#129 = DIRECTION ( 'NONE',  ( -1.000000000000000000, -0.000000000000000000, -0.000000000000000000 ) ) ;
#130 = EDGE_CURVE ( 'NONE', #1124, #615, #365, .T. ) ;
#131 = SECURITY_CLASSIFICATION_LEVEL ( 'unclassified' ) ;
#132 = ORIENTED_EDGE ( 'NONE', *, *, #1102, .F. ) ;
#133 = CARTESIAN_POINT ( 'NONE',  ( -8.150000000000000355, -2.100000000000000089, 0.000000000000000000 ) ) ;
#134 = DIRECTION ( 'NONE',  ( 0.000000000000000000, 0.000000000000000000, 1.000000000000000000 ) ) ;
#135 = CARTESIAN_POINT ( 'NONE',  ( -2.100000000000000089, -8.150000000000000355, -1.649999999999999911 ) ) ;
#136 = EDGE_LOOP ( 'NONE', ( #563, #526 ) ) ;
#137 = CARTESIAN_POINT ( 'NONE',  ( -8.150000000000000355, 2.100000000000000089, 0.000000000000000000 ) ) ;
#138 = COORDINATED_UNIVERSAL_TIME_OFFSET ( 6, 0, .BEHIND. ) ;
#139 = ORIENTED_EDGE ( 'NONE', *, *, #66, .T. ) ;
#140 = CARTESIAN_POINT ( 'NONE',  ( 0.000000000000000000, 0.000000000000000000, -1.649999999999999911 ) ) ;
#141 = DIRECTION ( 'NONE',  ( -0.000000000000000000, -0.000000000000000000, -1.000000000000000000 ) ) ;
#142 = EDGE_CURVE ( 'NONE', #878, #990, #353, .T. ) ;
#143 = ORIENTED_EDGE ( 'NONE', *, *, #654, .T. ) ;
#144 = PLANE ( 'NONE',  #450 ) ;
#145 = EDGE_CURVE ( 'NONE', #259, #156, #487, .T. ) ;
#146 = AXIS2_PLACEMENT_3D ( 'NONE', #605, #1046, #253 ) ;
#147 = PLANE ( 'NONE',  #1018 ) ;
#148 = CIRCLE ( 'NONE', #430, 1.150000000000000799 ) ;
#149 = VECTOR ( 'NONE', #662, 1000.000000000000000 ) ;
#150 = ORIENTED_EDGE ( 'NONE', *, *, #1078, .T. ) ;
#151 =( NAMED_UNIT ( * ) SI_UNIT ( $, .STERADIAN. ) SOLID_ANGLE_UNIT ( ) );
#152 = ORIENTED_EDGE ( 'NONE', *, *, #587, .T. ) ;
#153 = CARTESIAN_POINT ( 'NONE',  ( -3.404408906109840149, -2.100000000000000089, -1.649999999999999911 ) ) ;
#154 = LINE ( 'NONE', #594, #505 ) ;
#155 = EDGE_CURVE ( 'NONE', #878, #325, #115, .T. ) ;
#156 = VERTEX_POINT ( 'NONE', #716 ) ;
#157 = CARTESIAN_POINT ( 'NONE',  ( 8.150000000000000355, 2.100000000000000977, 0.000000000000000000 ) ) ;
#158 = EDGE_CURVE ( 'NONE', #805, #1124, #678, .T. ) ;
#159 = CYLINDRICAL_SURFACE ( 'NONE', #77, 2.100000000000000977 ) ;
#160 = VERTEX_POINT ( 'NONE', #1058 ) ;
#161 = FACE_OUTER_BOUND ( 'NONE', #1021, .T. ) ;
#162 = VERTEX_POINT ( 'NONE', #554 ) ;
#163 = CIRCLE ( 'NONE', #304, 1.150000000000000799 ) ;
#164 = MANIFOLD_SOLID_BREP ( 'Hub_clearance_in_key_boss_only', #521 ) ;
#165 = ORIENTED_EDGE ( 'NONE', *, *, #440, .F. ) ;
#166 = DIRECTION ( 'NONE',  ( 1.000000000000000000, 0.000000000000000000, 0.000000000000000000 ) ) ;
#167 = LINE ( 'NONE', #429, #216 ) ;
#168 = EDGE_CURVE ( 'NONE', #233, #819, #1063, .T. ) ;
#169 = PLANE ( 'NONE',  #79 ) ;
#170 = ORIENTED_EDGE ( 'NONE', *, *, #10, .F. ) ;
#171 = ORIENTED_EDGE ( 'NONE', *, *, #876, .T. ) ;
#172 = LINE ( 'NONE', #514, #178 ) ;
#173 = EDGE_CURVE ( 'NONE', #996, #231, #902, .T. ) ;
#174 = EDGE_LOOP ( 'NONE', ( #165, #1115, #610, #16 ) ) ;
#175 = EDGE_CURVE ( 'NONE', #285, #596, #740, .T. ) ;
#176 = VERTEX_POINT ( 'NONE', #463 ) ;
#177 = DIRECTION ( 'NONE',  ( 0.000000000000000000, 0.000000000000000000, 1.000000000000000000 ) ) ;
#178 = VECTOR ( 'NONE', #273, 1000.000000000000000 ) ;
#179 = AXIS2_PLACEMENT_3D ( 'NONE', #864, #611, #1123 ) ;
#180 = AXIS2_PLACEMENT_3D ( 'NONE', #354, #541, #970 ) ;
#181 = EDGE_LOOP ( 'NONE', ( #900, #301 ) ) ;
#182 = LINE ( 'NONE', #528, #771 ) ;
#183 = CARTESIAN_POINT ( 'NONE',  ( 7.000000000000000000, -7.000000000000000000, 4.000000000000003553 ) ) ;
#184 = ADVANCED_FACE ( 'NONE', ( #200 ), #280, .F. ) ;
#185 = ORIENTED_EDGE ( 'NONE', *, *, #241, .T. ) ;
#186 = DIRECTION ( 'NONE',  ( 0.000000000000000000, 0.000000000000000000, -1.000000000000000000 ) ) ;
#187 = EDGE_CURVE ( 'NONE', #822, #937, #32, .T. ) ;
#188 = DIRECTION ( 'NONE',  ( 0.000000000000000000, 0.000000000000000000, 1.000000000000000000 ) ) ;
#189 = ORIENTED_EDGE ( 'NONE', *, *, #992, .T. ) ;
#190 = CARTESIAN_POINT ( 'NONE',  ( 7.000000000000000000, 7.000000000000000000, 4.000000000000003553 ) ) ;
#191 = CC_DESIGN_PERSON_AND_ORGANIZATION_ASSIGNMENT ( #647, #51, ( #780 ) ) ;
#192 = VECTOR ( 'NONE', #24, 1000.000000000000000 ) ;
#193 = DIRECTION ( 'NONE',  ( 1.000000000000000000, 0.000000000000000000, 0.000000000000000000 ) ) ;
#194 = VECTOR ( 'NONE', #825, 1000.000000000000000 ) ;
#195 = EDGE_LOOP ( 'NONE', ( #832, #883, #827, #585 ) ) ;
#196 = LOCAL_TIME ( 21, 59, 4.000000000000000000, #138 ) ;
#197 = DIRECTION ( 'NONE',  ( -1.000000000000000000, 0.000000000000000000, 0.000000000000000000 ) ) ;
#198 = CYLINDRICAL_SURFACE ( 'NONE', #236, 1.150000000000000799 ) ;
#199 = VERTEX_POINT ( 'NONE', #731 ) ;
#200 = FACE_OUTER_BOUND ( 'NONE', #46, .T. ) ;
#201 = DIRECTION ( 'NONE',  ( 0.000000000000000000, 0.000000000000000000, -1.000000000000000000 ) ) ;
#202 = CALENDAR_DATE ( 2026, 12, 9 ) ;
#203 = ORIENTED_EDGE ( 'NONE', *, *, #305, .T. ) ;
#204 = CYLINDRICAL_SURFACE ( 'NONE', #776, 13.00000000000000000 ) ;
#205 = ORIENTED_EDGE ( 'NONE', *, *, #1042, .T. ) ;
#206 = EDGE_CURVE ( 'NONE', #614, #789, #163, .T. ) ;
#207 = CARTESIAN_POINT ( 'NONE',  ( 0.000000000000000000, 0.000000000000000000, 4.000000000000000000 ) ) ;
#208 = CARTESIAN_POINT ( 'NONE',  ( 8.150000000000000355, 7.000000000000000000, 4.000000000000003553 ) ) ;
#209 = APPROVAL_STATUS ( 'not_yet_approved' ) ;
#210 = VERTEX_POINT ( 'NONE', #99 ) ;
#211 = FACE_OUTER_BOUND ( 'NONE', #763, .T. ) ;
#212 = PLANE ( 'NONE',  #1047 ) ;
#213 = AXIS2_PLACEMENT_3D ( 'NONE', #561, #969, #914 ) ;
#214 = DIRECTION ( 'NONE',  ( 0.000000000000000000, 0.000000000000000000, 1.000000000000000000 ) ) ;
#215 = EDGE_LOOP ( 'NONE', ( #660, #550 ) ) ;
#216 = VECTOR ( 'NONE', #87, 1000.000000000000000 ) ;
#217 = DIRECTION ( 'NONE',  ( 0.000000000000000000, 0.000000000000000000, -1.000000000000000000 ) ) ;
#218 = AXIS2_PLACEMENT_3D ( 'NONE', #1069, #283, #882 ) ;
#219 = APPROVAL_PERSON_ORGANIZATION ( #733, #1108, #1068 ) ;
#220 = ORIENTED_EDGE ( 'NONE', *, *, #175, .F. ) ;
#221 = DIRECTION ( 'NONE',  ( 0.000000000000000000, 0.000000000000000000, -1.000000000000000000 ) ) ;
#222 = ADVANCED_FACE ( 'NONE', ( #6 ), #1034, .F. ) ;
#223 = CARTESIAN_POINT ( 'NONE',  ( 2.100000000000000089, 8.150000000000000355, 0.000000000000000000 ) ) ;
#224 = EDGE_CURVE ( 'NONE', #124, #937, #182, .T. ) ;
#225 = DATE_AND_TIME ( #831, #341 ) ;
#226 = ORIENTED_EDGE ( 'NONE', *, *, #785, .F. ) ;
#227 = LINE ( 'NONE', #815, #355 ) ;
#228 = ORIENTED_EDGE ( 'NONE', *, *, #224, .T. ) ;
#229 = DIRECTION ( 'NONE',  ( -0.000000000000000000, -0.000000000000000000, 1.000000000000000000 ) ) ;
#230 = APPROVAL_ROLE ( '' ) ;
#231 = VERTEX_POINT ( 'NONE', #14 ) ;
#232 = LINE ( 'NONE', #919, #149 ) ;
#233 = VERTEX_POINT ( 'NONE', #680 ) ;
#234 = CARTESIAN_POINT ( 'NONE',  ( 7.000000000000000000, 7.000000000000000000, 4.000000000000003553 ) ) ;
#235 = AXIS2_PLACEMENT_3D ( 'NONE', #382, #141, #807 ) ;
#236 = AXIS2_PLACEMENT_3D ( 'NONE', #619, #15, #113 ) ;
#237 = ORIENTED_EDGE ( 'NONE', *, *, #302, .T. ) ;
#238 = DIRECTION ( 'NONE',  ( 0.000000000000000000, 0.000000000000000000, -1.000000000000000000 ) ) ;
#239 = CARTESIAN_POINT ( 'NONE',  ( 0.000000000000000000, 0.000000000000000000, 0.000000000000000000 ) ) ;
#240 = CARTESIAN_POINT ( 'NONE',  ( -8.150000000000000355, 7.000000000000000000, -1.650000000000000355 ) ) ;
#241 = EDGE_CURVE ( 'NONE', #492, #390, #282, .T. ) ;
#242 = ORIENTED_EDGE ( 'NONE', *, *, #106, .F. ) ;
#243 = LINE ( 'NONE', #923, #1001 ) ;
#244 = VERTEX_POINT ( 'NONE', #957 ) ;
#245 = ORIENTED_EDGE ( 'NONE', *, *, #158, .F. ) ;
#246 = CARTESIAN_POINT ( 'NONE',  ( -8.150000000000000355, 0.000000000000000000, -1.649999999999999911 ) ) ;
#247 = AXIS2_PLACEMENT_3D ( 'NONE', #980, #1079, #818 ) ;
#248 = ORIENTED_EDGE ( 'NONE', *, *, #618, .T. ) ;
#249 = VECTOR ( 'NONE', #217, 1000.000000000000000 ) ;
#250 = CIRCLE ( 'NONE', #286, 2.100000000000000089 ) ;
#251 = ORIENTED_EDGE ( 'NONE', *, *, #290, .T. ) ;
#252 = ADVANCED_FACE ( 'NONE', ( #687 ), #263, .F. ) ;
#253 = DIRECTION ( 'NONE',  ( -1.000000000000000000, 0.000000000000000000, 0.000000000000000000 ) ) ;
#254 = DIRECTION ( 'NONE',  ( 0.000000000000000000, 1.000000000000000000, 0.000000000000000000 ) ) ;
#255 = ORIENTED_EDGE ( 'NONE', *, *, #770, .T. ) ;
#256 = EDGE_CURVE ( 'NONE', #783, #55, #574, .T. ) ;
#257 = ORIENTED_EDGE ( 'NONE', *, *, #168, .T. ) ;
#258 = DIRECTION ( 'NONE',  ( 0.000000000000000000, 0.000000000000000000, 1.000000000000000000 ) ) ;
#259 = VERTEX_POINT ( 'NONE', #18 ) ;
#260 = APPROVAL ( #45, 'UNSPECIFIED' ) ;
#261 = CARTESIAN_POINT ( 'NONE',  ( 7.000000000000000000, -7.000000000000000000, -1.650000000000000355 ) ) ;
#262 = ORIENTED_EDGE ( 'NONE', *, *, #187, .F. ) ;
#263 = CYLINDRICAL_SURFACE ( 'NONE', #718, 1.150000000000000799 ) ;
#264 = ORIENTED_EDGE ( 'NONE', *, *, #142, .T. ) ;
#265 = EDGE_CURVE ( 'NONE', #55, #31, #172, .T. ) ;
#266 = AXIS2_PLACEMENT_3D ( 'NONE', #668, #1020, #416 ) ;
#267 = AXIS2_PLACEMENT_3D ( 'NONE', #599, #595, #649 ) ;
#268 = DIRECTION ( 'NONE',  ( 0.000000000000000000, 0.000000000000000000, -1.000000000000000000 ) ) ;
#269 = AXIS2_PLACEMENT_3D ( 'NONE', #533, #1055, #626 ) ;
#270 = ORIENTED_EDGE ( 'NONE', *, *, #1056, .T. ) ;
#271 = AXIS2_PLACEMENT_3D ( 'NONE', #630, #917, #549 ) ;
#272 = EDGE_CURVE ( 'NONE', #579, #210, #520, .T. ) ;
#273 = DIRECTION ( 'NONE',  ( 0.000000000000000000, 0.000000000000000000, -1.000000000000000000 ) ) ;
#274 = CARTESIAN_POINT ( 'NONE',  ( 8.150000000000000355, 0.000000000000000000, -1.649999999999999911 ) ) ;
#275 = ORIENTED_EDGE ( 'NONE', *, *, #651, .F. ) ;
#276 = ORIENTED_EDGE ( 'NONE', *, *, #860, .F. ) ;
#277 = DIRECTION ( 'NONE',  ( -0.000000000000000000, -0.000000000000000000, -1.000000000000000000 ) ) ;
#278 = CARTESIAN_POINT ( 'NONE',  ( -5.850000000000000533, -7.000000000000000000, -1.650000000000000355 ) ) ;
#279 = ORIENTED_EDGE ( 'NONE', *, *, #130, .T. ) ;
#280 = CYLINDRICAL_SURFACE ( 'NONE', #644, 1.150000000000000799 ) ;
#281 = CARTESIAN_POINT ( 'NONE',  ( 2.100000000000000089, -3.404408906109840149, 0.000000000000000000 ) ) ;
#282 = CIRCLE ( 'NONE', #925, 2.100000000000000089 ) ;
#283 = DIRECTION ( 'NONE',  ( 1.000000000000000000, -0.000000000000000000, 0.000000000000000000 ) ) ;
#284 = VECTOR ( 'NONE', #531, 1000.000000000000000 ) ;
#285 = VERTEX_POINT ( 'NONE', #767 ) ;
#286 = AXIS2_PLACEMENT_3D ( 'NONE', #246, #947, #166 ) ;
#287 = CARTESIAN_POINT ( 'NONE',  ( 8.150000000000000355, -2.100000000000000977, 0.000000000000000000 ) ) ;
#288 = EDGE_CURVE ( 'NONE', #5, #979, #167, .T. ) ;
#289 = CARTESIAN_POINT ( 'NONE',  ( -8.150000000000000355, 2.100000000000000089, 0.000000000000000000 ) ) ;
#290 = EDGE_CURVE ( 'NONE', #55, #783, #773, .T. ) ;
#291 = DIRECTION ( 'NONE',  ( 0.000000000000000000, 0.000000000000000000, -1.000000000000000000 ) ) ;
#292 = ORIENTED_EDGE ( 'NONE', *, *, #1073, .F. ) ;
#293 = CARTESIAN_POINT ( 'NONE',  ( -8.150000000000000355, -2.100000000000000089, -1.649999999999999911 ) ) ;
#294 = DIRECTION ( 'NONE',  ( 1.000000000000000000, 0.000000000000000000, 0.000000000000000000 ) ) ;
#295 = ORIENTED_EDGE ( 'NONE', *, *, #933, .F. ) ;
#296 = CARTESIAN_POINT ( 'NONE',  ( -8.150000000000000355, -2.100000000000000089, 0.000000000000000000 ) ) ;
#297 = CARTESIAN_POINT ( 'NONE',  ( 0.000000000000000000, 0.000000000000000000, -1.649999999999999911 ) ) ;
#298 = CARTESIAN_POINT ( 'NONE',  ( -4.000000000000000000, 0.000000000000000000, 4.000000000000000000 ) ) ;
#299 = FACE_OUTER_BOUND ( 'NONE', #195, .T. ) ;
#300 = DATE_AND_TIME ( #1082, #837 ) ;
#301 = ORIENTED_EDGE ( 'NONE', *, *, #539, .F. ) ;
#302 = EDGE_CURVE ( 'NONE', #805, #285, #352, .T. ) ;
#303 = CARTESIAN_POINT ( 'NONE',  ( 3.404408906109840149, -2.100000000000000089, 0.000000000000000000 ) ) ;
#304 = AXIS2_PLACEMENT_3D ( 'NONE', #994, #214, #320 ) ;
#305 = EDGE_CURVE ( 'NONE', #5, #176, #607, .T. ) ;
#306 = AXIS2_PLACEMENT_3D ( 'NONE', #909, #557, #813 ) ;
#307 = CARTESIAN_POINT ( 'NONE',  ( 2.100000000000000089, -8.150000000000000355, 0.000000000000000000 ) ) ;
#308 = APPROVAL_STATUS ( 'not_yet_approved' ) ;
#309 = ORIENTED_EDGE ( 'NONE', *, *, #603, .F. ) ;
#310 = FACE_OUTER_BOUND ( 'NONE', #943, .T. ) ;
#311 = DIRECTION ( 'NONE',  ( 0.000000000000000000, -0.000000000000000000, -1.000000000000000000 ) ) ;
#312 = PRODUCT_RELATED_PRODUCT_CATEGORY ( 'detail', '', ( #414 ) ) ;
#313 = ORIENTED_EDGE ( 'NONE', *, *, #145, .F. ) ;
#314 = DIRECTION ( 'NONE',  ( 0.000000000000000000, 0.000000000000000000, 1.000000000000000000 ) ) ;
#315 = EDGE_CURVE ( 'NONE', #500, #765, #90, .T. ) ;
#316 = DIRECTION ( 'NONE',  ( 0.000000000000000000, 0.000000000000000000, -1.000000000000000000 ) ) ;
#317 = FACE_OUTER_BOUND ( 'NONE', #364, .T. ) ;
#318 = CARTESIAN_POINT ( 'NONE',  ( 2.100000000000000089, -8.150000000000000355, 0.000000000000000000 ) ) ;
#319 = DIRECTION ( 'NONE',  ( 1.000000000000000000, 0.000000000000000000, 0.000000000000000000 ) ) ;
#320 = DIRECTION ( 'NONE',  ( 1.000000000000000000, 0.000000000000000000, 0.000000000000000000 ) ) ;
#321 = VECTOR ( 'NONE', #634, 1000.000000000000000 ) ;
#322 = AXIS2_PLACEMENT_3D ( 'NONE', #183, #529, #442 ) ;
#323 = CARTESIAN_POINT ( 'NONE',  ( 7.000000000000000000, -7.000000000000000000, 4.000000000000003553 ) ) ;
#324 = ADVANCED_FACE ( 'NONE', ( #870 ), #879, .T. ) ;
#325 = VERTEX_POINT ( 'NONE', #1053 ) ;
#326 = CARTESIAN_POINT ( 'NONE',  ( 0.000000000000000000, 0.000000000000000000, 4.000000000000000000 ) ) ;
#327 = FACE_BOUND ( 'NONE', #181, .T. ) ;
#328 = DIRECTION ( 'NONE',  ( 0.000000000000000000, 0.000000000000000000, 1.000000000000000000 ) ) ;
#329 = PRODUCT_DEFINITION_SHAPE ( 'NONE', 'NONE',  #780 ) ;
#330 = ORIENTED_EDGE ( 'NONE', *, *, #302, .F. ) ;
#331 = CARTESIAN_POINT ( 'NONE',  ( -5.850000000000000533, 7.000000000000000000, 4.000000000000003553 ) ) ;
#332 = EDGE_LOOP ( 'NONE', ( #343, #530, #636, #43 ) ) ;
#333 = EDGE_CURVE ( 'NONE', #88, #477, #522, .T. ) ;
#334 = VERTEX_POINT ( 'NONE', #949 ) ;
#335 = EDGE_CURVE ( 'NONE', #581, #996, #625, .T. ) ;
#336 = CARTESIAN_POINT ( 'NONE',  ( 4.000000000000000000, 4.898587196589412829E-16, 4.000000000000000000 ) ) ;
#337 = DIRECTION ( 'NONE',  ( 1.000000000000000000, 0.000000000000000000, -0.000000000000000000 ) ) ;
#338 = DIRECTION ( 'NONE',  ( 1.000000000000000000, 0.000000000000000000, 0.000000000000000000 ) ) ;
#339 = AXIS2_PLACEMENT_3D ( 'NONE', #137, #389, #738 ) ;
#340 = VECTOR ( 'NONE', #369, 1000.000000000000000 ) ;
#341 = LOCAL_TIME ( 21, 59, 4.000000000000000000, #655 ) ;
#342 = DIRECTION ( 'NONE',  ( -1.000000000000000000, 0.000000000000000000, 0.000000000000000000 ) ) ;
#343 = ORIENTED_EDGE ( 'NONE', *, *, #422, .T. ) ;
#344 = DIRECTION ( 'NONE',  ( 1.000000000000000000, 0.000000000000000000, 0.000000000000000000 ) ) ;
#345 = ORIENTED_EDGE ( 'NONE', *, *, #786, .F. ) ;
#346 = DIRECTION ( 'NONE',  ( -0.000000000000000000, -1.000000000000000000, -0.000000000000000000 ) ) ;
#347 = ORIENTED_EDGE ( 'NONE', *, *, #946, .F. ) ;
#348 = EDGE_CURVE ( 'NONE', #376, #114, #434, .T. ) ;
#349 = CARTESIAN_POINT ( 'NONE',  ( 13.00000000000000000, 1.592040838891559095E-15, 4.000000000000000000 ) ) ;
#350 = FACE_OUTER_BOUND ( 'NONE', #739, .T. ) ;
#351 = EDGE_LOOP ( 'NONE', ( #26, #903, #248, #696 ) ) ;
#352 = LINE ( 'NONE', #336, #488 ) ;
#353 = CIRCLE ( 'NONE', #1062, 1.150000000000000799 ) ;
#354 = CARTESIAN_POINT ( 'NONE',  ( 0.000000000000000000, 0.000000000000000000, 0.000000000000000000 ) ) ;
#355 = VECTOR ( 'NONE', #238, 1000.000000000000000 ) ;
#356 = ORIENTED_EDGE ( 'NONE', *, *, #847, .T. ) ;
#357 = DIRECTION ( 'NONE',  ( -0.000000000000000000, -0.000000000000000000, -1.000000000000000000 ) ) ;
#358 = CARTESIAN_POINT ( 'NONE',  ( 0.000000000000000000, 0.000000000000000000, 4.000000000000000000 ) ) ;
#359 = ORIENTED_EDGE ( 'NONE', *, *, #66, .F. ) ;
#360 = DIRECTION ( 'NONE',  ( 0.000000000000000000, 0.000000000000000000, 1.000000000000000000 ) ) ;
#361 = APPLICATION_CONTEXT ( 'configuration controlled 3d designs of mechanical parts and assemblies' ) ;
#362 = PLANE ( 'NONE',  #180 ) ;
#363 = EDGE_CURVE ( 'NONE', #231, #385, #1051, .T. ) ;
#364 = EDGE_LOOP ( 'NONE', ( #1010, #403, #110, #485 ) ) ;
#365 = LINE ( 'NONE', #298, #192 ) ;
#366 = CARTESIAN_POINT ( 'NONE',  ( 0.000000000000000000, -8.150000000000000355, 0.000000000000000000 ) ) ;
#367 = EDGE_CURVE ( 'NONE', #244, #462, #804, .T. ) ;
#368 = CIRCLE ( 'NONE', #905, 4.000000000000000000 ) ;
#369 = DIRECTION ( 'NONE',  ( -0.000000000000000000, -1.000000000000000000, -0.000000000000000000 ) ) ;
#370 = CIRCLE ( 'NONE', #999, 13.00000000000000000 ) ;
#371 = ORIENTED_EDGE ( 'NONE', *, *, #453, .T. ) ;
#372 = AXIS2_PLACEMENT_3D ( 'NONE', #326, #591, #671 ) ;
#373 = DIRECTION ( 'NONE',  ( 1.000000000000000000, 0.000000000000000000, 0.000000000000000000 ) ) ;
#374 = DIRECTION ( 'NONE',  ( 1.000000000000000000, 0.000000000000000000, 0.000000000000000000 ) ) ;
#375 = PERSON_AND_ORGANIZATION ( #693, #1033 ) ;
#376 = VERTEX_POINT ( 'NONE', #709 ) ;
#377 = DIRECTION ( 'NONE',  ( 0.000000000000000000, -0.000000000000000000, 1.000000000000000000 ) ) ;
#378 = DIRECTION ( 'NONE',  ( 1.000000000000000000, 0.000000000000000000, 0.000000000000000000 ) ) ;
#379 = ORIENTED_EDGE ( 'NONE', *, *, #1059, .F. ) ;
#380 = FACE_OUTER_BOUND ( 'NONE', #332, .T. ) ;
#381 = ORIENTED_EDGE ( 'NONE', *, *, #689, .F. ) ;
#382 = CARTESIAN_POINT ( 'NONE',  ( 7.000000000000000000, 7.000000000000000000, -1.650000000000000355 ) ) ;
#383 = EDGE_CURVE ( 'NONE', #428, #233, #370, .T. ) ;
#384 = DATE_TIME_ROLE ( 'creation_date' ) ;
#385 = VERTEX_POINT ( 'NONE', #843 ) ;
#386 = DIRECTION ( 'NONE',  ( 1.000000000000000000, 0.000000000000000000, 0.000000000000000000 ) ) ;
#387 = EDGE_CURVE ( 'NONE', #546, #765, #676, .T. ) ;
#388 = DIRECTION ( 'NONE',  ( 0.000000000000000000, 0.000000000000000000, 1.000000000000000000 ) ) ;
#389 = DIRECTION ( 'NONE',  ( 0.000000000000000000, -1.000000000000000000, 0.000000000000000000 ) ) ;
#390 = VERTEX_POINT ( 'NONE', #413 ) ;
#391 = CARTESIAN_POINT ( 'NONE',  ( -3.404408906109840149, -2.100000000000000089, 0.000000000000000000 ) ) ;
#392 = DIRECTION ( 'NONE',  ( -1.000000000000000000, 0.000000000000000000, 0.000000000000000000 ) ) ;
#393 = AXIS2_PLACEMENT_3D ( 'NONE', #323, #76, #1013 ) ;
#394 = VECTOR ( 'NONE', #116, 1000.000000000000000 ) ;
#395 = ORIENTED_EDGE ( 'NONE', *, *, #952, .F. ) ;
#396 = DESIGN_CONTEXT ( 'detailed design', #98, 'design' ) ;
#397 = AXIS2_PLACEMENT_3D ( 'NONE', #123, #461, #978 ) ;
#398 = CARTESIAN_POINT ( 'NONE',  ( -2.100000000000000089, -8.150000000000000355, 0.000000000000000000 ) ) ;
#399 = APPROVAL_DATE_TIME ( #225, #1108 ) ;
#400 = ORIENTED_EDGE ( 'NONE', *, *, #288, .T. ) ;
#401 = CARTESIAN_POINT ( 'NONE',  ( -8.150000000000000355, -2.100000000000000089, 0.000000000000000000 ) ) ;
#402 = DIRECTION ( 'NONE',  ( -0.000000000000000000, -0.000000000000000000, 1.000000000000000000 ) ) ;
#403 = ORIENTED_EDGE ( 'NONE', *, *, #774, .T. ) ;
#404 = CARTESIAN_POINT ( 'NONE',  ( -8.150000000000000355, 2.100000000000000089, -1.649999999999999911 ) ) ;
#405 = DIRECTION ( 'NONE',  ( 0.000000000000000000, 0.000000000000000000, 1.000000000000000000 ) ) ;
#406 = DIRECTION ( 'NONE',  ( 0.000000000000000000, 0.000000000000000000, -1.000000000000000000 ) ) ;
#407 = ADVANCED_FACE ( 'NONE', ( #761, #327, #508, #672, #939, #950 ), #169, .F. ) ;
#408 = CARTESIAN_POINT ( 'NONE',  ( -7.000000000000000000, -7.000000000000000000, 4.000000000000003553 ) ) ;
#409 = ORIENTED_EDGE ( 'NONE', *, *, #383, .F. ) ;
#410 = AXIS2_PLACEMENT_3D ( 'NONE', #27, #640, #796 ) ;
#411 = DIRECTION ( 'NONE',  ( 0.000000000000000000, 0.000000000000000000, -1.000000000000000000 ) ) ;
#412 = VECTOR ( 'NONE', #120, 1000.000000000000000 ) ;
#413 = CARTESIAN_POINT ( 'NONE',  ( -10.25000000000000178, 0.000000000000000000, 0.000000000000000000 ) ) ;
#414 = PRODUCT ( 'FIT-002_SG90_horn_pocket_clearance_0p10', 'FIT-002_SG90_horn_pocket_clearance_0p10', '', ( #1074 ) ) ;
#415 = VECTOR ( 'NONE', #1008, 1000.000000000000000 ) ;
#416 = DIRECTION ( 'NONE',  ( 1.000000000000000000, 0.000000000000000000, 0.000000000000000000 ) ) ;
#417 = CC_DESIGN_SECURITY_CLASSIFICATION ( #524, ( #63 ) ) ;
#418 = ORIENTED_EDGE ( 'NONE', *, *, #862, .T. ) ;
#419 = FACE_BOUND ( 'NONE', #692, .T. ) ;
#420 = ADVANCED_FACE ( 'NONE', ( #958 ), #435, .T. ) ;
#421 = EDGE_LOOP ( 'NONE', ( #1044, #245 ) ) ;
#422 = EDGE_CURVE ( 'NONE', #996, #156, #100, .T. ) ;
#423 = EDGE_LOOP ( 'NONE', ( #670, #451, #270, #706 ) ) ;
#424 = CARTESIAN_POINT ( 'NONE',  ( -7.000000000000000000, 7.000000000000000000, 4.000000000000003553 ) ) ;
#425 = CARTESIAN_POINT ( 'NONE',  ( 0.000000000000000000, 0.000000000000000000, -1.649999999999999911 ) ) ;
#426 = CARTESIAN_POINT ( 'NONE',  ( -8.150000000000000355, 0.000000000000000000, 0.000000000000000000 ) ) ;
#427 = APPROVAL ( #209, 'UNSPECIFIED' ) ;
#428 = VERTEX_POINT ( 'NONE', #349 ) ;
#429 = CARTESIAN_POINT ( 'NONE',  ( -8.150000000000000355, -7.000000000000000000, 4.000000000000003553 ) ) ;
#430 = AXIS2_PLACEMENT_3D ( 'NONE', #261, #3, #602 ) ;
#431 = CIRCLE ( 'NONE', #577, 2.100000000000000977 ) ;
#432 =( GEOMETRIC_REPRESENTATION_CONTEXT ( 3 ) GLOBAL_UNCERTAINTY_ASSIGNED_CONTEXT ( ( #944 ) ) GLOBAL_UNIT_ASSIGNED_CONTEXT ( ( #650, #657, #151 ) ) REPRESENTATION_CONTEXT ( 'NONE', 'WORKASPACE' ) );
#433 = ORIENTED_EDGE ( 'NONE', *, *, #10, .T. ) ;
#434 = LINE ( 'NONE', #778, #1030 ) ;
#435 = PLANE ( 'NONE',  #974 ) ;
#436 = CYLINDRICAL_SURFACE ( 'NONE', #701, 1.150000000000000799 ) ;
#437 = ORIENTED_EDGE ( 'NONE', *, *, #860, .T. ) ;
#438 = ADVANCED_BREP_SHAPE_REPRESENTATION ( 'FIT-002_SG90_horn_pocket_clearance_0p10', ( #164, #271 ), #432 ) ;
#439 = DIRECTION ( 'NONE',  ( -1.000000000000000000, 0.000000000000000000, 0.000000000000000000 ) ) ;
#440 = EDGE_CURVE ( 'NONE', #1083, #579, #779, .T. ) ;
#441 = CARTESIAN_POINT ( 'NONE',  ( 0.000000000000000000, 0.000000000000000000, 0.000000000000000000 ) ) ;
#442 = DIRECTION ( 'NONE',  ( 1.000000000000000000, 0.000000000000000000, 0.000000000000000000 ) ) ;
#443 = VERTEX_POINT ( 'NONE', #694 ) ;
#444 = CARTESIAN_POINT ( 'NONE',  ( -7.000000000000000000, 7.000000000000000000, 4.000000000000003553 ) ) ;
#445 = ORIENTED_EDGE ( 'NONE', *, *, #224, .F. ) ;
#446 = AXIS2_PLACEMENT_3D ( 'NONE', #207, #547, #535 ) ;
#447 = CIRCLE ( 'NONE', #907, 1.149999999999999911 ) ;
#448 = AXIS2_PLACEMENT_3D ( 'NONE', #307, #197, #548 ) ;
#449 = DIRECTION ( 'NONE',  ( 0.000000000000000000, 0.000000000000000000, 1.000000000000000000 ) ) ;
#450 = AXIS2_PLACEMENT_3D ( 'NONE', #572, #558, #932 ) ;
#451 = ORIENTED_EDGE ( 'NONE', *, *, #933, .T. ) ;
#452 = CARTESIAN_POINT ( 'NONE',  ( 2.100000000000000089, -8.150000000000000355, 0.000000000000000000 ) ) ;
#453 = EDGE_CURVE ( 'NONE', #477, #88, #148, .T. ) ;
#454 = DIRECTION ( 'NONE',  ( 1.000000000000000000, 0.000000000000000000, 0.000000000000000000 ) ) ;
#455 = CARTESIAN_POINT ( 'NONE',  ( 2.100000000000000089, -8.150000000000000355, -1.649999999999999911 ) ) ;
#456 = ORIENTED_EDGE ( 'NONE', *, *, #1078, .F. ) ;
#457 = ADVANCED_FACE ( 'NONE', ( #525 ), #960, .F. ) ;
#458 = CARTESIAN_POINT ( 'NONE',  ( -5.850000000000000533, -7.000000000000000000, 4.000000000000003553 ) ) ;
#459 = CARTESIAN_POINT ( 'NONE',  ( -8.150000000000000355, 2.100000000000000089, -1.649999999999999911 ) ) ;
#460 = APPROVAL_DATE_TIME ( #59, #260 ) ;
#461 = DIRECTION ( 'NONE',  ( -0.000000000000000000, -0.000000000000000000, -1.000000000000000000 ) ) ;
#462 = VERTEX_POINT ( 'NONE', #11 ) ;
#463 = CARTESIAN_POINT ( 'NONE',  ( -5.850000000000000533, -7.000000000000000000, 4.000000000000003553 ) ) ;
#464 = DIRECTION ( 'NONE',  ( 0.000000000000000000, 0.000000000000000000, 1.000000000000000000 ) ) ;
#465 = PERSON_AND_ORGANIZATION ( #693, #1033 ) ;
#466 = ORIENTED_EDGE ( 'NONE', *, *, #173, .T. ) ;
#467 = DIRECTION ( 'NONE',  ( -0.000000000000000000, 1.000000000000000000, 0.000000000000000000 ) ) ;
#468 = CARTESIAN_POINT ( 'NONE',  ( -7.000000000000000000, 7.000000000000000000, 4.000000000000003553 ) ) ;
#469 = AXIS2_PLACEMENT_3D ( 'NONE', #104, #357, #708 ) ;
#470 = ORIENTED_EDGE ( 'NONE', *, *, #383, .T. ) ;
#471 = VECTOR ( 'NONE', #402, 1000.000000000000000 ) ;
#472 = EDGE_CURVE ( 'NONE', #570, #579, #962, .T. ) ;
#473 = CARTESIAN_POINT ( 'NONE',  ( 5.849999999999999645, 7.000000000000000000, 4.000000000000003553 ) ) ;
#474 = LINE ( 'NONE', #50, #1015 ) ;
#475 = ADVANCED_FACE ( 'NONE', ( #1048 ), #881, .F. ) ;
#476 = COORDINATED_UNIVERSAL_TIME_OFFSET ( 6, 0, .BEHIND. ) ;
#477 = VERTEX_POINT ( 'NONE', #710 ) ;
#478 = DIRECTION ( 'NONE',  ( 0.000000000000000000, 0.000000000000000000, 1.000000000000000000 ) ) ;
#479 = CARTESIAN_POINT ( 'NONE',  ( -8.150000000000000355, -2.100000000000000089, 0.000000000000000000 ) ) ;
#480 = DIRECTION ( 'NONE',  ( 0.000000000000000000, 0.000000000000000000, 1.000000000000000000 ) ) ;
#481 = SHAPE_DEFINITION_REPRESENTATION ( #329, #438 ) ;
#482 = ORIENTED_EDGE ( 'NONE', *, *, #256, .F. ) ;
#483 = CARTESIAN_POINT ( 'NONE',  ( 8.150000000000000355, 2.100000000000000089, 0.000000000000000000 ) ) ;
#484 = FACE_OUTER_BOUND ( 'NONE', #971, .T. ) ;
#485 = ORIENTED_EDGE ( 'NONE', *, *, #973, .F. ) ;
#486 = FACE_OUTER_BOUND ( 'NONE', #652, .T. ) ;
#487 = CIRCLE ( 'NONE', #941, 4.000000000000000000 ) ;
#488 = VECTOR ( 'NONE', #8, 1000.000000000000000 ) ;
#489 = ORIENTED_EDGE ( 'NONE', *, *, #168, .F. ) ;
#490 = VECTOR ( 'NONE', #229, 1000.000000000000000 ) ;
#491 = CARTESIAN_POINT ( 'NONE',  ( -2.100000000000000089, -3.404408906109840149, 0.000000000000000000 ) ) ;
#492 = VERTEX_POINT ( 'NONE', #1054 ) ;
#493 = DIRECTION ( 'NONE',  ( 0.000000000000000000, -0.000000000000000000, 1.000000000000000000 ) ) ;
#494 = ADVANCED_FACE ( 'NONE', ( #872 ), #96, .F. ) ;
#495 = LINE ( 'NONE', #303, #471 ) ;
#496 = ORIENTED_EDGE ( 'NONE', *, *, #47, .T. ) ;
#497 = EDGE_CURVE ( 'NONE', #93, #500, #735, .T. ) ;
#498 = CARTESIAN_POINT ( 'NONE',  ( 0.000000000000000000, 0.000000000000000000, -1.649999999999999911 ) ) ;
#499 = ORIENTED_EDGE ( 'NONE', *, *, #569, .T. ) ;
#500 = VERTEX_POINT ( 'NONE', #391 ) ;
#501 = LINE ( 'NONE', #1026, #80 ) ;
#502 = ORIENTED_EDGE ( 'NONE', *, *, #106, .T. ) ;
#503 = ORIENTED_EDGE ( 'NONE', *, *, #973, .T. ) ;
#504 = EDGE_CURVE ( 'NONE', #160, #31, #447, .T. ) ;
#505 = VECTOR ( 'NONE', #951, 1000.000000000000000 ) ;
#506 = DIRECTION ( 'NONE',  ( 1.000000000000000000, 0.000000000000000000, 0.000000000000000000 ) ) ;
#507 = VECTOR ( 'NONE', #129, 1000.000000000000000 ) ;
#508 = FACE_BOUND ( 'NONE', #136, .T. ) ;
#509 = CIRCLE ( 'NONE', #792, 13.00000000000000000 ) ;
#510 = EDGE_LOOP ( 'NONE', ( #347, #445, #152, #1119 ) ) ;
#511 = ADVANCED_FACE ( 'NONE', ( #310 ), #62, .T. ) ;
#512 = EDGE_LOOP ( 'NONE', ( #1091, #812, #844, #9 ) ) ;
#513 = FACE_BOUND ( 'NONE', #1080, .T. ) ;
#514 = CARTESIAN_POINT ( 'NONE',  ( -8.150000000000000355, 7.000000000000000000, 4.000000000000003553 ) ) ;
#515 = DIRECTION ( 'NONE',  ( -1.000000000000000000, 0.000000000000000000, 0.000000000000000000 ) ) ;
#516 = ORIENTED_EDGE ( 'NONE', *, *, #992, .F. ) ;
#517 = DIRECTION ( 'NONE',  ( 0.000000000000000000, 0.000000000000000000, -1.000000000000000000 ) ) ;
#518 = ORIENTED_EDGE ( 'NONE', *, *, #333, .F. ) ;
#519 = ORIENTED_EDGE ( 'NONE', *, *, #686, .T. ) ;
#520 = LINE ( 'NONE', #784, #809 ) ;
#521 = CLOSED_SHELL ( 'NONE', ( #64, #829, #252, #494, #457, #724, #324, #407, #511, #702, #707, #527, #584, #891, #1027, #91, #742, #916, #873, #894, #808, #420, #1024, #573, #613, #23, #222, #959, #1017, #475, #184 ) ) ;
#522 = CIRCLE ( 'NONE', #128, 1.150000000000000799 ) ;
#523 = CIRCLE ( 'NONE', #397, 1.150000000000000799 ) ;
#524 = SECURITY_CLASSIFICATION ( '', '', #131 ) ;
#525 = FACE_OUTER_BOUND ( 'NONE', #965, .T. ) ;
#526 = ORIENTED_EDGE ( 'NONE', *, *, #504, .F. ) ;
#527 = ADVANCED_FACE ( 'NONE', ( #211 ), #727, .T. ) ;
#528 = CARTESIAN_POINT ( 'NONE',  ( 8.150000000000000355, -2.100000000000000089, 0.000000000000000000 ) ) ;
#529 = DIRECTION ( 'NONE',  ( 0.000000000000000000, 0.000000000000000000, 1.000000000000000000 ) ) ;
#530 = ORIENTED_EDGE ( 'NONE', *, *, #669, .T. ) ;
#531 = DIRECTION ( 'NONE',  ( 0.000000000000000000, 0.000000000000000000, -1.000000000000000000 ) ) ;
#532 = CARTESIAN_POINT ( 'NONE',  ( -2.100000000000000089, -8.150000000000000355, 0.000000000000000000 ) ) ;
#533 = CARTESIAN_POINT ( 'NONE',  ( 0.000000000000000000, 0.000000000000000000, 4.000000000000000000 ) ) ;
#534 = ORIENTED_EDGE ( 'NONE', *, *, #256, .T. ) ;
#535 = DIRECTION ( 'NONE',  ( 1.000000000000000000, 0.000000000000000000, 0.000000000000000000 ) ) ;
#536 = EDGE_CURVE ( 'NONE', #390, #162, #991, .T. ) ;
#537 = DIRECTION ( 'NONE',  ( -1.000000000000000000, 0.000000000000000000, -0.000000000000000000 ) ) ;
#538 = AXIS2_PLACEMENT_3D ( 'NONE', #366, #622, #44 ) ;
#539 = EDGE_CURVE ( 'NONE', #936, #979, #811, .T. ) ;
#540 = CIRCLE ( 'NONE', #1110, 1.150000000000000799 ) ;
#541 = DIRECTION ( 'NONE',  ( 0.000000000000000000, 0.000000000000000000, -1.000000000000000000 ) ) ;
#542 = AXIS2_PLACEMENT_3D ( 'NONE', #1077, #134, #65 ) ;
#543 = ORIENTED_EDGE ( 'NONE', *, *, #453, .F. ) ;
#544 = CARTESIAN_POINT ( 'NONE',  ( -4.000000000000000000, 0.000000000000000000, 0.000000000000000000 ) ) ;
#545 = CARTESIAN_POINT ( 'NONE',  ( -2.100000000000000089, -8.150000000000000355, -1.649999999999999911 ) ) ;
#546 = VERTEX_POINT ( 'NONE', #1076 ) ;
#547 = DIRECTION ( 'NONE',  ( 0.000000000000000000, 0.000000000000000000, 1.000000000000000000 ) ) ;
#548 = DIRECTION ( 'NONE',  ( 0.000000000000000000, 0.000000000000000000, 1.000000000000000000 ) ) ;
#549 = DIRECTION ( 'NONE',  ( 1.000000000000000000, 0.000000000000000000, 0.000000000000000000 ) ) ;
#550 = ORIENTED_EDGE ( 'NONE', *, *, #47, .F. ) ;
#551 = EDGE_CURVE ( 'NONE', #848, #1083, #33, .T. ) ;
#552 = CARTESIAN_POINT ( 'NONE',  ( -2.100000000000000089, -8.150000000000000355, 0.000000000000000000 ) ) ;
#553 = ORIENTED_EDGE ( 'NONE', *, *, #363, .T. ) ;
#554 = CARTESIAN_POINT ( 'NONE',  ( -10.25000000000000178, 0.000000000000000000, -1.649999999999999911 ) ) ;
#555 = DIRECTION ( 'NONE',  ( 0.000000000000000000, 0.000000000000000000, 1.000000000000000000 ) ) ;
#556 = ORIENTED_EDGE ( 'NONE', *, *, #728, .T. ) ;
#557 = DIRECTION ( 'NONE',  ( -0.000000000000000000, -0.000000000000000000, -1.000000000000000000 ) ) ;
#558 = DIRECTION ( 'NONE',  ( 0.000000000000000000, 0.000000000000000000, -1.000000000000000000 ) ) ;
#559 = AXIS2_PLACEMENT_3D ( 'NONE', #401, #571, #493 ) ;
#560 = CIRCLE ( 'NONE', #852, 4.000000000000000000 ) ;
#561 = CARTESIAN_POINT ( 'NONE',  ( -7.000000000000000000, 7.000000000000000000, -1.650000000000000355 ) ) ;
#562 = LINE ( 'NONE', #459, #507 ) ;
#563 = ORIENTED_EDGE ( 'NONE', *, *, #105, .F. ) ;
#564 = DIRECTION ( 'NONE',  ( 1.000000000000000000, 0.000000000000000000, 0.000000000000000000 ) ) ;
#565 = PLANE ( 'NONE',  #759 ) ;
#566 = PERSON_AND_ORGANIZATION ( #693, #1033 ) ;
#567 = EDGE_LOOP ( 'NONE', ( #409, #726, #799, #489 ) ) ;
#568 = CARTESIAN_POINT ( 'NONE',  ( -8.150000000000000355, -2.100000000000000089, 0.000000000000000000 ) ) ;
#569 = EDGE_CURVE ( 'NONE', #1097, #325, #699, .T. ) ;
#570 = VERTEX_POINT ( 'NONE', #915 ) ;
#571 = DIRECTION ( 'NONE',  ( -0.000000000000000000, 1.000000000000000000, 0.000000000000000000 ) ) ;
#572 = CARTESIAN_POINT ( 'NONE',  ( 0.000000000000000000, 0.000000000000000000, 0.000000000000000000 ) ) ;
#573 = ADVANCED_FACE ( 'NONE', ( #484 ), #1081, .F. ) ;
#574 = CIRCLE ( 'NONE', #867, 1.149999999999999911 ) ;
#575 = VECTOR ( 'NONE', #926, 1000.000000000000000 ) ;
#576 = ORIENTED_EDGE ( 'NONE', *, *, #290, .F. ) ;
#577 = AXIS2_PLACEMENT_3D ( 'NONE', #274, #108, #193 ) ;
#578 = CARTESIAN_POINT ( 'NONE',  ( 3.404408906109840149, -2.100000000000000089, -1.649999999999999911 ) ) ;
#579 = VERTEX_POINT ( 'NONE', #830 ) ;
#580 = FACE_OUTER_BOUND ( 'NONE', #103, .T. ) ;
#581 = VERTEX_POINT ( 'NONE', #398 ) ;
#582 = CARTESIAN_POINT ( 'NONE',  ( 2.100000000000000089, 8.150000000000000355, 0.000000000000000000 ) ) ;
#583 = CARTESIAN_POINT ( 'NONE',  ( -8.150000000000000355, 7.000000000000000000, 4.000000000000003553 ) ) ;
#584 = ADVANCED_FACE ( 'NONE', ( #641 ), #1003, .T. ) ;
#585 = ORIENTED_EDGE ( 'NONE', *, *, #1099, .F. ) ;
#586 = FACE_BOUND ( 'NONE', #421, .T. ) ;
#587 = EDGE_CURVE ( 'NONE', #124, #851, #885, .T. ) ;
#588 = EDGE_LOOP ( 'NONE', ( #264, #620, #499, #41 ) ) ;
#589 = ORIENTED_EDGE ( 'NONE', *, *, #551, .T. ) ;
#590 = VECTOR ( 'NONE', #714, 1000.000000000000000 ) ;
#591 = DIRECTION ( 'NONE',  ( -0.000000000000000000, -0.000000000000000000, -1.000000000000000000 ) ) ;
#592 = VECTOR ( 'NONE', #828, 1000.000000000000000 ) ;
#593 = VECTOR ( 'NONE', #291, 1000.000000000000000 ) ;
#594 = CARTESIAN_POINT ( 'NONE',  ( -2.100000000000000089, 8.150000000000000355, 0.000000000000000000 ) ) ;
#595 = DIRECTION ( 'NONE',  ( 0.000000000000000000, 0.000000000000000000, -1.000000000000000000 ) ) ;
#596 = VERTEX_POINT ( 'NONE', #34 ) ;
#597 = CARTESIAN_POINT ( 'NONE',  ( -7.000000000000000000, 7.000000000000000000, 4.000000000000003553 ) ) ;
#598 = ORIENTED_EDGE ( 'NONE', *, *, #74, .F. ) ;
#599 = CARTESIAN_POINT ( 'NONE',  ( 7.000000000000000000, 7.000000000000000000, 4.000000000000003553 ) ) ;
#600 = ORIENTED_EDGE ( 'NONE', *, *, #155, .T. ) ;
#601 = CARTESIAN_POINT ( 'NONE',  ( 7.000000000000000000, -7.000000000000000000, -1.650000000000000355 ) ) ;
#602 = DIRECTION ( 'NONE',  ( 1.000000000000000000, 0.000000000000000000, 0.000000000000000000 ) ) ;
#603 = EDGE_CURVE ( 'NONE', #390, #93, #109, .T. ) ;
#604 = ORIENTED_EDGE ( 'NONE', *, *, #315, .T. ) ;
#605 = CARTESIAN_POINT ( 'NONE',  ( 8.150000000000000355, 0.000000000000000000, 0.000000000000000000 ) ) ;
#606 = ORIENTED_EDGE ( 'NONE', *, *, #995, .T. ) ;
#607 = CIRCLE ( 'NONE', #179, 1.149999999999999911 ) ;
#608 = VECTOR ( 'NONE', #411, 1000.000000000000000 ) ;
#609 = LINE ( 'NONE', #545, #340 ) ;
#610 = ORIENTED_EDGE ( 'NONE', *, *, #1056, .F. ) ;
#611 = DIRECTION ( 'NONE',  ( 0.000000000000000000, 0.000000000000000000, 1.000000000000000000 ) ) ;
#612 = CARTESIAN_POINT ( 'NONE',  ( -3.404408906109840149, 2.100000000000000089, 0.000000000000000000 ) ) ;
#613 = ADVANCED_FACE ( 'NONE', ( #920 ), #28, .F. ) ;
#614 = VERTEX_POINT ( 'NONE', #57 ) ;
#615 = VERTEX_POINT ( 'NONE', #544 ) ;
#616 = PLANE ( 'NONE',  #410 ) ;
#617 = DIRECTION ( 'NONE',  ( 0.000000000000000000, 0.000000000000000000, -1.000000000000000000 ) ) ;
#618 = EDGE_CURVE ( 'NONE', #888, #492, #646, .T. ) ;
#619 = CARTESIAN_POINT ( 'NONE',  ( 7.000000000000000000, 7.000000000000000000, 4.000000000000003553 ) ) ;
#620 = ORIENTED_EDGE ( 'NONE', *, *, #689, .T. ) ;
#621 = DIRECTION ( 'NONE',  ( 0.000000000000000000, 0.000000000000000000, -1.000000000000000000 ) ) ;
#622 = DIRECTION ( 'NONE',  ( 0.000000000000000000, 0.000000000000000000, -1.000000000000000000 ) ) ;
#623 = AXIS2_PLACEMENT_3D ( 'NONE', #861, #328, #751 ) ;
#624 = CC_DESIGN_PERSON_AND_ORGANIZATION_ASSIGNMENT ( #566, #1096, ( #414 ) ) ;
#625 = CIRCLE ( 'NONE', #927, 2.100000000000000089 ) ;
#626 = DIRECTION ( 'NONE',  ( -1.000000000000000000, 0.000000000000000000, 0.000000000000000000 ) ) ;
#627 = EDGE_LOOP ( 'NONE', ( #685, #356, #918, #82, #437, #139, #868, #150, #1029, #934, #205, #1075, #874, #553, #502, #690, #863 ) ) ;
#628 = DIRECTION ( 'NONE',  ( 0.000000000000000000, 0.000000000000000000, -1.000000000000000000 ) ) ;
#629 = LINE ( 'NONE', #223, #249 ) ;
#630 = CARTESIAN_POINT ( 'NONE',  ( 0.000000000000000000, 0.000000000000000000, 0.000000000000000000 ) ) ;
#631 = LINE ( 'NONE', #117, #1066 ) ;
#632 = ORIENTED_EDGE ( 'NONE', *, *, #52, .F. ) ;
#633 = CARTESIAN_POINT ( 'NONE',  ( -8.150000000000000355, 2.100000000000000089, -1.649999999999999911 ) ) ;
#634 = DIRECTION ( 'NONE',  ( 0.000000000000000000, 0.000000000000000000, -1.000000000000000000 ) ) ;
#635 = PERSON_AND_ORGANIZATION ( #693, #1033 ) ;
#636 = ORIENTED_EDGE ( 'NONE', *, *, #363, .F. ) ;
#637 = DIRECTION ( 'NONE',  ( 0.000000000000000000, 0.000000000000000000, -1.000000000000000000 ) ) ;
#638 = CARTESIAN_POINT ( 'NONE',  ( 8.150000000000000355, 7.000000000000000000, -1.650000000000000355 ) ) ;
#639 = EDGE_CURVE ( 'NONE', #848, #462, #629, .T. ) ;
#640 = DIRECTION ( 'NONE',  ( -1.000000000000000000, 0.000000000000000000, 0.000000000000000000 ) ) ;
#641 = FACE_OUTER_BOUND ( 'NONE', #423, .T. ) ;
#642 = APPROVAL_DATE_TIME ( #300, #427 ) ;
#643 = ORIENTED_EDGE ( 'NONE', *, *, #94, .T. ) ;
#644 = AXIS2_PLACEMENT_3D ( 'NONE', #895, #621, #119 ) ;
#645 = VECTOR ( 'NONE', #764, 1000.000000000000000 ) ;
#646 = LINE ( 'NONE', #289, #412 ) ;
#647 = PERSON_AND_ORGANIZATION ( #693, #1033 ) ;
#648 = ORIENTED_EDGE ( 'NONE', *, *, #913, .T. ) ;
#649 = DIRECTION ( 'NONE',  ( -1.000000000000000000, 0.000000000000000000, 0.000000000000000000 ) ) ;
#650 =( LENGTH_UNIT ( ) NAMED_UNIT ( * ) SI_UNIT ( .MILLI., .METRE. ) );
#651 = EDGE_CURVE ( 'NONE', #428, #758, #890, .T. ) ;
#652 = EDGE_LOOP ( 'NONE', ( #766, #534, #795, #89 ) ) ;
#653 = LINE ( 'NONE', #568, #645 ) ;
#654 = EDGE_CURVE ( 'NONE', #259, #581, #474, .T. ) ;
#655 = COORDINATED_UNIVERSAL_TIME_OFFSET ( 6, 0, .BEHIND. ) ;
#656 = ORIENTED_EDGE ( 'NONE', *, *, #746, .T. ) ;
#657 =( NAMED_UNIT ( * ) PLANE_ANGLE_UNIT ( ) SI_UNIT ( $, .RADIAN. ) );
#658 = DIRECTION ( 'NONE',  ( -1.000000000000000000, 0.000000000000000000, 0.000000000000000000 ) ) ;
#659 = CARTESIAN_POINT ( 'NONE',  ( 0.000000000000000000, 0.000000000000000000, 0.000000000000000000 ) ) ;
#660 = ORIENTED_EDGE ( 'NONE', *, *, #305, .F. ) ;
#661 = CC_DESIGN_PERSON_AND_ORGANIZATION_ASSIGNMENT ( #465, #921, ( #524 ) ) ;
#662 = DIRECTION ( 'NONE',  ( 0.000000000000000000, 1.000000000000000000, 0.000000000000000000 ) ) ;
#663 = VECTOR ( 'NONE', #737, 1000.000000000000000 ) ;
#664 = CIRCLE ( 'NONE', #833, 4.000000000000000000 ) ;
#665 = VECTOR ( 'NONE', #268, 1000.000000000000000 ) ;
#666 = LINE ( 'NONE', #491, #490 ) ;
#667 = EDGE_CURVE ( 'NONE', #334, #85, #562, .T. ) ;
#668 = CARTESIAN_POINT ( 'NONE',  ( 0.000000000000000000, 0.000000000000000000, -1.649999999999999911 ) ) ;
#669 = EDGE_CURVE ( 'NONE', #156, #385, #747, .T. ) ;
#670 = ORIENTED_EDGE ( 'NONE', *, *, #367, .F. ) ;
#671 = DIRECTION ( 'NONE',  ( -1.000000000000000000, 0.000000000000000000, 0.000000000000000000 ) ) ;
#672 = FACE_BOUND ( 'NONE', #1121, .T. ) ;
#673 = CARTESIAN_POINT ( 'NONE',  ( -8.150000000000000355, 2.100000000000000089, 0.000000000000000000 ) ) ;
#674 = EDGE_LOOP ( 'NONE', ( #924, #470 ) ) ;
#675 = CARTESIAN_POINT ( 'NONE',  ( -8.150000000000000355, 2.100000000000000089, 0.000000000000000000 ) ) ;
#676 = LINE ( 'NONE', #71, #1109 ) ;
#677 = ORIENTED_EDGE ( 'NONE', *, *, #977, .T. ) ;
#678 = CIRCLE ( 'NONE', #446, 4.000000000000000000 ) ;
#679 = VERTEX_POINT ( 'NONE', #820 ) ;
#680 = CARTESIAN_POINT ( 'NONE',  ( -13.00000000000000000, 0.000000000000000000, 4.000000000000000000 ) ) ;
#681 = AXIS2_PLACEMENT_3D ( 'NONE', #67, #1011, #1019 ) ;
#682 = CC_DESIGN_APPROVAL ( #260, ( #780 ) ) ;
#683 = ORIENTED_EDGE ( 'NONE', *, *, #536, .F. ) ;
#684 = DIRECTION ( 'NONE',  ( 1.000000000000000000, 0.000000000000000000, 0.000000000000000000 ) ) ;
#685 = ORIENTED_EDGE ( 'NONE', *, *, #752, .T. ) ;
#686 = EDGE_CURVE ( 'NONE', #1124, #805, #664, .T. ) ;
#687 = FACE_OUTER_BOUND ( 'NONE', #127, .T. ) ;
#688 = EDGE_LOOP ( 'NONE', ( #13, #953 ) ) ;
#689 = EDGE_CURVE ( 'NONE', #990, #1097, #1072, .T. ) ;
#690 = ORIENTED_EDGE ( 'NONE', *, *, #187, .T. ) ;
#691 = DIRECTION ( 'NONE',  ( 0.000000000000000000, 0.000000000000000000, -1.000000000000000000 ) ) ;
#692 = EDGE_LOOP ( 'NONE', ( #576, #482 ) ) ;
#693 = PERSON ( 'UNSPECIFIED', 'UNSPECIFIED', 'UNSPECIFIED', ('UNSPECIFIED'), ('UNSPECIFIED'), ('UNSPECIFIED') ) ;
#694 = CARTESIAN_POINT ( 'NONE',  ( -2.100000000000000089, 8.150000000000000355, -1.649999999999999911 ) ) ;
#695 = CARTESIAN_POINT ( 'NONE',  ( -8.150000000000000355, 2.100000000000000089, 0.000000000000000000 ) ) ;
#696 = ORIENTED_EDGE ( 'NONE', *, *, #74, .T. ) ;
#697 = DIRECTION ( 'NONE',  ( 1.000000000000000000, 0.000000000000000000, 0.000000000000000000 ) ) ;
#698 = CIRCLE ( 'NONE', #623, 4.000000000000000000 ) ;
#699 = CIRCLE ( 'NONE', #235, 1.150000000000000799 ) ;
#700 = DIRECTION ( 'NONE',  ( 0.000000000000000000, 1.000000000000000000, 0.000000000000000000 ) ) ;
#701 = AXIS2_PLACEMENT_3D ( 'NONE', #1095, #316, #658 ) ;
#702 = ADVANCED_FACE ( 'NONE', ( #299 ), #997, .T. ) ;
#703 = CC_DESIGN_APPROVAL ( #1108, ( #63 ) ) ;
#704 = CARTESIAN_POINT ( 'NONE',  ( 8.150000000000000355, 7.000000000000000000, 4.000000000000003553 ) ) ;
#705 = ORIENTED_EDGE ( 'NONE', *, *, #1012, .T. ) ;
#706 = ORIENTED_EDGE ( 'NONE', *, *, #639, .T. ) ;
#707 = ADVANCED_FACE ( 'NONE', ( #1087 ), #565, .T. ) ;
#708 = DIRECTION ( 'NONE',  ( -1.000000000000000000, 0.000000000000000000, 0.000000000000000000 ) ) ;
#709 = CARTESIAN_POINT ( 'NONE',  ( -2.100000000000000089, -3.404408906109840149, -1.649999999999999911 ) ) ;
#710 = CARTESIAN_POINT ( 'NONE',  ( 5.849999999999999645, -7.000000000000000000, -1.650000000000000355 ) ) ;
#711 = FACE_OUTER_BOUND ( 'NONE', #1052, .T. ) ;
#712 = EDGE_LOOP ( 'NONE', ( #275, #292, #257, #418 ) ) ;
#713 = LINE ( 'NONE', #1043, #665 ) ;
#714 = DIRECTION ( 'NONE',  ( 0.000000000000000000, 1.000000000000000000, 0.000000000000000000 ) ) ;
#715 = ORIENTED_EDGE ( 'NONE', *, *, #913, .F. ) ;
#716 = CARTESIAN_POINT ( 'NONE',  ( 2.100000000000000089, -3.404408906109840149, 0.000000000000000000 ) ) ;
#717 = CARTESIAN_POINT ( 'NONE',  ( 8.150000000000000355, 0.000000000000000000, 0.000000000000000000 ) ) ;
#718 = AXIS2_PLACEMENT_3D ( 'NONE', #444, #691, #439 ) ;
#719 = VECTOR ( 'NONE', #637, 1000.000000000000000 ) ;
#720 = PLANE ( 'NONE',  #218 ) ;
#721 = ORIENTED_EDGE ( 'NONE', *, *, #335, .T. ) ;
#722 = DIRECTION ( 'NONE',  ( 0.000000000000000000, 0.000000000000000000, 1.000000000000000000 ) ) ;
#723 = DIRECTION ( 'NONE',  ( 0.000000000000000000, 0.000000000000000000, 1.000000000000000000 ) ) ;
#724 = ADVANCED_FACE ( 'NONE', ( #83 ), #753, .F. ) ;
#725 = PERSON_AND_ORGANIZATION ( #693, #1033 ) ;
#726 = ORIENTED_EDGE ( 'NONE', *, *, #651, .T. ) ;
#727 = PLANE ( 'NONE',  #92 ) ;
#728 = EDGE_CURVE ( 'NONE', #376, #259, #666, .T. ) ;
#729 = CARTESIAN_POINT ( 'NONE',  ( -8.150000000000000355, 0.000000000000000000, -1.649999999999999911 ) ) ;
#730 = CARTESIAN_POINT ( 'NONE',  ( 2.100000000000000089, -8.150000000000000355, -1.649999999999999911 ) ) ;
#731 = CARTESIAN_POINT ( 'NONE',  ( 3.404408906109840149, 2.100000000000000089, -1.649999999999999911 ) ) ;
#732 = CARTESIAN_POINT ( 'NONE',  ( 0.000000000000000000, 0.000000000000000000, 4.000000000000000000 ) ) ;
#733 = PERSON_AND_ORGANIZATION ( #693, #1033 ) ;
#734 = ORIENTED_EDGE ( 'NONE', *, *, #315, .F. ) ;
#735 = LINE ( 'NONE', #133, #575 ) ;
#736 = FACE_OUTER_BOUND ( 'NONE', #512, .T. ) ;
#737 = DIRECTION ( 'NONE',  ( 0.000000000000000000, 0.000000000000000000, -1.000000000000000000 ) ) ;
#738 = DIRECTION ( 'NONE',  ( 0.000000000000000000, -0.000000000000000000, -1.000000000000000000 ) ) ;
#739 = EDGE_LOOP ( 'NONE', ( #53, #961, #840, #1103, #1025 ) ) ;
#740 = CIRCLE ( 'NONE', #247, 4.000000000000000000 ) ;
#741 = DIRECTION ( 'NONE',  ( -0.000000000000000000, -0.000000000000000000, -1.000000000000000000 ) ) ;
#742 = ADVANCED_FACE ( 'NONE', ( #1112, #846, #419, #513, #75, #586 ), #839, .T. ) ;
#743 = AXIS2_PLACEMENT_3D ( 'NONE', #896, #723, #374 ) ;
#744 = LINE ( 'NONE', #54, #976 ) ;
#745 = CIRCLE ( 'NONE', #886, 2.100000000000000089 ) ;
#746 = EDGE_CURVE ( 'NONE', #93, #546, #653, .T. ) ;
#747 = LINE ( 'NONE', #281, #194 ) ;
#748 = ORIENTED_EDGE ( 'NONE', *, *, #1012, .F. ) ;
#749 = DIRECTION ( 'NONE',  ( 0.000000000000000000, 0.000000000000000000, -1.000000000000000000 ) ) ;
#750 = DIRECTION ( 'NONE',  ( 0.000000000000000000, 0.000000000000000000, -1.000000000000000000 ) ) ;
#751 = DIRECTION ( 'NONE',  ( 1.000000000000000000, 0.000000000000000000, 0.000000000000000000 ) ) ;
#752 = EDGE_CURVE ( 'NONE', #679, #199, #1022, .T. ) ;
#753 = CYLINDRICAL_SURFACE ( 'NONE', #372, 4.000000000000000000 ) ;
#754 = CYLINDRICAL_SURFACE ( 'NONE', #393, 1.150000000000000799 ) ;
#755 = APPLICATION_PROTOCOL_DEFINITION ( 'international standard', 'config_control_design', 1994, #361 ) ;
#756 = VECTOR ( 'NONE', #1122, 1000.000000000000000 ) ;
#757 = AXIS2_PLACEMENT_3D ( 'NONE', #1036, #20, #793 ) ;
#758 = VERTEX_POINT ( 'NONE', #842 ) ;
#759 = AXIS2_PLACEMENT_3D ( 'NONE', #675, #1118, #311 ) ;
#760 = CARTESIAN_POINT ( 'NONE',  ( 8.150000000000000355, -7.000000000000000000, 4.000000000000003553 ) ) ;
#761 = FACE_BOUND ( 'NONE', #871, .T. ) ;
#762 = LINE ( 'NONE', #673, #756 ) ;
#763 = EDGE_LOOP ( 'NONE', ( #122, #604, #61, #68 ) ) ;
#764 = DIRECTION ( 'NONE',  ( 0.000000000000000000, 0.000000000000000000, -1.000000000000000000 ) ) ;
#765 = VERTEX_POINT ( 'NONE', #153 ) ;
#766 = ORIENTED_EDGE ( 'NONE', *, *, #770, .F. ) ;
#767 = CARTESIAN_POINT ( 'NONE',  ( 4.000000000000000000, 4.898587196589412829E-16, 0.000000000000000000 ) ) ;
#768 = DIRECTION ( 'NONE',  ( 0.000000000000000000, 0.000000000000000000, 1.000000000000000000 ) ) ;
#769 = ORIENTED_EDGE ( 'NONE', *, *, #639, .F. ) ;
#770 = EDGE_CURVE ( 'NONE', #783, #160, #501, .T. ) ;
#771 = VECTOR ( 'NONE', #517, 1000.000000000000000 ) ;
#772 = ORIENTED_EDGE ( 'NONE', *, *, #826, .T. ) ;
#773 = CIRCLE ( 'NONE', #2, 1.149999999999999911 ) ;
#774 = EDGE_CURVE ( 'NONE', #789, #88, #857, .T. ) ;
#775 = CARTESIAN_POINT ( 'NONE',  ( -3.404408906109840149, -2.100000000000000089, 0.000000000000000000 ) ) ;
#776 = AXIS2_PLACEMENT_3D ( 'NONE', #358, #21, #899 ) ;
#777 = ORIENTED_EDGE ( 'NONE', *, *, #272, .F. ) ;
#778 = CARTESIAN_POINT ( 'NONE',  ( -2.100000000000000089, -8.150000000000000355, -1.649999999999999911 ) ) ;
#779 = LINE ( 'NONE', #532, #17 ) ;
#780 = PRODUCT_DEFINITION ( 'UNKNOWN', '', #63, #396 ) ;
#781 = DIRECTION ( 'NONE',  ( 0.000000000000000000, 0.000000000000000000, -1.000000000000000000 ) ) ;
#782 = CARTESIAN_POINT ( 'NONE',  ( 0.000000000000000000, 0.000000000000000000, -1.649999999999999911 ) ) ;
#783 = VERTEX_POINT ( 'NONE', #331 ) ;
#784 = CARTESIAN_POINT ( 'NONE',  ( -2.100000000000000089, 3.404408906109840149, 0.000000000000000000 ) ) ;
#785 = EDGE_CURVE ( 'NONE', #162, #546, #250, .T. ) ;
#786 = EDGE_CURVE ( 'NONE', #334, #888, #243, .T. ) ;
#787 = DIRECTION ( 'NONE',  ( 0.000000000000000000, 0.000000000000000000, 1.000000000000000000 ) ) ;
#788 = CARTESIAN_POINT ( 'NONE',  ( -8.150000000000000355, -7.000000000000000000, -1.650000000000000355 ) ) ;
#789 = VERTEX_POINT ( 'NONE', #930 ) ;
#790 = VECTOR ( 'NONE', #42, 1000.000000000000000 ) ;
#791 = DIRECTION ( 'NONE',  ( 1.000000000000000000, 0.000000000000000000, 0.000000000000000000 ) ) ;
#792 = AXIS2_PLACEMENT_3D ( 'NONE', #782, #188, #803 ) ;
#793 = DIRECTION ( 'NONE',  ( -1.000000000000000000, 0.000000000000000000, 0.000000000000000000 ) ) ;
#794 = CARTESIAN_POINT ( 'NONE',  ( -7.000000000000000000, -7.000000000000000000, -1.650000000000000355 ) ) ;
#795 = ORIENTED_EDGE ( 'NONE', *, *, #265, .T. ) ;
#796 = DIRECTION ( 'NONE',  ( 0.000000000000000000, 0.000000000000000000, 1.000000000000000000 ) ) ;
#797 = CARTESIAN_POINT ( 'NONE',  ( 0.000000000000000000, 0.000000000000000000, 4.000000000000000000 ) ) ;
#798 = FACE_OUTER_BOUND ( 'NONE', #712, .T. ) ;
#799 = ORIENTED_EDGE ( 'NONE', *, *, #1116, .T. ) ;
#800 = DIRECTION ( 'NONE',  ( 0.000000000000000000, 0.000000000000000000, -1.000000000000000000 ) ) ;
#801 = DIRECTION ( 'NONE',  ( 1.000000000000000000, 0.000000000000000000, 0.000000000000000000 ) ) ;
#802 = DATE_AND_TIME ( #1089, #81 ) ;
#803 = DIRECTION ( 'NONE',  ( 1.000000000000000000, 0.000000000000000000, 0.000000000000000000 ) ) ;
#804 = LINE ( 'NONE', #730, #869 ) ;
#805 = VERTEX_POINT ( 'NONE', #938 ) ;
#806 = DIRECTION ( 'NONE',  ( 1.000000000000000000, 0.000000000000000000, 0.000000000000000000 ) ) ;
#807 = DIRECTION ( 'NONE',  ( 1.000000000000000000, 0.000000000000000000, 0.000000000000000000 ) ) ;
#808 = ADVANCED_FACE ( 'NONE', ( #161 ), #147, .T. ) ;
#809 = VECTOR ( 'NONE', #186, 1000.000000000000000 ) ;
#810 = DATE_TIME_ROLE ( 'classification_date' ) ;
#811 = CIRCLE ( 'NONE', #306, 1.149999999999999911 ) ;
#812 = ORIENTED_EDGE ( 'NONE', *, *, #335, .F. ) ;
#813 = DIRECTION ( 'NONE',  ( 1.000000000000000000, 0.000000000000000000, 0.000000000000000000 ) ) ;
#814 = AXIS2_PLACEMENT_3D ( 'NONE', #794, #877, #454 ) ;
#815 = CARTESIAN_POINT ( 'NONE',  ( 3.404408906109840149, 2.100000000000000089, 0.000000000000000000 ) ) ;
#816 = CIRCLE ( 'NONE', #912, 13.00000000000000000 ) ;
#817 = EDGE_LOOP ( 'NONE', ( #1037, #496, #400, #171 ) ) ;
#818 = DIRECTION ( 'NONE',  ( 1.000000000000000000, 0.000000000000000000, 0.000000000000000000 ) ) ;
#819 = VERTEX_POINT ( 'NONE', #1105 ) ;
#820 = CARTESIAN_POINT ( 'NONE',  ( 8.150000000000000355, 2.100000000000000977, -1.649999999999999911 ) ) ;
#821 = CALENDAR_DATE ( 2026, 12, 9 ) ;
#822 = VERTEX_POINT ( 'NONE', #578 ) ;
#823 = DIRECTION ( 'NONE',  ( 1.000000000000000000, 0.000000000000000000, 0.000000000000000000 ) ) ;
#824 = CARTESIAN_POINT ( 'NONE',  ( 8.150000000000000355, -7.000000000000000000, -1.650000000000000355 ) ) ;
#825 = DIRECTION ( 'NONE',  ( 0.000000000000000000, 0.000000000000000000, -1.000000000000000000 ) ) ;
#826 = EDGE_CURVE ( 'NONE', #990, #878, #540, .T. ) ;
#827 = ORIENTED_EDGE ( 'NONE', *, *, #752, .F. ) ;
#828 = DIRECTION ( 'NONE',  ( 0.000000000000000000, 0.000000000000000000, -1.000000000000000000 ) ) ;
#829 = ADVANCED_FACE ( 'NONE', ( #853 ), #436, .F. ) ;
#830 = CARTESIAN_POINT ( 'NONE',  ( -2.100000000000000089, 3.404408906109840149, 0.000000000000000000 ) ) ;
#831 = CALENDAR_DATE ( 2026, 12, 9 ) ;
#832 = ORIENTED_EDGE ( 'NONE', *, *, #966, .T. ) ;
#833 = AXIS2_PLACEMENT_3D ( 'NONE', #732, #464, #294 ) ;
#834 = DIRECTION ( 'NONE',  ( 0.000000000000000000, 0.000000000000000000, 1.000000000000000000 ) ) ;
#835 = CIRCLE ( 'NONE', #4, 4.000000000000000000 ) ;
#836 = CC_DESIGN_PERSON_AND_ORGANIZATION_ASSIGNMENT ( #121, #37, ( #63 ) ) ;
#837 = LOCAL_TIME ( 21, 59, 4.000000000000000000, #476 ) ;
#838 = ORIENTED_EDGE ( 'NONE', *, *, #241, .F. ) ;
#839 = PLANE ( 'NONE',  #681 ) ;
#840 = ORIENTED_EDGE ( 'NONE', *, *, #995, .F. ) ;
#841 = CARTESIAN_POINT ( 'NONE',  ( -2.100000000000000089, 8.150000000000000355, 0.000000000000000000 ) ) ;
#842 = CARTESIAN_POINT ( 'NONE',  ( 13.00000000000000000, 1.592040838891559095E-15, -1.649999999999999911 ) ) ;
#843 = CARTESIAN_POINT ( 'NONE',  ( 2.100000000000000089, -3.404408906109840149, -1.649999999999999911 ) ) ;
#844 = ORIENTED_EDGE ( 'NONE', *, *, #654, .F. ) ;
#845 = EDGE_LOOP ( 'NONE', ( #203, #643, #1009, #1106 ) ) ;
#846 = FACE_BOUND ( 'NONE', #215, .T. ) ;
#847 = EDGE_CURVE ( 'NONE', #199, #244, #835, .T. ) ;
#848 = VERTEX_POINT ( 'NONE', #582 ) ;
#849 = CIRCLE ( 'NONE', #1014, 4.000000000000000000 ) ;
#850 = AXIS2_PLACEMENT_3D ( 'NONE', #717, #555, #801 ) ;
#851 = VERTEX_POINT ( 'NONE', #157 ) ;
#852 = AXIS2_PLACEMENT_3D ( 'NONE', #297, #1016, #69 ) ;
#853 = FACE_OUTER_BOUND ( 'NONE', #845, .T. ) ;
#854 = CC_DESIGN_APPROVAL ( #427, ( #524 ) ) ;
#855 = EDGE_LOOP ( 'NONE', ( #1039, #908, #276, #170 ) ) ;
#856 = ORIENTED_EDGE ( 'NONE', *, *, #497, .F. ) ;
#857 = LINE ( 'NONE', #760, #608 ) ;
#858 = DIRECTION ( 'NONE',  ( 0.000000000000000000, 0.000000000000000000, 1.000000000000000000 ) ) ;
#859 = DIRECTION ( 'NONE',  ( 1.000000000000000000, 0.000000000000000000, 0.000000000000000000 ) ) ;
#860 = EDGE_CURVE ( 'NONE', #443, #210, #609, .T. ) ;
#861 = CARTESIAN_POINT ( 'NONE',  ( 0.000000000000000000, 0.000000000000000000, 0.000000000000000000 ) ) ;
#862 = EDGE_CURVE ( 'NONE', #819, #758, #509, .T. ) ;
#863 = ORIENTED_EDGE ( 'NONE', *, *, #946, .T. ) ;
#864 = CARTESIAN_POINT ( 'NONE',  ( -7.000000000000000000, -7.000000000000000000, 4.000000000000003553 ) ) ;
#865 = ORIENTED_EDGE ( 'NONE', *, *, #569, .F. ) ;
#866 = DIRECTION ( 'NONE',  ( -0.000000000000000000, -1.000000000000000000, -0.000000000000000000 ) ) ;
#867 = AXIS2_PLACEMENT_3D ( 'NONE', #597, #954, #791 ) ;
#868 = ORIENTED_EDGE ( 'NONE', *, *, #667, .T. ) ;
#869 = VECTOR ( 'NONE', #700, 1000.000000000000000 ) ;
#870 = FACE_OUTER_BOUND ( 'NONE', #567, .T. ) ;
#871 = EDGE_LOOP ( 'NONE', ( #543, #518 ) ) ;
#872 = FACE_OUTER_BOUND ( 'NONE', #588, .T. ) ;
#873 = ADVANCED_FACE ( 'NONE', ( #711 ), #12, .F. ) ;
#874 = ORIENTED_EDGE ( 'NONE', *, *, #1114, .T. ) ;
#875 = DIRECTION ( 'NONE',  ( 1.000000000000000000, 0.000000000000000000, 0.000000000000000000 ) ) ;
#876 = EDGE_CURVE ( 'NONE', #979, #936, #928, .T. ) ;
#877 = DIRECTION ( 'NONE',  ( -0.000000000000000000, -0.000000000000000000, -1.000000000000000000 ) ) ;
#878 = VERTEX_POINT ( 'NONE', #30 ) ;
#879 = CYLINDRICAL_SURFACE ( 'NONE', #469, 13.00000000000000000 ) ;
#880 = CARTESIAN_POINT ( 'NONE',  ( 0.000000000000000000, 0.000000000000000000, 0.000000000000000000 ) ) ;
#881 = CYLINDRICAL_SURFACE ( 'NONE', #757, 1.150000000000000799 ) ;
#882 = DIRECTION ( 'NONE',  ( 0.000000000000000000, 0.000000000000000000, -1.000000000000000000 ) ) ;
#883 = ORIENTED_EDGE ( 'NONE', *, *, #1059, .T. ) ;
#884 = CARTESIAN_POINT ( 'NONE',  ( 0.000000000000000000, 0.000000000000000000, 0.000000000000000000 ) ) ;
#885 = CIRCLE ( 'NONE', #850, 2.100000000000000977 ) ;
#886 = AXIS2_PLACEMENT_3D ( 'NONE', #993, #314, #564 ) ;
#887 = FACE_OUTER_BOUND ( 'NONE', #7, .T. ) ;
#888 = VERTEX_POINT ( 'NONE', #612 ) ;
#889 = CARTESIAN_POINT ( 'NONE',  ( 0.000000000000000000, 0.000000000000000000, -1.649999999999999911 ) ) ;
#890 = LINE ( 'NONE', #904, #394 ) ;
#891 = ADVANCED_FACE ( 'NONE', ( #1060 ), #720, .T. ) ;
#892 = DIRECTION ( 'NONE',  ( -0.000000000000000000, -0.000000000000000000, 1.000000000000000000 ) ) ;
#893 = ORIENTED_EDGE ( 'NONE', *, *, #504, .T. ) ;
#894 = ADVANCED_FACE ( 'NONE', ( #350 ), #362, .T. ) ;
#895 = CARTESIAN_POINT ( 'NONE',  ( 7.000000000000000000, -7.000000000000000000, 4.000000000000003553 ) ) ;
#896 = CARTESIAN_POINT ( 'NONE',  ( -8.150000000000000355, 0.000000000000000000, 0.000000000000000000 ) ) ;
#897 = APPLICATION_PROTOCOL_DEFINITION ( 'international standard', 'config_control_design', 1994, #98 ) ;
#898 = EDGE_LOOP ( 'NONE', ( #940, #1032 ) ) ;
#899 = DIRECTION ( 'NONE',  ( -1.000000000000000000, 0.000000000000000000, 0.000000000000000000 ) ) ;
#900 = ORIENTED_EDGE ( 'NONE', *, *, #876, .F. ) ;
#901 = CC_DESIGN_DATE_AND_TIME_ASSIGNMENT ( #802, #384, ( #780 ) ) ;
#902 = LINE ( 'NONE', #126, #107 ) ;
#903 = ORIENTED_EDGE ( 'NONE', *, *, #786, .T. ) ;
#904 = CARTESIAN_POINT ( 'NONE',  ( 13.00000000000000000, 1.592040838891559095E-15, 4.000000000000000000 ) ) ;
#905 = AXIS2_PLACEMENT_3D ( 'NONE', #659, #1113, #373 ) ;
#906 = APPROVAL_ROLE ( '' ) ;
#907 = AXIS2_PLACEMENT_3D ( 'NONE', #1084, #741, #1092 ) ;
#908 = ORIENTED_EDGE ( 'NONE', *, *, #272, .T. ) ;
#909 = CARTESIAN_POINT ( 'NONE',  ( -7.000000000000000000, -7.000000000000000000, -1.650000000000000355 ) ) ;
#910 = AXIS2_PLACEMENT_3D ( 'NONE', #468, #221, #392 ) ;
#911 = CARTESIAN_POINT ( 'NONE',  ( -2.100000000000000089, -8.150000000000000355, 0.000000000000000000 ) ) ;
#912 = AXIS2_PLACEMENT_3D ( 'NONE', #140, #478, #386 ) ;
#913 = EDGE_CURVE ( 'NONE', #581, #114, #102, .T. ) ;
#914 = DIRECTION ( 'NONE',  ( 1.000000000000000000, 0.000000000000000000, 0.000000000000000000 ) ) ;
#915 = CARTESIAN_POINT ( 'NONE',  ( 2.100000000000000089, 3.404408906109841038, 0.000000000000000000 ) ) ;
#916 = ADVANCED_FACE ( 'NONE', ( #798 ), #204, .T. ) ;
#917 = DIRECTION ( 'NONE',  ( 0.000000000000000000, 0.000000000000000000, 1.000000000000000000 ) ) ;
#918 = ORIENTED_EDGE ( 'NONE', *, *, #367, .T. ) ;
#919 = CARTESIAN_POINT ( 'NONE',  ( 2.100000000000000089, -8.150000000000000355, 0.000000000000000000 ) ) ;
#920 = FACE_OUTER_BOUND ( 'NONE', #955, .T. ) ;
#921 = PERSON_AND_ORGANIZATION_ROLE ( 'classification_officer' ) ;
#922 = ORIENTED_EDGE ( 'NONE', *, *, #847, .F. ) ;
#923 = CARTESIAN_POINT ( 'NONE',  ( -3.404408906109840149, 2.100000000000000089, 0.000000000000000000 ) ) ;
#924 = ORIENTED_EDGE ( 'NONE', *, *, #1073, .T. ) ;
#925 = AXIS2_PLACEMENT_3D ( 'NONE', #1040, #858, #875 ) ;
#926 = DIRECTION ( 'NONE',  ( 1.000000000000000000, 0.000000000000000000, 0.000000000000000000 ) ) ;
#927 = AXIS2_PLACEMENT_3D ( 'NONE', #1038, #177, #95 ) ;
#928 = CIRCLE ( 'NONE', #814, 1.149999999999999911 ) ;
#929 = VERTEX_POINT ( 'NONE', #964 ) ;
#930 = CARTESIAN_POINT ( 'NONE',  ( 8.150000000000000355, -7.000000000000000000, 4.000000000000003553 ) ) ;
#931 = DIRECTION ( 'NONE',  ( 0.000000000000000000, 0.000000000000000000, 1.000000000000000000 ) ) ;
#932 = DIRECTION ( 'NONE',  ( -1.000000000000000000, 0.000000000000000000, -0.000000000000000000 ) ) ;
#933 = EDGE_CURVE ( 'NONE', #244, #570, #631, .T. ) ;
#934 = ORIENTED_EDGE ( 'NONE', *, *, #387, .T. ) ;
#935 = DIRECTION ( 'NONE',  ( -0.000000000000000000, -0.000000000000000000, 1.000000000000000000 ) ) ;
#936 = VERTEX_POINT ( 'NONE', #278 ) ;
#937 = VERTEX_POINT ( 'NONE', #984 ) ;
#938 = CARTESIAN_POINT ( 'NONE',  ( 4.000000000000000000, 4.898587196589412829E-16, 4.000000000000000000 ) ) ;
#939 = FACE_OUTER_BOUND ( 'NONE', #688, .T. ) ;
#940 = ORIENTED_EDGE ( 'NONE', *, *, #206, .F. ) ;
#941 = AXIS2_PLACEMENT_3D ( 'NONE', #884, #388, #1086 ) ;
#942 = AXIS2_PLACEMENT_3D ( 'NONE', #441, #787, #684 ) ;
#943 = EDGE_LOOP ( 'NONE', ( #262, #705, #606, #228 ) ) ;
#944 = UNCERTAINTY_MEASURE_WITH_UNIT (LENGTH_MEASURE( 1.000000000000000082E-05 ), #650, 'distance_accuracy_value', 'NONE');
#945 = CIRCLE ( 'NONE', #322, 1.150000000000000799 ) ;
#946 = EDGE_CURVE ( 'NONE', #937, #679, #431, .T. ) ;
#947 = DIRECTION ( 'NONE',  ( 0.000000000000000000, 0.000000000000000000, 1.000000000000000000 ) ) ;
#948 = APPROVAL_PERSON_ORGANIZATION ( #635, #260, #230 ) ;
#949 = CARTESIAN_POINT ( 'NONE',  ( -3.404408906109840149, 2.100000000000000089, -1.649999999999999911 ) ) ;
#950 = FACE_BOUND ( 'NONE', #627, .T. ) ;
#951 = DIRECTION ( 'NONE',  ( 0.000000000000000000, 0.000000000000000000, -1.000000000000000000 ) ) ;
#952 = EDGE_CURVE ( 'NONE', #325, #1097, #523, .T. ) ;
#953 = ORIENTED_EDGE ( 'NONE', *, *, #1116, .F. ) ;
#954 = DIRECTION ( 'NONE',  ( 0.000000000000000000, 0.000000000000000000, 1.000000000000000000 ) ) ;
#955 = EDGE_LOOP ( 'NONE', ( #769, #589, #433, #132 ) ) ;
#956 = ORIENTED_EDGE ( 'NONE', *, *, #669, .F. ) ;
#957 = CARTESIAN_POINT ( 'NONE',  ( 2.100000000000000089, 3.404408906109840149, -1.649999999999999911 ) ) ;
#958 = FACE_OUTER_BOUND ( 'NONE', #174, .T. ) ;
#959 = ADVANCED_FACE ( 'NONE', ( #887 ), #198, .F. ) ;
#960 = CYLINDRICAL_SURFACE ( 'NONE', #1064, 2.100000000000000977 ) ;
#961 = ORIENTED_EDGE ( 'NONE', *, *, #587, .F. ) ;
#962 = CIRCLE ( 'NONE', #942, 4.000000000000000000 ) ;
#963 = AXIS2_PLACEMENT_3D ( 'NONE', #1049, #449, #823 ) ;
#964 = CARTESIAN_POINT ( 'NONE',  ( 3.404408906109840149, -2.100000000000000089, 0.000000000000000000 ) ) ;
#965 = EDGE_LOOP ( 'NONE', ( #185, #1041, #456, #598 ) ) ;
#966 = EDGE_CURVE ( 'NONE', #851, #596, #967, .T. ) ;
#967 = LINE ( 'NONE', #695, #35 ) ;
#968 = ORIENTED_EDGE ( 'NONE', *, *, #826, .F. ) ;
#969 = DIRECTION ( 'NONE',  ( -0.000000000000000000, -0.000000000000000000, -1.000000000000000000 ) ) ;
#970 = DIRECTION ( 'NONE',  ( -1.000000000000000000, 0.000000000000000000, -0.000000000000000000 ) ) ;
#971 = EDGE_LOOP ( 'NONE', ( #1006, #715, #721, #466 ) ) ;
#972 = CIRCLE ( 'NONE', #266, 4.000000000000000000 ) ;
#973 = EDGE_CURVE ( 'NONE', #614, #477, #713, .T. ) ;
#974 = AXIS2_PLACEMENT_3D ( 'NONE', #880, #617, #537 ) ;
#975 = DIRECTION ( 'NONE',  ( 1.000000000000000000, 0.000000000000000000, 0.000000000000000000 ) ) ;
#976 = VECTOR ( 'NONE', #48, 1000.000000000000000 ) ;
#977 = EDGE_CURVE ( 'NONE', #789, #614, #945, .T. ) ;
#978 = DIRECTION ( 'NONE',  ( 1.000000000000000000, 0.000000000000000000, 0.000000000000000000 ) ) ;
#979 = VERTEX_POINT ( 'NONE', #788 ) ;
#980 = CARTESIAN_POINT ( 'NONE',  ( 0.000000000000000000, 0.000000000000000000, 0.000000000000000000 ) ) ;
#981 = DIRECTION ( 'NONE',  ( -0.000000000000000000, -1.000000000000000000, -0.000000000000000000 ) ) ;
#982 = DATE_AND_TIME ( #821, #36 ) ;
#983 = ORIENTED_EDGE ( 'NONE', *, *, #774, .F. ) ;
#984 = CARTESIAN_POINT ( 'NONE',  ( 8.150000000000000355, -2.100000000000000089, -1.649999999999999911 ) ) ;
#985 = ORIENTED_EDGE ( 'NONE', *, *, #130, .F. ) ;
#986 = CARTESIAN_POINT ( 'NONE',  ( 0.000000000000000000, 8.150000000000000355, 0.000000000000000000 ) ) ;
#987 = LINE ( 'NONE', #458, #663 ) ;
#988 = DIRECTION ( 'NONE',  ( -1.000000000000000000, 0.000000000000000000, 0.000000000000000000 ) ) ;
#989 = PERSON_AND_ORGANIZATION_ROLE ( 'design_supplier' ) ;
#990 = VERTEX_POINT ( 'NONE', #704 ) ;
#991 = LINE ( 'NONE', #39, #719 ) ;
#992 = EDGE_CURVE ( 'NONE', #615, #500, #60, .T. ) ;
#993 = CARTESIAN_POINT ( 'NONE',  ( 0.000000000000000000, 8.150000000000000355, -1.649999999999999911 ) ) ;
#994 = CARTESIAN_POINT ( 'NONE',  ( 7.000000000000000000, -7.000000000000000000, 4.000000000000003553 ) ) ;
#995 = EDGE_CURVE ( 'NONE', #929, #124, #744, .T. ) ;
#996 = VERTEX_POINT ( 'NONE', #318 ) ;
#997 = PLANE ( 'NONE',  #339 ) ;
#998 = VECTOR ( 'NONE', #112, 1000.000000000000000 ) ;
#999 = AXIS2_PLACEMENT_3D ( 'NONE', #797, #931, #859 ) ;
#1000 = ORIENTED_EDGE ( 'NONE', *, *, #1042, .F. ) ;
#1001 = VECTOR ( 'NONE', #935, 1000.000000000000000 ) ;
#1002 = CYLINDRICAL_SURFACE ( 'NONE', #910, 1.150000000000000799 ) ;
#1003 = PLANE ( 'NONE',  #448 ) ;
#1004 = CC_DESIGN_PERSON_AND_ORGANIZATION_ASSIGNMENT ( #725, #989, ( #63 ) ) ;
#1005 = COORDINATED_UNIVERSAL_TIME_OFFSET ( 6, 0, .BEHIND. ) ;
#1006 = ORIENTED_EDGE ( 'NONE', *, *, #1114, .F. ) ;
#1007 = DIRECTION ( 'NONE',  ( 1.000000000000000000, 0.000000000000000000, 0.000000000000000000 ) ) ;
#1008 = DIRECTION ( 'NONE',  ( -1.000000000000000000, -0.000000000000000000, -0.000000000000000000 ) ) ;
#1009 = ORIENTED_EDGE ( 'NONE', *, *, #539, .T. ) ;
#1010 = ORIENTED_EDGE ( 'NONE', *, *, #206, .T. ) ;
#1011 = DIRECTION ( 'NONE',  ( 0.000000000000000000, 0.000000000000000000, 1.000000000000000000 ) ) ;
#1012 = EDGE_CURVE ( 'NONE', #822, #929, #495, .T. ) ;
#1013 = DIRECTION ( 'NONE',  ( -1.000000000000000000, 0.000000000000000000, 0.000000000000000000 ) ) ;
#1014 = AXIS2_PLACEMENT_3D ( 'NONE', #889, #722, #806 ) ;
#1015 = VECTOR ( 'NONE', #981, 1000.000000000000000 ) ;
#1016 = DIRECTION ( 'NONE',  ( 0.000000000000000000, 0.000000000000000000, 1.000000000000000000 ) ) ;
#1017 = ADVANCED_FACE ( 'NONE', ( #486 ), #1002, .F. ) ;
#1018 = AXIS2_PLACEMENT_3D ( 'NONE', #239, #750, #1101 ) ;
#1019 = DIRECTION ( 'NONE',  ( 1.000000000000000000, 0.000000000000000000, -0.000000000000000000 ) ) ;
#1020 = DIRECTION ( 'NONE',  ( 0.000000000000000000, 0.000000000000000000, 1.000000000000000000 ) ) ;
#1021 = EDGE_LOOP ( 'NONE', ( #856, #309, #838, #97, #1070, #189 ) ) ;
#1022 = LINE ( 'NONE', #404, #415 ) ;
#1023 = FACE_OUTER_BOUND ( 'NONE', #1057, .T. ) ;
#1024 = ADVANCED_FACE ( 'NONE', ( #736 ), #144, .T. ) ;
#1025 = ORIENTED_EDGE ( 'NONE', *, *, #175, .T. ) ;
#1026 = CARTESIAN_POINT ( 'NONE',  ( -5.850000000000000533, 7.000000000000000000, 4.000000000000003553 ) ) ;
#1027 = ADVANCED_FACE ( 'NONE', ( #580 ), #212, .T. ) ;
#1028 = DIRECTION ( 'NONE',  ( 1.000000000000000000, 0.000000000000000000, 0.000000000000000000 ) ) ;
#1029 = ORIENTED_EDGE ( 'NONE', *, *, #785, .T. ) ;
#1030 = VECTOR ( 'NONE', #346, 1000.000000000000000 ) ;
#1031 = CIRCLE ( 'NONE', #542, 2.100000000000000089 ) ;
#1032 = ORIENTED_EDGE ( 'NONE', *, *, #977, .F. ) ;
#1033 = ORGANIZATION ( 'UNSPECIFIED', 'UNSPECIFIED', '' ) ;
#1034 = CYLINDRICAL_SURFACE ( 'NONE', #146, 2.100000000000000977 ) ;
#1035 = EDGE_LOOP ( 'NONE', ( #519, #237, #73, #748, #242, #956, #313, #1061, #1000, #734, #516, #985 ) ) ;
#1036 = CARTESIAN_POINT ( 'NONE',  ( -7.000000000000000000, -7.000000000000000000, 4.000000000000003553 ) ) ;
#1037 = ORIENTED_EDGE ( 'NONE', *, *, #94, .F. ) ;
#1038 = CARTESIAN_POINT ( 'NONE',  ( 0.000000000000000000, -8.150000000000000355, 0.000000000000000000 ) ) ;
#1039 = ORIENTED_EDGE ( 'NONE', *, *, #440, .T. ) ;
#1040 = CARTESIAN_POINT ( 'NONE',  ( -8.150000000000000355, 0.000000000000000000, 0.000000000000000000 ) ) ;
#1041 = ORIENTED_EDGE ( 'NONE', *, *, #536, .T. ) ;
#1042 = EDGE_CURVE ( 'NONE', #765, #376, #560, .T. ) ;
#1043 = CARTESIAN_POINT ( 'NONE',  ( 5.849999999999999645, -7.000000000000000000, 4.000000000000003553 ) ) ;
#1044 = ORIENTED_EDGE ( 'NONE', *, *, #686, .F. ) ;
#1045 = VECTOR ( 'NONE', #254, 1000.000000000000000 ) ;
#1046 = DIRECTION ( 'NONE',  ( 0.000000000000000000, 0.000000000000000000, -1.000000000000000000 ) ) ;
#1047 = AXIS2_PLACEMENT_3D ( 'NONE', #911, #1104, #749 ) ;
#1048 = FACE_OUTER_BOUND ( 'NONE', #817, .T. ) ;
#1049 = CARTESIAN_POINT ( 'NONE',  ( 0.000000000000000000, 0.000000000000000000, 0.000000000000000000 ) ) ;
#1050 = ORIENTED_EDGE ( 'NONE', *, *, #265, .F. ) ;
#1051 = LINE ( 'NONE', #455, #590 ) ;
#1052 = EDGE_LOOP ( 'NONE', ( #330, #1117, #279, #632, #345, #359, #777, #1111, #295, #922, #379, #220 ) ) ;
#1053 = CARTESIAN_POINT ( 'NONE',  ( 5.849999999999999645, 7.000000000000000000, -1.650000000000000355 ) ) ;
#1054 = CARTESIAN_POINT ( 'NONE',  ( -8.150000000000000355, 2.100000000000000089, 0.000000000000000000 ) ) ;
#1055 = DIRECTION ( 'NONE',  ( -0.000000000000000000, -0.000000000000000000, -1.000000000000000000 ) ) ;
#1056 = EDGE_CURVE ( 'NONE', #570, #848, #232, .T. ) ;
#1057 = EDGE_LOOP ( 'NONE', ( #683, #118, #656, #226 ) ) ;
#1058 = CARTESIAN_POINT ( 'NONE',  ( -5.850000000000000533, 7.000000000000000000, -1.650000000000000355 ) ) ;
#1059 = EDGE_CURVE ( 'NONE', #596, #199, #227, .T. ) ;
#1060 = FACE_OUTER_BOUND ( 'NONE', #855, .T. ) ;
#1061 = ORIENTED_EDGE ( 'NONE', *, *, #728, .F. ) ;
#1062 = AXIS2_PLACEMENT_3D ( 'NONE', #190, #360, #49 ) ;
#1063 = LINE ( 'NONE', #1071, #998 ) ;
#1064 = AXIS2_PLACEMENT_3D ( 'NONE', #101, #781, #342 ) ;
#1065 = CARTESIAN_POINT ( 'NONE',  ( 0.000000000000000000, 8.150000000000000355, 0.000000000000000000 ) ) ;
#1066 = VECTOR ( 'NONE', #892, 1000.000000000000000 ) ;
#1067 = APPROVAL_PERSON_ORGANIZATION ( #375, #427, #906 ) ;
#1068 = APPROVAL_ROLE ( '' ) ;
#1069 = CARTESIAN_POINT ( 'NONE',  ( -2.100000000000000089, -8.150000000000000355, 0.000000000000000000 ) ) ;
#1070 = ORIENTED_EDGE ( 'NONE', *, *, #52, .T. ) ;
#1071 = CARTESIAN_POINT ( 'NONE',  ( -13.00000000000000000, 0.000000000000000000, 4.000000000000000000 ) ) ;
#1072 = LINE ( 'NONE', #208, #321 ) ;
#1073 = EDGE_CURVE ( 'NONE', #233, #428, #19, .T. ) ;
#1074 = MECHANICAL_CONTEXT ( 'NONE', #361, 'mechanical' ) ;
#1075 = ORIENTED_EDGE ( 'NONE', *, *, #348, .T. ) ;
#1076 = CARTESIAN_POINT ( 'NONE',  ( -8.150000000000000355, -2.100000000000000089, -1.649999999999999911 ) ) ;
#1077 = CARTESIAN_POINT ( 'NONE',  ( 0.000000000000000000, -8.150000000000000355, -1.649999999999999911 ) ) ;
#1078 = EDGE_CURVE ( 'NONE', #85, #162, #1090, .T. ) ;
#1079 = DIRECTION ( 'NONE',  ( 0.000000000000000000, 0.000000000000000000, 1.000000000000000000 ) ) ;
#1080 = EDGE_LOOP ( 'NONE', ( #22, #968 ) ) ;
#1081 = CYLINDRICAL_SURFACE ( 'NONE', #538, 2.100000000000000089 ) ;
#1082 = CALENDAR_DATE ( 2026, 12, 9 ) ;
#1083 = VERTEX_POINT ( 'NONE', #841 ) ;
#1084 = CARTESIAN_POINT ( 'NONE',  ( -7.000000000000000000, 7.000000000000000000, -1.650000000000000355 ) ) ;
#1085 = CARTESIAN_POINT ( 'NONE',  ( -4.000000000000000000, 0.000000000000000000, 4.000000000000000000 ) ) ;
#1086 = DIRECTION ( 'NONE',  ( 1.000000000000000000, 0.000000000000000000, 0.000000000000000000 ) ) ;
#1087 = FACE_OUTER_BOUND ( 'NONE', #351, .T. ) ;
#1088 = AXIS2_PLACEMENT_3D ( 'NONE', #986, #480, #975 ) ;
#1089 = CALENDAR_DATE ( 2026, 12, 9 ) ;
#1090 = CIRCLE ( 'NONE', #1093, 2.100000000000000089 ) ;
#1091 = ORIENTED_EDGE ( 'NONE', *, *, #422, .F. ) ;
#1092 = DIRECTION ( 'NONE',  ( 1.000000000000000000, 0.000000000000000000, 0.000000000000000000 ) ) ;
#1093 = AXIS2_PLACEMENT_3D ( 'NONE', #729, #834, #1007 ) ;
#1094 = CARTESIAN_POINT ( 'NONE',  ( 0.000000000000000000, 0.000000000000000000, 4.000000000000000000 ) ) ;
#1095 = CARTESIAN_POINT ( 'NONE',  ( -7.000000000000000000, -7.000000000000000000, 4.000000000000003553 ) ) ;
#1096 = PERSON_AND_ORGANIZATION_ROLE ( 'design_owner' ) ;
#1097 = VERTEX_POINT ( 'NONE', #638 ) ;
#1098 = LINE ( 'NONE', #483, #592 ) ;
#1099 = EDGE_CURVE ( 'NONE', #851, #679, #1098, .T. ) ;
#1100 = ORIENTED_EDGE ( 'NONE', *, *, #348, .F. ) ;
#1101 = DIRECTION ( 'NONE',  ( -1.000000000000000000, 0.000000000000000000, -0.000000000000000000 ) ) ;
#1102 = EDGE_CURVE ( 'NONE', #462, #443, #745, .T. ) ;
#1103 = ORIENTED_EDGE ( 'NONE', *, *, #78, .T. ) ;
#1104 = DIRECTION ( 'NONE',  ( 1.000000000000000000, -0.000000000000000000, 0.000000000000000000 ) ) ;
#1105 = CARTESIAN_POINT ( 'NONE',  ( -13.00000000000000000, 0.000000000000000000, -1.649999999999999911 ) ) ;
#1106 = ORIENTED_EDGE ( 'NONE', *, *, #288, .F. ) ;
#1107 = AXIS2_PLACEMENT_3D ( 'NONE', #408, #405, #338 ) ;
#1108 = APPROVAL ( #308, 'UNSPECIFIED' ) ;
#1109 = VECTOR ( 'NONE', #1028, 1000.000000000000000 ) ;
#1110 = AXIS2_PLACEMENT_3D ( 'NONE', #234, #86, #506 ) ;
#1111 = ORIENTED_EDGE ( 'NONE', *, *, #472, .F. ) ;
#1112 = FACE_BOUND ( 'NONE', #898, .T. ) ;
#1113 = DIRECTION ( 'NONE',  ( 0.000000000000000000, 0.000000000000000000, 1.000000000000000000 ) ) ;
#1114 = EDGE_CURVE ( 'NONE', #114, #231, #1031, .T. ) ;
#1115 = ORIENTED_EDGE ( 'NONE', *, *, #551, .F. ) ;
#1116 = EDGE_CURVE ( 'NONE', #758, #819, #816, .T. ) ;
#1117 = ORIENTED_EDGE ( 'NONE', *, *, #158, .T. ) ;
#1118 = DIRECTION ( 'NONE',  ( 0.000000000000000000, -1.000000000000000000, 0.000000000000000000 ) ) ;
#1119 = ORIENTED_EDGE ( 'NONE', *, *, #1099, .T. ) ;
#1120 = CC_DESIGN_DATE_AND_TIME_ASSIGNMENT ( #982, #810, ( #524 ) ) ;
#1121 = EDGE_LOOP ( 'NONE', ( #395, #865 ) ) ;
#1122 = DIRECTION ( 'NONE',  ( 0.000000000000000000, 0.000000000000000000, -1.000000000000000000 ) ) ;
#1123 = DIRECTION ( 'NONE',  ( 1.000000000000000000, 0.000000000000000000, 0.000000000000000000 ) ) ;
#1124 = VERTEX_POINT ( 'NONE', #1085 ) ;
ENDSEC;
END-ISO-10303-21;
