ISO-10303-21;
HEADER;
FILE_DESCRIPTION (( 'STEP AP203' ),
    '1' );
FILE_NAME ('FIT-004_SG90_spline_socket_trial.step',
    '2026-09-29T00:09:12',
    ( '' ),
    ( '' ),
    'SwSTEP 2.0',
    'SolidWorks 2026',
    '' );
FILE_SCHEMA (( 'CONFIG_CONTROL_DESIGN' ));
ENDSEC;

DATA;
#1 = CARTESIAN_POINT ( 'NONE',  ( -6.000000000000000000, 0.000000000000000000, 2.500000000000000000 ) ) ;
#2 = FACE_BOUND ( 'NONE', #111, .T. ) ;
#3 = CC_DESIGN_DATE_AND_TIME_ASSIGNMENT ( #22, #169, ( #206 ) ) ;
#4 = APPROVAL_DATE_TIME ( #643, #385 ) ;
#5 = CIRCLE ( 'NONE', #462, 2.325000000000000622 ) ;
#6 = VECTOR ( 'NONE', #822, 1000.000000000000000 ) ;
#7 = VERTEX_POINT ( 'NONE', #256 ) ;
#8 = DIRECTION ( 'NONE',  ( 1.000000000000000000, 0.000000000000000000, 0.000000000000000000 ) ) ;
#9 = PLANE ( 'NONE',  #259 ) ;
#10 = VERTEX_POINT ( 'NONE', #35 ) ;
#11 = ADVANCED_FACE ( 'NONE', ( #761 ), #392, .F. ) ;
#12 = VECTOR ( 'NONE', #863, 1000.000000000000000 ) ;
#13 = PLANE ( 'NONE',  #495 ) ;
#14 = ORIENTED_EDGE ( 'NONE', *, *, #305, .F. ) ;
#15 = DIRECTION ( 'NONE',  ( 0.000000000000000000, 0.000000000000000000, 1.000000000000000000 ) ) ;
#16 = FACE_BOUND ( 'NONE', #156, .T. ) ;
#17 = ORIENTED_EDGE ( 'NONE', *, *, #637, .T. ) ;
#18 = AXIS2_PLACEMENT_3D ( 'NONE', #182, #110, #659 ) ;
#19 = EDGE_LOOP ( 'NONE', ( #622, #440, #629, #190 ) ) ;
#20 = CIRCLE ( 'NONE', #146, 1.199999999999999734 ) ;
#21 = MANIFOLD_SOLID_BREP ( 'Orientation_mark_at_smallest_socket', #667 ) ;
#22 = DATE_AND_TIME ( #812, #798 ) ;
#23 = CARTESIAN_POINT ( 'NONE',  ( -16.80000000000000071, 1.469576158976823306E-16, 3.700000000000001954 ) ) ;
#24 = LINE ( 'NONE', #458, #447 ) ;
#25 = VECTOR ( 'NONE', #858, 1000.000000000000000 ) ;
#26 = VERTEX_POINT ( 'NONE', #459 ) ;
#27 = EDGE_CURVE ( 'NONE', #370, #626, #607, .T. ) ;
#28 = PERSON_AND_ORGANIZATION ( #736, #215 ) ;
#29 = FACE_OUTER_BOUND ( 'NONE', #393, .T. ) ;
#30 = APPLICATION_CONTEXT ( 'configuration controlled 3d designs of mechanical parts and assemblies' ) ;
#31 = ADVANCED_FACE ( 'NONE', ( #903 ), #404, .F. ) ;
#32 = VECTOR ( 'NONE', #692, 1000.000000000000000 ) ;
#33 = DIRECTION ( 'NONE',  ( 1.000000000000000000, 0.000000000000000000, 0.000000000000000000 ) ) ;
#34 = CARTESIAN_POINT ( 'NONE',  ( -27.00000000000000000, -6.000000000000000000, 3.700000000000002842 ) ) ;
#35 = CARTESIAN_POINT ( 'NONE',  ( -20.32499999999999929, 0.000000000000000000, 0.000000000000000000 ) ) ;
#36 = VECTOR ( 'NONE', #416, 1000.000000000000000 ) ;
#37 = EDGE_CURVE ( 'NONE', #59, #10, #98, .T. ) ;
#38 = CARTESIAN_POINT ( 'NONE',  ( 4.800000000000000711, 0.000000000000000000, 2.500000000000000000 ) ) ;
#39 = DIRECTION ( 'NONE',  ( 1.000000000000000000, 0.000000000000000000, 0.000000000000000000 ) ) ;
#40 = ORIENTED_EDGE ( 'NONE', *, *, #394, .F. ) ;
#41 = VERTEX_POINT ( 'NONE', #123 ) ;
#42 = CIRCLE ( 'NONE', #821, 2.375000000000000000 ) ;
#43 = CARTESIAN_POINT ( 'NONE',  ( 18.00000000000000000, 0.000000000000000000, 3.700000000000001954 ) ) ;
#44 = CARTESIAN_POINT ( 'NONE',  ( 18.00000000000000000, 0.000000000000000000, 2.500000000000000000 ) ) ;
#45 = CARTESIAN_POINT ( 'NONE',  ( 27.00000000000000000, -6.000000000000000000, 3.700000000000002842 ) ) ;
#46 = CARTESIAN_POINT ( 'NONE',  ( 18.00000000000000000, 0.000000000000000000, 2.500000000000000000 ) ) ;
#47 = ORIENTED_EDGE ( 'NONE', *, *, #808, .F. ) ;
#48 = ORIENTED_EDGE ( 'NONE', *, *, #246, .T. ) ;
#49 = DIRECTION ( 'NONE',  ( 0.000000000000000000, 0.000000000000000000, -1.000000000000000000 ) ) ;
#50 = CIRCLE ( 'NONE', #184, 1.199999999999999734 ) ;
#51 = DIRECTION ( 'NONE',  ( 0.000000000000000000, 0.000000000000000000, 1.000000000000000000 ) ) ;
#52 = CIRCLE ( 'NONE', #902, 2.425000000000000266 ) ;
#53 = FACE_OUTER_BOUND ( 'NONE', #414, .T. ) ;
#54 = CARTESIAN_POINT ( 'NONE',  ( -3.625000000000000000, 2.908536147974963713E-16, 0.000000000000000000 ) ) ;
#55 = ADVANCED_FACE ( 'NONE', ( #53 ), #339, .F. ) ;
#56 = VERTEX_POINT ( 'NONE', #60 ) ;
#57 = EDGE_LOOP ( 'NONE', ( #142, #47, #539, #159 ) ) ;
#58 = DIRECTION ( 'NONE',  ( 0.000000000000000000, 0.000000000000000000, -1.000000000000000000 ) ) ;
#59 = VERTEX_POINT ( 'NONE', #785 ) ;
#60 = CARTESIAN_POINT ( 'NONE',  ( 15.52499999999999680, 0.000000000000000000, 2.500000000000000000 ) ) ;
#61 = ORIENTED_EDGE ( 'NONE', *, *, #815, .T. ) ;
#62 = CARTESIAN_POINT ( 'NONE',  ( -27.00000000000000000, 6.000000000000000000, 3.700000000000002842 ) ) ;
#63 = DIRECTION ( 'NONE',  ( 0.000000000000000000, 0.000000000000000000, -1.000000000000000000 ) ) ;
#64 = ORIENTED_EDGE ( 'NONE', *, *, #647, .F. ) ;
#65 = FACE_BOUND ( 'NONE', #872, .T. ) ;
#66 = AXIS2_PLACEMENT_3D ( 'NONE', #243, #97, #744 ) ;
#67 = CARTESIAN_POINT ( 'NONE',  ( -24.25000000000000000, 4.000000000000000000, 0.000000000000000000 ) ) ;
#68 = AXIS2_PLACEMENT_3D ( 'NONE', #907, #387, #254 ) ;
#69 = ORIENTED_EDGE ( 'NONE', *, *, #237, .T. ) ;
#70 = DIRECTION ( 'NONE',  ( 0.000000000000000000, 0.000000000000000000, -1.000000000000000000 ) ) ;
#71 = VECTOR ( 'NONE', #534, 1000.000000000000000 ) ;
#72 = EDGE_CURVE ( 'NONE', #389, #418, #837, .T. ) ;
#73 = DIRECTION ( 'NONE',  ( 0.000000000000000000, 0.000000000000000000, -1.000000000000000000 ) ) ;
#74 = CYLINDRICAL_SURFACE ( 'NONE', #678, 1.199999999999999734 ) ;
#75 = CARTESIAN_POINT ( 'NONE',  ( -24.25000000000000000, 4.000000000000000000, 3.700000000000001954 ) ) ;
#76 = LOCAL_TIME ( 19, 9, 12.00000000000000000, #310 ) ;
#77 = DIRECTION ( 'NONE',  ( 0.000000000000000000, 0.000000000000000000, -1.000000000000000000 ) ) ;
#78 = SECURITY_CLASSIFICATION_LEVEL ( 'unclassified' ) ;
#79 = ORIENTED_EDGE ( 'NONE', *, *, #305, .T. ) ;
#80 = CARTESIAN_POINT ( 'NONE',  ( -6.000000000000000000, 0.000000000000000000, 2.500000000000000000 ) ) ;
#81 = CYLINDRICAL_SURFACE ( 'NONE', #522, 0.7500000000000006661 ) ;
#82 = MECHANICAL_CONTEXT ( 'NONE', #628, 'mechanical' ) ;
#83 = EDGE_CURVE ( 'NONE', #909, #491, #500, .T. ) ;
#84 = ORIENTED_EDGE ( 'NONE', *, *, #330, .F. ) ;
#85 = DESIGN_CONTEXT ( 'detailed design', #30, 'design' ) ;
#86 = FACE_OUTER_BOUND ( 'NONE', #877, .T. ) ;
#87 = CARTESIAN_POINT ( 'NONE',  ( 6.000000000000000000, 0.000000000000000000, 0.000000000000000000 ) ) ;
#88 = CARTESIAN_POINT ( 'NONE',  ( -6.000000000000000000, 0.000000000000000000, 3.700000000000001954 ) ) ;
#89 = CARTESIAN_POINT ( 'NONE',  ( 18.00000000000000000, 0.000000000000000000, 3.700000000000001954 ) ) ;
#90 = EDGE_LOOP ( 'NONE', ( #526, #485, #167, #249 ) ) ;
#91 = EDGE_CURVE ( 'NONE', #278, #544, #140, .T. ) ;
#92 = FACE_OUTER_BOUND ( 'NONE', #90, .T. ) ;
#93 = AXIS2_PLACEMENT_3D ( 'NONE', #509, #727, #154 ) ;
#94 = AXIS2_PLACEMENT_3D ( 'NONE', #338, #908, #768 ) ;
#95 = ADVANCED_FACE ( 'NONE', ( #189 ), #775, .F. ) ;
#96 = DATE_TIME_ROLE ( 'classification_date' ) ;
#97 = DIRECTION ( 'NONE',  ( 0.000000000000000000, 1.000000000000000000, 0.000000000000000000 ) ) ;
#98 = CIRCLE ( 'NONE', #621, 2.325000000000000622 ) ;
#99 = CARTESIAN_POINT ( 'NONE',  ( -8.375000000000000000, 0.000000000000000000, 0.000000000000000000 ) ) ;
#100 = AXIS2_PLACEMENT_3D ( 'NONE', #382, #800, #356 ) ;
#101 = ORIENTED_EDGE ( 'NONE', *, *, #232, .T. ) ;
#102 = EDGE_CURVE ( 'NONE', #56, #233, #910, .T. ) ;
#103 = ORIENTED_EDGE ( 'NONE', *, *, #129, .T. ) ;
#104 = CARTESIAN_POINT ( 'NONE',  ( 8.425000000000000711, 2.969768487932331484E-16, 0.000000000000000000 ) ) ;
#105 = DIRECTION ( 'NONE',  ( -0.000000000000000000, -0.000000000000000000, -1.000000000000000000 ) ) ;
#106 = EDGE_LOOP ( 'NONE', ( #514, #849, #253, #598 ) ) ;
#107 = EDGE_CURVE ( 'NONE', #544, #211, #560, .T. ) ;
#108 = AXIS2_PLACEMENT_3D ( 'NONE', #247, #665, #166 ) ;
#109 = CARTESIAN_POINT ( 'NONE',  ( 27.00000000000000000, -6.000000000000000000, 0.000000000000000000 ) ) ;
#110 = DIRECTION ( 'NONE',  ( 0.000000000000000000, 0.000000000000000000, -1.000000000000000000 ) ) ;
#111 = EDGE_LOOP ( 'NONE', ( #118, #14 ) ) ;
#112 = VECTOR ( 'NONE', #340, 1000.000000000000000 ) ;
#113 = ORIENTED_EDGE ( 'NONE', *, *, #831, .F. ) ;
#114 = DIRECTION ( 'NONE',  ( 1.000000000000000000, 0.000000000000000000, 0.000000000000000000 ) ) ;
#115 = CARTESIAN_POINT ( 'NONE',  ( 18.00000000000000000, 0.000000000000000000, 2.500000000000000000 ) ) ;
#116 = VERTEX_POINT ( 'NONE', #54 ) ;
#117 = DIRECTION ( 'NONE',  ( 1.000000000000000000, 0.000000000000000000, -0.000000000000000000 ) ) ;
#118 = ORIENTED_EDGE ( 'NONE', *, *, #663, .F. ) ;
#119 = AXIS2_PLACEMENT_3D ( 'NONE', #304, #15, #582 ) ;
#120 = VERTEX_POINT ( 'NONE', #486 ) ;
#121 = CARTESIAN_POINT ( 'NONE',  ( 20.47500000000000142, 3.031000827889701228E-16, 2.500000000000000000 ) ) ;
#122 = DIRECTION ( 'NONE',  ( -0.000000000000000000, -1.000000000000000000, -0.000000000000000000 ) ) ;
#123 = CARTESIAN_POINT ( 'NONE',  ( 19.19999999999999929, 1.469576158976823306E-16, 2.500000000000000000 ) ) ;
#124 = DIRECTION ( 'NONE',  ( 0.000000000000000000, 0.000000000000000000, 1.000000000000000000 ) ) ;
#125 = EDGE_LOOP ( 'NONE', ( #542, #838, #554, #833 ) ) ;
#126 = ORIENTED_EDGE ( 'NONE', *, *, #675, .T. ) ;
#127 = CARTESIAN_POINT ( 'NONE',  ( -27.00000000000000000, 6.000000000000000000, 3.700000000000002842 ) ) ;
#128 = VECTOR ( 'NONE', #741, 1000.000000000000000 ) ;
#129 = EDGE_CURVE ( 'NONE', #211, #544, #161, .T. ) ;
#130 = AXIS2_PLACEMENT_3D ( 'NONE', #479, #219, #496 ) ;
#131 = CARTESIAN_POINT ( 'NONE',  ( -6.000000000000000000, 0.000000000000000000, 2.500000000000000000 ) ) ;
#132 = PLANE ( 'NONE',  #571 ) ;
#133 = EDGE_LOOP ( 'NONE', ( #333, #656 ) ) ;
#134 = CARTESIAN_POINT ( 'NONE',  ( -6.000000000000000000, 0.000000000000000000, 0.000000000000000000 ) ) ;
#135 = EDGE_CURVE ( 'NONE', #905, #889, #770, .T. ) ;
#136 = DIRECTION ( 'NONE',  ( -1.000000000000000000, 0.000000000000000000, 0.000000000000000000 ) ) ;
#137 = AXIS2_PLACEMENT_3D ( 'NONE', #423, #288, #783 ) ;
#138 = EDGE_LOOP ( 'NONE', ( #260, #476, #504, #400 ) ) ;
#139 = FACE_BOUND ( 'NONE', #661, .T. ) ;
#140 = LINE ( 'NONE', #204, #512 ) ;
#141 = EDGE_CURVE ( 'NONE', #746, #26, #420, .T. ) ;
#142 = ORIENTED_EDGE ( 'NONE', *, *, #693, .T. ) ;
#143 = DIRECTION ( 'NONE',  ( -1.000000000000000000, 0.000000000000000000, 0.000000000000000000 ) ) ;
#144 = CIRCLE ( 'NONE', #615, 1.199999999999999734 ) ;
#145 = DIRECTION ( 'NONE',  ( 1.000000000000000000, 0.000000000000000000, -0.000000000000000000 ) ) ;
#146 = AXIS2_PLACEMENT_3D ( 'NONE', #773, #845, #401 ) ;
#147 = DIRECTION ( 'NONE',  ( -1.000000000000000000, 0.000000000000000000, -0.000000000000000000 ) ) ;
#148 = FACE_OUTER_BOUND ( 'NONE', #138, .T. ) ;
#149 = PERSON_AND_ORGANIZATION ( #736, #215 ) ;
#150 = EDGE_LOOP ( 'NONE', ( #454, #911 ) ) ;
#151 = VECTOR ( 'NONE', #492, 1000.000000000000000 ) ;
#152 = CARTESIAN_POINT ( 'NONE',  ( -25.00000000000000000, 4.000000000000000000, 3.700000000000001954 ) ) ;
#153 = EDGE_CURVE ( 'NONE', #343, #268, #878, .T. ) ;
#154 = DIRECTION ( 'NONE',  ( 1.000000000000000000, 0.000000000000000000, -0.000000000000000000 ) ) ;
#155 = DATE_AND_TIME ( #795, #199 ) ;
#156 = EDGE_LOOP ( 'NONE', ( #84, #779 ) ) ;
#157 = FACE_BOUND ( 'NONE', #913, .T. ) ;
#158 = CIRCLE ( 'NONE', #650, 1.199999999999999734 ) ;
#159 = ORIENTED_EDGE ( 'NONE', *, *, #852, .T. ) ;
#160 = CYLINDRICAL_SURFACE ( 'NONE', #179, 1.199999999999999734 ) ;
#161 = CIRCLE ( 'NONE', #283, 0.7500000000000006661 ) ;
#162 = LINE ( 'NONE', #498, #281 ) ;
#163 = ORIENTED_EDGE ( 'NONE', *, *, #449, .T. ) ;
#164 =( LENGTH_UNIT ( ) NAMED_UNIT ( * ) SI_UNIT ( .MILLI., .METRE. ) );
#165 = SECURITY_CLASSIFICATION ( '', '', #78 ) ;
#166 = DIRECTION ( 'NONE',  ( -1.000000000000000000, 0.000000000000000000, 0.000000000000000000 ) ) ;
#167 = ORIENTED_EDGE ( 'NONE', *, *, #870, .T. ) ;
#168 = EDGE_CURVE ( 'NONE', #829, #278, #758, .T. ) ;
#169 = DATE_TIME_ROLE ( 'creation_date' ) ;
#170 = DIRECTION ( 'NONE',  ( 1.000000000000000000, 0.000000000000000000, 0.000000000000000000 ) ) ;
#171 = ADVANCED_BREP_SHAPE_REPRESENTATION ( 'FIT-004_SG90_spline_socket_trial', ( #21, #100 ), #287 ) ;
#172 = CIRCLE ( 'NONE', #696, 2.475000000000001421 ) ;
#173 = PERSON_AND_ORGANIZATION ( #736, #215 ) ;
#174 = CYLINDRICAL_SURFACE ( 'NONE', #108, 1.199999999999999734 ) ;
#175 = ORIENTED_EDGE ( 'NONE', *, *, #520, .F. ) ;
#176 = COORDINATED_UNIVERSAL_TIME_OFFSET ( 6, 0, .BEHIND. ) ;
#177 = CARTESIAN_POINT ( 'NONE',  ( 6.000000000000000000, 0.000000000000000000, 2.500000000000000000 ) ) ;
#178 = ADVANCED_FACE ( 'NONE', ( #398, #853 ), #132, .F. ) ;
#179 = AXIS2_PLACEMENT_3D ( 'NONE', #88, #368, #442 ) ;
#180 = ORIENTED_EDGE ( 'NONE', *, *, #455, .T. ) ;
#181 = LINE ( 'NONE', #127, #377 ) ;
#182 = CARTESIAN_POINT ( 'NONE',  ( -6.000000000000000000, 0.000000000000000000, 2.500000000000000000 ) ) ;
#183 = DIRECTION ( 'NONE',  ( -1.000000000000000000, 0.000000000000000000, 0.000000000000000000 ) ) ;
#184 = AXIS2_PLACEMENT_3D ( 'NONE', #891, #105, #518 ) ;
#185 = CIRCLE ( 'NONE', #739, 1.199999999999999734 ) ;
#186 = CARTESIAN_POINT ( 'NONE',  ( 6.000000000000000000, 0.000000000000000000, 0.000000000000000000 ) ) ;
#187 = LINE ( 'NONE', #465, #790 ) ;
#188 = ORIENTED_EDGE ( 'NONE', *, *, #724, .F. ) ;
#189 = FACE_OUTER_BOUND ( 'NONE', #57, .T. ) ;
#190 = ORIENTED_EDGE ( 'NONE', *, *, #129, .F. ) ;
#191 = EDGE_CURVE ( 'NONE', #818, #273, #789, .T. ) ;
#192 = ORIENTED_EDGE ( 'NONE', *, *, #455, .F. ) ;
#193 = CYLINDRICAL_SURFACE ( 'NONE', #245, 2.475000000000001421 ) ;
#194 = LINE ( 'NONE', #255, #32 ) ;
#195 = DIRECTION ( 'NONE',  ( -1.000000000000000000, 0.000000000000000000, 0.000000000000000000 ) ) ;
#196 = DIRECTION ( 'NONE',  ( -1.000000000000000000, 0.000000000000000000, 0.000000000000000000 ) ) ;
#197 = PRODUCT_DEFINITION_FORMATION_WITH_SPECIFIED_SOURCE ( 'ANY', '', #413, .NOT_KNOWN. ) ;
#198 = ORIENTED_EDGE ( 'NONE', *, *, #72, .F. ) ;
#199 = LOCAL_TIME ( 19, 9, 12.00000000000000000, #595 ) ;
#200 = ORIENTED_EDGE ( 'NONE', *, *, #274, .T. ) ;
#201 = ADVANCED_FACE ( 'NONE', ( #277 ), #708, .F. ) ;
#202 = CARTESIAN_POINT ( 'NONE',  ( 4.800000000000000711, 0.000000000000000000, 3.700000000000001954 ) ) ;
#203 = ORIENTED_EDGE ( 'NONE', *, *, #552, .F. ) ;
#204 = CARTESIAN_POINT ( 'NONE',  ( -25.75000000000000355, 4.000000000000000000, 3.700000000000001954 ) ) ;
#205 = ORIENTED_EDGE ( 'NONE', *, *, #135, .F. ) ;
#206 = PRODUCT_DEFINITION ( 'UNKNOWN', '', #197, #85 ) ;
#207 = LINE ( 'NONE', #328, #336 ) ;
#208 = VECTOR ( 'NONE', #396, 1000.000000000000000 ) ;
#209 = EDGE_LOOP ( 'NONE', ( #175, #706 ) ) ;
#210 = DIRECTION ( 'NONE',  ( -0.000000000000000000, -0.000000000000000000, 1.000000000000000000 ) ) ;
#211 = VERTEX_POINT ( 'NONE', #67 ) ;
#212 = FACE_OUTER_BOUND ( 'NONE', #579, .T. ) ;
#213 = DIRECTION ( 'NONE',  ( 0.000000000000000000, 0.000000000000000000, 1.000000000000000000 ) ) ;
#214 = ADVANCED_FACE ( 'NONE', ( #550 ), #830, .F. ) ;
#215 = ORGANIZATION ( 'UNSPECIFIED', 'UNSPECIFIED', '' ) ;
#216 = EDGE_LOOP ( 'NONE', ( #113, #697 ) ) ;
#217 = LINE ( 'NONE', #62, #151 ) ;
#218 = CARTESIAN_POINT ( 'NONE',  ( 0.000000000000000000, 0.000000000000000000, 3.700000000000002842 ) ) ;
#219 = DIRECTION ( 'NONE',  ( 0.000000000000000000, 0.000000000000000000, 1.000000000000000000 ) ) ;
#220 = DIRECTION ( 'NONE',  ( -1.000000000000000000, 0.000000000000000000, 0.000000000000000000 ) ) ;
#221 = CIRCLE ( 'NONE', #308, 2.475000000000001421 ) ;
#222 = PERSON_AND_ORGANIZATION ( #736, #215 ) ;
#223 = ADVANCED_FACE ( 'NONE', ( #919, #613, #265, #842, #2, #581 ), #13, .F. ) ;
#224 = CYLINDRICAL_SURFACE ( 'NONE', #719, 0.7500000000000006661 ) ;
#225 = DIRECTION ( 'NONE',  ( 0.000000000000000000, 0.000000000000000000, 1.000000000000000000 ) ) ;
#226 = APPROVAL_ROLE ( '' ) ;
#227 = CARTESIAN_POINT ( 'NONE',  ( 7.200000000000000178, 1.469576158976823306E-16, 2.500000000000000000 ) ) ;
#228 = DIRECTION ( 'NONE',  ( 0.000000000000000000, 0.000000000000000000, -1.000000000000000000 ) ) ;
#229 = VERTEX_POINT ( 'NONE', #507 ) ;
#230 = APPLICATION_PROTOCOL_DEFINITION ( 'international standard', 'config_control_design', 1994, #628 ) ;
#231 = LINE ( 'NONE', #567, #874 ) ;
#232 = EDGE_CURVE ( 'NONE', #273, #386, #655, .T. ) ;
#233 = VERTEX_POINT ( 'NONE', #577 ) ;
#234 = CIRCLE ( 'NONE', #537, 1.199999999999999734 ) ;
#235 = AXIS2_PLACEMENT_3D ( 'NONE', #467, #344, #623 ) ;
#236 = DIRECTION ( 'NONE',  ( 0.000000000000000000, 0.000000000000000000, -1.000000000000000000 ) ) ;
#237 = EDGE_CURVE ( 'NONE', #491, #399, #231, .T. ) ;
#238 = PERSON_AND_ORGANIZATION_ROLE ( 'design_supplier' ) ;
#239 = FACE_OUTER_BOUND ( 'NONE', #802, .T. ) ;
#240 = EDGE_LOOP ( 'NONE', ( #410, #79, #898, #618 ) ) ;
#241 = ADVANCED_FACE ( 'NONE', ( #157, #799 ), #9, .F. ) ;
#242 = EDGE_CURVE ( 'NONE', #120, #59, #162, .T. ) ;
#243 = CARTESIAN_POINT ( 'NONE',  ( -27.00000000000000000, -6.000000000000000000, 3.700000000000002842 ) ) ;
#244 = AXIS2_PLACEMENT_3D ( 'NONE', #115, #894, #39 ) ;
#245 = AXIS2_PLACEMENT_3D ( 'NONE', #457, #58, #528 ) ;
#246 = EDGE_CURVE ( 'NONE', #636, #519, #816, .T. ) ;
#247 = CARTESIAN_POINT ( 'NONE',  ( -6.000000000000000000, 0.000000000000000000, 3.700000000000001954 ) ) ;
#248 = PRODUCT_DEFINITION_SHAPE ( 'NONE', 'NONE',  #206 ) ;
#249 = ORIENTED_EDGE ( 'NONE', *, *, #232, .F. ) ;
#250 = DIRECTION ( 'NONE',  ( -0.000000000000000000, -0.000000000000000000, -1.000000000000000000 ) ) ;
#251 = DIRECTION ( 'NONE',  ( 0.000000000000000000, 0.000000000000000000, -1.000000000000000000 ) ) ;
#252 = CIRCLE ( 'NONE', #784, 1.199999999999999734 ) ;
#253 = ORIENTED_EDGE ( 'NONE', *, *, #316, .T. ) ;
#254 = DIRECTION ( 'NONE',  ( 1.000000000000000000, 0.000000000000000000, 0.000000000000000000 ) ) ;
#255 = CARTESIAN_POINT ( 'NONE',  ( 8.425000000000000711, 2.969768487932331484E-16, 2.500000000000000000 ) ) ;
#256 = CARTESIAN_POINT ( 'NONE',  ( -19.19999999999999929, 0.000000000000000000, 2.500000000000000000 ) ) ;
#257 = DIRECTION ( 'NONE',  ( 0.000000000000000000, 0.000000000000000000, -1.000000000000000000 ) ) ;
#258 = ADVANCED_FACE ( 'NONE', ( #730, #651 ), #573, .F. ) ;
#259 = AXIS2_PLACEMENT_3D ( 'NONE', #373, #864, #145 ) ;
#260 = ORIENTED_EDGE ( 'NONE', *, *, #831, .T. ) ;
#261 = AXIS2_PLACEMENT_3D ( 'NONE', #691, #699, #627 ) ;
#262 = DIRECTION ( 'NONE',  ( 1.000000000000000000, 0.000000000000000000, 0.000000000000000000 ) ) ;
#263 = DIRECTION ( 'NONE',  ( 1.000000000000000000, 0.000000000000000000, -0.000000000000000000 ) ) ;
#264 = CARTESIAN_POINT ( 'NONE',  ( -18.00000000000000000, 0.000000000000000000, 3.700000000000001954 ) ) ;
#265 = FACE_BOUND ( 'NONE', #750, .T. ) ;
#266 = EDGE_CURVE ( 'NONE', #909, #116, #369, .T. ) ;
#267 = VERTEX_POINT ( 'NONE', #871 ) ;
#268 = VERTEX_POINT ( 'NONE', #303 ) ;
#269 = LINE ( 'NONE', #121, #828 ) ;
#270 = CARTESIAN_POINT ( 'NONE',  ( -27.00000000000000000, -6.000000000000000000, 3.700000000000002842 ) ) ;
#271 = ORIENTED_EDGE ( 'NONE', *, *, #895, .T. ) ;
#272 = DIRECTION ( 'NONE',  ( 0.000000000000000000, 0.000000000000000000, 1.000000000000000000 ) ) ;
#273 = VERTEX_POINT ( 'NONE', #805 ) ;
#274 = EDGE_CURVE ( 'NONE', #268, #343, #144, .T. ) ;
#275 = DIRECTION ( 'NONE',  ( -1.000000000000000000, 0.000000000000000000, 0.000000000000000000 ) ) ;
#276 = ORIENTED_EDGE ( 'NONE', *, *, #380, .T. ) ;
#277 = FACE_OUTER_BOUND ( 'NONE', #820, .T. ) ;
#278 = VERTEX_POINT ( 'NONE', #793 ) ;
#279 = ADVANCED_FACE ( 'NONE', ( #439 ), #74, .F. ) ;
#280 = DIRECTION ( 'NONE',  ( 0.000000000000000000, 0.000000000000000000, -1.000000000000000000 ) ) ;
#281 = VECTOR ( 'NONE', #645, 1000.000000000000000 ) ;
#282 = CARTESIAN_POINT ( 'NONE',  ( 16.80000000000000071, 0.000000000000000000, 3.700000000000001954 ) ) ;
#283 = AXIS2_PLACEMENT_3D ( 'NONE', #630, #411, #688 ) ;
#284 = ORIENTED_EDGE ( 'NONE', *, *, #37, .T. ) ;
#285 = CARTESIAN_POINT ( 'NONE',  ( 27.00000000000000000, 6.000000000000000000, 3.700000000000002842 ) ) ;
#286 = LINE ( 'NONE', #563, #803 ) ;
#287 =( GEOMETRIC_REPRESENTATION_CONTEXT ( 3 ) GLOBAL_UNCERTAINTY_ASSIGNED_CONTEXT ( ( #814 ) ) GLOBAL_UNIT_ASSIGNED_CONTEXT ( ( #164, #580, #869 ) ) REPRESENTATION_CONTEXT ( 'NONE', 'WORKASPACE' ) );
#288 = DIRECTION ( 'NONE',  ( 0.000000000000000000, 0.000000000000000000, -1.000000000000000000 ) ) ;
#289 = DIRECTION ( 'NONE',  ( 0.000000000000000000, 0.000000000000000000, -1.000000000000000000 ) ) ;
#290 = DATE_AND_TIME ( #743, #381 ) ;
#291 = DIRECTION ( 'NONE',  ( 1.000000000000000000, 0.000000000000000000, 0.000000000000000000 ) ) ;
#292 = AXIS2_PLACEMENT_3D ( 'NONE', #704, #272, #489 ) ;
#293 = DIRECTION ( 'NONE',  ( 1.000000000000000000, 0.000000000000000000, 0.000000000000000000 ) ) ;
#294 = AXIS2_PLACEMENT_3D ( 'NONE', #792, #488, #707 ) ;
#295 = PERSON_AND_ORGANIZATION ( #736, #215 ) ;
#296 = EDGE_CURVE ( 'NONE', #267, #389, #286, .T. ) ;
#297 = ORIENTED_EDGE ( 'NONE', *, *, #102, .F. ) ;
#298 = AXIS2_PLACEMENT_3D ( 'NONE', #264, #836, #195 ) ;
#299 = DIRECTION ( 'NONE',  ( 1.000000000000000000, 0.000000000000000000, 0.000000000000000000 ) ) ;
#300 = DIRECTION ( 'NONE',  ( 0.000000000000000000, 0.000000000000000000, -1.000000000000000000 ) ) ;
#301 = VERTEX_POINT ( 'NONE', #723 ) ;
#302 = CC_DESIGN_APPROVAL ( #535, ( #197 ) ) ;
#303 = CARTESIAN_POINT ( 'NONE',  ( -19.19999999999999929, 0.000000000000000000, 3.700000000000001954 ) ) ;
#304 = CARTESIAN_POINT ( 'NONE',  ( -6.000000000000000000, 0.000000000000000000, 2.500000000000000000 ) ) ;
#305 = EDGE_CURVE ( 'NONE', #301, #746, #318, .T. ) ;
#306 = FACE_OUTER_BOUND ( 'NONE', #362, .T. ) ;
#307 = CIRCLE ( 'NONE', #334, 1.199999999999999734 ) ;
#308 = AXIS2_PLACEMENT_3D ( 'NONE', #464, #600, #262 ) ;
#309 = ORIENTED_EDGE ( 'NONE', *, *, #825, .T. ) ;
#310 = COORDINATED_UNIVERSAL_TIME_OFFSET ( 6, 0, .BEHIND. ) ;
#311 = CARTESIAN_POINT ( 'NONE',  ( -27.00000000000000000, 6.000000000000000000, 0.000000000000000000 ) ) ;
#312 = ORIENTED_EDGE ( 'NONE', *, *, #141, .F. ) ;
#313 = ADVANCED_FACE ( 'NONE', ( #148 ), #81, .F. ) ;
#314 = CALENDAR_DATE ( 2026, 28, 9 ) ;
#315 = FACE_OUTER_BOUND ( 'NONE', #586, .T. ) ;
#316 = EDGE_CURVE ( 'NONE', #682, #10, #427, .T. ) ;
#317 = CARTESIAN_POINT ( 'NONE',  ( -27.00000000000000000, 6.000000000000000000, 3.700000000000002842 ) ) ;
#318 = CIRCLE ( 'NONE', #406, 1.199999999999999734 ) ;
#319 = DIRECTION ( 'NONE',  ( 0.000000000000000000, 0.000000000000000000, 1.000000000000000000 ) ) ;
#320 = FACE_OUTER_BOUND ( 'NONE', #527, .T. ) ;
#321 = AXIS2_PLACEMENT_3D ( 'NONE', #131, #70, #559 ) ;
#322 = ORIENTED_EDGE ( 'NONE', *, *, #27, .T. ) ;
#323 = ORIENTED_EDGE ( 'NONE', *, *, #663, .T. ) ;
#324 = PLANE ( 'NONE',  #710 ) ;
#325 = CARTESIAN_POINT ( 'NONE',  ( 3.575000000000000178, 0.000000000000000000, 0.000000000000000000 ) ) ;
#326 = ORIENTED_EDGE ( 'NONE', *, *, #530, .T. ) ;
#327 = ORIENTED_EDGE ( 'NONE', *, *, #870, .F. ) ;
#328 = CARTESIAN_POINT ( 'NONE',  ( -19.19999999999999929, 0.000000000000000000, 3.700000000000001954 ) ) ;
#329 = DIRECTION ( 'NONE',  ( 1.000000000000000000, 0.000000000000000000, 0.000000000000000000 ) ) ;
#330 = EDGE_CURVE ( 'NONE', #7, #747, #738, .T. ) ;
#331 = ORIENTED_EDGE ( 'NONE', *, *, #732, .F. ) ;
#332 = DIRECTION ( 'NONE',  ( -1.000000000000000000, 0.000000000000000000, 0.000000000000000000 ) ) ;
#333 = ORIENTED_EDGE ( 'NONE', *, *, #494, .F. ) ;
#334 = AXIS2_PLACEMENT_3D ( 'NONE', #379, #585, #529 ) ;
#335 = ORIENTED_EDGE ( 'NONE', *, *, #570, .T. ) ;
#336 = VECTOR ( 'NONE', #49, 1000.000000000000000 ) ;
#337 = DIRECTION ( 'NONE',  ( 1.000000000000000000, 0.000000000000000000, 0.000000000000000000 ) ) ;
#338 = CARTESIAN_POINT ( 'NONE',  ( -18.00000000000000000, 0.000000000000000000, 2.500000000000000000 ) ) ;
#339 = CYLINDRICAL_SURFACE ( 'NONE', #321, 2.375000000000000444 ) ;
#340 = DIRECTION ( 'NONE',  ( 0.000000000000000000, 0.000000000000000000, -1.000000000000000000 ) ) ;
#341 = EDGE_LOOP ( 'NONE', ( #771, #839, #64, #602 ) ) ;
#342 = DIRECTION ( 'NONE',  ( 0.000000000000000000, 0.000000000000000000, -1.000000000000000000 ) ) ;
#343 = VERTEX_POINT ( 'NONE', #23 ) ;
#344 = DIRECTION ( 'NONE',  ( 0.000000000000000000, 0.000000000000000000, 1.000000000000000000 ) ) ;
#345 = ADVANCED_FACE ( 'NONE', ( #315 ), #888, .F. ) ;
#346 = EDGE_LOOP ( 'NONE', ( #511, #284 ) ) ;
#347 = DIRECTION ( 'NONE',  ( 0.000000000000000000, 0.000000000000000000, -1.000000000000000000 ) ) ;
#348 = CARTESIAN_POINT ( 'NONE',  ( 6.000000000000000000, 0.000000000000000000, 3.700000000000001954 ) ) ;
#349 = EDGE_LOOP ( 'NONE', ( #429, #331 ) ) ;
#350 = LINE ( 'NONE', #285, #12 ) ;
#351 = EDGE_CURVE ( 'NONE', #755, #700, #521, .T. ) ;
#352 = DIRECTION ( 'NONE',  ( 0.000000000000000000, 0.000000000000000000, -1.000000000000000000 ) ) ;
#353 = LINE ( 'NONE', #715, #578 ) ;
#354 = EDGE_CURVE ( 'NONE', #273, #818, #307, .T. ) ;
#355 = DIRECTION ( 'NONE',  ( 0.000000000000000000, 0.000000000000000000, 1.000000000000000000 ) ) ;
#356 = DIRECTION ( 'NONE',  ( 1.000000000000000000, 0.000000000000000000, 0.000000000000000000 ) ) ;
#357 = CIRCLE ( 'NONE', #490, 1.199999999999999734 ) ;
#358 = CARTESIAN_POINT ( 'NONE',  ( -16.80000000000000071, 1.469576158976823306E-16, 3.700000000000001954 ) ) ;
#359 = CARTESIAN_POINT ( 'NONE',  ( -18.00000000000000000, 0.000000000000000000, 2.500000000000000000 ) ) ;
#360 = EDGE_CURVE ( 'NONE', #229, #666, #860, .T. ) ;
#361 = APPROVAL_STATUS ( 'not_yet_approved' ) ;
#362 = EDGE_LOOP ( 'NONE', ( #40, #487 ) ) ;
#363 = DIRECTION ( 'NONE',  ( -0.000000000000000000, -0.000000000000000000, -1.000000000000000000 ) ) ;
#364 = DIRECTION ( 'NONE',  ( -0.000000000000000000, -0.000000000000000000, -1.000000000000000000 ) ) ;
#365 = CIRCLE ( 'NONE', #68, 1.199999999999999734 ) ;
#366 = CC_DESIGN_DATE_AND_TIME_ASSIGNMENT ( #290, #96, ( #165 ) ) ;
#367 = ORIENTED_EDGE ( 'NONE', *, *, #705, .F. ) ;
#368 = DIRECTION ( 'NONE',  ( 0.000000000000000000, 0.000000000000000000, -1.000000000000000000 ) ) ;
#369 = LINE ( 'NONE', #924, #886 ) ;
#370 = VERTEX_POINT ( 'NONE', #668 ) ;
#371 = ADVANCED_FACE ( 'NONE', ( #92 ), #174, .F. ) ;
#372 = CYLINDRICAL_SURFACE ( 'NONE', #657, 1.199999999999999734 ) ;
#373 = CARTESIAN_POINT ( 'NONE',  ( -6.000000000000000000, 0.000000000000000000, 2.500000000000000000 ) ) ;
#374 = PLANE ( 'NONE',  #709 ) ;
#375 = AXIS2_PLACEMENT_3D ( 'NONE', #780, #916, #639 ) ;
#376 = ORIENTED_EDGE ( 'NONE', *, *, #732, .T. ) ;
#377 = VECTOR ( 'NONE', #250, 1000.000000000000000 ) ;
#378 = VECTOR ( 'NONE', #481, 1000.000000000000000 ) ;
#379 = CARTESIAN_POINT ( 'NONE',  ( -6.000000000000000000, 0.000000000000000000, 3.700000000000001954 ) ) ;
#380 = EDGE_CURVE ( 'NONE', #229, #519, #24, .T. ) ;
#381 = LOCAL_TIME ( 19, 9, 12.00000000000000000, #574 ) ;
#382 = CARTESIAN_POINT ( 'NONE',  ( 0.000000000000000000, 0.000000000000000000, 0.000000000000000000 ) ) ;
#383 = CYLINDRICAL_SURFACE ( 'NONE', #873, 2.425000000000000266 ) ;
#384 = VERTEX_POINT ( 'NONE', #749 ) ;
#385 = APPROVAL ( #361, 'UNSPECIFIED' ) ;
#386 = VERTEX_POINT ( 'NONE', #677 ) ;
#387 = DIRECTION ( 'NONE',  ( -0.000000000000000000, -0.000000000000000000, -1.000000000000000000 ) ) ;
#388 = CARTESIAN_POINT ( 'NONE',  ( -27.00000000000000000, -6.000000000000000000, 0.000000000000000000 ) ) ;
#389 = VERTEX_POINT ( 'NONE', #311 ) ;
#390 = CYLINDRICAL_SURFACE ( 'NONE', #862, 2.325000000000000622 ) ;
#391 = DIRECTION ( 'NONE',  ( -0.000000000000000000, -0.000000000000000000, -1.000000000000000000 ) ) ;
#392 = CYLINDRICAL_SURFACE ( 'NONE', #794, 2.325000000000000622 ) ;
#393 = EDGE_LOOP ( 'NONE', ( #756, #906, #806, #721 ) ) ;
#394 = EDGE_CURVE ( 'NONE', #682, #120, #5, .T. ) ;
#395 = DIRECTION ( 'NONE',  ( 0.000000000000000000, 0.000000000000000000, -1.000000000000000000 ) ) ;
#396 = DIRECTION ( 'NONE',  ( -0.000000000000000000, -0.000000000000000000, -1.000000000000000000 ) ) ;
#397 = EDGE_LOOP ( 'NONE', ( #198, #608, #561, #192 ) ) ;
#398 = FACE_BOUND ( 'NONE', #133, .T. ) ;
#399 = VERTEX_POINT ( 'NONE', #99 ) ;
#400 = ORIENTED_EDGE ( 'NONE', *, *, #91, .F. ) ;
#401 = DIRECTION ( 'NONE',  ( 1.000000000000000000, 0.000000000000000000, 0.000000000000000000 ) ) ;
#402 = DIRECTION ( 'NONE',  ( 1.000000000000000000, 0.000000000000000000, 0.000000000000000000 ) ) ;
#403 = ADVANCED_FACE ( 'NONE', ( #239 ), #383, .F. ) ;
#404 = CYLINDRICAL_SURFACE ( 'NONE', #298, 1.199999999999999734 ) ;
#405 = DIRECTION ( 'NONE',  ( 0.000000000000000000, 0.000000000000000000, 1.000000000000000000 ) ) ;
#406 = AXIS2_PLACEMENT_3D ( 'NONE', #493, #857, #788 ) ;
#407 = VERTEX_POINT ( 'NONE', #34 ) ;
#408 = AXIS2_PLACEMENT_3D ( 'NONE', #925, #280, #143 ) ;
#409 = CARTESIAN_POINT ( 'NONE',  ( 27.00000000000000000, 6.000000000000000000, 3.700000000000002842 ) ) ;
#410 = ORIENTED_EDGE ( 'NONE', *, *, #825, .F. ) ;
#411 = DIRECTION ( 'NONE',  ( -0.000000000000000000, -0.000000000000000000, 1.000000000000000000 ) ) ;
#412 = EDGE_CURVE ( 'NONE', #10, #59, #460, .T. ) ;
#413 = PRODUCT ( 'FIT-004_SG90_spline_socket_trial', 'FIT-004_SG90_spline_socket_trial', '', ( #82 ) ) ;
#414 = EDGE_LOOP ( 'NONE', ( #480, #463, #698, #653 ) ) ;
#415 = FACE_OUTER_BOUND ( 'NONE', #341, .T. ) ;
#416 = DIRECTION ( 'NONE',  ( 0.000000000000000000, 0.000000000000000000, -1.000000000000000000 ) ) ;
#417 = APPROVAL_PERSON_ORGANIZATION ( #887, #568, #569 ) ;
#418 = VERTEX_POINT ( 'NONE', #446 ) ;
#419 = CARTESIAN_POINT ( 'NONE',  ( 20.47500000000000142, 3.031000827889701228E-16, 0.000000000000000000 ) ) ;
#420 = LINE ( 'NONE', #282, #807 ) ;
#421 = ORIENTED_EDGE ( 'NONE', *, *, #510, .F. ) ;
#422 = VECTOR ( 'NONE', #251, 1000.000000000000000 ) ;
#423 = CARTESIAN_POINT ( 'NONE',  ( 18.00000000000000000, 0.000000000000000000, 3.700000000000001954 ) ) ;
#424 = DIRECTION ( 'NONE',  ( 0.000000000000000000, 0.000000000000000000, -1.000000000000000000 ) ) ;
#425 = ADVANCED_FACE ( 'NONE', ( #29 ), #374, .F. ) ;
#426 = CARTESIAN_POINT ( 'NONE',  ( -24.25000000000000000, 4.000000000000000000, 3.700000000000001954 ) ) ;
#427 = LINE ( 'NONE', #718, #920 ) ;
#428 = PERSON_AND_ORGANIZATION ( #736, #215 ) ;
#429 = ORIENTED_EDGE ( 'NONE', *, *, #360, .F. ) ;
#430 = PLANE ( 'NONE',  #547 ) ;
#431 = DIRECTION ( 'NONE',  ( -1.000000000000000000, -0.000000000000000000, -0.000000000000000000 ) ) ;
#432 = DATE_AND_TIME ( #314, #717 ) ;
#433 = ORIENTED_EDGE ( 'NONE', *, *, #599, .F. ) ;
#434 = AXIS2_PLACEMENT_3D ( 'NONE', #44, #391, #402 ) ;
#435 = DIRECTION ( 'NONE',  ( 0.000000000000000000, 0.000000000000000000, -1.000000000000000000 ) ) ;
#436 = EDGE_CURVE ( 'NONE', #747, #7, #50, .T. ) ;
#437 = ORIENTED_EDGE ( 'NONE', *, *, #83, .T. ) ;
#438 = DIRECTION ( 'NONE',  ( 0.000000000000000000, 0.000000000000000000, -1.000000000000000000 ) ) ;
#439 = FACE_OUTER_BOUND ( 'NONE', #694, .T. ) ;
#440 = ORIENTED_EDGE ( 'NONE', *, *, #168, .T. ) ;
#441 = CC_DESIGN_PERSON_AND_ORGANIZATION_ASSIGNMENT ( #149, #740, ( #165 ) ) ;
#442 = DIRECTION ( 'NONE',  ( -1.000000000000000000, 0.000000000000000000, 0.000000000000000000 ) ) ;
#443 = DIRECTION ( 'NONE',  ( -1.000000000000000000, 0.000000000000000000, 0.000000000000000000 ) ) ;
#444 = ORIENTED_EDGE ( 'NONE', *, *, #885, .F. ) ;
#445 = PERSON_AND_ORGANIZATION ( #736, #215 ) ;
#446 = CARTESIAN_POINT ( 'NONE',  ( -27.00000000000000000, -6.000000000000000000, 0.000000000000000000 ) ) ;
#447 = VECTOR ( 'NONE', #236, 1000.000000000000000 ) ;
#448 = AXIS2_PLACEMENT_3D ( 'NONE', #186, #685, #337 ) ;
#449 = EDGE_CURVE ( 'NONE', #921, #56, #172, .T. ) ;
#450 = DIRECTION ( 'NONE',  ( 0.000000000000000000, 0.000000000000000000, 1.000000000000000000 ) ) ;
#451 = ORIENTED_EDGE ( 'NONE', *, *, #861, .T. ) ;
#452 = ORIENTED_EDGE ( 'NONE', *, *, #927, .F. ) ;
#453 = DIRECTION ( 'NONE',  ( 0.000000000000000000, 0.000000000000000000, 1.000000000000000000 ) ) ;
#454 = ORIENTED_EDGE ( 'NONE', *, *, #274, .F. ) ;
#455 = EDGE_CURVE ( 'NONE', #418, #632, #875, .T. ) ;
#456 = ORIENTED_EDGE ( 'NONE', *, *, #436, .T. ) ;
#457 = CARTESIAN_POINT ( 'NONE',  ( 18.00000000000000000, 0.000000000000000000, 2.500000000000000000 ) ) ;
#458 = CARTESIAN_POINT ( 'NONE',  ( 3.575000000000000178, 0.000000000000000000, 2.500000000000000000 ) ) ;
#459 = CARTESIAN_POINT ( 'NONE',  ( 16.80000000000000071, 0.000000000000000000, 2.500000000000000000 ) ) ;
#460 = CIRCLE ( 'NONE', #583, 2.325000000000000622 ) ;
#461 = ADVANCED_FACE ( 'NONE', ( #320 ), #823, .F. ) ;
#462 = AXIS2_PLACEMENT_3D ( 'NONE', #588, #450, #881 ) ;
#463 = ORIENTED_EDGE ( 'NONE', *, *, #266, .T. ) ;
#464 = CARTESIAN_POINT ( 'NONE',  ( 18.00000000000000000, 0.000000000000000000, 0.000000000000000000 ) ) ;
#465 = CARTESIAN_POINT ( 'NONE',  ( -27.00000000000000000, -6.000000000000000000, 3.700000000000002842 ) ) ;
#466 = ORIENTED_EDGE ( 'NONE', *, *, #705, .T. ) ;
#467 = CARTESIAN_POINT ( 'NONE',  ( -18.00000000000000000, 0.000000000000000000, 3.700000000000001954 ) ) ;
#468 = ORIENTED_EDGE ( 'NONE', *, *, #757, .F. ) ;
#469 = CC_DESIGN_PERSON_AND_ORGANIZATION_ASSIGNMENT ( #445, #672, ( #206 ) ) ;
#470 = ORIENTED_EDGE ( 'NONE', *, *, #510, .T. ) ;
#471 = LINE ( 'NONE', #532, #523 ) ;
#472 = DIRECTION ( 'NONE',  ( 1.000000000000000000, 0.000000000000000000, 0.000000000000000000 ) ) ;
#473 = APPROVAL_PERSON_ORGANIZATION ( #173, #385, #226 ) ;
#474 = DIRECTION ( 'NONE',  ( 0.000000000000000000, 0.000000000000000000, 1.000000000000000000 ) ) ;
#475 = CARTESIAN_POINT ( 'NONE',  ( -25.00000000000000000, 4.000000000000000000, 0.000000000000000000 ) ) ;
#476 = ORIENTED_EDGE ( 'NONE', *, *, #844, .T. ) ;
#477 = EDGE_LOOP ( 'NONE', ( #452, #782 ) ) ;
#478 = ADVANCED_FACE ( 'NONE', ( #16, #306 ), #513, .F. ) ;
#479 = CARTESIAN_POINT ( 'NONE',  ( 18.00000000000000000, 0.000000000000000000, 0.000000000000000000 ) ) ;
#480 = ORIENTED_EDGE ( 'NONE', *, *, #927, .T. ) ;
#481 = DIRECTION ( 'NONE',  ( -0.000000000000000000, -1.000000000000000000, -0.000000000000000000 ) ) ;
#482 = AXIS2_PLACEMENT_3D ( 'NONE', #177, #453, #592 ) ;
#483 = ORIENTED_EDGE ( 'NONE', *, *, #745, .F. ) ;
#484 = CARTESIAN_POINT ( 'NONE',  ( -27.00000000000000000, -6.000000000000000000, 3.700000000000002842 ) ) ;
#485 = ORIENTED_EDGE ( 'NONE', *, *, #737, .T. ) ;
#486 = CARTESIAN_POINT ( 'NONE',  ( -15.67499999999999716, 2.847303808017596928E-16, 2.500000000000000000 ) ) ;
#487 = ORIENTED_EDGE ( 'NONE', *, *, #575, .F. ) ;
#488 = DIRECTION ( 'NONE',  ( 0.000000000000000000, 0.000000000000000000, -1.000000000000000000 ) ) ;
#489 = DIRECTION ( 'NONE',  ( 1.000000000000000000, 0.000000000000000000, 0.000000000000000000 ) ) ;
#490 = AXIS2_PLACEMENT_3D ( 'NONE', #80, #649, #8 ) ;
#491 = VERTEX_POINT ( 'NONE', #606 ) ;
#492 = DIRECTION ( 'NONE',  ( -1.000000000000000000, -0.000000000000000000, -0.000000000000000000 ) ) ;
#493 = CARTESIAN_POINT ( 'NONE',  ( 18.00000000000000000, 0.000000000000000000, 3.700000000000001954 ) ) ;
#494 = EDGE_CURVE ( 'NONE', #26, #41, #635, .T. ) ;
#495 = AXIS2_PLACEMENT_3D ( 'NONE', #218, #435, #801 ) ;
#496 = DIRECTION ( 'NONE',  ( 1.000000000000000000, 0.000000000000000000, 0.000000000000000000 ) ) ;
#497 = CIRCLE ( 'NONE', #130, 2.475000000000001421 ) ;
#498 = CARTESIAN_POINT ( 'NONE',  ( -15.67499999999999716, 2.847303808017596928E-16, 2.500000000000000000 ) ) ;
#499 = APPROVAL_ROLE ( '' ) ;
#500 = CIRCLE ( 'NONE', #742, 2.375000000000000000 ) ;
#501 = DIRECTION ( 'NONE',  ( -1.000000000000000000, 0.000000000000000000, 0.000000000000000000 ) ) ;
#502 = DIRECTION ( 'NONE',  ( 1.000000000000000000, 0.000000000000000000, 0.000000000000000000 ) ) ;
#503 = PERSON_AND_ORGANIZATION_ROLE ( 'design_owner' ) ;
#504 = ORIENTED_EDGE ( 'NONE', *, *, #107, .F. ) ;
#505 = DIRECTION ( 'NONE',  ( -1.000000000000000000, 0.000000000000000000, 0.000000000000000000 ) ) ;
#506 = EDGE_CURVE ( 'NONE', #407, #418, #760, .T. ) ;
#507 = CARTESIAN_POINT ( 'NONE',  ( 3.575000000000000178, 0.000000000000000000, 2.500000000000000000 ) ) ;
#508 = AXIS2_PLACEMENT_3D ( 'NONE', #348, #634, #332 ) ;
#509 = CARTESIAN_POINT ( 'NONE',  ( 6.000000000000000000, 0.000000000000000000, 2.500000000000000000 ) ) ;
#510 = EDGE_CURVE ( 'NONE', #56, #921, #725, .T. ) ;
#511 = ORIENTED_EDGE ( 'NONE', *, *, #412, .T. ) ;
#512 = VECTOR ( 'NONE', #257, 1000.000000000000000 ) ;
#513 = PLANE ( 'NONE',  #597 ) ;
#514 = ORIENTED_EDGE ( 'NONE', *, *, #242, .F. ) ;
#515 = EDGE_LOOP ( 'NONE', ( #777, #670, #101, #728 ) ) ;
#516 = CC_DESIGN_APPROVAL ( #568, ( #165 ) ) ;
#517 = SHAPE_DEFINITION_REPRESENTATION ( #248, #171 ) ;
#518 = DIRECTION ( 'NONE',  ( 1.000000000000000000, 0.000000000000000000, 0.000000000000000000 ) ) ;
#519 = VERTEX_POINT ( 'NONE', #325 ) ;
#520 = EDGE_CURVE ( 'NONE', #755, #905, #234, .T. ) ;
#521 = LINE ( 'NONE', #817, #422 ) ;
#522 = AXIS2_PLACEMENT_3D ( 'NONE', #926, #289, #220 ) ;
#523 = VECTOR ( 'NONE', #890, 1000.000000000000000 ) ;
#524 = ORIENTED_EDGE ( 'NONE', *, *, #107, .T. ) ;
#525 = DIRECTION ( 'NONE',  ( 0.000000000000000000, -0.000000000000000000, -1.000000000000000000 ) ) ;
#526 = ORIENTED_EDGE ( 'NONE', *, *, #354, .T. ) ;
#527 = EDGE_LOOP ( 'NONE', ( #711, #437, #69, #557 ) ) ;
#528 = DIRECTION ( 'NONE',  ( -1.000000000000000000, 0.000000000000000000, 0.000000000000000000 ) ) ;
#529 = DIRECTION ( 'NONE',  ( 1.000000000000000000, 0.000000000000000000, 0.000000000000000000 ) ) ;
#530 = EDGE_CURVE ( 'NONE', #41, #26, #848, .T. ) ;
#531 = ORIENTED_EDGE ( 'NONE', *, *, #351, .T. ) ;
#532 = CARTESIAN_POINT ( 'NONE',  ( -4.800000000000000711, 1.469576158976823306E-16, 3.700000000000001954 ) ) ;
#533 = CARTESIAN_POINT ( 'NONE',  ( 18.00000000000000000, 0.000000000000000000, 2.500000000000000000 ) ) ;
#534 = DIRECTION ( 'NONE',  ( 0.000000000000000000, 1.000000000000000000, 0.000000000000000000 ) ) ;
#535 = APPROVAL ( #587, 'UNSPECIFIED' ) ;
#536 = CARTESIAN_POINT ( 'NONE',  ( 7.200000000000000178, 1.469576158976823306E-16, 3.700000000000001954 ) ) ;
#537 = AXIS2_PLACEMENT_3D ( 'NONE', #827, #548, #681 ) ;
#538 = CIRCLE ( 'NONE', #448, 2.425000000000000266 ) ;
#539 = ORIENTED_EDGE ( 'NONE', *, *, #27, .F. ) ;
#540 = CARTESIAN_POINT ( 'NONE',  ( -27.00000000000000000, -6.000000000000000000, 3.700000000000002842 ) ) ;
#541 = DIRECTION ( 'NONE',  ( 0.000000000000000000, 0.000000000000000000, 1.000000000000000000 ) ) ;
#542 = ORIENTED_EDGE ( 'NONE', *, *, #520, .T. ) ;
#543 = CARTESIAN_POINT ( 'NONE',  ( 27.00000000000000000, -6.000000000000000000, 3.700000000000002842 ) ) ;
#544 = VERTEX_POINT ( 'NONE', #620 ) ;
#545 = EDGE_LOOP ( 'NONE', ( #524, #103 ) ) ;
#546 = DIRECTION ( 'NONE',  ( 0.000000000000000000, 0.000000000000000000, 1.000000000000000000 ) ) ;
#547 = AXIS2_PLACEMENT_3D ( 'NONE', #922, #562, #147 ) ;
#548 = DIRECTION ( 'NONE',  ( 0.000000000000000000, 0.000000000000000000, 1.000000000000000000 ) ) ;
#549 = ORIENTED_EDGE ( 'NONE', *, *, #757, .T. ) ;
#550 = FACE_OUTER_BOUND ( 'NONE', #125, .T. ) ;
#551 = ORIENTED_EDGE ( 'NONE', *, *, #637, .F. ) ;
#552 = EDGE_CURVE ( 'NONE', #666, #636, #194, .T. ) ;
#553 = LINE ( 'NONE', #826, #6 ) ;
#554 = ORIENTED_EDGE ( 'NONE', *, *, #599, .T. ) ;
#555 = CARTESIAN_POINT ( 'NONE',  ( -27.00000000000000000, -6.000000000000000000, 0.000000000000000000 ) ) ;
#556 = AXIS2_PLACEMENT_3D ( 'NONE', #87, #225, #293 ) ;
#557 = ORIENTED_EDGE ( 'NONE', *, *, #675, .F. ) ;
#558 = CARTESIAN_POINT ( 'NONE',  ( -4.800000000000000711, 1.469576158976823306E-16, 3.700000000000001954 ) ) ;
#559 = DIRECTION ( 'NONE',  ( -1.000000000000000000, 0.000000000000000000, 0.000000000000000000 ) ) ;
#560 = CIRCLE ( 'NONE', #640, 0.7500000000000006661 ) ;
#561 = ORIENTED_EDGE ( 'NONE', *, *, #693, .F. ) ;
#562 = DIRECTION ( 'NONE',  ( 0.000000000000000000, 0.000000000000000000, -1.000000000000000000 ) ) ;
#563 = CARTESIAN_POINT ( 'NONE',  ( -27.00000000000000000, 6.000000000000000000, 0.000000000000000000 ) ) ;
#564 = EDGE_CURVE ( 'NONE', #905, #755, #158, .T. ) ;
#565 = VECTOR ( 'NONE', #644, 1000.000000000000000 ) ;
#566 = FACE_OUTER_BOUND ( 'NONE', #397, .T. ) ;
#567 = CARTESIAN_POINT ( 'NONE',  ( -8.375000000000000000, 0.000000000000000000, 2.500000000000000000 ) ) ;
#568 = APPROVAL ( #865, 'UNSPECIFIED' ) ;
#569 = APPROVAL_ROLE ( '' ) ;
#570 = EDGE_CURVE ( 'NONE', #384, #407, #187, .T. ) ;
#571 = AXIS2_PLACEMENT_3D ( 'NONE', #46, #213, #117 ) ;
#572 = CARTESIAN_POINT ( 'NONE',  ( -25.00000000000000000, 4.000000000000000000, 3.700000000000001954 ) ) ;
#573 = PLANE ( 'NONE',  #93 ) ;
#574 = COORDINATED_UNIVERSAL_TIME_OFFSET ( 6, 0, .BEHIND. ) ;
#575 = EDGE_CURVE ( 'NONE', #120, #682, #584, .T. ) ;
#576 = LINE ( 'NONE', #787, #25 ) ;
#577 = CARTESIAN_POINT ( 'NONE',  ( 15.52499999999999680, 0.000000000000000000, 0.000000000000000000 ) ) ;
#578 = VECTOR ( 'NONE', #866, 1000.000000000000000 ) ;
#579 = EDGE_LOOP ( 'NONE', ( #205, #884, #531, #617 ) ) ;
#580 =( NAMED_UNIT ( * ) PLANE_ANGLE_UNIT ( ) SI_UNIT ( $, .RADIAN. ) );
#581 = FACE_OUTER_BOUND ( 'NONE', #896, .T. ) ;
#582 = DIRECTION ( 'NONE',  ( 1.000000000000000000, 0.000000000000000000, 0.000000000000000000 ) ) ;
#583 = AXIS2_PLACEMENT_3D ( 'NONE', #883, #753, #673 ) ;
#584 = CIRCLE ( 'NONE', #94, 2.325000000000000622 ) ;
#585 = DIRECTION ( 'NONE',  ( 0.000000000000000000, 0.000000000000000000, 1.000000000000000000 ) ) ;
#586 = EDGE_LOOP ( 'NONE', ( #180, #674, #551, #669 ) ) ;
#587 = APPROVAL_STATUS ( 'not_yet_approved' ) ;
#588 = CARTESIAN_POINT ( 'NONE',  ( -18.00000000000000000, 0.000000000000000000, 2.500000000000000000 ) ) ;
#589 = EDGE_LOOP ( 'NONE', ( #549, #679 ) ) ;
#590 = ADVANCED_FACE ( 'NONE', ( #686 ), #390, .F. ) ;
#591 = VECTOR ( 'NONE', #73, 1000.000000000000000 ) ;
#592 = DIRECTION ( 'NONE',  ( 1.000000000000000000, 0.000000000000000000, 0.000000000000000000 ) ) ;
#593 = ORIENTED_EDGE ( 'NONE', *, *, #412, .F. ) ;
#594 = CC_DESIGN_PERSON_AND_ORGANIZATION_ASSIGNMENT ( #295, #880, ( #197 ) ) ;
#595 = COORDINATED_UNIVERSAL_TIME_OFFSET ( 6, 0, .BEHIND. ) ;
#596 = DIRECTION ( 'NONE',  ( 0.000000000000000000, -1.000000000000000000, 0.000000000000000000 ) ) ;
#597 = AXIS2_PLACEMENT_3D ( 'NONE', #901, #51, #263 ) ;
#598 = ORIENTED_EDGE ( 'NONE', *, *, #37, .F. ) ;
#599 = EDGE_CURVE ( 'NONE', #889, #700, #20, .T. ) ;
#600 = DIRECTION ( 'NONE',  ( 0.000000000000000000, 0.000000000000000000, 1.000000000000000000 ) ) ;
#601 = DIRECTION ( 'NONE',  ( 0.000000000000000000, 0.000000000000000000, -1.000000000000000000 ) ) ;
#602 = ORIENTED_EDGE ( 'NONE', *, *, #380, .F. ) ;
#603 = ORIENTED_EDGE ( 'NONE', *, *, #570, .F. ) ;
#604 = CC_DESIGN_PERSON_AND_ORGANIZATION_ASSIGNMENT ( #28, #238, ( #197 ) ) ;
#605 = FACE_OUTER_BOUND ( 'NONE', #846, .T. ) ;
#606 = CARTESIAN_POINT ( 'NONE',  ( -8.375000000000000000, 0.000000000000000000, 2.500000000000000000 ) ) ;
#607 = LINE ( 'NONE', #45, #71 ) ;
#608 = ORIENTED_EDGE ( 'NONE', *, *, #296, .F. ) ;
#609 = ORIENTED_EDGE ( 'NONE', *, *, #354, .F. ) ;
#610 = FACE_OUTER_BOUND ( 'NONE', #660, .T. ) ;
#611 = CARTESIAN_POINT ( 'NONE',  ( 6.000000000000000000, 0.000000000000000000, 3.700000000000001954 ) ) ;
#612 = DIRECTION ( 'NONE',  ( 0.000000000000000000, 0.000000000000000000, -1.000000000000000000 ) ) ;
#613 = FACE_BOUND ( 'NONE', #150, .T. ) ;
#614 = EDGE_CURVE ( 'NONE', #384, #389, #181, .T. ) ;
#615 = AXIS2_PLACEMENT_3D ( 'NONE', #859, #355, #502 ) ;
#616 = VECTOR ( 'NONE', #114, 1000.000000000000000 ) ;
#617 = ORIENTED_EDGE ( 'NONE', *, *, #724, .T. ) ;
#618 = ORIENTED_EDGE ( 'NONE', *, *, #494, .T. ) ;
#619 = CARTESIAN_POINT ( 'NONE',  ( -18.00000000000000000, 0.000000000000000000, 2.500000000000000000 ) ) ;
#620 = CARTESIAN_POINT ( 'NONE',  ( -25.75000000000000355, 4.000000000000000000, 0.000000000000000000 ) ) ;
#621 = AXIS2_PLACEMENT_3D ( 'NONE', #774, #474, #769 ) ;
#622 = ORIENTED_EDGE ( 'NONE', *, *, #844, .F. ) ;
#623 = DIRECTION ( 'NONE',  ( 1.000000000000000000, 0.000000000000000000, 0.000000000000000000 ) ) ;
#624 = ADVANCED_FACE ( 'NONE', ( #605 ), #193, .F. ) ;
#625 = EDGE_LOOP ( 'NONE', ( #188, #433 ) ) ;
#626 = VERTEX_POINT ( 'NONE', #409 ) ;
#627 = DIRECTION ( 'NONE',  ( 1.000000000000000000, 0.000000000000000000, 0.000000000000000000 ) ) ;
#628 = APPLICATION_CONTEXT ( 'configuration controlled 3d designs of mechanical parts and assemblies' ) ;
#629 = ORIENTED_EDGE ( 'NONE', *, *, #91, .T. ) ;
#630 = CARTESIAN_POINT ( 'NONE',  ( -25.00000000000000000, 4.000000000000000000, 0.000000000000000000 ) ) ;
#631 = PRODUCT_RELATED_PRODUCT_CATEGORY ( 'detail', '', ( #413 ) ) ;
#632 = VERTEX_POINT ( 'NONE', #109 ) ;
#633 = FACE_BOUND ( 'NONE', #545, .T. ) ;
#634 = DIRECTION ( 'NONE',  ( 0.000000000000000000, 0.000000000000000000, -1.000000000000000000 ) ) ;
#635 = CIRCLE ( 'NONE', #244, 1.199999999999999734 ) ;
#636 = VERTEX_POINT ( 'NONE', #104 ) ;
#637 = EDGE_CURVE ( 'NONE', #407, #370, #752, .T. ) ;
#638 = CYLINDRICAL_SURFACE ( 'NONE', #137, 1.199999999999999734 ) ;
#639 = DIRECTION ( 'NONE',  ( 1.000000000000000000, 0.000000000000000000, 0.000000000000000000 ) ) ;
#640 = AXIS2_PLACEMENT_3D ( 'NONE', #475, #210, #904 ) ;
#641 = LINE ( 'NONE', #358, #565 ) ;
#642 = DIRECTION ( 'NONE',  ( 0.000000000000000000, 0.000000000000000000, -1.000000000000000000 ) ) ;
#643 = DATE_AND_TIME ( #646, #76 ) ;
#644 = DIRECTION ( 'NONE',  ( 0.000000000000000000, 0.000000000000000000, -1.000000000000000000 ) ) ;
#645 = DIRECTION ( 'NONE',  ( 0.000000000000000000, 0.000000000000000000, -1.000000000000000000 ) ) ;
#646 = CALENDAR_DATE ( 2026, 28, 9 ) ;
#647 = EDGE_CURVE ( 'NONE', #519, #636, #538, .T. ) ;
#648 = ORIENTED_EDGE ( 'NONE', *, *, #394, .T. ) ;
#649 = DIRECTION ( 'NONE',  ( -0.000000000000000000, -0.000000000000000000, -1.000000000000000000 ) ) ;
#650 = AXIS2_PLACEMENT_3D ( 'NONE', #611, #541, #472 ) ;
#651 = FACE_OUTER_BOUND ( 'NONE', #349, .T. ) ;
#652 = APPROVAL_DATE_TIME ( #155, #535 ) ;
#653 = ORIENTED_EDGE ( 'NONE', *, *, #237, .F. ) ;
#654 = CARTESIAN_POINT ( 'NONE',  ( 7.200000000000000178, 1.469576158976823306E-16, 3.700000000000001954 ) ) ;
#655 = LINE ( 'NONE', #867, #662 ) ;
#656 = ORIENTED_EDGE ( 'NONE', *, *, #530, .F. ) ;
#657 = AXIS2_PLACEMENT_3D ( 'NONE', #658, #438, #505 ) ;
#658 = CARTESIAN_POINT ( 'NONE',  ( -18.00000000000000000, 0.000000000000000000, 3.700000000000001954 ) ) ;
#659 = DIRECTION ( 'NONE',  ( -1.000000000000000000, 0.000000000000000000, 0.000000000000000000 ) ) ;
#660 = EDGE_LOOP ( 'NONE', ( #763, #690, #603, #687 ) ) ;
#661 = EDGE_LOOP ( 'NONE', ( #879, #48 ) ) ;
#662 = VECTOR ( 'NONE', #300, 1000.000000000000000 ) ;
#663 = EDGE_CURVE ( 'NONE', #746, #301, #185, .T. ) ;
#664 = CIRCLE ( 'NONE', #261, 2.375000000000000000 ) ;
#665 = DIRECTION ( 'NONE',  ( 0.000000000000000000, 0.000000000000000000, -1.000000000000000000 ) ) ;
#666 = VERTEX_POINT ( 'NONE', #914 ) ;
#667 = CLOSED_SHELL ( 'NONE', ( #313, #279, #214, #371, #31, #11, #55, #781, #201, #716, #345, #95, #425, #223, #796, #624, #178, #403, #258, #461, #241, #590, #478, #923, #912, #765, #791, #876 ) ) ;
#668 = CARTESIAN_POINT ( 'NONE',  ( 27.00000000000000000, -6.000000000000000000, 3.700000000000002842 ) ) ;
#669 = ORIENTED_EDGE ( 'NONE', *, *, #506, .T. ) ;
#670 = ORIENTED_EDGE ( 'NONE', *, *, #191, .T. ) ;
#671 = CC_DESIGN_APPROVAL ( #385, ( #206 ) ) ;
#672 = PERSON_AND_ORGANIZATION_ROLE ( 'creator' ) ;
#673 = DIRECTION ( 'NONE',  ( 1.000000000000000000, 0.000000000000000000, 0.000000000000000000 ) ) ;
#674 = ORIENTED_EDGE ( 'NONE', *, *, #852, .F. ) ;
#675 = EDGE_CURVE ( 'NONE', #116, #399, #664, .T. ) ;
#676 = CARTESIAN_POINT ( 'NONE',  ( 6.000000000000000000, 0.000000000000000000, 2.500000000000000000 ) ) ;
#677 = CARTESIAN_POINT ( 'NONE',  ( -7.200000000000000178, 0.000000000000000000, 2.500000000000000000 ) ) ;
#678 = AXIS2_PLACEMENT_3D ( 'NONE', #89, #424, #714 ) ;
#679 = ORIENTED_EDGE ( 'NONE', *, *, #745, .T. ) ;
#680 = CARTESIAN_POINT ( 'NONE',  ( -20.32499999999999929, 0.000000000000000000, 2.500000000000000000 ) ) ;
#681 = DIRECTION ( 'NONE',  ( 1.000000000000000000, 0.000000000000000000, 0.000000000000000000 ) ) ;
#682 = VERTEX_POINT ( 'NONE', #680 ) ;
#683 = ORIENTED_EDGE ( 'NONE', *, *, #102, .T. ) ;
#684 = AXIS2_PLACEMENT_3D ( 'NONE', #572, #851, #299 ) ;
#685 = DIRECTION ( 'NONE',  ( 0.000000000000000000, 0.000000000000000000, 1.000000000000000000 ) ) ;
#686 = FACE_OUTER_BOUND ( 'NONE', #106, .T. ) ;
#687 = ORIENTED_EDGE ( 'NONE', *, *, #614, .T. ) ;
#688 = DIRECTION ( 'NONE',  ( -1.000000000000000000, 0.000000000000000000, 0.000000000000000000 ) ) ;
#689 = VERTEX_POINT ( 'NONE', #893 ) ;
#690 = ORIENTED_EDGE ( 'NONE', *, *, #506, .F. ) ;
#691 = CARTESIAN_POINT ( 'NONE',  ( -6.000000000000000000, 0.000000000000000000, 0.000000000000000000 ) ) ;
#692 = DIRECTION ( 'NONE',  ( 0.000000000000000000, 0.000000000000000000, -1.000000000000000000 ) ) ;
#693 = EDGE_CURVE ( 'NONE', #632, #267, #553, .T. ) ;
#694 = EDGE_LOOP ( 'NONE', ( #323, #309, #326, #312 ) ) ;
#695 = CARTESIAN_POINT ( 'NONE',  ( 15.52499999999999680, 0.000000000000000000, 2.500000000000000000 ) ) ;
#696 = AXIS2_PLACEMENT_3D ( 'NONE', #813, #819, #170 ) ;
#697 = ORIENTED_EDGE ( 'NONE', *, *, #168, .F. ) ;
#698 = ORIENTED_EDGE ( 'NONE', *, *, #895, .F. ) ;
#699 = DIRECTION ( 'NONE',  ( 0.000000000000000000, 0.000000000000000000, 1.000000000000000000 ) ) ;
#700 = VERTEX_POINT ( 'NONE', #38 ) ;
#701 = DIRECTION ( 'NONE',  ( 1.000000000000000000, 0.000000000000000000, 0.000000000000000000 ) ) ;
#702 = ORIENTED_EDGE ( 'NONE', *, *, #449, .F. ) ;
#703 = CYLINDRICAL_SURFACE ( 'NONE', #408, 1.199999999999999734 ) ;
#704 = CARTESIAN_POINT ( 'NONE',  ( -25.00000000000000000, 4.000000000000000000, 3.700000000000001954 ) ) ;
#705 = EDGE_CURVE ( 'NONE', #268, #7, #207, .T. ) ;
#706 = ORIENTED_EDGE ( 'NONE', *, *, #564, .F. ) ;
#707 = DIRECTION ( 'NONE',  ( -1.000000000000000000, 0.000000000000000000, 0.000000000000000000 ) ) ;
#708 = CYLINDRICAL_SURFACE ( 'NONE', #900, 2.475000000000001421 ) ;
#709 = AXIS2_PLACEMENT_3D ( 'NONE', #317, #596, #525 ) ;
#710 = AXIS2_PLACEMENT_3D ( 'NONE', #540, #834, #899 ) ;
#711 = ORIENTED_EDGE ( 'NONE', *, *, #266, .F. ) ;
#712 = CC_DESIGN_PERSON_AND_ORGANIZATION_ASSIGNMENT ( #222, #503, ( #413 ) ) ;
#713 = FACE_BOUND ( 'NONE', #589, .T. ) ;
#714 = DIRECTION ( 'NONE',  ( -1.000000000000000000, 0.000000000000000000, 0.000000000000000000 ) ) ;
#715 = CARTESIAN_POINT ( 'NONE',  ( 27.00000000000000000, -6.000000000000000000, 3.700000000000002842 ) ) ;
#716 = ADVANCED_FACE ( 'NONE', ( #610 ), #324, .F. ) ;
#717 = LOCAL_TIME ( 19, 9, 12.00000000000000000, #176 ) ;
#718 = CARTESIAN_POINT ( 'NONE',  ( -20.32499999999999929, 0.000000000000000000, 2.500000000000000000 ) ) ;
#719 = AXIS2_PLACEMENT_3D ( 'NONE', #152, #347, #501 ) ;
#720 = COORDINATED_UNIVERSAL_TIME_OFFSET ( 6, 0, .BEHIND. ) ;
#721 = ORIENTED_EDGE ( 'NONE', *, *, #808, .T. ) ;
#722 = FACE_BOUND ( 'NONE', #346, .T. ) ;
#723 = CARTESIAN_POINT ( 'NONE',  ( 19.19999999999999929, 1.469576158976823306E-16, 3.700000000000001954 ) ) ;
#724 = EDGE_CURVE ( 'NONE', #700, #889, #365, .T. ) ;
#725 = CIRCLE ( 'NONE', #776, 2.475000000000001421 ) ;
#726 = DIRECTION ( 'NONE',  ( 0.000000000000000000, 0.000000000000000000, 1.000000000000000000 ) ) ;
#727 = DIRECTION ( 'NONE',  ( 0.000000000000000000, 0.000000000000000000, 1.000000000000000000 ) ) ;
#728 = ORIENTED_EDGE ( 'NONE', *, *, #885, .T. ) ;
#729 = DIRECTION ( 'NONE',  ( 1.000000000000000000, 0.000000000000000000, 0.000000000000000000 ) ) ;
#730 = FACE_BOUND ( 'NONE', #625, .T. ) ;
#731 = APPROVAL_PERSON_ORGANIZATION ( #428, #535, #499 ) ;
#732 = EDGE_CURVE ( 'NONE', #666, #229, #52, .T. ) ;
#733 = CARTESIAN_POINT ( 'NONE',  ( 20.47500000000000142, 3.031000827889701228E-16, 2.500000000000000000 ) ) ;
#734 = CARTESIAN_POINT ( 'NONE',  ( 6.000000000000000000, 0.000000000000000000, 2.500000000000000000 ) ) ;
#735 = ORIENTED_EDGE ( 'NONE', *, *, #751, .F. ) ;
#736 = PERSON ( 'UNSPECIFIED', 'UNSPECIFIED', 'UNSPECIFIED', ('UNSPECIFIED'), ('UNSPECIFIED'), ('UNSPECIFIED') ) ;
#737 = EDGE_CURVE ( 'NONE', #818, #689, #471, .T. ) ;
#738 = CIRCLE ( 'NONE', #754, 1.199999999999999734 ) ;
#739 = AXIS2_PLACEMENT_3D ( 'NONE', #43, #546, #840 ) ;
#740 = PERSON_AND_ORGANIZATION_ROLE ( 'classification_officer' ) ;
#741 = DIRECTION ( 'NONE',  ( 1.000000000000000000, 0.000000000000000000, 0.000000000000000000 ) ) ;
#742 = AXIS2_PLACEMENT_3D ( 'NONE', #847, #124, #701 ) ;
#743 = CALENDAR_DATE ( 2026, 28, 9 ) ;
#744 = DIRECTION ( 'NONE',  ( 0.000000000000000000, -0.000000000000000000, 1.000000000000000000 ) ) ;
#745 = EDGE_CURVE ( 'NONE', #764, #233, #221, .T. ) ;
#746 = VERTEX_POINT ( 'NONE', #767 ) ;
#747 = VERTEX_POINT ( 'NONE', #759 ) ;
#748 = APPROVAL_DATE_TIME ( #432, #568 ) ;
#749 = CARTESIAN_POINT ( 'NONE',  ( -27.00000000000000000, 6.000000000000000000, 3.700000000000002842 ) ) ;
#750 = EDGE_LOOP ( 'NONE', ( #609, #843 ) ) ;
#751 = EDGE_CURVE ( 'NONE', #921, #764, #269, .T. ) ;
#752 = LINE ( 'NONE', #484, #616 ) ;
#753 = DIRECTION ( 'NONE',  ( 0.000000000000000000, 0.000000000000000000, 1.000000000000000000 ) ) ;
#754 = AXIS2_PLACEMENT_3D ( 'NONE', #359, #364, #810 ) ;
#755 = VERTEX_POINT ( 'NONE', #202 ) ;
#756 = ORIENTED_EDGE ( 'NONE', *, *, #296, .T. ) ;
#757 = EDGE_CURVE ( 'NONE', #233, #764, #497, .T. ) ;
#758 = CIRCLE ( 'NONE', #292, 0.7500000000000006661 ) ;
#759 = CARTESIAN_POINT ( 'NONE',  ( -16.80000000000000071, 1.469576158976823306E-16, 2.500000000000000000 ) ) ;
#760 = LINE ( 'NONE', #270, #208 ) ;
#761 = FACE_OUTER_BOUND ( 'NONE', #915, .T. ) ;
#762 = CARTESIAN_POINT ( 'NONE',  ( 18.00000000000000000, 0.000000000000000000, 2.500000000000000000 ) ) ;
#763 = ORIENTED_EDGE ( 'NONE', *, *, #72, .T. ) ;
#764 = VERTEX_POINT ( 'NONE', #419 ) ;
#765 = ADVANCED_FACE ( 'NONE', ( #212 ), #703, .F. ) ;
#766 = CIRCLE ( 'NONE', #684, 0.7500000000000006661 ) ;
#767 = CARTESIAN_POINT ( 'NONE',  ( 16.80000000000000071, 0.000000000000000000, 3.700000000000001954 ) ) ;
#768 = DIRECTION ( 'NONE',  ( 1.000000000000000000, 0.000000000000000000, 0.000000000000000000 ) ) ;
#769 = DIRECTION ( 'NONE',  ( 1.000000000000000000, 0.000000000000000000, 0.000000000000000000 ) ) ;
#770 = LINE ( 'NONE', #536, #112 ) ;
#771 = ORIENTED_EDGE ( 'NONE', *, *, #360, .T. ) ;
#772 = EDGE_LOOP ( 'NONE', ( #421, #702 ) ) ;
#773 = CARTESIAN_POINT ( 'NONE',  ( 6.000000000000000000, 0.000000000000000000, 2.500000000000000000 ) ) ;
#774 = CARTESIAN_POINT ( 'NONE',  ( -18.00000000000000000, 0.000000000000000000, 0.000000000000000000 ) ) ;
#775 = PLANE ( 'NONE',  #850 ) ;
#776 = AXIS2_PLACEMENT_3D ( 'NONE', #533, #835, #329 ) ;
#777 = ORIENTED_EDGE ( 'NONE', *, *, #737, .F. ) ;
#778 = FACE_OUTER_BOUND ( 'NONE', #19, .T. ) ;
#779 = ORIENTED_EDGE ( 'NONE', *, *, #436, .F. ) ;
#780 = CARTESIAN_POINT ( 'NONE',  ( -6.000000000000000000, 0.000000000000000000, 3.700000000000001954 ) ) ;
#781 = ADVANCED_FACE ( 'NONE', ( #415 ), #918, .F. ) ;
#782 = ORIENTED_EDGE ( 'NONE', *, *, #83, .F. ) ;
#783 = DIRECTION ( 'NONE',  ( -1.000000000000000000, 0.000000000000000000, 0.000000000000000000 ) ) ;
#784 = AXIS2_PLACEMENT_3D ( 'NONE', #1, #363, #291 ) ;
#785 = CARTESIAN_POINT ( 'NONE',  ( -15.67499999999999716, 2.847303808017596928E-16, 0.000000000000000000 ) ) ;
#786 = ORIENTED_EDGE ( 'NONE', *, *, #246, .F. ) ;
#787 = CARTESIAN_POINT ( 'NONE',  ( 19.19999999999999929, 1.469576158976823306E-16, 3.700000000000001954 ) ) ;
#788 = DIRECTION ( 'NONE',  ( 1.000000000000000000, 0.000000000000000000, 0.000000000000000000 ) ) ;
#789 = CIRCLE ( 'NONE', #375, 1.199999999999999734 ) ;
#790 = VECTOR ( 'NONE', #122, 1000.000000000000000 ) ;
#791 = ADVANCED_FACE ( 'NONE', ( #855 ), #638, .F. ) ;
#792 = CARTESIAN_POINT ( 'NONE',  ( 6.000000000000000000, 0.000000000000000000, 2.500000000000000000 ) ) ;
#793 = CARTESIAN_POINT ( 'NONE',  ( -25.75000000000000355, 4.000000000000000000, 3.700000000000001954 ) ) ;
#794 = AXIS2_PLACEMENT_3D ( 'NONE', #824, #612, #183 ) ;
#795 = CALENDAR_DATE ( 2026, 28, 9 ) ;
#796 = ADVANCED_FACE ( 'NONE', ( #633, #722, #65, #139, #713, #566 ), #430, .T. ) ;
#797 = LINE ( 'NONE', #426, #591 ) ;
#798 = LOCAL_TIME ( 19, 9, 12.00000000000000000, #720 ) ;
#799 = FACE_OUTER_BOUND ( 'NONE', #477, .T. ) ;
#800 = DIRECTION ( 'NONE',  ( 0.000000000000000000, 0.000000000000000000, 1.000000000000000000 ) ) ;
#801 = DIRECTION ( 'NONE',  ( -1.000000000000000000, 0.000000000000000000, -0.000000000000000000 ) ) ;
#802 = EDGE_LOOP ( 'NONE', ( #203, #376, #276, #786 ) ) ;
#803 = VECTOR ( 'NONE', #431, 1000.000000000000000 ) ;
#804 = CARTESIAN_POINT ( 'NONE',  ( -3.625000000000000000, 2.908536147974963713E-16, 2.500000000000000000 ) ) ;
#805 = CARTESIAN_POINT ( 'NONE',  ( -7.200000000000000178, 0.000000000000000000, 3.700000000000001954 ) ) ;
#806 = ORIENTED_EDGE ( 'NONE', *, *, #815, .F. ) ;
#807 = VECTOR ( 'NONE', #352, 1000.000000000000000 ) ;
#808 = EDGE_CURVE ( 'NONE', #626, #267, #350, .T. ) ;
#809 = FACE_OUTER_BOUND ( 'NONE', #515, .T. ) ;
#810 = DIRECTION ( 'NONE',  ( 1.000000000000000000, 0.000000000000000000, 0.000000000000000000 ) ) ;
#811 = CC_DESIGN_SECURITY_CLASSIFICATION ( #165, ( #197 ) ) ;
#812 = CALENDAR_DATE ( 2026, 28, 9 ) ;
#813 = CARTESIAN_POINT ( 'NONE',  ( 18.00000000000000000, 0.000000000000000000, 2.500000000000000000 ) ) ;
#814 = UNCERTAINTY_MEASURE_WITH_UNIT (LENGTH_MEASURE( 1.000000000000000082E-05 ), #164, 'distance_accuracy_value', 'NONE');
#815 = EDGE_CURVE ( 'NONE', #626, #384, #217, .T. ) ;
#816 = CIRCLE ( 'NONE', #556, 2.425000000000000266 ) ;
#817 = CARTESIAN_POINT ( 'NONE',  ( 4.800000000000000711, 0.000000000000000000, 3.700000000000001954 ) ) ;
#818 = VERTEX_POINT ( 'NONE', #558 ) ;
#819 = DIRECTION ( 'NONE',  ( 0.000000000000000000, 0.000000000000000000, 1.000000000000000000 ) ) ;
#820 = EDGE_LOOP ( 'NONE', ( #470, #892, #468, #297 ) ) ;
#821 = AXIS2_PLACEMENT_3D ( 'NONE', #134, #726, #729 ) ;
#822 = DIRECTION ( 'NONE',  ( 0.000000000000000000, 1.000000000000000000, 0.000000000000000000 ) ) ;
#823 = CYLINDRICAL_SURFACE ( 'NONE', #18, 2.375000000000000444 ) ;
#824 = CARTESIAN_POINT ( 'NONE',  ( -18.00000000000000000, 0.000000000000000000, 2.500000000000000000 ) ) ;
#825 = EDGE_CURVE ( 'NONE', #301, #41, #576, .T. ) ;
#826 = CARTESIAN_POINT ( 'NONE',  ( 27.00000000000000000, -6.000000000000000000, 0.000000000000000000 ) ) ;
#827 = CARTESIAN_POINT ( 'NONE',  ( 6.000000000000000000, 0.000000000000000000, 3.700000000000001954 ) ) ;
#828 = VECTOR ( 'NONE', #395, 1000.000000000000000 ) ;
#829 = VERTEX_POINT ( 'NONE', #75 ) ;
#830 = CYLINDRICAL_SURFACE ( 'NONE', #508, 1.199999999999999734 ) ;
#831 = EDGE_CURVE ( 'NONE', #278, #829, #766, .T. ) ;
#832 = ORIENTED_EDGE ( 'NONE', *, *, #861, .F. ) ;
#833 = ORIENTED_EDGE ( 'NONE', *, *, #351, .F. ) ;
#834 = DIRECTION ( 'NONE',  ( 1.000000000000000000, 0.000000000000000000, 0.000000000000000000 ) ) ;
#835 = DIRECTION ( 'NONE',  ( 0.000000000000000000, 0.000000000000000000, 1.000000000000000000 ) ) ;
#836 = DIRECTION ( 'NONE',  ( 0.000000000000000000, 0.000000000000000000, -1.000000000000000000 ) ) ;
#837 = LINE ( 'NONE', #555, #378 ) ;
#838 = ORIENTED_EDGE ( 'NONE', *, *, #135, .T. ) ;
#839 = ORIENTED_EDGE ( 'NONE', *, *, #552, .T. ) ;
#840 = DIRECTION ( 'NONE',  ( 1.000000000000000000, 0.000000000000000000, 0.000000000000000000 ) ) ;
#841 = ORIENTED_EDGE ( 'NONE', *, *, #242, .T. ) ;
#842 = FACE_BOUND ( 'NONE', #209, .T. ) ;
#843 = ORIENTED_EDGE ( 'NONE', *, *, #191, .F. ) ;
#844 = EDGE_CURVE ( 'NONE', #829, #211, #797, .T. ) ;
#845 = DIRECTION ( 'NONE',  ( -0.000000000000000000, -0.000000000000000000, -1.000000000000000000 ) ) ;
#846 = EDGE_LOOP ( 'NONE', ( #735, #163, #683, #483 ) ) ;
#847 = CARTESIAN_POINT ( 'NONE',  ( -6.000000000000000000, 0.000000000000000000, 2.500000000000000000 ) ) ;
#848 = CIRCLE ( 'NONE', #434, 1.199999999999999734 ) ;
#849 = ORIENTED_EDGE ( 'NONE', *, *, #575, .T. ) ;
#850 = AXIS2_PLACEMENT_3D ( 'NONE', #543, #196, #405 ) ;
#851 = DIRECTION ( 'NONE',  ( 0.000000000000000000, 0.000000000000000000, 1.000000000000000000 ) ) ;
#852 = EDGE_CURVE ( 'NONE', #370, #632, #353, .T. ) ;
#853 = FACE_OUTER_BOUND ( 'NONE', #772, .T. ) ;
#854 = ORIENTED_EDGE ( 'NONE', *, *, #153, .T. ) ;
#855 = FACE_OUTER_BOUND ( 'NONE', #240, .T. ) ;
#856 = CIRCLE ( 'NONE', #119, 2.375000000000000000 ) ;
#857 = DIRECTION ( 'NONE',  ( 0.000000000000000000, 0.000000000000000000, 1.000000000000000000 ) ) ;
#858 = DIRECTION ( 'NONE',  ( 0.000000000000000000, 0.000000000000000000, -1.000000000000000000 ) ) ;
#859 = CARTESIAN_POINT ( 'NONE',  ( -18.00000000000000000, 0.000000000000000000, 3.700000000000001954 ) ) ;
#860 = CIRCLE ( 'NONE', #482, 2.425000000000000266 ) ;
#861 = EDGE_CURVE ( 'NONE', #343, #747, #641, .T. ) ;
#862 = AXIS2_PLACEMENT_3D ( 'NONE', #619, #342, #275 ) ;
#863 = DIRECTION ( 'NONE',  ( -0.000000000000000000, -0.000000000000000000, -1.000000000000000000 ) ) ;
#864 = DIRECTION ( 'NONE',  ( 0.000000000000000000, 0.000000000000000000, 1.000000000000000000 ) ) ;
#865 = APPROVAL_STATUS ( 'not_yet_approved' ) ;
#866 = DIRECTION ( 'NONE',  ( -0.000000000000000000, -0.000000000000000000, -1.000000000000000000 ) ) ;
#867 = CARTESIAN_POINT ( 'NONE',  ( -7.200000000000000178, 0.000000000000000000, 3.700000000000001954 ) ) ;
#868 = ORIENTED_EDGE ( 'NONE', *, *, #316, .F. ) ;
#869 =( NAMED_UNIT ( * ) SI_UNIT ( $, .STERADIAN. ) SOLID_ANGLE_UNIT ( ) );
#870 = EDGE_CURVE ( 'NONE', #689, #386, #252, .T. ) ;
#871 = CARTESIAN_POINT ( 'NONE',  ( 27.00000000000000000, 6.000000000000000000, 0.000000000000000000 ) ) ;
#872 = EDGE_LOOP ( 'NONE', ( #271, #126 ) ) ;
#873 = AXIS2_PLACEMENT_3D ( 'NONE', #734, #601, #443 ) ;
#874 = VECTOR ( 'NONE', #228, 1000.000000000000000 ) ;
#875 = LINE ( 'NONE', #388, #128 ) ;
#876 = ADVANCED_FACE ( 'NONE', ( #778 ), #224, .F. ) ;
#877 = EDGE_LOOP ( 'NONE', ( #832, #854, #466, #897 ) ) ;
#878 = CIRCLE ( 'NONE', #235, 1.199999999999999734 ) ;
#879 = ORIENTED_EDGE ( 'NONE', *, *, #647, .T. ) ;
#880 = PERSON_AND_ORGANIZATION_ROLE ( 'creator' ) ;
#881 = DIRECTION ( 'NONE',  ( 1.000000000000000000, 0.000000000000000000, 0.000000000000000000 ) ) ;
#882 = APPLICATION_PROTOCOL_DEFINITION ( 'international standard', 'config_control_design', 1994, #30 ) ;
#883 = CARTESIAN_POINT ( 'NONE',  ( -18.00000000000000000, 0.000000000000000000, 0.000000000000000000 ) ) ;
#884 = ORIENTED_EDGE ( 'NONE', *, *, #564, .T. ) ;
#885 = EDGE_CURVE ( 'NONE', #386, #689, #357, .T. ) ;
#886 = VECTOR ( 'NONE', #642, 1000.000000000000000 ) ;
#887 = PERSON_AND_ORGANIZATION ( #736, #215 ) ;
#888 = PLANE ( 'NONE',  #66 ) ;
#889 = VERTEX_POINT ( 'NONE', #227 ) ;
#890 = DIRECTION ( 'NONE',  ( 0.000000000000000000, 0.000000000000000000, -1.000000000000000000 ) ) ;
#891 = CARTESIAN_POINT ( 'NONE',  ( -18.00000000000000000, 0.000000000000000000, 2.500000000000000000 ) ) ;
#892 = ORIENTED_EDGE ( 'NONE', *, *, #751, .T. ) ;
#893 = CARTESIAN_POINT ( 'NONE',  ( -4.800000000000000711, 1.469576158976823306E-16, 2.500000000000000000 ) ) ;
#894 = DIRECTION ( 'NONE',  ( -0.000000000000000000, -0.000000000000000000, -1.000000000000000000 ) ) ;
#895 = EDGE_CURVE ( 'NONE', #399, #116, #42, .T. ) ;
#896 = EDGE_LOOP ( 'NONE', ( #335, #17, #322, #61 ) ) ;
#897 = ORIENTED_EDGE ( 'NONE', *, *, #330, .T. ) ;
#898 = ORIENTED_EDGE ( 'NONE', *, *, #141, .T. ) ;
#899 = DIRECTION ( 'NONE',  ( 0.000000000000000000, 0.000000000000000000, -1.000000000000000000 ) ) ;
#900 = AXIS2_PLACEMENT_3D ( 'NONE', #762, #63, #136 ) ;
#901 = CARTESIAN_POINT ( 'NONE',  ( -18.00000000000000000, 0.000000000000000000, 2.500000000000000000 ) ) ;
#902 = AXIS2_PLACEMENT_3D ( 'NONE', #676, #319, #33 ) ;
#903 = FACE_OUTER_BOUND ( 'NONE', #917, .T. ) ;
#904 = DIRECTION ( 'NONE',  ( -1.000000000000000000, 0.000000000000000000, 0.000000000000000000 ) ) ;
#905 = VERTEX_POINT ( 'NONE', #654 ) ;
#906 = ORIENTED_EDGE ( 'NONE', *, *, #614, .F. ) ;
#907 = CARTESIAN_POINT ( 'NONE',  ( 6.000000000000000000, 0.000000000000000000, 2.500000000000000000 ) ) ;
#908 = DIRECTION ( 'NONE',  ( 0.000000000000000000, 0.000000000000000000, 1.000000000000000000 ) ) ;
#909 = VERTEX_POINT ( 'NONE', #804 ) ;
#910 = LINE ( 'NONE', #695, #36 ) ;
#911 = ORIENTED_EDGE ( 'NONE', *, *, #153, .F. ) ;
#912 = ADVANCED_FACE ( 'NONE', ( #809 ), #160, .F. ) ;
#913 = EDGE_LOOP ( 'NONE', ( #444, #327 ) ) ;
#914 = CARTESIAN_POINT ( 'NONE',  ( 8.425000000000000711, 2.969768487932331484E-16, 2.500000000000000000 ) ) ;
#915 = EDGE_LOOP ( 'NONE', ( #648, #841, #593, #868 ) ) ;
#916 = DIRECTION ( 'NONE',  ( 0.000000000000000000, 0.000000000000000000, 1.000000000000000000 ) ) ;
#917 = EDGE_LOOP ( 'NONE', ( #200, #451, #456, #367 ) ) ;
#918 = CYLINDRICAL_SURFACE ( 'NONE', #294, 2.425000000000000266 ) ;
#919 = FACE_BOUND ( 'NONE', #216, .T. ) ;
#920 = VECTOR ( 'NONE', #77, 1000.000000000000000 ) ;
#921 = VERTEX_POINT ( 'NONE', #733 ) ;
#922 = CARTESIAN_POINT ( 'NONE',  ( 0.000000000000000000, 0.000000000000000000, 0.000000000000000000 ) ) ;
#923 = ADVANCED_FACE ( 'NONE', ( #86 ), #372, .F. ) ;
#924 = CARTESIAN_POINT ( 'NONE',  ( -3.625000000000000000, 2.908536147974963713E-16, 2.500000000000000000 ) ) ;
#925 = CARTESIAN_POINT ( 'NONE',  ( 6.000000000000000000, 0.000000000000000000, 3.700000000000001954 ) ) ;
#926 = CARTESIAN_POINT ( 'NONE',  ( -25.00000000000000000, 4.000000000000000000, 3.700000000000001954 ) ) ;
#927 = EDGE_CURVE ( 'NONE', #491, #909, #856, .T. ) ;
ENDSEC;
END-ISO-10303-21;
