ISO-10303-21;
HEADER;
FILE_DESCRIPTION (( 'STEP AP203' ),
    '1' );
FILE_NAME ('FIT-003_MG996R_spline_socket_trial.step',
    '2026-09-29T00:09:08',
    ( '' ),
    ( '' ),
    'SwSTEP 2.0',
    'SolidWorks 2026',
    '' );
FILE_SCHEMA (( 'CONFIG_CONTROL_DESIGN' ));
ENDSEC;

DATA;
#1 = FACE_OUTER_BOUND ( 'NONE', #48, .T. ) ;
#2 = EDGE_CURVE ( 'NONE', #285, #781, #185, .T. ) ;
#3 = VECTOR ( 'NONE', #109, 1000.000000000000000 ) ;
#4 = ORIENTED_EDGE ( 'NONE', *, *, #398, .F. ) ;
#5 = DIRECTION ( 'NONE',  ( 0.000000000000000000, 0.000000000000000000, 1.000000000000000000 ) ) ;
#6 = CARTESIAN_POINT ( 'NONE',  ( -20.80000000000000071, 2.081899558550500526E-16, 4.000000000000003553 ) ) ;
#7 = FACE_BOUND ( 'NONE', #849, .T. ) ;
#8 = EDGE_LOOP ( 'NONE', ( #834, #416 ) ) ;
#9 = EDGE_CURVE ( 'NONE', #559, #760, #243, .T. ) ;
#10 = CARTESIAN_POINT ( 'NONE',  ( -22.50000000000000000, 0.000000000000000000, 3.000000000000007105 ) ) ;
#11 = APPROVAL_ROLE ( '' ) ;
#12 = CARTESIAN_POINT ( 'NONE',  ( -32.00000000000000000, -7.000000000000000000, 4.000000000000007105 ) ) ;
#13 = CIRCLE ( 'NONE', #86, 1.700000000000000178 ) ;
#14 = DIRECTION ( 'NONE',  ( 1.000000000000000000, 0.000000000000000000, 0.000000000000000000 ) ) ;
#15 = VERTEX_POINT ( 'NONE', #324 ) ;
#16 = CARTESIAN_POINT ( 'NONE',  ( 32.00000000000000000, 7.000000000000000000, 4.000000000000007105 ) ) ;
#17 = CC_DESIGN_DATE_AND_TIME_ASSIGNMENT ( #84, #368, ( #74 ) ) ;
#18 = LINE ( 'NONE', #303, #203 ) ;
#19 = CARTESIAN_POINT ( 'NONE',  ( 5.799999999999999822, 0.000000000000000000, 4.000000000000003553 ) ) ;
#20 = ORIENTED_EDGE ( 'NONE', *, *, #695, .F. ) ;
#21 = DIRECTION ( 'NONE',  ( -1.000000000000000000, 0.000000000000000000, 0.000000000000000000 ) ) ;
#22 = PERSON_AND_ORGANIZATION ( #542, #551 ) ;
#23 = DIRECTION ( 'NONE',  ( 1.000000000000000000, 0.000000000000000000, 0.000000000000000000 ) ) ;
#24 = CIRCLE ( 'NONE', #898, 2.999999999999999112 ) ;
#25 = DIRECTION ( 'NONE',  ( 1.000000000000000000, 0.000000000000000000, 0.000000000000000000 ) ) ;
#26 = ORIENTED_EDGE ( 'NONE', *, *, #55, .T. ) ;
#27 = CARTESIAN_POINT ( 'NONE',  ( 4.549999999999998934, 0.000000000000000000, 3.000000000000007105 ) ) ;
#28 = APPROVAL_STATUS ( 'not_yet_approved' ) ;
#29 = CARTESIAN_POINT ( 'NONE',  ( 24.19999999999999929, 2.081899558550500526E-16, 4.000000000000003553 ) ) ;
#30 = DIRECTION ( 'NONE',  ( 1.000000000000000000, 0.000000000000000000, 0.000000000000000000 ) ) ;
#31 = APPLICATION_PROTOCOL_DEFINITION ( 'international standard', 'config_control_design', 1994, #566 ) ;
#32 = CIRCLE ( 'NONE', #920, 2.849999999999998312 ) ;
#33 = CARTESIAN_POINT ( 'NONE',  ( 22.50000000000000000, 0.000000000000000000, 4.000000000000003553 ) ) ;
#34 = ADVANCED_FACE ( 'NONE', ( #896 ), #679, .F. ) ;
#35 = LOCAL_TIME ( 19, 9, 8.000000000000000000, #805 ) ;
#36 = DIRECTION ( 'NONE',  ( -0.000000000000000000, -0.000000000000000000, -1.000000000000000000 ) ) ;
#37 = EDGE_CURVE ( 'NONE', #488, #458, #187, .T. ) ;
#38 = CARTESIAN_POINT ( 'NONE',  ( 32.00000000000000000, 7.000000000000000000, 4.000000000000007105 ) ) ;
#39 = EDGE_CURVE ( 'NONE', #781, #115, #546, .T. ) ;
#40 = MANIFOLD_SOLID_BREP ( 'Orientation_mark_at_smallest_socket', #549 ) ;
#41 = AXIS2_PLACEMENT_3D ( 'NONE', #284, #78, #21 ) ;
#42 = CARTESIAN_POINT ( 'NONE',  ( 22.50000000000000000, 0.000000000000000000, 0.000000000000000000 ) ) ;
#43 = VERTEX_POINT ( 'NONE', #327 ) ;
#44 = DIRECTION ( 'NONE',  ( -1.000000000000000000, 0.000000000000000000, -0.000000000000000000 ) ) ;
#45 = EDGE_LOOP ( 'NONE', ( #553, #165, #71, #836 ) ) ;
#46 = AXIS2_PLACEMENT_3D ( 'NONE', #389, #858, #510 ) ;
#47 = FACE_BOUND ( 'NONE', #99, .T. ) ;
#48 = EDGE_LOOP ( 'NONE', ( #365, #565, #505, #830 ) ) ;
#49 = AXIS2_PLACEMENT_3D ( 'NONE', #699, #509, #490 ) ;
#50 = VERTEX_POINT ( 'NONE', #831 ) ;
#51 = ORIENTED_EDGE ( 'NONE', *, *, #103, .T. ) ;
#52 = ORIENTED_EDGE ( 'NONE', *, *, #877, .T. ) ;
#53 = CARTESIAN_POINT ( 'NONE',  ( 0.000000000000000000, 0.000000000000000000, 4.000000000000007105 ) ) ;
#54 = EDGE_LOOP ( 'NONE', ( #283, #51, #625, #349 ) ) ;
#55 = EDGE_CURVE ( 'NONE', #859, #218, #471, .T. ) ;
#56 = ORIENTED_EDGE ( 'NONE', *, *, #234, .F. ) ;
#57 = DIRECTION ( 'NONE',  ( -1.000000000000000000, 0.000000000000000000, 0.000000000000000000 ) ) ;
#58 = CIRCLE ( 'NONE', #662, 2.899999999999999911 ) ;
#59 = CARTESIAN_POINT ( 'NONE',  ( 7.500000000000000000, 0.000000000000000000, 3.000000000000007105 ) ) ;
#60 = ORIENTED_EDGE ( 'NONE', *, *, #197, .F. ) ;
#61 = ORIENTED_EDGE ( 'NONE', *, *, #329, .F. ) ;
#62 = EDGE_CURVE ( 'NONE', #693, #872, #526, .T. ) ;
#63 = EDGE_CURVE ( 'NONE', #406, #701, #636, .T. ) ;
#64 = DIRECTION ( 'NONE',  ( 1.000000000000000000, 0.000000000000000000, 0.000000000000000000 ) ) ;
#65 = FACE_OUTER_BOUND ( 'NONE', #926, .T. ) ;
#66 = ORIENTED_EDGE ( 'NONE', *, *, #502, .T. ) ;
#67 = CARTESIAN_POINT ( 'NONE',  ( -7.500000000000000000, 0.000000000000000000, 3.000000000000007105 ) ) ;
#68 = EDGE_LOOP ( 'NONE', ( #572, #766, #337, #383 ) ) ;
#69 = CARTESIAN_POINT ( 'NONE',  ( -22.50000000000000000, 0.000000000000000000, 3.000000000000007105 ) ) ;
#70 = DIRECTION ( 'NONE',  ( 0.000000000000000000, 0.000000000000000000, -1.000000000000000000 ) ) ;
#71 = ORIENTED_EDGE ( 'NONE', *, *, #329, .T. ) ;
#72 = DIRECTION ( 'NONE',  ( 0.000000000000000000, 0.000000000000000000, 1.000000000000000000 ) ) ;
#73 = CARTESIAN_POINT ( 'NONE',  ( -30.00000000000000000, 5.000000000000000000, 4.000000000000003553 ) ) ;
#74 = SECURITY_CLASSIFICATION ( '', '', #101 ) ;
#75 = ADVANCED_FACE ( 'NONE', ( #752 ), #331, .F. ) ;
#76 = CARTESIAN_POINT ( 'NONE',  ( -32.00000000000000000, 7.000000000000000000, 4.000000000000007105 ) ) ;
#77 = ORIENTED_EDGE ( 'NONE', *, *, #417, .T. ) ;
#78 = DIRECTION ( 'NONE',  ( 0.000000000000000000, 0.000000000000000000, -1.000000000000000000 ) ) ;
#79 = DATE_AND_TIME ( #385, #35 ) ;
#80 = LINE ( 'NONE', #425, #291 ) ;
#81 = CARTESIAN_POINT ( 'NONE',  ( 24.19999999999999929, 2.081899558550500526E-16, 3.000000000000007105 ) ) ;
#82 = ORIENTED_EDGE ( 'NONE', *, *, #754, .F. ) ;
#83 = DIRECTION ( 'NONE',  ( 0.000000000000000000, 0.000000000000000000, 1.000000000000000000 ) ) ;
#84 = DATE_AND_TIME ( #513, #514 ) ;
#85 = FACE_OUTER_BOUND ( 'NONE', #501, .T. ) ;
#86 = AXIS2_PLACEMENT_3D ( 'NONE', #788, #419, #64 ) ;
#87 = CIRCLE ( 'NONE', #486, 2.849999999999998312 ) ;
#88 = DIRECTION ( 'NONE',  ( 0.000000000000000000, 0.000000000000000000, 1.000000000000000000 ) ) ;
#89 = ORIENTED_EDGE ( 'NONE', *, *, #281, .T. ) ;
#90 = FACE_OUTER_BOUND ( 'NONE', #158, .T. ) ;
#91 = PERSON_AND_ORGANIZATION ( #542, #551 ) ;
#92 = DIRECTION ( 'NONE',  ( 0.000000000000000000, 0.000000000000000000, -1.000000000000000000 ) ) ;
#93 = DIRECTION ( 'NONE',  ( -1.000000000000000000, 0.000000000000000000, 0.000000000000000000 ) ) ;
#94 = EDGE_LOOP ( 'NONE', ( #4, #66, #77, #123 ) ) ;
#95 = FACE_OUTER_BOUND ( 'NONE', #558, .T. ) ;
#96 = FACE_OUTER_BOUND ( 'NONE', #404, .T. ) ;
#97 = CIRCLE ( 'NONE', #421, 2.950000000000001066 ) ;
#98 = CARTESIAN_POINT ( 'NONE',  ( -7.500000000000000000, 0.000000000000000000, 3.000000000000007105 ) ) ;
#99 = EDGE_LOOP ( 'NONE', ( #541, #632 ) ) ;
#100 = LINE ( 'NONE', #748, #228 ) ;
#101 = SECURITY_CLASSIFICATION_LEVEL ( 'unclassified' ) ;
#102 = CARTESIAN_POINT ( 'NONE',  ( -7.500000000000000000, 0.000000000000000000, 3.000000000000007105 ) ) ;
#103 = EDGE_CURVE ( 'NONE', #433, #424, #758, .T. ) ;
#104 = EDGE_CURVE ( 'NONE', #218, #517, #58, .T. ) ;
#105 = CARTESIAN_POINT ( 'NONE',  ( 5.799999999999999822, 0.000000000000000000, 4.000000000000003553 ) ) ;
#106 = AXIS2_PLACEMENT_3D ( 'NONE', #245, #879, #678 ) ;
#107 = EDGE_CURVE ( 'NONE', #867, #255, #903, .T. ) ;
#108 = DIRECTION ( 'NONE',  ( 0.000000000000000000, 0.000000000000000000, 1.000000000000000000 ) ) ;
#109 = DIRECTION ( 'NONE',  ( 1.000000000000000000, 0.000000000000000000, 0.000000000000000000 ) ) ;
#110 = ORIENTED_EDGE ( 'NONE', *, *, #577, .T. ) ;
#111 = VECTOR ( 'NONE', #523, 1000.000000000000000 ) ;
#112 = AXIS2_PLACEMENT_3D ( 'NONE', #453, #392, #886 ) ;
#113 = CARTESIAN_POINT ( 'NONE',  ( -29.25000000000000000, 5.000000000000000000, 4.000000000000003553 ) ) ;
#114 = AXIS2_PLACEMENT_3D ( 'NONE', #182, #615, #828 ) ;
#115 = VERTEX_POINT ( 'NONE', #322 ) ;
#116 = DIRECTION ( 'NONE',  ( 1.000000000000000000, 0.000000000000000000, 0.000000000000000000 ) ) ;
#117 = AXIS2_PLACEMENT_3D ( 'NONE', #343, #132, #641 ) ;
#118 = ORIENTED_EDGE ( 'NONE', *, *, #405, .F. ) ;
#119 = ORIENTED_EDGE ( 'NONE', *, *, #438, .F. ) ;
#120 = ORIENTED_EDGE ( 'NONE', *, *, #227, .T. ) ;
#121 = DIRECTION ( 'NONE',  ( 0.000000000000000000, 0.000000000000000000, 1.000000000000000000 ) ) ;
#122 = CIRCLE ( 'NONE', #650, 1.700000000000000178 ) ;
#123 = ORIENTED_EDGE ( 'NONE', *, *, #236, .T. ) ;
#124 = VERTEX_POINT ( 'NONE', #320 ) ;
#125 = LINE ( 'NONE', #12, #581 ) ;
#126 = CARTESIAN_POINT ( 'NONE',  ( 22.50000000000000000, 0.000000000000000000, 3.000000000000007105 ) ) ;
#127 = EDGE_CURVE ( 'NONE', #552, #285, #610, .T. ) ;
#128 = VERTEX_POINT ( 'NONE', #543 ) ;
#129 = VERTEX_POINT ( 'NONE', #113 ) ;
#130 = ADVANCED_FACE ( 'NONE', ( #397, #680, #47, #401, #478, #607 ), #887, .T. ) ;
#131 = CARTESIAN_POINT ( 'NONE',  ( -24.19999999999999929, 0.000000000000000000, 3.000000000000007105 ) ) ;
#132 = DIRECTION ( 'NONE',  ( 0.000000000000000000, 0.000000000000000000, 1.000000000000000000 ) ) ;
#133 = ORIENTED_EDGE ( 'NONE', *, *, #877, .F. ) ;
#134 = FACE_OUTER_BOUND ( 'NONE', #576, .T. ) ;
#135 = ORIENTED_EDGE ( 'NONE', *, *, #508, .F. ) ;
#136 = CIRCLE ( 'NONE', #741, 2.950000000000001066 ) ;
#137 = CARTESIAN_POINT ( 'NONE',  ( -20.80000000000000071, 2.081899558550500526E-16, 3.000000000000007105 ) ) ;
#138 = FACE_OUTER_BOUND ( 'NONE', #335, .T. ) ;
#139 = EDGE_LOOP ( 'NONE', ( #56, #413 ) ) ;
#140 = DIRECTION ( 'NONE',  ( 1.000000000000000000, 0.000000000000000000, 0.000000000000000000 ) ) ;
#141 = ADVANCED_FACE ( 'NONE', ( #847, #138 ), #624, .F. ) ;
#142 = CARTESIAN_POINT ( 'NONE',  ( -30.00000000000000000, 5.000000000000000000, 0.000000000000000000 ) ) ;
#143 = AXIS2_PLACEMENT_3D ( 'NONE', #884, #749, #462 ) ;
#144 = CARTESIAN_POINT ( 'NONE',  ( -32.00000000000000000, -7.000000000000000000, 0.000000000000000000 ) ) ;
#145 = ORIENTED_EDGE ( 'NONE', *, *, #577, .F. ) ;
#146 = DIRECTION ( 'NONE',  ( 0.000000000000000000, -0.000000000000000000, 1.000000000000000000 ) ) ;
#147 = MECHANICAL_CONTEXT ( 'NONE', #275, 'mechanical' ) ;
#148 = CARTESIAN_POINT ( 'NONE',  ( 20.80000000000000071, 0.000000000000000000, 4.000000000000003553 ) ) ;
#149 = CC_DESIGN_APPROVAL ( #663, ( #824 ) ) ;
#150 = PRODUCT_RELATED_PRODUCT_CATEGORY ( 'detail', '', ( #445 ) ) ;
#151 = CARTESIAN_POINT ( 'NONE',  ( 19.50000000000000000, 0.000000000000000000, 3.000000000000007105 ) ) ;
#152 = EDGE_LOOP ( 'NONE', ( #357, #697 ) ) ;
#153 = DIRECTION ( 'NONE',  ( 0.000000000000000000, 0.000000000000000000, 1.000000000000000000 ) ) ;
#154 = PERSON_AND_ORGANIZATION ( #542, #551 ) ;
#155 = CYLINDRICAL_SURFACE ( 'NONE', #371, 2.950000000000001066 ) ;
#156 = DESIGN_CONTEXT ( 'detailed design', #566, 'design' ) ;
#157 = LINE ( 'NONE', #364, #853 ) ;
#158 = EDGE_LOOP ( 'NONE', ( #631, #294, #924, #60 ) ) ;
#159 = DIRECTION ( 'NONE',  ( 0.000000000000000000, 0.000000000000000000, 1.000000000000000000 ) ) ;
#160 = APPROVAL_DATE_TIME ( #232, #355 ) ;
#161 = DIRECTION ( 'NONE',  ( 0.000000000000000000, 0.000000000000000000, 1.000000000000000000 ) ) ;
#162 = AXIS2_PLACEMENT_3D ( 'NONE', #67, #442, #428 ) ;
#163 = CIRCLE ( 'NONE', #241, 1.700000000000000178 ) ;
#164 = CARTESIAN_POINT ( 'NONE',  ( 32.00000000000000000, -7.000000000000000000, 4.000000000000007105 ) ) ;
#165 = ORIENTED_EDGE ( 'NONE', *, *, #398, .T. ) ;
#166 = CC_DESIGN_DATE_AND_TIME_ASSIGNMENT ( #661, #880, ( #824 ) ) ;
#167 =( LENGTH_UNIT ( ) NAMED_UNIT ( * ) SI_UNIT ( .MILLI., .METRE. ) );
#168 = APPLICATION_PROTOCOL_DEFINITION ( 'international standard', 'config_control_design', 1994, #275 ) ;
#169 = DIRECTION ( 'NONE',  ( -1.000000000000000000, -0.000000000000000000, -0.000000000000000000 ) ) ;
#170 = DIRECTION ( 'NONE',  ( 0.000000000000000000, 0.000000000000000000, 1.000000000000000000 ) ) ;
#171 = EDGE_LOOP ( 'NONE', ( #230, #765, #207, #183 ) ) ;
#172 = CARTESIAN_POINT ( 'NONE',  ( -7.500000000000000000, 0.000000000000000000, 4.000000000000003553 ) ) ;
#173 = CIRCLE ( 'NONE', #379, 1.700000000000000178 ) ;
#174 = DIRECTION ( 'NONE',  ( -1.000000000000000000, 0.000000000000000000, 0.000000000000000000 ) ) ;
#175 = ADVANCED_FACE ( 'NONE', ( #1 ), #338, .F. ) ;
#176 = AXIS2_PLACEMENT_3D ( 'NONE', #373, #516, #93 ) ;
#177 = DIRECTION ( 'NONE',  ( -1.000000000000000000, 0.000000000000000000, 0.000000000000000000 ) ) ;
#178 = ADVANCED_FACE ( 'NONE', ( #497, #914, #630, #7, #504, #65 ), #282, .F. ) ;
#179 = CIRCLE ( 'NONE', #409, 2.950000000000001066 ) ;
#180 = DIRECTION ( 'NONE',  ( 0.000000000000000000, 0.000000000000000000, -1.000000000000000000 ) ) ;
#181 = DIRECTION ( 'NONE',  ( -0.000000000000000000, -0.000000000000000000, -1.000000000000000000 ) ) ;
#182 = CARTESIAN_POINT ( 'NONE',  ( 7.500000000000000000, 0.000000000000000000, 4.000000000000003553 ) ) ;
#183 = ORIENTED_EDGE ( 'NONE', *, *, #9, .F. ) ;
#184 = EDGE_CURVE ( 'NONE', #910, #835, #710, .T. ) ;
#185 = LINE ( 'NONE', #612, #263 ) ;
#186 = CIRCLE ( 'NONE', #352, 0.7500000000000006661 ) ;
#187 = LINE ( 'NONE', #818, #391 ) ;
#188 = ORIENTED_EDGE ( 'NONE', *, *, #104, .F. ) ;
#189 = APPROVAL_PERSON_ORGANIZATION ( #719, #663, #239 ) ;
#190 = CARTESIAN_POINT ( 'NONE',  ( -32.00000000000000000, -7.000000000000000000, 4.000000000000007105 ) ) ;
#191 = EDGE_CURVE ( 'NONE', #840, #910, #658, .T. ) ;
#192 = ORIENTED_EDGE ( 'NONE', *, *, #302, .F. ) ;
#193 = CARTESIAN_POINT ( 'NONE',  ( -4.599999999999999645, 3.551475717527323832E-16, 0.000000000000000000 ) ) ;
#194 = VERTEX_POINT ( 'NONE', #348 ) ;
#195 = VERTEX_POINT ( 'NONE', #780 ) ;
#196 = LINE ( 'NONE', #720, #889 ) ;
#197 = EDGE_CURVE ( 'NONE', #840, #777, #205, .T. ) ;
#198 = EDGE_CURVE ( 'NONE', #717, #517, #564, .T. ) ;
#199 = LINE ( 'NONE', #76, #895 ) ;
#200 = VECTOR ( 'NONE', #709, 1000.000000000000000 ) ;
#201 = EDGE_LOOP ( 'NONE', ( #582, #809, #482, #135 ) ) ;
#202 = EDGE_LOOP ( 'NONE', ( #522, #272 ) ) ;
#203 = VECTOR ( 'NONE', #92, 1000.000000000000000 ) ;
#204 = FACE_OUTER_BOUND ( 'NONE', #351, .T. ) ;
#205 = LINE ( 'NONE', #580, #684 ) ;
#206 = ORIENTED_EDGE ( 'NONE', *, *, #561, .F. ) ;
#207 = ORIENTED_EDGE ( 'NONE', *, *, #603, .T. ) ;
#208 = DIRECTION ( 'NONE',  ( -1.000000000000000000, 0.000000000000000000, 0.000000000000000000 ) ) ;
#209 = VECTOR ( 'NONE', #70, 1000.000000000000000 ) ;
#210 = CARTESIAN_POINT ( 'NONE',  ( 32.00000000000000000, -7.000000000000000000, 4.000000000000007105 ) ) ;
#211 = ORIENTED_EDGE ( 'NONE', *, *, #396, .T. ) ;
#212 = ADVANCED_FACE ( 'NONE', ( #288 ), #491, .F. ) ;
#213 = CARTESIAN_POINT ( 'NONE',  ( -7.500000000000000000, 0.000000000000000000, 4.000000000000003553 ) ) ;
#214 = ORIENTED_EDGE ( 'NONE', *, *, #55, .F. ) ;
#215 = CIRCLE ( 'NONE', #258, 1.700000000000000178 ) ;
#216 = DIRECTION ( 'NONE',  ( 0.000000000000000000, 0.000000000000000000, -1.000000000000000000 ) ) ;
#217 = DIRECTION ( 'NONE',  ( 1.000000000000000000, 0.000000000000000000, 0.000000000000000000 ) ) ;
#218 = VERTEX_POINT ( 'NONE', #193 ) ;
#219 = FACE_OUTER_BOUND ( 'NONE', #742, .T. ) ;
#220 = AXIS2_PLACEMENT_3D ( 'NONE', #69, #216, #640 ) ;
#221 = DIRECTION ( 'NONE',  ( -0.000000000000000000, -0.000000000000000000, 1.000000000000000000 ) ) ;
#222 = DIRECTION ( 'NONE',  ( 0.000000000000000000, 0.000000000000000000, 1.000000000000000000 ) ) ;
#223 = EDGE_LOOP ( 'NONE', ( #214, #499, #916, #188 ) ) ;
#224 = DIRECTION ( 'NONE',  ( 0.000000000000000000, 0.000000000000000000, -1.000000000000000000 ) ) ;
#225 = COORDINATED_UNIVERSAL_TIME_OFFSET ( 6, 0, .BEHIND. ) ;
#226 = DIRECTION ( 'NONE',  ( 1.000000000000000000, 0.000000000000000000, 0.000000000000000000 ) ) ;
#227 = EDGE_CURVE ( 'NONE', #50, #867, #415, .T. ) ;
#228 = VECTOR ( 'NONE', #36, 1000.000000000000000 ) ;
#229 = CARTESIAN_POINT ( 'NONE',  ( -9.199999999999999289, 0.000000000000000000, 4.000000000000003553 ) ) ;
#230 = ORIENTED_EDGE ( 'NONE', *, *, #249, .F. ) ;
#231 = CARTESIAN_POINT ( 'NONE',  ( -30.00000000000000000, 5.000000000000000000, 4.000000000000003553 ) ) ;
#232 = DATE_AND_TIME ( #301, #907 ) ;
#233 = FACE_BOUND ( 'NONE', #511, .T. ) ;
#234 = EDGE_CURVE ( 'NONE', #729, #50, #774, .T. ) ;
#235 = DIRECTION ( 'NONE',  ( 1.000000000000000000, 0.000000000000000000, 0.000000000000000000 ) ) ;
#236 = EDGE_CURVE ( 'NONE', #915, #273, #173, .T. ) ;
#237 = ORIENTED_EDGE ( 'NONE', *, *, #665, .T. ) ;
#238 = CARTESIAN_POINT ( 'NONE',  ( -10.40000000000000036, 0.000000000000000000, 3.000000000000007105 ) ) ;
#239 = APPROVAL_ROLE ( '' ) ;
#240 = CARTESIAN_POINT ( 'NONE',  ( 22.50000000000000000, 0.000000000000000000, 3.000000000000007105 ) ) ;
#241 = AXIS2_PLACEMENT_3D ( 'NONE', #459, #384, #30 ) ;
#242 = DIRECTION ( 'NONE',  ( -0.000000000000000000, -0.000000000000000000, -1.000000000000000000 ) ) ;
#243 = CIRCLE ( 'NONE', #674, 0.7500000000000006661 ) ;
#244 = ORIENTED_EDGE ( 'NONE', *, *, #234, .T. ) ;
#245 = CARTESIAN_POINT ( 'NONE',  ( -22.50000000000000000, 0.000000000000000000, 3.000000000000007105 ) ) ;
#246 = PERSON_AND_ORGANIZATION ( #542, #551 ) ;
#247 = FACE_OUTER_BOUND ( 'NONE', #201, .T. ) ;
#248 = FACE_OUTER_BOUND ( 'NONE', #94, .T. ) ;
#249 = EDGE_CURVE ( 'NONE', #129, #559, #411, .T. ) ;
#250 = CYLINDRICAL_SURFACE ( 'NONE', #806, 1.700000000000000178 ) ;
#251 = CARTESIAN_POINT ( 'NONE',  ( -20.80000000000000071, 2.081899558550500526E-16, 4.000000000000003553 ) ) ;
#252 = AXIS2_PLACEMENT_3D ( 'NONE', #142, #221, #208 ) ;
#253 = AXIS2_PLACEMENT_3D ( 'NONE', #240, #524, #812 ) ;
#254 = CARTESIAN_POINT ( 'NONE',  ( -7.500000000000000000, 0.000000000000000000, 0.000000000000000000 ) ) ;
#255 = VERTEX_POINT ( 'NONE', #838 ) ;
#256 = VECTOR ( 'NONE', #909, 1000.000000000000000 ) ;
#257 = DIRECTION ( 'NONE',  ( 0.000000000000000000, 0.000000000000000000, -1.000000000000000000 ) ) ;
#258 = AXIS2_PLACEMENT_3D ( 'NONE', #298, #672, #591 ) ;
#259 = ORIENTED_EDGE ( 'NONE', *, *, #655, .T. ) ;
#260 = ORIENTED_EDGE ( 'NONE', *, *, #63, .F. ) ;
#261 = EDGE_CURVE ( 'NONE', #43, #823, #785, .T. ) ;
#262 = CARTESIAN_POINT ( 'NONE',  ( -4.599999999999999645, 3.551475717527323832E-16, 3.000000000000007105 ) ) ;
#263 = VECTOR ( 'NONE', #474, 1000.000000000000000 ) ;
#264 = ORIENTED_EDGE ( 'NONE', *, *, #539, .T. ) ;
#265 = ORIENTED_EDGE ( 'NONE', *, *, #227, .F. ) ;
#266 = APPROVAL_PERSON_ORGANIZATION ( #246, #608, #11 ) ;
#267 = ORIENTED_EDGE ( 'NONE', *, *, #759, .T. ) ;
#268 = EDGE_CURVE ( 'NONE', #781, #469, #199, .T. ) ;
#269 = ADVANCED_FACE ( 'NONE', ( #700 ), #715, .F. ) ;
#270 = ORIENTED_EDGE ( 'NONE', *, *, #198, .F. ) ;
#271 = CARTESIAN_POINT ( 'NONE',  ( -29.25000000000000000, 5.000000000000000000, 4.000000000000003553 ) ) ;
#272 = ORIENTED_EDGE ( 'NONE', *, *, #789, .F. ) ;
#273 = VERTEX_POINT ( 'NONE', #81 ) ;
#274 = DIRECTION ( 'NONE',  ( 0.000000000000000000, 0.000000000000000000, -1.000000000000000000 ) ) ;
#275 = APPLICATION_CONTEXT ( 'configuration controlled 3d designs of mechanical parts and assemblies' ) ;
#276 = DIRECTION ( 'NONE',  ( 0.000000000000000000, 0.000000000000000000, -1.000000000000000000 ) ) ;
#277 = ORIENTED_EDGE ( 'NONE', *, *, #655, .F. ) ;
#278 = ORIENTED_EDGE ( 'NONE', *, *, #798, .T. ) ;
#279 = CIRCLE ( 'NONE', #472, 1.700000000000000178 ) ;
#280 = CYLINDRICAL_SURFACE ( 'NONE', #220, 2.849999999999998312 ) ;
#281 = EDGE_CURVE ( 'NONE', #872, #195, #803, .T. ) ;
#282 = PLANE ( 'NONE',  #457 ) ;
#283 = ORIENTED_EDGE ( 'NONE', *, *, #695, .T. ) ;
#284 = CARTESIAN_POINT ( 'NONE',  ( -30.00000000000000000, 5.000000000000000000, 4.000000000000003553 ) ) ;
#285 = VERTEX_POINT ( 'NONE', #164 ) ;
#286 = CARTESIAN_POINT ( 'NONE',  ( -7.500000000000000000, 0.000000000000000000, 3.000000000000007105 ) ) ;
#287 = VECTOR ( 'NONE', #557, 1000.000000000000000 ) ;
#288 = FACE_OUTER_BOUND ( 'NONE', #45, .T. ) ;
#289 = ORIENTED_EDGE ( 'NONE', *, *, #534, .F. ) ;
#290 = CARTESIAN_POINT ( 'NONE',  ( -22.50000000000000000, 0.000000000000000000, 0.000000000000000000 ) ) ;
#291 = VECTOR ( 'NONE', #430, 1000.000000000000000 ) ;
#292 = FACE_OUTER_BOUND ( 'NONE', #528, .T. ) ;
#293 = DIRECTION ( 'NONE',  ( 0.000000000000000000, 0.000000000000000000, -1.000000000000000000 ) ) ;
#294 = ORIENTED_EDGE ( 'NONE', *, *, #184, .T. ) ;
#295 = DIRECTION ( 'NONE',  ( 0.000000000000000000, 0.000000000000000000, 1.000000000000000000 ) ) ;
#296 = COORDINATED_UNIVERSAL_TIME_OFFSET ( 6, 0, .BEHIND. ) ;
#297 = CYLINDRICAL_SURFACE ( 'NONE', #842, 1.700000000000000178 ) ;
#298 = CARTESIAN_POINT ( 'NONE',  ( 22.50000000000000000, 0.000000000000000000, 3.000000000000007105 ) ) ;
#299 = ORIENTED_EDGE ( 'NONE', *, *, #325, .T. ) ;
#300 = CYLINDRICAL_SURFACE ( 'NONE', #449, 2.950000000000001066 ) ;
#301 = CALENDAR_DATE ( 2026, 28, 9 ) ;
#302 = EDGE_CURVE ( 'NONE', #729, #255, #797, .T. ) ;
#303 = CARTESIAN_POINT ( 'NONE',  ( 9.199999999999999289, 2.081899558550500526E-16, 4.000000000000003553 ) ) ;
#304 = EDGE_CURVE ( 'NONE', #285, #124, #157, .T. ) ;
#305 = CARTESIAN_POINT ( 'NONE',  ( 22.50000000000000000, 0.000000000000000000, 3.000000000000007105 ) ) ;
#306 = ORIENTED_EDGE ( 'NONE', *, *, #191, .F. ) ;
#307 = CARTESIAN_POINT ( 'NONE',  ( -5.799999999999999822, 2.081899558550500526E-16, 3.000000000000007105 ) ) ;
#308 = VECTOR ( 'NONE', #629, 1000.000000000000000 ) ;
#309 = DIRECTION ( 'NONE',  ( -0.000000000000000000, -0.000000000000000000, -1.000000000000000000 ) ) ;
#310 = CARTESIAN_POINT ( 'NONE',  ( -9.199999999999999289, 0.000000000000000000, 4.000000000000003553 ) ) ;
#311 = ORIENTED_EDGE ( 'NONE', *, *, #388, .T. ) ;
#312 = CARTESIAN_POINT ( 'NONE',  ( -4.599999999999999645, 3.551475717527323832E-16, 3.000000000000007105 ) ) ;
#313 = PERSON_AND_ORGANIZATION_ROLE ( 'creator' ) ;
#314 = DIRECTION ( 'NONE',  ( 0.000000000000000000, 0.000000000000000000, 1.000000000000000000 ) ) ;
#315 = CIRCLE ( 'NONE', #711, 2.849999999999998312 ) ;
#316 = ADVANCED_FACE ( 'NONE', ( #808 ), #456, .F. ) ;
#317 = DIRECTION ( 'NONE',  ( 0.000000000000000000, 1.000000000000000000, 0.000000000000000000 ) ) ;
#318 = CIRCLE ( 'NONE', #106, 1.700000000000000178 ) ;
#319 = FACE_BOUND ( 'NONE', #8, .T. ) ;
#320 = CARTESIAN_POINT ( 'NONE',  ( 32.00000000000000000, -7.000000000000000000, 0.000000000000000000 ) ) ;
#321 = DIRECTION ( 'NONE',  ( 0.000000000000000000, 0.000000000000000000, -1.000000000000000000 ) ) ;
#322 = CARTESIAN_POINT ( 'NONE',  ( 32.00000000000000000, 7.000000000000000000, 0.000000000000000000 ) ) ;
#323 = EDGE_CURVE ( 'NONE', #777, #835, #97, .T. ) ;
#324 = CARTESIAN_POINT ( 'NONE',  ( -19.65000000000000213, 3.490243377569954582E-16, 0.000000000000000000 ) ) ;
#325 = EDGE_CURVE ( 'NONE', #50, #729, #24, .T. ) ;
#326 = AXIS2_PLACEMENT_3D ( 'NONE', #487, #360, #721 ) ;
#327 = CARTESIAN_POINT ( 'NONE',  ( -32.00000000000000000, 7.000000000000000000, 0.000000000000000000 ) ) ;
#328 = CIRCLE ( 'NONE', #46, 2.849999999999998312 ) ;
#329 = EDGE_CURVE ( 'NONE', #273, #915, #215, .T. ) ;
#330 = VERTEX_POINT ( 'NONE', #586 ) ;
#331 = PLANE ( 'NONE',  #882 ) ;
#332 = CIRCLE ( 'NONE', #463, 1.700000000000000178 ) ;
#333 = ORIENTED_EDGE ( 'NONE', *, *, #63, .T. ) ;
#334 = EDGE_CURVE ( 'NONE', #823, #124, #727, .T. ) ;
#335 = EDGE_LOOP ( 'NONE', ( #306, #620 ) ) ;
#336 = VERTEX_POINT ( 'NONE', #229 ) ;
#337 = ORIENTED_EDGE ( 'NONE', *, *, #538, .F. ) ;
#338 = PLANE ( 'NONE',  #403 ) ;
#339 = ORIENTED_EDGE ( 'NONE', *, *, #466, .F. ) ;
#340 = LOCAL_TIME ( 19, 9, 8.000000000000000000, #599 ) ;
#341 = ORIENTED_EDGE ( 'NONE', *, *, #62, .F. ) ;
#342 = CARTESIAN_POINT ( 'NONE',  ( 9.199999999999999289, 2.081899558550500526E-16, 3.000000000000007105 ) ) ;
#343 = CARTESIAN_POINT ( 'NONE',  ( 7.500000000000000000, 0.000000000000000000, 3.000000000000007105 ) ) ;
#344 = ORIENTED_EDGE ( 'NONE', *, *, #334, .T. ) ;
#345 = ORIENTED_EDGE ( 'NONE', *, *, #127, .F. ) ;
#346 = EDGE_CURVE ( 'NONE', #910, #840, #136, .T. ) ;
#347 = DIRECTION ( 'NONE',  ( 0.000000000000000000, 0.000000000000000000, 1.000000000000000000 ) ) ;
#348 = CARTESIAN_POINT ( 'NONE',  ( -30.75000000000000000, 5.000000000000000000, 4.000000000000003553 ) ) ;
#349 = ORIENTED_EDGE ( 'NONE', *, *, #37, .F. ) ;
#350 = LINE ( 'NONE', #593, #111 ) ;
#351 = EDGE_LOOP ( 'NONE', ( #892, #311, #844, #567 ) ) ;
#352 = AXIS2_PLACEMENT_3D ( 'NONE', #231, #153, #856 ) ;
#353 = AXIS2_PLACEMENT_3D ( 'NONE', #899, #181, #755 ) ;
#354 = DIRECTION ( 'NONE',  ( 1.000000000000000000, 0.000000000000000000, 0.000000000000000000 ) ) ;
#355 = APPROVAL ( #519, 'UNSPECIFIED' ) ;
#356 = DIRECTION ( 'NONE',  ( 0.000000000000000000, 0.000000000000000000, 1.000000000000000000 ) ) ;
#357 = ORIENTED_EDGE ( 'NONE', *, *, #798, .F. ) ;
#358 = DIRECTION ( 'NONE',  ( 0.000000000000000000, 0.000000000000000000, 1.000000000000000000 ) ) ;
#359 = CARTESIAN_POINT ( 'NONE',  ( -9.199999999999999289, 0.000000000000000000, 3.000000000000007105 ) ) ;
#360 = DIRECTION ( 'NONE',  ( 0.000000000000000000, 0.000000000000000000, -1.000000000000000000 ) ) ;
#361 = ORIENTED_EDGE ( 'NONE', *, *, #304, .F. ) ;
#362 = CARTESIAN_POINT ( 'NONE',  ( 22.50000000000000000, 0.000000000000000000, 4.000000000000003553 ) ) ;
#363 = CARTESIAN_POINT ( 'NONE',  ( -32.00000000000000000, -7.000000000000000000, 4.000000000000007105 ) ) ;
#364 = CARTESIAN_POINT ( 'NONE',  ( 32.00000000000000000, -7.000000000000000000, 4.000000000000007105 ) ) ;
#365 = ORIENTED_EDGE ( 'NONE', *, *, #901, .T. ) ;
#366 = ADVANCED_FACE ( 'NONE', ( #734 ), #596, .F. ) ;
#367 = CYLINDRICAL_SURFACE ( 'NONE', #525, 0.7500000000000006661 ) ;
#368 = DATE_TIME_ROLE ( 'classification_date' ) ;
#369 = AXIS2_PLACEMENT_3D ( 'NONE', #600, #883, #795 ) ;
#370 = EDGE_CURVE ( 'NONE', #336, #406, #876, .T. ) ;
#371 = AXIS2_PLACEMENT_3D ( 'NONE', #802, #585, #656 ) ;
#372 = DIRECTION ( 'NONE',  ( 0.000000000000000000, 0.000000000000000000, -1.000000000000000000 ) ) ;
#373 = CARTESIAN_POINT ( 'NONE',  ( -7.500000000000000000, 0.000000000000000000, 4.000000000000003553 ) ) ;
#374 = ORIENTED_EDGE ( 'NONE', *, *, #538, .T. ) ;
#375 = CARTESIAN_POINT ( 'NONE',  ( -7.500000000000000000, 0.000000000000000000, 4.000000000000003553 ) ) ;
#376 =( NAMED_UNIT ( * ) PLANE_ANGLE_UNIT ( ) SI_UNIT ( $, .RADIAN. ) );
#377 = ADVANCED_BREP_SHAPE_REPRESENTATION ( 'FIT-003_MG996R_spline_socket_trial', ( #40, #716 ), #436 ) ;
#378 = PRODUCT_DEFINITION_SHAPE ( 'NONE', 'NONE',  #824 ) ;
#379 = AXIS2_PLACEMENT_3D ( 'NONE', #126, #694, #217 ) ;
#380 = CARTESIAN_POINT ( 'NONE',  ( -22.50000000000000000, 0.000000000000000000, 4.000000000000003553 ) ) ;
#381 = DIRECTION ( 'NONE',  ( 0.000000000000000000, 0.000000000000000000, -1.000000000000000000 ) ) ;
#382 = VECTOR ( 'NONE', #649, 1000.000000000000000 ) ;
#383 = ORIENTED_EDGE ( 'NONE', *, *, #912, .T. ) ;
#384 = DIRECTION ( 'NONE',  ( 0.000000000000000000, 0.000000000000000000, 1.000000000000000000 ) ) ;
#385 = CALENDAR_DATE ( 2026, 28, 9 ) ;
#386 = CIRCLE ( 'NONE', #252, 0.7500000000000006661 ) ;
#387 = FACE_OUTER_BOUND ( 'NONE', #139, .T. ) ;
#388 = EDGE_CURVE ( 'NONE', #433, #488, #616, .T. ) ;
#389 = CARTESIAN_POINT ( 'NONE',  ( -22.50000000000000000, 0.000000000000000000, 3.000000000000007105 ) ) ;
#390 = CARTESIAN_POINT ( 'NONE',  ( 20.80000000000000071, 0.000000000000000000, 3.000000000000007105 ) ) ;
#391 = VECTOR ( 'NONE', #902, 1000.000000000000000 ) ;
#392 = DIRECTION ( 'NONE',  ( 0.000000000000000000, 0.000000000000000000, 1.000000000000000000 ) ) ;
#393 = APPROVAL_PERSON_ORGANIZATION ( #22, #355, #654 ) ;
#394 = DIRECTION ( 'NONE',  ( 0.000000000000000000, 0.000000000000000000, -1.000000000000000000 ) ) ;
#395 = CARTESIAN_POINT ( 'NONE',  ( -22.50000000000000000, 0.000000000000000000, 4.000000000000003553 ) ) ;
#396 = EDGE_CURVE ( 'NONE', #427, #330, #328, .T. ) ;
#397 = FACE_BOUND ( 'NONE', #587, .T. ) ;
#398 = EDGE_CURVE ( 'NONE', #652, #273, #790, .T. ) ;
#399 = CIRCLE ( 'NONE', #651, 1.700000000000000178 ) ;
#400 = AXIS2_PLACEMENT_3D ( 'NONE', #375, #159, #647 ) ;
#401 = FACE_BOUND ( 'NONE', #839, .T. ) ;
#402 = ORIENTED_EDGE ( 'NONE', *, *, #762, .F. ) ;
#403 = AXIS2_PLACEMENT_3D ( 'NONE', #210, #645, #121 ) ;
#404 = EDGE_LOOP ( 'NONE', ( #244, #120, #623, #192 ) ) ;
#405 = EDGE_CURVE ( 'NONE', #128, #701, #80, .T. ) ;
#406 = VERTEX_POINT ( 'NONE', #359 ) ;
#407 = ORIENTED_EDGE ( 'NONE', *, *, #2, .T. ) ;
#408 = DIRECTION ( 'NONE',  ( 1.000000000000000000, 0.000000000000000000, 0.000000000000000000 ) ) ;
#409 = AXIS2_PLACEMENT_3D ( 'NONE', #574, #857, #841 ) ;
#410 = ORIENTED_EDGE ( 'NONE', *, *, #107, .F. ) ;
#411 = LINE ( 'NONE', #271, #287 ) ;
#412 = EDGE_LOOP ( 'NONE', ( #570, #145, #418, #772 ) ) ;
#413 = ORIENTED_EDGE ( 'NONE', *, *, #325, .F. ) ;
#414 = LINE ( 'NONE', #148, #308 ) ;
#415 = LINE ( 'NONE', #575, #256 ) ;
#416 = ORIENTED_EDGE ( 'NONE', *, *, #545, .F. ) ;
#417 = EDGE_CURVE ( 'NONE', #702, #915, #414, .T. ) ;
#418 = ORIENTED_EDGE ( 'NONE', *, *, #901, .F. ) ;
#419 = DIRECTION ( 'NONE',  ( -0.000000000000000000, -0.000000000000000000, -1.000000000000000000 ) ) ;
#420 = DIRECTION ( 'NONE',  ( -1.000000000000000000, 0.000000000000000000, 0.000000000000000000 ) ) ;
#421 = AXIS2_PLACEMENT_3D ( 'NONE', #439, #170, #14 ) ;
#422 = ORIENTED_EDGE ( 'NONE', *, *, #708, .F. ) ;
#423 = CYLINDRICAL_SURFACE ( 'NONE', #681, 2.849999999999998312 ) ;
#424 = VERTEX_POINT ( 'NONE', #137 ) ;
#425 = CARTESIAN_POINT ( 'NONE',  ( -5.799999999999999822, 2.081899558550500526E-16, 4.000000000000003553 ) ) ;
#426 = DIRECTION ( 'NONE',  ( -1.000000000000000000, 0.000000000000000000, -0.000000000000000000 ) ) ;
#427 = VERTEX_POINT ( 'NONE', #644 ) ;
#428 = DIRECTION ( 'NONE',  ( 1.000000000000000000, 0.000000000000000000, 0.000000000000000000 ) ) ;
#429 = AXIS2_PLACEMENT_3D ( 'NONE', #800, #787, #146 ) ;
#430 = DIRECTION ( 'NONE',  ( 0.000000000000000000, 0.000000000000000000, -1.000000000000000000 ) ) ;
#431 = EDGE_CURVE ( 'NONE', #129, #194, #814, .T. ) ;
#432 = DIRECTION ( 'NONE',  ( -0.000000000000000000, -1.000000000000000000, -0.000000000000000000 ) ) ;
#433 = VERTEX_POINT ( 'NONE', #6 ) ;
#434 = DIRECTION ( 'NONE',  ( 0.000000000000000000, 0.000000000000000000, 1.000000000000000000 ) ) ;
#435 = DIRECTION ( 'NONE',  ( 1.000000000000000000, 0.000000000000000000, 0.000000000000000000 ) ) ;
#436 =( GEOMETRIC_REPRESENTATION_CONTEXT ( 3 ) GLOBAL_UNCERTAINTY_ASSIGNED_CONTEXT ( ( #827 ) ) GLOBAL_UNIT_ASSIGNED_CONTEXT ( ( #167, #376, #794 ) ) REPRESENTATION_CONTEXT ( 'NONE', 'WORKASPACE' ) );
#437 = CARTESIAN_POINT ( 'NONE',  ( -25.34999999999999787, 0.000000000000000000, 3.000000000000007105 ) ) ;
#438 = EDGE_CURVE ( 'NONE', #760, #559, #386, .T. ) ;
#439 = CARTESIAN_POINT ( 'NONE',  ( 7.500000000000000000, 0.000000000000000000, 0.000000000000000000 ) ) ;
#440 = CC_DESIGN_PERSON_AND_ORGANIZATION_ASSIGNMENT ( #154, #744, ( #677 ) ) ;
#441 = ORIENTED_EDGE ( 'NONE', *, *, #39, .T. ) ;
#442 = DIRECTION ( 'NONE',  ( 0.000000000000000000, 0.000000000000000000, 1.000000000000000000 ) ) ;
#443 = PERSON_AND_ORGANIZATION ( #542, #551 ) ;
#444 = CARTESIAN_POINT ( 'NONE',  ( -32.00000000000000000, 7.000000000000000000, 0.000000000000000000 ) ) ;
#445 = PRODUCT ( 'FIT-003_MG996R_spline_socket_trial', 'FIT-003_MG996R_spline_socket_trial', '', ( #147 ) ) ;
#446 = DIRECTION ( 'NONE',  ( 1.000000000000000000, 0.000000000000000000, 0.000000000000000000 ) ) ;
#447 = ORIENTED_EDGE ( 'NONE', *, *, #562, .T. ) ;
#448 = FACE_BOUND ( 'NONE', #646, .T. ) ;
#449 = AXIS2_PLACEMENT_3D ( 'NONE', #638, #925, #583 ) ;
#450 = DIRECTION ( 'NONE',  ( 1.000000000000000000, 0.000000000000000000, -0.000000000000000000 ) ) ;
#451 = DIRECTION ( 'NONE',  ( 0.000000000000000000, 0.000000000000000000, -1.000000000000000000 ) ) ;
#452 = VERTEX_POINT ( 'NONE', #342 ) ;
#453 = CARTESIAN_POINT ( 'NONE',  ( -22.50000000000000000, 0.000000000000000000, 3.000000000000007105 ) ) ;
#454 = CARTESIAN_POINT ( 'NONE',  ( 0.000000000000000000, 0.000000000000000000, 0.000000000000000000 ) ) ;
#455 = CARTESIAN_POINT ( 'NONE',  ( 7.500000000000000000, 0.000000000000000000, 4.000000000000003553 ) ) ;
#456 = CYLINDRICAL_SURFACE ( 'NONE', #544, 2.899999999999999911 ) ;
#457 = AXIS2_PLACEMENT_3D ( 'NONE', #53, #764, #426 ) ;
#458 = VERTEX_POINT ( 'NONE', #131 ) ;
#459 = CARTESIAN_POINT ( 'NONE',  ( 7.500000000000000000, 0.000000000000000000, 4.000000000000003553 ) ) ;
#460 = DATE_AND_TIME ( #811, #866 ) ;
#461 = CARTESIAN_POINT ( 'NONE',  ( 22.50000000000000000, 0.000000000000000000, 3.000000000000007105 ) ) ;
#462 = DIRECTION ( 'NONE',  ( 1.000000000000000000, 0.000000000000000000, 0.000000000000000000 ) ) ;
#463 = AXIS2_PLACEMENT_3D ( 'NONE', #917, #556, #768 ) ;
#464 = CYLINDRICAL_SURFACE ( 'NONE', #682, 1.700000000000000178 ) ;
#465 = DIRECTION ( 'NONE',  ( 1.000000000000000000, 0.000000000000000000, 0.000000000000000000 ) ) ;
#466 = EDGE_CURVE ( 'NONE', #427, #783, #568, .T. ) ;
#467 = ADVANCED_FACE ( 'NONE', ( #292 ), #484, .F. ) ;
#468 = DIRECTION ( 'NONE',  ( -0.000000000000000000, -0.000000000000000000, -1.000000000000000000 ) ) ;
#469 = VERTEX_POINT ( 'NONE', #773 ) ;
#470 = ORIENTED_EDGE ( 'NONE', *, *, #562, .F. ) ;
#471 = LINE ( 'NONE', #262, #757 ) ;
#472 = AXIS2_PLACEMENT_3D ( 'NONE', #213, #83, #860 ) ;
#473 = VECTOR ( 'NONE', #761, 1000.000000000000000 ) ;
#474 = DIRECTION ( 'NONE',  ( 0.000000000000000000, 1.000000000000000000, 0.000000000000000000 ) ) ;
#475 = ADVANCED_FACE ( 'NONE', ( #204 ), #579, .F. ) ;
#476 = CC_DESIGN_APPROVAL ( #355, ( #74 ) ) ;
#477 = ORIENTED_EDGE ( 'NONE', *, *, #502, .F. ) ;
#478 = FACE_BOUND ( 'NONE', #763, .T. ) ;
#479 = CC_DESIGN_PERSON_AND_ORGANIZATION_ASSIGNMENT ( #861, #869, ( #677 ) ) ;
#480 = ORIENTED_EDGE ( 'NONE', *, *, #746, .F. ) ;
#481 = CARTESIAN_POINT ( 'NONE',  ( 22.50000000000000000, 0.000000000000000000, 3.000000000000007105 ) ) ;
#482 = ORIENTED_EDGE ( 'NONE', *, *, #197, .T. ) ;
#483 = EDGE_LOOP ( 'NONE', ( #494, #402 ) ) ;
#484 = PLANE ( 'NONE',  #728 ) ;
#485 = AXIS2_PLACEMENT_3D ( 'NONE', #286, #503, #784 ) ;
#486 = AXIS2_PLACEMENT_3D ( 'NONE', #589, #314, #226 ) ;
#487 = CARTESIAN_POINT ( 'NONE',  ( -7.500000000000000000, 0.000000000000000000, 3.000000000000007105 ) ) ;
#488 = VERTEX_POINT ( 'NONE', #633 ) ;
#489 = ORIENTED_EDGE ( 'NONE', *, *, #370, .T. ) ;
#490 = DIRECTION ( 'NONE',  ( 1.000000000000000000, 0.000000000000000000, 0.000000000000000000 ) ) ;
#491 = CYLINDRICAL_SURFACE ( 'NONE', #495, 1.700000000000000178 ) ;
#492 = CC_DESIGN_PERSON_AND_ORGANIZATION_ASSIGNMENT ( #91, #313, ( #824 ) ) ;
#493 = EDGE_LOOP ( 'NONE', ( #705, #621, #447, #626 ) ) ;
#494 = ORIENTED_EDGE ( 'NONE', *, *, #751, .F. ) ;
#495 = AXIS2_PLACEMENT_3D ( 'NONE', #923, #775, #420 ) ;
#496 = DIRECTION ( 'NONE',  ( -0.000000000000000000, -1.000000000000000000, -0.000000000000000000 ) ) ;
#497 = FACE_BOUND ( 'NONE', #152, .T. ) ;
#498 = AXIS2_PLACEMENT_3D ( 'NONE', #657, #740, #446 ) ;
#499 = ORIENTED_EDGE ( 'NONE', *, *, #708, .T. ) ;
#500 = CARTESIAN_POINT ( 'NONE',  ( -22.50000000000000000, 0.000000000000000000, 3.000000000000007105 ) ) ;
#501 = EDGE_LOOP ( 'NONE', ( #277, #792, #89, #264 ) ) ;
#502 = EDGE_CURVE ( 'NONE', #652, #702, #332, .T. ) ;
#503 = DIRECTION ( 'NONE',  ( 0.000000000000000000, 0.000000000000000000, 1.000000000000000000 ) ) ;
#504 = FACE_BOUND ( 'NONE', #735, .T. ) ;
#505 = ORIENTED_EDGE ( 'NONE', *, *, #2, .F. ) ;
#506 = PLANE ( 'NONE',  #429 ) ;
#507 = AXIS2_PLACEMENT_3D ( 'NONE', #395, #750, #891 ) ;
#508 = EDGE_CURVE ( 'NONE', #835, #777, #179, .T. ) ;
#509 = DIRECTION ( 'NONE',  ( -0.000000000000000000, -0.000000000000000000, -1.000000000000000000 ) ) ;
#510 = DIRECTION ( 'NONE',  ( 1.000000000000000000, 0.000000000000000000, 0.000000000000000000 ) ) ;
#511 = EDGE_LOOP ( 'NONE', ( #908, #61 ) ) ;
#512 = DIRECTION ( 'NONE',  ( -1.000000000000000000, 0.000000000000000000, 0.000000000000000000 ) ) ;
#513 = CALENDAR_DATE ( 2026, 28, 9 ) ;
#514 = LOCAL_TIME ( 19, 9, 8.000000000000000000, #225 ) ;
#515 = DIRECTION ( 'NONE',  ( 0.000000000000000000, 0.000000000000000000, -1.000000000000000000 ) ) ;
#516 = DIRECTION ( 'NONE',  ( 0.000000000000000000, 0.000000000000000000, -1.000000000000000000 ) ) ;
#517 = VERTEX_POINT ( 'NONE', #560 ) ;
#518 = FACE_OUTER_BOUND ( 'NONE', #597, .T. ) ;
#519 = APPROVAL_STATUS ( 'not_yet_approved' ) ;
#520 = CARTESIAN_POINT ( 'NONE',  ( 22.50000000000000000, 0.000000000000000000, 3.000000000000007105 ) ) ;
#521 = DIRECTION ( 'NONE',  ( 1.000000000000000000, 0.000000000000000000, 0.000000000000000000 ) ) ;
#522 = ORIENTED_EDGE ( 'NONE', *, *, #396, .F. ) ;
#523 = DIRECTION ( 'NONE',  ( -0.000000000000000000, -0.000000000000000000, -1.000000000000000000 ) ) ;
#524 = DIRECTION ( 'NONE',  ( 0.000000000000000000, 0.000000000000000000, -1.000000000000000000 ) ) ;
#525 = AXIS2_PLACEMENT_3D ( 'NONE', #817, #535, #676 ) ;
#526 = CIRCLE ( 'NONE', #114, 1.700000000000000178 ) ;
#527 = DIRECTION ( 'NONE',  ( 0.000000000000000000, 0.000000000000000000, -1.000000000000000000 ) ) ;
#528 = EDGE_LOOP ( 'NONE', ( #110, #799, #642, #441 ) ) ;
#529 = CARTESIAN_POINT ( 'NONE',  ( 32.00000000000000000, -7.000000000000000000, 0.000000000000000000 ) ) ;
#530 = APPROVAL_STATUS ( 'not_yet_approved' ) ;
#531 = CYLINDRICAL_SURFACE ( 'NONE', #769, 2.999999999999999112 ) ;
#532 = AXIS2_PLACEMENT_3D ( 'NONE', #59, #356, #770 ) ;
#533 = CARTESIAN_POINT ( 'NONE',  ( 25.50000000000000000, 3.673940397442058882E-16, 0.000000000000000000 ) ) ;
#534 = EDGE_CURVE ( 'NONE', #330, #15, #196, .T. ) ;
#535 = DIRECTION ( 'NONE',  ( 0.000000000000000000, 0.000000000000000000, -1.000000000000000000 ) ) ;
#536 = DIRECTION ( 'NONE',  ( 0.000000000000000000, 0.000000000000000000, -1.000000000000000000 ) ) ;
#537 = CIRCLE ( 'NONE', #485, 2.899999999999999911 ) ;
#538 = EDGE_CURVE ( 'NONE', #469, #552, #125, .T. ) ;
#539 = EDGE_CURVE ( 'NONE', #195, #452, #692, .T. ) ;
#540 = CARTESIAN_POINT ( 'NONE',  ( -32.00000000000000000, -7.000000000000000000, 4.000000000000007105 ) ) ;
#541 = ORIENTED_EDGE ( 'NONE', *, *, #590, .T. ) ;
#542 = PERSON ( 'UNSPECIFIED', 'UNSPECIFIED', 'UNSPECIFIED', ('UNSPECIFIED'), ('UNSPECIFIED'), ('UNSPECIFIED') ) ;
#543 = CARTESIAN_POINT ( 'NONE',  ( -5.799999999999999822, 2.081899558550500526E-16, 4.000000000000003553 ) ) ;
#544 = AXIS2_PLACEMENT_3D ( 'NONE', #98, #451, #666 ) ;
#545 = EDGE_CURVE ( 'NONE', #424, #458, #13, .T. ) ;
#546 = LINE ( 'NONE', #38, #921 ) ;
#547 = CIRCLE ( 'NONE', #143, 1.700000000000000178 ) ;
#548 = ORIENTED_EDGE ( 'NONE', *, *, #107, .T. ) ;
#549 = CLOSED_SHELL ( 'NONE', ( #698, #212, #888, #366, #34, #732, #316, #730, #606, #75, #819, #175, #467, #178, #130, #675, #688, #628, #141, #269, #796, #555, #862, #475, #864, #627, #919, #832 ) ) ;
#550 = DIRECTION ( 'NONE',  ( 0.000000000000000000, 0.000000000000000000, -1.000000000000000000 ) ) ;
#551 = ORGANIZATION ( 'UNSPECIFIED', 'UNSPECIFIED', '' ) ;
#552 = VERTEX_POINT ( 'NONE', #363 ) ;
#553 = ORIENTED_EDGE ( 'NONE', *, *, #746, .T. ) ;
#554 = EDGE_LOOP ( 'NONE', ( #289, #786, #851, #771 ) ) ;
#555 = ADVANCED_FACE ( 'NONE', ( #648 ), #280, .F. ) ;
#556 = DIRECTION ( 'NONE',  ( 0.000000000000000000, 0.000000000000000000, 1.000000000000000000 ) ) ;
#557 = DIRECTION ( 'NONE',  ( 0.000000000000000000, 0.000000000000000000, -1.000000000000000000 ) ) ;
#558 = EDGE_LOOP ( 'NONE', ( #118, #821, #489, #333 ) ) ;
#559 = VERTEX_POINT ( 'NONE', #927 ) ;
#560 = CARTESIAN_POINT ( 'NONE',  ( -10.40000000000000036, 0.000000000000000000, 0.000000000000000000 ) ) ;
#561 = EDGE_CURVE ( 'NONE', #717, #859, #537, .T. ) ;
#562 = EDGE_CURVE ( 'NONE', #701, #406, #122, .T. ) ;
#563 = CIRCLE ( 'NONE', #162, 2.899999999999999911 ) ;
#564 = LINE ( 'NONE', #843, #573 ) ;
#565 = ORIENTED_EDGE ( 'NONE', *, *, #39, .F. ) ;
#566 = APPLICATION_CONTEXT ( 'configuration controlled 3d designs of mechanical parts and assemblies' ) ;
#567 = ORIENTED_EDGE ( 'NONE', *, *, #894, .T. ) ;
#568 = LINE ( 'NONE', #437, #200 ) ;
#569 = CARTESIAN_POINT ( 'NONE',  ( 10.45000000000000107, 3.612708057484693083E-16, 3.000000000000007105 ) ) ;
#570 = ORIENTED_EDGE ( 'NONE', *, *, #261, .F. ) ;
#571 = DIRECTION ( 'NONE',  ( 1.000000000000000000, 0.000000000000000000, 0.000000000000000000 ) ) ;
#572 = ORIENTED_EDGE ( 'NONE', *, *, #261, .T. ) ;
#573 = VECTOR ( 'NONE', #293, 1000.000000000000000 ) ;
#574 = CARTESIAN_POINT ( 'NONE',  ( 7.500000000000000000, 0.000000000000000000, 0.000000000000000000 ) ) ;
#575 = CARTESIAN_POINT ( 'NONE',  ( 25.50000000000000000, 3.673940397442058882E-16, 3.000000000000007105 ) ) ;
#576 = EDGE_LOOP ( 'NONE', ( #211, #904, #82, #339 ) ) ;
#577 = EDGE_CURVE ( 'NONE', #115, #43, #807, .T. ) ;
#578 = CARTESIAN_POINT ( 'NONE',  ( -7.500000000000000000, 0.000000000000000000, 3.000000000000007105 ) ) ;
#579 = CYLINDRICAL_SURFACE ( 'NONE', #611, 1.700000000000000178 ) ;
#580 = CARTESIAN_POINT ( 'NONE',  ( 4.549999999999998934, 0.000000000000000000, 3.000000000000007105 ) ) ;
#581 = VECTOR ( 'NONE', #496, 1000.000000000000000 ) ;
#582 = ORIENTED_EDGE ( 'NONE', *, *, #184, .F. ) ;
#583 = DIRECTION ( 'NONE',  ( -1.000000000000000000, 0.000000000000000000, 0.000000000000000000 ) ) ;
#584 = APPROVAL_DATE_TIME ( #460, #608 ) ;
#585 = DIRECTION ( 'NONE',  ( 0.000000000000000000, 0.000000000000000000, -1.000000000000000000 ) ) ;
#586 = CARTESIAN_POINT ( 'NONE',  ( -19.65000000000000213, 3.490243377569954582E-16, 3.000000000000007105 ) ) ;
#587 = EDGE_LOOP ( 'NONE', ( #619, #685 ) ) ;
#588 = CARTESIAN_POINT ( 'NONE',  ( 20.80000000000000071, 0.000000000000000000, 4.000000000000003553 ) ) ;
#589 = CARTESIAN_POINT ( 'NONE',  ( -22.50000000000000000, 0.000000000000000000, 0.000000000000000000 ) ) ;
#590 = EDGE_CURVE ( 'NONE', #517, #218, #767, .T. ) ;
#591 = DIRECTION ( 'NONE',  ( 1.000000000000000000, 0.000000000000000000, 0.000000000000000000 ) ) ;
#592 = ORIENTED_EDGE ( 'NONE', *, *, #561, .T. ) ;
#593 = CARTESIAN_POINT ( 'NONE',  ( -32.00000000000000000, -7.000000000000000000, 4.000000000000007105 ) ) ;
#594 = COORDINATED_UNIVERSAL_TIME_OFFSET ( 6, 0, .BEHIND. ) ;
#595 = DIRECTION ( 'NONE',  ( 0.000000000000000000, 0.000000000000000000, -1.000000000000000000 ) ) ;
#596 = CYLINDRICAL_SURFACE ( 'NONE', #176, 1.700000000000000178 ) ;
#597 = EDGE_LOOP ( 'NONE', ( #278, #696, #119, #689 ) ) ;
#598 = DIRECTION ( 'NONE',  ( -1.000000000000000000, 0.000000000000000000, 0.000000000000000000 ) ) ;
#599 = COORDINATED_UNIVERSAL_TIME_OFFSET ( 6, 0, .BEHIND. ) ;
#600 = CARTESIAN_POINT ( 'NONE',  ( -7.500000000000000000, 0.000000000000000000, 0.000000000000000000 ) ) ;
#601 = AXIS2_PLACEMENT_3D ( 'NONE', #578, #295, #868 ) ;
#602 = FACE_OUTER_BOUND ( 'NONE', #202, .T. ) ;
#603 = EDGE_CURVE ( 'NONE', #194, #760, #863, .T. ) ;
#604 = APPROVAL_DATE_TIME ( #79, #663 ) ;
#605 = CARTESIAN_POINT ( 'NONE',  ( 10.45000000000000107, 3.612708057484693083E-16, 0.000000000000000000 ) ) ;
#606 = ADVANCED_FACE ( 'NONE', ( #96 ), #875, .F. ) ;
#607 = FACE_OUTER_BOUND ( 'NONE', #412, .T. ) ;
#608 = APPROVAL ( #530, 'UNSPECIFIED' ) ;
#609 = CYLINDRICAL_SURFACE ( 'NONE', #622, 1.700000000000000178 ) ;
#610 = LINE ( 'NONE', #540, #3 ) ;
#611 = AXIS2_PLACEMENT_3D ( 'NONE', #913, #274, #57 ) ;
#612 = CARTESIAN_POINT ( 'NONE',  ( 32.00000000000000000, -7.000000000000000000, 4.000000000000007105 ) ) ;
#613 = CC_DESIGN_SECURITY_CLASSIFICATION ( #74, ( #677 ) ) ;
#614 = AXIS2_PLACEMENT_3D ( 'NONE', #42, #686, #408 ) ;
#615 = DIRECTION ( 'NONE',  ( 0.000000000000000000, 0.000000000000000000, 1.000000000000000000 ) ) ;
#616 = CIRCLE ( 'NONE', #498, 1.700000000000000178 ) ;
#617 = EDGE_LOOP ( 'NONE', ( #206, #422 ) ) ;
#618 = EDGE_LOOP ( 'NONE', ( #753, #133 ) ) ;
#619 = ORIENTED_EDGE ( 'NONE', *, *, #438, .T. ) ;
#620 = ORIENTED_EDGE ( 'NONE', *, *, #346, .F. ) ;
#621 = ORIENTED_EDGE ( 'NONE', *, *, #405, .T. ) ;
#622 = AXIS2_PLACEMENT_3D ( 'NONE', #33, #321, #177 ) ;
#623 = ORIENTED_EDGE ( 'NONE', *, *, #759, .F. ) ;
#624 = PLANE ( 'NONE',  #117 ) ;
#625 = ORIENTED_EDGE ( 'NONE', *, *, #545, .T. ) ;
#626 = ORIENTED_EDGE ( 'NONE', *, *, #370, .F. ) ;
#627 = ADVANCED_FACE ( 'NONE', ( #85 ), #297, .F. ) ;
#628 = ADVANCED_FACE ( 'NONE', ( #247 ), #155, .F. ) ;
#629 = DIRECTION ( 'NONE',  ( 0.000000000000000000, 0.000000000000000000, -1.000000000000000000 ) ) ;
#630 = FACE_BOUND ( 'NONE', #483, .T. ) ;
#631 = ORIENTED_EDGE ( 'NONE', *, *, #191, .T. ) ;
#632 = ORIENTED_EDGE ( 'NONE', *, *, #104, .T. ) ;
#633 = CARTESIAN_POINT ( 'NONE',  ( -24.19999999999999929, 0.000000000000000000, 4.000000000000003553 ) ) ;
#634 = AXIS2_PLACEMENT_3D ( 'NONE', #362, #72, #571 ) ;
#635 = DIRECTION ( 'NONE',  ( 1.000000000000000000, 0.000000000000000000, 0.000000000000000000 ) ) ;
#636 = CIRCLE ( 'NONE', #353, 1.700000000000000178 ) ;
#637 = EDGE_LOOP ( 'NONE', ( #804, #259, #52, #712 ) ) ;
#638 = CARTESIAN_POINT ( 'NONE',  ( 7.500000000000000000, 0.000000000000000000, 3.000000000000007105 ) ) ;
#639 = ORIENTED_EDGE ( 'NONE', *, *, #722, .T. ) ;
#640 = DIRECTION ( 'NONE',  ( -1.000000000000000000, 0.000000000000000000, 0.000000000000000000 ) ) ;
#641 = DIRECTION ( 'NONE',  ( 1.000000000000000000, 0.000000000000000000, -0.000000000000000000 ) ) ;
#642 = ORIENTED_EDGE ( 'NONE', *, *, #268, .F. ) ;
#643 = PLANE ( 'NONE',  #601 ) ;
#644 = CARTESIAN_POINT ( 'NONE',  ( -25.34999999999999787, 0.000000000000000000, 3.000000000000007105 ) ) ;
#645 = DIRECTION ( 'NONE',  ( -1.000000000000000000, 0.000000000000000000, 0.000000000000000000 ) ) ;
#646 = EDGE_LOOP ( 'NONE', ( #260, #470 ) ) ;
#647 = DIRECTION ( 'NONE',  ( 1.000000000000000000, 0.000000000000000000, 0.000000000000000000 ) ) ;
#648 = FACE_OUTER_BOUND ( 'NONE', #554, .T. ) ;
#649 = DIRECTION ( 'NONE',  ( 0.000000000000000000, 0.000000000000000000, -1.000000000000000000 ) ) ;
#650 = AXIS2_PLACEMENT_3D ( 'NONE', #102, #309, #726 ) ;
#651 = AXIS2_PLACEMENT_3D ( 'NONE', #380, #664, #23 ) ;
#652 = VERTEX_POINT ( 'NONE', #29 ) ;
#653 = CARTESIAN_POINT ( 'NONE',  ( 4.549999999999998934, 0.000000000000000000, 0.000000000000000000 ) ) ;
#654 = APPROVAL_ROLE ( '' ) ;
#655 = EDGE_CURVE ( 'NONE', #693, #452, #18, .T. ) ;
#656 = DIRECTION ( 'NONE',  ( -1.000000000000000000, 0.000000000000000000, 0.000000000000000000 ) ) ;
#657 = CARTESIAN_POINT ( 'NONE',  ( -22.50000000000000000, 0.000000000000000000, 4.000000000000003553 ) ) ;
#658 = CIRCLE ( 'NONE', #532, 2.950000000000001066 ) ;
#659 = ORIENTED_EDGE ( 'NONE', *, *, #323, .T. ) ;
#660 = DIRECTION ( 'NONE',  ( 1.000000000000000000, 0.000000000000000000, 0.000000000000000000 ) ) ;
#661 = DATE_AND_TIME ( #885, #340 ) ;
#662 = AXIS2_PLACEMENT_3D ( 'NONE', #254, #108, #116 ) ;
#663 = APPROVAL ( #28, 'UNSPECIFIED' ) ;
#664 = DIRECTION ( 'NONE',  ( 0.000000000000000000, 0.000000000000000000, 1.000000000000000000 ) ) ;
#665 = EDGE_CURVE ( 'NONE', #15, #783, #87, .T. ) ;
#666 = DIRECTION ( 'NONE',  ( -1.000000000000000000, 0.000000000000000000, 0.000000000000000000 ) ) ;
#667 = VECTOR ( 'NONE', #381, 1000.000000000000000 ) ;
#668 = ORIENTED_EDGE ( 'NONE', *, *, #302, .T. ) ;
#669 = CARTESIAN_POINT ( 'NONE',  ( 7.500000000000000000, 0.000000000000000000, 4.000000000000003553 ) ) ;
#670 = PERSON_AND_ORGANIZATION ( #542, #551 ) ;
#671 = CARTESIAN_POINT ( 'NONE',  ( -30.75000000000000000, 5.000000000000000000, 4.000000000000003553 ) ) ;
#672 = DIRECTION ( 'NONE',  ( -0.000000000000000000, -0.000000000000000000, -1.000000000000000000 ) ) ;
#673 = DIRECTION ( 'NONE',  ( -1.000000000000000000, 0.000000000000000000, 0.000000000000000000 ) ) ;
#674 = AXIS2_PLACEMENT_3D ( 'NONE', #691, #826, #820 ) ;
#675 = ADVANCED_FACE ( 'NONE', ( #738 ), #531, .F. ) ;
#676 = DIRECTION ( 'NONE',  ( -1.000000000000000000, 0.000000000000000000, 0.000000000000000000 ) ) ;
#677 = PRODUCT_DEFINITION_FORMATION_WITH_SPECIFIED_SOURCE ( 'ANY', '', #445, .NOT_KNOWN. ) ;
#678 = DIRECTION ( 'NONE',  ( 1.000000000000000000, 0.000000000000000000, 0.000000000000000000 ) ) ;
#679 = CYLINDRICAL_SURFACE ( 'NONE', #507, 1.700000000000000178 ) ;
#680 = FACE_BOUND ( 'NONE', #900, .T. ) ;
#681 = AXIS2_PLACEMENT_3D ( 'NONE', #10, #224, #512 ) ;
#682 = AXIS2_PLACEMENT_3D ( 'NONE', #669, #394, #673 ) ;
#683 = CARTESIAN_POINT ( 'NONE',  ( 0.000000000000000000, 0.000000000000000000, 0.000000000000000000 ) ) ;
#684 = VECTOR ( 'NONE', #276, 1000.000000000000000 ) ;
#685 = ORIENTED_EDGE ( 'NONE', *, *, #9, .T. ) ;
#686 = DIRECTION ( 'NONE',  ( 0.000000000000000000, 0.000000000000000000, 1.000000000000000000 ) ) ;
#687 = VECTOR ( 'NONE', #837, 1000.000000000000000 ) ;
#688 = ADVANCED_FACE ( 'NONE', ( #233, #387 ), #745, .F. ) ;
#689 = ORIENTED_EDGE ( 'NONE', *, *, #603, .F. ) ;
#690 = EDGE_LOOP ( 'NONE', ( #20, #845 ) ) ;
#691 = CARTESIAN_POINT ( 'NONE',  ( -30.00000000000000000, 5.000000000000000000, 0.000000000000000000 ) ) ;
#692 = CIRCLE ( 'NONE', #49, 1.700000000000000178 ) ;
#693 = VERTEX_POINT ( 'NONE', #733 ) ;
#694 = DIRECTION ( 'NONE',  ( -0.000000000000000000, -0.000000000000000000, -1.000000000000000000 ) ) ;
#695 = EDGE_CURVE ( 'NONE', #488, #433, #399, .T. ) ;
#696 = ORIENTED_EDGE ( 'NONE', *, *, #249, .T. ) ;
#697 = ORIENTED_EDGE ( 'NONE', *, *, #431, .F. ) ;
#698 = ADVANCED_FACE ( 'NONE', ( #518 ), #731, .F. ) ;
#699 = CARTESIAN_POINT ( 'NONE',  ( 7.500000000000000000, 0.000000000000000000, 3.000000000000007105 ) ) ;
#700 = FACE_OUTER_BOUND ( 'NONE', #223, .T. ) ;
#701 = VERTEX_POINT ( 'NONE', #307 ) ;
#702 = VERTEX_POINT ( 'NONE', #588 ) ;
#703 = DIRECTION ( 'NONE',  ( 0.000000000000000000, 0.000000000000000000, -1.000000000000000000 ) ) ;
#704 = DIRECTION ( 'NONE',  ( -1.000000000000000000, -0.000000000000000000, -0.000000000000000000 ) ) ;
#705 = ORIENTED_EDGE ( 'NONE', *, *, #751, .T. ) ;
#706 = DIRECTION ( 'NONE',  ( 1.000000000000000000, 0.000000000000000000, 0.000000000000000000 ) ) ;
#707 = ORIENTED_EDGE ( 'NONE', *, *, #590, .F. ) ;
#708 = EDGE_CURVE ( 'NONE', #859, #717, #563, .T. ) ;
#709 = DIRECTION ( 'NONE',  ( 0.000000000000000000, 0.000000000000000000, -1.000000000000000000 ) ) ;
#710 = LINE ( 'NONE', #569, #209 ) ;
#711 = AXIS2_PLACEMENT_3D ( 'NONE', #290, #358, #706 ) ;
#712 = ORIENTED_EDGE ( 'NONE', *, *, #281, .F. ) ;
#713 = FACE_OUTER_BOUND ( 'NONE', #617, .T. ) ;
#714 = DIRECTION ( 'NONE',  ( 0.000000000000000000, -0.000000000000000000, -1.000000000000000000 ) ) ;
#715 = CYLINDRICAL_SURFACE ( 'NONE', #326, 2.899999999999999911 ) ;
#716 = AXIS2_PLACEMENT_3D ( 'NONE', #454, #874, #435 ) ;
#717 = VERTEX_POINT ( 'NONE', #238 ) ;
#718 = CARTESIAN_POINT ( 'NONE',  ( -32.00000000000000000, -7.000000000000000000, 0.000000000000000000 ) ) ;
#719 = PERSON_AND_ORGANIZATION ( #542, #551 ) ;
#720 = CARTESIAN_POINT ( 'NONE',  ( -19.65000000000000213, 3.490243377569954582E-16, 3.000000000000007105 ) ) ;
#721 = DIRECTION ( 'NONE',  ( -1.000000000000000000, 0.000000000000000000, 0.000000000000000000 ) ) ;
#722 = EDGE_CURVE ( 'NONE', #552, #823, #350, .T. ) ;
#723 = ORIENTED_EDGE ( 'NONE', *, *, #268, .T. ) ;
#724 = FACE_OUTER_BOUND ( 'NONE', #171, .T. ) ;
#725 = PERSON_AND_ORGANIZATION_ROLE ( 'classification_officer' ) ;
#726 = DIRECTION ( 'NONE',  ( 1.000000000000000000, 0.000000000000000000, 0.000000000000000000 ) ) ;
#727 = LINE ( 'NONE', #865, #825 ) ;
#728 = AXIS2_PLACEMENT_3D ( 'NONE', #852, #846, #714 ) ;
#729 = VERTEX_POINT ( 'NONE', #782 ) ;
#730 = ADVANCED_FACE ( 'NONE', ( #90 ), #300, .F. ) ;
#731 = CYLINDRICAL_SURFACE ( 'NONE', #41, 0.7500000000000006661 ) ;
#732 = ADVANCED_FACE ( 'NONE', ( #134 ), #423, .F. ) ;
#733 = CARTESIAN_POINT ( 'NONE',  ( 9.199999999999999289, 2.081899558550500526E-16, 4.000000000000003553 ) ) ;
#734 = FACE_OUTER_BOUND ( 'NONE', #493, .T. ) ;
#735 = EDGE_LOOP ( 'NONE', ( #480, #477 ) ) ;
#736 = PLANE ( 'NONE',  #112 ) ;
#737 = PERSON_AND_ORGANIZATION_ROLE ( 'design_owner' ) ;
#738 = FACE_OUTER_BOUND ( 'NONE', #906, .T. ) ;
#739 = VECTOR ( 'NONE', #432, 1000.000000000000000 ) ;
#740 = DIRECTION ( 'NONE',  ( 0.000000000000000000, 0.000000000000000000, 1.000000000000000000 ) ) ;
#741 = AXIS2_PLACEMENT_3D ( 'NONE', #871, #88, #521 ) ;
#742 = EDGE_LOOP ( 'NONE', ( #344, #361, #345, #639 ) ) ;
#743 = CARTESIAN_POINT ( 'NONE',  ( 10.45000000000000107, 3.612708057484693083E-16, 3.000000000000007105 ) ) ;
#744 = PERSON_AND_ORGANIZATION_ROLE ( 'creator' ) ;
#745 = PLANE ( 'NONE',  #890 ) ;
#746 = EDGE_CURVE ( 'NONE', #702, #652, #918, .T. ) ;
#747 = VECTOR ( 'NONE', #595, 1000.000000000000000 ) ;
#748 = CARTESIAN_POINT ( 'NONE',  ( -32.00000000000000000, 7.000000000000000000, 4.000000000000007105 ) ) ;
#749 = DIRECTION ( 'NONE',  ( -0.000000000000000000, -0.000000000000000000, -1.000000000000000000 ) ) ;
#750 = DIRECTION ( 'NONE',  ( 0.000000000000000000, 0.000000000000000000, -1.000000000000000000 ) ) ;
#751 = EDGE_CURVE ( 'NONE', #336, #128, #881, .T. ) ;
#752 = FACE_OUTER_BOUND ( 'NONE', #68, .T. ) ;
#753 = ORIENTED_EDGE ( 'NONE', *, *, #539, .F. ) ;
#754 = EDGE_CURVE ( 'NONE', #783, #15, #315, .T. ) ;
#755 = DIRECTION ( 'NONE',  ( 1.000000000000000000, 0.000000000000000000, 0.000000000000000000 ) ) ;
#756 = CIRCLE ( 'NONE', #829, 2.999999999999999112 ) ;
#757 = VECTOR ( 'NONE', #550, 1000.000000000000000 ) ;
#758 = LINE ( 'NONE', #251, #473 ) ;
#759 = EDGE_CURVE ( 'NONE', #255, #867, #756, .T. ) ;
#760 = VERTEX_POINT ( 'NONE', #850 ) ;
#761 = DIRECTION ( 'NONE',  ( 0.000000000000000000, 0.000000000000000000, -1.000000000000000000 ) ) ;
#762 = EDGE_CURVE ( 'NONE', #128, #336, #279, .T. ) ;
#763 = EDGE_LOOP ( 'NONE', ( #267, #548 ) ) ;
#764 = DIRECTION ( 'NONE',  ( 0.000000000000000000, 0.000000000000000000, -1.000000000000000000 ) ) ;
#765 = ORIENTED_EDGE ( 'NONE', *, *, #431, .T. ) ;
#766 = ORIENTED_EDGE ( 'NONE', *, *, #722, .F. ) ;
#767 = CIRCLE ( 'NONE', #369, 2.899999999999999911 ) ;
#768 = DIRECTION ( 'NONE',  ( 1.000000000000000000, 0.000000000000000000, 0.000000000000000000 ) ) ;
#769 = AXIS2_PLACEMENT_3D ( 'NONE', #461, #515, #870 ) ;
#770 = DIRECTION ( 'NONE',  ( 1.000000000000000000, 0.000000000000000000, 0.000000000000000000 ) ) ;
#771 = ORIENTED_EDGE ( 'NONE', *, *, #665, .F. ) ;
#772 = ORIENTED_EDGE ( 'NONE', *, *, #334, .F. ) ;
#773 = CARTESIAN_POINT ( 'NONE',  ( -32.00000000000000000, 7.000000000000000000, 4.000000000000007105 ) ) ;
#774 = CIRCLE ( 'NONE', #897, 2.999999999999999112 ) ;
#775 = DIRECTION ( 'NONE',  ( 0.000000000000000000, 0.000000000000000000, -1.000000000000000000 ) ) ;
#776 = ORIENTED_EDGE ( 'NONE', *, *, #508, .T. ) ;
#777 = VERTEX_POINT ( 'NONE', #653 ) ;
#778 = CARTESIAN_POINT ( 'NONE',  ( 24.19999999999999929, 2.081899558550500526E-16, 4.000000000000003553 ) ) ;
#779 = AXIS2_PLACEMENT_3D ( 'NONE', #73, #347, #354 ) ;
#780 = CARTESIAN_POINT ( 'NONE',  ( 5.799999999999999822, 0.000000000000000000, 3.000000000000007105 ) ) ;
#781 = VERTEX_POINT ( 'NONE', #16 ) ;
#782 = CARTESIAN_POINT ( 'NONE',  ( 19.50000000000000000, 0.000000000000000000, 3.000000000000007105 ) ) ;
#783 = VERTEX_POINT ( 'NONE', #793 ) ;
#784 = DIRECTION ( 'NONE',  ( 1.000000000000000000, 0.000000000000000000, 0.000000000000000000 ) ) ;
#785 = LINE ( 'NONE', #144, #739 ) ;
#786 = ORIENTED_EDGE ( 'NONE', *, *, #789, .T. ) ;
#787 = DIRECTION ( 'NONE',  ( 0.000000000000000000, 1.000000000000000000, 0.000000000000000000 ) ) ;
#788 = CARTESIAN_POINT ( 'NONE',  ( -22.50000000000000000, 0.000000000000000000, 3.000000000000007105 ) ) ;
#789 = EDGE_CURVE ( 'NONE', #330, #427, #32, .T. ) ;
#790 = LINE ( 'NONE', #778, #687 ) ;
#791 = CC_DESIGN_APPROVAL ( #608, ( #677 ) ) ;
#792 = ORIENTED_EDGE ( 'NONE', *, *, #62, .T. ) ;
#793 = CARTESIAN_POINT ( 'NONE',  ( -25.34999999999999787, 0.000000000000000000, 0.000000000000000000 ) ) ;
#794 =( NAMED_UNIT ( * ) SI_UNIT ( $, .STERADIAN. ) SOLID_ANGLE_UNIT ( ) );
#795 = DIRECTION ( 'NONE',  ( 1.000000000000000000, 0.000000000000000000, 0.000000000000000000 ) ) ;
#796 = ADVANCED_FACE ( 'NONE', ( #448, #713 ), #643, .F. ) ;
#797 = LINE ( 'NONE', #151, #382 ) ;
#798 = EDGE_CURVE ( 'NONE', #194, #129, #186, .T. ) ;
#799 = ORIENTED_EDGE ( 'NONE', *, *, #912, .F. ) ;
#800 = CARTESIAN_POINT ( 'NONE',  ( -32.00000000000000000, -7.000000000000000000, 4.000000000000007105 ) ) ;
#801 = SHAPE_DEFINITION_REPRESENTATION ( #378, #377 ) ;
#802 = CARTESIAN_POINT ( 'NONE',  ( 7.500000000000000000, 0.000000000000000000, 3.000000000000007105 ) ) ;
#803 = LINE ( 'NONE', #19, #813 ) ;
#804 = ORIENTED_EDGE ( 'NONE', *, *, #893, .T. ) ;
#805 = COORDINATED_UNIVERSAL_TIME_OFFSET ( 6, 0, .BEHIND. ) ;
#806 = AXIS2_PLACEMENT_3D ( 'NONE', #172, #180, #598 ) ;
#807 = LINE ( 'NONE', #444, #816 ) ;
#808 = FACE_OUTER_BOUND ( 'NONE', #911, .T. ) ;
#809 = ORIENTED_EDGE ( 'NONE', *, *, #346, .T. ) ;
#810 = LINE ( 'NONE', #529, #833 ) ;
#811 = CALENDAR_DATE ( 2026, 28, 9 ) ;
#812 = DIRECTION ( 'NONE',  ( -1.000000000000000000, 0.000000000000000000, 0.000000000000000000 ) ) ;
#813 = VECTOR ( 'NONE', #527, 1000.000000000000000 ) ;
#814 = CIRCLE ( 'NONE', #779, 0.7500000000000006661 ) ;
#815 = FACE_OUTER_BOUND ( 'NONE', #637, .T. ) ;
#816 = VECTOR ( 'NONE', #169, 1000.000000000000000 ) ;
#817 = CARTESIAN_POINT ( 'NONE',  ( -30.00000000000000000, 5.000000000000000000, 4.000000000000003553 ) ) ;
#818 = CARTESIAN_POINT ( 'NONE',  ( -24.19999999999999929, 0.000000000000000000, 4.000000000000003553 ) ) ;
#819 = ADVANCED_FACE ( 'NONE', ( #219 ), #506, .F. ) ;
#820 = DIRECTION ( 'NONE',  ( -1.000000000000000000, 0.000000000000000000, 0.000000000000000000 ) ) ;
#821 = ORIENTED_EDGE ( 'NONE', *, *, #762, .T. ) ;
#822 = CC_DESIGN_PERSON_AND_ORGANIZATION_ASSIGNMENT ( #670, #737, ( #445 ) ) ;
#823 = VERTEX_POINT ( 'NONE', #718 ) ;
#824 = PRODUCT_DEFINITION ( 'UNKNOWN', '', #677, #156 ) ;
#825 = VECTOR ( 'NONE', #235, 1000.000000000000000 ) ;
#826 = DIRECTION ( 'NONE',  ( -0.000000000000000000, -0.000000000000000000, 1.000000000000000000 ) ) ;
#827 = UNCERTAINTY_MEASURE_WITH_UNIT (LENGTH_MEASURE( 1.000000000000000082E-05 ), #167, 'distance_accuracy_value', 'NONE');
#828 = DIRECTION ( 'NONE',  ( 1.000000000000000000, 0.000000000000000000, 0.000000000000000000 ) ) ;
#829 = AXIS2_PLACEMENT_3D ( 'NONE', #873, #5, #660 ) ;
#830 = ORIENTED_EDGE ( 'NONE', *, *, #304, .T. ) ;
#831 = CARTESIAN_POINT ( 'NONE',  ( 25.50000000000000000, 3.673940397442058882E-16, 3.000000000000007105 ) ) ;
#832 = ADVANCED_FACE ( 'NONE', ( #724 ), #367, .F. ) ;
#833 = VECTOR ( 'NONE', #317, 1000.000000000000000 ) ;
#834 = ORIENTED_EDGE ( 'NONE', *, *, #894, .F. ) ;
#835 = VERTEX_POINT ( 'NONE', #605 ) ;
#836 = ORIENTED_EDGE ( 'NONE', *, *, #417, .F. ) ;
#837 = DIRECTION ( 'NONE',  ( 0.000000000000000000, 0.000000000000000000, -1.000000000000000000 ) ) ;
#838 = CARTESIAN_POINT ( 'NONE',  ( 19.50000000000000000, 0.000000000000000000, 0.000000000000000000 ) ) ;
#839 = EDGE_LOOP ( 'NONE', ( #659, #776 ) ) ;
#840 = VERTEX_POINT ( 'NONE', #27 ) ;
#841 = DIRECTION ( 'NONE',  ( 1.000000000000000000, 0.000000000000000000, 0.000000000000000000 ) ) ;
#842 = AXIS2_PLACEMENT_3D ( 'NONE', #455, #372, #174 ) ;
#843 = CARTESIAN_POINT ( 'NONE',  ( -10.40000000000000036, 0.000000000000000000, 3.000000000000007105 ) ) ;
#844 = ORIENTED_EDGE ( 'NONE', *, *, #37, .T. ) ;
#845 = ORIENTED_EDGE ( 'NONE', *, *, #388, .F. ) ;
#846 = DIRECTION ( 'NONE',  ( 0.000000000000000000, -1.000000000000000000, 0.000000000000000000 ) ) ;
#847 = FACE_BOUND ( 'NONE', #618, .T. ) ;
#848 = AXIS2_PLACEMENT_3D ( 'NONE', #683, #536, #44 ) ;
#849 = EDGE_LOOP ( 'NONE', ( #855, #341 ) ) ;
#850 = CARTESIAN_POINT ( 'NONE',  ( -30.75000000000000000, 5.000000000000000000, 0.000000000000000000 ) ) ;
#851 = ORIENTED_EDGE ( 'NONE', *, *, #466, .T. ) ;
#852 = CARTESIAN_POINT ( 'NONE',  ( -32.00000000000000000, 7.000000000000000000, 4.000000000000007105 ) ) ;
#853 = VECTOR ( 'NONE', #242, 1000.000000000000000 ) ;
#854 = DIRECTION ( 'NONE',  ( 0.000000000000000000, 0.000000000000000000, 1.000000000000000000 ) ) ;
#855 = ORIENTED_EDGE ( 'NONE', *, *, #893, .F. ) ;
#856 = DIRECTION ( 'NONE',  ( 1.000000000000000000, 0.000000000000000000, 0.000000000000000000 ) ) ;
#857 = DIRECTION ( 'NONE',  ( 0.000000000000000000, 0.000000000000000000, 1.000000000000000000 ) ) ;
#858 = DIRECTION ( 'NONE',  ( 0.000000000000000000, 0.000000000000000000, 1.000000000000000000 ) ) ;
#859 = VERTEX_POINT ( 'NONE', #312 ) ;
#860 = DIRECTION ( 'NONE',  ( 1.000000000000000000, 0.000000000000000000, 0.000000000000000000 ) ) ;
#861 = PERSON_AND_ORGANIZATION ( #542, #551 ) ;
#862 = ADVANCED_FACE ( 'NONE', ( #319, #602 ), #736, .F. ) ;
#863 = LINE ( 'NONE', #671, #747 ) ;
#864 = ADVANCED_FACE ( 'NONE', ( #95 ), #250, .F. ) ;
#865 = CARTESIAN_POINT ( 'NONE',  ( -32.00000000000000000, -7.000000000000000000, 0.000000000000000000 ) ) ;
#866 = LOCAL_TIME ( 19, 9, 8.000000000000000000, #296 ) ;
#867 = VERTEX_POINT ( 'NONE', #533 ) ;
#868 = DIRECTION ( 'NONE',  ( 1.000000000000000000, 0.000000000000000000, -0.000000000000000000 ) ) ;
#869 = PERSON_AND_ORGANIZATION_ROLE ( 'design_supplier' ) ;
#870 = DIRECTION ( 'NONE',  ( -1.000000000000000000, 0.000000000000000000, 0.000000000000000000 ) ) ;
#871 = CARTESIAN_POINT ( 'NONE',  ( 7.500000000000000000, 0.000000000000000000, 3.000000000000007105 ) ) ;
#872 = VERTEX_POINT ( 'NONE', #105 ) ;
#873 = CARTESIAN_POINT ( 'NONE',  ( 22.50000000000000000, 0.000000000000000000, 0.000000000000000000 ) ) ;
#874 = DIRECTION ( 'NONE',  ( 0.000000000000000000, 0.000000000000000000, 1.000000000000000000 ) ) ;
#875 = CYLINDRICAL_SURFACE ( 'NONE', #253, 2.999999999999999112 ) ;
#876 = LINE ( 'NONE', #310, #667 ) ;
#877 = EDGE_CURVE ( 'NONE', #452, #195, #547, .T. ) ;
#878 = ORIENTED_EDGE ( 'NONE', *, *, #127, .T. ) ;
#879 = DIRECTION ( 'NONE',  ( -0.000000000000000000, -0.000000000000000000, -1.000000000000000000 ) ) ;
#880 = DATE_TIME_ROLE ( 'creation_date' ) ;
#881 = CIRCLE ( 'NONE', #400, 1.700000000000000178 ) ;
#882 = AXIS2_PLACEMENT_3D ( 'NONE', #190, #465, #257 ) ;
#883 = DIRECTION ( 'NONE',  ( 0.000000000000000000, 0.000000000000000000, 1.000000000000000000 ) ) ;
#884 = CARTESIAN_POINT ( 'NONE',  ( 7.500000000000000000, 0.000000000000000000, 3.000000000000007105 ) ) ;
#885 = CALENDAR_DATE ( 2026, 28, 9 ) ;
#886 = DIRECTION ( 'NONE',  ( 1.000000000000000000, 0.000000000000000000, -0.000000000000000000 ) ) ;
#887 = PLANE ( 'NONE',  #848 ) ;
#888 = ADVANCED_FACE ( 'NONE', ( #815 ), #464, .F. ) ;
#889 = VECTOR ( 'NONE', #703, 1000.000000000000000 ) ;
#890 = AXIS2_PLACEMENT_3D ( 'NONE', #520, #161, #450 ) ;
#891 = DIRECTION ( 'NONE',  ( -1.000000000000000000, 0.000000000000000000, 0.000000000000000000 ) ) ;
#892 = ORIENTED_EDGE ( 'NONE', *, *, #103, .F. ) ;
#893 = EDGE_CURVE ( 'NONE', #872, #693, #163, .T. ) ;
#894 = EDGE_CURVE ( 'NONE', #458, #424, #318, .T. ) ;
#895 = VECTOR ( 'NONE', #704, 1000.000000000000000 ) ;
#896 = FACE_OUTER_BOUND ( 'NONE', #54, .T. ) ;
#897 = AXIS2_PLACEMENT_3D ( 'NONE', #481, #854, #635 ) ;
#898 = AXIS2_PLACEMENT_3D ( 'NONE', #305, #222, #25 ) ;
#899 = CARTESIAN_POINT ( 'NONE',  ( -7.500000000000000000, 0.000000000000000000, 3.000000000000007105 ) ) ;
#900 = EDGE_LOOP ( 'NONE', ( #905, #237 ) ) ;
#901 = EDGE_CURVE ( 'NONE', #124, #115, #810, .T. ) ;
#902 = DIRECTION ( 'NONE',  ( 0.000000000000000000, 0.000000000000000000, -1.000000000000000000 ) ) ;
#903 = CIRCLE ( 'NONE', #614, 2.999999999999999112 ) ;
#904 = ORIENTED_EDGE ( 'NONE', *, *, #534, .T. ) ;
#905 = ORIENTED_EDGE ( 'NONE', *, *, #754, .T. ) ;
#906 = EDGE_LOOP ( 'NONE', ( #265, #299, #668, #410 ) ) ;
#907 = LOCAL_TIME ( 19, 9, 8.000000000000000000, #594 ) ;
#908 = ORIENTED_EDGE ( 'NONE', *, *, #236, .F. ) ;
#909 = DIRECTION ( 'NONE',  ( 0.000000000000000000, 0.000000000000000000, -1.000000000000000000 ) ) ;
#910 = VERTEX_POINT ( 'NONE', #743 ) ;
#911 = EDGE_LOOP ( 'NONE', ( #592, #26, #707, #270 ) ) ;
#912 = EDGE_CURVE ( 'NONE', #469, #43, #100, .T. ) ;
#913 = CARTESIAN_POINT ( 'NONE',  ( -22.50000000000000000, 0.000000000000000000, 4.000000000000003553 ) ) ;
#914 = FACE_BOUND ( 'NONE', #690, .T. ) ;
#915 = VERTEX_POINT ( 'NONE', #390 ) ;
#916 = ORIENTED_EDGE ( 'NONE', *, *, #198, .T. ) ;
#917 = CARTESIAN_POINT ( 'NONE',  ( 22.50000000000000000, 0.000000000000000000, 4.000000000000003553 ) ) ;
#918 = CIRCLE ( 'NONE', #634, 1.700000000000000178 ) ;
#919 = ADVANCED_FACE ( 'NONE', ( #248 ), #609, .F. ) ;
#920 = AXIS2_PLACEMENT_3D ( 'NONE', #500, #434, #140 ) ;
#921 = VECTOR ( 'NONE', #468, 1000.000000000000000 ) ;
#922 = CC_DESIGN_PERSON_AND_ORGANIZATION_ASSIGNMENT ( #443, #725, ( #74 ) ) ;
#923 = CARTESIAN_POINT ( 'NONE',  ( 22.50000000000000000, 0.000000000000000000, 4.000000000000003553 ) ) ;
#924 = ORIENTED_EDGE ( 'NONE', *, *, #323, .F. ) ;
#925 = DIRECTION ( 'NONE',  ( 0.000000000000000000, 0.000000000000000000, -1.000000000000000000 ) ) ;
#926 = EDGE_LOOP ( 'NONE', ( #374, #878, #407, #723 ) ) ;
#927 = CARTESIAN_POINT ( 'NONE',  ( -29.25000000000000000, 5.000000000000000000, 0.000000000000000000 ) ) ;
ENDSEC;
END-ISO-10303-21;
