ISO-10303-21;
HEADER;
FILE_DESCRIPTION (( 'STEP AP203' ),
    '1' );
FILE_NAME ('FIT-002_SG90_horn_pocket_clearance_0p05.step',
    '2026-09-13T02:59:00',
    ( '' ),
    ( '' ),
    'SwSTEP 2.0',
    'SolidWorks 2026',
    '' );
FILE_SCHEMA (( 'CONFIG_CONTROL_DESIGN' ));
ENDSEC;

DATA;
#1 = DIRECTION ( 'NONE',  ( 0.000000000000000000, 0.000000000000000000, -1.000000000000000000 ) ) ;
#2 = FACE_OUTER_BOUND ( 'NONE', #445, .T. ) ;
#3 = CARTESIAN_POINT ( 'NONE',  ( 2.049999999999999822, -3.434748899119119070, -1.649999999999999911 ) ) ;
#4 = PERSON_AND_ORGANIZATION ( #800, #1104 ) ;
#5 = EDGE_CURVE ( 'NONE', #70, #501, #33, .T. ) ;
#6 = ORIENTED_EDGE ( 'NONE', *, *, #844, .T. ) ;
#7 = CYLINDRICAL_SURFACE ( 'NONE', #393, 2.049999999999999822 ) ;
#8 = LINE ( 'NONE', #607, #107 ) ;
#9 = FACE_OUTER_BOUND ( 'NONE', #772, .T. ) ;
#10 = PERSON_AND_ORGANIZATION_ROLE ( 'design_owner' ) ;
#11 = VERTEX_POINT ( 'NONE', #432 ) ;
#12 = EDGE_CURVE ( 'NONE', #919, #1116, #50, .T. ) ;
#13 = DIRECTION ( 'NONE',  ( -0.000000000000000000, -0.000000000000000000, -1.000000000000000000 ) ) ;
#14 = FACE_OUTER_BOUND ( 'NONE', #625, .T. ) ;
#15 = DIRECTION ( 'NONE',  ( -1.000000000000000000, 0.000000000000000000, 0.000000000000000000 ) ) ;
#16 = CARTESIAN_POINT ( 'NONE',  ( 0.000000000000000000, 0.000000000000000000, 0.000000000000000000 ) ) ;
#17 = CIRCLE ( 'NONE', #357, 2.049999999999999822 ) ;
#18 = ORIENTED_EDGE ( 'NONE', *, *, #12, .F. ) ;
#19 = AXIS2_PLACEMENT_3D ( 'NONE', #102, #855, #873 ) ;
#20 = CIRCLE ( 'NONE', #525, 1.150000000000000799 ) ;
#21 = CIRCLE ( 'NONE', #1087, 4.000000000000000000 ) ;
#22 = CARTESIAN_POINT ( 'NONE',  ( -8.150000000000000355, 0.000000000000000000, 0.000000000000000000 ) ) ;
#23 = DIRECTION ( 'NONE',  ( -0.000000000000000000, -0.000000000000000000, -1.000000000000000000 ) ) ;
#24 = ORIENTED_EDGE ( 'NONE', *, *, #844, .F. ) ;
#25 = DIRECTION ( 'NONE',  ( 0.000000000000000000, 0.000000000000000000, 1.000000000000000000 ) ) ;
#26 = FACE_BOUND ( 'NONE', #876, .T. ) ;
#27 = EDGE_LOOP ( 'NONE', ( #152, #282, #72, #513, #1049, #796, #628, #587, #181, #601, #1018, #1064 ) ) ;
#28 = LINE ( 'NONE', #371, #615 ) ;
#29 = EDGE_CURVE ( 'NONE', #1103, #805, #211, .T. ) ;
#30 = LINE ( 'NONE', #295, #1010 ) ;
#31 = VERTEX_POINT ( 'NONE', #874 ) ;
#32 = DIRECTION ( 'NONE',  ( 1.000000000000000000, 0.000000000000000000, 0.000000000000000000 ) ) ;
#33 = CIRCLE ( 'NONE', #665, 2.049999999999999822 ) ;
#34 = VECTOR ( 'NONE', #97, 1000.000000000000000 ) ;
#35 = LINE ( 'NONE', #727, #392 ) ;
#36 = AXIS2_PLACEMENT_3D ( 'NONE', #983, #897, #468 ) ;
#37 = CARTESIAN_POINT ( 'NONE',  ( -8.150000000000000355, 7.000000000000000000, 4.000000000000003553 ) ) ;
#38 = EDGE_CURVE ( 'NONE', #11, #924, #443, .T. ) ;
#39 = ORIENTED_EDGE ( 'NONE', *, *, #235, .F. ) ;
#40 = ADVANCED_FACE ( 'NONE', ( #9 ), #616, .F. ) ;
#41 = CARTESIAN_POINT ( 'NONE',  ( -2.049999999999999822, 8.150000000000000355, 0.000000000000000000 ) ) ;
#42 = FACE_BOUND ( 'NONE', #323, .T. ) ;
#43 = ORIENTED_EDGE ( 'NONE', *, *, #852, .T. ) ;
#44 = EDGE_CURVE ( 'NONE', #1037, #733, #784, .T. ) ;
#45 = DIRECTION ( 'NONE',  ( -1.000000000000000000, 0.000000000000000000, 0.000000000000000000 ) ) ;
#46 = FACE_OUTER_BOUND ( 'NONE', #754, .T. ) ;
#47 = VERTEX_POINT ( 'NONE', #3 ) ;
#48 = CARTESIAN_POINT ( 'NONE',  ( -8.150000000000000355, 2.049999999999999822, 0.000000000000000000 ) ) ;
#49 = EDGE_CURVE ( 'NONE', #545, #347, #968, .T. ) ;
#50 = CIRCLE ( 'NONE', #410, 1.150000000000000799 ) ;
#51 = DIRECTION ( 'NONE',  ( 0.000000000000000000, 0.000000000000000000, 1.000000000000000000 ) ) ;
#52 = ADVANCED_FACE ( 'NONE', ( #699 ), #260, .F. ) ;
#53 = CARTESIAN_POINT ( 'NONE',  ( -8.150000000000000355, -2.049999999999999822, 0.000000000000000000 ) ) ;
#54 = AXIS2_PLACEMENT_3D ( 'NONE', #205, #381, #121 ) ;
#55 = PRODUCT ( 'FIT-002_SG90_horn_pocket_clearance_0p05', 'FIT-002_SG90_horn_pocket_clearance_0p05', '', ( #281 ) ) ;
#56 = VERTEX_POINT ( 'NONE', #174 ) ;
#57 = DIRECTION ( 'NONE',  ( -1.000000000000000000, 0.000000000000000000, 0.000000000000000000 ) ) ;
#58 = CARTESIAN_POINT ( 'NONE',  ( 5.849999999999999645, 7.000000000000000000, 4.000000000000003553 ) ) ;
#59 = EDGE_CURVE ( 'NONE', #950, #183, #1101, .T. ) ;
#60 = DIRECTION ( 'NONE',  ( 0.000000000000000000, 0.000000000000000000, 1.000000000000000000 ) ) ;
#61 = ORIENTED_EDGE ( 'NONE', *, *, #957, .F. ) ;
#62 = ORIENTED_EDGE ( 'NONE', *, *, #957, .T. ) ;
#63 = PLANE ( 'NONE',  #791 ) ;
#64 = DIRECTION ( 'NONE',  ( -0.000000000000000000, -0.000000000000000000, 1.000000000000000000 ) ) ;
#65 = ORIENTED_EDGE ( 'NONE', *, *, #237, .F. ) ;
#66 = ORIENTED_EDGE ( 'NONE', *, *, #702, .T. ) ;
#67 = LINE ( 'NONE', #58, #320 ) ;
#68 = DIRECTION ( 'NONE',  ( 1.000000000000000000, 0.000000000000000000, 0.000000000000000000 ) ) ;
#69 = VECTOR ( 'NONE', #641, 1000.000000000000000 ) ;
#70 = VERTEX_POINT ( 'NONE', #438 ) ;
#71 = CIRCLE ( 'NONE', #651, 2.049999999999999822 ) ;
#72 = ORIENTED_EDGE ( 'NONE', *, *, #1118, .T. ) ;
#73 = CARTESIAN_POINT ( 'NONE',  ( -10.20000000000000107, 0.000000000000000000, -1.649999999999999911 ) ) ;
#74 = PLANE ( 'NONE',  #123 ) ;
#75 = VERTEX_POINT ( 'NONE', #770 ) ;
#76 = CARTESIAN_POINT ( 'NONE',  ( -4.000000000000000000, 0.000000000000000000, 4.000000000000000000 ) ) ;
#77 = VERTEX_POINT ( 'NONE', #265 ) ;
#78 = ADVANCED_FACE ( 'NONE', ( #708 ), #964, .F. ) ;
#79 = DIRECTION ( 'NONE',  ( 1.000000000000000000, 0.000000000000000000, 0.000000000000000000 ) ) ;
#80 = LINE ( 'NONE', #337, #900 ) ;
#81 = ORIENTED_EDGE ( 'NONE', *, *, #803, .T. ) ;
#82 = ORIENTED_EDGE ( 'NONE', *, *, #600, .F. ) ;
#83 = CARTESIAN_POINT ( 'NONE',  ( 7.000000000000000000, 7.000000000000000000, 4.000000000000003553 ) ) ;
#84 = CARTESIAN_POINT ( 'NONE',  ( -8.150000000000000355, 0.000000000000000000, 0.000000000000000000 ) ) ;
#85 = DIRECTION ( 'NONE',  ( 1.000000000000000000, 0.000000000000000000, 0.000000000000000000 ) ) ;
#86 = AXIS2_PLACEMENT_3D ( 'NONE', #1108, #506, #413 ) ;
#87 = DATE_AND_TIME ( #99, #997 ) ;
#88 = EDGE_LOOP ( 'NONE', ( #853, #838, #655, #535 ) ) ;
#89 = APPROVAL_PERSON_ORGANIZATION ( #1056, #1072, #718 ) ;
#90 = CARTESIAN_POINT ( 'NONE',  ( 3.434748899119119070, 2.049999999999999822, 0.000000000000000000 ) ) ;
#91 = CARTESIAN_POINT ( 'NONE',  ( -8.150000000000000355, 7.000000000000000000, 4.000000000000003553 ) ) ;
#92 = ADVANCED_FACE ( 'NONE', ( #542, #26, #476, #820, #46, #815 ), #1063, .T. ) ;
#93 = DIRECTION ( 'NONE',  ( 1.000000000000000000, 0.000000000000000000, 0.000000000000000000 ) ) ;
#94 = DIRECTION ( 'NONE',  ( 1.000000000000000000, 0.000000000000000000, 0.000000000000000000 ) ) ;
#95 = EDGE_LOOP ( 'NONE', ( #143, #244 ) ) ;
#96 = CARTESIAN_POINT ( 'NONE',  ( 0.000000000000000000, 0.000000000000000000, -1.649999999999999911 ) ) ;
#97 = DIRECTION ( 'NONE',  ( 0.000000000000000000, 0.000000000000000000, -1.000000000000000000 ) ) ;
#98 = CARTESIAN_POINT ( 'NONE',  ( 7.000000000000000000, -7.000000000000000000, 4.000000000000003553 ) ) ;
#99 = CALENDAR_DATE ( 2026, 12, 9 ) ;
#100 = EDGE_CURVE ( 'NONE', #725, #519, #1086, .T. ) ;
#101 = ORIENTED_EDGE ( 'NONE', *, *, #1042, .T. ) ;
#102 = CARTESIAN_POINT ( 'NONE',  ( -7.000000000000000000, 7.000000000000000000, -1.650000000000000355 ) ) ;
#103 = DIRECTION ( 'NONE',  ( -0.000000000000000000, -0.000000000000000000, -1.000000000000000000 ) ) ;
#104 = PERSON_AND_ORGANIZATION ( #800, #1104 ) ;
#105 = AXIS2_PLACEMENT_3D ( 'NONE', #789, #693, #280 ) ;
#106 = ORIENTED_EDGE ( 'NONE', *, *, #979, .T. ) ;
#107 = VECTOR ( 'NONE', #429, 1000.000000000000000 ) ;
#108 = CARTESIAN_POINT ( 'NONE',  ( 0.000000000000000000, -8.150000000000000355, 0.000000000000000000 ) ) ;
#109 = DIRECTION ( 'NONE',  ( -0.000000000000000000, -0.000000000000000000, -1.000000000000000000 ) ) ;
#110 = COORDINATED_UNIVERSAL_TIME_OFFSET ( 6, 0, .BEHIND. ) ;
#111 = ORIENTED_EDGE ( 'NONE', *, *, #201, .F. ) ;
#112 = EDGE_CURVE ( 'NONE', #725, #1037, #17, .T. ) ;
#113 = CARTESIAN_POINT ( 'NONE',  ( 13.00000000000000000, 1.592040838891559095E-15, 4.000000000000000000 ) ) ;
#114 = CARTESIAN_POINT ( 'NONE',  ( 2.049999999999999822, -8.150000000000000355, -1.649999999999999911 ) ) ;
#115 = ORIENTED_EDGE ( 'NONE', *, *, #1097, .T. ) ;
#116 = CYLINDRICAL_SURFACE ( 'NONE', #54, 4.000000000000000000 ) ;
#117 = CARTESIAN_POINT ( 'NONE',  ( 0.000000000000000000, 0.000000000000000000, 4.000000000000000000 ) ) ;
#118 = EDGE_CURVE ( 'NONE', #924, #714, #895, .T. ) ;
#119 = CARTESIAN_POINT ( 'NONE',  ( 7.000000000000000000, 7.000000000000000000, 4.000000000000003553 ) ) ;
#120 = VERTEX_POINT ( 'NONE', #460 ) ;
#121 = DIRECTION ( 'NONE',  ( -1.000000000000000000, 0.000000000000000000, 0.000000000000000000 ) ) ;
#122 = CIRCLE ( 'NONE', #593, 1.149999999999999911 ) ;
#123 = AXIS2_PLACEMENT_3D ( 'NONE', #419, #135, #356 ) ;
#124 = DIRECTION ( 'NONE',  ( 0.000000000000000000, 1.000000000000000000, 0.000000000000000000 ) ) ;
#125 = CIRCLE ( 'NONE', #633, 13.00000000000000000 ) ;
#126 = DIRECTION ( 'NONE',  ( 0.000000000000000000, 0.000000000000000000, 1.000000000000000000 ) ) ;
#127 = EDGE_CURVE ( 'NONE', #960, #347, #1065, .T. ) ;
#128 = ORIENTED_EDGE ( 'NONE', *, *, #539, .T. ) ;
#129 = DIRECTION ( 'NONE',  ( 0.000000000000000000, 0.000000000000000000, 1.000000000000000000 ) ) ;
#130 = FACE_BOUND ( 'NONE', #1114, .T. ) ;
#131 = EDGE_LOOP ( 'NONE', ( #1076, #101, #906, #846 ) ) ;
#132 = EDGE_CURVE ( 'NONE', #887, #638, #704, .T. ) ;
#133 = FACE_OUTER_BOUND ( 'NONE', #1088, .T. ) ;
#134 = DIRECTION ( 'NONE',  ( 1.000000000000000000, 0.000000000000000000, 0.000000000000000000 ) ) ;
#135 = DIRECTION ( 'NONE',  ( 0.000000000000000000, 0.000000000000000000, -1.000000000000000000 ) ) ;
#136 = ORIENTED_EDGE ( 'NONE', *, *, #257, .F. ) ;
#137 = CARTESIAN_POINT ( 'NONE',  ( 8.150000000000000355, 2.049999999999999822, 0.000000000000000000 ) ) ;
#138 = ADVANCED_FACE ( 'NONE', ( #455, #42, #799, #130, #388, #721 ), #203, .F. ) ;
#139 = CARTESIAN_POINT ( 'NONE',  ( 2.049999999999999822, -8.150000000000000355, 0.000000000000000000 ) ) ;
#140 = VECTOR ( 'NONE', #283, 1000.000000000000000 ) ;
#141 = DIRECTION ( 'NONE',  ( 0.000000000000000000, 0.000000000000000000, -1.000000000000000000 ) ) ;
#142 = AXIS2_PLACEMENT_3D ( 'NONE', #83, #854, #354 ) ;
#143 = ORIENTED_EDGE ( 'NONE', *, *, #423, .F. ) ;
#144 = ORIENTED_EDGE ( 'NONE', *, *, #386, .T. ) ;
#145 = PLANE ( 'NONE',  #1013 ) ;
#146 = EDGE_CURVE ( 'NONE', #477, #165, #284, .T. ) ;
#147 = DIRECTION ( 'NONE',  ( -1.000000000000000000, 0.000000000000000000, 0.000000000000000000 ) ) ;
#148 = EDGE_LOOP ( 'NONE', ( #745, #623, #588, #667 ) ) ;
#149 = CARTESIAN_POINT ( 'NONE',  ( -7.000000000000000000, -7.000000000000000000, 4.000000000000003553 ) ) ;
#150 = LINE ( 'NONE', #922, #1083 ) ;
#151 = EDGE_CURVE ( 'NONE', #1007, #299, #843, .T. ) ;
#152 = ORIENTED_EDGE ( 'NONE', *, *, #679, .F. ) ;
#153 = ORIENTED_EDGE ( 'NONE', *, *, #364, .T. ) ;
#154 = CARTESIAN_POINT ( 'NONE',  ( 2.049999999999999822, -8.150000000000000355, 0.000000000000000000 ) ) ;
#155 = AXIS2_PLACEMENT_3D ( 'NONE', #290, #637, #999 ) ;
#156 = CARTESIAN_POINT ( 'NONE',  ( -8.150000000000000355, 2.049999999999999822, -1.649999999999999911 ) ) ;
#157 = VECTOR ( 'NONE', #589, 1000.000000000000000 ) ;
#158 = CIRCLE ( 'NONE', #363, 4.000000000000000000 ) ;
#159 = VERTEX_POINT ( 'NONE', #977 ) ;
#160 = EDGE_CURVE ( 'NONE', #677, #558, #30, .T. ) ;
#161 = ORIENTED_EDGE ( 'NONE', *, *, #811, .T. ) ;
#162 = CARTESIAN_POINT ( 'NONE',  ( 8.150000000000000355, 0.000000000000000000, 0.000000000000000000 ) ) ;
#163 = DIRECTION ( 'NONE',  ( 0.000000000000000000, 0.000000000000000000, -1.000000000000000000 ) ) ;
#164 = ORIENTED_EDGE ( 'NONE', *, *, #386, .F. ) ;
#165 = VERTEX_POINT ( 'NONE', #1070 ) ;
#166 = CARTESIAN_POINT ( 'NONE',  ( 0.000000000000000000, 0.000000000000000000, -1.649999999999999911 ) ) ;
#167 = CARTESIAN_POINT ( 'NONE',  ( -2.049999999999999822, -8.150000000000000355, -1.649999999999999911 ) ) ;
#168 = ORIENTED_EDGE ( 'NONE', *, *, #29, .T. ) ;
#169 = COORDINATED_UNIVERSAL_TIME_OFFSET ( 6, 0, .BEHIND. ) ;
#170 = ORIENTED_EDGE ( 'NONE', *, *, #5, .F. ) ;
#171 = CARTESIAN_POINT ( 'NONE',  ( -8.150000000000000355, -2.049999999999999822, -1.649999999999999911 ) ) ;
#172 = EDGE_CURVE ( 'NONE', #638, #887, #285, .T. ) ;
#173 = CARTESIAN_POINT ( 'NONE',  ( -8.150000000000000355, 0.000000000000000000, -1.649999999999999911 ) ) ;
#174 = CARTESIAN_POINT ( 'NONE',  ( -4.000000000000000000, 0.000000000000000000, 4.000000000000000000 ) ) ;
#175 = AXIS2_PLACEMENT_3D ( 'NONE', #98, #366, #621 ) ;
#176 = AXIS2_PLACEMENT_3D ( 'NONE', #349, #247, #1034 ) ;
#177 = ORIENTED_EDGE ( 'NONE', *, *, #971, .T. ) ;
#178 = CIRCLE ( 'NONE', #884, 1.149999999999999911 ) ;
#179 = DIRECTION ( 'NONE',  ( 0.000000000000000000, 0.000000000000000000, 1.000000000000000000 ) ) ;
#180 = DIRECTION ( 'NONE',  ( 0.000000000000000000, 0.000000000000000000, -1.000000000000000000 ) ) ;
#181 = ORIENTED_EDGE ( 'NONE', *, *, #273, .F. ) ;
#182 = APPLICATION_PROTOCOL_DEFINITION ( 'international standard', 'config_control_design', 1994, #276 ) ;
#183 = VERTEX_POINT ( 'NONE', #1080 ) ;
#184 = CARTESIAN_POINT ( 'NONE',  ( 2.049999999999999822, 3.434748899119119070, -1.649999999999999911 ) ) ;
#185 = ORIENTED_EDGE ( 'NONE', *, *, #1112, .T. ) ;
#186 = DIRECTION ( 'NONE',  ( 0.000000000000000000, 0.000000000000000000, 1.000000000000000000 ) ) ;
#187 = VERTEX_POINT ( 'NONE', #37 ) ;
#188 = DIRECTION ( 'NONE',  ( 0.000000000000000000, 0.000000000000000000, 1.000000000000000000 ) ) ;
#189 = CARTESIAN_POINT ( 'NONE',  ( -8.150000000000000355, 0.000000000000000000, 0.000000000000000000 ) ) ;
#190 = DATE_AND_TIME ( #870, #742 ) ;
#191 = AXIS2_PLACEMENT_3D ( 'NONE', #314, #675, #571 ) ;
#192 = ORIENTED_EDGE ( 'NONE', *, *, #59, .T. ) ;
#193 = ADVANCED_FACE ( 'NONE', ( #631 ), #379, .T. ) ;
#194 = VECTOR ( 'NONE', #278, 1000.000000000000000 ) ;
#195 = AXIS2_PLACEMENT_3D ( 'NONE', #307, #292, #656 ) ;
#196 = CC_DESIGN_SECURITY_CLASSIFICATION ( #288, ( #1069 ) ) ;
#197 = CARTESIAN_POINT ( 'NONE',  ( 2.049999999999999822, 3.434748899119119070, 0.000000000000000000 ) ) ;
#198 = DIRECTION ( 'NONE',  ( -0.000000000000000000, -1.000000000000000000, -0.000000000000000000 ) ) ;
#199 = ORIENTED_EDGE ( 'NONE', *, *, #146, .F. ) ;
#200 = DIRECTION ( 'NONE',  ( -1.000000000000000000, 0.000000000000000000, 0.000000000000000000 ) ) ;
#201 = EDGE_CURVE ( 'NONE', #1007, #919, #642, .T. ) ;
#202 = LINE ( 'NONE', #458, #916 ) ;
#203 = PLANE ( 'NONE',  #318 ) ;
#204 = ORIENTED_EDGE ( 'NONE', *, *, #963, .T. ) ;
#205 = CARTESIAN_POINT ( 'NONE',  ( 0.000000000000000000, 0.000000000000000000, 4.000000000000000000 ) ) ;
#206 = DIRECTION ( 'NONE',  ( 0.000000000000000000, 0.000000000000000000, -1.000000000000000000 ) ) ;
#207 = EDGE_CURVE ( 'NONE', #398, #610, #647, .T. ) ;
#208 = CARTESIAN_POINT ( 'NONE',  ( 8.150000000000000355, -2.049999999999999822, 0.000000000000000000 ) ) ;
#209 = ORIENTED_EDGE ( 'NONE', *, *, #1044, .T. ) ;
#210 = LINE ( 'NONE', #734, #487 ) ;
#211 = CIRCLE ( 'NONE', #175, 1.150000000000000799 ) ;
#212 = CIRCLE ( 'NONE', #972, 4.000000000000000000 ) ;
#213 = VECTOR ( 'NONE', #206, 1000.000000000000000 ) ;
#214 = CARTESIAN_POINT ( 'NONE',  ( 3.434748899119119070, -2.049999999999999822, 0.000000000000000000 ) ) ;
#215 = AXIS2_PLACEMENT_3D ( 'NONE', #271, #510, #787 ) ;
#216 = DIRECTION ( 'NONE',  ( 0.000000000000000000, 0.000000000000000000, 1.000000000000000000 ) ) ;
#217 = ORIENTED_EDGE ( 'NONE', *, *, #1085, .T. ) ;
#218 = CARTESIAN_POINT ( 'NONE',  ( 2.049999999999999822, -8.150000000000000355, -1.649999999999999911 ) ) ;
#219 = CARTESIAN_POINT ( 'NONE',  ( -5.850000000000000533, 7.000000000000000000, -1.650000000000000355 ) ) ;
#220 = ORIENTED_EDGE ( 'NONE', *, *, #1118, .F. ) ;
#221 = DIRECTION ( 'NONE',  ( 0.000000000000000000, 0.000000000000000000, 1.000000000000000000 ) ) ;
#222 = CARTESIAN_POINT ( 'NONE',  ( 8.150000000000000355, -7.000000000000000000, 4.000000000000003553 ) ) ;
#223 = CARTESIAN_POINT ( 'NONE',  ( 0.000000000000000000, 0.000000000000000000, -1.649999999999999911 ) ) ;
#224 = VERTEX_POINT ( 'NONE', #753 ) ;
#225 = DIRECTION ( 'NONE',  ( 1.000000000000000000, 0.000000000000000000, 0.000000000000000000 ) ) ;
#226 = EDGE_CURVE ( 'NONE', #11, #420, #499, .T. ) ;
#227 = ORIENTED_EDGE ( 'NONE', *, *, #226, .T. ) ;
#228 = DIRECTION ( 'NONE',  ( 0.000000000000000000, 0.000000000000000000, -1.000000000000000000 ) ) ;
#229 = ADVANCED_BREP_SHAPE_REPRESENTATION ( 'FIT-002_SG90_horn_pocket_clearance_0p05', ( #355, #955 ), #975 ) ;
#230 = VECTOR ( 'NONE', #743, 1000.000000000000000 ) ;
#231 = CARTESIAN_POINT ( 'NONE',  ( -8.150000000000000355, -2.049999999999999822, 0.000000000000000000 ) ) ;
#232 = AXIS2_PLACEMENT_3D ( 'NONE', #258, #1, #961 ) ;
#233 = ORIENTED_EDGE ( 'NONE', *, *, #118, .T. ) ;
#234 = EDGE_LOOP ( 'NONE', ( #199, #1081, #695, #527 ) ) ;
#235 = EDGE_CURVE ( 'NONE', #950, #725, #1095, .T. ) ;
#236 = CYLINDRICAL_SURFACE ( 'NONE', #741, 1.150000000000000799 ) ;
#237 = EDGE_CURVE ( 'NONE', #340, #159, #934, .T. ) ;
#238 = FACE_OUTER_BOUND ( 'NONE', #1109, .T. ) ;
#239 = ORIENTED_EDGE ( 'NONE', *, *, #38, .T. ) ;
#240 = ORIENTED_EDGE ( 'NONE', *, *, #563, .T. ) ;
#241 = DIRECTION ( 'NONE',  ( 0.000000000000000000, 0.000000000000000000, -1.000000000000000000 ) ) ;
#242 = ADVANCED_FACE ( 'NONE', ( #927 ), #765, .T. ) ;
#243 = DIRECTION ( 'NONE',  ( 1.000000000000000000, 0.000000000000000000, 0.000000000000000000 ) ) ;
#244 = ORIENTED_EDGE ( 'NONE', *, *, #963, .F. ) ;
#245 = EDGE_LOOP ( 'NONE', ( #291, #296, #342, #790, #540, #508, #493, #286, #250, #409, #970, #220 ) ) ;
#246 = CARTESIAN_POINT ( 'NONE',  ( -8.150000000000000355, -7.000000000000000000, -1.650000000000000355 ) ) ;
#247 = DIRECTION ( 'NONE',  ( 0.000000000000000000, 0.000000000000000000, -1.000000000000000000 ) ) ;
#248 = AXIS2_PLACEMENT_3D ( 'NONE', #687, #516, #253 ) ;
#249 = CIRCLE ( 'NONE', #1124, 1.149999999999999911 ) ;
#250 = ORIENTED_EDGE ( 'NONE', *, *, #279, .F. ) ;
#251 = EDGE_LOOP ( 'NONE', ( #834, #239, #233, #928 ) ) ;
#252 = LINE ( 'NONE', #703, #686 ) ;
#253 = DIRECTION ( 'NONE',  ( 1.000000000000000000, 0.000000000000000000, 0.000000000000000000 ) ) ;
#254 = VERTEX_POINT ( 'NONE', #931 ) ;
#255 = PERSON_AND_ORGANIZATION_ROLE ( 'design_supplier' ) ;
#256 = ORIENTED_EDGE ( 'NONE', *, *, #888, .F. ) ;
#257 = EDGE_CURVE ( 'NONE', #159, #340, #122, .T. ) ;
#258 = CARTESIAN_POINT ( 'NONE',  ( -7.000000000000000000, 7.000000000000000000, 4.000000000000003553 ) ) ;
#259 = DIRECTION ( 'NONE',  ( 0.000000000000000000, 0.000000000000000000, -1.000000000000000000 ) ) ;
#260 = CYLINDRICAL_SURFACE ( 'NONE', #882, 1.150000000000000799 ) ;
#261 = ORIENTED_EDGE ( 'NONE', *, *, #49, .F. ) ;
#262 = CC_DESIGN_PERSON_AND_ORGANIZATION_ASSIGNMENT ( #959, #518, ( #1069 ) ) ;
#263 = DIRECTION ( 'NONE',  ( -1.000000000000000000, 0.000000000000000000, 0.000000000000000000 ) ) ;
#264 = DIRECTION ( 'NONE',  ( 0.000000000000000000, 0.000000000000000000, 1.000000000000000000 ) ) ;
#265 = CARTESIAN_POINT ( 'NONE',  ( 2.049999999999999822, -3.434748899119119070, 0.000000000000000000 ) ) ;
#266 = VECTOR ( 'NONE', #383, 1000.000000000000000 ) ;
#267 = APPROVAL_STATUS ( 'not_yet_approved' ) ;
#268 = AXIS2_PLACEMENT_3D ( 'NONE', #173, #692, #272 ) ;
#269 = VERTEX_POINT ( 'NONE', #914 ) ;
#270 = LOCAL_TIME ( 21, 59, 0.000000000000000000, #780 ) ;
#271 = CARTESIAN_POINT ( 'NONE',  ( -8.150000000000000355, 0.000000000000000000, -1.649999999999999911 ) ) ;
#272 = DIRECTION ( 'NONE',  ( 1.000000000000000000, 0.000000000000000000, 0.000000000000000000 ) ) ;
#273 = EDGE_CURVE ( 'NONE', #477, #618, #1091, .T. ) ;
#274 = EDGE_LOOP ( 'NONE', ( #111, #384, #161, #43 ) ) ;
#275 = COORDINATED_UNIVERSAL_TIME_OFFSET ( 6, 0, .BEHIND. ) ;
#276 = APPLICATION_CONTEXT ( 'configuration controlled 3d designs of mechanical parts and assemblies' ) ;
#277 = VERTEX_POINT ( 'NONE', #219 ) ;
#278 = DIRECTION ( 'NONE',  ( -0.000000000000000000, -1.000000000000000000, -0.000000000000000000 ) ) ;
#279 = EDGE_CURVE ( 'NONE', #254, #11, #448, .T. ) ;
#280 = DIRECTION ( 'NONE',  ( -1.000000000000000000, 0.000000000000000000, 0.000000000000000000 ) ) ;
#281 = MECHANICAL_CONTEXT ( 'NONE', #276, 'mechanical' ) ;
#282 = ORIENTED_EDGE ( 'NONE', *, *, #926, .T. ) ;
#283 = DIRECTION ( 'NONE',  ( 0.000000000000000000, 0.000000000000000000, -1.000000000000000000 ) ) ;
#284 = LINE ( 'NONE', #114, #266 ) ;
#285 = CIRCLE ( 'NONE', #301, 1.149999999999999911 ) ;
#286 = ORIENTED_EDGE ( 'NONE', *, *, #38, .F. ) ;
#287 = VECTOR ( 'NONE', #949, 1000.000000000000000 ) ;
#288 = SECURITY_CLASSIFICATION ( '', '', #700 ) ;
#289 = LINE ( 'NONE', #1059, #865 ) ;
#290 = CARTESIAN_POINT ( 'NONE',  ( 0.000000000000000000, 0.000000000000000000, 0.000000000000000000 ) ) ;
#291 = ORIENTED_EDGE ( 'NONE', *, *, #325, .T. ) ;
#292 = DIRECTION ( 'NONE',  ( 0.000000000000000000, 0.000000000000000000, 1.000000000000000000 ) ) ;
#293 = EDGE_CURVE ( 'NONE', #1103, #1092, #150, .T. ) ;
#294 = LINE ( 'NONE', #984, #213 ) ;
#295 = CARTESIAN_POINT ( 'NONE',  ( 13.00000000000000000, 1.592040838891559095E-15, 4.000000000000000000 ) ) ;
#296 = ORIENTED_EDGE ( 'NONE', *, *, #679, .T. ) ;
#297 = DIRECTION ( 'NONE',  ( 1.000000000000000000, 0.000000000000000000, 0.000000000000000000 ) ) ;
#298 = CARTESIAN_POINT ( 'NONE',  ( 0.000000000000000000, 8.150000000000000355, 0.000000000000000000 ) ) ;
#299 = VERTEX_POINT ( 'NONE', #1100 ) ;
#300 = FACE_OUTER_BOUND ( 'NONE', #88, .T. ) ;
#301 = AXIS2_PLACEMENT_3D ( 'NONE', #646, #717, #465 ) ;
#302 = VECTOR ( 'NONE', #241, 1000.000000000000000 ) ;
#303 = AXIS2_PLACEMENT_3D ( 'NONE', #559, #806, #907 ) ;
#304 = CARTESIAN_POINT ( 'NONE',  ( -8.150000000000000355, -2.049999999999999822, 0.000000000000000000 ) ) ;
#305 = DIRECTION ( 'NONE',  ( 0.000000000000000000, 0.000000000000000000, -1.000000000000000000 ) ) ;
#306 = ORIENTED_EDGE ( 'NONE', *, *, #894, .T. ) ;
#307 = CARTESIAN_POINT ( 'NONE',  ( 0.000000000000000000, 0.000000000000000000, -1.649999999999999911 ) ) ;
#308 = DIRECTION ( 'NONE',  ( 0.000000000000000000, 1.000000000000000000, 0.000000000000000000 ) ) ;
#309 = DIRECTION ( 'NONE',  ( 0.000000000000000000, 0.000000000000000000, 1.000000000000000000 ) ) ;
#310 = ADVANCED_FACE ( 'NONE', ( #481 ), #909, .T. ) ;
#311 = ORIENTED_EDGE ( 'NONE', *, *, #836, .T. ) ;
#312 = CARTESIAN_POINT ( 'NONE',  ( -7.000000000000000000, -7.000000000000000000, 4.000000000000003553 ) ) ;
#313 = DIRECTION ( 'NONE',  ( 0.000000000000000000, 0.000000000000000000, -1.000000000000000000 ) ) ;
#314 = CARTESIAN_POINT ( 'NONE',  ( -7.000000000000000000, -7.000000000000000000, 4.000000000000003553 ) ) ;
#315 = ORIENTED_EDGE ( 'NONE', *, *, #160, .F. ) ;
#316 = ORIENTED_EDGE ( 'NONE', *, *, #1078, .T. ) ;
#317 = ADVANCED_FACE ( 'NONE', ( #1009 ), #581, .T. ) ;
#318 = AXIS2_PLACEMENT_3D ( 'NONE', #804, #369, #552 ) ;
#319 = CARTESIAN_POINT ( 'NONE',  ( -8.150000000000000355, 2.049999999999999822, 0.000000000000000000 ) ) ;
#320 = VECTOR ( 'NONE', #570, 1000.000000000000000 ) ;
#321 = DIRECTION ( 'NONE',  ( 1.000000000000000000, -0.000000000000000000, 0.000000000000000000 ) ) ;
#322 = AXIS2_PLACEMENT_3D ( 'NONE', #312, #554, #478 ) ;
#323 = EDGE_LOOP ( 'NONE', ( #362, #461 ) ) ;
#324 = ORIENTED_EDGE ( 'NONE', *, *, #44, .F. ) ;
#325 = EDGE_CURVE ( 'NONE', #56, #407, #212, .T. ) ;
#326 = LINE ( 'NONE', #925, #847 ) ;
#327 = DIRECTION ( 'NONE',  ( 0.000000000000000000, 0.000000000000000000, 1.000000000000000000 ) ) ;
#328 = ORIENTED_EDGE ( 'NONE', *, *, #446, .F. ) ;
#329 = ORIENTED_EDGE ( 'NONE', *, *, #257, .T. ) ;
#330 = DIRECTION ( 'NONE',  ( 0.000000000000000000, 0.000000000000000000, 1.000000000000000000 ) ) ;
#331 = CC_DESIGN_PERSON_AND_ORGANIZATION_ASSIGNMENT ( #104, #451, ( #288 ) ) ;
#332 = DIRECTION ( 'NONE',  ( -0.000000000000000000, 1.000000000000000000, 0.000000000000000000 ) ) ;
#333 = VERTEX_POINT ( 'NONE', #156 ) ;
#334 = ORIENTED_EDGE ( 'NONE', *, *, #423, .T. ) ;
#335 = DIRECTION ( 'NONE',  ( -0.000000000000000000, -0.000000000000000000, -1.000000000000000000 ) ) ;
#336 = AXIS2_PLACEMENT_3D ( 'NONE', #119, #216, #809 ) ;
#337 = CARTESIAN_POINT ( 'NONE',  ( -2.049999999999999822, -8.150000000000000355, 0.000000000000000000 ) ) ;
#338 = VECTOR ( 'NONE', #308, 1000.000000000000000 ) ;
#339 = CIRCLE ( 'NONE', #36, 1.149999999999999911 ) ;
#340 = VERTEX_POINT ( 'NONE', #832 ) ;
#341 =( NAMED_UNIT ( * ) SI_UNIT ( $, .STERADIAN. ) SOLID_ANGLE_UNIT ( ) );
#342 = ORIENTED_EDGE ( 'NONE', *, *, #59, .F. ) ;
#343 = DIRECTION ( 'NONE',  ( 0.000000000000000000, 0.000000000000000000, 1.000000000000000000 ) ) ;
#344 = CYLINDRICAL_SURFACE ( 'NONE', #412, 13.00000000000000000 ) ;
#345 = CARTESIAN_POINT ( 'NONE',  ( -8.150000000000000355, -2.049999999999999822, 0.000000000000000000 ) ) ;
#346 = ADVANCED_FACE ( 'NONE', ( #406 ), #402, .T. ) ;
#347 = VERTEX_POINT ( 'NONE', #670 ) ;
#348 = CARTESIAN_POINT ( 'NONE',  ( -2.049999999999999822, -3.434748899119119070, 0.000000000000000000 ) ) ;
#349 = CARTESIAN_POINT ( 'NONE',  ( 0.000000000000000000, 0.000000000000000000, 0.000000000000000000 ) ) ;
#350 = CARTESIAN_POINT ( 'NONE',  ( 8.150000000000000355, 2.049999999999999822, 0.000000000000000000 ) ) ;
#351 = PERSON_AND_ORGANIZATION ( #800, #1104 ) ;
#352 = ORIENTED_EDGE ( 'NONE', *, *, #395, .T. ) ;
#353 = ADVANCED_FACE ( 'NONE', ( #238 ), #586, .F. ) ;
#354 = DIRECTION ( 'NONE',  ( 1.000000000000000000, 0.000000000000000000, 0.000000000000000000 ) ) ;
#355 = MANIFOLD_SOLID_BREP ( 'Hub_clearance_in_key_boss_only', #988 ) ;
#356 = DIRECTION ( 'NONE',  ( -1.000000000000000000, 0.000000000000000000, -0.000000000000000000 ) ) ;
#357 = AXIS2_PLACEMENT_3D ( 'NONE', #372, #562, #885 ) ;
#358 = ORIENTED_EDGE ( 'NONE', *, *, #151, .F. ) ;
#359 = AXIS2_PLACEMENT_3D ( 'NONE', #1119, #447, #163 ) ;
#360 = DATE_TIME_ROLE ( 'creation_date' ) ;
#361 = VECTOR ( 'NONE', #908, 1000.000000000000000 ) ;
#362 = ORIENTED_EDGE ( 'NONE', *, *, #132, .F. ) ;
#363 = AXIS2_PLACEMENT_3D ( 'NONE', #385, #390, #225 ) ;
#364 = EDGE_CURVE ( 'NONE', #805, #1103, #427, .T. ) ;
#365 = LINE ( 'NONE', #91, #1102 ) ;
#366 = DIRECTION ( 'NONE',  ( 0.000000000000000000, 0.000000000000000000, 1.000000000000000000 ) ) ;
#367 = ORIENTED_EDGE ( 'NONE', *, *, #612, .T. ) ;
#368 = CARTESIAN_POINT ( 'NONE',  ( -8.150000000000000355, -2.049999999999999822, 0.000000000000000000 ) ) ;
#369 = DIRECTION ( 'NONE',  ( 0.000000000000000000, 0.000000000000000000, 1.000000000000000000 ) ) ;
#370 = EDGE_LOOP ( 'NONE', ( #61, #367, #1043, #582 ) ) ;
#371 = CARTESIAN_POINT ( 'NONE',  ( 8.150000000000000355, -7.000000000000000000, 4.000000000000003553 ) ) ;
#372 = CARTESIAN_POINT ( 'NONE',  ( 8.150000000000000355, 0.000000000000000000, 0.000000000000000000 ) ) ;
#373 = ADVANCED_FACE ( 'NONE', ( #850 ), #74, .T. ) ;
#374 = ORIENTED_EDGE ( 'NONE', *, *, #712, .F. ) ;
#375 = CARTESIAN_POINT ( 'NONE',  ( 0.000000000000000000, 8.150000000000000355, 0.000000000000000000 ) ) ;
#376 = AXIS2_PLACEMENT_3D ( 'NONE', #798, #561, #45 ) ;
#377 = APPROVAL_PERSON_ORGANIZATION ( #862, #486, #617 ) ;
#378 = DIRECTION ( 'NONE',  ( 0.000000000000000000, 0.000000000000000000, -1.000000000000000000 ) ) ;
#379 = PLANE ( 'NONE',  #502 ) ;
#380 = ORIENTED_EDGE ( 'NONE', *, *, #112, .T. ) ;
#381 = DIRECTION ( 'NONE',  ( -0.000000000000000000, -0.000000000000000000, -1.000000000000000000 ) ) ;
#382 = CARTESIAN_POINT ( 'NONE',  ( 0.000000000000000000, -8.150000000000000355, -1.649999999999999911 ) ) ;
#383 = DIRECTION ( 'NONE',  ( 0.000000000000000000, 1.000000000000000000, 0.000000000000000000 ) ) ;
#384 = ORIENTED_EDGE ( 'NONE', *, *, #151, .T. ) ;
#385 = CARTESIAN_POINT ( 'NONE',  ( 0.000000000000000000, 0.000000000000000000, 0.000000000000000000 ) ) ;
#386 = EDGE_CURVE ( 'NONE', #929, #509, #1030, .T. ) ;
#387 = DIRECTION ( 'NONE',  ( 0.000000000000000000, 0.000000000000000000, -1.000000000000000000 ) ) ;
#388 = FACE_OUTER_BOUND ( 'NONE', #482, .T. ) ;
#389 = ORIENTED_EDGE ( 'NONE', *, *, #661, .T. ) ;
#390 = DIRECTION ( 'NONE',  ( 0.000000000000000000, 0.000000000000000000, 1.000000000000000000 ) ) ;
#391 = VECTOR ( 'NONE', #658, 1000.000000000000000 ) ;
#392 = VECTOR ( 'NONE', #1074, 1000.000000000000000 ) ;
#393 = AXIS2_PLACEMENT_3D ( 'NONE', #162, #942, #200 ) ;
#394 = CARTESIAN_POINT ( 'NONE',  ( -3.434748899119119070, -2.049999999999999822, 0.000000000000000000 ) ) ;
#395 = EDGE_CURVE ( 'NONE', #120, #812, #868, .T. ) ;
#396 = CC_DESIGN_APPROVAL ( #1072, ( #969 ) ) ;
#397 = DIRECTION ( 'NONE',  ( 0.000000000000000000, -1.000000000000000000, 0.000000000000000000 ) ) ;
#398 = VERTEX_POINT ( 'NONE', #620 ) ;
#399 = DIRECTION ( 'NONE',  ( 0.000000000000000000, 0.000000000000000000, -1.000000000000000000 ) ) ;
#400 = DIRECTION ( 'NONE',  ( 1.000000000000000000, 0.000000000000000000, 0.000000000000000000 ) ) ;
#401 = PRODUCT_RELATED_PRODUCT_CATEGORY ( 'detail', '', ( #55 ) ) ;
#402 = PLANE ( 'NONE',  #630 ) ;
#403 = ORIENTED_EDGE ( 'NONE', *, *, #1112, .F. ) ;
#404 = ORIENTED_EDGE ( 'NONE', *, *, #881, .F. ) ;
#405 = LINE ( 'NONE', #1003, #302 ) ;
#406 = FACE_OUTER_BOUND ( 'NONE', #251, .T. ) ;
#407 = VERTEX_POINT ( 'NONE', #783 ) ;
#408 = ADVANCED_FACE ( 'NONE', ( #956 ), #769, .T. ) ;
#409 = ORIENTED_EDGE ( 'NONE', *, *, #730, .F. ) ;
#410 = AXIS2_PLACEMENT_3D ( 'NONE', #517, #23, #85 ) ;
#411 = LINE ( 'NONE', #304, #157 ) ;
#412 = AXIS2_PLACEMENT_3D ( 'NONE', #788, #943, #536 ) ;
#413 = DIRECTION ( 'NONE',  ( -1.000000000000000000, 0.000000000000000000, 0.000000000000000000 ) ) ;
#414 = LOCAL_TIME ( 21, 59, 0.000000000000000000, #275 ) ;
#415 = ORIENTED_EDGE ( 'NONE', *, *, #1044, .F. ) ;
#416 = EDGE_CURVE ( 'NONE', #187, #761, #365, .T. ) ;
#417 = ORIENTED_EDGE ( 'NONE', *, *, #702, .F. ) ;
#418 = DIRECTION ( 'NONE',  ( 1.000000000000000000, 0.000000000000000000, 0.000000000000000000 ) ) ;
#419 = CARTESIAN_POINT ( 'NONE',  ( 0.000000000000000000, 0.000000000000000000, 0.000000000000000000 ) ) ;
#420 = VERTEX_POINT ( 'NONE', #939 ) ;
#421 = ORIENTED_EDGE ( 'NONE', *, *, #811, .F. ) ;
#422 = DIRECTION ( 'NONE',  ( 0.000000000000000000, 0.000000000000000000, 1.000000000000000000 ) ) ;
#423 = EDGE_CURVE ( 'NONE', #761, #277, #684, .T. ) ;
#424 = DIRECTION ( 'NONE',  ( 0.000000000000000000, 0.000000000000000000, -1.000000000000000000 ) ) ;
#425 = DIRECTION ( 'NONE',  ( 1.000000000000000000, 0.000000000000000000, 0.000000000000000000 ) ) ;
#426 = DIRECTION ( 'NONE',  ( 0.000000000000000000, 0.000000000000000000, 1.000000000000000000 ) ) ;
#427 = CIRCLE ( 'NONE', #864, 1.150000000000000799 ) ;
#428 = EDGE_CURVE ( 'NONE', #47, #269, #757, .T. ) ;
#429 = DIRECTION ( 'NONE',  ( 0.000000000000000000, 0.000000000000000000, -1.000000000000000000 ) ) ;
#430 = AXIS2_PLACEMENT_3D ( 'NONE', #629, #555, #974 ) ;
#431 = AXIS2_PLACEMENT_3D ( 'NONE', #549, #343, #79 ) ;
#432 = CARTESIAN_POINT ( 'NONE',  ( -2.049999999999999822, -3.434748899119119070, -1.649999999999999911 ) ) ;
#433 = EDGE_LOOP ( 'NONE', ( #751, #896, #380, #1040 ) ) ;
#434 = UNCERTAINTY_MEASURE_WITH_UNIT (LENGTH_MEASURE( 1.000000000000000082E-05 ), #1029, 'distance_accuracy_value', 'NONE');
#435 = DIRECTION ( 'NONE',  ( 1.000000000000000000, 0.000000000000000000, 0.000000000000000000 ) ) ;
#436 = FACE_OUTER_BOUND ( 'NONE', #148, .T. ) ;
#437 = ADVANCED_FACE ( 'NONE', ( #597 ), #777, .T. ) ;
#438 = CARTESIAN_POINT ( 'NONE',  ( -8.150000000000000355, 2.049999999999999822, 0.000000000000000000 ) ) ;
#439 = EDGE_CURVE ( 'NONE', #714, #420, #80, .T. ) ;
#440 = ORIENTED_EDGE ( 'NONE', *, *, #932, .F. ) ;
#441 = DIRECTION ( 'NONE',  ( 1.000000000000000000, 0.000000000000000000, 0.000000000000000000 ) ) ;
#442 = DIRECTION ( 'NONE',  ( -1.000000000000000000, 0.000000000000000000, 0.000000000000000000 ) ) ;
#443 = LINE ( 'NONE', #779, #773 ) ;
#444 = COORDINATED_UNIVERSAL_TIME_OFFSET ( 6, 0, .BEHIND. ) ;
#445 = EDGE_LOOP ( 'NONE', ( #315, #328, #861, #1071 ) ) ;
#446 = EDGE_CURVE ( 'NONE', #1110, #677, #990, .T. ) ;
#447 = DIRECTION ( 'NONE',  ( 1.000000000000000000, -0.000000000000000000, 0.000000000000000000 ) ) ;
#448 = CIRCLE ( 'NONE', #1028, 4.000000000000000000 ) ;
#449 = ORIENTED_EDGE ( 'NONE', *, *, #172, .T. ) ;
#450 = VECTOR ( 'NONE', #259, 1000.000000000000000 ) ;
#451 = PERSON_AND_ORGANIZATION_ROLE ( 'classification_officer' ) ;
#452 = VECTOR ( 'NONE', #1115, 1000.000000000000000 ) ;
#453 = ORIENTED_EDGE ( 'NONE', *, *, #653, .F. ) ;
#454 = DIRECTION ( 'NONE',  ( -1.000000000000000000, -0.000000000000000000, -0.000000000000000000 ) ) ;
#455 = FACE_BOUND ( 'NONE', #940, .T. ) ;
#456 = APPROVAL_DATE_TIME ( #626, #486 ) ;
#457 = ORIENTED_EDGE ( 'NONE', *, *, #49, .T. ) ;
#458 = CARTESIAN_POINT ( 'NONE',  ( -8.150000000000000355, 2.049999999999999822, -1.649999999999999911 ) ) ;
#459 = EDGE_CURVE ( 'NONE', #610, #120, #1054, .T. ) ;
#460 = CARTESIAN_POINT ( 'NONE',  ( -2.049999999999999822, 8.150000000000000355, -1.649999999999999911 ) ) ;
#461 = ORIENTED_EDGE ( 'NONE', *, *, #172, .F. ) ;
#462 = CARTESIAN_POINT ( 'NONE',  ( 0.000000000000000000, 0.000000000000000000, 0.000000000000000000 ) ) ;
#463 = LINE ( 'NONE', #720, #194 ) ;
#464 = APPROVAL ( #267, 'UNSPECIFIED' ) ;
#465 = DIRECTION ( 'NONE',  ( 1.000000000000000000, 0.000000000000000000, 0.000000000000000000 ) ) ;
#466 = AXIS2_PLACEMENT_3D ( 'NONE', #298, #992, #905 ) ;
#467 = ORIENTED_EDGE ( 'NONE', *, *, #756, .T. ) ;
#468 = DIRECTION ( 'NONE',  ( 1.000000000000000000, 0.000000000000000000, 0.000000000000000000 ) ) ;
#469 = AXIS2_PLACEMENT_3D ( 'NONE', #480, #657, #134 ) ;
#470 = CIRCLE ( 'NONE', #215, 2.049999999999999822 ) ;
#471 = CARTESIAN_POINT ( 'NONE',  ( -2.049999999999999822, 3.434748899119119070, 0.000000000000000000 ) ) ;
#472 = CARTESIAN_POINT ( 'NONE',  ( 0.000000000000000000, 0.000000000000000000, 4.000000000000000000 ) ) ;
#473 = EDGE_LOOP ( 'NONE', ( #306, #750, #1035, #421 ) ) ;
#474 = CYLINDRICAL_SURFACE ( 'NONE', #544, 2.049999999999999822 ) ;
#475 = CARTESIAN_POINT ( 'NONE',  ( 0.000000000000000000, 0.000000000000000000, 0.000000000000000000 ) ) ;
#476 = FACE_BOUND ( 'NONE', #689, .T. ) ;
#477 = VERTEX_POINT ( 'NONE', #184 ) ;
#478 = DIRECTION ( 'NONE',  ( -1.000000000000000000, 0.000000000000000000, 0.000000000000000000 ) ) ;
#479 = EDGE_CURVE ( 'NONE', #159, #887, #8, .T. ) ;
#480 = CARTESIAN_POINT ( 'NONE',  ( 0.000000000000000000, 0.000000000000000000, 0.000000000000000000 ) ) ;
#481 = FACE_OUTER_BOUND ( 'NONE', #676, .T. ) ;
#482 = EDGE_LOOP ( 'NONE', ( #440, #767 ) ) ;
#483 = CARTESIAN_POINT ( 'NONE',  ( 0.000000000000000000, -8.150000000000000355, 0.000000000000000000 ) ) ;
#484 = VECTOR ( 'NONE', #305, 1000.000000000000000 ) ;
#485 = CIRCLE ( 'NONE', #524, 2.049999999999999822 ) ;
#486 = APPROVAL ( #694, 'UNSPECIFIED' ) ;
#487 = VECTOR ( 'NONE', #1082, 1000.000000000000000 ) ;
#488 = CARTESIAN_POINT ( 'NONE',  ( -8.150000000000000355, 7.000000000000000000, -1.650000000000000355 ) ) ;
#489 = ADVANCED_FACE ( 'NONE', ( #436 ), #792, .T. ) ;
#490 = PRODUCT_DEFINITION_SHAPE ( 'NONE', 'NONE',  #969 ) ;
#491 = CARTESIAN_POINT ( 'NONE',  ( 0.000000000000000000, 0.000000000000000000, 4.000000000000000000 ) ) ;
#492 = EDGE_LOOP ( 'NONE', ( #1012, #1023 ) ) ;
#493 = ORIENTED_EDGE ( 'NONE', *, *, #778, .F. ) ;
#494 = DIRECTION ( 'NONE',  ( 0.000000000000000000, -0.000000000000000000, -1.000000000000000000 ) ) ;
#495 = EDGE_CURVE ( 'NONE', #340, #638, #602, .T. ) ;
#496 = DIRECTION ( 'NONE',  ( 1.000000000000000000, 0.000000000000000000, 0.000000000000000000 ) ) ;
#497 = ORIENTED_EDGE ( 'NONE', *, *, #207, .F. ) ;
#498 = CARTESIAN_POINT ( 'NONE',  ( 8.150000000000000355, 2.049999999999999822, -1.649999999999999911 ) ) ;
#499 = LINE ( 'NONE', #566, #391 ) ;
#500 = ORIENTED_EDGE ( 'NONE', *, *, #237, .T. ) ;
#501 = VERTEX_POINT ( 'NONE', #705 ) ;
#502 = AXIS2_PLACEMENT_3D ( 'NONE', #728, #1075, #732 ) ;
#503 = AXIS2_PLACEMENT_3D ( 'NONE', #541, #129, #989 ) ;
#504 = CARTESIAN_POINT ( 'NONE',  ( -2.049999999999999822, 3.434748899119119070, -1.649999999999999911 ) ) ;
#505 = AXIS2_PLACEMENT_3D ( 'NONE', #768, #858, #606 ) ;
#506 = DIRECTION ( 'NONE',  ( 0.000000000000000000, 0.000000000000000000, -1.000000000000000000 ) ) ;
#507 = CIRCLE ( 'NONE', #195, 4.000000000000000000 ) ;
#508 = ORIENTED_EDGE ( 'NONE', *, *, #627, .F. ) ;
#509 = VERTEX_POINT ( 'NONE', #511 ) ;
#510 = DIRECTION ( 'NONE',  ( 0.000000000000000000, 0.000000000000000000, 1.000000000000000000 ) ) ;
#511 = CARTESIAN_POINT ( 'NONE',  ( -8.150000000000000355, -2.049999999999999822, -1.649999999999999911 ) ) ;
#512 = ORIENTED_EDGE ( 'NONE', *, *, #5, .T. ) ;
#513 = ORIENTED_EDGE ( 'NONE', *, *, #1015, .F. ) ;
#514 = ADVANCED_FACE ( 'NONE', ( #2 ), #344, .T. ) ;
#515 = CYLINDRICAL_SURFACE ( 'NONE', #232, 1.150000000000000799 ) ;
#516 = DIRECTION ( 'NONE',  ( 0.000000000000000000, 0.000000000000000000, 1.000000000000000000 ) ) ;
#517 = CARTESIAN_POINT ( 'NONE',  ( 7.000000000000000000, 7.000000000000000000, -1.650000000000000355 ) ) ;
#518 = PERSON_AND_ORGANIZATION_ROLE ( 'creator' ) ;
#519 = VERTEX_POINT ( 'NONE', #1046 ) ;
#520 = DIRECTION ( 'NONE',  ( 1.000000000000000000, 0.000000000000000000, 0.000000000000000000 ) ) ;
#521 = AXIS2_PLACEMENT_3D ( 'NONE', #1047, #869, #93 ) ;
#522 = CARTESIAN_POINT ( 'NONE',  ( 2.049999999999999822, -8.150000000000000355, 0.000000000000000000 ) ) ;
#523 = ADVANCED_FACE ( 'NONE', ( #14 ), #877, .F. ) ;
#524 = AXIS2_PLACEMENT_3D ( 'NONE', #930, #662, #400 ) ;
#525 = AXIS2_PLACEMENT_3D ( 'NONE', #1111, #691, #948 ) ;
#526 = DIRECTION ( 'NONE',  ( 0.000000000000000000, 0.000000000000000000, -1.000000000000000000 ) ) ;
#527 = ORIENTED_EDGE ( 'NONE', *, *, #577, .T. ) ;
#528 = DESIGN_CONTEXT ( 'detailed design', #531, 'design' ) ;
#529 = DIRECTION ( 'NONE',  ( 1.000000000000000000, 0.000000000000000000, 0.000000000000000000 ) ) ;
#530 = DIRECTION ( 'NONE',  ( 0.000000000000000000, 0.000000000000000000, -1.000000000000000000 ) ) ;
#531 = APPLICATION_CONTEXT ( 'configuration controlled 3d designs of mechanical parts and assemblies' ) ;
#532 = EDGE_CURVE ( 'NONE', #501, #545, #953, .T. ) ;
#533 = DIRECTION ( 'NONE',  ( 0.000000000000000000, 0.000000000000000000, -1.000000000000000000 ) ) ;
#534 = PERSON_AND_ORGANIZATION_ROLE ( 'creator' ) ;
#535 = ORIENTED_EDGE ( 'NONE', *, *, #797, .T. ) ;
#536 = DIRECTION ( 'NONE',  ( -1.000000000000000000, 0.000000000000000000, 0.000000000000000000 ) ) ;
#537 = EDGE_LOOP ( 'NONE', ( #467, #1001, #923, #941 ) ) ;
#538 = CALENDAR_DATE ( 2026, 12, 9 ) ;
#539 = EDGE_CURVE ( 'NONE', #610, #978, #463, .T. ) ;
#540 = ORIENTED_EDGE ( 'NONE', *, *, #428, .F. ) ;
#541 = CARTESIAN_POINT ( 'NONE',  ( 0.000000000000000000, 0.000000000000000000, 0.000000000000000000 ) ) ;
#542 = FACE_BOUND ( 'NONE', #492, .T. ) ;
#543 = CALENDAR_DATE ( 2026, 12, 9 ) ;
#544 = AXIS2_PLACEMENT_3D ( 'NONE', #375, #818, #57 ) ;
#545 = VERTEX_POINT ( 'NONE', #368 ) ;
#546 = LINE ( 'NONE', #471, #69 ) ;
#547 = CARTESIAN_POINT ( 'NONE',  ( -7.000000000000000000, -7.000000000000000000, -1.650000000000000355 ) ) ;
#548 = ORIENTED_EDGE ( 'NONE', *, *, #926, .F. ) ;
#549 = CARTESIAN_POINT ( 'NONE',  ( 0.000000000000000000, 0.000000000000000000, 4.000000000000000000 ) ) ;
#550 = EDGE_CURVE ( 'NONE', #794, #47, #551, .T. ) ;
#551 = LINE ( 'NONE', #893, #632 ) ;
#552 = DIRECTION ( 'NONE',  ( 1.000000000000000000, 0.000000000000000000, -0.000000000000000000 ) ) ;
#553 = ORIENTED_EDGE ( 'NONE', *, *, #132, .T. ) ;
#554 = DIRECTION ( 'NONE',  ( 0.000000000000000000, 0.000000000000000000, -1.000000000000000000 ) ) ;
#555 = DIRECTION ( 'NONE',  ( -0.000000000000000000, -0.000000000000000000, -1.000000000000000000 ) ) ;
#556 = DIRECTION ( 'NONE',  ( -0.000000000000000000, -0.000000000000000000, -1.000000000000000000 ) ) ;
#557 = AXIS2_PLACEMENT_3D ( 'NONE', #663, #397, #1004 ) ;
#558 = VERTEX_POINT ( 'NONE', #898 ) ;
#559 = CARTESIAN_POINT ( 'NONE',  ( 7.000000000000000000, 7.000000000000000000, 4.000000000000003553 ) ) ;
#560 = AXIS2_PLACEMENT_3D ( 'NONE', #22, #424, #860 ) ;
#561 = DIRECTION ( 'NONE',  ( 0.000000000000000000, 0.000000000000000000, -1.000000000000000000 ) ) ;
#562 = DIRECTION ( 'NONE',  ( 0.000000000000000000, 0.000000000000000000, 1.000000000000000000 ) ) ;
#563 = EDGE_CURVE ( 'NONE', #618, #978, #827, .T. ) ;
#564 = ORIENTED_EDGE ( 'NONE', *, *, #279, .T. ) ;
#565 = CARTESIAN_POINT ( 'NONE',  ( -10.20000000000000107, 0.000000000000000000, 0.000000000000000000 ) ) ;
#566 = CARTESIAN_POINT ( 'NONE',  ( -2.049999999999999822, -8.150000000000000355, -1.649999999999999911 ) ) ;
#567 = ORIENTED_EDGE ( 'NONE', *, *, #160, .T. ) ;
#568 = FACE_OUTER_BOUND ( 'NONE', #701, .T. ) ;
#569 = ADVANCED_FACE ( 'NONE', ( #644 ), #967, .T. ) ;
#570 = DIRECTION ( 'NONE',  ( 0.000000000000000000, 0.000000000000000000, -1.000000000000000000 ) ) ;
#571 = DIRECTION ( 'NONE',  ( 1.000000000000000000, 0.000000000000000000, 0.000000000000000000 ) ) ;
#572 = ORIENTED_EDGE ( 'NONE', *, *, #293, .T. ) ;
#573 = LINE ( 'NONE', #76, #452 ) ;
#574 = VECTOR ( 'NONE', #899, 1000.000000000000000 ) ;
#575 = ORIENTED_EDGE ( 'NONE', *, *, #127, .T. ) ;
#576 = CIRCLE ( 'NONE', #469, 4.000000000000000000 ) ;
#577 = EDGE_CURVE ( 'NONE', #398, #165, #289, .T. ) ;
#578 = AXIS2_PLACEMENT_3D ( 'NONE', #954, #179, #529 ) ;
#579 = DIRECTION ( 'NONE',  ( 0.000000000000000000, -1.000000000000000000, 0.000000000000000000 ) ) ;
#580 = LOCAL_TIME ( 21, 59, 0.000000000000000000, #444 ) ;
#581 = CYLINDRICAL_SURFACE ( 'NONE', #845, 13.00000000000000000 ) ;
#582 = ORIENTED_EDGE ( 'NONE', *, *, #100, .T. ) ;
#583 = ORIENTED_EDGE ( 'NONE', *, *, #416, .T. ) ;
#584 = CARTESIAN_POINT ( 'NONE',  ( 7.000000000000000000, 7.000000000000000000, 4.000000000000003553 ) ) ;
#585 = EDGE_CURVE ( 'NONE', #714, #891, #973, .T. ) ;
#586 = CYLINDRICAL_SURFACE ( 'NONE', #86, 2.049999999999999822 ) ;
#587 = ORIENTED_EDGE ( 'NONE', *, *, #563, .F. ) ;
#588 = ORIENTED_EDGE ( 'NONE', *, *, #118, .F. ) ;
#589 = DIRECTION ( 'NONE',  ( 0.000000000000000000, 0.000000000000000000, -1.000000000000000000 ) ) ;
#590 = CARTESIAN_POINT ( 'NONE',  ( 2.049999999999999822, 3.434748899119119070, 0.000000000000000000 ) ) ;
#591 = ORIENTED_EDGE ( 'NONE', *, *, #696, .F. ) ;
#592 = ORIENTED_EDGE ( 'NONE', *, *, #416, .F. ) ;
#593 = AXIS2_PLACEMENT_3D ( 'NONE', #825, #60, #243 ) ;
#594 = AXIS2_PLACEMENT_3D ( 'NONE', #84, #188, #297 ) ;
#595 = DIRECTION ( 'NONE',  ( 0.000000000000000000, 0.000000000000000000, -1.000000000000000000 ) ) ;
#596 = AXIS2_PLACEMENT_3D ( 'NONE', #483, #399, #740 ) ;
#597 = FACE_OUTER_BOUND ( 'NONE', #671, .T. ) ;
#598 = CC_DESIGN_APPROVAL ( #486, ( #288 ) ) ;
#599 = ORIENTED_EDGE ( 'NONE', *, *, #112, .F. ) ;
#600 = EDGE_CURVE ( 'NONE', #733, #31, #202, .T. ) ;
#601 = ORIENTED_EDGE ( 'NONE', *, *, #979, .F. ) ;
#602 = LINE ( 'NONE', #698, #34 ) ;
#603 = ORIENTED_EDGE ( 'NONE', *, *, #395, .F. ) ;
#604 = APPROVAL_STATUS ( 'not_yet_approved' ) ;
#605 = ORIENTED_EDGE ( 'NONE', *, *, #653, .T. ) ;
#606 = DIRECTION ( 'NONE',  ( 1.000000000000000000, 0.000000000000000000, 0.000000000000000000 ) ) ;
#607 = CARTESIAN_POINT ( 'NONE',  ( -8.150000000000000355, -7.000000000000000000, 4.000000000000003553 ) ) ;
#608 = VERTEX_POINT ( 'NONE', #807 ) ;
#609 = PERSON_AND_ORGANIZATION ( #800, #1104 ) ;
#610 = VERTEX_POINT ( 'NONE', #41 ) ;
#611 = CARTESIAN_POINT ( 'NONE',  ( -2.049999999999999822, 3.434748899119119070, 0.000000000000000000 ) ) ;
#612 = EDGE_CURVE ( 'NONE', #269, #950, #1067, .T. ) ;
#613 = VECTOR ( 'NONE', #496, 1000.000000000000000 ) ;
#614 = CARTESIAN_POINT ( 'NONE',  ( -2.049999999999999822, 8.150000000000000355, 0.000000000000000000 ) ) ;
#615 = VECTOR ( 'NONE', #980, 1000.000000000000000 ) ;
#616 = CYLINDRICAL_SURFACE ( 'NONE', #105, 1.150000000000000799 ) ;
#617 = APPROVAL_ROLE ( '' ) ;
#618 = VERTEX_POINT ( 'NONE', #197 ) ;
#619 = FACE_OUTER_BOUND ( 'NONE', #729, .T. ) ;
#620 = CARTESIAN_POINT ( 'NONE',  ( 2.049999999999999822, 8.150000000000000355, 0.000000000000000000 ) ) ;
#621 = DIRECTION ( 'NONE',  ( 1.000000000000000000, 0.000000000000000000, 0.000000000000000000 ) ) ;
#622 = CALENDAR_DATE ( 2026, 12, 9 ) ;
#623 = ORIENTED_EDGE ( 'NONE', *, *, #585, .F. ) ;
#624 = DIRECTION ( 'NONE',  ( 1.000000000000000000, 0.000000000000000000, 0.000000000000000000 ) ) ;
#625 = EDGE_LOOP ( 'NONE', ( #512, #66, #404, #690 ) ) ;
#626 = DATE_AND_TIME ( #622, #414 ) ;
#627 = EDGE_CURVE ( 'NONE', #77, #47, #636, .T. ) ;
#628 = ORIENTED_EDGE ( 'NONE', *, *, #661, .F. ) ;
#629 = CARTESIAN_POINT ( 'NONE',  ( 7.000000000000000000, -7.000000000000000000, -1.650000000000000355 ) ) ;
#630 = AXIS2_PLACEMENT_3D ( 'NONE', #680, #321, #748 ) ;
#631 = FACE_OUTER_BOUND ( 'NONE', #370, .T. ) ;
#632 = VECTOR ( 'NONE', #124, 1000.000000000000000 ) ;
#633 = AXIS2_PLACEMENT_3D ( 'NONE', #96, #330, #1052 ) ;
#634 = ORIENTED_EDGE ( 'NONE', *, *, #428, .T. ) ;
#635 = ADVANCED_FACE ( 'NONE', ( #711 ), #1079, .F. ) ;
#636 = LINE ( 'NONE', #819, #140 ) ;
#637 = DIRECTION ( 'NONE',  ( 0.000000000000000000, 0.000000000000000000, 1.000000000000000000 ) ) ;
#638 = VERTEX_POINT ( 'NONE', #802 ) ;
#639 = DIRECTION ( 'NONE',  ( -1.000000000000000000, -0.000000000000000000, -0.000000000000000000 ) ) ;
#640 = EDGE_CURVE ( 'NONE', #420, #794, #738, .T. ) ;
#641 = DIRECTION ( 'NONE',  ( 0.000000000000000000, 0.000000000000000000, -1.000000000000000000 ) ) ;
#642 = LINE ( 'NONE', #985, #574 ) ;
#643 = EDGE_LOOP ( 'NONE', ( #6, #801, #204, #592 ) ) ;
#644 = FACE_OUTER_BOUND ( 'NONE', #839, .T. ) ;
#645 = EDGE_CURVE ( 'NONE', #805, #816, #28, .T. ) ;
#646 = CARTESIAN_POINT ( 'NONE',  ( -7.000000000000000000, -7.000000000000000000, -1.650000000000000355 ) ) ;
#647 = CIRCLE ( 'NONE', #466, 2.049999999999999822 ) ;
#648 = CIRCLE ( 'NONE', #993, 13.00000000000000000 ) ;
#649 = EDGE_LOOP ( 'NONE', ( #168, #1005, #1031, #664 ) ) ;
#650 = CARTESIAN_POINT ( 'NONE',  ( 8.150000000000000355, 7.000000000000000000, 4.000000000000003553 ) ) ;
#651 = AXIS2_PLACEMENT_3D ( 'NONE', #697, #426, #872 ) ;
#652 = CARTESIAN_POINT ( 'NONE',  ( 0.000000000000000000, 0.000000000000000000, 0.000000000000000000 ) ) ;
#653 = EDGE_CURVE ( 'NONE', #1092, #816, #706, .T. ) ;
#654 = CARTESIAN_POINT ( 'NONE',  ( -2.049999999999999822, -8.150000000000000355, 0.000000000000000000 ) ) ;
#655 = ORIENTED_EDGE ( 'NONE', *, *, #585, .T. ) ;
#656 = DIRECTION ( 'NONE',  ( 1.000000000000000000, 0.000000000000000000, 0.000000000000000000 ) ) ;
#657 = DIRECTION ( 'NONE',  ( 0.000000000000000000, 0.000000000000000000, 1.000000000000000000 ) ) ;
#658 = DIRECTION ( 'NONE',  ( -0.000000000000000000, -1.000000000000000000, -0.000000000000000000 ) ) ;
#659 = ORIENTED_EDGE ( 'NONE', *, *, #479, .F. ) ;
#660 = CARTESIAN_POINT ( 'NONE',  ( -3.434748899119119070, 2.049999999999999822, 0.000000000000000000 ) ) ;
#661 = EDGE_CURVE ( 'NONE', #978, #812, #546, .T. ) ;
#662 = DIRECTION ( 'NONE',  ( 0.000000000000000000, 0.000000000000000000, 1.000000000000000000 ) ) ;
#663 = CARTESIAN_POINT ( 'NONE',  ( -8.150000000000000355, 2.049999999999999822, 0.000000000000000000 ) ) ;
#664 = ORIENTED_EDGE ( 'NONE', *, *, #293, .F. ) ;
#665 = AXIS2_PLACEMENT_3D ( 'NONE', #189, #944, #425 ) ;
#666 = CC_DESIGN_PERSON_AND_ORGANIZATION_ASSIGNMENT ( #945, #10, ( #55 ) ) ;
#667 = ORIENTED_EDGE ( 'NONE', *, *, #778, .T. ) ;
#668 = VECTOR ( 'NONE', #715, 1000.000000000000000 ) ;
#669 = DIRECTION ( 'NONE',  ( -1.000000000000000000, -0.000000000000000000, -0.000000000000000000 ) ) ;
#670 = CARTESIAN_POINT ( 'NONE',  ( -3.434748899119119070, -2.049999999999999822, 0.000000000000000000 ) ) ;
#671 = EDGE_LOOP ( 'NONE', ( #128, #389, #603, #917 ) ) ;
#672 = ORIENTED_EDGE ( 'NONE', *, *, #532, .F. ) ;
#673 = LINE ( 'NONE', #736, #810 ) ;
#674 = EDGE_CURVE ( 'NONE', #677, #1110, #648, .T. ) ;
#675 = DIRECTION ( 'NONE',  ( 0.000000000000000000, 0.000000000000000000, 1.000000000000000000 ) ) ;
#676 = EDGE_LOOP ( 'NONE', ( #457, #982, #415, #1060 ) ) ;
#677 = VERTEX_POINT ( 'NONE', #113 ) ;
#678 = CARTESIAN_POINT ( 'NONE',  ( -7.000000000000000000, 7.000000000000000000, 4.000000000000003553 ) ) ;
#679 = EDGE_CURVE ( 'NONE', #407, #183, #35, .T. ) ;
#680 = CARTESIAN_POINT ( 'NONE',  ( -2.049999999999999822, -8.150000000000000355, 0.000000000000000000 ) ) ;
#681 = EDGE_LOOP ( 'NONE', ( #986, #497, #374, #240 ) ) ;
#682 = ORIENTED_EDGE ( 'NONE', *, *, #146, .T. ) ;
#683 = AXIS2_PLACEMENT_3D ( 'NONE', #547, #109, #981 ) ;
#684 = CIRCLE ( 'NONE', #19, 1.149999999999999911 ) ;
#685 = LINE ( 'NONE', #90, #848 ) ;
#686 = VECTOR ( 'NONE', #13, 1000.000000000000000 ) ;
#687 = CARTESIAN_POINT ( 'NONE',  ( 0.000000000000000000, 0.000000000000000000, 4.000000000000000000 ) ) ;
#688 = EDGE_CURVE ( 'NONE', #70, #333, #294, .T. ) ;
#689 = EDGE_LOOP ( 'NONE', ( #24, #403 ) ) ;
#690 = ORIENTED_EDGE ( 'NONE', *, *, #688, .F. ) ;
#691 = DIRECTION ( 'NONE',  ( -0.000000000000000000, -0.000000000000000000, -1.000000000000000000 ) ) ;
#692 = DIRECTION ( 'NONE',  ( 0.000000000000000000, 0.000000000000000000, 1.000000000000000000 ) ) ;
#693 = DIRECTION ( 'NONE',  ( 0.000000000000000000, 0.000000000000000000, -1.000000000000000000 ) ) ;
#694 = APPROVAL_STATUS ( 'not_yet_approved' ) ;
#695 = ORIENTED_EDGE ( 'NONE', *, *, #712, .T. ) ;
#696 = EDGE_CURVE ( 'NONE', #224, #277, #326, .T. ) ;
#697 = CARTESIAN_POINT ( 'NONE',  ( 8.150000000000000355, 0.000000000000000000, -1.649999999999999911 ) ) ;
#698 = CARTESIAN_POINT ( 'NONE',  ( -5.850000000000000533, -7.000000000000000000, 4.000000000000003553 ) ) ;
#699 = FACE_OUTER_BOUND ( 'NONE', #643, .T. ) ;
#700 = SECURITY_CLASSIFICATION_LEVEL ( 'unclassified' ) ;
#701 = EDGE_LOOP ( 'NONE', ( #762, #710, #1022, #863 ) ) ;
#702 = EDGE_CURVE ( 'NONE', #501, #929, #824, .T. ) ;
#703 = CARTESIAN_POINT ( 'NONE',  ( -13.00000000000000000, 0.000000000000000000, 4.000000000000000000 ) ) ;
#704 = CIRCLE ( 'NONE', #683, 1.149999999999999911 ) ;
#705 = CARTESIAN_POINT ( 'NONE',  ( -10.20000000000000107, 0.000000000000000000, 0.000000000000000000 ) ) ;
#706 = CIRCLE ( 'NONE', #430, 1.150000000000000799 ) ;
#707 = CIRCLE ( 'NONE', #505, 1.150000000000000799 ) ;
#708 = FACE_OUTER_BOUND ( 'NONE', #245, .T. ) ;
#709 = DATE_TIME_ROLE ( 'classification_date' ) ;
#710 = ORIENTED_EDGE ( 'NONE', *, *, #207, .T. ) ;
#711 = FACE_OUTER_BOUND ( 'NONE', #649, .T. ) ;
#712 = EDGE_CURVE ( 'NONE', #618, #398, #673, .T. ) ;
#713 = ORIENTED_EDGE ( 'NONE', *, *, #881, .T. ) ;
#714 = VERTEX_POINT ( 'NONE', #1084 ) ;
#715 = DIRECTION ( 'NONE',  ( -0.000000000000000000, -0.000000000000000000, 1.000000000000000000 ) ) ;
#716 = ADVANCED_FACE ( 'NONE', ( #1008 ), #1090, .T. ) ;
#717 = DIRECTION ( 'NONE',  ( -0.000000000000000000, -0.000000000000000000, -1.000000000000000000 ) ) ;
#718 = APPROVAL_ROLE ( '' ) ;
#719 = EDGE_LOOP ( 'NONE', ( #316, #177, #82, #324 ) ) ;
#720 = CARTESIAN_POINT ( 'NONE',  ( -2.049999999999999822, -8.150000000000000355, 0.000000000000000000 ) ) ;
#721 = FACE_BOUND ( 'NONE', #946, .T. ) ;
#722 = AXIS2_PLACEMENT_3D ( 'NONE', #108, #25, #731 ) ;
#723 = CC_DESIGN_DATE_AND_TIME_ASSIGNMENT ( #795, #709, ( #288 ) ) ;
#724 = AXIS2_PLACEMENT_3D ( 'NONE', #166, #422, #418 ) ;
#725 = VERTEX_POINT ( 'NONE', #747 ) ;
#726 = CYLINDRICAL_SURFACE ( 'NONE', #596, 2.049999999999999822 ) ;
#727 = CARTESIAN_POINT ( 'NONE',  ( 4.000000000000000000, 4.898587196589412829E-16, 4.000000000000000000 ) ) ;
#728 = CARTESIAN_POINT ( 'NONE',  ( -8.150000000000000355, -2.049999999999999822, 0.000000000000000000 ) ) ;
#729 = EDGE_LOOP ( 'NONE', ( #591, #185, #583, #334 ) ) ;
#730 = EDGE_CURVE ( 'NONE', #347, #254, #759, .T. ) ;
#731 = DIRECTION ( 'NONE',  ( 1.000000000000000000, 0.000000000000000000, 0.000000000000000000 ) ) ;
#732 = DIRECTION ( 'NONE',  ( 0.000000000000000000, -0.000000000000000000, 1.000000000000000000 ) ) ;
#733 = VERTEX_POINT ( 'NONE', #498 ) ;
#734 = CARTESIAN_POINT ( 'NONE',  ( -8.150000000000000355, -2.049999999999999822, -1.649999999999999911 ) ) ;
#735 = ADVANCED_FACE ( 'NONE', ( #1020 ), #1099, .F. ) ;
#736 = CARTESIAN_POINT ( 'NONE',  ( 2.049999999999999822, -8.150000000000000355, 0.000000000000000000 ) ) ;
#737 = DIRECTION ( 'NONE',  ( 1.000000000000000000, 0.000000000000000000, -0.000000000000000000 ) ) ;
#738 = CIRCLE ( 'NONE', #1122, 2.049999999999999822 ) ;
#739 = ORIENTED_EDGE ( 'NONE', *, *, #495, .T. ) ;
#740 = DIRECTION ( 'NONE',  ( -1.000000000000000000, 0.000000000000000000, 0.000000000000000000 ) ) ;
#741 = AXIS2_PLACEMENT_3D ( 'NONE', #584, #595, #263 ) ;
#742 = LOCAL_TIME ( 21, 59, 0.000000000000000000, #110 ) ;
#743 = DIRECTION ( 'NONE',  ( 0.000000000000000000, 0.000000000000000000, -1.000000000000000000 ) ) ;
#744 = DIRECTION ( 'NONE',  ( -0.000000000000000000, -0.000000000000000000, -1.000000000000000000 ) ) ;
#745 = ORIENTED_EDGE ( 'NONE', *, *, #756, .F. ) ;
#746 = DIRECTION ( 'NONE',  ( -0.000000000000000000, -0.000000000000000000, 1.000000000000000000 ) ) ;
#747 = CARTESIAN_POINT ( 'NONE',  ( 8.150000000000000355, -2.049999999999999822, 0.000000000000000000 ) ) ;
#748 = DIRECTION ( 'NONE',  ( 0.000000000000000000, 0.000000000000000000, -1.000000000000000000 ) ) ;
#749 = EDGE_CURVE ( 'NONE', #545, #509, #411, .T. ) ;
#750 = ORIENTED_EDGE ( 'NONE', *, *, #201, .T. ) ;
#751 = ORIENTED_EDGE ( 'NONE', *, *, #859, .F. ) ;
#752 = LINE ( 'NONE', #319, #776 ) ;
#753 = CARTESIAN_POINT ( 'NONE',  ( -5.850000000000000533, 7.000000000000000000, 4.000000000000003553 ) ) ;
#754 = EDGE_LOOP ( 'NONE', ( #1061, #828 ) ) ;
#755 = VECTOR ( 'NONE', #958, 1000.000000000000000 ) ;
#756 = EDGE_CURVE ( 'NONE', #891, #77, #921, .T. ) ;
#757 = CIRCLE ( 'NONE', #935, 4.000000000000000000 ) ;
#758 = VECTOR ( 'NONE', #520, 1000.000000000000000 ) ;
#759 = LINE ( 'NONE', #394, #361 ) ;
#760 = CARTESIAN_POINT ( 'NONE',  ( 7.000000000000000000, -7.000000000000000000, 4.000000000000003553 ) ) ;
#761 = VERTEX_POINT ( 'NONE', #488 ) ;
#762 = ORIENTED_EDGE ( 'NONE', *, *, #577, .F. ) ;
#763 = ADVANCED_FACE ( 'NONE', ( #1107 ), #63, .T. ) ;
#764 = CARTESIAN_POINT ( 'NONE',  ( 3.434748899119119070, -2.049999999999999822, 0.000000000000000000 ) ) ;
#765 = PLANE ( 'NONE',  #557 ) ;
#766 = ORIENTED_EDGE ( 'NONE', *, *, #600, .T. ) ;
#767 = ORIENTED_EDGE ( 'NONE', *, *, #836, .F. ) ;
#768 = CARTESIAN_POINT ( 'NONE',  ( 7.000000000000000000, -7.000000000000000000, -1.650000000000000355 ) ) ;
#769 = PLANE ( 'NONE',  #774 ) ;
#770 = CARTESIAN_POINT ( 'NONE',  ( -13.00000000000000000, 0.000000000000000000, -1.649999999999999911 ) ) ;
#771 =( NAMED_UNIT ( * ) PLANE_ANGLE_UNIT ( ) SI_UNIT ( $, .RADIAN. ) );
#772 = EDGE_LOOP ( 'NONE', ( #1057, #153, #572, #605 ) ) ;
#773 = VECTOR ( 'NONE', #1055, 1000.000000000000000 ) ;
#774 = AXIS2_PLACEMENT_3D ( 'NONE', #522, #442, #1039 ) ;
#775 = CARTESIAN_POINT ( 'NONE',  ( 2.049999999999999822, -8.150000000000000355, 0.000000000000000000 ) ) ;
#776 = VECTOR ( 'NONE', #669, 1000.000000000000000 ) ;
#777 = PLANE ( 'NONE',  #359 ) ;
#778 = EDGE_CURVE ( 'NONE', #924, #77, #576, .T. ) ;
#779 = CARTESIAN_POINT ( 'NONE',  ( -2.049999999999999822, -3.434748899119119070, 0.000000000000000000 ) ) ;
#780 = COORDINATED_UNIVERSAL_TIME_OFFSET ( 6, 0, .BEHIND. ) ;
#781 = ORIENTED_EDGE ( 'NONE', *, *, #1015, .T. ) ;
#782 = CARTESIAN_POINT ( 'NONE',  ( 8.150000000000000355, 7.000000000000000000, -1.650000000000000355 ) ) ;
#783 = CARTESIAN_POINT ( 'NONE',  ( 4.000000000000000000, 4.898587196589412829E-16, 4.000000000000000000 ) ) ;
#784 = LINE ( 'NONE', #350, #808 ) ;
#785 = CC_DESIGN_PERSON_AND_ORGANIZATION_ASSIGNMENT ( #351, #255, ( #1069 ) ) ;
#786 = ORIENTED_EDGE ( 'NONE', *, *, #674, .F. ) ;
#787 = DIRECTION ( 'NONE',  ( 1.000000000000000000, 0.000000000000000000, 0.000000000000000000 ) ) ;
#788 = CARTESIAN_POINT ( 'NONE',  ( 0.000000000000000000, 0.000000000000000000, 4.000000000000000000 ) ) ;
#789 = CARTESIAN_POINT ( 'NONE',  ( 7.000000000000000000, -7.000000000000000000, 4.000000000000003553 ) ) ;
#790 = ORIENTED_EDGE ( 'NONE', *, *, #612, .F. ) ;
#791 = AXIS2_PLACEMENT_3D ( 'NONE', #652, #228, #840 ) ;
#792 = PLANE ( 'NONE',  #176 ) ;
#793 = VECTOR ( 'NONE', #746, 1000.000000000000000 ) ;
#794 = VERTEX_POINT ( 'NONE', #218 ) ;
#795 = DATE_AND_TIME ( #543, #580 ) ;
#796 = ORIENTED_EDGE ( 'NONE', *, *, #1085, .F. ) ;
#797 = EDGE_CURVE ( 'NONE', #891, #794, #405, .T. ) ;
#798 = CARTESIAN_POINT ( 'NONE',  ( 7.000000000000000000, -7.000000000000000000, 4.000000000000003553 ) ) ;
#799 = FACE_BOUND ( 'NONE', #95, .T. ) ;
#800 = PERSON ( 'UNSPECIFIED', 'UNSPECIFIED', 'UNSPECIFIED', ('UNSPECIFIED'), ('UNSPECIFIED'), ('UNSPECIFIED') ) ;
#801 = ORIENTED_EDGE ( 'NONE', *, *, #696, .T. ) ;
#802 = CARTESIAN_POINT ( 'NONE',  ( -5.850000000000000533, -7.000000000000000000, -1.650000000000000355 ) ) ;
#803 = EDGE_CURVE ( 'NONE', #165, #120, #485, .T. ) ;
#804 = CARTESIAN_POINT ( 'NONE',  ( 0.000000000000000000, 0.000000000000000000, -1.649999999999999911 ) ) ;
#805 = VERTEX_POINT ( 'NONE', #222 ) ;
#806 = DIRECTION ( 'NONE',  ( 0.000000000000000000, 0.000000000000000000, -1.000000000000000000 ) ) ;
#807 = CARTESIAN_POINT ( 'NONE',  ( -3.434748899119119070, 2.049999999999999822, -1.649999999999999911 ) ) ;
#808 = VECTOR ( 'NONE', #533, 1000.000000000000000 ) ;
#809 = DIRECTION ( 'NONE',  ( 1.000000000000000000, 0.000000000000000000, 0.000000000000000000 ) ) ;
#810 = VECTOR ( 'NONE', #830, 1000.000000000000000 ) ;
#811 = EDGE_CURVE ( 'NONE', #299, #1116, #67, .T. ) ;
#812 = VERTEX_POINT ( 'NONE', #504 ) ;
#813 = CARTESIAN_POINT ( 'NONE',  ( 5.849999999999999645, 7.000000000000000000, -1.650000000000000355 ) ) ;
#814 = DIRECTION ( 'NONE',  ( 0.000000000000000000, 0.000000000000000000, 1.000000000000000000 ) ) ;
#815 = FACE_BOUND ( 'NONE', #995, .T. ) ;
#816 = VERTEX_POINT ( 'NONE', #849 ) ;
#817 = ADVANCED_FACE ( 'NONE', ( #835 ), #145, .T. ) ;
#818 = DIRECTION ( 'NONE',  ( 0.000000000000000000, 0.000000000000000000, -1.000000000000000000 ) ) ;
#819 = CARTESIAN_POINT ( 'NONE',  ( 2.049999999999999822, -3.434748899119119070, 0.000000000000000000 ) ) ;
#820 = FACE_BOUND ( 'NONE', #936, .T. ) ;
#821 = ORIENTED_EDGE ( 'NONE', *, *, #495, .F. ) ;
#822 = LINE ( 'NONE', #48, #994 ) ;
#823 = EDGE_CURVE ( 'NONE', #1096, #70, #752, .T. ) ;
#824 = LINE ( 'NONE', #565, #230 ) ;
#825 = CARTESIAN_POINT ( 'NONE',  ( -7.000000000000000000, -7.000000000000000000, 4.000000000000003553 ) ) ;
#826 = AXIS2_PLACEMENT_3D ( 'NONE', #53, #332, #1017 ) ;
#827 = CIRCLE ( 'NONE', #503, 4.000000000000000000 ) ;
#828 = ORIENTED_EDGE ( 'NONE', *, *, #674, .T. ) ;
#829 = CARTESIAN_POINT ( 'NONE',  ( -3.434748899119119070, 2.049999999999999822, 0.000000000000000000 ) ) ;
#830 = DIRECTION ( 'NONE',  ( 0.000000000000000000, 1.000000000000000000, 0.000000000000000000 ) ) ;
#831 = ADVANCED_FACE ( 'NONE', ( #1016 ), #236, .F. ) ;
#832 = CARTESIAN_POINT ( 'NONE',  ( -5.850000000000000533, -7.000000000000000000, 4.000000000000003553 ) ) ;
#833 = EDGE_LOOP ( 'NONE', ( #910, #599, #39, #192, #115 ) ) ;
#834 = ORIENTED_EDGE ( 'NONE', *, *, #226, .F. ) ;
#835 = FACE_OUTER_BOUND ( 'NONE', #719, .T. ) ;
#836 = EDGE_CURVE ( 'NONE', #558, #75, #125, .T. ) ;
#837 = CARTESIAN_POINT ( 'NONE',  ( 0.000000000000000000, 0.000000000000000000, 4.000000000000000000 ) ) ;
#838 = ORIENTED_EDGE ( 'NONE', *, *, #439, .F. ) ;
#839 = EDGE_LOOP ( 'NONE', ( #261, #672, #170, #1120, #781, #575 ) ) ;
#840 = DIRECTION ( 'NONE',  ( -1.000000000000000000, 0.000000000000000000, -0.000000000000000000 ) ) ;
#841 = DIRECTION ( 'NONE',  ( 0.000000000000000000, 0.000000000000000000, 1.000000000000000000 ) ) ;
#842 = ORIENTED_EDGE ( 'NONE', *, *, #532, .T. ) ;
#843 = CIRCLE ( 'NONE', #336, 1.150000000000000799 ) ;
#844 = EDGE_CURVE ( 'NONE', #187, #224, #178, .T. ) ;
#845 = AXIS2_PLACEMENT_3D ( 'NONE', #491, #744, #147 ) ;
#846 = ORIENTED_EDGE ( 'NONE', *, *, #688, .T. ) ;
#847 = VECTOR ( 'NONE', #387, 1000.000000000000000 ) ;
#848 = VECTOR ( 'NONE', #1045, 1000.000000000000000 ) ;
#849 = CARTESIAN_POINT ( 'NONE',  ( 8.150000000000000355, -7.000000000000000000, -1.650000000000000355 ) ) ;
#850 = FACE_OUTER_BOUND ( 'NONE', #833, .T. ) ;
#851 = ORIENTED_EDGE ( 'NONE', *, *, #640, .T. ) ;
#852 = EDGE_CURVE ( 'NONE', #1116, #919, #20, .T. ) ;
#853 = ORIENTED_EDGE ( 'NONE', *, *, #640, .F. ) ;
#854 = DIRECTION ( 'NONE',  ( 0.000000000000000000, 0.000000000000000000, 1.000000000000000000 ) ) ;
#855 = DIRECTION ( 'NONE',  ( -0.000000000000000000, -0.000000000000000000, -1.000000000000000000 ) ) ;
#856 = CARTESIAN_POINT ( 'NONE',  ( -7.000000000000000000, 7.000000000000000000, 4.000000000000003553 ) ) ;
#857 = VERTEX_POINT ( 'NONE', #1024 ) ;
#858 = DIRECTION ( 'NONE',  ( -0.000000000000000000, -0.000000000000000000, -1.000000000000000000 ) ) ;
#859 = EDGE_CURVE ( 'NONE', #519, #733, #71, .T. ) ;
#860 = DIRECTION ( 'NONE',  ( -1.000000000000000000, 0.000000000000000000, 0.000000000000000000 ) ) ;
#861 = ORIENTED_EDGE ( 'NONE', *, *, #888, .T. ) ;
#862 = PERSON_AND_ORGANIZATION ( #800, #1104 ) ;
#863 = ORIENTED_EDGE ( 'NONE', *, *, #803, .F. ) ;
#864 = AXIS2_PLACEMENT_3D ( 'NONE', #760, #327, #1021 ) ;
#865 = VECTOR ( 'NONE', #1062, 1000.000000000000000 ) ;
#866 = CARTESIAN_POINT ( 'NONE',  ( -4.000000000000000000, 0.000000000000000000, 0.000000000000000000 ) ) ;
#867 = CC_DESIGN_PERSON_AND_ORGANIZATION_ASSIGNMENT ( #4, #534, ( #969 ) ) ;
#868 = LINE ( 'NONE', #167, #287 ) ;
#869 = DIRECTION ( 'NONE',  ( 0.000000000000000000, 0.000000000000000000, 1.000000000000000000 ) ) ;
#870 = CALENDAR_DATE ( 2026, 12, 9 ) ;
#871 = ORIENTED_EDGE ( 'NONE', *, *, #859, .T. ) ;
#872 = DIRECTION ( 'NONE',  ( 1.000000000000000000, 0.000000000000000000, 0.000000000000000000 ) ) ;
#873 = DIRECTION ( 'NONE',  ( 1.000000000000000000, 0.000000000000000000, 0.000000000000000000 ) ) ;
#874 = CARTESIAN_POINT ( 'NONE',  ( 3.434748899119119070, 2.049999999999999822, -1.649999999999999911 ) ) ;
#875 = APPLICATION_PROTOCOL_DEFINITION ( 'international standard', 'config_control_design', 1994, #531 ) ;
#876 = EDGE_LOOP ( 'NONE', ( #136, #65 ) ) ;
#877 = CYLINDRICAL_SURFACE ( 'NONE', #560, 2.049999999999999822 ) ;
#878 = CARTESIAN_POINT ( 'NONE',  ( 0.000000000000000000, 0.000000000000000000, 4.000000000000000000 ) ) ;
#879 = APPROVAL_DATE_TIME ( #87, #464 ) ;
#880 = ORIENTED_EDGE ( 'NONE', *, *, #991, .T. ) ;
#881 = EDGE_CURVE ( 'NONE', #333, #929, #470, .T. ) ;
#882 = AXIS2_PLACEMENT_3D ( 'NONE', #856, #526, #15 ) ;
#883 = DIRECTION ( 'NONE',  ( -1.000000000000000000, 0.000000000000000000, -0.000000000000000000 ) ) ;
#884 = AXIS2_PLACEMENT_3D ( 'NONE', #678, #1033, #441 ) ;
#885 = DIRECTION ( 'NONE',  ( 1.000000000000000000, 0.000000000000000000, 0.000000000000000000 ) ) ;
#886 = DATE_AND_TIME ( #538, #270 ) ;
#887 = VERTEX_POINT ( 'NONE', #246 ) ;
#888 = EDGE_CURVE ( 'NONE', #1110, #75, #252, .T. ) ;
#889 = DIRECTION ( 'NONE',  ( 1.000000000000000000, 0.000000000000000000, 0.000000000000000000 ) ) ;
#890 = DIRECTION ( 'NONE',  ( -1.000000000000000000, 0.000000000000000000, 0.000000000000000000 ) ) ;
#891 = VERTEX_POINT ( 'NONE', #775 ) ;
#892 = CYLINDRICAL_SURFACE ( 'NONE', #322, 1.150000000000000799 ) ;
#893 = CARTESIAN_POINT ( 'NONE',  ( 2.049999999999999822, -8.150000000000000355, -1.649999999999999911 ) ) ;
#894 = EDGE_CURVE ( 'NONE', #299, #1007, #918, .T. ) ;
#895 = LINE ( 'NONE', #654, #1121 ) ;
#896 = ORIENTED_EDGE ( 'NONE', *, *, #100, .F. ) ;
#897 = DIRECTION ( 'NONE',  ( 0.000000000000000000, 0.000000000000000000, 1.000000000000000000 ) ) ;
#898 = CARTESIAN_POINT ( 'NONE',  ( 13.00000000000000000, 1.592040838891559095E-15, -1.649999999999999911 ) ) ;
#899 = DIRECTION ( 'NONE',  ( 0.000000000000000000, 0.000000000000000000, -1.000000000000000000 ) ) ;
#900 = VECTOR ( 'NONE', #530, 1000.000000000000000 ) ;
#901 = CIRCLE ( 'NONE', #578, 4.000000000000000000 ) ;
#902 = ORIENTED_EDGE ( 'NONE', *, *, #947, .F. ) ;
#903 = LINE ( 'NONE', #911, #937 ) ;
#904 = DIRECTION ( 'NONE',  ( 0.000000000000000000, 0.000000000000000000, 1.000000000000000000 ) ) ;
#905 = DIRECTION ( 'NONE',  ( 1.000000000000000000, 0.000000000000000000, 0.000000000000000000 ) ) ;
#906 = ORIENTED_EDGE ( 'NONE', *, *, #823, .T. ) ;
#907 = DIRECTION ( 'NONE',  ( -1.000000000000000000, 0.000000000000000000, 0.000000000000000000 ) ) ;
#908 = DIRECTION ( 'NONE',  ( 0.000000000000000000, 0.000000000000000000, -1.000000000000000000 ) ) ;
#909 = PLANE ( 'NONE',  #826 ) ;
#910 = ORIENTED_EDGE ( 'NONE', *, *, #1078, .F. ) ;
#911 = CARTESIAN_POINT ( 'NONE',  ( -8.150000000000000355, 2.049999999999999822, -1.649999999999999911 ) ) ;
#912 = ADVANCED_FACE ( 'NONE', ( #619 ), #515, .F. ) ;
#913 = CARTESIAN_POINT ( 'NONE',  ( -8.150000000000000355, 2.049999999999999822, 0.000000000000000000 ) ) ;
#914 = CARTESIAN_POINT ( 'NONE',  ( 3.434748899119119070, -2.049999999999999822, -1.649999999999999911 ) ) ;
#915 = VECTOR ( 'NONE', #64, 1000.000000000000000 ) ;
#916 = VECTOR ( 'NONE', #454, 1000.000000000000000 ) ;
#917 = ORIENTED_EDGE ( 'NONE', *, *, #459, .F. ) ;
#918 = CIRCLE ( 'NONE', #142, 1.150000000000000799 ) ;
#919 = VERTEX_POINT ( 'NONE', #782 ) ;
#920 = ADVANCED_FACE ( 'NONE', ( #938 ), #7, .F. ) ;
#921 = LINE ( 'NONE', #139, #338 ) ;
#922 = CARTESIAN_POINT ( 'NONE',  ( 5.849999999999999645, -7.000000000000000000, 4.000000000000003553 ) ) ;
#923 = ORIENTED_EDGE ( 'NONE', *, *, #550, .F. ) ;
#924 = VERTEX_POINT ( 'NONE', #348 ) ;
#925 = CARTESIAN_POINT ( 'NONE',  ( -5.850000000000000533, 7.000000000000000000, 4.000000000000003553 ) ) ;
#926 = EDGE_CURVE ( 'NONE', #407, #56, #1032, .T. ) ;
#927 = FACE_OUTER_BOUND ( 'NONE', #131, .T. ) ;
#928 = ORIENTED_EDGE ( 'NONE', *, *, #439, .T. ) ;
#929 = VERTEX_POINT ( 'NONE', #73 ) ;
#930 = CARTESIAN_POINT ( 'NONE',  ( 0.000000000000000000, 8.150000000000000355, -1.649999999999999911 ) ) ;
#931 = CARTESIAN_POINT ( 'NONE',  ( -3.434748899119119070, -2.049999999999999822, -1.649999999999999911 ) ) ;
#932 = EDGE_CURVE ( 'NONE', #75, #558, #1068, .T. ) ;
#933 = ORIENTED_EDGE ( 'NONE', *, *, #325, .F. ) ;
#934 = CIRCLE ( 'NONE', #191, 1.149999999999999911 ) ;
#935 = AXIS2_PLACEMENT_3D ( 'NONE', #1025, #264, #962 ) ;
#936 = EDGE_LOOP ( 'NONE', ( #1098, #358 ) ) ;
#937 = VECTOR ( 'NONE', #639, 1000.000000000000000 ) ;
#938 = FACE_OUTER_BOUND ( 'NONE', #433, .T. ) ;
#939 = CARTESIAN_POINT ( 'NONE',  ( -2.049999999999999822, -8.150000000000000355, -1.649999999999999911 ) ) ;
#940 = EDGE_LOOP ( 'NONE', ( #453, #902 ) ) ;
#941 = ORIENTED_EDGE ( 'NONE', *, *, #797, .F. ) ;
#942 = DIRECTION ( 'NONE',  ( 0.000000000000000000, 0.000000000000000000, -1.000000000000000000 ) ) ;
#943 = DIRECTION ( 'NONE',  ( -0.000000000000000000, -0.000000000000000000, -1.000000000000000000 ) ) ;
#944 = DIRECTION ( 'NONE',  ( 0.000000000000000000, 0.000000000000000000, 1.000000000000000000 ) ) ;
#945 = PERSON_AND_ORGANIZATION ( #800, #1104 ) ;
#946 = EDGE_LOOP ( 'NONE', ( #766, #106, #682, #81, #352, #217, #880, #713, #144, #209, #564, #227, #851, #1027, #634, #62, #871 ) ) ;
#947 = EDGE_CURVE ( 'NONE', #816, #1092, #707, .T. ) ;
#948 = DIRECTION ( 'NONE',  ( 1.000000000000000000, 0.000000000000000000, 0.000000000000000000 ) ) ;
#949 = DIRECTION ( 'NONE',  ( -0.000000000000000000, -1.000000000000000000, -0.000000000000000000 ) ) ;
#950 = VERTEX_POINT ( 'NONE', #764 ) ;
#951 = ORIENTED_EDGE ( 'NONE', *, *, #749, .T. ) ;
#952 = AXIS2_PLACEMENT_3D ( 'NONE', #472, #126, #737 ) ;
#953 = CIRCLE ( 'NONE', #594, 2.049999999999999822 ) ;
#954 = CARTESIAN_POINT ( 'NONE',  ( 0.000000000000000000, 0.000000000000000000, -1.649999999999999911 ) ) ;
#955 = AXIS2_PLACEMENT_3D ( 'NONE', #16, #186, #94 ) ;
#956 = FACE_OUTER_BOUND ( 'NONE', #234, .T. ) ;
#957 = EDGE_CURVE ( 'NONE', #269, #519, #1038, .T. ) ;
#958 = DIRECTION ( 'NONE',  ( 1.000000000000000000, 0.000000000000000000, 0.000000000000000000 ) ) ;
#959 = PERSON_AND_ORGANIZATION ( #800, #1104 ) ;
#960 = VERTEX_POINT ( 'NONE', #866 ) ;
#961 = DIRECTION ( 'NONE',  ( -1.000000000000000000, 0.000000000000000000, 0.000000000000000000 ) ) ;
#962 = DIRECTION ( 'NONE',  ( 1.000000000000000000, 0.000000000000000000, 0.000000000000000000 ) ) ;
#963 = EDGE_CURVE ( 'NONE', #277, #761, #249, .T. ) ;
#964 = CYLINDRICAL_SURFACE ( 'NONE', #1050, 4.000000000000000000 ) ;
#965 = APPROVAL_DATE_TIME ( #886, #1072 ) ;
#966 = ORIENTED_EDGE ( 'NONE', *, *, #479, .T. ) ;
#967 = PLANE ( 'NONE',  #1051 ) ;
#968 = LINE ( 'NONE', #345, #755 ) ;
#969 = PRODUCT_DEFINITION ( 'UNKNOWN', '', #1069, #528 ) ;
#970 = ORIENTED_EDGE ( 'NONE', *, *, #127, .F. ) ;
#971 = EDGE_CURVE ( 'NONE', #857, #31, #685, .T. ) ;
#972 = AXIS2_PLACEMENT_3D ( 'NONE', #837, #309, #68 ) ;
#973 = CIRCLE ( 'NONE', #722, 2.049999999999999822 ) ;
#974 = DIRECTION ( 'NONE',  ( 1.000000000000000000, 0.000000000000000000, 0.000000000000000000 ) ) ;
#975 =( GEOMETRIC_REPRESENTATION_CONTEXT ( 3 ) GLOBAL_UNCERTAINTY_ASSIGNED_CONTEXT ( ( #434 ) ) GLOBAL_UNIT_ASSIGNED_CONTEXT ( ( #1029, #771, #341 ) ) REPRESENTATION_CONTEXT ( 'NONE', 'WORKASPACE' ) );
#976 = APPROVAL_PERSON_ORGANIZATION ( #609, #464, #1048 ) ;
#977 = CARTESIAN_POINT ( 'NONE',  ( -8.150000000000000355, -7.000000000000000000, 4.000000000000003553 ) ) ;
#978 = VERTEX_POINT ( 'NONE', #611 ) ;
#979 = EDGE_CURVE ( 'NONE', #31, #477, #901, .T. ) ;
#980 = DIRECTION ( 'NONE',  ( 0.000000000000000000, 0.000000000000000000, -1.000000000000000000 ) ) ;
#981 = DIRECTION ( 'NONE',  ( 1.000000000000000000, 0.000000000000000000, 0.000000000000000000 ) ) ;
#982 = ORIENTED_EDGE ( 'NONE', *, *, #730, .T. ) ;
#983 = CARTESIAN_POINT ( 'NONE',  ( -7.000000000000000000, 7.000000000000000000, 4.000000000000003553 ) ) ;
#984 = CARTESIAN_POINT ( 'NONE',  ( -8.150000000000000355, 2.049999999999999822, 0.000000000000000000 ) ) ;
#985 = CARTESIAN_POINT ( 'NONE',  ( 8.150000000000000355, 7.000000000000000000, 4.000000000000003553 ) ) ;
#986 = ORIENTED_EDGE ( 'NONE', *, *, #539, .F. ) ;
#987 = LINE ( 'NONE', #829, #793 ) ;
#988 = CLOSED_SHELL ( 'NONE', ( #635, #735, #52, #831, #523, #78, #317, #138, #193, #817, #242, #310, #408, #437, #346, #716, #92, #514, #1026, #373, #569, #763, #489, #1036, #1000, #353, #920, #1053, #912, #1058, #40 ) ) ;
#989 = DIRECTION ( 'NONE',  ( 1.000000000000000000, 0.000000000000000000, 0.000000000000000000 ) ) ;
#990 = CIRCLE ( 'NONE', #248, 13.00000000000000000 ) ;
#991 = EDGE_CURVE ( 'NONE', #608, #333, #903, .T. ) ;
#992 = DIRECTION ( 'NONE',  ( 0.000000000000000000, 0.000000000000000000, 1.000000000000000000 ) ) ;
#993 = AXIS2_PLACEMENT_3D ( 'NONE', #117, #814, #624 ) ;
#994 = VECTOR ( 'NONE', #1089, 1000.000000000000000 ) ;
#995 = EDGE_LOOP ( 'NONE', ( #933, #548 ) ) ;
#996 = CYLINDRICAL_SURFACE ( 'NONE', #303, 1.150000000000000799 ) ;
#997 = LOCAL_TIME ( 21, 59, 0.000000000000000000, #169 ) ;
#998 = DIRECTION ( 'NONE',  ( -1.000000000000000000, 0.000000000000000000, 0.000000000000000000 ) ) ;
#999 = DIRECTION ( 'NONE',  ( 1.000000000000000000, 0.000000000000000000, 0.000000000000000000 ) ) ;
#1000 = ADVANCED_FACE ( 'NONE', ( #568 ), #474, .F. ) ;
#1001 = ORIENTED_EDGE ( 'NONE', *, *, #627, .T. ) ;
#1002 = CARTESIAN_POINT ( 'NONE',  ( 5.849999999999999645, -7.000000000000000000, -1.650000000000000355 ) ) ;
#1003 = CARTESIAN_POINT ( 'NONE',  ( 2.049999999999999822, -8.150000000000000355, 0.000000000000000000 ) ) ;
#1004 = DIRECTION ( 'NONE',  ( 0.000000000000000000, -0.000000000000000000, -1.000000000000000000 ) ) ;
#1005 = ORIENTED_EDGE ( 'NONE', *, *, #645, .T. ) ;
#1006 = FACE_OUTER_BOUND ( 'NONE', #27, .T. ) ;
#1007 = VERTEX_POINT ( 'NONE', #650 ) ;
#1008 = FACE_OUTER_BOUND ( 'NONE', #537, .T. ) ;
#1009 = FACE_OUTER_BOUND ( 'NONE', #1014, .T. ) ;
#1010 = VECTOR ( 'NONE', #556, 1000.000000000000000 ) ;
#1011 = AXIS2_PLACEMENT_3D ( 'NONE', #149, #313, #998 ) ;
#1012 = ORIENTED_EDGE ( 'NONE', *, *, #29, .F. ) ;
#1013 = AXIS2_PLACEMENT_3D ( 'NONE', #913, #579, #494 ) ;
#1014 = EDGE_LOOP ( 'NONE', ( #786, #567, #311, #256 ) ) ;
#1015 = EDGE_CURVE ( 'NONE', #1096, #960, #158, .T. ) ;
#1016 = FACE_OUTER_BOUND ( 'NONE', #473, .T. ) ;
#1017 = DIRECTION ( 'NONE',  ( 0.000000000000000000, -0.000000000000000000, 1.000000000000000000 ) ) ;
#1018 = ORIENTED_EDGE ( 'NONE', *, *, #971, .F. ) ;
#1019 = EDGE_LOOP ( 'NONE', ( #329, #739, #449, #659 ) ) ;
#1020 = FACE_OUTER_BOUND ( 'NONE', #1019, .T. ) ;
#1021 = DIRECTION ( 'NONE',  ( 1.000000000000000000, 0.000000000000000000, 0.000000000000000000 ) ) ;
#1022 = ORIENTED_EDGE ( 'NONE', *, *, #459, .T. ) ;
#1023 = ORIENTED_EDGE ( 'NONE', *, *, #364, .F. ) ;
#1024 = CARTESIAN_POINT ( 'NONE',  ( 3.434748899119119070, 2.049999999999999822, 0.000000000000000000 ) ) ;
#1025 = CARTESIAN_POINT ( 'NONE',  ( 0.000000000000000000, 0.000000000000000000, -1.649999999999999911 ) ) ;
#1026 = ADVANCED_FACE ( 'NONE', ( #1006 ), #116, .F. ) ;
#1027 = ORIENTED_EDGE ( 'NONE', *, *, #550, .T. ) ;
#1028 = AXIS2_PLACEMENT_3D ( 'NONE', #223, #841, #1113 ) ;
#1029 =( LENGTH_UNIT ( ) NAMED_UNIT ( * ) SI_UNIT ( .MILLI., .METRE. ) );
#1030 = CIRCLE ( 'NONE', #268, 2.049999999999999822 ) ;
#1031 = ORIENTED_EDGE ( 'NONE', *, *, #947, .T. ) ;
#1032 = CIRCLE ( 'NONE', #431, 4.000000000000000000 ) ;
#1033 = DIRECTION ( 'NONE',  ( 0.000000000000000000, 0.000000000000000000, 1.000000000000000000 ) ) ;
#1034 = DIRECTION ( 'NONE',  ( -1.000000000000000000, 0.000000000000000000, -0.000000000000000000 ) ) ;
#1035 = ORIENTED_EDGE ( 'NONE', *, *, #12, .T. ) ;
#1036 = ADVANCED_FACE ( 'NONE', ( #300 ), #726, .F. ) ;
#1037 = VERTEX_POINT ( 'NONE', #137 ) ;
#1038 = LINE ( 'NONE', #171, #758 ) ;
#1039 = DIRECTION ( 'NONE',  ( 0.000000000000000000, 0.000000000000000000, 1.000000000000000000 ) ) ;
#1040 = ORIENTED_EDGE ( 'NONE', *, *, #44, .T. ) ;
#1041 = SHAPE_DEFINITION_REPRESENTATION ( #490, #229 ) ;
#1042 = EDGE_CURVE ( 'NONE', #608, #1096, #987, .T. ) ;
#1043 = ORIENTED_EDGE ( 'NONE', *, *, #235, .T. ) ;
#1044 = EDGE_CURVE ( 'NONE', #509, #254, #210, .T. ) ;
#1045 = DIRECTION ( 'NONE',  ( 0.000000000000000000, 0.000000000000000000, -1.000000000000000000 ) ) ;
#1046 = CARTESIAN_POINT ( 'NONE',  ( 8.150000000000000355, -2.049999999999999822, -1.649999999999999911 ) ) ;
#1047 = CARTESIAN_POINT ( 'NONE',  ( 0.000000000000000000, 0.000000000000000000, 0.000000000000000000 ) ) ;
#1048 = APPROVAL_ROLE ( '' ) ;
#1049 = ORIENTED_EDGE ( 'NONE', *, *, #1042, .F. ) ;
#1050 = AXIS2_PLACEMENT_3D ( 'NONE', #878, #103, #890 ) ;
#1051 = AXIS2_PLACEMENT_3D ( 'NONE', #475, #378, #883 ) ;
#1052 = DIRECTION ( 'NONE',  ( 1.000000000000000000, 0.000000000000000000, 0.000000000000000000 ) ) ;
#1053 = ADVANCED_FACE ( 'NONE', ( #1093 ), #996, .F. ) ;
#1054 = LINE ( 'NONE', #614, #450 ) ;
#1055 = DIRECTION ( 'NONE',  ( -0.000000000000000000, -0.000000000000000000, 1.000000000000000000 ) ) ;
#1056 = PERSON_AND_ORGANIZATION ( #800, #1104 ) ;
#1057 = ORIENTED_EDGE ( 'NONE', *, *, #645, .F. ) ;
#1058 = ADVANCED_FACE ( 'NONE', ( #133 ), #892, .F. ) ;
#1059 = CARTESIAN_POINT ( 'NONE',  ( 2.049999999999999822, 8.150000000000000355, 0.000000000000000000 ) ) ;
#1060 = ORIENTED_EDGE ( 'NONE', *, *, #749, .F. ) ;
#1061 = ORIENTED_EDGE ( 'NONE', *, *, #446, .T. ) ;
#1062 = DIRECTION ( 'NONE',  ( 0.000000000000000000, 0.000000000000000000, -1.000000000000000000 ) ) ;
#1063 = PLANE ( 'NONE',  #952 ) ;
#1064 = ORIENTED_EDGE ( 'NONE', *, *, #1097, .F. ) ;
#1065 = CIRCLE ( 'NONE', #155, 4.000000000000000000 ) ;
#1066 = AXIS2_PLACEMENT_3D ( 'NONE', #154, #1094, #51 ) ;
#1067 = LINE ( 'NONE', #214, #668 ) ;
#1068 = CIRCLE ( 'NONE', #724, 13.00000000000000000 ) ;
#1069 = PRODUCT_DEFINITION_FORMATION_WITH_SPECIFIED_SOURCE ( 'ANY', '', #55, .NOT_KNOWN. ) ;
#1070 = CARTESIAN_POINT ( 'NONE',  ( 2.049999999999999822, 8.150000000000000355, -1.649999999999999911 ) ) ;
#1071 = ORIENTED_EDGE ( 'NONE', *, *, #932, .T. ) ;
#1072 = APPROVAL ( #604, 'UNSPECIFIED' ) ;
#1073 = CARTESIAN_POINT ( 'NONE',  ( -13.00000000000000000, 0.000000000000000000, 4.000000000000000000 ) ) ;
#1074 = DIRECTION ( 'NONE',  ( -0.000000000000000000, -0.000000000000000000, -1.000000000000000000 ) ) ;
#1075 = DIRECTION ( 'NONE',  ( -0.000000000000000000, 1.000000000000000000, 0.000000000000000000 ) ) ;
#1076 = ORIENTED_EDGE ( 'NONE', *, *, #991, .F. ) ;
#1077 = CARTESIAN_POINT ( 'NONE',  ( 5.849999999999999645, -7.000000000000000000, 4.000000000000003553 ) ) ;
#1078 = EDGE_CURVE ( 'NONE', #1037, #857, #822, .T. ) ;
#1079 = CYLINDRICAL_SURFACE ( 'NONE', #376, 1.150000000000000799 ) ;
#1080 = CARTESIAN_POINT ( 'NONE',  ( 4.000000000000000000, 4.898587196589412829E-16, 0.000000000000000000 ) ) ;
#1081 = ORIENTED_EDGE ( 'NONE', *, *, #273, .T. ) ;
#1082 = DIRECTION ( 'NONE',  ( 1.000000000000000000, 0.000000000000000000, 0.000000000000000000 ) ) ;
#1083 = VECTOR ( 'NONE', #141, 1000.000000000000000 ) ;
#1084 = CARTESIAN_POINT ( 'NONE',  ( -2.049999999999999822, -8.150000000000000355, 0.000000000000000000 ) ) ;
#1085 = EDGE_CURVE ( 'NONE', #812, #608, #507, .T. ) ;
#1086 = LINE ( 'NONE', #208, #484 ) ;
#1087 = AXIS2_PLACEMENT_3D ( 'NONE', #462, #221, #32 ) ;
#1088 = EDGE_LOOP ( 'NONE', ( #821, #500, #966, #553 ) ) ;
#1089 = DIRECTION ( 'NONE',  ( -1.000000000000000000, -0.000000000000000000, -0.000000000000000000 ) ) ;
#1090 = PLANE ( 'NONE',  #1066 ) ;
#1091 = LINE ( 'NONE', #590, #915 ) ;
#1092 = VERTEX_POINT ( 'NONE', #1002 ) ;
#1093 = FACE_OUTER_BOUND ( 'NONE', #274, .T. ) ;
#1094 = DIRECTION ( 'NONE',  ( -1.000000000000000000, 0.000000000000000000, 0.000000000000000000 ) ) ;
#1095 = LINE ( 'NONE', #231, #613 ) ;
#1096 = VERTEX_POINT ( 'NONE', #660 ) ;
#1097 = EDGE_CURVE ( 'NONE', #183, #857, #21, .T. ) ;
#1098 = ORIENTED_EDGE ( 'NONE', *, *, #894, .F. ) ;
#1099 = CYLINDRICAL_SURFACE ( 'NONE', #1011, 1.150000000000000799 ) ;
#1100 = CARTESIAN_POINT ( 'NONE',  ( 5.849999999999999645, 7.000000000000000000, 4.000000000000003553 ) ) ;
#1101 = CIRCLE ( 'NONE', #521, 4.000000000000000000 ) ;
#1102 = VECTOR ( 'NONE', #180, 1000.000000000000000 ) ;
#1103 = VERTEX_POINT ( 'NONE', #1077 ) ;
#1104 = ORGANIZATION ( 'UNSPECIFIED', 'UNSPECIFIED', '' ) ;
#1105 = CC_DESIGN_DATE_AND_TIME_ASSIGNMENT ( #190, #360, ( #969 ) ) ;
#1106 = CC_DESIGN_APPROVAL ( #464, ( #1069 ) ) ;
#1107 = FACE_OUTER_BOUND ( 'NONE', #681, .T. ) ;
#1108 = CARTESIAN_POINT ( 'NONE',  ( -8.150000000000000355, 0.000000000000000000, 0.000000000000000000 ) ) ;
#1109 = EDGE_LOOP ( 'NONE', ( #417, #842, #951, #164 ) ) ;
#1110 = VERTEX_POINT ( 'NONE', #1073 ) ;
#1111 = CARTESIAN_POINT ( 'NONE',  ( 7.000000000000000000, 7.000000000000000000, -1.650000000000000355 ) ) ;
#1112 = EDGE_CURVE ( 'NONE', #224, #187, #339, .T. ) ;
#1113 = DIRECTION ( 'NONE',  ( 1.000000000000000000, 0.000000000000000000, 0.000000000000000000 ) ) ;
#1114 = EDGE_LOOP ( 'NONE', ( #1123, #18 ) ) ;
#1115 = DIRECTION ( 'NONE',  ( -0.000000000000000000, -0.000000000000000000, -1.000000000000000000 ) ) ;
#1116 = VERTEX_POINT ( 'NONE', #813 ) ;
#1117 = CARTESIAN_POINT ( 'NONE',  ( -7.000000000000000000, 7.000000000000000000, -1.650000000000000355 ) ) ;
#1118 = EDGE_CURVE ( 'NONE', #56, #960, #573, .T. ) ;
#1119 = CARTESIAN_POINT ( 'NONE',  ( -2.049999999999999822, -8.150000000000000355, 0.000000000000000000 ) ) ;
#1120 = ORIENTED_EDGE ( 'NONE', *, *, #823, .F. ) ;
#1121 = VECTOR ( 'NONE', #198, 1000.000000000000000 ) ;
#1122 = AXIS2_PLACEMENT_3D ( 'NONE', #382, #904, #889 ) ;
#1123 = ORIENTED_EDGE ( 'NONE', *, *, #852, .F. ) ;
#1124 = AXIS2_PLACEMENT_3D ( 'NONE', #1117, #335, #435 ) ;
ENDSEC;
END-ISO-10303-21;
