ISO-10303-21;
HEADER;
FILE_DESCRIPTION (( 'STEP AP203' ),
    '1' );
FILE_NAME ('FIT-001_Dowel_and_bearing_trial.step',
    '2026-09-13T02:58:55',
    ( '' ),
    ( '' ),
    'SwSTEP 2.0',
    'SolidWorks 2026',
    '' );
FILE_SCHEMA (( 'CONFIG_CONTROL_DESIGN' ));
ENDSEC;

DATA;
#1 = CARTESIAN_POINT ( 'NONE',  ( -33.17499999999999716, -11.00000000000000000, 8.000000000000000000 ) ) ;
#2 = EDGE_LOOP ( 'NONE', ( #137, #211, #347, #665 ) ) ;
#3 = CC_DESIGN_DATE_AND_TIME_ASSIGNMENT ( #281, #678, ( #203 ) ) ;
#4 = DIRECTION ( 'NONE',  ( -1.000000000000000000, 0.000000000000000000, 0.000000000000000000 ) ) ;
#5 = FACE_OUTER_BOUND ( 'NONE', #251, .T. ) ;
#6 = VERTEX_POINT ( 'NONE', #171 ) ;
#7 = CARTESIAN_POINT ( 'NONE',  ( 60.00000000000000000, -17.00000000000000000, 8.000000000000000000 ) ) ;
#8 = CARTESIAN_POINT ( 'NONE',  ( 0.000000000000000000, -11.00000000000000000, 8.000000000000000000 ) ) ;
#9 = EDGE_CURVE ( 'NONE', #380, #103, #24, .T. ) ;
#10 = EDGE_LOOP ( 'NONE', ( #117, #526, #542, #760 ) ) ;
#11 = AXIS2_PLACEMENT_3D ( 'NONE', #545, #742, #356 ) ;
#12 = AXIS2_PLACEMENT_3D ( 'NONE', #177, #754, #378 ) ;
#13 = AXIS2_PLACEMENT_3D ( 'NONE', #394, #777, #78 ) ;
#14 = DIRECTION ( 'NONE',  ( -0.000000000000000000, -0.000000000000000000, -1.000000000000000000 ) ) ;
#15 = FACE_BOUND ( 'NONE', #367, .T. ) ;
#16 = EDGE_CURVE ( 'NONE', #530, #121, #227, .T. ) ;
#17 = ORIENTED_EDGE ( 'NONE', *, *, #413, .T. ) ;
#18 = CARTESIAN_POINT ( 'NONE',  ( 3.225000000000000089, -11.00000000000000000, 8.000000000000000000 ) ) ;
#19 = CYLINDRICAL_SURFACE ( 'NONE', #201, 3.275000000000000355 ) ;
#20 = ORIENTED_EDGE ( 'NONE', *, *, #133, .F. ) ;
#21 = CARTESIAN_POINT ( 'NONE',  ( 26.09999999999999787, 1.359357947053561959E-15, 0.000000000000000000 ) ) ;
#22 = DIRECTION ( 'NONE',  ( 0.000000000000000000, 0.000000000000000000, -1.000000000000000000 ) ) ;
#23 = EDGE_LOOP ( 'NONE', ( #396, #436 ) ) ;
#24 = CIRCLE ( 'NONE', #267, 3.174999999999997158 ) ;
#25 = CIRCLE ( 'NONE', #415, 11.05000000000000071 ) ;
#26 = FACE_OUTER_BOUND ( 'NONE', #205, .T. ) ;
#27 = CARTESIAN_POINT ( 'NONE',  ( 60.00000000000000000, -17.00000000000000000, 0.000000000000000000 ) ) ;
#28 = EDGE_LOOP ( 'NONE', ( #221, #192 ) ) ;
#29 = FACE_BOUND ( 'NONE', #459, .T. ) ;
#30 = EDGE_CURVE ( 'NONE', #121, #530, #254, .T. ) ;
#31 = CARTESIAN_POINT ( 'NONE',  ( -3.949999999999998845, 1.353234713057825478E-15, 0.000000000000000000 ) ) ;
#32 = ORIENTED_EDGE ( 'NONE', *, *, #613, .T. ) ;
#33 =( NAMED_UNIT ( * ) PLANE_ANGLE_UNIT ( ) SI_UNIT ( $, .RADIAN. ) );
#34 = LINE ( 'NONE', #611, #60 ) ;
#35 = VERTEX_POINT ( 'NONE', #286 ) ;
#36 = EDGE_CURVE ( 'NONE', #6, #533, #591, .T. ) ;
#37 = VECTOR ( 'NONE', #764, 1000.000000000000000 ) ;
#38 = DIRECTION ( 'NONE',  ( 0.000000000000000000, 0.000000000000000000, 1.000000000000000000 ) ) ;
#39 = APPROVAL_PERSON_ORGANIZATION ( #411, #589, #614 ) ;
#40 = VERTEX_POINT ( 'NONE', #616 ) ;
#41 = ADVANCED_FACE ( 'NONE', ( #297 ), #167, .F. ) ;
#42 = CARTESIAN_POINT ( 'NONE',  ( -15.00000000000000000, 0.000000000000000000, 0.000000000000000000 ) ) ;
#43 = DIRECTION ( 'NONE',  ( 1.000000000000000000, 0.000000000000000000, 0.000000000000000000 ) ) ;
#44 = COORDINATED_UNIVERSAL_TIME_OFFSET ( 6, 0, .BEHIND. ) ;
#45 = CARTESIAN_POINT ( 'NONE',  ( 15.00000000000000000, 0.000000000000000000, 8.000000000000000000 ) ) ;
#46 = PERSON_AND_ORGANIZATION ( #475, #336 ) ;
#47 = CARTESIAN_POINT ( 'NONE',  ( -15.00000000000000000, 0.000000000000000000, 8.000000000000000000 ) ) ;
#48 = ORIENTED_EDGE ( 'NONE', *, *, #187, .F. ) ;
#49 = EDGE_LOOP ( 'NONE', ( #557, #617, #363, #707 ) ) ;
#50 = LINE ( 'NONE', #299, #98 ) ;
#51 = EDGE_CURVE ( 'NONE', #188, #736, #492, .T. ) ;
#52 = EDGE_LOOP ( 'NONE', ( #471, #146 ) ) ;
#53 = CARTESIAN_POINT ( 'NONE',  ( -60.00000000000000000, 17.00000000000000000, 8.000000000000000000 ) ) ;
#54 = CARTESIAN_POINT ( 'NONE',  ( -45.00000000000000000, 0.000000000000000000, 0.000000000000000000 ) ) ;
#55 = VERTEX_POINT ( 'NONE', #621 ) ;
#56 = CALENDAR_DATE ( 2026, 12, 9 ) ;
#57 = CYLINDRICAL_SURFACE ( 'NONE', #713, 11.09999999999999787 ) ;
#58 = DIRECTION ( 'NONE',  ( -1.000000000000000000, 0.000000000000000000, 0.000000000000000000 ) ) ;
#59 = AXIS2_PLACEMENT_3D ( 'NONE', #790, #395, #597 ) ;
#60 = VECTOR ( 'NONE', #277, 1000.000000000000000 ) ;
#61 = ORIENTED_EDGE ( 'NONE', *, *, #83, .T. ) ;
#62 = EDGE_CURVE ( 'NONE', #749, #149, #523, .T. ) ;
#63 = DIRECTION ( 'NONE',  ( 0.000000000000000000, 0.000000000000000000, 1.000000000000000000 ) ) ;
#64 = DIRECTION ( 'NONE',  ( 1.000000000000000000, 0.000000000000000000, 0.000000000000000000 ) ) ;
#65 = VERTEX_POINT ( 'NONE', #643 ) ;
#66 = CARTESIAN_POINT ( 'NONE',  ( -60.00000000000000000, 17.00000000000000000, 0.000000000000000000 ) ) ;
#67 = DIRECTION ( 'NONE',  ( 0.000000000000000000, 0.000000000000000000, -1.000000000000000000 ) ) ;
#68 = ORIENTED_EDGE ( 'NONE', *, *, #83, .F. ) ;
#69 = DIRECTION ( 'NONE',  ( -1.000000000000000000, 0.000000000000000000, -0.000000000000000000 ) ) ;
#70 = CARTESIAN_POINT ( 'NONE',  ( 3.900000000000000799, 0.000000000000000000, 8.000000000000000000 ) ) ;
#71 = ORIENTED_EDGE ( 'NONE', *, *, #108, .F. ) ;
#72 = LINE ( 'NONE', #328, #579 ) ;
#73 = FACE_OUTER_BOUND ( 'NONE', #763, .T. ) ;
#74 = VERTEX_POINT ( 'NONE', #123 ) ;
#75 = CARTESIAN_POINT ( 'NONE',  ( -15.00000000000000000, 0.000000000000000000, 8.000000000000000000 ) ) ;
#76 = CARTESIAN_POINT ( 'NONE',  ( -34.00000000000000000, 1.347111479062088010E-15, 0.000000000000000000 ) ) ;
#77 = ORIENTED_EDGE ( 'NONE', *, *, #674, .F. ) ;
#78 = DIRECTION ( 'NONE',  ( -1.000000000000000000, 0.000000000000000000, 0.000000000000000000 ) ) ;
#79 = FACE_BOUND ( 'NONE', #272, .T. ) ;
#80 = APPLICATION_CONTEXT ( 'configuration controlled 3d designs of mechanical parts and assemblies' ) ;
#81 = ORIENTED_EDGE ( 'NONE', *, *, #618, .F. ) ;
#82 = VECTOR ( 'NONE', #116, 1000.000000000000000 ) ;
#83 = EDGE_CURVE ( 'NONE', #158, #74, #771, .T. ) ;
#84 = AXIS2_PLACEMENT_3D ( 'NONE', #518, #654, #69 ) ;
#85 = CARTESIAN_POINT ( 'NONE',  ( -60.00000000000000000, 17.00000000000000000, 0.000000000000000000 ) ) ;
#86 = CIRCLE ( 'NONE', #553, 11.05000000000000071 ) ;
#87 = ORIENTED_EDGE ( 'NONE', *, *, #284, .T. ) ;
#88 = CALENDAR_DATE ( 2026, 12, 9 ) ;
#89 = DIRECTION ( 'NONE',  ( 0.000000000000000000, 0.000000000000000000, -1.000000000000000000 ) ) ;
#90 = ORIENTED_EDGE ( 'NONE', *, *, #652, .T. ) ;
#91 = CARTESIAN_POINT ( 'NONE',  ( -34.00000000000000000, 1.347111479062088010E-15, 8.000000000000000000 ) ) ;
#92 = ADVANCED_FACE ( 'NONE', ( #5 ), #569, .F. ) ;
#93 = CARTESIAN_POINT ( 'NONE',  ( -30.00000000000000000, -11.00000000000000000, 0.000000000000000000 ) ) ;
#94 = PRODUCT_DEFINITION_SHAPE ( 'NONE', 'NONE',  #203 ) ;
#95 = ORIENTED_EDGE ( 'NONE', *, *, #120, .F. ) ;
#96 = AXIS2_PLACEMENT_3D ( 'NONE', #320, #820, #237 ) ;
#97 = APPROVAL_DATE_TIME ( #619, #528 ) ;
#98 = VECTOR ( 'NONE', #559, 1000.000000000000000 ) ;
#99 = CYLINDRICAL_SURFACE ( 'NONE', #214, 3.275000000000000355 ) ;
#100 = EDGE_LOOP ( 'NONE', ( #779, #685, #792, #179 ) ) ;
#101 = ORIENTED_EDGE ( 'NONE', *, *, #36, .F. ) ;
#102 = DIRECTION ( 'NONE',  ( 0.000000000000000000, 0.000000000000000000, 1.000000000000000000 ) ) ;
#103 = VERTEX_POINT ( 'NONE', #432 ) ;
#104 = EDGE_CURVE ( 'NONE', #35, #508, #684, .T. ) ;
#105 = PERSON_AND_ORGANIZATION_ROLE ( 'design_supplier' ) ;
#106 = CARTESIAN_POINT ( 'NONE',  ( -45.00000000000000000, 0.000000000000000000, 8.000000000000000000 ) ) ;
#107 = CARTESIAN_POINT ( 'NONE',  ( 33.85000000000000142, 0.000000000000000000, 8.000000000000000000 ) ) ;
#108 = EDGE_CURVE ( 'NONE', #149, #561, #448, .T. ) ;
#109 = LINE ( 'NONE', #236, #241 ) ;
#110 = AXIS2_PLACEMENT_3D ( 'NONE', #438, #765, #64 ) ;
#111 = AXIS2_PLACEMENT_3D ( 'NONE', #118, #63, #303 ) ;
#112 = ORIENTED_EDGE ( 'NONE', *, *, #62, .F. ) ;
#113 = AXIS2_PLACEMENT_3D ( 'NONE', #464, #722, #705 ) ;
#114 = CARTESIAN_POINT ( 'NONE',  ( -30.00000000000000000, -11.00000000000000000, 8.000000000000000000 ) ) ;
#115 = ADVANCED_FACE ( 'NONE', ( #511 ), #759, .F. ) ;
#116 = DIRECTION ( 'NONE',  ( 0.000000000000000000, 0.000000000000000000, -1.000000000000000000 ) ) ;
#117 = ORIENTED_EDGE ( 'NONE', *, *, #165, .F. ) ;
#118 = CARTESIAN_POINT ( 'NONE',  ( 56.00000000000000000, -11.00000000000000000, 8.000000000000000000 ) ) ;
#119 = DIRECTION ( 'NONE',  ( 1.000000000000000000, 0.000000000000000000, 0.000000000000000000 ) ) ;
#120 = EDGE_CURVE ( 'NONE', #463, #410, #470, .T. ) ;
#121 = VERTEX_POINT ( 'NONE', #1 ) ;
#122 = DIRECTION ( 'NONE',  ( 0.000000000000000000, 0.000000000000000000, -1.000000000000000000 ) ) ;
#123 = CARTESIAN_POINT ( 'NONE',  ( -60.00000000000000000, 17.00000000000000000, 8.000000000000000000 ) ) ;
#124 = VECTOR ( 'NONE', #359, 1000.000000000000000 ) ;
#125 = AXIS2_PLACEMENT_3D ( 'NONE', #524, #787, #659 ) ;
#126 = ORIENTED_EDGE ( 'NONE', *, *, #193, .F. ) ;
#127 = DIRECTION ( 'NONE',  ( 1.000000000000000000, 0.000000000000000000, 0.000000000000000000 ) ) ;
#128 = DIRECTION ( 'NONE',  ( -0.000000000000000000, -0.000000000000000000, 1.000000000000000000 ) ) ;
#129 = VERTEX_POINT ( 'NONE', #131 ) ;
#130 = FACE_OUTER_BOUND ( 'NONE', #2, .T. ) ;
#131 = CARTESIAN_POINT ( 'NONE',  ( 56.14999999999999858, 1.365481181049298835E-15, 8.000000000000000000 ) ) ;
#132 = ORIENTED_EDGE ( 'NONE', *, *, #370, .T. ) ;
#133 = EDGE_CURVE ( 'NONE', #561, #669, #756, .T. ) ;
#134 = FACE_BOUND ( 'NONE', #549, .T. ) ;
#135 = CARTESIAN_POINT ( 'NONE',  ( 45.00000000000000000, 0.000000000000000000, 8.000000000000000000 ) ) ;
#136 = CLOSED_SHELL ( 'NONE', ( #734, #223, #346, #311, #386, #365, #637, #234, #821, #429, #641, #517, #341, #667, #601, #41, #115, #462, #249, #315, #92, #567 ) ) ;
#137 = ORIENTED_EDGE ( 'NONE', *, *, #238, .T. ) ;
#138 = CC_DESIGN_APPROVAL ( #528, ( #797 ) ) ;
#139 = CARTESIAN_POINT ( 'NONE',  ( 56.00000000000000000, -11.00000000000000000, 8.000000000000000000 ) ) ;
#140 = PLANE ( 'NONE',  #633 ) ;
#141 = EDGE_CURVE ( 'NONE', #218, #736, #605, .T. ) ;
#142 = EDGE_LOOP ( 'NONE', ( #357, #77, #68, #595 ) ) ;
#143 = FACE_BOUND ( 'NONE', #691, .T. ) ;
#144 = DIRECTION ( 'NONE',  ( -1.000000000000000000, 0.000000000000000000, 0.000000000000000000 ) ) ;
#145 = EDGE_CURVE ( 'NONE', #65, #158, #626, .T. ) ;
#146 = ORIENTED_EDGE ( 'NONE', *, *, #104, .T. ) ;
#147 = LINE ( 'NONE', #460, #473 ) ;
#148 = CARTESIAN_POINT ( 'NONE',  ( 56.00000000000000000, -11.00000000000000000, 8.000000000000000000 ) ) ;
#149 = VERTEX_POINT ( 'NONE', #496 ) ;
#150 = AXIS2_PLACEMENT_3D ( 'NONE', #355, #679, #358 ) ;
#151 = LOCAL_TIME ( 21, 58, 55.00000000000000000, #666 ) ;
#152 = DIRECTION ( 'NONE',  ( -0.000000000000000000, -0.000000000000000000, 1.000000000000000000 ) ) ;
#153 = ORIENTED_EDGE ( 'NONE', *, *, #168, .T. ) ;
#154 = EDGE_CURVE ( 'NONE', #449, #40, #428, .T. ) ;
#155 = DATE_AND_TIME ( #293, #280 ) ;
#156 = ORIENTED_EDGE ( 'NONE', *, *, #708, .T. ) ;
#157 = CARTESIAN_POINT ( 'NONE',  ( -45.00000000000000000, 0.000000000000000000, 8.000000000000000000 ) ) ;
#158 = VERTEX_POINT ( 'NONE', #504 ) ;
#159 = ORIENTED_EDGE ( 'NONE', *, *, #688, .F. ) ;
#160 = COORDINATED_UNIVERSAL_TIME_OFFSET ( 6, 0, .BEHIND. ) ;
#161 = CIRCLE ( 'NONE', #111, 3.325000000000001510 ) ;
#162 = DIRECTION ( 'NONE',  ( 0.000000000000000000, 0.000000000000000000, -1.000000000000000000 ) ) ;
#163 = VECTOR ( 'NONE', #646, 1000.000000000000000 ) ;
#164 = ORIENTED_EDGE ( 'NONE', *, *, #539, .T. ) ;
#165 = EDGE_CURVE ( 'NONE', #309, #279, #175, .T. ) ;
#166 = CARTESIAN_POINT ( 'NONE',  ( -26.82499999999999929, -11.00000000000000000, 0.000000000000000000 ) ) ;
#167 = CYLINDRICAL_SURFACE ( 'NONE', #212, 11.09999999999999787 ) ;
#168 = EDGE_CURVE ( 'NONE', #300, #520, #213, .T. ) ;
#169 = ORIENTED_EDGE ( 'NONE', *, *, #803, .F. ) ;
#170 = LINE ( 'NONE', #91, #525 ) ;
#171 = CARTESIAN_POINT ( 'NONE',  ( 33.27499999999999858, -11.00000000000000000, 0.000000000000000000 ) ) ;
#172 = ORIENTED_EDGE ( 'NONE', *, *, #264, .F. ) ;
#173 = CIRCLE ( 'NONE', #59, 3.225000000000000089 ) ;
#174 = CARTESIAN_POINT ( 'NONE',  ( 45.00000000000000000, 0.000000000000000000, 8.000000000000000000 ) ) ;
#175 = LINE ( 'NONE', #696, #82 ) ;
#176 = EDGE_CURVE ( 'NONE', #263, #427, #550, .T. ) ;
#177 = CARTESIAN_POINT ( 'NONE',  ( 0.000000000000000000, -11.00000000000000000, 0.000000000000000000 ) ) ;
#178 = CARTESIAN_POINT ( 'NONE',  ( -60.00000000000000000, -17.00000000000000000, 0.000000000000000000 ) ) ;
#179 = ORIENTED_EDGE ( 'NONE', *, *, #301, .F. ) ;
#180 = DIRECTION ( 'NONE',  ( 0.000000000000000000, 0.000000000000000000, 1.000000000000000000 ) ) ;
#181 = CARTESIAN_POINT ( 'NONE',  ( -15.00000000000000000, 0.000000000000000000, 8.000000000000000000 ) ) ;
#182 = ORIENTED_EDGE ( 'NONE', *, *, #238, .F. ) ;
#183 = CARTESIAN_POINT ( 'NONE',  ( 60.00000000000000000, -17.00000000000000000, 0.000000000000000000 ) ) ;
#184 = DIRECTION ( 'NONE',  ( 1.000000000000000000, 0.000000000000000000, 0.000000000000000000 ) ) ;
#185 = AXIS2_PLACEMENT_3D ( 'NONE', #54, #304, #58 ) ;
#186 = CIRCLE ( 'NONE', #125, 10.99999999999999645 ) ;
#187 = EDGE_CURVE ( 'NONE', #129, #218, #564, .T. ) ;
#188 = VERTEX_POINT ( 'NONE', #500 ) ;
#189 = VECTOR ( 'NONE', #209, 1000.000000000000000 ) ;
#190 = DIRECTION ( 'NONE',  ( -1.000000000000000000, 0.000000000000000000, 0.000000000000000000 ) ) ;
#191 = DIRECTION ( 'NONE',  ( -1.000000000000000000, 0.000000000000000000, 0.000000000000000000 ) ) ;
#192 = ORIENTED_EDGE ( 'NONE', *, *, #776, .F. ) ;
#193 = EDGE_CURVE ( 'NONE', #602, #640, #702, .T. ) ;
#194 = PLANE ( 'NONE',  #430 ) ;
#195 = DIRECTION ( 'NONE',  ( -1.000000000000000000, 0.000000000000000000, -0.000000000000000000 ) ) ;
#196 = EDGE_LOOP ( 'NONE', ( #423, #751, #489, #513 ) ) ;
#197 = DIRECTION ( 'NONE',  ( 1.000000000000000000, 0.000000000000000000, 0.000000000000000000 ) ) ;
#198 = CARTESIAN_POINT ( 'NONE',  ( 56.00000000000000000, -11.00000000000000000, 8.000000000000000000 ) ) ;
#199 = VECTOR ( 'NONE', #519, 1000.000000000000000 ) ;
#200 = ORIENTED_EDGE ( 'NONE', *, *, #708, .F. ) ;
#201 = AXIS2_PLACEMENT_3D ( 'NONE', #274, #89, #210 ) ;
#202 = PLANE ( 'NONE',  #84 ) ;
#203 = PRODUCT_DEFINITION ( 'UNKNOWN', '', #797, #512 ) ;
#204 = FACE_OUTER_BOUND ( 'NONE', #612, .T. ) ;
#205 = EDGE_LOOP ( 'NONE', ( #182, #81, #172, #126 ) ) ;
#206 = LINE ( 'NONE', #709, #189 ) ;
#207 = LINE ( 'NONE', #584, #388 ) ;
#208 = ORIENTED_EDGE ( 'NONE', *, *, #697, .T. ) ;
#209 = DIRECTION ( 'NONE',  ( 0.000000000000000000, 0.000000000000000000, -1.000000000000000000 ) ) ;
#210 = DIRECTION ( 'NONE',  ( -1.000000000000000000, 0.000000000000000000, 0.000000000000000000 ) ) ;
#211 = ORIENTED_EDGE ( 'NONE', *, *, #278, .F. ) ;
#212 = AXIS2_PLACEMENT_3D ( 'NONE', #45, #291, #680 ) ;
#213 = CIRCLE ( 'NONE', #825, 3.225000000000000089 ) ;
#214 = AXIS2_PLACEMENT_3D ( 'NONE', #541, #482, #671 ) ;
#215 = DIRECTION ( 'NONE',  ( 1.000000000000000000, 0.000000000000000000, 0.000000000000000000 ) ) ;
#216 = SECURITY_CLASSIFICATION ( '', '', #599 ) ;
#217 = DIRECTION ( 'NONE',  ( -1.000000000000000000, 0.000000000000000000, 0.000000000000000000 ) ) ;
#218 = VERTEX_POINT ( 'NONE', #369 ) ;
#219 = CARTESIAN_POINT ( 'NONE',  ( -60.00000000000000000, -17.00000000000000000, 8.000000000000000000 ) ) ;
#220 = DIRECTION ( 'NONE',  ( 0.000000000000000000, 0.000000000000000000, 1.000000000000000000 ) ) ;
#221 = ORIENTED_EDGE ( 'NONE', *, *, #613, .F. ) ;
#222 = PERSON_AND_ORGANIZATION_ROLE ( 'classification_officer' ) ;
#223 = ADVANCED_FACE ( 'NONE', ( #630 ), #639, .F. ) ;
#224 = CARTESIAN_POINT ( 'NONE',  ( 52.67499999999999716, -11.00000000000000000, 0.000000000000000000 ) ) ;
#225 = CARTESIAN_POINT ( 'NONE',  ( -30.00000000000000000, -11.00000000000000000, 8.000000000000000000 ) ) ;
#226 = ORIENTED_EDGE ( 'NONE', *, *, #799, .T. ) ;
#227 = CIRCLE ( 'NONE', #622, 3.175000000000000711 ) ;
#228 = PERSON_AND_ORGANIZATION ( #475, #336 ) ;
#229 = CARTESIAN_POINT ( 'NONE',  ( -55.99999999999999289, 0.000000000000000000, 8.000000000000000000 ) ) ;
#230 = EDGE_CURVE ( 'NONE', #736, #218, #537, .T. ) ;
#231 = ORIENTED_EDGE ( 'NONE', *, *, #478, .F. ) ;
#232 = CYLINDRICAL_SURFACE ( 'NONE', #741, 10.99999999999999645 ) ;
#233 = DIRECTION ( 'NONE',  ( 0.000000000000000000, 0.000000000000000000, 1.000000000000000000 ) ) ;
#234 = ADVANCED_FACE ( 'NONE', ( #329 ), #587, .F. ) ;
#235 = ORIENTED_EDGE ( 'NONE', *, *, #30, .T. ) ;
#236 = CARTESIAN_POINT ( 'NONE',  ( -26.82499999999999929, -11.00000000000000000, 8.000000000000000000 ) ) ;
#237 = DIRECTION ( 'NONE',  ( -1.000000000000000000, 0.000000000000000000, 0.000000000000000000 ) ) ;
#238 = EDGE_CURVE ( 'NONE', #732, #602, #452, .T. ) ;
#239 = VECTOR ( 'NONE', #243, 1000.000000000000000 ) ;
#240 = CARTESIAN_POINT ( 'NONE',  ( -60.00000000000000000, -17.00000000000000000, 0.000000000000000000 ) ) ;
#241 = VECTOR ( 'NONE', #431, 1000.000000000000000 ) ;
#242 = CIRCLE ( 'NONE', #812, 3.325000000000001510 ) ;
#243 = DIRECTION ( 'NONE',  ( 0.000000000000000000, 0.000000000000000000, -1.000000000000000000 ) ) ;
#244 = ORIENTED_EDGE ( 'NONE', *, *, #377, .T. ) ;
#245 = PLANE ( 'NONE',  #593 ) ;
#246 = DIRECTION ( 'NONE',  ( 0.000000000000000000, 1.000000000000000000, 0.000000000000000000 ) ) ;
#247 = ORIENTED_EDGE ( 'NONE', *, *, #729, .F. ) ;
#248 = DIRECTION ( 'NONE',  ( -0.000000000000000000, -0.000000000000000000, 1.000000000000000000 ) ) ;
#249 = ADVANCED_FACE ( 'NONE', ( #651 ), #784, .F. ) ;
#250 = CARTESIAN_POINT ( 'NONE',  ( 56.00000000000000000, -11.00000000000000000, 0.000000000000000000 ) ) ;
#251 = EDGE_LOOP ( 'NONE', ( #200, #153, #607, #446 ) ) ;
#252 = DIRECTION ( 'NONE',  ( -1.000000000000000000, 0.000000000000000000, 0.000000000000000000 ) ) ;
#253 = DIRECTION ( 'NONE',  ( 1.000000000000000000, 0.000000000000000000, 0.000000000000000000 ) ) ;
#254 = CIRCLE ( 'NONE', #400, 3.175000000000000711 ) ;
#255 = CC_DESIGN_DATE_AND_TIME_ASSIGNMENT ( #155, #276, ( #216 ) ) ;
#256 = AXIS2_PLACEMENT_3D ( 'NONE', #106, #38, #409 ) ;
#257 = ORIENTED_EDGE ( 'NONE', *, *, #145, .T. ) ;
#258 = CARTESIAN_POINT ( 'NONE',  ( -60.00000000000000000, 17.00000000000000000, 8.000000000000000000 ) ) ;
#259 = FACE_BOUND ( 'NONE', #28, .T. ) ;
#260 = ORIENTED_EDGE ( 'NONE', *, *, #264, .T. ) ;
#261 = FACE_BOUND ( 'NONE', #551, .T. ) ;
#262 = FACE_BOUND ( 'NONE', #585, .T. ) ;
#263 = VERTEX_POINT ( 'NONE', #76 ) ;
#264 = EDGE_CURVE ( 'NONE', #640, #505, #647, .T. ) ;
#265 = DIRECTION ( 'NONE',  ( -0.000000000000000000, -0.000000000000000000, 1.000000000000000000 ) ) ;
#266 = DIRECTION ( 'NONE',  ( 1.000000000000000000, 0.000000000000000000, 0.000000000000000000 ) ) ;
#267 = AXIS2_PLACEMENT_3D ( 'NONE', #93, #345, #422 ) ;
#268 = ORIENTED_EDGE ( 'NONE', *, *, #539, .F. ) ;
#269 = AXIS2_PLACEMENT_3D ( 'NONE', #325, #580, #266 ) ;
#270 = LINE ( 'NONE', #650, #444 ) ;
#271 = DIRECTION ( 'NONE',  ( 0.000000000000000000, 1.000000000000000000, 0.000000000000000000 ) ) ;
#272 = EDGE_LOOP ( 'NONE', ( #748, #775 ) ) ;
#273 = CARTESIAN_POINT ( 'NONE',  ( 33.85000000000000142, 0.000000000000000000, 0.000000000000000000 ) ) ;
#274 = CARTESIAN_POINT ( 'NONE',  ( 30.00000000000000000, -11.00000000000000000, 8.000000000000000000 ) ) ;
#275 = EDGE_LOOP ( 'NONE', ( #477, #112 ) ) ;
#276 = DATE_TIME_ROLE ( 'classification_date' ) ;
#277 = DIRECTION ( 'NONE',  ( -0.000000000000000000, -1.000000000000000000, -0.000000000000000000 ) ) ;
#278 = EDGE_CURVE ( 'NONE', #744, #602, #592, .T. ) ;
#279 = VERTEX_POINT ( 'NONE', #31 ) ;
#280 = LOCAL_TIME ( 21, 58, 55.00000000000000000, #160 ) ;
#281 = DATE_AND_TIME ( #88, #700 ) ;
#282 = DIRECTION ( 'NONE',  ( 0.000000000000000000, 0.000000000000000000, -1.000000000000000000 ) ) ;
#283 = EDGE_LOOP ( 'NONE', ( #235, #490, #231, #570 ) ) ;
#284 = EDGE_CURVE ( 'NONE', #520, #300, #173, .T. ) ;
#285 = DIRECTION ( 'NONE',  ( -0.000000000000000000, -0.000000000000000000, 1.000000000000000000 ) ) ;
#286 = CARTESIAN_POINT ( 'NONE',  ( 3.225000000000000089, -11.00000000000000000, 0.000000000000000000 ) ) ;
#287 = ORIENTED_EDGE ( 'NONE', *, *, #370, .F. ) ;
#288 = EDGE_CURVE ( 'NONE', #55, #407, #186, .T. ) ;
#289 = APPROVAL_STATUS ( 'not_yet_approved' ) ;
#290 = CARTESIAN_POINT ( 'NONE',  ( -26.05000000000000071, 0.000000000000000000, 8.000000000000000000 ) ) ;
#291 = DIRECTION ( 'NONE',  ( 0.000000000000000000, 0.000000000000000000, -1.000000000000000000 ) ) ;
#292 = AXIS2_PLACEMENT_3D ( 'NONE', #406, #152, #332 ) ;
#293 = CALENDAR_DATE ( 2026, 12, 9 ) ;
#294 = VECTOR ( 'NONE', #437, 1000.000000000000000 ) ;
#295 = CARTESIAN_POINT ( 'NONE',  ( -55.99999999999999289, 0.000000000000000000, 0.000000000000000000 ) ) ;
#296 = VECTOR ( 'NONE', #783, 1000.000000000000000 ) ;
#297 = FACE_OUTER_BOUND ( 'NONE', #694, .T. ) ;
#298 = DATE_AND_TIME ( #56, #687 ) ;
#299 = CARTESIAN_POINT ( 'NONE',  ( 60.00000000000000000, 17.00000000000000000, 8.000000000000000000 ) ) ;
#300 = VERTEX_POINT ( 'NONE', #469 ) ;
#301 = EDGE_CURVE ( 'NONE', #407, #427, #207, .T. ) ;
#302 = EDGE_LOOP ( 'NONE', ( #484, #718 ) ) ;
#303 = DIRECTION ( 'NONE',  ( 1.000000000000000000, 0.000000000000000000, 0.000000000000000000 ) ) ;
#304 = DIRECTION ( 'NONE',  ( -0.000000000000000000, -0.000000000000000000, 1.000000000000000000 ) ) ;
#305 = VERTEX_POINT ( 'NONE', #664 ) ;
#306 = DIRECTION ( 'NONE',  ( 0.000000000000000000, 0.000000000000000000, 1.000000000000000000 ) ) ;
#307 = CIRCLE ( 'NONE', #321, 11.05000000000000071 ) ;
#308 = DIRECTION ( 'NONE',  ( -1.000000000000000000, 0.000000000000000000, 0.000000000000000000 ) ) ;
#309 = VERTEX_POINT ( 'NONE', #778 ) ;
#310 = ADVANCED_BREP_SHAPE_REPRESENTATION ( 'FIT-001_Dowel_and_bearing_trial', ( #780, #374 ), #349 ) ;
#311 = ADVANCED_FACE ( 'NONE', ( #204 ), #465, .F. ) ;
#312 = CYLINDRICAL_SURFACE ( 'NONE', #373, 11.15000000000000036 ) ;
#313 = DIRECTION ( 'NONE',  ( -1.000000000000000000, 0.000000000000000000, 0.000000000000000000 ) ) ;
#314 = EDGE_LOOP ( 'NONE', ( #426, #516, #257, #61 ) ) ;
#315 = ADVANCED_FACE ( 'NONE', ( #73 ), #19, .F. ) ;
#316 = CARTESIAN_POINT ( 'NONE',  ( -15.00000000000000000, 0.000000000000000000, 8.000000000000000000 ) ) ;
#317 = DIRECTION ( 'NONE',  ( -1.000000000000000000, 0.000000000000000000, 0.000000000000000000 ) ) ;
#318 = ORIENTED_EDGE ( 'NONE', *, *, #62, .T. ) ;
#319 = FACE_OUTER_BOUND ( 'NONE', #283, .T. ) ;
#320 = CARTESIAN_POINT ( 'NONE',  ( 45.00000000000000000, 0.000000000000000000, 0.000000000000000000 ) ) ;
#321 = AXIS2_PLACEMENT_3D ( 'NONE', #42, #555, #217 ) ;
#322 = AXIS2_PLACEMENT_3D ( 'NONE', #198, #723, #717 ) ;
#323 = ORIENTED_EDGE ( 'NONE', *, *, #120, .T. ) ;
#324 = DIRECTION ( 'NONE',  ( 0.000000000000000000, 0.000000000000000000, 1.000000000000000000 ) ) ;
#325 = CARTESIAN_POINT ( 'NONE',  ( 45.00000000000000000, 0.000000000000000000, 8.000000000000000000 ) ) ;
#326 = EDGE_CURVE ( 'NONE', #129, #188, #768, .T. ) ;
#327 = ORIENTED_EDGE ( 'NONE', *, *, #424, .F. ) ;
#328 = CARTESIAN_POINT ( 'NONE',  ( -3.225000000000000089, -11.00000000000000000, 8.000000000000000000 ) ) ;
#329 = FACE_OUTER_BOUND ( 'NONE', #721, .T. ) ;
#330 = ORIENTED_EDGE ( 'NONE', *, *, #108, .T. ) ;
#331 = LINE ( 'NONE', #258, #486 ) ;
#332 = DIRECTION ( 'NONE',  ( -1.000000000000000000, 0.000000000000000000, 0.000000000000000000 ) ) ;
#333 = AXIS2_PLACEMENT_3D ( 'NONE', #181, #755, #191 ) ;
#334 = ORIENTED_EDGE ( 'NONE', *, *, #493, .T. ) ;
#335 = CIRCLE ( 'NONE', #810, 10.99999999999999645 ) ;
#336 = ORGANIZATION ( 'UNSPECIFIED', 'UNSPECIFIED', '' ) ;
#337 = CARTESIAN_POINT ( 'NONE',  ( -30.00000000000000000, -11.00000000000000000, 8.000000000000000000 ) ) ;
#338 = FACE_BOUND ( 'NONE', #798, .T. ) ;
#339 = ORIENTED_EDGE ( 'NONE', *, *, #51, .T. ) ;
#340 = APPROVAL_DATE_TIME ( #350, #589 ) ;
#341 = ADVANCED_FACE ( 'NONE', ( #262, #461, #15, #655, #79, #259, #399, #338, #456 ), #140, .F. ) ;
#342 = DIRECTION ( 'NONE',  ( 0.000000000000000000, 0.000000000000000000, -1.000000000000000000 ) ) ;
#343 = ORIENTED_EDGE ( 'NONE', *, *, #740, .F. ) ;
#344 = CYLINDRICAL_SURFACE ( 'NONE', #672, 11.05000000000000071 ) ;
#345 = DIRECTION ( 'NONE',  ( -0.000000000000000000, -0.000000000000000000, 1.000000000000000000 ) ) ;
#346 = ADVANCED_FACE ( 'NONE', ( #391 ), #99, .F. ) ;
#347 = ORIENTED_EDGE ( 'NONE', *, *, #466, .F. ) ;
#348 = CIRCLE ( 'NONE', #256, 10.99999999999999645 ) ;
#349 =( GEOMETRIC_REPRESENTATION_CONTEXT ( 3 ) GLOBAL_UNCERTAINTY_ASSIGNED_CONTEXT ( ( #753 ) ) GLOBAL_UNIT_ASSIGNED_CONTEXT ( ( #405, #33, #663 ) ) REPRESENTATION_CONTEXT ( 'NONE', 'WORKASPACE' ) );
#350 = DATE_AND_TIME ( #543, #498 ) ;
#351 = DIRECTION ( 'NONE',  ( 0.000000000000000000, 0.000000000000000000, -1.000000000000000000 ) ) ;
#352 = DIRECTION ( 'NONE',  ( 0.000000000000000000, 0.000000000000000000, 1.000000000000000000 ) ) ;
#353 = CC_DESIGN_PERSON_AND_ORGANIZATION_ASSIGNMENT ( #745, #807, ( #392 ) ) ;
#354 = APPLICATION_PROTOCOL_DEFINITION ( 'international standard', 'config_control_design', 1994, #80 ) ;
#355 = CARTESIAN_POINT ( 'NONE',  ( 30.00000000000000000, -11.00000000000000000, 8.000000000000000000 ) ) ;
#356 = DIRECTION ( 'NONE',  ( -1.000000000000000000, 0.000000000000000000, 0.000000000000000000 ) ) ;
#357 = ORIENTED_EDGE ( 'NONE', *, *, #618, .T. ) ;
#358 = DIRECTION ( 'NONE',  ( 1.000000000000000000, 0.000000000000000000, 0.000000000000000000 ) ) ;
#359 = DIRECTION ( 'NONE',  ( 0.000000000000000000, 0.000000000000000000, -1.000000000000000000 ) ) ;
#360 = AXIS2_PLACEMENT_3D ( 'NONE', #762, #690, #635 ) ;
#361 = CIRCLE ( 'NONE', #12, 3.225000000000000089 ) ;
#362 = DIRECTION ( 'NONE',  ( 0.000000000000000000, -0.000000000000000000, -1.000000000000000000 ) ) ;
#363 = ORIENTED_EDGE ( 'NONE', *, *, #677, .T. ) ;
#364 = CARTESIAN_POINT ( 'NONE',  ( -15.00000000000000000, 0.000000000000000000, 0.000000000000000000 ) ) ;
#365 = ADVANCED_FACE ( 'NONE', ( #731 ), #344, .F. ) ;
#366 = CARTESIAN_POINT ( 'NONE',  ( 0.000000000000000000, -11.00000000000000000, 8.000000000000000000 ) ) ;
#367 = EDGE_LOOP ( 'NONE', ( #560, #682 ) ) ;
#368 = DIRECTION ( 'NONE',  ( -0.000000000000000000, -0.000000000000000000, 1.000000000000000000 ) ) ;
#369 = CARTESIAN_POINT ( 'NONE',  ( 56.14999999999999858, 1.365481181049298835E-15, 0.000000000000000000 ) ) ;
#370 = EDGE_CURVE ( 'NONE', #40, #6, #794, .T. ) ;
#371 = ORIENTED_EDGE ( 'NONE', *, *, #326, .T. ) ;
#372 = FACE_OUTER_BOUND ( 'NONE', #49, .T. ) ;
#373 = AXIS2_PLACEMENT_3D ( 'NONE', #174, #695, #503 ) ;
#374 = AXIS2_PLACEMENT_3D ( 'NONE', #603, #420, #474 ) ;
#375 = DIRECTION ( 'NONE',  ( -1.000000000000000000, -0.000000000000000000, -0.000000000000000000 ) ) ;
#376 = ORIENTED_EDGE ( 'NONE', *, *, #141, .F. ) ;
#377 = EDGE_CURVE ( 'NONE', #279, #576, #307, .T. ) ;
#378 = DIRECTION ( 'NONE',  ( -1.000000000000000000, 0.000000000000000000, 0.000000000000000000 ) ) ;
#379 = CARTESIAN_POINT ( 'NONE',  ( 60.00000000000000000, -17.00000000000000000, 8.000000000000000000 ) ) ;
#380 = VERTEX_POINT ( 'NONE', #166 ) ;
#381 = DIRECTION ( 'NONE',  ( -1.000000000000000000, 0.000000000000000000, 0.000000000000000000 ) ) ;
#382 = CARTESIAN_POINT ( 'NONE',  ( 15.00000000000000000, 0.000000000000000000, 0.000000000000000000 ) ) ;
#383 = ORIENTED_EDGE ( 'NONE', *, *, #521, .T. ) ;
#384 = LINE ( 'NONE', #398, #296 ) ;
#385 = AXIS2_PLACEMENT_3D ( 'NONE', #382, #128, #308 ) ;
#386 = ADVANCED_FACE ( 'NONE', ( #548 ), #232, .F. ) ;
#387 = DIRECTION ( 'NONE',  ( 0.000000000000000000, 0.000000000000000000, -1.000000000000000000 ) ) ;
#388 = VECTOR ( 'NONE', #22, 1000.000000000000000 ) ;
#389 = ORIENTED_EDGE ( 'NONE', *, *, #16, .F. ) ;
#390 = DIRECTION ( 'NONE',  ( 0.000000000000000000, 0.000000000000000000, -1.000000000000000000 ) ) ;
#391 = FACE_OUTER_BOUND ( 'NONE', #817, .T. ) ;
#392 = PRODUCT ( 'FIT-001_Dowel_and_bearing_trial', 'FIT-001_Dowel_and_bearing_trial', '', ( #800 ) ) ;
#393 = ORIENTED_EDGE ( 'NONE', *, *, #716, .F. ) ;
#394 = CARTESIAN_POINT ( 'NONE',  ( 30.00000000000000000, -11.00000000000000000, 0.000000000000000000 ) ) ;
#395 = DIRECTION ( 'NONE',  ( 0.000000000000000000, 0.000000000000000000, 1.000000000000000000 ) ) ;
#396 = ORIENTED_EDGE ( 'NONE', *, *, #230, .T. ) ;
#397 = EDGE_CURVE ( 'NONE', #55, #263, #170, .T. ) ;
#398 = CARTESIAN_POINT ( 'NONE',  ( 60.00000000000000000, -17.00000000000000000, 8.000000000000000000 ) ) ;
#399 = FACE_BOUND ( 'NONE', #275, .T. ) ;
#400 = AXIS2_PLACEMENT_3D ( 'NONE', #225, #352, #43 ) ;
#401 = ORIENTED_EDGE ( 'NONE', *, *, #145, .F. ) ;
#402 = CIRCLE ( 'NONE', #578, 11.15000000000000036 ) ;
#403 = CC_DESIGN_SECURITY_CLASSIFICATION ( #216, ( #797 ) ) ;
#404 = CC_DESIGN_PERSON_AND_ORGANIZATION_ASSIGNMENT ( #46, #222, ( #216 ) ) ;
#405 =( LENGTH_UNIT ( ) NAMED_UNIT ( * ) SI_UNIT ( .MILLI., .METRE. ) );
#406 = CARTESIAN_POINT ( 'NONE',  ( 45.00000000000000000, 0.000000000000000000, 0.000000000000000000 ) ) ;
#407 = VERTEX_POINT ( 'NONE', #229 ) ;
#408 = CARTESIAN_POINT ( 'NONE',  ( -60.00000000000000000, -17.00000000000000000, 8.000000000000000000 ) ) ;
#409 = DIRECTION ( 'NONE',  ( 1.000000000000000000, 0.000000000000000000, 0.000000000000000000 ) ) ;
#410 = VERTEX_POINT ( 'NONE', #544 ) ;
#411 = PERSON_AND_ORGANIZATION ( #475, #336 ) ;
#412 = DIRECTION ( 'NONE',  ( -1.000000000000000000, 0.000000000000000000, 0.000000000000000000 ) ) ;
#413 = EDGE_CURVE ( 'NONE', #538, #463, #604, .T. ) ;
#414 = ORIENTED_EDGE ( 'NONE', *, *, #165, .T. ) ;
#415 = AXIS2_PLACEMENT_3D ( 'NONE', #364, #368, #574 ) ;
#416 = DIRECTION ( 'NONE',  ( 0.000000000000000000, 0.000000000000000000, -1.000000000000000000 ) ) ;
#417 = CARTESIAN_POINT ( 'NONE',  ( 45.00000000000000000, 0.000000000000000000, 8.000000000000000000 ) ) ;
#418 = ORIENTED_EDGE ( 'NONE', *, *, #133, .T. ) ;
#419 = ORIENTED_EDGE ( 'NONE', *, *, #556, .F. ) ;
#420 = DIRECTION ( 'NONE',  ( 0.000000000000000000, 0.000000000000000000, 1.000000000000000000 ) ) ;
#421 = DIRECTION ( 'NONE',  ( 0.000000000000000000, 0.000000000000000000, -1.000000000000000000 ) ) ;
#422 = DIRECTION ( 'NONE',  ( -1.000000000000000000, 0.000000000000000000, 0.000000000000000000 ) ) ;
#423 = ORIENTED_EDGE ( 'NONE', *, *, #397, .F. ) ;
#424 = EDGE_CURVE ( 'NONE', #188, #129, #402, .T. ) ;
#425 = DIRECTION ( 'NONE',  ( 0.000000000000000000, 0.000000000000000000, -1.000000000000000000 ) ) ;
#426 = ORIENTED_EDGE ( 'NONE', *, *, #466, .T. ) ;
#427 = VERTEX_POINT ( 'NONE', #295 ) ;
#428 = CIRCLE ( 'NONE', #110, 3.275000000000000355 ) ;
#429 = ADVANCED_FACE ( 'NONE', ( #735 ), #491, .F. ) ;
#430 = AXIS2_PLACEMENT_3D ( 'NONE', #408, #215, #416 ) ;
#431 = DIRECTION ( 'NONE',  ( 0.000000000000000000, 0.000000000000000000, -1.000000000000000000 ) ) ;
#432 = CARTESIAN_POINT ( 'NONE',  ( -33.17499999999999716, -11.00000000000000000, 0.000000000000000000 ) ) ;
#433 = CARTESIAN_POINT ( 'NONE',  ( 60.00000000000000000, 17.00000000000000000, 0.000000000000000000 ) ) ;
#434 = EDGE_CURVE ( 'NONE', #453, #576, #681, .T. ) ;
#435 = DIRECTION ( 'NONE',  ( 0.000000000000000000, 0.000000000000000000, -1.000000000000000000 ) ) ;
#436 = ORIENTED_EDGE ( 'NONE', *, *, #141, .T. ) ;
#437 = DIRECTION ( 'NONE',  ( -1.000000000000000000, -0.000000000000000000, -0.000000000000000000 ) ) ;
#438 = CARTESIAN_POINT ( 'NONE',  ( 30.00000000000000000, -11.00000000000000000, 8.000000000000000000 ) ) ;
#439 = CC_DESIGN_PERSON_AND_ORGANIZATION_ASSIGNMENT ( #481, #737, ( #203 ) ) ;
#440 = ORIENTED_EDGE ( 'NONE', *, *, #627, .T. ) ;
#441 = AXIS2_PLACEMENT_3D ( 'NONE', #250, #507, #313 ) ;
#442 = DIRECTION ( 'NONE',  ( 0.000000000000000000, -1.000000000000000000, 0.000000000000000000 ) ) ;
#443 = CIRCLE ( 'NONE', #472, 3.174999999999997158 ) ;
#444 = VECTOR ( 'NONE', #531, 1000.000000000000000 ) ;
#445 = CARTESIAN_POINT ( 'NONE',  ( 56.14999999999999858, 1.365481181049298835E-15, 8.000000000000000000 ) ) ;
#446 = ORIENTED_EDGE ( 'NONE', *, *, #104, .F. ) ;
#447 = FACE_OUTER_BOUND ( 'NONE', #698, .T. ) ;
#448 = LINE ( 'NONE', #70, #725 ) ;
#449 = VERTEX_POINT ( 'NONE', #805 ) ;
#450 = EDGE_CURVE ( 'NONE', #407, #55, #348, .T. ) ;
#451 = DIRECTION ( 'NONE',  ( 0.000000000000000000, 0.000000000000000000, 1.000000000000000000 ) ) ;
#452 = LINE ( 'NONE', #720, #712 ) ;
#453 = VERTEX_POINT ( 'NONE', #290 ) ;
#454 = DIRECTION ( 'NONE',  ( 0.000000000000000000, 0.000000000000000000, -1.000000000000000000 ) ) ;
#455 = AXIS2_PLACEMENT_3D ( 'NONE', #148, #387, #726 ) ;
#456 = FACE_OUTER_BOUND ( 'NONE', #314, .T. ) ;
#457 = VECTOR ( 'NONE', #342, 1000.000000000000000 ) ;
#458 = AXIS2_PLACEMENT_3D ( 'NONE', #337, #454, #514 ) ;
#459 = EDGE_LOOP ( 'NONE', ( #440, #244 ) ) ;
#460 = CARTESIAN_POINT ( 'NONE',  ( -33.17499999999999716, -11.00000000000000000, 8.000000000000000000 ) ) ;
#461 = FACE_BOUND ( 'NONE', #302, .T. ) ;
#462 = ADVANCED_FACE ( 'NONE', ( #476 ), #746, .F. ) ;
#463 = VERTEX_POINT ( 'NONE', #224 ) ;
#464 = CARTESIAN_POINT ( 'NONE',  ( 15.00000000000000000, 0.000000000000000000, 0.000000000000000000 ) ) ;
#465 = CYLINDRICAL_SURFACE ( 'NONE', #322, 3.325000000000001510 ) ;
#466 = EDGE_CURVE ( 'NONE', #74, #744, #34, .T. ) ;
#467 = EDGE_LOOP ( 'NONE', ( #483, #159, #788, #772 ) ) ;
#468 = COORDINATED_UNIVERSAL_TIME_OFFSET ( 6, 0, .BEHIND. ) ;
#469 = CARTESIAN_POINT ( 'NONE',  ( 3.225000000000000089, -11.00000000000000000, 8.000000000000000000 ) ) ;
#470 = CIRCLE ( 'NONE', #441, 3.325000000000001510 ) ;
#471 = ORIENTED_EDGE ( 'NONE', *, *, #534, .T. ) ;
#472 = AXIS2_PLACEMENT_3D ( 'NONE', #668, #285, #675 ) ;
#473 = VECTOR ( 'NONE', #719, 1000.000000000000000 ) ;
#474 = DIRECTION ( 'NONE',  ( 1.000000000000000000, 0.000000000000000000, 0.000000000000000000 ) ) ;
#475 = PERSON ( 'UNSPECIFIED', 'UNSPECIFIED', 'UNSPECIFIED', ('UNSPECIFIED'), ('UNSPECIFIED'), ('UNSPECIFIED') ) ;
#476 = FACE_OUTER_BOUND ( 'NONE', #196, .T. ) ;
#477 = ORIENTED_EDGE ( 'NONE', *, *, #502, .F. ) ;
#478 = EDGE_CURVE ( 'NONE', #103, #380, #443, .T. ) ;
#479 = DIRECTION ( 'NONE',  ( 0.000000000000000000, 1.000000000000000000, 0.000000000000000000 ) ) ;
#480 = EDGE_LOOP ( 'NONE', ( #598, #268 ) ) ;
#481 = PERSON_AND_ORGANIZATION ( #475, #336 ) ;
#482 = DIRECTION ( 'NONE',  ( 0.000000000000000000, 0.000000000000000000, -1.000000000000000000 ) ) ;
#483 = ORIENTED_EDGE ( 'NONE', *, *, #193, .T. ) ;
#484 = ORIENTED_EDGE ( 'NONE', *, *, #284, .F. ) ;
#485 = AXIS2_PLACEMENT_3D ( 'NONE', #7, #252, #509 ) ;
#486 = VECTOR ( 'NONE', #14, 1000.000000000000000 ) ;
#487 = PERSON_AND_ORGANIZATION_ROLE ( 'creator' ) ;
#488 = DIRECTION ( 'NONE',  ( 0.000000000000000000, -0.000000000000000000, 1.000000000000000000 ) ) ;
#489 = ORIENTED_EDGE ( 'NONE', *, *, #301, .T. ) ;
#490 = ORIENTED_EDGE ( 'NONE', *, *, #648, .T. ) ;
#491 = PLANE ( 'NONE',  #686 ) ;
#492 = LINE ( 'NONE', #107, #124 ) ;
#493 = EDGE_CURVE ( 'NONE', #40, #449, #510, .T. ) ;
#494 = EDGE_LOOP ( 'NONE', ( #676, #806 ) ) ;
#495 = FACE_OUTER_BOUND ( 'NONE', #142, .T. ) ;
#496 = CARTESIAN_POINT ( 'NONE',  ( 3.900000000000000799, 0.000000000000000000, 8.000000000000000000 ) ) ;
#497 = CIRCLE ( 'NONE', #699, 11.05000000000000071 ) ;
#498 = LOCAL_TIME ( 21, 58, 55.00000000000000000, #44 ) ;
#499 = CARTESIAN_POINT ( 'NONE',  ( -3.225000000000000089, -11.00000000000000000, 0.000000000000000000 ) ) ;
#500 = CARTESIAN_POINT ( 'NONE',  ( 33.85000000000000142, 0.000000000000000000, 8.000000000000000000 ) ) ;
#501 = ORIENTED_EDGE ( 'NONE', *, *, #230, .F. ) ;
#502 = EDGE_CURVE ( 'NONE', #149, #749, #727, .T. ) ;
#503 = DIRECTION ( 'NONE',  ( -1.000000000000000000, 0.000000000000000000, 0.000000000000000000 ) ) ;
#504 = CARTESIAN_POINT ( 'NONE',  ( 60.00000000000000000, 17.00000000000000000, 8.000000000000000000 ) ) ;
#505 = VERTEX_POINT ( 'NONE', #433 ) ;
#506 = CARTESIAN_POINT ( 'NONE',  ( 26.72499999999999787, -11.00000000000000000, 0.000000000000000000 ) ) ;
#507 = DIRECTION ( 'NONE',  ( -0.000000000000000000, -0.000000000000000000, 1.000000000000000000 ) ) ;
#508 = VERTEX_POINT ( 'NONE', #499 ) ;
#509 = DIRECTION ( 'NONE',  ( 0.000000000000000000, 0.000000000000000000, 1.000000000000000000 ) ) ;
#510 = CIRCLE ( 'NONE', #150, 3.275000000000000355 ) ;
#511 = FACE_OUTER_BOUND ( 'NONE', #10, .T. ) ;
#512 = DESIGN_CONTEXT ( 'detailed design', #80, 'design' ) ;
#513 = ORIENTED_EDGE ( 'NONE', *, *, #176, .F. ) ;
#514 = DIRECTION ( 'NONE',  ( -1.000000000000000000, 0.000000000000000000, 0.000000000000000000 ) ) ;
#515 = CARTESIAN_POINT ( 'NONE',  ( 0.000000000000000000, 0.000000000000000000, 8.000000000000000000 ) ) ;
#516 = ORIENTED_EDGE ( 'NONE', *, *, #791, .T. ) ;
#517 = ADVANCED_FACE ( 'NONE', ( #495 ), #245, .F. ) ;
#518 = CARTESIAN_POINT ( 'NONE',  ( 0.000000000000000000, 0.000000000000000000, 0.000000000000000000 ) ) ;
#519 = DIRECTION ( 'NONE',  ( -0.000000000000000000, -0.000000000000000000, -1.000000000000000000 ) ) ;
#520 = VERTEX_POINT ( 'NONE', #563 ) ;
#521 = EDGE_CURVE ( 'NONE', #410, #463, #826, .T. ) ;
#522 = FACE_BOUND ( 'NONE', #23, .T. ) ;
#523 = CIRCLE ( 'NONE', #781, 11.09999999999999787 ) ;
#524 = CARTESIAN_POINT ( 'NONE',  ( -45.00000000000000000, 0.000000000000000000, 8.000000000000000000 ) ) ;
#525 = VECTOR ( 'NONE', #351, 1000.000000000000000 ) ;
#526 = ORIENTED_EDGE ( 'NONE', *, *, #776, .T. ) ;
#527 = CARTESIAN_POINT ( 'NONE',  ( -60.00000000000000000, -17.00000000000000000, 8.000000000000000000 ) ) ;
#528 = APPROVAL ( #289, 'UNSPECIFIED' ) ;
#529 = CARTESIAN_POINT ( 'NONE',  ( -60.00000000000000000, -17.00000000000000000, 8.000000000000000000 ) ) ;
#530 = VERTEX_POINT ( 'NONE', #623 ) ;
#531 = DIRECTION ( 'NONE',  ( 0.000000000000000000, 0.000000000000000000, -1.000000000000000000 ) ) ;
#532 = DIRECTION ( 'NONE',  ( 0.000000000000000000, 0.000000000000000000, -1.000000000000000000 ) ) ;
#533 = VERTEX_POINT ( 'NONE', #506 ) ;
#534 = EDGE_CURVE ( 'NONE', #508, #35, #361, .T. ) ;
#535 = APPROVAL_ROLE ( '' ) ;
#536 = DIRECTION ( 'NONE',  ( 1.000000000000000000, 0.000000000000000000, 0.000000000000000000 ) ) ;
#537 = CIRCLE ( 'NONE', #292, 11.15000000000000036 ) ;
#538 = VERTEX_POINT ( 'NONE', #770 ) ;
#539 = EDGE_CURVE ( 'NONE', #305, #538, #161, .T. ) ;
#540 = PERSON_AND_ORGANIZATION ( #475, #336 ) ;
#541 = CARTESIAN_POINT ( 'NONE',  ( 30.00000000000000000, -11.00000000000000000, 8.000000000000000000 ) ) ;
#542 = ORIENTED_EDGE ( 'NONE', *, *, #434, .T. ) ;
#543 = CALENDAR_DATE ( 2026, 12, 9 ) ;
#544 = CARTESIAN_POINT ( 'NONE',  ( 59.32500000000000284, -11.00000000000000000, 0.000000000000000000 ) ) ;
#545 = CARTESIAN_POINT ( 'NONE',  ( 30.00000000000000000, -11.00000000000000000, 0.000000000000000000 ) ) ;
#546 = ORIENTED_EDGE ( 'NONE', *, *, #521, .F. ) ;
#547 = CALENDAR_DATE ( 2026, 12, 9 ) ;
#548 = FACE_OUTER_BOUND ( 'NONE', #100, .T. ) ;
#549 = EDGE_LOOP ( 'NONE', ( #752, #785 ) ) ;
#550 = CIRCLE ( 'NONE', #185, 10.99999999999999645 ) ;
#551 = EDGE_LOOP ( 'NONE', ( #418, #703 ) ) ;
#552 = VECTOR ( 'NONE', #162, 1000.000000000000000 ) ;
#553 = AXIS2_PLACEMENT_3D ( 'NONE', #75, #324, #586 ) ;
#554 = PERSON_AND_ORGANIZATION ( #475, #336 ) ;
#555 = DIRECTION ( 'NONE',  ( -0.000000000000000000, -0.000000000000000000, 1.000000000000000000 ) ) ;
#556 = EDGE_CURVE ( 'NONE', #158, #505, #50, .T. ) ;
#557 = ORIENTED_EDGE ( 'NONE', *, *, #648, .F. ) ;
#558 = ORIENTED_EDGE ( 'NONE', *, *, #502, .T. ) ;
#559 = DIRECTION ( 'NONE',  ( -0.000000000000000000, -0.000000000000000000, -1.000000000000000000 ) ) ;
#560 = ORIENTED_EDGE ( 'NONE', *, *, #154, .F. ) ;
#561 = VERTEX_POINT ( 'NONE', #761 ) ;
#562 = SHAPE_DEFINITION_REPRESENTATION ( #94, #310 ) ;
#563 = CARTESIAN_POINT ( 'NONE',  ( -3.225000000000000089, -11.00000000000000000, 8.000000000000000000 ) ) ;
#564 = LINE ( 'NONE', #445, #239 ) ;
#565 = ORIENTED_EDGE ( 'NONE', *, *, #413, .F. ) ;
#566 = VECTOR ( 'NONE', #271, 1000.000000000000000 ) ;
#567 = ADVANCED_FACE ( 'NONE', ( #372 ), #819, .F. ) ;
#568 = CARTESIAN_POINT ( 'NONE',  ( 56.00000000000000000, -11.00000000000000000, 0.000000000000000000 ) ) ;
#569 = CYLINDRICAL_SURFACE ( 'NONE', #809, 3.225000000000000089 ) ;
#570 = ORIENTED_EDGE ( 'NONE', *, *, #677, .F. ) ;
#571 = CARTESIAN_POINT ( 'NONE',  ( 15.00000000000000000, 0.000000000000000000, 8.000000000000000000 ) ) ;
#572 = CARTESIAN_POINT ( 'NONE',  ( -60.00000000000000000, 17.00000000000000000, 8.000000000000000000 ) ) ;
#573 = ORIENTED_EDGE ( 'NONE', *, *, #51, .F. ) ;
#574 = DIRECTION ( 'NONE',  ( -1.000000000000000000, 0.000000000000000000, 0.000000000000000000 ) ) ;
#575 = DIRECTION ( 'NONE',  ( 0.000000000000000000, 0.000000000000000000, -1.000000000000000000 ) ) ;
#576 = VERTEX_POINT ( 'NONE', #823 ) ;
#577 = FACE_BOUND ( 'NONE', #494, .T. ) ;
#578 = AXIS2_PLACEMENT_3D ( 'NONE', #417, #102, #536 ) ;
#579 = VECTOR ( 'NONE', #390, 1000.000000000000000 ) ;
#580 = DIRECTION ( 'NONE',  ( 0.000000000000000000, 0.000000000000000000, 1.000000000000000000 ) ) ;
#581 = EDGE_CURVE ( 'NONE', #749, #669, #829, .T. ) ;
#582 = ORIENTED_EDGE ( 'NONE', *, *, #581, .F. ) ;
#583 = DIRECTION ( 'NONE',  ( 1.000000000000000000, 0.000000000000000000, 0.000000000000000000 ) ) ;
#584 = CARTESIAN_POINT ( 'NONE',  ( -55.99999999999999289, 0.000000000000000000, 8.000000000000000000 ) ) ;
#585 = EDGE_LOOP ( 'NONE', ( #813, #389 ) ) ;
#586 = DIRECTION ( 'NONE',  ( 1.000000000000000000, 0.000000000000000000, 0.000000000000000000 ) ) ;
#587 = CYLINDRICAL_SURFACE ( 'NONE', #645, 11.15000000000000036 ) ;
#588 = ORIENTED_EDGE ( 'NONE', *, *, #688, .T. ) ;
#589 = APPROVAL ( #730, 'UNSPECIFIED' ) ;
#590 = CYLINDRICAL_SURFACE ( 'NONE', #458, 3.174999999999997158 ) ;
#591 = CIRCLE ( 'NONE', #11, 3.275000000000000355 ) ;
#592 = LINE ( 'NONE', #529, #199 ) ;
#593 = AXIS2_PLACEMENT_3D ( 'NONE', #53, #442, #362 ) ;
#594 = VECTOR ( 'NONE', #197, 1000.000000000000000 ) ;
#595 = ORIENTED_EDGE ( 'NONE', *, *, #556, .T. ) ;
#596 = LINE ( 'NONE', #18, #163 ) ;
#597 = DIRECTION ( 'NONE',  ( 1.000000000000000000, 0.000000000000000000, 0.000000000000000000 ) ) ;
#598 = ORIENTED_EDGE ( 'NONE', *, *, #697, .F. ) ;
#599 = SECURITY_CLASSIFICATION_LEVEL ( 'unclassified' ) ;
#600 = CARTESIAN_POINT ( 'NONE',  ( 52.67499999999999716, -11.00000000000000000, 8.000000000000000000 ) ) ;
#601 = ADVANCED_FACE ( 'NONE', ( #758 ), #312, .F. ) ;
#602 = VERTEX_POINT ( 'NONE', #240 ) ;
#603 = CARTESIAN_POINT ( 'NONE',  ( 0.000000000000000000, 0.000000000000000000, 0.000000000000000000 ) ) ;
#604 = LINE ( 'NONE', #600, #552 ) ;
#605 = CIRCLE ( 'NONE', #96, 11.15000000000000036 ) ;
#606 = AXIS2_PLACEMENT_3D ( 'NONE', #157, #421, #412 ) ;
#607 = ORIENTED_EDGE ( 'NONE', *, *, #716, .T. ) ;
#608 = APPROVAL_PERSON_ORGANIZATION ( #554, #631, #535 ) ;
#609 = ORIENTED_EDGE ( 'NONE', *, *, #534, .F. ) ;
#610 = PERSON_AND_ORGANIZATION ( #475, #336 ) ;
#611 = CARTESIAN_POINT ( 'NONE',  ( -60.00000000000000000, -17.00000000000000000, 8.000000000000000000 ) ) ;
#612 = EDGE_LOOP ( 'NONE', ( #208, #827, #95, #565 ) ) ;
#613 = EDGE_CURVE ( 'NONE', #453, #309, #497, .T. ) ;
#614 = APPROVAL_ROLE ( '' ) ;
#615 = CARTESIAN_POINT ( 'NONE',  ( -26.05000000000000071, 0.000000000000000000, 8.000000000000000000 ) ) ;
#616 = CARTESIAN_POINT ( 'NONE',  ( 33.27499999999999858, -11.00000000000000000, 8.000000000000000000 ) ) ;
#617 = ORIENTED_EDGE ( 'NONE', *, *, #16, .T. ) ;
#618 = EDGE_CURVE ( 'NONE', #505, #732, #625, .T. ) ;
#619 = DATE_AND_TIME ( #547, #151 ) ;
#620 = CARTESIAN_POINT ( 'NONE',  ( 15.00000000000000000, 0.000000000000000000, 8.000000000000000000 ) ) ;
#621 = CARTESIAN_POINT ( 'NONE',  ( -34.00000000000000000, 1.347111479062088010E-15, 8.000000000000000000 ) ) ;
#622 = AXIS2_PLACEMENT_3D ( 'NONE', #811, #220, #673 ) ;
#623 = CARTESIAN_POINT ( 'NONE',  ( -26.82499999999999929, -11.00000000000000000, 8.000000000000000000 ) ) ;
#624 = EDGE_LOOP ( 'NONE', ( #87, #156, #609, #393 ) ) ;
#625 = LINE ( 'NONE', #66, #294 ) ;
#626 = LINE ( 'NONE', #379, #739 ) ;
#627 = EDGE_CURVE ( 'NONE', #576, #279, #25, .T. ) ;
#628 = ORIENTED_EDGE ( 'NONE', *, *, #424, .T. ) ;
#629 = FACE_OUTER_BOUND ( 'NONE', #662, .T. ) ;
#630 = FACE_OUTER_BOUND ( 'NONE', #624, .T. ) ;
#631 = APPROVAL ( #814, 'UNSPECIFIED' ) ;
#632 = ORIENTED_EDGE ( 'NONE', *, *, #154, .T. ) ;
#633 = AXIS2_PLACEMENT_3D ( 'NONE', #515, #774, #195 ) ;
#634 = CARTESIAN_POINT ( 'NONE',  ( 26.09999999999999787, 1.359357947053561959E-15, 8.000000000000000000 ) ) ;
#635 = DIRECTION ( 'NONE',  ( -1.000000000000000000, 0.000000000000000000, 0.000000000000000000 ) ) ;
#636 = ORIENTED_EDGE ( 'NONE', *, *, #627, .F. ) ;
#637 = ADVANCED_FACE ( 'NONE', ( #629 ), #57, .F. ) ;
#638 = DIRECTION ( 'NONE',  ( 0.000000000000000000, 0.000000000000000000, -1.000000000000000000 ) ) ;
#639 = CYLINDRICAL_SURFACE ( 'NONE', #793, 3.225000000000000089 ) ;
#640 = VERTEX_POINT ( 'NONE', #183 ) ;
#641 = ADVANCED_FACE ( 'NONE', ( #447 ), #701, .F. ) ;
#642 = FACE_BOUND ( 'NONE', #52, .T. ) ;
#643 = CARTESIAN_POINT ( 'NONE',  ( 60.00000000000000000, -17.00000000000000000, 8.000000000000000000 ) ) ;
#644 = EDGE_LOOP ( 'NONE', ( #32, #414, #636, #728 ) ) ;
#645 = AXIS2_PLACEMENT_3D ( 'NONE', #135, #532, #144 ) ;
#646 = DIRECTION ( 'NONE',  ( 0.000000000000000000, 0.000000000000000000, -1.000000000000000000 ) ) ;
#647 = LINE ( 'NONE', #27, #566 ) ;
#648 = EDGE_CURVE ( 'NONE', #530, #380, #109, .T. ) ;
#649 = ORIENTED_EDGE ( 'NONE', *, *, #581, .T. ) ;
#650 = CARTESIAN_POINT ( 'NONE',  ( 59.32500000000000284, -11.00000000000000000, 8.000000000000000000 ) ) ;
#651 = FACE_OUTER_BOUND ( 'NONE', #767, .T. ) ;
#652 = EDGE_CURVE ( 'NONE', #427, #263, #335, .T. ) ;
#653 = EDGE_LOOP ( 'NONE', ( #323, #383 ) ) ;
#654 = DIRECTION ( 'NONE',  ( 0.000000000000000000, 0.000000000000000000, -1.000000000000000000 ) ) ;
#655 = FACE_BOUND ( 'NONE', #480, .T. ) ;
#656 = ORIENTED_EDGE ( 'NONE', *, *, #176, .T. ) ;
#657 = CARTESIAN_POINT ( 'NONE',  ( -45.00000000000000000, 0.000000000000000000, 0.000000000000000000 ) ) ;
#658 = VECTOR ( 'NONE', #119, 1000.000000000000000 ) ;
#659 = DIRECTION ( 'NONE',  ( 1.000000000000000000, 0.000000000000000000, 0.000000000000000000 ) ) ;
#660 = AXIS2_PLACEMENT_3D ( 'NONE', #114, #638, #190 ) ;
#661 = CC_DESIGN_APPROVAL ( #589, ( #203 ) ) ;
#662 = EDGE_LOOP ( 'NONE', ( #558, #649, #20, #71 ) ) ;
#663 =( NAMED_UNIT ( * ) SI_UNIT ( $, .STERADIAN. ) SOLID_ANGLE_UNIT ( ) );
#664 = CARTESIAN_POINT ( 'NONE',  ( 59.32500000000000284, -11.00000000000000000, 8.000000000000000000 ) ) ;
#665 = ORIENTED_EDGE ( 'NONE', *, *, #674, .T. ) ;
#666 = COORDINATED_UNIVERSAL_TIME_OFFSET ( 6, 0, .BEHIND. ) ;
#667 = ADVANCED_FACE ( 'NONE', ( #577, #642, #134, #714, #143, #29, #261, #522, #26 ), #202, .T. ) ;
#668 = CARTESIAN_POINT ( 'NONE',  ( -30.00000000000000000, -11.00000000000000000, 0.000000000000000000 ) ) ;
#669 = VERTEX_POINT ( 'NONE', #21 ) ;
#670 = COORDINATED_UNIVERSAL_TIME_OFFSET ( 6, 0, .BEHIND. ) ;
#671 = DIRECTION ( 'NONE',  ( -1.000000000000000000, 0.000000000000000000, 0.000000000000000000 ) ) ;
#672 = AXIS2_PLACEMENT_3D ( 'NONE', #47, #425, #815 ) ;
#673 = DIRECTION ( 'NONE',  ( 1.000000000000000000, 0.000000000000000000, 0.000000000000000000 ) ) ;
#674 = EDGE_CURVE ( 'NONE', #74, #732, #331, .T. ) ;
#675 = DIRECTION ( 'NONE',  ( -1.000000000000000000, 0.000000000000000000, 0.000000000000000000 ) ) ;
#676 = ORIENTED_EDGE ( 'NONE', *, *, #478, .T. ) ;
#677 = EDGE_CURVE ( 'NONE', #121, #103, #147, .T. ) ;
#678 = DATE_TIME_ROLE ( 'creation_date' ) ;
#679 = DIRECTION ( 'NONE',  ( 0.000000000000000000, 0.000000000000000000, 1.000000000000000000 ) ) ;
#680 = DIRECTION ( 'NONE',  ( -1.000000000000000000, 0.000000000000000000, 0.000000000000000000 ) ) ;
#681 = LINE ( 'NONE', #615, #457 ) ;
#682 = ORIENTED_EDGE ( 'NONE', *, *, #493, .F. ) ;
#683 = VECTOR ( 'NONE', #375, 1000.000000000000000 ) ;
#684 = CIRCLE ( 'NONE', #360, 3.225000000000000089 ) ;
#685 = ORIENTED_EDGE ( 'NONE', *, *, #397, .T. ) ;
#686 = AXIS2_PLACEMENT_3D ( 'NONE', #219, #479, #488 ) ;
#687 = LOCAL_TIME ( 21, 58, 55.00000000000000000, #468 ) ;
#688 = EDGE_CURVE ( 'NONE', #65, #640, #384, .T. ) ;
#689 = DIRECTION ( 'NONE',  ( 1.000000000000000000, 0.000000000000000000, 0.000000000000000000 ) ) ;
#690 = DIRECTION ( 'NONE',  ( -0.000000000000000000, -0.000000000000000000, 1.000000000000000000 ) ) ;
#691 = EDGE_LOOP ( 'NONE', ( #90, #656 ) ) ;
#692 = DIRECTION ( 'NONE',  ( -1.000000000000000000, 0.000000000000000000, 0.000000000000000000 ) ) ;
#693 = DIRECTION ( 'NONE',  ( -1.000000000000000000, 0.000000000000000000, 0.000000000000000000 ) ) ;
#694 = EDGE_LOOP ( 'NONE', ( #582, #318, #330, #169 ) ) ;
#695 = DIRECTION ( 'NONE',  ( 0.000000000000000000, 0.000000000000000000, -1.000000000000000000 ) ) ;
#696 = CARTESIAN_POINT ( 'NONE',  ( -3.949999999999998845, 1.353234713057825478E-15, 8.000000000000000000 ) ) ;
#697 = EDGE_CURVE ( 'NONE', #538, #305, #242, .T. ) ;
#698 = EDGE_LOOP ( 'NONE', ( #260, #419, #401, #588 ) ) ;
#699 = AXIS2_PLACEMENT_3D ( 'NONE', #316, #180, #127 ) ;
#700 = LOCAL_TIME ( 21, 58, 55.00000000000000000, #670 ) ;
#701 = PLANE ( 'NONE',  #485 ) ;
#702 = LINE ( 'NONE', #178, #658 ) ;
#703 = ORIENTED_EDGE ( 'NONE', *, *, #803, .T. ) ;
#704 = CC_DESIGN_PERSON_AND_ORGANIZATION_ASSIGNMENT ( #610, #105, ( #797 ) ) ;
#705 = DIRECTION ( 'NONE',  ( -1.000000000000000000, 0.000000000000000000, 0.000000000000000000 ) ) ;
#706 = CARTESIAN_POINT ( 'NONE',  ( 0.000000000000000000, -11.00000000000000000, 8.000000000000000000 ) ) ;
#707 = ORIENTED_EDGE ( 'NONE', *, *, #9, .F. ) ;
#708 = EDGE_CURVE ( 'NONE', #300, #35, #596, .T. ) ;
#709 = CARTESIAN_POINT ( 'NONE',  ( 26.72499999999999787, -11.00000000000000000, 8.000000000000000000 ) ) ;
#710 = DIRECTION ( 'NONE',  ( -0.000000000000000000, -1.000000000000000000, -0.000000000000000000 ) ) ;
#711 = ORIENTED_EDGE ( 'NONE', *, *, #326, .F. ) ;
#712 = VECTOR ( 'NONE', #710, 1000.000000000000000 ) ;
#713 = AXIS2_PLACEMENT_3D ( 'NONE', #571, #122, #4 ) ;
#714 = FACE_BOUND ( 'NONE', #653, .T. ) ;
#715 = CIRCLE ( 'NONE', #13, 3.275000000000000355 ) ;
#716 = EDGE_CURVE ( 'NONE', #520, #508, #72, .T. ) ;
#717 = DIRECTION ( 'NONE',  ( -1.000000000000000000, 0.000000000000000000, 0.000000000000000000 ) ) ;
#718 = ORIENTED_EDGE ( 'NONE', *, *, #168, .F. ) ;
#719 = DIRECTION ( 'NONE',  ( 0.000000000000000000, 0.000000000000000000, -1.000000000000000000 ) ) ;
#720 = CARTESIAN_POINT ( 'NONE',  ( -60.00000000000000000, -17.00000000000000000, 0.000000000000000000 ) ) ;
#721 = EDGE_LOOP ( 'NONE', ( #628, #802, #501, #573 ) ) ;
#722 = DIRECTION ( 'NONE',  ( -0.000000000000000000, -0.000000000000000000, 1.000000000000000000 ) ) ;
#723 = DIRECTION ( 'NONE',  ( 0.000000000000000000, 0.000000000000000000, -1.000000000000000000 ) ) ;
#724 = ORIENTED_EDGE ( 'NONE', *, *, #799, .F. ) ;
#725 = VECTOR ( 'NONE', #575, 1000.000000000000000 ) ;
#726 = DIRECTION ( 'NONE',  ( -1.000000000000000000, 0.000000000000000000, 0.000000000000000000 ) ) ;
#727 = CIRCLE ( 'NONE', #782, 11.09999999999999787 ) ;
#728 = ORIENTED_EDGE ( 'NONE', *, *, #434, .F. ) ;
#729 = EDGE_CURVE ( 'NONE', #533, #6, #715, .T. ) ;
#730 = APPROVAL_STATUS ( 'not_yet_approved' ) ;
#731 = FACE_OUTER_BOUND ( 'NONE', #644, .T. ) ;
#732 = VERTEX_POINT ( 'NONE', #85 ) ;
#733 = APPLICATION_PROTOCOL_DEFINITION ( 'international standard', 'config_control_design', 1994, #796 ) ;
#734 = ADVANCED_FACE ( 'NONE', ( #319 ), #590, .F. ) ;
#735 = FACE_OUTER_BOUND ( 'NONE', #467, .T. ) ;
#736 = VERTEX_POINT ( 'NONE', #273 ) ;
#737 = PERSON_AND_ORGANIZATION_ROLE ( 'creator' ) ;
#738 = DIRECTION ( 'NONE',  ( 0.000000000000000000, 0.000000000000000000, -1.000000000000000000 ) ) ;
#739 = VECTOR ( 'NONE', #246, 1000.000000000000000 ) ;
#740 = EDGE_CURVE ( 'NONE', #305, #410, #270, .T. ) ;
#741 = AXIS2_PLACEMENT_3D ( 'NONE', #808, #738, #801 ) ;
#742 = DIRECTION ( 'NONE',  ( -0.000000000000000000, -0.000000000000000000, 1.000000000000000000 ) ) ;
#743 = CIRCLE ( 'NONE', #113, 11.09999999999999787 ) ;
#744 = VERTEX_POINT ( 'NONE', #527 ) ;
#745 = PERSON_AND_ORGANIZATION ( #475, #336 ) ;
#746 = CYLINDRICAL_SURFACE ( 'NONE', #606, 10.99999999999999645 ) ;
#747 = PRODUCT_RELATED_PRODUCT_CATEGORY ( 'detail', '', ( #392 ) ) ;
#748 = ORIENTED_EDGE ( 'NONE', *, *, #450, .F. ) ;
#749 = VERTEX_POINT ( 'NONE', #789 ) ;
#750 = CARTESIAN_POINT ( 'NONE',  ( 33.27499999999999858, -11.00000000000000000, 8.000000000000000000 ) ) ;
#751 = ORIENTED_EDGE ( 'NONE', *, *, #288, .T. ) ;
#752 = ORIENTED_EDGE ( 'NONE', *, *, #729, .T. ) ;
#753 = UNCERTAINTY_MEASURE_WITH_UNIT (LENGTH_MEASURE( 1.000000000000000082E-05 ), #405, 'distance_accuracy_value', 'NONE');
#754 = DIRECTION ( 'NONE',  ( -0.000000000000000000, -0.000000000000000000, 1.000000000000000000 ) ) ;
#755 = DIRECTION ( 'NONE',  ( 0.000000000000000000, 0.000000000000000000, -1.000000000000000000 ) ) ;
#756 = CIRCLE ( 'NONE', #385, 11.09999999999999787 ) ;
#757 = AXIS2_PLACEMENT_3D ( 'NONE', #568, #248, #692 ) ;
#758 = FACE_OUTER_BOUND ( 'NONE', #822, .T. ) ;
#759 = CYLINDRICAL_SURFACE ( 'NONE', #333, 11.05000000000000071 ) ;
#760 = ORIENTED_EDGE ( 'NONE', *, *, #377, .F. ) ;
#761 = CARTESIAN_POINT ( 'NONE',  ( 3.900000000000000799, 0.000000000000000000, 0.000000000000000000 ) ) ;
#762 = CARTESIAN_POINT ( 'NONE',  ( 0.000000000000000000, -11.00000000000000000, 0.000000000000000000 ) ) ;
#763 = EDGE_LOOP ( 'NONE', ( #287, #334, #226, #101 ) ) ;
#764 = DIRECTION ( 'NONE',  ( 0.000000000000000000, 0.000000000000000000, -1.000000000000000000 ) ) ;
#765 = DIRECTION ( 'NONE',  ( 0.000000000000000000, 0.000000000000000000, 1.000000000000000000 ) ) ;
#766 = CC_DESIGN_PERSON_AND_ORGANIZATION_ASSIGNMENT ( #228, #487, ( #797 ) ) ;
#767 = EDGE_LOOP ( 'NONE', ( #343, #164, #17, #546 ) ) ;
#768 = CIRCLE ( 'NONE', #269, 11.15000000000000036 ) ;
#769 = APPROVAL_PERSON_ORGANIZATION ( #540, #528, #804 ) ;
#770 = CARTESIAN_POINT ( 'NONE',  ( 52.67499999999999716, -11.00000000000000000, 8.000000000000000000 ) ) ;
#771 = LINE ( 'NONE', #572, #683 ) ;
#772 = ORIENTED_EDGE ( 'NONE', *, *, #278, .T. ) ;
#773 = CARTESIAN_POINT ( 'NONE',  ( -60.00000000000000000, -17.00000000000000000, 8.000000000000000000 ) ) ;
#774 = DIRECTION ( 'NONE',  ( 0.000000000000000000, 0.000000000000000000, -1.000000000000000000 ) ) ;
#775 = ORIENTED_EDGE ( 'NONE', *, *, #288, .F. ) ;
#776 = EDGE_CURVE ( 'NONE', #309, #453, #86, .T. ) ;
#777 = DIRECTION ( 'NONE',  ( -0.000000000000000000, -0.000000000000000000, 1.000000000000000000 ) ) ;
#778 = CARTESIAN_POINT ( 'NONE',  ( -3.949999999999998845, 1.353234713057825478E-15, 8.000000000000000000 ) ) ;
#779 = ORIENTED_EDGE ( 'NONE', *, *, #450, .T. ) ;
#780 = MANIFOLD_SOLID_BREP ( 'Dowel_fit_trial_through', #136 ) ;
#781 = AXIS2_PLACEMENT_3D ( 'NONE', #816, #233, #253 ) ;
#782 = AXIS2_PLACEMENT_3D ( 'NONE', #620, #306, #689 ) ;
#783 = DIRECTION ( 'NONE',  ( -0.000000000000000000, -0.000000000000000000, -1.000000000000000000 ) ) ;
#784 = CYLINDRICAL_SURFACE ( 'NONE', #455, 3.325000000000001510 ) ;
#785 = ORIENTED_EDGE ( 'NONE', *, *, #36, .T. ) ;
#786 = LINE ( 'NONE', #773, #594 ) ;
#787 = DIRECTION ( 'NONE',  ( 0.000000000000000000, 0.000000000000000000, 1.000000000000000000 ) ) ;
#788 = ORIENTED_EDGE ( 'NONE', *, *, #791, .F. ) ;
#789 = CARTESIAN_POINT ( 'NONE',  ( 26.09999999999999787, 1.359357947053561959E-15, 8.000000000000000000 ) ) ;
#790 = CARTESIAN_POINT ( 'NONE',  ( 0.000000000000000000, -11.00000000000000000, 8.000000000000000000 ) ) ;
#791 = EDGE_CURVE ( 'NONE', #744, #65, #786, .T. ) ;
#792 = ORIENTED_EDGE ( 'NONE', *, *, #652, .F. ) ;
#793 = AXIS2_PLACEMENT_3D ( 'NONE', #8, #67, #317 ) ;
#794 = LINE ( 'NONE', #750, #795 ) ;
#795 = VECTOR ( 'NONE', #282, 1000.000000000000000 ) ;
#796 = APPLICATION_CONTEXT ( 'configuration controlled 3d designs of mechanical parts and assemblies' ) ;
#797 = PRODUCT_DEFINITION_FORMATION_WITH_SPECIFIED_SOURCE ( 'ANY', '', #392, .NOT_KNOWN. ) ;
#798 = EDGE_LOOP ( 'NONE', ( #327, #711 ) ) ;
#799 = EDGE_CURVE ( 'NONE', #449, #533, #206, .T. ) ;
#800 = MECHANICAL_CONTEXT ( 'NONE', #796, 'mechanical' ) ;
#801 = DIRECTION ( 'NONE',  ( -1.000000000000000000, 0.000000000000000000, 0.000000000000000000 ) ) ;
#802 = ORIENTED_EDGE ( 'NONE', *, *, #187, .T. ) ;
#803 = EDGE_CURVE ( 'NONE', #669, #561, #743, .T. ) ;
#804 = APPROVAL_ROLE ( '' ) ;
#805 = CARTESIAN_POINT ( 'NONE',  ( 26.72499999999999787, -11.00000000000000000, 8.000000000000000000 ) ) ;
#806 = ORIENTED_EDGE ( 'NONE', *, *, #9, .T. ) ;
#807 = PERSON_AND_ORGANIZATION_ROLE ( 'design_owner' ) ;
#808 = CARTESIAN_POINT ( 'NONE',  ( -45.00000000000000000, 0.000000000000000000, 8.000000000000000000 ) ) ;
#809 = AXIS2_PLACEMENT_3D ( 'NONE', #706, #435, #693 ) ;
#810 = AXIS2_PLACEMENT_3D ( 'NONE', #657, #265, #381 ) ;
#811 = CARTESIAN_POINT ( 'NONE',  ( -30.00000000000000000, -11.00000000000000000, 8.000000000000000000 ) ) ;
#812 = AXIS2_PLACEMENT_3D ( 'NONE', #139, #451, #583 ) ;
#813 = ORIENTED_EDGE ( 'NONE', *, *, #30, .F. ) ;
#814 = APPROVAL_STATUS ( 'not_yet_approved' ) ;
#815 = DIRECTION ( 'NONE',  ( -1.000000000000000000, 0.000000000000000000, 0.000000000000000000 ) ) ;
#816 = CARTESIAN_POINT ( 'NONE',  ( 15.00000000000000000, 0.000000000000000000, 8.000000000000000000 ) ) ;
#817 = EDGE_LOOP ( 'NONE', ( #632, #132, #247, #724 ) ) ;
#818 = APPROVAL_DATE_TIME ( #298, #631 ) ;
#819 = CYLINDRICAL_SURFACE ( 'NONE', #660, 3.174999999999997158 ) ;
#820 = DIRECTION ( 'NONE',  ( -0.000000000000000000, -0.000000000000000000, 1.000000000000000000 ) ) ;
#821 = ADVANCED_FACE ( 'NONE', ( #130 ), #194, .F. ) ;
#822 = EDGE_LOOP ( 'NONE', ( #48, #371, #339, #376 ) ) ;
#823 = CARTESIAN_POINT ( 'NONE',  ( -26.05000000000000071, 0.000000000000000000, 0.000000000000000000 ) ) ;
#824 = DIRECTION ( 'NONE',  ( 0.000000000000000000, 0.000000000000000000, 1.000000000000000000 ) ) ;
#825 = AXIS2_PLACEMENT_3D ( 'NONE', #366, #824, #184 ) ;
#826 = CIRCLE ( 'NONE', #757, 3.325000000000001510 ) ;
#827 = ORIENTED_EDGE ( 'NONE', *, *, #740, .T. ) ;
#828 = CC_DESIGN_APPROVAL ( #631, ( #216 ) ) ;
#829 = LINE ( 'NONE', #634, #37 ) ;
ENDSEC;
END-ISO-10303-21;
