ISO-10303-21;
HEADER;
FILE_DESCRIPTION (( 'STEP AP203' ),
    '1' );
FILE_NAME ('ARM-112_SG90_horn_capture_cap.step',
    '2026-09-13T02:58:24',
    ( '' ),
    ( '' ),
    'SwSTEP 2.0',
    'SolidWorks 2026',
    '' );
FILE_SCHEMA (( 'CONFIG_CONTROL_DESIGN' ));
ENDSEC;

DATA;
#1 = CIRCLE ( 'NONE', #11, 2.100000000000000089 ) ;
#2 = EDGE_CURVE ( 'NONE', #628, #131, #233, .T. ) ;
#3 = DIRECTION ( 'NONE',  ( 1.000000000000000000, 0.000000000000000000, 0.000000000000000000 ) ) ;
#4 = AXIS2_PLACEMENT_3D ( 'NONE', #256, #177, #51 ) ;
#5 = DIRECTION ( 'NONE',  ( 0.000000000000000000, 0.000000000000000000, 1.000000000000000000 ) ) ;
#6 = CARTESIAN_POINT ( 'NONE',  ( 7.000000000000000000, 7.000000000000000000, 0.5500000000000000444 ) ) ;
#7 = COORDINATED_UNIVERSAL_TIME_OFFSET ( 6, 0, .BEHIND. ) ;
#8 = EDGE_CURVE ( 'NONE', #131, #459, #481, .T. ) ;
#9 = EDGE_LOOP ( 'NONE', ( #750, #135, #832, #105 ) ) ;
#10 = CARTESIAN_POINT ( 'NONE',  ( 0.000000000000000000, 0.000000000000000000, 0.000000000000000000 ) ) ;
#11 = AXIS2_PLACEMENT_3D ( 'NONE', #6, #540, #809 ) ;
#12 = ORIENTED_EDGE ( 'NONE', *, *, #126, .F. ) ;
#13 = ORIENTED_EDGE ( 'NONE', *, *, #205, .F. ) ;
#14 = CARTESIAN_POINT ( 'NONE',  ( 7.000000000000000000, -7.000000000000000000, 0.5500000000000001554 ) ) ;
#15 = COORDINATED_UNIVERSAL_TIME_OFFSET ( 6, 0, .BEHIND. ) ;
#16 = FACE_OUTER_BOUND ( 'NONE', #732, .T. ) ;
#17 = CARTESIAN_POINT ( 'NONE',  ( 7.000000000000000000, -7.000000000000000000, 0.5500000000000000444 ) ) ;
#18 = ADVANCED_FACE ( 'NONE', ( #74 ), #773, .F. ) ;
#19 = PERSON_AND_ORGANIZATION ( #815, #654 ) ;
#20 = AXIS2_PLACEMENT_3D ( 'NONE', #111, #391, #856 ) ;
#21 = AXIS2_PLACEMENT_3D ( 'NONE', #109, #168, #442 ) ;
#22 = ORIENTED_EDGE ( 'NONE', *, *, #78, .F. ) ;
#23 = CARTESIAN_POINT ( 'NONE',  ( 7.000000000000000000, 7.000000000000000000, 2.000000000000001776 ) ) ;
#24 = AXIS2_PLACEMENT_3D ( 'NONE', #446, #507, #314 ) ;
#25 = CYLINDRICAL_SURFACE ( 'NONE', #669, 2.100000000000000089 ) ;
#26 = ORIENTED_EDGE ( 'NONE', *, *, #489, .F. ) ;
#27 = CARTESIAN_POINT ( 'NONE',  ( 7.000000000000000000, -7.000000000000000000, 2.000000000000001776 ) ) ;
#28 = DIRECTION ( 'NONE',  ( 1.000000000000000000, 0.000000000000000000, 0.000000000000000000 ) ) ;
#29 = PLANE ( 'NONE',  #475 ) ;
#30 = EDGE_CURVE ( 'NONE', #224, #434, #755, .T. ) ;
#31 = VERTEX_POINT ( 'NONE', #301 ) ;
#32 = DIRECTION ( 'NONE',  ( 0.000000000000000000, 0.000000000000000000, -1.000000000000000000 ) ) ;
#33 = CARTESIAN_POINT ( 'NONE',  ( -7.000000000000000000, 7.000000000000000000, 0.5500000000000000444 ) ) ;
#34 = FACE_OUTER_BOUND ( 'NONE', #707, .T. ) ;
#35 = VECTOR ( 'NONE', #295, 1000.000000000000000 ) ;
#36 = VECTOR ( 'NONE', #373, 1000.000000000000000 ) ;
#37 = VERTEX_POINT ( 'NONE', #91 ) ;
#38 = FACE_OUTER_BOUND ( 'NONE', #68, .T. ) ;
#39 = DIRECTION ( 'NONE',  ( 0.000000000000000000, 0.000000000000000000, 1.000000000000000000 ) ) ;
#40 = CARTESIAN_POINT ( 'NONE',  ( 7.000000000000000000, -7.000000000000000000, 0.5500000000000001554 ) ) ;
#41 = AXIS2_PLACEMENT_3D ( 'NONE', #124, #254, #57 ) ;
#42 = VERTEX_POINT ( 'NONE', #501 ) ;
#43 = DIRECTION ( 'NONE',  ( -0.000000000000000000, -0.000000000000000000, -1.000000000000000000 ) ) ;
#44 = DIRECTION ( 'NONE',  ( 1.000000000000000000, 0.000000000000000000, 0.000000000000000000 ) ) ;
#45 = EDGE_CURVE ( 'NONE', #464, #613, #410, .T. ) ;
#46 = CARTESIAN_POINT ( 'NONE',  ( -7.000000000000000000, -7.000000000000000000, 0.000000000000000000 ) ) ;
#47 = ORIENTED_EDGE ( 'NONE', *, *, #788, .T. ) ;
#48 = LINE ( 'NONE', #649, #261 ) ;
#49 = CARTESIAN_POINT ( 'NONE',  ( -7.000000000000000000, 7.000000000000000000, 0.5500000000000001554 ) ) ;
#50 = ORIENTED_EDGE ( 'NONE', *, *, #45, .T. ) ;
#51 = DIRECTION ( 'NONE',  ( 1.000000000000000000, 0.000000000000000000, 0.000000000000000000 ) ) ;
#52 = DIRECTION ( 'NONE',  ( 1.000000000000000000, 0.000000000000000000, 0.000000000000000000 ) ) ;
#53 = AXIS2_PLACEMENT_3D ( 'NONE', #721, #536, #251 ) ;
#54 = EDGE_CURVE ( 'NONE', #63, #855, #381, .T. ) ;
#55 = VERTEX_POINT ( 'NONE', #710 ) ;
#56 = CARTESIAN_POINT ( 'NONE',  ( -8.150000000000000355, 7.000000000000000000, 2.000000000000001776 ) ) ;
#57 = DIRECTION ( 'NONE',  ( 1.000000000000000000, 0.000000000000000000, 0.000000000000000000 ) ) ;
#58 =( NAMED_UNIT ( * ) PLANE_ANGLE_UNIT ( ) SI_UNIT ( $, .RADIAN. ) );
#59 = VERTEX_POINT ( 'NONE', #158 ) ;
#60 = DIRECTION ( 'NONE',  ( 0.000000000000000000, 0.000000000000000000, 1.000000000000000000 ) ) ;
#61 = EDGE_CURVE ( 'NONE', #98, #245, #159, .T. ) ;
#62 = FACE_OUTER_BOUND ( 'NONE', #657, .T. ) ;
#63 = VERTEX_POINT ( 'NONE', #222 ) ;
#64 = CARTESIAN_POINT ( 'NONE',  ( -4.000000000000000000, 0.000000000000000000, 0.000000000000000000 ) ) ;
#65 = AXIS2_PLACEMENT_3D ( 'NONE', #414, #677, #350 ) ;
#66 = DIRECTION ( 'NONE',  ( 1.000000000000000000, 0.000000000000000000, 0.000000000000000000 ) ) ;
#67 = AXIS2_PLACEMENT_3D ( 'NONE', #564, #436, #638 ) ;
#68 = EDGE_LOOP ( 'NONE', ( #490, #399, #349, #365 ) ) ;
#69 = CARTESIAN_POINT ( 'NONE',  ( -4.899999999999999467, -7.000000000000000000, 0.5500000000000000444 ) ) ;
#70 = ADVANCED_FACE ( 'NONE', ( #835 ), #645, .T. ) ;
#71 = FACE_BOUND ( 'NONE', #421, .T. ) ;
#72 = PERSON_AND_ORGANIZATION ( #815, #654 ) ;
#73 = ORIENTED_EDGE ( 'NONE', *, *, #759, .F. ) ;
#74 = FACE_OUTER_BOUND ( 'NONE', #718, .T. ) ;
#75 = AXIS2_PLACEMENT_3D ( 'NONE', #371, #362, #494 ) ;
#76 = PERSON_AND_ORGANIZATION_ROLE ( 'design_owner' ) ;
#77 = AXIS2_PLACEMENT_3D ( 'NONE', #600, #406, #3 ) ;
#78 = EDGE_CURVE ( 'NONE', #598, #592, #382, .T. ) ;
#79 = CARTESIAN_POINT ( 'NONE',  ( 7.000000000000000000, 7.000000000000000000, 0.5500000000000000444 ) ) ;
#80 = VECTOR ( 'NONE', #678, 1000.000000000000000 ) ;
#81 = APPROVAL_DATE_TIME ( #554, #680 ) ;
#82 = DIRECTION ( 'NONE',  ( 1.000000000000000000, 0.000000000000000000, 0.000000000000000000 ) ) ;
#83 = EDGE_CURVE ( 'NONE', #846, #485, #744, .T. ) ;
#84 = APPROVAL_ROLE ( '' ) ;
#85 = ORIENTED_EDGE ( 'NONE', *, *, #834, .F. ) ;
#86 = CARTESIAN_POINT ( 'NONE',  ( 7.000000000000000000, -7.000000000000000000, 0.5500000000000000444 ) ) ;
#87 = CIRCLE ( 'NONE', #541, 2.100000000000000089 ) ;
#88 = PRODUCT_DEFINITION_FORMATION_WITH_SPECIFIED_SOURCE ( 'ANY', '', #108, .NOT_KNOWN. ) ;
#89 = ORIENTED_EDGE ( 'NONE', *, *, #716, .T. ) ;
#90 = CARTESIAN_POINT ( 'NONE',  ( 4.000000000000000000, 4.898587196589412829E-16, 0.000000000000000000 ) ) ;
#91 = CARTESIAN_POINT ( 'NONE',  ( 13.00000000000000000, 1.592040838891559095E-15, 2.000000000000000000 ) ) ;
#92 = EDGE_CURVE ( 'NONE', #722, #305, #119, .T. ) ;
#93 = LINE ( 'NONE', #775, #246 ) ;
#94 = ORIENTED_EDGE ( 'NONE', *, *, #495, .F. ) ;
#95 = DIRECTION ( 'NONE',  ( 0.000000000000000000, 0.000000000000000000, 1.000000000000000000 ) ) ;
#96 = CARTESIAN_POINT ( 'NONE',  ( 4.899999999999999467, 7.000000000000000000, 0.000000000000000000 ) ) ;
#97 = CARTESIAN_POINT ( 'NONE',  ( 13.00000000000000000, 1.592040838891559095E-15, 2.000000000000000000 ) ) ;
#98 = VERTEX_POINT ( 'NONE', #96 ) ;
#99 = DIRECTION ( 'NONE',  ( 0.000000000000000000, 0.000000000000000000, 1.000000000000000000 ) ) ;
#100 = LINE ( 'NONE', #97, #36 ) ;
#101 = ORIENTED_EDGE ( 'NONE', *, *, #83, .F. ) ;
#102 = CARTESIAN_POINT ( 'NONE',  ( -7.000000000000000000, 7.000000000000000000, 0.000000000000000000 ) ) ;
#103 = CYLINDRICAL_SURFACE ( 'NONE', #21, 2.100000000000000089 ) ;
#104 = AXIS2_PLACEMENT_3D ( 'NONE', #189, #857, #523 ) ;
#105 = ORIENTED_EDGE ( 'NONE', *, *, #555, .F. ) ;
#106 = CARTESIAN_POINT ( 'NONE',  ( 7.000000000000000000, 7.000000000000000000, 0.5500000000000000444 ) ) ;
#107 = CARTESIAN_POINT ( 'NONE',  ( -7.000000000000000000, -7.000000000000000000, 0.5500000000000000444 ) ) ;
#108 = PRODUCT ( 'ARM-112_SG90_horn_capture_cap', 'ARM-112_SG90_horn_capture_cap', '', ( #263 ) ) ;
#109 = CARTESIAN_POINT ( 'NONE',  ( -7.000000000000000000, -7.000000000000000000, 0.5500000000000000444 ) ) ;
#110 = ORIENTED_EDGE ( 'NONE', *, *, #690, .T. ) ;
#111 = CARTESIAN_POINT ( 'NONE',  ( 7.000000000000000000, 7.000000000000000000, 2.000000000000001776 ) ) ;
#112 = CARTESIAN_POINT ( 'NONE',  ( -7.000000000000000000, 7.000000000000000000, 0.5500000000000001554 ) ) ;
#113 = EDGE_CURVE ( 'NONE', #499, #409, #729, .T. ) ;
#114 = CARTESIAN_POINT ( 'NONE',  ( -7.000000000000000000, 7.000000000000000000, 0.5500000000000000444 ) ) ;
#115 = EDGE_LOOP ( 'NONE', ( #221, #520, #375, #751 ) ) ;
#116 = DIRECTION ( 'NONE',  ( 0.000000000000000000, 0.000000000000000000, -1.000000000000000000 ) ) ;
#117 = AXIS2_PLACEMENT_3D ( 'NONE', #789, #531, #730 ) ;
#118 = CC_DESIGN_PERSON_AND_ORGANIZATION_ASSIGNMENT ( #745, #76, ( #108 ) ) ;
#119 = CIRCLE ( 'NONE', #338, 2.100000000000000089 ) ;
#120 = ORIENTED_EDGE ( 'NONE', *, *, #759, .T. ) ;
#121 = CARTESIAN_POINT ( 'NONE',  ( -7.000000000000000000, -7.000000000000000000, 2.000000000000001776 ) ) ;
#122 = CARTESIAN_POINT ( 'NONE',  ( 0.000000000000000000, 0.000000000000000000, 2.000000000000000000 ) ) ;
#123 = ORIENTED_EDGE ( 'NONE', *, *, #220, .T. ) ;
#124 = CARTESIAN_POINT ( 'NONE',  ( 7.000000000000000000, -7.000000000000000000, 2.000000000000001776 ) ) ;
#125 = CARTESIAN_POINT ( 'NONE',  ( 5.849999999999999645, 7.000000000000000000, 0.5500000000000001554 ) ) ;
#126 = EDGE_CURVE ( 'NONE', #691, #59, #192, .T. ) ;
#127 = AXIS2_PLACEMENT_3D ( 'NONE', #10, #818, #480 ) ;
#128 = CARTESIAN_POINT ( 'NONE',  ( -4.000000000000000000, 0.000000000000000000, 2.000000000000000000 ) ) ;
#129 = AXIS2_PLACEMENT_3D ( 'NONE', #107, #387, #430 ) ;
#130 = EDGE_LOOP ( 'NONE', ( #632, #331, #514, #210 ) ) ;
#131 = VERTEX_POINT ( 'NONE', #496 ) ;
#132 = CALENDAR_DATE ( 2026, 12, 9 ) ;
#133 = CARTESIAN_POINT ( 'NONE',  ( 4.000000000000000000, 4.898587196589412829E-16, 2.000000000000000000 ) ) ;
#134 = PERSON_AND_ORGANIZATION ( #815, #654 ) ;
#135 = ORIENTED_EDGE ( 'NONE', *, *, #706, .T. ) ;
#136 = ORIENTED_EDGE ( 'NONE', *, *, #834, .T. ) ;
#137 = LINE ( 'NONE', #417, #416 ) ;
#138 = ORIENTED_EDGE ( 'NONE', *, *, #309, .F. ) ;
#139 = AXIS2_PLACEMENT_3D ( 'NONE', #558, #578, #828 ) ;
#140 = LOCAL_TIME ( 21, 58, 24.00000000000000000, #7 ) ;
#141 = EDGE_CURVE ( 'NONE', #689, #780, #571, .T. ) ;
#142 = FACE_OUTER_BOUND ( 'NONE', #498, .T. ) ;
#143 = AXIS2_PLACEMENT_3D ( 'NONE', #844, #454, #715 ) ;
#144 = CIRCLE ( 'NONE', #757, 13.00000000000000000 ) ;
#145 = EDGE_LOOP ( 'NONE', ( #814, #850 ) ) ;
#146 = CALENDAR_DATE ( 2026, 12, 9 ) ;
#147 = ORIENTED_EDGE ( 'NONE', *, *, #737, .F. ) ;
#148 = DIRECTION ( 'NONE',  ( 1.000000000000000000, 0.000000000000000000, 0.000000000000000000 ) ) ;
#149 = EDGE_CURVE ( 'NONE', #42, #582, #453, .T. ) ;
#150 = EDGE_LOOP ( 'NONE', ( #379, #259, #89, #147 ) ) ;
#151 = CARTESIAN_POINT ( 'NONE',  ( -7.000000000000000000, 7.000000000000000000, 2.000000000000001776 ) ) ;
#152 = EDGE_CURVE ( 'NONE', #459, #252, #307, .T. ) ;
#153 = AXIS2_PLACEMENT_3D ( 'NONE', #260, #186, #529 ) ;
#154 = CYLINDRICAL_SURFACE ( 'NONE', #212, 2.100000000000000089 ) ;
#155 = CIRCLE ( 'NONE', #334, 2.100000000000000089 ) ;
#156 = ORIENTED_EDGE ( 'NONE', *, *, #358, .T. ) ;
#157 = CARTESIAN_POINT ( 'NONE',  ( -5.850000000000000533, 7.000000000000000000, 2.000000000000001776 ) ) ;
#158 = CARTESIAN_POINT ( 'NONE',  ( -4.899999999999999467, -7.000000000000000000, 0.000000000000000000 ) ) ;
#159 = CIRCLE ( 'NONE', #682, 2.100000000000000089 ) ;
#160 = DIRECTION ( 'NONE',  ( 0.000000000000000000, 0.000000000000000000, -1.000000000000000000 ) ) ;
#161 = ORIENTED_EDGE ( 'NONE', *, *, #502, .F. ) ;
#162 = DIRECTION ( 'NONE',  ( 0.000000000000000000, 0.000000000000000000, 1.000000000000000000 ) ) ;
#163 = DIRECTION ( 'NONE',  ( -0.000000000000000000, -0.000000000000000000, -1.000000000000000000 ) ) ;
#164 = FACE_OUTER_BOUND ( 'NONE', #150, .T. ) ;
#165 = EDGE_CURVE ( 'NONE', #686, #727, #854, .T. ) ;
#166 = ORIENTED_EDGE ( 'NONE', *, *, #183, .F. ) ;
#167 = DIRECTION ( 'NONE',  ( 0.000000000000000000, 0.000000000000000000, -1.000000000000000000 ) ) ;
#168 = DIRECTION ( 'NONE',  ( 0.000000000000000000, 0.000000000000000000, -1.000000000000000000 ) ) ;
#169 = AXIS2_PLACEMENT_3D ( 'NONE', #27, #32, #291 ) ;
#170 = ADVANCED_FACE ( 'NONE', ( #376 ), #511, .F. ) ;
#171 = AXIS2_PLACEMENT_3D ( 'NONE', #565, #389, #228 ) ;
#172 = ORIENTED_EDGE ( 'NONE', *, *, #149, .T. ) ;
#173 = DIRECTION ( 'NONE',  ( -1.000000000000000000, 0.000000000000000000, 0.000000000000000000 ) ) ;
#174 = DIRECTION ( 'NONE',  ( 1.000000000000000000, 0.000000000000000000, -0.000000000000000000 ) ) ;
#175 = CIRCLE ( 'NONE', #606, 1.150000000000000799 ) ;
#176 = VERTEX_POINT ( 'NONE', #579 ) ;
#177 = DIRECTION ( 'NONE',  ( 0.000000000000000000, 0.000000000000000000, 1.000000000000000000 ) ) ;
#178 = LINE ( 'NONE', #526, #804 ) ;
#179 = ORIENTED_EDGE ( 'NONE', *, *, #152, .T. ) ;
#180 = ORIENTED_EDGE ( 'NONE', *, *, #343, .T. ) ;
#181 = CARTESIAN_POINT ( 'NONE',  ( -9.099999999999999645, 7.000000000000000000, 0.5500000000000000444 ) ) ;
#182 = CARTESIAN_POINT ( 'NONE',  ( 9.099999999999999645, 7.000000000000000000, 0.000000000000000000 ) ) ;
#183 = EDGE_CURVE ( 'NONE', #766, #598, #175, .T. ) ;
#184 =( LENGTH_UNIT ( ) NAMED_UNIT ( * ) SI_UNIT ( .MILLI., .METRE. ) );
#185 = ORIENTED_EDGE ( 'NONE', *, *, #622, .T. ) ;
#186 = DIRECTION ( 'NONE',  ( 0.000000000000000000, 0.000000000000000000, 1.000000000000000000 ) ) ;
#187 = AXIS2_PLACEMENT_3D ( 'NONE', #593, #796, #728 ) ;
#188 = CIRCLE ( 'NONE', #262, 4.000000000000000000 ) ;
#189 = CARTESIAN_POINT ( 'NONE',  ( -7.000000000000000000, 7.000000000000000000, 2.000000000000001776 ) ) ;
#190 = DIRECTION ( 'NONE',  ( -0.000000000000000000, -0.000000000000000000, -1.000000000000000000 ) ) ;
#191 = AXIS2_PLACEMENT_3D ( 'NONE', #516, #441, #764 ) ;
#192 = CIRCLE ( 'NONE', #367, 2.100000000000000089 ) ;
#193 = ORIENTED_EDGE ( 'NONE', *, *, #2, .F. ) ;
#194 = CARTESIAN_POINT ( 'NONE',  ( 7.000000000000000000, -7.000000000000000000, 2.000000000000001776 ) ) ;
#195 = FACE_OUTER_BOUND ( 'NONE', #360, .T. ) ;
#196 = DIRECTION ( 'NONE',  ( 0.000000000000000000, 0.000000000000000000, -1.000000000000000000 ) ) ;
#197 = EDGE_CURVE ( 'NONE', #434, #59, #852, .T. ) ;
#198 = CARTESIAN_POINT ( 'NONE',  ( 9.099999999999999645, 7.000000000000000000, 0.5500000000000000444 ) ) ;
#199 = FACE_OUTER_BOUND ( 'NONE', #636, .T. ) ;
#200 = DIRECTION ( 'NONE',  ( 1.000000000000000000, 0.000000000000000000, -0.000000000000000000 ) ) ;
#201 = AXIS2_PLACEMENT_3D ( 'NONE', #534, #662, #396 ) ;
#202 = AXIS2_PLACEMENT_3D ( 'NONE', #114, #596, #608 ) ;
#203 = PERSON_AND_ORGANIZATION_ROLE ( 'creator' ) ;
#204 = ORIENTED_EDGE ( 'NONE', *, *, #149, .F. ) ;
#205 = EDGE_CURVE ( 'NONE', #409, #499, #826, .T. ) ;
#206 = APPROVAL_ROLE ( '' ) ;
#207 = ORIENTED_EDGE ( 'NONE', *, *, #165, .F. ) ;
#208 = DIRECTION ( 'NONE',  ( 0.000000000000000000, 0.000000000000000000, 1.000000000000000000 ) ) ;
#209 = ADVANCED_FACE ( 'NONE', ( #195 ), #860, .F. ) ;
#210 = ORIENTED_EDGE ( 'NONE', *, *, #45, .F. ) ;
#211 = PRODUCT_DEFINITION_SHAPE ( 'NONE', 'NONE',  #840 ) ;
#212 = AXIS2_PLACEMENT_3D ( 'NONE', #700, #160, #235 ) ;
#213 = APPROVAL_DATE_TIME ( #342, #374 ) ;
#214 = PRODUCT_RELATED_PRODUCT_CATEGORY ( 'detail', '', ( #108 ) ) ;
#215 = VECTOR ( 'NONE', #653, 1000.000000000000000 ) ;
#216 = ADVANCED_FACE ( 'NONE', ( #470 ), #739, .F. ) ;
#217 = VERTEX_POINT ( 'NONE', #198 ) ;
#218 = AXIS2_PLACEMENT_3D ( 'NONE', #777, #167, #173 ) ;
#219 = COORDINATED_UNIVERSAL_TIME_OFFSET ( 6, 0, .BEHIND. ) ;
#220 = EDGE_CURVE ( 'NONE', #598, #766, #672, .T. ) ;
#221 = ORIENTED_EDGE ( 'NONE', *, *, #2, .T. ) ;
#222 = CARTESIAN_POINT ( 'NONE',  ( -9.099999999999999645, 7.000000000000000000, 0.000000000000000000 ) ) ;
#223 = CARTESIAN_POINT ( 'NONE',  ( -9.099999999999999645, 7.000000000000000000, 0.5500000000000000444 ) ) ;
#224 = VERTEX_POINT ( 'NONE', #405 ) ;
#225 = LINE ( 'NONE', #157, #668 ) ;
#226 = CARTESIAN_POINT ( 'NONE',  ( 0.000000000000000000, 0.000000000000000000, 2.000000000000000000 ) ) ;
#227 = CIRCLE ( 'NONE', #303, 13.00000000000000000 ) ;
#228 = DIRECTION ( 'NONE',  ( 1.000000000000000000, 0.000000000000000000, 0.000000000000000000 ) ) ;
#229 = DESIGN_CONTEXT ( 'detailed design', #783, 'design' ) ;
#230 = EDGE_LOOP ( 'NONE', ( #355, #166 ) ) ;
#231 = FACE_OUTER_BOUND ( 'NONE', #115, .T. ) ;
#232 = CARTESIAN_POINT ( 'NONE',  ( 5.849999999999999645, -7.000000000000000000, 2.000000000000001776 ) ) ;
#233 = CIRCLE ( 'NONE', #605, 4.000000000000000000 ) ;
#234 = EDGE_CURVE ( 'NONE', #780, #689, #535, .T. ) ;
#235 = DIRECTION ( 'NONE',  ( -1.000000000000000000, 0.000000000000000000, 0.000000000000000000 ) ) ;
#236 = ORIENTED_EDGE ( 'NONE', *, *, #800, .T. ) ;
#237 = FACE_OUTER_BOUND ( 'NONE', #543, .T. ) ;
#238 = DIRECTION ( 'NONE',  ( 1.000000000000000000, 0.000000000000000000, 0.000000000000000000 ) ) ;
#239 = EDGE_CURVE ( 'NONE', #727, #613, #178, .T. ) ;
#240 = CARTESIAN_POINT ( 'NONE',  ( 4.899999999999999467, 7.000000000000000000, 0.5500000000000000444 ) ) ;
#241 = EDGE_LOOP ( 'NONE', ( #328, #566, #276, #268 ) ) ;
#242 = CARTESIAN_POINT ( 'NONE',  ( -13.00000000000000000, 0.000000000000000000, 0.000000000000000000 ) ) ;
#243 = CARTESIAN_POINT ( 'NONE',  ( 7.000000000000000000, -7.000000000000000000, 2.000000000000001776 ) ) ;
#244 = DIRECTION ( 'NONE',  ( 0.000000000000000000, 0.000000000000000000, 1.000000000000000000 ) ) ;
#245 = VERTEX_POINT ( 'NONE', #182 ) ;
#246 = VECTOR ( 'NONE', #848, 1000.000000000000000 ) ;
#247 = ADVANCED_FACE ( 'NONE', ( #330 ), #397, .T. ) ;
#248 = ORIENTED_EDGE ( 'NONE', *, *, #427, .T. ) ;
#249 = CYLINDRICAL_SURFACE ( 'NONE', #20, 1.150000000000000799 ) ;
#250 = CARTESIAN_POINT ( 'NONE',  ( 7.000000000000000000, 7.000000000000000000, 2.000000000000001776 ) ) ;
#251 = DIRECTION ( 'NONE',  ( -1.000000000000000000, 0.000000000000000000, 0.000000000000000000 ) ) ;
#252 = VERTEX_POINT ( 'NONE', #64 ) ;
#253 = EDGE_CURVE ( 'NONE', #557, #361, #144, .T. ) ;
#254 = DIRECTION ( 'NONE',  ( 0.000000000000000000, 0.000000000000000000, 1.000000000000000000 ) ) ;
#255 = ORIENTED_EDGE ( 'NONE', *, *, #321, .F. ) ;
#256 = CARTESIAN_POINT ( 'NONE',  ( -7.000000000000000000, 7.000000000000000000, 0.5500000000000000444 ) ) ;
#257 = APPROVAL ( #478, 'UNSPECIFIED' ) ;
#258 = CARTESIAN_POINT ( 'NONE',  ( 0.000000000000000000, 0.000000000000000000, 2.000000000000000000 ) ) ;
#259 = ORIENTED_EDGE ( 'NONE', *, *, #779, .T. ) ;
#260 = CARTESIAN_POINT ( 'NONE',  ( -7.000000000000000000, 7.000000000000000000, 2.000000000000001776 ) ) ;
#261 = VECTOR ( 'NONE', #116, 1000.000000000000000 ) ;
#262 = AXIS2_PLACEMENT_3D ( 'NONE', #258, #726, #458 ) ;
#263 = MECHANICAL_CONTEXT ( 'NONE', #586, 'mechanical' ) ;
#264 = CIRCLE ( 'NONE', #383, 2.100000000000000089 ) ;
#265 = DIRECTION ( 'NONE',  ( 1.000000000000000000, 0.000000000000000000, 0.000000000000000000 ) ) ;
#266 = CARTESIAN_POINT ( 'NONE',  ( -4.899999999999999467, 7.000000000000000000, 0.000000000000000000 ) ) ;
#267 = EDGE_CURVE ( 'NONE', #245, #98, #264, .T. ) ;
#268 = ORIENTED_EDGE ( 'NONE', *, *, #849, .F. ) ;
#269 = APPLICATION_PROTOCOL_DEFINITION ( 'international standard', 'config_control_design', 1994, #783 ) ;
#270 = ADVANCED_FACE ( 'NONE', ( #142 ), #345, .F. ) ;
#271 = ORIENTED_EDGE ( 'NONE', *, *, #321, .T. ) ;
#272 = DIRECTION ( 'NONE',  ( -1.000000000000000000, 0.000000000000000000, 0.000000000000000000 ) ) ;
#273 = AXIS2_PLACEMENT_3D ( 'NONE', #79, #618, #82 ) ;
#274 = ORIENTED_EDGE ( 'NONE', *, *, #537, .F. ) ;
#275 = LOCAL_TIME ( 21, 58, 24.00000000000000000, #219 ) ;
#276 = ORIENTED_EDGE ( 'NONE', *, *, #348, .T. ) ;
#277 = VECTOR ( 'NONE', #768, 1000.000000000000000 ) ;
#278 = VERTEX_POINT ( 'NONE', #684 ) ;
#279 = FACE_BOUND ( 'NONE', #425, .T. ) ;
#280 = EDGE_CURVE ( 'NONE', #278, #217, #339, .T. ) ;
#281 = DIRECTION ( 'NONE',  ( 1.000000000000000000, 0.000000000000000000, 0.000000000000000000 ) ) ;
#282 = CC_DESIGN_PERSON_AND_ORGANIZATION_ASSIGNMENT ( #19, #749, ( #742 ) ) ;
#283 = PERSON_AND_ORGANIZATION ( #815, #654 ) ;
#284 = ORIENTED_EDGE ( 'NONE', *, *, #300, .T. ) ;
#285 = DIRECTION ( 'NONE',  ( 0.000000000000000000, 0.000000000000000000, 1.000000000000000000 ) ) ;
#286 = AXIS2_PLACEMENT_3D ( 'NONE', #121, #60, #599 ) ;
#287 = APPROVAL_ROLE ( '' ) ;
#288 = AXIS2_PLACEMENT_3D ( 'NONE', #527, #538, #862 ) ;
#289 = ADVANCED_FACE ( 'NONE', ( #279, #16 ), #612, .F. ) ;
#290 = ORIENTED_EDGE ( 'NONE', *, *, #555, .T. ) ;
#291 = DIRECTION ( 'NONE',  ( -1.000000000000000000, 0.000000000000000000, 0.000000000000000000 ) ) ;
#292 = AXIS2_PLACEMENT_3D ( 'NONE', #102, #368, #28 ) ;
#293 = DIRECTION ( 'NONE',  ( 0.000000000000000000, 0.000000000000000000, -1.000000000000000000 ) ) ;
#294 = ORIENTED_EDGE ( 'NONE', *, *, #141, .F. ) ;
#295 = DIRECTION ( 'NONE',  ( 0.000000000000000000, 0.000000000000000000, -1.000000000000000000 ) ) ;
#296 = CARTESIAN_POINT ( 'NONE',  ( 7.000000000000000000, 7.000000000000000000, 0.000000000000000000 ) ) ;
#297 = DIRECTION ( 'NONE',  ( 1.000000000000000000, 0.000000000000000000, -0.000000000000000000 ) ) ;
#298 = EDGE_LOOP ( 'NONE', ( #340, #248, #13, #85 ) ) ;
#299 = FACE_OUTER_BOUND ( 'NONE', #493, .T. ) ;
#300 = EDGE_CURVE ( 'NONE', #31, #592, #302, .T. ) ;
#301 = CARTESIAN_POINT ( 'NONE',  ( 8.150000000000000355, -7.000000000000000000, 0.5500000000000001554 ) ) ;
#302 = CIRCLE ( 'NONE', #741, 1.150000000000000799 ) ;
#303 = AXIS2_PLACEMENT_3D ( 'NONE', #398, #655, #66 ) ;
#304 = LINE ( 'NONE', #841, #754 ) ;
#305 = VERTEX_POINT ( 'NONE', #823 ) ;
#306 = CYLINDRICAL_SURFACE ( 'NONE', #585, 1.150000000000000799 ) ;
#307 = CIRCLE ( 'NONE', #67, 4.000000000000000000 ) ;
#308 = CARTESIAN_POINT ( 'NONE',  ( 7.000000000000000000, 7.000000000000000000, 0.5500000000000001554 ) ) ;
#309 = EDGE_CURVE ( 'NONE', #505, #616, #87, .T. ) ;
#310 = AXIS2_PLACEMENT_3D ( 'NONE', #663, #666, #595 ) ;
#311 = LINE ( 'NONE', #240, #615 ) ;
#312 = ORIENTED_EDGE ( 'NONE', *, *, #113, .F. ) ;
#313 = DIRECTION ( 'NONE',  ( -1.000000000000000000, 0.000000000000000000, 0.000000000000000000 ) ) ;
#314 = DIRECTION ( 'NONE',  ( 1.000000000000000000, 0.000000000000000000, 0.000000000000000000 ) ) ;
#315 = EDGE_CURVE ( 'NONE', #855, #63, #447, .T. ) ;
#316 = DIRECTION ( 'NONE',  ( 0.000000000000000000, 0.000000000000000000, 1.000000000000000000 ) ) ;
#317 = ORIENTED_EDGE ( 'NONE', *, *, #413, .F. ) ;
#318 = CARTESIAN_POINT ( 'NONE',  ( 9.099999999999999645, 7.000000000000000000, 0.5500000000000000444 ) ) ;
#319 = DIRECTION ( 'NONE',  ( 0.000000000000000000, 0.000000000000000000, 1.000000000000000000 ) ) ;
#320 = ORIENTED_EDGE ( 'NONE', *, *, #575, .F. ) ;
#321 = EDGE_CURVE ( 'NONE', #217, #278, #1, .T. ) ;
#322 = CIRCLE ( 'NONE', #4, 2.100000000000000089 ) ;
#323 = CC_DESIGN_APPROVAL ( #680, ( #840 ) ) ;
#324 = ORIENTED_EDGE ( 'NONE', *, *, #413, .T. ) ;
#325 = CARTESIAN_POINT ( 'NONE',  ( 13.00000000000000000, 1.592040838891559095E-15, 0.000000000000000000 ) ) ;
#326 = FACE_OUTER_BOUND ( 'NONE', #688, .T. ) ;
#327 = CC_DESIGN_DATE_AND_TIME_ASSIGNMENT ( #756, #679, ( #742 ) ) ;
#328 = ORIENTED_EDGE ( 'NONE', *, *, #358, .F. ) ;
#329 = DIRECTION ( 'NONE',  ( -1.000000000000000000, 0.000000000000000000, 0.000000000000000000 ) ) ;
#330 = FACE_OUTER_BOUND ( 'NONE', #572, .T. ) ;
#331 = ORIENTED_EDGE ( 'NONE', *, *, #165, .T. ) ;
#332 = CARTESIAN_POINT ( 'NONE',  ( 5.849999999999999645, -7.000000000000000000, 0.5500000000000001554 ) ) ;
#333 = AXIS2_PLACEMENT_3D ( 'NONE', #40, #696, #508 ) ;
#334 = AXIS2_PLACEMENT_3D ( 'NONE', #46, #316, #581 ) ;
#335 = DIRECTION ( 'NONE',  ( -1.000000000000000000, 0.000000000000000000, 0.000000000000000000 ) ) ;
#336 = ADVANCED_FACE ( 'NONE', ( #476, #743, #412, #549, #812, #71 ), #617, .F. ) ;
#337 = AXIS2_PLACEMENT_3D ( 'NONE', #461, #723, #658 ) ;
#338 = AXIS2_PLACEMENT_3D ( 'NONE', #33, #99, #847 ) ;
#339 = CIRCLE ( 'NONE', #273, 2.100000000000000089 ) ;
#340 = ORIENTED_EDGE ( 'NONE', *, *, #495, .T. ) ;
#341 = DIRECTION ( 'NONE',  ( 0.000000000000000000, 0.000000000000000000, 1.000000000000000000 ) ) ;
#342 = DATE_AND_TIME ( #674, #463 ) ;
#343 = EDGE_CURVE ( 'NONE', #616, #505, #709, .T. ) ;
#344 = ORIENTED_EDGE ( 'NONE', *, *, #622, .F. ) ;
#345 = CYLINDRICAL_SURFACE ( 'NONE', #623, 2.100000000000000089 ) ;
#346 = VERTEX_POINT ( 'NONE', #547 ) ;
#347 = APPROVAL_STATUS ( 'not_yet_approved' ) ;
#348 = EDGE_CURVE ( 'NONE', #176, #846, #816, .T. ) ;
#349 = ORIENTED_EDGE ( 'NONE', *, *, #78, .T. ) ;
#350 = DIRECTION ( 'NONE',  ( 1.000000000000000000, 0.000000000000000000, 0.000000000000000000 ) ) ;
#351 = DATE_TIME_ROLE ( 'creation_date' ) ;
#352 = ORIENTED_EDGE ( 'NONE', *, *, #92, .T. ) ;
#353 = DIRECTION ( 'NONE',  ( 0.000000000000000000, 0.000000000000000000, 1.000000000000000000 ) ) ;
#354 = PERSON_AND_ORGANIZATION ( #815, #654 ) ;
#355 = ORIENTED_EDGE ( 'NONE', *, *, #220, .F. ) ;
#356 = DIRECTION ( 'NONE',  ( 0.000000000000000000, 0.000000000000000000, -1.000000000000000000 ) ) ;
#357 = ORIENTED_EDGE ( 'NONE', *, *, #588, .T. ) ;
#358 = EDGE_CURVE ( 'NONE', #346, #485, #137, .T. ) ;
#359 = DATE_AND_TIME ( #132, #140 ) ;
#360 = EDGE_LOOP ( 'NONE', ( #324, #156, #101, #390 ) ) ;
#361 = VERTEX_POINT ( 'NONE', #242 ) ;
#362 = DIRECTION ( 'NONE',  ( 0.000000000000000000, 0.000000000000000000, 1.000000000000000000 ) ) ;
#363 = AXIS2_PLACEMENT_3D ( 'NONE', #23, #95, #366 ) ;
#364 = CC_DESIGN_APPROVAL ( #257, ( #742 ) ) ;
#365 = ORIENTED_EDGE ( 'NONE', *, *, #300, .F. ) ;
#366 = DIRECTION ( 'NONE',  ( 1.000000000000000000, 0.000000000000000000, 0.000000000000000000 ) ) ;
#367 = AXIS2_PLACEMENT_3D ( 'NONE', #584, #568, #44 ) ;
#368 = DIRECTION ( 'NONE',  ( 0.000000000000000000, 0.000000000000000000, 1.000000000000000000 ) ) ;
#369 = CARTESIAN_POINT ( 'NONE',  ( -4.000000000000000000, 0.000000000000000000, 2.000000000000000000 ) ) ;
#370 = EDGE_LOOP ( 'NONE', ( #317, #161 ) ) ;
#371 = CARTESIAN_POINT ( 'NONE',  ( -7.000000000000000000, 7.000000000000000000, 0.5500000000000000444 ) ) ;
#372 = DIRECTION ( 'NONE',  ( 0.000000000000000000, 0.000000000000000000, 1.000000000000000000 ) ) ;
#373 = DIRECTION ( 'NONE',  ( -0.000000000000000000, -0.000000000000000000, -1.000000000000000000 ) ) ;
#374 = APPROVAL ( #347, 'UNSPECIFIED' ) ;
#375 = ORIENTED_EDGE ( 'NONE', *, *, #580, .F. ) ;
#376 = FACE_OUTER_BOUND ( 'NONE', #693, .T. ) ;
#377 = CIRCLE ( 'NONE', #484, 1.149999999999999911 ) ;
#378 = CARTESIAN_POINT ( 'NONE',  ( -9.099999999999999645, -7.000000000000000000, 0.5500000000000000444 ) ) ;
#379 = ORIENTED_EDGE ( 'NONE', *, *, #197, .F. ) ;
#380 = CARTESIAN_POINT ( 'NONE',  ( -4.899999999999999467, 7.000000000000000000, 0.5500000000000000444 ) ) ;
#381 = CIRCLE ( 'NONE', #292, 2.100000000000000089 ) ;
#382 = LINE ( 'NONE', #232, #277 ) ;
#383 = AXIS2_PLACEMENT_3D ( 'NONE', #807, #426, #553 ) ;
#384 = DIRECTION ( 'NONE',  ( 0.000000000000000000, 0.000000000000000000, -1.000000000000000000 ) ) ;
#385 = ORIENTED_EDGE ( 'NONE', *, *, #720, .T. ) ;
#386 = LINE ( 'NONE', #719, #692 ) ;
#387 = DIRECTION ( 'NONE',  ( 0.000000000000000000, 0.000000000000000000, -1.000000000000000000 ) ) ;
#388 = ADVANCED_FACE ( 'NONE', ( #510, #237 ), #643, .F. ) ;
#389 = DIRECTION ( 'NONE',  ( 0.000000000000000000, 0.000000000000000000, 1.000000000000000000 ) ) ;
#390 = ORIENTED_EDGE ( 'NONE', *, *, #348, .F. ) ;
#391 = DIRECTION ( 'NONE',  ( 0.000000000000000000, 0.000000000000000000, -1.000000000000000000 ) ) ;
#392 = CYLINDRICAL_SURFACE ( 'NONE', #202, 2.100000000000000089 ) ;
#393 = AXIS2_PLACEMENT_3D ( 'NONE', #610, #353, #281 ) ;
#394 = LOCAL_TIME ( 21, 58, 24.00000000000000000, #488 ) ;
#395 = ORIENTED_EDGE ( 'NONE', *, *, #489, .T. ) ;
#396 = DIRECTION ( 'NONE',  ( 1.000000000000000000, 0.000000000000000000, 0.000000000000000000 ) ) ;
#397 = CYLINDRICAL_SURFACE ( 'NONE', #310, 13.00000000000000000 ) ;
#398 = CARTESIAN_POINT ( 'NONE',  ( 0.000000000000000000, 0.000000000000000000, 2.000000000000000000 ) ) ;
#399 = ORIENTED_EDGE ( 'NONE', *, *, #183, .T. ) ;
#400 = DIRECTION ( 'NONE',  ( 0.000000000000000000, 0.000000000000000000, -1.000000000000000000 ) ) ;
#401 = CYLINDRICAL_SURFACE ( 'NONE', #117, 1.150000000000000799 ) ;
#402 = ORIENTED_EDGE ( 'NONE', *, *, #83, .T. ) ;
#403 = DIRECTION ( 'NONE',  ( 0.000000000000000000, 0.000000000000000000, -1.000000000000000000 ) ) ;
#404 = CC_DESIGN_PERSON_AND_ORGANIZATION_ASSIGNMENT ( #424, #683, ( #88 ) ) ;
#405 = CARTESIAN_POINT ( 'NONE',  ( -9.099999999999999645, -7.000000000000000000, 0.5500000000000000444 ) ) ;
#406 = DIRECTION ( 'NONE',  ( 0.000000000000000000, 0.000000000000000000, 1.000000000000000000 ) ) ;
#407 = CIRCLE ( 'NONE', #286, 1.149999999999999911 ) ;
#408 = VECTOR ( 'NONE', #196, 1000.000000000000000 ) ;
#409 = VERTEX_POINT ( 'NONE', #843 ) ;
#410 = CIRCLE ( 'NONE', #24, 1.149999999999999911 ) ;
#411 = ORIENTED_EDGE ( 'NONE', *, *, #113, .T. ) ;
#412 = FACE_BOUND ( 'NONE', #589, .T. ) ;
#413 = EDGE_CURVE ( 'NONE', #176, #346, #798, .T. ) ;
#414 = CARTESIAN_POINT ( 'NONE',  ( 7.000000000000000000, -7.000000000000000000, 0.5500000000000000444 ) ) ;
#415 = SECURITY_CLASSIFICATION_LEVEL ( 'unclassified' ) ;
#416 = VECTOR ( 'NONE', #681, 1000.000000000000000 ) ;
#417 = CARTESIAN_POINT ( 'NONE',  ( 8.150000000000000355, 7.000000000000000000, 2.000000000000001776 ) ) ;
#418 = CC_DESIGN_APPROVAL ( #374, ( #88 ) ) ;
#419 = COORDINATED_UNIVERSAL_TIME_OFFSET ( 6, 0, .BEHIND. ) ;
#420 = VECTOR ( 'NONE', #805, 1000.000000000000000 ) ;
#421 = EDGE_LOOP ( 'NONE', ( #736, #179 ) ) ;
#422 = CARTESIAN_POINT ( 'NONE',  ( 7.000000000000000000, -7.000000000000000000, 0.5500000000000000444 ) ) ;
#423 = EDGE_LOOP ( 'NONE', ( #193, #746 ) ) ;
#424 = PERSON_AND_ORGANIZATION ( #815, #654 ) ;
#425 = EDGE_LOOP ( 'NONE', ( #853, #284 ) ) ;
#426 = DIRECTION ( 'NONE',  ( 0.000000000000000000, 0.000000000000000000, 1.000000000000000000 ) ) ;
#427 = EDGE_CURVE ( 'NONE', #42, #499, #225, .T. ) ;
#428 = ORIENTED_EDGE ( 'NONE', *, *, #205, .T. ) ;
#429 = ORIENTED_EDGE ( 'NONE', *, *, #646, .F. ) ;
#430 = DIRECTION ( 'NONE',  ( -1.000000000000000000, 0.000000000000000000, 0.000000000000000000 ) ) ;
#431 = CIRCLE ( 'NONE', #187, 13.00000000000000000 ) ;
#432 = EDGE_CURVE ( 'NONE', #305, #855, #625, .T. ) ;
#433 = CARTESIAN_POINT ( 'NONE',  ( 4.899999999999999467, -7.000000000000000000, 0.000000000000000000 ) ) ;
#434 = VERTEX_POINT ( 'NONE', #708 ) ;
#435 = FACE_BOUND ( 'NONE', #370, .T. ) ;
#436 = DIRECTION ( 'NONE',  ( 0.000000000000000000, 0.000000000000000000, 1.000000000000000000 ) ) ;
#437 = ADVANCED_FACE ( 'NONE', ( #231 ), #445, .F. ) ;
#438 = CARTESIAN_POINT ( 'NONE',  ( 7.000000000000000000, -7.000000000000000000, 0.5500000000000000444 ) ) ;
#439 = ORIENTED_EDGE ( 'NONE', *, *, #309, .T. ) ;
#440 = PLANE ( 'NONE',  #821 ) ;
#441 = DIRECTION ( 'NONE',  ( 0.000000000000000000, 0.000000000000000000, 1.000000000000000000 ) ) ;
#442 = DIRECTION ( 'NONE',  ( -1.000000000000000000, 0.000000000000000000, 0.000000000000000000 ) ) ;
#443 = ADVANCED_FACE ( 'NONE', ( #633 ), #694, .F. ) ;
#444 = EDGE_LOOP ( 'NONE', ( #842, #271, #385, #758 ) ) ;
#445 = CYLINDRICAL_SURFACE ( 'NONE', #567, 4.000000000000000000 ) ;
#446 = CARTESIAN_POINT ( 'NONE',  ( -7.000000000000000000, -7.000000000000000000, 0.5500000000000001554 ) ) ;
#447 = CIRCLE ( 'NONE', #393, 2.100000000000000089 ) ;
#448 = CARTESIAN_POINT ( 'NONE',  ( -5.850000000000000533, -7.000000000000000000, 2.000000000000001776 ) ) ;
#449 = CIRCLE ( 'NONE', #337, 4.000000000000000000 ) ;
#450 = ORIENTED_EDGE ( 'NONE', *, *, #607, .T. ) ;
#451 = DIRECTION ( 'NONE',  ( 0.000000000000000000, 0.000000000000000000, -1.000000000000000000 ) ) ;
#452 = ADVANCED_FACE ( 'NONE', ( #698 ), #500, .F. ) ;
#453 = CIRCLE ( 'NONE', #671, 1.149999999999999911 ) ;
#454 = DIRECTION ( 'NONE',  ( 0.000000000000000000, 0.000000000000000000, 1.000000000000000000 ) ) ;
#455 = DIRECTION ( 'NONE',  ( 0.000000000000000000, 0.000000000000000000, 1.000000000000000000 ) ) ;
#456 = ORIENTED_EDGE ( 'NONE', *, *, #92, .F. ) ;
#457 = DIRECTION ( 'NONE',  ( 0.000000000000000000, 0.000000000000000000, -1.000000000000000000 ) ) ;
#458 = DIRECTION ( 'NONE',  ( 1.000000000000000000, 0.000000000000000000, 0.000000000000000000 ) ) ;
#459 = VERTEX_POINT ( 'NONE', #90 ) ;
#460 = ORIENTED_EDGE ( 'NONE', *, *, #720, .F. ) ;
#461 = CARTESIAN_POINT ( 'NONE',  ( 0.000000000000000000, 0.000000000000000000, 0.000000000000000000 ) ) ;
#462 =( NAMED_UNIT ( * ) SI_UNIT ( $, .STERADIAN. ) SOLID_ANGLE_UNIT ( ) );
#463 = LOCAL_TIME ( 21, 58, 24.00000000000000000, #419 ) ;
#464 = VERTEX_POINT ( 'NONE', #515 ) ;
#465 = DIRECTION ( 'NONE',  ( -1.000000000000000000, 0.000000000000000000, 0.000000000000000000 ) ) ;
#466 = LINE ( 'NONE', #128, #602 ) ;
#467 = ADVANCED_FACE ( 'NONE', ( #629, #781, #767, #435, #299, #506 ), #440, .T. ) ;
#468 = ORIENTED_EDGE ( 'NONE', *, *, #197, .T. ) ;
#469 = CARTESIAN_POINT ( 'NONE',  ( 9.099999999999999645, -7.000000000000000000, 0.5500000000000000444 ) ) ;
#470 = FACE_OUTER_BOUND ( 'NONE', #829, .T. ) ;
#471 = CARTESIAN_POINT ( 'NONE',  ( -8.150000000000000355, 7.000000000000000000, 2.000000000000001776 ) ) ;
#472 = ADVANCED_FACE ( 'NONE', ( #38 ), #306, .F. ) ;
#473 = DIRECTION ( 'NONE',  ( 1.000000000000000000, 0.000000000000000000, 0.000000000000000000 ) ) ;
#474 = LINE ( 'NONE', #471, #408 ) ;
#475 = AXIS2_PLACEMENT_3D ( 'NONE', #830, #635, #297 ) ;
#476 = FACE_BOUND ( 'NONE', #145, .T. ) ;
#477 = EDGE_CURVE ( 'NONE', #217, #245, #859, .T. ) ;
#478 = APPROVAL_STATUS ( 'not_yet_approved' ) ;
#479 = AXIS2_PLACEMENT_3D ( 'NONE', #634, #699, #839 ) ;
#480 = DIRECTION ( 'NONE',  ( 1.000000000000000000, 0.000000000000000000, -0.000000000000000000 ) ) ;
#481 = LINE ( 'NONE', #133, #80 ) ;
#482 = PERSON_AND_ORGANIZATION_ROLE ( 'design_supplier' ) ;
#483 = CARTESIAN_POINT ( 'NONE',  ( 5.849999999999999645, 7.000000000000000000, 2.000000000000001776 ) ) ;
#484 = AXIS2_PLACEMENT_3D ( 'NONE', #717, #244, #570 ) ;
#485 = VERTEX_POINT ( 'NONE', #864 ) ;
#486 = VECTOR ( 'NONE', #384, 1000.000000000000000 ) ;
#487 = VECTOR ( 'NONE', #457, 1000.000000000000000 ) ;
#488 = COORDINATED_UNIVERSAL_TIME_OFFSET ( 6, 0, .BEHIND. ) ;
#489 = EDGE_CURVE ( 'NONE', #305, #722, #322, .T. ) ;
#490 = ORIENTED_EDGE ( 'NONE', *, *, #513, .F. ) ;
#491 = DIRECTION ( 'NONE',  ( 0.000000000000000000, 0.000000000000000000, 1.000000000000000000 ) ) ;
#492 = DATE_AND_TIME ( #820, #275 ) ;
#493 = EDGE_LOOP ( 'NONE', ( #120, #110 ) ) ;
#494 = DIRECTION ( 'NONE',  ( 1.000000000000000000, 0.000000000000000000, -0.000000000000000000 ) ) ;
#495 = EDGE_CURVE ( 'NONE', #582, #42, #824, .T. ) ;
#496 = CARTESIAN_POINT ( 'NONE',  ( 4.000000000000000000, 4.898587196589412829E-16, 2.000000000000000000 ) ) ;
#497 = FACE_BOUND ( 'NONE', #863, .T. ) ;
#498 = EDGE_LOOP ( 'NONE', ( #180, #563, #294, #344 ) ) ;
#499 = VERTEX_POINT ( 'NONE', #525 ) ;
#500 = CYLINDRICAL_SURFACE ( 'NONE', #139, 1.150000000000000799 ) ;
#501 = CARTESIAN_POINT ( 'NONE',  ( -5.850000000000000533, 7.000000000000000000, 2.000000000000001776 ) ) ;
#502 = EDGE_CURVE ( 'NONE', #346, #176, #782, .T. ) ;
#503 = VECTOR ( 'NONE', #752, 1000.000000000000000 ) ;
#504 = CARTESIAN_POINT ( 'NONE',  ( -9.099999999999999645, -7.000000000000000000, 0.000000000000000000 ) ) ;
#505 = VERTEX_POINT ( 'NONE', #469 ) ;
#506 = FACE_BOUND ( 'NONE', #423, .T. ) ;
#507 = DIRECTION ( 'NONE',  ( 0.000000000000000000, 0.000000000000000000, 1.000000000000000000 ) ) ;
#508 = DIRECTION ( 'NONE',  ( 1.000000000000000000, 0.000000000000000000, 0.000000000000000000 ) ) ;
#509 = EDGE_LOOP ( 'NONE', ( #428, #411 ) ) ;
#510 = FACE_BOUND ( 'NONE', #509, .T. ) ;
#511 = CYLINDRICAL_SURFACE ( 'NONE', #218, 1.150000000000000799 ) ;
#512 = FACE_BOUND ( 'NONE', #577, .T. ) ;
#513 = EDGE_CURVE ( 'NONE', #766, #31, #48, .T. ) ;
#514 = ORIENTED_EDGE ( 'NONE', *, *, #239, .T. ) ;
#515 = CARTESIAN_POINT ( 'NONE',  ( -5.850000000000000533, -7.000000000000000000, 0.5500000000000001554 ) ) ;
#516 = CARTESIAN_POINT ( 'NONE',  ( 7.000000000000000000, -7.000000000000000000, 0.000000000000000000 ) ) ;
#517 = AXIS2_PLACEMENT_3D ( 'NONE', #576, #455, #174 ) ;
#518 = CIRCLE ( 'NONE', #171, 13.00000000000000000 ) ;
#519 = FACE_OUTER_BOUND ( 'NONE', #298, .T. ) ;
#520 = ORIENTED_EDGE ( 'NONE', *, *, #8, .T. ) ;
#521 = ORIENTED_EDGE ( 'NONE', *, *, #594, .T. ) ;
#522 = LINE ( 'NONE', #787, #215 ) ;
#523 = DIRECTION ( 'NONE',  ( -1.000000000000000000, 0.000000000000000000, 0.000000000000000000 ) ) ;
#524 = EDGE_LOOP ( 'NONE', ( #838, #673 ) ) ;
#525 = CARTESIAN_POINT ( 'NONE',  ( -5.850000000000000533, 7.000000000000000000, 0.5500000000000001554 ) ) ;
#526 = CARTESIAN_POINT ( 'NONE',  ( -8.150000000000000355, -7.000000000000000000, 2.000000000000001776 ) ) ;
#527 = CARTESIAN_POINT ( 'NONE',  ( -7.000000000000000000, -7.000000000000000000, 0.5500000000000000444 ) ) ;
#528 = ORIENTED_EDGE ( 'NONE', *, *, #234, .F. ) ;
#529 = DIRECTION ( 'NONE',  ( 1.000000000000000000, 0.000000000000000000, 0.000000000000000000 ) ) ;
#530 = CC_DESIGN_PERSON_AND_ORGANIZATION_ASSIGNMENT ( #354, #203, ( #840 ) ) ;
#531 = DIRECTION ( 'NONE',  ( 0.000000000000000000, 0.000000000000000000, -1.000000000000000000 ) ) ;
#532 = APPROVAL_PERSON_ORGANIZATION ( #283, #680, #206 ) ;
#533 = EDGE_LOOP ( 'NONE', ( #642, #546 ) ) ;
#534 = CARTESIAN_POINT ( 'NONE',  ( 7.000000000000000000, 7.000000000000000000, 2.000000000000001776 ) ) ;
#535 = CIRCLE ( 'NONE', #644, 2.100000000000000089 ) ;
#536 = DIRECTION ( 'NONE',  ( 0.000000000000000000, 0.000000000000000000, -1.000000000000000000 ) ) ;
#537 = EDGE_CURVE ( 'NONE', #722, #63, #792, .T. ) ;
#538 = DIRECTION ( 'NONE',  ( 0.000000000000000000, 0.000000000000000000, 1.000000000000000000 ) ) ;
#539 = ADVANCED_FACE ( 'NONE', ( #803 ), #733, .F. ) ;
#540 = DIRECTION ( 'NONE',  ( 0.000000000000000000, 0.000000000000000000, 1.000000000000000000 ) ) ;
#541 = AXIS2_PLACEMENT_3D ( 'NONE', #86, #761, #148 ) ;
#542 =( GEOMETRIC_REPRESENTATION_CONTEXT ( 3 ) GLOBAL_UNCERTAINTY_ASSIGNED_CONTEXT ( ( #597 ) ) GLOBAL_UNIT_ASSIGNED_CONTEXT ( ( #184, #58, #462 ) ) REPRESENTATION_CONTEXT ( 'NONE', 'WORKASPACE' ) );
#543 = EDGE_LOOP ( 'NONE', ( #456, #26 ) ) ;
#544 = EDGE_LOOP ( 'NONE', ( #697, #207 ) ) ;
#545 = SHAPE_DEFINITION_REPRESENTATION ( #211, #695 ) ;
#546 = ORIENTED_EDGE ( 'NONE', *, *, #737, .T. ) ;
#547 = CARTESIAN_POINT ( 'NONE',  ( 8.150000000000000355, 7.000000000000000000, 2.000000000000001776 ) ) ;
#548 = CALENDAR_DATE ( 2026, 12, 9 ) ;
#549 = FACE_BOUND ( 'NONE', #760, .T. ) ;
#550 = ORIENTED_EDGE ( 'NONE', *, *, #513, .T. ) ;
#551 = CC_DESIGN_DATE_AND_TIME_ASSIGNMENT ( #492, #351, ( #840 ) ) ;
#552 = APPROVAL_STATUS ( 'not_yet_approved' ) ;
#553 = DIRECTION ( 'NONE',  ( 1.000000000000000000, 0.000000000000000000, 0.000000000000000000 ) ) ;
#554 = DATE_AND_TIME ( #146, #837 ) ;
#555 = EDGE_CURVE ( 'NONE', #55, #361, #386, .T. ) ;
#556 = AXIS2_PLACEMENT_3D ( 'NONE', #112, #341, #734 ) ;
#557 = VERTEX_POINT ( 'NONE', #325 ) ;
#558 = CARTESIAN_POINT ( 'NONE',  ( -7.000000000000000000, -7.000000000000000000, 2.000000000000001776 ) ) ;
#559 = ORIENTED_EDGE ( 'NONE', *, *, #343, .F. ) ;
#560 = FACE_OUTER_BOUND ( 'NONE', #524, .T. ) ;
#561 = ORIENTED_EDGE ( 'NONE', *, *, #8, .F. ) ;
#562 = ADVANCED_FACE ( 'NONE', ( #590 ), #249, .F. ) ;
#563 = ORIENTED_EDGE ( 'NONE', *, *, #575, .T. ) ;
#564 = CARTESIAN_POINT ( 'NONE',  ( 0.000000000000000000, 0.000000000000000000, 0.000000000000000000 ) ) ;
#565 = CARTESIAN_POINT ( 'NONE',  ( 0.000000000000000000, 0.000000000000000000, 2.000000000000000000 ) ) ;
#566 = ORIENTED_EDGE ( 'NONE', *, *, #502, .T. ) ;
#567 = AXIS2_PLACEMENT_3D ( 'NONE', #833, #43, #313 ) ;
#568 = DIRECTION ( 'NONE',  ( 0.000000000000000000, 0.000000000000000000, 1.000000000000000000 ) ) ;
#569 = APPROVAL_PERSON_ORGANIZATION ( #687, #257, #84 ) ;
#570 = DIRECTION ( 'NONE',  ( 1.000000000000000000, 0.000000000000000000, 0.000000000000000000 ) ) ;
#571 = CIRCLE ( 'NONE', #191, 2.100000000000000089 ) ;
#572 = EDGE_LOOP ( 'NONE', ( #652, #73, #290, #357 ) ) ;
#573 = AXIS2_PLACEMENT_3D ( 'NONE', #49, #319, #238 ) ;
#574 = DIRECTION ( 'NONE',  ( 1.000000000000000000, 0.000000000000000000, 0.000000000000000000 ) ) ;
#575 = EDGE_CURVE ( 'NONE', #505, #780, #522, .T. ) ;
#576 = CARTESIAN_POINT ( 'NONE',  ( 7.000000000000000000, 7.000000000000000000, 0.5500000000000000444 ) ) ;
#577 = EDGE_LOOP ( 'NONE', ( #825, #50 ) ) ;
#578 = DIRECTION ( 'NONE',  ( 0.000000000000000000, 0.000000000000000000, -1.000000000000000000 ) ) ;
#579 = CARTESIAN_POINT ( 'NONE',  ( 5.849999999999999645, 7.000000000000000000, 2.000000000000001776 ) ) ;
#580 = EDGE_CURVE ( 'NONE', #252, #459, #449, .T. ) ;
#581 = DIRECTION ( 'NONE',  ( 1.000000000000000000, 0.000000000000000000, 0.000000000000000000 ) ) ;
#582 = VERTEX_POINT ( 'NONE', #56 ) ;
#583 = DIRECTION ( 'NONE',  ( 0.000000000000000000, 0.000000000000000000, -1.000000000000000000 ) ) ;
#584 = CARTESIAN_POINT ( 'NONE',  ( -7.000000000000000000, -7.000000000000000000, 0.000000000000000000 ) ) ;
#585 = AXIS2_PLACEMENT_3D ( 'NONE', #194, #403, #465 ) ;
#586 = APPLICATION_CONTEXT ( 'configuration controlled 3d designs of mechanical parts and assemblies' ) ;
#587 = CARTESIAN_POINT ( 'NONE',  ( 8.150000000000000355, -7.000000000000000000, 2.000000000000001776 ) ) ;
#588 = EDGE_CURVE ( 'NONE', #361, #557, #431, .T. ) ;
#589 = EDGE_LOOP ( 'NONE', ( #665, #611 ) ) ;
#590 = FACE_OUTER_BOUND ( 'NONE', #241, .T. ) ;
#591 = DIRECTION ( 'NONE',  ( 0.000000000000000000, 0.000000000000000000, -1.000000000000000000 ) ) ;
#592 = VERTEX_POINT ( 'NONE', #332 ) ;
#593 = CARTESIAN_POINT ( 'NONE',  ( 0.000000000000000000, 0.000000000000000000, 0.000000000000000000 ) ) ;
#594 = EDGE_CURVE ( 'NONE', #727, #686, #407, .T. ) ;
#595 = DIRECTION ( 'NONE',  ( -1.000000000000000000, 0.000000000000000000, 0.000000000000000000 ) ) ;
#596 = DIRECTION ( 'NONE',  ( 0.000000000000000000, 0.000000000000000000, -1.000000000000000000 ) ) ;
#597 = UNCERTAINTY_MEASURE_WITH_UNIT (LENGTH_MEASURE( 1.000000000000000082E-05 ), #184, 'distance_accuracy_value', 'NONE');
#598 = VERTEX_POINT ( 'NONE', #769 ) ;
#599 = DIRECTION ( 'NONE',  ( 1.000000000000000000, 0.000000000000000000, 0.000000000000000000 ) ) ;
#600 = CARTESIAN_POINT ( 'NONE',  ( 0.000000000000000000, 0.000000000000000000, 0.000000000000000000 ) ) ;
#601 = CIRCLE ( 'NONE', #333, 1.150000000000000799 ) ;
#602 = VECTOR ( 'NONE', #190, 1000.000000000000000 ) ;
#603 = VECTOR ( 'NONE', #400, 1000.000000000000000 ) ;
#604 = CARTESIAN_POINT ( 'NONE',  ( 0.000000000000000000, 0.000000000000000000, 0.000000000000000000 ) ) ;
#605 = AXIS2_PLACEMENT_3D ( 'NONE', #819, #208, #747 ) ;
#606 = AXIS2_PLACEMENT_3D ( 'NONE', #243, #865, #52 ) ;
#607 = EDGE_CURVE ( 'NONE', #686, #464, #304, .T. ) ;
#608 = DIRECTION ( 'NONE',  ( -1.000000000000000000, 0.000000000000000000, 0.000000000000000000 ) ) ;
#609 = ORIENTED_EDGE ( 'NONE', *, *, #315, .F. ) ;
#610 = CARTESIAN_POINT ( 'NONE',  ( -7.000000000000000000, 7.000000000000000000, 0.000000000000000000 ) ) ;
#611 = ORIENTED_EDGE ( 'NONE', *, *, #315, .T. ) ;
#612 = PLANE ( 'NONE',  #711 ) ;
#613 = VERTEX_POINT ( 'NONE', #631 ) ;
#614 = CIRCLE ( 'NONE', #288, 2.100000000000000089 ) ;
#615 = VECTOR ( 'NONE', #778, 1000.000000000000000 ) ;
#616 = VERTEX_POINT ( 'NONE', #836 ) ;
#617 = PLANE ( 'NONE',  #127 ) ;
#618 = DIRECTION ( 'NONE',  ( 0.000000000000000000, 0.000000000000000000, 1.000000000000000000 ) ) ;
#619 = ADVANCED_FACE ( 'NONE', ( #497, #34 ), #640, .F. ) ;
#620 = EDGE_LOOP ( 'NONE', ( #123, #550, #429, #22 ) ) ;
#621 = DIRECTION ( 'NONE',  ( 1.000000000000000000, 0.000000000000000000, 0.000000000000000000 ) ) ;
#622 = EDGE_CURVE ( 'NONE', #616, #689, #93, .T. ) ;
#623 = AXIS2_PLACEMENT_3D ( 'NONE', #422, #356, #272 ) ;
#624 = ORIENTED_EDGE ( 'NONE', *, *, #280, .F. ) ;
#625 = LINE ( 'NONE', #380, #35 ) ;
#626 = AXIS2_PLACEMENT_3D ( 'NONE', #122, #667, #664 ) ;
#627 = EDGE_CURVE ( 'NONE', #613, #464, #377, .T. ) ;
#628 = VERTEX_POINT ( 'NONE', #369 ) ;
#629 = FACE_BOUND ( 'NONE', #230, .T. ) ;
#630 = DIRECTION ( 'NONE',  ( 1.000000000000000000, 0.000000000000000000, 0.000000000000000000 ) ) ;
#631 = CARTESIAN_POINT ( 'NONE',  ( -8.150000000000000355, -7.000000000000000000, 0.5500000000000001554 ) ) ;
#632 = ORIENTED_EDGE ( 'NONE', *, *, #607, .F. ) ;
#633 = FACE_OUTER_BOUND ( 'NONE', #620, .T. ) ;
#634 = CARTESIAN_POINT ( 'NONE',  ( -7.000000000000000000, -7.000000000000000000, 2.000000000000001776 ) ) ;
#635 = DIRECTION ( 'NONE',  ( 0.000000000000000000, 0.000000000000000000, 1.000000000000000000 ) ) ;
#636 = EDGE_LOOP ( 'NONE', ( #802, #395, #763, #609 ) ) ;
#637 = ADVANCED_FACE ( 'NONE', ( #785 ), #154, .F. ) ;
#638 = DIRECTION ( 'NONE',  ( 1.000000000000000000, 0.000000000000000000, 0.000000000000000000 ) ) ;
#639 = CC_DESIGN_SECURITY_CLASSIFICATION ( #742, ( #88 ) ) ;
#640 = PLANE ( 'NONE',  #517 ) ;
#641 = CLOSED_SHELL ( 'NONE', ( #539, #861, #18, #270, #443, #170, #748, #209, #437, #70, #467, #336, #247, #774, #562, #216, #452, #472, #701, #289, #685, #656, #813, #388, #637, #619 ) ) ;
#642 = ORIENTED_EDGE ( 'NONE', *, *, #126, .T. ) ;
#643 = PLANE ( 'NONE',  #75 ) ;
#644 = AXIS2_PLACEMENT_3D ( 'NONE', #724, #797, #473 ) ;
#645 = CYLINDRICAL_SURFACE ( 'NONE', #659, 13.00000000000000000 ) ;
#646 = EDGE_CURVE ( 'NONE', #592, #31, #601, .T. ) ;
#647 = CARTESIAN_POINT ( 'NONE',  ( -8.150000000000000355, -7.000000000000000000, 2.000000000000001776 ) ) ;
#648 = ORIENTED_EDGE ( 'NONE', *, *, #477, .T. ) ;
#649 = CARTESIAN_POINT ( 'NONE',  ( 8.150000000000000355, -7.000000000000000000, 2.000000000000001776 ) ) ;
#650 = DIRECTION ( 'NONE',  ( 0.000000000000000000, 0.000000000000000000, 1.000000000000000000 ) ) ;
#651 = CYLINDRICAL_SURFACE ( 'NONE', #53, 2.100000000000000089 ) ;
#652 = ORIENTED_EDGE ( 'NONE', *, *, #706, .F. ) ;
#653 = DIRECTION ( 'NONE',  ( 0.000000000000000000, 0.000000000000000000, -1.000000000000000000 ) ) ;
#654 = ORGANIZATION ( 'UNSPECIFIED', 'UNSPECIFIED', '' ) ;
#655 = DIRECTION ( 'NONE',  ( 0.000000000000000000, 0.000000000000000000, 1.000000000000000000 ) ) ;
#656 = ADVANCED_FACE ( 'NONE', ( #512, #560 ), #29, .F. ) ;
#657 = EDGE_LOOP ( 'NONE', ( #352, #817, #731, #274 ) ) ;
#658 = DIRECTION ( 'NONE',  ( 1.000000000000000000, 0.000000000000000000, 0.000000000000000000 ) ) ;
#659 = AXIS2_PLACEMENT_3D ( 'NONE', #226, #163, #784 ) ;
#660 = APPLICATION_PROTOCOL_DEFINITION ( 'international standard', 'config_control_design', 1994, #586 ) ;
#661 = ORIENTED_EDGE ( 'NONE', *, *, #61, .T. ) ;
#662 = DIRECTION ( 'NONE',  ( 0.000000000000000000, 0.000000000000000000, 1.000000000000000000 ) ) ;
#663 = CARTESIAN_POINT ( 'NONE',  ( 0.000000000000000000, 0.000000000000000000, 2.000000000000000000 ) ) ;
#664 = DIRECTION ( 'NONE',  ( -1.000000000000000000, 0.000000000000000000, 0.000000000000000000 ) ) ;
#665 = ORIENTED_EDGE ( 'NONE', *, *, #54, .T. ) ;
#666 = DIRECTION ( 'NONE',  ( -0.000000000000000000, -0.000000000000000000, -1.000000000000000000 ) ) ;
#667 = DIRECTION ( 'NONE',  ( -0.000000000000000000, -0.000000000000000000, -1.000000000000000000 ) ) ;
#668 = VECTOR ( 'NONE', #451, 1000.000000000000000 ) ;
#669 = AXIS2_PLACEMENT_3D ( 'NONE', #438, #293, #705 ) ;
#670 = EDGE_LOOP ( 'NONE', ( #738, #713 ) ) ;
#671 = AXIS2_PLACEMENT_3D ( 'NONE', #151, #372, #630 ) ;
#672 = CIRCLE ( 'NONE', #41, 1.150000000000000799 ) ;
#673 = ORIENTED_EDGE ( 'NONE', *, *, #779, .F. ) ;
#674 = CALENDAR_DATE ( 2026, 12, 9 ) ;
#675 = ORIENTED_EDGE ( 'NONE', *, *, #627, .F. ) ;
#676 = ORIENTED_EDGE ( 'NONE', *, *, #716, .F. ) ;
#677 = DIRECTION ( 'NONE',  ( 0.000000000000000000, 0.000000000000000000, 1.000000000000000000 ) ) ;
#678 = DIRECTION ( 'NONE',  ( -0.000000000000000000, -0.000000000000000000, -1.000000000000000000 ) ) ;
#679 = DATE_TIME_ROLE ( 'classification_date' ) ;
#680 = APPROVAL ( #552, 'UNSPECIFIED' ) ;
#681 = DIRECTION ( 'NONE',  ( 0.000000000000000000, 0.000000000000000000, -1.000000000000000000 ) ) ;
#682 = AXIS2_PLACEMENT_3D ( 'NONE', #296, #39, #704 ) ;
#683 = PERSON_AND_ORGANIZATION_ROLE ( 'creator' ) ;
#684 = CARTESIAN_POINT ( 'NONE',  ( 4.899999999999999467, 7.000000000000000000, 0.5500000000000000444 ) ) ;
#685 = ADVANCED_FACE ( 'NONE', ( #164 ), #103, .F. ) ;
#686 = VERTEX_POINT ( 'NONE', #448 ) ;
#687 = PERSON_AND_ORGANIZATION ( #815, #654 ) ;
#688 = EDGE_LOOP ( 'NONE', ( #561, #236, #47, #827 ) ) ;
#689 = VERTEX_POINT ( 'NONE', #433 ) ;
#690 = EDGE_CURVE ( 'NONE', #37, #55, #518, .T. ) ;
#691 = VERTEX_POINT ( 'NONE', #504 ) ;
#692 = VECTOR ( 'NONE', #851, 1000.000000000000000 ) ;
#693 = EDGE_LOOP ( 'NONE', ( #521, #450, #675, #831 ) ) ;
#694 = CYLINDRICAL_SURFACE ( 'NONE', #169, 1.150000000000000799 ) ;
#695 = ADVANCED_BREP_SHAPE_REPRESENTATION ( 'ARM-112_SG90_horn_capture_cap', ( #762, #77 ), #542 ) ;
#696 = DIRECTION ( 'NONE',  ( 0.000000000000000000, 0.000000000000000000, 1.000000000000000000 ) ) ;
#697 = ORIENTED_EDGE ( 'NONE', *, *, #594, .F. ) ;
#698 = FACE_OUTER_BOUND ( 'NONE', #130, .T. ) ;
#699 = DIRECTION ( 'NONE',  ( 0.000000000000000000, 0.000000000000000000, 1.000000000000000000 ) ) ;
#700 = CARTESIAN_POINT ( 'NONE',  ( 7.000000000000000000, 7.000000000000000000, 0.5500000000000000444 ) ) ;
#701 = ADVANCED_FACE ( 'NONE', ( #712 ), #25, .F. ) ;
#702 = ORIENTED_EDGE ( 'NONE', *, *, #280, .T. ) ;
#703 = DIRECTION ( 'NONE',  ( 1.000000000000000000, 0.000000000000000000, -0.000000000000000000 ) ) ;
#704 = DIRECTION ( 'NONE',  ( 1.000000000000000000, 0.000000000000000000, 0.000000000000000000 ) ) ;
#705 = DIRECTION ( 'NONE',  ( -1.000000000000000000, 0.000000000000000000, 0.000000000000000000 ) ) ;
#706 = EDGE_CURVE ( 'NONE', #37, #557, #100, .T. ) ;
#707 = EDGE_LOOP ( 'NONE', ( #624, #255 ) ) ;
#708 = CARTESIAN_POINT ( 'NONE',  ( -4.899999999999999467, -7.000000000000000000, 0.5500000000000000444 ) ) ;
#709 = CIRCLE ( 'NONE', #65, 2.100000000000000089 ) ;
#710 = CARTESIAN_POINT ( 'NONE',  ( -13.00000000000000000, 0.000000000000000000, 2.000000000000000000 ) ) ;
#711 = AXIS2_PLACEMENT_3D ( 'NONE', #17, #491, #200 ) ;
#712 = FACE_OUTER_BOUND ( 'NONE', #795, .T. ) ;
#713 = ORIENTED_EDGE ( 'NONE', *, *, #253, .F. ) ;
#714 = AXIS2_PLACEMENT_3D ( 'NONE', #250, #591, #335 ) ;
#715 = DIRECTION ( 'NONE',  ( 1.000000000000000000, 0.000000000000000000, 0.000000000000000000 ) ) ;
#716 = EDGE_CURVE ( 'NONE', #224, #691, #845, .T. ) ;
#717 = CARTESIAN_POINT ( 'NONE',  ( -7.000000000000000000, -7.000000000000000000, 0.5500000000000001554 ) ) ;
#718 = EDGE_LOOP ( 'NONE', ( #791, #468, #12, #676 ) ) ;
#719 = CARTESIAN_POINT ( 'NONE',  ( -13.00000000000000000, 0.000000000000000000, 2.000000000000000000 ) ) ;
#720 = EDGE_CURVE ( 'NONE', #278, #98, #311, .T. ) ;
#721 = CARTESIAN_POINT ( 'NONE',  ( -7.000000000000000000, 7.000000000000000000, 0.5500000000000000444 ) ) ;
#722 = VERTEX_POINT ( 'NONE', #223 ) ;
#723 = DIRECTION ( 'NONE',  ( 0.000000000000000000, 0.000000000000000000, 1.000000000000000000 ) ) ;
#724 = CARTESIAN_POINT ( 'NONE',  ( 7.000000000000000000, -7.000000000000000000, 0.000000000000000000 ) ) ;
#725 = AXIS2_PLACEMENT_3D ( 'NONE', #735, #801, #794 ) ;
#726 = DIRECTION ( 'NONE',  ( 0.000000000000000000, 0.000000000000000000, 1.000000000000000000 ) ) ;
#727 = VERTEX_POINT ( 'NONE', #647 ) ;
#728 = DIRECTION ( 'NONE',  ( 1.000000000000000000, 0.000000000000000000, 0.000000000000000000 ) ) ;
#729 = CIRCLE ( 'NONE', #573, 1.149999999999999911 ) ;
#730 = DIRECTION ( 'NONE',  ( -1.000000000000000000, 0.000000000000000000, 0.000000000000000000 ) ) ;
#731 = ORIENTED_EDGE ( 'NONE', *, *, #54, .F. ) ;
#732 = EDGE_LOOP ( 'NONE', ( #559, #138 ) ) ;
#733 = CYLINDRICAL_SURFACE ( 'NONE', #810, 2.100000000000000089 ) ;
#734 = DIRECTION ( 'NONE',  ( 1.000000000000000000, 0.000000000000000000, 0.000000000000000000 ) ) ;
#735 = CARTESIAN_POINT ( 'NONE',  ( 7.000000000000000000, 7.000000000000000000, 0.5500000000000001554 ) ) ;
#736 = ORIENTED_EDGE ( 'NONE', *, *, #580, .T. ) ;
#737 = EDGE_CURVE ( 'NONE', #59, #691, #155, .T. ) ;
#738 = ORIENTED_EDGE ( 'NONE', *, *, #588, .F. ) ;
#739 = CYLINDRICAL_SURFACE ( 'NONE', #104, 1.150000000000000799 ) ;
#740 = CARTESIAN_POINT ( 'NONE',  ( 9.099999999999999645, -7.000000000000000000, 0.000000000000000000 ) ) ;
#741 = AXIS2_PLACEMENT_3D ( 'NONE', #14, #285, #621 ) ;
#742 = SECURITY_CLASSIFICATION ( '', '', #415 ) ;
#743 = FACE_BOUND ( 'NONE', #533, .T. ) ;
#744 = CIRCLE ( 'NONE', #770, 1.150000000000000799 ) ;
#745 = PERSON_AND_ORGANIZATION ( #815, #654 ) ;
#746 = ORIENTED_EDGE ( 'NONE', *, *, #800, .F. ) ;
#747 = DIRECTION ( 'NONE',  ( 1.000000000000000000, 0.000000000000000000, 0.000000000000000000 ) ) ;
#748 = ADVANCED_FACE ( 'NONE', ( #519 ), #401, .F. ) ;
#749 = PERSON_AND_ORGANIZATION_ROLE ( 'classification_officer' ) ;
#750 = ORIENTED_EDGE ( 'NONE', *, *, #690, .F. ) ;
#751 = ORIENTED_EDGE ( 'NONE', *, *, #788, .F. ) ;
#752 = DIRECTION ( 'NONE',  ( 0.000000000000000000, 0.000000000000000000, -1.000000000000000000 ) ) ;
#753 = APPROVAL_DATE_TIME ( #359, #257 ) ;
#754 = VECTOR ( 'NONE', #765, 1000.000000000000000 ) ;
#755 = CIRCLE ( 'NONE', #143, 2.100000000000000089 ) ;
#756 = DATE_AND_TIME ( #548, #394 ) ;
#757 = AXIS2_PLACEMENT_3D ( 'NONE', #604, #5, #265 ) ;
#758 = ORIENTED_EDGE ( 'NONE', *, *, #267, .F. ) ;
#759 = EDGE_CURVE ( 'NONE', #55, #37, #227, .T. ) ;
#760 = EDGE_LOOP ( 'NONE', ( #661, #858 ) ) ;
#761 = DIRECTION ( 'NONE',  ( 0.000000000000000000, 0.000000000000000000, 1.000000000000000000 ) ) ;
#762 = MANIFOLD_SOLID_BREP ( 'Head_recess_depth0p55', #641 ) ;
#763 = ORIENTED_EDGE ( 'NONE', *, *, #537, .T. ) ;
#764 = DIRECTION ( 'NONE',  ( 1.000000000000000000, 0.000000000000000000, 0.000000000000000000 ) ) ;
#765 = DIRECTION ( 'NONE',  ( 0.000000000000000000, 0.000000000000000000, -1.000000000000000000 ) ) ;
#766 = VERTEX_POINT ( 'NONE', #587 ) ;
#767 = FACE_BOUND ( 'NONE', #822, .T. ) ;
#768 = DIRECTION ( 'NONE',  ( 0.000000000000000000, 0.000000000000000000, -1.000000000000000000 ) ) ;
#769 = CARTESIAN_POINT ( 'NONE',  ( 5.849999999999999645, -7.000000000000000000, 2.000000000000001776 ) ) ;
#770 = AXIS2_PLACEMENT_3D ( 'NONE', #308, #650, #574 ) ;
#771 = ORIENTED_EDGE ( 'NONE', *, *, #61, .F. ) ;
#772 = CARTESIAN_POINT ( 'NONE',  ( 0.000000000000000000, 0.000000000000000000, 2.000000000000000000 ) ) ;
#773 = CYLINDRICAL_SURFACE ( 'NONE', #129, 2.100000000000000089 ) ;
#774 = ADVANCED_FACE ( 'NONE', ( #326 ), #808, .F. ) ;
#775 = CARTESIAN_POINT ( 'NONE',  ( 4.899999999999999467, -7.000000000000000000, 0.5500000000000000444 ) ) ;
#776 = EDGE_LOOP ( 'NONE', ( #702, #648, #771, #460 ) ) ;
#777 = CARTESIAN_POINT ( 'NONE',  ( -7.000000000000000000, -7.000000000000000000, 2.000000000000001776 ) ) ;
#778 = DIRECTION ( 'NONE',  ( 0.000000000000000000, 0.000000000000000000, -1.000000000000000000 ) ) ;
#779 = EDGE_CURVE ( 'NONE', #434, #224, #614, .T. ) ;
#780 = VERTEX_POINT ( 'NONE', #740 ) ;
#781 = FACE_BOUND ( 'NONE', #544, .T. ) ;
#782 = CIRCLE ( 'NONE', #201, 1.150000000000000799 ) ;
#783 = APPLICATION_CONTEXT ( 'configuration controlled 3d designs of mechanical parts and assemblies' ) ;
#784 = DIRECTION ( 'NONE',  ( -1.000000000000000000, 0.000000000000000000, 0.000000000000000000 ) ) ;
#785 = FACE_OUTER_BOUND ( 'NONE', #444, .T. ) ;
#786 = ORIENTED_EDGE ( 'NONE', *, *, #849, .T. ) ;
#787 = CARTESIAN_POINT ( 'NONE',  ( 9.099999999999999645, -7.000000000000000000, 0.5500000000000000444 ) ) ;
#788 = EDGE_CURVE ( 'NONE', #628, #252, #466, .T. ) ;
#789 = CARTESIAN_POINT ( 'NONE',  ( -7.000000000000000000, 7.000000000000000000, 2.000000000000001776 ) ) ;
#790 = ORIENTED_EDGE ( 'NONE', *, *, #427, .F. ) ;
#791 = ORIENTED_EDGE ( 'NONE', *, *, #30, .T. ) ;
#792 = LINE ( 'NONE', #181, #487 ) ;
#793 = DIRECTION ( 'NONE',  ( 0.000000000000000000, 0.000000000000000000, -1.000000000000000000 ) ) ;
#794 = DIRECTION ( 'NONE',  ( 1.000000000000000000, 0.000000000000000000, 0.000000000000000000 ) ) ;
#795 = EDGE_LOOP ( 'NONE', ( #320, #439, #185, #528 ) ) ;
#796 = DIRECTION ( 'NONE',  ( 0.000000000000000000, 0.000000000000000000, 1.000000000000000000 ) ) ;
#797 = DIRECTION ( 'NONE',  ( 0.000000000000000000, 0.000000000000000000, 1.000000000000000000 ) ) ;
#798 = CIRCLE ( 'NONE', #363, 1.150000000000000799 ) ;
#799 = CIRCLE ( 'NONE', #725, 1.150000000000000799 ) ;
#800 = EDGE_CURVE ( 'NONE', #131, #628, #188, .T. ) ;
#801 = DIRECTION ( 'NONE',  ( 0.000000000000000000, 0.000000000000000000, 1.000000000000000000 ) ) ;
#802 = ORIENTED_EDGE ( 'NONE', *, *, #432, .F. ) ;
#803 = FACE_OUTER_BOUND ( 'NONE', #776, .T. ) ;
#804 = VECTOR ( 'NONE', #793, 1000.000000000000000 ) ;
#805 = DIRECTION ( 'NONE',  ( 0.000000000000000000, 0.000000000000000000, -1.000000000000000000 ) ) ;
#806 = CC_DESIGN_PERSON_AND_ORGANIZATION_ASSIGNMENT ( #134, #482, ( #88 ) ) ;
#807 = CARTESIAN_POINT ( 'NONE',  ( 7.000000000000000000, 7.000000000000000000, 0.000000000000000000 ) ) ;
#808 = CYLINDRICAL_SURFACE ( 'NONE', #626, 4.000000000000000000 ) ;
#809 = DIRECTION ( 'NONE',  ( 1.000000000000000000, 0.000000000000000000, 0.000000000000000000 ) ) ;
#810 = AXIS2_PLACEMENT_3D ( 'NONE', #106, #583, #329 ) ;
#811 = APPROVAL_PERSON_ORGANIZATION ( #72, #374, #287 ) ;
#812 = FACE_OUTER_BOUND ( 'NONE', #670, .T. ) ;
#813 = ADVANCED_FACE ( 'NONE', ( #199 ), #392, .F. ) ;
#814 = ORIENTED_EDGE ( 'NONE', *, *, #141, .T. ) ;
#815 = PERSON ( 'UNSPECIFIED', 'UNSPECIFIED', 'UNSPECIFIED', ('UNSPECIFIED'), ('UNSPECIFIED'), ('UNSPECIFIED') ) ;
#816 = LINE ( 'NONE', #483, #503 ) ;
#817 = ORIENTED_EDGE ( 'NONE', *, *, #432, .T. ) ;
#818 = DIRECTION ( 'NONE',  ( 0.000000000000000000, 0.000000000000000000, 1.000000000000000000 ) ) ;
#819 = CARTESIAN_POINT ( 'NONE',  ( 0.000000000000000000, 0.000000000000000000, 2.000000000000000000 ) ) ;
#820 = CALENDAR_DATE ( 2026, 12, 9 ) ;
#821 = AXIS2_PLACEMENT_3D ( 'NONE', #772, #162, #703 ) ;
#822 = EDGE_LOOP ( 'NONE', ( #94, #204 ) ) ;
#823 = CARTESIAN_POINT ( 'NONE',  ( -4.899999999999999467, 7.000000000000000000, 0.5500000000000000444 ) ) ;
#824 = CIRCLE ( 'NONE', #153, 1.149999999999999911 ) ;
#825 = ORIENTED_EDGE ( 'NONE', *, *, #627, .T. ) ;
#826 = CIRCLE ( 'NONE', #556, 1.149999999999999911 ) ;
#827 = ORIENTED_EDGE ( 'NONE', *, *, #152, .F. ) ;
#828 = DIRECTION ( 'NONE',  ( -1.000000000000000000, 0.000000000000000000, 0.000000000000000000 ) ) ;
#829 = EDGE_LOOP ( 'NONE', ( #790, #172, #136, #312 ) ) ;
#830 = CARTESIAN_POINT ( 'NONE',  ( -7.000000000000000000, -7.000000000000000000, 0.5500000000000000444 ) ) ;
#831 = ORIENTED_EDGE ( 'NONE', *, *, #239, .F. ) ;
#832 = ORIENTED_EDGE ( 'NONE', *, *, #253, .T. ) ;
#833 = CARTESIAN_POINT ( 'NONE',  ( 0.000000000000000000, 0.000000000000000000, 2.000000000000000000 ) ) ;
#834 = EDGE_CURVE ( 'NONE', #582, #409, #474, .T. ) ;
#835 = FACE_OUTER_BOUND ( 'NONE', #9, .T. ) ;
#836 = CARTESIAN_POINT ( 'NONE',  ( 4.899999999999999467, -7.000000000000000000, 0.5500000000000000444 ) ) ;
#837 = LOCAL_TIME ( 21, 58, 24.00000000000000000, #15 ) ;
#838 = ORIENTED_EDGE ( 'NONE', *, *, #30, .F. ) ;
#839 = DIRECTION ( 'NONE',  ( 1.000000000000000000, 0.000000000000000000, 0.000000000000000000 ) ) ;
#840 = PRODUCT_DEFINITION ( 'UNKNOWN', '', #88, #229 ) ;
#841 = CARTESIAN_POINT ( 'NONE',  ( -5.850000000000000533, -7.000000000000000000, 2.000000000000001776 ) ) ;
#842 = ORIENTED_EDGE ( 'NONE', *, *, #477, .F. ) ;
#843 = CARTESIAN_POINT ( 'NONE',  ( -8.150000000000000355, 7.000000000000000000, 0.5500000000000001554 ) ) ;
#844 = CARTESIAN_POINT ( 'NONE',  ( -7.000000000000000000, -7.000000000000000000, 0.5500000000000000444 ) ) ;
#845 = LINE ( 'NONE', #378, #486 ) ;
#846 = VERTEX_POINT ( 'NONE', #125 ) ;
#847 = DIRECTION ( 'NONE',  ( 1.000000000000000000, 0.000000000000000000, 0.000000000000000000 ) ) ;
#848 = DIRECTION ( 'NONE',  ( 0.000000000000000000, 0.000000000000000000, -1.000000000000000000 ) ) ;
#849 = EDGE_CURVE ( 'NONE', #485, #846, #799, .T. ) ;
#850 = ORIENTED_EDGE ( 'NONE', *, *, #234, .T. ) ;
#851 = DIRECTION ( 'NONE',  ( -0.000000000000000000, -0.000000000000000000, -1.000000000000000000 ) ) ;
#852 = LINE ( 'NONE', #69, #420 ) ;
#853 = ORIENTED_EDGE ( 'NONE', *, *, #646, .T. ) ;
#854 = CIRCLE ( 'NONE', #479, 1.149999999999999911 ) ;
#855 = VERTEX_POINT ( 'NONE', #266 ) ;
#856 = DIRECTION ( 'NONE',  ( -1.000000000000000000, 0.000000000000000000, 0.000000000000000000 ) ) ;
#857 = DIRECTION ( 'NONE',  ( 0.000000000000000000, 0.000000000000000000, -1.000000000000000000 ) ) ;
#858 = ORIENTED_EDGE ( 'NONE', *, *, #267, .T. ) ;
#859 = LINE ( 'NONE', #318, #603 ) ;
#860 = CYLINDRICAL_SURFACE ( 'NONE', #714, 1.150000000000000799 ) ;
#861 = ADVANCED_FACE ( 'NONE', ( #62 ), #651, .F. ) ;
#862 = DIRECTION ( 'NONE',  ( 1.000000000000000000, 0.000000000000000000, 0.000000000000000000 ) ) ;
#863 = EDGE_LOOP ( 'NONE', ( #402, #786 ) ) ;
#864 = CARTESIAN_POINT ( 'NONE',  ( 8.150000000000000355, 7.000000000000000000, 0.5500000000000001554 ) ) ;
#865 = DIRECTION ( 'NONE',  ( 0.000000000000000000, 0.000000000000000000, 1.000000000000000000 ) ) ;
ENDSEC;
END-ISO-10303-21;
