ISO-10303-21;
HEADER;
FILE_DESCRIPTION (( 'STEP AP203' ),
    '1' );
FILE_NAME ('ARM-106_M3_standoff_24mm.step',
    '2026-09-07T21:13:57',
    ( '' ),
    ( '' ),
    'SwSTEP 2.0',
    'SolidWorks 2026',
    '' );
FILE_SCHEMA (( 'CONFIG_CONTROL_DESIGN' ));
ENDSEC;

DATA;
#1 = CARTESIAN_POINT ( 'NONE',  ( -4.000000000000000000, 0.000000000000000000, 24.00000000000000000 ) ) ;
#2 = EDGE_LOOP ( 'NONE', ( #36, #20 ) ) ;
#3 = EDGE_LOOP ( 'NONE', ( #245, #234 ) ) ;
#4 = EDGE_CURVE ( 'NONE', #194, #112, #92, .T. ) ;
#5 = DIRECTION ( 'NONE',  ( -0.000000000000000000, -0.000000000000000000, -1.000000000000000000 ) ) ;
#6 = APPROVAL ( #47, 'UNSPECIFIED' ) ;
#7 = LOCAL_TIME ( 16, 13, 57.00000000000000000, #166 ) ;
#8 =( NAMED_UNIT ( * ) SI_UNIT ( $, .STERADIAN. ) SOLID_ANGLE_UNIT ( ) );
#9 = DIRECTION ( 'NONE',  ( 1.000000000000000000, 0.000000000000000000, 0.000000000000000000 ) ) ;
#10 = DIRECTION ( 'NONE',  ( 1.000000000000000000, 0.000000000000000000, 0.000000000000000000 ) ) ;
#11 = FACE_OUTER_BOUND ( 'NONE', #38, .T. ) ;
#12 = SECURITY_CLASSIFICATION_LEVEL ( 'unclassified' ) ;
#13 = EDGE_CURVE ( 'NONE', #112, #191, #96, .T. ) ;
#14 = PERSON_AND_ORGANIZATION ( #202, #124 ) ;
#15 = APPROVAL_ROLE ( '' ) ;
#16 = AXIS2_PLACEMENT_3D ( 'NONE', #195, #120, #9 ) ;
#17 = CYLINDRICAL_SURFACE ( 'NONE', #155, 4.000000000000000000 ) ;
#18 = DIRECTION ( 'NONE',  ( 0.000000000000000000, 0.000000000000000000, 1.000000000000000000 ) ) ;
#19 = CC_DESIGN_PERSON_AND_ORGANIZATION_ASSIGNMENT ( #207, #104, ( #145 ) ) ;
#20 = ORIENTED_EDGE ( 'NONE', *, *, #236, .F. ) ;
#21 = AXIS2_PLACEMENT_3D ( 'NONE', #142, #101, #176 ) ;
#22 = ORIENTED_EDGE ( 'NONE', *, *, #162, .F. ) ;
#23 = EDGE_CURVE ( 'NONE', #194, #231, #134, .T. ) ;
#24 = ORIENTED_EDGE ( 'NONE', *, *, #67, .T. ) ;
#25 = CARTESIAN_POINT ( 'NONE',  ( 0.000000000000000000, 0.000000000000000000, 24.00000000000000000 ) ) ;
#26 = UNCERTAINTY_MEASURE_WITH_UNIT (LENGTH_MEASURE( 1.000000000000000082E-05 ), #31, 'distance_accuracy_value', 'NONE');
#27 = APPROVAL_PERSON_ORGANIZATION ( #180, #6, #246 ) ;
#28 = CARTESIAN_POINT ( 'NONE',  ( 4.000000000000000000, 4.898587196589412829E-16, 24.00000000000000000 ) ) ;
#29 = ADVANCED_FACE ( 'NONE', ( #56, #52 ), #37, .F. ) ;
#30 = DIRECTION ( 'NONE',  ( 0.000000000000000000, 0.000000000000000000, 1.000000000000000000 ) ) ;
#31 =( LENGTH_UNIT ( ) NAMED_UNIT ( * ) SI_UNIT ( .MILLI., .METRE. ) );
#32 = CIRCLE ( 'NONE', #16, 4.000000000000000000 ) ;
#33 = CARTESIAN_POINT ( 'NONE',  ( 0.000000000000000000, 0.000000000000000000, 0.000000000000000000 ) ) ;
#34 = PERSON_AND_ORGANIZATION_ROLE ( 'design_supplier' ) ;
#35 = SHAPE_DEFINITION_REPRESENTATION ( #183, #119 ) ;
#36 = ORIENTED_EDGE ( 'NONE', *, *, #232, .F. ) ;
#37 = PLANE ( 'NONE',  #85 ) ;
#38 = EDGE_LOOP ( 'NONE', ( #215, #109, #216, #22 ) ) ;
#39 = DIRECTION ( 'NONE',  ( 0.000000000000000000, 0.000000000000000000, 1.000000000000000000 ) ) ;
#40 = EDGE_LOOP ( 'NONE', ( #164, #55, #152, #229 ) ) ;
#41 = CARTESIAN_POINT ( 'NONE',  ( -1.600000000000000089, 0.000000000000000000, 24.00000000000000000 ) ) ;
#42 = CARTESIAN_POINT ( 'NONE',  ( 0.000000000000000000, 0.000000000000000000, 24.00000000000000000 ) ) ;
#43 = DIRECTION ( 'NONE',  ( 1.000000000000000000, 0.000000000000000000, 0.000000000000000000 ) ) ;
#44 = VECTOR ( 'NONE', #75, 1000.000000000000000 ) ;
#45 = DATE_AND_TIME ( #130, #211 ) ;
#46 = APPROVAL_PERSON_ORGANIZATION ( #165, #189, #68 ) ;
#47 = APPROVAL_STATUS ( 'not_yet_approved' ) ;
#48 = DATE_TIME_ROLE ( 'creation_date' ) ;
#49 = CIRCLE ( 'NONE', #192, 4.000000000000000000 ) ;
#50 = DIRECTION ( 'NONE',  ( 0.000000000000000000, 0.000000000000000000, 1.000000000000000000 ) ) ;
#51 = ADVANCED_FACE ( 'NONE', ( #111, #193 ), #209, .T. ) ;
#52 = FACE_BOUND ( 'NONE', #150, .T. ) ;
#53 = ORIENTED_EDGE ( 'NONE', *, *, #126, .F. ) ;
#54 = LOCAL_TIME ( 16, 13, 57.00000000000000000, #243 ) ;
#55 = ORIENTED_EDGE ( 'NONE', *, *, #23, .T. ) ;
#56 = FACE_OUTER_BOUND ( 'NONE', #2, .T. ) ;
#57 = CARTESIAN_POINT ( 'NONE',  ( -1.600000000000000089, 0.000000000000000000, 24.00000000000000000 ) ) ;
#58 = CIRCLE ( 'NONE', #235, 1.600000000000000089 ) ;
#59 = LINE ( 'NONE', #138, #156 ) ;
#60 = CARTESIAN_POINT ( 'NONE',  ( -4.000000000000000000, 0.000000000000000000, 24.00000000000000000 ) ) ;
#61 = DIRECTION ( 'NONE',  ( 0.000000000000000000, 0.000000000000000000, 1.000000000000000000 ) ) ;
#62 = CYLINDRICAL_SURFACE ( 'NONE', #89, 1.600000000000000089 ) ;
#63 = ADVANCED_FACE ( 'NONE', ( #93 ), #17, .T. ) ;
#64 = CC_DESIGN_DATE_AND_TIME_ASSIGNMENT ( #208, #48, ( #199 ) ) ;
#65 = PERSON_AND_ORGANIZATION ( #202, #124 ) ;
#66 = COORDINATED_UNIVERSAL_TIME_OFFSET ( 6, 0, .BEHIND. ) ;
#67 = EDGE_CURVE ( 'NONE', #74, #94, #170, .T. ) ;
#68 = APPROVAL_ROLE ( '' ) ;
#69 =( GEOMETRIC_REPRESENTATION_CONTEXT ( 3 ) GLOBAL_UNCERTAINTY_ASSIGNED_CONTEXT ( ( #26 ) ) GLOBAL_UNIT_ASSIGNED_CONTEXT ( ( #31, #174, #8 ) ) REPRESENTATION_CONTEXT ( 'NONE', 'WORKASPACE' ) );
#70 = PERSON_AND_ORGANIZATION_ROLE ( 'creator' ) ;
#71 = ADVANCED_FACE ( 'NONE', ( #11 ), #62, .F. ) ;
#72 = ORIENTED_EDGE ( 'NONE', *, *, #186, .T. ) ;
#73 = CC_DESIGN_PERSON_AND_ORGANIZATION_ASSIGNMENT ( #228, #206, ( #86 ) ) ;
#74 = VERTEX_POINT ( 'NONE', #60 ) ;
#75 = DIRECTION ( 'NONE',  ( -0.000000000000000000, -0.000000000000000000, -1.000000000000000000 ) ) ;
#76 = DIRECTION ( 'NONE',  ( 1.000000000000000000, 0.000000000000000000, 0.000000000000000000 ) ) ;
#77 = ORIENTED_EDGE ( 'NONE', *, *, #244, .T. ) ;
#78 = FACE_OUTER_BOUND ( 'NONE', #40, .T. ) ;
#79 = CC_DESIGN_PERSON_AND_ORGANIZATION_ASSIGNMENT ( #14, #182, ( #99 ) ) ;
#80 = DIRECTION ( 'NONE',  ( 1.000000000000000000, 0.000000000000000000, 0.000000000000000000 ) ) ;
#81 = CARTESIAN_POINT ( 'NONE',  ( 4.000000000000000000, 4.898587196589412829E-16, 0.000000000000000000 ) ) ;
#82 = CARTESIAN_POINT ( 'NONE',  ( 0.000000000000000000, 0.000000000000000000, 0.000000000000000000 ) ) ;
#83 = CIRCLE ( 'NONE', #227, 1.600000000000000089 ) ;
#84 = DATE_TIME_ROLE ( 'classification_date' ) ;
#85 = AXIS2_PLACEMENT_3D ( 'NONE', #132, #39, #113 ) ;
#86 = PRODUCT_DEFINITION_FORMATION_WITH_SPECIFIED_SOURCE ( 'ANY', '', #99, .NOT_KNOWN. ) ;
#87 = ORIENTED_EDGE ( 'NONE', *, *, #162, .T. ) ;
#88 = CALENDAR_DATE ( 2026, 7, 9 ) ;
#89 = AXIS2_PLACEMENT_3D ( 'NONE', #122, #175, #141 ) ;
#90 = AXIS2_PLACEMENT_3D ( 'NONE', #163, #50, #108 ) ;
#91 = CARTESIAN_POINT ( 'NONE',  ( 0.000000000000000000, 0.000000000000000000, 24.00000000000000000 ) ) ;
#92 = CIRCLE ( 'NONE', #127, 1.600000000000000089 ) ;
#93 = FACE_OUTER_BOUND ( 'NONE', #135, .T. ) ;
#94 = VERTEX_POINT ( 'NONE', #238 ) ;
#95 = ORIENTED_EDGE ( 'NONE', *, *, #168, .F. ) ;
#96 = LINE ( 'NONE', #57, #242 ) ;
#97 = ADVANCED_FACE ( 'NONE', ( #140 ), #218, .T. ) ;
#98 = CARTESIAN_POINT ( 'NONE',  ( 0.000000000000000000, 0.000000000000000000, 0.000000000000000000 ) ) ;
#99 = PRODUCT ( 'ARM-106_M3_standoff_24mm', 'ARM-106_M3_standoff_24mm', '', ( #106 ) ) ;
#100 = CC_DESIGN_APPROVAL ( #189, ( #145 ) ) ;
#101 = DIRECTION ( 'NONE',  ( -0.000000000000000000, -0.000000000000000000, -1.000000000000000000 ) ) ;
#102 = DIRECTION ( 'NONE',  ( 0.000000000000000000, 0.000000000000000000, 1.000000000000000000 ) ) ;
#103 = AXIS2_PLACEMENT_3D ( 'NONE', #33, #102, #117 ) ;
#104 = PERSON_AND_ORGANIZATION_ROLE ( 'classification_officer' ) ;
#105 = CLOSED_SHELL ( 'NONE', ( #196, #97, #51, #29, #63, #71 ) ) ;
#106 = MECHANICAL_CONTEXT ( 'NONE', #213, 'mechanical' ) ;
#107 = CALENDAR_DATE ( 2026, 7, 9 ) ;
#108 = DIRECTION ( 'NONE',  ( 1.000000000000000000, 0.000000000000000000, 0.000000000000000000 ) ) ;
#109 = ORIENTED_EDGE ( 'NONE', *, *, #4, .T. ) ;
#110 = CC_DESIGN_APPROVAL ( #6, ( #86 ) ) ;
#111 = FACE_OUTER_BOUND ( 'NONE', #3, .T. ) ;
#112 = VERTEX_POINT ( 'NONE', #41 ) ;
#113 = DIRECTION ( 'NONE',  ( 1.000000000000000000, 0.000000000000000000, -0.000000000000000000 ) ) ;
#114 = DESIGN_CONTEXT ( 'detailed design', #139, 'design' ) ;
#115 = ORIENTED_EDGE ( 'NONE', *, *, #186, .F. ) ;
#116 = DIRECTION ( 'NONE',  ( 0.000000000000000000, 0.000000000000000000, 1.000000000000000000 ) ) ;
#117 = DIRECTION ( 'NONE',  ( 1.000000000000000000, 0.000000000000000000, 0.000000000000000000 ) ) ;
#118 = CARTESIAN_POINT ( 'NONE',  ( 1.600000000000000089, 1.959434878635765230E-16, 24.00000000000000000 ) ) ;
#119 = ADVANCED_BREP_SHAPE_REPRESENTATION ( 'ARM-106_M3_standoff_24mm', ( #121, #90 ), #69 ) ;
#120 = DIRECTION ( 'NONE',  ( 0.000000000000000000, 0.000000000000000000, 1.000000000000000000 ) ) ;
#121 = MANIFOLD_SOLID_BREP ( 'Standoff_OD8_ID3p2', #105 ) ;
#122 = CARTESIAN_POINT ( 'NONE',  ( 0.000000000000000000, 0.000000000000000000, 24.00000000000000000 ) ) ;
#123 = CIRCLE ( 'NONE', #136, 4.000000000000000000 ) ;
#124 = ORGANIZATION ( 'UNSPECIFIED', 'UNSPECIFIED', '' ) ;
#125 = APPROVAL_DATE_TIME ( #45, #189 ) ;
#126 = EDGE_CURVE ( 'NONE', #74, #128, #123, .T. ) ;
#127 = AXIS2_PLACEMENT_3D ( 'NONE', #230, #154, #76 ) ;
#128 = VERTEX_POINT ( 'NONE', #28 ) ;
#129 = APPROVAL_DATE_TIME ( #225, #6 ) ;
#130 = CALENDAR_DATE ( 2026, 7, 9 ) ;
#131 = COORDINATED_UNIVERSAL_TIME_OFFSET ( 6, 0, .BEHIND. ) ;
#132 = CARTESIAN_POINT ( 'NONE',  ( 0.000000000000000000, 0.000000000000000000, 0.000000000000000000 ) ) ;
#133 = DIRECTION ( 'NONE',  ( -0.000000000000000000, -0.000000000000000000, -1.000000000000000000 ) ) ;
#134 = LINE ( 'NONE', #233, #161 ) ;
#135 = EDGE_LOOP ( 'NONE', ( #115, #53, #24, #171 ) ) ;
#136 = AXIS2_PLACEMENT_3D ( 'NONE', #25, #116, #43 ) ;
#137 = VERTEX_POINT ( 'NONE', #81 ) ;
#138 = CARTESIAN_POINT ( 'NONE',  ( 4.000000000000000000, 4.898587196589412829E-16, 24.00000000000000000 ) ) ;
#139 = APPLICATION_CONTEXT ( 'configuration controlled 3d designs of mechanical parts and assemblies' ) ;
#140 = FACE_OUTER_BOUND ( 'NONE', #214, .T. ) ;
#141 = DIRECTION ( 'NONE',  ( -1.000000000000000000, 0.000000000000000000, 0.000000000000000000 ) ) ;
#142 = CARTESIAN_POINT ( 'NONE',  ( 0.000000000000000000, 0.000000000000000000, 24.00000000000000000 ) ) ;
#143 = EDGE_CURVE ( 'NONE', #128, #74, #32, .T. ) ;
#144 = DATE_AND_TIME ( #181, #158 ) ;
#145 = SECURITY_CLASSIFICATION ( '', '', #12 ) ;
#146 = PRODUCT_RELATED_PRODUCT_CATEGORY ( 'detail', '', ( #99 ) ) ;
#147 = CALENDAR_DATE ( 2026, 7, 9 ) ;
#148 = APPROVAL_STATUS ( 'not_yet_approved' ) ;
#149 = PERSON_AND_ORGANIZATION ( #202, #124 ) ;
#150 = EDGE_LOOP ( 'NONE', ( #77, #87 ) ) ;
#151 = EDGE_LOOP ( 'NONE', ( #95, #212 ) ) ;
#152 = ORIENTED_EDGE ( 'NONE', *, *, #244, .F. ) ;
#153 = DIRECTION ( 'NONE',  ( -0.000000000000000000, -0.000000000000000000, -1.000000000000000000 ) ) ;
#154 = DIRECTION ( 'NONE',  ( 0.000000000000000000, 0.000000000000000000, 1.000000000000000000 ) ) ;
#155 = AXIS2_PLACEMENT_3D ( 'NONE', #91, #169, #249 ) ;
#156 = VECTOR ( 'NONE', #5, 1000.000000000000000 ) ;
#157 = DIRECTION ( 'NONE',  ( 1.000000000000000000, 0.000000000000000000, 0.000000000000000000 ) ) ;
#158 = LOCAL_TIME ( 16, 13, 57.00000000000000000, #66 ) ;
#159 = CARTESIAN_POINT ( 'NONE',  ( 0.000000000000000000, 0.000000000000000000, 24.00000000000000000 ) ) ;
#160 = CIRCLE ( 'NONE', #177, 4.000000000000000000 ) ;
#161 = VECTOR ( 'NONE', #133, 1000.000000000000000 ) ;
#162 = EDGE_CURVE ( 'NONE', #231, #191, #203, .T. ) ;
#163 = CARTESIAN_POINT ( 'NONE',  ( 0.000000000000000000, 0.000000000000000000, 0.000000000000000000 ) ) ;
#164 = ORIENTED_EDGE ( 'NONE', *, *, #168, .T. ) ;
#165 = PERSON_AND_ORGANIZATION ( #202, #124 ) ;
#166 = COORDINATED_UNIVERSAL_TIME_OFFSET ( 6, 0, .BEHIND. ) ;
#167 = AXIS2_PLACEMENT_3D ( 'NONE', #42, #241, #220 ) ;
#168 = EDGE_CURVE ( 'NONE', #112, #194, #58, .T. ) ;
#169 = DIRECTION ( 'NONE',  ( -0.000000000000000000, -0.000000000000000000, -1.000000000000000000 ) ) ;
#170 = LINE ( 'NONE', #1, #44 ) ;
#171 = ORIENTED_EDGE ( 'NONE', *, *, #232, .T. ) ;
#172 = ORIENTED_EDGE ( 'NONE', *, *, #143, .F. ) ;
#173 = APPLICATION_PROTOCOL_DEFINITION ( 'international standard', 'config_control_design', 1994, #213 ) ;
#174 =( NAMED_UNIT ( * ) PLANE_ANGLE_UNIT ( ) SI_UNIT ( $, .RADIAN. ) );
#175 = DIRECTION ( 'NONE',  ( -0.000000000000000000, -0.000000000000000000, -1.000000000000000000 ) ) ;
#176 = DIRECTION ( 'NONE',  ( -1.000000000000000000, 0.000000000000000000, 0.000000000000000000 ) ) ;
#177 = AXIS2_PLACEMENT_3D ( 'NONE', #200, #61, #80 ) ;
#178 = DATE_AND_TIME ( #88, #54 ) ;
#179 = CC_DESIGN_PERSON_AND_ORGANIZATION_ASSIGNMENT ( #204, #70, ( #199 ) ) ;
#180 = PERSON_AND_ORGANIZATION ( #202, #124 ) ;
#181 = CALENDAR_DATE ( 2026, 7, 9 ) ;
#182 = PERSON_AND_ORGANIZATION_ROLE ( 'design_owner' ) ;
#183 = PRODUCT_DEFINITION_SHAPE ( 'NONE', 'NONE',  #199 ) ;
#184 = APPLICATION_PROTOCOL_DEFINITION ( 'international standard', 'config_control_design', 1994, #139 ) ;
#185 = CC_DESIGN_PERSON_AND_ORGANIZATION_ASSIGNMENT ( #149, #34, ( #86 ) ) ;
#186 = EDGE_CURVE ( 'NONE', #128, #137, #59, .T. ) ;
#187 = CC_DESIGN_SECURITY_CLASSIFICATION ( #145, ( #86 ) ) ;
#188 = DIRECTION ( 'NONE',  ( 1.000000000000000000, 0.000000000000000000, -0.000000000000000000 ) ) ;
#189 = APPROVAL ( #223, 'UNSPECIFIED' ) ;
#190 = CARTESIAN_POINT ( 'NONE',  ( 0.000000000000000000, 0.000000000000000000, 24.00000000000000000 ) ) ;
#191 = VERTEX_POINT ( 'NONE', #217 ) ;
#192 = AXIS2_PLACEMENT_3D ( 'NONE', #82, #30, #197 ) ;
#193 = FACE_BOUND ( 'NONE', #151, .T. ) ;
#194 = VERTEX_POINT ( 'NONE', #118 ) ;
#195 = CARTESIAN_POINT ( 'NONE',  ( 0.000000000000000000, 0.000000000000000000, 24.00000000000000000 ) ) ;
#196 = ADVANCED_FACE ( 'NONE', ( #78 ), #222, .F. ) ;
#197 = DIRECTION ( 'NONE',  ( 1.000000000000000000, 0.000000000000000000, 0.000000000000000000 ) ) ;
#198 = CC_DESIGN_APPROVAL ( #240, ( #199 ) ) ;
#199 = PRODUCT_DEFINITION ( 'UNKNOWN', '', #86, #114 ) ;
#200 = CARTESIAN_POINT ( 'NONE',  ( 0.000000000000000000, 0.000000000000000000, 0.000000000000000000 ) ) ;
#201 = DIRECTION ( 'NONE',  ( 0.000000000000000000, 0.000000000000000000, 1.000000000000000000 ) ) ;
#202 = PERSON ( 'UNSPECIFIED', 'UNSPECIFIED', 'UNSPECIFIED', ('UNSPECIFIED'), ('UNSPECIFIED'), ('UNSPECIFIED') ) ;
#203 = CIRCLE ( 'NONE', #103, 1.600000000000000089 ) ;
#204 = PERSON_AND_ORGANIZATION ( #202, #124 ) ;
#205 = ORIENTED_EDGE ( 'NONE', *, *, #67, .F. ) ;
#206 = PERSON_AND_ORGANIZATION_ROLE ( 'creator' ) ;
#207 = PERSON_AND_ORGANIZATION ( #202, #124 ) ;
#208 = DATE_AND_TIME ( #147, #7 ) ;
#209 = PLANE ( 'NONE',  #210 ) ;
#210 = AXIS2_PLACEMENT_3D ( 'NONE', #190, #18, #188 ) ;
#211 = LOCAL_TIME ( 16, 13, 57.00000000000000000, #226 ) ;
#212 = ORIENTED_EDGE ( 'NONE', *, *, #4, .F. ) ;
#213 = APPLICATION_CONTEXT ( 'configuration controlled 3d designs of mechanical parts and assemblies' ) ;
#214 = EDGE_LOOP ( 'NONE', ( #172, #72, #248, #205 ) ) ;
#215 = ORIENTED_EDGE ( 'NONE', *, *, #23, .F. ) ;
#216 = ORIENTED_EDGE ( 'NONE', *, *, #13, .T. ) ;
#217 = CARTESIAN_POINT ( 'NONE',  ( -1.600000000000000089, 0.000000000000000000, 0.000000000000000000 ) ) ;
#218 = CYLINDRICAL_SURFACE ( 'NONE', #167, 4.000000000000000000 ) ;
#219 = CC_DESIGN_DATE_AND_TIME_ASSIGNMENT ( #144, #84, ( #145 ) ) ;
#220 = DIRECTION ( 'NONE',  ( -1.000000000000000000, 0.000000000000000000, 0.000000000000000000 ) ) ;
#221 = CARTESIAN_POINT ( 'NONE',  ( 1.600000000000000089, 1.959434878635765230E-16, 0.000000000000000000 ) ) ;
#222 = CYLINDRICAL_SURFACE ( 'NONE', #21, 1.600000000000000089 ) ;
#223 = APPROVAL_STATUS ( 'not_yet_approved' ) ;
#224 = LOCAL_TIME ( 16, 13, 57.00000000000000000, #131 ) ;
#225 = DATE_AND_TIME ( #107, #224 ) ;
#226 = COORDINATED_UNIVERSAL_TIME_OFFSET ( 6, 0, .BEHIND. ) ;
#227 = AXIS2_PLACEMENT_3D ( 'NONE', #98, #201, #10 ) ;
#228 = PERSON_AND_ORGANIZATION ( #202, #124 ) ;
#229 = ORIENTED_EDGE ( 'NONE', *, *, #13, .F. ) ;
#230 = CARTESIAN_POINT ( 'NONE',  ( 0.000000000000000000, 0.000000000000000000, 24.00000000000000000 ) ) ;
#231 = VERTEX_POINT ( 'NONE', #221 ) ;
#232 = EDGE_CURVE ( 'NONE', #94, #137, #160, .T. ) ;
#233 = CARTESIAN_POINT ( 'NONE',  ( 1.600000000000000089, 1.959434878635765230E-16, 24.00000000000000000 ) ) ;
#234 = ORIENTED_EDGE ( 'NONE', *, *, #143, .T. ) ;
#235 = AXIS2_PLACEMENT_3D ( 'NONE', #159, #239, #157 ) ;
#236 = EDGE_CURVE ( 'NONE', #137, #94, #49, .T. ) ;
#237 = APPROVAL_PERSON_ORGANIZATION ( #65, #240, #15 ) ;
#238 = CARTESIAN_POINT ( 'NONE',  ( -4.000000000000000000, 0.000000000000000000, 0.000000000000000000 ) ) ;
#239 = DIRECTION ( 'NONE',  ( 0.000000000000000000, 0.000000000000000000, 1.000000000000000000 ) ) ;
#240 = APPROVAL ( #148, 'UNSPECIFIED' ) ;
#241 = DIRECTION ( 'NONE',  ( -0.000000000000000000, -0.000000000000000000, -1.000000000000000000 ) ) ;
#242 = VECTOR ( 'NONE', #153, 1000.000000000000000 ) ;
#243 = COORDINATED_UNIVERSAL_TIME_OFFSET ( 6, 0, .BEHIND. ) ;
#244 = EDGE_CURVE ( 'NONE', #191, #231, #83, .T. ) ;
#245 = ORIENTED_EDGE ( 'NONE', *, *, #126, .T. ) ;
#246 = APPROVAL_ROLE ( '' ) ;
#247 = APPROVAL_DATE_TIME ( #178, #240 ) ;
#248 = ORIENTED_EDGE ( 'NONE', *, *, #236, .T. ) ;
#249 = DIRECTION ( 'NONE',  ( -1.000000000000000000, 0.000000000000000000, 0.000000000000000000 ) ) ;
ENDSEC;
END-ISO-10303-21;
