ISO-10303-21;
HEADER;
FILE_DESCRIPTION (( 'STEP AP203' ),
    '1' );
FILE_NAME ('ARM-104_Elbow_bearing_cheek.step',
    '2026-09-07T21:13:46',
    ( '' ),
    ( '' ),
    'SwSTEP 2.0',
    'SolidWorks 2026',
    '' );
FILE_SCHEMA (( 'CONFIG_CONTROL_DESIGN' ));
ENDSEC;

DATA;
#1 = ORIENTED_EDGE ( 'NONE', *, *, #705, .F. ) ;
#2 = DIRECTION ( 'NONE',  ( 0.000000000000000000, 0.000000000000000000, -1.000000000000000000 ) ) ;
#3 = EDGE_CURVE ( 'NONE', #587, #459, #548, .T. ) ;
#4 = ORIENTED_EDGE ( 'NONE', *, *, #589, .F. ) ;
#5 = CALENDAR_DATE ( 2026, 7, 9 ) ;
#6 = CARTESIAN_POINT ( 'NONE',  ( 0.000000000000000000, -13.00000000000000000, 6.999999999999999112 ) ) ;
#7 = EDGE_CURVE ( 'NONE', #295, #459, #143, .T. ) ;
#8 = ORIENTED_EDGE ( 'NONE', *, *, #705, .T. ) ;
#9 = AXIS2_PLACEMENT_3D ( 'NONE', #150, #328, #330 ) ;
#10 = CARTESIAN_POINT ( 'NONE',  ( 26.60000000000000142, -9.000000000000000000, 0.000000000000000000 ) ) ;
#11 = ORIENTED_EDGE ( 'NONE', *, *, #521, .F. ) ;
#12 = CALENDAR_DATE ( 2026, 7, 9 ) ;
#13 = DIRECTION ( 'NONE',  ( -1.000000000000000000, -0.000000000000000000, -0.000000000000000000 ) ) ;
#14 = VERTEX_POINT ( 'NONE', #136 ) ;
#15 = AXIS2_PLACEMENT_3D ( 'NONE', #460, #346, #281 ) ;
#16 = DIRECTION ( 'NONE',  ( 0.000000000000000000, 0.000000000000000000, 1.000000000000000000 ) ) ;
#17 = ORIENTED_EDGE ( 'NONE', *, *, #600, .F. ) ;
#18 = CARTESIAN_POINT ( 'NONE',  ( -16.00000000000000000, 0.000000000000000000, 7.000000000000000000 ) ) ;
#19 = ADVANCED_FACE ( 'NONE', ( #85 ), #432, .F. ) ;
#20 = CIRCLE ( 'NONE', #649, 1.100000000000000311 ) ;
#21 = EDGE_LOOP ( 'NONE', ( #682, #298 ) ) ;
#22 = CYLINDRICAL_SURFACE ( 'NONE', #123, 16.00000000000000000 ) ;
#23 = AXIS2_PLACEMENT_3D ( 'NONE', #73, #470, #305 ) ;
#24 = EDGE_LOOP ( 'NONE', ( #749, #199 ) ) ;
#25 = DIRECTION ( 'NONE',  ( 0.000000000000000000, 0.000000000000000000, -1.000000000000000000 ) ) ;
#26 = EDGE_LOOP ( 'NONE', ( #642, #356, #197, #376 ) ) ;
#27 = EDGE_CURVE ( 'NONE', #639, #14, #379, .T. ) ;
#28 = MANIFOLD_SOLID_BREP ( 'Bearing_keeper_fasteners', #70 ) ;
#29 = DIRECTION ( 'NONE',  ( -0.000000000000000000, -0.000000000000000000, -1.000000000000000000 ) ) ;
#30 = AXIS2_PLACEMENT_3D ( 'NONE', #161, #394, #567 ) ;
#31 = EDGE_LOOP ( 'NONE', ( #635, #74, #571, #733 ) ) ;
#32 = CC_DESIGN_DATE_AND_TIME_ASSIGNMENT ( #495, #265, ( #736 ) ) ;
#33 = DIRECTION ( 'NONE',  ( 1.000000000000000000, 0.000000000000000000, 0.000000000000000000 ) ) ;
#34 = FACE_OUTER_BOUND ( 'NONE', #255, .T. ) ;
#35 = ORIENTED_EDGE ( 'NONE', *, *, #145, .T. ) ;
#36 = CARTESIAN_POINT ( 'NONE',  ( 30.00000000000000000, -14.00000000000000000, 4.000000000000000000 ) ) ;
#37 = DIRECTION ( 'NONE',  ( -1.000000000000000000, 0.000000000000000000, -0.000000000000000000 ) ) ;
#38 = VERTEX_POINT ( 'NONE', #102 ) ;
#39 = CARTESIAN_POINT ( 'NONE',  ( 25.00000000000000000, 9.000000000000000000, 0.000000000000000000 ) ) ;
#40 = CARTESIAN_POINT ( 'NONE',  ( -13.00000000000000000, 0.000000000000000000, 6.999999999999999112 ) ) ;
#41 = EDGE_CURVE ( 'NONE', #341, #587, #219, .T. ) ;
#42 = PRODUCT_DEFINITION_FORMATION_WITH_SPECIFIED_SOURCE ( 'ANY', '', #129, .NOT_KNOWN. ) ;
#43 = CARTESIAN_POINT ( 'NONE',  ( 25.00000000000000000, -9.000000000000000000, 6.999999999999999112 ) ) ;
#44 = ORIENTED_EDGE ( 'NONE', *, *, #646, .F. ) ;
#45 = AXIS2_PLACEMENT_3D ( 'NONE', #688, #446, #37 ) ;
#46 = CIRCLE ( 'NONE', #84, 1.600000000000000755 ) ;
#47 = CARTESIAN_POINT ( 'NONE',  ( 0.000000000000000000, 0.000000000000000000, 7.000000000000000000 ) ) ;
#48 = FACE_BOUND ( 'NONE', #707, .T. ) ;
#49 = CARTESIAN_POINT ( 'NONE',  ( 0.000000000000000000, 13.00000000000000000, 6.999999999999999112 ) ) ;
#50 = ORIENTED_EDGE ( 'NONE', *, *, #743, .F. ) ;
#51 = CARTESIAN_POINT ( 'NONE',  ( -1.100000000000000089, -13.00000000000000000, 6.999999999999999112 ) ) ;
#52 = CIRCLE ( 'NONE', #747, 1.600000000000000755 ) ;
#53 = CARTESIAN_POINT ( 'NONE',  ( 25.00000000000000000, 9.000000000000000000, 6.999999999999999112 ) ) ;
#54 = ADVANCED_FACE ( 'NONE', ( #111, #169, #561 ), #158, .F. ) ;
#55 = EDGE_LOOP ( 'NONE', ( #333, #686 ) ) ;
#56 = CARTESIAN_POINT ( 'NONE',  ( 30.00000000000000000, 14.00000000000000000, 4.000000000000000000 ) ) ;
#57 = APPROVAL_PERSON_ORGANIZATION ( #492, #332, #712 ) ;
#58 = VERTEX_POINT ( 'NONE', #402 ) ;
#59 = PERSON_AND_ORGANIZATION ( #232, #157 ) ;
#60 = EDGE_CURVE ( 'NONE', #95, #177, #638, .T. ) ;
#61 = FACE_OUTER_BOUND ( 'NONE', #116, .T. ) ;
#62 = ORIENTED_EDGE ( 'NONE', *, *, #7, .T. ) ;
#63 = DIRECTION ( 'NONE',  ( 0.000000000000000000, 0.000000000000000000, -1.000000000000000000 ) ) ;
#64 = AXIS2_PLACEMENT_3D ( 'NONE', #659, #16, #134 ) ;
#65 = CARTESIAN_POINT ( 'NONE',  ( -1.100000000000000089, 13.00000000000000000, 6.999999999999999112 ) ) ;
#66 = ADVANCED_FACE ( 'NONE', ( #392 ), #289, .F. ) ;
#67 = ORIENTED_EDGE ( 'NONE', *, *, #458, .T. ) ;
#68 = PERSON_AND_ORGANIZATION_ROLE ( 'creator' ) ;
#69 = CARTESIAN_POINT ( 'NONE',  ( 0.000000000000000000, 14.00000000000000000, 0.000000000000000000 ) ) ;
#70 = CLOSED_SHELL ( 'NONE', ( #309, #699, #66, #122, #541, #377, #165, #233, #621, #487, #463, #159, #409, #725, #54, #82, #227, #372, #19, #139 ) ) ;
#71 = ORIENTED_EDGE ( 'NONE', *, *, #694, .F. ) ;
#72 = CIRCLE ( 'NONE', #499, 1.100000000000000089 ) ;
#73 = CARTESIAN_POINT ( 'NONE',  ( 0.000000000000000000, 0.000000000000000000, 0.000000000000000000 ) ) ;
#74 = ORIENTED_EDGE ( 'NONE', *, *, #729, .T. ) ;
#75 = CARTESIAN_POINT ( 'NONE',  ( 7.745966692414832266, 14.00000000000000000, 4.000000000000000000 ) ) ;
#76 = ORIENTED_EDGE ( 'NONE', *, *, #477, .T. ) ;
#77 = EDGE_CURVE ( 'NONE', #345, #241, #340, .T. ) ;
#78 = VECTOR ( 'NONE', #97, 1000.000000000000000 ) ;
#79 = DIRECTION ( 'NONE',  ( -0.000000000000000000, -0.000000000000000000, -1.000000000000000000 ) ) ;
#80 = ORIENTED_EDGE ( 'NONE', *, *, #3, .T. ) ;
#81 = APPROVAL_PERSON_ORGANIZATION ( #247, #358, #479 ) ;
#82 = ADVANCED_FACE ( 'NONE', ( #294 ), #461, .F. ) ;
#83 = CARTESIAN_POINT ( 'NONE',  ( 0.000000000000000000, 0.000000000000000000, 0.000000000000000000 ) ) ;
#84 = AXIS2_PLACEMENT_3D ( 'NONE', #663, #383, #726 ) ;
#85 = FACE_OUTER_BOUND ( 'NONE', #417, .T. ) ;
#86 = CARTESIAN_POINT ( 'NONE',  ( 23.40000000000000213, -9.000000000000000000, 4.000000000000000000 ) ) ;
#87 = EDGE_CURVE ( 'NONE', #306, #562, #545, .T. ) ;
#88 = CIRCLE ( 'NONE', #422, 16.00000000000000000 ) ;
#89 = CARTESIAN_POINT ( 'NONE',  ( -1.100000000000000089, 13.00000000000000000, 6.999999999999999112 ) ) ;
#90 = VECTOR ( 'NONE', #186, 1000.000000000000000 ) ;
#91 = CARTESIAN_POINT ( 'NONE',  ( 0.000000000000000000, 0.000000000000000000, 7.000000000000000000 ) ) ;
#92 = EDGE_LOOP ( 'NONE', ( #540, #192, #62, #592 ) ) ;
#93 = CARTESIAN_POINT ( 'NONE',  ( -11.89999999999999858, 1.347111479062088503E-16, 6.999999999999999112 ) ) ;
#94 = CARTESIAN_POINT ( 'NONE',  ( 26.60000000000000142, 9.000000000000000000, 6.999999999999999112 ) ) ;
#95 = VERTEX_POINT ( 'NONE', #282 ) ;
#96 = FACE_OUTER_BOUND ( 'NONE', #303, .T. ) ;
#97 = DIRECTION ( 'NONE',  ( 1.000000000000000000, 0.000000000000000000, 0.000000000000000000 ) ) ;
#98 = ORIENTED_EDGE ( 'NONE', *, *, #657, .F. ) ;
#99 = EDGE_CURVE ( 'NONE', #345, #751, #397, .T. ) ;
#100 = DIRECTION ( 'NONE',  ( -0.000000000000000000, -0.000000000000000000, 1.000000000000000000 ) ) ;
#101 = DIRECTION ( 'NONE',  ( 0.000000000000000000, 0.000000000000000000, 1.000000000000000000 ) ) ;
#102 = CARTESIAN_POINT ( 'NONE',  ( -11.09999999999999964, 0.000000000000000000, 7.000000000000000000 ) ) ;
#103 = ORIENTED_EDGE ( 'NONE', *, *, #632, .F. ) ;
#104 = DIRECTION ( 'NONE',  ( -1.000000000000000000, 0.000000000000000000, 0.000000000000000000 ) ) ;
#105 = CARTESIAN_POINT ( 'NONE',  ( 0.000000000000000000, -13.00000000000000000, 6.999999999999999112 ) ) ;
#106 = CARTESIAN_POINT ( 'NONE',  ( 23.40000000000000213, 9.000000000000000000, 6.999999999999999112 ) ) ;
#107 = AXIS2_PLACEMENT_3D ( 'NONE', #47, #678, #104 ) ;
#108 = VERTEX_POINT ( 'NONE', #580 ) ;
#109 = FACE_BOUND ( 'NONE', #310, .T. ) ;
#110 = EDGE_CURVE ( 'NONE', #241, #398, #629, .T. ) ;
#111 = FACE_BOUND ( 'NONE', #55, .T. ) ;
#112 = ORIENTED_EDGE ( 'NONE', *, *, #171, .T. ) ;
#113 = FACE_BOUND ( 'NONE', #578, .T. ) ;
#114 = VECTOR ( 'NONE', #339, 1000.000000000000000 ) ;
#115 = EDGE_CURVE ( 'NONE', #38, #361, #164, .T. ) ;
#116 = EDGE_LOOP ( 'NONE', ( #8, #327, #745, #654 ) ) ;
#117 = APPROVAL_STATUS ( 'not_yet_approved' ) ;
#118 = CARTESIAN_POINT ( 'NONE',  ( 0.000000000000000000, 0.000000000000000000, 0.000000000000000000 ) ) ;
#119 = VECTOR ( 'NONE', #620, 1000.000000000000000 ) ;
#120 = EDGE_LOOP ( 'NONE', ( #382, #170, #711, #449 ) ) ;
#121 = PERSON_AND_ORGANIZATION ( #232, #157 ) ;
#122 = ADVANCED_FACE ( 'NONE', ( #519 ), #727, .F. ) ;
#123 = AXIS2_PLACEMENT_3D ( 'NONE', #503, #273, #619 ) ;
#124 = DIRECTION ( 'NONE',  ( 0.000000000000000000, 0.000000000000000000, 1.000000000000000000 ) ) ;
#125 = ORIENTED_EDGE ( 'NONE', *, *, #420, .F. ) ;
#126 = CC_DESIGN_PERSON_AND_ORGANIZATION_ASSIGNMENT ( #59, #301, ( #42 ) ) ;
#127 = FACE_OUTER_BOUND ( 'NONE', #438, .T. ) ;
#128 = ORIENTED_EDGE ( 'NONE', *, *, #752, .F. ) ;
#129 = PRODUCT ( 'ARM-104_Elbow_bearing_cheek', 'ARM-104_Elbow_bearing_cheek', '', ( #419 ) ) ;
#130 = PLANE ( 'NONE',  #625 ) ;
#131 = VERTEX_POINT ( 'NONE', #210 ) ;
#132 = DIRECTION ( 'NONE',  ( 1.000000000000000000, 0.000000000000000000, 0.000000000000000000 ) ) ;
#133 = VECTOR ( 'NONE', #280, 1000.000000000000000 ) ;
#134 = DIRECTION ( 'NONE',  ( 1.000000000000000000, 0.000000000000000000, 0.000000000000000000 ) ) ;
#135 = EDGE_CURVE ( 'NONE', #279, #665, #453, .T. ) ;
#136 = CARTESIAN_POINT ( 'NONE',  ( 16.00000000000000000, 1.959434878635765131E-15, 4.000000000000000000 ) ) ;
#137 = CALENDAR_DATE ( 2026, 7, 9 ) ;
#138 = CARTESIAN_POINT ( 'NONE',  ( 30.00000000000000000, -14.00000000000000000, 0.000000000000000000 ) ) ;
#139 = ADVANCED_FACE ( 'NONE', ( #34 ), #675, .F. ) ;
#140 = DIRECTION ( 'NONE',  ( 0.000000000000000000, 0.000000000000000000, -1.000000000000000000 ) ) ;
#141 = PERSON_AND_ORGANIZATION_ROLE ( 'design_supplier' ) ;
#142 = CARTESIAN_POINT ( 'NONE',  ( 1.100000000000000089, -13.00000000000000000, 0.000000000000000000 ) ) ;
#143 = CIRCLE ( 'NONE', #243, 1.100000000000000089 ) ;
#144 = ORIENTED_EDGE ( 'NONE', *, *, #471, .T. ) ;
#145 = EDGE_CURVE ( 'NONE', #279, #95, #290, .T. ) ;
#146 = CARTESIAN_POINT ( 'NONE',  ( 0.000000000000000000, 0.000000000000000000, 7.000000000000000000 ) ) ;
#147 = VECTOR ( 'NONE', #406, 1000.000000000000000 ) ;
#148 = CIRCLE ( 'NONE', #549, 1.600000000000000755 ) ;
#149 = ORIENTED_EDGE ( 'NONE', *, *, #213, .T. ) ;
#150 = CARTESIAN_POINT ( 'NONE',  ( -13.00000000000000000, 0.000000000000000000, 6.999999999999999112 ) ) ;
#151 = ORIENTED_EDGE ( 'NONE', *, *, #632, .T. ) ;
#152 = VECTOR ( 'NONE', #746, 1000.000000000000000 ) ;
#153 = FACE_OUTER_BOUND ( 'NONE', #245, .T. ) ;
#154 = CARTESIAN_POINT ( 'NONE',  ( -13.00000000000000000, 0.000000000000000000, 6.999999999999999112 ) ) ;
#155 = AXIS2_PLACEMENT_3D ( 'NONE', #347, #732, #624 ) ;
#156 = CARTESIAN_POINT ( 'NONE',  ( -13.00000000000000000, 0.000000000000000000, 0.000000000000000000 ) ) ;
#157 = ORGANIZATION ( 'UNSPECIFIED', 'UNSPECIFIED', '' ) ;
#158 = PLANE ( 'NONE',  #45 ) ;
#159 = ADVANCED_FACE ( 'NONE', ( #331 ), #278, .F. ) ;
#160 = ORIENTED_EDGE ( 'NONE', *, *, #694, .T. ) ;
#161 = CARTESIAN_POINT ( 'NONE',  ( 0.000000000000000000, 13.00000000000000000, 6.999999999999999112 ) ) ;
#162 = CARTESIAN_POINT ( 'NONE',  ( 23.40000000000000213, -9.000000000000000000, 0.000000000000000000 ) ) ;
#163 = VECTOR ( 'NONE', #63, 1000.000000000000000 ) ;
#164 = LINE ( 'NONE', #448, #387 ) ;
#165 = ADVANCED_FACE ( 'NONE', ( #153 ), #493, .T. ) ;
#166 = ORIENTED_EDGE ( 'NONE', *, *, #196, .F. ) ;
#167 = CARTESIAN_POINT ( 'NONE',  ( -11.09999999999999964, 0.000000000000000000, 0.000000000000000000 ) ) ;
#168 = CARTESIAN_POINT ( 'NONE',  ( 25.00000000000000000, -9.000000000000000000, 0.000000000000000000 ) ) ;
#169 = FACE_BOUND ( 'NONE', #601, .T. ) ;
#170 = ORIENTED_EDGE ( 'NONE', *, *, #276, .T. ) ;
#171 = EDGE_CURVE ( 'NONE', #429, #527, #20, .T. ) ;
#172 = CARTESIAN_POINT ( 'NONE',  ( -14.09999999999999964, 0.000000000000000000, 0.000000000000000000 ) ) ;
#173 = CARTESIAN_POINT ( 'NONE',  ( 25.00000000000000000, 9.000000000000000000, 4.000000000000000000 ) ) ;
#174 = VECTOR ( 'NONE', #201, 1000.000000000000000 ) ;
#175 = ORIENTED_EDGE ( 'NONE', *, *, #268, .T. ) ;
#176 = CARTESIAN_POINT ( 'NONE',  ( 25.00000000000000000, 9.000000000000000000, 6.999999999999999112 ) ) ;
#177 = VERTEX_POINT ( 'NONE', #728 ) ;
#178 = FACE_BOUND ( 'NONE', #522, .T. ) ;
#179 = VERTEX_POINT ( 'NONE', #86 ) ;
#180 = APPROVAL_STATUS ( 'not_yet_approved' ) ;
#181 = DIRECTION ( 'NONE',  ( -1.000000000000000000, 0.000000000000000000, 0.000000000000000000 ) ) ;
#182 = CC_DESIGN_APPROVAL ( #332, ( #736 ) ) ;
#183 = ORIENTED_EDGE ( 'NONE', *, *, #399, .T. ) ;
#184 = CALENDAR_DATE ( 2026, 7, 9 ) ;
#185 = AXIS2_PLACEMENT_3D ( 'NONE', #43, #335, #748 ) ;
#186 = DIRECTION ( 'NONE',  ( 0.000000000000000000, 0.000000000000000000, -1.000000000000000000 ) ) ;
#187 = ORIENTED_EDGE ( 'NONE', *, *, #110, .F. ) ;
#188 =( LENGTH_UNIT ( ) NAMED_UNIT ( * ) SI_UNIT ( .MILLI., .METRE. ) );
#189 = VECTOR ( 'NONE', #656, 1000.000000000000000 ) ;
#190 = CARTESIAN_POINT ( 'NONE',  ( 11.09999999999999964, 1.359357947053562156E-15, 0.000000000000000000 ) ) ;
#191 = CIRCLE ( 'NONE', #349, 1.100000000000000089 ) ;
#192 = ORIENTED_EDGE ( 'NONE', *, *, #752, .T. ) ;
#193 = DIRECTION ( 'NONE',  ( 0.000000000000000000, 0.000000000000000000, 1.000000000000000000 ) ) ;
#194 = PRODUCT_DEFINITION_SHAPE ( 'NONE', 'NONE',  #444 ) ;
#195 = DIRECTION ( 'NONE',  ( 1.000000000000000000, 0.000000000000000000, 0.000000000000000000 ) ) ;
#196 = EDGE_CURVE ( 'NONE', #179, #490, #212, .T. ) ;
#197 = ORIENTED_EDGE ( 'NONE', *, *, #203, .T. ) ;
#198 = DIRECTION ( 'NONE',  ( -1.000000000000000000, 0.000000000000000000, 0.000000000000000000 ) ) ;
#199 = ORIENTED_EDGE ( 'NONE', *, *, #7, .F. ) ;
#200 = AXIS2_PLACEMENT_3D ( 'NONE', #370, #480, #195 ) ;
#201 = DIRECTION ( 'NONE',  ( -0.000000000000000000, -0.000000000000000000, -1.000000000000000000 ) ) ;
#202 = ORIENTED_EDGE ( 'NONE', *, *, #521, .T. ) ;
#203 = EDGE_CURVE ( 'NONE', #665, #177, #46, .T. ) ;
#204 = DIRECTION ( 'NONE',  ( 0.000000000000000000, 0.000000000000000000, -1.000000000000000000 ) ) ;
#205 = ORIENTED_EDGE ( 'NONE', *, *, #576, .F. ) ;
#206 = DIRECTION ( 'NONE',  ( 0.000000000000000000, 0.000000000000000000, -1.000000000000000000 ) ) ;
#207 = CIRCLE ( 'NONE', #246, 16.00000000000000000 ) ;
#208 = VERTEX_POINT ( 'NONE', #267 ) ;
#209 = DIRECTION ( 'NONE',  ( 1.000000000000000000, 0.000000000000000000, 0.000000000000000000 ) ) ;
#210 = CARTESIAN_POINT ( 'NONE',  ( 30.00000000000000000, 14.00000000000000000, 4.000000000000000000 ) ) ;
#211 = AXIS2_PLACEMENT_3D ( 'NONE', #176, #404, #293 ) ;
#212 = LINE ( 'NONE', #560, #262 ) ;
#213 = EDGE_CURVE ( 'NONE', #222, #506, #575, .T. ) ;
#214 = DIRECTION ( 'NONE',  ( 1.000000000000000000, 0.000000000000000000, 0.000000000000000000 ) ) ;
#215 = ORIENTED_EDGE ( 'NONE', *, *, #203, .F. ) ;
#216 = CARTESIAN_POINT ( 'NONE',  ( 0.000000000000000000, 13.00000000000000000, 6.999999999999999112 ) ) ;
#217 = LOCAL_TIME ( 16, 13, 46.00000000000000000, #373 ) ;
#218 = FACE_BOUND ( 'NONE', #410, .T. ) ;
#219 = CIRCLE ( 'NONE', #610, 1.100000000000000089 ) ;
#220 = DIRECTION ( 'NONE',  ( -1.000000000000000000, 0.000000000000000000, 0.000000000000000000 ) ) ;
#221 = VECTOR ( 'NONE', #204, 1000.000000000000000 ) ;
#222 = VERTEX_POINT ( 'NONE', #142 ) ;
#223 = CARTESIAN_POINT ( 'NONE',  ( 7.745966692414832266, -14.00000000000000000, 4.000000000000000000 ) ) ;
#224 = DIRECTION ( 'NONE',  ( -0.000000000000000000, -0.000000000000000000, -1.000000000000000000 ) ) ;
#225 = CIRCLE ( 'NONE', #681, 16.00000000000000000 ) ;
#226 = DIRECTION ( 'NONE',  ( 0.000000000000000000, 0.000000000000000000, -1.000000000000000000 ) ) ;
#227 = ADVANCED_FACE ( 'NONE', ( #608 ), #388, .F. ) ;
#228 = ORIENTED_EDGE ( 'NONE', *, *, #551, .F. ) ;
#229 = DIRECTION ( 'NONE',  ( 1.000000000000000000, 0.000000000000000000, 0.000000000000000000 ) ) ;
#230 = DIRECTION ( 'NONE',  ( 0.000000000000000000, 0.000000000000000000, -1.000000000000000000 ) ) ;
#231 = ORIENTED_EDGE ( 'NONE', *, *, #60, .T. ) ;
#232 = PERSON ( 'UNSPECIFIED', 'UNSPECIFIED', 'UNSPECIFIED', ('UNSPECIFIED'), ('UNSPECIFIED'), ('UNSPECIFIED') ) ;
#233 = ADVANCED_FACE ( 'NONE', ( #715 ), #22, .T. ) ;
#234 = FACE_OUTER_BOUND ( 'NONE', #650, .T. ) ;
#235 = AXIS2_PLACEMENT_3D ( 'NONE', #216, #342, #623 ) ;
#236 = EDGE_LOOP ( 'NONE', ( #423, #481, #67, #371, #676 ) ) ;
#237 = CARTESIAN_POINT ( 'NONE',  ( 0.000000000000000000, -13.00000000000000000, 0.000000000000000000 ) ) ;
#238 = ORIENTED_EDGE ( 'NONE', *, *, #439, .F. ) ;
#239 = DIRECTION ( 'NONE',  ( -0.000000000000000000, -0.000000000000000000, -1.000000000000000000 ) ) ;
#240 = EDGE_CURVE ( 'NONE', #490, #609, #148, .T. ) ;
#241 = VERTEX_POINT ( 'NONE', #374 ) ;
#242 = PERSON_AND_ORGANIZATION ( #232, #157 ) ;
#243 = AXIS2_PLACEMENT_3D ( 'NONE', #442, #618, #660 ) ;
#244 = DIRECTION ( 'NONE',  ( 0.000000000000000000, 0.000000000000000000, -1.000000000000000000 ) ) ;
#245 = EDGE_LOOP ( 'NONE', ( #626, #275, #478, #71, #700, #336 ) ) ;
#246 = AXIS2_PLACEMENT_3D ( 'NONE', #146, #321, #489 ) ;
#247 = PERSON_AND_ORGANIZATION ( #232, #157 ) ;
#248 = AXIS2_PLACEMENT_3D ( 'NONE', #380, #25, #606 ) ;
#249 = CARTESIAN_POINT ( 'NONE',  ( 0.000000000000000000, 0.000000000000000000, 0.000000000000000000 ) ) ;
#250 = ORIENTED_EDGE ( 'NONE', *, *, #171, .F. ) ;
#251 = COORDINATED_UNIVERSAL_TIME_OFFSET ( 6, 0, .BEHIND. ) ;
#252 = EDGE_CURVE ( 'NONE', #306, #429, #719, .T. ) ;
#253 = FACE_OUTER_BOUND ( 'NONE', #31, .T. ) ;
#254 = VECTOR ( 'NONE', #13, 1000.000000000000000 ) ;
#255 = EDGE_LOOP ( 'NONE', ( #413, #348, #531, #668 ) ) ;
#256 = CC_DESIGN_DATE_AND_TIME_ASSIGNMENT ( #597, #532, ( #444 ) ) ;
#257 = CARTESIAN_POINT ( 'NONE',  ( 7.745966692414832266, 14.00000000000000000, 7.000000000000000000 ) ) ;
#258 = AXIS2_PLACEMENT_3D ( 'NONE', #53, #344, #220 ) ;
#259 = LOCAL_TIME ( 16, 13, 46.00000000000000000, #304 ) ;
#260 = DIRECTION ( 'NONE',  ( -1.000000000000000000, 0.000000000000000000, 0.000000000000000000 ) ) ;
#261 = DIRECTION ( 'NONE',  ( -1.000000000000000000, 0.000000000000000000, 0.000000000000000000 ) ) ;
#262 = VECTOR ( 'NONE', #206, 1000.000000000000000 ) ;
#263 = EDGE_CURVE ( 'NONE', #720, #361, #739, .T. ) ;
#264 = ORIENTED_EDGE ( 'NONE', *, *, #99, .F. ) ;
#265 = DATE_TIME_ROLE ( 'classification_date' ) ;
#266 = VECTOR ( 'NONE', #368, 1000.000000000000000 ) ;
#267 = CARTESIAN_POINT ( 'NONE',  ( 7.745966692414832266, 14.00000000000000000, 0.000000000000000000 ) ) ;
#268 = EDGE_CURVE ( 'NONE', #108, #58, #667, .T. ) ;
#269 = ORIENTED_EDGE ( 'NONE', *, *, #263, .T. ) ;
#270 = SECURITY_CLASSIFICATION_LEVEL ( 'unclassified' ) ;
#271 = DIRECTION ( 'NONE',  ( -0.000000000000000000, -0.000000000000000000, -1.000000000000000000 ) ) ;
#272 = ORIENTED_EDGE ( 'NONE', *, *, #525, .T. ) ;
#273 = DIRECTION ( 'NONE',  ( -0.000000000000000000, -0.000000000000000000, -1.000000000000000000 ) ) ;
#274 = AXIS2_PLACEMENT_3D ( 'NONE', #557, #29, #33 ) ;
#275 = ORIENTED_EDGE ( 'NONE', *, *, #671, .T. ) ;
#276 = EDGE_CURVE ( 'NONE', #283, #179, #690, .T. ) ;
#277 = CARTESIAN_POINT ( 'NONE',  ( 25.00000000000000000, -9.000000000000000000, 4.000000000000000000 ) ) ;
#278 = PLANE ( 'NONE',  #381 ) ;
#279 = VERTEX_POINT ( 'NONE', #433 ) ;
#280 = DIRECTION ( 'NONE',  ( 0.000000000000000000, 1.000000000000000000, 0.000000000000000000 ) ) ;
#281 = DIRECTION ( 'NONE',  ( -1.000000000000000000, 0.000000000000000000, 0.000000000000000000 ) ) ;
#282 = CARTESIAN_POINT ( 'NONE',  ( 23.40000000000000213, 9.000000000000000000, 4.000000000000000000 ) ) ;
#283 = VERTEX_POINT ( 'NONE', #437 ) ;
#284 = LINE ( 'NONE', #683, #723 ) ;
#285 = APPROVAL_PERSON_ORGANIZATION ( #704, #568, #538 ) ;
#286 = DIRECTION ( 'NONE',  ( -0.000000000000000000, -0.000000000000000000, 1.000000000000000000 ) ) ;
#287 = EDGE_CURVE ( 'NONE', #714, #108, #207, .T. ) ;
#288 = AXIS2_PLACEMENT_3D ( 'NONE', #605, #544, #260 ) ;
#289 = CYLINDRICAL_SURFACE ( 'NONE', #155, 1.100000000000000089 ) ;
#290 = CIRCLE ( 'NONE', #357, 1.600000000000000755 ) ;
#291 = ORIENTED_EDGE ( 'NONE', *, *, #717, .T. ) ;
#292 = DIRECTION ( 'NONE',  ( -1.000000000000000000, 0.000000000000000000, 0.000000000000000000 ) ) ;
#293 = DIRECTION ( 'NONE',  ( -1.000000000000000000, 0.000000000000000000, 0.000000000000000000 ) ) ;
#294 = FACE_OUTER_BOUND ( 'NONE', #615, .T. ) ;
#295 = VERTEX_POINT ( 'NONE', #501 ) ;
#296 = VECTOR ( 'NONE', #355, 1000.000000000000000 ) ;
#297 = DIRECTION ( 'NONE',  ( 1.000000000000000000, 0.000000000000000000, -0.000000000000000000 ) ) ;
#298 = ORIENTED_EDGE ( 'NONE', *, *, #213, .F. ) ;
#299 = DIRECTION ( 'NONE',  ( 1.000000000000000000, 0.000000000000000000, 0.000000000000000000 ) ) ;
#300 = ORIENTED_EDGE ( 'NONE', *, *, #498, .F. ) ;
#301 = PERSON_AND_ORGANIZATION_ROLE ( 'creator' ) ;
#302 = LINE ( 'NONE', #529, #520 ) ;
#303 = EDGE_LOOP ( 'NONE', ( #291, #272, #103, #485 ) ) ;
#304 = COORDINATED_UNIVERSAL_TIME_OFFSET ( 6, 0, .BEHIND. ) ;
#305 = DIRECTION ( 'NONE',  ( 1.000000000000000000, 0.000000000000000000, 0.000000000000000000 ) ) ;
#306 = VERTEX_POINT ( 'NONE', #93 ) ;
#307 = CARTESIAN_POINT ( 'NONE',  ( 1.100000000000000089, 13.00000000000000000, 6.999999999999999112 ) ) ;
#308 = CARTESIAN_POINT ( 'NONE',  ( 0.000000000000000000, 0.000000000000000000, 7.000000000000000000 ) ) ;
#309 = ADVANCED_FACE ( 'NONE', ( #613 ), #441, .F. ) ;
#310 = EDGE_LOOP ( 'NONE', ( #494, #238 ) ) ;
#311 = CIRCLE ( 'NONE', #30, 1.100000000000000089 ) ;
#312 = DIRECTION ( 'NONE',  ( 0.000000000000000000, 0.000000000000000000, 1.000000000000000000 ) ) ;
#313 = ORIENTED_EDGE ( 'NONE', *, *, #468, .F. ) ;
#314 = LINE ( 'NONE', #138, #266 ) ;
#315 = CIRCLE ( 'NONE', #426, 1.100000000000000089 ) ;
#316 = ORIENTED_EDGE ( 'NONE', *, *, #431, .T. ) ;
#317 = PERSON_AND_ORGANIZATION ( #232, #157 ) ;
#318 = DIRECTION ( 'NONE',  ( 1.000000000000000000, 0.000000000000000000, 0.000000000000000000 ) ) ;
#319 = AXIS2_PLACEMENT_3D ( 'NONE', #588, #193, #411 ) ;
#320 = ORIENTED_EDGE ( 'NONE', *, *, #717, .F. ) ;
#321 = DIRECTION ( 'NONE',  ( 0.000000000000000000, 0.000000000000000000, 1.000000000000000000 ) ) ;
#322 = EDGE_CURVE ( 'NONE', #527, #429, #405, .T. ) ;
#323 = DIRECTION ( 'NONE',  ( -1.000000000000000000, 0.000000000000000000, 0.000000000000000000 ) ) ;
#324 = CIRCLE ( 'NONE', #200, 11.09999999999999964 ) ;
#325 = CARTESIAN_POINT ( 'NONE',  ( 25.00000000000000000, -9.000000000000000000, 0.000000000000000000 ) ) ;
#326 = VECTOR ( 'NONE', #224, 1000.000000000000000 ) ;
#327 = ORIENTED_EDGE ( 'NONE', *, *, #471, .F. ) ;
#328 = DIRECTION ( 'NONE',  ( 0.000000000000000000, 0.000000000000000000, -1.000000000000000000 ) ) ;
#329 = ORIENTED_EDGE ( 'NONE', *, *, #399, .F. ) ;
#330 = DIRECTION ( 'NONE',  ( -1.000000000000000000, 0.000000000000000000, 0.000000000000000000 ) ) ;
#331 = FACE_OUTER_BOUND ( 'NONE', #466, .T. ) ;
#332 = APPROVAL ( #500, 'UNSPECIFIED' ) ;
#333 = ORIENTED_EDGE ( 'NONE', *, *, #338, .F. ) ;
#334 = CARTESIAN_POINT ( 'NONE',  ( 30.00000000000000000, -14.00000000000000000, 0.000000000000000000 ) ) ;
#335 = DIRECTION ( 'NONE',  ( 0.000000000000000000, 0.000000000000000000, -1.000000000000000000 ) ) ;
#336 = ORIENTED_EDGE ( 'NONE', *, *, #268, .F. ) ;
#337 = CARTESIAN_POINT ( 'NONE',  ( -11.89999999999999858, 1.347111479062088503E-16, 0.000000000000000000 ) ) ;
#338 = EDGE_CURVE ( 'NONE', #179, #283, #465, .T. ) ;
#339 = DIRECTION ( 'NONE',  ( -0.000000000000000000, -0.000000000000000000, -1.000000000000000000 ) ) ;
#340 = LINE ( 'NONE', #457, #119 ) ;
#341 = VERTEX_POINT ( 'NONE', #516 ) ;
#342 = DIRECTION ( 'NONE',  ( 0.000000000000000000, 0.000000000000000000, -1.000000000000000000 ) ) ;
#343 = PLANE ( 'NONE',  #641 ) ;
#344 = DIRECTION ( 'NONE',  ( 0.000000000000000000, 0.000000000000000000, -1.000000000000000000 ) ) ;
#345 = VERTEX_POINT ( 'NONE', #223 ) ;
#346 = DIRECTION ( 'NONE',  ( 0.000000000000000000, 0.000000000000000000, -1.000000000000000000 ) ) ;
#347 = CARTESIAN_POINT ( 'NONE',  ( 0.000000000000000000, 13.00000000000000000, 6.999999999999999112 ) ) ;
#348 = ORIENTED_EDGE ( 'NONE', *, *, #87, .T. ) ;
#349 = AXIS2_PLACEMENT_3D ( 'NONE', #486, #239, #706 ) ;
#350 = CARTESIAN_POINT ( 'NONE',  ( 30.00000000000000000, -14.00000000000000000, 4.000000000000000000 ) ) ;
#351 = ORIENTED_EDGE ( 'NONE', *, *, #287, .T. ) ;
#352 = DIRECTION ( 'NONE',  ( 0.000000000000000000, 0.000000000000000000, 1.000000000000000000 ) ) ;
#353 = AXIS2_PLACEMENT_3D ( 'NONE', #154, #570, #502 ) ;
#354 = CC_DESIGN_SECURITY_CLASSIFICATION ( #736, ( #42 ) ) ;
#355 = DIRECTION ( 'NONE',  ( 0.000000000000000000, 0.000000000000000000, -1.000000000000000000 ) ) ;
#356 = ORIENTED_EDGE ( 'NONE', *, *, #135, .T. ) ;
#357 = AXIS2_PLACEMENT_3D ( 'NONE', #173, #672, #389 ) ;
#358 = APPROVAL ( #117, 'UNSPECIFIED' ) ;
#359 = CARTESIAN_POINT ( 'NONE',  ( 30.00000000000000000, 14.00000000000000000, 0.000000000000000000 ) ) ;
#360 = CIRCLE ( 'NONE', #491, 16.00000000000000000 ) ;
#361 = VERTEX_POINT ( 'NONE', #167 ) ;
#362 = DIRECTION ( 'NONE',  ( 1.000000000000000000, 0.000000000000000000, 0.000000000000000000 ) ) ;
#363 = ORIENTED_EDGE ( 'NONE', *, *, #646, .T. ) ;
#364 =( NAMED_UNIT ( * ) PLANE_ANGLE_UNIT ( ) SI_UNIT ( $, .RADIAN. ) );
#365 = DIRECTION ( 'NONE',  ( -0.000000000000000000, -0.000000000000000000, -1.000000000000000000 ) ) ;
#366 = VERTEX_POINT ( 'NONE', #400 ) ;
#367 = AXIS2_PLACEMENT_3D ( 'NONE', #455, #627, #740 ) ;
#368 = DIRECTION ( 'NONE',  ( 0.000000000000000000, 1.000000000000000000, 0.000000000000000000 ) ) ;
#369 = ORIENTED_EDGE ( 'NONE', *, *, #77, .F. ) ;
#370 = CARTESIAN_POINT ( 'NONE',  ( 0.000000000000000000, 0.000000000000000000, 7.000000000000000000 ) ) ;
#371 = ORIENTED_EDGE ( 'NONE', *, *, #99, .T. ) ;
#372 = ADVANCED_FACE ( 'NONE', ( #631 ), #507, .F. ) ;
#373 = COORDINATED_UNIVERSAL_TIME_OFFSET ( 6, 0, .BEHIND. ) ;
#374 = CARTESIAN_POINT ( 'NONE',  ( 7.745966692414832266, -14.00000000000000000, 0.000000000000000000 ) ) ;
#375 = CC_DESIGN_APPROVAL ( #568, ( #42 ) ) ;
#376 = ORIENTED_EDGE ( 'NONE', *, *, #60, .F. ) ;
#377 = ADVANCED_FACE ( 'NONE', ( #96 ), #572, .F. ) ;
#378 = PERSON_AND_ORGANIZATION_ROLE ( 'classification_officer' ) ;
#379 = CIRCLE ( 'NONE', #440, 16.00000000000000000 ) ;
#380 = CARTESIAN_POINT ( 'NONE',  ( 25.00000000000000000, -9.000000000000000000, 6.999999999999999112 ) ) ;
#381 = AXIS2_PLACEMENT_3D ( 'NONE', #565, #504, #509 ) ;
#382 = ORIENTED_EDGE ( 'NONE', *, *, #431, .F. ) ;
#383 = DIRECTION ( 'NONE',  ( -0.000000000000000000, -0.000000000000000000, -1.000000000000000000 ) ) ;
#384 = EDGE_CURVE ( 'NONE', #751, #131, #450, .T. ) ;
#385 = CIRCLE ( 'NONE', #730, 1.600000000000000755 ) ;
#386 = ORIENTED_EDGE ( 'NONE', *, *, #87, .F. ) ;
#387 = VECTOR ( 'NONE', #577, 1000.000000000000000 ) ;
#388 = CYLINDRICAL_SURFACE ( 'NONE', #248, 1.600000000000000755 ) ;
#389 = DIRECTION ( 'NONE',  ( -1.000000000000000000, 0.000000000000000000, 0.000000000000000000 ) ) ;
#390 = ORIENTED_EDGE ( 'NONE', *, *, #600, .T. ) ;
#391 = DIRECTION ( 'NONE',  ( -0.000000000000000000, -0.000000000000000000, -1.000000000000000000 ) ) ;
#392 = FACE_OUTER_BOUND ( 'NONE', #92, .T. ) ;
#393 = ORIENTED_EDGE ( 'NONE', *, *, #439, .T. ) ;
#394 = DIRECTION ( 'NONE',  ( 0.000000000000000000, 0.000000000000000000, 1.000000000000000000 ) ) ;
#395 = VECTOR ( 'NONE', #430, 1000.000000000000000 ) ;
#396 = FACE_BOUND ( 'NONE', #718, .T. ) ;
#397 = LINE ( 'NONE', #515, #644 ) ;
#398 = VERTEX_POINT ( 'NONE', #334 ) ;
#399 = EDGE_CURVE ( 'NONE', #177, #665, #536, .T. ) ;
#400 = CARTESIAN_POINT ( 'NONE',  ( 11.09999999999999964, 1.359357947053562156E-15, 7.000000000000000000 ) ) ;
#401 = DIRECTION ( 'NONE',  ( 1.000000000000000000, 0.000000000000000000, 0.000000000000000000 ) ) ;
#402 = CARTESIAN_POINT ( 'NONE',  ( -16.00000000000000000, 0.000000000000000000, 0.000000000000000000 ) ) ;
#403 = ORIENTED_EDGE ( 'NONE', *, *, #338, .T. ) ;
#404 = DIRECTION ( 'NONE',  ( 0.000000000000000000, 0.000000000000000000, -1.000000000000000000 ) ) ;
#405 = CIRCLE ( 'NONE', #274, 1.100000000000000311 ) ;
#406 = DIRECTION ( 'NONE',  ( 0.000000000000000000, 0.000000000000000000, -1.000000000000000000 ) ) ;
#407 = ORIENTED_EDGE ( 'NONE', *, *, #498, .T. ) ;
#408 = LINE ( 'NONE', #350, #326 ) ;
#409 = ADVANCED_FACE ( 'NONE', ( #512 ), #734, .F. ) ;
#410 = EDGE_LOOP ( 'NONE', ( #320, #537 ) ) ;
#411 = DIRECTION ( 'NONE',  ( 1.000000000000000000, 0.000000000000000000, 0.000000000000000000 ) ) ;
#412 = FACE_OUTER_BOUND ( 'NONE', #472, .T. ) ;
#413 = ORIENTED_EDGE ( 'NONE', *, *, #252, .F. ) ;
#414 = PERSON_AND_ORGANIZATION_ROLE ( 'design_owner' ) ;
#415 = LOCAL_TIME ( 16, 13, 46.00000000000000000, #436 ) ;
#416 = DIRECTION ( 'NONE',  ( 1.000000000000000000, 0.000000000000000000, 0.000000000000000000 ) ) ;
#417 = EDGE_LOOP ( 'NONE', ( #17, #393, #407, #596 ) ) ;
#418 = AXIS2_PLACEMENT_3D ( 'NONE', #91, #79, #546 ) ;
#419 = MECHANICAL_CONTEXT ( 'NONE', #505, 'mechanical' ) ;
#420 = EDGE_CURVE ( 'NONE', #587, #341, #311, .T. ) ;
#421 = LINE ( 'NONE', #535, #189 ) ;
#422 = AXIS2_PLACEMENT_3D ( 'NONE', #533, #312, #416 ) ;
#423 = ORIENTED_EDGE ( 'NONE', *, *, #657, .T. ) ;
#424 =( NAMED_UNIT ( * ) SI_UNIT ( $, .STERADIAN. ) SOLID_ANGLE_UNIT ( ) );
#425 = LINE ( 'NONE', #702, #517 ) ;
#426 = AXIS2_PLACEMENT_3D ( 'NONE', #105, #124, #698 ) ;
#427 = ORIENTED_EDGE ( 'NONE', *, *, #322, .F. ) ;
#428 = DIRECTION ( 'NONE',  ( 0.000000000000000000, 0.000000000000000000, 1.000000000000000000 ) ) ;
#429 = VERTEX_POINT ( 'NONE', #337 ) ;
#430 = DIRECTION ( 'NONE',  ( 0.000000000000000000, 0.000000000000000000, 1.000000000000000000 ) ) ;
#431 = EDGE_CURVE ( 'NONE', #283, #609, #284, .T. ) ;
#432 = CYLINDRICAL_SURFACE ( 'NONE', #288, 1.100000000000000089 ) ;
#433 = CARTESIAN_POINT ( 'NONE',  ( 26.60000000000000142, 9.000000000000000000, 4.000000000000000000 ) ) ;
#434 = CC_DESIGN_PERSON_AND_ORGANIZATION_ASSIGNMENT ( #528, #141, ( #42 ) ) ;
#435 = EDGE_LOOP ( 'NONE', ( #403, #316, #76, #166 ) ) ;
#436 = COORDINATED_UNIVERSAL_TIME_OFFSET ( 6, 0, .BEHIND. ) ;
#437 = CARTESIAN_POINT ( 'NONE',  ( 26.60000000000000142, -9.000000000000000000, 4.000000000000000000 ) ) ;
#438 = EDGE_LOOP ( 'NONE', ( #622, #390, #149, #300 ) ) ;
#439 = EDGE_CURVE ( 'NONE', #534, #454, #72, .T. ) ;
#440 = AXIS2_PLACEMENT_3D ( 'NONE', #488, #140, #323 ) ;
#441 = CYLINDRICAL_SURFACE ( 'NONE', #9, 1.100000000000000311 ) ;
#442 = CARTESIAN_POINT ( 'NONE',  ( 0.000000000000000000, 13.00000000000000000, 0.000000000000000000 ) ) ;
#443 = DIRECTION ( 'NONE',  ( -0.000000000000000000, -0.000000000000000000, 1.000000000000000000 ) ) ;
#444 = PRODUCT_DEFINITION ( 'UNKNOWN', '', #42, #708 ) ;
#445 = AXIS2_PLACEMENT_3D ( 'NONE', #118, #101, #297 ) ;
#446 = DIRECTION ( 'NONE',  ( 0.000000000000000000, 0.000000000000000000, -1.000000000000000000 ) ) ;
#447 = DIRECTION ( 'NONE',  ( 1.000000000000000000, 0.000000000000000000, 0.000000000000000000 ) ) ;
#448 = CARTESIAN_POINT ( 'NONE',  ( -11.09999999999999964, 0.000000000000000000, 7.000000000000000000 ) ) ;
#449 = ORIENTED_EDGE ( 'NONE', *, *, #240, .T. ) ;
#450 = LINE ( 'NONE', #36, #133 ) ;
#451 = CARTESIAN_POINT ( 'NONE',  ( 0.000000000000000000, 0.000000000000000000, 7.000000000000000000 ) ) ;
#452 = AXIS2_PLACEMENT_3D ( 'NONE', #673, #553, #447 ) ;
#453 = LINE ( 'NONE', #94, #677 ) ;
#454 = VERTEX_POINT ( 'NONE', #51 ) ;
#455 = CARTESIAN_POINT ( 'NONE',  ( 0.000000000000000000, 14.00000000000000000, 4.000000000000000000 ) ) ;
#456 = DIRECTION ( 'NONE',  ( 0.000000000000000000, 0.000000000000000000, 1.000000000000000000 ) ) ;
#457 = CARTESIAN_POINT ( 'NONE',  ( 7.745966692414832266, -14.00000000000000000, 7.000000000000000000 ) ) ;
#458 = EDGE_CURVE ( 'NONE', #14, #345, #599, .T. ) ;
#459 = VERTEX_POINT ( 'NONE', #640 ) ;
#460 = CARTESIAN_POINT ( 'NONE',  ( 0.000000000000000000, 0.000000000000000000, 4.000000000000000000 ) ) ;
#461 = CYLINDRICAL_SURFACE ( 'NONE', #258, 1.600000000000000755 ) ;
#462 = ORIENTED_EDGE ( 'NONE', *, *, #41, .F. ) ;
#463 = ADVANCED_FACE ( 'NONE', ( #574, #645, #687, #178, #48, #396, #412 ), #637, .F. ) ;
#464 = LINE ( 'NONE', #579, #296 ) ;
#465 = CIRCLE ( 'NONE', #559, 1.600000000000000755 ) ;
#466 = EDGE_LOOP ( 'NONE', ( #264, #647, #724, #228 ) ) ;
#467 = FACE_OUTER_BOUND ( 'NONE', #26, .T. ) ;
#468 = EDGE_CURVE ( 'NONE', #95, #279, #52, .T. ) ;
#469 = ORIENTED_EDGE ( 'NONE', *, *, #576, .T. ) ;
#470 = DIRECTION ( 'NONE',  ( 0.000000000000000000, 0.000000000000000000, 1.000000000000000000 ) ) ;
#471 = EDGE_CURVE ( 'NONE', #131, #664, #513, .T. ) ;
#472 = EDGE_LOOP ( 'NONE', ( #703, #205, #1, #187, #44 ) ) ;
#473 = VECTOR ( 'NONE', #497, 1000.000000000000000 ) ;
#474 = DATE_AND_TIME ( #12, #547 ) ;
#475 = LOCAL_TIME ( 16, 13, 46.00000000000000000, #701 ) ;
#476 = CARTESIAN_POINT ( 'NONE',  ( -14.09999999999999964, 0.000000000000000000, 6.999999999999999112 ) ) ;
#477 = EDGE_CURVE ( 'NONE', #609, #490, #385, .T. ) ;
#478 = ORIENTED_EDGE ( 'NONE', *, *, #27, .F. ) ;
#479 = APPROVAL_ROLE ( '' ) ;
#480 = DIRECTION ( 'NONE',  ( 0.000000000000000000, 0.000000000000000000, 1.000000000000000000 ) ) ;
#481 = ORIENTED_EDGE ( 'NONE', *, *, #27, .T. ) ;
#482 = CARTESIAN_POINT ( 'NONE',  ( 30.00000000000000000, -14.00000000000000000, 4.000000000000000000 ) ) ;
#483 = CYLINDRICAL_SURFACE ( 'NONE', #591, 11.09999999999999964 ) ;
#484 = CIRCLE ( 'NONE', #543, 1.100000000000000311 ) ;
#485 = ORIENTED_EDGE ( 'NONE', *, *, #115, .F. ) ;
#486 = CARTESIAN_POINT ( 'NONE',  ( 0.000000000000000000, 13.00000000000000000, 0.000000000000000000 ) ) ;
#487 = ADVANCED_FACE ( 'NONE', ( #526, #109, #113, #234, #218 ), #343, .T. ) ;
#488 = CARTESIAN_POINT ( 'NONE',  ( 0.000000000000000000, 0.000000000000000000, 4.000000000000000000 ) ) ;
#489 = DIRECTION ( 'NONE',  ( 1.000000000000000000, 0.000000000000000000, 0.000000000000000000 ) ) ;
#490 = VERTEX_POINT ( 'NONE', #162 ) ;
#491 = AXIS2_PLACEMENT_3D ( 'NONE', #542, #352, #132 ) ;
#492 = PERSON_AND_ORGANIZATION ( #232, #157 ) ;
#493 = CYLINDRICAL_SURFACE ( 'NONE', #418, 16.00000000000000000 ) ;
#494 = ORIENTED_EDGE ( 'NONE', *, *, #563, .F. ) ;
#495 = DATE_AND_TIME ( #666, #415 ) ;
#496 = DIRECTION ( 'NONE',  ( 1.000000000000000000, 0.000000000000000000, 0.000000000000000000 ) ) ;
#497 = DIRECTION ( 'NONE',  ( 0.000000000000000000, 0.000000000000000000, -1.000000000000000000 ) ) ;
#498 = EDGE_CURVE ( 'NONE', #454, #506, #464, .T. ) ;
#499 = AXIS2_PLACEMENT_3D ( 'NONE', #583, #628, #229 ) ;
#500 = APPROVAL_STATUS ( 'not_yet_approved' ) ;
#501 = CARTESIAN_POINT ( 'NONE',  ( 1.100000000000000089, 13.00000000000000000, 0.000000000000000000 ) ) ;
#502 = DIRECTION ( 'NONE',  ( 1.000000000000000000, 0.000000000000000000, 0.000000000000000000 ) ) ;
#503 = CARTESIAN_POINT ( 'NONE',  ( 0.000000000000000000, 0.000000000000000000, 7.000000000000000000 ) ) ;
#504 = DIRECTION ( 'NONE',  ( 0.000000000000000000, 1.000000000000000000, 0.000000000000000000 ) ) ;
#505 = APPLICATION_CONTEXT ( 'configuration controlled 3d designs of mechanical parts and assemblies' ) ;
#506 = VERTEX_POINT ( 'NONE', #518 ) ;
#507 = CYLINDRICAL_SURFACE ( 'NONE', #235, 1.100000000000000089 ) ;
#508 = CARTESIAN_POINT ( 'NONE',  ( 25.00000000000000000, 9.000000000000000000, 4.000000000000000000 ) ) ;
#509 = DIRECTION ( 'NONE',  ( 0.000000000000000000, -0.000000000000000000, 1.000000000000000000 ) ) ;
#510 = CC_DESIGN_APPROVAL ( #358, ( #444 ) ) ;
#511 = ORIENTED_EDGE ( 'NONE', *, *, #41, .T. ) ;
#512 = FACE_OUTER_BOUND ( 'NONE', #566, .T. ) ;
#513 = LINE ( 'NONE', #56, #114 ) ;
#514 = AXIS2_PLACEMENT_3D ( 'NONE', #685, #230, #680 ) ;
#515 = CARTESIAN_POINT ( 'NONE',  ( 0.000000000000000000, -14.00000000000000000, 4.000000000000000000 ) ) ;
#516 = CARTESIAN_POINT ( 'NONE',  ( 1.100000000000000089, 13.00000000000000000, 6.999999999999999112 ) ) ;
#517 = VECTOR ( 'NONE', #648, 1000.000000000000000 ) ;
#518 = CARTESIAN_POINT ( 'NONE',  ( -1.100000000000000089, -13.00000000000000000, 0.000000000000000000 ) ) ;
#519 = FACE_OUTER_BOUND ( 'NONE', #435, .T. ) ;
#520 = VECTOR ( 'NONE', #2, 1000.000000000000000 ) ;
#521 = EDGE_CURVE ( 'NONE', #562, #306, #484, .T. ) ;
#522 = EDGE_LOOP ( 'NONE', ( #558, #692 ) ) ;
#523 = DIRECTION ( 'NONE',  ( -1.000000000000000000, 0.000000000000000000, 0.000000000000000000 ) ) ;
#524 = EDGE_LOOP ( 'NONE', ( #662, #50, #175, #363, #369, #630 ) ) ;
#525 = EDGE_CURVE ( 'NONE', #366, #720, #693, .T. ) ;
#526 = FACE_BOUND ( 'NONE', #696, .T. ) ;
#527 = VERTEX_POINT ( 'NONE', #172 ) ;
#528 = PERSON_AND_ORGANIZATION ( #232, #157 ) ;
#529 = CARTESIAN_POINT ( 'NONE',  ( 1.100000000000000089, -13.00000000000000000, 6.999999999999999112 ) ) ;
#530 = AXIS2_PLACEMENT_3D ( 'NONE', #6, #244, #652 ) ;
#531 = ORIENTED_EDGE ( 'NONE', *, *, #589, .T. ) ;
#532 = DATE_TIME_ROLE ( 'creation_date' ) ;
#533 = CARTESIAN_POINT ( 'NONE',  ( 0.000000000000000000, 0.000000000000000000, 0.000000000000000000 ) ) ;
#534 = VERTEX_POINT ( 'NONE', #691 ) ;
#535 = CARTESIAN_POINT ( 'NONE',  ( 16.00000000000000000, 1.959434878635765131E-15, 7.000000000000000000 ) ) ;
#536 = CIRCLE ( 'NONE', #636, 1.600000000000000755 ) ;
#537 = ORIENTED_EDGE ( 'NONE', *, *, #729, .F. ) ;
#538 = APPROVAL_ROLE ( '' ) ;
#539 = CARTESIAN_POINT ( 'NONE',  ( 26.60000000000000142, 9.000000000000000000, 0.000000000000000000 ) ) ;
#540 = ORIENTED_EDGE ( 'NONE', *, *, #420, .T. ) ;
#541 = ADVANCED_FACE ( 'NONE', ( #467 ), #750, .F. ) ;
#542 = CARTESIAN_POINT ( 'NONE',  ( 0.000000000000000000, 0.000000000000000000, 7.000000000000000000 ) ) ;
#543 = AXIS2_PLACEMENT_3D ( 'NONE', #40, #456, #741 ) ;
#544 = DIRECTION ( 'NONE',  ( 0.000000000000000000, 0.000000000000000000, -1.000000000000000000 ) ) ;
#545 = CIRCLE ( 'NONE', #353, 1.100000000000000311 ) ;
#546 = DIRECTION ( 'NONE',  ( -1.000000000000000000, 0.000000000000000000, 0.000000000000000000 ) ) ;
#547 = LOCAL_TIME ( 16, 13, 46.00000000000000000, #251 ) ;
#548 = LINE ( 'NONE', #89, #473 ) ;
#549 = AXIS2_PLACEMENT_3D ( 'NONE', #325, #271, #496 ) ;
#550 = DIRECTION ( 'NONE',  ( -0.000000000000000000, -0.000000000000000000, -1.000000000000000000 ) ) ;
#551 = EDGE_CURVE ( 'NONE', #751, #398, #408, .T. ) ;
#552 = ORIENTED_EDGE ( 'NONE', *, *, #135, .F. ) ;
#553 = DIRECTION ( 'NONE',  ( -0.000000000000000000, -0.000000000000000000, -1.000000000000000000 ) ) ;
#554 = EDGE_CURVE ( 'NONE', #506, #222, #670, .T. ) ;
#555 = ORIENTED_EDGE ( 'NONE', *, *, #604, .T. ) ;
#556 = DATE_AND_TIME ( #137, #217 ) ;
#557 = CARTESIAN_POINT ( 'NONE',  ( -13.00000000000000000, 0.000000000000000000, 0.000000000000000000 ) ) ;
#558 = ORIENTED_EDGE ( 'NONE', *, *, #240, .F. ) ;
#559 = AXIS2_PLACEMENT_3D ( 'NONE', #277, #100, #292 ) ;
#560 = CARTESIAN_POINT ( 'NONE',  ( 23.40000000000000213, -9.000000000000000000, 6.999999999999999112 ) ) ;
#561 = FACE_OUTER_BOUND ( 'NONE', #236, .T. ) ;
#562 = VERTEX_POINT ( 'NONE', #633 ) ;
#563 = EDGE_CURVE ( 'NONE', #454, #534, #315, .T. ) ;
#564 = DIRECTION ( 'NONE',  ( 1.000000000000000000, 0.000000000000000000, 0.000000000000000000 ) ) ;
#565 = CARTESIAN_POINT ( 'NONE',  ( 0.000000000000000000, -14.00000000000000000, 4.000000000000000000 ) ) ;
#566 = EDGE_LOOP ( 'NONE', ( #469, #160, #98, #144 ) ) ;
#567 = DIRECTION ( 'NONE',  ( 1.000000000000000000, 0.000000000000000000, 0.000000000000000000 ) ) ;
#568 = APPROVAL ( #180, 'UNSPECIFIED' ) ;
#569 = DIRECTION ( 'NONE',  ( 0.000000000000000000, 0.000000000000000000, 1.000000000000000000 ) ) ;
#570 = DIRECTION ( 'NONE',  ( 0.000000000000000000, 0.000000000000000000, 1.000000000000000000 ) ) ;
#571 = ORIENTED_EDGE ( 'NONE', *, *, #115, .T. ) ;
#572 = CYLINDRICAL_SURFACE ( 'NONE', #107, 11.09999999999999964 ) ;
#573 = AXIS2_PLACEMENT_3D ( 'NONE', #722, #443, #261 ) ;
#574 = FACE_BOUND ( 'NONE', #738, .T. ) ;
#575 = CIRCLE ( 'NONE', #452, 1.100000000000000089 ) ;
#576 = EDGE_CURVE ( 'NONE', #664, #208, #603, .T. ) ;
#577 = DIRECTION ( 'NONE',  ( -0.000000000000000000, -0.000000000000000000, -1.000000000000000000 ) ) ;
#578 = EDGE_LOOP ( 'NONE', ( #125, #462 ) ) ;
#579 = CARTESIAN_POINT ( 'NONE',  ( -1.100000000000000089, -13.00000000000000000, 6.999999999999999112 ) ) ;
#580 = CARTESIAN_POINT ( 'NONE',  ( -16.00000000000000000, 0.000000000000000000, 7.000000000000000000 ) ) ;
#581 = CC_DESIGN_PERSON_AND_ORGANIZATION_ASSIGNMENT ( #121, #414, ( #129 ) ) ;
#582 = ORIENTED_EDGE ( 'NONE', *, *, #252, .T. ) ;
#583 = CARTESIAN_POINT ( 'NONE',  ( 0.000000000000000000, -13.00000000000000000, 6.999999999999999112 ) ) ;
#584 = ORIENTED_EDGE ( 'NONE', *, *, #145, .F. ) ;
#585 = APPROVAL_DATE_TIME ( #474, #568 ) ;
#586 = DIRECTION ( 'NONE',  ( 0.000000000000000000, 0.000000000000000000, -1.000000000000000000 ) ) ;
#587 = VERTEX_POINT ( 'NONE', #65 ) ;
#588 = CARTESIAN_POINT ( 'NONE',  ( 0.000000000000000000, 0.000000000000000000, 0.000000000000000000 ) ) ;
#589 = EDGE_CURVE ( 'NONE', #562, #527, #598, .T. ) ;
#590 = LINE ( 'NONE', #257, #395 ) ;
#591 = AXIS2_PLACEMENT_3D ( 'NONE', #308, #365, #181 ) ;
#592 = ORIENTED_EDGE ( 'NONE', *, *, #3, .F. ) ;
#593 = DATE_AND_TIME ( #5, #475 ) ;
#594 = CARTESIAN_POINT ( 'NONE',  ( 16.00000000000000000, 1.959434878635765131E-15, 7.000000000000000000 ) ) ;
#595 = PRODUCT_RELATED_PRODUCT_CATEGORY ( 'detail', '', ( #129 ) ) ;
#596 = ORIENTED_EDGE ( 'NONE', *, *, #554, .T. ) ;
#597 = DATE_AND_TIME ( #184, #259 ) ;
#598 = LINE ( 'NONE', #476, #90 ) ;
#599 = CIRCLE ( 'NONE', #15, 16.00000000000000000 ) ;
#600 = EDGE_CURVE ( 'NONE', #534, #222, #302, .T. ) ;
#601 = EDGE_LOOP ( 'NONE', ( #313, #584 ) ) ;
#602 = UNCERTAINTY_MEASURE_WITH_UNIT (LENGTH_MEASURE( 1.000000000000000082E-05 ), #188, 'distance_accuracy_value', 'NONE');
#603 = LINE ( 'NONE', #69, #254 ) ;
#604 = EDGE_CURVE ( 'NONE', #459, #295, #191, .T. ) ;
#605 = CARTESIAN_POINT ( 'NONE',  ( 0.000000000000000000, -13.00000000000000000, 6.999999999999999112 ) ) ;
#606 = DIRECTION ( 'NONE',  ( -1.000000000000000000, 0.000000000000000000, 0.000000000000000000 ) ) ;
#607 = EDGE_LOOP ( 'NONE', ( #128, #511, #80, #555 ) ) ;
#608 = FACE_OUTER_BOUND ( 'NONE', #120, .T. ) ;
#609 = VERTEX_POINT ( 'NONE', #10 ) ;
#610 = AXIS2_PLACEMENT_3D ( 'NONE', #49, #634, #214 ) ;
#611 = AXIS2_PLACEMENT_3D ( 'NONE', #83, #616, #209 ) ;
#612 = APPROVAL_DATE_TIME ( #556, #332 ) ;
#613 = FACE_OUTER_BOUND ( 'NONE', #689, .T. ) ;
#614 = CC_DESIGN_PERSON_AND_ORGANIZATION_ASSIGNMENT ( #317, #378, ( #736 ) ) ;
#615 = EDGE_LOOP ( 'NONE', ( #552, #35, #231, #183 ) ) ;
#616 = DIRECTION ( 'NONE',  ( 0.000000000000000000, 0.000000000000000000, 1.000000000000000000 ) ) ;
#617 = AXIS2_PLACEMENT_3D ( 'NONE', #237, #684, #401 ) ;
#618 = DIRECTION ( 'NONE',  ( -0.000000000000000000, -0.000000000000000000, -1.000000000000000000 ) ) ;
#619 = DIRECTION ( 'NONE',  ( -1.000000000000000000, 0.000000000000000000, 0.000000000000000000 ) ) ;
#620 = DIRECTION ( 'NONE',  ( -0.000000000000000000, -0.000000000000000000, -1.000000000000000000 ) ) ;
#621 = ADVANCED_FACE ( 'NONE', ( #253 ), #483, .F. ) ;
#622 = ORIENTED_EDGE ( 'NONE', *, *, #563, .T. ) ;
#623 = DIRECTION ( 'NONE',  ( -1.000000000000000000, 0.000000000000000000, 0.000000000000000000 ) ) ;
#624 = DIRECTION ( 'NONE',  ( -1.000000000000000000, 0.000000000000000000, 0.000000000000000000 ) ) ;
#625 = AXIS2_PLACEMENT_3D ( 'NONE', #713, #198, #428 ) ;
#626 = ORIENTED_EDGE ( 'NONE', *, *, #287, .F. ) ;
#627 = DIRECTION ( 'NONE',  ( 0.000000000000000000, -1.000000000000000000, 0.000000000000000000 ) ) ;
#628 = DIRECTION ( 'NONE',  ( 0.000000000000000000, 0.000000000000000000, 1.000000000000000000 ) ) ;
#629 = LINE ( 'NONE', #742, #78 ) ;
#630 = ORIENTED_EDGE ( 'NONE', *, *, #458, .F. ) ;
#631 = FACE_OUTER_BOUND ( 'NONE', #607, .T. ) ;
#632 = EDGE_CURVE ( 'NONE', #361, #720, #744, .T. ) ;
#633 = CARTESIAN_POINT ( 'NONE',  ( -14.09999999999999964, 0.000000000000000000, 6.999999999999999112 ) ) ;
#634 = DIRECTION ( 'NONE',  ( 0.000000000000000000, 0.000000000000000000, 1.000000000000000000 ) ) ;
#635 = ORIENTED_EDGE ( 'NONE', *, *, #525, .F. ) ;
#636 = AXIS2_PLACEMENT_3D ( 'NONE', #39, #391, #564 ) ;
#637 = PLANE ( 'NONE',  #445 ) ;
#638 = LINE ( 'NONE', #106, #147 ) ;
#639 = VERTEX_POINT ( 'NONE', #75 ) ;
#640 = CARTESIAN_POINT ( 'NONE',  ( -1.100000000000000089, 13.00000000000000000, 0.000000000000000000 ) ) ;
#641 = AXIS2_PLACEMENT_3D ( 'NONE', #451, #569, #679 ) ;
#642 = ORIENTED_EDGE ( 'NONE', *, *, #468, .T. ) ;
#643 = APPLICATION_PROTOCOL_DEFINITION ( 'international standard', 'config_control_design', 1994, #695 ) ;
#644 = VECTOR ( 'NONE', #737, 1000.000000000000000 ) ;
#645 = FACE_BOUND ( 'NONE', #21, .T. ) ;
#646 = EDGE_CURVE ( 'NONE', #58, #241, #88, .T. ) ;
#647 = ORIENTED_EDGE ( 'NONE', *, *, #77, .T. ) ;
#648 = DIRECTION ( 'NONE',  ( -1.000000000000000000, -0.000000000000000000, -0.000000000000000000 ) ) ;
#649 = AXIS2_PLACEMENT_3D ( 'NONE', #156, #550, #318 ) ;
#650 = EDGE_LOOP ( 'NONE', ( #658, #351 ) ) ;
#651 = LINE ( 'NONE', #307, #163 ) ;
#652 = DIRECTION ( 'NONE',  ( -1.000000000000000000, 0.000000000000000000, 0.000000000000000000 ) ) ;
#653 =( GEOMETRIC_REPRESENTATION_CONTEXT ( 3 ) GLOBAL_UNCERTAINTY_ASSIGNED_CONTEXT ( ( #602 ) ) GLOBAL_UNIT_ASSIGNED_CONTEXT ( ( #188, #364, #424 ) ) REPRESENTATION_CONTEXT ( 'NONE', 'WORKASPACE' ) );
#654 = ORIENTED_EDGE ( 'NONE', *, *, #551, .T. ) ;
#655 = APPLICATION_PROTOCOL_DEFINITION ( 'international standard', 'config_control_design', 1994, #505 ) ;
#656 = DIRECTION ( 'NONE',  ( -0.000000000000000000, -0.000000000000000000, -1.000000000000000000 ) ) ;
#657 = EDGE_CURVE ( 'NONE', #131, #639, #425, .T. ) ;
#658 = ORIENTED_EDGE ( 'NONE', *, *, #743, .T. ) ;
#659 = CARTESIAN_POINT ( 'NONE',  ( 0.000000000000000000, 0.000000000000000000, 7.000000000000000000 ) ) ;
#660 = DIRECTION ( 'NONE',  ( 1.000000000000000000, 0.000000000000000000, 0.000000000000000000 ) ) ;
#661 = CYLINDRICAL_SURFACE ( 'NONE', #530, 1.100000000000000089 ) ;
#662 = ORIENTED_EDGE ( 'NONE', *, *, #671, .F. ) ;
#663 = CARTESIAN_POINT ( 'NONE',  ( 25.00000000000000000, 9.000000000000000000, 0.000000000000000000 ) ) ;
#664 = VERTEX_POINT ( 'NONE', #359 ) ;
#665 = VERTEX_POINT ( 'NONE', #539 ) ;
#666 = CALENDAR_DATE ( 2026, 7, 9 ) ;
#667 = LINE ( 'NONE', #18, #174 ) ;
#668 = ORIENTED_EDGE ( 'NONE', *, *, #322, .T. ) ;
#669 = CARTESIAN_POINT ( 'NONE',  ( -11.89999999999999858, 1.347111479062088503E-16, 6.999999999999999112 ) ) ;
#670 = CIRCLE ( 'NONE', #617, 1.100000000000000089 ) ;
#671 = EDGE_CURVE ( 'NONE', #714, #14, #421, .T. ) ;
#672 = DIRECTION ( 'NONE',  ( -0.000000000000000000, -0.000000000000000000, 1.000000000000000000 ) ) ;
#673 = CARTESIAN_POINT ( 'NONE',  ( 0.000000000000000000, -13.00000000000000000, 0.000000000000000000 ) ) ;
#674 = CC_DESIGN_PERSON_AND_ORGANIZATION_ASSIGNMENT ( #242, #68, ( #444 ) ) ;
#675 = CYLINDRICAL_SURFACE ( 'NONE', #514, 1.100000000000000311 ) ;
#676 = ORIENTED_EDGE ( 'NONE', *, *, #384, .T. ) ;
#677 = VECTOR ( 'NONE', #226, 1000.000000000000000 ) ;
#678 = DIRECTION ( 'NONE',  ( -0.000000000000000000, -0.000000000000000000, -1.000000000000000000 ) ) ;
#679 = DIRECTION ( 'NONE',  ( 1.000000000000000000, 0.000000000000000000, -0.000000000000000000 ) ) ;
#680 = DIRECTION ( 'NONE',  ( -1.000000000000000000, 0.000000000000000000, 0.000000000000000000 ) ) ;
#681 = AXIS2_PLACEMENT_3D ( 'NONE', #249, #710, #362 ) ;
#682 = ORIENTED_EDGE ( 'NONE', *, *, #554, .F. ) ;
#683 = CARTESIAN_POINT ( 'NONE',  ( 26.60000000000000142, -9.000000000000000000, 6.999999999999999112 ) ) ;
#684 = DIRECTION ( 'NONE',  ( -0.000000000000000000, -0.000000000000000000, -1.000000000000000000 ) ) ;
#685 = CARTESIAN_POINT ( 'NONE',  ( -13.00000000000000000, 0.000000000000000000, 6.999999999999999112 ) ) ;
#686 = ORIENTED_EDGE ( 'NONE', *, *, #276, .F. ) ;
#687 = FACE_BOUND ( 'NONE', #24, .T. ) ;
#688 = CARTESIAN_POINT ( 'NONE',  ( 0.000000000000000000, 0.000000000000000000, 4.000000000000000000 ) ) ;
#689 = EDGE_LOOP ( 'NONE', ( #202, #582, #112, #4 ) ) ;
#690 = CIRCLE ( 'NONE', #573, 1.600000000000000755 ) ;
#691 = CARTESIAN_POINT ( 'NONE',  ( 1.100000000000000089, -13.00000000000000000, 6.999999999999999112 ) ) ;
#692 = ORIENTED_EDGE ( 'NONE', *, *, #477, .F. ) ;
#693 = LINE ( 'NONE', #753, #152 ) ;
#694 = EDGE_CURVE ( 'NONE', #208, #639, #590, .T. ) ;
#695 = APPLICATION_CONTEXT ( 'configuration controlled 3d designs of mechanical parts and assemblies' ) ;
#696 = EDGE_LOOP ( 'NONE', ( #11, #386 ) ) ;
#697 = APPROVAL_DATE_TIME ( #593, #358 ) ;
#698 = DIRECTION ( 'NONE',  ( 1.000000000000000000, 0.000000000000000000, 0.000000000000000000 ) ) ;
#699 = ADVANCED_FACE ( 'NONE', ( #127 ), #661, .F. ) ;
#700 = ORIENTED_EDGE ( 'NONE', *, *, #709, .T. ) ;
#701 = COORDINATED_UNIVERSAL_TIME_OFFSET ( 6, 0, .BEHIND. ) ;
#702 = CARTESIAN_POINT ( 'NONE',  ( 0.000000000000000000, 14.00000000000000000, 4.000000000000000000 ) ) ;
#703 = ORIENTED_EDGE ( 'NONE', *, *, #709, .F. ) ;
#704 = PERSON_AND_ORGANIZATION ( #232, #157 ) ;
#705 = EDGE_CURVE ( 'NONE', #398, #664, #314, .T. ) ;
#706 = DIRECTION ( 'NONE',  ( 1.000000000000000000, 0.000000000000000000, 0.000000000000000000 ) ) ;
#707 = EDGE_LOOP ( 'NONE', ( #329, #215 ) ) ;
#708 = DESIGN_CONTEXT ( 'detailed design', #695, 'design' ) ;
#709 = EDGE_CURVE ( 'NONE', #208, #58, #225, .T. ) ;
#710 = DIRECTION ( 'NONE',  ( 0.000000000000000000, 0.000000000000000000, 1.000000000000000000 ) ) ;
#711 = ORIENTED_EDGE ( 'NONE', *, *, #196, .T. ) ;
#712 = APPROVAL_ROLE ( '' ) ;
#713 = CARTESIAN_POINT ( 'NONE',  ( 30.00000000000000000, -14.00000000000000000, 4.000000000000000000 ) ) ;
#714 = VERTEX_POINT ( 'NONE', #594 ) ;
#715 = FACE_OUTER_BOUND ( 'NONE', #524, .T. ) ;
#716 = CIRCLE ( 'NONE', #64, 11.09999999999999964 ) ;
#717 = EDGE_CURVE ( 'NONE', #38, #366, #324, .T. ) ;
#718 = EDGE_LOOP ( 'NONE', ( #151, #269 ) ) ;
#719 = LINE ( 'NONE', #669, #221 ) ;
#720 = VERTEX_POINT ( 'NONE', #190 ) ;
#721 = SHAPE_DEFINITION_REPRESENTATION ( #194, #731 ) ;
#722 = CARTESIAN_POINT ( 'NONE',  ( 25.00000000000000000, -9.000000000000000000, 4.000000000000000000 ) ) ;
#723 = VECTOR ( 'NONE', #586, 1000.000000000000000 ) ;
#724 = ORIENTED_EDGE ( 'NONE', *, *, #110, .T. ) ;
#725 = ADVANCED_FACE ( 'NONE', ( #61 ), #130, .F. ) ;
#726 = DIRECTION ( 'NONE',  ( 1.000000000000000000, 0.000000000000000000, 0.000000000000000000 ) ) ;
#727 = CYLINDRICAL_SURFACE ( 'NONE', #185, 1.600000000000000755 ) ;
#728 = CARTESIAN_POINT ( 'NONE',  ( 23.40000000000000213, 9.000000000000000000, 0.000000000000000000 ) ) ;
#729 = EDGE_CURVE ( 'NONE', #366, #38, #716, .T. ) ;
#730 = AXIS2_PLACEMENT_3D ( 'NONE', #168, #735, #299 ) ;
#731 = ADVANCED_BREP_SHAPE_REPRESENTATION ( 'ARM-104_Elbow_bearing_cheek', ( #28, #319 ), #653 ) ;
#732 = DIRECTION ( 'NONE',  ( 0.000000000000000000, 0.000000000000000000, -1.000000000000000000 ) ) ;
#733 = ORIENTED_EDGE ( 'NONE', *, *, #263, .F. ) ;
#734 = PLANE ( 'NONE',  #367 ) ;
#735 = DIRECTION ( 'NONE',  ( -0.000000000000000000, -0.000000000000000000, -1.000000000000000000 ) ) ;
#736 = SECURITY_CLASSIFICATION ( '', '', #270 ) ;
#737 = DIRECTION ( 'NONE',  ( 1.000000000000000000, 0.000000000000000000, 0.000000000000000000 ) ) ;
#738 = EDGE_LOOP ( 'NONE', ( #427, #250 ) ) ;
#739 = CIRCLE ( 'NONE', #611, 11.09999999999999964 ) ;
#740 = DIRECTION ( 'NONE',  ( 0.000000000000000000, -0.000000000000000000, -1.000000000000000000 ) ) ;
#741 = DIRECTION ( 'NONE',  ( 1.000000000000000000, 0.000000000000000000, 0.000000000000000000 ) ) ;
#742 = CARTESIAN_POINT ( 'NONE',  ( 0.000000000000000000, -14.00000000000000000, 0.000000000000000000 ) ) ;
#743 = EDGE_CURVE ( 'NONE', #108, #714, #360, .T. ) ;
#744 = CIRCLE ( 'NONE', #23, 11.09999999999999964 ) ;
#745 = ORIENTED_EDGE ( 'NONE', *, *, #384, .F. ) ;
#746 = DIRECTION ( 'NONE',  ( -0.000000000000000000, -0.000000000000000000, -1.000000000000000000 ) ) ;
#747 = AXIS2_PLACEMENT_3D ( 'NONE', #508, #286, #523 ) ;
#748 = DIRECTION ( 'NONE',  ( -1.000000000000000000, 0.000000000000000000, 0.000000000000000000 ) ) ;
#749 = ORIENTED_EDGE ( 'NONE', *, *, #604, .F. ) ;
#750 = CYLINDRICAL_SURFACE ( 'NONE', #211, 1.600000000000000755 ) ;
#751 = VERTEX_POINT ( 'NONE', #482 ) ;
#752 = EDGE_CURVE ( 'NONE', #341, #295, #651, .T. ) ;
#753 = CARTESIAN_POINT ( 'NONE',  ( 11.09999999999999964, 1.359357947053562156E-15, 7.000000000000000000 ) ) ;
ENDSEC;
END-ISO-10303-21;
