ISO-10303-21;
HEADER;
FILE_DESCRIPTION (( 'STEP AP203' ),
    '1' );
FILE_NAME ('ARM-103_Grip_moving_finger.step',
    '2026-09-07T21:17:56',
    ( '' ),
    ( '' ),
    'SwSTEP 2.0',
    'SolidWorks 2026',
    '' );
FILE_SCHEMA (( 'CONFIG_CONTROL_DESIGN' ));
ENDSEC;

DATA;
#1 = AXIS2_PLACEMENT_3D ( 'NONE', #486, #352, #286 ) ;
#2 = FACE_OUTER_BOUND ( 'NONE', #669, .T. ) ;
#3 = EDGE_CURVE ( 'NONE', #655, #53, #848, .T. ) ;
#4 = LINE ( 'NONE', #340, #730 ) ;
#5 = CYLINDRICAL_SURFACE ( 'NONE', #332, 11.00000000000000000 ) ;
#6 = AXIS2_PLACEMENT_3D ( 'NONE', #728, #587, #379 ) ;
#7 = FACE_OUTER_BOUND ( 'NONE', #722, .T. ) ;
#8 = CYLINDRICAL_SURFACE ( 'NONE', #543, 3.000000000000000000 ) ;
#9 = EDGE_LOOP ( 'NONE', ( #164, #116 ) ) ;
#10 = DIRECTION ( 'NONE',  ( 0.000000000000000000, 1.000000000000000000, 0.000000000000000000 ) ) ;
#11 = DIRECTION ( 'NONE',  ( -1.000000000000000000, -0.000000000000000000, -0.000000000000000000 ) ) ;
#12 = EDGE_CURVE ( 'NONE', #598, #126, #628, .T. ) ;
#13 = VERTEX_POINT ( 'NONE', #416 ) ;
#14 = CARTESIAN_POINT ( 'NONE',  ( 1.100000000000000089, -7.000000000000000000, 15.00000000000000000 ) ) ;
#15 = AXIS2_PLACEMENT_3D ( 'NONE', #784, #359, #623 ) ;
#16 = VECTOR ( 'NONE', #701, 1000.000000000000000 ) ;
#17 = LOCAL_TIME ( 16, 17, 56.00000000000000000, #252 ) ;
#18 = CARTESIAN_POINT ( 'NONE',  ( 24.00000000000000000, -5.500000000000000000, 18.00000000000000355 ) ) ;
#19 = VERTEX_POINT ( 'NONE', #619 ) ;
#20 = CYLINDRICAL_SURFACE ( 'NONE', #746, 1.100000000000000089 ) ;
#21 = VECTOR ( 'NONE', #181, 1000.000000000000000 ) ;
#22 = CARTESIAN_POINT ( 'NONE',  ( 27.00000000000000000, -4.000000000000000000, 0.000000000000000000 ) ) ;
#23 = ORIENTED_EDGE ( 'NONE', *, *, #754, .F. ) ;
#24 = CARTESIAN_POINT ( 'NONE',  ( 0.000000000000000000, -7.000000000000000000, 18.00000000000000000 ) ) ;
#25 = DIRECTION ( 'NONE',  ( -1.000000000000000000, 0.000000000000000000, -0.000000000000000000 ) ) ;
#26 = EDGE_CURVE ( 'NONE', #221, #178, #757, .T. ) ;
#27 = EDGE_CURVE ( 'NONE', #186, #533, #159, .T. ) ;
#28 = DIRECTION ( 'NONE',  ( 1.000000000000000000, 0.000000000000000000, 0.000000000000000000 ) ) ;
#29 = ORIENTED_EDGE ( 'NONE', *, *, #255, .F. ) ;
#30 = DIRECTION ( 'NONE',  ( 0.000000000000000000, 0.000000000000000000, -1.000000000000000000 ) ) ;
#31 = ORIENTED_EDGE ( 'NONE', *, *, #194, .F. ) ;
#32 = VECTOR ( 'NONE', #223, 1000.000000000000000 ) ;
#33 = ADVANCED_FACE ( 'NONE', ( #612 ), #206, .F. ) ;
#34 = LINE ( 'NONE', #860, #736 ) ;
#35 = ORIENTED_EDGE ( 'NONE', *, *, #731, .F. ) ;
#36 = LINE ( 'NONE', #504, #32 ) ;
#37 = ORIENTED_EDGE ( 'NONE', *, *, #175, .F. ) ;
#38 = CIRCLE ( 'NONE', #535, 11.00000000000000000 ) ;
#39 = CARTESIAN_POINT ( 'NONE',  ( 24.00000000000000000, -5.500000000000000000, 0.000000000000000000 ) ) ;
#40 = ORIENTED_EDGE ( 'NONE', *, *, #528, .F. ) ;
#41 = CARTESIAN_POINT ( 'NONE',  ( -3.000000000000000000, 0.000000000000000000, 18.00000000000000355 ) ) ;
#42 = VERTEX_POINT ( 'NONE', #423 ) ;
#43 = APPROVAL_STATUS ( 'not_yet_approved' ) ;
#44 = EDGE_CURVE ( 'NONE', #626, #104, #174, .T. ) ;
#45 = ORIENTED_EDGE ( 'NONE', *, *, #889, .F. ) ;
#46 = CARTESIAN_POINT ( 'NONE',  ( -8.099999999999999645, 0.000000000000000000, 18.00000000000000355 ) ) ;
#47 = ORIENTED_EDGE ( 'NONE', *, *, #44, .F. ) ;
#48 = APPLICATION_PROTOCOL_DEFINITION ( 'international standard', 'config_control_design', 1994, #339 ) ;
#49 = ORIENTED_EDGE ( 'NONE', *, *, #134, .F. ) ;
#50 = DIRECTION ( 'NONE',  ( -0.000000000000000000, -0.000000000000000000, 1.000000000000000000 ) ) ;
#51 = ORIENTED_EDGE ( 'NONE', *, *, #661, .T. ) ;
#52 = CARTESIAN_POINT ( 'NONE',  ( 0.000000000000000000, 0.000000000000000000, 0.000000000000000000 ) ) ;
#53 = VERTEX_POINT ( 'NONE', #469 ) ;
#54 = ADVANCED_FACE ( 'NONE', ( #412 ), #71, .F. ) ;
#55 = CARTESIAN_POINT ( 'NONE',  ( -5.899999999999999467, 1.347111479062088750E-16, 18.00000000000000355 ) ) ;
#56 = CARTESIAN_POINT ( 'NONE',  ( 18.00000000000000000, -5.500000000000000000, 18.00000000000000355 ) ) ;
#57 = APPROVAL_DATE_TIME ( #796, #867 ) ;
#58 = VERTEX_POINT ( 'NONE', #336 ) ;
#59 = DIRECTION ( 'NONE',  ( 0.000000000000000000, 0.000000000000000000, -1.000000000000000000 ) ) ;
#60 = AXIS2_PLACEMENT_3D ( 'NONE', #691, #220, #506 ) ;
#61 = DIRECTION ( 'NONE',  ( 0.000000000000000000, 0.000000000000000000, -1.000000000000000000 ) ) ;
#62 = CIRCLE ( 'NONE', #218, 0.8500000000000000888 ) ;
#63 = ORIENTED_EDGE ( 'NONE', *, *, #661, .F. ) ;
#64 = LINE ( 'NONE', #328, #391 ) ;
#65 = ADVANCED_BREP_SHAPE_REPRESENTATION ( 'ARM-103_Grip_moving_finger', ( #764, #618 ), #249 ) ;
#66 = DIRECTION ( 'NONE',  ( 0.000000000000000000, 0.000000000000000000, 1.000000000000000000 ) ) ;
#67 = AXIS2_PLACEMENT_3D ( 'NONE', #92, #366, #488 ) ;
#68 = ADVANCED_FACE ( 'NONE', ( #278 ), #5, .T. ) ;
#69 = ORIENTED_EDGE ( 'NONE', *, *, #255, .T. ) ;
#70 = CARTESIAN_POINT ( 'NONE',  ( -3.000000000000000000, 0.000000000000000000, 18.00000000000000355 ) ) ;
#71 = CYLINDRICAL_SURFACE ( 'NONE', #713, 0.8500000000000000888 ) ;
#72 = ADVANCED_FACE ( 'NONE', ( #602 ), #130, .F. ) ;
#73 = DIRECTION ( 'NONE',  ( -1.000000000000000000, -0.000000000000000000, -0.000000000000000000 ) ) ;
#74 = CARTESIAN_POINT ( 'NONE',  ( 15.00000000000000000, -7.000000000000000000, 15.00000000000000000 ) ) ;
#75 = DIRECTION ( 'NONE',  ( -1.000000000000000000, 0.000000000000000000, 0.000000000000000000 ) ) ;
#76 = AXIS2_PLACEMENT_3D ( 'NONE', #733, #333, #607 ) ;
#77 = CC_DESIGN_APPROVAL ( #455, ( #390 ) ) ;
#78 = CARTESIAN_POINT ( 'NONE',  ( 15.00000000000000000, -4.000000000000000000, 0.000000000000000000 ) ) ;
#79 = CARTESIAN_POINT ( 'NONE',  ( 0.000000000000000000, 7.000000000000000000, 18.00000000000000355 ) ) ;
#80 = AXIS2_PLACEMENT_3D ( 'NONE', #177, #449, #111 ) ;
#81 = CARTESIAN_POINT ( 'NONE',  ( 0.000000000000000000, 7.000000000000000000, 18.00000000000000355 ) ) ;
#82 = EDGE_CURVE ( 'NONE', #606, #464, #832, .T. ) ;
#83 = DIRECTION ( 'NONE',  ( 1.000000000000000000, 0.000000000000000000, 0.000000000000000000 ) ) ;
#84 = ORIENTED_EDGE ( 'NONE', *, *, #385, .F. ) ;
#85 = FACE_OUTER_BOUND ( 'NONE', #453, .T. ) ;
#86 = CARTESIAN_POINT ( 'NONE',  ( 8.485281374238569541, -7.000000000000000000, 18.00000000000000000 ) ) ;
#87 = VERTEX_POINT ( 'NONE', #142 ) ;
#88 = AXIS2_PLACEMENT_3D ( 'NONE', #144, #480, #884 ) ;
#89 =( NAMED_UNIT ( * ) PLANE_ANGLE_UNIT ( ) SI_UNIT ( $, .RADIAN. ) );
#90 = AXIS2_PLACEMENT_3D ( 'NONE', #298, #287, #851 ) ;
#91 = CARTESIAN_POINT ( 'NONE',  ( -1.100000000000000089, 7.000000000000000000, 18.00000000000000355 ) ) ;
#92 = CARTESIAN_POINT ( 'NONE',  ( 0.000000000000000000, -7.000000000000000000, 18.00000000000000355 ) ) ;
#93 = ORIENTED_EDGE ( 'NONE', *, *, #27, .F. ) ;
#94 = EDGE_CURVE ( 'NONE', #97, #407, #103, .T. ) ;
#95 = DIRECTION ( 'NONE',  ( 1.000000000000000000, 0.000000000000000000, 0.000000000000000000 ) ) ;
#96 = LINE ( 'NONE', #789, #396 ) ;
#97 = VERTEX_POINT ( 'NONE', #679 ) ;
#98 = DIRECTION ( 'NONE',  ( -1.000000000000000000, 0.000000000000000000, 0.000000000000000000 ) ) ;
#99 = EDGE_CURVE ( 'NONE', #182, #19, #282, .T. ) ;
#100 = DIRECTION ( 'NONE',  ( 0.000000000000000000, 0.000000000000000000, 1.000000000000000000 ) ) ;
#101 = ORIENTED_EDGE ( 'NONE', *, *, #518, .T. ) ;
#102 = CARTESIAN_POINT ( 'NONE',  ( -8.100000000000001421, 0.000000000000000000, 18.00000000000000355 ) ) ;
#103 = CIRCLE ( 'NONE', #745, 3.000000000000000000 ) ;
#104 = VERTEX_POINT ( 'NONE', #419 ) ;
#105 = CIRCLE ( 'NONE', #489, 1.100000000000000089 ) ;
#106 = APPROVAL_PERSON_ORGANIZATION ( #465, #455, #401 ) ;
#107 = CARTESIAN_POINT ( 'NONE',  ( -1.100000000000000089, 7.000000000000000000, 15.00000000000000000 ) ) ;
#108 = ORIENTED_EDGE ( 'NONE', *, *, #686, .F. ) ;
#109 = CYLINDRICAL_SURFACE ( 'NONE', #334, 1.099999999999999423 ) ;
#110 = VECTOR ( 'NONE', #138, 1000.000000000000000 ) ;
#111 = DIRECTION ( 'NONE',  ( -1.000000000000000000, 0.000000000000000000, 0.000000000000000000 ) ) ;
#112 = ADVANCED_FACE ( 'NONE', ( #542 ), #266, .F. ) ;
#113 = EDGE_LOOP ( 'NONE', ( #29, #108 ) ) ;
#114 = ORIENTED_EDGE ( 'NONE', *, *, #203, .T. ) ;
#115 = DIRECTION ( 'NONE',  ( 1.000000000000000000, 0.000000000000000000, 0.000000000000000000 ) ) ;
#116 = ORIENTED_EDGE ( 'NONE', *, *, #680, .T. ) ;
#117 = CALENDAR_DATE ( 2026, 7, 9 ) ;
#118 = ORIENTED_EDGE ( 'NONE', *, *, #194, .T. ) ;
#119 = DIRECTION ( 'NONE',  ( 0.000000000000000000, 0.000000000000000000, -1.000000000000000000 ) ) ;
#120 = VECTOR ( 'NONE', #774, 1000.000000000000000 ) ;
#121 = EDGE_LOOP ( 'NONE', ( #430, #794, #323, #632 ) ) ;
#122 = ADVANCED_FACE ( 'NONE', ( #891 ), #550, .F. ) ;
#123 = ORIENTED_EDGE ( 'NONE', *, *, #568, .F. ) ;
#124 = DIRECTION ( 'NONE',  ( 0.000000000000000000, 1.000000000000000000, 0.000000000000000000 ) ) ;
#125 = AXIS2_PLACEMENT_3D ( 'NONE', #883, #614, #200 ) ;
#126 = VERTEX_POINT ( 'NONE', #694 ) ;
#127 = APPROVAL_ROLE ( '' ) ;
#128 = ORIENTED_EDGE ( 'NONE', *, *, #398, .T. ) ;
#129 = DIRECTION ( 'NONE',  ( 0.000000000000000000, 0.000000000000000000, -1.000000000000000000 ) ) ;
#130 = CYLINDRICAL_SURFACE ( 'NONE', #758, 1.099999999999999423 ) ;
#131 = APPROVAL_STATUS ( 'not_yet_approved' ) ;
#132 = ORIENTED_EDGE ( 'NONE', *, *, #99, .T. ) ;
#133 = CARTESIAN_POINT ( 'NONE',  ( 17.14999999999999858, -5.500000000000000000, 18.00000000000000355 ) ) ;
#134 = EDGE_CURVE ( 'NONE', #555, #591, #437, .T. ) ;
#135 = DIRECTION ( 'NONE',  ( 1.000000000000000000, 0.000000000000000000, 0.000000000000000000 ) ) ;
#136 = CC_DESIGN_SECURITY_CLASSIFICATION ( #335, ( #411 ) ) ;
#137 = ORIENTED_EDGE ( 'NONE', *, *, #238, .T. ) ;
#138 = DIRECTION ( 'NONE',  ( 0.000000000000000000, 1.000000000000000000, 0.000000000000000000 ) ) ;
#139 = VERTEX_POINT ( 'NONE', #767 ) ;
#140 = VECTOR ( 'NONE', #257, 1000.000000000000000 ) ;
#141 = CARTESIAN_POINT ( 'NONE',  ( 0.000000000000000000, 0.000000000000000000, 18.00000000000000000 ) ) ;
#142 = CARTESIAN_POINT ( 'NONE',  ( 10.58300524425836109, 3.000000000000000000, 15.00000000000000000 ) ) ;
#143 = FACE_BOUND ( 'NONE', #9, .T. ) ;
#144 = CARTESIAN_POINT ( 'NONE',  ( 0.000000000000000000, 0.000000000000000000, 15.00000000000000000 ) ) ;
#145 = CIRCLE ( 'NONE', #715, 1.100000000000000311 ) ;
#146 = FACE_OUTER_BOUND ( 'NONE', #380, .T. ) ;
#147 = EDGE_CURVE ( 'NONE', #53, #674, #762, .T. ) ;
#148 = DIRECTION ( 'NONE',  ( 0.000000000000000000, 0.000000000000000000, -1.000000000000000000 ) ) ;
#149 = EDGE_LOOP ( 'NONE', ( #45, #392 ) ) ;
#150 = AXIS2_PLACEMENT_3D ( 'NONE', #660, #868, #799 ) ;
#151 = DIRECTION ( 'NONE',  ( 0.000000000000000000, 0.000000000000000000, -1.000000000000000000 ) ) ;
#152 = CARTESIAN_POINT ( 'NONE',  ( 18.84999999999999787, -5.500000000000000000, 18.00000000000000355 ) ) ;
#153 = ORIENTED_EDGE ( 'NONE', *, *, #712, .F. ) ;
#154 = CARTESIAN_POINT ( 'NONE',  ( 10.58300524425836109, 3.000000000000000000, 18.00000000000000000 ) ) ;
#155 = PLANE ( 'NONE',  #548 ) ;
#156 = ADVANCED_FACE ( 'NONE', ( #772 ), #8, .F. ) ;
#157 = ORIENTED_EDGE ( 'NONE', *, *, #492, .F. ) ;
#158 = CARTESIAN_POINT ( 'NONE',  ( 0.000000000000000000, -7.000000000000000000, 18.00000000000000355 ) ) ;
#159 = CIRCLE ( 'NONE', #216, 0.8500000000000000888 ) ;
#160 = DIRECTION ( 'NONE',  ( 0.000000000000000000, 0.000000000000000000, -1.000000000000000000 ) ) ;
#161 = ORIENTED_EDGE ( 'NONE', *, *, #163, .F. ) ;
#162 = CARTESIAN_POINT ( 'NONE',  ( 27.00000000000000000, -7.000000000000000000, 18.00000000000000000 ) ) ;
#163 = EDGE_CURVE ( 'NONE', #593, #674, #247, .T. ) ;
#164 = ORIENTED_EDGE ( 'NONE', *, *, #348, .T. ) ;
#165 = DIRECTION ( 'NONE',  ( 1.000000000000000000, 0.000000000000000000, 0.000000000000000000 ) ) ;
#166 = VECTOR ( 'NONE', #265, 1000.000000000000000 ) ;
#167 = FACE_OUTER_BOUND ( 'NONE', #710, .T. ) ;
#168 = LINE ( 'NONE', #844, #693 ) ;
#169 = ORIENTED_EDGE ( 'NONE', *, *, #518, .F. ) ;
#170 = FACE_OUTER_BOUND ( 'NONE', #456, .T. ) ;
#171 = CARTESIAN_POINT ( 'NONE',  ( 0.000000000000000000, -4.000000000000000000, 15.00000000000000000 ) ) ;
#172 = EDGE_LOOP ( 'NONE', ( #304, #184, #732, #490, #699, #309 ) ) ;
#173 = LINE ( 'NONE', #381, #530 ) ;
#174 = CIRCLE ( 'NONE', #876, 1.100000000000000089 ) ;
#175 = EDGE_CURVE ( 'NONE', #662, #338, #205, .T. ) ;
#176 = AXIS2_PLACEMENT_3D ( 'NONE', #363, #305, #377 ) ;
#177 = CARTESIAN_POINT ( 'NONE',  ( 0.000000000000000000, 0.000000000000000000, 18.00000000000000355 ) ) ;
#178 = VERTEX_POINT ( 'NONE', #22 ) ;
#179 = PERSON_AND_ORGANIZATION ( #448, #748 ) ;
#180 = VECTOR ( 'NONE', #119, 1000.000000000000000 ) ;
#181 = DIRECTION ( 'NONE',  ( 0.000000000000000000, 0.000000000000000000, -1.000000000000000000 ) ) ;
#182 = VERTEX_POINT ( 'NONE', #575 ) ;
#183 = COORDINATED_UNIVERSAL_TIME_OFFSET ( 6, 0, .BEHIND. ) ;
#184 = ORIENTED_EDGE ( 'NONE', *, *, #824, .F. ) ;
#185 = FACE_BOUND ( 'NONE', #666, .T. ) ;
#186 = VERTEX_POINT ( 'NONE', #152 ) ;
#187 = EDGE_CURVE ( 'NONE', #523, #13, #557, .T. ) ;
#188 = PERSON_AND_ORGANIZATION_ROLE ( 'classification_officer' ) ;
#189 = ORIENTED_EDGE ( 'NONE', *, *, #680, .F. ) ;
#190 = FACE_OUTER_BOUND ( 'NONE', #859, .T. ) ;
#191 = LOCAL_TIME ( 16, 17, 56.00000000000000000, #183 ) ;
#192 = ORIENTED_EDGE ( 'NONE', *, *, #302, .F. ) ;
#193 = DIRECTION ( 'NONE',  ( 0.000000000000000000, 0.000000000000000000, 1.000000000000000000 ) ) ;
#194 = EDGE_CURVE ( 'NONE', #371, #747, #284, .T. ) ;
#195 = LINE ( 'NONE', #479, #110 ) ;
#196 = CIRCLE ( 'NONE', #467, 0.8500000000000000888 ) ;
#197 = DIRECTION ( 'NONE',  ( -0.000000000000000000, -1.000000000000000000, -0.000000000000000000 ) ) ;
#198 = DATE_AND_TIME ( #451, #17 ) ;
#199 = ORIENTED_EDGE ( 'NONE', *, *, #187, .T. ) ;
#200 = DIRECTION ( 'NONE',  ( 1.000000000000000000, 0.000000000000000000, 0.000000000000000000 ) ) ;
#201 = CARTESIAN_POINT ( 'NONE',  ( -7.000000000000000000, 0.000000000000000000, 15.00000000000000000 ) ) ;
#202 = ORIENTED_EDGE ( 'NONE', *, *, #481, .F. ) ;
#203 = EDGE_CURVE ( 'NONE', #734, #438, #604, .T. ) ;
#204 = CARTESIAN_POINT ( 'NONE',  ( 0.000000000000000000, 3.000000000000000000, 15.00000000000000000 ) ) ;
#205 = CIRCLE ( 'NONE', #487, 1.100000000000000089 ) ;
#206 = CYLINDRICAL_SURFACE ( 'NONE', #703, 0.8500000000000000888 ) ;
#207 = CIRCLE ( 'NONE', #647, 1.100000000000000311 ) ;
#208 = CARTESIAN_POINT ( 'NONE',  ( -1.100000000000000089, 7.000000000000000000, 18.00000000000000355 ) ) ;
#209 = CARTESIAN_POINT ( 'NONE',  ( 7.000000000000000000, 0.000000000000000000, 18.00000000000000355 ) ) ;
#210 = DIRECTION ( 'NONE',  ( 0.000000000000000000, 0.000000000000000000, 1.000000000000000000 ) ) ;
#211 = ORIENTED_EDGE ( 'NONE', *, *, #3, .T. ) ;
#212 = DESIGN_CONTEXT ( 'detailed design', #473, 'design' ) ;
#213 = ADVANCED_FACE ( 'NONE', ( #429 ), #236, .F. ) ;
#214 = CARTESIAN_POINT ( 'NONE',  ( -5.899999999999999467, 1.347111479062088750E-16, 15.00000000000000000 ) ) ;
#215 = DIRECTION ( 'NONE',  ( 0.000000000000000000, 0.000000000000000000, 1.000000000000000000 ) ) ;
#216 = AXIS2_PLACEMENT_3D ( 'NONE', #744, #405, #813 ) ;
#217 = ORIENTED_EDGE ( 'NONE', *, *, #569, .F. ) ;
#218 = AXIS2_PLACEMENT_3D ( 'NONE', #567, #620, #347 ) ;
#219 = LINE ( 'NONE', #770, #410 ) ;
#220 = DIRECTION ( 'NONE',  ( -0.000000000000000000, -0.000000000000000000, -1.000000000000000000 ) ) ;
#221 = VERTEX_POINT ( 'NONE', #641 ) ;
#222 = CIRCLE ( 'NONE', #125, 1.099999999999999423 ) ;
#223 = DIRECTION ( 'NONE',  ( 0.000000000000000000, 0.000000000000000000, -1.000000000000000000 ) ) ;
#224 = DIRECTION ( 'NONE',  ( -1.000000000000000000, 0.000000000000000000, 0.000000000000000000 ) ) ;
#225 = EDGE_CURVE ( 'NONE', #600, #591, #360, .T. ) ;
#226 = CARTESIAN_POINT ( 'NONE',  ( 24.85000000000000142, -5.500000000000000000, 18.00000000000000355 ) ) ;
#227 = VERTEX_POINT ( 'NONE', #226 ) ;
#228 = LINE ( 'NONE', #295, #120 ) ;
#229 = CARTESIAN_POINT ( 'NONE',  ( -1.100000000000000089, -7.000000000000000000, 18.00000000000000355 ) ) ;
#230 = CC_DESIGN_PERSON_AND_ORGANIZATION_ASSIGNMENT ( #179, #807, ( #411 ) ) ;
#231 = DIRECTION ( 'NONE',  ( 0.000000000000000000, 0.000000000000000000, -1.000000000000000000 ) ) ;
#232 = ORIENTED_EDGE ( 'NONE', *, *, #94, .T. ) ;
#233 = DIRECTION ( 'NONE',  ( -0.000000000000000000, -0.000000000000000000, -1.000000000000000000 ) ) ;
#234 = AXIS2_PLACEMENT_3D ( 'NONE', #495, #843, #556 ) ;
#235 = CARTESIAN_POINT ( 'NONE',  ( 17.14999999999999858, -5.500000000000000000, 0.000000000000000000 ) ) ;
#236 = CYLINDRICAL_SURFACE ( 'NONE', #475, 0.8500000000000000888 ) ;
#237 = EDGE_LOOP ( 'NONE', ( #293, #841, #508, #384 ) ) ;
#238 = EDGE_CURVE ( 'NONE', #227, #523, #168, .T. ) ;
#239 = CARTESIAN_POINT ( 'NONE',  ( 0.000000000000000000, 7.000000000000000000, 15.00000000000000000 ) ) ;
#240 = FACE_OUTER_BOUND ( 'NONE', #474, .T. ) ;
#241 = ORIENTED_EDGE ( 'NONE', *, *, #825, .T. ) ;
#242 = DIRECTION ( 'NONE',  ( -1.000000000000000000, 0.000000000000000000, 0.000000000000000000 ) ) ;
#243 = EDGE_CURVE ( 'NONE', #438, #734, #311, .T. ) ;
#244 = DIRECTION ( 'NONE',  ( 0.000000000000000000, 0.000000000000000000, -1.000000000000000000 ) ) ;
#245 = ORIENTED_EDGE ( 'NONE', *, *, #12, .T. ) ;
#246 = MECHANICAL_CONTEXT ( 'NONE', #339, 'mechanical' ) ;
#247 = CIRCLE ( 'NONE', #60, 1.099999999999999423 ) ;
#248 = CIRCLE ( 'NONE', #576, 1.100000000000000089 ) ;
#249 =( GEOMETRIC_REPRESENTATION_CONTEXT ( 3 ) GLOBAL_UNCERTAINTY_ASSIGNED_CONTEXT ( ( #778 ) ) GLOBAL_UNIT_ASSIGNED_CONTEXT ( ( #717, #89, #439 ) ) REPRESENTATION_CONTEXT ( 'NONE', 'WORKASPACE' ) );
#250 = LINE ( 'NONE', #597, #21 ) ;
#251 = ORIENTED_EDGE ( 'NONE', *, *, #403, .T. ) ;
#252 = COORDINATED_UNIVERSAL_TIME_OFFSET ( 6, 0, .BEHIND. ) ;
#253 = ORIENTED_EDGE ( 'NONE', *, *, #385, .T. ) ;
#254 = VECTOR ( 'NONE', #817, 1000.000000000000000 ) ;
#255 = EDGE_CURVE ( 'NONE', #42, #227, #719, .T. ) ;
#256 = EDGE_CURVE ( 'NONE', #357, #861, #766, .T. ) ;
#257 = DIRECTION ( 'NONE',  ( 0.000000000000000000, 0.000000000000000000, -1.000000000000000000 ) ) ;
#258 = ORIENTED_EDGE ( 'NONE', *, *, #742, .T. ) ;
#259 = SHAPE_DEFINITION_REPRESENTATION ( #788, #65 ) ;
#260 = ORIENTED_EDGE ( 'NONE', *, *, #540, .T. ) ;
#261 = LINE ( 'NONE', #374, #140 ) ;
#262 = APPROVAL ( #43, 'UNSPECIFIED' ) ;
#263 = ORIENTED_EDGE ( 'NONE', *, *, #256, .T. ) ;
#264 = ORIENTED_EDGE ( 'NONE', *, *, #281, .T. ) ;
#265 = DIRECTION ( 'NONE',  ( 0.000000000000000000, 0.000000000000000000, -1.000000000000000000 ) ) ;
#266 = PLANE ( 'NONE',  #629 ) ;
#267 = SECURITY_CLASSIFICATION_LEVEL ( 'unclassified' ) ;
#268 = ORIENTED_EDGE ( 'NONE', *, *, #838, .T. ) ;
#269 = LINE ( 'NONE', #537, #166 ) ;
#270 = VECTOR ( 'NONE', #59, 1000.000000000000000 ) ;
#271 = DIRECTION ( 'NONE',  ( 0.000000000000000000, 1.000000000000000000, 0.000000000000000000 ) ) ;
#272 = ADVANCED_FACE ( 'NONE', ( #840 ), #155, .F. ) ;
#273 = ORIENTED_EDGE ( 'NONE', *, *, #787, .F. ) ;
#274 = PLANE ( 'NONE',  #652 ) ;
#275 = DIRECTION ( 'NONE',  ( -1.000000000000000000, 0.000000000000000000, 0.000000000000000000 ) ) ;
#276 = DIRECTION ( 'NONE',  ( 1.000000000000000000, 0.000000000000000000, 0.000000000000000000 ) ) ;
#277 = VECTOR ( 'NONE', #30, 1000.000000000000000 ) ;
#278 = FACE_OUTER_BOUND ( 'NONE', #539, .T. ) ;
#279 = CARTESIAN_POINT ( 'NONE',  ( 0.000000000000000000, -7.000000000000000000, 18.00000000000000355 ) ) ;
#280 = LINE ( 'NONE', #208, #690 ) ;
#281 = EDGE_CURVE ( 'NONE', #104, #626, #452, .T. ) ;
#282 = LINE ( 'NONE', #342, #515 ) ;
#283 = DIRECTION ( 'NONE',  ( 0.000000000000000000, -1.000000000000000000, 0.000000000000000000 ) ) ;
#284 = LINE ( 'NONE', #303, #433 ) ;
#285 = ORIENTED_EDGE ( 'NONE', *, *, #398, .F. ) ;
#286 = DIRECTION ( 'NONE',  ( -1.000000000000000000, 0.000000000000000000, 0.000000000000000000 ) ) ;
#287 = DIRECTION ( 'NONE',  ( 0.000000000000000000, 0.000000000000000000, 1.000000000000000000 ) ) ;
#288 = ORIENTED_EDGE ( 'NONE', *, *, #361, .F. ) ;
#289 = AXIS2_PLACEMENT_3D ( 'NONE', #547, #210, #365 ) ;
#290 = CARTESIAN_POINT ( 'NONE',  ( 18.00000000000000000, -5.500000000000000000, 18.00000000000000355 ) ) ;
#291 = DIRECTION ( 'NONE',  ( 1.000000000000000000, 0.000000000000000000, 0.000000000000000000 ) ) ;
#292 = DIRECTION ( 'NONE',  ( -1.000000000000000000, 0.000000000000000000, 0.000000000000000000 ) ) ;
#293 = ORIENTED_EDGE ( 'NONE', *, *, #852, .F. ) ;
#294 = AXIS2_PLACEMENT_3D ( 'NONE', #18, #830, #500 ) ;
#295 = CARTESIAN_POINT ( 'NONE',  ( 0.000000000000000000, -7.000000000000000000, 18.00000000000000000 ) ) ;
#296 = CYLINDRICAL_SURFACE ( 'NONE', #306, 1.100000000000000089 ) ;
#297 = CC_DESIGN_PERSON_AND_ORGANIZATION_ASSIGNMENT ( #395, #188, ( #335 ) ) ;
#298 = CARTESIAN_POINT ( 'NONE',  ( 0.000000000000000000, 7.000000000000000000, 18.00000000000000355 ) ) ;
#299 = ORIENTED_EDGE ( 'NONE', *, *, #815, .T. ) ;
#300 = DIRECTION ( 'NONE',  ( -0.000000000000000000, -0.000000000000000000, -1.000000000000000000 ) ) ;
#301 = DIRECTION ( 'NONE',  ( 0.000000000000000000, 0.000000000000000000, -1.000000000000000000 ) ) ;
#302 = EDGE_CURVE ( 'NONE', #655, #593, #96, .T. ) ;
#303 = CARTESIAN_POINT ( 'NONE',  ( 0.000000000000000000, 3.000000000000000000, 18.00000000000000000 ) ) ;
#304 = ORIENTED_EDGE ( 'NONE', *, *, #825, .F. ) ;
#305 = DIRECTION ( 'NONE',  ( -0.000000000000000000, -0.000000000000000000, -1.000000000000000000 ) ) ;
#306 = AXIS2_PLACEMENT_3D ( 'NONE', #81, #160, #759 ) ;
#307 = CARTESIAN_POINT ( 'NONE',  ( 27.00000000000000000, 3.000000000000000000, 18.00000000000000000 ) ) ;
#308 = EDGE_CURVE ( 'NONE', #591, #531, #714, .T. ) ;
#309 = ORIENTED_EDGE ( 'NONE', *, *, #551, .T. ) ;
#310 = CARTESIAN_POINT ( 'NONE',  ( 15.00000000000000000, -4.000000000000000000, 15.00000000000000000 ) ) ;
#311 = CIRCLE ( 'NONE', #382, 1.100000000000000089 ) ;
#312 = ORIENTED_EDGE ( 'NONE', *, *, #373, .T. ) ;
#313 = DIRECTION ( 'NONE',  ( -1.000000000000000000, 0.000000000000000000, 0.000000000000000000 ) ) ;
#314 = EDGE_LOOP ( 'NONE', ( #638, #264, #442, #263 ) ) ;
#315 = CARTESIAN_POINT ( 'NONE',  ( 0.000000000000000000, 0.000000000000000000, 15.00000000000000000 ) ) ;
#316 = EDGE_LOOP ( 'NONE', ( #672, #93 ) ) ;
#317 = PERSON_AND_ORGANIZATION_ROLE ( 'design_owner' ) ;
#318 = EDGE_CURVE ( 'NONE', #845, #873, #454, .T. ) ;
#319 = ORIENTED_EDGE ( 'NONE', *, *, #481, .T. ) ;
#320 = CARTESIAN_POINT ( 'NONE',  ( -8.100000000000001421, 0.000000000000000000, 15.00000000000000000 ) ) ;
#321 = EDGE_LOOP ( 'NONE', ( #84, #874 ) ) ;
#322 = PERSON_AND_ORGANIZATION ( #448, #748 ) ;
#323 = ORIENTED_EDGE ( 'NONE', *, *, #302, .T. ) ;
#324 = CC_DESIGN_DATE_AND_TIME_ASSIGNMENT ( #879, #726, ( #390 ) ) ;
#325 = DIRECTION ( 'NONE',  ( -1.000000000000000000, 0.000000000000000000, 0.000000000000000000 ) ) ;
#326 = ORIENTED_EDGE ( 'NONE', *, *, #852, .T. ) ;
#327 = ORIENTED_EDGE ( 'NONE', *, *, #544, .F. ) ;
#328 = CARTESIAN_POINT ( 'NONE',  ( -11.00000000000000000, 0.000000000000000000, 18.00000000000000000 ) ) ;
#329 = DIRECTION ( 'NONE',  ( 1.000000000000000000, 0.000000000000000000, 0.000000000000000000 ) ) ;
#330 = PERSON_AND_ORGANIZATION_ROLE ( 'design_supplier' ) ;
#331 = ORIENTED_EDGE ( 'NONE', *, *, #698, .F. ) ;
#332 = AXIS2_PLACEMENT_3D ( 'NONE', #615, #818, #275 ) ;
#333 = DIRECTION ( 'NONE',  ( 0.000000000000000000, 0.000000000000000000, 1.000000000000000000 ) ) ;
#334 = AXIS2_PLACEMENT_3D ( 'NONE', #443, #842, #368 ) ;
#335 = SECURITY_CLASSIFICATION ( '', '', #267 ) ;
#336 = CARTESIAN_POINT ( 'NONE',  ( -11.00000000000000000, 0.000000000000000000, 18.00000000000000000 ) ) ;
#337 = ADVANCED_FACE ( 'NONE', ( #723 ), #584, .T. ) ;
#338 = VERTEX_POINT ( 'NONE', #107 ) ;
#339 = APPLICATION_CONTEXT ( 'configuration controlled 3d designs of mechanical parts and assemblies' ) ;
#340 = CARTESIAN_POINT ( 'NONE',  ( 27.00000000000000000, -7.000000000000000000, 18.00000000000000000 ) ) ;
#341 = AXIS2_PLACEMENT_3D ( 'NONE', #697, #777, #564 ) ;
#342 = CARTESIAN_POINT ( 'NONE',  ( 15.00000000000000000, -7.000000000000000000, 0.000000000000000000 ) ) ;
#343 = ORIENTED_EDGE ( 'NONE', *, *, #725, .T. ) ;
#344 = DIRECTION ( 'NONE',  ( 0.000000000000000000, 0.000000000000000000, -1.000000000000000000 ) ) ;
#345 = EDGE_CURVE ( 'NONE', #371, #836, #34, .T. ) ;
#346 = DIRECTION ( 'NONE',  ( 1.000000000000000000, 0.000000000000000000, 0.000000000000000000 ) ) ;
#347 = DIRECTION ( 'NONE',  ( 1.000000000000000000, 0.000000000000000000, 0.000000000000000000 ) ) ;
#348 = EDGE_CURVE ( 'NONE', #768, #402, #196, .T. ) ;
#349 = CLOSED_SHELL ( 'NONE', ( #862, #54, #828, #771, #689, #72, #428, #68, #477, #337, #596, #798, #622, #272, #554, #112, #751, #156, #122, #782, #634, #665, #213, #33 ) ) ;
#350 = CARTESIAN_POINT ( 'NONE',  ( 17.14999999999999858, -5.500000000000000000, 18.00000000000000355 ) ) ;
#351 = DIRECTION ( 'NONE',  ( 1.000000000000000000, 0.000000000000000000, 0.000000000000000000 ) ) ;
#352 = DIRECTION ( 'NONE',  ( -0.000000000000000000, -0.000000000000000000, 1.000000000000000000 ) ) ;
#353 = CIRCLE ( 'NONE', #415, 0.8500000000000000888 ) ;
#354 = CARTESIAN_POINT ( 'NONE',  ( 0.000000000000000000, 7.000000000000000000, 15.00000000000000000 ) ) ;
#355 = DIRECTION ( 'NONE',  ( 0.000000000000000000, 0.000000000000000000, 1.000000000000000000 ) ) ;
#356 = DIRECTION ( 'NONE',  ( -1.000000000000000000, 0.000000000000000000, 0.000000000000000000 ) ) ;
#357 = VERTEX_POINT ( 'NONE', #592 ) ;
#358 = DIRECTION ( 'NONE',  ( 0.000000000000000000, 0.000000000000000000, -1.000000000000000000 ) ) ;
#359 = DIRECTION ( 'NONE',  ( -0.000000000000000000, -0.000000000000000000, 1.000000000000000000 ) ) ;
#360 = CIRCLE ( 'NONE', #589, 11.00000000000000000 ) ;
#361 = EDGE_CURVE ( 'NONE', #520, #810, #800, .T. ) ;
#362 = ORIENTED_EDGE ( 'NONE', *, *, #878, .T. ) ;
#363 = CARTESIAN_POINT ( 'NONE',  ( 0.000000000000000000, 0.000000000000000000, 15.00000000000000000 ) ) ;
#364 = LOCAL_TIME ( 16, 17, 56.00000000000000000, #386 ) ;
#365 = DIRECTION ( 'NONE',  ( 1.000000000000000000, 0.000000000000000000, 0.000000000000000000 ) ) ;
#366 = DIRECTION ( 'NONE',  ( 0.000000000000000000, 0.000000000000000000, 1.000000000000000000 ) ) ;
#367 = EDGE_LOOP ( 'NONE', ( #577, #458, #101, #189 ) ) ;
#368 = DIRECTION ( 'NONE',  ( -1.000000000000000000, 0.000000000000000000, 0.000000000000000000 ) ) ;
#369 = CARTESIAN_POINT ( 'NONE',  ( 0.000000000000000000, 0.000000000000000000, 0.000000000000000000 ) ) ;
#370 = CARTESIAN_POINT ( 'NONE',  ( 0.000000000000000000, 0.000000000000000000, 18.00000000000000355 ) ) ;
#371 = VERTEX_POINT ( 'NONE', #307 ) ;
#372 = DIRECTION ( 'NONE',  ( -0.000000000000000000, -0.000000000000000000, -1.000000000000000000 ) ) ;
#373 = EDGE_CURVE ( 'NONE', #13, #523, #353, .T. ) ;
#374 = CARTESIAN_POINT ( 'NONE',  ( -5.899999999999999467, 1.347111479062088750E-16, 18.00000000000000355 ) ) ;
#375 = ORIENTED_EDGE ( 'NONE', *, *, #175, .T. ) ;
#376 = VECTOR ( 'NONE', #425, 1000.000000000000000 ) ;
#377 = DIRECTION ( 'NONE',  ( 1.000000000000000000, 0.000000000000000000, 0.000000000000000000 ) ) ;
#378 = AXIS2_PLACEMENT_3D ( 'NONE', #369, #301, #25 ) ;
#379 = DIRECTION ( 'NONE',  ( 1.000000000000000000, 0.000000000000000000, 0.000000000000000000 ) ) ;
#380 = EDGE_LOOP ( 'NONE', ( #413, #514, #659, #470 ) ) ;
#381 = CARTESIAN_POINT ( 'NONE',  ( 15.00000000000000000, -4.000000000000000000, 18.00000000000000000 ) ) ;
#382 = AXIS2_PLACEMENT_3D ( 'NONE', #79, #570, #637 ) ;
#383 = DIRECTION ( 'NONE',  ( -0.000000000000000000, -0.000000000000000000, -1.000000000000000000 ) ) ;
#384 = ORIENTED_EDGE ( 'NONE', *, *, #698, .T. ) ;
#385 = EDGE_CURVE ( 'NONE', #407, #97, #563, .T. ) ;
#386 = COORDINATED_UNIVERSAL_TIME_OFFSET ( 6, 0, .BEHIND. ) ;
#387 = DIRECTION ( 'NONE',  ( 1.000000000000000000, 0.000000000000000000, 0.000000000000000000 ) ) ;
#388 = ORIENTED_EDGE ( 'NONE', *, *, #225, .T. ) ;
#389 = DATE_AND_TIME ( #117, #191 ) ;
#390 = PRODUCT_DEFINITION ( 'UNKNOWN', '', #411, #212 ) ;
#391 = VECTOR ( 'NONE', #471, 1000.000000000000000 ) ;
#392 = ORIENTED_EDGE ( 'NONE', *, *, #82, .F. ) ;
#393 = CARTESIAN_POINT ( 'NONE',  ( 0.000000000000000000, 0.000000000000000000, 18.00000000000000355 ) ) ;
#394 = ORIENTED_EDGE ( 'NONE', *, *, #485, .F. ) ;
#395 = PERSON_AND_ORGANIZATION ( #448, #748 ) ;
#396 = VECTOR ( 'NONE', #244, 1000.000000000000000 ) ;
#397 = ORIENTED_EDGE ( 'NONE', *, *, #26, .F. ) ;
#398 = EDGE_CURVE ( 'NONE', #87, #600, #38, .T. ) ;
#399 = FACE_OUTER_BOUND ( 'NONE', #864, .T. ) ;
#400 = ORIENTED_EDGE ( 'NONE', *, *, #595, .T. ) ;
#401 = APPROVAL_ROLE ( '' ) ;
#402 = VERTEX_POINT ( 'NONE', #513 ) ;
#403 = EDGE_CURVE ( 'NONE', #674, #593, #580, .T. ) ;
#404 = FACE_BOUND ( 'NONE', #113, .T. ) ;
#405 = DIRECTION ( 'NONE',  ( 0.000000000000000000, 0.000000000000000000, 1.000000000000000000 ) ) ;
#406 = AXIS2_PLACEMENT_3D ( 'NONE', #209, #888, #346 ) ;
#407 = VERTEX_POINT ( 'NONE', #41 ) ;
#408 = AXIS2_PLACEMENT_3D ( 'NONE', #201, #472, #135 ) ;
#409 = DIRECTION ( 'NONE',  ( 1.000000000000000000, 0.000000000000000000, 0.000000000000000000 ) ) ;
#410 = VECTOR ( 'NONE', #10, 1000.000000000000000 ) ;
#411 = PRODUCT_DEFINITION_FORMATION_WITH_SPECIFIED_SOURCE ( 'ANY', '', #482, .NOT_KNOWN. ) ;
#412 = FACE_OUTER_BOUND ( 'NONE', #426, .T. ) ;
#413 = ORIENTED_EDGE ( 'NONE', *, *, #651, .T. ) ;
#414 = CARTESIAN_POINT ( 'NONE',  ( 5.900000000000000355, 0.000000000000000000, 15.00000000000000000 ) ) ;
#415 = AXIS2_PLACEMENT_3D ( 'NONE', #39, #718, #313 ) ;
#416 = CARTESIAN_POINT ( 'NONE',  ( 23.15000000000000213, -5.500000000000000000, 0.000000000000000000 ) ) ;
#417 = EDGE_CURVE ( 'NONE', #104, #861, #250, .T. ) ;
#418 = LINE ( 'NONE', #532, #814 ) ;
#419 = CARTESIAN_POINT ( 'NONE',  ( 1.100000000000000089, -7.000000000000000000, 18.00000000000000355 ) ) ;
#420 = CC_DESIGN_DATE_AND_TIME_ASSIGNMENT ( #198, #721, ( #335 ) ) ;
#421 = FACE_BOUND ( 'NONE', #871, .T. ) ;
#422 = VECTOR ( 'NONE', #233, 1000.000000000000000 ) ;
#423 = CARTESIAN_POINT ( 'NONE',  ( 23.15000000000000213, -5.500000000000000000, 18.00000000000000355 ) ) ;
#424 = CARTESIAN_POINT ( 'NONE',  ( -3.000000000000000000, 0.000000000000000000, 15.00000000000000000 ) ) ;
#425 = DIRECTION ( 'NONE',  ( -0.000000000000000000, -0.000000000000000000, -1.000000000000000000 ) ) ;
#426 = EDGE_LOOP ( 'NONE', ( #69, #137, #610, #153 ) ) ;
#427 = CARTESIAN_POINT ( 'NONE',  ( 0.000000000000000000, 0.000000000000000000, 18.00000000000000000 ) ) ;
#428 = ADVANCED_FACE ( 'NONE', ( #667 ), #792, .F. ) ;
#429 = FACE_OUTER_BOUND ( 'NONE', #724, .T. ) ;
#430 = ORIENTED_EDGE ( 'NONE', *, *, #147, .F. ) ;
#431 = CARTESIAN_POINT ( 'NONE',  ( 0.000000000000000000, 3.000000000000000000, 18.00000000000000000 ) ) ;
#432 = DIRECTION ( 'NONE',  ( 0.000000000000000000, 0.000000000000000000, -1.000000000000000000 ) ) ;
#433 = VECTOR ( 'NONE', #11, 1000.000000000000000 ) ;
#434 = EDGE_LOOP ( 'NONE', ( #819, #882 ) ) ;
#435 = DIRECTION ( 'NONE',  ( 1.000000000000000000, 0.000000000000000000, 0.000000000000000000 ) ) ;
#436 = LINE ( 'NONE', #154, #16 ) ;
#437 = LINE ( 'NONE', #86, #376 ) ;
#438 = VERTEX_POINT ( 'NONE', #656 ) ;
#439 =( NAMED_UNIT ( * ) SI_UNIT ( $, .STERADIAN. ) SOLID_ANGLE_UNIT ( ) );
#440 = EDGE_CURVE ( 'NONE', #810, #464, #856, .T. ) ;
#441 = CARTESIAN_POINT ( 'NONE',  ( 0.000000000000000000, 0.000000000000000000, 15.00000000000000000 ) ) ;
#442 = ORIENTED_EDGE ( 'NONE', *, *, #485, .T. ) ;
#443 = CARTESIAN_POINT ( 'NONE',  ( -7.000000000000000000, 0.000000000000000000, 18.00000000000000355 ) ) ;
#444 = DIRECTION ( 'NONE',  ( 1.000000000000000000, 0.000000000000000000, -0.000000000000000000 ) ) ;
#445 = EDGE_LOOP ( 'NONE', ( #273, #232, #319, #245 ) ) ;
#446 = VECTOR ( 'NONE', #432, 1000.000000000000000 ) ;
#447 = CARTESIAN_POINT ( 'NONE',  ( -7.000000000000000000, 0.000000000000000000, 15.00000000000000000 ) ) ;
#448 = PERSON ( 'UNSPECIFIED', 'UNSPECIFIED', 'UNSPECIFIED', ('UNSPECIFIED'), ('UNSPECIFIED'), ('UNSPECIFIED') ) ;
#449 = DIRECTION ( 'NONE',  ( 0.000000000000000000, 0.000000000000000000, -1.000000000000000000 ) ) ;
#450 = EDGE_LOOP ( 'NONE', ( #646, #157 ) ) ;
#451 = CALENDAR_DATE ( 2026, 7, 9 ) ;
#452 = CIRCLE ( 'NONE', #67, 1.100000000000000089 ) ;
#453 = EDGE_LOOP ( 'NONE', ( #123, #594, #400, #362 ) ) ;
#454 = LINE ( 'NONE', #171, #839 ) ;
#455 = APPROVAL ( #131, 'UNSPECIFIED' ) ;
#456 = EDGE_LOOP ( 'NONE', ( #565, #853, #886, #741 ) ) ;
#457 = APPROVAL_STATUS ( 'not_yet_approved' ) ;
#458 = ORIENTED_EDGE ( 'NONE', *, *, #27, .T. ) ;
#459 = PLANE ( 'NONE',  #521 ) ;
#460 = ORIENTED_EDGE ( 'NONE', *, *, #345, .F. ) ;
#461 = ORIENTED_EDGE ( 'NONE', *, *, #568, .T. ) ;
#462 = CC_DESIGN_APPROVAL ( #867, ( #411 ) ) ;
#463 = PLANE ( 'NONE',  #76 ) ;
#464 = VERTEX_POINT ( 'NONE', #320 ) ;
#465 = PERSON_AND_ORGANIZATION ( #448, #748 ) ;
#466 = EDGE_CURVE ( 'NONE', #520, #606, #261, .T. ) ;
#467 = AXIS2_PLACEMENT_3D ( 'NONE', #804, #50, #325 ) ;
#468 = FACE_BOUND ( 'NONE', #450, .T. ) ;
#469 = CARTESIAN_POINT ( 'NONE',  ( 8.099999999999999645, 1.347111479062087764E-16, 18.00000000000000355 ) ) ;
#470 = ORIENTED_EDGE ( 'NONE', *, *, #440, .F. ) ;
#471 = DIRECTION ( 'NONE',  ( -0.000000000000000000, -0.000000000000000000, -1.000000000000000000 ) ) ;
#472 = DIRECTION ( 'NONE',  ( -0.000000000000000000, -0.000000000000000000, -1.000000000000000000 ) ) ;
#473 = APPLICATION_CONTEXT ( 'configuration controlled 3d designs of mechanical parts and assemblies' ) ;
#474 = EDGE_LOOP ( 'NONE', ( #797, #785, #763, #285, #588, #63, #677 ) ) ;
#475 = AXIS2_PLACEMENT_3D ( 'NONE', #631, #231, #292 ) ;
#476 = DIRECTION ( 'NONE',  ( 1.000000000000000000, 0.000000000000000000, -0.000000000000000000 ) ) ;
#477 = ADVANCED_FACE ( 'NONE', ( #522, #185, #526, #809, #510, #240 ), #459, .F. ) ;
#478 = DIRECTION ( 'NONE',  ( 0.000000000000000000, -1.000000000000000000, 0.000000000000000000 ) ) ;
#479 = CARTESIAN_POINT ( 'NONE',  ( 15.00000000000000000, 0.000000000000000000, 15.00000000000000000 ) ) ;
#480 = DIRECTION ( 'NONE',  ( -0.000000000000000000, -0.000000000000000000, -1.000000000000000000 ) ) ;
#481 = EDGE_CURVE ( 'NONE', #407, #598, #887, .T. ) ;
#482 = PRODUCT ( 'ARM-103_Grip_moving_finger', 'ARM-103_Grip_moving_finger', '', ( #246 ) ) ;
#483 = CARTESIAN_POINT ( 'NONE',  ( -7.000000000000000000, 0.000000000000000000, 18.00000000000000355 ) ) ;
#484 = DIRECTION ( 'NONE',  ( 0.000000000000000000, 0.000000000000000000, -1.000000000000000000 ) ) ;
#485 = EDGE_CURVE ( 'NONE', #626, #357, #269, .T. ) ;
#486 = CARTESIAN_POINT ( 'NONE',  ( 18.00000000000000000, -5.500000000000000000, 0.000000000000000000 ) ) ;
#487 = AXIS2_PLACEMENT_3D ( 'NONE', #354, #625, #83 ) ;
#488 = DIRECTION ( 'NONE',  ( 1.000000000000000000, 0.000000000000000000, 0.000000000000000000 ) ) ;
#489 = AXIS2_PLACEMENT_3D ( 'NONE', #239, #858, #165 ) ;
#490 = ORIENTED_EDGE ( 'NONE', *, *, #308, .T. ) ;
#491 = DIRECTION ( 'NONE',  ( 1.000000000000000000, 0.000000000000000000, 0.000000000000000000 ) ) ;
#492 = EDGE_CURVE ( 'NONE', #53, #655, #222, .T. ) ;
#493 = CARTESIAN_POINT ( 'NONE',  ( 8.099999999999999645, 1.347111479062087764E-16, 18.00000000000000355 ) ) ;
#494 = ORIENTED_EDGE ( 'NONE', *, *, #238, .F. ) ;
#495 = CARTESIAN_POINT ( 'NONE',  ( -7.000000000000000000, 0.000000000000000000, 18.00000000000000355 ) ) ;
#496 = DIRECTION ( 'NONE',  ( -1.000000000000000000, 0.000000000000000000, 0.000000000000000000 ) ) ;
#497 = ORIENTED_EDGE ( 'NONE', *, *, #569, .T. ) ;
#498 = DIRECTION ( 'NONE',  ( 0.000000000000000000, 1.000000000000000000, 0.000000000000000000 ) ) ;
#499 = FACE_OUTER_BOUND ( 'NONE', #314, .T. ) ;
#500 = DIRECTION ( 'NONE',  ( 1.000000000000000000, 0.000000000000000000, 0.000000000000000000 ) ) ;
#501 = EDGE_CURVE ( 'NONE', #531, #845, #195, .T. ) ;
#502 = AXIS2_PLACEMENT_3D ( 'NONE', #24, #498, #509 ) ;
#503 = ORIENTED_EDGE ( 'NONE', *, *, #348, .F. ) ;
#504 = CARTESIAN_POINT ( 'NONE',  ( 18.84999999999999787, -5.500000000000000000, 18.00000000000000355 ) ) ;
#505 = LINE ( 'NONE', #706, #630 ) ;
#506 = DIRECTION ( 'NONE',  ( 1.000000000000000000, 0.000000000000000000, 0.000000000000000000 ) ) ;
#507 = CIRCLE ( 'NONE', #621, 11.00000000000000000 ) ;
#508 = ORIENTED_EDGE ( 'NONE', *, *, #754, .T. ) ;
#509 = DIRECTION ( 'NONE',  ( 0.000000000000000000, -0.000000000000000000, 1.000000000000000000 ) ) ;
#510 = FACE_BOUND ( 'NONE', #581, .T. ) ;
#511 = ORIENTED_EDGE ( 'NONE', *, *, #824, .T. ) ;
#512 = LINE ( 'NONE', #854, #277 ) ;
#513 = CARTESIAN_POINT ( 'NONE',  ( 18.84999999999999787, -5.500000000000000000, 0.000000000000000000 ) ) ;
#514 = ORIENTED_EDGE ( 'NONE', *, *, #466, .T. ) ;
#515 = VECTOR ( 'NONE', #197, 1000.000000000000000 ) ;
#516 = PERSON_AND_ORGANIZATION ( #448, #748 ) ;
#517 = CC_DESIGN_APPROVAL ( #262, ( #335 ) ) ;
#518 = EDGE_CURVE ( 'NONE', #533, #768, #545, .T. ) ;
#519 = DIRECTION ( 'NONE',  ( 1.000000000000000000, 0.000000000000000000, 0.000000000000000000 ) ) ;
#520 = VERTEX_POINT ( 'NONE', #55 ) ;
#521 = AXIS2_PLACEMENT_3D ( 'NONE', #441, #644, #476 ) ;
#522 = FACE_BOUND ( 'NONE', #434, .T. ) ;
#523 = VERTEX_POINT ( 'NONE', #890 ) ;
#524 = PERSON_AND_ORGANIZATION_ROLE ( 'creator' ) ;
#525 = EDGE_LOOP ( 'NONE', ( #47, #857 ) ) ;
#526 = FACE_BOUND ( 'NONE', #149, .T. ) ;
#527 = ORIENTED_EDGE ( 'NONE', *, *, #243, .F. ) ;
#528 = EDGE_CURVE ( 'NONE', #531, #19, #541, .T. ) ;
#529 = CALENDAR_DATE ( 2026, 7, 9 ) ;
#530 = VECTOR ( 'NONE', #300, 1000.000000000000000 ) ;
#531 = VERTEX_POINT ( 'NONE', #74 ) ;
#532 = CARTESIAN_POINT ( 'NONE',  ( 15.00000000000000000, -7.000000000000000000, 0.000000000000000000 ) ) ;
#533 = VERTEX_POINT ( 'NONE', #350 ) ;
#534 = PERSON_AND_ORGANIZATION ( #448, #748 ) ;
#535 = AXIS2_PLACEMENT_3D ( 'NONE', #315, #100, #387 ) ;
#536 = ORIENTED_EDGE ( 'NONE', *, *, #586, .F. ) ;
#537 = CARTESIAN_POINT ( 'NONE',  ( -1.100000000000000089, -7.000000000000000000, 18.00000000000000355 ) ) ;
#538 = DIRECTION ( 'NONE',  ( 0.000000000000000000, 0.000000000000000000, -1.000000000000000000 ) ) ;
#539 = EDGE_LOOP ( 'NONE', ( #866, #642, #388, #49 ) ) ;
#540 = EDGE_CURVE ( 'NONE', #836, #87, #820, .T. ) ;
#541 = LINE ( 'NONE', #683, #783 ) ;
#542 = FACE_OUTER_BOUND ( 'NONE', #237, .T. ) ;
#543 = AXIS2_PLACEMENT_3D ( 'NONE', #370, #148, #356 ) ;
#544 = EDGE_CURVE ( 'NONE', #747, #58, #507, .T. ) ;
#545 = LINE ( 'NONE', #133, #254 ) ;
#546 = CARTESIAN_POINT ( 'NONE',  ( 7.000000000000000000, 0.000000000000000000, 18.00000000000000355 ) ) ;
#547 = CARTESIAN_POINT ( 'NONE',  ( 18.00000000000000000, -5.500000000000000000, 18.00000000000000355 ) ) ;
#548 = AXIS2_PLACEMENT_3D ( 'NONE', #162, #704, #215 ) ;
#549 = FACE_BOUND ( 'NONE', #790, .T. ) ;
#550 = CYLINDRICAL_SURFACE ( 'NONE', #822, 1.099999999999999423 ) ;
#551 = EDGE_CURVE ( 'NONE', #19, #221, #418, .T. ) ;
#552 = CARTESIAN_POINT ( 'NONE',  ( 1.100000000000000089, 7.000000000000000000, 15.00000000000000000 ) ) ;
#553 = CARTESIAN_POINT ( 'NONE',  ( 0.000000000000000000, 0.000000000000000000, 15.00000000000000000 ) ) ;
#554 = ADVANCED_FACE ( 'NONE', ( #399 ), #274, .F. ) ;
#555 = VERTEX_POINT ( 'NONE', #617 ) ;
#556 = DIRECTION ( 'NONE',  ( -1.000000000000000000, 0.000000000000000000, 0.000000000000000000 ) ) ;
#557 = CIRCLE ( 'NONE', #15, 0.8500000000000000888 ) ;
#558 = CIRCLE ( 'NONE', #176, 3.000000000000000000 ) ;
#559 = DIRECTION ( 'NONE',  ( 0.000000000000000000, 0.000000000000000000, -1.000000000000000000 ) ) ;
#560 = ORIENTED_EDGE ( 'NONE', *, *, #712, .T. ) ;
#561 = DIRECTION ( 'NONE',  ( -1.000000000000000000, 0.000000000000000000, 0.000000000000000000 ) ) ;
#562 = CARTESIAN_POINT ( 'NONE',  ( 8.099999999999999645, 1.347111479062087764E-16, 15.00000000000000000 ) ) ;
#563 = CIRCLE ( 'NONE', #855, 3.000000000000000000 ) ;
#564 = DIRECTION ( 'NONE',  ( 1.000000000000000000, 0.000000000000000000, 0.000000000000000000 ) ) ;
#565 = ORIENTED_EDGE ( 'NONE', *, *, #466, .F. ) ;
#566 = CARTESIAN_POINT ( 'NONE',  ( 27.00000000000000000, -7.000000000000000000, 18.00000000000000000 ) ) ;
#567 = CARTESIAN_POINT ( 'NONE',  ( 24.00000000000000000, -5.500000000000000000, 18.00000000000000355 ) ) ;
#568 = EDGE_CURVE ( 'NONE', #438, #662, #685, .T. ) ;
#569 = EDGE_CURVE ( 'NONE', #139, #371, #4, .T. ) ;
#570 = DIRECTION ( 'NONE',  ( 0.000000000000000000, 0.000000000000000000, 1.000000000000000000 ) ) ;
#571 = ORIENTED_EDGE ( 'NONE', *, *, #417, .T. ) ;
#572 = FACE_OUTER_BOUND ( 'NONE', #657, .T. ) ;
#573 = DIRECTION ( 'NONE',  ( -0.000000000000000000, -0.000000000000000000, -1.000000000000000000 ) ) ;
#574 = CC_DESIGN_PERSON_AND_ORGANIZATION_ASSIGNMENT ( #865, #317, ( #482 ) ) ;
#575 = CARTESIAN_POINT ( 'NONE',  ( 15.00000000000000000, -4.000000000000000000, 0.000000000000000000 ) ) ;
#576 = AXIS2_PLACEMENT_3D ( 'NONE', #781, #847, #95 ) ;
#577 = ORIENTED_EDGE ( 'NONE', *, *, #838, .F. ) ;
#578 = LINE ( 'NONE', #566, #422 ) ;
#579 = CARTESIAN_POINT ( 'NONE',  ( 0.000000000000000000, 0.000000000000000000, 18.00000000000000000 ) ) ;
#580 = CIRCLE ( 'NONE', #150, 1.099999999999999423 ) ;
#581 = EDGE_LOOP ( 'NONE', ( #643, #779 ) ) ;
#582 = DIRECTION ( 'NONE',  ( 0.000000000000000000, 0.000000000000000000, -1.000000000000000000 ) ) ;
#583 = EDGE_LOOP ( 'NONE', ( #253, #716, #299, #202 ) ) ;
#584 = CYLINDRICAL_SURFACE ( 'NONE', #681, 11.00000000000000000 ) ;
#585 = ORIENTED_EDGE ( 'NONE', *, *, #755, .T. ) ;
#586 = EDGE_CURVE ( 'NONE', #58, #600, #64, .T. ) ;
#587 = DIRECTION ( 'NONE',  ( 0.000000000000000000, 0.000000000000000000, 1.000000000000000000 ) ) ;
#588 = ORIENTED_EDGE ( 'NONE', *, *, #540, .F. ) ;
#589 = AXIS2_PLACEMENT_3D ( 'NONE', #553, #835, #28 ) ;
#590 = APPROVAL_DATE_TIME ( #599, #455 ) ;
#591 = VERTEX_POINT ( 'NONE', #678 ) ;
#592 = CARTESIAN_POINT ( 'NONE',  ( -1.100000000000000089, -7.000000000000000000, 15.00000000000000000 ) ) ;
#593 = VERTEX_POINT ( 'NONE', #414 ) ;
#594 = ORIENTED_EDGE ( 'NONE', *, *, #243, .T. ) ;
#595 = EDGE_CURVE ( 'NONE', #734, #338, #280, .T. ) ;
#596 = ADVANCED_FACE ( 'NONE', ( #611, #404, #812, #549, #675, #468, #601, #190 ), #463, .T. ) ;
#597 = CARTESIAN_POINT ( 'NONE',  ( 1.100000000000000089, -7.000000000000000000, 18.00000000000000355 ) ) ;
#598 = VERTEX_POINT ( 'NONE', #424 ) ;
#599 = DATE_AND_TIME ( #735, #795 ) ;
#600 = VERTEX_POINT ( 'NONE', #696 ) ;
#601 = FACE_BOUND ( 'NONE', #321, .T. ) ;
#602 = FACE_OUTER_BOUND ( 'NONE', #737, .T. ) ;
#603 = DIRECTION ( 'NONE',  ( 1.000000000000000000, 0.000000000000000000, 0.000000000000000000 ) ) ;
#604 = CIRCLE ( 'NONE', #90, 1.100000000000000089 ) ;
#605 = AXIS2_PLACEMENT_3D ( 'NONE', #290, #582, #561 ) ;
#606 = VERTEX_POINT ( 'NONE', #214 ) ;
#607 = DIRECTION ( 'NONE',  ( 1.000000000000000000, 0.000000000000000000, -0.000000000000000000 ) ) ;
#608 = DIRECTION ( 'NONE',  ( -1.000000000000000000, 0.000000000000000000, 0.000000000000000000 ) ) ;
#609 = VECTOR ( 'NONE', #743, 1000.000000000000000 ) ;
#610 = ORIENTED_EDGE ( 'NONE', *, *, #373, .F. ) ;
#611 = FACE_BOUND ( 'NONE', #316, .T. ) ;
#612 = FACE_OUTER_BOUND ( 'NONE', #367, .T. ) ;
#613 = CC_DESIGN_PERSON_AND_ORGANIZATION_ASSIGNMENT ( #322, #524, ( #390 ) ) ;
#614 = DIRECTION ( 'NONE',  ( 0.000000000000000000, 0.000000000000000000, 1.000000000000000000 ) ) ;
#615 = CARTESIAN_POINT ( 'NONE',  ( 0.000000000000000000, 0.000000000000000000, 18.00000000000000000 ) ) ;
#616 = VECTOR ( 'NONE', #73, 1000.000000000000000 ) ;
#617 = CARTESIAN_POINT ( 'NONE',  ( 8.485281374238569541, -7.000000000000000000, 18.00000000000000000 ) ) ;
#618 = AXIS2_PLACEMENT_3D ( 'NONE', #52, #193, #603 ) ;
#619 = CARTESIAN_POINT ( 'NONE',  ( 15.00000000000000000, -7.000000000000000000, 0.000000000000000000 ) ) ;
#620 = DIRECTION ( 'NONE',  ( 0.000000000000000000, 0.000000000000000000, 1.000000000000000000 ) ) ;
#621 = AXIS2_PLACEMENT_3D ( 'NONE', #141, #752, #276 ) ;
#622 = ADVANCED_FACE ( 'NONE', ( #2 ), #837, .F. ) ;
#623 = DIRECTION ( 'NONE',  ( -1.000000000000000000, 0.000000000000000000, 0.000000000000000000 ) ) ;
#624 = ORIENTED_EDGE ( 'NONE', *, *, #551, .F. ) ;
#625 = DIRECTION ( 'NONE',  ( -0.000000000000000000, -0.000000000000000000, -1.000000000000000000 ) ) ;
#626 = VERTEX_POINT ( 'NONE', #229 ) ;
#627 = CYLINDRICAL_SURFACE ( 'NONE', #234, 1.099999999999999423 ) ;
#628 = CIRCLE ( 'NONE', #88, 3.000000000000000000 ) ;
#629 = AXIS2_PLACEMENT_3D ( 'NONE', #687, #478, #750 ) ;
#630 = VECTOR ( 'NONE', #573, 1000.000000000000000 ) ;
#631 = CARTESIAN_POINT ( 'NONE',  ( 24.00000000000000000, -5.500000000000000000, 18.00000000000000355 ) ) ;
#632 = ORIENTED_EDGE ( 'NONE', *, *, #163, .T. ) ;
#633 = CARTESIAN_POINT ( 'NONE',  ( 27.00000000000000000, -4.000000000000000000, 15.00000000000000000 ) ) ;
#634 = ADVANCED_FACE ( 'NONE', ( #85 ), #296, .F. ) ;
#635 = CARTESIAN_POINT ( 'NONE',  ( 5.900000000000000355, 0.000000000000000000, 18.00000000000000355 ) ) ;
#636 = VECTOR ( 'NONE', #344, 1000.000000000000000 ) ;
#637 = DIRECTION ( 'NONE',  ( 1.000000000000000000, 0.000000000000000000, 0.000000000000000000 ) ) ;
#638 = ORIENTED_EDGE ( 'NONE', *, *, #417, .F. ) ;
#639 = CARTESIAN_POINT ( 'NONE',  ( 27.00000000000000000, 3.000000000000000000, 15.00000000000000000 ) ) ;
#640 = PLANE ( 'NONE',  #378 ) ;
#641 = CARTESIAN_POINT ( 'NONE',  ( 27.00000000000000000, -7.000000000000000000, 0.000000000000000000 ) ) ;
#642 = ORIENTED_EDGE ( 'NONE', *, *, #586, .T. ) ;
#643 = ORIENTED_EDGE ( 'NONE', *, *, #12, .F. ) ;
#644 = DIRECTION ( 'NONE',  ( 0.000000000000000000, 0.000000000000000000, 1.000000000000000000 ) ) ;
#645 = VECTOR ( 'NONE', #151, 1000.000000000000000 ) ;
#646 = ORIENTED_EDGE ( 'NONE', *, *, #3, .F. ) ;
#647 = AXIS2_PLACEMENT_3D ( 'NONE', #447, #372, #435 ) ;
#648 = DIRECTION ( 'NONE',  ( 0.000000000000000000, 0.000000000000000000, -1.000000000000000000 ) ) ;
#649 = ORIENTED_EDGE ( 'NONE', *, *, #878, .F. ) ;
#650 = DIRECTION ( 'NONE',  ( -1.000000000000000000, 0.000000000000000000, 0.000000000000000000 ) ) ;
#651 = EDGE_CURVE ( 'NONE', #810, #520, #145, .T. ) ;
#652 = AXIS2_PLACEMENT_3D ( 'NONE', #823, #409, #749 ) ;
#653 = ORIENTED_EDGE ( 'NONE', *, *, #99, .F. ) ;
#654 = COORDINATED_UNIVERSAL_TIME_OFFSET ( 6, 0, .BEHIND. ) ;
#655 = VERTEX_POINT ( 'NONE', #635 ) ;
#656 = CARTESIAN_POINT ( 'NONE',  ( 1.100000000000000089, 7.000000000000000000, 18.00000000000000355 ) ) ;
#657 = EDGE_LOOP ( 'NONE', ( #258, #268, #503, #169 ) ) ;
#658 = PERSON_AND_ORGANIZATION ( #448, #748 ) ;
#659 = ORIENTED_EDGE ( 'NONE', *, *, #82, .T. ) ;
#660 = CARTESIAN_POINT ( 'NONE',  ( 7.000000000000000000, 0.000000000000000000, 15.00000000000000000 ) ) ;
#661 = EDGE_CURVE ( 'NONE', #873, #836, #219, .T. ) ;
#662 = VERTEX_POINT ( 'NONE', #552 ) ;
#663 = COORDINATED_UNIVERSAL_TIME_OFFSET ( 6, 0, .BEHIND. ) ;
#664 = AXIS2_PLACEMENT_3D ( 'NONE', #279, #358, #224 ) ;
#665 = ADVANCED_FACE ( 'NONE', ( #499 ), #833, .F. ) ;
#666 = EDGE_LOOP ( 'NONE', ( #649, #37 ) ) ;
#667 = FACE_OUTER_BOUND ( 'NONE', #583, .T. ) ;
#668 = ORIENTED_EDGE ( 'NONE', *, *, #731, .T. ) ;
#669 = EDGE_LOOP ( 'NONE', ( #260, #668, #31, #808 ) ) ;
#670 = PRODUCT_RELATED_PRODUCT_CATEGORY ( 'detail', '', ( #482 ) ) ;
#671 = DIRECTION ( 'NONE',  ( 1.000000000000000000, 0.000000000000000000, 0.000000000000000000 ) ) ;
#672 = ORIENTED_EDGE ( 'NONE', *, *, #742, .F. ) ;
#673 = CALENDAR_DATE ( 2026, 7, 9 ) ;
#674 = VERTEX_POINT ( 'NONE', #562 ) ;
#675 = FACE_BOUND ( 'NONE', #682, .T. ) ;
#676 = CARTESIAN_POINT ( 'NONE',  ( 27.00000000000000000, -7.000000000000000000, 0.000000000000000000 ) ) ;
#677 = ORIENTED_EDGE ( 'NONE', *, *, #318, .F. ) ;
#678 = CARTESIAN_POINT ( 'NONE',  ( 8.485281374238569541, -7.000000000000000000, 15.00000000000000000 ) ) ;
#679 = CARTESIAN_POINT ( 'NONE',  ( 3.000000000000000000, 3.673940397442059868E-16, 18.00000000000000355 ) ) ;
#680 = EDGE_CURVE ( 'NONE', #402, #768, #880, .T. ) ;
#681 = AXIS2_PLACEMENT_3D ( 'NONE', #579, #872, #650 ) ;
#682 = EDGE_LOOP ( 'NONE', ( #708, #288 ) ) ;
#683 = CARTESIAN_POINT ( 'NONE',  ( 15.00000000000000000, -7.000000000000000000, 18.00000000000000000 ) ) ;
#684 = CARTESIAN_POINT ( 'NONE',  ( 24.00000000000000000, -5.500000000000000000, 18.00000000000000355 ) ) ;
#685 = LINE ( 'NONE', #738, #270 ) ;
#686 = EDGE_CURVE ( 'NONE', #227, #42, #62, .T. ) ;
#687 = CARTESIAN_POINT ( 'NONE',  ( 15.00000000000000000, -4.000000000000000000, 18.00000000000000000 ) ) ;
#688 = LINE ( 'NONE', #78, #616 ) ;
#689 = ADVANCED_FACE ( 'NONE', ( #146 ), #627, .F. ) ;
#690 = VECTOR ( 'NONE', #129, 1000.000000000000000 ) ;
#691 = CARTESIAN_POINT ( 'NONE',  ( 7.000000000000000000, 0.000000000000000000, 15.00000000000000000 ) ) ;
#692 = DIRECTION ( 'NONE',  ( 0.000000000000000000, -0.000000000000000000, -1.000000000000000000 ) ) ;
#693 = VECTOR ( 'NONE', #559, 1000.000000000000000 ) ;
#694 = CARTESIAN_POINT ( 'NONE',  ( 3.000000000000000000, 3.673940397442059868E-16, 15.00000000000000000 ) ) ;
#695 = ORIENTED_EDGE ( 'NONE', *, *, #403, .F. ) ;
#696 = CARTESIAN_POINT ( 'NONE',  ( -11.00000000000000000, 0.000000000000000000, 15.00000000000000000 ) ) ;
#697 = CARTESIAN_POINT ( 'NONE',  ( 0.000000000000000000, -7.000000000000000000, 15.00000000000000000 ) ) ;
#698 = EDGE_CURVE ( 'NONE', #178, #182, #688, .T. ) ;
#699 = ORIENTED_EDGE ( 'NONE', *, *, #528, .T. ) ;
#700 = CARTESIAN_POINT ( 'NONE',  ( 0.000000000000000000, 7.000000000000000000, 18.00000000000000355 ) ) ;
#701 = DIRECTION ( 'NONE',  ( 0.000000000000000000, 0.000000000000000000, 1.000000000000000000 ) ) ;
#702 = VECTOR ( 'NONE', #271, 1000.000000000000000 ) ;
#703 = AXIS2_PLACEMENT_3D ( 'NONE', #56, #484, #75 ) ;
#704 = DIRECTION ( 'NONE',  ( -1.000000000000000000, 0.000000000000000000, 0.000000000000000000 ) ) ;
#705 = ORIENTED_EDGE ( 'NONE', *, *, #595, .F. ) ;
#706 = CARTESIAN_POINT ( 'NONE',  ( 27.00000000000000000, -4.000000000000000000, 18.00000000000000000 ) ) ;
#707 = DIRECTION ( 'NONE',  ( 0.000000000000000000, 0.000000000000000000, -1.000000000000000000 ) ) ;
#708 = ORIENTED_EDGE ( 'NONE', *, *, #651, .F. ) ;
#709 = CARTESIAN_POINT ( 'NONE',  ( 0.000000000000000000, -7.000000000000000000, 15.00000000000000000 ) ) ;
#710 = EDGE_LOOP ( 'NONE', ( #114, #461, #375, #705 ) ) ;
#711 = DIRECTION ( 'NONE',  ( 0.000000000000000000, 0.000000000000000000, -1.000000000000000000 ) ) ;
#712 = EDGE_CURVE ( 'NONE', #42, #13, #775, .T. ) ;
#713 = AXIS2_PLACEMENT_3D ( 'NONE', #684, #61, #739 ) ;
#714 = LINE ( 'NONE', #709, #885 ) ;
#715 = AXIS2_PLACEMENT_3D ( 'NONE', #483, #355, #491 ) ;
#716 = ORIENTED_EDGE ( 'NONE', *, *, #787, .T. ) ;
#717 =( LENGTH_UNIT ( ) NAMED_UNIT ( * ) SI_UNIT ( .MILLI., .METRE. ) );
#718 = DIRECTION ( 'NONE',  ( -0.000000000000000000, -0.000000000000000000, 1.000000000000000000 ) ) ;
#719 = CIRCLE ( 'NONE', #294, 0.8500000000000000888 ) ;
#720 = ORIENTED_EDGE ( 'NONE', *, *, #147, .T. ) ;
#721 = DATE_TIME_ROLE ( 'classification_date' ) ;
#722 = EDGE_LOOP ( 'NONE', ( #653, #331, #397, #624 ) ) ;
#723 = FACE_OUTER_BOUND ( 'NONE', #816, .T. ) ;
#724 = EDGE_LOOP ( 'NONE', ( #494, #869, #560, #729 ) ) ;
#725 = EDGE_CURVE ( 'NONE', #58, #555, #793, .T. ) ;
#726 = DATE_TIME_ROLE ( 'creation_date' ) ;
#727 = EDGE_LOOP ( 'NONE', ( #161, #695 ) ) ;
#728 = CARTESIAN_POINT ( 'NONE',  ( -7.000000000000000000, 0.000000000000000000, 18.00000000000000355 ) ) ;
#729 = ORIENTED_EDGE ( 'NONE', *, *, #187, .F. ) ;
#730 = VECTOR ( 'NONE', #124, 1000.000000000000000 ) ;
#731 = EDGE_CURVE ( 'NONE', #87, #747, #436, .T. ) ;
#732 = ORIENTED_EDGE ( 'NONE', *, *, #134, .T. ) ;
#733 = CARTESIAN_POINT ( 'NONE',  ( 0.000000000000000000, 0.000000000000000000, 18.00000000000000000 ) ) ;
#734 = VERTEX_POINT ( 'NONE', #91 ) ;
#735 = CALENDAR_DATE ( 2026, 7, 9 ) ;
#736 = VECTOR ( 'NONE', #383, 1000.000000000000000 ) ;
#737 = EDGE_LOOP ( 'NONE', ( #211, #720, #251, #192 ) ) ;
#738 = CARTESIAN_POINT ( 'NONE',  ( 1.100000000000000089, 7.000000000000000000, 18.00000000000000355 ) ) ;
#739 = DIRECTION ( 'NONE',  ( -1.000000000000000000, 0.000000000000000000, 0.000000000000000000 ) ) ;
#740 = APPLICATION_PROTOCOL_DEFINITION ( 'international standard', 'config_control_design', 1994, #473 ) ;
#741 = ORIENTED_EDGE ( 'NONE', *, *, #889, .T. ) ;
#742 = EDGE_CURVE ( 'NONE', #533, #186, #760, .T. ) ;
#743 = DIRECTION ( 'NONE',  ( -1.000000000000000000, -0.000000000000000000, -0.000000000000000000 ) ) ;
#744 = CARTESIAN_POINT ( 'NONE',  ( 18.00000000000000000, -5.500000000000000000, 18.00000000000000355 ) ) ;
#745 = AXIS2_PLACEMENT_3D ( 'NONE', #877, #826, #329 ) ;
#746 = AXIS2_PLACEMENT_3D ( 'NONE', #700, #711, #242 ) ;
#747 = VERTEX_POINT ( 'NONE', #756 ) ;
#748 = ORGANIZATION ( 'UNSPECIFIED', 'UNSPECIFIED', '' ) ;
#749 = DIRECTION ( 'NONE',  ( 0.000000000000000000, 0.000000000000000000, -1.000000000000000000 ) ) ;
#750 = DIRECTION ( 'NONE',  ( 0.000000000000000000, -0.000000000000000000, -1.000000000000000000 ) ) ;
#751 = ADVANCED_FACE ( 'NONE', ( #143, #421, #7 ), #640, .T. ) ;
#752 = DIRECTION ( 'NONE',  ( 0.000000000000000000, 0.000000000000000000, 1.000000000000000000 ) ) ;
#753 = CARTESIAN_POINT ( 'NONE',  ( 0.000000000000000000, -7.000000000000000000, 18.00000000000000355 ) ) ;
#754 = EDGE_CURVE ( 'NONE', #873, #178, #505, .T. ) ;
#755 = EDGE_CURVE ( 'NONE', #861, #357, #248, .T. ) ;
#756 = CARTESIAN_POINT ( 'NONE',  ( 10.58300524425836109, 3.000000000000000000, 18.00000000000000000 ) ) ;
#757 = LINE ( 'NONE', #676, #702 ) ;
#758 = AXIS2_PLACEMENT_3D ( 'NONE', #546, #538, #608 ) ;
#759 = DIRECTION ( 'NONE',  ( -1.000000000000000000, 0.000000000000000000, 0.000000000000000000 ) ) ;
#760 = CIRCLE ( 'NONE', #289, 0.8500000000000000888 ) ;
#761 = APPROVAL_PERSON_ORGANIZATION ( #534, #262, #802 ) ;
#762 = LINE ( 'NONE', #493, #446 ) ;
#763 = ORIENTED_EDGE ( 'NONE', *, *, #225, .F. ) ;
#764 = MANIFOLD_SOLID_BREP ( 'Contact_pad_keeper', #349 ) ;
#765 = CARTESIAN_POINT ( 'NONE',  ( 23.15000000000000213, -5.500000000000000000, 18.00000000000000355 ) ) ;
#766 = CIRCLE ( 'NONE', #341, 1.100000000000000089 ) ;
#767 = CARTESIAN_POINT ( 'NONE',  ( 27.00000000000000000, -7.000000000000000000, 18.00000000000000000 ) ) ;
#768 = VERTEX_POINT ( 'NONE', #235 ) ;
#769 = FACE_OUTER_BOUND ( 'NONE', #821, .T. ) ;
#770 = CARTESIAN_POINT ( 'NONE',  ( 27.00000000000000000, -7.000000000000000000, 15.00000000000000000 ) ) ;
#771 = ADVANCED_FACE ( 'NONE', ( #167 ), #20, .F. ) ;
#772 = FACE_OUTER_BOUND ( 'NONE', #445, .T. ) ;
#773 = ORIENTED_EDGE ( 'NONE', *, *, #501, .T. ) ;
#774 = DIRECTION ( 'NONE',  ( 1.000000000000000000, 0.000000000000000000, 0.000000000000000000 ) ) ;
#775 = LINE ( 'NONE', #765, #645 ) ;
#776 = AXIS2_PLACEMENT_3D ( 'NONE', #158, #648, #98 ) ;
#777 = DIRECTION ( 'NONE',  ( -0.000000000000000000, -0.000000000000000000, -1.000000000000000000 ) ) ;
#778 = UNCERTAINTY_MEASURE_WITH_UNIT (LENGTH_MEASURE( 1.000000000000000082E-05 ), #717, 'distance_accuracy_value', 'NONE');
#779 = ORIENTED_EDGE ( 'NONE', *, *, #815, .F. ) ;
#780 = CYLINDRICAL_SURFACE ( 'NONE', #605, 0.8500000000000000888 ) ;
#781 = CARTESIAN_POINT ( 'NONE',  ( 0.000000000000000000, -7.000000000000000000, 15.00000000000000000 ) ) ;
#782 = ADVANCED_FACE ( 'NONE', ( #170 ), #109, .F. ) ;
#783 = VECTOR ( 'NONE', #875, 1000.000000000000000 ) ;
#784 = CARTESIAN_POINT ( 'NONE',  ( 24.00000000000000000, -5.500000000000000000, 0.000000000000000000 ) ) ;
#785 = ORIENTED_EDGE ( 'NONE', *, *, #308, .F. ) ;
#786 = CYLINDRICAL_SURFACE ( 'NONE', #776, 1.100000000000000089 ) ;
#787 = EDGE_CURVE ( 'NONE', #97, #126, #512, .T. ) ;
#788 = PRODUCT_DEFINITION_SHAPE ( 'NONE', 'NONE',  #390 ) ;
#789 = CARTESIAN_POINT ( 'NONE',  ( 5.900000000000000355, 0.000000000000000000, 18.00000000000000355 ) ) ;
#790 = EDGE_LOOP ( 'NONE', ( #831, #527 ) ) ;
#791 = PLANE ( 'NONE',  #502 ) ;
#792 = CYLINDRICAL_SURFACE ( 'NONE', #80, 3.000000000000000000 ) ;
#793 = CIRCLE ( 'NONE', #849, 11.00000000000000000 ) ;
#794 = ORIENTED_EDGE ( 'NONE', *, *, #492, .T. ) ;
#795 = LOCAL_TIME ( 16, 17, 56.00000000000000000, #654 ) ;
#796 = DATE_AND_TIME ( #673, #881 ) ;
#797 = ORIENTED_EDGE ( 'NONE', *, *, #501, .F. ) ;
#798 = ADVANCED_FACE ( 'NONE', ( #846 ), #791, .F. ) ;
#799 = DIRECTION ( 'NONE',  ( 1.000000000000000000, 0.000000000000000000, 0.000000000000000000 ) ) ;
#800 = CIRCLE ( 'NONE', #6, 1.100000000000000311 ) ;
#801 = ORIENTED_EDGE ( 'NONE', *, *, #44, .T. ) ;
#802 = APPROVAL_ROLE ( '' ) ;
#803 = EDGE_LOOP ( 'NONE', ( #460, #217, #241, #811, #23, #51 ) ) ;
#804 = CARTESIAN_POINT ( 'NONE',  ( 18.00000000000000000, -5.500000000000000000, 0.000000000000000000 ) ) ;
#805 = CC_DESIGN_PERSON_AND_ORGANIZATION_ASSIGNMENT ( #658, #330, ( #411 ) ) ;
#806 = ORIENTED_EDGE ( 'NONE', *, *, #544, .T. ) ;
#807 = PERSON_AND_ORGANIZATION_ROLE ( 'creator' ) ;
#808 = ORIENTED_EDGE ( 'NONE', *, *, #345, .T. ) ;
#809 = FACE_BOUND ( 'NONE', #727, .T. ) ;
#810 = VERTEX_POINT ( 'NONE', #102 ) ;
#811 = ORIENTED_EDGE ( 'NONE', *, *, #26, .T. ) ;
#812 = FACE_BOUND ( 'NONE', #525, .T. ) ;
#813 = DIRECTION ( 'NONE',  ( 1.000000000000000000, 0.000000000000000000, 0.000000000000000000 ) ) ;
#814 = VECTOR ( 'NONE', #671, 1000.000000000000000 ) ;
#815 = EDGE_CURVE ( 'NONE', #126, #598, #558, .T. ) ;
#816 = EDGE_LOOP ( 'NONE', ( #536, #327, #35, #128 ) ) ;
#817 = DIRECTION ( 'NONE',  ( 0.000000000000000000, 0.000000000000000000, -1.000000000000000000 ) ) ;
#818 = DIRECTION ( 'NONE',  ( -0.000000000000000000, -0.000000000000000000, -1.000000000000000000 ) ) ;
#819 = ORIENTED_EDGE ( 'NONE', *, *, #256, .F. ) ;
#820 = LINE ( 'NONE', #204, #609 ) ;
#821 = EDGE_LOOP ( 'NONE', ( #801, #571, #585, #394 ) ) ;
#822 = AXIS2_PLACEMENT_3D ( 'NONE', #827, #707, #496 ) ;
#823 = CARTESIAN_POINT ( 'NONE',  ( 15.00000000000000000, -7.000000000000000000, 18.00000000000000000 ) ) ;
#824 = EDGE_CURVE ( 'NONE', #555, #139, #228, .T. ) ;
#825 = EDGE_CURVE ( 'NONE', #139, #221, #578, .T. ) ;
#826 = DIRECTION ( 'NONE',  ( 0.000000000000000000, 0.000000000000000000, 1.000000000000000000 ) ) ;
#827 = CARTESIAN_POINT ( 'NONE',  ( 7.000000000000000000, 0.000000000000000000, 18.00000000000000355 ) ) ;
#828 = ADVANCED_FACE ( 'NONE', ( #769 ), #786, .F. ) ;
#829 = DIRECTION ( 'NONE',  ( 0.000000000000000000, 0.000000000000000000, 1.000000000000000000 ) ) ;
#830 = DIRECTION ( 'NONE',  ( 0.000000000000000000, 0.000000000000000000, 1.000000000000000000 ) ) ;
#831 = ORIENTED_EDGE ( 'NONE', *, *, #203, .F. ) ;
#832 = CIRCLE ( 'NONE', #408, 1.100000000000000311 ) ;
#833 = CYLINDRICAL_SURFACE ( 'NONE', #664, 1.100000000000000089 ) ;
#834 = AXIS2_PLACEMENT_3D ( 'NONE', #431, #283, #692 ) ;
#835 = DIRECTION ( 'NONE',  ( 0.000000000000000000, 0.000000000000000000, 1.000000000000000000 ) ) ;
#836 = VERTEX_POINT ( 'NONE', #639 ) ;
#837 = PLANE ( 'NONE',  #834 ) ;
#838 = EDGE_CURVE ( 'NONE', #186, #402, #36, .T. ) ;
#839 = VECTOR ( 'NONE', #444, 1000.000000000000000 ) ;
#840 = FACE_OUTER_BOUND ( 'NONE', #803, .T. ) ;
#841 = ORIENTED_EDGE ( 'NONE', *, *, #318, .T. ) ;
#842 = DIRECTION ( 'NONE',  ( 0.000000000000000000, 0.000000000000000000, -1.000000000000000000 ) ) ;
#843 = DIRECTION ( 'NONE',  ( 0.000000000000000000, 0.000000000000000000, -1.000000000000000000 ) ) ;
#844 = CARTESIAN_POINT ( 'NONE',  ( 24.85000000000000142, -5.500000000000000000, 18.00000000000000355 ) ) ;
#845 = VERTEX_POINT ( 'NONE', #310 ) ;
#846 = FACE_OUTER_BOUND ( 'NONE', #172, .T. ) ;
#847 = DIRECTION ( 'NONE',  ( -0.000000000000000000, -0.000000000000000000, -1.000000000000000000 ) ) ;
#848 = CIRCLE ( 'NONE', #406, 1.099999999999999423 ) ;
#849 = AXIS2_PLACEMENT_3D ( 'NONE', #427, #829, #291 ) ;
#850 = APPROVAL_PERSON_ORGANIZATION ( #516, #867, #127 ) ;
#851 = DIRECTION ( 'NONE',  ( 1.000000000000000000, 0.000000000000000000, 0.000000000000000000 ) ) ;
#852 = EDGE_CURVE ( 'NONE', #845, #182, #173, .T. ) ;
#853 = ORIENTED_EDGE ( 'NONE', *, *, #361, .T. ) ;
#854 = CARTESIAN_POINT ( 'NONE',  ( 3.000000000000000000, 3.673940397442059868E-16, 18.00000000000000355 ) ) ;
#855 = AXIS2_PLACEMENT_3D ( 'NONE', #393, #863, #115 ) ;
#856 = LINE ( 'NONE', #46, #180 ) ;
#857 = ORIENTED_EDGE ( 'NONE', *, *, #281, .F. ) ;
#858 = DIRECTION ( 'NONE',  ( -0.000000000000000000, -0.000000000000000000, -1.000000000000000000 ) ) ;
#859 = EDGE_LOOP ( 'NONE', ( #511, #497, #118, #806, #343 ) ) ;
#860 = CARTESIAN_POINT ( 'NONE',  ( 27.00000000000000000, 3.000000000000000000, 18.00000000000000000 ) ) ;
#861 = VERTEX_POINT ( 'NONE', #14 ) ;
#862 = ADVANCED_FACE ( 'NONE', ( #572 ), #780, .F. ) ;
#863 = DIRECTION ( 'NONE',  ( 0.000000000000000000, 0.000000000000000000, 1.000000000000000000 ) ) ;
#864 = EDGE_LOOP ( 'NONE', ( #40, #773, #326, #132 ) ) ;
#865 = PERSON_AND_ORGANIZATION ( #448, #748 ) ;
#866 = ORIENTED_EDGE ( 'NONE', *, *, #725, .F. ) ;
#867 = APPROVAL ( #457, 'UNSPECIFIED' ) ;
#868 = DIRECTION ( 'NONE',  ( -0.000000000000000000, -0.000000000000000000, -1.000000000000000000 ) ) ;
#869 = ORIENTED_EDGE ( 'NONE', *, *, #686, .T. ) ;
#870 = APPROVAL_DATE_TIME ( #389, #262 ) ;
#871 = EDGE_LOOP ( 'NONE', ( #312, #199 ) ) ;
#872 = DIRECTION ( 'NONE',  ( -0.000000000000000000, -0.000000000000000000, -1.000000000000000000 ) ) ;
#873 = VERTEX_POINT ( 'NONE', #633 ) ;
#874 = ORIENTED_EDGE ( 'NONE', *, *, #94, .F. ) ;
#875 = DIRECTION ( 'NONE',  ( -0.000000000000000000, -0.000000000000000000, -1.000000000000000000 ) ) ;
#876 = AXIS2_PLACEMENT_3D ( 'NONE', #753, #66, #351 ) ;
#877 = CARTESIAN_POINT ( 'NONE',  ( 0.000000000000000000, 0.000000000000000000, 18.00000000000000355 ) ) ;
#878 = EDGE_CURVE ( 'NONE', #338, #662, #105, .T. ) ;
#879 = DATE_AND_TIME ( #529, #364 ) ;
#880 = CIRCLE ( 'NONE', #1, 0.8500000000000000888 ) ;
#881 = LOCAL_TIME ( 16, 17, 56.00000000000000000, #663 ) ;
#882 = ORIENTED_EDGE ( 'NONE', *, *, #755, .F. ) ;
#883 = CARTESIAN_POINT ( 'NONE',  ( 7.000000000000000000, 0.000000000000000000, 18.00000000000000355 ) ) ;
#884 = DIRECTION ( 'NONE',  ( 1.000000000000000000, 0.000000000000000000, 0.000000000000000000 ) ) ;
#885 = VECTOR ( 'NONE', #519, 1000.000000000000000 ) ;
#886 = ORIENTED_EDGE ( 'NONE', *, *, #440, .T. ) ;
#887 = LINE ( 'NONE', #70, #636 ) ;
#888 = DIRECTION ( 'NONE',  ( 0.000000000000000000, 0.000000000000000000, 1.000000000000000000 ) ) ;
#889 = EDGE_CURVE ( 'NONE', #464, #606, #207, .T. ) ;
#890 = CARTESIAN_POINT ( 'NONE',  ( 24.85000000000000142, -5.500000000000000000, 0.000000000000000000 ) ) ;
#891 = FACE_OUTER_BOUND ( 'NONE', #121, .T. ) ;
ENDSEC;
END-ISO-10303-21;
