ISO-10303-21;
HEADER;
FILE_DESCRIPTION (( 'STEP AP203' ),
    '1' );
FILE_NAME ('ARM-105_Shoulder_bearing_cheek.step',
    '2026-09-07T21:13:53',
    ( '' ),
    ( '' ),
    'SwSTEP 2.0',
    'SolidWorks 2026',
    '' );
FILE_SCHEMA (( 'CONFIG_CONTROL_DESIGN' ));
ENDSEC;

DATA;
#1 = EDGE_CURVE ( 'NONE', #72, #101, #685, .T. ) ;
#2 = CYLINDRICAL_SURFACE ( 'NONE', #722, 17.00000000000000000 ) ;
#3 = DIRECTION ( 'NONE',  ( 1.000000000000000000, 0.000000000000000000, 0.000000000000000000 ) ) ;
#4 = ORIENTED_EDGE ( 'NONE', *, *, #796, .T. ) ;
#5 = VECTOR ( 'NONE', #172, 1000.000000000000000 ) ;
#6 = CARTESIAN_POINT ( 'NONE',  ( 0.000000000000000000, -22.00000000000000000, 4.000000000000000000 ) ) ;
#7 = CARTESIAN_POINT ( 'NONE',  ( 1.100000000000000089, -14.00000000000000000, 6.999999999999999112 ) ) ;
#8 = EDGE_LOOP ( 'NONE', ( #46, #580, #416, #682 ) ) ;
#9 = DIRECTION ( 'NONE',  ( 0.000000000000000000, 0.000000000000000000, -1.000000000000000000 ) ) ;
#10 = FACE_OUTER_BOUND ( 'NONE', #357, .T. ) ;
#11 = CARTESIAN_POINT ( 'NONE',  ( 0.000000000000000000, 14.00000000000000000, 0.000000000000000000 ) ) ;
#12 = DATE_TIME_ROLE ( 'classification_date' ) ;
#13 = ORIENTED_EDGE ( 'NONE', *, *, #355, .F. ) ;
#14 = VECTOR ( 'NONE', #310, 1000.000000000000000 ) ;
#15 = ORIENTED_EDGE ( 'NONE', *, *, #375, .T. ) ;
#16 = CARTESIAN_POINT ( 'NONE',  ( -14.00000000000000000, 0.000000000000000000, 6.999999999999999112 ) ) ;
#17 = DIRECTION ( 'NONE',  ( 1.000000000000000000, 0.000000000000000000, 0.000000000000000000 ) ) ;
#18 = APPROVAL ( #485, 'UNSPECIFIED' ) ;
#19 = ORIENTED_EDGE ( 'NONE', *, *, #529, .T. ) ;
#20 = EDGE_LOOP ( 'NONE', ( #778, #793 ) ) ;
#21 = DIRECTION ( 'NONE',  ( 0.000000000000000000, 0.000000000000000000, 1.000000000000000000 ) ) ;
#22 = CARTESIAN_POINT ( 'NONE',  ( 0.000000000000000000, 0.000000000000000000, 7.000000000000000000 ) ) ;
#23 = ORIENTED_EDGE ( 'NONE', *, *, #63, .F. ) ;
#24 = VECTOR ( 'NONE', #659, 1000.000000000000000 ) ;
#25 = ORIENTED_EDGE ( 'NONE', *, *, #610, .T. ) ;
#26 = CARTESIAN_POINT ( 'NONE',  ( 0.000000000000000000, 17.00000000000000000, 0.000000000000000000 ) ) ;
#27 = CARTESIAN_POINT ( 'NONE',  ( 0.000000000000000000, -22.00000000000000000, 4.000000000000000000 ) ) ;
#28 = CIRCLE ( 'NONE', #489, 1.100000000000000089 ) ;
#29 = EDGE_CURVE ( 'NONE', #450, #608, #433, .T. ) ;
#30 = ORIENTED_EDGE ( 'NONE', *, *, #402, .F. ) ;
#31 = LINE ( 'NONE', #472, #508 ) ;
#32 = FACE_OUTER_BOUND ( 'NONE', #8, .T. ) ;
#33 = ORIENTED_EDGE ( 'NONE', *, *, #819, .F. ) ;
#34 = CARTESIAN_POINT ( 'NONE',  ( -1.100000000000000089, 14.00000000000000000, 6.999999999999999112 ) ) ;
#35 = APPLICATION_CONTEXT ( 'configuration controlled 3d designs of mechanical parts and assemblies' ) ;
#36 = DESIGN_CONTEXT ( 'detailed design', #35, 'design' ) ;
#37 = ORIENTED_EDGE ( 'NONE', *, *, #797, .F. ) ;
#38 = CARTESIAN_POINT ( 'NONE',  ( -17.00000000000000000, 0.000000000000000000, 7.000000000000000000 ) ) ;
#39 = EDGE_CURVE ( 'NONE', #360, #543, #541, .T. ) ;
#40 = APPROVAL_PERSON_ORGANIZATION ( #368, #291, #316 ) ;
#41 = AXIS2_PLACEMENT_3D ( 'NONE', #22, #464, #719 ) ;
#42 = ORIENTED_EDGE ( 'NONE', *, *, #298, .T. ) ;
#43 = CARTESIAN_POINT ( 'NONE',  ( 0.000000000000000000, 22.00000000000000000, 4.000000000000000000 ) ) ;
#44 = DIRECTION ( 'NONE',  ( -0.000000000000000000, -0.000000000000000000, 1.000000000000000000 ) ) ;
#45 = ADVANCED_FACE ( 'NONE', ( #58 ), #123, .F. ) ;
#46 = ORIENTED_EDGE ( 'NONE', *, *, #735, .F. ) ;
#47 = DIRECTION ( 'NONE',  ( 0.000000000000000000, 0.000000000000000000, 1.000000000000000000 ) ) ;
#48 = CIRCLE ( 'NONE', #757, 17.00000000000000000 ) ;
#49 = CARTESIAN_POINT ( 'NONE',  ( 17.00000000000000000, 2.081899558550500280E-15, 7.000000000000000000 ) ) ;
#50 = ORIENTED_EDGE ( 'NONE', *, *, #276, .F. ) ;
#51 = LINE ( 'NONE', #606, #672 ) ;
#52 = CIRCLE ( 'NONE', #739, 1.100000000000000311 ) ;
#53 = PRODUCT ( 'ARM-105_Shoulder_bearing_cheek', 'ARM-105_Shoulder_bearing_cheek', '', ( #240 ) ) ;
#54 = CARTESIAN_POINT ( 'NONE',  ( 36.00000000000000000, -18.00000000000000000, 4.000000000000000000 ) ) ;
#55 = EDGE_CURVE ( 'NONE', #781, #399, #607, .T. ) ;
#56 = DIRECTION ( 'NONE',  ( 0.000000000000000000, 0.000000000000000000, -1.000000000000000000 ) ) ;
#57 = AXIS2_PLACEMENT_3D ( 'NONE', #54, #493, #239 ) ;
#58 = FACE_OUTER_BOUND ( 'NONE', #486, .T. ) ;
#59 = DATE_AND_TIME ( #734, #317 ) ;
#60 = PLANE ( 'NONE',  #787 ) ;
#61 = CARTESIAN_POINT ( 'NONE',  ( 0.000000000000000000, 22.00000000000000000, 0.000000000000000000 ) ) ;
#62 = DIRECTION ( 'NONE',  ( 0.000000000000000000, 0.000000000000000000, -1.000000000000000000 ) ) ;
#63 = EDGE_CURVE ( 'NONE', #450, #543, #800, .T. ) ;
#64 = FACE_BOUND ( 'NONE', #535, .T. ) ;
#65 = EDGE_CURVE ( 'NONE', #216, #296, #769, .T. ) ;
#66 = AXIS2_PLACEMENT_3D ( 'NONE', #110, #683, #423 ) ;
#67 = FACE_OUTER_BOUND ( 'NONE', #263, .T. ) ;
#68 = CARTESIAN_POINT ( 'NONE',  ( 0.000000000000000000, -22.00000000000000000, 0.000000000000000000 ) ) ;
#69 = PERSON_AND_ORGANIZATION_ROLE ( 'design_supplier' ) ;
#70 = CARTESIAN_POINT ( 'NONE',  ( 0.000000000000000000, 0.000000000000000000, 7.000000000000000000 ) ) ;
#71 = DIRECTION ( 'NONE',  ( -1.000000000000000000, 0.000000000000000000, 0.000000000000000000 ) ) ;
#72 = VERTEX_POINT ( 'NONE', #808 ) ;
#73 = DIRECTION ( 'NONE',  ( -1.000000000000000000, 0.000000000000000000, 0.000000000000000000 ) ) ;
#74 = FACE_BOUND ( 'NONE', #395, .T. ) ;
#75 = FACE_BOUND ( 'NONE', #215, .T. ) ;
#76 = PERSON ( 'UNSPECIFIED', 'UNSPECIFIED', 'UNSPECIFIED', ('UNSPECIFIED'), ('UNSPECIFIED'), ('UNSPECIFIED') ) ;
#77 = ORIENTED_EDGE ( 'NONE', *, *, #353, .F. ) ;
#78 = CC_DESIGN_PERSON_AND_ORGANIZATION_ASSIGNMENT ( #445, #568, ( #792 ) ) ;
#79 = ORIENTED_EDGE ( 'NONE', *, *, #430, .F. ) ;
#80 = LINE ( 'NONE', #222, #24 ) ;
#81 = LOCAL_TIME ( 16, 13, 53.00000000000000000, #671 ) ;
#82 = CYLINDRICAL_SURFACE ( 'NONE', #286, 1.100000000000000311 ) ;
#83 = ORIENTED_EDGE ( 'NONE', *, *, #646, .F. ) ;
#84 = AXIS2_PLACEMENT_3D ( 'NONE', #420, #559, #744 ) ;
#85 = ORIENTED_EDGE ( 'NONE', *, *, #819, .T. ) ;
#86 = DIRECTION ( 'NONE',  ( 0.000000000000000000, 0.000000000000000000, -1.000000000000000000 ) ) ;
#87 = DIRECTION ( 'NONE',  ( 0.000000000000000000, -0.000000000000000000, -1.000000000000000000 ) ) ;
#88 = ORIENTED_EDGE ( 'NONE', *, *, #735, .T. ) ;
#89 = CIRCLE ( 'NONE', #257, 1.599999999999997202 ) ;
#90 = VERTEX_POINT ( 'NONE', #246 ) ;
#91 = DIRECTION ( 'NONE',  ( -0.000000000000000000, -0.000000000000000000, -1.000000000000000000 ) ) ;
#92 = EDGE_CURVE ( 'NONE', #478, #340, #111, .T. ) ;
#93 = CARTESIAN_POINT ( 'NONE',  ( 42.00000000000000000, -22.00000000000000000, 4.000000000000000000 ) ) ;
#94 = EDGE_LOOP ( 'NONE', ( #13, #613 ) ) ;
#95 = EDGE_CURVE ( 'NONE', #413, #112, #477, .T. ) ;
#96 = AXIS2_PLACEMENT_3D ( 'NONE', #536, #272, #206 ) ;
#97 = ORIENTED_EDGE ( 'NONE', *, *, #92, .T. ) ;
#98 = CARTESIAN_POINT ( 'NONE',  ( 11.09999999999999964, 1.359357947053562156E-15, 7.000000000000000000 ) ) ;
#99 = VECTOR ( 'NONE', #379, 1000.000000000000000 ) ;
#100 = CIRCLE ( 'NONE', #200, 1.100000000000000089 ) ;
#101 = VERTEX_POINT ( 'NONE', #488 ) ;
#102 = CARTESIAN_POINT ( 'NONE',  ( 0.000000000000000000, -14.00000000000000000, 0.000000000000000000 ) ) ;
#103 = VERTEX_POINT ( 'NONE', #203 ) ;
#104 = CARTESIAN_POINT ( 'NONE',  ( 36.00000000000000000, -18.00000000000000000, 0.000000000000000000 ) ) ;
#105 = ORIENTED_EDGE ( 'NONE', *, *, #29, .F. ) ;
#106 = EDGE_CURVE ( 'NONE', #770, #673, #329, .T. ) ;
#107 = DIRECTION ( 'NONE',  ( -1.000000000000000000, -0.000000000000000000, -0.000000000000000000 ) ) ;
#108 = VECTOR ( 'NONE', #738, 1000.000000000000000 ) ;
#109 = EDGE_LOOP ( 'NONE', ( #617, #721, #83, #348 ) ) ;
#110 = CARTESIAN_POINT ( 'NONE',  ( 0.000000000000000000, 0.000000000000000000, 4.000000000000000000 ) ) ;
#111 = LINE ( 'NONE', #49, #434 ) ;
#112 = VERTEX_POINT ( 'NONE', #623 ) ;
#113 = CARTESIAN_POINT ( 'NONE',  ( 0.000000000000000000, 14.00000000000000000, 6.999999999999999112 ) ) ;
#114 = AXIS2_PLACEMENT_3D ( 'NONE', #132, #701, #372 ) ;
#115 = CARTESIAN_POINT ( 'NONE',  ( 0.000000000000000000, -22.00000000000000000, 4.000000000000000000 ) ) ;
#116 = PERSON_AND_ORGANIZATION_ROLE ( 'creator' ) ;
#117 = EDGE_CURVE ( 'NONE', #404, #296, #320, .T. ) ;
#118 = VERTEX_POINT ( 'NONE', #61 ) ;
#119 = CARTESIAN_POINT ( 'NONE',  ( -14.00000000000000000, 0.000000000000000000, 6.999999999999999112 ) ) ;
#120 = PERSON_AND_ORGANIZATION ( #76, #185 ) ;
#121 = LINE ( 'NONE', #260, #361 ) ;
#122 = VECTOR ( 'NONE', #142, 1000.000000000000000 ) ;
#123 = CYLINDRICAL_SURFACE ( 'NONE', #689, 1.599999999999997202 ) ;
#124 = DATE_AND_TIME ( #756, #603 ) ;
#125 = EDGE_CURVE ( 'NONE', #326, #539, #506, .T. ) ;
#126 = EDGE_CURVE ( 'NONE', #101, #364, #370, .T. ) ;
#127 = CARTESIAN_POINT ( 'NONE',  ( 0.000000000000000000, 0.000000000000000000, 0.000000000000000000 ) ) ;
#128 = CARTESIAN_POINT ( 'NONE',  ( 36.00000000000000000, -18.00000000000000000, 6.999999999999999112 ) ) ;
#129 = LINE ( 'NONE', #691, #538 ) ;
#130 = DIRECTION ( 'NONE',  ( 1.000000000000000000, 0.000000000000000000, 0.000000000000000000 ) ) ;
#131 = EDGE_LOOP ( 'NONE', ( #446, #783, #19, #475 ) ) ;
#132 = CARTESIAN_POINT ( 'NONE',  ( 0.000000000000000000, 0.000000000000000000, 0.000000000000000000 ) ) ;
#133 = DIRECTION ( 'NONE',  ( 1.000000000000000000, 0.000000000000000000, -0.000000000000000000 ) ) ;
#134 = ORIENTED_EDGE ( 'NONE', *, *, #635, .F. ) ;
#135 = DIRECTION ( 'NONE',  ( -1.000000000000000000, 0.000000000000000000, 0.000000000000000000 ) ) ;
#136 = LINE ( 'NONE', #68, #99 ) ;
#137 = SECURITY_CLASSIFICATION_LEVEL ( 'unclassified' ) ;
#138 = EDGE_LOOP ( 'NONE', ( #50, #166 ) ) ;
#139 = CC_DESIGN_PERSON_AND_ORGANIZATION_ASSIGNMENT ( #410, #116, ( #727 ) ) ;
#140 = VERTEX_POINT ( 'NONE', #578 ) ;
#141 = DIRECTION ( 'NONE',  ( 0.000000000000000000, 0.000000000000000000, -1.000000000000000000 ) ) ;
#142 = DIRECTION ( 'NONE',  ( -0.000000000000000000, -1.000000000000000000, -0.000000000000000000 ) ) ;
#143 = ORIENTED_EDGE ( 'NONE', *, *, #590, .T. ) ;
#144 = ORIENTED_EDGE ( 'NONE', *, *, #492, .F. ) ;
#145 = DIRECTION ( 'NONE',  ( 0.000000000000000000, 0.000000000000000000, 1.000000000000000000 ) ) ;
#146 = VECTOR ( 'NONE', #294, 1000.000000000000000 ) ;
#147 = CARTESIAN_POINT ( 'NONE',  ( 11.09999999999999964, 1.359357947053562156E-15, 7.000000000000000000 ) ) ;
#148 = ORIENTED_EDGE ( 'NONE', *, *, #188, .F. ) ;
#149 = EDGE_CURVE ( 'NONE', #364, #599, #557, .T. ) ;
#150 = ORIENTED_EDGE ( 'NONE', *, *, #125, .F. ) ;
#151 = DIRECTION ( 'NONE',  ( 1.000000000000000000, 0.000000000000000000, 0.000000000000000000 ) ) ;
#152 = EDGE_CURVE ( 'NONE', #539, #221, #100, .T. ) ;
#153 = DIRECTION ( 'NONE',  ( -0.000000000000000000, -0.000000000000000000, -1.000000000000000000 ) ) ;
#154 = ORIENTED_EDGE ( 'NONE', *, *, #92, .F. ) ;
#155 = AXIS2_PLACEMENT_3D ( 'NONE', #362, #614, #555 ) ;
#156 = EDGE_LOOP ( 'NONE', ( #30, #37 ) ) ;
#157 =( NAMED_UNIT ( * ) SI_UNIT ( $, .STERADIAN. ) SOLID_ANGLE_UNIT ( ) );
#158 = DIRECTION ( 'NONE',  ( 0.000000000000000000, 1.000000000000000000, 0.000000000000000000 ) ) ;
#159 = AXIS2_PLACEMENT_3D ( 'NONE', #686, #751, #622 ) ;
#160 = ORIENTED_EDGE ( 'NONE', *, *, #796, .F. ) ;
#161 = DIRECTION ( 'NONE',  ( -0.000000000000000000, -0.000000000000000000, -1.000000000000000000 ) ) ;
#162 = LINE ( 'NONE', #147, #347 ) ;
#163 = VECTOR ( 'NONE', #153, 1000.000000000000000 ) ;
#164 = UNCERTAINTY_MEASURE_WITH_UNIT (LENGTH_MEASURE( 1.000000000000000082E-05 ), #278, 'distance_accuracy_value', 'NONE');
#165 = VECTOR ( 'NONE', #440, 1000.000000000000000 ) ;
#166 = ORIENTED_EDGE ( 'NONE', *, *, #553, .F. ) ;
#167 = LINE ( 'NONE', #794, #318 ) ;
#168 = ORIENTED_EDGE ( 'NONE', *, *, #563, .F. ) ;
#169 = DIRECTION ( 'NONE',  ( 0.000000000000000000, 0.000000000000000000, -1.000000000000000000 ) ) ;
#170 = ORIENTED_EDGE ( 'NONE', *, *, #517, .T. ) ;
#171 = CIRCLE ( 'NONE', #628, 1.100000000000000089 ) ;
#172 = DIRECTION ( 'NONE',  ( 1.000000000000000000, 0.000000000000000000, 0.000000000000000000 ) ) ;
#173 = DIRECTION ( 'NONE',  ( 0.000000000000000000, 0.000000000000000000, 1.000000000000000000 ) ) ;
#174 = CALENDAR_DATE ( 2026, 7, 9 ) ;
#175 = CIRCLE ( 'NONE', #389, 1.599999999999997202 ) ;
#176 = ORIENTED_EDGE ( 'NONE', *, *, #474, .T. ) ;
#177 = ADVANCED_FACE ( 'NONE', ( #562 ), #253, .F. ) ;
#178 = CARTESIAN_POINT ( 'NONE',  ( -11.09999999999999964, 0.000000000000000000, 0.000000000000000000 ) ) ;
#179 = EDGE_CURVE ( 'NONE', #112, #413, #515, .T. ) ;
#180 = ORIENTED_EDGE ( 'NONE', *, *, #412, .T. ) ;
#181 = CARTESIAN_POINT ( 'NONE',  ( -15.10000000000000142, 0.000000000000000000, 6.999999999999999112 ) ) ;
#182 = DIRECTION ( 'NONE',  ( -0.000000000000000000, -1.000000000000000000, -0.000000000000000000 ) ) ;
#183 = CYLINDRICAL_SURFACE ( 'NONE', #159, 17.00000000000000000 ) ;
#184 = AXIS2_PLACEMENT_3D ( 'NONE', #299, #173, #356 ) ;
#185 = ORGANIZATION ( 'UNSPECIFIED', 'UNSPECIFIED', '' ) ;
#186 = DIRECTION ( 'NONE',  ( 1.000000000000000000, 0.000000000000000000, 0.000000000000000000 ) ) ;
#187 = LINE ( 'NONE', #631, #426 ) ;
#188 = EDGE_CURVE ( 'NONE', #550, #90, #187, .T. ) ;
#189 = DIRECTION ( 'NONE',  ( 0.000000000000000000, 0.000000000000000000, -1.000000000000000000 ) ) ;
#190 = CARTESIAN_POINT ( 'NONE',  ( -12.90000000000000036, 1.347111479062088503E-16, 0.000000000000000000 ) ) ;
#191 = DIRECTION ( 'NONE',  ( -1.000000000000000000, 0.000000000000000000, 0.000000000000000000 ) ) ;
#192 = CARTESIAN_POINT ( 'NONE',  ( 0.000000000000000000, 22.00000000000000000, 0.000000000000000000 ) ) ;
#193 = PERSON_AND_ORGANIZATION ( #76, #185 ) ;
#194 = VECTOR ( 'NONE', #718, 1000.000000000000000 ) ;
#195 = ORIENTED_EDGE ( 'NONE', *, *, #375, .F. ) ;
#196 = CARTESIAN_POINT ( 'NONE',  ( 0.000000000000000000, 22.00000000000000000, 4.000000000000000000 ) ) ;
#197 = CARTESIAN_POINT ( 'NONE',  ( 36.00000000000000000, -18.00000000000000000, 0.000000000000000000 ) ) ;
#198 = ADVANCED_FACE ( 'NONE', ( #516 ), #761, .F. ) ;
#199 = EDGE_LOOP ( 'NONE', ( #105, #408, #742, #33 ) ) ;
#200 = AXIS2_PLACEMENT_3D ( 'NONE', #11, #444, #313 ) ;
#201 = EDGE_LOOP ( 'NONE', ( #344, #513, #585, #336 ) ) ;
#202 = DIRECTION ( 'NONE',  ( 1.000000000000000000, 0.000000000000000000, 0.000000000000000000 ) ) ;
#203 = CARTESIAN_POINT ( 'NONE',  ( -12.90000000000000036, 1.347111479062088503E-16, 6.999999999999999112 ) ) ;
#204 = EDGE_LOOP ( 'NONE', ( #601, #767 ) ) ;
#205 = VERTEX_POINT ( 'NONE', #510 ) ;
#206 = DIRECTION ( 'NONE',  ( 1.000000000000000000, 0.000000000000000000, 0.000000000000000000 ) ) ;
#207 = FACE_OUTER_BOUND ( 'NONE', #695, .T. ) ;
#208 = VERTEX_POINT ( 'NONE', #627 ) ;
#209 = EDGE_CURVE ( 'NONE', #90, #118, #766, .T. ) ;
#210 = ADVANCED_FACE ( 'NONE', ( #75, #324, #453, #697, #64, #315, #567 ), #707, .F. ) ;
#211 = VERTEX_POINT ( 'NONE', #7 ) ;
#212 = DIRECTION ( 'NONE',  ( -0.000000000000000000, -0.000000000000000000, -1.000000000000000000 ) ) ;
#213 = CIRCLE ( 'NONE', #566, 1.100000000000000089 ) ;
#214 = DIRECTION ( 'NONE',  ( -0.000000000000000000, -0.000000000000000000, -1.000000000000000000 ) ) ;
#215 = EDGE_LOOP ( 'NONE', ( #579, #394 ) ) ;
#216 = VERTEX_POINT ( 'NONE', #190 ) ;
#217 =( NAMED_UNIT ( * ) PLANE_ANGLE_UNIT ( ) SI_UNIT ( $, .RADIAN. ) );
#218 = EDGE_CURVE ( 'NONE', #228, #280, #407, .T. ) ;
#219 = CARTESIAN_POINT ( 'NONE',  ( -15.10000000000000142, 0.000000000000000000, 0.000000000000000000 ) ) ;
#220 = AXIS2_PLACEMENT_3D ( 'NONE', #501, #191, #817 ) ;
#221 = VERTEX_POINT ( 'NONE', #255 ) ;
#222 = CARTESIAN_POINT ( 'NONE',  ( 0.000000000000000000, -22.00000000000000000, 4.000000000000000000 ) ) ;
#223 = PLANE ( 'NONE',  #266 ) ;
#224 = CLOSED_SHELL ( 'NONE', ( #698, #321, #273, #177, #466, #759, #681, #575, #657, #710, #210, #736, #676, #300, #649, #366, #561, #45, #198, #468, #244, #234 ) ) ;
#225 = ORIENTED_EDGE ( 'NONE', *, *, #529, .F. ) ;
#226 = CARTESIAN_POINT ( 'NONE',  ( 0.000000000000000000, 22.00000000000000000, 4.000000000000000000 ) ) ;
#227 = EDGE_CURVE ( 'NONE', #118, #773, #136, .T. ) ;
#228 = VERTEX_POINT ( 'NONE', #382 ) ;
#229 = CARTESIAN_POINT ( 'NONE',  ( 0.000000000000000000, 14.00000000000000000, 6.999999999999999112 ) ) ;
#230 = CARTESIAN_POINT ( 'NONE',  ( 0.000000000000000000, 0.000000000000000000, 0.000000000000000000 ) ) ;
#231 = ORIENTED_EDGE ( 'NONE', *, *, #106, .F. ) ;
#232 = CARTESIAN_POINT ( 'NONE',  ( -17.00000000000000000, 0.000000000000000000, 7.000000000000000000 ) ) ;
#233 = CARTESIAN_POINT ( 'NONE',  ( 0.000000000000000000, -17.00000000000000000, 7.000000000000000000 ) ) ;
#234 = ADVANCED_FACE ( 'NONE', ( #32 ), #82, .F. ) ;
#235 = EDGE_CURVE ( 'NONE', #478, #383, #620, .T. ) ;
#236 = ORIENTED_EDGE ( 'NONE', *, *, #635, .T. ) ;
#237 = CIRCLE ( 'NONE', #371, 1.100000000000000311 ) ;
#238 = DIRECTION ( 'NONE',  ( 0.000000000000000000, 0.000000000000000000, 1.000000000000000000 ) ) ;
#239 = DIRECTION ( 'NONE',  ( -1.000000000000000000, 0.000000000000000000, 0.000000000000000000 ) ) ;
#240 = MECHANICAL_CONTEXT ( 'NONE', #809, 'mechanical' ) ;
#241 = AXIS2_PLACEMENT_3D ( 'NONE', #723, #713, #661 ) ;
#242 = ORIENTED_EDGE ( 'NONE', *, *, #517, .F. ) ;
#243 = LINE ( 'NONE', #494, #549 ) ;
#244 = ADVANCED_FACE ( 'NONE', ( #583 ), #534, .F. ) ;
#245 = LINE ( 'NONE', #365, #108 ) ;
#246 = CARTESIAN_POINT ( 'NONE',  ( 42.00000000000000000, 22.00000000000000000, 0.000000000000000000 ) ) ;
#247 = APPROVAL_DATE_TIME ( #59, #18 ) ;
#248 = DIRECTION ( 'NONE',  ( -1.000000000000000000, 0.000000000000000000, 0.000000000000000000 ) ) ;
#249 = CARTESIAN_POINT ( 'NONE',  ( 36.00000000000000000, -18.00000000000000000, 4.000000000000000000 ) ) ;
#250 = CC_DESIGN_SECURITY_CLASSIFICATION ( #542, ( #792 ) ) ;
#251 = AXIS2_PLACEMENT_3D ( 'NONE', #113, #747, #799 ) ;
#252 = CYLINDRICAL_SURFACE ( 'NONE', #281, 11.09999999999999964 ) ;
#253 = CYLINDRICAL_SURFACE ( 'NONE', #621, 1.599999999999997202 ) ;
#254 = DIRECTION ( 'NONE',  ( 1.000000000000000000, 0.000000000000000000, 0.000000000000000000 ) ) ;
#255 = CARTESIAN_POINT ( 'NONE',  ( 1.100000000000000089, 14.00000000000000000, 0.000000000000000000 ) ) ;
#256 = COORDINATED_UNIVERSAL_TIME_OFFSET ( 6, 0, .BEHIND. ) ;
#257 = AXIS2_PLACEMENT_3D ( 'NONE', #104, #309, #733 ) ;
#258 = ORIENTED_EDGE ( 'NONE', *, *, #218, .T. ) ;
#259 = EDGE_CURVE ( 'NONE', #208, #427, #662, .T. ) ;
#260 = CARTESIAN_POINT ( 'NONE',  ( 34.39999999999999858, -18.00000000000000000, 6.999999999999999112 ) ) ;
#261 = CARTESIAN_POINT ( 'NONE',  ( -15.10000000000000142, 0.000000000000000000, 6.999999999999999112 ) ) ;
#262 = APPROVAL_STATUS ( 'not_yet_approved' ) ;
#263 = EDGE_LOOP ( 'NONE', ( #154, #134, #180, #342, #23, #79 ) ) ;
#264 = DIRECTION ( 'NONE',  ( -0.000000000000000000, -0.000000000000000000, -1.000000000000000000 ) ) ;
#265 = FACE_BOUND ( 'NONE', #138, .T. ) ;
#266 = AXIS2_PLACEMENT_3D ( 'NONE', #27, #158, #469 ) ;
#267 = DIRECTION ( 'NONE',  ( 0.000000000000000000, 1.000000000000000000, 0.000000000000000000 ) ) ;
#268 = COORDINATED_UNIVERSAL_TIME_OFFSET ( 6, 0, .BEHIND. ) ;
#269 = ORIENTED_EDGE ( 'NONE', *, *, #412, .F. ) ;
#270 = AXIS2_PLACEMENT_3D ( 'NONE', #249, #498, #752 ) ;
#271 = EDGE_LOOP ( 'NONE', ( #168, #720, #663, #705 ) ) ;
#272 = DIRECTION ( 'NONE',  ( 0.000000000000000000, 0.000000000000000000, 1.000000000000000000 ) ) ;
#273 = ADVANCED_FACE ( 'NONE', ( #334 ), #274, .F. ) ;
#274 = CYLINDRICAL_SURFACE ( 'NONE', #447, 1.100000000000000089 ) ;
#275 = ORIENTED_EDGE ( 'NONE', *, *, #117, .F. ) ;
#276 = EDGE_CURVE ( 'NONE', #781, #211, #28, .T. ) ;
#277 = ORIENTED_EDGE ( 'NONE', *, *, #209, .F. ) ;
#278 =( LENGTH_UNIT ( ) NAMED_UNIT ( * ) SI_UNIT ( .MILLI., .METRE. ) );
#279 = LINE ( 'NONE', #93, #595 ) ;
#280 = VERTEX_POINT ( 'NONE', #338 ) ;
#281 = AXIS2_PLACEMENT_3D ( 'NONE', #576, #264, #73 ) ;
#282 = ORIENTED_EDGE ( 'NONE', *, *, #437, .T. ) ;
#283 = DIRECTION ( 'NONE',  ( -1.000000000000000000, 0.000000000000000000, 0.000000000000000000 ) ) ;
#284 = CIRCLE ( 'NONE', #41, 11.09999999999999964 ) ;
#285 = CARTESIAN_POINT ( 'NONE',  ( -17.00000000000000000, 0.000000000000000000, 0.000000000000000000 ) ) ;
#286 = AXIS2_PLACEMENT_3D ( 'NONE', #598, #349, #401 ) ;
#287 = ORIENTED_EDGE ( 'NONE', *, *, #65, .T. ) ;
#288 = CARTESIAN_POINT ( 'NONE',  ( 1.100000000000000089, -14.00000000000000000, 0.000000000000000000 ) ) ;
#289 = DIRECTION ( 'NONE',  ( -1.000000000000000000, 0.000000000000000000, 0.000000000000000000 ) ) ;
#290 = ORIENTED_EDGE ( 'NONE', *, *, #126, .F. ) ;
#291 = APPROVAL ( #262, 'UNSPECIFIED' ) ;
#292 = CARTESIAN_POINT ( 'NONE',  ( 34.39999999999999858, 18.00000000000000000, 0.000000000000000000 ) ) ;
#293 = ORIENTED_EDGE ( 'NONE', *, *, #235, .T. ) ;
#294 = DIRECTION ( 'NONE',  ( -0.000000000000000000, -0.000000000000000000, -1.000000000000000000 ) ) ;
#295 = LOCAL_TIME ( 16, 13, 53.00000000000000000, #268 ) ;
#296 = VERTEX_POINT ( 'NONE', #219 ) ;
#297 = DIRECTION ( 'NONE',  ( -1.000000000000000000, 0.000000000000000000, 0.000000000000000000 ) ) ;
#298 = EDGE_CURVE ( 'NONE', #704, #427, #473, .T. ) ;
#299 = CARTESIAN_POINT ( 'NONE',  ( 0.000000000000000000, 0.000000000000000000, 0.000000000000000000 ) ) ;
#300 = ADVANCED_FACE ( 'NONE', ( #207 ), #223, .F. ) ;
#301 = ORIENTED_EDGE ( 'NONE', *, *, #430, .T. ) ;
#302 = AXIS2_PLACEMENT_3D ( 'NONE', #381, #629, #632 ) ;
#303 = CYLINDRICAL_SURFACE ( 'NONE', #716, 1.599999999999997202 ) ;
#304 = ORIENTED_EDGE ( 'NONE', *, *, #758, .T. ) ;
#305 = CIRCLE ( 'NONE', #96, 11.09999999999999964 ) ;
#306 = DIRECTION ( 'NONE',  ( -0.000000000000000000, -1.000000000000000000, -0.000000000000000000 ) ) ;
#307 = APPROVAL_ROLE ( '' ) ;
#308 = AXIS2_PLACEMENT_3D ( 'NONE', #128, #772, #818 ) ;
#309 = DIRECTION ( 'NONE',  ( -0.000000000000000000, -0.000000000000000000, -1.000000000000000000 ) ) ;
#310 = DIRECTION ( 'NONE',  ( -0.000000000000000000, -0.000000000000000000, -1.000000000000000000 ) ) ;
#311 = DIRECTION ( 'NONE',  ( 0.000000000000000000, 0.000000000000000000, -1.000000000000000000 ) ) ;
#312 = CC_DESIGN_PERSON_AND_ORGANIZATION_ASSIGNMENT ( #762, #639, ( #542 ) ) ;
#313 = DIRECTION ( 'NONE',  ( 1.000000000000000000, 0.000000000000000000, 0.000000000000000000 ) ) ;
#314 = PLANE ( 'NONE',  #220 ) ;
#315 = FACE_BOUND ( 'NONE', #805, .T. ) ;
#316 = APPROVAL_ROLE ( '' ) ;
#317 = LOCAL_TIME ( 16, 13, 53.00000000000000000, #480 ) ;
#318 = VECTOR ( 'NONE', #306, 1000.000000000000000 ) ;
#319 = DIRECTION ( 'NONE',  ( -0.000000000000000000, -0.000000000000000000, -1.000000000000000000 ) ) ;
#320 = LINE ( 'NONE', #261, #731 ) ;
#321 = ADVANCED_FACE ( 'NONE', ( #655 ), #458, .F. ) ;
#322 = EDGE_CURVE ( 'NONE', #350, #208, #162, .T. ) ;
#323 = DIRECTION ( 'NONE',  ( 1.000000000000000000, 0.000000000000000000, 0.000000000000000000 ) ) ;
#324 = FACE_BOUND ( 'NONE', #94, .T. ) ;
#325 = VECTOR ( 'NONE', #319, 1000.000000000000000 ) ;
#326 = VERTEX_POINT ( 'NONE', #34 ) ;
#327 = DIRECTION ( 'NONE',  ( 1.000000000000000000, 0.000000000000000000, 0.000000000000000000 ) ) ;
#328 = CARTESIAN_POINT ( 'NONE',  ( 0.000000000000000000, 0.000000000000000000, 7.000000000000000000 ) ) ;
#329 = LINE ( 'NONE', #692, #122 ) ;
#330 = AXIS2_PLACEMENT_3D ( 'NONE', #484, #44, #670 ) ;
#331 = EDGE_LOOP ( 'NONE', ( #651, #339, #277, #148, #144, #729, #589 ) ) ;
#332 = ORIENTED_EDGE ( 'NONE', *, *, #106, .T. ) ;
#333 = DIRECTION ( 'NONE',  ( -0.000000000000000000, -0.000000000000000000, -1.000000000000000000 ) ) ;
#334 = FACE_OUTER_BOUND ( 'NONE', #668, .T. ) ;
#335 = ORIENTED_EDGE ( 'NONE', *, *, #646, .T. ) ;
#336 = ORIENTED_EDGE ( 'NONE', *, *, #353, .T. ) ;
#337 = DIRECTION ( 'NONE',  ( 1.000000000000000000, 0.000000000000000000, 0.000000000000000000 ) ) ;
#338 = CARTESIAN_POINT ( 'NONE',  ( 37.59999999999999432, -18.00000000000000000, 0.000000000000000000 ) ) ;
#339 = ORIENTED_EDGE ( 'NONE', *, *, #227, .F. ) ;
#340 = VERTEX_POINT ( 'NONE', #406 ) ;
#341 = CARTESIAN_POINT ( 'NONE',  ( 37.59999999999999432, 18.00000000000000000, 6.999999999999999112 ) ) ;
#342 = ORIENTED_EDGE ( 'NONE', *, *, #39, .T. ) ;
#343 = VECTOR ( 'NONE', #141, 1000.000000000000000 ) ;
#344 = ORIENTED_EDGE ( 'NONE', *, *, #188, .T. ) ;
#345 = DIRECTION ( 'NONE',  ( 1.000000000000000000, 0.000000000000000000, 0.000000000000000000 ) ) ;
#346 = CARTESIAN_POINT ( 'NONE',  ( 0.000000000000000000, -14.00000000000000000, 6.999999999999999112 ) ) ;
#347 = VECTOR ( 'NONE', #214, 1000.000000000000000 ) ;
#348 = ORIENTED_EDGE ( 'NONE', *, *, #298, .F. ) ;
#349 = DIRECTION ( 'NONE',  ( 0.000000000000000000, 0.000000000000000000, -1.000000000000000000 ) ) ;
#350 = VERTEX_POINT ( 'NONE', #98 ) ;
#351 = DIRECTION ( 'NONE',  ( 0.000000000000000000, 1.000000000000000000, 0.000000000000000000 ) ) ;
#352 = ORIENTED_EDGE ( 'NONE', *, *, #786, .T. ) ;
#353 = EDGE_CURVE ( 'NONE', #140, #550, #279, .T. ) ;
#354 = DIRECTION ( 'NONE',  ( 0.000000000000000000, 0.000000000000000000, 1.000000000000000000 ) ) ;
#355 = EDGE_CURVE ( 'NONE', #399, #798, #700, .T. ) ;
#356 = DIRECTION ( 'NONE',  ( 1.000000000000000000, 0.000000000000000000, 0.000000000000000000 ) ) ;
#357 = EDGE_LOOP ( 'NONE', ( #490, #88, #287, #275 ) ) ;
#358 = CARTESIAN_POINT ( 'NONE',  ( 42.00000000000000000, -22.00000000000000000, 0.000000000000000000 ) ) ;
#359 = DIRECTION ( 'NONE',  ( -0.000000000000000000, -0.000000000000000000, -1.000000000000000000 ) ) ;
#360 = VERTEX_POINT ( 'NONE', #285 ) ;
#361 = VECTOR ( 'NONE', #311, 1000.000000000000000 ) ;
#362 = CARTESIAN_POINT ( 'NONE',  ( 36.00000000000000000, 18.00000000000000000, 0.000000000000000000 ) ) ;
#363 = APPROVAL_STATUS ( 'not_yet_approved' ) ;
#364 = VERTEX_POINT ( 'NONE', #292 ) ;
#365 = CARTESIAN_POINT ( 'NONE',  ( 0.000000000000000000, -22.00000000000000000, 0.000000000000000000 ) ) ;
#366 = ADVANCED_FACE ( 'NONE', ( #540 ), #791, .F. ) ;
#367 = LINE ( 'NONE', #431, #612 ) ;
#368 = PERSON_AND_ORGANIZATION ( #76, #185 ) ;
#369 = DIRECTION ( 'NONE',  ( 0.000000000000000000, 0.000000000000000000, 1.000000000000000000 ) ) ;
#370 = LINE ( 'NONE', #702, #546 ) ;
#371 = AXIS2_PLACEMENT_3D ( 'NONE', #392, #21, #151 ) ;
#372 = DIRECTION ( 'NONE',  ( 1.000000000000000000, 0.000000000000000000, 0.000000000000000000 ) ) ;
#373 = EDGE_CURVE ( 'NONE', #350, #704, #284, .T. ) ;
#374 = DIRECTION ( 'NONE',  ( 0.000000000000000000, 0.000000000000000000, 1.000000000000000000 ) ) ;
#375 = EDGE_CURVE ( 'NONE', #72, #599, #396, .T. ) ;
#376 = VECTOR ( 'NONE', #107, 1000.000000000000000 ) ;
#377 = AXIS2_PLACEMENT_3D ( 'NONE', #730, #600, #664 ) ;
#378 = CARTESIAN_POINT ( 'NONE',  ( 0.000000000000000000, 0.000000000000000000, 4.000000000000000000 ) ) ;
#379 = DIRECTION ( 'NONE',  ( -0.000000000000000000, -1.000000000000000000, -0.000000000000000000 ) ) ;
#380 = ORIENTED_EDGE ( 'NONE', *, *, #411, .T. ) ;
#381 = CARTESIAN_POINT ( 'NONE',  ( 0.000000000000000000, 14.00000000000000000, 0.000000000000000000 ) ) ;
#382 = CARTESIAN_POINT ( 'NONE',  ( 34.39999999999999858, -18.00000000000000000, 0.000000000000000000 ) ) ;
#383 = VERTEX_POINT ( 'NONE', #232 ) ;
#384 = ORIENTED_EDGE ( 'NONE', *, *, #373, .T. ) ;
#385 = FACE_OUTER_BOUND ( 'NONE', #109, .T. ) ;
#386 = CARTESIAN_POINT ( 'NONE',  ( 0.000000000000000000, 0.000000000000000000, 0.000000000000000000 ) ) ;
#387 = ORIENTED_EDGE ( 'NONE', *, *, #674, .F. ) ;
#388 = CC_DESIGN_APPROVAL ( #291, ( #542 ) ) ;
#389 = AXIS2_PLACEMENT_3D ( 'NONE', #602, #544, #297 ) ;
#390 = EDGE_CURVE ( 'NONE', #140, #732, #51, .T. ) ;
#391 = ORIENTED_EDGE ( 'NONE', *, *, #322, .F. ) ;
#392 = CARTESIAN_POINT ( 'NONE',  ( -14.00000000000000000, 0.000000000000000000, 6.999999999999999112 ) ) ;
#393 = DIRECTION ( 'NONE',  ( -0.000000000000000000, -0.000000000000000000, -1.000000000000000000 ) ) ;
#394 = ORIENTED_EDGE ( 'NONE', *, *, #65, .F. ) ;
#395 = EDGE_LOOP ( 'NONE', ( #737, #524 ) ) ;
#396 = LINE ( 'NONE', #341, #782 ) ;
#397 = EDGE_LOOP ( 'NONE', ( #511, #724 ) ) ;
#398 = CIRCLE ( 'NONE', #504, 11.09999999999999964 ) ;
#399 = VERTEX_POINT ( 'NONE', #409 ) ;
#400 = CARTESIAN_POINT ( 'NONE',  ( 0.000000000000000000, -14.00000000000000000, 0.000000000000000000 ) ) ;
#401 = DIRECTION ( 'NONE',  ( -1.000000000000000000, 0.000000000000000000, 0.000000000000000000 ) ) ;
#402 = EDGE_CURVE ( 'NONE', #404, #103, #497, .T. ) ;
#403 = AXIS2_PLACEMENT_3D ( 'NONE', #443, #572, #248 ) ;
#404 = VERTEX_POINT ( 'NONE', #181 ) ;
#405 = APPLICATION_PROTOCOL_DEFINITION ( 'international standard', 'config_control_design', 1994, #809 ) ;
#406 = CARTESIAN_POINT ( 'NONE',  ( 17.00000000000000000, 2.081899558550500280E-15, 4.000000000000000000 ) ) ;
#407 = CIRCLE ( 'NONE', #728, 1.599999999999997202 ) ;
#408 = ORIENTED_EDGE ( 'NONE', *, *, #63, .T. ) ;
#409 = CARTESIAN_POINT ( 'NONE',  ( -1.100000000000000089, -14.00000000000000000, 0.000000000000000000 ) ) ;
#410 = PERSON_AND_ORGANIZATION ( #76, #185 ) ;
#411 = EDGE_CURVE ( 'NONE', #732, #770, #802, .T. ) ;
#412 = EDGE_CURVE ( 'NONE', #383, #360, #414, .T. ) ;
#413 = VERTEX_POINT ( 'NONE', #487 ) ;
#414 = LINE ( 'NONE', #38, #146 ) ;
#415 = PERSON_AND_ORGANIZATION ( #76, #185 ) ;
#416 = ORIENTED_EDGE ( 'NONE', *, *, #117, .T. ) ;
#417 = DIRECTION ( 'NONE',  ( 1.000000000000000000, 0.000000000000000000, 0.000000000000000000 ) ) ;
#418 = AXIS2_PLACEMENT_3D ( 'NONE', #230, #552, #804 ) ;
#419 = AXIS2_PLACEMENT_3D ( 'NONE', #102, #393, #650 ) ;
#420 = CARTESIAN_POINT ( 'NONE',  ( -14.00000000000000000, 0.000000000000000000, 0.000000000000000000 ) ) ;
#421 = DATE_AND_TIME ( #174, #81 ) ;
#422 = ORIENTED_EDGE ( 'NONE', *, *, #411, .F. ) ;
#423 = DIRECTION ( 'NONE',  ( -1.000000000000000000, 0.000000000000000000, 0.000000000000000000 ) ) ;
#424 = PRODUCT_DEFINITION_SHAPE ( 'NONE', 'NONE',  #727 ) ;
#425 = PERSON_AND_ORGANIZATION_ROLE ( 'design_owner' ) ;
#426 = VECTOR ( 'NONE', #267, 1000.000000000000000 ) ;
#427 = VERTEX_POINT ( 'NONE', #178 ) ;
#428 = CIRCLE ( 'NONE', #302, 1.100000000000000089 ) ;
#429 = DIRECTION ( 'NONE',  ( 0.000000000000000000, 0.000000000000000000, 1.000000000000000000 ) ) ;
#430 = EDGE_CURVE ( 'NONE', #340, #450, #604, .T. ) ;
#431 = CARTESIAN_POINT ( 'NONE',  ( 0.000000000000000000, 17.00000000000000000, 7.000000000000000000 ) ) ;
#432 = APPROVAL_PERSON_ORGANIZATION ( #415, #811, #307 ) ;
#433 = LINE ( 'NONE', #115, #790 ) ;
#434 = VECTOR ( 'NONE', #359, 1000.000000000000000 ) ;
#435 = CARTESIAN_POINT ( 'NONE',  ( -14.00000000000000000, 0.000000000000000000, 0.000000000000000000 ) ) ;
#436 = CARTESIAN_POINT ( 'NONE',  ( -1.100000000000000089, 14.00000000000000000, 6.999999999999999112 ) ) ;
#437 = EDGE_CURVE ( 'NONE', #101, #72, #175, .T. ) ;
#438 = EDGE_CURVE ( 'NONE', #543, #205, #167, .T. ) ;
#439 = FACE_OUTER_BOUND ( 'NONE', #520, .T. ) ;
#440 = DIRECTION ( 'NONE',  ( 0.000000000000000000, 0.000000000000000000, -1.000000000000000000 ) ) ;
#441 = DATE_AND_TIME ( #688, #295 ) ;
#442 = CIRCLE ( 'NONE', #403, 17.00000000000000000 ) ;
#443 = CARTESIAN_POINT ( 'NONE',  ( 0.000000000000000000, 0.000000000000000000, 4.000000000000000000 ) ) ;
#444 = DIRECTION ( 'NONE',  ( -0.000000000000000000, -0.000000000000000000, -1.000000000000000000 ) ) ;
#445 = PERSON_AND_ORGANIZATION ( #76, #185 ) ;
#446 = ORIENTED_EDGE ( 'NONE', *, *, #95, .T. ) ;
#447 = AXIS2_PLACEMENT_3D ( 'NONE', #537, #784, #522 ) ;
#448 = CARTESIAN_POINT ( 'NONE',  ( 37.59999999999999432, 18.00000000000000000, 0.000000000000000000 ) ) ;
#449 = DIRECTION ( 'NONE',  ( -0.000000000000000000, -0.000000000000000000, -1.000000000000000000 ) ) ;
#450 = VERTEX_POINT ( 'NONE', #558 ) ;
#451 = ORIENTED_EDGE ( 'NONE', *, *, #474, .F. ) ;
#452 = DIRECTION ( 'NONE',  ( 1.000000000000000000, 0.000000000000000000, -0.000000000000000000 ) ) ;
#453 = FACE_BOUND ( 'NONE', #20, .T. ) ;
#454 = EDGE_LOOP ( 'NONE', ( #656, #97, #387, #532, #605, #269 ) ) ;
#455 = CC_DESIGN_PERSON_AND_ORGANIZATION_ASSIGNMENT ( #745, #425, ( #53 ) ) ;
#456 = EDGE_LOOP ( 'NONE', ( #391, #384, #42, #666 ) ) ;
#457 = LINE ( 'NONE', #533, #194 ) ;
#458 = CYLINDRICAL_SURFACE ( 'NONE', #241, 1.100000000000000089 ) ;
#459 = ORIENTED_EDGE ( 'NONE', *, *, #499, .F. ) ;
#460 = CC_DESIGN_APPROVAL ( #18, ( #727 ) ) ;
#461 = AXIS2_PLACEMENT_3D ( 'NONE', #229, #429, #479 ) ;
#462 = ORIENTED_EDGE ( 'NONE', *, *, #499, .T. ) ;
#463 = FACE_OUTER_BOUND ( 'NONE', #199, .T. ) ;
#464 = DIRECTION ( 'NONE',  ( 0.000000000000000000, 0.000000000000000000, 1.000000000000000000 ) ) ;
#465 = EDGE_LOOP ( 'NONE', ( #699, #225 ) ) ;
#466 = ADVANCED_FACE ( 'NONE', ( #667 ), #303, .F. ) ;
#467 = ORIENTED_EDGE ( 'NONE', *, *, #29, .T. ) ;
#468 = ADVANCED_FACE ( 'NONE', ( #679 ), #743, .F. ) ;
#469 = DIRECTION ( 'NONE',  ( 0.000000000000000000, -0.000000000000000000, 1.000000000000000000 ) ) ;
#470 = CIRCLE ( 'NONE', #114, 17.00000000000000000 ) ;
#471 = ORIENTED_EDGE ( 'NONE', *, *, #55, .F. ) ;
#472 = CARTESIAN_POINT ( 'NONE',  ( 42.00000000000000000, 22.00000000000000000, 4.000000000000000000 ) ) ;
#473 = LINE ( 'NONE', #788, #163 ) ;
#474 = EDGE_CURVE ( 'NONE', #763, #326, #816, .T. ) ;
#475 = ORIENTED_EDGE ( 'NONE', *, *, #590, .F. ) ;
#476 = DIRECTION ( 'NONE',  ( 0.000000000000000000, -1.000000000000000000, 0.000000000000000000 ) ) ;
#477 = CIRCLE ( 'NONE', #57, 1.599999999999997202 ) ;
#478 = VERTEX_POINT ( 'NONE', #810 ) ;
#479 = DIRECTION ( 'NONE',  ( 1.000000000000000000, 0.000000000000000000, 0.000000000000000000 ) ) ;
#480 = COORDINATED_UNIVERSAL_TIME_OFFSET ( 6, 0, .BEHIND. ) ;
#481 = CC_DESIGN_DATE_AND_TIME_ASSIGNMENT ( #616, #740, ( #727 ) ) ;
#482 = EDGE_LOOP ( 'NONE', ( #160, #176, #777, #652 ) ) ;
#483 = CARTESIAN_POINT ( 'NONE',  ( 0.000000000000000000, -22.00000000000000000, 4.000000000000000000 ) ) ;
#484 = CARTESIAN_POINT ( 'NONE',  ( 36.00000000000000000, 18.00000000000000000, 4.000000000000000000 ) ) ;
#485 = APPROVAL_STATUS ( 'not_yet_approved' ) ;
#486 = EDGE_LOOP ( 'NONE', ( #195, #801, #789, #507 ) ) ;
#487 = CARTESIAN_POINT ( 'NONE',  ( 34.39999999999999858, -18.00000000000000000, 4.000000000000000000 ) ) ;
#488 = CARTESIAN_POINT ( 'NONE',  ( 34.39999999999999858, 18.00000000000000000, 4.000000000000000000 ) ) ;
#489 = AXIS2_PLACEMENT_3D ( 'NONE', #588, #776, #780 ) ;
#490 = ORIENTED_EDGE ( 'NONE', *, *, #402, .T. ) ;
#491 = CARTESIAN_POINT ( 'NONE',  ( 36.00000000000000000, 18.00000000000000000, 6.999999999999999112 ) ) ;
#492 = EDGE_CURVE ( 'NONE', #205, #550, #245, .T. ) ;
#493 = DIRECTION ( 'NONE',  ( -0.000000000000000000, -0.000000000000000000, 1.000000000000000000 ) ) ;
#494 = CARTESIAN_POINT ( 'NONE',  ( 37.59999999999999432, -18.00000000000000000, 6.999999999999999112 ) ) ;
#495 = CALENDAR_DATE ( 2026, 7, 9 ) ;
#496 = PLANE ( 'NONE',  #593 ) ;
#497 = CIRCLE ( 'NONE', #530, 1.100000000000000311 ) ;
#498 = DIRECTION ( 'NONE',  ( -0.000000000000000000, -0.000000000000000000, 1.000000000000000000 ) ) ;
#499 = EDGE_CURVE ( 'NONE', #326, #763, #213, .T. ) ;
#500 = EDGE_CURVE ( 'NONE', #599, #364, #630, .T. ) ;
#501 = CARTESIAN_POINT ( 'NONE',  ( 42.00000000000000000, -22.00000000000000000, 4.000000000000000000 ) ) ;
#502 = CARTESIAN_POINT ( 'NONE',  ( 0.000000000000000000, 0.000000000000000000, 0.000000000000000000 ) ) ;
#503 = APPROVAL_DATE_TIME ( #441, #291 ) ;
#504 = AXIS2_PLACEMENT_3D ( 'NONE', #127, #505, #323 ) ;
#505 = DIRECTION ( 'NONE',  ( 0.000000000000000000, 0.000000000000000000, 1.000000000000000000 ) ) ;
#506 = LINE ( 'NONE', #436, #165 ) ;
#507 = ORIENTED_EDGE ( 'NONE', *, *, #149, .T. ) ;
#508 = VECTOR ( 'NONE', #91, 1000.000000000000000 ) ;
#509 = LINE ( 'NONE', #196, #325 ) ;
#510 = CARTESIAN_POINT ( 'NONE',  ( 0.000000000000000000, -22.00000000000000000, 0.000000000000000000 ) ) ;
#511 = ORIENTED_EDGE ( 'NONE', *, *, #95, .F. ) ;
#512 = AXIS2_PLACEMENT_3D ( 'NONE', #386, #643, #17 ) ;
#513 = ORIENTED_EDGE ( 'NONE', *, *, #758, .F. ) ;
#514 = DIRECTION ( 'NONE',  ( -1.000000000000000000, 0.000000000000000000, 0.000000000000000000 ) ) ;
#515 = CIRCLE ( 'NONE', #270, 1.599999999999997202 ) ;
#516 = FACE_OUTER_BOUND ( 'NONE', #711, .T. ) ;
#517 = EDGE_CURVE ( 'NONE', #608, #140, #807, .T. ) ;
#518 = EDGE_LOOP ( 'NONE', ( #459, #451 ) ) ;
#519 = ADVANCED_BREP_SHAPE_REPRESENTATION ( 'ARM-105_Shoulder_bearing_cheek', ( #753, #418 ), #715 ) ;
#520 = EDGE_LOOP ( 'NONE', ( #332, #717, #301, #467, #170, #528, #380 ) ) ;
#521 = PLANE ( 'NONE',  #526 ) ;
#522 = DIRECTION ( 'NONE',  ( -1.000000000000000000, 0.000000000000000000, 0.000000000000000000 ) ) ;
#523 = ORIENTED_EDGE ( 'NONE', *, *, #626, .T. ) ;
#524 = ORIENTED_EDGE ( 'NONE', *, *, #373, .F. ) ;
#525 = CARTESIAN_POINT ( 'NONE',  ( -11.09999999999999964, 0.000000000000000000, 7.000000000000000000 ) ) ;
#526 = AXIS2_PLACEMENT_3D ( 'NONE', #653, #145, #452 ) ;
#527 = DIRECTION ( 'NONE',  ( 0.000000000000000000, 0.000000000000000000, -1.000000000000000000 ) ) ;
#528 = ORIENTED_EDGE ( 'NONE', *, *, #390, .T. ) ;
#529 = EDGE_CURVE ( 'NONE', #280, #228, #89, .T. ) ;
#530 = AXIS2_PLACEMENT_3D ( 'NONE', #119, #354, #417 ) ;
#531 = EDGE_CURVE ( 'NONE', #112, #280, #243, .T. ) ;
#532 = ORIENTED_EDGE ( 'NONE', *, *, #610, .F. ) ;
#533 = CARTESIAN_POINT ( 'NONE',  ( -12.90000000000000036, 1.347111479062088503E-16, 6.999999999999999112 ) ) ;
#534 = CYLINDRICAL_SURFACE ( 'NONE', #556, 1.100000000000000089 ) ;
#535 = EDGE_LOOP ( 'NONE', ( #708, #714 ) ) ;
#536 = CARTESIAN_POINT ( 'NONE',  ( 0.000000000000000000, 0.000000000000000000, 7.000000000000000000 ) ) ;
#537 = CARTESIAN_POINT ( 'NONE',  ( 0.000000000000000000, 14.00000000000000000, 6.999999999999999112 ) ) ;
#538 = VECTOR ( 'NONE', #62, 1000.000000000000000 ) ;
#539 = VERTEX_POINT ( 'NONE', #669 ) ;
#540 = FACE_OUTER_BOUND ( 'NONE', #591, .T. ) ;
#541 = CIRCLE ( 'NONE', #184, 17.00000000000000000 ) ;
#542 = SECURITY_CLASSIFICATION ( '', '', #137 ) ;
#543 = VERTEX_POINT ( 'NONE', #675 ) ;
#544 = DIRECTION ( 'NONE',  ( -0.000000000000000000, -0.000000000000000000, 1.000000000000000000 ) ) ;
#545 = PRODUCT_RELATED_PRODUCT_CATEGORY ( 'detail', '', ( #53 ) ) ;
#546 = VECTOR ( 'NONE', #755, 1000.000000000000000 ) ;
#547 = ORIENTED_EDGE ( 'NONE', *, *, #259, .T. ) ;
#548 = DIRECTION ( 'NONE',  ( -1.000000000000000000, 0.000000000000000000, 0.000000000000000000 ) ) ;
#549 = VECTOR ( 'NONE', #169, 1000.000000000000000 ) ;
#550 = VERTEX_POINT ( 'NONE', #358 ) ;
#551 = CARTESIAN_POINT ( 'NONE',  ( 0.000000000000000000, 14.00000000000000000, 6.999999999999999112 ) ) ;
#552 = DIRECTION ( 'NONE',  ( 0.000000000000000000, 0.000000000000000000, 1.000000000000000000 ) ) ;
#553 = EDGE_CURVE ( 'NONE', #211, #781, #654, .T. ) ;
#554 = ORIENTED_EDGE ( 'NONE', *, *, #563, .T. ) ;
#555 = DIRECTION ( 'NONE',  ( 1.000000000000000000, 0.000000000000000000, 0.000000000000000000 ) ) ;
#556 = AXIS2_PLACEMENT_3D ( 'NONE', #346, #527, #289 ) ;
#557 = CIRCLE ( 'NONE', #582, 1.599999999999997202 ) ;
#558 = CARTESIAN_POINT ( 'NONE',  ( 0.000000000000000000, -17.00000000000000000, 4.000000000000000000 ) ) ;
#559 = DIRECTION ( 'NONE',  ( -0.000000000000000000, -0.000000000000000000, -1.000000000000000000 ) ) ;
#560 = CARTESIAN_POINT ( 'NONE',  ( 0.000000000000000000, 17.00000000000000000, 4.000000000000000000 ) ) ;
#561 = ADVANCED_FACE ( 'NONE', ( #760, #564, #439 ), #60, .F. ) ;
#562 = FACE_OUTER_BOUND ( 'NONE', #131, .T. ) ;
#563 = EDGE_CURVE ( 'NONE', #211, #798, #129, .T. ) ;
#564 = FACE_BOUND ( 'NONE', #204, .T. ) ;
#565 = LOCAL_TIME ( 16, 13, 53.00000000000000000, #748 ) ;
#566 = AXIS2_PLACEMENT_3D ( 'NONE', #551, #238, #618 ) ;
#567 = FACE_OUTER_BOUND ( 'NONE', #331, .T. ) ;
#568 = PERSON_AND_ORGANIZATION_ROLE ( 'creator' ) ;
#569 = DIRECTION ( 'NONE',  ( 0.000000000000000000, 0.000000000000000000, 1.000000000000000000 ) ) ;
#570 = DIRECTION ( 'NONE',  ( 0.000000000000000000, 0.000000000000000000, -1.000000000000000000 ) ) ;
#571 = AXIS2_PLACEMENT_3D ( 'NONE', #609, #47, #186 ) ;
#572 = DIRECTION ( 'NONE',  ( 0.000000000000000000, 0.000000000000000000, -1.000000000000000000 ) ) ;
#573 = DIRECTION ( 'NONE',  ( -0.000000000000000000, -0.000000000000000000, -1.000000000000000000 ) ) ;
#574 = ORIENTED_EDGE ( 'NONE', *, *, #179, .T. ) ;
#575 = ADVANCED_FACE ( 'NONE', ( #67 ), #2, .T. ) ;
#576 = CARTESIAN_POINT ( 'NONE',  ( 0.000000000000000000, 0.000000000000000000, 7.000000000000000000 ) ) ;
#577 = FACE_BOUND ( 'NONE', #518, .T. ) ;
#578 = CARTESIAN_POINT ( 'NONE',  ( 42.00000000000000000, -22.00000000000000000, 4.000000000000000000 ) ) ;
#579 = ORIENTED_EDGE ( 'NONE', *, *, #690, .F. ) ;
#580 = ORIENTED_EDGE ( 'NONE', *, *, #797, .T. ) ;
#581 = FACE_OUTER_BOUND ( 'NONE', #596, .T. ) ;
#582 = AXIS2_PLACEMENT_3D ( 'NONE', #633, #573, #3 ) ;
#583 = FACE_OUTER_BOUND ( 'NONE', #271, .T. ) ;
#584 = EDGE_LOOP ( 'NONE', ( #282, #15, #647, #290 ) ) ;
#585 = ORIENTED_EDGE ( 'NONE', *, *, #390, .F. ) ;
#586 = CARTESIAN_POINT ( 'NONE',  ( 1.100000000000000089, 14.00000000000000000, 6.999999999999999112 ) ) ;
#587 = EDGE_CURVE ( 'NONE', #770, #118, #509, .T. ) ;
#588 = CARTESIAN_POINT ( 'NONE',  ( 0.000000000000000000, -14.00000000000000000, 6.999999999999999112 ) ) ;
#589 = ORIENTED_EDGE ( 'NONE', *, *, #39, .F. ) ;
#590 = EDGE_CURVE ( 'NONE', #413, #228, #121, .T. ) ;
#591 = EDGE_LOOP ( 'NONE', ( #644, #746, #422, #304 ) ) ;
#592 = CARTESIAN_POINT ( 'NONE',  ( -1.100000000000000089, -14.00000000000000000, 6.999999999999999112 ) ) ;
#593 = AXIS2_PLACEMENT_3D ( 'NONE', #6, #327, #9 ) ;
#594 = DIRECTION ( 'NONE',  ( 0.000000000000000000, 0.000000000000000000, -1.000000000000000000 ) ) ;
#595 = VECTOR ( 'NONE', #726, 1000.000000000000000 ) ;
#596 = EDGE_LOOP ( 'NONE', ( #236, #293 ) ) ;
#597 = CYLINDRICAL_SURFACE ( 'NONE', #764, 1.100000000000000311 ) ;
#598 = CARTESIAN_POINT ( 'NONE',  ( -14.00000000000000000, 0.000000000000000000, 6.999999999999999112 ) ) ;
#599 = VERTEX_POINT ( 'NONE', #448 ) ;
#600 = DIRECTION ( 'NONE',  ( 0.000000000000000000, 0.000000000000000000, 1.000000000000000000 ) ) ;
#601 = ORIENTED_EDGE ( 'NONE', *, *, #437, .F. ) ;
#602 = CARTESIAN_POINT ( 'NONE',  ( 36.00000000000000000, 18.00000000000000000, 4.000000000000000000 ) ) ;
#603 = LOCAL_TIME ( 16, 13, 53.00000000000000000, #256 ) ;
#604 = CIRCLE ( 'NONE', #66, 17.00000000000000000 ) ;
#605 = ORIENTED_EDGE ( 'NONE', *, *, #611, .T. ) ;
#606 = CARTESIAN_POINT ( 'NONE',  ( 42.00000000000000000, -22.00000000000000000, 4.000000000000000000 ) ) ;
#607 = LINE ( 'NONE', #687, #795 ) ;
#608 = VERTEX_POINT ( 'NONE', #765 ) ;
#609 = CARTESIAN_POINT ( 'NONE',  ( 0.000000000000000000, -14.00000000000000000, 6.999999999999999112 ) ) ;
#610 = EDGE_CURVE ( 'NONE', #773, #673, #367, .T. ) ;
#611 = EDGE_CURVE ( 'NONE', #773, #360, #470, .T. ) ;
#612 = VECTOR ( 'NONE', #369, 1000.000000000000000 ) ;
#613 = ORIENTED_EDGE ( 'NONE', *, *, #786, .F. ) ;
#614 = DIRECTION ( 'NONE',  ( -0.000000000000000000, -0.000000000000000000, -1.000000000000000000 ) ) ;
#615 = CARTESIAN_POINT ( 'NONE',  ( 36.00000000000000000, 18.00000000000000000, 6.999999999999999112 ) ) ;
#616 = DATE_AND_TIME ( #495, #565 ) ;
#617 = ORIENTED_EDGE ( 'NONE', *, *, #709, .T. ) ;
#618 = DIRECTION ( 'NONE',  ( 1.000000000000000000, 0.000000000000000000, 0.000000000000000000 ) ) ;
#619 = APPROVAL_ROLE ( '' ) ;
#620 = CIRCLE ( 'NONE', #377, 17.00000000000000000 ) ;
#621 = AXIS2_PLACEMENT_3D ( 'NONE', #638, #814, #71 ) ;
#622 = DIRECTION ( 'NONE',  ( -1.000000000000000000, 0.000000000000000000, 0.000000000000000000 ) ) ;
#623 = CARTESIAN_POINT ( 'NONE',  ( 37.59999999999999432, -18.00000000000000000, 4.000000000000000000 ) ) ;
#624 = SHAPE_DEFINITION_REPRESENTATION ( #424, #519 ) ;
#625 = DIRECTION ( 'NONE',  ( -0.000000000000000000, -0.000000000000000000, -1.000000000000000000 ) ) ;
#626 = EDGE_CURVE ( 'NONE', #221, #539, #428, .T. ) ;
#627 = CARTESIAN_POINT ( 'NONE',  ( 11.09999999999999964, 1.359357947053562156E-15, 0.000000000000000000 ) ) ;
#628 = AXIS2_PLACEMENT_3D ( 'NONE', #400, #212, #202 ) ;
#629 = DIRECTION ( 'NONE',  ( -0.000000000000000000, -0.000000000000000000, -1.000000000000000000 ) ) ;
#630 = CIRCLE ( 'NONE', #155, 1.599999999999997202 ) ;
#631 = CARTESIAN_POINT ( 'NONE',  ( 42.00000000000000000, -22.00000000000000000, 0.000000000000000000 ) ) ;
#632 = DIRECTION ( 'NONE',  ( 1.000000000000000000, 0.000000000000000000, 0.000000000000000000 ) ) ;
#633 = CARTESIAN_POINT ( 'NONE',  ( 36.00000000000000000, 18.00000000000000000, 0.000000000000000000 ) ) ;
#634 = ORIENTED_EDGE ( 'NONE', *, *, #227, .T. ) ;
#635 = EDGE_CURVE ( 'NONE', #383, #478, #48, .T. ) ;
#636 = FACE_OUTER_BOUND ( 'NONE', #201, .T. ) ;
#637 = CARTESIAN_POINT ( 'NONE',  ( 0.000000000000000000, -22.00000000000000000, 4.000000000000000000 ) ) ;
#638 = CARTESIAN_POINT ( 'NONE',  ( 36.00000000000000000, -18.00000000000000000, 6.999999999999999112 ) ) ;
#639 = PERSON_AND_ORGANIZATION_ROLE ( 'classification_officer' ) ;
#640 = ORIENTED_EDGE ( 'NONE', *, *, #276, .T. ) ;
#641 = ORIENTED_EDGE ( 'NONE', *, *, #492, .T. ) ;
#642 = CARTESIAN_POINT ( 'NONE',  ( 0.000000000000000000, 22.00000000000000000, 4.000000000000000000 ) ) ;
#643 = DIRECTION ( 'NONE',  ( 0.000000000000000000, 0.000000000000000000, 1.000000000000000000 ) ) ;
#644 = ORIENTED_EDGE ( 'NONE', *, *, #209, .T. ) ;
#645 = APPROVAL_PERSON_ORGANIZATION ( #120, #18, #619 ) ;
#646 = EDGE_CURVE ( 'NONE', #427, #208, #398, .T. ) ;
#647 = ORIENTED_EDGE ( 'NONE', *, *, #500, .T. ) ;
#648 = FACE_BOUND ( 'NONE', #156, .T. ) ;
#649 = ADVANCED_FACE ( 'NONE', ( #636 ), #314, .F. ) ;
#650 = DIRECTION ( 'NONE',  ( 1.000000000000000000, 0.000000000000000000, 0.000000000000000000 ) ) ;
#651 = ORIENTED_EDGE ( 'NONE', *, *, #611, .F. ) ;
#652 = ORIENTED_EDGE ( 'NONE', *, *, #152, .T. ) ;
#653 = CARTESIAN_POINT ( 'NONE',  ( 0.000000000000000000, 0.000000000000000000, 7.000000000000000000 ) ) ;
#654 = CIRCLE ( 'NONE', #571, 1.100000000000000089 ) ;
#655 = FACE_OUTER_BOUND ( 'NONE', #658, .T. ) ;
#656 = ORIENTED_EDGE ( 'NONE', *, *, #235, .F. ) ;
#657 = ADVANCED_FACE ( 'NONE', ( #813 ), #252, .F. ) ;
#658 = EDGE_LOOP ( 'NONE', ( #640, #554, #352, #471 ) ) ;
#659 = DIRECTION ( 'NONE',  ( -0.000000000000000000, -0.000000000000000000, -1.000000000000000000 ) ) ;
#660 = AXIS2_PLACEMENT_3D ( 'NONE', #637, #337, #712 ) ;
#661 = DIRECTION ( 'NONE',  ( -1.000000000000000000, 0.000000000000000000, 0.000000000000000000 ) ) ;
#662 = CIRCLE ( 'NONE', #512, 11.09999999999999964 ) ;
#663 = ORIENTED_EDGE ( 'NONE', *, *, #55, .T. ) ;
#664 = DIRECTION ( 'NONE',  ( 1.000000000000000000, 0.000000000000000000, 0.000000000000000000 ) ) ;
#665 = CC_DESIGN_DATE_AND_TIME_ASSIGNMENT ( #124, #12, ( #542 ) ) ;
#666 = ORIENTED_EDGE ( 'NONE', *, *, #259, .F. ) ;
#667 = FACE_OUTER_BOUND ( 'NONE', #584, .T. ) ;
#668 = EDGE_LOOP ( 'NONE', ( #462, #4, #523, #150 ) ) ;
#669 = CARTESIAN_POINT ( 'NONE',  ( -1.100000000000000089, 14.00000000000000000, 0.000000000000000000 ) ) ;
#670 = DIRECTION ( 'NONE',  ( -1.000000000000000000, 0.000000000000000000, 0.000000000000000000 ) ) ;
#671 = COORDINATED_UNIVERSAL_TIME_OFFSET ( 6, 0, .BEHIND. ) ;
#672 = VECTOR ( 'NONE', #351, 1000.000000000000000 ) ;
#673 = VERTEX_POINT ( 'NONE', #560 ) ;
#674 = EDGE_CURVE ( 'NONE', #673, #340, #442, .T. ) ;
#675 = CARTESIAN_POINT ( 'NONE',  ( 0.000000000000000000, -17.00000000000000000, 0.000000000000000000 ) ) ;
#676 = ADVANCED_FACE ( 'NONE', ( #754 ), #496, .F. ) ;
#677 = DIRECTION ( 'NONE',  ( -1.000000000000000000, 0.000000000000000000, 0.000000000000000000 ) ) ;
#678 = ORIENTED_EDGE ( 'NONE', *, *, #531, .F. ) ;
#679 = FACE_OUTER_BOUND ( 'NONE', #482, .T. ) ;
#680 = DIRECTION ( 'NONE',  ( 0.000000000000000000, 0.000000000000000000, -1.000000000000000000 ) ) ;
#681 = ADVANCED_FACE ( 'NONE', ( #749 ), #183, .T. ) ;
#682 = ORIENTED_EDGE ( 'NONE', *, *, #690, .T. ) ;
#683 = DIRECTION ( 'NONE',  ( 0.000000000000000000, 0.000000000000000000, -1.000000000000000000 ) ) ;
#684 = APPLICATION_PROTOCOL_DEFINITION ( 'international standard', 'config_control_design', 1994, #35 ) ;
#685 = CIRCLE ( 'NONE', #330, 1.599999999999997202 ) ;
#686 = CARTESIAN_POINT ( 'NONE',  ( 0.000000000000000000, 0.000000000000000000, 7.000000000000000000 ) ) ;
#687 = CARTESIAN_POINT ( 'NONE',  ( -1.100000000000000089, -14.00000000000000000, 6.999999999999999112 ) ) ;
#688 = CALENDAR_DATE ( 2026, 7, 9 ) ;
#689 = AXIS2_PLACEMENT_3D ( 'NONE', #615, #680, #677 ) ;
#690 = EDGE_CURVE ( 'NONE', #296, #216, #52, .T. ) ;
#691 = CARTESIAN_POINT ( 'NONE',  ( 1.100000000000000089, -14.00000000000000000, 6.999999999999999112 ) ) ;
#692 = CARTESIAN_POINT ( 'NONE',  ( 0.000000000000000000, -22.00000000000000000, 4.000000000000000000 ) ) ;
#693 = DIRECTION ( 'NONE',  ( -1.000000000000000000, 0.000000000000000000, -0.000000000000000000 ) ) ;
#694 = DIRECTION ( 'NONE',  ( -1.000000000000000000, -0.000000000000000000, -0.000000000000000000 ) ) ;
#695 = EDGE_LOOP ( 'NONE', ( #641, #77, #242, #85 ) ) ;
#696 = CARTESIAN_POINT ( 'NONE',  ( 0.000000000000000000, 0.000000000000000000, 7.000000000000000000 ) ) ;
#697 = FACE_BOUND ( 'NONE', #465, .T. ) ;
#698 = ADVANCED_FACE ( 'NONE', ( #10 ), #597, .F. ) ;
#699 = ORIENTED_EDGE ( 'NONE', *, *, #218, .F. ) ;
#700 = CIRCLE ( 'NONE', #419, 1.100000000000000089 ) ;
#701 = DIRECTION ( 'NONE',  ( 0.000000000000000000, 0.000000000000000000, 1.000000000000000000 ) ) ;
#702 = CARTESIAN_POINT ( 'NONE',  ( 34.39999999999999858, 18.00000000000000000, 6.999999999999999112 ) ) ;
#703 = APPROVAL_DATE_TIME ( #421, #811 ) ;
#704 = VERTEX_POINT ( 'NONE', #525 ) ;
#705 = ORIENTED_EDGE ( 'NONE', *, *, #355, .T. ) ;
#706 = LINE ( 'NONE', #586, #343 ) ;
#707 = PLANE ( 'NONE',  #768 ) ;
#708 = ORIENTED_EDGE ( 'NONE', *, *, #149, .F. ) ;
#709 = EDGE_CURVE ( 'NONE', #704, #350, #305, .T. ) ;
#710 = ADVANCED_FACE ( 'NONE', ( #648, #265, #577, #581, #74 ), #521, .T. ) ;
#711 = EDGE_LOOP ( 'NONE', ( #678, #574, #143, #258 ) ) ;
#712 = DIRECTION ( 'NONE',  ( 0.000000000000000000, 0.000000000000000000, -1.000000000000000000 ) ) ;
#713 = DIRECTION ( 'NONE',  ( 0.000000000000000000, 0.000000000000000000, -1.000000000000000000 ) ) ;
#714 = ORIENTED_EDGE ( 'NONE', *, *, #500, .F. ) ;
#715 =( GEOMETRIC_REPRESENTATION_CONTEXT ( 3 ) GLOBAL_UNCERTAINTY_ASSIGNED_CONTEXT ( ( #164 ) ) GLOBAL_UNIT_ASSIGNED_CONTEXT ( ( #278, #217, #157 ) ) REPRESENTATION_CONTEXT ( 'NONE', 'WORKASPACE' ) );
#716 = AXIS2_PLACEMENT_3D ( 'NONE', #491, #56, #548 ) ;
#717 = ORIENTED_EDGE ( 'NONE', *, *, #674, .T. ) ;
#718 = DIRECTION ( 'NONE',  ( 0.000000000000000000, 0.000000000000000000, -1.000000000000000000 ) ) ;
#719 = DIRECTION ( 'NONE',  ( 1.000000000000000000, 0.000000000000000000, 0.000000000000000000 ) ) ;
#720 = ORIENTED_EDGE ( 'NONE', *, *, #553, .T. ) ;
#721 = ORIENTED_EDGE ( 'NONE', *, *, #322, .T. ) ;
#722 = AXIS2_PLACEMENT_3D ( 'NONE', #696, #625, #135 ) ;
#723 = CARTESIAN_POINT ( 'NONE',  ( 0.000000000000000000, -14.00000000000000000, 6.999999999999999112 ) ) ;
#724 = ORIENTED_EDGE ( 'NONE', *, *, #179, .F. ) ;
#725 = PLANE ( 'NONE',  #660 ) ;
#726 = DIRECTION ( 'NONE',  ( -0.000000000000000000, -0.000000000000000000, -1.000000000000000000 ) ) ;
#727 = PRODUCT_DEFINITION ( 'UNKNOWN', '', #792, #36 ) ;
#728 = AXIS2_PLACEMENT_3D ( 'NONE', #197, #449, #130 ) ;
#729 = ORIENTED_EDGE ( 'NONE', *, *, #438, .F. ) ;
#730 = CARTESIAN_POINT ( 'NONE',  ( 0.000000000000000000, 0.000000000000000000, 7.000000000000000000 ) ) ;
#731 = VECTOR ( 'NONE', #570, 1000.000000000000000 ) ;
#732 = VERTEX_POINT ( 'NONE', #775 ) ;
#733 = DIRECTION ( 'NONE',  ( 1.000000000000000000, 0.000000000000000000, 0.000000000000000000 ) ) ;
#734 = CALENDAR_DATE ( 2026, 7, 9 ) ;
#735 = EDGE_CURVE ( 'NONE', #103, #216, #457, .T. ) ;
#736 = ADVANCED_FACE ( 'NONE', ( #463 ), #725, .F. ) ;
#737 = ORIENTED_EDGE ( 'NONE', *, *, #709, .F. ) ;
#738 = DIRECTION ( 'NONE',  ( 1.000000000000000000, 0.000000000000000000, 0.000000000000000000 ) ) ;
#739 = AXIS2_PLACEMENT_3D ( 'NONE', #435, #161, #345 ) ;
#740 = DATE_TIME_ROLE ( 'creation_date' ) ;
#741 = AXIS2_PLACEMENT_3D ( 'NONE', #226, #476, #87 ) ;
#742 = ORIENTED_EDGE ( 'NONE', *, *, #438, .T. ) ;
#743 = CYLINDRICAL_SURFACE ( 'NONE', #251, 1.100000000000000089 ) ;
#744 = DIRECTION ( 'NONE',  ( 1.000000000000000000, 0.000000000000000000, 0.000000000000000000 ) ) ;
#745 = PERSON_AND_ORGANIZATION ( #76, #185 ) ;
#746 = ORIENTED_EDGE ( 'NONE', *, *, #587, .F. ) ;
#747 = DIRECTION ( 'NONE',  ( 0.000000000000000000, 0.000000000000000000, -1.000000000000000000 ) ) ;
#748 = COORDINATED_UNIVERSAL_TIME_OFFSET ( 6, 0, .BEHIND. ) ;
#749 = FACE_OUTER_BOUND ( 'NONE', #454, .T. ) ;
#750 = CC_DESIGN_PERSON_AND_ORGANIZATION_ASSIGNMENT ( #193, #69, ( #792 ) ) ;
#751 = DIRECTION ( 'NONE',  ( -0.000000000000000000, -0.000000000000000000, -1.000000000000000000 ) ) ;
#752 = DIRECTION ( 'NONE',  ( -1.000000000000000000, 0.000000000000000000, 0.000000000000000000 ) ) ;
#753 = MANIFOLD_SOLID_BREP ( 'Bearing_keeper_fasteners', #224 ) ;
#754 = FACE_OUTER_BOUND ( 'NONE', #774, .T. ) ;
#755 = DIRECTION ( 'NONE',  ( 0.000000000000000000, 0.000000000000000000, -1.000000000000000000 ) ) ;
#756 = CALENDAR_DATE ( 2026, 7, 9 ) ;
#757 = AXIS2_PLACEMENT_3D ( 'NONE', #70, #569, #254 ) ;
#758 = EDGE_CURVE ( 'NONE', #732, #90, #31, .T. ) ;
#759 = ADVANCED_FACE ( 'NONE', ( #385 ), #779, .F. ) ;
#760 = FACE_BOUND ( 'NONE', #397, .T. ) ;
#761 = CYLINDRICAL_SURFACE ( 'NONE', #308, 1.599999999999997202 ) ;
#762 = PERSON_AND_ORGANIZATION ( #76, #185 ) ;
#763 = VERTEX_POINT ( 'NONE', #771 ) ;
#764 = AXIS2_PLACEMENT_3D ( 'NONE', #16, #86, #283 ) ;
#765 = CARTESIAN_POINT ( 'NONE',  ( 0.000000000000000000, -22.00000000000000000, 4.000000000000000000 ) ) ;
#766 = LINE ( 'NONE', #192, #806 ) ;
#767 = ORIENTED_EDGE ( 'NONE', *, *, #1, .F. ) ;
#768 = AXIS2_PLACEMENT_3D ( 'NONE', #502, #374, #133 ) ;
#769 = CIRCLE ( 'NONE', #84, 1.100000000000000311 ) ;
#770 = VERTEX_POINT ( 'NONE', #642 ) ;
#771 = CARTESIAN_POINT ( 'NONE',  ( 1.100000000000000089, 14.00000000000000000, 6.999999999999999112 ) ) ;
#772 = DIRECTION ( 'NONE',  ( 0.000000000000000000, 0.000000000000000000, -1.000000000000000000 ) ) ;
#773 = VERTEX_POINT ( 'NONE', #26 ) ;
#774 = EDGE_LOOP ( 'NONE', ( #634, #25, #231, #785 ) ) ;
#775 = CARTESIAN_POINT ( 'NONE',  ( 42.00000000000000000, 22.00000000000000000, 4.000000000000000000 ) ) ;
#776 = DIRECTION ( 'NONE',  ( 0.000000000000000000, 0.000000000000000000, 1.000000000000000000 ) ) ;
#777 = ORIENTED_EDGE ( 'NONE', *, *, #125, .T. ) ;
#778 = ORIENTED_EDGE ( 'NONE', *, *, #152, .F. ) ;
#779 = CYLINDRICAL_SURFACE ( 'NONE', #803, 11.09999999999999964 ) ;
#780 = DIRECTION ( 'NONE',  ( 1.000000000000000000, 0.000000000000000000, 0.000000000000000000 ) ) ;
#781 = VERTEX_POINT ( 'NONE', #592 ) ;
#782 = VECTOR ( 'NONE', #594, 1000.000000000000000 ) ;
#783 = ORIENTED_EDGE ( 'NONE', *, *, #531, .T. ) ;
#784 = DIRECTION ( 'NONE',  ( 0.000000000000000000, 0.000000000000000000, -1.000000000000000000 ) ) ;
#785 = ORIENTED_EDGE ( 'NONE', *, *, #587, .T. ) ;
#786 = EDGE_CURVE ( 'NONE', #798, #399, #171, .T. ) ;
#787 = AXIS2_PLACEMENT_3D ( 'NONE', #378, #189, #693 ) ;
#788 = CARTESIAN_POINT ( 'NONE',  ( -11.09999999999999964, 0.000000000000000000, 7.000000000000000000 ) ) ;
#789 = ORIENTED_EDGE ( 'NONE', *, *, #126, .T. ) ;
#790 = VECTOR ( 'NONE', #182, 1000.000000000000000 ) ;
#791 = PLANE ( 'NONE',  #741 ) ;
#792 = PRODUCT_DEFINITION_FORMATION_WITH_SPECIFIED_SOURCE ( 'ANY', '', #53, .NOT_KNOWN. ) ;
#793 = ORIENTED_EDGE ( 'NONE', *, *, #626, .F. ) ;
#794 = CARTESIAN_POINT ( 'NONE',  ( 0.000000000000000000, -22.00000000000000000, 0.000000000000000000 ) ) ;
#795 = VECTOR ( 'NONE', #812, 1000.000000000000000 ) ;
#796 = EDGE_CURVE ( 'NONE', #763, #221, #706, .T. ) ;
#797 = EDGE_CURVE ( 'NONE', #103, #404, #237, .T. ) ;
#798 = VERTEX_POINT ( 'NONE', #288 ) ;
#799 = DIRECTION ( 'NONE',  ( -1.000000000000000000, 0.000000000000000000, 0.000000000000000000 ) ) ;
#800 = LINE ( 'NONE', #233, #14 ) ;
#801 = ORIENTED_EDGE ( 'NONE', *, *, #1, .T. ) ;
#802 = LINE ( 'NONE', #43, #376 ) ;
#803 = AXIS2_PLACEMENT_3D ( 'NONE', #328, #333, #514 ) ;
#804 = DIRECTION ( 'NONE',  ( 1.000000000000000000, 0.000000000000000000, 0.000000000000000000 ) ) ;
#805 = EDGE_LOOP ( 'NONE', ( #335, #547 ) ) ;
#806 = VECTOR ( 'NONE', #694, 1000.000000000000000 ) ;
#807 = LINE ( 'NONE', #483, #5 ) ;
#808 = CARTESIAN_POINT ( 'NONE',  ( 37.59999999999999432, 18.00000000000000000, 4.000000000000000000 ) ) ;
#809 = APPLICATION_CONTEXT ( 'configuration controlled 3d designs of mechanical parts and assemblies' ) ;
#810 = CARTESIAN_POINT ( 'NONE',  ( 17.00000000000000000, 2.081899558550500280E-15, 7.000000000000000000 ) ) ;
#811 = APPROVAL ( #363, 'UNSPECIFIED' ) ;
#812 = DIRECTION ( 'NONE',  ( 0.000000000000000000, 0.000000000000000000, -1.000000000000000000 ) ) ;
#813 = FACE_OUTER_BOUND ( 'NONE', #456, .T. ) ;
#814 = DIRECTION ( 'NONE',  ( 0.000000000000000000, 0.000000000000000000, -1.000000000000000000 ) ) ;
#815 = CC_DESIGN_APPROVAL ( #811, ( #792 ) ) ;
#816 = CIRCLE ( 'NONE', #461, 1.100000000000000089 ) ;
#817 = DIRECTION ( 'NONE',  ( 0.000000000000000000, 0.000000000000000000, 1.000000000000000000 ) ) ;
#818 = DIRECTION ( 'NONE',  ( -1.000000000000000000, 0.000000000000000000, 0.000000000000000000 ) ) ;
#819 = EDGE_CURVE ( 'NONE', #608, #205, #80, .T. ) ;
ENDSEC;
END-ISO-10303-21;
