ISO-10303-21;
HEADER;
FILE_DESCRIPTION (( 'STEP AP203' ),
    '1' );
FILE_NAME ('ARM-003_Yaw_D_drive_collar.step',
    '2026-09-07T21:17:25',
    ( '' ),
    ( '' ),
    'SwSTEP 2.0',
    'SolidWorks 2026',
    '' );
FILE_SCHEMA (( 'CONFIG_CONTROL_DESIGN' ));
ENDSEC;

DATA;
#1 = EDGE_CURVE ( 'NONE', #297, #452, #114, .T. ) ;
#2 = CARTESIAN_POINT ( 'NONE',  ( -6.986875000000002167, 43.50000000000000000, 0.4284597231654372895 ) ) ;
#3 = DIRECTION ( 'NONE',  ( -1.000000000000000000, -0.000000000000000000, -0.000000000000000000 ) ) ;
#4 = CIRCLE ( 'NONE', #181, 1.100000000000000311 ) ;
#5 = CARTESIAN_POINT ( 'NONE',  ( -0.4284597231654372340, 43.50000000000000000, 6.986875000000002167 ) ) ;
#6 = CARTESIAN_POINT ( 'NONE',  ( 2.143131898507868297E-16, 43.00000000000000000, 1.750000000000000000 ) ) ;
#7 = EDGE_CURVE ( 'NONE', #957, #184, #71, .T. ) ;
#8 = AXIS2_PLACEMENT_3D ( 'NONE', #94, #332, #87 ) ;
#9 = DIRECTION ( 'NONE',  ( 0.000000000000000000, 1.000000000000000000, 0.000000000000000000 ) ) ;
#10 = VERTEX_POINT ( 'NONE', #460 ) ;
#11 = DIRECTION ( 'NONE',  ( 0.000000000000000000, -0.000000000000000000, 1.000000000000000000 ) ) ;
#12 = AXIS2_PLACEMENT_3D ( 'NONE', #156, #69, #925 ) ;
#13 = CYLINDRICAL_SURFACE ( 'NONE', #907, 4.049999999999999822 ) ;
#14 = APPROVAL_PERSON_ORGANIZATION ( #596, #231, #995 ) ;
#15 = ORIENTED_EDGE ( 'NONE', *, *, #17, .T. ) ;
#16 = CARTESIAN_POINT ( 'NONE',  ( 0.000000000000000000, 47.99999999999999289, 0.000000000000000000 ) ) ;
#17 = EDGE_CURVE ( 'NONE', #98, #560, #258, .T. ) ;
#18 = AXIS2_PLACEMENT_3D ( 'NONE', #414, #792, #502 ) ;
#19 = FACE_OUTER_BOUND ( 'NONE', #890, .T. ) ;
#20 = CARTESIAN_POINT ( 'NONE',  ( 0.000000000000000000, 40.00000000000000000, 0.000000000000000000 ) ) ;
#21 = VERTEX_POINT ( 'NONE', #378 ) ;
#22 = FACE_OUTER_BOUND ( 'NONE', #34, .T. ) ;
#23 = DIRECTION ( 'NONE',  ( 0.000000000000000000, 0.000000000000000000, 1.000000000000000000 ) ) ;
#24 = EDGE_LOOP ( 'NONE', ( #261, #149, #497, #323 ) ) ;
#25 = ORIENTED_EDGE ( 'NONE', *, *, #47, .F. ) ;
#26 = DIRECTION ( 'NONE',  ( -0.000000000000000000, -1.000000000000000000, -0.000000000000000000 ) ) ;
#27 = VERTEX_POINT ( 'NONE', #1001 ) ;
#28 = EDGE_CURVE ( 'NONE', #551, #201, #386, .T. ) ;
#29 = VERTEX_POINT ( 'NONE', #918 ) ;
#30 = ORIENTED_EDGE ( 'NONE', *, *, #100, .T. ) ;
#31 = DIRECTION ( 'NONE',  ( 0.000000000000000000, 1.000000000000000000, 0.000000000000000000 ) ) ;
#32 = AXIS2_PLACEMENT_3D ( 'NONE', #317, #691, #88 ) ;
#33 = CARTESIAN_POINT ( 'NONE',  ( 0.000000000000000000, 47.99999999999999289, 8.000000000000000000 ) ) ;
#34 = EDGE_LOOP ( 'NONE', ( #195, #265, #739, #558 ) ) ;
#35 = ORIENTED_EDGE ( 'NONE', *, *, #985, .F. ) ;
#36 = DIRECTION ( 'NONE',  ( 0.000000000000000000, 1.000000000000000000, 0.000000000000000000 ) ) ;
#37 = CARTESIAN_POINT ( 'NONE',  ( -6.986875000000000391, 43.00000000000000000, 0.4284597231654395100 ) ) ;
#38 = ORIENTED_EDGE ( 'NONE', *, *, #964, .F. ) ;
#39 = EDGE_LOOP ( 'NONE', ( #730, #408, #102, #657 ) ) ;
#40 = ORIENTED_EDGE ( 'NONE', *, *, #515, .F. ) ;
#41 = CARTESIAN_POINT ( 'NONE',  ( 1.469576158976823947E-15, 43.00000000000000000, 12.00000000000000000 ) ) ;
#42 = DIRECTION ( 'NONE',  ( -0.000000000000000000, -1.000000000000000000, -0.000000000000000000 ) ) ;
#43 = ORIENTED_EDGE ( 'NONE', *, *, #663, .F. ) ;
#44 = VERTEX_POINT ( 'NONE', #311 ) ;
#45 = SECURITY_CLASSIFICATION ( '', '', #834 ) ;
#46 = DIRECTION ( 'NONE',  ( 0.000000000000000000, 0.000000000000000000, 1.000000000000000000 ) ) ;
#47 = EDGE_CURVE ( 'NONE', #168, #29, #229, .T. ) ;
#48 = DIRECTION ( 'NONE',  ( 0.000000000000000000, 0.000000000000000000, 1.000000000000000000 ) ) ;
#49 = VECTOR ( 'NONE', #472, 1000.000000000000000 ) ;
#50 = CIRCLE ( 'NONE', #565, 7.000000000000000000 ) ;
#51 = ORIENTED_EDGE ( 'NONE', *, *, #810, .F. ) ;
#52 = EDGE_CURVE ( 'NONE', #719, #868, #218, .T. ) ;
#53 = CARTESIAN_POINT ( 'NONE',  ( 8.000000000000000000, 47.99999999999999289, 0.000000000000000000 ) ) ;
#54 = ADVANCED_FACE ( 'NONE', ( #530 ), #382, .F. ) ;
#55 = CARTESIAN_POINT ( 'NONE',  ( -8.000000000000000000, 47.99999999999999289, 1.100000000000000311 ) ) ;
#56 = APPROVAL_DATE_TIME ( #75, #174 ) ;
#57 = CARTESIAN_POINT ( 'NONE',  ( 0.000000000000000000, 43.00000000000000000, -1.750000000000000000 ) ) ;
#58 = DIRECTION ( 'NONE',  ( 0.000000000000000000, 0.000000000000000000, -1.000000000000000000 ) ) ;
#59 = CARTESIAN_POINT ( 'NONE',  ( -8.000000000000000000, 40.00000000000000000, 0.000000000000000000 ) ) ;
#60 = EDGE_CURVE ( 'NONE', #201, #659, #465, .T. ) ;
#61 = DIRECTION ( 'NONE',  ( 0.000000000000000000, -1.000000000000000000, 0.000000000000000000 ) ) ;
#62 = AXIS2_PLACEMENT_3D ( 'NONE', #754, #457, #64 ) ;
#63 = AXIS2_PLACEMENT_3D ( 'NONE', #838, #70, #671 ) ;
#64 = DIRECTION ( 'NONE',  ( 0.000000000000000000, 0.000000000000000000, 1.000000000000000000 ) ) ;
#65 = DIRECTION ( 'NONE',  ( 0.000000000000000000, -1.000000000000000000, 0.000000000000000000 ) ) ;
#66 = APPROVAL_DATE_TIME ( #303, #231 ) ;
#67 = CIRCLE ( 'NONE', #550, 1.100000000000000311 ) ;
#68 = DIRECTION ( 'NONE',  ( 0.000000000000000000, 0.000000000000000000, 1.000000000000000000 ) ) ;
#69 = DIRECTION ( 'NONE',  ( -0.000000000000000000, -1.000000000000000000, -0.000000000000000000 ) ) ;
#70 = DIRECTION ( 'NONE',  ( 0.000000000000000000, 1.000000000000000000, 0.000000000000000000 ) ) ;
#71 = LINE ( 'NONE', #2, #210 ) ;
#72 = PLANE ( 'NONE',  #820 ) ;
#73 = ADVANCED_FACE ( 'NONE', ( #288 ), #597, .T. ) ;
#74 = CARTESIAN_POINT ( 'NONE',  ( 0.000000000000000000, 47.99999999999999289, 0.000000000000000000 ) ) ;
#75 = DATE_AND_TIME ( #668, #448 ) ;
#76 = DIRECTION ( 'NONE',  ( 0.000000000000000000, 1.000000000000000000, 0.000000000000000000 ) ) ;
#77 = CARTESIAN_POINT ( 'NONE',  ( 6.986875000000000391, 43.00000000000000000, -0.4284597231654371230 ) ) ;
#78 = DIRECTION ( 'NONE',  ( 0.000000000000000000, 0.000000000000000000, 1.000000000000000000 ) ) ;
#79 = AXIS2_PLACEMENT_3D ( 'NONE', #185, #99, #493 ) ;
#80 = LINE ( 'NONE', #699, #115 ) ;
#81 = EDGE_CURVE ( 'NONE', #191, #799, #444, .T. ) ;
#82 = CARTESIAN_POINT ( 'NONE',  ( 8.000000000000000000, 47.99999999999999289, 0.000000000000000000 ) ) ;
#83 = AXIS2_PLACEMENT_3D ( 'NONE', #618, #846, #68 ) ;
#84 = DIRECTION ( 'NONE',  ( -0.000000000000000000, -1.000000000000000000, -0.000000000000000000 ) ) ;
#85 = DIRECTION ( 'NONE',  ( 0.000000000000000000, 0.000000000000000000, 1.000000000000000000 ) ) ;
#86 = ORIENTED_EDGE ( 'NONE', *, *, #910, .T. ) ;
#87 = DIRECTION ( 'NONE',  ( 0.000000000000000000, 0.000000000000000000, 1.000000000000000000 ) ) ;
#88 = DIRECTION ( 'NONE',  ( 0.000000000000000000, 0.000000000000000000, 1.000000000000000000 ) ) ;
#89 = EDGE_CURVE ( 'NONE', #184, #245, #50, .T. ) ;
#90 = ORIENTED_EDGE ( 'NONE', *, *, #7, .F. ) ;
#91 = CARTESIAN_POINT ( 'NONE',  ( 0.000000000000000000, 43.00000000000000000, 0.000000000000000000 ) ) ;
#92 = FACE_OUTER_BOUND ( 'NONE', #304, .T. ) ;
#93 = ORIENTED_EDGE ( 'NONE', *, *, #867, .F. ) ;
#94 = CARTESIAN_POINT ( 'NONE',  ( -8.000000000000000000, 47.99999999999999289, 0.000000000000000000 ) ) ;
#95 = VECTOR ( 'NONE', #165, 1000.000000000000000 ) ;
#96 = LINE ( 'NONE', #182, #926 ) ;
#97 = VERTEX_POINT ( 'NONE', #920 ) ;
#98 = VERTEX_POINT ( 'NONE', #843 ) ;
#99 = DIRECTION ( 'NONE',  ( 0.000000000000000000, -1.000000000000000000, 0.000000000000000000 ) ) ;
#100 = EDGE_CURVE ( 'NONE', #924, #962, #4, .T. ) ;
#101 = CARTESIAN_POINT ( 'NONE',  ( 3.100000000000000089, 43.00000000000000000, 2.399999999999999911 ) ) ;
#102 = ORIENTED_EDGE ( 'NONE', *, *, #395, .F. ) ;
#103 = ORIENTED_EDGE ( 'NONE', *, *, #188, .F. ) ;
#104 = VERTEX_POINT ( 'NONE', #152 ) ;
#105 = DIRECTION ( 'NONE',  ( 0.000000000000000000, 0.000000000000000000, -1.000000000000000000 ) ) ;
#106 = CIRCLE ( 'NONE', #142, 1.100000000000000311 ) ;
#107 = CARTESIAN_POINT ( 'NONE',  ( 0.000000000000000000, 47.99999999999999289, 0.000000000000000000 ) ) ;
#108 = ORIENTED_EDGE ( 'NONE', *, *, #135, .F. ) ;
#109 = LOCAL_TIME ( 16, 17, 25.00000000000000000, #526 ) ;
#110 = AXIS2_PLACEMENT_3D ( 'NONE', #59, #528, #131 ) ;
#111 = ORIENTED_EDGE ( 'NONE', *, *, #375, .T. ) ;
#112 = PRODUCT ( 'ARM-003_Yaw_D_drive_collar', 'ARM-003_Yaw_D_drive_collar', '', ( #717 ) ) ;
#113 = PLANE ( 'NONE',  #1006 ) ;
#114 = CIRCLE ( 'NONE', #369, 12.00000000000000000 ) ;
#115 = VECTOR ( 'NONE', #697, 1000.000000000000000 ) ;
#116 = DIRECTION ( 'NONE',  ( 0.000000000000000000, -1.000000000000000000, 0.000000000000000000 ) ) ;
#117 = ORIENTED_EDGE ( 'NONE', *, *, #780, .T. ) ;
#118 = EDGE_CURVE ( 'NONE', #573, #474, #745, .T. ) ;
#119 = ORIENTED_EDGE ( 'NONE', *, *, #60, .T. ) ;
#120 = DIRECTION ( 'NONE',  ( 0.000000000000000000, -1.000000000000000000, 0.000000000000000000 ) ) ;
#121 = DIRECTION ( 'NONE',  ( 0.000000000000000000, 0.000000000000000000, -1.000000000000000000 ) ) ;
#122 = ORIENTED_EDGE ( 'NONE', *, *, #789, .F. ) ;
#123 = ORIENTED_EDGE ( 'NONE', *, *, #524, .F. ) ;
#124 = EDGE_LOOP ( 'NONE', ( #406, #971, #247, #40, #948, #111, #815, #981 ) ) ;
#125 = EDGE_CURVE ( 'NONE', #10, #929, #226, .T. ) ;
#126 = DIRECTION ( 'NONE',  ( -0.000000000000000000, -1.000000000000000000, -0.000000000000000000 ) ) ;
#127 = CIRCLE ( 'NONE', #689, 7.000000000000000000 ) ;
#128 = DIRECTION ( 'NONE',  ( 0.000000000000000000, 0.000000000000000000, -1.000000000000000000 ) ) ;
#129 = ORIENTED_EDGE ( 'NONE', *, *, #622, .F. ) ;
#130 = DIRECTION ( 'NONE',  ( 0.000000000000000000, 1.000000000000000000, 0.000000000000000000 ) ) ;
#131 = DIRECTION ( 'NONE',  ( 0.000000000000000000, 0.000000000000000000, 1.000000000000000000 ) ) ;
#132 = CC_DESIGN_PERSON_AND_ORGANIZATION_ASSIGNMENT ( #683, #686, ( #742 ) ) ;
#133 = ORIENTED_EDGE ( 'NONE', *, *, #161, .T. ) ;
#134 = CARTESIAN_POINT ( 'NONE',  ( -0.4284597231654398986, 43.00000000000000000, -6.986875000000000391 ) ) ;
#135 = EDGE_CURVE ( 'NONE', #963, #749, #427, .T. ) ;
#136 = DIRECTION ( 'NONE',  ( 0.000000000000000000, -1.000000000000000000, 0.000000000000000000 ) ) ;
#137 = DIRECTION ( 'NONE',  ( 0.000000000000000000, 0.000000000000000000, -1.000000000000000000 ) ) ;
#138 = AXIS2_PLACEMENT_3D ( 'NONE', #958, #31, #257 ) ;
#139 = FACE_BOUND ( 'NONE', #788, .T. ) ;
#140 = DIRECTION ( 'NONE',  ( 0.000000000000000000, 0.000000000000000000, 1.000000000000000000 ) ) ;
#141 = DATE_AND_TIME ( #988, #545 ) ;
#142 = AXIS2_PLACEMENT_3D ( 'NONE', #766, #379, #688 ) ;
#143 = CC_DESIGN_APPROVAL ( #174, ( #742 ) ) ;
#144 = VECTOR ( 'NONE', #825, 1000.000000000000000 ) ;
#145 = CARTESIAN_POINT ( 'NONE',  ( 0.000000000000000000, 40.00000000000000000, -9.099999999999999645 ) ) ;
#146 = CARTESIAN_POINT ( 'NONE',  ( 0.000000000000000000, 47.99999999999999289, 8.000000000000000000 ) ) ;
#147 = APPROVAL_ROLE ( '' ) ;
#148 = AXIS2_PLACEMENT_3D ( 'NONE', #325, #238, #704 ) ;
#149 = ORIENTED_EDGE ( 'NONE', *, *, #867, .T. ) ;
#150 = EDGE_CURVE ( 'NONE', #104, #27, #345, .T. ) ;
#151 = CARTESIAN_POINT ( 'NONE',  ( 0.000000000000000000, 40.00000000000000000, 0.000000000000000000 ) ) ;
#152 = CARTESIAN_POINT ( 'NONE',  ( 3.262284475639731340, 43.00000000000000000, -2.399999999999999911 ) ) ;
#153 = FACE_BOUND ( 'NONE', #330, .T. ) ;
#154 = PERSON_AND_ORGANIZATION ( #859, #991 ) ;
#155 = DIRECTION ( 'NONE',  ( -1.000000000000000000, -0.000000000000000000, -0.000000000000000000 ) ) ;
#156 = CARTESIAN_POINT ( 'NONE',  ( 8.000000000000000000, 43.00000000000000000, 0.000000000000000000 ) ) ;
#157 = CYLINDRICAL_SURFACE ( 'NONE', #420, 4.049999999999999822 ) ;
#158 = CARTESIAN_POINT ( 'NONE',  ( 0.000000000000000000, 43.00000000000000000, 0.000000000000000000 ) ) ;
#159 = VECTOR ( 'NONE', #598, 1000.000000000000000 ) ;
#160 = CYLINDRICAL_SURFACE ( 'NONE', #935, 1.100000000000000311 ) ;
#161 = EDGE_CURVE ( 'NONE', #184, #44, #391, .T. ) ;
#162 = PLANE ( 'NONE',  #370 ) ;
#163 = DIRECTION ( 'NONE',  ( 0.000000000000000000, 0.000000000000000000, 1.000000000000000000 ) ) ;
#164 = EDGE_LOOP ( 'NONE', ( #816, #38 ) ) ;
#165 = DIRECTION ( 'NONE',  ( -0.000000000000000000, -1.000000000000000000, -0.000000000000000000 ) ) ;
#166 = CARTESIAN_POINT ( 'NONE',  ( 0.000000000000000000, 43.00000000000000000, 0.000000000000000000 ) ) ;
#167 = EDGE_CURVE ( 'NONE', #452, #297, #571, .T. ) ;
#168 = VERTEX_POINT ( 'NONE', #720 ) ;
#169 = DIRECTION ( 'NONE',  ( -0.000000000000000000, -1.000000000000000000, -0.000000000000000000 ) ) ;
#170 = FACE_OUTER_BOUND ( 'NONE', #652, .T. ) ;
#171 = CARTESIAN_POINT ( 'NONE',  ( 3.262284475639731340, 47.99999999999999289, -2.399999999999999911 ) ) ;
#172 = ORIENTED_EDGE ( 'NONE', *, *, #599, .F. ) ;
#173 = DIRECTION ( 'NONE',  ( 0.000000000000000000, 0.000000000000000000, 1.000000000000000000 ) ) ;
#174 = APPROVAL ( #217, 'UNSPECIFIED' ) ;
#175 =( LENGTH_UNIT ( ) NAMED_UNIT ( * ) SI_UNIT ( .MILLI., .METRE. ) );
#176 = ORIENTED_EDGE ( 'NONE', *, *, #478, .F. ) ;
#177 = EDGE_LOOP ( 'NONE', ( #35, #568 ) ) ;
#178 = ADVANCED_FACE ( 'NONE', ( #864 ), #263, .T. ) ;
#179 = LINE ( 'NONE', #629, #772 ) ;
#180 = VECTOR ( 'NONE', #269, 1000.000000000000000 ) ;
#181 = AXIS2_PLACEMENT_3D ( 'NONE', #388, #934, #78 ) ;
#182 = CARTESIAN_POINT ( 'NONE',  ( 0.000000000000000000, 47.99999999999999289, 6.899999999999999467 ) ) ;
#183 = ORIENTED_EDGE ( 'NONE', *, *, #281, .T. ) ;
#184 = VERTEX_POINT ( 'NONE', #861 ) ;
#185 = CARTESIAN_POINT ( 'NONE',  ( 0.000000000000000000, 47.99999999999999289, -8.000000000000000000 ) ) ;
#186 = EDGE_LOOP ( 'NONE', ( #989, #404, #725, #358 ) ) ;
#187 = AXIS2_PLACEMENT_3D ( 'NONE', #965, #321, #242 ) ;
#188 = EDGE_CURVE ( 'NONE', #868, #334, #797, .T. ) ;
#189 = ORIENTED_EDGE ( 'NONE', *, *, #524, .T. ) ;
#190 = FACE_BOUND ( 'NONE', #589, .T. ) ;
#191 = VERTEX_POINT ( 'NONE', #339 ) ;
#192 = CIRCLE ( 'NONE', #110, 1.100000000000000311 ) ;
#193 = ORIENTED_EDGE ( 'NONE', *, *, #566, .T. ) ;
#194 = FACE_OUTER_BOUND ( 'NONE', #887, .T. ) ;
#195 = ORIENTED_EDGE ( 'NONE', *, *, #1, .F. ) ;
#196 = ADVANCED_FACE ( 'NONE', ( #22 ), #944, .T. ) ;
#197 = ORIENTED_EDGE ( 'NONE', *, *, #975, .F. ) ;
#198 = ORIENTED_EDGE ( 'NONE', *, *, #554, .T. ) ;
#199 = LINE ( 'NONE', #979, #250 ) ;
#200 = ADVANCED_FACE ( 'NONE', ( #561 ), #650, .F. ) ;
#201 = VERTEX_POINT ( 'NONE', #786 ) ;
#202 = ORIENTED_EDGE ( 'NONE', *, *, #462, .T. ) ;
#203 = DIRECTION ( 'NONE',  ( 1.000000000000000000, 0.000000000000000000, -0.000000000000000000 ) ) ;
#204 = AXIS2_PLACEMENT_3D ( 'NONE', #731, #889, #46 ) ;
#205 = DIRECTION ( 'NONE',  ( 0.000000000000000000, 0.000000000000000000, 1.000000000000000000 ) ) ;
#206 = APPROVAL_DATE_TIME ( #759, #878 ) ;
#207 = DIRECTION ( 'NONE',  ( -0.000000000000000000, 1.000000000000000000, -0.000000000000000000 ) ) ;
#208 = ADVANCED_FACE ( 'NONE', ( #402 ), #714, .F. ) ;
#209 = LINE ( 'NONE', #279, #546 ) ;
#210 = VECTOR ( 'NONE', #770, 1000.000000000000000 ) ;
#211 = CARTESIAN_POINT ( 'NONE',  ( -8.000000000000000000, 47.99999999999999289, 0.000000000000000000 ) ) ;
#212 = LINE ( 'NONE', #998, #625 ) ;
#213 = CARTESIAN_POINT ( 'NONE',  ( 0.000000000000000000, 43.00000000000000000, 0.000000000000000000 ) ) ;
#214 = VERTEX_POINT ( 'NONE', #709 ) ;
#215 = DIRECTION ( 'NONE',  ( 0.000000000000000000, 0.000000000000000000, 1.000000000000000000 ) ) ;
#216 = CARTESIAN_POINT ( 'NONE',  ( 0.000000000000000000, 43.00000000000000000, 0.000000000000000000 ) ) ;
#217 = APPROVAL_STATUS ( 'not_yet_approved' ) ;
#218 = LINE ( 'NONE', #840, #616 ) ;
#219 = CARTESIAN_POINT ( 'NONE',  ( -8.000000000000000000, 43.00000000000000000, 1.100000000000000311 ) ) ;
#220 = CYLINDRICAL_SURFACE ( 'NONE', #888, 7.000000000000000000 ) ;
#221 = ADVANCED_FACE ( 'NONE', ( #803 ), #635, .T. ) ;
#222 = APPROVAL_STATUS ( 'not_yet_approved' ) ;
#223 = AXIS2_PLACEMENT_3D ( 'NONE', #308, #617, #227 ) ;
#224 = DIRECTION ( 'NONE',  ( 0.000000000000000000, 0.000000000000000000, 1.000000000000000000 ) ) ;
#225 = DIRECTION ( 'NONE',  ( 0.000000000000000000, 0.000000000000000000, 1.000000000000000000 ) ) ;
#226 = LINE ( 'NONE', #538, #696 ) ;
#227 = DIRECTION ( 'NONE',  ( 0.000000000000000000, 0.000000000000000000, -1.000000000000000000 ) ) ;
#228 = DIRECTION ( 'NONE',  ( 0.000000000000000000, -1.000000000000000000, 0.000000000000000000 ) ) ;
#229 = LINE ( 'NONE', #687, #354 ) ;
#230 = CARTESIAN_POINT ( 'NONE',  ( 8.000000000000000000, 43.00000000000000000, 1.100000000000000311 ) ) ;
#231 = APPROVAL ( #222, 'UNSPECIFIED' ) ;
#232 = LINE ( 'NONE', #5, #484 ) ;
#233 = AXIS2_PLACEMENT_3D ( 'NONE', #374, #916, #819 ) ;
#234 = ORIENTED_EDGE ( 'NONE', *, *, #52, .F. ) ;
#235 = LOCAL_TIME ( 16, 17, 25.00000000000000000, #611 ) ;
#236 = AXIS2_PLACEMENT_3D ( 'NONE', #682, #757, #608 ) ;
#237 = EDGE_CURVE ( 'NONE', #708, #646, #494, .T. ) ;
#238 = DIRECTION ( 'NONE',  ( -0.000000000000000000, -1.000000000000000000, -0.000000000000000000 ) ) ;
#239 = DIRECTION ( 'NONE',  ( 0.000000000000000000, 0.000000000000000000, 1.000000000000000000 ) ) ;
#240 = AXIS2_PLACEMENT_3D ( 'NONE', #389, #463, #778 ) ;
#241 = EDGE_LOOP ( 'NONE', ( #51, #483, #849, #902 ) ) ;
#242 = DIRECTION ( 'NONE',  ( -1.000000000000000000, 0.000000000000000000, -0.000000000000000000 ) ) ;
#243 = LINE ( 'NONE', #787, #729 ) ;
#244 = LINE ( 'NONE', #171, #872 ) ;
#245 = VERTEX_POINT ( 'NONE', #570 ) ;
#246 = CARTESIAN_POINT ( 'NONE',  ( 0.000000000000000000, 47.99999999999999289, 0.000000000000000000 ) ) ;
#247 = ORIENTED_EDGE ( 'NONE', *, *, #964, .T. ) ;
#248 = ADVANCED_FACE ( 'NONE', ( #412 ), #481, .F. ) ;
#249 = EDGE_LOOP ( 'NONE', ( #722, #667, #628, #390 ) ) ;
#250 = VECTOR ( 'NONE', #674, 1000.000000000000000 ) ;
#251 = PLANE ( 'NONE',  #955 ) ;
#252 = AXIS2_PLACEMENT_3D ( 'NONE', #398, #169, #328 ) ;
#253 = APPLICATION_PROTOCOL_DEFINITION ( 'international standard', 'config_control_design', 1994, #517 ) ;
#254 = ORIENTED_EDGE ( 'NONE', *, *, #135, .T. ) ;
#255 = ORIENTED_EDGE ( 'NONE', *, *, #167, .F. ) ;
#256 = EDGE_LOOP ( 'NONE', ( #509, #728 ) ) ;
#257 = DIRECTION ( 'NONE',  ( 0.000000000000000000, 0.000000000000000000, 1.000000000000000000 ) ) ;
#258 = CIRCLE ( 'NONE', #83, 1.100000000000000311 ) ;
#259 = ADVANCED_FACE ( 'NONE', ( #882, #950 ), #251, .T. ) ;
#260 = ORIENTED_EDGE ( 'NONE', *, *, #735, .T. ) ;
#261 = ORIENTED_EDGE ( 'NONE', *, *, #663, .T. ) ;
#262 = ORIENTED_EDGE ( 'NONE', *, *, #930, .T. ) ;
#263 = CYLINDRICAL_SURFACE ( 'NONE', #475, 12.00000000000000000 ) ;
#264 = EDGE_LOOP ( 'NONE', ( #25, #586, #198, #737 ) ) ;
#265 = ORIENTED_EDGE ( 'NONE', *, *, #715, .T. ) ;
#266 = FACE_OUTER_BOUND ( 'NONE', #642, .T. ) ;
#267 = EDGE_CURVE ( 'NONE', #469, #573, #179, .T. ) ;
#268 = VECTOR ( 'NONE', #832, 1000.000000000000000 ) ;
#269 = DIRECTION ( 'NONE',  ( 0.000000000000000000, -1.000000000000000000, 0.000000000000000000 ) ) ;
#270 = ORIENTED_EDGE ( 'NONE', *, *, #450, .T. ) ;
#271 = AXIS2_PLACEMENT_3D ( 'NONE', #600, #136, #285 ) ;
#272 = ORIENTED_EDGE ( 'NONE', *, *, #985, .T. ) ;
#273 = EDGE_LOOP ( 'NONE', ( #997, #255, #510, #272 ) ) ;
#274 = CARTESIAN_POINT ( 'NONE',  ( 3.100000000000000089, 47.99999999999999289, 2.399999999999999911 ) ) ;
#275 = CIRCLE ( 'NONE', #891, 1.100000000000000311 ) ;
#276 = VERTEX_POINT ( 'NONE', #940 ) ;
#277 = EDGE_LOOP ( 'NONE', ( #423, #856, #351, #645, #960, #873, #947, #876, #860, #623, #658, #197, #319, #373 ) ) ;
#278 = CYLINDRICAL_SURFACE ( 'NONE', #951, 1.100000000000000311 ) ;
#279 = CARTESIAN_POINT ( 'NONE',  ( 8.000000000000000000, 47.99999999999999289, 1.100000000000000311 ) ) ;
#280 = ORIENTED_EDGE ( 'NONE', *, *, #375, .F. ) ;
#281 = EDGE_CURVE ( 'NONE', #581, #98, #500, .T. ) ;
#282 = VERTEX_POINT ( 'NONE', #904 ) ;
#283 = CARTESIAN_POINT ( 'NONE',  ( -0.4284597231654378446, 43.00000000000000000, 6.986875000000000391 ) ) ;
#284 = VECTOR ( 'NONE', #120, 1000.000000000000000 ) ;
#285 = DIRECTION ( 'NONE',  ( 0.000000000000000000, 0.000000000000000000, -1.000000000000000000 ) ) ;
#286 = AXIS2_PLACEMENT_3D ( 'NONE', #751, #360, #685 ) ;
#287 = SHAPE_DEFINITION_REPRESENTATION ( #436, #764 ) ;
#288 = FACE_OUTER_BOUND ( 'NONE', #638, .T. ) ;
#289 = LINE ( 'NONE', #817, #159 ) ;
#290 = CIRCLE ( 'NONE', #681, 1.100000000000000311 ) ;
#291 = DIRECTION ( 'NONE',  ( 0.000000000000000000, 0.000000000000000000, 1.000000000000000000 ) ) ;
#292 = DIRECTION ( 'NONE',  ( 0.000000000000000000, 1.000000000000000000, 0.000000000000000000 ) ) ;
#293 = CARTESIAN_POINT ( 'NONE',  ( 0.000000000000000000, 43.00000000000000000, 8.000000000000000000 ) ) ;
#294 = EDGE_CURVE ( 'NONE', #564, #929, #430, .T. ) ;
#295 = DIRECTION ( 'NONE',  ( -0.000000000000000000, -1.000000000000000000, -0.000000000000000000 ) ) ;
#296 = PERSON_AND_ORGANIZATION ( #859, #991 ) ;
#297 = VERTEX_POINT ( 'NONE', #41 ) ;
#298 = FACE_OUTER_BOUND ( 'NONE', #177, .T. ) ;
#299 = DIRECTION ( 'NONE',  ( 0.000000000000000000, 0.000000000000000000, 1.000000000000000000 ) ) ;
#300 = EDGE_CURVE ( 'NONE', #348, #282, #349, .T. ) ;
#301 = DIRECTION ( 'NONE',  ( 0.000000000000000000, -1.000000000000000000, 0.000000000000000000 ) ) ;
#302 = CIRCLE ( 'NONE', #865, 7.000000000000000000 ) ;
#303 = DATE_AND_TIME ( #769, #235 ) ;
#304 = EDGE_LOOP ( 'NONE', ( #280, #202, #933, #108 ) ) ;
#305 = EDGE_CURVE ( 'NONE', #492, #924, #199, .T. ) ;
#306 = CARTESIAN_POINT ( 'NONE',  ( 3.100000000000000089, 47.99999999999999289, 2.399999999999999911 ) ) ;
#307 = DIRECTION ( 'NONE',  ( 0.000000000000000000, 1.000000000000000000, 0.000000000000000000 ) ) ;
#308 = CARTESIAN_POINT ( 'NONE',  ( 0.000000000000000000, 43.00000000000000000, 0.000000000000000000 ) ) ;
#309 =( NAMED_UNIT ( * ) PLANE_ANGLE_UNIT ( ) SI_UNIT ( $, .RADIAN. ) );
#310 = CIRCLE ( 'NONE', #811, 1.100000000000000311 ) ;
#311 = CARTESIAN_POINT ( 'NONE',  ( -6.986875000000000391, 47.99999999999999289, -0.4284597231654333482 ) ) ;
#312 = DIRECTION ( 'NONE',  ( 0.000000000000000000, 1.000000000000000000, 0.000000000000000000 ) ) ;
#313 = CARTESIAN_POINT ( 'NONE',  ( 0.000000000000000000, 47.99999999999999289, 0.000000000000000000 ) ) ;
#314 = ADVANCED_FACE ( 'NONE', ( #746 ), #441, .F. ) ;
#315 = DIRECTION ( 'NONE',  ( 0.000000000000000000, 1.000000000000000000, 0.000000000000000000 ) ) ;
#316 = DIRECTION ( 'NONE',  ( 0.000000000000000000, 1.000000000000000000, 0.000000000000000000 ) ) ;
#317 = CARTESIAN_POINT ( 'NONE',  ( -8.000000000000000000, 43.00000000000000000, 0.000000000000000000 ) ) ;
#318 = VECTOR ( 'NONE', #613, 1000.000000000000000 ) ;
#319 = ORIENTED_EDGE ( 'NONE', *, *, #473, .T. ) ;
#320 = AXIS2_PLACEMENT_3D ( 'NONE', #489, #23, #871 ) ;
#321 = DIRECTION ( 'NONE',  ( 0.000000000000000000, 0.000000000000000000, -1.000000000000000000 ) ) ;
#322 = DIRECTION ( 'NONE',  ( -0.000000000000000000, -1.000000000000000000, -0.000000000000000000 ) ) ;
#323 = ORIENTED_EDGE ( 'NONE', *, *, #60, .F. ) ;
#324 = DIRECTION ( 'NONE',  ( -0.000000000000000000, -1.000000000000000000, -0.000000000000000000 ) ) ;
#325 = CARTESIAN_POINT ( 'NONE',  ( 0.000000000000000000, 47.99999999999999289, 0.000000000000000000 ) ) ;
#326 = ORIENTED_EDGE ( 'NONE', *, *, #630, .T. ) ;
#327 = ORIENTED_EDGE ( 'NONE', *, *, #949, .F. ) ;
#328 = DIRECTION ( 'NONE',  ( 0.000000000000000000, 0.000000000000000000, -1.000000000000000000 ) ) ;
#329 = ORIENTED_EDGE ( 'NONE', *, *, #281, .F. ) ;
#330 = EDGE_LOOP ( 'NONE', ( #43, #973 ) ) ;
#331 = CIRCLE ( 'NONE', #592, 1.100000000000000311 ) ;
#332 = DIRECTION ( 'NONE',  ( 0.000000000000000000, 1.000000000000000000, 0.000000000000000000 ) ) ;
#333 = DIRECTION ( 'NONE',  ( -0.000000000000000000, -1.000000000000000000, -0.000000000000000000 ) ) ;
#334 = VERTEX_POINT ( 'NONE', #993 ) ;
#335 = ADVANCED_FACE ( 'NONE', ( #344 ), #828, .F. ) ;
#336 = ORIENTED_EDGE ( 'NONE', *, *, #672, .F. ) ;
#337 = ORIENTED_EDGE ( 'NONE', *, *, #28, .T. ) ;
#338 = VECTOR ( 'NONE', #845, 1000.000000000000000 ) ;
#339 = CARTESIAN_POINT ( 'NONE',  ( 6.986875000000000391, 47.99999999999999289, 0.4284597231654333482 ) ) ;
#340 = CARTESIAN_POINT ( 'NONE',  ( 0.4284597231654372340, 43.50000000000000000, -6.986875000000002167 ) ) ;
#341 = ORIENTED_EDGE ( 'NONE', *, *, #343, .F. ) ;
#342 = ORIENTED_EDGE ( 'NONE', *, *, #161, .F. ) ;
#343 = EDGE_CURVE ( 'NONE', #282, #44, #302, .T. ) ;
#344 = FACE_OUTER_BOUND ( 'NONE', #733, .T. ) ;
#345 = CIRCLE ( 'NONE', #914, 4.049999999999999822 ) ;
#346 = VERTEX_POINT ( 'NONE', #362 ) ;
#347 = ORIENTED_EDGE ( 'NONE', *, *, #556, .F. ) ;
#348 = VERTEX_POINT ( 'NONE', #134 ) ;
#349 = LINE ( 'NONE', #519, #851 ) ;
#350 = APPROVAL_PERSON_ORGANIZATION ( #982, #878, #147 ) ;
#351 = ORIENTED_EDGE ( 'NONE', *, *, #810, .T. ) ;
#352 = CARTESIAN_POINT ( 'NONE',  ( 0.000000000000000000, 47.99999999999999289, -8.000000000000000000 ) ) ;
#353 = AXIS2_PLACEMENT_3D ( 'NONE', #20, #784, #239 ) ;
#354 = VECTOR ( 'NONE', #535, 1000.000000000000000 ) ;
#355 = EDGE_CURVE ( 'NONE', #963, #191, #331, .T. ) ;
#356 = CARTESIAN_POINT ( 'NONE',  ( 3.262284475639731340, 47.99999999999999289, -2.399999999999999911 ) ) ;
#357 = ORIENTED_EDGE ( 'NONE', *, *, #780, .F. ) ;
#358 = ORIENTED_EDGE ( 'NONE', *, *, #975, .T. ) ;
#359 = DIRECTION ( 'NONE',  ( -0.000000000000000000, -1.000000000000000000, -0.000000000000000000 ) ) ;
#360 = DIRECTION ( 'NONE',  ( 0.000000000000000000, 1.000000000000000000, 0.000000000000000000 ) ) ;
#361 = ORIENTED_EDGE ( 'NONE', *, *, #395, .T. ) ;
#362 = CARTESIAN_POINT ( 'NONE',  ( 0.000000000000000000, 40.00000000000000000, -12.00000000000000000 ) ) ;
#363 = AXIS2_PLACEMENT_3D ( 'NONE', #541, #909, #777 ) ;
#364 = CARTESIAN_POINT ( 'NONE',  ( 0.000000000000000000, 40.00000000000000000, -1.750000000000000000 ) ) ;
#365 = AXIS2_PLACEMENT_3D ( 'NONE', #604, #900, #291 ) ;
#366 = DATE_TIME_ROLE ( 'creation_date' ) ;
#367 = DIRECTION ( 'NONE',  ( 0.000000000000000000, -1.000000000000000000, 0.000000000000000000 ) ) ;
#368 = CARTESIAN_POINT ( 'NONE',  ( 8.000000000000000000, 47.99999999999999289, -1.100000000000000311 ) ) ;
#369 = AXIS2_PLACEMENT_3D ( 'NONE', #912, #292, #606 ) ;
#370 = AXIS2_PLACEMENT_3D ( 'NONE', #624, #854, #936 ) ;
#371 = CARTESIAN_POINT ( 'NONE',  ( 0.000000000000000000, 43.00000000000000000, -9.099999999999999645 ) ) ;
#372 = APPLICATION_PROTOCOL_DEFINITION ( 'international standard', 'config_control_design', 1994, #776 ) ;
#373 = ORIENTED_EDGE ( 'NONE', *, *, #556, .T. ) ;
#374 = CARTESIAN_POINT ( 'NONE',  ( 0.000000000000000000, 47.99999999999999289, -8.000000000000000000 ) ) ;
#375 = EDGE_CURVE ( 'NONE', #498, #963, #289, .T. ) ;
#376 = DIRECTION ( 'NONE',  ( -0.000000000000000000, -1.000000000000000000, -0.000000000000000000 ) ) ;
#377 = COORDINATED_UNIVERSAL_TIME_OFFSET ( 6, 0, .BEHIND. ) ;
#378 = CARTESIAN_POINT ( 'NONE',  ( 0.4284597231654378446, 43.00000000000000000, -6.986875000000000391 ) ) ;
#379 = DIRECTION ( 'NONE',  ( -0.000000000000000000, -1.000000000000000000, -0.000000000000000000 ) ) ;
#380 = DIRECTION ( 'NONE',  ( 8.881784197001250351E-16, 0.000000000000000000, 1.000000000000000000 ) ) ;
#381 = CIRCLE ( 'NONE', #12, 1.100000000000000311 ) ;
#382 = CYLINDRICAL_SURFACE ( 'NONE', #664, 1.100000000000000311 ) ;
#383 = LINE ( 'NONE', #368, #705 ) ;
#384 = DIRECTION ( 'NONE',  ( 0.000000000000000000, 0.000000000000000000, -1.000000000000000000 ) ) ;
#385 = ADVANCED_FACE ( 'NONE', ( #194 ), #278, .F. ) ;
#386 = CIRCLE ( 'NONE', #961, 1.750000000000000000 ) ;
#387 = DIRECTION ( 'NONE',  ( 0.000000000000000000, 0.000000000000000000, -1.000000000000000000 ) ) ;
#388 = CARTESIAN_POINT ( 'NONE',  ( 0.000000000000000000, 40.00000000000000000, 8.000000000000000000 ) ) ;
#389 = CARTESIAN_POINT ( 'NONE',  ( 0.000000000000000000, 40.00000000000000000, 0.000000000000000000 ) ) ;
#390 = ORIENTED_EDGE ( 'NONE', *, *, #738, .F. ) ;
#391 = CIRCLE ( 'NONE', #8, 1.100000000000000311 ) ;
#392 = DIRECTION ( 'NONE',  ( 0.000000000000000000, 1.000000000000000000, 0.000000000000000000 ) ) ;
#393 = DESIGN_CONTEXT ( 'detailed design', #776, 'design' ) ;
#394 = CYLINDRICAL_SURFACE ( 'NONE', #148, 7.000000000000000000 ) ;
#395 = EDGE_CURVE ( 'NONE', #868, #809, #974, .T. ) ;
#396 = VECTOR ( 'NONE', #3, 1000.000000000000000 ) ;
#397 = ORIENTED_EDGE ( 'NONE', *, *, #747, .F. ) ;
#398 = CARTESIAN_POINT ( 'NONE',  ( 0.000000000000000000, 43.00000000000000000, 0.000000000000000000 ) ) ;
#399 = LINE ( 'NONE', #631, #338 ) ;
#400 = AXIS2_PLACEMENT_3D ( 'NONE', #166, #779, #85 ) ;
#401 = ORIENTED_EDGE ( 'NONE', *, *, #343, .T. ) ;
#402 = FACE_OUTER_BOUND ( 'NONE', #580, .T. ) ;
#403 = ADVANCED_FACE ( 'NONE', ( #190, #895 ), #113, .T. ) ;
#404 = ORIENTED_EDGE ( 'NONE', *, *, #644, .F. ) ;
#405 = EDGE_CURVE ( 'NONE', #957, #491, #559, .T. ) ;
#406 = ORIENTED_EDGE ( 'NONE', *, *, #532, .F. ) ;
#407 = DIRECTION ( 'NONE',  ( 0.000000000000000000, 0.000000000000000000, 1.000000000000000000 ) ) ;
#408 = ORIENTED_EDGE ( 'NONE', *, *, #544, .F. ) ;
#409 = CC_DESIGN_PERSON_AND_ORGANIZATION_ASSIGNMENT ( #296, #906, ( #954 ) ) ;
#410 = ORIENTED_EDGE ( 'NONE', *, *, #789, .T. ) ;
#411 = CIRCLE ( 'NONE', #886, 4.049999999999999822 ) ;
#412 = FACE_OUTER_BOUND ( 'NONE', #956, .T. ) ;
#413 = AXIS2_PLACEMENT_3D ( 'NONE', #763, #376, #205 ) ;
#414 = CARTESIAN_POINT ( 'NONE',  ( 8.000000000000000000, 43.00000000000000000, 0.000000000000000000 ) ) ;
#415 = MANIFOLD_SOLID_BREP ( 'Stock_horn_screws', #419 ) ;
#416 = ORIENTED_EDGE ( 'NONE', *, *, #118, .F. ) ;
#417 = EDGE_CURVE ( 'NONE', #957, #418, #127, .T. ) ;
#418 = VERTEX_POINT ( 'NONE', #283 ) ;
#419 = CLOSED_SHELL ( 'NONE', ( #577, #987, #915, #208, #200, #196, #870, #335, #403, #661, #73, #221, #844, #894, #839, #259, #432, #178, #883, #314, #248, #426, #385, #693, #536, #54 ) ) ;
#420 = AXIS2_PLACEMENT_3D ( 'NONE', #107, #333, #562 ) ;
#421 = CARTESIAN_POINT ( 'NONE',  ( 0.000000000000000000, 47.99999999999999289, 0.000000000000000000 ) ) ;
#422 = LINE ( 'NONE', #101, #712 ) ;
#423 = ORIENTED_EDGE ( 'NONE', *, *, #417, .F. ) ;
#424 = ORIENTED_EDGE ( 'NONE', *, *, #852, .T. ) ;
#425 = DIRECTION ( 'NONE',  ( 0.000000000000000000, -1.000000000000000000, 0.000000000000000000 ) ) ;
#426 = ADVANCED_FACE ( 'NONE', ( #266 ), #984, .F. ) ;
#427 = CIRCLE ( 'NONE', #655, 7.000000000000000000 ) ;
#428 = ORIENTED_EDGE ( 'NONE', *, *, #89, .T. ) ;
#429 = ORIENTED_EDGE ( 'NONE', *, *, #440, .F. ) ;
#430 = CIRCLE ( 'NONE', #204, 1.100000000000000311 ) ;
#431 = DIRECTION ( 'NONE',  ( 0.000000000000000000, 0.000000000000000000, -1.000000000000000000 ) ) ;
#432 = ADVANCED_FACE ( 'NONE', ( #514, #822, #527, #835, #298, #139 ), #72, .F. ) ;
#433 = DIRECTION ( 'NONE',  ( 0.000000000000000000, 1.000000000000000000, 0.000000000000000000 ) ) ;
#434 = ORIENTED_EDGE ( 'NONE', *, *, #482, .T. ) ;
#435 = ORIENTED_EDGE ( 'NONE', *, *, #300, .T. ) ;
#436 = PRODUCT_DEFINITION_SHAPE ( 'NONE', 'NONE',  #742 ) ;
#437 = DIRECTION ( 'NONE',  ( -0.000000000000000000, -0.000000000000000000, 1.000000000000000000 ) ) ;
#438 = LINE ( 'NONE', #595, #144 ) ;
#439 = ORIENTED_EDGE ( 'NONE', *, *, #910, .F. ) ;
#440 = EDGE_CURVE ( 'NONE', #885, #485, #381, .T. ) ;
#441 = PLANE ( 'NONE',  #901 ) ;
#442 = CARTESIAN_POINT ( 'NONE',  ( 8.000000000000000000, 40.00000000000000000, -1.100000000000000311 ) ) ;
#443 = AXIS2_PLACEMENT_3D ( 'NONE', #782, #640, #173 ) ;
#444 = LINE ( 'NONE', #753, #486 ) ;
#445 = DIRECTION ( 'NONE',  ( 0.000000000000000000, -1.000000000000000000, 0.000000000000000000 ) ) ;
#446 = CIRCLE ( 'NONE', #363, 1.100000000000000311 ) ;
#447 = DIRECTION ( 'NONE',  ( 0.000000000000000000, 0.000000000000000000, 1.000000000000000000 ) ) ;
#448 = LOCAL_TIME ( 16, 17, 25.00000000000000000, #679 ) ;
#449 = AXIS2_PLACEMENT_3D ( 'NONE', #216, #433, #447 ) ;
#450 = EDGE_CURVE ( 'NONE', #44, #508, #847, .T. ) ;
#451 = DATE_TIME_ROLE ( 'classification_date' ) ;
#452 = VERTEX_POINT ( 'NONE', #461 ) ;
#453 = CARTESIAN_POINT ( 'NONE',  ( -8.000000000000000000, 40.00000000000000000, 1.100000000000000311 ) ) ;
#454 = CIRCLE ( 'NONE', #400, 7.000000000000000000 ) ;
#455 = DIRECTION ( 'NONE',  ( 0.000000000000000000, 1.000000000000000000, 0.000000000000000000 ) ) ;
#456 = PERSON_AND_ORGANIZATION_ROLE ( 'classification_officer' ) ;
#457 = DIRECTION ( 'NONE',  ( -0.000000000000000000, -1.000000000000000000, -0.000000000000000000 ) ) ;
#458 = DIRECTION ( 'NONE',  ( 0.000000000000000000, 0.000000000000000000, 1.000000000000000000 ) ) ;
#459 = APPROVAL_ROLE ( '' ) ;
#460 = CARTESIAN_POINT ( 'NONE',  ( -8.000000000000000000, 43.00000000000000000, -1.100000000000000311 ) ) ;
#461 = CARTESIAN_POINT ( 'NONE',  ( 0.000000000000000000, 43.00000000000000000, -12.00000000000000000 ) ) ;
#462 = EDGE_CURVE ( 'NONE', #498, #21, #499, .T. ) ;
#463 = DIRECTION ( 'NONE',  ( 0.000000000000000000, 1.000000000000000000, 0.000000000000000000 ) ) ;
#464 = AXIS2_PLACEMENT_3D ( 'NONE', #654, #126, #736 ) ;
#465 = LINE ( 'NONE', #57, #520 ) ;
#466 = LINE ( 'NONE', #694, #396 ) ;
#467 = DIRECTION ( 'NONE',  ( 1.577021341797096821E-15, 0.000000000000000000, 1.000000000000000000 ) ) ;
#468 = CIRCLE ( 'NONE', #857, 1.750000000000000000 ) ;
#469 = VERTEX_POINT ( 'NONE', #537 ) ;
#470 = CARTESIAN_POINT ( 'NONE',  ( 0.000000000000000000, 43.00000000000000000, 0.000000000000000000 ) ) ;
#471 = DIRECTION ( 'NONE',  ( 0.000000000000000000, 0.000000000000000000, 1.000000000000000000 ) ) ;
#472 = DIRECTION ( 'NONE',  ( -0.000000000000000000, -1.000000000000000000, -0.000000000000000000 ) ) ;
#473 = EDGE_CURVE ( 'NONE', #469, #492, #805, .T. ) ;
#474 = VERTEX_POINT ( 'NONE', #850 ) ;
#475 = AXIS2_PLACEMENT_3D ( 'NONE', #877, #324, #727 ) ;
#476 = CARTESIAN_POINT ( 'NONE',  ( 3.100000000000000089, 47.99999999999999289, -2.399999999999999911 ) ) ;
#477 = CARTESIAN_POINT ( 'NONE',  ( 6.986875000000000391, 43.00000000000000000, 0.4284597231654378446 ) ) ;
#478 = EDGE_CURVE ( 'NONE', #348, #612, #106, .T. ) ;
#479 = ORIENTED_EDGE ( 'NONE', *, *, #544, .T. ) ;
#480 = CC_DESIGN_APPROVAL ( #878, ( #954 ) ) ;
#481 = PLANE ( 'NONE',  #187 ) ;
#482 = EDGE_CURVE ( 'NONE', #27, #29, #411, .T. ) ;
#483 = ORIENTED_EDGE ( 'NONE', *, *, #726, .T. ) ;
#484 = VECTOR ( 'NONE', #542, 1000.000000000000000 ) ;
#485 = VERTEX_POINT ( 'NONE', #230 ) ;
#486 = VECTOR ( 'NONE', #367, 1000.000000000000000 ) ;
#487 = DIRECTION ( 'NONE',  ( -0.000000000000000000, 1.000000000000000000, -0.000000000000000000 ) ) ;
#488 = DIRECTION ( 'NONE',  ( 0.000000000000000000, 0.000000000000000000, 1.000000000000000000 ) ) ;
#489 = CARTESIAN_POINT ( 'NONE',  ( 0.000000000000000000, 0.000000000000000000, 0.000000000000000000 ) ) ;
#490 = ORIENTED_EDGE ( 'NONE', *, *, #473, .F. ) ;
#491 = VERTEX_POINT ( 'NONE', #219 ) ;
#492 = VERTEX_POINT ( 'NONE', #931 ) ;
#493 = DIRECTION ( 'NONE',  ( 0.000000000000000000, 0.000000000000000000, -1.000000000000000000 ) ) ;
#494 = CIRCLE ( 'NONE', #443, 1.100000000000000311 ) ;
#495 = EDGE_CURVE ( 'NONE', #809, #214, #771, .T. ) ;
#496 = ORIENTED_EDGE ( 'NONE', *, *, #999, .F. ) ;
#497 = ORIENTED_EDGE ( 'NONE', *, *, #823, .F. ) ;
#498 = VERTEX_POINT ( 'NONE', #77 ) ;
#499 = CIRCLE ( 'NONE', #675, 7.000000000000000000 ) ;
#500 = LINE ( 'NONE', #583, #284 ) ;
#501 = CIRCLE ( 'NONE', #63, 7.000000000000000000 ) ;
#502 = DIRECTION ( 'NONE',  ( 1.577021341797096821E-15, 0.000000000000000000, 1.000000000000000000 ) ) ;
#503 = EDGE_LOOP ( 'NONE', ( #563, #881 ) ) ;
#504 = EDGE_LOOP ( 'NONE', ( #724, #429, #908, #953 ) ) ;
#505 = CIRCLE ( 'NONE', #533, 7.000000000000000000 ) ;
#506 = CARTESIAN_POINT ( 'NONE',  ( 3.100000000000000089, 47.99999999999999289, -2.399999999999999911 ) ) ;
#507 = CARTESIAN_POINT ( 'NONE',  ( 6.986875000000000391, 47.99999999999999289, -0.4284597231654333482 ) ) ;
#508 = VERTEX_POINT ( 'NONE', #761 ) ;
#509 = ORIENTED_EDGE ( 'NONE', *, *, #701, .F. ) ;
#510 = ORIENTED_EDGE ( 'NONE', *, *, #972, .T. ) ;
#511 = DIRECTION ( 'NONE',  ( 0.000000000000000000, -0.000000000000000000, 1.000000000000000000 ) ) ;
#512 = ORIENTED_EDGE ( 'NONE', *, *, #150, .T. ) ;
#513 = VECTOR ( 'NONE', #437, 1000.000000000000000 ) ;
#514 = FACE_BOUND ( 'NONE', #977, .T. ) ;
#515 = EDGE_CURVE ( 'NONE', #885, #708, #383, .T. ) ;
#516 = FACE_OUTER_BOUND ( 'NONE', #648, .T. ) ;
#517 = APPLICATION_CONTEXT ( 'configuration controlled 3d designs of mechanical parts and assemblies' ) ;
#518 = ORIENTED_EDGE ( 'NONE', *, *, #599, .T. ) ;
#519 = CARTESIAN_POINT ( 'NONE',  ( -0.4284597231654372340, 43.50000000000000000, -6.986875000000002167 ) ) ;
#520 = VECTOR ( 'NONE', #673, 1000.000000000000000 ) ;
#521 = CARTESIAN_POINT ( 'NONE',  ( 3.262284475639731340, 43.00000000000000000, 2.399999999999999911 ) ) ;
#522 = CARTESIAN_POINT ( 'NONE',  ( 0.000000000000000000, 47.99999999999999289, 0.000000000000000000 ) ) ;
#523 = CARTESIAN_POINT ( 'NONE',  ( 3.262284475639731340, 47.99999999999999289, 2.399999999999999911 ) ) ;
#524 = EDGE_CURVE ( 'NONE', #104, #334, #466, .T. ) ;
#525 = DIRECTION ( 'NONE',  ( 0.000000000000000000, 1.000000000000000000, 0.000000000000000000 ) ) ;
#526 = COORDINATED_UNIVERSAL_TIME_OFFSET ( 6, 0, .BEHIND. ) ;
#527 = FACE_BOUND ( 'NONE', #569, .T. ) ;
#528 = DIRECTION ( 'NONE',  ( -0.000000000000000000, -1.000000000000000000, -0.000000000000000000 ) ) ;
#529 = CALENDAR_DATE ( 2026, 7, 9 ) ;
#530 = FACE_OUTER_BOUND ( 'NONE', #898, .T. ) ;
#531 = DIRECTION ( 'NONE',  ( 0.000000000000000000, -1.000000000000000000, 0.000000000000000000 ) ) ;
#532 = EDGE_CURVE ( 'NONE', #485, #799, #446, .T. ) ;
#533 = AXIS2_PLACEMENT_3D ( 'NONE', #213, #525, #140 ) ;
#534 = CARTESIAN_POINT ( 'NONE',  ( 0.000000000000000000, 47.99999999999999289, -8.000000000000000000 ) ) ;
#535 = DIRECTION ( 'NONE',  ( -0.000000000000000000, -1.000000000000000000, -0.000000000000000000 ) ) ;
#536 = ADVANCED_FACE ( 'NONE', ( #619 ), #160, .F. ) ;
#537 = CARTESIAN_POINT ( 'NONE',  ( 0.4284597231654359017, 43.00000000000000000, 6.986875000000000391 ) ) ;
#538 = CARTESIAN_POINT ( 'NONE',  ( -8.000000000000000000, 47.99999999999999289, -1.100000000000000311 ) ) ;
#539 = CARTESIAN_POINT ( 'NONE',  ( 8.000000000000000000, 43.00000000000000000, -1.100000000000000311 ) ) ;
#540 = ORIENTED_EDGE ( 'NONE', *, *, #800, .F. ) ;
#541 = CARTESIAN_POINT ( 'NONE',  ( 8.000000000000000000, 43.00000000000000000, 0.000000000000000000 ) ) ;
#542 = DIRECTION ( 'NONE',  ( 0.000000000000000000, -1.000000000000000000, 0.000000000000000000 ) ) ;
#543 = CIRCLE ( 'NONE', #233, 1.100000000000000311 ) ;
#544 = EDGE_CURVE ( 'NONE', #809, #968, #212, .T. ) ;
#545 = LOCAL_TIME ( 16, 17, 25.00000000000000000, #377 ) ;
#546 = VECTOR ( 'NONE', #301, 1000.000000000000000 ) ;
#547 = ORIENTED_EDGE ( 'NONE', *, *, #946, .T. ) ;
#548 = CARTESIAN_POINT ( 'NONE',  ( 0.000000000000000000, 40.00000000000000000, 0.000000000000000000 ) ) ;
#549 = DIRECTION ( 'NONE',  ( 0.000000000000000000, 0.000000000000000000, -1.000000000000000000 ) ) ;
#550 = AXIS2_PLACEMENT_3D ( 'NONE', #970, #572, #488 ) ;
#551 = VERTEX_POINT ( 'NONE', #6 ) ;
#552 = DIRECTION ( 'NONE',  ( -0.000000000000000000, -1.000000000000000000, -0.000000000000000000 ) ) ;
#553 = CARTESIAN_POINT ( 'NONE',  ( 3.100000000000000089, 47.99999999999999289, 2.399999999999999911 ) ) ;
#554 = EDGE_CURVE ( 'NONE', #214, #653, #913, .T. ) ;
#555 = ORIENTED_EDGE ( 'NONE', *, *, #726, .F. ) ;
#556 = EDGE_CURVE ( 'NONE', #492, #418, #853, .T. ) ;
#557 = DIRECTION ( 'NONE',  ( -0.000000000000000000, -1.000000000000000000, -0.000000000000000000 ) ) ;
#558 = ORIENTED_EDGE ( 'NONE', *, *, #972, .F. ) ;
#559 = CIRCLE ( 'NONE', #723, 1.100000000000000311 ) ;
#560 = VERTEX_POINT ( 'NONE', #145 ) ;
#561 = FACE_OUTER_BOUND ( 'NONE', #24, .T. ) ;
#562 = DIRECTION ( 'NONE',  ( 0.000000000000000000, 0.000000000000000000, -1.000000000000000000 ) ) ;
#563 = ORIENTED_EDGE ( 'NONE', *, *, #167, .T. ) ;
#564 = VERTEX_POINT ( 'NONE', #453 ) ;
#565 = AXIS2_PLACEMENT_3D ( 'NONE', #602, #316, #299 ) ;
#566 = EDGE_CURVE ( 'NONE', #581, #749, #543, .T. ) ;
#567 = DIRECTION ( 'NONE',  ( 0.000000000000000000, 0.000000000000000000, -1.000000000000000000 ) ) ;
#568 = ORIENTED_EDGE ( 'NONE', *, *, #767, .F. ) ;
#569 = EDGE_LOOP ( 'NONE', ( #796, #903 ) ) ;
#570 = CARTESIAN_POINT ( 'NONE',  ( -0.4284597231654325711, 47.99999999999999289, 6.986875000000000391 ) ) ;
#571 = CIRCLE ( 'NONE', #138, 12.00000000000000000 ) ;
#572 = DIRECTION ( 'NONE',  ( -0.000000000000000000, -1.000000000000000000, -0.000000000000000000 ) ) ;
#573 = VERTEX_POINT ( 'NONE', #833 ) ;
#574 = ORIENTED_EDGE ( 'NONE', *, *, #758, .T. ) ;
#575 = CARTESIAN_POINT ( 'NONE',  ( 0.000000000000000000, 47.99999999999999289, 0.000000000000000000 ) ) ;
#576 = CIRCLE ( 'NONE', #449, 1.750000000000000000 ) ;
#577 = ADVANCED_FACE ( 'NONE', ( #1003 ), #1000, .F. ) ;
#578 = CARTESIAN_POINT ( 'NONE',  ( 0.000000000000000000, 40.00000000000000000, 6.899999999999999467 ) ) ;
#579 = ORIENTED_EDGE ( 'NONE', *, *, #738, .T. ) ;
#580 = EDGE_LOOP ( 'NONE', ( #117, #183, #15, #806, #176, #435 ) ) ;
#581 = VERTEX_POINT ( 'NONE', #741 ) ;
#582 = CIRCLE ( 'NONE', #240, 12.00000000000000000 ) ;
#583 = CARTESIAN_POINT ( 'NONE',  ( 1.347111479062088503E-16, 47.99999999999999289, -6.899999999999999467 ) ) ;
#584 = EDGE_CURVE ( 'NONE', #29, #653, #992, .T. ) ;
#585 = ORIENTED_EDGE ( 'NONE', *, *, #644, .T. ) ;
#586 = ORIENTED_EDGE ( 'NONE', *, *, #620, .T. ) ;
#587 = DIRECTION ( 'NONE',  ( 0.000000000000000000, 1.000000000000000000, 0.000000000000000000 ) ) ;
#588 = CARTESIAN_POINT ( 'NONE',  ( 0.000000000000000000, 40.00000000000000000, 0.000000000000000000 ) ) ;
#589 = EDGE_LOOP ( 'NONE', ( #802, #879, #361, #893, #863, #129 ) ) ;
#590 = PERSON_AND_ORGANIZATION ( #859, #991 ) ;
#591 = ORIENTED_EDGE ( 'NONE', *, *, #267, .T. ) ;
#592 = AXIS2_PLACEMENT_3D ( 'NONE', #53, #808, #812 ) ;
#593 = DIRECTION ( 'NONE',  ( 1.000000000000000000, -0.000000000000000000, 0.000000000000000000 ) ) ;
#594 = CC_DESIGN_PERSON_AND_ORGANIZATION_ASSIGNMENT ( #590, #456, ( #45 ) ) ;
#595 = CARTESIAN_POINT ( 'NONE',  ( 1.469576158976823947E-15, 43.00000000000000000, 12.00000000000000000 ) ) ;
#596 = PERSON_AND_ORGANIZATION ( #859, #991 ) ;
#597 = CYLINDRICAL_SURFACE ( 'NONE', #795, 7.000000000000000000 ) ;
#598 = DIRECTION ( 'NONE',  ( -0.000000000000000000, 1.000000000000000000, -0.000000000000000000 ) ) ;
#599 = EDGE_CURVE ( 'NONE', #939, #659, #937, .T. ) ;
#600 = CARTESIAN_POINT ( 'NONE',  ( 0.000000000000000000, 47.99999999999999289, 8.000000000000000000 ) ) ;
#601 = DATE_AND_TIME ( #529, #109 ) ;
#602 = CARTESIAN_POINT ( 'NONE',  ( 0.000000000000000000, 47.99999999999999289, 0.000000000000000000 ) ) ;
#603 = DIRECTION ( 'NONE',  ( -0.000000000000000000, -1.000000000000000000, -0.000000000000000000 ) ) ;
#604 = CARTESIAN_POINT ( 'NONE',  ( 0.000000000000000000, 47.99999999999999289, 0.000000000000000000 ) ) ;
#605 = COORDINATED_UNIVERSAL_TIME_OFFSET ( 6, 0, .BEHIND. ) ;
#606 = DIRECTION ( 'NONE',  ( 0.000000000000000000, 0.000000000000000000, 1.000000000000000000 ) ) ;
#607 = CARTESIAN_POINT ( 'NONE',  ( -6.986875000000002167, 43.50000000000000000, -0.4284597231654372895 ) ) ;
#608 = DIRECTION ( 'NONE',  ( 0.000000000000000000, 0.000000000000000000, 1.000000000000000000 ) ) ;
#609 = EDGE_CURVE ( 'NONE', #485, #646, #209, .T. ) ;
#610 =( GEOMETRIC_REPRESENTATION_CONTEXT ( 3 ) GLOBAL_UNCERTAINTY_ASSIGNED_CONTEXT ( ( #791 ) ) GLOBAL_UNIT_ASSIGNED_CONTEXT ( ( #175, #309, #774 ) ) REPRESENTATION_CONTEXT ( 'NONE', 'WORKASPACE' ) );
#611 = COORDINATED_UNIVERSAL_TIME_OFFSET ( 6, 0, .BEHIND. ) ;
#612 = VERTEX_POINT ( 'NONE', #371 ) ;
#613 = DIRECTION ( 'NONE',  ( 1.000000000000000000, 0.000000000000000000, 0.000000000000000000 ) ) ;
#614 = DIRECTION ( 'NONE',  ( 0.000000000000000000, 0.000000000000000000, 1.000000000000000000 ) ) ;
#615 = AXIS2_PLACEMENT_3D ( 'NONE', #700, #228, #549 ) ;
#616 = VECTOR ( 'NONE', #155, 1000.000000000000000 ) ;
#617 = DIRECTION ( 'NONE',  ( -0.000000000000000000, -1.000000000000000000, -0.000000000000000000 ) ) ;
#618 = CARTESIAN_POINT ( 'NONE',  ( 0.000000000000000000, 40.00000000000000000, -8.000000000000000000 ) ) ;
#619 = FACE_OUTER_BOUND ( 'NONE', #504, .T. ) ;
#620 = EDGE_CURVE ( 'NONE', #168, #214, #677, .T. ) ;
#621 = FACE_OUTER_BOUND ( 'NONE', #249, .T. ) ;
#622 = EDGE_CURVE ( 'NONE', #276, #168, #855, .T. ) ;
#623 = ORIENTED_EDGE ( 'NONE', *, *, #440, .T. ) ;
#624 = CARTESIAN_POINT ( 'NONE',  ( 0.000000000000000000, 43.00000000000000000, 0.000000000000000000 ) ) ;
#625 = VECTOR ( 'NONE', #698, 1000.000000000000000 ) ;
#626 = CC_DESIGN_SECURITY_CLASSIFICATION ( #45, ( #954 ) ) ;
#627 = AXIS2_PLACEMENT_3D ( 'NONE', #588, #905, #666 ) ;
#628 = ORIENTED_EDGE ( 'NONE', *, *, #482, .F. ) ;
#629 = CARTESIAN_POINT ( 'NONE',  ( 0.4284597231654372340, 43.50000000000000000, 6.986875000000002167 ) ) ;
#630 = EDGE_CURVE ( 'NONE', #929, #564, #192, .T. ) ;
#631 = CARTESIAN_POINT ( 'NONE',  ( 0.000000000000000000, 47.99999999999999289, -9.099999999999999645 ) ) ;
#632 = CYLINDRICAL_SURFACE ( 'NONE', #615, 1.100000000000000311 ) ;
#633 = CIRCLE ( 'NONE', #996, 4.049999999999999822 ) ;
#634 = ORIENTED_EDGE ( 'NONE', *, *, #672, .T. ) ;
#635 = CYLINDRICAL_SURFACE ( 'NONE', #880, 7.000000000000000000 ) ;
#636 = LINE ( 'NONE', #710, #95 ) ;
#637 = DIRECTION ( 'NONE',  ( 0.000000000000000000, 1.000000000000000000, 0.000000000000000000 ) ) ;
#638 = EDGE_LOOP ( 'NONE', ( #90, #718, #397, #649 ) ) ;
#639 = ORIENTED_EDGE ( 'NONE', *, *, #125, .T. ) ;
#640 = DIRECTION ( 'NONE',  ( -0.000000000000000000, -1.000000000000000000, -0.000000000000000000 ) ) ;
#641 = PERSON_AND_ORGANIZATION ( #859, #991 ) ;
#642 = EDGE_LOOP ( 'NONE', ( #496, #189, #103, #234 ) ) ;
#643 = AXIS2_PLACEMENT_3D ( 'NONE', #506, #899, #203 ) ;
#644 = EDGE_CURVE ( 'NONE', #573, #191, #501, .T. ) ;
#645 = ORIENTED_EDGE ( 'NONE', *, *, #800, .T. ) ;
#646 = VERTEX_POINT ( 'NONE', #922 ) ;
#647 = CARTESIAN_POINT ( 'NONE',  ( 0.000000000000000000, 43.00000000000000000, 0.000000000000000000 ) ) ;
#648 = EDGE_LOOP ( 'NONE', ( #875, #490, #591, #943, #86, #262 ) ) ;
#649 = ORIENTED_EDGE ( 'NONE', *, *, #89, .F. ) ;
#650 = CYLINDRICAL_SURFACE ( 'NONE', #252, 1.750000000000000000 ) ;
#651 = DIRECTION ( 'NONE',  ( -0.000000000000000000, -0.000000000000000000, 1.000000000000000000 ) ) ;
#652 = EDGE_LOOP ( 'NONE', ( #123, #512, #434, #781, #122, #327 ) ) ;
#653 = VERTEX_POINT ( 'NONE', #521 ) ;
#654 = CARTESIAN_POINT ( 'NONE',  ( 0.000000000000000000, 47.99999999999999289, 0.000000000000000000 ) ) ;
#655 = AXIS2_PLACEMENT_3D ( 'NONE', #16, #392, #790 ) ;
#656 = FACE_OUTER_BOUND ( 'NONE', #892, .T. ) ;
#657 = ORIENTED_EDGE ( 'NONE', *, *, #188, .T. ) ;
#658 = ORIENTED_EDGE ( 'NONE', *, *, #532, .T. ) ;
#659 = VERTEX_POINT ( 'NONE', #364 ) ;
#660 = DIRECTION ( 'NONE',  ( 0.000000000000000000, 0.000000000000000000, 1.000000000000000000 ) ) ;
#661 = ADVANCED_FACE ( 'NONE', ( #829 ), #220, .T. ) ;
#662 = EDGE_LOOP ( 'NONE', ( #669, #341, #821, #260 ) ) ;
#663 = EDGE_CURVE ( 'NONE', #201, #551, #576, .T. ) ;
#664 = AXIS2_PLACEMENT_3D ( 'NONE', #211, #61, #692 ) ;
#665 = CARTESIAN_POINT ( 'NONE',  ( -8.000000000000000000, 43.00000000000000000, 0.000000000000000000 ) ) ;
#666 = DIRECTION ( 'NONE',  ( 0.000000000000000000, 0.000000000000000000, 1.000000000000000000 ) ) ;
#667 = ORIENTED_EDGE ( 'NONE', *, *, #47, .T. ) ;
#668 = CALENDAR_DATE ( 2026, 7, 9 ) ;
#669 = ORIENTED_EDGE ( 'NONE', *, *, #450, .F. ) ;
#670 = DIRECTION ( 'NONE',  ( 0.000000000000000000, 0.000000000000000000, 1.000000000000000000 ) ) ;
#671 = DIRECTION ( 'NONE',  ( 0.000000000000000000, 0.000000000000000000, 1.000000000000000000 ) ) ;
#672 = EDGE_CURVE ( 'NONE', #474, #245, #707, .T. ) ;
#673 = DIRECTION ( 'NONE',  ( -0.000000000000000000, -1.000000000000000000, -0.000000000000000000 ) ) ;
#674 = DIRECTION ( 'NONE',  ( 0.000000000000000000, -1.000000000000000000, 0.000000000000000000 ) ) ;
#675 = AXIS2_PLACEMENT_3D ( 'NONE', #684, #315, #225 ) ;
#676 = LOCAL_TIME ( 16, 17, 25.00000000000000000, #605 ) ;
#677 = CIRCLE ( 'NONE', #365, 4.049999999999999822 ) ;
#678 = CYLINDRICAL_SURFACE ( 'NONE', #271, 1.100000000000000311 ) ;
#679 = COORDINATED_UNIVERSAL_TIME_OFFSET ( 6, 0, .BEHIND. ) ;
#680 = DIRECTION ( 'NONE',  ( 0.000000000000000000, -1.000000000000000000, 0.000000000000000000 ) ) ;
#681 = AXIS2_PLACEMENT_3D ( 'NONE', #773, #932, #467 ) ;
#682 = CARTESIAN_POINT ( 'NONE',  ( 0.000000000000000000, 47.99999999999999289, 0.000000000000000000 ) ) ;
#683 = PERSON_AND_ORGANIZATION ( #859, #991 ) ;
#684 = CARTESIAN_POINT ( 'NONE',  ( 0.000000000000000000, 43.00000000000000000, 0.000000000000000000 ) ) ;
#685 = DIRECTION ( 'NONE',  ( 0.000000000000000000, 0.000000000000000000, 1.000000000000000000 ) ) ;
#686 = PERSON_AND_ORGANIZATION_ROLE ( 'creator' ) ;
#687 = CARTESIAN_POINT ( 'NONE',  ( 4.959819536546779614E-16, 47.99999999999999289, 4.049999999999999822 ) ) ;
#688 = DIRECTION ( 'NONE',  ( 0.000000000000000000, 0.000000000000000000, 1.000000000000000000 ) ) ;
#689 = AXIS2_PLACEMENT_3D ( 'NONE', #740, #587, #670 ) ;
#690 = CARTESIAN_POINT ( 'NONE',  ( 0.000000000000000000, 47.99999999999999289, 8.000000000000000000 ) ) ;
#691 = DIRECTION ( 'NONE',  ( -0.000000000000000000, -1.000000000000000000, -0.000000000000000000 ) ) ;
#692 = DIRECTION ( 'NONE',  ( 0.000000000000000000, 0.000000000000000000, -1.000000000000000000 ) ) ;
#693 = ADVANCED_FACE ( 'NONE', ( #516 ), #678, .F. ) ;
#694 = CARTESIAN_POINT ( 'NONE',  ( 3.100000000000000089, 43.00000000000000000, -2.399999999999999911 ) ) ;
#695 = DIRECTION ( 'NONE',  ( 0.000000000000000000, -1.000000000000000000, 0.000000000000000000 ) ) ;
#696 = VECTOR ( 'NONE', #695, 1000.000000000000000 ) ;
#697 = DIRECTION ( 'NONE',  ( 1.000000000000000000, 0.000000000000000000, 0.000000000000000000 ) ) ;
#698 = DIRECTION ( 'NONE',  ( -0.000000000000000000, -1.000000000000000000, -0.000000000000000000 ) ) ;
#699 = CARTESIAN_POINT ( 'NONE',  ( 3.100000000000000089, 43.00000000000000000, 2.399999999999999911 ) ) ;
#700 = CARTESIAN_POINT ( 'NONE',  ( 8.000000000000000000, 47.99999999999999289, 0.000000000000000000 ) ) ;
#701 = EDGE_CURVE ( 'NONE', #560, #98, #837, .T. ) ;
#702 = ORIENTED_EDGE ( 'NONE', *, *, #305, .T. ) ;
#703 = DIRECTION ( 'NONE',  ( 0.000000000000000000, 1.000000000000000000, 0.000000000000000000 ) ) ;
#704 = DIRECTION ( 'NONE',  ( 0.000000000000000000, 0.000000000000000000, -1.000000000000000000 ) ) ;
#705 = VECTOR ( 'NONE', #531, 1000.000000000000000 ) ;
#706 = CC_DESIGN_APPROVAL ( #231, ( #45 ) ) ;
#707 = CIRCLE ( 'NONE', #756, 1.100000000000000311 ) ;
#708 = VERTEX_POINT ( 'NONE', #442 ) ;
#709 = CARTESIAN_POINT ( 'NONE',  ( 3.262284475639731340, 47.99999999999999289, 2.399999999999999911 ) ) ;
#710 = CARTESIAN_POINT ( 'NONE',  ( 2.143131898507868297E-16, 43.00000000000000000, 1.750000000000000000 ) ) ;
#711 = CARTESIAN_POINT ( 'NONE',  ( 3.100000000000000089, 43.00000000000000000, 2.399999999999999911 ) ) ;
#712 = VECTOR ( 'NONE', #651, 1000.000000000000000 ) ;
#713 = ORIENTED_EDGE ( 'NONE', *, *, #150, .F. ) ;
#714 = CYLINDRICAL_SURFACE ( 'NONE', #79, 1.100000000000000311 ) ;
#715 = EDGE_CURVE ( 'NONE', #297, #97, #438, .T. ) ;
#716 = CYLINDRICAL_SURFACE ( 'NONE', #941, 1.100000000000000311 ) ;
#717 = MECHANICAL_CONTEXT ( 'NONE', #517, 'mechanical' ) ;
#718 = ORIENTED_EDGE ( 'NONE', *, *, #417, .T. ) ;
#719 = VERTEX_POINT ( 'NONE', #356 ) ;
#720 = CARTESIAN_POINT ( 'NONE',  ( 4.959819536546779614E-16, 47.99999999999999289, 4.049999999999999822 ) ) ;
#721 = LINE ( 'NONE', #340, #180 ) ;
#722 = ORIENTED_EDGE ( 'NONE', *, *, #622, .T. ) ;
#723 = AXIS2_PLACEMENT_3D ( 'NONE', #665, #359, #969 ) ;
#724 = ORIENTED_EDGE ( 'NONE', *, *, #609, .F. ) ;
#725 = ORIENTED_EDGE ( 'NONE', *, *, #267, .F. ) ;
#726 = EDGE_CURVE ( 'NONE', #491, #564, #748, .T. ) ;
#727 = DIRECTION ( 'NONE',  ( 0.000000000000000000, 0.000000000000000000, -1.000000000000000000 ) ) ;
#728 = ORIENTED_EDGE ( 'NONE', *, *, #17, .F. ) ;
#729 = VECTOR ( 'NONE', #862, 1000.000000000000000 ) ;
#730 = ORIENTED_EDGE ( 'NONE', *, *, #949, .T. ) ;
#731 = CARTESIAN_POINT ( 'NONE',  ( -8.000000000000000000, 40.00000000000000000, 0.000000000000000000 ) ) ;
#732 = CARTESIAN_POINT ( 'NONE',  ( 1.347111479062088257E-16, 40.00000000000000000, 9.099999999999999645 ) ) ;
#733 = EDGE_LOOP ( 'NONE', ( #574, #579, #713, #896 ) ) ;
#734 = ORIENTED_EDGE ( 'NONE', *, *, #813, .F. ) ;
#735 = EDGE_CURVE ( 'NONE', #348, #508, #505, .T. ) ;
#736 = DIRECTION ( 'NONE',  ( 0.000000000000000000, 0.000000000000000000, -1.000000000000000000 ) ) ;
#737 = ORIENTED_EDGE ( 'NONE', *, *, #584, .F. ) ;
#738 = EDGE_CURVE ( 'NONE', #276, #27, #243, .T. ) ;
#739 = ORIENTED_EDGE ( 'NONE', *, *, #767, .T. ) ;
#740 = CARTESIAN_POINT ( 'NONE',  ( 0.000000000000000000, 43.00000000000000000, 0.000000000000000000 ) ) ;
#741 = CARTESIAN_POINT ( 'NONE',  ( 1.347111479062088257E-16, 47.99999999999999289, -6.899999999999999467 ) ) ;
#742 = PRODUCT_DEFINITION ( 'UNKNOWN', '', #954, #393 ) ;
#743 = ORIENTED_EDGE ( 'NONE', *, *, #495, .F. ) ;
#744 = CIRCLE ( 'NONE', #18, 1.100000000000000311 ) ;
#745 = CIRCLE ( 'NONE', #874, 1.100000000000000311 ) ;
#746 = FACE_OUTER_BOUND ( 'NONE', #39, .T. ) ;
#747 = EDGE_CURVE ( 'NONE', #245, #418, #232, .T. ) ;
#748 = LINE ( 'NONE', #55, #990 ) ;
#749 = VERTEX_POINT ( 'NONE', #783 ) ;
#750 = CARTESIAN_POINT ( 'NONE',  ( 3.100000000000000089, 47.99999999999999289, 2.399999999999999911 ) ) ;
#751 = CARTESIAN_POINT ( 'NONE',  ( 0.000000000000000000, 43.00000000000000000, 0.000000000000000000 ) ) ;
#752 = PERSON_AND_ORGANIZATION_ROLE ( 'design_supplier' ) ;
#753 = CARTESIAN_POINT ( 'NONE',  ( 6.986875000000002167, 43.50000000000000000, 0.4284597231654372895 ) ) ;
#754 = CARTESIAN_POINT ( 'NONE',  ( 0.000000000000000000, 43.00000000000000000, 8.000000000000000000 ) ) ;
#755 = VECTOR ( 'NONE', #445, 1000.000000000000000 ) ;
#756 = AXIS2_PLACEMENT_3D ( 'NONE', #146, #455, #48 ) ;
#757 = DIRECTION ( 'NONE',  ( 0.000000000000000000, 1.000000000000000000, 0.000000000000000000 ) ) ;
#758 = EDGE_CURVE ( 'NONE', #719, #276, #633, .T. ) ;
#759 = DATE_AND_TIME ( #826, #676 ) ;
#760 = ORIENTED_EDGE ( 'NONE', *, *, #566, .F. ) ;
#761 = CARTESIAN_POINT ( 'NONE',  ( -6.986875000000000391, 43.00000000000000000, -0.4284597231654378446 ) ) ;
#762 = CIRCLE ( 'NONE', #32, 1.100000000000000311 ) ;
#763 = CARTESIAN_POINT ( 'NONE',  ( 0.000000000000000000, 40.00000000000000000, -8.000000000000000000 ) ) ;
#764 = ADVANCED_BREP_SHAPE_REPRESENTATION ( 'ARM-003_Yaw_D_drive_collar', ( #415, #320 ), #610 ) ;
#765 = ORIENTED_EDGE ( 'NONE', *, *, #747, .T. ) ;
#766 = CARTESIAN_POINT ( 'NONE',  ( 0.000000000000000000, 43.00000000000000000, -8.000000000000000000 ) ) ;
#767 = EDGE_CURVE ( 'NONE', #97, #346, #582, .T. ) ;
#768 = CARTESIAN_POINT ( 'NONE',  ( 3.100000000000000089, 47.99999999999999289, -2.399999999999999911 ) ) ;
#769 = CALENDAR_DATE ( 2026, 7, 9 ) ;
#770 = DIRECTION ( 'NONE',  ( -0.000000000000000000, 1.000000000000000000, -0.000000000000000000 ) ) ;
#771 = LINE ( 'NONE', #306, #318 ) ;
#772 = VECTOR ( 'NONE', #487, 1000.000000000000000 ) ;
#773 = CARTESIAN_POINT ( 'NONE',  ( -8.000000000000000000, 43.00000000000000000, 0.000000000000000000 ) ) ;
#774 =( NAMED_UNIT ( * ) SI_UNIT ( $, .STERADIAN. ) SOLID_ANGLE_UNIT ( ) );
#775 = CC_DESIGN_DATE_AND_TIME_ASSIGNMENT ( #601, #366, ( #742 ) ) ;
#776 = APPLICATION_CONTEXT ( 'configuration controlled 3d designs of mechanical parts and assemblies' ) ;
#777 = DIRECTION ( 'NONE',  ( 0.000000000000000000, 0.000000000000000000, 1.000000000000000000 ) ) ;
#778 = DIRECTION ( 'NONE',  ( 0.000000000000000000, 0.000000000000000000, 1.000000000000000000 ) ) ;
#779 = DIRECTION ( 'NONE',  ( 0.000000000000000000, 1.000000000000000000, 0.000000000000000000 ) ) ;
#780 = EDGE_CURVE ( 'NONE', #282, #581, #793, .T. ) ;
#781 = ORIENTED_EDGE ( 'NONE', *, *, #584, .T. ) ;
#782 = CARTESIAN_POINT ( 'NONE',  ( 8.000000000000000000, 40.00000000000000000, 0.000000000000000000 ) ) ;
#783 = CARTESIAN_POINT ( 'NONE',  ( 0.4284597231654325711, 47.99999999999999289, -6.986875000000000391 ) ) ;
#784 = DIRECTION ( 'NONE',  ( 0.000000000000000000, 1.000000000000000000, 0.000000000000000000 ) ) ;
#785 = ORIENTED_EDGE ( 'NONE', *, *, #630, .F. ) ;
#786 = CARTESIAN_POINT ( 'NONE',  ( 0.000000000000000000, 43.00000000000000000, -1.750000000000000000 ) ) ;
#787 = CARTESIAN_POINT ( 'NONE',  ( 0.000000000000000000, 47.99999999999999289, -4.049999999999999822 ) ) ;
#788 = EDGE_LOOP ( 'NONE', ( #804, #518 ) ) ;
#789 = EDGE_CURVE ( 'NONE', #968, #653, #80, .T. ) ;
#790 = DIRECTION ( 'NONE',  ( 0.000000000000000000, 0.000000000000000000, 1.000000000000000000 ) ) ;
#791 = UNCERTAINTY_MEASURE_WITH_UNIT (LENGTH_MEASURE( 1.000000000000000082E-05 ), #175, 'distance_accuracy_value', 'NONE');
#792 = DIRECTION ( 'NONE',  ( -0.000000000000000000, -1.000000000000000000, -0.000000000000000000 ) ) ;
#793 = CIRCLE ( 'NONE', #842, 1.100000000000000311 ) ;
#794 = EDGE_LOOP ( 'NONE', ( #342, #428, #336, #416, #585, #978, #254, #760, #357, #401 ) ) ;
#795 = AXIS2_PLACEMENT_3D ( 'NONE', #522, #830, #137 ) ;
#796 = ORIENTED_EDGE ( 'NONE', *, *, #930, .F. ) ;
#797 = LINE ( 'NONE', #476, #967 ) ;
#798 = DIRECTION ( 'NONE',  ( 0.000000000000000000, -1.000000000000000000, 0.000000000000000000 ) ) ;
#799 = VERTEX_POINT ( 'NONE', #477 ) ;
#800 = EDGE_CURVE ( 'NONE', #10, #508, #290, .T. ) ;
#801 = ORIENTED_EDGE ( 'NONE', *, *, #7, .T. ) ;
#802 = ORIENTED_EDGE ( 'NONE', *, *, #758, .F. ) ;
#803 = FACE_OUTER_BOUND ( 'NONE', #186, .T. ) ;
#804 = ORIENTED_EDGE ( 'NONE', *, *, #823, .T. ) ;
#805 = CIRCLE ( 'NONE', #62, 1.100000000000000311 ) ;
#806 = ORIENTED_EDGE ( 'NONE', *, *, #852, .F. ) ;
#807 = AXIS2_PLACEMENT_3D ( 'NONE', #980, #65, #986 ) ;
#808 = DIRECTION ( 'NONE',  ( 0.000000000000000000, 1.000000000000000000, 0.000000000000000000 ) ) ;
#809 = VERTEX_POINT ( 'NONE', #553 ) ;
#810 = EDGE_CURVE ( 'NONE', #491, #10, #762, .T. ) ;
#811 = AXIS2_PLACEMENT_3D ( 'NONE', #1008, #84, #380 ) ;
#812 = DIRECTION ( 'NONE',  ( 0.000000000000000000, 0.000000000000000000, 1.000000000000000000 ) ) ;
#813 = EDGE_CURVE ( 'NONE', #612, #21, #310, .T. ) ;
#814 = CARTESIAN_POINT ( 'NONE',  ( 8.000000000000000000, 40.00000000000000000, 0.000000000000000000 ) ) ;
#815 = ORIENTED_EDGE ( 'NONE', *, *, #355, .T. ) ;
#816 = ORIENTED_EDGE ( 'NONE', *, *, #237, .F. ) ;
#817 = CARTESIAN_POINT ( 'NONE',  ( 6.986875000000002167, 43.50000000000000000, -0.4284597231654372895 ) ) ;
#818 = PRODUCT_RELATED_PRODUCT_CATEGORY ( 'detail', '', ( #112 ) ) ;
#819 = DIRECTION ( 'NONE',  ( 0.000000000000000000, 0.000000000000000000, 1.000000000000000000 ) ) ;
#820 = AXIS2_PLACEMENT_3D ( 'NONE', #151, #312, #1002 ) ;
#821 = ORIENTED_EDGE ( 'NONE', *, *, #300, .F. ) ;
#822 = FACE_BOUND ( 'NONE', #164, .T. ) ;
#823 = EDGE_CURVE ( 'NONE', #659, #939, #468, .T. ) ;
#824 = AXIS2_PLACEMENT_3D ( 'NONE', #91, #26, #567 ) ;
#825 = DIRECTION ( 'NONE',  ( -0.000000000000000000, -1.000000000000000000, -0.000000000000000000 ) ) ;
#826 = CALENDAR_DATE ( 2026, 7, 9 ) ;
#827 = ORIENTED_EDGE ( 'NONE', *, *, #405, .F. ) ;
#828 = CYLINDRICAL_SURFACE ( 'NONE', #464, 4.049999999999999822 ) ;
#829 = FACE_OUTER_BOUND ( 'NONE', #662, .T. ) ;
#830 = DIRECTION ( 'NONE',  ( -0.000000000000000000, -1.000000000000000000, -0.000000000000000000 ) ) ;
#831 = CC_DESIGN_PERSON_AND_ORGANIZATION_ASSIGNMENT ( #641, #917, ( #112 ) ) ;
#832 = DIRECTION ( 'NONE',  ( -0.000000000000000000, -1.000000000000000000, -0.000000000000000000 ) ) ;
#833 = CARTESIAN_POINT ( 'NONE',  ( 0.4284597231654325711, 47.99999999999999289, 6.986875000000000391 ) ) ;
#834 = SECURITY_CLASSIFICATION_LEVEL ( 'unclassified' ) ;
#835 = FACE_BOUND ( 'NONE', #256, .T. ) ;
#836 = AXIS2_PLACEMENT_3D ( 'NONE', #293, #603, #215 ) ;
#837 = CIRCLE ( 'NONE', #413, 1.100000000000000311 ) ;
#838 = CARTESIAN_POINT ( 'NONE',  ( 0.000000000000000000, 47.99999999999999289, 0.000000000000000000 ) ) ;
#839 = ADVANCED_FACE ( 'NONE', ( #170, #153 ), #162, .T. ) ;
#840 = CARTESIAN_POINT ( 'NONE',  ( 3.100000000000000089, 47.99999999999999289, -2.399999999999999911 ) ) ;
#841 = CARTESIAN_POINT ( 'NONE',  ( 0.000000000000000000, 43.00000000000000000, 0.000000000000000000 ) ) ;
#842 = AXIS2_PLACEMENT_3D ( 'NONE', #534, #927, #471 ) ;
#843 = CARTESIAN_POINT ( 'NONE',  ( 1.347111479062088257E-16, 40.00000000000000000, -6.899999999999999467 ) ) ;
#844 = ADVANCED_FACE ( 'NONE', ( #92 ), #394, .T. ) ;
#845 = DIRECTION ( 'NONE',  ( 0.000000000000000000, -1.000000000000000000, 0.000000000000000000 ) ) ;
#846 = DIRECTION ( 'NONE',  ( -0.000000000000000000, -1.000000000000000000, -0.000000000000000000 ) ) ;
#847 = LINE ( 'NONE', #607, #755 ) ;
#848 = FACE_OUTER_BOUND ( 'NONE', #264, .T. ) ;
#849 = ORIENTED_EDGE ( 'NONE', *, *, #294, .T. ) ;
#850 = CARTESIAN_POINT ( 'NONE',  ( 0.000000000000000000, 47.99999999999999289, 6.899999999999999467 ) ) ;
#851 = VECTOR ( 'NONE', #207, 1000.000000000000000 ) ;
#852 = EDGE_CURVE ( 'NONE', #612, #560, #399, .T. ) ;
#853 = CIRCLE ( 'NONE', #836, 1.100000000000000311 ) ;
#854 = DIRECTION ( 'NONE',  ( 0.000000000000000000, 1.000000000000000000, 0.000000000000000000 ) ) ;
#855 = CIRCLE ( 'NONE', #236, 4.049999999999999822 ) ;
#856 = ORIENTED_EDGE ( 'NONE', *, *, #405, .T. ) ;
#857 = AXIS2_PLACEMENT_3D ( 'NONE', #548, #9, #458 ) ;
#858 = DIRECTION ( 'NONE',  ( 0.000000000000000000, 0.000000000000000000, 1.000000000000000000 ) ) ;
#859 = PERSON ( 'UNSPECIFIED', 'UNSPECIFIED', 'UNSPECIFIED', ('UNSPECIFIED'), ('UNSPECIFIED'), ('UNSPECIFIED') ) ;
#860 = ORIENTED_EDGE ( 'NONE', *, *, #897, .T. ) ;
#861 = CARTESIAN_POINT ( 'NONE',  ( -6.986875000000000391, 47.99999999999999289, 0.4284597231654333482 ) ) ;
#862 = DIRECTION ( 'NONE',  ( -0.000000000000000000, -1.000000000000000000, -0.000000000000000000 ) ) ;
#863 = ORIENTED_EDGE ( 'NONE', *, *, #620, .F. ) ;
#864 = FACE_OUTER_BOUND ( 'NONE', #273, .T. ) ;
#865 = AXIS2_PLACEMENT_3D ( 'NONE', #575, #130, #660 ) ;
#866 = ORIENTED_EDGE ( 'NONE', *, *, #701, .T. ) ;
#867 = EDGE_CURVE ( 'NONE', #551, #939, #636, .T. ) ;
#868 = VERTEX_POINT ( 'NONE', #768 ) ;
#869 = DIRECTION ( 'NONE',  ( 0.000000000000000000, 1.000000000000000000, 0.000000000000000000 ) ) ;
#870 = ADVANCED_FACE ( 'NONE', ( #621 ), #13, .F. ) ;
#871 = DIRECTION ( 'NONE',  ( 1.000000000000000000, 0.000000000000000000, 0.000000000000000000 ) ) ;
#872 = VECTOR ( 'NONE', #637, 1000.000000000000000 ) ;
#873 = ORIENTED_EDGE ( 'NONE', *, *, #478, .T. ) ;
#874 = AXIS2_PLACEMENT_3D ( 'NONE', #690, #307, #614 ) ;
#875 = ORIENTED_EDGE ( 'NONE', *, *, #305, .F. ) ;
#876 = ORIENTED_EDGE ( 'NONE', *, *, #462, .F. ) ;
#877 = CARTESIAN_POINT ( 'NONE',  ( 0.000000000000000000, 43.00000000000000000, 0.000000000000000000 ) ) ;
#878 = APPROVAL ( #1004, 'UNSPECIFIED' ) ;
#879 = ORIENTED_EDGE ( 'NONE', *, *, #52, .T. ) ;
#880 = AXIS2_PLACEMENT_3D ( 'NONE', #246, #557, #105 ) ;
#881 = ORIENTED_EDGE ( 'NONE', *, *, #1, .T. ) ;
#882 = FACE_BOUND ( 'NONE', #277, .T. ) ;
#883 = ADVANCED_FACE ( 'NONE', ( #19 ), #942, .F. ) ;
#884 = CARTESIAN_POINT ( 'NONE',  ( 2.143131898507868297E-16, 40.00000000000000000, 1.750000000000000000 ) ) ;
#885 = VERTEX_POINT ( 'NONE', #539 ) ;
#886 = AXIS2_PLACEMENT_3D ( 'NONE', #841, #919, #1007 ) ;
#887 = EDGE_LOOP ( 'NONE', ( #329, #193, #547, #734, #424, #866 ) ) ;
#888 = AXIS2_PLACEMENT_3D ( 'NONE', #911, #295, #128 ) ;
#889 = DIRECTION ( 'NONE',  ( -0.000000000000000000, -1.000000000000000000, -0.000000000000000000 ) ) ;
#890 = EDGE_LOOP ( 'NONE', ( #93, #337, #119, #172 ) ) ;
#891 = AXIS2_PLACEMENT_3D ( 'NONE', #814, #42, #163 ) ;
#892 = EDGE_LOOP ( 'NONE', ( #347, #702, #30, #439, #634, #765 ) ) ;
#893 = ORIENTED_EDGE ( 'NONE', *, *, #495, .T. ) ;
#894 = ADVANCED_FACE ( 'NONE', ( #848 ), #157, .F. ) ;
#895 = FACE_OUTER_BOUND ( 'NONE', #794, .T. ) ;
#896 = ORIENTED_EDGE ( 'NONE', *, *, #999, .T. ) ;
#897 = EDGE_CURVE ( 'NONE', #498, #885, #744, .T. ) ;
#898 = EDGE_LOOP ( 'NONE', ( #555, #827, #801, #133, #270, #540, #639, #326 ) ) ;
#899 = DIRECTION ( 'NONE',  ( 0.000000000000000000, 0.000000000000000000, 1.000000000000000000 ) ) ;
#900 = DIRECTION ( 'NONE',  ( 0.000000000000000000, 1.000000000000000000, 0.000000000000000000 ) ) ;
#901 = AXIS2_PLACEMENT_3D ( 'NONE', #750, #593, #58 ) ;
#902 = ORIENTED_EDGE ( 'NONE', *, *, #125, .F. ) ;
#903 = ORIENTED_EDGE ( 'NONE', *, *, #100, .F. ) ;
#904 = CARTESIAN_POINT ( 'NONE',  ( -0.4284597231654325711, 47.99999999999999289, -6.986875000000000391 ) ) ;
#905 = DIRECTION ( 'NONE',  ( 0.000000000000000000, 1.000000000000000000, 0.000000000000000000 ) ) ;
#906 = PERSON_AND_ORGANIZATION_ROLE ( 'creator' ) ;
#907 = AXIS2_PLACEMENT_3D ( 'NONE', #74, #322, #384 ) ;
#908 = ORIENTED_EDGE ( 'NONE', *, *, #515, .T. ) ;
#909 = DIRECTION ( 'NONE',  ( -0.000000000000000000, -1.000000000000000000, -0.000000000000000000 ) ) ;
#910 = EDGE_CURVE ( 'NONE', #474, #962, #96, .T. ) ;
#911 = CARTESIAN_POINT ( 'NONE',  ( 0.000000000000000000, 47.99999999999999289, 0.000000000000000000 ) ) ;
#912 = CARTESIAN_POINT ( 'NONE',  ( 0.000000000000000000, 43.00000000000000000, 0.000000000000000000 ) ) ;
#913 = LINE ( 'NONE', #523, #268 ) ;
#914 = AXIS2_PLACEMENT_3D ( 'NONE', #647, #869, #407 ) ;
#915 = ADVANCED_FACE ( 'NONE', ( #656 ), #716, .F. ) ;
#916 = DIRECTION ( 'NONE',  ( 0.000000000000000000, 1.000000000000000000, 0.000000000000000000 ) ) ;
#917 = PERSON_AND_ORGANIZATION_ROLE ( 'design_owner' ) ;
#918 = CARTESIAN_POINT ( 'NONE',  ( 4.959819536546779614E-16, 43.00000000000000000, 4.049999999999999822 ) ) ;
#919 = DIRECTION ( 'NONE',  ( 0.000000000000000000, 1.000000000000000000, 0.000000000000000000 ) ) ;
#920 = CARTESIAN_POINT ( 'NONE',  ( 1.469576158976823947E-15, 40.00000000000000000, 12.00000000000000000 ) ) ;
#921 = APPROVAL_PERSON_ORGANIZATION ( #154, #174, #459 ) ;
#922 = CARTESIAN_POINT ( 'NONE',  ( 8.000000000000000000, 40.00000000000000000, 1.100000000000000311 ) ) ;
#923 = PERSON_AND_ORGANIZATION ( #859, #991 ) ;
#924 = VERTEX_POINT ( 'NONE', #732 ) ;
#925 = DIRECTION ( 'NONE',  ( 0.000000000000000000, 0.000000000000000000, 1.000000000000000000 ) ) ;
#926 = VECTOR ( 'NONE', #116, 1000.000000000000000 ) ;
#927 = DIRECTION ( 'NONE',  ( 0.000000000000000000, 1.000000000000000000, 0.000000000000000000 ) ) ;
#928 = FACE_OUTER_BOUND ( 'NONE', #124, .T. ) ;
#929 = VERTEX_POINT ( 'NONE', #952 ) ;
#930 = EDGE_CURVE ( 'NONE', #962, #924, #67, .T. ) ;
#931 = CARTESIAN_POINT ( 'NONE',  ( 1.347111479062088257E-16, 43.00000000000000000, 9.099999999999999645 ) ) ;
#932 = DIRECTION ( 'NONE',  ( -0.000000000000000000, -1.000000000000000000, -0.000000000000000000 ) ) ;
#933 = ORIENTED_EDGE ( 'NONE', *, *, #946, .F. ) ;
#934 = DIRECTION ( 'NONE',  ( -0.000000000000000000, -1.000000000000000000, -0.000000000000000000 ) ) ;
#935 = AXIS2_PLACEMENT_3D ( 'NONE', #82, #680, #387 ) ;
#936 = DIRECTION ( 'NONE',  ( 0.000000000000000000, -0.000000000000000000, 1.000000000000000000 ) ) ;
#937 = CIRCLE ( 'NONE', #627, 1.750000000000000000 ) ;
#938 = CARTESIAN_POINT ( 'NONE',  ( 0.000000000000000000, 43.00000000000000000, -12.00000000000000000 ) ) ;
#939 = VERTEX_POINT ( 'NONE', #884 ) ;
#940 = CARTESIAN_POINT ( 'NONE',  ( 0.000000000000000000, 47.99999999999999289, -4.049999999999999822 ) ) ;
#941 = AXIS2_PLACEMENT_3D ( 'NONE', #33, #798, #121 ) ;
#942 = CYLINDRICAL_SURFACE ( 'NONE', #223, 1.750000000000000000 ) ;
#943 = ORIENTED_EDGE ( 'NONE', *, *, #118, .T. ) ;
#944 = CYLINDRICAL_SURFACE ( 'NONE', #824, 12.00000000000000000 ) ;
#945 = DIRECTION ( 'NONE',  ( 0.000000000000000000, 1.000000000000000000, 0.000000000000000000 ) ) ;
#946 = EDGE_CURVE ( 'NONE', #749, #21, #721, .T. ) ;
#947 = ORIENTED_EDGE ( 'NONE', *, *, #813, .T. ) ;
#948 = ORIENTED_EDGE ( 'NONE', *, *, #897, .F. ) ;
#949 = EDGE_CURVE ( 'NONE', #334, #968, #422, .T. ) ;
#950 = FACE_OUTER_BOUND ( 'NONE', #503, .T. ) ;
#951 = AXIS2_PLACEMENT_3D ( 'NONE', #352, #425, #431 ) ;
#952 = CARTESIAN_POINT ( 'NONE',  ( -8.000000000000000000, 40.00000000000000000, -1.100000000000000311 ) ) ;
#953 = ORIENTED_EDGE ( 'NONE', *, *, #237, .T. ) ;
#954 = PRODUCT_DEFINITION_FORMATION_WITH_SPECIFIED_SOURCE ( 'ANY', '', #112, .NOT_KNOWN. ) ;
#955 = AXIS2_PLACEMENT_3D ( 'NONE', #470, #703, #11 ) ;
#956 = EDGE_LOOP ( 'NONE', ( #966, #743, #479, #410 ) ) ;
#957 = VERTEX_POINT ( 'NONE', #37 ) ;
#958 = CARTESIAN_POINT ( 'NONE',  ( 0.000000000000000000, 43.00000000000000000, 0.000000000000000000 ) ) ;
#959 = CC_DESIGN_DATE_AND_TIME_ASSIGNMENT ( #141, #451, ( #45 ) ) ;
#960 = ORIENTED_EDGE ( 'NONE', *, *, #735, .F. ) ;
#961 = AXIS2_PLACEMENT_3D ( 'NONE', #158, #76, #224 ) ;
#962 = VERTEX_POINT ( 'NONE', #578 ) ;
#963 = VERTEX_POINT ( 'NONE', #507 ) ;
#964 = EDGE_CURVE ( 'NONE', #646, #708, #275, .T. ) ;
#965 = CARTESIAN_POINT ( 'NONE',  ( 3.100000000000000089, 47.99999999999999289, 2.399999999999999911 ) ) ;
#966 = ORIENTED_EDGE ( 'NONE', *, *, #554, .F. ) ;
#967 = VECTOR ( 'NONE', #552, 1000.000000000000000 ) ;
#968 = VERTEX_POINT ( 'NONE', #711 ) ;
#969 = DIRECTION ( 'NONE',  ( 0.000000000000000000, 0.000000000000000000, 1.000000000000000000 ) ) ;
#970 = CARTESIAN_POINT ( 'NONE',  ( 0.000000000000000000, 40.00000000000000000, 8.000000000000000000 ) ) ;
#971 = ORIENTED_EDGE ( 'NONE', *, *, #609, .T. ) ;
#972 = EDGE_CURVE ( 'NONE', #452, #346, #1009, .T. ) ;
#973 = ORIENTED_EDGE ( 'NONE', *, *, #28, .F. ) ;
#974 = LINE ( 'NONE', #274, #513 ) ;
#975 = EDGE_CURVE ( 'NONE', #469, #799, #454, .T. ) ;
#976 = CIRCLE ( 'NONE', #353, 12.00000000000000000 ) ;
#977 = EDGE_LOOP ( 'NONE', ( #785, #983 ) ) ;
#978 = ORIENTED_EDGE ( 'NONE', *, *, #355, .F. ) ;
#979 = CARTESIAN_POINT ( 'NONE',  ( 1.347111479062088503E-16, 47.99999999999999289, 9.099999999999999645 ) ) ;
#980 = CARTESIAN_POINT ( 'NONE',  ( -8.000000000000000000, 47.99999999999999289, 0.000000000000000000 ) ) ;
#981 = ORIENTED_EDGE ( 'NONE', *, *, #81, .T. ) ;
#982 = PERSON_AND_ORGANIZATION ( #859, #991 ) ;
#983 = ORIENTED_EDGE ( 'NONE', *, *, #294, .F. ) ;
#984 = PLANE ( 'NONE',  #643 ) ;
#985 = EDGE_CURVE ( 'NONE', #346, #97, #976, .T. ) ;
#986 = DIRECTION ( 'NONE',  ( 0.000000000000000000, 0.000000000000000000, -1.000000000000000000 ) ) ;
#987 = ADVANCED_FACE ( 'NONE', ( #928 ), #632, .F. ) ;
#988 = CALENDAR_DATE ( 2026, 7, 9 ) ;
#989 = ORIENTED_EDGE ( 'NONE', *, *, #81, .F. ) ;
#990 = VECTOR ( 'NONE', #994, 1000.000000000000000 ) ;
#991 = ORGANIZATION ( 'UNSPECIFIED', 'UNSPECIFIED', '' ) ;
#992 = CIRCLE ( 'NONE', #286, 4.049999999999999822 ) ;
#993 = CARTESIAN_POINT ( 'NONE',  ( 3.100000000000000089, 43.00000000000000000, -2.399999999999999911 ) ) ;
#994 = DIRECTION ( 'NONE',  ( 0.000000000000000000, -1.000000000000000000, 0.000000000000000000 ) ) ;
#995 = APPROVAL_ROLE ( '' ) ;
#996 = AXIS2_PLACEMENT_3D ( 'NONE', #313, #945, #858 ) ;
#997 = ORIENTED_EDGE ( 'NONE', *, *, #715, .F. ) ;
#998 = CARTESIAN_POINT ( 'NONE',  ( 3.100000000000000089, 47.99999999999999289, 2.399999999999999911 ) ) ;
#999 = EDGE_CURVE ( 'NONE', #104, #719, #244, .T. ) ;
#1000 = CYLINDRICAL_SURFACE ( 'NONE', #807, 1.100000000000000311 ) ;
#1001 = CARTESIAN_POINT ( 'NONE',  ( 0.000000000000000000, 43.00000000000000000, -4.049999999999999822 ) ) ;
#1002 = DIRECTION ( 'NONE',  ( 0.000000000000000000, -0.000000000000000000, 1.000000000000000000 ) ) ;
#1003 = FACE_OUTER_BOUND ( 'NONE', #241, .T. ) ;
#1004 = APPROVAL_STATUS ( 'not_yet_approved' ) ;
#1005 = CC_DESIGN_PERSON_AND_ORGANIZATION_ASSIGNMENT ( #923, #752, ( #954 ) ) ;
#1006 = AXIS2_PLACEMENT_3D ( 'NONE', #421, #36, #511 ) ;
#1007 = DIRECTION ( 'NONE',  ( 0.000000000000000000, 0.000000000000000000, 1.000000000000000000 ) ) ;
#1008 = CARTESIAN_POINT ( 'NONE',  ( 0.000000000000000000, 43.00000000000000000, -8.000000000000000000 ) ) ;
#1009 = LINE ( 'NONE', #938, #49 ) ;
ENDSEC;
END-ISO-10303-21;
