ISO-10303-21;
HEADER;
FILE_DESCRIPTION (( 'STEP AP203' ),
    '1' );
FILE_NAME ('ARM-107_Dowel_to_608_adapter.step',
    '2026-09-07T21:14:01',
    ( '' ),
    ( '' ),
    'SwSTEP 2.0',
    'SolidWorks 2026',
    '' );
FILE_SCHEMA (( 'CONFIG_CONTROL_DESIGN' ));
ENDSEC;

DATA;
#1 = CC_DESIGN_DATE_AND_TIME_ASSIGNMENT ( #62, #216, ( #149 ) ) ;
#2 = PERSON_AND_ORGANIZATION_ROLE ( 'design_supplier' ) ;
#3 = ORIENTED_EDGE ( 'NONE', *, *, #138, .T. ) ;
#4 = PERSON_AND_ORGANIZATION ( #129, #7 ) ;
#5 = AXIS2_PLACEMENT_3D ( 'NONE', #112, #95, #187 ) ;
#6 = EDGE_LOOP ( 'NONE', ( #240, #201, #102, #158 ) ) ;
#7 = ORGANIZATION ( 'UNSPECIFIED', 'UNSPECIFIED', '' ) ;
#8 = EDGE_LOOP ( 'NONE', ( #24, #45 ) ) ;
#9 = ORIENTED_EDGE ( 'NONE', *, *, #183, .F. ) ;
#10 = LINE ( 'NONE', #145, #36 ) ;
#11 = DIRECTION ( 'NONE',  ( -0.000000000000000000, -0.000000000000000000, -1.000000000000000000 ) ) ;
#12 = CARTESIAN_POINT ( 'NONE',  ( 0.000000000000000000, 0.000000000000000000, 7.000000000000000000 ) ) ;
#13 = CYLINDRICAL_SURFACE ( 'NONE', #16, 3.990000000000000657 ) ;
#14 = PLANE ( 'NONE',  #127 ) ;
#15 = APPROVAL_ROLE ( '' ) ;
#16 = AXIS2_PLACEMENT_3D ( 'NONE', #185, #93, #72 ) ;
#17 =( LENGTH_UNIT ( ) NAMED_UNIT ( * ) SI_UNIT ( .MILLI., .METRE. ) );
#18 = AXIS2_PLACEMENT_3D ( 'NONE', #222, #11, #241 ) ;
#19 = DATE_AND_TIME ( #136, #144 ) ;
#20 = PERSON_AND_ORGANIZATION_ROLE ( 'creator' ) ;
#21 = APPROVAL_PERSON_ORGANIZATION ( #4, #41, #67 ) ;
#22 = CALENDAR_DATE ( 2026, 7, 9 ) ;
#23 = AXIS2_PLACEMENT_3D ( 'NONE', #165, #92, #143 ) ;
#24 = ORIENTED_EDGE ( 'NONE', *, *, #234, .F. ) ;
#25 = MANIFOLD_SOLID_BREP ( 'Adapter_8OD_6p45ID', #184 ) ;
#26 = FACE_OUTER_BOUND ( 'NONE', #221, .T. ) ;
#27 = VECTOR ( 'NONE', #132, 1000.000000000000000 ) ;
#28 = CARTESIAN_POINT ( 'NONE',  ( -3.990000000000000657, 0.000000000000000000, 7.000000000000000000 ) ) ;
#29 = CARTESIAN_POINT ( 'NONE',  ( -3.225000000000000089, 0.000000000000000000, 0.000000000000000000 ) ) ;
#30 = FACE_OUTER_BOUND ( 'NONE', #146, .T. ) ;
#31 = EDGE_CURVE ( 'NONE', #47, #155, #164, .T. ) ;
#32 = VERTEX_POINT ( 'NONE', #125 ) ;
#33 = CARTESIAN_POINT ( 'NONE',  ( 0.000000000000000000, 0.000000000000000000, 7.000000000000000000 ) ) ;
#34 = EDGE_CURVE ( 'NONE', #155, #218, #109, .T. ) ;
#35 = CIRCLE ( 'NONE', #135, 3.225000000000000089 ) ;
#36 = VECTOR ( 'NONE', #130, 1000.000000000000000 ) ;
#37 = PERSON_AND_ORGANIZATION ( #129, #7 ) ;
#38 = CC_DESIGN_APPROVAL ( #44, ( #149 ) ) ;
#39 = APPROVAL_DATE_TIME ( #233, #119 ) ;
#40 = ORIENTED_EDGE ( 'NONE', *, *, #244, .F. ) ;
#41 = APPROVAL ( #154, 'UNSPECIFIED' ) ;
#42 = DATE_AND_TIME ( #220, #75 ) ;
#43 = EDGE_LOOP ( 'NONE', ( #103, #239 ) ) ;
#44 = APPROVAL ( #210, 'UNSPECIFIED' ) ;
#45 = ORIENTED_EDGE ( 'NONE', *, *, #34, .F. ) ;
#46 = APPLICATION_CONTEXT ( 'configuration controlled 3d designs of mechanical parts and assemblies' ) ;
#47 = VERTEX_POINT ( 'NONE', #52 ) ;
#48 = AXIS2_PLACEMENT_3D ( 'NONE', #246, #137, #213 ) ;
#49 = AXIS2_PLACEMENT_3D ( 'NONE', #51, #169, #142 ) ;
#50 = SECURITY_CLASSIFICATION ( '', '', #106 ) ;
#51 = CARTESIAN_POINT ( 'NONE',  ( 0.000000000000000000, 0.000000000000000000, 7.000000000000000000 ) ) ;
#52 = CARTESIAN_POINT ( 'NONE',  ( 3.990000000000000657, 4.886340728597940063E-16, 7.000000000000000000 ) ) ;
#53 = APPLICATION_CONTEXT ( 'configuration controlled 3d designs of mechanical parts and assemblies' ) ;
#54 = CARTESIAN_POINT ( 'NONE',  ( 3.990000000000000657, 4.886340728597940063E-16, 0.000000000000000000 ) ) ;
#55 =( GEOMETRIC_REPRESENTATION_CONTEXT ( 3 ) GLOBAL_UNCERTAINTY_ASSIGNED_CONTEXT ( ( #69 ) ) GLOBAL_UNIT_ASSIGNED_CONTEXT ( ( #17, #57, #195 ) ) REPRESENTATION_CONTEXT ( 'NONE', 'WORKASPACE' ) );
#56 = MECHANICAL_CONTEXT ( 'NONE', #53, 'mechanical' ) ;
#57 =( NAMED_UNIT ( * ) PLANE_ANGLE_UNIT ( ) SI_UNIT ( $, .RADIAN. ) );
#58 = EDGE_CURVE ( 'NONE', #83, #32, #10, .T. ) ;
#59 = PERSON_AND_ORGANIZATION ( #129, #7 ) ;
#60 = APPROVAL_PERSON_ORGANIZATION ( #37, #44, #118 ) ;
#61 = DIRECTION ( 'NONE',  ( 0.000000000000000000, 0.000000000000000000, 1.000000000000000000 ) ) ;
#62 = DATE_AND_TIME ( #230, #73 ) ;
#63 = COORDINATED_UNIVERSAL_TIME_OFFSET ( 6, 0, .BEHIND. ) ;
#64 = ORIENTED_EDGE ( 'NONE', *, *, #98, .T. ) ;
#65 = LOCAL_TIME ( 16, 14, 1.000000000000000000, #91 ) ;
#66 = VERTEX_POINT ( 'NONE', #108 ) ;
#67 = APPROVAL_ROLE ( '' ) ;
#68 = ORIENTED_EDGE ( 'NONE', *, *, #98, .F. ) ;
#69 = UNCERTAINTY_MEASURE_WITH_UNIT (LENGTH_MEASURE( 1.000000000000000082E-05 ), #17, 'distance_accuracy_value', 'NONE');
#70 = CARTESIAN_POINT ( 'NONE',  ( -3.225000000000000089, 0.000000000000000000, 7.000000000000000000 ) ) ;
#71 = FACE_BOUND ( 'NONE', #199, .T. ) ;
#72 = DIRECTION ( 'NONE',  ( -1.000000000000000000, 0.000000000000000000, 0.000000000000000000 ) ) ;
#73 = LOCAL_TIME ( 16, 14, 1.000000000000000000, #84 ) ;
#74 = VECTOR ( 'NONE', #227, 1000.000000000000000 ) ;
#75 = LOCAL_TIME ( 16, 14, 1.000000000000000000, #63 ) ;
#76 = DIRECTION ( 'NONE',  ( 0.000000000000000000, 0.000000000000000000, 1.000000000000000000 ) ) ;
#77 = DIRECTION ( 'NONE',  ( 1.000000000000000000, 0.000000000000000000, 0.000000000000000000 ) ) ;
#78 = ADVANCED_FACE ( 'NONE', ( #26 ), #186, .F. ) ;
#79 = DIRECTION ( 'NONE',  ( 1.000000000000000000, 0.000000000000000000, 0.000000000000000000 ) ) ;
#80 = CARTESIAN_POINT ( 'NONE',  ( 0.000000000000000000, 0.000000000000000000, 7.000000000000000000 ) ) ;
#81 = ADVANCED_FACE ( 'NONE', ( #30 ), #13, .T. ) ;
#82 = AXIS2_PLACEMENT_3D ( 'NONE', #247, #171, #249 ) ;
#83 = VERTEX_POINT ( 'NONE', #208 ) ;
#84 = COORDINATED_UNIVERSAL_TIME_OFFSET ( 6, 0, .BEHIND. ) ;
#85 = ADVANCED_FACE ( 'NONE', ( #189, #71 ), #14, .T. ) ;
#86 = DATE_AND_TIME ( #123, #248 ) ;
#87 = CIRCLE ( 'NONE', #161, 3.990000000000000657 ) ;
#88 = EDGE_CURVE ( 'NONE', #47, #203, #156, .T. ) ;
#89 = CIRCLE ( 'NONE', #178, 3.225000000000000089 ) ;
#90 = ORIENTED_EDGE ( 'NONE', *, *, #167, .F. ) ;
#91 = COORDINATED_UNIVERSAL_TIME_OFFSET ( 6, 0, .BEHIND. ) ;
#92 = DIRECTION ( 'NONE',  ( -0.000000000000000000, -0.000000000000000000, -1.000000000000000000 ) ) ;
#93 = DIRECTION ( 'NONE',  ( -0.000000000000000000, -0.000000000000000000, -1.000000000000000000 ) ) ;
#94 = CYLINDRICAL_SURFACE ( 'NONE', #23, 3.990000000000000657 ) ;
#95 = DIRECTION ( 'NONE',  ( 0.000000000000000000, 0.000000000000000000, 1.000000000000000000 ) ) ;
#96 = CARTESIAN_POINT ( 'NONE',  ( 0.000000000000000000, 0.000000000000000000, 7.000000000000000000 ) ) ;
#97 = DIRECTION ( 'NONE',  ( -0.000000000000000000, -0.000000000000000000, -1.000000000000000000 ) ) ;
#98 = EDGE_CURVE ( 'NONE', #66, #83, #89, .T. ) ;
#99 = DIRECTION ( 'NONE',  ( 0.000000000000000000, 0.000000000000000000, 1.000000000000000000 ) ) ;
#100 = CARTESIAN_POINT ( 'NONE',  ( -3.990000000000000657, 0.000000000000000000, 7.000000000000000000 ) ) ;
#101 = APPROVAL_DATE_TIME ( #86, #41 ) ;
#102 = ORIENTED_EDGE ( 'NONE', *, *, #34, .T. ) ;
#103 = ORIENTED_EDGE ( 'NONE', *, *, #183, .T. ) ;
#104 = PRODUCT_DEFINITION_FORMATION_WITH_SPECIFIED_SOURCE ( 'ANY', '', #236, .NOT_KNOWN. ) ;
#105 = ORIENTED_EDGE ( 'NONE', *, *, #58, .T. ) ;
#106 = SECURITY_CLASSIFICATION_LEVEL ( 'unclassified' ) ;
#107 = ORIENTED_EDGE ( 'NONE', *, *, #58, .F. ) ;
#108 = CARTESIAN_POINT ( 'NONE',  ( -3.225000000000000089, 0.000000000000000000, 7.000000000000000000 ) ) ;
#109 = CIRCLE ( 'NONE', #243, 3.990000000000000657 ) ;
#110 = FACE_OUTER_BOUND ( 'NONE', #6, .T. ) ;
#111 = PRODUCT_RELATED_PRODUCT_CATEGORY ( 'detail', '', ( #236 ) ) ;
#112 = CARTESIAN_POINT ( 'NONE',  ( 0.000000000000000000, 0.000000000000000000, 0.000000000000000000 ) ) ;
#113 = DIRECTION ( 'NONE',  ( -0.000000000000000000, -0.000000000000000000, -1.000000000000000000 ) ) ;
#114 = CC_DESIGN_SECURITY_CLASSIFICATION ( #50, ( #104 ) ) ;
#115 = PERSON_AND_ORGANIZATION ( #129, #7 ) ;
#116 = DIRECTION ( 'NONE',  ( -1.000000000000000000, 0.000000000000000000, 0.000000000000000000 ) ) ;
#117 = FACE_OUTER_BOUND ( 'NONE', #226, .T. ) ;
#118 = APPROVAL_ROLE ( '' ) ;
#119 = APPROVAL ( #190, 'UNSPECIFIED' ) ;
#120 = PERSON_AND_ORGANIZATION ( #129, #7 ) ;
#121 = SHAPE_DEFINITION_REPRESENTATION ( #197, #140 ) ;
#122 = DESIGN_CONTEXT ( 'detailed design', #46, 'design' ) ;
#123 = CALENDAR_DATE ( 2026, 7, 9 ) ;
#124 = ORIENTED_EDGE ( 'NONE', *, *, #244, .T. ) ;
#125 = CARTESIAN_POINT ( 'NONE',  ( 3.225000000000000089, 3.949485927250214346E-16, 0.000000000000000000 ) ) ;
#126 = CARTESIAN_POINT ( 'NONE',  ( 0.000000000000000000, 0.000000000000000000, 0.000000000000000000 ) ) ;
#127 = AXIS2_PLACEMENT_3D ( 'NONE', #96, #225, #237 ) ;
#128 = DIRECTION ( 'NONE',  ( 0.000000000000000000, 0.000000000000000000, 1.000000000000000000 ) ) ;
#129 = PERSON ( 'UNSPECIFIED', 'UNSPECIFIED', 'UNSPECIFIED', ('UNSPECIFIED'), ('UNSPECIFIED'), ('UNSPECIFIED') ) ;
#130 = DIRECTION ( 'NONE',  ( -0.000000000000000000, -0.000000000000000000, -1.000000000000000000 ) ) ;
#131 = CC_DESIGN_PERSON_AND_ORGANIZATION_ASSIGNMENT ( #120, #20, ( #149 ) ) ;
#132 = DIRECTION ( 'NONE',  ( -0.000000000000000000, -0.000000000000000000, -1.000000000000000000 ) ) ;
#133 = PERSON_AND_ORGANIZATION_ROLE ( 'design_owner' ) ;
#134 = APPLICATION_PROTOCOL_DEFINITION ( 'international standard', 'config_control_design', 1994, #46 ) ;
#135 = AXIS2_PLACEMENT_3D ( 'NONE', #141, #128, #206 ) ;
#136 = CALENDAR_DATE ( 2026, 7, 9 ) ;
#137 = DIRECTION ( 'NONE',  ( 0.000000000000000000, 0.000000000000000000, 1.000000000000000000 ) ) ;
#138 = EDGE_CURVE ( 'NONE', #203, #218, #209, .T. ) ;
#139 = PERSON_AND_ORGANIZATION ( #129, #7 ) ;
#140 = ADVANCED_BREP_SHAPE_REPRESENTATION ( 'ARM-107_Dowel_to_608_adapter', ( #25, #48 ), #55 ) ;
#141 = CARTESIAN_POINT ( 'NONE',  ( 0.000000000000000000, 0.000000000000000000, 0.000000000000000000 ) ) ;
#142 = DIRECTION ( 'NONE',  ( 1.000000000000000000, 0.000000000000000000, 0.000000000000000000 ) ) ;
#143 = DIRECTION ( 'NONE',  ( -1.000000000000000000, 0.000000000000000000, 0.000000000000000000 ) ) ;
#144 = LOCAL_TIME ( 16, 14, 1.000000000000000000, #194 ) ;
#145 = CARTESIAN_POINT ( 'NONE',  ( 3.225000000000000089, 3.949485927250214346E-16, 7.000000000000000000 ) ) ;
#146 = EDGE_LOOP ( 'NONE', ( #232, #40, #3, #231 ) ) ;
#147 = CC_DESIGN_PERSON_AND_ORGANIZATION_ASSIGNMENT ( #59, #133, ( #236 ) ) ;
#148 = CARTESIAN_POINT ( 'NONE',  ( 0.000000000000000000, 0.000000000000000000, 0.000000000000000000 ) ) ;
#149 = PRODUCT_DEFINITION ( 'UNKNOWN', '', #104, #122 ) ;
#150 = DIRECTION ( 'NONE',  ( 1.000000000000000000, 0.000000000000000000, 0.000000000000000000 ) ) ;
#151 = AXIS2_PLACEMENT_3D ( 'NONE', #152, #97, #116 ) ;
#152 = CARTESIAN_POINT ( 'NONE',  ( 0.000000000000000000, 0.000000000000000000, 7.000000000000000000 ) ) ;
#153 = CC_DESIGN_PERSON_AND_ORGANIZATION_ASSIGNMENT ( #235, #198, ( #104 ) ) ;
#154 = APPROVAL_STATUS ( 'not_yet_approved' ) ;
#155 = VERTEX_POINT ( 'NONE', #54 ) ;
#156 = CIRCLE ( 'NONE', #49, 3.990000000000000657 ) ;
#157 = EDGE_CURVE ( 'NONE', #66, #181, #162, .T. ) ;
#158 = ORIENTED_EDGE ( 'NONE', *, *, #138, .F. ) ;
#159 = ADVANCED_FACE ( 'NONE', ( #110 ), #94, .T. ) ;
#160 = ORIENTED_EDGE ( 'NONE', *, *, #157, .T. ) ;
#161 = AXIS2_PLACEMENT_3D ( 'NONE', #148, #191, #175 ) ;
#162 = LINE ( 'NONE', #70, #27 ) ;
#163 = CC_DESIGN_PERSON_AND_ORGANIZATION_ASSIGNMENT ( #139, #196, ( #50 ) ) ;
#164 = LINE ( 'NONE', #204, #217 ) ;
#165 = CARTESIAN_POINT ( 'NONE',  ( 0.000000000000000000, 0.000000000000000000, 7.000000000000000000 ) ) ;
#166 = CIRCLE ( 'NONE', #5, 3.225000000000000089 ) ;
#167 = EDGE_CURVE ( 'NONE', #32, #181, #35, .T. ) ;
#168 = ORIENTED_EDGE ( 'NONE', *, *, #245, .F. ) ;
#169 = DIRECTION ( 'NONE',  ( 0.000000000000000000, 0.000000000000000000, 1.000000000000000000 ) ) ;
#170 = CC_DESIGN_DATE_AND_TIME_ASSIGNMENT ( #42, #176, ( #50 ) ) ;
#171 = DIRECTION ( 'NONE',  ( 0.000000000000000000, 0.000000000000000000, 1.000000000000000000 ) ) ;
#172 = CIRCLE ( 'NONE', #212, 3.990000000000000657 ) ;
#173 = CARTESIAN_POINT ( 'NONE',  ( -3.990000000000000657, 0.000000000000000000, 0.000000000000000000 ) ) ;
#174 = CYLINDRICAL_SURFACE ( 'NONE', #151, 3.225000000000000089 ) ;
#175 = DIRECTION ( 'NONE',  ( 1.000000000000000000, 0.000000000000000000, 0.000000000000000000 ) ) ;
#176 = DATE_TIME_ROLE ( 'classification_date' ) ;
#177 = ORIENTED_EDGE ( 'NONE', *, *, #245, .T. ) ;
#178 = AXIS2_PLACEMENT_3D ( 'NONE', #12, #223, #77 ) ;
#179 = CC_DESIGN_APPROVAL ( #119, ( #104 ) ) ;
#180 = PERSON_AND_ORGANIZATION ( #129, #7 ) ;
#181 = VERTEX_POINT ( 'NONE', #29 ) ;
#182 = DIRECTION ( 'NONE',  ( 1.000000000000000000, 0.000000000000000000, 0.000000000000000000 ) ) ;
#183 = EDGE_CURVE ( 'NONE', #181, #32, #166, .T. ) ;
#184 = CLOSED_SHELL ( 'NONE', ( #202, #159, #85, #207, #81, #78 ) ) ;
#185 = CARTESIAN_POINT ( 'NONE',  ( 0.000000000000000000, 0.000000000000000000, 7.000000000000000000 ) ) ;
#186 = CYLINDRICAL_SURFACE ( 'NONE', #18, 3.225000000000000089 ) ;
#187 = DIRECTION ( 'NONE',  ( 1.000000000000000000, 0.000000000000000000, 0.000000000000000000 ) ) ;
#188 = APPROVAL_PERSON_ORGANIZATION ( #115, #119, #15 ) ;
#189 = FACE_OUTER_BOUND ( 'NONE', #219, .T. ) ;
#190 = APPROVAL_STATUS ( 'not_yet_approved' ) ;
#191 = DIRECTION ( 'NONE',  ( 0.000000000000000000, 0.000000000000000000, 1.000000000000000000 ) ) ;
#192 = FACE_BOUND ( 'NONE', #43, .T. ) ;
#193 = CIRCLE ( 'NONE', #224, 3.225000000000000089 ) ;
#194 = COORDINATED_UNIVERSAL_TIME_OFFSET ( 6, 0, .BEHIND. ) ;
#195 =( NAMED_UNIT ( * ) SI_UNIT ( $, .STERADIAN. ) SOLID_ANGLE_UNIT ( ) );
#196 = PERSON_AND_ORGANIZATION_ROLE ( 'classification_officer' ) ;
#197 = PRODUCT_DEFINITION_SHAPE ( 'NONE', 'NONE',  #149 ) ;
#198 = PERSON_AND_ORGANIZATION_ROLE ( 'creator' ) ;
#199 = EDGE_LOOP ( 'NONE', ( #68, #168 ) ) ;
#200 = COORDINATED_UNIVERSAL_TIME_OFFSET ( 6, 0, .BEHIND. ) ;
#201 = ORIENTED_EDGE ( 'NONE', *, *, #31, .T. ) ;
#202 = ADVANCED_FACE ( 'NONE', ( #117 ), #174, .F. ) ;
#203 = VERTEX_POINT ( 'NONE', #100 ) ;
#204 = CARTESIAN_POINT ( 'NONE',  ( 3.990000000000000657, 4.886340728597940063E-16, 7.000000000000000000 ) ) ;
#205 = ORIENTED_EDGE ( 'NONE', *, *, #157, .F. ) ;
#206 = DIRECTION ( 'NONE',  ( 1.000000000000000000, 0.000000000000000000, 0.000000000000000000 ) ) ;
#207 = ADVANCED_FACE ( 'NONE', ( #242, #192 ), #229, .F. ) ;
#208 = CARTESIAN_POINT ( 'NONE',  ( 3.225000000000000089, 3.949485927250214346E-16, 7.000000000000000000 ) ) ;
#209 = LINE ( 'NONE', #28, #74 ) ;
#210 = APPROVAL_STATUS ( 'not_yet_approved' ) ;
#211 = CC_DESIGN_PERSON_AND_ORGANIZATION_ASSIGNMENT ( #180, #2, ( #104 ) ) ;
#212 = AXIS2_PLACEMENT_3D ( 'NONE', #33, #99, #79 ) ;
#213 = DIRECTION ( 'NONE',  ( 1.000000000000000000, 0.000000000000000000, 0.000000000000000000 ) ) ;
#214 = CC_DESIGN_APPROVAL ( #41, ( #50 ) ) ;
#215 = APPROVAL_DATE_TIME ( #19, #44 ) ;
#216 = DATE_TIME_ROLE ( 'creation_date' ) ;
#217 = VECTOR ( 'NONE', #113, 1000.000000000000000 ) ;
#218 = VERTEX_POINT ( 'NONE', #173 ) ;
#219 = EDGE_LOOP ( 'NONE', ( #124, #238 ) ) ;
#220 = CALENDAR_DATE ( 2026, 7, 9 ) ;
#221 = EDGE_LOOP ( 'NONE', ( #107, #177, #160, #90 ) ) ;
#222 = CARTESIAN_POINT ( 'NONE',  ( 0.000000000000000000, 0.000000000000000000, 7.000000000000000000 ) ) ;
#223 = DIRECTION ( 'NONE',  ( 0.000000000000000000, 0.000000000000000000, 1.000000000000000000 ) ) ;
#224 = AXIS2_PLACEMENT_3D ( 'NONE', #80, #61, #150 ) ;
#225 = DIRECTION ( 'NONE',  ( 0.000000000000000000, 0.000000000000000000, 1.000000000000000000 ) ) ;
#226 = EDGE_LOOP ( 'NONE', ( #64, #105, #9, #205 ) ) ;
#227 = DIRECTION ( 'NONE',  ( -0.000000000000000000, -0.000000000000000000, -1.000000000000000000 ) ) ;
#228 = APPLICATION_PROTOCOL_DEFINITION ( 'international standard', 'config_control_design', 1994, #53 ) ;
#229 = PLANE ( 'NONE',  #82 ) ;
#230 = CALENDAR_DATE ( 2026, 7, 9 ) ;
#231 = ORIENTED_EDGE ( 'NONE', *, *, #234, .T. ) ;
#232 = ORIENTED_EDGE ( 'NONE', *, *, #31, .F. ) ;
#233 = DATE_AND_TIME ( #22, #65 ) ;
#234 = EDGE_CURVE ( 'NONE', #218, #155, #87, .T. ) ;
#235 = PERSON_AND_ORGANIZATION ( #129, #7 ) ;
#236 = PRODUCT ( 'ARM-107_Dowel_to_608_adapter', 'ARM-107_Dowel_to_608_adapter', '', ( #56 ) ) ;
#237 = DIRECTION ( 'NONE',  ( 1.000000000000000000, 0.000000000000000000, -0.000000000000000000 ) ) ;
#238 = ORIENTED_EDGE ( 'NONE', *, *, #88, .T. ) ;
#239 = ORIENTED_EDGE ( 'NONE', *, *, #167, .T. ) ;
#240 = ORIENTED_EDGE ( 'NONE', *, *, #88, .F. ) ;
#241 = DIRECTION ( 'NONE',  ( -1.000000000000000000, 0.000000000000000000, 0.000000000000000000 ) ) ;
#242 = FACE_OUTER_BOUND ( 'NONE', #8, .T. ) ;
#243 = AXIS2_PLACEMENT_3D ( 'NONE', #126, #76, #182 ) ;
#244 = EDGE_CURVE ( 'NONE', #203, #47, #172, .T. ) ;
#245 = EDGE_CURVE ( 'NONE', #83, #66, #193, .T. ) ;
#246 = CARTESIAN_POINT ( 'NONE',  ( 0.000000000000000000, 0.000000000000000000, 0.000000000000000000 ) ) ;
#247 = CARTESIAN_POINT ( 'NONE',  ( 0.000000000000000000, 0.000000000000000000, 0.000000000000000000 ) ) ;
#248 = LOCAL_TIME ( 16, 14, 1.000000000000000000, #200 ) ;
#249 = DIRECTION ( 'NONE',  ( 1.000000000000000000, 0.000000000000000000, -0.000000000000000000 ) ) ;
ENDSEC;
END-ISO-10303-21;
