ISO-10303-21;
HEADER;
FILE_DESCRIPTION (( 'STEP AP203' ),
    '1' );
FILE_NAME ('ARM-101_Upper_link_60mm_MG996_SG90.step',
    '2026-09-07T21:17:35',
    ( '' ),
    ( '' ),
    'SwSTEP 2.0',
    'SolidWorks 2026',
    '' );
FILE_SCHEMA (( 'CONFIG_CONTROL_DESIGN' ));
ENDSEC;

DATA;
#1 = DIRECTION ( 'NONE',  ( -1.000000000000000000, 0.000000000000000000, 0.000000000000000000 ) ) ;
#2 = FACE_OUTER_BOUND ( 'NONE', #610, .T. ) ;
#3 = CARTESIAN_POINT ( 'NONE',  ( 85.00000000000000000, 9.000000000000000000, 4.000000000000003553 ) ) ;
#4 = CARTESIAN_POINT ( 'NONE',  ( 53.60000000000000142, -6.500000000000000000, 4.000000000000000888 ) ) ;
#5 = ORIENTED_EDGE ( 'NONE', *, *, #1293, .F. ) ;
#6 = AXIS2_PLACEMENT_3D ( 'NONE', #452, #941, #445 ) ;
#7 = APPLICATION_CONTEXT ( 'configuration controlled 3d designs of mechanical parts and assemblies' ) ;
#8 = DIRECTION ( 'NONE',  ( 1.000000000000000000, 0.000000000000000000, 0.000000000000000000 ) ) ;
#9 = AXIS2_PLACEMENT_3D ( 'NONE', #366, #1067, #775 ) ;
#10 = DIRECTION ( 'NONE',  ( 0.000000000000000000, 0.000000000000000000, -1.000000000000000000 ) ) ;
#11 = CARTESIAN_POINT ( 'NONE',  ( 25.39999999999999858, -3.000000000000000000, 4.000000000000003553 ) ) ;
#12 = EDGE_CURVE ( 'NONE', #879, #292, #494, .T. ) ;
#13 = CARTESIAN_POINT ( 'NONE',  ( 0.000000000000000000, 0.000000000000000000, 4.000000000000000000 ) ) ;
#14 = VERTEX_POINT ( 'NONE', #20 ) ;
#15 = AXIS2_PLACEMENT_3D ( 'NONE', #444, #226, #836 ) ;
#16 = LOCAL_TIME ( 16, 17, 35.00000000000000000, #385 ) ;
#17 = EDGE_CURVE ( 'NONE', #312, #1304, #319, .T. ) ;
#18 = FACE_OUTER_BOUND ( 'NONE', #818, .T. ) ;
#19 = DIRECTION ( 'NONE',  ( -1.000000000000000000, 0.000000000000000000, 0.000000000000000000 ) ) ;
#20 = CARTESIAN_POINT ( 'NONE',  ( 83.40000000000000568, -9.000000000000000000, 0.000000000000000000 ) ) ;
#21 = CARTESIAN_POINT ( 'NONE',  ( 52.29999999999999716, 1.592040838891562300E-16, 4.000000000000003553 ) ) ;
#22 = ORIENTED_EDGE ( 'NONE', *, *, #332, .F. ) ;
#23 = EDGE_LOOP ( 'NONE', ( #1109, #446, #912, #1012 ) ) ;
#24 = PRODUCT_DEFINITION ( 'UNKNOWN', '', #1101, #1261 ) ;
#25 = CARTESIAN_POINT ( 'NONE',  ( 53.60000000000000142, -6.500000000000000000, 4.000000000000000888 ) ) ;
#26 = FACE_OUTER_BOUND ( 'NONE', #1102, .T. ) ;
#27 = CARTESIAN_POINT ( 'NONE',  ( 42.00000000000000000, -7.000000000000000000, 4.000000000000000000 ) ) ;
#28 = DIRECTION ( 'NONE',  ( 0.000000000000000000, 0.000000000000000000, -1.000000000000000000 ) ) ;
#29 = ORIENTED_EDGE ( 'NONE', *, *, #1046, .T. ) ;
#30 = EDGE_CURVE ( 'NONE', #113, #1304, #1063, .T. ) ;
#31 = DIRECTION ( 'NONE',  ( 0.000000000000000000, 0.000000000000000000, -1.000000000000000000 ) ) ;
#32 = FACE_OUTER_BOUND ( 'NONE', #1144, .T. ) ;
#33 = DIRECTION ( 'NONE',  ( -1.000000000000000000, 0.000000000000000000, 0.000000000000000000 ) ) ;
#34 = ADVANCED_FACE ( 'NONE', ( #757 ), #233, .F. ) ;
#35 = VECTOR ( 'NONE', #996, 1000.000000000000000 ) ;
#36 = DIRECTION ( 'NONE',  ( -0.000000000000000000, -0.000000000000000000, 1.000000000000000000 ) ) ;
#37 = ORIENTED_EDGE ( 'NONE', *, *, #661, .T. ) ;
#38 = AXIS2_PLACEMENT_3D ( 'NONE', #1005, #1240, #1011 ) ;
#39 = CARTESIAN_POINT ( 'NONE',  ( 53.60000000000000142, 0.000000000000000000, 0.000000000000000000 ) ) ;
#40 = ADVANCED_FACE ( 'NONE', ( #664 ), #339, .F. ) ;
#41 = CARTESIAN_POINT ( 'NONE',  ( 42.00000000000000000, 14.00000000000000000, 4.000000000000000000 ) ) ;
#42 = DIRECTION ( 'NONE',  ( 0.000000000000000000, -0.000000000000000000, 1.000000000000000000 ) ) ;
#43 = EDGE_CURVE ( 'NONE', #342, #361, #315, .T. ) ;
#44 = ORIENTED_EDGE ( 'NONE', *, *, #878, .T. ) ;
#45 = AXIS2_PLACEMENT_3D ( 'NONE', #714, #112, #511 ) ;
#46 = CARTESIAN_POINT ( 'NONE',  ( -16.00000000000000000, 0.000000000000000000, 4.000000000000000000 ) ) ;
#47 = CARTESIAN_POINT ( 'NONE',  ( 0.000000000000000000, 0.000000000000000000, 4.000000000000000000 ) ) ;
#48 = ORIENTED_EDGE ( 'NONE', *, *, #878, .F. ) ;
#49 = EDGE_LOOP ( 'NONE', ( #939, #460, #924, #235 ) ) ;
#50 = ORIENTED_EDGE ( 'NONE', *, *, #135, .F. ) ;
#51 = CARTESIAN_POINT ( 'NONE',  ( 90.00000000000000000, 14.00000000000000000, 4.000000000000000000 ) ) ;
#52 = AXIS2_PLACEMENT_3D ( 'NONE', #327, #645, #1056 ) ;
#53 = CARTESIAN_POINT ( 'NONE',  ( 83.40000000000000568, 9.000000000000000000, 4.000000000000003553 ) ) ;
#54 = ORIENTED_EDGE ( 'NONE', *, *, #296, .T. ) ;
#55 = ADVANCED_FACE ( 'NONE', ( #764 ), #851, .F. ) ;
#56 = VECTOR ( 'NONE', #1216, 1000.000000000000000 ) ;
#57 = EDGE_LOOP ( 'NONE', ( #70, #873, #746, #1247 ) ) ;
#58 = VECTOR ( 'NONE', #1224, 1000.000000000000000 ) ;
#59 = DIRECTION ( 'NONE',  ( 1.000000000000000000, 0.000000000000000000, 0.000000000000000000 ) ) ;
#60 = AXIS2_PLACEMENT_3D ( 'NONE', #809, #586, #1319 ) ;
#61 = DIRECTION ( 'NONE',  ( 0.000000000000000000, 0.000000000000000000, 1.000000000000000000 ) ) ;
#62 = CIRCLE ( 'NONE', #1194, 1.600000000000000089 ) ;
#63 = ORIENTED_EDGE ( 'NONE', *, *, #115, .T. ) ;
#64 = ORIENTED_EDGE ( 'NONE', *, *, #423, .F. ) ;
#65 = EDGE_LOOP ( 'NONE', ( #608, #328, #603, #890 ) ) ;
#66 = DIRECTION ( 'NONE',  ( -1.000000000000000000, 0.000000000000000000, 0.000000000000000000 ) ) ;
#67 =( NAMED_UNIT ( * ) SI_UNIT ( $, .STERADIAN. ) SOLID_ANGLE_UNIT ( ) );
#68 = LINE ( 'NONE', #810, #58 ) ;
#69 = EDGE_LOOP ( 'NONE', ( #777, #63 ) ) ;
#70 = ORIENTED_EDGE ( 'NONE', *, *, #940, .F. ) ;
#71 = FACE_OUTER_BOUND ( 'NONE', #982, .T. ) ;
#72 = EDGE_CURVE ( 'NONE', #1202, #1228, #102, .T. ) ;
#73 = PERSON_AND_ORGANIZATION ( #1070, #1060 ) ;
#74 = EDGE_CURVE ( 'NONE', #1348, #1225, #331, .T. ) ;
#75 = PLANE ( 'NONE',  #580 ) ;
#76 = ORIENTED_EDGE ( 'NONE', *, *, #84, .F. ) ;
#77 = VERTEX_POINT ( 'NONE', #750 ) ;
#78 = CYLINDRICAL_SURFACE ( 'NONE', #1343, 4.000000000000000000 ) ;
#79 = VECTOR ( 'NONE', #503, 1000.000000000000000 ) ;
#80 = PERSON_AND_ORGANIZATION_ROLE ( 'design_supplier' ) ;
#81 = EDGE_CURVE ( 'NONE', #910, #1207, #124, .T. ) ;
#82 = AXIS2_PLACEMENT_3D ( 'NONE', #1048, #117, #42 ) ;
#83 = CARTESIAN_POINT ( 'NONE',  ( 1.600000000000000089, 10.00000000000000000, 4.000000000000003553 ) ) ;
#84 = EDGE_CURVE ( 'NONE', #910, #380, #260, .T. ) ;
#85 = ORIENTED_EDGE ( 'NONE', *, *, #599, .F. ) ;
#86 = CARTESIAN_POINT ( 'NONE',  ( 77.40000000000000568, -6.500000000000000000, 0.000000000000000000 ) ) ;
#87 = ORIENTED_EDGE ( 'NONE', *, *, #727, .T. ) ;
#88 = DIRECTION ( 'NONE',  ( 0.000000000000000000, 0.000000000000000000, 1.000000000000000000 ) ) ;
#89 = VECTOR ( 'NONE', #548, 1000.000000000000000 ) ;
#90 = DIRECTION ( 'NONE',  ( -1.000000000000000000, 0.000000000000000000, 0.000000000000000000 ) ) ;
#91 = ORIENTED_EDGE ( 'NONE', *, *, #1137, .T. ) ;
#92 = DIRECTION ( 'NONE',  ( -1.000000000000000000, 0.000000000000000000, 0.000000000000000000 ) ) ;
#93 = ORIENTED_EDGE ( 'NONE', *, *, #357, .T. ) ;
#94 = CARTESIAN_POINT ( 'NONE',  ( 0.000000000000000000, 0.000000000000000000, 4.000000000000003553 ) ) ;
#95 = CARTESIAN_POINT ( 'NONE',  ( 85.00000000000000000, -9.000000000000000000, 4.000000000000003553 ) ) ;
#96 = ORIENTED_EDGE ( 'NONE', *, *, #577, .F. ) ;
#97 = FACE_OUTER_BOUND ( 'NONE', #405, .T. ) ;
#98 = ORIENTED_EDGE ( 'NONE', *, *, #1104, .T. ) ;
#99 = EDGE_CURVE ( 'NONE', #267, #659, #644, .T. ) ;
#100 = VECTOR ( 'NONE', #585, 1000.000000000000000 ) ;
#101 = PLANE ( 'NONE',  #206 ) ;
#102 = CIRCLE ( 'NONE', #677, 1.600000000000000089 ) ;
#103 = VECTOR ( 'NONE', #202, 1000.000000000000000 ) ;
#104 = DIRECTION ( 'NONE',  ( -1.000000000000000000, 0.000000000000000000, 0.000000000000000000 ) ) ;
#105 = VERTEX_POINT ( 'NONE', #1178 ) ;
#106 = FACE_BOUND ( 'NONE', #616, .T. ) ;
#107 = ORIENTED_EDGE ( 'NONE', *, *, #1118, .T. ) ;
#108 = FACE_BOUND ( 'NONE', #772, .T. ) ;
#109 = DIRECTION ( 'NONE',  ( 1.000000000000000000, 0.000000000000000000, 0.000000000000000000 ) ) ;
#110 = AXIS2_PLACEMENT_3D ( 'NONE', #1347, #1129, #212 ) ;
#111 = ORIENTED_EDGE ( 'NONE', *, *, #1137, .F. ) ;
#112 = DIRECTION ( 'NONE',  ( -0.000000000000000000, -0.000000000000000000, 1.000000000000000000 ) ) ;
#113 = VERTEX_POINT ( 'NONE', #540 ) ;
#114 = CARTESIAN_POINT ( 'NONE',  ( 25.39999999999999858, 3.000000000000000000, 4.000000000000003553 ) ) ;
#115 = EDGE_CURVE ( 'NONE', #200, #1040, #1349, .T. ) ;
#116 = DIRECTION ( 'NONE',  ( 1.000000000000000000, 0.000000000000000000, 0.000000000000000000 ) ) ;
#117 = DIRECTION ( 'NONE',  ( 0.000000000000000000, 1.000000000000000000, 0.000000000000000000 ) ) ;
#118 = FACE_OUTER_BOUND ( 'NONE', #583, .T. ) ;
#119 = ORIENTED_EDGE ( 'NONE', *, *, #126, .F. ) ;
#120 = CIRCLE ( 'NONE', #1051, 1.600000000000000755 ) ;
#121 = DIRECTION ( 'NONE',  ( 1.000000000000000000, 0.000000000000000000, 0.000000000000000000 ) ) ;
#122 = VECTOR ( 'NONE', #899, 1000.000000000000000 ) ;
#123 = CARTESIAN_POINT ( 'NONE',  ( 0.000000000000000000, -10.00000000000000000, 4.000000000000003553 ) ) ;
#124 = LINE ( 'NONE', #533, #89 ) ;
#125 = AXIS2_PLACEMENT_3D ( 'NONE', #1313, #711, #1121 ) ;
#126 = EDGE_CURVE ( 'NONE', #1332, #1346, #454, .T. ) ;
#127 = CARTESIAN_POINT ( 'NONE',  ( 53.60000000000000142, -6.500000000000000000, 4.000000000000000888 ) ) ;
#128 = ORIENTED_EDGE ( 'NONE', *, *, #556, .T. ) ;
#129 = AXIS2_PLACEMENT_3D ( 'NONE', #41, #579, #979 ) ;
#130 = FACE_BOUND ( 'NONE', #550, .T. ) ;
#131 = CARTESIAN_POINT ( 'NONE',  ( 85.00000000000000000, 9.000000000000000000, 0.000000000000000000 ) ) ;
#132 = DIRECTION ( 'NONE',  ( -0.000000000000000000, -0.000000000000000000, -1.000000000000000000 ) ) ;
#133 = CARTESIAN_POINT ( 'NONE',  ( 53.60000000000000142, 6.500000000000000000, 4.000000000000000888 ) ) ;
#134 = ORIENTED_EDGE ( 'NONE', *, *, #848, .T. ) ;
#135 = EDGE_CURVE ( 'NONE', #673, #706, #657, .T. ) ;
#136 = CARTESIAN_POINT ( 'NONE',  ( 80.00000000000000000, 0.000000000000000000, 0.000000000000000000 ) ) ;
#137 = FACE_OUTER_BOUND ( 'NONE', #193, .T. ) ;
#138 = DIRECTION ( 'NONE',  ( 0.000000000000000000, 0.000000000000000000, -1.000000000000000000 ) ) ;
#139 = DIRECTION ( 'NONE',  ( 0.000000000000000000, 0.000000000000000000, 1.000000000000000000 ) ) ;
#140 = ORIENTED_EDGE ( 'NONE', *, *, #419, .F. ) ;
#141 = EDGE_CURVE ( 'NONE', #105, #1077, #62, .T. ) ;
#142 = APPROVAL ( #908, 'UNSPECIFIED' ) ;
#143 = DIRECTION ( 'NONE',  ( -0.000000000000000000, -0.000000000000000000, 1.000000000000000000 ) ) ;
#144 = DIRECTION ( 'NONE',  ( -1.000000000000000000, -0.000000000000000000, -0.000000000000000000 ) ) ;
#145 = DIRECTION ( 'NONE',  ( -1.000000000000000000, 0.000000000000000000, 0.000000000000000000 ) ) ;
#146 = ORIENTED_EDGE ( 'NONE', *, *, #962, .F. ) ;
#147 = CIRCLE ( 'NONE', #883, 1.600000000000000755 ) ;
#148 = LINE ( 'NONE', #51, #1230 ) ;
#149 = CARTESIAN_POINT ( 'NONE',  ( 83.40000000000000568, 9.000000000000000000, 0.000000000000000000 ) ) ;
#150 = CARTESIAN_POINT ( 'NONE',  ( 42.00000000000000000, -14.00000000000000000, 0.000000000000000000 ) ) ;
#151 = ORIENTED_EDGE ( 'NONE', *, *, #217, .F. ) ;
#152 = CARTESIAN_POINT ( 'NONE',  ( 0.000000000000000000, -10.00000000000000000, 4.000000000000003553 ) ) ;
#153 = CYLINDRICAL_SURFACE ( 'NONE', #1013, 1.600000000000000755 ) ;
#154 = ADVANCED_FACE ( 'NONE', ( #738 ), #220, .F. ) ;
#155 = ORIENTED_EDGE ( 'NONE', *, *, #699, .T. ) ;
#156 = VERTEX_POINT ( 'NONE', #150 ) ;
#157 = CYLINDRICAL_SURFACE ( 'NONE', #381, 1.600000000000000089 ) ;
#158 = FACE_OUTER_BOUND ( 'NONE', #1007, .T. ) ;
#159 = ORIENTED_EDGE ( 'NONE', *, *, #272, .F. ) ;
#160 = VECTOR ( 'NONE', #829, 1000.000000000000000 ) ;
#161 = ORIENTED_EDGE ( 'NONE', *, *, #461, .T. ) ;
#162 = AXIS2_PLACEMENT_3D ( 'NONE', #174, #801, #1132 ) ;
#163 = EDGE_LOOP ( 'NONE', ( #37, #394 ) ) ;
#164 = CYLINDRICAL_SURFACE ( 'NONE', #1029, 1.600000000000004086 ) ;
#165 = VECTOR ( 'NONE', #552, 1000.000000000000000 ) ;
#166 = AXIS2_PLACEMENT_3D ( 'NONE', #856, #1274, #560 ) ;
#167 = DIRECTION ( 'NONE',  ( 0.000000000000000000, 0.000000000000000000, -1.000000000000000000 ) ) ;
#168 = ORIENTED_EDGE ( 'NONE', *, *, #30, .F. ) ;
#169 = VERTEX_POINT ( 'NONE', #1290 ) ;
#170 = EDGE_CURVE ( 'NONE', #619, #279, #770, .T. ) ;
#171 = CIRCLE ( 'NONE', #978, 1.600000000000004086 ) ;
#172 = DIRECTION ( 'NONE',  ( 0.000000000000000000, 0.000000000000000000, 1.000000000000000000 ) ) ;
#173 = EDGE_CURVE ( 'NONE', #1346, #1332, #523, .T. ) ;
#174 = CARTESIAN_POINT ( 'NONE',  ( 85.00000000000000000, 9.000000000000000000, 0.000000000000000000 ) ) ;
#175 = ORIENTED_EDGE ( 'NONE', *, *, #244, .T. ) ;
#176 = ORIENTED_EDGE ( 'NONE', *, *, #254, .T. ) ;
#177 = ADVANCED_FACE ( 'NONE', ( #974, #252, #671, #1355, #1143, #505, #609, #905, #1331, #106, #917, #97, #1124 ), #192, .T. ) ;
#178 = DIRECTION ( 'NONE',  ( 1.000000000000000000, 0.000000000000000000, 0.000000000000000000 ) ) ;
#179 = EDGE_CURVE ( 'NONE', #891, #778, #219, .T. ) ;
#180 = CARTESIAN_POINT ( 'NONE',  ( 90.00000000000000000, -14.00000000000000000, 4.000000000000000000 ) ) ;
#181 = CIRCLE ( 'NONE', #6, 1.600000000000000755 ) ;
#182 = DIRECTION ( 'NONE',  ( 1.000000000000000000, 0.000000000000000000, 0.000000000000000000 ) ) ;
#183 = ORIENTED_EDGE ( 'NONE', *, *, #1018, .T. ) ;
#184 = DIRECTION ( 'NONE',  ( 1.000000000000000000, 0.000000000000000000, 0.000000000000000000 ) ) ;
#185 = ORIENTED_EDGE ( 'NONE', *, *, #963, .T. ) ;
#186 = VECTOR ( 'NONE', #31, 1000.000000000000000 ) ;
#187 = DIRECTION ( 'NONE',  ( 0.000000000000000000, 0.000000000000000000, -1.000000000000000000 ) ) ;
#188 = PERSON_AND_ORGANIZATION_ROLE ( 'creator' ) ;
#189 = AXIS2_PLACEMENT_3D ( 'NONE', #225, #642, #958 ) ;
#190 = DIRECTION ( 'NONE',  ( 0.000000000000000000, 0.000000000000000000, 1.000000000000000000 ) ) ;
#191 = ORIENTED_EDGE ( 'NONE', *, *, #397, .F. ) ;
#192 = PLANE ( 'NONE',  #634 ) ;
#193 = EDGE_LOOP ( 'NONE', ( #1279, #989, #1066, #364 ) ) ;
#194 = CARTESIAN_POINT ( 'NONE',  ( 0.000000000000000000, 10.00000000000000000, 4.000000000000003553 ) ) ;
#195 = DATE_AND_TIME ( #718, #1317 ) ;
#196 = EDGE_CURVE ( 'NONE', #334, #916, #459, .T. ) ;
#197 = CARTESIAN_POINT ( 'NONE',  ( 42.00000000000000000, 7.000000000000000000, 4.000000000000000000 ) ) ;
#198 = EDGE_LOOP ( 'NONE', ( #995, #91, #54, #191 ) ) ;
#199 = DIRECTION ( 'NONE',  ( -1.000000000000000000, 0.000000000000000000, 0.000000000000000000 ) ) ;
#200 = VERTEX_POINT ( 'NONE', #420 ) ;
#201 = DIRECTION ( 'NONE',  ( -1.000000000000000000, 0.000000000000000000, 0.000000000000000000 ) ) ;
#202 = DIRECTION ( 'NONE',  ( 0.000000000000000000, 0.000000000000000000, 1.000000000000000000 ) ) ;
#203 = ORIENTED_EDGE ( 'NONE', *, *, #727, .F. ) ;
#204 = DIRECTION ( 'NONE',  ( -0.000000000000000000, -0.000000000000000000, 1.000000000000000000 ) ) ;
#205 = ORIENTED_EDGE ( 'NONE', *, *, #1038, .T. ) ;
#206 = AXIS2_PLACEMENT_3D ( 'NONE', #929, #1, #640 ) ;
#207 = FACE_BOUND ( 'NONE', #1296, .T. ) ;
#208 = VECTOR ( 'NONE', #1273, 1000.000000000000000 ) ;
#209 = CARTESIAN_POINT ( 'NONE',  ( 51.00000000000000000, 0.000000000000000000, 0.000000000000000000 ) ) ;
#210 = EDGE_LOOP ( 'NONE', ( #1330, #140, #1093, #510 ) ) ;
#211 = VECTOR ( 'NONE', #965, 1000.000000000000000 ) ;
#212 = DIRECTION ( 'NONE',  ( 1.000000000000000000, 0.000000000000000000, 0.000000000000000000 ) ) ;
#213 = VERTEX_POINT ( 'NONE', #721 ) ;
#214 = VECTOR ( 'NONE', #744, 1000.000000000000000 ) ;
#215 = EDGE_CURVE ( 'NONE', #258, #1077, #632, .T. ) ;
#216 = FACE_BOUND ( 'NONE', #601, .T. ) ;
#217 = EDGE_CURVE ( 'NONE', #285, #859, #412, .T. ) ;
#218 = CARTESIAN_POINT ( 'NONE',  ( 1.600000000000000089, -10.00000000000000000, 0.000000000000000000 ) ) ;
#219 = CIRCLE ( 'NONE', #110, 1.600000000000000089 ) ;
#220 = PLANE ( 'NONE',  #82 ) ;
#221 = LINE ( 'NONE', #127, #876 ) ;
#222 = ORIENTED_EDGE ( 'NONE', *, *, #357, .F. ) ;
#223 = CARTESIAN_POINT ( 'NONE',  ( 0.000000000000000000, 10.00000000000000000, 4.000000000000003553 ) ) ;
#224 = EDGE_CURVE ( 'NONE', #504, #760, #820, .T. ) ;
#225 = CARTESIAN_POINT ( 'NONE',  ( -10.00000000000000000, 0.000000000000000000, 4.000000000000003553 ) ) ;
#226 = DIRECTION ( 'NONE',  ( 0.000000000000000000, 0.000000000000000000, 1.000000000000000000 ) ) ;
#227 = CARTESIAN_POINT ( 'NONE',  ( -10.00000000000000000, 0.000000000000000000, 4.000000000000003553 ) ) ;
#228 = EDGE_LOOP ( 'NONE', ( #1108, #473, #1088, #1354 ) ) ;
#229 = VECTOR ( 'NONE', #948, 1000.000000000000000 ) ;
#230 = FACE_BOUND ( 'NONE', #833, .T. ) ;
#231 = VECTOR ( 'NONE', #1160, 1000.000000000000000 ) ;
#232 = FACE_OUTER_BOUND ( 'NONE', #1000, .T. ) ;
#233 = CYLINDRICAL_SURFACE ( 'NONE', #969, 1.600000000000004086 ) ;
#234 = CARTESIAN_POINT ( 'NONE',  ( 42.00000000000000000, -14.00000000000000000, 4.000000000000000000 ) ) ;
#235 = ORIENTED_EDGE ( 'NONE', *, *, #641, .T. ) ;
#236 = ADVANCED_FACE ( 'NONE', ( #395 ), #1237, .F. ) ;
#237 = AXIS2_PLACEMENT_3D ( 'NONE', #863, #763, #1074 ) ;
#238 = CYLINDRICAL_SURFACE ( 'NONE', #1055, 1.600000000000000089 ) ;
#239 = CARTESIAN_POINT ( 'NONE',  ( 27.00000000000000000, -3.000000000000000000, 4.000000000000003553 ) ) ;
#240 = DIRECTION ( 'NONE',  ( 1.000000000000000000, 0.000000000000000000, 0.000000000000000000 ) ) ;
#241 = AXIS2_PLACEMENT_3D ( 'NONE', #1115, #204, #1242 ) ;
#242 = CARTESIAN_POINT ( 'NONE',  ( 86.60000000000000853, 9.000000000000000000, 4.000000000000003553 ) ) ;
#243 = VERTEX_POINT ( 'NONE', #827 ) ;
#244 = EDGE_CURVE ( 'NONE', #1113, #312, #1227, .T. ) ;
#245 = DIRECTION ( 'NONE',  ( -1.000000000000000000, 0.000000000000000000, 0.000000000000000000 ) ) ;
#246 = CARTESIAN_POINT ( 'NONE',  ( 49.69999999999999574, 0.000000000000000000, 0.000000000000000000 ) ) ;
#247 = CARTESIAN_POINT ( 'NONE',  ( 80.00000000000000000, 0.000000000000000000, 4.000000000000003553 ) ) ;
#248 = CARTESIAN_POINT ( 'NONE',  ( 51.00000000000000000, 0.000000000000000000, 0.000000000000000000 ) ) ;
#249 = ORIENTED_EDGE ( 'NONE', *, *, #196, .F. ) ;
#250 = FACE_OUTER_BOUND ( 'NONE', #955, .T. ) ;
#251 = CARTESIAN_POINT ( 'NONE',  ( -10.00000000000000000, 0.000000000000000000, 0.000000000000000000 ) ) ;
#252 = FACE_BOUND ( 'NONE', #479, .T. ) ;
#253 = ORIENTED_EDGE ( 'NONE', *, *, #765, .F. ) ;
#254 = EDGE_CURVE ( 'NONE', #659, #156, #291, .T. ) ;
#255 = FACE_OUTER_BOUND ( 'NONE', #720, .T. ) ;
#256 = CARTESIAN_POINT ( 'NONE',  ( 10.00000000000000000, 0.000000000000000000, 4.000000000000003553 ) ) ;
#257 = EDGE_CURVE ( 'NONE', #403, #811, #588, .T. ) ;
#258 = VERTEX_POINT ( 'NONE', #602 ) ;
#259 = VERTEX_POINT ( 'NONE', #926 ) ;
#260 = CIRCLE ( 'NONE', #784, 1.300000000000002487 ) ;
#261 = LINE ( 'NONE', #680, #211 ) ;
#262 = EDGE_CURVE ( 'NONE', #1228, #1202, #1106, .T. ) ;
#263 = VERTEX_POINT ( 'NONE', #733 ) ;
#264 = ORIENTED_EDGE ( 'NONE', *, *, #1087, .F. ) ;
#265 = CARTESIAN_POINT ( 'NONE',  ( 77.40000000000000568, -6.500000000000000000, 4.000000000000000888 ) ) ;
#266 = EDGE_CURVE ( 'NONE', #619, #847, #171, .T. ) ;
#267 = VERTEX_POINT ( 'NONE', #305 ) ;
#268 = SECURITY_CLASSIFICATION ( '', '', #495 ) ;
#269 = ORIENTED_EDGE ( 'NONE', *, *, #12, .F. ) ;
#270 = AXIS2_PLACEMENT_3D ( 'NONE', #247, #845, #145 ) ;
#271 = CIRCLE ( 'NONE', #125, 1.600000000000000755 ) ;
#272 = EDGE_CURVE ( 'NONE', #380, #1020, #1014, .T. ) ;
#273 = CARTESIAN_POINT ( 'NONE',  ( 42.00000000000000000, 14.00000000000000000, 4.000000000000000000 ) ) ;
#274 = AXIS2_PLACEMENT_3D ( 'NONE', #251, #1308, #463 ) ;
#275 = COORDINATED_UNIVERSAL_TIME_OFFSET ( 6, 0, .BEHIND. ) ;
#276 = CARTESIAN_POINT ( 'NONE',  ( 77.40000000000000568, 6.500000000000000000, 4.000000000000000888 ) ) ;
#277 = ORIENTED_EDGE ( 'NONE', *, *, #962, .T. ) ;
#278 = EDGE_CURVE ( 'NONE', #1040, #200, #804, .T. ) ;
#279 = VERTEX_POINT ( 'NONE', #311 ) ;
#280 = DIRECTION ( 'NONE',  ( -1.000000000000000000, -0.000000000000000000, -0.000000000000000000 ) ) ;
#281 = APPROVAL_ROLE ( '' ) ;
#282 = CARTESIAN_POINT ( 'NONE',  ( 42.00000000000000000, -14.00000000000000000, 4.000000000000000000 ) ) ;
#283 = ORIENTED_EDGE ( 'NONE', *, *, #257, .F. ) ;
#284 = DIRECTION ( 'NONE',  ( -0.000000000000000000, -0.000000000000000000, 1.000000000000000000 ) ) ;
#285 = VERTEX_POINT ( 'NONE', #86 ) ;
#286 = CARTESIAN_POINT ( 'NONE',  ( 4.000000000000000000, 4.898587196589412829E-16, 4.000000000000003553 ) ) ;
#287 = APPLICATION_PROTOCOL_DEFINITION ( 'international standard', 'config_control_design', 1994, #7 ) ;
#288 = AXIS2_PLACEMENT_3D ( 'NONE', #13, #139, #427 ) ;
#289 = CARTESIAN_POINT ( 'NONE',  ( 0.000000000000000000, -10.00000000000000000, 0.000000000000000000 ) ) ;
#290 = ORIENTED_EDGE ( 'NONE', *, *, #900, .T. ) ;
#291 = LINE ( 'NONE', #1026, #762 ) ;
#292 = VERTEX_POINT ( 'NONE', #751 ) ;
#293 = AXIS2_PLACEMENT_3D ( 'NONE', #1183, #1272, #679 ) ;
#294 = VECTOR ( 'NONE', #59, 1000.000000000000000 ) ;
#295 = CARTESIAN_POINT ( 'NONE',  ( 81.29999999999999716, 1.592040838891553672E-16, 4.000000000000003553 ) ) ;
#296 = EDGE_CURVE ( 'NONE', #342, #1116, #554, .T. ) ;
#297 = AXIS2_PLACEMENT_3D ( 'NONE', #884, #1289, #346 ) ;
#298 = CARTESIAN_POINT ( 'NONE',  ( -4.000000000000000000, 0.000000000000000000, 0.000000000000000000 ) ) ;
#299 = EDGE_LOOP ( 'NONE', ( #898, #545 ) ) ;
#300 = DIRECTION ( 'NONE',  ( 0.000000000000000000, 0.000000000000000000, -1.000000000000000000 ) ) ;
#301 = ORIENTED_EDGE ( 'NONE', *, *, #1321, .F. ) ;
#302 = DIRECTION ( 'NONE',  ( -1.000000000000000000, 0.000000000000000000, -0.000000000000000000 ) ) ;
#303 = CARTESIAN_POINT ( 'NONE',  ( 49.69999999999999574, 0.000000000000000000, 4.000000000000003553 ) ) ;
#304 = ORIENTED_EDGE ( 'NONE', *, *, #919, .F. ) ;
#305 = CARTESIAN_POINT ( 'NONE',  ( 42.00000000000000000, -7.000000000000000000, 4.000000000000000000 ) ) ;
#306 = VERTEX_POINT ( 'NONE', #658 ) ;
#307 = LINE ( 'NONE', #617, #231 ) ;
#308 = CARTESIAN_POINT ( 'NONE',  ( 86.60000000000000853, 9.000000000000000000, 0.000000000000000000 ) ) ;
#309 = ORIENTED_EDGE ( 'NONE', *, *, #355, .T. ) ;
#310 = EDGE_CURVE ( 'NONE', #318, #1243, #221, .T. ) ;
#311 = CARTESIAN_POINT ( 'NONE',  ( 86.60000000000000853, -9.000000000000000000, 0.000000000000000000 ) ) ;
#312 = VERTEX_POINT ( 'NONE', #960 ) ;
#313 = ADVANCED_FACE ( 'NONE', ( #118 ), #1276, .F. ) ;
#314 = LINE ( 'NONE', #114, #1188 ) ;
#315 = CIRCLE ( 'NONE', #624, 1.600000000000000755 ) ;
#316 = VECTOR ( 'NONE', #393, 1000.000000000000000 ) ;
#317 = CARTESIAN_POINT ( 'NONE',  ( 11.60000000000000142, 1.959434878635765970E-16, 4.000000000000003553 ) ) ;
#318 = VERTEX_POINT ( 'NONE', #4 ) ;
#319 = CIRCLE ( 'NONE', #1320, 1.600000000000000755 ) ;
#320 = CARTESIAN_POINT ( 'NONE',  ( 53.60000000000000142, -6.500000000000000000, 4.000000000000000888 ) ) ;
#321 = ORIENTED_EDGE ( 'NONE', *, *, #12, .T. ) ;
#322 = EDGE_CURVE ( 'NONE', #704, #1040, #954, .T. ) ;
#323 = CC_DESIGN_DATE_AND_TIME_ASSIGNMENT ( #195, #1204, ( #268 ) ) ;
#324 = DIRECTION ( 'NONE',  ( 1.000000000000000000, 0.000000000000000000, 0.000000000000000000 ) ) ;
#325 = CYLINDRICAL_SURFACE ( 'NONE', #950, 1.600000000000000089 ) ;
#326 = DIRECTION ( 'NONE',  ( 1.000000000000000000, 0.000000000000000000, 0.000000000000000000 ) ) ;
#327 = CARTESIAN_POINT ( 'NONE',  ( 0.000000000000000000, 0.000000000000000000, 4.000000000000000000 ) ) ;
#328 = ORIENTED_EDGE ( 'NONE', *, *, #936, .T. ) ;
#329 = FACE_BOUND ( 'NONE', #299, .T. ) ;
#330 = LINE ( 'NONE', #1053, #208 ) ;
#331 = LINE ( 'NONE', #637, #1085 ) ;
#332 = EDGE_CURVE ( 'NONE', #1304, #312, #181, .T. ) ;
#333 = LINE ( 'NONE', #1284, #229 ) ;
#334 = VERTEX_POINT ( 'NONE', #739 ) ;
#335 = DIRECTION ( 'NONE',  ( 1.000000000000000000, 0.000000000000000000, 0.000000000000000000 ) ) ;
#336 = EDGE_CURVE ( 'NONE', #1348, #666, #333, .T. ) ;
#337 = AXIS2_PLACEMENT_3D ( 'NONE', #455, #442, #245 ) ;
#338 = CARTESIAN_POINT ( 'NONE',  ( 90.00000000000000000, 14.00000000000000000, 0.000000000000000000 ) ) ;
#339 = CYLINDRICAL_SURFACE ( 'NONE', #901, 1.600000000000000755 ) ;
#340 = CIRCLE ( 'NONE', #970, 1.600000000000000089 ) ;
#341 = FACE_OUTER_BOUND ( 'NONE', #57, .T. ) ;
#342 = VERTEX_POINT ( 'NONE', #858 ) ;
#343 = AXIS2_PLACEMENT_3D ( 'NONE', #1086, #61, #1081 ) ;
#344 = ORIENTED_EDGE ( 'NONE', *, *, #1095, .T. ) ;
#345 = DIRECTION ( 'NONE',  ( -1.000000000000000000, 0.000000000000000000, 0.000000000000000000 ) ) ;
#346 = DIRECTION ( 'NONE',  ( -1.000000000000000000, 0.000000000000000000, 0.000000000000000000 ) ) ;
#347 = ORIENTED_EDGE ( 'NONE', *, *, #988, .T. ) ;
#348 = AXIS2_PLACEMENT_3D ( 'NONE', #1135, #621, #520 ) ;
#349 = DIRECTION ( 'NONE',  ( 0.000000000000000000, -0.000000000000000000, -1.000000000000000000 ) ) ;
#350 = ORIENTED_EDGE ( 'NONE', *, *, #17, .T. ) ;
#351 = LINE ( 'NONE', #358, #860 ) ;
#352 = CARTESIAN_POINT ( 'NONE',  ( 86.60000000000000853, 9.000000000000000000, 4.000000000000003553 ) ) ;
#353 = DIRECTION ( 'NONE',  ( 0.000000000000000000, 0.000000000000000000, -1.000000000000000000 ) ) ;
#354 = EDGE_LOOP ( 'NONE', ( #269, #418 ) ) ;
#355 = EDGE_CURVE ( 'NONE', #1020, #1207, #595, .T. ) ;
#356 = VECTOR ( 'NONE', #1049, 1000.000000000000000 ) ;
#357 = EDGE_CURVE ( 'NONE', #259, #77, #771, .T. ) ;
#358 = CARTESIAN_POINT ( 'NONE',  ( 83.40000000000000568, 9.000000000000000000, 4.000000000000003553 ) ) ;
#359 = CARTESIAN_POINT ( 'NONE',  ( 27.00000000000000000, 3.000000000000000000, 4.000000000000003553 ) ) ;
#360 = CIRCLE ( 'NONE', #536, 1.600000000000000755 ) ;
#361 = VERTEX_POINT ( 'NONE', #745 ) ;
#362 = ORIENTED_EDGE ( 'NONE', *, *, #170, .F. ) ;
#363 = CIRCLE ( 'NONE', #1168, 1.600000000000000755 ) ;
#364 = ORIENTED_EDGE ( 'NONE', *, *, #1002, .F. ) ;
#365 = ADVANCED_FACE ( 'NONE', ( #341 ), #433, .F. ) ;
#366 = CARTESIAN_POINT ( 'NONE',  ( 85.00000000000000000, -9.000000000000000000, 0.000000000000000000 ) ) ;
#367 = DIRECTION ( 'NONE',  ( 0.000000000000000000, 0.000000000000000000, -1.000000000000000000 ) ) ;
#368 = ORIENTED_EDGE ( 'NONE', *, *, #170, .T. ) ;
#369 = ORIENTED_EDGE ( 'NONE', *, *, #1078, .F. ) ;
#370 = DIRECTION ( 'NONE',  ( 1.000000000000000000, 0.000000000000000000, 0.000000000000000000 ) ) ;
#371 = DIRECTION ( 'NONE',  ( 1.000000000000000000, 0.000000000000000000, 0.000000000000000000 ) ) ;
#372 = EDGE_CURVE ( 'NONE', #593, #263, #532, .T. ) ;
#373 = ORIENTED_EDGE ( 'NONE', *, *, #1035, .F. ) ;
#374 = ORIENTED_EDGE ( 'NONE', *, *, #135, .T. ) ;
#375 = LINE ( 'NONE', #1223, #35 ) ;
#376 = DATE_TIME_ROLE ( 'creation_date' ) ;
#377 = CC_DESIGN_PERSON_AND_ORGANIZATION_ASSIGNMENT ( #694, #188, ( #24 ) ) ;
#378 = LINE ( 'NONE', #903, #316 ) ;
#379 = ADVANCED_FACE ( 'NONE', ( #838 ), #766, .F. ) ;
#380 = VERTEX_POINT ( 'NONE', #21 ) ;
#381 = AXIS2_PLACEMENT_3D ( 'NONE', #1084, #578, #469 ) ;
#382 = EDGE_LOOP ( 'NONE', ( #1300, #887, #752, #151 ) ) ;
#383 = CIRCLE ( 'NONE', #1079, 1.600000000000004086 ) ;
#384 = CARTESIAN_POINT ( 'NONE',  ( 78.70000000000000284, 0.000000000000000000, 0.000000000000000000 ) ) ;
#385 = COORDINATED_UNIVERSAL_TIME_OFFSET ( 6, 0, .BEHIND. ) ;
#386 = DIRECTION ( 'NONE',  ( -0.000000000000000000, -1.000000000000000000, -0.000000000000000000 ) ) ;
#387 = ORIENTED_EDGE ( 'NONE', *, *, #1002, .T. ) ;
#388 = DIRECTION ( 'NONE',  ( 0.000000000000000000, 1.000000000000000000, 0.000000000000000000 ) ) ;
#389 = ORIENTED_EDGE ( 'NONE', *, *, #1326, .F. ) ;
#390 = LINE ( 'NONE', #590, #925 ) ;
#391 = VECTOR ( 'NONE', #138, 1000.000000000000000 ) ;
#392 = APPROVAL_STATUS ( 'not_yet_approved' ) ;
#393 = DIRECTION ( 'NONE',  ( -1.000000000000000000, -0.000000000000000000, -0.000000000000000000 ) ) ;
#394 = ORIENTED_EDGE ( 'NONE', *, *, #1087, .T. ) ;
#395 = FACE_OUTER_BOUND ( 'NONE', #521, .T. ) ;
#396 = ORIENTED_EDGE ( 'NONE', *, *, #74, .F. ) ;
#397 = EDGE_CURVE ( 'NONE', #544, #1116, #120, .T. ) ;
#398 = PLANE ( 'NONE',  #753 ) ;
#399 = EDGE_CURVE ( 'NONE', #504, #318, #638, .T. ) ;
#400 = PERSON_AND_ORGANIZATION ( #1070, #1060 ) ;
#401 = AXIS2_PLACEMENT_3D ( 'NONE', #1071, #36, #1151 ) ;
#402 = FACE_OUTER_BOUND ( 'NONE', #783, .T. ) ;
#403 = VERTEX_POINT ( 'NONE', #1165 ) ;
#404 = CARTESIAN_POINT ( 'NONE',  ( 77.40000000000000568, 0.000000000000000000, -0.000000000000000000 ) ) ;
#405 = EDGE_LOOP ( 'NONE', ( #304, #813, #1001, #1072, #1022, #555, #1027, #881, #1263 ) ) ;
#406 = AXIS2_PLACEMENT_3D ( 'NONE', #915, #1234, #1336 ) ;
#407 = DIRECTION ( 'NONE',  ( 0.000000000000000000, 0.000000000000000000, -1.000000000000000000 ) ) ;
#408 = CALENDAR_DATE ( 2026, 7, 9 ) ;
#409 = AXIS2_PLACEMENT_3D ( 'NONE', #1162, #1062, #776 ) ;
#410 = DIRECTION ( 'NONE',  ( 0.000000000000000000, 0.000000000000000000, 1.000000000000000000 ) ) ;
#411 = ORIENTED_EDGE ( 'NONE', *, *, #1245, .F. ) ;
#412 = LINE ( 'NONE', #404, #934 ) ;
#413 = ORIENTED_EDGE ( 'NONE', *, *, #857, .T. ) ;
#414 = AXIS2_PLACEMENT_3D ( 'NONE', #1021, #284, #92 ) ;
#415 = CARTESIAN_POINT ( 'NONE',  ( 14.38749456993815734, 7.000000000000000000, 4.000000000000000000 ) ) ;
#416 = ADVANCED_FACE ( 'NONE', ( #1269 ), #438, .T. ) ;
#417 = LINE ( 'NONE', #317, #628 ) ;
#418 = ORIENTED_EDGE ( 'NONE', *, *, #1038, .F. ) ;
#419 = EDGE_CURVE ( 'NONE', #1094, #504, #1065, .T. ) ;
#420 = CARTESIAN_POINT ( 'NONE',  ( 4.000000000000000000, 4.898587196589412829E-16, 0.000000000000000000 ) ) ;
#421 = ORIENTED_EDGE ( 'NONE', *, *, #336, .T. ) ;
#422 = DIRECTION ( 'NONE',  ( 0.000000000000000000, 0.000000000000000000, -1.000000000000000000 ) ) ;
#423 = EDGE_CURVE ( 'NONE', #1346, #1141, #759, .T. ) ;
#424 = DIRECTION ( 'NONE',  ( -1.000000000000000000, 0.000000000000000000, 0.000000000000000000 ) ) ;
#425 = CARTESIAN_POINT ( 'NONE',  ( 51.00000000000000000, 0.000000000000000000, 4.000000000000003553 ) ) ;
#426 = CC_DESIGN_PERSON_AND_ORGANIZATION_ASSIGNMENT ( #484, #1120, ( #1153 ) ) ;
#427 = DIRECTION ( 'NONE',  ( 1.000000000000000000, 0.000000000000000000, 0.000000000000000000 ) ) ;
#428 = EDGE_LOOP ( 'NONE', ( #1356, #111 ) ) ;
#429 = DIRECTION ( 'NONE',  ( 0.000000000000000000, 0.000000000000000000, -1.000000000000000000 ) ) ;
#430 = DIRECTION ( 'NONE',  ( 0.000000000000000000, 0.000000000000000000, -1.000000000000000000 ) ) ;
#431 = DIRECTION ( 'NONE',  ( 0.000000000000000000, 0.000000000000000000, -1.000000000000000000 ) ) ;
#432 = APPROVAL_PERSON_ORGANIZATION ( #400, #142, #281 ) ;
#433 = PLANE ( 'NONE',  #1226 ) ;
#434 = ORIENTED_EDGE ( 'NONE', *, *, #141, .F. ) ;
#435 = DIRECTION ( 'NONE',  ( 0.000000000000000000, 0.000000000000000000, -1.000000000000000000 ) ) ;
#436 = LINE ( 'NONE', #1149, #475 ) ;
#437 = DIRECTION ( 'NONE',  ( -1.000000000000000000, 0.000000000000000000, 0.000000000000000000 ) ) ;
#438 = CYLINDRICAL_SURFACE ( 'NONE', #52, 16.00000000000000000 ) ;
#439 = ORIENTED_EDGE ( 'NONE', *, *, #837, .F. ) ;
#440 = ADVANCED_FACE ( 'NONE', ( #1131 ), #730, .T. ) ;
#441 = ORIENTED_EDGE ( 'NONE', *, *, #1044, .F. ) ;
#442 = DIRECTION ( 'NONE',  ( 0.000000000000000000, 0.000000000000000000, -1.000000000000000000 ) ) ;
#443 = DIRECTION ( 'NONE',  ( 0.000000000000000000, 0.000000000000000000, 1.000000000000000000 ) ) ;
#444 = CARTESIAN_POINT ( 'NONE',  ( 80.00000000000000000, 0.000000000000000000, 4.000000000000003553 ) ) ;
#445 = DIRECTION ( 'NONE',  ( -1.000000000000000000, 0.000000000000000000, 0.000000000000000000 ) ) ;
#446 = ORIENTED_EDGE ( 'NONE', *, *, #272, .T. ) ;
#447 = CARTESIAN_POINT ( 'NONE',  ( 42.00000000000000000, 14.00000000000000000, 4.000000000000000000 ) ) ;
#448 = AXIS2_PLACEMENT_3D ( 'NONE', #723, #429, #302 ) ;
#449 = CYLINDRICAL_SURFACE ( 'NONE', #237, 1.600000000000000755 ) ;
#450 = DIRECTION ( 'NONE',  ( 0.000000000000000000, 0.000000000000000000, -1.000000000000000000 ) ) ;
#451 = AXIS2_PLACEMENT_3D ( 'NONE', #719, #531, #1252 ) ;
#452 = CARTESIAN_POINT ( 'NONE',  ( 27.00000000000000000, -3.000000000000000000, 0.000000000000000000 ) ) ;
#453 = EDGE_LOOP ( 'NONE', ( #1315, #350 ) ) ;
#454 = CIRCLE ( 'NONE', #631, 1.600000000000004086 ) ;
#455 = CARTESIAN_POINT ( 'NONE',  ( 10.00000000000000000, 0.000000000000000000, 4.000000000000003553 ) ) ;
#456 = DIRECTION ( 'NONE',  ( 1.000000000000000000, 0.000000000000000000, 0.000000000000000000 ) ) ;
#457 = EDGE_CURVE ( 'NONE', #361, #544, #524, .T. ) ;
#458 = CARTESIAN_POINT ( 'NONE',  ( 86.60000000000000853, -9.000000000000000000, 4.000000000000003553 ) ) ;
#459 = CIRCLE ( 'NONE', #414, 1.600000000000000755 ) ;
#460 = ORIENTED_EDGE ( 'NONE', *, *, #1231, .F. ) ;
#461 = EDGE_CURVE ( 'NONE', #732, #788, #1184, .T. ) ;
#462 = DIRECTION ( 'NONE',  ( 0.000000000000000000, 0.000000000000000000, 1.000000000000000000 ) ) ;
#463 = DIRECTION ( 'NONE',  ( -1.000000000000000000, 0.000000000000000000, 0.000000000000000000 ) ) ;
#464 = ORIENTED_EDGE ( 'NONE', *, *, #481, .F. ) ;
#465 = EDGE_CURVE ( 'NONE', #879, #811, #1138, .T. ) ;
#466 = EDGE_LOOP ( 'NONE', ( #682, #1195, #161, #44 ) ) ;
#467 = AXIS2_PLACEMENT_3D ( 'NONE', #227, #543, #1076 ) ;
#468 = ORIENTED_EDGE ( 'NONE', *, *, #1044, .T. ) ;
#469 = DIRECTION ( 'NONE',  ( -1.000000000000000000, 0.000000000000000000, 0.000000000000000000 ) ) ;
#470 = CARTESIAN_POINT ( 'NONE',  ( 25.39999999999999858, 3.000000000000000000, 4.000000000000003553 ) ) ;
#471 = AXIS2_PLACEMENT_3D ( 'NONE', #194, #1327, #815 ) ;
#472 = VECTOR ( 'NONE', #1112, 1000.000000000000000 ) ;
#473 = ORIENTED_EDGE ( 'NONE', *, *, #179, .T. ) ;
#474 = ORIENTED_EDGE ( 'NONE', *, *, #244, .F. ) ;
#475 = VECTOR ( 'NONE', #938, 1000.000000000000000 ) ;
#476 = LINE ( 'NONE', #273, #1278 ) ;
#477 = ADVANCED_FACE ( 'NONE', ( #516 ), #635, .T. ) ;
#478 = LINE ( 'NONE', #1068, #165 ) ;
#479 = EDGE_LOOP ( 'NONE', ( #987, #1122 ) ) ;
#480 = ORIENTED_EDGE ( 'NONE', *, *, #1181, .T. ) ;
#481 = EDGE_CURVE ( 'NONE', #1241, #259, #314, .T. ) ;
#482 = LINE ( 'NONE', #286, #122 ) ;
#483 = ADVANCED_FACE ( 'NONE', ( #843, #230, #216, #207, #329, #108, #130, #943, #1265, #649, #1045, #530, #747 ), #1350, .F. ) ;
#484 = PERSON_AND_ORGANIZATION ( #1070, #1060 ) ;
#485 = DIRECTION ( 'NONE',  ( -0.000000000000000000, 1.000000000000000000, 0.000000000000000000 ) ) ;
#486 = ORIENTED_EDGE ( 'NONE', *, *, #1018, .F. ) ;
#487 = ORIENTED_EDGE ( 'NONE', *, *, #224, .T. ) ;
#488 = CYLINDRICAL_SURFACE ( 'NONE', #471, 1.600000000000000089 ) ;
#489 = DIRECTION ( 'NONE',  ( 0.000000000000000000, -0.000000000000000000, 1.000000000000000000 ) ) ;
#490 = ORIENTED_EDGE ( 'NONE', *, *, #1182, .F. ) ;
#491 = ORIENTED_EDGE ( 'NONE', *, *, #74, .T. ) ;
#492 = CIRCLE ( 'NONE', #451, 1.600000000000000089 ) ;
#493 = DIRECTION ( 'NONE',  ( 0.000000000000000000, 0.000000000000000000, -1.000000000000000000 ) ) ;
#494 = CIRCLE ( 'NONE', #15, 1.299999999999995604 ) ;
#495 = SECURITY_CLASSIFICATION_LEVEL ( 'unclassified' ) ;
#496 = EDGE_CURVE ( 'NONE', #859, #760, #307, .T. ) ;
#497 = LINE ( 'NONE', #600, #472 ) ;
#498 = ORIENTED_EDGE ( 'NONE', *, *, #217, .T. ) ;
#499 = CARTESIAN_POINT ( 'NONE',  ( 53.60000000000000142, 6.500000000000000000, 4.000000000000000888 ) ) ;
#500 = VERTEX_POINT ( 'NONE', #1061 ) ;
#501 = CARTESIAN_POINT ( 'NONE',  ( 42.00000000000000000, -14.00000000000000000, 0.000000000000000000 ) ) ;
#502 =( LENGTH_UNIT ( ) NAMED_UNIT ( * ) SI_UNIT ( .MILLI., .METRE. ) );
#503 = DIRECTION ( 'NONE',  ( 0.000000000000000000, 0.000000000000000000, -1.000000000000000000 ) ) ;
#504 = VERTEX_POINT ( 'NONE', #546 ) ;
#505 = FACE_BOUND ( 'NONE', #868, .T. ) ;
#506 = ORIENTED_EDGE ( 'NONE', *, *, #465, .T. ) ;
#507 = ADVANCED_FACE ( 'NONE', ( #935 ), #957, .T. ) ;
#508 = CARTESIAN_POINT ( 'NONE',  ( 42.00000000000000000, -14.00000000000000000, 0.000000000000000000 ) ) ;
#509 = CARTESIAN_POINT ( 'NONE',  ( 8.400000000000000355, 0.000000000000000000, 0.000000000000000000 ) ) ;
#510 = ORIENTED_EDGE ( 'NONE', *, *, #1118, .F. ) ;
#511 = DIRECTION ( 'NONE',  ( -1.000000000000000000, 0.000000000000000000, 0.000000000000000000 ) ) ;
#512 = ORIENTED_EDGE ( 'NONE', *, *, #126, .T. ) ;
#513 = AXIS2_PLACEMENT_3D ( 'NONE', #971, #462, #1280 ) ;
#514 = ADVANCED_FACE ( 'NONE', ( #18 ), #101, .F. ) ;
#515 = CIRCLE ( 'NONE', #1142, 1.300000000000002487 ) ;
#516 = FACE_OUTER_BOUND ( 'NONE', #466, .T. ) ;
#517 = APPROVAL_PERSON_ORGANIZATION ( #1017, #1147, #1211 ) ;
#518 = CARTESIAN_POINT ( 'NONE',  ( -1.600000000000000089, 10.00000000000000000, 0.000000000000000000 ) ) ;
#519 = VERTEX_POINT ( 'NONE', #415 ) ;
#520 = DIRECTION ( 'NONE',  ( -1.000000000000000000, 0.000000000000000000, 0.000000000000000000 ) ) ;
#521 = EDGE_LOOP ( 'NONE', ( #474, #1221, #1337, #622 ) ) ;
#522 = CC_DESIGN_PERSON_AND_ORGANIZATION_ASSIGNMENT ( #1009, #80, ( #1101 ) ) ;
#523 = CIRCLE ( 'NONE', #697, 1.600000000000004086 ) ;
#524 = LINE ( 'NONE', #1239, #643 ) ;
#525 = ADVANCED_FACE ( 'NONE', ( #834 ), #1251, .F. ) ;
#526 = DIRECTION ( 'NONE',  ( 0.000000000000000000, 0.000000000000000000, -1.000000000000000000 ) ) ;
#527 = ORIENTED_EDGE ( 'NONE', *, *, #397, .T. ) ;
#528 = CARTESIAN_POINT ( 'NONE',  ( 0.000000000000000000, 7.000000000000000000, 4.000000000000000000 ) ) ;
#529 = ORIENTED_EDGE ( 'NONE', *, *, #803, .F. ) ;
#530 = FACE_OUTER_BOUND ( 'NONE', #1250, .T. ) ;
#531 = DIRECTION ( 'NONE',  ( 0.000000000000000000, 0.000000000000000000, 1.000000000000000000 ) ) ;
#532 = CIRCLE ( 'NONE', #288, 16.00000000000000000 ) ;
#533 = CARTESIAN_POINT ( 'NONE',  ( 49.69999999999999574, 0.000000000000000000, 4.000000000000003553 ) ) ;
#534 = CARTESIAN_POINT ( 'NONE',  ( -4.000000000000000000, 0.000000000000000000, 4.000000000000003553 ) ) ;
#535 = ORIENTED_EDGE ( 'NONE', *, *, #1231, .T. ) ;
#536 = AXIS2_PLACEMENT_3D ( 'NONE', #1316, #88, #370 ) ;
#537 = APPROVAL_PERSON_ORGANIZATION ( #73, #626, #612 ) ;
#538 = CARTESIAN_POINT ( 'NONE',  ( 53.60000000000000142, 6.500000000000000000, 4.000000000000000888 ) ) ;
#539 = CARTESIAN_POINT ( 'NONE',  ( 28.60000000000000142, -3.000000000000000000, 4.000000000000003553 ) ) ;
#540 = CARTESIAN_POINT ( 'NONE',  ( 25.39999999999999858, -3.000000000000000000, 4.000000000000003553 ) ) ;
#541 =( GEOMETRIC_REPRESENTATION_CONTEXT ( 3 ) GLOBAL_UNCERTAINTY_ASSIGNED_CONTEXT ( ( #620 ) ) GLOBAL_UNIT_ASSIGNED_CONTEXT ( ( #502, #1126, #67 ) ) REPRESENTATION_CONTEXT ( 'NONE', 'WORKASPACE' ) );
#542 = EDGE_CURVE ( 'NONE', #778, #891, #922, .T. ) ;
#543 = DIRECTION ( 'NONE',  ( 0.000000000000000000, 0.000000000000000000, -1.000000000000000000 ) ) ;
#544 = VERTEX_POINT ( 'NONE', #984 ) ;
#545 = ORIENTED_EDGE ( 'NONE', *, *, #179, .F. ) ;
#546 = CARTESIAN_POINT ( 'NONE',  ( 53.60000000000000142, 6.500000000000000000, 4.000000000000000888 ) ) ;
#547 = CARTESIAN_POINT ( 'NONE',  ( 77.40000000000000568, 6.500000000000000000, 4.000000000000000000 ) ) ;
#548 = DIRECTION ( 'NONE',  ( 0.000000000000000000, 0.000000000000000000, -1.000000000000000000 ) ) ;
#549 = DIRECTION ( 'NONE',  ( -1.000000000000000000, -0.000000000000000000, -0.000000000000000000 ) ) ;
#550 = EDGE_LOOP ( 'NONE', ( #301, #734 ) ) ;
#551 = DIRECTION ( 'NONE',  ( -1.000000000000000000, 0.000000000000000000, 0.000000000000000000 ) ) ;
#552 = DIRECTION ( 'NONE',  ( -0.000000000000000000, -1.000000000000000000, -0.000000000000000000 ) ) ;
#553 = CARTESIAN_POINT ( 'NONE',  ( 42.00000000000000000, 14.00000000000000000, 4.000000000000000000 ) ) ;
#554 = LINE ( 'NONE', #1157, #1287 ) ;
#555 = ORIENTED_EDGE ( 'NONE', *, *, #254, .F. ) ;
#556 = EDGE_CURVE ( 'NONE', #666, #1050, #148, .T. ) ;
#557 = LINE ( 'NONE', #39, #688 ) ;
#558 = CIRCLE ( 'NONE', #513, 4.000000000000000000 ) ;
#559 = DIRECTION ( 'NONE',  ( 0.000000000000000000, 0.000000000000000000, 1.000000000000000000 ) ) ;
#560 = DIRECTION ( 'NONE',  ( -1.000000000000000000, 0.000000000000000000, 0.000000000000000000 ) ) ;
#561 = CIRCLE ( 'NONE', #794, 1.600000000000000089 ) ;
#562 = ADVANCED_FACE ( 'NONE', ( #250 ), #655, .F. ) ;
#563 = ORIENTED_EDGE ( 'NONE', *, *, #1134, .F. ) ;
#564 = COORDINATED_UNIVERSAL_TIME_OFFSET ( 6, 0, .BEHIND. ) ;
#565 = CYLINDRICAL_SURFACE ( 'NONE', #774, 4.000000000000000000 ) ;
#566 = ADVANCED_FACE ( 'NONE', ( #255 ), #874, .F. ) ;
#567 = DIRECTION ( 'NONE',  ( -0.000000000000000000, -0.000000000000000000, -1.000000000000000000 ) ) ;
#568 = ADVANCED_FACE ( 'NONE', ( #1197 ), #157, .F. ) ;
#569 = ORIENTED_EDGE ( 'NONE', *, *, #1266, .T. ) ;
#570 = ORIENTED_EDGE ( 'NONE', *, *, #1046, .F. ) ;
#571 = CYLINDRICAL_SURFACE ( 'NONE', #337, 1.600000000000000755 ) ;
#572 = DIRECTION ( 'NONE',  ( 0.000000000000000000, 0.000000000000000000, -1.000000000000000000 ) ) ;
#573 = ORIENTED_EDGE ( 'NONE', *, *, #940, .T. ) ;
#574 = APPROVAL_DATE_TIME ( #683, #626 ) ;
#575 = ORIENTED_EDGE ( 'NONE', *, *, #1351, .F. ) ;
#576 = AXIS2_PLACEMENT_3D ( 'NONE', #538, #1148, #627 ) ;
#577 = EDGE_CURVE ( 'NONE', #811, #403, #1119, .T. ) ;
#578 = DIRECTION ( 'NONE',  ( 0.000000000000000000, 0.000000000000000000, -1.000000000000000000 ) ) ;
#579 = DIRECTION ( 'NONE',  ( 0.000000000000000000, -1.000000000000000000, 0.000000000000000000 ) ) ;
#580 = AXIS2_PLACEMENT_3D ( 'NONE', #1127, #485, #489 ) ;
#581 = ORIENTED_EDGE ( 'NONE', *, *, #837, .T. ) ;
#582 = ADVANCED_FACE ( 'NONE', ( #990 ), #565, .F. ) ;
#583 = EDGE_LOOP ( 'NONE', ( #767, #1174, #5, #961 ) ) ;
#584 = ORIENTED_EDGE ( 'NONE', *, *, #1064, .F. ) ;
#585 = DIRECTION ( 'NONE',  ( 0.000000000000000000, 0.000000000000000000, -1.000000000000000000 ) ) ;
#586 = DIRECTION ( 'NONE',  ( 0.000000000000000000, 0.000000000000000000, 1.000000000000000000 ) ) ;
#587 = EDGE_LOOP ( 'NONE', ( #797, #684 ) ) ;
#588 = CIRCLE ( 'NONE', #45, 1.299999999999995604 ) ;
#589 = ORIENTED_EDGE ( 'NONE', *, *, #1248, .T. ) ;
#590 = CARTESIAN_POINT ( 'NONE',  ( -1.600000000000000089, -10.00000000000000000, 4.000000000000003553 ) ) ;
#591 = PERSON_AND_ORGANIZATION_ROLE ( 'creator' ) ;
#592 = LINE ( 'NONE', #1345, #103 ) ;
#593 = VERTEX_POINT ( 'NONE', #46 ) ;
#594 = ORIENTED_EDGE ( 'NONE', *, *, #99, .T. ) ;
#595 = CIRCLE ( 'NONE', #986, 1.300000000000002487 ) ;
#596 = FACE_OUTER_BOUND ( 'NONE', #65, .T. ) ;
#597 = EDGE_CURVE ( 'NONE', #704, #243, #558, .T. ) ;
#598 = AXIS2_PLACEMENT_3D ( 'NONE', #25, #1028, #824 ) ;
#599 = EDGE_CURVE ( 'NONE', #1332, #1292, #351, .T. ) ;
#600 = CARTESIAN_POINT ( 'NONE',  ( 0.000000000000000000, -6.500000000000000000, -0.000000000000000000 ) ) ;
#601 = EDGE_LOOP ( 'NONE', ( #439, #1314 ) ) ;
#602 = CARTESIAN_POINT ( 'NONE',  ( 1.600000000000000089, -10.00000000000000000, 4.000000000000003553 ) ) ;
#603 = ORIENTED_EDGE ( 'NONE', *, *, #322, .T. ) ;
#604 = DIRECTION ( 'NONE',  ( -1.000000000000000000, 0.000000000000000000, 0.000000000000000000 ) ) ;
#605 = CIRCLE ( 'NONE', #1302, 16.00000000000000000 ) ;
#606 = DIRECTION ( 'NONE',  ( 0.000000000000000000, 0.000000000000000000, -1.000000000000000000 ) ) ;
#607 = ADVANCED_FACE ( 'NONE', ( #768 ), #571, .F. ) ;
#608 = ORIENTED_EDGE ( 'NONE', *, *, #793, .F. ) ;
#609 = FACE_BOUND ( 'NONE', #904, .T. ) ;
#610 = EDGE_LOOP ( 'NONE', ( #321, #87, #96, #1166 ) ) ;
#611 = CARTESIAN_POINT ( 'NONE',  ( 14.38749456993815734, -7.000000000000000000, 0.000000000000000000 ) ) ;
#612 = APPROVAL_ROLE ( '' ) ;
#613 = DIRECTION ( 'NONE',  ( -0.000000000000000000, 0.000000000000000000, 1.000000000000000000 ) ) ;
#614 = ORIENTED_EDGE ( 'NONE', *, *, #266, .T. ) ;
#615 = CARTESIAN_POINT ( 'NONE',  ( 27.00000000000000000, -3.000000000000000000, 4.000000000000003553 ) ) ;
#616 = EDGE_LOOP ( 'NONE', ( #98, #309 ) ) ;
#617 = CARTESIAN_POINT ( 'NONE',  ( 0.000000000000000000, 6.500000000000000000, 0.000000000000000000 ) ) ;
#618 = CARTESIAN_POINT ( 'NONE',  ( 85.00000000000000000, -9.000000000000000000, 0.000000000000000000 ) ) ;
#619 = VERTEX_POINT ( 'NONE', #854 ) ;
#620 = UNCERTAINTY_MEASURE_WITH_UNIT (LENGTH_MEASURE( 1.000000000000000082E-05 ), #502, 'distance_accuracy_value', 'NONE');
#621 = DIRECTION ( 'NONE',  ( -0.000000000000000000, -0.000000000000000000, 1.000000000000000000 ) ) ;
#622 = ORIENTED_EDGE ( 'NONE', *, *, #17, .F. ) ;
#623 = AXIS2_PLACEMENT_3D ( 'NONE', #742, #8, #1154 ) ;
#624 = AXIS2_PLACEMENT_3D ( 'NONE', #1171, #1150, #1075 ) ;
#625 = CIRCLE ( 'NONE', #713, 1.600000000000004086 ) ;
#626 = APPROVAL ( #392, 'UNSPECIFIED' ) ;
#627 = DIRECTION ( 'NONE',  ( 0.000000000000000000, -0.000000000000000000, -1.000000000000000000 ) ) ;
#628 = VECTOR ( 'NONE', #10, 1000.000000000000000 ) ;
#629 = DIRECTION ( 'NONE',  ( -0.000000000000000000, -0.000000000000000000, -1.000000000000000000 ) ) ;
#630 = ORIENTED_EDGE ( 'NONE', *, *, #1064, .T. ) ;
#631 = AXIS2_PLACEMENT_3D ( 'NONE', #3, #1260, #326 ) ;
#632 = LINE ( 'NONE', #1338, #1217 ) ;
#633 = ORIENTED_EDGE ( 'NONE', *, *, #1326, .T. ) ;
#634 = AXIS2_PLACEMENT_3D ( 'NONE', #812, #1324, #911 ) ;
#635 = CYLINDRICAL_SURFACE ( 'NONE', #1139, 16.00000000000000000 ) ;
#636 = DIRECTION ( 'NONE',  ( -0.000000000000000000, -0.000000000000000000, 1.000000000000000000 ) ) ;
#637 = CARTESIAN_POINT ( 'NONE',  ( 90.00000000000000000, -14.00000000000000000, 4.000000000000000000 ) ) ;
#638 = LINE ( 'NONE', #320, #356 ) ;
#639 = EDGE_LOOP ( 'NONE', ( #740, #29, #1006, #1235 ) ) ;
#640 = DIRECTION ( 'NONE',  ( 0.000000000000000000, 0.000000000000000000, 1.000000000000000000 ) ) ;
#641 = EDGE_CURVE ( 'NONE', #789, #732, #1275, .T. ) ;
#642 = DIRECTION ( 'NONE',  ( 0.000000000000000000, 0.000000000000000000, 1.000000000000000000 ) ) ;
#643 = VECTOR ( 'NONE', #422, 1000.000000000000000 ) ;
#644 = LINE ( 'NONE', #27, #391 ) ;
#645 = DIRECTION ( 'NONE',  ( -0.000000000000000000, -0.000000000000000000, -1.000000000000000000 ) ) ;
#646 = ORIENTED_EDGE ( 'NONE', *, *, #196, .T. ) ;
#647 = AXIS2_PLACEMENT_3D ( 'NONE', #136, #143, #1080 ) ;
#648 = VECTOR ( 'NONE', #923, 1000.000000000000000 ) ;
#649 = FACE_BOUND ( 'NONE', #1270, .T. ) ;
#650 = DIRECTION ( 'NONE',  ( -1.000000000000000000, 0.000000000000000000, 0.000000000000000000 ) ) ;
#651 = DIRECTION ( 'NONE',  ( -0.000000000000000000, -0.000000000000000000, 1.000000000000000000 ) ) ;
#652 = VECTOR ( 'NONE', #567, 1000.000000000000000 ) ;
#653 = DIRECTION ( 'NONE',  ( -0.000000000000000000, -0.000000000000000000, 1.000000000000000000 ) ) ;
#654 = EDGE_LOOP ( 'NONE', ( #1025, #698 ) ) ;
#655 = CYLINDRICAL_SURFACE ( 'NONE', #293, 1.300000000000002487 ) ;
#656 = CARTESIAN_POINT ( 'NONE',  ( 53.60000000000000142, -6.500000000000000000, 0.000000000000000000 ) ) ;
#657 = LINE ( 'NONE', #553, #214 ) ;
#658 = CARTESIAN_POINT ( 'NONE',  ( 42.00000000000000000, 7.000000000000000000, 4.000000000000000000 ) ) ;
#659 = VERTEX_POINT ( 'NONE', #869 ) ;
#660 = ADVANCED_FACE ( 'NONE', ( #1169 ), #238, .F. ) ;
#661 = EDGE_CURVE ( 'NONE', #14, #279, #792, .T. ) ;
#662 = CARTESIAN_POINT ( 'NONE',  ( 90.00000000000000000, 14.00000000000000000, 4.000000000000000000 ) ) ;
#663 = CARTESIAN_POINT ( 'NONE',  ( 25.39999999999999858, -3.000000000000000000, 0.000000000000000000 ) ) ;
#664 = FACE_OUTER_BOUND ( 'NONE', #976, .T. ) ;
#665 = DIRECTION ( 'NONE',  ( 0.000000000000000000, -1.000000000000000000, 0.000000000000000000 ) ) ;
#666 = VERTEX_POINT ( 'NONE', #662 ) ;
#667 = CC_DESIGN_PERSON_AND_ORGANIZATION_ASSIGNMENT ( #914, #1004, ( #268 ) ) ;
#668 = CC_DESIGN_PERSON_AND_ORGANIZATION_ASSIGNMENT ( #1111, #591, ( #1101 ) ) ;
#669 = CARTESIAN_POINT ( 'NONE',  ( 85.00000000000000000, 9.000000000000000000, 4.000000000000003553 ) ) ;
#670 = DIRECTION ( 'NONE',  ( 0.000000000000000000, 0.000000000000000000, 1.000000000000000000 ) ) ;
#671 = FACE_BOUND ( 'NONE', #453, .T. ) ;
#672 = AXIS2_PLACEMENT_3D ( 'NONE', #1110, #187, #604 ) ;
#673 = VERTEX_POINT ( 'NONE', #447 ) ;
#674 = CARTESIAN_POINT ( 'NONE',  ( -1.600000000000000089, 10.00000000000000000, 4.000000000000003553 ) ) ;
#675 = CARTESIAN_POINT ( 'NONE',  ( 90.00000000000000000, -14.00000000000000000, 0.000000000000000000 ) ) ;
#676 = ORIENTED_EDGE ( 'NONE', *, *, #1245, .T. ) ;
#677 = AXIS2_PLACEMENT_3D ( 'NONE', #1054, #651, #1069 ) ;
#678 = ORIENTED_EDGE ( 'NONE', *, *, #496, .T. ) ;
#679 = DIRECTION ( 'NONE',  ( -1.000000000000000000, 0.000000000000000000, 0.000000000000000000 ) ) ;
#680 = CARTESIAN_POINT ( 'NONE',  ( 83.40000000000000568, -9.000000000000000000, 4.000000000000003553 ) ) ;
#681 = EDGE_CURVE ( 'NONE', #778, #1202, #964, .T. ) ;
#682 = ORIENTED_EDGE ( 'NONE', *, *, #372, .F. ) ;
#683 = DATE_AND_TIME ( #1201, #1059 ) ;
#684 = ORIENTED_EDGE ( 'NONE', *, *, #262, .T. ) ;
#685 = EDGE_LOOP ( 'NONE', ( #468, #715, #434, #529 ) ) ;
#686 = CARTESIAN_POINT ( 'NONE',  ( 53.60000000000000142, 6.500000000000000000, 0.000000000000000000 ) ) ;
#687 = CALENDAR_DATE ( 2026, 7, 9 ) ;
#688 = VECTOR ( 'NONE', #1288, 1000.000000000000000 ) ;
#689 = CIRCLE ( 'NONE', #735, 1.600000000000004086 ) ;
#690 = ORIENTED_EDGE ( 'NONE', *, *, #310, .T. ) ;
#691 = ORIENTED_EDGE ( 'NONE', *, *, #257, .T. ) ;
#692 = LOCAL_TIME ( 16, 17, 35.00000000000000000, #275 ) ;
#693 = LINE ( 'NONE', #295, #100 ) ;
#694 = PERSON_AND_ORGANIZATION ( #1070, #1060 ) ;
#695 = DIRECTION ( 'NONE',  ( 1.000000000000000000, 0.000000000000000000, 0.000000000000000000 ) ) ;
#696 = ORIENTED_EDGE ( 'NONE', *, *, #857, .F. ) ;
#697 = AXIS2_PLACEMENT_3D ( 'NONE', #872, #1082, #1186 ) ;
#698 = ORIENTED_EDGE ( 'NONE', *, *, #936, .F. ) ;
#699 = EDGE_CURVE ( 'NONE', #1050, #706, #780, .T. ) ;
#700 = LINE ( 'NONE', #888, #56 ) ;
#701 = EDGE_CURVE ( 'NONE', #760, #1243, #557, .T. ) ;
#702 = APPROVAL_DATE_TIME ( #791, #1147 ) ;
#703 = CARTESIAN_POINT ( 'NONE',  ( 77.40000000000000568, 6.500000000000000000, 0.000000000000000000 ) ) ;
#704 = VERTEX_POINT ( 'NONE', #1003 ) ;
#705 = DIRECTION ( 'NONE',  ( 0.000000000000000000, 0.000000000000000000, -1.000000000000000000 ) ) ;
#706 = VERTEX_POINT ( 'NONE', #1334 ) ;
#707 = VECTOR ( 'NONE', #1244, 1000.000000000000000 ) ;
#708 = CARTESIAN_POINT ( 'NONE',  ( 27.00000000000000000, -3.000000000000000000, 4.000000000000003553 ) ) ;
#709 = EDGE_CURVE ( 'NONE', #897, #1094, #700, .T. ) ;
#710 = MECHANICAL_CONTEXT ( 'NONE', #7, 'mechanical' ) ;
#711 = DIRECTION ( 'NONE',  ( -0.000000000000000000, -0.000000000000000000, 1.000000000000000000 ) ) ;
#712 = EDGE_LOOP ( 'NONE', ( #373, #1136, #487, #1277 ) ) ;
#713 = AXIS2_PLACEMENT_3D ( 'NONE', #618, #1140, #424 ) ;
#714 = CARTESIAN_POINT ( 'NONE',  ( 80.00000000000000000, 0.000000000000000000, 0.000000000000000000 ) ) ;
#715 = ORIENTED_EDGE ( 'NONE', *, *, #215, .T. ) ;
#716 = CYLINDRICAL_SURFACE ( 'NONE', #1096, 1.600000000000000755 ) ;
#717 = AXIS2_PLACEMENT_3D ( 'NONE', #1170, #952, #650 ) ;
#718 = CALENDAR_DATE ( 2026, 7, 9 ) ;
#719 = CARTESIAN_POINT ( 'NONE',  ( 0.000000000000000000, -10.00000000000000000, 4.000000000000003553 ) ) ;
#720 = EDGE_LOOP ( 'NONE', ( #64, #927, #993, #563 ) ) ;
#721 = CARTESIAN_POINT ( 'NONE',  ( 42.00000000000000000, 7.000000000000000000, 0.000000000000000000 ) ) ;
#722 = ORIENTED_EDGE ( 'NONE', *, *, #399, .T. ) ;
#723 = CARTESIAN_POINT ( 'NONE',  ( 0.000000000000000000, 0.000000000000000000, 4.000000000000000000 ) ) ;
#724 = ADVANCED_FACE ( 'NONE', ( #71 ), #164, .F. ) ;
#725 = LINE ( 'NONE', #909, #754 ) ;
#726 = ORIENTED_EDGE ( 'NONE', *, *, #866, .F. ) ;
#727 = EDGE_CURVE ( 'NONE', #292, #403, #693, .T. ) ;
#728 = DIRECTION ( 'NONE',  ( 0.000000000000000000, 0.000000000000000000, -1.000000000000000000 ) ) ;
#729 = ORIENTED_EDGE ( 'NONE', *, *, #701, .T. ) ;
#730 = PLANE ( 'NONE',  #576 ) ;
#731 = CARTESIAN_POINT ( 'NONE',  ( 80.00000000000000000, 0.000000000000000000, 4.000000000000003553 ) ) ;
#732 = VERTEX_POINT ( 'NONE', #786 ) ;
#733 = CARTESIAN_POINT ( 'NONE',  ( 14.38749456993815734, -7.000000000000000000, 4.000000000000000000 ) ) ;
#734 = ORIENTED_EDGE ( 'NONE', *, *, #1205, .F. ) ;
#735 = AXIS2_PLACEMENT_3D ( 'NONE', #131, #756, #1352 ) ;
#736 = CARTESIAN_POINT ( 'NONE',  ( 0.000000000000000000, 0.000000000000000000, 4.000000000000000000 ) ) ;
#737 = CARTESIAN_POINT ( 'NONE',  ( 42.00000000000000000, -14.00000000000000000, 4.000000000000000000 ) ) ;
#738 = FACE_OUTER_BOUND ( 'NONE', #886, .T. ) ;
#739 = CARTESIAN_POINT ( 'NONE',  ( 11.60000000000000142, 1.959434878635765970E-16, 0.000000000000000000 ) ) ;
#740 = ORIENTED_EDGE ( 'NONE', *, *, #215, .F. ) ;
#741 = EDGE_CURVE ( 'NONE', #796, #77, #375, .T. ) ;
#742 = CARTESIAN_POINT ( 'NONE',  ( 42.00000000000000000, -14.00000000000000000, 4.000000000000000000 ) ) ;
#743 = CARTESIAN_POINT ( 'NONE',  ( 0.000000000000000000, 10.00000000000000000, 4.000000000000003553 ) ) ;
#744 = DIRECTION ( 'NONE',  ( -0.000000000000000000, -0.000000000000000000, -1.000000000000000000 ) ) ;
#745 = CARTESIAN_POINT ( 'NONE',  ( -8.400000000000000355, 1.959434878635765970E-16, 4.000000000000003553 ) ) ;
#746 = ORIENTED_EDGE ( 'NONE', *, *, #980, .F. ) ;
#747 = FACE_BOUND ( 'NONE', #210, .T. ) ;
#748 = ADVANCED_FACE ( 'NONE', ( #1105 ), #398, .T. ) ;
#749 = LINE ( 'NONE', #1259, #1318 ) ;
#750 = CARTESIAN_POINT ( 'NONE',  ( 28.60000000000000142, 3.000000000000000000, 0.000000000000000000 ) ) ;
#751 = CARTESIAN_POINT ( 'NONE',  ( 81.29999999999999716, 1.592040838891553672E-16, 4.000000000000003553 ) ) ;
#752 = ORIENTED_EDGE ( 'NONE', *, *, #1035, .T. ) ;
#753 = AXIS2_PLACEMENT_3D ( 'NONE', #265, #1098, #172 ) ;
#754 = VECTOR ( 'NONE', #695, 1000.000000000000000 ) ;
#755 = CARTESIAN_POINT ( 'NONE',  ( 0.000000000000000000, 0.000000000000000000, 4.000000000000003553 ) ) ;
#756 = DIRECTION ( 'NONE',  ( -0.000000000000000000, -0.000000000000000000, 1.000000000000000000 ) ) ;
#757 = FACE_OUTER_BOUND ( 'NONE', #931, .T. ) ;
#758 = LOCAL_TIME ( 16, 17, 35.00000000000000000, #1328 ) ;
#759 = LINE ( 'NONE', #242, #707 ) ;
#760 = VERTEX_POINT ( 'NONE', #686 ) ;
#761 = DIRECTION ( 'NONE',  ( 0.000000000000000000, 0.000000000000000000, 1.000000000000000000 ) ) ;
#762 = VECTOR ( 'NONE', #932, 1000.000000000000000 ) ;
#763 = DIRECTION ( 'NONE',  ( 0.000000000000000000, 0.000000000000000000, -1.000000000000000000 ) ) ;
#764 = FACE_OUTER_BOUND ( 'NONE', #828, .T. ) ;
#765 = EDGE_CURVE ( 'NONE', #796, #1241, #360, .T. ) ;
#766 = PLANE ( 'NONE',  #1159 ) ;
#767 = ORIENTED_EDGE ( 'NONE', *, *, #43, .T. ) ;
#768 = FACE_OUTER_BOUND ( 'NONE', #1187, .T. ) ;
#769 = CARTESIAN_POINT ( 'NONE',  ( 0.000000000000000000, 7.000000000000000000, 4.000000000000000000 ) ) ;
#770 = LINE ( 'NONE', #458, #1175 ) ;
#771 = CIRCLE ( 'NONE', #401, 1.600000000000000755 ) ;
#772 = EDGE_LOOP ( 'NONE', ( #441, #570 ) ) ;
#773 = MANIFOLD_SOLID_BREP ( 'Passive_cheek_standoffs', #972 ) ;
#774 = AXIS2_PLACEMENT_3D ( 'NONE', #755, #977, #345 ) ;
#775 = DIRECTION ( 'NONE',  ( -1.000000000000000000, 0.000000000000000000, 0.000000000000000000 ) ) ;
#776 = DIRECTION ( 'NONE',  ( 1.000000000000000000, 0.000000000000000000, 0.000000000000000000 ) ) ;
#777 = ORIENTED_EDGE ( 'NONE', *, *, #278, .T. ) ;
#778 = VERTEX_POINT ( 'NONE', #907 ) ;
#779 = ADVANCED_FACE ( 'NONE', ( #1229 ), #716, .F. ) ;
#780 = LINE ( 'NONE', #862, #946 ) ;
#781 = PLANE ( 'NONE',  #129 ) ;
#782 = ADVANCED_FACE ( 'NONE', ( #1008 ), #488, .F. ) ;
#783 = EDGE_LOOP ( 'NONE', ( #918, #107, #185, #1103 ) ) ;
#784 = AXIS2_PLACEMENT_3D ( 'NONE', #425, #959, #240 ) ;
#785 = ORIENTED_EDGE ( 'NONE', *, *, #173, .F. ) ;
#786 = CARTESIAN_POINT ( 'NONE',  ( -16.00000000000000000, 0.000000000000000000, 0.000000000000000000 ) ) ;
#787 = LINE ( 'NONE', #1198, #1146 ) ;
#788 = VERTEX_POINT ( 'NONE', #611 ) ;
#789 = VERTEX_POINT ( 'NONE', #808 ) ;
#790 = DIRECTION ( 'NONE',  ( 0.000000000000000000, 0.000000000000000000, -1.000000000000000000 ) ) ;
#791 = DATE_AND_TIME ( #408, #692 ) ;
#792 = CIRCLE ( 'NONE', #9, 1.600000000000004086 ) ;
#793 = EDGE_CURVE ( 'NONE', #243, #200, #482, .T. ) ;
#794 = AXIS2_PLACEMENT_3D ( 'NONE', #123, #443, #116 ) ;
#795 = CARTESIAN_POINT ( 'NONE',  ( 52.29999999999999716, 1.592040838891562300E-16, 0.000000000000000000 ) ) ;
#796 = VERTEX_POINT ( 'NONE', #1209 ) ;
#797 = ORIENTED_EDGE ( 'NONE', *, *, #72, .T. ) ;
#798 = EDGE_CURVE ( 'NONE', #156, #1225, #1117, .T. ) ;
#799 = VECTOR ( 'NONE', #973, 1000.000000000000000 ) ;
#800 = FACE_OUTER_BOUND ( 'NONE', #198, .T. ) ;
#801 = DIRECTION ( 'NONE',  ( -0.000000000000000000, -0.000000000000000000, 1.000000000000000000 ) ) ;
#802 = ORIENTED_EDGE ( 'NONE', *, *, #893, .T. ) ;
#803 = EDGE_CURVE ( 'NONE', #1305, #105, #390, .T. ) ;
#804 = CIRCLE ( 'NONE', #348, 4.000000000000000000 ) ;
#805 = CARTESIAN_POINT ( 'NONE',  ( 28.60000000000000142, -3.000000000000000000, 4.000000000000003553 ) ) ;
#806 = ORIENTED_EDGE ( 'NONE', *, *, #1333, .F. ) ;
#807 = EDGE_CURVE ( 'NONE', #666, #673, #476, .T. ) ;
#808 = CARTESIAN_POINT ( 'NONE',  ( 14.38749456993815734, 7.000000000000000000, 0.000000000000000000 ) ) ;
#809 = CARTESIAN_POINT ( 'NONE',  ( 0.000000000000000000, 0.000000000000000000, 0.000000000000000000 ) ) ;
#810 = CARTESIAN_POINT ( 'NONE',  ( 14.38749456993815734, 7.000000000000000000, 4.000000000000000000 ) ) ;
#811 = VERTEX_POINT ( 'NONE', #384 ) ;
#812 = CARTESIAN_POINT ( 'NONE',  ( 0.000000000000000000, 0.000000000000000000, 0.000000000000000000 ) ) ;
#813 = ORIENTED_EDGE ( 'NONE', *, *, #848, .F. ) ;
#814 = VECTOR ( 'NONE', #28, 1000.000000000000000 ) ;
#815 = DIRECTION ( 'NONE',  ( -1.000000000000000000, 0.000000000000000000, 0.000000000000000000 ) ) ;
#816 = CARTESIAN_POINT ( 'NONE',  ( 8.400000000000000355, 0.000000000000000000, 4.000000000000003553 ) ) ;
#817 = CARTESIAN_POINT ( 'NONE',  ( 77.40000000000000568, -6.500000000000000000, 4.000000000000000888 ) ) ;
#818 = EDGE_LOOP ( 'NONE', ( #589, #1083, #1128, #491 ) ) ;
#819 = VECTOR ( 'NONE', #386, 1000.000000000000000 ) ;
#820 = LINE ( 'NONE', #499, #870 ) ;
#821 = ORIENTED_EDGE ( 'NONE', *, *, #661, .F. ) ;
#822 = CC_DESIGN_APPROVAL ( #142, ( #24 ) ) ;
#823 = ADVANCED_FACE ( 'NONE', ( #800 ), #1307, .F. ) ;
#824 = DIRECTION ( 'NONE',  ( 0.000000000000000000, 0.000000000000000000, -1.000000000000000000 ) ) ;
#825 = LINE ( 'NONE', #197, #1233 ) ;
#826 = EDGE_LOOP ( 'NONE', ( #486, #1323 ) ) ;
#827 = CARTESIAN_POINT ( 'NONE',  ( 4.000000000000000000, 4.898587196589412829E-16, 4.000000000000003553 ) ) ;
#828 = EDGE_LOOP ( 'NONE', ( #203, #205, #506, #283 ) ) ;
#829 = DIRECTION ( 'NONE',  ( 0.000000000000000000, 0.000000000000000000, -1.000000000000000000 ) ) ;
#830 = DIRECTION ( 'NONE',  ( -0.000000000000000000, -0.000000000000000000, 1.000000000000000000 ) ) ;
#831 = ORIENTED_EDGE ( 'NONE', *, *, #893, .F. ) ;
#832 = DIRECTION ( 'NONE',  ( 0.000000000000000000, 0.000000000000000000, 1.000000000000000000 ) ) ;
#833 = EDGE_LOOP ( 'NONE', ( #119, #785 ) ) ;
#834 = FACE_OUTER_BOUND ( 'NONE', #981, .T. ) ;
#835 = CARTESIAN_POINT ( 'NONE',  ( 42.00000000000000000, -14.00000000000000000, 4.000000000000000000 ) ) ;
#836 = DIRECTION ( 'NONE',  ( 1.000000000000000000, 0.000000000000000000, 0.000000000000000000 ) ) ;
#837 = EDGE_CURVE ( 'NONE', #113, #1113, #147, .T. ) ;
#838 = FACE_OUTER_BOUND ( 'NONE', #1310, .T. ) ;
#839 = ORIENTED_EDGE ( 'NONE', *, *, #322, .F. ) ;
#840 = CC_DESIGN_APPROVAL ( #1147, ( #1101 ) ) ;
#841 = AXIS2_PLACEMENT_3D ( 'NONE', #1322, #410, #182 ) ;
#842 = ADVANCED_FACE ( 'NONE', ( #596 ), #78, .F. ) ;
#843 = FACE_BOUND ( 'NONE', #826, .T. ) ;
#844 = CYLINDRICAL_SURFACE ( 'NONE', #717, 1.600000000000004086 ) ;
#845 = DIRECTION ( 'NONE',  ( 0.000000000000000000, 0.000000000000000000, -1.000000000000000000 ) ) ;
#846 = CARTESIAN_POINT ( 'NONE',  ( -10.00000000000000000, 0.000000000000000000, 0.000000000000000000 ) ) ;
#847 = VERTEX_POINT ( 'NONE', #920 ) ;
#848 = EDGE_CURVE ( 'NONE', #706, #213, #1340, .T. ) ;
#849 = DIRECTION ( 'NONE',  ( -0.000000000000000000, -0.000000000000000000, -1.000000000000000000 ) ) ;
#850 = DIRECTION ( 'NONE',  ( 1.000000000000000000, 0.000000000000000000, 0.000000000000000000 ) ) ;
#851 = CYLINDRICAL_SURFACE ( 'NONE', #270, 1.299999999999995604 ) ;
#852 = DIRECTION ( 'NONE',  ( -1.000000000000000000, 0.000000000000000000, 0.000000000000000000 ) ) ;
#853 = ORIENTED_EDGE ( 'NONE', *, *, #99, .F. ) ;
#854 = CARTESIAN_POINT ( 'NONE',  ( 86.60000000000000853, -9.000000000000000000, 4.000000000000003553 ) ) ;
#855 = CARTESIAN_POINT ( 'NONE',  ( 10.00000000000000000, 0.000000000000000000, 0.000000000000000000 ) ) ;
#856 = CARTESIAN_POINT ( 'NONE',  ( 0.000000000000000000, 0.000000000000000000, 0.000000000000000000 ) ) ;
#857 = EDGE_CURVE ( 'NONE', #267, #500, #1218, .T. ) ;
#858 = CARTESIAN_POINT ( 'NONE',  ( -11.60000000000000142, 0.000000000000000000, 4.000000000000003553 ) ) ;
#859 = VERTEX_POINT ( 'NONE', #703 ) ;
#860 = VECTOR ( 'NONE', #882, 1000.000000000000000 ) ;
#861 = CIRCLE ( 'NONE', #841, 4.000000000000000000 ) ;
#862 = CARTESIAN_POINT ( 'NONE',  ( 42.00000000000000000, 14.00000000000000000, 0.000000000000000000 ) ) ;
#863 = CARTESIAN_POINT ( 'NONE',  ( 27.00000000000000000, 3.000000000000000000, 4.000000000000003553 ) ) ;
#864 = CARTESIAN_POINT ( 'NONE',  ( 10.00000000000000000, 0.000000000000000000, 4.000000000000003553 ) ) ;
#865 = CIRCLE ( 'NONE', #343, 1.300000000000002487 ) ;
#866 = EDGE_CURVE ( 'NONE', #1292, #1141, #1298, .T. ) ;
#867 = DIRECTION ( 'NONE',  ( 0.000000000000000000, 0.000000000000000000, -1.000000000000000000 ) ) ;
#868 = EDGE_LOOP ( 'NONE', ( #1297, #347 ) ) ;
#869 = CARTESIAN_POINT ( 'NONE',  ( 42.00000000000000000, -7.000000000000000000, 0.000000000000000000 ) ) ;
#870 = VECTOR ( 'NONE', #1041, 1000.000000000000000 ) ;
#871 = CARTESIAN_POINT ( 'NONE',  ( -1.600000000000000089, -10.00000000000000000, 4.000000000000003553 ) ) ;
#872 = CARTESIAN_POINT ( 'NONE',  ( 85.00000000000000000, 9.000000000000000000, 4.000000000000003553 ) ) ;
#873 = ORIENTED_EDGE ( 'NONE', *, *, #919, .T. ) ;
#874 = CYLINDRICAL_SURFACE ( 'NONE', #1341, 1.600000000000004086 ) ;
#875 = DIRECTION ( 'NONE',  ( 0.000000000000000000, 0.000000000000000000, 1.000000000000000000 ) ) ;
#876 = VECTOR ( 'NONE', #867, 1000.000000000000000 ) ;
#877 = ORIENTED_EDGE ( 'NONE', *, *, #1321, .T. ) ;
#878 = EDGE_CURVE ( 'NONE', #788, #263, #592, .T. ) ;
#879 = VERTEX_POINT ( 'NONE', #1107 ) ;
#880 = AXIS2_PLACEMENT_3D ( 'NONE', #223, #1052, #121 ) ;
#881 = ORIENTED_EDGE ( 'NONE', *, *, #461, .F. ) ;
#882 = DIRECTION ( 'NONE',  ( 0.000000000000000000, 0.000000000000000000, -1.000000000000000000 ) ) ;
#883 = AXIS2_PLACEMENT_3D ( 'NONE', #1203, #1016, #178 ) ;
#884 = CARTESIAN_POINT ( 'NONE',  ( 51.00000000000000000, 0.000000000000000000, 4.000000000000003553 ) ) ;
#885 = CIRCLE ( 'NONE', #409, 1.600000000000000755 ) ;
#886 = EDGE_LOOP ( 'NONE', ( #853, #1133, #48, #480 ) ) ;
#887 = ORIENTED_EDGE ( 'NONE', *, *, #709, .T. ) ;
#888 = CARTESIAN_POINT ( 'NONE',  ( 77.40000000000000568, -6.500000000000000000, 4.000000000000000888 ) ) ;
#889 = CYLINDRICAL_SURFACE ( 'NONE', #297, 1.300000000000002487 ) ;
#890 = ORIENTED_EDGE ( 'NONE', *, *, #115, .F. ) ;
#891 = VERTEX_POINT ( 'NONE', #83 ) ;
#892 = DIRECTION ( 'NONE',  ( 0.000000000000000000, 0.000000000000000000, -1.000000000000000000 ) ) ;
#893 = EDGE_CURVE ( 'NONE', #1241, #796, #991, .T. ) ;
#894 = APPROVAL_DATE_TIME ( #997, #142 ) ;
#895 = ADVANCED_FACE ( 'NONE', ( #402 ), #75, .T. ) ;
#896 = DIRECTION ( 'NONE',  ( 1.000000000000000000, 0.000000000000000000, 0.000000000000000000 ) ) ;
#897 = VERTEX_POINT ( 'NONE', #817 ) ;
#898 = ORIENTED_EDGE ( 'NONE', *, *, #542, .F. ) ;
#899 = DIRECTION ( 'NONE',  ( 0.000000000000000000, 0.000000000000000000, -1.000000000000000000 ) ) ;
#900 = EDGE_CURVE ( 'NONE', #1243, #285, #497, .T. ) ;
#901 = AXIS2_PLACEMENT_3D ( 'NONE', #864, #450, #437 ) ;
#902 = CIRCLE ( 'NONE', #189, 1.600000000000000755 ) ;
#903 = CARTESIAN_POINT ( 'NONE',  ( 0.000000000000000000, 7.000000000000000000, 0.000000000000000000 ) ) ;
#904 = EDGE_LOOP ( 'NONE', ( #630, #646 ) ) ;
#905 = FACE_BOUND ( 'NONE', #1214, .T. ) ;
#906 = ORIENTED_EDGE ( 'NONE', *, *, #793, .T. ) ;
#907 = CARTESIAN_POINT ( 'NONE',  ( -1.600000000000000089, 10.00000000000000000, 4.000000000000003553 ) ) ;
#908 = APPROVAL_STATUS ( 'not_yet_approved' ) ;
#909 = CARTESIAN_POINT ( 'NONE',  ( 42.00000000000000000, -14.00000000000000000, 4.000000000000000000 ) ) ;
#910 = VERTEX_POINT ( 'NONE', #303 ) ;
#911 = DIRECTION ( 'NONE',  ( -1.000000000000000000, 0.000000000000000000, -0.000000000000000000 ) ) ;
#912 = ORIENTED_EDGE ( 'NONE', *, *, #1104, .F. ) ;
#913 = DIRECTION ( 'NONE',  ( -1.000000000000000000, 0.000000000000000000, 0.000000000000000000 ) ) ;
#914 = PERSON_AND_ORGANIZATION ( #1070, #1060 ) ;
#915 = CARTESIAN_POINT ( 'NONE',  ( 80.00000000000000000, 0.000000000000000000, 4.000000000000003553 ) ) ;
#916 = VERTEX_POINT ( 'NONE', #509 ) ;
#917 = FACE_BOUND ( 'NONE', #1097, .T. ) ;
#918 = ORIENTED_EDGE ( 'NONE', *, *, #310, .F. ) ;
#919 = EDGE_CURVE ( 'NONE', #213, #789, #378, .T. ) ;
#920 = CARTESIAN_POINT ( 'NONE',  ( 83.40000000000000568, -9.000000000000000000, 4.000000000000003553 ) ) ;
#921 = APPLICATION_PROTOCOL_DEFINITION ( 'international standard', 'config_control_design', 1994, #1271 ) ;
#922 = CIRCLE ( 'NONE', #880, 1.600000000000000089 ) ;
#923 = DIRECTION ( 'NONE',  ( -0.000000000000000000, -1.000000000000000000, -0.000000000000000000 ) ) ;
#924 = ORIENTED_EDGE ( 'NONE', *, *, #980, .T. ) ;
#925 = VECTOR ( 'NONE', #892, 1000.000000000000000 ) ;
#926 = CARTESIAN_POINT ( 'NONE',  ( 25.39999999999999858, 3.000000000000000000, 0.000000000000000000 ) ) ;
#927 = ORIENTED_EDGE ( 'NONE', *, *, #173, .T. ) ;
#928 = CIRCLE ( 'NONE', #274, 1.600000000000000755 ) ;
#929 = CARTESIAN_POINT ( 'NONE',  ( 90.00000000000000000, -14.00000000000000000, 4.000000000000000000 ) ) ;
#930 = DIRECTION ( 'NONE',  ( -1.000000000000000000, 0.000000000000000000, 0.000000000000000000 ) ) ;
#931 = EDGE_LOOP ( 'NONE', ( #183, #368, #821, #806 ) ) ;
#932 = DIRECTION ( 'NONE',  ( -0.000000000000000000, -1.000000000000000000, -0.000000000000000000 ) ) ;
#933 = EDGE_LOOP ( 'NONE', ( #93, #387 ) ) ;
#934 = VECTOR ( 'NONE', #388, 1000.000000000000000 ) ;
#935 = FACE_OUTER_BOUND ( 'NONE', #1130, .T. ) ;
#936 = EDGE_CURVE ( 'NONE', #243, #704, #861, .T. ) ;
#937 = ADVANCED_BREP_SHAPE_REPRESENTATION ( 'ARM-101_Upper_link_60mm_MG996_SG90', ( #773, #60 ), #541 ) ;
#938 = DIRECTION ( 'NONE',  ( 1.000000000000000000, 0.000000000000000000, 0.000000000000000000 ) ) ;
#939 = ORIENTED_EDGE ( 'NONE', *, *, #1286, .F. ) ;
#940 = EDGE_CURVE ( 'NONE', #213, #306, #825, .T. ) ;
#941 = DIRECTION ( 'NONE',  ( -0.000000000000000000, -0.000000000000000000, 1.000000000000000000 ) ) ;
#942 = VERTEX_POINT ( 'NONE', #999 ) ;
#943 = FACE_BOUND ( 'NONE', #428, .T. ) ;
#944 = PLANE ( 'NONE',  #1212 ) ;
#945 = DIRECTION ( 'NONE',  ( 0.000000000000000000, 0.000000000000000000, -1.000000000000000000 ) ) ;
#946 = VECTOR ( 'NONE', #1073, 1000.000000000000000 ) ;
#947 = PRODUCT_RELATED_PRODUCT_CATEGORY ( 'detail', '', ( #1153 ) ) ;
#948 = DIRECTION ( 'NONE',  ( 0.000000000000000000, 1.000000000000000000, 0.000000000000000000 ) ) ;
#949 = ORIENTED_EDGE ( 'NONE', *, *, #1293, .T. ) ;
#950 = AXIS2_PLACEMENT_3D ( 'NONE', #743, #1155, #104 ) ;
#951 = DIRECTION ( 'NONE',  ( 0.000000000000000000, 0.000000000000000000, 1.000000000000000000 ) ) ;
#952 = DIRECTION ( 'NONE',  ( 0.000000000000000000, 0.000000000000000000, -1.000000000000000000 ) ) ;
#953 = DIRECTION ( 'NONE',  ( -1.000000000000000000, 0.000000000000000000, 0.000000000000000000 ) ) ;
#954 = LINE ( 'NONE', #534, #814 ) ;
#955 = EDGE_LOOP ( 'NONE', ( #159, #676, #1090, #1256 ) ) ;
#956 = ORIENTED_EDGE ( 'NONE', *, *, #224, .F. ) ;
#957 = PLANE ( 'NONE',  #598 ) ;
#958 = DIRECTION ( 'NONE',  ( 1.000000000000000000, 0.000000000000000000, 0.000000000000000000 ) ) ;
#959 = DIRECTION ( 'NONE',  ( 0.000000000000000000, 0.000000000000000000, 1.000000000000000000 ) ) ;
#960 = CARTESIAN_POINT ( 'NONE',  ( 28.60000000000000142, -3.000000000000000000, 0.000000000000000000 ) ) ;
#961 = ORIENTED_EDGE ( 'NONE', *, *, #296, .F. ) ;
#962 = EDGE_CURVE ( 'NONE', #500, #1348, #725, .T. ) ;
#963 = EDGE_CURVE ( 'NONE', #897, #285, #1213, .T. ) ;
#964 = LINE ( 'NONE', #674, #186 ) ;
#965 = DIRECTION ( 'NONE',  ( 0.000000000000000000, 0.000000000000000000, -1.000000000000000000 ) ) ;
#966 = DIRECTION ( 'NONE',  ( -1.000000000000000000, 0.000000000000000000, 0.000000000000000000 ) ) ;
#967 = DIRECTION ( 'NONE',  ( -1.000000000000000000, 0.000000000000000000, 0.000000000000000000 ) ) ;
#968 = ORIENTED_EDGE ( 'NONE', *, *, #798, .T. ) ;
#969 = AXIS2_PLACEMENT_3D ( 'NONE', #1283, #431, #953 ) ;
#970 = AXIS2_PLACEMENT_3D ( 'NONE', #289, #1024, #90 ) ;
#971 = CARTESIAN_POINT ( 'NONE',  ( 0.000000000000000000, 0.000000000000000000, 4.000000000000003553 ) ) ;
#972 = CLOSED_SHELL ( 'NONE', ( #34, #1145, #779, #1344, #1199, #568, #40, #313, #582, #1306, #1161, #477, #483, #177, #154, #365, #416, #525, #1189, #379, #514, #1264, #507, #895, #748, #440, #55, #562, #842, #823, #607, #660, #782, #1291, #236, #566, #724 ) ) ;
#973 = DIRECTION ( 'NONE',  ( 0.000000000000000000, 1.000000000000000000, 0.000000000000000000 ) ) ;
#974 = FACE_BOUND ( 'NONE', #163, .T. ) ;
#975 = VECTOR ( 'NONE', #167, 1000.000000000000000 ) ;
#976 = EDGE_LOOP ( 'NONE', ( #877, #1238, #584, #575 ) ) ;
#977 = DIRECTION ( 'NONE',  ( 0.000000000000000000, 0.000000000000000000, -1.000000000000000000 ) ) ;
#978 = AXIS2_PLACEMENT_3D ( 'NONE', #1033, #832, #184 ) ;
#979 = DIRECTION ( 'NONE',  ( 0.000000000000000000, -0.000000000000000000, -1.000000000000000000 ) ) ;
#980 = EDGE_CURVE ( 'NONE', #519, #789, #68, .T. ) ;
#981 = EDGE_LOOP ( 'NONE', ( #696, #594, #176, #369 ) ) ;
#982 = EDGE_LOOP ( 'NONE', ( #362, #614, #1152, #264 ) ) ;
#983 = ORIENTED_EDGE ( 'NONE', *, *, #577, .T. ) ;
#984 = CARTESIAN_POINT ( 'NONE',  ( -8.400000000000000355, 1.959434878635765970E-16, 0.000000000000000000 ) ) ;
#985 = LINE ( 'NONE', #1281, #799 ) ;
#986 = AXIS2_PLACEMENT_3D ( 'NONE', #248, #653, #967 ) ;
#987 = ORIENTED_EDGE ( 'NONE', *, *, #866, .T. ) ;
#988 = EDGE_CURVE ( 'NONE', #1077, #105, #340, .T. ) ;
#989 = ORIENTED_EDGE ( 'NONE', *, *, #765, .T. ) ;
#990 = FACE_OUTER_BOUND ( 'NONE', #994, .T. ) ;
#991 = CIRCLE ( 'NONE', #38, 1.600000000000000755 ) ;
#992 = FACE_OUTER_BOUND ( 'NONE', #23, .T. ) ;
#993 = ORIENTED_EDGE ( 'NONE', *, *, #599, .T. ) ;
#994 = EDGE_LOOP ( 'NONE', ( #1309, #906, #1219, #839 ) ) ;
#995 = ORIENTED_EDGE ( 'NONE', *, *, #457, .F. ) ;
#996 = DIRECTION ( 'NONE',  ( 0.000000000000000000, 0.000000000000000000, -1.000000000000000000 ) ) ;
#997 = DATE_AND_TIME ( #1335, #16 ) ;
#998 = VECTOR ( 'NONE', #728, 1000.000000000000000 ) ;
#999 = CARTESIAN_POINT ( 'NONE',  ( 11.60000000000000142, 1.959434878635765970E-16, 4.000000000000003553 ) ) ;
#1000 = EDGE_LOOP ( 'NONE', ( #512, #1042, #726, #85 ) ) ;
#1001 = ORIENTED_EDGE ( 'NONE', *, *, #699, .F. ) ;
#1002 = EDGE_CURVE ( 'NONE', #77, #259, #271, .T. ) ;
#1003 = CARTESIAN_POINT ( 'NONE',  ( -4.000000000000000000, 0.000000000000000000, 4.000000000000003553 ) ) ;
#1004 = PERSON_AND_ORGANIZATION_ROLE ( 'classification_officer' ) ;
#1005 = CARTESIAN_POINT ( 'NONE',  ( 27.00000000000000000, 3.000000000000000000, 4.000000000000003553 ) ) ;
#1006 = ORIENTED_EDGE ( 'NONE', *, *, #803, .T. ) ;
#1007 = EDGE_LOOP ( 'NONE', ( #155, #50, #1015, #128 ) ) ;
#1008 = FACE_OUTER_BOUND ( 'NONE', #228, .T. ) ;
#1009 = PERSON_AND_ORGANIZATION ( #1070, #1060 ) ;
#1010 = CC_DESIGN_SECURITY_CLASSIFICATION ( #268, ( #1101 ) ) ;
#1011 = DIRECTION ( 'NONE',  ( 1.000000000000000000, 0.000000000000000000, 0.000000000000000000 ) ) ;
#1012 = ORIENTED_EDGE ( 'NONE', *, *, #81, .F. ) ;
#1013 = AXIS2_PLACEMENT_3D ( 'NONE', #359, #572, #1177 ) ;
#1014 = LINE ( 'NONE', #1249, #998 ) ;
#1015 = ORIENTED_EDGE ( 'NONE', *, *, #807, .F. ) ;
#1016 = DIRECTION ( 'NONE',  ( 0.000000000000000000, 0.000000000000000000, 1.000000000000000000 ) ) ;
#1017 = PERSON_AND_ORGANIZATION ( #1070, #1060 ) ;
#1018 = EDGE_CURVE ( 'NONE', #847, #619, #383, .T. ) ;
#1019 = LINE ( 'NONE', #276, #79 ) ;
#1020 = VERTEX_POINT ( 'NONE', #795 ) ;
#1021 = CARTESIAN_POINT ( 'NONE',  ( 10.00000000000000000, 0.000000000000000000, 0.000000000000000000 ) ) ;
#1022 = ORIENTED_EDGE ( 'NONE', *, *, #798, .F. ) ;
#1023 = DIRECTION ( 'NONE',  ( -1.000000000000000000, 0.000000000000000000, 0.000000000000000000 ) ) ;
#1024 = DIRECTION ( 'NONE',  ( -0.000000000000000000, -0.000000000000000000, 1.000000000000000000 ) ) ;
#1025 = ORIENTED_EDGE ( 'NONE', *, *, #597, .F. ) ;
#1026 = CARTESIAN_POINT ( 'NONE',  ( 42.00000000000000000, -14.00000000000000000, 0.000000000000000000 ) ) ;
#1027 = ORIENTED_EDGE ( 'NONE', *, *, #1181, .F. ) ;
#1028 = DIRECTION ( 'NONE',  ( 1.000000000000000000, -0.000000000000000000, 0.000000000000000000 ) ) ;
#1029 = AXIS2_PLACEMENT_3D ( 'NONE', #1311, #493, #913 ) ;
#1030 = FACE_OUTER_BOUND ( 'NONE', #1031, .T. ) ;
#1031 = EDGE_LOOP ( 'NONE', ( #1196, #569, #1057, #1215 ) ) ;
#1032 = CIRCLE ( 'NONE', #406, 1.299999999999995604 ) ;
#1033 = CARTESIAN_POINT ( 'NONE',  ( 85.00000000000000000, -9.000000000000000000, 4.000000000000003553 ) ) ;
#1034 = ORIENTED_EDGE ( 'NONE', *, *, #741, .T. ) ;
#1035 = EDGE_CURVE ( 'NONE', #1094, #859, #1019, .T. ) ;
#1036 = AXIS2_PLACEMENT_3D ( 'NONE', #256, #670, #371 ) ;
#1037 = CARTESIAN_POINT ( 'NONE',  ( 0.000000000000000000, 0.000000000000000000, 0.000000000000000000 ) ) ;
#1038 = EDGE_CURVE ( 'NONE', #292, #879, #1032, .T. ) ;
#1039 = DIRECTION ( 'NONE',  ( -1.000000000000000000, 0.000000000000000000, 0.000000000000000000 ) ) ;
#1040 = VERTEX_POINT ( 'NONE', #298 ) ;
#1041 = DIRECTION ( 'NONE',  ( 0.000000000000000000, 0.000000000000000000, -1.000000000000000000 ) ) ;
#1042 = ORIENTED_EDGE ( 'NONE', *, *, #423, .T. ) ;
#1043 = VECTOR ( 'NONE', #1220, 1000.000000000000000 ) ;
#1044 = EDGE_CURVE ( 'NONE', #1305, #258, #492, .T. ) ;
#1045 = FACE_BOUND ( 'NONE', #354, .T. ) ;
#1046 = EDGE_CURVE ( 'NONE', #258, #1305, #561, .T. ) ;
#1047 = CARTESIAN_POINT ( 'NONE',  ( -11.60000000000000142, 0.000000000000000000, 0.000000000000000000 ) ) ;
#1048 = CARTESIAN_POINT ( 'NONE',  ( 0.000000000000000000, -7.000000000000000000, 4.000000000000000000 ) ) ;
#1049 = DIRECTION ( 'NONE',  ( -0.000000000000000000, -1.000000000000000000, -0.000000000000000000 ) ) ;
#1050 = VERTEX_POINT ( 'NONE', #338 ) ;
#1051 = AXIS2_PLACEMENT_3D ( 'NONE', #846, #1255, #852 ) ;
#1052 = DIRECTION ( 'NONE',  ( 0.000000000000000000, 0.000000000000000000, 1.000000000000000000 ) ) ;
#1053 = CARTESIAN_POINT ( 'NONE',  ( 0.000000000000000000, -7.000000000000000000, 4.000000000000000000 ) ) ;
#1054 = CARTESIAN_POINT ( 'NONE',  ( 0.000000000000000000, 10.00000000000000000, 0.000000000000000000 ) ) ;
#1055 = AXIS2_PLACEMENT_3D ( 'NONE', #152, #1176, #551 ) ;
#1056 = DIRECTION ( 'NONE',  ( -1.000000000000000000, 0.000000000000000000, 0.000000000000000000 ) ) ;
#1057 = ORIENTED_EDGE ( 'NONE', *, *, #72, .F. ) ;
#1058 = VECTOR ( 'NONE', #606, 1000.000000000000000 ) ;
#1059 = LOCAL_TIME ( 16, 17, 35.00000000000000000, #564 ) ;
#1060 = ORGANIZATION ( 'UNSPECIFIED', 'UNSPECIFIED', '' ) ;
#1061 = CARTESIAN_POINT ( 'NONE',  ( 42.00000000000000000, -14.00000000000000000, 4.000000000000000000 ) ) ;
#1062 = DIRECTION ( 'NONE',  ( 0.000000000000000000, 0.000000000000000000, 1.000000000000000000 ) ) ;
#1063 = LINE ( 'NONE', #11, #1257 ) ;
#1064 = EDGE_CURVE ( 'NONE', #916, #334, #1167, .T. ) ;
#1065 = LINE ( 'NONE', #133, #1114 ) ;
#1066 = ORIENTED_EDGE ( 'NONE', *, *, #481, .T. ) ;
#1067 = DIRECTION ( 'NONE',  ( -0.000000000000000000, -0.000000000000000000, 1.000000000000000000 ) ) ;
#1068 = CARTESIAN_POINT ( 'NONE',  ( 42.00000000000000000, -14.00000000000000000, 4.000000000000000000 ) ) ;
#1069 = DIRECTION ( 'NONE',  ( -1.000000000000000000, 0.000000000000000000, 0.000000000000000000 ) ) ;
#1070 = PERSON ( 'UNSPECIFIED', 'UNSPECIFIED', 'UNSPECIFIED', ('UNSPECIFIED'), ('UNSPECIFIED'), ('UNSPECIFIED') ) ;
#1071 = CARTESIAN_POINT ( 'NONE',  ( 27.00000000000000000, 3.000000000000000000, 0.000000000000000000 ) ) ;
#1072 = ORIENTED_EDGE ( 'NONE', *, *, #1248, .F. ) ;
#1073 = DIRECTION ( 'NONE',  ( -1.000000000000000000, -0.000000000000000000, -0.000000000000000000 ) ) ;
#1074 = DIRECTION ( 'NONE',  ( -1.000000000000000000, 0.000000000000000000, 0.000000000000000000 ) ) ;
#1075 = DIRECTION ( 'NONE',  ( 1.000000000000000000, 0.000000000000000000, 0.000000000000000000 ) ) ;
#1076 = DIRECTION ( 'NONE',  ( -1.000000000000000000, 0.000000000000000000, 0.000000000000000000 ) ) ;
#1077 = VERTEX_POINT ( 'NONE', #218 ) ;
#1078 = EDGE_CURVE ( 'NONE', #500, #156, #1246, .T. ) ;
#1079 = AXIS2_PLACEMENT_3D ( 'NONE', #95, #190, #896 ) ;
#1080 = DIRECTION ( 'NONE',  ( -1.000000000000000000, 0.000000000000000000, 0.000000000000000000 ) ) ;
#1081 = DIRECTION ( 'NONE',  ( 1.000000000000000000, 0.000000000000000000, 0.000000000000000000 ) ) ;
#1082 = DIRECTION ( 'NONE',  ( 0.000000000000000000, 0.000000000000000000, 1.000000000000000000 ) ) ;
#1083 = ORIENTED_EDGE ( 'NONE', *, *, #556, .F. ) ;
#1084 = CARTESIAN_POINT ( 'NONE',  ( 0.000000000000000000, -10.00000000000000000, 4.000000000000003553 ) ) ;
#1085 = VECTOR ( 'NONE', #132, 1000.000000000000000 ) ;
#1086 = CARTESIAN_POINT ( 'NONE',  ( 51.00000000000000000, 0.000000000000000000, 4.000000000000003553 ) ) ;
#1087 = EDGE_CURVE ( 'NONE', #279, #14, #625, .T. ) ;
#1088 = ORIENTED_EDGE ( 'NONE', *, *, #681, .T. ) ;
#1089 = SHAPE_DEFINITION_REPRESENTATION ( #1299, #937 ) ;
#1090 = ORIENTED_EDGE ( 'NONE', *, *, #81, .T. ) ;
#1091 = DIRECTION ( 'NONE',  ( 0.000000000000000000, 0.000000000000000000, -1.000000000000000000 ) ) ;
#1092 = CARTESIAN_POINT ( 'NONE',  ( -16.00000000000000000, 0.000000000000000000, 4.000000000000000000 ) ) ;
#1093 = ORIENTED_EDGE ( 'NONE', *, *, #709, .F. ) ;
#1094 = VERTEX_POINT ( 'NONE', #547 ) ;
#1095 = EDGE_CURVE ( 'NONE', #263, #267, #330, .T. ) ;
#1096 = AXIS2_PLACEMENT_3D ( 'NONE', #708, #790, #66 ) ;
#1097 = EDGE_LOOP ( 'NONE', ( #983, #691 ) ) ;
#1098 = DIRECTION ( 'NONE',  ( -1.000000000000000000, 0.000000000000000000, 0.000000000000000000 ) ) ;
#1099 = AXIS2_PLACEMENT_3D ( 'NONE', #855, #636, #930 ) ;
#1100 = LINE ( 'NONE', #816, #975 ) ;
#1101 = PRODUCT_DEFINITION_FORMATION_WITH_SPECIFIED_SOURCE ( 'ANY', '', #1153, .NOT_KNOWN. ) ;
#1102 = EDGE_LOOP ( 'NONE', ( #134, #573, #389, #374 ) ) ;
#1103 = ORIENTED_EDGE ( 'NONE', *, *, #900, .F. ) ;
#1104 = EDGE_CURVE ( 'NONE', #1207, #1020, #515, .T. ) ;
#1105 = FACE_OUTER_BOUND ( 'NONE', #382, .T. ) ;
#1106 = CIRCLE ( 'NONE', #241, 1.600000000000000089 ) ;
#1107 = CARTESIAN_POINT ( 'NONE',  ( 78.70000000000000284, 0.000000000000000000, 4.000000000000003553 ) ) ;
#1108 = ORIENTED_EDGE ( 'NONE', *, *, #1266, .F. ) ;
#1109 = ORIENTED_EDGE ( 'NONE', *, *, #84, .T. ) ;
#1110 = CARTESIAN_POINT ( 'NONE',  ( -10.00000000000000000, 0.000000000000000000, 4.000000000000003553 ) ) ;
#1111 = PERSON_AND_ORGANIZATION ( #1070, #1060 ) ;
#1112 = DIRECTION ( 'NONE',  ( 1.000000000000000000, 0.000000000000000000, 0.000000000000000000 ) ) ;
#1113 = VERTEX_POINT ( 'NONE', #539 ) ;
#1114 = VECTOR ( 'NONE', #549, 1000.000000000000000 ) ;
#1115 = CARTESIAN_POINT ( 'NONE',  ( 0.000000000000000000, 10.00000000000000000, 0.000000000000000000 ) ) ;
#1116 = VERTEX_POINT ( 'NONE', #1047 ) ;
#1117 = LINE ( 'NONE', #501, #294 ) ;
#1118 = EDGE_CURVE ( 'NONE', #318, #897, #749, .T. ) ;
#1119 = CIRCLE ( 'NONE', #647, 1.299999999999995604 ) ;
#1120 = PERSON_AND_ORGANIZATION_ROLE ( 'design_owner' ) ;
#1121 = DIRECTION ( 'NONE',  ( -1.000000000000000000, 0.000000000000000000, 0.000000000000000000 ) ) ;
#1122 = ORIENTED_EDGE ( 'NONE', *, *, #1134, .T. ) ;
#1123 = CIRCLE ( 'NONE', #1036, 1.600000000000000755 ) ;
#1124 = FACE_BOUND ( 'NONE', #1200, .T. ) ;
#1125 = ORIENTED_EDGE ( 'NONE', *, *, #1222, .T. ) ;
#1126 =( NAMED_UNIT ( * ) PLANE_ANGLE_UNIT ( ) SI_UNIT ( $, .RADIAN. ) );
#1127 = CARTESIAN_POINT ( 'NONE',  ( 53.60000000000000142, -6.500000000000000000, 4.000000000000000888 ) ) ;
#1128 = ORIENTED_EDGE ( 'NONE', *, *, #336, .F. ) ;
#1129 = DIRECTION ( 'NONE',  ( 0.000000000000000000, 0.000000000000000000, 1.000000000000000000 ) ) ;
#1130 = EDGE_LOOP ( 'NONE', ( #956, #722, #690, #1158 ) ) ;
#1131 = FACE_OUTER_BOUND ( 'NONE', #712, .T. ) ;
#1132 = DIRECTION ( 'NONE',  ( -1.000000000000000000, 0.000000000000000000, 0.000000000000000000 ) ) ;
#1133 = ORIENTED_EDGE ( 'NONE', *, *, #1095, .F. ) ;
#1134 = EDGE_CURVE ( 'NONE', #1141, #1292, #689, .T. ) ;
#1135 = CARTESIAN_POINT ( 'NONE',  ( 0.000000000000000000, 0.000000000000000000, 0.000000000000000000 ) ) ;
#1136 = ORIENTED_EDGE ( 'NONE', *, *, #419, .T. ) ;
#1137 = EDGE_CURVE ( 'NONE', #361, #342, #902, .T. ) ;
#1138 = LINE ( 'NONE', #1258, #160 ) ;
#1139 = AXIS2_PLACEMENT_3D ( 'NONE', #736, #849, #201 ) ;
#1140 = DIRECTION ( 'NONE',  ( -0.000000000000000000, -0.000000000000000000, 1.000000000000000000 ) ) ;
#1141 = VERTEX_POINT ( 'NONE', #308 ) ;
#1142 = AXIS2_PLACEMENT_3D ( 'NONE', #209, #830, #1039 ) ;
#1143 = FACE_BOUND ( 'NONE', #587, .T. ) ;
#1144 = EDGE_LOOP ( 'NONE', ( #802, #1034, #222, #464 ) ) ;
#1145 = ADVANCED_FACE ( 'NONE', ( #232 ), #844, .F. ) ;
#1146 = VECTOR ( 'NONE', #367, 1000.000000000000000 ) ;
#1147 = APPROVAL ( #1312, 'UNSPECIFIED' ) ;
#1148 = DIRECTION ( 'NONE',  ( 0.000000000000000000, -1.000000000000000000, 0.000000000000000000 ) ) ;
#1149 = CARTESIAN_POINT ( 'NONE',  ( 0.000000000000000000, -7.000000000000000000, 0.000000000000000000 ) ) ;
#1150 = DIRECTION ( 'NONE',  ( 0.000000000000000000, 0.000000000000000000, 1.000000000000000000 ) ) ;
#1151 = DIRECTION ( 'NONE',  ( -1.000000000000000000, 0.000000000000000000, 0.000000000000000000 ) ) ;
#1152 = ORIENTED_EDGE ( 'NONE', *, *, #1333, .T. ) ;
#1153 = PRODUCT ( 'ARM-101_Upper_link_60mm_MG996_SG90', 'ARM-101_Upper_link_60mm_MG996_SG90', '', ( #710 ) ) ;
#1154 = DIRECTION ( 'NONE',  ( 0.000000000000000000, 0.000000000000000000, -1.000000000000000000 ) ) ;
#1155 = DIRECTION ( 'NONE',  ( 0.000000000000000000, 0.000000000000000000, -1.000000000000000000 ) ) ;
#1156 = CARTESIAN_POINT ( 'NONE',  ( 0.000000000000000000, -10.00000000000000000, 0.000000000000000000 ) ) ;
#1157 = CARTESIAN_POINT ( 'NONE',  ( -11.60000000000000142, 0.000000000000000000, 4.000000000000003553 ) ) ;
#1158 = ORIENTED_EDGE ( 'NONE', *, *, #701, .F. ) ;
#1159 = AXIS2_PLACEMENT_3D ( 'NONE', #234, #1172, #1262 ) ;
#1160 = DIRECTION ( 'NONE',  ( -1.000000000000000000, 0.000000000000000000, 0.000000000000000000 ) ) ;
#1161 = ADVANCED_FACE ( 'NONE', ( #2 ), #1267, .F. ) ;
#1162 = CARTESIAN_POINT ( 'NONE',  ( 10.00000000000000000, 0.000000000000000000, 4.000000000000003553 ) ) ;
#1163 = CARTESIAN_POINT ( 'NONE',  ( 27.00000000000000000, -3.000000000000000000, 0.000000000000000000 ) ) ;
#1164 = AXIS2_PLACEMENT_3D ( 'NONE', #1301, #761, #335 ) ;
#1165 = CARTESIAN_POINT ( 'NONE',  ( 81.29999999999999716, 1.592040838891553672E-16, 0.000000000000000000 ) ) ;
#1166 = ORIENTED_EDGE ( 'NONE', *, *, #465, .F. ) ;
#1167 = CIRCLE ( 'NONE', #1099, 1.600000000000000755 ) ;
#1168 = AXIS2_PLACEMENT_3D ( 'NONE', #239, #875, #456 ) ;
#1169 = FACE_OUTER_BOUND ( 'NONE', #639, .T. ) ;
#1170 = CARTESIAN_POINT ( 'NONE',  ( 85.00000000000000000, 9.000000000000000000, 4.000000000000003553 ) ) ;
#1171 = CARTESIAN_POINT ( 'NONE',  ( -10.00000000000000000, 0.000000000000000000, 4.000000000000003553 ) ) ;
#1172 = DIRECTION ( 'NONE',  ( 0.000000000000000000, 1.000000000000000000, 0.000000000000000000 ) ) ;
#1173 = ORIENTED_EDGE ( 'NONE', *, *, #372, .T. ) ;
#1174 = ORIENTED_EDGE ( 'NONE', *, *, #457, .T. ) ;
#1175 = VECTOR ( 'NONE', #353, 1000.000000000000000 ) ;
#1176 = DIRECTION ( 'NONE',  ( 0.000000000000000000, 0.000000000000000000, -1.000000000000000000 ) ) ;
#1177 = DIRECTION ( 'NONE',  ( -1.000000000000000000, 0.000000000000000000, 0.000000000000000000 ) ) ;
#1178 = CARTESIAN_POINT ( 'NONE',  ( -1.600000000000000089, -10.00000000000000000, 0.000000000000000000 ) ) ;
#1179 = DIRECTION ( 'NONE',  ( 0.000000000000000000, 0.000000000000000000, -1.000000000000000000 ) ) ;
#1180 = ORIENTED_EDGE ( 'NONE', *, *, #1351, .T. ) ;
#1181 = EDGE_CURVE ( 'NONE', #788, #659, #436, .T. ) ;
#1182 = EDGE_CURVE ( 'NONE', #942, #334, #417, .T. ) ;
#1183 = CARTESIAN_POINT ( 'NONE',  ( 51.00000000000000000, 0.000000000000000000, 4.000000000000003553 ) ) ;
#1184 = CIRCLE ( 'NONE', #1208, 16.00000000000000000 ) ;
#1185 = CARTESIAN_POINT ( 'NONE',  ( 1.600000000000000089, 10.00000000000000000, 0.000000000000000000 ) ) ;
#1186 = DIRECTION ( 'NONE',  ( 1.000000000000000000, 0.000000000000000000, 0.000000000000000000 ) ) ;
#1187 = EDGE_LOOP ( 'NONE', ( #490, #1339, #1180, #249 ) ) ;
#1188 = VECTOR ( 'NONE', #435, 1000.000000000000000 ) ;
#1189 = ADVANCED_FACE ( 'NONE', ( #26 ), #944, .F. ) ;
#1190 = CC_DESIGN_DATE_AND_TIME_ASSIGNMENT ( #1342, #376, ( #24 ) ) ;
#1191 = DIRECTION ( 'NONE',  ( -0.000000000000000000, -0.000000000000000000, -1.000000000000000000 ) ) ;
#1192 = AXIS2_PLACEMENT_3D ( 'NONE', #731, #526, #19 ) ;
#1193 = LINE ( 'NONE', #769, #1236 ) ;
#1194 = AXIS2_PLACEMENT_3D ( 'NONE', #1156, #1253, #966 ) ;
#1195 = ORIENTED_EDGE ( 'NONE', *, *, #1286, .T. ) ;
#1196 = ORIENTED_EDGE ( 'NONE', *, *, #542, .T. ) ;
#1197 = FACE_OUTER_BOUND ( 'NONE', #685, .T. ) ;
#1198 = CARTESIAN_POINT ( 'NONE',  ( 1.600000000000000089, 10.00000000000000000, 4.000000000000003553 ) ) ;
#1199 = ADVANCED_FACE ( 'NONE', ( #1030 ), #325, .F. ) ;
#1200 = EDGE_LOOP ( 'NONE', ( #678, #729, #290, #498 ) ) ;
#1201 = CALENDAR_DATE ( 2026, 7, 9 ) ;
#1202 = VERTEX_POINT ( 'NONE', #518 ) ;
#1203 = CARTESIAN_POINT ( 'NONE',  ( 27.00000000000000000, -3.000000000000000000, 4.000000000000003553 ) ) ;
#1204 = DATE_TIME_ROLE ( 'classification_date' ) ;
#1205 = EDGE_CURVE ( 'NONE', #942, #169, #885, .T. ) ;
#1206 = ORIENTED_EDGE ( 'NONE', *, *, #807, .T. ) ;
#1207 = VERTEX_POINT ( 'NONE', #246 ) ;
#1208 = AXIS2_PLACEMENT_3D ( 'NONE', #1037, #951, #324 ) ;
#1209 = CARTESIAN_POINT ( 'NONE',  ( 28.60000000000000142, 3.000000000000000000, 4.000000000000003553 ) ) ;
#1210 = VECTOR ( 'NONE', #629, 1000.000000000000000 ) ;
#1211 = APPROVAL_ROLE ( '' ) ;
#1213 = LINE ( 'NONE', #1329, #1058 ) ;
#1212 = AXIS2_PLACEMENT_3D ( 'NONE', #737, #850, #430 ) ;
#1214 = EDGE_LOOP ( 'NONE', ( #949, #527 ) ) ;
#1215 = ORIENTED_EDGE ( 'NONE', *, *, #681, .F. ) ;
#1216 = DIRECTION ( 'NONE',  ( 0.000000000000000000, 1.000000000000000000, 0.000000000000000000 ) ) ;
#1217 = VECTOR ( 'NONE', #705, 1000.000000000000000 ) ;
#1218 = LINE ( 'NONE', #282, #819 ) ;
#1219 = ORIENTED_EDGE ( 'NONE', *, *, #278, .F. ) ;
#1220 = DIRECTION ( 'NONE',  ( 0.000000000000000000, 0.000000000000000000, -1.000000000000000000 ) ) ;
#1221 = ORIENTED_EDGE ( 'NONE', *, *, #1282, .T. ) ;
#1222 = EDGE_CURVE ( 'NONE', #306, #519, #1193, .T. ) ;
#1223 = CARTESIAN_POINT ( 'NONE',  ( 28.60000000000000142, 3.000000000000000000, 4.000000000000003553 ) ) ;
#1224 = DIRECTION ( 'NONE',  ( -0.000000000000000000, -0.000000000000000000, -1.000000000000000000 ) ) ;
#1225 = VERTEX_POINT ( 'NONE', #675 ) ;
#1226 = AXIS2_PLACEMENT_3D ( 'NONE', #528, #665, #349 ) ;
#1227 = LINE ( 'NONE', #805, #1043 ) ;
#1228 = VERTEX_POINT ( 'NONE', #1185 ) ;
#1229 = FACE_OUTER_BOUND ( 'NONE', #1325, .T. ) ;
#1230 = VECTOR ( 'NONE', #1191, 1000.000000000000000 ) ;
#1231 = EDGE_CURVE ( 'NONE', #519, #593, #605, .T. ) ;
#1232 = COORDINATED_UNIVERSAL_TIME_OFFSET ( 6, 0, .BEHIND. ) ;
#1233 = VECTOR ( 'NONE', #613, 1000.000000000000000 ) ;
#1234 = DIRECTION ( 'NONE',  ( 0.000000000000000000, 0.000000000000000000, 1.000000000000000000 ) ) ;
#1235 = ORIENTED_EDGE ( 'NONE', *, *, #988, .F. ) ;
#1236 = VECTOR ( 'NONE', #144, 1000.000000000000000 ) ;
#1237 = CYLINDRICAL_SURFACE ( 'NONE', #1353, 1.600000000000000755 ) ;
#1238 = ORIENTED_EDGE ( 'NONE', *, *, #1182, .T. ) ;
#1239 = CARTESIAN_POINT ( 'NONE',  ( -8.400000000000000355, 1.959434878635765970E-16, 4.000000000000003553 ) ) ;
#1240 = DIRECTION ( 'NONE',  ( 0.000000000000000000, 0.000000000000000000, 1.000000000000000000 ) ) ;
#1241 = VERTEX_POINT ( 'NONE', #470 ) ;
#1242 = DIRECTION ( 'NONE',  ( -1.000000000000000000, 0.000000000000000000, 0.000000000000000000 ) ) ;
#1243 = VERTEX_POINT ( 'NONE', #656 ) ;
#1244 = DIRECTION ( 'NONE',  ( 0.000000000000000000, 0.000000000000000000, -1.000000000000000000 ) ) ;
#1245 = EDGE_CURVE ( 'NONE', #380, #910, #865, .T. ) ;
#1246 = LINE ( 'NONE', #835, #1210 ) ;
#1247 = ORIENTED_EDGE ( 'NONE', *, *, #1222, .F. ) ;
#1248 = EDGE_CURVE ( 'NONE', #1225, #1050, #985, .T. ) ;
#1249 = CARTESIAN_POINT ( 'NONE',  ( 52.29999999999999716, 1.592040838891562300E-16, 4.000000000000003553 ) ) ;
#1250 = EDGE_LOOP ( 'NONE', ( #633, #1125, #535, #1173, #344, #413, #277, #421, #1206 ) ) ;
#1251 = PLANE ( 'NONE',  #623 ) ;
#1252 = DIRECTION ( 'NONE',  ( 1.000000000000000000, 0.000000000000000000, 0.000000000000000000 ) ) ;
#1253 = DIRECTION ( 'NONE',  ( -0.000000000000000000, -0.000000000000000000, 1.000000000000000000 ) ) ;
#1254 = CC_DESIGN_APPROVAL ( #626, ( #268 ) ) ;
#1255 = DIRECTION ( 'NONE',  ( -0.000000000000000000, -0.000000000000000000, 1.000000000000000000 ) ) ;
#1256 = ORIENTED_EDGE ( 'NONE', *, *, #355, .F. ) ;
#1257 = VECTOR ( 'NONE', #945, 1000.000000000000000 ) ;
#1258 = CARTESIAN_POINT ( 'NONE',  ( 78.70000000000000284, 0.000000000000000000, 4.000000000000003553 ) ) ;
#1259 = CARTESIAN_POINT ( 'NONE',  ( 53.60000000000000142, -6.500000000000000000, 4.000000000000000888 ) ) ;
#1260 = DIRECTION ( 'NONE',  ( 0.000000000000000000, 0.000000000000000000, 1.000000000000000000 ) ) ;
#1261 = DESIGN_CONTEXT ( 'detailed design', #1271, 'design' ) ;
#1262 = DIRECTION ( 'NONE',  ( 0.000000000000000000, -0.000000000000000000, 1.000000000000000000 ) ) ;
#1263 = ORIENTED_EDGE ( 'NONE', *, *, #641, .F. ) ;
#1264 = ADVANCED_FACE ( 'NONE', ( #158 ), #781, .F. ) ;
#1265 = FACE_BOUND ( 'NONE', #654, .T. ) ;
#1266 = EDGE_CURVE ( 'NONE', #891, #1228, #787, .T. ) ;
#1267 = CYLINDRICAL_SURFACE ( 'NONE', #1192, 1.299999999999995604 ) ;
#1268 = DIRECTION ( 'NONE',  ( -0.000000000000000000, -0.000000000000000000, 1.000000000000000000 ) ) ;
#1269 = FACE_OUTER_BOUND ( 'NONE', #49, .T. ) ;
#1270 = EDGE_LOOP ( 'NONE', ( #76, #411 ) ) ;
#1271 = APPLICATION_CONTEXT ( 'configuration controlled 3d designs of mechanical parts and assemblies' ) ;
#1272 = DIRECTION ( 'NONE',  ( 0.000000000000000000, 0.000000000000000000, -1.000000000000000000 ) ) ;
#1273 = DIRECTION ( 'NONE',  ( 1.000000000000000000, 0.000000000000000000, 0.000000000000000000 ) ) ;
#1274 = DIRECTION ( 'NONE',  ( -0.000000000000000000, -0.000000000000000000, 1.000000000000000000 ) ) ;
#1275 = CIRCLE ( 'NONE', #1164, 16.00000000000000000 ) ;
#1276 = CYLINDRICAL_SURFACE ( 'NONE', #467, 1.600000000000000755 ) ;
#1277 = ORIENTED_EDGE ( 'NONE', *, *, #496, .F. ) ;
#1278 = VECTOR ( 'NONE', #280, 1000.000000000000000 ) ;
#1279 = ORIENTED_EDGE ( 'NONE', *, *, #741, .F. ) ;
#1280 = DIRECTION ( 'NONE',  ( 1.000000000000000000, 0.000000000000000000, 0.000000000000000000 ) ) ;
#1281 = CARTESIAN_POINT ( 'NONE',  ( 90.00000000000000000, -14.00000000000000000, 0.000000000000000000 ) ) ;
#1282 = EDGE_CURVE ( 'NONE', #1113, #113, #363, .T. ) ;
#1283 = CARTESIAN_POINT ( 'NONE',  ( 85.00000000000000000, -9.000000000000000000, 4.000000000000003553 ) ) ;
#1284 = CARTESIAN_POINT ( 'NONE',  ( 90.00000000000000000, -14.00000000000000000, 4.000000000000000000 ) ) ;
#1285 = ORIENTED_EDGE ( 'NONE', *, *, #1078, .T. ) ;
#1286 = EDGE_CURVE ( 'NONE', #593, #732, #1295, .T. ) ;
#1287 = VECTOR ( 'NONE', #1179, 1000.000000000000000 ) ;
#1288 = DIRECTION ( 'NONE',  ( 0.000000000000000000, -1.000000000000000000, 0.000000000000000000 ) ) ;
#1289 = DIRECTION ( 'NONE',  ( 0.000000000000000000, 0.000000000000000000, -1.000000000000000000 ) ) ;
#1290 = CARTESIAN_POINT ( 'NONE',  ( 8.400000000000000355, 0.000000000000000000, 4.000000000000003553 ) ) ;
#1291 = ADVANCED_FACE ( 'NONE', ( #137 ), #153, .F. ) ;
#1292 = VERTEX_POINT ( 'NONE', #149 ) ;
#1293 = EDGE_CURVE ( 'NONE', #1116, #544, #928, .T. ) ;
#1294 = DIRECTION ( 'NONE',  ( -1.000000000000000000, 0.000000000000000000, 0.000000000000000000 ) ) ;
#1295 = LINE ( 'NONE', #1092, #652 ) ;
#1296 = EDGE_LOOP ( 'NONE', ( #831, #253 ) ) ;
#1297 = ORIENTED_EDGE ( 'NONE', *, *, #141, .T. ) ;
#1298 = CIRCLE ( 'NONE', #162, 1.600000000000004086 ) ;
#1299 = PRODUCT_DEFINITION_SHAPE ( 'NONE', 'NONE',  #24 ) ;
#1300 = ORIENTED_EDGE ( 'NONE', *, *, #963, .F. ) ;
#1301 = CARTESIAN_POINT ( 'NONE',  ( 0.000000000000000000, 0.000000000000000000, 0.000000000000000000 ) ) ;
#1302 = AXIS2_PLACEMENT_3D ( 'NONE', #47, #559, #1303 ) ;
#1303 = DIRECTION ( 'NONE',  ( 1.000000000000000000, 0.000000000000000000, 0.000000000000000000 ) ) ;
#1304 = VERTEX_POINT ( 'NONE', #663 ) ;
#1305 = VERTEX_POINT ( 'NONE', #871 ) ;
#1306 = ADVANCED_FACE ( 'NONE', ( #992 ), #889, .F. ) ;
#1307 = CYLINDRICAL_SURFACE ( 'NONE', #672, 1.600000000000000755 ) ;
#1308 = DIRECTION ( 'NONE',  ( -0.000000000000000000, -0.000000000000000000, 1.000000000000000000 ) ) ;
#1309 = ORIENTED_EDGE ( 'NONE', *, *, #597, .T. ) ;
#1310 = EDGE_LOOP ( 'NONE', ( #968, #396, #146, #1285 ) ) ;
#1311 = CARTESIAN_POINT ( 'NONE',  ( 85.00000000000000000, -9.000000000000000000, 4.000000000000003553 ) ) ;
#1312 = APPROVAL_STATUS ( 'not_yet_approved' ) ;
#1313 = CARTESIAN_POINT ( 'NONE',  ( 27.00000000000000000, 3.000000000000000000, 0.000000000000000000 ) ) ;
#1314 = ORIENTED_EDGE ( 'NONE', *, *, #1282, .F. ) ;
#1315 = ORIENTED_EDGE ( 'NONE', *, *, #332, .T. ) ;
#1316 = CARTESIAN_POINT ( 'NONE',  ( 27.00000000000000000, 3.000000000000000000, 4.000000000000003553 ) ) ;
#1317 = LOCAL_TIME ( 16, 17, 35.00000000000000000, #1232 ) ;
#1318 = VECTOR ( 'NONE', #109, 1000.000000000000000 ) ;
#1319 = DIRECTION ( 'NONE',  ( 1.000000000000000000, 0.000000000000000000, 0.000000000000000000 ) ) ;
#1320 = AXIS2_PLACEMENT_3D ( 'NONE', #1163, #1268, #33 ) ;
#1321 = EDGE_CURVE ( 'NONE', #169, #942, #1123, .T. ) ;
#1322 = CARTESIAN_POINT ( 'NONE',  ( 0.000000000000000000, 0.000000000000000000, 4.000000000000003553 ) ) ;
#1323 = ORIENTED_EDGE ( 'NONE', *, *, #266, .F. ) ;
#1324 = DIRECTION ( 'NONE',  ( 0.000000000000000000, 0.000000000000000000, -1.000000000000000000 ) ) ;
#1325 = EDGE_LOOP ( 'NONE', ( #581, #175, #22, #168 ) ) ;
#1326 = EDGE_CURVE ( 'NONE', #673, #306, #478, .T. ) ;
#1327 = DIRECTION ( 'NONE',  ( 0.000000000000000000, 0.000000000000000000, -1.000000000000000000 ) ) ;
#1328 = COORDINATED_UNIVERSAL_TIME_OFFSET ( 6, 0, .BEHIND. ) ;
#1329 = CARTESIAN_POINT ( 'NONE',  ( 77.40000000000000568, -6.500000000000000000, 4.000000000000000888 ) ) ;
#1330 = ORIENTED_EDGE ( 'NONE', *, *, #399, .F. ) ;
#1331 = FACE_BOUND ( 'NONE', #69, .T. ) ;
#1332 = VERTEX_POINT ( 'NONE', #53 ) ;
#1333 = EDGE_CURVE ( 'NONE', #847, #14, #261, .T. ) ;
#1334 = CARTESIAN_POINT ( 'NONE',  ( 42.00000000000000000, 14.00000000000000000, 0.000000000000000000 ) ) ;
#1335 = CALENDAR_DATE ( 2026, 7, 9 ) ;
#1336 = DIRECTION ( 'NONE',  ( 1.000000000000000000, 0.000000000000000000, 0.000000000000000000 ) ) ;
#1337 = ORIENTED_EDGE ( 'NONE', *, *, #30, .T. ) ;
#1338 = CARTESIAN_POINT ( 'NONE',  ( 1.600000000000000089, -10.00000000000000000, 4.000000000000003553 ) ) ;
#1339 = ORIENTED_EDGE ( 'NONE', *, *, #1205, .T. ) ;
#1340 = LINE ( 'NONE', #508, #648 ) ;
#1341 = AXIS2_PLACEMENT_3D ( 'NONE', #669, #1091, #1294 ) ;
#1342 = DATE_AND_TIME ( #687, #758 ) ;
#1343 = AXIS2_PLACEMENT_3D ( 'NONE', #94, #407, #1023 ) ;
#1344 = ADVANCED_FACE ( 'NONE', ( #32 ), #449, .F. ) ;
#1345 = CARTESIAN_POINT ( 'NONE',  ( 14.38749456993815734, -7.000000000000000000, 4.000000000000000000 ) ) ;
#1346 = VERTEX_POINT ( 'NONE', #352 ) ;
#1347 = CARTESIAN_POINT ( 'NONE',  ( 0.000000000000000000, 10.00000000000000000, 4.000000000000003553 ) ) ;
#1348 = VERTEX_POINT ( 'NONE', #180 ) ;
#1349 = CIRCLE ( 'NONE', #166, 4.000000000000000000 ) ;
#1350 = PLANE ( 'NONE',  #448 ) ;
#1351 = EDGE_CURVE ( 'NONE', #169, #916, #1100, .T. ) ;
#1352 = DIRECTION ( 'NONE',  ( -1.000000000000000000, 0.000000000000000000, 0.000000000000000000 ) ) ;
#1353 = AXIS2_PLACEMENT_3D ( 'NONE', #615, #300, #199 ) ;
#1354 = ORIENTED_EDGE ( 'NONE', *, *, #262, .F. ) ;
#1355 = FACE_BOUND ( 'NONE', #933, .T. ) ;
#1356 = ORIENTED_EDGE ( 'NONE', *, *, #43, .F. ) ;
ENDSEC;
END-ISO-10303-21;
