ISO-10303-21;
HEADER;
FILE_DESCRIPTION (( 'STEP AP203' ),
    '1' );
FILE_NAME ('ARM-002_Yaw_platform_and_shoulder_mount.step',
    '2026-09-07T21:17:17',
    ( '' ),
    ( '' ),
    'SwSTEP 2.0',
    'SolidWorks 2026',
    '' );
FILE_SCHEMA (( 'CONFIG_CONTROL_DESIGN' ));
ENDSEC;

DATA;
#1 = LINE ( 'NONE', #515, #1111 ) ;
#2 = EDGE_CURVE ( 'NONE', #432, #245, #426, .T. ) ;
#3 = ORIENTED_EDGE ( 'NONE', *, *, #682, .F. ) ;
#4 = CIRCLE ( 'NONE', #927, 1.900000000000000577 ) ;
#5 = ORIENTED_EDGE ( 'NONE', *, *, #608, .F. ) ;
#6 = CARTESIAN_POINT ( 'NONE',  ( 43.00000000000000000, 76.00000000000000000, 4.000000000000000000 ) ) ;
#7 = FACE_BOUND ( 'NONE', #264, .T. ) ;
#8 = CARTESIAN_POINT ( 'NONE',  ( 0.000000000000000000, 70.00000000000000000, -6.000000000000000000 ) ) ;
#9 = EDGE_CURVE ( 'NONE', #758, #1221, #1149, .T. ) ;
#10 = VERTEX_POINT ( 'NONE', #1124 ) ;
#11 = VERTEX_POINT ( 'NONE', #1135 ) ;
#12 = LINE ( 'NONE', #25, #466 ) ;
#13 = VECTOR ( 'NONE', #193, 1000.000000000000000 ) ;
#14 = ORIENTED_EDGE ( 'NONE', *, *, #992, .T. ) ;
#15 = AXIS2_PLACEMENT_3D ( 'NONE', #881, #382, #781 ) ;
#16 = FACE_OUTER_BOUND ( 'NONE', #594, .T. ) ;
#17 = VECTOR ( 'NONE', #58, 1000.000000000000000 ) ;
#18 = ORIENTED_EDGE ( 'NONE', *, *, #225, .F. ) ;
#19 = FACE_BOUND ( 'NONE', #511, .T. ) ;
#20 = ADVANCED_FACE ( 'NONE', ( #7, #406 ), #618, .T. ) ;
#21 = DIRECTION ( 'NONE',  ( 0.000000000000000000, 0.000000000000000000, 1.000000000000000000 ) ) ;
#22 = CARTESIAN_POINT ( 'NONE',  ( 0.000000000000000000, 70.00000000000000000, 0.000000000000000000 ) ) ;
#23 = AXIS2_PLACEMENT_3D ( 'NONE', #6, #1034, #312 ) ;
#24 = VERTEX_POINT ( 'NONE', #115 ) ;
#25 = CARTESIAN_POINT ( 'NONE',  ( -10.50000000000000000, 132.3499999999999943, 44.00000000000000000 ) ) ;
#26 = EDGE_CURVE ( 'NONE', #889, #186, #522, .T. ) ;
#27 = ORIENTED_EDGE ( 'NONE', *, *, #1238, .F. ) ;
#28 = LINE ( 'NONE', #837, #681 ) ;
#29 = ORIENTED_EDGE ( 'NONE', *, *, #975, .F. ) ;
#30 = CARTESIAN_POINT ( 'NONE',  ( 43.00000000000000000, 144.0000000000000000, 4.000000000000000000 ) ) ;
#31 = AXIS2_PLACEMENT_3D ( 'NONE', #645, #363, #1248 ) ;
#32 = AXIS2_PLACEMENT_3D ( 'NONE', #1002, #387, #287 ) ;
#33 = CARTESIAN_POINT ( 'NONE',  ( -10.50000000000000000, 0.000000000000000000, 4.000000000000000000 ) ) ;
#34 = AXIS2_PLACEMENT_3D ( 'NONE', #1148, #767, #1074 ) ;
#35 = AXIS2_PLACEMENT_3D ( 'NONE', #1050, #147, #547 ) ;
#36 = CARTESIAN_POINT ( 'NONE',  ( 3.000000000000000000, 47.99999999999999289, 5.000000000000000000 ) ) ;
#37 = EDGE_CURVE ( 'NONE', #774, #572, #1253, .T. ) ;
#38 = ORIENTED_EDGE ( 'NONE', *, *, #633, .F. ) ;
#39 = DIRECTION ( 'NONE',  ( -1.000000000000000000, 0.000000000000000000, 0.000000000000000000 ) ) ;
#40 = CARTESIAN_POINT ( 'NONE',  ( 0.000000000000000000, 72.00000000000000000, 0.000000000000000000 ) ) ;
#41 = DIRECTION ( 'NONE',  ( 1.000000000000000000, 0.000000000000000000, 0.000000000000000000 ) ) ;
#42 = ADVANCED_FACE ( 'NONE', ( #467 ), #860, .T. ) ;
#43 = EDGE_LOOP ( 'NONE', ( #713, #870, #971, #1128 ) ) ;
#44 = LINE ( 'NONE', #647, #935 ) ;
#45 = CARTESIAN_POINT ( 'NONE',  ( 0.000000000000000000, 72.00000000000000000, 0.000000000000000000 ) ) ;
#46 = CARTESIAN_POINT ( 'NONE',  ( -11.09999999999999787, 117.0000000000000000, 0.000000000000000000 ) ) ;
#47 = CARTESIAN_POINT ( 'NONE',  ( -10.50000000000000000, 132.3499999999999943, 0.000000000000000000 ) ) ;
#48 = EDGE_CURVE ( 'NONE', #106, #424, #648, .T. ) ;
#49 = ORIENTED_EDGE ( 'NONE', *, *, #608, .T. ) ;
#50 = CARTESIAN_POINT ( 'NONE',  ( 37.59999999999999432, 140.0000000000000000, 44.00000000000000000 ) ) ;
#51 = DIRECTION ( 'NONE',  ( 0.000000000000000000, 0.000000000000000000, -1.000000000000000000 ) ) ;
#52 = PERSON_AND_ORGANIZATION_ROLE ( 'classification_officer' ) ;
#53 = FACE_OUTER_BOUND ( 'NONE', #1133, .T. ) ;
#54 = CIRCLE ( 'NONE', #182, 1.599999999999997202 ) ;
#55 = EDGE_LOOP ( 'NONE', ( #718, #98, #464, #138 ) ) ;
#56 = DIRECTION ( 'NONE',  ( -1.000000000000000000, 0.000000000000000000, 0.000000000000000000 ) ) ;
#57 = APPROVAL_PERSON_ORGANIZATION ( #159, #1152, #663 ) ;
#58 = DIRECTION ( 'NONE',  ( 0.000000000000000000, 0.000000000000000000, -1.000000000000000000 ) ) ;
#59 = EDGE_CURVE ( 'NONE', #937, #109, #415, .T. ) ;
#60 = CARTESIAN_POINT ( 'NONE',  ( 32.10000000000000142, 127.0000000000000000, 4.000000000000003553 ) ) ;
#61 = DIRECTION ( 'NONE',  ( 0.000000000000000000, 1.000000000000000000, 0.000000000000000000 ) ) ;
#62 = ORIENTED_EDGE ( 'NONE', *, *, #1224, .F. ) ;
#63 = FACE_OUTER_BOUND ( 'NONE', #741, .T. ) ;
#64 = LINE ( 'NONE', #253, #686 ) ;
#65 = CC_DESIGN_PERSON_AND_ORGANIZATION_ASSIGNMENT ( #67, #771, ( #449 ) ) ;
#66 = CIRCLE ( 'NONE', #803, 44.00000000000000000 ) ;
#67 = PERSON_AND_ORGANIZATION ( #543, #1233 ) ;
#68 = LINE ( 'NONE', #349, #702 ) ;
#69 = ORIENTED_EDGE ( 'NONE', *, *, #1035, .F. ) ;
#70 = LINE ( 'NONE', #1101, #1106 ) ;
#71 = DATE_AND_TIME ( #274, #583 ) ;
#72 = CARTESIAN_POINT ( 'NONE',  ( 34.00000000000000000, 117.0000000000000000, 0.000000000000000000 ) ) ;
#73 = EDGE_CURVE ( 'NONE', #314, #210, #185, .T. ) ;
#74 = VECTOR ( 'NONE', #988, 1000.000000000000000 ) ;
#75 = CARTESIAN_POINT ( 'NONE',  ( 3.000000000000000000, 72.00000000000000000, -2.569533031505919052 ) ) ;
#76 = AXIS2_PLACEMENT_3D ( 'NONE', #955, #1267, #1134 ) ;
#77 = ADVANCED_FACE ( 'NONE', ( #369 ), #661, .T. ) ;
#78 = VECTOR ( 'NONE', #1273, 1000.000000000000000 ) ;
#79 = EDGE_LOOP ( 'NONE', ( #124, #833 ) ) ;
#80 = CYLINDRICAL_SURFACE ( 'NONE', #15, 1.900000000000000577 ) ;
#81 = CARTESIAN_POINT ( 'NONE',  ( 3.000000000000000000, 43.00000000000000000, 5.000000000000000000 ) ) ;
#82 = AXIS2_PLACEMENT_3D ( 'NONE', #1214, #320, #912 ) ;
#83 = VERTEX_POINT ( 'NONE', #461 ) ;
#84 = EDGE_CURVE ( 'NONE', #581, #299, #958, .T. ) ;
#85 = EDGE_LOOP ( 'NONE', ( #628, #359, #977, #494 ) ) ;
#86 = CARTESIAN_POINT ( 'NONE',  ( -16.00000000000000000, 77.00000000000000000, -8.000000000000000000 ) ) ;
#87 = LINE ( 'NONE', #787, #811 ) ;
#88 = ORIENTED_EDGE ( 'NONE', *, *, #179, .T. ) ;
#89 = DIRECTION ( 'NONE',  ( 0.000000000000000000, 1.000000000000000000, 0.000000000000000000 ) ) ;
#90 = ORIENTED_EDGE ( 'NONE', *, *, #667, .F. ) ;
#91 = EDGE_CURVE ( 'NONE', #289, #198, #984, .T. ) ;
#92 = VERTEX_POINT ( 'NONE', #1157 ) ;
#93 = DIRECTION ( 'NONE',  ( -1.000000000000000000, 0.000000000000000000, 0.000000000000000000 ) ) ;
#94 = LINE ( 'NONE', #485, #74 ) ;
#95 = ORIENTED_EDGE ( 'NONE', *, *, #967, .T. ) ;
#96 = DIRECTION ( 'NONE',  ( -1.000000000000000000, 0.000000000000000000, 0.000000000000000000 ) ) ;
#97 = VECTOR ( 'NONE', #786, 1000.000000000000000 ) ;
#98 = ORIENTED_EDGE ( 'NONE', *, *, #1052, .T. ) ;
#99 = VECTOR ( 'NONE', #89, 1000.000000000000000 ) ;
#100 = CARTESIAN_POINT ( 'NONE',  ( 0.000000000000000000, 72.00000000000000000, -1.750000000000000000 ) ) ;
#101 = LINE ( 'NONE', #81, #1210 ) ;
#102 = EDGE_CURVE ( 'NONE', #734, #1019, #1257, .T. ) ;
#103 = EDGE_LOOP ( 'NONE', ( #689, #500, #711, #1120 ) ) ;
#104 = CC_DESIGN_APPROVAL ( #838, ( #793 ) ) ;
#105 = CARTESIAN_POINT ( 'NONE',  ( -23.00000000000000000, 108.0000000000000000, 4.000000000000000000 ) ) ;
#106 = VERTEX_POINT ( 'NONE', #966 ) ;
#107 = VERTEX_POINT ( 'NONE', #1055 ) ;
#108 = FACE_BOUND ( 'NONE', #1014, .T. ) ;
#109 = VERTEX_POINT ( 'NONE', #354 ) ;
#110 = EDGE_CURVE ( 'NONE', #612, #1288, #64, .T. ) ;
#111 = LINE ( 'NONE', #1016, #140 ) ;
#112 = ORIENTED_EDGE ( 'NONE', *, *, #1035, .T. ) ;
#113 = EDGE_LOOP ( 'NONE', ( #342, #810, #825, #1239 ) ) ;
#114 = DIRECTION ( 'NONE',  ( -1.000000000000000000, 0.000000000000000000, 0.000000000000000000 ) ) ;
#115 = CARTESIAN_POINT ( 'NONE',  ( -23.00000000000000000, 77.00000000000000000, -8.000000000000000000 ) ) ;
#116 = CARTESIAN_POINT ( 'NONE',  ( -11.09999999999999787, 127.0000000000000000, 44.00000000000000000 ) ) ;
#117 = EDGE_CURVE ( 'NONE', #92, #1194, #267, .T. ) ;
#118 = FACE_OUTER_BOUND ( 'NONE', #1205, .T. ) ;
#119 = ORIENTED_EDGE ( 'NONE', *, *, #207, .T. ) ;
#120 = CIRCLE ( 'NONE', #392, 1.899999999999999023 ) ;
#121 = PLANE ( 'NONE',  #603 ) ;
#122 = VECTOR ( 'NONE', #540, 1000.000000000000000 ) ;
#123 = PRODUCT_RELATED_PRODUCT_CATEGORY ( 'detail', '', ( #449 ) ) ;
#124 = ORIENTED_EDGE ( 'NONE', *, *, #1142, .F. ) ;
#125 = DIRECTION ( 'NONE',  ( 0.000000000000000000, 0.000000000000000000, -1.000000000000000000 ) ) ;
#126 = ORIENTED_EDGE ( 'NONE', *, *, #975, .T. ) ;
#127 = LINE ( 'NONE', #534, #1249 ) ;
#128 = AXIS2_PLACEMENT_3D ( 'NONE', #622, #617, #930 ) ;
#129 = ORIENTED_EDGE ( 'NONE', *, *, #214, .T. ) ;
#130 = FACE_OUTER_BOUND ( 'NONE', #79, .T. ) ;
#131 = ORIENTED_EDGE ( 'NONE', *, *, #716, .F. ) ;
#132 = EDGE_CURVE ( 'NONE', #581, #1282, #855, .T. ) ;
#133 = DIRECTION ( 'NONE',  ( 0.000000000000000000, 1.000000000000000000, 0.000000000000000000 ) ) ;
#134 = EDGE_LOOP ( 'NONE', ( #69, #1294, #1006, #62 ) ) ;
#135 = DIRECTION ( 'NONE',  ( -0.000000000000000000, 1.000000000000000000, 0.000000000000000000 ) ) ;
#136 = VECTOR ( 'NONE', #262, 1000.000000000000000 ) ;
#137 = CIRCLE ( 'NONE', #32, 1.900000000000000577 ) ;
#138 = ORIENTED_EDGE ( 'NONE', *, *, #728, .F. ) ;
#139 = AXIS2_PLACEMENT_3D ( 'NONE', #664, #374, #566 ) ;
#140 = VECTOR ( 'NONE', #1293, 1000.000000000000000 ) ;
#141 = ADVANCED_FACE ( 'NONE', ( #752 ), #841, .T. ) ;
#142 = DIRECTION ( 'NONE',  ( -0.000000000000000000, -1.000000000000000000, -0.000000000000000000 ) ) ;
#143 = AXIS2_PLACEMENT_3D ( 'NONE', #939, #440, #950 ) ;
#144 = ORIENTED_EDGE ( 'NONE', *, *, #775, .F. ) ;
#145 = DIRECTION ( 'NONE',  ( 0.000000000000000000, 0.000000000000000000, -1.000000000000000000 ) ) ;
#146 = CYLINDRICAL_SURFACE ( 'NONE', #476, 1.750000000000000000 ) ;
#147 = DIRECTION ( 'NONE',  ( 0.000000000000000000, 0.000000000000000000, -1.000000000000000000 ) ) ;
#148 = DIRECTION ( 'NONE',  ( -0.000000000000000000, -1.000000000000000000, -0.000000000000000000 ) ) ;
#149 = EDGE_LOOP ( 'NONE', ( #898, #1104 ) ) ;
#150 = CARTESIAN_POINT ( 'NONE',  ( 0.000000000000000000, 43.00000000000000000, 0.000000000000000000 ) ) ;
#151 = CARTESIAN_POINT ( 'NONE',  ( 0.000000000000000000, 43.00000000000000000, -3.950000000000000178 ) ) ;
#152 = PERSON_AND_ORGANIZATION ( #543, #1233 ) ;
#153 = PLANE ( 'NONE',  #202 ) ;
#154 = CARTESIAN_POINT ( 'NONE',  ( -23.00000000000000000, 77.00000000000000000, 0.000000000000000000 ) ) ;
#155 = ADVANCED_FACE ( 'NONE', ( #654 ), #738, .T. ) ;
#156 = ORIENTED_EDGE ( 'NONE', *, *, #37, .F. ) ;
#157 = CARTESIAN_POINT ( 'NONE',  ( 0.000000000000000000, 72.00000000000001421, 0.000000000000000000 ) ) ;
#158 = DIRECTION ( 'NONE',  ( 0.000000000000000000, 0.000000000000000000, -1.000000000000000000 ) ) ;
#159 = PERSON_AND_ORGANIZATION ( #543, #1233 ) ;
#160 = DIRECTION ( 'NONE',  ( -0.000000000000000000, -0.000000000000000000, 1.000000000000000000 ) ) ;
#161 = AXIS2_PLACEMENT_3D ( 'NONE', #1113, #602, #407 ) ;
#162 = LINE ( 'NONE', #263, #78 ) ;
#163 = EDGE_LOOP ( 'NONE', ( #1088, #652, #95, #807 ) ) ;
#164 = DIRECTION ( 'NONE',  ( -1.000000000000000000, 0.000000000000000000, 0.000000000000000000 ) ) ;
#165 = CARTESIAN_POINT ( 'NONE',  ( 35.89999999999999858, 127.0000000000000000, 44.00000000000000000 ) ) ;
#166 = CARTESIAN_POINT ( 'NONE',  ( 31.19999999999999929, 0.000000000000000000, -0.000000000000000000 ) ) ;
#167 = DIRECTION ( 'NONE',  ( -0.000000000000000000, -1.000000000000000000, -0.000000000000000000 ) ) ;
#168 = VERTEX_POINT ( 'NONE', #641 ) ;
#169 = DIRECTION ( 'NONE',  ( -0.000000000000000000, -0.000000000000000000, 1.000000000000000000 ) ) ;
#170 = ADVANCED_FACE ( 'NONE', ( #1049 ), #146, .F. ) ;
#171 = CARTESIAN_POINT ( 'NONE',  ( -13.00000000000000000, 117.0000000000000000, 4.000000000000003553 ) ) ;
#172 = LINE ( 'NONE', #571, #136 ) ;
#173 = DIRECTION ( 'NONE',  ( -0.000000000000000000, -0.000000000000000000, -1.000000000000000000 ) ) ;
#174 = ORIENTED_EDGE ( 'NONE', *, *, #532, .F. ) ;
#175 = DIRECTION ( 'NONE',  ( 0.000000000000000000, 1.000000000000000000, 0.000000000000000000 ) ) ;
#176 = LINE ( 'NONE', #882, #306 ) ;
#177 = APPLICATION_PROTOCOL_DEFINITION ( 'international standard', 'config_control_design', 1994, #823 ) ;
#178 = ORIENTED_EDGE ( 'NONE', *, *, #2, .T. ) ;
#179 = EDGE_CURVE ( 'NONE', #572, #774, #766, .T. ) ;
#180 = VECTOR ( 'NONE', #335, 1000.000000000000000 ) ;
#181 = ORIENTED_EDGE ( 'NONE', *, *, #909, .T. ) ;
#182 = AXIS2_PLACEMENT_3D ( 'NONE', #584, #196, #700 ) ;
#183 = CARTESIAN_POINT ( 'NONE',  ( 43.00000000000000000, 76.00000000000000000, 4.000000000000000000 ) ) ;
#184 = CYLINDRICAL_SURFACE ( 'NONE', #297, 44.00000000000000000 ) ;
#185 = CIRCLE ( 'NONE', #918, 1.599999999999997202 ) ;
#186 = VERTEX_POINT ( 'NONE', #151 ) ;
#187 = DIRECTION ( 'NONE',  ( 0.000000000000000000, 0.000000000000000000, 1.000000000000000000 ) ) ;
#188 = ORIENTED_EDGE ( 'NONE', *, *, #460, .F. ) ;
#189 = DIRECTION ( 'NONE',  ( -0.000000000000000000, -0.000000000000000000, 1.000000000000000000 ) ) ;
#190 = CARTESIAN_POINT ( 'NONE',  ( 3.000000000000000000, 72.00000000000000000, 2.569533031505919052 ) ) ;
#191 = EDGE_LOOP ( 'NONE', ( #1207, #38 ) ) ;
#192 = VECTOR ( 'NONE', #631, 1000.000000000000000 ) ;
#193 = DIRECTION ( 'NONE',  ( 0.000000000000000000, 0.000000000000000000, -1.000000000000000000 ) ) ;
#194 = ORIENTED_EDGE ( 'NONE', *, *, #1127, .F. ) ;
#195 = EDGE_CURVE ( 'NONE', #234, #24, #1062, .T. ) ;
#196 = DIRECTION ( 'NONE',  ( -0.000000000000000000, -0.000000000000000000, 1.000000000000000000 ) ) ;
#197 = CARTESIAN_POINT ( 'NONE',  ( 0.000000000000000000, 70.00000000000000000, 0.000000000000000000 ) ) ;
#198 = VERTEX_POINT ( 'NONE', #378 ) ;
#199 = CARTESIAN_POINT ( 'NONE',  ( 0.000000000000000000, 70.00000000000000000, 0.000000000000000000 ) ) ;
#200 = AXIS2_PLACEMENT_3D ( 'NONE', #1001, #501, #93 ) ;
#201 = VECTOR ( 'NONE', #1086, 1000.000000000000000 ) ;
#202 = AXIS2_PLACEMENT_3D ( 'NONE', #255, #61, #867 ) ;
#203 = ORIENTED_EDGE ( 'NONE', *, *, #728, .T. ) ;
#204 = VECTOR ( 'NONE', #866, 1000.000000000000000 ) ;
#205 = DIRECTION ( 'NONE',  ( 0.000000000000000000, 0.000000000000000000, 1.000000000000000000 ) ) ;
#206 = PLANE ( 'NONE',  #1201 ) ;
#207 = EDGE_CURVE ( 'NONE', #518, #11, #496, .T. ) ;
#208 = EDGE_LOOP ( 'NONE', ( #27, #677 ) ) ;
#209 = DIRECTION ( 'NONE',  ( -0.000000000000000000, -0.000000000000000000, 1.000000000000000000 ) ) ;
#210 = VERTEX_POINT ( 'NONE', #1190 ) ;
#211 = DIRECTION ( 'NONE',  ( -1.000000000000000000, 0.000000000000000000, 0.000000000000000000 ) ) ;
#212 = EDGE_CURVE ( 'NONE', #24, #1122, #87, .T. ) ;
#213 = ORIENTED_EDGE ( 'NONE', *, *, #1003, .T. ) ;
#214 = EDGE_CURVE ( 'NONE', #1282, #1251, #94, .T. ) ;
#215 = LINE ( 'NONE', #712, #1087 ) ;
#216 = FACE_BOUND ( 'NONE', #527, .T. ) ;
#217 = ORIENTED_EDGE ( 'NONE', *, *, #9, .F. ) ;
#218 = FACE_BOUND ( 'NONE', #401, .T. ) ;
#219 = EDGE_CURVE ( 'NONE', #1176, #614, #574, .T. ) ;
#220 = EDGE_LOOP ( 'NONE', ( #1147, #723 ) ) ;
#221 = FACE_OUTER_BOUND ( 'NONE', #1162, .T. ) ;
#222 = VERTEX_POINT ( 'NONE', #295 ) ;
#223 = CARTESIAN_POINT ( 'NONE',  ( 0.000000000000000000, 72.00000000000000000, 0.000000000000000000 ) ) ;
#224 = LOCAL_TIME ( 16, 17, 17.00000000000000000, #876 ) ;
#225 = EDGE_CURVE ( 'NONE', #1194, #300, #400, .T. ) ;
#226 = EDGE_LOOP ( 'NONE', ( #827, #324, #112, #1065, #337, #685 ) ) ;
#227 = DIRECTION ( 'NONE',  ( 0.000000000000000000, 0.000000000000000000, 1.000000000000000000 ) ) ;
#228 = ORIENTED_EDGE ( 'NONE', *, *, #941, .T. ) ;
#229 = CARTESIAN_POINT ( 'NONE',  ( 31.19999999999999929, 132.3499999999999943, 0.000000000000000000 ) ) ;
#230 = CIRCLE ( 'NONE', #862, 3.950000000000000178 ) ;
#231 = EDGE_LOOP ( 'NONE', ( #277, #1211 ) ) ;
#232 = CARTESIAN_POINT ( 'NONE',  ( 34.00000000000000000, 127.0000000000000000, 44.00000000000000000 ) ) ;
#233 = ADVANCED_FACE ( 'NONE', ( #796 ), #491, .F. ) ;
#234 = VERTEX_POINT ( 'NONE', #1094 ) ;
#235 = DIRECTION ( 'NONE',  ( -1.000000000000000000, 0.000000000000000000, 0.000000000000000000 ) ) ;
#236 = ORIENTED_EDGE ( 'NONE', *, *, #1110, .T. ) ;
#237 = FACE_OUTER_BOUND ( 'NONE', #352, .T. ) ;
#238 = VECTOR ( 'NONE', #893, 1000.000000000000000 ) ;
#239 = DIRECTION ( 'NONE',  ( -1.000000000000000000, 0.000000000000000000, -0.000000000000000000 ) ) ;
#240 = AXIS2_PLACEMENT_3D ( 'NONE', #150, #653, #1061 ) ;
#241 = AXIS2_PLACEMENT_3D ( 'NONE', #36, #1143, #732 ) ;
#242 = FACE_OUTER_BOUND ( 'NONE', #103, .T. ) ;
#243 = LINE ( 'NONE', #166, #305 ) ;
#244 = AXIS2_PLACEMENT_3D ( 'NONE', #829, #931, #422 ) ;
#245 = VERTEX_POINT ( 'NONE', #1081 ) ;
#246 = CARTESIAN_POINT ( 'NONE',  ( -23.00000000000000000, 144.0000000000000000, 4.000000000000000000 ) ) ;
#247 = CARTESIAN_POINT ( 'NONE',  ( 0.000000000000000000, 72.00000000000000000, 0.000000000000000000 ) ) ;
#248 = PERSON_AND_ORGANIZATION ( #543, #1233 ) ;
#249 = FACE_OUTER_BOUND ( 'NONE', #779, .T. ) ;
#250 = EDGE_CURVE ( 'NONE', #889, #300, #101, .T. ) ;
#251 = VERTEX_POINT ( 'NONE', #1204 ) ;
#252 = DIRECTION ( 'NONE',  ( 0.000000000000000000, -0.000000000000000000, -1.000000000000000000 ) ) ;
#253 = CARTESIAN_POINT ( 'NONE',  ( -23.00000000000000000, 144.0000000000000000, 0.000000000000000000 ) ) ;
#254 = APPROVAL_STATUS ( 'not_yet_approved' ) ;
#255 = CARTESIAN_POINT ( 'NONE',  ( 0.000000000000000000, 72.00000000000000000, 0.000000000000000000 ) ) ;
#256 = EDGE_LOOP ( 'NONE', ( #997, #815 ) ) ;
#257 = DIRECTION ( 'NONE',  ( -0.000000000000000000, -1.000000000000000000, -0.000000000000000000 ) ) ;
#258 = VECTOR ( 'NONE', #1154, 1000.000000000000000 ) ;
#259 = DIRECTION ( 'NONE',  ( -1.000000000000000000, 0.000000000000000000, 0.000000000000000000 ) ) ;
#260 = AXIS2_PLACEMENT_3D ( 'NONE', #569, #1184, #1285 ) ;
#261 = APPROVAL_STATUS ( 'not_yet_approved' ) ;
#262 = DIRECTION ( 'NONE',  ( -0.000000000000000000, -1.000000000000000000, -0.000000000000000000 ) ) ;
#263 = CARTESIAN_POINT ( 'NONE',  ( 37.59999999999999432, 104.0000000000000000, 44.00000000000000000 ) ) ;
#264 = EDGE_LOOP ( 'NONE', ( #1017, #720, #1038, #119, #228, #609 ) ) ;
#265 = CARTESIAN_POINT ( 'NONE',  ( -11.09999999999999787, 127.0000000000000000, 4.000000000000003553 ) ) ;
#266 = EDGE_CURVE ( 'NONE', #707, #1170, #600, .T. ) ;
#267 = LINE ( 'NONE', #1075, #122 ) ;
#268 = LINE ( 'NONE', #1158, #204 ) ;
#269 = DIRECTION ( 'NONE',  ( 0.000000000000000000, 0.000000000000000000, -1.000000000000000000 ) ) ;
#270 = CARTESIAN_POINT ( 'NONE',  ( 0.000000000000000000, 77.00000000000000000, -44.00000000000000000 ) ) ;
#271 = VERTEX_POINT ( 'NONE', #900 ) ;
#272 = CARTESIAN_POINT ( 'NONE',  ( 34.00000000000000000, 127.0000000000000000, 0.000000000000000000 ) ) ;
#273 = CARTESIAN_POINT ( 'NONE',  ( 0.000000000000000000, 72.00000000000000000, 0.000000000000000000 ) ) ;
#274 = CALENDAR_DATE ( 2026, 7, 9 ) ;
#275 = ORIENTED_EDGE ( 'NONE', *, *, #799, .F. ) ;
#276 = UNCERTAINTY_MEASURE_WITH_UNIT (LENGTH_MEASURE( 1.000000000000000082E-05 ), #1263, 'distance_accuracy_value', 'NONE');
#277 = ORIENTED_EDGE ( 'NONE', *, *, #783, .F. ) ;
#278 = DIRECTION ( 'NONE',  ( -1.000000000000000000, 0.000000000000000000, 0.000000000000000000 ) ) ;
#279 = DIRECTION ( 'NONE',  ( 0.000000000000000000, 0.000000000000000000, -1.000000000000000000 ) ) ;
#280 = PERSON_AND_ORGANIZATION ( #543, #1233 ) ;
#281 = ORIENTED_EDGE ( 'NONE', *, *, #783, .T. ) ;
#282 = DIRECTION ( 'NONE',  ( -1.000000000000000000, 0.000000000000000000, 0.000000000000000000 ) ) ;
#283 = VECTOR ( 'NONE', #1161, 1000.000000000000000 ) ;
#284 = ORIENTED_EDGE ( 'NONE', *, *, #673, .T. ) ;
#285 = VECTOR ( 'NONE', #278, 1000.000000000000000 ) ;
#286 = DIRECTION ( 'NONE',  ( -1.000000000000000000, 0.000000000000000000, 0.000000000000000000 ) ) ;
#287 = DIRECTION ( 'NONE',  ( -1.000000000000000000, 0.000000000000000000, 0.000000000000000000 ) ) ;
#288 = APPROVAL_PERSON_ORGANIZATION ( #468, #838, #478 ) ;
#289 = VERTEX_POINT ( 'NONE', #394 ) ;
#290 = CARTESIAN_POINT ( 'NONE',  ( -14.90000000000000036, 127.0000000000000000, 44.00000000000000000 ) ) ;
#291 = EDGE_CURVE ( 'NONE', #1188, #234, #176, .T. ) ;
#292 = ORIENTED_EDGE ( 'NONE', *, *, #250, .F. ) ;
#293 = EDGE_LOOP ( 'NONE', ( #963, #292, #213, #703 ) ) ;
#294 = CARTESIAN_POINT ( 'NONE',  ( 0.000000000000000000, 43.00000000000000000, 0.000000000000000000 ) ) ;
#295 = CARTESIAN_POINT ( 'NONE',  ( 31.19999999999999929, 132.3499999999999943, 4.000000000000000000 ) ) ;
#296 = ORIENTED_EDGE ( 'NONE', *, *, #91, .T. ) ;
#297 = AXIS2_PLACEMENT_3D ( 'NONE', #874, #777, #1179 ) ;
#298 = CARTESIAN_POINT ( 'NONE',  ( 36.00000000000000000, 140.0000000000000000, 44.00000000000000000 ) ) ;
#299 = VERTEX_POINT ( 'NONE', #782 ) ;
#300 = VERTEX_POINT ( 'NONE', #994 ) ;
#301 = CARTESIAN_POINT ( 'NONE',  ( 0.000000000000000000, 111.6500000000000057, 4.000000000000000000 ) ) ;
#302 = CARTESIAN_POINT ( 'NONE',  ( -13.00000000000000000, 127.0000000000000000, 0.000000000000000000 ) ) ;
#303 = ORIENTED_EDGE ( 'NONE', *, *, #941, .F. ) ;
#304 = DIRECTION ( 'NONE',  ( -0.000000000000000000, -0.000000000000000000, 1.000000000000000000 ) ) ;
#305 = VECTOR ( 'NONE', #1057, 1000.000000000000000 ) ;
#306 = VECTOR ( 'NONE', #1197, 1000.000000000000000 ) ;
#307 = AXIS2_PLACEMENT_3D ( 'NONE', #1252, #1048, #164 ) ;
#308 = ORIENTED_EDGE ( 'NONE', *, *, #967, .F. ) ;
#309 = EDGE_CURVE ( 'NONE', #1170, #707, #137, .T. ) ;
#310 = CIRCLE ( 'NONE', #832, 1.900000000000000577 ) ;
#311 = ORIENTED_EDGE ( 'NONE', *, *, #1245, .F. ) ;
#312 = DIRECTION ( 'NONE',  ( 0.000000000000000000, 0.000000000000000000, 1.000000000000000000 ) ) ;
#313 = EDGE_CURVE ( 'NONE', #414, #379, #978, .T. ) ;
#314 = VERTEX_POINT ( 'NONE', #1303 ) ;
#315 = AXIS2_PLACEMENT_3D ( 'NONE', #453, #760, #362 ) ;
#316 = FACE_OUTER_BOUND ( 'NONE', #1112, .T. ) ;
#317 = ORIENTED_EDGE ( 'NONE', *, *, #9, .T. ) ;
#318 = DIRECTION ( 'NONE',  ( 0.000000000000000000, 0.000000000000000000, 1.000000000000000000 ) ) ;
#319 = EDGE_CURVE ( 'NONE', #774, #1098, #679, .T. ) ;
#320 = DIRECTION ( 'NONE',  ( 0.000000000000000000, 1.000000000000000000, 0.000000000000000000 ) ) ;
#321 = CARTESIAN_POINT ( 'NONE',  ( -23.00000000000000000, 76.00000000000000000, 0.000000000000000000 ) ) ;
#322 = VERTEX_POINT ( 'NONE', #701 ) ;
#323 = FACE_OUTER_BOUND ( 'NONE', #380, .T. ) ;
#324 = ORIENTED_EDGE ( 'NONE', *, *, #1202, .T. ) ;
#325 = CARTESIAN_POINT ( 'NONE',  ( -11.09999999999999787, 127.0000000000000000, 0.000000000000000000 ) ) ;
#326 = ORIENTED_EDGE ( 'NONE', *, *, #250, .T. ) ;
#327 = DIRECTION ( 'NONE',  ( 0.000000000000000000, 0.000000000000000000, -1.000000000000000000 ) ) ;
#328 = AXIS2_PLACEMENT_3D ( 'NONE', #223, #739, #340 ) ;
#329 = EDGE_LOOP ( 'NONE', ( #156, #891 ) ) ;
#330 = DIRECTION ( 'NONE',  ( 0.000000000000000000, 0.000000000000000000, -1.000000000000000000 ) ) ;
#331 = EDGE_CURVE ( 'NONE', #589, #937, #70, .T. ) ;
#332 = ORIENTED_EDGE ( 'NONE', *, *, #570, .T. ) ;
#333 = CARTESIAN_POINT ( 'NONE',  ( 0.000000000000000000, 72.00000000000000000, 0.000000000000000000 ) ) ;
#334 = ORIENTED_EDGE ( 'NONE', *, *, #1082, .T. ) ;
#335 = DIRECTION ( 'NONE',  ( 0.000000000000000000, 1.000000000000000000, 0.000000000000000000 ) ) ;
#336 = EDGE_CURVE ( 'NONE', #794, #725, #230, .T. ) ;
#337 = ORIENTED_EDGE ( 'NONE', *, *, #110, .F. ) ;
#338 = LINE ( 'NONE', #660, #733 ) ;
#339 = CARTESIAN_POINT ( 'NONE',  ( 32.10000000000000142, 117.0000000000000000, 44.00000000000000000 ) ) ;
#340 = DIRECTION ( 'NONE',  ( 0.000000000000000000, 0.000000000000000000, 1.000000000000000000 ) ) ;
#341 = DIRECTION ( 'NONE',  ( 0.000000000000000000, 1.000000000000000000, 0.000000000000000000 ) ) ;
#342 = ORIENTED_EDGE ( 'NONE', *, *, #542, .T. ) ;
#343 = CARTESIAN_POINT ( 'NONE',  ( 5.388445916248353619E-15, 77.00000000000000000, 44.00000000000000000 ) ) ;
#344 = SHAPE_DEFINITION_REPRESENTATION ( #418, #610 ) ;
#345 = DIRECTION ( 'NONE',  ( -1.000000000000000000, -0.000000000000000000, -0.000000000000000000 ) ) ;
#346 = ADVANCED_FACE ( 'NONE', ( #597 ), #184, .T. ) ;
#347 = AXIS2_PLACEMENT_3D ( 'NONE', #820, #304, #1193 ) ;
#348 = PERSON_AND_ORGANIZATION_ROLE ( 'creator' ) ;
#349 = CARTESIAN_POINT ( 'NONE',  ( 34.39999999999999858, 104.0000000000000000, 44.00000000000000000 ) ) ;
#350 = VECTOR ( 'NONE', #173, 1000.000000000000000 ) ;
#351 = AXIS2_PLACEMENT_3D ( 'NONE', #521, #922, #21 ) ;
#352 = EDGE_LOOP ( 'NONE', ( #750, #533, #942, #1304 ) ) ;
#353 = DIRECTION ( 'NONE',  ( -0.000000000000000000, -0.000000000000000000, -1.000000000000000000 ) ) ;
#354 = CARTESIAN_POINT ( 'NONE',  ( 0.000000000000000000, 72.00000000000000000, -44.00000000000000000 ) ) ;
#355 = CC_DESIGN_DATE_AND_TIME_ASSIGNMENT ( #655, #384, ( #1028 ) ) ;
#356 = DATE_AND_TIME ( #1173, #1150 ) ;
#357 = CARTESIAN_POINT ( 'NONE',  ( -13.00000000000000000, 127.0000000000000000, 44.00000000000000000 ) ) ;
#358 = DIRECTION ( 'NONE',  ( 0.000000000000000000, 0.000000000000000000, -1.000000000000000000 ) ) ;
#359 = ORIENTED_EDGE ( 'NONE', *, *, #806, .F. ) ;
#360 = CARTESIAN_POINT ( 'NONE',  ( 0.000000000000000000, 77.00000000000000000, 0.000000000000000000 ) ) ;
#361 = AXIS2_PLACEMENT_3D ( 'NONE', #1227, #327, #211 ) ;
#362 = DIRECTION ( 'NONE',  ( 0.000000000000000000, -0.000000000000000000, -1.000000000000000000 ) ) ;
#363 = DIRECTION ( 'NONE',  ( -1.000000000000000000, 0.000000000000000000, 0.000000000000000000 ) ) ;
#364 = EDGE_CURVE ( 'NONE', #924, #835, #1136, .T. ) ;
#365 = LINE ( 'NONE', #270, #480 ) ;
#366 = VERTEX_POINT ( 'NONE', #30 ) ;
#367 = DIRECTION ( 'NONE',  ( 0.000000000000000000, 0.000000000000000000, -1.000000000000000000 ) ) ;
#368 = VECTOR ( 'NONE', #856, 1000.000000000000000 ) ;
#369 = FACE_OUTER_BOUND ( 'NONE', #550, .T. ) ;
#370 = VECTOR ( 'NONE', #591, 1000.000000000000000 ) ;
#371 = AXIS2_PLACEMENT_3D ( 'NONE', #551, #759, #56 ) ;
#372 = ORIENTED_EDGE ( 'NONE', *, *, #869, .T. ) ;
#373 = DIRECTION ( 'NONE',  ( -0.000000000000000000, -0.000000000000000000, 1.000000000000000000 ) ) ;
#374 = DIRECTION ( 'NONE',  ( -0.000000000000000000, -0.000000000000000000, 1.000000000000000000 ) ) ;
#375 = ADVANCED_FACE ( 'NONE', ( #221 ), #420, .F. ) ;
#376 = ORIENTED_EDGE ( 'NONE', *, *, #615, .F. ) ;
#377 = LINE ( 'NONE', #993, #285 ) ;
#378 = CARTESIAN_POINT ( 'NONE',  ( 37.59999999999999432, 104.0000000000000000, 0.000000000000000000 ) ) ;
#379 = VERTEX_POINT ( 'NONE', #1235 ) ;
#380 = EDGE_LOOP ( 'NONE', ( #1298, #849, #395, #537 ) ) ;
#381 = ADVANCED_FACE ( 'NONE', ( #1109, #433, #1119, #911, #216, #405, #19, #531 ), #822, .T. ) ;
#382 = DIRECTION ( 'NONE',  ( 0.000000000000000000, 0.000000000000000000, -1.000000000000000000 ) ) ;
#383 = DIRECTION ( 'NONE',  ( -0.000000000000000000, -1.000000000000000000, -0.000000000000000000 ) ) ;
#384 = DATE_TIME_ROLE ( 'classification_date' ) ;
#385 = EDGE_LOOP ( 'NONE', ( #1155, #403, #910, #1195 ) ) ;
#386 = LINE ( 'NONE', #1302, #1228 ) ;
#387 = DIRECTION ( 'NONE',  ( -0.000000000000000000, -0.000000000000000000, 1.000000000000000000 ) ) ;
#388 = ADVANCED_FACE ( 'NONE', ( #323 ), #834, .F. ) ;
#389 = ORIENTED_EDGE ( 'NONE', *, *, #673, .F. ) ;
#390 = LINE ( 'NONE', #290, #13 ) ;
#391 = VERTEX_POINT ( 'NONE', #627 ) ;
#392 = AXIS2_PLACEMENT_3D ( 'NONE', #272, #987, #1080 ) ;
#393 = DIRECTION ( 'NONE',  ( 1.000000000000000000, 0.000000000000000000, 0.000000000000000000 ) ) ;
#394 = CARTESIAN_POINT ( 'NONE',  ( 34.39999999999999858, 104.0000000000000000, 0.000000000000000000 ) ) ;
#395 = ORIENTED_EDGE ( 'NONE', *, *, #1132, .F. ) ;
#396 = CYLINDRICAL_SURFACE ( 'NONE', #161, 1.599999999999997202 ) ;
#397 = ORIENTED_EDGE ( 'NONE', *, *, #470, .F. ) ;
#398 = ORIENTED_EDGE ( 'NONE', *, *, #542, .F. ) ;
#399 = DIRECTION ( 'NONE',  ( 0.000000000000000000, 0.000000000000000000, -1.000000000000000000 ) ) ;
#400 = LINE ( 'NONE', #190, #370 ) ;
#401 = EDGE_LOOP ( 'NONE', ( #863, #1010 ) ) ;
#402 = CYLINDRICAL_SURFACE ( 'NONE', #1025, 1.599999999999997202 ) ;
#403 = ORIENTED_EDGE ( 'NONE', *, *, #775, .T. ) ;
#404 = EDGE_CURVE ( 'NONE', #432, #614, #12, .T. ) ;
#405 = FACE_BOUND ( 'NONE', #1181, .T. ) ;
#406 = FACE_OUTER_BOUND ( 'NONE', #638, .T. ) ;
#407 = DIRECTION ( 'NONE',  ( -1.000000000000000000, 0.000000000000000000, 0.000000000000000000 ) ) ;
#408 = AXIS2_PLACEMENT_3D ( 'NONE', #859, #1260, #538 ) ;
#409 = ORIENTED_EDGE ( 'NONE', *, *, #26, .F. ) ;
#410 = AXIS2_PLACEMENT_3D ( 'NONE', #611, #417, #1231 ) ;
#411 = ADVANCED_FACE ( 'NONE', ( #724, #130 ), #206, .F. ) ;
#412 = DIRECTION ( 'NONE',  ( 0.000000000000000000, 1.000000000000000000, 0.000000000000000000 ) ) ;
#413 = CIRCLE ( 'NONE', #916, 1.899999999999999023 ) ;
#414 = VERTEX_POINT ( 'NONE', #809 ) ;
#415 = CIRCLE ( 'NONE', #747, 44.00000000000000000 ) ;
#416 = AXIS2_PLACEMENT_3D ( 'NONE', #171, #373, #1247 ) ;
#417 = DIRECTION ( 'NONE',  ( 0.000000000000000000, -1.000000000000000000, 0.000000000000000000 ) ) ;
#418 = PRODUCT_DEFINITION_SHAPE ( 'NONE', 'NONE',  #642 ) ;
#419 = ORIENTED_EDGE ( 'NONE', *, *, #1232, .F. ) ;
#420 = CYLINDRICAL_SURFACE ( 'NONE', #568, 1.599999999999997202 ) ;
#421 = EDGE_CURVE ( 'NONE', #725, #794, #694, .T. ) ;
#422 = DIRECTION ( 'NONE',  ( -1.000000000000000000, 0.000000000000000000, 0.000000000000000000 ) ) ;
#423 = DIRECTION ( 'NONE',  ( 0.000000000000000000, 1.000000000000000000, 0.000000000000000000 ) ) ;
#424 = VERTEX_POINT ( 'NONE', #1115 ) ;
#425 = FACE_BOUND ( 'NONE', #948, .T. ) ;
#426 = LINE ( 'NONE', #33, #816 ) ;
#427 = EDGE_CURVE ( 'NONE', #589, #391, #66, .T. ) ;
#428 = LINE ( 'NONE', #441, #1064 ) ;
#429 = CIRCLE ( 'NONE', #1042, 1.899999999999999023 ) ;
#430 = VECTOR ( 'NONE', #383, 1000.000000000000000 ) ;
#431 = CIRCLE ( 'NONE', #240, 1.750000000000000000 ) ;
#432 = VERTEX_POINT ( 'NONE', #1022 ) ;
#433 = FACE_BOUND ( 'NONE', #149, .T. ) ;
#434 = AXIS2_PLACEMENT_3D ( 'NONE', #1044, #142, #447 ) ;
#435 = DIRECTION ( 'NONE',  ( 0.000000000000000000, -1.000000000000000000, 0.000000000000000000 ) ) ;
#436 = CYLINDRICAL_SURFACE ( 'NONE', #434, 6.000000000000000000 ) ;
#437 = ADVANCED_FACE ( 'NONE', ( #118, #817, #613, #425, #714, #519, #1012, #108 ), #904, .F. ) ;
#438 = ORIENTED_EDGE ( 'NONE', *, *, #727, .F. ) ;
#439 = DIRECTION ( 'NONE',  ( 0.000000000000000000, 0.000000000000000000, -1.000000000000000000 ) ) ;
#440 = DIRECTION ( 'NONE',  ( -0.000000000000000000, -0.000000000000000000, 1.000000000000000000 ) ) ;
#441 = CARTESIAN_POINT ( 'NONE',  ( 34.39999999999999858, 140.0000000000000000, 44.00000000000000000 ) ) ;
#442 = ADVANCED_FACE ( 'NONE', ( #719 ), #1123, .F. ) ;
#443 = EDGE_CURVE ( 'NONE', #424, #1266, #4, .T. ) ;
#444 = ORIENTED_EDGE ( 'NONE', *, *, #1202, .F. ) ;
#445 = CARTESIAN_POINT ( 'NONE',  ( 43.00000000000000000, 77.00000000000000000, 0.000000000000000000 ) ) ;
#446 = DIRECTION ( 'NONE',  ( 0.000000000000000000, 0.000000000000000000, -1.000000000000000000 ) ) ;
#447 = DIRECTION ( 'NONE',  ( 0.000000000000000000, 0.000000000000000000, -1.000000000000000000 ) ) ;
#448 = DIRECTION ( 'NONE',  ( 0.000000000000000000, 1.000000000000000000, 0.000000000000000000 ) ) ;
#449 = PRODUCT ( 'ARM-002_Yaw_platform_and_shoulder_mount', 'ARM-002_Yaw_platform_and_shoulder_mount', '', ( #973 ) ) ;
#450 = ORIENTED_EDGE ( 'NONE', *, *, #219, .F. ) ;
#451 = FACE_OUTER_BOUND ( 'NONE', #85, .T. ) ;
#452 = EDGE_CURVE ( 'NONE', #1095, #1122, #338, .T. ) ;
#453 = CARTESIAN_POINT ( 'NONE',  ( -10.50000000000000000, 132.3499999999999943, 44.00000000000000000 ) ) ;
#454 = COORDINATED_UNIVERSAL_TIME_OFFSET ( 6, 0, .BEHIND. ) ;
#455 = CARTESIAN_POINT ( 'NONE',  ( -23.00000000000000000, 108.0000000000000000, 0.000000000000000000 ) ) ;
#456 = VECTOR ( 'NONE', #1085, 1000.000000000000000 ) ;
#457 = LOCAL_TIME ( 16, 17, 17.00000000000000000, #454 ) ;
#458 = ORIENTED_EDGE ( 'NONE', *, *, #806, .T. ) ;
#459 = DIRECTION ( 'NONE',  ( 0.000000000000000000, 0.000000000000000000, -1.000000000000000000 ) ) ;
#460 = EDGE_CURVE ( 'NONE', #210, #621, #730, .T. ) ;
#461 = CARTESIAN_POINT ( 'NONE',  ( -16.00000000000000000, 108.0000000000000000, 0.000000000000000000 ) ) ;
#462 =( NAMED_UNIT ( * ) SI_UNIT ( $, .STERADIAN. ) SOLID_ANGLE_UNIT ( ) );
#463 = DIRECTION ( 'NONE',  ( 0.000000000000000000, 0.000000000000000000, 1.000000000000000000 ) ) ;
#464 = ORIENTED_EDGE ( 'NONE', *, *, #313, .F. ) ;
#465 = CARTESIAN_POINT ( 'NONE',  ( 35.89999999999999858, 117.0000000000000000, 4.000000000000003553 ) ) ;
#466 = VECTOR ( 'NONE', #125, 1000.000000000000000 ) ;
#467 = FACE_OUTER_BOUND ( 'NONE', #503, .T. ) ;
#468 = PERSON_AND_ORGANIZATION ( #543, #1233 ) ;
#469 = PLANE ( 'NONE',  #764 ) ;
#470 = EDGE_CURVE ( 'NONE', #107, #251, #1156, .T. ) ;
#471 = CARTESIAN_POINT ( 'NONE',  ( 31.19999999999999929, 0.000000000000000000, 4.000000000000000000 ) ) ;
#472 = VERTEX_POINT ( 'NONE', #465 ) ;
#473 = CARTESIAN_POINT ( 'NONE',  ( 0.000000000000000000, 47.99999999999999289, 0.000000000000000000 ) ) ;
#474 = CIRCLE ( 'NONE', #998, 1.750000000000000000 ) ;
#475 = DIRECTION ( 'NONE',  ( 0.000000000000000000, 1.000000000000000000, 0.000000000000000000 ) ) ;
#476 = AXIS2_PLACEMENT_3D ( 'NONE', #45, #746, #446 ) ;
#477 = CIRCLE ( 'NONE', #34, 1.899999999999999023 ) ;
#478 = APPROVAL_ROLE ( '' ) ;
#479 = DIRECTION ( 'NONE',  ( 0.000000000000000000, 0.000000000000000000, -1.000000000000000000 ) ) ;
#480 = VECTOR ( 'NONE', #167, 1000.000000000000000 ) ;
#481 = ADVANCED_FACE ( 'NONE', ( #938 ), #562, .T. ) ;
#482 = ORIENTED_EDGE ( 'NONE', *, *, #824, .F. ) ;
#483 = AXIS2_PLACEMENT_3D ( 'NONE', #563, #1172, #668 ) ;
#484 = PLANE ( 'NONE',  #957 ) ;
#485 = CARTESIAN_POINT ( 'NONE',  ( 32.10000000000000142, 127.0000000000000000, 44.00000000000000000 ) ) ;
#486 = DATE_AND_TIME ( #778, #224 ) ;
#487 = ORIENTED_EDGE ( 'NONE', *, *, #933, .F. ) ;
#488 = ORIENTED_EDGE ( 'NONE', *, *, #421, .F. ) ;
#489 = ADVANCED_FACE ( 'NONE', ( #864 ), #742, .F. ) ;
#490 = CARTESIAN_POINT ( 'NONE',  ( 34.00000000000000000, 117.0000000000000000, 0.000000000000000000 ) ) ;
#491 = CYLINDRICAL_SURFACE ( 'NONE', #871, 1.899999999999999023 ) ;
#492 = ORIENTED_EDGE ( 'NONE', *, *, #319, .T. ) ;
#493 = DIRECTION ( 'NONE',  ( -0.000000000000000000, -1.000000000000000000, -0.000000000000000000 ) ) ;
#494 = ORIENTED_EDGE ( 'NONE', *, *, #1132, .T. ) ;
#495 = CARTESIAN_POINT ( 'NONE',  ( 34.39999999999999858, 104.0000000000000000, 4.000000000000003553 ) ) ;
#496 = LINE ( 'NONE', #802, #1272 ) ;
#497 = CC_DESIGN_PERSON_AND_ORGANIZATION_ASSIGNMENT ( #152, #52, ( #1028 ) ) ;
#498 = ORIENTED_EDGE ( 'NONE', *, *, #799, .T. ) ;
#499 = CARTESIAN_POINT ( 'NONE',  ( -16.00000000000000000, 77.00000000000000000, 0.000000000000000000 ) ) ;
#500 = ORIENTED_EDGE ( 'NONE', *, *, #1297, .T. ) ;
#501 = DIRECTION ( 'NONE',  ( -0.000000000000000000, -0.000000000000000000, 1.000000000000000000 ) ) ;
#502 = DIRECTION ( 'NONE',  ( -1.000000000000000000, 0.000000000000000000, 0.000000000000000000 ) ) ;
#503 = EDGE_LOOP ( 'NONE', ( #903, #1259, #450, #929 ) ) ;
#504 = ADVANCED_FACE ( 'NONE', ( #451 ), #751, .F. ) ;
#505 = CARTESIAN_POINT ( 'NONE',  ( 2.143131898507867804E-16, 72.00000000000000000, 1.750000000000000000 ) ) ;
#506 = EDGE_LOOP ( 'NONE', ( #181, #1200 ) ) ;
#507 = CARTESIAN_POINT ( 'NONE',  ( 0.000000000000000000, 0.000000000000000000, 4.000000000000000000 ) ) ;
#508 = VERTEX_POINT ( 'NONE', #943 ) ;
#509 = CARTESIAN_POINT ( 'NONE',  ( -16.00000000000000000, 77.00000000000000000, 4.000000000000000000 ) ) ;
#510 = APPROVAL ( #1286, 'UNSPECIFIED' ) ;
#511 = EDGE_LOOP ( 'NONE', ( #1243, #708, #624, #1234 ) ) ;
#512 = EDGE_LOOP ( 'NONE', ( #372, #49, #397, #3 ) ) ;
#513 = CARTESIAN_POINT ( 'NONE',  ( 36.00000000000000000, 104.0000000000000000, 44.00000000000000000 ) ) ;
#514 = ORIENTED_EDGE ( 'NONE', *, *, #443, .T. ) ;
#515 = CARTESIAN_POINT ( 'NONE',  ( 43.00000000000000000, 144.0000000000000000, 4.000000000000000000 ) ) ;
#516 = EDGE_CURVE ( 'NONE', #366, #10, #44, .T. ) ;
#517 = AXIS2_PLACEMENT_3D ( 'NONE', #199, #813, #890 ) ;
#518 = VERTEX_POINT ( 'NONE', #557 ) ;
#519 = FACE_BOUND ( 'NONE', #208, .T. ) ;
#520 = VECTOR ( 'NONE', #358, 1000.000000000000000 ) ;
#521 = CARTESIAN_POINT ( 'NONE',  ( 0.000000000000000000, 72.00000000000000000, 0.000000000000000000 ) ) ;
#522 = CIRCLE ( 'NONE', #582, 3.950000000000000178 ) ;
#523 = FACE_OUTER_BOUND ( 'NONE', #1192, .T. ) ;
#524 = ORIENTED_EDGE ( 'NONE', *, *, #667, .T. ) ;
#525 = DIRECTION ( 'NONE',  ( -1.000000000000000000, 0.000000000000000000, 0.000000000000000000 ) ) ;
#526 = ADVANCED_FACE ( 'NONE', ( #63 ), #735, .T. ) ;
#527 = EDGE_LOOP ( 'NONE', ( #884, #983 ) ) ;
#528 = CARTESIAN_POINT ( 'NONE',  ( 4.837354856632044071E-16, 43.00000000000000000, 3.950000000000000178 ) ) ;
#529 = AXIS2_PLACEMENT_3D ( 'NONE', #1066, #135, #545 ) ;
#530 = EDGE_LOOP ( 'NONE', ( #1117, #488, #284, #14 ) ) ;
#531 = FACE_OUTER_BOUND ( 'NONE', #226, .T. ) ;
#532 = EDGE_CURVE ( 'NONE', #379, #414, #431, .T. ) ;
#533 = ORIENTED_EDGE ( 'NONE', *, *, #84, .T. ) ;
#534 = CARTESIAN_POINT ( 'NONE',  ( -23.00000000000000000, 108.0000000000000000, 4.000000000000000000 ) ) ;
#535 = AXIS2_PLACEMENT_3D ( 'NONE', #669, #754, #946 ) ;
#536 = AXIS2_PLACEMENT_3D ( 'NONE', #302, #169, #888 ) ;
#537 = ORIENTED_EDGE ( 'NONE', *, *, #854, .F. ) ;
#538 = DIRECTION ( 'NONE',  ( 0.000000000000000000, 0.000000000000000000, 1.000000000000000000 ) ) ;
#539 = VECTOR ( 'NONE', #990, 1000.000000000000000 ) ;
#540 = DIRECTION ( 'NONE',  ( -0.000000000000000000, -0.000000000000000000, 1.000000000000000000 ) ) ;
#541 = LINE ( 'NONE', #321, #640 ) ;
#542 = EDGE_CURVE ( 'NONE', #734, #472, #637, .T. ) ;
#543 = PERSON ( 'UNSPECIFIED', 'UNSPECIFIED', 'UNSPECIFIED', ('UNSPECIFIED'), ('UNSPECIFIED'), ('UNSPECIFIED') ) ;
#544 = ORIENTED_EDGE ( 'NONE', *, *, #615, .T. ) ;
#545 = DIRECTION ( 'NONE',  ( 0.000000000000000000, -0.000000000000000000, 1.000000000000000000 ) ) ;
#546 = DIRECTION ( 'NONE',  ( 0.000000000000000000, 0.000000000000000000, -1.000000000000000000 ) ) ;
#547 = DIRECTION ( 'NONE',  ( -1.000000000000000000, 0.000000000000000000, 0.000000000000000000 ) ) ;
#548 = DIRECTION ( 'NONE',  ( 0.000000000000000000, -0.000000000000000000, 1.000000000000000000 ) ) ;
#549 = EDGE_CURVE ( 'NONE', #621, #885, #1275, .T. ) ;
#550 = EDGE_LOOP ( 'NONE', ( #986, #1130, #1198, #18, #954, #765, #665, #389 ) ) ;
#551 = CARTESIAN_POINT ( 'NONE',  ( 36.00000000000000000, 140.0000000000000000, 0.000000000000000000 ) ) ;
#552 = DIRECTION ( 'NONE',  ( 0.000000000000000000, 0.000000000000000000, 1.000000000000000000 ) ) ;
#553 = PERSON_AND_ORGANIZATION_ROLE ( 'creator' ) ;
#554 = LINE ( 'NONE', #952, #368 ) ;
#555 = CYLINDRICAL_SURFACE ( 'NONE', #1230, 1.750000000000000000 ) ;
#556 = ORIENTED_EDGE ( 'NONE', *, *, #854, .T. ) ;
#557 = CARTESIAN_POINT ( 'NONE',  ( 43.00000000000000000, 77.00000000000000000, 4.000000000000000000 ) ) ;
#558 = CARTESIAN_POINT ( 'NONE',  ( -23.00000000000000000, 77.00000000000000000, -8.000000000000000000 ) ) ;
#559 = CARTESIAN_POINT ( 'NONE',  ( -23.00000000000000000, 144.0000000000000000, 0.000000000000000000 ) ) ;
#560 = DIRECTION ( 'NONE',  ( 0.000000000000000000, 1.000000000000000000, 0.000000000000000000 ) ) ;
#561 = ORIENTED_EDGE ( 'NONE', *, *, #992, .F. ) ;
#562 = PLANE ( 'NONE',  #529 ) ;
#563 = CARTESIAN_POINT ( 'NONE',  ( 36.00000000000000000, 104.0000000000000000, 0.000000000000000000 ) ) ;
#564 = ADVANCED_FACE ( 'NONE', ( #237 ), #639, .F. ) ;
#565 = APPROVAL_DATE_TIME ( #356, #1152 ) ;
#566 = DIRECTION ( 'NONE',  ( -1.000000000000000000, 0.000000000000000000, 0.000000000000000000 ) ) ;
#567 = EDGE_LOOP ( 'NONE', ( #1107, #729, #203, #174 ) ) ;
#568 = AXIS2_PLACEMENT_3D ( 'NONE', #513, #709, #525 ) ;
#569 = CARTESIAN_POINT ( 'NONE',  ( 0.000000000000000000, 43.00000000000000000, 0.000000000000000000 ) ) ;
#570 = EDGE_CURVE ( 'NONE', #391, #589, #1045, .T. ) ;
#571 = CARTESIAN_POINT ( 'NONE',  ( -23.00000000000000000, 76.00000000000000000, 4.000000000000000000 ) ) ;
#572 = VERTEX_POINT ( 'NONE', #949 ) ;
#573 = FACE_OUTER_BOUND ( 'NONE', #792, .T. ) ;
#574 = LINE ( 'NONE', #980, #238 ) ;
#575 = COORDINATED_UNIVERSAL_TIME_OFFSET ( 6, 0, .BEHIND. ) ;
#576 = EDGE_LOOP ( 'NONE', ( #995, #630, #29, #1114 ) ) ;
#577 = VECTOR ( 'NONE', #493, 1000.000000000000000 ) ;
#578 = DIRECTION ( 'NONE',  ( -0.000000000000000000, -0.000000000000000000, 1.000000000000000000 ) ) ;
#579 = VECTOR ( 'NONE', #1100, 1000.000000000000000 ) ;
#580 = ADVANCED_FACE ( 'NONE', ( #1163 ), #1054, .T. ) ;
#581 = VERTEX_POINT ( 'NONE', #840 ) ;
#582 = AXIS2_PLACEMENT_3D ( 'NONE', #819, #1219, #1023 ) ;
#583 = LOCAL_TIME ( 16, 17, 17.00000000000000000, #575 ) ;
#584 = CARTESIAN_POINT ( 'NONE',  ( 36.00000000000000000, 140.0000000000000000, 0.000000000000000000 ) ) ;
#585 = DIRECTION ( 'NONE',  ( -0.000000000000000000, -0.000000000000000000, 1.000000000000000000 ) ) ;
#586 = EDGE_LOOP ( 'NONE', ( #1047, #1084, #789, #308 ) ) ;
#587 = CARTESIAN_POINT ( 'NONE',  ( 4.837354856632044071E-16, 72.00000000000000000, 3.950000000000000178 ) ) ;
#588 = EDGE_CURVE ( 'NONE', #1079, #518, #1240, .T. ) ;
#589 = VERTEX_POINT ( 'NONE', #343 ) ;
#590 = DIRECTION ( 'NONE',  ( -1.000000000000000000, 0.000000000000000000, 0.000000000000000000 ) ) ;
#591 = DIRECTION ( 'NONE',  ( -0.000000000000000000, -1.000000000000000000, -0.000000000000000000 ) ) ;
#592 = EDGE_LOOP ( 'NONE', ( #178, #671, #1287, #991 ) ) ;
#593 = DIRECTION ( 'NONE',  ( 0.000000000000000000, -1.000000000000000000, 0.000000000000000000 ) ) ;
#594 = EDGE_LOOP ( 'NONE', ( #1000, #695 ) ) ;
#595 = EDGE_CURVE ( 'NONE', #299, #1251, #477, .T. ) ;
#596 = LINE ( 'NONE', #86, #932 ) ;
#597 = FACE_OUTER_BOUND ( 'NONE', #586, .T. ) ;
#598 = CIRCLE ( 'NONE', #744, 1.900000000000000577 ) ;
#599 = VERTEX_POINT ( 'NONE', #265 ) ;
#600 = CIRCLE ( 'NONE', #536, 1.900000000000000577 ) ;
#601 = VECTOR ( 'NONE', #845, 1000.000000000000000 ) ;
#602 = DIRECTION ( 'NONE',  ( 0.000000000000000000, 0.000000000000000000, -1.000000000000000000 ) ) ;
#603 = AXIS2_PLACEMENT_3D ( 'NONE', #22, #423, #1225 ) ;
#604 = ORIENTED_EDGE ( 'NONE', *, *, #698, .F. ) ;
#605 = ORIENTED_EDGE ( 'NONE', *, *, #763, .T. ) ;
#606 = FACE_OUTER_BOUND ( 'NONE', #592, .T. ) ;
#607 = DIRECTION ( 'NONE',  ( 0.000000000000000000, 0.000000000000000000, 1.000000000000000000 ) ) ;
#608 = EDGE_CURVE ( 'NONE', #271, #251, #1171, .T. ) ;
#609 = ORIENTED_EDGE ( 'NONE', *, *, #212, .T. ) ;
#610 = ADVANCED_BREP_SHAPE_REPRESENTATION ( 'ARM-002_Yaw_platform_and_shoulder_mount', ( #736, #857 ), #1071 ) ;
#611 = CARTESIAN_POINT ( 'NONE',  ( 0.000000000000000000, 47.99999999999999289, 0.000000000000000000 ) ) ;
#612 = VERTEX_POINT ( 'NONE', #1270 ) ;
#613 = FACE_BOUND ( 'NONE', #231, .T. ) ;
#614 = VERTEX_POINT ( 'NONE', #47 ) ;
#615 = EDGE_CURVE ( 'NONE', #472, #734, #704, .T. ) ;
#616 = LINE ( 'NONE', #505, #577 ) ;
#617 = DIRECTION ( 'NONE',  ( 0.000000000000000000, 0.000000000000000000, -1.000000000000000000 ) ) ;
#618 = PLANE ( 'NONE',  #82 ) ;
#619 = DIRECTION ( 'NONE',  ( 0.000000000000000000, 0.000000000000000000, -1.000000000000000000 ) ) ;
#620 = ADVANCED_FACE ( 'NONE', ( #968 ), #153, .F. ) ;
#621 = VERTEX_POINT ( 'NONE', #772 ) ;
#622 = CARTESIAN_POINT ( 'NONE',  ( 0.000000000000000000, 0.000000000000000000, 0.000000000000000000 ) ) ;
#623 = VECTOR ( 'NONE', #393, 1000.000000000000000 ) ;
#624 = ORIENTED_EDGE ( 'NONE', *, *, #470, .T. ) ;
#625 = DIRECTION ( 'NONE',  ( -0.000000000000000000, -1.000000000000000000, -0.000000000000000000 ) ) ;
#626 = EDGE_LOOP ( 'NONE', ( #1041, #1029, #524, #604 ) ) ;
#627 = CARTESIAN_POINT ( 'NONE',  ( 0.000000000000000000, 77.00000000000000000, -44.00000000000000000 ) ) ;
#628 = ORIENTED_EDGE ( 'NONE', *, *, #110, .T. ) ;
#629 = PLANE ( 'NONE',  #770 ) ;
#630 = ORIENTED_EDGE ( 'NONE', *, *, #1013, .F. ) ;
#631 = DIRECTION ( 'NONE',  ( 1.000000000000000000, 0.000000000000000000, 0.000000000000000000 ) ) ;
#632 = EDGE_LOOP ( 'NONE', ( #444, #908, #605, #487 ) ) ;
#633 = EDGE_CURVE ( 'NONE', #168, #1098, #657, .T. ) ;
#634 = DIRECTION ( 'NONE',  ( 0.000000000000000000, 0.000000000000000000, -1.000000000000000000 ) ) ;
#635 = AXIS2_PLACEMENT_3D ( 'NONE', #1264, #448, #861 ) ;
#636 = AXIS2_PLACEMENT_3D ( 'NONE', #247, #846, #1246 ) ;
#637 = CIRCLE ( 'NONE', #76, 1.899999999999999023 ) ;
#638 = EDGE_LOOP ( 'NONE', ( #332, #926 ) ) ;
#639 = CYLINDRICAL_SURFACE ( 'NONE', #812, 1.899999999999999023 ) ;
#640 = VECTOR ( 'NONE', #625, 1000.000000000000000 ) ;
#641 = CARTESIAN_POINT ( 'NONE',  ( 7.347880794884119736E-16, 70.00000000000000000, 6.000000000000000000 ) ) ;
#642 = PRODUCT_DEFINITION ( 'UNKNOWN', '', #793, #913 ) ;
#643 = VECTOR ( 'NONE', #769, 1000.000000000000000 ) ;
#644 = PLANE ( 'NONE',  #241 ) ;
#645 = CARTESIAN_POINT ( 'NONE',  ( 31.19999999999999929, 111.6500000000000057, 44.00000000000000000 ) ) ;
#646 = ORIENTED_EDGE ( 'NONE', *, *, #710, .T. ) ;
#647 = CARTESIAN_POINT ( 'NONE',  ( -23.00000000000000000, 144.0000000000000000, 4.000000000000000000 ) ) ;
#648 = LINE ( 'NONE', #1261, #17 ) ;
#649 = PERSON_AND_ORGANIZATION_ROLE ( 'design_supplier' ) ;
#650 = CYLINDRICAL_SURFACE ( 'NONE', #1166, 1.900000000000000577 ) ;
#651 = EDGE_CURVE ( 'NONE', #222, #1176, #974, .T. ) ;
#652 = ORIENTED_EDGE ( 'NONE', *, *, #570, .F. ) ;
#653 = DIRECTION ( 'NONE',  ( 0.000000000000000000, 1.000000000000000000, 0.000000000000000000 ) ) ;
#654 = FACE_OUTER_BOUND ( 'NONE', #699, .T. ) ;
#655 = DATE_AND_TIME ( #753, #457 ) ;
#656 = CARTESIAN_POINT ( 'NONE',  ( 31.19999999999999929, 132.3499999999999943, 44.00000000000000000 ) ) ;
#657 = CIRCLE ( 'NONE', #635, 6.000000000000000000 ) ;
#658 = ADVANCED_FACE ( 'NONE', ( #848 ), #762, .T. ) ;
#659 = ORIENTED_EDGE ( 'NONE', *, *, #1283, .F. ) ;
#660 = CARTESIAN_POINT ( 'NONE',  ( -16.00000000000000000, 77.00000000000000000, 4.000000000000000000 ) ) ;
#661 = CYLINDRICAL_SURFACE ( 'NONE', #878, 3.950000000000000178 ) ;
#662 = CIRCLE ( 'NONE', #1213, 3.950000000000000178 ) ;
#663 = APPROVAL_ROLE ( '' ) ;
#664 = CARTESIAN_POINT ( 'NONE',  ( 34.00000000000000000, 117.0000000000000000, 4.000000000000003553 ) ) ;
#665 = ORIENTED_EDGE ( 'NONE', *, *, #26, .T. ) ;
#666 = CARTESIAN_POINT ( 'NONE',  ( 31.19999999999999929, 111.6500000000000057, 44.00000000000000000 ) ) ;
#667 = EDGE_CURVE ( 'NONE', #758, #289, #68, .T. ) ;
#668 = DIRECTION ( 'NONE',  ( -1.000000000000000000, 0.000000000000000000, 0.000000000000000000 ) ) ;
#669 = CARTESIAN_POINT ( 'NONE',  ( 36.00000000000000000, 104.0000000000000000, 0.000000000000000000 ) ) ;
#670 = DIRECTION ( 'NONE',  ( 0.000000000000000000, 0.000000000000000000, 1.000000000000000000 ) ) ;
#671 = ORIENTED_EDGE ( 'NONE', *, *, #682, .T. ) ;
#672 = CARTESIAN_POINT ( 'NONE',  ( -23.00000000000000000, 144.0000000000000000, 4.000000000000000000 ) ) ;
#673 = EDGE_CURVE ( 'NONE', #725, #186, #1174, .T. ) ;
#674 = DIRECTION ( 'NONE',  ( 0.000000000000000000, 1.000000000000000000, 0.000000000000000000 ) ) ;
#675 = ADVANCED_FACE ( 'NONE', ( #53, #1070 ), #469, .F. ) ;
#676 = EDGE_LOOP ( 'NONE', ( #296, #1053 ) ) ;
#677 = ORIENTED_EDGE ( 'NONE', *, *, #745, .F. ) ;
#678 = DIRECTION ( 'NONE',  ( 0.000000000000000000, 1.000000000000000000, 0.000000000000000000 ) ) ;
#679 = LINE ( 'NONE', #693, #201 ) ;
#680 = VERTEX_POINT ( 'NONE', #455 ) ;
#681 = VECTOR ( 'NONE', #133, 1000.000000000000000 ) ;
#682 = EDGE_CURVE ( 'NONE', #245, #107, #1051, .T. ) ;
#683 = FACE_OUTER_BOUND ( 'NONE', #134, .T. ) ;
#684 = APPLICATION_CONTEXT ( 'configuration controlled 3d designs of mechanical parts and assemblies' ) ;
#685 = ORIENTED_EDGE ( 'NONE', *, *, #1209, .F. ) ;
#686 = VECTOR ( 'NONE', #345, 1000.000000000000000 ) ;
#687 = CYLINDRICAL_SURFACE ( 'NONE', #1026, 1.899999999999999023 ) ;
#688 = DIRECTION ( 'NONE',  ( 1.000000000000000000, 0.000000000000000000, 0.000000000000000000 ) ) ;
#689 = ORIENTED_EDGE ( 'NONE', *, *, #755, .F. ) ;
#690 = DIRECTION ( 'NONE',  ( 0.000000000000000000, -1.000000000000000000, 0.000000000000000000 ) ) ;
#691 = ORIENTED_EDGE ( 'NONE', *, *, #443, .F. ) ;
#692 = DIRECTION ( 'NONE',  ( -1.000000000000000000, 0.000000000000000000, 0.000000000000000000 ) ) ;
#693 = CARTESIAN_POINT ( 'NONE',  ( 0.000000000000000000, 72.00000000000001421, -6.000000000000000000 ) ) ;
#694 = CIRCLE ( 'NONE', #1262, 3.950000000000000178 ) ;
#695 = ORIENTED_EDGE ( 'NONE', *, *, #117, .F. ) ;
#696 = CARTESIAN_POINT ( 'NONE',  ( 32.10000000000000142, 117.0000000000000000, 0.000000000000000000 ) ) ;
#697 = ORIENTED_EDGE ( 'NONE', *, *, #132, .T. ) ;
#698 = EDGE_CURVE ( 'NONE', #198, #289, #1105, .T. ) ;
#699 = EDGE_LOOP ( 'NONE', ( #1102, #1217, #821, #780 ) ) ;
#700 = DIRECTION ( 'NONE',  ( -1.000000000000000000, 0.000000000000000000, 0.000000000000000000 ) ) ;
#701 = CARTESIAN_POINT ( 'NONE',  ( 35.89999999999999858, 117.0000000000000000, 0.000000000000000000 ) ) ;
#702 = VECTOR ( 'NONE', #479, 1000.000000000000000 ) ;
#703 = ORIENTED_EDGE ( 'NONE', *, *, #117, .T. ) ;
#704 = CIRCLE ( 'NONE', #139, 1.899999999999999023 ) ;
#705 = CARTESIAN_POINT ( 'NONE',  ( 43.00000000000000000, 77.00000000000000000, 0.000000000000000000 ) ) ;
#706 = CIRCLE ( 'NONE', #851, 1.599999999999997202 ) ;
#707 = VERTEX_POINT ( 'NONE', #1077 ) ;
#708 = ORIENTED_EDGE ( 'NONE', *, *, #1040, .T. ) ;
#709 = DIRECTION ( 'NONE',  ( 0.000000000000000000, 0.000000000000000000, -1.000000000000000000 ) ) ;
#710 = EDGE_CURVE ( 'NONE', #10, #11, #172, .T. ) ;
#711 = ORIENTED_EDGE ( 'NONE', *, *, #48, .T. ) ;
#712 = CARTESIAN_POINT ( 'NONE',  ( 0.000000000000000000, 108.0000000000000000, 0.000000000000000000 ) ) ;
#713 = ORIENTED_EDGE ( 'NONE', *, *, #1238, .T. ) ;
#714 = FACE_BOUND ( 'NONE', #1008, .T. ) ;
#715 = ORIENTED_EDGE ( 'NONE', *, *, #1076, .F. ) ;
#716 = EDGE_CURVE ( 'NONE', #322, #1019, #429, .T. ) ;
#717 = DIRECTION ( 'NONE',  ( -1.000000000000000000, 0.000000000000000000, 0.000000000000000000 ) ) ;
#718 = ORIENTED_EDGE ( 'NONE', *, *, #737, .T. ) ;
#719 = FACE_OUTER_BOUND ( 'NONE', #43, .T. ) ;
#720 = ORIENTED_EDGE ( 'NONE', *, *, #818, .F. ) ;
#721 = CARTESIAN_POINT ( 'NONE',  ( -16.00000000000000000, 108.0000000000000000, -8.000000000000000000 ) ) ;
#722 = ADVANCED_FACE ( 'NONE', ( #249 ), #650, .F. ) ;
#723 = ORIENTED_EDGE ( 'NONE', *, *, #364, .F. ) ;
#724 = FACE_BOUND ( 'NONE', #329, .T. ) ;
#725 = VERTEX_POINT ( 'NONE', #1144 ) ;
#726 = CARTESIAN_POINT ( 'NONE',  ( 32.10000000000000142, 127.0000000000000000, 0.000000000000000000 ) ) ;
#727 = EDGE_CURVE ( 'NONE', #251, #1176, #243, .T. ) ;
#728 = EDGE_CURVE ( 'NONE', #835, #414, #554, .T. ) ;
#729 = ORIENTED_EDGE ( 'NONE', *, *, #364, .T. ) ;
#730 = LINE ( 'NONE', #50, #757 ) ;
#731 = ORIENTED_EDGE ( 'NONE', *, *, #549, .F. ) ;
#732 = DIRECTION ( 'NONE',  ( 0.000000000000000000, 0.000000000000000000, -1.000000000000000000 ) ) ;
#733 = VECTOR ( 'NONE', #353, 1000.000000000000000 ) ;
#734 = VERTEX_POINT ( 'NONE', #1258 ) ;
#735 = CYLINDRICAL_SURFACE ( 'NONE', #1004, 6.000000000000000000 ) ;
#736 = MANIFOLD_SOLID_BREP ( 'Upright_rib', #1216 ) ;
#737 = EDGE_CURVE ( 'NONE', #835, #924, #474, .T. ) ;
#738 = PLANE ( 'NONE',  #1043 ) ;
#739 = DIRECTION ( 'NONE',  ( 0.000000000000000000, 1.000000000000000000, 0.000000000000000000 ) ) ;
#740 = DIRECTION ( 'NONE',  ( 0.000000000000000000, 0.000000000000000000, -1.000000000000000000 ) ) ;
#741 = EDGE_LOOP ( 'NONE', ( #144, #88, #492, #236 ) ) ;
#742 = CYLINDRICAL_SURFACE ( 'NONE', #307, 1.899999999999999023 ) ;
#743 = AXIS2_PLACEMENT_3D ( 'NONE', #1137, #619, #1237 ) ;
#744 = AXIS2_PLACEMENT_3D ( 'NONE', #899, #189, #590 ) ;
#745 = EDGE_CURVE ( 'NONE', #599, #1033, #1208, .T. ) ;
#746 = DIRECTION ( 'NONE',  ( -0.000000000000000000, -1.000000000000000000, -0.000000000000000000 ) ) ;
#747 = AXIS2_PLACEMENT_3D ( 'NONE', #1164, #865, #552 ) ;
#748 = APPROVAL_DATE_TIME ( #486, #838 ) ;
#749 = CARTESIAN_POINT ( 'NONE',  ( 0.000000000000000000, 72.00000000000000000, -3.950000000000000178 ) ) ;
#750 = ORIENTED_EDGE ( 'NONE', *, *, #1127, .T. ) ;
#751 = PLANE ( 'NONE',  #872 ) ;
#752 = FACE_OUTER_BOUND ( 'NONE', #530, .T. ) ;
#753 = CALENDAR_DATE ( 2026, 7, 9 ) ;
#754 = DIRECTION ( 'NONE',  ( -0.000000000000000000, -0.000000000000000000, 1.000000000000000000 ) ) ;
#755 = EDGE_CURVE ( 'NONE', #508, #1266, #386, .T. ) ;
#756 = LINE ( 'NONE', #471, #283 ) ;
#757 = VECTOR ( 'NONE', #145, 1000.000000000000000 ) ;
#758 = VERTEX_POINT ( 'NONE', #495 ) ;
#759 = DIRECTION ( 'NONE',  ( -0.000000000000000000, -0.000000000000000000, 1.000000000000000000 ) ) ;
#760 = DIRECTION ( 'NONE',  ( 0.000000000000000000, -1.000000000000000000, 0.000000000000000000 ) ) ;
#761 = DIRECTION ( 'NONE',  ( 0.000000000000000000, 0.000000000000000000, 1.000000000000000000 ) ) ;
#762 = PLANE ( 'NONE',  #31 ) ;
#763 = EDGE_CURVE ( 'NONE', #1122, #1188, #596, .T. ) ;
#764 = AXIS2_PLACEMENT_3D ( 'NONE', #1165, #341, #548 ) ;
#765 = ORIENTED_EDGE ( 'NONE', *, *, #1003, .F. ) ;
#766 = CIRCLE ( 'NONE', #636, 6.000000000000000000 ) ;
#767 = DIRECTION ( 'NONE',  ( -0.000000000000000000, -0.000000000000000000, 1.000000000000000000 ) ) ;
#768 = VECTOR ( 'NONE', #367, 1000.000000000000000 ) ;
#769 = DIRECTION ( 'NONE',  ( 0.000000000000000000, 0.000000000000000000, -1.000000000000000000 ) ) ;
#770 = AXIS2_PLACEMENT_3D ( 'NONE', #945, #41, #330 ) ;
#771 = PERSON_AND_ORGANIZATION_ROLE ( 'design_owner' ) ;
#772 = CARTESIAN_POINT ( 'NONE',  ( 37.59999999999999432, 140.0000000000000000, 0.000000000000000000 ) ) ;
#773 = LINE ( 'NONE', #1072, #350 ) ;
#774 = VERTEX_POINT ( 'NONE', #887 ) ;
#775 = EDGE_CURVE ( 'NONE', #572, #168, #1289, .T. ) ;
#776 = DIRECTION ( 'NONE',  ( 1.000000000000000000, -0.000000000000000000, 0.000000000000000000 ) ) ;
#777 = DIRECTION ( 'NONE',  ( -0.000000000000000000, -1.000000000000000000, -0.000000000000000000 ) ) ;
#778 = CALENDAR_DATE ( 2026, 7, 9 ) ;
#779 = EDGE_LOOP ( 'NONE', ( #715, #901, #334, #1073 ) ) ;
#780 = ORIENTED_EDGE ( 'NONE', *, *, #212, .F. ) ;
#781 = DIRECTION ( 'NONE',  ( -1.000000000000000000, 0.000000000000000000, 0.000000000000000000 ) ) ;
#782 = CARTESIAN_POINT ( 'NONE',  ( 35.89999999999999858, 127.0000000000000000, 0.000000000000000000 ) ) ;
#783 = EDGE_CURVE ( 'NONE', #106, #508, #598, .T. ) ;
#784 = COORDINATED_UNIVERSAL_TIME_OFFSET ( 6, 0, .BEHIND. ) ;
#785 = ORIENTED_EDGE ( 'NONE', *, *, #460, .T. ) ;
#786 = DIRECTION ( 'NONE',  ( -0.000000000000000000, -1.000000000000000000, -0.000000000000000000 ) ) ;
#787 = CARTESIAN_POINT ( 'NONE',  ( -23.00000000000000000, 77.00000000000000000, -8.000000000000000000 ) ) ;
#788 = EDGE_CURVE ( 'NONE', #92, #1194, #1126, .T. ) ;
#789 = ORIENTED_EDGE ( 'NONE', *, *, #59, .T. ) ;
#790 = LINE ( 'NONE', #897, #981 ) ;
#791 = AXIS2_PLACEMENT_3D ( 'NONE', #979, #795, #286 ) ;
#792 = EDGE_LOOP ( 'NONE', ( #281, #1281, #691, #920 ) ) ;
#793 = PRODUCT_DEFINITION_FORMATION_WITH_SPECIFIED_SOURCE ( 'ANY', '', #449, .NOT_KNOWN. ) ;
#794 = VERTEX_POINT ( 'NONE', #873 ) ;
#795 = DIRECTION ( 'NONE',  ( -0.000000000000000000, -0.000000000000000000, 1.000000000000000000 ) ) ;
#796 = FACE_OUTER_BOUND ( 'NONE', #1138, .T. ) ;
#797 = ORIENTED_EDGE ( 'NONE', *, *, #195, .T. ) ;
#798 = DIRECTION ( 'NONE',  ( -1.000000000000000000, 0.000000000000000000, 0.000000000000000000 ) ) ;
#799 = EDGE_CURVE ( 'NONE', #210, #314, #852, .T. ) ;
#800 = EDGE_LOOP ( 'NONE', ( #659, #544, #844, #131 ) ) ;
#801 = LINE ( 'NONE', #301, #623 ) ;
#802 = CARTESIAN_POINT ( 'NONE',  ( 0.000000000000000000, 77.00000000000000000, 4.000000000000000000 ) ) ;
#803 = AXIS2_PLACEMENT_3D ( 'NONE', #925, #1218, #607 ) ;
#804 = ORIENTED_EDGE ( 'NONE', *, *, #313, .T. ) ;
#805 = PLANE ( 'NONE',  #410 ) ;
#806 = EDGE_CURVE ( 'NONE', #10, #1288, #1183, .T. ) ;
#807 = ORIENTED_EDGE ( 'NONE', *, *, #1142, .T. ) ;
#808 = ORIENTED_EDGE ( 'NONE', *, *, #879, .F. ) ;
#809 = CARTESIAN_POINT ( 'NONE',  ( 0.000000000000000000, 43.00000000000000000, -1.750000000000000000 ) ) ;
#810 = ORIENTED_EDGE ( 'NONE', *, *, #1283, .T. ) ;
#811 = VECTOR ( 'NONE', #688, 1000.000000000000000 ) ;
#812 = AXIS2_PLACEMENT_3D ( 'NONE', #232, #459, #39 ) ;
#813 = DIRECTION ( 'NONE',  ( 0.000000000000000000, 1.000000000000000000, 0.000000000000000000 ) ) ;
#814 = AXIS2_PLACEMENT_3D ( 'NONE', #509, #798, #187 ) ;
#815 = ORIENTED_EDGE ( 'NONE', *, *, #309, .T. ) ;
#816 = VECTOR ( 'NONE', #435, 1000.000000000000000 ) ;
#817 = FACE_BOUND ( 'NONE', #576, .T. ) ;
#818 = EDGE_CURVE ( 'NONE', #1079, #1095, #377, .T. ) ;
#819 = CARTESIAN_POINT ( 'NONE',  ( 0.000000000000000000, 43.00000000000000000, 0.000000000000000000 ) ) ;
#820 = CARTESIAN_POINT ( 'NONE',  ( -13.00000000000000000, 117.0000000000000000, 0.000000000000000000 ) ) ;
#821 = ORIENTED_EDGE ( 'NONE', *, *, #763, .F. ) ;
#822 = PLANE ( 'NONE',  #128 ) ;
#823 = APPLICATION_CONTEXT ( 'configuration controlled 3d designs of mechanical parts and assemblies' ) ;
#824 = EDGE_CURVE ( 'NONE', #1226, #300, #1146, .T. ) ;
#825 = ORIENTED_EDGE ( 'NONE', *, *, #909, .F. ) ;
#826 = CYLINDRICAL_SURFACE ( 'NONE', #35, 1.900000000000000577 ) ;
#827 = ORIENTED_EDGE ( 'NONE', *, *, #818, .T. ) ;
#828 = DIRECTION ( 'NONE',  ( 0.000000000000000000, -0.000000000000000000, 1.000000000000000000 ) ) ;
#829 = CARTESIAN_POINT ( 'NONE',  ( 36.00000000000000000, 104.0000000000000000, 4.000000000000003553 ) ) ;
#830 = VECTOR ( 'NONE', #269, 1000.000000000000000 ) ;
#831 = DIRECTION ( 'NONE',  ( -0.000000000000000000, -0.000000000000000000, -1.000000000000000000 ) ) ;
#832 = AXIS2_PLACEMENT_3D ( 'NONE', #934, #928, #235 ) ;
#833 = ORIENTED_EDGE ( 'NONE', *, *, #59, .F. ) ;
#834 = PLANE ( 'NONE',  #23 ) ;
#835 = VERTEX_POINT ( 'NONE', #100 ) ;
#836 = APPROVAL_PERSON_ORGANIZATION ( #280, #510, #883 ) ;
#837 = CARTESIAN_POINT ( 'NONE',  ( -16.00000000000000000, 0.000000000000000000, 0.000000000000000000 ) ) ;
#838 = APPROVAL ( #254, 'UNSPECIFIED' ) ;
#839 = ORIENTED_EDGE ( 'NONE', *, *, #132, .F. ) ;
#840 = CARTESIAN_POINT ( 'NONE',  ( 35.89999999999999858, 127.0000000000000000, 4.000000000000003553 ) ) ;
#841 = CYLINDRICAL_SURFACE ( 'NONE', #999, 3.950000000000000178 ) ;
#842 = CARTESIAN_POINT ( 'NONE',  ( 3.000000000000000000, 47.99999999999999289, 2.569533031505919496 ) ) ;
#843 = ADVANCED_FACE ( 'NONE', ( #1196 ), #687, .F. ) ;
#844 = ORIENTED_EDGE ( 'NONE', *, *, #102, .T. ) ;
#845 = DIRECTION ( 'NONE',  ( 0.000000000000000000, -0.000000000000000000, 1.000000000000000000 ) ) ;
#846 = DIRECTION ( 'NONE',  ( -0.000000000000000000, -1.000000000000000000, -0.000000000000000000 ) ) ;
#847 = CARTESIAN_POINT ( 'NONE',  ( 37.59999999999999432, 104.0000000000000000, 4.000000000000003553 ) ) ;
#848 = FACE_OUTER_BOUND ( 'NONE', #858, .T. ) ;
#849 = ORIENTED_EDGE ( 'NONE', *, *, #1209, .T. ) ;
#850 = DIRECTION ( 'NONE',  ( 0.000000000000000000, 0.000000000000000000, -1.000000000000000000 ) ) ;
#851 = AXIS2_PLACEMENT_3D ( 'NONE', #1125, #923, #717 ) ;
#852 = CIRCLE ( 'NONE', #791, 1.599999999999997202 ) ;
#853 = DIRECTION ( 'NONE',  ( -0.000000000000000000, -0.000000000000000000, 1.000000000000000000 ) ) ;
#854 = EDGE_CURVE ( 'NONE', #518, #366, #1295, .T. ) ;
#855 = CIRCLE ( 'NONE', #143, 1.899999999999999023 ) ;
#856 = DIRECTION ( 'NONE',  ( -0.000000000000000000, -1.000000000000000000, -0.000000000000000000 ) ) ;
#857 = AXIS2_PLACEMENT_3D ( 'NONE', #1269, #761, #1153 ) ;
#858 = EDGE_LOOP ( 'NONE', ( #126, #1182, #438, #5 ) ) ;
#859 = CARTESIAN_POINT ( 'NONE',  ( 0.000000000000000000, 77.00000000000000000, 0.000000000000000000 ) ) ;
#860 = PLANE ( 'NONE',  #315 ) ;
#861 = DIRECTION ( 'NONE',  ( 0.000000000000000000, 0.000000000000000000, 1.000000000000000000 ) ) ;
#862 = AXIS2_PLACEMENT_3D ( 'NONE', #197, #475, #1279 ) ;
#863 = ORIENTED_EDGE ( 'NONE', *, *, #421, .T. ) ;
#864 = FACE_OUTER_BOUND ( 'NONE', #113, .T. ) ;
#865 = DIRECTION ( 'NONE',  ( 0.000000000000000000, 1.000000000000000000, 0.000000000000000000 ) ) ;
#866 = DIRECTION ( 'NONE',  ( 0.000000000000000000, 0.000000000000000000, -1.000000000000000000 ) ) ;
#867 = DIRECTION ( 'NONE',  ( 0.000000000000000000, -0.000000000000000000, 1.000000000000000000 ) ) ;
#868 = DIRECTION ( 'NONE',  ( 0.000000000000000000, 1.000000000000000000, 0.000000000000000000 ) ) ;
#869 = EDGE_CURVE ( 'NONE', #245, #271, #801, .T. ) ;
#870 = ORIENTED_EDGE ( 'NONE', *, *, #1076, .T. ) ;
#871 = AXIS2_PLACEMENT_3D ( 'NONE', #1296, #279, #972 ) ;
#872 = AXIS2_PLACEMENT_3D ( 'NONE', #246, #1039, #252 ) ;
#873 = CARTESIAN_POINT ( 'NONE',  ( 4.837354856632044071E-16, 70.00000000000000000, 3.950000000000000178 ) ) ;
#874 = CARTESIAN_POINT ( 'NONE',  ( 0.000000000000000000, 77.00000000000000000, 0.000000000000000000 ) ) ;
#875 = VECTOR ( 'NONE', #906, 1000.000000000000000 ) ;
#876 = COORDINATED_UNIVERSAL_TIME_OFFSET ( 6, 0, .BEHIND. ) ;
#877 = DIRECTION ( 'NONE',  ( -1.000000000000000000, 0.000000000000000000, 0.000000000000000000 ) ) ;
#878 = AXIS2_PLACEMENT_3D ( 'NONE', #40, #1068, #158 ) ;
#879 = EDGE_CURVE ( 'NONE', #885, #621, #54, .T. ) ;
#880 = EDGE_LOOP ( 'NONE', ( #1229, #275 ) ) ;
#881 = CARTESIAN_POINT ( 'NONE',  ( -13.00000000000000000, 117.0000000000000000, 44.00000000000000000 ) ) ;
#882 = CARTESIAN_POINT ( 'NONE',  ( -23.00000000000000000, 108.0000000000000000, -8.000000000000000000 ) ) ;
#883 = APPROVAL_ROLE ( '' ) ;
#884 = ORIENTED_EDGE ( 'NONE', *, *, #895, .T. ) ;
#885 = VERTEX_POINT ( 'NONE', #1108 ) ;
#886 = ADVANCED_FACE ( 'NONE', ( #606 ), #484, .T. ) ;
#887 = CARTESIAN_POINT ( 'NONE',  ( 0.000000000000000000, 72.00000000000000000, -6.000000000000000000 ) ) ;
#888 = DIRECTION ( 'NONE',  ( -1.000000000000000000, 0.000000000000000000, 0.000000000000000000 ) ) ;
#889 = VERTEX_POINT ( 'NONE', #1178 ) ;
#890 = DIRECTION ( 'NONE',  ( 0.000000000000000000, 0.000000000000000000, 1.000000000000000000 ) ) ;
#891 = ORIENTED_EDGE ( 'NONE', *, *, #179, .F. ) ;
#892 = DIRECTION ( 'NONE',  ( 0.000000000000000000, 0.000000000000000000, -1.000000000000000000 ) ) ;
#893 = DIRECTION ( 'NONE',  ( -1.000000000000000000, 0.000000000000000000, 0.000000000000000000 ) ) ;
#894 = CIRCLE ( 'NONE', #328, 44.00000000000000000 ) ;
#895 = EDGE_CURVE ( 'NONE', #1251, #299, #120, .T. ) ;
#896 = ORIENTED_EDGE ( 'NONE', *, *, #207, .F. ) ;
#897 = CARTESIAN_POINT ( 'NONE',  ( -10.50000000000000000, 0.000000000000000000, -0.000000000000000000 ) ) ;
#898 = ORIENTED_EDGE ( 'NONE', *, *, #879, .T. ) ;
#899 = CARTESIAN_POINT ( 'NONE',  ( -13.00000000000000000, 117.0000000000000000, 4.000000000000003553 ) ) ;
#900 = CARTESIAN_POINT ( 'NONE',  ( 31.19999999999999929, 111.6500000000000057, 4.000000000000003553 ) ) ;
#901 = ORIENTED_EDGE ( 'NONE', *, *, #745, .T. ) ;
#902 = DIRECTION ( 'NONE',  ( -1.000000000000000000, 0.000000000000000000, 0.000000000000000000 ) ) ;
#903 = ORIENTED_EDGE ( 'NONE', *, *, #1013, .T. ) ;
#904 = PLANE ( 'NONE',  #970 ) ;
#905 = ORIENTED_EDGE ( 'NONE', *, *, #91, .F. ) ;
#906 = DIRECTION ( 'NONE',  ( 0.000000000000000000, 0.000000000000000000, -1.000000000000000000 ) ) ;
#907 = ADVANCED_FACE ( 'NONE', ( #573 ), #80, .F. ) ;
#908 = ORIENTED_EDGE ( 'NONE', *, *, #452, .T. ) ;
#909 = EDGE_CURVE ( 'NONE', #1019, #322, #413, .T. ) ;
#910 = ORIENTED_EDGE ( 'NONE', *, *, #633, .T. ) ;
#911 = FACE_BOUND ( 'NONE', #506, .T. ) ;
#912 = DIRECTION ( 'NONE',  ( 0.000000000000000000, -0.000000000000000000, 1.000000000000000000 ) ) ;
#913 = DESIGN_CONTEXT ( 'detailed design', #823, 'design' ) ;
#914 = DIRECTION ( 'NONE',  ( -0.000000000000000000, -0.000000000000000000, -1.000000000000000000 ) ) ;
#915 = AXIS2_PLACEMENT_3D ( 'NONE', #105, #690, #1103 ) ;
#916 = AXIS2_PLACEMENT_3D ( 'NONE', #490, #578, #282 ) ;
#917 = CC_DESIGN_PERSON_AND_ORGANIZATION_ASSIGNMENT ( #1069, #348, ( #642 ) ) ;
#918 = AXIS2_PLACEMENT_3D ( 'NONE', #1268, #853, #259 ) ;
#919 = CC_DESIGN_SECURITY_CLASSIFICATION ( #1028, ( #793 ) ) ;
#920 = ORIENTED_EDGE ( 'NONE', *, *, #48, .F. ) ;
#921 = DIRECTION ( 'NONE',  ( 0.000000000000000000, 1.000000000000000000, 0.000000000000000000 ) ) ;
#922 = DIRECTION ( 'NONE',  ( -0.000000000000000000, -1.000000000000000000, -0.000000000000000000 ) ) ;
#923 = DIRECTION ( 'NONE',  ( -0.000000000000000000, -0.000000000000000000, 1.000000000000000000 ) ) ;
#924 = VERTEX_POINT ( 'NONE', #985 ) ;
#925 = CARTESIAN_POINT ( 'NONE',  ( 0.000000000000000000, 77.00000000000000000, 0.000000000000000000 ) ) ;
#926 = ORIENTED_EDGE ( 'NONE', *, *, #427, .T. ) ;
#927 = AXIS2_PLACEMENT_3D ( 'NONE', #1129, #1018, #114 ) ;
#928 = DIRECTION ( 'NONE',  ( -0.000000000000000000, -0.000000000000000000, 1.000000000000000000 ) ) ;
#929 = ORIENTED_EDGE ( 'NONE', *, *, #651, .F. ) ;
#930 = DIRECTION ( 'NONE',  ( -1.000000000000000000, 0.000000000000000000, -0.000000000000000000 ) ) ;
#931 = DIRECTION ( 'NONE',  ( -0.000000000000000000, -0.000000000000000000, 1.000000000000000000 ) ) ;
#932 = VECTOR ( 'NONE', #175, 1000.000000000000000 ) ;
#933 = EDGE_CURVE ( 'NONE', #83, #1188, #773, .T. ) ;
#934 = CARTESIAN_POINT ( 'NONE',  ( -13.00000000000000000, 127.0000000000000000, 4.000000000000003553 ) ) ;
#935 = VECTOR ( 'NONE', #964, 1000.000000000000000 ) ;
#936 = CIRCLE ( 'NONE', #416, 1.900000000000000577 ) ;
#937 = VERTEX_POINT ( 'NONE', #1058 ) ;
#938 = FACE_OUTER_BOUND ( 'NONE', #512, .T. ) ;
#939 = CARTESIAN_POINT ( 'NONE',  ( 34.00000000000000000, 127.0000000000000000, 4.000000000000003553 ) ) ;
#940 = FACE_OUTER_BOUND ( 'NONE', #1031, .T. ) ;
#941 = EDGE_CURVE ( 'NONE', #11, #24, #976, .T. ) ;
#942 = ORIENTED_EDGE ( 'NONE', *, *, #895, .F. ) ;
#943 = CARTESIAN_POINT ( 'NONE',  ( -11.09999999999999787, 117.0000000000000000, 4.000000000000003553 ) ) ;
#944 = DIRECTION ( 'NONE',  ( -0.000000000000000000, -1.000000000000000000, -0.000000000000000000 ) ) ;
#945 = CARTESIAN_POINT ( 'NONE',  ( -23.00000000000000000, 76.00000000000000000, 4.000000000000000000 ) ) ;
#946 = DIRECTION ( 'NONE',  ( -1.000000000000000000, 0.000000000000000000, 0.000000000000000000 ) ) ;
#947 = ADVANCED_FACE ( 'NONE', ( #969 ), #555, .F. ) ;
#948 = EDGE_LOOP ( 'NONE', ( #194, #839 ) ) ;
#949 = CARTESIAN_POINT ( 'NONE',  ( 7.347880794884119736E-16, 72.00000000000000000, 6.000000000000000000 ) ) ;
#950 = DIRECTION ( 'NONE',  ( -1.000000000000000000, 0.000000000000000000, 0.000000000000000000 ) ) ;
#951 = PERSON_AND_ORGANIZATION ( #543, #1233 ) ;
#952 = CARTESIAN_POINT ( 'NONE',  ( 0.000000000000000000, 72.00000000000000000, -1.750000000000000000 ) ) ;
#953 = DIRECTION ( 'NONE',  ( -0.000000000000000000, -1.000000000000000000, -0.000000000000000000 ) ) ;
#954 = ORIENTED_EDGE ( 'NONE', *, *, #788, .F. ) ;
#955 = CARTESIAN_POINT ( 'NONE',  ( 34.00000000000000000, 117.0000000000000000, 4.000000000000003553 ) ) ;
#956 = CC_DESIGN_PERSON_AND_ORGANIZATION_ASSIGNMENT ( #248, #649, ( #793 ) ) ;
#957 = AXIS2_PLACEMENT_3D ( 'NONE', #1011, #776, #1284 ) ;
#958 = LINE ( 'NONE', #165, #643 ) ;
#959 =( NAMED_UNIT ( * ) PLANE_ANGLE_UNIT ( ) SI_UNIT ( $, .RADIAN. ) );
#960 = CARTESIAN_POINT ( 'NONE',  ( -10.50000000000000000, 111.6500000000000057, 44.00000000000000000 ) ) ;
#961 = LOCAL_TIME ( 16, 17, 17.00000000000000000, #784 ) ;
#962 = CARTESIAN_POINT ( 'NONE',  ( 0.000000000000000000, 43.00000000000000000, 0.000000000000000000 ) ) ;
#963 = ORIENTED_EDGE ( 'NONE', *, *, #225, .T. ) ;
#964 = DIRECTION ( 'NONE',  ( -1.000000000000000000, -0.000000000000000000, -0.000000000000000000 ) ) ;
#965 = EDGE_CURVE ( 'NONE', #1221, #198, #162, .T. ) ;
#966 = CARTESIAN_POINT ( 'NONE',  ( -14.90000000000000036, 117.0000000000000000, 4.000000000000003553 ) ) ;
#967 = EDGE_CURVE ( 'NONE', #391, #109, #365, .T. ) ;
#968 = FACE_OUTER_BOUND ( 'NONE', #220, .T. ) ;
#969 = FACE_OUTER_BOUND ( 'NONE', #55, .T. ) ;
#970 = AXIS2_PLACEMENT_3D ( 'NONE', #507, #1212, #1222 ) ;
#971 = ORIENTED_EDGE ( 'NONE', *, *, #266, .F. ) ;
#972 = DIRECTION ( 'NONE',  ( -1.000000000000000000, 0.000000000000000000, 0.000000000000000000 ) ) ;
#973 = MECHANICAL_CONTEXT ( 'NONE', #684, 'mechanical' ) ;
#974 = LINE ( 'NONE', #656, #830 ) ;
#975 = EDGE_CURVE ( 'NONE', #271, #222, #756, .T. ) ;
#976 = LINE ( 'NONE', #154, #520 ) ;
#977 = ORIENTED_EDGE ( 'NONE', *, *, #516, .F. ) ;
#978 = CIRCLE ( 'NONE', #260, 1.750000000000000000 ) ;
#979 = CARTESIAN_POINT ( 'NONE',  ( 36.00000000000000000, 140.0000000000000000, 4.000000000000003553 ) ) ;
#980 = CARTESIAN_POINT ( 'NONE',  ( 0.000000000000000000, 132.3499999999999943, 0.000000000000000000 ) ) ;
#981 = VECTOR ( 'NONE', #593, 1000.000000000000000 ) ;
#982 = DATE_TIME_ROLE ( 'creation_date' ) ;
#983 = ORIENTED_EDGE ( 'NONE', *, *, #595, .T. ) ;
#984 = CIRCLE ( 'NONE', #483, 1.599999999999997202 ) ;
#985 = CARTESIAN_POINT ( 'NONE',  ( 2.143131898507867804E-16, 72.00000000000000000, 1.750000000000000000 ) ) ;
#986 = ORIENTED_EDGE ( 'NONE', *, *, #336, .F. ) ;
#987 = DIRECTION ( 'NONE',  ( -0.000000000000000000, -0.000000000000000000, 1.000000000000000000 ) ) ;
#988 = DIRECTION ( 'NONE',  ( 0.000000000000000000, 0.000000000000000000, -1.000000000000000000 ) ) ;
#989 = ORIENTED_EDGE ( 'NONE', *, *, #84, .F. ) ;
#990 = DIRECTION ( 'NONE',  ( -0.000000000000000000, -1.000000000000000000, -0.000000000000000000 ) ) ;
#991 = ORIENTED_EDGE ( 'NONE', *, *, #404, .F. ) ;
#992 = EDGE_CURVE ( 'NONE', #186, #1226, #662, .T. ) ;
#993 = CARTESIAN_POINT ( 'NONE',  ( 0.000000000000000000, 77.00000000000000000, 0.000000000000000000 ) ) ;
#994 = CARTESIAN_POINT ( 'NONE',  ( 3.000000000000000000, 43.00000000000000000, 2.569533031505919496 ) ) ;
#995 = ORIENTED_EDGE ( 'NONE', *, *, #2, .F. ) ;
#996 = DIRECTION ( 'NONE',  ( 0.000000000000000000, 0.000000000000000000, -1.000000000000000000 ) ) ;
#997 = ORIENTED_EDGE ( 'NONE', *, *, #266, .T. ) ;
#998 = AXIS2_PLACEMENT_3D ( 'NONE', #1159, #560, #463 ) ;
#999 = AXIS2_PLACEMENT_3D ( 'NONE', #1241, #944, #1151 ) ;
#1000 = ORIENTED_EDGE ( 'NONE', *, *, #788, .T. ) ;
#1001 = CARTESIAN_POINT ( 'NONE',  ( -13.00000000000000000, 127.0000000000000000, 4.000000000000003553 ) ) ;
#1002 = CARTESIAN_POINT ( 'NONE',  ( -13.00000000000000000, 127.0000000000000000, 0.000000000000000000 ) ) ;
#1003 = EDGE_CURVE ( 'NONE', #889, #92, #1078, .T. ) ;
#1004 = AXIS2_PLACEMENT_3D ( 'NONE', #157, #1139, #850 ) ;
#1005 = CIRCLE ( 'NONE', #517, 6.000000000000000000 ) ;
#1006 = ORIENTED_EDGE ( 'NONE', *, *, #291, .T. ) ;
#1007 = PLANE ( 'NONE',  #814 ) ;
#1008 = EDGE_LOOP ( 'NONE', ( #398, #376 ) ) ;
#1009 = CC_DESIGN_APPROVAL ( #510, ( #1028 ) ) ;
#1010 = ORIENTED_EDGE ( 'NONE', *, *, #336, .T. ) ;
#1011 = CARTESIAN_POINT ( 'NONE',  ( -10.50000000000000000, 111.6500000000000057, 44.00000000000000000 ) ) ;
#1012 = FACE_BOUND ( 'NONE', #880, .T. ) ;
#1013 = EDGE_CURVE ( 'NONE', #222, #432, #111, .T. ) ;
#1014 = EDGE_LOOP ( 'NONE', ( #217, #419 ) ) ;
#1015 = ADVANCED_FACE ( 'NONE', ( #683 ), #1090, .F. ) ;
#1016 = CARTESIAN_POINT ( 'NONE',  ( 0.000000000000000000, 132.3499999999999943, 4.000000000000000000 ) ) ;
#1017 = ORIENTED_EDGE ( 'NONE', *, *, #452, .F. ) ;
#1018 = DIRECTION ( 'NONE',  ( -0.000000000000000000, -0.000000000000000000, 1.000000000000000000 ) ) ;
#1019 = VERTEX_POINT ( 'NONE', #696 ) ;
#1020 = LINE ( 'NONE', #116, #875 ) ;
#1021 = ADVANCED_FACE ( 'NONE', ( #1206 ), #1007, .F. ) ;
#1022 = CARTESIAN_POINT ( 'NONE',  ( -10.50000000000000000, 132.3499999999999943, 4.000000000000003553 ) ) ;
#1023 = DIRECTION ( 'NONE',  ( 0.000000000000000000, 0.000000000000000000, 1.000000000000000000 ) ) ;
#1024 = FACE_OUTER_BOUND ( 'NONE', #293, .T. ) ;
#1025 = AXIS2_PLACEMENT_3D ( 'NONE', #298, #996, #96 ) ;
#1026 = AXIS2_PLACEMENT_3D ( 'NONE', #1203, #892, #692 ) ;
#1027 = EDGE_CURVE ( 'NONE', #794, #1226, #1096, .T. ) ;
#1028 = SECURITY_CLASSIFICATION ( '', '', #1056 ) ;
#1029 = ORIENTED_EDGE ( 'NONE', *, *, #1232, .T. ) ;
#1030 = CARTESIAN_POINT ( 'NONE',  ( 0.000000000000000000, 70.00000000000000000, 0.000000000000000000 ) ) ;
#1031 = EDGE_LOOP ( 'NONE', ( #303, #1223, #458, #1301, #1092, #797 ) ) ;
#1032 = CARTESIAN_POINT ( 'NONE',  ( 43.00000000000000000, 76.00000000000000000, 0.000000000000000000 ) ) ;
#1033 = VERTEX_POINT ( 'NONE', #1199 ) ;
#1034 = DIRECTION ( 'NONE',  ( -1.000000000000000000, 0.000000000000000000, 0.000000000000000000 ) ) ;
#1035 = EDGE_CURVE ( 'NONE', #83, #680, #215, .T. ) ;
#1036 = ORIENTED_EDGE ( 'NONE', *, *, #516, .T. ) ;
#1037 = LINE ( 'NONE', #1032, #180 ) ;
#1038 = ORIENTED_EDGE ( 'NONE', *, *, #588, .T. ) ;
#1039 = DIRECTION ( 'NONE',  ( 0.000000000000000000, -1.000000000000000000, 0.000000000000000000 ) ) ;
#1040 = EDGE_CURVE ( 'NONE', #614, #107, #790, .T. ) ;
#1041 = ORIENTED_EDGE ( 'NONE', *, *, #965, .F. ) ;
#1042 = AXIS2_PLACEMENT_3D ( 'NONE', #72, #160, #877 ) ;
#1043 = AXIS2_PLACEMENT_3D ( 'NONE', #1141, #546, #239 ) ;
#1044 = CARTESIAN_POINT ( 'NONE',  ( 0.000000000000000000, 72.00000000000001421, 0.000000000000000000 ) ) ;
#1045 = CIRCLE ( 'NONE', #408, 44.00000000000000000 ) ;
#1046 = CIRCLE ( 'NONE', #1145, 1.899999999999999023 ) ;
#1047 = ORIENTED_EDGE ( 'NONE', *, *, #427, .F. ) ;
#1048 = DIRECTION ( 'NONE',  ( 0.000000000000000000, 0.000000000000000000, -1.000000000000000000 ) ) ;
#1049 = FACE_OUTER_BOUND ( 'NONE', #567, .T. ) ;
#1050 = CARTESIAN_POINT ( 'NONE',  ( -13.00000000000000000, 117.0000000000000000, 44.00000000000000000 ) ) ;
#1051 = LINE ( 'NONE', #960, #258 ) ;
#1052 = EDGE_CURVE ( 'NONE', #924, #379, #616, .T. ) ;
#1053 = ORIENTED_EDGE ( 'NONE', *, *, #698, .T. ) ;
#1054 = CYLINDRICAL_SURFACE ( 'NONE', #1168, 44.00000000000000000 ) ;
#1055 = CARTESIAN_POINT ( 'NONE',  ( -10.50000000000000000, 111.6500000000000057, 0.000000000000000000 ) ) ;
#1056 = SECURITY_CLASSIFICATION_LEVEL ( 'unclassified' ) ;
#1057 = DIRECTION ( 'NONE',  ( 0.000000000000000000, 1.000000000000000000, 0.000000000000000000 ) ) ;
#1058 = CARTESIAN_POINT ( 'NONE',  ( 5.388445916248353619E-15, 72.00000000000000000, 44.00000000000000000 ) ) ;
#1059 = EDGE_CURVE ( 'NONE', #1266, #424, #1276, .T. ) ;
#1060 = ORIENTED_EDGE ( 'NONE', *, *, #965, .T. ) ;
#1061 = DIRECTION ( 'NONE',  ( 0.000000000000000000, 0.000000000000000000, 1.000000000000000000 ) ) ;
#1062 = LINE ( 'NONE', #558, #430 ) ;
#1063 = DIRECTION ( 'NONE',  ( -1.000000000000000000, 0.000000000000000000, 0.000000000000000000 ) ) ;
#1064 = VECTOR ( 'NONE', #634, 1000.000000000000000 ) ;
#1065 = ORIENTED_EDGE ( 'NONE', *, *, #1185, .F. ) ;
#1066 = CARTESIAN_POINT ( 'NONE',  ( -10.50000000000000000, 111.6500000000000057, 44.00000000000000000 ) ) ;
#1067 = DATE_AND_TIME ( #1186, #961 ) ;
#1068 = DIRECTION ( 'NONE',  ( -0.000000000000000000, -1.000000000000000000, -0.000000000000000000 ) ) ;
#1069 = PERSON_AND_ORGANIZATION ( #543, #1233 ) ;
#1070 = FACE_BOUND ( 'NONE', #1236, .T. ) ;
#1071 =( GEOMETRIC_REPRESENTATION_CONTEXT ( 3 ) GLOBAL_UNCERTAINTY_ASSIGNED_CONTEXT ( ( #276 ) ) GLOBAL_UNIT_ASSIGNED_CONTEXT ( ( #1263, #959, #462 ) ) REPRESENTATION_CONTEXT ( 'NONE', 'WORKASPACE' ) );
#1072 = CARTESIAN_POINT ( 'NONE',  ( -16.00000000000000000, 108.0000000000000000, 4.000000000000000000 ) ) ;
#1073 = ORIENTED_EDGE ( 'NONE', *, *, #309, .F. ) ;
#1074 = DIRECTION ( 'NONE',  ( -1.000000000000000000, 0.000000000000000000, 0.000000000000000000 ) ) ;
#1075 = CARTESIAN_POINT ( 'NONE',  ( 3.000000000000000000, 47.99999999999999289, 5.000000000000000000 ) ) ;
#1076 = EDGE_CURVE ( 'NONE', #599, #1170, #1020, .T. ) ;
#1077 = CARTESIAN_POINT ( 'NONE',  ( -14.90000000000000036, 127.0000000000000000, 0.000000000000000000 ) ) ;
#1078 = LINE ( 'NONE', #75, #99 ) ;
#1079 = VERTEX_POINT ( 'NONE', #705 ) ;
#1080 = DIRECTION ( 'NONE',  ( -1.000000000000000000, 0.000000000000000000, 0.000000000000000000 ) ) ;
#1081 = CARTESIAN_POINT ( 'NONE',  ( -10.50000000000000000, 111.6500000000000057, 4.000000000000003553 ) ) ;
#1082 = EDGE_CURVE ( 'NONE', #1033, #707, #390, .T. ) ;
#1083 = ORIENTED_EDGE ( 'NONE', *, *, #595, .F. ) ;
#1084 = ORIENTED_EDGE ( 'NONE', *, *, #331, .T. ) ;
#1085 = DIRECTION ( 'NONE',  ( -0.000000000000000000, -0.000000000000000000, -1.000000000000000000 ) ) ;
#1086 = DIRECTION ( 'NONE',  ( -0.000000000000000000, -1.000000000000000000, -0.000000000000000000 ) ) ;
#1087 = VECTOR ( 'NONE', #1118, 1000.000000000000000 ) ;
#1088 = ORIENTED_EDGE ( 'NONE', *, *, #331, .F. ) ;
#1089 = VECTOR ( 'NONE', #51, 1000.000000000000000 ) ;
#1090 = PLANE ( 'NONE',  #915 ) ;
#1091 = ADVANCED_FACE ( 'NONE', ( #316 ), #402, .F. ) ;
#1092 = ORIENTED_EDGE ( 'NONE', *, *, #1224, .T. ) ;
#1093 = CARTESIAN_POINT ( 'NONE',  ( 7.347880794884119736E-16, 72.00000000000001421, 6.000000000000000000 ) ) ;
#1094 = CARTESIAN_POINT ( 'NONE',  ( -23.00000000000000000, 108.0000000000000000, -8.000000000000000000 ) ) ;
#1095 = VERTEX_POINT ( 'NONE', #499 ) ;
#1096 = LINE ( 'NONE', #587, #539 ) ;
#1097 = CC_DESIGN_DATE_AND_TIME_ASSIGNMENT ( #71, #982, ( #642 ) ) ;
#1098 = VERTEX_POINT ( 'NONE', #8 ) ;
#1099 = AXIS2_PLACEMENT_3D ( 'NONE', #273, #674, #227 ) ;
#1100 = DIRECTION ( 'NONE',  ( 0.000000000000000000, 1.000000000000000000, 0.000000000000000000 ) ) ;
#1101 = CARTESIAN_POINT ( 'NONE',  ( 5.388445916248353619E-15, 77.00000000000000000, 44.00000000000000000 ) ) ;
#1102 = ORIENTED_EDGE ( 'NONE', *, *, #195, .F. ) ;
#1103 = DIRECTION ( 'NONE',  ( 0.000000000000000000, -0.000000000000000000, -1.000000000000000000 ) ) ;
#1104 = ORIENTED_EDGE ( 'NONE', *, *, #549, .T. ) ;
#1105 = CIRCLE ( 'NONE', #535, 1.599999999999997202 ) ;
#1106 = VECTOR ( 'NONE', #1290, 1000.000000000000000 ) ;
#1107 = ORIENTED_EDGE ( 'NONE', *, *, #1052, .F. ) ;
#1108 = CARTESIAN_POINT ( 'NONE',  ( 34.39999999999999858, 140.0000000000000000, 0.000000000000000000 ) ) ;
#1109 = FACE_BOUND ( 'NONE', #676, .T. ) ;
#1110 = EDGE_CURVE ( 'NONE', #1098, #168, #1005, .T. ) ;
#1111 = VECTOR ( 'NONE', #914, 1000.000000000000000 ) ;
#1112 = EDGE_LOOP ( 'NONE', ( #188, #498, #1300, #731 ) ) ;
#1113 = CARTESIAN_POINT ( 'NONE',  ( 36.00000000000000000, 104.0000000000000000, 44.00000000000000000 ) ) ;
#1114 = ORIENTED_EDGE ( 'NONE', *, *, #869, .F. ) ;
#1115 = CARTESIAN_POINT ( 'NONE',  ( -14.90000000000000036, 117.0000000000000000, 0.000000000000000000 ) ) ;
#1116 = ADVANCED_FACE ( 'NONE', ( #1299 ), #396, .F. ) ;
#1117 = ORIENTED_EDGE ( 'NONE', *, *, #1027, .F. ) ;
#1118 = DIRECTION ( 'NONE',  ( -1.000000000000000000, 0.000000000000000000, 0.000000000000000000 ) ) ;
#1119 = FACE_BOUND ( 'NONE', #256, .T. ) ;
#1120 = ORIENTED_EDGE ( 'NONE', *, *, #1059, .F. ) ;
#1121 = FACE_OUTER_BOUND ( 'NONE', #191, .T. ) ;
#1122 = VERTEX_POINT ( 'NONE', #1220 ) ;
#1123 = CYLINDRICAL_SURFACE ( 'NONE', #361, 1.900000000000000577 ) ;
#1124 = CARTESIAN_POINT ( 'NONE',  ( -23.00000000000000000, 144.0000000000000000, 4.000000000000000000 ) ) ;
#1125 = CARTESIAN_POINT ( 'NONE',  ( 36.00000000000000000, 104.0000000000000000, 4.000000000000003553 ) ) ;
#1126 = CIRCLE ( 'NONE', #1250, 3.950000000000000178 ) ;
#1127 = EDGE_CURVE ( 'NONE', #1282, #581, #1046, .T. ) ;
#1128 = ORIENTED_EDGE ( 'NONE', *, *, #1082, .F. ) ;
#1129 = CARTESIAN_POINT ( 'NONE',  ( -13.00000000000000000, 117.0000000000000000, 0.000000000000000000 ) ) ;
#1130 = ORIENTED_EDGE ( 'NONE', *, *, #1027, .T. ) ;
#1131 = FACE_OUTER_BOUND ( 'NONE', #385, .T. ) ;
#1132 = EDGE_CURVE ( 'NONE', #366, #612, #1, .T. ) ;
#1133 = EDGE_LOOP ( 'NONE', ( #409, #326, #482, #561 ) ) ;
#1134 = DIRECTION ( 'NONE',  ( -1.000000000000000000, 0.000000000000000000, 0.000000000000000000 ) ) ;
#1135 = CARTESIAN_POINT ( 'NONE',  ( -23.00000000000000000, 77.00000000000000000, 4.000000000000000000 ) ) ;
#1136 = CIRCLE ( 'NONE', #1099, 1.750000000000000000 ) ;
#1137 = CARTESIAN_POINT ( 'NONE',  ( 36.00000000000000000, 140.0000000000000000, 44.00000000000000000 ) ) ;
#1138 = EDGE_LOOP ( 'NONE', ( #989, #697, #129, #1083 ) ) ;
#1139 = DIRECTION ( 'NONE',  ( -0.000000000000000000, -1.000000000000000000, -0.000000000000000000 ) ) ;
#1140 = ADVANCED_FACE ( 'NONE', ( #16 ), #805, .T. ) ;
#1141 = CARTESIAN_POINT ( 'NONE',  ( 0.000000000000000000, 0.000000000000000000, -8.000000000000000000 ) ) ;
#1142 = EDGE_CURVE ( 'NONE', #109, #937, #894, .T. ) ;
#1143 = DIRECTION ( 'NONE',  ( 1.000000000000000000, 0.000000000000000000, 0.000000000000000000 ) ) ;
#1144 = CARTESIAN_POINT ( 'NONE',  ( 0.000000000000000000, 70.00000000000000000, -3.950000000000000178 ) ) ;
#1145 = AXIS2_PLACEMENT_3D ( 'NONE', #1215, #209, #902 ) ;
#1146 = CIRCLE ( 'NONE', #1191, 3.950000000000000178 ) ;
#1147 = ORIENTED_EDGE ( 'NONE', *, *, #737, .F. ) ;
#1148 = CARTESIAN_POINT ( 'NONE',  ( 34.00000000000000000, 127.0000000000000000, 0.000000000000000000 ) ) ;
#1149 = CIRCLE ( 'NONE', #244, 1.599999999999997202 ) ;
#1150 = LOCAL_TIME ( 16, 17, 17.00000000000000000, #1280 ) ;
#1151 = DIRECTION ( 'NONE',  ( 0.000000000000000000, 0.000000000000000000, -1.000000000000000000 ) ) ;
#1152 = APPROVAL ( #261, 'UNSPECIFIED' ) ;
#1153 = DIRECTION ( 'NONE',  ( 1.000000000000000000, 0.000000000000000000, 0.000000000000000000 ) ) ;
#1154 = DIRECTION ( 'NONE',  ( 0.000000000000000000, 0.000000000000000000, -1.000000000000000000 ) ) ;
#1155 = ORIENTED_EDGE ( 'NONE', *, *, #37, .T. ) ;
#1156 = LINE ( 'NONE', #1244, #192 ) ;
#1157 = CARTESIAN_POINT ( 'NONE',  ( 3.000000000000000000, 47.99999999999999289, -2.569533031505919496 ) ) ;
#1158 = CARTESIAN_POINT ( 'NONE',  ( 35.89999999999999858, 117.0000000000000000, 44.00000000000000000 ) ) ;
#1159 = CARTESIAN_POINT ( 'NONE',  ( 0.000000000000000000, 72.00000000000000000, 0.000000000000000000 ) ) ;
#1160 = ADVANCED_FACE ( 'NONE', ( #1024 ), #644, .T. ) ;
#1161 = DIRECTION ( 'NONE',  ( 0.000000000000000000, 1.000000000000000000, 0.000000000000000000 ) ) ;
#1162 = EDGE_LOOP ( 'NONE', ( #317, #1060, #905, #90 ) ) ;
#1163 = FACE_OUTER_BOUND ( 'NONE', #163, .T. ) ;
#1164 = CARTESIAN_POINT ( 'NONE',  ( 0.000000000000000000, 72.00000000000000000, 0.000000000000000000 ) ) ;
#1165 = CARTESIAN_POINT ( 'NONE',  ( 0.000000000000000000, 43.00000000000000000, 0.000000000000000000 ) ) ;
#1166 = AXIS2_PLACEMENT_3D ( 'NONE', #357, #740, #1063 ) ;
#1167 = DIRECTION ( 'NONE',  ( 0.000000000000000000, 0.000000000000000000, -1.000000000000000000 ) ) ;
#1168 = AXIS2_PLACEMENT_3D ( 'NONE', #360, #257, #439 ) ;
#1169 = ADVANCED_FACE ( 'NONE', ( #523 ), #1242, .F. ) ;
#1170 = VERTEX_POINT ( 'NONE', #325 ) ;
#1171 = LINE ( 'NONE', #666, #768 ) ;
#1172 = DIRECTION ( 'NONE',  ( -0.000000000000000000, -0.000000000000000000, 1.000000000000000000 ) ) ;
#1173 = CALENDAR_DATE ( 2026, 7, 9 ) ;
#1174 = LINE ( 'NONE', #749, #1271 ) ;
#1175 = CARTESIAN_POINT ( 'NONE',  ( 0.000000000000000000, 72.00000000000000000, 0.000000000000000000 ) ) ;
#1176 = VERTEX_POINT ( 'NONE', #229 ) ;
#1177 = ADVANCED_FACE ( 'NONE', ( #940 ), #629, .F. ) ;
#1178 = CARTESIAN_POINT ( 'NONE',  ( 3.000000000000000000, 43.00000000000000000, -2.569533031505919052 ) ) ;
#1179 = DIRECTION ( 'NONE',  ( 0.000000000000000000, 0.000000000000000000, -1.000000000000000000 ) ) ;
#1180 = APPLICATION_PROTOCOL_DEFINITION ( 'international standard', 'config_control_design', 1994, #684 ) ;
#1181 = EDGE_LOOP ( 'NONE', ( #514, #1292 ) ) ;
#1182 = ORIENTED_EDGE ( 'NONE', *, *, #651, .T. ) ;
#1183 = LINE ( 'NONE', #672, #456 ) ;
#1184 = DIRECTION ( 'NONE',  ( 0.000000000000000000, 1.000000000000000000, 0.000000000000000000 ) ) ;
#1185 = EDGE_CURVE ( 'NONE', #1288, #680, #541, .T. ) ;
#1186 = CALENDAR_DATE ( 2026, 7, 9 ) ;
#1187 = ORIENTED_EDGE ( 'NONE', *, *, #73, .T. ) ;
#1188 = VERTEX_POINT ( 'NONE', #721 ) ;
#1189 = DIRECTION ( 'NONE',  ( 0.000000000000000000, 0.000000000000000000, -1.000000000000000000 ) ) ;
#1190 = CARTESIAN_POINT ( 'NONE',  ( 37.59999999999999432, 140.0000000000000000, 4.000000000000003553 ) ) ;
#1191 = AXIS2_PLACEMENT_3D ( 'NONE', #294, #678, #205 ) ;
#1192 = EDGE_LOOP ( 'NONE', ( #1187, #785, #808, #311 ) ) ;
#1193 = DIRECTION ( 'NONE',  ( -1.000000000000000000, 0.000000000000000000, 0.000000000000000000 ) ) ;
#1194 = VERTEX_POINT ( 'NONE', #842 ) ;
#1195 = ORIENTED_EDGE ( 'NONE', *, *, #319, .F. ) ;
#1196 = FACE_OUTER_BOUND ( 'NONE', #800, .T. ) ;
#1197 = DIRECTION ( 'NONE',  ( -1.000000000000000000, -0.000000000000000000, -0.000000000000000000 ) ) ;
#1198 = ORIENTED_EDGE ( 'NONE', *, *, #824, .T. ) ;
#1199 = CARTESIAN_POINT ( 'NONE',  ( -14.90000000000000036, 127.0000000000000000, 4.000000000000003553 ) ) ;
#1200 = ORIENTED_EDGE ( 'NONE', *, *, #716, .T. ) ;
#1201 = AXIS2_PLACEMENT_3D ( 'NONE', #333, #921, #828 ) ;
#1202 = EDGE_CURVE ( 'NONE', #1095, #83, #28, .T. ) ;
#1203 = CARTESIAN_POINT ( 'NONE',  ( 34.00000000000000000, 117.0000000000000000, 44.00000000000000000 ) ) ;
#1204 = CARTESIAN_POINT ( 'NONE',  ( 31.19999999999999929, 111.6500000000000057, 0.000000000000000000 ) ) ;
#1205 = EDGE_LOOP ( 'NONE', ( #646, #896, #556, #1036 ) ) ;
#1206 = FACE_OUTER_BOUND ( 'NONE', #632, .T. ) ;
#1207 = ORIENTED_EDGE ( 'NONE', *, *, #1110, .F. ) ;
#1208 = CIRCLE ( 'NONE', #200, 1.900000000000000577 ) ;
#1209 = EDGE_CURVE ( 'NONE', #1079, #612, #1037, .T. ) ;
#1210 = VECTOR ( 'NONE', #585, 1000.000000000000000 ) ;
#1211 = ORIENTED_EDGE ( 'NONE', *, *, #1297, .F. ) ;
#1212 = DIRECTION ( 'NONE',  ( 0.000000000000000000, 0.000000000000000000, -1.000000000000000000 ) ) ;
#1213 = AXIS2_PLACEMENT_3D ( 'NONE', #962, #868, #670 ) ;
#1214 = CARTESIAN_POINT ( 'NONE',  ( 0.000000000000000000, 77.00000000000000000, 0.000000000000000000 ) ) ;
#1215 = CARTESIAN_POINT ( 'NONE',  ( 34.00000000000000000, 127.0000000000000000, 4.000000000000003553 ) ) ;
#1216 = CLOSED_SHELL ( 'NONE', ( #375, #1169, #442, #489, #564, #907, #346, #1256, #947, #77, #381, #437, #20, #141, #675, #170, #620, #1274, #526, #580, #411, #1140, #1160, #1177, #388, #504, #886, #481, #658, #42, #1265, #233, #843, #722, #1091, #1116, #1021, #1015, #155 ) ) ;
#1217 = ORIENTED_EDGE ( 'NONE', *, *, #291, .F. ) ;
#1218 = DIRECTION ( 'NONE',  ( 0.000000000000000000, 1.000000000000000000, 0.000000000000000000 ) ) ;
#1219 = DIRECTION ( 'NONE',  ( 0.000000000000000000, 1.000000000000000000, 0.000000000000000000 ) ) ;
#1220 = CARTESIAN_POINT ( 'NONE',  ( -16.00000000000000000, 77.00000000000000000, -8.000000000000000000 ) ) ;
#1221 = VERTEX_POINT ( 'NONE', #847 ) ;
#1222 = DIRECTION ( 'NONE',  ( -1.000000000000000000, 0.000000000000000000, -0.000000000000000000 ) ) ;
#1223 = ORIENTED_EDGE ( 'NONE', *, *, #710, .F. ) ;
#1224 = EDGE_CURVE ( 'NONE', #680, #234, #127, .T. ) ;
#1225 = DIRECTION ( 'NONE',  ( 0.000000000000000000, -0.000000000000000000, 1.000000000000000000 ) ) ;
#1226 = VERTEX_POINT ( 'NONE', #528 ) ;
#1227 = CARTESIAN_POINT ( 'NONE',  ( -13.00000000000000000, 127.0000000000000000, 44.00000000000000000 ) ) ;
#1228 = VECTOR ( 'NONE', #399, 1000.000000000000000 ) ;
#1229 = ORIENTED_EDGE ( 'NONE', *, *, #73, .F. ) ;
#1230 = AXIS2_PLACEMENT_3D ( 'NONE', #1175, #953, #1167 ) ;
#1231 = DIRECTION ( 'NONE',  ( 0.000000000000000000, -0.000000000000000000, -1.000000000000000000 ) ) ;
#1232 = EDGE_CURVE ( 'NONE', #1221, #758, #706, .T. ) ;
#1233 = ORGANIZATION ( 'UNSPECIFIED', 'UNSPECIFIED', '' ) ;
#1234 = ORIENTED_EDGE ( 'NONE', *, *, #727, .T. ) ;
#1235 = CARTESIAN_POINT ( 'NONE',  ( 2.143131898507867804E-16, 43.00000000000000000, 1.750000000000000000 ) ) ;
#1236 = EDGE_LOOP ( 'NONE', ( #804, #1277 ) ) ;
#1237 = DIRECTION ( 'NONE',  ( -1.000000000000000000, 0.000000000000000000, 0.000000000000000000 ) ) ;
#1238 = EDGE_CURVE ( 'NONE', #1033, #599, #310, .T. ) ;
#1239 = ORIENTED_EDGE ( 'NONE', *, *, #102, .F. ) ;
#1240 = LINE ( 'NONE', #445, #601 ) ;
#1241 = CARTESIAN_POINT ( 'NONE',  ( 0.000000000000000000, 72.00000000000000000, 0.000000000000000000 ) ) ;
#1242 = CYLINDRICAL_SURFACE ( 'NONE', #743, 1.599999999999997202 ) ;
#1243 = ORIENTED_EDGE ( 'NONE', *, *, #219, .T. ) ;
#1244 = CARTESIAN_POINT ( 'NONE',  ( 0.000000000000000000, 111.6500000000000057, 0.000000000000000000 ) ) ;
#1245 = EDGE_CURVE ( 'NONE', #314, #885, #428, .T. ) ;
#1246 = DIRECTION ( 'NONE',  ( 0.000000000000000000, 0.000000000000000000, 1.000000000000000000 ) ) ;
#1247 = DIRECTION ( 'NONE',  ( -1.000000000000000000, 0.000000000000000000, 0.000000000000000000 ) ) ;
#1248 = DIRECTION ( 'NONE',  ( 0.000000000000000000, 0.000000000000000000, 1.000000000000000000 ) ) ;
#1249 = VECTOR ( 'NONE', #831, 1000.000000000000000 ) ;
#1250 = AXIS2_PLACEMENT_3D ( 'NONE', #473, #1278, #1189 ) ;
#1251 = VERTEX_POINT ( 'NONE', #726 ) ;
#1252 = CARTESIAN_POINT ( 'NONE',  ( 34.00000000000000000, 117.0000000000000000, 44.00000000000000000 ) ) ;
#1253 = CIRCLE ( 'NONE', #351, 6.000000000000000000 ) ;
#1254 = CC_DESIGN_APPROVAL ( #1152, ( #642 ) ) ;
#1255 = APPROVAL_DATE_TIME ( #1067, #510 ) ;
#1256 = ADVANCED_FACE ( 'NONE', ( #1131 ), #436, .T. ) ;
#1257 = LINE ( 'NONE', #339, #1089 ) ;
#1258 = CARTESIAN_POINT ( 'NONE',  ( 32.10000000000000142, 117.0000000000000000, 4.000000000000003553 ) ) ;
#1259 = ORIENTED_EDGE ( 'NONE', *, *, #404, .T. ) ;
#1260 = DIRECTION ( 'NONE',  ( 0.000000000000000000, 1.000000000000000000, 0.000000000000000000 ) ) ;
#1261 = CARTESIAN_POINT ( 'NONE',  ( -14.90000000000000036, 117.0000000000000000, 44.00000000000000000 ) ) ;
#1262 = AXIS2_PLACEMENT_3D ( 'NONE', #1030, #412, #318 ) ;
#1263 =( LENGTH_UNIT ( ) NAMED_UNIT ( * ) SI_UNIT ( .MILLI., .METRE. ) );
#1264 = CARTESIAN_POINT ( 'NONE',  ( 0.000000000000000000, 70.00000000000000000, 0.000000000000000000 ) ) ;
#1265 = ADVANCED_FACE ( 'NONE', ( #242 ), #826, .F. ) ;
#1266 = VERTEX_POINT ( 'NONE', #46 ) ;
#1267 = DIRECTION ( 'NONE',  ( -0.000000000000000000, -0.000000000000000000, 1.000000000000000000 ) ) ;
#1268 = CARTESIAN_POINT ( 'NONE',  ( 36.00000000000000000, 140.0000000000000000, 4.000000000000003553 ) ) ;
#1269 = CARTESIAN_POINT ( 'NONE',  ( 0.000000000000000000, 0.000000000000000000, 0.000000000000000000 ) ) ;
#1270 = CARTESIAN_POINT ( 'NONE',  ( 43.00000000000000000, 144.0000000000000000, 0.000000000000000000 ) ) ;
#1271 = VECTOR ( 'NONE', #148, 1000.000000000000000 ) ;
#1272 = VECTOR ( 'NONE', #502, 1000.000000000000000 ) ;
#1273 = DIRECTION ( 'NONE',  ( 0.000000000000000000, 0.000000000000000000, -1.000000000000000000 ) ) ;
#1274 = ADVANCED_FACE ( 'NONE', ( #1121, #218 ), #121, .F. ) ;
#1275 = CIRCLE ( 'NONE', #371, 1.599999999999997202 ) ;
#1276 = CIRCLE ( 'NONE', #347, 1.900000000000000577 ) ;
#1277 = ORIENTED_EDGE ( 'NONE', *, *, #532, .T. ) ;
#1278 = DIRECTION ( 'NONE',  ( 0.000000000000000000, -1.000000000000000000, 0.000000000000000000 ) ) ;
#1279 = DIRECTION ( 'NONE',  ( 0.000000000000000000, 0.000000000000000000, 1.000000000000000000 ) ) ;
#1280 = COORDINATED_UNIVERSAL_TIME_OFFSET ( 6, 0, .BEHIND. ) ;
#1281 = ORIENTED_EDGE ( 'NONE', *, *, #755, .T. ) ;
#1282 = VERTEX_POINT ( 'NONE', #60 ) ;
#1283 = EDGE_CURVE ( 'NONE', #472, #322, #268, .T. ) ;
#1284 = DIRECTION ( 'NONE',  ( 0.000000000000000000, 0.000000000000000000, -1.000000000000000000 ) ) ;
#1285 = DIRECTION ( 'NONE',  ( 0.000000000000000000, 0.000000000000000000, 1.000000000000000000 ) ) ;
#1286 = APPROVAL_STATUS ( 'not_yet_approved' ) ;
#1287 = ORIENTED_EDGE ( 'NONE', *, *, #1040, .F. ) ;
#1288 = VERTEX_POINT ( 'NONE', #559 ) ;
#1289 = LINE ( 'NONE', #1093, #97 ) ;
#1290 = DIRECTION ( 'NONE',  ( -0.000000000000000000, -1.000000000000000000, -0.000000000000000000 ) ) ;
#1291 = CC_DESIGN_PERSON_AND_ORGANIZATION_ASSIGNMENT ( #951, #553, ( #793 ) ) ;
#1292 = ORIENTED_EDGE ( 'NONE', *, *, #1059, .T. ) ;
#1293 = DIRECTION ( 'NONE',  ( -1.000000000000000000, 0.000000000000000000, 0.000000000000000000 ) ) ;
#1294 = ORIENTED_EDGE ( 'NONE', *, *, #933, .T. ) ;
#1295 = LINE ( 'NONE', #183, #579 ) ;
#1296 = CARTESIAN_POINT ( 'NONE',  ( 34.00000000000000000, 127.0000000000000000, 44.00000000000000000 ) ) ;
#1297 = EDGE_CURVE ( 'NONE', #508, #106, #936, .T. ) ;
#1298 = ORIENTED_EDGE ( 'NONE', *, *, #588, .F. ) ;
#1299 = FACE_OUTER_BOUND ( 'NONE', #626, .T. ) ;
#1300 = ORIENTED_EDGE ( 'NONE', *, *, #1245, .T. ) ;
#1301 = ORIENTED_EDGE ( 'NONE', *, *, #1185, .T. ) ;
#1302 = CARTESIAN_POINT ( 'NONE',  ( -11.09999999999999787, 117.0000000000000000, 44.00000000000000000 ) ) ;
#1303 = CARTESIAN_POINT ( 'NONE',  ( 34.39999999999999858, 140.0000000000000000, 4.000000000000003553 ) ) ;
#1304 = ORIENTED_EDGE ( 'NONE', *, *, #214, .F. ) ;
ENDSEC;
END-ISO-10303-21;
