ISO-10303-21;
HEADER;
FILE_DESCRIPTION (( 'STEP AP203' ),
    '1' );
FILE_NAME ('FIT-001_Dowel_and_bearing_trial.step',
    '2026-09-07T21:16:14',
    ( '' ),
    ( '' ),
    'SwSTEP 2.0',
    'SolidWorks 2026',
    '' );
FILE_SCHEMA (( 'CONFIG_CONTROL_DESIGN' ));
ENDSEC;

DATA;
#1 = CARTESIAN_POINT ( 'NONE',  ( -60.00000000000000000, -17.00000000000000000, 8.000000000000000000 ) ) ;
#2 = CARTESIAN_POINT ( 'NONE',  ( 15.00000000000000000, 0.000000000000000000, 8.000000000000000000 ) ) ;
#3 = ORIENTED_EDGE ( 'NONE', *, *, #803, .F. ) ;
#4 = ADVANCED_FACE ( 'NONE', ( #815 ), #117, .F. ) ;
#5 = CARTESIAN_POINT ( 'NONE',  ( 45.00000000000000000, 0.000000000000000000, 8.000000000000000000 ) ) ;
#6 = DIRECTION ( 'NONE',  ( -0.000000000000000000, -0.000000000000000000, -1.000000000000000000 ) ) ;
#7 = ORIENTED_EDGE ( 'NONE', *, *, #803, .T. ) ;
#8 = AXIS2_PLACEMENT_3D ( 'NONE', #324, #711, #329 ) ;
#9 = CARTESIAN_POINT ( 'NONE',  ( 33.27499999999999858, -11.00000000000000000, 8.000000000000000000 ) ) ;
#10 = EDGE_CURVE ( 'NONE', #292, #245, #45, .T. ) ;
#11 = CARTESIAN_POINT ( 'NONE',  ( 60.00000000000000000, 17.00000000000000000, 0.000000000000000000 ) ) ;
#12 = ADVANCED_FACE ( 'NONE', ( #361 ), #100, .F. ) ;
#13 = EDGE_LOOP ( 'NONE', ( #565, #532 ) ) ;
#14 = VECTOR ( 'NONE', #266, 1000.000000000000000 ) ;
#15 = PERSON_AND_ORGANIZATION ( #30, #71 ) ;
#16 = VERTEX_POINT ( 'NONE', #687 ) ;
#17 = FACE_BOUND ( 'NONE', #393, .T. ) ;
#18 = PERSON_AND_ORGANIZATION ( #30, #71 ) ;
#19 = VERTEX_POINT ( 'NONE', #166 ) ;
#20 = DIRECTION ( 'NONE',  ( 0.000000000000000000, 0.000000000000000000, 1.000000000000000000 ) ) ;
#21 = EDGE_CURVE ( 'NONE', #426, #769, #228, .T. ) ;
#22 = AXIS2_PLACEMENT_3D ( 'NONE', #163, #792, #546 ) ;
#23 = CALENDAR_DATE ( 2026, 7, 9 ) ;
#24 = EDGE_LOOP ( 'NONE', ( #518, #794 ) ) ;
#25 = FACE_OUTER_BOUND ( 'NONE', #504, .T. ) ;
#26 = CYLINDRICAL_SURFACE ( 'NONE', #175, 11.15000000000000036 ) ;
#27 = CALENDAR_DATE ( 2026, 7, 9 ) ;
#28 = ORIENTED_EDGE ( 'NONE', *, *, #541, .T. ) ;
#29 = CARTESIAN_POINT ( 'NONE',  ( 45.00000000000000000, 0.000000000000000000, 8.000000000000000000 ) ) ;
#30 = PERSON ( 'UNSPECIFIED', 'UNSPECIFIED', 'UNSPECIFIED', ('UNSPECIFIED'), ('UNSPECIFIED'), ('UNSPECIFIED') ) ;
#31 = CARTESIAN_POINT ( 'NONE',  ( -60.00000000000000000, -17.00000000000000000, 8.000000000000000000 ) ) ;
#32 = VERTEX_POINT ( 'NONE', #420 ) ;
#33 = LINE ( 'NONE', #667, #695 ) ;
#34 = ORIENTED_EDGE ( 'NONE', *, *, #456, .F. ) ;
#35 = DIRECTION ( 'NONE',  ( 1.000000000000000000, 0.000000000000000000, 0.000000000000000000 ) ) ;
#36 = AXIS2_PLACEMENT_3D ( 'NONE', #568, #486, #177 ) ;
#37 = EDGE_CURVE ( 'NONE', #644, #462, #294, .T. ) ;
#38 = ORIENTED_EDGE ( 'NONE', *, *, #270, .F. ) ;
#39 = LINE ( 'NONE', #548, #771 ) ;
#40 = ORIENTED_EDGE ( 'NONE', *, *, #37, .T. ) ;
#41 = ORIENTED_EDGE ( 'NONE', *, *, #594, .T. ) ;
#42 = CARTESIAN_POINT ( 'NONE',  ( -26.05000000000000071, 0.000000000000000000, 8.000000000000000000 ) ) ;
#43 = VERTEX_POINT ( 'NONE', #232 ) ;
#44 = COORDINATED_UNIVERSAL_TIME_OFFSET ( 6, 0, .BEHIND. ) ;
#45 = LINE ( 'NONE', #160, #685 ) ;
#46 = PLANE ( 'NONE',  #348 ) ;
#47 = ORIENTED_EDGE ( 'NONE', *, *, #689, .T. ) ;
#48 = CC_DESIGN_PERSON_AND_ORGANIZATION_ASSIGNMENT ( #273, #208, ( #326 ) ) ;
#49 = DIRECTION ( 'NONE',  ( 0.000000000000000000, 0.000000000000000000, -1.000000000000000000 ) ) ;
#50 = ORIENTED_EDGE ( 'NONE', *, *, #213, .F. ) ;
#51 = CARTESIAN_POINT ( 'NONE',  ( 0.000000000000000000, -11.00000000000000000, 0.000000000000000000 ) ) ;
#52 = APPLICATION_CONTEXT ( 'configuration controlled 3d designs of mechanical parts and assemblies' ) ;
#53 = ORIENTED_EDGE ( 'NONE', *, *, #606, .F. ) ;
#54 = LINE ( 'NONE', #123, #641 ) ;
#55 = FACE_OUTER_BOUND ( 'NONE', #367, .T. ) ;
#56 = LOCAL_TIME ( 16, 16, 14.00000000000000000, #601 ) ;
#57 = EDGE_LOOP ( 'NONE', ( #342, #445, #261, #693 ) ) ;
#58 = CARTESIAN_POINT ( 'NONE',  ( 33.85000000000000142, 0.000000000000000000, 0.000000000000000000 ) ) ;
#59 = ADVANCED_FACE ( 'NONE', ( #483 ), #738, .F. ) ;
#60 = CARTESIAN_POINT ( 'NONE',  ( -60.00000000000000000, -17.00000000000000000, 8.000000000000000000 ) ) ;
#61 = ORIENTED_EDGE ( 'NONE', *, *, #778, .T. ) ;
#62 = CARTESIAN_POINT ( 'NONE',  ( -45.00000000000000000, 0.000000000000000000, 8.000000000000000000 ) ) ;
#63 = CIRCLE ( 'NONE', #363, 11.05000000000000071 ) ;
#64 = DIRECTION ( 'NONE',  ( -1.000000000000000000, 0.000000000000000000, 0.000000000000000000 ) ) ;
#65 = EDGE_CURVE ( 'NONE', #254, #403, #104, .T. ) ;
#66 = VERTEX_POINT ( 'NONE', #697 ) ;
#67 = CARTESIAN_POINT ( 'NONE',  ( -34.00000000000000000, 1.347111479062088010E-15, 8.000000000000000000 ) ) ;
#68 = AXIS2_PLACEMENT_3D ( 'NONE', #352, #102, #282 ) ;
#69 = CARTESIAN_POINT ( 'NONE',  ( -55.99999999999999289, 0.000000000000000000, 8.000000000000000000 ) ) ;
#70 = FACE_OUTER_BOUND ( 'NONE', #716, .T. ) ;
#71 = ORGANIZATION ( 'UNSPECIFIED', 'UNSPECIFIED', '' ) ;
#72 = VERTEX_POINT ( 'NONE', #128 ) ;
#73 = CLOSED_SHELL ( 'NONE', ( #322, #696, #398, #278, #741, #140, #718, #115, #555, #134, #258, #422, #505, #585, #207, #4, #59, #103, #305, #544, #12, #74 ) ) ;
#74 = ADVANCED_FACE ( 'NONE', ( #818 ), #567, .F. ) ;
#75 = DIRECTION ( 'NONE',  ( -1.000000000000000000, 0.000000000000000000, 0.000000000000000000 ) ) ;
#76 = CARTESIAN_POINT ( 'NONE',  ( 3.225000000000000089, -11.00000000000000000, 8.000000000000000000 ) ) ;
#77 = VERTEX_POINT ( 'NONE', #562 ) ;
#78 = EDGE_CURVE ( 'NONE', #191, #426, #311, .T. ) ;
#79 = DIRECTION ( 'NONE',  ( -1.000000000000000000, 0.000000000000000000, 0.000000000000000000 ) ) ;
#80 = DIRECTION ( 'NONE',  ( -1.000000000000000000, 0.000000000000000000, 0.000000000000000000 ) ) ;
#81 = AXIS2_PLACEMENT_3D ( 'NONE', #751, #616, #114 ) ;
#82 = EDGE_LOOP ( 'NONE', ( #563, #508 ) ) ;
#83 = CIRCLE ( 'NONE', #159, 11.15000000000000036 ) ;
#84 = VERTEX_POINT ( 'NONE', #192 ) ;
#85 = CC_DESIGN_APPROVAL ( #223, ( #105 ) ) ;
#86 = APPROVAL_STATUS ( 'not_yet_approved' ) ;
#87 = EDGE_CURVE ( 'NONE', #403, #156, #242, .T. ) ;
#88 = ORIENTED_EDGE ( 'NONE', *, *, #813, .F. ) ;
#89 = FACE_BOUND ( 'NONE', #149, .T. ) ;
#90 =( NAMED_UNIT ( * ) SI_UNIT ( $, .STERADIAN. ) SOLID_ANGLE_UNIT ( ) );
#91 = ORIENTED_EDGE ( 'NONE', *, *, #21, .T. ) ;
#92 = PLANE ( 'NONE',  #318 ) ;
#93 = DIRECTION ( 'NONE',  ( -1.000000000000000000, 0.000000000000000000, 0.000000000000000000 ) ) ;
#94 = AXIS2_PLACEMENT_3D ( 'NONE', #430, #427, #106 ) ;
#95 = CIRCLE ( 'NONE', #239, 3.174999999999997158 ) ;
#96 = DATE_AND_TIME ( #23, #549 ) ;
#97 = EDGE_LOOP ( 'NONE', ( #661, #598, #237, #200 ) ) ;
#98 = CARTESIAN_POINT ( 'NONE',  ( -55.99999999999999289, 0.000000000000000000, 0.000000000000000000 ) ) ;
#99 = DIRECTION ( 'NONE',  ( 1.000000000000000000, 0.000000000000000000, 0.000000000000000000 ) ) ;
#100 = CYLINDRICAL_SURFACE ( 'NONE', #658, 3.225000000000000089 ) ;
#101 = DIRECTION ( 'NONE',  ( -1.000000000000000000, 0.000000000000000000, 0.000000000000000000 ) ) ;
#102 = DIRECTION ( 'NONE',  ( -1.000000000000000000, 0.000000000000000000, 0.000000000000000000 ) ) ;
#103 = ADVANCED_FACE ( 'NONE', ( #506 ), #440, .F. ) ;
#104 = CIRCLE ( 'NONE', #674, 3.175000000000000711 ) ;
#105 = PRODUCT_DEFINITION ( 'UNKNOWN', '', #439, #729 ) ;
#106 = DIRECTION ( 'NONE',  ( -1.000000000000000000, 0.000000000000000000, 0.000000000000000000 ) ) ;
#107 = EDGE_LOOP ( 'NONE', ( #547, #378, #730, #569 ) ) ;
#108 = AXIS2_PLACEMENT_3D ( 'NONE', #233, #739, #368 ) ;
#109 = VECTOR ( 'NONE', #376, 1000.000000000000000 ) ;
#110 = DIRECTION ( 'NONE',  ( 0.000000000000000000, 0.000000000000000000, -1.000000000000000000 ) ) ;
#111 = LINE ( 'NONE', #182, #707 ) ;
#112 = APPROVAL_STATUS ( 'not_yet_approved' ) ;
#113 = VERTEX_POINT ( 'NONE', #196 ) ;
#114 = DIRECTION ( 'NONE',  ( 1.000000000000000000, 0.000000000000000000, 0.000000000000000000 ) ) ;
#115 = ADVANCED_FACE ( 'NONE', ( #750 ), #759, .F. ) ;
#116 = VERTEX_POINT ( 'NONE', #58 ) ;
#117 = CYLINDRICAL_SURFACE ( 'NONE', #580, 11.09999999999999787 ) ;
#118 = FACE_BOUND ( 'NONE', #13, .T. ) ;
#119 = ORIENTED_EDGE ( 'NONE', *, *, #164, .T. ) ;
#120 = CARTESIAN_POINT ( 'NONE',  ( -60.00000000000000000, -17.00000000000000000, 0.000000000000000000 ) ) ;
#121 = DIRECTION ( 'NONE',  ( 0.000000000000000000, 0.000000000000000000, -1.000000000000000000 ) ) ;
#122 = CIRCLE ( 'NONE', #665, 3.325000000000001510 ) ;
#123 = CARTESIAN_POINT ( 'NONE',  ( -60.00000000000000000, 17.00000000000000000, 8.000000000000000000 ) ) ;
#124 = CARTESIAN_POINT ( 'NONE',  ( 33.27499999999999858, -11.00000000000000000, 8.000000000000000000 ) ) ;
#125 = CIRCLE ( 'NONE', #165, 11.05000000000000071 ) ;
#126 = ORIENTED_EDGE ( 'NONE', *, *, #541, .F. ) ;
#127 = EDGE_CURVE ( 'NONE', #332, #371, #277, .T. ) ;
#128 = CARTESIAN_POINT ( 'NONE',  ( 52.67499999999999716, -11.00000000000000000, 0.000000000000000000 ) ) ;
#129 = DIRECTION ( 'NONE',  ( -1.000000000000000000, 0.000000000000000000, 0.000000000000000000 ) ) ;
#130 = ORIENTED_EDGE ( 'NONE', *, *, #312, .F. ) ;
#131 = DIRECTION ( 'NONE',  ( 1.000000000000000000, 0.000000000000000000, 0.000000000000000000 ) ) ;
#132 = CIRCLE ( 'NONE', #424, 3.225000000000000089 ) ;
#133 = DIRECTION ( 'NONE',  ( -1.000000000000000000, 0.000000000000000000, 0.000000000000000000 ) ) ;
#134 = ADVANCED_FACE ( 'NONE', ( #767 ), #138, .F. ) ;
#135 = ORIENTED_EDGE ( 'NONE', *, *, #250, .F. ) ;
#136 = DIRECTION ( 'NONE',  ( -0.000000000000000000, -0.000000000000000000, 1.000000000000000000 ) ) ;
#137 = AXIS2_PLACEMENT_3D ( 'NONE', #217, #664, #35 ) ;
#138 = PLANE ( 'NONE',  #461 ) ;
#139 = FACE_OUTER_BOUND ( 'NONE', #527, .T. ) ;
#140 = ADVANCED_FACE ( 'NONE', ( #708 ), #497, .F. ) ;
#141 = CC_DESIGN_APPROVAL ( #338, ( #326 ) ) ;
#142 = EDGE_LOOP ( 'NONE', ( #180, #364 ) ) ;
#143 =( NAMED_UNIT ( * ) PLANE_ANGLE_UNIT ( ) SI_UNIT ( $, .RADIAN. ) );
#144 = ORIENTED_EDGE ( 'NONE', *, *, #454, .F. ) ;
#145 = AXIS2_PLACEMENT_3D ( 'NONE', #463, #676, #723 ) ;
#146 = ORIENTED_EDGE ( 'NONE', *, *, #310, .T. ) ;
#147 = EDGE_CURVE ( 'NONE', #77, #113, #54, .T. ) ;
#148 = APPROVAL_DATE_TIME ( #218, #223 ) ;
#149 = EDGE_LOOP ( 'NONE', ( #407, #219 ) ) ;
#150 = CARTESIAN_POINT ( 'NONE',  ( 0.000000000000000000, -11.00000000000000000, 8.000000000000000000 ) ) ;
#151 = PERSON_AND_ORGANIZATION ( #30, #71 ) ;
#152 = ORIENTED_EDGE ( 'NONE', *, *, #78, .T. ) ;
#153 = DIRECTION ( 'NONE',  ( 1.000000000000000000, 0.000000000000000000, 0.000000000000000000 ) ) ;
#154 = DIRECTION ( 'NONE',  ( 0.000000000000000000, 1.000000000000000000, 0.000000000000000000 ) ) ;
#155 = APPLICATION_PROTOCOL_DEFINITION ( 'international standard', 'config_control_design', 1994, #52 ) ;
#156 = VERTEX_POINT ( 'NONE', #633 ) ;
#157 = DIRECTION ( 'NONE',  ( -0.000000000000000000, -0.000000000000000000, 1.000000000000000000 ) ) ;
#158 = CARTESIAN_POINT ( 'NONE',  ( -3.225000000000000089, -11.00000000000000000, 0.000000000000000000 ) ) ;
#159 = AXIS2_PLACEMENT_3D ( 'NONE', #539, #589, #79 ) ;
#160 = CARTESIAN_POINT ( 'NONE',  ( 59.32500000000000284, -11.00000000000000000, 8.000000000000000000 ) ) ;
#161 = DIRECTION ( 'NONE',  ( 0.000000000000000000, 0.000000000000000000, -1.000000000000000000 ) ) ;
#162 = EDGE_CURVE ( 'NONE', #371, #397, #181, .T. ) ;
#163 = CARTESIAN_POINT ( 'NONE',  ( 56.00000000000000000, -11.00000000000000000, 8.000000000000000000 ) ) ;
#164 = EDGE_CURVE ( 'NONE', #332, #357, #325, .T. ) ;
#165 = AXIS2_PLACEMENT_3D ( 'NONE', #828, #256, #253 ) ;
#166 = CARTESIAN_POINT ( 'NONE',  ( 52.67499999999999716, -11.00000000000000000, 8.000000000000000000 ) ) ;
#167 = DIRECTION ( 'NONE',  ( 0.000000000000000000, 0.000000000000000000, 1.000000000000000000 ) ) ;
#168 = DIRECTION ( 'NONE',  ( 0.000000000000000000, 0.000000000000000000, -1.000000000000000000 ) ) ;
#169 = CARTESIAN_POINT ( 'NONE',  ( -15.00000000000000000, 0.000000000000000000, 8.000000000000000000 ) ) ;
#170 = FACE_BOUND ( 'NONE', #806, .T. ) ;
#171 = ORIENTED_EDGE ( 'NONE', *, *, #813, .T. ) ;
#172 = AXIS2_PLACEMENT_3D ( 'NONE', #622, #241, #433 ) ;
#173 = DATE_AND_TIME ( #27, #231 ) ;
#174 = EDGE_CURVE ( 'NONE', #113, #317, #581, .T. ) ;
#175 = AXIS2_PLACEMENT_3D ( 'NONE', #5, #468, #93 ) ;
#176 = EDGE_LOOP ( 'NONE', ( #171, #144, #583, #722 ) ) ;
#177 = DIRECTION ( 'NONE',  ( 1.000000000000000000, 0.000000000000000000, 0.000000000000000000 ) ) ;
#178 = DIRECTION ( 'NONE',  ( 0.000000000000000000, 0.000000000000000000, -1.000000000000000000 ) ) ;
#179 = FACE_OUTER_BOUND ( 'NONE', #97, .T. ) ;
#180 = ORIENTED_EDGE ( 'NONE', *, *, #340, .T. ) ;
#181 = LINE ( 'NONE', #69, #306 ) ;
#182 = CARTESIAN_POINT ( 'NONE',  ( 3.900000000000000799, 0.000000000000000000, 8.000000000000000000 ) ) ;
#183 = ORIENTED_EDGE ( 'NONE', *, *, #197, .T. ) ;
#184 = DIRECTION ( 'NONE',  ( -1.000000000000000000, 0.000000000000000000, 0.000000000000000000 ) ) ;
#185 = DIRECTION ( 'NONE',  ( -0.000000000000000000, -0.000000000000000000, 1.000000000000000000 ) ) ;
#186 = ORIENTED_EDGE ( 'NONE', *, *, #395, .F. ) ;
#187 = EDGE_CURVE ( 'NONE', #43, #116, #259, .T. ) ;
#188 = EDGE_CURVE ( 'NONE', #16, #426, #690, .T. ) ;
#189 = CARTESIAN_POINT ( 'NONE',  ( -30.00000000000000000, -11.00000000000000000, 8.000000000000000000 ) ) ;
#190 = DIRECTION ( 'NONE',  ( 0.000000000000000000, 0.000000000000000000, -1.000000000000000000 ) ) ;
#191 = VERTEX_POINT ( 'NONE', #628 ) ;
#192 = CARTESIAN_POINT ( 'NONE',  ( -33.17499999999999716, -11.00000000000000000, 0.000000000000000000 ) ) ;
#193 = CARTESIAN_POINT ( 'NONE',  ( -60.00000000000000000, 17.00000000000000000, 0.000000000000000000 ) ) ;
#194 = ORIENTED_EDGE ( 'NONE', *, *, #778, .F. ) ;
#195 = APPLICATION_CONTEXT ( 'configuration controlled 3d designs of mechanical parts and assemblies' ) ;
#196 = CARTESIAN_POINT ( 'NONE',  ( -60.00000000000000000, 17.00000000000000000, 8.000000000000000000 ) ) ;
#197 = EDGE_CURVE ( 'NONE', #116, #328, #83, .T. ) ;
#198 = VECTOR ( 'NONE', #205, 1000.000000000000000 ) ;
#199 = DIRECTION ( 'NONE',  ( -0.000000000000000000, -0.000000000000000000, 1.000000000000000000 ) ) ;
#200 = ORIENTED_EDGE ( 'NONE', *, *, #454, .T. ) ;
#201 = VECTOR ( 'NONE', #814, 1000.000000000000000 ) ;
#202 = DIRECTION ( 'NONE',  ( 0.000000000000000000, 0.000000000000000000, 1.000000000000000000 ) ) ;
#203 = AXIS2_PLACEMENT_3D ( 'NONE', #507, #381, #647 ) ;
#204 = EDGE_LOOP ( 'NONE', ( #494, #61 ) ) ;
#205 = DIRECTION ( 'NONE',  ( 0.000000000000000000, 0.000000000000000000, -1.000000000000000000 ) ) ;
#206 = EDGE_LOOP ( 'NONE', ( #286, #477 ) ) ;
#207 = ADVANCED_FACE ( 'NONE', ( #800 ), #26, .F. ) ;
#208 = PERSON_AND_ORGANIZATION_ROLE ( 'classification_officer' ) ;
#209 = CIRCLE ( 'NONE', #822, 10.99999999999999645 ) ;
#210 = ORIENTED_EDGE ( 'NONE', *, *, #234, .T. ) ;
#211 = CARTESIAN_POINT ( 'NONE',  ( -60.00000000000000000, 17.00000000000000000, 8.000000000000000000 ) ) ;
#212 = AXIS2_PLACEMENT_3D ( 'NONE', #446, #136, #770 ) ;
#213 = EDGE_CURVE ( 'NONE', #777, #473, #262, .T. ) ;
#214 = MECHANICAL_CONTEXT ( 'NONE', #52, 'mechanical' ) ;
#215 = EDGE_LOOP ( 'NONE', ( #621, #653, #34, #451 ) ) ;
#216 = FACE_BOUND ( 'NONE', #550, .T. ) ;
#217 = CARTESIAN_POINT ( 'NONE',  ( 30.00000000000000000, -11.00000000000000000, 8.000000000000000000 ) ) ;
#218 = DATE_AND_TIME ( #593, #56 ) ;
#219 = ORIENTED_EDGE ( 'NONE', *, *, #514, .F. ) ;
#220 = DIRECTION ( 'NONE',  ( -1.000000000000000000, 0.000000000000000000, -0.000000000000000000 ) ) ;
#221 = CARTESIAN_POINT ( 'NONE',  ( -45.00000000000000000, 0.000000000000000000, 8.000000000000000000 ) ) ;
#222 = UNCERTAINTY_MEASURE_WITH_UNIT (LENGTH_MEASURE( 1.000000000000000082E-05 ), #516, 'distance_accuracy_value', 'NONE');
#223 = APPROVAL ( #112, 'UNSPECIFIED' ) ;
#224 = ORIENTED_EDGE ( 'NONE', *, *, #705, .F. ) ;
#225 = DIRECTION ( 'NONE',  ( 0.000000000000000000, -0.000000000000000000, -1.000000000000000000 ) ) ;
#226 = DIRECTION ( 'NONE',  ( 1.000000000000000000, 0.000000000000000000, 0.000000000000000000 ) ) ;
#227 = AXIS2_PLACEMENT_3D ( 'NONE', #413, #290, #608 ) ;
#228 = LINE ( 'NONE', #557, #584 ) ;
#229 = DIRECTION ( 'NONE',  ( -0.000000000000000000, -0.000000000000000000, -1.000000000000000000 ) ) ;
#230 = CARTESIAN_POINT ( 'NONE',  ( 15.00000000000000000, 0.000000000000000000, 8.000000000000000000 ) ) ;
#231 = LOCAL_TIME ( 16, 16, 14.00000000000000000, #536 ) ;
#232 = CARTESIAN_POINT ( 'NONE',  ( 33.85000000000000142, 0.000000000000000000, 8.000000000000000000 ) ) ;
#233 = CARTESIAN_POINT ( 'NONE',  ( 45.00000000000000000, 0.000000000000000000, 8.000000000000000000 ) ) ;
#234 = EDGE_CURVE ( 'NONE', #275, #66, #590, .T. ) ;
#235 = EDGE_LOOP ( 'NONE', ( #91, #714, #135, #152 ) ) ;
#236 = DIRECTION ( 'NONE',  ( 1.000000000000000000, 0.000000000000000000, 0.000000000000000000 ) ) ;
#237 = ORIENTED_EDGE ( 'NONE', *, *, #174, .F. ) ;
#238 = VECTOR ( 'NONE', #727, 1000.000000000000000 ) ;
#239 = AXIS2_PLACEMENT_3D ( 'NONE', #452, #736, #356 ) ;
#240 = ORIENTED_EDGE ( 'NONE', *, *, #187, .F. ) ;
#241 = DIRECTION ( 'NONE',  ( -0.000000000000000000, -0.000000000000000000, 1.000000000000000000 ) ) ;
#242 = LINE ( 'NONE', #380, #765 ) ;
#243 = ORIENTED_EDGE ( 'NONE', *, *, #162, .F. ) ;
#244 = PLANE ( 'NONE',  #755 ) ;
#245 = VERTEX_POINT ( 'NONE', #476 ) ;
#246 = DIRECTION ( 'NONE',  ( 0.000000000000000000, 1.000000000000000000, 0.000000000000000000 ) ) ;
#247 = FACE_BOUND ( 'NONE', #681, .T. ) ;
#248 = EDGE_CURVE ( 'NONE', #292, #19, #122, .T. ) ;
#249 = ORIENTED_EDGE ( 'NONE', *, *, #78, .F. ) ;
#250 = EDGE_CURVE ( 'NONE', #191, #77, #293, .T. ) ;
#251 = AXIS2_PLACEMENT_3D ( 'NONE', #538, #157, #101 ) ;
#252 = DIRECTION ( 'NONE',  ( -1.000000000000000000, 0.000000000000000000, 0.000000000000000000 ) ) ;
#253 = DIRECTION ( 'NONE',  ( -1.000000000000000000, 0.000000000000000000, 0.000000000000000000 ) ) ;
#254 = VERTEX_POINT ( 'NONE', #333 ) ;
#255 = DIRECTION ( 'NONE',  ( 0.000000000000000000, 0.000000000000000000, -1.000000000000000000 ) ) ;
#256 = DIRECTION ( 'NONE',  ( -0.000000000000000000, -0.000000000000000000, 1.000000000000000000 ) ) ;
#257 = ORIENTED_EDGE ( 'NONE', *, *, #689, .F. ) ;
#258 = ADVANCED_FACE ( 'NONE', ( #396 ), #409, .F. ) ;
#259 = LINE ( 'NONE', #510, #746 ) ;
#260 = CARTESIAN_POINT ( 'NONE',  ( -45.00000000000000000, 0.000000000000000000, 8.000000000000000000 ) ) ;
#261 = ORIENTED_EDGE ( 'NONE', *, *, #431, .T. ) ;
#262 = LINE ( 'NONE', #9, #627 ) ;
#263 = ORIENTED_EDGE ( 'NONE', *, *, #234, .F. ) ;
#264 = CIRCLE ( 'NONE', #489, 10.99999999999999645 ) ;
#265 = CARTESIAN_POINT ( 'NONE',  ( 56.00000000000000000, -11.00000000000000000, 8.000000000000000000 ) ) ;
#266 = DIRECTION ( 'NONE',  ( -1.000000000000000000, -0.000000000000000000, -0.000000000000000000 ) ) ;
#267 = CIRCLE ( 'NONE', #428, 3.275000000000000355 ) ;
#268 = EDGE_LOOP ( 'NONE', ( #740, #666, #630, #240 ) ) ;
#269 = COORDINATED_UNIVERSAL_TIME_OFFSET ( 6, 0, .BEHIND. ) ;
#270 = EDGE_CURVE ( 'NONE', #639, #289, #728, .T. ) ;
#271 = ORIENTED_EDGE ( 'NONE', *, *, #509, .T. ) ;
#272 = FACE_BOUND ( 'NONE', #206, .T. ) ;
#273 = PERSON_AND_ORGANIZATION ( #30, #71 ) ;
#274 = AXIS2_PLACEMENT_3D ( 'NONE', #533, #791, #220 ) ;
#275 = VERTEX_POINT ( 'NONE', #534 ) ;
#276 = LINE ( 'NONE', #417, #782 ) ;
#277 = CIRCLE ( 'NONE', #526, 10.99999999999999645 ) ;
#278 = ADVANCED_FACE ( 'NONE', ( #481 ), #646, .F. ) ;
#279 = ORIENTED_EDGE ( 'NONE', *, *, #514, .T. ) ;
#280 = PLANE ( 'NONE',  #274 ) ;
#281 = APPROVAL_PERSON_ORGANIZATION ( #15, #752, #344 ) ;
#282 = DIRECTION ( 'NONE',  ( 0.000000000000000000, 0.000000000000000000, 1.000000000000000000 ) ) ;
#283 = EDGE_CURVE ( 'NONE', #371, #332, #264, .T. ) ;
#284 = AXIS2_PLACEMENT_3D ( 'NONE', #189, #436, #704 ) ;
#285 = PERSON_AND_ORGANIZATION ( #30, #71 ) ;
#286 = ORIENTED_EDGE ( 'NONE', *, *, #611, .F. ) ;
#287 = CARTESIAN_POINT ( 'NONE',  ( -55.99999999999999289, 0.000000000000000000, 8.000000000000000000 ) ) ;
#288 = FACE_OUTER_BOUND ( 'NONE', #636, .T. ) ;
#289 = VERTEX_POINT ( 'NONE', #158 ) ;
#290 = DIRECTION ( 'NONE',  ( 0.000000000000000000, 0.000000000000000000, 1.000000000000000000 ) ) ;
#291 = AXIS2_PLACEMENT_3D ( 'NONE', #150, #343, #596 ) ;
#292 = VERTEX_POINT ( 'NONE', #649 ) ;
#293 = LINE ( 'NONE', #724, #449 ) ;
#294 = LINE ( 'NONE', #801, #551 ) ;
#295 = CARTESIAN_POINT ( 'NONE',  ( 0.000000000000000000, 0.000000000000000000, 0.000000000000000000 ) ) ;
#296 = EDGE_CURVE ( 'NONE', #777, #308, #337, .T. ) ;
#297 = APPROVAL_PERSON_ORGANIZATION ( #285, #223, #660 ) ;
#298 = ORIENTED_EDGE ( 'NONE', *, *, #340, .F. ) ;
#299 = FACE_BOUND ( 'NONE', #336, .T. ) ;
#300 = EDGE_LOOP ( 'NONE', ( #780, #41, #438, #53 ) ) ;
#301 = PERSON_AND_ORGANIZATION_ROLE ( 'design_supplier' ) ;
#302 = ORIENTED_EDGE ( 'NONE', *, *, #87, .T. ) ;
#303 = CARTESIAN_POINT ( 'NONE',  ( -60.00000000000000000, 17.00000000000000000, 0.000000000000000000 ) ) ;
#304 = CIRCLE ( 'NONE', #145, 3.175000000000000711 ) ;
#305 = ADVANCED_FACE ( 'NONE', ( #415 ), #605, .F. ) ;
#306 = VECTOR ( 'NONE', #315, 1000.000000000000000 ) ;
#307 = DIRECTION ( 'NONE',  ( -1.000000000000000000, -0.000000000000000000, -0.000000000000000000 ) ) ;
#308 = VERTEX_POINT ( 'NONE', #529 ) ;
#309 = CARTESIAN_POINT ( 'NONE',  ( 3.225000000000000089, -11.00000000000000000, 8.000000000000000000 ) ) ;
#310 = EDGE_CURVE ( 'NONE', #156, #84, #95, .T. ) ;
#311 = LINE ( 'NONE', #383, #394 ) ;
#312 = EDGE_CURVE ( 'NONE', #462, #552, #561, .T. ) ;
#313 = CARTESIAN_POINT ( 'NONE',  ( -3.949999999999998845, 1.353234713057825478E-15, 0.000000000000000000 ) ) ;
#314 = EDGE_LOOP ( 'NONE', ( #183, #624 ) ) ;
#315 = DIRECTION ( 'NONE',  ( 0.000000000000000000, 0.000000000000000000, -1.000000000000000000 ) ) ;
#316 = DIRECTION ( 'NONE',  ( 0.000000000000000000, 0.000000000000000000, -1.000000000000000000 ) ) ;
#317 = VERTEX_POINT ( 'NONE', #31 ) ;
#318 = AXIS2_PLACEMENT_3D ( 'NONE', #474, #795, #225 ) ;
#319 = DIRECTION ( 'NONE',  ( 0.000000000000000000, 0.000000000000000000, 1.000000000000000000 ) ) ;
#320 = AXIS2_PLACEMENT_3D ( 'NONE', #614, #168, #75 ) ;
#321 = LINE ( 'NONE', #571, #655 ) ;
#322 = ADVANCED_FACE ( 'NONE', ( #288 ), #673, .F. ) ;
#323 = ORIENTED_EDGE ( 'NONE', *, *, #762, .F. ) ;
#324 = CARTESIAN_POINT ( 'NONE',  ( 30.00000000000000000, -11.00000000000000000, 0.000000000000000000 ) ) ;
#325 = LINE ( 'NONE', #570, #811 ) ;
#326 = SECURITY_CLASSIFICATION ( '', '', #353 ) ;
#327 = CYLINDRICAL_SURFACE ( 'NONE', #797, 11.09999999999999787 ) ;
#328 = VERTEX_POINT ( 'NONE', #330 ) ;
#329 = DIRECTION ( 'NONE',  ( -1.000000000000000000, 0.000000000000000000, 0.000000000000000000 ) ) ;
#330 = CARTESIAN_POINT ( 'NONE',  ( 56.14999999999999858, 1.365481181049298835E-15, 0.000000000000000000 ) ) ;
#331 = CARTESIAN_POINT ( 'NONE',  ( 30.00000000000000000, -11.00000000000000000, 0.000000000000000000 ) ) ;
#332 = VERTEX_POINT ( 'NONE', #67 ) ;
#333 = CARTESIAN_POINT ( 'NONE',  ( -33.17499999999999716, -11.00000000000000000, 8.000000000000000000 ) ) ;
#334 = VECTOR ( 'NONE', #760, 1000.000000000000000 ) ;
#335 = DIRECTION ( 'NONE',  ( -0.000000000000000000, -0.000000000000000000, 1.000000000000000000 ) ) ;
#336 = EDGE_LOOP ( 'NONE', ( #766, #7 ) ) ;
#337 = CIRCLE ( 'NONE', #137, 3.275000000000000355 ) ;
#338 = APPROVAL ( #460, 'UNSPECIFIED' ) ;
#339 = DIRECTION ( 'NONE',  ( 0.000000000000000000, 0.000000000000000000, 1.000000000000000000 ) ) ;
#340 = EDGE_CURVE ( 'NONE', #726, #473, #375, .T. ) ;
#341 = CIRCLE ( 'NONE', #566, 11.09999999999999787 ) ;
#342 = ORIENTED_EDGE ( 'NONE', *, *, #87, .F. ) ;
#343 = DIRECTION ( 'NONE',  ( 0.000000000000000000, 0.000000000000000000, 1.000000000000000000 ) ) ;
#344 = APPROVAL_ROLE ( '' ) ;
#345 = ORIENTED_EDGE ( 'NONE', *, *, #431, .F. ) ;
#346 = FACE_BOUND ( 'NONE', #612, .T. ) ;
#347 = PERSON_AND_ORGANIZATION_ROLE ( 'design_owner' ) ;
#348 = AXIS2_PLACEMENT_3D ( 'NONE', #629, #819, #688 ) ;
#349 = ORIENTED_EDGE ( 'NONE', *, *, #523, .F. ) ;
#350 = DIRECTION ( 'NONE',  ( -0.000000000000000000, -0.000000000000000000, 1.000000000000000000 ) ) ;
#351 = AXIS2_PLACEMENT_3D ( 'NONE', #701, #255, #390 ) ;
#352 = CARTESIAN_POINT ( 'NONE',  ( 60.00000000000000000, -17.00000000000000000, 8.000000000000000000 ) ) ;
#353 = SECURITY_CLASSIFICATION_LEVEL ( 'unclassified' ) ;
#354 = ORIENTED_EDGE ( 'NONE', *, *, #611, .T. ) ;
#355 = FACE_OUTER_BOUND ( 'NONE', #176, .T. ) ;
#356 = DIRECTION ( 'NONE',  ( -1.000000000000000000, 0.000000000000000000, 0.000000000000000000 ) ) ;
#357 = VERTEX_POINT ( 'NONE', #579 ) ;
#358 = LINE ( 'NONE', #211, #400 ) ;
#359 = DIRECTION ( 'NONE',  ( -1.000000000000000000, 0.000000000000000000, 0.000000000000000000 ) ) ;
#360 = EDGE_CURVE ( 'NONE', #328, #116, #475, .T. ) ;
#361 = FACE_OUTER_BOUND ( 'NONE', #300, .T. ) ;
#362 = FACE_OUTER_BOUND ( 'NONE', #617, .T. ) ;
#363 = AXIS2_PLACEMENT_3D ( 'NONE', #553, #805, #236 ) ;
#364 = ORIENTED_EDGE ( 'NONE', *, *, #824, .T. ) ;
#365 = VECTOR ( 'NONE', #732, 1000.000000000000000 ) ;
#366 = EDGE_CURVE ( 'NONE', #66, #275, #680, .T. ) ;
#367 = EDGE_LOOP ( 'NONE', ( #50, #578, #28, #757 ) ) ;
#368 = DIRECTION ( 'NONE',  ( 1.000000000000000000, 0.000000000000000000, 0.000000000000000000 ) ) ;
#369 = CALENDAR_DATE ( 2026, 7, 9 ) ;
#370 = DIRECTION ( 'NONE',  ( 0.000000000000000000, 0.000000000000000000, -1.000000000000000000 ) ) ;
#371 = VERTEX_POINT ( 'NONE', #287 ) ;
#372 = ORIENTED_EDGE ( 'NONE', *, *, #250, .T. ) ;
#373 = FACE_BOUND ( 'NONE', #314, .T. ) ;
#374 = CC_DESIGN_PERSON_AND_ORGANIZATION_ASSIGNMENT ( #151, #347, ( #715 ) ) ;
#375 = CIRCLE ( 'NONE', #8, 3.275000000000000355 ) ;
#376 = DIRECTION ( 'NONE',  ( 1.000000000000000000, 0.000000000000000000, 0.000000000000000000 ) ) ;
#377 = DIRECTION ( 'NONE',  ( 0.000000000000000000, 0.000000000000000000, -1.000000000000000000 ) ) ;
#378 = ORIENTED_EDGE ( 'NONE', *, *, #127, .T. ) ;
#379 = CC_DESIGN_SECURITY_CLASSIFICATION ( #326, ( #439 ) ) ;
#380 = CARTESIAN_POINT ( 'NONE',  ( -26.82499999999999929, -11.00000000000000000, 8.000000000000000000 ) ) ;
#381 = DIRECTION ( 'NONE',  ( -0.000000000000000000, -0.000000000000000000, 1.000000000000000000 ) ) ;
#382 = ORIENTED_EDGE ( 'NONE', *, *, #499, .T. ) ;
#383 = CARTESIAN_POINT ( 'NONE',  ( 60.00000000000000000, -17.00000000000000000, 8.000000000000000000 ) ) ;
#384 = CYLINDRICAL_SURFACE ( 'NONE', #559, 3.225000000000000089 ) ;
#385 = EDGE_LOOP ( 'NONE', ( #607, #279, #40, #194 ) ) ;
#386 = VECTOR ( 'NONE', #377, 1000.000000000000000 ) ;
#387 = DIRECTION ( 'NONE',  ( 0.000000000000000000, -0.000000000000000000, 1.000000000000000000 ) ) ;
#388 = DIRECTION ( 'NONE',  ( 0.000000000000000000, 0.000000000000000000, -1.000000000000000000 ) ) ;
#389 = ORIENTED_EDGE ( 'NONE', *, *, #634, .F. ) ;
#390 = DIRECTION ( 'NONE',  ( -1.000000000000000000, 0.000000000000000000, 0.000000000000000000 ) ) ;
#391 = AXIS2_PLACEMENT_3D ( 'NONE', #260, #190, #80 ) ;
#392 = CARTESIAN_POINT ( 'NONE',  ( 15.00000000000000000, 0.000000000000000000, 0.000000000000000000 ) ) ;
#393 = EDGE_LOOP ( 'NONE', ( #651, #455 ) ) ;
#394 = VECTOR ( 'NONE', #827, 1000.000000000000000 ) ;
#395 = EDGE_CURVE ( 'NONE', #537, #16, #33, .T. ) ;
#396 = FACE_OUTER_BOUND ( 'NONE', #235, .T. ) ;
#397 = VERTEX_POINT ( 'NONE', #98 ) ;
#398 = ADVANCED_FACE ( 'NONE', ( #662 ), #543, .F. ) ;
#399 = EDGE_CURVE ( 'NONE', #43, #623, #826, .T. ) ;
#400 = VECTOR ( 'NONE', #229, 1000.000000000000000 ) ;
#401 = ORIENTED_EDGE ( 'NONE', *, *, #725, .T. ) ;
#402 = DATE_TIME_ROLE ( 'creation_date' ) ;
#403 = VERTEX_POINT ( 'NONE', #599 ) ;
#404 = FACE_BOUND ( 'NONE', #703, .T. ) ;
#405 = APPLICATION_PROTOCOL_DEFINITION ( 'international standard', 'config_control_design', 1994, #195 ) ;
#406 = EDGE_CURVE ( 'NONE', #84, #156, #717, .T. ) ;
#407 = ORIENTED_EDGE ( 'NONE', *, *, #654, .F. ) ;
#408 = CARTESIAN_POINT ( 'NONE',  ( 3.900000000000000799, 0.000000000000000000, 0.000000000000000000 ) ) ;
#409 = PLANE ( 'NONE',  #68 ) ;
#410 = APPROVAL_DATE_TIME ( #96, #752 ) ;
#411 = AXIS2_PLACEMENT_3D ( 'NONE', #51, #185, #495 ) ;
#412 = VERTEX_POINT ( 'NONE', #408 ) ;
#413 = CARTESIAN_POINT ( 'NONE',  ( 15.00000000000000000, 0.000000000000000000, 8.000000000000000000 ) ) ;
#414 = AXIS2_PLACEMENT_3D ( 'NONE', #637, #576, #184 ) ;
#415 = FACE_OUTER_BOUND ( 'NONE', #829, .T. ) ;
#416 = ORIENTED_EDGE ( 'NONE', *, *, #654, .T. ) ;
#417 = CARTESIAN_POINT ( 'NONE',  ( -33.17499999999999716, -11.00000000000000000, 8.000000000000000000 ) ) ;
#418 = CC_DESIGN_APPROVAL ( #752, ( #439 ) ) ;
#419 = DIRECTION ( 'NONE',  ( -1.000000000000000000, 0.000000000000000000, 0.000000000000000000 ) ) ;
#420 = CARTESIAN_POINT ( 'NONE',  ( 26.09999999999999787, 1.359357947053561959E-15, 0.000000000000000000 ) ) ;
#421 = DIRECTION ( 'NONE',  ( 1.000000000000000000, 0.000000000000000000, 0.000000000000000000 ) ) ;
#422 = ADVANCED_FACE ( 'NONE', ( #355 ), #92, .F. ) ;
#423 = LINE ( 'NONE', #558, #574 ) ;
#424 = AXIS2_PLACEMENT_3D ( 'NONE', #816, #683, #564 ) ;
#425 = EDGE_CURVE ( 'NONE', #699, #552, #799, .T. ) ;
#426 = VERTEX_POINT ( 'NONE', #731 ) ;
#427 = DIRECTION ( 'NONE',  ( 0.000000000000000000, 0.000000000000000000, -1.000000000000000000 ) ) ;
#428 = AXIS2_PLACEMENT_3D ( 'NONE', #331, #453, #587 ) ;
#429 = DIRECTION ( 'NONE',  ( 0.000000000000000000, 0.000000000000000000, -1.000000000000000000 ) ) ;
#430 = CARTESIAN_POINT ( 'NONE',  ( 30.00000000000000000, -11.00000000000000000, 8.000000000000000000 ) ) ;
#431 = EDGE_CURVE ( 'NONE', #254, #84, #276, .T. ) ;
#432 = DIRECTION ( 'NONE',  ( 0.000000000000000000, 0.000000000000000000, -1.000000000000000000 ) ) ;
#433 = DIRECTION ( 'NONE',  ( -1.000000000000000000, 0.000000000000000000, 0.000000000000000000 ) ) ;
#434 = ORIENTED_EDGE ( 'NONE', *, *, #188, .F. ) ;
#435 = VECTOR ( 'NONE', #6, 1000.000000000000000 ) ;
#436 = DIRECTION ( 'NONE',  ( 0.000000000000000000, 0.000000000000000000, -1.000000000000000000 ) ) ;
#437 = FACE_BOUND ( 'NONE', #465, .T. ) ;
#438 = ORIENTED_EDGE ( 'NONE', *, *, #270, .T. ) ;
#439 = PRODUCT_DEFINITION_FORMATION_WITH_SPECIFIED_SOURCE ( 'ANY', '', #715, .NOT_KNOWN. ) ;
#440 = CYLINDRICAL_SURFACE ( 'NONE', #414, 10.99999999999999645 ) ;
#441 = DIRECTION ( 'NONE',  ( -1.000000000000000000, 0.000000000000000000, 0.000000000000000000 ) ) ;
#442 = ORIENTED_EDGE ( 'NONE', *, *, #499, .F. ) ;
#443 = DIRECTION ( 'NONE',  ( 0.000000000000000000, 0.000000000000000000, -1.000000000000000000 ) ) ;
#444 = DIRECTION ( 'NONE',  ( -0.000000000000000000, -0.000000000000000000, 1.000000000000000000 ) ) ;
#445 = ORIENTED_EDGE ( 'NONE', *, *, #490, .T. ) ;
#446 = CARTESIAN_POINT ( 'NONE',  ( 45.00000000000000000, 0.000000000000000000, 0.000000000000000000 ) ) ;
#447 = AXIS2_PLACEMENT_3D ( 'NONE', #643, #199, #129 ) ;
#448 = CARTESIAN_POINT ( 'NONE',  ( -60.00000000000000000, -17.00000000000000000, 8.000000000000000000 ) ) ;
#449 = VECTOR ( 'NONE', #154, 1000.000000000000000 ) ;
#450 = CARTESIAN_POINT ( 'NONE',  ( 26.72499999999999787, -11.00000000000000000, 0.000000000000000000 ) ) ;
#451 = ORIENTED_EDGE ( 'NONE', *, *, #668, .F. ) ;
#452 = CARTESIAN_POINT ( 'NONE',  ( -30.00000000000000000, -11.00000000000000000, 0.000000000000000000 ) ) ;
#453 = DIRECTION ( 'NONE',  ( -0.000000000000000000, -0.000000000000000000, 1.000000000000000000 ) ) ;
#454 = EDGE_CURVE ( 'NONE', #113, #537, #358, .T. ) ;
#455 = ORIENTED_EDGE ( 'NONE', *, *, #490, .F. ) ;
#456 = EDGE_CURVE ( 'NONE', #72, #245, #652, .T. ) ;
#457 = AXIS2_PLACEMENT_3D ( 'NONE', #169, #110, #252 ) ;
#458 = DATE_AND_TIME ( #793, #670 ) ;
#459 = ORIENTED_EDGE ( 'NONE', *, *, #606, .T. ) ;
#460 = APPROVAL_STATUS ( 'not_yet_approved' ) ;
#461 = AXIS2_PLACEMENT_3D ( 'NONE', #448, #246, #387 ) ;
#462 = VERTEX_POINT ( 'NONE', #735 ) ;
#463 = CARTESIAN_POINT ( 'NONE',  ( -30.00000000000000000, -11.00000000000000000, 8.000000000000000000 ) ) ;
#464 = EDGE_CURVE ( 'NONE', #19, #292, #691, .T. ) ;
#465 = EDGE_LOOP ( 'NONE', ( #595, #459 ) ) ;
#466 = FACE_BOUND ( 'NONE', #82, .T. ) ;
#467 = MANIFOLD_SOLID_BREP ( 'Dowel_fit_trial_through', #73 ) ;
#468 = DIRECTION ( 'NONE',  ( 0.000000000000000000, 0.000000000000000000, -1.000000000000000000 ) ) ;
#469 = SHAPE_DEFINITION_REPRESENTATION ( #659, #517 ) ;
#470 = VERTEX_POINT ( 'NONE', #786 ) ;
#471 = CARTESIAN_POINT ( 'NONE',  ( -3.949999999999998845, 1.353234713057825478E-15, 8.000000000000000000 ) ) ;
#472 = DIRECTION ( 'NONE',  ( 0.000000000000000000, 0.000000000000000000, 1.000000000000000000 ) ) ;
#473 = VERTEX_POINT ( 'NONE', #604 ) ;
#474 = CARTESIAN_POINT ( 'NONE',  ( -60.00000000000000000, 17.00000000000000000, 8.000000000000000000 ) ) ;
#475 = CIRCLE ( 'NONE', #212, 11.15000000000000036 ) ;
#476 = CARTESIAN_POINT ( 'NONE',  ( 59.32500000000000284, -11.00000000000000000, 0.000000000000000000 ) ) ;
#477 = ORIENTED_EDGE ( 'NONE', *, *, #296, .F. ) ;
#478 = CARTESIAN_POINT ( 'NONE',  ( 56.00000000000000000, -11.00000000000000000, 0.000000000000000000 ) ) ;
#479 = CC_DESIGN_PERSON_AND_ORGANIZATION_ASSIGNMENT ( #18, #301, ( #439 ) ) ;
#480 = LOCAL_TIME ( 16, 16, 14.00000000000000000, #269 ) ;
#481 = FACE_OUTER_BOUND ( 'NONE', #215, .T. ) ;
#482 = CC_DESIGN_PERSON_AND_ORGANIZATION_ASSIGNMENT ( #525, #742, ( #105 ) ) ;
#483 = FACE_OUTER_BOUND ( 'NONE', #385, .T. ) ;
#484 = CARTESIAN_POINT ( 'NONE',  ( 26.72499999999999787, -11.00000000000000000, 8.000000000000000000 ) ) ;
#485 = DIRECTION ( 'NONE',  ( -1.000000000000000000, 0.000000000000000000, 0.000000000000000000 ) ) ;
#486 = DIRECTION ( 'NONE',  ( 0.000000000000000000, 0.000000000000000000, 1.000000000000000000 ) ) ;
#487 = AXIS2_PLACEMENT_3D ( 'NONE', #478, #350, #657 ) ;
#488 = ORIENTED_EDGE ( 'NONE', *, *, #187, .T. ) ;
#489 = AXIS2_PLACEMENT_3D ( 'NONE', #221, #472, #99 ) ;
#490 = EDGE_CURVE ( 'NONE', #403, #254, #304, .T. ) ;
#491 = LINE ( 'NONE', #309, #386 ) ;
#492 = EDGE_LOOP ( 'NONE', ( #790, #119, #257, #243 ) ) ;
#493 = DIRECTION ( 'NONE',  ( 1.000000000000000000, 0.000000000000000000, 0.000000000000000000 ) ) ;
#494 = ORIENTED_EDGE ( 'NONE', *, *, #312, .T. ) ;
#495 = DIRECTION ( 'NONE',  ( -1.000000000000000000, 0.000000000000000000, 0.000000000000000000 ) ) ;
#496 = ORIENTED_EDGE ( 'NONE', *, *, #535, .T. ) ;
#497 = CYLINDRICAL_SURFACE ( 'NONE', #515, 11.05000000000000071 ) ;
#498 = DIRECTION ( 'NONE',  ( 0.000000000000000000, 0.000000000000000000, -1.000000000000000000 ) ) ;
#499 = EDGE_CURVE ( 'NONE', #639, #812, #540, .T. ) ;
#500 = ORIENTED_EDGE ( 'NONE', *, *, #10, .F. ) ;
#501 = AXIS2_PLACEMENT_3D ( 'NONE', #613, #167, #421 ) ;
#502 = CARTESIAN_POINT ( 'NONE',  ( -30.00000000000000000, -11.00000000000000000, 8.000000000000000000 ) ) ;
#503 = LINE ( 'NONE', #193, #14 ) ;
#504 = EDGE_LOOP ( 'NONE', ( #573, #809, #372, #753 ) ) ;
#505 = ADVANCED_FACE ( 'NONE', ( #17, #404, #272, #216, #522, #89, #346, #466, #25 ), #280, .F. ) ;
#506 = FACE_OUTER_BOUND ( 'NONE', #107, .T. ) ;
#507 = CARTESIAN_POINT ( 'NONE',  ( 15.00000000000000000, 0.000000000000000000, 0.000000000000000000 ) ) ;
#508 = ORIENTED_EDGE ( 'NONE', *, *, #632, .F. ) ;
#509 = EDGE_CURVE ( 'NONE', #66, #412, #111, .T. ) ;
#510 = CARTESIAN_POINT ( 'NONE',  ( 33.85000000000000142, 0.000000000000000000, 8.000000000000000000 ) ) ;
#511 = CARTESIAN_POINT ( 'NONE',  ( 56.00000000000000000, -11.00000000000000000, 0.000000000000000000 ) ) ;
#512 = EDGE_LOOP ( 'NONE', ( #389, #521, #488, #588 ) ) ;
#513 = CARTESIAN_POINT ( 'NONE',  ( 56.00000000000000000, -11.00000000000000000, 8.000000000000000000 ) ) ;
#514 = EDGE_CURVE ( 'NONE', #699, #644, #640, .T. ) ;
#515 = AXIS2_PLACEMENT_3D ( 'NONE', #754, #49, #642 ) ;
#516 =( LENGTH_UNIT ( ) NAMED_UNIT ( * ) SI_UNIT ( .MILLI., .METRE. ) );
#517 = ADVANCED_BREP_SHAPE_REPRESENTATION ( 'FIT-001_Dowel_and_bearing_trial', ( #467, #733 ), #645 ) ;
#518 = ORIENTED_EDGE ( 'NONE', *, *, #283, .F. ) ;
#519 = ORIENTED_EDGE ( 'NONE', *, *, #188, .T. ) ;
#520 = COORDINATED_UNIVERSAL_TIME_OFFSET ( 6, 0, .BEHIND. ) ;
#521 = ORIENTED_EDGE ( 'NONE', *, *, #632, .T. ) ;
#522 = FACE_BOUND ( 'NONE', #24, .T. ) ;
#523 = EDGE_CURVE ( 'NONE', #289, #470, #743, .T. ) ;
#524 = CIRCLE ( 'NONE', #108, 11.15000000000000036 ) ;
#525 = PERSON_AND_ORGANIZATION ( #30, #71 ) ;
#526 = AXIS2_PLACEMENT_3D ( 'NONE', #62, #763, #131 ) ;
#527 = EDGE_LOOP ( 'NONE', ( #382, #496, #349, #38 ) ) ;
#528 = CARTESIAN_POINT ( 'NONE',  ( 30.00000000000000000, -11.00000000000000000, 8.000000000000000000 ) ) ;
#529 = CARTESIAN_POINT ( 'NONE',  ( 26.72499999999999787, -11.00000000000000000, 8.000000000000000000 ) ) ;
#530 = APPROVAL_ROLE ( '' ) ;
#531 = APPROVAL_PERSON_ORGANIZATION ( #779, #338, #530 ) ;
#532 = ORIENTED_EDGE ( 'NONE', *, *, #762, .T. ) ;
#533 = CARTESIAN_POINT ( 'NONE',  ( 0.000000000000000000, 0.000000000000000000, 8.000000000000000000 ) ) ;
#534 = CARTESIAN_POINT ( 'NONE',  ( 26.09999999999999787, 1.359357947053561959E-15, 8.000000000000000000 ) ) ;
#535 = EDGE_CURVE ( 'NONE', #812, #470, #491, .T. ) ;
#536 = COORDINATED_UNIVERSAL_TIME_OFFSET ( 6, 0, .BEHIND. ) ;
#537 = VERTEX_POINT ( 'NONE', #303 ) ;
#538 = CARTESIAN_POINT ( 'NONE',  ( -30.00000000000000000, -11.00000000000000000, 0.000000000000000000 ) ) ;
#539 = CARTESIAN_POINT ( 'NONE',  ( 45.00000000000000000, 0.000000000000000000, 0.000000000000000000 ) ) ;
#540 = CIRCLE ( 'NONE', #291, 3.225000000000000089 ) ;
#541 = EDGE_CURVE ( 'NONE', #308, #726, #748, .T. ) ;
#542 = CARTESIAN_POINT ( 'NONE',  ( 15.00000000000000000, 0.000000000000000000, 8.000000000000000000 ) ) ;
#543 = CYLINDRICAL_SURFACE ( 'NONE', #783, 3.275000000000000355 ) ;
#544 = ADVANCED_FACE ( 'NONE', ( #55 ), #692, .F. ) ;
#545 = ORIENTED_EDGE ( 'NONE', *, *, #425, .T. ) ;
#546 = DIRECTION ( 'NONE',  ( -1.000000000000000000, 0.000000000000000000, 0.000000000000000000 ) ) ;
#547 = ORIENTED_EDGE ( 'NONE', *, *, #164, .F. ) ;
#548 = CARTESIAN_POINT ( 'NONE',  ( -60.00000000000000000, -17.00000000000000000, 8.000000000000000000 ) ) ;
#549 = LOCAL_TIME ( 16, 16, 14.00000000000000000, #520 ) ;
#550 = EDGE_LOOP ( 'NONE', ( #686, #603 ) ) ;
#551 = VECTOR ( 'NONE', #429, 1000.000000000000000 ) ;
#552 = VERTEX_POINT ( 'NONE', #313 ) ;
#553 = CARTESIAN_POINT ( 'NONE',  ( -15.00000000000000000, 0.000000000000000000, 8.000000000000000000 ) ) ;
#554 = ORIENTED_EDGE ( 'NONE', *, *, #213, .T. ) ;
#555 = ADVANCED_FACE ( 'NONE', ( #179 ), #46, .F. ) ;
#556 = DIRECTION ( 'NONE',  ( 1.000000000000000000, 0.000000000000000000, 0.000000000000000000 ) ) ;
#557 = CARTESIAN_POINT ( 'NONE',  ( 60.00000000000000000, -17.00000000000000000, 0.000000000000000000 ) ) ;
#558 = CARTESIAN_POINT ( 'NONE',  ( 56.14999999999999858, 1.365481181049298835E-15, 8.000000000000000000 ) ) ;
#559 = AXIS2_PLACEMENT_3D ( 'NONE', #635, #388, #650 ) ;
#560 = ORIENTED_EDGE ( 'NONE', *, *, #21, .F. ) ;
#561 = CIRCLE ( 'NONE', #772, 11.05000000000000071 ) ;
#562 = CARTESIAN_POINT ( 'NONE',  ( 60.00000000000000000, 17.00000000000000000, 8.000000000000000000 ) ) ;
#563 = ORIENTED_EDGE ( 'NONE', *, *, #399, .F. ) ;
#564 = DIRECTION ( 'NONE',  ( 1.000000000000000000, 0.000000000000000000, 0.000000000000000000 ) ) ;
#565 = ORIENTED_EDGE ( 'NONE', *, *, #456, .T. ) ;
#566 = AXIS2_PLACEMENT_3D ( 'NONE', #392, #444, #591 ) ;
#567 = CYLINDRICAL_SURFACE ( 'NONE', #284, 3.174999999999997158 ) ;
#568 = CARTESIAN_POINT ( 'NONE',  ( -15.00000000000000000, 0.000000000000000000, 8.000000000000000000 ) ) ;
#569 = ORIENTED_EDGE ( 'NONE', *, *, #663, .F. ) ;
#570 = CARTESIAN_POINT ( 'NONE',  ( -34.00000000000000000, 1.347111479062088010E-15, 8.000000000000000000 ) ) ;
#571 = CARTESIAN_POINT ( 'NONE',  ( 60.00000000000000000, 17.00000000000000000, 8.000000000000000000 ) ) ;
#572 = CC_DESIGN_DATE_AND_TIME_ASSIGNMENT ( #173, #402, ( #105 ) ) ;
#573 = ORIENTED_EDGE ( 'NONE', *, *, #174, .T. ) ;
#574 = VECTOR ( 'NONE', #679, 1000.000000000000000 ) ;
#575 = AXIS2_PLACEMENT_3D ( 'NONE', #230, #773, #226 ) ;
#576 = DIRECTION ( 'NONE',  ( 0.000000000000000000, 0.000000000000000000, -1.000000000000000000 ) ) ;
#577 = CARTESIAN_POINT ( 'NONE',  ( -3.949999999999998845, 1.353234713057825478E-15, 8.000000000000000000 ) ) ;
#578 = ORIENTED_EDGE ( 'NONE', *, *, #296, .T. ) ;
#579 = CARTESIAN_POINT ( 'NONE',  ( -34.00000000000000000, 1.347111479062088010E-15, 0.000000000000000000 ) ) ;
#580 = AXIS2_PLACEMENT_3D ( 'NONE', #542, #804, #485 ) ;
#581 = LINE ( 'NONE', #1, #201 ) ;
#582 = LINE ( 'NONE', #764, #198 ) ;
#583 = ORIENTED_EDGE ( 'NONE', *, *, #147, .F. ) ;
#584 = VECTOR ( 'NONE', #682, 1000.000000000000000 ) ;
#585 = ADVANCED_FACE ( 'NONE', ( #247, #437, #745, #118, #170, #625, #299, #373, #362 ), #244, .T. ) ;
#586 = CARTESIAN_POINT ( 'NONE',  ( -3.225000000000000089, -11.00000000000000000, 8.000000000000000000 ) ) ;
#587 = DIRECTION ( 'NONE',  ( -1.000000000000000000, 0.000000000000000000, 0.000000000000000000 ) ) ;
#588 = ORIENTED_EDGE ( 'NONE', *, *, #360, .F. ) ;
#589 = DIRECTION ( 'NONE',  ( -0.000000000000000000, -0.000000000000000000, 1.000000000000000000 ) ) ;
#590 = CIRCLE ( 'NONE', #575, 11.09999999999999787 ) ;
#591 = DIRECTION ( 'NONE',  ( -1.000000000000000000, 0.000000000000000000, 0.000000000000000000 ) ) ;
#592 = ORIENTED_EDGE ( 'NONE', *, *, #788, .F. ) ;
#593 = CALENDAR_DATE ( 2026, 7, 9 ) ;
#594 = EDGE_CURVE ( 'NONE', #812, #639, #132, .T. ) ;
#595 = ORIENTED_EDGE ( 'NONE', *, *, #523, .T. ) ;
#596 = DIRECTION ( 'NONE',  ( 1.000000000000000000, 0.000000000000000000, 0.000000000000000000 ) ) ;
#597 = PERSON_AND_ORGANIZATION ( #30, #71 ) ;
#598 = ORIENTED_EDGE ( 'NONE', *, *, #725, .F. ) ;
#599 = CARTESIAN_POINT ( 'NONE',  ( -26.82499999999999929, -11.00000000000000000, 8.000000000000000000 ) ) ;
#600 = CIRCLE ( 'NONE', #411, 3.225000000000000089 ) ;
#601 = COORDINATED_UNIVERSAL_TIME_OFFSET ( 6, 0, .BEHIND. ) ;
#602 = AXIS2_PLACEMENT_3D ( 'NONE', #265, #669, #419 ) ;
#603 = ORIENTED_EDGE ( 'NONE', *, *, #248, .F. ) ;
#604 = CARTESIAN_POINT ( 'NONE',  ( 33.27499999999999858, -11.00000000000000000, 0.000000000000000000 ) ) ;
#605 = CYLINDRICAL_SURFACE ( 'NONE', #602, 3.325000000000001510 ) ;
#606 = EDGE_CURVE ( 'NONE', #470, #289, #600, .T. ) ;
#607 = ORIENTED_EDGE ( 'NONE', *, *, #425, .F. ) ;
#608 = DIRECTION ( 'NONE',  ( 1.000000000000000000, 0.000000000000000000, 0.000000000000000000 ) ) ;
#609 = CARTESIAN_POINT ( 'NONE',  ( -15.00000000000000000, 0.000000000000000000, 0.000000000000000000 ) ) ;
#610 = CC_DESIGN_PERSON_AND_ORGANIZATION_ASSIGNMENT ( #597, #789, ( #439 ) ) ;
#611 = EDGE_CURVE ( 'NONE', #308, #777, #808, .T. ) ;
#612 = EDGE_LOOP ( 'NONE', ( #817, #263 ) ) ;
#613 = CARTESIAN_POINT ( 'NONE',  ( 56.00000000000000000, -11.00000000000000000, 8.000000000000000000 ) ) ;
#614 = CARTESIAN_POINT ( 'NONE',  ( -30.00000000000000000, -11.00000000000000000, 8.000000000000000000 ) ) ;
#615 = VECTOR ( 'NONE', #370, 1000.000000000000000 ) ;
#616 = DIRECTION ( 'NONE',  ( 0.000000000000000000, 0.000000000000000000, 1.000000000000000000 ) ) ;
#617 = EDGE_LOOP ( 'NONE', ( #186, #88, #560, #434 ) ) ;
#618 = CARTESIAN_POINT ( 'NONE',  ( -3.225000000000000089, -11.00000000000000000, 8.000000000000000000 ) ) ;
#619 = EDGE_CURVE ( 'NONE', #317, #191, #39, .T. ) ;
#620 = DATE_AND_TIME ( #369, #480 ) ;
#621 = ORIENTED_EDGE ( 'NONE', *, *, #464, .T. ) ;
#622 = CARTESIAN_POINT ( 'NONE',  ( 0.000000000000000000, -11.00000000000000000, 0.000000000000000000 ) ) ;
#623 = VERTEX_POINT ( 'NONE', #802 ) ;
#624 = ORIENTED_EDGE ( 'NONE', *, *, #360, .T. ) ;
#625 = FACE_BOUND ( 'NONE', #204, .T. ) ;
#626 = ORIENTED_EDGE ( 'NONE', *, *, #37, .F. ) ;
#627 = VECTOR ( 'NONE', #712, 1000.000000000000000 ) ;
#628 = CARTESIAN_POINT ( 'NONE',  ( 60.00000000000000000, -17.00000000000000000, 8.000000000000000000 ) ) ;
#629 = CARTESIAN_POINT ( 'NONE',  ( -60.00000000000000000, -17.00000000000000000, 8.000000000000000000 ) ) ;
#630 = ORIENTED_EDGE ( 'NONE', *, *, #197, .F. ) ;
#631 = CIRCLE ( 'NONE', #203, 11.09999999999999787 ) ;
#632 = EDGE_CURVE ( 'NONE', #623, #43, #524, .T. ) ;
#633 = CARTESIAN_POINT ( 'NONE',  ( -26.82499999999999929, -11.00000000000000000, 0.000000000000000000 ) ) ;
#634 = EDGE_CURVE ( 'NONE', #623, #328, #423, .T. ) ;
#635 = CARTESIAN_POINT ( 'NONE',  ( 0.000000000000000000, -11.00000000000000000, 8.000000000000000000 ) ) ;
#636 = EDGE_LOOP ( 'NONE', ( #785, #302, #820, #345 ) ) ;
#637 = CARTESIAN_POINT ( 'NONE',  ( -45.00000000000000000, 0.000000000000000000, 8.000000000000000000 ) ) ;
#638 = LINE ( 'NONE', #823, #334 ) ;
#639 = VERTEX_POINT ( 'NONE', #618 ) ;
#640 = CIRCLE ( 'NONE', #36, 11.05000000000000071 ) ;
#641 = VECTOR ( 'NONE', #307, 1000.000000000000000 ) ;
#642 = DIRECTION ( 'NONE',  ( -1.000000000000000000, 0.000000000000000000, 0.000000000000000000 ) ) ;
#643 = CARTESIAN_POINT ( 'NONE',  ( -45.00000000000000000, 0.000000000000000000, 0.000000000000000000 ) ) ;
#644 = VERTEX_POINT ( 'NONE', #42 ) ;
#645 =( GEOMETRIC_REPRESENTATION_CONTEXT ( 3 ) GLOBAL_UNCERTAINTY_ASSIGNED_CONTEXT ( ( #222 ) ) GLOBAL_UNIT_ASSIGNED_CONTEXT ( ( #516, #143, #90 ) ) REPRESENTATION_CONTEXT ( 'NONE', 'WORKASPACE' ) );
#646 = CYLINDRICAL_SURFACE ( 'NONE', #22, 3.325000000000001510 ) ;
#647 = DIRECTION ( 'NONE',  ( -1.000000000000000000, 0.000000000000000000, 0.000000000000000000 ) ) ;
#648 = ORIENTED_EDGE ( 'NONE', *, *, #366, .T. ) ;
#649 = CARTESIAN_POINT ( 'NONE',  ( 59.32500000000000284, -11.00000000000000000, 8.000000000000000000 ) ) ;
#650 = DIRECTION ( 'NONE',  ( -1.000000000000000000, 0.000000000000000000, 0.000000000000000000 ) ) ;
#651 = ORIENTED_EDGE ( 'NONE', *, *, #65, .F. ) ;
#652 = CIRCLE ( 'NONE', #487, 3.325000000000001510 ) ;
#653 = ORIENTED_EDGE ( 'NONE', *, *, #10, .T. ) ;
#654 = EDGE_CURVE ( 'NONE', #644, #699, #63, .T. ) ;
#655 = VECTOR ( 'NONE', #709, 1000.000000000000000 ) ;
#656 = ORIENTED_EDGE ( 'NONE', *, *, #509, .F. ) ;
#657 = DIRECTION ( 'NONE',  ( -1.000000000000000000, 0.000000000000000000, 0.000000000000000000 ) ) ;
#658 = AXIS2_PLACEMENT_3D ( 'NONE', #744, #798, #734 ) ;
#659 = PRODUCT_DEFINITION_SHAPE ( 'NONE', 'NONE',  #105 ) ;
#660 = APPROVAL_ROLE ( '' ) ;
#661 = ORIENTED_EDGE ( 'NONE', *, *, #395, .T. ) ;
#662 = FACE_OUTER_BOUND ( 'NONE', #710, .T. ) ;
#663 = EDGE_CURVE ( 'NONE', #357, #397, #209, .T. ) ;
#664 = DIRECTION ( 'NONE',  ( 0.000000000000000000, 0.000000000000000000, 1.000000000000000000 ) ) ;
#665 = AXIS2_PLACEMENT_3D ( 'NONE', #513, #202, #796 ) ;
#666 = ORIENTED_EDGE ( 'NONE', *, *, #634, .T. ) ;
#667 = CARTESIAN_POINT ( 'NONE',  ( -60.00000000000000000, -17.00000000000000000, 0.000000000000000000 ) ) ;
#668 = EDGE_CURVE ( 'NONE', #19, #72, #582, .T. ) ;
#669 = DIRECTION ( 'NONE',  ( 0.000000000000000000, 0.000000000000000000, -1.000000000000000000 ) ) ;
#670 = LOCAL_TIME ( 16, 16, 14.00000000000000000, #44 ) ;
#671 = EDGE_LOOP ( 'NONE', ( #224, #210, #271, #3 ) ) ;
#672 = DIRECTION ( 'NONE',  ( 0.000000000000000000, 0.000000000000000000, -1.000000000000000000 ) ) ;
#673 = CYLINDRICAL_SURFACE ( 'NONE', #320, 3.174999999999997158 ) ;
#674 = AXIS2_PLACEMENT_3D ( 'NONE', #502, #319, #493 ) ;
#675 = EDGE_LOOP ( 'NONE', ( #416, #545, #130, #626 ) ) ;
#676 = DIRECTION ( 'NONE',  ( 0.000000000000000000, 0.000000000000000000, 1.000000000000000000 ) ) ;
#677 = EDGE_LOOP ( 'NONE', ( #519, #249, #706, #401 ) ) ;
#678 = CIRCLE ( 'NONE', #447, 10.99999999999999645 ) ;
#679 = DIRECTION ( 'NONE',  ( 0.000000000000000000, 0.000000000000000000, -1.000000000000000000 ) ) ;
#680 = CIRCLE ( 'NONE', #227, 11.09999999999999787 ) ;
#681 = EDGE_LOOP ( 'NONE', ( #774, #146 ) ) ;
#682 = DIRECTION ( 'NONE',  ( 0.000000000000000000, 1.000000000000000000, 0.000000000000000000 ) ) ;
#683 = DIRECTION ( 'NONE',  ( 0.000000000000000000, 0.000000000000000000, 1.000000000000000000 ) ) ;
#684 = CIRCLE ( 'NONE', #700, 3.325000000000001510 ) ;
#685 = VECTOR ( 'NONE', #178, 1000.000000000000000 ) ;
#686 = ORIENTED_EDGE ( 'NONE', *, *, #464, .F. ) ;
#687 = CARTESIAN_POINT ( 'NONE',  ( -60.00000000000000000, -17.00000000000000000, 0.000000000000000000 ) ) ;
#688 = DIRECTION ( 'NONE',  ( 0.000000000000000000, 0.000000000000000000, -1.000000000000000000 ) ) ;
#689 = EDGE_CURVE ( 'NONE', #397, #357, #678, .T. ) ;
#690 = LINE ( 'NONE', #120, #109 ) ;
#691 = CIRCLE ( 'NONE', #501, 3.325000000000001510 ) ;
#692 = CYLINDRICAL_SURFACE ( 'NONE', #94, 3.275000000000000355 ) ;
#693 = ORIENTED_EDGE ( 'NONE', *, *, #310, .F. ) ;
#694 = CC_DESIGN_DATE_AND_TIME_ASSIGNMENT ( #620, #784, ( #326 ) ) ;
#695 = VECTOR ( 'NONE', #720, 1000.000000000000000 ) ;
#696 = ADVANCED_FACE ( 'NONE', ( #139 ), #384, .F. ) ;
#697 = CARTESIAN_POINT ( 'NONE',  ( 3.900000000000000799, 0.000000000000000000, 8.000000000000000000 ) ) ;
#698 = CARTESIAN_POINT ( 'NONE',  ( -45.00000000000000000, 0.000000000000000000, 0.000000000000000000 ) ) ;
#699 = VERTEX_POINT ( 'NONE', #577 ) ;
#700 = AXIS2_PLACEMENT_3D ( 'NONE', #511, #335, #441 ) ;
#701 = CARTESIAN_POINT ( 'NONE',  ( 45.00000000000000000, 0.000000000000000000, 8.000000000000000000 ) ) ;
#702 = DIRECTION ( 'NONE',  ( -0.000000000000000000, -0.000000000000000000, 1.000000000000000000 ) ) ;
#703 = EDGE_LOOP ( 'NONE', ( #442, #747 ) ) ;
#704 = DIRECTION ( 'NONE',  ( -1.000000000000000000, 0.000000000000000000, 0.000000000000000000 ) ) ;
#705 = EDGE_CURVE ( 'NONE', #275, #32, #638, .T. ) ;
#706 = ORIENTED_EDGE ( 'NONE', *, *, #619, .F. ) ;
#707 = VECTOR ( 'NONE', #121, 1000.000000000000000 ) ;
#708 = FACE_OUTER_BOUND ( 'NONE', #675, .T. ) ;
#709 = DIRECTION ( 'NONE',  ( -0.000000000000000000, -0.000000000000000000, -1.000000000000000000 ) ) ;
#710 = EDGE_LOOP ( 'NONE', ( #354, #554, #298, #126 ) ) ;
#711 = DIRECTION ( 'NONE',  ( -0.000000000000000000, -0.000000000000000000, 1.000000000000000000 ) ) ;
#712 = DIRECTION ( 'NONE',  ( 0.000000000000000000, 0.000000000000000000, -1.000000000000000000 ) ) ;
#713 = CYLINDRICAL_SURFACE ( 'NONE', #391, 10.99999999999999645 ) ;
#714 = ORIENTED_EDGE ( 'NONE', *, *, #776, .F. ) ;
#715 = PRODUCT ( 'FIT-001_Dowel_and_bearing_trial', 'FIT-001_Dowel_and_bearing_trial', '', ( #214 ) ) ;
#716 = EDGE_LOOP ( 'NONE', ( #648, #761, #592, #656 ) ) ;
#717 = CIRCLE ( 'NONE', #251, 3.174999999999997158 ) ;
#718 = ADVANCED_FACE ( 'NONE', ( #70 ), #327, .F. ) ;
#719 = ORIENTED_EDGE ( 'NONE', *, *, #248, .T. ) ;
#720 = DIRECTION ( 'NONE',  ( -0.000000000000000000, -1.000000000000000000, -0.000000000000000000 ) ) ;
#721 = CARTESIAN_POINT ( 'NONE',  ( 0.000000000000000000, 0.000000000000000000, 0.000000000000000000 ) ) ;
#722 = ORIENTED_EDGE ( 'NONE', *, *, #776, .T. ) ;
#723 = DIRECTION ( 'NONE',  ( 1.000000000000000000, 0.000000000000000000, 0.000000000000000000 ) ) ;
#724 = CARTESIAN_POINT ( 'NONE',  ( 60.00000000000000000, -17.00000000000000000, 8.000000000000000000 ) ) ;
#725 = EDGE_CURVE ( 'NONE', #317, #16, #768, .T. ) ;
#726 = VERTEX_POINT ( 'NONE', #450 ) ;
#727 = DIRECTION ( 'NONE',  ( 0.000000000000000000, 0.000000000000000000, -1.000000000000000000 ) ) ;
#728 = LINE ( 'NONE', #586, #365 ) ;
#729 = DESIGN_CONTEXT ( 'detailed design', #195, 'design' ) ;
#730 = ORIENTED_EDGE ( 'NONE', *, *, #162, .T. ) ;
#731 = CARTESIAN_POINT ( 'NONE',  ( 60.00000000000000000, -17.00000000000000000, 0.000000000000000000 ) ) ;
#732 = DIRECTION ( 'NONE',  ( 0.000000000000000000, 0.000000000000000000, -1.000000000000000000 ) ) ;
#733 = AXIS2_PLACEMENT_3D ( 'NONE', #721, #339, #556 ) ;
#734 = DIRECTION ( 'NONE',  ( -1.000000000000000000, 0.000000000000000000, 0.000000000000000000 ) ) ;
#735 = CARTESIAN_POINT ( 'NONE',  ( -26.05000000000000071, 0.000000000000000000, 0.000000000000000000 ) ) ;
#736 = DIRECTION ( 'NONE',  ( -0.000000000000000000, -0.000000000000000000, 1.000000000000000000 ) ) ;
#737 = AXIS2_PLACEMENT_3D ( 'NONE', #29, #20, #153 ) ;
#738 = CYLINDRICAL_SURFACE ( 'NONE', #457, 11.05000000000000071 ) ;
#739 = DIRECTION ( 'NONE',  ( 0.000000000000000000, 0.000000000000000000, 1.000000000000000000 ) ) ;
#740 = ORIENTED_EDGE ( 'NONE', *, *, #399, .T. ) ;
#741 = ADVANCED_FACE ( 'NONE', ( #775 ), #713, .F. ) ;
#742 = PERSON_AND_ORGANIZATION_ROLE ( 'creator' ) ;
#743 = CIRCLE ( 'NONE', #172, 3.225000000000000089 ) ;
#744 = CARTESIAN_POINT ( 'NONE',  ( 0.000000000000000000, -11.00000000000000000, 8.000000000000000000 ) ) ;
#745 = FACE_BOUND ( 'NONE', #142, .T. ) ;
#746 = VECTOR ( 'NONE', #821, 1000.000000000000000 ) ;
#747 = ORIENTED_EDGE ( 'NONE', *, *, #594, .F. ) ;
#748 = LINE ( 'NONE', #484, #615 ) ;
#749 = ORIENTED_EDGE ( 'NONE', *, *, #663, .T. ) ;
#750 = FACE_OUTER_BOUND ( 'NONE', #268, .T. ) ;
#751 = CARTESIAN_POINT ( 'NONE',  ( 30.00000000000000000, -11.00000000000000000, 8.000000000000000000 ) ) ;
#752 = APPROVAL ( #86, 'UNSPECIFIED' ) ;
#753 = ORIENTED_EDGE ( 'NONE', *, *, #147, .T. ) ;
#754 = CARTESIAN_POINT ( 'NONE',  ( -15.00000000000000000, 0.000000000000000000, 8.000000000000000000 ) ) ;
#755 = AXIS2_PLACEMENT_3D ( 'NONE', #295, #498, #756 ) ;
#756 = DIRECTION ( 'NONE',  ( -1.000000000000000000, 0.000000000000000000, -0.000000000000000000 ) ) ;
#757 = ORIENTED_EDGE ( 'NONE', *, *, #824, .F. ) ;
#758 = PRODUCT_RELATED_PRODUCT_CATEGORY ( 'detail', '', ( #715 ) ) ;
#759 = CYLINDRICAL_SURFACE ( 'NONE', #351, 11.15000000000000036 ) ;
#760 = DIRECTION ( 'NONE',  ( 0.000000000000000000, 0.000000000000000000, -1.000000000000000000 ) ) ;
#761 = ORIENTED_EDGE ( 'NONE', *, *, #705, .T. ) ;
#762 = EDGE_CURVE ( 'NONE', #245, #72, #684, .T. ) ;
#763 = DIRECTION ( 'NONE',  ( 0.000000000000000000, 0.000000000000000000, 1.000000000000000000 ) ) ;
#764 = CARTESIAN_POINT ( 'NONE',  ( 52.67499999999999716, -11.00000000000000000, 8.000000000000000000 ) ) ;
#765 = VECTOR ( 'NONE', #443, 1000.000000000000000 ) ;
#766 = ORIENTED_EDGE ( 'NONE', *, *, #788, .T. ) ;
#767 = FACE_OUTER_BOUND ( 'NONE', #677, .T. ) ;
#768 = LINE ( 'NONE', #60, #435 ) ;
#769 = VERTEX_POINT ( 'NONE', #11 ) ;
#770 = DIRECTION ( 'NONE',  ( -1.000000000000000000, 0.000000000000000000, 0.000000000000000000 ) ) ;
#771 = VECTOR ( 'NONE', #810, 1000.000000000000000 ) ;
#772 = AXIS2_PLACEMENT_3D ( 'NONE', #609, #787, #359 ) ;
#773 = DIRECTION ( 'NONE',  ( 0.000000000000000000, 0.000000000000000000, 1.000000000000000000 ) ) ;
#774 = ORIENTED_EDGE ( 'NONE', *, *, #406, .T. ) ;
#775 = FACE_OUTER_BOUND ( 'NONE', #492, .T. ) ;
#776 = EDGE_CURVE ( 'NONE', #77, #769, #321, .T. ) ;
#777 = VERTEX_POINT ( 'NONE', #124 ) ;
#778 = EDGE_CURVE ( 'NONE', #552, #462, #125, .T. ) ;
#779 = PERSON_AND_ORGANIZATION ( #30, #71 ) ;
#780 = ORIENTED_EDGE ( 'NONE', *, *, #535, .F. ) ;
#781 = DIRECTION ( 'NONE',  ( -1.000000000000000000, 0.000000000000000000, 0.000000000000000000 ) ) ;
#782 = VECTOR ( 'NONE', #672, 1000.000000000000000 ) ;
#783 = AXIS2_PLACEMENT_3D ( 'NONE', #528, #161, #781 ) ;
#784 = DATE_TIME_ROLE ( 'classification_date' ) ;
#785 = ORIENTED_EDGE ( 'NONE', *, *, #65, .T. ) ;
#786 = CARTESIAN_POINT ( 'NONE',  ( 3.225000000000000089, -11.00000000000000000, 0.000000000000000000 ) ) ;
#787 = DIRECTION ( 'NONE',  ( -0.000000000000000000, -0.000000000000000000, 1.000000000000000000 ) ) ;
#788 = EDGE_CURVE ( 'NONE', #412, #32, #341, .T. ) ;
#789 = PERSON_AND_ORGANIZATION_ROLE ( 'creator' ) ;
#790 = ORIENTED_EDGE ( 'NONE', *, *, #283, .T. ) ;
#791 = DIRECTION ( 'NONE',  ( 0.000000000000000000, 0.000000000000000000, -1.000000000000000000 ) ) ;
#792 = DIRECTION ( 'NONE',  ( 0.000000000000000000, 0.000000000000000000, -1.000000000000000000 ) ) ;
#793 = CALENDAR_DATE ( 2026, 7, 9 ) ;
#794 = ORIENTED_EDGE ( 'NONE', *, *, #127, .F. ) ;
#795 = DIRECTION ( 'NONE',  ( 0.000000000000000000, -1.000000000000000000, 0.000000000000000000 ) ) ;
#796 = DIRECTION ( 'NONE',  ( 1.000000000000000000, 0.000000000000000000, 0.000000000000000000 ) ) ;
#797 = AXIS2_PLACEMENT_3D ( 'NONE', #2, #316, #64 ) ;
#798 = DIRECTION ( 'NONE',  ( 0.000000000000000000, 0.000000000000000000, -1.000000000000000000 ) ) ;
#799 = LINE ( 'NONE', #471, #238 ) ;
#800 = FACE_OUTER_BOUND ( 'NONE', #512, .T. ) ;
#801 = CARTESIAN_POINT ( 'NONE',  ( -26.05000000000000071, 0.000000000000000000, 8.000000000000000000 ) ) ;
#802 = CARTESIAN_POINT ( 'NONE',  ( 56.14999999999999858, 1.365481181049298835E-15, 8.000000000000000000 ) ) ;
#803 = EDGE_CURVE ( 'NONE', #32, #412, #631, .T. ) ;
#804 = DIRECTION ( 'NONE',  ( 0.000000000000000000, 0.000000000000000000, -1.000000000000000000 ) ) ;
#805 = DIRECTION ( 'NONE',  ( 0.000000000000000000, 0.000000000000000000, 1.000000000000000000 ) ) ;
#806 = EDGE_LOOP ( 'NONE', ( #47, #749 ) ) ;
#807 = APPROVAL_DATE_TIME ( #458, #338 ) ;
#808 = CIRCLE ( 'NONE', #81, 3.275000000000000355 ) ;
#809 = ORIENTED_EDGE ( 'NONE', *, *, #619, .T. ) ;
#810 = DIRECTION ( 'NONE',  ( 1.000000000000000000, 0.000000000000000000, 0.000000000000000000 ) ) ;
#811 = VECTOR ( 'NONE', #432, 1000.000000000000000 ) ;
#812 = VERTEX_POINT ( 'NONE', #76 ) ;
#813 = EDGE_CURVE ( 'NONE', #769, #537, #503, .T. ) ;
#814 = DIRECTION ( 'NONE',  ( -0.000000000000000000, -1.000000000000000000, -0.000000000000000000 ) ) ;
#815 = FACE_OUTER_BOUND ( 'NONE', #671, .T. ) ;
#816 = CARTESIAN_POINT ( 'NONE',  ( 0.000000000000000000, -11.00000000000000000, 8.000000000000000000 ) ) ;
#817 = ORIENTED_EDGE ( 'NONE', *, *, #366, .F. ) ;
#818 = FACE_OUTER_BOUND ( 'NONE', #57, .T. ) ;
#819 = DIRECTION ( 'NONE',  ( 1.000000000000000000, 0.000000000000000000, 0.000000000000000000 ) ) ;
#820 = ORIENTED_EDGE ( 'NONE', *, *, #406, .F. ) ;
#821 = DIRECTION ( 'NONE',  ( 0.000000000000000000, 0.000000000000000000, -1.000000000000000000 ) ) ;
#822 = AXIS2_PLACEMENT_3D ( 'NONE', #698, #702, #133 ) ;
#823 = CARTESIAN_POINT ( 'NONE',  ( 26.09999999999999787, 1.359357947053561959E-15, 8.000000000000000000 ) ) ;
#824 = EDGE_CURVE ( 'NONE', #473, #726, #267, .T. ) ;
#825 = ORIENTED_EDGE ( 'NONE', *, *, #668, .T. ) ;
#826 = CIRCLE ( 'NONE', #737, 11.15000000000000036 ) ;
#827 = DIRECTION ( 'NONE',  ( -0.000000000000000000, -0.000000000000000000, -1.000000000000000000 ) ) ;
#828 = CARTESIAN_POINT ( 'NONE',  ( -15.00000000000000000, 0.000000000000000000, 0.000000000000000000 ) ) ;
#829 = EDGE_LOOP ( 'NONE', ( #500, #719, #825, #323 ) ) ;
ENDSEC;
END-ISO-10303-21;
