ISO-10303-21;
HEADER;
FILE_DESCRIPTION (( 'STEP AP203' ),
    '1' );
FILE_NAME ('ARM-108_M3_standoff_32mm.step',
    '2026-09-08T03:29:34',
    ( '' ),
    ( '' ),
    'SwSTEP 2.0',
    'SolidWorks 2026',
    '' );
FILE_SCHEMA (( 'CONFIG_CONTROL_DESIGN' ));
ENDSEC;

DATA;
#1 = LINE ( 'NONE', #215, #224 ) ;
#2 = PRODUCT_DEFINITION_FORMATION_WITH_SPECIFIED_SOURCE ( 'ANY', '', #237, .NOT_KNOWN. ) ;
#3 = LINE ( 'NONE', #249, #21 ) ;
#4 = EDGE_LOOP ( 'NONE', ( #168, #241 ) ) ;
#5 = COORDINATED_UNIVERSAL_TIME_OFFSET ( 6, 0, .BEHIND. ) ;
#6 = EDGE_LOOP ( 'NONE', ( #129, #166 ) ) ;
#7 =( LENGTH_UNIT ( ) NAMED_UNIT ( * ) SI_UNIT ( .MILLI., .METRE. ) );
#8 = AXIS2_PLACEMENT_3D ( 'NONE', #176, #122, #98 ) ;
#9 = ORIENTED_EDGE ( 'NONE', *, *, #90, .F. ) ;
#10 = CALENDAR_DATE ( 2026, 7, 9 ) ;
#11 = EDGE_LOOP ( 'NONE', ( #51, #85, #9, #206 ) ) ;
#12 = ORIENTED_EDGE ( 'NONE', *, *, #76, .T. ) ;
#13 = CALENDAR_DATE ( 2026, 7, 9 ) ;
#14 = UNCERTAINTY_MEASURE_WITH_UNIT (LENGTH_MEASURE( 1.000000000000000082E-05 ), #7, 'distance_accuracy_value', 'NONE');
#15 = DIRECTION ( 'NONE',  ( 1.000000000000000000, 0.000000000000000000, -0.000000000000000000 ) ) ;
#16 = APPROVAL ( #186, 'UNSPECIFIED' ) ;
#17 = ADVANCED_FACE ( 'NONE', ( #156, #187 ), #56, .F. ) ;
#18 = CIRCLE ( 'NONE', #72, 1.600000000000000089 ) ;
#19 = DIRECTION ( 'NONE',  ( -1.000000000000000000, 0.000000000000000000, 0.000000000000000000 ) ) ;
#20 = DIRECTION ( 'NONE',  ( 1.000000000000000000, 0.000000000000000000, 0.000000000000000000 ) ) ;
#21 = VECTOR ( 'NONE', #145, 1000.000000000000000 ) ;
#22 = CARTESIAN_POINT ( 'NONE',  ( -4.000000000000000000, 0.000000000000000000, 32.00000000000000000 ) ) ;
#23 = DIRECTION ( 'NONE',  ( -1.000000000000000000, 0.000000000000000000, 0.000000000000000000 ) ) ;
#24 = PRODUCT_DEFINITION ( 'UNKNOWN', '', #2, #57 ) ;
#25 = LINE ( 'NONE', #46, #36 ) ;
#26 = VERTEX_POINT ( 'NONE', #112 ) ;
#27 = DATE_AND_TIME ( #10, #113 ) ;
#28 = ORIENTED_EDGE ( 'NONE', *, *, #150, .T. ) ;
#29 = CARTESIAN_POINT ( 'NONE',  ( 0.000000000000000000, 0.000000000000000000, 0.000000000000000000 ) ) ;
#30 = CLOSED_SHELL ( 'NONE', ( #130, #40, #214, #17, #231, #209 ) ) ;
#31 = EDGE_LOOP ( 'NONE', ( #239, #88 ) ) ;
#32 = APPROVAL_ROLE ( '' ) ;
#33 = SECURITY_CLASSIFICATION_LEVEL ( 'unclassified' ) ;
#34 = EDGE_CURVE ( 'NONE', #203, #103, #137, .T. ) ;
#35 = DIRECTION ( 'NONE',  ( 0.000000000000000000, 0.000000000000000000, 1.000000000000000000 ) ) ;
#36 = VECTOR ( 'NONE', #159, 1000.000000000000000 ) ;
#37 = APPROVAL ( #204, 'UNSPECIFIED' ) ;
#38 = APPROVAL_PERSON_ORGANIZATION ( #148, #246, #220 ) ;
#39 = CARTESIAN_POINT ( 'NONE',  ( 0.000000000000000000, 0.000000000000000000, 32.00000000000000000 ) ) ;
#40 = ADVANCED_FACE ( 'NONE', ( #245 ), #116, .T. ) ;
#41 = CYLINDRICAL_SURFACE ( 'NONE', #244, 1.600000000000000089 ) ;
#42 = DIRECTION ( 'NONE',  ( 0.000000000000000000, 0.000000000000000000, 1.000000000000000000 ) ) ;
#43 = AXIS2_PLACEMENT_3D ( 'NONE', #59, #100, #178 ) ;
#44 = CARTESIAN_POINT ( 'NONE',  ( -1.600000000000000089, 0.000000000000000000, 32.00000000000000000 ) ) ;
#45 = PRODUCT_DEFINITION_SHAPE ( 'NONE', 'NONE',  #24 ) ;
#46 = CARTESIAN_POINT ( 'NONE',  ( 1.600000000000000089, 1.959434878635765230E-16, 32.00000000000000000 ) ) ;
#47 = MECHANICAL_CONTEXT ( 'NONE', #120, 'mechanical' ) ;
#48 = DIRECTION ( 'NONE',  ( 1.000000000000000000, 0.000000000000000000, 0.000000000000000000 ) ) ;
#49 = VERTEX_POINT ( 'NONE', #193 ) ;
#50 = PERSON_AND_ORGANIZATION_ROLE ( 'design_supplier' ) ;
#51 = ORIENTED_EDGE ( 'NONE', *, *, #235, .T. ) ;
#52 = PERSON_AND_ORGANIZATION ( #136, #53 ) ;
#53 = ORGANIZATION ( 'UNSPECIFIED', 'UNSPECIFIED', '' ) ;
#54 = VERTEX_POINT ( 'NONE', #232 ) ;
#55 = PERSON_AND_ORGANIZATION ( #136, #53 ) ;
#56 = PLANE ( 'NONE',  #172 ) ;
#57 = DESIGN_CONTEXT ( 'detailed design', #228, 'design' ) ;
#58 = EDGE_CURVE ( 'NONE', #180, #70, #62, .T. ) ;
#59 = CARTESIAN_POINT ( 'NONE',  ( 0.000000000000000000, 0.000000000000000000, 0.000000000000000000 ) ) ;
#60 = FACE_OUTER_BOUND ( 'NONE', #197, .T. ) ;
#61 = DIRECTION ( 'NONE',  ( 0.000000000000000000, 0.000000000000000000, 1.000000000000000000 ) ) ;
#62 = CIRCLE ( 'NONE', #184, 4.000000000000000000 ) ;
#63 = CARTESIAN_POINT ( 'NONE',  ( 0.000000000000000000, 0.000000000000000000, 32.00000000000000000 ) ) ;
#64 = FACE_OUTER_BOUND ( 'NONE', #154, .T. ) ;
#65 = APPROVAL_DATE_TIME ( #27, #16 ) ;
#66 = CC_DESIGN_PERSON_AND_ORGANIZATION_ASSIGNMENT ( #55, #200, ( #94 ) ) ;
#67 = AXIS2_PLACEMENT_3D ( 'NONE', #93, #35, #170 ) ;
#68 = APPROVAL_STATUS ( 'not_yet_approved' ) ;
#69 = APPROVAL_DATE_TIME ( #240, #246 ) ;
#70 = VERTEX_POINT ( 'NONE', #173 ) ;
#71 = DATE_AND_TIME ( #13, #115 ) ;
#72 = AXIS2_PLACEMENT_3D ( 'NONE', #144, #97, #233 ) ;
#73 = CC_DESIGN_APPROVAL ( #37, ( #94 ) ) ;
#74 = ORIENTED_EDGE ( 'NONE', *, *, #169, .F. ) ;
#75 = AXIS2_PLACEMENT_3D ( 'NONE', #63, #213, #101 ) ;
#76 = EDGE_CURVE ( 'NONE', #70, #180, #149, .T. ) ;
#77 = DIRECTION ( 'NONE',  ( 1.000000000000000000, 0.000000000000000000, 0.000000000000000000 ) ) ;
#78 = CC_DESIGN_SECURITY_CLASSIFICATION ( #94, ( #2 ) ) ;
#79 = DIRECTION ( 'NONE',  ( -0.000000000000000000, -0.000000000000000000, -1.000000000000000000 ) ) ;
#80 = CARTESIAN_POINT ( 'NONE',  ( -4.000000000000000000, 0.000000000000000000, 0.000000000000000000 ) ) ;
#81 = EDGE_CURVE ( 'NONE', #70, #203, #3, .T. ) ;
#82 = DIRECTION ( 'NONE',  ( -0.000000000000000000, -0.000000000000000000, -1.000000000000000000 ) ) ;
#83 = CC_DESIGN_APPROVAL ( #16, ( #24 ) ) ;
#84 = FACE_OUTER_BOUND ( 'NONE', #11, .T. ) ;
#85 = ORIENTED_EDGE ( 'NONE', *, *, #133, .T. ) ;
#86 = ORIENTED_EDGE ( 'NONE', *, *, #171, .T. ) ;
#87 = CIRCLE ( 'NONE', #227, 1.600000000000000089 ) ;
#88 = ORIENTED_EDGE ( 'NONE', *, *, #150, .F. ) ;
#89 =( NAMED_UNIT ( * ) PLANE_ANGLE_UNIT ( ) SI_UNIT ( $, .RADIAN. ) );
#90 = EDGE_CURVE ( 'NONE', #54, #49, #18, .T. ) ;
#91 = ORIENTED_EDGE ( 'NONE', *, *, #133, .F. ) ;
#92 = DATE_AND_TIME ( #167, #138 ) ;
#93 = CARTESIAN_POINT ( 'NONE',  ( 0.000000000000000000, 0.000000000000000000, 0.000000000000000000 ) ) ;
#94 = SECURITY_CLASSIFICATION ( '', '', #33 ) ;
#95 = AXIS2_PLACEMENT_3D ( 'NONE', #175, #229, #23 ) ;
#96 = CC_DESIGN_PERSON_AND_ORGANIZATION_ASSIGNMENT ( #109, #105, ( #24 ) ) ;
#97 = DIRECTION ( 'NONE',  ( 0.000000000000000000, 0.000000000000000000, 1.000000000000000000 ) ) ;
#98 = DIRECTION ( 'NONE',  ( 1.000000000000000000, 0.000000000000000000, 0.000000000000000000 ) ) ;
#99 = CYLINDRICAL_SURFACE ( 'NONE', #192, 4.000000000000000000 ) ;
#100 = DIRECTION ( 'NONE',  ( 0.000000000000000000, 0.000000000000000000, 1.000000000000000000 ) ) ;
#101 = DIRECTION ( 'NONE',  ( -1.000000000000000000, 0.000000000000000000, 0.000000000000000000 ) ) ;
#102 = CC_DESIGN_APPROVAL ( #246, ( #2 ) ) ;
#103 = VERTEX_POINT ( 'NONE', #80 ) ;
#104 = ORIENTED_EDGE ( 'NONE', *, *, #118, .T. ) ;
#105 = PERSON_AND_ORGANIZATION_ROLE ( 'creator' ) ;
#106 = PERSON_AND_ORGANIZATION_ROLE ( 'creator' ) ;
#107 = CIRCLE ( 'NONE', #43, 4.000000000000000000 ) ;
#108 = ORIENTED_EDGE ( 'NONE', *, *, #123, .F. ) ;
#109 = PERSON_AND_ORGANIZATION ( #136, #53 ) ;
#110 = ORIENTED_EDGE ( 'NONE', *, *, #34, .T. ) ;
#111 = CALENDAR_DATE ( 2026, 7, 9 ) ;
#112 = CARTESIAN_POINT ( 'NONE',  ( 1.600000000000000089, 1.959434878635765230E-16, 32.00000000000000000 ) ) ;
#113 = LOCAL_TIME ( 22, 29, 34.00000000000000000, #5 ) ;
#114 = CC_DESIGN_PERSON_AND_ORGANIZATION_ASSIGNMENT ( #222, #50, ( #2 ) ) ;
#115 = LOCAL_TIME ( 22, 29, 34.00000000000000000, #238 ) ;
#116 = CYLINDRICAL_SURFACE ( 'NONE', #95, 4.000000000000000000 ) ;
#117 = DIRECTION ( 'NONE',  ( 0.000000000000000000, 0.000000000000000000, 1.000000000000000000 ) ) ;
#118 = EDGE_CURVE ( 'NONE', #103, #203, #107, .T. ) ;
#119 = DIRECTION ( 'NONE',  ( 1.000000000000000000, 0.000000000000000000, -0.000000000000000000 ) ) ;
#120 = APPLICATION_CONTEXT ( 'configuration controlled 3d designs of mechanical parts and assemblies' ) ;
#121 = CARTESIAN_POINT ( 'NONE',  ( 0.000000000000000000, 0.000000000000000000, 32.00000000000000000 ) ) ;
#122 = DIRECTION ( 'NONE',  ( 0.000000000000000000, 0.000000000000000000, 1.000000000000000000 ) ) ;
#123 = EDGE_CURVE ( 'NONE', #180, #103, #1, .T. ) ;
#124 = ORIENTED_EDGE ( 'NONE', *, *, #58, .T. ) ;
#125 = PERSON_AND_ORGANIZATION_ROLE ( 'design_owner' ) ;
#126 = VERTEX_POINT ( 'NONE', #44 ) ;
#127 = EDGE_LOOP ( 'NONE', ( #225, #147, #110, #108 ) ) ;
#128 = COORDINATED_UNIVERSAL_TIME_OFFSET ( 6, 0, .BEHIND. ) ;
#129 = ORIENTED_EDGE ( 'NONE', *, *, #90, .T. ) ;
#130 = ADVANCED_FACE ( 'NONE', ( #84 ), #41, .F. ) ;
#131 = COORDINATED_UNIVERSAL_TIME_OFFSET ( 6, 0, .BEHIND. ) ;
#132 = DIRECTION ( 'NONE',  ( 0.000000000000000000, 0.000000000000000000, 1.000000000000000000 ) ) ;
#133 = EDGE_CURVE ( 'NONE', #26, #49, #25, .T. ) ;
#134 = AXIS2_PLACEMENT_3D ( 'NONE', #212, #61, #191 ) ;
#135 = SHAPE_DEFINITION_REPRESENTATION ( #45, #211 ) ;
#136 = PERSON ( 'UNSPECIFIED', 'UNSPECIFIED', 'UNSPECIFIED', ('UNSPECIFIED'), ('UNSPECIFIED'), ('UNSPECIFIED') ) ;
#137 = CIRCLE ( 'NONE', #67, 4.000000000000000000 ) ;
#138 = LOCAL_TIME ( 22, 29, 34.00000000000000000, #131 ) ;
#139 = DIRECTION ( 'NONE',  ( 0.000000000000000000, 0.000000000000000000, 1.000000000000000000 ) ) ;
#140 = CYLINDRICAL_SURFACE ( 'NONE', #75, 1.600000000000000089 ) ;
#141 = CIRCLE ( 'NONE', #8, 1.600000000000000089 ) ;
#142 = DIRECTION ( 'NONE',  ( -0.000000000000000000, -0.000000000000000000, -1.000000000000000000 ) ) ;
#143 = MANIFOLD_SOLID_BREP ( 'Standoff_OD8_ID3p2', #30 ) ;
#144 = CARTESIAN_POINT ( 'NONE',  ( 0.000000000000000000, 0.000000000000000000, 0.000000000000000000 ) ) ;
#145 = DIRECTION ( 'NONE',  ( -0.000000000000000000, -0.000000000000000000, -1.000000000000000000 ) ) ;
#146 = PRODUCT_RELATED_PRODUCT_CATEGORY ( 'detail', '', ( #237 ) ) ;
#147 = ORIENTED_EDGE ( 'NONE', *, *, #81, .T. ) ;
#148 = PERSON_AND_ORGANIZATION ( #136, #53 ) ;
#149 = CIRCLE ( 'NONE', #134, 4.000000000000000000 ) ;
#150 = EDGE_CURVE ( 'NONE', #26, #126, #218, .T. ) ;
#151 = DATE_TIME_ROLE ( 'classification_date' ) ;
#152 = COORDINATED_UNIVERSAL_TIME_OFFSET ( 6, 0, .BEHIND. ) ;
#153 = AXIS2_PLACEMENT_3D ( 'NONE', #196, #42, #119 ) ;
#154 = EDGE_LOOP ( 'NONE', ( #201, #182, #219, #104 ) ) ;
#155 = CC_DESIGN_DATE_AND_TIME_ASSIGNMENT ( #71, #202, ( #24 ) ) ;
#156 = FACE_OUTER_BOUND ( 'NONE', #4, .T. ) ;
#157 = CARTESIAN_POINT ( 'NONE',  ( 0.000000000000000000, 0.000000000000000000, 32.00000000000000000 ) ) ;
#158 = CARTESIAN_POINT ( 'NONE',  ( -1.600000000000000089, 0.000000000000000000, 32.00000000000000000 ) ) ;
#159 = DIRECTION ( 'NONE',  ( -0.000000000000000000, -0.000000000000000000, -1.000000000000000000 ) ) ;
#160 =( GEOMETRIC_REPRESENTATION_CONTEXT ( 3 ) GLOBAL_UNCERTAINTY_ASSIGNED_CONTEXT ( ( #14 ) ) GLOBAL_UNIT_ASSIGNED_CONTEXT ( ( #7, #89, #164 ) ) REPRESENTATION_CONTEXT ( 'NONE', 'WORKASPACE' ) );
#161 = CARTESIAN_POINT ( 'NONE',  ( 4.000000000000000000, 4.898587196589412829E-16, 0.000000000000000000 ) ) ;
#162 = DIRECTION ( 'NONE',  ( -1.000000000000000000, 0.000000000000000000, 0.000000000000000000 ) ) ;
#163 = PERSON_AND_ORGANIZATION ( #136, #53 ) ;
#164 =( NAMED_UNIT ( * ) SI_UNIT ( $, .STERADIAN. ) SOLID_ANGLE_UNIT ( ) );
#165 = AXIS2_PLACEMENT_3D ( 'NONE', #121, #195, #20 ) ;
#166 = ORIENTED_EDGE ( 'NONE', *, *, #169, .T. ) ;
#167 = CALENDAR_DATE ( 2026, 7, 9 ) ;
#168 = ORIENTED_EDGE ( 'NONE', *, *, #118, .F. ) ;
#169 = EDGE_CURVE ( 'NONE', #49, #54, #141, .T. ) ;
#170 = DIRECTION ( 'NONE',  ( 1.000000000000000000, 0.000000000000000000, 0.000000000000000000 ) ) ;
#171 = EDGE_CURVE ( 'NONE', #126, #54, #248, .T. ) ;
#172 = AXIS2_PLACEMENT_3D ( 'NONE', #208, #132, #15 ) ;
#173 = CARTESIAN_POINT ( 'NONE',  ( 4.000000000000000000, 4.898587196589412829E-16, 32.00000000000000000 ) ) ;
#174 = CARTESIAN_POINT ( 'NONE',  ( 0.000000000000000000, 0.000000000000000000, 32.00000000000000000 ) ) ;
#175 = CARTESIAN_POINT ( 'NONE',  ( 0.000000000000000000, 0.000000000000000000, 32.00000000000000000 ) ) ;
#176 = CARTESIAN_POINT ( 'NONE',  ( 0.000000000000000000, 0.000000000000000000, 0.000000000000000000 ) ) ;
#177 = LOCAL_TIME ( 22, 29, 34.00000000000000000, #152 ) ;
#178 = DIRECTION ( 'NONE',  ( 1.000000000000000000, 0.000000000000000000, 0.000000000000000000 ) ) ;
#179 = APPROVAL_ROLE ( '' ) ;
#180 = VERTEX_POINT ( 'NONE', #22 ) ;
#181 = PERSON_AND_ORGANIZATION ( #136, #53 ) ;
#182 = ORIENTED_EDGE ( 'NONE', *, *, #58, .F. ) ;
#183 = DATE_AND_TIME ( #111, #234 ) ;
#184 = AXIS2_PLACEMENT_3D ( 'NONE', #216, #117, #77 ) ;
#185 = APPLICATION_PROTOCOL_DEFINITION ( 'international standard', 'config_control_design', 1994, #228 ) ;
#186 = APPROVAL_STATUS ( 'not_yet_approved' ) ;
#187 = FACE_BOUND ( 'NONE', #6, .T. ) ;
#188 = APPROVAL_DATE_TIME ( #92, #37 ) ;
#189 = APPROVAL_PERSON_ORGANIZATION ( #163, #16, #179 ) ;
#190 = DIRECTION ( 'NONE',  ( -0.000000000000000000, -0.000000000000000000, -1.000000000000000000 ) ) ;
#191 = DIRECTION ( 'NONE',  ( 1.000000000000000000, 0.000000000000000000, 0.000000000000000000 ) ) ;
#192 = AXIS2_PLACEMENT_3D ( 'NONE', #39, #190, #19 ) ;
#193 = CARTESIAN_POINT ( 'NONE',  ( 1.600000000000000089, 1.959434878635765230E-16, 0.000000000000000000 ) ) ;
#194 = APPROVAL_PERSON_ORGANIZATION ( #242, #37, #32 ) ;
#195 = DIRECTION ( 'NONE',  ( 0.000000000000000000, 0.000000000000000000, 1.000000000000000000 ) ) ;
#196 = CARTESIAN_POINT ( 'NONE',  ( 0.000000000000000000, 0.000000000000000000, 32.00000000000000000 ) ) ;
#197 = EDGE_LOOP ( 'NONE', ( #91, #28, #86, #74 ) ) ;
#198 = DIRECTION ( 'NONE',  ( 0.000000000000000000, 0.000000000000000000, 1.000000000000000000 ) ) ;
#199 = CC_DESIGN_PERSON_AND_ORGANIZATION_ASSIGNMENT ( #181, #106, ( #2 ) ) ;
#200 = PERSON_AND_ORGANIZATION_ROLE ( 'classification_officer' ) ;
#201 = ORIENTED_EDGE ( 'NONE', *, *, #81, .F. ) ;
#202 = DATE_TIME_ROLE ( 'creation_date' ) ;
#203 = VERTEX_POINT ( 'NONE', #161 ) ;
#204 = APPROVAL_STATUS ( 'not_yet_approved' ) ;
#205 = VECTOR ( 'NONE', #82, 1000.000000000000000 ) ;
#206 = ORIENTED_EDGE ( 'NONE', *, *, #171, .F. ) ;
#207 = APPLICATION_PROTOCOL_DEFINITION ( 'international standard', 'config_control_design', 1994, #120 ) ;
#208 = CARTESIAN_POINT ( 'NONE',  ( 0.000000000000000000, 0.000000000000000000, 0.000000000000000000 ) ) ;
#209 = ADVANCED_FACE ( 'NONE', ( #60 ), #140, .F. ) ;
#210 = AXIS2_PLACEMENT_3D ( 'NONE', #29, #198, #243 ) ;
#211 = ADVANCED_BREP_SHAPE_REPRESENTATION ( 'ARM-108_M3_standoff_32mm', ( #143, #210 ), #160 ) ;
#212 = CARTESIAN_POINT ( 'NONE',  ( 0.000000000000000000, 0.000000000000000000, 32.00000000000000000 ) ) ;
#213 = DIRECTION ( 'NONE',  ( -0.000000000000000000, -0.000000000000000000, -1.000000000000000000 ) ) ;
#214 = ADVANCED_FACE ( 'NONE', ( #230, #236 ), #247, .T. ) ;
#215 = CARTESIAN_POINT ( 'NONE',  ( -4.000000000000000000, 0.000000000000000000, 32.00000000000000000 ) ) ;
#216 = CARTESIAN_POINT ( 'NONE',  ( 0.000000000000000000, 0.000000000000000000, 32.00000000000000000 ) ) ;
#217 = CC_DESIGN_PERSON_AND_ORGANIZATION_ASSIGNMENT ( #52, #125, ( #237 ) ) ;
#218 = CIRCLE ( 'NONE', #165, 1.600000000000000089 ) ;
#219 = ORIENTED_EDGE ( 'NONE', *, *, #123, .T. ) ;
#220 = APPROVAL_ROLE ( '' ) ;
#221 = EDGE_LOOP ( 'NONE', ( #124, #12 ) ) ;
#222 = PERSON_AND_ORGANIZATION ( #136, #53 ) ;
#223 = CALENDAR_DATE ( 2026, 7, 9 ) ;
#224 = VECTOR ( 'NONE', #142, 1000.000000000000000 ) ;
#225 = ORIENTED_EDGE ( 'NONE', *, *, #76, .F. ) ;
#226 = CC_DESIGN_DATE_AND_TIME_ASSIGNMENT ( #183, #151, ( #94 ) ) ;
#227 = AXIS2_PLACEMENT_3D ( 'NONE', #157, #139, #48 ) ;
#228 = APPLICATION_CONTEXT ( 'configuration controlled 3d designs of mechanical parts and assemblies' ) ;
#229 = DIRECTION ( 'NONE',  ( -0.000000000000000000, -0.000000000000000000, -1.000000000000000000 ) ) ;
#230 = FACE_OUTER_BOUND ( 'NONE', #221, .T. ) ;
#231 = ADVANCED_FACE ( 'NONE', ( #64 ), #99, .T. ) ;
#232 = CARTESIAN_POINT ( 'NONE',  ( -1.600000000000000089, 0.000000000000000000, 0.000000000000000000 ) ) ;
#233 = DIRECTION ( 'NONE',  ( 1.000000000000000000, 0.000000000000000000, 0.000000000000000000 ) ) ;
#234 = LOCAL_TIME ( 22, 29, 34.00000000000000000, #128 ) ;
#235 = EDGE_CURVE ( 'NONE', #126, #26, #87, .T. ) ;
#236 = FACE_BOUND ( 'NONE', #31, .T. ) ;
#237 = PRODUCT ( 'ARM-108_M3_standoff_32mm', 'ARM-108_M3_standoff_32mm', '', ( #47 ) ) ;
#238 = COORDINATED_UNIVERSAL_TIME_OFFSET ( 6, 0, .BEHIND. ) ;
#239 = ORIENTED_EDGE ( 'NONE', *, *, #235, .F. ) ;
#240 = DATE_AND_TIME ( #223, #177 ) ;
#241 = ORIENTED_EDGE ( 'NONE', *, *, #34, .F. ) ;
#242 = PERSON_AND_ORGANIZATION ( #136, #53 ) ;
#243 = DIRECTION ( 'NONE',  ( 1.000000000000000000, 0.000000000000000000, 0.000000000000000000 ) ) ;
#244 = AXIS2_PLACEMENT_3D ( 'NONE', #174, #79, #162 ) ;
#245 = FACE_OUTER_BOUND ( 'NONE', #127, .T. ) ;
#246 = APPROVAL ( #68, 'UNSPECIFIED' ) ;
#247 = PLANE ( 'NONE',  #153 ) ;
#248 = LINE ( 'NONE', #158, #205 ) ;
#249 = CARTESIAN_POINT ( 'NONE',  ( 4.000000000000000000, 4.898587196589412829E-16, 32.00000000000000000 ) ) ;
ENDSEC;
END-ISO-10303-21;
