ISO-10303-21;
HEADER;
FILE_DESCRIPTION (( 'STEP AP203' ),
    '1' );
FILE_NAME ('ARM-112_SG90_horn_capture_cap.step',
    '2026-09-09T03:19:32',
    ( '' ),
    ( '' ),
    'SwSTEP 2.0',
    'SolidWorks 2026',
    '' );
FILE_SCHEMA (( 'CONFIG_CONTROL_DESIGN' ));
ENDSEC;

DATA;
#1 = ADVANCED_FACE ( 'NONE', ( #690 ), #426, .F. ) ;
#2 = CIRCLE ( 'NONE', #823, 2.100000000000000089 ) ;
#3 = VERTEX_POINT ( 'NONE', #488 ) ;
#4 = EDGE_CURVE ( 'NONE', #839, #19, #210, .T. ) ;
#5 = CARTESIAN_POINT ( 'NONE',  ( 7.000000000000000000, -7.000000000000000000, 0.5500000000000000444 ) ) ;
#6 = PERSON_AND_ORGANIZATION_ROLE ( 'design_owner' ) ;
#7 = EDGE_CURVE ( 'NONE', #834, #229, #558, .T. ) ;
#8 = ORIENTED_EDGE ( 'NONE', *, *, #439, .T. ) ;
#9 = FACE_BOUND ( 'NONE', #576, .T. ) ;
#10 = VECTOR ( 'NONE', #713, 1000.000000000000000 ) ;
#11 = ORIENTED_EDGE ( 'NONE', *, *, #377, .T. ) ;
#12 = DIRECTION ( 'NONE',  ( 0.000000000000000000, 0.000000000000000000, -1.000000000000000000 ) ) ;
#13 = CC_DESIGN_PERSON_AND_ORGANIZATION_ASSIGNMENT ( #738, #392, ( #660 ) ) ;
#14 = LINE ( 'NONE', #283, #518 ) ;
#15 = EDGE_LOOP ( 'NONE', ( #548, #773, #188, #535 ) ) ;
#16 = DIRECTION ( 'NONE',  ( 0.000000000000000000, 0.000000000000000000, 1.000000000000000000 ) ) ;
#17 = AXIS2_PLACEMENT_3D ( 'NONE', #383, #651, #725 ) ;
#18 = ORIENTED_EDGE ( 'NONE', *, *, #404, .T. ) ;
#19 = VERTEX_POINT ( 'NONE', #22 ) ;
#20 = FACE_OUTER_BOUND ( 'NONE', #769, .T. ) ;
#21 = CC_DESIGN_APPROVAL ( #380, ( #660 ) ) ;
#22 = CARTESIAN_POINT ( 'NONE',  ( -9.099999999999999645, 7.000000000000000000, 0.5500000000000000444 ) ) ;
#23 = ORIENTED_EDGE ( 'NONE', *, *, #71, .F. ) ;
#24 = ORIENTED_EDGE ( 'NONE', *, *, #151, .T. ) ;
#25 = CIRCLE ( 'NONE', #567, 1.149999999999999911 ) ;
#26 = DIRECTION ( 'NONE',  ( -1.000000000000000000, 0.000000000000000000, 0.000000000000000000 ) ) ;
#27 = ORIENTED_EDGE ( 'NONE', *, *, #444, .F. ) ;
#28 = AXIS2_PLACEMENT_3D ( 'NONE', #81, #222, #346 ) ;
#29 = PRODUCT ( 'ARM-112_SG90_horn_capture_cap', 'ARM-112_SG90_horn_capture_cap', '', ( #609 ) ) ;
#30 = DIRECTION ( 'NONE',  ( 0.000000000000000000, 0.000000000000000000, -1.000000000000000000 ) ) ;
#31 = EDGE_CURVE ( 'NONE', #83, #707, #682, .T. ) ;
#32 = VECTOR ( 'NONE', #461, 1000.000000000000000 ) ;
#33 = DIRECTION ( 'NONE',  ( 0.000000000000000000, 0.000000000000000000, -1.000000000000000000 ) ) ;
#34 = ORIENTED_EDGE ( 'NONE', *, *, #559, .T. ) ;
#35 = DIRECTION ( 'NONE',  ( 0.000000000000000000, 0.000000000000000000, 1.000000000000000000 ) ) ;
#36 = DIRECTION ( 'NONE',  ( 0.000000000000000000, 0.000000000000000000, -1.000000000000000000 ) ) ;
#37 = CARTESIAN_POINT ( 'NONE',  ( -4.899999999999999467, 7.000000000000000000, 0.5500000000000000444 ) ) ;
#38 = ORIENTED_EDGE ( 'NONE', *, *, #604, .T. ) ;
#39 = APPROVAL_PERSON_ORGANIZATION ( #263, #491, #521 ) ;
#40 = VERTEX_POINT ( 'NONE', #411 ) ;
#41 = LINE ( 'NONE', #716, #250 ) ;
#42 = LINE ( 'NONE', #441, #252 ) ;
#43 = CARTESIAN_POINT ( 'NONE',  ( 7.000000000000000000, 7.000000000000000000, 0.000000000000000000 ) ) ;
#44 = ORIENTED_EDGE ( 'NONE', *, *, #546, .T. ) ;
#45 = DIRECTION ( 'NONE',  ( 0.000000000000000000, 0.000000000000000000, -1.000000000000000000 ) ) ;
#46 = EDGE_CURVE ( 'NONE', #334, #76, #406, .T. ) ;
#47 = APPROVAL_STATUS ( 'not_yet_approved' ) ;
#48 = CARTESIAN_POINT ( 'NONE',  ( 7.000000000000000000, 7.000000000000000000, 0.000000000000000000 ) ) ;
#49 = FACE_BOUND ( 'NONE', #375, .T. ) ;
#50 = VERTEX_POINT ( 'NONE', #227 ) ;
#51 = DIRECTION ( 'NONE',  ( 0.000000000000000000, 0.000000000000000000, 1.000000000000000000 ) ) ;
#52 = DIRECTION ( 'NONE',  ( 0.000000000000000000, 0.000000000000000000, 1.000000000000000000 ) ) ;
#53 = CARTESIAN_POINT ( 'NONE',  ( 4.899999999999999467, 7.000000000000000000, 0.5500000000000000444 ) ) ;
#54 = FACE_BOUND ( 'NONE', #829, .T. ) ;
#55 = VECTOR ( 'NONE', #623, 1000.000000000000000 ) ;
#56 = CARTESIAN_POINT ( 'NONE',  ( 7.000000000000000000, -7.000000000000000000, 2.000000000000001776 ) ) ;
#57 = CIRCLE ( 'NONE', #541, 1.150000000000000799 ) ;
#58 = DATE_TIME_ROLE ( 'creation_date' ) ;
#59 = VERTEX_POINT ( 'NONE', #154 ) ;
#60 = EDGE_CURVE ( 'NONE', #679, #560, #14, .T. ) ;
#61 = CARTESIAN_POINT ( 'NONE',  ( -4.899999999999999467, 7.000000000000000000, 0.000000000000000000 ) ) ;
#62 = EDGE_CURVE ( 'NONE', #343, #400, #632, .T. ) ;
#63 = DIRECTION ( 'NONE',  ( -1.000000000000000000, 0.000000000000000000, 0.000000000000000000 ) ) ;
#64 = DIRECTION ( 'NONE',  ( 1.000000000000000000, 0.000000000000000000, 0.000000000000000000 ) ) ;
#65 = VECTOR ( 'NONE', #846, 1000.000000000000000 ) ;
#66 = EDGE_LOOP ( 'NONE', ( #363, #308 ) ) ;
#67 = DIRECTION ( 'NONE',  ( 0.000000000000000000, 0.000000000000000000, 1.000000000000000000 ) ) ;
#68 = ORGANIZATION ( 'UNSPECIFIED', 'UNSPECIFIED', '' ) ;
#69 = ADVANCED_FACE ( 'NONE', ( #481 ), #749, .F. ) ;
#70 = APPROVAL_STATUS ( 'not_yet_approved' ) ;
#71 = EDGE_CURVE ( 'NONE', #493, #479, #182, .T. ) ;
#72 = ORIENTED_EDGE ( 'NONE', *, *, #384, .F. ) ;
#73 = DIRECTION ( 'NONE',  ( 1.000000000000000000, 0.000000000000000000, -0.000000000000000000 ) ) ;
#74 = EDGE_CURVE ( 'NONE', #19, #839, #163, .T. ) ;
#75 = FACE_OUTER_BOUND ( 'NONE', #240, .T. ) ;
#76 = VERTEX_POINT ( 'NONE', #603 ) ;
#77 = CIRCLE ( 'NONE', #561, 13.00000000000000000 ) ;
#78 = DIRECTION ( 'NONE',  ( 0.000000000000000000, 0.000000000000000000, 1.000000000000000000 ) ) ;
#79 = EDGE_LOOP ( 'NONE', ( #412, #687 ) ) ;
#80 = CYLINDRICAL_SURFACE ( 'NONE', #848, 2.100000000000000089 ) ;
#81 = CARTESIAN_POINT ( 'NONE',  ( 0.000000000000000000, 0.000000000000000000, 0.000000000000000000 ) ) ;
#82 = AXIS2_PLACEMENT_3D ( 'NONE', #830, #102, #694 ) ;
#83 = VERTEX_POINT ( 'NONE', #53 ) ;
#84 = PLANE ( 'NONE',  #806 ) ;
#85 = CARTESIAN_POINT ( 'NONE',  ( 4.899999999999999467, 7.000000000000000000, 0.5500000000000000444 ) ) ;
#86 = ORIENTED_EDGE ( 'NONE', *, *, #845, .T. ) ;
#87 = FACE_OUTER_BOUND ( 'NONE', #275, .T. ) ;
#88 = AXIS2_PLACEMENT_3D ( 'NONE', #459, #786, #731 ) ;
#89 = ORIENTED_EDGE ( 'NONE', *, *, #157, .F. ) ;
#90 = DIRECTION ( 'NONE',  ( 1.000000000000000000, 0.000000000000000000, -0.000000000000000000 ) ) ;
#91 = ORIENTED_EDGE ( 'NONE', *, *, #130, .F. ) ;
#92 = EDGE_CURVE ( 'NONE', #349, #854, #25, .T. ) ;
#93 = ORIENTED_EDGE ( 'NONE', *, *, #157, .T. ) ;
#94 = CARTESIAN_POINT ( 'NONE',  ( -4.000000000000000000, 0.000000000000000000, 2.000000000000000000 ) ) ;
#95 = ORIENTED_EDGE ( 'NONE', *, *, #153, .F. ) ;
#96 = AXIS2_PLACEMENT_3D ( 'NONE', #746, #147, #414 ) ;
#97 = FACE_BOUND ( 'NONE', #571, .T. ) ;
#98 = LINE ( 'NONE', #302, #176 ) ;
#99 = CIRCLE ( 'NONE', #791, 2.100000000000000089 ) ;
#100 = DIRECTION ( 'NONE',  ( 1.000000000000000000, 0.000000000000000000, 0.000000000000000000 ) ) ;
#101 = ORIENTED_EDGE ( 'NONE', *, *, #559, .F. ) ;
#102 = DIRECTION ( 'NONE',  ( 0.000000000000000000, 0.000000000000000000, 1.000000000000000000 ) ) ;
#103 = EDGE_CURVE ( 'NONE', #359, #334, #42, .T. ) ;
#104 = DIRECTION ( 'NONE',  ( 0.000000000000000000, 0.000000000000000000, -1.000000000000000000 ) ) ;
#105 = DIRECTION ( 'NONE',  ( 0.000000000000000000, 0.000000000000000000, 1.000000000000000000 ) ) ;
#106 = EDGE_LOOP ( 'NONE', ( #91, #381 ) ) ;
#107 = EDGE_CURVE ( 'NONE', #83, #597, #206, .T. ) ;
#108 = CARTESIAN_POINT ( 'NONE',  ( -4.899999999999999467, -7.000000000000000000, 0.000000000000000000 ) ) ;
#109 = DIRECTION ( 'NONE',  ( 0.000000000000000000, 0.000000000000000000, 1.000000000000000000 ) ) ;
#110 = CARTESIAN_POINT ( 'NONE',  ( 13.00000000000000000, 1.592040838891559095E-15, 2.000000000000000000 ) ) ;
#111 = EDGE_LOOP ( 'NONE', ( #438, #482, #527, #789 ) ) ;
#112 = DIRECTION ( 'NONE',  ( 1.000000000000000000, 0.000000000000000000, -0.000000000000000000 ) ) ;
#113 = CIRCLE ( 'NONE', #607, 1.150000000000000799 ) ;
#114 = DIRECTION ( 'NONE',  ( 1.000000000000000000, 0.000000000000000000, 0.000000000000000000 ) ) ;
#115 = CARTESIAN_POINT ( 'NONE',  ( -7.000000000000000000, 7.000000000000000000, 2.000000000000001776 ) ) ;
#116 = DIRECTION ( 'NONE',  ( 0.000000000000000000, 0.000000000000000000, 1.000000000000000000 ) ) ;
#117 = DIRECTION ( 'NONE',  ( 1.000000000000000000, 0.000000000000000000, -0.000000000000000000 ) ) ;
#118 = AXIS2_PLACEMENT_3D ( 'NONE', #169, #293, #364 ) ;
#119 = LOCAL_TIME ( 22, 19, 32.00000000000000000, #329 ) ;
#120 = ADVANCED_FACE ( 'NONE', ( #509 ), #430, .F. ) ;
#121 = LINE ( 'NONE', #599, #215 ) ;
#122 = AXIS2_PLACEMENT_3D ( 'NONE', #423, #35, #356 ) ;
#123 = DATE_AND_TIME ( #537, #584 ) ;
#124 = ORIENTED_EDGE ( 'NONE', *, *, #617, .F. ) ;
#125 = CARTESIAN_POINT ( 'NONE',  ( -5.850000000000000533, 7.000000000000000000, 0.5500000000000001554 ) ) ;
#126 = DATE_TIME_ROLE ( 'classification_date' ) ;
#127 = FACE_OUTER_BOUND ( 'NONE', #106, .T. ) ;
#128 = AXIS2_PLACEMENT_3D ( 'NONE', #183, #33, #706 ) ;
#129 = DIRECTION ( 'NONE',  ( 1.000000000000000000, 0.000000000000000000, 0.000000000000000000 ) ) ;
#130 = EDGE_CURVE ( 'NONE', #50, #523, #270, .T. ) ;
#131 = ORIENTED_EDGE ( 'NONE', *, *, #71, .T. ) ;
#132 = AXIS2_PLACEMENT_3D ( 'NONE', #135, #403, #475 ) ;
#133 = EDGE_CURVE ( 'NONE', #707, #677, #2, .T. ) ;
#134 = CARTESIAN_POINT ( 'NONE',  ( -7.000000000000000000, 7.000000000000000000, 0.5500000000000000444 ) ) ;
#135 = CARTESIAN_POINT ( 'NONE',  ( -7.000000000000000000, -7.000000000000000000, 0.5500000000000000444 ) ) ;
#136 = APPLICATION_CONTEXT ( 'configuration controlled 3d designs of mechanical parts and assemblies' ) ;
#137 = VERTEX_POINT ( 'NONE', #777 ) ;
#138 = FACE_OUTER_BOUND ( 'NONE', #448, .T. ) ;
#139 = VERTEX_POINT ( 'NONE', #247 ) ;
#140 = AXIS2_PLACEMENT_3D ( 'NONE', #847, #52, #783 ) ;
#141 = CYLINDRICAL_SURFACE ( 'NONE', #357, 1.150000000000000799 ) ;
#142 = EDGE_CURVE ( 'NONE', #489, #139, #842, .T. ) ;
#143 = DIRECTION ( 'NONE',  ( 0.000000000000000000, 0.000000000000000000, -1.000000000000000000 ) ) ;
#144 = ORIENTED_EDGE ( 'NONE', *, *, #31, .T. ) ;
#145 = DIRECTION ( 'NONE',  ( -1.000000000000000000, 0.000000000000000000, 0.000000000000000000 ) ) ;
#146 = CC_DESIGN_APPROVAL ( #505, ( #496 ) ) ;
#147 = DIRECTION ( 'NONE',  ( 0.000000000000000000, 0.000000000000000000, -1.000000000000000000 ) ) ;
#148 = ORIENTED_EDGE ( 'NONE', *, *, #534, .T. ) ;
#149 = CARTESIAN_POINT ( 'NONE',  ( 0.000000000000000000, 0.000000000000000000, 2.000000000000000000 ) ) ;
#150 = EDGE_LOOP ( 'NONE', ( #543, #702, #27, #23 ) ) ;
#151 = EDGE_CURVE ( 'NONE', #137, #838, #113, .T. ) ;
#152 = LINE ( 'NONE', #501, #628 ) ;
#153 = EDGE_CURVE ( 'NONE', #560, #479, #223, .T. ) ;
#154 = CARTESIAN_POINT ( 'NONE',  ( -5.850000000000000533, -7.000000000000000000, 2.000000000000001776 ) ) ;
#155 = ORIENTED_EDGE ( 'NONE', *, *, #512, .T. ) ;
#156 = CARTESIAN_POINT ( 'NONE',  ( -8.150000000000000355, 7.000000000000000000, 0.5500000000000001554 ) ) ;
#157 = EDGE_CURVE ( 'NONE', #754, #369, #529, .T. ) ;
#158 = AXIS2_PLACEMENT_3D ( 'NONE', #636, #434, #562 ) ;
#159 = AXIS2_PLACEMENT_3D ( 'NONE', #643, #664, #63 ) ;
#160 = DIRECTION ( 'NONE',  ( 0.000000000000000000, 0.000000000000000000, 1.000000000000000000 ) ) ;
#161 = ORIENTED_EDGE ( 'NONE', *, *, #237, .T. ) ;
#162 = AXIS2_PLACEMENT_3D ( 'NONE', #5, #272, #490 ) ;
#163 = CIRCLE ( 'NONE', #553, 2.100000000000000089 ) ;
#164 = MANIFOLD_SOLID_BREP ( 'Head_recess_depth0p55', #326 ) ;
#165 = CARTESIAN_POINT ( 'NONE',  ( -7.000000000000000000, 7.000000000000000000, 0.5500000000000001554 ) ) ;
#166 = DIRECTION ( 'NONE',  ( 1.000000000000000000, 0.000000000000000000, 0.000000000000000000 ) ) ;
#167 = FACE_OUTER_BOUND ( 'NONE', #66, .T. ) ;
#168 = EDGE_LOOP ( 'NONE', ( #815, #93, #38, #819 ) ) ;
#169 = CARTESIAN_POINT ( 'NONE',  ( 7.000000000000000000, -7.000000000000000000, 0.5500000000000001554 ) ) ;
#170 = DIRECTION ( 'NONE',  ( -1.000000000000000000, 0.000000000000000000, 0.000000000000000000 ) ) ;
#171 = AXIS2_PLACEMENT_3D ( 'NONE', #43, #563, #788 ) ;
#172 = FACE_OUTER_BOUND ( 'NONE', #644, .T. ) ;
#173 = ORIENTED_EDGE ( 'NONE', *, *, #629, .T. ) ;
#174 = EDGE_CURVE ( 'NONE', #354, #59, #508, .T. ) ;
#175 = VERTEX_POINT ( 'NONE', #705 ) ;
#176 = VECTOR ( 'NONE', #367, 1000.000000000000000 ) ;
#177 = FACE_OUTER_BOUND ( 'NONE', #15, .T. ) ;
#178 = DIRECTION ( 'NONE',  ( 0.000000000000000000, 0.000000000000000000, -1.000000000000000000 ) ) ;
#179 = CARTESIAN_POINT ( 'NONE',  ( -7.000000000000000000, 7.000000000000000000, 2.000000000000001776 ) ) ;
#180 = ORIENTED_EDGE ( 'NONE', *, *, #7, .T. ) ;
#181 = PLANE ( 'NONE',  #520 ) ;
#182 = LINE ( 'NONE', #797, #588 ) ;
#183 = CARTESIAN_POINT ( 'NONE',  ( -7.000000000000000000, -7.000000000000000000, 2.000000000000001776 ) ) ;
#184 = EDGE_LOOP ( 'NONE', ( #807, #11, #851, #304 ) ) ;
#185 = LINE ( 'NONE', #251, #297 ) ;
#186 = FACE_BOUND ( 'NONE', #784, .T. ) ;
#187 = EDGE_CURVE ( 'NONE', #40, #640, #98, .T. ) ;
#188 = ORIENTED_EDGE ( 'NONE', *, *, #103, .T. ) ;
#189 = CARTESIAN_POINT ( 'NONE',  ( 7.000000000000000000, -7.000000000000000000, 2.000000000000001776 ) ) ;
#190 = DIRECTION ( 'NONE',  ( 1.000000000000000000, 0.000000000000000000, 0.000000000000000000 ) ) ;
#191 = CARTESIAN_POINT ( 'NONE',  ( -7.000000000000000000, -7.000000000000000000, 0.5500000000000000444 ) ) ;
#192 = COORDINATED_UNIVERSAL_TIME_OFFSET ( 6, 0, .BEHIND. ) ;
#193 = EDGE_LOOP ( 'NONE', ( #719, #393 ) ) ;
#194 = CARTESIAN_POINT ( 'NONE',  ( 9.099999999999999645, 7.000000000000000000, 0.5500000000000000444 ) ) ;
#195 = DIRECTION ( 'NONE',  ( 0.000000000000000000, 0.000000000000000000, 1.000000000000000000 ) ) ;
#196 = PERSON_AND_ORGANIZATION ( #345, #68 ) ;
#197 = EDGE_CURVE ( 'NONE', #354, #349, #502, .T. ) ;
#198 = ORIENTED_EDGE ( 'NONE', *, *, #689, .T. ) ;
#199 = CIRCLE ( 'NONE', #734, 2.100000000000000089 ) ;
#200 = DIRECTION ( 'NONE',  ( -1.000000000000000000, 0.000000000000000000, 0.000000000000000000 ) ) ;
#201 = DATE_AND_TIME ( #853, #526 ) ;
#202 = ORIENTED_EDGE ( 'NONE', *, *, #827, .T. ) ;
#203 = CIRCLE ( 'NONE', #122, 13.00000000000000000 ) ;
#204 = FACE_BOUND ( 'NONE', #212, .T. ) ;
#205 = CIRCLE ( 'NONE', #730, 1.150000000000000799 ) ;
#206 = CIRCLE ( 'NONE', #684, 2.100000000000000089 ) ;
#207 = APPROVAL_ROLE ( '' ) ;
#208 = EDGE_LOOP ( 'NONE', ( #286, #86, #131, #95 ) ) ;
#209 = CARTESIAN_POINT ( 'NONE',  ( 0.000000000000000000, 0.000000000000000000, 2.000000000000000000 ) ) ;
#210 = CIRCLE ( 'NONE', #294, 2.100000000000000089 ) ;
#211 = PRODUCT_RELATED_PRODUCT_CATEGORY ( 'detail', '', ( #29 ) ) ;
#212 = EDGE_LOOP ( 'NONE', ( #198, #550 ) ) ;
#213 = AXIS2_PLACEMENT_3D ( 'NONE', #220, #757, #26 ) ;
#214 = DIRECTION ( 'NONE',  ( -0.000000000000000000, -0.000000000000000000, -1.000000000000000000 ) ) ;
#215 = VECTOR ( 'NONE', #391, 1000.000000000000000 ) ;
#216 = ORIENTED_EDGE ( 'NONE', *, *, #221, .F. ) ;
#217 = FACE_OUTER_BOUND ( 'NONE', #111, .T. ) ;
#218 = EDGE_CURVE ( 'NONE', #610, #756, #401, .T. ) ;
#219 = EDGE_LOOP ( 'NONE', ( #234, #148, #620, #72 ) ) ;
#220 = CARTESIAN_POINT ( 'NONE',  ( 0.000000000000000000, 0.000000000000000000, 2.000000000000000000 ) ) ;
#221 = EDGE_CURVE ( 'NONE', #597, #677, #436, .T. ) ;
#222 = DIRECTION ( 'NONE',  ( 0.000000000000000000, 0.000000000000000000, 1.000000000000000000 ) ) ;
#223 = CIRCLE ( 'NONE', #339, 1.149999999999999911 ) ;
#224 = EDGE_CURVE ( 'NONE', #523, #257, #318, .T. ) ;
#225 = ORIENTED_EDGE ( 'NONE', *, *, #133, .F. ) ;
#226 = CYLINDRICAL_SURFACE ( 'NONE', #739, 2.100000000000000089 ) ;
#227 = CARTESIAN_POINT ( 'NONE',  ( 4.899999999999999467, -7.000000000000000000, 0.5500000000000000444 ) ) ;
#228 = EDGE_LOOP ( 'NONE', ( #268, #271, #500, #504 ) ) ;
#229 = VERTEX_POINT ( 'NONE', #849 ) ;
#230 = AXIS2_PLACEMENT_3D ( 'NONE', #782, #574, #166 ) ;
#231 = CARTESIAN_POINT ( 'NONE',  ( 0.000000000000000000, 0.000000000000000000, 0.000000000000000000 ) ) ;
#232 = LOCAL_TIME ( 22, 19, 32.00000000000000000, #192 ) ;
#233 = FACE_OUTER_BOUND ( 'NONE', #208, .T. ) ;
#234 = ORIENTED_EDGE ( 'NONE', *, *, #600, .T. ) ;
#235 = CIRCLE ( 'NONE', #118, 1.150000000000000799 ) ;
#236 = CARTESIAN_POINT ( 'NONE',  ( -7.000000000000000000, 7.000000000000000000, 0.5500000000000000444 ) ) ;
#237 = EDGE_CURVE ( 'NONE', #779, #3, #205, .T. ) ;
#238 = DIRECTION ( 'NONE',  ( -0.000000000000000000, -0.000000000000000000, -1.000000000000000000 ) ) ;
#239 = CARTESIAN_POINT ( 'NONE',  ( -5.850000000000000533, -7.000000000000000000, 0.5500000000000001554 ) ) ;
#240 = EDGE_LOOP ( 'NONE', ( #821, #715, #650, #419 ) ) ;
#241 = CARTESIAN_POINT ( 'NONE',  ( 7.000000000000000000, 7.000000000000000000, 2.000000000000001776 ) ) ;
#242 = DIRECTION ( 'NONE',  ( 1.000000000000000000, 0.000000000000000000, 0.000000000000000000 ) ) ;
#243 = VECTOR ( 'NONE', #790, 1000.000000000000000 ) ;
#244 = DIRECTION ( 'NONE',  ( 1.000000000000000000, 0.000000000000000000, 0.000000000000000000 ) ) ;
#245 = ORIENTED_EDGE ( 'NONE', *, *, #781, .F. ) ;
#246 = FACE_OUTER_BOUND ( 'NONE', #168, .T. ) ;
#247 = CARTESIAN_POINT ( 'NONE',  ( 5.849999999999999645, 7.000000000000000000, 0.5500000000000001554 ) ) ;
#248 = FACE_OUTER_BOUND ( 'NONE', #150, .T. ) ;
#249 = ORIENTED_EDGE ( 'NONE', *, *, #781, .T. ) ;
#250 = VECTOR ( 'NONE', #296, 1000.000000000000000 ) ;
#251 = CARTESIAN_POINT ( 'NONE',  ( 4.899999999999999467, -7.000000000000000000, 0.5500000000000000444 ) ) ;
#252 = VECTOR ( 'NONE', #238, 1000.000000000000000 ) ;
#253 = CARTESIAN_POINT ( 'NONE',  ( -5.850000000000000533, 7.000000000000000000, 2.000000000000001776 ) ) ;
#254 = EDGE_CURVE ( 'NONE', #59, #854, #342, .T. ) ;
#255 = DIRECTION ( 'NONE',  ( 1.000000000000000000, 0.000000000000000000, 0.000000000000000000 ) ) ;
#256 = DIRECTION ( 'NONE',  ( 0.000000000000000000, 0.000000000000000000, -1.000000000000000000 ) ) ;
#257 = VERTEX_POINT ( 'NONE', #678 ) ;
#258 = AXIS2_PLACEMENT_3D ( 'NONE', #545, #160, #812 ) ;
#259 = LINE ( 'NONE', #647, #243 ) ;
#260 = PERSON_AND_ORGANIZATION_ROLE ( 'creator' ) ;
#261 = AXIS2_PLACEMENT_3D ( 'NONE', #115, #727, #386 ) ;
#262 = CYLINDRICAL_SURFACE ( 'NONE', #598, 13.00000000000000000 ) ;
#263 = PERSON_AND_ORGANIZATION ( #345, #68 ) ;
#264 = EDGE_LOOP ( 'NONE', ( #89, #758, #624, #249 ) ) ;
#265 = CARTESIAN_POINT ( 'NONE',  ( -13.00000000000000000, 0.000000000000000000, 0.000000000000000000 ) ) ;
#266 = EDGE_CURVE ( 'NONE', #40, #754, #761, .T. ) ;
#267 = APPROVAL_STATUS ( 'not_yet_approved' ) ;
#268 = ORIENTED_EDGE ( 'NONE', *, *, #130, .T. ) ;
#269 = CARTESIAN_POINT ( 'NONE',  ( 0.000000000000000000, 0.000000000000000000, 0.000000000000000000 ) ) ;
#270 = CIRCLE ( 'NONE', #382, 2.100000000000000089 ) ;
#271 = ORIENTED_EDGE ( 'NONE', *, *, #224, .T. ) ;
#272 = DIRECTION ( 'NONE',  ( 0.000000000000000000, 0.000000000000000000, 1.000000000000000000 ) ) ;
#273 = CALENDAR_DATE ( 2026, 8, 9 ) ;
#274 = EDGE_CURVE ( 'NONE', #139, #229, #57, .T. ) ;
#275 = EDGE_LOOP ( 'NONE', ( #844, #606, #34, #299 ) ) ;
#276 = APPROVAL_PERSON_ORGANIZATION ( #573, #380, #612 ) ;
#277 = DIRECTION ( 'NONE',  ( 0.000000000000000000, 0.000000000000000000, -1.000000000000000000 ) ) ;
#278 = EDGE_CURVE ( 'NONE', #597, #83, #614, .T. ) ;
#279 = VECTOR ( 'NONE', #585, 1000.000000000000000 ) ;
#280 = VERTEX_POINT ( 'NONE', #676 ) ;
#281 = PLANE ( 'NONE',  #389 ) ;
#282 = COORDINATED_UNIVERSAL_TIME_OFFSET ( 6, 0, .BEHIND. ) ;
#283 = CARTESIAN_POINT ( 'NONE',  ( -5.850000000000000533, 7.000000000000000000, 2.000000000000001776 ) ) ;
#284 = ORIENTED_EDGE ( 'NONE', *, *, #107, .T. ) ;
#285 = DIRECTION ( 'NONE',  ( -1.000000000000000000, 0.000000000000000000, 0.000000000000000000 ) ) ;
#286 = ORIENTED_EDGE ( 'NONE', *, *, #60, .F. ) ;
#287 = ADVANCED_FACE ( 'NONE', ( #87 ), #80, .F. ) ;
#288 = ORIENTED_EDGE ( 'NONE', *, *, #362, .T. ) ;
#289 = FACE_OUTER_BOUND ( 'NONE', #531, .T. ) ;
#290 = CIRCLE ( 'NONE', #862, 1.150000000000000799 ) ;
#291 = ADVANCED_FACE ( 'NONE', ( #217 ), #141, .F. ) ;
#292 = ORIENTED_EDGE ( 'NONE', *, *, #817, .F. ) ;
#293 = DIRECTION ( 'NONE',  ( 0.000000000000000000, 0.000000000000000000, 1.000000000000000000 ) ) ;
#294 = AXIS2_PLACEMENT_3D ( 'NONE', #696, #554, #361 ) ;
#295 = ORIENTED_EDGE ( 'NONE', *, *, #266, .T. ) ;
#296 = DIRECTION ( 'NONE',  ( 0.000000000000000000, 0.000000000000000000, -1.000000000000000000 ) ) ;
#297 = VECTOR ( 'NONE', #667, 1000.000000000000000 ) ;
#298 = DIRECTION ( 'NONE',  ( 0.000000000000000000, 0.000000000000000000, 1.000000000000000000 ) ) ;
#299 = ORIENTED_EDGE ( 'NONE', *, *, #218, .F. ) ;
#300 = ADVANCED_FACE ( 'NONE', ( #681 ), #549, .F. ) ;
#301 = DIRECTION ( 'NONE',  ( -0.000000000000000000, -0.000000000000000000, -1.000000000000000000 ) ) ;
#302 = CARTESIAN_POINT ( 'NONE',  ( -13.00000000000000000, 0.000000000000000000, 2.000000000000000000 ) ) ;
#303 = FACE_BOUND ( 'NONE', #416, .T. ) ;
#304 = ORIENTED_EDGE ( 'NONE', *, *, #103, .F. ) ;
#305 = DIRECTION ( 'NONE',  ( -1.000000000000000000, 0.000000000000000000, 0.000000000000000000 ) ) ;
#306 = DIRECTION ( 'NONE',  ( 0.000000000000000000, 0.000000000000000000, -1.000000000000000000 ) ) ;
#307 = DIRECTION ( 'NONE',  ( 1.000000000000000000, 0.000000000000000000, 0.000000000000000000 ) ) ;
#308 = ORIENTED_EDGE ( 'NONE', *, *, #278, .F. ) ;
#309 = CARTESIAN_POINT ( 'NONE',  ( -4.899999999999999467, 7.000000000000000000, 0.5500000000000000444 ) ) ;
#310 = ADVANCED_FACE ( 'NONE', ( #483 ), #800, .T. ) ;
#311 = DIRECTION ( 'NONE',  ( -0.000000000000000000, -0.000000000000000000, -1.000000000000000000 ) ) ;
#312 = CIRCLE ( 'NONE', #775, 1.150000000000000799 ) ;
#313 = DIRECTION ( 'NONE',  ( 0.000000000000000000, 0.000000000000000000, 1.000000000000000000 ) ) ;
#314 = VERTEX_POINT ( 'NONE', #802 ) ;
#315 = ADVANCED_FACE ( 'NONE', ( #542, #480, #204, #9, #138, #417 ), #281, .F. ) ;
#316 = LINE ( 'NONE', #582, #65 ) ;
#317 = DIRECTION ( 'NONE',  ( 0.000000000000000000, 0.000000000000000000, 1.000000000000000000 ) ) ;
#318 = LINE ( 'NONE', #372, #279 ) ;
#319 = AXIS2_PLACEMENT_3D ( 'NONE', #165, #486, #376 ) ;
#320 = CARTESIAN_POINT ( 'NONE',  ( 0.000000000000000000, 0.000000000000000000, 2.000000000000000000 ) ) ;
#321 = EDGE_LOOP ( 'NONE', ( #284, #661, #225, #860 ) ) ;
#322 = ADVANCED_FACE ( 'NONE', ( #544 ), #810, .F. ) ;
#323 = AXIS2_PLACEMENT_3D ( 'NONE', #149, #214, #200 ) ;
#324 = DIRECTION ( 'NONE',  ( -1.000000000000000000, 0.000000000000000000, 0.000000000000000000 ) ) ;
#325 = ORIENTED_EDGE ( 'NONE', *, *, #62, .T. ) ;
#326 = CLOSED_SHELL ( 'NONE', ( #300, #120, #859, #1, #532, #291, #755, #394, #322, #590, #726, #315, #310, #471, #465, #785, #768, #468, #408, #653, #69, #328, #287, #454, #857, #813 ) ) ;
#327 = DIRECTION ( 'NONE',  ( 1.000000000000000000, 0.000000000000000000, 0.000000000000000000 ) ) ;
#328 = ADVANCED_FACE ( 'NONE', ( #685, #533 ), #84, .F. ) ;
#329 = COORDINATED_UNIVERSAL_TIME_OFFSET ( 6, 0, .BEHIND. ) ;
#330 = ORIENTED_EDGE ( 'NONE', *, *, #278, .T. ) ;
#331 = AXIS2_PLACEMENT_3D ( 'NONE', #835, #30, #700 ) ;
#332 = CYLINDRICAL_SURFACE ( 'NONE', #350, 1.150000000000000799 ) ;
#333 = AXIS2_PLACEMENT_3D ( 'NONE', #503, #570, #833 ) ;
#334 = VERTEX_POINT ( 'NONE', #338 ) ;
#335 = DIRECTION ( 'NONE',  ( 0.000000000000000000, 0.000000000000000000, -1.000000000000000000 ) ) ;
#336 =( NAMED_UNIT ( * ) SI_UNIT ( $, .STERADIAN. ) SOLID_ANGLE_UNIT ( ) );
#337 = ORIENTED_EDGE ( 'NONE', *, *, #224, .F. ) ;
#338 = CARTESIAN_POINT ( 'NONE',  ( -4.000000000000000000, 0.000000000000000000, 0.000000000000000000 ) ) ;
#339 = AXIS2_PLACEMENT_3D ( 'NONE', #498, #654, #642 ) ;
#340 = EDGE_LOOP ( 'NONE', ( #325, #751 ) ) ;
#341 = CC_DESIGN_PERSON_AND_ORGANIZATION_ASSIGNMENT ( #674, #605, ( #711 ) ) ;
#342 = LINE ( 'NONE', #688, #55 ) ;
#343 = VERTEX_POINT ( 'NONE', #407 ) ;
#344 = DIRECTION ( 'NONE',  ( 1.000000000000000000, 0.000000000000000000, -0.000000000000000000 ) ) ;
#345 = PERSON ( 'UNSPECIFIED', 'UNSPECIFIED', 'UNSPECIFIED', ('UNSPECIFIED'), ('UNSPECIFIED'), ('UNSPECIFIED') ) ;
#346 = DIRECTION ( 'NONE',  ( 1.000000000000000000, 0.000000000000000000, 0.000000000000000000 ) ) ;
#347 = ORIENTED_EDGE ( 'NONE', *, *, #672, .F. ) ;
#348 = CARTESIAN_POINT ( 'NONE',  ( -7.000000000000000000, -7.000000000000000000, 0.5500000000000000444 ) ) ;
#349 = VERTEX_POINT ( 'NONE', #608 ) ;
#350 = AXIS2_PLACEMENT_3D ( 'NONE', #56, #45, #324 ) ;
#351 = DIRECTION ( 'NONE',  ( -1.000000000000000000, 0.000000000000000000, 0.000000000000000000 ) ) ;
#352 = EDGE_CURVE ( 'NONE', #523, #50, #659, .T. ) ;
#353 = DIRECTION ( 'NONE',  ( 0.000000000000000000, 0.000000000000000000, -1.000000000000000000 ) ) ;
#354 = VERTEX_POINT ( 'NONE', #420 ) ;
#355 = ORIENTED_EDGE ( 'NONE', *, *, #827, .F. ) ;
#356 = DIRECTION ( 'NONE',  ( 1.000000000000000000, 0.000000000000000000, 0.000000000000000000 ) ) ;
#357 = AXIS2_PLACEMENT_3D ( 'NONE', #410, #277, #611 ) ;
#358 = APPLICATION_CONTEXT ( 'configuration controlled 3d designs of mechanical parts and assemblies' ) ;
#359 = VERTEX_POINT ( 'NONE', #94 ) ;
#360 = CARTESIAN_POINT ( 'NONE',  ( 5.849999999999999645, 7.000000000000000000, 2.000000000000001776 ) ) ;
#361 = DIRECTION ( 'NONE',  ( 1.000000000000000000, 0.000000000000000000, 0.000000000000000000 ) ) ;
#362 = EDGE_CURVE ( 'NONE', #3, #779, #235, .T. ) ;
#363 = ORIENTED_EDGE ( 'NONE', *, *, #107, .F. ) ;
#364 = DIRECTION ( 'NONE',  ( 1.000000000000000000, 0.000000000000000000, 0.000000000000000000 ) ) ;
#365 = CC_DESIGN_DATE_AND_TIME_ASSIGNMENT ( #525, #126, ( #660 ) ) ;
#366 = AXIS2_PLACEMENT_3D ( 'NONE', #320, #718, #843 ) ;
#367 = DIRECTION ( 'NONE',  ( -0.000000000000000000, -0.000000000000000000, -1.000000000000000000 ) ) ;
#368 = CARTESIAN_POINT ( 'NONE',  ( 8.150000000000000355, 7.000000000000000000, 2.000000000000001776 ) ) ;
#369 = VERTEX_POINT ( 'NONE', #703 ) ;
#370 = ORIENTED_EDGE ( 'NONE', *, *, #362, .F. ) ;
#371 = DIRECTION ( 'NONE',  ( -1.000000000000000000, 0.000000000000000000, 0.000000000000000000 ) ) ;
#372 = CARTESIAN_POINT ( 'NONE',  ( 9.099999999999999645, -7.000000000000000000, 0.5500000000000000444 ) ) ;
#373 = CYLINDRICAL_SURFACE ( 'NONE', #159, 2.100000000000000089 ) ;
#374 = VECTOR ( 'NONE', #306, 1000.000000000000000 ) ;
#375 = EDGE_LOOP ( 'NONE', ( #656, #155 ) ) ;
#376 = DIRECTION ( 'NONE',  ( 1.000000000000000000, 0.000000000000000000, 0.000000000000000000 ) ) ;
#377 = EDGE_CURVE ( 'NONE', #314, #76, #152, .T. ) ;
#378 = DIRECTION ( 'NONE',  ( 1.000000000000000000, 0.000000000000000000, 0.000000000000000000 ) ) ;
#379 = DIRECTION ( 'NONE',  ( -1.000000000000000000, 0.000000000000000000, 0.000000000000000000 ) ) ;
#380 = APPROVAL ( #47, 'UNSPECIFIED' ) ;
#381 = ORIENTED_EDGE ( 'NONE', *, *, #352, .F. ) ;
#382 = AXIS2_PLACEMENT_3D ( 'NONE', #717, #462, #865 ) ;
#383 = CARTESIAN_POINT ( 'NONE',  ( 0.000000000000000000, 0.000000000000000000, 2.000000000000000000 ) ) ;
#384 = EDGE_CURVE ( 'NONE', #838, #779, #41, .T. ) ;
#385 = DIRECTION ( 'NONE',  ( -1.000000000000000000, 0.000000000000000000, 0.000000000000000000 ) ) ;
#386 = DIRECTION ( 'NONE',  ( -1.000000000000000000, 0.000000000000000000, 0.000000000000000000 ) ) ;
#387 = DIRECTION ( 'NONE',  ( 1.000000000000000000, 0.000000000000000000, 0.000000000000000000 ) ) ;
#388 = UNCERTAINTY_MEASURE_WITH_UNIT (LENGTH_MEASURE( 1.000000000000000082E-05 ), #390, 'distance_accuracy_value', 'NONE');
#389 = AXIS2_PLACEMENT_3D ( 'NONE', #269, #467, #344 ) ;
#390 =( LENGTH_UNIT ( ) NAMED_UNIT ( * ) SI_UNIT ( .MILLI., .METRE. ) );
#391 = DIRECTION ( 'NONE',  ( 0.000000000000000000, 0.000000000000000000, -1.000000000000000000 ) ) ;
#392 = PERSON_AND_ORGANIZATION_ROLE ( 'classification_officer' ) ;
#393 = ORIENTED_EDGE ( 'NONE', *, *, #695, .T. ) ;
#394 = ADVANCED_FACE ( 'NONE', ( #565 ), #506, .F. ) ;
#395 = DIRECTION ( 'NONE',  ( -0.000000000000000000, -0.000000000000000000, -1.000000000000000000 ) ) ;
#396 = CIRCLE ( 'NONE', #17, 4.000000000000000000 ) ;
#397 = ORIENTED_EDGE ( 'NONE', *, *, #625, .T. ) ;
#398 = CARTESIAN_POINT ( 'NONE',  ( -7.000000000000000000, -7.000000000000000000, 0.5500000000000001554 ) ) ;
#399 = CYLINDRICAL_SURFACE ( 'NONE', #132, 2.100000000000000089 ) ;
#400 = VERTEX_POINT ( 'NONE', #108 ) ;
#401 = CIRCLE ( 'NONE', #765, 2.100000000000000089 ) ;
#402 = DIRECTION ( 'NONE',  ( 0.000000000000000000, 0.000000000000000000, 1.000000000000000000 ) ) ;
#403 = DIRECTION ( 'NONE',  ( 0.000000000000000000, 0.000000000000000000, -1.000000000000000000 ) ) ;
#404 = EDGE_CURVE ( 'NONE', #257, #175, #662, .T. ) ;
#405 = ORIENTED_EDGE ( 'NONE', *, *, #427, .F. ) ;
#406 = CIRCLE ( 'NONE', #28, 4.000000000000000000 ) ;
#407 = CARTESIAN_POINT ( 'NONE',  ( -9.099999999999999645, -7.000000000000000000, 0.000000000000000000 ) ) ;
#408 = ADVANCED_FACE ( 'NONE', ( #826 ), #226, .F. ) ;
#409 = ORIENTED_EDGE ( 'NONE', *, *, #695, .F. ) ;
#410 = CARTESIAN_POINT ( 'NONE',  ( -7.000000000000000000, -7.000000000000000000, 2.000000000000001776 ) ) ;
#411 = CARTESIAN_POINT ( 'NONE',  ( -13.00000000000000000, 0.000000000000000000, 2.000000000000000000 ) ) ;
#412 = ORIENTED_EDGE ( 'NONE', *, *, #600, .F. ) ;
#413 = CARTESIAN_POINT ( 'NONE',  ( 0.000000000000000000, 0.000000000000000000, 2.000000000000000000 ) ) ;
#414 = DIRECTION ( 'NONE',  ( -1.000000000000000000, 0.000000000000000000, 0.000000000000000000 ) ) ;
#415 = EDGE_CURVE ( 'NONE', #76, #334, #497, .T. ) ;
#416 = EDGE_LOOP ( 'NONE', ( #422, #292 ) ) ;
#417 = FACE_BOUND ( 'NONE', #825, .T. ) ;
#418 = DATE_AND_TIME ( #552, #566 ) ;
#419 = ORIENTED_EDGE ( 'NONE', *, *, #669, .F. ) ;
#420 = CARTESIAN_POINT ( 'NONE',  ( -8.150000000000000355, -7.000000000000000000, 2.000000000000001776 ) ) ;
#421 = DIRECTION ( 'NONE',  ( 0.000000000000000000, 0.000000000000000000, -1.000000000000000000 ) ) ;
#422 = ORIENTED_EDGE ( 'NONE', *, *, #666, .F. ) ;
#423 = CARTESIAN_POINT ( 'NONE',  ( 0.000000000000000000, 0.000000000000000000, 2.000000000000000000 ) ) ;
#424 = CIRCLE ( 'NONE', #818, 4.000000000000000000 ) ;
#425 = CIRCLE ( 'NONE', #333, 1.149999999999999911 ) ;
#426 = CYLINDRICAL_SURFACE ( 'NONE', #96, 2.100000000000000089 ) ;
#427 = EDGE_CURVE ( 'NONE', #428, #280, #458, .T. ) ;
#428 = VERTEX_POINT ( 'NONE', #776 ) ;
#429 = DIRECTION ( 'NONE',  ( -1.000000000000000000, 0.000000000000000000, 0.000000000000000000 ) ) ;
#430 = CYLINDRICAL_SURFACE ( 'NONE', #449, 2.100000000000000089 ) ;
#431 = CARTESIAN_POINT ( 'NONE',  ( 7.000000000000000000, 7.000000000000000000, 2.000000000000001776 ) ) ;
#432 = ORIENTED_EDGE ( 'NONE', *, *, #625, .F. ) ;
#433 = ORIENTED_EDGE ( 'NONE', *, *, #604, .F. ) ;
#434 = DIRECTION ( 'NONE',  ( 0.000000000000000000, 0.000000000000000000, 1.000000000000000000 ) ) ;
#435 = CIRCLE ( 'NONE', #594, 13.00000000000000000 ) ;
#436 = LINE ( 'NONE', #446, #10 ) ;
#437 = FACE_BOUND ( 'NONE', #79, .T. ) ;
#438 = ORIENTED_EDGE ( 'NONE', *, *, #174, .T. ) ;
#439 = EDGE_CURVE ( 'NONE', #754, #40, #203, .T. ) ;
#440 = PLANE ( 'NONE',  #472 ) ;
#441 = CARTESIAN_POINT ( 'NONE',  ( -4.000000000000000000, 0.000000000000000000, 2.000000000000000000 ) ) ;
#442 = CARTESIAN_POINT ( 'NONE',  ( 7.000000000000000000, 7.000000000000000000, 0.5500000000000000444 ) ) ;
#443 = EDGE_LOOP ( 'NONE', ( #792, #397, #795, #409 ) ) ;
#444 = EDGE_CURVE ( 'NONE', #479, #560, #697, .T. ) ;
#445 = CARTESIAN_POINT ( 'NONE',  ( 7.000000000000000000, -7.000000000000000000, 0.5500000000000000444 ) ) ;
#446 = CARTESIAN_POINT ( 'NONE',  ( 9.099999999999999645, 7.000000000000000000, 0.5500000000000000444 ) ) ;
#447 = CARTESIAN_POINT ( 'NONE',  ( 5.849999999999999645, -7.000000000000000000, 0.5500000000000001554 ) ) ;
#448 = EDGE_LOOP ( 'NONE', ( #245, #433 ) ) ;
#449 = AXIS2_PLACEMENT_3D ( 'NONE', #721, #335, #385 ) ;
#450 = CARTESIAN_POINT ( 'NONE',  ( -7.000000000000000000, -7.000000000000000000, 2.000000000000001776 ) ) ;
#451 = CYLINDRICAL_SURFACE ( 'NONE', #128, 1.150000000000000799 ) ;
#452 = DIRECTION ( 'NONE',  ( 0.000000000000000000, 0.000000000000000000, 1.000000000000000000 ) ) ;
#453 = DESIGN_CONTEXT ( 'detailed design', #358, 'design' ) ;
#454 = ADVANCED_FACE ( 'NONE', ( #97, #20 ), #440, .F. ) ;
#455 = PERSON_AND_ORGANIZATION ( #345, #68 ) ;
#456 = AXIS2_PLACEMENT_3D ( 'NONE', #863, #735, #190 ) ;
#457 = CC_DESIGN_PERSON_AND_ORGANIZATION_ASSIGNMENT ( #455, #469, ( #496 ) ) ;
#458 = CIRCLE ( 'NONE', #82, 2.100000000000000089 ) ;
#459 = CARTESIAN_POINT ( 'NONE',  ( -7.000000000000000000, -7.000000000000000000, 0.000000000000000000 ) ) ;
#460 = PERSON_AND_ORGANIZATION ( #345, #68 ) ;
#461 = DIRECTION ( 'NONE',  ( 0.000000000000000000, 0.000000000000000000, -1.000000000000000000 ) ) ;
#462 = DIRECTION ( 'NONE',  ( 0.000000000000000000, 0.000000000000000000, 1.000000000000000000 ) ) ;
#463 = SECURITY_CLASSIFICATION_LEVEL ( 'unclassified' ) ;
#464 = CIRCLE ( 'NONE', #88, 2.100000000000000089 ) ;
#465 = ADVANCED_FACE ( 'NONE', ( #289 ), #822, .F. ) ;
#466 = ORIENTED_EDGE ( 'NONE', *, *, #672, .T. ) ;
#467 = DIRECTION ( 'NONE',  ( 0.000000000000000000, 0.000000000000000000, 1.000000000000000000 ) ) ;
#468 = ADVANCED_FACE ( 'NONE', ( #641 ), #551, .F. ) ;
#469 = PERSON_AND_ORGANIZATION_ROLE ( 'design_supplier' ) ;
#470 = ORIENTED_EDGE ( 'NONE', *, *, #444, .T. ) ;
#471 = ADVANCED_FACE ( 'NONE', ( #177 ), #820, .F. ) ;
#472 = AXIS2_PLACEMENT_3D ( 'NONE', #236, #770, #90 ) ;
#473 = AXIS2_PLACEMENT_3D ( 'NONE', #686, #104, #170 ) ;
#474 = DIRECTION ( 'NONE',  ( -0.000000000000000000, -0.000000000000000000, -1.000000000000000000 ) ) ;
#475 = DIRECTION ( 'NONE',  ( -1.000000000000000000, 0.000000000000000000, 0.000000000000000000 ) ) ;
#476 = ORIENTED_EDGE ( 'NONE', *, *, #557, .F. ) ;
#477 = CARTESIAN_POINT ( 'NONE',  ( 7.000000000000000000, 7.000000000000000000, 0.5500000000000001554 ) ) ;
#478 = AXIS2_PLACEMENT_3D ( 'NONE', #442, #105, #117 ) ;
#479 = VERTEX_POINT ( 'NONE', #156 ) ;
#480 = FACE_BOUND ( 'NONE', #340, .T. ) ;
#481 = FACE_OUTER_BOUND ( 'NONE', #699, .T. ) ;
#482 = ORIENTED_EDGE ( 'NONE', *, *, #254, .T. ) ;
#483 = FACE_OUTER_BOUND ( 'NONE', #264, .T. ) ;
#484 = ORIENTED_EDGE ( 'NONE', *, *, #74, .T. ) ;
#485 = ORIENTED_EDGE ( 'NONE', *, *, #133, .T. ) ;
#486 = DIRECTION ( 'NONE',  ( 0.000000000000000000, 0.000000000000000000, 1.000000000000000000 ) ) ;
#487 = VECTOR ( 'NONE', #178, 1000.000000000000000 ) ;
#488 = CARTESIAN_POINT ( 'NONE',  ( 8.150000000000000355, -7.000000000000000000, 0.5500000000000001554 ) ) ;
#489 = VERTEX_POINT ( 'NONE', #360 ) ;
#490 = DIRECTION ( 'NONE',  ( 1.000000000000000000, 0.000000000000000000, 0.000000000000000000 ) ) ;
#491 = APPROVAL ( #267, 'UNSPECIFIED' ) ;
#492 = EDGE_LOOP ( 'NONE', ( #337, #540, #173, #634 ) ) ;
#493 = VERTEX_POINT ( 'NONE', #631 ) ;
#494 = CARTESIAN_POINT ( 'NONE',  ( 7.000000000000000000, 7.000000000000000000, 2.000000000000001776 ) ) ;
#495 = AXIS2_PLACEMENT_3D ( 'NONE', #413, #474, #145 ) ;
#496 = PRODUCT_DEFINITION_FORMATION_WITH_SPECIFIED_SOURCE ( 'ANY', '', #29, .NOT_KNOWN. ) ;
#497 = CIRCLE ( 'NONE', #831, 4.000000000000000000 ) ;
#498 = CARTESIAN_POINT ( 'NONE',  ( -7.000000000000000000, 7.000000000000000000, 0.5500000000000001554 ) ) ;
#499 = DIRECTION ( 'NONE',  ( 1.000000000000000000, 0.000000000000000000, 0.000000000000000000 ) ) ;
#500 = ORIENTED_EDGE ( 'NONE', *, *, #804, .F. ) ;
#501 = CARTESIAN_POINT ( 'NONE',  ( 4.000000000000000000, 4.898587196589412829E-16, 2.000000000000000000 ) ) ;
#502 = LINE ( 'NONE', #637, #374 ) ;
#503 = CARTESIAN_POINT ( 'NONE',  ( -7.000000000000000000, 7.000000000000000000, 2.000000000000001776 ) ) ;
#504 = ORIENTED_EDGE ( 'NONE', *, *, #629, .F. ) ;
#505 = APPROVAL ( #70, 'UNSPECIFIED' ) ;
#506 = CYLINDRICAL_SURFACE ( 'NONE', #538, 1.150000000000000799 ) ;
#507 = CIRCLE ( 'NONE', #171, 2.100000000000000089 ) ;
#508 = CIRCLE ( 'NONE', #230, 1.149999999999999911 ) ;
#509 = FACE_OUTER_BOUND ( 'NONE', #671, .T. ) ;
#510 = PLANE ( 'NONE',  #478 ) ;
#511 = ORIENTED_EDGE ( 'NONE', *, *, #415, .T. ) ;
#512 = EDGE_CURVE ( 'NONE', #229, #139, #312, .T. ) ;
#513 = LINE ( 'NONE', #528, #32 ) ;
#514 = DIRECTION ( 'NONE',  ( 0.000000000000000000, 0.000000000000000000, 1.000000000000000000 ) ) ;
#515 = CYLINDRICAL_SURFACE ( 'NONE', #668, 1.150000000000000799 ) ;
#516 = CARTESIAN_POINT ( 'NONE',  ( 7.000000000000000000, 7.000000000000000000, 2.000000000000001776 ) ) ;
#517 = DIRECTION ( 'NONE',  ( 0.000000000000000000, 0.000000000000000000, 1.000000000000000000 ) ) ;
#518 = VECTOR ( 'NONE', #421, 1000.000000000000000 ) ;
#519 = DIRECTION ( 'NONE',  ( 0.000000000000000000, 0.000000000000000000, 1.000000000000000000 ) ) ;
#520 = AXIS2_PLACEMENT_3D ( 'NONE', #445, #720, #112 ) ;
#521 = APPROVAL_ROLE ( '' ) ;
#522 = CC_DESIGN_PERSON_AND_ORGANIZATION_ASSIGNMENT ( #460, #260, ( #496 ) ) ;
#523 = VERTEX_POINT ( 'NONE', #728 ) ;
#524 = DIRECTION ( 'NONE',  ( 1.000000000000000000, 0.000000000000000000, 0.000000000000000000 ) ) ;
#525 = DATE_AND_TIME ( #596, #119 ) ;
#526 = LOCAL_TIME ( 22, 19, 32.00000000000000000, #591 ) ;
#527 = ORIENTED_EDGE ( 'NONE', *, *, #92, .F. ) ;
#528 = CARTESIAN_POINT ( 'NONE',  ( -4.899999999999999467, -7.000000000000000000, 0.5500000000000000444 ) ) ;
#529 = LINE ( 'NONE', #766, #595 ) ;
#530 = PERSON_AND_ORGANIZATION ( #345, #68 ) ;
#531 = EDGE_LOOP ( 'NONE', ( #613, #466, #692, #665 ) ) ;
#532 = ADVANCED_FACE ( 'NONE', ( #593 ), #332, .F. ) ;
#533 = FACE_OUTER_BOUND ( 'NONE', #708, .T. ) ;
#534 = EDGE_CURVE ( 'NONE', #137, #3, #121, .T. ) ;
#535 = ORIENTED_EDGE ( 'NONE', *, *, #415, .F. ) ;
#536 = DIRECTION ( 'NONE',  ( 1.000000000000000000, 0.000000000000000000, 0.000000000000000000 ) ) ;
#537 = CALENDAR_DATE ( 2026, 8, 9 ) ;
#538 = AXIS2_PLACEMENT_3D ( 'NONE', #494, #572, #429 ) ;
#539 = CC_DESIGN_APPROVAL ( #491, ( #711 ) ) ;
#540 = ORIENTED_EDGE ( 'NONE', *, *, #352, .T. ) ;
#541 = AXIS2_PLACEMENT_3D ( 'NONE', #477, #615, #737 ) ;
#542 = FACE_BOUND ( 'NONE', #675, .T. ) ;
#543 = ORIENTED_EDGE ( 'NONE', *, *, #742, .T. ) ;
#544 = FACE_OUTER_BOUND ( 'NONE', #184, .T. ) ;
#545 = CARTESIAN_POINT ( 'NONE',  ( -7.000000000000000000, -7.000000000000000000, 0.000000000000000000 ) ) ;
#546 = EDGE_CURVE ( 'NONE', #839, #610, #852, .T. ) ;
#547 = CIRCLE ( 'NONE', #140, 1.149999999999999911 ) ;
#548 = ORIENTED_EDGE ( 'NONE', *, *, #377, .F. ) ;
#549 = CYLINDRICAL_SURFACE ( 'NONE', #803, 2.100000000000000089 ) ;
#550 = ORIENTED_EDGE ( 'NONE', *, *, #218, .T. ) ;
#551 = CYLINDRICAL_SURFACE ( 'NONE', #331, 1.150000000000000799 ) ;
#552 = CALENDAR_DATE ( 2026, 8, 9 ) ;
#553 = AXIS2_PLACEMENT_3D ( 'NONE', #832, #109, #129 ) ;
#554 = DIRECTION ( 'NONE',  ( 0.000000000000000000, 0.000000000000000000, 1.000000000000000000 ) ) ;
#555 = ORIENTED_EDGE ( 'NONE', *, *, #174, .F. ) ;
#556 = DIRECTION ( 'NONE',  ( 0.000000000000000000, 0.000000000000000000, -1.000000000000000000 ) ) ;
#557 = EDGE_CURVE ( 'NONE', #280, #428, #99, .T. ) ;
#558 = LINE ( 'NONE', #824, #704 ) ;
#559 = EDGE_CURVE ( 'NONE', #19, #756, #259, .T. ) ;
#560 = VERTEX_POINT ( 'NONE', #125 ) ;
#561 = AXIS2_PLACEMENT_3D ( 'NONE', #722, #778, #244 ) ;
#562 = DIRECTION ( 'NONE',  ( 1.000000000000000000, 0.000000000000000000, 0.000000000000000000 ) ) ;
#563 = DIRECTION ( 'NONE',  ( 0.000000000000000000, 0.000000000000000000, 1.000000000000000000 ) ) ;
#564 = ORIENTED_EDGE ( 'NONE', *, *, #384, .T. ) ;
#565 = FACE_OUTER_BOUND ( 'NONE', #602, .T. ) ;
#566 = LOCAL_TIME ( 22, 19, 32.00000000000000000, #282 ) ;
#567 = AXIS2_PLACEMENT_3D ( 'NONE', #398, #67, #114 ) ;
#568 = AXIS2_PLACEMENT_3D ( 'NONE', #752, #744, #816 ) ;
#569 = CARTESIAN_POINT ( 'NONE',  ( 5.849999999999999645, 7.000000000000000000, 2.000000000000001776 ) ) ;
#570 = DIRECTION ( 'NONE',  ( 0.000000000000000000, 0.000000000000000000, 1.000000000000000000 ) ) ;
#571 = EDGE_LOOP ( 'NONE', ( #470, #774 ) ) ;
#572 = DIRECTION ( 'NONE',  ( 0.000000000000000000, 0.000000000000000000, -1.000000000000000000 ) ) ;
#573 = PERSON_AND_ORGANIZATION ( #345, #68 ) ;
#574 = DIRECTION ( 'NONE',  ( 0.000000000000000000, 0.000000000000000000, 1.000000000000000000 ) ) ;
#575 = PLANE ( 'NONE',  #366 ) ;
#576 = EDGE_LOOP ( 'NONE', ( #485, #724 ) ) ;
#577 = CARTESIAN_POINT ( 'NONE',  ( 0.000000000000000000, 0.000000000000000000, 2.000000000000000000 ) ) ;
#578 = AXIS2_PLACEMENT_3D ( 'NONE', #450, #51, #327 ) ;
#579 = DIRECTION ( 'NONE',  ( 1.000000000000000000, 0.000000000000000000, 0.000000000000000000 ) ) ;
#580 = DIRECTION ( 'NONE',  ( 1.000000000000000000, 0.000000000000000000, 0.000000000000000000 ) ) ;
#581 = ORIENTED_EDGE ( 'NONE', *, *, #557, .T. ) ;
#582 = CARTESIAN_POINT ( 'NONE',  ( -9.099999999999999645, -7.000000000000000000, 0.5500000000000000444 ) ) ;
#583 = DIRECTION ( 'NONE',  ( 1.000000000000000000, 0.000000000000000000, 0.000000000000000000 ) ) ;
#584 = LOCAL_TIME ( 22, 19, 32.00000000000000000, #794 ) ;
#585 = DIRECTION ( 'NONE',  ( 0.000000000000000000, 0.000000000000000000, -1.000000000000000000 ) ) ;
#586 = CARTESIAN_POINT ( 'NONE',  ( -7.000000000000000000, 7.000000000000000000, 2.000000000000001776 ) ) ;
#587 = AXIS2_PLACEMENT_3D ( 'NONE', #241, #627, #371 ) ;
#588 = VECTOR ( 'NONE', #36, 1000.000000000000000 ) ;
#589 = CARTESIAN_POINT ( 'NONE',  ( 7.000000000000000000, 7.000000000000000000, 0.5500000000000001554 ) ) ;
#590 = ADVANCED_FACE ( 'NONE', ( #246 ), #262, .T. ) ;
#591 = COORDINATED_UNIVERSAL_TIME_OFFSET ( 6, 0, .BEHIND. ) ;
#592 = ORIENTED_EDGE ( 'NONE', *, *, #742, .F. ) ;
#593 = FACE_OUTER_BOUND ( 'NONE', #219, .T. ) ;
#594 = AXIS2_PLACEMENT_3D ( 'NONE', #793, #841, #861 ) ;
#595 = VECTOR ( 'NONE', #311, 1000.000000000000000 ) ;
#596 = CALENDAR_DATE ( 2026, 8, 9 ) ;
#597 = VERTEX_POINT ( 'NONE', #194 ) ;
#598 = AXIS2_PLACEMENT_3D ( 'NONE', #577, #395, #855 ) ;
#599 = CARTESIAN_POINT ( 'NONE',  ( 8.150000000000000355, -7.000000000000000000, 2.000000000000001776 ) ) ;
#600 = EDGE_CURVE ( 'NONE', #838, #137, #814, .T. ) ;
#601 = APPLICATION_PROTOCOL_DEFINITION ( 'international standard', 'config_control_design', 1994, #136 ) ;
#602 = EDGE_LOOP ( 'NONE', ( #202, #180, #799, #639 ) ) ;
#603 = CARTESIAN_POINT ( 'NONE',  ( 4.000000000000000000, 4.898587196589412829E-16, 0.000000000000000000 ) ) ;
#604 = EDGE_CURVE ( 'NONE', #369, #640, #435, .T. ) ;
#605 = PERSON_AND_ORGANIZATION_ROLE ( 'creator' ) ;
#606 = ORIENTED_EDGE ( 'NONE', *, *, #4, .T. ) ;
#607 = AXIS2_PLACEMENT_3D ( 'NONE', #733, #195, #579 ) ;
#608 = CARTESIAN_POINT ( 'NONE',  ( -8.150000000000000355, -7.000000000000000000, 0.5500000000000001554 ) ) ;
#609 = MECHANICAL_CONTEXT ( 'NONE', #136, 'mechanical' ) ;
#610 = VERTEX_POINT ( 'NONE', #61 ) ;
#611 = DIRECTION ( 'NONE',  ( -1.000000000000000000, 0.000000000000000000, 0.000000000000000000 ) ) ;
#612 = APPROVAL_ROLE ( '' ) ;
#613 = ORIENTED_EDGE ( 'NONE', *, *, #7, .F. ) ;
#614 = CIRCLE ( 'NONE', #568, 2.100000000000000089 ) ;
#615 = DIRECTION ( 'NONE',  ( 0.000000000000000000, 0.000000000000000000, 1.000000000000000000 ) ) ;
#616 = SHAPE_DEFINITION_REPRESENTATION ( #760, #693 ) ;
#617 = EDGE_CURVE ( 'NONE', #400, #343, #464, .T. ) ;
#618 = EDGE_LOOP ( 'NONE', ( #161, #288 ) ) ;
#619 = DIRECTION ( 'NONE',  ( 0.000000000000000000, 0.000000000000000000, -1.000000000000000000 ) ) ;
#620 = ORIENTED_EDGE ( 'NONE', *, *, #237, .F. ) ;
#621 = AXIS2_PLACEMENT_3D ( 'NONE', #516, #116, #387 ) ;
#622 = EDGE_LOOP ( 'NONE', ( #295, #8 ) ) ;
#623 = DIRECTION ( 'NONE',  ( 0.000000000000000000, 0.000000000000000000, -1.000000000000000000 ) ) ;
#624 = ORIENTED_EDGE ( 'NONE', *, *, #187, .T. ) ;
#625 = EDGE_CURVE ( 'NONE', #59, #354, #709, .T. ) ;
#626 = ORIENTED_EDGE ( 'NONE', *, *, #534, .F. ) ;
#627 = DIRECTION ( 'NONE',  ( 0.000000000000000000, 0.000000000000000000, -1.000000000000000000 ) ) ;
#628 = VECTOR ( 'NONE', #301, 1000.000000000000000 ) ;
#629 = EDGE_CURVE ( 'NONE', #50, #175, #185, .T. ) ;
#630 = ORIENTED_EDGE ( 'NONE', *, *, #723, .F. ) ;
#631 = CARTESIAN_POINT ( 'NONE',  ( -8.150000000000000355, 7.000000000000000000, 2.000000000000001776 ) ) ;
#632 = CIRCLE ( 'NONE', #258, 2.100000000000000089 ) ;
#633 = CARTESIAN_POINT ( 'NONE',  ( 0.000000000000000000, 0.000000000000000000, 2.000000000000000000 ) ) ;
#634 = ORIENTED_EDGE ( 'NONE', *, *, #404, .F. ) ;
#635 = CIRCLE ( 'NONE', #745, 2.100000000000000089 ) ;
#636 = CARTESIAN_POINT ( 'NONE',  ( 7.000000000000000000, -7.000000000000000000, 0.000000000000000000 ) ) ;
#637 = CARTESIAN_POINT ( 'NONE',  ( -8.150000000000000355, -7.000000000000000000, 2.000000000000001776 ) ) ;
#638 = CARTESIAN_POINT ( 'NONE',  ( 5.849999999999999645, -7.000000000000000000, 2.000000000000001776 ) ) ;
#639 = ORIENTED_EDGE ( 'NONE', *, *, #142, .F. ) ;
#640 = VERTEX_POINT ( 'NONE', #265 ) ;
#641 = FACE_OUTER_BOUND ( 'NONE', #683, .T. ) ;
#642 = DIRECTION ( 'NONE',  ( 1.000000000000000000, 0.000000000000000000, 0.000000000000000000 ) ) ;
#643 = CARTESIAN_POINT ( 'NONE',  ( 7.000000000000000000, 7.000000000000000000, 0.5500000000000000444 ) ) ;
#644 = EDGE_LOOP ( 'NONE', ( #216, #330, #144, #630 ) ) ;
#645 = ORIENTED_EDGE ( 'NONE', *, *, #74, .F. ) ;
#646 = EDGE_CURVE ( 'NONE', #280, #400, #513, .T. ) ;
#647 = CARTESIAN_POINT ( 'NONE',  ( -9.099999999999999645, 7.000000000000000000, 0.5500000000000000444 ) ) ;
#648 = CARTESIAN_POINT ( 'NONE',  ( 7.000000000000000000, 7.000000000000000000, 0.5500000000000000444 ) ) ;
#649 = CARTESIAN_POINT ( 'NONE',  ( -9.099999999999999645, 7.000000000000000000, 0.000000000000000000 ) ) ;
#650 = ORIENTED_EDGE ( 'NONE', *, *, #62, .F. ) ;
#651 = DIRECTION ( 'NONE',  ( 0.000000000000000000, 0.000000000000000000, 1.000000000000000000 ) ) ;
#652 = CARTESIAN_POINT ( 'NONE',  ( -7.000000000000000000, 7.000000000000000000, 0.000000000000000000 ) ) ;
#653 = ADVANCED_FACE ( 'NONE', ( #780, #127 ), #181, .F. ) ;
#654 = DIRECTION ( 'NONE',  ( 0.000000000000000000, 0.000000000000000000, 1.000000000000000000 ) ) ;
#655 = CARTESIAN_POINT ( 'NONE',  ( 7.000000000000000000, -7.000000000000000000, 0.000000000000000000 ) ) ;
#656 = ORIENTED_EDGE ( 'NONE', *, *, #274, .T. ) ;
#657 = CC_DESIGN_PERSON_AND_ORGANIZATION_ASSIGNMENT ( #530, #6, ( #29 ) ) ;
#658 = CARTESIAN_POINT ( 'NONE',  ( 9.099999999999999645, 7.000000000000000000, 0.000000000000000000 ) ) ;
#659 = CIRCLE ( 'NONE', #162, 2.100000000000000089 ) ;
#660 = SECURITY_CLASSIFICATION ( '', '', #463 ) ;
#661 = ORIENTED_EDGE ( 'NONE', *, *, #221, .T. ) ;
#662 = CIRCLE ( 'NONE', #158, 2.100000000000000089 ) ;
#663 = DIRECTION ( 'NONE',  ( 1.000000000000000000, 0.000000000000000000, 0.000000000000000000 ) ) ;
#664 = DIRECTION ( 'NONE',  ( 0.000000000000000000, 0.000000000000000000, -1.000000000000000000 ) ) ;
#665 = ORIENTED_EDGE ( 'NONE', *, *, #512, .F. ) ;
#666 = EDGE_CURVE ( 'NONE', #359, #314, #396, .T. ) ;
#667 = DIRECTION ( 'NONE',  ( 0.000000000000000000, 0.000000000000000000, -1.000000000000000000 ) ) ;
#668 = AXIS2_PLACEMENT_3D ( 'NONE', #586, #256, #379 ) ;
#669 = EDGE_CURVE ( 'NONE', #428, #343, #316, .T. ) ;
#670 =( NAMED_UNIT ( * ) PLANE_ANGLE_UNIT ( ) SI_UNIT ( $, .RADIAN. ) );
#671 = EDGE_LOOP ( 'NONE', ( #484, #44, #740, #101 ) ) ;
#672 = EDGE_CURVE ( 'NONE', #834, #489, #811, .T. ) ;
#673 = DIRECTION ( 'NONE',  ( 0.000000000000000000, 0.000000000000000000, 1.000000000000000000 ) ) ;
#674 = PERSON_AND_ORGANIZATION ( #345, #68 ) ;
#675 = EDGE_LOOP ( 'NONE', ( #763, #18 ) ) ;
#676 = CARTESIAN_POINT ( 'NONE',  ( -4.899999999999999467, -7.000000000000000000, 0.5500000000000000444 ) ) ;
#677 = VERTEX_POINT ( 'NONE', #658 ) ;
#678 = CARTESIAN_POINT ( 'NONE',  ( 9.099999999999999645, -7.000000000000000000, 0.000000000000000000 ) ) ;
#679 = VERTEX_POINT ( 'NONE', #253 ) ;
#680 = CC_DESIGN_DATE_AND_TIME_ASSIGNMENT ( #805, #58, ( #711 ) ) ;
#681 = FACE_OUTER_BOUND ( 'NONE', #321, .T. ) ;
#682 = LINE ( 'NONE', #85, #787 ) ;
#683 = EDGE_LOOP ( 'NONE', ( #626, #24, #564, #370 ) ) ;
#684 = AXIS2_PLACEMENT_3D ( 'NONE', #648, #673, #378 ) ;
#685 = FACE_BOUND ( 'NONE', #193, .T. ) ;
#686 = CARTESIAN_POINT ( 'NONE',  ( -7.000000000000000000, -7.000000000000000000, 0.5500000000000000444 ) ) ;
#687 = ORIENTED_EDGE ( 'NONE', *, *, #151, .F. ) ;
#688 = CARTESIAN_POINT ( 'NONE',  ( -5.850000000000000533, -7.000000000000000000, 2.000000000000001776 ) ) ;
#689 = EDGE_CURVE ( 'NONE', #756, #610, #199, .T. ) ;
#690 = FACE_OUTER_BOUND ( 'NONE', #228, .T. ) ;
#691 = CIRCLE ( 'NONE', #712, 1.149999999999999911 ) ;
#692 = ORIENTED_EDGE ( 'NONE', *, *, #142, .T. ) ;
#693 = ADVANCED_BREP_SHAPE_REPRESENTATION ( 'ARM-112_SG90_horn_capture_cap', ( #164, #456 ), #750 ) ;
#694 = DIRECTION ( 'NONE',  ( 1.000000000000000000, 0.000000000000000000, 0.000000000000000000 ) ) ;
#695 = EDGE_CURVE ( 'NONE', #854, #349, #547, .T. ) ;
#696 = CARTESIAN_POINT ( 'NONE',  ( -7.000000000000000000, 7.000000000000000000, 0.5500000000000000444 ) ) ;
#697 = CIRCLE ( 'NONE', #319, 1.149999999999999911 ) ;
#698 = APPROVAL_PERSON_ORGANIZATION ( #196, #505, #207 ) ;
#699 = EDGE_LOOP ( 'NONE', ( #743, #581, #747, #124 ) ) ;
#700 = DIRECTION ( 'NONE',  ( -1.000000000000000000, 0.000000000000000000, 0.000000000000000000 ) ) ;
#701 = AXIS2_PLACEMENT_3D ( 'NONE', #209, #78, #536 ) ;
#702 = ORIENTED_EDGE ( 'NONE', *, *, #60, .T. ) ;
#703 = CARTESIAN_POINT ( 'NONE',  ( 13.00000000000000000, 1.592040838891559095E-15, 0.000000000000000000 ) ) ;
#704 = VECTOR ( 'NONE', #353, 1000.000000000000000 ) ;
#705 = CARTESIAN_POINT ( 'NONE',  ( 4.899999999999999467, -7.000000000000000000, 0.000000000000000000 ) ) ;
#706 = DIRECTION ( 'NONE',  ( -1.000000000000000000, 0.000000000000000000, 0.000000000000000000 ) ) ;
#707 = VERTEX_POINT ( 'NONE', #850 ) ;
#708 = EDGE_LOOP ( 'NONE', ( #405, #476 ) ) ;
#709 = CIRCLE ( 'NONE', #578, 1.149999999999999911 ) ;
#710 = DIRECTION ( 'NONE',  ( 0.000000000000000000, 0.000000000000000000, 1.000000000000000000 ) ) ;
#711 = PRODUCT_DEFINITION ( 'UNKNOWN', '', #496, #453 ) ;
#712 = AXIS2_PLACEMENT_3D ( 'NONE', #179, #714, #307 ) ;
#713 = DIRECTION ( 'NONE',  ( 0.000000000000000000, 0.000000000000000000, -1.000000000000000000 ) ) ;
#714 = DIRECTION ( 'NONE',  ( 0.000000000000000000, 0.000000000000000000, 1.000000000000000000 ) ) ;
#715 = ORIENTED_EDGE ( 'NONE', *, *, #646, .T. ) ;
#716 = CARTESIAN_POINT ( 'NONE',  ( 5.849999999999999645, -7.000000000000000000, 2.000000000000001776 ) ) ;
#717 = CARTESIAN_POINT ( 'NONE',  ( 7.000000000000000000, -7.000000000000000000, 0.5500000000000000444 ) ) ;
#718 = DIRECTION ( 'NONE',  ( 0.000000000000000000, 0.000000000000000000, 1.000000000000000000 ) ) ;
#719 = ORIENTED_EDGE ( 'NONE', *, *, #92, .T. ) ;
#720 = DIRECTION ( 'NONE',  ( 0.000000000000000000, 0.000000000000000000, 1.000000000000000000 ) ) ;
#721 = CARTESIAN_POINT ( 'NONE',  ( -7.000000000000000000, 7.000000000000000000, 0.5500000000000000444 ) ) ;
#722 = CARTESIAN_POINT ( 'NONE',  ( 0.000000000000000000, 0.000000000000000000, 0.000000000000000000 ) ) ;
#723 = EDGE_CURVE ( 'NONE', #677, #707, #507, .T. ) ;
#724 = ORIENTED_EDGE ( 'NONE', *, *, #723, .T. ) ;
#725 = DIRECTION ( 'NONE',  ( 1.000000000000000000, 0.000000000000000000, 0.000000000000000000 ) ) ;
#726 = ADVANCED_FACE ( 'NONE', ( #437, #828, #54, #186, #767, #303 ), #575, .T. ) ;
#727 = DIRECTION ( 'NONE',  ( 0.000000000000000000, 0.000000000000000000, -1.000000000000000000 ) ) ;
#728 = CARTESIAN_POINT ( 'NONE',  ( 9.099999999999999645, -7.000000000000000000, 0.5500000000000000444 ) ) ;
#729 = APPLICATION_PROTOCOL_DEFINITION ( 'international standard', 'config_control_design', 1994, #358 ) ;
#730 = AXIS2_PLACEMENT_3D ( 'NONE', #741, #16, #808 ) ;
#731 = DIRECTION ( 'NONE',  ( 1.000000000000000000, 0.000000000000000000, 0.000000000000000000 ) ) ;
#732 = DIRECTION ( 'NONE',  ( 0.000000000000000000, 0.000000000000000000, 1.000000000000000000 ) ) ;
#733 = CARTESIAN_POINT ( 'NONE',  ( 7.000000000000000000, -7.000000000000000000, 2.000000000000001776 ) ) ;
#734 = AXIS2_PLACEMENT_3D ( 'NONE', #652, #317, #583 ) ;
#735 = DIRECTION ( 'NONE',  ( 0.000000000000000000, 0.000000000000000000, 1.000000000000000000 ) ) ;
#736 = ORIENTED_EDGE ( 'NONE', *, *, #845, .F. ) ;
#737 = DIRECTION ( 'NONE',  ( 1.000000000000000000, 0.000000000000000000, 0.000000000000000000 ) ) ;
#738 = PERSON_AND_ORGANIZATION ( #345, #68 ) ;
#739 = AXIS2_PLACEMENT_3D ( 'NONE', #764, #556, #305 ) ;
#740 = ORIENTED_EDGE ( 'NONE', *, *, #689, .F. ) ;
#741 = CARTESIAN_POINT ( 'NONE',  ( 7.000000000000000000, -7.000000000000000000, 0.5500000000000001554 ) ) ;
#742 = EDGE_CURVE ( 'NONE', #493, #679, #691, .T. ) ;
#743 = ORIENTED_EDGE ( 'NONE', *, *, #646, .F. ) ;
#744 = DIRECTION ( 'NONE',  ( 0.000000000000000000, 0.000000000000000000, 1.000000000000000000 ) ) ;
#745 = AXIS2_PLACEMENT_3D ( 'NONE', #655, #517, #580 ) ;
#746 = CARTESIAN_POINT ( 'NONE',  ( 7.000000000000000000, -7.000000000000000000, 0.5500000000000000444 ) ) ;
#747 = ORIENTED_EDGE ( 'NONE', *, *, #669, .T. ) ;
#748 = CARTESIAN_POINT ( 'NONE',  ( 7.000000000000000000, 7.000000000000000000, 0.5500000000000000444 ) ) ;
#749 = CYLINDRICAL_SURFACE ( 'NONE', #473, 2.100000000000000089 ) ;
#750 =( GEOMETRIC_REPRESENTATION_CONTEXT ( 3 ) GLOBAL_UNCERTAINTY_ASSIGNED_CONTEXT ( ( #388 ) ) GLOBAL_UNIT_ASSIGNED_CONTEXT ( ( #390, #670, #336 ) ) REPRESENTATION_CONTEXT ( 'NONE', 'WORKASPACE' ) );
#751 = ORIENTED_EDGE ( 'NONE', *, *, #617, .T. ) ;
#752 = CARTESIAN_POINT ( 'NONE',  ( 7.000000000000000000, 7.000000000000000000, 0.5500000000000000444 ) ) ;
#753 = APPROVAL_DATE_TIME ( #418, #380 ) ;
#754 = VERTEX_POINT ( 'NONE', #110 ) ;
#755 = ADVANCED_FACE ( 'NONE', ( #248 ), #515, .F. ) ;
#756 = VERTEX_POINT ( 'NONE', #649 ) ;
#757 = DIRECTION ( 'NONE',  ( -0.000000000000000000, -0.000000000000000000, -1.000000000000000000 ) ) ;
#758 = ORIENTED_EDGE ( 'NONE', *, *, #266, .F. ) ;
#759 = DIRECTION ( 'NONE',  ( 1.000000000000000000, 0.000000000000000000, 0.000000000000000000 ) ) ;
#760 = PRODUCT_DEFINITION_SHAPE ( 'NONE', 'NONE',  #711 ) ;
#761 = CIRCLE ( 'NONE', #701, 13.00000000000000000 ) ;
#762 = CC_DESIGN_SECURITY_CLASSIFICATION ( #660, ( #496 ) ) ;
#763 = ORIENTED_EDGE ( 'NONE', *, *, #804, .T. ) ;
#764 = CARTESIAN_POINT ( 'NONE',  ( 7.000000000000000000, -7.000000000000000000, 0.5500000000000000444 ) ) ;
#765 = AXIS2_PLACEMENT_3D ( 'NONE', #771, #836, #242 ) ;
#766 = CARTESIAN_POINT ( 'NONE',  ( 13.00000000000000000, 1.592040838891559095E-15, 2.000000000000000000 ) ) ;
#767 = FACE_OUTER_BOUND ( 'NONE', #622, .T. ) ;
#768 = ADVANCED_FACE ( 'NONE', ( #837 ), #451, .F. ) ;
#769 = EDGE_LOOP ( 'NONE', ( #645, #801 ) ) ;
#770 = DIRECTION ( 'NONE',  ( 0.000000000000000000, 0.000000000000000000, 1.000000000000000000 ) ) ;
#771 = CARTESIAN_POINT ( 'NONE',  ( -7.000000000000000000, 7.000000000000000000, 0.000000000000000000 ) ) ;
#772 = CYLINDRICAL_SURFACE ( 'NONE', #261, 1.150000000000000799 ) ;
#773 = ORIENTED_EDGE ( 'NONE', *, *, #817, .T. ) ;
#774 = ORIENTED_EDGE ( 'NONE', *, *, #153, .T. ) ;
#775 = AXIS2_PLACEMENT_3D ( 'NONE', #589, #452, #64 ) ;
#776 = CARTESIAN_POINT ( 'NONE',  ( -9.099999999999999645, -7.000000000000000000, 0.5500000000000000444 ) ) ;
#777 = CARTESIAN_POINT ( 'NONE',  ( 8.150000000000000355, -7.000000000000000000, 2.000000000000001776 ) ) ;
#778 = DIRECTION ( 'NONE',  ( 0.000000000000000000, 0.000000000000000000, 1.000000000000000000 ) ) ;
#779 = VERTEX_POINT ( 'NONE', #447 ) ;
#780 = FACE_BOUND ( 'NONE', #618, .T. ) ;
#781 = EDGE_CURVE ( 'NONE', #640, #369, #77, .T. ) ;
#782 = CARTESIAN_POINT ( 'NONE',  ( -7.000000000000000000, -7.000000000000000000, 2.000000000000001776 ) ) ;
#783 = DIRECTION ( 'NONE',  ( 1.000000000000000000, 0.000000000000000000, 0.000000000000000000 ) ) ;
#784 = EDGE_LOOP ( 'NONE', ( #355, #347 ) ) ;
#785 = ADVANCED_FACE ( 'NONE', ( #233 ), #772, .F. ) ;
#786 = DIRECTION ( 'NONE',  ( 0.000000000000000000, 0.000000000000000000, 1.000000000000000000 ) ) ;
#787 = VECTOR ( 'NONE', #143, 1000.000000000000000 ) ;
#788 = DIRECTION ( 'NONE',  ( 1.000000000000000000, 0.000000000000000000, 0.000000000000000000 ) ) ;
#789 = ORIENTED_EDGE ( 'NONE', *, *, #197, .F. ) ;
#790 = DIRECTION ( 'NONE',  ( 0.000000000000000000, 0.000000000000000000, -1.000000000000000000 ) ) ;
#791 = AXIS2_PLACEMENT_3D ( 'NONE', #191, #519, #663 ) ;
#792 = ORIENTED_EDGE ( 'NONE', *, *, #254, .F. ) ;
#793 = CARTESIAN_POINT ( 'NONE',  ( 0.000000000000000000, 0.000000000000000000, 0.000000000000000000 ) ) ;
#794 = COORDINATED_UNIVERSAL_TIME_OFFSET ( 6, 0, .BEHIND. ) ;
#795 = ORIENTED_EDGE ( 'NONE', *, *, #197, .T. ) ;
#796 = DIRECTION ( 'NONE',  ( 0.000000000000000000, 0.000000000000000000, -1.000000000000000000 ) ) ;
#797 = CARTESIAN_POINT ( 'NONE',  ( -8.150000000000000355, 7.000000000000000000, 2.000000000000001776 ) ) ;
#798 = APPROVAL_DATE_TIME ( #123, #491 ) ;
#799 = ORIENTED_EDGE ( 'NONE', *, *, #274, .F. ) ;
#800 = CYLINDRICAL_SURFACE ( 'NONE', #323, 13.00000000000000000 ) ;
#801 = ORIENTED_EDGE ( 'NONE', *, *, #4, .F. ) ;
#802 = CARTESIAN_POINT ( 'NONE',  ( 4.000000000000000000, 4.898587196589412829E-16, 2.000000000000000000 ) ) ;
#803 = AXIS2_PLACEMENT_3D ( 'NONE', #748, #12, #351 ) ;
#804 = EDGE_CURVE ( 'NONE', #175, #257, #635, .T. ) ;
#805 = DATE_AND_TIME ( #273, #232 ) ;
#806 = AXIS2_PLACEMENT_3D ( 'NONE', #348, #402, #73 ) ;
#807 = ORIENTED_EDGE ( 'NONE', *, *, #666, .T. ) ;
#808 = DIRECTION ( 'NONE',  ( 1.000000000000000000, 0.000000000000000000, 0.000000000000000000 ) ) ;
#809 = ORIENTED_EDGE ( 'NONE', *, *, #46, .T. ) ;
#810 = CYLINDRICAL_SURFACE ( 'NONE', #495, 4.000000000000000000 ) ;
#811 = CIRCLE ( 'NONE', #621, 1.150000000000000799 ) ;
#812 = DIRECTION ( 'NONE',  ( 1.000000000000000000, 0.000000000000000000, 0.000000000000000000 ) ) ;
#813 = ADVANCED_FACE ( 'NONE', ( #49, #167 ), #510, .F. ) ;
#814 = CIRCLE ( 'NONE', #856, 1.150000000000000799 ) ;
#815 = ORIENTED_EDGE ( 'NONE', *, *, #439, .F. ) ;
#816 = DIRECTION ( 'NONE',  ( 1.000000000000000000, 0.000000000000000000, 0.000000000000000000 ) ) ;
#817 = EDGE_CURVE ( 'NONE', #314, #359, #424, .T. ) ;
#818 = AXIS2_PLACEMENT_3D ( 'NONE', #633, #298, #499 ) ;
#819 = ORIENTED_EDGE ( 'NONE', *, *, #187, .F. ) ;
#820 = CYLINDRICAL_SURFACE ( 'NONE', #213, 4.000000000000000000 ) ;
#821 = ORIENTED_EDGE ( 'NONE', *, *, #427, .T. ) ;
#822 = CYLINDRICAL_SURFACE ( 'NONE', #587, 1.150000000000000799 ) ;
#823 = AXIS2_PLACEMENT_3D ( 'NONE', #48, #514, #255 ) ;
#824 = CARTESIAN_POINT ( 'NONE',  ( 8.150000000000000355, 7.000000000000000000, 2.000000000000001776 ) ) ;
#825 = EDGE_LOOP ( 'NONE', ( #809, #511 ) ) ;
#826 = FACE_OUTER_BOUND ( 'NONE', #492, .T. ) ;
#827 = EDGE_CURVE ( 'NONE', #489, #834, #290, .T. ) ;
#828 = FACE_BOUND ( 'NONE', #864, .T. ) ;
#829 = EDGE_LOOP ( 'NONE', ( #592, #736 ) ) ;
#830 = CARTESIAN_POINT ( 'NONE',  ( -7.000000000000000000, -7.000000000000000000, 0.5500000000000000444 ) ) ;
#831 = AXIS2_PLACEMENT_3D ( 'NONE', #231, #710, #759 ) ;
#832 = CARTESIAN_POINT ( 'NONE',  ( -7.000000000000000000, 7.000000000000000000, 0.5500000000000000444 ) ) ;
#833 = DIRECTION ( 'NONE',  ( 1.000000000000000000, 0.000000000000000000, 0.000000000000000000 ) ) ;
#834 = VERTEX_POINT ( 'NONE', #368 ) ;
#835 = CARTESIAN_POINT ( 'NONE',  ( 7.000000000000000000, -7.000000000000000000, 2.000000000000001776 ) ) ;
#836 = DIRECTION ( 'NONE',  ( 0.000000000000000000, 0.000000000000000000, 1.000000000000000000 ) ) ;
#837 = FACE_OUTER_BOUND ( 'NONE', #443, .T. ) ;
#838 = VERTEX_POINT ( 'NONE', #638 ) ;
#839 = VERTEX_POINT ( 'NONE', #37 ) ;
#840 = VECTOR ( 'NONE', #796, 1000.000000000000000 ) ;
#841 = DIRECTION ( 'NONE',  ( 0.000000000000000000, 0.000000000000000000, 1.000000000000000000 ) ) ;
#842 = LINE ( 'NONE', #569, #487 ) ;
#843 = DIRECTION ( 'NONE',  ( 1.000000000000000000, 0.000000000000000000, -0.000000000000000000 ) ) ;
#844 = ORIENTED_EDGE ( 'NONE', *, *, #546, .F. ) ;
#845 = EDGE_CURVE ( 'NONE', #679, #493, #425, .T. ) ;
#846 = DIRECTION ( 'NONE',  ( 0.000000000000000000, 0.000000000000000000, -1.000000000000000000 ) ) ;
#847 = CARTESIAN_POINT ( 'NONE',  ( -7.000000000000000000, -7.000000000000000000, 0.5500000000000001554 ) ) ;
#848 = AXIS2_PLACEMENT_3D ( 'NONE', #134, #619, #285 ) ;
#849 = CARTESIAN_POINT ( 'NONE',  ( 8.150000000000000355, 7.000000000000000000, 0.5500000000000001554 ) ) ;
#850 = CARTESIAN_POINT ( 'NONE',  ( 4.899999999999999467, 7.000000000000000000, 0.000000000000000000 ) ) ;
#851 = ORIENTED_EDGE ( 'NONE', *, *, #46, .F. ) ;
#852 = LINE ( 'NONE', #309, #840 ) ;
#853 = CALENDAR_DATE ( 2026, 8, 9 ) ;
#854 = VERTEX_POINT ( 'NONE', #239 ) ;
#855 = DIRECTION ( 'NONE',  ( -1.000000000000000000, 0.000000000000000000, 0.000000000000000000 ) ) ;
#856 = AXIS2_PLACEMENT_3D ( 'NONE', #189, #732, #524 ) ;
#857 = ADVANCED_FACE ( 'NONE', ( #172 ), #373, .F. ) ;
#858 = APPROVAL_DATE_TIME ( #201, #505 ) ;
#859 = ADVANCED_FACE ( 'NONE', ( #75 ), #399, .F. ) ;
#860 = ORIENTED_EDGE ( 'NONE', *, *, #31, .F. ) ;
#861 = DIRECTION ( 'NONE',  ( 1.000000000000000000, 0.000000000000000000, 0.000000000000000000 ) ) ;
#862 = AXIS2_PLACEMENT_3D ( 'NONE', #431, #313, #100 ) ;
#863 = CARTESIAN_POINT ( 'NONE',  ( 0.000000000000000000, 0.000000000000000000, 0.000000000000000000 ) ) ;
#864 = EDGE_LOOP ( 'NONE', ( #555, #432 ) ) ;
#865 = DIRECTION ( 'NONE',  ( 1.000000000000000000, 0.000000000000000000, 0.000000000000000000 ) ) ;
ENDSEC;
END-ISO-10303-21;
