ISO-10303-21;
HEADER;
FILE_DESCRIPTION (( 'STEP AP203' ),
    '1' );
FILE_NAME ('ARM-004_Removable_yaw_servo_mount.step',
    '2026-09-09T03:20:48',
    ( '' ),
    ( '' ),
    'SwSTEP 2.0',
    'SolidWorks 2026',
    '' );
FILE_SCHEMA (( 'CONFIG_CONTROL_DESIGN' ));
ENDSEC;

DATA;
#1 = VECTOR ( 'NONE', #499, 1000.000000000000000 ) ;
#2 = CARTESIAN_POINT ( 'NONE',  ( -21.00000000000000000, 28.00000000000000000, -13.60000000000000142 ) ) ;
#3 = DIRECTION ( 'NONE',  ( 0.000000000000000000, 0.000000000000000000, 1.000000000000000000 ) ) ;
#4 = VECTOR ( 'NONE', #813, 1000.000000000000000 ) ;
#5 = VERTEX_POINT ( 'NONE', #165 ) ;
#6 = ORIENTED_EDGE ( 'NONE', *, *, #427, .T. ) ;
#7 = VERTEX_POINT ( 'NONE', #717 ) ;
#8 = DIRECTION ( 'NONE',  ( -1.000000000000000000, 0.000000000000000000, -0.000000000000000000 ) ) ;
#9 = EDGE_CURVE ( 'NONE', #539, #34, #327, .T. ) ;
#10 = PLANE ( 'NONE',  #219 ) ;
#11 = ORIENTED_EDGE ( 'NONE', *, *, #552, .T. ) ;
#12 = VERTEX_POINT ( 'NONE', #701 ) ;
#13 = DIRECTION ( 'NONE',  ( 1.000000000000000000, -0.000000000000000000, 0.000000000000000000 ) ) ;
#14 = ORIENTED_EDGE ( 'NONE', *, *, #694, .T. ) ;
#15 = DATE_AND_TIME ( #877, #620 ) ;
#16 = CARTESIAN_POINT ( 'NONE',  ( -14.00000000000000178, 28.00000000000000000, -12.00000000000000000 ) ) ;
#17 = DIRECTION ( 'NONE',  ( -1.000000000000000000, 0.000000000000000000, 0.000000000000000000 ) ) ;
#18 = LINE ( 'NONE', #629, #366 ) ;
#19 = AXIS2_PLACEMENT_3D ( 'NONE', #461, #436, #515 ) ;
#20 = ADVANCED_FACE ( 'NONE', ( #112 ), #479, .F. ) ;
#21 = EDGE_LOOP ( 'NONE', ( #894, #589, #83, #299 ) ) ;
#22 = DIRECTION ( 'NONE',  ( 0.000000000000000000, 1.000000000000000000, 0.000000000000000000 ) ) ;
#23 = DIRECTION ( 'NONE',  ( 0.000000000000000000, 0.000000000000000000, -1.000000000000000000 ) ) ;
#24 = DIRECTION ( 'NONE',  ( -0.000000000000000000, 0.000000000000000000, 1.000000000000000000 ) ) ;
#25 = VERTEX_POINT ( 'NONE', #37 ) ;
#26 = CARTESIAN_POINT ( 'NONE',  ( 17.39999999999999858, 21.39999999999999858, -6.500000000000000000 ) ) ;
#27 = DIRECTION ( 'NONE',  ( 0.000000000000000000, -0.000000000000000000, -1.000000000000000000 ) ) ;
#28 = FACE_OUTER_BOUND ( 'NONE', #839, .T. ) ;
#29 = VERTEX_POINT ( 'NONE', #401 ) ;
#30 = CARTESIAN_POINT ( 'NONE',  ( 20.00000000000000000, 33.00000000000000000, 0.000000000000000000 ) ) ;
#31 = CARTESIAN_POINT ( 'NONE',  ( 17.39999999999999858, 21.39999999999999858, 6.500000000000000000 ) ) ;
#32 = CARTESIAN_POINT ( 'NONE',  ( 17.39999999999999858, 33.00000000000000000, -6.500000000000000000 ) ) ;
#33 = VECTOR ( 'NONE', #816, 1000.000000000000000 ) ;
#34 = VERTEX_POINT ( 'NONE', #874 ) ;
#35 = CARTESIAN_POINT ( 'NONE',  ( -4.000000000000000000, 25.39999999999999858, 8.000000000000000000 ) ) ;
#36 = EDGE_CURVE ( 'NONE', #78, #870, #638, .T. ) ;
#37 = CARTESIAN_POINT ( 'NONE',  ( -14.00000000000000000, 25.39999999999999858, 8.000000000000000000 ) ) ;
#38 = DIRECTION ( 'NONE',  ( -1.000000000000000000, 0.000000000000000000, -0.000000000000000000 ) ) ;
#39 = ADVANCED_BREP_SHAPE_REPRESENTATION ( 'ARM-004_Removable_yaw_servo_mount', ( #463, #115 ), #442 ) ;
#40 = VERTEX_POINT ( 'NONE', #796 ) ;
#41 = DIRECTION ( 'NONE',  ( -0.000000000000000000, 0.000000000000000000, 1.000000000000000000 ) ) ;
#42 = CIRCLE ( 'NONE', #810, 1.600000000000000755 ) ;
#43 = DIRECTION ( 'NONE',  ( 0.000000000000000000, 0.000000000000000000, -1.000000000000000000 ) ) ;
#44 = CARTESIAN_POINT ( 'NONE',  ( 20.00000000000000000, 25.39999999999999858, 0.000000000000000000 ) ) ;
#45 = VERTEX_POINT ( 'NONE', #31 ) ;
#46 = CARTESIAN_POINT ( 'NONE',  ( -14.00000000000000000, 25.39999999999999858, 0.000000000000000000 ) ) ;
#47 = DIRECTION ( 'NONE',  ( 1.000000000000000000, 0.000000000000000000, 0.000000000000000000 ) ) ;
#48 = ORIENTED_EDGE ( 'NONE', *, *, #505, .T. ) ;
#49 = VECTOR ( 'NONE', #22, 1000.000000000000000 ) ;
#50 = LINE ( 'NONE', #586, #394 ) ;
#51 = CC_DESIGN_PERSON_AND_ORGANIZATION_ASSIGNMENT ( #853, #304, ( #196 ) ) ;
#52 = PLANE ( 'NONE',  #963 ) ;
#53 = EDGE_LOOP ( 'NONE', ( #408, #197, #647, #719 ) ) ;
#54 = PLANE ( 'NONE',  #194 ) ;
#55 = CARTESIAN_POINT ( 'NONE',  ( 20.00000000000000000, 33.00000000000000000, -1.299999999999999156 ) ) ;
#56 = VECTOR ( 'NONE', #108, 1000.000000000000000 ) ;
#57 = VERTEX_POINT ( 'NONE', #188 ) ;
#58 = CARTESIAN_POINT ( 'NONE',  ( -21.00000000000000000, 21.39999999999999858, 18.00000000000000000 ) ) ;
#59 = EDGE_CURVE ( 'NONE', #137, #12, #343, .T. ) ;
#60 = DIRECTION ( 'NONE',  ( -0.000000000000000000, 0.000000000000000000, 1.000000000000000000 ) ) ;
#61 = ORIENTED_EDGE ( 'NONE', *, *, #979, .T. ) ;
#62 = APPROVAL ( #475, 'UNSPECIFIED' ) ;
#63 = VECTOR ( 'NONE', #126, 1000.000000000000000 ) ;
#64 =( LENGTH_UNIT ( ) NAMED_UNIT ( * ) SI_UNIT ( .MILLI., .METRE. ) );
#65 = CC_DESIGN_APPROVAL ( #440, ( #788 ) ) ;
#66 = FACE_BOUND ( 'NONE', #902, .T. ) ;
#67 = EDGE_CURVE ( 'NONE', #390, #430, #871, .T. ) ;
#68 = ORIENTED_EDGE ( 'NONE', *, *, #951, .F. ) ;
#69 = EDGE_LOOP ( 'NONE', ( #919, #340, #696, #567 ) ) ;
#70 = CARTESIAN_POINT ( 'NONE',  ( -14.00000000000000000, 23.00000000000000000, 18.00000000000000000 ) ) ;
#71 = CARTESIAN_POINT ( 'NONE',  ( 0.000000000000000000, 21.39999999999999858, 0.000000000000000000 ) ) ;
#72 = ORIENTED_EDGE ( 'NONE', *, *, #772, .T. ) ;
#73 = LINE ( 'NONE', #906, #495 ) ;
#74 = LINE ( 'NONE', #377, #886 ) ;
#75 = ORIENTED_EDGE ( 'NONE', *, *, #519, .F. ) ;
#76 = UNCERTAINTY_MEASURE_WITH_UNIT (LENGTH_MEASURE( 1.000000000000000082E-05 ), #64, 'distance_accuracy_value', 'NONE');
#77 = EDGE_CURVE ( 'NONE', #474, #45, #856, .T. ) ;
#78 = VERTEX_POINT ( 'NONE', #554 ) ;
#79 = DIRECTION ( 'NONE',  ( 0.000000000000000000, 0.000000000000000000, -1.000000000000000000 ) ) ;
#80 = CARTESIAN_POINT ( 'NONE',  ( -9.000000000000000000, 33.00000000000000000, -1.300000000000000044 ) ) ;
#81 = CIRCLE ( 'NONE', #831, 1.299999999999999156 ) ;
#82 = ORIENTED_EDGE ( 'NONE', *, *, #676, .T. ) ;
#83 = ORIENTED_EDGE ( 'NONE', *, *, #134, .F. ) ;
#84 = CARTESIAN_POINT ( 'NONE',  ( -6.400000000000000355, 33.00000000000000000, 6.500000000000000000 ) ) ;
#85 = CARTESIAN_POINT ( 'NONE',  ( 25.00000000000000000, 25.39999999999999858, -18.00000000000000000 ) ) ;
#86 = ORIENTED_EDGE ( 'NONE', *, *, #163, .T. ) ;
#87 = EDGE_LOOP ( 'NONE', ( #677, #779, #155, #434 ) ) ;
#88 = DATE_TIME_ROLE ( 'classification_date' ) ;
#89 = CARTESIAN_POINT ( 'NONE',  ( 0.000000000000000000, 25.39999999999999858, -16.00000000000000000 ) ) ;
#90 = EDGE_CURVE ( 'NONE', #12, #390, #107, .T. ) ;
#91 = CARTESIAN_POINT ( 'NONE',  ( -14.00000000000000178, 28.00000000000000000, 10.40000000000000036 ) ) ;
#92 = COORDINATED_UNIVERSAL_TIME_OFFSET ( 6, 0, .BEHIND. ) ;
#93 = CARTESIAN_POINT ( 'NONE',  ( -14.00000000000000178, 28.00000000000000000, -13.60000000000000142 ) ) ;
#94 = DIRECTION ( 'NONE',  ( -1.000000000000000000, 0.000000000000000000, -0.000000000000000000 ) ) ;
#95 = LINE ( 'NONE', #560, #611 ) ;
#96 = AXIS2_PLACEMENT_3D ( 'NONE', #511, #60, #587 ) ;
#97 = EDGE_CURVE ( 'NONE', #798, #5, #170, .T. ) ;
#98 = AXIS2_PLACEMENT_3D ( 'NONE', #985, #673, #149 ) ;
#99 = VERTEX_POINT ( 'NONE', #312 ) ;
#100 = COORDINATED_UNIVERSAL_TIME_OFFSET ( 6, 0, .BEHIND. ) ;
#101 = CARTESIAN_POINT ( 'NONE',  ( -4.000000000000000000, 33.00000000000000000, -8.000000000000000000 ) ) ;
#102 = DIRECTION ( 'NONE',  ( 0.000000000000000000, -1.000000000000000000, 0.000000000000000000 ) ) ;
#103 = DIRECTION ( 'NONE',  ( -0.000000000000000000, -0.000000000000000000, -1.000000000000000000 ) ) ;
#104 = VERTEX_POINT ( 'NONE', #938 ) ;
#105 = PERSON_AND_ORGANIZATION_ROLE ( 'design_supplier' ) ;
#106 = LINE ( 'NONE', #387, #143 ) ;
#107 = LINE ( 'NONE', #548, #832 ) ;
#108 = DIRECTION ( 'NONE',  ( 0.000000000000000000, -1.000000000000000000, 0.000000000000000000 ) ) ;
#109 = ORIENTED_EDGE ( 'NONE', *, *, #887, .F. ) ;
#110 = ADVANCED_FACE ( 'NONE', ( #642, #693, #406, #943 ), #252, .F. ) ;
#111 = DIRECTION ( 'NONE',  ( 0.000000000000000000, 0.000000000000000000, -1.000000000000000000 ) ) ;
#112 = FACE_OUTER_BOUND ( 'NONE', #288, .T. ) ;
#113 = CARTESIAN_POINT ( 'NONE',  ( -14.00000000000000000, 33.00000000000000000, 18.00000000000000000 ) ) ;
#114 = VECTOR ( 'NONE', #650, 1000.000000000000000 ) ;
#115 = AXIS2_PLACEMENT_3D ( 'NONE', #828, #144, #257 ) ;
#116 = VERTEX_POINT ( 'NONE', #488 ) ;
#117 = DIRECTION ( 'NONE',  ( -1.000000000000000000, 0.000000000000000000, -0.000000000000000000 ) ) ;
#118 = CARTESIAN_POINT ( 'NONE',  ( 17.39999999999999858, 25.39999999999999858, 0.000000000000000000 ) ) ;
#119 = LINE ( 'NONE', #660, #654 ) ;
#120 = ORIENTED_EDGE ( 'NONE', *, *, #240, .F. ) ;
#121 = DIRECTION ( 'NONE',  ( 1.000000000000000000, 0.000000000000000000, 0.000000000000000000 ) ) ;
#122 = CARTESIAN_POINT ( 'NONE',  ( -21.00000000000000000, 25.39999999999999858, 18.00000000000000000 ) ) ;
#123 = ADVANCED_FACE ( 'NONE', ( #776 ), #711, .T. ) ;
#124 = ORIENTED_EDGE ( 'NONE', *, *, #676, .F. ) ;
#125 = EDGE_CURVE ( 'NONE', #818, #539, #395, .T. ) ;
#126 = DIRECTION ( 'NONE',  ( -0.000000000000000000, -0.000000000000000000, -1.000000000000000000 ) ) ;
#128 = AXIS2_PLACEMENT_3D ( 'NONE', #260, #565, #264 ) ;
#127 = LINE ( 'NONE', #206, #4 ) ;
#129 = VERTEX_POINT ( 'NONE', #867 ) ;
#130 = AXIS2_PLACEMENT_3D ( 'NONE', #150, #450, #920 ) ;
#131 = CARTESIAN_POINT ( 'NONE',  ( -14.00000000000000178, 28.00000000000000000, -12.00000000000000000 ) ) ;
#132 = LINE ( 'NONE', #200, #1 ) ;
#133 = ORIENTED_EDGE ( 'NONE', *, *, #772, .F. ) ;
#134 = EDGE_CURVE ( 'NONE', #45, #703, #175, .T. ) ;
#135 = FACE_OUTER_BOUND ( 'NONE', #419, .T. ) ;
#136 = DIRECTION ( 'NONE',  ( -0.000000000000000000, 1.000000000000000000, -0.000000000000000000 ) ) ;
#137 = VERTEX_POINT ( 'NONE', #182 ) ;
#138 = CYLINDRICAL_SURFACE ( 'NONE', #146, 1.300000000000000044 ) ;
#139 = EDGE_CURVE ( 'NONE', #474, #934, #879, .T. ) ;
#140 = CARTESIAN_POINT ( 'NONE',  ( -14.00000000000000178, 28.00000000000000000, 13.60000000000000142 ) ) ;
#141 = ORIENTED_EDGE ( 'NONE', *, *, #984, .T. ) ;
#142 = VERTEX_POINT ( 'NONE', #721 ) ;
#143 = VECTOR ( 'NONE', #400, 1000.000000000000000 ) ;
#144 = DIRECTION ( 'NONE',  ( 0.000000000000000000, 0.000000000000000000, 1.000000000000000000 ) ) ;
#145 = VECTOR ( 'NONE', #771, 1000.000000000000000 ) ;
#146 = AXIS2_PLACEMENT_3D ( 'NONE', #290, #911, #220 ) ;
#147 = FACE_BOUND ( 'NONE', #481, .T. ) ;
#148 = VERTEX_POINT ( 'NONE', #494 ) ;
#149 = DIRECTION ( 'NONE',  ( 0.000000000000000000, 0.000000000000000000, -1.000000000000000000 ) ) ;
#150 = CARTESIAN_POINT ( 'NONE',  ( 17.39999999999999858, 33.00000000000000000, 6.500000000000000000 ) ) ;
#151 = ORIENTED_EDGE ( 'NONE', *, *, #435, .F. ) ;
#152 = ORIENTED_EDGE ( 'NONE', *, *, #289, .F. ) ;
#153 = EDGE_CURVE ( 'NONE', #160, #439, #337, .T. ) ;
#154 = DIRECTION ( 'NONE',  ( 0.000000000000000000, -1.000000000000000000, 0.000000000000000000 ) ) ;
#155 = ORIENTED_EDGE ( 'NONE', *, *, #908, .T. ) ;
#156 = ORIENTED_EDGE ( 'NONE', *, *, #829, .F. ) ;
#157 =( NAMED_UNIT ( * ) SI_UNIT ( $, .STERADIAN. ) SOLID_ANGLE_UNIT ( ) );
#158 = CARTESIAN_POINT ( 'NONE',  ( -14.00000000000000000, 25.39999999999999858, -8.000000000000000000 ) ) ;
#159 = AXIS2_PLACEMENT_3D ( 'NONE', #131, #498, #341 ) ;
#160 = VERTEX_POINT ( 'NONE', #570 ) ;
#161 = EDGE_LOOP ( 'NONE', ( #11, #166, #980, #201 ) ) ;
#162 = PERSON_AND_ORGANIZATION_ROLE ( 'classification_officer' ) ;
#163 = EDGE_CURVE ( 'NONE', #372, #422, #883, .T. ) ;
#164 = CARTESIAN_POINT ( 'NONE',  ( -21.00000000000000000, 33.00000000000000000, 18.00000000000000000 ) ) ;
#165 = CARTESIAN_POINT ( 'NONE',  ( -21.00000000000000000, 21.39999999999999858, 18.00000000000000000 ) ) ;
#166 = ORIENTED_EDGE ( 'NONE', *, *, #36, .T. ) ;
#167 = DATE_AND_TIME ( #562, #349 ) ;
#168 = ADVANCED_FACE ( 'NONE', ( #192 ), #633, .T. ) ;
#169 = LINE ( 'NONE', #563, #714 ) ;
#170 = LINE ( 'NONE', #791, #145 ) ;
#171 = CARTESIAN_POINT ( 'NONE',  ( -14.00000000000000000, 33.00000000000000000, -16.00000000000000000 ) ) ;
#172 = ORIENTED_EDGE ( 'NONE', *, *, #382, .F. ) ;
#173 = PERSON_AND_ORGANIZATION ( #234, #666 ) ;
#174 = FACE_OUTER_BOUND ( 'NONE', #898, .T. ) ;
#175 = LINE ( 'NONE', #322, #467 ) ;
#176 = DIRECTION ( 'NONE',  ( -1.000000000000000000, 0.000000000000000000, 0.000000000000000000 ) ) ;
#177 = VECTOR ( 'NONE', #775, 1000.000000000000000 ) ;
#178 = VECTOR ( 'NONE', #41, 1000.000000000000000 ) ;
#179 = ORIENTED_EDGE ( 'NONE', *, *, #730, .T. ) ;
#180 = COORDINATED_UNIVERSAL_TIME_OFFSET ( 6, 0, .BEHIND. ) ;
#181 = CARTESIAN_POINT ( 'NONE',  ( -14.00000000000000000, 33.00000000000000000, -18.00000000000000000 ) ) ;
#182 = CARTESIAN_POINT ( 'NONE',  ( -9.000000000000000000, 25.39999999999999858, -1.300000000000000044 ) ) ;
#183 = LINE ( 'NONE', #702, #954 ) ;
#184 = ORIENTED_EDGE ( 'NONE', *, *, #971, .F. ) ;
#185 = PERSON_AND_ORGANIZATION ( #234, #666 ) ;
#186 = ADVANCED_FACE ( 'NONE', ( #28 ), #323, .F. ) ;
#187 = DIRECTION ( 'NONE',  ( -1.000000000000000000, 0.000000000000000000, -0.000000000000000000 ) ) ;
#188 = CARTESIAN_POINT ( 'NONE',  ( 20.00000000000000000, 21.39999999999999858, -1.299999999999999156 ) ) ;
#189 = FACE_OUTER_BOUND ( 'NONE', #840, .T. ) ;
#190 = EDGE_LOOP ( 'NONE', ( #504, #926, #773, #972 ) ) ;
#191 = CARTESIAN_POINT ( 'NONE',  ( -14.00000000000000000, 21.39999999999999858, -8.000000000000000000 ) ) ;
#192 = FACE_OUTER_BOUND ( 'NONE', #53, .T. ) ;
#193 = FACE_OUTER_BOUND ( 'NONE', #585, .T. ) ;
#194 = AXIS2_PLACEMENT_3D ( 'NONE', #501, #953, #645 ) ;
#195 = AXIS2_PLACEMENT_3D ( 'NONE', #623, #315, #238 ) ;
#196 = PRODUCT_DEFINITION_FORMATION_WITH_SPECIFIED_SOURCE ( 'ANY', '', #256, .NOT_KNOWN. ) ;
#197 = ORIENTED_EDGE ( 'NONE', *, *, #618, .T. ) ;
#198 = FACE_OUTER_BOUND ( 'NONE', #306, .T. ) ;
#199 = ADVANCED_FACE ( 'NONE', ( #480, #933, #189 ), #862, .F. ) ;
#200 = CARTESIAN_POINT ( 'NONE',  ( -6.400000000000000355, 25.39999999999999858, 0.000000000000000000 ) ) ;
#201 = ORIENTED_EDGE ( 'NONE', *, *, #568, .F. ) ;
#202 = DIRECTION ( 'NONE',  ( -1.000000000000000000, 0.000000000000000000, 0.000000000000000000 ) ) ;
#203 = FACE_BOUND ( 'NONE', #318, .T. ) ;
#204 = ORIENTED_EDGE ( 'NONE', *, *, #289, .T. ) ;
#205 = DIRECTION ( 'NONE',  ( -0.000000000000000000, 0.000000000000000000, 1.000000000000000000 ) ) ;
#206 = CARTESIAN_POINT ( 'NONE',  ( -21.00000000000000000, 33.00000000000000000, -18.00000000000000000 ) ) ;
#207 = ORIENTED_EDGE ( 'NONE', *, *, #385, .T. ) ;
#208 = CIRCLE ( 'NONE', #375, 1.600000000000000755 ) ;
#209 = PLANE ( 'NONE',  #282 ) ;
#210 = LINE ( 'NONE', #273, #664 ) ;
#211 = VERTEX_POINT ( 'NONE', #489 ) ;
#212 = EDGE_CURVE ( 'NONE', #667, #818, #956, .T. ) ;
#213 = SECURITY_CLASSIFICATION ( '', '', #381 ) ;
#214 = CARTESIAN_POINT ( 'NONE',  ( -14.00000000000000178, 28.00000000000000000, -13.60000000000000142 ) ) ;
#215 = ORIENTED_EDGE ( 'NONE', *, *, #951, .T. ) ;
#216 = CARTESIAN_POINT ( 'NONE',  ( 25.00000000000000000, 21.39999999999999858, -18.00000000000000000 ) ) ;
#217 = ORIENTED_EDGE ( 'NONE', *, *, #446, .T. ) ;
#218 = ORIENTED_EDGE ( 'NONE', *, *, #698, .F. ) ;
#219 = AXIS2_PLACEMENT_3D ( 'NONE', #925, #301, #3 ) ;
#220 = DIRECTION ( 'NONE',  ( 0.000000000000000000, 0.000000000000000000, -1.000000000000000000 ) ) ;
#221 = VECTOR ( 'NONE', #842, 1000.000000000000000 ) ;
#222 = DIRECTION ( 'NONE',  ( 0.000000000000000000, -1.000000000000000000, 0.000000000000000000 ) ) ;
#223 = EDGE_LOOP ( 'NONE', ( #72, #345, #596, #330 ) ) ;
#224 = EDGE_CURVE ( 'NONE', #934, #703, #793, .T. ) ;
#225 = ORIENTED_EDGE ( 'NONE', *, *, #568, .T. ) ;
#226 = CARTESIAN_POINT ( 'NONE',  ( -21.00000000000000000, 25.39999999999999858, 18.00000000000000000 ) ) ;
#227 = ORIENTED_EDGE ( 'NONE', *, *, #922, .T. ) ;
#228 = AXIS2_PLACEMENT_3D ( 'NONE', #777, #389, #549 ) ;
#229 = ORIENTED_EDGE ( 'NONE', *, *, #125, .T. ) ;
#230 = FACE_OUTER_BOUND ( 'NONE', #231, .T. ) ;
#231 = EDGE_LOOP ( 'NONE', ( #644, #826, #293, #959, #675, #452 ) ) ;
#232 = EDGE_CURVE ( 'NONE', #148, #689, #624, .T. ) ;
#233 = AXIS2_PLACEMENT_3D ( 'NONE', #71, #365, #986 ) ;
#234 = PERSON ( 'UNSPECIFIED', 'UNSPECIFIED', 'UNSPECIFIED', ('UNSPECIFIED'), ('UNSPECIFIED'), ('UNSPECIFIED') ) ;
#235 = DIRECTION ( 'NONE',  ( 0.000000000000000000, -1.000000000000000000, 0.000000000000000000 ) ) ;
#236 = CLOSED_SHELL ( 'NONE', ( #513, #339, #923, #20, #110, #592, #473, #503, #536, #821, #199, #302, #882, #912, #546, #790, #724, #897, #802, #764, #819, #168, #123, #418, #186, #680 ) ) ;
#237 = APPROVAL_PERSON_ORGANIZATION ( #173, #440, #935 ) ;
#238 = DIRECTION ( 'NONE',  ( 0.000000000000000000, 0.000000000000000000, -1.000000000000000000 ) ) ;
#239 = ORIENTED_EDGE ( 'NONE', *, *, #979, .F. ) ;
#240 = EDGE_CURVE ( 'NONE', #361, #129, #484, .T. ) ;
#241 = DIRECTION ( 'NONE',  ( 0.000000000000000000, 0.000000000000000000, -1.000000000000000000 ) ) ;
#242 = DIRECTION ( 'NONE',  ( -1.000000000000000000, -0.000000000000000000, -0.000000000000000000 ) ) ;
#243 = ORIENTED_EDGE ( 'NONE', *, *, #505, .F. ) ;
#244 = DATE_TIME_ROLE ( 'creation_date' ) ;
#245 = CARTESIAN_POINT ( 'NONE',  ( -21.00000000000000000, 28.00000000000000000, -12.00000000000000000 ) ) ;
#246 = CARTESIAN_POINT ( 'NONE',  ( 25.00000000000000000, 21.39999999999999858, 18.00000000000000000 ) ) ;
#247 = CARTESIAN_POINT ( 'NONE',  ( -14.00000000000000000, 33.00000000000000000, 18.00000000000000000 ) ) ;
#248 = ORIENTED_EDGE ( 'NONE', *, *, #153, .T. ) ;
#249 = PERSON_AND_ORGANIZATION_ROLE ( 'creator' ) ;
#250 = CARTESIAN_POINT ( 'NONE',  ( 0.000000000000000000, 25.39999999999999858, 6.500000000000000000 ) ) ;
#251 = EDGE_CURVE ( 'NONE', #129, #845, #95, .T. ) ;
#252 = PLANE ( 'NONE',  #477 ) ;
#253 = DIRECTION ( 'NONE',  ( -0.000000000000000000, -1.000000000000000000, -0.000000000000000000 ) ) ;
#254 = CIRCLE ( 'NONE', #19, 1.600000000000000755 ) ;
#255 = ORIENTED_EDGE ( 'NONE', *, *, #605, .F. ) ;
#256 = PRODUCT ( 'ARM-004_Removable_yaw_servo_mount', 'ARM-004_Removable_yaw_servo_mount', '', ( #767 ) ) ;
#257 = DIRECTION ( 'NONE',  ( 1.000000000000000000, 0.000000000000000000, 0.000000000000000000 ) ) ;
#258 = LINE ( 'NONE', #164, #508 ) ;
#259 = DIRECTION ( 'NONE',  ( 0.000000000000000000, 0.000000000000000000, -1.000000000000000000 ) ) ;
#260 = CARTESIAN_POINT ( 'NONE',  ( -9.000000000000000000, 25.39999999999999858, 0.000000000000000000 ) ) ;
#261 = EDGE_LOOP ( 'NONE', ( #613, #876, #617, #891 ) ) ;
#262 = DIRECTION ( 'NONE',  ( 1.000000000000000000, 0.000000000000000000, 0.000000000000000000 ) ) ;
#263 = CARTESIAN_POINT ( 'NONE',  ( 0.000000000000000000, 25.39999999999999858, 16.00000000000000000 ) ) ;
#264 = DIRECTION ( 'NONE',  ( 0.000000000000000000, 0.000000000000000000, -1.000000000000000000 ) ) ;
#265 = VERTEX_POINT ( 'NONE', #113 ) ;
#266 = CARTESIAN_POINT ( 'NONE',  ( -21.00000000000000000, 28.00000000000000000, 10.40000000000000036 ) ) ;
#267 = DIRECTION ( 'NONE',  ( 0.000000000000000000, 0.000000000000000000, -1.000000000000000000 ) ) ;
#268 = VECTOR ( 'NONE', #679, 1000.000000000000000 ) ;
#269 = AXIS2_PLACEMENT_3D ( 'NONE', #285, #678, #609 ) ;
#270 = ORIENTED_EDGE ( 'NONE', *, *, #368, .T. ) ;
#271 = EDGE_CURVE ( 'NONE', #870, #517, #42, .T. ) ;
#272 = PLANE ( 'NONE',  #850 ) ;
#273 = CARTESIAN_POINT ( 'NONE',  ( 25.00000000000000000, 25.39999999999999858, 18.00000000000000000 ) ) ;
#274 = ORIENTED_EDGE ( 'NONE', *, *, #984, .F. ) ;
#275 = FACE_OUTER_BOUND ( 'NONE', #284, .T. ) ;
#276 = LINE ( 'NONE', #809, #649 ) ;
#277 = EDGE_LOOP ( 'NONE', ( #685, #412, #833, #75 ) ) ;
#278 = DIRECTION ( 'NONE',  ( -0.000000000000000000, 0.000000000000000000, 1.000000000000000000 ) ) ;
#279 = CARTESIAN_POINT ( 'NONE',  ( -4.000000000000000000, 33.00000000000000000, -16.00000000000000000 ) ) ;
#280 = AXIS2_PLACEMENT_3D ( 'NONE', #967, #510, #428 ) ;
#281 = ORIENTED_EDGE ( 'NONE', *, *, #709, .F. ) ;
#282 = AXIS2_PLACEMENT_3D ( 'NONE', #740, #278, #889 ) ;
#283 = CARTESIAN_POINT ( 'NONE',  ( -4.000000000000000000, 25.39999999999999858, 16.00000000000000000 ) ) ;
#284 = EDGE_LOOP ( 'NONE', ( #885, #632, #281, #151, #485, #761 ) ) ;
#285 = CARTESIAN_POINT ( 'NONE',  ( 20.00000000000000000, 25.39999999999999858, 0.000000000000000000 ) ) ;
#286 = FACE_BOUND ( 'NONE', #87, .T. ) ;
#287 = EDGE_LOOP ( 'NONE', ( #766, #640, #217, #303 ) ) ;
#288 = EDGE_LOOP ( 'NONE', ( #509, #612, #378, #748 ) ) ;
#289 = EDGE_CURVE ( 'NONE', #757, #25, #18, .T. ) ;
#290 = CARTESIAN_POINT ( 'NONE',  ( -9.000000000000000000, 33.00000000000000000, 0.000000000000000000 ) ) ;
#291 = LINE ( 'NONE', #599, #268 ) ;
#292 = CC_DESIGN_PERSON_AND_ORGANIZATION_ASSIGNMENT ( #621, #105, ( #196 ) ) ;
#293 = ORIENTED_EDGE ( 'NONE', *, *, #212, .F. ) ;
#294 = AXIS2_PLACEMENT_3D ( 'NONE', #860, #487, #878 ) ;
#295 = PLANE ( 'NONE',  #834 ) ;
#296 = VECTOR ( 'NONE', #949, 1000.000000000000000 ) ;
#297 = DIRECTION ( 'NONE',  ( -0.000000000000000000, -1.000000000000000000, -0.000000000000000000 ) ) ;
#298 = EDGE_LOOP ( 'NONE', ( #14, #462, #857, #852 ) ) ;
#299 = ORIENTED_EDGE ( 'NONE', *, *, #77, .F. ) ;
#300 = CARTESIAN_POINT ( 'NONE',  ( 0.000000000000000000, 21.39999999999999858, -16.00000000000000000 ) ) ;
#301 = DIRECTION ( 'NONE',  ( -1.000000000000000000, 0.000000000000000000, 0.000000000000000000 ) ) ;
#302 = ADVANCED_FACE ( 'NONE', ( #193 ), #407, .F. ) ;
#303 = ORIENTED_EDGE ( 'NONE', *, *, #625, .T. ) ;
#304 = PERSON_AND_ORGANIZATION_ROLE ( 'creator' ) ;
#305 = PLANE ( 'NONE',  #682 ) ;
#306 = EDGE_LOOP ( 'NONE', ( #386, #616, #398, #752 ) ) ;
#307 = EDGE_CURVE ( 'NONE', #160, #348, #183, .T. ) ;
#308 = APPROVAL_ROLE ( '' ) ;
#309 = VECTOR ( 'NONE', #789, 1000.000000000000000 ) ;
#310 = CARTESIAN_POINT ( 'NONE',  ( 20.00000000000000000, 21.39999999999999858, 0.000000000000000000 ) ) ;
#311 = APPROVAL_PERSON_ORGANIZATION ( #325, #608, #308 ) ;
#312 = CARTESIAN_POINT ( 'NONE',  ( 20.00000000000000000, 25.39999999999999858, 1.299999999999999156 ) ) ;
#313 = PERSON_AND_ORGANIZATION_ROLE ( 'design_owner' ) ;
#314 = LINE ( 'NONE', #795, #177 ) ;
#315 = DIRECTION ( 'NONE',  ( -0.000000000000000000, 1.000000000000000000, -0.000000000000000000 ) ) ;
#316 = DIRECTION ( 'NONE',  ( -1.000000000000000000, 0.000000000000000000, -0.000000000000000000 ) ) ;
#317 = VECTOR ( 'NONE', #43, 1000.000000000000000 ) ;
#318 = EDGE_LOOP ( 'NONE', ( #681, #380 ) ) ;
#319 = PERSON_AND_ORGANIZATION ( #234, #666 ) ;
#320 = EDGE_CURVE ( 'NONE', #12, #137, #910, .T. ) ;
#321 = CARTESIAN_POINT ( 'NONE',  ( -14.00000000000000000, 25.39999999999999858, 0.000000000000000000 ) ) ;
#322 = CARTESIAN_POINT ( 'NONE',  ( 17.39999999999999858, 21.39999999999999858, 0.000000000000000000 ) ) ;
#323 = CYLINDRICAL_SURFACE ( 'NONE', #707, 1.600000000000000755 ) ;
#324 = EDGE_LOOP ( 'NONE', ( #535, #270, #404, #68 ) ) ;
#325 = PERSON_AND_ORGANIZATION ( #234, #666 ) ;
#326 = DIRECTION ( 'NONE',  ( 0.000000000000000000, 0.000000000000000000, -1.000000000000000000 ) ) ;
#327 = LINE ( 'NONE', #545, #441 ) ;
#328 = CARTESIAN_POINT ( 'NONE',  ( -4.000000000000000000, 33.00000000000000000, 16.00000000000000000 ) ) ;
#329 = VECTOR ( 'NONE', #409, 1000.000000000000000 ) ;
#330 = ORIENTED_EDGE ( 'NONE', *, *, #727, .T. ) ;
#331 = LINE ( 'NONE', #250, #357 ) ;
#332 = DIRECTION ( 'NONE',  ( 0.000000000000000000, 0.000000000000000000, -1.000000000000000000 ) ) ;
#333 = CARTESIAN_POINT ( 'NONE',  ( -21.00000000000000000, 33.00000000000000000, 18.00000000000000000 ) ) ;
#334 = EDGE_CURVE ( 'NONE', #265, #671, #939, .T. ) ;
#335 = ORIENTED_EDGE ( 'NONE', *, *, #435, .T. ) ;
#336 = PLANE ( 'NONE',  #747 ) ;
#337 = LINE ( 'NONE', #263, #451 ) ;
#338 = LINE ( 'NONE', #122, #927 ) ;
#339 = ADVANCED_FACE ( 'NONE', ( #402 ), #502, .F. ) ;
#340 = ORIENTED_EDGE ( 'NONE', *, *, #97, .F. ) ;
#341 = DIRECTION ( 'NONE',  ( 0.000000000000000000, 0.000000000000000000, -1.000000000000000000 ) ) ;
#342 = CARTESIAN_POINT ( 'NONE',  ( -4.000000000000000000, 25.39999999999999858, 0.000000000000000000 ) ) ;
#343 = CIRCLE ( 'NONE', #915, 1.300000000000000044 ) ;
#344 = CIRCLE ( 'NONE', #928, 1.600000000000000755 ) ;
#345 = ORIENTED_EDGE ( 'NONE', *, *, #866, .T. ) ;
#346 = DIRECTION ( 'NONE',  ( 0.000000000000000000, 0.000000000000000000, -1.000000000000000000 ) ) ;
#347 = CARTESIAN_POINT ( 'NONE',  ( -14.00000000000000000, 25.39999999999999858, -16.00000000000000000 ) ) ;
#348 = VERTEX_POINT ( 'NONE', #742 ) ;
#349 = LOCAL_TIME ( 22, 20, 48.00000000000000000, #100 ) ;
#350 = CARTESIAN_POINT ( 'NONE',  ( -14.00000000000000000, 25.39999999999999858, 18.00000000000000000 ) ) ;
#351 = EDGE_CURVE ( 'NONE', #555, #57, #663, .T. ) ;
#352 = DIRECTION ( 'NONE',  ( 0.000000000000000000, -1.000000000000000000, 0.000000000000000000 ) ) ;
#353 = EDGE_CURVE ( 'NONE', #148, #7, #132, .T. ) ;
#354 = ORIENTED_EDGE ( 'NONE', *, *, #835, .T. ) ;
#355 = DIRECTION ( 'NONE',  ( -0.000000000000000000, -0.000000000000000000, 1.000000000000000000 ) ) ;
#356 = LINE ( 'NONE', #896, #540 ) ;
#357 = VECTOR ( 'NONE', #627, 1000.000000000000000 ) ;
#358 = ORIENTED_EDGE ( 'NONE', *, *, #251, .T. ) ;
#359 = CARTESIAN_POINT ( 'NONE',  ( 17.39999999999999858, 25.39999999999999858, -6.500000000000000000 ) ) ;
#360 = LINE ( 'NONE', #760, #493 ) ;
#361 = VERTEX_POINT ( 'NONE', #347 ) ;
#362 = EDGE_CURVE ( 'NONE', #439, #836, #119, .T. ) ;
#363 = ORIENTED_EDGE ( 'NONE', *, *, #618, .F. ) ;
#364 = DIRECTION ( 'NONE',  ( 0.000000000000000000, 0.000000000000000000, -1.000000000000000000 ) ) ;
#365 = DIRECTION ( 'NONE',  ( 0.000000000000000000, -1.000000000000000000, 0.000000000000000000 ) ) ;
#366 = VECTOR ( 'NONE', #176, 1000.000000000000000 ) ;
#367 = ORIENTED_EDGE ( 'NONE', *, *, #533, .F. ) ;
#368 = EDGE_CURVE ( 'NONE', #29, #422, #729, .T. ) ;
#369 = ORIENTED_EDGE ( 'NONE', *, *, #153, .F. ) ;
#370 = CARTESIAN_POINT ( 'NONE',  ( -4.000000000000000000, 33.00000000000000000, -8.000000000000000000 ) ) ;
#371 = DIRECTION ( 'NONE',  ( 0.000000000000000000, 0.000000000000000000, -1.000000000000000000 ) ) ;
#372 = VERTEX_POINT ( 'NONE', #961 ) ;
#373 = ORIENTED_EDGE ( 'NONE', *, *, #625, .F. ) ;
#374 = ORIENTED_EDGE ( 'NONE', *, *, #566, .F. ) ;
#375 = AXIS2_PLACEMENT_3D ( 'NONE', #544, #854, #770 ) ;
#376 = FACE_OUTER_BOUND ( 'NONE', #823, .T. ) ;
#377 = CARTESIAN_POINT ( 'NONE',  ( 0.000000000000000000, 21.39999999999999858, -8.000000000000000000 ) ) ;
#378 = ORIENTED_EDGE ( 'NONE', *, *, #730, .F. ) ;
#379 = DESIGN_CONTEXT ( 'detailed design', #957, 'design' ) ;
#380 = ORIENTED_EDGE ( 'NONE', *, *, #271, .F. ) ;
#381 = SECURITY_CLASSIFICATION_LEVEL ( 'unclassified' ) ;
#382 = EDGE_CURVE ( 'NONE', #99, #555, #849, .T. ) ;
#383 = FACE_OUTER_BOUND ( 'NONE', #190, .T. ) ;
#384 = ORIENTED_EDGE ( 'NONE', *, *, #835, .F. ) ;
#385 = EDGE_CURVE ( 'NONE', #827, #667, #338, .T. ) ;
#386 = ORIENTED_EDGE ( 'NONE', *, *, #353, .T. ) ;
#387 = CARTESIAN_POINT ( 'NONE',  ( -21.00000000000000000, 25.39999999999999858, -18.00000000000000000 ) ) ;
#388 = DIRECTION ( 'NONE',  ( 0.000000000000000000, 0.000000000000000000, -1.000000000000000000 ) ) ;
#389 = DIRECTION ( 'NONE',  ( -1.000000000000000000, 0.000000000000000000, 0.000000000000000000 ) ) ;
#390 = VERTEX_POINT ( 'NONE', #978 ) ;
#391 = APPLICATION_PROTOCOL_DEFINITION ( 'international standard', 'config_control_design', 1994, #957 ) ;
#392 = VECTOR ( 'NONE', #417, 1000.000000000000000 ) ;
#393 = LINE ( 'NONE', #692, #778 ) ;
#394 = VECTOR ( 'NONE', #899, 1000.000000000000000 ) ;
#395 = LINE ( 'NONE', #246, #296 ) ;
#396 = DIRECTION ( 'NONE',  ( 0.000000000000000000, 0.000000000000000000, -1.000000000000000000 ) ) ;
#397 = EDGE_CURVE ( 'NONE', #99, #116, #276, .T. ) ;
#398 = ORIENTED_EDGE ( 'NONE', *, *, #769, .F. ) ;
#399 = DATE_AND_TIME ( #872, #768 ) ;
#400 = DIRECTION ( 'NONE',  ( -0.000000000000000000, -1.000000000000000000, -0.000000000000000000 ) ) ;
#401 = CARTESIAN_POINT ( 'NONE',  ( -4.000000000000000000, 25.39999999999999858, -16.00000000000000000 ) ) ;
#402 = FACE_OUTER_BOUND ( 'NONE', #161, .T. ) ;
#403 = AXIS2_PLACEMENT_3D ( 'NONE', #328, #316, #24 ) ;
#404 = ORIENTED_EDGE ( 'NONE', *, *, #163, .F. ) ;
#405 = DIRECTION ( 'NONE',  ( 0.000000000000000000, 0.000000000000000000, 1.000000000000000000 ) ) ;
#406 = FACE_BOUND ( 'NONE', #708, .T. ) ;
#407 = PLANE ( 'NONE',  #859 ) ;
#408 = ORIENTED_EDGE ( 'NONE', *, *, #491, .T. ) ;
#409 = DIRECTION ( 'NONE',  ( -1.000000000000000000, 0.000000000000000000, 0.000000000000000000 ) ) ;
#410 = EDGE_CURVE ( 'NONE', #5, #818, #433, .T. ) ;
#411 = AXIS2_PLACEMENT_3D ( 'NONE', #44, #136, #429 ) ;
#412 = ORIENTED_EDGE ( 'NONE', *, *, #90, .T. ) ;
#413 = ORIENTED_EDGE ( 'NONE', *, *, #866, .F. ) ;
#414 = LINE ( 'NONE', #46, #888 ) ;
#415 = EDGE_CURVE ( 'NONE', #671, #909, #127, .T. ) ;
#416 = DIRECTION ( 'NONE',  ( 0.000000000000000000, 0.000000000000000000, -1.000000000000000000 ) ) ;
#417 = DIRECTION ( 'NONE',  ( 0.000000000000000000, -1.000000000000000000, 0.000000000000000000 ) ) ;
#418 = ADVANCED_FACE ( 'NONE', ( #965 ), #904, .T. ) ;
#419 = EDGE_LOOP ( 'NONE', ( #61, #758, #109, #905 ) ) ;
#420 = PLANE ( 'NONE',  #280 ) ;
#421 = DIRECTION ( 'NONE',  ( 1.000000000000000000, 0.000000000000000000, 0.000000000000000000 ) ) ;
#422 = VERTEX_POINT ( 'NONE', #901 ) ;
#423 = CARTESIAN_POINT ( 'NONE',  ( 25.00000000000000000, 21.39999999999999858, 18.00000000000000000 ) ) ;
#424 = CARTESIAN_POINT ( 'NONE',  ( -4.000000000000000000, 21.39999999999999858, 8.000000000000000000 ) ) ;
#425 = VECTOR ( 'NONE', #817, 1000.000000000000000 ) ;
#426 = ORIENTED_EDGE ( 'NONE', *, *, #139, .F. ) ;
#427 = EDGE_CURVE ( 'NONE', #667, #572, #210, .T. ) ;
#428 = DIRECTION ( 'NONE',  ( -1.000000000000000000, 0.000000000000000000, -0.000000000000000000 ) ) ;
#429 = DIRECTION ( 'NONE',  ( 0.000000000000000000, 0.000000000000000000, -1.000000000000000000 ) ) ;
#430 = VERTEX_POINT ( 'NONE', #507 ) ;
#431 = CC_DESIGN_APPROVAL ( #62, ( #213 ) ) ;
#432 = LINE ( 'NONE', #506, #33 ) ;
#433 = LINE ( 'NONE', #655, #976 ) ;
#434 = ORIENTED_EDGE ( 'NONE', *, *, #134, .T. ) ;
#435 = EDGE_CURVE ( 'NONE', #572, #142, #822, .T. ) ;
#436 = DIRECTION ( 'NONE',  ( 1.000000000000000000, 0.000000000000000000, 0.000000000000000000 ) ) ;
#437 = ORIENTED_EDGE ( 'NONE', *, *, #659, .T. ) ;
#438 = VECTOR ( 'NONE', #746, 1000.000000000000000 ) ;
#439 = VERTEX_POINT ( 'NONE', #283 ) ;
#440 = APPROVAL ( #614, 'UNSPECIFIED' ) ;
#441 = VECTOR ( 'NONE', #242, 1000.000000000000000 ) ;
#442 =( GEOMETRIC_REPRESENTATION_CONTEXT ( 3 ) GLOBAL_UNCERTAINTY_ASSIGNED_CONTEXT ( ( #76 ) ) GLOBAL_UNIT_ASSIGNED_CONTEXT ( ( #64, #846, #157 ) ) REPRESENTATION_CONTEXT ( 'NONE', 'WORKASPACE' ) );
#443 = EDGE_CURVE ( 'NONE', #815, #29, #590, .T. ) ;
#444 = DIRECTION ( 'NONE',  ( 1.000000000000000000, 0.000000000000000000, 0.000000000000000000 ) ) ;
#445 = FACE_BOUND ( 'NONE', #223, .T. ) ;
#446 = EDGE_CURVE ( 'NONE', #40, #211, #356, .T. ) ;
#447 = ORIENTED_EDGE ( 'NONE', *, *, #307, .F. ) ;
#448 = ORIENTED_EDGE ( 'NONE', *, *, #688, .F. ) ;
#449 = CARTESIAN_POINT ( 'NONE',  ( -21.00000000000000000, 28.00000000000000000, 12.00000000000000000 ) ) ;
#450 = DIRECTION ( 'NONE',  ( -1.000000000000000000, 0.000000000000000000, -0.000000000000000000 ) ) ;
#451 = VECTOR ( 'NONE', #955, 1000.000000000000000 ) ;
#452 = ORIENTED_EDGE ( 'NONE', *, *, #688, .T. ) ;
#453 = EDGE_LOOP ( 'NONE', ( #248, #863, #749, #447 ) ) ;
#454 = CARTESIAN_POINT ( 'NONE',  ( 0.000000000000000000, 25.39999999999999858, -6.500000000000000000 ) ) ;
#455 = CARTESIAN_POINT ( 'NONE',  ( -14.00000000000000178, 28.00000000000000000, -12.00000000000000000 ) ) ;
#456 = ORIENTED_EDGE ( 'NONE', *, *, #397, .F. ) ;
#457 = VERTEX_POINT ( 'NONE', #424 ) ;
#458 = EDGE_CURVE ( 'NONE', #361, #142, #893, .T. ) ;
#459 = ORIENTED_EDGE ( 'NONE', *, *, #353, .F. ) ;
#460 = AXIS2_PLACEMENT_3D ( 'NONE', #470, #187, #716 ) ;
#461 = CARTESIAN_POINT ( 'NONE',  ( -14.00000000000000178, 28.00000000000000000, 12.00000000000000000 ) ) ;
#462 = ORIENTED_EDGE ( 'NONE', *, *, #240, .T. ) ;
#463 = MANIFOLD_SOLID_BREP ( 'Rear_clamping_M3_holes', #236 ) ;
#464 = DIRECTION ( 'NONE',  ( -1.000000000000000000, -0.000000000000000000, -0.000000000000000000 ) ) ;
#465 = APPROVAL_PERSON_ORGANIZATION ( #319, #62, #930 ) ;
#466 = DIRECTION ( 'NONE',  ( 0.000000000000000000, -1.000000000000000000, 0.000000000000000000 ) ) ;
#467 = VECTOR ( 'NONE', #259, 1000.000000000000000 ) ;
#468 = VERTEX_POINT ( 'NONE', #214 ) ;
#469 = CALENDAR_DATE ( 2026, 8, 9 ) ;
#470 = CARTESIAN_POINT ( 'NONE',  ( -21.00000000000000000, 28.00000000000000000, -12.00000000000000000 ) ) ;
#471 = DIRECTION ( 'NONE',  ( 0.000000000000000000, -1.000000000000000000, 0.000000000000000000 ) ) ;
#472 = VECTOR ( 'NONE', #103, 1000.000000000000000 ) ;
#473 = ADVANCED_FACE ( 'NONE', ( #890, #203, #735 ), #52, .F. ) ;
#474 = VERTEX_POINT ( 'NONE', #687 ) ;
#475 = APPROVAL_STATUS ( 'not_yet_approved' ) ;
#476 = FACE_OUTER_BOUND ( 'NONE', #324, .T. ) ;
#477 = AXIS2_PLACEMENT_3D ( 'NONE', #861, #471, #27 ) ;
#478 = AXIS2_PLACEMENT_3D ( 'NONE', #604, #683, #79 ) ;
#479 = CYLINDRICAL_SURFACE ( 'NONE', #734, 1.299999999999999156 ) ;
#480 = FACE_BOUND ( 'NONE', #848, .T. ) ;
#481 = EDGE_LOOP ( 'NONE', ( #179, #634 ) ) ;
#482 = LINE ( 'NONE', #321, #869 ) ;
#483 = DIRECTION ( 'NONE',  ( 0.000000000000000000, -1.000000000000000000, 0.000000000000000000 ) ) ;
#484 = LINE ( 'NONE', #171, #970 ) ;
#485 = ORIENTED_EDGE ( 'NONE', *, *, #566, .T. ) ;
#486 = PERSON_AND_ORGANIZATION ( #234, #666 ) ;
#487 = DIRECTION ( 'NONE',  ( -0.000000000000000000, 1.000000000000000000, -0.000000000000000000 ) ) ;
#488 = CARTESIAN_POINT ( 'NONE',  ( 20.00000000000000000, 21.39999999999999858, 1.299999999999999156 ) ) ;
#489 = CARTESIAN_POINT ( 'NONE',  ( -21.00000000000000000, 28.00000000000000000, -10.40000000000000036 ) ) ;
#490 = ORIENTED_EDGE ( 'NONE', *, *, #307, .T. ) ;
#491 = EDGE_CURVE ( 'NONE', #439, #757, #360, .T. ) ;
#492 = CARTESIAN_POINT ( 'NONE',  ( -21.00000000000000000, 33.00000000000000000, 18.00000000000000000 ) ) ;
#493 = VECTOR ( 'NONE', #371, 1000.000000000000000 ) ;
#494 = CARTESIAN_POINT ( 'NONE',  ( -6.400000000000000355, 25.39999999999999858, -6.500000000000000000 ) ) ;
#495 = VECTOR ( 'NONE', #669, 1000.000000000000000 ) ;
#496 = CC_DESIGN_PERSON_AND_ORGANIZATION_ASSIGNMENT ( #185, #162, ( #213 ) ) ;
#497 = ORIENTED_EDGE ( 'NONE', *, *, #694, .F. ) ;
#498 = DIRECTION ( 'NONE',  ( 1.000000000000000000, 0.000000000000000000, 0.000000000000000000 ) ) ;
#499 = DIRECTION ( 'NONE',  ( -0.000000000000000000, 0.000000000000000000, 1.000000000000000000 ) ) ;
#500 = ORIENTED_EDGE ( 'NONE', *, *, #968, .T. ) ;
#501 = CARTESIAN_POINT ( 'NONE',  ( -14.00000000000000000, 33.00000000000000000, -16.00000000000000000 ) ) ;
#502 = CYLINDRICAL_SURFACE ( 'NONE', #814, 1.600000000000000755 ) ;
#503 = ADVANCED_FACE ( 'NONE', ( #230 ), #305, .F. ) ;
#504 = ORIENTED_EDGE ( 'NONE', *, *, #808, .F. ) ;
#505 = EDGE_CURVE ( 'NONE', #845, #372, #74, .T. ) ;
#506 = CARTESIAN_POINT ( 'NONE',  ( 0.000000000000000000, 21.39999999999999858, 8.000000000000000000 ) ) ;
#507 = CARTESIAN_POINT ( 'NONE',  ( -9.000000000000000000, 21.39999999999999858, -1.300000000000000044 ) ) ;
#508 = VECTOR ( 'NONE', #464, 1000.000000000000000 ) ;
#509 = ORIENTED_EDGE ( 'NONE', *, *, #971, .T. ) ;
#510 = DIRECTION ( 'NONE',  ( 0.000000000000000000, 0.000000000000000000, -1.000000000000000000 ) ) ;
#511 = CARTESIAN_POINT ( 'NONE',  ( -14.00000000000000000, 33.00000000000000000, 8.000000000000000000 ) ) ;
#512 = ORIENTED_EDGE ( 'NONE', *, *, #251, .F. ) ;
#513 = ADVANCED_FACE ( 'NONE', ( #615 ), #981, .F. ) ;
#514 = DIRECTION ( 'NONE',  ( -1.000000000000000000, 0.000000000000000000, 0.000000000000000000 ) ) ;
#515 = DIRECTION ( 'NONE',  ( 0.000000000000000000, 0.000000000000000000, -1.000000000000000000 ) ) ;
#516 = VERTEX_POINT ( 'NONE', #606 ) ;
#517 = VERTEX_POINT ( 'NONE', #918 ) ;
#518 = LINE ( 'NONE', #70, #221 ) ;
#519 = EDGE_CURVE ( 'NONE', #137, #430, #913, .T. ) ;
#520 = LINE ( 'NONE', #85, #522 ) ;
#521 = ORIENTED_EDGE ( 'NONE', *, *, #320, .T. ) ;
#522 = VECTOR ( 'NONE', #297, 1000.000000000000000 ) ;
#523 = VECTOR ( 'NONE', #202, 1000.000000000000000 ) ;
#524 = LINE ( 'NONE', #300, #542 ) ;
#525 = DIRECTION ( 'NONE',  ( 1.000000000000000000, 0.000000000000000000, 0.000000000000000000 ) ) ;
#526 = EDGE_LOOP ( 'NONE', ( #184, #172 ) ) ;
#527 = ORIENTED_EDGE ( 'NONE', *, *, #533, .T. ) ;
#528 = ORIENTED_EDGE ( 'NONE', *, *, #958, .F. ) ;
#529 = CARTESIAN_POINT ( 'NONE',  ( 0.000000000000000000, 21.39999999999999858, 6.500000000000000000 ) ) ;
#530 = DIRECTION ( 'NONE',  ( 0.000000000000000000, 0.000000000000000000, -1.000000000000000000 ) ) ;
#531 = EDGE_LOOP ( 'NONE', ( #204, #527, #133, #363 ) ) ;
#532 = APPLICATION_CONTEXT ( 'configuration controlled 3d designs of mechanical parts and assemblies' ) ;
#533 = EDGE_CURVE ( 'NONE', #25, #516, #843, .T. ) ;
#534 = ORIENTED_EDGE ( 'NONE', *, *, #212, .T. ) ;
#535 = ORIENTED_EDGE ( 'NONE', *, *, #443, .T. ) ;
#536 = ADVANCED_FACE ( 'NONE', ( #907 ), #10, .F. ) ;
#537 = FACE_OUTER_BOUND ( 'NONE', #880, .T. ) ;
#538 = DIRECTION ( 'NONE',  ( -1.000000000000000000, 0.000000000000000000, 0.000000000000000000 ) ) ;
#539 = VERTEX_POINT ( 'NONE', #216 ) ;
#540 = VECTOR ( 'NONE', #580, 1000.000000000000000 ) ;
#541 = ORIENTED_EDGE ( 'NONE', *, *, #320, .F. ) ;
#542 = VECTOR ( 'NONE', #514, 1000.000000000000000 ) ;
#543 = DATE_AND_TIME ( #469, #800 ) ;
#544 = CARTESIAN_POINT ( 'NONE',  ( -14.00000000000000178, 28.00000000000000000, -12.00000000000000000 ) ) ;
#545 = CARTESIAN_POINT ( 'NONE',  ( -21.00000000000000000, 21.39999999999999858, -18.00000000000000000 ) ) ;
#546 = ADVANCED_FACE ( 'NONE', ( #610 ), #756, .T. ) ;
#547 = LINE ( 'NONE', #89, #309 ) ;
#548 = CARTESIAN_POINT ( 'NONE',  ( -9.000000000000000000, 33.00000000000000000, 1.300000000000000044 ) ) ;
#549 = DIRECTION ( 'NONE',  ( 0.000000000000000000, 0.000000000000000000, 1.000000000000000000 ) ) ;
#550 = ORIENTED_EDGE ( 'NONE', *, *, #427, .F. ) ;
#551 = APPROVAL_DATE_TIME ( #167, #608 ) ;
#552 = EDGE_CURVE ( 'NONE', #686, #78, #254, .T. ) ;
#553 = CARTESIAN_POINT ( 'NONE',  ( 25.00000000000000000, 25.39999999999999858, 18.00000000000000000 ) ) ;
#554 = CARTESIAN_POINT ( 'NONE',  ( -14.00000000000000178, 28.00000000000000000, 10.40000000000000036 ) ) ;
#555 = VERTEX_POINT ( 'NONE', #594 ) ;
#556 = SHAPE_DEFINITION_REPRESENTATION ( #948, #39 ) ;
#557 = VECTOR ( 'NONE', #584, 1000.000000000000000 ) ;
#558 = DIRECTION ( 'NONE',  ( 0.000000000000000000, 0.000000000000000000, -1.000000000000000000 ) ) ;
#559 = ORIENTED_EDGE ( 'NONE', *, *, #351, .T. ) ;
#560 = CARTESIAN_POINT ( 'NONE',  ( -14.00000000000000000, 21.39999999999999858, 0.000000000000000000 ) ) ;
#561 = ORIENTED_EDGE ( 'NONE', *, *, #552, .F. ) ;
#562 = CALENDAR_DATE ( 2026, 8, 9 ) ;
#563 = CARTESIAN_POINT ( 'NONE',  ( -4.000000000000000000, 21.39999999999999858, 0.000000000000000000 ) ) ;
#564 = CARTESIAN_POINT ( 'NONE',  ( -14.00000000000000000, 33.00000000000000000, 16.00000000000000000 ) ) ;
#565 = DIRECTION ( 'NONE',  ( -0.000000000000000000, 1.000000000000000000, -0.000000000000000000 ) ) ;
#566 = EDGE_CURVE ( 'NONE', #572, #539, #520, .T. ) ;
#567 = ORIENTED_EDGE ( 'NONE', *, *, #665, .T. ) ;
#568 = EDGE_CURVE ( 'NONE', #686, #517, #825, .T. ) ;
#569 = LINE ( 'NONE', #960, #63 ) ;
#570 = CARTESIAN_POINT ( 'NONE',  ( -14.00000000000000000, 25.39999999999999858, 16.00000000000000000 ) ) ;
#571 = DIRECTION ( 'NONE',  ( 0.000000000000000000, -1.000000000000000000, 0.000000000000000000 ) ) ;
#572 = VERTEX_POINT ( 'NONE', #847 ) ;
#573 = LINE ( 'NONE', #583, #178 ) ;
#574 = AXIS2_PLACEMENT_3D ( 'NONE', #455, #538, #830 ) ;
#575 = VECTOR ( 'NONE', #17, 1000.000000000000000 ) ;
#576 = CARTESIAN_POINT ( 'NONE',  ( -14.00000000000000000, 25.39999999999999858, 0.000000000000000000 ) ) ;
#577 = AXIS2_PLACEMENT_3D ( 'NONE', #449, #8, #364 ) ;
#578 = VERTEX_POINT ( 'NONE', #158 ) ;
#579 = DIRECTION ( 'NONE',  ( 0.000000000000000000, 0.000000000000000000, -1.000000000000000000 ) ) ;
#580 = DIRECTION ( 'NONE',  ( -1.000000000000000000, 0.000000000000000000, 0.000000000000000000 ) ) ;
#581 = CC_DESIGN_DATE_AND_TIME_ASSIGNMENT ( #787, #88, ( #213 ) ) ;
#582 = ORIENTED_EDGE ( 'NONE', *, *, #59, .F. ) ;
#583 = CARTESIAN_POINT ( 'NONE',  ( -14.00000000000000000, 21.39999999999999858, 0.000000000000000000 ) ) ;
#584 = DIRECTION ( 'NONE',  ( -1.000000000000000000, -0.000000000000000000, -0.000000000000000000 ) ) ;
#585 = EDGE_LOOP ( 'NONE', ( #916, #754, #448, #595 ) ) ;
#586 = CARTESIAN_POINT ( 'NONE',  ( -14.00000000000000000, 33.00000000000000000, -8.000000000000000000 ) ) ;
#587 = DIRECTION ( 'NONE',  ( 1.000000000000000000, 0.000000000000000000, 0.000000000000000000 ) ) ;
#588 = AXIS2_PLACEMENT_3D ( 'NONE', #101, #117, #205 ) ;
#589 = ORIENTED_EDGE ( 'NONE', *, *, #224, .T. ) ;
#590 = LINE ( 'NONE', #342, #114 ) ;
#591 = ORIENTED_EDGE ( 'NONE', *, *, #637, .F. ) ;
#592 = ADVANCED_FACE ( 'NONE', ( #66, #147, #383, #286, #765, #445 ), #751, .T. ) ;
#593 = CYLINDRICAL_SURFACE ( 'NONE', #98, 1.300000000000000044 ) ;
#594 = CARTESIAN_POINT ( 'NONE',  ( 20.00000000000000000, 25.39999999999999858, -1.299999999999999156 ) ) ;
#595 = ORIENTED_EDGE ( 'NONE', *, *, #334, .T. ) ;
#596 = ORIENTED_EDGE ( 'NONE', *, *, #743, .T. ) ;
#597 = LINE ( 'NONE', #370, #603 ) ;
#598 = VECTOR ( 'NONE', #352, 1000.000000000000000 ) ;
#599 = CARTESIAN_POINT ( 'NONE',  ( -6.400000000000000355, 33.00000000000000000, 6.500000000000000000 ) ) ;
#600 = EDGE_LOOP ( 'NONE', ( #582, #541 ) ) ;
#601 = CIRCLE ( 'NONE', #460, 1.600000000000000755 ) ;
#602 = AXIS2_PLACEMENT_3D ( 'NONE', #564, #388, #94 ) ;
#603 = VECTOR ( 'NONE', #662, 1000.000000000000000 ) ;
#604 = CARTESIAN_POINT ( 'NONE',  ( -9.000000000000000000, 21.39999999999999858, 0.000000000000000000 ) ) ;
#605 = EDGE_CURVE ( 'NONE', #7, #104, #291, .T. ) ;
#606 = CARTESIAN_POINT ( 'NONE',  ( -14.00000000000000000, 21.39999999999999858, 8.000000000000000000 ) ) ;
#607 = ORIENTED_EDGE ( 'NONE', *, *, #785, .F. ) ;
#608 = APPROVAL ( #941, 'UNSPECIFIED' ) ;
#609 = DIRECTION ( 'NONE',  ( 0.000000000000000000, 0.000000000000000000, -1.000000000000000000 ) ) ;
#610 = FACE_OUTER_BOUND ( 'NONE', #21, .T. ) ;
#611 = VECTOR ( 'NONE', #875, 1000.000000000000000 ) ;
#612 = ORIENTED_EDGE ( 'NONE', *, *, #397, .T. ) ;
#613 = ORIENTED_EDGE ( 'NONE', *, *, #637, .T. ) ;
#614 = APPROVAL_STATUS ( 'not_yet_approved' ) ;
#615 = FACE_OUTER_BOUND ( 'NONE', #261, .T. ) ;
#616 = ORIENTED_EDGE ( 'NONE', *, *, #605, .T. ) ;
#617 = ORIENTED_EDGE ( 'NONE', *, *, #741, .T. ) ;
#618 = EDGE_CURVE ( 'NONE', #757, #457, #393, .T. ) ;
#619 = VECTOR ( 'NONE', #355, 1000.000000000000000 ) ;
#620 = LOCAL_TIME ( 22, 20, 48.00000000000000000, #704 ) ;
#621 = PERSON_AND_ORGANIZATION ( #234, #666 ) ;
#622 = DIRECTION ( 'NONE',  ( -0.000000000000000000, 1.000000000000000000, -0.000000000000000000 ) ) ;
#623 = CARTESIAN_POINT ( 'NONE',  ( -9.000000000000000000, 21.39999999999999858, 0.000000000000000000 ) ) ;
#624 = LINE ( 'NONE', #797, #792 ) ;
#625 = EDGE_CURVE ( 'NONE', #211, #987, #900, .T. ) ;
#626 = ORIENTED_EDGE ( 'NONE', *, *, #443, .F. ) ;
#627 = DIRECTION ( 'NONE',  ( 1.000000000000000000, 0.000000000000000000, 0.000000000000000000 ) ) ;
#628 = CARTESIAN_POINT ( 'NONE',  ( -9.000000000000000000, 25.39999999999999858, 0.000000000000000000 ) ) ;
#629 = CARTESIAN_POINT ( 'NONE',  ( 0.000000000000000000, 25.39999999999999858, 8.000000000000000000 ) ) ;
#630 = EDGE_LOOP ( 'NONE', ( #141, #215, #243, #384 ) ) ;
#631 = DIRECTION ( 'NONE',  ( 0.000000000000000000, 0.000000000000000000, -1.000000000000000000 ) ) ;
#632 = ORIENTED_EDGE ( 'NONE', *, *, #415, .F. ) ;
#633 = PLANE ( 'NONE',  #403 ) ;
#634 = ORIENTED_EDGE ( 'NONE', *, *, #698, .T. ) ;
#635 = AXIS2_PLACEMENT_3D ( 'NONE', #30, #947, #241 ) ;
#636 = LINE ( 'NONE', #710, #49 ) ;
#637 = EDGE_CURVE ( 'NONE', #40, #468, #208, .T. ) ;
#638 = LINE ( 'NONE', #91, #575 ) ;
#639 = DIRECTION ( 'NONE',  ( 0.000000000000000000, 0.000000000000000000, 1.000000000000000000 ) ) ;
#640 = ORIENTED_EDGE ( 'NONE', *, *, #785, .T. ) ;
#641 = CYLINDRICAL_SURFACE ( 'NONE', #945, 1.600000000000000755 ) ;
#642 = FACE_BOUND ( 'NONE', #600, .T. ) ;
#643 = DIRECTION ( 'NONE',  ( 0.000000000000000000, -0.000000000000000000, -1.000000000000000000 ) ) ;
#644 = ORIENTED_EDGE ( 'NONE', *, *, #97, .T. ) ;
#645 = DIRECTION ( 'NONE',  ( 1.000000000000000000, 0.000000000000000000, 0.000000000000000000 ) ) ;
#646 = DIRECTION ( 'NONE',  ( 0.000000000000000000, -1.000000000000000000, 0.000000000000000000 ) ) ;
#647 = ORIENTED_EDGE ( 'NONE', *, *, #727, .F. ) ;
#648 = FACE_OUTER_BOUND ( 'NONE', #298, .T. ) ;
#649 = VECTOR ( 'NONE', #646, 1000.000000000000000 ) ;
#650 = DIRECTION ( 'NONE',  ( 0.000000000000000000, 0.000000000000000000, -1.000000000000000000 ) ) ;
#651 = CIRCLE ( 'NONE', #577, 1.600000000000000755 ) ;
#652 = ORIENTED_EDGE ( 'NONE', *, *, #491, .F. ) ;
#653 = DIRECTION ( 'NONE',  ( -0.000000000000000000, 0.000000000000000000, 1.000000000000000000 ) ) ;
#654 = VECTOR ( 'NONE', #974, 1000.000000000000000 ) ;
#655 = CARTESIAN_POINT ( 'NONE',  ( -21.00000000000000000, 21.39999999999999858, 18.00000000000000000 ) ) ;
#656 = CC_DESIGN_APPROVAL ( #608, ( #196 ) ) ;
#657 = EDGE_LOOP ( 'NONE', ( #373, #713 ) ) ;
#658 = DIRECTION ( 'NONE',  ( 0.000000000000000000, 0.000000000000000000, -1.000000000000000000 ) ) ;
#659 = EDGE_CURVE ( 'NONE', #7, #474, #331, .T. ) ;
#660 = CARTESIAN_POINT ( 'NONE',  ( -4.000000000000000000, 33.00000000000000000, 16.00000000000000000 ) ) ;
#661 = ORIENTED_EDGE ( 'NONE', *, *, #67, .F. ) ;
#662 = DIRECTION ( 'NONE',  ( 0.000000000000000000, -1.000000000000000000, 0.000000000000000000 ) ) ;
#663 = LINE ( 'NONE', #55, #598 ) ;
#664 = VECTOR ( 'NONE', #267, 1000.000000000000000 ) ;
#665 = EDGE_CURVE ( 'NONE', #909, #34, #106, .T. ) ;
#666 = ORGANIZATION ( 'UNSPECIFIED', 'UNSPECIFIED', '' ) ;
#667 = VERTEX_POINT ( 'NONE', #553 ) ;
#668 = CC_DESIGN_PERSON_AND_ORGANIZATION_ASSIGNMENT ( #691, #249, ( #788 ) ) ;
#669 = DIRECTION ( 'NONE',  ( 1.000000000000000000, 0.000000000000000000, 0.000000000000000000 ) ) ;
#670 = DIRECTION ( 'NONE',  ( 0.000000000000000000, 0.000000000000000000, -1.000000000000000000 ) ) ;
#671 = VERTEX_POINT ( 'NONE', #181 ) ;
#672 = VECTOR ( 'NONE', #416, 1000.000000000000000 ) ;
#673 = DIRECTION ( 'NONE',  ( 0.000000000000000000, -1.000000000000000000, 0.000000000000000000 ) ) ;
#674 = CARTESIAN_POINT ( 'NONE',  ( -21.00000000000000000, 25.39999999999999858, 18.00000000000000000 ) ) ;
#675 = ORIENTED_EDGE ( 'NONE', *, *, #958, .T. ) ;
#676 = EDGE_CURVE ( 'NONE', #827, #160, #482, .T. ) ;
#677 = ORIENTED_EDGE ( 'NONE', *, *, #887, .T. ) ;
#678 = DIRECTION ( 'NONE',  ( -0.000000000000000000, 1.000000000000000000, -0.000000000000000000 ) ) ;
#679 = DIRECTION ( 'NONE',  ( 0.000000000000000000, -1.000000000000000000, 0.000000000000000000 ) ) ;
#680 = ADVANCED_FACE ( 'NONE', ( #865 ), #641, .F. ) ;
#681 = ORIENTED_EDGE ( 'NONE', *, *, #936, .F. ) ;
#682 = AXIS2_PLACEMENT_3D ( 'NONE', #674, #670, #838 ) ;
#683 = DIRECTION ( 'NONE',  ( -0.000000000000000000, 1.000000000000000000, -0.000000000000000000 ) ) ;
#684 = CARTESIAN_POINT ( 'NONE',  ( -14.00000000000000000, 33.00000000000000000, 8.000000000000000000 ) ) ;
#685 = ORIENTED_EDGE ( 'NONE', *, *, #59, .T. ) ;
#686 = VERTEX_POINT ( 'NONE', #782 ) ;
#687 = CARTESIAN_POINT ( 'NONE',  ( 17.39999999999999858, 25.39999999999999858, 6.500000000000000000 ) ) ;
#688 = EDGE_CURVE ( 'NONE', #265, #798, #258, .T. ) ;
#689 = VERTEX_POINT ( 'NONE', #873 ) ;
#690 = ORIENTED_EDGE ( 'NONE', *, *, #851, .T. ) ;
#691 = PERSON_AND_ORGANIZATION ( #234, #666 ) ;
#692 = CARTESIAN_POINT ( 'NONE',  ( -4.000000000000000000, 33.00000000000000000, 8.000000000000000000 ) ) ;
#693 = FACE_BOUND ( 'NONE', #526, .T. ) ;
#694 = EDGE_CURVE ( 'NONE', #29, #361, #547, .T. ) ;
#695 = CIRCLE ( 'NONE', #159, 1.600000000000000755 ) ;
#696 = ORIENTED_EDGE ( 'NONE', *, *, #805, .T. ) ;
#697 = VECTOR ( 'NONE', #466, 1000.000000000000000 ) ;
#698 = EDGE_CURVE ( 'NONE', #116, #57, #81, .T. ) ;
#699 = VECTOR ( 'NONE', #444, 1000.000000000000000 ) ;
#700 = PLANE ( 'NONE',  #588 ) ;
#701 = CARTESIAN_POINT ( 'NONE',  ( -9.000000000000000000, 25.39999999999999858, 1.300000000000000044 ) ) ;
#702 = CARTESIAN_POINT ( 'NONE',  ( -14.00000000000000000, 33.00000000000000000, 16.00000000000000000 ) ) ;
#703 = VERTEX_POINT ( 'NONE', #26 ) ;
#704 = COORDINATED_UNIVERSAL_TIME_OFFSET ( 6, 0, .BEHIND. ) ;
#705 = DIRECTION ( 'NONE',  ( -1.000000000000000000, 0.000000000000000000, 0.000000000000000000 ) ) ;
#706 = CARTESIAN_POINT ( 'NONE',  ( 17.39999999999999858, 33.00000000000000000, 6.500000000000000000 ) ) ;
#707 = AXIS2_PLACEMENT_3D ( 'NONE', #868, #718, #639 ) ;
#708 = EDGE_LOOP ( 'NONE', ( #459, #239, #426, #736 ) ) ;
#709 = EDGE_CURVE ( 'NONE', #142, #671, #636, .T. ) ;
#710 = CARTESIAN_POINT ( 'NONE',  ( -14.00000000000000000, 23.00000000000000000, -18.00000000000000000 ) ) ;
#711 = PLANE ( 'NONE',  #602 ) ;
#712 = DIRECTION ( 'NONE',  ( 0.000000000000000000, -1.000000000000000000, 0.000000000000000000 ) ) ;
#713 = ORIENTED_EDGE ( 'NONE', *, *, #741, .F. ) ;
#714 = VECTOR ( 'NONE', #631, 1000.000000000000000 ) ;
#715 = VECTOR ( 'NONE', #154, 1000.000000000000000 ) ;
#716 = DIRECTION ( 'NONE',  ( 0.000000000000000000, 0.000000000000000000, -1.000000000000000000 ) ) ;
#717 = CARTESIAN_POINT ( 'NONE',  ( -6.400000000000000355, 25.39999999999999858, 6.500000000000000000 ) ) ;
#718 = DIRECTION ( 'NONE',  ( -1.000000000000000000, 0.000000000000000000, 0.000000000000000000 ) ) ;
#719 = ORIENTED_EDGE ( 'NONE', *, *, #362, .F. ) ;
#720 = CARTESIAN_POINT ( 'NONE',  ( -6.400000000000000355, 21.39999999999999858, 0.000000000000000000 ) ) ;
#721 = CARTESIAN_POINT ( 'NONE',  ( -14.00000000000000000, 25.39999999999999858, -18.00000000000000000 ) ) ;
#722 = CARTESIAN_POINT ( 'NONE',  ( -14.00000000000000178, 28.00000000000000000, 12.00000000000000000 ) ) ;
#723 = CC_DESIGN_SECURITY_CLASSIFICATION ( #213, ( #196 ) ) ;
#724 = ADVANCED_FACE ( 'NONE', ( #174 ), #931, .F. ) ;
#725 = ORIENTED_EDGE ( 'NONE', *, *, #851, .F. ) ;
#726 = PRODUCT_RELATED_PRODUCT_CATEGORY ( 'detail', '', ( #256 ) ) ;
#727 = EDGE_CURVE ( 'NONE', #836, #457, #169, .T. ) ;
#728 = CARTESIAN_POINT ( 'NONE',  ( -4.000000000000000000, 25.39999999999999858, -8.000000000000000000 ) ) ;
#729 = LINE ( 'NONE', #279, #392 ) ;
#730 = EDGE_CURVE ( 'NONE', #57, #116, #762, .T. ) ;
#731 = ORIENTED_EDGE ( 'NONE', *, *, #936, .T. ) ;
#732 = DIRECTION ( 'NONE',  ( 1.000000000000000000, 0.000000000000000000, -0.000000000000000000 ) ) ;
#733 = VECTOR ( 'NONE', #653, 1000.000000000000000 ) ;
#734 = AXIS2_PLACEMENT_3D ( 'NONE', #783, #102, #23 ) ;
#735 = FACE_OUTER_BOUND ( 'NONE', #69, .T. ) ;
#736 = ORIENTED_EDGE ( 'NONE', *, *, #659, .F. ) ;
#737 = LINE ( 'NONE', #58, #619 ) ;
#738 = DIRECTION ( 'NONE',  ( -1.000000000000000000, 0.000000000000000000, 0.000000000000000000 ) ) ;
#739 = EDGE_LOOP ( 'NONE', ( #500, #358, #48, #86 ) ) ;
#740 = CARTESIAN_POINT ( 'NONE',  ( -6.400000000000000355, 33.00000000000000000, -6.500000000000000000 ) ) ;
#741 = EDGE_CURVE ( 'NONE', #987, #211, #601, .T. ) ;
#742 = CARTESIAN_POINT ( 'NONE',  ( -14.00000000000000000, 21.39999999999999858, 16.00000000000000000 ) ) ;
#743 = EDGE_CURVE ( 'NONE', #348, #836, #314, .T. ) ;
#744 = ORIENTED_EDGE ( 'NONE', *, *, #36, .F. ) ;
#745 = APPLICATION_PROTOCOL_DEFINITION ( 'international standard', 'config_control_design', 1994, #532 ) ;
#746 = DIRECTION ( 'NONE',  ( -1.000000000000000000, 0.000000000000000000, 0.000000000000000000 ) ) ;
#747 = AXIS2_PLACEMENT_3D ( 'NONE', #801, #964, #732 ) ;
#748 = ORIENTED_EDGE ( 'NONE', *, *, #351, .F. ) ;
#749 = ORIENTED_EDGE ( 'NONE', *, *, #743, .F. ) ;
#750 = FACE_OUTER_BOUND ( 'NONE', #277, .T. ) ;
#751 = PLANE ( 'NONE',  #233 ) ;
#752 = ORIENTED_EDGE ( 'NONE', *, *, #232, .F. ) ;
#753 = EDGE_CURVE ( 'NONE', #468, #987, #937, .T. ) ;
#754 = ORIENTED_EDGE ( 'NONE', *, *, #805, .F. ) ;
#755 = LINE ( 'NONE', #454, #977 ) ;
#756 = PLANE ( 'NONE',  #130 ) ;
#757 = VERTEX_POINT ( 'NONE', #35 ) ;
#758 = ORIENTED_EDGE ( 'NONE', *, *, #232, .T. ) ;
#759 = LINE ( 'NONE', #529, #699 ) ;
#760 = CARTESIAN_POINT ( 'NONE',  ( -4.000000000000000000, 25.39999999999999858, 0.000000000000000000 ) ) ;
#761 = ORIENTED_EDGE ( 'NONE', *, *, #9, .T. ) ;
#762 = CIRCLE ( 'NONE', #294, 1.299999999999999156 ) ;
#763 = CARTESIAN_POINT ( 'NONE',  ( -21.00000000000000000, 33.00000000000000000, -18.00000000000000000 ) ) ;
#764 = ADVANCED_FACE ( 'NONE', ( #476 ), #700, .T. ) ;
#765 = FACE_BOUND ( 'NONE', #739, .T. ) ;
#766 = ORIENTED_EDGE ( 'NONE', *, *, #753, .F. ) ;
#767 = MECHANICAL_CONTEXT ( 'NONE', #532, 'mechanical' ) ;
#768 = LOCAL_TIME ( 22, 20, 48.00000000000000000, #92 ) ;
#769 = EDGE_CURVE ( 'NONE', #689, #104, #820, .T. ) ;
#770 = DIRECTION ( 'NONE',  ( 0.000000000000000000, 0.000000000000000000, -1.000000000000000000 ) ) ;
#771 = DIRECTION ( 'NONE',  ( -0.000000000000000000, -1.000000000000000000, -0.000000000000000000 ) ) ;
#772 = EDGE_CURVE ( 'NONE', #457, #516, #432, .T. ) ;
#773 = ORIENTED_EDGE ( 'NONE', *, *, #125, .F. ) ;
#774 = CALENDAR_DATE ( 2026, 8, 9 ) ;
#775 = DIRECTION ( 'NONE',  ( 1.000000000000000000, 0.000000000000000000, 0.000000000000000000 ) ) ;
#776 = FACE_OUTER_BOUND ( 'NONE', #453, .T. ) ;
#777 = CARTESIAN_POINT ( 'NONE',  ( -14.00000000000000000, 23.00000000000000000, 18.00000000000000000 ) ) ;
#778 = VECTOR ( 'NONE', #235, 1000.000000000000000 ) ;
#779 = ORIENTED_EDGE ( 'NONE', *, *, #769, .T. ) ;
#780 = CIRCLE ( 'NONE', #269, 1.299999999999999156 ) ;
#781 = APPROVAL_DATE_TIME ( #399, #62 ) ;
#782 = CARTESIAN_POINT ( 'NONE',  ( -14.00000000000000178, 28.00000000000000000, 13.60000000000000142 ) ) ;
#783 = CARTESIAN_POINT ( 'NONE',  ( 20.00000000000000000, 33.00000000000000000, 0.000000000000000000 ) ) ;
#784 = DIRECTION ( 'NONE',  ( 0.000000000000000000, -1.000000000000000000, 0.000000000000000000 ) ) ;
#785 = EDGE_CURVE ( 'NONE', #468, #40, #695, .T. ) ;
#786 = ORIENTED_EDGE ( 'NONE', *, *, #67, .T. ) ;
#787 = DATE_AND_TIME ( #774, #983 ) ;
#788 = PRODUCT_DEFINITION ( 'UNKNOWN', '', #196, #379 ) ;
#789 = DIRECTION ( 'NONE',  ( -1.000000000000000000, 0.000000000000000000, 0.000000000000000000 ) ) ;
#790 = ADVANCED_FACE ( 'NONE', ( #135 ), #209, .T. ) ;
#791 = CARTESIAN_POINT ( 'NONE',  ( -21.00000000000000000, 25.39999999999999858, 18.00000000000000000 ) ) ;
#792 = VECTOR ( 'NONE', #712, 1000.000000000000000 ) ;
#793 = LINE ( 'NONE', #32, #56 ) ;
#794 = ORIENTED_EDGE ( 'NONE', *, *, #829, .T. ) ;
#795 = CARTESIAN_POINT ( 'NONE',  ( 0.000000000000000000, 21.39999999999999858, 16.00000000000000000 ) ) ;
#796 = CARTESIAN_POINT ( 'NONE',  ( -14.00000000000000178, 28.00000000000000000, -10.40000000000000036 ) ) ;
#797 = CARTESIAN_POINT ( 'NONE',  ( -6.400000000000000355, 33.00000000000000000, -6.500000000000000000 ) ) ;
#798 = VERTEX_POINT ( 'NONE', #492 ) ;
#799 = AXIS2_PLACEMENT_3D ( 'NONE', #245, #942, #326 ) ;
#800 = LOCAL_TIME ( 22, 20, 48.00000000000000000, #180 ) ;
#801 = CARTESIAN_POINT ( 'NONE',  ( -21.00000000000000000, 25.39999999999999858, -18.00000000000000000 ) ) ;
#802 = ADVANCED_FACE ( 'NONE', ( #812 ), #420, .T. ) ;
#803 = CARTESIAN_POINT ( 'NONE',  ( -4.000000000000000000, 21.39999999999999858, 0.000000000000000000 ) ) ;
#804 = DIRECTION ( 'NONE',  ( 0.000000000000000000, 0.000000000000000000, 1.000000000000000000 ) ) ;
#805 = EDGE_CURVE ( 'NONE', #798, #909, #569, .T. ) ;
#806 = ORIENTED_EDGE ( 'NONE', *, *, #709, .T. ) ;
#807 = CARTESIAN_POINT ( 'NONE',  ( -6.400000000000000355, 33.00000000000000000, 6.500000000000000000 ) ) ;
#808 = EDGE_CURVE ( 'NONE', #34, #5, #737, .T. ) ;
#809 = CARTESIAN_POINT ( 'NONE',  ( 20.00000000000000000, 33.00000000000000000, 1.299999999999999156 ) ) ;
#810 = AXIS2_PLACEMENT_3D ( 'NONE', #950, #38, #396 ) ;
#811 = EDGE_LOOP ( 'NONE', ( #229, #374, #550, #534 ) ) ;
#812 = FACE_OUTER_BOUND ( 'NONE', #630, .T. ) ;
#813 = DIRECTION ( 'NONE',  ( -1.000000000000000000, -0.000000000000000000, -0.000000000000000000 ) ) ;
#814 = AXIS2_PLACEMENT_3D ( 'NONE', #722, #738, #804 ) ;
#815 = VERTEX_POINT ( 'NONE', #728 ) ;
#816 = DIRECTION ( 'NONE',  ( -1.000000000000000000, 0.000000000000000000, 0.000000000000000000 ) ) ;
#817 = DIRECTION ( 'NONE',  ( 0.000000000000000000, 0.000000000000000000, -1.000000000000000000 ) ) ;
#818 = VERTEX_POINT ( 'NONE', #423 ) ;
#819 = ADVANCED_FACE ( 'NONE', ( #648 ), #54, .T. ) ;
#820 = LINE ( 'NONE', #720, #733 ) ;
#821 = ADVANCED_FACE ( 'NONE', ( #275 ), #336, .F. ) ;
#822 = LINE ( 'NONE', #969, #557 ) ;
#823 = EDGE_LOOP ( 'NONE', ( #437, #966, #940, #255 ) ) ;
#824 = DIRECTION ( 'NONE',  ( 0.000000000000000000, 0.000000000000000000, -1.000000000000000000 ) ) ;
#825 = LINE ( 'NONE', #140, #438 ) ;
#826 = ORIENTED_EDGE ( 'NONE', *, *, #410, .T. ) ;
#827 = VERTEX_POINT ( 'NONE', #350 ) ;
#828 = CARTESIAN_POINT ( 'NONE',  ( 0.000000000000000000, 0.000000000000000000, 0.000000000000000000 ) ) ;
#829 = EDGE_CURVE ( 'NONE', #78, #686, #344, .T. ) ;
#830 = DIRECTION ( 'NONE',  ( 0.000000000000000000, 0.000000000000000000, 1.000000000000000000 ) ) ;
#831 = AXIS2_PLACEMENT_3D ( 'NONE', #310, #622, #111 ) ;
#832 = VECTOR ( 'NONE', #483, 1000.000000000000000 ) ;
#833 = ORIENTED_EDGE ( 'NONE', *, *, #922, .F. ) ;
#834 = AXIS2_PLACEMENT_3D ( 'NONE', #84, #824, #837 ) ;
#835 = EDGE_CURVE ( 'NONE', #578, #845, #50, .T. ) ;
#836 = VERTEX_POINT ( 'NONE', #881 ) ;
#837 = DIRECTION ( 'NONE',  ( -1.000000000000000000, 0.000000000000000000, -0.000000000000000000 ) ) ;
#838 = DIRECTION ( 'NONE',  ( -1.000000000000000000, 0.000000000000000000, -0.000000000000000000 ) ) ;
#839 = EDGE_LOOP ( 'NONE', ( #744, #794, #225, #731 ) ) ;
#840 = EDGE_LOOP ( 'NONE', ( #806, #982, #528, #82, #490, #413, #367, #690, #354, #512, #120, #962 ) ) ;
#841 = VECTOR ( 'NONE', #253, 1000.000000000000000 ) ;
#842 = DIRECTION ( 'NONE',  ( 0.000000000000000000, 1.000000000000000000, 0.000000000000000000 ) ) ;
#843 = LINE ( 'NONE', #684, #715 ) ;
#844 = EDGE_LOOP ( 'NONE', ( #561, #156 ) ) ;
#845 = VERTEX_POINT ( 'NONE', #191 ) ;
#846 =( NAMED_UNIT ( * ) PLANE_ANGLE_UNIT ( ) SI_UNIT ( $, .RADIAN. ) );
#847 = CARTESIAN_POINT ( 'NONE',  ( 25.00000000000000000, 25.39999999999999858, -18.00000000000000000 ) ) ;
#848 = EDGE_LOOP ( 'NONE', ( #591, #607 ) ) ;
#849 = CIRCLE ( 'NONE', #411, 1.299999999999999156 ) ;
#850 = AXIS2_PLACEMENT_3D ( 'NONE', #807, #121, #579 ) ;
#851 = EDGE_CURVE ( 'NONE', #25, #578, #414, .T. ) ;
#852 = ORIENTED_EDGE ( 'NONE', *, *, #368, .F. ) ;
#853 = PERSON_AND_ORGANIZATION ( #234, #666 ) ;
#854 = DIRECTION ( 'NONE',  ( 1.000000000000000000, 0.000000000000000000, 0.000000000000000000 ) ) ;
#855 = CC_DESIGN_DATE_AND_TIME_ASSIGNMENT ( #15, #244, ( #788 ) ) ;
#856 = LINE ( 'NONE', #706, #697 ) ;
#857 = ORIENTED_EDGE ( 'NONE', *, *, #968, .F. ) ;
#858 = APPROVAL_DATE_TIME ( #543, #440 ) ;
#859 = AXIS2_PLACEMENT_3D ( 'NONE', #333, #884, #643 ) ;
#860 = CARTESIAN_POINT ( 'NONE',  ( 20.00000000000000000, 21.39999999999999858, 0.000000000000000000 ) ) ;
#861 = CARTESIAN_POINT ( 'NONE',  ( 0.000000000000000000, 25.39999999999999858, 0.000000000000000000 ) ) ;
#862 = PLANE ( 'NONE',  #228 ) ;
#863 = ORIENTED_EDGE ( 'NONE', *, *, #362, .T. ) ;
#864 = COORDINATED_UNIVERSAL_TIME_OFFSET ( 6, 0, .BEHIND. ) ;
#865 = FACE_OUTER_BOUND ( 'NONE', #287, .T. ) ;
#866 = EDGE_CURVE ( 'NONE', #516, #348, #573, .T. ) ;
#867 = CARTESIAN_POINT ( 'NONE',  ( -14.00000000000000000, 21.39999999999999858, -16.00000000000000000 ) ) ;
#868 = CARTESIAN_POINT ( 'NONE',  ( -14.00000000000000178, 28.00000000000000000, 12.00000000000000000 ) ) ;
#869 = VECTOR ( 'NONE', #558, 1000.000000000000000 ) ;
#870 = VERTEX_POINT ( 'NONE', #266 ) ;
#871 = CIRCLE ( 'NONE', #195, 1.300000000000000044 ) ;
#872 = CALENDAR_DATE ( 2026, 8, 9 ) ;
#873 = CARTESIAN_POINT ( 'NONE',  ( -6.400000000000000355, 21.39999999999999858, -6.500000000000000000 ) ) ;
#874 = CARTESIAN_POINT ( 'NONE',  ( -21.00000000000000000, 21.39999999999999858, -18.00000000000000000 ) ) ;
#875 = DIRECTION ( 'NONE',  ( -0.000000000000000000, 0.000000000000000000, 1.000000000000000000 ) ) ;
#876 = ORIENTED_EDGE ( 'NONE', *, *, #753, .T. ) ;
#877 = CALENDAR_DATE ( 2026, 8, 9 ) ;
#878 = DIRECTION ( 'NONE',  ( 0.000000000000000000, 0.000000000000000000, -1.000000000000000000 ) ) ;
#879 = LINE ( 'NONE', #118, #317 ) ;
#880 = EDGE_LOOP ( 'NONE', ( #975, #521, #946, #661 ) ) ;
#881 = CARTESIAN_POINT ( 'NONE',  ( -4.000000000000000000, 21.39999999999999858, 16.00000000000000000 ) ) ;
#882 = ADVANCED_FACE ( 'NONE', ( #198 ), #272, .T. ) ;
#883 = LINE ( 'NONE', #803, #672 ) ;
#884 = DIRECTION ( 'NONE',  ( 0.000000000000000000, -1.000000000000000000, 0.000000000000000000 ) ) ;
#885 = ORIENTED_EDGE ( 'NONE', *, *, #665, .F. ) ;
#886 = VECTOR ( 'NONE', #525, 1000.000000000000000 ) ;
#887 = EDGE_CURVE ( 'NONE', #703, #689, #895, .T. ) ;
#888 = VECTOR ( 'NONE', #346, 1000.000000000000000 ) ;
#889 = DIRECTION ( 'NONE',  ( 1.000000000000000000, 0.000000000000000000, 0.000000000000000000 ) ) ;
#890 = FACE_BOUND ( 'NONE', #657, .T. ) ;
#891 = ORIENTED_EDGE ( 'NONE', *, *, #446, .F. ) ;
#892 = CARTESIAN_POINT ( 'NONE',  ( 0.000000000000000000, 21.39999999999999858, -6.500000000000000000 ) ) ;
#893 = LINE ( 'NONE', #576, #425 ) ;
#894 = ORIENTED_EDGE ( 'NONE', *, *, #139, .T. ) ;
#895 = LINE ( 'NONE', #892, #523 ) ;
#896 = CARTESIAN_POINT ( 'NONE',  ( -14.00000000000000178, 28.00000000000000000, -10.40000000000000036 ) ) ;
#897 = ADVANCED_FACE ( 'NONE', ( #537 ), #138, .F. ) ;
#898 = EDGE_LOOP ( 'NONE', ( #456, #929, #559, #218 ) ) ;
#899 = DIRECTION ( 'NONE',  ( 0.000000000000000000, -1.000000000000000000, 0.000000000000000000 ) ) ;
#900 = CIRCLE ( 'NONE', #799, 1.600000000000000755 ) ;
#901 = CARTESIAN_POINT ( 'NONE',  ( -4.000000000000000000, 21.39999999999999858, -16.00000000000000000 ) ) ;
#902 = EDGE_LOOP ( 'NONE', ( #227, #786 ) ) ;
#903 = DIRECTION ( 'NONE',  ( -1.000000000000000000, 0.000000000000000000, 0.000000000000000000 ) ) ;
#904 = PLANE ( 'NONE',  #96 ) ;
#905 = ORIENTED_EDGE ( 'NONE', *, *, #224, .F. ) ;
#906 = CARTESIAN_POINT ( 'NONE',  ( 0.000000000000000000, 25.39999999999999858, -8.000000000000000000 ) ) ;
#907 = FACE_OUTER_BOUND ( 'NONE', #811, .T. ) ;
#908 = EDGE_CURVE ( 'NONE', #104, #45, #759, .T. ) ;
#909 = VERTEX_POINT ( 'NONE', #763 ) ;
#910 = CIRCLE ( 'NONE', #128, 1.300000000000000044 ) ;
#911 = DIRECTION ( 'NONE',  ( 0.000000000000000000, -1.000000000000000000, 0.000000000000000000 ) ) ;
#912 = ADVANCED_FACE ( 'NONE', ( #376 ), #295, .T. ) ;
#913 = LINE ( 'NONE', #80, #914 ) ;
#914 = VECTOR ( 'NONE', #222, 1000.000000000000000 ) ;
#915 = AXIS2_PLACEMENT_3D ( 'NONE', #628, #932, #332 ) ;
#916 = ORIENTED_EDGE ( 'NONE', *, *, #415, .T. ) ;
#917 = CIRCLE ( 'NONE', #478, 1.300000000000000044 ) ;
#918 = CARTESIAN_POINT ( 'NONE',  ( -21.00000000000000000, 28.00000000000000000, 13.60000000000000142 ) ) ;
#919 = ORIENTED_EDGE ( 'NONE', *, *, #808, .T. ) ;
#920 = DIRECTION ( 'NONE',  ( -0.000000000000000000, 0.000000000000000000, 1.000000000000000000 ) ) ;
#921 = ORIENTED_EDGE ( 'NONE', *, *, #458, .F. ) ;
#922 = EDGE_CURVE ( 'NONE', #430, #390, #917, .T. ) ;
#923 = ADVANCED_FACE ( 'NONE', ( #750 ), #593, .F. ) ;
#924 = CC_DESIGN_PERSON_AND_ORGANIZATION_ASSIGNMENT ( #486, #313, ( #256 ) ) ;
#925 = CARTESIAN_POINT ( 'NONE',  ( 25.00000000000000000, 25.39999999999999858, 18.00000000000000000 ) ) ;
#926 = ORIENTED_EDGE ( 'NONE', *, *, #9, .F. ) ;
#927 = VECTOR ( 'NONE', #47, 1000.000000000000000 ) ;
#928 = AXIS2_PLACEMENT_3D ( 'NONE', #973, #262, #658 ) ;
#929 = ORIENTED_EDGE ( 'NONE', *, *, #382, .T. ) ;
#930 = APPROVAL_ROLE ( '' ) ;
#931 = CYLINDRICAL_SURFACE ( 'NONE', #635, 1.299999999999999156 ) ;
#932 = DIRECTION ( 'NONE',  ( -0.000000000000000000, 1.000000000000000000, -0.000000000000000000 ) ) ;
#933 = FACE_BOUND ( 'NONE', #844, .T. ) ;
#934 = VERTEX_POINT ( 'NONE', #359 ) ;
#935 = APPROVAL_ROLE ( '' ) ;
#936 = EDGE_CURVE ( 'NONE', #517, #870, #651, .T. ) ;
#937 = LINE ( 'NONE', #93, #329 ) ;
#938 = CARTESIAN_POINT ( 'NONE',  ( -6.400000000000000355, 21.39999999999999858, 6.500000000000000000 ) ) ;
#939 = LINE ( 'NONE', #247, #472 ) ;
#940 = ORIENTED_EDGE ( 'NONE', *, *, #908, .F. ) ;
#941 = APPROVAL_STATUS ( 'not_yet_approved' ) ;
#942 = DIRECTION ( 'NONE',  ( -1.000000000000000000, 0.000000000000000000, -0.000000000000000000 ) ) ;
#943 = FACE_OUTER_BOUND ( 'NONE', #952, .T. ) ;
#944 = CARTESIAN_POINT ( 'NONE',  ( 25.00000000000000000, 25.39999999999999858, 18.00000000000000000 ) ) ;
#945 = AXIS2_PLACEMENT_3D ( 'NONE', #16, #705, #405 ) ;
#946 = ORIENTED_EDGE ( 'NONE', *, *, #519, .T. ) ;
#947 = DIRECTION ( 'NONE',  ( 0.000000000000000000, -1.000000000000000000, 0.000000000000000000 ) ) ;
#948 = PRODUCT_DEFINITION_SHAPE ( 'NONE', 'NONE',  #788 ) ;
#949 = DIRECTION ( 'NONE',  ( 0.000000000000000000, 0.000000000000000000, -1.000000000000000000 ) ) ;
#950 = CARTESIAN_POINT ( 'NONE',  ( -21.00000000000000000, 28.00000000000000000, 12.00000000000000000 ) ) ;
#951 = EDGE_CURVE ( 'NONE', #815, #372, #597, .T. ) ;
#952 = EDGE_LOOP ( 'NONE', ( #369, #124, #207, #6, #335, #921, #497, #626, #274, #725, #152, #652 ) ) ;
#953 = DIRECTION ( 'NONE',  ( -0.000000000000000000, 0.000000000000000000, 1.000000000000000000 ) ) ;
#954 = VECTOR ( 'NONE', #784, 1000.000000000000000 ) ;
#955 = DIRECTION ( 'NONE',  ( 1.000000000000000000, 0.000000000000000000, 0.000000000000000000 ) ) ;
#956 = LINE ( 'NONE', #944, #841 ) ;
#957 = APPLICATION_CONTEXT ( 'configuration controlled 3d designs of mechanical parts and assemblies' ) ;
#958 = EDGE_CURVE ( 'NONE', #827, #265, #518, .T. ) ;
#959 = ORIENTED_EDGE ( 'NONE', *, *, #385, .F. ) ;
#960 = CARTESIAN_POINT ( 'NONE',  ( -21.00000000000000000, 33.00000000000000000, 18.00000000000000000 ) ) ;
#961 = CARTESIAN_POINT ( 'NONE',  ( -4.000000000000000000, 21.39999999999999858, -8.000000000000000000 ) ) ;
#962 = ORIENTED_EDGE ( 'NONE', *, *, #458, .T. ) ;
#963 = AXIS2_PLACEMENT_3D ( 'NONE', #226, #13, #530 ) ;
#964 = DIRECTION ( 'NONE',  ( 0.000000000000000000, 0.000000000000000000, 1.000000000000000000 ) ) ;
#965 = FACE_OUTER_BOUND ( 'NONE', #531, .T. ) ;
#966 = ORIENTED_EDGE ( 'NONE', *, *, #77, .T. ) ;
#967 = CARTESIAN_POINT ( 'NONE',  ( -14.00000000000000000, 33.00000000000000000, -8.000000000000000000 ) ) ;
#968 = EDGE_CURVE ( 'NONE', #422, #129, #524, .T. ) ;
#969 = CARTESIAN_POINT ( 'NONE',  ( -21.00000000000000000, 25.39999999999999858, -18.00000000000000000 ) ) ;
#970 = VECTOR ( 'NONE', #571, 1000.000000000000000 ) ;
#971 = EDGE_CURVE ( 'NONE', #555, #99, #780, .T. ) ;
#972 = ORIENTED_EDGE ( 'NONE', *, *, #410, .F. ) ;
#973 = CARTESIAN_POINT ( 'NONE',  ( -14.00000000000000178, 28.00000000000000000, 12.00000000000000000 ) ) ;
#974 = DIRECTION ( 'NONE',  ( 0.000000000000000000, -1.000000000000000000, 0.000000000000000000 ) ) ;
#975 = ORIENTED_EDGE ( 'NONE', *, *, #90, .F. ) ;
#976 = VECTOR ( 'NONE', #421, 1000.000000000000000 ) ;
#977 = VECTOR ( 'NONE', #903, 1000.000000000000000 ) ;
#978 = CARTESIAN_POINT ( 'NONE',  ( -9.000000000000000000, 21.39999999999999858, 1.300000000000000044 ) ) ;
#979 = EDGE_CURVE ( 'NONE', #934, #148, #755, .T. ) ;
#980 = ORIENTED_EDGE ( 'NONE', *, *, #271, .T. ) ;
#981 = CYLINDRICAL_SURFACE ( 'NONE', #574, 1.600000000000000755 ) ;
#982 = ORIENTED_EDGE ( 'NONE', *, *, #334, .F. ) ;
#983 = LOCAL_TIME ( 22, 20, 48.00000000000000000, #864 ) ;
#984 = EDGE_CURVE ( 'NONE', #578, #815, #73, .T. ) ;
#985 = CARTESIAN_POINT ( 'NONE',  ( -9.000000000000000000, 33.00000000000000000, 0.000000000000000000 ) ) ;
#986 = DIRECTION ( 'NONE',  ( 0.000000000000000000, -0.000000000000000000, -1.000000000000000000 ) ) ;
#987 = VERTEX_POINT ( 'NONE', #2 ) ;
ENDSEC;
END-ISO-10303-21;
