ISO-10303-21;
HEADER;
FILE_DESCRIPTION (( 'STEP AP203' ),
    '1' );
FILE_NAME ('HW-005_SG90_stock_horn_ENVELOPE.step',
    '2026-09-08T03:29:46',
    ( '' ),
    ( '' ),
    'SwSTEP 2.0',
    'SolidWorks 2026',
    '' );
FILE_SCHEMA (( 'CONFIG_CONTROL_DESIGN' ));
ENDSEC;

DATA;
#1 = CC_DESIGN_APPROVAL ( #130, ( #353 ) ) ;
#2 = CARTESIAN_POINT ( 'NONE',  ( 1.100000000000000089, -8.000000000000000000, 2.000000000000001776 ) ) ;
#3 = DIRECTION ( 'NONE',  ( 0.000000000000000000, 0.000000000000000000, -1.000000000000000000 ) ) ;
#4 = CARTESIAN_POINT ( 'NONE',  ( 0.000000000000000000, 0.000000000000000000, 2.000000000000000000 ) ) ;
#5 = DIRECTION ( 'NONE',  ( -0.000000000000000000, -0.000000000000000000, -1.000000000000000000 ) ) ;
#6 = CARTESIAN_POINT ( 'NONE',  ( -9.099999999999999645, 0.000000000000000000, 0.000000000000000000 ) ) ;
#7 = EDGE_CURVE ( 'NONE', #233, #56, #42, .T. ) ;
#8 = CARTESIAN_POINT ( 'NONE',  ( -6.899999999999999467, 1.347111479062088750E-16, 2.000000000000001776 ) ) ;
#9 = DIRECTION ( 'NONE',  ( 0.000000000000000000, 0.000000000000000000, -1.000000000000000000 ) ) ;
#10 = ORIENTED_EDGE ( 'NONE', *, *, #456, .T. ) ;
#11 = DIRECTION ( 'NONE',  ( 0.000000000000000000, 0.000000000000000000, 1.000000000000000000 ) ) ;
#12 = DIRECTION ( 'NONE',  ( -0.000000000000000000, -0.000000000000000000, -1.000000000000000000 ) ) ;
#13 = ORIENTED_EDGE ( 'NONE', *, *, #481, .F. ) ;
#14 = CARTESIAN_POINT ( 'NONE',  ( 0.000000000000000000, 0.000000000000000000, 2.000000000000000000 ) ) ;
#15 = EDGE_CURVE ( 'NONE', #376, #362, #509, .T. ) ;
#16 = CARTESIAN_POINT ( 'NONE',  ( -2.549999999999999822, 0.000000000000000000, 0.000000000000000000 ) ) ;
#17 = AXIS2_PLACEMENT_3D ( 'NONE', #219, #49, #257 ) ;
#18 = ORIENTED_EDGE ( 'NONE', *, *, #385, .F. ) ;
#19 = DIRECTION ( 'NONE',  ( 0.000000000000000000, 0.000000000000000000, 1.000000000000000000 ) ) ;
#20 = ORIENTED_EDGE ( 'NONE', *, *, #407, .T. ) ;
#21 = PERSON_AND_ORGANIZATION ( #152, #206 ) ;
#22 = CIRCLE ( 'NONE', #470, 1.100000000000000089 ) ;
#23 = ORIENTED_EDGE ( 'NONE', *, *, #263, .F. ) ;
#24 = PERSON_AND_ORGANIZATION ( #152, #206 ) ;
#25 = AXIS2_PLACEMENT_3D ( 'NONE', #51, #310, #388 ) ;
#26 = APPROVAL_PERSON_ORGANIZATION ( #281, #130, #230 ) ;
#27 = ORIENTED_EDGE ( 'NONE', *, *, #347, .T. ) ;
#28 = FACE_OUTER_BOUND ( 'NONE', #48, .T. ) ;
#29 = EDGE_LOOP ( 'NONE', ( #288, #282 ) ) ;
#30 = FACE_BOUND ( 'NONE', #29, .T. ) ;
#31 = ORIENTED_EDGE ( 'NONE', *, *, #263, .T. ) ;
#32 = CARTESIAN_POINT ( 'NONE',  ( 0.000000000000000000, 0.000000000000000000, 2.000000000000000000 ) ) ;
#33 = LOCAL_TIME ( 22, 29, 46.00000000000000000, #524 ) ;
#34 = APPROVAL_DATE_TIME ( #457, #543 ) ;
#35 = EDGE_CURVE ( 'NONE', #362, #143, #158, .T. ) ;
#36 = CARTESIAN_POINT ( 'NONE',  ( 0.000000000000000000, 0.000000000000000000, 0.000000000000000000 ) ) ;
#37 = DIRECTION ( 'NONE',  ( 0.000000000000000000, 0.000000000000000000, 1.000000000000000000 ) ) ;
#38 = DIRECTION ( 'NONE',  ( 0.000000000000000000, 0.000000000000000000, 1.000000000000000000 ) ) ;
#39 = CARTESIAN_POINT ( 'NONE',  ( 6.899999999999999467, 0.000000000000000000, 0.000000000000000000 ) ) ;
#40 = FACE_BOUND ( 'NONE', #333, .T. ) ;
#41 = ORIENTED_EDGE ( 'NONE', *, *, #424, .F. ) ;
#42 = CIRCLE ( 'NONE', #350, 1.100000000000000089 ) ;
#43 = AXIS2_PLACEMENT_3D ( 'NONE', #337, #452, #535 ) ;
#44 = DIRECTION ( 'NONE',  ( -0.000000000000000000, -0.000000000000000000, -1.000000000000000000 ) ) ;
#45 = FACE_BOUND ( 'NONE', #199, .T. ) ;
#46 = DIRECTION ( 'NONE',  ( 0.000000000000000000, 0.000000000000000000, 1.000000000000000000 ) ) ;
#47 = EDGE_CURVE ( 'NONE', #467, #161, #68, .T. ) ;
#48 = EDGE_LOOP ( 'NONE', ( #119, #528, #479, #146 ) ) ;
#49 = DIRECTION ( 'NONE',  ( -0.000000000000000000, -0.000000000000000000, -1.000000000000000000 ) ) ;
#50 = LINE ( 'NONE', #92, #426 ) ;
#51 = CARTESIAN_POINT ( 'NONE',  ( 8.000000000000000000, 0.000000000000000000, 2.000000000000001776 ) ) ;
#52 = VECTOR ( 'NONE', #292, 1000.000000000000000 ) ;
#53 = AXIS2_PLACEMENT_3D ( 'NONE', #212, #11, #308 ) ;
#54 = EDGE_LOOP ( 'NONE', ( #313, #448 ) ) ;
#55 = FACE_OUTER_BOUND ( 'NONE', #482, .T. ) ;
#56 = VERTEX_POINT ( 'NONE', #83 ) ;
#57 = ORIENTED_EDGE ( 'NONE', *, *, #517, .T. ) ;
#58 = CALENDAR_DATE ( 2026, 7, 9 ) ;
#59 = CARTESIAN_POINT ( 'NONE',  ( -6.899999999999999467, 1.347111479062088750E-16, 0.000000000000000000 ) ) ;
#60 = VECTOR ( 'NONE', #176, 1000.000000000000000 ) ;
#61 = AXIS2_PLACEMENT_3D ( 'NONE', #516, #175, #386 ) ;
#62 = EDGE_LOOP ( 'NONE', ( #23, #181, #20, #101 ) ) ;
#63 = DATE_AND_TIME ( #58, #368 ) ;
#64 = EDGE_CURVE ( 'NONE', #172, #108, #22, .T. ) ;
#65 = EDGE_LOOP ( 'NONE', ( #188, #232 ) ) ;
#66 = CALENDAR_DATE ( 2026, 7, 9 ) ;
#67 = ORIENTED_EDGE ( 'NONE', *, *, #277, .T. ) ;
#68 = CIRCLE ( 'NONE', #435, 1.100000000000000311 ) ;
#69 = ORIENTED_EDGE ( 'NONE', *, *, #481, .T. ) ;
#70 = CIRCLE ( 'NONE', #142, 10.00000000000000000 ) ;
#71 = DIRECTION ( 'NONE',  ( 0.000000000000000000, 0.000000000000000000, -1.000000000000000000 ) ) ;
#72 = EDGE_CURVE ( 'NONE', #229, #159, #391, .T. ) ;
#73 = ORIENTED_EDGE ( 'NONE', *, *, #424, .T. ) ;
#74 = DIRECTION ( 'NONE',  ( -1.000000000000000000, 0.000000000000000000, 0.000000000000000000 ) ) ;
#75 = VERTEX_POINT ( 'NONE', #384 ) ;
#76 = PRODUCT_DEFINITION ( 'UNKNOWN', '', #353, #164 ) ;
#77 = PERSON_AND_ORGANIZATION_ROLE ( 'classification_officer' ) ;
#78 = FACE_OUTER_BOUND ( 'NONE', #440, .T. ) ;
#79 = CIRCLE ( 'NONE', #513, 1.100000000000000311 ) ;
#80 = AXIS2_PLACEMENT_3D ( 'NONE', #545, #341, #518 ) ;
#81 = LINE ( 'NONE', #507, #96 ) ;
#82 = PLANE ( 'NONE',  #126 ) ;
#83 = CARTESIAN_POINT ( 'NONE',  ( -1.100000000000000089, -8.000000000000000000, 0.000000000000000000 ) ) ;
#84 = CARTESIAN_POINT ( 'NONE',  ( 8.000000000000000000, 0.000000000000000000, 2.000000000000001776 ) ) ;
#85 = DIRECTION ( 'NONE',  ( 0.000000000000000000, 0.000000000000000000, -1.000000000000000000 ) ) ;
#86 = FACE_OUTER_BOUND ( 'NONE', #301, .T. ) ;
#87 = ORIENTED_EDGE ( 'NONE', *, *, #450, .F. ) ;
#88 = EDGE_CURVE ( 'NONE', #446, #536, #150, .T. ) ;
#89 = AXIS2_PLACEMENT_3D ( 'NONE', #462, #71, #296 ) ;
#90 = CARTESIAN_POINT ( 'NONE',  ( 0.000000000000000000, 0.000000000000000000, 2.000000000000000000 ) ) ;
#91 = CYLINDRICAL_SURFACE ( 'NONE', #213, 1.100000000000000089 ) ;
#92 = CARTESIAN_POINT ( 'NONE',  ( -1.100000000000000089, 8.000000000000000000, 2.000000000000001776 ) ) ;
#93 = CYLINDRICAL_SURFACE ( 'NONE', #340, 1.100000000000000311 ) ;
#94 = CC_DESIGN_PERSON_AND_ORGANIZATION_ASSIGNMENT ( #21, #77, ( #276 ) ) ;
#95 = DIRECTION ( 'NONE',  ( 0.000000000000000000, 0.000000000000000000, -1.000000000000000000 ) ) ;
#96 = VECTOR ( 'NONE', #419, 1000.000000000000000 ) ;
#97 = DIRECTION ( 'NONE',  ( 1.000000000000000000, 0.000000000000000000, 0.000000000000000000 ) ) ;
#98 = CIRCLE ( 'NONE', #523, 1.100000000000000089 ) ;
#99 = LOCAL_TIME ( 22, 29, 46.00000000000000000, #449 ) ;
#100 =( LENGTH_UNIT ( ) NAMED_UNIT ( * ) SI_UNIT ( .MILLI., .METRE. ) );
#101 = ORIENTED_EDGE ( 'NONE', *, *, #456, .F. ) ;
#102 = PERSON_AND_ORGANIZATION_ROLE ( 'creator' ) ;
#103 = DIRECTION ( 'NONE',  ( -1.000000000000000000, 0.000000000000000000, 0.000000000000000000 ) ) ;
#104 = DIRECTION ( 'NONE',  ( 0.000000000000000000, 0.000000000000000000, 1.000000000000000000 ) ) ;
#105 = APPLICATION_CONTEXT ( 'configuration controlled 3d designs of mechanical parts and assemblies' ) ;
#106 = EDGE_CURVE ( 'NONE', #423, #493, #431, .T. ) ;
#107 = CIRCLE ( 'NONE', #231, 2.549999999999999822 ) ;
#108 = VERTEX_POINT ( 'NONE', #421 ) ;
#109 = CARTESIAN_POINT ( 'NONE',  ( 1.100000000000000089, -8.000000000000000000, 2.000000000000001776 ) ) ;
#110 = VERTEX_POINT ( 'NONE', #512 ) ;
#111 = APPROVAL_ROLE ( '' ) ;
#112 = ORIENTED_EDGE ( 'NONE', *, *, #35, .T. ) ;
#113 = EDGE_CURVE ( 'NONE', #446, #241, #123, .T. ) ;
#114 = CARTESIAN_POINT ( 'NONE',  ( -1.100000000000000089, 8.000000000000000000, 2.000000000000001776 ) ) ;
#115 = LINE ( 'NONE', #283, #491 ) ;
#116 = AXIS2_PLACEMENT_3D ( 'NONE', #220, #389, #461 ) ;
#117 = EDGE_LOOP ( 'NONE', ( #27, #236 ) ) ;
#118 = CIRCLE ( 'NONE', #169, 1.100000000000000311 ) ;
#119 = ORIENTED_EDGE ( 'NONE', *, *, #106, .F. ) ;
#120 = DATE_TIME_ROLE ( 'classification_date' ) ;
#121 = DIRECTION ( 'NONE',  ( -1.000000000000000000, 0.000000000000000000, 0.000000000000000000 ) ) ;
#122 = EDGE_CURVE ( 'NONE', #108, #172, #539, .T. ) ;
#123 = LINE ( 'NONE', #129, #52 ) ;
#124 = COORDINATED_UNIVERSAL_TIME_OFFSET ( 6, 0, .BEHIND. ) ;
#125 = DIRECTION ( 'NONE',  ( 1.000000000000000000, 0.000000000000000000, 0.000000000000000000 ) ) ;
#126 = AXIS2_PLACEMENT_3D ( 'NONE', #290, #38, #420 ) ;
#127 = CYLINDRICAL_SURFACE ( 'NONE', #185, 1.100000000000000311 ) ;
#128 = CARTESIAN_POINT ( 'NONE',  ( 0.000000000000000000, -8.000000000000000000, 0.000000000000000000 ) ) ;
#129 = CARTESIAN_POINT ( 'NONE',  ( -2.549999999999999822, 0.000000000000000000, 2.000000000000000000 ) ) ;
#130 = APPROVAL ( #357, 'UNSPECIFIED' ) ;
#131 = DIRECTION ( 'NONE',  ( -0.000000000000000000, -0.000000000000000000, -1.000000000000000000 ) ) ;
#132 = CARTESIAN_POINT ( 'NONE',  ( 0.000000000000000000, -8.000000000000000000, 2.000000000000001776 ) ) ;
#133 = ORIENTED_EDGE ( 'NONE', *, *, #7, .T. ) ;
#134 = LINE ( 'NONE', #225, #267 ) ;
#135 = AXIS2_PLACEMENT_3D ( 'NONE', #228, #285, #74 ) ;
#136 = CARTESIAN_POINT ( 'NONE',  ( 8.000000000000000000, 0.000000000000000000, 0.000000000000000000 ) ) ;
#137 = DIRECTION ( 'NONE',  ( 0.000000000000000000, 0.000000000000000000, -1.000000000000000000 ) ) ;
#138 = EDGE_CURVE ( 'NONE', #159, #229, #79, .T. ) ;
#139 = CYLINDRICAL_SURFACE ( 'NONE', #445, 1.100000000000000311 ) ;
#140 = ORIENTED_EDGE ( 'NONE', *, *, #235, .F. ) ;
#141 = APPROVAL_DATE_TIME ( #396, #130 ) ;
#142 = AXIS2_PLACEMENT_3D ( 'NONE', #254, #300, #466 ) ;
#143 = VERTEX_POINT ( 'NONE', #39 ) ;
#144 = APPROVAL_PERSON_ORGANIZATION ( #334, #543, #534 ) ;
#145 = MECHANICAL_CONTEXT ( 'NONE', #105, 'mechanical' ) ;
#146 = ORIENTED_EDGE ( 'NONE', *, *, #450, .T. ) ;
#147 = CARTESIAN_POINT ( 'NONE',  ( -8.000000000000000000, 0.000000000000000000, 2.000000000000001776 ) ) ;
#148 = ADVANCED_FACE ( 'NONE', ( #380 ), #387, .F. ) ;
#149 = EDGE_LOOP ( 'NONE', ( #322, #510, #73, #532 ) ) ;
#150 = CIRCLE ( 'NONE', #406, 2.549999999999999822 ) ;
#151 = ORIENTED_EDGE ( 'NONE', *, *, #522, .F. ) ;
#152 = PERSON ( 'UNSPECIFIED', 'UNSPECIFIED', 'UNSPECIFIED', ('UNSPECIFIED'), ('UNSPECIFIED'), ('UNSPECIFIED') ) ;
#153 = DIRECTION ( 'NONE',  ( 0.000000000000000000, 0.000000000000000000, -1.000000000000000000 ) ) ;
#154 = CC_DESIGN_DATE_AND_TIME_ASSIGNMENT ( #499, #120, ( #276 ) ) ;
#155 = EDGE_LOOP ( 'NONE', ( #217, #451, #383, #174 ) ) ;
#156 = ORIENTED_EDGE ( 'NONE', *, *, #442, .F. ) ;
#157 = CARTESIAN_POINT ( 'NONE',  ( 0.000000000000000000, 0.000000000000000000, 0.000000000000000000 ) ) ;
#158 = CIRCLE ( 'NONE', #434, 1.100000000000000311 ) ;
#159 = VERTEX_POINT ( 'NONE', #6 ) ;
#160 = LINE ( 'NONE', #335, #427 ) ;
#161 = VERTEX_POINT ( 'NONE', #262 ) ;
#162 = FACE_OUTER_BOUND ( 'NONE', #318, .T. ) ;
#163 = EDGE_CURVE ( 'NONE', #273, #271, #50, .T. ) ;
#164 = DESIGN_CONTEXT ( 'detailed design', #186, 'design' ) ;
#165 = CYLINDRICAL_SURFACE ( 'NONE', #223, 1.100000000000000089 ) ;
#166 = DIRECTION ( 'NONE',  ( -0.000000000000000000, -0.000000000000000000, -1.000000000000000000 ) ) ;
#167 = AXIS2_PLACEMENT_3D ( 'NONE', #465, #166, #339 ) ;
#168 = DIRECTION ( 'NONE',  ( 0.000000000000000000, 0.000000000000000000, -1.000000000000000000 ) ) ;
#169 = AXIS2_PLACEMENT_3D ( 'NONE', #410, #242, #208 ) ;
#170 = CARTESIAN_POINT ( 'NONE',  ( 8.000000000000000000, 0.000000000000000000, 2.000000000000001776 ) ) ;
#171 = CARTESIAN_POINT ( 'NONE',  ( 1.100000000000000089, 8.000000000000000000, 2.000000000000001776 ) ) ;
#172 = VERTEX_POINT ( 'NONE', #2 ) ;
#173 = CARTESIAN_POINT ( 'NONE',  ( 9.099999999999999645, 1.347111479062088750E-16, 2.000000000000001776 ) ) ;
#174 = ORIENTED_EDGE ( 'NONE', *, *, #269, .F. ) ;
#175 = DIRECTION ( 'NONE',  ( -0.000000000000000000, -0.000000000000000000, -1.000000000000000000 ) ) ;
#176 = DIRECTION ( 'NONE',  ( 0.000000000000000000, 0.000000000000000000, -1.000000000000000000 ) ) ;
#177 = LINE ( 'NONE', #428, #437 ) ;
#178 = EDGE_CURVE ( 'NONE', #273, #423, #246, .T. ) ;
#179 = CARTESIAN_POINT ( 'NONE',  ( -8.000000000000000000, 0.000000000000000000, 0.000000000000000000 ) ) ;
#180 = DIRECTION ( 'NONE',  ( -1.000000000000000000, 0.000000000000000000, 0.000000000000000000 ) ) ;
#181 = ORIENTED_EDGE ( 'NONE', *, *, #221, .T. ) ;
#182 = CARTESIAN_POINT ( 'NONE',  ( 8.000000000000000000, 0.000000000000000000, 0.000000000000000000 ) ) ;
#183 = ORIENTED_EDGE ( 'NONE', *, *, #178, .F. ) ;
#184 = APPLICATION_PROTOCOL_DEFINITION ( 'international standard', 'config_control_design', 1994, #105 ) ;
#185 = AXIS2_PLACEMENT_3D ( 'NONE', #170, #85, #103 ) ;
#186 = APPLICATION_CONTEXT ( 'configuration controlled 3d designs of mechanical parts and assemblies' ) ;
#187 = EDGE_CURVE ( 'NONE', #536, #110, #81, .T. ) ;
#188 = ORIENTED_EDGE ( 'NONE', *, *, #537, .F. ) ;
#189 = PERSON_AND_ORGANIZATION_ROLE ( 'creator' ) ;
#190 = ORIENTED_EDGE ( 'NONE', *, *, #64, .F. ) ;
#191 = CARTESIAN_POINT ( 'NONE',  ( 2.549999999999999822, 3.122849337825750419E-16, 2.000000000000000000 ) ) ;
#192 = EDGE_LOOP ( 'NONE', ( #497, #67, #402, #372 ) ) ;
#193 = LINE ( 'NONE', #483, #275 ) ;
#194 = CC_DESIGN_PERSON_AND_ORGANIZATION_ASSIGNMENT ( #321, #363, ( #353 ) ) ;
#195 = AXIS2_PLACEMENT_3D ( 'NONE', #90, #250, #260 ) ;
#196 = CIRCLE ( 'NONE', #17, 1.100000000000000089 ) ;
#197 = EDGE_LOOP ( 'NONE', ( #414, #329, #443, #41 ) ) ;
#198 = ADVANCED_FACE ( 'NONE', ( #209 ), #379, .T. ) ;
#199 = EDGE_LOOP ( 'NONE', ( #183, #140 ) ) ;
#200 = CARTESIAN_POINT ( 'NONE',  ( 9.099999999999999645, 1.347111479062088750E-16, 0.000000000000000000 ) ) ;
#201 = EDGE_LOOP ( 'NONE', ( #224, #525, #112, #151 ) ) ;
#202 = COORDINATED_UNIVERSAL_TIME_OFFSET ( 6, 0, .BEHIND. ) ;
#203 = CARTESIAN_POINT ( 'NONE',  ( -1.100000000000000089, 8.000000000000000000, 0.000000000000000000 ) ) ;
#204 = EDGE_LOOP ( 'NONE', ( #87, #156 ) ) ;
#205 = ADVANCED_FACE ( 'NONE', ( #503 ), #127, .F. ) ;
#206 = ORGANIZATION ( 'UNSPECIFIED', 'UNSPECIFIED', '' ) ;
#207 = CARTESIAN_POINT ( 'NONE',  ( 10.00000000000000000, 1.224646799147353256E-15, 2.000000000000000000 ) ) ;
#208 = DIRECTION ( 'NONE',  ( 1.000000000000000000, 0.000000000000000000, 0.000000000000000000 ) ) ;
#209 = FACE_OUTER_BOUND ( 'NONE', #62, .T. ) ;
#210 = CARTESIAN_POINT ( 'NONE',  ( 9.099999999999999645, 1.347111479062088750E-16, 2.000000000000001776 ) ) ;
#211 = DIRECTION ( 'NONE',  ( 1.000000000000000000, 0.000000000000000000, 0.000000000000000000 ) ) ;
#212 = CARTESIAN_POINT ( 'NONE',  ( 0.000000000000000000, 0.000000000000000000, 2.000000000000000000 ) ) ;
#213 = AXIS2_PLACEMENT_3D ( 'NONE', #261, #137, #430 ) ;
#214 = DIRECTION ( 'NONE',  ( 1.000000000000000000, 0.000000000000000000, 0.000000000000000000 ) ) ;
#215 = PLANE ( 'NONE',  #53 ) ;
#216 = DIRECTION ( 'NONE',  ( 1.000000000000000000, 0.000000000000000000, 0.000000000000000000 ) ) ;
#217 = ORIENTED_EDGE ( 'NONE', *, *, #187, .F. ) ;
#218 = PRODUCT ( 'HW-005_SG90_stock_horn_ENVELOPE', 'HW-005_SG90_stock_horn_ENVELOPE', '', ( #145 ) ) ;
#219 = CARTESIAN_POINT ( 'NONE',  ( 0.000000000000000000, 8.000000000000000000, 0.000000000000000000 ) ) ;
#220 = CARTESIAN_POINT ( 'NONE',  ( 0.000000000000000000, 8.000000000000000000, 2.000000000000001776 ) ) ;
#221 = EDGE_CURVE ( 'NONE', #328, #326, #115, .T. ) ;
#222 = FACE_BOUND ( 'NONE', #65, .T. ) ;
#223 = AXIS2_PLACEMENT_3D ( 'NONE', #498, #239, #121 ) ;
#224 = ORIENTED_EDGE ( 'NONE', *, *, #417, .T. ) ;
#225 = CARTESIAN_POINT ( 'NONE',  ( -10.00000000000000000, 0.000000000000000000, 2.000000000000000000 ) ) ;
#226 = CARTESIAN_POINT ( 'NONE',  ( 0.000000000000000000, 0.000000000000000000, 0.000000000000000000 ) ) ;
#227 = PRODUCT_RELATED_PRODUCT_CATEGORY ( 'detail', '', ( #218 ) ) ;
#228 = CARTESIAN_POINT ( 'NONE',  ( -8.000000000000000000, 0.000000000000000000, 2.000000000000001776 ) ) ;
#229 = VERTEX_POINT ( 'NONE', #59 ) ;
#230 = APPROVAL_ROLE ( '' ) ;
#231 = AXIS2_PLACEMENT_3D ( 'NONE', #36, #245, #415 ) ;
#232 = ORIENTED_EDGE ( 'NONE', *, *, #47, .F. ) ;
#233 = VERTEX_POINT ( 'NONE', #319 ) ;
#234 = PERSON_AND_ORGANIZATION ( #152, #206 ) ;
#235 = EDGE_CURVE ( 'NONE', #423, #273, #315, .T. ) ;
#236 = ORIENTED_EDGE ( 'NONE', *, *, #269, .T. ) ;
#237 = AXIS2_PLACEMENT_3D ( 'NONE', #253, #302, #216 ) ;
#238 = EDGE_LOOP ( 'NONE', ( #342, #486, #369, #514 ) ) ;
#239 = DIRECTION ( 'NONE',  ( 0.000000000000000000, 0.000000000000000000, -1.000000000000000000 ) ) ;
#240 = CARTESIAN_POINT ( 'NONE',  ( 0.000000000000000000, 8.000000000000000000, 2.000000000000001776 ) ) ;
#241 = VERTEX_POINT ( 'NONE', #16 ) ;
#242 = DIRECTION ( 'NONE',  ( 0.000000000000000000, 0.000000000000000000, 1.000000000000000000 ) ) ;
#243 = ADVANCED_FACE ( 'NONE', ( #316 ), #309, .F. ) ;
#244 = ORIENTED_EDGE ( 'NONE', *, *, #88, .T. ) ;
#245 = DIRECTION ( 'NONE',  ( 0.000000000000000000, 0.000000000000000000, 1.000000000000000000 ) ) ;
#246 = CIRCLE ( 'NONE', #116, 1.100000000000000089 ) ;
#247 = CIRCLE ( 'NONE', #80, 10.00000000000000000 ) ;
#248 = LOCAL_TIME ( 22, 29, 46.00000000000000000, #202 ) ;
#249 = FACE_BOUND ( 'NONE', #117, .T. ) ;
#250 = DIRECTION ( 'NONE',  ( -0.000000000000000000, -0.000000000000000000, -1.000000000000000000 ) ) ;
#251 = ADVANCED_FACE ( 'NONE', ( #521 ), #270, .F. ) ;
#252 = CARTESIAN_POINT ( 'NONE',  ( -10.00000000000000000, 0.000000000000000000, 2.000000000000000000 ) ) ;
#253 = CARTESIAN_POINT ( 'NONE',  ( 0.000000000000000000, -8.000000000000000000, 2.000000000000001776 ) ) ;
#254 = CARTESIAN_POINT ( 'NONE',  ( 0.000000000000000000, 0.000000000000000000, 0.000000000000000000 ) ) ;
#255 = DIRECTION ( 'NONE',  ( 1.000000000000000000, 0.000000000000000000, 0.000000000000000000 ) ) ;
#256 = AXIS2_PLACEMENT_3D ( 'NONE', #240, #356, #97 ) ;
#257 = DIRECTION ( 'NONE',  ( 1.000000000000000000, 0.000000000000000000, 0.000000000000000000 ) ) ;
#258 = CIRCLE ( 'NONE', #416, 2.549999999999999822 ) ;
#259 = CC_DESIGN_APPROVAL ( #543, ( #276 ) ) ;
#260 = DIRECTION ( 'NONE',  ( -1.000000000000000000, 0.000000000000000000, 0.000000000000000000 ) ) ;
#261 = CARTESIAN_POINT ( 'NONE',  ( 0.000000000000000000, -8.000000000000000000, 2.000000000000001776 ) ) ;
#262 = CARTESIAN_POINT ( 'NONE',  ( -9.099999999999999645, 0.000000000000000000, 2.000000000000001776 ) ) ;
#263 = EDGE_CURVE ( 'NONE', #328, #311, #502, .T. ) ;
#264 = DIRECTION ( 'NONE',  ( 0.000000000000000000, 0.000000000000000000, -1.000000000000000000 ) ) ;
#265 = DIRECTION ( 'NONE',  ( -1.000000000000000000, 0.000000000000000000, 0.000000000000000000 ) ) ;
#266 = CIRCLE ( 'NONE', #367, 2.549999999999999822 ) ;
#267 = VECTOR ( 'NONE', #5, 1000.000000000000000 ) ;
#268 = DIRECTION ( 'NONE',  ( -1.000000000000000000, 0.000000000000000000, 0.000000000000000000 ) ) ;
#269 = EDGE_CURVE ( 'NONE', #110, #241, #107, .T. ) ;
#270 = CYLINDRICAL_SURFACE ( 'NONE', #135, 1.100000000000000311 ) ;
#271 = VERTEX_POINT ( 'NONE', #203 ) ;
#272 = COORDINATED_UNIVERSAL_TIME_OFFSET ( 6, 0, .BEHIND. ) ;
#273 = VERTEX_POINT ( 'NONE', #114 ) ;
#274 = DIRECTION ( 'NONE',  ( 0.000000000000000000, 0.000000000000000000, -1.000000000000000000 ) ) ;
#275 = VECTOR ( 'NONE', #153, 1000.000000000000000 ) ;
#276 = SECURITY_CLASSIFICATION ( '', '', #403 ) ;
#277 = EDGE_CURVE ( 'NONE', #376, #75, #118, .T. ) ;
#278 = ORIENTED_EDGE ( 'NONE', *, *, #364, .F. ) ;
#279 = DIRECTION ( 'NONE',  ( 1.000000000000000000, 0.000000000000000000, 0.000000000000000000 ) ) ;
#280 = ORIENTED_EDGE ( 'NONE', *, *, #187, .T. ) ;
#281 = PERSON_AND_ORGANIZATION ( #152, #206 ) ;
#282 = ORIENTED_EDGE ( 'NONE', *, *, #7, .F. ) ;
#283 = CARTESIAN_POINT ( 'NONE',  ( 10.00000000000000000, 1.224646799147353256E-15, 2.000000000000000000 ) ) ;
#284 = ORIENTED_EDGE ( 'NONE', *, *, #113, .F. ) ;
#285 = DIRECTION ( 'NONE',  ( 0.000000000000000000, 0.000000000000000000, -1.000000000000000000 ) ) ;
#286 = ADVANCED_FACE ( 'NONE', ( #162 ), #374, .T. ) ;
#287 = EDGE_CURVE ( 'NONE', #536, #446, #258, .T. ) ;
#288 = ORIENTED_EDGE ( 'NONE', *, *, #517, .F. ) ;
#289 = UNCERTAINTY_MEASURE_WITH_UNIT (LENGTH_MEASURE( 1.000000000000000082E-05 ), #100, 'distance_accuracy_value', 'NONE');
#290 = CARTESIAN_POINT ( 'NONE',  ( 0.000000000000000000, 0.000000000000000000, 0.000000000000000000 ) ) ;
#291 = APPROVAL_STATUS ( 'not_yet_approved' ) ;
#292 = DIRECTION ( 'NONE',  ( -0.000000000000000000, -0.000000000000000000, -1.000000000000000000 ) ) ;
#293 = PRODUCT_DEFINITION_SHAPE ( 'NONE', 'NONE',  #76 ) ;
#294 = CC_DESIGN_PERSON_AND_ORGANIZATION_ASSIGNMENT ( #234, #189, ( #353 ) ) ;
#295 = CIRCLE ( 'NONE', #25, 1.100000000000000311 ) ;
#296 = DIRECTION ( 'NONE',  ( -1.000000000000000000, 0.000000000000000000, 0.000000000000000000 ) ) ;
#297 = DIRECTION ( 'NONE',  ( 1.000000000000000000, 0.000000000000000000, 0.000000000000000000 ) ) ;
#298 = DIRECTION ( 'NONE',  ( -0.000000000000000000, -0.000000000000000000, -1.000000000000000000 ) ) ;
#299 = CARTESIAN_POINT ( 'NONE',  ( 0.000000000000000000, -8.000000000000000000, 0.000000000000000000 ) ) ;
#300 = DIRECTION ( 'NONE',  ( 0.000000000000000000, 0.000000000000000000, 1.000000000000000000 ) ) ;
#301 = EDGE_LOOP ( 'NONE', ( #69, #31 ) ) ;
#302 = DIRECTION ( 'NONE',  ( 0.000000000000000000, 0.000000000000000000, 1.000000000000000000 ) ) ;
#303 = ORIENTED_EDGE ( 'NONE', *, *, #527, .T. ) ;
#304 = DIRECTION ( 'NONE',  ( 1.000000000000000000, 0.000000000000000000, 0.000000000000000000 ) ) ;
#305 = CIRCLE ( 'NONE', #61, 1.100000000000000089 ) ;
#306 = ADVANCED_FACE ( 'NONE', ( #371 ), #378, .F. ) ;
#307 = DIRECTION ( 'NONE',  ( -0.000000000000000000, -0.000000000000000000, -1.000000000000000000 ) ) ;
#308 = DIRECTION ( 'NONE',  ( 1.000000000000000000, 0.000000000000000000, -0.000000000000000000 ) ) ;
#309 = CYLINDRICAL_SURFACE ( 'NONE', #531, 1.100000000000000089 ) ;
#310 = DIRECTION ( 'NONE',  ( 0.000000000000000000, 0.000000000000000000, 1.000000000000000000 ) ) ;
#311 = VERTEX_POINT ( 'NONE', #252 ) ;
#312 = CC_DESIGN_PERSON_AND_ORGANIZATION_ASSIGNMENT ( #323, #366, ( #218 ) ) ;
#313 = ORIENTED_EDGE ( 'NONE', *, *, #88, .F. ) ;
#314 = DATE_AND_TIME ( #447, #33 ) ;
#315 = CIRCLE ( 'NONE', #256, 1.100000000000000089 ) ;
#316 = FACE_OUTER_BOUND ( 'NONE', #238, .T. ) ;
#317 = ORIENTED_EDGE ( 'NONE', *, *, #407, .F. ) ;
#318 = EDGE_LOOP ( 'NONE', ( #395, #13, #10, #345 ) ) ;
#319 = CARTESIAN_POINT ( 'NONE',  ( 1.100000000000000089, -8.000000000000000000, 0.000000000000000000 ) ) ;
#320 = ORIENTED_EDGE ( 'NONE', *, *, #122, .T. ) ;
#321 = PERSON_AND_ORGANIZATION ( #152, #206 ) ;
#322 = ORIENTED_EDGE ( 'NONE', *, *, #468, .F. ) ;
#323 = PERSON_AND_ORGANIZATION ( #152, #206 ) ;
#324 = ADVANCED_FACE ( 'NONE', ( #28 ), #165, .F. ) ;
#325 = AXIS2_PLACEMENT_3D ( 'NONE', #147, #19, #279 ) ;
#326 = VERTEX_POINT ( 'NONE', #458 ) ;
#327 =( NAMED_UNIT ( * ) SI_UNIT ( $, .STERADIAN. ) SOLID_ANGLE_UNIT ( ) );
#328 = VERTEX_POINT ( 'NONE', #207 ) ;
#329 = ORIENTED_EDGE ( 'NONE', *, *, #468, .T. ) ;
#330 = CC_DESIGN_DATE_AND_TIME_ASSIGNMENT ( #63, #478, ( #76 ) ) ;
#331 = FACE_BOUND ( 'NONE', #365, .T. ) ;
#332 = AXIS2_PLACEMENT_3D ( 'NONE', #542, #538, #490 ) ;
#333 = EDGE_LOOP ( 'NONE', ( #400, #404 ) ) ;
#334 = PERSON_AND_ORGANIZATION ( #152, #206 ) ;
#335 = CARTESIAN_POINT ( 'NONE',  ( -1.100000000000000089, -8.000000000000000000, 2.000000000000001776 ) ) ;
#336 = EDGE_LOOP ( 'NONE', ( #409, #370, #390, #57 ) ) ;
#337 = CARTESIAN_POINT ( 'NONE',  ( 0.000000000000000000, 0.000000000000000000, 2.000000000000000000 ) ) ;
#338 = APPROVAL ( #441, 'UNSPECIFIED' ) ;
#339 = DIRECTION ( 'NONE',  ( -1.000000000000000000, 0.000000000000000000, 0.000000000000000000 ) ) ;
#340 = AXIS2_PLACEMENT_3D ( 'NONE', #464, #264, #180 ) ;
#341 = DIRECTION ( 'NONE',  ( 0.000000000000000000, 0.000000000000000000, 1.000000000000000000 ) ) ;
#342 = ORIENTED_EDGE ( 'NONE', *, *, #178, .T. ) ;
#343 = DIRECTION ( 'NONE',  ( -0.000000000000000000, -0.000000000000000000, -1.000000000000000000 ) ) ;
#344 = CARTESIAN_POINT ( 'NONE',  ( -2.549999999999999822, 0.000000000000000000, 2.000000000000000000 ) ) ;
#345 = ORIENTED_EDGE ( 'NONE', *, *, #385, .T. ) ;
#346 = CARTESIAN_POINT ( 'NONE',  ( -8.000000000000000000, 0.000000000000000000, 0.000000000000000000 ) ) ;
#347 = EDGE_CURVE ( 'NONE', #241, #110, #266, .T. ) ;
#348 = LINE ( 'NONE', #8, #477 ) ;
#349 = DIRECTION ( 'NONE',  ( 1.000000000000000000, 0.000000000000000000, 0.000000000000000000 ) ) ;
#350 = AXIS2_PLACEMENT_3D ( 'NONE', #299, #343, #297 ) ;
#351 = FACE_BOUND ( 'NONE', #54, .T. ) ;
#352 = CC_DESIGN_APPROVAL ( #338, ( #76 ) ) ;
#353 = PRODUCT_DEFINITION_FORMATION_WITH_SPECIFIED_SOURCE ( 'ANY', '', #218, .NOT_KNOWN. ) ;
#354 = CARTESIAN_POINT ( 'NONE',  ( 1.100000000000000089, 8.000000000000000000, 2.000000000000001776 ) ) ;
#355 = FACE_OUTER_BOUND ( 'NONE', #192, .T. ) ;
#356 = DIRECTION ( 'NONE',  ( 0.000000000000000000, 0.000000000000000000, 1.000000000000000000 ) ) ;
#357 = APPROVAL_STATUS ( 'not_yet_approved' ) ;
#358 = DIRECTION ( 'NONE',  ( 0.000000000000000000, 0.000000000000000000, -1.000000000000000000 ) ) ;
#359 = ORIENTED_EDGE ( 'NONE', *, *, #35, .F. ) ;
#360 =( GEOMETRIC_REPRESENTATION_CONTEXT ( 3 ) GLOBAL_UNCERTAINTY_ASSIGNED_CONTEXT ( ( #289 ) ) GLOBAL_UNIT_ASSIGNED_CONTEXT ( ( #100, #439, #327 ) ) REPRESENTATION_CONTEXT ( 'NONE', 'WORKASPACE' ) );
#361 = CARTESIAN_POINT ( 'NONE',  ( -10.00000000000000000, 0.000000000000000000, 0.000000000000000000 ) ) ;
#362 = VERTEX_POINT ( 'NONE', #200 ) ;
#363 = PERSON_AND_ORGANIZATION_ROLE ( 'design_supplier' ) ;
#364 = EDGE_CURVE ( 'NONE', #108, #56, #160, .T. ) ;
#365 = EDGE_LOOP ( 'NONE', ( #487, #541 ) ) ;
#366 = PERSON_AND_ORGANIZATION_ROLE ( 'design_owner' ) ;
#367 = AXIS2_PLACEMENT_3D ( 'NONE', #157, #377, #125 ) ;
#368 = LOCAL_TIME ( 22, 29, 46.00000000000000000, #272 ) ;
#369 = ORIENTED_EDGE ( 'NONE', *, *, #442, .T. ) ;
#370 = ORIENTED_EDGE ( 'NONE', *, *, #64, .T. ) ;
#371 = FACE_OUTER_BOUND ( 'NONE', #336, .T. ) ;
#372 = ORIENTED_EDGE ( 'NONE', *, *, #485, .T. ) ;
#373 = ADVANCED_FACE ( 'NONE', ( #331, #418, #30, #495, #78, #249 ), #82, .F. ) ;
#374 = CYLINDRICAL_SURFACE ( 'NONE', #43, 10.00000000000000000 ) ;
#375 = MANIFOLD_SOLID_BREP ( 'Nominal_horn_attachment_holes', #397 ) ;
#376 = VERTEX_POINT ( 'NONE', #210 ) ;
#377 = DIRECTION ( 'NONE',  ( 0.000000000000000000, 0.000000000000000000, 1.000000000000000000 ) ) ;
#378 = CYLINDRICAL_SURFACE ( 'NONE', #89, 1.100000000000000089 ) ;
#379 = CYLINDRICAL_SURFACE ( 'NONE', #167, 10.00000000000000000 ) ;
#380 = FACE_OUTER_BOUND ( 'NONE', #455, .T. ) ;
#381 = CIRCLE ( 'NONE', #453, 1.100000000000000311 ) ;
#382 = CYLINDRICAL_SURFACE ( 'NONE', #540, 2.549999999999999822 ) ;
#383 = ORIENTED_EDGE ( 'NONE', *, *, #113, .T. ) ;
#384 = CARTESIAN_POINT ( 'NONE',  ( 6.899999999999999467, 0.000000000000000000, 2.000000000000001776 ) ) ;
#385 = EDGE_CURVE ( 'NONE', #519, #326, #247, .T. ) ;
#386 = DIRECTION ( 'NONE',  ( 1.000000000000000000, 0.000000000000000000, 0.000000000000000000 ) ) ;
#387 = CYLINDRICAL_SURFACE ( 'NONE', #195, 2.549999999999999822 ) ;
#388 = DIRECTION ( 'NONE',  ( 1.000000000000000000, 0.000000000000000000, 0.000000000000000000 ) ) ;
#389 = DIRECTION ( 'NONE',  ( 0.000000000000000000, 0.000000000000000000, 1.000000000000000000 ) ) ;
#390 = ORIENTED_EDGE ( 'NONE', *, *, #364, .T. ) ;
#391 = CIRCLE ( 'NONE', #530, 1.100000000000000311 ) ;
#392 = CARTESIAN_POINT ( 'NONE',  ( -6.899999999999999467, 1.347111479062088750E-16, 2.000000000000001776 ) ) ;
#393 = CC_DESIGN_PERSON_AND_ORGANIZATION_ASSIGNMENT ( #24, #102, ( #76 ) ) ;
#394 = DIRECTION ( 'NONE',  ( -1.000000000000000000, 0.000000000000000000, 0.000000000000000000 ) ) ;
#395 = ORIENTED_EDGE ( 'NONE', *, *, #221, .F. ) ;
#396 = DATE_AND_TIME ( #66, #99 ) ;
#397 = CLOSED_SHELL ( 'NONE', ( #504, #205, #496, #243, #148, #198, #432, #373, #286, #399, #324, #306, #505, #251 ) ) ;
#398 = AXIS2_PLACEMENT_3D ( 'NONE', #226, #104, #405 ) ;
#399 = ADVANCED_FACE ( 'NONE', ( #508 ), #382, .F. ) ;
#400 = ORIENTED_EDGE ( 'NONE', *, *, #417, .F. ) ;
#401 = APPROVAL_DATE_TIME ( #314, #338 ) ;
#402 = ORIENTED_EDGE ( 'NONE', *, *, #522, .T. ) ;
#403 = SECURITY_CLASSIFICATION_LEVEL ( 'unclassified' ) ;
#404 = ORIENTED_EDGE ( 'NONE', *, *, #277, .F. ) ;
#405 = DIRECTION ( 'NONE',  ( 1.000000000000000000, 0.000000000000000000, 0.000000000000000000 ) ) ;
#406 = AXIS2_PLACEMENT_3D ( 'NONE', #4, #37, #544 ) ;
#407 = EDGE_CURVE ( 'NONE', #326, #519, #70, .T. ) ;
#408 = CIRCLE ( 'NONE', #325, 1.100000000000000311 ) ;
#409 = ORIENTED_EDGE ( 'NONE', *, *, #527, .F. ) ;
#410 = CARTESIAN_POINT ( 'NONE',  ( 8.000000000000000000, 0.000000000000000000, 2.000000000000001776 ) ) ;
#411 = EDGE_LOOP ( 'NONE', ( #488, #359 ) ) ;
#412 = SHAPE_DEFINITION_REPRESENTATION ( #293, #520 ) ;
#413 = DIRECTION ( 'NONE',  ( 1.000000000000000000, 0.000000000000000000, 0.000000000000000000 ) ) ;
#414 = ORIENTED_EDGE ( 'NONE', *, *, #537, .T. ) ;
#415 = DIRECTION ( 'NONE',  ( 1.000000000000000000, 0.000000000000000000, 0.000000000000000000 ) ) ;
#416 = AXIS2_PLACEMENT_3D ( 'NONE', #32, #500, #413 ) ;
#417 = EDGE_CURVE ( 'NONE', #75, #376, #295, .T. ) ;
#418 = FACE_BOUND ( 'NONE', #411, .T. ) ;
#419 = DIRECTION ( 'NONE',  ( -0.000000000000000000, -0.000000000000000000, -1.000000000000000000 ) ) ;
#420 = DIRECTION ( 'NONE',  ( 1.000000000000000000, 0.000000000000000000, -0.000000000000000000 ) ) ;
#421 = CARTESIAN_POINT ( 'NONE',  ( -1.100000000000000089, -8.000000000000000000, 2.000000000000001776 ) ) ;
#422 = DIRECTION ( 'NONE',  ( -0.000000000000000000, -0.000000000000000000, -1.000000000000000000 ) ) ;
#423 = VERTEX_POINT ( 'NONE', #171 ) ;
#424 = EDGE_CURVE ( 'NONE', #161, #159, #177, .T. ) ;
#425 = DIRECTION ( 'NONE',  ( 0.000000000000000000, 0.000000000000000000, -1.000000000000000000 ) ) ;
#426 = VECTOR ( 'NONE', #425, 1000.000000000000000 ) ;
#427 = VECTOR ( 'NONE', #168, 1000.000000000000000 ) ;
#428 = CARTESIAN_POINT ( 'NONE',  ( -9.099999999999999645, 0.000000000000000000, 2.000000000000001776 ) ) ;
#429 = CARTESIAN_POINT ( 'NONE',  ( -8.000000000000000000, 0.000000000000000000, 2.000000000000001776 ) ) ;
#430 = DIRECTION ( 'NONE',  ( -1.000000000000000000, 0.000000000000000000, 0.000000000000000000 ) ) ;
#431 = LINE ( 'NONE', #354, #459 ) ;
#432 = ADVANCED_FACE ( 'NONE', ( #222, #40, #436, #45, #86, #351 ), #215, .T. ) ;
#433 = CARTESIAN_POINT ( 'NONE',  ( 0.000000000000000000, 0.000000000000000000, 2.000000000000000000 ) ) ;
#434 = AXIS2_PLACEMENT_3D ( 'NONE', #136, #44, #349 ) ;
#435 = AXIS2_PLACEMENT_3D ( 'NONE', #429, #463, #211 ) ;
#436 = FACE_BOUND ( 'NONE', #454, .T. ) ;
#437 = VECTOR ( 'NONE', #3, 1000.000000000000000 ) ;
#438 = CC_DESIGN_SECURITY_CLASSIFICATION ( #276, ( #353 ) ) ;
#439 =( NAMED_UNIT ( * ) PLANE_ANGLE_UNIT ( ) SI_UNIT ( $, .RADIAN. ) );
#440 = EDGE_LOOP ( 'NONE', ( #18, #317 ) ) ;
#441 = APPROVAL_STATUS ( 'not_yet_approved' ) ;
#442 = EDGE_CURVE ( 'NONE', #493, #271, #305, .T. ) ;
#443 = ORIENTED_EDGE ( 'NONE', *, *, #72, .T. ) ;
#444 = APPLICATION_PROTOCOL_DEFINITION ( 'international standard', 'config_control_design', 1994, #186 ) ;
#445 = AXIS2_PLACEMENT_3D ( 'NONE', #84, #95, #394 ) ;
#446 = VERTEX_POINT ( 'NONE', #344 ) ;
#447 = CALENDAR_DATE ( 2026, 7, 9 ) ;
#448 = ORIENTED_EDGE ( 'NONE', *, *, #287, .F. ) ;
#449 = COORDINATED_UNIVERSAL_TIME_OFFSET ( 6, 0, .BEHIND. ) ;
#450 = EDGE_CURVE ( 'NONE', #271, #493, #196, .T. ) ;
#451 = ORIENTED_EDGE ( 'NONE', *, *, #287, .T. ) ;
#452 = DIRECTION ( 'NONE',  ( -0.000000000000000000, -0.000000000000000000, -1.000000000000000000 ) ) ;
#453 = AXIS2_PLACEMENT_3D ( 'NONE', #182, #422, #304 ) ;
#454 = EDGE_LOOP ( 'NONE', ( #533, #190 ) ) ;
#455 = EDGE_LOOP ( 'NONE', ( #244, #280, #484, #284 ) ) ;
#456 = EDGE_CURVE ( 'NONE', #311, #519, #134, .T. ) ;
#457 = DATE_AND_TIME ( #489, #492 ) ;
#458 = CARTESIAN_POINT ( 'NONE',  ( 10.00000000000000000, 1.224646799147353256E-15, 0.000000000000000000 ) ) ;
#459 = VECTOR ( 'NONE', #9, 1000.000000000000000 ) ;
#460 = CIRCLE ( 'NONE', #501, 10.00000000000000000 ) ;
#461 = DIRECTION ( 'NONE',  ( 1.000000000000000000, 0.000000000000000000, 0.000000000000000000 ) ) ;
#462 = CARTESIAN_POINT ( 'NONE',  ( 0.000000000000000000, -8.000000000000000000, 2.000000000000001776 ) ) ;
#463 = DIRECTION ( 'NONE',  ( 0.000000000000000000, 0.000000000000000000, 1.000000000000000000 ) ) ;
#464 = CARTESIAN_POINT ( 'NONE',  ( -8.000000000000000000, 0.000000000000000000, 2.000000000000001776 ) ) ;
#465 = CARTESIAN_POINT ( 'NONE',  ( 0.000000000000000000, 0.000000000000000000, 2.000000000000000000 ) ) ;
#466 = DIRECTION ( 'NONE',  ( 1.000000000000000000, 0.000000000000000000, 0.000000000000000000 ) ) ;
#467 = VERTEX_POINT ( 'NONE', #392 ) ;
#468 = EDGE_CURVE ( 'NONE', #467, #229, #348, .T. ) ;
#469 = DIRECTION ( 'NONE',  ( 1.000000000000000000, 0.000000000000000000, 0.000000000000000000 ) ) ;
#470 = AXIS2_PLACEMENT_3D ( 'NONE', #132, #46, #255 ) ;
#471 = VECTOR ( 'NONE', #274, 1000.000000000000000 ) ;
#472 = CARTESIAN_POINT ( 'NONE',  ( 1.100000000000000089, 8.000000000000000000, 0.000000000000000000 ) ) ;
#473 = DIRECTION ( 'NONE',  ( -0.000000000000000000, -0.000000000000000000, -1.000000000000000000 ) ) ;
#474 = DIRECTION ( 'NONE',  ( 0.000000000000000000, 0.000000000000000000, -1.000000000000000000 ) ) ;
#475 = CARTESIAN_POINT ( 'NONE',  ( 0.000000000000000000, 8.000000000000000000, 2.000000000000001776 ) ) ;
#476 = DIRECTION ( 'NONE',  ( 0.000000000000000000, 0.000000000000000000, 1.000000000000000000 ) ) ;
#477 = VECTOR ( 'NONE', #474, 1000.000000000000000 ) ;
#478 = DATE_TIME_ROLE ( 'creation_date' ) ;
#479 = ORIENTED_EDGE ( 'NONE', *, *, #163, .T. ) ;
#480 = PERSON_AND_ORGANIZATION ( #152, #206 ) ;
#481 = EDGE_CURVE ( 'NONE', #311, #328, #460, .T. ) ;
#482 = EDGE_LOOP ( 'NONE', ( #320, #303, #133, #278 ) ) ;
#483 = CARTESIAN_POINT ( 'NONE',  ( 6.899999999999999467, 0.000000000000000000, 2.000000000000001776 ) ) ;
#484 = ORIENTED_EDGE ( 'NONE', *, *, #347, .F. ) ;
#485 = EDGE_CURVE ( 'NONE', #143, #362, #381, .T. ) ;
#486 = ORIENTED_EDGE ( 'NONE', *, *, #106, .T. ) ;
#487 = ORIENTED_EDGE ( 'NONE', *, *, #138, .F. ) ;
#488 = ORIENTED_EDGE ( 'NONE', *, *, #485, .F. ) ;
#489 = CALENDAR_DATE ( 2026, 7, 9 ) ;
#490 = DIRECTION ( 'NONE',  ( 1.000000000000000000, 0.000000000000000000, 0.000000000000000000 ) ) ;
#491 = VECTOR ( 'NONE', #12, 1000.000000000000000 ) ;
#492 = LOCAL_TIME ( 22, 29, 46.00000000000000000, #124 ) ;
#493 = VERTEX_POINT ( 'NONE', #472 ) ;
#494 = CALENDAR_DATE ( 2026, 7, 9 ) ;
#495 = FACE_BOUND ( 'NONE', #204, .T. ) ;
#496 = ADVANCED_FACE ( 'NONE', ( #55 ), #91, .F. ) ;
#497 = ORIENTED_EDGE ( 'NONE', *, *, #15, .F. ) ;
#498 = CARTESIAN_POINT ( 'NONE',  ( 0.000000000000000000, 8.000000000000000000, 2.000000000000001776 ) ) ;
#499 = DATE_AND_TIME ( #494, #248 ) ;
#500 = DIRECTION ( 'NONE',  ( 0.000000000000000000, 0.000000000000000000, 1.000000000000000000 ) ) ;
#501 = AXIS2_PLACEMENT_3D ( 'NONE', #14, #476, #511 ) ;
#502 = CIRCLE ( 'NONE', #332, 10.00000000000000000 ) ;
#503 = FACE_OUTER_BOUND ( 'NONE', #201, .T. ) ;
#504 = ADVANCED_FACE ( 'NONE', ( #506 ), #93, .F. ) ;
#505 = ADVANCED_FACE ( 'NONE', ( #355 ), #139, .F. ) ;
#506 = FACE_OUTER_BOUND ( 'NONE', #197, .T. ) ;
#507 = CARTESIAN_POINT ( 'NONE',  ( 2.549999999999999822, 3.122849337825750419E-16, 2.000000000000000000 ) ) ;
#508 = FACE_OUTER_BOUND ( 'NONE', #155, .T. ) ;
#509 = LINE ( 'NONE', #173, #60 ) ;
#510 = ORIENTED_EDGE ( 'NONE', *, *, #47, .T. ) ;
#511 = DIRECTION ( 'NONE',  ( 1.000000000000000000, 0.000000000000000000, 0.000000000000000000 ) ) ;
#512 = CARTESIAN_POINT ( 'NONE',  ( 2.549999999999999822, 3.122849337825750419E-16, 0.000000000000000000 ) ) ;
#513 = AXIS2_PLACEMENT_3D ( 'NONE', #346, #307, #469 ) ;
#514 = ORIENTED_EDGE ( 'NONE', *, *, #163, .F. ) ;
#515 = APPROVAL_PERSON_ORGANIZATION ( #480, #338, #111 ) ;
#516 = CARTESIAN_POINT ( 'NONE',  ( 0.000000000000000000, 8.000000000000000000, 0.000000000000000000 ) ) ;
#517 = EDGE_CURVE ( 'NONE', #56, #233, #98, .T. ) ;
#518 = DIRECTION ( 'NONE',  ( 1.000000000000000000, 0.000000000000000000, 0.000000000000000000 ) ) ;
#519 = VERTEX_POINT ( 'NONE', #361 ) ;
#520 = ADVANCED_BREP_SHAPE_REPRESENTATION ( 'HW-005_SG90_stock_horn_ENVELOPE', ( #375, #398 ), #360 ) ;
#521 = FACE_OUTER_BOUND ( 'NONE', #149, .T. ) ;
#522 = EDGE_CURVE ( 'NONE', #75, #143, #193, .T. ) ;
#523 = AXIS2_PLACEMENT_3D ( 'NONE', #128, #298, #529 ) ;
#524 = COORDINATED_UNIVERSAL_TIME_OFFSET ( 6, 0, .BEHIND. ) ;
#525 = ORIENTED_EDGE ( 'NONE', *, *, #15, .T. ) ;
#526 = LINE ( 'NONE', #109, #471 ) ;
#527 = EDGE_CURVE ( 'NONE', #172, #233, #526, .T. ) ;
#528 = ORIENTED_EDGE ( 'NONE', *, *, #235, .T. ) ;
#529 = DIRECTION ( 'NONE',  ( 1.000000000000000000, 0.000000000000000000, 0.000000000000000000 ) ) ;
#530 = AXIS2_PLACEMENT_3D ( 'NONE', #179, #473, #214 ) ;
#531 = AXIS2_PLACEMENT_3D ( 'NONE', #475, #358, #268 ) ;
#532 = ORIENTED_EDGE ( 'NONE', *, *, #138, .T. ) ;
#533 = ORIENTED_EDGE ( 'NONE', *, *, #122, .F. ) ;
#534 = APPROVAL_ROLE ( '' ) ;
#535 = DIRECTION ( 'NONE',  ( -1.000000000000000000, 0.000000000000000000, 0.000000000000000000 ) ) ;
#536 = VERTEX_POINT ( 'NONE', #191 ) ;
#537 = EDGE_CURVE ( 'NONE', #161, #467, #408, .T. ) ;
#538 = DIRECTION ( 'NONE',  ( 0.000000000000000000, 0.000000000000000000, 1.000000000000000000 ) ) ;
#539 = CIRCLE ( 'NONE', #237, 1.100000000000000089 ) ;
#540 = AXIS2_PLACEMENT_3D ( 'NONE', #433, #131, #265 ) ;
#541 = ORIENTED_EDGE ( 'NONE', *, *, #72, .F. ) ;
#542 = CARTESIAN_POINT ( 'NONE',  ( 0.000000000000000000, 0.000000000000000000, 2.000000000000000000 ) ) ;
#543 = APPROVAL ( #291, 'UNSPECIFIED' ) ;
#544 = DIRECTION ( 'NONE',  ( 1.000000000000000000, 0.000000000000000000, 0.000000000000000000 ) ) ;
#545 = CARTESIAN_POINT ( 'NONE',  ( 0.000000000000000000, 0.000000000000000000, 0.000000000000000000 ) ) ;
ENDSEC;
END-ISO-10303-21;
