ISO-10303-21;
HEADER;
FILE_DESCRIPTION (( 'STEP AP203' ),
    '1' );
FILE_NAME ('HW-006_MG996_25T_D20_PCD14_HORN.step',
    '2026-09-08T21:46:24',
    ( '' ),
    ( '' ),
    'SwSTEP 2.0',
    'SolidWorks 2026',
    '' );
FILE_SCHEMA (( 'CONFIG_CONTROL_DESIGN' ));
ENDSEC;

DATA;
#1 = ORIENTED_EDGE ( 'NONE', *, *, #469, .F. ) ;
#2 = LINE ( 'NONE', #565, #235 ) ;
#3 = ORIENTED_EDGE ( 'NONE', *, *, #421, .T. ) ;
#4 = CARTESIAN_POINT ( 'NONE',  ( 3.049999999999999822, 3.735172737399427146E-16, 2.000000000000000000 ) ) ;
#5 = PRODUCT ( 'HW-006_MG996_25T_D20_PCD14_HORN', 'HW-006_MG996_25T_D20_PCD14_HORN', '', ( #12 ) ) ;
#6 = ORIENTED_EDGE ( 'NONE', *, *, #177, .F. ) ;
#7 = DIRECTION ( 'NONE',  ( -0.000000000000000000, -0.000000000000000000, -1.000000000000000000 ) ) ;
#8 = DATE_TIME_ROLE ( 'classification_date' ) ;
#9 = EDGE_CURVE ( 'NONE', #549, #323, #81, .T. ) ;
#10 = VERTEX_POINT ( 'NONE', #497 ) ;
#11 = LOCAL_TIME ( 16, 46, 24.00000000000000000, #579 ) ;
#12 = MECHANICAL_CONTEXT ( 'NONE', #538, 'mechanical' ) ;
#13 = CARTESIAN_POINT ( 'NONE',  ( 0.000000000000000000, 7.000000000000000000, 2.000000000000001776 ) ) ;
#14 = EDGE_LOOP ( 'NONE', ( #606, #307, #3, #303 ) ) ;
#15 = CARTESIAN_POINT ( 'NONE',  ( -1.500000000000000000, 7.000000000000000000, 2.000000000000001776 ) ) ;
#16 = ADVANCED_FACE ( 'NONE', ( #408 ), #367, .T. ) ;
#17 = CARTESIAN_POINT ( 'NONE',  ( -3.049999999999999822, 0.000000000000000000, 2.000000000000000000 ) ) ;
#18 = LOCAL_TIME ( 16, 46, 24.00000000000000000, #101 ) ;
#19 = ORIENTED_EDGE ( 'NONE', *, *, #196, .F. ) ;
#20 = EDGE_CURVE ( 'NONE', #27, #138, #613, .T. ) ;
#21 =( LENGTH_UNIT ( ) NAMED_UNIT ( * ) SI_UNIT ( .MILLI., .METRE. ) );
#22 = CARTESIAN_POINT ( 'NONE',  ( 0.000000000000000000, -7.000000000000000000, 0.000000000000000000 ) ) ;
#23 = CIRCLE ( 'NONE', #560, 3.049999999999999822 ) ;
#24 = ORIENTED_EDGE ( 'NONE', *, *, #345, .T. ) ;
#25 = ORIENTED_EDGE ( 'NONE', *, *, #570, .T. ) ;
#26 = DIRECTION ( 'NONE',  ( 0.000000000000000000, 0.000000000000000000, 1.000000000000000000 ) ) ;
#27 = VERTEX_POINT ( 'NONE', #503 ) ;
#28 = DIRECTION ( 'NONE',  ( 1.000000000000000000, 0.000000000000000000, 0.000000000000000000 ) ) ;
#29 = DIRECTION ( 'NONE',  ( -1.000000000000000000, 0.000000000000000000, 0.000000000000000000 ) ) ;
#30 = ORIENTED_EDGE ( 'NONE', *, *, #402, .T. ) ;
#31 = AXIS2_PLACEMENT_3D ( 'NONE', #74, #221, #418 ) ;
#32 = DIRECTION ( 'NONE',  ( -0.000000000000000000, -0.000000000000000000, -1.000000000000000000 ) ) ;
#33 = AXIS2_PLACEMENT_3D ( 'NONE', #22, #441, #160 ) ;
#34 = EDGE_LOOP ( 'NONE', ( #356, #604 ) ) ;
#35 = CARTESIAN_POINT ( 'NONE',  ( 0.000000000000000000, 7.000000000000000000, 2.000000000000001776 ) ) ;
#36 = VERTEX_POINT ( 'NONE', #255 ) ;
#37 = CYLINDRICAL_SURFACE ( 'NONE', #540, 1.500000000000000000 ) ;
#38 = ORIENTED_EDGE ( 'NONE', *, *, #165, .F. ) ;
#39 = CARTESIAN_POINT ( 'NONE',  ( 5.500000000000000000, 0.000000000000000000, 2.000000000000001776 ) ) ;
#40 = CIRCLE ( 'NONE', #218, 1.500000000000000444 ) ;
#41 = CARTESIAN_POINT ( 'NONE',  ( -7.000000000000000000, 0.000000000000000000, 0.000000000000000000 ) ) ;
#42 = DIRECTION ( 'NONE',  ( 1.000000000000000000, 0.000000000000000000, 0.000000000000000000 ) ) ;
#43 = DIRECTION ( 'NONE',  ( -0.000000000000000000, -0.000000000000000000, -1.000000000000000000 ) ) ;
#44 = AXIS2_PLACEMENT_3D ( 'NONE', #470, #554, #377 ) ;
#45 = ORIENTED_EDGE ( 'NONE', *, *, #368, .F. ) ;
#46 = EDGE_CURVE ( 'NONE', #353, #511, #137, .T. ) ;
#47 = AXIS2_PLACEMENT_3D ( 'NONE', #399, #153, #219 ) ;
#48 = AXIS2_PLACEMENT_3D ( 'NONE', #382, #459, #328 ) ;
#49 = LINE ( 'NONE', #234, #614 ) ;
#50 = ORIENTED_EDGE ( 'NONE', *, *, #135, .F. ) ;
#51 = CARTESIAN_POINT ( 'NONE',  ( -7.000000000000000000, 0.000000000000000000, 2.000000000000001776 ) ) ;
#52 = DIRECTION ( 'NONE',  ( 0.000000000000000000, 0.000000000000000000, -1.000000000000000000 ) ) ;
#53 = VERTEX_POINT ( 'NONE', #500 ) ;
#54 = DIRECTION ( 'NONE',  ( 1.000000000000000000, 0.000000000000000000, 0.000000000000000000 ) ) ;
#55 = DIRECTION ( 'NONE',  ( 0.000000000000000000, 0.000000000000000000, -1.000000000000000000 ) ) ;
#56 = DIRECTION ( 'NONE',  ( 1.000000000000000000, 0.000000000000000000, 0.000000000000000000 ) ) ;
#57 = CIRCLE ( 'NONE', #48, 10.00000000000000000 ) ;
#58 = COORDINATED_UNIVERSAL_TIME_OFFSET ( 6, 0, .BEHIND. ) ;
#59 = CARTESIAN_POINT ( 'NONE',  ( 5.500000000000000000, 0.000000000000000000, 2.000000000000001776 ) ) ;
#60 = SHAPE_DEFINITION_REPRESENTATION ( #443, #392 ) ;
#61 = FACE_OUTER_BOUND ( 'NONE', #423, .T. ) ;
#62 =( GEOMETRIC_REPRESENTATION_CONTEXT ( 3 ) GLOBAL_UNCERTAINTY_ASSIGNED_CONTEXT ( ( #168 ) ) GLOBAL_UNIT_ASSIGNED_CONTEXT ( ( #21, #532, #249 ) ) REPRESENTATION_CONTEXT ( 'NONE', 'WORKASPACE' ) );
#63 = ADVANCED_FACE ( 'NONE', ( #61 ), #68, .F. ) ;
#64 = DIRECTION ( 'NONE',  ( -0.000000000000000000, -0.000000000000000000, -1.000000000000000000 ) ) ;
#65 = DIRECTION ( 'NONE',  ( 1.000000000000000000, 0.000000000000000000, 0.000000000000000000 ) ) ;
#66 = PERSON_AND_ORGANIZATION ( #431, #471 ) ;
#67 = EDGE_CURVE ( 'NONE', #353, #476, #225, .T. ) ;
#68 = CYLINDRICAL_SURFACE ( 'NONE', #289, 3.049999999999999822 ) ;
#69 = LINE ( 'NONE', #103, #290 ) ;
#70 = ADVANCED_FACE ( 'NONE', ( #508 ), #79, .F. ) ;
#71 = CARTESIAN_POINT ( 'NONE',  ( -4.500000000000000000, 0.000000000000000000, 0.000000000000000000 ) ) ;
#72 = VERTEX_POINT ( 'NONE', #582 ) ;
#73 = EDGE_LOOP ( 'NONE', ( #6, #413, #332, #518 ) ) ;
#74 = CARTESIAN_POINT ( 'NONE',  ( 0.000000000000000000, 7.000000000000000000, 2.000000000000001776 ) ) ;
#75 = CIRCLE ( 'NONE', #396, 1.500000000000000444 ) ;
#76 = EDGE_LOOP ( 'NONE', ( #167, #25, #597, #45 ) ) ;
#77 = ORIENTED_EDGE ( 'NONE', *, *, #20, .T. ) ;
#78 = FACE_BOUND ( 'NONE', #590, .T. ) ;
#79 = CYLINDRICAL_SURFACE ( 'NONE', #589, 1.500000000000000444 ) ;
#80 = DIRECTION ( 'NONE',  ( -1.000000000000000000, 0.000000000000000000, 0.000000000000000000 ) ) ;
#81 = CIRCLE ( 'NONE', #159, 10.00000000000000000 ) ;
#82 = VERTEX_POINT ( 'NONE', #118 ) ;
#83 = AXIS2_PLACEMENT_3D ( 'NONE', #124, #424, #182 ) ;
#84 = CARTESIAN_POINT ( 'NONE',  ( 7.000000000000000000, 0.000000000000000000, 2.000000000000001776 ) ) ;
#85 = CIRCLE ( 'NONE', #433, 1.500000000000000000 ) ;
#86 = EDGE_CURVE ( 'NONE', #511, #53, #265, .T. ) ;
#87 = DIRECTION ( 'NONE',  ( -1.000000000000000000, 0.000000000000000000, 0.000000000000000000 ) ) ;
#88 = EDGE_CURVE ( 'NONE', #251, #223, #514, .T. ) ;
#89 = CARTESIAN_POINT ( 'NONE',  ( 0.000000000000000000, 0.000000000000000000, 2.000000000000000000 ) ) ;
#90 = ORIENTED_EDGE ( 'NONE', *, *, #402, .F. ) ;
#91 = CARTESIAN_POINT ( 'NONE',  ( -5.500000000000000000, 1.836970198721030427E-16, 0.000000000000000000 ) ) ;
#92 = CARTESIAN_POINT ( 'NONE',  ( 0.000000000000000000, 0.000000000000000000, 2.000000000000000000 ) ) ;
#93 = APPROVAL_PERSON_ORGANIZATION ( #587, #462, #161 ) ;
#94 = FACE_BOUND ( 'NONE', #99, .T. ) ;
#95 = DIRECTION ( 'NONE',  ( 0.000000000000000000, 0.000000000000000000, 1.000000000000000000 ) ) ;
#96 = EDGE_LOOP ( 'NONE', ( #552, #283, #460, #371 ) ) ;
#97 = AXIS2_PLACEMENT_3D ( 'NONE', #121, #315, #156 ) ;
#98 = VECTOR ( 'NONE', #427, 1000.000000000000000 ) ;
#99 = EDGE_LOOP ( 'NONE', ( #474, #19 ) ) ;
#100 = CARTESIAN_POINT ( 'NONE',  ( 8.500000000000000000, 1.836970198721030427E-16, 2.000000000000001776 ) ) ;
#101 = COORDINATED_UNIVERSAL_TIME_OFFSET ( 6, 0, .BEHIND. ) ;
#102 = ORIENTED_EDGE ( 'NONE', *, *, #484, .T. ) ;
#103 = CARTESIAN_POINT ( 'NONE',  ( -3.049999999999999822, 0.000000000000000000, 2.000000000000000000 ) ) ;
#104 = DIRECTION ( 'NONE',  ( -0.000000000000000000, -0.000000000000000000, -1.000000000000000000 ) ) ;
#105 = COORDINATED_UNIVERSAL_TIME_OFFSET ( 6, 0, .BEHIND. ) ;
#106 = ORIENTED_EDGE ( 'NONE', *, *, #46, .F. ) ;
#107 = ADVANCED_FACE ( 'NONE', ( #155 ), #496, .F. ) ;
#108 = AXIS2_PLACEMENT_3D ( 'NONE', #131, #334, #28 ) ;
#109 = CIRCLE ( 'NONE', #482, 3.049999999999999822 ) ;
#110 = CARTESIAN_POINT ( 'NONE',  ( 10.00000000000000000, 1.224646799147353256E-15, 2.000000000000000000 ) ) ;
#111 = EDGE_CURVE ( 'NONE', #542, #373, #467, .T. ) ;
#112 = DIRECTION ( 'NONE',  ( 0.000000000000000000, 0.000000000000000000, 1.000000000000000000 ) ) ;
#113 = DIRECTION ( 'NONE',  ( 0.000000000000000000, 0.000000000000000000, 1.000000000000000000 ) ) ;
#114 = DIRECTION ( 'NONE',  ( -1.000000000000000000, 0.000000000000000000, 0.000000000000000000 ) ) ;
#115 = DIRECTION ( 'NONE',  ( 1.000000000000000000, 0.000000000000000000, 0.000000000000000000 ) ) ;
#116 = CC_DESIGN_PERSON_AND_ORGANIZATION_ASSIGNMENT ( #66, #435, ( #375 ) ) ;
#117 = ORIENTED_EDGE ( 'NONE', *, *, #239, .T. ) ;
#118 = CARTESIAN_POINT ( 'NONE',  ( 1.500000000000000000, -7.000000000000000000, 2.000000000000001776 ) ) ;
#119 = ORIENTED_EDGE ( 'NONE', *, *, #194, .T. ) ;
#120 = CARTESIAN_POINT ( 'NONE',  ( 0.000000000000000000, -7.000000000000000000, 2.000000000000001776 ) ) ;
#121 = CARTESIAN_POINT ( 'NONE',  ( 0.000000000000000000, 0.000000000000000000, 0.000000000000000000 ) ) ;
#122 = VERTEX_POINT ( 'NONE', #358 ) ;
#123 = EDGE_CURVE ( 'NONE', #122, #10, #109, .T. ) ;
#124 = CARTESIAN_POINT ( 'NONE',  ( 0.000000000000000000, 0.000000000000000000, 0.000000000000000000 ) ) ;
#125 = EDGE_LOOP ( 'NONE', ( #322, #199, #425, #24 ) ) ;
#126 = CARTESIAN_POINT ( 'NONE',  ( 0.000000000000000000, 0.000000000000000000, -2.500000000000000000 ) ) ;
#127 = LOCAL_TIME ( 16, 46, 24.00000000000000000, #202 ) ;
#128 = EDGE_CURVE ( 'NONE', #72, #122, #586, .T. ) ;
#129 = VERTEX_POINT ( 'NONE', #578 ) ;
#130 = ADVANCED_FACE ( 'NONE', ( #170 ), #599, .F. ) ;
#131 = CARTESIAN_POINT ( 'NONE',  ( 0.000000000000000000, 0.000000000000000000, 0.000000000000000000 ) ) ;
#132 = AXIS2_PLACEMENT_3D ( 'NONE', #310, #450, #548 ) ;
#133 = AXIS2_PLACEMENT_3D ( 'NONE', #92, #519, #477 ) ;
#134 = ORIENTED_EDGE ( 'NONE', *, *, #165, .T. ) ;
#135 = EDGE_CURVE ( 'NONE', #611, #520, #559, .T. ) ;
#136 = CARTESIAN_POINT ( 'NONE',  ( -10.00000000000000000, 0.000000000000000000, 2.000000000000000000 ) ) ;
#137 = CIRCLE ( 'NONE', #337, 1.500000000000000444 ) ;
#138 = VERTEX_POINT ( 'NONE', #545 ) ;
#139 = DIRECTION ( 'NONE',  ( -0.000000000000000000, -0.000000000000000000, -1.000000000000000000 ) ) ;
#140 = DIRECTION ( 'NONE',  ( 0.000000000000000000, 0.000000000000000000, 1.000000000000000000 ) ) ;
#141 = CIRCLE ( 'NONE', #31, 1.500000000000000000 ) ;
#142 = CC_DESIGN_PERSON_AND_ORGANIZATION_ASSIGNMENT ( #210, #390, ( #375 ) ) ;
#143 = FACE_BOUND ( 'NONE', #171, .T. ) ;
#144 = CIRCLE ( 'NONE', #448, 1.500000000000000444 ) ;
#145 = DIRECTION ( 'NONE',  ( -0.000000000000000000, -0.000000000000000000, -1.000000000000000000 ) ) ;
#146 = PERSON_AND_ORGANIZATION ( #431, #471 ) ;
#147 = ORIENTED_EDGE ( 'NONE', *, *, #316, .T. ) ;
#148 = CARTESIAN_POINT ( 'NONE',  ( 0.000000000000000000, 0.000000000000000000, 2.000000000000000000 ) ) ;
#149 = VECTOR ( 'NONE', #273, 1000.000000000000000 ) ;
#150 = ORIENTED_EDGE ( 'NONE', *, *, #128, .T. ) ;
#151 = CIRCLE ( 'NONE', #506, 1.500000000000000444 ) ;
#152 = DIRECTION ( 'NONE',  ( -1.000000000000000000, 0.000000000000000000, 0.000000000000000000 ) ) ;
#153 = DIRECTION ( 'NONE',  ( 0.000000000000000000, 0.000000000000000000, 1.000000000000000000 ) ) ;
#154 = ORIENTED_EDGE ( 'NONE', *, *, #526, .T. ) ;
#155 = FACE_OUTER_BOUND ( 'NONE', #174, .T. ) ;
#156 = DIRECTION ( 'NONE',  ( -1.000000000000000000, 0.000000000000000000, 0.000000000000000000 ) ) ;
#157 = APPROVAL_DATE_TIME ( #449, #281 ) ;
#158 = CC_DESIGN_APPROVAL ( #462, ( #375 ) ) ;
#159 = AXIS2_PLACEMENT_3D ( 'NONE', #173, #113, #207 ) ;
#160 = DIRECTION ( 'NONE',  ( 1.000000000000000000, 0.000000000000000000, 0.000000000000000000 ) ) ;
#161 = APPROVAL_ROLE ( '' ) ;
#162 = ORIENTED_EDGE ( 'NONE', *, *, #484, .F. ) ;
#163 = AXIS2_PLACEMENT_3D ( 'NONE', #372, #275, #415 ) ;
#164 = CIRCLE ( 'NONE', #622, 1.500000000000000000 ) ;
#165 = EDGE_CURVE ( 'NONE', #223, #251, #298, .T. ) ;
#166 = CARTESIAN_POINT ( 'NONE',  ( 0.000000000000000000, 0.000000000000000000, 2.000000000000000000 ) ) ;
#167 = ORIENTED_EDGE ( 'NONE', *, *, #512, .F. ) ;
#168 = UNCERTAINTY_MEASURE_WITH_UNIT (LENGTH_MEASURE( 1.000000000000000082E-05 ), #21, 'distance_accuracy_value', 'NONE');
#169 = ORIENTED_EDGE ( 'NONE', *, *, #378, .F. ) ;
#170 = FACE_OUTER_BOUND ( 'NONE', #73, .T. ) ;
#171 = EDGE_LOOP ( 'NONE', ( #181, #346 ) ) ;
#172 = DIRECTION ( 'NONE',  ( -1.000000000000000000, 0.000000000000000000, 0.000000000000000000 ) ) ;
#173 = CARTESIAN_POINT ( 'NONE',  ( 0.000000000000000000, 0.000000000000000000, 0.000000000000000000 ) ) ;
#174 = EDGE_LOOP ( 'NONE', ( #547, #464, #262, #271 ) ) ;
#175 = DIRECTION ( 'NONE',  ( 0.000000000000000000, 0.000000000000000000, -1.000000000000000000 ) ) ;
#176 = FACE_BOUND ( 'NONE', #335, .T. ) ;
#177 = EDGE_CURVE ( 'NONE', #563, #439, #369, .T. ) ;
#178 = EDGE_CURVE ( 'NONE', #414, #351, #403, .T. ) ;
#179 = FACE_BOUND ( 'NONE', #34, .T. ) ;
#180 = ADVANCED_FACE ( 'NONE', ( #541 ), #489, .F. ) ;
#181 = ORIENTED_EDGE ( 'NONE', *, *, #405, .F. ) ;
#182 = DIRECTION ( 'NONE',  ( 1.000000000000000000, 0.000000000000000000, 0.000000000000000000 ) ) ;
#183 = CIRCLE ( 'NONE', #530, 1.500000000000000000 ) ;
#184 = ORIENTED_EDGE ( 'NONE', *, *, #88, .T. ) ;
#185 = FACE_OUTER_BOUND ( 'NONE', #327, .T. ) ;
#186 = FACE_BOUND ( 'NONE', #226, .T. ) ;
#187 = CC_DESIGN_DATE_AND_TIME_ASSIGNMENT ( #537, #198, ( #212 ) ) ;
#188 = CARTESIAN_POINT ( 'NONE',  ( 0.000000000000000000, 0.000000000000000000, 2.000000000000000000 ) ) ;
#189 = AXIS2_PLACEMENT_3D ( 'NONE', #325, #280, #612 ) ;
#190 = AXIS2_PLACEMENT_3D ( 'NONE', #13, #112, #502 ) ;
#191 = CARTESIAN_POINT ( 'NONE',  ( 0.000000000000000000, 0.000000000000000000, 0.000000000000000000 ) ) ;
#192 = AXIS2_PLACEMENT_3D ( 'NONE', #89, #479, #42 ) ;
#193 = CALENDAR_DATE ( 2026, 8, 9 ) ;
#194 = EDGE_CURVE ( 'NONE', #82, #397, #164, .T. ) ;
#195 = EDGE_LOOP ( 'NONE', ( #361, #481, #30, #615 ) ) ;
#196 = EDGE_CURVE ( 'NONE', #129, #531, #85, .T. ) ;
#197 = DIRECTION ( 'NONE',  ( 0.000000000000000000, 0.000000000000000000, -1.000000000000000000 ) ) ;
#198 = DATE_TIME_ROLE ( 'creation_date' ) ;
#199 = ORIENTED_EDGE ( 'NONE', *, *, #264, .T. ) ;
#200 = CARTESIAN_POINT ( 'NONE',  ( 0.000000000000000000, 0.000000000000000000, 0.000000000000000000 ) ) ;
#201 = DIRECTION ( 'NONE',  ( 1.000000000000000000, 0.000000000000000000, 0.000000000000000000 ) ) ;
#202 = COORDINATED_UNIVERSAL_TIME_OFFSET ( 6, 0, .BEHIND. ) ;
#203 = ORIENTED_EDGE ( 'NONE', *, *, #363, .F. ) ;
#204 = PERSON_AND_ORGANIZATION ( #431, #471 ) ;
#205 = DIRECTION ( 'NONE',  ( 0.000000000000000000, 0.000000000000000000, -1.000000000000000000 ) ) ;
#206 = DATE_AND_TIME ( #193, #127 ) ;
#207 = DIRECTION ( 'NONE',  ( 1.000000000000000000, 0.000000000000000000, 0.000000000000000000 ) ) ;
#208 = CARTESIAN_POINT ( 'NONE',  ( -10.00000000000000000, 0.000000000000000000, 2.000000000000000000 ) ) ;
#209 = DIRECTION ( 'NONE',  ( 0.000000000000000000, 0.000000000000000000, 1.000000000000000000 ) ) ;
#210 = PERSON_AND_ORGANIZATION ( #431, #471 ) ;
#211 = DIRECTION ( 'NONE',  ( 1.000000000000000000, 0.000000000000000000, 0.000000000000000000 ) ) ;
#212 = PRODUCT_DEFINITION ( 'UNKNOWN', '', #375, #517 ) ;
#213 = CYLINDRICAL_SURFACE ( 'NONE', #313, 1.500000000000000444 ) ;
#214 = CARTESIAN_POINT ( 'NONE',  ( 1.500000000000000000, -7.000000000000000000, 0.000000000000000000 ) ) ;
#215 = VERTEX_POINT ( 'NONE', #17 ) ;
#216 = AXIS2_PLACEMENT_3D ( 'NONE', #352, #55, #253 ) ;
#217 = CARTESIAN_POINT ( 'NONE',  ( 8.500000000000000000, 1.836970198721030427E-16, 2.000000000000001776 ) ) ;
#218 = AXIS2_PLACEMENT_3D ( 'NONE', #522, #339, #567 ) ;
#219 = DIRECTION ( 'NONE',  ( 1.000000000000000000, 0.000000000000000000, 0.000000000000000000 ) ) ;
#220 = ORIENTED_EDGE ( 'NONE', *, *, #619, .F. ) ;
#221 = DIRECTION ( 'NONE',  ( 0.000000000000000000, 0.000000000000000000, 1.000000000000000000 ) ) ;
#222 = ORIENTED_EDGE ( 'NONE', *, *, #378, .T. ) ;
#223 = VERTEX_POINT ( 'NONE', #214 ) ;
#224 = CARTESIAN_POINT ( 'NONE',  ( 1.500000000000000000, 7.000000000000000000, 2.000000000000001776 ) ) ;
#225 = LINE ( 'NONE', #463, #149 ) ;
#226 = EDGE_LOOP ( 'NONE', ( #233, #38 ) ) ;
#227 = PLANE ( 'NONE',  #386 ) ;
#228 = FACE_OUTER_BOUND ( 'NONE', #556, .T. ) ;
#229 = EDGE_CURVE ( 'NONE', #138, #27, #241, .T. ) ;
#230 = VECTOR ( 'NONE', #492, 1000.000000000000000 ) ;
#231 = ORIENTED_EDGE ( 'NONE', *, *, #319, .T. ) ;
#232 = CARTESIAN_POINT ( 'NONE',  ( 4.500000000000000000, 5.510910596163088569E-16, 0.000000000000000000 ) ) ;
#233 = ORIENTED_EDGE ( 'NONE', *, *, #88, .F. ) ;
#234 = CARTESIAN_POINT ( 'NONE',  ( 4.500000000000000000, 5.510910596163088569E-16, 0.000000000000000000 ) ) ;
#235 = VECTOR ( 'NONE', #197, 1000.000000000000000 ) ;
#236 = DIRECTION ( 'NONE',  ( 0.000000000000000000, 0.000000000000000000, 1.000000000000000000 ) ) ;
#237 = DIRECTION ( 'NONE',  ( -0.000000000000000000, -0.000000000000000000, -1.000000000000000000 ) ) ;
#238 = DIRECTION ( 'NONE',  ( -0.000000000000000000, -0.000000000000000000, -1.000000000000000000 ) ) ;
#239 = EDGE_CURVE ( 'NONE', #36, #27, #318, .T. ) ;
#240 = CIRCLE ( 'NONE', #494, 1.500000000000000444 ) ;
#241 = CIRCLE ( 'NONE', #593, 4.500000000000000000 ) ;
#242 = ORIENTED_EDGE ( 'NONE', *, *, #598, .F. ) ;
#243 = EDGE_CURVE ( 'NONE', #511, #353, #416, .T. ) ;
#244 = DIRECTION ( 'NONE',  ( -1.000000000000000000, 0.000000000000000000, 0.000000000000000000 ) ) ;
#245 = APPROVAL_STATUS ( 'not_yet_approved' ) ;
#246 = EDGE_CURVE ( 'NONE', #563, #414, #240, .T. ) ;
#247 = ORIENTED_EDGE ( 'NONE', *, *, #368, .T. ) ;
#248 = ADVANCED_FACE ( 'NONE', ( #284 ), #37, .F. ) ;
#249 =( NAMED_UNIT ( * ) SI_UNIT ( $, .STERADIAN. ) SOLID_ANGLE_UNIT ( ) );
#250 = DIRECTION ( 'NONE',  ( -1.000000000000000000, 0.000000000000000000, 0.000000000000000000 ) ) ;
#251 = VERTEX_POINT ( 'NONE', #412 ) ;
#252 = APPLICATION_PROTOCOL_DEFINITION ( 'international standard', 'config_control_design', 1994, #447 ) ;
#253 = DIRECTION ( 'NONE',  ( -1.000000000000000000, 0.000000000000000000, 0.000000000000000000 ) ) ;
#254 = SECURITY_CLASSIFICATION_LEVEL ( 'unclassified' ) ;
#255 = CARTESIAN_POINT ( 'NONE',  ( -4.500000000000000000, 0.000000000000000000, 0.000000000000000000 ) ) ;
#256 = CALENDAR_DATE ( 2026, 8, 9 ) ;
#257 = LOCAL_TIME ( 16, 46, 24.00000000000000000, #58 ) ;
#258 = CARTESIAN_POINT ( 'NONE',  ( 7.000000000000000000, 0.000000000000000000, 2.000000000000001776 ) ) ;
#259 = ORIENTED_EDGE ( 'NONE', *, *, #365, .T. ) ;
#260 = FACE_OUTER_BOUND ( 'NONE', #404, .T. ) ;
#261 = DIRECTION ( 'NONE',  ( 0.000000000000000000, 0.000000000000000000, -1.000000000000000000 ) ) ;
#262 = ORIENTED_EDGE ( 'NONE', *, *, #598, .T. ) ;
#263 = CYLINDRICAL_SURFACE ( 'NONE', #625, 10.00000000000000000 ) ;
#264 = EDGE_CURVE ( 'NONE', #373, #542, #141, .T. ) ;
#265 = LINE ( 'NONE', #395, #230 ) ;
#266 = EDGE_LOOP ( 'NONE', ( #379, #400 ) ) ;
#267 = ADVANCED_FACE ( 'NONE', ( #562 ), #605, .F. ) ;
#268 = EDGE_LOOP ( 'NONE', ( #442, #147 ) ) ;
#269 = DIRECTION ( 'NONE',  ( 0.000000000000000000, 0.000000000000000000, -1.000000000000000000 ) ) ;
#270 = ORIENTED_EDGE ( 'NONE', *, *, #67, .F. ) ;
#271 = ORIENTED_EDGE ( 'NONE', *, *, #123, .F. ) ;
#272 = PLANE ( 'NONE',  #189 ) ;
#273 = DIRECTION ( 'NONE',  ( 0.000000000000000000, 0.000000000000000000, -1.000000000000000000 ) ) ;
#274 = ORIENTED_EDGE ( 'NONE', *, *, #512, .T. ) ;
#275 = DIRECTION ( 'NONE',  ( 0.000000000000000000, 0.000000000000000000, 1.000000000000000000 ) ) ;
#276 = CLOSED_SHELL ( 'NONE', ( #596, #70, #267, #248, #16, #63, #568, #292, #422, #488, #107, #297, #381, #300, #180, #130, #621 ) ) ;
#277 = VECTOR ( 'NONE', #175, 1000.000000000000000 ) ;
#278 = EDGE_LOOP ( 'NONE', ( #580, #231, #391, #338 ) ) ;
#279 = VECTOR ( 'NONE', #594, 1000.000000000000000 ) ;
#280 = DIRECTION ( 'NONE',  ( 0.000000000000000000, 0.000000000000000000, 1.000000000000000000 ) ) ;
#281 = APPROVAL ( #398, 'UNSPECIFIED' ) ;
#282 = CC_DESIGN_APPROVAL ( #281, ( #212 ) ) ;
#283 = ORIENTED_EDGE ( 'NONE', *, *, #469, .T. ) ;
#284 = FACE_OUTER_BOUND ( 'NONE', #278, .T. ) ;
#285 = ORIENTED_EDGE ( 'NONE', *, *, #229, .F. ) ;
#286 = DIRECTION ( 'NONE',  ( 1.000000000000000000, 0.000000000000000000, 0.000000000000000000 ) ) ;
#287 = VERTEX_POINT ( 'NONE', #232 ) ;
#288 = DIRECTION ( 'NONE',  ( 0.000000000000000000, 0.000000000000000000, 1.000000000000000000 ) ) ;
#289 = AXIS2_PLACEMENT_3D ( 'NONE', #546, #600, #29 ) ;
#290 = VECTOR ( 'NONE', #64, 1000.000000000000000 ) ;
#291 = DIRECTION ( 'NONE',  ( -1.000000000000000000, 0.000000000000000000, 0.000000000000000000 ) ) ;
#292 = ADVANCED_FACE ( 'NONE', ( #176, #321, #602, #78, #475, #179 ), #272, .T. ) ;
#293 = CARTESIAN_POINT ( 'NONE',  ( 0.000000000000000000, 0.000000000000000000, -2.500000000000000000 ) ) ;
#294 = EDGE_CURVE ( 'NONE', #351, #439, #331, .T. ) ;
#295 = CC_DESIGN_SECURITY_CLASSIFICATION ( #555, ( #375 ) ) ;
#296 = CARTESIAN_POINT ( 'NONE',  ( -1.500000000000000000, -7.000000000000000000, 2.000000000000001776 ) ) ;
#297 = ADVANCED_FACE ( 'NONE', ( #228, #507 ), #227, .F. ) ;
#298 = CIRCLE ( 'NONE', #33, 1.500000000000000000 ) ;
#299 = ORIENTED_EDGE ( 'NONE', *, *, #123, .T. ) ;
#300 = ADVANCED_FACE ( 'NONE', ( #610 ), #504, .F. ) ;
#301 = APPLICATION_PROTOCOL_DEFINITION ( 'international standard', 'config_control_design', 1994, #538 ) ;
#302 = DATE_AND_TIME ( #360, #18 ) ;
#303 = ORIENTED_EDGE ( 'NONE', *, *, #86, .F. ) ;
#304 = PERSON_AND_ORGANIZATION ( #431, #471 ) ;
#305 = DIRECTION ( 'NONE',  ( -1.000000000000000000, 0.000000000000000000, 0.000000000000000000 ) ) ;
#306 = PERSON_AND_ORGANIZATION_ROLE ( 'classification_officer' ) ;
#307 = ORIENTED_EDGE ( 'NONE', *, *, #67, .T. ) ;
#308 = LOCAL_TIME ( 16, 46, 24.00000000000000000, #105 ) ;
#309 = CC_DESIGN_DATE_AND_TIME_ASSIGNMENT ( #206, #8, ( #555 ) ) ;
#310 = CARTESIAN_POINT ( 'NONE',  ( 0.000000000000000000, -7.000000000000000000, 0.000000000000000000 ) ) ;
#311 = ORIENTED_EDGE ( 'NONE', *, *, #570, .F. ) ;
#312 = AXIS2_PLACEMENT_3D ( 'NONE', #166, #104, #355 ) ;
#313 = AXIS2_PLACEMENT_3D ( 'NONE', #51, #354, #152 ) ;
#314 = CARTESIAN_POINT ( 'NONE',  ( 0.000000000000000000, -7.000000000000000000, 2.000000000000001776 ) ) ;
#315 = DIRECTION ( 'NONE',  ( -0.000000000000000000, -0.000000000000000000, -1.000000000000000000 ) ) ;
#316 = EDGE_CURVE ( 'NONE', #287, #36, #620, .T. ) ;
#317 = DIRECTION ( 'NONE',  ( 0.000000000000000000, 0.000000000000000000, -1.000000000000000000 ) ) ;
#318 = LINE ( 'NONE', #71, #591 ) ;
#319 = EDGE_CURVE ( 'NONE', #373, #129, #608, .T. ) ;
#320 = EDGE_LOOP ( 'NONE', ( #311, #50, #247, #259 ) ) ;
#321 = FACE_BOUND ( 'NONE', #266, .T. ) ;
#322 = ORIENTED_EDGE ( 'NONE', *, *, #319, .F. ) ;
#323 = VERTEX_POINT ( 'NONE', #374 ) ;
#324 = CIRCLE ( 'NONE', #133, 10.00000000000000000 ) ;
#325 = CARTESIAN_POINT ( 'NONE',  ( 0.000000000000000000, 0.000000000000000000, 2.000000000000000000 ) ) ;
#326 = DIRECTION ( 'NONE',  ( 0.000000000000000000, 0.000000000000000000, 1.000000000000000000 ) ) ;
#327 = EDGE_LOOP ( 'NONE', ( #539, #490 ) ) ;
#328 = DIRECTION ( 'NONE',  ( 1.000000000000000000, 0.000000000000000000, 0.000000000000000000 ) ) ;
#329 = DIRECTION ( 'NONE',  ( 1.000000000000000000, 0.000000000000000000, -0.000000000000000000 ) ) ;
#330 = APPROVAL_PERSON_ORGANIZATION ( #146, #558, #527 ) ;
#331 = CIRCLE ( 'NONE', #44, 1.500000000000000444 ) ;
#332 = ORIENTED_EDGE ( 'NONE', *, *, #178, .T. ) ;
#333 = VECTOR ( 'NONE', #410, 1000.000000000000000 ) ;
#334 = DIRECTION ( 'NONE',  ( 0.000000000000000000, 0.000000000000000000, 1.000000000000000000 ) ) ;
#335 = EDGE_LOOP ( 'NONE', ( #436, #106 ) ) ;
#336 = CARTESIAN_POINT ( 'NONE',  ( 0.000000000000000000, 0.000000000000000000, 2.000000000000000000 ) ) ;
#337 = AXIS2_PLACEMENT_3D ( 'NONE', #595, #446, #211 ) ;
#338 = ORIENTED_EDGE ( 'NONE', *, *, #472, .F. ) ;
#339 = DIRECTION ( 'NONE',  ( -0.000000000000000000, -0.000000000000000000, -1.000000000000000000 ) ) ;
#340 = CIRCLE ( 'NONE', #359, 1.500000000000000000 ) ;
#341 = CARTESIAN_POINT ( 'NONE',  ( 7.000000000000000000, 0.000000000000000000, 0.000000000000000000 ) ) ;
#342 = DIRECTION ( 'NONE',  ( 1.000000000000000000, 0.000000000000000000, -0.000000000000000000 ) ) ;
#343 = FACE_OUTER_BOUND ( 'NONE', #457, .T. ) ;
#344 = APPROVAL_STATUS ( 'not_yet_approved' ) ;
#345 = EDGE_CURVE ( 'NONE', #531, #129, #340, .T. ) ;
#346 = ORIENTED_EDGE ( 'NONE', *, *, #421, .F. ) ;
#347 = CARTESIAN_POINT ( 'NONE',  ( 1.500000000000000000, -7.000000000000000000, 2.000000000000001776 ) ) ;
#348 = PERSON_AND_ORGANIZATION ( #431, #471 ) ;
#349 = AXIS2_PLACEMENT_3D ( 'NONE', #411, #326, #56 ) ;
#350 = AXIS2_PLACEMENT_3D ( 'NONE', #293, #140, #389 ) ;
#351 = VERTEX_POINT ( 'NONE', #515 ) ;
#352 = CARTESIAN_POINT ( 'NONE',  ( 7.000000000000000000, 0.000000000000000000, 2.000000000000001776 ) ) ;
#353 = VERTEX_POINT ( 'NONE', #513 ) ;
#354 = DIRECTION ( 'NONE',  ( 0.000000000000000000, 0.000000000000000000, -1.000000000000000000 ) ) ;
#355 = DIRECTION ( 'NONE',  ( -1.000000000000000000, 0.000000000000000000, 0.000000000000000000 ) ) ;
#356 = ORIENTED_EDGE ( 'NONE', *, *, #526, .F. ) ;
#357 = PERSON_AND_ORGANIZATION ( #431, #471 ) ;
#358 = CARTESIAN_POINT ( 'NONE',  ( 3.049999999999999822, 3.735172737399427146E-16, -2.500000000000000000 ) ) ;
#359 = AXIS2_PLACEMENT_3D ( 'NONE', #465, #32, #553 ) ;
#360 = CALENDAR_DATE ( 2026, 8, 9 ) ;
#361 = ORIENTED_EDGE ( 'NONE', *, *, #529, .T. ) ;
#362 = AXIS2_PLACEMENT_3D ( 'NONE', #453, #52, #250 ) ;
#363 = EDGE_CURVE ( 'NONE', #36, #287, #466, .T. ) ;
#364 = LINE ( 'NONE', #110, #569 ) ;
#365 = EDGE_CURVE ( 'NONE', #323, #549, #57, .T. ) ;
#366 = DIRECTION ( 'NONE',  ( 0.000000000000000000, 0.000000000000000000, 1.000000000000000000 ) ) ;
#367 = CYLINDRICAL_SURFACE ( 'NONE', #97, 4.500000000000000000 ) ;
#368 = EDGE_CURVE ( 'NONE', #611, #323, #509, .T. ) ;
#369 = LINE ( 'NONE', #100, #279 ) ;
#370 = EDGE_LOOP ( 'NONE', ( #222, #601, #134, #505 ) ) ;
#371 = ORIENTED_EDGE ( 'NONE', *, *, #239, .F. ) ;
#372 = CARTESIAN_POINT ( 'NONE',  ( -7.000000000000000000, 0.000000000000000000, 2.000000000000001776 ) ) ;
#373 = VERTEX_POINT ( 'NONE', #478 ) ;
#374 = CARTESIAN_POINT ( 'NONE',  ( -10.00000000000000000, 0.000000000000000000, 0.000000000000000000 ) ) ;
#375 = PRODUCT_DEFINITION_FORMATION_WITH_SPECIFIED_SOURCE ( 'ANY', '', #5, .NOT_KNOWN. ) ;
#376 = DIRECTION ( 'NONE',  ( 1.000000000000000000, 0.000000000000000000, 0.000000000000000000 ) ) ;
#377 = DIRECTION ( 'NONE',  ( 1.000000000000000000, 0.000000000000000000, 0.000000000000000000 ) ) ;
#378 = EDGE_CURVE ( 'NONE', #397, #82, #183, .T. ) ;
#379 = ORIENTED_EDGE ( 'NONE', *, *, #529, .F. ) ;
#380 = AXIS2_PLACEMENT_3D ( 'NONE', #191, #139, #291 ) ;
#381 = ADVANCED_FACE ( 'NONE', ( #343 ), #617, .T. ) ;
#382 = CARTESIAN_POINT ( 'NONE',  ( 0.000000000000000000, 0.000000000000000000, 0.000000000000000000 ) ) ;
#383 = EDGE_LOOP ( 'NONE', ( #102, #299 ) ) ;
#384 = CARTESIAN_POINT ( 'NONE',  ( -8.500000000000000000, 0.000000000000000000, 2.000000000000001776 ) ) ;
#385 = CARTESIAN_POINT ( 'NONE',  ( 0.000000000000000000, 0.000000000000000000, 0.000000000000000000 ) ) ;
#386 = AXIS2_PLACEMENT_3D ( 'NONE', #126, #420, #329 ) ;
#387 = VECTOR ( 'NONE', #261, 1000.000000000000000 ) ;
#388 = DIRECTION ( 'NONE',  ( 0.000000000000000000, 0.000000000000000000, 1.000000000000000000 ) ) ;
#389 = DIRECTION ( 'NONE',  ( 1.000000000000000000, 0.000000000000000000, 0.000000000000000000 ) ) ;
#390 = PERSON_AND_ORGANIZATION_ROLE ( 'design_supplier' ) ;
#391 = ORIENTED_EDGE ( 'NONE', *, *, #196, .T. ) ;
#392 = ADVANCED_BREP_SHAPE_REPRESENTATION ( 'HW-006_MG996_25T_D20_PCD14_HORN', ( #473, #419 ), #62 ) ;
#393 = FACE_OUTER_BOUND ( 'NONE', #320, .T. ) ;
#394 = CALENDAR_DATE ( 2026, 8, 9 ) ;
#395 = CARTESIAN_POINT ( 'NONE',  ( -8.500000000000000000, 0.000000000000000000, 2.000000000000001776 ) ) ;
#396 = AXIS2_PLACEMENT_3D ( 'NONE', #41, #43, #286 ) ;
#397 = VERTEX_POINT ( 'NONE', #296 ) ;
#398 = APPROVAL_STATUS ( 'not_yet_approved' ) ;
#399 = CARTESIAN_POINT ( 'NONE',  ( 0.000000000000000000, 0.000000000000000000, 2.000000000000000000 ) ) ;
#400 = ORIENTED_EDGE ( 'NONE', *, *, #246, .F. ) ;
#401 = CYLINDRICAL_SURFACE ( 'NONE', #498, 1.500000000000000444 ) ;
#402 = EDGE_CURVE ( 'NONE', #439, #351, #151, .T. ) ;
#403 = LINE ( 'NONE', #59, #387 ) ;
#404 = EDGE_LOOP ( 'NONE', ( #270, #561, #609, #550 ) ) ;
#405 = EDGE_CURVE ( 'NONE', #53, #476, #40, .T. ) ;
#406 = DIRECTION ( 'NONE',  ( -0.000000000000000000, -0.000000000000000000, -1.000000000000000000 ) ) ;
#407 = CARTESIAN_POINT ( 'NONE',  ( 0.000000000000000000, 0.000000000000000000, -2.500000000000000000 ) ) ;
#408 = FACE_OUTER_BOUND ( 'NONE', #96, .T. ) ;
#409 = AXIS2_PLACEMENT_3D ( 'NONE', #336, #145, #244 ) ;
#410 = DIRECTION ( 'NONE',  ( -0.000000000000000000, -0.000000000000000000, -1.000000000000000000 ) ) ;
#411 = CARTESIAN_POINT ( 'NONE',  ( 0.000000000000000000, 0.000000000000000000, -2.500000000000000000 ) ) ;
#412 = CARTESIAN_POINT ( 'NONE',  ( -1.500000000000000000, -7.000000000000000000, 0.000000000000000000 ) ) ;
#413 = ORIENTED_EDGE ( 'NONE', *, *, #246, .T. ) ;
#414 = VERTEX_POINT ( 'NONE', #39 ) ;
#415 = DIRECTION ( 'NONE',  ( 1.000000000000000000, 0.000000000000000000, 0.000000000000000000 ) ) ;
#416 = CIRCLE ( 'NONE', #163, 1.500000000000000444 ) ;
#417 = ORIENTED_EDGE ( 'NONE', *, *, #510, .T. ) ;
#418 = DIRECTION ( 'NONE',  ( 1.000000000000000000, 0.000000000000000000, 0.000000000000000000 ) ) ;
#419 = AXIS2_PLACEMENT_3D ( 'NONE', #200, #535, #585 ) ;
#420 = DIRECTION ( 'NONE',  ( 0.000000000000000000, 0.000000000000000000, 1.000000000000000000 ) ) ;
#421 = EDGE_CURVE ( 'NONE', #476, #53, #75, .T. ) ;
#422 = ADVANCED_FACE ( 'NONE', ( #143, #483, #186, #94, #480, #185 ), #434, .F. ) ;
#423 = EDGE_LOOP ( 'NONE', ( #154, #150, #162, #242 ) ) ;
#424 = DIRECTION ( 'NONE',  ( 0.000000000000000000, 0.000000000000000000, 1.000000000000000000 ) ) ;
#425 = ORIENTED_EDGE ( 'NONE', *, *, #472, .T. ) ;
#426 = AXIS2_PLACEMENT_3D ( 'NONE', #385, #236, #342 ) ;
#427 = DIRECTION ( 'NONE',  ( 0.000000000000000000, 0.000000000000000000, -1.000000000000000000 ) ) ;
#428 = CC_DESIGN_PERSON_AND_ORGANIZATION_ASSIGNMENT ( #304, #491, ( #5 ) ) ;
#429 = CARTESIAN_POINT ( 'NONE',  ( -1.500000000000000000, 7.000000000000000000, 2.000000000000001776 ) ) ;
#430 = CARTESIAN_POINT ( 'NONE',  ( 7.000000000000000000, 0.000000000000000000, 2.000000000000001776 ) ) ;
#431 = PERSON ( 'UNSPECIFIED', 'UNSPECIFIED', 'UNSPECIFIED', ('UNSPECIFIED'), ('UNSPECIFIED'), ('UNSPECIFIED') ) ;
#432 = AXIS2_PLACEMENT_3D ( 'NONE', #461, #269, #172 ) ;
#433 = AXIS2_PLACEMENT_3D ( 'NONE', #445, #7, #65 ) ;
#434 = PLANE ( 'NONE',  #426 ) ;
#435 = PERSON_AND_ORGANIZATION_ROLE ( 'creator' ) ;
#436 = ORIENTED_EDGE ( 'NONE', *, *, #243, .F. ) ;
#437 = CYLINDRICAL_SURFACE ( 'NONE', #409, 10.00000000000000000 ) ;
#438 = APPROVAL_DATE_TIME ( #486, #558 ) ;
#439 = VERTEX_POINT ( 'NONE', #523 ) ;
#440 = DIRECTION ( 'NONE',  ( -0.000000000000000000, -0.000000000000000000, -1.000000000000000000 ) ) ;
#441 = DIRECTION ( 'NONE',  ( -0.000000000000000000, -0.000000000000000000, -1.000000000000000000 ) ) ;
#442 = ORIENTED_EDGE ( 'NONE', *, *, #363, .T. ) ;
#443 = PRODUCT_DEFINITION_SHAPE ( 'NONE', 'NONE',  #212 ) ;
#444 = CARTESIAN_POINT ( 'NONE',  ( -1.500000000000000000, 7.000000000000000000, 0.000000000000000000 ) ) ;
#445 = CARTESIAN_POINT ( 'NONE',  ( 0.000000000000000000, 7.000000000000000000, 0.000000000000000000 ) ) ;
#446 = DIRECTION ( 'NONE',  ( 0.000000000000000000, 0.000000000000000000, 1.000000000000000000 ) ) ;
#447 = APPLICATION_CONTEXT ( 'configuration controlled 3d designs of mechanical parts and assemblies' ) ;
#448 = AXIS2_PLACEMENT_3D ( 'NONE', #430, #388, #54 ) ;
#449 = DATE_AND_TIME ( #256, #257 ) ;
#450 = DIRECTION ( 'NONE',  ( -0.000000000000000000, -0.000000000000000000, -1.000000000000000000 ) ) ;
#451 = PERSON_AND_ORGANIZATION_ROLE ( 'creator' ) ;
#452 = ORIENTED_EDGE ( 'NONE', *, *, #194, .F. ) ;
#453 = CARTESIAN_POINT ( 'NONE',  ( 0.000000000000000000, -7.000000000000000000, 2.000000000000001776 ) ) ;
#454 = EDGE_LOOP ( 'NONE', ( #220, #119, #417, #184 ) ) ;
#455 = LINE ( 'NONE', #347, #607 ) ;
#456 = DIRECTION ( 'NONE',  ( -0.000000000000000000, -0.000000000000000000, -1.000000000000000000 ) ) ;
#457 = EDGE_LOOP ( 'NONE', ( #1, #203, #117, #77 ) ) ;
#458 = CIRCLE ( 'NONE', #192, 3.049999999999999822 ) ;
#459 = DIRECTION ( 'NONE',  ( 0.000000000000000000, 0.000000000000000000, 1.000000000000000000 ) ) ;
#460 = ORIENTED_EDGE ( 'NONE', *, *, #229, .T. ) ;
#461 = CARTESIAN_POINT ( 'NONE',  ( 0.000000000000000000, 7.000000000000000000, 2.000000000000001776 ) ) ;
#462 = APPROVAL ( #245, 'UNSPECIFIED' ) ;
#463 = CARTESIAN_POINT ( 'NONE',  ( -5.500000000000000000, 1.836970198721030427E-16, 2.000000000000001776 ) ) ;
#464 = ORIENTED_EDGE ( 'NONE', *, *, #524, .T. ) ;
#465 = CARTESIAN_POINT ( 'NONE',  ( 0.000000000000000000, 7.000000000000000000, 0.000000000000000000 ) ) ;
#466 = CIRCLE ( 'NONE', #83, 4.500000000000000000 ) ;
#467 = CIRCLE ( 'NONE', #190, 1.500000000000000000 ) ;
#468 = EDGE_LOOP ( 'NONE', ( #169, #452 ) ) ;
#469 = EDGE_CURVE ( 'NONE', #287, #138, #49, .T. ) ;
#470 = CARTESIAN_POINT ( 'NONE',  ( 7.000000000000000000, 0.000000000000000000, 0.000000000000000000 ) ) ;
#471 = ORGANIZATION ( 'UNSPECIFIED', 'UNSPECIFIED', '' ) ;
#472 = EDGE_CURVE ( 'NONE', #542, #531, #571, .T. ) ;
#473 = MANIFOLD_SOLID_BREP ( 'Four_M3_tapped_hole_envelopes_PCD14', #276 ) ;
#474 = ORIENTED_EDGE ( 'NONE', *, *, #345, .F. ) ;
#475 = FACE_OUTER_BOUND ( 'NONE', #528, .T. ) ;
#476 = VERTEX_POINT ( 'NONE', #91 ) ;
#477 = DIRECTION ( 'NONE',  ( 1.000000000000000000, 0.000000000000000000, 0.000000000000000000 ) ) ;
#478 = CARTESIAN_POINT ( 'NONE',  ( 1.500000000000000000, 7.000000000000000000, 2.000000000000001776 ) ) ;
#479 = DIRECTION ( 'NONE',  ( 0.000000000000000000, 0.000000000000000000, 1.000000000000000000 ) ) ;
#480 = FACE_BOUND ( 'NONE', #268, .T. ) ;
#481 = ORIENTED_EDGE ( 'NONE', *, *, #177, .T. ) ;
#482 = AXIS2_PLACEMENT_3D ( 'NONE', #533, #209, #536 ) ;
#483 = FACE_BOUND ( 'NONE', #572, .T. ) ;
#484 = EDGE_CURVE ( 'NONE', #10, #122, #485, .T. ) ;
#485 = CIRCLE ( 'NONE', #350, 3.049999999999999822 ) ;
#486 = DATE_AND_TIME ( #394, #308 ) ;
#487 = ORIENTED_EDGE ( 'NONE', *, *, #20, .F. ) ;
#488 = ADVANCED_FACE ( 'NONE', ( #393 ), #437, .T. ) ;
#489 = CYLINDRICAL_SURFACE ( 'NONE', #362, 1.500000000000000000 ) ;
#490 = ORIENTED_EDGE ( 'NONE', *, *, #9, .F. ) ;
#491 = PERSON_AND_ORGANIZATION_ROLE ( 'design_owner' ) ;
#492 = DIRECTION ( 'NONE',  ( 0.000000000000000000, 0.000000000000000000, -1.000000000000000000 ) ) ;
#493 = ORIENTED_EDGE ( 'NONE', *, *, #135, .T. ) ;
#494 = AXIS2_PLACEMENT_3D ( 'NONE', #84, #26, #376 ) ;
#495 = APPROVAL_ROLE ( '' ) ;
#496 = CYLINDRICAL_SURFACE ( 'NONE', #312, 3.049999999999999822 ) ;
#497 = CARTESIAN_POINT ( 'NONE',  ( -3.049999999999999822, 0.000000000000000000, -2.500000000000000000 ) ) ;
#498 = AXIS2_PLACEMENT_3D ( 'NONE', #581, #317, #501 ) ;
#499 = DIRECTION ( 'NONE',  ( 0.000000000000000000, 0.000000000000000000, 1.000000000000000000 ) ) ;
#500 = CARTESIAN_POINT ( 'NONE',  ( -8.500000000000000000, 0.000000000000000000, 0.000000000000000000 ) ) ;
#501 = DIRECTION ( 'NONE',  ( -1.000000000000000000, 0.000000000000000000, 0.000000000000000000 ) ) ;
#502 = DIRECTION ( 'NONE',  ( 1.000000000000000000, 0.000000000000000000, 0.000000000000000000 ) ) ;
#503 = CARTESIAN_POINT ( 'NONE',  ( -4.500000000000000000, 0.000000000000000000, -2.500000000000000000 ) ) ;
#504 = CYLINDRICAL_SURFACE ( 'NONE', #432, 1.500000000000000000 ) ;
#505 = ORIENTED_EDGE ( 'NONE', *, *, #510, .F. ) ;
#506 = AXIS2_PLACEMENT_3D ( 'NONE', #341, #237, #623 ) ;
#507 = FACE_BOUND ( 'NONE', #383, .T. ) ;
#508 = FACE_OUTER_BOUND ( 'NONE', #195, .T. ) ;
#509 = LINE ( 'NONE', #136, #577 ) ;
#510 = EDGE_CURVE ( 'NONE', #397, #251, #2, .T. ) ;
#511 = VERTEX_POINT ( 'NONE', #384 ) ;
#512 = EDGE_CURVE ( 'NONE', #520, #611, #324, .T. ) ;
#513 = CARTESIAN_POINT ( 'NONE',  ( -5.500000000000000000, 1.836970198721030427E-16, 2.000000000000001776 ) ) ;
#514 = CIRCLE ( 'NONE', #132, 1.500000000000000000 ) ;
#515 = CARTESIAN_POINT ( 'NONE',  ( 5.500000000000000000, 0.000000000000000000, 0.000000000000000000 ) ) ;
#516 = CC_DESIGN_PERSON_AND_ORGANIZATION_ASSIGNMENT ( #348, #306, ( #555 ) ) ;
#517 = DESIGN_CONTEXT ( 'detailed design', #447, 'design' ) ;
#518 = ORIENTED_EDGE ( 'NONE', *, *, #294, .T. ) ;
#519 = DIRECTION ( 'NONE',  ( 0.000000000000000000, 0.000000000000000000, 1.000000000000000000 ) ) ;
#520 = VERTEX_POINT ( 'NONE', #618 ) ;
#521 = DIRECTION ( 'NONE',  ( -0.000000000000000000, -0.000000000000000000, -1.000000000000000000 ) ) ;
#522 = CARTESIAN_POINT ( 'NONE',  ( -7.000000000000000000, 0.000000000000000000, 0.000000000000000000 ) ) ;
#523 = CARTESIAN_POINT ( 'NONE',  ( 8.500000000000000000, 1.836970198721030427E-16, 0.000000000000000000 ) ) ;
#524 = EDGE_CURVE ( 'NONE', #72, #215, #23, .T. ) ;
#525 = CARTESIAN_POINT ( 'NONE',  ( 0.000000000000000000, -7.000000000000000000, 2.000000000000001776 ) ) ;
#526 = EDGE_CURVE ( 'NONE', #215, #72, #458, .T. ) ;
#527 = APPROVAL_ROLE ( '' ) ;
#528 = EDGE_LOOP ( 'NONE', ( #493, #274 ) ) ;
#529 = EDGE_CURVE ( 'NONE', #414, #563, #144, .T. ) ;
#530 = AXIS2_PLACEMENT_3D ( 'NONE', #525, #95, #616 ) ;
#531 = VERTEX_POINT ( 'NONE', #444 ) ;
#532 =( NAMED_UNIT ( * ) PLANE_ANGLE_UNIT ( ) SI_UNIT ( $, .RADIAN. ) );
#533 = CARTESIAN_POINT ( 'NONE',  ( 0.000000000000000000, 0.000000000000000000, -2.500000000000000000 ) ) ;
#534 = ORIENTED_EDGE ( 'NONE', *, *, #111, .F. ) ;
#535 = DIRECTION ( 'NONE',  ( 0.000000000000000000, 0.000000000000000000, 1.000000000000000000 ) ) ;
#536 = DIRECTION ( 'NONE',  ( 1.000000000000000000, 0.000000000000000000, 0.000000000000000000 ) ) ;
#537 = DATE_AND_TIME ( #624, #11 ) ;
#538 = APPLICATION_CONTEXT ( 'configuration controlled 3d designs of mechanical parts and assemblies' ) ;
#539 = ORIENTED_EDGE ( 'NONE', *, *, #365, .F. ) ;
#540 = AXIS2_PLACEMENT_3D ( 'NONE', #35, #551, #80 ) ;
#541 = FACE_OUTER_BOUND ( 'NONE', #454, .T. ) ;
#542 = VERTEX_POINT ( 'NONE', #15 ) ;
#543 = APPROVAL_PERSON_ORGANIZATION ( #204, #281, #495 ) ;
#544 = FACE_OUTER_BOUND ( 'NONE', #14, .T. ) ;
#545 = CARTESIAN_POINT ( 'NONE',  ( 4.500000000000000000, 5.510910596163088569E-16, -2.500000000000000000 ) ) ;
#546 = CARTESIAN_POINT ( 'NONE',  ( 0.000000000000000000, 0.000000000000000000, 2.000000000000000000 ) ) ;
#547 = ORIENTED_EDGE ( 'NONE', *, *, #128, .F. ) ;
#548 = DIRECTION ( 'NONE',  ( 1.000000000000000000, 0.000000000000000000, 0.000000000000000000 ) ) ;
#549 = VERTEX_POINT ( 'NONE', #592 ) ;
#550 = ORIENTED_EDGE ( 'NONE', *, *, #405, .T. ) ;
#551 = DIRECTION ( 'NONE',  ( 0.000000000000000000, 0.000000000000000000, -1.000000000000000000 ) ) ;
#552 = ORIENTED_EDGE ( 'NONE', *, *, #316, .F. ) ;
#553 = DIRECTION ( 'NONE',  ( 1.000000000000000000, 0.000000000000000000, 0.000000000000000000 ) ) ;
#554 = DIRECTION ( 'NONE',  ( -0.000000000000000000, -0.000000000000000000, -1.000000000000000000 ) ) ;
#555 = SECURITY_CLASSIFICATION ( '', '', #254 ) ;
#556 = EDGE_LOOP ( 'NONE', ( #487, #285 ) ) ;
#557 = DIRECTION ( 'NONE',  ( 0.000000000000000000, 0.000000000000000000, -1.000000000000000000 ) ) ;
#558 = APPROVAL ( #344, 'UNSPECIFIED' ) ;
#559 = CIRCLE ( 'NONE', #47, 10.00000000000000000 ) ;
#560 = AXIS2_PLACEMENT_3D ( 'NONE', #188, #288, #564 ) ;
#561 = ORIENTED_EDGE ( 'NONE', *, *, #46, .T. ) ;
#562 = FACE_OUTER_BOUND ( 'NONE', #370, .T. ) ;
#563 = VERTEX_POINT ( 'NONE', #217 ) ;
#564 = DIRECTION ( 'NONE',  ( 1.000000000000000000, 0.000000000000000000, 0.000000000000000000 ) ) ;
#565 = CARTESIAN_POINT ( 'NONE',  ( -1.500000000000000000, -7.000000000000000000, 2.000000000000001776 ) ) ;
#566 = AXIS2_PLACEMENT_3D ( 'NONE', #120, #557, #87 ) ;
#567 = DIRECTION ( 'NONE',  ( 1.000000000000000000, 0.000000000000000000, 0.000000000000000000 ) ) ;
#568 = ADVANCED_FACE ( 'NONE', ( #573 ), #263, .T. ) ;
#569 = VECTOR ( 'NONE', #440, 1000.000000000000000 ) ;
#570 = EDGE_CURVE ( 'NONE', #520, #549, #364, .T. ) ;
#571 = LINE ( 'NONE', #429, #98 ) ;
#572 = EDGE_LOOP ( 'NONE', ( #603, #90 ) ) ;
#573 = FACE_OUTER_BOUND ( 'NONE', #76, .T. ) ;
#574 = APPROVAL_DATE_TIME ( #302, #462 ) ;
#575 = PRODUCT_RELATED_PRODUCT_CATEGORY ( 'detail', '', ( #5 ) ) ;
#576 = DIRECTION ( 'NONE',  ( 0.000000000000000000, 0.000000000000000000, -1.000000000000000000 ) ) ;
#577 = VECTOR ( 'NONE', #521, 1000.000000000000000 ) ;
#578 = CARTESIAN_POINT ( 'NONE',  ( 1.500000000000000000, 7.000000000000000000, 0.000000000000000000 ) ) ;
#579 = COORDINATED_UNIVERSAL_TIME_OFFSET ( 6, 0, .BEHIND. ) ;
#580 = ORIENTED_EDGE ( 'NONE', *, *, #111, .T. ) ;
#581 = CARTESIAN_POINT ( 'NONE',  ( -7.000000000000000000, 0.000000000000000000, 2.000000000000001776 ) ) ;
#582 = CARTESIAN_POINT ( 'NONE',  ( 3.049999999999999822, 3.735172737399427146E-16, 2.000000000000000000 ) ) ;
#583 = ORIENTED_EDGE ( 'NONE', *, *, #264, .F. ) ;
#584 = CC_DESIGN_PERSON_AND_ORGANIZATION_ASSIGNMENT ( #357, #451, ( #212 ) ) ;
#585 = DIRECTION ( 'NONE',  ( 1.000000000000000000, 0.000000000000000000, 0.000000000000000000 ) ) ;
#586 = LINE ( 'NONE', #4, #333 ) ;
#587 = PERSON_AND_ORGANIZATION ( #431, #471 ) ;
#588 = CC_DESIGN_APPROVAL ( #558, ( #555 ) ) ;
#589 = AXIS2_PLACEMENT_3D ( 'NONE', #258, #205, #305 ) ;
#590 = EDGE_LOOP ( 'NONE', ( #534, #583 ) ) ;
#591 = VECTOR ( 'NONE', #456, 1000.000000000000000 ) ;
#592 = CARTESIAN_POINT ( 'NONE',  ( 10.00000000000000000, 1.224646799147353256E-15, 0.000000000000000000 ) ) ;
#593 = AXIS2_PLACEMENT_3D ( 'NONE', #407, #366, #115 ) ;
#594 = DIRECTION ( 'NONE',  ( 0.000000000000000000, 0.000000000000000000, -1.000000000000000000 ) ) ;
#595 = CARTESIAN_POINT ( 'NONE',  ( -7.000000000000000000, 0.000000000000000000, 2.000000000000001776 ) ) ;
#596 = ADVANCED_FACE ( 'NONE', ( #544 ), #213, .F. ) ;
#597 = ORIENTED_EDGE ( 'NONE', *, *, #9, .T. ) ;
#598 = EDGE_CURVE ( 'NONE', #215, #10, #69, .T. ) ;
#599 = CYLINDRICAL_SURFACE ( 'NONE', #216, 1.500000000000000444 ) ;
#600 = DIRECTION ( 'NONE',  ( -0.000000000000000000, -0.000000000000000000, -1.000000000000000000 ) ) ;
#601 = ORIENTED_EDGE ( 'NONE', *, *, #619, .T. ) ;
#602 = FACE_BOUND ( 'NONE', #468, .T. ) ;
#603 = ORIENTED_EDGE ( 'NONE', *, *, #294, .F. ) ;
#604 = ORIENTED_EDGE ( 'NONE', *, *, #524, .F. ) ;
#605 = CYLINDRICAL_SURFACE ( 'NONE', #566, 1.500000000000000000 ) ;
#606 = ORIENTED_EDGE ( 'NONE', *, *, #243, .T. ) ;
#607 = VECTOR ( 'NONE', #576, 1000.000000000000000 ) ;
#608 = LINE ( 'NONE', #224, #277 ) ;
#609 = ORIENTED_EDGE ( 'NONE', *, *, #86, .T. ) ;
#610 = FACE_OUTER_BOUND ( 'NONE', #125, .T. ) ;
#611 = VERTEX_POINT ( 'NONE', #208 ) ;
#612 = DIRECTION ( 'NONE',  ( 1.000000000000000000, 0.000000000000000000, -0.000000000000000000 ) ) ;
#613 = CIRCLE ( 'NONE', #349, 4.500000000000000000 ) ;
#614 = VECTOR ( 'NONE', #238, 1000.000000000000000 ) ;
#615 = ORIENTED_EDGE ( 'NONE', *, *, #178, .F. ) ;
#616 = DIRECTION ( 'NONE',  ( 1.000000000000000000, 0.000000000000000000, 0.000000000000000000 ) ) ;
#617 = CYLINDRICAL_SURFACE ( 'NONE', #380, 4.500000000000000000 ) ;
#618 = CARTESIAN_POINT ( 'NONE',  ( 10.00000000000000000, 1.224646799147353256E-15, 2.000000000000000000 ) ) ;
#619 = EDGE_CURVE ( 'NONE', #82, #223, #455, .T. ) ;
#620 = CIRCLE ( 'NONE', #108, 4.500000000000000000 ) ;
#621 = ADVANCED_FACE ( 'NONE', ( #260 ), #401, .F. ) ;
#622 = AXIS2_PLACEMENT_3D ( 'NONE', #314, #499, #201 ) ;
#623 = DIRECTION ( 'NONE',  ( 1.000000000000000000, 0.000000000000000000, 0.000000000000000000 ) ) ;
#624 = CALENDAR_DATE ( 2026, 8, 9 ) ;
#625 = AXIS2_PLACEMENT_3D ( 'NONE', #148, #406, #114 ) ;
ENDSEC;
END-ISO-10303-21;
