ISO-10303-21;
HEADER;
FILE_DESCRIPTION (( 'STEP AP203' ),
    '1' );
FILE_NAME ('HW-003_SG90_NOMINAL_VERIFY.step',
    '2026-09-09T03:18:31',
    ( '' ),
    ( '' ),
    'SwSTEP 2.0',
    'SolidWorks 2026',
    '' );
FILE_SCHEMA (( 'CONFIG_CONTROL_DESIGN' ));
ENDSEC;

DATA;
#1 = EDGE_CURVE ( 'NONE', #435, #324, #680, .T. ) ;
#2 = DATE_AND_TIME ( #721, #396 ) ;
#3 = EDGE_CURVE ( 'NONE', #318, #590, #813, .T. ) ;
#4 = AXIS2_PLACEMENT_3D ( 'NONE', #436, #778, #75 ) ;
#5 = VECTOR ( 'NONE', #279, 1000.000000000000000 ) ;
#6 = ORIENTED_EDGE ( 'NONE', *, *, #750, .T. ) ;
#7 = CARTESIAN_POINT ( 'NONE',  ( -11.00000000000000000, 6.099999999999999645, 0.000000000000000000 ) ) ;
#8 = COORDINATED_UNIVERSAL_TIME_OFFSET ( 6, 0, .BEHIND. ) ;
#9 = VERTEX_POINT ( 'NONE', #96 ) ;
#10 = CARTESIAN_POINT ( 'NONE',  ( -6.000000000000000000, -6.099999999999999645, 4.300000000000001599 ) ) ;
#11 = EDGE_CURVE ( 'NONE', #111, #484, #818, .T. ) ;
#12 = EDGE_LOOP ( 'NONE', ( #283, #139, #390, #121, #563, #32, #933, #373, #897, #247, #853, #249, #709 ) ) ;
#13 = CARTESIAN_POINT ( 'NONE',  ( -2.500000000000000000, 0.000000000000000000, 12.40000000000000213 ) ) ;
#14 = CARTESIAN_POINT ( 'NONE',  ( 2.500000000000000000, 3.061616997868383141E-16, 8.800000000000000711 ) ) ;
#15 = AXIS2_PLACEMENT_3D ( 'NONE', #527, #84, #226 ) ;
#16 = VECTOR ( 'NONE', #603, 1000.000000000000000 ) ;
#17 = ORIENTED_EDGE ( 'NONE', *, *, #559, .F. ) ;
#18 = DIRECTION ( 'NONE',  ( -1.000000000000000000, 0.000000000000000000, 0.000000000000000000 ) ) ;
#19 = ORIENTED_EDGE ( 'NONE', *, *, #532, .T. ) ;
#20 = LINE ( 'NONE', #166, #132 ) ;
#21 = EDGE_CURVE ( 'NONE', #116, #888, #463, .T. ) ;
#22 = DIRECTION ( 'NONE',  ( 0.000000000000000000, 0.000000000000000000, -1.000000000000000000 ) ) ;
#23 = ORIENTED_EDGE ( 'NONE', *, *, #767, .T. ) ;
#24 = DIRECTION ( 'NONE',  ( 0.000000000000000000, 0.000000000000000000, -1.000000000000000000 ) ) ;
#25 = ORIENTED_EDGE ( 'NONE', *, *, #512, .F. ) ;
#26 = CARTESIAN_POINT ( 'NONE',  ( -6.000000000000000000, -6.099999999999999645, 4.300000000000001599 ) ) ;
#27 = CC_DESIGN_PERSON_AND_ORGANIZATION_ASSIGNMENT ( #644, #790, ( #625 ) ) ;
#28 = VECTOR ( 'NONE', #205, 1000.000000000000000 ) ;
#29 = EDGE_LOOP ( 'NONE', ( #839, #658, #88, #207, #876, #871 ) ) ;
#30 = AXIS2_PLACEMENT_3D ( 'NONE', #567, #129, #427 ) ;
#31 = DIRECTION ( 'NONE',  ( -0.000000000000000000, -0.000000000000000000, -1.000000000000000000 ) ) ;
#32 = ORIENTED_EDGE ( 'NONE', *, *, #757, .T. ) ;
#33 = FACE_OUTER_BOUND ( 'NONE', #143, .T. ) ;
#34 = DIRECTION ( 'NONE',  ( 0.000000000000000000, 0.000000000000000000, -1.000000000000000000 ) ) ;
#35 = ORIENTED_EDGE ( 'NONE', *, *, #174, .F. ) ;
#36 = ADVANCED_FACE ( 'NONE', ( #91 ), #758, .T. ) ;
#37 = ORIENTED_EDGE ( 'NONE', *, *, #550, .T. ) ;
#38 = CARTESIAN_POINT ( 'NONE',  ( -11.00000000000000000, -6.099999999999999645, -2.399999999999999911 ) ) ;
#39 = ADVANCED_FACE ( 'NONE', ( #405 ), #106, .F. ) ;
#40 = ORIENTED_EDGE ( 'NONE', *, *, #161, .T. ) ;
#41 = DIRECTION ( 'NONE',  ( 0.000000000000000000, 0.000000000000000000, -1.000000000000000000 ) ) ;
#42 = DIRECTION ( 'NONE',  ( -1.000000000000000000, 0.000000000000000000, 0.000000000000000000 ) ) ;
#43 = EDGE_LOOP ( 'NONE', ( #734, #494, #781, #678 ) ) ;
#44 = VECTOR ( 'NONE', #773, 1000.000000000000000 ) ;
#45 = FACE_OUTER_BOUND ( 'NONE', #593, .T. ) ;
#46 = DIRECTION ( 'NONE',  ( 0.000000000000000000, 0.000000000000000000, 1.000000000000000000 ) ) ;
#47 = ORIENTED_EDGE ( 'NONE', *, *, #672, .T. ) ;
#48 = ADVANCED_FACE ( 'NONE', ( #33 ), #605, .F. ) ;
#49 =( NAMED_UNIT ( * ) PLANE_ANGLE_UNIT ( ) SI_UNIT ( $, .RADIAN. ) );
#50 = DIRECTION ( 'NONE',  ( 1.000000000000000000, 0.000000000000000000, -0.000000000000000000 ) ) ;
#51 = DIRECTION ( 'NONE',  ( 1.000000000000000000, 0.000000000000000000, 0.000000000000000000 ) ) ;
#52 = ORIENTED_EDGE ( 'NONE', *, *, #596, .F. ) ;
#53 = ADVANCED_FACE ( 'NONE', ( #674 ), #238, .T. ) ;
#54 = DIRECTION ( 'NONE',  ( 0.000000000000000000, 0.000000000000000000, 1.000000000000000000 ) ) ;
#55 = CARTESIAN_POINT ( 'NONE',  ( 17.00000000000000000, -6.099999999999999645, 4.300000000000001599 ) ) ;
#56 = VERTEX_POINT ( 'NONE', #556 ) ;
#57 = DIRECTION ( 'NONE',  ( -1.000000000000000000, -0.000000000000000000, -0.000000000000000000 ) ) ;
#58 = VECTOR ( 'NONE', #112, 1000.000000000000000 ) ;
#59 = PERSON_AND_ORGANIZATION ( #880, #801 ) ;
#60 = AXIS2_PLACEMENT_3D ( 'NONE', #554, #42, #113 ) ;
#61 = DIRECTION ( 'NONE',  ( -0.000000000000000000, -0.000000000000000000, -1.000000000000000000 ) ) ;
#62 = DIRECTION ( 'NONE',  ( 0.000000000000000000, 0.000000000000000000, 1.000000000000000000 ) ) ;
#63 = ORIENTED_EDGE ( 'NONE', *, *, #647, .T. ) ;
#64 = CARTESIAN_POINT ( 'NONE',  ( -9.000000000000000000, 0.000000000000000000, 0.000000000000000000 ) ) ;
#65 = PERSON_AND_ORGANIZATION ( #880, #801 ) ;
#66 = PLANE ( 'NONE',  #458 ) ;
#67 = ADVANCED_BREP_SHAPE_REPRESENTATION ( 'HW-003_SG90_NOMINAL_VERIFY', ( #706, #413 ), #743 ) ;
#68 = ADVANCED_FACE ( 'NONE', ( #260 ), #66, .T. ) ;
#69 = ORIENTED_EDGE ( 'NONE', *, *, #730, .T. ) ;
#70 = LINE ( 'NONE', #710, #363 ) ;
#71 = CC_DESIGN_DATE_AND_TIME_ASSIGNMENT ( #873, #296, ( #568 ) ) ;
#72 = APPROVAL_DATE_TIME ( #79, #513 ) ;
#73 = DIRECTION ( 'NONE',  ( -1.000000000000000000, 0.000000000000000000, -0.000000000000000000 ) ) ;
#74 = VERTEX_POINT ( 'NONE', #909 ) ;
#75 = DIRECTION ( 'NONE',  ( -1.000000000000000000, 0.000000000000000000, 0.000000000000000000 ) ) ;
#76 = AXIS2_PLACEMENT_3D ( 'NONE', #295, #850, #654 ) ;
#77 = CIRCLE ( 'NONE', #347, 6.099999999999999645 ) ;
#78 = DIRECTION ( 'NONE',  ( -1.000000000000000000, 0.000000000000000000, 0.000000000000000000 ) ) ;
#79 = DATE_AND_TIME ( #797, #230 ) ;
#80 = EDGE_CURVE ( 'NONE', #111, #509, #630, .T. ) ;
#81 = DIRECTION ( 'NONE',  ( 0.000000000000000000, 1.000000000000000000, 0.000000000000000000 ) ) ;
#82 = DIRECTION ( 'NONE',  ( 0.000000000000000000, 0.000000000000000000, 1.000000000000000000 ) ) ;
#83 = ORIENTED_EDGE ( 'NONE', *, *, #614, .F. ) ;
#84 = DIRECTION ( 'NONE',  ( 0.000000000000000000, 0.000000000000000000, 1.000000000000000000 ) ) ;
#85 = LINE ( 'NONE', #387, #134 ) ;
#86 = AXIS2_PLACEMENT_3D ( 'NONE', #239, #18, #606 ) ;
#87 = AXIS2_PLACEMENT_3D ( 'NONE', #929, #82, #713 ) ;
#88 = ORIENTED_EDGE ( 'NONE', *, *, #418, .T. ) ;
#89 = CARTESIAN_POINT ( 'NONE',  ( 18.89999999999999858, 0.000000000000000000, -2.399999999999999467 ) ) ;
#90 = DIRECTION ( 'NONE',  ( 1.000000000000000000, 0.000000000000000000, 0.000000000000000000 ) ) ;
#91 = FACE_OUTER_BOUND ( 'NONE', #468, .T. ) ;
#92 = PLANE ( 'NONE',  #828 ) ;
#93 = EDGE_CURVE ( 'NONE', #777, #218, #917, .T. ) ;
#94 = EDGE_LOOP ( 'NONE', ( #911, #165, #304, #37, #692, #517, #334, #325, #632, #586, #788, #408, #199 ) ) ;
#95 = ADVANCED_FACE ( 'NONE', ( #707 ), #268, .F. ) ;
#96 = CARTESIAN_POINT ( 'NONE',  ( 2.500000000000000000, 3.061616997868383141E-16, 12.40000000000000213 ) ) ;
#97 = DIRECTION ( 'NONE',  ( -0.000000000000000000, -0.000000000000000000, -1.000000000000000000 ) ) ;
#98 = ORIENTED_EDGE ( 'NONE', *, *, #263, .T. ) ;
#99 = AXIS2_PLACEMENT_3D ( 'NONE', #64, #131, #78 ) ;
#100 = DIRECTION ( 'NONE',  ( -0.000000000000000000, -0.000000000000000000, 1.000000000000000000 ) ) ;
#101 = VECTOR ( 'NONE', #652, 1000.000000000000000 ) ;
#102 = CARTESIAN_POINT ( 'NONE',  ( -6.000000000000000000, 6.099999999999999645, -18.30000000000000071 ) ) ;
#103 = ORIENTED_EDGE ( 'NONE', *, *, #737, .T. ) ;
#104 = LINE ( 'NONE', #470, #669 ) ;
#105 = EDGE_CURVE ( 'NONE', #327, #466, #841, .T. ) ;
#106 = PLANE ( 'NONE',  #844 ) ;
#107 = CARTESIAN_POINT ( 'NONE',  ( 0.000000000000000000, 0.000000000000000000, 4.299999999999999822 ) ) ;
#108 = VERTEX_POINT ( 'NONE', #119 ) ;
#109 = DIRECTION ( 'NONE',  ( -0.000000000000000000, -0.000000000000000000, -1.000000000000000000 ) ) ;
#110 = DIRECTION ( 'NONE',  ( -0.000000000000000000, -0.000000000000000000, 1.000000000000000000 ) ) ;
#111 = VERTEX_POINT ( 'NONE', #337 ) ;
#112 = DIRECTION ( 'NONE',  ( -0.000000000000000000, -0.000000000000000000, -1.000000000000000000 ) ) ;
#113 = DIRECTION ( 'NONE',  ( 0.000000000000000000, 0.000000000000000000, 1.000000000000000000 ) ) ;
#114 = ADVANCED_FACE ( 'NONE', ( #500 ), #490, .F. ) ;
#115 = AXIS2_PLACEMENT_3D ( 'NONE', #384, #522, #802 ) ;
#116 = VERTEX_POINT ( 'NONE', #645 ) ;
#117 = VECTOR ( 'NONE', #900, 1000.000000000000000 ) ;
#118 = DIRECTION ( 'NONE',  ( 0.000000000000000000, 0.000000000000000000, 1.000000000000000000 ) ) ;
#119 = CARTESIAN_POINT ( 'NONE',  ( -6.000000000000000000, -6.099999999999999645, -2.399999999999999911 ) ) ;
#120 = CARTESIAN_POINT ( 'NONE',  ( 20.00000000000000000, 0.000000000000000000, 12.40000000000000213 ) ) ;
#121 = ORIENTED_EDGE ( 'NONE', *, *, #336, .T. ) ;
#122 = ADVANCED_FACE ( 'NONE', ( #772 ), #912, .F. ) ;
#123 = DIRECTION ( 'NONE',  ( 1.000000000000000000, 0.000000000000000000, 0.000000000000000000 ) ) ;
#124 = CARTESIAN_POINT ( 'NONE',  ( 0.000000000000000000, 0.000000000000000000, 8.800000000000000711 ) ) ;
#125 = PLANE ( 'NONE',  #697 ) ;
#126 = ORIENTED_EDGE ( 'NONE', *, *, #404, .F. ) ;
#127 = DIRECTION ( 'NONE',  ( -0.000000000000000000, -0.000000000000000000, -1.000000000000000000 ) ) ;
#128 = DIRECTION ( 'NONE',  ( -0.000000000000000000, -0.000000000000000000, -1.000000000000000000 ) ) ;
#129 = DIRECTION ( 'NONE',  ( 1.000000000000000000, 0.000000000000000000, 0.000000000000000000 ) ) ;
#130 = ORIENTED_EDGE ( 'NONE', *, *, #190, .T. ) ;
#131 = DIRECTION ( 'NONE',  ( -0.000000000000000000, -0.000000000000000000, 1.000000000000000000 ) ) ;
#132 = VECTOR ( 'NONE', #805, 1000.000000000000000 ) ;
#133 = COORDINATED_UNIVERSAL_TIME_OFFSET ( 6, 0, .BEHIND. ) ;
#134 = VECTOR ( 'NONE', #531, 1000.000000000000000 ) ;
#135 = EDGE_CURVE ( 'NONE', #284, #731, #193, .T. ) ;
#136 = LINE ( 'NONE', #922, #300 ) ;
#137 = EDGE_CURVE ( 'NONE', #763, #466, #445, .T. ) ;
#138 = DIRECTION ( 'NONE',  ( 0.000000000000000000, 0.000000000000000000, -1.000000000000000000 ) ) ;
#139 = ORIENTED_EDGE ( 'NONE', *, *, #3, .F. ) ;
#140 = CARTESIAN_POINT ( 'NONE',  ( -11.00000000000000000, -6.099999999999999645, -2.399999999999999911 ) ) ;
#141 = APPROVAL_ROLE ( '' ) ;
#142 = DIRECTION ( 'NONE',  ( -1.000000000000000000, 0.000000000000000000, 0.000000000000000000 ) ) ;
#143 = EDGE_LOOP ( 'NONE', ( #103, #19, #421, #749 ) ) ;
#144 = EDGE_LOOP ( 'NONE', ( #276, #359, #180, #529 ) ) ;
#145 = DIRECTION ( 'NONE',  ( 0.000000000000000000, 0.000000000000000000, -1.000000000000000000 ) ) ;
#146 = DATE_AND_TIME ( #525, #197 ) ;
#147 = LINE ( 'NONE', #140, #286 ) ;
#148 = EDGE_CURVE ( 'NONE', #318, #353, #410, .T. ) ;
#149 = PERSON_AND_ORGANIZATION_ROLE ( 'design_supplier' ) ;
#150 = VECTOR ( 'NONE', #601, 1000.000000000000000 ) ;
#151 = ORIENTED_EDGE ( 'NONE', *, *, #866, .T. ) ;
#152 = CARTESIAN_POINT ( 'NONE',  ( -6.000000000000000000, -6.099999999999999645, 0.000000000000000000 ) ) ;
#153 = PERSON_AND_ORGANIZATION ( #880, #801 ) ;
#154 = EDGE_CURVE ( 'NONE', #829, #599, #136, .T. ) ;
#155 = CARTESIAN_POINT ( 'NONE',  ( 0.000000000000000000, 0.000000000000000000, 4.299999999999999822 ) ) ;
#156 = CARTESIAN_POINT ( 'NONE',  ( 17.00000000000000000, -6.099999999999999645, 4.300000000000001599 ) ) ;
#157 = ORIENTED_EDGE ( 'NONE', *, *, #694, .F. ) ;
#158 = CARTESIAN_POINT ( 'NONE',  ( -6.000000000000000000, 6.099999999999999645, 4.300000000000001599 ) ) ;
#159 = DIRECTION ( 'NONE',  ( 1.000000000000000000, 0.000000000000000000, 0.000000000000000000 ) ) ;
#160 = VECTOR ( 'NONE', #127, 1000.000000000000000 ) ;
#161 = EDGE_CURVE ( 'NONE', #666, #760, #703, .T. ) ;
#162 = AXIS2_PLACEMENT_3D ( 'NONE', #120, #187, #416 ) ;
#163 = APPROVAL_PERSON_ORGANIZATION ( #443, #513, #504 ) ;
#164 = EDGE_CURVE ( 'NONE', #509, #56, #505, .T. ) ;
#165 = ORIENTED_EDGE ( 'NONE', *, *, #878, .F. ) ;
#166 = CARTESIAN_POINT ( 'NONE',  ( -11.00000000000000000, -6.099999999999999645, -2.399999999999999911 ) ) ;
#167 = DIRECTION ( 'NONE',  ( 0.000000000000000000, -1.000000000000000000, 0.000000000000000000 ) ) ;
#168 = CARTESIAN_POINT ( 'NONE',  ( 20.00000000000000000, 0.000000000000000000, 0.000000000000000000 ) ) ;
#169 = DIRECTION ( 'NONE',  ( 0.000000000000000000, 0.000000000000000000, -1.000000000000000000 ) ) ;
#170 = EDGE_LOOP ( 'NONE', ( #177, #705, #6, #695 ) ) ;
#171 = ORIENTED_EDGE ( 'NONE', *, *, #538, .F. ) ;
#172 = CARTESIAN_POINT ( 'NONE',  ( -6.099999999999999645, 0.000000000000000000, 4.299999999999999822 ) ) ;
#173 = ORIENTED_EDGE ( 'NONE', *, *, #315, .T. ) ;
#174 = EDGE_CURVE ( 'NONE', #9, #731, #928, .T. ) ;
#175 = CARTESIAN_POINT ( 'NONE',  ( 20.00000000000000000, 0.000000000000000000, -2.399999999999999467 ) ) ;
#176 = AXIS2_PLACEMENT_3D ( 'NONE', #751, #109, #388 ) ;
#177 = ORIENTED_EDGE ( 'NONE', *, *, #185, .F. ) ;
#178 = AXIS2_PLACEMENT_3D ( 'NONE', #537, #677, #159 ) ;
#179 = DIRECTION ( 'NONE',  ( 1.000000000000000000, 0.000000000000000000, 0.000000000000000000 ) ) ;
#180 = ORIENTED_EDGE ( 'NONE', *, *, #916, .T. ) ;
#181 = CARTESIAN_POINT ( 'NONE',  ( 17.00000000000000000, -6.099999999999999645, -2.399999999999999467 ) ) ;
#182 = ORIENTED_EDGE ( 'NONE', *, *, #629, .T. ) ;
#183 = CYLINDRICAL_SURFACE ( 'NONE', #162, 1.100000000000000311 ) ;
#184 = ORIENTED_EDGE ( 'NONE', *, *, #538, .T. ) ;
#185 = EDGE_CURVE ( 'NONE', #453, #487, #857, .T. ) ;
#186 = DIRECTION ( 'NONE',  ( 0.000000000000000000, 0.000000000000000000, 1.000000000000000000 ) ) ;
#187 = DIRECTION ( 'NONE',  ( 0.000000000000000000, 0.000000000000000000, -1.000000000000000000 ) ) ;
#188 = ORIENTED_EDGE ( 'NONE', *, *, #633, .F. ) ;
#189 = CARTESIAN_POINT ( 'NONE',  ( 0.000000000000000000, 0.000000000000000000, 12.40000000000000213 ) ) ;
#190 = EDGE_CURVE ( 'NONE', #108, #829, #786, .T. ) ;
#191 = DIRECTION ( 'NONE',  ( 0.000000000000000000, 0.000000000000000000, -1.000000000000000000 ) ) ;
#192 = DIRECTION ( 'NONE',  ( 0.000000000000000000, 0.000000000000000000, 1.000000000000000000 ) ) ;
#193 = CIRCLE ( 'NONE', #696, 2.500000000000000000 ) ;
#194 = CC_DESIGN_PERSON_AND_ORGANIZATION_ASSIGNMENT ( #59, #220, ( #568 ) ) ;
#195 = VECTOR ( 'NONE', #831, 1000.000000000000000 ) ;
#196 = ORIENTED_EDGE ( 'NONE', *, *, #442, .F. ) ;
#197 = LOCAL_TIME ( 22, 18, 31.00000000000000000, #716 ) ;
#198 = CARTESIAN_POINT ( 'NONE',  ( -6.099999999999999645, 0.000000000000000000, 8.799999999999998934 ) ) ;
#199 = ORIENTED_EDGE ( 'NONE', *, *, #650, .F. ) ;
#200 = CARTESIAN_POINT ( 'NONE',  ( -6.000000000000000000, -6.099999999999999645, 4.300000000000001599 ) ) ;
#201 = FACE_OUTER_BOUND ( 'NONE', #414, .T. ) ;
#202 = EDGE_LOOP ( 'NONE', ( #892, #372 ) ) ;
#203 = DIRECTION ( 'NONE',  ( -1.000000000000000000, 0.000000000000000000, -0.000000000000000000 ) ) ;
#204 = APPLICATION_PROTOCOL_DEFINITION ( 'international standard', 'config_control_design', 1994, #691 ) ;
#205 = DIRECTION ( 'NONE',  ( 0.000000000000000000, -1.000000000000000000, 0.000000000000000000 ) ) ;
#206 = CARTESIAN_POINT ( 'NONE',  ( -10.09999999999999964, 0.000000000000000000, 0.000000000000000000 ) ) ;
#207 = ORIENTED_EDGE ( 'NONE', *, *, #633, .T. ) ;
#208 = FACE_OUTER_BOUND ( 'NONE', #449, .T. ) ;
#209 = ADVANCED_FACE ( 'NONE', ( #45 ), #869, .F. ) ;
#210 = DATE_TIME_ROLE ( 'classification_date' ) ;
#211 = CARTESIAN_POINT ( 'NONE',  ( 17.00000000000000000, 6.099999999999999645, 4.300000000000001599 ) ) ;
#212 = CARTESIAN_POINT ( 'NONE',  ( -6.000000000000000000, -6.099999999999999645, -18.30000000000000071 ) ) ;
#213 = ORIENTED_EDGE ( 'NONE', *, *, #137, .F. ) ;
#214 = DIRECTION ( 'NONE',  ( -1.000000000000000000, 0.000000000000000000, -0.000000000000000000 ) ) ;
#215 = AXIS2_PLACEMENT_3D ( 'NONE', #467, #81, #665 ) ;
#216 = AXIS2_PLACEMENT_3D ( 'NONE', #424, #221, #516 ) ;
#217 = CARTESIAN_POINT ( 'NONE',  ( 0.000000000000000000, 0.000000000000000000, 0.000000000000000000 ) ) ;
#218 = VERTEX_POINT ( 'NONE', #503 ) ;
#219 = FACE_OUTER_BOUND ( 'NONE', #480, .T. ) ;
#220 = PERSON_AND_ORGANIZATION_ROLE ( 'creator' ) ;
#221 = DIRECTION ( 'NONE',  ( 0.000000000000000000, 0.000000000000000000, 1.000000000000000000 ) ) ;
#222 = EDGE_CURVE ( 'NONE', #777, #843, #887, .T. ) ;
#223 = ORIENTED_EDGE ( 'NONE', *, *, #764, .T. ) ;
#224 = CARTESIAN_POINT ( 'NONE',  ( 17.00000000000000000, -6.099999999999999645, 4.300000000000001599 ) ) ;
#225 = ORIENTED_EDGE ( 'NONE', *, *, #442, .T. ) ;
#226 = DIRECTION ( 'NONE',  ( 1.000000000000000000, 0.000000000000000000, 0.000000000000000000 ) ) ;
#227 = APPROVAL ( #371, 'UNSPECIFIED' ) ;
#228 = CIRCLE ( 'NONE', #581, 1.100000000000000311 ) ;
#229 = AXIS2_PLACEMENT_3D ( 'NONE', #598, #375, #932 ) ;
#230 = LOCAL_TIME ( 22, 18, 31.00000000000000000, #725 ) ;
#231 = LINE ( 'NONE', #450, #535 ) ;
#232 = FACE_BOUND ( 'NONE', #521, .T. ) ;
#233 = DIRECTION ( 'NONE',  ( -0.000000000000000000, 1.000000000000000000, 0.000000000000000000 ) ) ;
#234 = ADVANCED_FACE ( 'NONE', ( #285 ), #515, .F. ) ;
#235 = CARTESIAN_POINT ( 'NONE',  ( 0.000000000000000000, 0.000000000000000000, 12.40000000000000213 ) ) ;
#236 = CC_DESIGN_PERSON_AND_ORGANIZATION_ASSIGNMENT ( #350, #519, ( #855 ) ) ;
#237 = CARTESIAN_POINT ( 'NONE',  ( 0.000000000000000000, 0.000000000000000000, -2.399999999999999911 ) ) ;
#238 = CYLINDRICAL_SURFACE ( 'NONE', #874, 6.099999999999999645 ) ;
#239 = CARTESIAN_POINT ( 'NONE',  ( 17.00000000000000000, -6.099999999999999645, 4.300000000000001599 ) ) ;
#240 = EDGE_LOOP ( 'NONE', ( #774, #385 ) ) ;
#241 = CARTESIAN_POINT ( 'NONE',  ( -6.000000000000000000, 1.099999999999995426, 4.299999999999999822 ) ) ;
#242 = VECTOR ( 'NONE', #31, 1000.000000000000000 ) ;
#243 = AXIS2_PLACEMENT_3D ( 'NONE', #902, #90, #885 ) ;
#244 = APPROVAL_PERSON_ORGANIZATION ( #153, #368, #141 ) ;
#245 = VERTEX_POINT ( 'NONE', #441 ) ;
#246 = DIRECTION ( 'NONE',  ( 0.000000000000000000, 0.000000000000000000, 1.000000000000000000 ) ) ;
#247 = ORIENTED_EDGE ( 'NONE', *, *, #867, .F. ) ;
#248 = FACE_OUTER_BOUND ( 'NONE', #144, .T. ) ;
#249 = ORIENTED_EDGE ( 'NONE', *, *, #21, .F. ) ;
#250 = DIRECTION ( 'NONE',  ( 1.000000000000000000, 0.000000000000000000, 0.000000000000000000 ) ) ;
#251 = EDGE_LOOP ( 'NONE', ( #196, #83, #859, #311, #157, #399 ) ) ;
#252 = CARTESIAN_POINT ( 'NONE',  ( 0.000000000000000000, 0.000000000000000000, 8.799999999999998934 ) ) ;
#253 = DIRECTION ( 'NONE',  ( -0.000000000000000000, -0.000000000000000000, -1.000000000000000000 ) ) ;
#254 = VECTOR ( 'NONE', #431, 1000.000000000000000 ) ;
#255 = ORIENTED_EDGE ( 'NONE', *, *, #908, .T. ) ;
#256 = VECTOR ( 'NONE', #97, 1000.000000000000000 ) ;
#257 = FACE_OUTER_BOUND ( 'NONE', #686, .T. ) ;
#258 = ORIENTED_EDGE ( 'NONE', *, *, #190, .F. ) ;
#259 = PRODUCT_DEFINITION_SHAPE ( 'NONE', 'NONE',  #568 ) ;
#260 = FACE_OUTER_BOUND ( 'NONE', #383, .T. ) ;
#261 = CARTESIAN_POINT ( 'NONE',  ( 0.000000000000000000, 0.000000000000000000, 4.299999999999999822 ) ) ;
#262 = ORIENTED_EDGE ( 'NONE', *, *, #80, .T. ) ;
#263 = EDGE_CURVE ( 'NONE', #888, #74, #510, .T. ) ;
#264 = EDGE_CURVE ( 'NONE', #829, #745, #70, .T. ) ;
#265 = DIRECTION ( 'NONE',  ( 0.000000000000000000, 1.000000000000000000, 0.000000000000000000 ) ) ;
#266 = CARTESIAN_POINT ( 'NONE',  ( 17.00000000000000000, 6.099999999999999645, 0.000000000000000000 ) ) ;
#267 = EDGE_LOOP ( 'NONE', ( #184, #684, #297, #690 ) ) ;
#268 = PLANE ( 'NONE',  #656 ) ;
#269 = DIRECTION ( 'NONE',  ( -1.000000000000000000, 0.000000000000000000, -0.000000000000000000 ) ) ;
#270 = VECTOR ( 'NONE', #879, 1000.000000000000000 ) ;
#271 = ORIENTED_EDGE ( 'NONE', *, *, #835, .F. ) ;
#272 = PRODUCT_DEFINITION_FORMATION_WITH_SPECIFIED_SOURCE ( 'ANY', '', #855, .NOT_KNOWN. ) ;
#273 = CARTESIAN_POINT ( 'NONE',  ( 5.447499999999998899, 2.744948770013750483, 6.549999999999999822 ) ) ;
#274 = DIRECTION ( 'NONE',  ( -1.000000000000000000, -0.000000000000000000, -0.000000000000000000 ) ) ;
#275 = EDGE_CURVE ( 'NONE', #294, #745, #663, .T. ) ;
#276 = ORIENTED_EDGE ( 'NONE', *, *, #407, .F. ) ;
#277 = FACE_BOUND ( 'NONE', #322, .T. ) ;
#278 = CARTESIAN_POINT ( 'NONE',  ( 2.500000000000000000, 3.061616997868383141E-16, 12.40000000000000213 ) ) ;
#279 = DIRECTION ( 'NONE',  ( -0.000000000000000000, -1.000000000000000000, -0.000000000000000000 ) ) ;
#280 = VERTEX_POINT ( 'NONE', #578 ) ;
#281 = LINE ( 'NONE', #10, #409 ) ;
#282 = PLANE ( 'NONE',  #30 ) ;
#283 = ORIENTED_EDGE ( 'NONE', *, *, #614, .T. ) ;
#284 = VERTEX_POINT ( 'NONE', #349 ) ;
#285 = FACE_OUTER_BOUND ( 'NONE', #356, .T. ) ;
#286 = VECTOR ( 'NONE', #446, 1000.000000000000000 ) ;
#287 = APPROVAL_DATE_TIME ( #655, #227 ) ;
#288 = AXIS2_PLACEMENT_3D ( 'NONE', #545, #46, #402 ) ;
#289 = EDGE_CURVE ( 'NONE', #599, #636, #723, .T. ) ;
#290 = EDGE_LOOP ( 'NONE', ( #342, #40, #728, #262 ) ) ;
#291 = ORIENTED_EDGE ( 'NONE', *, *, #848, .F. ) ;
#292 = CARTESIAN_POINT ( 'NONE',  ( 20.00000000000000000, 0.000000000000000000, -2.399999999999999467 ) ) ;
#293 = ADVANCED_FACE ( 'NONE', ( #208 ), #729, .F. ) ;
#294 = VERTEX_POINT ( 'NONE', #934 ) ;
#295 = CARTESIAN_POINT ( 'NONE',  ( 0.000000000000000000, 0.000000000000000000, 4.300000000000001599 ) ) ;
#296 = DATE_TIME_ROLE ( 'creation_date' ) ;
#297 = ORIENTED_EDGE ( 'NONE', *, *, #866, .F. ) ;
#298 = EDGE_LOOP ( 'NONE', ( #69, #381, #676 ) ) ;
#299 = DIRECTION ( 'NONE',  ( -0.000000000000000000, -0.000000000000000000, -1.000000000000000000 ) ) ;
#300 = VECTOR ( 'NONE', #851, 1000.000000000000000 ) ;
#301 = CIRCLE ( 'NONE', #87, 6.099999999999999645 ) ;
#302 = PLANE ( 'NONE',  #459 ) ;
#303 = LOCAL_TIME ( 22, 18, 31.00000000000000000, #588 ) ;
#304 = ORIENTED_EDGE ( 'NONE', *, *, #164, .T. ) ;
#305 = LINE ( 'NONE', #152, #770 ) ;
#306 = ADVANCED_FACE ( 'NONE', ( #860 ), #926, .F. ) ;
#307 = ADVANCED_FACE ( 'NONE', ( #277, #354 ), #649, .T. ) ;
#308 = LINE ( 'NONE', #181, #489 ) ;
#309 = EDGE_LOOP ( 'NONE', ( #700, #52, #291, #798 ) ) ;
#310 = CARTESIAN_POINT ( 'NONE',  ( 17.00000000000000000, 6.099999999999999645, -2.399999999999999911 ) ) ;
#311 = ORIENTED_EDGE ( 'NONE', *, *, #764, .F. ) ;
#312 = DIRECTION ( 'NONE',  ( -1.000000000000000000, 0.000000000000000000, -0.000000000000000000 ) ) ;
#313 = ORIENTED_EDGE ( 'NONE', *, *, #263, .F. ) ;
#314 = VECTOR ( 'NONE', #128, 1000.000000000000000 ) ;
#315 = EDGE_CURVE ( 'NONE', #648, #482, #228, .T. ) ;
#316 = VECTOR ( 'NONE', #51, 1000.000000000000000 ) ;
#317 = CC_DESIGN_APPROVAL ( #513, ( #272 ) ) ;
#318 = VERTEX_POINT ( 'NONE', #931 ) ;
#319 = LINE ( 'NONE', #38, #44 ) ;
#320 = ORIENTED_EDGE ( 'NONE', *, *, #481, .F. ) ;
#321 = LINE ( 'NONE', #613, #727 ) ;
#322 = EDGE_LOOP ( 'NONE', ( #577, #173 ) ) ;
#323 = PLANE ( 'NONE',  #60 ) ;
#324 = VERTEX_POINT ( 'NONE', #587 ) ;
#325 = ORIENTED_EDGE ( 'NONE', *, *, #264, .T. ) ;
#326 = CARTESIAN_POINT ( 'NONE',  ( 21.10000000000000142, 1.347111479062088750E-16, -2.399999999999999467 ) ) ;
#327 = VERTEX_POINT ( 'NONE', #854 ) ;
#328 = CARTESIAN_POINT ( 'NONE',  ( 0.000000000000000000, 0.000000000000000000, 0.000000000000000000 ) ) ;
#329 = VECTOR ( 'NONE', #471, 1000.000000000000000 ) ;
#330 = DIRECTION ( 'NONE',  ( -1.000000000000000000, 0.000000000000000000, 0.000000000000000000 ) ) ;
#331 = AXIS2_PLACEMENT_3D ( 'NONE', #840, #118, #123 ) ;
#332 = CARTESIAN_POINT ( 'NONE',  ( 5.447499999999998899, -2.744948770013750483, 4.299999999999999822 ) ) ;
#333 = CC_DESIGN_SECURITY_CLASSIFICATION ( #625, ( #272 ) ) ;
#334 = ORIENTED_EDGE ( 'NONE', *, *, #154, .F. ) ;
#335 = EDGE_CURVE ( 'NONE', #562, #116, #281, .T. ) ;
#336 = EDGE_CURVE ( 'NONE', #353, #108, #147, .T. ) ;
#337 = CARTESIAN_POINT ( 'NONE',  ( 22.00000000000000000, -6.099999999999999645, 0.000000000000000000 ) ) ;
#338 = CARTESIAN_POINT ( 'NONE',  ( -6.000000000000000000, 6.099999999999999645, 4.300000000000001599 ) ) ;
#339 = ORIENTED_EDGE ( 'NONE', *, *, #11, .T. ) ;
#340 = DIRECTION ( 'NONE',  ( 1.000000000000000000, 0.000000000000000000, -0.000000000000000000 ) ) ;
#341 = CARTESIAN_POINT ( 'NONE',  ( -6.000000000000000000, 6.099999999999999645, 4.300000000000001599 ) ) ;
#342 = ORIENTED_EDGE ( 'NONE', *, *, #878, .T. ) ;
#343 = EDGE_CURVE ( 'NONE', #498, #218, #814, .T. ) ;
#344 = DIRECTION ( 'NONE',  ( 1.000000000000000000, 0.000000000000000000, 0.000000000000000000 ) ) ;
#345 = DIRECTION ( 'NONE',  ( -0.000000000000000000, -0.000000000000000000, -1.000000000000000000 ) ) ;
#346 = VECTOR ( 'NONE', #191, 1000.000000000000000 ) ;
#347 = AXIS2_PLACEMENT_3D ( 'NONE', #847, #62, #852 ) ;
#348 = ORIENTED_EDGE ( 'NONE', *, *, #694, .T. ) ;
#349 = CARTESIAN_POINT ( 'NONE',  ( -2.500000000000000000, 0.000000000000000000, 8.800000000000000711 ) ) ;
#350 = PERSON_AND_ORGANIZATION ( #880, #801 ) ;
#351 = CARTESIAN_POINT ( 'NONE',  ( 17.00000000000000000, -6.099999999999999645, 0.000000000000000000 ) ) ;
#352 = DIRECTION ( 'NONE',  ( 0.000000000000000000, 0.000000000000000000, 1.000000000000000000 ) ) ;
#353 = VERTEX_POINT ( 'NONE', #865 ) ;
#354 = FACE_OUTER_BOUND ( 'NONE', #43, .T. ) ;
#355 = APPROVAL_DATE_TIME ( #146, #368 ) ;
#356 = EDGE_LOOP ( 'NONE', ( #602, #533, #823, #747 ) ) ;
#357 = FACE_BOUND ( 'NONE', #440, .T. ) ;
#358 = ORIENTED_EDGE ( 'NONE', *, *, #908, .F. ) ;
#359 = ORIENTED_EDGE ( 'NONE', *, *, #174, .T. ) ;
#360 = DIRECTION ( 'NONE',  ( 0.000000000000000000, 0.000000000000000000, -1.000000000000000000 ) ) ;
#361 = ADVANCED_FACE ( 'NONE', ( #219 ), #364, .T. ) ;
#362 = CALENDAR_DATE ( 2026, 8, 9 ) ;
#363 = VECTOR ( 'NONE', #57, 1000.000000000000000 ) ;
#364 = CYLINDRICAL_SURFACE ( 'NONE', #905, 6.099999999999999645 ) ;
#365 = VECTOR ( 'NONE', #575, 1000.000000000000000 ) ;
#366 = ADVANCED_FACE ( 'NONE', ( #890 ), #92, .T. ) ;
#367 = AXIS2_PLACEMENT_3D ( 'NONE', #235, #543, #812 ) ;
#368 = APPROVAL ( #870, 'UNSPECIFIED' ) ;
#369 = ORIENTED_EDGE ( 'NONE', *, *, #154, .T. ) ;
#370 = DIRECTION ( 'NONE',  ( 0.000000000000000000, 1.000000000000000000, 0.000000000000000000 ) ) ;
#371 = APPROVAL_STATUS ( 'not_yet_approved' ) ;
#372 = ORIENTED_EDGE ( 'NONE', *, *, #343, .T. ) ;
#373 = ORIENTED_EDGE ( 'NONE', *, *, #376, .T. ) ;
#374 = CARTESIAN_POINT ( 'NONE',  ( -6.000000000000000000, 6.099999999999999645, 0.000000000000000000 ) ) ;
#375 = DIRECTION ( 'NONE',  ( 0.000000000000000000, 0.000000000000000000, 1.000000000000000000 ) ) ;
#376 = EDGE_CURVE ( 'NONE', #542, #484, #20, .T. ) ;
#377 = ORIENTED_EDGE ( 'NONE', *, *, #407, .T. ) ;
#378 = DIRECTION ( 'NONE',  ( -1.000000000000000000, 0.000000000000000000, 0.000000000000000000 ) ) ;
#379 = VECTOR ( 'NONE', #299, 1000.000000000000000 ) ;
#380 = AXIS2_PLACEMENT_3D ( 'NONE', #237, #589, #73 ) ;
#381 = ORIENTED_EDGE ( 'NONE', *, *, #907, .T. ) ;
#382 = DIRECTION ( 'NONE',  ( -0.000000000000000000, -0.000000000000000000, -1.000000000000000000 ) ) ;
#383 = EDGE_LOOP ( 'NONE', ( #255, #377 ) ) ;
#384 = CARTESIAN_POINT ( 'NONE',  ( -9.000000000000000000, 0.000000000000000000, -2.399999999999999467 ) ) ;
#385 = ORIENTED_EDGE ( 'NONE', *, *, #1, .F. ) ;
#386 = EDGE_CURVE ( 'NONE', #324, #482, #231, .T. ) ;
#387 = CARTESIAN_POINT ( 'NONE',  ( -11.00000000000000000, -6.099999999999999645, 0.000000000000000000 ) ) ;
#388 = DIRECTION ( 'NONE',  ( -1.000000000000000000, 0.000000000000000000, 0.000000000000000000 ) ) ;
#389 = LINE ( 'NONE', #679, #845 ) ;
#390 = ORIENTED_EDGE ( 'NONE', *, *, #148, .T. ) ;
#391 = AXIS2_PLACEMENT_3D ( 'NONE', #168, #100, #330 ) ;
#392 = AXIS2_PLACEMENT_3D ( 'NONE', #659, #499, #782 ) ;
#393 = CARTESIAN_POINT ( 'NONE',  ( -7.899999999999999467, 1.347111479062088750E-16, 0.000000000000000000 ) ) ;
#394 = CC_DESIGN_DATE_AND_TIME_ASSIGNMENT ( #2, #210, ( #625 ) ) ;
#395 = AXIS2_PLACEMENT_3D ( 'NONE', #261, #192, #250 ) ;
#396 = LOCAL_TIME ( 22, 18, 31.00000000000000000, #133 ) ;
#397 = DIRECTION ( 'NONE',  ( 0.000000000000000000, -1.000000000000000000, 0.000000000000000000 ) ) ;
#398 = DIRECTION ( 'NONE',  ( -1.000000000000000000, 0.000000000000000000, 0.000000000000000000 ) ) ;
#399 = ORIENTED_EDGE ( 'NONE', *, *, #438, .T. ) ;
#400 = CARTESIAN_POINT ( 'NONE',  ( 17.00000000000000000, -6.099999999999999645, 4.300000000000001599 ) ) ;
#401 = EDGE_LOOP ( 'NONE', ( #722, #809, #313, #610 ) ) ;
#402 = DIRECTION ( 'NONE',  ( 1.000000000000000000, 0.000000000000000000, 0.000000000000000000 ) ) ;
#403 = ORIENTED_EDGE ( 'NONE', *, *, #80, .F. ) ;
#404 = EDGE_CURVE ( 'NONE', #218, #498, #740, .T. ) ;
#405 = FACE_OUTER_BOUND ( 'NONE', #94, .T. ) ;
#406 = DIRECTION ( 'NONE',  ( -1.000000000000000000, -0.000000000000000000, -0.000000000000000000 ) ) ;
#407 = EDGE_CURVE ( 'NONE', #9, #280, #428, .T. ) ;
#408 = ORIENTED_EDGE ( 'NONE', *, *, #767, .F. ) ;
#409 = VECTOR ( 'NONE', #789, 1000.000000000000000 ) ;
#410 = LINE ( 'NONE', #426, #920 ) ;
#411 = VECTOR ( 'NONE', #345, 1000.000000000000000 ) ;
#412 = DIRECTION ( 'NONE',  ( -0.000000000000000000, -0.000000000000000000, -1.000000000000000000 ) ) ;
#413 = AXIS2_PLACEMENT_3D ( 'NONE', #328, #423, #901 ) ;
#414 = EDGE_LOOP ( 'NONE', ( #768, #225, #47, #151 ) ) ;
#415 = DIRECTION ( 'NONE',  ( 0.000000000000000000, 0.000000000000000000, -1.000000000000000000 ) ) ;
#416 = DIRECTION ( 'NONE',  ( -1.000000000000000000, 0.000000000000000000, 0.000000000000000000 ) ) ;
#417 = ORIENTED_EDGE ( 'NONE', *, *, #335, .T. ) ;
#418 = EDGE_CURVE ( 'NONE', #662, #622, #551, .T. ) ;
#419 = DIRECTION ( 'NONE',  ( 0.000000000000000000, 0.000000000000000000, 1.000000000000000000 ) ) ;
#420 = FACE_OUTER_BOUND ( 'NONE', #290, .T. ) ;
#421 = ORIENTED_EDGE ( 'NONE', *, *, #886, .F. ) ;
#422 = CARTESIAN_POINT ( 'NONE',  ( 0.000000000000000000, 0.000000000000000000, 8.799999999999998934 ) ) ;
#423 = DIRECTION ( 'NONE',  ( 0.000000000000000000, 0.000000000000000000, 1.000000000000000000 ) ) ;
#424 = CARTESIAN_POINT ( 'NONE',  ( 0.000000000000000000, 0.000000000000000000, 8.799999999999998934 ) ) ;
#425 = CC_DESIGN_PERSON_AND_ORGANIZATION_ASSIGNMENT ( #861, #149, ( #272 ) ) ;
#426 = CARTESIAN_POINT ( 'NONE',  ( -11.00000000000000000, -6.099999999999999645, 0.000000000000000000 ) ) ;
#427 = DIRECTION ( 'NONE',  ( 0.000000000000000000, 0.000000000000000000, -1.000000000000000000 ) ) ;
#428 = CIRCLE ( 'NONE', #15, 2.500000000000000000 ) ;
#429 = AXIS2_PLACEMENT_3D ( 'NONE', #455, #138, #528 ) ;
#430 = ORIENTED_EDGE ( 'NONE', *, *, #264, .F. ) ;
#431 = DIRECTION ( 'NONE',  ( -0.000000000000000000, -1.000000000000000000, -0.000000000000000000 ) ) ;
#432 = LOCAL_TIME ( 22, 18, 31.00000000000000000, #8 ) ;
#433 = CARTESIAN_POINT ( 'NONE',  ( -6.000000000000000000, -6.099999999999999645, -2.399999999999999467 ) ) ;
#434 = CARTESIAN_POINT ( 'NONE',  ( 17.00000000000000000, -6.099999999999999645, 4.300000000000001599 ) ) ;
#435 = VERTEX_POINT ( 'NONE', #819 ) ;
#436 = CARTESIAN_POINT ( 'NONE',  ( -9.000000000000000000, 0.000000000000000000, -2.399999999999999467 ) ) ;
#437 = APPLICATION_PROTOCOL_DEFINITION ( 'international standard', 'config_control_design', 1994, #796 ) ;
#438 = EDGE_CURVE ( 'NONE', #540, #439, #454, .T. ) ;
#439 = VERTEX_POINT ( 'NONE', #374 ) ;
#440 = EDGE_LOOP ( 'NONE', ( #739, #688 ) ) ;
#441 = CARTESIAN_POINT ( 'NONE',  ( 17.00000000000000000, -6.099999999999999645, -18.30000000000000071 ) ) ;
#442 = EDGE_CURVE ( 'NONE', #590, #439, #305, .T. ) ;
#443 = PERSON_AND_ORGANIZATION ( #880, #801 ) ;
#444 = CLOSED_SHELL ( 'NONE', ( #48, #306, #836, #53, #361, #209, #293, #806, #469, #114, #493, #702, #39, #122, #366, #539, #307, #724, #701, #894, #817, #95, #795, #36, #579, #68, #234, #673 ) ) ;
#445 = CIRCLE ( 'NONE', #488, 2.800000000000000266 ) ;
#446 = DIRECTION ( 'NONE',  ( 1.000000000000000000, 0.000000000000000000, 0.000000000000000000 ) ) ;
#447 = AXIS2_PLACEMENT_3D ( 'NONE', #548, #699, #179 ) ;
#448 = CC_DESIGN_APPROVAL ( #368, ( #568 ) ) ;
#449 = EDGE_LOOP ( 'NONE', ( #188, #810, #417 ) ) ;
#450 = CARTESIAN_POINT ( 'NONE',  ( 18.89999999999999858, 0.000000000000000000, 12.40000000000000213 ) ) ;
#451 = EDGE_CURVE ( 'NONE', #484, #56, #530, .T. ) ;
#452 = FACE_BOUND ( 'NONE', #240, .T. ) ;
#453 = VERTEX_POINT ( 'NONE', #310 ) ;
#454 = LINE ( 'NONE', #158, #242 ) ;
#455 = CARTESIAN_POINT ( 'NONE',  ( 0.000000000000000000, 0.000000000000000000, 0.000000000000000000 ) ) ;
#456 = ORIENTED_EDGE ( 'NONE', *, *, #451, .T. ) ;
#457 = LINE ( 'NONE', #13, #379 ) ;
#458 = AXIS2_PLACEMENT_3D ( 'NONE', #626, #419, #340 ) ;
#459 = AXIS2_PLACEMENT_3D ( 'NONE', #217, #708, #269 ) ;
#460 = CARTESIAN_POINT ( 'NONE',  ( 17.00000000000000000, -6.099999999999999645, -18.30000000000000071 ) ) ;
#461 = PLANE ( 'NONE',  #380 ) ;
#462 = EDGE_CURVE ( 'NONE', #280, #284, #457, .T. ) ;
#463 = LINE ( 'NONE', #821, #329 ) ;
#464 = CARTESIAN_POINT ( 'NONE',  ( -6.099999999999999645, 0.000000000000000000, 8.799999999999998934 ) ) ;
#465 = CARTESIAN_POINT ( 'NONE',  ( -6.000000000000000000, 6.099999999999999645, -2.399999999999999467 ) ) ;
#466 = VERTEX_POINT ( 'NONE', #732 ) ;
#467 = CARTESIAN_POINT ( 'NONE',  ( -6.000000000000000000, -6.099999999999999645, 4.300000000000001599 ) ) ;
#468 = EDGE_LOOP ( 'NONE', ( #213, #473, #63, #628 ) ) ;
#469 = ADVANCED_FACE ( 'NONE', ( #668 ), #675, .F. ) ;
#470 = CARTESIAN_POINT ( 'NONE',  ( -11.00000000000000000, -6.099999999999999645, 0.000000000000000000 ) ) ;
#471 = DIRECTION ( 'NONE',  ( 1.000000000000000000, 0.000000000000000000, 0.000000000000000000 ) ) ;
#472 = CARTESIAN_POINT ( 'NONE',  ( 0.000000000000000000, 6.099999999999999645, 4.299999999999999822 ) ) ;
#473 = ORIENTED_EDGE ( 'NONE', *, *, #523, .T. ) ;
#474 = AXIS2_PLACEMENT_3D ( 'NONE', #200, #560, #415 ) ;
#475 = DIRECTION ( 'NONE',  ( -0.000000000000000000, -0.000000000000000000, 1.000000000000000000 ) ) ;
#476 = CIRCLE ( 'NONE', #178, 6.099999999999999645 ) ;
#477 = APPROVAL_PERSON_ORGANIZATION ( #65, #227, #651 ) ;
#478 = ORIENTED_EDGE ( 'NONE', *, *, #289, .T. ) ;
#479 = FACE_OUTER_BOUND ( 'NONE', #569, .T. ) ;
#480 = EDGE_LOOP ( 'NONE', ( #25, #618, #549, #670, #182, #547 ) ) ;
#481 = EDGE_CURVE ( 'NONE', #108, #636, #671, .T. ) ;
#482 = VERTEX_POINT ( 'NONE', #89 ) ;
#483 = CYLINDRICAL_SURFACE ( 'NONE', #800, 2.500000000000000000 ) ;
#484 = VERTEX_POINT ( 'NONE', #541 ) ;
#485 = DIRECTION ( 'NONE',  ( 1.000000000000000000, 0.000000000000000000, 0.000000000000000000 ) ) ;
#486 = LINE ( 'NONE', #102, #117 ) ;
#487 = VERTEX_POINT ( 'NONE', #595 ) ;
#488 = AXIS2_PLACEMENT_3D ( 'NONE', #571, #640, #485 ) ;
#489 = VECTOR ( 'NONE', #167, 1000.000000000000000 ) ;
#490 = PLANE ( 'NONE',  #474 ) ;
#491 = CIRCLE ( 'NONE', #536, 1.100000000000000311 ) ;
#492 = CARTESIAN_POINT ( 'NONE',  ( -11.00000000000000000, 6.099999999999999645, 0.000000000000000000 ) ) ;
#493 = ADVANCED_FACE ( 'NONE', ( #815 ), #744, .F. ) ;
#494 = ORIENTED_EDGE ( 'NONE', *, *, #550, .F. ) ;
#495 =( LENGTH_UNIT ( ) NAMED_UNIT ( * ) SI_UNIT ( .MILLI., .METRE. ) );
#496 = DIRECTION ( 'NONE',  ( 0.000000000000000000, 0.000000000000000000, -1.000000000000000000 ) ) ;
#497 = DIRECTION ( 'NONE',  ( -1.000000000000000000, 0.000000000000000000, 0.000000000000000000 ) ) ;
#498 = VERTEX_POINT ( 'NONE', #735 ) ;
#499 = DIRECTION ( 'NONE',  ( 0.000000000000000000, 0.000000000000000000, -1.000000000000000000 ) ) ;
#500 = FACE_OUTER_BOUND ( 'NONE', #793, .T. ) ;
#501 = FACE_OUTER_BOUND ( 'NONE', #298, .T. ) ;
#502 = ORIENTED_EDGE ( 'NONE', *, *, #647, .F. ) ;
#503 = CARTESIAN_POINT ( 'NONE',  ( -10.09999999999999964, 0.000000000000000000, -2.399999999999999467 ) ) ;
#504 = APPROVAL_ROLE ( '' ) ;
#505 = LINE ( 'NONE', #765, #314 ) ;
#506 = LINE ( 'NONE', #212, #316 ) ;
#507 = AXIS2_PLACEMENT_3D ( 'NONE', #715, #360, #203 ) ;
#508 = CIRCLE ( 'NONE', #216, 6.099999999999999645 ) ;
#509 = VERTEX_POINT ( 'NONE', #872 ) ;
#510 = LINE ( 'NONE', #224, #594 ) ;
#511 = SECURITY_CLASSIFICATION_LEVEL ( 'unclassified' ) ;
#512 = EDGE_CURVE ( 'NONE', #925, #662, #881, .T. ) ;
#513 = APPROVAL ( #803, 'UNSPECIFIED' ) ;
#514 = FACE_OUTER_BOUND ( 'NONE', #251, .T. ) ;
#515 = CYLINDRICAL_SURFACE ( 'NONE', #638, 1.100000000000000311 ) ;
#516 = DIRECTION ( 'NONE',  ( 1.000000000000000000, 0.000000000000000000, 0.000000000000000000 ) ) ;
#517 = ORIENTED_EDGE ( 'NONE', *, *, #596, .T. ) ;
#518 = DIRECTION ( 'NONE',  ( 0.000000000000000000, 0.000000000000000000, -1.000000000000000000 ) ) ;
#519 = PERSON_AND_ORGANIZATION_ROLE ( 'design_owner' ) ;
#520 = VECTOR ( 'NONE', #761, 1000.000000000000000 ) ;
#521 = EDGE_LOOP ( 'NONE', ( #653, #17 ) ) ;
#522 = DIRECTION ( 'NONE',  ( -0.000000000000000000, -0.000000000000000000, 1.000000000000000000 ) ) ;
#523 = EDGE_CURVE ( 'NONE', #763, #546, #884, .T. ) ;
#524 = AXIS2_PLACEMENT_3D ( 'NONE', #576, #733, #497 ) ;
#525 = CALENDAR_DATE ( 2026, 8, 9 ) ;
#526 = ORIENTED_EDGE ( 'NONE', *, *, #711, .F. ) ;
#527 = CARTESIAN_POINT ( 'NONE',  ( 0.000000000000000000, 0.000000000000000000, 12.40000000000000213 ) ) ;
#528 = DIRECTION ( 'NONE',  ( -1.000000000000000000, 0.000000000000000000, -0.000000000000000000 ) ) ;
#529 = ORIENTED_EDGE ( 'NONE', *, *, #462, .F. ) ;
#530 = LINE ( 'NONE', #811, #607 ) ;
#531 = DIRECTION ( 'NONE',  ( -0.000000000000000000, -1.000000000000000000, -0.000000000000000000 ) ) ;
#532 = EDGE_CURVE ( 'NONE', #435, #648, #389, .T. ) ;
#533 = ORIENTED_EDGE ( 'NONE', *, *, #559, .T. ) ;
#534 = DIRECTION ( 'NONE',  ( 1.000000000000000000, 0.000000000000000000, 0.000000000000000000 ) ) ;
#535 = VECTOR ( 'NONE', #24, 1000.000000000000000 ) ;
#536 = AXIS2_PLACEMENT_3D ( 'NONE', #752, #110, #398 ) ;
#537 = CARTESIAN_POINT ( 'NONE',  ( 0.000000000000000000, 0.000000000000000000, 4.299999999999999822 ) ) ;
#538 = EDGE_CURVE ( 'NONE', #745, #353, #319, .T. ) ;
#539 = ADVANCED_FACE ( 'NONE', ( #257 ), #323, .F. ) ;
#540 = VERTEX_POINT ( 'NONE', #766 ) ;
#541 = CARTESIAN_POINT ( 'NONE',  ( 22.00000000000000000, -6.099999999999999645, -2.399999999999999911 ) ) ;
#542 = VERTEX_POINT ( 'NONE', #617 ) ;
#543 = DIRECTION ( 'NONE',  ( -0.000000000000000000, -0.000000000000000000, -1.000000000000000000 ) ) ;
#544 = DIRECTION ( 'NONE',  ( -0.000000000000000000, -0.000000000000000000, -1.000000000000000000 ) ) ;
#545 = CARTESIAN_POINT ( 'NONE',  ( 6.000000000000000000, 0.000000000000000000, 4.299999999999999822 ) ) ;
#546 = VERTEX_POINT ( 'NONE', #332 ) ;
#547 = ORIENTED_EDGE ( 'NONE', *, *, #835, .T. ) ;
#548 = CARTESIAN_POINT ( 'NONE',  ( 0.000000000000000000, 0.000000000000000000, 4.299999999999999822 ) ) ;
#549 = ORIENTED_EDGE ( 'NONE', *, *, #105, .F. ) ;
#550 = EDGE_CURVE ( 'NONE', #56, #453, #693, .T. ) ;
#551 = CIRCLE ( 'NONE', #784, 6.099999999999999645 ) ;
#552 = CIRCLE ( 'NONE', #395, 6.099999999999999645 ) ;
#553 = CARTESIAN_POINT ( 'NONE',  ( 22.00000000000000000, -6.099999999999999645, 0.000000000000000000 ) ) ;
#554 = CARTESIAN_POINT ( 'NONE',  ( 22.00000000000000000, -6.099999999999999645, 0.000000000000000000 ) ) ;
#555 = ORIENTED_EDGE ( 'NONE', *, *, #650, .T. ) ;
#556 = CARTESIAN_POINT ( 'NONE',  ( 22.00000000000000000, 6.099999999999999645, -2.399999999999999911 ) ) ;
#557 = DIRECTION ( 'NONE',  ( -1.000000000000000000, -0.000000000000000000, -0.000000000000000000 ) ) ;
#558 = ORIENTED_EDGE ( 'NONE', *, *, #629, .F. ) ;
#559 = EDGE_CURVE ( 'NONE', #843, #777, #491, .T. ) ;
#560 = DIRECTION ( 'NONE',  ( 1.000000000000000000, 0.000000000000000000, 0.000000000000000000 ) ) ;
#561 = LINE ( 'NONE', #896, #597 ) ;
#562 = VERTEX_POINT ( 'NONE', #833 ) ;
#563 = ORIENTED_EDGE ( 'NONE', *, *, #481, .T. ) ;
#564 = VECTOR ( 'NONE', #698, 1000.000000000000000 ) ;
#565 = CIRCLE ( 'NONE', #921, 6.099999999999999645 ) ;
#566 = CARTESIAN_POINT ( 'NONE',  ( 0.000000000000000000, 0.000000000000000000, 4.299999999999999822 ) ) ;
#567 = CARTESIAN_POINT ( 'NONE',  ( -6.000000000000000000, -6.099999999999999645, 4.300000000000001599 ) ) ;
#568 = PRODUCT_DEFINITION ( 'UNKNOWN', '', #272, #856 ) ;
#569 = EDGE_LOOP ( 'NONE', ( #35, #358, #753, #864 ) ) ;
#570 = DIRECTION ( 'NONE',  ( 1.000000000000000000, 0.000000000000000000, 0.000000000000000000 ) ) ;
#571 = CARTESIAN_POINT ( 'NONE',  ( 6.000000000000000000, 0.000000000000000000, 8.799999999999998934 ) ) ;
#572 = CARTESIAN_POINT ( 'NONE',  ( -11.00000000000000000, 6.099999999999999645, -2.399999999999999911 ) ) ;
#573 = EDGE_LOOP ( 'NONE', ( #258, #849, #171, #430 ) ) ;
#574 = DIRECTION ( 'NONE',  ( -1.000000000000000000, 0.000000000000000000, 0.000000000000000000 ) ) ;
#575 = DIRECTION ( 'NONE',  ( -0.000000000000000000, -0.000000000000000000, -1.000000000000000000 ) ) ;
#576 = CARTESIAN_POINT ( 'NONE',  ( 20.00000000000000000, 0.000000000000000000, 0.000000000000000000 ) ) ;
#577 = ORIENTED_EDGE ( 'NONE', *, *, #886, .T. ) ;
#578 = CARTESIAN_POINT ( 'NONE',  ( -2.500000000000000000, 0.000000000000000000, 12.40000000000000213 ) ) ;
#579 = ADVANCED_FACE ( 'NONE', ( #479 ), #483, .T. ) ;
#580 = LINE ( 'NONE', #863, #754 ) ;
#581 = AXIS2_PLACEMENT_3D ( 'NONE', #292, #584, #574 ) ;
#582 = VECTOR ( 'NONE', #253, 1000.000000000000000 ) ;
#583 = VERTEX_POINT ( 'NONE', #472 ) ;
#584 = DIRECTION ( 'NONE',  ( -0.000000000000000000, -0.000000000000000000, 1.000000000000000000 ) ) ;
#585 = CALENDAR_DATE ( 2026, 8, 9 ) ;
#586 = ORIENTED_EDGE ( 'NONE', *, *, #672, .F. ) ;
#587 = CARTESIAN_POINT ( 'NONE',  ( 18.89999999999999858, 0.000000000000000000, 0.000000000000000000 ) ) ;
#588 = COORDINATED_UNIVERSAL_TIME_OFFSET ( 6, 0, .BEHIND. ) ;
#589 = DIRECTION ( 'NONE',  ( 0.000000000000000000, 0.000000000000000000, -1.000000000000000000 ) ) ;
#590 = VERTEX_POINT ( 'NONE', #762 ) ;
#591 = CARTESIAN_POINT ( 'NONE',  ( -6.000000000000000000, -6.099999999999999645, 4.300000000000001599 ) ) ;
#592 = PERSON_AND_ORGANIZATION_ROLE ( 'creator' ) ;
#593 = EDGE_LOOP ( 'NONE', ( #558, #23, #348 ) ) ;
#594 = VECTOR ( 'NONE', #370, 1000.000000000000000 ) ;
#595 = CARTESIAN_POINT ( 'NONE',  ( 17.00000000000000000, 6.099999999999999645, -18.30000000000000071 ) ) ;
#596 = EDGE_CURVE ( 'NONE', #487, #599, #486, .T. ) ;
#597 = VECTOR ( 'NONE', #412, 1000.000000000000000 ) ;
#598 = CARTESIAN_POINT ( 'NONE',  ( 0.000000000000000000, 0.000000000000000000, 8.799999999999998934 ) ) ;
#599 = VERTEX_POINT ( 'NONE', #631 ) ;
#600 = DIRECTION ( 'NONE',  ( 0.000000000000000000, 1.000000000000000000, 0.000000000000000000 ) ) ;
#601 = DIRECTION ( 'NONE',  ( 0.000000000000000000, 1.000000000000000000, 0.000000000000000000 ) ) ;
#602 = ORIENTED_EDGE ( 'NONE', *, *, #808, .F. ) ;
#603 = DIRECTION ( 'NONE',  ( -0.000000000000000000, -0.000000000000000000, -1.000000000000000000 ) ) ;
#604 = EDGE_CURVE ( 'NONE', #74, #666, #685, .T. ) ;
#605 = CYLINDRICAL_SURFACE ( 'NONE', #681, 1.100000000000000311 ) ;
#606 = DIRECTION ( 'NONE',  ( 0.000000000000000000, 0.000000000000000000, 1.000000000000000000 ) ) ;
#607 = VECTOR ( 'NONE', #600, 1000.000000000000000 ) ;
#608 = ORIENTED_EDGE ( 'NONE', *, *, #93, .F. ) ;
#609 = PLANE ( 'NONE',  #243 ) ;
#610 = ORIENTED_EDGE ( 'NONE', *, *, #738, .T. ) ;
#611 = DIRECTION ( 'NONE',  ( -1.000000000000000000, 0.000000000000000000, 0.000000000000000000 ) ) ;
#612 = ORIENTED_EDGE ( 'NONE', *, *, #418, .F. ) ;
#613 = CARTESIAN_POINT ( 'NONE',  ( -11.00000000000000000, 6.099999999999999645, 0.000000000000000000 ) ) ;
#614 = EDGE_CURVE ( 'NONE', #562, #590, #561, .T. ) ;
#615 = UNCERTAINTY_MEASURE_WITH_UNIT (LENGTH_MEASURE( 1.000000000000000082E-05 ), #495, 'distance_accuracy_value', 'NONE');
#616 = CARTESIAN_POINT ( 'NONE',  ( 20.00000000000000000, 0.000000000000000000, 12.40000000000000213 ) ) ;
#617 = CARTESIAN_POINT ( 'NONE',  ( 17.00000000000000000, -6.099999999999999645, -2.399999999999999467 ) ) ;
#618 = ORIENTED_EDGE ( 'NONE', *, *, #730, .F. ) ;
#619 =( NAMED_UNIT ( * ) SI_UNIT ( $, .STERADIAN. ) SOLID_ANGLE_UNIT ( ) );
#620 = CARTESIAN_POINT ( 'NONE',  ( -6.000000000000000000, 6.099999999999999645, 4.300000000000001599 ) ) ;
#621 = DIRECTION ( 'NONE',  ( -1.000000000000000000, -0.000000000000000000, -0.000000000000000000 ) ) ;
#622 = VERTEX_POINT ( 'NONE', #822 ) ;
#623 = VECTOR ( 'NONE', #741, 1000.000000000000000 ) ;
#624 = CIRCLE ( 'NONE', #524, 1.100000000000000311 ) ;
#625 = SECURITY_CLASSIFICATION ( '', '', #511 ) ;
#626 = CARTESIAN_POINT ( 'NONE',  ( 0.000000000000000000, 0.000000000000000000, 12.40000000000000213 ) ) ;
#627 = CARTESIAN_POINT ( 'NONE',  ( 17.00000000000000000, 6.099999999999999645, 4.300000000000001599 ) ) ;
#628 = ORIENTED_EDGE ( 'NONE', *, *, #105, .T. ) ;
#629 = EDGE_CURVE ( 'NONE', #583, #820, #552, .T. ) ;
#630 = LINE ( 'NONE', #837, #667 ) ;
#631 = CARTESIAN_POINT ( 'NONE',  ( -6.000000000000000000, 6.099999999999999645, -18.30000000000000071 ) ) ;
#632 = ORIENTED_EDGE ( 'NONE', *, *, #275, .F. ) ;
#633 = EDGE_CURVE ( 'NONE', #622, #116, #657, .T. ) ;
#634 = CARTESIAN_POINT ( 'NONE',  ( -10.09999999999999964, 0.000000000000000000, 12.40000000000000213 ) ) ;
#635 = LINE ( 'NONE', #341, #639 ) ;
#636 = VERTEX_POINT ( 'NONE', #904 ) ;
#637 = VECTOR ( 'NONE', #544, 1000.000000000000000 ) ;
#638 = AXIS2_PLACEMENT_3D ( 'NONE', #720, #518, #792 ) ;
#639 = VECTOR ( 'NONE', #274, 1000.000000000000000 ) ;
#640 = DIRECTION ( 'NONE',  ( 0.000000000000000000, 0.000000000000000000, 1.000000000000000000 ) ) ;
#641 = CARTESIAN_POINT ( 'NONE',  ( -6.000000000000000000, -6.099999999999999645, 4.300000000000001599 ) ) ;
#642 = ORIENTED_EDGE ( 'NONE', *, *, #1, .T. ) ;
#643 = CARTESIAN_POINT ( 'NONE',  ( -6.000000000000000000, -6.099999999999999645, -18.30000000000000071 ) ) ;
#644 = PERSON_AND_ORGANIZATION ( #880, #801 ) ;
#645 = CARTESIAN_POINT ( 'NONE',  ( 0.000000000000000000, -6.099999999999999645, 4.299999999999999822 ) ) ;
#646 = PLANE ( 'NONE',  #429 ) ;
#647 = EDGE_CURVE ( 'NONE', #546, #327, #830, .T. ) ;
#648 = VERTEX_POINT ( 'NONE', #326 ) ;
#649 = PLANE ( 'NONE',  #799 ) ;
#650 = EDGE_CURVE ( 'NONE', #74, #583, #759, .T. ) ;
#651 = APPROVAL_ROLE ( '' ) ;
#652 = DIRECTION ( 'NONE',  ( -0.000000000000000000, -0.000000000000000000, -1.000000000000000000 ) ) ;
#653 = ORIENTED_EDGE ( 'NONE', *, *, #222, .F. ) ;
#654 = DIRECTION ( 'NONE',  ( -1.000000000000000000, 0.000000000000000000, -0.000000000000000000 ) ) ;
#655 = DATE_AND_TIME ( #362, #303 ) ;
#656 = AXIS2_PLACEMENT_3D ( 'NONE', #566, #779, #50 ) ;
#657 = CIRCLE ( 'NONE', #447, 6.099999999999999645 ) ;
#658 = ORIENTED_EDGE ( 'NONE', *, *, #512, .T. ) ;
#659 = CARTESIAN_POINT ( 'NONE',  ( -9.000000000000000000, 0.000000000000000000, 12.40000000000000213 ) ) ;
#660 = MECHANICAL_CONTEXT ( 'NONE', #691, 'mechanical' ) ;
#661 = EDGE_CURVE ( 'NONE', #327, #583, #565, .T. ) ;
#662 = VERTEX_POINT ( 'NONE', #172 ) ;
#663 = LINE ( 'NONE', #7, #160 ) ;
#664 = PRODUCT_RELATED_PRODUCT_CATEGORY ( 'detail', '', ( #855 ) ) ;
#665 = DIRECTION ( 'NONE',  ( 0.000000000000000000, -0.000000000000000000, 1.000000000000000000 ) ) ;
#666 = VERTEX_POINT ( 'NONE', #266 ) ;
#667 = VECTOR ( 'NONE', #265, 1000.000000000000000 ) ;
#668 = FACE_OUTER_BOUND ( 'NONE', #401, .T. ) ;
#669 = VECTOR ( 'NONE', #683, 1000.000000000000000 ) ;
#670 = ORIENTED_EDGE ( 'NONE', *, *, #661, .T. ) ;
#671 = LINE ( 'NONE', #591, #623 ) ;
#672 = EDGE_CURVE ( 'NONE', #439, #294, #704, .T. ) ;
#673 = ADVANCED_FACE ( 'NONE', ( #838 ), #183, .F. ) ;
#674 = FACE_OUTER_BOUND ( 'NONE', #29, .T. ) ;
#675 = PLANE ( 'NONE',  #86 ) ;
#676 = ORIENTED_EDGE ( 'NONE', *, *, #137, .T. ) ;
#677 = DIRECTION ( 'NONE',  ( 0.000000000000000000, 0.000000000000000000, 1.000000000000000000 ) ) ;
#678 = ORIENTED_EDGE ( 'NONE', *, *, #376, .F. ) ;
#679 = CARTESIAN_POINT ( 'NONE',  ( 21.10000000000000142, 1.347111479062088750E-16, 12.40000000000000213 ) ) ;
#680 = CIRCLE ( 'NONE', #391, 1.100000000000000311 ) ;
#681 = AXIS2_PLACEMENT_3D ( 'NONE', #616, #41, #899 ) ;
#682 = AXIS2_PLACEMENT_3D ( 'NONE', #175, #475, #756 ) ;
#683 = DIRECTION ( 'NONE',  ( 1.000000000000000000, 0.000000000000000000, 0.000000000000000000 ) ) ;
#684 = ORIENTED_EDGE ( 'NONE', *, *, #148, .F. ) ;
#685 = LINE ( 'NONE', #627, #582 ) ;
#686 = EDGE_LOOP ( 'NONE', ( #456, #930, #403, #339 ) ) ;
#687 = FACE_BOUND ( 'NONE', #202, .T. ) ;
#688 = ORIENTED_EDGE ( 'NONE', *, *, #916, .F. ) ;
#689 = DIRECTION ( 'NONE',  ( 1.000000000000000000, 0.000000000000000000, 0.000000000000000000 ) ) ;
#690 = ORIENTED_EDGE ( 'NONE', *, *, #275, .T. ) ;
#691 = APPLICATION_CONTEXT ( 'configuration controlled 3d designs of mechanical parts and assemblies' ) ;
#692 = ORIENTED_EDGE ( 'NONE', *, *, #185, .T. ) ;
#693 = LINE ( 'NONE', #827, #816 ) ;
#694 = EDGE_CURVE ( 'NONE', #540, #820, #776, .T. ) ;
#695 = ORIENTED_EDGE ( 'NONE', *, *, #848, .T. ) ;
#696 = AXIS2_PLACEMENT_3D ( 'NONE', #124, #186, #344 ) ;
#697 = AXIS2_PLACEMENT_3D ( 'NONE', #434, #142, #352 ) ;
#698 = DIRECTION ( 'NONE',  ( -0.000000000000000000, 1.000000000000000000, 0.000000000000000000 ) ) ;
#699 = DIRECTION ( 'NONE',  ( 0.000000000000000000, 0.000000000000000000, 1.000000000000000000 ) ) ;
#700 = ORIENTED_EDGE ( 'NONE', *, *, #289, .F. ) ;
#701 = ADVANCED_FACE ( 'NONE', ( #232, #201 ), #646, .F. ) ;
#702 = ADVANCED_FACE ( 'NONE', ( #791 ), #125, .F. ) ;
#703 = LINE ( 'NONE', #351, #28 ) ;
#704 = LINE ( 'NONE', #492, #875 ) ;
#705 = ORIENTED_EDGE ( 'NONE', *, *, #824, .T. ) ;
#706 = MANIFOLD_SOLID_BREP ( 'Mounting_holes_nominal', #444 ) ;
#707 = FACE_OUTER_BOUND ( 'NONE', #719, .T. ) ;
#708 = DIRECTION ( 'NONE',  ( 0.000000000000000000, 0.000000000000000000, -1.000000000000000000 ) ) ;
#709 = ORIENTED_EDGE ( 'NONE', *, *, #335, .F. ) ;
#710 = CARTESIAN_POINT ( 'NONE',  ( -11.00000000000000000, 6.099999999999999645, -2.399999999999999911 ) ) ;
#711 = EDGE_CURVE ( 'NONE', #116, #546, #301, .T. ) ;
#712 = DIRECTION ( 'NONE',  ( -0.000000000000000000, -0.000000000000000000, -1.000000000000000000 ) ) ;
#713 = DIRECTION ( 'NONE',  ( 1.000000000000000000, 0.000000000000000000, 0.000000000000000000 ) ) ;
#714 = ORIENTED_EDGE ( 'NONE', *, *, #386, .T. ) ;
#715 = CARTESIAN_POINT ( 'NONE',  ( 0.000000000000000000, 0.000000000000000000, 4.300000000000001599 ) ) ;
#716 = COORDINATED_UNIVERSAL_TIME_OFFSET ( 6, 0, .BEHIND. ) ;
#717 = DIRECTION ( 'NONE',  ( -1.000000000000000000, 0.000000000000000000, 0.000000000000000000 ) ) ;
#718 = CARTESIAN_POINT ( 'NONE',  ( 5.447499999999998899, -2.744948770013750039, 8.799999999999998934 ) ) ;
#719 = EDGE_LOOP ( 'NONE', ( #271, #223, #612 ) ) ;
#720 = CARTESIAN_POINT ( 'NONE',  ( -9.000000000000000000, 0.000000000000000000, 12.40000000000000213 ) ) ;
#721 = CALENDAR_DATE ( 2026, 8, 9 ) ;
#722 = ORIENTED_EDGE ( 'NONE', *, *, #161, .F. ) ;
#723 = LINE ( 'NONE', #643, #254 ) ;
#724 = ADVANCED_FACE ( 'NONE', ( #452, #420 ), #302, .F. ) ;
#725 = COORDINATED_UNIVERSAL_TIME_OFFSET ( 6, 0, .BEHIND. ) ;
#726 = VECTOR ( 'NONE', #54, 1000.000000000000000 ) ;
#727 = VECTOR ( 'NONE', #825, 1000.000000000000000 ) ;
#728 = ORIENTED_EDGE ( 'NONE', *, *, #867, .T. ) ;
#729 = PLANE ( 'NONE',  #507 ) ;
#730 = EDGE_CURVE ( 'NONE', #466, #925, #77, .T. ) ;
#731 = VERTEX_POINT ( 'NONE', #14 ) ;
#732 = CARTESIAN_POINT ( 'NONE',  ( 5.447499999999998899, 2.744948770013750483, 8.799999999999998934 ) ) ;
#733 = DIRECTION ( 'NONE',  ( -0.000000000000000000, -0.000000000000000000, 1.000000000000000000 ) ) ;
#734 = ORIENTED_EDGE ( 'NONE', *, *, #824, .F. ) ;
#735 = CARTESIAN_POINT ( 'NONE',  ( -7.899999999999999467, 1.347111479062088750E-16, -2.399999999999999467 ) ) ;
#736 = CYLINDRICAL_SURFACE ( 'NONE', #367, 2.500000000000000000 ) ;
#737 = EDGE_CURVE ( 'NONE', #324, #435, #624, .T. ) ;
#738 = EDGE_CURVE ( 'NONE', #888, #760, #807, .T. ) ;
#739 = ORIENTED_EDGE ( 'NONE', *, *, #135, .F. ) ;
#740 = CIRCLE ( 'NONE', #115, 1.100000000000000311 ) ;
#741 = DIRECTION ( 'NONE',  ( -0.000000000000000000, -0.000000000000000000, -1.000000000000000000 ) ) ;
#742 = CIRCLE ( 'NONE', #331, 2.500000000000000000 ) ;
#743 =( GEOMETRIC_REPRESENTATION_CONTEXT ( 3 ) GLOBAL_UNCERTAINTY_ASSIGNED_CONTEXT ( ( #615 ) ) GLOBAL_UNIT_ASSIGNED_CONTEXT ( ( #495, #49, #619 ) ) REPRESENTATION_CONTEXT ( 'NONE', 'WORKASPACE' ) );
#744 = PLANE ( 'NONE',  #215 ) ;
#745 = VERTEX_POINT ( 'NONE', #572 ) ;
#746 = LINE ( 'NONE', #26, #195 ) ;
#747 = ORIENTED_EDGE ( 'NONE', *, *, #343, .F. ) ;
#748 = CARTESIAN_POINT ( 'NONE',  ( 5.447499999999998899, -2.744948770013750483, 6.549999999999999822 ) ) ;
#749 = ORIENTED_EDGE ( 'NONE', *, *, #386, .F. ) ;
#750 = EDGE_CURVE ( 'NONE', #542, #245, #858, .T. ) ;
#751 = CARTESIAN_POINT ( 'NONE',  ( 6.000000000000000000, 0.000000000000000000, 8.799999999999998934 ) ) ;
#752 = CARTESIAN_POINT ( 'NONE',  ( -9.000000000000000000, 0.000000000000000000, 0.000000000000000000 ) ) ;
#753 = ORIENTED_EDGE ( 'NONE', *, *, #462, .T. ) ;
#754 = VECTOR ( 'NONE', #22, 1000.000000000000000 ) ;
#755 = CC_DESIGN_APPROVAL ( #227, ( #625 ) ) ;
#756 = DIRECTION ( 'NONE',  ( -1.000000000000000000, 0.000000000000000000, 0.000000000000000000 ) ) ;
#757 = EDGE_CURVE ( 'NONE', #636, #245, #506, .T. ) ;
#758 = CYLINDRICAL_SURFACE ( 'NONE', #176, 2.800000000000000266 ) ;
#759 = LINE ( 'NONE', #338, #889 ) ;
#760 = VERTEX_POINT ( 'NONE', #787 ) ;
#761 = DIRECTION ( 'NONE',  ( 1.000000000000000000, 0.000000000000000000, 0.000000000000000000 ) ) ;
#762 = CARTESIAN_POINT ( 'NONE',  ( -6.000000000000000000, -6.099999999999999645, 0.000000000000000000 ) ) ;
#763 = VERTEX_POINT ( 'NONE', #718 ) ;
#764 = EDGE_CURVE ( 'NONE', #820, #622, #923, .T. ) ;
#765 = CARTESIAN_POINT ( 'NONE',  ( 22.00000000000000000, 6.099999999999999645, 0.000000000000000000 ) ) ;
#766 = CARTESIAN_POINT ( 'NONE',  ( -6.000000000000000000, 6.099999999999999645, 4.300000000000001599 ) ) ;
#767 = EDGE_CURVE ( 'NONE', #583, #540, #635, .T. ) ;
#768 = ORIENTED_EDGE ( 'NONE', *, *, #3, .T. ) ;
#769 = AXIS2_PLACEMENT_3D ( 'NONE', #846, #496, #775 ) ;
#770 = VECTOR ( 'NONE', #233, 1000.000000000000000 ) ;
#771 = CIRCLE ( 'NONE', #891, 2.500000000000000000 ) ;
#772 = FACE_OUTER_BOUND ( 'NONE', #826, .T. ) ;
#773 = DIRECTION ( 'NONE',  ( -0.000000000000000000, -1.000000000000000000, -0.000000000000000000 ) ) ;
#774 = ORIENTED_EDGE ( 'NONE', *, *, #737, .F. ) ;
#775 = DIRECTION ( 'NONE',  ( -1.000000000000000000, 0.000000000000000000, -0.000000000000000000 ) ) ;
#776 = LINE ( 'NONE', #641, #270 ) ;
#777 = VERTEX_POINT ( 'NONE', #206 ) ;
#778 = DIRECTION ( 'NONE',  ( -0.000000000000000000, -0.000000000000000000, 1.000000000000000000 ) ) ;
#779 = DIRECTION ( 'NONE',  ( 0.000000000000000000, 0.000000000000000000, 1.000000000000000000 ) ) ;
#780 = PLANE ( 'NONE',  #229 ) ;
#781 = ORIENTED_EDGE ( 'NONE', *, *, #451, .F. ) ;
#782 = DIRECTION ( 'NONE',  ( -1.000000000000000000, 0.000000000000000000, 0.000000000000000000 ) ) ;
#783 = PERSON_AND_ORGANIZATION ( #880, #801 ) ;
#784 = AXIS2_PLACEMENT_3D ( 'NONE', #155, #246, #534 ) ;
#785 = CIRCLE ( 'NONE', #682, 1.100000000000000311 ) ;
#786 = LINE ( 'NONE', #433, #564 ) ;
#787 = CARTESIAN_POINT ( 'NONE',  ( 17.00000000000000000, -6.099999999999999645, 0.000000000000000000 ) ) ;
#788 = ORIENTED_EDGE ( 'NONE', *, *, #438, .F. ) ;
#789 = DIRECTION ( 'NONE',  ( 1.000000000000000000, 0.000000000000000000, 0.000000000000000000 ) ) ;
#790 = PERSON_AND_ORGANIZATION_ROLE ( 'classification_officer' ) ;
#791 = FACE_OUTER_BOUND ( 'NONE', #170, .T. ) ;
#792 = DIRECTION ( 'NONE',  ( -1.000000000000000000, 0.000000000000000000, 0.000000000000000000 ) ) ;
#793 = EDGE_LOOP ( 'NONE', ( #320, #130, #369, #478 ) ) ;
#794 = CARTESIAN_POINT ( 'NONE',  ( 0.000000000000000000, 0.000000000000000000, -2.399999999999999911 ) ) ;
#795 = ADVANCED_FACE ( 'NONE', ( #357, #501 ), #780, .T. ) ;
#796 = APPLICATION_CONTEXT ( 'configuration controlled 3d designs of mechanical parts and assemblies' ) ;
#797 = CALENDAR_DATE ( 2026, 8, 9 ) ;
#798 = ORIENTED_EDGE ( 'NONE', *, *, #757, .F. ) ;
#799 = AXIS2_PLACEMENT_3D ( 'NONE', #794, #145, #214 ) ;
#800 = AXIS2_PLACEMENT_3D ( 'NONE', #910, #842, #611 ) ;
#801 = ORGANIZATION ( 'UNSPECIFIED', 'UNSPECIFIED', '' ) ;
#802 = DIRECTION ( 'NONE',  ( -1.000000000000000000, 0.000000000000000000, 0.000000000000000000 ) ) ;
#803 = APPROVAL_STATUS ( 'not_yet_approved' ) ;
#804 = ORIENTED_EDGE ( 'NONE', *, *, #532, .F. ) ;
#805 = DIRECTION ( 'NONE',  ( 1.000000000000000000, 0.000000000000000000, 0.000000000000000000 ) ) ;
#806 = ADVANCED_FACE ( 'NONE', ( #514 ), #282, .F. ) ;
#807 = LINE ( 'NONE', #156, #101 ) ;
#808 = EDGE_CURVE ( 'NONE', #843, #498, #580, .T. ) ;
#809 = ORIENTED_EDGE ( 'NONE', *, *, #604, .F. ) ;
#810 = ORIENTED_EDGE ( 'NONE', *, *, #862, .T. ) ;
#811 = CARTESIAN_POINT ( 'NONE',  ( 22.00000000000000000, -6.099999999999999645, -2.399999999999999911 ) ) ;
#812 = DIRECTION ( 'NONE',  ( -1.000000000000000000, 0.000000000000000000, 0.000000000000000000 ) ) ;
#813 = LINE ( 'NONE', #883, #520 ) ;
#814 = CIRCLE ( 'NONE', #4, 1.100000000000000311 ) ;
#815 = FACE_OUTER_BOUND ( 'NONE', #12, .T. ) ;
#816 = VECTOR ( 'NONE', #621, 1000.000000000000000 ) ;
#817 = ADVANCED_FACE ( 'NONE', ( #893 ), #609, .F. ) ;
#818 = LINE ( 'NONE', #553, #637 ) ;
#819 = CARTESIAN_POINT ( 'NONE',  ( 21.10000000000000142, 1.347111479062088750E-16, 0.000000000000000000 ) ) ;
#820 = VERTEX_POINT ( 'NONE', #241 ) ;
#821 = CARTESIAN_POINT ( 'NONE',  ( -6.000000000000000000, -6.099999999999999645, 4.300000000000001599 ) ) ;
#822 = CARTESIAN_POINT ( 'NONE',  ( -6.000000000000000000, -1.099999999999995426, 4.299999999999999822 ) ) ;
#823 = ORIENTED_EDGE ( 'NONE', *, *, #93, .T. ) ;
#824 = EDGE_CURVE ( 'NONE', #453, #542, #308, .T. ) ;
#825 = DIRECTION ( 'NONE',  ( -1.000000000000000000, -0.000000000000000000, -0.000000000000000000 ) ) ;
#826 = EDGE_LOOP ( 'NONE', ( #502, #526, #903, #98, #555, #919 ) ) ;
#827 = CARTESIAN_POINT ( 'NONE',  ( -11.00000000000000000, 6.099999999999999645, -2.399999999999999911 ) ) ;
#828 = AXIS2_PLACEMENT_3D ( 'NONE', #877, #169, #312 ) ;
#829 = VERTEX_POINT ( 'NONE', #465 ) ;
#830 = CIRCLE ( 'NONE', #288, 2.800000000000000266 ) ;
#831 = DIRECTION ( 'NONE',  ( -0.000000000000000000, -1.000000000000000000, -0.000000000000000000 ) ) ;
#832 = DIRECTION ( 'NONE',  ( 0.000000000000000000, -0.000000000000000000, -1.000000000000000000 ) ) ;
#833 = CARTESIAN_POINT ( 'NONE',  ( -6.000000000000000000, -6.099999999999999645, 4.300000000000001599 ) ) ;
#834 = ORIENTED_EDGE ( 'NONE', *, *, #222, .T. ) ;
#835 = EDGE_CURVE ( 'NONE', #820, #662, #476, .T. ) ;
#836 = ADVANCED_FACE ( 'NONE', ( #248 ), #736, .T. ) ;
#837 = CARTESIAN_POINT ( 'NONE',  ( 22.00000000000000000, -6.099999999999999645, 0.000000000000000000 ) ) ;
#838 = FACE_OUTER_BOUND ( 'NONE', #895, .T. ) ;
#839 = ORIENTED_EDGE ( 'NONE', *, *, #907, .F. ) ;
#840 = CARTESIAN_POINT ( 'NONE',  ( 0.000000000000000000, 0.000000000000000000, 8.800000000000000711 ) ) ;
#841 = LINE ( 'NONE', #273, #726 ) ;
#842 = DIRECTION ( 'NONE',  ( -0.000000000000000000, -0.000000000000000000, -1.000000000000000000 ) ) ;
#843 = VERTEX_POINT ( 'NONE', #393 ) ;
#844 = AXIS2_PLACEMENT_3D ( 'NONE', #620, #397, #832 ) ;
#845 = VECTOR ( 'NONE', #34, 1000.000000000000000 ) ;
#846 = CARTESIAN_POINT ( 'NONE',  ( 0.000000000000000000, 0.000000000000000000, 4.300000000000001599 ) ) ;
#847 = CARTESIAN_POINT ( 'NONE',  ( 0.000000000000000000, 0.000000000000000000, 8.799999999999998934 ) ) ;
#848 = EDGE_CURVE ( 'NONE', #245, #487, #882, .T. ) ;
#849 = ORIENTED_EDGE ( 'NONE', *, *, #336, .F. ) ;
#850 = DIRECTION ( 'NONE',  ( 0.000000000000000000, 0.000000000000000000, -1.000000000000000000 ) ) ;
#851 = DIRECTION ( 'NONE',  ( -0.000000000000000000, -0.000000000000000000, -1.000000000000000000 ) ) ;
#852 = DIRECTION ( 'NONE',  ( 1.000000000000000000, 0.000000000000000000, 0.000000000000000000 ) ) ;
#853 = ORIENTED_EDGE ( 'NONE', *, *, #738, .F. ) ;
#854 = CARTESIAN_POINT ( 'NONE',  ( 5.447499999999998899, 2.744948770013750483, 4.299999999999999822 ) ) ;
#855 = PRODUCT ( 'HW-003_SG90_NOMINAL_VERIFY', 'HW-003_SG90_NOMINAL_VERIFY', '', ( #660 ) ) ;
#856 = DESIGN_CONTEXT ( 'detailed design', #796, 'design' ) ;
#857 = LINE ( 'NONE', #211, #58 ) ;
#858 = LINE ( 'NONE', #55, #411 ) ;
#859 = ORIENTED_EDGE ( 'NONE', *, *, #862, .F. ) ;
#860 = FACE_OUTER_BOUND ( 'NONE', #914, .T. ) ;
#861 = PERSON_AND_ORGANIZATION ( #880, #801 ) ;
#862 = EDGE_CURVE ( 'NONE', #622, #562, #746, .T. ) ;
#863 = CARTESIAN_POINT ( 'NONE',  ( -7.899999999999999467, 1.347111479062088750E-16, 12.40000000000000213 ) ) ;
#864 = ORIENTED_EDGE ( 'NONE', *, *, #135, .T. ) ;
#865 = CARTESIAN_POINT ( 'NONE',  ( -11.00000000000000000, -6.099999999999999645, -2.399999999999999911 ) ) ;
#866 = EDGE_CURVE ( 'NONE', #294, #318, #85, .T. ) ;
#867 = EDGE_CURVE ( 'NONE', #760, #111, #104, .T. ) ;
#868 = ORIENTED_EDGE ( 'NONE', *, *, #315, .F. ) ;
#869 = PLANE ( 'NONE',  #76 ) ;
#870 = APPROVAL_STATUS ( 'not_yet_approved' ) ;
#871 = ORIENTED_EDGE ( 'NONE', *, *, #523, .F. ) ;
#872 = CARTESIAN_POINT ( 'NONE',  ( 22.00000000000000000, 6.099999999999999645, 0.000000000000000000 ) ) ;
#873 = DATE_AND_TIME ( #585, #432 ) ;
#874 = AXIS2_PLACEMENT_3D ( 'NONE', #252, #61, #717 ) ;
#875 = VECTOR ( 'NONE', #557, 1000.000000000000000 ) ;
#876 = ORIENTED_EDGE ( 'NONE', *, *, #711, .T. ) ;
#877 = CARTESIAN_POINT ( 'NONE',  ( 0.000000000000000000, 0.000000000000000000, -18.30000000000000071 ) ) ;
#878 = EDGE_CURVE ( 'NONE', #509, #666, #321, .T. ) ;
#879 = DIRECTION ( 'NONE',  ( -0.000000000000000000, -1.000000000000000000, -0.000000000000000000 ) ) ;
#880 = PERSON ( 'UNSPECIFIED', 'UNSPECIFIED', 'UNSPECIFIED', ('UNSPECIFIED'), ('UNSPECIFIED'), ('UNSPECIFIED') ) ;
#881 = LINE ( 'NONE', #464, #16 ) ;
#882 = LINE ( 'NONE', #460, #150 ) ;
#883 = CARTESIAN_POINT ( 'NONE',  ( -11.00000000000000000, -6.099999999999999645, 0.000000000000000000 ) ) ;
#884 = LINE ( 'NONE', #748, #256 ) ;
#885 = DIRECTION ( 'NONE',  ( 0.000000000000000000, 0.000000000000000000, -1.000000000000000000 ) ) ;
#886 = EDGE_CURVE ( 'NONE', #482, #648, #785, .T. ) ;
#887 = CIRCLE ( 'NONE', #99, 1.100000000000000311 ) ;
#888 = VERTEX_POINT ( 'NONE', #400 ) ;
#889 = VECTOR ( 'NONE', #406, 1000.000000000000000 ) ;
#890 = FACE_OUTER_BOUND ( 'NONE', #309, .T. ) ;
#891 = AXIS2_PLACEMENT_3D ( 'NONE', #189, #915, #570 ) ;
#892 = ORIENTED_EDGE ( 'NONE', *, *, #404, .T. ) ;
#893 = FACE_OUTER_BOUND ( 'NONE', #267, .T. ) ;
#894 = ADVANCED_FACE ( 'NONE', ( #687, #898 ), #461, .T. ) ;
#895 = EDGE_LOOP ( 'NONE', ( #804, #642, #714, #868 ) ) ;
#896 = CARTESIAN_POINT ( 'NONE',  ( -6.000000000000000000, -6.099999999999999645, 4.300000000000001599 ) ) ;
#897 = ORIENTED_EDGE ( 'NONE', *, *, #11, .F. ) ;
#898 = FACE_OUTER_BOUND ( 'NONE', #573, .T. ) ;
#899 = DIRECTION ( 'NONE',  ( -1.000000000000000000, 0.000000000000000000, 0.000000000000000000 ) ) ;
#900 = DIRECTION ( 'NONE',  ( -1.000000000000000000, -0.000000000000000000, -0.000000000000000000 ) ) ;
#901 = DIRECTION ( 'NONE',  ( 1.000000000000000000, 0.000000000000000000, 0.000000000000000000 ) ) ;
#902 = CARTESIAN_POINT ( 'NONE',  ( -11.00000000000000000, -6.099999999999999645, 0.000000000000000000 ) ) ;
#903 = ORIENTED_EDGE ( 'NONE', *, *, #21, .T. ) ;
#904 = CARTESIAN_POINT ( 'NONE',  ( -6.000000000000000000, -6.099999999999999645, -18.30000000000000071 ) ) ;
#905 = AXIS2_PLACEMENT_3D ( 'NONE', #422, #382, #378 ) ;
#906 = ORIENTED_EDGE ( 'NONE', *, *, #808, .T. ) ;
#907 = EDGE_CURVE ( 'NONE', #925, #763, #508, .T. ) ;
#908 = EDGE_CURVE ( 'NONE', #280, #9, #771, .T. ) ;
#909 = CARTESIAN_POINT ( 'NONE',  ( 17.00000000000000000, 6.099999999999999645, 4.300000000000001599 ) ) ;
#910 = CARTESIAN_POINT ( 'NONE',  ( 0.000000000000000000, 0.000000000000000000, 12.40000000000000213 ) ) ;
#911 = ORIENTED_EDGE ( 'NONE', *, *, #604, .T. ) ;
#912 = PLANE ( 'NONE',  #769 ) ;
#913 = DIRECTION ( 'NONE',  ( 0.000000000000000000, 0.000000000000000000, 1.000000000000000000 ) ) ;
#914 = EDGE_LOOP ( 'NONE', ( #834, #906, #126, #608 ) ) ;
#915 = DIRECTION ( 'NONE',  ( 0.000000000000000000, 0.000000000000000000, 1.000000000000000000 ) ) ;
#916 = EDGE_CURVE ( 'NONE', #731, #284, #742, .T. ) ;
#917 = LINE ( 'NONE', #634, #346 ) ;
#918 = CARTESIAN_POINT ( 'NONE',  ( -6.000000000000000000, -6.099999999999999645, 4.300000000000001599 ) ) ;
#919 = ORIENTED_EDGE ( 'NONE', *, *, #661, .F. ) ;
#920 = VECTOR ( 'NONE', #712, 1000.000000000000000 ) ;
#921 = AXIS2_PLACEMENT_3D ( 'NONE', #107, #913, #689 ) ;
#922 = CARTESIAN_POINT ( 'NONE',  ( -6.000000000000000000, 6.099999999999999645, 4.300000000000001599 ) ) ;
#923 = LINE ( 'NONE', #918, #5 ) ;
#924 = CC_DESIGN_PERSON_AND_ORGANIZATION_ASSIGNMENT ( #783, #592, ( #272 ) ) ;
#925 = VERTEX_POINT ( 'NONE', #198 ) ;
#926 = CYLINDRICAL_SURFACE ( 'NONE', #392, 1.100000000000000311 ) ;
#927 = SHAPE_DEFINITION_REPRESENTATION ( #259, #67 ) ;
#928 = LINE ( 'NONE', #278, #365 ) ;
#929 = CARTESIAN_POINT ( 'NONE',  ( 0.000000000000000000, 0.000000000000000000, 4.299999999999999822 ) ) ;
#930 = ORIENTED_EDGE ( 'NONE', *, *, #164, .F. ) ;
#931 = CARTESIAN_POINT ( 'NONE',  ( -11.00000000000000000, -6.099999999999999645, 0.000000000000000000 ) ) ;
#932 = DIRECTION ( 'NONE',  ( 1.000000000000000000, 0.000000000000000000, -0.000000000000000000 ) ) ;
#933 = ORIENTED_EDGE ( 'NONE', *, *, #750, .F. ) ;
#934 = CARTESIAN_POINT ( 'NONE',  ( -11.00000000000000000, 6.099999999999999645, 0.000000000000000000 ) ) ;
ENDSEC;
END-ISO-10303-21;
