ISO-10303-21;
HEADER;
FILE_DESCRIPTION (( 'STEP AP203' ),
    '1' );
FILE_NAME ('HW-N_M3_hex_ENVELOPE.step',
    '2026-09-08T03:42:11',
    ( '' ),
    ( '' ),
    'SwSTEP 2.0',
    'SolidWorks 2026',
    '' );
FILE_SCHEMA (( 'CONFIG_CONTROL_DESIGN' ));
ENDSEC;

DATA;
#1 = CARTESIAN_POINT ( 'NONE',  ( -1.587713240271470205, 2.750000000000000444, 2.399999999999999911 ) ) ;
#2 = APPROVAL_ROLE ( '' ) ;
#3 = DIRECTION ( 'NONE',  ( 0.5000000000000002220, 0.8660254037844384856, 0.000000000000000000 ) ) ;
#4 = CALENDAR_DATE ( 2026, 7, 9 ) ;
#5 = AXIS2_PLACEMENT_3D ( 'NONE', #335, #337, #115 ) ;
#6 = ORIENTED_EDGE ( 'NONE', *, *, #42, .F. ) ;
#7 = PERSON_AND_ORGANIZATION ( #347, #29 ) ;
#8 = ORIENTED_EDGE ( 'NONE', *, *, #179, .T. ) ;
#9 = VERTEX_POINT ( 'NONE', #262 ) ;
#10 = LINE ( 'NONE', #177, #187 ) ;
#11 = CARTESIAN_POINT ( 'NONE',  ( 1.587713240271471316, 2.750000000000000000, 0.000000000000000000 ) ) ;
#12 = DIRECTION ( 'NONE',  ( -1.000000000000000000, 1.365740544306508614E-16, 0.000000000000000000 ) ) ;
#13 = LINE ( 'NONE', #41, #103 ) ;
#14 = CARTESIAN_POINT ( 'NONE',  ( 1.587713240271471316, -2.750000000000000000, 2.399999999999999911 ) ) ;
#15 = EDGE_CURVE ( 'NONE', #298, #198, #331, .T. ) ;
#16 = AXIS2_PLACEMENT_3D ( 'NONE', #218, #45, #374 ) ;
#17 = VECTOR ( 'NONE', #118, 1000.000000000000000 ) ;
#18 = DIRECTION ( 'NONE',  ( 0.000000000000000000, 0.000000000000000000, 1.000000000000000000 ) ) ;
#19 = FACE_BOUND ( 'NONE', #80, .T. ) ;
#20 = DIRECTION ( 'NONE',  ( -0.000000000000000000, -0.000000000000000000, -1.000000000000000000 ) ) ;
#21 = VECTOR ( 'NONE', #239, 1000.000000000000000 ) ;
#22 = CARTESIAN_POINT ( 'NONE',  ( 0.000000000000000000, 0.000000000000000000, 2.399999999999999911 ) ) ;
#23 = CARTESIAN_POINT ( 'NONE',  ( 0.000000000000000000, 0.000000000000000000, 0.000000000000000000 ) ) ;
#24 = SECURITY_CLASSIFICATION ( '', '', #50 ) ;
#25 = CARTESIAN_POINT ( 'NONE',  ( -1.587713240271472204, -2.749999999999999556, 2.399999999999999911 ) ) ;
#26 = DIRECTION ( 'NONE',  ( 0.4999999999999998890, -0.8660254037844385966, 0.000000000000000000 ) ) ;
#27 = APPROVAL_DATE_TIME ( #223, #319 ) ;
#28 = CARTESIAN_POINT ( 'NONE',  ( -1.587713240271470205, 2.750000000000000444, 2.399999999999999911 ) ) ;
#29 = ORGANIZATION ( 'UNSPECIFIED', 'UNSPECIFIED', '' ) ;
#30 = AXIS2_PLACEMENT_3D ( 'NONE', #227, #355, #354 ) ;
#31 = ORIENTED_EDGE ( 'NONE', *, *, #91, .T. ) ;
#32 = ORIENTED_EDGE ( 'NONE', *, *, #307, .F. ) ;
#33 = LINE ( 'NONE', #61, #110 ) ;
#34 = MANIFOLD_SOLID_BREP ( 'Nut_thread_envelope_height_2.4', #152 ) ;
#35 = DIRECTION ( 'NONE',  ( -0.000000000000000000, -0.000000000000000000, -1.000000000000000000 ) ) ;
#36 = ORIENTED_EDGE ( 'NONE', *, *, #146, .F. ) ;
#37 = ORIENTED_EDGE ( 'NONE', *, *, #175, .T. ) ;
#38 = DIRECTION ( 'NONE',  ( 1.000000000000000000, 0.000000000000000000, -0.000000000000000000 ) ) ;
#39 = EDGE_LOOP ( 'NONE', ( #364, #153, #6, #268 ) ) ;
#40 = CARTESIAN_POINT ( 'NONE',  ( 0.000000000000000000, 0.000000000000000000, 2.399999999999999911 ) ) ;
#41 = CARTESIAN_POINT ( 'NONE',  ( 1.587713240271471316, 2.750000000000000000, 0.000000000000000000 ) ) ;
#42 = EDGE_CURVE ( 'NONE', #9, #290, #81, .T. ) ;
#43 = APPROVAL_PERSON_ORGANIZATION ( #7, #94, #351 ) ;
#44 = DIRECTION ( 'NONE',  ( 1.000000000000000000, 0.000000000000000000, -0.000000000000000000 ) ) ;
#45 = DIRECTION ( 'NONE',  ( 0.000000000000000000, 0.000000000000000000, 1.000000000000000000 ) ) ;
#46 = DIRECTION ( 'NONE',  ( 1.000000000000000000, -1.365740544306508614E-16, 0.000000000000000000 ) ) ;
#47 = CC_DESIGN_DATE_AND_TIME_ASSIGNMENT ( #134, #137, ( #258 ) ) ;
#48 = APPROVAL_ROLE ( '' ) ;
#49 = LINE ( 'NONE', #328, #211 ) ;
#50 = SECURITY_CLASSIFICATION_LEVEL ( 'unclassified' ) ;
#51 = CARTESIAN_POINT ( 'NONE',  ( 1.500000000000000000, 1.836970198721029934E-16, 2.399999999999999911 ) ) ;
#52 = DIRECTION ( 'NONE',  ( 0.000000000000000000, 0.000000000000000000, 1.000000000000000000 ) ) ;
#53 = FACE_OUTER_BOUND ( 'NONE', #39, .T. ) ;
#54 = CC_DESIGN_APPROVAL ( #94, ( #256 ) ) ;
#55 = VECTOR ( 'NONE', #170, 1000.000000000000000 ) ;
#56 = PLANE ( 'NONE',  #5 ) ;
#57 = VERTEX_POINT ( 'NONE', #51 ) ;
#58 = DIRECTION ( 'NONE',  ( -0.000000000000000000, -0.000000000000000000, -1.000000000000000000 ) ) ;
#59 = ORIENTED_EDGE ( 'NONE', *, *, #317, .F. ) ;
#60 = ORIENTED_EDGE ( 'NONE', *, *, #271, .F. ) ;
#61 = CARTESIAN_POINT ( 'NONE',  ( 3.175426480542941743, 0.000000000000000000, 2.399999999999999911 ) ) ;
#62 = ORIENTED_EDGE ( 'NONE', *, *, #117, .F. ) ;
#63 = VECTOR ( 'NONE', #58, 1000.000000000000000 ) ;
#64 = CARTESIAN_POINT ( 'NONE',  ( -1.500000000000000000, 0.000000000000000000, 2.399999999999999911 ) ) ;
#65 = FACE_OUTER_BOUND ( 'NONE', #147, .T. ) ;
#66 = APPLICATION_CONTEXT ( 'configuration controlled 3d designs of mechanical parts and assemblies' ) ;
#67 = ORIENTED_EDGE ( 'NONE', *, *, #175, .F. ) ;
#68 = LINE ( 'NONE', #160, #171 ) ;
#69 = DIRECTION ( 'NONE',  ( -1.365740544306508614E-16, -1.000000000000000000, 0.000000000000000000 ) ) ;
#70 = DIRECTION ( 'NONE',  ( -1.000000000000000000, 1.365740544306508614E-16, 0.000000000000000000 ) ) ;
#71 = LOCAL_TIME ( 22, 42, 11.00000000000000000, #74 ) ;
#72 = AXIS2_PLACEMENT_3D ( 'NONE', #133, #219, #158 ) ;
#73 = COORDINATED_UNIVERSAL_TIME_OFFSET ( 6, 0, .BEHIND. ) ;
#74 = COORDINATED_UNIVERSAL_TIME_OFFSET ( 6, 0, .BEHIND. ) ;
#75 = CYLINDRICAL_SURFACE ( 'NONE', #203, 1.500000000000000000 ) ;
#76 = APPROVAL_DATE_TIME ( #233, #94 ) ;
#77 = CARTESIAN_POINT ( 'NONE',  ( -1.587713240271472204, -2.749999999999999556, 2.399999999999999911 ) ) ;
#78 = VECTOR ( 'NONE', #365, 1000.000000000000000 ) ;
#79 = FACE_OUTER_BOUND ( 'NONE', #113, .T. ) ;
#80 = EDGE_LOOP ( 'NONE', ( #352, #361 ) ) ;
#81 = LINE ( 'NONE', #28, #286 ) ;
#82 = ORIENTED_EDGE ( 'NONE', *, *, #117, .T. ) ;
#83 = FACE_OUTER_BOUND ( 'NONE', #238, .T. ) ;
#84 = LOCAL_TIME ( 22, 42, 11.00000000000000000, #106 ) ;
#85 = APPLICATION_CONTEXT ( 'configuration controlled 3d designs of mechanical parts and assemblies' ) ;
#86 = ORIENTED_EDGE ( 'NONE', *, *, #224, .T. ) ;
#87 = PLANE ( 'NONE',  #340 ) ;
#88 = APPROVAL ( #167, 'UNSPECIFIED' ) ;
#89 = LINE ( 'NONE', #207, #257 ) ;
#90 = ORIENTED_EDGE ( 'NONE', *, *, #165, .T. ) ;
#91 = EDGE_CURVE ( 'NONE', #159, #189, #49, .T. ) ;
#92 = DIRECTION ( 'NONE',  ( 1.365740544306508121E-16, 1.000000000000000000, -0.000000000000000000 ) ) ;
#93 = AXIS2_PLACEMENT_3D ( 'NONE', #23, #52, #139 ) ;
#94 = APPROVAL ( #197, 'UNSPECIFIED' ) ;
#95 = CARTESIAN_POINT ( 'NONE',  ( -3.175426480542941743, 3.888775875324658770E-16, 0.000000000000000000 ) ) ;
#96 = MECHANICAL_CONTEXT ( 'NONE', #66, 'mechanical' ) ;
#97 = ADVANCED_FACE ( 'NONE', ( #79 ), #75, .F. ) ;
#98 =( GEOMETRIC_REPRESENTATION_CONTEXT ( 3 ) GLOBAL_UNCERTAINTY_ASSIGNED_CONTEXT ( ( #216 ) ) GLOBAL_UNIT_ASSIGNED_CONTEXT ( ( #370, #280, #252 ) ) REPRESENTATION_CONTEXT ( 'NONE', 'WORKASPACE' ) );
#99 = PLANE ( 'NONE',  #72 ) ;
#100 = APPROVAL_STATUS ( 'not_yet_approved' ) ;
#101 = ADVANCED_FACE ( 'NONE', ( #53 ), #144, .F. ) ;
#102 = CALENDAR_DATE ( 2026, 7, 9 ) ;
#103 = VECTOR ( 'NONE', #12, 1000.000000000000000 ) ;
#104 = VERTEX_POINT ( 'NONE', #25 ) ;
#105 = CYLINDRICAL_SURFACE ( 'NONE', #30, 1.500000000000000000 ) ;
#106 = COORDINATED_UNIVERSAL_TIME_OFFSET ( 6, 0, .BEHIND. ) ;
#107 = LINE ( 'NONE', #169, #55 ) ;
#108 = EDGE_CURVE ( 'NONE', #276, #159, #107, .T. ) ;
#109 = VERTEX_POINT ( 'NONE', #267 ) ;
#110 = VECTOR ( 'NONE', #154, 1000.000000000000000 ) ;
#111 = ADVANCED_BREP_SHAPE_REPRESENTATION ( 'HW-N_M3_hex_ENVELOPE', ( #34, #16 ), #98 ) ;
#112 = COORDINATED_UNIVERSAL_TIME_OFFSET ( 6, 0, .BEHIND. ) ;
#113 = EDGE_LOOP ( 'NONE', ( #90, #359, #191, #32 ) ) ;
#114 = ADVANCED_FACE ( 'NONE', ( #142 ), #105, .F. ) ;
#115 = DIRECTION ( 'NONE',  ( -0.4999999999999998890, -0.8660254037844385966, 0.000000000000000000 ) ) ;
#116 = VERTEX_POINT ( 'NONE', #141 ) ;
#117 = EDGE_CURVE ( 'NONE', #104, #159, #255, .T. ) ;
#118 = DIRECTION ( 'NONE',  ( 1.000000000000000000, -1.365740544306507874E-16, 0.000000000000000000 ) ) ;
#119 = ORIENTED_EDGE ( 'NONE', *, *, #108, .T. ) ;
#120 = LINE ( 'NONE', #241, #78 ) ;
#121 = ORIENTED_EDGE ( 'NONE', *, *, #317, .T. ) ;
#122 = LINE ( 'NONE', #202, #17 ) ;
#123 = CC_DESIGN_DATE_AND_TIME_ASSIGNMENT ( #327, #288, ( #24 ) ) ;
#124 = CARTESIAN_POINT ( 'NONE',  ( 1.587713240271471316, 2.750000000000000000, 2.399999999999999911 ) ) ;
#125 = ORIENTED_EDGE ( 'NONE', *, *, #301, .F. ) ;
#126 = VECTOR ( 'NONE', #35, 1000.000000000000000 ) ;
#127 = DIRECTION ( 'NONE',  ( 0.000000000000000000, -0.000000000000000000, 1.000000000000000000 ) ) ;
#128 = ADVANCED_FACE ( 'NONE', ( #196 ), #326, .F. ) ;
#129 = CARTESIAN_POINT ( 'NONE',  ( 1.587713240271471316, 2.750000000000000000, 2.399999999999999911 ) ) ;
#130 = CARTESIAN_POINT ( 'NONE',  ( -1.587713240271470205, 2.750000000000000444, 0.000000000000000000 ) ) ;
#131 = CC_DESIGN_PERSON_AND_ORGANIZATION_ASSIGNMENT ( #193, #263, ( #258 ) ) ;
#132 = AXIS2_PLACEMENT_3D ( 'NONE', #22, #127, #44 ) ;
#133 = CARTESIAN_POINT ( 'NONE',  ( -3.175426480542941743, 3.888775875324658770E-16, 2.399999999999999911 ) ) ;
#134 = DATE_AND_TIME ( #4, #376 ) ;
#135 = DIRECTION ( 'NONE',  ( -0.000000000000000000, -0.000000000000000000, -1.000000000000000000 ) ) ;
#136 = CC_DESIGN_APPROVAL ( #88, ( #24 ) ) ;
#137 = DATE_TIME_ROLE ( 'creation_date' ) ;
#138 = CIRCLE ( 'NONE', #266, 1.500000000000000000 ) ;
#139 = DIRECTION ( 'NONE',  ( 1.000000000000000000, 0.000000000000000000, 0.000000000000000000 ) ) ;
#140 = ADVANCED_FACE ( 'NONE', ( #277, #367 ), #87, .F. ) ;
#141 = CARTESIAN_POINT ( 'NONE',  ( 1.587713240271471316, 2.750000000000000000, 2.399999999999999911 ) ) ;
#142 = FACE_OUTER_BOUND ( 'NONE', #236, .T. ) ;
#143 = CC_DESIGN_PERSON_AND_ORGANIZATION_ASSIGNMENT ( #325, #190, ( #24 ) ) ;
#144 = PLANE ( 'NONE',  #377 ) ;
#145 = VECTOR ( 'NONE', #346, 1000.000000000000000 ) ;
#146 = EDGE_CURVE ( 'NONE', #109, #206, #10, .T. ) ;
#147 = EDGE_LOOP ( 'NONE', ( #194, #322, #60, #229 ) ) ;
#148 = DIRECTION ( 'NONE',  ( 1.000000000000000000, 0.000000000000000000, 0.000000000000000000 ) ) ;
#149 = LINE ( 'NONE', #309, #21 ) ;
#150 = EDGE_LOOP ( 'NONE', ( #333, #306, #59, #37 ) ) ;
#151 = DIRECTION ( 'NONE',  ( 0.000000000000000000, 0.000000000000000000, 1.000000000000000000 ) ) ;
#152 = CLOSED_SHELL ( 'NONE', ( #97, #339, #140, #157, #128, #344, #101, #294, #192, #114 ) ) ;
#153 = ORIENTED_EDGE ( 'NONE', *, *, #357, .F. ) ;
#154 = DIRECTION ( 'NONE',  ( -0.000000000000000000, -0.000000000000000000, -1.000000000000000000 ) ) ;
#155 = DIRECTION ( 'NONE',  ( -0.5000000000000001110, -0.8660254037844384856, 0.000000000000000000 ) ) ;
#156 = APPLICATION_PROTOCOL_DEFINITION ( 'international standard', 'config_control_design', 1994, #66 ) ;
#157 = ADVANCED_FACE ( 'NONE', ( #65 ), #56, .F. ) ;
#158 = DIRECTION ( 'NONE',  ( -0.4999999999999997224, 0.8660254037844388186, 0.000000000000000000 ) ) ;
#159 = VERTEX_POINT ( 'NONE', #173 ) ;
#160 = CARTESIAN_POINT ( 'NONE',  ( 1.587713240271471316, 2.750000000000000000, 2.399999999999999911 ) ) ;
#161 = VECTOR ( 'NONE', #20, 1000.000000000000000 ) ;
#162 = FACE_OUTER_BOUND ( 'NONE', #234, .T. ) ;
#163 = DATE_AND_TIME ( #289, #84 ) ;
#164 = ORIENTED_EDGE ( 'NONE', *, *, #184, .T. ) ;
#165 = EDGE_CURVE ( 'NONE', #270, #57, #299, .T. ) ;
#166 = ORIENTED_EDGE ( 'NONE', *, *, #221, .F. ) ;
#167 = APPROVAL_STATUS ( 'not_yet_approved' ) ;
#168 = ORIENTED_EDGE ( 'NONE', *, *, #253, .F. ) ;
#169 = CARTESIAN_POINT ( 'NONE',  ( -3.175426480542941743, 3.888775875324658770E-16, 0.000000000000000000 ) ) ;
#170 = DIRECTION ( 'NONE',  ( 0.4999999999999997224, -0.8660254037844388186, 0.000000000000000000 ) ) ;
#171 = VECTOR ( 'NONE', #70, 1000.000000000000000 ) ;
#172 = CARTESIAN_POINT ( 'NONE',  ( 1.587713240271471316, -2.750000000000000000, 2.399999999999999911 ) ) ;
#173 = CARTESIAN_POINT ( 'NONE',  ( -1.587713240271472204, -2.749999999999999556, 0.000000000000000000 ) ) ;
#174 = ORIENTED_EDGE ( 'NONE', *, *, #15, .T. ) ;
#175 = EDGE_CURVE ( 'NONE', #116, #206, #360, .T. ) ;
#176 = LINE ( 'NONE', #303, #126 ) ;
#177 = CARTESIAN_POINT ( 'NONE',  ( 3.175426480542941743, 0.000000000000000000, 0.000000000000000000 ) ) ;
#178 = DIRECTION ( 'NONE',  ( -0.000000000000000000, -0.000000000000000000, -1.000000000000000000 ) ) ;
#179 = EDGE_CURVE ( 'NONE', #198, #298, #324, .T. ) ;
#180 = PERSON_AND_ORGANIZATION_ROLE ( 'design_owner' ) ;
#181 = CC_DESIGN_APPROVAL ( #319, ( #258 ) ) ;
#182 = CARTESIAN_POINT ( 'NONE',  ( 0.000000000000000000, 0.000000000000000000, 2.399999999999999911 ) ) ;
#183 = LINE ( 'NONE', #371, #281 ) ;
#184 = EDGE_CURVE ( 'NONE', #265, #109, #33, .T. ) ;
#185 = DIRECTION ( 'NONE',  ( 1.000000000000000000, 0.000000000000000000, 0.000000000000000000 ) ) ;
#186 = APPROVAL_PERSON_ORGANIZATION ( #373, #319, #48 ) ;
#187 = VECTOR ( 'NONE', #332, 1000.000000000000000 ) ;
#188 = PERSON_AND_ORGANIZATION ( #347, #29 ) ;
#189 = VERTEX_POINT ( 'NONE', #237 ) ;
#190 = PERSON_AND_ORGANIZATION_ROLE ( 'classification_officer' ) ;
#191 = ORIENTED_EDGE ( 'NONE', *, *, #15, .F. ) ;
#192 = ADVANCED_FACE ( 'NONE', ( #83 ), #275, .F. ) ;
#193 = PERSON_AND_ORGANIZATION ( #347, #29 ) ;
#194 = ORIENTED_EDGE ( 'NONE', *, *, #301, .T. ) ;
#195 = VECTOR ( 'NONE', #375, 1000.000000000000000 ) ;
#196 = FACE_OUTER_BOUND ( 'NONE', #334, .T. ) ;
#197 = APPROVAL_STATUS ( 'not_yet_approved' ) ;
#198 = VERTEX_POINT ( 'NONE', #305 ) ;
#199 = ORIENTED_EDGE ( 'NONE', *, *, #212, .F. ) ;
#200 = PRODUCT_RELATED_PRODUCT_CATEGORY ( 'detail', '', ( #313 ) ) ;
#201 = CARTESIAN_POINT ( 'NONE',  ( 0.000000000000000000, 0.000000000000000000, 2.399999999999999911 ) ) ;
#202 = CARTESIAN_POINT ( 'NONE',  ( -1.587713240271472204, -2.749999999999999556, 2.399999999999999911 ) ) ;
#203 = AXIS2_PLACEMENT_3D ( 'NONE', #201, #135, #330 ) ;
#204 = EDGE_LOOP ( 'NONE', ( #174, #8 ) ) ;
#205 = CARTESIAN_POINT ( 'NONE',  ( 0.000000000000000000, 0.000000000000000000, 0.000000000000000000 ) ) ;
#206 = VERTEX_POINT ( 'NONE', #11 ) ;
#207 = CARTESIAN_POINT ( 'NONE',  ( -1.587713240271470205, 2.750000000000000444, 0.000000000000000000 ) ) ;
#208 = ORIENTED_EDGE ( 'NONE', *, *, #249, .F. ) ;
#209 = CC_DESIGN_PERSON_AND_ORGANIZATION_ASSIGNMENT ( #254, #353, ( #256 ) ) ;
#210 = CARTESIAN_POINT ( 'NONE',  ( 3.175426480542941743, 0.000000000000000000, 2.399999999999999911 ) ) ;
#211 = VECTOR ( 'NONE', #232, 1000.000000000000000 ) ;
#212 = EDGE_CURVE ( 'NONE', #206, #304, #13, .T. ) ;
#213 = LINE ( 'NONE', #342, #321 ) ;
#214 = CARTESIAN_POINT ( 'NONE',  ( -1.500000000000000000, 0.000000000000000000, 0.000000000000000000 ) ) ;
#215 = CC_DESIGN_PERSON_AND_ORGANIZATION_ASSIGNMENT ( #259, #226, ( #256 ) ) ;
#216 = UNCERTAINTY_MEASURE_WITH_UNIT (LENGTH_MEASURE( 1.000000000000000082E-05 ), #370, 'distance_accuracy_value', 'NONE');
#217 = ORIENTED_EDGE ( 'NONE', *, *, #271, .T. ) ;
#218 = CARTESIAN_POINT ( 'NONE',  ( 0.000000000000000000, 0.000000000000000000, 0.000000000000000000 ) ) ;
#219 = DIRECTION ( 'NONE',  ( 0.8660254037844388186, 0.4999999999999997224, -0.000000000000000000 ) ) ;
#220 = CARTESIAN_POINT ( 'NONE',  ( 1.587713240271471316, -2.750000000000000000, 0.000000000000000000 ) ) ;
#221 = EDGE_CURVE ( 'NONE', #265, #116, #120, .T. ) ;
#222 = AXIS2_PLACEMENT_3D ( 'NONE', #129, #69, #46 ) ;
#223 = DATE_AND_TIME ( #261, #245 ) ;
#224 = EDGE_CURVE ( 'NONE', #104, #235, #122, .T. ) ;
#225 = ORIENTED_EDGE ( 'NONE', *, *, #221, .T. ) ;
#226 = PERSON_AND_ORGANIZATION_ROLE ( 'creator' ) ;
#227 = CARTESIAN_POINT ( 'NONE',  ( 0.000000000000000000, 0.000000000000000000, 2.399999999999999911 ) ) ;
#228 = APPROVAL_DATE_TIME ( #163, #88 ) ;
#229 = ORIENTED_EDGE ( 'NONE', *, *, #249, .T. ) ;
#230 = EDGE_CURVE ( 'NONE', #304, #276, #89, .T. ) ;
#231 = AXIS2_PLACEMENT_3D ( 'NONE', #363, #151, #269 ) ;
#232 = DIRECTION ( 'NONE',  ( 1.000000000000000000, -1.365740544306507874E-16, 0.000000000000000000 ) ) ;
#233 = DATE_AND_TIME ( #291, #349 ) ;
#234 = EDGE_LOOP ( 'NONE', ( #119, #62, #168, #310 ) ) ;
#235 = VERTEX_POINT ( 'NONE', #172 ) ;
#236 = EDGE_LOOP ( 'NONE', ( #297, #302, #338, #329 ) ) ;
#237 = CARTESIAN_POINT ( 'NONE',  ( 1.587713240271471316, -2.750000000000000000, 0.000000000000000000 ) ) ;
#238 = EDGE_LOOP ( 'NONE', ( #31, #208, #366, #82 ) ) ;
#239 = DIRECTION ( 'NONE',  ( 0.4999999999999997224, -0.8660254037844388186, 0.000000000000000000 ) ) ;
#240 = ORIENTED_EDGE ( 'NONE', *, *, #253, .T. ) ;
#241 = CARTESIAN_POINT ( 'NONE',  ( 3.175426480542941743, 0.000000000000000000, 2.399999999999999911 ) ) ;
#242 = DIRECTION ( 'NONE',  ( 0.000000000000000000, -0.000000000000000000, 1.000000000000000000 ) ) ;
#243 = DIRECTION ( 'NONE',  ( 0.000000000000000000, 0.000000000000000000, 1.000000000000000000 ) ) ;
#244 = PRODUCT_DEFINITION_SHAPE ( 'NONE', 'NONE',  #258 ) ;
#245 = LOCAL_TIME ( 22, 42, 11.00000000000000000, #296 ) ;
#246 = DIRECTION ( 'NONE',  ( -0.000000000000000000, -0.000000000000000000, -1.000000000000000000 ) ) ;
#247 = EDGE_LOOP ( 'NONE', ( #125, #323, #264, #358, #199, #36 ) ) ;
#248 = PERSON_AND_ORGANIZATION ( #347, #29 ) ;
#249 = EDGE_CURVE ( 'NONE', #235, #189, #176, .T. ) ;
#250 = AXIS2_PLACEMENT_3D ( 'NONE', #300, #295, #26 ) ;
#251 = LINE ( 'NONE', #343, #145 ) ;
#252 =( NAMED_UNIT ( * ) SI_UNIT ( $, .STERADIAN. ) SOLID_ANGLE_UNIT ( ) );
#253 = EDGE_CURVE ( 'NONE', #290, #104, #149, .T. ) ;
#254 = PERSON_AND_ORGANIZATION ( #347, #29 ) ;
#255 = LINE ( 'NONE', #77, #195 ) ;
#256 = PRODUCT_DEFINITION_FORMATION_WITH_SPECIFIED_SOURCE ( 'ANY', '', #313, .NOT_KNOWN. ) ;
#257 = VECTOR ( 'NONE', #155, 1000.000000000000227 ) ;
#258 = PRODUCT_DEFINITION ( 'UNKNOWN', '', #256, #283 ) ;
#259 = PERSON_AND_ORGANIZATION ( #347, #29 ) ;
#260 = DIRECTION ( 'NONE',  ( -0.5000000000000001110, -0.8660254037844384856, 0.000000000000000000 ) ) ;
#261 = CALENDAR_DATE ( 2026, 7, 9 ) ;
#262 = CARTESIAN_POINT ( 'NONE',  ( -1.587713240271470205, 2.750000000000000444, 2.399999999999999911 ) ) ;
#263 = PERSON_AND_ORGANIZATION_ROLE ( 'creator' ) ;
#264 = ORIENTED_EDGE ( 'NONE', *, *, #108, .F. ) ;
#265 = VERTEX_POINT ( 'NONE', #210 ) ;
#266 = AXIS2_PLACEMENT_3D ( 'NONE', #182, #18, #185 ) ;
#267 = CARTESIAN_POINT ( 'NONE',  ( 3.175426480542941743, 0.000000000000000000, 0.000000000000000000 ) ) ;
#268 = ORIENTED_EDGE ( 'NONE', *, *, #279, .T. ) ;
#269 = DIRECTION ( 'NONE',  ( 1.000000000000000000, 0.000000000000000000, 0.000000000000000000 ) ) ;
#270 = VERTEX_POINT ( 'NONE', #64 ) ;
#271 = EDGE_CURVE ( 'NONE', #235, #265, #278, .T. ) ;
#272 = LINE ( 'NONE', #284, #161 ) ;
#273 = ORIENTED_EDGE ( 'NONE', *, *, #42, .T. ) ;
#274 = AXIS2_PLACEMENT_3D ( 'NONE', #311, #92, #341 ) ;
#275 = PLANE ( 'NONE',  #274 ) ;
#276 = VERTEX_POINT ( 'NONE', #95 ) ;
#277 = FACE_OUTER_BOUND ( 'NONE', #247, .T. ) ;
#278 = LINE ( 'NONE', #14, #350 ) ;
#279 = EDGE_CURVE ( 'NONE', #9, #304, #213, .T. ) ;
#280 =( NAMED_UNIT ( * ) PLANE_ANGLE_UNIT ( ) SI_UNIT ( $, .RADIAN. ) );
#281 = VECTOR ( 'NONE', #246, 1000.000000000000000 ) ;
#282 = FACE_OUTER_BOUND ( 'NONE', #150, .T. ) ;
#283 = DESIGN_CONTEXT ( 'detailed design', #85, 'design' ) ;
#284 = CARTESIAN_POINT ( 'NONE',  ( 1.500000000000000000, 1.836970198721029934E-16, 2.399999999999999911 ) ) ;
#285 = EDGE_CURVE ( 'NONE', #57, #198, #272, .T. ) ;
#286 = VECTOR ( 'NONE', #260, 1000.000000000000227 ) ;
#287 = EDGE_CURVE ( 'NONE', #57, #270, #138, .T. ) ;
#288 = DATE_TIME_ROLE ( 'classification_date' ) ;
#289 = CALENDAR_DATE ( 2026, 7, 9 ) ;
#290 = VERTEX_POINT ( 'NONE', #314 ) ;
#291 = CALENDAR_DATE ( 2026, 7, 9 ) ;
#292 = DIRECTION ( 'NONE',  ( 0.8660254037844385966, -0.5000000000000003331, 0.000000000000000000 ) ) ;
#293 = SHAPE_DEFINITION_REPRESENTATION ( #244, #111 ) ;
#294 = ADVANCED_FACE ( 'NONE', ( #162 ), #99, .F. ) ;
#295 = DIRECTION ( 'NONE',  ( -0.8660254037844387076, -0.4999999999999999445, 0.000000000000000000 ) ) ;
#296 = COORDINATED_UNIVERSAL_TIME_OFFSET ( 6, 0, .BEHIND. ) ;
#297 = ORIENTED_EDGE ( 'NONE', *, *, #285, .F. ) ;
#298 = VERTEX_POINT ( 'NONE', #214 ) ;
#299 = CIRCLE ( 'NONE', #368, 1.500000000000000000 ) ;
#300 = CARTESIAN_POINT ( 'NONE',  ( 3.175426480542941743, 0.000000000000000000, 2.399999999999999911 ) ) ;
#301 = EDGE_CURVE ( 'NONE', #189, #109, #372, .T. ) ;
#302 = ORIENTED_EDGE ( 'NONE', *, *, #287, .T. ) ;
#303 = CARTESIAN_POINT ( 'NONE',  ( 1.587713240271471316, -2.750000000000000000, 2.399999999999999911 ) ) ;
#304 = VERTEX_POINT ( 'NONE', #130 ) ;
#305 = CARTESIAN_POINT ( 'NONE',  ( 1.500000000000000000, 1.836970198721029934E-16, 0.000000000000000000 ) ) ;
#306 = ORIENTED_EDGE ( 'NONE', *, *, #279, .F. ) ;
#307 = EDGE_CURVE ( 'NONE', #270, #298, #251, .T. ) ;
#308 = VECTOR ( 'NONE', #348, 1000.000000000000000 ) ;
#309 = CARTESIAN_POINT ( 'NONE',  ( -3.175426480542941743, 3.888775875324658770E-16, 2.399999999999999911 ) ) ;
#310 = ORIENTED_EDGE ( 'NONE', *, *, #357, .T. ) ;
#311 = CARTESIAN_POINT ( 'NONE',  ( -1.587713240271472204, -2.749999999999999556, 2.399999999999999911 ) ) ;
#312 = CC_DESIGN_PERSON_AND_ORGANIZATION_ASSIGNMENT ( #248, #180, ( #313 ) ) ;
#313 = PRODUCT ( 'HW-N_M3_hex_ENVELOPE', 'HW-N_M3_hex_ENVELOPE', '', ( #96 ) ) ;
#314 = CARTESIAN_POINT ( 'NONE',  ( -3.175426480542941743, 3.888775875324658770E-16, 2.399999999999999911 ) ) ;
#315 = APPLICATION_PROTOCOL_DEFINITION ( 'international standard', 'config_control_design', 1994, #85 ) ;
#316 = APPROVAL_PERSON_ORGANIZATION ( #188, #88, #2 ) ;
#317 = EDGE_CURVE ( 'NONE', #116, #9, #68, .T. ) ;
#318 = PLANE ( 'NONE',  #132 ) ;
#319 = APPROVAL ( #100, 'UNSPECIFIED' ) ;
#320 = FACE_OUTER_BOUND ( 'NONE', #356, .T. ) ;
#321 = VECTOR ( 'NONE', #178, 1000.000000000000000 ) ;
#322 = ORIENTED_EDGE ( 'NONE', *, *, #184, .F. ) ;
#323 = ORIENTED_EDGE ( 'NONE', *, *, #91, .F. ) ;
#324 = CIRCLE ( 'NONE', #231, 1.500000000000000000 ) ;
#325 = PERSON_AND_ORGANIZATION ( #347, #29 ) ;
#326 = PLANE ( 'NONE',  #250 ) ;
#327 = DATE_AND_TIME ( #102, #71 ) ;
#328 = CARTESIAN_POINT ( 'NONE',  ( -1.587713240271472204, -2.749999999999999556, 0.000000000000000000 ) ) ;
#329 = ORIENTED_EDGE ( 'NONE', *, *, #179, .F. ) ;
#330 = DIRECTION ( 'NONE',  ( -1.000000000000000000, 0.000000000000000000, 0.000000000000000000 ) ) ;
#331 = CIRCLE ( 'NONE', #93, 1.500000000000000000 ) ;
#332 = DIRECTION ( 'NONE',  ( -0.4999999999999998890, 0.8660254037844387076, 0.000000000000000000 ) ) ;
#333 = ORIENTED_EDGE ( 'NONE', *, *, #212, .T. ) ;
#334 = EDGE_LOOP ( 'NONE', ( #336, #67, #166, #164 ) ) ;
#335 = CARTESIAN_POINT ( 'NONE',  ( 1.587713240271471316, -2.750000000000000000, 2.399999999999999911 ) ) ;
#336 = ORIENTED_EDGE ( 'NONE', *, *, #146, .T. ) ;
#337 = DIRECTION ( 'NONE',  ( -0.8660254037844387076, 0.4999999999999999445, 0.000000000000000000 ) ) ;
#338 = ORIENTED_EDGE ( 'NONE', *, *, #307, .T. ) ;
#339 = ADVANCED_FACE ( 'NONE', ( #320, #19 ), #318, .T. ) ;
#340 = AXIS2_PLACEMENT_3D ( 'NONE', #205, #242, #38 ) ;
#341 = DIRECTION ( 'NONE',  ( -1.000000000000000000, 1.365740544306508121E-16, 0.000000000000000000 ) ) ;
#342 = CARTESIAN_POINT ( 'NONE',  ( -1.587713240271470205, 2.750000000000000444, 2.399999999999999911 ) ) ;
#343 = CARTESIAN_POINT ( 'NONE',  ( -1.500000000000000000, 0.000000000000000000, 2.399999999999999911 ) ) ;
#344 = ADVANCED_FACE ( 'NONE', ( #282 ), #345, .F. ) ;
#345 = PLANE ( 'NONE',  #222 ) ;
#346 = DIRECTION ( 'NONE',  ( -0.000000000000000000, -0.000000000000000000, -1.000000000000000000 ) ) ;
#347 = PERSON ( 'UNSPECIFIED', 'UNSPECIFIED', 'UNSPECIFIED', ('UNSPECIFIED'), ('UNSPECIFIED'), ('UNSPECIFIED') ) ;
#348 = DIRECTION ( 'NONE',  ( 0.4999999999999998890, 0.8660254037844387076, 0.000000000000000000 ) ) ;
#349 = LOCAL_TIME ( 22, 42, 11.00000000000000000, #73 ) ;
#350 = VECTOR ( 'NONE', #369, 1000.000000000000000 ) ;
#351 = APPROVAL_ROLE ( '' ) ;
#352 = ORIENTED_EDGE ( 'NONE', *, *, #165, .F. ) ;
#353 = PERSON_AND_ORGANIZATION_ROLE ( 'design_supplier' ) ;
#354 = DIRECTION ( 'NONE',  ( -1.000000000000000000, 0.000000000000000000, 0.000000000000000000 ) ) ;
#355 = DIRECTION ( 'NONE',  ( -0.000000000000000000, -0.000000000000000000, -1.000000000000000000 ) ) ;
#356 = EDGE_LOOP ( 'NONE', ( #217, #225, #121, #273, #240, #86 ) ) ;
#357 = EDGE_CURVE ( 'NONE', #290, #276, #183, .T. ) ;
#358 = ORIENTED_EDGE ( 'NONE', *, *, #230, .F. ) ;
#359 = ORIENTED_EDGE ( 'NONE', *, *, #285, .T. ) ;
#360 = LINE ( 'NONE', #124, #63 ) ;
#361 = ORIENTED_EDGE ( 'NONE', *, *, #287, .F. ) ;
#362 = CC_DESIGN_SECURITY_CLASSIFICATION ( #24, ( #256 ) ) ;
#363 = CARTESIAN_POINT ( 'NONE',  ( 0.000000000000000000, 0.000000000000000000, 0.000000000000000000 ) ) ;
#364 = ORIENTED_EDGE ( 'NONE', *, *, #230, .T. ) ;
#365 = DIRECTION ( 'NONE',  ( -0.4999999999999998890, 0.8660254037844387076, 0.000000000000000000 ) ) ;
#366 = ORIENTED_EDGE ( 'NONE', *, *, #224, .F. ) ;
#367 = FACE_BOUND ( 'NONE', #204, .T. ) ;
#368 = AXIS2_PLACEMENT_3D ( 'NONE', #40, #243, #148 ) ;
#369 = DIRECTION ( 'NONE',  ( 0.4999999999999998890, 0.8660254037844387076, 0.000000000000000000 ) ) ;
#370 =( LENGTH_UNIT ( ) NAMED_UNIT ( * ) SI_UNIT ( .MILLI., .METRE. ) );
#371 = CARTESIAN_POINT ( 'NONE',  ( -3.175426480542941743, 3.888775875324658770E-16, 2.399999999999999911 ) ) ;
#372 = LINE ( 'NONE', #220, #308 ) ;
#373 = PERSON_AND_ORGANIZATION ( #347, #29 ) ;
#374 = DIRECTION ( 'NONE',  ( 1.000000000000000000, 0.000000000000000000, 0.000000000000000000 ) ) ;
#375 = DIRECTION ( 'NONE',  ( -0.000000000000000000, -0.000000000000000000, -1.000000000000000000 ) ) ;
#376 = LOCAL_TIME ( 22, 42, 11.00000000000000000, #112 ) ;
#377 = AXIS2_PLACEMENT_3D ( 'NONE', #1, #292, #3 ) ;
ENDSEC;
END-ISO-10303-21;
