ISO-10303-21;
HEADER;
FILE_DESCRIPTION (( 'STEP AP203' ),
    '1' );
FILE_NAME ('HW-N_M3_nyloc_ENVELOPE.step',
    '2026-09-08T03:42:21',
    ( '' ),
    ( '' ),
    'SwSTEP 2.0',
    'SolidWorks 2026',
    '' );
FILE_SCHEMA (( 'CONFIG_CONTROL_DESIGN' ));
ENDSEC;

DATA;
#1 = CARTESIAN_POINT ( 'NONE',  ( 0.000000000000000000, 0.000000000000000000, 0.000000000000000000 ) ) ;
#2 = ORIENTED_EDGE ( 'NONE', *, *, #205, .T. ) ;
#3 = DIRECTION ( 'NONE',  ( -1.000000000000000000, 1.365740544306508614E-16, 0.000000000000000000 ) ) ;
#4 = ORIENTED_EDGE ( 'NONE', *, *, #99, .T. ) ;
#5 = DIRECTION ( 'NONE',  ( -0.000000000000000000, -0.000000000000000000, -1.000000000000000000 ) ) ;
#6 = LOCAL_TIME ( 22, 42, 21.00000000000000000, #62 ) ;
#7 = AXIS2_PLACEMENT_3D ( 'NONE', #54, #319, #57 ) ;
#8 = PERSON_AND_ORGANIZATION_ROLE ( 'design_supplier' ) ;
#9 = CARTESIAN_POINT ( 'NONE',  ( 0.000000000000000000, 0.000000000000000000, 4.000000000000000000 ) ) ;
#10 = CARTESIAN_POINT ( 'NONE',  ( -1.500000000000000000, 0.000000000000000000, 4.000000000000000000 ) ) ;
#11 = APPLICATION_PROTOCOL_DEFINITION ( 'international standard', 'config_control_design', 1994, #76 ) ;
#12 = DIRECTION ( 'NONE',  ( 0.4999999999999997224, -0.8660254037844388186, 0.000000000000000000 ) ) ;
#13 = APPROVAL ( #293, 'UNSPECIFIED' ) ;
#14 = ORIENTED_EDGE ( 'NONE', *, *, #29, .F. ) ;
#15 = DIRECTION ( 'NONE',  ( 1.000000000000000000, -1.365740544306508614E-16, 0.000000000000000000 ) ) ;
#16 = EDGE_CURVE ( 'NONE', #348, #229, #300, .T. ) ;
#17 = LINE ( 'NONE', #254, #215 ) ;
#18 = DIRECTION ( 'NONE',  ( -1.000000000000000000, 0.000000000000000000, 0.000000000000000000 ) ) ;
#19 = LINE ( 'NONE', #217, #50 ) ;
#20 = VECTOR ( 'NONE', #35, 1000.000000000000000 ) ;
#21 = EDGE_LOOP ( 'NONE', ( #232, #14, #226, #373 ) ) ;
#22 = DIRECTION ( 'NONE',  ( -0.000000000000000000, -0.000000000000000000, -1.000000000000000000 ) ) ;
#23 = ADVANCED_FACE ( 'NONE', ( #339 ), #134, .F. ) ;
#24 = ORIENTED_EDGE ( 'NONE', *, *, #129, .F. ) ;
#25 = PLANE ( 'NONE',  #91 ) ;
#26 = ORIENTED_EDGE ( 'NONE', *, *, #251, .T. ) ;
#27 = UNCERTAINTY_MEASURE_WITH_UNIT (LENGTH_MEASURE( 1.000000000000000082E-05 ), #357, 'distance_accuracy_value', 'NONE');
#28 = DIRECTION ( 'NONE',  ( 0.5000000000000002220, 0.8660254037844385966, 0.000000000000000000 ) ) ;
#29 = EDGE_CURVE ( 'NONE', #375, #174, #17, .T. ) ;
#30 = ORIENTED_EDGE ( 'NONE', *, *, #16, .T. ) ;
#31 = CARTESIAN_POINT ( 'NONE',  ( -3.175426480542941743, 3.888775875324658770E-16, 4.000000000000000000 ) ) ;
#32 = ADVANCED_FACE ( 'NONE', ( #194 ), #137, .F. ) ;
#33 = VERTEX_POINT ( 'NONE', #171 ) ;
#34 = DIRECTION ( 'NONE',  ( -0.000000000000000000, -0.000000000000000000, -1.000000000000000000 ) ) ;
#35 = DIRECTION ( 'NONE',  ( -0.000000000000000000, -0.000000000000000000, -1.000000000000000000 ) ) ;
#36 = VECTOR ( 'NONE', #12, 1000.000000000000000 ) ;
#37 = CARTESIAN_POINT ( 'NONE',  ( 3.175426480542941743, 0.000000000000000000, 4.000000000000000000 ) ) ;
#38 = DATE_TIME_ROLE ( 'classification_date' ) ;
#39 = CALENDAR_DATE ( 2026, 7, 9 ) ;
#40 = SECURITY_CLASSIFICATION_LEVEL ( 'unclassified' ) ;
#41 = DIRECTION ( 'NONE',  ( -0.5000000000000001110, -0.8660254037844384856, 0.000000000000000000 ) ) ;
#42 = EDGE_CURVE ( 'NONE', #196, #33, #110, .T. ) ;
#43 = DIRECTION ( 'NONE',  ( 1.000000000000000000, 0.000000000000000000, 0.000000000000000000 ) ) ;
#44 = CLOSED_SHELL ( 'NONE', ( #79, #242, #167, #153, #32, #95, #224, #218, #23, #289 ) ) ;
#45 = ORIENTED_EDGE ( 'NONE', *, *, #111, .F. ) ;
#46 = DIRECTION ( 'NONE',  ( 1.000000000000000000, 0.000000000000000000, 0.000000000000000000 ) ) ;
#47 = EDGE_LOOP ( 'NONE', ( #151, #149, #286, #284 ) ) ;
#48 = CARTESIAN_POINT ( 'NONE',  ( -3.175426480542941743, 3.888775875324658770E-16, 4.000000000000000000 ) ) ;
#49 = EDGE_CURVE ( 'NONE', #33, #174, #310, .T. ) ;
#50 = VECTOR ( 'NONE', #41, 1000.000000000000227 ) ;
#51 = ORIENTED_EDGE ( 'NONE', *, *, #231, .T. ) ;
#52 = CARTESIAN_POINT ( 'NONE',  ( 1.500000000000000000, 1.836970198721029934E-16, 4.000000000000000000 ) ) ;
#53 = ORIENTED_EDGE ( 'NONE', *, *, #129, .T. ) ;
#54 = CARTESIAN_POINT ( 'NONE',  ( 0.000000000000000000, 0.000000000000000000, 0.000000000000000000 ) ) ;
#55 = ORIENTED_EDGE ( 'NONE', *, *, #104, .T. ) ;
#56 = EDGE_CURVE ( 'NONE', #229, #348, #269, .T. ) ;
#57 = DIRECTION ( 'NONE',  ( 1.000000000000000000, 0.000000000000000000, 0.000000000000000000 ) ) ;
#58 = CC_DESIGN_DATE_AND_TIME_ASSIGNMENT ( #245, #188, ( #236 ) ) ;
#59 = EDGE_LOOP ( 'NONE', ( #198, #280, #179, #51 ) ) ;
#60 = LINE ( 'NONE', #88, #352 ) ;
#61 = FACE_OUTER_BOUND ( 'NONE', #320, .T. ) ;
#62 = COORDINATED_UNIVERSAL_TIME_OFFSET ( 6, 0, .BEHIND. ) ;
#63 = LOCAL_TIME ( 22, 42, 21.00000000000000000, #238 ) ;
#64 = DATE_AND_TIME ( #159, #63 ) ;
#65 = CIRCLE ( 'NONE', #363, 1.500000000000000000 ) ;
#66 = LINE ( 'NONE', #212, #190 ) ;
#67 = DIRECTION ( 'NONE',  ( 1.000000000000000000, 0.000000000000000000, 0.000000000000000000 ) ) ;
#68 = PERSON_AND_ORGANIZATION_ROLE ( 'creator' ) ;
#69 = EDGE_CURVE ( 'NONE', #144, #89, #19, .T. ) ;
#70 = COORDINATED_UNIVERSAL_TIME_OFFSET ( 6, 0, .BEHIND. ) ;
#71 = VECTOR ( 'NONE', #128, 1000.000000000000000 ) ;
#72 = DIRECTION ( 'NONE',  ( 0.000000000000000000, 0.000000000000000000, 1.000000000000000000 ) ) ;
#73 = VERTEX_POINT ( 'NONE', #308 ) ;
#74 = ORIENTED_EDGE ( 'NONE', *, *, #338, .F. ) ;
#75 = DIRECTION ( 'NONE',  ( -0.000000000000000000, -0.000000000000000000, -1.000000000000000000 ) ) ;
#76 = APPLICATION_CONTEXT ( 'configuration controlled 3d designs of mechanical parts and assemblies' ) ;
#77 = CARTESIAN_POINT ( 'NONE',  ( -1.587713240271472204, -2.749999999999999556, 4.000000000000000000 ) ) ;
#78 = ORIENTED_EDGE ( 'NONE', *, *, #42, .F. ) ;
#79 = ADVANCED_FACE ( 'NONE', ( #140 ), #193, .F. ) ;
#80 = LINE ( 'NONE', #48, #36 ) ;
#81 = ORIENTED_EDGE ( 'NONE', *, *, #356, .T. ) ;
#82 = CC_DESIGN_DATE_AND_TIME_ASSIGNMENT ( #184, #38, ( #186 ) ) ;
#83 = CARTESIAN_POINT ( 'NONE',  ( 0.000000000000000000, 0.000000000000000000, 4.000000000000000000 ) ) ;
#84 = CC_DESIGN_APPROVAL ( #13, ( #186 ) ) ;
#85 = ORIENTED_EDGE ( 'NONE', *, *, #99, .F. ) ;
#86 = PLANE ( 'NONE',  #377 ) ;
#87 = ORIENTED_EDGE ( 'NONE', *, *, #29, .T. ) ;
#88 = CARTESIAN_POINT ( 'NONE',  ( 1.587713240271471316, 2.750000000000000000, 4.000000000000000000 ) ) ;
#89 = VERTEX_POINT ( 'NONE', #164 ) ;
#90 = DIRECTION ( 'NONE',  ( -0.000000000000000000, -0.000000000000000000, -1.000000000000000000 ) ) ;
#91 = AXIS2_PLACEMENT_3D ( 'NONE', #200, #351, #122 ) ;
#92 = DIRECTION ( 'NONE',  ( 0.000000000000000000, -0.000000000000000000, 1.000000000000000000 ) ) ;
#93 = DESIGN_CONTEXT ( 'detailed design', #76, 'design' ) ;
#94 = CARTESIAN_POINT ( 'NONE',  ( -1.587713240271472204, -2.749999999999999556, 0.000000000000000000 ) ) ;
#95 = ADVANCED_FACE ( 'NONE', ( #138 ), #274, .F. ) ;
#96 = APPROVAL_ROLE ( '' ) ;
#97 = VECTOR ( 'NONE', #195, 1000.000000000000000 ) ;
#98 = LINE ( 'NONE', #94, #235 ) ;
#99 = EDGE_CURVE ( 'NONE', #318, #121, #166, .T. ) ;
#100 = PERSON_AND_ORGANIZATION ( #109, #331 ) ;
#101 = PERSON_AND_ORGANIZATION ( #109, #331 ) ;
#102 = APPROVAL_PERSON_ORGANIZATION ( #101, #106, #157 ) ;
#103 = AXIS2_PLACEMENT_3D ( 'NONE', #216, #169, #18 ) ;
#104 = EDGE_CURVE ( 'NONE', #288, #371, #65, .T. ) ;
#105 = DIRECTION ( 'NONE',  ( 0.4999999999999998890, -0.8660254037844387076, 0.000000000000000000 ) ) ;
#106 = APPROVAL ( #133, 'UNSPECIFIED' ) ;
#107 = CC_DESIGN_PERSON_AND_ORGANIZATION_ASSIGNMENT ( #100, #360, ( #186 ) ) ;
#108 = ORIENTED_EDGE ( 'NONE', *, *, #49, .F. ) ;
#109 = PERSON ( 'UNSPECIFIED', 'UNSPECIFIED', 'UNSPECIFIED', ('UNSPECIFIED'), ('UNSPECIFIED'), ('UNSPECIFIED') ) ;
#110 = LINE ( 'NONE', #220, #97 ) ;
#111 = EDGE_CURVE ( 'NONE', #258, #73, #278, .T. ) ;
#112 = DIRECTION ( 'NONE',  ( -1.365740544306508614E-16, -1.000000000000000000, 0.000000000000000000 ) ) ;
#113 = ORIENTED_EDGE ( 'NONE', *, *, #42, .T. ) ;
#114 = DIRECTION ( 'NONE',  ( -0.000000000000000000, -0.000000000000000000, -1.000000000000000000 ) ) ;
#115 = ORIENTED_EDGE ( 'NONE', *, *, #241, .F. ) ;
#116 = FACE_OUTER_BOUND ( 'NONE', #312, .T. ) ;
#117 = APPROVAL_PERSON_ORGANIZATION ( #243, #165, #96 ) ;
#118 = AXIS2_PLACEMENT_3D ( 'NONE', #219, #72, #46 ) ;
#119 = ORIENTED_EDGE ( 'NONE', *, *, #163, .F. ) ;
#120 = CARTESIAN_POINT ( 'NONE',  ( -1.587713240271470205, 2.750000000000000444, 0.000000000000000000 ) ) ;
#121 = VERTEX_POINT ( 'NONE', #341 ) ;
#122 = DIRECTION ( 'NONE',  ( -0.4999999999999998890, -0.8660254037844387076, 0.000000000000000000 ) ) ;
#123 = CARTESIAN_POINT ( 'NONE',  ( -1.587713240271470205, 2.750000000000000444, 4.000000000000000000 ) ) ;
#124 = CC_DESIGN_APPROVAL ( #165, ( #311 ) ) ;
#125 = APPROVAL_ROLE ( '' ) ;
#126 = CARTESIAN_POINT ( 'NONE',  ( 1.500000000000000000, 1.836970198721029934E-16, 0.000000000000000000 ) ) ;
#127 = APPROVAL_DATE_TIME ( #295, #106 ) ;
#128 = DIRECTION ( 'NONE',  ( -0.000000000000000000, -0.000000000000000000, -1.000000000000000000 ) ) ;
#129 = EDGE_CURVE ( 'NONE', #89, #318, #80, .T. ) ;
#130 = COORDINATED_UNIVERSAL_TIME_OFFSET ( 6, 0, .BEHIND. ) ;
#131 = EDGE_CURVE ( 'NONE', #176, #375, #349, .T. ) ;
#132 = EDGE_CURVE ( 'NONE', #89, #258, #233, .T. ) ;
#133 = APPROVAL_STATUS ( 'not_yet_approved' ) ;
#134 = PLANE ( 'NONE',  #172 ) ;
#135 = LOCAL_TIME ( 22, 42, 21.00000000000000000, #70 ) ;
#136 = VECTOR ( 'NONE', #374, 1000.000000000000000 ) ;
#137 = PLANE ( 'NONE',  #294 ) ;
#138 = FACE_OUTER_BOUND ( 'NONE', #256, .T. ) ;
#139 = ORIENTED_EDGE ( 'NONE', *, *, #16, .F. ) ;
#140 = FACE_OUTER_BOUND ( 'NONE', #203, .T. ) ;
#141 = AXIS2_PLACEMENT_3D ( 'NONE', #334, #112, #15 ) ;
#142 = ORIENTED_EDGE ( 'NONE', *, *, #56, .F. ) ;
#143 = LINE ( 'NONE', #150, #160 ) ;
#144 = VERTEX_POINT ( 'NONE', #261 ) ;
#145 = DIRECTION ( 'NONE',  ( 1.000000000000000000, 0.000000000000000000, -0.000000000000000000 ) ) ;
#146 = ORIENTED_EDGE ( 'NONE', *, *, #173, .T. ) ;
#147 = LINE ( 'NONE', #175, #187 ) ;
#148 = AXIS2_PLACEMENT_3D ( 'NONE', #322, #209, #28 ) ;
#149 = ORIENTED_EDGE ( 'NONE', *, *, #56, .T. ) ;
#150 = CARTESIAN_POINT ( 'NONE',  ( 1.587713240271471316, 2.750000000000000000, 0.000000000000000000 ) ) ;
#151 = ORIENTED_EDGE ( 'NONE', *, *, #214, .F. ) ;
#152 = LINE ( 'NONE', #353, #253 ) ;
#153 = ADVANCED_FACE ( 'NONE', ( #116 ), #25, .F. ) ;
#154 = CARTESIAN_POINT ( 'NONE',  ( -1.587713240271472204, -2.749999999999999556, 4.000000000000000000 ) ) ;
#155 = APPROVAL_PERSON_ORGANIZATION ( #240, #13, #125 ) ;
#156 = CIRCLE ( 'NONE', #7, 1.500000000000000000 ) ;
#157 = APPROVAL_ROLE ( '' ) ;
#158 = APPROVAL_DATE_TIME ( #64, #13 ) ;
#159 = CALENDAR_DATE ( 2026, 7, 9 ) ;
#160 = VECTOR ( 'NONE', #266, 1000.000000000000000 ) ;
#161 = COORDINATED_UNIVERSAL_TIME_OFFSET ( 6, 0, .BEHIND. ) ;
#162 = PERSON_AND_ORGANIZATION_ROLE ( 'creator' ) ;
#163 = EDGE_CURVE ( 'NONE', #174, #206, #143, .T. ) ;
#164 = CARTESIAN_POINT ( 'NONE',  ( -3.175426480542941743, 3.888775875324658770E-16, 4.000000000000000000 ) ) ;
#165 = APPROVAL ( #296, 'UNSPECIFIED' ) ;
#166 = LINE ( 'NONE', #277, #262 ) ;
#167 = ADVANCED_FACE ( 'NONE', ( #61, #314 ), #227, .F. ) ;
#168 = DIRECTION ( 'NONE',  ( 0.000000000000000000, 0.000000000000000000, 1.000000000000000000 ) ) ;
#169 = DIRECTION ( 'NONE',  ( -0.000000000000000000, -0.000000000000000000, -1.000000000000000000 ) ) ;
#170 = ORIENTED_EDGE ( 'NONE', *, *, #356, .F. ) ;
#171 = CARTESIAN_POINT ( 'NONE',  ( 3.175426480542941743, 0.000000000000000000, 0.000000000000000000 ) ) ;
#172 = AXIS2_PLACEMENT_3D ( 'NONE', #77, #252, #337 ) ;
#173 = EDGE_CURVE ( 'NONE', #121, #176, #287, .T. ) ;
#174 = VERTEX_POINT ( 'NONE', #290 ) ;
#175 = CARTESIAN_POINT ( 'NONE',  ( 1.587713240271471316, -2.750000000000000000, 4.000000000000000000 ) ) ;
#176 = VERTEX_POINT ( 'NONE', #182 ) ;
#177 = FACE_OUTER_BOUND ( 'NONE', #59, .T. ) ;
#178 = CC_DESIGN_PERSON_AND_ORGANIZATION_ASSIGNMENT ( #239, #8, ( #311 ) ) ;
#179 = ORIENTED_EDGE ( 'NONE', *, *, #69, .F. ) ;
#180 = CARTESIAN_POINT ( 'NONE',  ( -3.175426480542941743, 3.888775875324658770E-16, 0.000000000000000000 ) ) ;
#181 = ORIENTED_EDGE ( 'NONE', *, *, #338, .T. ) ;
#182 = CARTESIAN_POINT ( 'NONE',  ( 3.175426480542941743, 0.000000000000000000, 4.000000000000000000 ) ) ;
#183 = DIRECTION ( 'NONE',  ( -1.000000000000000000, 0.000000000000000000, 0.000000000000000000 ) ) ;
#184 = DATE_AND_TIME ( #213, #6 ) ;
#185 = DIRECTION ( 'NONE',  ( -0.000000000000000000, -0.000000000000000000, -1.000000000000000000 ) ) ;
#186 = SECURITY_CLASSIFICATION ( '', '', #40 ) ;
#187 = VECTOR ( 'NONE', #5, 1000.000000000000000 ) ;
#188 = DATE_TIME_ROLE ( 'creation_date' ) ;
#189 = CALENDAR_DATE ( 2026, 7, 9 ) ;
#190 = VECTOR ( 'NONE', #291, 1000.000000000000227 ) ;
#191 = APPROVAL_DATE_TIME ( #328, #165 ) ;
#192 = DIRECTION ( 'NONE',  ( -0.4999999999999998890, 0.8660254037844387076, 0.000000000000000000 ) ) ;
#193 = CYLINDRICAL_SURFACE ( 'NONE', #103, 1.500000000000000000 ) ;
#194 = FACE_OUTER_BOUND ( 'NONE', #21, .T. ) ;
#195 = DIRECTION ( 'NONE',  ( 0.4999999999999998890, 0.8660254037844387076, 0.000000000000000000 ) ) ;
#196 = VERTEX_POINT ( 'NONE', #283 ) ;
#197 = CARTESIAN_POINT ( 'NONE',  ( 0.000000000000000000, 0.000000000000000000, 4.000000000000000000 ) ) ;
#198 = ORIENTED_EDGE ( 'NONE', *, *, #292, .T. ) ;
#199 = LOCAL_TIME ( 22, 42, 21.00000000000000000, #130 ) ;
#200 = CARTESIAN_POINT ( 'NONE',  ( 1.587713240271471316, -2.750000000000000000, 4.000000000000000000 ) ) ;
#201 = ORIENTED_EDGE ( 'NONE', *, *, #292, .F. ) ;
#202 = DIRECTION ( 'NONE',  ( 0.000000000000000000, -0.000000000000000000, 1.000000000000000000 ) ) ;
#203 = EDGE_LOOP ( 'NONE', ( #30, #335, #221, #115 ) ) ;
#204 = DIRECTION ( 'NONE',  ( 1.000000000000000000, 0.000000000000000000, -0.000000000000000000 ) ) ;
#205 = EDGE_CURVE ( 'NONE', #375, #144, #60, .T. ) ;
#206 = VERTEX_POINT ( 'NONE', #120 ) ;
#207 = DIRECTION ( 'NONE',  ( -0.4999999999999996669, 0.8660254037844388186, 0.000000000000000000 ) ) ;
#208 = VECTOR ( 'NONE', #90, 1000.000000000000000 ) ;
#209 = DIRECTION ( 'NONE',  ( 0.8660254037844385966, -0.5000000000000002220, 0.000000000000000000 ) ) ;
#210 = CARTESIAN_POINT ( 'NONE',  ( -1.587713240271472204, -2.749999999999999556, 4.000000000000000000 ) ) ;
#211 =( NAMED_UNIT ( * ) PLANE_ANGLE_UNIT ( ) SI_UNIT ( $, .RADIAN. ) );
#212 = CARTESIAN_POINT ( 'NONE',  ( -1.587713240271470205, 2.750000000000000444, 0.000000000000000000 ) ) ;
#213 = CALENDAR_DATE ( 2026, 7, 9 ) ;
#214 = EDGE_CURVE ( 'NONE', #229, #371, #281, .T. ) ;
#215 = VECTOR ( 'NONE', #75, 1000.000000000000000 ) ;
#216 = CARTESIAN_POINT ( 'NONE',  ( 0.000000000000000000, 0.000000000000000000, 4.000000000000000000 ) ) ;
#217 = CARTESIAN_POINT ( 'NONE',  ( -1.587713240271470205, 2.750000000000000444, 4.000000000000000000 ) ) ;
#218 = ADVANCED_FACE ( 'NONE', ( #259 ), #343, .F. ) ;
#219 = CARTESIAN_POINT ( 'NONE',  ( 0.000000000000000000, 0.000000000000000000, 4.000000000000000000 ) ) ;
#220 = CARTESIAN_POINT ( 'NONE',  ( 1.587713240271471316, -2.750000000000000000, 0.000000000000000000 ) ) ;
#221 = ORIENTED_EDGE ( 'NONE', *, *, #104, .F. ) ;
#222 = DIRECTION ( 'NONE',  ( 0.4999999999999997224, -0.8660254037844388186, 0.000000000000000000 ) ) ;
#223 = ORIENTED_EDGE ( 'NONE', *, *, #237, .F. ) ;
#224 = ADVANCED_FACE ( 'NONE', ( #177 ), #285, .F. ) ;
#225 = FACE_BOUND ( 'NONE', #304, .T. ) ;
#226 = ORIENTED_EDGE ( 'NONE', *, *, #131, .F. ) ;
#227 = PLANE ( 'NONE',  #276 ) ;
#228 = VECTOR ( 'NONE', #222, 1000.000000000000000 ) ;
#229 = VERTEX_POINT ( 'NONE', #323 ) ;
#230 = LINE ( 'NONE', #123, #332 ) ;
#231 = EDGE_CURVE ( 'NONE', #144, #206, #230, .T. ) ;
#232 = ORIENTED_EDGE ( 'NONE', *, *, #49, .T. ) ;
#233 = LINE ( 'NONE', #31, #327 ) ;
#234 = DIRECTION ( 'NONE',  ( 0.4999999999999998890, 0.8660254037844387076, 0.000000000000000000 ) ) ;
#235 = VECTOR ( 'NONE', #268, 1000.000000000000000 ) ;
#236 = PRODUCT_DEFINITION ( 'UNKNOWN', '', #311, #93 ) ;
#237 = EDGE_CURVE ( 'NONE', #121, #196, #147, .T. ) ;
#238 = COORDINATED_UNIVERSAL_TIME_OFFSET ( 6, 0, .BEHIND. ) ;
#239 = PERSON_AND_ORGANIZATION ( #109, #331 ) ;
#240 = PERSON_AND_ORGANIZATION ( #109, #331 ) ;
#241 = EDGE_CURVE ( 'NONE', #348, #288, #152, .T. ) ;
#242 = ADVANCED_FACE ( 'NONE', ( #317, #225 ), #86, .T. ) ;
#243 = PERSON_AND_ORGANIZATION ( #109, #331 ) ;
#244 = MECHANICAL_CONTEXT ( 'NONE', #358, 'mechanical' ) ;
#245 = DATE_AND_TIME ( #39, #199 ) ;
#246 =( GEOMETRIC_REPRESENTATION_CONTEXT ( 3 ) GLOBAL_UNCERTAINTY_ASSIGNED_CONTEXT ( ( #27 ) ) GLOBAL_UNIT_ASSIGNED_CONTEXT ( ( #357, #211, #297 ) ) REPRESENTATION_CONTEXT ( 'NONE', 'WORKASPACE' ) );
#247 = ORIENTED_EDGE ( 'NONE', *, *, #205, .F. ) ;
#248 = MANIFOLD_SOLID_BREP ( 'Nut_thread_envelope_height_4', #44 ) ;
#249 = CARTESIAN_POINT ( 'NONE',  ( 0.000000000000000000, 0.000000000000000000, 0.000000000000000000 ) ) ;
#250 = PRODUCT ( 'HW-N_M3_nyloc_ENVELOPE', 'HW-N_M3_nyloc_ENVELOPE', '', ( #244 ) ) ;
#251 = EDGE_CURVE ( 'NONE', #371, #288, #156, .T. ) ;
#252 = DIRECTION ( 'NONE',  ( 1.365740544306507874E-16, 1.000000000000000000, -0.000000000000000000 ) ) ;
#253 = VECTOR ( 'NONE', #114, 1000.000000000000000 ) ;
#254 = CARTESIAN_POINT ( 'NONE',  ( 1.587713240271471316, 2.750000000000000000, 4.000000000000000000 ) ) ;
#255 = PRODUCT_DEFINITION_SHAPE ( 'NONE', 'NONE',  #236 ) ;
#256 = EDGE_LOOP ( 'NONE', ( #345, #309, #247, #87 ) ) ;
#257 = CARTESIAN_POINT ( 'NONE',  ( -3.175426480542941743, 3.888775875324658770E-16, 4.000000000000000000 ) ) ;
#258 = VERTEX_POINT ( 'NONE', #180 ) ;
#259 = FACE_OUTER_BOUND ( 'NONE', #350, .T. ) ;
#260 = ORIENTED_EDGE ( 'NONE', *, *, #237, .T. ) ;
#261 = CARTESIAN_POINT ( 'NONE',  ( -1.587713240271470205, 2.750000000000000444, 4.000000000000000000 ) ) ;
#262 = VECTOR ( 'NONE', #306, 1000.000000000000000 ) ;
#263 = ORIENTED_EDGE ( 'NONE', *, *, #132, .T. ) ;
#264 = CARTESIAN_POINT ( 'NONE',  ( 1.587713240271471316, -2.750000000000000000, 4.000000000000000000 ) ) ;
#265 = EDGE_LOOP ( 'NONE', ( #146, #364, #2, #315, #53, #4 ) ) ;
#266 = DIRECTION ( 'NONE',  ( -1.000000000000000000, 1.365740544306508614E-16, 0.000000000000000000 ) ) ;
#267 = CC_DESIGN_APPROVAL ( #106, ( #236 ) ) ;
#268 = DIRECTION ( 'NONE',  ( 1.000000000000000000, -1.365740544306507874E-16, 0.000000000000000000 ) ) ;
#269 = CIRCLE ( 'NONE', #346, 1.500000000000000000 ) ;
#270 = PERSON_AND_ORGANIZATION ( #109, #331 ) ;
#271 = CARTESIAN_POINT ( 'NONE',  ( 1.587713240271471316, 2.750000000000000000, 4.000000000000000000 ) ) ;
#272 = LINE ( 'NONE', #210, #71 ) ;
#273 = AXIS2_PLACEMENT_3D ( 'NONE', #9, #185, #183 ) ;
#274 = PLANE ( 'NONE',  #141 ) ;
#275 = AXIS2_PLACEMENT_3D ( 'NONE', #333, #326, #67 ) ;
#276 = AXIS2_PLACEMENT_3D ( 'NONE', #1, #92, #145 ) ;
#277 = CARTESIAN_POINT ( 'NONE',  ( -1.587713240271472204, -2.749999999999999556, 4.000000000000000000 ) ) ;
#278 = LINE ( 'NONE', #369, #228 ) ;
#279 = DIRECTION ( 'NONE',  ( 1.000000000000000000, 0.000000000000000000, 0.000000000000000000 ) ) ;
#280 = ORIENTED_EDGE ( 'NONE', *, *, #132, .F. ) ;
#281 = LINE ( 'NONE', #52, #208 ) ;
#282 = ORIENTED_EDGE ( 'NONE', *, *, #302, .F. ) ;
#283 = CARTESIAN_POINT ( 'NONE',  ( 1.587713240271471316, -2.750000000000000000, 0.000000000000000000 ) ) ;
#284 = ORIENTED_EDGE ( 'NONE', *, *, #251, .F. ) ;
#285 = PLANE ( 'NONE',  #148 ) ;
#286 = ORIENTED_EDGE ( 'NONE', *, *, #241, .T. ) ;
#287 = LINE ( 'NONE', #264, #313 ) ;
#288 = VERTEX_POINT ( 'NONE', #330 ) ;
#289 = ADVANCED_FACE ( 'NONE', ( #325 ), #329, .F. ) ;
#290 = CARTESIAN_POINT ( 'NONE',  ( 1.587713240271471316, 2.750000000000000000, 0.000000000000000000 ) ) ;
#291 = DIRECTION ( 'NONE',  ( -0.5000000000000001110, -0.8660254037844384856, 0.000000000000000000 ) ) ;
#292 = EDGE_CURVE ( 'NONE', #206, #258, #66, .T. ) ;
#293 = APPROVAL_STATUS ( 'not_yet_approved' ) ;
#294 = AXIS2_PLACEMENT_3D ( 'NONE', #336, #368, #105 ) ;
#295 = DATE_AND_TIME ( #298, #135 ) ;
#296 = APPROVAL_STATUS ( 'not_yet_approved' ) ;
#297 =( NAMED_UNIT ( * ) SI_UNIT ( $, .STERADIAN. ) SOLID_ANGLE_UNIT ( ) );
#298 = CALENDAR_DATE ( 2026, 7, 9 ) ;
#299 = APPLICATION_PROTOCOL_DEFINITION ( 'international standard', 'config_control_design', 1994, #358 ) ;
#300 = CIRCLE ( 'NONE', #118, 1.500000000000000000 ) ;
#301 = PERSON_AND_ORGANIZATION ( #109, #331 ) ;
#302 = EDGE_CURVE ( 'NONE', #176, #33, #354, .T. ) ;
#303 = CARTESIAN_POINT ( 'NONE',  ( 3.175426480542941743, 0.000000000000000000, 0.000000000000000000 ) ) ;
#304 = EDGE_LOOP ( 'NONE', ( #139, #142 ) ) ;
#305 = AXIS2_PLACEMENT_3D ( 'NONE', #257, #372, #207 ) ;
#306 = DIRECTION ( 'NONE',  ( 1.000000000000000000, -1.365740544306507874E-16, 0.000000000000000000 ) ) ;
#307 = ADVANCED_BREP_SHAPE_REPRESENTATION ( 'HW-N_M3_nyloc_ENVELOPE', ( #248, #275 ), #246 ) ;
#308 = CARTESIAN_POINT ( 'NONE',  ( -1.587713240271472204, -2.749999999999999556, 0.000000000000000000 ) ) ;
#309 = ORIENTED_EDGE ( 'NONE', *, *, #231, .F. ) ;
#310 = LINE ( 'NONE', #303, #321 ) ;
#311 = PRODUCT_DEFINITION_FORMATION_WITH_SPECIFIED_SOURCE ( 'ANY', '', #250, .NOT_KNOWN. ) ;
#312 = EDGE_LOOP ( 'NONE', ( #113, #282, #342, #260 ) ) ;
#313 = VECTOR ( 'NONE', #234, 1000.000000000000000 ) ;
#314 = FACE_BOUND ( 'NONE', #340, .T. ) ;
#315 = ORIENTED_EDGE ( 'NONE', *, *, #69, .T. ) ;
#316 = CC_DESIGN_PERSON_AND_ORGANIZATION_ASSIGNMENT ( #270, #162, ( #236 ) ) ;
#317 = FACE_OUTER_BOUND ( 'NONE', #265, .T. ) ;
#318 = VERTEX_POINT ( 'NONE', #154 ) ;
#319 = DIRECTION ( 'NONE',  ( 0.000000000000000000, 0.000000000000000000, 1.000000000000000000 ) ) ;
#320 = EDGE_LOOP ( 'NONE', ( #78, #74, #45, #201, #119, #108 ) ) ;
#321 = VECTOR ( 'NONE', #192, 1000.000000000000000 ) ;
#322 = CARTESIAN_POINT ( 'NONE',  ( -1.587713240271470205, 2.750000000000000444, 4.000000000000000000 ) ) ;
#323 = CARTESIAN_POINT ( 'NONE',  ( 1.500000000000000000, 1.836970198721029934E-16, 4.000000000000000000 ) ) ;
#324 = PERSON_AND_ORGANIZATION ( #109, #331 ) ;
#325 = FACE_OUTER_BOUND ( 'NONE', #47, .T. ) ;
#326 = DIRECTION ( 'NONE',  ( 0.000000000000000000, 0.000000000000000000, 1.000000000000000000 ) ) ;
#327 = VECTOR ( 'NONE', #22, 1000.000000000000000 ) ;
#328 = DATE_AND_TIME ( #189, #344 ) ;
#329 = CYLINDRICAL_SURFACE ( 'NONE', #273, 1.500000000000000000 ) ;
#330 = CARTESIAN_POINT ( 'NONE',  ( -1.500000000000000000, 0.000000000000000000, 0.000000000000000000 ) ) ;
#331 = ORGANIZATION ( 'UNSPECIFIED', 'UNSPECIFIED', '' ) ;
#332 = VECTOR ( 'NONE', #34, 1000.000000000000000 ) ;
#333 = CARTESIAN_POINT ( 'NONE',  ( 0.000000000000000000, 0.000000000000000000, 0.000000000000000000 ) ) ;
#334 = CARTESIAN_POINT ( 'NONE',  ( 1.587713240271471316, 2.750000000000000000, 4.000000000000000000 ) ) ;
#335 = ORIENTED_EDGE ( 'NONE', *, *, #214, .T. ) ;
#336 = CARTESIAN_POINT ( 'NONE',  ( 3.175426480542941743, 0.000000000000000000, 4.000000000000000000 ) ) ;
#337 = DIRECTION ( 'NONE',  ( -1.000000000000000000, 1.365740544306507874E-16, 0.000000000000000000 ) ) ;
#338 = EDGE_CURVE ( 'NONE', #73, #196, #98, .T. ) ;
#339 = FACE_OUTER_BOUND ( 'NONE', #362, .T. ) ;
#340 = EDGE_LOOP ( 'NONE', ( #55, #26 ) ) ;
#341 = CARTESIAN_POINT ( 'NONE',  ( 1.587713240271471316, -2.750000000000000000, 4.000000000000000000 ) ) ;
#342 = ORIENTED_EDGE ( 'NONE', *, *, #173, .F. ) ;
#343 = PLANE ( 'NONE',  #305 ) ;
#344 = LOCAL_TIME ( 22, 42, 21.00000000000000000, #161 ) ;
#345 = ORIENTED_EDGE ( 'NONE', *, *, #163, .T. ) ;
#346 = AXIS2_PLACEMENT_3D ( 'NONE', #197, #365, #43 ) ;
#347 = CARTESIAN_POINT ( 'NONE',  ( 3.175426480542941743, 0.000000000000000000, 4.000000000000000000 ) ) ;
#348 = VERTEX_POINT ( 'NONE', #10 ) ;
#349 = LINE ( 'NONE', #347, #136 ) ;
#350 = EDGE_LOOP ( 'NONE', ( #366, #170, #24, #263 ) ) ;
#351 = DIRECTION ( 'NONE',  ( -0.8660254037844387076, 0.4999999999999998890, 0.000000000000000000 ) ) ;
#352 = VECTOR ( 'NONE', #3, 1000.000000000000000 ) ;
#353 = CARTESIAN_POINT ( 'NONE',  ( -1.500000000000000000, 0.000000000000000000, 4.000000000000000000 ) ) ;
#354 = LINE ( 'NONE', #37, #20 ) ;
#355 = PERSON_AND_ORGANIZATION_ROLE ( 'design_owner' ) ;
#356 = EDGE_CURVE ( 'NONE', #318, #73, #272, .T. ) ;
#357 =( LENGTH_UNIT ( ) NAMED_UNIT ( * ) SI_UNIT ( .MILLI., .METRE. ) );
#358 = APPLICATION_CONTEXT ( 'configuration controlled 3d designs of mechanical parts and assemblies' ) ;
#359 = SHAPE_DEFINITION_REPRESENTATION ( #255, #307 ) ;
#360 = PERSON_AND_ORGANIZATION_ROLE ( 'classification_officer' ) ;
#361 = CC_DESIGN_SECURITY_CLASSIFICATION ( #186, ( #311 ) ) ;
#362 = EDGE_LOOP ( 'NONE', ( #181, #223, #85, #81 ) ) ;
#363 = AXIS2_PLACEMENT_3D ( 'NONE', #249, #168, #279 ) ;
#364 = ORIENTED_EDGE ( 'NONE', *, *, #131, .T. ) ;
#365 = DIRECTION ( 'NONE',  ( 0.000000000000000000, 0.000000000000000000, 1.000000000000000000 ) ) ;
#366 = ORIENTED_EDGE ( 'NONE', *, *, #111, .T. ) ;
#367 = CC_DESIGN_PERSON_AND_ORGANIZATION_ASSIGNMENT ( #324, #68, ( #311 ) ) ;
#368 = DIRECTION ( 'NONE',  ( -0.8660254037844387076, -0.4999999999999998890, 0.000000000000000000 ) ) ;
#369 = CARTESIAN_POINT ( 'NONE',  ( -3.175426480542941743, 3.888775875324658770E-16, 0.000000000000000000 ) ) ;
#370 = CC_DESIGN_PERSON_AND_ORGANIZATION_ASSIGNMENT ( #301, #355, ( #250 ) ) ;
#371 = VERTEX_POINT ( 'NONE', #126 ) ;
#372 = DIRECTION ( 'NONE',  ( 0.8660254037844388186, 0.4999999999999996669, -0.000000000000000000 ) ) ;
#373 = ORIENTED_EDGE ( 'NONE', *, *, #302, .T. ) ;
#374 = DIRECTION ( 'NONE',  ( -0.4999999999999998890, 0.8660254037844387076, 0.000000000000000000 ) ) ;
#375 = VERTEX_POINT ( 'NONE', #271 ) ;
#376 = PRODUCT_RELATED_PRODUCT_CATEGORY ( 'detail', '', ( #250 ) ) ;
#377 = AXIS2_PLACEMENT_3D ( 'NONE', #83, #202, #204 ) ;
ENDSEC;
END-ISO-10303-21;
