ISO-10303-21;
HEADER;
FILE_DESCRIPTION (( 'STEP AP203' ),
    '1' );
FILE_NAME ('HW-N_M2_hex_ENVELOPE.step',
    '2026-09-08T03:41:56',
    ( '' ),
    ( '' ),
    'SwSTEP 2.0',
    'SolidWorks 2026',
    '' );
FILE_SCHEMA (( 'CONFIG_CONTROL_DESIGN' ));
ENDSEC;

DATA;
#1 = AXIS2_PLACEMENT_3D ( 'NONE', #285, #340, #286 ) ;
#2 = SHAPE_DEFINITION_REPRESENTATION ( #178, #160 ) ;
#3 = EDGE_CURVE ( 'NONE', #250, #106, #50, .T. ) ;
#4 = ORIENTED_EDGE ( 'NONE', *, *, #88, .F. ) ;
#5 = DIRECTION ( 'NONE',  ( 1.000000000000000000, 0.000000000000000000, 0.000000000000000000 ) ) ;
#6 = DIRECTION ( 'NONE',  ( 0.000000000000000000, 0.000000000000000000, 1.000000000000000000 ) ) ;
#7 = VECTOR ( 'NONE', #162, 1000.000000000000000 ) ;
#8 = CARTESIAN_POINT ( 'NONE',  ( 1.154700538379251906, 2.000000000000000000, 1.600000000000000089 ) ) ;
#9 = EDGE_CURVE ( 'NONE', #99, #250, #108, .T. ) ;
#10 = CARTESIAN_POINT ( 'NONE',  ( -1.000000000000000000, 0.000000000000000000, 1.600000000000000089 ) ) ;
#11 = CARTESIAN_POINT ( 'NONE',  ( 0.000000000000000000, 0.000000000000000000, 1.600000000000000089 ) ) ;
#12 = ADVANCED_FACE ( 'NONE', ( #167 ), #227, .F. ) ;
#13 = APPROVAL_DATE_TIME ( #159, #116 ) ;
#14 = VECTOR ( 'NONE', #234, 1000.000000000000000 ) ;
#15 = DIRECTION ( 'NONE',  ( 0.000000000000000000, 0.000000000000000000, 1.000000000000000000 ) ) ;
#16 = VERTEX_POINT ( 'NONE', #283 ) ;
#17 = DIRECTION ( 'NONE',  ( 0.4999999999999995004, -0.8660254037844389297, 0.000000000000000000 ) ) ;
#18 = ORIENTED_EDGE ( 'NONE', *, *, #9, .F. ) ;
#19 = APPROVAL_PERSON_ORGANIZATION ( #113, #133, #166 ) ;
#20 =( NAMED_UNIT ( * ) SI_UNIT ( $, .STERADIAN. ) SOLID_ANGLE_UNIT ( ) );
#21 = ORIENTED_EDGE ( 'NONE', *, *, #112, .T. ) ;
#22 = EDGE_CURVE ( 'NONE', #56, #244, #287, .T. ) ;
#23 =( LENGTH_UNIT ( ) NAMED_UNIT ( * ) SI_UNIT ( .MILLI., .METRE. ) );
#24 = VERTEX_POINT ( 'NONE', #281 ) ;
#25 = ORIENTED_EDGE ( 'NONE', *, *, #136, .T. ) ;
#26 = CC_DESIGN_PERSON_AND_ORGANIZATION_ASSIGNMENT ( #188, #72, ( #322 ) ) ;
#27 = CARTESIAN_POINT ( 'NONE',  ( 1.154700538379251906, 2.000000000000000000, 1.600000000000000089 ) ) ;
#28 = AXIS2_PLACEMENT_3D ( 'NONE', #336, #68, #66 ) ;
#29 = COORDINATED_UNIVERSAL_TIME_OFFSET ( 6, 0, .BEHIND. ) ;
#30 = ORIENTED_EDGE ( 'NONE', *, *, #263, .T. ) ;
#31 = CARTESIAN_POINT ( 'NONE',  ( 2.309401076758503368, 0.000000000000000000, 1.600000000000000089 ) ) ;
#32 = LINE ( 'NONE', #205, #210 ) ;
#33 = VECTOR ( 'NONE', #37, 1000.000000000000000 ) ;
#34 = ORIENTED_EDGE ( 'NONE', *, *, #368, .F. ) ;
#35 = LINE ( 'NONE', #177, #181 ) ;
#36 = CC_DESIGN_SECURITY_CLASSIFICATION ( #274, ( #95 ) ) ;
#37 = DIRECTION ( 'NONE',  ( 0.4999999999999999445, 0.8660254037844387076, 0.000000000000000000 ) ) ;
#38 = CARTESIAN_POINT ( 'NONE',  ( -1.154700538379252794, -2.000000000000000000, 0.000000000000000000 ) ) ;
#39 = PLANE ( 'NONE',  #92 ) ;
#40 = EDGE_CURVE ( 'NONE', #197, #189, #316, .T. ) ;
#41 = DIRECTION ( 'NONE',  ( -0.5000000000000002220, -0.8660254037844384856, 0.000000000000000000 ) ) ;
#42 = CC_DESIGN_PERSON_AND_ORGANIZATION_ASSIGNMENT ( #315, #55, ( #95 ) ) ;
#43 = DIRECTION ( 'NONE',  ( 0.000000000000000000, 1.000000000000000000, 0.000000000000000000 ) ) ;
#44 = ORIENTED_EDGE ( 'NONE', *, *, #103, .F. ) ;
#45 = EDGE_LOOP ( 'NONE', ( #44, #165, #70, #140 ) ) ;
#46 = CARTESIAN_POINT ( 'NONE',  ( 1.154700538379251906, -2.000000000000000000, 1.600000000000000089 ) ) ;
#47 = VECTOR ( 'NONE', #261, 1000.000000000000000 ) ;
#48 = CALENDAR_DATE ( 2026, 7, 9 ) ;
#49 = DATE_TIME_ROLE ( 'creation_date' ) ;
#50 = LINE ( 'NONE', #58, #325 ) ;
#51 = APPROVAL ( #284, 'UNSPECIFIED' ) ;
#52 = ORIENTED_EDGE ( 'NONE', *, *, #112, .F. ) ;
#53 = VECTOR ( 'NONE', #41, 1000.000000000000114 ) ;
#54 = CARTESIAN_POINT ( 'NONE',  ( 1.154700538379251906, 2.000000000000000000, 0.000000000000000000 ) ) ;
#55 = PERSON_AND_ORGANIZATION_ROLE ( 'design_supplier' ) ;
#56 = VERTEX_POINT ( 'NONE', #222 ) ;
#57 = SECURITY_CLASSIFICATION_LEVEL ( 'unclassified' ) ;
#58 = CARTESIAN_POINT ( 'NONE',  ( 2.309401076758503368, 0.000000000000000000, 0.000000000000000000 ) ) ;
#59 = DIRECTION ( 'NONE',  ( -0.000000000000000000, -0.000000000000000000, -1.000000000000000000 ) ) ;
#60 = DIRECTION ( 'NONE',  ( 0.000000000000000000, -0.000000000000000000, 1.000000000000000000 ) ) ;
#61 = LOCAL_TIME ( 22, 41, 56.00000000000000000, #102 ) ;
#62 = CARTESIAN_POINT ( 'NONE',  ( 1.154700538379251906, 2.000000000000000000, 1.600000000000000089 ) ) ;
#63 = CARTESIAN_POINT ( 'NONE',  ( 1.154700538379251906, 2.000000000000000000, 0.000000000000000000 ) ) ;
#64 = EDGE_CURVE ( 'NONE', #189, #219, #198, .T. ) ;
#65 = DIRECTION ( 'NONE',  ( 1.000000000000000000, 0.000000000000000000, 0.000000000000000000 ) ) ;
#66 = DIRECTION ( 'NONE',  ( 1.000000000000000000, 0.000000000000000000, -0.000000000000000000 ) ) ;
#67 = ORIENTED_EDGE ( 'NONE', *, *, #77, .F. ) ;
#68 = DIRECTION ( 'NONE',  ( 0.000000000000000000, -0.000000000000000000, 1.000000000000000000 ) ) ;
#69 = VECTOR ( 'NONE', #297, 1000.000000000000000 ) ;
#70 = ORIENTED_EDGE ( 'NONE', *, *, #173, .T. ) ;
#71 = EDGE_CURVE ( 'NONE', #333, #24, #235, .T. ) ;
#72 = PERSON_AND_ORGANIZATION_ROLE ( 'design_owner' ) ;
#73 = ORIENTED_EDGE ( 'NONE', *, *, #173, .F. ) ;
#74 = CARTESIAN_POINT ( 'NONE',  ( 0.000000000000000000, 0.000000000000000000, 0.000000000000000000 ) ) ;
#75 = EDGE_LOOP ( 'NONE', ( #187, #34, #193, #370 ) ) ;
#76 = VECTOR ( 'NONE', #146, 1000.000000000000000 ) ;
#77 = EDGE_CURVE ( 'NONE', #189, #307, #341, .T. ) ;
#78 = LINE ( 'NONE', #310, #260 ) ;
#79 = DIRECTION ( 'NONE',  ( -0.000000000000000000, -0.000000000000000000, -1.000000000000000000 ) ) ;
#80 = CC_DESIGN_APPROVAL ( #51, ( #274 ) ) ;
#81 = DATE_AND_TIME ( #347, #293 ) ;
#82 = FACE_OUTER_BOUND ( 'NONE', #75, .T. ) ;
#83 = AXIS2_PLACEMENT_3D ( 'NONE', #296, #318, #262 ) ;
#84 = ORIENTED_EDGE ( 'NONE', *, *, #64, .F. ) ;
#85 = COORDINATED_UNIVERSAL_TIME_OFFSET ( 6, 0, .BEHIND. ) ;
#86 = CARTESIAN_POINT ( 'NONE',  ( -1.154700538379251240, 2.000000000000000444, 1.600000000000000089 ) ) ;
#87 = CARTESIAN_POINT ( 'NONE',  ( -1.154700538379252794, -2.000000000000000000, 0.000000000000000000 ) ) ;
#88 = EDGE_CURVE ( 'NONE', #307, #306, #78, .T. ) ;
#89 = DIRECTION ( 'NONE',  ( 1.000000000000000000, 0.000000000000000000, 0.000000000000000000 ) ) ;
#90 = PLANE ( 'NONE',  #277 ) ;
#91 = FACE_BOUND ( 'NONE', #161, .T. ) ;
#92 = AXIS2_PLACEMENT_3D ( 'NONE', #123, #60, #355 ) ;
#93 = CARTESIAN_POINT ( 'NONE',  ( 1.154700538379251906, -2.000000000000000000, 0.000000000000000000 ) ) ;
#94 = CC_DESIGN_PERSON_AND_ORGANIZATION_ASSIGNMENT ( #344, #109, ( #274 ) ) ;
#95 = PRODUCT_DEFINITION_FORMATION_WITH_SPECIFIED_SOURCE ( 'ANY', '', #322, .NOT_KNOWN. ) ;
#96 = ORIENTED_EDGE ( 'NONE', *, *, #368, .T. ) ;
#97 = CARTESIAN_POINT ( 'NONE',  ( 1.154700538379251906, 2.000000000000000000, 1.600000000000000089 ) ) ;
#98 = VECTOR ( 'NONE', #232, 1000.000000000000000 ) ;
#99 = VERTEX_POINT ( 'NONE', #259 ) ;
#100 = DIRECTION ( 'NONE',  ( 0.000000000000000000, -0.000000000000000000, 1.000000000000000000 ) ) ;
#101 = EDGE_LOOP ( 'NONE', ( #257, #337, #242, #73 ) ) ;
#102 = COORDINATED_UNIVERSAL_TIME_OFFSET ( 6, 0, .BEHIND. ) ;
#103 = EDGE_CURVE ( 'NONE', #24, #129, #32, .T. ) ;
#104 = ORIENTED_EDGE ( 'NONE', *, *, #258, .T. ) ;
#105 = DATE_AND_TIME ( #107, #264 ) ;
#106 = VERTEX_POINT ( 'NONE', #54 ) ;
#107 = CALENDAR_DATE ( 2026, 7, 9 ) ;
#108 = LINE ( 'NONE', #117, #47 ) ;
#109 = PERSON_AND_ORGANIZATION_ROLE ( 'classification_officer' ) ;
#110 = EDGE_LOOP ( 'NONE', ( #279, #164 ) ) ;
#111 = AXIS2_PLACEMENT_3D ( 'NONE', #358, #15, #241 ) ;
#112 = EDGE_CURVE ( 'NONE', #244, #249, #255, .T. ) ;
#113 = PERSON_AND_ORGANIZATION ( #245, #131 ) ;
#114 = DIRECTION ( 'NONE',  ( 0.4999999999999998890, -0.8660254037844387076, 0.000000000000000000 ) ) ;
#115 = CIRCLE ( 'NONE', #346, 1.000000000000000000 ) ;
#116 = APPROVAL ( #305, 'UNSPECIFIED' ) ;
#117 = CARTESIAN_POINT ( 'NONE',  ( 2.309401076758503368, 0.000000000000000000, 1.600000000000000089 ) ) ;
#118 = CARTESIAN_POINT ( 'NONE',  ( 0.000000000000000000, 0.000000000000000000, 1.600000000000000089 ) ) ;
#119 = ADVANCED_FACE ( 'NONE', ( #82 ), #313, .F. ) ;
#120 = CARTESIAN_POINT ( 'NONE',  ( 1.154700538379251906, -2.000000000000000000, 0.000000000000000000 ) ) ;
#121 = CIRCLE ( 'NONE', #169, 1.000000000000000000 ) ;
#122 = LINE ( 'NONE', #93, #33 ) ;
#123 = CARTESIAN_POINT ( 'NONE',  ( 0.000000000000000000, 0.000000000000000000, 1.600000000000000089 ) ) ;
#124 = EDGE_CURVE ( 'NONE', #106, #219, #230, .T. ) ;
#125 = CARTESIAN_POINT ( 'NONE',  ( 0.000000000000000000, 0.000000000000000000, 1.600000000000000089 ) ) ;
#126 = APPLICATION_CONTEXT ( 'configuration controlled 3d designs of mechanical parts and assemblies' ) ;
#127 = PERSON_AND_ORGANIZATION ( #245, #131 ) ;
#128 = CARTESIAN_POINT ( 'NONE',  ( -1.000000000000000000, 0.000000000000000000, 1.600000000000000089 ) ) ;
#129 = VERTEX_POINT ( 'NONE', #209 ) ;
#130 = CARTESIAN_POINT ( 'NONE',  ( -1.154700538379252794, -2.000000000000000000, 1.600000000000000089 ) ) ;
#131 = ORGANIZATION ( 'UNSPECIFIED', 'UNSPECIFIED', '' ) ;
#132 = ORIENTED_EDGE ( 'NONE', *, *, #22, .F. ) ;
#133 = APPROVAL ( #376, 'UNSPECIFIED' ) ;
#134 = AXIS2_PLACEMENT_3D ( 'NONE', #130, #43, #100 ) ;
#135 = ORIENTED_EDGE ( 'NONE', *, *, #88, .T. ) ;
#136 = EDGE_CURVE ( 'NONE', #244, #99, #292, .T. ) ;
#137 = ORIENTED_EDGE ( 'NONE', *, *, #246, .F. ) ;
#138 = ORIENTED_EDGE ( 'NONE', *, *, #3, .F. ) ;
#139 = APPROVAL_ROLE ( '' ) ;
#140 = ORIENTED_EDGE ( 'NONE', *, *, #154, .F. ) ;
#141 = DIRECTION ( 'NONE',  ( 0.8660254037844385966, -0.5000000000000003331, 0.000000000000000000 ) ) ;
#142 = DIRECTION ( 'NONE',  ( -0.8660254037844387076, -0.4999999999999998890, 0.000000000000000000 ) ) ;
#143 = DIRECTION ( 'NONE',  ( 0.5000000000000002220, 0.8660254037844384856, 0.000000000000000000 ) ) ;
#144 = VECTOR ( 'NONE', #211, 1000.000000000000000 ) ;
#145 = ORIENTED_EDGE ( 'NONE', *, *, #124, .F. ) ;
#146 = DIRECTION ( 'NONE',  ( 0.4999999999999999445, 0.8660254037844387076, 0.000000000000000000 ) ) ;
#147 = LOCAL_TIME ( 22, 41, 56.00000000000000000, #374 ) ;
#148 = DIRECTION ( 'NONE',  ( 1.000000000000000000, 0.000000000000000000, 0.000000000000000000 ) ) ;
#149 = VECTOR ( 'NONE', #5, 1000.000000000000000 ) ;
#150 = DIRECTION ( 'NONE',  ( -1.877893248421449282E-16, -1.000000000000000000, 0.000000000000000000 ) ) ;
#151 = CARTESIAN_POINT ( 'NONE',  ( 1.154700538379251906, -2.000000000000000000, 1.600000000000000089 ) ) ;
#152 = UNCERTAINTY_MEASURE_WITH_UNIT (LENGTH_MEASURE( 1.000000000000000082E-05 ), #23, 'distance_accuracy_value', 'NONE');
#153 = CARTESIAN_POINT ( 'NONE',  ( -1.154700538379251240, 2.000000000000000444, 0.000000000000000000 ) ) ;
#154 = EDGE_CURVE ( 'NONE', #129, #16, #304, .T. ) ;
#155 = ORIENTED_EDGE ( 'NONE', *, *, #312, .T. ) ;
#156 = DIRECTION ( 'NONE',  ( 1.000000000000000000, 0.000000000000000000, 0.000000000000000000 ) ) ;
#157 = CC_DESIGN_DATE_AND_TIME_ASSIGNMENT ( #105, #49, ( #291 ) ) ;
#158 = ORIENTED_EDGE ( 'NONE', *, *, #212, .T. ) ;
#159 = DATE_AND_TIME ( #48, #61 ) ;
#160 = ADVANCED_BREP_SHAPE_REPRESENTATION ( 'HW-N_M2_hex_ENVELOPE', ( #224, #111 ), #343 ) ;
#161 = EDGE_LOOP ( 'NONE', ( #220, #348 ) ) ;
#162 = DIRECTION ( 'NONE',  ( -0.000000000000000000, -0.000000000000000000, -1.000000000000000000 ) ) ;
#163 = AXIS2_PLACEMENT_3D ( 'NONE', #225, #141, #143 ) ;
#164 = ORIENTED_EDGE ( 'NONE', *, *, #154, .T. ) ;
#165 = ORIENTED_EDGE ( 'NONE', *, *, #185, .T. ) ;
#166 = APPROVAL_ROLE ( '' ) ;
#167 = FACE_OUTER_BOUND ( 'NONE', #272, .T. ) ;
#168 = ORIENTED_EDGE ( 'NONE', *, *, #22, .T. ) ;
#169 = AXIS2_PLACEMENT_3D ( 'NONE', #74, #332, #156 ) ;
#170 = PERSON_AND_ORGANIZATION_ROLE ( 'creator' ) ;
#171 = CARTESIAN_POINT ( 'NONE',  ( -1.154700538379252794, -2.000000000000000000, 1.600000000000000089 ) ) ;
#172 = CARTESIAN_POINT ( 'NONE',  ( -1.154700538379251240, 2.000000000000000444, 1.600000000000000089 ) ) ;
#173 = EDGE_CURVE ( 'NONE', #333, #16, #321, .T. ) ;
#174 = DIRECTION ( 'NONE',  ( -0.000000000000000000, -0.000000000000000000, -1.000000000000000000 ) ) ;
#175 = AXIS2_PLACEMENT_3D ( 'NONE', #125, #59, #356 ) ;
#176 = DIRECTION ( 'NONE',  ( -1.000000000000000000, 0.000000000000000000, 0.000000000000000000 ) ) ;
#177 = CARTESIAN_POINT ( 'NONE',  ( -2.309401076758503368, 2.828200636599752102E-16, 0.000000000000000000 ) ) ;
#178 = PRODUCT_DEFINITION_SHAPE ( 'NONE', 'NONE',  #291 ) ;
#179 = LINE ( 'NONE', #353, #144 ) ;
#180 = ADVANCED_FACE ( 'NONE', ( #238 ), #208, .F. ) ;
#181 = VECTOR ( 'NONE', #236, 1000.000000000000000 ) ;
#182 = FACE_OUTER_BOUND ( 'NONE', #45, .T. ) ;
#183 = CC_DESIGN_PERSON_AND_ORGANIZATION_ASSIGNMENT ( #127, #170, ( #291 ) ) ;
#184 = LINE ( 'NONE', #153, #53 ) ;
#185 = EDGE_CURVE ( 'NONE', #24, #333, #115, .T. ) ;
#186 = LINE ( 'NONE', #248, #69 ) ;
#187 = ORIENTED_EDGE ( 'NONE', *, *, #3, .T. ) ;
#188 = PERSON_AND_ORGANIZATION ( #245, #131 ) ;
#189 = VERTEX_POINT ( 'NONE', #320 ) ;
#190 = LINE ( 'NONE', #97, #7 ) ;
#191 = ORIENTED_EDGE ( 'NONE', *, *, #124, .T. ) ;
#192 = APPLICATION_PROTOCOL_DEFINITION ( 'international standard', 'config_control_design', 1994, #126 ) ;
#193 = ORIENTED_EDGE ( 'NONE', *, *, #212, .F. ) ;
#194 = ADVANCED_FACE ( 'NONE', ( #323 ), #90, .F. ) ;
#195 = ORIENTED_EDGE ( 'NONE', *, *, #317, .F. ) ;
#196 = CC_DESIGN_DATE_AND_TIME_ASSIGNMENT ( #371, #256, ( #274 ) ) ;
#197 = VERTEX_POINT ( 'NONE', #62 ) ;
#198 = LINE ( 'NONE', #172, #311 ) ;
#199 = APPROVAL_PERSON_ORGANIZATION ( #226, #51, #139 ) ;
#200 = DIRECTION ( 'NONE',  ( -0.5000000000000002220, -0.8660254037844384856, 0.000000000000000000 ) ) ;
#201 = VECTOR ( 'NONE', #17, 1000.000000000000000 ) ;
#202 = VERTEX_POINT ( 'NONE', #38 ) ;
#203 = ADVANCED_FACE ( 'NONE', ( #237, #91 ), #39, .T. ) ;
#204 = CALENDAR_DATE ( 2026, 7, 9 ) ;
#205 = CARTESIAN_POINT ( 'NONE',  ( 1.000000000000000000, 1.224646799147353207E-16, 1.600000000000000089 ) ) ;
#206 = DIRECTION ( 'NONE',  ( -0.000000000000000000, -0.000000000000000000, -1.000000000000000000 ) ) ;
#207 = DIRECTION ( 'NONE',  ( -0.000000000000000000, -0.000000000000000000, -1.000000000000000000 ) ) ;
#208 = PLANE ( 'NONE',  #83 ) ;
#209 = CARTESIAN_POINT ( 'NONE',  ( 1.000000000000000000, 1.224646799147353207E-16, 0.000000000000000000 ) ) ;
#210 = VECTOR ( 'NONE', #174, 1000.000000000000000 ) ;
#211 = DIRECTION ( 'NONE',  ( -0.4999999999999999445, 0.8660254037844387076, 0.000000000000000000 ) ) ;
#212 = EDGE_CURVE ( 'NONE', #99, #197, #179, .T. ) ;
#213 = DIRECTION ( 'NONE',  ( -0.8660254037844387076, 0.4999999999999998890, 0.000000000000000000 ) ) ;
#214 = MECHANICAL_CONTEXT ( 'NONE', #351, 'mechanical' ) ;
#215 = ORIENTED_EDGE ( 'NONE', *, *, #258, .F. ) ;
#216 = PLANE ( 'NONE',  #269 ) ;
#217 = EDGE_LOOP ( 'NONE', ( #137, #215, #314, #367, #145, #138 ) ) ;
#218 =( NAMED_UNIT ( * ) PLANE_ANGLE_UNIT ( ) SI_UNIT ( $, .RADIAN. ) );
#219 = VERTEX_POINT ( 'NONE', #266 ) ;
#220 = ORIENTED_EDGE ( 'NONE', *, *, #71, .F. ) ;
#221 = VECTOR ( 'NONE', #65, 1000.000000000000000 ) ;
#222 = CARTESIAN_POINT ( 'NONE',  ( -1.154700538379252794, -2.000000000000000000, 1.600000000000000089 ) ) ;
#223 = ADVANCED_FACE ( 'NONE', ( #182 ), #267, .F. ) ;
#224 = MANIFOLD_SOLID_BREP ( 'Nut_thread_envelope_height_1.6', #357 ) ;
#225 = CARTESIAN_POINT ( 'NONE',  ( -1.154700538379251240, 2.000000000000000444, 1.600000000000000089 ) ) ;
#226 = PERSON_AND_ORGANIZATION ( #245, #131 ) ;
#227 = PLANE ( 'NONE',  #163 ) ;
#228 = LOCAL_TIME ( 22, 41, 56.00000000000000000, #29 ) ;
#229 = APPROVAL_DATE_TIME ( #251, #133 ) ;
#230 = LINE ( 'NONE', #63, #14 ) ;
#231 = PERSON_AND_ORGANIZATION ( #245, #131 ) ;
#232 = DIRECTION ( 'NONE',  ( -1.000000000000000000, 1.877893248421449036E-16, 0.000000000000000000 ) ) ;
#233 = FACE_OUTER_BOUND ( 'NONE', #101, .T. ) ;
#234 = DIRECTION ( 'NONE',  ( -1.000000000000000000, 1.877893248421449036E-16, 0.000000000000000000 ) ) ;
#235 = CIRCLE ( 'NONE', #1, 1.000000000000000000 ) ;
#236 = DIRECTION ( 'NONE',  ( 0.4999999999999995004, -0.8660254037844389297, 0.000000000000000000 ) ) ;
#237 = FACE_OUTER_BOUND ( 'NONE', #298, .T. ) ;
#238 = FACE_OUTER_BOUND ( 'NONE', #331, .T. ) ;
#239 = AXIS2_PLACEMENT_3D ( 'NONE', #31, #142, #114 ) ;
#240 = FACE_BOUND ( 'NONE', #110, .T. ) ;
#241 = DIRECTION ( 'NONE',  ( 1.000000000000000000, 0.000000000000000000, 0.000000000000000000 ) ) ;
#242 = ORIENTED_EDGE ( 'NONE', *, *, #359, .F. ) ;
#243 = PERSON_AND_ORGANIZATION ( #245, #131 ) ;
#244 = VERTEX_POINT ( 'NONE', #352 ) ;
#245 = PERSON ( 'UNSPECIFIED', 'UNSPECIFIED', 'UNSPECIFIED', ('UNSPECIFIED'), ('UNSPECIFIED'), ('UNSPECIFIED') ) ;
#246 = EDGE_CURVE ( 'NONE', #249, #250, #122, .T. ) ;
#247 = AXIS2_PLACEMENT_3D ( 'NONE', #118, #206, #176 ) ;
#248 = CARTESIAN_POINT ( 'NONE',  ( -1.154700538379252794, -2.000000000000000000, 1.600000000000000089 ) ) ;
#249 = VERTEX_POINT ( 'NONE', #120 ) ;
#250 = VERTEX_POINT ( 'NONE', #326 ) ;
#251 = DATE_AND_TIME ( #204, #147 ) ;
#252 = EDGE_LOOP ( 'NONE', ( #303, #18, #361, #21 ) ) ;
#253 = ORIENTED_EDGE ( 'NONE', *, *, #312, .F. ) ;
#254 = CC_DESIGN_PERSON_AND_ORGANIZATION_ASSIGNMENT ( #231, #339, ( #95 ) ) ;
#255 = LINE ( 'NONE', #377, #282 ) ;
#256 = DATE_TIME_ROLE ( 'classification_date' ) ;
#257 = ORIENTED_EDGE ( 'NONE', *, *, #71, .T. ) ;
#258 = EDGE_CURVE ( 'NONE', #202, #249, #265, .T. ) ;
#259 = CARTESIAN_POINT ( 'NONE',  ( 2.309401076758503368, 0.000000000000000000, 1.600000000000000089 ) ) ;
#260 = VECTOR ( 'NONE', #79, 1000.000000000000000 ) ;
#261 = DIRECTION ( 'NONE',  ( -0.000000000000000000, -0.000000000000000000, -1.000000000000000000 ) ) ;
#262 = DIRECTION ( 'NONE',  ( -0.4999999999999995559, 0.8660254037844389297, 0.000000000000000000 ) ) ;
#263 = EDGE_CURVE ( 'NONE', #219, #306, #184, .T. ) ;
#264 = LOCAL_TIME ( 22, 41, 56.00000000000000000, #85 ) ;
#265 = LINE ( 'NONE', #87, #221 ) ;
#266 = CARTESIAN_POINT ( 'NONE',  ( -1.154700538379251240, 2.000000000000000444, 0.000000000000000000 ) ) ;
#267 = CYLINDRICAL_SURFACE ( 'NONE', #175, 1.000000000000000000 ) ;
#268 = CYLINDRICAL_SURFACE ( 'NONE', #247, 1.000000000000000000 ) ;
#269 = AXIS2_PLACEMENT_3D ( 'NONE', #46, #213, #302 ) ;
#270 = EDGE_LOOP ( 'NONE', ( #191, #84, #301, #96 ) ) ;
#271 = CARTESIAN_POINT ( 'NONE',  ( -2.309401076758503368, 2.828200636599752102E-16, 1.600000000000000089 ) ) ;
#272 = EDGE_LOOP ( 'NONE', ( #30, #4, #67, #335 ) ) ;
#273 = ADVANCED_FACE ( 'NONE', ( #233 ), #268, .F. ) ;
#274 = SECURITY_CLASSIFICATION ( '', '', #57 ) ;
#275 = FACE_OUTER_BOUND ( 'NONE', #217, .T. ) ;
#276 = ORIENTED_EDGE ( 'NONE', *, *, #317, .T. ) ;
#277 = AXIS2_PLACEMENT_3D ( 'NONE', #8, #150, #294 ) ;
#278 = PLANE ( 'NONE',  #134 ) ;
#279 = ORIENTED_EDGE ( 'NONE', *, *, #359, .T. ) ;
#280 = COORDINATED_UNIVERSAL_TIME_OFFSET ( 6, 0, .BEHIND. ) ;
#281 = CARTESIAN_POINT ( 'NONE',  ( 1.000000000000000000, 1.224646799147353207E-16, 1.600000000000000089 ) ) ;
#282 = VECTOR ( 'NONE', #375, 1000.000000000000000 ) ;
#283 = CARTESIAN_POINT ( 'NONE',  ( -1.000000000000000000, 0.000000000000000000, 0.000000000000000000 ) ) ;
#284 = APPROVAL_STATUS ( 'not_yet_approved' ) ;
#285 = CARTESIAN_POINT ( 'NONE',  ( 0.000000000000000000, 0.000000000000000000, 1.600000000000000089 ) ) ;
#286 = DIRECTION ( 'NONE',  ( 1.000000000000000000, 0.000000000000000000, 0.000000000000000000 ) ) ;
#287 = LINE ( 'NONE', #171, #149 ) ;
#288 = VECTOR ( 'NONE', #200, 1000.000000000000114 ) ;
#289 = EDGE_CURVE ( 'NONE', #306, #202, #35, .T. ) ;
#290 = DIRECTION ( 'NONE',  ( 0.000000000000000000, 0.000000000000000000, 1.000000000000000000 ) ) ;
#291 = PRODUCT_DEFINITION ( 'UNKNOWN', '', #95, #319 ) ;
#292 = LINE ( 'NONE', #151, #76 ) ;
#293 = LOCAL_TIME ( 22, 41, 56.00000000000000000, #280 ) ;
#294 = DIRECTION ( 'NONE',  ( 1.000000000000000000, -1.877893248421449282E-16, 0.000000000000000000 ) ) ;
#295 = CARTESIAN_POINT ( 'NONE',  ( 0.000000000000000000, 0.000000000000000000, 0.000000000000000000 ) ) ;
#296 = CARTESIAN_POINT ( 'NONE',  ( -2.309401076758503368, 2.828200636599752102E-16, 1.600000000000000089 ) ) ;
#297 = DIRECTION ( 'NONE',  ( -0.000000000000000000, -0.000000000000000000, -1.000000000000000000 ) ) ;
#298 = EDGE_LOOP ( 'NONE', ( #25, #158, #372, #350, #155, #168 ) ) ;
#299 = APPROVAL_ROLE ( '' ) ;
#300 = PRODUCT_RELATED_PRODUCT_CATEGORY ( 'detail', '', ( #322 ) ) ;
#301 = ORIENTED_EDGE ( 'NONE', *, *, #40, .F. ) ;
#302 = DIRECTION ( 'NONE',  ( -0.4999999999999998890, -0.8660254037844387076, 0.000000000000000000 ) ) ;
#303 = ORIENTED_EDGE ( 'NONE', *, *, #246, .T. ) ;
#304 = CIRCLE ( 'NONE', #338, 1.000000000000000000 ) ;
#305 = APPROVAL_STATUS ( 'not_yet_approved' ) ;
#306 = VERTEX_POINT ( 'NONE', #354 ) ;
#307 = VERTEX_POINT ( 'NONE', #271 ) ;
#308 = APPROVAL_PERSON_ORGANIZATION ( #243, #116, #299 ) ;
#309 = CALENDAR_DATE ( 2026, 7, 9 ) ;
#310 = CARTESIAN_POINT ( 'NONE',  ( -2.309401076758503368, 2.828200636599752102E-16, 1.600000000000000089 ) ) ;
#311 = VECTOR ( 'NONE', #345, 1000.000000000000000 ) ;
#312 = EDGE_CURVE ( 'NONE', #307, #56, #360, .T. ) ;
#313 = PLANE ( 'NONE',  #239 ) ;
#314 = ORIENTED_EDGE ( 'NONE', *, *, #289, .F. ) ;
#315 = PERSON_AND_ORGANIZATION ( #245, #131 ) ;
#316 = LINE ( 'NONE', #27, #98 ) ;
#317 = EDGE_CURVE ( 'NONE', #56, #202, #186, .T. ) ;
#318 = DIRECTION ( 'NONE',  ( 0.8660254037844389297, 0.4999999999999995559, -0.000000000000000000 ) ) ;
#319 = DESIGN_CONTEXT ( 'detailed design', #126, 'design' ) ;
#320 = CARTESIAN_POINT ( 'NONE',  ( -1.154700538379251240, 2.000000000000000444, 1.600000000000000089 ) ) ;
#321 = LINE ( 'NONE', #10, #365 ) ;
#322 = PRODUCT ( 'HW-N_M2_hex_ENVELOPE', 'HW-N_M2_hex_ENVELOPE', '', ( #214 ) ) ;
#323 = FACE_OUTER_BOUND ( 'NONE', #270, .T. ) ;
#324 = ADVANCED_FACE ( 'NONE', ( #334 ), #278, .F. ) ;
#325 = VECTOR ( 'NONE', #373, 1000.000000000000000 ) ;
#326 = CARTESIAN_POINT ( 'NONE',  ( 2.309401076758503368, 0.000000000000000000, 0.000000000000000000 ) ) ;
#327 = PLANE ( 'NONE',  #28 ) ;
#328 = ORIENTED_EDGE ( 'NONE', *, *, #289, .T. ) ;
#329 = CC_DESIGN_APPROVAL ( #116, ( #291 ) ) ;
#330 = ADVANCED_FACE ( 'NONE', ( #363 ), #216, .F. ) ;
#331 = EDGE_LOOP ( 'NONE', ( #328, #195, #253, #135 ) ) ;
#332 = DIRECTION ( 'NONE',  ( 0.000000000000000000, 0.000000000000000000, 1.000000000000000000 ) ) ;
#333 = VERTEX_POINT ( 'NONE', #128 ) ;
#334 = FACE_OUTER_BOUND ( 'NONE', #364, .T. ) ;
#335 = ORIENTED_EDGE ( 'NONE', *, *, #64, .T. ) ;
#336 = CARTESIAN_POINT ( 'NONE',  ( 0.000000000000000000, 0.000000000000000000, 0.000000000000000000 ) ) ;
#337 = ORIENTED_EDGE ( 'NONE', *, *, #103, .T. ) ;
#338 = AXIS2_PLACEMENT_3D ( 'NONE', #295, #290, #148 ) ;
#339 = PERSON_AND_ORGANIZATION_ROLE ( 'creator' ) ;
#340 = DIRECTION ( 'NONE',  ( 0.000000000000000000, 0.000000000000000000, 1.000000000000000000 ) ) ;
#341 = LINE ( 'NONE', #86, #288 ) ;
#342 = ADVANCED_FACE ( 'NONE', ( #275, #240 ), #327, .F. ) ;
#343 =( GEOMETRIC_REPRESENTATION_CONTEXT ( 3 ) GLOBAL_UNCERTAINTY_ASSIGNED_CONTEXT ( ( #152 ) ) GLOBAL_UNIT_ASSIGNED_CONTEXT ( ( #23, #218, #20 ) ) REPRESENTATION_CONTEXT ( 'NONE', 'WORKASPACE' ) );
#344 = PERSON_AND_ORGANIZATION ( #245, #131 ) ;
#345 = DIRECTION ( 'NONE',  ( -0.000000000000000000, -0.000000000000000000, -1.000000000000000000 ) ) ;
#346 = AXIS2_PLACEMENT_3D ( 'NONE', #11, #6, #89 ) ;
#347 = CALENDAR_DATE ( 2026, 7, 9 ) ;
#348 = ORIENTED_EDGE ( 'NONE', *, *, #185, .F. ) ;
#349 = APPROVAL_DATE_TIME ( #81, #51 ) ;
#350 = ORIENTED_EDGE ( 'NONE', *, *, #77, .T. ) ;
#351 = APPLICATION_CONTEXT ( 'configuration controlled 3d designs of mechanical parts and assemblies' ) ;
#352 = CARTESIAN_POINT ( 'NONE',  ( 1.154700538379251906, -2.000000000000000000, 1.600000000000000089 ) ) ;
#353 = CARTESIAN_POINT ( 'NONE',  ( 2.309401076758503368, 0.000000000000000000, 1.600000000000000089 ) ) ;
#354 = CARTESIAN_POINT ( 'NONE',  ( -2.309401076758503368, 2.828200636599752102E-16, 0.000000000000000000 ) ) ;
#355 = DIRECTION ( 'NONE',  ( 1.000000000000000000, 0.000000000000000000, -0.000000000000000000 ) ) ;
#356 = DIRECTION ( 'NONE',  ( -1.000000000000000000, 0.000000000000000000, 0.000000000000000000 ) ) ;
#357 = CLOSED_SHELL ( 'NONE', ( #273, #203, #342, #330, #119, #194, #12, #180, #324, #223 ) ) ;
#358 = CARTESIAN_POINT ( 'NONE',  ( 0.000000000000000000, 0.000000000000000000, 0.000000000000000000 ) ) ;
#359 = EDGE_CURVE ( 'NONE', #16, #129, #121, .T. ) ;
#360 = LINE ( 'NONE', #366, #201 ) ;
#361 = ORIENTED_EDGE ( 'NONE', *, *, #136, .F. ) ;
#362 = CC_DESIGN_APPROVAL ( #133, ( #95 ) ) ;
#363 = FACE_OUTER_BOUND ( 'NONE', #252, .T. ) ;
#364 = EDGE_LOOP ( 'NONE', ( #104, #52, #132, #276 ) ) ;
#365 = VECTOR ( 'NONE', #207, 1000.000000000000000 ) ;
#366 = CARTESIAN_POINT ( 'NONE',  ( -2.309401076758503368, 2.828200636599752102E-16, 1.600000000000000089 ) ) ;
#367 = ORIENTED_EDGE ( 'NONE', *, *, #263, .F. ) ;
#368 = EDGE_CURVE ( 'NONE', #197, #106, #190, .T. ) ;
#369 = APPLICATION_PROTOCOL_DEFINITION ( 'international standard', 'config_control_design', 1994, #351 ) ;
#370 = ORIENTED_EDGE ( 'NONE', *, *, #9, .T. ) ;
#371 = DATE_AND_TIME ( #309, #228 ) ;
#372 = ORIENTED_EDGE ( 'NONE', *, *, #40, .T. ) ;
#373 = DIRECTION ( 'NONE',  ( -0.4999999999999999445, 0.8660254037844387076, 0.000000000000000000 ) ) ;
#374 = COORDINATED_UNIVERSAL_TIME_OFFSET ( 6, 0, .BEHIND. ) ;
#375 = DIRECTION ( 'NONE',  ( -0.000000000000000000, -0.000000000000000000, -1.000000000000000000 ) ) ;
#376 = APPROVAL_STATUS ( 'not_yet_approved' ) ;
#377 = CARTESIAN_POINT ( 'NONE',  ( 1.154700538379251906, -2.000000000000000000, 1.600000000000000089 ) ) ;
ENDSEC;
END-ISO-10303-21;
