ISO-10303-21;
HEADER;
FILE_DESCRIPTION (( 'STEP AP203' ),
    '1' );
FILE_NAME ('HW-S_M2x25_socket_ENVELOPE.step',
    '2026-09-08T04:02:27',
    ( '' ),
    ( '' ),
    'SwSTEP 2.0',
    'SolidWorks 2026',
    '' );
FILE_SCHEMA (( 'CONFIG_CONTROL_DESIGN' ));
ENDSEC;

DATA;
#1 = ORIENTED_EDGE ( 'NONE', *, *, #225, .T. ) ;
#2 = ORIENTED_EDGE ( 'NONE', *, *, #47, .T. ) ;
#3 = AXIS2_PLACEMENT_3D ( 'NONE', #71, #159, #247 ) ;
#4 = ORIENTED_EDGE ( 'NONE', *, *, #253, .F. ) ;
#5 = FACE_BOUND ( 'NONE', #68, .T. ) ;
#6 = AXIS2_PLACEMENT_3D ( 'NONE', #64, #177, #186 ) ;
#7 = VERTEX_POINT ( 'NONE', #220 ) ;
#8 = CIRCLE ( 'NONE', #29, 1.899999999999999911 ) ;
#9 = DIRECTION ( 'NONE',  ( 1.000000000000000000, 0.000000000000000000, 0.000000000000000000 ) ) ;
#10 = DIRECTION ( 'NONE',  ( 0.000000000000000000, 0.000000000000000000, 1.000000000000000000 ) ) ;
#11 = LINE ( 'NONE', #54, #100 ) ;
#12 = AXIS2_PLACEMENT_3D ( 'NONE', #249, #104, #195 ) ;
#13 = EDGE_CURVE ( 'NONE', #236, #200, #156, .T. ) ;
#14 = APPROVAL_PERSON_ORGANIZATION ( #197, #131, #41 ) ;
#15 = CC_DESIGN_PERSON_AND_ORGANIZATION_ASSIGNMENT ( #224, #101, ( #77 ) ) ;
#16 = LOCAL_TIME ( 23, 2, 27.00000000000000000, #43 ) ;
#17 = APPROVAL_STATUS ( 'not_yet_approved' ) ;
#18 = VERTEX_POINT ( 'NONE', #223 ) ;
#19 = CIRCLE ( 'NONE', #23, 1.000000000000000000 ) ;
#20 = CALENDAR_DATE ( 2026, 7, 9 ) ;
#21 = ORIENTED_EDGE ( 'NONE', *, *, #65, .T. ) ;
#22 = PLANE ( 'NONE',  #105 ) ;
#23 = AXIS2_PLACEMENT_3D ( 'NONE', #66, #191, #9 ) ;
#24 = CC_DESIGN_PERSON_AND_ORGANIZATION_ASSIGNMENT ( #35, #123, ( #210 ) ) ;
#25 = FACE_OUTER_BOUND ( 'NONE', #233, .T. ) ;
#26 = CARTESIAN_POINT ( 'NONE',  ( -1.899999999999999911, 0.000000000000000000, 2.000000000000000000 ) ) ;
#27 = CARTESIAN_POINT ( 'NONE',  ( 0.000000000000000000, 0.000000000000000000, 2.000000000000000000 ) ) ;
#28 = DIRECTION ( 'NONE',  ( 0.000000000000000000, 0.000000000000000000, 1.000000000000000000 ) ) ;
#29 = AXIS2_PLACEMENT_3D ( 'NONE', #175, #28, #92 ) ;
#30 = ADVANCED_FACE ( 'NONE', ( #49 ), #242, .T. ) ;
#31 = DIRECTION ( 'NONE',  ( -0.000000000000000000, -0.000000000000000000, -1.000000000000000000 ) ) ;
#32 =( NAMED_UNIT ( * ) PLANE_ANGLE_UNIT ( ) SI_UNIT ( $, .RADIAN. ) );
#33 = CARTESIAN_POINT ( 'NONE',  ( 0.000000000000000000, 0.000000000000000000, -25.00000000000000000 ) ) ;
#34 = CARTESIAN_POINT ( 'NONE',  ( 1.000000000000000000, 1.224646799147353207E-16, 0.000000000000000000 ) ) ;
#35 = PERSON_AND_ORGANIZATION ( #248, #44 ) ;
#36 = APPLICATION_CONTEXT ( 'configuration controlled 3d designs of mechanical parts and assemblies' ) ;
#37 = VECTOR ( 'NONE', #227, 1000.000000000000000 ) ;
#38 = ORIENTED_EDGE ( 'NONE', *, *, #160, .T. ) ;
#39 = ORIENTED_EDGE ( 'NONE', *, *, #72, .T. ) ;
#40 = ADVANCED_BREP_SHAPE_REPRESENTATION ( 'HW-S_M2x25_socket_ENVELOPE', ( #84, #190 ), #163 ) ;
#41 = APPROVAL_ROLE ( '' ) ;
#42 = PRODUCT_RELATED_PRODUCT_CATEGORY ( 'detail', '', ( #77 ) ) ;
#43 = COORDINATED_UNIVERSAL_TIME_OFFSET ( 6, 0, .BEHIND. ) ;
#44 = ORGANIZATION ( 'UNSPECIFIED', 'UNSPECIFIED', '' ) ;
#45 = ORIENTED_EDGE ( 'NONE', *, *, #106, .F. ) ;
#46 = ORIENTED_EDGE ( 'NONE', *, *, #13, .T. ) ;
#47 = EDGE_CURVE ( 'NONE', #166, #182, #222, .T. ) ;
#48 = FACE_OUTER_BOUND ( 'NONE', #243, .T. ) ;
#49 = FACE_OUTER_BOUND ( 'NONE', #149, .T. ) ;
#50 = CIRCLE ( 'NONE', #204, 1.899999999999999911 ) ;
#51 = LINE ( 'NONE', #26, #94 ) ;
#52 = CARTESIAN_POINT ( 'NONE',  ( 1.899999999999999911, 2.326828918379971365E-16, 2.000000000000000000 ) ) ;
#53 = CC_DESIGN_PERSON_AND_ORGANIZATION_ASSIGNMENT ( #165, #231, ( #118 ) ) ;
#54 = CARTESIAN_POINT ( 'NONE',  ( 1.000000000000000000, 1.224646799147353207E-16, 0.000000000000000000 ) ) ;
#55 = LOCAL_TIME ( 23, 2, 27.00000000000000000, #214 ) ;
#56 = DIRECTION ( 'NONE',  ( -0.000000000000000000, -0.000000000000000000, -1.000000000000000000 ) ) ;
#57 = CALENDAR_DATE ( 2026, 7, 9 ) ;
#58 = PRODUCT_DEFINITION_SHAPE ( 'NONE', 'NONE',  #210 ) ;
#59 = EDGE_LOOP ( 'NONE', ( #38, #168 ) ) ;
#60 = ADVANCED_FACE ( 'NONE', ( #203 ), #90, .T. ) ;
#61 = COORDINATED_UNIVERSAL_TIME_OFFSET ( 6, 0, .BEHIND. ) ;
#62 = CALENDAR_DATE ( 2026, 7, 9 ) ;
#63 = LOCAL_TIME ( 23, 2, 27.00000000000000000, #61 ) ;
#64 = CARTESIAN_POINT ( 'NONE',  ( 0.000000000000000000, 0.000000000000000000, 2.000000000000000000 ) ) ;
#65 = EDGE_CURVE ( 'NONE', #79, #127, #19, .T. ) ;
#66 = CARTESIAN_POINT ( 'NONE',  ( 0.000000000000000000, 0.000000000000000000, -25.00000000000000000 ) ) ;
#67 = DIRECTION ( 'NONE',  ( 0.000000000000000000, 0.000000000000000000, 1.000000000000000000 ) ) ;
#68 = EDGE_LOOP ( 'NONE', ( #187, #46 ) ) ;
#69 = ORIENTED_EDGE ( 'NONE', *, *, #189, .F. ) ;
#70 = CARTESIAN_POINT ( 'NONE',  ( 1.899999999999999911, 2.326828918379971365E-16, 2.000000000000000000 ) ) ;
#71 = CARTESIAN_POINT ( 'NONE',  ( 0.000000000000000000, 0.000000000000000000, 2.000000000000000000 ) ) ;
#72 = EDGE_CURVE ( 'NONE', #7, #18, #51, .T. ) ;
#73 = DIRECTION ( 'NONE',  ( 1.000000000000000000, 0.000000000000000000, 0.000000000000000000 ) ) ;
#74 = PERSON_AND_ORGANIZATION ( #248, #44 ) ;
#75 = APPROVAL_ROLE ( '' ) ;
#76 = LOCAL_TIME ( 23, 2, 27.00000000000000000, #102 ) ;
#77 = PRODUCT ( 'HW-S_M2x25_socket_ENVELOPE', 'HW-S_M2x25_socket_ENVELOPE', '', ( #141 ) ) ;
#78 = COORDINATED_UNIVERSAL_TIME_OFFSET ( 6, 0, .BEHIND. ) ;
#79 = VERTEX_POINT ( 'NONE', #114 ) ;
#80 = DESIGN_CONTEXT ( 'detailed design', #36, 'design' ) ;
#81 = APPROVAL_DATE_TIME ( #129, #131 ) ;
#82 = DATE_AND_TIME ( #147, #63 ) ;
#83 = ORIENTED_EDGE ( 'NONE', *, *, #110, .F. ) ;
#84 = MANIFOLD_SOLID_BREP ( 'Socket_head_envelope', #120 ) ;
#85 = APPROVAL_DATE_TIME ( #82, #122 ) ;
#86 = ORIENTED_EDGE ( 'NONE', *, *, #225, .F. ) ;
#87 = ORIENTED_EDGE ( 'NONE', *, *, #13, .F. ) ;
#88 = AXIS2_PLACEMENT_3D ( 'NONE', #153, #152, #173 ) ;
#89 = ADVANCED_FACE ( 'NONE', ( #48 ), #95, .T. ) ;
#90 = CYLINDRICAL_SURFACE ( 'NONE', #167, 1.899999999999999911 ) ;
#91 = CYLINDRICAL_SURFACE ( 'NONE', #96, 1.000000000000000000 ) ;
#92 = DIRECTION ( 'NONE',  ( 1.000000000000000000, 0.000000000000000000, 0.000000000000000000 ) ) ;
#93 = CC_DESIGN_SECURITY_CLASSIFICATION ( #139, ( #118 ) ) ;
#94 = VECTOR ( 'NONE', #97, 1000.000000000000000 ) ;
#95 = CYLINDRICAL_SURFACE ( 'NONE', #6, 1.899999999999999911 ) ;
#96 = AXIS2_PLACEMENT_3D ( 'NONE', #174, #56, #161 ) ;
#97 = DIRECTION ( 'NONE',  ( -0.000000000000000000, -0.000000000000000000, -1.000000000000000000 ) ) ;
#98 = ADVANCED_FACE ( 'NONE', ( #5, #202 ), #171, .F. ) ;
#99 =( NAMED_UNIT ( * ) SI_UNIT ( $, .STERADIAN. ) SOLID_ANGLE_UNIT ( ) );
#100 = VECTOR ( 'NONE', #31, 1000.000000000000000 ) ;
#101 = PERSON_AND_ORGANIZATION_ROLE ( 'design_owner' ) ;
#102 = COORDINATED_UNIVERSAL_TIME_OFFSET ( 6, 0, .BEHIND. ) ;
#103 = ADVANCED_FACE ( 'NONE', ( #207 ), #22, .T. ) ;
#104 = DIRECTION ( 'NONE',  ( 0.000000000000000000, 0.000000000000000000, 1.000000000000000000 ) ) ;
#105 = AXIS2_PLACEMENT_3D ( 'NONE', #27, #151, #240 ) ;
#106 = EDGE_CURVE ( 'NONE', #182, #18, #8, .T. ) ;
#107 = ORIENTED_EDGE ( 'NONE', *, *, #253, .T. ) ;
#108 = CALENDAR_DATE ( 2026, 7, 9 ) ;
#109 = EDGE_LOOP ( 'NONE', ( #125, #86 ) ) ;
#110 = EDGE_CURVE ( 'NONE', #166, #7, #50, .T. ) ;
#111 = CARTESIAN_POINT ( 'NONE',  ( 0.000000000000000000, 0.000000000000000000, 2.000000000000000000 ) ) ;
#112 = APPROVAL_PERSON_ORGANIZATION ( #74, #172, #75 ) ;
#113 = DIRECTION ( 'NONE',  ( 0.000000000000000000, 0.000000000000000000, 1.000000000000000000 ) ) ;
#114 = CARTESIAN_POINT ( 'NONE',  ( -1.000000000000000000, 0.000000000000000000, -25.00000000000000000 ) ) ;
#115 = APPLICATION_CONTEXT ( 'configuration controlled 3d designs of mechanical parts and assemblies' ) ;
#116 = ORIENTED_EDGE ( 'NONE', *, *, #160, .F. ) ;
#117 = EDGE_LOOP ( 'NONE', ( #155, #45 ) ) ;
#118 = PRODUCT_DEFINITION_FORMATION_WITH_SPECIFIED_SOURCE ( 'ANY', '', #77, .NOT_KNOWN. ) ;
#119 = LINE ( 'NONE', #193, #37 ) ;
#120 = CLOSED_SHELL ( 'NONE', ( #89, #148, #30, #184, #60, #103, #98 ) ) ;
#121 = APPROVAL_STATUS ( 'not_yet_approved' ) ;
#122 = APPROVAL ( #17, 'UNSPECIFIED' ) ;
#123 = PERSON_AND_ORGANIZATION_ROLE ( 'creator' ) ;
#124 = CC_DESIGN_DATE_AND_TIME_ASSIGNMENT ( #232, #252, ( #210 ) ) ;
#125 = ORIENTED_EDGE ( 'NONE', *, *, #65, .F. ) ;
#126 = SECURITY_CLASSIFICATION_LEVEL ( 'unclassified' ) ;
#127 = VERTEX_POINT ( 'NONE', #133 ) ;
#128 = CIRCLE ( 'NONE', #226, 1.899999999999999911 ) ;
#129 = DATE_AND_TIME ( #108, #198 ) ;
#130 = EDGE_LOOP ( 'NONE', ( #145, #116, #39, #169 ) ) ;
#131 = APPROVAL ( #255, 'UNSPECIFIED' ) ;
#132 = ORIENTED_EDGE ( 'NONE', *, *, #180, .F. ) ;
#133 = CARTESIAN_POINT ( 'NONE',  ( 1.000000000000000000, 1.224646799147353207E-16, -25.00000000000000000 ) ) ;
#134 = AXIS2_PLACEMENT_3D ( 'NONE', #33, #10, #209 ) ;
#135 = ORIENTED_EDGE ( 'NONE', *, *, #106, .T. ) ;
#136 = CARTESIAN_POINT ( 'NONE',  ( 0.000000000000000000, 0.000000000000000000, 0.000000000000000000 ) ) ;
#137 = DIRECTION ( 'NONE',  ( -0.000000000000000000, -0.000000000000000000, -1.000000000000000000 ) ) ;
#138 = APPROVAL_DATE_TIME ( #143, #172 ) ;
#139 = SECURITY_CLASSIFICATION ( '', '', #126 ) ;
#140 =( LENGTH_UNIT ( ) NAMED_UNIT ( * ) SI_UNIT ( .MILLI., .METRE. ) );
#141 = MECHANICAL_CONTEXT ( 'NONE', #115, 'mechanical' ) ;
#142 = DIRECTION ( 'NONE',  ( 1.000000000000000000, 0.000000000000000000, 0.000000000000000000 ) ) ;
#143 = DATE_AND_TIME ( #57, #76 ) ;
#144 = DATE_AND_TIME ( #20, #16 ) ;
#145 = ORIENTED_EDGE ( 'NONE', *, *, #47, .F. ) ;
#146 = DATE_TIME_ROLE ( 'classification_date' ) ;
#147 = CALENDAR_DATE ( 2026, 7, 9 ) ;
#148 = ADVANCED_FACE ( 'NONE', ( #25 ), #91, .T. ) ;
#149 = EDGE_LOOP ( 'NONE', ( #132, #69, #107, #21 ) ) ;
#150 = APPROVAL_PERSON_ORGANIZATION ( #164, #122, #201 ) ;
#151 = DIRECTION ( 'NONE',  ( 0.000000000000000000, 0.000000000000000000, 1.000000000000000000 ) ) ;
#152 = DIRECTION ( 'NONE',  ( -0.000000000000000000, -0.000000000000000000, -1.000000000000000000 ) ) ;
#153 = CARTESIAN_POINT ( 'NONE',  ( 0.000000000000000000, 0.000000000000000000, 0.000000000000000000 ) ) ;
#154 = DIRECTION ( 'NONE',  ( 1.000000000000000000, 0.000000000000000000, 0.000000000000000000 ) ) ;
#155 = ORIENTED_EDGE ( 'NONE', *, *, #176, .F. ) ;
#156 = CIRCLE ( 'NONE', #196, 1.000000000000000000 ) ;
#157 = DIRECTION ( 'NONE',  ( 1.000000000000000000, 0.000000000000000000, 0.000000000000000000 ) ) ;
#158 = CIRCLE ( 'NONE', #239, 1.000000000000000000 ) ;
#159 = DIRECTION ( 'NONE',  ( 0.000000000000000000, 0.000000000000000000, 1.000000000000000000 ) ) ;
#160 = EDGE_CURVE ( 'NONE', #7, #166, #235, .T. ) ;
#161 = DIRECTION ( 'NONE',  ( -1.000000000000000000, 0.000000000000000000, 0.000000000000000000 ) ) ;
#162 = CARTESIAN_POINT ( 'NONE',  ( 1.899999999999999911, 2.326828918379971365E-16, 0.000000000000000000 ) ) ;
#163 =( GEOMETRIC_REPRESENTATION_CONTEXT ( 3 ) GLOBAL_UNCERTAINTY_ASSIGNED_CONTEXT ( ( #183 ) ) GLOBAL_UNIT_ASSIGNED_CONTEXT ( ( #140, #32, #99 ) ) REPRESENTATION_CONTEXT ( 'NONE', 'WORKASPACE' ) );
#164 = PERSON_AND_ORGANIZATION ( #248, #44 ) ;
#165 = PERSON_AND_ORGANIZATION ( #248, #44 ) ;
#166 = VERTEX_POINT ( 'NONE', #70 ) ;
#167 = AXIS2_PLACEMENT_3D ( 'NONE', #205, #137, #216 ) ;
#168 = ORIENTED_EDGE ( 'NONE', *, *, #110, .T. ) ;
#169 = ORIENTED_EDGE ( 'NONE', *, *, #176, .T. ) ;
#170 = ORIENTED_EDGE ( 'NONE', *, *, #72, .F. ) ;
#171 = PLANE ( 'NONE',  #199 ) ;
#172 = APPROVAL ( #121, 'UNSPECIFIED' ) ;
#173 = DIRECTION ( 'NONE',  ( -1.000000000000000000, 0.000000000000000000, 0.000000000000000000 ) ) ;
#174 = CARTESIAN_POINT ( 'NONE',  ( 0.000000000000000000, 0.000000000000000000, 0.000000000000000000 ) ) ;
#175 = CARTESIAN_POINT ( 'NONE',  ( 0.000000000000000000, 0.000000000000000000, 0.000000000000000000 ) ) ;
#176 = EDGE_CURVE ( 'NONE', #18, #182, #128, .T. ) ;
#177 = DIRECTION ( 'NONE',  ( -0.000000000000000000, -0.000000000000000000, -1.000000000000000000 ) ) ;
#178 = PLANE ( 'NONE',  #134 ) ;
#179 = CARTESIAN_POINT ( 'NONE',  ( 0.000000000000000000, 0.000000000000000000, -25.00000000000000000 ) ) ;
#180 = EDGE_CURVE ( 'NONE', #236, #127, #11, .T. ) ;
#181 = SHAPE_DEFINITION_REPRESENTATION ( #58, #40 ) ;
#182 = VERTEX_POINT ( 'NONE', #162 ) ;
#183 = UNCERTAINTY_MEASURE_WITH_UNIT (LENGTH_MEASURE( 1.000000000000000082E-05 ), #140, 'distance_accuracy_value', 'NONE');
#184 = ADVANCED_FACE ( 'NONE', ( #229 ), #178, .F. ) ;
#185 = DIRECTION ( 'NONE',  ( 0.000000000000000000, 0.000000000000000000, 1.000000000000000000 ) ) ;
#186 = DIRECTION ( 'NONE',  ( -1.000000000000000000, 0.000000000000000000, 0.000000000000000000 ) ) ;
#187 = ORIENTED_EDGE ( 'NONE', *, *, #189, .T. ) ;
#188 = CARTESIAN_POINT ( 'NONE',  ( 0.000000000000000000, 0.000000000000000000, 0.000000000000000000 ) ) ;
#189 = EDGE_CURVE ( 'NONE', #200, #236, #194, .T. ) ;
#190 = AXIS2_PLACEMENT_3D ( 'NONE', #250, #212, #142 ) ;
#191 = DIRECTION ( 'NONE',  ( 0.000000000000000000, 0.000000000000000000, 1.000000000000000000 ) ) ;
#192 = DIRECTION ( 'NONE',  ( 0.000000000000000000, 0.000000000000000000, 1.000000000000000000 ) ) ;
#193 = CARTESIAN_POINT ( 'NONE',  ( -1.000000000000000000, 0.000000000000000000, 0.000000000000000000 ) ) ;
#194 = CIRCLE ( 'NONE', #12, 1.000000000000000000 ) ;
#195 = DIRECTION ( 'NONE',  ( 1.000000000000000000, 0.000000000000000000, 0.000000000000000000 ) ) ;
#196 = AXIS2_PLACEMENT_3D ( 'NONE', #136, #113, #154 ) ;
#197 = PERSON_AND_ORGANIZATION ( #248, #44 ) ;
#198 = LOCAL_TIME ( 23, 2, 27.00000000000000000, #78 ) ;
#199 = AXIS2_PLACEMENT_3D ( 'NONE', #188, #67, #206 ) ;
#200 = VERTEX_POINT ( 'NONE', #228 ) ;
#201 = APPROVAL_ROLE ( '' ) ;
#202 = FACE_OUTER_BOUND ( 'NONE', #117, .T. ) ;
#203 = FACE_OUTER_BOUND ( 'NONE', #130, .T. ) ;
#204 = AXIS2_PLACEMENT_3D ( 'NONE', #111, #185, #218 ) ;
#205 = CARTESIAN_POINT ( 'NONE',  ( 0.000000000000000000, 0.000000000000000000, 2.000000000000000000 ) ) ;
#206 = DIRECTION ( 'NONE',  ( 1.000000000000000000, 0.000000000000000000, -0.000000000000000000 ) ) ;
#207 = FACE_OUTER_BOUND ( 'NONE', #59, .T. ) ;
#208 = CC_DESIGN_APPROVAL ( #122, ( #118 ) ) ;
#209 = DIRECTION ( 'NONE',  ( 1.000000000000000000, 0.000000000000000000, -0.000000000000000000 ) ) ;
#210 = PRODUCT_DEFINITION ( 'UNKNOWN', '', #118, #80 ) ;
#211 = DIRECTION ( 'NONE',  ( 0.000000000000000000, 0.000000000000000000, 1.000000000000000000 ) ) ;
#212 = DIRECTION ( 'NONE',  ( 0.000000000000000000, 0.000000000000000000, 1.000000000000000000 ) ) ;
#213 = PERSON_AND_ORGANIZATION_ROLE ( 'classification_officer' ) ;
#214 = COORDINATED_UNIVERSAL_TIME_OFFSET ( 6, 0, .BEHIND. ) ;
#215 = CC_DESIGN_APPROVAL ( #172, ( #210 ) ) ;
#216 = DIRECTION ( 'NONE',  ( -1.000000000000000000, 0.000000000000000000, 0.000000000000000000 ) ) ;
#217 = CC_DESIGN_DATE_AND_TIME_ASSIGNMENT ( #144, #146, ( #139 ) ) ;
#218 = DIRECTION ( 'NONE',  ( 1.000000000000000000, 0.000000000000000000, 0.000000000000000000 ) ) ;
#219 = CC_DESIGN_APPROVAL ( #131, ( #139 ) ) ;
#220 = CARTESIAN_POINT ( 'NONE',  ( -1.899999999999999911, 0.000000000000000000, 2.000000000000000000 ) ) ;
#221 = CC_DESIGN_PERSON_AND_ORGANIZATION_ASSIGNMENT ( #237, #213, ( #139 ) ) ;
#222 = LINE ( 'NONE', #52, #245 ) ;
#223 = CARTESIAN_POINT ( 'NONE',  ( -1.899999999999999911, 0.000000000000000000, 0.000000000000000000 ) ) ;
#224 = PERSON_AND_ORGANIZATION ( #248, #44 ) ;
#225 = EDGE_CURVE ( 'NONE', #127, #79, #158, .T. ) ;
#226 = AXIS2_PLACEMENT_3D ( 'NONE', #246, #192, #157 ) ;
#227 = DIRECTION ( 'NONE',  ( -0.000000000000000000, -0.000000000000000000, -1.000000000000000000 ) ) ;
#228 = CARTESIAN_POINT ( 'NONE',  ( -1.000000000000000000, 0.000000000000000000, 0.000000000000000000 ) ) ;
#229 = FACE_OUTER_BOUND ( 'NONE', #109, .T. ) ;
#230 = APPLICATION_PROTOCOL_DEFINITION ( 'international standard', 'config_control_design', 1994, #36 ) ;
#231 = PERSON_AND_ORGANIZATION_ROLE ( 'creator' ) ;
#232 = DATE_AND_TIME ( #62, #55 ) ;
#233 = EDGE_LOOP ( 'NONE', ( #87, #238, #1, #4 ) ) ;
#234 = CC_DESIGN_PERSON_AND_ORGANIZATION_ASSIGNMENT ( #254, #251, ( #118 ) ) ;
#235 = CIRCLE ( 'NONE', #3, 1.899999999999999911 ) ;
#236 = VERTEX_POINT ( 'NONE', #34 ) ;
#237 = PERSON_AND_ORGANIZATION ( #248, #44 ) ;
#238 = ORIENTED_EDGE ( 'NONE', *, *, #180, .T. ) ;
#239 = AXIS2_PLACEMENT_3D ( 'NONE', #179, #211, #73 ) ;
#240 = DIRECTION ( 'NONE',  ( 1.000000000000000000, 0.000000000000000000, -0.000000000000000000 ) ) ;
#241 = DIRECTION ( 'NONE',  ( -0.000000000000000000, -0.000000000000000000, -1.000000000000000000 ) ) ;
#242 = CYLINDRICAL_SURFACE ( 'NONE', #88, 1.000000000000000000 ) ;
#243 = EDGE_LOOP ( 'NONE', ( #83, #2, #135, #170 ) ) ;
#244 = APPLICATION_PROTOCOL_DEFINITION ( 'international standard', 'config_control_design', 1994, #115 ) ;
#245 = VECTOR ( 'NONE', #241, 1000.000000000000000 ) ;
#246 = CARTESIAN_POINT ( 'NONE',  ( 0.000000000000000000, 0.000000000000000000, 0.000000000000000000 ) ) ;
#247 = DIRECTION ( 'NONE',  ( 1.000000000000000000, 0.000000000000000000, 0.000000000000000000 ) ) ;
#248 = PERSON ( 'UNSPECIFIED', 'UNSPECIFIED', 'UNSPECIFIED', ('UNSPECIFIED'), ('UNSPECIFIED'), ('UNSPECIFIED') ) ;
#249 = CARTESIAN_POINT ( 'NONE',  ( 0.000000000000000000, 0.000000000000000000, 0.000000000000000000 ) ) ;
#250 = CARTESIAN_POINT ( 'NONE',  ( 0.000000000000000000, 0.000000000000000000, 0.000000000000000000 ) ) ;
#251 = PERSON_AND_ORGANIZATION_ROLE ( 'design_supplier' ) ;
#252 = DATE_TIME_ROLE ( 'creation_date' ) ;
#253 = EDGE_CURVE ( 'NONE', #200, #79, #119, .T. ) ;
#254 = PERSON_AND_ORGANIZATION ( #248, #44 ) ;
#255 = APPROVAL_STATUS ( 'not_yet_approved' ) ;
ENDSEC;
END-ISO-10303-21;
