ISO-10303-21;
HEADER;
FILE_DESCRIPTION (( 'STEP AP203' ),
    '1' );
FILE_NAME ('HW-S_M2x20_socket_ENVELOPE.step',
    '2026-09-08T03:40:55',
    ( '' ),
    ( '' ),
    'SwSTEP 2.0',
    'SolidWorks 2026',
    '' );
FILE_SCHEMA (( 'CONFIG_CONTROL_DESIGN' ));
ENDSEC;

DATA;
#1 = CARTESIAN_POINT ( 'NONE',  ( 0.000000000000000000, 0.000000000000000000, -20.00000000000000000 ) ) ;
#2 = EDGE_LOOP ( 'NONE', ( #203, #240 ) ) ;
#3 = CARTESIAN_POINT ( 'NONE',  ( 0.000000000000000000, 0.000000000000000000, 0.000000000000000000 ) ) ;
#4 = COORDINATED_UNIVERSAL_TIME_OFFSET ( 6, 0, .BEHIND. ) ;
#5 = EDGE_LOOP ( 'NONE', ( #179, #181 ) ) ;
#6 = PERSON_AND_ORGANIZATION_ROLE ( 'creator' ) ;
#7 = APPROVAL ( #32, 'UNSPECIFIED' ) ;
#8 = DIRECTION ( 'NONE',  ( 0.000000000000000000, 0.000000000000000000, 1.000000000000000000 ) ) ;
#9 = CARTESIAN_POINT ( 'NONE',  ( 0.000000000000000000, 0.000000000000000000, 0.000000000000000000 ) ) ;
#10 = EDGE_CURVE ( 'NONE', #42, #144, #102, .T. ) ;
#11 = LINE ( 'NONE', #147, #38 ) ;
#12 = ORIENTED_EDGE ( 'NONE', *, *, #185, .T. ) ;
#13 = CARTESIAN_POINT ( 'NONE',  ( -1.000000000000000000, 0.000000000000000000, 0.000000000000000000 ) ) ;
#14 = PRODUCT_RELATED_PRODUCT_CATEGORY ( 'detail', '', ( #69 ) ) ;
#15 = DIRECTION ( 'NONE',  ( 1.000000000000000000, 0.000000000000000000, 0.000000000000000000 ) ) ;
#16 = DIRECTION ( 'NONE',  ( 0.000000000000000000, 0.000000000000000000, 1.000000000000000000 ) ) ;
#17 = CIRCLE ( 'NONE', #168, 1.899999999999999911 ) ;
#18 = LOCAL_TIME ( 22, 40, 55.00000000000000000, #4 ) ;
#19 =( NAMED_UNIT ( * ) PLANE_ANGLE_UNIT ( ) SI_UNIT ( $, .RADIAN. ) );
#20 = CARTESIAN_POINT ( 'NONE',  ( 0.000000000000000000, 0.000000000000000000, -20.00000000000000000 ) ) ;
#21 = AXIS2_PLACEMENT_3D ( 'NONE', #208, #195, #230 ) ;
#22 = CC_DESIGN_DATE_AND_TIME_ASSIGNMENT ( #225, #89, ( #71 ) ) ;
#23 = DIRECTION ( 'NONE',  ( 1.000000000000000000, 0.000000000000000000, 0.000000000000000000 ) ) ;
#24 = ORIENTED_EDGE ( 'NONE', *, *, #252, .F. ) ;
#25 = PERSON_AND_ORGANIZATION_ROLE ( 'design_owner' ) ;
#26 = PRODUCT_DEFINITION_SHAPE ( 'NONE', 'NONE',  #140 ) ;
#27 = VERTEX_POINT ( 'NONE', #96 ) ;
#28 = PERSON_AND_ORGANIZATION ( #68, #220 ) ;
#29 = DIRECTION ( 'NONE',  ( 1.000000000000000000, 0.000000000000000000, 0.000000000000000000 ) ) ;
#30 = PERSON_AND_ORGANIZATION ( #68, #220 ) ;
#31 = LINE ( 'NONE', #213, #90 ) ;
#32 = APPROVAL_STATUS ( 'not_yet_approved' ) ;
#33 = CARTESIAN_POINT ( 'NONE',  ( 1.000000000000000000, 1.224646799147353207E-16, 0.000000000000000000 ) ) ;
#34 = DIRECTION ( 'NONE',  ( 1.000000000000000000, 0.000000000000000000, -0.000000000000000000 ) ) ;
#35 = PLANE ( 'NONE',  #21 ) ;
#36 = EDGE_CURVE ( 'NONE', #72, #87, #31, .T. ) ;
#37 =( NAMED_UNIT ( * ) SI_UNIT ( $, .STERADIAN. ) SOLID_ANGLE_UNIT ( ) );
#38 = VECTOR ( 'NONE', #98, 1000.000000000000000 ) ;
#39 = CARTESIAN_POINT ( 'NONE',  ( -1.899999999999999911, 0.000000000000000000, 0.000000000000000000 ) ) ;
#40 = CIRCLE ( 'NONE', #145, 1.899999999999999911 ) ;
#41 = ADVANCED_FACE ( 'NONE', ( #229 ), #35, .T. ) ;
#42 = VERTEX_POINT ( 'NONE', #212 ) ;
#43 = DIRECTION ( 'NONE',  ( 1.000000000000000000, 0.000000000000000000, 0.000000000000000000 ) ) ;
#44 = CC_DESIGN_APPROVAL ( #109, ( #91 ) ) ;
#45 = VERTEX_POINT ( 'NONE', #13 ) ;
#46 = PERSON_AND_ORGANIZATION ( #68, #220 ) ;
#47 = APPLICATION_PROTOCOL_DEFINITION ( 'international standard', 'config_control_design', 1994, #150 ) ;
#48 = CARTESIAN_POINT ( 'NONE',  ( 0.000000000000000000, 0.000000000000000000, 0.000000000000000000 ) ) ;
#49 = DATE_TIME_ROLE ( 'creation_date' ) ;
#50 = ORIENTED_EDGE ( 'NONE', *, *, #60, .T. ) ;
#51 = DATE_AND_TIME ( #228, #232 ) ;
#52 = ADVANCED_FACE ( 'NONE', ( #149, #172 ), #127, .F. ) ;
#53 = CARTESIAN_POINT ( 'NONE',  ( 0.000000000000000000, 0.000000000000000000, 0.000000000000000000 ) ) ;
#54 = DIRECTION ( 'NONE',  ( -0.000000000000000000, -0.000000000000000000, -1.000000000000000000 ) ) ;
#55 = AXIS2_PLACEMENT_3D ( 'NONE', #157, #173, #138 ) ;
#56 = CC_DESIGN_APPROVAL ( #7, ( #71 ) ) ;
#57 = ORIENTED_EDGE ( 'NONE', *, *, #94, .F. ) ;
#58 = DIRECTION ( 'NONE',  ( -1.000000000000000000, 0.000000000000000000, 0.000000000000000000 ) ) ;
#59 = VECTOR ( 'NONE', #194, 1000.000000000000000 ) ;
#60 = EDGE_CURVE ( 'NONE', #45, #128, #154, .T. ) ;
#61 = CARTESIAN_POINT ( 'NONE',  ( -1.000000000000000000, 0.000000000000000000, -20.00000000000000000 ) ) ;
#62 = UNCERTAINTY_MEASURE_WITH_UNIT (LENGTH_MEASURE( 1.000000000000000082E-05 ), #85, 'distance_accuracy_value', 'NONE');
#63 = AXIS2_PLACEMENT_3D ( 'NONE', #244, #153, #133 ) ;
#64 = EDGE_CURVE ( 'NONE', #78, #42, #210, .T. ) ;
#65 = CC_DESIGN_PERSON_AND_ORGANIZATION_ASSIGNMENT ( #224, #73, ( #71 ) ) ;
#66 = EDGE_CURVE ( 'NONE', #72, #45, #199, .T. ) ;
#67 = APPLICATION_PROTOCOL_DEFINITION ( 'international standard', 'config_control_design', 1994, #80 ) ;
#68 = PERSON ( 'UNSPECIFIED', 'UNSPECIFIED', 'UNSPECIFIED', ('UNSPECIFIED'), ('UNSPECIFIED'), ('UNSPECIFIED') ) ;
#69 = PRODUCT ( 'HW-S_M2x20_socket_ENVELOPE', 'HW-S_M2x20_socket_ENVELOPE', '', ( #121 ) ) ;
#70 = CALENDAR_DATE ( 2026, 7, 9 ) ;
#71 = SECURITY_CLASSIFICATION ( '', '', #75 ) ;
#72 = VERTEX_POINT ( 'NONE', #33 ) ;
#73 = PERSON_AND_ORGANIZATION_ROLE ( 'classification_officer' ) ;
#74 = ORIENTED_EDGE ( 'NONE', *, *, #126, .F. ) ;
#75 = SECURITY_CLASSIFICATION_LEVEL ( 'unclassified' ) ;
#76 = ORIENTED_EDGE ( 'NONE', *, *, #66, .F. ) ;
#77 = CYLINDRICAL_SURFACE ( 'NONE', #231, 1.899999999999999911 ) ;
#78 = VERTEX_POINT ( 'NONE', #111 ) ;
#79 = CC_DESIGN_APPROVAL ( #233, ( #140 ) ) ;
#80 = APPLICATION_CONTEXT ( 'configuration controlled 3d designs of mechanical parts and assemblies' ) ;
#81 = CARTESIAN_POINT ( 'NONE',  ( 0.000000000000000000, 0.000000000000000000, 0.000000000000000000 ) ) ;
#82 = DIRECTION ( 'NONE',  ( 0.000000000000000000, 0.000000000000000000, 1.000000000000000000 ) ) ;
#83 =( GEOMETRIC_REPRESENTATION_CONTEXT ( 3 ) GLOBAL_UNCERTAINTY_ASSIGNED_CONTEXT ( ( #62 ) ) GLOBAL_UNIT_ASSIGNED_CONTEXT ( ( #85, #19, #37 ) ) REPRESENTATION_CONTEXT ( 'NONE', 'WORKASPACE' ) );
#84 = CIRCLE ( 'NONE', #118, 1.000000000000000000 ) ;
#85 =( LENGTH_UNIT ( ) NAMED_UNIT ( * ) SI_UNIT ( .MILLI., .METRE. ) );
#86 = ORIENTED_EDGE ( 'NONE', *, *, #64, .F. ) ;
#87 = VERTEX_POINT ( 'NONE', #167 ) ;
#88 = DIRECTION ( 'NONE',  ( 0.000000000000000000, 0.000000000000000000, 1.000000000000000000 ) ) ;
#89 = DATE_TIME_ROLE ( 'classification_date' ) ;
#90 = VECTOR ( 'NONE', #132, 1000.000000000000000 ) ;
#91 = PRODUCT_DEFINITION_FORMATION_WITH_SPECIFIED_SOURCE ( 'ANY', '', #69, .NOT_KNOWN. ) ;
#92 = PERSON_AND_ORGANIZATION_ROLE ( 'design_supplier' ) ;
#93 = DATE_AND_TIME ( #129, #18 ) ;
#94 = EDGE_CURVE ( 'NONE', #27, #78, #171, .T. ) ;
#95 = CC_DESIGN_DATE_AND_TIME_ASSIGNMENT ( #93, #49, ( #140 ) ) ;
#96 = CARTESIAN_POINT ( 'NONE',  ( -1.899999999999999911, 0.000000000000000000, 2.000000000000000000 ) ) ;
#97 = COORDINATED_UNIVERSAL_TIME_OFFSET ( 6, 0, .BEHIND. ) ;
#98 = DIRECTION ( 'NONE',  ( -0.000000000000000000, -0.000000000000000000, -1.000000000000000000 ) ) ;
#99 = CYLINDRICAL_SURFACE ( 'NONE', #254, 1.000000000000000000 ) ;
#100 = ORIENTED_EDGE ( 'NONE', *, *, #66, .T. ) ;
#101 = CARTESIAN_POINT ( 'NONE',  ( -1.000000000000000000, 0.000000000000000000, 0.000000000000000000 ) ) ;
#102 = CIRCLE ( 'NONE', #63, 1.899999999999999911 ) ;
#103 = FACE_OUTER_BOUND ( 'NONE', #219, .T. ) ;
#104 = CIRCLE ( 'NONE', #131, 1.000000000000000000 ) ;
#105 = DIRECTION ( 'NONE',  ( 1.000000000000000000, 0.000000000000000000, -0.000000000000000000 ) ) ;
#106 = ORIENTED_EDGE ( 'NONE', *, *, #108, .F. ) ;
#107 = EDGE_LOOP ( 'NONE', ( #12, #100 ) ) ;
#108 = EDGE_CURVE ( 'NONE', #27, #144, #11, .T. ) ;
#109 = APPROVAL ( #226, 'UNSPECIFIED' ) ;
#110 = ADVANCED_FACE ( 'NONE', ( #227 ), #99, .T. ) ;
#111 = CARTESIAN_POINT ( 'NONE',  ( 1.899999999999999911, 2.326828918379971365E-16, 2.000000000000000000 ) ) ;
#112 = APPROVAL_STATUS ( 'not_yet_approved' ) ;
#113 = DIRECTION ( 'NONE',  ( -1.000000000000000000, 0.000000000000000000, 0.000000000000000000 ) ) ;
#114 = SHAPE_DEFINITION_REPRESENTATION ( #26, #216 ) ;
#115 = CLOSED_SHELL ( 'NONE', ( #135, #200, #110, #155, #123, #41, #52 ) ) ;
#116 = DIRECTION ( 'NONE',  ( 1.000000000000000000, 0.000000000000000000, 0.000000000000000000 ) ) ;
#117 = EDGE_LOOP ( 'NONE', ( #76, #169, #247, #249 ) ) ;
#118 = AXIS2_PLACEMENT_3D ( 'NONE', #1, #82, #134 ) ;
#119 = AXIS2_PLACEMENT_3D ( 'NONE', #160, #253, #105 ) ;
#120 = DIRECTION ( 'NONE',  ( 1.000000000000000000, 0.000000000000000000, 0.000000000000000000 ) ) ;
#121 = MECHANICAL_CONTEXT ( 'NONE', #80, 'mechanical' ) ;
#122 = CYLINDRICAL_SURFACE ( 'NONE', #191, 1.000000000000000000 ) ;
#123 = ADVANCED_FACE ( 'NONE', ( #190 ), #77, .T. ) ;
#124 = EDGE_LOOP ( 'NONE', ( #86, #57, #221, #242 ) ) ;
#125 = ORIENTED_EDGE ( 'NONE', *, *, #207, .T. ) ;
#126 = EDGE_CURVE ( 'NONE', #87, #128, #250, .T. ) ;
#127 = PLANE ( 'NONE',  #178 ) ;
#128 = VERTEX_POINT ( 'NONE', #61 ) ;
#129 = CALENDAR_DATE ( 2026, 7, 9 ) ;
#130 = DIRECTION ( 'NONE',  ( 0.000000000000000000, 0.000000000000000000, 1.000000000000000000 ) ) ;
#131 = AXIS2_PLACEMENT_3D ( 'NONE', #234, #180, #43 ) ;
#132 = DIRECTION ( 'NONE',  ( -0.000000000000000000, -0.000000000000000000, -1.000000000000000000 ) ) ;
#133 = DIRECTION ( 'NONE',  ( 1.000000000000000000, 0.000000000000000000, 0.000000000000000000 ) ) ;
#134 = DIRECTION ( 'NONE',  ( 1.000000000000000000, 0.000000000000000000, 0.000000000000000000 ) ) ;
#135 = ADVANCED_FACE ( 'NONE', ( #103 ), #197, .T. ) ;
#136 = CC_DESIGN_PERSON_AND_ORGANIZATION_ASSIGNMENT ( #246, #6, ( #91 ) ) ;
#137 = AXIS2_PLACEMENT_3D ( 'NONE', #20, #214, #120 ) ;
#138 = DIRECTION ( 'NONE',  ( -1.000000000000000000, 0.000000000000000000, 0.000000000000000000 ) ) ;
#139 = EDGE_LOOP ( 'NONE', ( #165, #237, #50, #125 ) ) ;
#140 = PRODUCT_DEFINITION ( 'UNKNOWN', '', #91, #217 ) ;
#141 = APPROVAL_PERSON_ORGANIZATION ( #209, #7, #148 ) ;
#142 = PERSON_AND_ORGANIZATION ( #68, #220 ) ;
#143 = CALENDAR_DATE ( 2026, 7, 9 ) ;
#144 = VERTEX_POINT ( 'NONE', #39 ) ;
#145 = AXIS2_PLACEMENT_3D ( 'NONE', #3, #88, #182 ) ;
#146 = COORDINATED_UNIVERSAL_TIME_OFFSET ( 6, 0, .BEHIND. ) ;
#147 = CARTESIAN_POINT ( 'NONE',  ( -1.899999999999999911, 0.000000000000000000, 2.000000000000000000 ) ) ;
#148 = APPROVAL_ROLE ( '' ) ;
#149 = FACE_BOUND ( 'NONE', #107, .T. ) ;
#150 = APPLICATION_CONTEXT ( 'configuration controlled 3d designs of mechanical parts and assemblies' ) ;
#151 = CARTESIAN_POINT ( 'NONE',  ( 0.000000000000000000, 0.000000000000000000, 2.000000000000000000 ) ) ;
#152 = LOCAL_TIME ( 22, 40, 55.00000000000000000, #192 ) ;
#153 = DIRECTION ( 'NONE',  ( 0.000000000000000000, 0.000000000000000000, 1.000000000000000000 ) ) ;
#154 = LINE ( 'NONE', #101, #162 ) ;
#155 = ADVANCED_FACE ( 'NONE', ( #201 ), #156, .F. ) ;
#156 = PLANE ( 'NONE',  #119 ) ;
#157 = CARTESIAN_POINT ( 'NONE',  ( 0.000000000000000000, 0.000000000000000000, 2.000000000000000000 ) ) ;
#158 = FACE_OUTER_BOUND ( 'NONE', #117, .T. ) ;
#159 = MANIFOLD_SOLID_BREP ( 'Socket_head_envelope', #115 ) ;
#160 = CARTESIAN_POINT ( 'NONE',  ( 0.000000000000000000, 0.000000000000000000, -20.00000000000000000 ) ) ;
#161 = ORIENTED_EDGE ( 'NONE', *, *, #10, .T. ) ;
#162 = VECTOR ( 'NONE', #193, 1000.000000000000000 ) ;
#163 = APPROVAL_PERSON_ORGANIZATION ( #30, #109, #241 ) ;
#164 = APPROVAL_DATE_TIME ( #51, #7 ) ;
#165 = ORIENTED_EDGE ( 'NONE', *, *, #36, .F. ) ;
#166 = APPROVAL_ROLE ( '' ) ;
#167 = CARTESIAN_POINT ( 'NONE',  ( 1.000000000000000000, 1.224646799147353207E-16, -20.00000000000000000 ) ) ;
#168 = AXIS2_PLACEMENT_3D ( 'NONE', #218, #16, #15 ) ;
#169 = ORIENTED_EDGE ( 'NONE', *, *, #36, .T. ) ;
#170 = EDGE_LOOP ( 'NONE', ( #186, #74 ) ) ;
#171 = CIRCLE ( 'NONE', #196, 1.899999999999999911 ) ;
#172 = FACE_OUTER_BOUND ( 'NONE', #5, .T. ) ;
#173 = DIRECTION ( 'NONE',  ( -0.000000000000000000, -0.000000000000000000, -1.000000000000000000 ) ) ;
#174 = CC_DESIGN_SECURITY_CLASSIFICATION ( #71, ( #91 ) ) ;
#175 = DIRECTION ( 'NONE',  ( 0.000000000000000000, 0.000000000000000000, 1.000000000000000000 ) ) ;
#176 = EDGE_CURVE ( 'NONE', #144, #42, #40, .T. ) ;
#177 = CC_DESIGN_PERSON_AND_ORGANIZATION_ASSIGNMENT ( #46, #187, ( #140 ) ) ;
#178 = AXIS2_PLACEMENT_3D ( 'NONE', #53, #130, #34 ) ;
#179 = ORIENTED_EDGE ( 'NONE', *, *, #176, .F. ) ;
#180 = DIRECTION ( 'NONE',  ( 0.000000000000000000, 0.000000000000000000, 1.000000000000000000 ) ) ;
#181 = ORIENTED_EDGE ( 'NONE', *, *, #10, .F. ) ;
#182 = DIRECTION ( 'NONE',  ( 1.000000000000000000, 0.000000000000000000, 0.000000000000000000 ) ) ;
#183 = ORIENTED_EDGE ( 'NONE', *, *, #64, .T. ) ;
#184 = APPROVAL_DATE_TIME ( #222, #233 ) ;
#185 = EDGE_CURVE ( 'NONE', #45, #72, #104, .T. ) ;
#186 = ORIENTED_EDGE ( 'NONE', *, *, #207, .F. ) ;
#187 = PERSON_AND_ORGANIZATION_ROLE ( 'creator' ) ;
#188 = CALENDAR_DATE ( 2026, 7, 9 ) ;
#189 = CARTESIAN_POINT ( 'NONE',  ( 0.000000000000000000, 0.000000000000000000, 2.000000000000000000 ) ) ;
#190 = FACE_OUTER_BOUND ( 'NONE', #124, .T. ) ;
#191 = AXIS2_PLACEMENT_3D ( 'NONE', #236, #238, #58 ) ;
#192 = COORDINATED_UNIVERSAL_TIME_OFFSET ( 6, 0, .BEHIND. ) ;
#193 = DIRECTION ( 'NONE',  ( -0.000000000000000000, -0.000000000000000000, -1.000000000000000000 ) ) ;
#194 = DIRECTION ( 'NONE',  ( -0.000000000000000000, -0.000000000000000000, -1.000000000000000000 ) ) ;
#195 = DIRECTION ( 'NONE',  ( 0.000000000000000000, 0.000000000000000000, 1.000000000000000000 ) ) ;
#196 = AXIS2_PLACEMENT_3D ( 'NONE', #189, #8, #116 ) ;
#197 = CYLINDRICAL_SURFACE ( 'NONE', #55, 1.899999999999999911 ) ;
#198 = CC_DESIGN_PERSON_AND_ORGANIZATION_ASSIGNMENT ( #142, #92, ( #91 ) ) ;
#199 = CIRCLE ( 'NONE', #235, 1.000000000000000000 ) ;
#200 = ADVANCED_FACE ( 'NONE', ( #158 ), #122, .T. ) ;
#201 = FACE_OUTER_BOUND ( 'NONE', #170, .T. ) ;
#202 = DIRECTION ( 'NONE',  ( -1.000000000000000000, 0.000000000000000000, 0.000000000000000000 ) ) ;
#203 = ORIENTED_EDGE ( 'NONE', *, *, #94, .T. ) ;
#204 = COORDINATED_UNIVERSAL_TIME_OFFSET ( 6, 0, .BEHIND. ) ;
#205 = DIRECTION ( 'NONE',  ( 0.000000000000000000, 0.000000000000000000, 1.000000000000000000 ) ) ;
#206 = PERSON_AND_ORGANIZATION ( #68, #220 ) ;
#207 = EDGE_CURVE ( 'NONE', #128, #87, #84, .T. ) ;
#208 = CARTESIAN_POINT ( 'NONE',  ( 0.000000000000000000, 0.000000000000000000, 2.000000000000000000 ) ) ;
#209 = PERSON_AND_ORGANIZATION ( #68, #220 ) ;
#210 = LINE ( 'NONE', #251, #59 ) ;
#211 = APPROVAL_PERSON_ORGANIZATION ( #206, #233, #166 ) ;
#212 = CARTESIAN_POINT ( 'NONE',  ( 1.899999999999999911, 2.326828918379971365E-16, 0.000000000000000000 ) ) ;
#213 = CARTESIAN_POINT ( 'NONE',  ( 1.000000000000000000, 1.224646799147353207E-16, 0.000000000000000000 ) ) ;
#214 = DIRECTION ( 'NONE',  ( 0.000000000000000000, 0.000000000000000000, 1.000000000000000000 ) ) ;
#215 = LOCAL_TIME ( 22, 40, 55.00000000000000000, #204 ) ;
#216 = ADVANCED_BREP_SHAPE_REPRESENTATION ( 'HW-S_M2x20_socket_ENVELOPE', ( #159, #245 ), #83 ) ;
#217 = DESIGN_CONTEXT ( 'detailed design', #150, 'design' ) ;
#218 = CARTESIAN_POINT ( 'NONE',  ( 0.000000000000000000, 0.000000000000000000, 2.000000000000000000 ) ) ;
#219 = EDGE_LOOP ( 'NONE', ( #24, #183, #161, #106 ) ) ;
#220 = ORGANIZATION ( 'UNSPECIFIED', 'UNSPECIFIED', '' ) ;
#221 = ORIENTED_EDGE ( 'NONE', *, *, #108, .T. ) ;
#222 = DATE_AND_TIME ( #70, #152 ) ;
#223 = CC_DESIGN_PERSON_AND_ORGANIZATION_ASSIGNMENT ( #28, #25, ( #69 ) ) ;
#224 = PERSON_AND_ORGANIZATION ( #68, #220 ) ;
#225 = DATE_AND_TIME ( #143, #215 ) ;
#226 = APPROVAL_STATUS ( 'not_yet_approved' ) ;
#227 = FACE_OUTER_BOUND ( 'NONE', #139, .T. ) ;
#228 = CALENDAR_DATE ( 2026, 7, 9 ) ;
#229 = FACE_OUTER_BOUND ( 'NONE', #2, .T. ) ;
#230 = DIRECTION ( 'NONE',  ( 1.000000000000000000, 0.000000000000000000, -0.000000000000000000 ) ) ;
#231 = AXIS2_PLACEMENT_3D ( 'NONE', #151, #54, #202 ) ;
#232 = LOCAL_TIME ( 22, 40, 55.00000000000000000, #146 ) ;
#233 = APPROVAL ( #112, 'UNSPECIFIED' ) ;
#234 = CARTESIAN_POINT ( 'NONE',  ( 0.000000000000000000, 0.000000000000000000, 0.000000000000000000 ) ) ;
#235 = AXIS2_PLACEMENT_3D ( 'NONE', #48, #205, #29 ) ;
#236 = CARTESIAN_POINT ( 'NONE',  ( 0.000000000000000000, 0.000000000000000000, 0.000000000000000000 ) ) ;
#237 = ORIENTED_EDGE ( 'NONE', *, *, #185, .F. ) ;
#238 = DIRECTION ( 'NONE',  ( -0.000000000000000000, -0.000000000000000000, -1.000000000000000000 ) ) ;
#239 = APPROVAL_DATE_TIME ( #243, #109 ) ;
#240 = ORIENTED_EDGE ( 'NONE', *, *, #252, .T. ) ;
#241 = APPROVAL_ROLE ( '' ) ;
#242 = ORIENTED_EDGE ( 'NONE', *, *, #176, .T. ) ;
#243 = DATE_AND_TIME ( #188, #255 ) ;
#244 = CARTESIAN_POINT ( 'NONE',  ( 0.000000000000000000, 0.000000000000000000, 0.000000000000000000 ) ) ;
#245 = AXIS2_PLACEMENT_3D ( 'NONE', #81, #175, #23 ) ;
#246 = PERSON_AND_ORGANIZATION ( #68, #220 ) ;
#247 = ORIENTED_EDGE ( 'NONE', *, *, #126, .T. ) ;
#248 = DIRECTION ( 'NONE',  ( -0.000000000000000000, -0.000000000000000000, -1.000000000000000000 ) ) ;
#249 = ORIENTED_EDGE ( 'NONE', *, *, #60, .F. ) ;
#250 = CIRCLE ( 'NONE', #137, 1.000000000000000000 ) ;
#251 = CARTESIAN_POINT ( 'NONE',  ( 1.899999999999999911, 2.326828918379971365E-16, 2.000000000000000000 ) ) ;
#252 = EDGE_CURVE ( 'NONE', #78, #27, #17, .T. ) ;
#253 = DIRECTION ( 'NONE',  ( 0.000000000000000000, 0.000000000000000000, 1.000000000000000000 ) ) ;
#254 = AXIS2_PLACEMENT_3D ( 'NONE', #9, #248, #113 ) ;
#255 = LOCAL_TIME ( 22, 40, 55.00000000000000000, #97 ) ;
ENDSEC;
END-ISO-10303-21;
