ISO-10303-21;
HEADER;
FILE_DESCRIPTION (( 'STEP AP203' ),
    '1' );
FILE_NAME ('HW-S_M3x30_socket_ENVELOPE.step',
    '2026-09-08T03:41:22',
    ( '' ),
    ( '' ),
    'SwSTEP 2.0',
    'SolidWorks 2026',
    '' );
FILE_SCHEMA (( 'CONFIG_CONTROL_DESIGN' ));
ENDSEC;

DATA;
#1 = PERSON_AND_ORGANIZATION_ROLE ( 'classification_officer' ) ;
#2 = DESIGN_CONTEXT ( 'detailed design', #72, 'design' ) ;
#3 = APPROVAL ( #158, 'UNSPECIFIED' ) ;
#4 = APPROVAL_ROLE ( '' ) ;
#5 = AXIS2_PLACEMENT_3D ( 'NONE', #80, #154, #137 ) ;
#6 = AXIS2_PLACEMENT_3D ( 'NONE', #255, #57, #138 ) ;
#7 = PERSON_AND_ORGANIZATION_ROLE ( 'creator' ) ;
#8 = CALENDAR_DATE ( 2026, 7, 9 ) ;
#9 = PERSON ( 'UNSPECIFIED', 'UNSPECIFIED', 'UNSPECIFIED', ('UNSPECIFIED'), ('UNSPECIFIED'), ('UNSPECIFIED') ) ;
#10 = AXIS2_PLACEMENT_3D ( 'NONE', #153, #234, #231 ) ;
#11 = DIRECTION ( 'NONE',  ( 1.000000000000000000, 0.000000000000000000, 0.000000000000000000 ) ) ;
#12 = ORIENTED_EDGE ( 'NONE', *, *, #27, .F. ) ;
#13 = EDGE_CURVE ( 'NONE', #195, #102, #96, .T. ) ;
#14 = VECTOR ( 'NONE', #247, 1000.000000000000000 ) ;
#15 = VERTEX_POINT ( 'NONE', #249 ) ;
#16 = APPROVAL ( #164, 'UNSPECIFIED' ) ;
#17 = CC_DESIGN_PERSON_AND_ORGANIZATION_ASSIGNMENT ( #92, #108, ( #104 ) ) ;
#18 = CARTESIAN_POINT ( 'NONE',  ( 0.000000000000000000, 0.000000000000000000, 0.000000000000000000 ) ) ;
#19 = ORIENTED_EDGE ( 'NONE', *, *, #23, .F. ) ;
#20 = DIRECTION ( 'NONE',  ( -0.000000000000000000, -0.000000000000000000, -1.000000000000000000 ) ) ;
#21 = ORIENTED_EDGE ( 'NONE', *, *, #64, .T. ) ;
#22 = CARTESIAN_POINT ( 'NONE',  ( 1.500000000000000000, 1.836970198721029934E-16, -30.00000000000000000 ) ) ;
#23 = EDGE_CURVE ( 'NONE', #165, #51, #61, .T. ) ;
#24 = DIRECTION ( 'NONE',  ( 0.000000000000000000, 0.000000000000000000, 1.000000000000000000 ) ) ;
#25 = EDGE_LOOP ( 'NONE', ( #245, #225, #191, #12 ) ) ;
#26 = DIRECTION ( 'NONE',  ( -0.000000000000000000, -0.000000000000000000, -1.000000000000000000 ) ) ;
#27 = EDGE_CURVE ( 'NONE', #230, #15, #98, .T. ) ;
#28 = DIRECTION ( 'NONE',  ( 1.000000000000000000, 0.000000000000000000, 0.000000000000000000 ) ) ;
#29 = EDGE_CURVE ( 'NONE', #189, #230, #222, .T. ) ;
#30 = ORIENTED_EDGE ( 'NONE', *, *, #91, .T. ) ;
#31 = CALENDAR_DATE ( 2026, 7, 9 ) ;
#32 = APPROVAL_DATE_TIME ( #88, #3 ) ;
#33 = CARTESIAN_POINT ( 'NONE',  ( 0.000000000000000000, 0.000000000000000000, 0.000000000000000000 ) ) ;
#34 = AXIS2_PLACEMENT_3D ( 'NONE', #220, #53, #244 ) ;
#35 = CARTESIAN_POINT ( 'NONE',  ( -1.500000000000000000, 0.000000000000000000, 0.000000000000000000 ) ) ;
#36 = DIRECTION ( 'NONE',  ( 0.000000000000000000, 0.000000000000000000, 1.000000000000000000 ) ) ;
#37 = CC_DESIGN_DATE_AND_TIME_ASSIGNMENT ( #204, #236, ( #118 ) ) ;
#38 = FACE_BOUND ( 'NONE', #134, .T. ) ;
#39 = EDGE_LOOP ( 'NONE', ( #115, #190 ) ) ;
#40 = CYLINDRICAL_SURFACE ( 'NONE', #170, 1.500000000000000000 ) ;
#41 = AXIS2_PLACEMENT_3D ( 'NONE', #188, #114, #94 ) ;
#42 = PRODUCT_DEFINITION_FORMATION_WITH_SPECIFIED_SOURCE ( 'ANY', '', #104, .NOT_KNOWN. ) ;
#43 = APPLICATION_PROTOCOL_DEFINITION ( 'international standard', 'config_control_design', 1994, #81 ) ;
#44 = ORIENTED_EDGE ( 'NONE', *, *, #86, .T. ) ;
#45 = CYLINDRICAL_SURFACE ( 'NONE', #113, 2.750000000000000000 ) ;
#46 = DIRECTION ( 'NONE',  ( -1.000000000000000000, 0.000000000000000000, 0.000000000000000000 ) ) ;
#47 = ADVANCED_FACE ( 'NONE', ( #169 ), #78, .F. ) ;
#48 = CC_DESIGN_PERSON_AND_ORGANIZATION_ASSIGNMENT ( #216, #7, ( #118 ) ) ;
#49 = APPROVAL_DATE_TIME ( #163, #16 ) ;
#50 = CARTESIAN_POINT ( 'NONE',  ( 0.000000000000000000, 0.000000000000000000, 3.000000000000000000 ) ) ;
#51 = VERTEX_POINT ( 'NONE', #246 ) ;
#52 = AXIS2_PLACEMENT_3D ( 'NONE', #119, #199, #79 ) ;
#53 = DIRECTION ( 'NONE',  ( 0.000000000000000000, 0.000000000000000000, 1.000000000000000000 ) ) ;
#54 = EDGE_CURVE ( 'NONE', #189, #148, #75, .T. ) ;
#55 = EDGE_LOOP ( 'NONE', ( #152, #139 ) ) ;
#56 = DIRECTION ( 'NONE',  ( -0.000000000000000000, -0.000000000000000000, -1.000000000000000000 ) ) ;
#57 = DIRECTION ( 'NONE',  ( 0.000000000000000000, 0.000000000000000000, 1.000000000000000000 ) ) ;
#58 = ADVANCED_FACE ( 'NONE', ( #38, #117 ), #223, .F. ) ;
#59 = CARTESIAN_POINT ( 'NONE',  ( -2.750000000000000000, 0.000000000000000000, 0.000000000000000000 ) ) ;
#60 = DIRECTION ( 'NONE',  ( 1.000000000000000000, 0.000000000000000000, 0.000000000000000000 ) ) ;
#61 = CIRCLE ( 'NONE', #218, 2.750000000000000000 ) ;
#62 = FACE_OUTER_BOUND ( 'NONE', #25, .T. ) ;
#63 =( NAMED_UNIT ( * ) SI_UNIT ( $, .STERADIAN. ) SOLID_ANGLE_UNIT ( ) );
#64 = EDGE_CURVE ( 'NONE', #51, #165, #210, .T. ) ;
#65 = PERSON_AND_ORGANIZATION ( #9, #76 ) ;
#66 = CALENDAR_DATE ( 2026, 7, 9 ) ;
#67 = PERSON_AND_ORGANIZATION_ROLE ( 'design_supplier' ) ;
#68 = APPROVAL_ROLE ( '' ) ;
#69 = COORDINATED_UNIVERSAL_TIME_OFFSET ( 6, 0, .BEHIND. ) ;
#70 = AXIS2_PLACEMENT_3D ( 'NONE', #18, #77, #151 ) ;
#71 = LOCAL_TIME ( 22, 41, 22.00000000000000000, #69 ) ;
#72 = APPLICATION_CONTEXT ( 'configuration controlled 3d designs of mechanical parts and assemblies' ) ;
#73 = DIRECTION ( 'NONE',  ( 0.000000000000000000, 0.000000000000000000, 1.000000000000000000 ) ) ;
#74 = ORIENTED_EDGE ( 'NONE', *, *, #168, .T. ) ;
#75 = LINE ( 'NONE', #171, #179 ) ;
#76 = ORGANIZATION ( 'UNSPECIFIED', 'UNSPECIFIED', '' ) ;
#77 = DIRECTION ( 'NONE',  ( 0.000000000000000000, 0.000000000000000000, 1.000000000000000000 ) ) ;
#78 = PLANE ( 'NONE',  #41 ) ;
#79 = DIRECTION ( 'NONE',  ( 1.000000000000000000, 0.000000000000000000, 0.000000000000000000 ) ) ;
#80 = CARTESIAN_POINT ( 'NONE',  ( 0.000000000000000000, 0.000000000000000000, 3.000000000000000000 ) ) ;
#81 = APPLICATION_CONTEXT ( 'configuration controlled 3d designs of mechanical parts and assemblies' ) ;
#82 = DIRECTION ( 'NONE',  ( -0.000000000000000000, -0.000000000000000000, -1.000000000000000000 ) ) ;
#83 =( LENGTH_UNIT ( ) NAMED_UNIT ( * ) SI_UNIT ( .MILLI., .METRE. ) );
#84 = CLOSED_SHELL ( 'NONE', ( #248, #187, #239, #47, #103, #198, #58 ) ) ;
#85 = DIRECTION ( 'NONE',  ( 0.000000000000000000, 0.000000000000000000, 1.000000000000000000 ) ) ;
#86 = EDGE_CURVE ( 'NONE', #165, #195, #208, .T. ) ;
#87 = DATE_AND_TIME ( #143, #237 ) ;
#88 = DATE_AND_TIME ( #31, #71 ) ;
#89 = CC_DESIGN_APPROVAL ( #167, ( #118 ) ) ;
#90 = APPLICATION_PROTOCOL_DEFINITION ( 'international standard', 'config_control_design', 1994, #72 ) ;
#91 = EDGE_CURVE ( 'NONE', #102, #195, #214, .T. ) ;
#92 = PERSON_AND_ORGANIZATION ( #9, #76 ) ;
#93 = APPROVAL_PERSON_ORGANIZATION ( #160, #16, #4 ) ;
#94 = DIRECTION ( 'NONE',  ( 1.000000000000000000, 0.000000000000000000, -0.000000000000000000 ) ) ;
#95 = DIRECTION ( 'NONE',  ( 0.000000000000000000, 0.000000000000000000, 1.000000000000000000 ) ) ;
#96 = CIRCLE ( 'NONE', #70, 2.750000000000000000 ) ;
#97 = ORIENTED_EDGE ( 'NONE', *, *, #111, .F. ) ;
#98 = LINE ( 'NONE', #35, #200 ) ;
#99 = ORIENTED_EDGE ( 'NONE', *, *, #23, .T. ) ;
#100 = DIRECTION ( 'NONE',  ( -1.000000000000000000, 0.000000000000000000, 0.000000000000000000 ) ) ;
#101 = APPROVAL_PERSON_ORGANIZATION ( #65, #167, #184 ) ;
#102 = VERTEX_POINT ( 'NONE', #123 ) ;
#103 = ADVANCED_FACE ( 'NONE', ( #142 ), #45, .T. ) ;
#104 = PRODUCT ( 'HW-S_M3x30_socket_ENVELOPE', 'HW-S_M3x30_socket_ENVELOPE', '', ( #127 ) ) ;
#105 = CARTESIAN_POINT ( 'NONE',  ( 0.000000000000000000, 0.000000000000000000, 0.000000000000000000 ) ) ;
#106 = AXIS2_PLACEMENT_3D ( 'NONE', #33, #121, #226 ) ;
#107 = APPROVAL_STATUS ( 'not_yet_approved' ) ;
#108 = PERSON_AND_ORGANIZATION_ROLE ( 'design_owner' ) ;
#109 = AXIS2_PLACEMENT_3D ( 'NONE', #174, #177, #178 ) ;
#110 = COORDINATED_UNIVERSAL_TIME_OFFSET ( 6, 0, .BEHIND. ) ;
#111 = EDGE_CURVE ( 'NONE', #230, #189, #243, .T. ) ;
#112 = DIRECTION ( 'NONE',  ( -0.000000000000000000, -0.000000000000000000, -1.000000000000000000 ) ) ;
#113 = AXIS2_PLACEMENT_3D ( 'NONE', #122, #26, #46 ) ;
#114 = DIRECTION ( 'NONE',  ( 0.000000000000000000, 0.000000000000000000, 1.000000000000000000 ) ) ;
#115 = ORIENTED_EDGE ( 'NONE', *, *, #168, .F. ) ;
#116 = LOCAL_TIME ( 22, 41, 22.00000000000000000, #219 ) ;
#117 = FACE_OUTER_BOUND ( 'NONE', #55, .T. ) ;
#118 = PRODUCT_DEFINITION ( 'UNKNOWN', '', #42, #2 ) ;
#119 = CARTESIAN_POINT ( 'NONE',  ( 0.000000000000000000, 0.000000000000000000, -30.00000000000000000 ) ) ;
#120 = CIRCLE ( 'NONE', #182, 1.500000000000000000 ) ;
#121 = DIRECTION ( 'NONE',  ( 0.000000000000000000, 0.000000000000000000, 1.000000000000000000 ) ) ;
#122 = CARTESIAN_POINT ( 'NONE',  ( 0.000000000000000000, 0.000000000000000000, 3.000000000000000000 ) ) ;
#123 = CARTESIAN_POINT ( 'NONE',  ( 2.750000000000000000, 3.367778697655221012E-16, 0.000000000000000000 ) ) ;
#124 = PERSON_AND_ORGANIZATION_ROLE ( 'creator' ) ;
#125 = APPROVAL_DATE_TIME ( #87, #167 ) ;
#126 = PRODUCT_RELATED_PRODUCT_CATEGORY ( 'detail', '', ( #104 ) ) ;
#127 = MECHANICAL_CONTEXT ( 'NONE', #81, 'mechanical' ) ;
#128 = ADVANCED_BREP_SHAPE_REPRESENTATION ( 'HW-S_M3x30_socket_ENVELOPE', ( #175, #206 ), #252 ) ;
#129 = DIRECTION ( 'NONE',  ( 1.000000000000000000, 0.000000000000000000, 0.000000000000000000 ) ) ;
#130 = EDGE_LOOP ( 'NONE', ( #221, #19, #44, #207 ) ) ;
#131 = CARTESIAN_POINT ( 'NONE',  ( 0.000000000000000000, 0.000000000000000000, 3.000000000000000000 ) ) ;
#132 = EDGE_LOOP ( 'NONE', ( #99, #21 ) ) ;
#133 = EDGE_CURVE ( 'NONE', #51, #102, #250, .T. ) ;
#134 = EDGE_LOOP ( 'NONE', ( #211, #193 ) ) ;
#135 = CIRCLE ( 'NONE', #52, 1.500000000000000000 ) ;
#136 = CARTESIAN_POINT ( 'NONE',  ( 0.000000000000000000, 0.000000000000000000, -30.00000000000000000 ) ) ;
#137 = DIRECTION ( 'NONE',  ( -1.000000000000000000, 0.000000000000000000, 0.000000000000000000 ) ) ;
#138 = DIRECTION ( 'NONE',  ( 1.000000000000000000, 0.000000000000000000, 0.000000000000000000 ) ) ;
#139 = ORIENTED_EDGE ( 'NONE', *, *, #91, .F. ) ;
#140 =( NAMED_UNIT ( * ) PLANE_ANGLE_UNIT ( ) SI_UNIT ( $, .RADIAN. ) );
#141 = ORIENTED_EDGE ( 'NONE', *, *, #86, .F. ) ;
#142 = FACE_OUTER_BOUND ( 'NONE', #130, .T. ) ;
#143 = CALENDAR_DATE ( 2026, 7, 9 ) ;
#144 = DATE_AND_TIME ( #8, #227 ) ;
#145 = SHAPE_DEFINITION_REPRESENTATION ( #233, #128 ) ;
#146 = LOCAL_TIME ( 22, 41, 22.00000000000000000, #181 ) ;
#147 = ORIENTED_EDGE ( 'NONE', *, *, #54, .F. ) ;
#148 = VERTEX_POINT ( 'NONE', #22 ) ;
#149 = AXIS2_PLACEMENT_3D ( 'NONE', #192, #95, #150 ) ;
#150 = DIRECTION ( 'NONE',  ( 1.000000000000000000, 0.000000000000000000, 0.000000000000000000 ) ) ;
#151 = DIRECTION ( 'NONE',  ( 1.000000000000000000, 0.000000000000000000, 0.000000000000000000 ) ) ;
#152 = ORIENTED_EDGE ( 'NONE', *, *, #13, .F. ) ;
#153 = CARTESIAN_POINT ( 'NONE',  ( 0.000000000000000000, 0.000000000000000000, 3.000000000000000000 ) ) ;
#154 = DIRECTION ( 'NONE',  ( -0.000000000000000000, -0.000000000000000000, -1.000000000000000000 ) ) ;
#155 = CARTESIAN_POINT ( 'NONE',  ( -2.750000000000000000, 0.000000000000000000, 3.000000000000000000 ) ) ;
#156 = VECTOR ( 'NONE', #82, 1000.000000000000000 ) ;
#157 = CARTESIAN_POINT ( 'NONE',  ( 0.000000000000000000, 0.000000000000000000, 0.000000000000000000 ) ) ;
#158 = APPROVAL_STATUS ( 'not_yet_approved' ) ;
#159 = CC_DESIGN_DATE_AND_TIME_ASSIGNMENT ( #144, #235, ( #201 ) ) ;
#160 = PERSON_AND_ORGANIZATION ( #9, #76 ) ;
#161 = AXIS2_PLACEMENT_3D ( 'NONE', #131, #73, #129 ) ;
#162 = CALENDAR_DATE ( 2026, 7, 9 ) ;
#163 = DATE_AND_TIME ( #66, #146 ) ;
#164 = APPROVAL_STATUS ( 'not_yet_approved' ) ;
#165 = VERTEX_POINT ( 'NONE', #155 ) ;
#166 = ORIENTED_EDGE ( 'NONE', *, *, #133, .T. ) ;
#167 = APPROVAL ( #107, 'UNSPECIFIED' ) ;
#168 = EDGE_CURVE ( 'NONE', #15, #148, #135, .T. ) ;
#169 = FACE_OUTER_BOUND ( 'NONE', #39, .T. ) ;
#170 = AXIS2_PLACEMENT_3D ( 'NONE', #157, #20, #100 ) ;
#171 = CARTESIAN_POINT ( 'NONE',  ( 1.500000000000000000, 1.836970198721029934E-16, 0.000000000000000000 ) ) ;
#172 = CC_DESIGN_APPROVAL ( #3, ( #201 ) ) ;
#173 = ORIENTED_EDGE ( 'NONE', *, *, #64, .F. ) ;
#174 = CARTESIAN_POINT ( 'NONE',  ( 0.000000000000000000, 0.000000000000000000, 0.000000000000000000 ) ) ;
#175 = MANIFOLD_SOLID_BREP ( 'Socket_head_envelope', #84 ) ;
#176 = FACE_OUTER_BOUND ( 'NONE', #209, .T. ) ;
#177 = DIRECTION ( 'NONE',  ( -0.000000000000000000, -0.000000000000000000, -1.000000000000000000 ) ) ;
#178 = DIRECTION ( 'NONE',  ( -1.000000000000000000, 0.000000000000000000, 0.000000000000000000 ) ) ;
#179 = VECTOR ( 'NONE', #56, 1000.000000000000000 ) ;
#180 = APPROVAL_PERSON_ORGANIZATION ( #241, #3, #68 ) ;
#181 = COORDINATED_UNIVERSAL_TIME_OFFSET ( 6, 0, .BEHIND. ) ;
#182 = AXIS2_PLACEMENT_3D ( 'NONE', #136, #24, #60 ) ;
#183 = CC_DESIGN_SECURITY_CLASSIFICATION ( #201, ( #42 ) ) ;
#184 = APPROVAL_ROLE ( '' ) ;
#185 = PERSON_AND_ORGANIZATION ( #9, #76 ) ;
#186 = UNCERTAINTY_MEASURE_WITH_UNIT (LENGTH_MEASURE( 1.000000000000000082E-05 ), #83, 'distance_accuracy_value', 'NONE');
#187 = ADVANCED_FACE ( 'NONE', ( #62 ), #196, .T. ) ;
#188 = CARTESIAN_POINT ( 'NONE',  ( 0.000000000000000000, 0.000000000000000000, -30.00000000000000000 ) ) ;
#189 = VERTEX_POINT ( 'NONE', #197 ) ;
#190 = ORIENTED_EDGE ( 'NONE', *, *, #217, .F. ) ;
#191 = ORIENTED_EDGE ( 'NONE', *, *, #217, .T. ) ;
#192 = CARTESIAN_POINT ( 'NONE',  ( 0.000000000000000000, 0.000000000000000000, 0.000000000000000000 ) ) ;
#193 = ORIENTED_EDGE ( 'NONE', *, *, #29, .T. ) ;
#194 = PLANE ( 'NONE',  #10 ) ;
#195 = VERTEX_POINT ( 'NONE', #59 ) ;
#196 = CYLINDRICAL_SURFACE ( 'NONE', #109, 1.500000000000000000 ) ;
#197 = CARTESIAN_POINT ( 'NONE',  ( 1.500000000000000000, 1.836970198721029934E-16, 0.000000000000000000 ) ) ;
#198 = ADVANCED_FACE ( 'NONE', ( #254 ), #194, .T. ) ;
#199 = DIRECTION ( 'NONE',  ( 0.000000000000000000, 0.000000000000000000, 1.000000000000000000 ) ) ;
#200 = VECTOR ( 'NONE', #112, 1000.000000000000000 ) ;
#201 = SECURITY_CLASSIFICATION ( '', '', #240 ) ;
#202 = COORDINATED_UNIVERSAL_TIME_OFFSET ( 6, 0, .BEHIND. ) ;
#203 = PERSON_AND_ORGANIZATION ( #9, #76 ) ;
#204 = DATE_AND_TIME ( #162, #116 ) ;
#205 = CARTESIAN_POINT ( 'NONE',  ( -2.750000000000000000, 0.000000000000000000, 3.000000000000000000 ) ) ;
#206 = AXIS2_PLACEMENT_3D ( 'NONE', #105, #85, #28 ) ;
#207 = ORIENTED_EDGE ( 'NONE', *, *, #13, .T. ) ;
#208 = LINE ( 'NONE', #205, #14 ) ;
#209 = EDGE_LOOP ( 'NONE', ( #173, #166, #30, #141 ) ) ;
#210 = CIRCLE ( 'NONE', #161, 2.750000000000000000 ) ;
#211 = ORIENTED_EDGE ( 'NONE', *, *, #111, .T. ) ;
#212 = CARTESIAN_POINT ( 'NONE',  ( -1.500000000000000000, 0.000000000000000000, 0.000000000000000000 ) ) ;
#213 = FACE_OUTER_BOUND ( 'NONE', #224, .T. ) ;
#214 = CIRCLE ( 'NONE', #106, 2.750000000000000000 ) ;
#215 = CC_DESIGN_APPROVAL ( #16, ( #42 ) ) ;
#216 = PERSON_AND_ORGANIZATION ( #9, #76 ) ;
#217 = EDGE_CURVE ( 'NONE', #148, #15, #120, .T. ) ;
#218 = AXIS2_PLACEMENT_3D ( 'NONE', #50, #36, #11 ) ;
#219 = COORDINATED_UNIVERSAL_TIME_OFFSET ( 6, 0, .BEHIND. ) ;
#220 = CARTESIAN_POINT ( 'NONE',  ( 0.000000000000000000, 0.000000000000000000, 0.000000000000000000 ) ) ;
#221 = ORIENTED_EDGE ( 'NONE', *, *, #133, .F. ) ;
#222 = CIRCLE ( 'NONE', #149, 1.500000000000000000 ) ;
#223 = PLANE ( 'NONE',  #34 ) ;
#224 = EDGE_LOOP ( 'NONE', ( #147, #97, #232, #74 ) ) ;
#225 = ORIENTED_EDGE ( 'NONE', *, *, #54, .T. ) ;
#226 = DIRECTION ( 'NONE',  ( 1.000000000000000000, 0.000000000000000000, 0.000000000000000000 ) ) ;
#227 = LOCAL_TIME ( 22, 41, 22.00000000000000000, #202 ) ;
#228 = CC_DESIGN_PERSON_AND_ORGANIZATION_ASSIGNMENT ( #185, #1, ( #201 ) ) ;
#229 = CARTESIAN_POINT ( 'NONE',  ( 2.750000000000000000, 3.367778697655221012E-16, 3.000000000000000000 ) ) ;
#230 = VERTEX_POINT ( 'NONE', #212 ) ;
#231 = DIRECTION ( 'NONE',  ( 1.000000000000000000, 0.000000000000000000, -0.000000000000000000 ) ) ;
#232 = ORIENTED_EDGE ( 'NONE', *, *, #27, .T. ) ;
#233 = PRODUCT_DEFINITION_SHAPE ( 'NONE', 'NONE',  #118 ) ;
#234 = DIRECTION ( 'NONE',  ( 0.000000000000000000, 0.000000000000000000, 1.000000000000000000 ) ) ;
#235 = DATE_TIME_ROLE ( 'classification_date' ) ;
#236 = DATE_TIME_ROLE ( 'creation_date' ) ;
#237 = LOCAL_TIME ( 22, 41, 22.00000000000000000, #110 ) ;
#238 = PERSON_AND_ORGANIZATION ( #9, #76 ) ;
#239 = ADVANCED_FACE ( 'NONE', ( #213 ), #40, .T. ) ;
#240 = SECURITY_CLASSIFICATION_LEVEL ( 'unclassified' ) ;
#241 = PERSON_AND_ORGANIZATION ( #9, #76 ) ;
#242 = CC_DESIGN_PERSON_AND_ORGANIZATION_ASSIGNMENT ( #238, #67, ( #42 ) ) ;
#243 = CIRCLE ( 'NONE', #6, 1.500000000000000000 ) ;
#244 = DIRECTION ( 'NONE',  ( 1.000000000000000000, 0.000000000000000000, -0.000000000000000000 ) ) ;
#245 = ORIENTED_EDGE ( 'NONE', *, *, #29, .F. ) ;
#246 = CARTESIAN_POINT ( 'NONE',  ( 2.750000000000000000, 3.367778697655221012E-16, 3.000000000000000000 ) ) ;
#247 = DIRECTION ( 'NONE',  ( -0.000000000000000000, -0.000000000000000000, -1.000000000000000000 ) ) ;
#248 = ADVANCED_FACE ( 'NONE', ( #176 ), #253, .T. ) ;
#249 = CARTESIAN_POINT ( 'NONE',  ( -1.500000000000000000, 0.000000000000000000, -30.00000000000000000 ) ) ;
#250 = LINE ( 'NONE', #229, #156 ) ;
#251 = CC_DESIGN_PERSON_AND_ORGANIZATION_ASSIGNMENT ( #203, #124, ( #42 ) ) ;
#252 =( GEOMETRIC_REPRESENTATION_CONTEXT ( 3 ) GLOBAL_UNCERTAINTY_ASSIGNED_CONTEXT ( ( #186 ) ) GLOBAL_UNIT_ASSIGNED_CONTEXT ( ( #83, #140, #63 ) ) REPRESENTATION_CONTEXT ( 'NONE', 'WORKASPACE' ) );
#253 = CYLINDRICAL_SURFACE ( 'NONE', #5, 2.750000000000000000 ) ;
#254 = FACE_OUTER_BOUND ( 'NONE', #132, .T. ) ;
#255 = CARTESIAN_POINT ( 'NONE',  ( 0.000000000000000000, 0.000000000000000000, 0.000000000000000000 ) ) ;
ENDSEC;
END-ISO-10303-21;
