ISO-10303-21;
HEADER;
FILE_DESCRIPTION (( 'STEP AP203' ),
    '1' );
FILE_NAME ('HW-S_M3x16_socket_ENVELOPE.step',
    '2026-09-08T03:41:13',
    ( '' ),
    ( '' ),
    'SwSTEP 2.0',
    'SolidWorks 2026',
    '' );
FILE_SCHEMA (( 'CONFIG_CONTROL_DESIGN' ));
ENDSEC;

DATA;
#1 = CYLINDRICAL_SURFACE ( 'NONE', #76, 2.750000000000000000 ) ;
#2 = CARTESIAN_POINT ( 'NONE',  ( 0.000000000000000000, 0.000000000000000000, 3.000000000000000000 ) ) ;
#3 = CC_DESIGN_PERSON_AND_ORGANIZATION_ASSIGNMENT ( #188, #171, ( #251 ) ) ;
#4 = LINE ( 'NONE', #165, #49 ) ;
#5 = CARTESIAN_POINT ( 'NONE',  ( 1.500000000000000000, 1.836970198721029934E-16, -16.00000000000000000 ) ) ;
#6 = CIRCLE ( 'NONE', #238, 1.500000000000000000 ) ;
#7 =( NAMED_UNIT ( * ) PLANE_ANGLE_UNIT ( ) SI_UNIT ( $, .RADIAN. ) );
#8 = COORDINATED_UNIVERSAL_TIME_OFFSET ( 6, 0, .BEHIND. ) ;
#9 = ADVANCED_FACE ( 'NONE', ( #33 ), #78, .T. ) ;
#10 = ORIENTED_EDGE ( 'NONE', *, *, #153, .F. ) ;
#11 = AXIS2_PLACEMENT_3D ( 'NONE', #119, #197, #20 ) ;
#12 = APPROVAL_ROLE ( '' ) ;
#13 = PRODUCT_DEFINITION_SHAPE ( 'NONE', 'NONE',  #251 ) ;
#14 = CC_DESIGN_SECURITY_CLASSIFICATION ( #79, ( #74 ) ) ;
#15 = ORIENTED_EDGE ( 'NONE', *, *, #153, .T. ) ;
#16 = APPROVAL_STATUS ( 'not_yet_approved' ) ;
#17 = PRODUCT ( 'HW-S_M3x16_socket_ENVELOPE', 'HW-S_M3x16_socket_ENVELOPE', '', ( #232 ) ) ;
#18 = EDGE_CURVE ( 'NONE', #113, #253, #70, .T. ) ;
#19 = PLANE ( 'NONE',  #234 ) ;
#20 = DIRECTION ( 'NONE',  ( 1.000000000000000000, 0.000000000000000000, 0.000000000000000000 ) ) ;
#21 = CARTESIAN_POINT ( 'NONE',  ( 0.000000000000000000, 0.000000000000000000, 0.000000000000000000 ) ) ;
#22 = CARTESIAN_POINT ( 'NONE',  ( -1.500000000000000000, 0.000000000000000000, 0.000000000000000000 ) ) ;
#23 = FACE_OUTER_BOUND ( 'NONE', #152, .T. ) ;
#24 = CARTESIAN_POINT ( 'NONE',  ( 2.750000000000000000, 3.367778697655221012E-16, 0.000000000000000000 ) ) ;
#25 = LINE ( 'NONE', #61, #218 ) ;
#26 = APPROVAL_STATUS ( 'not_yet_approved' ) ;
#27 = APPROVAL_DATE_TIME ( #170, #120 ) ;
#28 = VECTOR ( 'NONE', #62, 1000.000000000000000 ) ;
#29 = APPROVAL_DATE_TIME ( #209, #77 ) ;
#30 = PERSON_AND_ORGANIZATION ( #242, #224 ) ;
#31 = CC_DESIGN_APPROVAL ( #120, ( #251 ) ) ;
#32 = APPROVAL_ROLE ( '' ) ;
#33 = FACE_OUTER_BOUND ( 'NONE', #174, .T. ) ;
#34 = DIRECTION ( 'NONE',  ( 1.000000000000000000, 0.000000000000000000, 0.000000000000000000 ) ) ;
#35 = FACE_BOUND ( 'NONE', #182, .T. ) ;
#36 = ADVANCED_FACE ( 'NONE', ( #116 ), #19, .T. ) ;
#37 = DIRECTION ( 'NONE',  ( 1.000000000000000000, 0.000000000000000000, -0.000000000000000000 ) ) ;
#38 = CARTESIAN_POINT ( 'NONE',  ( 0.000000000000000000, 0.000000000000000000, -16.00000000000000000 ) ) ;
#39 = DIRECTION ( 'NONE',  ( -0.000000000000000000, -0.000000000000000000, -1.000000000000000000 ) ) ;
#40 = AXIS2_PLACEMENT_3D ( 'NONE', #221, #183, #63 ) ;
#41 = CARTESIAN_POINT ( 'NONE',  ( -1.500000000000000000, 0.000000000000000000, -16.00000000000000000 ) ) ;
#42 = CARTESIAN_POINT ( 'NONE',  ( 0.000000000000000000, 0.000000000000000000, 0.000000000000000000 ) ) ;
#43 = CARTESIAN_POINT ( 'NONE',  ( 1.500000000000000000, 1.836970198721029934E-16, 0.000000000000000000 ) ) ;
#44 = ADVANCED_FACE ( 'NONE', ( #35, #80 ), #196, .F. ) ;
#45 = FACE_OUTER_BOUND ( 'NONE', #97, .T. ) ;
#46 = CIRCLE ( 'NONE', #252, 2.750000000000000000 ) ;
#47 = CALENDAR_DATE ( 2026, 7, 9 ) ;
#48 = EDGE_LOOP ( 'NONE', ( #72, #156 ) ) ;
#49 = VECTOR ( 'NONE', #144, 1000.000000000000000 ) ;
#50 = DIRECTION ( 'NONE',  ( 0.000000000000000000, 0.000000000000000000, 1.000000000000000000 ) ) ;
#51 = APPROVAL_ROLE ( '' ) ;
#52 =( NAMED_UNIT ( * ) SI_UNIT ( $, .STERADIAN. ) SOLID_ANGLE_UNIT ( ) );
#53 = CARTESIAN_POINT ( 'NONE',  ( 0.000000000000000000, 0.000000000000000000, 0.000000000000000000 ) ) ;
#54 = LOCAL_TIME ( 22, 41, 13.00000000000000000, #8 ) ;
#55 = ORIENTED_EDGE ( 'NONE', *, *, #223, .F. ) ;
#56 = AXIS2_PLACEMENT_3D ( 'NONE', #38, #254, #34 ) ;
#57 = ORIENTED_EDGE ( 'NONE', *, *, #142, .T. ) ;
#58 = DIRECTION ( 'NONE',  ( -0.000000000000000000, -0.000000000000000000, -1.000000000000000000 ) ) ;
#59 = APPLICATION_CONTEXT ( 'configuration controlled 3d designs of mechanical parts and assemblies' ) ;
#60 = EDGE_CURVE ( 'NONE', #109, #92, #123, .T. ) ;
#61 = CARTESIAN_POINT ( 'NONE',  ( -1.500000000000000000, 0.000000000000000000, 0.000000000000000000 ) ) ;
#62 = DIRECTION ( 'NONE',  ( -0.000000000000000000, -0.000000000000000000, -1.000000000000000000 ) ) ;
#63 = DIRECTION ( 'NONE',  ( 1.000000000000000000, 0.000000000000000000, 0.000000000000000000 ) ) ;
#64 = PERSON_AND_ORGANIZATION_ROLE ( 'design_supplier' ) ;
#65 = CLOSED_SHELL ( 'NONE', ( #138, #9, #195, #117, #100, #36, #44 ) ) ;
#66 = PERSON_AND_ORGANIZATION_ROLE ( 'creator' ) ;
#67 = CALENDAR_DATE ( 2026, 7, 9 ) ;
#68 = VERTEX_POINT ( 'NONE', #96 ) ;
#69 = ORIENTED_EDGE ( 'NONE', *, *, #169, .T. ) ;
#70 = CIRCLE ( 'NONE', #56, 1.500000000000000000 ) ;
#71 = DATE_AND_TIME ( #47, #91 ) ;
#72 = ORIENTED_EDGE ( 'NONE', *, *, #187, .T. ) ;
#73 = CC_DESIGN_DATE_AND_TIME_ASSIGNMENT ( #112, #189, ( #251 ) ) ;
#74 = PRODUCT_DEFINITION_FORMATION_WITH_SPECIFIED_SOURCE ( 'ANY', '', #17, .NOT_KNOWN. ) ;
#75 = ORIENTED_EDGE ( 'NONE', *, *, #60, .F. ) ;
#76 = AXIS2_PLACEMENT_3D ( 'NONE', #240, #39, #129 ) ;
#77 = APPROVAL ( #26, 'UNSPECIFIED' ) ;
#78 = CYLINDRICAL_SURFACE ( 'NONE', #180, 1.500000000000000000 ) ;
#79 = SECURITY_CLASSIFICATION ( '', '', #148 ) ;
#80 = FACE_OUTER_BOUND ( 'NONE', #213, .T. ) ;
#81 = DIRECTION ( 'NONE',  ( 1.000000000000000000, 0.000000000000000000, 0.000000000000000000 ) ) ;
#82 = LINE ( 'NONE', #43, #28 ) ;
#83 = LOCAL_TIME ( 22, 41, 13.00000000000000000, #133 ) ;
#84 = CYLINDRICAL_SURFACE ( 'NONE', #229, 1.500000000000000000 ) ;
#85 = DIRECTION ( 'NONE',  ( 0.000000000000000000, 0.000000000000000000, 1.000000000000000000 ) ) ;
#86 = AXIS2_PLACEMENT_3D ( 'NONE', #21, #140, #168 ) ;
#87 = APPROVAL_STATUS ( 'not_yet_approved' ) ;
#88 = DIRECTION ( 'NONE',  ( 1.000000000000000000, 0.000000000000000000, 0.000000000000000000 ) ) ;
#89 = ADVANCED_BREP_SHAPE_REPRESENTATION ( 'HW-S_M3x16_socket_ENVELOPE', ( #199, #206 ), #163 ) ;
#90 = CALENDAR_DATE ( 2026, 7, 9 ) ;
#91 = LOCAL_TIME ( 22, 41, 13.00000000000000000, #150 ) ;
#92 = VERTEX_POINT ( 'NONE', #22 ) ;
#93 = EDGE_CURVE ( 'NONE', #68, #250, #157, .T. ) ;
#94 = ORIENTED_EDGE ( 'NONE', *, *, #181, .T. ) ;
#95 = LOCAL_TIME ( 22, 41, 13.00000000000000000, #173 ) ;
#96 = CARTESIAN_POINT ( 'NONE',  ( 2.750000000000000000, 3.367778697655221012E-16, 3.000000000000000000 ) ) ;
#97 = EDGE_LOOP ( 'NONE', ( #190, #69, #15, #55 ) ) ;
#98 = DIRECTION ( 'NONE',  ( 1.000000000000000000, 0.000000000000000000, -0.000000000000000000 ) ) ;
#99 = DIRECTION ( 'NONE',  ( -1.000000000000000000, 0.000000000000000000, 0.000000000000000000 ) ) ;
#100 = ADVANCED_FACE ( 'NONE', ( #226 ), #101, .T. ) ;
#101 = CYLINDRICAL_SURFACE ( 'NONE', #118, 2.750000000000000000 ) ;
#102 = CARTESIAN_POINT ( 'NONE',  ( 1.500000000000000000, 1.836970198721029934E-16, 0.000000000000000000 ) ) ;
#103 = DIRECTION ( 'NONE',  ( 1.000000000000000000, 0.000000000000000000, 0.000000000000000000 ) ) ;
#104 = CC_DESIGN_APPROVAL ( #77, ( #79 ) ) ;
#105 = EDGE_CURVE ( 'NONE', #92, #113, #25, .T. ) ;
#106 = DATE_AND_TIME ( #90, #54 ) ;
#107 = CIRCLE ( 'NONE', #128, 1.500000000000000000 ) ;
#108 = SHAPE_DEFINITION_REPRESENTATION ( #13, #89 ) ;
#109 = VERTEX_POINT ( 'NONE', #102 ) ;
#110 = APPROVAL_PERSON_ORGANIZATION ( #191, #77, #51 ) ;
#111 = PRODUCT_RELATED_PRODUCT_CATEGORY ( 'detail', '', ( #17 ) ) ;
#112 = DATE_AND_TIME ( #67, #95 ) ;
#113 = VERTEX_POINT ( 'NONE', #41 ) ;
#114 = DIRECTION ( 'NONE',  ( 0.000000000000000000, 0.000000000000000000, 1.000000000000000000 ) ) ;
#115 = APPROVAL_PERSON_ORGANIZATION ( #30, #120, #12 ) ;
#116 = FACE_OUTER_BOUND ( 'NONE', #48, .T. ) ;
#117 = ADVANCED_FACE ( 'NONE', ( #23 ), #241, .F. ) ;
#118 = AXIS2_PLACEMENT_3D ( 'NONE', #2, #186, #99 ) ;
#119 = CARTESIAN_POINT ( 'NONE',  ( 0.000000000000000000, 0.000000000000000000, 0.000000000000000000 ) ) ;
#120 = APPROVAL ( #87, 'UNSPECIFIED' ) ;
#121 = CC_DESIGN_APPROVAL ( #208, ( #74 ) ) ;
#122 = DIRECTION ( 'NONE',  ( 0.000000000000000000, 0.000000000000000000, 1.000000000000000000 ) ) ;
#123 = CIRCLE ( 'NONE', #11, 1.500000000000000000 ) ;
#124 = CARTESIAN_POINT ( 'NONE',  ( 0.000000000000000000, 0.000000000000000000, 0.000000000000000000 ) ) ;
#125 = CC_DESIGN_DATE_AND_TIME_ASSIGNMENT ( #71, #205, ( #79 ) ) ;
#126 = CARTESIAN_POINT ( 'NONE',  ( 2.750000000000000000, 3.367778697655221012E-16, 3.000000000000000000 ) ) ;
#127 = DIRECTION ( 'NONE',  ( 1.000000000000000000, 0.000000000000000000, 0.000000000000000000 ) ) ;
#128 = AXIS2_PLACEMENT_3D ( 'NONE', #204, #141, #127 ) ;
#129 = DIRECTION ( 'NONE',  ( -1.000000000000000000, 0.000000000000000000, 0.000000000000000000 ) ) ;
#130 = APPLICATION_PROTOCOL_DEFINITION ( 'international standard', 'config_control_design', 1994, #59 ) ;
#131 = ORIENTED_EDGE ( 'NONE', *, *, #210, .F. ) ;
#132 = LOCAL_TIME ( 22, 41, 13.00000000000000000, #245 ) ;
#133 = COORDINATED_UNIVERSAL_TIME_OFFSET ( 6, 0, .BEHIND. ) ;
#134 = CIRCLE ( 'NONE', #166, 2.750000000000000000 ) ;
#135 = ORIENTED_EDGE ( 'NONE', *, *, #147, .T. ) ;
#136 = ORIENTED_EDGE ( 'NONE', *, *, #187, .F. ) ;
#137 = AXIS2_PLACEMENT_3D ( 'NONE', #220, #146, #98 ) ;
#138 = ADVANCED_FACE ( 'NONE', ( #45 ), #1, .T. ) ;
#139 = DIRECTION ( 'NONE',  ( -0.000000000000000000, -0.000000000000000000, -1.000000000000000000 ) ) ;
#140 = DIRECTION ( 'NONE',  ( 0.000000000000000000, 0.000000000000000000, 1.000000000000000000 ) ) ;
#141 = DIRECTION ( 'NONE',  ( 0.000000000000000000, 0.000000000000000000, 1.000000000000000000 ) ) ;
#142 = EDGE_CURVE ( 'NONE', #92, #109, #6, .T. ) ;
#143 = VECTOR ( 'NONE', #225, 1000.000000000000000 ) ;
#144 = DIRECTION ( 'NONE',  ( -0.000000000000000000, -0.000000000000000000, -1.000000000000000000 ) ) ;
#145 = LINE ( 'NONE', #126, #143 ) ;
#146 = DIRECTION ( 'NONE',  ( 0.000000000000000000, 0.000000000000000000, 1.000000000000000000 ) ) ;
#147 = EDGE_CURVE ( 'NONE', #253, #113, #107, .T. ) ;
#148 = SECURITY_CLASSIFICATION_LEVEL ( 'unclassified' ) ;
#149 = DESIGN_CONTEXT ( 'detailed design', #184, 'design' ) ;
#150 = COORDINATED_UNIVERSAL_TIME_OFFSET ( 6, 0, .BEHIND. ) ;
#151 = PERSON_AND_ORGANIZATION ( #242, #224 ) ;
#152 = EDGE_LOOP ( 'NONE', ( #198, #192 ) ) ;
#153 = EDGE_CURVE ( 'NONE', #214, #230, #46, .T. ) ;
#154 = PERSON_AND_ORGANIZATION ( #242, #224 ) ;
#155 = CALENDAR_DATE ( 2026, 7, 9 ) ;
#156 = ORIENTED_EDGE ( 'NONE', *, *, #93, .T. ) ;
#157 = CIRCLE ( 'NONE', #40, 2.750000000000000000 ) ;
#158 = UNCERTAINTY_MEASURE_WITH_UNIT (LENGTH_MEASURE( 1.000000000000000082E-05 ), #167, 'distance_accuracy_value', 'NONE');
#159 = CARTESIAN_POINT ( 'NONE',  ( 0.000000000000000000, 0.000000000000000000, 0.000000000000000000 ) ) ;
#160 = DIRECTION ( 'NONE',  ( 0.000000000000000000, 0.000000000000000000, 1.000000000000000000 ) ) ;
#161 = ORIENTED_EDGE ( 'NONE', *, *, #60, .T. ) ;
#162 = DIRECTION ( 'NONE',  ( -0.000000000000000000, -0.000000000000000000, -1.000000000000000000 ) ) ;
#163 =( GEOMETRIC_REPRESENTATION_CONTEXT ( 3 ) GLOBAL_UNCERTAINTY_ASSIGNED_CONTEXT ( ( #158 ) ) GLOBAL_UNIT_ASSIGNED_CONTEXT ( ( #167, #7, #52 ) ) REPRESENTATION_CONTEXT ( 'NONE', 'WORKASPACE' ) );
#164 = DIRECTION ( 'NONE',  ( 1.000000000000000000, 0.000000000000000000, 0.000000000000000000 ) ) ;
#165 = CARTESIAN_POINT ( 'NONE',  ( -2.750000000000000000, 0.000000000000000000, 3.000000000000000000 ) ) ;
#166 = AXIS2_PLACEMENT_3D ( 'NONE', #203, #200, #164 ) ;
#167 =( LENGTH_UNIT ( ) NAMED_UNIT ( * ) SI_UNIT ( .MILLI., .METRE. ) );
#168 = DIRECTION ( 'NONE',  ( 1.000000000000000000, 0.000000000000000000, 0.000000000000000000 ) ) ;
#169 = EDGE_CURVE ( 'NONE', #68, #214, #145, .T. ) ;
#170 = DATE_AND_TIME ( #155, #132 ) ;
#171 = PERSON_AND_ORGANIZATION_ROLE ( 'creator' ) ;
#172 = CC_DESIGN_PERSON_AND_ORGANIZATION_ASSIGNMENT ( #227, #248, ( #79 ) ) ;
#173 = COORDINATED_UNIVERSAL_TIME_OFFSET ( 6, 0, .BEHIND. ) ;
#174 = EDGE_LOOP ( 'NONE', ( #75, #94, #135, #255 ) ) ;
#175 = CALENDAR_DATE ( 2026, 7, 9 ) ;
#176 = EDGE_LOOP ( 'NONE', ( #246, #235, #212, #179 ) ) ;
#177 = APPROVAL_DATE_TIME ( #106, #208 ) ;
#178 = ORIENTED_EDGE ( 'NONE', *, *, #169, .F. ) ;
#179 = ORIENTED_EDGE ( 'NONE', *, *, #18, .T. ) ;
#180 = AXIS2_PLACEMENT_3D ( 'NONE', #159, #139, #219 ) ;
#181 = EDGE_CURVE ( 'NONE', #109, #253, #82, .T. ) ;
#182 = EDGE_LOOP ( 'NONE', ( #57, #161 ) ) ;
#183 = DIRECTION ( 'NONE',  ( 0.000000000000000000, 0.000000000000000000, 1.000000000000000000 ) ) ;
#184 = APPLICATION_CONTEXT ( 'configuration controlled 3d designs of mechanical parts and assemblies' ) ;
#185 = DIRECTION ( 'NONE',  ( -1.000000000000000000, 0.000000000000000000, 0.000000000000000000 ) ) ;
#186 = DIRECTION ( 'NONE',  ( -0.000000000000000000, -0.000000000000000000, -1.000000000000000000 ) ) ;
#187 = EDGE_CURVE ( 'NONE', #250, #68, #134, .T. ) ;
#188 = PERSON_AND_ORGANIZATION ( #242, #224 ) ;
#189 = DATE_TIME_ROLE ( 'creation_date' ) ;
#190 = ORIENTED_EDGE ( 'NONE', *, *, #93, .F. ) ;
#191 = PERSON_AND_ORGANIZATION ( #242, #224 ) ;
#192 = ORIENTED_EDGE ( 'NONE', *, *, #147, .F. ) ;
#193 = APPLICATION_PROTOCOL_DEFINITION ( 'international standard', 'config_control_design', 1994, #184 ) ;
#194 = EDGE_LOOP ( 'NONE', ( #178, #136, #249, #233 ) ) ;
#195 = ADVANCED_FACE ( 'NONE', ( #239 ), #84, .T. ) ;
#196 = PLANE ( 'NONE',  #231 ) ;
#197 = DIRECTION ( 'NONE',  ( 0.000000000000000000, 0.000000000000000000, 1.000000000000000000 ) ) ;
#198 = ORIENTED_EDGE ( 'NONE', *, *, #18, .F. ) ;
#199 = MANIFOLD_SOLID_BREP ( 'Socket_head_envelope', #65 ) ;
#200 = DIRECTION ( 'NONE',  ( 0.000000000000000000, 0.000000000000000000, 1.000000000000000000 ) ) ;
#201 = CARTESIAN_POINT ( 'NONE',  ( 0.000000000000000000, 0.000000000000000000, 0.000000000000000000 ) ) ;
#202 = CARTESIAN_POINT ( 'NONE',  ( -2.750000000000000000, 0.000000000000000000, 3.000000000000000000 ) ) ;
#203 = CARTESIAN_POINT ( 'NONE',  ( 0.000000000000000000, 0.000000000000000000, 3.000000000000000000 ) ) ;
#204 = CARTESIAN_POINT ( 'NONE',  ( 0.000000000000000000, 0.000000000000000000, -16.00000000000000000 ) ) ;
#205 = DATE_TIME_ROLE ( 'classification_date' ) ;
#206 = AXIS2_PLACEMENT_3D ( 'NONE', #53, #50, #88 ) ;
#207 = PERSON_AND_ORGANIZATION_ROLE ( 'design_owner' ) ;
#208 = APPROVAL ( #16, 'UNSPECIFIED' ) ;
#209 = DATE_AND_TIME ( #175, #83 ) ;
#210 = EDGE_CURVE ( 'NONE', #230, #214, #237, .T. ) ;
#211 = PERSON_AND_ORGANIZATION ( #242, #224 ) ;
#212 = ORIENTED_EDGE ( 'NONE', *, *, #105, .T. ) ;
#213 = EDGE_LOOP ( 'NONE', ( #131, #10 ) ) ;
#214 = VERTEX_POINT ( 'NONE', #24 ) ;
#215 = CC_DESIGN_PERSON_AND_ORGANIZATION_ASSIGNMENT ( #211, #64, ( #74 ) ) ;
#216 = DIRECTION ( 'NONE',  ( 1.000000000000000000, 0.000000000000000000, -0.000000000000000000 ) ) ;
#217 = CARTESIAN_POINT ( 'NONE',  ( 0.000000000000000000, 0.000000000000000000, 0.000000000000000000 ) ) ;
#218 = VECTOR ( 'NONE', #162, 1000.000000000000000 ) ;
#219 = DIRECTION ( 'NONE',  ( -1.000000000000000000, 0.000000000000000000, 0.000000000000000000 ) ) ;
#220 = CARTESIAN_POINT ( 'NONE',  ( 0.000000000000000000, 0.000000000000000000, -16.00000000000000000 ) ) ;
#221 = CARTESIAN_POINT ( 'NONE',  ( 0.000000000000000000, 0.000000000000000000, 3.000000000000000000 ) ) ;
#222 = CARTESIAN_POINT ( 'NONE',  ( -2.750000000000000000, 0.000000000000000000, 0.000000000000000000 ) ) ;
#223 = EDGE_CURVE ( 'NONE', #250, #230, #4, .T. ) ;
#224 = ORGANIZATION ( 'UNSPECIFIED', 'UNSPECIFIED', '' ) ;
#225 = DIRECTION ( 'NONE',  ( -0.000000000000000000, -0.000000000000000000, -1.000000000000000000 ) ) ;
#226 = FACE_OUTER_BOUND ( 'NONE', #194, .T. ) ;
#227 = PERSON_AND_ORGANIZATION ( #242, #224 ) ;
#228 = CC_DESIGN_PERSON_AND_ORGANIZATION_ASSIGNMENT ( #244, #207, ( #17 ) ) ;
#229 = AXIS2_PLACEMENT_3D ( 'NONE', #201, #58, #185 ) ;
#230 = VERTEX_POINT ( 'NONE', #222 ) ;
#231 = AXIS2_PLACEMENT_3D ( 'NONE', #217, #160, #37 ) ;
#232 = MECHANICAL_CONTEXT ( 'NONE', #59, 'mechanical' ) ;
#233 = ORIENTED_EDGE ( 'NONE', *, *, #210, .T. ) ;
#234 = AXIS2_PLACEMENT_3D ( 'NONE', #236, #114, #216 ) ;
#235 = ORIENTED_EDGE ( 'NONE', *, *, #142, .F. ) ;
#236 = CARTESIAN_POINT ( 'NONE',  ( 0.000000000000000000, 0.000000000000000000, 3.000000000000000000 ) ) ;
#237 = CIRCLE ( 'NONE', #86, 2.750000000000000000 ) ;
#238 = AXIS2_PLACEMENT_3D ( 'NONE', #42, #85, #81 ) ;
#239 = FACE_OUTER_BOUND ( 'NONE', #176, .T. ) ;
#240 = CARTESIAN_POINT ( 'NONE',  ( 0.000000000000000000, 0.000000000000000000, 3.000000000000000000 ) ) ;
#241 = PLANE ( 'NONE',  #137 ) ;
#242 = PERSON ( 'UNSPECIFIED', 'UNSPECIFIED', 'UNSPECIFIED', ('UNSPECIFIED'), ('UNSPECIFIED'), ('UNSPECIFIED') ) ;
#243 = APPROVAL_PERSON_ORGANIZATION ( #151, #208, #32 ) ;
#244 = PERSON_AND_ORGANIZATION ( #242, #224 ) ;
#245 = COORDINATED_UNIVERSAL_TIME_OFFSET ( 6, 0, .BEHIND. ) ;
#246 = ORIENTED_EDGE ( 'NONE', *, *, #181, .F. ) ;
#247 = CC_DESIGN_PERSON_AND_ORGANIZATION_ASSIGNMENT ( #154, #66, ( #74 ) ) ;
#248 = PERSON_AND_ORGANIZATION_ROLE ( 'classification_officer' ) ;
#249 = ORIENTED_EDGE ( 'NONE', *, *, #223, .T. ) ;
#250 = VERTEX_POINT ( 'NONE', #202 ) ;
#251 = PRODUCT_DEFINITION ( 'UNKNOWN', '', #74, #149 ) ;
#252 = AXIS2_PLACEMENT_3D ( 'NONE', #124, #122, #103 ) ;
#253 = VERTEX_POINT ( 'NONE', #5 ) ;
#254 = DIRECTION ( 'NONE',  ( 0.000000000000000000, 0.000000000000000000, 1.000000000000000000 ) ) ;
#255 = ORIENTED_EDGE ( 'NONE', *, *, #105, .F. ) ;
ENDSEC;
END-ISO-10303-21;
