ISO-10303-21;
HEADER;
FILE_DESCRIPTION (( 'STEP AP203' ),
    '1' );
FILE_NAME ('HW-S_M3x45_socket_ENVELOPE.step',
    '2026-09-09T03:20:37',
    ( '' ),
    ( '' ),
    'SwSTEP 2.0',
    'SolidWorks 2026',
    '' );
FILE_SCHEMA (( 'CONFIG_CONTROL_DESIGN' ));
ENDSEC;

DATA;
#1 = ORIENTED_EDGE ( 'NONE', *, *, #216, .F. ) ;
#2 = ORIENTED_EDGE ( 'NONE', *, *, #32, .F. ) ;
#3 = EDGE_LOOP ( 'NONE', ( #100, #84, #201, #206 ) ) ;
#4 = EDGE_LOOP ( 'NONE', ( #1, #158, #42, #182 ) ) ;
#5 = DIRECTION ( 'NONE',  ( -0.000000000000000000, -0.000000000000000000, -1.000000000000000000 ) ) ;
#6 = FACE_OUTER_BOUND ( 'NONE', #223, .T. ) ;
#7 = CIRCLE ( 'NONE', #152, 1.500000000000000000 ) ;
#8 = DIRECTION ( 'NONE',  ( 1.000000000000000000, 0.000000000000000000, 0.000000000000000000 ) ) ;
#9 = DIRECTION ( 'NONE',  ( -1.000000000000000000, 0.000000000000000000, 0.000000000000000000 ) ) ;
#10 = APPROVAL ( #91, 'UNSPECIFIED' ) ;
#11 = CARTESIAN_POINT ( 'NONE',  ( 0.000000000000000000, 0.000000000000000000, 0.000000000000000000 ) ) ;
#12 = AXIS2_PLACEMENT_3D ( 'NONE', #246, #146, #52 ) ;
#13 = PERSON_AND_ORGANIZATION ( #176, #156 ) ;
#14 = CALENDAR_DATE ( 2026, 8, 9 ) ;
#15 = PERSON_AND_ORGANIZATION ( #176, #156 ) ;
#16 =( NAMED_UNIT ( * ) SI_UNIT ( $, .STERADIAN. ) SOLID_ANGLE_UNIT ( ) );
#17 = CC_DESIGN_PERSON_AND_ORGANIZATION_ASSIGNMENT ( #196, #178, ( #115 ) ) ;
#18 = LOCAL_TIME ( 22, 20, 37.00000000000000000, #232 ) ;
#19 = CARTESIAN_POINT ( 'NONE',  ( 0.000000000000000000, 0.000000000000000000, 3.000000000000000000 ) ) ;
#20 = ORIENTED_EDGE ( 'NONE', *, *, #32, .T. ) ;
#21 = ORIENTED_EDGE ( 'NONE', *, *, #124, .T. ) ;
#22 = CC_DESIGN_SECURITY_CLASSIFICATION ( #99, ( #60 ) ) ;
#23 = VERTEX_POINT ( 'NONE', #81 ) ;
#24 = ORIENTED_EDGE ( 'NONE', *, *, #80, .F. ) ;
#25 = APPROVAL_PERSON_ORGANIZATION ( #13, #83, #55 ) ;
#26 = MANIFOLD_SOLID_BREP ( 'Socket_head_envelope', #132 ) ;
#27 = PLANE ( 'NONE',  #133 ) ;
#28 = DIRECTION ( 'NONE',  ( 0.000000000000000000, 0.000000000000000000, 1.000000000000000000 ) ) ;
#29 = PLANE ( 'NONE',  #208 ) ;
#30 = ADVANCED_FACE ( 'NONE', ( #160 ), #64, .T. ) ;
#31 = DIRECTION ( 'NONE',  ( -0.000000000000000000, -0.000000000000000000, -1.000000000000000000 ) ) ;
#32 = EDGE_CURVE ( 'NONE', #43, #119, #202, .T. ) ;
#33 = MECHANICAL_CONTEXT ( 'NONE', #159, 'mechanical' ) ;
#34 = LOCAL_TIME ( 22, 20, 37.00000000000000000, #153 ) ;
#35 = APPROVAL_ROLE ( '' ) ;
#36 = EDGE_CURVE ( 'NONE', #136, #23, #234, .T. ) ;
#37 = CALENDAR_DATE ( 2026, 8, 9 ) ;
#38 = CALENDAR_DATE ( 2026, 8, 9 ) ;
#39 = EDGE_CURVE ( 'NONE', #119, #43, #7, .T. ) ;
#40 = VECTOR ( 'NONE', #31, 1000.000000000000000 ) ;
#41 = VERTEX_POINT ( 'NONE', #45 ) ;
#42 = ORIENTED_EDGE ( 'NONE', *, *, #148, .T. ) ;
#43 = VERTEX_POINT ( 'NONE', #96 ) ;
#44 = CARTESIAN_POINT ( 'NONE',  ( 0.000000000000000000, 0.000000000000000000, -45.00000000000000000 ) ) ;
#45 = CARTESIAN_POINT ( 'NONE',  ( -2.750000000000000000, 0.000000000000000000, 3.000000000000000000 ) ) ;
#46 = FACE_OUTER_BOUND ( 'NONE', #179, .T. ) ;
#48 = CIRCLE ( 'NONE', #112, 2.750000000000000000 ) ;
#47 = CC_DESIGN_DATE_AND_TIME_ASSIGNMENT ( #56, #127, ( #253 ) ) ;
#49 =( GEOMETRIC_REPRESENTATION_CONTEXT ( 3 ) GLOBAL_UNCERTAINTY_ASSIGNED_CONTEXT ( ( #94 ) ) GLOBAL_UNIT_ASSIGNED_CONTEXT ( ( #189, #106, #16 ) ) REPRESENTATION_CONTEXT ( 'NONE', 'WORKASPACE' ) );
#50 = DIRECTION ( 'NONE',  ( 1.000000000000000000, 0.000000000000000000, 0.000000000000000000 ) ) ;
#51 = CARTESIAN_POINT ( 'NONE',  ( -1.500000000000000000, 0.000000000000000000, 0.000000000000000000 ) ) ;
#52 = DIRECTION ( 'NONE',  ( 1.000000000000000000, 0.000000000000000000, 0.000000000000000000 ) ) ;
#53 = APPLICATION_CONTEXT ( 'configuration controlled 3d designs of mechanical parts and assemblies' ) ;
#54 = CALENDAR_DATE ( 2026, 8, 9 ) ;
#55 = APPROVAL_ROLE ( '' ) ;
#56 = DATE_AND_TIME ( #54, #255 ) ;
#57 = SHAPE_DEFINITION_REPRESENTATION ( #137, #199 ) ;
#58 = ADVANCED_FACE ( 'NONE', ( #111 ), #200, .T. ) ;
#59 = APPROVAL_ROLE ( '' ) ;
#60 = PRODUCT_DEFINITION_FORMATION_WITH_SPECIFIED_SOURCE ( 'ANY', '', #115, .NOT_KNOWN. ) ;
#61 = DIRECTION ( 'NONE',  ( -1.000000000000000000, 0.000000000000000000, 0.000000000000000000 ) ) ;
#62 = ORIENTED_EDGE ( 'NONE', *, *, #148, .F. ) ;
#63 = CIRCLE ( 'NONE', #230, 2.750000000000000000 ) ;
#64 = CYLINDRICAL_SURFACE ( 'NONE', #174, 2.750000000000000000 ) ;
#65 = PRODUCT_RELATED_PRODUCT_CATEGORY ( 'detail', '', ( #115 ) ) ;
#66 = VERTEX_POINT ( 'NONE', #181 ) ;
#67 = CARTESIAN_POINT ( 'NONE',  ( -2.750000000000000000, 0.000000000000000000, 0.000000000000000000 ) ) ;
#68 = APPROVAL_PERSON_ORGANIZATION ( #15, #10, #59 ) ;
#69 = DIRECTION ( 'NONE',  ( 1.000000000000000000, 0.000000000000000000, -0.000000000000000000 ) ) ;
#70 = DIRECTION ( 'NONE',  ( 0.000000000000000000, 0.000000000000000000, 1.000000000000000000 ) ) ;
#71 = CARTESIAN_POINT ( 'NONE',  ( 0.000000000000000000, 0.000000000000000000, 3.000000000000000000 ) ) ;
#72 = APPROVAL_STATUS ( 'not_yet_approved' ) ;
#73 = SECURITY_CLASSIFICATION_LEVEL ( 'unclassified' ) ;
#74 = DIRECTION ( 'NONE',  ( 0.000000000000000000, 0.000000000000000000, 1.000000000000000000 ) ) ;
#75 = PERSON_AND_ORGANIZATION ( #176, #156 ) ;
#76 = PERSON_AND_ORGANIZATION_ROLE ( 'creator' ) ;
#77 = EDGE_CURVE ( 'NONE', #41, #136, #121, .T. ) ;
#78 = ORIENTED_EDGE ( 'NONE', *, *, #113, .T. ) ;
#79 = EDGE_LOOP ( 'NONE', ( #78, #140 ) ) ;
#80 = EDGE_CURVE ( 'NONE', #164, #238, #105, .T. ) ;
#81 = CARTESIAN_POINT ( 'NONE',  ( 2.750000000000000000, 3.367778697655221012E-16, 0.000000000000000000 ) ) ;
#82 = ORIENTED_EDGE ( 'NONE', *, *, #113, .F. ) ;
#83 = APPROVAL ( #72, 'UNSPECIFIED' ) ;
#84 = ORIENTED_EDGE ( 'NONE', *, *, #198, .T. ) ;
#85 = PLANE ( 'NONE',  #236 ) ;
#86 = CYLINDRICAL_SURFACE ( 'NONE', #197, 1.500000000000000000 ) ;
#87 = AXIS2_PLACEMENT_3D ( 'NONE', #44, #218, #118 ) ;
#88 = LINE ( 'NONE', #166, #90 ) ;
#89 = DIRECTION ( 'NONE',  ( 1.000000000000000000, 0.000000000000000000, 0.000000000000000000 ) ) ;
#90 = VECTOR ( 'NONE', #5, 1000.000000000000000 ) ;
#91 = APPROVAL_STATUS ( 'not_yet_approved' ) ;
#92 = APPROVAL_STATUS ( 'not_yet_approved' ) ;
#93 = DATE_AND_TIME ( #14, #130 ) ;
#94 = UNCERTAINTY_MEASURE_WITH_UNIT (LENGTH_MEASURE( 1.000000000000000082E-05 ), #189, 'distance_accuracy_value', 'NONE');
#95 = ORIENTED_EDGE ( 'NONE', *, *, #185, .T. ) ;
#96 = CARTESIAN_POINT ( 'NONE',  ( -1.500000000000000000, 0.000000000000000000, -45.00000000000000000 ) ) ;
#97 = EDGE_LOOP ( 'NONE', ( #241, #95 ) ) ;
#98 = ORIENTED_EDGE ( 'NONE', *, *, #39, .F. ) ;
#99 = SECURITY_CLASSIFICATION ( '', '', #73 ) ;
#100 = ORIENTED_EDGE ( 'NONE', *, *, #185, .F. ) ;
#101 = CARTESIAN_POINT ( 'NONE',  ( -2.750000000000000000, 0.000000000000000000, 3.000000000000000000 ) ) ;
#102 = CYLINDRICAL_SURFACE ( 'NONE', #249, 1.500000000000000000 ) ;
#103 = DIRECTION ( 'NONE',  ( 0.000000000000000000, 0.000000000000000000, 1.000000000000000000 ) ) ;
#104 = DIRECTION ( 'NONE',  ( -0.000000000000000000, -0.000000000000000000, -1.000000000000000000 ) ) ;
#105 = CIRCLE ( 'NONE', #242, 1.500000000000000000 ) ;
#106 =( NAMED_UNIT ( * ) PLANE_ANGLE_UNIT ( ) SI_UNIT ( $, .RADIAN. ) );
#107 = ADVANCED_FACE ( 'NONE', ( #170 ), #86, .T. ) ;
#108 = CC_DESIGN_APPROVAL ( #83, ( #253 ) ) ;
#109 = PERSON_AND_ORGANIZATION_ROLE ( 'classification_officer' ) ;
#110 = PERSON_AND_ORGANIZATION_ROLE ( 'design_supplier' ) ;
#111 = FACE_OUTER_BOUND ( 'NONE', #117, .T. ) ;
#112 = AXIS2_PLACEMENT_3D ( 'NONE', #165, #144, #50 ) ;
#113 = EDGE_CURVE ( 'NONE', #41, #66, #63, .T. ) ;
#114 = CARTESIAN_POINT ( 'NONE',  ( 0.000000000000000000, 0.000000000000000000, -45.00000000000000000 ) ) ;
#115 = PRODUCT ( 'HW-S_M3x45_socket_ENVELOPE', 'HW-S_M3x45_socket_ENVELOPE', '', ( #33 ) ) ;
#116 = AXIS2_PLACEMENT_3D ( 'NONE', #219, #237, #205 ) ;
#117 = EDGE_LOOP ( 'NONE', ( #138, #82, #243, #162 ) ) ;
#118 = DIRECTION ( 'NONE',  ( 1.000000000000000000, 0.000000000000000000, 0.000000000000000000 ) ) ;
#119 = VERTEX_POINT ( 'NONE', #125 ) ;
#120 = DIRECTION ( 'NONE',  ( -1.000000000000000000, 0.000000000000000000, 0.000000000000000000 ) ) ;
#121 = LINE ( 'NONE', #101, #141 ) ;
#122 = CARTESIAN_POINT ( 'NONE',  ( 2.750000000000000000, 3.367778697655221012E-16, 3.000000000000000000 ) ) ;
#123 = DIRECTION ( 'NONE',  ( 0.000000000000000000, 0.000000000000000000, 1.000000000000000000 ) ) ;
#124 = EDGE_CURVE ( 'NONE', #164, #43, #187, .T. ) ;
#125 = CARTESIAN_POINT ( 'NONE',  ( 1.500000000000000000, 1.836970198721029688E-16, -45.00000000000000000 ) ) ;
#126 = AXIS2_PLACEMENT_3D ( 'NONE', #19, #157, #61 ) ;
#127 = DATE_TIME_ROLE ( 'creation_date' ) ;
#128 = DATE_AND_TIME ( #194, #18 ) ;
#129 = PERSON_AND_ORGANIZATION ( #176, #156 ) ;
#130 = LOCAL_TIME ( 22, 20, 37.00000000000000000, #193 ) ;
#131 = APPLICATION_PROTOCOL_DEFINITION ( 'international standard', 'config_control_design', 1994, #159 ) ;
#132 = CLOSED_SHELL ( 'NONE', ( #30, #155, #107, #222, #58, #177, #161 ) ) ;
#133 = AXIS2_PLACEMENT_3D ( 'NONE', #71, #103, #224 ) ;
#134 = CC_DESIGN_DATE_AND_TIME_ASSIGNMENT ( #128, #213, ( #99 ) ) ;
#135 = CARTESIAN_POINT ( 'NONE',  ( 0.000000000000000000, 0.000000000000000000, 3.000000000000000000 ) ) ;
#136 = VERTEX_POINT ( 'NONE', #67 ) ;
#137 = PRODUCT_DEFINITION_SHAPE ( 'NONE', 'NONE',  #253 ) ;
#138 = ORIENTED_EDGE ( 'NONE', *, *, #139, .F. ) ;
#139 = EDGE_CURVE ( 'NONE', #66, #23, #142, .T. ) ;
#140 = ORIENTED_EDGE ( 'NONE', *, *, #216, .T. ) ;
#141 = VECTOR ( 'NONE', #104, 1000.000000000000000 ) ;
#142 = LINE ( 'NONE', #122, #40 ) ;
#143 = CIRCLE ( 'NONE', #12, 2.750000000000000000 ) ;
#144 = DIRECTION ( 'NONE',  ( 0.000000000000000000, 0.000000000000000000, 1.000000000000000000 ) ) ;
#145 = FACE_OUTER_BOUND ( 'NONE', #79, .T. ) ;
#146 = DIRECTION ( 'NONE',  ( 0.000000000000000000, 0.000000000000000000, 1.000000000000000000 ) ) ;
#147 = DIRECTION ( 'NONE',  ( 1.000000000000000000, 0.000000000000000000, -0.000000000000000000 ) ) ;
#148 = EDGE_CURVE ( 'NONE', #23, #136, #48, .T. ) ;
#149 = PERSON_AND_ORGANIZATION ( #176, #156 ) ;
#150 = APPROVAL_DATE_TIME ( #173, #83 ) ;
#151 = PERSON_AND_ORGANIZATION_ROLE ( 'creator' ) ;
#152 = AXIS2_PLACEMENT_3D ( 'NONE', #114, #183, #254 ) ;
#153 = COORDINATED_UNIVERSAL_TIME_OFFSET ( 6, 0, .BEHIND. ) ;
#154 = CC_DESIGN_APPROVAL ( #167, ( #99 ) ) ;
#155 = ADVANCED_FACE ( 'NONE', ( #210 ), #102, .T. ) ;
#156 = ORGANIZATION ( 'UNSPECIFIED', 'UNSPECIFIED', '' ) ;
#157 = DIRECTION ( 'NONE',  ( -0.000000000000000000, -0.000000000000000000, -1.000000000000000000 ) ) ;
#158 = ORIENTED_EDGE ( 'NONE', *, *, #139, .T. ) ;
#159 = APPLICATION_CONTEXT ( 'configuration controlled 3d designs of mechanical parts and assemblies' ) ;
#160 = FACE_OUTER_BOUND ( 'NONE', #4, .T. ) ;
#161 = ADVANCED_FACE ( 'NONE', ( #186, #6 ), #29, .F. ) ;
#162 = ORIENTED_EDGE ( 'NONE', *, *, #36, .T. ) ;
#163 = VECTOR ( 'NONE', #227, 1000.000000000000000 ) ;
#164 = VERTEX_POINT ( 'NONE', #212 ) ;
#165 = CARTESIAN_POINT ( 'NONE',  ( 0.000000000000000000, 0.000000000000000000, 0.000000000000000000 ) ) ;
#166 = CARTESIAN_POINT ( 'NONE',  ( 1.500000000000000000, 1.836970198721029688E-16, 0.000000000000000000 ) ) ;
#167 = APPROVAL ( #92, 'UNSPECIFIED' ) ;
#168 = APPROVAL_PERSON_ORGANIZATION ( #175, #167, #35 ) ;
#169 = CARTESIAN_POINT ( 'NONE',  ( 0.000000000000000000, 0.000000000000000000, 0.000000000000000000 ) ) ;
#170 = FACE_OUTER_BOUND ( 'NONE', #184, .T. ) ;
#171 = LOCAL_TIME ( 22, 20, 37.00000000000000000, #233 ) ;
#172 = APPROVAL_DATE_TIME ( #215, #10 ) ;
#173 = DATE_AND_TIME ( #38, #171 ) ;
#174 = AXIS2_PLACEMENT_3D ( 'NONE', #135, #239, #221 ) ;
#175 = PERSON_AND_ORGANIZATION ( #176, #156 ) ;
#176 = PERSON ( 'UNSPECIFIED', 'UNSPECIFIED', 'UNSPECIFIED', ('UNSPECIFIED'), ('UNSPECIFIED'), ('UNSPECIFIED') ) ;
#177 = ADVANCED_FACE ( 'NONE', ( #145 ), #27, .T. ) ;
#178 = PERSON_AND_ORGANIZATION_ROLE ( 'design_owner' ) ;
#179 = EDGE_LOOP ( 'NONE', ( #2, #98 ) ) ;
#180 = AXIS2_PLACEMENT_3D ( 'NONE', #190, #188, #8 ) ;
#181 = CARTESIAN_POINT ( 'NONE',  ( 2.750000000000000000, 3.367778697655221012E-16, 3.000000000000000000 ) ) ;
#182 = ORIENTED_EDGE ( 'NONE', *, *, #77, .F. ) ;
#183 = DIRECTION ( 'NONE',  ( 0.000000000000000000, 0.000000000000000000, 1.000000000000000000 ) ) ;
#184 = EDGE_LOOP ( 'NONE', ( #220, #24, #21, #20 ) ) ;
#185 = EDGE_CURVE ( 'NONE', #238, #164, #214, .T. ) ;
#186 = FACE_BOUND ( 'NONE', #97, .T. ) ;
#187 = LINE ( 'NONE', #51, #163 ) ;
#188 = DIRECTION ( 'NONE',  ( 0.000000000000000000, 0.000000000000000000, 1.000000000000000000 ) ) ;
#189 =( LENGTH_UNIT ( ) NAMED_UNIT ( * ) SI_UNIT ( .MILLI., .METRE. ) );
#190 = CARTESIAN_POINT ( 'NONE',  ( 0.000000000000000000, 0.000000000000000000, 0.000000000000000000 ) ) ;
#191 = CARTESIAN_POINT ( 'NONE',  ( 0.000000000000000000, 0.000000000000000000, 0.000000000000000000 ) ) ;
#192 = CC_DESIGN_APPROVAL ( #10, ( #60 ) ) ;
#193 = COORDINATED_UNIVERSAL_TIME_OFFSET ( 6, 0, .BEHIND. ) ;
#194 = CALENDAR_DATE ( 2026, 8, 9 ) ;
#195 = CC_DESIGN_PERSON_AND_ORGANIZATION_ASSIGNMENT ( #251, #110, ( #60 ) ) ;
#196 = PERSON_AND_ORGANIZATION ( #176, #156 ) ;
#197 = AXIS2_PLACEMENT_3D ( 'NONE', #244, #226, #9 ) ;
#198 = EDGE_CURVE ( 'NONE', #238, #119, #88, .T. ) ;
#199 = ADVANCED_BREP_SHAPE_REPRESENTATION ( 'HW-S_M3x45_socket_ENVELOPE', ( #26, #225 ), #49 ) ;
#200 = CYLINDRICAL_SURFACE ( 'NONE', #126, 2.750000000000000000 ) ;
#201 = ORIENTED_EDGE ( 'NONE', *, *, #39, .T. ) ;
#202 = CIRCLE ( 'NONE', #87, 1.500000000000000000 ) ;
#203 = ORIENTED_EDGE ( 'NONE', *, *, #36, .F. ) ;
#204 = DESIGN_CONTEXT ( 'detailed design', #53, 'design' ) ;
#205 = DIRECTION ( 'NONE',  ( 1.000000000000000000, 0.000000000000000000, 0.000000000000000000 ) ) ;
#206 = ORIENTED_EDGE ( 'NONE', *, *, #124, .F. ) ;
#207 = CC_DESIGN_PERSON_AND_ORGANIZATION_ASSIGNMENT ( #129, #109, ( #99 ) ) ;
#208 = AXIS2_PLACEMENT_3D ( 'NONE', #245, #28, #69 ) ;
#209 = CARTESIAN_POINT ( 'NONE',  ( 1.500000000000000000, 1.836970198721029688E-16, 0.000000000000000000 ) ) ;
#210 = FACE_OUTER_BOUND ( 'NONE', #3, .T. ) ;
#211 = CARTESIAN_POINT ( 'NONE',  ( 0.000000000000000000, 0.000000000000000000, 3.000000000000000000 ) ) ;
#212 = CARTESIAN_POINT ( 'NONE',  ( -1.500000000000000000, 0.000000000000000000, 0.000000000000000000 ) ) ;
#213 = DATE_TIME_ROLE ( 'classification_date' ) ;
#214 = CIRCLE ( 'NONE', #180, 1.500000000000000000 ) ;
#215 = DATE_AND_TIME ( #37, #34 ) ;
#216 = EDGE_CURVE ( 'NONE', #66, #41, #143, .T. ) ;
#217 = APPLICATION_PROTOCOL_DEFINITION ( 'international standard', 'config_control_design', 1994, #53 ) ;
#218 = DIRECTION ( 'NONE',  ( 0.000000000000000000, 0.000000000000000000, 1.000000000000000000 ) ) ;
#219 = CARTESIAN_POINT ( 'NONE',  ( 0.000000000000000000, 0.000000000000000000, 0.000000000000000000 ) ) ;
#220 = ORIENTED_EDGE ( 'NONE', *, *, #198, .F. ) ;
#221 = DIRECTION ( 'NONE',  ( -1.000000000000000000, 0.000000000000000000, 0.000000000000000000 ) ) ;
#222 = ADVANCED_FACE ( 'NONE', ( #46 ), #85, .F. ) ;
#223 = EDGE_LOOP ( 'NONE', ( #203, #62 ) ) ;
#224 = DIRECTION ( 'NONE',  ( 1.000000000000000000, 0.000000000000000000, -0.000000000000000000 ) ) ;
#225 = AXIS2_PLACEMENT_3D ( 'NONE', #191, #74, #231 ) ;
#226 = DIRECTION ( 'NONE',  ( -0.000000000000000000, -0.000000000000000000, -1.000000000000000000 ) ) ;
#227 = DIRECTION ( 'NONE',  ( -0.000000000000000000, -0.000000000000000000, -1.000000000000000000 ) ) ;
#228 = DIRECTION ( 'NONE',  ( -0.000000000000000000, -0.000000000000000000, -1.000000000000000000 ) ) ;
#229 = CARTESIAN_POINT ( 'NONE',  ( 0.000000000000000000, 0.000000000000000000, -45.00000000000000000 ) ) ;
#230 = AXIS2_PLACEMENT_3D ( 'NONE', #211, #70, #250 ) ;
#231 = DIRECTION ( 'NONE',  ( 1.000000000000000000, 0.000000000000000000, 0.000000000000000000 ) ) ;
#232 = COORDINATED_UNIVERSAL_TIME_OFFSET ( 6, 0, .BEHIND. ) ;
#233 = COORDINATED_UNIVERSAL_TIME_OFFSET ( 6, 0, .BEHIND. ) ;
#234 = CIRCLE ( 'NONE', #116, 2.750000000000000000 ) ;
#235 = COORDINATED_UNIVERSAL_TIME_OFFSET ( 6, 0, .BEHIND. ) ;
#236 = AXIS2_PLACEMENT_3D ( 'NONE', #229, #123, #147 ) ;
#237 = DIRECTION ( 'NONE',  ( 0.000000000000000000, 0.000000000000000000, 1.000000000000000000 ) ) ;
#238 = VERTEX_POINT ( 'NONE', #209 ) ;
#239 = DIRECTION ( 'NONE',  ( -0.000000000000000000, -0.000000000000000000, -1.000000000000000000 ) ) ;
#240 = CC_DESIGN_PERSON_AND_ORGANIZATION_ASSIGNMENT ( #75, #76, ( #60 ) ) ;
#241 = ORIENTED_EDGE ( 'NONE', *, *, #80, .T. ) ;
#242 = AXIS2_PLACEMENT_3D ( 'NONE', #11, #247, #89 ) ;
#243 = ORIENTED_EDGE ( 'NONE', *, *, #77, .T. ) ;
#244 = CARTESIAN_POINT ( 'NONE',  ( 0.000000000000000000, 0.000000000000000000, 0.000000000000000000 ) ) ;
#245 = CARTESIAN_POINT ( 'NONE',  ( 0.000000000000000000, 0.000000000000000000, 0.000000000000000000 ) ) ;
#246 = CARTESIAN_POINT ( 'NONE',  ( 0.000000000000000000, 0.000000000000000000, 3.000000000000000000 ) ) ;
#247 = DIRECTION ( 'NONE',  ( 0.000000000000000000, 0.000000000000000000, 1.000000000000000000 ) ) ;
#248 = CC_DESIGN_PERSON_AND_ORGANIZATION_ASSIGNMENT ( #149, #151, ( #253 ) ) ;
#249 = AXIS2_PLACEMENT_3D ( 'NONE', #169, #228, #120 ) ;
#250 = DIRECTION ( 'NONE',  ( 1.000000000000000000, 0.000000000000000000, 0.000000000000000000 ) ) ;
#251 = PERSON_AND_ORGANIZATION ( #176, #156 ) ;
#252 = APPROVAL_DATE_TIME ( #93, #167 ) ;
#253 = PRODUCT_DEFINITION ( 'UNKNOWN', '', #60, #204 ) ;
#254 = DIRECTION ( 'NONE',  ( 1.000000000000000000, 0.000000000000000000, 0.000000000000000000 ) ) ;
#255 = LOCAL_TIME ( 22, 20, 37.00000000000000000, #235 ) ;
ENDSEC;
END-ISO-10303-21;
