ISO-10303-21;
HEADER;
FILE_DESCRIPTION (( 'STEP AP203' ),
    '1' );
FILE_NAME ('HW-S_M3x40_socket_ENVELOPE.step',
    '2026-09-08T03:41:32',
    ( '' ),
    ( '' ),
    'SwSTEP 2.0',
    'SolidWorks 2026',
    '' );
FILE_SCHEMA (( 'CONFIG_CONTROL_DESIGN' ));
ENDSEC;

DATA;
#1 = DIRECTION ( 'NONE',  ( 0.000000000000000000, 0.000000000000000000, 1.000000000000000000 ) ) ;
#2 = ORIENTED_EDGE ( 'NONE', *, *, #231, .T. ) ;
#3 = ORIENTED_EDGE ( 'NONE', *, *, #224, .F. ) ;
#4 = EDGE_LOOP ( 'NONE', ( #22, #103, #2, #56 ) ) ;
#5 = APPLICATION_CONTEXT ( 'configuration controlled 3d designs of mechanical parts and assemblies' ) ;
#6 = DIRECTION ( 'NONE',  ( 1.000000000000000000, 0.000000000000000000, 0.000000000000000000 ) ) ;
#7 = APPROVAL ( #50, 'UNSPECIFIED' ) ;
#8 = CC_DESIGN_DATE_AND_TIME_ASSIGNMENT ( #75, #234, ( #90 ) ) ;
#9 = CARTESIAN_POINT ( 'NONE',  ( 2.750000000000000000, 3.367778697655221012E-16, 3.000000000000000000 ) ) ;
#10 = DIRECTION ( 'NONE',  ( 0.000000000000000000, 0.000000000000000000, 1.000000000000000000 ) ) ;
#11 = VECTOR ( 'NONE', #222, 1000.000000000000000 ) ;
#12 = APPROVAL_STATUS ( 'not_yet_approved' ) ;
#13 = APPROVAL_DATE_TIME ( #17, #7 ) ;
#14 = ORIENTED_EDGE ( 'NONE', *, *, #63, .F. ) ;
#15 = VECTOR ( 'NONE', #239, 1000.000000000000000 ) ;
#16 = SHAPE_DEFINITION_REPRESENTATION ( #164, #176 ) ;
#17 = DATE_AND_TIME ( #53, #117 ) ;
#18 = APPROVAL_PERSON_ORGANIZATION ( #34, #189, #212 ) ;
#19 = CC_DESIGN_APPROVAL ( #99, ( #90 ) ) ;
#20 = ORIENTED_EDGE ( 'NONE', *, *, #200, .T. ) ;
#21 = APPLICATION_CONTEXT ( 'configuration controlled 3d designs of mechanical parts and assemblies' ) ;
#22 = ORIENTED_EDGE ( 'NONE', *, *, #85, .F. ) ;
#23 = ORIENTED_EDGE ( 'NONE', *, *, #85, .T. ) ;
#24 = ORIENTED_EDGE ( 'NONE', *, *, #110, .T. ) ;
#25 = FACE_OUTER_BOUND ( 'NONE', #202, .T. ) ;
#26 = DIRECTION ( 'NONE',  ( 1.000000000000000000, 0.000000000000000000, -0.000000000000000000 ) ) ;
#27 = FACE_BOUND ( 'NONE', #143, .T. ) ;
#28 = CC_DESIGN_APPROVAL ( #189, ( #74 ) ) ;
#29 = CARTESIAN_POINT ( 'NONE',  ( 0.000000000000000000, 0.000000000000000000, -40.00000000000000000 ) ) ;
#30 = CARTESIAN_POINT ( 'NONE',  ( 0.000000000000000000, 0.000000000000000000, 3.000000000000000000 ) ) ;
#31 = CIRCLE ( 'NONE', #161, 2.750000000000000000 ) ;
#32 = FACE_OUTER_BOUND ( 'NONE', #83, .T. ) ;
#33 = CC_DESIGN_PERSON_AND_ORGANIZATION_ASSIGNMENT ( #193, #195, ( #223 ) ) ;
#34 = PERSON_AND_ORGANIZATION ( #54, #220 ) ;
#35 = APPROVAL_ROLE ( '' ) ;
#36 = AXIS2_PLACEMENT_3D ( 'NONE', #217, #185, #6 ) ;
#37 = FACE_OUTER_BOUND ( 'NONE', #4, .T. ) ;
#38 = DIRECTION ( 'NONE',  ( 0.000000000000000000, 0.000000000000000000, 1.000000000000000000 ) ) ;
#39 = VERTEX_POINT ( 'NONE', #221 ) ;
#40 = CIRCLE ( 'NONE', #209, 1.500000000000000000 ) ;
#41 = PRODUCT_RELATED_PRODUCT_CATEGORY ( 'detail', '', ( #216 ) ) ;
#42 = VERTEX_POINT ( 'NONE', #61 ) ;
#43 = FACE_OUTER_BOUND ( 'NONE', #215, .T. ) ;
#44 = LOCAL_TIME ( 22, 41, 32.00000000000000000, #58 ) ;
#45 = CARTESIAN_POINT ( 'NONE',  ( -2.750000000000000000, 0.000000000000000000, 0.000000000000000000 ) ) ;
#46 = AXIS2_PLACEMENT_3D ( 'NONE', #30, #48, #190 ) ;
#47 = DIRECTION ( 'NONE',  ( 1.000000000000000000, 0.000000000000000000, 0.000000000000000000 ) ) ;
#48 = DIRECTION ( 'NONE',  ( 0.000000000000000000, 0.000000000000000000, 1.000000000000000000 ) ) ;
#49 = CARTESIAN_POINT ( 'NONE',  ( 0.000000000000000000, 0.000000000000000000, 3.000000000000000000 ) ) ;
#50 = APPROVAL_STATUS ( 'not_yet_approved' ) ;
#51 = COORDINATED_UNIVERSAL_TIME_OFFSET ( 6, 0, .BEHIND. ) ;
#52 = CC_DESIGN_DATE_AND_TIME_ASSIGNMENT ( #76, #155, ( #74 ) ) ;
#53 = CALENDAR_DATE ( 2026, 7, 9 ) ;
#54 = PERSON ( 'UNSPECIFIED', 'UNSPECIFIED', 'UNSPECIFIED', ('UNSPECIFIED'), ('UNSPECIFIED'), ('UNSPECIFIED') ) ;
#55 = COORDINATED_UNIVERSAL_TIME_OFFSET ( 6, 0, .BEHIND. ) ;
#56 = ORIENTED_EDGE ( 'NONE', *, *, #72, .F. ) ;
#57 = DESIGN_CONTEXT ( 'detailed design', #5, 'design' ) ;
#58 = COORDINATED_UNIVERSAL_TIME_OFFSET ( 6, 0, .BEHIND. ) ;
#59 = ORIENTED_EDGE ( 'NONE', *, *, #224, .T. ) ;
#60 = FACE_OUTER_BOUND ( 'NONE', #146, .T. ) ;
#61 = CARTESIAN_POINT ( 'NONE',  ( 1.500000000000000000, 1.836970198721029934E-16, -40.00000000000000000 ) ) ;
#62 = DIRECTION ( 'NONE',  ( 1.000000000000000000, 0.000000000000000000, 0.000000000000000000 ) ) ;
#63 = EDGE_CURVE ( 'NONE', #158, #80, #31, .T. ) ;
#64 = LINE ( 'NONE', #149, #11 ) ;
#65 = CIRCLE ( 'NONE', #237, 2.750000000000000000 ) ;
#66 = CARTESIAN_POINT ( 'NONE',  ( 0.000000000000000000, 0.000000000000000000, 0.000000000000000000 ) ) ;
#67 = FACE_OUTER_BOUND ( 'NONE', #199, .T. ) ;
#68 = CC_DESIGN_SECURITY_CLASSIFICATION ( #90, ( #223 ) ) ;
#69 = ADVANCED_FACE ( 'NONE', ( #25 ), #126, .T. ) ;
#70 = DIRECTION ( 'NONE',  ( -0.000000000000000000, -0.000000000000000000, -1.000000000000000000 ) ) ;
#71 = DIRECTION ( 'NONE',  ( 0.000000000000000000, 0.000000000000000000, 1.000000000000000000 ) ) ;
#72 = EDGE_CURVE ( 'NONE', #39, #175, #181, .T. ) ;
#73 = PERSON_AND_ORGANIZATION_ROLE ( 'creator' ) ;
#74 = PRODUCT_DEFINITION ( 'UNKNOWN', '', #223, #57 ) ;
#75 = DATE_AND_TIME ( #174, #44 ) ;
#76 = DATE_AND_TIME ( #119, #132 ) ;
#77 = CIRCLE ( 'NONE', #36, 1.500000000000000000 ) ;
#78 = VERTEX_POINT ( 'NONE', #124 ) ;
#79 = CC_DESIGN_PERSON_AND_ORGANIZATION_ASSIGNMENT ( #97, #114, ( #216 ) ) ;
#80 = VERTEX_POINT ( 'NONE', #203 ) ;
#81 = ORIENTED_EDGE ( 'NONE', *, *, #200, .F. ) ;
#82 = CIRCLE ( 'NONE', #115, 2.750000000000000000 ) ;
#83 = EDGE_LOOP ( 'NONE', ( #142, #147 ) ) ;
#84 = CYLINDRICAL_SURFACE ( 'NONE', #206, 1.500000000000000000 ) ;
#85 = EDGE_CURVE ( 'NONE', #183, #39, #77, .T. ) ;
#86 = ORIENTED_EDGE ( 'NONE', *, *, #151, .T. ) ;
#87 = CLOSED_SHELL ( 'NONE', ( #69, #139, #106, #127, #255, #140, #218 ) ) ;
#88 = LINE ( 'NONE', #131, #178 ) ;
#89 = DIRECTION ( 'NONE',  ( 1.000000000000000000, 0.000000000000000000, 0.000000000000000000 ) ) ;
#90 = SECURITY_CLASSIFICATION ( '', '', #235 ) ;
#91 = DIRECTION ( 'NONE',  ( -0.000000000000000000, -0.000000000000000000, -1.000000000000000000 ) ) ;
#92 = AXIS2_PLACEMENT_3D ( 'NONE', #168, #111, #26 ) ;
#93 = DIRECTION ( 'NONE',  ( 1.000000000000000000, 0.000000000000000000, 0.000000000000000000 ) ) ;
#94 = PERSON_AND_ORGANIZATION_ROLE ( 'classification_officer' ) ;
#95 = AXIS2_PLACEMENT_3D ( 'NONE', #105, #144, #162 ) ;
#96 = ORIENTED_EDGE ( 'NONE', *, *, #231, .F. ) ;
#97 = PERSON_AND_ORGANIZATION ( #54, #220 ) ;
#98 = AXIS2_PLACEMENT_3D ( 'NONE', #243, #225, #129 ) ;
#99 = APPROVAL ( #141, 'UNSPECIFIED' ) ;
#100 = DIRECTION ( 'NONE',  ( 1.000000000000000000, 0.000000000000000000, 0.000000000000000000 ) ) ;
#101 = CC_DESIGN_PERSON_AND_ORGANIZATION_ASSIGNMENT ( #116, #73, ( #74 ) ) ;
#102 = CARTESIAN_POINT ( 'NONE',  ( 0.000000000000000000, 0.000000000000000000, 0.000000000000000000 ) ) ;
#103 = ORIENTED_EDGE ( 'NONE', *, *, #118, .T. ) ;
#104 = DIRECTION ( 'NONE',  ( -0.000000000000000000, -0.000000000000000000, -1.000000000000000000 ) ) ;
#105 = CARTESIAN_POINT ( 'NONE',  ( 0.000000000000000000, 0.000000000000000000, -40.00000000000000000 ) ) ;
#106 = ADVANCED_FACE ( 'NONE', ( #60 ), #84, .T. ) ;
#107 = AXIS2_PLACEMENT_3D ( 'NONE', #66, #1, #62 ) ;
#108 = LINE ( 'NONE', #171, #134 ) ;
#109 = PLANE ( 'NONE',  #92 ) ;
#110 = EDGE_CURVE ( 'NONE', #204, #78, #120, .T. ) ;
#111 = DIRECTION ( 'NONE',  ( 0.000000000000000000, 0.000000000000000000, 1.000000000000000000 ) ) ;
#112 =( NAMED_UNIT ( * ) PLANE_ANGLE_UNIT ( ) SI_UNIT ( $, .RADIAN. ) );
#113 = APPROVAL_ROLE ( '' ) ;
#114 = PERSON_AND_ORGANIZATION_ROLE ( 'design_owner' ) ;
#115 = AXIS2_PLACEMENT_3D ( 'NONE', #173, #10, #152 ) ;
#116 = PERSON_AND_ORGANIZATION ( #54, #220 ) ;
#117 = LOCAL_TIME ( 22, 41, 32.00000000000000000, #55 ) ;
#118 = EDGE_CURVE ( 'NONE', #183, #42, #64, .T. ) ;
#119 = CALENDAR_DATE ( 2026, 7, 9 ) ;
#120 = CIRCLE ( 'NONE', #107, 2.750000000000000000 ) ;
#121 = MANIFOLD_SOLID_BREP ( 'Socket_head_envelope', #87 ) ;
#122 = CARTESIAN_POINT ( 'NONE',  ( 0.000000000000000000, 0.000000000000000000, 0.000000000000000000 ) ) ;
#123 = CYLINDRICAL_SURFACE ( 'NONE', #187, 1.500000000000000000 ) ;
#124 = CARTESIAN_POINT ( 'NONE',  ( 2.750000000000000000, 3.367778697655221012E-16, 0.000000000000000000 ) ) ;
#125 = AXIS2_PLACEMENT_3D ( 'NONE', #192, #229, #133 ) ;
#126 = CYLINDRICAL_SURFACE ( 'NONE', #254, 2.750000000000000000 ) ;
#127 = ADVANCED_FACE ( 'NONE', ( #43 ), #128, .F. ) ;
#128 = PLANE ( 'NONE',  #95 ) ;
#129 = DIRECTION ( 'NONE',  ( 1.000000000000000000, 0.000000000000000000, 0.000000000000000000 ) ) ;
#130 = CARTESIAN_POINT ( 'NONE',  ( -1.500000000000000000, 0.000000000000000000, -40.00000000000000000 ) ) ;
#131 = CARTESIAN_POINT ( 'NONE',  ( -2.750000000000000000, 0.000000000000000000, 3.000000000000000000 ) ) ;
#132 = LOCAL_TIME ( 22, 41, 32.00000000000000000, #136 ) ;
#133 = DIRECTION ( 'NONE',  ( -1.000000000000000000, 0.000000000000000000, 0.000000000000000000 ) ) ;
#134 = VECTOR ( 'NONE', #91, 1000.000000000000000 ) ;
#135 = APPLICATION_PROTOCOL_DEFINITION ( 'international standard', 'config_control_design', 1994, #21 ) ;
#136 = COORDINATED_UNIVERSAL_TIME_OFFSET ( 6, 0, .BEHIND. ) ;
#137 = LOCAL_TIME ( 22, 41, 32.00000000000000000, #51 ) ;
#138 = CALENDAR_DATE ( 2026, 7, 9 ) ;
#139 = ADVANCED_FACE ( 'NONE', ( #37 ), #123, .T. ) ;
#140 = ADVANCED_FACE ( 'NONE', ( #150 ), #228, .T. ) ;
#141 = APPROVAL_STATUS ( 'not_yet_approved' ) ;
#142 = ORIENTED_EDGE ( 'NONE', *, *, #110, .F. ) ;
#143 = EDGE_LOOP ( 'NONE', ( #20, #23 ) ) ;
#144 = DIRECTION ( 'NONE',  ( 0.000000000000000000, 0.000000000000000000, 1.000000000000000000 ) ) ;
#145 = ORIENTED_EDGE ( 'NONE', *, *, #166, .T. ) ;
#146 = EDGE_LOOP ( 'NONE', ( #252, #81, #219, #182 ) ) ;
#147 = ORIENTED_EDGE ( 'NONE', *, *, #160, .F. ) ;
#148 = CC_DESIGN_PERSON_AND_ORGANIZATION_ASSIGNMENT ( #251, #94, ( #90 ) ) ;
#149 = CARTESIAN_POINT ( 'NONE',  ( 1.500000000000000000, 1.836970198721029934E-16, 0.000000000000000000 ) ) ;
#150 = FACE_OUTER_BOUND ( 'NONE', #177, .T. ) ;
#151 = EDGE_CURVE ( 'NONE', #80, #204, #88, .T. ) ;
#152 = DIRECTION ( 'NONE',  ( 1.000000000000000000, 0.000000000000000000, 0.000000000000000000 ) ) ;
#153 = DATE_AND_TIME ( #194, #241 ) ;
#154 = CC_DESIGN_PERSON_AND_ORGANIZATION_ASSIGNMENT ( #197, #250, ( #223 ) ) ;
#155 = DATE_TIME_ROLE ( 'creation_date' ) ;
#156 = ORIENTED_EDGE ( 'NONE', *, *, #63, .T. ) ;
#157 = APPROVAL_DATE_TIME ( #211, #99 ) ;
#158 = VERTEX_POINT ( 'NONE', #9 ) ;
#159 = ORIENTED_EDGE ( 'NONE', *, *, #160, .T. ) ;
#160 = EDGE_CURVE ( 'NONE', #78, #204, #82, .T. ) ;
#161 = AXIS2_PLACEMENT_3D ( 'NONE', #198, #38, #100 ) ;
#162 = DIRECTION ( 'NONE',  ( 1.000000000000000000, 0.000000000000000000, -0.000000000000000000 ) ) ;
#163 = DIRECTION ( 'NONE',  ( -1.000000000000000000, 0.000000000000000000, 0.000000000000000000 ) ) ;
#164 = PRODUCT_DEFINITION_SHAPE ( 'NONE', 'NONE',  #74 ) ;
#165 = DIRECTION ( 'NONE',  ( -0.000000000000000000, -0.000000000000000000, -1.000000000000000000 ) ) ;
#166 = EDGE_CURVE ( 'NONE', #80, #158, #65, .T. ) ;
#167 = CARTESIAN_POINT ( 'NONE',  ( 0.000000000000000000, 0.000000000000000000, 3.000000000000000000 ) ) ;
#168 = CARTESIAN_POINT ( 'NONE',  ( 0.000000000000000000, 0.000000000000000000, 0.000000000000000000 ) ) ;
#169 = EDGE_CURVE ( 'NONE', #175, #42, #227, .T. ) ;
#170 = DIRECTION ( 'NONE',  ( 0.000000000000000000, 0.000000000000000000, 1.000000000000000000 ) ) ;
#171 = CARTESIAN_POINT ( 'NONE',  ( 2.750000000000000000, 3.367778697655221012E-16, 3.000000000000000000 ) ) ;
#172 = DIRECTION ( 'NONE',  ( -1.000000000000000000, 0.000000000000000000, 0.000000000000000000 ) ) ;
#173 = CARTESIAN_POINT ( 'NONE',  ( 0.000000000000000000, 0.000000000000000000, 0.000000000000000000 ) ) ;
#174 = CALENDAR_DATE ( 2026, 7, 9 ) ;
#175 = VERTEX_POINT ( 'NONE', #130 ) ;
#176 = ADVANCED_BREP_SHAPE_REPRESENTATION ( 'HW-S_M3x40_socket_ENVELOPE', ( #121, #98 ), #249 ) ;
#177 = EDGE_LOOP ( 'NONE', ( #145, #156 ) ) ;
#178 = VECTOR ( 'NONE', #226, 1000.000000000000000 ) ;
#179 = UNCERTAINTY_MEASURE_WITH_UNIT (LENGTH_MEASURE( 1.000000000000000082E-05 ), #208, 'distance_accuracy_value', 'NONE');
#180 = APPROVAL_PERSON_ORGANIZATION ( #196, #7, #113 ) ;
#181 = LINE ( 'NONE', #236, #15 ) ;
#182 = ORIENTED_EDGE ( 'NONE', *, *, #169, .T. ) ;
#183 = VERTEX_POINT ( 'NONE', #188 ) ;
#184 = CC_DESIGN_APPROVAL ( #7, ( #223 ) ) ;
#185 = DIRECTION ( 'NONE',  ( 0.000000000000000000, 0.000000000000000000, 1.000000000000000000 ) ) ;
#186 = MECHANICAL_CONTEXT ( 'NONE', #21, 'mechanical' ) ;
#187 = AXIS2_PLACEMENT_3D ( 'NONE', #122, #70, #172 ) ;
#188 = CARTESIAN_POINT ( 'NONE',  ( 1.500000000000000000, 1.836970198721029934E-16, 0.000000000000000000 ) ) ;
#189 = APPROVAL ( #12, 'UNSPECIFIED' ) ;
#190 = DIRECTION ( 'NONE',  ( 1.000000000000000000, 0.000000000000000000, -0.000000000000000000 ) ) ;
#191 = DIRECTION ( 'NONE',  ( 0.000000000000000000, 0.000000000000000000, 1.000000000000000000 ) ) ;
#192 = CARTESIAN_POINT ( 'NONE',  ( 0.000000000000000000, 0.000000000000000000, 3.000000000000000000 ) ) ;
#193 = PERSON_AND_ORGANIZATION ( #54, #220 ) ;
#194 = CALENDAR_DATE ( 2026, 7, 9 ) ;
#195 = PERSON_AND_ORGANIZATION_ROLE ( 'creator' ) ;
#196 = PERSON_AND_ORGANIZATION ( #54, #220 ) ;
#197 = PERSON_AND_ORGANIZATION ( #54, #220 ) ;
#198 = CARTESIAN_POINT ( 'NONE',  ( 0.000000000000000000, 0.000000000000000000, 3.000000000000000000 ) ) ;
#199 = EDGE_LOOP ( 'NONE', ( #3, #242, #86, #24 ) ) ;
#200 = EDGE_CURVE ( 'NONE', #39, #183, #40, .T. ) ;
#201 = AXIS2_PLACEMENT_3D ( 'NONE', #29, #170, #47 ) ;
#202 = EDGE_LOOP ( 'NONE', ( #14, #59, #159, #238 ) ) ;
#203 = CARTESIAN_POINT ( 'NONE',  ( -2.750000000000000000, 0.000000000000000000, 3.000000000000000000 ) ) ;
#204 = VERTEX_POINT ( 'NONE', #45 ) ;
#205 = CYLINDRICAL_SURFACE ( 'NONE', #125, 2.750000000000000000 ) ;
#206 = AXIS2_PLACEMENT_3D ( 'NONE', #102, #165, #240 ) ;
#207 = DIRECTION ( 'NONE',  ( 0.000000000000000000, 0.000000000000000000, 1.000000000000000000 ) ) ;
#208 =( LENGTH_UNIT ( ) NAMED_UNIT ( * ) SI_UNIT ( .MILLI., .METRE. ) );
#209 = AXIS2_PLACEMENT_3D ( 'NONE', #247, #191, #245 ) ;
#210 = APPLICATION_PROTOCOL_DEFINITION ( 'international standard', 'config_control_design', 1994, #5 ) ;
#211 = DATE_AND_TIME ( #138, #137 ) ;
#212 = APPROVAL_ROLE ( '' ) ;
#213 = ORIENTED_EDGE ( 'NONE', *, *, #169, .F. ) ;
#214 = AXIS2_PLACEMENT_3D ( 'NONE', #246, #71, #89 ) ;
#215 = EDGE_LOOP ( 'NONE', ( #213, #96 ) ) ;
#216 = PRODUCT ( 'HW-S_M3x40_socket_ENVELOPE', 'HW-S_M3x40_socket_ENVELOPE', '', ( #186 ) ) ;
#217 = CARTESIAN_POINT ( 'NONE',  ( 0.000000000000000000, 0.000000000000000000, 0.000000000000000000 ) ) ;
#218 = ADVANCED_FACE ( 'NONE', ( #27, #32 ), #109, .F. ) ;
#219 = ORIENTED_EDGE ( 'NONE', *, *, #72, .T. ) ;
#220 = ORGANIZATION ( 'UNSPECIFIED', 'UNSPECIFIED', '' ) ;
#221 = CARTESIAN_POINT ( 'NONE',  ( -1.500000000000000000, 0.000000000000000000, 0.000000000000000000 ) ) ;
#222 = DIRECTION ( 'NONE',  ( -0.000000000000000000, -0.000000000000000000, -1.000000000000000000 ) ) ;
#223 = PRODUCT_DEFINITION_FORMATION_WITH_SPECIFIED_SOURCE ( 'ANY', '', #216, .NOT_KNOWN. ) ;
#224 = EDGE_CURVE ( 'NONE', #158, #78, #108, .T. ) ;
#225 = DIRECTION ( 'NONE',  ( 0.000000000000000000, 0.000000000000000000, 1.000000000000000000 ) ) ;
#226 = DIRECTION ( 'NONE',  ( -0.000000000000000000, -0.000000000000000000, -1.000000000000000000 ) ) ;
#227 = CIRCLE ( 'NONE', #201, 1.500000000000000000 ) ;
#228 = PLANE ( 'NONE',  #46 ) ;
#229 = DIRECTION ( 'NONE',  ( -0.000000000000000000, -0.000000000000000000, -1.000000000000000000 ) ) ;
#230 = PERSON_AND_ORGANIZATION ( #54, #220 ) ;
#231 = EDGE_CURVE ( 'NONE', #42, #175, #233, .T. ) ;
#232 = COORDINATED_UNIVERSAL_TIME_OFFSET ( 6, 0, .BEHIND. ) ;
#233 = CIRCLE ( 'NONE', #214, 1.500000000000000000 ) ;
#234 = DATE_TIME_ROLE ( 'classification_date' ) ;
#235 = SECURITY_CLASSIFICATION_LEVEL ( 'unclassified' ) ;
#236 = CARTESIAN_POINT ( 'NONE',  ( -1.500000000000000000, 0.000000000000000000, 0.000000000000000000 ) ) ;
#237 = AXIS2_PLACEMENT_3D ( 'NONE', #49, #207, #93 ) ;
#238 = ORIENTED_EDGE ( 'NONE', *, *, #151, .F. ) ;
#239 = DIRECTION ( 'NONE',  ( -0.000000000000000000, -0.000000000000000000, -1.000000000000000000 ) ) ;
#240 = DIRECTION ( 'NONE',  ( -1.000000000000000000, 0.000000000000000000, 0.000000000000000000 ) ) ;
#241 = LOCAL_TIME ( 22, 41, 32.00000000000000000, #232 ) ;
#242 = ORIENTED_EDGE ( 'NONE', *, *, #166, .F. ) ;
#243 = CARTESIAN_POINT ( 'NONE',  ( 0.000000000000000000, 0.000000000000000000, 0.000000000000000000 ) ) ;
#244 = APPROVAL_PERSON_ORGANIZATION ( #230, #99, #35 ) ;
#245 = DIRECTION ( 'NONE',  ( 1.000000000000000000, 0.000000000000000000, 0.000000000000000000 ) ) ;
#246 = CARTESIAN_POINT ( 'NONE',  ( 0.000000000000000000, 0.000000000000000000, -40.00000000000000000 ) ) ;
#247 = CARTESIAN_POINT ( 'NONE',  ( 0.000000000000000000, 0.000000000000000000, 0.000000000000000000 ) ) ;
#248 =( NAMED_UNIT ( * ) SI_UNIT ( $, .STERADIAN. ) SOLID_ANGLE_UNIT ( ) );
#249 =( GEOMETRIC_REPRESENTATION_CONTEXT ( 3 ) GLOBAL_UNCERTAINTY_ASSIGNED_CONTEXT ( ( #179 ) ) GLOBAL_UNIT_ASSIGNED_CONTEXT ( ( #208, #112, #248 ) ) REPRESENTATION_CONTEXT ( 'NONE', 'WORKASPACE' ) );
#250 = PERSON_AND_ORGANIZATION_ROLE ( 'design_supplier' ) ;
#251 = PERSON_AND_ORGANIZATION ( #54, #220 ) ;
#252 = ORIENTED_EDGE ( 'NONE', *, *, #118, .F. ) ;
#253 = APPROVAL_DATE_TIME ( #153, #189 ) ;
#254 = AXIS2_PLACEMENT_3D ( 'NONE', #167, #104, #163 ) ;
#255 = ADVANCED_FACE ( 'NONE', ( #67 ), #205, .T. ) ;
ENDSEC;
END-ISO-10303-21;
