ISO-10303-21;
HEADER;
FILE_DESCRIPTION (( 'STEP AP203' ),
    '1' );
FILE_NAME ('HW-S_M2x30_socket_ENVELOPE.step',
    '2026-09-09T03:20:33',
    ( '' ),
    ( '' ),
    'SwSTEP 2.0',
    'SolidWorks 2026',
    '' );
FILE_SCHEMA (( 'CONFIG_CONTROL_DESIGN' ));
ENDSEC;

DATA;
#1 = CARTESIAN_POINT ( 'NONE',  ( -1.000000000000000000, 0.000000000000000000, 0.000000000000000000 ) ) ;
#2 = ORIENTED_EDGE ( 'NONE', *, *, #59, .F. ) ;
#3 = APPROVAL ( #235, 'UNSPECIFIED' ) ;
#4 = VERTEX_POINT ( 'NONE', #1 ) ;
#5 = LINE ( 'NONE', #85, #135 ) ;
#6 = DIRECTION ( 'NONE',  ( 0.000000000000000000, 0.000000000000000000, 1.000000000000000000 ) ) ;
#7 = CARTESIAN_POINT ( 'NONE',  ( 1.899999999999999911, 2.326828918379971365E-16, 0.000000000000000000 ) ) ;
#8 = DIRECTION ( 'NONE',  ( -1.000000000000000000, 0.000000000000000000, 0.000000000000000000 ) ) ;
#9 = CARTESIAN_POINT ( 'NONE',  ( -1.000000000000000000, 0.000000000000000000, 0.000000000000000000 ) ) ;
#10 = CYLINDRICAL_SURFACE ( 'NONE', #249, 1.899999999999999911 ) ;
#11 = CARTESIAN_POINT ( 'NONE',  ( 0.000000000000000000, 0.000000000000000000, 0.000000000000000000 ) ) ;
#12 = AXIS2_PLACEMENT_3D ( 'NONE', #221, #6, #125 ) ;
#13 =( NAMED_UNIT ( * ) SI_UNIT ( $, .STERADIAN. ) SOLID_ANGLE_UNIT ( ) );
#14 = PERSON_AND_ORGANIZATION_ROLE ( 'design_supplier' ) ;
#15 = DATE_TIME_ROLE ( 'classification_date' ) ;
#16 = APPROVAL_PERSON_ORGANIZATION ( #119, #20, #134 ) ;
#17 = CC_DESIGN_PERSON_AND_ORGANIZATION_ASSIGNMENT ( #251, #32, ( #81 ) ) ;
#18 = ORIENTED_EDGE ( 'NONE', *, *, #197, .T. ) ;
#19 = DIRECTION ( 'NONE',  ( 1.000000000000000000, 0.000000000000000000, 0.000000000000000000 ) ) ;
#20 = APPROVAL ( #54, 'UNSPECIFIED' ) ;
#21 = EDGE_LOOP ( 'NONE', ( #18, #236 ) ) ;
#22 = ORIENTED_EDGE ( 'NONE', *, *, #131, .F. ) ;
#23 = AXIS2_PLACEMENT_3D ( 'NONE', #73, #150, #8 ) ;
#24 = ORIENTED_EDGE ( 'NONE', *, *, #78, .T. ) ;
#25 = PLANE ( 'NONE',  #239 ) ;
#26 = DIRECTION ( 'NONE',  ( -1.000000000000000000, 0.000000000000000000, 0.000000000000000000 ) ) ;
#27 = DIRECTION ( 'NONE',  ( -0.000000000000000000, -0.000000000000000000, -1.000000000000000000 ) ) ;
#28 = AXIS2_PLACEMENT_3D ( 'NONE', #175, #87, #160 ) ;
#29 =( NAMED_UNIT ( * ) PLANE_ANGLE_UNIT ( ) SI_UNIT ( $, .RADIAN. ) );
#30 = DIRECTION ( 'NONE',  ( 0.000000000000000000, 0.000000000000000000, 1.000000000000000000 ) ) ;
#31 = PRODUCT_DEFINITION ( 'UNKNOWN', '', #176, #61 ) ;
#32 = PERSON_AND_ORGANIZATION_ROLE ( 'design_owner' ) ;
#33 = PERSON_AND_ORGANIZATION ( #213, #227 ) ;
#34 = ADVANCED_BREP_SHAPE_REPRESENTATION ( 'HW-S_M2x30_socket_ENVELOPE', ( #182, #53 ), #189 ) ;
#35 = PERSON_AND_ORGANIZATION ( #213, #227 ) ;
#36 = COORDINATED_UNIVERSAL_TIME_OFFSET ( 6, 0, .BEHIND. ) ;
#37 = EDGE_CURVE ( 'NONE', #63, #173, #5, .T. ) ;
#38 = AXIS2_PLACEMENT_3D ( 'NONE', #67, #92, #245 ) ;
#39 = ADVANCED_FACE ( 'NONE', ( #62 ), #142, .F. ) ;
#40 = CARTESIAN_POINT ( 'NONE',  ( 1.000000000000000000, 1.224646799147353207E-16, 0.000000000000000000 ) ) ;
#41 = CC_DESIGN_APPROVAL ( #177, ( #31 ) ) ;
#42 = EDGE_LOOP ( 'NONE', ( #100, #157 ) ) ;
#43 = CARTESIAN_POINT ( 'NONE',  ( 0.000000000000000000, 0.000000000000000000, -30.00000000000000000 ) ) ;
#44 = ORIENTED_EDGE ( 'NONE', *, *, #197, .F. ) ;
#45 = CC_DESIGN_PERSON_AND_ORGANIZATION_ASSIGNMENT ( #33, #155, ( #31 ) ) ;
#46 = CIRCLE ( 'NONE', #205, 1.000000000000000000 ) ;
#47 = DIRECTION ( 'NONE',  ( 1.000000000000000000, 0.000000000000000000, 0.000000000000000000 ) ) ;
#48 = CARTESIAN_POINT ( 'NONE',  ( -1.899999999999999911, 0.000000000000000000, 2.000000000000000000 ) ) ;
#49 = CC_DESIGN_PERSON_AND_ORGANIZATION_ASSIGNMENT ( #233, #188, ( #225 ) ) ;
#50 = CYLINDRICAL_SURFACE ( 'NONE', #23, 1.000000000000000000 ) ;
#51 = CIRCLE ( 'NONE', #156, 1.000000000000000000 ) ;
#52 = CARTESIAN_POINT ( 'NONE',  ( -1.899999999999999911, 0.000000000000000000, 2.000000000000000000 ) ) ;
#53 = AXIS2_PLACEMENT_3D ( 'NONE', #204, #211, #186 ) ;
#54 = APPROVAL_STATUS ( 'not_yet_approved' ) ;
#55 = COORDINATED_UNIVERSAL_TIME_OFFSET ( 6, 0, .BEHIND. ) ;
#56 = APPLICATION_PROTOCOL_DEFINITION ( 'international standard', 'config_control_design', 1994, #83 ) ;
#57 = LOCAL_TIME ( 22, 20, 33.00000000000000000, #36 ) ;
#58 = DATE_TIME_ROLE ( 'creation_date' ) ;
#59 = EDGE_CURVE ( 'NONE', #171, #63, #166, .T. ) ;
#60 = DIRECTION ( 'NONE',  ( 1.000000000000000000, 0.000000000000000000, -0.000000000000000000 ) ) ;
#61 = DESIGN_CONTEXT ( 'detailed design', #108, 'design' ) ;
#62 = FACE_OUTER_BOUND ( 'NONE', #122, .T. ) ;
#63 = VERTEX_POINT ( 'NONE', #120 ) ;
#64 = EDGE_CURVE ( 'NONE', #105, #84, #106, .T. ) ;
#65 = ORIENTED_EDGE ( 'NONE', *, *, #232, .T. ) ;
#66 = CIRCLE ( 'NONE', #129, 1.000000000000000000 ) ;
#67 = CARTESIAN_POINT ( 'NONE',  ( 0.000000000000000000, 0.000000000000000000, 2.000000000000000000 ) ) ;
#68 = CC_DESIGN_DATE_AND_TIME_ASSIGNMENT ( #207, #15, ( #225 ) ) ;
#69 = DIRECTION ( 'NONE',  ( -0.000000000000000000, -0.000000000000000000, -1.000000000000000000 ) ) ;
#70 = CARTESIAN_POINT ( 'NONE',  ( 0.000000000000000000, 0.000000000000000000, 0.000000000000000000 ) ) ;
#71 = APPROVAL_PERSON_ORGANIZATION ( #35, #3, #254 ) ;
#72 = AXIS2_PLACEMENT_3D ( 'NONE', #128, #27, #244 ) ;
#73 = CARTESIAN_POINT ( 'NONE',  ( 0.000000000000000000, 0.000000000000000000, 0.000000000000000000 ) ) ;
#74 = APPROVAL_DATE_TIME ( #137, #177 ) ;
#75 = PERSON_AND_ORGANIZATION_ROLE ( 'creator' ) ;
#76 = LOCAL_TIME ( 22, 20, 33.00000000000000000, #154 ) ;
#77 = EDGE_CURVE ( 'NONE', #124, #84, #198, .T. ) ;
#78 = EDGE_CURVE ( 'NONE', #173, #215, #99, .T. ) ;
#79 = SHAPE_DEFINITION_REPRESENTATION ( #214, #34 ) ;
#80 = APPLICATION_PROTOCOL_DEFINITION ( 'international standard', 'config_control_design', 1994, #108 ) ;
#81 = PRODUCT ( 'HW-S_M2x30_socket_ENVELOPE', 'HW-S_M2x30_socket_ENVELOPE', '', ( #169 ) ) ;
#82 = ORIENTED_EDGE ( 'NONE', *, *, #37, .T. ) ;
#83 = APPLICATION_CONTEXT ( 'configuration controlled 3d designs of mechanical parts and assemblies' ) ;
#84 = VERTEX_POINT ( 'NONE', #101 ) ;
#85 = CARTESIAN_POINT ( 'NONE',  ( 1.899999999999999911, 2.326828918379971365E-16, 2.000000000000000000 ) ) ;
#86 = ADVANCED_FACE ( 'NONE', ( #243, #89 ), #25, .F. ) ;
#87 = DIRECTION ( 'NONE',  ( 0.000000000000000000, 0.000000000000000000, 1.000000000000000000 ) ) ;
#88 = ORIENTED_EDGE ( 'NONE', *, *, #112, .F. ) ;
#89 = FACE_OUTER_BOUND ( 'NONE', #42, .T. ) ;
#90 = FACE_OUTER_BOUND ( 'NONE', #196, .T. ) ;
#91 = CYLINDRICAL_SURFACE ( 'NONE', #145, 1.000000000000000000 ) ;
#92 = DIRECTION ( 'NONE',  ( 0.000000000000000000, 0.000000000000000000, 1.000000000000000000 ) ) ;
#93 = FACE_OUTER_BOUND ( 'NONE', #242, .T. ) ;
#94 = EDGE_CURVE ( 'NONE', #84, #105, #66, .T. ) ;
#95 = AXIS2_PLACEMENT_3D ( 'NONE', #181, #183, #127 ) ;
#96 = APPROVAL_STATUS ( 'not_yet_approved' ) ;
#97 = CC_DESIGN_PERSON_AND_ORGANIZATION_ASSIGNMENT ( #187, #14, ( #176 ) ) ;
#98 = CALENDAR_DATE ( 2026, 8, 9 ) ;
#99 = CIRCLE ( 'NONE', #226, 1.899999999999999911 ) ;
#100 = ORIENTED_EDGE ( 'NONE', *, *, #255, .F. ) ;
#101 = CARTESIAN_POINT ( 'NONE',  ( 1.000000000000000000, 1.224646799147353207E-16, -30.00000000000000000 ) ) ;
#102 = ORIENTED_EDGE ( 'NONE', *, *, #131, .T. ) ;
#103 = ORIENTED_EDGE ( 'NONE', *, *, #64, .T. ) ;
#104 = UNCERTAINTY_MEASURE_WITH_UNIT (LENGTH_MEASURE( 1.000000000000000082E-05 ), #130, 'distance_accuracy_value', 'NONE');
#105 = VERTEX_POINT ( 'NONE', #110 ) ;
#106 = CIRCLE ( 'NONE', #12, 1.000000000000000000 ) ;
#107 = DIRECTION ( 'NONE',  ( 1.000000000000000000, 0.000000000000000000, 0.000000000000000000 ) ) ;
#108 = APPLICATION_CONTEXT ( 'configuration controlled 3d designs of mechanical parts and assemblies' ) ;
#109 = CARTESIAN_POINT ( 'NONE',  ( 0.000000000000000000, 0.000000000000000000, 0.000000000000000000 ) ) ;
#110 = CARTESIAN_POINT ( 'NONE',  ( -1.000000000000000000, 0.000000000000000000, -30.00000000000000000 ) ) ;
#111 = CARTESIAN_POINT ( 'NONE',  ( 0.000000000000000000, 0.000000000000000000, 0.000000000000000000 ) ) ;
#112 = EDGE_CURVE ( 'NONE', #171, #215, #179, .T. ) ;
#113 = DIRECTION ( 'NONE',  ( -0.000000000000000000, -0.000000000000000000, -1.000000000000000000 ) ) ;
#114 = APPROVAL_ROLE ( '' ) ;
#115 = VECTOR ( 'NONE', #139, 1000.000000000000000 ) ;
#116 = DATE_AND_TIME ( #206, #76 ) ;
#117 = COORDINATED_UNIVERSAL_TIME_OFFSET ( 6, 0, .BEHIND. ) ;
#118 = VECTOR ( 'NONE', #69, 1000.000000000000000 ) ;
#119 = PERSON_AND_ORGANIZATION ( #213, #227 ) ;
#120 = CARTESIAN_POINT ( 'NONE',  ( 1.899999999999999911, 2.326828918379971365E-16, 2.000000000000000000 ) ) ;
#121 = CARTESIAN_POINT ( 'NONE',  ( 0.000000000000000000, 0.000000000000000000, 0.000000000000000000 ) ) ;
#122 = EDGE_LOOP ( 'NONE', ( #219, #222 ) ) ;
#123 = ADVANCED_FACE ( 'NONE', ( #223 ), #165, .T. ) ;
#124 = VERTEX_POINT ( 'NONE', #200 ) ;
#125 = DIRECTION ( 'NONE',  ( 1.000000000000000000, 0.000000000000000000, 0.000000000000000000 ) ) ;
#126 = DIRECTION ( 'NONE',  ( 1.000000000000000000, 0.000000000000000000, -0.000000000000000000 ) ) ;
#127 = DIRECTION ( 'NONE',  ( 1.000000000000000000, 0.000000000000000000, -0.000000000000000000 ) ) ;
#128 = CARTESIAN_POINT ( 'NONE',  ( 0.000000000000000000, 0.000000000000000000, 2.000000000000000000 ) ) ;
#129 = AXIS2_PLACEMENT_3D ( 'NONE', #199, #149, #107 ) ;
#130 =( LENGTH_UNIT ( ) NAMED_UNIT ( * ) SI_UNIT ( .MILLI., .METRE. ) );
#131 = EDGE_CURVE ( 'NONE', #4, #105, #147, .T. ) ;
#132 = DIRECTION ( 'NONE',  ( 1.000000000000000000, 0.000000000000000000, 0.000000000000000000 ) ) ;
#133 = COORDINATED_UNIVERSAL_TIME_OFFSET ( 6, 0, .BEHIND. ) ;
#134 = APPROVAL_ROLE ( '' ) ;
#135 = VECTOR ( 'NONE', #240, 1000.000000000000000 ) ;
#136 = CALENDAR_DATE ( 2026, 8, 9 ) ;
#137 = DATE_AND_TIME ( #229, #57 ) ;
#138 = PERSON_AND_ORGANIZATION ( #213, #227 ) ;
#139 = DIRECTION ( 'NONE',  ( -0.000000000000000000, -0.000000000000000000, -1.000000000000000000 ) ) ;
#140 = CC_DESIGN_PERSON_AND_ORGANIZATION_ASSIGNMENT ( #138, #75, ( #176 ) ) ;
#141 = EDGE_LOOP ( 'NONE', ( #237, #218, #161, #22 ) ) ;
#142 = PLANE ( 'NONE',  #248 ) ;
#143 = DIRECTION ( 'NONE',  ( 0.000000000000000000, 0.000000000000000000, 1.000000000000000000 ) ) ;
#144 = EDGE_LOOP ( 'NONE', ( #158, #65 ) ) ;
#145 = AXIS2_PLACEMENT_3D ( 'NONE', #11, #184, #26 ) ;
#146 = FACE_OUTER_BOUND ( 'NONE', #141, .T. ) ;
#147 = LINE ( 'NONE', #9, #172 ) ;
#148 = CC_DESIGN_APPROVAL ( #20, ( #176 ) ) ;
#149 = DIRECTION ( 'NONE',  ( 0.000000000000000000, 0.000000000000000000, 1.000000000000000000 ) ) ;
#150 = DIRECTION ( 'NONE',  ( -0.000000000000000000, -0.000000000000000000, -1.000000000000000000 ) ) ;
#151 = CALENDAR_DATE ( 2026, 8, 9 ) ;
#152 = LOCAL_TIME ( 22, 20, 33.00000000000000000, #133 ) ;
#153 = SECURITY_CLASSIFICATION_LEVEL ( 'unclassified' ) ;
#154 = COORDINATED_UNIVERSAL_TIME_OFFSET ( 6, 0, .BEHIND. ) ;
#155 = PERSON_AND_ORGANIZATION_ROLE ( 'creator' ) ;
#156 = AXIS2_PLACEMENT_3D ( 'NONE', #111, #164, #162 ) ;
#157 = ORIENTED_EDGE ( 'NONE', *, *, #78, .F. ) ;
#158 = ORIENTED_EDGE ( 'NONE', *, *, #59, .T. ) ;
#159 = ORIENTED_EDGE ( 'NONE', *, *, #232, .F. ) ;
#160 = DIRECTION ( 'NONE',  ( 1.000000000000000000, 0.000000000000000000, 0.000000000000000000 ) ) ;
#161 = ORIENTED_EDGE ( 'NONE', *, *, #94, .T. ) ;
#162 = DIRECTION ( 'NONE',  ( 1.000000000000000000, 0.000000000000000000, 0.000000000000000000 ) ) ;
#163 = CYLINDRICAL_SURFACE ( 'NONE', #72, 1.899999999999999911 ) ;
#164 = DIRECTION ( 'NONE',  ( 0.000000000000000000, 0.000000000000000000, 1.000000000000000000 ) ) ;
#165 = PLANE ( 'NONE',  #95 ) ;
#166 = CIRCLE ( 'NONE', #28, 1.899999999999999911 ) ;
#167 = CARTESIAN_POINT ( 'NONE',  ( 0.000000000000000000, 0.000000000000000000, 0.000000000000000000 ) ) ;
#168 = AXIS2_PLACEMENT_3D ( 'NONE', #70, #201, #132 ) ;
#169 = MECHANICAL_CONTEXT ( 'NONE', #83, 'mechanical' ) ;
#170 = DATE_AND_TIME ( #98, #238 ) ;
#171 = VERTEX_POINT ( 'NONE', #48 ) ;
#172 = VECTOR ( 'NONE', #113, 1000.000000000000000 ) ;
#173 = VERTEX_POINT ( 'NONE', #7 ) ;
#174 = ORIENTED_EDGE ( 'NONE', *, *, #255, .T. ) ;
#175 = CARTESIAN_POINT ( 'NONE',  ( 0.000000000000000000, 0.000000000000000000, 2.000000000000000000 ) ) ;
#176 = PRODUCT_DEFINITION_FORMATION_WITH_SPECIFIED_SOURCE ( 'ANY', '', #81, .NOT_KNOWN. ) ;
#177 = APPROVAL ( #96, 'UNSPECIFIED' ) ;
#178 = ORIENTED_EDGE ( 'NONE', *, *, #77, .F. ) ;
#179 = LINE ( 'NONE', #52, #118 ) ;
#180 = CARTESIAN_POINT ( 'NONE',  ( -1.899999999999999911, 0.000000000000000000, 0.000000000000000000 ) ) ;
#181 = CARTESIAN_POINT ( 'NONE',  ( 0.000000000000000000, 0.000000000000000000, 2.000000000000000000 ) ) ;
#182 = MANIFOLD_SOLID_BREP ( 'Socket_head_envelope', #212 ) ;
#183 = DIRECTION ( 'NONE',  ( 0.000000000000000000, 0.000000000000000000, 1.000000000000000000 ) ) ;
#184 = DIRECTION ( 'NONE',  ( -0.000000000000000000, -0.000000000000000000, -1.000000000000000000 ) ) ;
#185 = CC_DESIGN_APPROVAL ( #3, ( #225 ) ) ;
#186 = DIRECTION ( 'NONE',  ( 1.000000000000000000, 0.000000000000000000, 0.000000000000000000 ) ) ;
#187 = PERSON_AND_ORGANIZATION ( #213, #227 ) ;
#188 = PERSON_AND_ORGANIZATION_ROLE ( 'classification_officer' ) ;
#189 =( GEOMETRIC_REPRESENTATION_CONTEXT ( 3 ) GLOBAL_UNCERTAINTY_ASSIGNED_CONTEXT ( ( #104 ) ) GLOBAL_UNIT_ASSIGNED_CONTEXT ( ( #130, #29, #13 ) ) REPRESENTATION_CONTEXT ( 'NONE', 'WORKASPACE' ) );
#190 = CIRCLE ( 'NONE', #38, 1.899999999999999911 ) ;
#191 = CIRCLE ( 'NONE', #168, 1.899999999999999911 ) ;
#192 = ADVANCED_FACE ( 'NONE', ( #93 ), #91, .T. ) ;
#193 = EDGE_LOOP ( 'NONE', ( #241, #2, #195, #174 ) ) ;
#194 = DIRECTION ( 'NONE',  ( 0.000000000000000000, 0.000000000000000000, 1.000000000000000000 ) ) ;
#195 = ORIENTED_EDGE ( 'NONE', *, *, #112, .T. ) ;
#196 = EDGE_LOOP ( 'NONE', ( #159, #82, #24, #88 ) ) ;
#197 = EDGE_CURVE ( 'NONE', #4, #124, #51, .T. ) ;
#198 = LINE ( 'NONE', #40, #115 ) ;
#199 = CARTESIAN_POINT ( 'NONE',  ( 0.000000000000000000, 0.000000000000000000, -30.00000000000000000 ) ) ;
#200 = CARTESIAN_POINT ( 'NONE',  ( 1.000000000000000000, 1.224646799147353207E-16, 0.000000000000000000 ) ) ;
#201 = DIRECTION ( 'NONE',  ( 0.000000000000000000, 0.000000000000000000, 1.000000000000000000 ) ) ;
#202 = DIRECTION ( 'NONE',  ( -0.000000000000000000, -0.000000000000000000, -1.000000000000000000 ) ) ;
#203 = CC_DESIGN_DATE_AND_TIME_ASSIGNMENT ( #230, #58, ( #31 ) ) ;
#204 = CARTESIAN_POINT ( 'NONE',  ( 0.000000000000000000, 0.000000000000000000, 0.000000000000000000 ) ) ;
#205 = AXIS2_PLACEMENT_3D ( 'NONE', #167, #250, #47 ) ;
#206 = CALENDAR_DATE ( 2026, 8, 9 ) ;
#207 = DATE_AND_TIME ( #136, #216 ) ;
#208 = PRODUCT_RELATED_PRODUCT_CATEGORY ( 'detail', '', ( #81 ) ) ;
#209 = ADVANCED_FACE ( 'NONE', ( #224 ), #10, .T. ) ;
#210 = APPROVAL_DATE_TIME ( #116, #20 ) ;
#211 = DIRECTION ( 'NONE',  ( 0.000000000000000000, 0.000000000000000000, 1.000000000000000000 ) ) ;
#212 = CLOSED_SHELL ( 'NONE', ( #252, #247, #192, #39, #209, #123, #86 ) ) ;
#213 = PERSON ( 'UNSPECIFIED', 'UNSPECIFIED', 'UNSPECIFIED', ('UNSPECIFIED'), ('UNSPECIFIED'), ('UNSPECIFIED') ) ;
#214 = PRODUCT_DEFINITION_SHAPE ( 'NONE', 'NONE',  #31 ) ;
#215 = VERTEX_POINT ( 'NONE', #180 ) ;
#216 = LOCAL_TIME ( 22, 20, 33.00000000000000000, #55 ) ;
#217 = APPROVAL_PERSON_ORGANIZATION ( #234, #177, #114 ) ;
#218 = ORIENTED_EDGE ( 'NONE', *, *, #77, .T. ) ;
#219 = ORIENTED_EDGE ( 'NONE', *, *, #64, .F. ) ;
#220 = EDGE_CURVE ( 'NONE', #124, #4, #46, .T. ) ;
#221 = CARTESIAN_POINT ( 'NONE',  ( 0.000000000000000000, 0.000000000000000000, -30.00000000000000000 ) ) ;
#222 = ORIENTED_EDGE ( 'NONE', *, *, #94, .F. ) ;
#223 = FACE_OUTER_BOUND ( 'NONE', #144, .T. ) ;
#224 = FACE_OUTER_BOUND ( 'NONE', #193, .T. ) ;
#225 = SECURITY_CLASSIFICATION ( '', '', #153 ) ;
#226 = AXIS2_PLACEMENT_3D ( 'NONE', #121, #194, #19 ) ;
#227 = ORGANIZATION ( 'UNSPECIFIED', 'UNSPECIFIED', '' ) ;
#228 = DIRECTION ( 'NONE',  ( -1.000000000000000000, 0.000000000000000000, 0.000000000000000000 ) ) ;
#229 = CALENDAR_DATE ( 2026, 8, 9 ) ;
#230 = DATE_AND_TIME ( #151, #152 ) ;
#231 = CC_DESIGN_SECURITY_CLASSIFICATION ( #225, ( #176 ) ) ;
#232 = EDGE_CURVE ( 'NONE', #63, #171, #190, .T. ) ;
#233 = PERSON_AND_ORGANIZATION ( #213, #227 ) ;
#234 = PERSON_AND_ORGANIZATION ( #213, #227 ) ;
#235 = APPROVAL_STATUS ( 'not_yet_approved' ) ;
#236 = ORIENTED_EDGE ( 'NONE', *, *, #220, .T. ) ;
#237 = ORIENTED_EDGE ( 'NONE', *, *, #220, .F. ) ;
#238 = LOCAL_TIME ( 22, 20, 33.00000000000000000, #117 ) ;
#239 = AXIS2_PLACEMENT_3D ( 'NONE', #109, #30, #126 ) ;
#240 = DIRECTION ( 'NONE',  ( -0.000000000000000000, -0.000000000000000000, -1.000000000000000000 ) ) ;
#241 = ORIENTED_EDGE ( 'NONE', *, *, #37, .F. ) ;
#242 = EDGE_LOOP ( 'NONE', ( #178, #44, #102, #103 ) ) ;
#243 = FACE_BOUND ( 'NONE', #21, .T. ) ;
#244 = DIRECTION ( 'NONE',  ( -1.000000000000000000, 0.000000000000000000, 0.000000000000000000 ) ) ;
#245 = DIRECTION ( 'NONE',  ( 1.000000000000000000, 0.000000000000000000, 0.000000000000000000 ) ) ;
#246 = CARTESIAN_POINT ( 'NONE',  ( 0.000000000000000000, 0.000000000000000000, 2.000000000000000000 ) ) ;
#247 = ADVANCED_FACE ( 'NONE', ( #146 ), #50, .T. ) ;
#248 = AXIS2_PLACEMENT_3D ( 'NONE', #43, #143, #60 ) ;
#249 = AXIS2_PLACEMENT_3D ( 'NONE', #246, #202, #228 ) ;
#250 = DIRECTION ( 'NONE',  ( 0.000000000000000000, 0.000000000000000000, 1.000000000000000000 ) ) ;
#251 = PERSON_AND_ORGANIZATION ( #213, #227 ) ;
#252 = ADVANCED_FACE ( 'NONE', ( #90 ), #163, .T. ) ;
#253 = APPROVAL_DATE_TIME ( #170, #3 ) ;
#254 = APPROVAL_ROLE ( '' ) ;
#255 = EDGE_CURVE ( 'NONE', #215, #173, #191, .T. ) ;
ENDSEC;
END-ISO-10303-21;
