ISO-10303-21;
HEADER;
FILE_DESCRIPTION (( 'STEP AP203' ),
    '1' );
FILE_NAME ('HW-S_M3x12_socket_ENVELOPE.step',
    '2026-09-08T03:41:04',
    ( '' ),
    ( '' ),
    'SwSTEP 2.0',
    'SolidWorks 2026',
    '' );
FILE_SCHEMA (( 'CONFIG_CONTROL_DESIGN' ));
ENDSEC;

DATA;
#1 = VERTEX_POINT ( 'NONE', #9 ) ;
#2 = ADVANCED_FACE ( 'NONE', ( #75, #30 ), #236, .F. ) ;
#3 = CARTESIAN_POINT ( 'NONE',  ( 1.500000000000000000, 1.836970198721029934E-16, 0.000000000000000000 ) ) ;
#4 = SECURITY_CLASSIFICATION ( '', '', #147 ) ;
#5 = VECTOR ( 'NONE', #10, 1000.000000000000000 ) ;
#6 = CARTESIAN_POINT ( 'NONE',  ( 0.000000000000000000, 0.000000000000000000, 3.000000000000000000 ) ) ;
#7 = CC_DESIGN_PERSON_AND_ORGANIZATION_ASSIGNMENT ( #128, #110, ( #253 ) ) ;
#8 = CARTESIAN_POINT ( 'NONE',  ( 0.000000000000000000, 0.000000000000000000, 3.000000000000000000 ) ) ;
#9 = CARTESIAN_POINT ( 'NONE',  ( 1.500000000000000000, 1.836970198721029934E-16, -12.00000000000000000 ) ) ;
#10 = DIRECTION ( 'NONE',  ( -0.000000000000000000, -0.000000000000000000, -1.000000000000000000 ) ) ;
#11 = APPROVAL ( #86, 'UNSPECIFIED' ) ;
#12 =( LENGTH_UNIT ( ) NAMED_UNIT ( * ) SI_UNIT ( .MILLI., .METRE. ) );
#13 = DIRECTION ( 'NONE',  ( 0.000000000000000000, 0.000000000000000000, 1.000000000000000000 ) ) ;
#14 = AXIS2_PLACEMENT_3D ( 'NONE', #143, #52, #103 ) ;
#15 = DIRECTION ( 'NONE',  ( 1.000000000000000000, 0.000000000000000000, 0.000000000000000000 ) ) ;
#16 = DIRECTION ( 'NONE',  ( 0.000000000000000000, 0.000000000000000000, 1.000000000000000000 ) ) ;
#17 = CARTESIAN_POINT ( 'NONE',  ( 0.000000000000000000, 0.000000000000000000, 0.000000000000000000 ) ) ;
#18 = MANIFOLD_SOLID_BREP ( 'Socket_head_envelope', #105 ) ;
#19 = PERSON_AND_ORGANIZATION ( #108, #24 ) ;
#20 = AXIS2_PLACEMENT_3D ( 'NONE', #202, #124, #203 ) ;
#21 = VECTOR ( 'NONE', #155, 1000.000000000000000 ) ;
#22 = PERSON_AND_ORGANIZATION ( #108, #24 ) ;
#23 = CALENDAR_DATE ( 2026, 7, 9 ) ;
#24 = ORGANIZATION ( 'UNSPECIFIED', 'UNSPECIFIED', '' ) ;
#25 = ORIENTED_EDGE ( 'NONE', *, *, #137, .F. ) ;
#26 = ORIENTED_EDGE ( 'NONE', *, *, #53, .T. ) ;
#27 = ORIENTED_EDGE ( 'NONE', *, *, #173, .T. ) ;
#28 = EDGE_CURVE ( 'NONE', #102, #1, #136, .T. ) ;
#29 = CIRCLE ( 'NONE', #157, 1.500000000000000000 ) ;
#30 = FACE_OUTER_BOUND ( 'NONE', #94, .T. ) ;
#31 = CARTESIAN_POINT ( 'NONE',  ( -2.750000000000000000, 0.000000000000000000, 0.000000000000000000 ) ) ;
#32 = CARTESIAN_POINT ( 'NONE',  ( 1.500000000000000000, 1.836970198721029934E-16, 0.000000000000000000 ) ) ;
#33 = EDGE_LOOP ( 'NONE', ( #44, #114 ) ) ;
#34 = AXIS2_PLACEMENT_3D ( 'NONE', #69, #161, #142 ) ;
#35 = CARTESIAN_POINT ( 'NONE',  ( 0.000000000000000000, 0.000000000000000000, 0.000000000000000000 ) ) ;
#36 = ADVANCED_FACE ( 'NONE', ( #113 ), #215, .T. ) ;
#37 = DIRECTION ( 'NONE',  ( 1.000000000000000000, 0.000000000000000000, -0.000000000000000000 ) ) ;
#38 = LINE ( 'NONE', #99, #21 ) ;
#39 = DIRECTION ( 'NONE',  ( -0.000000000000000000, -0.000000000000000000, -1.000000000000000000 ) ) ;
#40 = CIRCLE ( 'NONE', #126, 2.750000000000000000 ) ;
#41 = ORIENTED_EDGE ( 'NONE', *, *, #177, .T. ) ;
#42 = APPROVAL_ROLE ( '' ) ;
#43 = DATE_AND_TIME ( #227, #67 ) ;
#44 = ORIENTED_EDGE ( 'NONE', *, *, #228, .T. ) ;
#45 = PERSON_AND_ORGANIZATION_ROLE ( 'creator' ) ;
#46 = FACE_OUTER_BOUND ( 'NONE', #119, .T. ) ;
#47 = CARTESIAN_POINT ( 'NONE',  ( 0.000000000000000000, 0.000000000000000000, -12.00000000000000000 ) ) ;
#48 = CC_DESIGN_SECURITY_CLASSIFICATION ( #4, ( #162 ) ) ;
#49 = CYLINDRICAL_SURFACE ( 'NONE', #132, 1.500000000000000000 ) ;
#50 = CARTESIAN_POINT ( 'NONE',  ( 0.000000000000000000, 0.000000000000000000, 0.000000000000000000 ) ) ;
#51 = ORIENTED_EDGE ( 'NONE', *, *, #222, .T. ) ;
#52 = DIRECTION ( 'NONE',  ( -0.000000000000000000, -0.000000000000000000, -1.000000000000000000 ) ) ;
#53 = EDGE_CURVE ( 'NONE', #190, #76, #62, .T. ) ;
#54 = CARTESIAN_POINT ( 'NONE',  ( -2.750000000000000000, 0.000000000000000000, 3.000000000000000000 ) ) ;
#55 = UNCERTAINTY_MEASURE_WITH_UNIT (LENGTH_MEASURE( 1.000000000000000082E-05 ), #12, 'distance_accuracy_value', 'NONE');
#56 = LOCAL_TIME ( 22, 41, 4.000000000000000000, #186 ) ;
#57 = FACE_OUTER_BOUND ( 'NONE', #78, .T. ) ;
#58 = CC_DESIGN_APPROVAL ( #201, ( #208 ) ) ;
#59 = ORIENTED_EDGE ( 'NONE', *, *, #106, .F. ) ;
#60 = DATE_TIME_ROLE ( 'creation_date' ) ;
#61 = DATE_AND_TIME ( #230, #183 ) ;
#62 = LINE ( 'NONE', #174, #179 ) ;
#63 = DIRECTION ( 'NONE',  ( 0.000000000000000000, 0.000000000000000000, 1.000000000000000000 ) ) ;
#64 = EDGE_LOOP ( 'NONE', ( #41, #51 ) ) ;
#65 = ORIENTED_EDGE ( 'NONE', *, *, #242, .T. ) ;
#66 = VERTEX_POINT ( 'NONE', #31 ) ;
#67 = LOCAL_TIME ( 22, 41, 4.000000000000000000, #88 ) ;
#68 = DIRECTION ( 'NONE',  ( 0.000000000000000000, 0.000000000000000000, 1.000000000000000000 ) ) ;
#69 = CARTESIAN_POINT ( 'NONE',  ( 0.000000000000000000, 0.000000000000000000, -12.00000000000000000 ) ) ;
#70 = CYLINDRICAL_SURFACE ( 'NONE', #14, 2.750000000000000000 ) ;
#71 = DIRECTION ( 'NONE',  ( 1.000000000000000000, 0.000000000000000000, 0.000000000000000000 ) ) ;
#72 = PERSON_AND_ORGANIZATION_ROLE ( 'classification_officer' ) ;
#73 = ADVANCED_FACE ( 'NONE', ( #46 ), #49, .T. ) ;
#74 = EDGE_LOOP ( 'NONE', ( #59, #237, #169, #192 ) ) ;
#75 = FACE_BOUND ( 'NONE', #33, .T. ) ;
#76 = VERTEX_POINT ( 'NONE', #96 ) ;
#77 = ORIENTED_EDGE ( 'NONE', *, *, #137, .T. ) ;
#78 = EDGE_LOOP ( 'NONE', ( #89, #151 ) ) ;
#79 = DIRECTION ( 'NONE',  ( 1.000000000000000000, 0.000000000000000000, 0.000000000000000000 ) ) ;
#80 = APPROVAL_PERSON_ORGANIZATION ( #22, #11, #87 ) ;
#81 = DIRECTION ( 'NONE',  ( -1.000000000000000000, 0.000000000000000000, 0.000000000000000000 ) ) ;
#82 = PLANE ( 'NONE',  #163 ) ;
#83 = CARTESIAN_POINT ( 'NONE',  ( 2.750000000000000000, 3.367778697655221012E-16, 0.000000000000000000 ) ) ;
#84 = CALENDAR_DATE ( 2026, 7, 9 ) ;
#85 = DATE_AND_TIME ( #23, #56 ) ;
#86 = APPROVAL_STATUS ( 'not_yet_approved' ) ;
#87 = APPROVAL_ROLE ( '' ) ;
#88 = COORDINATED_UNIVERSAL_TIME_OFFSET ( 6, 0, .BEHIND. ) ;
#89 = ORIENTED_EDGE ( 'NONE', *, *, #182, .F. ) ;
#90 = ORIENTED_EDGE ( 'NONE', *, *, #177, .F. ) ;
#91 = DIRECTION ( 'NONE',  ( -0.000000000000000000, -0.000000000000000000, -1.000000000000000000 ) ) ;
#92 = AXIS2_PLACEMENT_3D ( 'NONE', #101, #223, #248 ) ;
#93 = CIRCLE ( 'NONE', #120, 1.500000000000000000 ) ;
#94 = EDGE_LOOP ( 'NONE', ( #212, #118 ) ) ;
#95 = DIRECTION ( 'NONE',  ( -1.000000000000000000, 0.000000000000000000, 0.000000000000000000 ) ) ;
#96 = CARTESIAN_POINT ( 'NONE',  ( -1.500000000000000000, 0.000000000000000000, -12.00000000000000000 ) ) ;
#97 = AXIS2_PLACEMENT_3D ( 'NONE', #198, #68, #71 ) ;
#98 = DIRECTION ( 'NONE',  ( 0.000000000000000000, 0.000000000000000000, 1.000000000000000000 ) ) ;
#99 = CARTESIAN_POINT ( 'NONE',  ( -2.750000000000000000, 0.000000000000000000, 3.000000000000000000 ) ) ;
#100 = ADVANCED_FACE ( 'NONE', ( #217 ), #154, .T. ) ;
#101 = CARTESIAN_POINT ( 'NONE',  ( 0.000000000000000000, 0.000000000000000000, 3.000000000000000000 ) ) ;
#102 = VERTEX_POINT ( 'NONE', #32 ) ;
#103 = DIRECTION ( 'NONE',  ( -1.000000000000000000, 0.000000000000000000, 0.000000000000000000 ) ) ;
#104 = PERSON_AND_ORGANIZATION ( #108, #24 ) ;
#105 = CLOSED_SHELL ( 'NONE', ( #239, #158, #73, #189, #36, #100, #2 ) ) ;
#106 = EDGE_CURVE ( 'NONE', #102, #190, #93, .T. ) ;
#107 = SHAPE_DEFINITION_REPRESENTATION ( #205, #218 ) ;
#108 = PERSON ( 'UNSPECIFIED', 'UNSPECIFIED', 'UNSPECIFIED', ('UNSPECIFIED'), ('UNSPECIFIED'), ('UNSPECIFIED') ) ;
#109 = CC_DESIGN_PERSON_AND_ORGANIZATION_ASSIGNMENT ( #255, #254, ( #162 ) ) ;
#110 = PERSON_AND_ORGANIZATION_ROLE ( 'design_owner' ) ;
#111 = CC_DESIGN_PERSON_AND_ORGANIZATION_ASSIGNMENT ( #19, #144, ( #208 ) ) ;
#112 = COORDINATED_UNIVERSAL_TIME_OFFSET ( 6, 0, .BEHIND. ) ;
#113 = FACE_OUTER_BOUND ( 'NONE', #138, .T. ) ;
#114 = ORIENTED_EDGE ( 'NONE', *, *, #106, .T. ) ;
#115 = CC_DESIGN_PERSON_AND_ORGANIZATION_ASSIGNMENT ( #164, #45, ( #162 ) ) ;
#116 = CIRCLE ( 'NONE', #97, 2.750000000000000000 ) ;
#117 = VERTEX_POINT ( 'NONE', #213 ) ;
#118 = ORIENTED_EDGE ( 'NONE', *, *, #194, .F. ) ;
#119 = EDGE_LOOP ( 'NONE', ( #171, #240, #26, #238 ) ) ;
#120 = AXIS2_PLACEMENT_3D ( 'NONE', #241, #63, #134 ) ;
#121 = FACE_OUTER_BOUND ( 'NONE', #74, .T. ) ;
#122 = CARTESIAN_POINT ( 'NONE',  ( 0.000000000000000000, 0.000000000000000000, 0.000000000000000000 ) ) ;
#123 = CC_DESIGN_DATE_AND_TIME_ASSIGNMENT ( #61, #184, ( #4 ) ) ;
#124 = DIRECTION ( 'NONE',  ( 0.000000000000000000, 0.000000000000000000, 1.000000000000000000 ) ) ;
#125 = CALENDAR_DATE ( 2026, 7, 9 ) ;
#126 = AXIS2_PLACEMENT_3D ( 'NONE', #122, #245, #141 ) ;
#127 = APPROVAL_DATE_TIME ( #43, #11 ) ;
#128 = PERSON_AND_ORGANIZATION ( #108, #24 ) ;
#129 = EDGE_CURVE ( 'NONE', #1, #76, #29, .T. ) ;
#130 = PERSON_AND_ORGANIZATION ( #108, #24 ) ;
#131 = APPROVAL_DATE_TIME ( #188, #244 ) ;
#132 = AXIS2_PLACEMENT_3D ( 'NONE', #191, #91, #95 ) ;
#133 = DIRECTION ( 'NONE',  ( 1.000000000000000000, 0.000000000000000000, -0.000000000000000000 ) ) ;
#134 = DIRECTION ( 'NONE',  ( 1.000000000000000000, 0.000000000000000000, 0.000000000000000000 ) ) ;
#135 = DIRECTION ( 'NONE',  ( -0.000000000000000000, -0.000000000000000000, -1.000000000000000000 ) ) ;
#136 = LINE ( 'NONE', #3, #5 ) ;
#137 = EDGE_CURVE ( 'NONE', #195, #66, #38, .T. ) ;
#138 = EDGE_LOOP ( 'NONE', ( #219, #90, #77, #27 ) ) ;
#139 = VECTOR ( 'NONE', #39, 1000.000000000000000 ) ;
#140 = APPLICATION_PROTOCOL_DEFINITION ( 'international standard', 'config_control_design', 1994, #216 ) ;
#141 = DIRECTION ( 'NONE',  ( 1.000000000000000000, 0.000000000000000000, 0.000000000000000000 ) ) ;
#142 = DIRECTION ( 'NONE',  ( 1.000000000000000000, 0.000000000000000000, 0.000000000000000000 ) ) ;
#143 = CARTESIAN_POINT ( 'NONE',  ( 0.000000000000000000, 0.000000000000000000, 3.000000000000000000 ) ) ;
#144 = PERSON_AND_ORGANIZATION_ROLE ( 'creator' ) ;
#145 = CIRCLE ( 'NONE', #92, 2.750000000000000000 ) ;
#146 = APPLICATION_PROTOCOL_DEFINITION ( 'international standard', 'config_control_design', 1994, #172 ) ;
#147 = SECURITY_CLASSIFICATION_LEVEL ( 'unclassified' ) ;
#148 = CC_DESIGN_APPROVAL ( #11, ( #162 ) ) ;
#149 = ORIENTED_EDGE ( 'NONE', *, *, #222, .F. ) ;
#150 = DIRECTION ( 'NONE',  ( 1.000000000000000000, 0.000000000000000000, -0.000000000000000000 ) ) ;
#151 = ORIENTED_EDGE ( 'NONE', *, *, #129, .F. ) ;
#152 = EDGE_LOOP ( 'NONE', ( #149, #65, #231, #25 ) ) ;
#153 = LOCAL_TIME ( 22, 41, 4.000000000000000000, #166 ) ;
#154 = PLANE ( 'NONE',  #206 ) ;
#155 = DIRECTION ( 'NONE',  ( -0.000000000000000000, -0.000000000000000000, -1.000000000000000000 ) ) ;
#156 = AXIS2_PLACEMENT_3D ( 'NONE', #35, #178, #15 ) ;
#157 = AXIS2_PLACEMENT_3D ( 'NONE', #47, #13, #79 ) ;
#158 = ADVANCED_FACE ( 'NONE', ( #121 ), #199, .T. ) ;
#159 = CARTESIAN_POINT ( 'NONE',  ( 0.000000000000000000, 0.000000000000000000, 0.000000000000000000 ) ) ;
#160 = FACE_OUTER_BOUND ( 'NONE', #152, .T. ) ;
#161 = DIRECTION ( 'NONE',  ( 0.000000000000000000, 0.000000000000000000, 1.000000000000000000 ) ) ;
#162 = PRODUCT_DEFINITION_FORMATION_WITH_SPECIFIED_SOURCE ( 'ANY', '', #253, .NOT_KNOWN. ) ;
#163 = AXIS2_PLACEMENT_3D ( 'NONE', #221, #246, #37 ) ;
#164 = PERSON_AND_ORGANIZATION ( #108, #24 ) ;
#165 = CC_DESIGN_APPROVAL ( #244, ( #4 ) ) ;
#166 = COORDINATED_UNIVERSAL_TIME_OFFSET ( 6, 0, .BEHIND. ) ;
#167 = APPROVAL_DATE_TIME ( #250, #201 ) ;
#168 =( GEOMETRIC_REPRESENTATION_CONTEXT ( 3 ) GLOBAL_UNCERTAINTY_ASSIGNED_CONTEXT ( ( #55 ) ) GLOBAL_UNIT_ASSIGNED_CONTEXT ( ( #12, #243, #220 ) ) REPRESENTATION_CONTEXT ( 'NONE', 'WORKASPACE' ) );
#169 = ORIENTED_EDGE ( 'NONE', *, *, #129, .T. ) ;
#170 = AXIS2_PLACEMENT_3D ( 'NONE', #8, #175, #197 ) ;
#171 = ORIENTED_EDGE ( 'NONE', *, *, #28, .F. ) ;
#172 = APPLICATION_CONTEXT ( 'configuration controlled 3d designs of mechanical parts and assemblies' ) ;
#173 = EDGE_CURVE ( 'NONE', #66, #185, #224, .T. ) ;
#174 = CARTESIAN_POINT ( 'NONE',  ( -1.500000000000000000, 0.000000000000000000, 0.000000000000000000 ) ) ;
#175 = DIRECTION ( 'NONE',  ( -0.000000000000000000, -0.000000000000000000, -1.000000000000000000 ) ) ;
#176 = DIRECTION ( 'NONE',  ( -0.000000000000000000, -0.000000000000000000, -1.000000000000000000 ) ) ;
#177 = EDGE_CURVE ( 'NONE', #195, #117, #116, .T. ) ;
#178 = DIRECTION ( 'NONE',  ( 0.000000000000000000, 0.000000000000000000, 1.000000000000000000 ) ) ;
#179 = VECTOR ( 'NONE', #135, 1000.000000000000000 ) ;
#180 = CARTESIAN_POINT ( 'NONE',  ( -1.500000000000000000, 0.000000000000000000, 0.000000000000000000 ) ) ;
#181 = CARTESIAN_POINT ( 'NONE',  ( 2.750000000000000000, 3.367778697655221012E-16, 3.000000000000000000 ) ) ;
#182 = EDGE_CURVE ( 'NONE', #76, #1, #249, .T. ) ;
#183 = LOCAL_TIME ( 22, 41, 4.000000000000000000, #233 ) ;
#184 = DATE_TIME_ROLE ( 'classification_date' ) ;
#185 = VERTEX_POINT ( 'NONE', #83 ) ;
#186 = COORDINATED_UNIVERSAL_TIME_OFFSET ( 6, 0, .BEHIND. ) ;
#187 = MECHANICAL_CONTEXT ( 'NONE', #216, 'mechanical' ) ;
#188 = DATE_AND_TIME ( #125, #229 ) ;
#189 = ADVANCED_FACE ( 'NONE', ( #57 ), #82, .F. ) ;
#190 = VERTEX_POINT ( 'NONE', #180 ) ;
#191 = CARTESIAN_POINT ( 'NONE',  ( 0.000000000000000000, 0.000000000000000000, 0.000000000000000000 ) ) ;
#192 = ORIENTED_EDGE ( 'NONE', *, *, #53, .F. ) ;
#193 = AXIS2_PLACEMENT_3D ( 'NONE', #159, #16, #247 ) ;
#194 = EDGE_CURVE ( 'NONE', #185, #66, #40, .T. ) ;
#195 = VERTEX_POINT ( 'NONE', #54 ) ;
#196 = DIRECTION ( 'NONE',  ( 0.000000000000000000, 0.000000000000000000, 1.000000000000000000 ) ) ;
#197 = DIRECTION ( 'NONE',  ( -1.000000000000000000, 0.000000000000000000, 0.000000000000000000 ) ) ;
#198 = CARTESIAN_POINT ( 'NONE',  ( 0.000000000000000000, 0.000000000000000000, 3.000000000000000000 ) ) ;
#199 = CYLINDRICAL_SURFACE ( 'NONE', #211, 1.500000000000000000 ) ;
#200 = CIRCLE ( 'NONE', #20, 1.500000000000000000 ) ;
#201 = APPROVAL ( #209, 'UNSPECIFIED' ) ;
#202 = CARTESIAN_POINT ( 'NONE',  ( 0.000000000000000000, 0.000000000000000000, 0.000000000000000000 ) ) ;
#203 = DIRECTION ( 'NONE',  ( 1.000000000000000000, 0.000000000000000000, 0.000000000000000000 ) ) ;
#204 = APPROVAL_PERSON_ORGANIZATION ( #130, #244, #42 ) ;
#205 = PRODUCT_DEFINITION_SHAPE ( 'NONE', 'NONE',  #208 ) ;
#206 = AXIS2_PLACEMENT_3D ( 'NONE', #6, #196, #150 ) ;
#207 = PERSON_AND_ORGANIZATION ( #108, #24 ) ;
#208 = PRODUCT_DEFINITION ( 'UNKNOWN', '', #162, #226 ) ;
#209 = APPROVAL_STATUS ( 'not_yet_approved' ) ;
#210 = APPROVAL_STATUS ( 'not_yet_approved' ) ;
#211 = AXIS2_PLACEMENT_3D ( 'NONE', #17, #176, #81 ) ;
#212 = ORIENTED_EDGE ( 'NONE', *, *, #173, .F. ) ;
#213 = CARTESIAN_POINT ( 'NONE',  ( 2.750000000000000000, 3.367778697655221012E-16, 3.000000000000000000 ) ) ;
#214 = APPROVAL_PERSON_ORGANIZATION ( #104, #201, #252 ) ;
#215 = CYLINDRICAL_SURFACE ( 'NONE', #170, 2.750000000000000000 ) ;
#216 = APPLICATION_CONTEXT ( 'configuration controlled 3d designs of mechanical parts and assemblies' ) ;
#217 = FACE_OUTER_BOUND ( 'NONE', #64, .T. ) ;
#218 = ADVANCED_BREP_SHAPE_REPRESENTATION ( 'HW-S_M3x12_socket_ENVELOPE', ( #18, #156 ), #168 ) ;
#219 = ORIENTED_EDGE ( 'NONE', *, *, #242, .F. ) ;
#220 =( NAMED_UNIT ( * ) SI_UNIT ( $, .STERADIAN. ) SOLID_ANGLE_UNIT ( ) );
#221 = CARTESIAN_POINT ( 'NONE',  ( 0.000000000000000000, 0.000000000000000000, -12.00000000000000000 ) ) ;
#222 = EDGE_CURVE ( 'NONE', #117, #195, #145, .T. ) ;
#223 = DIRECTION ( 'NONE',  ( 0.000000000000000000, 0.000000000000000000, 1.000000000000000000 ) ) ;
#224 = CIRCLE ( 'NONE', #193, 2.750000000000000000 ) ;
#225 = LINE ( 'NONE', #181, #139 ) ;
#226 = DESIGN_CONTEXT ( 'detailed design', #172, 'design' ) ;
#227 = CALENDAR_DATE ( 2026, 7, 9 ) ;
#228 = EDGE_CURVE ( 'NONE', #190, #102, #200, .T. ) ;
#229 = LOCAL_TIME ( 22, 41, 4.000000000000000000, #112 ) ;
#230 = CALENDAR_DATE ( 2026, 7, 9 ) ;
#231 = ORIENTED_EDGE ( 'NONE', *, *, #194, .T. ) ;
#232 = CC_DESIGN_PERSON_AND_ORGANIZATION_ASSIGNMENT ( #207, #72, ( #4 ) ) ;
#233 = COORDINATED_UNIVERSAL_TIME_OFFSET ( 6, 0, .BEHIND. ) ;
#234 = CC_DESIGN_DATE_AND_TIME_ASSIGNMENT ( #85, #60, ( #208 ) ) ;
#235 = AXIS2_PLACEMENT_3D ( 'NONE', #50, #98, #133 ) ;
#236 = PLANE ( 'NONE',  #235 ) ;
#237 = ORIENTED_EDGE ( 'NONE', *, *, #28, .T. ) ;
#238 = ORIENTED_EDGE ( 'NONE', *, *, #182, .T. ) ;
#239 = ADVANCED_FACE ( 'NONE', ( #160 ), #70, .T. ) ;
#240 = ORIENTED_EDGE ( 'NONE', *, *, #228, .F. ) ;
#241 = CARTESIAN_POINT ( 'NONE',  ( 0.000000000000000000, 0.000000000000000000, 0.000000000000000000 ) ) ;
#242 = EDGE_CURVE ( 'NONE', #117, #185, #225, .T. ) ;
#243 =( NAMED_UNIT ( * ) PLANE_ANGLE_UNIT ( ) SI_UNIT ( $, .RADIAN. ) );
#244 = APPROVAL ( #210, 'UNSPECIFIED' ) ;
#245 = DIRECTION ( 'NONE',  ( 0.000000000000000000, 0.000000000000000000, 1.000000000000000000 ) ) ;
#246 = DIRECTION ( 'NONE',  ( 0.000000000000000000, 0.000000000000000000, 1.000000000000000000 ) ) ;
#247 = DIRECTION ( 'NONE',  ( 1.000000000000000000, 0.000000000000000000, 0.000000000000000000 ) ) ;
#248 = DIRECTION ( 'NONE',  ( 1.000000000000000000, 0.000000000000000000, 0.000000000000000000 ) ) ;
#249 = CIRCLE ( 'NONE', #34, 1.500000000000000000 ) ;
#250 = DATE_AND_TIME ( #84, #153 ) ;
#251 = PRODUCT_RELATED_PRODUCT_CATEGORY ( 'detail', '', ( #253 ) ) ;
#252 = APPROVAL_ROLE ( '' ) ;
#253 = PRODUCT ( 'HW-S_M3x12_socket_ENVELOPE', 'HW-S_M3x12_socket_ENVELOPE', '', ( #187 ) ) ;
#254 = PERSON_AND_ORGANIZATION_ROLE ( 'design_supplier' ) ;
#255 = PERSON_AND_ORGANIZATION ( #108, #24 ) ;
ENDSEC;
END-ISO-10303-21;
