ISO-10303-21;
HEADER;
FILE_DESCRIPTION (( 'STEP AP203' ),
    '1' );
FILE_NAME ('HW-S_M2x10_LOW_HEAD_D4_H1p1_ENVELOPE.step',
    '2026-09-09T03:20:28',
    ( '' ),
    ( '' ),
    'SwSTEP 2.0',
    'SolidWorks 2026',
    '' );
FILE_SCHEMA (( 'CONFIG_CONTROL_DESIGN' ));
ENDSEC;

DATA;
#1 = DIRECTION ( 'NONE',  ( 1.000000000000000000, 0.000000000000000000, 0.000000000000000000 ) ) ;
#2 = AXIS2_PLACEMENT_3D ( 'NONE', #33, #133, #125 ) ;
#3 = APPROVAL_STATUS ( 'not_yet_approved' ) ;
#4 = FACE_OUTER_BOUND ( 'NONE', #107, .T. ) ;
#5 = CC_DESIGN_PERSON_AND_ORGANIZATION_ASSIGNMENT ( #215, #161, ( #112 ) ) ;
#6 = CARTESIAN_POINT ( 'NONE',  ( 2.000000000000000000, 2.449293598294706414E-16, 1.100000000000000089 ) ) ;
#7 = ADVANCED_FACE ( 'NONE', ( #228 ), #20, .T. ) ;
#8 = PRODUCT_DEFINITION_SHAPE ( 'NONE', 'NONE',  #31 ) ;
#9 = PERSON_AND_ORGANIZATION ( #222, #221 ) ;
#10 = ADVANCED_FACE ( 'NONE', ( #38 ), #188, .T. ) ;
#11 = VERTEX_POINT ( 'NONE', #102 ) ;
#12 = APPROVAL_PERSON_ORGANIZATION ( #79, #220, #21 ) ;
#13 = DIRECTION ( 'NONE',  ( -0.000000000000000000, -0.000000000000000000, -1.000000000000000000 ) ) ;
#14 = ORIENTED_EDGE ( 'NONE', *, *, #178, .F. ) ;
#15 =( LENGTH_UNIT ( ) NAMED_UNIT ( * ) SI_UNIT ( .MILLI., .METRE. ) );
#16 = EDGE_LOOP ( 'NONE', ( #74, #151 ) ) ;
#17 = EDGE_CURVE ( 'NONE', #145, #166, #250, .T. ) ;
#18 = MECHANICAL_CONTEXT ( 'NONE', #196, 'mechanical' ) ;
#19 = DIRECTION ( 'NONE',  ( 0.000000000000000000, 0.000000000000000000, 1.000000000000000000 ) ) ;
#20 = CYLINDRICAL_SURFACE ( 'NONE', #182, 2.000000000000000000 ) ;
#21 = APPROVAL_ROLE ( '' ) ;
#22 = DIRECTION ( 'NONE',  ( -0.000000000000000000, -0.000000000000000000, -1.000000000000000000 ) ) ;
#23 = COORDINATED_UNIVERSAL_TIME_OFFSET ( 6, 0, .BEHIND. ) ;
#24 = CARTESIAN_POINT ( 'NONE',  ( -2.000000000000000000, 0.000000000000000000, 1.100000000000000089 ) ) ;
#25 = AXIS2_PLACEMENT_3D ( 'NONE', #53, #191, #229 ) ;
#26 = DATE_AND_TIME ( #43, #131 ) ;
#27 = DATE_AND_TIME ( #80, #65 ) ;
#28 = DIRECTION ( 'NONE',  ( -0.000000000000000000, -0.000000000000000000, -1.000000000000000000 ) ) ;
#29 = EDGE_CURVE ( 'NONE', #190, #193, #138, .T. ) ;
#30 = PRODUCT ( 'HW-S_M2x10_LOW_HEAD_D4_H1p1_ENVELOPE', 'HW-S_M2x10_LOW_HEAD_D4_H1p1_ENVELOPE', '', ( #18 ) ) ;
#31 = PRODUCT_DEFINITION ( 'UNKNOWN', '', #112, #86 ) ;
#32 = APPLICATION_PROTOCOL_DEFINITION ( 'international standard', 'config_control_design', 1994, #207 ) ;
#33 = CARTESIAN_POINT ( 'NONE',  ( 0.000000000000000000, 0.000000000000000000, 0.000000000000000000 ) ) ;
#34 = ORIENTED_EDGE ( 'NONE', *, *, #57, .F. ) ;
#35 = DIRECTION ( 'NONE',  ( 0.000000000000000000, 0.000000000000000000, 1.000000000000000000 ) ) ;
#36 = CIRCLE ( 'NONE', #164, 1.000000000000000000 ) ;
#37 = VERTEX_POINT ( 'NONE', #84 ) ;
#38 = FACE_OUTER_BOUND ( 'NONE', #249, .T. ) ;
#39 = DIRECTION ( 'NONE',  ( 1.000000000000000000, 0.000000000000000000, -0.000000000000000000 ) ) ;
#40 = PERSON_AND_ORGANIZATION ( #222, #221 ) ;
#41 = CC_DESIGN_PERSON_AND_ORGANIZATION_ASSIGNMENT ( #158, #137, ( #112 ) ) ;
#42 = DIRECTION ( 'NONE',  ( 0.000000000000000000, 0.000000000000000000, 1.000000000000000000 ) ) ;
#43 = CALENDAR_DATE ( 2026, 8, 9 ) ;
#44 = DIRECTION ( 'NONE',  ( 1.000000000000000000, 0.000000000000000000, 0.000000000000000000 ) ) ;
#45 = CALENDAR_DATE ( 2026, 8, 9 ) ;
#46 = CC_DESIGN_APPROVAL ( #143, ( #31 ) ) ;
#47 = FACE_OUTER_BOUND ( 'NONE', #93, .T. ) ;
#48 = CARTESIAN_POINT ( 'NONE',  ( 0.000000000000000000, 0.000000000000000000, -10.00000000000000000 ) ) ;
#49 = EDGE_CURVE ( 'NONE', #37, #11, #183, .T. ) ;
#50 = CC_DESIGN_APPROVAL ( #220, ( #235 ) ) ;
#51 = LOCAL_TIME ( 22, 20, 28.00000000000000000, #23 ) ;
#52 = EDGE_CURVE ( 'NONE', #127, #76, #105, .T. ) ;
#53 = CARTESIAN_POINT ( 'NONE',  ( 0.000000000000000000, 0.000000000000000000, 1.100000000000000089 ) ) ;
#54 = CARTESIAN_POINT ( 'NONE',  ( -2.000000000000000000, 0.000000000000000000, 0.000000000000000000 ) ) ;
#55 = ORIENTED_EDGE ( 'NONE', *, *, #122, .T. ) ;
#56 =( NAMED_UNIT ( * ) PLANE_ANGLE_UNIT ( ) SI_UNIT ( $, .RADIAN. ) );
#57 = EDGE_CURVE ( 'NONE', #76, #193, #63, .T. ) ;
#58 = ADVANCED_BREP_SHAPE_REPRESENTATION ( 'HW-S_M2x10_LOW_HEAD_D4_H1p1_ENVELOPE', ( #247, #245 ), #119 ) ;
#59 = DATE_TIME_ROLE ( 'creation_date' ) ;
#60 = DIRECTION ( 'NONE',  ( -0.000000000000000000, -0.000000000000000000, -1.000000000000000000 ) ) ;
#61 = PERSON_AND_ORGANIZATION_ROLE ( 'creator' ) ;
#62 = CARTESIAN_POINT ( 'NONE',  ( 1.000000000000000000, 1.224646799147353207E-16, 0.000000000000000000 ) ) ;
#63 = LINE ( 'NONE', #200, #141 ) ;
#64 = VECTOR ( 'NONE', #242, 1000.000000000000000 ) ;
#65 = LOCAL_TIME ( 22, 20, 28.00000000000000000, #216 ) ;
#66 = CIRCLE ( 'NONE', #2, 2.000000000000000000 ) ;
#67 = CC_DESIGN_PERSON_AND_ORGANIZATION_ASSIGNMENT ( #255, #61, ( #31 ) ) ;
#68 = APPROVAL_ROLE ( '' ) ;
#69 = ORIENTED_EDGE ( 'NONE', *, *, #52, .T. ) ;
#70 = ADVANCED_FACE ( 'NONE', ( #4 ), #163, .T. ) ;
#71 = DIRECTION ( 'NONE',  ( 0.000000000000000000, 0.000000000000000000, 1.000000000000000000 ) ) ;
#72 = EDGE_LOOP ( 'NONE', ( #233, #129, #205, #167 ) ) ;
#73 =( NAMED_UNIT ( * ) SI_UNIT ( $, .STERADIAN. ) SOLID_ANGLE_UNIT ( ) );
#74 = ORIENTED_EDGE ( 'NONE', *, *, #204, .F. ) ;
#75 = DIRECTION ( 'NONE',  ( 1.000000000000000000, 0.000000000000000000, 0.000000000000000000 ) ) ;
#76 = VERTEX_POINT ( 'NONE', #24 ) ;
#77 = CARTESIAN_POINT ( 'NONE',  ( 0.000000000000000000, 0.000000000000000000, -10.00000000000000000 ) ) ;
#78 = ORIENTED_EDGE ( 'NONE', *, *, #49, .F. ) ;
#79 = PERSON_AND_ORGANIZATION ( #222, #221 ) ;
#80 = CALENDAR_DATE ( 2026, 8, 9 ) ;
#81 = AXIS2_PLACEMENT_3D ( 'NONE', #201, #28, #181 ) ;
#82 = DIRECTION ( 'NONE',  ( 1.000000000000000000, 0.000000000000000000, 0.000000000000000000 ) ) ;
#83 = COORDINATED_UNIVERSAL_TIME_OFFSET ( 6, 0, .BEHIND. ) ;
#84 = CARTESIAN_POINT ( 'NONE',  ( 1.000000000000000000, 1.224646799147353207E-16, 0.000000000000000000 ) ) ;
#85 = DIRECTION ( 'NONE',  ( 1.000000000000000000, 0.000000000000000000, 0.000000000000000000 ) ) ;
#86 = DESIGN_CONTEXT ( 'detailed design', #207, 'design' ) ;
#87 = CIRCLE ( 'NONE', #187, 1.000000000000000000 ) ;
#88 = APPROVAL_STATUS ( 'not_yet_approved' ) ;
#89 = ORIENTED_EDGE ( 'NONE', *, *, #178, .T. ) ;
#90 = FACE_OUTER_BOUND ( 'NONE', #16, .T. ) ;
#91 = ORIENTED_EDGE ( 'NONE', *, *, #29, .T. ) ;
#92 = CARTESIAN_POINT ( 'NONE',  ( 0.000000000000000000, 0.000000000000000000, -10.00000000000000000 ) ) ;
#93 = EDGE_LOOP ( 'NONE', ( #210, #14, #248, #185 ) ) ;
#94 = CARTESIAN_POINT ( 'NONE',  ( -1.000000000000000000, 0.000000000000000000, -10.00000000000000000 ) ) ;
#95 = EDGE_CURVE ( 'NONE', #11, #145, #162, .T. ) ;
#96 = DIRECTION ( 'NONE',  ( 1.000000000000000000, 0.000000000000000000, 0.000000000000000000 ) ) ;
#97 = AXIS2_PLACEMENT_3D ( 'NONE', #240, #120, #82 ) ;
#98 = PERSON_AND_ORGANIZATION ( #222, #221 ) ;
#99 = AXIS2_PLACEMENT_3D ( 'NONE', #150, #232, #226 ) ;
#100 = DIRECTION ( 'NONE',  ( 0.000000000000000000, 0.000000000000000000, 1.000000000000000000 ) ) ;
#101 = APPROVAL_DATE_TIME ( #26, #143 ) ;
#102 = CARTESIAN_POINT ( 'NONE',  ( -1.000000000000000000, 0.000000000000000000, 0.000000000000000000 ) ) ;
#103 = APPROVAL_PERSON_ORGANIZATION ( #98, #109, #116 ) ;
#104 = AXIS2_PLACEMENT_3D ( 'NONE', #251, #160, #213 ) ;
#105 = CIRCLE ( 'NONE', #254, 2.000000000000000000 ) ;
#106 = PLANE ( 'NONE',  #209 ) ;
#107 = EDGE_LOOP ( 'NONE', ( #168, #146, #91, #34 ) ) ;
#108 = DIRECTION ( 'NONE',  ( 1.000000000000000000, 0.000000000000000000, -0.000000000000000000 ) ) ;
#109 = APPROVAL ( #139, 'UNSPECIFIED' ) ;
#110 = EDGE_LOOP ( 'NONE', ( #208, #149 ) ) ;
#111 = PLANE ( 'NONE',  #175 ) ;
#112 = PRODUCT_DEFINITION_FORMATION_WITH_SPECIFIED_SOURCE ( 'ANY', '', #30, .NOT_KNOWN. ) ;
#113 = ORIENTED_EDGE ( 'NONE', *, *, #95, .F. ) ;
#114 = PERSON_AND_ORGANIZATION_ROLE ( 'design_owner' ) ;
#115 = VECTOR ( 'NONE', #218, 1000.000000000000000 ) ;
#116 = APPROVAL_ROLE ( '' ) ;
#117 = CARTESIAN_POINT ( 'NONE',  ( 0.000000000000000000, 0.000000000000000000, 0.000000000000000000 ) ) ;
#118 = DATE_AND_TIME ( #140, #51 ) ;
#119 =( GEOMETRIC_REPRESENTATION_CONTEXT ( 3 ) GLOBAL_UNCERTAINTY_ASSIGNED_CONTEXT ( ( #159 ) ) GLOBAL_UNIT_ASSIGNED_CONTEXT ( ( #15, #56, #73 ) ) REPRESENTATION_CONTEXT ( 'NONE', 'WORKASPACE' ) );
#120 = DIRECTION ( 'NONE',  ( 0.000000000000000000, 0.000000000000000000, 1.000000000000000000 ) ) ;
#121 = CYLINDRICAL_SURFACE ( 'NONE', #81, 1.000000000000000000 ) ;
#122 = EDGE_CURVE ( 'NONE', #37, #166, #176, .T. ) ;
#123 = CARTESIAN_POINT ( 'NONE',  ( -1.000000000000000000, 0.000000000000000000, 0.000000000000000000 ) ) ;
#124 = ADVANCED_FACE ( 'NONE', ( #47 ), #121, .T. ) ;
#125 = DIRECTION ( 'NONE',  ( 1.000000000000000000, 0.000000000000000000, 0.000000000000000000 ) ) ;
#126 = FACE_OUTER_BOUND ( 'NONE', #110, .T. ) ;
#127 = VERTEX_POINT ( 'NONE', #6 ) ;
#128 = PLANE ( 'NONE',  #99 ) ;
#129 = ORIENTED_EDGE ( 'NONE', *, *, #223, .F. ) ;
#130 = CARTESIAN_POINT ( 'NONE',  ( 0.000000000000000000, 0.000000000000000000, 0.000000000000000000 ) ) ;
#131 = LOCAL_TIME ( 22, 20, 28.00000000000000000, #144 ) ;
#132 = EDGE_CURVE ( 'NONE', #127, #190, #142, .T. ) ;
#133 = DIRECTION ( 'NONE',  ( 0.000000000000000000, 0.000000000000000000, 1.000000000000000000 ) ) ;
#134 = APPROVAL_DATE_TIME ( #27, #109 ) ;
#135 = DIRECTION ( 'NONE',  ( -1.000000000000000000, 0.000000000000000000, 0.000000000000000000 ) ) ;
#136 = ADVANCED_FACE ( 'NONE', ( #203 ), #128, .T. ) ;
#137 = PERSON_AND_ORGANIZATION_ROLE ( 'design_supplier' ) ;
#138 = CIRCLE ( 'NONE', #97, 2.000000000000000000 ) ;
#139 = APPROVAL_STATUS ( 'not_yet_approved' ) ;
#140 = CALENDAR_DATE ( 2026, 8, 9 ) ;
#141 = VECTOR ( 'NONE', #22, 1000.000000000000000 ) ;
#142 = LINE ( 'NONE', #224, #156 ) ;
#143 = APPROVAL ( #88, 'UNSPECIFIED' ) ;
#144 = COORDINATED_UNIVERSAL_TIME_OFFSET ( 6, 0, .BEHIND. ) ;
#145 = VERTEX_POINT ( 'NONE', #94 ) ;
#146 = ORIENTED_EDGE ( 'NONE', *, *, #132, .T. ) ;
#147 = CARTESIAN_POINT ( 'NONE',  ( 2.000000000000000000, 2.449293598294706414E-16, 0.000000000000000000 ) ) ;
#148 = CLOSED_SHELL ( 'NONE', ( #70, #10, #124, #225, #7, #136, #237 ) ) ;
#149 = ORIENTED_EDGE ( 'NONE', *, *, #219, .F. ) ;
#150 = CARTESIAN_POINT ( 'NONE',  ( 0.000000000000000000, 0.000000000000000000, 1.100000000000000089 ) ) ;
#151 = ORIENTED_EDGE ( 'NONE', *, *, #29, .F. ) ;
#152 = APPROVAL_PERSON_ORGANIZATION ( #9, #143, #68 ) ;
#153 = COORDINATED_UNIVERSAL_TIME_OFFSET ( 6, 0, .BEHIND. ) ;
#154 = CARTESIAN_POINT ( 'NONE',  ( 0.000000000000000000, 0.000000000000000000, 1.100000000000000089 ) ) ;
#155 = CC_DESIGN_PERSON_AND_ORGANIZATION_ASSIGNMENT ( #198, #174, ( #235 ) ) ;
#156 = VECTOR ( 'NONE', #13, 1000.000000000000000 ) ;
#157 = CARTESIAN_POINT ( 'NONE',  ( 0.000000000000000000, 0.000000000000000000, 1.100000000000000089 ) ) ;
#158 = PERSON_AND_ORGANIZATION ( #222, #221 ) ;
#159 = UNCERTAINTY_MEASURE_WITH_UNIT (LENGTH_MEASURE( 1.000000000000000082E-05 ), #15, 'distance_accuracy_value', 'NONE');
#160 = DIRECTION ( 'NONE',  ( -0.000000000000000000, -0.000000000000000000, -1.000000000000000000 ) ) ;
#161 = PERSON_AND_ORGANIZATION_ROLE ( 'creator' ) ;
#162 = LINE ( 'NONE', #123, #64 ) ;
#163 = CYLINDRICAL_SURFACE ( 'NONE', #244, 2.000000000000000000 ) ;
#164 = AXIS2_PLACEMENT_3D ( 'NONE', #130, #71, #96 ) ;
#165 = CC_DESIGN_SECURITY_CLASSIFICATION ( #235, ( #112 ) ) ;
#166 = VERTEX_POINT ( 'NONE', #169 ) ;
#167 = ORIENTED_EDGE ( 'NONE', *, *, #204, .T. ) ;
#168 = ORIENTED_EDGE ( 'NONE', *, *, #52, .F. ) ;
#169 = CARTESIAN_POINT ( 'NONE',  ( 1.000000000000000000, 1.224646799147353207E-16, -10.00000000000000000 ) ) ;
#170 = ORIENTED_EDGE ( 'NONE', *, *, #223, .T. ) ;
#171 = APPLICATION_PROTOCOL_DEFINITION ( 'international standard', 'config_control_design', 1994, #196 ) ;
#172 = DATE_AND_TIME ( #45, #202 ) ;
#173 = PRODUCT_RELATED_PRODUCT_CATEGORY ( 'detail', '', ( #30 ) ) ;
#174 = PERSON_AND_ORGANIZATION_ROLE ( 'classification_officer' ) ;
#175 = AXIS2_PLACEMENT_3D ( 'NONE', #92, #19, #39 ) ;
#176 = LINE ( 'NONE', #62, #115 ) ;
#177 = DATE_TIME_ROLE ( 'classification_date' ) ;
#178 = EDGE_CURVE ( 'NONE', #11, #37, #36, .T. ) ;
#179 = DATE_AND_TIME ( #241, #246 ) ;
#180 = CC_DESIGN_APPROVAL ( #109, ( #112 ) ) ;
#181 = DIRECTION ( 'NONE',  ( -1.000000000000000000, 0.000000000000000000, 0.000000000000000000 ) ) ;
#182 = AXIS2_PLACEMENT_3D ( 'NONE', #154, #234, #135 ) ;
#183 = CIRCLE ( 'NONE', #217, 1.000000000000000000 ) ;
#184 = CARTESIAN_POINT ( 'NONE',  ( 0.000000000000000000, 0.000000000000000000, 0.000000000000000000 ) ) ;
#185 = ORIENTED_EDGE ( 'NONE', *, *, #17, .T. ) ;
#186 = ORIENTED_EDGE ( 'NONE', *, *, #219, .T. ) ;
#187 = AXIS2_PLACEMENT_3D ( 'NONE', #77, #35, #211 ) ;
#188 = CYLINDRICAL_SURFACE ( 'NONE', #104, 1.000000000000000000 ) ;
#189 = FACE_BOUND ( 'NONE', #227, .T. ) ;
#190 = VERTEX_POINT ( 'NONE', #147 ) ;
#191 = DIRECTION ( 'NONE',  ( 0.000000000000000000, 0.000000000000000000, 1.000000000000000000 ) ) ;
#192 = CC_DESIGN_PERSON_AND_ORGANIZATION_ASSIGNMENT ( #40, #114, ( #30 ) ) ;
#193 = VERTEX_POINT ( 'NONE', #54 ) ;
#194 = SECURITY_CLASSIFICATION_LEVEL ( 'unclassified' ) ;
#195 = DIRECTION ( 'NONE',  ( 0.000000000000000000, 0.000000000000000000, 1.000000000000000000 ) ) ;
#196 = APPLICATION_CONTEXT ( 'configuration controlled 3d designs of mechanical parts and assemblies' ) ;
#197 = DIRECTION ( 'NONE',  ( -1.000000000000000000, 0.000000000000000000, 0.000000000000000000 ) ) ;
#198 = PERSON_AND_ORGANIZATION ( #222, #221 ) ;
#199 = CIRCLE ( 'NONE', #25, 2.000000000000000000 ) ;
#200 = CARTESIAN_POINT ( 'NONE',  ( -2.000000000000000000, 0.000000000000000000, 1.100000000000000089 ) ) ;
#201 = CARTESIAN_POINT ( 'NONE',  ( 0.000000000000000000, 0.000000000000000000, 0.000000000000000000 ) ) ;
#202 = LOCAL_TIME ( 22, 20, 28.00000000000000000, #153 ) ;
#203 = FACE_OUTER_BOUND ( 'NONE', #252, .T. ) ;
#204 = EDGE_CURVE ( 'NONE', #193, #190, #66, .T. ) ;
#205 = ORIENTED_EDGE ( 'NONE', *, *, #57, .T. ) ;
#206 = DIRECTION ( 'NONE',  ( 0.000000000000000000, 0.000000000000000000, 1.000000000000000000 ) ) ;
#207 = APPLICATION_CONTEXT ( 'configuration controlled 3d designs of mechanical parts and assemblies' ) ;
#208 = ORIENTED_EDGE ( 'NONE', *, *, #17, .F. ) ;
#209 = AXIS2_PLACEMENT_3D ( 'NONE', #231, #206, #108 ) ;
#210 = ORIENTED_EDGE ( 'NONE', *, *, #122, .F. ) ;
#211 = DIRECTION ( 'NONE',  ( 1.000000000000000000, 0.000000000000000000, 0.000000000000000000 ) ) ;
#212 = CC_DESIGN_DATE_AND_TIME_ASSIGNMENT ( #118, #59, ( #31 ) ) ;
#213 = DIRECTION ( 'NONE',  ( -1.000000000000000000, 0.000000000000000000, 0.000000000000000000 ) ) ;
#214 = AXIS2_PLACEMENT_3D ( 'NONE', #48, #42, #1 ) ;
#215 = PERSON_AND_ORGANIZATION ( #222, #221 ) ;
#216 = COORDINATED_UNIVERSAL_TIME_OFFSET ( 6, 0, .BEHIND. ) ;
#217 = AXIS2_PLACEMENT_3D ( 'NONE', #117, #100, #44 ) ;
#218 = DIRECTION ( 'NONE',  ( -0.000000000000000000, -0.000000000000000000, -1.000000000000000000 ) ) ;
#219 = EDGE_CURVE ( 'NONE', #166, #145, #87, .T. ) ;
#220 = APPROVAL ( #3, 'UNSPECIFIED' ) ;
#221 = ORGANIZATION ( 'UNSPECIFIED', 'UNSPECIFIED', '' ) ;
#222 = PERSON ( 'UNSPECIFIED', 'UNSPECIFIED', 'UNSPECIFIED', ('UNSPECIFIED'), ('UNSPECIFIED'), ('UNSPECIFIED') ) ;
#223 = EDGE_CURVE ( 'NONE', #76, #127, #199, .T. ) ;
#224 = CARTESIAN_POINT ( 'NONE',  ( 2.000000000000000000, 2.449293598294706414E-16, 1.100000000000000089 ) ) ;
#225 = ADVANCED_FACE ( 'NONE', ( #126 ), #111, .F. ) ;
#226 = DIRECTION ( 'NONE',  ( 1.000000000000000000, 0.000000000000000000, -0.000000000000000000 ) ) ;
#227 = EDGE_LOOP ( 'NONE', ( #89, #230 ) ) ;
#228 = FACE_OUTER_BOUND ( 'NONE', #72, .T. ) ;
#229 = DIRECTION ( 'NONE',  ( 1.000000000000000000, 0.000000000000000000, 0.000000000000000000 ) ) ;
#230 = ORIENTED_EDGE ( 'NONE', *, *, #49, .T. ) ;
#231 = CARTESIAN_POINT ( 'NONE',  ( 0.000000000000000000, 0.000000000000000000, 0.000000000000000000 ) ) ;
#232 = DIRECTION ( 'NONE',  ( 0.000000000000000000, 0.000000000000000000, 1.000000000000000000 ) ) ;
#233 = ORIENTED_EDGE ( 'NONE', *, *, #132, .F. ) ;
#234 = DIRECTION ( 'NONE',  ( -0.000000000000000000, -0.000000000000000000, -1.000000000000000000 ) ) ;
#235 = SECURITY_CLASSIFICATION ( '', '', #194 ) ;
#236 = APPROVAL_DATE_TIME ( #179, #220 ) ;
#237 = ADVANCED_FACE ( 'NONE', ( #189, #90 ), #106, .F. ) ;
#238 = CARTESIAN_POINT ( 'NONE',  ( 0.000000000000000000, 0.000000000000000000, 1.100000000000000089 ) ) ;
#239 = SHAPE_DEFINITION_REPRESENTATION ( #8, #58 ) ;
#240 = CARTESIAN_POINT ( 'NONE',  ( 0.000000000000000000, 0.000000000000000000, 0.000000000000000000 ) ) ;
#241 = CALENDAR_DATE ( 2026, 8, 9 ) ;
#242 = DIRECTION ( 'NONE',  ( -0.000000000000000000, -0.000000000000000000, -1.000000000000000000 ) ) ;
#243 = CC_DESIGN_DATE_AND_TIME_ASSIGNMENT ( #172, #177, ( #235 ) ) ;
#244 = AXIS2_PLACEMENT_3D ( 'NONE', #238, #60, #197 ) ;
#245 = AXIS2_PLACEMENT_3D ( 'NONE', #184, #253, #75 ) ;
#246 = LOCAL_TIME ( 22, 20, 28.00000000000000000, #83 ) ;
#247 = MANIFOLD_SOLID_BREP ( 'Verified_low_head_D4_H1p1', #148 ) ;
#248 = ORIENTED_EDGE ( 'NONE', *, *, #95, .T. ) ;
#249 = EDGE_LOOP ( 'NONE', ( #78, #55, #186, #113 ) ) ;
#250 = CIRCLE ( 'NONE', #214, 1.000000000000000000 ) ;
#251 = CARTESIAN_POINT ( 'NONE',  ( 0.000000000000000000, 0.000000000000000000, 0.000000000000000000 ) ) ;
#252 = EDGE_LOOP ( 'NONE', ( #170, #69 ) ) ;
#253 = DIRECTION ( 'NONE',  ( 0.000000000000000000, 0.000000000000000000, 1.000000000000000000 ) ) ;
#254 = AXIS2_PLACEMENT_3D ( 'NONE', #157, #195, #85 ) ;
#255 = PERSON_AND_ORGANIZATION ( #222, #221 ) ;
ENDSEC;
END-ISO-10303-21;
