ISO-10303-21;
HEADER;
FILE_DESCRIPTION (( 'STEP AP203' ),
    '1' );
FILE_NAME ('HW-S_M2x14_socket_ENVELOPE.step',
    '2026-09-08T03:40:46',
    ( '' ),
    ( '' ),
    'SwSTEP 2.0',
    'SolidWorks 2026',
    '' );
FILE_SCHEMA (( 'CONFIG_CONTROL_DESIGN' ));
ENDSEC;

DATA;
#1 = DIRECTION ( 'NONE',  ( 0.000000000000000000, 0.000000000000000000, 1.000000000000000000 ) ) ;
#2 = ADVANCED_FACE ( 'NONE', ( #218 ), #111, .T. ) ;
#3 = DIRECTION ( 'NONE',  ( -0.000000000000000000, -0.000000000000000000, -1.000000000000000000 ) ) ;
#4 =( NAMED_UNIT ( * ) SI_UNIT ( $, .STERADIAN. ) SOLID_ANGLE_UNIT ( ) );
#5 = CARTESIAN_POINT ( 'NONE',  ( 0.000000000000000000, 0.000000000000000000, 2.000000000000000000 ) ) ;
#6 = APPROVAL_ROLE ( '' ) ;
#7 = SHAPE_DEFINITION_REPRESENTATION ( #94, #73 ) ;
#8 = CIRCLE ( 'NONE', #154, 1.000000000000000000 ) ;
#9 = PERSON_AND_ORGANIZATION_ROLE ( 'design_supplier' ) ;
#10 = APPLICATION_CONTEXT ( 'configuration controlled 3d designs of mechanical parts and assemblies' ) ;
#11 = ORIENTED_EDGE ( 'NONE', *, *, #46, .T. ) ;
#12 = APPROVAL ( #228, 'UNSPECIFIED' ) ;
#13 = VERTEX_POINT ( 'NONE', #178 ) ;
#14 = AXIS2_PLACEMENT_3D ( 'NONE', #179, #158, #240 ) ;
#15 = DIRECTION ( 'NONE',  ( 0.000000000000000000, 0.000000000000000000, 1.000000000000000000 ) ) ;
#16 = DIRECTION ( 'NONE',  ( 1.000000000000000000, 0.000000000000000000, 0.000000000000000000 ) ) ;
#17 = ORIENTED_EDGE ( 'NONE', *, *, #80, .T. ) ;
#18 = PRODUCT_RELATED_PRODUCT_CATEGORY ( 'detail', '', ( #133 ) ) ;
#19 = APPROVAL_PERSON_ORGANIZATION ( #230, #12, #247 ) ;
#20 = VERTEX_POINT ( 'NONE', #151 ) ;
#21 = FACE_OUTER_BOUND ( 'NONE', #238, .T. ) ;
#22 = LINE ( 'NONE', #242, #225 ) ;
#23 = CLOSED_SHELL ( 'NONE', ( #210, #175, #164, #58, #87, #2, #254 ) ) ;
#24 = CIRCLE ( 'NONE', #14, 1.899999999999999911 ) ;
#25 =( LENGTH_UNIT ( ) NAMED_UNIT ( * ) SI_UNIT ( .MILLI., .METRE. ) );
#26 = CARTESIAN_POINT ( 'NONE',  ( 0.000000000000000000, 0.000000000000000000, 0.000000000000000000 ) ) ;
#27 = DIRECTION ( 'NONE',  ( -0.000000000000000000, -0.000000000000000000, -1.000000000000000000 ) ) ;
#28 = CALENDAR_DATE ( 2026, 7, 9 ) ;
#29 = COORDINATED_UNIVERSAL_TIME_OFFSET ( 6, 0, .BEHIND. ) ;
#30 = ORIENTED_EDGE ( 'NONE', *, *, #223, .F. ) ;
#31 = DIRECTION ( 'NONE',  ( 1.000000000000000000, 0.000000000000000000, 0.000000000000000000 ) ) ;
#32 = AXIS2_PLACEMENT_3D ( 'NONE', #161, #67, #65 ) ;
#33 = CARTESIAN_POINT ( 'NONE',  ( 1.000000000000000000, 1.224646799147353207E-16, -14.00000000000000000 ) ) ;
#34 = CC_DESIGN_DATE_AND_TIME_ASSIGNMENT ( #52, #107, ( #98 ) ) ;
#35 = ORIENTED_EDGE ( 'NONE', *, *, #123, .T. ) ;
#36 = ORIENTED_EDGE ( 'NONE', *, *, #194, .T. ) ;
#37 = AXIS2_PLACEMENT_3D ( 'NONE', #173, #216, #16 ) ;
#38 = VECTOR ( 'NONE', #64, 1000.000000000000000 ) ;
#39 = DIRECTION ( 'NONE',  ( 0.000000000000000000, 0.000000000000000000, 1.000000000000000000 ) ) ;
#40 = EDGE_CURVE ( 'NONE', #20, #79, #55, .T. ) ;
#41 = CARTESIAN_POINT ( 'NONE',  ( 0.000000000000000000, 0.000000000000000000, 2.000000000000000000 ) ) ;
#42 = DIRECTION ( 'NONE',  ( -1.000000000000000000, 0.000000000000000000, 0.000000000000000000 ) ) ;
#43 = AXIS2_PLACEMENT_3D ( 'NONE', #115, #53, #132 ) ;
#44 = PRODUCT_DEFINITION_FORMATION_WITH_SPECIFIED_SOURCE ( 'ANY', '', #133, .NOT_KNOWN. ) ;
#45 = CYLINDRICAL_SURFACE ( 'NONE', #74, 1.899999999999999911 ) ;
#46 = EDGE_CURVE ( 'NONE', #138, #54, #8, .T. ) ;
#47 = UNCERTAINTY_MEASURE_WITH_UNIT (LENGTH_MEASURE( 1.000000000000000082E-05 ), #25, 'distance_accuracy_value', 'NONE');
#48 = DIRECTION ( 'NONE',  ( 0.000000000000000000, 0.000000000000000000, 1.000000000000000000 ) ) ;
#49 = APPROVAL_PERSON_ORGANIZATION ( #246, #149, #6 ) ;
#50 = COORDINATED_UNIVERSAL_TIME_OFFSET ( 6, 0, .BEHIND. ) ;
#51 = DATE_AND_TIME ( #28, #199 ) ;
#52 = DATE_AND_TIME ( #129, #131 ) ;
#53 = DIRECTION ( 'NONE',  ( 0.000000000000000000, 0.000000000000000000, 1.000000000000000000 ) ) ;
#54 = VERTEX_POINT ( 'NONE', #33 ) ;
#55 = CIRCLE ( 'NONE', #204, 1.000000000000000000 ) ;
#56 = DIRECTION ( 'NONE',  ( 0.000000000000000000, 0.000000000000000000, 1.000000000000000000 ) ) ;
#57 = LOCAL_TIME ( 22, 40, 46.00000000000000000, #29 ) ;
#58 = ADVANCED_FACE ( 'NONE', ( #60 ), #195, .F. ) ;
#59 = VERTEX_POINT ( 'NONE', #95 ) ;
#60 = FACE_OUTER_BOUND ( 'NONE', #76, .T. ) ;
#61 = CC_DESIGN_DATE_AND_TIME_ASSIGNMENT ( #229, #145, ( #249 ) ) ;
#62 = AXIS2_PLACEMENT_3D ( 'NONE', #119, #224, #141 ) ;
#63 = CARTESIAN_POINT ( 'NONE',  ( 0.000000000000000000, 0.000000000000000000, -14.00000000000000000 ) ) ;
#64 = DIRECTION ( 'NONE',  ( -0.000000000000000000, -0.000000000000000000, -1.000000000000000000 ) ) ;
#65 = DIRECTION ( 'NONE',  ( -1.000000000000000000, 0.000000000000000000, 0.000000000000000000 ) ) ;
#66 = APPROVAL ( #144, 'UNSPECIFIED' ) ;
#67 = DIRECTION ( 'NONE',  ( -0.000000000000000000, -0.000000000000000000, -1.000000000000000000 ) ) ;
#68 = COORDINATED_UNIVERSAL_TIME_OFFSET ( 6, 0, .BEHIND. ) ;
#69 = CALENDAR_DATE ( 2026, 7, 9 ) ;
#70 = COORDINATED_UNIVERSAL_TIME_OFFSET ( 6, 0, .BEHIND. ) ;
#71 = MANIFOLD_SOLID_BREP ( 'Socket_head_envelope', #23 ) ;
#72 = PERSON_AND_ORGANIZATION_ROLE ( 'creator' ) ;
#73 = ADVANCED_BREP_SHAPE_REPRESENTATION ( 'HW-S_M2x14_socket_ENVELOPE', ( #71, #125 ), #159 ) ;
#74 = AXIS2_PLACEMENT_3D ( 'NONE', #227, #184, #42 ) ;
#75 = CARTESIAN_POINT ( 'NONE',  ( 0.000000000000000000, 0.000000000000000000, 0.000000000000000000 ) ) ;
#76 = EDGE_LOOP ( 'NONE', ( #136, #200 ) ) ;
#77 = EDGE_LOOP ( 'NONE', ( #30, #252 ) ) ;
#78 = AXIS2_PLACEMENT_3D ( 'NONE', #5, #1, #208 ) ;
#79 = VERTEX_POINT ( 'NONE', #97 ) ;
#80 = EDGE_CURVE ( 'NONE', #79, #20, #198, .T. ) ;
#81 = DIRECTION ( 'NONE',  ( 1.000000000000000000, 0.000000000000000000, 0.000000000000000000 ) ) ;
#82 = LINE ( 'NONE', #222, #38 ) ;
#83 = DIRECTION ( 'NONE',  ( 0.000000000000000000, 0.000000000000000000, 1.000000000000000000 ) ) ;
#84 = CC_DESIGN_PERSON_AND_ORGANIZATION_ASSIGNMENT ( #110, #186, ( #98 ) ) ;
#85 = FACE_OUTER_BOUND ( 'NONE', #196, .T. ) ;
#86 = APPROVAL_STATUS ( 'not_yet_approved' ) ;
#87 = ADVANCED_FACE ( 'NONE', ( #251 ), #96, .T. ) ;
#88 = PERSON_AND_ORGANIZATION_ROLE ( 'design_owner' ) ;
#89 = DIRECTION ( 'NONE',  ( 1.000000000000000000, 0.000000000000000000, 0.000000000000000000 ) ) ;
#90 = SECURITY_CLASSIFICATION_LEVEL ( 'unclassified' ) ;
#91 = LOCAL_TIME ( 22, 40, 46.00000000000000000, #70 ) ;
#92 = CC_DESIGN_PERSON_AND_ORGANIZATION_ASSIGNMENT ( #166, #72, ( #249 ) ) ;
#93 = ORIENTED_EDGE ( 'NONE', *, *, #157, .F. ) ;
#94 = PRODUCT_DEFINITION_SHAPE ( 'NONE', 'NONE',  #249 ) ;
#95 = CARTESIAN_POINT ( 'NONE',  ( 1.899999999999999911, 2.326828918379971365E-16, 0.000000000000000000 ) ) ;
#96 = CYLINDRICAL_SURFACE ( 'NONE', #32, 1.899999999999999911 ) ;
#97 = CARTESIAN_POINT ( 'NONE',  ( 1.000000000000000000, 1.224646799147353207E-16, 0.000000000000000000 ) ) ;
#98 = SECURITY_CLASSIFICATION ( '', '', #90 ) ;
#99 = ORIENTED_EDGE ( 'NONE', *, *, #223, .T. ) ;
#100 = DIRECTION ( 'NONE',  ( 0.000000000000000000, 0.000000000000000000, 1.000000000000000000 ) ) ;
#101 = CARTESIAN_POINT ( 'NONE',  ( 1.899999999999999911, 2.326828918379971365E-16, 2.000000000000000000 ) ) ;
#102 = EDGE_CURVE ( 'NONE', #152, #135, #197, .T. ) ;
#103 = FACE_BOUND ( 'NONE', #153, .T. ) ;
#104 = LINE ( 'NONE', #221, #176 ) ;
#105 = CARTESIAN_POINT ( 'NONE',  ( 1.899999999999999911, 2.326828918379971365E-16, 2.000000000000000000 ) ) ;
#106 = APPLICATION_PROTOCOL_DEFINITION ( 'international standard', 'config_control_design', 1994, #209 ) ;
#107 = DATE_TIME_ROLE ( 'classification_date' ) ;
#108 = CARTESIAN_POINT ( 'NONE',  ( 0.000000000000000000, 0.000000000000000000, 0.000000000000000000 ) ) ;
#109 = CC_DESIGN_APPROVAL ( #66, ( #98 ) ) ;
#110 = PERSON_AND_ORGANIZATION ( #226, #171 ) ;
#111 = PLANE ( 'NONE',  #167 ) ;
#112 = CC_DESIGN_PERSON_AND_ORGANIZATION_ASSIGNMENT ( #127, #232, ( #44 ) ) ;
#113 = ORIENTED_EDGE ( 'NONE', *, *, #157, .T. ) ;
#114 = DESIGN_CONTEXT ( 'detailed design', #209, 'design' ) ;
#115 = CARTESIAN_POINT ( 'NONE',  ( 0.000000000000000000, 0.000000000000000000, -14.00000000000000000 ) ) ;
#116 = DIRECTION ( 'NONE',  ( 1.000000000000000000, 0.000000000000000000, 0.000000000000000000 ) ) ;
#117 = EDGE_LOOP ( 'NONE', ( #220, #217 ) ) ;
#118 = AXIS2_PLACEMENT_3D ( 'NONE', #63, #83, #122 ) ;
#119 = CARTESIAN_POINT ( 'NONE',  ( 0.000000000000000000, 0.000000000000000000, 0.000000000000000000 ) ) ;
#120 = LINE ( 'NONE', #101, #211 ) ;
#121 = FACE_OUTER_BOUND ( 'NONE', #77, .T. ) ;
#122 = DIRECTION ( 'NONE',  ( 1.000000000000000000, 0.000000000000000000, 0.000000000000000000 ) ) ;
#123 = EDGE_CURVE ( 'NONE', #54, #138, #239, .T. ) ;
#124 = MECHANICAL_CONTEXT ( 'NONE', #10, 'mechanical' ) ;
#125 = AXIS2_PLACEMENT_3D ( 'NONE', #108, #188, #89 ) ;
#126 = CALENDAR_DATE ( 2026, 7, 9 ) ;
#127 = PERSON_AND_ORGANIZATION ( #226, #171 ) ;
#128 = CC_DESIGN_PERSON_AND_ORGANIZATION_ASSIGNMENT ( #212, #9, ( #44 ) ) ;
#129 = CALENDAR_DATE ( 2026, 7, 9 ) ;
#130 = PERSON_AND_ORGANIZATION ( #226, #171 ) ;
#131 = LOCAL_TIME ( 22, 40, 46.00000000000000000, #213 ) ;
#132 = DIRECTION ( 'NONE',  ( 1.000000000000000000, 0.000000000000000000, -0.000000000000000000 ) ) ;
#133 = PRODUCT ( 'HW-S_M2x14_socket_ENVELOPE', 'HW-S_M2x14_socket_ENVELOPE', '', ( #124 ) ) ;
#134 = ORIENTED_EDGE ( 'NONE', *, *, #183, .F. ) ;
#135 = VERTEX_POINT ( 'NONE', #202 ) ;
#136 = ORIENTED_EDGE ( 'NONE', *, *, #46, .F. ) ;
#137 = EDGE_CURVE ( 'NONE', #20, #138, #104, .T. ) ;
#138 = VERTEX_POINT ( 'NONE', #180 ) ;
#139 = CIRCLE ( 'NONE', #189, 1.899999999999999911 ) ;
#140 = CARTESIAN_POINT ( 'NONE',  ( 0.000000000000000000, 0.000000000000000000, 0.000000000000000000 ) ) ;
#141 = DIRECTION ( 'NONE',  ( -1.000000000000000000, 0.000000000000000000, 0.000000000000000000 ) ) ;
#142 = DIRECTION ( 'NONE',  ( -0.000000000000000000, -0.000000000000000000, -1.000000000000000000 ) ) ;
#143 = DIRECTION ( 'NONE',  ( -1.000000000000000000, 0.000000000000000000, 0.000000000000000000 ) ) ;
#144 = APPROVAL_STATUS ( 'not_yet_approved' ) ;
#145 = DATE_TIME_ROLE ( 'creation_date' ) ;
#146 = EDGE_CURVE ( 'NONE', #135, #152, #163, .T. ) ;
#147 = CALENDAR_DATE ( 2026, 7, 9 ) ;
#148 = APPROVAL_DATE_TIME ( #51, #12 ) ;
#149 = APPROVAL ( #86, 'UNSPECIFIED' ) ;
#150 = AXIS2_PLACEMENT_3D ( 'NONE', #41, #100, #241 ) ;
#151 = CARTESIAN_POINT ( 'NONE',  ( -1.000000000000000000, 0.000000000000000000, 0.000000000000000000 ) ) ;
#152 = VERTEX_POINT ( 'NONE', #105 ) ;
#153 = EDGE_LOOP ( 'NONE', ( #233, #17 ) ) ;
#154 = AXIS2_PLACEMENT_3D ( 'NONE', #193, #15, #116 ) ;
#155 = EDGE_LOOP ( 'NONE', ( #93, #235, #174, #11 ) ) ;
#156 = DIRECTION ( 'NONE',  ( 1.000000000000000000, 0.000000000000000000, -0.000000000000000000 ) ) ;
#157 = EDGE_CURVE ( 'NONE', #79, #54, #22, .T. ) ;
#158 = DIRECTION ( 'NONE',  ( 0.000000000000000000, 0.000000000000000000, 1.000000000000000000 ) ) ;
#159 =( GEOMETRIC_REPRESENTATION_CONTEXT ( 3 ) GLOBAL_UNCERTAINTY_ASSIGNED_CONTEXT ( ( #47 ) ) GLOBAL_UNIT_ASSIGNED_CONTEXT ( ( #25, #181, #4 ) ) REPRESENTATION_CONTEXT ( 'NONE', 'WORKASPACE' ) );
#160 = CARTESIAN_POINT ( 'NONE',  ( 0.000000000000000000, 0.000000000000000000, 0.000000000000000000 ) ) ;
#161 = CARTESIAN_POINT ( 'NONE',  ( 0.000000000000000000, 0.000000000000000000, 2.000000000000000000 ) ) ;
#162 = CYLINDRICAL_SURFACE ( 'NONE', #185, 1.000000000000000000 ) ;
#163 = CIRCLE ( 'NONE', #150, 1.899999999999999911 ) ;
#164 = ADVANCED_FACE ( 'NONE', ( #207 ), #162, .T. ) ;
#165 = APPROVAL_DATE_TIME ( #190, #149 ) ;
#166 = PERSON_AND_ORGANIZATION ( #226, #171 ) ;
#167 = AXIS2_PLACEMENT_3D ( 'NONE', #255, #56, #156 ) ;
#168 = CC_DESIGN_APPROVAL ( #149, ( #249 ) ) ;
#169 = APPROVAL_ROLE ( '' ) ;
#170 = ORIENTED_EDGE ( 'NONE', *, *, #201, .T. ) ;
#171 = ORGANIZATION ( 'UNSPECIFIED', 'UNSPECIFIED', '' ) ;
#172 = EDGE_LOOP ( 'NONE', ( #134, #177, #36, #99 ) ) ;
#173 = CARTESIAN_POINT ( 'NONE',  ( 0.000000000000000000, 0.000000000000000000, 0.000000000000000000 ) ) ;
#174 = ORIENTED_EDGE ( 'NONE', *, *, #137, .T. ) ;
#175 = ADVANCED_FACE ( 'NONE', ( #21 ), #182, .T. ) ;
#176 = VECTOR ( 'NONE', #27, 1000.000000000000000 ) ;
#177 = ORIENTED_EDGE ( 'NONE', *, *, #146, .F. ) ;
#178 = CARTESIAN_POINT ( 'NONE',  ( -1.899999999999999911, 0.000000000000000000, 0.000000000000000000 ) ) ;
#179 = CARTESIAN_POINT ( 'NONE',  ( 0.000000000000000000, 0.000000000000000000, 0.000000000000000000 ) ) ;
#180 = CARTESIAN_POINT ( 'NONE',  ( -1.000000000000000000, 0.000000000000000000, -14.00000000000000000 ) ) ;
#181 =( NAMED_UNIT ( * ) PLANE_ANGLE_UNIT ( ) SI_UNIT ( $, .RADIAN. ) );
#182 = CYLINDRICAL_SURFACE ( 'NONE', #62, 1.000000000000000000 ) ;
#183 = EDGE_CURVE ( 'NONE', #152, #59, #120, .T. ) ;
#184 = DIRECTION ( 'NONE',  ( -0.000000000000000000, -0.000000000000000000, -1.000000000000000000 ) ) ;
#185 = AXIS2_PLACEMENT_3D ( 'NONE', #160, #142, #143 ) ;
#186 = PERSON_AND_ORGANIZATION_ROLE ( 'classification_officer' ) ;
#187 = CC_DESIGN_PERSON_AND_ORGANIZATION_ASSIGNMENT ( #245, #88, ( #133 ) ) ;
#188 = DIRECTION ( 'NONE',  ( 0.000000000000000000, 0.000000000000000000, 1.000000000000000000 ) ) ;
#189 = AXIS2_PLACEMENT_3D ( 'NONE', #140, #39, #81 ) ;
#190 = DATE_AND_TIME ( #69, #248 ) ;
#191 = ORIENTED_EDGE ( 'NONE', *, *, #102, .F. ) ;
#192 = AXIS2_PLACEMENT_3D ( 'NONE', #26, #48, #243 ) ;
#193 = CARTESIAN_POINT ( 'NONE',  ( 0.000000000000000000, 0.000000000000000000, -14.00000000000000000 ) ) ;
#194 = EDGE_CURVE ( 'NONE', #135, #13, #82, .T. ) ;
#195 = PLANE ( 'NONE',  #43 ) ;
#196 = EDGE_LOOP ( 'NONE', ( #191, #234, #170, #219 ) ) ;
#197 = CIRCLE ( 'NONE', #78, 1.899999999999999911 ) ;
#198 = CIRCLE ( 'NONE', #37, 1.000000000000000000 ) ;
#199 = LOCAL_TIME ( 22, 40, 46.00000000000000000, #50 ) ;
#200 = ORIENTED_EDGE ( 'NONE', *, *, #123, .F. ) ;
#201 = EDGE_CURVE ( 'NONE', #59, #13, #139, .T. ) ;
#202 = CARTESIAN_POINT ( 'NONE',  ( -1.899999999999999911, 0.000000000000000000, 2.000000000000000000 ) ) ;
#203 = DIRECTION ( 'NONE',  ( -0.000000000000000000, -0.000000000000000000, -1.000000000000000000 ) ) ;
#204 = AXIS2_PLACEMENT_3D ( 'NONE', #75, #253, #31 ) ;
#205 = PLANE ( 'NONE',  #192 ) ;
#206 = APPROVAL_PERSON_ORGANIZATION ( #130, #66, #169 ) ;
#207 = FACE_OUTER_BOUND ( 'NONE', #155, .T. ) ;
#208 = DIRECTION ( 'NONE',  ( 1.000000000000000000, 0.000000000000000000, 0.000000000000000000 ) ) ;
#209 = APPLICATION_CONTEXT ( 'configuration controlled 3d designs of mechanical parts and assemblies' ) ;
#210 = ADVANCED_FACE ( 'NONE', ( #85 ), #45, .T. ) ;
#211 = VECTOR ( 'NONE', #203, 1000.000000000000000 ) ;
#212 = PERSON_AND_ORGANIZATION ( #226, #171 ) ;
#213 = COORDINATED_UNIVERSAL_TIME_OFFSET ( 6, 0, .BEHIND. ) ;
#214 = CC_DESIGN_APPROVAL ( #12, ( #44 ) ) ;
#215 = APPLICATION_PROTOCOL_DEFINITION ( 'international standard', 'config_control_design', 1994, #10 ) ;
#216 = DIRECTION ( 'NONE',  ( 0.000000000000000000, 0.000000000000000000, 1.000000000000000000 ) ) ;
#217 = ORIENTED_EDGE ( 'NONE', *, *, #102, .T. ) ;
#218 = FACE_OUTER_BOUND ( 'NONE', #117, .T. ) ;
#219 = ORIENTED_EDGE ( 'NONE', *, *, #194, .F. ) ;
#220 = ORIENTED_EDGE ( 'NONE', *, *, #146, .T. ) ;
#221 = CARTESIAN_POINT ( 'NONE',  ( -1.000000000000000000, 0.000000000000000000, 0.000000000000000000 ) ) ;
#222 = CARTESIAN_POINT ( 'NONE',  ( -1.899999999999999911, 0.000000000000000000, 2.000000000000000000 ) ) ;
#223 = EDGE_CURVE ( 'NONE', #13, #59, #24, .T. ) ;
#224 = DIRECTION ( 'NONE',  ( -0.000000000000000000, -0.000000000000000000, -1.000000000000000000 ) ) ;
#225 = VECTOR ( 'NONE', #3, 1000.000000000000000 ) ;
#226 = PERSON ( 'UNSPECIFIED', 'UNSPECIFIED', 'UNSPECIFIED', ('UNSPECIFIED'), ('UNSPECIFIED'), ('UNSPECIFIED') ) ;
#227 = CARTESIAN_POINT ( 'NONE',  ( 0.000000000000000000, 0.000000000000000000, 2.000000000000000000 ) ) ;
#228 = APPROVAL_STATUS ( 'not_yet_approved' ) ;
#229 = DATE_AND_TIME ( #126, #57 ) ;
#230 = PERSON_AND_ORGANIZATION ( #226, #171 ) ;
#231 = DATE_AND_TIME ( #147, #91 ) ;
#232 = PERSON_AND_ORGANIZATION_ROLE ( 'creator' ) ;
#233 = ORIENTED_EDGE ( 'NONE', *, *, #40, .T. ) ;
#234 = ORIENTED_EDGE ( 'NONE', *, *, #183, .T. ) ;
#235 = ORIENTED_EDGE ( 'NONE', *, *, #40, .F. ) ;
#236 = CC_DESIGN_SECURITY_CLASSIFICATION ( #98, ( #44 ) ) ;
#237 = ORIENTED_EDGE ( 'NONE', *, *, #80, .F. ) ;
#238 = EDGE_LOOP ( 'NONE', ( #237, #113, #35, #250 ) ) ;
#239 = CIRCLE ( 'NONE', #118, 1.000000000000000000 ) ;
#240 = DIRECTION ( 'NONE',  ( 1.000000000000000000, 0.000000000000000000, 0.000000000000000000 ) ) ;
#241 = DIRECTION ( 'NONE',  ( 1.000000000000000000, 0.000000000000000000, 0.000000000000000000 ) ) ;
#242 = CARTESIAN_POINT ( 'NONE',  ( 1.000000000000000000, 1.224646799147353207E-16, 0.000000000000000000 ) ) ;
#243 = DIRECTION ( 'NONE',  ( 1.000000000000000000, 0.000000000000000000, -0.000000000000000000 ) ) ;
#244 = APPROVAL_DATE_TIME ( #231, #66 ) ;
#245 = PERSON_AND_ORGANIZATION ( #226, #171 ) ;
#246 = PERSON_AND_ORGANIZATION ( #226, #171 ) ;
#247 = APPROVAL_ROLE ( '' ) ;
#248 = LOCAL_TIME ( 22, 40, 46.00000000000000000, #68 ) ;
#249 = PRODUCT_DEFINITION ( 'UNKNOWN', '', #44, #114 ) ;
#250 = ORIENTED_EDGE ( 'NONE', *, *, #137, .F. ) ;
#251 = FACE_OUTER_BOUND ( 'NONE', #172, .T. ) ;
#252 = ORIENTED_EDGE ( 'NONE', *, *, #201, .F. ) ;
#253 = DIRECTION ( 'NONE',  ( 0.000000000000000000, 0.000000000000000000, 1.000000000000000000 ) ) ;
#254 = ADVANCED_FACE ( 'NONE', ( #103, #121 ), #205, .F. ) ;
#255 = CARTESIAN_POINT ( 'NONE',  ( 0.000000000000000000, 0.000000000000000000, 2.000000000000000000 ) ) ;
ENDSEC;
END-ISO-10303-21;
