ISO-10303-21;
HEADER;
FILE_DESCRIPTION (( 'STEP AP203' ),
    '1' );
FILE_NAME ('HW-S_M3x50_socket_ENVELOPE.step',
    '2026-09-08T03:41:40',
    ( '' ),
    ( '' ),
    'SwSTEP 2.0',
    'SolidWorks 2026',
    '' );
FILE_SCHEMA (( 'CONFIG_CONTROL_DESIGN' ));
ENDSEC;

DATA;
#1 = EDGE_LOOP ( 'NONE', ( #238, #92 ) ) ;
#2 = EDGE_CURVE ( 'NONE', #49, #244, #122, .T. ) ;
#3 = DATE_AND_TIME ( #212, #71 ) ;
#4 = COORDINATED_UNIVERSAL_TIME_OFFSET ( 6, 0, .BEHIND. ) ;
#5 = DATE_AND_TIME ( #193, #190 ) ;
#6 = EDGE_LOOP ( 'NONE', ( #184, #161 ) ) ;
#7 = ADVANCED_FACE ( 'NONE', ( #170 ), #53, .F. ) ;
#8 = LOCAL_TIME ( 22, 41, 40.00000000000000000, #4 ) ;
#9 = ORIENTED_EDGE ( 'NONE', *, *, #85, .T. ) ;
#10 = CARTESIAN_POINT ( 'NONE',  ( 0.000000000000000000, 0.000000000000000000, 3.000000000000000000 ) ) ;
#11 = VERTEX_POINT ( 'NONE', #182 ) ;
#12 = CC_DESIGN_DATE_AND_TIME_ASSIGNMENT ( #255, #119, ( #62 ) ) ;
#13 = DIRECTION ( 'NONE',  ( 0.000000000000000000, 0.000000000000000000, 1.000000000000000000 ) ) ;
#14 = CIRCLE ( 'NONE', #57, 1.500000000000000000 ) ;
#15 = DIRECTION ( 'NONE',  ( 1.000000000000000000, 0.000000000000000000, 0.000000000000000000 ) ) ;
#16 = CARTESIAN_POINT ( 'NONE',  ( 0.000000000000000000, 0.000000000000000000, 3.000000000000000000 ) ) ;
#17 = APPROVAL_PERSON_ORGANIZATION ( #22, #199, #159 ) ;
#18 = CARTESIAN_POINT ( 'NONE',  ( 0.000000000000000000, 0.000000000000000000, 0.000000000000000000 ) ) ;
#19 = APPLICATION_PROTOCOL_DEFINITION ( 'international standard', 'config_control_design', 1994, #227 ) ;
#20 =( LENGTH_UNIT ( ) NAMED_UNIT ( * ) SI_UNIT ( .MILLI., .METRE. ) );
#21 = CIRCLE ( 'NONE', #74, 2.750000000000000000 ) ;
#22 = PERSON_AND_ORGANIZATION ( #51, #213 ) ;
#23 = CC_DESIGN_PERSON_AND_ORGANIZATION_ASSIGNMENT ( #106, #89, ( #222 ) ) ;
#24 = APPROVAL_DATE_TIME ( #3, #143 ) ;
#25 = ORIENTED_EDGE ( 'NONE', *, *, #195, .T. ) ;
#26 = PRODUCT_DEFINITION ( 'UNKNOWN', '', #222, #192 ) ;
#27 = DIRECTION ( 'NONE',  ( -0.000000000000000000, -0.000000000000000000, -1.000000000000000000 ) ) ;
#28 = EDGE_LOOP ( 'NONE', ( #125, #164, #148, #72 ) ) ;
#29 = APPROVAL_PERSON_ORGANIZATION ( #46, #143, #123 ) ;
#30 = CARTESIAN_POINT ( 'NONE',  ( 0.000000000000000000, 0.000000000000000000, 3.000000000000000000 ) ) ;
#31 = DIRECTION ( 'NONE',  ( 0.000000000000000000, 0.000000000000000000, 1.000000000000000000 ) ) ;
#32 = CARTESIAN_POINT ( 'NONE',  ( 0.000000000000000000, 0.000000000000000000, 0.000000000000000000 ) ) ;
#33 = AXIS2_PLACEMENT_3D ( 'NONE', #32, #147, #114 ) ;
#34 = UNCERTAINTY_MEASURE_WITH_UNIT (LENGTH_MEASURE( 1.000000000000000082E-05 ), #20, 'distance_accuracy_value', 'NONE');
#35 = CARTESIAN_POINT ( 'NONE',  ( 0.000000000000000000, 0.000000000000000000, 0.000000000000000000 ) ) ;
#36 = APPLICATION_PROTOCOL_DEFINITION ( 'international standard', 'config_control_design', 1994, #50 ) ;
#37 = LINE ( 'NONE', #253, #96 ) ;
#38 = ADVANCED_FACE ( 'NONE', ( #75 ), #79, .T. ) ;
#39 = CARTESIAN_POINT ( 'NONE',  ( 0.000000000000000000, 0.000000000000000000, -50.00000000000000000 ) ) ;
#40 = CALENDAR_DATE ( 2026, 7, 9 ) ;
#41 = SECURITY_CLASSIFICATION_LEVEL ( 'unclassified' ) ;
#42 = EDGE_LOOP ( 'NONE', ( #111, #158, #78, #9 ) ) ;
#43 = CIRCLE ( 'NONE', #104, 2.750000000000000000 ) ;
#44 = APPROVAL_DATE_TIME ( #214, #199 ) ;
#45 = COORDINATED_UNIVERSAL_TIME_OFFSET ( 6, 0, .BEHIND. ) ;
#46 = PERSON_AND_ORGANIZATION ( #51, #213 ) ;
#47 = COORDINATED_UNIVERSAL_TIME_OFFSET ( 6, 0, .BEHIND. ) ;
#48 = AXIS2_PLACEMENT_3D ( 'NONE', #168, #127, #224 ) ;
#49 = VERTEX_POINT ( 'NONE', #97 ) ;
#50 = APPLICATION_CONTEXT ( 'configuration controlled 3d designs of mechanical parts and assemblies' ) ;
#51 = PERSON ( 'UNSPECIFIED', 'UNSPECIFIED', 'UNSPECIFIED', ('UNSPECIFIED'), ('UNSPECIFIED'), ('UNSPECIFIED') ) ;
#52 = DIRECTION ( 'NONE',  ( 0.000000000000000000, 0.000000000000000000, 1.000000000000000000 ) ) ;
#53 = PLANE ( 'NONE',  #48 ) ;
#54 = ADVANCED_FACE ( 'NONE', ( #169 ), #100, .T. ) ;
#55 = LOCAL_TIME ( 22, 41, 40.00000000000000000, #138 ) ;
#56 = CARTESIAN_POINT ( 'NONE',  ( -1.500000000000000000, 0.000000000000000000, -50.00000000000000000 ) ) ;
#57 = AXIS2_PLACEMENT_3D ( 'NONE', #39, #150, #63 ) ;
#58 = CARTESIAN_POINT ( 'NONE',  ( 0.000000000000000000, 0.000000000000000000, 3.000000000000000000 ) ) ;
#59 = PRODUCT ( 'HW-S_M3x50_socket_ENVELOPE', 'HW-S_M3x50_socket_ENVELOPE', '', ( #67 ) ) ;
#60 = FACE_OUTER_BOUND ( 'NONE', #6, .T. ) ;
#61 = EDGE_CURVE ( 'NONE', #11, #145, #101, .T. ) ;
#62 = SECURITY_CLASSIFICATION ( '', '', #41 ) ;
#63 = DIRECTION ( 'NONE',  ( 1.000000000000000000, 0.000000000000000000, 0.000000000000000000 ) ) ;
#64 = AXIS2_PLACEMENT_3D ( 'NONE', #226, #209, #248 ) ;
#65 = CARTESIAN_POINT ( 'NONE',  ( 1.500000000000000000, 1.836970198721029934E-16, 0.000000000000000000 ) ) ;
#66 = CC_DESIGN_PERSON_AND_ORGANIZATION_ASSIGNMENT ( #73, #179, ( #62 ) ) ;
#67 = MECHANICAL_CONTEXT ( 'NONE', #50, 'mechanical' ) ;
#68 = PERSON_AND_ORGANIZATION ( #51, #213 ) ;
#69 = EDGE_CURVE ( 'NONE', #244, #183, #242, .T. ) ;
#70 = DATE_AND_TIME ( #40, #173 ) ;
#71 = LOCAL_TIME ( 22, 41, 40.00000000000000000, #47 ) ;
#72 = ORIENTED_EDGE ( 'NONE', *, *, #225, .T. ) ;
#73 = PERSON_AND_ORGANIZATION ( #51, #213 ) ;
#74 = AXIS2_PLACEMENT_3D ( 'NONE', #243, #52, #220 ) ;
#75 = FACE_OUTER_BOUND ( 'NONE', #121, .T. ) ;
#76 = DIRECTION ( 'NONE',  ( -1.000000000000000000, 0.000000000000000000, 0.000000000000000000 ) ) ;
#77 = CARTESIAN_POINT ( 'NONE',  ( 1.500000000000000000, 1.836970198721029934E-16, 0.000000000000000000 ) ) ;
#78 = ORIENTED_EDGE ( 'NONE', *, *, #235, .T. ) ;
#79 = CYLINDRICAL_SURFACE ( 'NONE', #141, 2.750000000000000000 ) ;
#80 = FACE_OUTER_BOUND ( 'NONE', #139, .T. ) ;
#81 = ADVANCED_FACE ( 'NONE', ( #60 ), #132, .T. ) ;
#82 = DIRECTION ( 'NONE',  ( -1.000000000000000000, 0.000000000000000000, 0.000000000000000000 ) ) ;
#83 = CYLINDRICAL_SURFACE ( 'NONE', #228, 2.750000000000000000 ) ;
#84 = APPROVAL_ROLE ( '' ) ;
#85 = EDGE_CURVE ( 'NONE', #110, #183, #21, .T. ) ;
#86 = DIRECTION ( 'NONE',  ( 0.000000000000000000, 0.000000000000000000, 1.000000000000000000 ) ) ;
#87 = APPROVAL_DATE_TIME ( #70, #246 ) ;
#88 = PRODUCT_RELATED_PRODUCT_CATEGORY ( 'detail', '', ( #59 ) ) ;
#89 = PERSON_AND_ORGANIZATION_ROLE ( 'creator' ) ;
#90 = ORIENTED_EDGE ( 'NONE', *, *, #177, .F. ) ;
#91 = PERSON_AND_ORGANIZATION_ROLE ( 'design_supplier' ) ;
#92 = ORIENTED_EDGE ( 'NONE', *, *, #61, .F. ) ;
#93 = AXIS2_PLACEMENT_3D ( 'NONE', #105, #86, #206 ) ;
#94 = ORIENTED_EDGE ( 'NONE', *, *, #120, .F. ) ;
#95 = ORIENTED_EDGE ( 'NONE', *, *, #126, .T. ) ;
#96 = VECTOR ( 'NONE', #187, 1000.000000000000000 ) ;
#97 = CARTESIAN_POINT ( 'NONE',  ( -2.750000000000000000, 0.000000000000000000, 3.000000000000000000 ) ) ;
#98 = DIRECTION ( 'NONE',  ( 0.000000000000000000, 0.000000000000000000, 1.000000000000000000 ) ) ;
#99 = VERTEX_POINT ( 'NONE', #77 ) ;
#100 = CYLINDRICAL_SURFACE ( 'NONE', #144, 1.500000000000000000 ) ;
#101 = CIRCLE ( 'NONE', #200, 1.500000000000000000 ) ;
#102 = CARTESIAN_POINT ( 'NONE',  ( -1.500000000000000000, 0.000000000000000000, 0.000000000000000000 ) ) ;
#103 = DIRECTION ( 'NONE',  ( 0.000000000000000000, 0.000000000000000000, 1.000000000000000000 ) ) ;
#104 = AXIS2_PLACEMENT_3D ( 'NONE', #30, #247, #252 ) ;
#105 = CARTESIAN_POINT ( 'NONE',  ( 0.000000000000000000, 0.000000000000000000, 0.000000000000000000 ) ) ;
#106 = PERSON_AND_ORGANIZATION ( #51, #213 ) ;
#107 = APPROVAL_STATUS ( 'not_yet_approved' ) ;
#108 = DIRECTION ( 'NONE',  ( -0.000000000000000000, -0.000000000000000000, -1.000000000000000000 ) ) ;
#109 = AXIS2_PLACEMENT_3D ( 'NONE', #18, #103, #233 ) ;
#110 = VERTEX_POINT ( 'NONE', #203 ) ;
#111 = ORIENTED_EDGE ( 'NONE', *, *, #69, .F. ) ;
#112 = CARTESIAN_POINT ( 'NONE',  ( 0.000000000000000000, 0.000000000000000000, -50.00000000000000000 ) ) ;
#113 = CC_DESIGN_APPROVAL ( #143, ( #222 ) ) ;
#114 = DIRECTION ( 'NONE',  ( 1.000000000000000000, 0.000000000000000000, 0.000000000000000000 ) ) ;
#115 = AXIS2_PLACEMENT_3D ( 'NONE', #186, #221, #15 ) ;
#116 = DIRECTION ( 'NONE',  ( 1.000000000000000000, 0.000000000000000000, -0.000000000000000000 ) ) ;
#117 = CC_DESIGN_DATE_AND_TIME_ASSIGNMENT ( #5, #140, ( #26 ) ) ;
#118 = CARTESIAN_POINT ( 'NONE',  ( 2.750000000000000000, 3.367778697655221012E-16, 0.000000000000000000 ) ) ;
#119 = DATE_TIME_ROLE ( 'classification_date' ) ;
#120 = EDGE_CURVE ( 'NONE', #183, #110, #176, .T. ) ;
#121 = EDGE_LOOP ( 'NONE', ( #90, #219, #167, #198 ) ) ;
#122 = CIRCLE ( 'NONE', #156, 2.750000000000000000 ) ;
#123 = APPROVAL_ROLE ( '' ) ;
#124 = SHAPE_DEFINITION_REPRESENTATION ( #162, #251 ) ;
#125 = ORIENTED_EDGE ( 'NONE', *, *, #195, .F. ) ;
#126 = EDGE_CURVE ( 'NONE', #99, #196, #204, .T. ) ;
#127 = DIRECTION ( 'NONE',  ( 0.000000000000000000, 0.000000000000000000, 1.000000000000000000 ) ) ;
#128 = CARTESIAN_POINT ( 'NONE',  ( 2.750000000000000000, 3.367778697655221012E-16, 3.000000000000000000 ) ) ;
#129 =( GEOMETRIC_REPRESENTATION_CONTEXT ( 3 ) GLOBAL_UNCERTAINTY_ASSIGNED_CONTEXT ( ( #34 ) ) GLOBAL_UNIT_ASSIGNED_CONTEXT ( ( #20, #230, #207 ) ) REPRESENTATION_CONTEXT ( 'NONE', 'WORKASPACE' ) );
#130 = LINE ( 'NONE', #102, #134 ) ;
#131 = DIRECTION ( 'NONE',  ( 1.000000000000000000, 0.000000000000000000, 0.000000000000000000 ) ) ;
#132 = PLANE ( 'NONE',  #241 ) ;
#133 = DIRECTION ( 'NONE',  ( 0.000000000000000000, 0.000000000000000000, 1.000000000000000000 ) ) ;
#134 = VECTOR ( 'NONE', #201, 1000.000000000000000 ) ;
#135 = PERSON_AND_ORGANIZATION ( #51, #213 ) ;
#136 = FACE_OUTER_BOUND ( 'NONE', #163, .T. ) ;
#137 = APPROVAL_STATUS ( 'not_yet_approved' ) ;
#138 = COORDINATED_UNIVERSAL_TIME_OFFSET ( 6, 0, .BEHIND. ) ;
#139 = EDGE_LOOP ( 'NONE', ( #240, #25, #181, #180 ) ) ;
#140 = DATE_TIME_ROLE ( 'creation_date' ) ;
#141 = AXIS2_PLACEMENT_3D ( 'NONE', #58, #108, #149 ) ;
#142 = PERSON_AND_ORGANIZATION ( #51, #213 ) ;
#143 = APPROVAL ( #107, 'UNSPECIFIED' ) ;
#144 = AXIS2_PLACEMENT_3D ( 'NONE', #197, #27, #76 ) ;
#145 = VERTEX_POINT ( 'NONE', #56 ) ;
#146 = DIRECTION ( 'NONE',  ( -0.000000000000000000, -0.000000000000000000, -1.000000000000000000 ) ) ;
#147 = DIRECTION ( 'NONE',  ( 0.000000000000000000, 0.000000000000000000, 1.000000000000000000 ) ) ;
#148 = ORIENTED_EDGE ( 'NONE', *, *, #171, .T. ) ;
#149 = DIRECTION ( 'NONE',  ( -1.000000000000000000, 0.000000000000000000, 0.000000000000000000 ) ) ;
#150 = DIRECTION ( 'NONE',  ( 0.000000000000000000, 0.000000000000000000, 1.000000000000000000 ) ) ;
#151 = CARTESIAN_POINT ( 'NONE',  ( -1.500000000000000000, 0.000000000000000000, 0.000000000000000000 ) ) ;
#152 = CARTESIAN_POINT ( 'NONE',  ( 2.750000000000000000, 3.367778697655221012E-16, 3.000000000000000000 ) ) ;
#153 = FACE_BOUND ( 'NONE', #202, .T. ) ;
#154 = MANIFOLD_SOLID_BREP ( 'Socket_head_envelope', #254 ) ;
#155 = PLANE ( 'NONE',  #194 ) ;
#156 = AXIS2_PLACEMENT_3D ( 'NONE', #223, #31, #131 ) ;
#157 = CALENDAR_DATE ( 2026, 7, 9 ) ;
#158 = ORIENTED_EDGE ( 'NONE', *, *, #2, .F. ) ;
#159 = APPROVAL_ROLE ( '' ) ;
#160 = ORIENTED_EDGE ( 'NONE', *, *, #85, .F. ) ;
#161 = ORIENTED_EDGE ( 'NONE', *, *, #177, .T. ) ;
#162 = PRODUCT_DEFINITION_SHAPE ( 'NONE', 'NONE',  #26 ) ;
#163 = EDGE_LOOP ( 'NONE', ( #160, #94 ) ) ;
#164 = ORIENTED_EDGE ( 'NONE', *, *, #205, .F. ) ;
#165 = VECTOR ( 'NONE', #208, 1000.000000000000000 ) ;
#166 = DIRECTION ( 'NONE',  ( 1.000000000000000000, 0.000000000000000000, 0.000000000000000000 ) ) ;
#167 = ORIENTED_EDGE ( 'NONE', *, *, #120, .T. ) ;
#168 = CARTESIAN_POINT ( 'NONE',  ( 0.000000000000000000, 0.000000000000000000, -50.00000000000000000 ) ) ;
#169 = FACE_OUTER_BOUND ( 'NONE', #28, .T. ) ;
#170 = FACE_OUTER_BOUND ( 'NONE', #1, .T. ) ;
#171 = EDGE_CURVE ( 'NONE', #196, #145, #130, .T. ) ;
#172 = CYLINDRICAL_SURFACE ( 'NONE', #64, 1.500000000000000000 ) ;
#173 = LOCAL_TIME ( 22, 41, 40.00000000000000000, #210 ) ;
#174 = PERSON_AND_ORGANIZATION ( #51, #213 ) ;
#175 = FACE_OUTER_BOUND ( 'NONE', #42, .T. ) ;
#176 = CIRCLE ( 'NONE', #33, 2.750000000000000000 ) ;
#177 = EDGE_CURVE ( 'NONE', #244, #49, #43, .T. ) ;
#178 = PERSON_AND_ORGANIZATION_ROLE ( 'creator' ) ;
#179 = PERSON_AND_ORGANIZATION_ROLE ( 'classification_officer' ) ;
#180 = ORIENTED_EDGE ( 'NONE', *, *, #171, .F. ) ;
#181 = ORIENTED_EDGE ( 'NONE', *, *, #61, .T. ) ;
#182 = CARTESIAN_POINT ( 'NONE',  ( 1.500000000000000000, 1.836970198721029934E-16, -50.00000000000000000 ) ) ;
#183 = VERTEX_POINT ( 'NONE', #118 ) ;
#184 = ORIENTED_EDGE ( 'NONE', *, *, #2, .T. ) ;
#185 = APPROVAL_PERSON_ORGANIZATION ( #174, #246, #84 ) ;
#186 = CARTESIAN_POINT ( 'NONE',  ( 0.000000000000000000, 0.000000000000000000, 0.000000000000000000 ) ) ;
#187 = DIRECTION ( 'NONE',  ( -0.000000000000000000, -0.000000000000000000, -1.000000000000000000 ) ) ;
#188 = CC_DESIGN_APPROVAL ( #199, ( #62 ) ) ;
#189 = PERSON_AND_ORGANIZATION_ROLE ( 'design_owner' ) ;
#190 = LOCAL_TIME ( 22, 41, 40.00000000000000000, #45 ) ;
#191 = DIRECTION ( 'NONE',  ( -0.000000000000000000, -0.000000000000000000, -1.000000000000000000 ) ) ;
#192 = DESIGN_CONTEXT ( 'detailed design', #227, 'design' ) ;
#193 = CALENDAR_DATE ( 2026, 7, 9 ) ;
#194 = AXIS2_PLACEMENT_3D ( 'NONE', #35, #133, #116 ) ;
#195 = EDGE_CURVE ( 'NONE', #99, #11, #232, .T. ) ;
#196 = VERTEX_POINT ( 'NONE', #151 ) ;
#197 = CARTESIAN_POINT ( 'NONE',  ( 0.000000000000000000, 0.000000000000000000, 0.000000000000000000 ) ) ;
#198 = ORIENTED_EDGE ( 'NONE', *, *, #235, .F. ) ;
#199 = APPROVAL ( #236, 'UNSPECIFIED' ) ;
#200 = AXIS2_PLACEMENT_3D ( 'NONE', #112, #98, #166 ) ;
#201 = DIRECTION ( 'NONE',  ( -0.000000000000000000, -0.000000000000000000, -1.000000000000000000 ) ) ;
#202 = EDGE_LOOP ( 'NONE', ( #217, #95 ) ) ;
#203 = CARTESIAN_POINT ( 'NONE',  ( -2.750000000000000000, 0.000000000000000000, 0.000000000000000000 ) ) ;
#204 = CIRCLE ( 'NONE', #115, 1.500000000000000000 ) ;
#205 = EDGE_CURVE ( 'NONE', #196, #99, #237, .T. ) ;
#206 = DIRECTION ( 'NONE',  ( 1.000000000000000000, 0.000000000000000000, 0.000000000000000000 ) ) ;
#207 =( NAMED_UNIT ( * ) SI_UNIT ( $, .STERADIAN. ) SOLID_ANGLE_UNIT ( ) );
#208 = DIRECTION ( 'NONE',  ( -0.000000000000000000, -0.000000000000000000, -1.000000000000000000 ) ) ;
#209 = DIRECTION ( 'NONE',  ( -0.000000000000000000, -0.000000000000000000, -1.000000000000000000 ) ) ;
#210 = COORDINATED_UNIVERSAL_TIME_OFFSET ( 6, 0, .BEHIND. ) ;
#211 = CC_DESIGN_PERSON_AND_ORGANIZATION_ASSIGNMENT ( #142, #178, ( #26 ) ) ;
#212 = CALENDAR_DATE ( 2026, 7, 9 ) ;
#213 = ORGANIZATION ( 'UNSPECIFIED', 'UNSPECIFIED', '' ) ;
#214 = DATE_AND_TIME ( #234, #55 ) ;
#215 = ADVANCED_FACE ( 'NONE', ( #80 ), #172, .T. ) ;
#216 = CC_DESIGN_SECURITY_CLASSIFICATION ( #62, ( #222 ) ) ;
#217 = ORIENTED_EDGE ( 'NONE', *, *, #205, .T. ) ;
#218 = VECTOR ( 'NONE', #146, 1000.000000000000000 ) ;
#219 = ORIENTED_EDGE ( 'NONE', *, *, #69, .T. ) ;
#220 = DIRECTION ( 'NONE',  ( 1.000000000000000000, 0.000000000000000000, 0.000000000000000000 ) ) ;
#221 = DIRECTION ( 'NONE',  ( 0.000000000000000000, 0.000000000000000000, 1.000000000000000000 ) ) ;
#222 = PRODUCT_DEFINITION_FORMATION_WITH_SPECIFIED_SOURCE ( 'ANY', '', #59, .NOT_KNOWN. ) ;
#223 = CARTESIAN_POINT ( 'NONE',  ( 0.000000000000000000, 0.000000000000000000, 3.000000000000000000 ) ) ;
#224 = DIRECTION ( 'NONE',  ( 1.000000000000000000, 0.000000000000000000, -0.000000000000000000 ) ) ;
#225 = EDGE_CURVE ( 'NONE', #145, #11, #14, .T. ) ;
#226 = CARTESIAN_POINT ( 'NONE',  ( 0.000000000000000000, 0.000000000000000000, 0.000000000000000000 ) ) ;
#227 = APPLICATION_CONTEXT ( 'configuration controlled 3d designs of mechanical parts and assemblies' ) ;
#228 = AXIS2_PLACEMENT_3D ( 'NONE', #16, #191, #82 ) ;
#229 = ADVANCED_FACE ( 'NONE', ( #153, #136 ), #155, .F. ) ;
#230 =( NAMED_UNIT ( * ) PLANE_ANGLE_UNIT ( ) SI_UNIT ( $, .RADIAN. ) );
#231 = CC_DESIGN_PERSON_AND_ORGANIZATION_ASSIGNMENT ( #68, #91, ( #222 ) ) ;
#232 = LINE ( 'NONE', #65, #165 ) ;
#233 = DIRECTION ( 'NONE',  ( 1.000000000000000000, 0.000000000000000000, 0.000000000000000000 ) ) ;
#234 = CALENDAR_DATE ( 2026, 7, 9 ) ;
#235 = EDGE_CURVE ( 'NONE', #49, #110, #37, .T. ) ;
#236 = APPROVAL_STATUS ( 'not_yet_approved' ) ;
#237 = CIRCLE ( 'NONE', #93, 1.500000000000000000 ) ;
#238 = ORIENTED_EDGE ( 'NONE', *, *, #225, .F. ) ;
#239 = ADVANCED_FACE ( 'NONE', ( #175 ), #83, .T. ) ;
#240 = ORIENTED_EDGE ( 'NONE', *, *, #126, .F. ) ;
#241 = AXIS2_PLACEMENT_3D ( 'NONE', #10, #13, #245 ) ;
#242 = LINE ( 'NONE', #128, #218 ) ;
#243 = CARTESIAN_POINT ( 'NONE',  ( 0.000000000000000000, 0.000000000000000000, 0.000000000000000000 ) ) ;
#244 = VERTEX_POINT ( 'NONE', #152 ) ;
#245 = DIRECTION ( 'NONE',  ( 1.000000000000000000, 0.000000000000000000, -0.000000000000000000 ) ) ;
#246 = APPROVAL ( #137, 'UNSPECIFIED' ) ;
#247 = DIRECTION ( 'NONE',  ( 0.000000000000000000, 0.000000000000000000, 1.000000000000000000 ) ) ;
#248 = DIRECTION ( 'NONE',  ( -1.000000000000000000, 0.000000000000000000, 0.000000000000000000 ) ) ;
#249 = CC_DESIGN_APPROVAL ( #246, ( #26 ) ) ;
#250 = CC_DESIGN_PERSON_AND_ORGANIZATION_ASSIGNMENT ( #135, #189, ( #59 ) ) ;
#251 = ADVANCED_BREP_SHAPE_REPRESENTATION ( 'HW-S_M3x50_socket_ENVELOPE', ( #154, #109 ), #129 ) ;
#252 = DIRECTION ( 'NONE',  ( 1.000000000000000000, 0.000000000000000000, 0.000000000000000000 ) ) ;
#253 = CARTESIAN_POINT ( 'NONE',  ( -2.750000000000000000, 0.000000000000000000, 3.000000000000000000 ) ) ;
#254 = CLOSED_SHELL ( 'NONE', ( #38, #215, #54, #7, #239, #81, #229 ) ) ;
#255 = DATE_AND_TIME ( #157, #8 ) ;
ENDSEC;
END-ISO-10303-21;
